<svg xmlns="http://www.w3.org/2000/svg" viewBox="0 0 320 200" role="img"><path d="M245.7 125.6 L239.0 131.5 L231.1 134.2 L222.5 134.3 L214.1 132.0 L212.3 129.8 L210.3 129.3 L208.2 130.0 L205.7 132.2 L198.0 151.3 L175.3 158.4 L130.8 162.7 L126.8 166.0 L123.8 170.1 L119.3 174.1 L111.1 177.4 L105.4 178.0 L62.5 173.8 L54.4 169.3 L54.4 160.5 L34.0 136.9 L46.0 132.9 L50.0 132.1 L64.0 124.7 L61.6 113.5 L49.2 105.3 L33.2 106.9 L35.6 98.9 L47.3 83.9 L47.3 81.2 L41.4 78.2 L42.3 71.6 L46.2 64.4 L49.4 60.2 L65.0 55.4 L75.9 27.6 L98.3 28.4 L119.0 22.6 L129.8 22.0 L168.2 41.4 L175.9 44.1 L256.3 49.9 L250.2 64.3 L261.6 69.6 L278.0 73.4 L283.9 79.8 L286.8 82.8 L269.0 84.0 L256.1 93.3 L248.3 108.0 L245.7 125.6 Z" fill="#172033" fill-rule="evenodd"/></svg>
