<svg xmlns="http://www.w3.org/2000/svg" viewBox="0 0 320 200" role="img"><path d="M264.0 42.2 L265.0 42.7 L266.0 43.1 L266.8 43.2 L267.1 43.8 L268.1 46.8 L267.8 51.0 L267.9 51.4 L268.0 52.6 L268.0 53.0 L267.6 53.5 L267.7 54.0 L268.1 54.7 L268.3 55.1 L268.5 55.4 L268.7 55.8 L268.7 56.0 L268.7 56.4 L268.7 56.9 L268.5 57.8 L268.3 59.1 L267.9 61.1 L267.8 67.5 L267.7 68.0 L268.7 71.5 L266.3 71.8 L266.1 72.0 L265.8 72.2 L265.7 73.7 L265.6 74.5 L265.6 74.8 L265.3 75.3 L264.1 76.1 L263.8 76.3 L262.3 77.7 L261.5 78.0 L259.8 78.2 L259.1 78.5 L259.1 78.5 L258.4 80.2 L257.4 81.3 L257.1 82.0 L256.7 82.5 L255.9 82.7 L254.9 82.8 L254.8 82.7 L254.2 82.7 L252.8 81.6 L251.5 78.5 L249.8 77.1 L249.5 76.5 L249.6 75.9 L250.4 75.7 L251.1 75.8 L251.6 76.1 L252.7 76.8 L252.5 75.8 L252.2 73.9 L251.6 72.5 L250.4 71.8 L250.3 71.8 L248.5 71.6 L246.7 72.0 L245.2 72.9 L245.0 73.0 L243.7 74.1 L242.3 75.7 L241.9 77.1 L242.2 80.6 L242.2 81.4 L242.0 83.1 L242.1 83.9 L242.4 84.4 L243.0 85.8 L243.2 86.7 L241.9 87.7 L241.6 89.2 L241.0 89.9 L240.5 90.5 L240.6 91.4 L241.2 93.3 L241.1 95.8 L241.2 96.5 L241.5 96.8 L242.4 97.4 L242.8 97.8 L242.9 98.1 L242.7 100.3 L242.4 101.0 L240.7 103.8 L240.3 104.6 L240.4 105.3 L240.9 105.6 L243.7 106.1 L244.5 106.2 L247.0 105.2 L248.4 105.7 L249.1 107.4 L249.6 109.3 L251.3 112.0 L250.8 112.8 L247.9 113.4 L242.7 115.4 L241.8 115.3 L240.7 114.4 L239.9 114.6 L239.1 114.8 L238.4 114.8 L236.9 114.6 L235.4 114.6 L234.2 114.8 L232.9 115.3 L231.6 115.9 L230.7 116.4 L228.8 117.0 L226.9 117.4 L226.7 118.0 L227.1 118.8 L227.8 119.5 L229.5 120.4 L230.2 121.4 L230.4 122.7 L230.5 126.1 L230.4 126.7 L228.2 129.6 L227.8 130.3 L226.3 135.9 L225.7 136.8 L224.0 138.5 L224.0 138.5 L223.2 139.7 L222.7 141.2 L221.7 145.7 L220.7 148.5 L216.4 155.4 L215.0 159.7 L214.9 161.1 L214.9 161.1 L215.2 167.7 L214.7 174.3 L211.7 177.9 L211.0 178.0 L204.8 177.2 L198.5 176.5 L192.2 175.7 L186.0 174.9 L179.7 174.2 L173.4 173.4 L167.1 172.6 L160.8 171.8 L154.6 171.1 L148.3 170.3 L142.0 169.5 L135.7 168.7 L129.4 168.0 L123.2 167.2 L116.9 166.4 L110.6 165.7 L104.3 164.9 L97.1 164.0 L96.0 163.7 L95.0 162.9 L92.6 160.1 L90.3 157.2 L87.9 154.4 L85.6 151.6 L83.2 148.8 L80.8 146.0 L78.5 143.2 L76.1 140.4 L73.8 137.6 L71.4 134.8 L69.1 132.0 L66.7 129.2 L64.4 126.4 L62.0 123.6 L59.7 120.8 L57.3 118.0 L54.9 115.2 L52.4 112.2 L51.7 111.1 L51.4 109.9 L51.5 107.0 L51.6 105.9 L51.3 104.1 L52.2 102.9 L52.3 100.9 L51.5 99.3 L52.4 98.3 L52.8 99.1 L53.7 100.4 L53.9 101.3 L53.9 103.9 L54.2 105.5 L54.9 105.8 L55.5 105.2 L55.9 103.2 L56.2 103.7 L56.7 105.1 L57.0 105.6 L57.2 105.7 L57.6 105.7 L58.0 105.6 L58.2 105.4 L58.3 105.2 L58.1 105.1 L59.0 103.2 L59.8 102.6 L60.8 103.9 L60.9 104.9 L60.4 107.7 L60.5 108.8 L61.0 111.0 L61.1 111.5 L61.0 113.0 L61.1 113.5 L61.6 114.4 L61.7 114.9 L62.1 115.7 L63.2 115.9 L65.4 116.0 L65.9 116.1 L66.3 116.4 L67.1 117.1 L67.5 117.3 L67.9 117.3 L68.0 117.1 L67.7 116.7 L67.6 116.3 L68.6 116.1 L71.2 116.3 L71.5 116.2 L71.8 116.3 L72.4 116.7 L73.8 117.4 L74.1 117.3 L76.1 117.0 L76.9 117.2 L77.3 117.0 L77.8 117.2 L78.5 116.9 L79.2 116.9 L80.0 116.9 L80.9 116.9 L81.6 116.6 L83.3 115.7 L84.1 115.5 L85.5 115.5 L86.1 115.4 L86.7 115.0 L87.2 114.5 L87.8 114.0 L88.4 113.8 L89.2 113.7 L90.1 113.3 L90.8 112.9 L91.1 112.4 L91.3 111.9 L92.7 111.3 L93.4 110.9 L94.0 110.3 L94.8 109.8 L95.6 109.3 L96.2 109.2 L96.7 108.8 L96.8 108.1 L96.8 107.2 L97.0 106.7 L97.8 106.2 L98.7 106.5 L99.4 107.1 L101.0 109.2 L101.5 109.4 L101.7 109.2 L101.8 109.0 L102.2 108.8 L103.3 108.9 L105.1 109.4 L106.1 109.5 L106.7 109.4 L107.6 109.0 L108.1 108.8 L108.6 108.8 L109.0 109.0 L109.3 109.1 L109.7 109.2 L113.5 109.5 L113.9 109.4 L115.5 108.8 L115.8 108.7 L115.8 108.4 L115.9 108.2 L116.2 108.2 L116.4 108.4 L116.6 108.6 L116.7 108.7 L116.8 108.8 L118.1 109.8 L118.9 110.2 L120.7 109.5 L121.7 109.8 L122.5 110.2 L123.3 110.1 L122.7 109.7 L122.5 109.3 L122.5 108.8 L122.3 108.2 L123.4 108.0 L124.5 108.5 L125.6 109.3 L126.4 110.1 L127.0 111.0 L127.4 111.3 L129.9 111.4 L135.6 110.3 L136.0 110.3 L136.4 110.5 L137.0 111.2 L137.5 111.5 L138.2 111.6 L138.8 111.6 L139.3 111.3 L140.2 111.9 L140.7 112.2 L141.1 112.3 L141.3 112.4 L141.8 113.3 L142.2 113.5 L142.5 113.6 L143.0 113.6 L143.5 113.5 L144.3 113.1 L144.8 113.2 L145.2 113.4 L145.6 113.5 L147.0 112.9 L147.3 112.7 L147.6 112.5 L148.1 112.6 L148.5 112.8 L149.0 112.9 L154.5 112.9 L155.6 112.8 L156.1 112.4 L158.9 111.0 L161.7 110.6 L162.6 110.2 L163.6 110.0 L164.7 109.5 L166.1 109.3 L166.6 109.2 L167.2 108.8 L168.0 108.2 L168.7 107.5 L169.1 106.9 L169.5 106.5 L172.5 105.7 L174.9 104.1 L175.3 104.0 L175.7 103.5 L176.5 103.5 L178.3 104.2 L178.7 103.7 L180.4 102.5 L181.2 101.4 L183.0 98.2 L182.7 97.0 L182.9 96.5 L183.6 96.2 L183.2 95.9 L183.0 95.9 L183.0 95.5 L183.7 95.6 L184.8 96.1 L185.5 96.2 L185.2 95.6 L184.4 94.8 L184.3 94.3 L184.9 94.6 L185.6 94.8 L186.3 95.0 L186.7 95.5 L187.0 95.5 L186.9 94.3 L186.0 94.0 L184.8 93.9 L183.6 93.7 L181.0 92.0 L179.9 91.8 L179.9 91.5 L180.5 91.4 L181.0 91.1 L181.5 90.6 L181.6 90.9 L181.7 91.2 L182.1 91.5 L181.9 91.1 L182.1 90.7 L182.7 90.0 L183.0 90.0 L183.4 91.2 L184.2 92.4 L185.3 93.2 L186.4 93.1 L186.1 92.9 L185.5 92.4 L186.0 92.4 L187.0 92.7 L187.3 92.7 L187.5 92.6 L187.9 92.0 L188.1 91.8 L189.8 88.7 L189.1 88.4 L188.7 88.0 L188.9 87.7 L189.7 87.5 L190.1 87.2 L190.3 86.6 L190.5 86.0 L191.4 85.6 L191.4 85.3 L191.0 85.1 L190.8 84.6 L190.6 84.1 L190.4 83.5 L190.7 83.1 L190.3 83.0 L190.0 82.6 L190.1 81.9 L190.5 81.5 L192.3 80.4 L192.5 80.1 L192.7 79.7 L193.0 79.4 L194.4 80.0 L194.5 80.0 L195.1 79.9 L195.8 79.5 L196.0 78.9 L195.4 78.2 L200.3 75.6 L202.5 74.1 L203.9 73.0 L204.8 72.4 L205.9 72.1 L206.0 72.1 L206.2 72.0 L206.4 71.9 L206.5 71.9 L206.7 71.8 L206.9 71.7 L206.9 71.7 L207.0 71.6 L207.2 71.5 L208.5 70.8 L208.2 69.9 L209.7 69.6 L209.9 69.8 L213.3 66.2 L217.9 60.8 L218.2 60.1 L218.1 59.5 L219.0 58.8 L219.7 58.9 L220.4 59.8 L220.6 60.4 L220.4 61.0 L219.8 61.8 L221.1 61.4 L221.3 60.6 L221.0 59.7 L220.1 58.1 L219.9 57.8 L220.2 57.4 L221.6 56.0 L222.0 55.9 L222.6 55.9 L222.4 55.3 L222.5 54.8 L222.7 54.3 L223.3 54.1 L223.7 54.4 L224.6 53.7 L226.1 51.9 L226.3 51.9 L226.5 52.5 L226.8 52.5 L227.1 52.1 L227.3 51.6 L227.6 51.9 L228.2 50.2 L228.6 49.5 L229.1 49.1 L228.5 48.8 L228.8 48.3 L229.4 47.6 L229.7 46.8 L229.9 46.0 L230.4 45.1 L231.1 44.4 L231.9 44.1 L231.5 44.9 L231.0 45.5 L230.7 46.0 L231.0 46.6 L231.7 46.9 L232.6 46.7 L233.6 46.5 L234.5 46.3 L234.8 46.0 L235.5 44.2 L235.9 43.5 L237.1 42.4 L237.8 41.9 L239.4 41.3 L240.5 39.8 L241.0 39.5 L241.4 39.5 L242.0 39.3 L242.5 39.0 L242.7 38.7 L242.9 38.6 L244.3 38.3 L245.9 37.1 L248.3 34.3 L249.6 33.3 L249.3 33.8 L249.0 34.7 L248.6 35.5 L248.7 35.7 L249.1 35.8 L249.2 35.7 L249.3 35.0 L249.8 33.7 L249.9 32.9 L250.1 32.5 L252.0 30.9 L252.4 30.4 L252.8 29.9 L253.1 29.2 L253.2 28.4 L252.9 28.4 L252.8 28.8 L252.5 29.2 L252.2 29.4 L251.7 29.6 L252.9 27.8 L253.9 25.9 L254.7 23.0 L254.9 22.6 L255.9 22.5 L258.2 22.0 L258.7 22.1 L259.5 23.8 L259.7 24.7 L259.6 25.5 L259.3 26.9 L259.1 30.9 L258.8 31.6 L257.9 32.7 L257.7 33.4 L257.9 34.1 L259.0 35.4 L259.2 36.0 L258.8 36.6 L258.3 37.0 L257.8 37.5 L257.7 38.2 L258.0 40.2 L258.2 40.8 L258.3 40.8 L258.5 40.9 L259.5 41.1 L259.9 41.4 L260.4 42.3 L260.7 42.6 L261.4 42.8 L262.1 42.7 L264.0 42.2 Z M263.2 55.6 L261.9 56.4 L262.0 57.2 L262.2 57.6 L262.5 58.0 L262.0 58.5 L260.8 59.0 L260.7 60.1 L260.8 60.6 L261.3 60.8 L262.0 61.0 L262.8 60.7 L264.1 59.8 L264.6 59.4 L265.7 59.1 L267.0 58.5 L267.2 57.3 L265.4 56.9 L264.5 55.8 L263.2 55.6 Z M145.6 108.6 L144.8 108.5 L144.3 108.3 L144.2 107.9 L145.0 107.3 L145.5 107.0 L145.5 107.0 L145.5 107.0 L146.6 106.6 L147.1 106.4 L148.0 105.7 L148.2 105.5 L148.5 105.3 L148.7 105.3 L149.3 105.1 L149.7 105.1 L150.4 105.4 L150.5 105.4 L150.7 105.4 L151.0 105.3 L152.1 104.5 L153.3 104.0 L153.8 103.8 L154.2 103.3 L154.4 103.8 L154.4 104.0 L154.2 104.2 L154.7 104.9 L154.9 105.1 L156.0 105.8 L156.2 105.9 L157.7 106.2 L158.1 106.3 L159.0 106.6 L159.5 107.9 L158.8 108.9 L157.5 109.4 L155.9 109.3 L154.5 108.8 L154.6 108.4 L154.3 107.8 L153.7 107.7 L153.2 108.6 L153.6 108.8 L152.4 109.6 L150.9 109.8 L149.4 109.7 L148.0 109.2 L147.3 108.8 L147.2 108.8 L146.8 108.6 L145.6 108.6 Z M96.7 100.2 L97.2 99.4 L98.3 98.9 L99.4 99.2 L99.9 99.9 L100.1 101.0 L100.0 101.7 L99.1 102.9 L98.2 103.6 L97.5 104.3 L96.9 103.7 L96.4 102.9 L95.8 101.8 L95.9 101.0 L96.7 100.2 Z M130.5 103.8 L129.8 103.1 L129.2 103.1 L128.4 102.7 L127.9 103.3 L126.2 103.1 L125.6 103.0 L124.6 103.2 L124.4 103.3 L124.3 103.2 L124.2 103.0 L124.2 102.7 L124.4 102.4 L124.5 102.1 L124.7 102.0 L126.4 102.4 L126.8 102.3 L128.0 101.8 L128.2 101.6 L128.5 101.4 L129.9 100.9 L130.8 100.5 L131.2 100.5 L131.6 101.3 L132.1 101.5 L132.5 101.3 L132.6 100.8 L132.5 100.3 L132.2 99.9 L133.9 97.6 L134.7 97.1 L134.8 97.3 L135.0 97.8 L135.0 98.0 L136.1 98.6 L136.1 98.6 L135.8 100.3 L135.2 100.9 L133.4 101.6 L132.6 102.1 L131.5 102.2 L130.9 102.7 L130.9 103.2 L130.5 103.8 Z" fill="#172033" fill-rule="evenodd"/></svg>
