<svg xmlns="http://www.w3.org/2000/svg" viewBox="0 0 320 200" role="img"><path d="M277.6 46.9 L277.7 47.0 L277.8 47.1 L277.7 47.3 L277.7 47.4 L277.6 47.9 L277.3 48.0 L276.9 47.8 L276.6 47.4 L276.6 47.4 L276.5 47.3 L276.2 47.2 L275.8 47.2 L275.1 47.4 L274.7 47.7 L273.2 48.4 L272.4 49.0 L272.0 49.1 L270.8 49.0 L270.6 49.0 L270.3 49.2 L270.2 49.4 L270.1 50.0 L270.0 50.2 L268.9 50.5 L268.4 50.5 L267.9 50.3 L267.4 50.2 L266.0 49.5 L265.5 49.3 L264.4 49.2 L263.4 49.1 L263.4 49.1 L263.4 49.1 L263.3 49.1 L262.2 49.1 L259.9 49.4 L259.4 49.3 L258.8 49.2 L257.7 49.4 L256.9 49.3 L256.0 49.6 L255.8 49.6 L255.5 49.6 L255.0 49.5 L254.5 49.4 L251.9 49.6 L251.6 49.7 L251.2 49.9 L251.0 50.0 L250.8 50.0 L250.2 49.8 L249.8 49.9 L249.4 50.1 L248.9 50.2 L247.4 50.3 L245.9 50.1 L244.8 50.2 L243.7 50.4 L242.9 50.7 L241.8 51.5 L241.4 51.5 L240.6 51.5 L239.9 51.7 L239.2 51.7 L237.7 52.0 L236.9 52.3 L236.6 52.4 L236.6 52.6 L236.8 53.0 L236.9 53.2 L236.6 53.4 L235.6 53.5 L235.2 53.6 L235.0 53.7 L234.9 53.8 L234.9 54.0 L235.0 54.1 L234.9 54.3 L234.7 54.5 L234.0 54.6 L233.6 54.8 L233.3 55.0 L232.5 55.4 L232.3 55.6 L232.1 55.7 L231.8 55.9 L231.6 56.0 L230.5 56.0 L230.1 56.2 L230.1 56.8 L230.4 57.2 L230.5 57.5 L230.3 57.7 L230.0 57.7 L229.7 57.8 L229.5 57.7 L229.0 57.2 L228.0 56.7 L227.6 56.6 L227.3 56.6 L227.1 56.8 L226.9 57.3 L226.8 57.6 L226.7 57.7 L226.2 58.1 L226.1 58.3 L226.3 58.6 L226.4 58.8 L226.1 59.0 L225.7 59.1 L225.3 59.2 L225.1 59.3 L223.7 60.5 L223.4 60.7 L222.3 61.0 L222.2 61.1 L222.1 61.5 L222.0 61.7 L221.9 61.8 L221.3 62.0 L220.7 62.3 L220.6 62.4 L220.5 62.8 L220.4 63.0 L219.8 63.4 L219.7 63.7 L219.7 63.9 L219.8 64.0 L220.0 64.1 L220.6 64.4 L220.8 64.6 L221.3 65.0 L221.7 65.1 L222.2 65.2 L222.7 65.4 L222.9 65.6 L223.0 66.2 L223.2 66.4 L224.0 66.9 L224.2 67.1 L224.8 68.0 L224.9 68.2 L224.9 68.4 L224.9 68.6 L224.9 68.7 L225.0 68.9 L225.1 69.0 L225.3 69.2 L225.5 69.3 L225.7 69.6 L225.8 69.9 L225.7 70.2 L225.3 70.5 L225.1 70.9 L225.3 71.2 L225.6 71.4 L226.6 71.8 L226.9 71.9 L227.0 72.2 L227.0 72.5 L226.9 72.8 L226.8 73.2 L226.9 73.5 L227.0 73.7 L227.1 73.8 L227.4 74.0 L227.5 74.3 L227.5 74.6 L227.3 74.8 L226.5 75.4 L226.0 76.0 L225.9 76.5 L226.2 76.9 L227.2 77.8 L227.7 78.1 L227.8 78.4 L227.6 78.7 L227.2 79.3 L226.0 79.9 L225.6 80.4 L225.5 81.1 L225.6 81.3 L225.6 81.5 L225.5 81.6 L225.3 81.7 L225.3 81.7 L225.3 81.7 L225.2 81.9 L225.0 82.3 L224.9 82.5 L224.7 82.6 L224.5 82.7 L222.4 83.4 L221.8 83.8 L221.5 84.3 L221.2 84.9 L220.3 86.0 L220.1 86.1 L219.4 86.4 L218.2 87.2 L218.0 87.4 L218.0 87.7 L218.1 88.1 L218.2 88.5 L218.1 88.9 L218.0 89.2 L217.6 89.3 L217.0 89.2 L216.6 89.3 L216.5 89.3 L216.3 89.4 L216.1 89.7 L216.1 90.0 L216.2 90.4 L216.3 90.8 L216.7 91.2 L217.2 91.7 L217.7 92.1 L218.9 92.7 L219.0 93.1 L218.5 94.3 L218.5 94.6 L218.7 95.2 L218.7 95.6 L218.7 96.0 L218.6 96.2 L218.1 96.7 L217.9 97.0 L217.9 97.3 L218.0 97.5 L217.9 97.9 L217.6 98.1 L216.8 98.2 L216.4 98.3 L216.2 98.6 L216.0 98.7 L215.8 98.8 L215.5 98.8 L215.0 98.6 L214.8 98.7 L214.8 98.9 L214.5 99.4 L213.2 99.6 L210.9 99.6 L208.6 99.9 L208.1 99.8 L206.7 99.6 L205.3 99.5 L205.0 99.5 L204.4 99.2 L203.4 99.1 L199.7 98.0 L199.1 98.0 L198.2 98.1 L197.8 98.3 L197.5 98.5 L197.4 98.8 L197.5 99.0 L197.5 99.3 L197.2 99.5 L196.9 99.8 L197.0 100.1 L197.5 100.5 L197.7 100.7 L197.9 101.3 L198.1 101.6 L198.5 102.1 L198.6 102.4 L198.8 102.7 L198.9 103.0 L199.2 103.2 L199.6 103.2 L199.9 103.3 L200.8 103.6 L201.5 103.5 L201.7 103.7 L201.8 104.3 L201.9 104.6 L202.0 104.7 L202.2 104.8 L202.5 104.9 L202.6 105.0 L202.7 105.1 L202.6 105.5 L202.3 106.6 L202.3 106.9 L202.3 107.3 L202.5 107.6 L202.7 107.8 L202.8 107.9 L203.3 108.0 L203.4 108.1 L203.6 108.4 L203.7 108.5 L204.6 109.4 L204.8 109.9 L204.7 110.5 L201.8 112.6 L201.5 112.7 L201.1 112.7 L200.7 112.6 L200.5 112.6 L199.9 113.6 L199.8 113.7 L199.6 113.8 L199.1 113.7 L198.9 113.8 L197.6 114.4 L196.9 114.5 L195.7 114.0 L195.1 114.1 L194.3 114.6 L194.0 114.6 L193.8 114.6 L193.7 114.6 L193.5 114.5 L192.9 114.6 L192.6 114.6 L191.9 114.7 L191.3 115.0 L190.9 115.5 L190.7 115.8 L190.5 116.1 L190.9 117.9 L190.7 118.4 L190.6 118.5 L190.1 118.8 L189.7 119.3 L189.1 119.7 L189.0 119.9 L189.0 120.2 L189.1 120.4 L189.2 120.5 L189.3 120.6 L189.5 120.6 L189.6 120.7 L189.7 120.8 L189.7 121.1 L189.9 121.7 L189.8 121.9 L189.6 122.2 L188.7 123.4 L188.4 123.6 L187.7 123.8 L187.3 124.0 L186.8 124.5 L186.5 125.2 L186.4 125.9 L186.6 126.6 L187.0 127.6 L187.1 128.0 L187.1 128.3 L187.0 129.1 L187.0 129.8 L186.8 130.5 L186.8 130.9 L187.1 132.5 L187.7 133.8 L187.7 134.0 L187.7 134.1 L187.6 134.2 L186.8 134.7 L186.3 135.2 L184.5 137.6 L184.2 137.9 L184.0 138.0 L183.7 138.3 L183.2 138.7 L182.6 139.1 L182.1 139.3 L181.5 139.3 L180.9 139.4 L179.8 139.9 L179.1 140.0 L178.7 139.7 L177.9 138.7 L177.4 138.3 L177.3 138.0 L177.3 137.3 L177.1 137.1 L176.9 137.0 L176.0 136.9 L175.0 136.4 L174.4 136.2 L174.0 136.2 L173.6 136.3 L172.9 136.6 L172.5 136.9 L172.6 137.0 L172.9 137.1 L173.3 137.2 L174.3 137.2 L174.6 137.2 L174.8 137.4 L174.5 137.6 L174.2 137.8 L173.9 137.9 L173.2 137.8 L171.4 137.2 L170.8 137.2 L170.1 137.2 L169.7 137.1 L169.5 137.0 L169.3 136.7 L168.9 136.4 L168.5 136.3 L168.1 136.1 L167.7 136.1 L167.5 136.4 L167.1 137.1 L167.0 137.3 L166.9 137.4 L166.4 137.8 L166.3 138.0 L166.2 138.4 L166.1 138.5 L165.2 138.9 L164.9 139.1 L164.7 139.3 L164.6 139.4 L163.9 139.5 L163.3 139.4 L163.1 139.4 L162.6 139.6 L161.6 140.6 L161.0 141.0 L160.6 141.2 L160.1 141.4 L159.6 141.4 L158.5 141.2 L157.9 141.2 L157.7 141.5 L157.8 141.8 L158.1 142.0 L158.3 142.3 L158.4 143.0 L158.7 143.3 L159.0 143.4 L159.3 143.5 L160.8 143.4 L161.4 143.5 L161.5 144.2 L161.3 144.6 L161.0 144.7 L160.3 144.6 L160.1 144.7 L159.8 144.9 L159.6 145.0 L158.5 145.6 L158.2 145.7 L157.3 145.9 L156.6 146.1 L155.6 146.2 L154.4 146.7 L154.1 146.7 L153.0 146.6 L152.1 146.7 L151.8 146.7 L151.5 146.6 L150.9 146.3 L150.5 146.2 L150.2 146.2 L149.5 146.3 L149.2 146.3 L148.8 146.3 L148.6 146.2 L148.4 146.1 L148.4 146.0 L148.5 145.9 L148.6 145.8 L148.6 145.6 L148.6 145.2 L148.5 145.0 L148.2 144.9 L147.2 144.9 L146.5 145.1 L145.4 145.5 L144.9 145.9 L144.5 146.3 L144.0 146.6 L143.4 146.7 L143.0 146.9 L142.4 148.9 L142.1 149.3 L140.4 150.7 L140.1 150.8 L137.7 151.3 L137.4 151.4 L137.3 151.6 L135.6 157.1 L135.5 157.9 L135.8 158.6 L136.3 159.0 L136.4 159.3 L136.5 159.6 L136.5 160.0 L136.2 162.2 L136.2 163.3 L136.2 163.6 L135.1 165.6 L134.8 166.2 L134.8 166.5 L134.9 166.7 L135.5 167.1 L136.2 167.7 L136.7 168.1 L136.8 168.2 L136.8 168.3 L136.6 168.3 L136.5 168.4 L136.2 168.9 L135.7 169.4 L134.4 170.3 L132.9 170.7 L131.9 170.9 L130.9 171.2 L129.9 171.4 L128.9 171.7 L127.9 171.9 L126.9 172.2 L125.9 172.4 L124.9 172.7 L123.9 173.0 L122.9 173.2 L121.9 173.5 L120.9 173.7 L119.9 174.0 L118.9 174.2 L117.9 174.5 L116.9 174.7 L114.5 175.4 L113.6 175.3 L110.7 174.9 L108.4 174.9 L105.2 174.8 L104.9 174.8 L100.2 176.1 L99.6 176.3 L99.2 176.8 L98.6 177.8 L98.1 178.0 L96.2 177.3 L93.0 176.7 L89.3 176.1 L86.6 176.3 L85.8 176.4 L84.9 176.4 L84.1 176.5 L83.3 176.6 L82.4 176.7 L81.6 176.7 L80.7 176.8 L79.9 176.9 L79.1 176.9 L78.2 177.0 L77.4 177.1 L76.5 177.1 L75.7 177.2 L74.8 177.3 L74.0 177.4 L73.2 177.4 L72.7 177.5 L70.5 177.6 L68.8 177.3 L67.1 176.9 L65.7 176.5 L64.3 176.1 L62.8 175.7 L61.4 175.3 L60.0 174.9 L58.5 174.5 L57.1 174.1 L55.7 173.7 L54.3 173.3 L52.8 172.9 L51.4 172.5 L50.0 172.1 L48.5 171.7 L47.1 171.3 L45.7 170.9 L44.3 170.5 L43.0 170.1 L42.5 169.9 L43.5 168.9 L44.8 167.6 L44.8 167.6 L47.4 164.8 L48.9 163.4 L49.8 162.3 L51.7 160.4 L53.1 159.0 L55.1 156.9 L57.2 154.7 L58.6 153.2 L58.9 152.9 L58.9 152.8 L58.9 152.8 L58.9 152.5 L58.9 152.4 L59.0 152.3 L59.0 151.2 L58.9 151.0 L59.2 150.4 L59.3 150.0 L59.3 149.7 L59.3 149.4 L59.1 148.8 L58.8 148.3 L58.7 148.1 L58.7 147.6 L58.5 147.2 L58.1 146.5 L57.9 146.2 L57.9 145.8 L58.0 145.1 L57.9 144.8 L57.3 144.1 L57.0 143.9 L56.5 143.7 L55.6 143.6 L53.6 143.4 L50.2 143.0 L47.3 142.6 L47.3 142.6 L44.4 142.2 L42.7 142.0 L42.1 141.8 L41.9 140.2 L41.6 139.4 L41.6 139.0 L41.8 137.7 L41.6 136.1 L41.5 135.3 L41.7 134.2 L41.6 133.8 L41.6 133.7 L41.5 133.5 L41.5 133.3 L41.6 132.9 L41.5 132.8 L41.4 132.8 L41.3 132.7 L41.4 132.4 L41.9 131.9 L42.0 131.6 L42.2 130.3 L42.2 128.9 L41.7 127.0 L40.9 124.6 L40.2 122.7 L39.6 120.9 L39.0 119.1 L38.4 117.5 L37.9 116.1 L37.7 115.0 L37.6 113.6 L37.7 113.4 L38.6 112.4 L39.5 111.4 L40.3 110.4 L41.0 109.7 L41.5 109.3 L42.0 109.0 L42.2 108.8 L42.3 108.5 L42.3 108.2 L42.2 107.9 L42.3 107.7 L42.6 107.5 L43.4 107.4 L43.6 107.4 L43.8 107.2 L43.8 107.1 L43.6 106.9 L43.4 106.7 L43.1 106.5 L42.5 106.4 L41.9 106.4 L40.6 106.4 L39.2 106.4 L37.9 105.9 L36.8 105.0 L36.4 103.8 L36.5 103.2 L37.0 102.2 L37.1 101.5 L36.6 98.9 L36.4 97.4 L36.3 97.2 L36.5 96.4 L36.9 95.6 L37.5 95.0 L38.1 94.5 L38.9 94.1 L39.2 93.9 L39.0 93.5 L40.3 93.5 L42.0 93.4 L43.3 93.3 L43.1 93.0 L41.8 91.6 L41.5 91.2 L41.4 91.0 L41.2 90.8 L40.7 90.7 L40.6 90.6 L40.4 90.1 L40.3 90.0 L40.2 90.0 L40.0 89.9 L40.3 89.6 L40.7 89.4 L41.6 89.3 L42.1 89.2 L42.4 89.0 L43.2 88.3 L43.3 88.1 L43.4 88.0 L43.6 87.9 L43.8 87.9 L44.1 87.9 L44.3 87.8 L44.4 87.7 L44.5 87.2 L44.4 86.8 L44.5 86.4 L44.8 86.1 L45.3 85.7 L45.7 85.2 L45.8 85.0 L46.3 84.8 L46.4 84.2 L46.5 83.6 L46.5 83.5 L46.4 83.2 L46.4 83.0 L46.4 82.8 L46.7 82.5 L46.7 82.3 L46.8 82.0 L47.0 81.3 L47.1 80.6 L47.3 80.4 L47.7 79.9 L47.5 79.7 L47.5 79.6 L47.5 79.4 L47.6 79.2 L47.5 79.2 L46.9 78.5 L46.8 78.3 L46.9 78.2 L47.1 78.2 L47.1 78.0 L47.0 77.8 L46.9 77.8 L46.9 77.6 L46.9 77.2 L47.0 76.9 L47.3 76.7 L47.6 76.7 L48.0 76.6 L48.4 76.5 L48.5 76.2 L48.4 75.3 L48.5 74.9 L48.6 74.7 L49.0 74.4 L49.1 74.2 L49.2 73.6 L49.4 73.3 L49.8 72.9 L50.0 72.6 L50.1 72.2 L50.1 71.9 L49.9 71.2 L49.8 71.0 L50.0 70.9 L50.9 70.8 L51.1 70.8 L51.2 70.9 L51.4 71.0 L51.3 71.0 L51.2 71.2 L51.4 71.4 L51.4 71.4 L51.5 71.4 L51.7 71.6 L51.7 71.6 L51.7 71.8 L51.7 71.9 L51.8 72.0 L51.9 72.1 L52.0 72.2 L52.2 72.2 L52.4 72.3 L52.5 72.3 L53.6 73.1 L54.4 73.9 L55.5 74.2 L57.9 74.5 L58.9 74.5 L60.9 73.9 L61.9 73.9 L62.5 74.1 L62.9 74.4 L64.7 75.8 L65.1 76.0 L66.1 76.4 L66.3 76.6 L66.5 76.9 L66.6 77.2 L66.7 77.5 L66.6 78.2 L66.7 78.4 L67.1 79.0 L67.2 79.2 L67.5 79.1 L69.2 77.2 L69.7 76.8 L70.2 76.8 L71.3 77.6 L71.5 77.7 L71.7 77.7 L71.9 77.7 L72.0 77.7 L72.6 77.8 L72.7 77.9 L73.0 77.8 L74.2 77.4 L74.5 77.2 L74.7 77.1 L74.9 76.8 L75.4 76.4 L76.5 76.0 L76.5 76.0 L78.1 75.0 L79.2 74.5 L79.6 74.5 L80.3 74.4 L80.6 74.3 L80.9 74.1 L81.0 73.8 L81.0 73.2 L81.2 72.6 L81.2 72.4 L80.9 72.3 L80.8 72.0 L80.8 71.2 L80.8 70.9 L81.3 70.5 L82.6 70.2 L83.1 69.9 L83.2 69.7 L83.2 69.6 L83.1 69.5 L82.7 69.4 L82.5 69.3 L82.3 69.1 L81.4 68.4 L81.3 68.2 L81.2 67.9 L81.1 67.7 L80.9 67.5 L81.0 67.2 L81.3 66.9 L81.6 66.9 L85.4 66.9 L86.9 66.7 L88.3 66.2 L88.5 66.0 L88.9 65.5 L89.2 65.3 L89.5 65.2 L89.8 65.1 L92.0 65.0 L92.6 64.9 L94.3 64.1 L94.8 64.0 L95.1 63.9 L95.3 63.9 L95.8 64.0 L97.4 64.5 L97.4 64.3 L97.3 63.5 L97.3 63.2 L97.4 62.9 L97.6 62.7 L98.8 62.0 L99.4 61.7 L100.0 61.6 L100.7 61.7 L101.0 61.8 L101.2 61.8 L101.4 61.7 L101.7 61.0 L101.9 60.8 L102.1 60.7 L102.5 60.6 L103.7 60.3 L104.3 60.2 L104.9 59.8 L105.2 59.5 L106.6 57.8 L106.9 57.2 L107.1 56.6 L107.1 55.9 L107.1 55.5 L106.9 54.9 L106.8 54.5 L106.8 54.2 L106.8 53.8 L107.0 53.1 L107.3 52.6 L109.2 49.9 L109.8 48.9 L110.0 48.4 L110.0 47.7 L109.6 46.4 L109.7 45.7 L110.0 45.3 L110.5 45.0 L113.6 43.6 L114.9 43.3 L122.2 43.1 L122.4 43.1 L123.0 42.9 L123.8 42.0 L124.3 41.6 L124.5 41.4 L124.6 41.0 L124.6 40.6 L124.5 39.9 L124.6 39.5 L124.7 39.2 L125.0 38.8 L125.0 38.8 L125.0 38.8 L125.1 38.5 L125.3 38.4 L125.5 38.3 L125.8 38.2 L126.5 38.2 L126.7 38.1 L126.9 37.6 L126.9 37.4 L127.2 37.5 L127.5 37.5 L127.6 37.6 L127.9 38.1 L128.1 38.3 L128.2 38.4 L128.5 38.6 L132.4 39.7 L132.7 39.9 L133.2 40.5 L133.4 40.7 L133.8 40.8 L134.0 40.9 L134.6 40.8 L134.7 40.9 L135.0 41.0 L135.1 41.1 L135.3 41.1 L135.4 41.2 L135.7 41.4 L136.0 41.6 L136.5 41.6 L137.7 41.3 L138.1 41.3 L138.3 41.4 L138.5 41.7 L138.7 41.8 L138.9 41.7 L139.1 41.6 L139.3 41.4 L139.6 41.2 L139.9 41.0 L140.2 41.0 L140.7 40.9 L141.1 41.0 L142.2 41.4 L142.4 41.4 L142.9 41.4 L143.1 41.3 L143.4 41.1 L143.6 41.1 L145.9 41.0 L147.4 40.7 L148.3 40.7 L148.6 40.8 L149.3 41.2 L149.6 41.3 L149.8 41.5 L150.1 42.2 L150.3 42.5 L150.6 42.6 L151.4 42.9 L151.7 43.1 L151.9 43.4 L152.0 43.7 L152.2 44.0 L152.6 44.1 L153.0 44.1 L153.6 43.7 L154.1 43.6 L154.5 43.6 L154.9 43.5 L155.2 43.4 L155.6 43.2 L156.1 42.7 L156.4 42.5 L156.8 42.5 L157.2 42.6 L157.5 43.3 L157.8 43.5 L158.0 43.5 L158.1 43.3 L158.2 43.1 L158.3 43.1 L158.5 43.0 L158.8 43.0 L159.0 42.9 L159.2 43.0 L159.6 43.2 L159.8 43.3 L160.0 43.3 L160.6 43.3 L161.0 43.4 L161.3 43.5 L161.5 43.7 L161.6 44.1 L161.4 45.2 L161.4 45.4 L161.6 45.6 L162.0 45.9 L162.5 46.0 L163.2 46.2 L163.5 46.4 L163.7 46.7 L163.9 47.1 L164.1 47.2 L164.5 47.4 L164.7 47.5 L165.3 48.1 L165.4 48.2 L165.4 48.4 L165.5 48.5 L165.7 48.6 L165.8 48.6 L165.9 48.6 L166.1 48.5 L166.3 48.4 L167.4 47.6 L167.6 47.5 L167.9 47.4 L168.2 47.2 L168.5 47.0 L169.0 46.9 L169.7 47.1 L170.1 47.1 L170.3 46.9 L170.2 46.2 L170.1 45.8 L170.3 45.5 L170.6 45.3 L170.9 45.4 L171.3 45.5 L171.6 45.5 L172.1 45.5 L172.4 45.4 L172.5 45.1 L172.3 44.7 L173.3 44.6 L174.1 44.5 L174.3 44.5 L174.5 44.4 L174.7 44.1 L174.8 44.0 L175.1 44.0 L175.8 43.8 L176.1 43.8 L176.2 43.6 L176.3 43.4 L176.5 43.1 L176.9 43.1 L176.8 42.8 L176.7 42.8 L176.6 42.7 L176.8 42.5 L177.1 42.5 L177.8 42.6 L178.1 42.6 L178.4 42.6 L178.6 42.7 L179.2 43.0 L179.4 43.0 L179.5 42.8 L179.4 42.5 L179.2 41.9 L179.3 41.7 L179.7 41.6 L180.0 41.7 L180.2 41.9 L180.4 42.2 L180.6 42.5 L180.9 42.5 L181.1 42.5 L181.1 42.4 L181.1 42.1 L181.0 42.0 L180.7 41.9 L180.6 41.8 L180.5 41.6 L180.6 41.5 L180.7 41.5 L180.7 41.5 L181.9 41.6 L182.2 41.8 L182.6 42.1 L182.9 42.4 L183.1 43.0 L183.5 43.2 L183.8 43.4 L184.2 43.6 L184.5 44.3 L184.6 44.4 L185.0 44.6 L185.1 44.6 L186.7 45.5 L187.1 45.5 L187.4 45.4 L187.8 45.3 L187.9 45.3 L188.1 45.2 L188.2 45.1 L188.5 44.8 L189.2 44.5 L189.5 44.3 L190.1 43.5 L190.1 43.2 L189.8 43.2 L189.5 43.1 L189.7 42.7 L189.5 42.5 L189.4 42.0 L189.3 41.7 L189.2 41.6 L189.1 41.4 L189.1 41.3 L189.1 41.1 L189.1 41.1 L189.2 41.1 L189.2 41.0 L189.2 40.9 L189.2 40.9 L189.0 40.8 L189.0 40.8 L189.0 40.1 L189.0 39.8 L189.1 39.5 L189.2 39.4 L189.4 39.3 L189.6 39.2 L189.6 39.1 L189.7 38.9 L189.8 38.8 L190.6 38.4 L190.9 38.1 L191.2 37.4 L191.6 37.2 L193.9 37.4 L194.3 37.3 L195.0 37.1 L195.4 37.1 L195.6 37.1 L196.0 37.2 L196.1 37.2 L196.3 37.3 L196.4 37.2 L196.6 37.1 L196.8 37.1 L197.1 37.0 L197.9 36.7 L198.3 36.7 L198.6 36.9 L198.7 37.2 L198.9 37.4 L199.3 37.5 L199.5 37.6 L199.6 37.6 L199.6 37.8 L199.7 37.8 L199.8 37.9 L200.0 37.9 L200.5 38.0 L200.4 37.9 L200.9 37.9 L201.4 38.1 L201.9 38.2 L202.4 38.0 L203.0 37.4 L203.1 37.4 L203.1 37.2 L203.4 36.7 L203.4 36.7 L203.7 36.7 L203.8 36.7 L203.9 36.6 L203.9 36.6 L204.0 36.5 L204.0 36.4 L204.0 36.2 L204.0 36.1 L204.1 36.0 L204.2 36.0 L204.4 35.7 L204.4 35.5 L204.5 35.3 L204.5 35.2 L204.5 34.9 L204.3 34.4 L204.3 34.2 L204.4 34.0 L204.2 33.9 L204.1 33.7 L204.0 33.5 L203.9 33.2 L203.8 33.1 L203.2 33.0 L203.0 32.9 L202.7 32.5 L202.5 32.0 L202.4 31.5 L202.6 31.1 L203.0 31.3 L203.4 31.3 L203.8 31.3 L204.2 31.2 L204.0 31.0 L204.0 30.9 L204.0 30.7 L204.0 30.6 L204.1 30.5 L204.3 30.5 L204.5 30.4 L204.6 30.3 L204.7 30.2 L204.8 30.2 L205.1 30.0 L205.3 29.9 L206.0 29.1 L206.8 28.5 L207.0 28.4 L207.6 28.2 L207.7 28.1 L207.9 27.8 L208.4 26.8 L208.9 26.0 L209.1 25.6 L209.3 25.5 L209.5 25.5 L209.7 25.4 L209.9 24.8 L209.9 24.7 L209.9 24.5 L209.9 24.3 L210.0 24.2 L210.1 24.1 L210.5 24.1 L210.7 24.1 L211.3 23.7 L211.4 23.5 L211.1 23.3 L211.1 23.2 L211.4 23.0 L212.4 22.9 L212.6 22.6 L212.7 22.5 L213.0 22.5 L213.6 22.5 L213.7 22.5 L214.0 22.6 L214.1 22.6 L214.3 22.5 L214.3 22.5 L214.4 22.4 L214.6 22.4 L215.3 22.6 L215.7 22.7 L215.9 22.5 L215.9 22.1 L216.0 22.0 L216.4 22.0 L216.6 22.0 L216.8 22.1 L217.0 22.3 L217.2 22.4 L217.3 22.5 L217.4 22.9 L217.5 23.0 L217.7 23.1 L217.8 23.1 L217.9 23.1 L218.2 23.1 L218.4 23.1 L218.8 23.3 L219.5 23.7 L220.6 24.5 L222.0 25.0 L222.6 25.3 L223.0 25.8 L223.1 26.6 L223.0 27.0 L222.7 27.7 L222.6 28.2 L222.3 28.7 L222.0 29.4 L221.5 30.2 L221.4 30.6 L221.2 31.0 L221.2 31.2 L221.3 31.4 L221.4 31.4 L221.5 31.4 L221.7 31.4 L222.3 31.8 L222.7 32.0 L223.0 31.8 L223.3 31.6 L225.4 31.1 L226.1 31.1 L226.6 31.4 L227.1 31.9 L227.0 32.0 L227.0 32.2 L227.0 32.6 L227.0 33.0 L227.0 33.3 L226.7 33.6 L226.1 33.9 L225.9 34.2 L226.0 34.4 L226.1 34.8 L226.1 34.9 L226.1 35.1 L225.9 35.6 L225.8 36.2 L225.8 36.4 L225.7 36.5 L225.5 36.7 L225.4 36.8 L225.4 37.6 L225.6 39.0 L225.4 39.6 L225.2 40.0 L225.2 40.3 L225.3 40.9 L225.4 41.7 L225.3 42.0 L225.2 42.2 L225.2 42.7 L224.6 43.6 L224.6 44.0 L224.5 44.1 L224.4 44.4 L224.3 45.1 L224.2 46.1 L224.3 46.4 L224.4 46.5 L224.7 46.9 L224.7 47.1 L224.7 47.8 L224.8 48.2 L224.9 48.5 L225.9 49.8 L226.1 50.1 L226.2 50.9 L226.3 51.3 L226.5 51.6 L226.7 51.9 L227.3 52.4 L228.0 52.7 L228.8 52.8 L229.7 52.8 L230.5 52.7 L231.2 52.5 L236.2 49.5 L236.6 49.1 L237.2 48.8 L237.4 48.7 L237.6 48.4 L237.8 48.2 L238.5 47.9 L240.2 47.3 L241.0 47.2 L242.2 47.3 L242.7 47.1 L245.3 46.8 L245.4 46.6 L245.5 46.3 L246.3 45.4 L247.1 44.1 L247.6 43.5 L248.3 43.2 L249.1 43.1 L249.5 42.9 L249.9 42.6 L251.1 42.0 L252.3 41.9 L252.7 41.7 L252.9 41.5 L253.2 41.0 L253.4 40.7 L254.1 40.3 L254.2 40.2 L254.6 40.4 L254.8 40.3 L255.6 39.6 L255.9 39.4 L256.3 39.3 L256.7 39.3 L257.1 39.3 L257.4 39.5 L257.7 39.5 L258.7 39.1 L259.5 39.0 L261.6 39.6 L262.7 39.9 L263.5 39.9 L264.1 39.9 L264.0 40.4 L264.0 40.5 L264.0 41.2 L263.9 41.5 L263.6 41.8 L263.3 42.0 L263.0 42.1 L262.4 42.1 L262.0 42.2 L261.6 42.5 L261.4 42.8 L261.5 43.2 L261.8 43.3 L262.5 43.1 L262.8 43.1 L263.0 43.2 L263.2 43.5 L263.3 43.6 L263.5 43.6 L263.8 43.4 L264.0 43.3 L264.4 43.4 L264.6 43.4 L264.9 43.4 L265.5 42.9 L265.9 42.8 L266.6 42.7 L267.6 42.4 L267.9 42.3 L269.2 41.9 L271.1 41.6 L271.6 41.5 L271.9 41.2 L271.9 40.6 L272.2 40.4 L272.6 40.4 L273.1 40.5 L273.5 40.4 L273.8 40.0 L273.8 40.2 L274.0 40.1 L274.2 40.1 L274.4 40.2 L274.7 40.5 L274.8 40.5 L275.0 40.5 L275.5 40.6 L275.8 40.6 L276.1 40.5 L276.5 40.7 L277.1 40.8 L277.3 40.9 L277.4 40.8 L279.2 40.8 L279.7 40.5 L281.9 41.6 L282.4 42.0 L283.1 43.1 L283.7 43.3 L282.3 43.6 L282.0 43.6 L281.8 43.5 L281.1 42.3 L281.0 42.2 L280.7 42.2 L280.5 42.3 L280.3 42.5 L279.9 42.8 L279.9 42.8 L279.5 42.8 L279.4 42.9 L279.4 43.0 L279.1 43.2 L279.1 43.3 L279.0 43.3 L278.9 43.4 L278.8 43.3 L278.6 43.2 L278.5 43.1 L278.2 43.1 L277.5 43.3 L276.9 43.3 L276.7 43.4 L276.5 43.7 L276.4 44.0 L276.2 44.3 L275.9 44.4 L275.5 44.4 L274.9 44.3 L274.7 44.4 L274.6 44.8 L274.9 45.1 L275.4 45.4 L276.5 45.9 L276.8 46.2 L277.0 46.5 L277.2 46.8 L277.6 46.9 Z" fill="#172033" fill-rule="evenodd"/></svg>
