<svg xmlns="http://www.w3.org/2000/svg" viewBox="0 0 320 200" role="img"><path d="M70.7 126.1 L74.5 116.1 L71.4 107.6 L71.7 100.2 L85.9 93.2 L79.6 90.8 L61.6 81.3 L71.1 72.6 L86.6 66.3 L106.6 60.5 L99.5 49.0 L101.0 38.8 L108.9 29.7 L121.4 22.0 L149.1 25.3 L160.2 40.8 L166.8 58.7 L181.3 69.5 L182.1 61.7 L184.4 56.7 L192.6 45.7 L197.6 53.1 L204.3 57.4 L212.8 58.8 L222.8 57.6 L218.6 62.2 L216.1 65.4 L212.4 67.8 L204.5 69.5 L208.5 81.9 L217.4 87.8 L228.8 87.4 L240.6 81.3 L247.1 81.3 L251.5 85.6 L254.5 89.9 L258.4 99.6 L252.5 99.2 L240.6 100.1 L234.7 99.6 L242.7 109.3 L250.2 114.0 L254.4 118.6 L252.5 128.8 L242.7 143.8 L232.9 144.5 L221.6 139.0 L207.5 135.2 L200.7 138.4 L200.4 146.2 L204.5 167.6 L198.0 178.0 L183.8 171.4 L169.7 159.1 L163.5 152.5 L157.6 154.0 L139.8 162.3 L127.9 164.4 L109.8 164.5 L98.4 162.0 L70.7 145.8 L64.9 137.9 L70.7 126.1 Z" fill="#172033" fill-rule="evenodd"/></svg>
