<svg xmlns="http://www.w3.org/2000/svg" viewBox="0 0 320 200" role="img"><path d="M181.3 62.4 L180.0 63.0 L180.0 63.9 L180.0 64.1 L180.4 65.5 L180.5 66.2 L180.5 66.5 L180.2 67.0 L179.0 67.9 L178.5 68.4 L178.0 69.1 L177.9 69.6 L178.3 73.3 L178.6 74.4 L179.7 76.8 L179.7 77.2 L179.7 77.3 L179.4 77.8 L178.9 78.2 L178.3 78.5 L177.5 78.7 L175.0 79.1 L175.2 79.9 L175.0 81.3 L175.4 82.0 L176.0 82.2 L176.4 82.5 L176.9 83.3 L177.0 83.5 L177.2 83.9 L177.3 84.7 L177.4 85.0 L177.8 85.2 L178.6 85.3 L179.0 85.5 L179.6 86.2 L179.9 86.7 L179.9 86.8 L179.9 87.5 L179.6 88.4 L179.1 89.1 L178.4 89.7 L177.7 90.1 L176.9 89.9 L176.7 90.9 L176.7 91.0 L177.0 92.6 L177.9 95.4 L178.5 96.7 L180.4 98.7 L181.3 99.9 L181.5 101.1 L181.5 102.0 L181.8 102.7 L182.9 103.1 L183.3 103.2 L184.0 103.3 L184.7 103.3 L184.8 103.3 L185.3 103.3 L185.8 103.7 L186.3 104.5 L187.3 107.9 L188.3 110.8 L189.1 112.0 L189.8 112.5 L190.3 112.8 L191.6 113.0 L192.5 112.8 L194.3 111.7 L195.3 111.5 L195.3 111.5 L198.0 111.8 L200.6 112.3 L201.5 113.0 L201.9 114.0 L201.9 115.3 L202.0 117.8 L201.7 118.9 L200.8 119.7 L201.3 120.0 L201.5 120.4 L201.6 120.8 L201.8 121.2 L203.3 122.2 L204.7 123.5 L205.2 124.2 L205.5 125.2 L205.6 126.2 L205.4 127.1 L204.9 128.9 L204.8 129.5 L204.8 129.9 L204.7 130.3 L204.4 130.9 L204.1 131.2 L203.6 131.4 L203.1 131.7 L202.8 132.2 L202.1 132.3 L201.5 132.6 L201.2 133.1 L201.3 133.7 L201.1 134.0 L200.9 134.3 L200.4 134.8 L199.2 135.5 L198.0 135.3 L196.8 134.8 L195.4 134.9 L194.8 135.2 L194.5 135.6 L194.3 136.1 L193.9 136.7 L193.4 136.9 L192.3 137.1 L191.9 137.4 L191.8 137.9 L192.0 139.3 L192.0 139.9 L191.8 140.5 L191.6 140.9 L191.1 141.7 L190.3 143.3 L190.1 143.5 L189.7 143.8 L189.1 144.0 L188.6 144.3 L188.2 144.8 L187.9 146.0 L188.0 147.1 L188.0 148.1 L187.4 149.4 L187.2 149.5 L186.4 149.7 L186.2 150.0 L186.1 150.3 L186.3 150.9 L186.3 151.1 L186.6 152.1 L186.5 152.3 L185.7 154.0 L185.5 154.4 L185.1 154.6 L183.8 155.0 L181.9 155.8 L180.6 155.9 L177.9 155.5 L176.9 155.7 L176.1 156.1 L174.4 155.9 L173.4 156.3 L172.7 156.9 L172.1 157.7 L171.7 158.6 L171.5 159.6 L170.6 159.7 L168.0 159.8 L167.4 159.9 L167.7 160.3 L168.5 163.5 L168.7 163.8 L170.0 164.7 L172.3 167.7 L172.5 168.6 L172.1 169.7 L171.2 170.4 L170.3 170.3 L169.4 169.9 L167.5 169.3 L167.4 169.3 L166.9 169.2 L166.5 169.4 L166.1 169.8 L166.3 170.0 L166.6 170.2 L166.7 170.6 L166.7 170.9 L166.3 171.5 L166.3 171.6 L166.4 171.8 L166.8 172.2 L166.9 172.3 L167.1 172.8 L167.3 173.0 L167.5 173.3 L167.3 173.8 L166.6 174.5 L165.7 174.9 L164.9 175.5 L164.7 176.7 L164.3 176.4 L163.8 176.3 L163.4 176.3 L163.0 176.4 L162.6 176.8 L162.5 177.2 L162.5 177.6 L162.4 177.8 L161.5 178.0 L160.5 177.6 L159.0 176.6 L156.6 175.6 L154.6 175.1 L152.9 174.7 L152.0 175.1 L151.9 175.1 L151.8 175.4 L151.5 175.4 L151.2 174.7 L151.3 173.8 L152.2 172.3 L151.3 172.0 L151.0 171.8 L151.8 170.5 L152.8 167.9 L152.9 167.2 L152.5 166.2 L152.0 165.9 L151.2 165.8 L150.0 165.5 L150.0 165.4 L150.0 165.2 L149.9 165.0 L149.7 164.8 L149.0 164.5 L148.5 164.3 L147.6 164.3 L147.2 164.1 L147.2 163.8 L147.9 163.0 L148.5 162.6 L149.0 162.3 L148.1 161.7 L145.7 158.1 L145.3 157.4 L145.0 156.9 L144.5 156.7 L142.9 156.6 L142.1 156.5 L141.5 156.3 L141.9 156.0 L140.5 155.2 L140.3 155.6 L140.2 155.7 L140.2 156.0 L140.0 155.5 L139.7 155.3 L139.4 155.1 L139.1 154.9 L139.0 154.7 L138.6 154.0 L138.2 153.5 L138.0 153.6 L137.5 153.2 L134.1 152.4 L131.2 151.1 L129.6 149.9 L126.7 149.2 L124.9 148.2 L120.0 144.0 L119.5 143.3 L119.2 142.8 L118.5 140.5 L118.1 139.9 L116.3 138.5 L115.7 137.9 L115.6 137.7 L115.6 137.6 L115.3 137.5 L115.3 137.2 L116.7 136.6 L117.5 136.5 L118.3 137.0 L120.2 138.7 L120.7 139.3 L121.3 140.5 L121.6 141.2 L121.7 141.9 L122.2 142.2 L123.3 142.0 L124.4 141.6 L124.9 141.2 L125.2 136.5 L125.1 135.8 L123.8 135.2 L122.0 133.8 L120.6 132.3 L120.3 131.2 L120.7 131.5 L120.8 131.9 L120.9 132.3 L121.4 132.2 L121.7 132.2 L122.7 133.1 L123.4 132.8 L123.7 131.8 L123.8 130.6 L123.2 129.6 L121.8 129.1 L120.6 129.3 L120.3 130.8 L119.9 130.0 L116.3 125.9 L116.1 125.5 L116.3 124.9 L117.0 124.3 L117.9 123.9 L118.5 123.4 L119.0 122.5 L119.2 121.7 L119.2 118.6 L119.4 117.8 L119.9 117.2 L120.8 117.0 L121.4 116.8 L121.2 116.4 L120.8 115.9 L120.7 115.6 L120.9 115.1 L121.3 114.7 L121.6 114.4 L121.7 114.3 L121.3 113.7 L120.5 113.0 L120.0 112.3 L120.5 112.0 L121.3 111.8 L122.3 110.7 L123.1 110.2 L122.4 110.8 L122.8 112.0 L122.4 113.1 L122.4 114.1 L122.8 114.1 L123.0 113.4 L123.0 113.6 L123.0 113.7 L123.1 114.1 L123.8 113.4 L126.5 112.4 L127.4 111.6 L127.5 110.4 L126.9 109.4 L126.3 108.4 L125.9 107.4 L125.8 108.7 L125.1 109.9 L123.8 111.5 L123.8 111.2 L123.5 110.9 L124.0 110.5 L124.6 109.8 L125.0 108.8 L124.9 107.8 L124.6 107.5 L123.8 107.2 L123.5 107.1 L123.1 106.5 L123.1 106.2 L123.4 106.0 L123.9 102.0 L123.7 101.2 L123.4 100.9 L123.1 100.4 L123.2 100.1 L124.3 99.7 L124.5 99.1 L124.5 98.4 L124.6 97.8 L126.7 95.3 L127.0 94.3 L126.9 93.2 L126.3 92.3 L125.6 91.7 L124.7 91.5 L123.6 91.5 L122.6 91.3 L122.0 90.9 L121.7 89.9 L121.7 87.8 L121.6 87.3 L120.8 86.8 L120.7 86.2 L121.3 86.8 L122.5 86.8 L123.3 86.1 L123.1 84.8 L124.3 84.2 L125.6 83.4 L126.6 82.4 L127.0 81.0 L126.9 80.1 L126.5 79.8 L126.0 79.7 L125.3 79.4 L124.5 78.9 L123.7 77.8 L123.1 77.3 L127.6 77.7 L129.1 77.4 L129.5 77.3 L130.6 75.5 L130.9 75.5 L130.9 76.1 L131.1 76.4 L131.5 76.4 L132.0 76.3 L131.6 74.9 L131.3 74.5 L130.9 74.8 L130.7 74.4 L129.2 73.4 L130.2 72.0 L130.1 70.4 L129.9 68.6 L129.9 67.7 L130.8 68.0 L131.3 67.3 L131.3 66.2 L130.9 65.2 L130.6 65.2 L124.4 63.3 L123.7 63.0 L122.7 62.6 L119.2 63.5 L119.2 62.9 L119.2 61.6 L118.8 61.0 L118.3 60.7 L118.2 60.5 L118.2 60.3 L118.2 59.9 L118.2 59.7 L118.4 59.4 L118.6 59.0 L118.2 57.8 L118.5 57.7 L118.9 57.6 L119.2 57.4 L119.5 56.5 L119.1 56.2 L119.1 56.2 L118.6 55.4 L118.5 54.4 L118.5 53.4 L118.8 52.5 L119.7 51.0 L119.6 50.5 L119.5 50.3 L118.7 49.6 L115.7 48.0 L114.9 47.3 L114.9 47.3 L114.4 46.5 L114.5 46.0 L116.1 44.7 L121.0 39.0 L121.1 38.7 L121.0 38.0 L121.1 37.7 L121.6 36.8 L121.9 36.5 L124.5 34.2 L125.2 33.4 L126.3 32.9 L127.1 32.2 L127.8 31.3 L128.4 30.3 L128.4 30.3 L128.7 29.6 L129.3 29.2 L130.1 28.8 L130.7 28.3 L131.0 27.7 L131.3 26.3 L131.6 25.6 L132.5 24.6 L133.8 23.4 L134.3 23.0 L135.3 22.4 L136.5 22.0 L137.7 22.5 L138.5 23.6 L138.9 24.9 L138.9 25.4 L139.0 25.9 L138.9 25.9 L138.7 26.2 L138.3 26.8 L138.2 27.1 L138.1 27.9 L138.1 28.3 L138.3 28.7 L139.2 30.3 L140.9 31.3 L141.8 31.7 L142.7 31.7 L143.2 31.6 L143.5 31.5 L145.5 30.7 L145.9 30.3 L146.0 30.3 L147.2 29.7 L149.8 29.7 L151.1 29.4 L152.9 27.6 L154.0 27.0 L155.4 27.6 L156.4 28.5 L159.0 29.5 L159.9 30.3 L159.9 30.3 L159.9 30.3 L159.9 30.3 L161.4 32.9 L161.7 33.2 L162.3 33.7 L162.6 34.1 L162.6 34.6 L162.1 35.2 L162.0 35.5 L162.2 35.8 L163.0 36.3 L163.3 36.6 L163.5 37.0 L163.4 37.7 L163.4 38.1 L163.9 39.0 L164.3 39.3 L164.9 39.4 L168.5 39.3 L169.3 39.4 L175.6 42.9 L176.5 43.6 L176.9 43.9 L177.9 44.9 L179.9 48.1 L180.4 49.5 L180.6 50.4 L180.6 52.0 L180.9 53.0 L182.5 56.2 L182.7 57.2 L183.0 57.9 L183.0 58.5 L182.5 59.5 L182.0 59.9 L181.7 60.1 L181.3 60.4 L181.1 61.0 L181.1 61.4 L181.4 62.0 L181.3 62.4 Z" fill="#172033" fill-rule="evenodd"/></svg>
