<svg xmlns="http://www.w3.org/2000/svg" viewBox="0 0 320 200" role="img"><path d="M44.9 48.8 L49.2 46.1 L55.9 41.9 L57.4 41.5 L58.8 41.6 L59.7 41.9 L61.8 42.7 L62.5 42.8 L63.4 42.8 L64.9 42.4 L65.5 42.5 L66.2 43.1 L67.6 44.1 L74.0 46.0 L76.9 46.4 L78.0 46.8 L78.0 47.0 L77.4 47.3 L76.4 47.6 L75.4 48.5 L76.5 49.8 L78.3 51.0 L79.2 51.4 L81.4 52.4 L88.0 54.2 L90.2 54.4 L91.3 54.3 L92.1 54.1 L93.3 53.5 L94.5 53.0 L95.4 52.8 L98.8 52.8 L99.6 53.0 L100.3 53.5 L101.6 54.7 L104.2 56.5 L105.2 57.0 L107.8 57.6 L108.5 58.1 L109.8 59.4 L110.6 59.7 L111.6 59.7 L112.0 59.2 L112.2 58.5 L112.7 57.8 L113.6 57.4 L114.5 57.5 L115.4 57.6 L116.2 57.5 L116.9 56.9 L117.1 56.6 L117.5 55.2 L117.7 53.6 L118.1 52.4 L118.4 52.2 L119.0 51.7 L119.3 51.5 L119.4 51.2 L119.4 50.4 L119.5 50.0 L119.9 49.7 L120.3 49.7 L120.4 49.7 L120.1 49.0 L118.7 47.4 L117.8 46.7 L117.5 46.3 L117.5 46.3 L117.2 46.1 L116.5 46.3 L115.8 45.1 L113.6 44.1 L109.3 42.7 L107.2 41.3 L106.3 41.1 L105.7 40.9 L103.4 39.7 L102.6 39.0 L102.2 38.0 L101.9 36.2 L101.8 35.9 L100.8 34.5 L100.7 34.2 L100.1 34.3 L99.8 34.6 L99.6 35.0 L99.2 35.3 L98.0 34.5 L97.4 32.5 L97.4 30.2 L97.8 28.7 L98.7 28.0 L99.7 27.9 L101.8 28.3 L102.7 28.2 L103.4 28.0 L104.0 27.5 L106.0 25.8 L106.9 24.6 L108.6 22.0 L109.6 22.2 L110.8 22.2 L112.8 22.4 L113.6 22.7 L113.9 23.6 L113.7 25.4 L113.9 26.1 L114.7 26.6 L115.6 26.6 L116.3 26.2 L117.8 25.3 L118.7 25.1 L120.5 24.8 L121.1 24.5 L121.3 24.3 L122.1 23.7 L122.4 23.7 L122.6 24.2 L123.0 26.0 L123.3 26.6 L123.7 27.1 L126.6 29.1 L127.4 29.5 L128.0 29.6 L129.1 29.7 L129.6 29.9 L129.9 30.2 L130.1 31.0 L130.3 31.3 L130.9 32.0 L133.1 33.4 L134.2 34.7 L134.6 36.0 L135.2 36.9 L135.3 36.9 L137.1 36.7 L137.9 36.4 L138.8 36.3 L139.6 36.5 L140.3 37.1 L140.6 37.8 L140.8 38.6 L141.1 39.3 L141.9 39.7 L142.0 39.8 L142.3 40.1 L142.6 40.5 L142.7 40.9 L142.9 41.3 L144.3 42.6 L144.7 43.2 L144.8 44.3 L144.8 46.6 L145.2 47.6 L146.0 48.2 L149.4 49.8 L150.4 50.0 L150.8 50.1 L155.4 50.5 L156.3 50.7 L157.6 52.1 L158.4 52.5 L159.3 52.5 L160.9 51.8 L161.8 51.5 L162.7 51.6 L165.0 52.5 L166.3 53.0 L167.2 53.1 L170.3 52.9 L171.0 52.9 L172.9 52.4 L173.9 51.9 L174.1 51.5 L173.9 50.9 L173.7 50.0 L173.8 49.1 L174.2 48.6 L174.8 48.3 L175.5 47.7 L175.8 46.9 L176.0 46.2 L176.5 45.8 L177.7 46.0 L178.7 45.6 L180.1 42.4 L181.0 41.1 L182.5 40.5 L187.6 39.7 L188.9 39.2 L191.3 37.7 L195.1 35.8 L196.1 35.0 L197.0 33.7 L198.9 29.9 L199.2 29.6 L202.3 26.6 L204.4 24.0 L204.9 24.3 L206.3 24.9 L207.8 26.0 L211.8 30.1 L213.3 31.3 L213.9 31.9 L214.2 33.0 L217.2 35.6 L218.9 38.4 L219.8 38.6 L220.6 39.2 L221.1 39.9 L221.5 40.5 L222.6 41.6 L222.7 41.9 L223.0 42.1 L224.1 42.3 L224.4 42.5 L225.1 43.2 L226.7 45.8 L228.1 47.9 L228.7 48.6 L229.3 49.4 L229.5 50.4 L230.1 54.3 L230.4 55.1 L230.9 55.5 L231.2 56.0 L231.9 59.2 L234.1 61.8 L239.4 66.4 L239.8 66.9 L240.2 67.7 L241.2 68.3 L243.2 69.2 L244.2 69.0 L245.1 69.6 L245.9 70.4 L246.7 70.7 L247.2 71.2 L247.0 72.1 L246.3 73.8 L246.0 74.7 L245.9 75.1 L246.0 75.6 L246.2 75.9 L246.8 76.5 L246.9 76.7 L246.9 76.7 L247.2 77.1 L248.0 77.7 L248.9 78.2 L249.5 78.4 L251.4 78.5 L252.3 78.7 L253.0 79.0 L254.6 80.1 L255.5 80.4 L257.7 80.6 L259.6 81.1 L260.7 81.2 L261.5 81.0 L264.0 80.3 L265.0 80.1 L270.1 80.3 L270.5 80.5 L270.7 80.8 L270.8 81.2 L271.0 81.5 L271.8 82.2 L272.7 82.8 L273.6 83.2 L277.6 83.9 L278.4 84.2 L278.9 84.9 L279.4 85.9 L280.1 86.8 L281.0 87.3 L282.0 87.5 L282.8 88.2 L283.4 89.1 L283.9 90.0 L284.3 93.7 L284.6 94.1 L285.0 94.9 L285.2 95.8 L285.1 96.5 L284.2 95.2 L283.3 94.1 L282.2 93.1 L280.0 91.7 L279.1 91.3 L278.1 91.0 L276.1 90.8 L274.4 90.4 L273.5 90.3 L273.0 90.3 L272.4 90.6 L272.0 90.6 L270.3 90.6 L269.5 90.9 L268.0 91.9 L267.1 91.9 L266.8 91.6 L266.2 90.9 L265.8 90.6 L265.4 90.5 L264.2 90.3 L263.0 89.9 L262.2 90.2 L260.7 91.2 L261.0 92.3 L259.7 93.3 L257.9 94.0 L255.0 94.5 L252.4 95.7 L248.9 96.6 L248.1 97.1 L246.4 98.5 L245.7 99.0 L245.2 99.4 L245.1 100.4 L245.3 101.6 L245.4 102.1 L242.9 102.8 L242.5 103.5 L242.6 104.4 L243.2 105.3 L243.6 105.6 L244.3 106.0 L244.6 106.4 L244.8 106.8 L244.5 107.1 L244.1 107.3 L243.3 107.9 L243.0 108.0 L242.6 108.2 L242.3 108.7 L242.1 109.2 L242.1 109.6 L242.3 110.5 L242.8 111.4 L243.0 112.0 L242.8 112.5 L242.4 112.8 L242.0 113.0 L241.8 113.3 L241.7 113.7 L241.8 114.0 L241.9 114.2 L242.0 114.5 L242.0 114.8 L241.8 115.0 L241.1 115.4 L240.8 116.0 L240.8 116.3 L241.1 116.6 L240.9 117.2 L241.1 117.8 L242.2 118.9 L242.1 119.3 L241.5 119.6 L240.3 120.1 L239.2 121.2 L238.2 122.1 L237.4 123.2 L237.4 124.0 L236.9 124.7 L236.5 125.7 L236.1 126.7 L235.9 127.6 L236.0 128.8 L236.4 129.7 L240.5 132.6 L241.1 133.1 L241.4 133.7 L241.4 133.9 L241.2 134.0 L240.9 135.5 L241.0 136.0 L241.4 136.5 L240.8 136.3 L240.4 136.0 L240.1 135.6 L239.8 135.3 L239.6 135.3 L239.7 135.9 L240.1 136.6 L240.7 137.3 L241.4 137.7 L241.4 138.0 L240.4 137.8 L239.7 137.3 L239.2 136.6 L236.9 135.5 L235.4 135.9 L234.2 137.1 L233.8 138.5 L233.8 143.4 L233.7 143.9 L233.4 144.7 L232.8 146.2 L232.6 146.9 L232.5 148.4 L232.3 149.4 L231.9 150.2 L228.5 152.0 L226.7 152.5 L225.5 151.8 L225.6 151.2 L225.6 150.9 L225.7 150.6 L226.1 150.2 L228.1 149.9 L228.8 149.7 L229.4 149.0 L229.8 148.1 L229.8 147.2 L229.3 146.4 L228.4 146.0 L226.3 145.9 L226.3 145.5 L226.0 143.7 L225.8 143.2 L225.0 142.7 L224.2 142.5 L222.3 142.6 L221.8 142.7 L221.5 143.1 L221.3 143.5 L221.0 144.2 L220.9 144.4 L220.9 144.9 L220.8 145.2 L220.6 145.3 L220.4 145.3 L220.3 145.4 L220.2 147.4 L220.4 148.5 L221.1 149.5 L220.9 150.6 L219.7 153.8 L219.6 154.1 L218.7 155.7 L218.6 155.8 L217.3 157.0 L215.7 156.7 L215.7 158.2 L215.8 159.0 L216.0 159.7 L217.1 161.8 L217.3 168.6 L217.6 176.1 L217.6 176.2 L214.7 175.7 L213.3 175.7 L212.3 176.1 L211.4 176.8 L210.3 177.4 L209.1 177.8 L208.0 178.0 L205.9 177.9 L205.7 177.9 L204.3 176.8 L203.1 175.2 L202.5 174.6 L201.4 173.5 L200.7 172.8 L200.0 172.1 L199.2 171.2 L198.5 170.7 L197.9 170.1 L197.6 168.9 L197.1 167.9 L196.1 167.9 L193.8 168.8 L192.4 168.7 L191.6 168.1 L190.9 167.3 L188.8 166.0 L188.7 165.2 L188.9 164.4 L188.7 163.7 L188.5 163.3 L188.0 163.0 L182.1 160.7 L179.2 158.9 L178.3 157.6 L178.2 155.8 L178.6 155.3 L180.9 154.1 L181.1 153.8 L181.1 153.5 L181.2 153.2 L189.5 152.1 L191.3 151.2 L191.3 151.2 L191.3 151.2 L191.7 150.7 L192.0 150.1 L192.1 150.1 L192.3 149.5 L192.3 148.9 L192.1 148.3 L190.7 146.1 L190.0 145.6 L187.5 144.7 L184.9 142.8 L183.9 141.6 L183.3 140.4 L183.3 138.9 L184.2 137.6 L185.5 136.7 L187.0 136.1 L189.7 135.6 L192.1 134.4 L193.3 134.1 L193.7 134.0 L192.7 132.4 L191.5 131.1 L188.4 128.9 L180.9 121.9 L178.2 119.9 L177.3 119.5 L176.7 119.4 L176.7 119.4 L176.2 120.0 L175.7 120.3 L175.2 120.4 L171.8 120.3 L170.7 120.6 L169.9 121.0 L169.2 121.6 L167.2 123.1 L161.9 125.4 L161.1 125.8 L158.7 127.6 L158.1 127.9 L157.1 128.0 L154.0 128.8 L152.2 129.6 L150.7 130.6 L148.5 132.8 L148.5 132.8 L147.0 134.0 L145.7 134.6 L145.1 134.8 L140.7 136.1 L138.6 137.2 L138.1 137.5 L138.0 138.0 L136.4 140.0 L135.6 141.7 L135.4 142.0 L134.9 142.4 L134.6 142.6 L131.9 143.7 L131.4 143.8 L130.7 143.7 L129.5 143.3 L128.8 143.3 L128.0 143.5 L128.0 143.5 L127.4 144.0 L126.8 144.5 L125.6 146.1 L125.4 146.3 L125.0 146.6 L124.3 146.9 L123.9 147.1 L123.4 147.8 L122.6 149.1 L121.9 149.7 L119.3 150.7 L118.5 151.2 L117.9 151.8 L116.6 153.9 L116.1 154.5 L115.5 155.0 L114.8 155.5 L114.1 155.8 L113.1 156.1 L112.3 156.2 L110.8 153.6 L110.6 153.1 L110.6 152.6 L110.6 152.0 L110.8 151.5 L110.8 151.3 L110.9 151.2 L111.5 149.8 L111.6 148.5 L111.3 147.3 L110.8 145.8 L109.7 145.1 L108.2 144.5 L107.1 143.6 L107.0 142.2 L108.1 141.5 L109.6 141.6 L112.3 142.7 L112.9 142.6 L115.0 141.5 L115.9 141.5 L116.3 141.3 L116.1 141.0 L116.1 140.9 L115.8 140.6 L115.5 140.4 L113.6 139.4 L112.5 138.5 L112.1 137.8 L111.8 137.1 L111.5 136.5 L110.8 136.0 L107.6 134.9 L106.1 134.0 L105.5 132.6 L106.1 131.5 L107.5 130.8 L110.8 130.3 L110.8 130.3 L111.3 130.1 L111.6 129.8 L111.6 129.4 L111.3 128.9 L111.4 128.2 L111.9 127.8 L112.5 127.5 L112.9 126.9 L112.8 126.2 L112.2 125.6 L111.5 125.2 L110.8 125.1 L108.0 125.3 L107.1 125.2 L106.4 124.8 L105.4 123.7 L104.7 123.3 L103.2 123.2 L100.2 124.4 L98.6 124.7 L97.6 124.5 L97.0 124.0 L95.9 122.4 L95.3 121.8 L94.5 121.5 L92.8 121.1 L91.4 120.2 L89.7 117.6 L88.5 116.6 L85.7 116.0 L84.2 115.4 L83.2 115.0 L81.2 113.5 L80.9 112.9 L78.9 109.8 L77.9 109.0 L76.7 108.5 L72.1 108.1 L70.6 107.6 L70.6 107.0 L70.5 106.6 L73.3 105.2 L80.7 106.1 L83.8 105.9 L84.4 105.5 L84.7 105.0 L85.2 103.0 L85.4 102.6 L86.4 102.0 L87.2 101.1 L87.8 100.0 L88.6 97.1 L88.6 96.9 L88.6 96.6 L88.5 96.3 L87.3 95.2 L86.7 94.7 L86.0 94.4 L85.1 94.5 L84.4 94.6 L84.1 94.7 L83.2 94.7 L81.3 93.1 L81.3 93.0 L70.9 88.5 L68.3 86.6 L66.8 84.3 L66.5 83.8 L65.5 83.3 L65.1 83.0 L64.9 82.5 L64.8 81.5 L64.6 81.1 L63.9 80.3 L63.0 79.8 L62.1 79.1 L61.5 78.1 L61.5 77.3 L61.5 76.2 L62.6 74.7 L64.3 73.6 L66.1 72.9 L69.6 71.7 L70.8 70.7 L71.6 68.8 L71.5 67.8 L70.8 67.5 L69.7 67.5 L68.8 67.2 L68.1 66.7 L66.2 64.8 L65.0 64.1 L64.6 64.0 L63.9 63.9 L63.4 63.4 L63.8 62.0 L63.5 60.9 L62.3 61.0 L61.8 61.2 L59.8 62.0 L58.7 61.9 L56.8 61.3 L54.7 61.1 L54.0 60.6 L53.3 60.0 L52.4 59.6 L50.9 58.5 L50.2 58.2 L50.0 59.0 L49.8 59.5 L48.9 59.4 L47.9 58.9 L47.4 58.2 L47.8 56.8 L52.2 56.9 L53.8 56.1 L53.7 55.4 L53.1 54.7 L50.8 53.3 L50.0 53.1 L47.1 53.1 L46.4 52.9 L46.1 52.3 L46.6 51.4 L44.9 48.8 Z M67.7 79.5 L69.2 78.6 L69.8 77.4 L68.7 76.9 L68.0 76.9 L67.4 76.9 L66.7 77.0 L66.2 77.3 L65.9 77.8 L65.8 78.2 L65.9 78.7 L66.2 79.1 L67.7 79.5 Z M95.5 157.0 L95.0 157.0 L92.4 156.5 L89.5 155.5 L80.1 153.9 L79.1 153.6 L76.8 152.9 L72.8 152.9 L70.3 152.4 L69.0 152.4 L68.7 152.3 L68.5 152.3 L67.6 151.9 L66.9 151.7 L66.3 151.6 L65.3 151.2 L64.4 150.7 L63.9 150.2 L63.8 149.8 L63.9 149.4 L64.1 149.0 L64.2 148.6 L64.0 148.3 L62.9 147.9 L62.5 147.6 L62.3 147.3 L61.9 146.3 L61.7 146.0 L61.3 145.6 L60.9 145.4 L60.5 145.2 L60.2 144.7 L60.6 144.1 L60.3 143.6 L59.7 143.3 L59.1 143.2 L58.7 143.0 L58.7 142.7 L58.8 142.2 L58.7 142.0 L58.3 141.9 L57.9 142.1 L57.5 142.2 L57.4 142.3 L52.8 141.1 L51.6 141.4 L51.3 140.7 L50.9 138.5 L50.6 138.0 L50.2 137.6 L49.9 137.1 L49.1 135.7 L48.7 135.3 L48.3 135.1 L47.9 134.7 L47.5 134.2 L47.4 133.9 L47.1 133.7 L45.5 132.8 L45.3 132.6 L45.3 132.4 L45.1 132.3 L44.7 132.2 L44.3 132.2 L44.0 132.2 L42.9 131.5 L42.7 131.2 L43.1 130.7 L42.2 130.0 L41.6 129.1 L40.3 124.9 L39.7 123.9 L38.8 123.4 L39.0 123.2 L39.1 123.0 L38.1 123.0 L37.1 122.9 L37.0 122.8 L36.3 122.5 L36.2 122.4 L35.7 121.8 L35.2 120.1 L34.8 119.6 L36.0 119.1 L38.1 118.8 L40.0 118.9 L41.6 118.6 L42.7 118.1 L43.0 118.0 L44.6 117.0 L46.3 116.6 L47.8 117.1 L48.2 117.5 L51.1 120.4 L51.6 121.1 L51.8 122.0 L51.7 123.0 L51.2 124.6 L51.4 125.3 L52.3 125.7 L53.9 125.4 L55.2 124.5 L56.4 124.2 L56.7 124.5 L57.8 125.7 L58.3 126.6 L58.8 127.1 L59.4 127.3 L61.5 127.5 L62.3 127.8 L63.7 128.9 L63.7 128.9 L64.2 129.1 L64.7 129.2 L65.2 129.1 L65.7 128.9 L66.2 128.7 L69.8 127.0 L71.0 126.6 L76.4 125.6 L76.7 125.5 L77.7 125.5 L78.9 125.9 L80.0 126.4 L80.4 127.0 L80.4 127.7 L80.2 128.9 L80.2 128.9 L80.6 130.9 L80.4 131.6 L78.9 133.5 L78.6 134.4 L78.9 134.9 L79.0 135.1 L81.5 135.6 L82.5 136.2 L83.3 136.9 L84.4 137.5 L85.0 137.8 L87.6 138.8 L88.5 139.4 L88.8 139.8 L88.9 140.1 L88.8 140.4 L88.5 140.7 L87.4 141.8 L87.1 143.0 L87.5 144.2 L88.5 145.4 L89.6 146.7 L90.5 148.1 L92.9 153.1 L95.5 157.0 Z" fill="#172033" fill-rule="evenodd"/></svg>
