<svg xmlns="http://www.w3.org/2000/svg" viewBox="0 0 320 200" role="img"><path d="M220.4 119.9 L218.8 138.3 L205.1 152.0 L194.4 159.2 L188.2 163.4 L176.9 174.7 L172.7 175.2 L169.3 175.2 L166.0 175.7 L162.4 178.0 L157.1 169.2 L147.3 163.7 L135.4 161.0 L128.3 160.5 L124.1 160.2 L116.9 155.2 L110.8 143.6 L103.9 119.9 L99.6 48.3 L100.6 40.0 L104.4 33.1 L111.9 25.5 L121.6 22.0 L131.3 27.2 L138.6 38.0 L141.2 43.4 L144.9 51.2 L155.1 72.7 L162.1 82.2 L172.0 89.5 L185.9 100.0 L194.0 104.5 L204.4 107.8 L214.2 112.2 L220.4 119.9 Z" fill="#172033" fill-rule="evenodd"/></svg>
