<svg xmlns="http://www.w3.org/2000/svg" viewBox="0 0 320 200" role="img"><path d="M219.5 145.2 L219.9 146.8 L219.9 147.6 L219.5 151.6 L219.9 157.9 L219.9 158.6 L220.2 159.9 L221.2 162.6 L221.2 162.9 L221.2 163.2 L221.0 163.6 L220.5 164.1 L219.9 164.5 L219.3 164.5 L219.0 164.2 L218.8 163.6 L218.6 162.6 L218.1 161.5 L217.4 161.4 L216.5 161.5 L215.4 161.4 L214.8 161.2 L214.5 161.1 L214.3 160.9 L214.1 160.4 L214.1 160.0 L214.0 159.5 L213.6 159.1 L212.8 158.8 L211.8 160.0 L210.9 160.0 L210.5 160.0 L210.2 160.5 L209.8 161.7 L209.1 162.7 L208.9 163.1 L208.9 163.6 L209.1 164.7 L209.1 165.2 L208.9 166.0 L208.8 166.4 L209.0 166.9 L209.2 167.3 L209.8 167.8 L210.0 168.2 L210.2 168.6 L211.2 169.5 L211.1 170.5 L211.0 171.6 L211.1 172.7 L211.4 173.6 L212.2 174.7 L212.3 175.0 L212.4 175.5 L212.8 176.9 L213.0 177.2 L213.1 177.5 L213.1 177.8 L212.8 178.0 L212.7 177.9 L212.5 177.7 L212.4 177.6 L212.2 177.4 L211.6 176.0 L209.8 172.9 L209.3 171.2 L209.1 170.9 L207.8 169.8 L207.5 169.5 L207.1 168.7 L206.8 168.3 L205.6 167.0 L205.4 166.5 L205.4 166.0 L205.6 164.3 L205.5 163.6 L205.4 163.1 L203.9 160.6 L203.7 160.4 L203.4 160.2 L203.1 159.8 L203.0 159.4 L202.9 158.9 L203.0 158.9 L203.1 159.0 L203.1 159.0 L203.2 159.0 L203.2 159.1 L203.4 158.6 L203.8 158.1 L204.2 157.8 L204.7 158.0 L204.4 157.7 L204.1 157.2 L203.9 156.7 L203.9 156.2 L204.2 155.9 L204.5 155.6 L204.8 155.2 L204.7 154.7 L205.1 154.3 L205.2 154.1 L205.0 153.8 L205.2 153.6 L205.2 153.4 L205.0 153.2 L204.8 153.1 L204.9 152.9 L205.0 152.6 L205.0 152.4 L204.9 152.2 L204.8 152.4 L204.8 152.5 L204.7 152.6 L204.9 152.6 L204.5 153.5 L204.2 153.8 L203.8 153.8 L203.6 153.5 L203.6 153.1 L203.8 152.7 L203.8 152.4 L203.6 152.4 L203.5 152.8 L203.2 152.8 L203.0 152.5 L202.9 152.1 L203.0 151.5 L203.2 151.4 L203.5 151.3 L203.9 150.9 L203.8 150.7 L203.3 151.0 L203.2 150.8 L203.3 150.4 L203.9 150.2 L203.9 150.0 L202.7 150.1 L202.2 150.3 L201.8 150.4 L201.5 150.1 L201.6 149.5 L201.9 148.9 L202.3 148.7 L202.1 148.5 L202.2 148.2 L202.5 148.0 L202.9 147.8 L202.9 147.6 L202.6 147.7 L202.4 147.8 L202.1 148.0 L202.0 148.2 L201.8 147.9 L201.7 147.3 L201.6 146.3 L201.5 146.0 L201.1 145.6 L201.1 145.4 L201.1 144.4 L200.4 141.7 L200.3 140.8 L200.6 140.9 L200.7 140.9 L200.6 140.6 L200.3 140.6 L200.1 141.0 L200.1 141.5 L200.0 141.5 L199.7 141.0 L199.4 140.4 L199.3 139.8 L199.2 139.1 L199.4 138.7 L199.6 138.5 L199.8 138.3 L200.0 138.0 L199.9 137.6 L199.7 137.4 L199.4 137.3 L199.2 137.1 L199.1 136.4 L199.6 136.1 L200.3 135.9 L200.9 135.7 L201.2 135.2 L201.8 133.3 L201.6 133.3 L201.2 133.3 L201.2 133.7 L200.9 134.7 L201.0 134.9 L200.8 135.1 L200.5 135.4 L200.1 135.7 L199.6 135.8 L199.5 136.0 L198.9 136.3 L198.7 136.6 L198.7 137.0 L199.0 137.2 L199.4 137.3 L199.6 137.5 L199.6 138.0 L199.1 138.3 L198.6 138.3 L198.2 137.7 L197.7 134.6 L197.4 133.7 L195.6 130.4 L192.2 126.0 L191.4 125.7 L190.9 125.3 L190.5 124.8 L190.3 124.4 L190.1 124.5 L190.0 124.4 L189.8 124.1 L189.8 123.8 L189.8 123.4 L190.1 123.1 L190.3 122.3 L190.7 121.2 L190.7 120.6 L190.5 120.6 L190.4 121.1 L190.0 122.5 L189.7 122.8 L189.1 122.9 L188.7 123.4 L188.6 123.9 L188.7 124.6 L188.3 124.3 L187.9 124.1 L187.5 124.0 L186.9 124.0 L186.9 124.2 L187.4 124.4 L187.5 124.6 L187.2 124.9 L186.8 125.0 L185.4 125.0 L185.9 125.1 L186.3 125.3 L186.5 125.5 L186.4 125.9 L186.1 126.1 L185.7 126.2 L185.2 126.2 L185.2 126.2 L184.4 126.0 L184.3 126.1 L184.2 126.1 L184.2 125.9 L184.2 125.5 L184.2 125.5 L183.8 125.4 L183.4 125.3 L182.5 125.3 L182.5 125.5 L182.9 125.8 L183.0 126.0 L182.8 126.2 L182.2 126.2 L182.2 126.4 L183.7 126.8 L184.4 127.1 L184.7 127.6 L184.6 127.9 L184.4 128.3 L184.1 129.3 L183.6 129.8 L183.1 130.2 L182.4 130.3 L181.1 130.6 L180.1 130.1 L179.5 129.4 L179.3 128.3 L179.0 128.0 L178.7 127.5 L178.4 126.7 L178.2 126.5 L177.8 126.6 L178.2 127.0 L178.6 127.7 L178.8 128.5 L178.7 129.0 L178.2 129.2 L177.3 129.3 L176.5 129.3 L176.2 129.0 L176.0 128.7 L175.3 128.2 L175.1 127.9 L175.0 127.7 L174.6 127.2 L174.4 126.5 L174.1 126.3 L173.4 126.4 L173.2 126.3 L172.9 125.3 L172.7 125.2 L172.5 125.0 L172.3 124.9 L172.1 124.4 L171.7 123.9 L171.6 123.8 L171.6 123.5 L171.3 122.8 L171.1 121.9 L170.9 121.4 L170.6 121.0 L170.4 120.6 L170.3 120.0 L170.2 119.6 L168.2 117.0 L167.9 116.3 L167.8 116.0 L167.8 115.8 L168.1 114.1 L168.2 113.0 L168.3 112.5 L168.6 111.9 L168.8 111.5 L168.7 111.0 L168.9 111.0 L168.4 110.1 L168.4 109.7 L168.7 109.5 L168.6 109.5 L168.5 109.5 L168.5 109.4 L168.5 109.3 L167.8 109.5 L167.4 109.0 L167.1 108.2 L167.1 107.7 L167.1 106.1 L167.3 105.5 L168.0 105.2 L169.5 105.2 L170.1 104.8 L170.2 103.9 L170.0 103.5 L169.9 103.4 L169.6 103.3 L169.2 103.3 L169.1 103.5 L169.3 103.7 L169.8 104.0 L169.6 104.6 L169.2 104.3 L168.9 104.3 L168.4 104.6 L167.7 104.8 L167.3 105.0 L167.2 104.9 L166.8 103.9 L166.9 103.1 L167.3 102.5 L168.0 102.2 L167.8 102.1 L167.8 102.2 L167.8 102.2 L167.7 102.2 L167.6 102.2 L167.4 102.0 L167.0 102.0 L166.0 102.4 L166.2 102.8 L166.0 103.0 L165.7 103.1 L165.3 103.1 L164.8 103.1 L164.5 103.0 L163.8 102.6 L164.0 103.0 L164.4 103.3 L164.8 103.4 L165.3 103.5 L166.3 103.5 L166.5 103.8 L166.5 106.1 L166.5 106.4 L166.3 106.6 L166.0 107.0 L165.9 107.4 L165.8 107.9 L164.9 107.5 L159.7 106.6 L158.7 106.2 L157.8 105.7 L157.8 106.0 L158.1 106.3 L161.5 108.2 L161.9 108.5 L162.1 108.8 L162.3 109.2 L162.5 109.4 L163.4 109.6 L164.1 109.9 L164.5 110.1 L166.3 110.2 L166.5 110.4 L167.3 111.5 L167.4 111.9 L167.5 112.9 L167.4 112.7 L167.2 112.5 L166.9 112.2 L167.1 112.7 L167.2 114.3 L167.1 114.9 L166.4 115.9 L166.2 116.0 L165.9 116.0 L165.8 115.8 L165.9 115.5 L166.2 115.3 L166.2 115.1 L166.0 115.1 L165.7 115.5 L165.4 115.8 L165.0 115.9 L164.5 116.0 L163.5 116.0 L163.2 116.1 L163.1 116.6 L163.1 116.7 L163.2 117.3 L163.6 118.2 L164.1 119.0 L164.6 119.6 L164.7 119.7 L164.6 120.0 L164.7 120.2 L164.8 120.3 L164.9 120.3 L165.0 120.3 L165.1 120.4 L165.4 120.6 L165.5 120.8 L165.4 121.0 L165.0 121.2 L164.6 121.2 L164.2 121.1 L163.8 121.1 L163.3 121.7 L163.1 122.6 L162.7 123.3 L162.0 123.5 L162.4 123.8 L162.3 124.2 L162.0 124.3 L161.6 124.0 L161.1 124.4 L161.5 124.6 L162.2 124.9 L162.7 125.1 L163.0 124.6 L163.4 124.7 L163.9 125.1 L164.2 125.5 L164.3 125.7 L164.4 126.6 L164.7 127.4 L164.8 128.4 L164.7 128.5 L164.4 128.9 L164.2 129.0 L163.6 129.1 L163.4 129.2 L163.2 129.6 L162.9 131.1 L162.9 131.5 L163.0 131.2 L163.2 131.0 L163.3 130.9 L163.5 130.8 L163.5 130.5 L163.4 130.0 L163.5 129.7 L163.7 129.3 L164.1 129.1 L164.6 129.0 L165.1 129.1 L166.0 129.7 L166.5 130.4 L166.8 131.3 L167.3 132.2 L166.9 132.1 L166.7 132.0 L166.7 132.6 L166.9 133.1 L167.5 134.0 L167.6 134.6 L167.6 135.1 L167.5 136.2 L166.6 138.2 L166.0 139.2 L165.5 139.3 L164.8 139.7 L164.5 139.9 L164.4 140.1 L164.3 140.5 L164.1 140.9 L163.4 142.1 L163.1 142.4 L162.8 142.6 L162.5 142.5 L162.0 142.3 L161.6 142.1 L161.5 141.8 L161.6 141.2 L162.3 139.9 L162.4 139.3 L162.1 138.5 L162.0 138.2 L162.2 137.4 L162.1 137.0 L161.6 136.9 L161.8 137.5 L161.5 138.6 L161.6 139.0 L161.8 139.2 L161.9 139.3 L162.1 139.4 L162.2 139.6 L162.1 139.8 L162.0 140.0 L161.8 140.2 L161.8 140.3 L161.7 140.3 L161.7 140.4 L161.6 140.8 L161.5 140.8 L161.4 140.7 L161.3 140.8 L161.2 141.0 L161.1 141.8 L161.0 142.2 L160.9 142.4 L160.4 143.1 L160.1 143.5 L160.0 143.6 L159.9 144.0 L159.4 145.0 L159.3 145.5 L159.1 146.5 L158.9 147.5 L158.7 148.0 L158.4 148.3 L157.0 149.5 L156.6 149.7 L156.1 149.8 L155.5 149.8 L154.6 149.4 L154.1 149.3 L153.7 149.1 L153.5 148.6 L153.7 148.3 L154.2 148.4 L154.0 148.0 L154.1 147.7 L154.4 147.5 L154.5 147.2 L154.5 147.0 L154.4 146.8 L154.4 146.6 L154.5 146.4 L154.3 146.7 L153.8 147.8 L153.5 148.0 L153.3 148.1 L153.0 148.5 L152.7 148.6 L152.5 148.5 L152.2 148.2 L151.8 148.2 L152.0 147.5 L152.1 146.1 L152.4 145.5 L152.6 145.3 L152.9 145.1 L153.2 144.9 L153.5 144.6 L153.6 144.2 L153.6 143.8 L153.7 143.5 L154.0 143.1 L155.1 142.2 L155.2 142.0 L155.4 141.7 L155.5 141.6 L155.8 141.5 L156.0 141.5 L156.2 141.6 L156.4 141.7 L156.9 141.3 L157.3 140.7 L157.5 140.0 L157.4 139.3 L157.0 140.4 L156.6 141.0 L156.3 141.3 L155.6 141.4 L155.1 141.6 L153.5 143.2 L153.4 143.5 L153.1 144.1 L152.8 144.5 L152.7 144.7 L152.6 144.9 L152.2 144.9 L151.9 144.9 L151.1 144.6 L151.2 144.2 L151.3 143.8 L151.5 143.5 L151.7 143.3 L152.0 143.2 L152.1 143.0 L152.2 142.6 L152.1 141.8 L152.2 141.5 L152.3 141.1 L152.6 140.8 L152.9 140.7 L153.1 140.5 L153.3 140.2 L152.6 140.4 L152.3 140.9 L151.8 142.2 L151.6 142.5 L150.9 143.2 L150.7 143.4 L150.8 144.6 L150.7 144.9 L150.3 145.2 L149.9 145.1 L149.5 144.6 L149.3 144.1 L149.2 143.8 L149.0 143.2 L148.9 142.9 L148.9 141.0 L148.6 139.9 L148.6 139.2 L148.5 139.0 L148.2 138.5 L148.0 138.2 L147.9 137.8 L147.9 137.6 L147.9 137.3 L148.0 136.9 L148.5 135.7 L150.7 132.8 L150.9 132.4 L151.0 132.1 L151.1 131.8 L151.5 131.6 L150.7 132.0 L150.6 132.1 L149.8 132.9 L149.4 133.3 L149.3 133.8 L149.1 134.2 L148.6 134.1 L147.8 133.5 L147.9 134.0 L148.0 134.5 L148.1 134.9 L148.0 135.5 L146.9 137.5 L147.2 138.0 L147.5 139.0 L147.8 140.8 L147.9 141.7 L147.8 142.1 L147.6 142.5 L147.1 142.7 L146.7 142.7 L146.3 142.6 L145.8 142.6 L145.8 142.7 L146.4 143.0 L146.8 143.3 L147.2 143.7 L147.3 144.3 L147.2 144.5 L147.1 145.0 L147.1 145.3 L147.2 145.5 L147.6 146.1 L147.8 146.6 L148.1 146.9 L148.2 147.2 L148.0 147.6 L147.8 147.7 L147.2 147.8 L146.6 148.4 L146.4 148.6 L146.4 148.7 L146.3 148.8 L146.0 148.9 L145.5 149.1 L145.2 149.1 L145.1 149.0 L145.0 148.6 L144.7 148.7 L144.3 149.0 L143.9 149.1 L143.5 149.1 L143.0 149.0 L142.5 148.8 L142.2 148.6 L142.1 148.4 L142.0 148.1 L142.0 147.8 L142.3 147.3 L142.2 147.1 L141.8 146.5 L141.1 148.0 L141.4 148.5 L141.9 149.2 L142.5 149.8 L143.0 150.0 L143.3 150.3 L143.0 150.8 L142.4 151.2 L141.7 151.0 L141.4 150.8 L141.1 150.8 L140.5 150.9 L140.4 151.1 L140.7 151.8 L140.7 152.0 L140.2 152.5 L139.7 152.2 L138.9 151.1 L139.0 150.6 L138.7 149.5 L138.7 148.9 L139.0 148.6 L139.4 148.0 L139.6 147.6 L139.7 147.2 L139.6 145.3 L139.8 143.7 L140.0 143.2 L140.6 142.1 L140.7 141.6 L140.7 141.0 L140.4 140.4 L140.1 140.0 L139.7 139.6 L139.7 139.2 L140.5 138.2 L140.7 137.8 L140.8 137.2 L140.9 136.6 L141.0 136.1 L141.3 135.7 L141.0 135.9 L140.8 136.2 L140.4 136.9 L140.1 137.2 L140.0 137.4 L140.2 138.1 L140.1 138.3 L139.6 138.7 L139.2 139.1 L139.3 139.5 L139.8 140.4 L140.0 140.7 L140.0 141.0 L140.0 141.6 L140.0 141.9 L139.7 142.4 L139.6 142.7 L139.4 144.3 L139.3 144.7 L138.8 145.0 L138.6 144.6 L138.6 143.4 L138.6 143.1 L138.9 142.6 L138.9 142.2 L137.7 139.6 L137.7 139.0 L137.8 137.8 L137.8 137.3 L137.5 136.7 L137.3 136.7 L137.1 138.5 L137.3 141.8 L137.5 141.8 L137.5 141.5 L137.6 141.1 L137.8 140.9 L137.9 141.0 L137.9 141.2 L138.0 141.6 L138.1 141.9 L138.3 142.1 L138.4 142.4 L138.4 142.8 L138.2 143.5 L138.0 143.6 L137.7 143.6 L137.7 143.7 L137.7 143.9 L137.7 144.1 L137.9 144.2 L137.9 144.5 L138.3 145.1 L138.5 145.4 L138.5 145.6 L138.3 147.0 L138.0 147.3 L137.6 147.5 L137.3 147.8 L137.0 148.3 L137.0 148.7 L137.1 149.1 L137.1 149.8 L137.0 150.4 L136.8 150.9 L136.4 151.3 L135.5 152.1 L135.2 152.1 L134.5 151.4 L134.3 151.0 L134.3 150.3 L134.4 149.1 L134.5 148.6 L134.9 147.8 L134.9 147.2 L134.8 146.7 L134.3 145.8 L134.2 145.3 L134.0 145.3 L133.9 145.7 L133.9 146.0 L134.1 146.4 L134.2 146.7 L134.2 147.2 L134.1 147.4 L133.7 147.8 L133.4 148.2 L133.2 148.4 L132.8 149.4 L132.7 149.6 L132.5 149.6 L132.4 149.3 L132.2 149.3 L132.2 150.0 L132.5 151.0 L132.4 151.6 L131.9 152.5 L132.0 152.8 L132.6 153.1 L132.3 153.4 L131.8 153.7 L131.3 154.0 L130.8 154.0 L130.3 153.7 L130.1 153.2 L130.2 152.8 L130.5 152.6 L130.5 152.3 L129.7 150.1 L129.7 149.9 L129.7 149.6 L129.5 149.5 L129.3 149.6 L129.0 149.9 L128.9 150.1 L128.8 150.2 L128.4 150.1 L127.8 149.8 L127.6 149.6 L127.5 149.4 L126.8 147.3 L126.7 146.8 L126.8 146.3 L127.1 145.2 L127.1 144.6 L126.9 144.0 L126.3 143.3 L126.2 142.8 L126.4 141.6 L126.3 141.1 L126.3 141.1 L126.8 140.6 L126.7 139.9 L126.6 139.4 L126.3 139.0 L125.2 137.5 L124.9 137.0 L125.3 136.7 L124.9 136.0 L124.7 135.7 L124.4 134.3 L124.4 134.0 L124.5 133.8 L124.7 133.4 L124.7 133.2 L124.6 132.6 L124.2 131.6 L123.9 130.6 L123.6 130.3 L122.8 130.0 L123.4 129.7 L123.5 129.1 L123.4 128.3 L123.2 127.7 L122.8 127.1 L122.7 126.5 L122.6 126.2 L122.3 125.4 L122.2 124.9 L122.4 124.6 L122.7 124.2 L123.0 123.8 L123.1 123.5 L123.2 123.0 L123.3 122.4 L123.2 122.1 L122.9 121.8 L122.2 121.6 L121.9 121.2 L121.3 120.0 L121.0 119.6 L120.5 119.0 L120.4 118.7 L120.4 118.2 L120.7 117.4 L120.7 116.1 L121.1 115.4 L122.5 114.0 L123.2 113.4 L123.5 113.2 L123.6 112.9 L123.6 112.7 L123.5 112.6 L122.7 112.6 L122.5 112.5 L122.3 112.4 L120.4 111.8 L120.0 111.7 L119.6 111.8 L119.4 111.9 L119.2 112.1 L119.0 112.2 L118.7 112.2 L117.0 111.7 L116.6 111.4 L116.4 110.9 L116.4 110.3 L116.6 109.8 L117.2 108.8 L118.5 105.7 L118.6 105.1 L118.2 104.8 L117.9 105.1 L117.6 105.5 L117.2 105.6 L116.9 104.9 L116.6 104.8 L115.8 104.3 L115.3 103.9 L114.7 102.8 L114.3 102.4 L114.1 102.4 L113.6 102.5 L113.3 102.4 L113.1 102.1 L113.0 101.9 L113.1 101.7 L113.2 101.4 L113.1 101.3 L112.8 101.2 L112.5 101.1 L112.5 100.8 L113.0 98.4 L113.0 98.2 L112.8 97.8 L112.8 97.5 L113.0 97.2 L113.3 96.7 L113.5 96.4 L113.5 96.1 L113.4 95.9 L113.4 95.6 L113.5 95.4 L113.9 95.1 L114.4 95.1 L115.0 95.1 L115.5 95.0 L115.8 94.7 L116.8 93.8 L117.1 93.5 L117.2 93.1 L117.1 92.5 L117.0 92.0 L116.8 91.7 L117.1 91.2 L117.4 90.8 L117.4 90.5 L116.8 90.4 L116.7 90.1 L116.2 89.7 L116.0 89.4 L116.1 89.1 L116.2 88.6 L116.3 88.3 L116.2 87.7 L116.1 87.5 L116.3 87.1 L116.6 86.9 L117.2 86.7 L117.6 86.5 L117.6 86.5 L117.7 86.3 L118.0 85.9 L118.0 85.6 L118.0 85.5 L117.9 85.1 L117.9 85.0 L117.7 83.9 L117.1 83.2 L116.2 82.7 L115.7 82.6 L115.4 83.2 L115.0 83.8 L114.4 83.8 L113.1 83.4 L111.4 83.3 L110.8 83.2 L108.8 81.8 L101.9 78.4 L101.1 78.3 L101.0 78.1 L100.8 77.7 L100.6 77.4 L100.5 77.3 L100.4 77.2 L100.4 75.8 L100.3 75.6 L100.0 75.3 L99.7 74.7 L99.3 74.6 L98.8 74.4 L98.9 73.6 L99.1 73.2 L99.5 72.7 L99.6 71.5 L99.9 71.4 L100.2 71.4 L100.4 71.1 L100.4 70.8 L100.5 70.4 L100.7 70.3 L101.0 70.3 L101.3 69.8 L101.7 69.5 L101.9 69.2 L101.8 68.7 L101.5 67.7 L101.4 67.5 L101.2 67.4 L101.2 67.3 L102.5 66.6 L103.0 66.4 L103.5 66.5 L104.0 66.8 L104.3 67.2 L104.6 67.7 L104.6 68.2 L104.9 68.2 L106.0 68.5 L106.5 68.5 L106.7 68.4 L107.2 67.6 L108.1 66.5 L108.5 65.9 L108.5 65.2 L109.2 64.5 L109.5 63.7 L109.7 61.9 L109.6 60.5 L109.9 60.0 L110.8 59.9 L111.2 60.0 L112.0 60.3 L112.8 60.4 L112.9 60.5 L113.0 60.5 L113.3 60.4 L113.5 60.3 L113.8 60.0 L114.1 59.9 L115.0 59.9 L115.8 60.1 L117.4 60.6 L119.0 60.8 L119.2 60.6 L119.4 60.1 L119.6 59.9 L119.8 59.8 L120.0 59.9 L120.2 60.0 L122.0 60.5 L122.7 60.6 L122.3 60.0 L122.8 59.9 L122.8 59.7 L122.8 59.3 L122.8 59.0 L123.0 58.7 L124.0 58.0 L124.2 57.8 L124.3 57.5 L124.2 57.2 L124.0 57.0 L122.7 57.1 L122.1 57.0 L121.7 56.6 L121.5 56.5 L121.0 56.4 L120.7 56.4 L120.5 56.2 L119.9 55.5 L119.8 55.2 L119.7 55.0 L119.7 54.7 L119.4 54.6 L119.4 54.4 L119.8 53.4 L119.8 52.9 L119.5 52.5 L119.2 52.3 L118.9 51.9 L118.6 51.7 L117.8 51.4 L117.9 51.9 L117.6 52.0 L117.3 52.0 L117.1 52.0 L116.9 52.0 L116.6 52.2 L116.4 52.5 L116.1 52.7 L115.8 52.8 L115.3 52.6 L114.4 52.1 L113.9 51.9 L112.8 51.9 L112.2 51.8 L112.0 51.5 L111.8 51.2 L111.0 50.7 L110.8 50.1 L109.8 49.7 L109.4 49.3 L109.3 47.7 L108.6 47.0 L106.7 45.8 L105.1 44.1 L104.2 43.7 L103.0 44.0 L102.6 44.3 L102.1 44.5 L101.6 44.5 L101.2 44.2 L101.0 43.7 L100.9 43.4 L100.5 43.0 L100.5 42.8 L100.5 42.5 L100.3 42.1 L100.1 41.0 L100.2 40.8 L100.4 40.8 L100.5 40.6 L101.0 39.1 L101.5 38.2 L102.2 37.7 L102.4 37.2 L102.3 36.9 L102.2 36.8 L102.0 36.7 L101.9 36.5 L101.9 36.3 L101.9 36.1 L102.0 36.0 L102.3 35.1 L102.5 34.8 L103.4 34.3 L103.6 34.1 L103.8 33.9 L104.0 33.8 L104.3 33.7 L104.8 33.5 L106.4 33.1 L106.8 32.8 L107.0 32.4 L107.0 31.4 L107.1 31.1 L107.5 30.6 L107.9 30.2 L109.1 29.5 L109.3 29.3 L109.5 29.0 L109.6 28.9 L109.9 29.1 L110.1 29.2 L110.3 29.2 L110.6 29.1 L110.8 29.1 L111.4 29.2 L111.3 28.5 L110.8 27.1 L110.4 26.5 L109.7 26.2 L108.2 25.9 L107.5 25.7 L107.4 25.7 L107.3 25.9 L107.2 26.5 L107.1 26.6 L106.7 26.6 L106.5 26.2 L106.5 25.8 L106.6 25.4 L107.0 24.9 L107.5 23.2 L107.7 22.8 L108.0 22.3 L108.4 22.0 L108.6 22.1 L108.7 22.6 L108.6 23.2 L108.7 23.7 L109.1 24.1 L110.0 24.3 L110.4 24.5 L110.8 24.9 L111.1 25.1 L111.4 25.4 L111.6 25.6 L112.1 25.9 L112.7 26.2 L113.0 26.2 L113.5 26.2 L113.8 26.3 L114.0 26.6 L114.2 26.9 L114.4 27.1 L114.7 27.3 L115.0 27.4 L115.6 27.5 L115.5 27.7 L115.4 28.0 L115.5 28.2 L115.7 28.2 L115.9 28.3 L115.9 28.8 L116.0 29.0 L116.6 29.2 L117.0 29.5 L117.1 29.8 L116.8 30.3 L116.5 30.6 L115.5 31.0 L115.3 31.2 L115.8 31.5 L118.0 30.8 L119.0 31.1 L119.2 31.5 L119.3 32.0 L119.6 32.3 L120.0 32.5 L120.5 32.4 L120.9 31.5 L121.4 31.2 L122.1 31.3 L123.3 32.4 L124.0 32.6 L125.2 32.3 L125.7 32.0 L125.6 31.5 L125.3 31.4 L125.0 31.4 L124.8 31.2 L124.9 30.7 L124.6 30.8 L124.4 30.9 L124.2 30.8 L124.0 30.6 L123.8 29.8 L123.1 29.5 L122.4 29.3 L121.8 28.8 L121.8 28.3 L122.0 27.8 L122.3 27.4 L122.7 27.1 L123.1 26.9 L123.4 26.9 L123.6 27.2 L124.0 27.5 L124.3 27.6 L124.7 28.0 L125.0 28.2 L125.3 28.3 L125.8 28.4 L126.1 28.6 L126.2 28.9 L126.1 29.1 L126.1 29.3 L126.6 29.5 L127.2 29.7 L127.4 29.9 L127.4 30.2 L127.2 30.3 L126.8 30.2 L126.5 30.2 L126.5 30.9 L126.7 31.3 L127.2 32.1 L127.4 32.6 L127.6 34.2 L127.8 34.6 L128.2 35.0 L129.9 35.7 L130.3 35.9 L130.6 36.2 L130.8 36.7 L131.0 37.0 L131.9 37.4 L132.6 38.0 L133.0 38.3 L133.6 38.6 L134.0 38.6 L134.4 38.4 L134.7 38.1 L135.1 38.1 L135.5 38.7 L135.6 38.7 L135.7 38.7 L135.8 38.7 L136.0 38.7 L136.0 38.7 L137.4 38.5 L137.6 38.6 L137.7 38.6 L137.8 38.7 L138.2 39.3 L138.4 39.5 L138.7 39.7 L139.0 39.6 L139.2 39.4 L139.3 39.0 L139.3 38.7 L139.5 37.9 L140.7 37.1 L140.9 36.6 L140.7 36.3 L140.3 36.3 L140.0 36.3 L139.7 36.2 L139.7 35.9 L140.0 35.7 L140.4 35.5 L140.7 35.3 L140.2 35.3 L139.8 35.1 L139.6 34.7 L139.9 34.3 L140.1 34.1 L140.2 34.0 L140.4 34.0 L141.0 34.2 L141.0 34.0 L140.8 33.7 L140.8 32.9 L140.9 32.7 L141.5 32.5 L142.0 32.6 L142.1 33.0 L142.1 33.6 L142.1 34.1 L142.1 34.3 L142.1 34.3 L142.5 34.4 L142.6 34.5 L143.2 34.4 L143.4 34.4 L143.7 34.7 L143.9 35.1 L144.0 35.5 L144.2 35.9 L144.6 36.3 L144.6 36.6 L144.5 37.0 L144.6 37.4 L144.7 37.7 L145.3 38.3 L145.5 38.7 L145.6 38.8 L145.8 38.9 L145.9 38.8 L146.1 38.7 L146.1 38.7 L146.1 38.7 L146.2 38.6 L146.2 38.6 L146.3 38.6 L146.3 38.7 L146.6 39.1 L146.6 39.4 L146.2 39.7 L145.7 39.9 L146.2 40.2 L146.6 40.2 L146.8 40.3 L146.7 41.0 L145.5 42.8 L145.4 43.4 L145.9 45.8 L146.5 47.2 L146.8 48.2 L146.6 50.1 L146.5 52.1 L146.1 53.4 L145.9 54.1 L145.9 54.4 L145.8 55.1 L145.8 56.0 L146.1 57.0 L146.4 57.5 L146.8 57.6 L147.7 57.2 L148.8 57.2 L154.6 59.4 L158.8 60.3 L160.9 61.1 L161.8 61.1 L164.5 60.6 L166.7 60.7 L167.7 60.5 L168.1 60.5 L168.4 60.6 L169.0 60.8 L170.0 61.0 L170.2 61.0 L170.3 60.9 L170.6 60.6 L170.8 60.5 L171.2 60.6 L171.5 60.8 L171.9 61.0 L172.2 61.2 L173.0 61.3 L176.0 60.9 L176.2 60.9 L177.0 60.6 L181.3 60.0 L182.8 60.0 L183.1 60.0 L183.7 59.7 L183.9 59.7 L185.2 60.3 L189.1 61.4 L190.2 61.5 L190.4 61.5 L191.0 61.3 L191.3 61.3 L191.6 61.2 L192.0 60.9 L192.2 60.8 L192.7 60.8 L192.9 61.0 L193.1 61.3 L193.5 61.6 L194.0 61.7 L194.6 61.7 L195.2 61.7 L195.5 61.4 L195.7 61.0 L196.0 61.0 L196.3 61.1 L196.5 61.2 L196.7 61.1 L196.9 60.7 L197.1 60.6 L197.5 60.5 L198.7 60.7 L201.6 60.3 L203.0 60.5 L203.5 60.4 L204.3 60.2 L205.1 60.2 L206.0 60.4 L206.7 60.7 L206.9 60.8 L207.1 61.2 L207.3 61.3 L207.5 61.4 L207.9 61.4 L208.1 61.5 L208.2 61.6 L208.6 61.5 L208.8 61.5 L209.0 61.7 L209.4 62.1 L209.7 62.4 L210.0 62.6 L210.4 62.8 L210.9 62.9 L212.3 63.1 L212.5 63.2 L212.9 63.8 L213.7 64.1 L214.3 64.4 L214.4 64.9 L214.5 65.2 L214.5 65.2 L214.5 65.2 L214.7 65.2 L215.1 65.4 L215.1 65.4 L215.1 65.4 L215.1 65.5 L215.1 65.5 L216.0 66.0 L216.0 66.0 L216.2 66.1 L216.2 66.1 L216.3 66.3 L216.4 66.3 L216.1 66.5 L216.1 66.5 L216.8 66.7 L216.8 66.7 L217.0 66.9 L217.2 67.4 L217.2 67.4 L217.3 67.8 L217.2 68.1 L216.9 68.6 L215.9 68.9 L214.3 69.4 L214.0 69.3 L213.8 69.3 L213.8 69.2 L213.7 69.1 L213.7 69.1 L213.7 68.9 L213.7 68.9 L211.9 67.9 L211.9 67.9 L210.9 67.6 L210.1 67.9 L210.0 68.4 L210.1 68.8 L210.1 68.8 L210.4 69.7 L210.4 69.7 L210.5 70.1 L210.5 70.5 L210.4 70.9 L209.1 74.4 L208.8 75.4 L208.7 76.3 L208.5 76.7 L208.3 77.1 L208.2 77.2 L207.9 77.4 L207.5 77.6 L207.1 77.9 L207.0 78.4 L207.2 80.0 L207.1 80.8 L206.5 81.4 L205.9 81.7 L205.1 81.8 L202.9 81.6 L202.9 81.9 L203.4 82.8 L203.5 83.2 L203.0 83.0 L202.4 82.6 L202.1 82.4 L201.6 82.6 L201.5 83.1 L201.7 84.1 L201.7 84.6 L201.1 86.9 L201.0 87.4 L200.6 87.6 L200.1 87.4 L199.3 86.7 L199.2 86.5 L199.2 85.9 L199.1 85.7 L198.8 85.7 L197.1 85.3 L196.9 85.7 L196.9 86.2 L197.1 86.7 L197.1 87.2 L196.8 87.6 L196.4 87.8 L195.8 87.7 L195.4 87.4 L195.1 87.0 L194.7 85.9 L194.4 85.8 L194.3 86.2 L194.0 87.8 L193.8 88.4 L193.5 88.8 L193.1 89.0 L192.5 89.2 L191.4 89.3 L190.4 89.2 L188.4 88.8 L187.3 88.9 L187.0 89.6 L187.0 90.6 L186.7 91.7 L186.4 91.9 L186.1 91.8 L185.9 91.7 L185.8 91.7 L185.4 91.7 L185.0 91.9 L184.6 92.1 L184.3 92.5 L183.4 94.0 L183.3 94.3 L183.3 94.7 L183.6 95.3 L183.7 95.7 L183.7 96.2 L183.1 97.6 L182.9 98.0 L182.4 98.3 L181.9 98.3 L181.5 98.4 L181.2 99.0 L181.3 99.5 L181.7 99.7 L182.2 99.9 L182.3 100.3 L182.1 100.7 L181.7 100.7 L181.4 100.7 L181.3 101.4 L181.4 101.8 L182.2 103.2 L182.4 103.6 L182.6 104.5 L182.9 104.9 L183.1 105.1 L183.6 105.4 L183.7 105.6 L183.8 105.8 L183.9 106.5 L184.3 107.6 L184.5 108.2 L184.9 108.4 L185.2 108.5 L185.3 108.6 L185.2 108.8 L184.9 109.1 L184.7 109.3 L184.8 109.5 L184.9 109.7 L185.0 110.0 L185.7 114.3 L186.0 115.4 L186.6 116.2 L187.5 116.4 L187.6 115.5 L187.1 113.3 L187.1 112.1 L187.3 111.5 L187.6 111.1 L188.2 111.1 L188.7 111.5 L189.0 112.0 L189.3 112.4 L189.3 112.3 L189.4 112.2 L189.4 112.1 L189.5 112.3 L189.5 112.5 L189.5 112.7 L189.5 112.8 L189.9 113.2 L190.0 113.2 L190.2 114.0 L190.3 114.3 L190.9 116.2 L191.0 116.9 L191.1 117.0 L191.4 117.0 L191.4 117.1 L191.5 117.9 L191.6 118.2 L191.9 118.5 L192.3 118.7 L192.6 118.7 L193.0 118.9 L193.2 119.2 L193.2 119.4 L193.2 119.5 L193.7 119.3 L193.8 119.1 L193.9 118.9 L194.0 118.6 L194.3 118.5 L194.5 118.6 L194.7 118.6 L194.8 118.7 L195.0 118.6 L195.4 118.5 L196.1 118.4 L196.4 118.2 L196.6 118.0 L197.1 117.6 L197.3 117.4 L197.7 116.8 L197.7 116.7 L197.7 116.5 L197.7 116.4 L197.9 116.3 L198.0 116.3 L198.2 116.3 L198.3 116.3 L198.7 115.9 L198.8 115.7 L198.7 115.4 L198.4 114.6 L198.0 112.7 L197.6 111.9 L197.4 110.8 L197.9 109.5 L198.7 108.3 L199.4 107.4 L199.8 107.1 L201.3 106.5 L201.7 106.2 L202.0 105.9 L202.6 104.9 L202.7 103.9 L202.0 100.8 L201.9 99.8 L202.0 99.2 L202.2 98.9 L202.5 98.9 L202.9 99.2 L203.2 99.7 L204.3 100.9 L204.7 101.1 L205.3 100.9 L205.8 100.6 L206.7 99.5 L207.1 99.0 L208.2 98.7 L208.7 99.4 L209.0 100.4 L209.4 100.9 L209.8 100.5 L210.1 99.3 L210.5 99.1 L211.1 99.3 L211.1 99.4 L211.1 99.9 L210.8 101.0 L210.9 101.9 L211.9 104.9 L212.1 106.2 L212.2 106.6 L212.3 106.8 L212.7 107.1 L212.8 107.4 L212.9 107.6 L212.8 107.9 L212.9 108.1 L213.0 108.3 L213.4 108.5 L213.4 108.7 L213.5 108.9 L213.4 109.4 L213.4 109.7 L213.5 110.1 L213.7 110.4 L213.7 110.7 L213.5 111.1 L213.0 112.1 L212.9 112.5 L212.9 113.5 L213.6 117.3 L213.5 119.1 L213.7 120.0 L214.2 120.7 L215.1 121.0 L215.5 121.5 L215.7 123.5 L215.9 124.3 L216.2 124.7 L217.0 125.3 L217.2 125.7 L217.4 126.1 L217.5 128.2 L217.5 129.7 L217.6 130.1 L217.9 131.0 L218.0 131.4 L219.5 140.1 L219.5 140.8 L219.2 140.9 L218.8 140.9 L218.5 141.2 L219.1 142.9 L219.4 144.7 L219.5 144.9 L219.5 145.2 Z M202.5 150.9 L202.6 152.1 L203.5 153.9 L203.8 154.9 L203.7 155.5 L203.5 156.6 L203.4 157.2 L203.2 157.7 L202.6 157.7 L201.9 157.6 L201.4 157.6 L201.4 157.8 L201.5 158.0 L201.5 158.2 L201.2 158.3 L201.0 158.3 L200.7 158.2 L200.6 158.0 L200.5 157.5 L200.4 157.3 L200.4 157.1 L200.8 156.6 L200.9 156.3 L200.9 155.6 L200.7 154.6 L200.2 152.8 L200.3 151.8 L200.6 151.3 L200.8 151.1 L201.1 151.1 L201.5 151.4 L201.6 151.7 L201.5 152.1 L201.3 152.5 L201.2 152.9 L201.6 152.4 L201.8 151.8 L201.8 151.1 L201.6 150.5 L202.1 150.5 L202.5 150.4 L202.5 150.8 L202.5 150.9 Z M181.6 135.1 L181.8 135.8 L182.2 136.1 L182.5 137.0 L182.5 137.7 L182.7 138.5 L182.2 139.3 L182.0 139.7 L181.8 140.1 L181.4 140.7 L180.9 141.1 L180.5 141.3 L180.2 141.4 L179.9 141.9 L179.4 142.2 L178.7 142.1 L178.3 142.0 L178.0 141.9 L177.8 141.5 L178.6 140.6 L179.1 139.9 L179.3 139.5 L179.5 138.2 L179.5 136.3 L179.7 134.3 L180.1 134.2 L181.1 134.6 L181.6 135.1 Z M190.1 129.0 L192.4 131.9 L192.6 133.0 L192.4 133.9 L191.2 134.0 L190.3 133.6 L189.5 132.5 L189.1 131.5 L188.9 130.6 L189.5 129.3 L190.1 129.0 Z M172.1 131.4 L173.3 132.4 L173.9 133.0 L173.3 135.6 L173.4 139.8 L173.1 140.5 L171.7 142.6 L171.3 142.9 L171.2 142.8 L171.1 142.6 L170.5 143.1 L170.2 143.3 L169.5 144.4 L169.3 144.5 L169.0 144.6 L168.6 144.8 L168.4 144.7 L168.1 144.1 L168.5 143.4 L168.9 142.6 L169.3 141.8 L167.8 143.8 L167.4 143.9 L167.2 143.4 L167.3 142.6 L167.6 141.9 L168.0 141.3 L167.7 140.7 L167.9 139.7 L169.0 137.5 L169.2 137.1 L169.3 136.6 L169.3 135.0 L169.4 134.6 L169.2 133.8 L169.2 133.3 L169.3 132.9 L169.3 132.8 L169.0 132.3 L168.7 130.7 L168.4 130.0 L167.9 129.7 L166.4 128.7 L166.0 128.6 L165.9 127.6 L165.9 126.7 L166.5 124.5 L166.7 124.2 L167.0 124.0 L167.5 123.8 L167.9 123.7 L168.4 123.7 L168.7 124.5 L169.0 125.4 L169.3 126.2 L169.8 127.0 L170.2 127.6 L170.6 128.1 L171.0 128.7 L171.2 130.0 L171.5 130.8 L172.1 131.4 Z M168.3 122.1 L168.8 122.6 L169.2 123.1 L168.7 123.2 L167.8 123.0 L166.9 123.0 L166.1 123.7 L165.7 123.8 L165.3 124.2 L165.2 124.8 L165.4 125.2 L165.0 125.7 L164.7 125.4 L164.4 125.1 L164.4 124.9 L164.3 124.6 L164.0 124.4 L163.3 124.2 L163.5 123.9 L163.5 123.7 L163.5 122.9 L163.5 122.5 L163.5 122.0 L163.7 121.6 L164.1 121.5 L165.0 121.6 L165.4 121.6 L165.6 121.2 L165.8 121.2 L166.9 121.2 L167.3 121.3 L167.8 121.8 L168.3 122.1 Z" fill="#172033" fill-rule="evenodd"/></svg>
