<svg xmlns="http://www.w3.org/2000/svg" viewBox="0 0 320 200" role="img"><path d="M197.9 145.0 L196.2 145.1 L195.3 144.9 L194.7 144.6 L193.5 143.5 L193.2 143.4 L192.5 143.3 L191.6 144.0 L189.1 144.1 L188.0 144.3 L186.8 145.1 L186.4 145.2 L186.1 145.2 L185.9 145.2 L185.6 145.5 L185.3 146.0 L185.3 146.7 L185.4 147.3 L185.6 147.8 L185.8 148.0 L186.1 148.4 L186.8 148.6 L187.4 148.7 L187.9 148.9 L188.3 149.2 L188.5 149.6 L188.9 150.7 L189.0 151.1 L188.9 151.8 L189.0 152.1 L189.2 152.2 L189.9 152.3 L190.2 152.5 L190.4 153.1 L190.4 153.6 L190.4 154.1 L190.2 154.7 L189.7 155.1 L189.6 155.4 L190.1 156.1 L190.3 156.3 L190.9 156.8 L191.0 157.0 L190.9 157.4 L190.7 157.5 L190.4 157.6 L190.2 157.8 L189.7 158.9 L189.0 160.1 L188.5 160.7 L188.2 160.8 L187.9 160.7 L184.1 161.4 L183.6 161.6 L182.4 162.2 L181.4 162.5 L180.9 162.6 L180.3 162.5 L179.7 162.5 L178.6 162.9 L178.0 163.0 L177.1 162.8 L175.8 161.7 L174.9 161.4 L174.4 161.5 L172.8 162.4 L171.2 162.5 L170.7 162.6 L170.2 162.9 L169.9 163.1 L169.6 163.3 L169.1 163.3 L168.7 163.2 L167.7 162.8 L167.3 162.7 L163.4 162.5 L162.8 162.7 L162.5 163.1 L162.2 163.6 L161.8 163.9 L161.4 164.1 L161.0 164.0 L160.7 164.0 L160.2 163.9 L159.1 164.1 L151.7 165.9 L150.7 165.9 L149.6 165.8 L148.8 165.4 L146.9 163.5 L146.0 162.9 L145.9 162.9 L144.2 162.3 L144.1 162.1 L143.7 161.7 L143.6 161.6 L143.4 161.6 L142.6 161.7 L135.4 159.4 L134.1 158.8 L133.5 158.7 L133.0 158.8 L132.1 159.0 L130.4 159.1 L130.3 159.7 L130.4 160.5 L130.0 161.1 L129.1 161.1 L128.2 160.4 L126.7 159.0 L125.8 158.4 L125.0 158.1 L124.1 158.0 L123.1 158.0 L123.4 157.6 L121.9 157.6 L121.3 157.5 L120.6 157.0 L120.6 156.8 L120.7 156.4 L120.6 156.1 L120.4 156.0 L120.0 155.8 L119.9 155.7 L119.6 155.4 L119.4 155.2 L119.2 155.0 L119.1 154.7 L118.9 153.4 L118.4 152.3 L117.5 151.7 L116.2 152.0 L115.2 152.2 L114.3 153.2 L113.7 153.3 L112.8 153.2 L112.1 153.2 L110.6 153.5 L110.2 153.6 L109.0 153.5 L108.6 153.5 L108.3 153.6 L108.0 153.7 L107.6 153.6 L107.6 153.4 L107.7 153.0 L107.6 152.6 L106.8 152.2 L106.0 151.6 L105.3 151.7 L104.4 151.9 L103.7 152.3 L103.6 152.3 L103.0 152.7 L102.8 153.0 L102.6 153.7 L102.5 153.9 L102.2 153.9 L102.0 153.7 L101.8 153.4 L101.4 153.2 L100.1 152.9 L98.4 152.8 L97.1 153.3 L97.2 154.7 L97.3 155.6 L97.3 156.0 L97.0 156.4 L96.5 156.5 L96.0 156.5 L95.0 156.0 L94.9 156.3 L94.6 156.4 L94.4 156.4 L94.2 156.6 L93.4 157.1 L92.8 157.1 L90.7 156.0 L90.3 156.0 L89.2 156.8 L88.4 157.1 L87.5 157.2 L86.6 157.3 L85.8 157.3 L85.2 157.5 L84.2 158.8 L83.4 158.9 L82.0 158.7 L80.5 158.7 L79.7 158.9 L78.6 159.7 L78.4 159.8 L77.9 160.1 L76.4 160.0 L73.5 158.9 L69.2 158.8 L68.3 159.0 L67.0 159.7 L66.2 160.1 L65.3 160.2 L64.8 159.8 L64.4 159.3 L63.6 158.9 L62.8 158.9 L61.8 159.3 L60.8 159.7 L60.1 160.2 L60.0 160.5 L59.9 161.3 L59.7 161.8 L59.3 162.1 L58.8 162.3 L57.8 162.5 L56.0 162.6 L47.2 161.6 L48.3 161.0 L48.4 160.2 L48.2 159.3 L48.1 158.3 L48.3 158.1 L48.8 157.6 L48.9 157.4 L48.8 157.1 L48.6 156.7 L48.5 156.4 L48.4 153.4 L48.4 152.7 L48.6 152.0 L48.6 151.7 L48.5 151.4 L48.1 150.9 L48.0 150.7 L47.9 150.1 L47.9 149.4 L48.1 148.8 L48.3 148.3 L48.5 148.2 L49.2 148.0 L49.4 147.9 L49.6 147.7 L49.9 147.0 L50.2 146.6 L50.8 145.9 L51.3 144.8 L51.3 143.8 L50.5 142.9 L50.0 142.7 L49.0 142.7 L48.5 142.5 L48.2 142.2 L47.3 140.5 L46.8 139.0 L46.5 138.5 L46.3 138.3 L45.8 138.1 L45.7 138.0 L45.6 138.0 L45.5 137.6 L45.5 137.0 L45.5 136.7 L45.0 135.6 L44.7 134.6 L44.6 133.6 L44.5 133.1 L44.1 132.6 L44.1 132.6 L44.1 132.0 L44.1 132.0 L44.0 131.7 L43.8 131.5 L43.3 131.2 L43.0 131.2 L42.3 131.4 L42.0 131.4 L41.7 131.2 L41.5 130.9 L41.4 130.6 L41.2 130.4 L40.8 130.4 L38.8 130.5 L38.5 130.4 L38.3 130.2 L38.1 130.0 L37.9 129.9 L36.6 129.7 L34.4 128.8 L34.0 128.7 L30.2 126.6 L29.3 126.0 L29.1 125.8 L28.6 125.1 L28.0 123.8 L26.3 122.9 L22.0 118.5 L22.8 118.2 L24.7 118.2 L25.5 118.0 L26.1 117.3 L26.8 115.7 L27.5 115.1 L28.2 114.8 L28.7 114.7 L29.2 114.5 L29.7 113.8 L30.3 112.2 L30.4 111.2 L30.3 110.6 L30.3 110.6 L29.9 109.9 L29.4 109.4 L28.0 108.7 L25.7 107.1 L25.5 107.1 L25.7 106.2 L26.2 104.4 L26.4 104.0 L26.6 102.9 L26.3 102.3 L27.4 100.7 L28.0 100.2 L28.1 100.1 L28.1 100.0 L28.1 99.8 L28.0 99.7 L27.4 99.3 L26.8 98.7 L25.7 96.8 L25.6 96.6 L25.6 96.5 L25.8 96.3 L26.0 96.0 L26.4 95.7 L27.6 95.3 L28.0 95.0 L28.7 94.2 L29.1 94.0 L29.7 94.0 L30.5 94.0 L30.8 93.9 L30.8 93.9 L31.0 93.6 L31.6 93.3 L32.8 93.2 L36.2 93.9 L37.5 93.6 L38.8 93.2 L39.4 92.8 L39.4 92.7 L39.7 92.2 L40.4 90.1 L40.7 89.5 L41.0 89.1 L41.5 88.9 L42.8 88.7 L43.3 88.5 L43.3 88.5 L43.3 88.5 L43.3 88.5 L43.9 87.9 L45.8 86.6 L46.0 86.3 L46.3 85.5 L46.5 85.2 L46.9 84.9 L47.7 84.7 L48.0 84.5 L48.9 83.5 L49.7 82.0 L50.2 80.5 L50.1 80.0 L50.1 79.5 L49.3 79.2 L47.2 78.9 L46.4 78.5 L45.8 78.1 L44.6 76.9 L43.5 76.1 L43.3 75.8 L43.1 75.5 L43.0 74.7 L42.8 74.3 L42.3 73.7 L39.1 71.4 L38.7 71.2 L38.5 71.1 L37.8 70.9 L37.4 70.8 L36.5 70.9 L36.1 70.7 L35.8 70.5 L35.7 70.5 L35.2 69.7 L34.9 69.4 L34.5 69.4 L33.5 69.4 L33.1 69.3 L32.7 69.1 L32.0 68.5 L31.7 68.2 L30.3 67.7 L29.7 67.3 L29.2 66.5 L28.4 64.4 L27.9 63.6 L27.8 63.4 L27.9 63.1 L28.0 62.9 L28.1 62.8 L28.1 62.7 L28.1 62.6 L28.0 62.5 L27.9 62.3 L27.8 62.2 L27.9 62.0 L28.0 61.8 L28.0 61.8 L28.0 61.8 L28.0 61.8 L28.0 61.7 L27.7 61.2 L27.6 60.2 L27.3 59.6 L26.9 59.3 L25.6 58.8 L25.0 58.4 L24.6 57.9 L24.3 57.4 L24.0 56.8 L23.8 56.2 L23.8 55.9 L24.0 55.1 L23.9 54.8 L22.8 53.8 L22.2 52.6 L22.4 51.6 L23.0 50.6 L23.4 49.3 L23.5 48.0 L23.6 47.7 L24.1 47.1 L24.2 46.9 L24.3 46.3 L24.3 45.0 L24.4 44.4 L24.9 43.8 L25.9 43.5 L27.3 43.4 L28.0 43.3 L29.0 43.3 L29.5 42.8 L29.8 42.2 L30.3 41.6 L31.2 41.4 L32.2 41.4 L32.9 41.3 L33.5 40.6 L33.4 40.2 L33.2 39.3 L33.1 38.9 L33.2 38.4 L33.7 37.1 L33.6 37.1 L33.5 36.9 L33.5 36.7 L33.5 36.4 L33.6 36.4 L34.3 35.8 L35.0 35.0 L35.4 34.7 L37.3 34.1 L46.8 38.7 L48.4 39.2 L50.4 39.4 L51.3 39.7 L52.3 40.0 L52.7 41.4 L51.9 42.7 L50.4 43.4 L49.4 43.5 L47.6 43.9 L46.7 44.0 L45.9 44.4 L45.4 45.4 L44.3 48.7 L44.3 49.7 L44.9 50.5 L46.0 51.2 L47.3 51.4 L53.2 51.1 L56.7 50.8 L58.0 50.4 L59.6 50.2 L61.2 49.5 L65.2 49.1 L72.3 49.4 L77.0 51.3 L78.3 51.5 L78.9 51.5 L82.7 50.9 L83.6 51.1 L86.2 52.1 L101.6 55.0 L102.0 55.0 L109.8 54.8 L110.8 54.7 L111.5 54.6 L114.0 53.2 L115.6 52.9 L117.0 53.0 L124.2 54.9 L126.1 55.4 L128.2 55.7 L137.5 55.2 L142.7 56.5 L148.4 56.8 L150.2 57.2 L151.7 57.8 L151.8 57.9 L153.3 58.7 L154.9 59.4 L156.9 59.6 L157.9 59.4 L159.7 58.8 L160.4 58.7 L160.6 58.7 L162.6 58.7 L163.6 58.7 L164.4 58.4 L165.3 58.2 L166.3 57.9 L167.2 57.5 L167.9 57.0 L168.7 56.6 L171.4 56.5 L171.7 56.5 L173.5 56.0 L174.6 54.7 L174.6 54.6 L176.1 53.5 L177.4 52.9 L179.5 51.0 L179.9 50.4 L180.3 49.9 L185.6 47.0 L185.9 46.4 L186.7 45.5 L188.3 44.2 L189.8 43.6 L193.4 42.9 L196.9 41.8 L197.8 41.7 L201.5 41.3 L210.3 40.4 L211.8 40.0 L212.6 39.9 L213.1 39.9 L213.9 39.5 L214.4 39.4 L216.4 39.4 L218.0 39.0 L222.2 37.2 L227.4 36.9 L228.5 36.3 L231.7 37.8 L236.3 38.4 L237.3 38.8 L238.4 38.7 L238.4 38.8 L239.1 39.2 L238.9 40.2 L239.9 40.9 L242.4 41.8 L242.9 42.1 L243.7 43.2 L244.2 43.5 L252.6 43.4 L255.2 42.8 L256.2 43.1 L257.1 44.4 L257.4 44.7 L259.1 46.4 L262.0 45.9 L265.1 44.6 L267.5 44.4 L267.5 44.4 L268.6 45.7 L270.5 50.8 L272.0 51.6 L281.1 54.6 L290.5 55.8 L296.9 55.5 L296.8 56.2 L296.7 61.5 L296.8 62.1 L297.2 62.8 L297.7 63.4 L298.0 63.9 L298.0 64.5 L297.6 65.6 L296.9 67.0 L296.1 68.2 L295.4 68.7 L295.0 68.9 L292.9 70.3 L292.5 70.7 L292.3 71.3 L292.3 72.1 L291.6 71.4 L289.7 70.6 L289.2 70.4 L288.8 70.0 L287.6 69.6 L285.6 69.3 L284.6 69.5 L282.9 70.1 L282.1 70.3 L279.2 70.2 L278.3 70.3 L276.6 71.0 L275.4 72.2 L275.2 72.6 L272.8 77.3 L272.2 78.0 L271.4 78.4 L268.4 79.0 L267.9 79.2 L267.6 79.3 L267.2 79.3 L267.2 79.6 L268.7 80.5 L269.0 80.8 L268.9 81.3 L268.1 83.2 L267.5 85.4 L267.2 85.8 L266.8 86.1 L266.4 86.4 L266.2 86.9 L266.3 87.9 L267.0 89.9 L267.2 90.8 L266.9 93.8 L267.2 94.4 L266.3 94.9 L266.2 95.6 L266.6 96.6 L266.8 97.8 L266.8 99.9 L266.7 100.7 L266.6 101.0 L264.4 101.1 L262.0 100.8 L260.1 100.8 L259.6 100.8 L259.3 101.1 L259.0 101.7 L258.9 102.2 L258.9 102.6 L259.2 102.9 L259.9 103.2 L258.7 103.3 L256.8 103.9 L255.8 104.1 L255.0 104.6 L255.1 105.8 L255.6 107.0 L256.0 107.7 L255.2 107.5 L251.1 107.4 L249.8 107.9 L249.3 108.9 L249.0 109.9 L248.5 111.0 L247.7 110.7 L247.3 111.2 L247.3 111.8 L247.8 112.2 L247.7 112.5 L247.6 112.8 L247.8 113.4 L247.9 113.1 L248.0 113.1 L248.0 113.1 L247.8 112.9 L248.1 112.0 L249.5 113.1 L250.0 113.1 L250.5 112.8 L250.9 112.3 L251.3 112.0 L252.1 112.6 L252.5 112.1 L252.8 112.2 L253.2 112.4 L253.5 112.6 L254.2 112.4 L254.6 112.2 L255.0 112.1 L255.7 112.2 L255.6 112.5 L255.6 112.5 L255.5 112.5 L255.4 112.6 L255.6 113.3 L256.0 113.9 L256.7 114.0 L257.8 113.4 L257.9 113.9 L258.1 114.1 L258.5 114.1 L259.0 114.0 L259.0 114.4 L258.7 114.4 L258.1 114.7 L258.4 115.1 L258.6 115.2 L259.0 115.3 L258.6 115.7 L258.5 116.3 L258.8 116.9 L259.3 117.4 L259.9 117.6 L260.5 117.5 L261.0 117.4 L261.7 117.4 L261.7 117.7 L261.4 117.9 L261.4 118.1 L261.6 118.4 L262.0 118.6 L260.9 119.3 L260.4 120.1 L260.6 120.9 L261.7 121.6 L261.5 121.7 L261.5 121.8 L261.4 121.9 L263.0 122.7 L263.2 123.0 L263.4 123.3 L263.9 123.7 L264.5 124.1 L265.0 124.3 L265.0 124.5 L264.8 124.8 L264.7 125.0 L266.1 125.5 L266.4 125.8 L267.2 127.1 L269.5 128.2 L269.8 128.6 L270.2 129.0 L270.8 129.2 L270.6 129.6 L270.8 130.1 L271.2 130.4 L271.7 130.7 L271.7 130.9 L271.7 130.9 L271.5 130.9 L271.4 131.0 L271.9 131.4 L272.2 132.0 L272.3 132.6 L272.0 133.1 L272.1 133.5 L270.5 133.3 L269.9 133.1 L267.7 133.3 L267.1 133.2 L266.0 132.7 L264.9 132.5 L264.5 132.5 L263.6 132.6 L263.4 132.6 L263.3 132.6 L263.1 132.6 L262.9 132.6 L262.8 133.1 L262.8 133.7 L262.7 134.1 L263.4 134.4 L263.2 134.7 L262.7 134.8 L262.1 134.9 L261.5 134.7 L259.2 133.8 L257.6 133.7 L254.2 134.4 L254.0 134.8 L253.9 135.0 L253.7 135.0 L253.3 134.9 L253.0 135.2 L252.5 135.4 L251.6 135.7 L251.6 135.8 L251.8 135.9 L251.9 135.9 L252.0 136.0 L251.9 136.1 L251.6 136.2 L251.5 136.3 L252.1 136.5 L251.4 136.7 L250.8 136.4 L249.8 135.3 L249.1 134.9 L245.8 133.5 L244.8 132.8 L243.8 132.0 L241.9 129.8 L240.7 128.9 L239.3 128.3 L237.8 128.0 L236.8 128.1 L236.3 128.5 L235.3 129.4 L235.2 129.6 L235.1 129.8 L235.0 129.8 L233.9 129.6 L232.9 129.6 L232.4 129.6 L231.7 129.2 L231.0 128.9 L230.2 128.7 L229.4 128.7 L229.3 128.7 L228.3 129.1 L227.3 130.4 L226.4 130.9 L225.8 131.1 L225.4 131.5 L225.1 132.1 L224.6 132.5 L224.2 132.6 L223.4 132.5 L222.9 132.6 L222.4 133.0 L222.0 133.0 L221.6 132.9 L221.1 132.9 L220.7 133.1 L220.1 133.4 L219.7 133.7 L219.3 133.9 L218.8 133.8 L218.0 133.2 L217.6 133.1 L217.1 133.2 L216.1 133.9 L215.7 134.1 L214.8 134.2 L210.7 133.7 L209.9 133.8 L209.2 134.2 L207.9 135.2 L207.6 135.4 L207.3 135.6 L207.1 135.8 L207.2 136.0 L207.7 136.3 L207.9 136.4 L207.8 136.7 L207.6 137.1 L207.6 137.3 L207.6 137.6 L207.5 137.9 L207.3 138.7 L207.0 139.5 L206.4 140.1 L204.3 140.6 L199.7 140.4 L197.9 141.6 L197.3 142.7 L197.1 143.6 L197.4 144.5 L197.9 145.0 Z" fill="#172033" fill-rule="evenodd"/></svg>
