<svg xmlns="http://www.w3.org/2000/svg" viewBox="0 0 320 200" role="img"><path d="M149.3 42.5 L158.8 50.0 L161.0 46.8 L164.3 44.5 L165.8 47.8 L167.2 53.0 L170.0 53.2 L167.8 55.7 L167.7 59.9 L163.2 60.9 L164.5 73.7 L164.0 93.1 L160.7 117.4 L158.7 122.3 L152.3 131.7 L152.3 131.8 L150.8 125.1 L148.3 117.8 L144.8 110.7 L140.4 104.5 L130.8 94.7 L129.2 88.6 L133.5 81.2 L134.7 78.0 L135.9 74.8 L134.6 66.5 L131.3 58.3 L127.5 52.4 L126.6 49.7 L126.8 46.1 L129.4 35.7 L131.0 33.1 L133.8 31.9 L133.9 31.9 L134.1 31.9 L138.8 32.0 L141.5 32.5 L145.1 34.0 L147.9 35.2 L147.9 35.2 L157.0 31.9 L158.5 32.8 L159.4 35.6 L161.0 37.6 L161.5 38.5 L162.0 39.5 L160.7 41.8 L158.7 42.3 L152.4 41.5 L149.3 42.5 Z M115.4 46.8 L117.7 47.6 L120.1 48.7 L120.1 52.5 L120.6 55.6 L121.0 58.9 L117.0 58.0 L112.7 58.2 L111.6 54.7 L112.0 50.2 L115.4 46.8 Z M160.3 23.9 L167.2 22.0 L172.2 24.4 L172.4 27.7 L172.4 31.0 L175.7 35.3 L178.5 36.4 L177.4 39.5 L176.2 40.7 L172.6 38.8 L171.7 35.7 L170.5 32.6 L167.4 31.9 L164.6 31.5 L162.7 32.2 L159.8 27.4 L160.3 23.9 Z M198.4 146.7 L200.2 147.0 L202.0 145.8 L204.2 144.7 L204.2 146.0 L203.7 148.0 L202.0 150.2 L200.3 152.2 L201.5 153.2 L203.1 154.8 L202.3 156.0 L199.6 155.4 L198.4 156.2 L196.6 157.8 L195.7 158.6 L196.7 161.5 L198.4 163.6 L198.8 165.0 L197.3 165.6 L196.4 167.0 L196.2 168.8 L197.4 169.6 L198.4 170.9 L197.0 172.1 L195.7 174.1 L194.6 176.0 L195.2 177.4 L194.5 178.0 L192.0 176.9 L190.3 174.5 L191.1 172.4 L192.8 168.9 L192.7 166.8 L192.7 163.8 L190.7 161.8 L190.9 159.9 L191.1 157.2 L192.0 154.3 L194.2 151.1 L197.1 147.9 L198.4 146.7 Z M198.7 139.9 L200.3 139.2 L201.9 139.4 L202.2 140.7 L199.8 141.6 L198.7 139.9 Z M205.1 156.1 L208.4 156.2 L207.7 158.3 L205.9 159.4 L204.9 158.2 L204.5 157.1 L205.1 156.1 Z M202.6 162.1 L204.0 162.2 L206.6 162.7 L207.7 163.8 L207.5 165.4 L206.6 166.6 L205.8 166.3 L204.7 166.0 L203.1 166.3 L202.0 166.8 L201.0 165.0 L201.5 163.9 L200.8 162.9 L201.2 162.0 L202.6 162.1 Z" fill="#172033" fill-rule="evenodd"/></svg>
