<svg xmlns="http://www.w3.org/2000/svg" viewBox="0 0 320 200" role="img"><path d="M89.8 114.4 L89.8 114.4 L89.9 113.5 L89.8 113.1 L89.7 112.8 L89.5 112.5 L89.3 112.3 L88.8 111.9 L88.6 111.9 L88.0 111.8 L88.0 111.8 L88.2 111.5 L88.4 110.8 L88.5 110.6 L88.6 110.6 L88.8 110.5 L88.8 110.5 L89.5 110.0 L89.8 109.7 L90.2 109.6 L90.5 109.5 L90.8 109.4 L91.1 109.1 L91.1 109.0 L91.1 108.9 L91.0 108.8 L90.9 108.8 L91.0 108.7 L91.1 108.6 L91.6 108.3 L91.7 108.1 L92.0 107.5 L93.2 106.3 L93.4 106.0 L93.6 105.4 L93.7 105.2 L93.9 105.1 L94.3 105.0 L94.5 105.0 L95.2 104.6 L95.4 104.5 L95.6 104.3 L95.8 104.1 L95.5 103.7 L95.4 103.5 L95.4 103.1 L95.4 102.4 L95.4 102.2 L95.5 102.0 L95.8 101.6 L96.2 101.4 L97.6 100.9 L97.8 100.5 L97.7 100.2 L97.4 100.0 L96.8 99.7 L96.3 99.2 L96.1 99.1 L95.7 99.2 L95.4 99.1 L95.2 99.1 L95.1 99.1 L94.9 99.3 L94.7 99.3 L94.4 99.3 L94.2 99.2 L93.9 99.1 L93.7 98.9 L93.3 98.4 L93.0 97.8 L92.5 96.5 L92.0 95.3 L91.5 94.1 L91.0 92.9 L90.9 92.5 L90.8 92.2 L90.9 91.8 L91.7 90.7 L91.7 90.5 L91.8 90.2 L91.8 90.0 L92.0 89.8 L92.1 89.7 L92.4 89.6 L92.5 89.6 L92.5 89.5 L92.4 89.1 L92.4 88.9 L92.6 88.7 L92.8 88.5 L93.2 88.4 L93.4 87.9 L93.6 87.9 L93.9 87.9 L94.1 87.8 L94.1 87.5 L93.8 87.3 L93.5 86.9 L93.4 86.7 L92.7 86.2 L92.5 86.0 L91.8 85.0 L91.6 84.8 L91.3 84.6 L91.3 84.4 L91.3 84.2 L91.5 83.7 L91.5 83.6 L91.5 82.7 L91.5 82.4 L91.6 82.3 L91.9 82.1 L92.5 82.0 L92.7 81.8 L92.9 81.5 L92.9 80.0 L93.1 79.8 L93.3 79.7 L93.6 79.8 L93.9 79.8 L93.9 79.7 L93.9 79.1 L93.9 78.9 L94.0 78.9 L94.2 78.8 L94.3 78.8 L94.7 78.3 L95.0 78.1 L95.7 77.7 L96.0 77.5 L95.9 77.2 L95.8 77.0 L95.7 76.8 L95.7 76.3 L95.7 76.1 L95.7 75.9 L96.0 75.7 L96.4 75.6 L97.2 75.5 L97.5 75.2 L97.4 74.8 L97.1 74.0 L97.0 73.6 L97.0 73.5 L96.9 73.3 L96.2 72.9 L96.1 72.7 L96.0 72.3 L96.0 71.9 L95.9 71.5 L95.7 71.2 L95.6 70.7 L95.6 70.5 L95.6 70.3 L95.7 70.2 L95.7 70.1 L95.5 69.9 L94.9 69.4 L94.7 69.1 L94.8 68.8 L95.0 68.8 L95.3 68.8 L95.5 68.8 L95.6 68.7 L95.6 68.5 L95.6 68.4 L95.6 68.2 L95.7 68.1 L95.9 67.8 L96.0 67.7 L96.1 67.4 L96.2 67.1 L96.2 66.8 L96.3 64.5 L96.1 63.6 L96.1 63.1 L96.2 61.7 L96.2 61.6 L96.0 60.4 L96.0 59.9 L96.1 59.6 L96.5 59.3 L96.6 59.1 L96.7 58.8 L97.0 58.9 L97.1 58.5 L97.3 58.3 L97.6 58.1 L98.5 57.9 L98.6 57.8 L98.9 57.2 L98.8 57.1 L98.4 57.0 L98.3 56.9 L98.3 56.7 L98.4 56.5 L98.6 56.4 L98.9 56.2 L99.1 56.1 L99.2 55.9 L99.3 55.7 L99.4 55.5 L99.5 55.4 L99.6 55.3 L99.5 55.2 L99.2 54.7 L98.0 52.6 L96.8 50.4 L95.5 48.3 L94.3 46.2 L93.1 44.0 L91.8 41.9 L90.6 39.7 L89.4 37.6 L89.3 37.5 L89.3 37.5 L89.3 37.4 L89.2 37.3 L89.2 37.2 L89.1 37.2 L89.1 37.1 L89.0 37.0 L89.9 37.1 L90.4 37.0 L91.2 36.8 L91.6 36.9 L92.0 37.0 L92.4 37.1 L93.1 37.0 L94.0 37.1 L94.4 37.2 L94.8 37.2 L95.0 37.2 L95.9 37.6 L96.0 37.6 L96.1 37.6 L96.1 37.6 L96.4 37.6 L96.9 37.7 L97.2 37.8 L97.5 37.7 L97.9 37.6 L98.2 37.5 L98.5 37.6 L98.7 37.7 L98.5 38.0 L98.4 38.3 L98.3 38.6 L98.4 39.1 L98.4 39.2 L98.5 39.2 L98.7 39.2 L100.4 38.9 L100.7 38.7 L101.3 38.3 L101.8 38.1 L102.0 38.1 L102.2 38.1 L102.4 38.1 L102.6 38.1 L103.0 37.8 L103.2 37.6 L103.8 37.6 L104.0 37.5 L104.2 37.3 L104.4 37.1 L104.6 36.9 L104.8 36.6 L105.1 35.9 L105.3 35.7 L105.9 35.0 L106.3 34.2 L106.5 34.0 L106.8 33.8 L107.2 33.7 L107.3 33.6 L107.5 33.6 L107.9 33.6 L109.3 33.6 L109.5 33.6 L109.6 33.6 L109.9 33.8 L110.3 34.1 L110.6 34.2 L111.0 34.1 L111.1 33.8 L111.3 33.3 L111.4 33.0 L111.5 32.9 L111.9 32.6 L112.0 32.4 L112.3 32.0 L112.4 31.9 L112.6 31.7 L112.8 31.6 L113.2 31.4 L113.7 31.3 L113.9 31.1 L114.2 30.9 L114.3 30.7 L114.4 30.6 L114.4 30.5 L114.4 30.4 L114.5 30.3 L114.6 30.2 L115.2 30.2 L115.3 30.2 L115.4 30.2 L115.5 30.1 L115.5 30.0 L115.5 29.7 L115.5 29.6 L115.7 29.5 L115.9 29.5 L116.4 29.5 L116.6 29.5 L117.1 29.6 L117.3 29.6 L117.4 29.6 L117.5 29.4 L117.6 29.3 L117.7 29.2 L117.8 29.1 L118.0 29.1 L118.2 29.1 L118.7 28.8 L120.6 26.9 L122.2 25.7 L122.4 25.6 L123.4 25.2 L123.5 25.1 L123.5 25.0 L123.6 24.9 L123.6 24.8 L123.7 24.7 L123.8 24.6 L125.2 24.4 L125.9 24.5 L126.2 24.4 L126.4 24.4 L126.9 24.1 L127.1 24.0 L128.2 23.8 L128.5 23.8 L128.8 23.5 L129.0 23.4 L129.7 23.4 L129.7 23.4 L129.8 23.4 L129.8 23.5 L129.9 23.5 L129.9 23.4 L130.0 23.3 L130.1 23.3 L130.2 23.2 L130.3 23.2 L130.5 23.3 L130.8 23.5 L130.9 23.5 L131.2 23.5 L131.7 23.1 L131.9 23.1 L132.1 23.1 L132.3 23.1 L132.8 23.2 L132.9 23.2 L133.0 23.1 L133.2 22.9 L133.3 23.0 L133.3 23.1 L133.4 23.2 L133.4 23.3 L133.6 23.2 L133.6 23.1 L133.6 23.0 L133.6 22.9 L133.7 22.7 L133.8 22.6 L133.8 22.8 L133.9 22.9 L133.9 23.0 L134.0 23.1 L134.1 23.1 L134.5 22.9 L134.7 22.9 L134.7 23.2 L134.6 23.3 L134.7 23.4 L134.8 23.3 L134.8 23.4 L134.9 23.3 L135.0 23.3 L135.1 23.3 L135.1 23.3 L135.2 23.5 L135.3 23.5 L135.7 23.7 L135.8 23.8 L136.0 23.9 L136.2 23.9 L136.2 23.8 L136.3 23.7 L136.3 23.6 L136.3 23.6 L136.3 23.5 L136.4 23.4 L136.4 23.4 L136.6 23.4 L136.6 23.4 L136.8 23.2 L136.9 23.0 L136.9 22.9 L137.0 22.7 L137.0 22.6 L137.6 22.2 L137.7 22.0 L137.9 22.0 L138.2 22.0 L138.4 22.1 L138.7 22.4 L138.9 22.7 L138.9 22.8 L139.1 23.3 L139.2 23.4 L139.3 23.6 L139.5 23.7 L139.5 23.9 L139.5 24.2 L139.2 24.7 L139.1 24.9 L139.1 25.4 L139.1 25.9 L139.3 26.3 L139.5 26.9 L139.5 27.2 L139.5 27.7 L139.6 27.8 L139.7 28.1 L139.7 28.2 L139.7 28.3 L139.5 28.6 L139.4 29.2 L139.2 29.5 L138.8 29.7 L138.6 29.9 L138.5 30.2 L138.4 30.4 L138.4 30.4 L138.4 30.5 L138.5 30.5 L138.5 30.6 L138.2 31.1 L138.1 31.2 L137.8 31.3 L137.8 31.4 L137.9 31.6 L137.9 31.7 L137.9 31.7 L137.9 31.8 L137.9 31.9 L137.9 32.0 L137.9 32.1 L137.9 32.2 L138.0 32.3 L138.0 32.4 L137.9 33.0 L137.9 33.2 L138.1 33.4 L138.3 33.5 L138.5 33.7 L138.6 34.0 L138.6 34.2 L138.5 34.7 L138.3 35.2 L138.4 35.4 L138.8 35.5 L139.0 35.6 L139.2 35.8 L139.3 36.0 L139.4 37.0 L139.4 37.1 L139.5 37.1 L139.5 37.2 L139.5 37.4 L139.5 37.5 L139.4 37.5 L139.3 37.6 L139.2 37.7 L139.0 38.0 L139.0 38.2 L139.1 38.4 L139.1 38.6 L139.1 38.8 L138.6 39.2 L138.4 39.4 L138.4 39.7 L138.5 39.9 L138.7 40.0 L138.8 40.2 L138.8 40.3 L138.6 40.4 L138.5 40.6 L138.5 40.9 L138.7 41.1 L138.9 41.2 L139.1 41.4 L139.2 41.5 L139.2 41.6 L139.0 41.8 L138.9 42.0 L138.9 42.1 L138.9 42.2 L139.3 43.2 L139.6 43.5 L140.0 43.4 L140.3 43.6 L140.4 43.7 L140.5 43.8 L140.5 44.0 L140.4 44.2 L140.4 44.3 L140.5 44.5 L140.5 44.5 L140.6 44.5 L140.8 44.6 L141.0 44.7 L141.1 44.8 L140.8 44.9 L140.8 45.0 L140.8 45.3 L140.8 45.5 L140.7 45.6 L140.7 45.7 L140.7 46.2 L140.8 46.3 L140.9 46.5 L141.1 46.7 L141.3 46.7 L141.4 46.6 L141.4 46.0 L141.5 45.9 L141.6 45.8 L141.7 45.7 L141.8 45.8 L141.7 46.1 L141.9 46.3 L142.1 46.4 L142.3 46.5 L142.4 46.9 L142.6 47.1 L142.6 47.2 L142.6 47.4 L142.6 47.6 L142.6 47.7 L142.7 48.0 L142.7 48.1 L142.9 48.1 L142.9 48.1 L143.0 48.2 L143.1 48.3 L143.1 48.5 L143.1 48.6 L142.9 48.8 L142.9 49.0 L143.0 49.2 L143.1 49.3 L143.3 49.4 L143.5 49.5 L144.0 49.5 L144.2 49.5 L144.5 49.6 L144.7 49.7 L145.0 49.6 L145.1 49.6 L145.3 49.7 L145.5 49.8 L145.6 49.9 L145.7 50.2 L145.8 50.4 L146.2 50.8 L146.1 51.0 L146.2 51.1 L146.3 51.2 L146.4 51.1 L146.5 51.0 L146.5 50.7 L146.5 50.6 L146.7 50.6 L146.8 50.7 L146.8 50.9 L146.8 51.0 L146.8 51.1 L146.7 51.2 L146.8 51.3 L146.9 51.4 L146.9 51.4 L147.0 51.5 L147.3 51.7 L147.9 51.9 L148.0 52.0 L148.3 52.0 L148.4 52.0 L148.6 52.1 L148.8 52.2 L148.9 52.2 L148.9 52.2 L148.9 52.2 L149.0 52.2 L149.1 52.2 L149.3 52.4 L149.3 52.5 L149.4 52.6 L149.3 52.9 L149.3 53.1 L149.1 53.6 L149.1 53.8 L149.2 53.8 L149.4 53.9 L149.5 54.0 L149.6 54.1 L149.8 54.4 L149.9 54.5 L150.0 54.6 L150.2 54.8 L150.4 54.9 L150.7 54.9 L151.2 54.8 L151.4 54.9 L151.5 55.3 L151.6 55.3 L151.7 55.3 L151.8 55.2 L151.8 55.2 L152.0 55.0 L152.1 55.0 L152.3 55.0 L152.5 55.0 L152.7 55.1 L153.0 55.5 L153.2 55.5 L153.3 55.4 L153.5 55.2 L153.6 55.4 L154.4 55.4 L154.6 55.7 L154.8 55.7 L155.2 55.6 L155.4 55.6 L155.5 55.7 L155.6 55.8 L155.8 55.8 L156.0 55.7 L156.0 55.6 L156.1 55.5 L156.5 55.0 L156.5 54.9 L156.7 54.9 L157.1 54.8 L157.2 54.8 L158.9 55.0 L159.0 55.0 L159.6 55.4 L160.1 55.8 L160.3 55.9 L160.5 55.9 L160.7 55.9 L160.8 55.9 L160.9 56.0 L161.1 56.1 L161.1 56.2 L161.2 56.3 L161.2 56.4 L161.2 56.5 L161.3 56.6 L161.4 56.6 L161.5 56.7 L161.5 56.8 L161.6 56.9 L162.0 57.2 L162.3 57.3 L162.4 57.3 L162.8 57.6 L162.9 57.7 L163.8 57.7 L163.9 57.6 L163.9 57.5 L164.1 57.4 L164.3 57.3 L164.4 57.3 L164.5 57.3 L164.5 57.3 L164.6 57.2 L164.7 57.1 L164.7 57.0 L165.0 56.9 L165.1 56.9 L165.2 56.9 L165.4 57.0 L165.8 57.1 L165.9 57.2 L166.0 57.7 L166.0 57.7 L166.1 57.8 L166.2 57.9 L166.1 58.0 L166.1 58.1 L166.1 58.1 L166.1 58.2 L166.4 58.4 L166.5 58.6 L166.6 58.7 L166.6 58.9 L166.7 59.2 L166.8 59.3 L167.0 59.5 L167.1 59.5 L167.2 59.5 L167.3 59.5 L167.4 59.4 L167.5 59.4 L167.6 59.5 L167.6 59.6 L168.2 60.3 L168.3 60.4 L168.3 60.5 L168.5 60.5 L168.6 60.5 L168.7 60.5 L168.7 60.6 L168.7 60.7 L168.8 60.9 L169.0 61.1 L169.2 61.2 L169.4 61.3 L169.4 61.1 L169.5 61.0 L169.7 61.0 L170.0 61.0 L170.1 60.9 L170.2 60.8 L170.4 60.8 L170.6 60.9 L170.7 61.0 L170.8 61.1 L170.8 61.2 L170.9 61.5 L170.9 61.5 L171.9 62.0 L172.7 62.0 L172.9 62.0 L173.1 62.1 L173.4 62.5 L173.4 62.5 L173.4 62.7 L173.5 62.7 L173.6 62.7 L173.7 62.7 L173.9 62.8 L174.0 62.8 L174.5 62.9 L174.7 62.9 L174.8 62.8 L175.1 62.9 L175.3 62.8 L175.4 62.7 L175.9 62.6 L176.0 62.6 L176.1 62.6 L176.4 62.8 L176.4 62.6 L176.6 62.6 L176.8 62.9 L177.0 63.0 L177.1 62.9 L177.1 63.0 L177.2 63.1 L177.2 63.9 L177.2 64.1 L177.3 64.3 L177.6 64.5 L178.1 65.0 L178.3 65.1 L178.3 65.2 L178.4 65.4 L178.5 65.5 L178.8 65.6 L179.0 65.7 L179.5 66.3 L179.7 66.4 L179.9 66.5 L180.0 66.6 L180.0 66.7 L180.3 67.5 L180.4 67.6 L180.7 67.6 L180.9 67.6 L181.1 67.5 L181.4 67.4 L181.6 67.5 L181.8 67.4 L182.1 67.3 L182.4 67.2 L183.2 67.2 L183.3 67.2 L183.3 67.2 L183.7 67.5 L183.8 67.5 L184.3 67.7 L184.9 67.6 L185.4 67.4 L186.2 67.0 L186.4 67.0 L186.5 67.1 L187.0 67.2 L187.2 67.3 L187.4 67.4 L187.5 67.4 L187.7 67.3 L188.5 67.3 L188.6 67.3 L188.7 67.0 L188.9 66.9 L189.4 66.8 L189.4 66.8 L189.6 66.7 L189.7 66.7 L189.8 66.8 L189.8 67.3 L190.0 67.5 L190.5 67.6 L191.1 67.6 L191.5 67.7 L191.7 67.9 L191.8 68.0 L192.6 68.3 L193.5 69.0 L194.4 69.7 L194.8 69.9 L195.1 69.9 L195.1 70.0 L195.2 70.0 L195.2 70.2 L195.3 70.2 L195.4 70.3 L196.3 70.5 L196.5 70.6 L196.6 70.8 L196.6 71.1 L196.7 71.5 L196.8 71.8 L196.9 72.0 L197.0 72.1 L197.3 72.3 L197.3 72.4 L197.2 72.5 L197.3 72.6 L197.4 72.6 L197.5 72.7 L197.5 72.8 L197.5 72.9 L197.4 73.1 L197.3 73.6 L197.1 73.9 L196.9 74.1 L196.6 74.2 L196.6 74.2 L196.5 74.4 L196.5 74.6 L196.4 74.9 L196.5 75.1 L196.6 75.3 L196.6 75.6 L196.6 76.0 L196.6 76.3 L196.7 76.5 L197.4 77.0 L197.5 77.2 L197.6 77.9 L198.0 78.8 L198.1 79.3 L197.7 79.4 L197.9 79.8 L198.5 80.2 L198.6 80.4 L198.7 81.1 L198.7 82.1 L198.8 83.1 L198.8 84.0 L198.9 85.0 L198.9 85.8 L198.8 85.9 L197.5 85.9 L195.2 86.0 L195.8 86.5 L196.7 87.4 L197.9 88.9 L199.0 90.2 L199.2 90.4 L199.3 90.7 L199.4 92.5 L199.6 94.9 L199.8 96.6 L199.9 97.9 L200.0 99.2 L200.2 99.7 L200.6 99.8 L201.4 99.8 L203.6 99.9 L205.9 100.0 L208.1 100.1 L210.4 100.2 L212.6 100.2 L214.9 100.3 L217.1 100.4 L219.4 100.5 L220.2 100.5 L220.5 100.5 L220.7 100.4 L220.8 100.2 L221.0 99.9 L221.1 99.9 L221.6 99.9 L221.7 100.0 L221.7 101.2 L221.7 101.3 L221.4 101.5 L221.4 101.7 L221.6 102.2 L221.5 102.6 L220.3 103.9 L220.1 104.3 L220.0 104.7 L220.1 105.2 L220.3 106.1 L220.3 106.5 L220.3 106.6 L220.2 106.8 L220.2 106.9 L220.2 107.1 L220.3 107.7 L220.5 108.0 L220.6 108.2 L220.7 109.0 L220.7 109.2 L220.8 109.4 L220.9 109.7 L220.9 110.8 L221.0 111.2 L221.2 111.6 L221.6 111.8 L222.0 111.8 L222.1 111.9 L222.2 111.9 L222.5 112.1 L222.6 112.2 L222.7 112.2 L222.9 112.2 L223.0 112.3 L223.1 112.5 L223.3 112.9 L223.5 113.0 L223.6 113.0 L223.8 113.0 L223.9 113.1 L224.0 113.2 L224.4 113.5 L224.5 113.6 L224.9 113.8 L225.1 113.9 L225.6 114.3 L225.9 114.4 L226.4 114.5 L226.8 114.5 L227.1 114.4 L227.4 114.4 L227.6 114.4 L227.9 114.5 L228.0 114.7 L228.2 115.0 L228.2 115.2 L228.2 115.5 L228.2 115.7 L228.2 116.2 L228.2 116.4 L228.3 116.6 L228.4 116.8 L228.6 116.9 L228.8 117.0 L228.9 117.1 L228.8 117.5 L228.9 117.6 L229.1 117.8 L229.3 118.1 L229.2 118.3 L228.9 118.4 L230.0 120.2 L230.6 121.6 L231.0 122.4 L231.5 122.6 L231.7 122.6 L231.9 122.7 L232.0 122.8 L232.0 123.0 L231.2 123.0 L231.0 123.1 L230.8 123.2 L230.6 123.8 L230.1 125.5 L229.5 127.2 L229.0 128.9 L228.4 130.5 L228.3 130.9 L228.7 131.0 L228.9 131.1 L228.9 131.3 L229.0 132.0 L229.0 132.5 L228.4 132.6 L228.2 132.7 L227.9 133.2 L227.5 134.0 L226.7 135.6 L225.9 137.2 L225.6 137.9 L225.6 137.9 L225.6 137.9 L225.4 138.2 L225.1 138.8 L224.8 139.5 L224.6 139.8 L224.2 140.6 L224.3 140.9 L225.2 141.7 L226.2 142.5 L227.3 143.6 L227.2 143.7 L227.1 143.9 L226.9 144.1 L226.7 144.2 L226.4 144.1 L226.2 144.1 L226.1 144.2 L226.1 144.3 L226.0 144.4 L225.9 144.4 L225.7 144.5 L225.4 144.6 L225.1 145.1 L224.8 145.2 L224.7 145.2 L224.5 145.4 L224.5 145.5 L224.3 145.6 L223.8 145.8 L223.8 145.4 L224.0 144.8 L224.0 144.6 L224.0 144.1 L224.0 143.8 L224.0 143.4 L223.8 142.8 L223.8 142.4 L223.8 142.0 L223.8 141.8 L223.6 141.7 L223.2 141.4 L222.1 140.8 L221.0 140.1 L219.9 139.5 L218.8 138.8 L217.7 138.2 L216.6 137.6 L215.5 136.9 L214.4 136.3 L213.8 135.9 L213.4 135.7 L213.1 135.4 L212.8 135.4 L211.9 135.4 L209.7 135.4 L207.4 135.5 L205.2 135.5 L203.0 135.5 L202.0 135.5 L200.2 135.9 L196.2 136.7 L192.2 137.5 L188.3 138.3 L184.3 139.2 L184.0 139.2 L183.4 139.3 L182.9 139.4 L182.6 139.4 L181.6 139.6 L181.4 139.6 L181.3 139.8 L181.1 140.3 L180.7 141.2 L180.4 142.1 L180.1 142.9 L179.8 143.8 L179.6 144.1 L179.4 144.4 L179.4 144.6 L179.3 144.7 L179.1 145.0 L178.9 145.3 L178.7 145.6 L178.6 145.9 L178.4 146.2 L177.8 146.9 L177.3 147.6 L176.8 148.3 L176.2 149.0 L176.0 149.4 L175.7 149.7 L175.3 150.3 L175.2 150.6 L175.2 151.7 L175.2 152.8 L175.3 153.9 L175.3 155.6 L175.3 155.6 L175.2 156.4 L174.8 157.6 L174.5 158.8 L174.1 160.1 L173.6 161.5 L173.2 162.8 L172.7 164.5 L172.2 165.8 L171.7 167.4 L171.4 168.5 L171.1 169.6 L170.8 170.2 L170.7 170.1 L170.7 170.1 L170.7 170.0 L170.6 169.8 L170.5 169.7 L170.0 169.4 L169.4 169.1 L169.2 169.0 L169.1 168.7 L169.1 168.4 L169.1 168.2 L169.1 168.1 L169.1 168.0 L169.0 167.6 L169.0 167.5 L168.8 167.4 L168.3 167.3 L166.6 167.4 L166.6 167.4 L162.8 167.4 L159.1 167.4 L158.7 167.5 L158.5 167.6 L157.9 168.0 L157.8 167.9 L157.3 167.5 L157.1 167.4 L156.0 167.4 L155.7 167.4 L155.5 167.5 L155.5 167.5 L155.5 167.6 L155.3 167.9 L155.3 168.1 L155.3 168.2 L155.2 168.3 L155.1 168.3 L155.0 168.3 L154.9 168.4 L154.8 168.6 L154.6 169.2 L154.3 170.1 L154.2 170.2 L153.9 170.4 L153.9 170.5 L153.0 172.6 L152.7 173.0 L152.1 173.5 L151.9 173.8 L151.4 175.6 L151.4 176.4 L151.3 176.6 L151.0 177.6 L151.0 177.7 L150.8 177.6 L150.8 177.1 L150.6 176.9 L150.7 176.6 L150.7 176.3 L150.5 176.0 L150.3 175.9 L150.1 175.8 L149.8 175.2 L149.7 175.1 L149.6 175.1 L149.5 175.0 L149.5 174.8 L149.5 174.7 L149.6 174.5 L149.6 174.3 L149.6 174.2 L149.7 174.1 L149.8 174.0 L149.8 173.8 L149.2 173.2 L149.0 173.0 L148.9 172.7 L148.9 172.6 L148.7 172.5 L148.6 172.4 L148.6 172.3 L148.7 172.1 L148.7 172.0 L148.5 171.8 L148.3 171.7 L148.1 171.5 L148.2 171.2 L148.4 171.0 L148.5 170.9 L148.5 170.7 L148.4 170.4 L148.3 170.3 L148.0 169.9 L147.8 169.8 L147.6 169.8 L147.3 169.7 L147.1 169.5 L146.9 169.5 L146.8 169.5 L146.7 169.5 L146.5 169.6 L146.3 169.6 L145.9 169.5 L145.1 169.0 L142.8 168.5 L140.8 168.6 L137.7 168.6 L137.1 168.5 L136.2 168.4 L136.1 168.4 L136.1 168.5 L136.0 168.5 L135.9 168.6 L134.3 168.8 L133.9 168.6 L133.6 168.4 L132.1 166.8 L131.8 166.6 L130.7 166.4 L130.7 166.4 L130.5 165.8 L130.2 165.4 L129.6 165.2 L128.6 164.9 L128.4 165.0 L127.9 166.9 L127.8 168.0 L127.7 168.2 L127.6 168.3 L127.6 168.3 L127.6 168.3 L127.4 168.3 L127.3 168.4 L127.2 168.5 L127.2 168.6 L127.1 168.7 L126.8 168.9 L125.3 169.3 L123.9 169.7 L123.8 169.7 L123.8 169.8 L123.8 169.9 L123.7 169.9 L123.5 169.9 L123.3 169.8 L123.1 169.8 L123.0 169.8 L122.9 169.8 L122.6 170.1 L122.4 170.3 L122.3 170.6 L122.2 171.5 L122.1 171.7 L122.0 171.9 L121.9 172.0 L122.0 172.3 L122.0 172.5 L121.9 172.5 L120.5 172.9 L120.2 173.1 L120.0 173.3 L119.9 173.5 L119.7 173.6 L119.5 173.6 L119.3 173.6 L119.1 173.6 L119.2 174.7 L119.2 175.0 L119.0 175.1 L118.1 175.8 L117.8 176.2 L117.2 177.1 L113.4 177.9 L113.0 177.9 L112.2 178.0 L110.4 177.9 L110.0 177.8 L109.9 177.7 L109.6 177.3 L109.6 177.3 L109.1 177.2 L109.0 177.1 L108.9 176.8 L109.0 175.9 L109.3 174.1 L109.3 173.9 L109.0 173.2 L108.9 172.6 L108.8 172.4 L108.3 171.6 L108.2 171.4 L108.2 171.1 L108.4 170.4 L108.4 170.2 L108.3 169.9 L108.0 169.4 L107.9 169.3 L108.0 169.2 L108.1 169.0 L108.2 168.9 L108.1 168.6 L108.0 168.3 L107.8 168.1 L107.5 167.9 L107.0 167.4 L106.7 167.2 L106.6 167.0 L106.5 166.9 L106.4 164.9 L106.2 164.0 L105.4 162.8 L105.3 162.4 L105.4 159.5 L105.2 159.0 L102.8 155.1 L102.6 155.0 L102.3 154.9 L101.8 154.9 L101.6 154.9 L101.4 154.8 L101.1 154.6 L100.9 154.1 L100.9 152.6 L101.0 152.3 L101.2 152.1 L102.0 151.4 L102.0 151.2 L101.6 150.9 L101.3 150.8 L100.8 150.5 L99.6 149.9 L99.3 149.7 L99.1 149.5 L98.8 149.1 L98.6 148.8 L98.6 148.4 L98.7 148.1 L99.0 147.9 L99.7 147.7 L99.2 146.9 L99.1 146.5 L99.1 146.0 L99.1 145.7 L99.1 145.6 L98.7 145.5 L98.4 145.3 L98.3 145.1 L98.5 144.9 L100.0 144.4 L100.3 144.4 L100.5 144.4 L100.6 144.5 L100.7 144.5 L100.8 144.3 L100.9 144.2 L101.0 143.8 L101.0 143.6 L101.2 143.0 L101.3 142.9 L101.3 142.8 L101.2 142.7 L101.2 142.6 L101.1 142.2 L101.1 142.1 L101.0 142.0 L100.9 141.9 L100.6 141.7 L100.4 141.6 L100.0 141.2 L99.4 140.8 L99.3 140.7 L99.4 140.4 L99.5 140.2 L100.0 139.8 L100.2 139.6 L100.9 138.7 L101.4 137.9 L101.4 137.9 L101.6 137.6 L101.8 137.4 L102.3 137.2 L102.4 137.1 L102.3 136.9 L102.1 136.7 L101.8 136.5 L100.6 135.6 L100.2 135.4 L99.8 135.2 L99.4 134.5 L99.2 134.3 L98.0 133.3 L97.7 133.1 L97.1 132.9 L96.9 132.8 L96.8 132.6 L96.5 132.0 L96.3 131.6 L96.2 131.5 L96.0 131.4 L96.3 130.9 L96.4 130.7 L96.4 130.4 L96.4 130.3 L95.7 129.0 L95.7 129.0 L95.7 129.0 L95.7 129.0 L95.8 128.8 L95.9 128.7 L95.8 128.5 L95.7 128.3 L95.5 127.9 L95.4 127.3 L95.4 126.7 L95.5 126.1 L95.5 125.8 L95.4 125.6 L94.9 124.9 L94.9 124.7 L94.9 124.1 L94.9 124.0 L94.7 123.5 L94.7 123.4 L94.7 123.2 L94.7 123.0 L94.6 122.8 L94.2 122.4 L94.0 121.9 L94.4 121.5 L94.8 121.2 L94.9 120.7 L94.9 120.7 L94.8 120.5 L94.6 120.5 L94.5 120.6 L94.2 120.6 L94.0 120.5 L93.8 120.4 L93.5 120.2 L93.2 120.1 L93.1 120.1 L93.0 120.0 L92.8 119.8 L92.6 119.8 L92.4 119.9 L92.3 119.9 L92.1 119.6 L92.0 119.2 L92.0 118.3 L91.9 117.9 L91.6 117.4 L91.2 116.9 L90.3 116.1 L90.0 115.7 L89.9 115.3 L89.8 114.4 Z" fill="#172033" fill-rule="evenodd"/></svg>
