<svg xmlns="http://www.w3.org/2000/svg" viewBox="0 0 320 200" role="img"><path d="M165.4 55.2 L166.8 55.0 L168.3 55.1 L173.6 55.7 L175.4 55.4 L177.5 55.2 L179.9 54.0 L181.2 53.7 L182.6 54.0 L186.1 56.1 L188.4 56.6 L191.2 57.3 L196.3 57.5 L201.1 58.5 L205.3 61.6 L206.5 62.6 L209.3 63.9 L212.8 64.2 L216.1 63.5 L218.3 61.6 L218.4 61.6 L219.5 60.0 L223.0 56.4 L224.5 55.4 L226.7 55.0 L228.8 55.3 L230.7 55.2 L232.4 53.6 L234.0 56.5 L236.6 58.6 L242.9 61.6 L244.4 62.0 L245.2 62.3 L246.4 62.4 L249.4 62.5 L252.7 63.7 L256.1 64.1 L257.9 64.5 L259.6 65.2 L261.0 66.1 L262.2 68.0 L261.9 69.6 L260.9 71.2 L260.2 73.3 L254.9 73.4 L255.0 75.9 L258.3 76.7 L260.8 79.0 L260.7 82.0 L260.0 84.5 L256.2 89.3 L255.6 92.4 L257.4 98.4 L258.2 99.6 L260.5 101.3 L261.3 102.7 L262.6 104.0 L264.4 104.5 L266.5 104.8 L268.3 105.5 L268.3 105.5 L272.6 105.8 L275.6 105.4 L278.9 105.0 L282.5 105.6 L287.7 104.8 L288.7 104.5 L292.6 106.6 L297.7 118.3 L298.0 119.3 L297.4 120.7 L294.9 122.7 L293.7 123.9 L293.4 124.6 L293.2 126.2 L292.9 126.9 L292.5 127.6 L291.4 128.6 L291.2 128.9 L291.0 129.1 L290.4 130.3 L289.9 131.8 L289.7 133.3 L289.7 134.8 L290.7 137.5 L294.8 141.1 L296.2 143.7 L296.2 143.8 L297.6 148.5 L297.3 149.8 L296.7 152.6 L293.7 155.3 L288.7 155.9 L287.2 155.3 L284.6 153.3 L283.2 152.8 L281.9 153.1 L282.1 154.2 L282.1 155.4 L280.4 156.1 L281.3 157.2 L281.4 158.6 L280.7 159.5 L279.5 159.4 L278.6 158.2 L278.3 156.9 L277.9 155.7 L276.3 155.0 L273.9 155.4 L268.6 158.4 L266.2 159.5 L262.3 159.9 L261.0 159.8 L257.3 158.9 L255.8 158.9 L252.9 159.9 L251.3 160.0 L250.2 159.1 L248.3 155.4 L247.6 154.4 L246.4 154.1 L243.1 153.9 L241.9 154.1 L240.5 155.0 L239.6 156.2 L238.9 157.7 L238.0 159.3 L236.9 160.2 L235.7 161.0 L234.3 161.5 L232.9 161.9 L231.2 161.9 L230.1 161.5 L227.6 160.2 L224.8 159.6 L219.0 159.7 L216.1 159.4 L213.6 159.4 L209.6 161.0 L209.1 161.2 L204.0 161.5 L185.3 162.5 L174.7 161.4 L165.4 157.1 L157.8 152.2 L155.0 151.8 L153.4 152.3 L152.2 153.2 L151.1 154.2 L149.7 155.1 L148.2 155.5 L145.2 155.4 L143.7 155.5 L140.9 157.1 L138.9 162.1 L136.8 163.8 L133.7 164.6 L124.3 165.4 L119.1 166.6 L117.4 166.8 L116.5 166.6 L114.8 166.2 L114.7 166.2 L114.1 166.1 L113.8 165.9 L113.1 165.4 L112.8 165.4 L112.4 165.7 L112.2 166.1 L112.2 166.5 L112.1 166.7 L112.1 166.9 L112.0 167.4 L111.7 167.9 L111.3 168.3 L111.0 168.3 L110.3 168.0 L109.9 167.9 L106.7 168.0 L106.2 167.9 L104.9 167.7 L100.5 166.0 L98.7 165.9 L95.8 167.0 L94.3 167.0 L93.3 166.3 L94.6 164.0 L94.4 162.6 L92.3 161.1 L89.1 160.0 L85.7 159.5 L80.6 160.0 L77.7 158.7 L74.5 156.7 L72.3 155.3 L68.8 156.1 L67.7 156.1 L66.7 156.2 L65.8 156.8 L64.9 157.6 L64.0 158.1 L61.7 158.7 L59.4 158.9 L54.7 158.7 L52.1 158.0 L51.0 156.8 L50.3 155.1 L49.2 153.1 L47.9 151.8 L46.0 150.5 L43.9 149.7 L42.2 149.8 L41.4 150.3 L40.4 150.5 L39.5 150.4 L38.6 150.0 L38.0 149.1 L38.1 148.3 L38.2 147.5 L38.0 146.5 L36.5 144.9 L34.8 145.1 L33.3 146.3 L32.0 147.8 L31.5 143.8 L31.5 143.7 L31.5 139.3 L31.1 137.1 L30.0 135.3 L28.2 134.0 L23.0 131.6 L22.2 131.1 L22.0 130.9 L22.7 128.6 L24.0 125.9 L25.8 123.5 L27.8 122.3 L32.8 121.1 L34.0 120.3 L34.7 119.8 L35.3 117.4 L37.2 116.1 L40.1 116.4 L41.9 117.7 L43.9 116.1 L42.6 114.2 L41.2 111.0 L40.2 107.7 L40.7 105.8 L41.4 104.0 L42.8 102.8 L42.5 102.4 L42.1 101.7 L42.0 100.8 L42.4 99.8 L43.6 99.2 L44.6 98.2 L44.4 97.3 L45.5 96.0 L46.9 95.8 L47.4 94.5 L48.4 93.3 L49.4 92.7 L51.7 91.9 L52.6 92.1 L52.9 92.1 L53.2 92.2 L54.0 92.5 L54.4 92.8 L54.6 91.8 L57.0 88.6 L60.5 83.3 L62.0 80.0 L62.7 76.9 L65.4 75.3 L68.8 74.0 L71.8 71.9 L74.6 68.6 L78.5 62.1 L78.8 61.6 L78.8 61.6 L80.7 58.6 L81.9 57.2 L83.2 56.1 L84.9 55.6 L86.5 54.4 L90.3 50.1 L91.8 49.3 L93.3 48.8 L103.2 47.3 L106.3 46.0 L107.8 43.7 L108.3 42.4 L109.6 41.4 L112.4 39.9 L113.1 39.1 L114.4 37.5 L115.1 36.8 L116.0 36.5 L116.6 36.7 L119.5 35.2 L122.5 35.8 L124.0 35.0 L125.6 34.8 L132.2 32.8 L136.5 33.6 L138.9 34.7 L140.8 34.4 L142.7 32.5 L144.9 31.7 L147.9 33.6 L147.9 36.6 L150.3 39.7 L153.4 40.1 L155.4 36.6 L158.1 36.6 L160.6 37.9 L163.8 37.9 L167.9 40.6 L171.4 40.9 L174.7 42.0 L175.5 44.7 L173.0 45.5 L171.4 48.2 L168.7 48.5 L166.3 50.9 L165.4 55.2 Z" fill="#172033" fill-rule="evenodd"/></svg>
