<svg xmlns="http://www.w3.org/2000/svg" viewBox="0 0 320 200" role="img"><path d="M170.2 22.2 L169.5 23.7 L169.5 24.2 L169.6 24.6 L170.1 25.8 L170.8 26.9 L171.3 27.4 L171.9 27.7 L172.4 28.1 L172.8 28.8 L173.3 30.1 L173.9 30.9 L174.0 31.3 L174.1 32.0 L174.2 32.2 L174.5 32.6 L175.6 33.7 L176.2 34.1 L176.4 34.3 L177.2 35.4 L177.7 35.8 L178.4 36.2 L178.8 36.5 L179.0 37.1 L179.1 38.4 L179.7 39.7 L181.9 41.5 L182.3 42.9 L182.3 42.9 L182.3 43.2 L182.0 43.9 L181.9 44.2 L182.0 44.6 L182.1 45.0 L182.6 45.6 L183.1 46.3 L183.5 47.0 L185.1 51.4 L185.5 52.1 L186.2 52.5 L187.0 52.6 L187.9 52.7 L188.1 52.7 L188.2 52.9 L188.4 53.0 L188.5 53.2 L188.6 53.4 L188.5 53.7 L188.3 53.9 L188.2 54.0 L188.2 54.0 L188.4 54.1 L188.6 54.2 L189.1 54.3 L189.5 54.5 L189.9 55.2 L190.3 55.5 L190.6 55.6 L191.3 55.7 L191.6 55.9 L192.3 56.3 L192.6 56.6 L192.7 56.9 L192.8 57.3 L193.1 57.5 L193.4 57.6 L194.2 57.9 L194.4 58.0 L194.5 58.0 L194.6 58.2 L194.8 58.5 L195.1 58.7 L195.4 58.9 L195.7 59.0 L196.1 59.0 L196.8 59.1 L198.7 60.0 L199.3 60.1 L199.9 60.1 L200.5 60.2 L201.0 60.5 L201.2 60.6 L201.5 61.0 L201.7 61.2 L201.9 61.2 L202.0 61.2 L202.2 61.2 L202.4 61.2 L202.8 61.3 L203.1 61.4 L203.5 61.6 L203.7 61.9 L204.6 64.0 L204.9 66.0 L204.6 68.5 L205.2 68.2 L205.8 68.1 L207.8 68.1 L209.1 68.3 L210.1 68.1 L210.7 68.4 L211.4 68.4 L211.7 68.5 L212.0 68.7 L212.1 69.0 L212.0 69.7 L211.8 70.3 L211.7 70.9 L212.1 72.3 L212.1 72.9 L211.9 74.3 L211.8 74.5 L211.7 74.7 L211.6 74.8 L211.6 75.1 L211.6 75.2 L211.5 75.6 L211.5 75.8 L211.6 76.8 L211.6 77.1 L211.4 78.0 L211.4 78.3 L211.6 78.7 L212.1 79.4 L212.4 79.7 L213.6 80.5 L214.1 81.1 L214.5 81.7 L215.2 82.4 L215.3 82.7 L215.4 82.8 L215.3 83.1 L215.4 83.2 L215.5 83.4 L215.8 83.6 L216.3 84.6 L216.3 84.8 L216.3 84.9 L216.1 85.1 L216.1 85.3 L216.2 85.3 L216.3 85.4 L216.3 85.5 L216.3 85.7 L216.3 85.8 L216.4 85.9 L216.5 85.8 L216.6 85.9 L216.7 86.1 L216.9 86.4 L217.0 86.6 L217.2 86.8 L217.4 86.9 L217.7 87.0 L218.7 87.1 L220.0 87.3 L222.0 87.3 L222.6 87.4 L223.3 87.7 L224.7 88.3 L225.1 88.4 L225.4 88.4 L225.6 88.3 L226.2 88.1 L226.4 88.0 L226.6 88.0 L227.2 88.1 L227.7 88.2 L227.9 88.3 L228.6 88.8 L229.4 89.0 L231.9 90.1 L232.4 90.2 L233.4 90.3 L233.9 90.4 L234.2 90.6 L234.9 90.8 L235.2 91.0 L235.2 91.3 L235.0 91.7 L234.7 92.1 L234.6 92.5 L234.5 93.2 L234.6 93.9 L234.9 94.6 L235.5 95.1 L236.1 95.4 L236.7 95.5 L238.3 95.5 L238.4 95.5 L238.6 95.7 L238.7 95.9 L238.8 96.2 L238.9 96.4 L240.2 97.4 L239.9 97.5 L239.4 97.5 L238.5 97.3 L238.0 97.4 L237.7 97.6 L237.4 97.8 L237.1 97.9 L235.1 98.0 L234.9 98.1 L234.6 98.5 L234.6 98.6 L234.3 98.7 L234.0 99.1 L233.6 99.5 L233.7 100.7 L233.6 100.9 L233.4 101.1 L233.1 101.8 L232.7 102.0 L232.0 101.9 L231.6 101.9 L231.5 102.2 L231.4 102.5 L231.1 102.7 L230.8 102.8 L230.4 102.8 L229.6 103.0 L228.4 103.7 L227.8 103.9 L227.3 103.9 L227.0 103.8 L226.7 103.9 L226.3 104.2 L226.1 104.2 L225.0 104.0 L223.6 104.1 L222.9 104.2 L222.3 104.6 L222.0 104.8 L221.4 105.5 L221.2 105.5 L220.8 105.6 L220.6 105.6 L220.5 105.7 L219.9 106.4 L219.9 106.5 L219.8 106.8 L219.9 107.0 L219.9 107.1 L219.9 107.2 L219.8 107.5 L219.6 107.6 L219.4 107.6 L219.3 107.7 L219.1 107.8 L219.1 107.9 L219.0 108.1 L218.9 108.2 L218.6 108.3 L218.2 108.4 L217.9 108.6 L217.9 108.7 L218.0 109.1 L218.0 109.5 L217.8 109.8 L217.5 110.1 L217.3 110.2 L216.9 110.4 L216.6 110.5 L216.3 110.6 L216.1 110.7 L216.1 111.1 L216.2 111.9 L215.9 112.3 L215.3 112.7 L214.6 113.0 L214.0 113.1 L214.1 113.5 L213.8 113.6 L213.4 113.5 L213.3 113.5 L213.2 113.6 L213.3 113.8 L213.3 113.9 L213.4 114.0 L213.4 114.0 L213.5 114.1 L213.5 114.2 L213.4 114.2 L213.4 114.2 L213.3 114.3 L213.3 114.3 L213.0 115.0 L212.9 115.1 L212.7 115.3 L212.4 115.2 L212.0 114.7 L211.3 115.2 L211.1 115.3 L210.8 115.2 L210.6 115.1 L210.4 115.1 L210.3 115.5 L209.9 115.9 L209.9 116.1 L209.8 116.2 L209.8 116.3 L209.8 116.4 L209.7 116.4 L209.6 116.5 L209.7 116.6 L209.7 116.7 L209.7 116.8 L209.7 117.2 L209.4 117.5 L209.1 117.7 L208.7 117.8 L208.0 117.9 L207.7 118.0 L207.6 118.1 L207.4 118.3 L207.3 118.4 L207.0 118.3 L207.2 118.1 L207.0 118.0 L206.8 118.1 L206.6 118.2 L206.5 118.3 L206.4 118.5 L206.2 118.6 L206.0 118.1 L205.7 118.2 L205.3 118.8 L205.1 119.1 L204.8 119.3 L204.1 119.6 L203.5 119.8 L203.3 120.0 L203.5 120.3 L203.3 120.4 L203.2 120.4 L203.1 120.3 L202.9 120.2 L202.9 120.3 L202.8 120.4 L202.7 120.5 L202.6 120.4 L202.4 120.3 L202.2 120.3 L202.1 120.5 L202.2 120.7 L202.3 120.8 L202.4 120.9 L202.3 121.1 L202.1 121.0 L201.9 121.0 L201.8 121.1 L201.6 121.4 L201.8 121.4 L201.4 121.6 L201.3 121.7 L201.3 121.8 L201.2 121.8 L201.1 121.7 L201.1 122.0 L201.2 122.3 L201.2 122.6 L200.9 122.8 L200.6 122.8 L200.5 122.6 L200.4 122.4 L200.2 122.3 L200.1 122.4 L199.8 123.1 L199.4 123.7 L199.3 124.0 L199.4 124.2 L199.4 124.3 L198.9 125.1 L199.1 125.5 L199.0 125.9 L197.8 130.5 L197.8 131.2 L197.4 132.7 L197.2 133.0 L197.0 133.3 L196.6 133.4 L195.1 133.9 L194.7 134.1 L194.6 134.3 L193.6 135.3 L192.4 136.0 L192.0 136.3 L191.5 136.9 L191.0 138.1 L190.9 138.3 L189.8 139.3 L189.8 139.3 L189.4 139.3 L189.1 139.2 L188.8 139.2 L188.5 139.1 L187.6 139.2 L185.7 139.8 L183.1 140.5 L182.6 140.9 L182.3 141.0 L181.4 141.0 L180.8 141.2 L180.7 141.2 L180.6 141.3 L180.6 141.7 L180.8 143.0 L180.8 143.7 L180.6 144.2 L180.1 145.2 L180.1 145.9 L179.5 146.7 L179.2 147.9 L177.7 150.9 L177.1 153.1 L176.9 153.5 L176.2 155.2 L175.8 156.2 L173.6 157.8 L172.4 158.3 L168.8 158.7 L168.1 158.6 L167.3 158.3 L166.6 158.2 L166.0 158.3 L165.2 158.7 L164.2 159.4 L163.8 159.5 L162.8 159.7 L162.3 159.8 L161.8 159.7 L161.3 159.6 L160.0 159.7 L159.4 159.6 L158.5 159.0 L157.2 158.6 L156.4 158.3 L156.1 158.4 L155.8 158.5 L155.3 158.6 L154.4 158.5 L153.7 158.0 L152.5 156.7 L151.8 156.3 L150.9 156.3 L149.1 156.8 L148.7 156.8 L148.7 156.7 L148.8 156.6 L148.8 156.4 L148.6 156.3 L148.4 156.2 L148.2 156.2 L147.3 156.4 L147.0 156.2 L146.8 155.9 L146.0 155.3 L145.3 154.6 L145.2 154.5 L144.8 154.4 L144.7 154.3 L144.6 154.1 L144.4 153.8 L144.2 153.7 L143.3 153.4 L143.0 153.2 L142.9 153.0 L141.1 151.7 L140.7 151.5 L140.2 151.3 L140.0 151.2 L139.8 150.9 L139.5 150.6 L139.4 150.4 L139.1 150.4 L138.9 150.4 L138.3 150.6 L138.0 150.6 L137.8 150.6 L137.0 150.3 L136.1 150.1 L135.2 150.2 L134.4 150.4 L133.1 151.0 L132.9 151.1 L132.7 151.2 L132.6 151.1 L132.5 150.9 L132.4 150.8 L132.0 150.7 L131.6 150.9 L131.0 151.5 L130.9 151.7 L130.8 151.8 L130.8 152.0 L130.6 152.1 L130.3 152.2 L130.1 152.3 L130.0 152.4 L129.9 152.6 L129.6 153.3 L129.4 153.5 L129.0 153.7 L128.8 153.8 L128.5 154.9 L128.4 155.2 L128.3 155.3 L128.3 155.5 L128.4 155.6 L128.6 155.8 L128.6 156.0 L128.5 156.1 L128.3 156.3 L128.2 156.4 L128.3 156.6 L128.3 156.8 L128.3 157.0 L128.3 157.2 L128.2 157.4 L127.4 158.2 L127.2 158.5 L127.1 158.9 L127.1 159.1 L127.1 159.2 L127.2 159.2 L127.4 159.4 L127.5 159.7 L127.5 159.8 L127.3 160.0 L127.0 160.3 L126.7 160.6 L126.5 160.9 L126.7 161.2 L126.8 161.4 L126.8 161.8 L126.8 162.2 L126.7 162.5 L126.5 162.7 L126.4 162.8 L125.9 162.9 L125.7 163.1 L125.7 163.2 L125.8 163.4 L125.8 163.6 L125.1 164.6 L125.0 164.6 L124.8 164.8 L124.5 165.0 L124.3 165.2 L124.0 165.8 L123.7 166.3 L123.4 166.4 L122.6 166.2 L122.1 166.3 L121.7 166.6 L121.1 167.4 L120.2 168.2 L119.8 168.4 L119.6 168.4 L118.8 168.6 L118.6 168.7 L118.4 169.0 L117.8 169.6 L117.4 170.3 L116.9 171.6 L116.2 172.5 L115.4 173.3 L114.4 173.9 L113.3 174.1 L111.6 174.1 L111.1 174.2 L110.6 174.3 L110.4 174.5 L110.4 174.8 L110.6 175.6 L110.6 175.9 L110.5 176.2 L110.3 176.5 L110.0 176.8 L109.0 177.4 L108.6 177.5 L108.3 177.5 L107.3 177.3 L105.8 177.2 L105.0 176.9 L104.6 176.8 L103.8 176.8 L102.3 177.2 L102.1 177.2 L101.6 177.1 L101.4 177.1 L99.9 177.5 L99.4 177.5 L97.1 177.1 L96.4 176.7 L95.7 176.4 L94.7 176.5 L94.3 176.8 L93.5 177.3 L92.4 177.7 L92.0 178.0 L92.0 178.0 L91.9 177.8 L91.7 177.3 L91.5 177.1 L91.3 176.9 L91.2 176.8 L91.1 176.7 L90.8 176.2 L90.7 175.6 L90.6 175.0 L90.6 174.5 L90.9 173.3 L91.0 172.9 L90.9 172.7 L90.6 172.3 L90.5 172.1 L90.4 171.7 L90.5 171.2 L90.7 170.3 L90.8 170.0 L91.3 169.7 L91.5 169.4 L92.0 168.6 L93.0 167.5 L93.4 166.8 L93.7 166.2 L94.5 165.2 L94.5 165.0 L93.9 163.9 L93.8 163.6 L93.9 162.4 L93.7 160.9 L93.3 159.9 L93.3 159.8 L93.1 159.6 L93.0 159.6 L92.8 159.7 L92.6 159.8 L92.6 159.6 L92.8 159.3 L92.4 158.1 L92.2 157.8 L92.1 157.7 L91.6 157.5 L91.5 157.3 L91.5 157.2 L91.6 156.8 L91.6 156.6 L91.5 156.5 L91.3 156.5 L91.1 156.4 L91.1 156.2 L91.1 156.1 L91.5 155.9 L91.6 155.7 L91.5 155.3 L90.7 154.7 L90.8 154.2 L90.9 153.9 L91.4 153.6 L91.1 153.4 L91.0 153.4 L90.8 153.5 L90.7 153.6 L90.5 153.5 L90.5 153.3 L90.6 153.1 L90.6 153.0 L90.4 153.0 L90.3 152.7 L90.2 152.5 L89.7 152.3 L89.4 152.1 L89.3 152.0 L89.2 151.4 L89.1 151.3 L88.9 151.1 L88.9 151.0 L88.9 150.8 L88.9 150.7 L89.0 150.6 L89.0 150.5 L88.9 150.4 L88.6 150.2 L88.4 150.1 L88.4 150.0 L88.4 149.6 L88.0 149.4 L87.7 149.3 L87.6 149.0 L87.7 148.7 L87.7 148.5 L87.6 148.1 L87.1 147.5 L86.6 146.4 L86.4 146.2 L84.2 144.5 L82.9 143.8 L82.7 143.7 L82.3 143.7 L82.2 143.7 L82.0 143.6 L81.5 143.1 L80.6 142.4 L80.3 142.0 L80.0 141.8 L79.9 141.6 L79.8 141.4 L79.8 138.4 L79.8 135.5 L79.8 132.5 L79.8 129.6 L79.8 126.6 L79.8 126.2 L79.8 123.7 L79.8 120.8 L79.8 117.8 L79.8 116.6 L79.8 114.9 L79.8 111.9 L79.8 109.0 L79.8 106.0 L79.8 103.4 L79.8 100.9 L79.8 98.3 L79.8 95.7 L79.8 94.2 L83.8 94.2 L87.8 94.2 L91.8 94.2 L95.8 94.2 L96.8 94.2 L97.0 93.6 L97.0 92.9 L97.0 91.9 L97.0 90.9 L97.0 90.0 L97.0 89.0 L97.0 88.0 L97.0 87.0 L97.0 86.0 L97.0 85.0 L97.0 84.0 L97.0 83.0 L97.0 82.1 L96.9 81.1 L96.9 80.1 L96.9 79.1 L96.9 78.1 L96.9 77.1 L96.9 77.1 L96.9 75.0 L96.9 72.8 L96.9 70.7 L96.9 68.6 L96.9 66.4 L96.9 66.0 L96.9 64.3 L96.9 62.1 L96.9 60.0 L96.9 57.9 L96.9 55.7 L96.9 53.6 L96.9 51.4 L96.8 49.3 L96.8 47.2 L96.8 45.8 L96.8 45.0 L96.8 42.9 L96.8 42.2 L96.8 41.5 L96.8 40.8 L96.8 40.1 L96.8 39.4 L96.8 38.7 L96.8 38.0 L96.8 37.3 L96.8 36.6 L96.8 35.9 L96.8 35.2 L96.8 34.5 L96.8 33.8 L96.8 33.1 L96.8 32.4 L96.8 31.7 L96.8 31.2 L97.1 31.2 L97.7 31.2 L98.6 31.1 L99.6 31.1 L100.6 31.1 L101.5 31.0 L102.3 31.0 L103.1 31.0 L103.9 30.9 L104.8 30.9 L105.1 30.9 L105.4 30.9 L105.7 30.8 L106.0 30.8 L106.3 30.7 L106.6 30.6 L108.0 30.4 L109.5 30.1 L110.9 29.8 L112.3 29.6 L113.8 29.3 L115.2 29.0 L116.7 28.8 L118.1 28.5 L119.6 28.2 L121.0 28.0 L122.5 27.7 L123.9 27.4 L125.4 27.2 L126.8 26.9 L128.2 26.6 L129.7 26.4 L131.2 26.1 L133.2 25.9 L134.7 25.8 L135.9 25.7 L136.5 25.7 L136.7 25.8 L136.8 25.9 L136.9 26.0 L136.9 26.2 L136.9 26.4 L137.0 26.4 L137.2 26.4 L137.2 26.5 L137.2 26.9 L137.2 27.0 L137.3 27.1 L137.5 27.4 L137.7 27.8 L138.2 28.4 L138.3 28.5 L138.3 28.6 L138.3 28.9 L138.3 29.0 L138.4 29.1 L138.5 29.1 L138.7 29.1 L138.9 29.0 L139.1 29.2 L139.4 29.5 L139.4 29.6 L139.7 29.7 L139.9 29.7 L140.1 29.8 L140.2 30.0 L140.3 30.2 L140.4 30.3 L140.5 30.5 L140.4 30.8 L140.9 31.3 L141.1 31.7 L140.9 32.1 L141.0 32.3 L141.3 33.0 L141.4 33.7 L141.6 33.9 L141.9 33.9 L142.6 33.7 L142.6 33.7 L142.7 33.6 L143.1 33.1 L143.5 33.1 L143.8 32.9 L145.4 31.2 L145.6 31.2 L145.8 31.0 L146.1 30.5 L146.4 30.4 L146.9 30.0 L147.1 29.8 L147.2 29.2 L147.8 28.8 L147.9 28.8 L148.0 28.8 L148.1 28.8 L148.1 28.9 L148.2 28.8 L148.3 28.7 L148.5 28.5 L149.0 28.3 L149.1 28.2 L149.6 27.8 L149.7 27.7 L150.4 27.6 L150.9 27.2 L151.8 26.2 L152.4 26.0 L152.7 25.9 L153.1 26.0 L153.3 26.0 L153.5 26.2 L153.7 26.2 L153.9 26.1 L154.3 25.2 L154.6 25.0 L154.9 24.9 L155.5 24.9 L155.8 25.0 L156.1 25.2 L156.3 25.7 L156.5 25.8 L156.6 25.9 L156.7 26.0 L156.7 26.2 L157.3 26.8 L157.5 26.7 L158.3 26.6 L158.5 26.6 L158.5 26.5 L158.8 26.2 L158.8 26.1 L158.9 26.1 L159.7 25.1 L160.0 24.9 L160.6 24.5 L161.0 24.0 L161.1 23.9 L161.3 23.8 L161.4 23.8 L161.6 23.7 L161.7 23.7 L161.8 23.4 L161.9 23.4 L162.3 23.3 L162.7 23.0 L163.0 22.9 L163.3 22.9 L164.6 22.5 L164.7 22.4 L164.8 22.3 L164.9 22.2 L165.0 22.1 L165.1 22.1 L165.0 22.3 L165.2 22.4 L165.3 22.6 L165.5 22.7 L165.7 22.6 L165.9 22.8 L166.1 22.7 L166.6 22.4 L166.7 22.8 L167.3 22.8 L167.8 22.5 L168.4 22.0 L169.1 22.0 L170.2 22.2 Z" fill="#172033" fill-rule="evenodd"/></svg>
