<svg xmlns="http://www.w3.org/2000/svg" viewBox="0 0 320 200" role="img"><path d="M119.2 147.4 L119.7 141.2 L120.8 124.4 L121.8 108.9 L121.7 91.9 L121.4 75.3 L121.1 62.4 L121.1 57.2 L121.5 54.8 L122.8 53.1 L127.8 51.4 L129.0 51.8 L130.0 52.6 L130.9 53.6 L131.9 54.3 L132.6 54.4 L133.3 54.3 L133.9 54.4 L134.7 56.1 L135.5 56.6 L137.9 58.0 L138.4 57.8 L138.8 57.4 L139.0 56.0 L139.3 55.6 L142.3 53.4 L142.9 52.8 L143.8 50.4 L144.0 49.9 L144.9 49.2 L145.7 48.7 L146.5 48.2 L147.0 47.3 L147.2 46.7 L147.4 45.3 L147.6 44.7 L149.1 42.4 L149.3 41.7 L149.1 40.9 L148.8 40.7 L150.5 39.5 L152.3 38.7 L153.0 38.2 L153.6 37.3 L153.8 36.6 L153.8 36.4 L153.9 35.4 L154.1 34.4 L154.7 33.4 L156.6 31.4 L157.3 30.3 L157.5 29.6 L157.8 28.1 L158.3 26.6 L158.6 24.8 L158.9 24.2 L159.4 23.7 L161.2 22.4 L161.8 22.4 L162.4 22.7 L163.0 22.9 L163.5 22.8 L164.7 22.4 L165.4 22.1 L165.8 22.0 L166.1 22.1 L166.7 22.6 L167.1 22.9 L167.5 22.8 L167.8 22.7 L168.3 22.5 L172.0 22.5 L172.3 22.6 L172.3 22.8 L173.3 23.7 L172.2 25.1 L167.5 28.3 L167.1 29.2 L167.8 30.1 L168.6 30.2 L171.5 28.9 L171.2 29.8 L170.6 30.7 L169.2 32.4 L168.9 32.9 L169.1 33.2 L169.5 33.1 L170.1 32.8 L171.1 31.7 L173.0 30.3 L174.0 29.9 L175.0 29.7 L176.3 29.9 L178.0 30.7 L178.8 31.0 L180.1 30.8 L181.9 29.6 L184.0 29.0 L184.7 28.9 L185.0 29.1 L184.9 30.0 L184.5 30.5 L183.4 31.4 L182.0 31.9 L181.7 32.2 L181.7 32.8 L182.1 33.0 L182.7 32.8 L183.1 32.1 L183.6 31.7 L184.2 31.5 L184.8 31.4 L185.0 31.7 L185.5 38.8 L185.0 44.2 L184.8 45.2 L184.0 46.6 L183.8 47.5 L181.5 53.0 L180.5 53.7 L180.5 53.7 L178.0 58.4 L178.4 59.9 L177.7 64.9 L176.2 69.8 L175.7 70.8 L174.2 72.6 L173.5 73.7 L173.3 75.0 L173.5 76.4 L174.3 77.1 L176.4 78.2 L176.8 79.1 L177.4 79.6 L179.9 80.0 L180.5 80.5 L179.7 81.6 L178.2 81.6 L176.7 81.4 L176.0 81.9 L175.8 82.9 L174.9 85.8 L173.4 90.8 L172.8 96.8 L172.7 98.1 L172.5 100.4 L172.9 101.7 L173.2 102.8 L173.2 103.0 L173.2 103.5 L173.5 104.9 L173.8 105.6 L174.3 105.9 L175.6 106.3 L176.3 107.2 L176.8 108.4 L177.1 109.7 L177.3 111.6 L177.6 113.0 L177.5 113.7 L177.1 113.9 L176.6 113.9 L176.0 114.1 L175.3 114.7 L174.5 115.6 L173.8 116.6 L173.5 117.6 L173.8 118.7 L175.0 120.4 L175.2 121.5 L175.3 121.5 L175.5 121.6 L175.7 121.9 L175.6 122.2 L175.4 122.3 L174.6 122.2 L174.3 122.2 L173.6 122.8 L173.3 123.2 L173.2 123.7 L173.0 124.0 L172.7 124.3 L172.4 124.7 L172.3 125.3 L172.4 126.0 L172.6 127.0 L172.7 127.6 L172.2 131.8 L171.8 132.5 L171.3 133.0 L170.7 133.7 L170.0 136.2 L169.7 136.9 L169.5 138.0 L169.9 139.5 L169.6 140.0 L169.2 140.5 L168.8 140.6 L168.6 139.7 L170.5 132.9 L171.5 131.8 L171.9 131.2 L170.3 132.0 L168.7 135.9 L167.4 137.4 L167.8 137.5 L168.6 137.8 L168.2 138.0 L167.9 138.1 L167.5 138.1 L167.0 137.8 L167.1 138.4 L167.2 138.6 L167.6 138.7 L168.2 138.7 L168.2 139.0 L167.6 139.4 L167.1 140.0 L167.0 140.8 L167.2 141.1 L167.4 141.5 L166.2 142.3 L165.0 144.7 L163.9 145.2 L163.8 145.5 L163.7 146.9 L163.7 147.2 L163.4 147.4 L163.0 147.4 L162.8 147.3 L162.8 147.2 L162.5 147.5 L162.3 147.6 L162.3 147.7 L162.0 148.0 L161.3 149.8 L161.0 150.1 L160.6 150.4 L159.0 152.4 L158.8 152.7 L158.6 153.5 L158.4 153.7 L158.4 153.9 L158.4 154.4 L158.4 154.6 L158.2 154.6 L157.7 154.6 L157.6 154.6 L157.3 154.7 L156.6 154.9 L156.3 155.0 L156.2 155.3 L155.9 156.2 L155.9 153.7 L155.5 153.7 L155.1 155.0 L154.3 155.2 L153.4 154.7 L153.1 154.0 L152.8 153.6 L152.3 153.6 L151.8 153.7 L151.6 153.7 L151.5 154.0 L151.6 155.0 L151.4 155.4 L151.0 155.6 L148.9 155.8 L148.6 156.0 L148.3 156.3 L147.9 156.6 L147.1 156.7 L146.2 157.1 L146.0 158.0 L146.1 160.3 L145.9 161.6 L145.3 162.5 L144.5 163.0 L143.5 163.2 L143.2 163.4 L142.8 163.7 L142.5 164.2 L142.2 165.2 L141.9 165.5 L141.4 165.7 L140.8 166.1 L140.1 166.6 L139.8 166.9 L139.6 167.3 L139.4 167.9 L139.5 168.6 L139.3 169.1 L137.7 169.6 L136.7 170.2 L135.7 171.0 L135.0 171.8 L134.8 173.3 L136.1 175.7 L135.9 177.1 L133.6 178.0 L128.3 176.7 L126.4 176.7 L124.7 177.0 L120.1 176.8 L119.0 177.2 L118.5 177.2 L117.8 177.5 L117.2 177.7 L117.1 177.9 L116.6 177.1 L116.6 176.4 L116.7 173.5 L118.3 159.7 L119.2 147.4 Z M200.1 87.9 L200.9 87.2 L201.6 88.3 L202.6 91.2 L202.3 91.6 L202.2 92.2 L202.2 93.6 L201.8 93.6 L201.8 93.0 L201.8 92.8 L201.4 92.9 L201.2 93.1 L201.1 93.3 L200.9 93.6 L201.0 90.0 L200.8 88.5 L200.1 87.9 Z M200.7 78.5 L201.5 78.5 L202.3 78.7 L203.1 79.3 L203.4 80.5 L203.2 81.4 L201.9 83.7 L201.1 84.7 L200.5 85.7 L199.7 86.3 L198.5 85.4 L197.9 86.4 L197.1 86.9 L196.4 87.7 L196.0 89.1 L195.6 91.8 L195.5 92.2 L195.2 92.8 L194.9 93.6 L194.8 94.4 L194.0 93.6 L194.2 93.4 L194.3 93.2 L194.3 93.0 L194.4 92.8 L194.5 91.5 L195.1 89.4 L195.4 86.5 L195.9 85.6 L196.6 84.9 L197.7 84.2 L198.9 83.0 L199.5 82.9 L200.4 83.3 L201.1 83.4 L201.7 82.8 L202.2 81.7 L202.3 80.4 L201.8 79.7 L201.1 80.2 L200.6 80.5 L200.1 80.5 L200.1 80.1 L200.7 78.5 Z M180.9 70.3 L182.1 69.7 L185.5 67.5 L186.2 67.2 L185.7 69.1 L184.3 70.3 L182.4 70.9 L180.5 71.1 L180.5 70.8 L180.5 70.6 L180.9 70.3 Z M195.6 49.8 L196.0 49.8 L195.5 52.4 L194.4 54.7 L192.5 56.5 L189.9 57.1 L189.9 56.7 L190.5 56.8 L190.7 56.7 L192.9 55.2 L193.7 54.2 L194.0 52.7 L193.1 52.7 L193.3 50.9 L194.4 47.1 L194.5 46.9 L194.8 46.6 L195.1 46.4 L195.2 45.9 L195.3 45.3 L196.1 42.2 L196.7 41.6 L197.7 42.0 L199.0 41.2 L199.6 42.0 L199.5 43.3 L198.7 44.0 L198.2 44.7 L197.0 47.9 L196.4 49.0 L196.0 48.7 L195.6 48.5 L195.5 49.2 L195.3 49.6 L194.9 49.9 L194.4 50.2 L194.4 50.6 L194.8 51.4 L195.4 50.7 L195.5 50.3 L195.6 49.8 Z" fill="#172033" fill-rule="evenodd"/></svg>
