<svg xmlns="http://www.w3.org/2000/svg" viewBox="0 0 320 200" role="img"><path d="M227.0 26.1 L227.1 26.6 L227.3 28.9 L227.1 31.5 L226.9 31.9 L226.9 32.1 L226.8 32.4 L226.5 32.6 L225.8 32.9 L225.5 33.2 L225.2 33.5 L224.7 35.3 L224.4 35.7 L224.3 35.9 L224.2 36.3 L224.2 36.5 L223.8 36.9 L223.4 37.8 L223.3 38.1 L223.3 38.6 L222.8 39.8 L221.5 42.1 L221.4 42.2 L221.2 42.3 L220.2 43.3 L220.0 43.6 L219.8 43.8 L219.6 44.9 L219.5 45.2 L219.4 45.6 L219.2 45.9 L218.9 46.5 L218.7 46.8 L218.4 46.9 L218.3 47.1 L217.9 47.6 L217.8 47.8 L217.1 49.7 L217.1 49.9 L217.2 50.5 L217.2 51.0 L217.2 52.7 L217.3 53.6 L217.3 53.8 L217.2 54.2 L217.0 54.7 L217.0 55.1 L217.1 60.2 L217.1 60.6 L216.0 62.9 L215.9 63.2 L215.8 63.9 L215.2 65.9 L215.1 67.0 L215.0 67.3 L214.3 68.6 L213.9 69.0 L213.5 69.7 L213.4 70.1 L213.6 71.4 L213.6 72.8 L214.1 75.0 L214.1 75.5 L213.9 76.9 L213.9 77.4 L214.0 77.9 L214.3 78.7 L214.6 78.9 L214.8 79.2 L214.9 79.5 L214.9 79.8 L214.8 81.5 L214.7 81.8 L213.2 84.0 L211.8 87.8 L211.5 88.4 L210.7 91.8 L210.7 92.2 L210.7 92.7 L211.2 94.5 L211.3 97.6 L211.2 97.8 L210.9 98.2 L209.8 99.2 L209.7 99.4 L209.6 99.5 L209.6 99.8 L209.6 99.8 L209.5 99.9 L209.3 100.1 L209.1 100.3 L208.7 100.6 L207.7 101.8 L205.3 104.7 L204.8 105.1 L204.4 105.6 L204.3 105.7 L203.8 105.9 L203.8 106.0 L203.4 106.4 L203.2 106.5 L202.3 106.8 L201.4 106.9 L201.1 107.0 L199.9 107.5 L199.0 107.7 L198.4 107.8 L198.3 107.9 L198.1 108.0 L198.0 108.1 L198.0 108.2 L197.6 108.7 L196.9 109.3 L196.3 109.9 L195.5 110.6 L195.1 110.8 L194.9 111.0 L194.9 111.1 L194.7 111.6 L194.3 112.3 L194.0 113.0 L193.7 113.4 L193.0 114.7 L192.4 115.5 L192.0 116.3 L191.8 116.7 L191.4 117.3 L191.3 117.5 L191.2 117.8 L191.2 118.0 L191.2 118.7 L191.1 119.2 L190.8 119.6 L189.4 121.5 L189.4 121.6 L189.3 121.8 L189.2 122.0 L189.1 122.1 L188.8 122.3 L188.5 122.4 L188.5 122.5 L188.3 122.6 L188.0 123.0 L186.9 124.1 L186.1 124.6 L185.1 125.6 L184.6 125.9 L184.2 126.3 L183.7 126.9 L183.5 127.3 L183.4 127.7 L183.4 128.1 L183.4 128.2 L183.4 128.4 L183.2 129.2 L183.2 129.4 L183.2 129.7 L183.4 130.0 L183.4 130.1 L183.5 130.2 L183.5 131.1 L184.1 135.4 L183.7 138.0 L183.3 139.3 L183.2 139.5 L183.2 139.8 L183.3 140.8 L183.4 141.5 L183.3 142.4 L183.4 143.4 L183.4 144.3 L183.4 144.6 L183.6 145.0 L183.6 145.4 L183.5 146.2 L183.6 146.5 L183.8 146.7 L184.0 146.9 L184.1 147.1 L184.1 147.5 L184.0 147.8 L183.8 148.4 L182.9 149.9 L182.5 150.9 L182.1 151.6 L181.0 153.0 L180.3 154.5 L180.1 154.9 L179.9 155.1 L179.6 156.0 L179.0 156.9 L178.9 157.1 L178.8 157.2 L178.5 158.3 L178.0 158.7 L178.0 158.8 L177.3 159.2 L176.5 159.4 L175.7 159.5 L174.9 159.6 L172.3 160.5 L172.0 160.6 L171.7 160.8 L171.5 161.1 L170.9 162.9 L170.8 163.1 L170.4 163.5 L170.4 163.6 L170.2 163.7 L169.8 163.9 L169.1 164.1 L167.1 165.1 L166.7 165.4 L166.3 165.6 L165.8 165.8 L165.6 166.2 L165.5 166.4 L164.9 167.4 L163.9 168.7 L163.5 169.1 L162.6 169.6 L162.4 169.7 L162.3 170.0 L160.9 171.3 L159.5 173.8 L159.3 174.1 L159.2 174.3 L158.9 174.6 L158.0 174.9 L156.9 175.7 L156.3 175.9 L155.6 175.9 L155.4 175.9 L154.9 175.5 L154.7 175.4 L154.6 175.4 L154.4 175.2 L154.4 175.1 L154.2 175.1 L153.8 175.1 L153.7 175.0 L153.6 174.8 L153.3 174.8 L152.9 174.9 L152.7 175.0 L152.3 175.4 L152.1 175.5 L151.8 175.6 L151.5 175.6 L151.4 175.1 L151.7 173.7 L151.6 173.5 L151.5 173.3 L151.4 173.2 L151.4 173.0 L151.5 172.8 L151.6 172.5 L151.6 172.3 L151.6 171.9 L151.4 171.6 L151.1 171.3 L150.8 171.0 L150.7 170.3 L150.6 169.9 L150.6 169.8 L150.7 169.5 L151.0 169.3 L151.7 169.0 L151.9 168.8 L152.1 168.5 L152.4 168.1 L152.6 167.8 L152.7 167.4 L152.6 167.3 L152.0 166.9 L151.6 166.5 L151.3 166.1 L151.2 165.8 L151.2 165.7 L151.3 165.6 L151.3 165.4 L151.4 165.1 L151.4 165.0 L151.3 164.8 L151.2 164.7 L150.9 164.8 L150.1 165.2 L149.3 165.4 L148.9 165.6 L148.3 166.2 L147.6 166.5 L146.9 166.7 L145.3 166.9 L144.7 167.2 L144.2 167.9 L144.1 168.0 L144.1 168.0 L143.8 168.2 L143.5 168.6 L143.3 168.7 L143.1 168.7 L142.6 168.5 L142.6 168.5 L142.1 168.6 L141.9 168.5 L141.7 168.3 L141.5 167.9 L141.3 167.7 L140.9 167.4 L140.5 167.4 L139.4 167.8 L139.2 167.9 L139.1 168.1 L139.3 169.8 L139.3 170.1 L139.0 170.9 L138.9 171.3 L139.2 172.0 L139.0 172.2 L138.9 172.2 L138.8 172.1 L138.6 172.2 L138.5 172.4 L138.6 172.7 L138.5 172.9 L138.3 172.9 L137.9 172.8 L137.8 172.7 L137.4 173.0 L137.0 173.7 L136.8 173.8 L136.6 173.8 L136.4 173.7 L136.1 173.4 L135.8 173.3 L135.6 173.3 L135.0 173.6 L135.2 173.8 L135.3 173.9 L135.3 174.1 L135.0 174.2 L134.1 174.8 L133.6 175.4 L133.4 175.6 L133.1 174.8 L132.9 174.2 L132.8 174.0 L132.7 173.8 L132.4 173.7 L131.3 173.3 L131.0 173.1 L130.2 172.3 L129.7 172.0 L129.5 171.9 L129.3 171.3 L129.0 170.8 L128.8 170.5 L128.4 170.1 L128.0 170.1 L127.7 170.5 L127.7 171.1 L126.9 170.7 L125.7 169.3 L125.0 168.8 L124.7 168.4 L124.4 167.5 L124.1 167.1 L123.8 167.0 L123.6 167.0 L123.4 167.1 L123.1 167.2 L122.9 167.1 L122.5 166.9 L122.4 166.9 L122.2 166.8 L121.7 167.0 L121.5 167.4 L121.4 167.9 L121.2 168.1 L120.8 168.3 L120.5 168.6 L120.3 168.8 L119.9 169.6 L119.7 169.8 L119.4 169.9 L117.4 170.2 L116.2 170.6 L116.0 170.7 L115.5 170.6 L115.3 170.8 L115.3 171.6 L115.2 172.0 L114.5 173.5 L114.3 173.7 L114.1 173.8 L113.4 173.8 L113.2 173.9 L112.9 174.0 L112.8 174.1 L112.5 173.7 L112.4 173.5 L112.2 173.4 L112.0 173.4 L111.9 173.5 L111.4 175.3 L110.9 176.1 L108.9 177.8 L108.7 178.0 L108.5 177.8 L108.2 177.5 L107.8 176.8 L107.1 176.0 L106.7 175.6 L106.5 175.1 L105.5 174.0 L105.3 173.8 L105.3 173.7 L105.4 173.6 L105.5 173.6 L105.8 173.9 L105.8 173.8 L105.9 173.6 L105.9 173.2 L105.4 172.6 L104.7 171.9 L104.6 171.7 L104.6 171.5 L105.0 171.5 L105.3 171.2 L105.4 170.8 L105.1 170.1 L103.1 168.1 L101.2 166.5 L99.6 165.0 L98.7 164.5 L97.9 163.7 L97.5 163.2 L97.4 163.1 L97.2 162.7 L97.2 162.5 L97.2 162.1 L97.2 161.9 L97.1 161.8 L95.5 160.5 L93.8 159.4 L93.2 158.9 L92.7 158.6 L93.0 158.1 L94.2 154.9 L94.5 154.4 L94.9 154.0 L95.6 153.6 L96.1 153.1 L96.7 152.8 L97.4 152.6 L98.1 152.4 L98.5 151.9 L98.8 151.3 L99.3 151.0 L100.2 151.1 L100.9 151.6 L102.3 153.9 L102.6 154.3 L103.0 154.4 L103.9 154.3 L104.3 154.3 L105.3 154.6 L105.7 154.6 L105.7 154.6 L106.0 154.5 L106.4 154.2 L106.7 153.8 L106.9 153.4 L106.7 153.0 L106.4 152.8 L106.0 152.7 L105.6 152.5 L105.4 152.1 L105.5 151.7 L106.5 149.3 L106.7 148.9 L107.5 148.3 L107.7 147.9 L107.6 147.3 L106.9 147.0 L106.0 146.8 L105.4 146.5 L104.7 145.9 L104.3 145.6 L103.3 145.2 L103.1 145.1 L103.0 145.0 L102.9 144.9 L103.0 144.8 L103.0 143.6 L103.1 143.2 L103.3 142.8 L103.5 142.7 L103.7 142.7 L104.2 142.7 L104.6 142.4 L104.6 142.0 L104.3 141.6 L103.0 140.1 L102.4 139.3 L102.1 138.9 L101.7 138.8 L101.2 139.0 L100.5 139.5 L100.2 139.5 L100.1 139.1 L100.3 138.4 L100.3 138.3 L101.6 136.2 L101.8 135.7 L101.8 135.3 L101.8 135.0 L101.7 134.5 L101.6 134.1 L101.1 133.4 L101.0 133.0 L101.0 132.7 L101.1 131.7 L101.0 131.3 L100.7 130.3 L100.8 129.9 L100.8 129.9 L101.5 129.9 L102.4 130.2 L102.7 130.3 L102.8 130.5 L102.8 130.6 L103.0 130.8 L103.6 131.3 L103.9 131.4 L104.2 131.4 L104.5 131.3 L105.1 130.7 L105.5 130.6 L106.1 130.4 L106.9 130.2 L107.5 129.9 L107.6 130.0 L108.0 130.3 L108.6 131.0 L109.1 131.4 L109.7 131.4 L116.8 129.9 L116.6 129.5 L116.7 129.0 L116.9 128.3 L117.1 127.8 L116.9 127.1 L117.0 126.8 L117.1 126.6 L117.4 126.0 L117.5 125.7 L116.8 125.4 L116.4 124.8 L116.3 124.1 L116.1 122.2 L116.2 122.0 L116.4 122.0 L116.6 122.2 L116.9 122.6 L117.3 122.7 L117.5 122.6 L117.6 122.4 L117.6 122.2 L117.6 122.0 L117.7 121.8 L117.8 121.7 L117.9 121.6 L118.8 121.0 L119.0 120.9 L119.9 120.9 L120.6 121.2 L121.8 122.1 L121.9 122.1 L122.6 122.4 L122.9 122.6 L123.1 123.0 L123.5 124.3 L123.7 124.7 L123.8 124.8 L124.1 125.1 L124.2 125.2 L124.2 125.6 L124.2 125.6 L124.2 125.7 L124.2 125.8 L124.2 125.9 L124.6 126.0 L124.5 126.1 L124.5 126.2 L124.4 126.3 L124.4 126.4 L124.3 126.5 L124.4 126.7 L124.6 126.9 L124.7 127.0 L124.7 127.2 L124.8 127.5 L125.0 127.5 L125.5 127.3 L125.6 127.4 L125.9 128.0 L126.1 128.2 L126.2 128.7 L126.3 128.8 L126.4 129.0 L126.5 129.0 L126.6 129.0 L126.6 129.2 L126.5 129.3 L126.4 129.5 L126.3 129.7 L126.3 129.8 L126.3 130.0 L126.2 130.1 L126.1 130.2 L125.9 130.4 L125.8 130.6 L125.9 130.7 L126.1 130.7 L126.3 130.5 L126.6 130.1 L126.9 130.1 L127.3 130.2 L128.5 130.7 L128.8 130.8 L129.0 130.7 L129.4 130.5 L129.6 130.5 L129.8 130.5 L132.9 131.7 L133.2 131.7 L133.5 131.6 L133.9 131.7 L134.0 131.7 L134.3 131.6 L134.4 131.7 L134.5 131.9 L134.6 131.9 L134.8 131.8 L134.9 131.7 L135.0 131.5 L135.0 131.3 L135.2 131.1 L135.8 130.7 L136.0 130.6 L136.2 130.3 L136.4 130.1 L136.6 130.0 L137.0 129.9 L137.2 129.7 L137.3 129.6 L137.3 129.2 L137.5 129.0 L138.8 127.7 L139.0 127.5 L139.0 127.3 L139.1 127.0 L139.1 126.8 L139.3 126.4 L139.7 125.9 L139.7 125.8 L139.8 125.8 L140.0 125.9 L140.2 126.2 L140.4 126.5 L140.6 126.9 L140.7 127.6 L141.1 128.4 L141.4 128.8 L141.7 129.1 L141.8 129.3 L141.9 129.8 L142.0 129.9 L142.2 130.0 L142.4 130.1 L142.6 130.5 L142.6 130.6 L142.3 130.7 L142.1 131.2 L141.7 131.4 L141.6 131.6 L141.6 132.3 L141.5 132.4 L141.8 132.6 L142.2 132.8 L142.7 132.8 L143.1 132.7 L143.4 132.5 L143.5 132.4 L143.7 132.4 L143.9 132.6 L143.9 132.9 L144.0 133.0 L144.2 133.0 L145.0 132.7 L145.1 132.7 L145.3 132.7 L145.6 132.9 L145.7 133.0 L145.9 132.9 L146.0 132.8 L146.1 132.6 L146.2 132.3 L146.4 132.1 L146.5 132.0 L146.7 131.8 L146.7 131.3 L146.7 131.2 L146.9 131.0 L147.2 130.7 L147.4 130.6 L147.6 130.5 L148.4 130.3 L148.5 130.4 L148.4 129.8 L147.0 128.7 L146.9 128.0 L147.2 127.9 L147.8 127.6 L148.0 127.4 L148.0 127.2 L147.9 126.9 L148.0 126.7 L148.1 126.7 L148.4 126.6 L148.5 126.4 L148.6 126.2 L148.7 125.2 L148.8 124.9 L148.8 124.7 L148.7 124.6 L148.6 124.4 L148.5 124.4 L148.5 124.2 L148.6 124.1 L148.6 123.9 L148.6 123.7 L148.7 123.6 L148.8 123.4 L150.9 122.6 L150.9 122.6 L151.4 122.4 L151.5 122.1 L151.4 121.3 L151.4 121.2 L151.5 120.7 L151.6 119.3 L151.7 118.9 L151.9 118.7 L152.3 118.4 L152.2 118.3 L151.8 118.2 L151.5 118.1 L151.3 117.4 L150.9 117.2 L150.8 117.1 L151.0 117.0 L151.4 116.8 L151.5 116.7 L151.7 116.6 L151.8 116.4 L151.9 116.2 L152.0 116.1 L152.6 116.0 L152.6 115.7 L152.4 115.4 L152.1 115.1 L152.4 114.6 L152.4 114.2 L152.5 114.0 L152.7 113.8 L152.9 113.7 L153.0 113.5 L152.9 113.1 L152.3 112.7 L152.0 112.4 L151.9 112.1 L152.0 111.9 L152.1 111.7 L152.2 111.6 L152.4 111.5 L152.5 111.3 L152.5 111.1 L152.6 110.7 L152.6 110.2 L152.6 110.0 L152.5 109.8 L152.2 109.5 L152.1 109.4 L152.0 109.2 L152.0 109.0 L152.1 108.7 L152.1 108.6 L152.0 108.4 L151.8 108.0 L151.3 106.6 L151.3 106.3 L151.5 105.9 L151.6 105.2 L151.7 104.8 L152.0 104.3 L152.3 104.0 L152.5 103.6 L152.4 103.0 L152.3 102.6 L152.3 102.1 L152.4 101.7 L153.1 100.1 L153.2 99.6 L153.1 99.0 L152.6 98.2 L152.4 97.9 L151.7 97.4 L151.3 96.9 L150.7 96.5 L150.0 96.2 L149.5 96.1 L149.2 96.1 L149.0 96.3 L148.7 96.4 L148.4 96.3 L148.1 96.2 L147.8 96.2 L147.5 96.3 L147.2 96.4 L147.1 95.7 L147.0 95.0 L146.8 94.3 L146.5 93.7 L146.0 93.2 L145.4 92.9 L144.6 92.8 L144.0 93.0 L143.9 92.8 L143.7 92.7 L143.5 92.6 L142.9 92.5 L142.8 92.6 L142.7 92.7 L142.6 92.8 L142.6 92.9 L142.3 93.0 L142.2 93.0 L142.1 92.9 L141.3 92.0 L141.3 91.4 L141.5 91.0 L142.3 89.9 L142.5 89.6 L142.7 89.5 L142.9 89.2 L142.9 89.0 L142.8 88.8 L142.7 88.6 L142.8 88.4 L143.1 88.1 L143.1 87.9 L143.0 87.7 L142.7 87.6 L142.5 87.6 L142.4 87.5 L142.3 86.2 L142.3 85.8 L142.1 85.2 L142.0 84.8 L142.1 84.3 L142.7 83.4 L143.3 82.0 L143.7 81.6 L145.0 80.9 L145.4 80.5 L145.4 80.1 L145.3 79.8 L145.1 79.4 L145.7 78.6 L146.5 78.5 L147.5 78.6 L148.4 78.6 L148.7 78.5 L148.8 78.4 L148.9 78.3 L150.2 77.2 L150.3 76.8 L150.4 75.9 L150.9 75.1 L151.7 74.4 L152.3 73.7 L152.2 72.9 L152.1 72.6 L152.3 72.5 L152.5 72.4 L152.6 72.2 L152.7 72.0 L152.5 71.8 L152.1 71.6 L151.8 71.3 L151.5 70.9 L151.2 70.5 L151.0 70.1 L150.7 69.2 L150.5 68.8 L149.6 68.5 L149.4 68.1 L149.2 67.6 L149.2 66.3 L149.2 65.8 L148.9 64.7 L148.8 64.5 L148.6 64.3 L148.4 64.3 L148.3 64.2 L148.2 64.1 L148.2 64.0 L148.0 63.9 L147.9 63.8 L147.7 63.7 L147.6 63.6 L146.9 63.4 L146.5 63.4 L146.2 63.5 L145.6 63.7 L145.2 63.7 L144.9 63.5 L144.6 63.2 L144.3 63.0 L144.0 63.0 L140.6 62.6 L140.4 62.7 L140.4 62.8 L140.2 63.2 L140.0 63.7 L139.9 63.7 L139.7 63.8 L139.7 63.8 L139.5 63.7 L139.4 63.7 L139.3 63.7 L139.0 63.9 L138.9 63.9 L138.6 64.0 L138.4 64.0 L138.3 64.0 L137.9 64.0 L137.7 64.2 L137.4 64.4 L136.8 64.6 L136.4 65.2 L136.1 65.3 L135.5 65.5 L135.0 65.5 L134.5 65.3 L133.8 65.1 L133.6 65.1 L133.2 65.1 L132.8 65.2 L132.7 65.4 L132.6 65.7 L132.3 65.8 L131.9 65.8 L131.6 66.2 L131.3 66.4 L130.9 66.4 L130.3 66.4 L129.9 66.5 L129.7 66.4 L129.7 66.4 L129.7 66.2 L129.5 66.1 L129.3 66.0 L129.1 65.8 L129.5 65.8 L129.6 65.6 L129.7 65.3 L129.8 65.2 L130.0 65.2 L130.3 65.1 L130.6 64.9 L130.8 64.5 L130.9 64.5 L130.9 64.4 L130.8 64.2 L130.7 64.0 L130.7 63.9 L130.7 63.8 L130.7 62.9 L130.7 62.8 L130.4 62.6 L130.1 61.7 L129.7 61.5 L129.8 61.3 L129.8 61.0 L129.7 60.8 L129.5 60.7 L129.4 60.8 L129.0 60.3 L128.7 59.8 L129.1 59.5 L129.1 59.0 L129.0 58.2 L129.1 57.8 L129.2 57.5 L129.2 57.2 L129.1 56.9 L129.3 56.8 L129.5 56.5 L129.7 56.3 L129.8 55.6 L129.9 55.3 L129.8 55.1 L129.7 55.0 L129.6 54.6 L129.3 54.3 L129.4 54.2 L129.6 54.2 L129.7 53.9 L129.9 53.7 L130.0 53.6 L130.1 53.4 L130.2 53.3 L130.2 53.1 L130.1 52.8 L130.1 52.6 L130.3 52.6 L130.4 52.5 L130.7 52.2 L130.8 52.1 L131.5 51.7 L131.6 51.3 L131.7 50.7 L131.7 49.7 L134.8 49.7 L137.5 49.7 L138.3 49.7 L141.2 49.7 L144.4 49.8 L147.2 49.8 L149.1 49.8 L149.2 49.8 L150.0 49.5 L151.2 49.6 L151.4 49.8 L151.8 50.1 L152.0 50.2 L152.1 50.1 L152.5 49.9 L153.9 49.6 L154.1 49.6 L154.1 49.4 L154.1 49.2 L154.1 49.1 L154.3 48.9 L154.4 48.8 L154.8 48.9 L155.4 49.6 L155.8 49.8 L155.7 50.1 L155.9 50.1 L156.3 50.1 L156.6 50.3 L156.9 50.6 L157.2 50.8 L157.1 50.3 L157.2 50.3 L157.7 50.5 L157.4 50.7 L157.3 50.8 L157.5 50.8 L157.7 50.8 L157.8 50.8 L157.9 50.8 L157.9 50.9 L157.9 51.3 L158.0 51.4 L159.1 51.2 L159.3 51.2 L159.5 51.0 L159.5 50.8 L159.5 50.6 L159.6 50.5 L159.9 50.7 L160.1 51.1 L160.2 51.2 L160.5 51.5 L160.3 52.0 L160.3 52.4 L161.0 52.5 L161.4 52.4 L161.5 52.3 L161.7 51.9 L161.8 51.9 L162.7 52.6 L163.0 52.7 L163.3 52.6 L163.5 52.9 L163.8 52.8 L164.1 52.5 L164.3 52.2 L164.4 52.2 L164.7 52.3 L164.9 51.8 L165.5 52.0 L165.7 51.9 L166.0 51.8 L166.4 52.0 L166.4 52.1 L166.5 52.4 L166.6 52.5 L166.7 52.5 L167.3 52.8 L167.5 52.9 L167.6 53.0 L167.6 53.1 L167.6 53.4 L167.5 53.5 L167.6 53.5 L167.7 53.7 L167.8 53.7 L168.2 53.9 L168.2 53.9 L168.4 53.9 L168.8 53.7 L169.1 53.6 L170.0 53.1 L170.8 53.0 L171.6 53.1 L173.1 53.6 L174.8 53.7 L174.9 53.8 L175.1 53.9 L175.3 54.0 L175.7 54.1 L175.8 54.2 L176.5 55.0 L176.8 55.2 L177.2 55.3 L177.7 55.6 L177.8 55.7 L177.9 55.8 L178.0 56.1 L178.1 56.2 L178.3 56.2 L178.5 56.1 L178.7 56.0 L178.8 56.3 L179.0 56.4 L179.4 56.5 L179.7 56.6 L179.9 56.5 L180.1 56.5 L180.3 56.6 L180.4 56.8 L180.5 57.0 L180.5 57.1 L180.4 57.3 L180.4 57.5 L180.6 57.8 L181.3 58.7 L182.1 57.6 L182.3 57.5 L182.6 57.6 L182.8 57.6 L182.9 57.3 L182.5 55.3 L181.9 53.7 L181.5 53.2 L181.4 53.1 L181.3 53.0 L181.2 52.9 L181.2 52.2 L181.2 52.1 L181.5 51.7 L181.5 51.5 L181.4 51.4 L181.4 51.2 L181.4 51.2 L181.4 51.2 L181.4 51.1 L181.4 51.0 L181.5 50.9 L181.6 50.9 L181.6 50.9 L181.7 50.9 L181.7 50.6 L181.7 50.5 L181.6 50.3 L181.5 50.1 L181.6 49.9 L181.8 49.5 L181.9 49.1 L182.2 48.9 L182.6 49.0 L182.9 49.3 L183.6 48.7 L183.8 48.5 L183.7 48.4 L183.6 48.3 L184.5 46.4 L185.3 44.6 L185.9 43.4 L186.7 41.7 L187.4 40.1 L187.7 39.5 L188.1 38.7 L188.6 37.6 L188.7 37.2 L188.5 36.8 L188.3 36.5 L188.1 36.2 L188.0 35.4 L188.7 34.1 L188.8 33.4 L188.7 33.0 L188.5 32.7 L188.4 32.3 L188.4 31.9 L188.6 31.5 L189.2 30.6 L189.3 30.2 L189.3 29.8 L189.8 28.7 L189.9 27.2 L190.2 26.4 L190.7 25.7 L191.5 25.2 L192.3 25.0 L192.7 24.9 L193.1 25.0 L194.6 25.3 L194.9 25.3 L195.3 25.1 L195.3 25.0 L195.3 24.8 L195.3 24.6 L195.6 24.6 L195.7 24.7 L196.1 24.8 L196.2 24.8 L196.7 24.8 L196.9 24.8 L197.1 24.9 L197.2 25.0 L197.4 25.1 L197.6 25.0 L197.7 25.0 L198.0 25.0 L198.1 25.0 L198.2 25.0 L198.4 24.8 L198.6 24.7 L198.9 24.6 L199.0 24.5 L199.5 24.6 L199.7 24.5 L200.2 24.3 L200.5 24.3 L201.2 24.3 L201.4 24.3 L201.7 24.1 L201.9 24.0 L202.1 23.8 L202.3 23.6 L202.6 23.5 L202.8 23.5 L203.3 23.7 L203.9 23.6 L204.3 23.2 L204.6 22.8 L205.3 22.4 L205.6 22.3 L205.8 22.1 L206.1 22.0 L206.5 22.1 L206.6 22.1 L206.7 22.4 L206.8 22.4 L207.0 22.5 L207.1 22.5 L207.8 23.1 L208.4 23.4 L209.1 23.5 L210.6 23.5 L210.7 23.4 L210.9 23.4 L211.0 23.4 L211.1 23.4 L211.3 23.6 L211.4 23.7 L211.6 23.7 L211.9 23.6 L212.1 23.6 L212.4 23.8 L212.6 24.0 L212.8 24.4 L212.9 24.7 L213.0 25.0 L213.2 25.1 L213.6 25.0 L214.3 24.6 L214.4 24.6 L214.4 24.6 L215.1 25.0 L215.3 25.1 L215.5 25.0 L216.0 24.8 L216.6 24.6 L217.3 24.6 L217.9 24.8 L218.2 25.1 L218.4 25.8 L218.7 26.1 L219.0 26.1 L219.4 25.9 L219.7 25.7 L219.9 25.3 L220.0 25.2 L220.1 24.6 L220.2 24.4 L220.4 24.3 L220.5 24.4 L220.7 24.4 L222.2 24.3 L222.3 24.3 L222.5 24.4 L222.6 24.4 L222.7 24.3 L222.7 24.1 L222.8 24.0 L223.0 24.0 L223.3 24.0 L223.5 23.9 L223.8 23.6 L224.0 23.4 L224.2 23.4 L224.7 23.7 L225.0 24.1 L225.7 25.3 L226.0 25.9 L226.2 26.1 L227.0 26.1 Z" fill="#172033" fill-rule="evenodd"/></svg>
