<svg xmlns="http://www.w3.org/2000/svg" viewBox="0 0 320 200" role="img"><path d="M100.7 35.8 L101.1 36.0 L101.6 36.0 L102.2 35.8 L102.6 35.6 L103.1 35.2 L103.3 35.1 L103.9 35.0 L104.2 34.9 L104.4 34.8 L104.6 34.6 L105.2 33.8 L105.3 33.7 L105.4 33.4 L105.5 33.3 L105.7 33.1 L105.8 33.0 L105.9 32.6 L106.2 32.1 L105.9 31.7 L106.4 31.6 L106.9 31.3 L107.2 30.9 L106.9 30.5 L107.1 30.4 L107.2 30.4 L107.2 30.2 L107.5 29.9 L107.8 29.9 L108.1 29.9 L108.3 29.8 L108.4 29.6 L108.5 29.3 L108.6 29.1 L109.1 29.0 L110.0 29.5 L110.6 29.6 L110.8 29.6 L111.3 29.6 L111.5 29.5 L111.7 29.3 L112.3 28.6 L112.6 28.5 L112.9 28.6 L113.1 28.8 L113.3 29.0 L113.5 29.3 L113.5 29.5 L113.5 29.8 L113.5 30.0 L113.6 30.3 L114.0 30.9 L114.0 31.2 L114.0 31.4 L114.0 31.6 L114.3 31.6 L114.5 31.5 L115.2 31.3 L115.8 31.3 L115.9 31.7 L115.8 32.7 L115.8 33.3 L116.0 33.6 L116.4 33.7 L117.9 33.7 L119.9 34.0 L122.3 34.7 L122.7 34.9 L123.1 35.4 L123.4 35.9 L123.9 36.3 L124.5 36.3 L125.1 36.1 L125.6 35.7 L125.9 35.2 L125.8 34.6 L125.6 34.3 L125.2 34.1 L125.0 33.9 L124.9 33.6 L125.5 31.6 L125.8 31.3 L126.4 31.2 L127.7 31.4 L128.2 31.4 L129.7 30.7 L130.2 30.6 L130.7 30.8 L131.6 31.3 L132.2 31.4 L132.8 31.2 L133.0 30.9 L133.0 30.8 L133.1 30.0 L133.2 29.8 L133.3 29.7 L133.5 29.4 L133.5 29.2 L133.3 29.0 L133.1 28.9 L132.8 28.8 L132.6 28.7 L132.3 28.2 L132.3 27.8 L132.5 27.0 L132.6 25.9 L132.5 25.7 L132.5 25.6 L132.4 25.3 L132.5 24.9 L132.6 24.4 L132.6 24.4 L133.0 23.8 L133.0 23.8 L133.5 23.6 L133.8 23.8 L134.3 24.6 L134.7 25.0 L135.2 25.3 L136.2 25.8 L136.6 26.0 L137.9 26.2 L138.4 26.3 L139.0 26.2 L139.5 25.8 L139.5 25.3 L139.4 25.0 L139.1 24.9 L138.8 24.7 L138.7 24.4 L138.7 23.4 L138.9 23.0 L139.3 22.8 L139.8 22.8 L140.3 22.8 L141.0 22.9 L141.4 22.6 L141.9 22.3 L142.5 22.1 L143.1 22.0 L143.3 22.1 L143.3 22.5 L143.2 23.5 L143.3 23.7 L143.7 23.8 L144.0 24.0 L144.2 24.2 L144.3 24.4 L144.2 24.7 L143.9 24.8 L143.7 24.9 L143.5 25.1 L143.6 25.5 L143.7 25.8 L143.7 26.1 L143.5 26.3 L143.0 26.6 L142.9 26.8 L142.9 27.2 L143.0 27.3 L143.3 27.2 L143.5 27.2 L143.6 27.4 L143.7 27.5 L143.9 27.7 L144.0 27.7 L144.3 27.7 L144.5 27.7 L144.7 27.8 L144.8 28.0 L144.7 28.1 L144.5 28.6 L144.4 28.8 L144.5 29.0 L144.9 29.5 L144.5 30.2 L144.4 30.7 L144.8 31.0 L144.2 31.6 L144.2 31.7 L144.3 31.9 L144.3 32.0 L144.3 32.2 L144.1 32.2 L143.9 32.2 L143.8 32.1 L143.7 32.0 L143.4 32.4 L143.4 32.7 L143.4 33.6 L143.8 33.5 L144.1 33.7 L144.6 34.3 L144.9 34.5 L146.7 35.1 L148.9 35.1 L149.4 34.7 L149.7 34.2 L149.8 33.7 L149.9 33.1 L150.2 32.8 L151.4 33.2 L151.6 33.0 L151.5 31.7 L151.6 31.2 L151.9 30.8 L152.3 30.6 L154.0 29.7 L157.2 29.0 L158.6 28.8 L159.2 28.7 L159.5 28.7 L159.8 28.8 L160.3 29.1 L161.0 29.4 L161.4 29.6 L161.8 30.2 L162.1 30.8 L162.2 31.2 L162.5 31.3 L162.7 31.3 L162.9 31.4 L163.0 31.4 L163.2 31.6 L163.2 31.9 L163.3 32.0 L163.6 32.2 L163.9 32.4 L164.3 32.5 L164.8 32.5 L164.9 32.5 L165.0 32.3 L165.1 32.2 L165.2 32.3 L165.3 32.3 L165.5 32.4 L165.8 32.4 L166.0 32.3 L166.2 32.1 L166.3 32.0 L166.5 31.9 L166.9 31.9 L168.0 32.0 L168.4 31.9 L169.6 32.6 L169.9 32.6 L170.0 32.3 L170.4 32.3 L170.8 32.6 L170.8 32.6 L171.0 32.9 L171.0 34.3 L171.0 34.4 L170.9 34.6 L170.9 34.7 L171.2 34.7 L171.4 34.6 L171.5 34.5 L171.6 34.4 L171.7 34.2 L171.8 34.7 L171.5 35.1 L171.5 35.4 L172.2 35.4 L172.0 35.8 L172.2 36.1 L172.8 36.5 L172.8 36.7 L172.3 36.9 L172.0 37.1 L172.2 37.1 L172.4 37.1 L172.5 37.2 L172.7 37.2 L172.4 37.4 L172.6 37.7 L172.8 37.7 L173.1 37.6 L173.4 37.4 L173.5 37.8 L173.8 38.1 L174.1 38.2 L174.4 38.4 L174.6 38.8 L174.8 39.2 L174.7 39.5 L174.2 39.6 L174.3 39.8 L174.6 40.2 L174.9 40.7 L174.9 40.9 L174.5 41.9 L174.6 42.2 L175.3 42.8 L175.5 42.9 L175.6 42.8 L175.8 42.5 L176.0 42.4 L176.2 42.5 L176.4 42.6 L176.4 42.7 L176.6 42.8 L177.2 42.8 L177.7 42.9 L178.0 43.3 L178.2 43.8 L178.7 43.6 L178.9 44.0 L179.0 44.5 L179.2 44.9 L178.8 45.1 L178.6 45.1 L178.4 45.1 L178.4 45.3 L178.6 45.5 L178.7 45.6 L178.7 45.8 L179.0 45.7 L179.4 46.2 L179.7 46.1 L179.6 46.0 L179.6 45.9 L179.6 45.8 L179.9 45.8 L180.1 45.8 L180.3 45.9 L180.3 46.0 L180.5 46.2 L180.8 46.4 L180.9 46.6 L180.9 46.9 L180.9 47.0 L181.1 47.1 L181.4 47.3 L181.5 47.4 L181.5 47.5 L181.5 47.5 L181.7 47.4 L181.9 47.3 L182.1 47.1 L182.2 47.0 L182.2 46.9 L182.5 46.9 L182.8 46.9 L183.1 46.8 L183.4 46.4 L183.7 46.7 L184.1 47.2 L184.3 47.3 L184.7 47.2 L184.8 46.9 L184.8 46.6 L184.9 46.3 L185.0 46.1 L185.0 46.0 L185.1 45.9 L185.5 45.9 L185.7 46.0 L185.9 46.1 L185.9 46.2 L185.9 46.6 L185.6 47.2 L185.6 47.7 L185.9 48.2 L186.7 48.3 L187.6 48.2 L188.2 48.4 L188.4 48.7 L188.6 49.5 L188.8 49.8 L189.1 50.0 L189.2 49.7 L189.2 49.3 L189.3 48.9 L189.6 49.0 L190.3 49.3 L190.3 49.3 L190.5 49.1 L190.8 48.5 L190.8 48.2 L190.8 47.6 L190.8 47.4 L190.9 47.2 L191.7 46.4 L191.4 46.3 L191.3 46.3 L191.6 46.0 L192.0 45.9 L192.9 45.7 L193.4 45.5 L194.1 44.5 L194.5 44.2 L194.9 44.1 L196.3 44.6 L196.6 44.7 L196.7 44.7 L196.9 44.7 L196.9 44.6 L196.9 44.5 L197.0 44.4 L197.3 44.2 L197.5 44.1 L198.3 44.1 L198.5 43.8 L198.6 43.4 L198.9 43.2 L199.5 43.1 L200.4 42.5 L200.8 42.4 L200.9 42.3 L202.5 42.3 L203.0 42.2 L203.2 42.0 L203.6 41.6 L203.8 41.4 L204.2 41.3 L205.4 41.2 L205.5 41.2 L205.9 41.4 L206.0 41.4 L206.2 41.3 L206.4 41.1 L206.5 41.0 L206.8 41.1 L207.0 41.3 L207.1 41.5 L207.4 41.7 L207.8 41.8 L209.3 41.6 L213.1 41.9 L213.4 42.0 L213.9 42.4 L214.1 42.5 L214.3 42.4 L214.6 42.3 L214.9 42.2 L215.0 42.3 L215.0 42.8 L215.0 43.3 L215.3 43.6 L215.8 43.6 L216.2 43.3 L217.0 42.1 L217.4 41.8 L217.7 42.0 L217.7 42.5 L217.6 43.0 L217.7 43.5 L218.2 43.8 L218.7 43.8 L219.3 43.9 L219.8 44.5 L220.1 45.7 L220.3 46.3 L220.7 46.6 L221.2 46.6 L222.0 46.4 L222.5 46.5 L222.9 46.9 L223.2 47.5 L223.6 48.6 L224.8 50.9 L227.3 54.2 L227.8 54.6 L228.4 54.6 L228.9 54.2 L229.5 53.0 L230.2 52.3 L230.6 52.7 L230.6 53.0 L230.5 53.8 L230.5 54.0 L230.6 54.4 L230.6 55.1 L230.5 55.5 L230.2 55.7 L229.9 55.8 L229.6 56.1 L229.6 56.6 L229.8 57.0 L230.1 57.2 L230.6 57.3 L230.9 57.5 L230.9 58.0 L230.6 58.5 L229.8 58.9 L229.6 59.3 L229.1 60.2 L228.6 60.7 L228.5 60.9 L228.5 62.1 L228.4 62.5 L228.1 62.9 L228.4 63.0 L228.5 63.2 L228.7 63.3 L229.1 63.3 L229.7 63.4 L230.3 63.5 L230.9 63.8 L231.1 64.2 L231.1 64.7 L231.5 65.9 L231.6 66.0 L231.8 66.0 L231.9 66.1 L232.0 66.3 L232.0 66.7 L232.5 68.4 L232.5 68.7 L232.2 68.9 L232.1 69.0 L232.0 69.4 L232.1 69.5 L232.1 69.6 L232.3 69.5 L232.5 69.8 L233.6 76.7 L234.7 83.5 L234.5 83.9 L233.4 84.5 L233.1 84.7 L232.8 84.6 L232.5 84.5 L232.3 84.5 L232.1 84.6 L232.0 84.9 L231.9 85.3 L231.9 85.6 L232.3 86.3 L232.4 86.9 L232.4 87.3 L232.2 87.7 L231.6 87.9 L230.2 88.4 L229.7 88.7 L228.6 90.0 L228.2 90.3 L228.2 90.3 L228.1 90.1 L227.9 90.0 L227.8 90.0 L227.7 90.2 L227.6 92.0 L227.5 92.3 L227.3 92.5 L226.8 92.8 L226.5 93.0 L226.5 93.2 L226.6 93.5 L226.6 93.6 L226.5 93.8 L226.2 94.1 L226.2 94.2 L224.4 98.0 L224.1 99.0 L222.9 106.5 L222.9 106.8 L223.0 107.1 L223.2 107.3 L223.3 107.5 L223.3 107.8 L223.1 108.3 L222.0 109.7 L221.8 109.9 L221.6 111.2 L221.5 111.3 L220.3 111.7 L220.3 111.8 L220.3 111.8 L220.0 111.9 L217.1 116.8 L216.7 117.7 L216.7 118.6 L216.8 118.8 L217.1 119.2 L217.4 119.9 L217.5 120.0 L217.0 121.4 L216.9 121.5 L216.4 121.8 L216.3 122.0 L216.2 122.4 L218.1 131.1 L218.4 131.4 L218.5 131.5 L219.2 132.2 L219.7 133.5 L220.5 137.6 L220.8 138.5 L221.8 140.2 L222.1 141.1 L222.1 142.0 L221.9 144.8 L223.5 144.6 L223.2 146.1 L223.4 146.8 L224.0 147.1 L224.4 147.0 L225.2 146.6 L225.6 146.4 L227.4 146.9 L227.7 147.1 L227.9 147.4 L228.0 147.8 L228.0 149.1 L228.5 150.8 L229.1 152.4 L229.2 152.8 L229.2 153.3 L228.9 153.6 L228.6 153.6 L227.8 153.5 L227.6 155.0 L227.7 155.3 L228.0 155.8 L228.1 156.1 L228.1 156.3 L228.0 156.8 L228.0 157.1 L228.1 157.1 L228.4 157.4 L228.6 157.6 L228.3 158.0 L228.0 158.3 L227.4 158.4 L226.5 158.3 L226.4 157.6 L225.6 157.5 L224.6 157.7 L223.9 157.6 L224.1 158.1 L224.0 158.6 L223.7 159.0 L223.2 159.2 L222.8 159.0 L221.5 158.4 L221.1 158.1 L220.6 158.3 L219.6 158.3 L219.2 158.5 L219.0 158.0 L218.7 157.5 L218.2 157.0 L217.8 156.8 L217.6 156.6 L217.9 156.2 L218.3 155.9 L218.4 155.8 L218.5 155.5 L218.6 154.7 L218.7 154.5 L219.1 154.2 L219.3 154.2 L219.5 154.0 L219.6 153.5 L219.5 153.2 L219.3 153.0 L219.1 153.0 L218.7 153.0 L218.5 153.0 L218.4 153.1 L218.2 153.2 L218.0 153.3 L217.8 153.3 L217.5 153.1 L217.2 153.1 L217.0 153.2 L216.5 153.5 L216.2 153.6 L216.5 154.2 L216.6 154.7 L216.4 155.0 L215.7 155.1 L215.8 155.3 L215.8 155.5 L215.7 155.6 L215.6 155.8 L215.8 156.0 L215.9 156.0 L215.7 156.0 L216.0 156.1 L216.2 156.1 L216.5 156.2 L216.7 156.1 L216.7 156.3 L216.5 156.4 L216.1 156.4 L215.9 156.5 L215.7 156.6 L215.5 156.8 L215.3 157.1 L215.2 157.3 L215.0 157.1 L214.8 157.2 L214.8 157.5 L215.2 157.6 L215.1 158.0 L215.2 158.2 L215.5 158.3 L215.9 158.3 L215.0 159.0 L213.4 159.0 L207.2 157.6 L206.0 157.6 L205.3 157.4 L205.1 157.4 L205.0 157.2 L205.0 157.0 L205.1 156.8 L205.1 156.7 L204.8 156.5 L205.0 156.1 L204.7 156.3 L204.6 156.7 L204.4 157.0 L204.3 157.3 L204.2 157.3 L203.9 157.2 L203.4 157.1 L202.4 157.1 L202.1 157.1 L201.0 156.5 L199.3 156.2 L198.5 156.0 L198.1 155.5 L198.6 155.6 L199.1 155.6 L199.6 155.3 L199.8 155.0 L200.2 155.4 L200.4 155.6 L200.6 155.6 L200.7 155.6 L200.8 155.4 L200.8 155.3 L200.6 155.1 L200.6 155.0 L201.0 155.0 L201.8 155.4 L202.0 155.4 L202.2 155.3 L202.8 155.5 L203.7 156.0 L203.6 155.8 L203.6 155.6 L203.5 155.5 L203.9 155.5 L204.6 155.6 L204.8 155.5 L205.1 155.1 L205.0 154.9 L204.7 154.7 L204.5 154.4 L204.2 153.6 L204.2 153.2 L204.1 153.0 L203.9 152.9 L203.6 152.9 L203.3 153.0 L203.2 152.8 L203.0 152.8 L202.8 152.8 L202.7 153.0 L202.7 153.2 L203.3 153.5 L203.9 154.4 L204.2 154.8 L204.7 155.0 L204.4 155.3 L204.1 155.2 L203.7 155.1 L203.3 155.3 L203.2 155.3 L202.9 154.9 L202.6 154.8 L202.4 154.8 L202.0 154.8 L201.7 154.7 L201.4 154.5 L201.2 154.3 L201.2 154.0 L201.0 154.1 L200.9 154.2 L200.8 154.3 L200.7 154.1 L200.7 153.9 L200.6 153.7 L200.6 153.5 L200.5 153.5 L200.4 153.8 L200.3 154.1 L200.1 154.2 L199.8 154.1 L199.6 154.3 L199.4 154.3 L199.1 154.3 L198.8 154.1 L198.2 154.2 L198.0 154.3 L198.2 154.5 L198.6 154.6 L199.0 154.6 L199.3 154.5 L199.6 154.8 L199.3 155.1 L198.9 155.3 L198.5 155.4 L198.1 155.2 L197.7 155.0 L197.2 154.8 L196.7 154.6 L196.5 154.7 L196.3 154.9 L195.8 154.8 L195.1 154.5 L194.8 154.6 L194.5 154.7 L194.3 154.8 L193.9 154.6 L193.8 154.8 L193.6 154.8 L193.5 154.7 L193.3 154.5 L192.6 154.9 L192.3 155.0 L191.9 155.0 L192.0 154.8 L192.1 154.6 L192.1 154.5 L191.5 154.3 L191.2 154.4 L190.9 154.6 L190.7 154.5 L190.5 154.4 L190.3 154.4 L190.2 154.8 L189.8 155.1 L189.6 155.3 L189.4 155.1 L189.1 154.9 L188.8 154.7 L188.6 154.6 L188.3 154.8 L188.1 155.0 L187.8 155.1 L187.6 154.8 L187.7 154.7 L187.7 154.7 L187.7 154.7 L187.8 154.6 L186.9 154.7 L186.5 154.8 L186.4 155.3 L186.7 155.2 L186.9 155.2 L187.0 155.4 L187.1 155.6 L186.6 155.5 L184.9 155.5 L184.8 155.2 L184.7 155.0 L184.4 154.6 L184.3 154.9 L184.3 155.1 L184.4 155.2 L184.6 155.3 L184.6 155.5 L184.1 155.5 L183.8 155.7 L183.2 156.1 L182.8 155.8 L182.3 155.9 L181.8 156.1 L181.6 156.3 L181.4 156.3 L181.2 156.2 L181.0 156.1 L180.8 156.0 L180.7 155.8 L181.0 155.7 L181.3 155.7 L181.5 155.8 L181.9 155.8 L181.8 155.6 L181.8 155.4 L181.6 155.3 L181.4 155.3 L181.4 155.1 L181.6 155.0 L181.8 154.8 L181.9 154.6 L181.9 154.3 L181.7 154.3 L181.4 154.9 L181.0 155.2 L180.5 155.3 L179.9 155.3 L180.5 155.8 L180.1 156.2 L179.1 156.6 L178.5 157.0 L178.4 157.3 L178.4 157.6 L178.6 157.7 L179.0 157.8 L179.5 157.8 L179.9 157.8 L180.2 157.6 L180.0 157.3 L180.0 157.1 L180.7 157.0 L181.0 156.8 L181.1 156.9 L181.2 157.1 L181.4 157.1 L181.7 157.1 L182.2 156.8 L182.6 156.8 L183.3 156.8 L183.6 156.9 L183.7 157.0 L183.8 157.1 L183.9 157.1 L184.3 157.2 L184.5 157.2 L185.1 157.0 L184.8 157.0 L184.5 157.0 L184.3 156.9 L184.2 156.6 L184.4 156.5 L185.2 156.3 L185.2 156.6 L185.4 156.6 L186.0 156.4 L187.4 156.5 L188.1 156.1 L188.2 156.5 L188.4 156.4 L188.6 156.0 L188.8 155.8 L189.2 155.8 L189.6 156.0 L189.9 156.1 L190.3 155.8 L190.7 156.0 L191.2 155.9 L191.7 155.7 L192.7 155.6 L193.3 155.2 L193.7 155.1 L196.7 155.0 L197.5 155.3 L197.2 155.4 L197.0 155.5 L196.7 155.5 L196.5 155.5 L198.3 156.3 L190.7 156.9 L183.0 157.5 L179.0 158.4 L176.8 158.6 L176.4 158.8 L176.1 158.7 L175.8 158.6 L174.5 158.6 L174.2 158.6 L174.2 158.5 L174.3 158.5 L174.4 158.5 L174.5 158.5 L174.5 158.3 L173.8 158.3 L173.7 158.0 L173.7 157.6 L173.5 157.1 L173.8 156.8 L173.5 156.7 L172.2 156.9 L171.7 157.0 L171.3 157.2 L171.0 157.5 L170.6 157.1 L169.9 156.8 L169.1 156.6 L168.3 156.8 L168.2 156.7 L168.1 156.6 L168.0 156.5 L168.0 156.5 L167.8 156.5 L167.6 156.7 L167.1 156.6 L166.7 156.4 L166.3 156.5 L166.1 156.5 L165.9 156.3 L165.8 156.4 L165.7 156.7 L165.8 157.0 L165.8 156.9 L165.5 156.8 L165.5 157.1 L165.5 157.1 L165.7 157.1 L165.7 157.2 L165.8 157.3 L165.8 157.3 L166.0 157.2 L166.1 157.2 L166.5 157.1 L166.5 157.3 L166.3 157.5 L165.7 157.8 L165.5 158.0 L165.5 157.5 L165.1 158.5 L165.0 158.8 L164.1 157.6 L164.0 157.6 L164.0 157.7 L164.0 158.0 L163.6 157.8 L164.0 158.5 L165.0 158.9 L166.2 159.1 L167.2 158.8 L166.8 158.5 L166.4 158.5 L165.9 158.6 L165.5 158.5 L165.5 158.3 L165.7 158.3 L165.9 158.3 L166.1 158.2 L166.3 158.1 L166.4 158.0 L166.7 157.7 L166.8 157.6 L167.2 157.7 L167.6 157.9 L168.0 158.0 L168.3 157.8 L168.6 158.0 L168.9 158.1 L169.2 158.0 L169.3 157.6 L168.9 157.7 L168.7 157.5 L168.5 157.2 L168.2 157.1 L168.2 157.0 L168.5 157.1 L169.3 157.0 L170.8 157.9 L171.4 157.7 L171.8 157.5 L172.1 157.4 L172.9 157.5 L173.0 157.7 L173.2 158.1 L173.4 158.5 L173.7 158.8 L167.5 159.0 L166.6 159.4 L161.6 159.6 L160.9 159.5 L160.3 159.2 L159.6 159.7 L160.1 159.8 L160.3 159.8 L158.3 160.4 L152.9 161.2 L152.8 161.3 L150.0 162.1 L149.6 162.4 L149.4 162.6 L149.1 162.6 L147.8 163.0 L145.9 164.0 L139.2 166.3 L139.0 166.4 L138.9 166.8 L138.5 167.0 L135.9 167.6 L135.4 167.7 L135.0 167.8 L134.4 168.5 L134.0 168.7 L130.9 169.6 L128.4 169.8 L127.8 170.1 L127.2 170.2 L127.0 170.4 L126.3 171.2 L125.0 172.3 L123.4 173.2 L122.4 173.5 L120.6 173.7 L119.2 174.4 L118.9 174.6 L118.6 175.0 L118.4 175.1 L118.1 175.1 L117.8 175.2 L117.4 175.5 L116.1 176.2 L114.1 177.8 L113.7 178.0 L113.1 177.9 L112.0 177.7 L111.6 177.8 L110.8 177.2 L110.7 176.9 L110.7 176.7 L111.0 176.2 L111.1 176.0 L111.0 175.8 L110.9 175.3 L110.9 174.7 L110.9 174.4 L110.8 174.2 L110.8 174.0 L110.9 168.7 L110.8 167.5 L110.7 167.2 L110.6 167.1 L110.4 166.9 L110.2 166.7 L110.1 166.5 L110.1 166.4 L110.1 166.2 L110.2 165.7 L110.2 165.5 L110.1 164.7 L110.1 164.5 L110.8 163.9 L111.1 163.9 L111.3 164.1 L111.4 164.1 L111.4 163.7 L111.3 163.2 L111.1 162.9 L110.9 162.6 L110.9 162.0 L110.9 162.0 L110.7 160.6 L110.8 160.2 L111.1 159.8 L111.5 159.6 L111.9 159.6 L112.3 159.7 L112.9 158.5 L113.1 158.1 L113.1 157.7 L112.9 156.5 L113.1 155.7 L113.2 155.5 L113.4 155.3 L114.1 154.9 L114.1 154.9 L114.4 154.9 L114.4 155.0 L114.2 155.1 L114.3 155.3 L114.3 155.4 L114.3 155.6 L114.4 155.7 L114.6 155.6 L114.8 155.4 L114.8 155.0 L114.9 154.9 L115.2 154.5 L115.3 154.2 L115.4 153.9 L115.3 153.5 L115.2 153.0 L115.0 153.0 L114.7 153.0 L114.4 152.8 L114.1 152.5 L114.0 152.1 L113.9 151.6 L113.9 151.2 L114.2 151.4 L114.3 151.2 L114.3 150.2 L114.5 149.9 L114.8 149.7 L114.9 149.5 L114.8 149.4 L114.6 149.2 L114.8 149.2 L115.2 149.2 L114.9 148.7 L114.8 148.3 L115.0 148.0 L115.5 148.1 L115.2 147.7 L114.6 146.6 L114.3 146.0 L113.9 144.1 L113.9 143.2 L114.1 142.1 L114.0 141.3 L113.2 141.0 L113.1 141.7 L113.0 142.1 L112.8 142.3 L112.5 142.1 L112.4 141.8 L112.3 141.5 L111.9 141.4 L112.0 141.0 L111.8 141.0 L111.5 141.3 L111.2 141.4 L111.0 141.3 L110.7 140.9 L110.5 140.8 L110.7 140.5 L110.6 140.4 L110.1 140.1 L110.0 140.1 L109.5 139.8 L109.5 139.8 L109.0 139.7 L108.7 139.4 L108.4 139.1 L108.2 139.0 L108.0 139.3 L107.7 139.8 L107.3 140.0 L106.9 139.3 L106.6 139.1 L105.6 138.5 L105.3 138.1 L105.3 138.0 L105.3 137.3 L105.4 137.2 L105.6 137.0 L105.6 136.9 L105.6 136.8 L105.5 136.7 L105.3 136.7 L105.3 136.6 L105.2 136.0 L105.1 135.8 L104.8 135.6 L104.6 135.6 L104.3 135.6 L104.1 135.8 L104.1 135.9 L103.8 135.5 L103.7 135.0 L103.8 134.5 L103.9 134.0 L104.2 133.0 L104.2 132.7 L103.8 132.2 L102.7 131.4 L102.6 131.2 L102.6 131.0 L102.5 130.9 L102.4 130.8 L102.3 130.9 L102.1 130.9 L102.0 130.9 L100.4 130.5 L100.0 130.2 L99.6 130.1 L99.0 130.2 L97.8 130.3 L97.5 130.4 L97.0 130.7 L96.7 130.8 L96.3 130.8 L96.0 130.8 L95.9 130.6 L95.6 130.5 L95.3 130.4 L93.4 129.9 L93.2 129.9 L93.2 129.8 L93.2 129.6 L93.1 129.4 L93.0 129.2 L92.8 129.1 L92.7 129.2 L92.7 129.3 L92.5 129.3 L92.3 129.1 L92.0 128.8 L91.8 128.7 L91.5 129.0 L91.2 128.9 L90.9 128.8 L90.6 129.0 L90.4 129.2 L90.1 128.9 L90.2 128.8 L90.4 128.6 L90.5 128.4 L90.4 128.2 L90.2 127.8 L90.2 127.6 L90.3 127.2 L90.5 127.0 L90.5 126.9 L90.2 126.5 L89.4 126.1 L89.1 125.7 L89.0 125.6 L88.9 125.8 L88.8 126.3 L88.6 126.7 L88.3 127.0 L87.8 126.8 L87.1 125.9 L86.8 125.6 L86.5 125.5 L86.0 125.6 L85.7 125.5 L85.3 125.5 L85.9 124.7 L86.0 124.7 L86.3 124.6 L86.4 124.6 L86.5 124.4 L86.6 124.1 L86.6 124.1 L86.6 124.1 L87.0 123.8 L87.0 123.8 L87.4 123.4 L89.1 122.0 L89.6 121.5 L91.8 119.1 L92.2 118.5 L92.5 117.8 L92.7 117.1 L92.7 116.7 L92.7 116.4 L92.6 116.3 L92.4 116.1 L92.3 116.0 L92.6 115.3 L92.6 114.9 L92.6 114.5 L92.6 114.1 L92.7 113.9 L93.2 113.5 L93.4 113.2 L93.5 112.6 L93.1 110.3 L93.0 109.7 L93.0 109.5 L92.8 109.2 L92.4 108.9 L92.4 108.7 L92.3 108.6 L92.4 108.3 L92.4 108.1 L92.3 107.9 L92.0 107.5 L91.9 107.3 L91.7 106.6 L91.5 106.3 L91.1 105.7 L90.9 105.4 L90.8 104.9 L90.5 102.5 L90.0 100.8 L89.6 100.0 L88.6 99.4 L89.7 98.4 L90.3 98.1 L90.9 98.8 L91.3 98.7 L92.2 98.5 L93.0 98.7 L93.9 99.4 L94.8 99.8 L95.5 99.0 L95.5 98.8 L95.5 98.4 L95.5 98.2 L95.6 98.0 L96.1 97.3 L96.2 97.2 L96.5 97.1 L96.6 97.0 L96.6 96.9 L96.5 96.7 L96.5 96.6 L97.3 95.7 L97.4 95.3 L97.5 94.5 L97.6 94.1 L97.7 94.0 L97.9 93.9 L98.0 93.7 L98.1 93.5 L97.9 93.2 L97.4 92.7 L97.2 92.5 L97.3 91.5 L98.5 89.7 L98.7 88.7 L98.8 88.1 L98.7 87.9 L99.1 87.9 L100.1 87.8 L100.4 87.8 L100.6 88.1 L100.9 88.2 L101.3 88.3 L101.3 88.0 L101.2 87.7 L100.9 87.2 L100.5 86.8 L100.0 86.5 L99.9 86.1 L99.9 85.8 L100.0 85.0 L100.2 84.7 L100.4 84.4 L100.3 84.1 L100.0 84.1 L98.6 84.6 L98.3 84.7 L96.0 84.0 L93.9 82.6 L94.0 82.4 L94.4 82.0 L94.4 81.7 L94.4 81.2 L94.4 80.8 L94.7 79.4 L94.6 78.9 L94.5 78.6 L94.3 78.3 L94.2 78.0 L94.2 77.7 L94.3 77.6 L95.5 76.6 L95.9 76.6 L96.7 76.8 L97.2 76.7 L98.1 76.4 L98.5 76.3 L98.8 76.4 L99.0 76.6 L99.2 76.7 L99.4 76.7 L99.8 76.7 L100.0 76.7 L100.8 76.5 L101.1 76.5 L101.5 76.6 L101.8 76.8 L102.0 77.1 L102.1 77.5 L102.3 77.8 L102.6 78.0 L102.9 78.2 L103.3 78.3 L103.7 78.4 L104.1 78.2 L104.2 77.8 L104.1 77.4 L104.2 77.0 L104.7 77.0 L105.3 77.7 L106.0 79.2 L106.6 79.5 L107.2 79.6 L108.7 79.5 L108.2 78.4 L108.0 77.9 L108.1 77.3 L108.3 76.7 L108.3 76.3 L108.0 75.3 L107.9 74.8 L108.0 73.8 L107.8 73.4 L107.7 73.2 L107.0 72.7 L106.7 72.4 L106.2 71.4 L106.0 71.2 L105.5 70.8 L105.4 70.6 L105.2 70.3 L105.1 70.2 L104.9 70.2 L104.7 70.4 L104.6 70.4 L103.1 69.9 L102.5 69.9 L101.4 69.5 L101.2 68.8 L101.6 66.7 L101.7 65.5 L101.9 64.9 L102.1 64.3 L102.1 64.3 L102.5 63.9 L104.7 62.8 L105.1 62.7 L105.6 62.7 L106.2 62.6 L106.6 62.4 L106.6 62.3 L106.3 62.0 L105.3 61.4 L104.7 61.0 L104.5 60.7 L104.1 60.1 L103.9 60.0 L103.7 60.1 L103.4 60.2 L102.1 59.7 L102.1 58.8 L103.0 56.7 L103.1 56.1 L103.7 54.2 L103.6 54.0 L102.6 54.0 L102.1 54.1 L101.1 54.6 L100.6 54.8 L100.2 54.8 L99.6 54.8 L99.1 54.7 L98.7 54.5 L98.3 54.0 L96.9 52.0 L96.7 51.7 L96.6 51.2 L96.5 50.7 L96.5 50.1 L96.5 49.9 L97.4 43.5 L97.3 43.0 L96.8 43.1 L96.7 43.0 L96.6 42.8 L96.7 42.7 L96.8 42.7 L96.9 42.6 L96.8 42.5 L96.8 42.1 L96.7 41.9 L96.5 41.9 L96.4 41.9 L96.3 41.8 L96.2 41.6 L96.2 41.4 L96.2 41.2 L96.7 41.0 L97.0 40.7 L97.1 40.5 L96.8 40.4 L96.5 40.1 L96.8 39.5 L97.3 38.8 L97.8 38.4 L99.0 38.0 L99.6 37.7 L100.0 37.1 L100.1 36.7 L100.2 36.4 L100.4 36.1 L100.7 35.8 Z" fill="#172033" fill-rule="evenodd"/></svg>
