<svg xmlns="http://www.w3.org/2000/svg" viewBox="0 0 320 200" role="img"><path d="M145.9 171.0 L141.8 171.0 L137.7 171.0 L133.6 171.0 L133.4 171.0 L130.4 171.0 L129.5 171.0 L127.7 171.0 L127.4 171.0 L126.6 170.5 L126.3 170.5 L126.1 170.4 L125.7 170.2 L125.4 169.9 L125.2 169.7 L125.2 169.4 L125.3 169.1 L125.3 168.8 L125.1 168.6 L125.3 168.5 L125.3 168.4 L125.4 168.1 L125.4 165.6 L125.8 163.8 L126.1 163.2 L126.1 163.0 L126.2 161.3 L126.3 160.6 L126.5 160.1 L126.8 159.7 L127.1 159.3 L127.2 158.9 L127.3 158.5 L126.7 156.5 L126.5 156.2 L126.5 156.1 L126.6 156.1 L126.7 156.1 L126.9 156.0 L126.9 155.9 L126.7 155.9 L126.5 155.9 L126.4 155.8 L126.3 155.7 L126.2 155.6 L125.9 154.9 L124.8 153.7 L124.3 153.2 L122.9 152.3 L123.2 152.2 L123.6 152.0 L124.7 151.2 L125.0 151.1 L125.4 151.1 L124.9 150.9 L124.5 151.1 L124.2 151.3 L123.8 151.4 L122.9 151.5 L122.7 151.4 L122.7 151.3 L122.7 151.1 L122.9 151.0 L122.5 150.0 L121.9 149.1 L121.7 148.8 L121.6 148.4 L122.0 148.8 L122.1 148.8 L122.1 148.9 L122.2 149.2 L122.3 149.3 L122.5 149.4 L122.7 149.4 L123.2 149.4 L123.1 149.3 L122.7 149.2 L122.5 149.1 L122.5 149.1 L122.4 149.0 L122.3 148.9 L122.2 148.6 L122.3 148.2 L122.4 147.9 L122.7 147.7 L123.2 148.1 L123.5 148.2 L123.6 147.9 L124.1 148.1 L124.2 148.2 L124.3 148.4 L124.4 148.3 L124.4 148.2 L124.4 148.0 L124.3 147.9 L124.3 147.9 L124.4 147.9 L123.8 147.7 L123.5 147.5 L123.4 147.2 L123.6 147.0 L123.9 146.9 L124.3 146.9 L124.6 146.8 L124.6 146.8 L124.6 146.7 L124.5 146.7 L124.6 146.6 L124.6 146.6 L124.6 146.6 L124.6 146.6 L123.3 146.8 L122.8 146.8 L122.6 146.5 L122.7 146.2 L122.9 145.9 L123.2 145.7 L123.4 145.5 L124.0 144.6 L124.4 144.4 L124.5 144.3 L124.5 144.2 L124.5 144.1 L124.3 144.2 L124.0 144.4 L123.9 144.5 L123.8 144.7 L123.7 144.7 L123.7 144.4 L123.4 144.6 L123.0 145.3 L122.8 145.5 L122.5 145.7 L122.1 145.8 L121.8 145.7 L121.8 145.4 L121.6 145.6 L121.4 145.5 L121.1 145.2 L121.0 144.9 L121.1 144.6 L120.9 144.4 L120.7 144.5 L120.3 144.9 L120.4 144.9 L120.4 145.0 L120.5 145.0 L120.7 145.1 L120.8 145.2 L120.8 145.2 L120.9 145.5 L121.1 145.7 L121.3 145.9 L121.4 146.1 L121.3 146.4 L121.1 146.3 L121.0 146.3 L120.9 146.2 L120.7 146.1 L120.5 145.8 L120.4 145.8 L120.4 145.7 L120.3 145.7 L120.3 145.5 L120.2 145.6 L120.0 145.6 L120.0 145.7 L119.9 145.9 L120.3 146.1 L120.4 146.2 L120.4 146.4 L120.4 146.5 L120.4 146.6 L120.3 146.8 L120.4 146.9 L120.6 147.0 L120.7 147.1 L120.5 147.2 L120.3 147.3 L119.8 147.3 L119.5 147.3 L119.1 147.2 L118.9 147.1 L118.5 146.9 L118.3 146.5 L118.4 146.0 L118.6 145.6 L118.6 145.5 L118.3 145.6 L118.1 145.8 L118.1 146.1 L117.6 146.5 L117.2 146.4 L117.1 146.5 L117.1 146.2 L117.1 146.0 L117.1 145.9 L116.9 145.7 L116.7 145.7 L116.5 145.7 L116.2 145.7 L116.1 145.8 L115.9 145.7 L115.1 145.3 L114.0 144.7 L113.8 144.6 L113.8 144.2 L114.0 143.4 L114.1 143.0 L113.6 142.6 L113.3 142.2 L113.1 141.6 L112.7 139.7 L112.8 139.4 L113.2 138.7 L113.3 138.4 L113.0 138.8 L112.8 138.9 L112.7 138.7 L112.8 138.5 L112.8 138.3 L112.9 138.2 L112.8 138.0 L112.7 137.9 L112.4 137.8 L112.3 137.5 L112.2 137.4 L112.1 137.2 L112.0 137.2 L111.9 137.4 L112.4 138.0 L112.5 138.3 L112.4 138.5 L112.2 138.6 L112.1 138.5 L112.1 138.3 L111.4 137.8 L111.4 137.9 L111.4 138.1 L111.5 138.2 L111.6 138.2 L111.4 138.6 L111.4 138.6 L111.3 138.6 L111.0 138.4 L111.0 138.4 L110.9 138.3 L110.6 138.2 L110.4 138.1 L110.3 137.8 L110.2 137.3 L109.6 136.4 L109.5 135.9 L109.2 136.2 L109.3 136.6 L109.5 137.1 L109.9 138.3 L110.0 138.4 L110.2 138.5 L110.3 138.6 L110.4 139.0 L110.1 139.1 L108.4 139.3 L108.2 139.2 L108.3 139.0 L108.5 138.8 L108.6 138.7 L108.5 138.6 L108.3 138.6 L108.2 138.7 L108.1 139.0 L108.0 139.0 L107.9 139.0 L107.7 139.0 L107.5 138.8 L107.4 138.5 L107.5 138.2 L107.7 138.2 L107.8 138.1 L108.1 137.6 L107.9 137.7 L107.7 137.7 L107.6 137.6 L107.5 137.4 L107.5 137.2 L107.6 137.0 L107.9 136.7 L108.3 136.5 L108.4 136.4 L108.4 136.2 L108.3 136.0 L108.3 135.9 L108.4 135.7 L108.4 135.8 L108.4 135.3 L108.4 135.0 L108.6 134.9 L108.6 134.8 L108.6 134.8 L108.9 134.6 L108.8 134.4 L108.8 134.2 L108.7 133.9 L108.9 133.7 L109.2 133.5 L109.3 133.2 L109.9 132.4 L109.9 132.4 L110.1 132.1 L110.2 131.8 L110.4 131.2 L110.5 131.0 L110.7 130.6 L110.9 130.5 L111.0 130.4 L111.2 130.4 L111.3 130.3 L111.4 130.1 L111.8 128.3 L111.8 128.1 L111.7 127.8 L111.7 127.6 L111.7 127.3 L112.0 126.7 L112.1 126.4 L112.1 126.1 L112.1 125.9 L112.1 125.6 L112.1 125.3 L112.3 125.0 L112.6 124.8 L112.8 124.5 L112.9 124.2 L112.7 123.8 L112.5 123.6 L112.2 123.3 L111.9 123.1 L111.7 122.7 L111.8 122.5 L112.1 122.3 L112.3 122.1 L112.4 121.7 L112.2 121.5 L112.1 121.3 L112.1 121.0 L112.2 120.8 L112.7 120.4 L112.9 120.2 L113.1 120.0 L113.4 120.0 L113.7 120.1 L113.9 120.1 L114.0 119.9 L114.0 119.5 L114.1 119.4 L114.3 119.3 L114.5 119.1 L114.8 118.7 L114.8 118.7 L116.0 117.4 L117.9 115.9 L118.3 115.4 L118.6 114.6 L118.8 114.4 L119.0 114.3 L119.2 114.3 L119.4 114.3 L119.6 114.3 L120.0 114.0 L120.4 113.2 L120.8 113.0 L120.8 113.0 L121.4 112.8 L121.7 112.6 L121.9 112.4 L122.2 111.8 L122.4 111.6 L122.8 111.6 L123.0 111.6 L123.5 111.6 L123.6 111.4 L123.7 111.4 L124.7 108.1 L124.9 107.8 L125.3 107.8 L125.5 108.0 L125.8 108.1 L126.1 107.9 L129.5 105.1 L129.8 104.9 L130.0 105.0 L130.1 105.2 L130.3 106.2 L130.4 106.4 L130.7 106.7 L131.1 106.8 L134.6 106.7 L134.6 106.4 L134.7 106.2 L134.8 106.0 L134.9 105.8 L135.0 105.7 L135.1 105.7 L135.2 105.7 L135.2 104.6 L135.4 104.1 L135.5 103.6 L135.7 103.2 L136.0 103.6 L136.1 104.2 L136.3 104.4 L136.7 104.5 L137.6 105.0 L138.7 105.5 L139.2 105.8 L139.4 106.3 L139.5 106.9 L139.8 107.5 L140.2 108.0 L141.5 108.2 L142.0 108.6 L142.2 109.1 L142.3 109.8 L142.3 110.3 L142.3 110.8 L142.5 111.9 L142.8 112.5 L143.0 112.7 L143.4 112.8 L144.2 112.7 L144.6 112.7 L144.7 112.7 L144.9 112.8 L145.0 112.8 L145.1 112.8 L145.2 112.6 L145.2 112.6 L145.4 112.6 L145.7 112.7 L145.8 112.7 L146.2 112.6 L146.5 112.5 L146.8 112.2 L146.9 111.9 L147.0 111.3 L147.2 110.9 L147.5 110.6 L148.1 110.5 L148.4 110.3 L148.8 109.9 L149.2 108.9 L149.2 108.6 L149.3 108.2 L149.2 108.0 L148.9 107.6 L148.8 107.4 L148.9 107.1 L149.2 106.7 L150.0 105.9 L150.8 105.5 L150.8 105.4 L150.9 105.2 L150.9 105.1 L151.0 105.1 L151.1 105.1 L151.3 105.1 L151.5 105.1 L151.6 105.1 L151.7 104.9 L151.7 104.8 L151.7 104.7 L151.9 104.6 L152.5 104.0 L152.7 103.9 L152.9 103.9 L153.0 103.9 L153.1 104.0 L153.3 104.0 L153.4 103.9 L153.5 103.6 L153.3 103.3 L152.8 102.7 L152.1 101.7 L151.9 101.6 L151.6 101.5 L151.5 101.4 L151.6 101.3 L151.9 101.1 L152.2 100.9 L153.0 99.6 L153.8 98.8 L154.7 98.0 L155.0 97.5 L155.3 97.3 L155.4 97.2 L155.5 96.9 L155.3 96.1 L155.3 95.8 L155.3 95.5 L155.4 95.2 L155.9 94.3 L157.2 92.4 L157.8 91.9 L157.8 91.7 L157.8 91.5 L157.7 91.1 L157.6 90.6 L157.6 90.1 L157.7 89.8 L158.3 89.0 L158.3 88.8 L158.4 88.7 L158.4 88.4 L158.2 87.3 L158.1 86.7 L158.2 86.1 L158.5 85.7 L158.8 85.5 L159.4 85.6 L159.7 85.6 L159.8 85.5 L159.9 85.3 L160.0 85.1 L160.1 85.0 L160.5 84.7 L160.6 84.6 L160.6 84.2 L160.6 84.0 L160.3 83.2 L160.2 83.0 L160.5 83.2 L160.7 83.2 L160.9 83.2 L161.1 83.1 L161.3 83.0 L161.5 82.9 L161.7 82.9 L161.9 82.9 L162.3 83.1 L162.5 83.2 L162.8 83.1 L164.2 82.4 L164.4 82.1 L164.6 81.7 L164.7 81.3 L164.8 81.1 L165.0 81.0 L165.2 81.0 L165.3 81.1 L165.5 81.1 L165.7 81.0 L166.0 80.6 L166.1 80.0 L166.4 77.4 L166.3 76.9 L166.4 76.4 L166.6 75.7 L167.3 74.6 L167.3 74.4 L167.4 74.1 L167.4 73.6 L167.3 73.2 L167.2 72.9 L166.8 72.8 L166.7 72.8 L166.8 72.6 L166.9 72.5 L167.7 72.1 L167.8 72.0 L168.0 71.9 L168.4 71.4 L168.5 71.2 L169.5 70.8 L170.6 70.7 L171.5 70.3 L171.8 69.3 L171.9 68.5 L172.1 67.5 L172.2 67.2 L172.3 67.0 L172.4 66.8 L172.2 66.5 L171.8 66.1 L171.7 65.8 L171.7 65.5 L171.8 65.3 L172.1 64.8 L172.2 64.4 L172.1 64.2 L171.9 63.7 L171.9 63.4 L172.2 63.0 L172.6 62.8 L173.7 62.7 L174.0 62.6 L174.1 62.5 L174.3 62.4 L174.6 62.2 L174.7 62.0 L174.9 61.5 L175.0 61.3 L174.9 61.2 L174.9 60.9 L174.9 60.7 L175.2 59.9 L175.6 57.3 L176.1 55.6 L176.5 54.8 L178.9 51.4 L179.0 51.2 L179.1 51.0 L179.0 50.5 L179.1 50.2 L179.2 49.9 L179.5 49.8 L180.0 49.5 L180.1 49.3 L180.4 48.7 L180.7 48.1 L181.2 47.6 L181.7 47.1 L182.2 46.6 L182.6 46.6 L183.2 46.8 L184.1 47.2 L184.4 47.2 L184.7 47.2 L185.0 47.0 L185.2 46.8 L185.6 46.4 L185.8 46.4 L186.1 46.3 L186.3 46.3 L187.5 45.2 L187.7 45.0 L188.5 44.8 L188.8 44.6 L189.3 44.2 L189.6 44.0 L190.3 43.8 L190.5 43.6 L190.7 43.4 L190.9 43.1 L191.0 42.7 L191.0 42.4 L191.0 42.1 L190.9 41.8 L190.8 41.6 L190.5 41.4 L190.5 41.3 L190.4 41.2 L190.4 41.1 L190.3 41.0 L190.0 41.0 L190.0 41.0 L189.9 40.8 L189.8 40.7 L189.9 40.6 L190.4 39.9 L190.5 39.7 L190.8 38.3 L191.0 37.9 L191.0 37.4 L191.0 37.3 L191.0 37.2 L190.7 36.6 L190.7 36.3 L190.9 36.2 L190.9 36.0 L191.1 35.1 L191.2 34.9 L191.3 34.8 L191.3 34.7 L191.6 34.5 L191.6 34.3 L191.5 34.2 L191.3 34.1 L191.2 34.2 L191.0 34.3 L190.9 34.3 L190.8 34.3 L190.7 34.0 L190.5 33.8 L190.2 33.7 L189.9 33.5 L190.1 33.4 L190.1 33.4 L190.1 33.3 L190.0 33.2 L189.6 32.9 L189.5 32.8 L189.4 32.7 L189.5 32.5 L189.5 32.3 L189.1 32.1 L188.2 31.9 L185.4 31.9 L185.2 31.8 L185.0 31.7 L184.9 31.5 L184.9 31.3 L185.0 30.9 L185.0 30.7 L184.9 30.4 L184.9 30.4 L184.9 29.3 L184.1 25.7 L183.3 22.0 L188.1 22.0 L188.4 22.1 L189.0 23.1 L189.0 23.1 L189.2 23.3 L189.3 23.5 L189.4 23.8 L189.3 24.0 L189.1 24.7 L189.1 24.8 L189.3 25.0 L189.7 25.3 L189.9 25.6 L189.9 26.1 L190.0 26.2 L190.0 26.3 L190.1 26.3 L190.2 26.3 L190.2 26.4 L190.2 26.5 L190.3 26.6 L190.4 26.6 L190.7 26.4 L190.8 26.4 L190.9 26.4 L190.9 26.5 L190.9 26.6 L191.0 26.6 L191.2 26.8 L191.3 26.9 L191.5 27.0 L191.9 26.9 L192.1 27.0 L192.2 27.2 L192.0 27.6 L192.2 27.9 L192.4 27.5 L192.5 27.5 L192.6 27.5 L192.7 27.6 L192.8 27.8 L192.8 27.9 L192.9 28.1 L193.2 28.1 L193.6 28.0 L193.8 28.3 L194.2 30.0 L194.2 30.1 L194.1 30.3 L194.0 30.4 L194.0 30.5 L194.1 30.5 L194.1 30.6 L194.2 30.7 L194.2 30.6 L194.3 30.6 L194.3 30.6 L194.4 30.7 L194.4 30.7 L194.4 30.9 L194.4 30.9 L194.6 31.3 L194.8 32.3 L194.8 32.4 L194.8 33.4 L194.8 33.5 L194.7 33.8 L194.7 33.9 L194.7 34.0 L194.8 34.1 L194.9 34.2 L194.9 34.3 L194.8 34.4 L194.7 34.4 L194.7 34.5 L194.7 34.7 L194.8 34.8 L195.1 35.0 L195.4 35.3 L195.6 35.5 L195.8 35.5 L196.0 35.3 L196.3 35.3 L196.5 35.4 L196.8 35.6 L196.7 35.7 L196.6 35.8 L196.6 36.0 L196.7 36.1 L196.8 36.2 L196.8 36.3 L196.8 36.4 L196.8 36.6 L196.9 36.8 L197.1 37.0 L197.2 37.1 L196.8 37.2 L196.8 37.3 L196.8 37.4 L196.8 37.5 L196.9 37.6 L197.0 37.8 L196.9 37.9 L196.7 38.0 L196.7 38.1 L196.7 38.4 L196.8 38.6 L196.9 38.8 L197.2 38.8 L197.3 38.9 L197.6 39.7 L197.5 39.9 L197.3 40.1 L197.2 40.2 L197.3 40.3 L197.4 40.4 L197.4 40.5 L197.4 40.5 L197.3 40.6 L197.2 40.5 L197.1 40.6 L197.0 40.9 L197.0 41.1 L197.0 41.4 L197.3 42.0 L197.4 42.2 L197.8 42.7 L197.9 43.2 L197.8 43.5 L197.1 44.2 L197.0 44.5 L196.9 44.7 L196.8 45.4 L196.8 45.7 L196.8 45.8 L196.8 45.9 L196.9 46.0 L196.9 46.0 L197.0 46.2 L196.9 46.4 L196.5 46.9 L196.5 47.1 L196.4 47.9 L196.5 49.3 L196.6 50.5 L196.9 51.4 L197.1 51.6 L197.2 51.8 L197.1 52.1 L197.0 52.7 L197.0 53.2 L198.0 55.2 L198.1 55.6 L198.1 55.8 L198.0 56.0 L197.9 56.3 L197.9 56.7 L198.0 56.9 L198.1 57.0 L198.2 57.1 L198.3 57.1 L198.5 57.1 L198.6 57.2 L198.7 57.2 L198.8 57.3 L199.1 57.4 L199.2 57.6 L199.4 58.2 L199.6 58.4 L199.8 58.5 L199.9 58.7 L199.9 59.0 L200.0 59.3 L200.1 59.6 L200.2 59.8 L202.1 61.5 L202.6 62.3 L202.8 62.4 L202.8 62.4 L203.4 63.0 L204.3 63.5 L204.8 63.7 L205.4 64.2 L205.2 64.3 L202.1 65.0 L201.3 65.0 L199.0 64.3 L198.2 64.2 L197.6 64.3 L197.5 64.4 L197.3 64.4 L197.1 64.7 L196.9 64.8 L196.5 64.8 L196.1 64.8 L195.3 64.6 L194.7 64.6 L193.0 65.1 L192.4 65.1 L188.5 64.1 L185.1 64.3 L184.9 64.4 L184.8 64.4 L184.8 64.5 L184.8 64.6 L184.7 64.8 L184.1 66.1 L183.6 66.7 L182.5 67.6 L181.7 68.8 L181.7 69.0 L182.9 70.0 L186.8 74.4 L187.0 75.0 L187.2 75.4 L190.2 77.8 L193.3 80.3 L193.5 80.3 L193.6 80.3 L193.7 80.3 L193.9 80.3 L194.0 80.3 L194.2 80.4 L194.7 80.8 L194.8 80.9 L194.9 81.1 L195.0 81.2 L195.1 81.2 L195.2 81.3 L195.3 81.4 L195.4 81.8 L195.4 81.9 L195.4 82.0 L195.5 82.1 L195.7 82.2 L196.2 82.3 L196.5 82.4 L196.8 82.6 L197.0 82.9 L197.6 83.8 L198.4 84.6 L198.6 84.8 L199.0 85.6 L200.8 89.5 L201.6 92.4 L202.1 93.6 L202.8 94.0 L203.0 94.0 L203.5 94.1 L203.8 94.2 L203.8 95.6 L203.6 96.4 L203.2 97.2 L202.7 97.9 L202.6 98.1 L201.8 99.1 L201.8 99.3 L202.0 99.5 L202.0 99.7 L201.9 99.7 L201.7 99.7 L201.6 99.7 L201.5 99.8 L201.4 100.1 L201.4 100.1 L200.7 100.6 L199.7 101.2 L199.5 101.4 L199.1 101.6 L198.9 102.3 L198.7 102.6 L198.6 102.8 L198.6 102.9 L198.7 103.7 L198.7 103.8 L198.5 104.0 L198.2 104.1 L198.1 104.2 L198.0 104.4 L197.9 104.7 L197.6 105.5 L197.2 106.7 L196.9 107.3 L196.7 107.9 L196.6 108.1 L196.4 108.2 L195.6 108.6 L195.4 108.8 L195.2 109.0 L195.0 109.3 L193.5 112.8 L193.1 113.3 L193.1 113.5 L193.1 113.8 L193.2 113.9 L193.1 114.1 L193.0 114.3 L192.5 115.0 L192.3 115.2 L190.3 116.1 L189.7 116.1 L189.6 116.3 L189.4 116.6 L189.0 116.9 L188.8 117.0 L188.5 117.3 L188.3 117.5 L188.3 117.5 L188.3 117.6 L188.4 117.7 L188.3 117.8 L188.3 117.9 L188.2 118.0 L188.1 118.0 L188.1 118.0 L187.9 117.9 L187.9 117.9 L187.8 118.0 L187.7 118.1 L187.8 118.3 L187.9 118.4 L188.0 118.5 L188.1 118.7 L188.3 118.9 L188.5 119.1 L188.6 119.3 L188.7 119.5 L188.8 119.8 L189.0 119.9 L189.3 119.9 L189.7 120.0 L189.9 119.9 L190.3 119.7 L190.4 119.7 L190.6 120.0 L190.7 120.3 L190.9 120.5 L191.0 122.0 L191.1 122.3 L191.0 122.4 L190.8 123.2 L190.5 123.8 L190.5 124.0 L190.5 124.3 L190.6 124.4 L190.8 124.8 L190.9 125.0 L190.9 125.2 L190.9 125.6 L190.8 125.7 L190.6 126.1 L190.6 126.3 L190.6 126.7 L190.5 126.9 L190.4 126.9 L190.3 127.0 L190.2 127.3 L190.1 127.5 L190.0 127.5 L190.0 127.7 L189.9 128.0 L189.8 128.2 L189.6 128.3 L189.5 128.4 L189.6 128.5 L189.8 128.8 L190.1 128.9 L190.7 129.1 L191.0 129.3 L191.2 129.5 L191.3 129.8 L191.4 130.1 L191.5 130.4 L191.5 131.1 L191.6 131.6 L191.5 132.1 L191.5 132.2 L191.4 132.4 L191.5 132.5 L191.6 132.6 L191.6 132.8 L191.6 133.1 L191.7 133.3 L191.7 133.4 L191.8 133.6 L192.0 134.9 L192.0 135.0 L191.9 135.3 L191.9 135.5 L191.9 135.6 L192.0 135.8 L192.1 136.8 L192.2 137.5 L192.6 138.1 L193.1 138.5 L195.2 140.0 L195.8 140.2 L196.0 140.3 L196.1 140.5 L196.2 140.8 L196.3 141.0 L196.8 141.6 L197.0 142.0 L197.1 142.3 L197.2 143.2 L197.2 144.0 L197.3 144.3 L197.5 144.4 L197.7 144.4 L197.9 144.5 L198.0 144.7 L198.0 144.9 L198.1 145.0 L198.3 145.0 L198.5 145.0 L198.7 145.1 L198.7 145.3 L198.4 145.4 L198.1 145.5 L197.6 145.7 L197.3 145.8 L197.1 145.7 L196.7 145.6 L196.4 145.6 L197.3 147.5 L198.4 149.3 L199.5 150.4 L199.7 150.6 L200.6 151.6 L201.7 152.8 L203.2 154.3 L204.5 155.7 L205.8 157.1 L206.8 158.2 L206.9 158.2 L207.0 158.3 L207.2 158.3 L207.3 158.3 L207.4 158.2 L207.5 158.1 L207.6 158.2 L207.7 158.3 L207.8 158.3 L208.3 158.2 L208.6 158.3 L208.8 158.5 L209.1 158.8 L209.2 159.1 L209.4 159.8 L209.4 159.8 L209.4 159.9 L209.5 159.9 L209.7 159.9 L209.8 159.9 L210.0 159.9 L210.1 159.9 L210.2 160.0 L210.5 160.5 L210.7 160.9 L210.9 161.2 L211.0 161.5 L211.0 161.9 L210.9 162.2 L210.6 162.6 L210.5 162.9 L210.6 163.4 L210.6 163.6 L210.6 163.7 L210.7 163.7 L210.9 163.7 L211.1 163.7 L211.3 163.7 L211.1 163.9 L211.0 164.1 L211.0 164.2 L211.0 164.5 L211.2 165.0 L211.3 165.3 L211.2 165.5 L211.0 166.0 L211.0 166.3 L211.0 166.5 L211.2 166.8 L211.3 167.1 L211.3 167.6 L211.3 167.7 L211.4 168.0 L211.6 168.3 L211.8 168.6 L211.9 168.7 L212.0 168.9 L212.0 169.0 L212.0 169.3 L212.1 169.3 L212.2 169.4 L212.3 169.5 L212.3 169.6 L212.2 169.8 L212.2 169.9 L212.4 170.0 L212.4 170.1 L212.5 170.1 L212.6 170.2 L212.5 170.4 L211.9 170.8 L211.7 170.6 L211.4 170.5 L211.2 170.6 L211.1 170.9 L210.9 171.2 L210.9 171.4 L210.9 171.6 L211.0 171.7 L211.0 171.8 L211.0 172.0 L210.9 172.0 L210.9 172.0 L210.8 172.1 L210.8 172.1 L210.8 172.2 L210.8 172.3 L210.8 172.3 L210.8 172.3 L210.8 172.4 L210.9 172.5 L210.9 172.6 L210.7 172.9 L210.6 173.1 L210.6 173.6 L210.7 173.6 L210.8 173.7 L210.9 173.8 L211.1 174.2 L211.6 175.4 L211.9 176.9 L211.9 177.1 L211.7 177.2 L211.4 177.1 L211.3 177.1 L210.7 178.0 L210.2 177.3 L210.0 177.1 L210.0 176.9 L210.1 176.8 L210.1 176.7 L210.0 176.5 L209.9 176.4 L209.8 176.3 L209.6 176.3 L209.5 176.4 L209.2 176.3 L209.0 176.3 L208.8 176.2 L208.7 175.9 L208.6 176.0 L208.4 176.1 L208.2 176.1 L208.2 176.0 L208.1 175.8 L208.0 175.7 L207.9 175.6 L207.6 175.4 L207.2 175.3 L207.1 175.2 L206.5 174.5 L206.4 174.5 L206.1 174.4 L205.9 174.4 L205.8 174.3 L205.7 174.2 L204.4 174.1 L203.3 173.7 L202.7 173.6 L202.1 173.7 L201.4 174.1 L201.1 174.2 L200.9 174.3 L200.7 174.4 L200.7 174.3 L200.4 174.2 L200.3 174.2 L200.2 174.1 L200.2 174.0 L200.2 173.9 L200.2 173.7 L200.2 173.6 L200.1 173.5 L200.0 173.5 L199.6 173.3 L199.5 173.2 L199.4 173.1 L199.4 172.9 L199.3 172.9 L199.0 172.7 L198.8 172.8 L198.6 172.9 L198.2 172.7 L198.0 173.1 L197.8 173.1 L197.7 173.1 L197.6 173.3 L197.3 173.5 L197.1 173.6 L197.0 173.3 L196.7 173.4 L196.5 173.3 L195.8 172.8 L195.7 172.8 L195.6 173.1 L195.5 173.2 L195.2 173.2 L194.6 173.2 L194.7 172.9 L194.8 172.5 L194.6 172.3 L194.5 172.2 L194.3 171.9 L194.1 171.7 L194.0 171.8 L194.0 172.0 L194.0 172.1 L193.9 172.2 L193.7 172.3 L192.9 172.4 L192.8 172.3 L192.8 172.0 L192.8 171.9 L192.8 171.9 L192.6 172.0 L192.5 172.0 L192.4 171.9 L192.5 171.9 L192.6 171.7 L192.3 171.5 L192.2 171.6 L192.3 171.9 L192.1 171.8 L191.8 171.6 L191.6 171.4 L191.3 171.5 L191.1 171.4 L191.2 171.2 L190.9 171.0 L190.5 170.5 L190.1 170.4 L190.0 170.5 L189.9 170.6 L189.9 170.8 L190.0 170.9 L189.9 171.0 L189.8 171.1 L188.7 171.3 L188.4 171.5 L188.3 171.5 L188.2 171.4 L187.9 171.2 L187.7 171.1 L186.8 171.0 L186.2 171.2 L186.1 171.2 L184.6 171.2 L182.5 171.2 L180.0 171.1 L177.8 171.1 L177.3 171.1 L175.2 171.1 L172.8 171.1 L172.8 170.7 L172.9 170.3 L172.8 170.1 L172.7 170.0 L172.5 169.8 L172.3 169.6 L172.1 169.6 L172.0 169.6 L171.8 169.7 L171.7 169.7 L171.6 169.6 L171.4 169.5 L171.0 169.4 L170.6 169.4 L170.5 169.4 L170.3 169.6 L170.1 169.8 L169.9 169.9 L169.3 169.9 L169.0 169.8 L168.7 169.7 L168.6 169.8 L168.4 169.9 L168.2 169.8 L167.8 169.7 L167.6 169.8 L167.5 169.9 L167.3 169.9 L167.1 169.8 L167.0 169.9 L166.7 169.9 L166.4 169.7 L166.2 169.7 L166.0 169.8 L165.8 169.9 L165.6 170.0 L165.4 170.1 L163.5 169.8 L163.2 169.7 L163.0 169.5 L162.7 169.6 L162.4 169.5 L161.7 169.2 L161.1 169.2 L160.4 169.4 L160.1 169.3 L159.7 169.1 L159.5 169.0 L159.4 169.0 L159.1 169.2 L159.0 169.2 L158.7 169.2 L158.2 169.4 L157.9 169.5 L157.3 169.4 L156.8 169.4 L156.5 169.3 L155.7 169.4 L154.7 169.3 L153.6 169.4 L152.4 169.4 L152.0 169.5 L151.8 169.4 L151.1 169.2 L150.8 169.0 L150.6 168.9 L150.5 168.9 L150.3 168.9 L149.9 169.0 L146.3 169.2 L146.3 169.3 L146.3 169.5 L146.3 169.7 L146.3 169.9 L146.2 170.0 L146.1 170.2 L146.0 170.4 L146.0 170.5 L146.0 170.7 L146.0 170.9 L145.9 171.0 Z" fill="#172033" fill-rule="evenodd"/></svg>
