<svg xmlns="http://www.w3.org/2000/svg" viewBox="0 0 320 200" role="img"><path d="M273.5 141.4 L273.5 139.5 L272.4 139.5 L272.4 139.4 L272.6 139.3 L272.9 139.0 L273.3 139.0 L273.6 138.4 L273.7 138.1 L273.6 137.9 L273.5 137.2 L273.0 137.3 L272.8 137.7 L272.6 137.9 L272.4 138.2 L272.2 138.1 L271.9 138.0 L271.6 138.1 L271.4 138.4 L271.3 138.7 L271.4 139.0 L271.6 139.0 L271.7 139.0 L271.8 139.0 L271.9 138.9 L272.0 138.8 L272.0 138.9 L272.1 139.2 L271.8 139.4 L271.8 139.5 L271.3 139.5 L270.0 140.4 L269.9 141.3 L268.6 141.6 L266.1 141.8 L265.8 141.8 L265.0 141.6 L264.7 141.4 L264.5 141.4 L264.5 141.5 L264.2 141.7 L264.1 141.8 L263.4 141.9 L262.6 141.9 L261.8 141.7 L261.3 141.4 L260.4 141.5 L259.4 141.0 L258.3 140.3 L257.5 139.9 L256.9 139.8 L255.1 139.9 L254.6 139.8 L253.6 139.6 L253.1 139.5 L252.1 139.6 L251.6 139.8 L251.2 140.0 L250.9 140.0 L247.5 139.2 L245.2 139.0 L244.0 139.0 L242.0 139.5 L241.0 139.7 L239.2 139.7 L238.6 139.8 L237.5 140.1 L237.0 140.2 L233.7 140.0 L230.4 140.3 L229.9 140.6 L229.3 140.5 L228.8 140.4 L228.3 140.4 L227.9 140.5 L227.0 141.2 L226.5 141.4 L225.9 141.6 L222.6 141.7 L221.9 141.6 L220.7 141.1 L220.0 141.0 L219.7 141.3 L219.5 141.3 L219.3 141.1 L219.0 141.1 L218.8 141.2 L218.6 141.4 L218.0 141.2 L217.2 141.2 L216.6 141.3 L216.2 141.8 L216.9 141.8 L216.9 142.0 L216.4 142.0 L215.7 142.2 L215.2 142.3 L212.9 142.4 L211.2 142.7 L210.3 142.8 L209.2 142.8 L207.7 143.2 L207.2 143.2 L206.8 143.1 L206.5 143.0 L206.2 142.7 L206.0 142.5 L206.1 142.0 L206.5 141.2 L206.6 140.9 L206.8 140.9 L207.1 140.8 L207.3 140.7 L207.4 140.6 L207.6 140.3 L207.8 140.2 L207.7 139.9 L207.8 139.7 L208.3 139.3 L208.9 138.6 L208.9 138.5 L209.0 138.3 L210.2 137.2 L210.2 137.0 L209.8 136.7 L209.9 136.5 L210.1 136.5 L210.8 136.8 L211.0 136.5 L211.5 136.4 L211.6 136.3 L211.7 136.1 L212.2 135.5 L212.6 135.2 L213.7 134.6 L214.1 134.1 L214.6 133.7 L217.2 132.6 L217.7 132.5 L218.0 132.3 L218.4 131.4 L218.8 131.1 L218.9 131.1 L219.0 131.1 L219.1 131.1 L219.0 131.4 L219.2 131.6 L219.5 131.6 L219.9 131.5 L220.2 131.3 L220.5 130.9 L220.7 130.6 L220.7 130.2 L220.9 130.0 L221.9 129.4 L222.0 128.2 L222.2 128.0 L222.4 127.8 L222.7 126.9 L221.9 125.7 L221.7 125.5 L221.0 125.1 L220.1 124.7 L219.8 124.7 L220.0 125.0 L219.9 125.2 L219.4 124.8 L219.0 124.7 L218.7 124.4 L218.6 123.9 L218.7 123.7 L218.9 123.6 L219.1 123.5 L219.3 123.4 L219.9 122.7 L219.9 122.5 L218.9 122.0 L218.4 121.9 L218.3 122.4 L217.7 121.9 L217.3 121.3 L216.8 120.7 L216.1 120.5 L215.4 120.5 L214.6 120.7 L213.9 121.0 L213.6 121.3 L213.3 121.2 L213.2 121.2 L213.0 121.3 L212.9 121.3 L212.6 121.4 L212.4 121.5 L212.3 121.5 L212.0 121.5 L211.5 121.4 L210.2 121.0 L209.2 121.5 L209.0 121.5 L208.6 121.2 L208.5 121.2 L208.3 121.1 L207.5 121.2 L207.3 121.1 L206.8 121.0 L206.7 120.9 L206.6 121.0 L206.2 121.0 L205.0 120.9 L204.5 120.8 L203.9 120.3 L203.4 120.2 L202.5 120.1 L201.9 120.2 L201.5 120.5 L201.2 120.8 L200.8 121.0 L199.1 121.0 L198.3 120.8 L198.0 120.3 L197.8 120.3 L197.7 120.6 L196.8 119.7 L196.5 119.6 L196.0 119.5 L195.6 119.2 L195.2 118.4 L194.9 118.1 L194.5 117.7 L193.9 117.4 L193.5 117.4 L193.3 117.5 L193.2 117.4 L193.2 117.2 L193.1 117.0 L192.8 116.6 L192.6 116.4 L192.6 116.2 L192.4 115.8 L190.6 114.6 L190.2 114.5 L189.3 114.5 L189.0 114.3 L188.7 114.0 L188.4 113.3 L188.0 113.0 L187.1 112.3 L186.9 112.3 L186.7 112.0 L186.5 111.2 L186.5 109.5 L186.3 108.8 L185.9 108.1 L185.6 107.4 L185.8 106.6 L186.0 106.9 L186.3 106.9 L186.5 106.8 L186.6 106.4 L186.4 106.1 L185.6 105.9 L185.4 105.7 L185.4 105.2 L185.1 104.4 L185.1 103.9 L185.0 103.5 L184.5 102.7 L184.4 102.3 L184.2 101.5 L183.8 100.7 L183.3 100.0 L182.8 99.5 L182.3 99.2 L182.0 99.1 L180.6 98.9 L180.3 98.8 L180.2 98.6 L180.3 98.2 L180.6 98.4 L180.9 98.4 L181.6 98.4 L181.7 98.3 L181.6 98.0 L181.3 97.6 L181.1 97.5 L180.9 97.3 L180.3 97.0 L180.0 96.9 L179.8 96.9 L179.6 97.1 L179.3 97.2 L178.1 97.4 L176.9 97.6 L176.8 97.6 L176.6 97.7 L176.5 97.9 L176.5 98.0 L176.4 98.1 L176.2 98.1 L175.4 98.1 L175.1 98.0 L174.8 98.0 L174.6 98.1 L174.4 97.9 L173.9 98.1 L173.5 98.2 L172.4 98.2 L171.9 98.3 L170.5 98.9 L169.5 99.2 L168.5 99.3 L167.4 99.2 L165.4 98.6 L165.0 98.4 L164.5 98.0 L164.1 97.9 L162.8 98.1 L162.3 98.1 L161.8 97.9 L161.5 97.8 L161.3 97.6 L160.9 96.9 L160.7 96.7 L160.6 96.9 L160.5 97.2 L160.3 97.4 L160.0 97.4 L159.8 97.3 L159.5 97.1 L159.4 97.0 L158.3 96.7 L158.2 96.7 L157.9 96.5 L157.8 96.3 L157.7 96.0 L157.5 95.7 L157.2 95.6 L155.4 95.6 L153.7 95.1 L153.0 95.1 L152.7 95.5 L152.5 96.0 L152.1 95.9 L151.5 95.6 L151.0 95.4 L151.0 95.3 L151.5 95.1 L151.5 94.9 L151.1 94.8 L151.0 94.6 L151.0 94.2 L151.0 93.9 L150.5 94.2 L150.1 94.3 L149.6 94.3 L149.0 94.2 L148.5 94.0 L148.2 94.0 L148.0 94.0 L147.9 94.2 L148.1 94.4 L148.3 94.5 L148.5 94.6 L148.2 94.9 L147.7 94.7 L147.3 94.2 L147.1 93.8 L147.1 93.2 L146.9 92.8 L146.6 92.4 L146.1 92.3 L145.6 92.2 L144.6 91.8 L143.5 91.6 L142.7 91.0 L141.4 90.6 L140.6 90.0 L137.8 87.2 L137.8 87.1 L137.8 87.0 L137.8 86.8 L137.7 86.7 L137.5 86.7 L137.2 86.7 L137.1 86.7 L136.9 86.5 L136.8 86.3 L136.8 86.0 L137.2 86.1 L137.6 86.1 L138.0 85.9 L138.4 85.7 L138.0 85.8 L137.8 85.8 L137.9 85.6 L138.1 85.4 L138.2 85.2 L138.2 85.0 L138.0 84.9 L137.7 85.0 L137.4 84.9 L137.5 84.6 L137.0 84.6 L136.6 84.4 L136.6 84.1 L137.0 83.7 L136.4 83.4 L136.1 83.2 L135.9 82.9 L135.8 83.1 L135.4 83.2 L135.1 83.2 L134.7 83.0 L134.6 83.6 L134.8 83.9 L135.6 84.4 L135.9 84.9 L136.3 85.5 L136.4 86.1 L136.3 86.7 L135.2 86.3 L132.0 86.4 L128.9 86.2 L125.2 86.6 L123.0 86.4 L122.5 86.2 L121.5 85.8 L120.5 85.6 L120.1 85.3 L119.9 84.9 L119.2 83.6 L119.1 83.4 L119.1 83.0 L119.3 81.9 L119.2 81.8 L118.5 80.8 L118.2 80.6 L117.8 80.6 L117.5 80.7 L117.4 80.9 L117.4 81.2 L117.7 82.3 L117.8 85.4 L117.6 86.2 L117.0 86.2 L117.4 85.6 L117.3 84.8 L116.9 84.1 L116.7 83.9 L116.0 84.1 L115.8 84.2 L115.7 84.5 L115.8 84.9 L115.6 85.1 L115.3 85.3 L115.1 85.2 L115.0 85.0 L114.8 85.0 L114.6 85.1 L114.5 85.3 L114.5 85.4 L114.2 85.5 L113.2 85.1 L112.7 83.4 L111.7 83.0 L110.5 83.0 L110.2 82.9 L109.7 82.6 L109.4 82.5 L109.2 82.6 L108.8 82.9 L108.6 83.0 L108.5 83.0 L108.4 83.1 L108.4 83.2 L108.2 83.2 L108.1 83.2 L108.1 82.9 L107.9 82.9 L106.9 82.5 L106.8 82.4 L106.5 82.3 L106.2 82.3 L106.0 82.6 L105.8 82.7 L105.2 82.7 L104.6 82.7 L104.3 82.5 L104.1 82.5 L104.0 82.8 L103.9 82.9 L103.4 82.9 L103.5 83.0 L103.5 83.0 L103.6 83.2 L103.3 83.2 L102.1 83.1 L101.7 82.9 L101.1 82.3 L100.9 81.9 L100.8 81.5 L100.3 81.1 L96.7 79.8 L96.3 79.6 L96.0 79.3 L95.7 79.1 L95.2 79.1 L95.0 79.0 L94.9 78.9 L94.6 78.4 L94.6 78.3 L94.2 78.3 L93.8 78.3 L93.3 78.1 L93.1 77.6 L93.2 77.2 L93.5 77.0 L93.9 76.8 L94.2 76.7 L97.2 76.8 L98.1 76.6 L98.8 76.7 L99.6 76.6 L100.1 76.6 L100.7 76.7 L101.3 76.8 L102.6 76.6 L103.6 76.2 L103.9 76.2 L104.2 76.1 L104.7 76.1 L105.0 76.0 L105.3 75.9 L105.7 75.6 L105.9 75.4 L106.2 75.3 L106.1 74.8 L106.2 74.5 L106.2 74.1 L106.4 73.4 L106.4 73.1 L106.0 73.0 L105.6 73.0 L104.9 72.5 L104.4 72.1 L103.6 71.5 L102.7 71.2 L100.4 70.4 L99.5 70.4 L97.5 70.6 L94.7 71.0 L93.9 70.7 L92.2 70.3 L90.2 70.3 L89.2 70.4 L88.6 70.4 L88.1 70.4 L87.3 70.2 L85.6 70.4 L84.2 70.1 L84.0 70.1 L83.5 70.4 L83.2 70.4 L82.0 70.2 L81.1 70.4 L78.4 69.7 L77.9 69.7 L77.3 70.0 L77.1 70.4 L77.0 70.9 L77.0 71.4 L76.8 71.9 L76.5 72.1 L75.6 72.4 L74.1 73.6 L73.8 73.8 L73.2 73.8 L72.8 73.9 L71.1 74.7 L70.2 75.3 L69.5 75.9 L68.1 78.5 L67.5 79.1 L66.7 79.2 L65.8 79.0 L65.5 78.9 L65.1 79.0 L65.1 79.1 L65.1 79.4 L65.1 79.5 L65.0 79.5 L64.9 79.5 L64.7 79.6 L64.6 79.5 L64.5 79.5 L64.4 79.6 L64.4 80.0 L64.4 80.1 L63.5 80.6 L63.2 80.9 L63.0 81.1 L63.0 81.3 L63.0 81.3 L63.0 81.5 L62.8 81.8 L62.7 82.0 L62.5 82.2 L62.4 82.1 L62.4 82.0 L62.3 82.3 L62.2 82.5 L62.0 82.2 L61.8 82.1 L61.6 82.2 L61.6 82.6 L61.1 83.0 L59.9 83.1 L58.6 83.0 L57.4 82.5 L57.6 82.3 L57.6 82.0 L57.4 81.8 L57.2 81.5 L57.1 81.5 L56.7 82.1 L56.1 82.8 L55.3 83.2 L54.6 83.4 L54.7 83.3 L54.7 83.1 L54.8 83.0 L52.0 83.4 L51.8 83.4 L51.7 83.3 L51.7 83.1 L51.6 82.9 L51.6 82.9 L51.4 82.9 L51.1 83.3 L50.7 83.4 L48.7 83.3 L48.1 83.4 L47.1 84.3 L47.1 84.5 L46.9 85.2 L46.7 85.5 L46.9 85.7 L46.9 85.8 L46.9 86.2 L46.6 86.0 L46.4 86.0 L46.2 86.3 L46.2 86.7 L46.4 87.0 L46.7 87.2 L47.0 87.1 L47.3 86.9 L47.1 87.4 L46.2 88.0 L46.0 88.5 L46.1 88.7 L46.3 88.8 L46.4 89.0 L46.3 89.2 L46.1 89.5 L45.8 89.7 L45.5 89.8 L45.2 89.9 L44.7 89.7 L43.7 89.3 L43.2 89.2 L42.6 89.3 L41.6 89.8 L41.1 90.0 L40.9 90.0 L40.4 90.0 L40.1 90.0 L39.8 90.1 L39.2 90.5 L38.4 90.7 L35.4 93.1 L34.3 93.6 L33.3 93.7 L32.9 93.2 L33.9 91.2 L34.1 90.2 L33.6 89.4 L32.6 89.3 L31.4 89.4 L29.4 90.0 L28.4 90.4 L25.8 92.0 L24.8 92.3 L23.7 92.3 L22.6 91.9 L22.3 91.7 L22.1 91.3 L22.0 90.9 L22.1 90.5 L22.2 90.3 L22.3 90.1 L22.5 89.9 L22.6 89.9 L22.8 89.9 L22.8 90.1 L22.9 90.2 L23.0 90.3 L23.2 90.5 L23.4 90.5 L23.6 90.6 L23.8 90.6 L24.3 90.4 L24.6 90.1 L24.6 89.8 L24.2 89.5 L24.6 89.3 L25.0 89.3 L25.2 89.5 L25.2 90.0 L27.3 89.0 L29.2 88.5 L31.3 87.6 L32.7 86.6 L32.9 86.5 L33.3 86.5 L33.6 86.5 L33.7 86.7 L33.6 86.9 L34.4 87.2 L35.0 87.0 L35.6 86.7 L36.3 86.5 L36.7 86.6 L37.2 86.9 L37.5 87.2 L37.7 87.5 L37.8 87.6 L38.5 87.2 L38.9 87.2 L39.2 85.8 L38.9 86.1 L38.7 86.6 L38.4 86.8 L38.0 86.5 L37.9 86.0 L37.9 85.7 L37.8 85.4 L37.3 85.1 L37.5 84.6 L37.7 84.4 L37.2 84.4 L36.7 84.2 L36.2 84.0 L35.9 83.7 L35.7 83.4 L35.5 82.9 L35.3 82.6 L34.9 82.5 L35.1 82.3 L35.4 81.9 L35.6 81.4 L35.7 81.0 L35.8 80.4 L35.9 79.9 L36.3 78.8 L36.3 78.7 L36.7 78.0 L36.8 78.0 L37.1 78.0 L37.2 77.9 L37.3 77.7 L37.4 77.4 L37.5 77.3 L38.0 76.5 L38.4 76.1 L38.9 75.9 L38.9 75.7 L38.3 75.7 L38.8 75.3 L39.9 75.2 L40.4 74.9 L40.7 74.5 L41.0 73.9 L41.1 73.4 L40.8 73.1 L40.8 72.9 L41.1 73.0 L41.3 73.1 L41.7 72.8 L42.0 72.8 L42.3 72.9 L42.5 73.2 L42.8 72.3 L42.9 72.0 L43.2 71.9 L43.8 71.9 L44.0 71.8 L44.0 71.5 L44.1 71.1 L44.2 70.8 L44.6 70.9 L44.9 71.1 L45.2 71.0 L45.4 70.7 L45.7 70.4 L45.5 70.1 L45.2 70.0 L44.9 69.9 L44.5 69.9 L44.6 69.7 L44.8 69.6 L45.0 69.4 L45.2 69.4 L45.7 69.5 L45.9 69.8 L46.0 70.1 L46.3 70.3 L46.6 70.2 L46.9 70.1 L48.5 69.0 L48.8 69.4 L49.1 68.8 L49.5 68.6 L50.6 68.5 L51.0 68.4 L52.8 67.6 L53.7 67.3 L54.1 67.3 L54.4 67.3 L54.7 67.5 L55.0 67.5 L55.1 67.4 L55.5 67.2 L55.7 67.1 L55.7 66.9 L55.5 67.0 L55.3 67.1 L55.3 67.0 L55.3 67.0 L55.3 66.9 L55.1 66.9 L55.7 66.6 L56.2 66.5 L57.5 66.4 L57.6 66.3 L57.9 65.5 L58.1 65.4 L59.2 65.4 L59.1 65.5 L59.0 65.6 L59.0 65.7 L59.5 65.8 L59.8 65.5 L60.0 65.1 L60.2 64.8 L60.6 64.7 L60.9 64.8 L61.2 65.0 L61.6 65.2 L61.4 65.5 L61.7 65.4 L62.1 65.1 L62.3 64.9 L62.5 64.5 L62.9 64.0 L63.3 63.5 L63.8 63.3 L64.1 63.2 L65.5 62.4 L66.0 62.2 L66.4 62.2 L66.9 62.3 L67.2 62.6 L67.2 62.7 L67.0 62.9 L66.9 63.2 L66.9 63.6 L67.1 63.9 L67.4 64.0 L67.7 63.9 L67.9 63.6 L68.1 63.4 L67.6 63.1 L67.7 62.8 L68.0 62.5 L68.6 62.2 L69.7 62.0 L69.9 62.0 L70.2 61.7 L70.3 61.7 L70.6 61.7 L71.0 62.0 L71.2 62.0 L71.4 62.0 L71.5 61.8 L71.7 61.7 L71.9 61.9 L72.1 62.1 L71.9 62.2 L71.7 62.3 L71.6 62.4 L71.7 62.7 L71.8 62.7 L72.0 62.7 L72.3 62.4 L72.2 62.9 L72.7 62.9 L73.2 62.6 L73.2 62.6 L73.5 62.0 L73.8 61.4 L74.7 61.4 L75.6 61.5 L76.2 61.4 L76.8 61.2 L79.1 61.3 L81.4 61.1 L82.1 60.8 L82.6 60.9 L83.7 60.3 L84.2 60.1 L84.4 60.0 L84.6 59.7 L84.8 59.6 L85.1 59.6 L85.3 59.5 L85.7 59.2 L86.5 58.7 L86.9 58.5 L87.9 58.3 L89.1 57.9 L90.9 57.6 L91.7 57.3 L93.4 57.7 L94.0 57.6 L94.7 57.5 L95.0 57.4 L95.6 57.3 L95.9 57.3 L96.1 57.2 L96.4 57.1 L96.7 57.2 L97.6 57.9 L98.4 58.1 L100.0 58.2 L100.8 58.4 L101.3 58.2 L105.3 58.2 L106.0 58.2 L106.4 58.2 L106.7 58.0 L107.0 58.2 L107.3 58.2 L107.6 58.2 L107.9 58.2 L108.1 58.3 L108.6 58.6 L109.1 58.9 L109.2 59.4 L109.1 60.0 L109.0 60.5 L108.8 60.7 L108.7 60.8 L108.7 60.9 L109.0 61.0 L109.3 61.0 L109.6 61.0 L110.0 60.8 L110.1 60.7 L110.2 60.1 L110.3 59.9 L110.5 59.7 L110.7 59.6 L110.9 59.6 L113.1 59.3 L113.4 59.2 L113.6 58.9 L114.3 58.7 L115.5 58.5 L115.9 58.4 L116.8 58.0 L117.4 57.6 L118.6 56.9 L119.0 56.8 L119.4 57.0 L119.1 57.3 L118.4 57.6 L117.2 57.8 L115.8 58.6 L115.5 58.9 L115.5 59.1 L116.6 59.3 L118.1 60.9 L119.0 61.3 L119.5 61.4 L119.7 61.2 L119.9 61.0 L120.3 60.6 L120.4 60.3 L120.7 59.7 L120.8 59.6 L121.1 59.6 L121.6 59.4 L121.8 59.4 L122.8 59.6 L123.0 59.6 L123.1 59.5 L123.1 59.6 L123.2 60.0 L123.3 60.6 L123.8 60.7 L124.4 60.6 L124.9 60.5 L128.9 59.8 L129.5 59.7 L130.7 60.0 L131.4 60.0 L131.9 59.7 L132.4 59.4 L132.5 58.9 L132.1 58.4 L132.4 58.2 L132.7 58.2 L133.1 58.3 L133.3 58.4 L133.3 58.5 L133.1 58.7 L132.4 60.0 L133.1 60.4 L133.2 60.5 L134.1 62.1 L134.6 62.4 L135.0 62.4 L136.1 62.6 L136.4 62.7 L136.7 63.0 L136.9 63.2 L137.3 63.5 L137.7 63.6 L139.2 63.6 L139.5 63.7 L139.9 64.0 L140.3 64.2 L140.7 64.4 L141.2 64.5 L142.0 64.5 L142.8 64.4 L144.3 63.8 L144.1 63.2 L144.6 63.2 L145.9 63.8 L146.5 64.0 L147.0 63.9 L147.1 63.3 L147.4 63.4 L147.7 63.6 L147.9 63.8 L148.0 64.1 L148.5 65.0 L148.6 65.2 L149.6 65.7 L149.7 65.7 L150.2 65.7 L150.3 65.8 L150.4 65.9 L150.4 66.0 L150.4 66.1 L151.0 65.9 L151.8 65.2 L153.4 64.8 L153.6 64.8 L153.6 65.0 L153.3 65.2 L152.9 65.5 L152.3 65.3 L152.0 65.5 L151.7 66.4 L151.9 66.8 L152.1 67.0 L152.3 67.1 L152.6 67.2 L153.7 67.3 L154.1 67.4 L155.6 68.4 L155.7 68.5 L155.8 68.6 L155.9 68.7 L156.1 68.6 L156.2 68.5 L156.4 68.4 L156.4 68.3 L157.0 68.3 L157.2 68.4 L157.8 71.0 L157.8 71.0 L158.2 71.1 L158.5 71.3 L158.8 71.5 L159.1 71.8 L159.4 72.2 L159.7 72.9 L160.0 73.3 L160.6 74.0 L160.8 74.1 L161.1 74.2 L161.9 74.2 L162.2 74.3 L162.8 75.2 L163.0 75.5 L163.2 75.7 L165.1 77.2 L165.8 77.5 L166.5 77.4 L166.8 77.7 L167.3 78.0 L167.7 78.2 L167.9 77.9 L168.2 77.8 L169.5 78.1 L170.0 78.1 L170.3 77.9 L170.3 77.8 L170.4 77.7 L170.7 77.6 L171.0 77.7 L171.4 77.9 L171.7 78.0 L172.2 77.9 L173.2 77.5 L173.7 77.4 L174.3 77.4 L175.7 77.6 L178.2 77.8 L179.4 77.8 L179.5 78.0 L180.0 79.5 L180.1 79.5 L180.3 79.4 L180.6 79.7 L180.8 79.5 L181.2 78.7 L180.9 78.2 L180.7 78.1 L180.5 78.0 L180.5 77.8 L181.3 77.9 L182.1 78.6 L184.9 79.6 L185.2 79.8 L185.4 80.1 L185.9 80.5 L186.5 80.9 L187.0 81.1 L187.6 81.3 L189.1 81.5 L189.6 81.5 L189.6 81.6 L189.6 82.0 L189.6 82.2 L189.9 82.0 L190.0 82.0 L190.1 82.2 L190.4 82.7 L190.6 82.9 L190.8 83.1 L191.2 83.3 L191.4 83.5 L191.6 83.6 L191.9 83.6 L192.2 83.6 L192.4 83.6 L193.3 83.9 L193.7 84.0 L194.9 84.1 L195.2 84.2 L195.2 84.5 L195.2 84.7 L195.4 85.0 L195.6 85.0 L196.2 85.0 L196.1 85.0 L196.1 85.1 L196.3 85.4 L196.6 85.5 L197.0 85.6 L197.2 85.6 L197.3 85.7 L197.7 85.5 L197.9 85.8 L198.2 86.4 L198.7 86.9 L198.9 87.1 L199.0 87.5 L199.5 88.3 L199.7 88.5 L200.0 88.6 L200.3 88.8 L201.5 89.9 L201.6 90.2 L202.0 90.9 L202.2 91.1 L202.5 91.0 L202.6 90.8 L202.8 88.9 L202.9 88.6 L203.2 88.5 L203.9 88.6 L204.3 88.6 L204.0 88.9 L203.2 89.0 L203.1 89.2 L203.1 89.7 L203.2 90.0 L203.4 90.3 L203.6 90.6 L203.9 90.8 L204.1 90.9 L204.7 90.9 L205.0 91.1 L205.2 91.5 L205.3 91.9 L205.3 92.2 L205.4 92.5 L205.7 92.7 L206.0 92.9 L206.7 93.1 L206.9 93.1 L207.2 93.0 L207.5 93.1 L207.7 93.2 L207.9 93.3 L209.4 93.1 L209.9 93.2 L210.3 93.4 L211.4 94.0 L211.5 93.7 L211.7 93.5 L212.3 93.3 L212.4 93.6 L212.5 93.7 L212.7 93.8 L213.0 93.7 L213.0 93.6 L212.9 93.4 L212.9 93.3 L213.2 93.4 L213.6 93.7 L214.1 94.2 L213.7 94.3 L213.5 94.1 L213.3 94.1 L213.2 94.6 L213.3 95.0 L213.6 95.8 L213.7 96.2 L213.9 96.5 L214.2 96.6 L215.0 96.7 L215.6 97.0 L215.7 97.0 L216.0 97.0 L216.1 96.9 L216.2 96.7 L216.3 96.7 L216.2 96.5 L216.1 96.2 L215.9 95.9 L215.2 95.7 L214.9 95.3 L214.6 94.6 L214.5 94.0 L214.3 93.8 L214.2 93.7 L213.7 93.5 L213.6 93.4 L213.5 93.2 L213.4 92.8 L213.1 92.6 L212.7 92.8 L212.3 92.5 L212.0 92.8 L211.6 92.6 L210.9 91.8 L210.0 91.0 L209.7 90.6 L209.5 90.6 L209.2 90.7 L209.4 90.3 L209.8 89.8 L210.3 89.5 L210.7 89.6 L211.5 90.3 L211.6 90.5 L211.8 91.1 L211.9 91.3 L214.6 93.1 L215.1 93.3 L216.4 93.7 L216.8 94.0 L217.1 94.3 L218.0 95.0 L218.4 95.1 L219.9 96.1 L220.2 96.3 L220.6 96.4 L221.0 96.4 L221.4 96.3 L221.2 96.8 L221.4 97.1 L221.6 97.3 L221.8 97.6 L221.7 98.1 L221.1 98.7 L220.9 99.1 L220.7 99.0 L220.2 98.5 L220.1 98.4 L218.5 97.7 L218.1 97.6 L217.6 97.6 L217.6 97.6 L217.5 97.7 L217.4 97.8 L217.4 97.8 L217.3 97.9 L217.2 97.9 L217.1 97.8 L216.8 97.7 L216.6 97.4 L216.3 97.4 L215.8 97.4 L215.5 97.7 L215.6 97.9 L215.9 98.1 L216.2 98.1 L216.4 98.3 L216.6 98.5 L216.9 98.6 L217.1 98.7 L217.8 98.6 L218.3 98.8 L218.5 99.2 L218.3 99.6 L217.8 99.8 L217.8 100.0 L217.9 100.5 L218.1 100.9 L218.3 101.1 L218.5 101.2 L219.1 101.1 L219.5 101.1 L219.3 101.6 L219.6 101.5 L220.2 101.2 L220.2 101.2 L220.5 101.1 L220.7 101.0 L220.9 100.6 L221.3 99.3 L221.9 98.1 L222.1 97.9 L222.6 97.8 L223.1 98.1 L225.8 101.2 L226.2 101.6 L226.3 101.6 L226.6 101.8 L227.6 102.3 L229.0 102.5 L229.3 102.8 L229.1 103.1 L229.6 103.1 L229.5 103.7 L229.3 103.9 L229.0 104.0 L228.1 104.1 L227.7 104.2 L227.5 104.4 L227.4 104.8 L227.7 105.4 L229.0 104.8 L228.9 105.4 L229.2 105.3 L229.3 105.0 L229.4 104.7 L229.5 104.4 L229.3 104.4 L229.7 103.9 L229.8 103.6 L229.8 103.3 L231.4 103.8 L231.5 103.8 L231.7 103.7 L231.8 103.7 L232.3 104.0 L232.9 104.2 L233.2 104.2 L233.6 104.4 L234.0 104.7 L234.1 105.1 L233.9 105.2 L233.5 105.3 L232.1 105.9 L232.2 105.5 L231.9 105.3 L231.7 105.3 L231.7 105.6 L231.6 106.0 L232.0 106.2 L232.5 106.2 L232.9 106.4 L233.3 106.7 L233.7 106.8 L234.2 106.9 L234.7 107.0 L234.7 106.8 L234.2 106.6 L234.0 106.5 L233.8 106.3 L233.7 105.9 L233.7 105.8 L234.2 105.6 L234.6 105.6 L235.2 105.7 L235.8 106.1 L236.1 106.5 L236.3 106.5 L236.3 105.9 L236.5 105.9 L236.4 107.0 L236.1 107.3 L234.7 107.3 L234.7 107.5 L235.2 107.5 L235.0 107.7 L234.9 107.7 L235.1 108.0 L235.3 108.0 L235.6 107.9 L235.9 107.9 L236.2 108.0 L236.4 108.5 L236.6 108.6 L236.8 108.5 L236.9 108.4 L237.1 108.2 L237.2 108.1 L237.2 108.0 L237.4 108.0 L237.5 108.0 L237.7 108.0 L238.4 107.6 L238.7 107.5 L238.3 107.4 L237.5 107.3 L237.2 107.2 L236.9 106.8 L236.8 106.4 L236.9 106.1 L237.4 105.9 L240.5 106.0 L241.1 106.2 L241.5 106.5 L242.3 106.8 L242.4 106.8 L243.0 107.3 L243.3 107.5 L246.0 108.5 L246.8 109.0 L247.0 109.6 L247.0 109.8 L247.0 110.4 L247.1 110.7 L247.4 110.9 L247.6 110.9 L247.8 110.7 L248.2 110.5 L248.5 110.4 L248.9 110.5 L249.1 110.6 L249.3 110.8 L249.4 111.0 L249.4 111.4 L249.6 111.4 L249.6 111.2 L249.7 111.1 L249.8 111.0 L249.9 111.4 L250.2 111.5 L250.3 111.3 L250.3 110.8 L250.5 110.9 L251.2 110.9 L251.5 110.8 L251.7 110.7 L252.1 110.4 L252.3 110.3 L252.6 110.3 L252.9 110.4 L253.2 110.5 L253.4 111.0 L253.6 111.0 L253.7 110.9 L253.6 110.7 L254.9 109.8 L255.0 109.8 L255.4 110.0 L255.5 110.0 L255.6 110.2 L255.9 110.2 L256.3 110.1 L257.2 110.1 L257.9 110.2 L258.4 110.6 L258.6 111.5 L259.6 111.3 L260.2 111.7 L261.1 112.9 L260.6 114.0 L260.4 114.2 L260.2 114.4 L260.1 114.5 L260.0 114.7 L259.9 115.1 L259.9 115.2 L259.7 115.5 L259.3 115.8 L258.9 116.1 L258.5 116.1 L258.4 115.8 L258.3 115.4 L258.1 115.2 L257.8 115.4 L257.6 115.2 L257.4 115.2 L257.3 115.3 L257.1 115.4 L257.3 115.4 L257.5 115.5 L257.6 115.6 L257.6 115.7 L256.9 115.8 L256.9 116.1 L257.2 116.5 L257.5 117.0 L257.6 117.0 L257.9 116.6 L258.6 116.4 L259.3 116.3 L259.9 116.4 L261.0 116.9 L261.1 117.0 L261.1 117.4 L261.2 117.7 L261.5 117.8 L261.8 117.8 L261.6 118.4 L261.3 118.4 L260.8 118.2 L260.5 118.0 L260.3 118.0 L260.2 117.8 L260.2 117.6 L260.1 117.5 L259.9 117.3 L259.8 117.3 L258.4 117.5 L257.9 117.6 L256.2 117.5 L256.4 117.8 L256.3 118.1 L256.1 118.7 L256.1 118.9 L256.1 119.2 L256.0 119.5 L255.9 119.7 L256.1 120.0 L256.4 120.5 L257.4 121.0 L257.8 121.2 L258.0 120.9 L258.2 120.3 L259.5 119.4 L259.7 118.9 L260.1 119.2 L260.4 119.6 L260.4 120.0 L260.2 120.5 L260.9 120.4 L261.1 120.5 L261.0 120.7 L261.0 121.0 L261.2 121.1 L261.8 121.3 L261.7 120.8 L263.2 121.1 L263.6 120.6 L263.7 120.6 L263.8 120.8 L264.0 120.9 L264.2 121.0 L264.4 121.2 L264.6 120.6 L264.2 120.5 L264.0 120.4 L263.7 120.5 L264.0 120.1 L264.7 119.9 L265.3 119.9 L265.8 119.9 L266.3 120.1 L266.8 120.4 L267.0 120.7 L266.4 120.8 L266.6 121.1 L266.7 121.5 L266.9 121.5 L266.9 121.4 L267.1 121.2 L267.3 121.7 L267.9 121.8 L269.3 121.7 L268.9 121.4 L267.9 120.9 L267.4 120.8 L267.7 120.5 L268.4 120.3 L269.0 120.3 L269.5 120.5 L269.3 120.3 L269.7 120.3 L270.9 120.5 L271.2 120.7 L271.3 120.9 L270.9 121.0 L270.9 121.2 L271.6 121.3 L271.7 121.3 L271.7 121.2 L271.7 121.2 L271.8 121.2 L272.1 121.4 L272.5 121.2 L272.9 121.3 L273.2 121.9 L273.2 121.7 L273.3 121.5 L273.4 121.3 L273.6 121.5 L273.8 121.6 L274.0 121.6 L274.2 121.5 L273.9 121.2 L275.9 120.9 L276.4 121.1 L276.7 121.2 L276.9 121.2 L277.1 121.3 L277.2 121.6 L277.4 121.7 L277.8 121.7 L278.4 121.7 L278.8 122.0 L279.2 122.3 L279.7 122.6 L281.7 122.8 L282.2 123.0 L282.6 123.2 L282.4 123.4 L282.3 123.4 L282.6 124.0 L282.6 124.3 L282.7 124.4 L282.8 124.4 L283.0 124.5 L283.1 124.6 L283.3 124.7 L284.2 125.0 L284.3 125.3 L284.8 125.7 L285.9 126.4 L286.2 126.6 L286.4 127.2 L287.2 128.2 L287.4 128.3 L287.5 128.5 L288.8 129.7 L289.0 129.8 L289.3 129.9 L289.9 130.0 L290.6 130.4 L291.2 130.9 L291.4 131.5 L291.6 131.5 L291.9 131.1 L292.4 131.1 L293.0 131.3 L293.5 131.3 L293.9 131.1 L294.3 130.8 L294.8 130.6 L295.4 130.6 L295.7 130.7 L295.9 130.9 L296.4 131.3 L297.3 131.8 L297.6 132.2 L297.8 132.6 L297.9 133.1 L298.0 133.6 L297.8 134.1 L297.2 134.4 L296.7 134.6 L296.3 135.0 L295.8 135.3 L295.6 135.3 L295.5 135.5 L295.4 136.4 L294.6 137.0 L293.6 137.0 L292.5 136.8 L291.4 136.7 L289.8 137.0 L288.7 137.1 L286.6 137.6 L285.6 137.4 L284.8 137.7 L283.2 137.5 L281.3 137.8 L280.6 137.8 L280.0 138.1 L279.6 138.5 L279.2 138.9 L278.7 139.2 L278.2 139.3 L277.6 139.3 L277.2 139.4 L277.0 139.6 L276.9 140.1 L276.4 140.8 L275.6 141.0 L274.7 141.1 L274.6 140.8 L274.4 140.8 L274.3 140.8 L274.2 141.0 L274.2 141.2 L273.5 141.4 L273.5 141.4 Z M82.8 97.0 L82.6 97.3 L82.8 97.7 L83.2 97.9 L83.5 98.1 L83.2 98.5 L82.7 99.0 L82.1 99.4 L81.6 99.6 L81.2 99.7 L77.9 101.3 L75.9 101.9 L74.1 102.1 L73.8 102.0 L73.6 101.8 L71.9 101.7 L71.7 101.7 L71.2 101.5 L70.9 101.4 L70.0 101.4 L69.7 101.3 L68.9 100.3 L68.6 100.0 L67.9 99.5 L67.6 99.3 L67.4 98.8 L67.2 98.1 L66.9 97.4 L66.9 97.2 L67.0 97.2 L67.3 97.4 L68.6 98.3 L68.8 98.7 L69.2 99.0 L69.7 99.2 L70.1 99.3 L71.1 99.3 L71.2 99.2 L71.9 98.6 L72.3 98.3 L72.5 98.2 L72.6 98.0 L72.7 98.0 L72.8 98.2 L72.9 98.4 L72.6 98.8 L72.8 98.9 L73.3 98.1 L73.1 97.8 L72.4 97.7 L72.1 97.5 L69.9 93.9 L69.6 92.9 L69.8 91.8 L70.9 91.0 L71.0 90.6 L71.3 90.4 L71.8 90.0 L72.4 89.7 L72.8 89.7 L72.5 89.5 L72.2 89.5 L71.9 89.5 L71.6 89.3 L71.6 89.3 L71.8 89.2 L72.0 89.1 L75.3 89.4 L77.4 89.9 L78.9 90.3 L79.3 90.5 L79.7 90.8 L79.8 91.2 L79.7 91.6 L79.6 92.0 L79.6 92.2 L80.0 92.7 L81.1 93.5 L81.5 93.5 L81.7 93.6 L81.9 93.9 L82.0 94.2 L82.1 94.5 L82.1 94.7 L82.0 95.0 L81.7 95.4 L81.5 95.4 L81.7 95.7 L81.7 95.9 L81.7 96.1 L81.5 96.3 L82.1 96.7 L82.4 96.8 L82.8 96.8 L82.8 97.0 Z M208.7 86.4 L208.9 86.7 L208.9 87.0 L208.8 87.3 L208.3 88.5 L208.4 88.7 L208.7 89.2 L208.3 89.2 L208.0 89.3 L207.4 89.7 L207.5 89.2 L207.4 89.0 L207.1 89.1 L206.9 89.5 L207.0 89.6 L207.1 89.7 L207.1 89.9 L206.9 90.0 L206.8 90.0 L206.7 89.9 L206.6 89.7 L206.3 89.3 L206.1 89.1 L206.0 88.8 L205.7 88.6 L205.3 88.8 L204.8 88.7 L204.2 88.4 L203.9 88.2 L203.8 88.0 L203.9 87.7 L204.0 87.4 L204.1 87.1 L204.0 87.0 L203.7 86.8 L203.2 86.7 L203.4 86.9 L203.4 87.1 L203.4 87.4 L203.2 87.6 L203.1 87.1 L202.9 87.1 L202.6 87.4 L202.2 87.5 L201.8 87.4 L201.7 87.0 L201.4 86.7 L201.0 86.3 L200.7 85.9 L200.8 85.3 L200.6 85.1 L201.1 85.1 L201.5 85.4 L201.8 85.6 L202.2 85.8 L202.6 85.8 L202.9 85.7 L203.1 85.5 L203.4 85.3 L203.9 85.2 L204.2 85.2 L204.5 85.3 L204.8 85.5 L204.9 85.6 L205.1 85.9 L205.3 86.0 L205.5 86.0 L205.8 85.7 L206.0 85.7 L206.3 85.8 L207.1 86.3 L207.4 86.4 L207.8 86.2 L208.0 86.0 L208.2 86.0 L208.7 86.4 Z M199.4 84.0 L199.2 83.6 L198.4 83.1 L198.2 82.7 L198.6 82.5 L198.9 82.2 L199.1 81.8 L199.2 81.4 L199.2 80.4 L199.2 80.2 L198.9 79.7 L199.3 79.8 L199.7 79.9 L200.0 80.1 L200.1 80.5 L199.9 80.7 L199.7 81.0 L199.5 81.3 L199.6 81.7 L199.9 81.8 L200.5 81.7 L200.8 81.8 L201.0 82.0 L201.1 82.3 L201.3 82.5 L201.7 82.5 L201.3 82.3 L201.4 82.2 L201.5 82.0 L201.7 81.9 L201.8 81.8 L202.0 82.1 L202.3 82.3 L202.5 82.2 L202.7 82.0 L202.9 82.4 L202.6 82.6 L202.2 82.7 L201.8 82.9 L202.1 82.9 L202.3 83.1 L202.5 83.2 L202.7 83.4 L203.0 83.5 L203.5 83.6 L203.8 83.7 L203.2 84.8 L202.8 85.2 L202.5 85.0 L202.4 85.0 L202.1 85.1 L202.0 85.1 L201.9 84.9 L201.9 84.8 L201.7 84.6 L201.6 84.1 L201.0 83.9 L200.6 84.1 L200.8 84.8 L200.5 84.6 L199.6 84.1 L199.4 84.0 Z M194.3 79.4 L194.9 79.0 L194.6 78.6 L194.1 78.4 L193.8 78.6 L193.8 78.8 L193.7 79.1 L193.5 79.2 L193.3 79.2 L193.1 78.9 L193.1 78.6 L193.2 78.4 L193.4 78.5 L193.4 78.0 L193.0 77.5 L192.4 77.3 L191.9 77.6 L191.7 77.5 L191.6 77.5 L191.5 77.5 L191.3 77.4 L191.7 77.0 L192.2 76.9 L193.1 76.9 L193.9 76.6 L194.3 76.6 L194.5 76.9 L195.0 76.7 L195.6 76.8 L196.3 77.2 L196.8 77.6 L197.0 77.9 L197.2 78.3 L197.4 78.7 L197.5 79.6 L197.6 79.8 L198.2 80.4 L198.4 80.4 L198.7 80.5 L199.0 80.6 L198.6 81.0 L198.0 80.8 L196.8 80.1 L196.2 80.0 L195.6 80.0 L194.9 79.8 L194.3 79.4 Z M188.5 76.0 L188.0 76.2 L187.3 76.2 L186.1 76.2 L185.5 76.1 L184.8 75.6 L183.8 75.4 L183.0 75.2 L182.6 74.9 L183.0 74.6 L182.6 74.2 L182.0 74.6 L181.6 74.8 L181.6 73.9 L181.7 74.0 L181.9 74.1 L182.0 73.6 L182.2 73.6 L182.5 73.7 L182.7 73.7 L183.0 73.6 L184.1 73.9 L184.7 74.2 L185.4 74.3 L186.2 74.2 L186.8 74.3 L187.4 74.2 L187.8 73.9 L188.2 73.6 L188.6 73.4 L189.2 73.5 L189.8 73.6 L190.3 73.9 L190.6 74.3 L190.5 74.2 L190.3 74.1 L190.4 74.5 L192.1 76.1 L192.2 76.3 L192.1 76.6 L192.0 76.6 L191.7 76.4 L191.5 76.4 L188.4 77.1 L188.4 76.9 L188.4 76.8 L188.5 76.8 L188.5 76.7 L188.5 76.5 L188.6 76.4 L188.8 76.4 L189.0 76.4 L189.1 76.4 L189.1 76.2 L189.0 75.9 L188.8 75.8 L188.5 76.0 Z" fill="#172033" fill-rule="evenodd"/></svg>
