<svg xmlns="http://www.w3.org/2000/svg" viewBox="0 0 320 200" role="img"><path d="M66.8 130.6 L65.8 132.7 L66.5 134.9 L67.4 137.0 L67.5 139.3 L66.2 141.2 L59.4 147.3 L51.2 150.4 L43.7 149.4 L37.0 146.1 L25.8 136.9 L23.1 133.2 L22.0 129.2 L23.1 125.2 L25.8 120.5 L29.3 116.3 L34.0 113.0 L45.9 107.1 L49.4 106.0 L53.5 105.6 L57.7 106.6 L60.4 108.9 L62.2 112.0 L64.7 118.5 L66.9 128.0 L66.8 130.6 Z M230.5 109.9 L230.9 110.8 L231.4 111.5 L232.1 112.1 L233.2 112.4 L232.2 115.3 L230.9 117.2 L226.4 120.5 L227.8 121.9 L225.9 124.9 L224.7 128.0 L223.2 130.3 L220.4 131.3 L218.9 131.5 L215.9 132.3 L214.4 132.5 L212.8 132.3 L211.2 131.5 L209.7 131.3 L203.3 131.2 L197.9 130.5 L192.9 128.8 L187.7 127.1 L180.1 120.6 L177.1 117.3 L177.1 110.9 L174.9 109.4 L171.7 108.4 L169.0 107.1 L168.9 106.4 L167.6 101.9 L167.0 101.1 L166.3 100.4 L165.5 99.3 L165.0 97.8 L165.6 96.2 L168.3 91.4 L169.0 89.7 L168.9 87.1 L166.4 80.5 L168.2 79.9 L169.4 78.6 L170.1 76.7 L170.2 74.4 L170.7 72.3 L171.6 71.0 L172.6 70.0 L173.0 69.0 L172.4 65.7 L170.7 61.9 L168.6 58.8 L166.4 57.6 L167.6 57.2 L171.7 55.1 L168.8 53.9 L167.6 53.7 L173.0 49.6 L174.5 49.6 L174.6 51.1 L174.9 51.9 L175.3 52.6 L175.7 53.7 L179.3 51.5 L182.4 53.4 L183.5 56.7 L181.0 59.1 L183.6 62.6 L186.6 64.8 L193.1 68.3 L191.6 69.7 L195.0 70.4 L196.7 71.8 L199.6 76.5 L205.6 82.8 L208.9 84.8 L211.9 84.5 L212.5 85.4 L212.8 86.0 L213.3 86.6 L214.4 87.1 L214.1 87.4 L215.4 88.6 L216.7 89.7 L217.0 89.7 L217.6 89.8 L219.3 89.5 L219.8 89.7 L220.0 90.3 L219.7 91.9 L219.8 92.5 L227.8 107.1 L228.6 107.8 L229.2 108.0 L229.7 108.5 L230.5 109.9 Z M294.6 53.7 L295.8 56.2 L296.0 59.3 L295.8 64.5 L298.0 75.6 L297.7 81.0 L294.6 85.9 L293.6 86.3 L290.6 86.7 L289.3 87.1 L288.6 88.1 L287.6 90.4 L286.6 91.1 L283.9 91.4 L281.3 90.7 L277.2 88.5 L272.6 85.2 L270.4 83.0 L269.2 80.5 L269.8 78.1 L271.3 75.7 L272.1 73.3 L270.5 71.0 L273.3 69.5 L274.5 66.9 L273.8 64.8 L270.5 64.5 L271.6 61.7 L275.8 58.6 L278.6 53.7 L277.7 53.4 L277.6 53.2 L277.6 52.9 L277.2 52.3 L279.9 51.2 L282.5 49.6 L282.6 50.3 L282.5 52.3 L284.2 51.0 L284.6 50.6 L285.2 49.6 L286.6 51.1 L285.2 52.3 L288.0 53.6 L292.3 52.5 L294.6 53.7 Z" fill="#172033" fill-rule="evenodd"/></svg>
