<svg xmlns="http://www.w3.org/2000/svg" viewBox="0 0 320 200" role="img"><path d="M238.2 87.6 L237.9 89.9 L234.7 90.9 L230.8 94.2 L229.7 96.1 L228.6 98.5 L227.9 101.3 L227.6 104.0 L227.9 106.8 L227.5 108.1 L226.1 108.6 L225.2 109.2 L224.1 111.9 L223.5 112.7 L221.1 113.3 L216.1 113.3 L214.2 113.8 L212.9 114.9 L211.3 116.6 L209.5 118.2 L207.4 118.9 L202.6 119.9 L198.2 121.6 L194.7 122.3 L192.4 120.0 L192.3 124.3 L188.0 126.5 L176.8 128.4 L174.5 129.3 L173.2 130.0 L171.3 131.0 L169.1 131.4 L158.2 130.3 L147.4 131.4 L145.0 131.9 L142.9 133.1 L135.9 138.5 L134.4 141.0 L130.6 141.0 L127.4 141.4 L126.3 142.4 L125.3 141.9 L125.1 139.7 L126.8 138.4 L127.5 139.3 L130.5 139.3 L130.1 135.1 L125.2 134.5 L123.3 136.1 L122.3 137.5 L121.4 136.8 L119.5 136.1 L119.0 137.1 L114.5 136.2 L111.7 134.3 L110.9 133.0 L110.8 131.0 L109.9 131.2 L108.7 131.2 L107.9 131.2 L107.2 131.1 L106.7 131.0 L105.9 131.6 L105.2 132.4 L104.7 133.0 L102.7 133.3 L101.6 135.5 L98.6 135.2 L96.8 134.7 L95.8 135.8 L95.8 138.2 L94.1 138.7 L87.8 139.4 L81.5 138.3 L75.5 136.2 L67.8 132.2 L65.0 131.2 L61.9 130.6 L55.5 130.0 L52.8 129.1 L50.3 127.8 L44.3 123.9 L43.4 123.0 L42.4 118.7 L41.8 118.0 L41.7 116.6 L38.2 108.6 L36.5 107.4 L33.3 105.7 L32.0 104.5 L30.7 103.0 L29.8 101.2 L29.7 99.2 L31.0 97.3 L28.1 93.3 L27.8 91.7 L27.8 88.4 L27.2 85.6 L23.9 80.9 L22.7 78.6 L22.0 74.8 L22.5 72.1 L24.2 71.1 L27.3 72.9 L31.8 76.9 L34.3 78.6 L37.2 79.5 L43.5 79.3 L48.9 76.9 L53.4 73.3 L56.8 69.3 L59.0 64.6 L60.6 62.1 L63.0 60.7 L63.3 60.0 L63.8 59.2 L64.6 58.9 L65.4 59.1 L66.5 59.7 L66.8 59.9 L67.8 60.0 L69.3 59.8 L70.5 61.5 L72.7 62.5 L74.9 62.9 L76.7 62.5 L78.6 61.5 L79.7 59.5 L80.6 57.6 L85.4 58.1 L86.4 62.1 L87.3 64.1 L88.6 65.6 L91.0 66.7 L95.0 67.7 L98.0 69.1 L101.1 70.3 L102.8 71.5 L103.3 73.7 L103.3 75.1 L104.2 76.3 L105.7 76.9 L107.0 76.9 L111.0 76.0 L112.9 74.9 L113.4 74.2 L114.3 72.6 L115.5 72.0 L116.9 72.6 L117.9 73.6 L120.2 74.9 L122.2 74.9 L124.2 73.9 L127.0 71.5 L129.7 69.4 L132.5 68.3 L136.0 66.5 L137.6 65.3 L139.1 65.0 L142.8 65.4 L146.8 66.1 L150.6 66.1 L152.7 65.3 L153.7 64.7 L154.6 63.4 L158.3 61.2 L160.6 61.2 L162.6 61.9 L164.6 62.5 L166.5 62.6 L168.0 63.2 L170.1 65.1 L171.6 66.8 L174.1 68.0 L177.5 68.7 L178.7 68.3 L179.4 67.5 L179.6 66.3 L181.5 65.1 L184.6 62.4 L185.9 62.1 L188.3 62.3 L192.2 61.9 L194.8 61.6 L195.6 62.1 L195.6 64.0 L196.1 66.2 L197.3 67.1 L198.9 68.7 L201.1 70.5 L201.3 71.5 L201.5 74.1 L201.3 76.6 L201.3 79.5 L200.3 82.9 L199.4 85.6 L199.9 87.6 L201.3 89.2 L202.9 89.2 L205.4 88.6 L206.5 86.2 L207.1 81.9 L207.9 81.1 L209.1 80.2 L210.5 79.1 L211.7 80.2 L211.7 83.9 L212.6 85.9 L214.5 86.6 L217.2 85.6 L218.4 83.6 L219.7 82.8 L221.3 83.0 L223.1 84.0 L224.4 83.8 L225.6 83.3 L227.2 83.8 L228.6 84.3 L231.9 85.8 L233.8 86.0 L235.5 86.2 L237.8 87.5 L238.2 87.6 Z M267.6 76.6 L269.5 77.1 L271.2 77.7 L272.6 78.1 L274.7 78.1 L277.3 77.1 L280.0 77.1 L281.4 78.0 L283.3 78.7 L284.8 78.4 L285.7 78.0 L286.3 77.2 L288.4 78.7 L290.7 80.8 L292.4 85.0 L294.1 87.6 L296.2 90.1 L298.0 91.1 L295.9 91.2 L292.0 90.9 L288.2 90.0 L286.6 88.4 L284.8 87.7 L276.6 88.5 L269.5 90.3 L267.9 91.1 L266.7 92.1 L262.6 91.4 L259.7 91.9 L258.6 91.3 L260.4 89.9 L261.7 89.6 L261.7 87.0 L258.9 86.8 L257.3 85.6 L257.4 82.3 L256.2 81.3 L252.7 80.0 L253.5 78.3 L254.9 77.4 L256.9 76.6 L258.1 77.3 L259.0 78.1 L261.1 77.7 L263.0 76.7 L264.1 75.6 L264.9 74.8 L267.6 76.6 Z" fill="#172033" fill-rule="evenodd"/></svg>
