<svg xmlns="http://www.w3.org/2000/svg" viewBox="0 0 320 200" role="img"><path d="M133.6 56.8 L134.5 56.8 L136.0 56.5 L140.6 56.7 L140.7 56.4 L140.7 55.0 L140.6 54.8 L140.6 54.7 L140.6 54.5 L140.7 54.3 L141.1 54.0 L141.3 53.8 L141.2 52.6 L140.6 52.1 L139.9 51.7 L139.8 51.3 L139.8 51.3 L140.0 51.1 L140.2 51.0 L140.4 51.0 L140.6 50.9 L141.2 50.7 L141.4 50.5 L141.5 50.1 L142.3 50.6 L144.4 50.9 L144.7 51.3 L145.2 51.6 L145.8 51.7 L146.2 51.7 L146.4 51.3 L146.4 51.3 L146.7 50.7 L147.2 50.5 L147.7 50.7 L147.9 51.3 L148.3 51.9 L150.6 51.9 L151.7 52.2 L152.4 52.9 L152.3 53.3 L152.0 53.7 L151.7 54.5 L151.8 55.1 L152.2 55.8 L152.7 56.5 L153.1 56.9 L153.9 57.3 L154.7 57.5 L155.3 57.8 L155.8 58.6 L155.8 59.0 L155.7 59.4 L155.6 59.8 L155.9 60.1 L156.4 60.2 L156.5 60.3 L156.9 60.0 L157.3 59.5 L157.7 59.2 L159.4 59.1 L167.6 60.9 L168.0 61.1 L168.6 61.7 L168.9 61.8 L169.3 61.9 L172.7 61.4 L173.7 61.5 L173.8 61.8 L173.9 62.0 L176.0 64.2 L176.2 64.3 L177.4 64.3 L179.8 63.7 L180.5 63.8 L181.0 64.1 L181.5 64.7 L181.9 65.3 L182.1 65.8 L182.0 66.3 L181.4 66.6 L181.4 66.8 L181.3 66.9 L181.4 67.0 L181.4 67.2 L183.2 67.0 L185.7 65.4 L187.4 65.5 L188.7 66.1 L189.3 66.3 L190.0 66.2 L190.5 65.8 L190.8 65.3 L191.1 64.9 L191.6 64.8 L193.1 64.8 L194.5 65.1 L195.7 65.5 L199.2 67.8 L199.6 68.6 L198.3 69.0 L198.4 69.3 L198.4 69.4 L198.3 69.5 L198.1 69.8 L198.1 70.0 L198.0 70.3 L198.0 70.5 L198.1 70.5 L197.8 70.8 L197.0 71.3 L196.6 71.7 L195.9 71.8 L194.6 71.5 L193.9 71.7 L193.6 72.2 L193.0 72.5 L192.3 72.8 L191.6 73.1 L191.4 73.2 L191.0 73.4 L190.8 73.4 L191.0 73.8 L191.1 73.9 L190.3 73.8 L189.9 74.5 L190.3 75.2 L191.6 75.4 L192.2 76.4 L192.4 76.6 L192.9 76.9 L193.2 76.9 L193.5 76.7 L194.0 76.6 L195.8 76.6 L196.2 76.7 L196.5 77.1 L196.5 77.5 L196.5 77.8 L196.6 78.2 L197.3 78.8 L199.1 79.2 L200.0 79.6 L200.6 80.2 L201.7 81.4 L202.3 81.9 L202.8 82.5 L204.0 83.3 L204.5 84.1 L204.9 85.5 L205.3 86.0 L206.0 86.6 L207.4 87.4 L209.1 88.0 L210.8 87.9 L212.1 86.8 L213.0 86.4 L213.5 85.9 L213.9 85.4 L214.6 84.7 L215.6 84.2 L216.4 84.1 L217.2 84.1 L217.7 84.0 L218.1 84.0 L218.5 83.8 L219.2 83.1 L219.7 82.9 L220.0 82.9 L220.8 83.1 L221.2 83.1 L221.3 82.9 L221.3 82.4 L221.4 82.3 L222.0 82.3 L222.2 82.4 L222.4 82.7 L222.8 83.1 L223.3 83.2 L223.6 82.9 L223.5 82.3 L223.0 81.9 L222.9 80.9 L222.5 80.2 L221.8 79.6 L220.8 79.3 L220.0 78.8 L219.6 78.0 L219.3 77.1 L218.8 76.4 L217.5 75.1 L217.5 74.6 L218.6 74.1 L219.6 74.2 L220.7 74.6 L221.3 74.9 L222.3 74.8 L226.5 75.5 L226.9 75.7 L227.8 76.2 L228.4 76.4 L228.9 76.4 L230.2 76.3 L230.7 76.3 L230.6 76.5 L230.7 76.9 L231.0 77.4 L231.2 77.8 L231.6 78.1 L233.0 78.6 L234.0 78.8 L235.9 78.8 L236.8 79.0 L236.0 79.2 L236.1 79.4 L236.3 79.5 L236.4 79.6 L236.6 79.7 L236.6 80.3 L236.7 80.8 L236.9 81.2 L237.5 81.5 L237.9 80.7 L238.8 80.7 L239.7 81.1 L240.1 81.9 L240.3 82.0 L240.5 82.0 L240.7 82.0 L241.0 81.9 L242.2 81.0 L244.1 80.8 L247.7 81.3 L248.7 81.1 L249.4 80.7 L250.6 79.7 L250.8 79.3 L250.9 79.0 L251.2 78.9 L251.9 79.1 L252.1 79.2 L252.9 79.9 L253.0 80.0 L253.0 80.1 L253.0 80.2 L252.9 80.3 L252.4 81.1 L252.4 81.5 L252.4 81.9 L252.9 82.2 L253.5 82.9 L253.1 83.5 L252.3 84.0 L250.6 84.7 L249.5 84.9 L247.5 85.0 L247.1 85.1 L246.8 85.5 L246.8 85.8 L248.8 87.5 L249.5 87.6 L249.9 87.6 L250.2 87.5 L250.7 87.4 L251.2 87.5 L252.3 87.8 L252.9 87.9 L252.9 88.0 L252.9 88.0 L252.9 88.0 L252.9 88.1 L252.5 88.3 L252.4 88.5 L252.5 88.7 L252.9 89.0 L253.3 89.3 L253.6 89.8 L253.8 90.3 L254.2 90.8 L254.6 91.2 L257.3 92.9 L258.7 93.1 L260.2 92.8 L261.4 92.1 L262.2 92.0 L263.8 91.9 L265.1 91.7 L265.3 91.5 L265.3 91.1 L265.0 90.8 L264.6 90.8 L264.3 90.9 L264.1 90.8 L263.9 89.9 L264.6 90.0 L265.2 90.1 L267.6 91.1 L267.3 91.8 L267.8 92.2 L270.4 92.6 L271.0 92.8 L272.3 93.5 L272.8 93.6 L273.8 93.8 L274.3 94.0 L274.4 94.2 L274.7 94.9 L274.9 95.1 L275.8 95.6 L276.3 95.5 L277.5 94.8 L277.4 94.8 L277.4 94.7 L277.3 94.7 L277.2 94.7 L278.9 94.6 L280.4 94.9 L283.5 96.0 L284.4 96.0 L286.0 95.3 L286.6 95.6 L286.9 96.3 L286.8 96.9 L287.0 97.4 L288.1 97.8 L286.9 98.7 L287.0 99.8 L287.7 101.0 L288.6 102.3 L289.0 103.5 L289.3 103.8 L289.8 104.0 L291.1 104.1 L291.7 104.2 L292.2 104.5 L293.0 105.1 L293.5 105.3 L294.1 105.3 L294.8 105.1 L295.4 105.0 L296.0 105.3 L296.2 105.6 L296.4 107.0 L296.6 107.4 L297.1 108.2 L297.3 108.5 L297.9 110.3 L298.0 111.1 L297.8 111.8 L296.2 111.8 L295.4 112.0 L293.7 113.0 L292.6 113.1 L291.4 112.8 L290.1 112.4 L289.8 112.3 L289.5 112.4 L288.3 112.8 L286.5 112.6 L285.7 113.0 L285.5 113.3 L285.4 114.0 L285.2 114.4 L284.8 114.6 L283.5 115.1 L281.7 116.5 L280.8 116.9 L279.6 116.7 L279.5 118.6 L278.6 119.1 L277.1 119.9 L271.6 121.3 L270.4 122.1 L269.4 123.1 L268.6 124.3 L268.1 125.7 L268.0 126.8 L268.0 127.0 L268.0 128.8 L267.7 129.7 L266.9 130.7 L265.7 131.4 L264.3 131.8 L262.2 131.7 L261.2 131.8 L260.3 132.2 L259.8 132.9 L259.5 133.5 L259.2 134.8 L258.9 135.3 L258.1 135.8 L257.3 135.8 L256.5 135.7 L255.5 135.9 L254.8 136.2 L253.4 137.8 L252.7 138.2 L244.8 140.2 L243.3 140.1 L242.1 139.2 L241.5 139.0 L240.5 139.2 L239.8 139.5 L239.0 139.9 L238.3 140.0 L233.6 138.4 L231.7 138.1 L229.8 138.3 L227.6 139.4 L227.3 139.8 L227.0 140.5 L226.4 141.0 L225.0 141.8 L224.0 143.0 L222.0 146.9 L221.5 147.5 L220.9 148.0 L220.8 148.8 L219.3 147.7 L218.8 145.0 L217.8 144.1 L217.1 144.1 L215.6 144.4 L214.8 144.5 L214.0 144.3 L212.6 143.7 L211.9 143.5 L210.4 143.6 L209.7 143.5 L209.2 143.2 L208.9 142.7 L208.7 142.2 L208.4 141.7 L207.6 141.5 L206.9 141.4 L204.5 140.9 L203.8 140.6 L203.4 140.5 L203.0 140.6 L202.3 140.8 L201.8 140.8 L200.7 140.7 L200.0 141.0 L197.9 143.3 L197.4 143.6 L196.8 143.7 L196.6 143.7 L196.0 143.4 L195.2 143.5 L195.1 143.5 L189.4 143.0 L185.7 143.1 L183.5 142.5 L179.4 140.5 L179.3 140.3 L179.3 140.0 L179.1 139.9 L178.4 140.0 L178.4 139.5 L178.1 139.4 L177.6 139.3 L177.1 139.4 L177.5 139.1 L177.2 139.1 L176.9 139.0 L176.4 138.8 L175.6 138.7 L175.4 138.7 L175.2 138.4 L175.0 137.9 L174.8 137.8 L173.5 137.8 L173.2 137.9 L171.7 138.4 L171.0 138.5 L170.1 138.5 L169.2 138.4 L166.0 137.2 L163.6 136.6 L162.6 136.3 L160.6 135.2 L159.7 134.9 L157.9 134.5 L156.0 133.8 L155.1 133.6 L153.1 133.6 L152.9 133.5 L152.8 133.3 L152.6 133.2 L152.2 133.2 L152.1 133.3 L152.0 133.9 L151.8 134.1 L151.3 134.5 L151.1 134.6 L148.0 135.2 L147.1 135.2 L147.4 134.6 L147.4 134.0 L147.3 133.5 L147.0 132.9 L143.8 132.7 L141.5 132.2 L140.6 132.3 L140.5 132.4 L140.4 132.5 L140.4 132.7 L140.5 132.9 L139.9 133.8 L139.9 134.9 L140.1 136.2 L140.1 137.3 L139.2 139.9 L138.9 140.4 L138.8 140.7 L138.9 140.9 L139.1 141.2 L139.3 141.5 L139.4 141.6 L138.9 142.3 L138.1 142.3 L136.0 141.8 L133.8 141.6 L133.2 141.7 L133.0 142.1 L132.8 142.6 L132.4 143.1 L132.2 143.9 L130.0 145.1 L129.3 146.0 L129.1 147.1 L129.1 148.3 L128.9 149.4 L128.7 149.5 L128.1 149.9 L127.4 149.9 L127.1 149.6 L126.9 149.2 L126.4 148.8 L126.2 148.8 L125.6 149.0 L125.2 148.9 L125.1 148.8 L125.1 148.5 L125.0 148.2 L124.8 148.1 L124.2 148.1 L122.9 148.5 L122.3 148.6 L121.8 148.5 L120.2 147.9 L119.2 147.2 L118.6 147.5 L117.7 149.1 L117.1 149.5 L115.0 150.1 L114.1 150.5 L113.8 150.6 L113.4 150.7 L109.4 149.7 L103.6 149.3 L102.2 148.9 L101.9 148.7 L101.2 148.1 L101.0 147.9 L100.8 147.3 L100.9 147.2 L101.1 147.2 L101.4 146.8 L101.5 146.7 L101.7 146.7 L101.9 146.7 L102.0 146.4 L101.8 146.2 L101.6 146.1 L101.3 146.0 L101.1 145.9 L100.8 145.5 L100.2 144.9 L99.8 144.6 L97.1 143.6 L96.2 143.1 L95.4 142.7 L94.7 142.4 L93.0 142.1 L92.2 141.6 L90.2 139.0 L89.3 138.0 L88.7 137.8 L87.2 137.7 L86.4 137.4 L85.7 137.0 L85.1 136.3 L84.7 135.6 L84.6 134.8 L83.8 134.9 L83.1 134.6 L82.4 134.2 L81.7 134.0 L81.0 133.9 L80.8 133.8 L80.2 134.0 L79.8 134.4 L79.4 135.2 L78.4 134.9 L77.2 134.2 L76.0 133.5 L75.4 132.9 L75.4 131.8 L74.9 131.0 L73.2 129.9 L71.9 128.8 L71.4 128.5 L70.6 128.3 L68.2 128.2 L67.0 127.8 L66.3 127.1 L65.8 126.3 L62.0 122.9 L61.5 122.7 L61.5 122.7 L60.2 121.7 L60.0 121.3 L59.9 120.9 L59.7 120.6 L59.0 120.4 L57.8 119.6 L57.3 119.3 L56.6 119.0 L55.0 118.8 L54.4 118.9 L54.6 119.4 L53.9 119.5 L51.5 119.2 L50.6 119.0 L50.0 118.6 L48.7 116.6 L47.8 116.1 L46.0 115.5 L45.2 115.1 L44.7 114.5 L44.5 113.8 L44.4 112.5 L44.3 111.8 L44.0 111.6 L43.6 111.7 L43.1 111.6 L42.7 111.3 L42.4 111.0 L42.1 110.6 L41.8 110.1 L41.7 109.7 L41.5 108.7 L41.2 108.3 L40.8 108.0 L39.8 107.6 L39.4 107.3 L39.4 107.2 L39.6 106.9 L39.3 106.8 L39.2 106.7 L39.5 106.2 L39.5 105.7 L39.2 105.3 L38.6 105.1 L37.2 104.7 L36.6 104.4 L36.0 104.0 L35.2 103.2 L34.8 102.7 L34.6 102.3 L35.0 101.7 L36.7 101.2 L37.4 100.8 L37.5 100.1 L37.5 99.3 L37.8 98.7 L38.6 98.8 L38.9 98.2 L39.8 97.1 L40.2 96.5 L40.3 95.7 L40.0 95.4 L39.4 95.2 L37.8 94.6 L37.8 94.2 L38.1 93.6 L38.0 93.0 L37.3 92.6 L35.8 92.5 L35.2 92.1 L35.1 92.1 L29.0 90.0 L28.8 89.7 L28.8 89.3 L28.7 88.9 L28.4 88.5 L27.8 88.2 L27.1 87.9 L26.6 87.6 L26.2 87.0 L26.2 86.4 L26.5 85.4 L26.3 84.8 L26.0 84.3 L25.6 83.9 L24.6 83.2 L22.6 82.4 L22.1 81.9 L22.6 81.4 L23.1 81.2 L23.3 81.0 L23.4 80.5 L23.3 79.9 L22.9 79.6 L22.0 78.9 L23.0 79.0 L25.0 79.1 L25.8 79.4 L26.0 79.8 L26.0 80.5 L26.2 80.8 L26.6 81.1 L27.2 81.2 L28.4 81.2 L28.7 81.3 L28.8 81.5 L28.8 81.7 L28.6 81.9 L28.5 81.9 L28.5 81.9 L28.4 81.9 L28.4 82.0 L28.3 82.0 L28.2 82.1 L28.3 82.2 L28.4 82.3 L29.1 82.8 L29.3 82.9 L29.4 83.2 L29.5 83.4 L29.6 83.6 L30.0 84.8 L30.5 85.2 L31.2 85.2 L31.7 85.0 L31.7 84.6 L31.5 84.2 L31.4 83.7 L31.5 82.9 L31.7 82.5 L32.5 81.9 L32.6 81.2 L33.0 80.9 L33.4 80.7 L33.9 80.4 L35.1 78.9 L35.6 78.6 L36.8 78.2 L37.3 77.9 L37.4 77.9 L37.8 77.9 L37.9 77.8 L38.0 77.7 L38.0 77.5 L38.0 77.4 L37.9 77.3 L38.1 77.1 L38.1 76.9 L38.3 76.7 L38.6 76.5 L39.7 75.9 L41.4 75.6 L44.4 75.5 L46.6 75.7 L47.1 75.7 L47.6 75.4 L48.5 74.5 L49.0 74.2 L49.7 74.0 L50.3 74.0 L51.1 74.1 L51.3 74.0 L51.9 73.8 L52.3 73.7 L52.6 73.8 L56.4 75.2 L57.8 75.3 L58.1 75.1 L59.0 74.5 L59.6 74.1 L59.8 73.3 L60.1 71.7 L60.4 71.5 L60.8 71.5 L61.1 71.5 L61.4 71.7 L61.8 71.7 L62.2 71.8 L62.6 71.7 L62.9 71.7 L62.9 71.7 L62.9 71.7 L64.1 71.4 L66.2 71.5 L67.3 71.0 L67.8 70.3 L69.2 68.0 L70.0 68.1 L70.7 68.4 L71.3 68.6 L72.2 68.3 L72.6 67.5 L72.9 67.2 L74.4 66.5 L74.6 66.3 L74.7 66.2 L74.8 66.1 L75.3 66.3 L75.5 66.4 L76.1 67.0 L76.3 67.2 L77.2 67.5 L78.0 67.4 L78.7 67.0 L79.4 66.4 L79.8 66.3 L80.0 66.1 L80.1 65.9 L79.8 65.5 L80.5 65.2 L81.1 64.8 L81.2 64.2 L80.8 63.6 L82.4 62.9 L84.3 62.7 L88.0 62.7 L88.7 62.6 L90.3 62.3 L91.2 62.2 L93.0 62.3 L93.8 62.3 L95.0 61.8 L95.2 61.8 L95.4 61.7 L95.7 61.5 L95.7 61.3 L95.6 61.0 L95.6 60.6 L95.8 60.2 L96.1 59.9 L96.5 59.9 L96.9 60.0 L97.4 60.0 L97.8 59.8 L98.4 59.3 L98.9 59.1 L99.7 58.9 L101.2 59.1 L102.0 59.0 L108.3 57.2 L108.8 56.9 L109.6 56.2 L110.0 55.9 L111.5 55.7 L114.7 55.9 L115.9 55.2 L116.1 54.2 L115.0 53.8 L113.5 53.5 L112.5 52.9 L112.5 52.4 L112.9 52.3 L112.9 52.2 L112.1 52.0 L110.7 51.9 L110.3 51.7 L110.7 51.3 L111.3 50.1 L112.3 49.5 L113.6 49.3 L115.1 49.7 L115.4 49.8 L115.6 50.1 L115.9 50.3 L116.3 50.4 L116.8 50.4 L117.9 50.1 L119.4 50.2 L119.9 50.0 L120.2 49.5 L120.5 49.8 L120.5 50.0 L120.7 50.3 L121.1 50.6 L121.6 50.8 L122.7 51.0 L123.2 51.3 L123.7 51.7 L124.0 52.0 L124.1 52.4 L124.0 53.0 L123.7 53.5 L123.2 54.1 L123.0 54.6 L123.5 54.8 L125.7 54.2 L126.2 54.2 L126.4 54.7 L126.2 55.2 L125.5 56.2 L125.4 57.0 L125.6 57.3 L127.0 57.5 L127.6 57.7 L129.1 58.5 L130.6 58.7 L131.5 58.7 L132.2 58.6 L132.6 58.3 L133.0 57.8 L133.6 56.8 Z" fill="#172033" fill-rule="evenodd"/></svg>
