<svg xmlns="http://www.w3.org/2000/svg" viewBox="0 0 320 200" role="img"><path d="M229.0 147.4 L228.4 148.3 L228.4 148.5 L228.5 148.5 L228.7 148.8 L228.8 148.8 L229.1 148.9 L228.8 149.1 L228.7 149.3 L228.8 150.0 L228.8 150.3 L228.8 150.6 L228.6 150.9 L228.3 151.4 L228.2 151.5 L228.0 151.6 L227.9 151.6 L227.4 151.7 L227.4 151.7 L227.2 151.9 L227.0 152.4 L227.0 152.4 L226.1 152.2 L225.8 151.8 L225.5 151.7 L225.1 151.6 L223.0 151.2 L222.3 151.2 L221.7 151.4 L221.5 151.5 L221.4 151.6 L221.4 151.7 L221.4 151.8 L221.5 152.2 L221.7 152.4 L221.7 152.6 L221.7 152.8 L221.4 153.1 L221.3 153.3 L221.3 153.5 L221.3 154.1 L221.3 154.3 L221.2 154.4 L221.1 154.6 L221.1 154.7 L220.9 155.1 L220.7 155.4 L218.7 156.6 L218.0 156.8 L215.2 157.2 L213.0 157.7 L212.7 157.9 L211.9 158.4 L211.3 158.6 L211.0 158.8 L211.0 158.8 L209.9 159.0 L209.6 159.1 L209.4 159.2 L209.0 159.6 L208.7 159.8 L207.9 160.2 L207.8 160.3 L207.5 160.6 L207.4 160.6 L207.3 160.6 L207.2 160.6 L207.0 160.8 L207.0 161.1 L207.1 161.3 L207.3 161.6 L207.5 161.8 L208.9 162.8 L209.2 163.2 L209.3 163.5 L209.3 163.5 L209.4 163.7 L209.5 163.9 L210.0 164.1 L210.4 164.4 L210.6 164.4 L211.0 164.6 L211.6 165.7 L212.1 166.2 L212.2 166.2 L210.9 167.7 L210.8 167.8 L210.7 167.9 L210.7 168.1 L210.7 168.2 L210.5 168.4 L210.5 168.4 L210.2 168.8 L210.5 169.0 L211.6 169.1 L211.9 169.1 L212.5 168.9 L212.8 169.0 L213.0 169.1 L213.3 169.3 L213.7 169.8 L213.8 170.1 L213.9 170.3 L213.9 170.6 L213.8 170.8 L213.8 170.9 L213.5 171.3 L213.5 171.3 L213.2 171.6 L213.1 171.6 L213.2 172.1 L213.2 172.1 L213.2 172.1 L213.0 172.4 L212.9 172.5 L212.9 172.8 L213.0 173.0 L213.0 173.1 L213.1 173.2 L213.1 173.3 L213.1 173.5 L212.5 173.9 L212.4 174.0 L212.2 174.0 L212.1 174.0 L211.9 173.9 L211.7 173.8 L211.5 173.8 L211.4 173.9 L211.2 173.9 L211.0 173.9 L210.0 173.4 L209.0 172.7 L208.9 172.6 L208.7 172.5 L208.4 172.5 L207.8 172.2 L207.7 171.7 L208.0 171.2 L208.5 171.0 L208.1 170.8 L207.6 170.5 L207.3 170.3 L207.5 169.9 L207.1 169.9 L206.0 169.7 L205.3 169.7 L204.5 169.9 L204.2 170.0 L203.4 170.4 L203.2 170.5 L202.9 170.6 L202.5 170.7 L202.1 170.7 L201.8 170.6 L201.2 170.3 L201.0 170.1 L200.9 170.0 L200.7 169.5 L200.6 169.4 L200.3 169.4 L199.5 169.6 L199.1 169.6 L197.9 169.4 L197.5 169.5 L197.0 169.6 L196.8 169.7 L196.6 169.5 L196.5 169.3 L196.6 169.2 L196.7 169.1 L196.8 168.9 L196.8 168.7 L196.9 168.6 L196.8 168.6 L196.5 168.7 L196.4 168.8 L195.9 169.0 L195.5 169.1 L195.6 169.3 L195.6 169.4 L195.8 169.5 L196.0 169.6 L196.1 169.7 L196.1 169.8 L196.2 170.3 L196.1 170.5 L196.1 170.7 L195.5 171.2 L195.3 171.2 L190.6 171.1 L188.9 171.3 L188.7 171.4 L188.5 171.7 L188.3 171.8 L187.1 171.6 L185.4 171.6 L184.6 171.5 L184.2 171.5 L184.1 171.6 L183.5 171.9 L183.4 172.1 L183.2 172.6 L183.1 172.8 L182.8 173.0 L182.3 173.2 L181.4 173.3 L180.9 173.2 L180.4 173.1 L179.9 173.2 L179.0 174.0 L179.2 174.0 L179.4 174.1 L179.5 174.2 L179.3 174.5 L179.0 174.5 L178.1 174.6 L177.7 174.6 L177.3 174.9 L177.1 175.1 L176.8 175.4 L176.3 175.5 L175.9 175.5 L175.9 174.9 L175.5 174.8 L174.9 174.9 L173.6 175.5 L173.2 175.6 L171.1 175.6 L170.8 175.4 L170.6 175.2 L170.6 175.2 L170.7 175.1 L170.7 174.9 L170.7 174.8 L170.7 174.7 L169.7 174.0 L168.6 173.6 L168.5 173.5 L169.1 173.2 L169.3 173.0 L168.8 172.8 L168.6 172.7 L168.3 172.7 L168.0 172.7 L167.2 173.0 L166.6 173.0 L166.4 173.0 L166.3 172.9 L166.3 172.8 L166.2 172.7 L163.5 172.1 L163.0 172.0 L162.7 172.2 L162.3 172.6 L162.0 172.7 L161.8 172.7 L160.9 172.7 L160.6 172.6 L160.4 172.5 L160.3 172.4 L160.3 172.2 L160.4 172.1 L160.5 172.0 L160.5 171.9 L160.4 171.7 L160.3 171.7 L160.2 171.7 L159.8 171.7 L159.5 171.8 L159.6 172.0 L159.7 172.2 L159.9 172.5 L159.8 172.7 L159.6 173.5 L159.9 173.6 L160.1 173.7 L160.2 173.9 L160.3 174.1 L160.3 174.6 L160.1 175.0 L159.8 175.4 L159.5 175.8 L159.3 175.8 L158.9 175.9 L158.7 176.0 L158.5 176.2 L158.1 176.8 L157.7 177.1 L157.3 177.4 L156.4 177.7 L156.0 177.9 L154.6 178.0 L154.3 178.0 L154.2 178.0 L154.3 177.8 L154.5 177.6 L154.6 177.6 L154.9 177.5 L155.0 177.4 L155.0 177.3 L155.0 177.2 L155.0 177.1 L155.3 176.3 L155.3 175.9 L155.0 175.8 L154.1 175.9 L153.8 176.1 L153.7 176.1 L153.6 176.1 L153.4 176.0 L153.3 176.0 L153.1 176.1 L152.9 176.2 L152.8 176.2 L152.6 176.1 L152.5 175.9 L152.4 175.7 L152.4 175.4 L152.2 175.3 L152.6 175.0 L152.7 174.8 L152.5 174.6 L151.5 173.6 L151.3 173.6 L151.1 173.7 L150.9 173.8 L150.7 173.7 L150.7 173.6 L150.7 173.5 L150.7 173.5 L150.5 173.2 L150.2 173.0 L150.0 172.8 L150.0 172.5 L149.7 172.6 L149.4 172.7 L148.8 172.6 L148.2 172.5 L148.1 172.5 L147.8 172.6 L147.7 172.6 L147.2 172.5 L147.2 172.3 L147.2 172.0 L147.1 171.8 L146.9 171.6 L146.6 171.5 L146.3 171.5 L146.0 171.6 L145.6 172.0 L145.3 172.4 L145.0 172.7 L144.5 172.9 L143.2 172.9 L142.0 172.7 L141.9 172.6 L141.8 172.6 L136.2 170.3 L135.4 170.1 L134.7 170.1 L134.4 169.8 L133.2 169.8 L131.0 169.7 L130.6 169.8 L130.3 170.0 L129.5 170.2 L128.7 170.2 L128.2 170.1 L127.6 169.8 L127.6 169.8 L127.3 169.6 L127.3 169.5 L127.7 169.4 L127.2 169.1 L126.5 168.8 L125.9 168.8 L125.8 169.2 L125.9 169.3 L124.9 169.3 L124.8 169.2 L124.8 169.1 L124.6 168.9 L124.5 168.8 L124.6 168.6 L124.9 168.3 L124.9 168.3 L124.8 168.1 L124.6 168.0 L124.3 168.1 L124.1 168.0 L124.0 167.9 L123.8 167.6 L123.6 167.4 L123.4 167.4 L123.2 167.5 L123.1 168.0 L122.8 168.1 L122.6 168.0 L122.5 167.7 L122.5 167.5 L122.5 167.3 L122.1 167.2 L121.6 167.2 L121.3 167.3 L121.5 167.6 L121.2 167.7 L120.1 167.9 L119.8 167.9 L119.7 167.9 L119.4 168.2 L119.3 168.4 L119.1 168.8 L118.9 168.9 L118.4 169.1 L118.2 169.2 L118.2 169.4 L118.3 169.5 L118.3 169.7 L118.2 169.9 L118.5 170.0 L118.6 170.0 L119.1 170.3 L119.6 170.5 L119.9 170.5 L120.2 170.3 L120.5 170.2 L120.8 170.1 L121.8 170.0 L122.1 170.0 L122.3 170.1 L122.4 170.1 L122.6 170.1 L122.5 170.6 L122.4 170.6 L122.3 170.4 L122.3 170.4 L122.2 170.4 L122.1 170.4 L122.1 170.5 L122.0 170.6 L122.0 170.7 L122.1 170.8 L122.1 170.8 L122.1 171.0 L122.1 171.1 L122.1 171.3 L122.0 171.4 L121.9 171.4 L121.7 171.5 L121.5 171.3 L121.4 171.3 L121.2 171.0 L120.9 170.8 L120.3 170.9 L119.6 171.2 L119.4 171.5 L119.4 171.6 L118.8 171.7 L118.7 171.7 L117.4 171.7 L116.7 171.5 L116.5 171.4 L116.3 171.2 L116.2 171.0 L116.1 171.0 L115.9 170.9 L115.3 170.8 L115.0 170.8 L113.9 171.0 L113.8 171.0 L113.7 171.1 L113.5 171.2 L113.1 171.3 L112.7 171.4 L112.5 171.5 L112.4 171.7 L112.3 171.8 L112.2 171.9 L112.0 171.9 L111.1 172.1 L108.4 172.1 L108.3 172.0 L108.3 171.8 L108.2 171.6 L108.1 171.5 L106.8 171.5 L106.5 171.4 L106.1 171.8 L105.8 172.0 L105.4 172.2 L104.6 172.3 L103.7 172.4 L103.3 172.4 L103.0 172.3 L102.2 172.0 L102.3 172.0 L102.8 172.0 L103.0 171.9 L103.2 171.3 L102.8 171.4 L101.7 171.6 L101.8 171.4 L101.9 171.3 L101.8 171.1 L101.7 171.0 L101.6 170.9 L101.5 170.8 L101.0 170.2 L100.7 169.9 L100.4 169.8 L100.3 169.7 L100.3 169.5 L100.2 169.1 L100.3 169.0 L100.6 168.7 L100.8 168.6 L100.8 168.3 L100.5 167.5 L100.6 167.3 L100.9 166.6 L101.0 166.5 L101.3 166.4 L101.3 166.2 L101.2 165.8 L101.2 165.7 L101.2 165.6 L101.2 165.6 L101.2 165.5 L101.3 165.4 L101.4 165.3 L101.5 165.2 L101.6 165.0 L101.6 164.9 L101.6 164.6 L101.7 164.3 L102.3 163.9 L102.5 163.7 L102.4 163.1 L101.5 162.0 L101.5 161.2 L101.6 160.8 L101.7 160.5 L101.9 160.3 L102.0 160.2 L102.1 160.0 L102.2 159.7 L102.3 159.4 L103.6 158.2 L103.8 157.9 L103.9 157.6 L104.0 157.2 L104.1 156.7 L104.4 156.6 L104.8 156.4 L105.1 156.1 L105.1 155.8 L105.0 155.6 L104.9 155.3 L104.8 155.1 L104.9 154.8 L105.0 154.3 L105.1 154.0 L105.2 153.8 L105.4 153.7 L105.5 153.5 L105.5 153.1 L105.6 152.9 L105.9 152.8 L106.4 152.5 L106.4 152.4 L106.1 151.9 L106.1 151.2 L106.3 150.5 L107.2 149.6 L107.4 149.5 L107.8 149.5 L108.1 149.3 L108.6 148.8 L108.9 148.7 L109.1 148.6 L109.4 148.4 L109.5 148.2 L109.5 147.8 L109.6 147.6 L109.8 147.6 L110.4 147.6 L110.6 147.5 L110.7 147.5 L110.7 147.4 L110.8 147.2 L110.9 147.1 L110.9 147.0 L111.0 146.9 L111.2 146.9 L111.9 146.7 L112.0 146.6 L112.3 146.3 L113.2 144.6 L113.9 143.8 L114.3 143.5 L114.3 143.5 L114.1 143.4 L112.0 143.1 L108.8 142.0 L108.4 141.9 L107.3 142.0 L105.6 141.7 L105.3 141.7 L104.9 141.9 L104.6 141.9 L104.4 141.9 L104.0 141.8 L103.8 141.8 L103.5 141.8 L103.3 141.9 L103.0 141.9 L102.9 141.9 L102.7 141.9 L102.6 141.8 L102.4 141.5 L102.2 141.4 L101.7 141.3 L100.9 141.2 L100.4 141.0 L100.1 140.7 L99.7 140.2 L99.4 140.1 L99.4 140.0 L99.5 139.9 L99.6 139.9 L99.5 139.6 L99.1 139.5 L98.2 139.5 L98.2 139.2 L97.8 139.2 L97.4 139.3 L97.3 139.3 L96.9 139.4 L96.8 139.5 L96.7 139.8 L96.6 139.9 L96.4 140.0 L96.0 140.0 L95.8 140.1 L95.7 140.2 L95.5 140.4 L95.4 140.5 L95.2 140.5 L94.7 140.3 L92.9 140.3 L92.6 140.3 L92.3 140.2 L91.5 139.8 L91.4 139.8 L91.2 139.9 L91.2 140.0 L91.3 140.1 L91.3 140.2 L90.6 140.5 L90.2 140.2 L89.9 139.7 L90.0 139.0 L89.5 138.9 L88.2 138.5 L88.0 138.5 L87.4 138.5 L86.6 138.4 L86.4 138.4 L86.2 138.7 L86.4 139.0 L86.5 139.3 L86.1 139.7 L85.9 139.7 L85.1 139.5 L84.2 139.5 L83.9 139.4 L83.7 139.1 L83.7 138.9 L83.8 138.6 L83.7 138.3 L83.6 138.3 L83.3 138.4 L83.2 138.4 L83.2 138.4 L83.1 138.2 L83.1 138.2 L83.1 138.1 L82.9 137.7 L82.8 137.6 L82.5 137.6 L82.4 137.5 L82.4 137.4 L82.4 137.2 L82.4 137.1 L81.0 136.3 L80.7 136.0 L80.6 135.8 L80.7 135.6 L81.0 135.6 L81.1 135.4 L81.1 135.3 L80.1 134.6 L79.9 134.5 L80.0 134.4 L80.0 134.3 L79.9 134.2 L79.8 134.0 L79.4 133.8 L77.6 133.2 L77.3 133.1 L77.2 133.2 L76.8 133.4 L76.6 133.4 L76.4 133.4 L76.4 133.2 L76.3 132.6 L76.5 131.9 L76.5 131.7 L76.5 131.1 L76.6 130.9 L76.9 130.6 L77.5 130.1 L77.7 129.9 L77.8 129.7 L77.9 129.6 L77.9 129.5 L77.7 129.4 L77.6 129.3 L77.6 129.3 L77.9 129.0 L79.4 128.4 L79.3 128.3 L79.2 128.2 L79.3 128.1 L79.4 128.1 L79.5 128.1 L79.4 128.0 L79.3 127.8 L79.3 127.7 L79.3 127.5 L79.5 127.4 L79.5 127.3 L79.4 127.2 L79.4 127.1 L79.5 126.6 L79.6 126.6 L79.6 126.4 L79.6 126.4 L79.6 126.4 L79.5 126.3 L79.4 126.3 L78.8 126.2 L77.8 126.2 L77.4 126.2 L77.1 126.0 L76.5 125.6 L76.2 125.5 L76.0 125.5 L75.7 125.6 L75.5 125.6 L75.5 125.5 L75.4 125.3 L75.3 125.2 L75.2 125.1 L74.9 125.0 L74.2 124.8 L73.9 124.5 L73.2 123.5 L72.9 123.1 L72.6 123.4 L72.5 123.2 L72.2 122.7 L71.8 122.3 L71.7 122.2 L71.8 121.9 L71.7 121.5 L71.5 121.3 L71.3 121.2 L71.5 121.0 L71.6 120.9 L71.5 120.9 L71.4 120.9 L71.4 120.9 L71.5 120.4 L71.6 120.1 L71.7 119.8 L71.9 119.6 L72.0 119.5 L71.9 119.4 L71.7 119.3 L71.7 119.2 L71.8 118.9 L71.9 118.9 L72.0 118.8 L72.4 118.8 L72.6 118.7 L72.7 118.5 L72.7 118.3 L72.6 118.1 L72.3 117.9 L72.5 117.7 L73.0 117.5 L73.2 117.3 L73.6 117.2 L74.5 117.0 L74.9 116.8 L74.8 116.6 L74.8 116.4 L75.0 116.2 L75.2 116.0 L75.5 115.9 L75.7 115.9 L75.9 116.0 L76.2 116.0 L76.7 116.0 L77.0 115.8 L77.0 115.6 L76.9 115.5 L76.2 114.7 L76.2 114.5 L76.3 114.2 L76.5 113.7 L76.5 113.4 L76.4 113.3 L76.3 113.3 L76.1 113.1 L76.0 112.9 L75.9 112.7 L76.0 112.6 L76.2 112.4 L75.8 112.4 L75.0 112.3 L74.6 112.2 L74.6 112.1 L74.6 112.1 L74.5 112.1 L74.5 112.2 L73.8 112.3 L73.6 112.3 L73.4 112.2 L73.2 112.0 L73.1 111.9 L73.2 111.7 L73.0 111.7 L72.8 111.7 L72.8 111.6 L73.0 111.4 L72.6 111.1 L73.0 110.8 L73.6 110.4 L74.1 110.2 L74.1 110.2 L74.3 110.0 L74.5 109.8 L74.4 109.7 L73.0 109.7 L72.6 109.5 L72.4 109.2 L72.6 109.1 L71.4 107.9 L71.0 107.7 L70.6 107.6 L69.8 107.8 L69.6 107.8 L69.5 107.6 L69.6 107.4 L69.6 107.2 L69.2 107.1 L69.2 107.0 L69.2 107.0 L69.2 107.0 L69.2 106.9 L69.3 106.7 L69.1 106.5 L68.9 106.4 L68.8 106.3 L68.7 106.0 L69.0 106.1 L69.3 105.9 L69.4 105.6 L69.4 105.4 L69.3 105.3 L69.5 105.1 L69.8 105.0 L70.3 105.0 L70.5 104.8 L70.6 104.6 L70.6 104.4 L70.5 104.0 L70.5 103.9 L70.6 103.8 L70.6 103.7 L70.0 103.6 L69.5 103.4 L69.3 103.3 L69.3 103.1 L69.2 102.8 L69.3 102.6 L69.5 102.5 L69.4 102.3 L68.7 102.4 L68.1 102.3 L67.9 102.3 L67.6 102.3 L67.1 102.5 L66.8 102.5 L66.8 102.0 L66.4 101.4 L66.3 100.9 L66.9 100.7 L67.2 100.8 L67.4 101.0 L67.7 101.2 L68.1 101.2 L68.3 101.0 L68.7 100.5 L69.0 100.3 L70.9 99.3 L72.0 99.0 L72.3 98.7 L71.9 98.4 L72.4 98.2 L72.5 98.1 L72.1 98.0 L71.1 98.5 L70.6 98.3 L70.4 97.9 L70.5 97.5 L70.7 97.1 L70.9 96.9 L71.3 96.5 L72.4 95.3 L72.6 95.2 L73.1 94.9 L73.3 94.8 L73.4 94.5 L73.5 94.1 L73.6 93.9 L73.3 93.7 L73.3 93.3 L73.5 92.8 L73.5 92.4 L73.4 92.1 L73.3 91.4 L72.5 90.8 L71.1 89.6 L71.0 89.4 L71.1 89.1 L71.4 88.6 L70.0 88.3 L69.5 87.9 L69.8 87.3 L69.6 87.2 L69.1 87.0 L68.9 86.9 L68.3 86.9 L68.1 86.9 L68.1 86.6 L68.2 86.6 L68.6 86.4 L68.6 85.9 L68.3 85.5 L67.9 85.3 L67.9 85.1 L68.3 85.0 L69.1 84.9 L69.5 84.8 L69.9 84.6 L70.2 84.5 L71.1 84.4 L71.7 84.5 L72.2 84.6 L72.5 84.6 L72.2 84.3 L71.5 83.8 L71.2 83.7 L71.9 83.5 L72.6 83.7 L73.2 84.0 L73.9 84.2 L74.6 84.1 L74.7 84.1 L74.9 84.2 L75.1 84.4 L75.2 84.5 L76.0 84.6 L76.3 84.7 L76.4 85.0 L77.1 84.9 L77.2 84.7 L77.1 84.2 L78.4 84.5 L78.8 84.5 L79.1 84.4 L80.1 83.9 L82.2 83.5 L84.0 83.4 L84.5 83.2 L85.0 82.9 L85.5 82.4 L85.6 82.3 L85.8 82.2 L85.9 82.2 L85.9 81.9 L85.9 81.8 L85.8 81.7 L85.2 81.3 L83.9 80.9 L83.5 80.8 L83.1 80.7 L83.1 80.4 L83.2 80.1 L83.4 80.1 L83.6 80.1 L83.9 80.0 L84.0 79.9 L84.2 79.6 L84.3 79.5 L84.7 79.3 L85.0 79.2 L85.1 79.2 L86.3 79.1 L86.6 78.9 L87.0 78.4 L87.4 78.1 L88.3 77.9 L88.7 77.6 L89.2 77.2 L89.4 77.0 L90.3 76.7 L90.4 76.6 L90.3 76.5 L90.2 76.4 L90.0 75.9 L90.0 75.6 L90.2 75.2 L90.6 74.7 L90.8 73.9 L90.5 73.4 L89.2 72.2 L89.1 72.2 L89.0 72.3 L88.8 72.4 L88.3 72.5 L87.7 72.6 L87.2 72.5 L86.1 72.2 L84.5 72.1 L83.9 71.9 L83.5 71.7 L83.4 71.4 L83.4 71.0 L83.3 70.6 L83.1 70.3 L83.4 70.3 L84.5 69.9 L83.9 69.6 L83.7 69.5 L83.7 69.3 L83.8 69.1 L83.8 68.9 L83.7 68.7 L84.0 68.6 L84.4 68.4 L85.1 68.3 L87.0 68.3 L88.1 68.5 L89.1 68.4 L89.4 68.4 L90.1 68.6 L90.5 68.1 L90.7 67.4 L90.9 65.2 L91.0 64.5 L91.2 64.2 L91.4 63.9 L93.1 62.3 L93.5 61.6 L93.7 61.0 L93.7 60.3 L93.5 58.8 L93.5 58.6 L93.4 58.5 L93.3 58.4 L93.3 58.1 L93.3 58.0 L93.6 57.5 L93.8 57.2 L93.8 56.8 L93.8 56.5 L93.7 55.9 L93.9 55.9 L94.2 55.7 L94.4 55.6 L94.5 55.4 L94.6 55.1 L94.5 54.9 L95.0 54.4 L95.2 54.3 L95.7 54.3 L96.2 54.4 L96.9 54.7 L97.3 54.8 L96.8 54.3 L96.0 54.1 L91.3 54.0 L90.5 53.8 L90.2 53.3 L90.2 51.7 L90.3 51.4 L90.7 50.8 L90.8 50.5 L91.0 50.3 L91.4 50.3 L92.2 50.4 L92.3 50.2 L92.5 50.2 L92.7 50.0 L92.6 49.7 L92.4 49.6 L91.8 49.4 L91.6 49.2 L91.5 49.0 L91.8 48.7 L92.5 48.5 L93.2 48.0 L93.6 47.8 L94.4 47.3 L96.0 47.0 L99.1 46.7 L99.4 46.8 L99.6 47.0 L100.1 47.1 L103.1 46.7 L109.2 46.2 L110.8 46.5 L110.8 46.6 L110.7 47.2 L111.3 47.9 L112.1 48.6 L112.8 48.9 L112.8 49.0 L112.6 49.3 L113.0 49.3 L113.4 49.4 L113.6 49.6 L113.6 50.0 L113.4 50.2 L112.9 50.4 L112.6 50.5 L111.8 50.6 L111.4 50.7 L111.8 51.4 L112.0 51.6 L112.2 51.8 L112.5 51.7 L112.7 51.7 L113.1 51.7 L113.3 51.8 L113.7 52.0 L113.8 52.1 L114.0 52.2 L114.2 52.4 L114.4 52.6 L114.7 52.6 L115.0 52.6 L115.3 52.6 L115.5 52.5 L115.8 52.4 L116.2 51.9 L116.6 51.2 L116.7 50.5 L116.2 50.1 L115.4 50.3 L114.9 50.2 L115.0 49.9 L115.1 49.6 L115.3 48.9 L115.5 48.6 L115.7 48.4 L116.1 48.3 L116.9 48.3 L117.3 48.4 L117.6 48.7 L117.9 49.0 L118.1 49.2 L118.9 49.4 L120.7 49.6 L121.5 49.8 L121.5 50.0 L121.0 50.2 L120.5 50.6 L120.2 51.0 L120.1 51.6 L120.1 52.7 L120.2 53.3 L120.5 53.6 L120.6 53.1 L120.3 51.8 L120.4 51.2 L120.7 50.8 L121.1 50.6 L121.6 50.4 L121.8 49.8 L121.7 49.7 L121.1 48.9 L121.0 48.8 L120.8 48.5 L120.6 48.2 L120.4 47.8 L120.2 47.3 L120.1 47.0 L120.1 46.6 L120.3 46.3 L121.0 45.2 L121.6 44.0 L121.9 43.4 L122.2 43.2 L122.6 42.9 L123.1 42.8 L123.5 42.7 L123.9 42.7 L124.2 42.8 L124.7 43.1 L125.4 43.5 L126.2 43.7 L127.8 44.0 L128.7 43.9 L130.1 43.7 L131.0 43.8 L131.3 43.5 L133.0 43.3 L134.6 43.3 L134.9 43.1 L135.2 43.2 L135.6 43.3 L136.2 43.3 L136.4 43.3 L136.9 43.7 L138.9 45.8 L139.7 46.3 L140.3 46.6 L140.5 46.8 L140.8 47.5 L142.2 48.7 L142.5 48.9 L142.9 49.0 L143.4 49.0 L143.7 49.1 L144.9 49.6 L146.2 49.8 L147.4 49.9 L147.6 49.8 L147.4 49.6 L146.6 49.3 L144.8 49.2 L144.0 49.0 L142.6 48.4 L141.9 48.0 L141.6 47.3 L141.6 46.8 L141.5 46.4 L141.3 46.3 L140.3 46.0 L140.0 45.9 L139.5 45.6 L139.1 45.0 L138.7 44.4 L138.7 44.0 L138.0 43.8 L136.7 43.1 L135.9 42.8 L135.1 42.7 L132.5 42.7 L131.8 42.5 L131.2 42.4 L131.0 42.5 L130.8 42.7 L130.3 42.6 L129.6 42.3 L128.9 41.8 L127.2 39.8 L128.0 39.6 L128.4 39.5 L128.9 39.6 L129.7 39.9 L130.1 40.0 L130.6 39.9 L130.7 39.7 L130.9 39.3 L131.0 38.8 L131.0 38.5 L130.8 38.3 L130.4 38.1 L130.1 37.9 L130.2 37.7 L130.2 37.5 L129.7 37.4 L129.0 37.5 L128.3 37.7 L127.9 38.0 L127.8 38.0 L127.2 37.4 L126.9 36.9 L126.8 36.8 L127.0 36.4 L127.3 36.1 L127.5 35.7 L127.4 35.4 L127.4 35.3 L127.6 35.2 L128.5 35.0 L128.8 35.0 L129.0 34.9 L129.4 34.7 L129.7 34.3 L129.9 34.0 L129.4 34.1 L128.6 34.5 L128.2 34.6 L128.2 34.5 L128.3 34.4 L128.3 34.3 L127.7 34.3 L126.7 34.5 L126.0 34.6 L125.3 34.5 L125.0 34.6 L124.3 35.0 L124.1 35.0 L123.5 34.9 L122.9 34.6 L122.5 34.1 L122.5 33.6 L122.7 33.4 L123.3 33.2 L123.9 33.2 L124.4 33.2 L124.4 33.0 L124.0 33.0 L123.8 32.8 L123.5 32.8 L123.2 33.0 L123.0 32.8 L123.1 32.6 L123.2 32.4 L123.4 32.2 L123.9 32.3 L125.5 32.1 L127.8 32.1 L128.3 32.0 L128.7 31.8 L129.6 31.4 L130.4 31.1 L130.7 31.0 L130.9 30.7 L130.9 30.2 L130.3 29.7 L128.7 28.6 L128.4 28.4 L128.3 28.2 L128.2 28.1 L127.7 28.1 L127.3 28.2 L127.1 28.3 L126.9 28.1 L127.6 27.9 L126.9 26.7 L126.7 26.5 L126.1 26.2 L125.0 25.7 L124.3 25.5 L124.3 25.3 L124.4 25.0 L124.1 24.6 L123.7 24.2 L123.4 23.8 L123.3 23.3 L123.4 22.8 L123.7 22.2 L124.4 22.3 L125.2 22.3 L126.6 22.0 L127.0 22.0 L128.7 22.2 L130.3 22.5 L134.6 23.1 L135.0 23.3 L135.0 23.5 L135.1 23.8 L135.3 24.0 L135.6 24.1 L137.1 24.1 L137.4 24.1 L137.6 24.0 L137.9 23.9 L138.1 23.8 L138.5 23.8 L138.9 24.0 L139.3 24.0 L139.6 24.0 L139.6 24.0 L139.9 24.0 L141.1 23.6 L141.5 23.3 L142.0 23.2 L142.2 22.9 L142.5 22.8 L142.5 23.5 L143.5 23.8 L144.8 23.8 L145.6 24.0 L146.0 24.2 L146.5 24.3 L147.0 24.5 L147.2 24.9 L147.5 25.0 L148.0 25.0 L148.9 24.8 L148.8 24.4 L149.3 24.3 L150.0 24.6 L150.5 24.9 L150.7 25.6 L150.9 25.8 L151.1 25.9 L151.4 26.2 L151.2 26.3 L150.9 26.3 L150.7 26.2 L150.5 26.2 L150.5 26.2 L150.0 26.5 L149.9 26.5 L149.8 26.5 L149.7 26.5 L149.6 26.6 L149.6 26.7 L149.9 26.8 L150.5 26.7 L151.0 26.6 L151.3 26.9 L151.5 26.8 L151.8 26.8 L151.9 26.9 L151.7 27.2 L151.8 27.5 L151.8 27.9 L151.7 28.7 L151.6 29.1 L151.5 29.4 L151.3 29.6 L151.0 29.8 L150.4 30.2 L149.5 30.4 L148.7 30.6 L147.8 30.7 L147.8 30.8 L148.7 31.1 L153.6 30.4 L154.0 30.5 L155.2 31.1 L154.8 31.3 L154.8 31.6 L155.0 31.8 L155.1 32.1 L155.0 32.4 L154.7 32.7 L154.3 32.8 L154.0 32.9 L154.0 32.9 L154.1 33.0 L154.1 33.0 L154.0 33.2 L154.2 33.3 L154.2 33.5 L154.2 33.7 L154.0 33.9 L154.4 33.8 L154.8 33.5 L155.2 32.9 L155.5 32.2 L155.6 32.1 L155.9 32.0 L156.6 31.9 L156.9 31.8 L157.0 31.7 L157.1 31.6 L157.3 31.5 L157.6 31.5 L158.4 31.5 L158.9 31.6 L160.1 32.2 L163.3 33.0 L165.2 34.0 L166.0 34.2 L166.9 34.1 L167.6 33.8 L168.8 33.2 L169.5 32.9 L170.2 32.8 L171.9 32.6 L171.9 32.8 L171.5 32.8 L171.0 32.8 L171.4 32.9 L171.7 32.8 L172.2 33.0 L173.6 32.5 L174.3 32.6 L173.5 33.1 L173.3 33.3 L173.2 33.3 L172.9 33.2 L173.1 33.5 L173.3 34.3 L173.4 34.7 L173.3 35.0 L173.3 35.3 L173.4 35.9 L173.3 36.3 L173.1 36.4 L172.9 36.6 L172.9 36.8 L170.5 37.7 L169.7 38.3 L169.3 38.4 L168.5 38.6 L168.3 38.6 L168.1 38.7 L168.0 38.6 L167.9 38.5 L167.7 38.5 L167.5 38.6 L167.4 38.6 L166.7 39.3 L166.4 39.5 L166.4 39.6 L166.7 40.0 L167.0 40.3 L167.4 40.5 L168.0 40.6 L168.8 40.6 L169.0 40.6 L169.1 40.8 L169.1 41.1 L169.2 41.2 L169.5 41.3 L169.6 41.3 L169.8 41.3 L169.9 41.3 L170.2 41.2 L170.8 40.8 L171.1 40.7 L171.5 40.7 L172.6 40.3 L175.1 40.1 L175.3 40.2 L175.4 40.3 L175.5 40.6 L175.7 40.7 L176.4 40.8 L176.5 41.0 L176.4 41.4 L176.5 41.6 L176.7 41.7 L177.3 41.7 L177.5 41.7 L178.3 41.3 L178.5 41.4 L178.7 41.7 L178.8 41.7 L179.7 41.7 L179.7 41.8 L180.5 42.4 L180.6 42.4 L180.9 42.4 L180.9 42.2 L181.1 41.9 L181.2 41.5 L181.2 41.1 L181.3 41.0 L181.5 40.9 L181.7 40.9 L181.6 40.8 L181.6 40.6 L181.5 40.5 L182.2 40.0 L182.2 39.9 L182.1 39.9 L182.1 39.8 L182.6 39.9 L182.8 39.9 L183.2 39.7 L183.6 39.2 L183.9 39.1 L184.0 39.0 L184.2 38.9 L184.3 38.8 L184.3 38.6 L184.4 38.5 L184.2 38.5 L184.2 38.4 L184.3 38.3 L184.4 38.2 L184.4 38.1 L184.9 37.6 L185.6 37.3 L186.4 37.3 L188.1 37.4 L193.0 36.8 L193.7 36.5 L193.8 37.1 L193.8 37.7 L193.8 38.2 L194.3 38.5 L194.1 38.3 L194.0 37.7 L193.9 37.5 L194.1 37.3 L194.7 37.1 L194.8 36.8 L194.6 36.8 L194.4 36.8 L194.2 36.9 L194.0 37.0 L194.2 36.8 L194.8 36.2 L195.3 36.0 L195.7 35.5 L196.0 35.4 L196.3 35.4 L197.8 34.9 L198.6 34.5 L198.9 34.3 L199.7 33.5 L200.9 32.4 L201.0 32.2 L201.9 31.4 L202.2 30.8 L202.4 30.7 L202.8 30.5 L202.8 30.7 L202.7 30.7 L203.1 31.1 L204.0 31.3 L208.7 31.3 L209.4 31.5 L209.9 31.3 L210.5 31.4 L210.8 31.7 L210.2 31.9 L209.7 32.0 L207.5 31.9 L206.7 31.7 L206.1 31.6 L206.0 31.7 L205.7 31.9 L205.6 31.9 L205.2 31.9 L204.7 31.9 L204.5 31.9 L204.4 32.2 L204.2 32.1 L204.1 32.1 L203.9 32.2 L203.8 32.2 L203.9 32.4 L203.9 32.5 L204.1 32.5 L204.2 32.5 L204.2 32.5 L204.1 32.5 L204.1 32.5 L204.1 32.6 L203.7 32.5 L203.3 32.5 L202.9 32.7 L202.7 32.9 L202.4 32.7 L202.0 32.5 L201.2 32.5 L200.9 32.6 L200.6 32.8 L200.5 33.1 L200.6 33.5 L200.3 33.4 L200.2 33.4 L200.0 33.3 L199.9 33.5 L200.0 33.7 L199.9 33.9 L199.7 34.1 L199.3 34.2 L199.5 34.5 L199.7 34.7 L199.7 34.8 L199.5 35.0 L200.4 35.4 L200.9 35.4 L201.3 35.3 L201.0 35.3 L200.7 35.2 L200.3 35.0 L200.4 34.8 L200.6 34.6 L201.2 34.3 L201.3 34.3 L201.5 34.2 L201.6 34.2 L201.6 34.1 L201.7 33.8 L201.7 33.7 L202.1 33.6 L203.4 33.2 L203.1 33.1 L203.0 33.0 L203.0 32.9 L203.4 32.8 L203.5 32.8 L203.7 32.9 L203.7 32.8 L204.0 33.0 L204.7 32.9 L205.8 32.5 L205.7 32.4 L205.7 32.3 L205.6 32.2 L205.8 32.1 L206.1 32.1 L206.3 32.0 L206.6 32.1 L206.6 32.2 L206.3 32.3 L206.1 32.4 L206.0 32.6 L205.9 32.9 L206.2 32.6 L206.3 32.5 L206.3 32.3 L206.5 32.5 L206.7 32.7 L206.9 32.8 L207.2 32.6 L207.4 32.7 L207.6 32.7 L207.8 32.6 L208.0 32.5 L208.1 32.7 L208.2 32.8 L208.3 32.9 L208.6 33.2 L208.7 33.2 L208.8 33.2 L209.0 33.2 L209.4 33.2 L209.6 33.2 L209.8 33.0 L210.0 32.9 L210.2 32.5 L210.4 32.3 L210.9 32.0 L211.7 31.7 L212.5 31.6 L213.1 31.6 L212.8 31.8 L212.8 32.0 L212.9 32.3 L213.2 32.5 L214.1 32.8 L214.3 32.9 L213.9 33.3 L214.0 33.6 L214.6 34.2 L214.7 34.4 L214.7 34.6 L214.7 34.8 L214.9 34.9 L215.9 34.9 L215.9 35.0 L215.7 35.0 L215.5 35.0 L215.3 35.1 L216.0 35.1 L217.0 35.5 L217.7 35.6 L218.3 35.7 L218.9 36.5 L219.5 36.8 L219.2 37.0 L218.9 37.1 L219.4 37.1 L220.2 36.9 L220.6 37.0 L220.4 37.2 L220.4 37.3 L220.2 37.4 L220.4 37.5 L220.6 37.4 L220.7 37.4 L220.9 37.4 L221.0 37.5 L221.3 38.0 L221.6 38.3 L221.9 38.5 L222.2 38.6 L222.7 38.6 L222.7 38.5 L222.6 38.4 L222.3 38.2 L222.2 38.1 L222.2 38.0 L224.7 37.7 L225.3 37.5 L226.3 37.1 L226.9 37.0 L227.0 37.1 L227.0 37.2 L226.8 37.2 L226.6 37.3 L226.6 37.4 L227.3 37.6 L228.9 38.4 L228.9 38.5 L228.6 38.8 L228.4 39.2 L228.2 39.6 L227.6 39.8 L227.9 39.9 L228.4 40.3 L228.7 40.5 L228.8 40.6 L229.4 40.7 L229.5 40.8 L229.6 40.9 L229.7 41.1 L229.7 41.2 L229.7 41.2 L229.7 41.3 L229.7 41.4 L229.8 41.5 L230.1 41.4 L230.1 41.5 L230.3 41.5 L230.4 41.6 L230.5 41.6 L230.6 41.6 L230.9 41.7 L230.9 41.9 L230.8 42.1 L230.6 42.3 L229.1 43.0 L228.9 43.3 L229.1 43.5 L229.4 43.6 L229.8 43.7 L230.0 43.8 L230.1 44.0 L230.4 44.2 L230.8 44.4 L231.0 44.4 L232.5 45.1 L233.2 45.2 L233.5 45.5 L233.6 45.5 L234.1 45.5 L234.2 45.5 L234.7 45.7 L235.0 45.8 L236.6 45.8 L237.2 45.7 L237.4 45.4 L237.6 45.4 L237.9 45.4 L238.2 45.6 L238.3 45.9 L238.1 46.1 L237.1 46.5 L237.4 46.6 L237.7 46.6 L238.0 46.7 L238.2 46.6 L238.2 46.6 L238.2 47.2 L238.1 47.5 L238.4 47.9 L238.9 48.7 L238.9 48.9 L238.8 49.7 L238.9 50.1 L239.0 50.6 L239.5 51.0 L239.7 51.4 L240.1 51.9 L240.4 52.9 L240.8 54.1 L240.9 54.5 L241.0 54.7 L241.0 55.0 L241.0 55.2 L241.2 55.4 L241.5 55.5 L241.6 55.6 L241.8 55.8 L241.3 56.4 L241.1 56.6 L240.9 56.6 L240.7 56.8 L240.6 57.1 L240.5 57.3 L240.6 57.7 L240.7 58.0 L240.8 58.3 L240.1 59.4 L240.1 59.6 L239.8 59.9 L239.2 60.3 L238.0 60.9 L236.7 61.3 L235.7 61.8 L235.7 61.9 L235.9 62.1 L236.1 62.8 L236.2 63.1 L236.1 63.5 L235.9 63.7 L235.3 64.0 L235.6 64.3 L235.9 64.5 L236.3 64.5 L236.8 64.6 L237.2 64.7 L237.9 65.1 L238.4 65.3 L240.6 66.3 L240.9 66.5 L241.6 67.4 L241.8 67.5 L242.2 67.6 L242.8 68.1 L244.0 68.4 L245.2 69.2 L245.3 69.3 L246.0 69.6 L245.4 70.3 L245.2 70.8 L245.6 71.0 L245.7 71.2 L245.4 71.7 L244.9 72.2 L243.8 72.8 L243.9 73.6 L244.4 74.5 L244.9 75.1 L244.7 75.4 L245.2 75.7 L245.9 76.0 L246.5 76.0 L247.0 76.2 L247.4 76.6 L247.3 77.0 L246.9 77.3 L246.9 77.4 L247.2 77.7 L247.2 78.0 L246.9 78.4 L246.8 78.9 L247.0 79.2 L248.4 79.8 L248.0 80.1 L247.8 80.3 L247.8 80.5 L247.7 80.6 L247.6 80.8 L247.2 81.3 L247.1 81.5 L247.0 82.8 L246.8 83.2 L246.5 83.5 L246.1 83.9 L245.0 84.6 L244.7 84.9 L244.8 85.4 L245.1 85.7 L245.5 85.9 L245.8 86.1 L245.8 86.6 L246.0 87.2 L246.5 87.5 L247.5 88.0 L247.8 88.4 L248.0 88.9 L248.0 89.4 L247.8 89.8 L247.4 90.2 L247.2 90.6 L247.2 90.8 L247.3 91.0 L247.8 91.3 L249.1 91.5 L249.5 91.7 L249.5 91.7 L250.0 91.9 L250.9 92.1 L251.4 92.2 L251.7 92.4 L252.1 92.6 L252.3 92.9 L252.1 93.2 L252.2 93.7 L252.3 94.6 L252.3 94.6 L252.4 95.0 L252.5 95.1 L252.9 95.5 L253.3 95.9 L253.6 96.3 L253.5 96.9 L253.6 96.9 L253.7 97.0 L253.3 97.4 L253.1 97.9 L252.9 98.5 L252.9 99.0 L252.8 99.3 L252.7 99.4 L252.5 99.5 L252.4 99.7 L252.4 99.9 L252.4 100.3 L252.3 100.5 L251.4 102.0 L250.4 103.5 L249.6 104.0 L249.4 104.3 L249.4 104.7 L249.0 105.2 L248.8 105.5 L248.6 105.6 L248.3 105.7 L247.9 105.7 L247.1 105.6 L246.3 105.2 L246.0 105.1 L245.3 105.0 L245.2 104.8 L245.3 104.4 L245.6 103.9 L245.8 103.7 L245.7 103.4 L245.4 103.4 L244.3 103.7 L244.0 103.6 L244.2 103.4 L244.4 103.1 L244.6 102.8 L244.6 102.5 L244.5 102.3 L244.4 102.1 L244.1 102.0 L243.9 101.8 L243.3 101.7 L243.1 101.6 L242.9 101.5 L242.8 101.3 L242.8 101.2 L242.6 101.0 L242.5 101.3 L242.2 101.4 L241.5 101.4 L240.9 101.5 L240.7 101.5 L240.5 101.5 L240.3 101.3 L240.2 101.2 L240.1 101.1 L239.3 101.0 L238.7 101.1 L238.2 101.4 L237.9 102.0 L237.7 102.2 L237.9 102.3 L238.6 102.3 L239.0 102.4 L239.0 102.5 L238.8 102.5 L238.8 102.8 L239.3 103.1 L240.1 103.2 L240.6 103.4 L240.5 103.9 L239.9 104.3 L238.3 104.2 L237.5 104.3 L237.3 104.4 L236.9 104.8 L236.7 104.9 L233.5 105.8 L233.1 105.9 L232.4 105.8 L232.0 105.9 L231.8 106.0 L231.4 106.2 L231.2 106.3 L231.0 106.3 L230.8 106.3 L230.6 106.3 L230.4 106.4 L230.3 106.6 L230.4 106.8 L230.4 107.0 L230.4 107.1 L230.2 107.2 L230.1 107.2 L230.0 107.2 L229.4 107.5 L229.0 107.5 L228.1 107.4 L227.7 107.5 L226.9 107.6 L226.5 107.7 L224.7 107.7 L223.7 107.8 L222.9 108.1 L223.1 108.4 L223.1 108.7 L222.8 108.9 L222.4 109.1 L222.6 109.3 L222.5 109.4 L222.4 109.5 L222.2 109.6 L221.9 109.8 L221.5 110.0 L221.1 110.1 L220.7 110.0 L220.5 109.8 L220.3 109.5 L220.1 109.5 L219.9 109.4 L219.8 109.4 L219.8 109.5 L219.7 109.6 L218.9 109.9 L218.8 110.1 L218.6 110.5 L218.2 110.6 L217.8 110.5 L217.5 110.4 L217.1 110.3 L216.4 111.5 L216.1 111.8 L215.6 112.1 L214.6 112.0 L214.0 112.2 L214.0 112.2 L214.0 112.2 L213.8 112.2 L213.6 112.2 L213.4 112.2 L213.2 112.2 L213.1 112.1 L212.9 112.1 L212.7 112.1 L212.6 112.2 L212.4 113.0 L212.3 113.4 L212.0 113.6 L211.6 113.9 L211.4 114.0 L210.7 114.0 L208.8 113.2 L208.6 113.2 L208.4 113.2 L208.2 113.3 L208.0 113.4 L207.7 113.3 L207.3 113.3 L207.0 113.4 L206.7 113.6 L206.3 114.0 L206.1 114.2 L205.8 114.2 L204.7 114.1 L203.2 114.1 L202.4 114.3 L201.8 114.6 L201.6 114.7 L201.6 114.8 L201.5 114.9 L201.5 115.0 L201.5 115.0 L201.5 115.1 L201.5 115.2 L201.5 115.3 L201.4 115.3 L201.2 115.3 L201.1 115.3 L200.9 115.4 L200.3 115.7 L200.1 115.8 L199.4 116.5 L199.2 116.7 L199.0 116.8 L198.8 117.0 L198.8 117.3 L198.3 117.6 L198.2 117.8 L198.2 118.2 L198.2 118.4 L198.4 118.6 L198.4 118.8 L198.1 119.0 L197.7 118.9 L197.5 118.7 L197.3 118.2 L197.2 118.1 L197.2 117.9 L197.1 117.8 L197.0 117.7 L196.7 117.5 L196.6 117.4 L196.6 117.4 L196.6 117.4 L196.7 117.3 L196.7 117.3 L196.7 117.3 L196.8 117.3 L196.8 117.3 L196.9 117.2 L196.9 117.1 L196.8 117.0 L196.7 116.9 L196.1 116.9 L195.8 116.9 L195.6 116.7 L195.5 116.6 L195.5 116.2 L195.4 116.1 L195.0 115.9 L194.0 115.8 L193.5 115.8 L194.0 116.1 L194.1 116.3 L194.2 116.6 L194.2 116.9 L194.0 116.9 L193.8 117.0 L193.6 117.3 L193.8 117.5 L194.8 117.9 L195.3 118.3 L195.5 118.5 L195.7 118.8 L195.7 119.1 L195.6 119.5 L195.6 119.8 L195.8 120.1 L196.1 120.3 L196.4 120.4 L196.7 120.6 L196.9 120.8 L196.9 121.0 L196.9 121.2 L197.0 121.3 L200.1 122.4 L200.1 122.4 L200.4 122.6 L201.2 122.6 L201.5 122.8 L201.5 123.1 L201.4 123.4 L201.4 123.6 L202.2 124.0 L202.5 124.0 L202.6 124.2 L202.6 124.6 L202.4 124.9 L201.9 125.5 L201.8 125.8 L201.4 125.7 L201.3 126.0 L201.2 126.4 L201.2 126.7 L200.9 127.0 L200.0 127.2 L199.8 127.5 L199.9 127.7 L200.1 128.0 L200.5 128.4 L200.8 128.5 L201.1 128.7 L201.8 128.9 L202.1 129.0 L202.2 129.2 L202.3 129.5 L202.1 129.7 L202.1 129.7 L202.3 129.8 L202.2 130.0 L202.2 130.0 L202.4 130.2 L202.9 130.4 L203.1 130.5 L203.2 130.7 L203.3 131.2 L203.4 131.4 L203.6 131.7 L203.7 131.8 L203.8 132.0 L204.1 132.2 L204.3 132.2 L204.5 132.2 L204.7 132.3 L204.7 132.6 L204.7 133.3 L204.8 133.6 L205.1 133.9 L205.5 134.1 L206.4 134.4 L206.8 134.7 L207.5 135.7 L207.8 135.9 L208.2 136.0 L209.4 136.1 L209.8 136.1 L209.7 135.8 L210.0 135.7 L210.8 135.9 L211.1 136.0 L211.4 136.2 L212.0 136.6 L212.4 136.6 L212.5 136.8 L212.5 137.0 L212.6 137.2 L213.2 137.7 L213.3 137.7 L213.5 137.8 L215.4 139.5 L215.7 139.9 L216.0 140.3 L216.6 140.5 L217.8 140.5 L218.2 140.6 L218.5 140.8 L219.1 141.3 L220.0 141.9 L220.2 142.2 L220.2 142.8 L220.5 143.1 L221.1 143.5 L221.7 143.8 L222.2 143.9 L222.4 143.6 L222.6 143.4 L222.9 143.3 L223.0 143.3 L223.4 143.3 L223.7 143.5 L224.1 143.7 L224.4 143.8 L224.8 143.8 L224.9 144.2 L225.1 144.5 L225.4 144.9 L225.7 145.1 L226.1 145.2 L226.9 145.3 L227.2 145.4 L227.6 145.9 L228.6 147.2 L229.0 147.4 Z M237.1 41.8 L236.7 42.3 L236.6 42.4 L236.4 42.4 L236.7 42.7 L236.9 43.0 L234.6 43.2 L234.1 43.1 L233.8 43.0 L233.3 43.3 L232.7 43.5 L231.5 43.7 L230.2 43.7 L229.5 43.6 L229.2 43.3 L229.4 43.2 L229.8 43.0 L230.5 42.9 L231.2 42.7 L231.4 42.6 L231.5 42.0 L230.8 41.1 L230.8 40.6 L231.9 40.6 L232.2 40.7 L232.1 40.9 L232.1 41.0 L232.0 41.4 L232.0 41.7 L232.3 41.4 L232.5 41.3 L233.4 41.3 L233.3 41.3 L233.2 41.4 L233.1 41.5 L233.1 41.6 L233.8 41.7 L233.6 41.5 L233.9 41.0 L233.8 40.4 L233.6 40.1 L233.1 40.2 L232.9 39.9 L232.7 39.6 L232.4 39.4 L232.1 39.2 L231.7 39.1 L231.3 39.2 L231.1 39.4 L231.3 39.6 L231.3 39.8 L231.1 39.8 L230.9 39.9 L230.8 40.1 L230.7 40.3 L230.6 40.3 L229.9 40.5 L229.9 40.2 L230.0 40.0 L230.2 39.9 L230.3 39.8 L230.2 39.5 L230.0 39.5 L229.8 39.6 L229.2 39.7 L228.9 40.0 L228.6 40.1 L228.2 40.0 L228.3 39.6 L228.9 39.0 L229.0 38.4 L228.8 38.1 L228.0 37.6 L227.7 37.4 L227.9 37.1 L228.3 37.0 L228.6 36.9 L229.0 37.0 L229.2 37.2 L229.6 37.8 L229.9 38.1 L230.4 38.4 L231.7 38.9 L232.5 39.1 L233.1 39.3 L236.7 41.6 L237.1 41.8 L237.1 41.8 Z M226.6 32.5 L227.2 33.1 L227.5 33.3 L228.0 33.5 L227.8 33.6 L227.5 33.8 L227.3 34.0 L227.2 34.4 L227.2 34.7 L227.1 34.8 L226.9 34.8 L226.5 34.7 L226.7 34.7 L226.9 34.7 L227.0 34.5 L226.9 34.3 L226.8 34.3 L226.6 34.4 L226.2 34.5 L225.9 34.5 L225.7 34.4 L225.7 34.3 L226.4 34.1 L226.7 34.0 L226.9 33.7 L225.8 33.8 L225.4 33.9 L225.0 34.0 L226.1 33.6 L226.5 33.5 L226.5 33.3 L225.9 33.3 L225.6 33.3 L225.4 33.4 L225.2 33.6 L225.0 33.5 L224.8 33.4 L224.6 33.3 L222.6 33.5 L222.2 33.6 L221.1 34.2 L220.9 34.4 L220.7 34.7 L220.2 34.7 L219.7 34.9 L219.6 35.4 L219.9 35.3 L219.9 35.2 L219.9 35.2 L219.8 35.2 L219.8 35.1 L220.8 35.0 L220.9 35.1 L221.0 35.5 L221.0 35.8 L220.7 35.8 L220.1 35.8 L219.5 35.7 L218.7 35.4 L218.9 35.3 L219.0 35.0 L219.2 34.7 L218.9 34.8 L218.8 34.9 L218.7 35.0 L218.7 35.1 L218.8 35.1 L218.4 35.1 L218.2 35.1 L218.0 35.2 L217.8 35.3 L217.6 35.2 L217.4 35.1 L217.3 35.0 L217.0 35.0 L216.7 34.9 L216.4 34.7 L216.5 34.4 L216.3 34.4 L215.6 34.6 L215.4 34.6 L215.3 34.4 L215.4 34.3 L215.7 34.2 L216.0 34.3 L216.0 34.2 L214.7 33.6 L215.0 33.2 L215.4 32.8 L215.9 32.7 L216.5 32.9 L216.7 32.8 L216.9 32.9 L217.2 32.9 L217.8 32.6 L217.5 32.6 L217.3 32.5 L217.2 32.3 L217.2 32.1 L217.2 31.9 L217.0 31.9 L216.8 31.8 L216.7 31.7 L216.5 31.6 L215.6 31.8 L215.9 31.4 L216.1 31.3 L216.6 31.2 L217.2 31.0 L217.7 30.9 L217.7 30.8 L217.7 30.8 L217.8 30.8 L217.9 30.7 L217.4 30.5 L217.1 30.4 L217.0 30.3 L217.0 30.2 L217.1 30.2 L217.1 30.1 L217.1 30.0 L216.5 30.1 L216.2 30.1 L216.0 30.0 L215.9 30.0 L215.9 30.0 L215.8 29.9 L215.7 29.7 L215.7 29.6 L215.6 29.5 L215.5 29.4 L215.3 29.4 L215.8 29.3 L217.3 29.1 L217.7 29.2 L217.8 29.3 L218.0 29.4 L218.3 29.5 L218.4 29.7 L218.4 29.9 L218.6 29.8 L218.7 29.6 L218.5 29.3 L218.8 29.0 L219.2 28.8 L219.6 28.6 L219.9 28.6 L219.7 29.0 L219.5 29.1 L219.4 29.3 L219.5 29.3 L219.6 29.3 L219.7 29.3 L219.8 29.4 L219.7 29.5 L219.5 29.8 L219.8 29.8 L220.0 29.8 L220.2 29.6 L220.3 29.4 L220.2 29.4 L220.0 29.3 L219.8 29.3 L219.8 29.1 L220.1 29.0 L220.3 29.2 L220.6 29.5 L220.9 29.8 L220.8 30.1 L221.2 30.4 L221.7 30.5 L222.7 30.5 L222.6 30.4 L222.8 30.1 L222.9 30.0 L223.0 30.0 L223.0 29.8 L222.8 29.5 L222.7 29.4 L222.6 29.3 L222.6 29.1 L222.7 29.1 L222.8 29.0 L222.8 29.0 L223.0 29.0 L223.0 28.8 L222.7 28.9 L222.6 28.9 L222.5 29.1 L222.3 29.1 L222.1 29.1 L221.4 29.1 L221.3 29.1 L221.2 28.9 L221.0 28.8 L220.8 28.7 L220.5 28.7 L220.4 28.6 L220.3 28.4 L220.2 28.3 L220.0 28.1 L219.9 28.0 L219.6 28.1 L219.5 28.2 L219.1 28.5 L218.7 28.7 L218.3 28.9 L217.9 29.0 L217.5 29.0 L217.5 28.7 L217.6 28.4 L217.9 28.0 L218.2 27.9 L218.2 27.8 L218.3 27.6 L218.4 27.4 L218.3 27.3 L217.4 27.4 L217.1 27.6 L217.0 27.5 L217.0 27.3 L217.1 27.2 L217.3 27.0 L217.5 26.9 L220.3 26.4 L220.9 26.4 L221.5 26.6 L221.5 26.7 L221.1 26.9 L220.7 27.0 L220.4 27.2 L220.2 27.5 L220.3 27.9 L220.4 28.2 L220.7 28.4 L221.0 28.6 L221.9 28.7 L224.5 28.4 L225.5 28.5 L226.1 28.9 L226.2 29.5 L225.7 30.0 L224.8 30.3 L224.3 30.6 L224.1 30.9 L224.2 31.2 L224.4 31.6 L224.6 31.9 L224.8 32.1 L225.2 32.2 L226.2 32.3 L226.6 32.5 Z" fill="#172033" fill-rule="evenodd"/></svg>
