<svg xmlns="http://www.w3.org/2000/svg" viewBox="0 0 320 200" role="img"><path d="M44.2 149.4 L44.5 148.7 L44.2 148.5 L44.7 147.4 L44.4 146.4 L43.8 145.4 L43.4 144.4 L43.5 143.2 L44.0 142.1 L44.6 141.2 L45.0 140.2 L40.8 139.7 L40.4 139.8 L40.2 140.1 L40.1 141.6 L39.9 141.8 L39.5 141.8 L39.0 142.2 L38.5 142.6 L37.9 142.8 L37.2 142.7 L36.7 142.3 L36.3 141.3 L36.3 140.4 L36.6 139.4 L36.7 138.4 L37.4 137.6 L39.1 137.5 L40.7 137.8 L41.5 138.3 L41.0 138.4 L40.6 138.6 L39.9 139.1 L40.0 139.5 L42.4 139.7 L44.5 140.0 L45.3 139.8 L45.2 139.1 L44.5 137.7 L44.0 136.1 L43.7 134.4 L43.8 134.0 L44.1 133.4 L44.2 133.1 L44.1 132.6 L43.7 131.6 L43.3 129.8 L43.0 129.0 L42.5 128.2 L41.5 127.8 L40.1 127.6 L37.5 127.6 L35.6 127.2 L34.0 126.4 L30.5 123.4 L30.5 123.1 L31.3 123.0 L31.3 122.7 L30.6 122.6 L29.7 122.5 L28.8 122.7 L28.1 123.0 L27.7 123.5 L27.8 123.9 L29.0 124.6 L28.6 124.7 L28.3 124.8 L27.9 125.1 L28.8 125.2 L29.8 125.6 L30.7 126.2 L31.1 126.9 L30.6 127.0 L25.9 124.8 L24.9 124.5 L22.6 124.2 L22.0 123.9 L22.0 123.3 L24.2 120.0 L24.9 118.5 L25.4 116.8 L25.5 115.3 L23.6 107.6 L23.4 107.2 L23.3 107.1 L23.3 106.9 L23.3 106.7 L23.4 106.7 L23.7 106.7 L23.8 106.8 L23.8 106.9 L24.0 106.9 L24.2 107.2 L25.2 110.2 L25.9 111.2 L26.0 111.6 L25.9 112.0 L25.5 112.5 L25.4 113.0 L25.6 113.5 L25.9 113.6 L27.7 113.1 L29.5 112.2 L30.4 112.0 L31.9 111.4 L33.5 110.4 L33.7 109.8 L33.5 109.1 L32.9 108.5 L32.3 107.9 L30.8 106.8 L30.8 105.6 L30.4 104.2 L29.4 103.3 L28.0 102.7 L25.0 102.0 L24.2 101.9 L23.8 102.2 L23.9 103.9 L23.8 104.7 L23.6 105.6 L23.7 106.2 L23.6 106.5 L23.0 106.4 L22.9 106.2 L22.7 105.8 L22.5 105.3 L22.4 102.5 L22.5 101.6 L23.4 99.1 L23.6 98.2 L23.1 84.7 L23.3 84.0 L23.6 83.3 L25.3 80.0 L26.1 78.9 L26.7 78.4 L26.9 78.5 L27.1 78.9 L27.4 79.1 L27.4 79.3 L26.5 80.6 L26.2 80.9 L26.2 81.2 L26.5 81.3 L26.7 81.4 L27.4 81.5 L27.6 81.6 L27.7 82.0 L27.9 82.4 L28.3 82.5 L29.9 82.7 L30.3 82.9 L29.7 83.1 L29.9 83.4 L29.8 84.1 L30.0 84.4 L30.3 84.6 L30.7 84.5 L30.8 84.2 L30.5 83.9 L30.5 83.6 L31.8 83.4 L33.7 83.4 L35.4 83.6 L36.2 84.0 L36.5 84.1 L38.5 85.0 L39.0 84.8 L39.5 84.5 L39.9 84.0 L40.2 83.6 L40.4 83.6 L41.6 85.5 L41.7 85.8 L41.5 85.9 L41.6 86.3 L41.8 86.7 L42.5 86.9 L43.2 87.5 L43.7 87.6 L44.4 87.6 L46.7 87.4 L47.0 87.3 L47.2 87.1 L47.3 86.8 L47.4 86.4 L47.4 85.9 L47.5 85.5 L47.7 84.7 L47.9 84.4 L48.1 84.3 L48.1 84.2 L48.0 83.9 L46.7 83.3 L46.3 83.3 L46.1 83.2 L45.9 83.0 L45.8 82.7 L45.6 82.3 L45.0 82.2 L45.0 81.8 L45.5 81.5 L47.3 81.4 L49.8 79.1 L50.4 78.9 L52.0 78.6 L54.2 78.5 L54.3 78.4 L53.3 78.3 L51.6 78.2 L51.2 78.0 L51.6 77.3 L52.1 76.7 L52.6 76.4 L53.9 75.8 L55.7 74.9 L56.4 74.8 L56.9 74.8 L57.6 75.0 L58.0 75.1 L58.5 75.0 L58.7 74.8 L58.9 74.6 L59.2 74.5 L59.9 74.5 L60.8 74.6 L61.6 75.0 L61.9 75.4 L62.1 76.4 L62.7 76.9 L63.3 77.3 L63.8 77.7 L64.3 78.5 L63.2 78.7 L62.1 79.7 L61.1 79.9 L61.1 80.1 L61.2 80.5 L60.8 80.8 L59.8 81.5 L59.4 82.0 L59.3 82.5 L59.5 83.8 L59.8 84.1 L60.4 84.1 L61.1 83.6 L61.6 82.4 L62.2 82.3 L62.9 82.4 L63.5 82.3 L63.3 81.9 L63.0 81.8 L62.6 81.8 L62.2 82.0 L62.5 81.6 L62.8 81.3 L63.1 80.9 L63.2 80.4 L63.5 80.4 L63.3 81.3 L64.3 81.4 L65.7 81.3 L66.6 81.3 L67.1 81.5 L67.7 81.5 L68.2 81.5 L68.6 82.0 L68.5 82.4 L67.6 83.1 L67.2 83.6 L67.6 83.7 L67.7 83.9 L67.8 84.1 L68.0 84.4 L68.4 84.6 L69.4 85.0 L69.5 85.1 L69.6 85.3 L69.8 85.5 L70.2 85.5 L70.8 84.9 L71.0 84.7 L71.5 84.9 L72.0 84.6 L72.0 84.1 L71.1 83.9 L69.9 84.3 L69.8 84.4 L69.7 84.4 L69.3 84.4 L68.9 84.3 L68.9 84.1 L69.0 83.9 L69.1 83.9 L69.2 82.4 L69.8 81.2 L70.2 80.1 L70.2 80.1 L69.4 79.1 L69.0 78.8 L68.8 78.7 L68.0 78.8 L66.5 79.2 L66.1 79.5 L65.2 79.8 L64.4 79.8 L64.0 79.3 L64.5 78.8 L66.3 78.2 L66.7 77.6 L66.9 77.0 L66.8 76.8 L65.9 76.6 L65.5 76.4 L65.1 76.1 L64.9 75.8 L64.6 75.6 L64.4 75.2 L64.3 74.7 L64.3 74.2 L64.5 74.1 L65.4 73.3 L65.5 73.2 L65.7 73.0 L65.7 72.5 L65.5 72.0 L65.2 71.8 L64.8 71.8 L64.4 71.7 L63.8 71.3 L64.5 70.3 L65.3 69.5 L66.1 68.9 L67.3 68.2 L67.5 68.1 L67.8 68.1 L68.2 68.1 L68.4 67.9 L68.6 67.4 L68.7 67.3 L74.5 66.2 L75.8 66.2 L80.4 67.3 L80.4 67.5 L79.9 67.7 L79.8 68.0 L80.1 68.2 L80.7 68.3 L81.2 68.3 L81.6 68.1 L83.0 66.9 L83.7 66.2 L84.4 65.6 L85.9 65.3 L87.2 64.9 L89.1 65.1 L93.2 64.9 L90.9 63.7 L89.8 63.4 L89.0 63.1 L88.5 63.0 L88.2 63.1 L86.9 64.1 L86.1 64.5 L85.3 64.7 L84.5 64.4 L83.8 64.0 L83.1 64.2 L81.7 64.9 L80.1 65.2 L76.8 65.2 L67.8 67.0 L67.0 67.1 L66.3 66.9 L61.9 64.9 L62.2 65.4 L61.8 65.6 L60.6 65.9 L59.6 66.3 L59.1 66.5 L58.4 66.5 L58.7 66.2 L58.0 66.0 L57.3 66.0 L56.6 66.3 L56.0 66.7 L55.4 66.7 L54.6 67.1 L53.9 67.6 L53.6 67.7 L53.3 67.2 L52.5 67.0 L51.6 67.0 L50.9 67.3 L51.5 67.6 L50.1 68.3 L48.1 68.9 L46.7 68.7 L45.8 68.8 L44.9 69.0 L44.5 69.3 L44.3 70.0 L43.7 70.5 L43.1 70.9 L42.6 71.3 L42.4 72.4 L42.3 72.5 L42.3 72.8 L42.1 73.0 L41.8 73.2 L40.6 74.2 L39.7 74.3 L39.3 74.4 L39.1 74.6 L38.8 74.8 L38.2 74.9 L37.5 75.2 L37.2 75.7 L37.6 77.0 L37.5 77.6 L37.0 78.0 L37.0 78.3 L38.5 78.2 L38.9 78.3 L39.2 78.7 L38.9 79.1 L38.4 79.3 L37.9 79.3 L37.5 79.2 L36.5 78.9 L36.0 78.8 L35.6 78.9 L34.8 79.2 L34.3 79.3 L34.3 79.6 L36.2 79.3 L36.7 79.4 L37.5 79.8 L37.9 79.9 L40.7 79.2 L41.3 79.3 L41.4 79.6 L41.3 80.4 L41.3 80.7 L41.8 81.2 L42.1 81.6 L41.5 82.1 L41.1 82.4 L40.6 82.5 L40.0 82.6 L39.7 82.7 L39.7 82.9 L40.2 83.1 L39.4 83.1 L38.3 82.5 L37.4 81.8 L37.0 81.3 L36.6 80.8 L35.7 80.3 L34.6 80.0 L33.6 79.9 L32.9 79.6 L32.1 79.2 L31.3 78.5 L30.8 78.0 L30.4 76.6 L30.1 76.4 L29.6 76.3 L28.5 75.9 L27.9 75.8 L28.4 77.3 L28.6 78.1 L28.5 78.7 L27.9 78.7 L27.6 77.9 L27.6 76.1 L28.0 74.5 L28.9 73.3 L35.9 67.0 L38.0 65.8 L41.3 63.0 L42.5 62.3 L43.9 62.4 L47.2 63.0 L49.0 63.0 L52.5 62.6 L54.1 62.2 L56.0 61.0 L56.7 60.8 L66.5 61.6 L70.0 61.4 L73.5 60.7 L76.9 59.4 L79.9 57.6 L88.3 49.2 L89.8 48.0 L92.4 46.4 L93.8 45.0 L94.3 44.8 L95.2 44.0 L97.1 43.8 L100.8 44.0 L104.3 43.6 L107.5 42.9 L110.3 41.8 L115.0 39.1 L117.6 38.1 L118.7 37.8 L119.8 37.8 L121.0 37.9 L121.9 38.3 L119.8 38.8 L117.8 39.8 L114.5 42.5 L113.4 44.8 L114.5 46.6 L116.4 48.2 L117.9 50.1 L116.8 51.8 L116.8 53.9 L117.6 57.9 L117.0 58.5 L115.0 59.3 L114.0 59.9 L112.6 61.5 L112.0 62.6 L111.6 64.2 L110.6 66.1 L110.1 66.7 L109.8 67.0 L109.5 67.2 L109.0 67.2 L107.2 67.2 L106.6 67.3 L105.9 67.4 L102.6 66.2 L100.2 64.8 L98.6 64.4 L97.3 63.7 L96.3 63.5 L95.5 63.8 L94.4 64.8 L93.7 64.9 L94.4 64.9 L95.2 64.3 L95.9 64.1 L96.6 63.9 L97.4 64.1 L101.3 66.3 L102.6 66.6 L104.1 67.4 L104.9 67.5 L108.1 67.6 L108.8 67.8 L107.7 68.6 L107.5 68.9 L107.3 69.4 L107.1 70.5 L106.9 70.8 L107.2 71.4 L107.6 73.4 L107.8 75.0 L108.1 75.8 L109.1 77.5 L109.4 77.7 L109.8 77.9 L109.9 78.2 L109.3 78.5 L109.0 78.6 L108.1 78.3 L107.6 78.3 L105.8 78.3 L105.2 78.4 L104.5 78.8 L103.9 78.4 L103.1 78.1 L102.3 78.0 L101.3 78.3 L100.4 78.6 L100.0 78.7 L99.4 78.8 L98.8 78.9 L97.6 79.5 L96.2 79.8 L94.4 80.5 L88.9 80.9 L88.9 81.2 L90.7 81.4 L96.6 80.4 L97.9 79.9 L98.5 79.9 L98.6 79.8 L98.6 79.6 L98.7 79.4 L99.0 79.3 L99.3 79.4 L99.8 79.6 L100.1 79.6 L100.5 79.6 L101.0 79.4 L101.4 79.2 L101.5 78.9 L101.8 78.4 L102.4 78.3 L103.7 78.5 L103.6 78.7 L103.4 79.1 L104.1 79.1 L106.0 79.3 L107.6 79.3 L108.7 78.9 L109.6 78.7 L110.3 79.6 L110.5 80.9 L109.8 82.0 L107.2 83.1 L105.3 84.3 L104.9 84.4 L104.6 85.7 L104.5 86.0 L104.8 86.5 L104.6 87.1 L104.2 87.6 L103.7 87.9 L104.9 87.9 L105.4 87.6 L105.3 86.2 L105.4 85.1 L105.8 84.6 L107.5 83.9 L108.8 82.9 L109.5 82.7 L110.3 82.9 L110.4 83.2 L110.6 84.0 L110.7 84.3 L110.8 84.4 L112.0 85.0 L114.9 85.9 L118.1 86.1 L127.4 85.3 L128.7 85.4 L130.0 85.8 L130.6 86.1 L131.8 87.4 L134.2 88.7 L134.2 89.0 L133.3 89.5 L132.9 90.4 L132.7 91.4 L132.6 92.3 L132.2 93.2 L128.6 96.0 L126.8 96.7 L126.1 97.3 L125.9 97.8 L126.0 99.0 L125.4 100.2 L124.2 100.4 L122.8 99.8 L121.9 98.9 L122.9 98.8 L123.3 98.6 L123.5 98.1 L123.4 97.6 L123.0 97.4 L122.5 97.4 L122.1 97.2 L121.1 97.0 L120.2 97.6 L119.3 98.5 L118.0 99.3 L118.3 100.2 L118.8 101.2 L119.0 101.8 L118.6 102.1 L118.0 102.3 L117.3 102.3 L116.8 102.2 L116.4 101.9 L116.0 101.2 L115.8 100.8 L116.1 100.6 L116.7 100.3 L117.1 100.2 L116.8 99.8 L116.5 99.6 L114.8 99.3 L114.5 99.4 L113.6 99.7 L112.5 99.8 L111.8 99.5 L111.3 99.0 L110.4 98.4 L111.3 98.3 L112.6 97.7 L113.3 97.6 L113.9 97.8 L114.6 98.2 L115.2 98.3 L115.8 97.8 L115.1 97.2 L115.1 96.7 L116.3 95.4 L115.8 95.4 L115.2 95.3 L114.7 95.0 L114.3 94.7 L113.9 94.6 L112.8 94.8 L112.3 94.6 L112.2 95.1 L111.9 95.4 L111.6 95.6 L111.1 95.7 L110.8 95.9 L109.7 97.2 L108.8 97.8 L106.6 98.8 L105.7 99.6 L105.2 100.5 L105.4 101.0 L106.1 101.6 L106.7 102.4 L106.9 103.4 L106.8 104.1 L106.3 104.8 L105.6 105.6 L106.5 105.3 L107.2 105.3 L107.4 105.6 L106.4 106.8 L106.3 107.3 L106.4 108.3 L106.3 109.0 L106.3 109.3 L106.1 109.6 L105.2 110.3 L105.0 110.6 L104.9 110.6 L104.4 110.7 L104.0 111.0 L103.7 111.2 L103.9 111.3 L104.2 111.7 L104.3 112.1 L104.0 112.4 L103.9 112.6 L103.7 112.8 L103.3 112.8 L102.8 112.8 L102.4 112.6 L101.8 112.0 L101.7 111.8 L101.5 111.5 L101.4 111.2 L101.0 111.0 L100.5 110.9 L96.7 111.0 L96.2 111.0 L95.9 111.3 L95.7 111.5 L95.4 111.7 L94.4 112.0 L92.3 111.9 L91.4 112.0 L92.3 112.7 L97.9 113.4 L98.3 113.5 L98.2 113.9 L97.5 114.7 L97.2 115.4 L97.3 115.7 L97.9 115.8 L98.9 115.8 L98.9 116.0 L97.3 116.6 L96.8 117.0 L97.3 117.7 L97.1 117.7 L96.7 117.9 L95.8 117.6 L91.5 118.3 L89.6 118.9 L88.4 119.0 L86.0 118.4 L84.6 117.8 L84.3 117.7 L80.2 117.6 L79.3 117.4 L79.2 117.5 L79.1 117.6 L79.1 117.8 L79.0 117.9 L79.9 118.2 L82.7 118.2 L83.2 118.4 L85.2 119.5 L85.6 120.0 L85.9 120.4 L86.3 120.7 L87.1 120.9 L90.8 120.9 L90.2 121.3 L88.2 122.2 L87.1 123.0 L86.5 123.2 L85.6 123.3 L85.3 123.4 L85.2 123.8 L85.2 124.2 L85.1 124.3 L82.6 124.7 L81.7 125.1 L81.2 125.1 L80.7 125.1 L79.8 124.9 L79.3 124.9 L79.4 125.0 L79.6 125.1 L79.0 125.6 L77.6 125.9 L76.9 126.2 L77.6 126.5 L78.3 126.4 L80.3 126.2 L80.6 126.0 L81.0 126.0 L83.2 126.7 L83.4 127.1 L83.2 127.6 L82.8 128.1 L82.3 128.3 L81.0 128.5 L80.4 128.6 L80.6 129.1 L81.1 129.7 L81.2 130.0 L81.1 130.4 L80.9 130.8 L80.9 131.1 L81.7 131.3 L82.2 131.6 L82.7 132.0 L82.8 132.3 L82.3 132.6 L82.3 132.9 L82.7 133.2 L84.1 134.6 L84.6 134.7 L85.0 135.0 L85.2 135.6 L85.1 136.1 L84.8 136.4 L84.5 136.7 L84.4 137.3 L84.2 137.6 L83.7 137.8 L83.1 138.0 L82.5 138.0 L80.2 137.7 L79.7 137.8 L79.4 138.0 L79.1 138.3 L78.8 138.6 L77.8 138.9 L77.3 139.0 L76.8 139.1 L76.5 139.3 L76.5 139.6 L76.8 139.9 L77.5 139.9 L77.5 140.2 L76.3 140.1 L75.8 140.2 L75.3 140.4 L75.7 140.6 L76.2 140.7 L77.3 140.7 L77.8 140.8 L78.4 141.2 L79.3 142.0 L78.3 142.8 L77.6 143.1 L76.9 143.4 L75.1 143.6 L74.4 143.9 L74.8 144.4 L75.2 144.5 L77.5 143.9 L78.4 144.0 L78.8 143.9 L79.1 143.8 L79.3 143.6 L79.7 143.5 L80.1 143.4 L81.0 143.6 L82.5 144.6 L83.3 145.0 L85.5 145.3 L86.0 145.5 L86.3 146.1 L87.2 149.1 L87.3 149.3 L87.2 149.4 L86.8 149.5 L86.3 149.6 L85.7 149.4 L85.3 149.3 L84.9 149.8 L85.4 149.9 L85.9 150.1 L86.3 150.3 L86.5 150.6 L86.7 150.9 L86.8 151.4 L86.6 151.8 L86.0 151.9 L85.6 151.8 L85.0 151.0 L84.7 150.9 L83.0 150.9 L82.5 150.9 L81.8 150.6 L81.9 150.5 L82.2 150.3 L82.3 150.1 L81.6 149.5 L81.3 149.1 L81.6 149.0 L82.6 148.8 L82.4 148.3 L81.5 148.0 L80.4 148.2 L80.2 148.4 L79.6 149.2 L79.2 149.6 L79.0 149.9 L78.8 150.1 L78.5 150.1 L77.9 150.1 L77.6 150.2 L76.9 150.7 L75.3 151.5 L74.8 151.9 L74.5 152.8 L74.5 152.8 L74.5 152.8 L73.9 152.9 L73.3 152.9 L72.5 152.4 L71.8 152.5 L71.4 152.7 L70.8 152.8 L70.4 153.1 L69.8 153.1 L67.0 153.1 L66.3 153.0 L66.0 152.5 L65.9 151.9 L65.7 151.5 L65.0 151.2 L56.8 150.1 L53.7 149.4 L50.6 149.0 L49.6 149.1 L47.0 149.7 L45.5 149.7 L44.2 149.4 Z M168.7 155.8 L168.3 156.1 L167.9 156.2 L167.5 156.4 L167.2 156.8 L168.8 157.2 L168.6 158.0 L167.4 158.8 L165.6 159.2 L159.5 158.4 L157.6 158.7 L155.7 159.2 L154.2 160.0 L153.3 159.9 L149.7 158.6 L147.3 157.4 L143.0 155.8 L141.1 155.6 L139.0 155.0 L136.8 154.7 L136.0 154.3 L135.6 153.7 L135.9 153.0 L136.9 152.7 L138.0 152.8 L139.2 152.8 L139.9 151.9 L139.2 151.8 L138.7 151.6 L136.6 150.1 L136.4 149.8 L136.4 149.1 L136.9 148.5 L138.5 147.4 L139.1 147.5 L144.7 146.9 L145.7 147.1 L147.5 148.0 L148.2 148.2 L148.9 148.5 L150.1 150.0 L151.0 150.3 L151.9 150.5 L158.9 152.7 L158.5 152.1 L158.1 151.6 L158.0 151.3 L158.9 150.9 L160.0 150.9 L160.9 150.6 L161.3 150.6 L161.0 150.2 L160.9 149.7 L160.9 149.2 L161.0 148.7 L164.0 150.3 L164.3 150.9 L165.2 151.6 L165.8 151.8 L166.4 151.9 L166.0 152.2 L165.9 152.2 L166.4 152.9 L168.4 153.9 L168.8 154.2 L168.9 154.9 L169.1 155.2 L169.1 155.4 L168.7 155.8 Z M114.1 149.3 L114.8 149.6 L115.5 149.9 L116.1 150.3 L116.0 150.9 L116.4 151.0 L116.8 151.1 L113.8 151.6 L112.9 152.1 L112.4 152.2 L111.5 152.0 L104.8 147.7 L104.2 146.9 L103.9 146.2 L104.5 146.6 L107.8 147.7 L108.8 148.2 L109.7 149.0 L110.2 149.4 L110.8 149.5 L111.4 149.5 L111.8 149.4 L112.0 149.1 L111.7 148.5 L112.3 148.9 L112.8 150.1 L113.2 150.3 L114.0 150.4 L114.6 150.3 L114.7 150.0 L114.1 149.3 Z M191.1 144.2 L194.5 144.6 L195.8 145.3 L196.4 146.6 L196.3 147.0 L196.0 147.3 L195.3 147.4 L194.4 147.4 L189.8 146.8 L188.4 146.9 L187.0 147.3 L185.7 147.9 L183.6 149.6 L182.9 149.8 L181.7 149.7 L179.3 149.0 L179.3 148.7 L179.8 148.7 L179.6 148.3 L179.8 148.0 L180.2 147.8 L180.6 147.7 L180.4 147.6 L180.0 147.3 L179.8 147.1 L180.7 146.6 L181.2 146.4 L181.7 146.6 L182.0 146.3 L181.7 145.8 L182.3 145.8 L183.3 146.2 L183.8 146.3 L184.2 146.3 L185.5 146.0 L186.0 145.8 L185.8 145.4 L185.8 145.1 L185.9 144.8 L186.3 144.7 L186.3 144.4 L185.0 143.9 L184.6 143.6 L184.4 143.3 L184.6 143.0 L185.0 142.8 L185.7 142.8 L186.6 143.7 L187.9 144.1 L191.1 144.2 Z M97.0 146.3 L97.6 146.9 L99.1 149.6 L99.1 150.0 L98.5 150.1 L97.4 150.1 L96.8 150.3 L96.1 150.6 L95.3 150.9 L94.7 150.7 L94.1 150.4 L92.3 150.1 L91.6 149.8 L91.6 149.5 L92.7 149.2 L93.9 149.6 L95.1 150.1 L96.2 150.3 L96.2 150.1 L94.3 149.1 L92.6 148.8 L92.2 148.7 L91.8 148.8 L91.2 149.2 L90.8 149.3 L89.3 149.2 L88.0 148.6 L87.2 147.6 L87.3 146.3 L87.1 146.3 L87.1 146.1 L87.9 146.4 L88.9 147.0 L89.8 147.5 L90.6 147.4 L90.4 147.2 L90.2 147.0 L90.0 146.7 L90.2 146.6 L90.4 146.5 L90.1 146.3 L88.5 145.7 L88.2 145.4 L88.7 145.0 L88.7 144.7 L85.6 144.9 L85.1 144.8 L84.7 144.7 L84.2 144.6 L83.8 144.5 L83.6 144.2 L83.7 144.0 L84.5 143.7 L84.7 143.4 L84.0 143.4 L83.3 143.5 L82.7 143.6 L82.0 143.4 L82.0 143.1 L85.5 142.1 L86.8 142.0 L88.5 142.2 L90.8 143.8 L92.0 144.2 L93.8 144.3 L95.0 144.8 L96.0 145.4 L97.0 146.3 Z M130.0 143.6 L130.3 142.5 L131.6 140.6 L133.1 139.1 L134.0 139.3 L132.1 144.2 L131.3 145.5 L129.3 147.8 L125.5 155.0 L125.1 155.5 L124.6 155.7 L123.7 155.7 L123.2 155.3 L122.2 153.0 L121.8 152.6 L121.3 152.3 L120.0 151.7 L121.0 151.6 L121.6 151.5 L122.1 151.2 L122.7 150.6 L123.1 149.9 L123.3 149.7 L123.7 149.9 L123.9 150.0 L124.9 149.8 L124.8 149.4 L124.6 149.0 L124.3 149.2 L123.9 149.2 L123.6 149.2 L123.2 149.0 L123.8 148.0 L124.6 147.3 L126.8 145.9 L127.8 145.5 L130.0 143.6 Z M298.0 140.2 L297.8 140.3 L297.7 140.5 L297.6 140.6 L297.5 140.7 L297.8 141.3 L297.9 141.6 L297.7 142.0 L297.3 142.4 L296.5 143.2 L296.2 143.6 L296.4 143.9 L296.4 144.2 L296.5 144.6 L295.9 145.1 L295.5 145.4 L294.9 145.7 L293.0 145.4 L291.4 145.3 L289.2 144.8 L286.6 143.9 L283.5 143.4 L280.3 141.9 L279.7 141.4 L280.2 140.6 L280.4 138.9 L280.6 136.5 L280.7 136.1 L281.0 135.7 L281.8 134.9 L282.1 134.3 L282.4 133.7 L282.7 133.3 L283.3 133.5 L284.8 134.8 L285.4 135.1 L286.3 135.7 L287.7 136.2 L289.2 136.9 L290.3 136.8 L291.0 136.9 L291.7 137.7 L292.1 138.0 L292.6 138.2 L295.4 139.3 L297.2 139.7 L298.0 140.2 Z M37.0 131.9 L36.0 132.1 L35.0 131.5 L34.1 130.5 L32.8 128.6 L32.6 127.8 L33.0 127.2 L34.3 127.0 L34.4 128.2 L35.1 128.4 L35.9 128.3 L36.4 128.6 L36.4 129.1 L35.9 130.0 L36.0 130.4 L36.3 130.8 L36.6 131.5 L37.0 131.9 Z M122.6 142.8 L120.8 142.8 L120.2 142.9 L119.5 143.1 L118.8 143.4 L118.3 143.8 L117.6 144.2 L116.8 144.1 L115.2 143.6 L112.6 143.5 L111.7 143.4 L111.4 143.2 L111.1 143.1 L110.7 142.9 L110.3 142.8 L109.3 142.9 L108.8 142.9 L105.7 141.8 L104.6 141.7 L104.3 142.0 L104.2 142.8 L103.7 142.6 L102.7 142.0 L102.1 141.8 L101.3 141.7 L99.8 142.0 L99.1 141.8 L102.1 140.4 L102.6 139.9 L102.0 139.3 L101.5 138.7 L101.0 138.2 L100.2 138.0 L99.6 138.1 L99.2 138.2 L98.7 138.3 L98.1 138.3 L97.2 137.8 L96.7 137.6 L96.2 138.0 L96.3 138.6 L97.7 139.8 L97.5 140.4 L97.3 140.5 L96.0 140.4 L95.9 140.3 L95.9 140.1 L95.9 139.9 L96.0 139.9 L96.1 139.8 L96.1 139.4 L95.5 138.6 L95.4 138.1 L95.5 137.7 L95.8 137.3 L95.7 137.0 L95.1 136.8 L93.6 136.6 L93.1 136.4 L92.6 136.2 L92.4 136.0 L92.4 135.8 L92.0 135.4 L91.9 135.2 L92.0 135.0 L92.4 134.6 L92.4 134.4 L92.4 134.0 L92.0 133.3 L91.9 133.1 L92.0 131.7 L91.6 131.5 L91.0 131.5 L89.9 131.6 L89.4 131.5 L88.8 131.2 L87.9 130.5 L88.5 130.3 L89.3 130.3 L89.9 130.2 L90.3 129.7 L88.2 129.2 L88.5 129.2 L89.5 129.2 L89.1 128.7 L88.4 128.5 L86.8 128.4 L86.3 128.2 L84.9 127.3 L84.9 127.0 L86.0 127.3 L87.1 127.9 L88.2 128.3 L89.2 128.1 L85.3 126.2 L83.9 126.0 L84.2 125.6 L84.6 125.4 L85.0 125.3 L85.5 125.1 L87.0 124.1 L89.1 123.8 L89.8 123.9 L89.9 124.1 L89.9 124.4 L90.3 124.9 L92.2 125.5 L94.2 125.1 L98.1 123.5 L103.1 122.6 L104.9 121.9 L105.8 121.7 L106.9 121.6 L107.2 121.7 L107.2 121.8 L107.5 122.4 L107.5 122.5 L108.0 122.4 L108.2 122.1 L108.0 121.3 L108.6 121.2 L109.8 121.5 L112.5 122.6 L113.1 123.0 L113.6 123.5 L113.9 123.7 L114.3 123.8 L115.0 123.9 L115.6 124.0 L116.8 124.5 L116.2 124.4 L115.6 124.4 L115.1 124.6 L114.9 125.0 L115.1 125.2 L115.7 125.5 L115.8 125.7 L115.5 126.0 L115.2 126.1 L114.8 126.1 L114.4 126.2 L112.9 127.4 L113.6 128.1 L115.0 128.0 L115.8 127.2 L116.2 127.2 L118.7 126.5 L120.2 126.2 L120.4 126.1 L120.3 125.8 L120.1 125.6 L119.9 125.4 L119.6 125.4 L119.2 125.3 L118.9 125.1 L118.7 124.9 L118.8 124.5 L119.3 124.7 L119.8 125.0 L120.0 125.1 L120.5 124.7 L120.4 124.1 L120.0 123.4 L119.8 122.7 L120.0 122.9 L120.6 123.3 L120.6 122.6 L120.3 121.7 L120.3 121.4 L121.1 121.4 L122.2 122.1 L124.1 123.8 L124.2 124.1 L124.2 124.4 L124.3 124.7 L124.5 124.9 L124.6 125.0 L125.4 125.4 L125.7 126.0 L125.6 126.3 L125.2 126.5 L124.1 126.9 L122.3 127.4 L119.6 127.2 L118.9 127.3 L118.4 127.6 L118.2 128.1 L118.6 128.3 L119.2 128.3 L119.8 128.1 L119.6 127.9 L119.6 127.8 L119.8 127.4 L120.6 127.5 L123.2 127.8 L123.8 128.1 L127.7 131.3 L127.9 131.7 L128.9 133.4 L129.2 134.0 L128.9 134.0 L128.4 133.6 L127.7 133.3 L127.1 133.4 L126.8 134.1 L127.0 134.6 L128.0 135.6 L128.3 136.1 L128.4 137.0 L128.3 137.8 L128.1 138.4 L127.5 139.2 L127.4 139.5 L127.3 140.3 L127.2 140.5 L126.2 141.2 L125.8 141.7 L125.6 142.2 L125.2 142.6 L124.6 142.8 L124.1 142.9 L122.6 142.8 Z M198.8 118.4 L201.1 121.7 L201.1 121.8 L199.8 122.7 L199.2 122.8 L198.4 123.1 L197.8 123.4 L197.4 123.7 L196.5 123.8 L195.7 123.1 L195.1 122.0 L195.1 121.1 L195.5 120.6 L196.0 120.3 L196.5 120.1 L196.9 119.8 L197.4 119.3 L198.0 118.3 L198.5 117.9 L198.7 118.2 L198.8 118.3 L198.8 118.4 Z M118.4 111.5 L119.0 111.0 L119.3 110.4 L119.2 109.7 L118.7 109.1 L118.0 108.8 L117.2 108.6 L116.7 108.2 L116.8 107.2 L117.2 106.7 L117.8 106.3 L118.3 106.4 L118.6 108.1 L119.2 108.7 L120.1 109.2 L121.1 109.3 L120.8 109.7 L120.6 110.2 L120.6 110.6 L120.8 111.0 L121.5 111.5 L122.0 111.3 L122.3 110.9 L122.6 110.7 L122.7 110.9 L122.2 111.5 L121.1 112.3 L120.9 113.0 L121.0 114.3 L120.6 115.0 L119.3 115.6 L117.9 115.4 L116.9 114.5 L116.5 113.1 L116.8 112.3 L117.2 112.0 L117.7 111.8 L118.4 111.5 Z M176.3 149.5 L177.1 149.5 L177.8 149.4 L178.5 149.3 L179.1 149.7 L180.2 150.6 L181.4 151.4 L181.4 151.7 L178.0 153.3 L177.4 153.7 L175.9 155.4 L175.6 155.7 L175.3 155.9 L174.2 156.6 L173.8 156.8 L173.2 157.3 L173.2 158.6 L173.6 160.8 L173.5 162.2 L172.8 162.2 L171.9 161.6 L171.8 161.1 L171.2 160.6 L169.9 159.2 L169.6 158.7 L169.7 157.9 L170.2 157.2 L171.2 156.2 L170.5 156.1 L169.9 155.9 L169.8 155.5 L170.2 154.9 L169.7 154.7 L169.5 154.5 L169.1 154.1 L167.3 153.0 L167.1 152.8 L167.0 152.5 L166.9 152.2 L166.9 152.0 L166.9 151.8 L166.7 151.4 L166.0 151.0 L165.4 150.7 L165.0 150.3 L164.8 149.5 L164.8 148.8 L164.7 148.3 L164.3 147.9 L163.5 147.7 L163.5 147.4 L165.0 146.7 L165.3 146.6 L165.9 146.7 L166.7 147.3 L167.1 147.4 L167.5 147.2 L168.4 146.7 L168.6 146.7 L168.8 147.0 L169.4 146.8 L170.2 146.3 L170.2 146.1 L169.8 145.8 L169.0 144.6 L168.6 144.2 L165.9 143.5 L165.2 143.4 L165.0 143.3 L164.5 142.9 L164.1 142.8 L161.7 142.8 L160.9 142.5 L160.3 142.2 L159.7 141.8 L161.8 142.0 L166.0 143.1 L168.0 143.4 L167.1 142.5 L164.7 141.4 L163.7 140.4 L167.1 140.1 L167.3 139.9 L167.2 139.6 L166.4 139.2 L164.1 139.3 L163.5 138.8 L164.0 138.4 L164.4 138.0 L164.3 137.5 L163.7 137.2 L162.8 137.2 L162.2 137.6 L161.6 138.0 L161.0 138.3 L160.5 138.3 L159.1 137.9 L156.1 137.5 L155.4 137.2 L154.9 137.4 L152.2 136.7 L151.7 136.8 L150.6 137.1 L150.1 137.2 L147.4 137.2 L147.4 137.5 L148.2 137.7 L146.8 137.7 L145.9 137.5 L145.2 137.0 L145.0 135.9 L145.5 136.1 L146.1 136.1 L146.6 135.9 L146.8 135.3 L146.4 135.5 L146.0 135.6 L145.1 135.6 L145.0 135.4 L145.1 134.5 L144.8 134.3 L144.1 134.0 L142.0 132.9 L141.6 132.5 L142.0 132.4 L142.5 132.4 L143.0 132.2 L143.1 131.9 L142.8 131.7 L142.2 131.6 L141.6 131.5 L141.2 131.6 L140.9 131.8 L140.8 132.1 L140.5 132.4 L139.9 132.4 L139.6 132.2 L139.1 131.3 L139.1 131.0 L140.1 131.1 L140.7 131.1 L141.1 130.9 L141.4 130.7 L141.9 130.4 L142.4 130.3 L142.8 130.2 L143.6 130.0 L144.0 129.6 L144.0 129.1 L143.5 128.9 L143.7 128.5 L143.3 127.6 L142.5 126.2 L142.1 125.7 L141.6 125.4 L141.0 125.2 L140.1 125.1 L139.4 125.4 L139.0 125.5 L138.8 125.3 L138.9 124.8 L139.1 124.5 L139.5 124.4 L140.0 124.3 L141.0 124.1 L141.5 123.6 L141.3 122.8 L140.8 122.1 L139.1 120.8 L137.2 120.2 L132.9 119.5 L132.9 119.3 L139.1 119.5 L138.4 118.9 L136.0 118.3 L135.0 117.9 L134.6 117.6 L134.4 117.3 L134.1 117.0 L133.4 116.8 L131.4 116.8 L130.8 116.6 L130.8 116.3 L136.9 116.8 L138.2 116.7 L140.7 116.2 L142.0 116.0 L142.0 116.3 L141.6 116.3 L141.2 116.3 L140.8 116.4 L140.4 116.6 L141.0 117.2 L142.0 117.8 L143.2 118.0 L144.2 117.7 L142.5 116.8 L143.1 116.6 L143.4 116.8 L144.1 116.9 L145.5 116.8 L146.1 116.7 L147.5 116.2 L148.8 116.0 L149.4 115.8 L149.9 115.4 L150.1 114.9 L150.1 114.6 L150.3 114.0 L150.3 113.8 L150.2 113.5 L149.5 112.9 L149.3 112.6 L150.3 112.9 L151.2 113.0 L152.1 112.8 L153.0 112.3 L154.3 112.4 L155.4 111.4 L155.6 109.8 L154.3 108.5 L153.2 108.3 L150.7 108.2 L147.6 107.5 L146.7 107.1 L146.3 106.4 L151.3 107.7 L152.3 107.6 L158.4 108.1 L159.1 108.5 L160.7 108.5 L163.5 108.0 L164.9 107.5 L165.7 107.4 L166.1 107.7 L166.0 108.1 L164.9 108.9 L164.5 109.3 L165.0 109.8 L164.7 110.0 L164.1 110.1 L163.5 109.9 L163.6 109.7 L163.7 109.3 L162.5 109.4 L162.0 109.5 L161.6 109.9 L163.5 111.8 L164.3 112.9 L163.7 113.6 L163.1 113.7 L161.9 113.5 L161.3 113.6 L160.6 114.2 L160.1 114.4 L159.4 114.4 L159.4 114.7 L160.1 114.9 L162.0 114.7 L162.5 114.6 L163.1 114.3 L163.8 114.1 L164.5 114.2 L164.8 114.5 L165.2 115.1 L165.5 115.8 L165.5 116.0 L162.3 116.4 L161.6 116.5 L161.4 116.8 L161.8 117.1 L162.4 117.1 L164.2 117.1 L164.5 117.0 L164.8 116.8 L165.5 117.1 L166.4 117.9 L166.7 118.5 L166.7 118.6 L166.5 118.9 L166.1 119.5 L166.8 119.2 L167.3 118.8 L169.0 116.8 L169.1 116.7 L169.1 116.7 L169.0 116.4 L168.7 115.9 L168.6 115.8 L168.7 115.3 L169.0 114.8 L169.6 113.9 L170.2 113.5 L171.6 113.3 L172.3 113.1 L172.9 112.0 L172.1 110.7 L171.2 109.6 L171.5 108.8 L172.2 108.8 L173.6 109.7 L174.3 109.9 L174.7 110.1 L174.7 110.4 L174.5 110.9 L174.4 111.2 L174.6 111.7 L174.8 111.9 L174.9 112.0 L175.2 112.3 L176.0 113.4 L176.7 115.0 L176.8 116.6 L175.8 117.4 L174.4 117.1 L173.7 117.1 L173.4 117.8 L173.1 118.2 L171.7 119.0 L171.2 119.5 L172.0 119.6 L173.2 119.3 L174.1 118.8 L174.2 118.2 L174.8 118.0 L175.4 118.2 L176.0 118.5 L176.3 119.0 L175.1 118.7 L175.0 118.8 L175.2 119.2 L175.8 119.5 L177.1 119.8 L177.5 119.0 L178.4 117.7 L178.5 116.8 L176.8 112.6 L176.8 111.2 L176.7 110.6 L175.8 108.5 L175.2 108.0 L174.5 107.8 L173.6 107.8 L170.6 108.5 L169.5 108.6 L168.8 108.3 L169.5 107.3 L171.5 106.3 L175.2 105.1 L181.2 102.2 L184.3 101.2 L187.6 101.3 L191.0 102.4 L193.8 102.4 L194.5 102.6 L195.9 103.3 L197.1 103.6 L199.1 104.5 L198.5 105.2 L196.9 106.4 L196.4 107.0 L195.3 108.6 L194.8 109.1 L194.8 109.3 L195.9 110.2 L196.4 110.8 L196.7 111.3 L196.9 112.1 L197.3 112.9 L197.8 113.7 L198.3 114.2 L198.1 114.6 L198.1 115.1 L198.0 115.9 L197.8 116.6 L197.7 116.8 L197.8 117.0 L197.9 117.2 L198.3 117.7 L197.5 118.3 L195.9 120.0 L194.4 120.6 L194.2 121.0 L193.8 121.5 L192.9 121.7 L192.3 121.5 L191.8 121.3 L191.3 121.2 L190.5 121.1 L187.7 122.1 L187.0 122.5 L184.5 124.0 L184.5 124.0 L182.5 126.3 L183.5 128.4 L185.4 129.3 L186.1 129.4 L188.5 129.5 L189.2 129.7 L190.9 130.5 L191.8 131.1 L192.1 131.7 L192.2 132.4 L192.4 133.0 L192.9 134.0 L192.4 134.4 L192.1 134.5 L190.1 135.4 L181.9 136.5 L181.3 136.9 L180.3 137.2 L179.5 137.9 L179.0 138.7 L179.3 139.3 L179.0 139.7 L178.6 139.8 L178.3 139.8 L177.9 139.6 L178.2 138.8 L177.8 138.2 L177.0 138.1 L176.2 138.4 L175.8 138.6 L175.5 138.7 L175.3 138.8 L175.2 139.2 L175.5 139.4 L176.6 139.9 L179.9 140.0 L181.4 140.3 L181.7 141.2 L181.5 141.6 L181.2 141.8 L180.9 141.9 L180.6 142.0 L179.8 142.3 L179.4 142.5 L179.7 142.6 L181.1 144.4 L181.1 145.2 L180.6 145.6 L179.8 145.8 L178.9 145.8 L178.3 145.9 L176.9 146.5 L176.0 146.6 L174.7 146.3 L172.6 145.1 L171.2 145.0 L171.2 145.2 L171.3 145.2 L171.4 145.2 L171.5 145.2 L171.3 145.3 L171.2 145.4 L171.0 145.5 L170.7 145.5 L170.9 146.3 L170.6 146.7 L170.3 147.1 L170.2 147.7 L170.5 148.1 L171.0 148.4 L171.6 148.4 L172.1 148.2 L172.0 148.0 L171.8 147.7 L172.1 147.6 L173.1 147.4 L173.4 147.6 L174.0 148.3 L174.1 148.5 L174.4 148.6 L175.7 149.3 L176.3 149.5 Z M50.6 77.2 L50.1 77.5 L48.5 78.3 L48.3 78.9 L45.2 79.4 L44.1 79.7 L43.7 79.6 L42.6 78.3 L42.2 78.0 L41.3 77.5 L40.3 77.2 L40.1 77.2 L38.9 77.4 L38.5 77.4 L38.6 76.9 L38.8 76.7 L39.1 76.6 L39.4 76.4 L39.8 76.4 L40.0 76.2 L39.9 75.8 L39.8 75.5 L39.6 75.3 L40.7 74.9 L43.5 74.7 L44.5 74.0 L44.0 74.0 L43.5 74.0 L43.0 73.9 L42.6 73.7 L42.8 73.3 L43.6 72.8 L43.9 72.4 L43.8 72.4 L43.7 72.1 L43.7 71.4 L43.8 71.3 L44.1 71.3 L44.5 71.3 L44.7 71.3 L45.8 71.1 L48.1 70.8 L49.3 70.5 L50.1 70.7 L50.9 70.1 L52.2 68.6 L53.1 68.9 L53.7 68.5 L54.2 68.0 L54.7 68.1 L54.4 68.4 L54.0 68.9 L53.9 69.2 L53.9 69.3 L54.3 69.9 L54.4 70.2 L54.3 70.3 L53.9 71.6 L53.5 72.0 L53.3 72.2 L53.0 72.4 L53.0 71.9 L52.8 71.6 L52.5 71.4 L52.2 71.3 L51.3 71.7 L51.2 71.8 L51.0 72.3 L51.1 72.5 L51.3 72.7 L51.4 72.9 L51.8 74.2 L52.1 74.6 L52.8 74.8 L52.5 75.0 L52.3 75.0 L52.0 75.1 L51.7 75.1 L52.0 75.2 L52.2 75.3 L51.7 75.8 L51.1 76.6 L50.6 77.2 Z M141.2 54.1 L142.3 54.1 L142.7 54.2 L143.1 54.4 L143.4 54.9 L143.3 55.3 L143.0 55.6 L142.2 55.5 L141.2 55.4 L138.3 55.8 L138.9 56.0 L139.3 56.6 L139.2 57.3 L138.3 57.8 L137.7 58.3 L137.4 58.8 L136.8 59.2 L135.6 59.4 L134.8 59.1 L133.8 58.0 L132.4 57.9 L131.3 57.5 L130.6 57.2 L130.0 56.8 L130.0 56.6 L131.3 56.4 L132.6 55.7 L133.6 55.2 L135.1 55.2 L136.0 55.0 L136.7 54.6 L139.6 54.6 L141.2 54.1 Z" fill="#172033" fill-rule="evenodd"/></svg>
