<svg xmlns="http://www.w3.org/2000/svg" viewBox="0 0 320 200" role="img"><path d="M252.4 168.4 L246.4 170.9 L246.1 170.9 L245.8 170.7 L245.5 170.6 L245.1 171.0 L244.4 172.5 L243.2 173.7 L243.3 174.5 L243.6 175.3 L243.4 176.1 L243.1 176.3 L242.2 176.4 L242.0 176.7 L241.6 177.2 L240.8 177.4 L240.6 177.5 L240.3 178.0 L235.9 174.2 L234.7 173.7 L233.9 173.5 L233.4 173.6 L232.0 175.1 L230.7 173.7 L228.4 170.7 L226.6 167.7 L225.3 166.6 L223.8 165.7 L222.2 165.1 L220.0 163.7 L218.6 161.8 L216.5 157.2 L215.6 155.8 L214.6 154.6 L213.6 153.5 L211.5 151.8 L208.6 149.4 L203.8 146.4 L200.0 144.1 L199.2 143.3 L197.2 139.9 L195.1 136.2 L192.2 133.0 L189.3 129.7 L187.6 128.6 L185.7 127.9 L183.2 127.5 L182.4 127.3 L179.5 125.9 L177.9 125.1 L176.0 123.4 L173.9 121.5 L172.8 120.9 L171.6 120.4 L169.1 119.8 L168.7 119.8 L167.3 120.2 L166.9 120.2 L166.2 120.1 L165.7 120.0 L165.2 120.1 L164.3 120.8 L163.8 121.0 L163.3 120.9 L162.9 120.7 L161.4 119.5 L160.6 119.0 L159.8 118.7 L158.9 118.8 L158.6 118.8 L157.3 119.0 L156.6 119.0 L155.2 118.5 L155.0 118.5 L154.9 118.3 L154.3 117.6 L153.9 117.3 L153.3 117.0 L152.8 117.0 L152.6 117.5 L152.1 118.2 L151.0 118.7 L148.7 119.3 L148.2 119.4 L146.7 119.1 L146.0 119.2 L145.7 119.6 L145.1 120.5 L144.4 120.5 L143.8 119.5 L143.0 117.2 L142.6 116.6 L142.1 116.0 L141.6 115.5 L141.0 115.2 L140.7 115.1 L139.9 114.9 L138.9 114.8 L138.9 114.7 L138.5 115.0 L138.5 115.5 L138.5 116.0 L138.4 116.5 L138.1 117.0 L137.5 117.3 L136.3 117.9 L135.4 118.7 L134.9 119.0 L133.7 119.2 L132.0 119.8 L131.5 119.9 L131.0 120.0 L130.5 119.9 L130.0 119.8 L129.5 119.8 L127.7 120.6 L126.7 120.9 L124.6 121.1 L123.2 121.1 L123.0 121.2 L122.8 121.1 L122.4 120.9 L122.3 120.6 L122.1 120.1 L121.9 119.8 L120.4 119.1 L120.0 118.7 L119.6 118.3 L119.4 117.8 L119.2 116.8 L119.0 116.4 L118.7 116.2 L118.4 116.0 L118.1 115.8 L118.0 115.5 L117.8 114.8 L117.8 114.6 L117.6 114.2 L117.3 113.9 L116.9 113.7 L116.2 113.7 L114.7 113.9 L114.2 113.9 L111.2 112.7 L110.9 112.5 L110.8 112.2 L110.8 112.0 L110.7 111.7 L110.4 111.5 L110.1 111.5 L110.0 111.4 L109.9 111.2 L109.8 111.0 L109.8 110.9 L109.8 110.6 L109.8 110.5 L109.7 110.4 L109.4 110.4 L109.3 110.3 L108.8 109.3 L108.5 108.8 L108.0 108.4 L106.9 111.0 L105.1 115.2 L103.3 119.4 L101.5 123.4 L100.0 127.1 L99.0 129.5 L98.6 129.8 L98.1 129.4 L97.9 129.1 L97.7 128.7 L97.7 128.0 L97.6 127.7 L97.4 127.5 L97.1 127.3 L96.8 127.3 L96.5 127.2 L96.3 126.9 L96.2 126.2 L96.0 125.6 L95.9 125.5 L94.7 124.6 L94.3 124.3 L94.3 124.0 L94.3 123.4 L94.2 123.0 L94.1 122.8 L93.7 122.4 L92.7 120.9 L92.1 120.6 L91.5 120.0 L91.1 120.1 L90.5 120.3 L88.4 120.3 L87.5 120.5 L86.7 121.0 L86.3 121.6 L86.0 122.2 L86.0 122.8 L85.9 123.4 L85.9 124.0 L85.7 124.4 L85.4 124.8 L85.0 125.0 L84.8 125.1 L84.3 125.0 L84.1 125.0 L83.7 125.4 L83.5 125.4 L83.2 125.4 L83.0 125.3 L82.8 125.2 L82.5 125.0 L82.0 124.4 L81.9 124.3 L81.0 124.1 L79.2 123.6 L78.3 123.5 L76.4 123.5 L76.1 123.6 L75.7 123.8 L75.4 123.9 L74.2 123.9 L73.6 124.0 L72.8 124.4 L72.4 124.5 L71.8 124.5 L71.3 124.6 L71.0 124.9 L70.8 125.4 L70.3 125.4 L69.6 120.3 L69.2 116.9 L68.8 113.4 L68.5 110.7 L68.3 109.2 L67.7 104.6 L67.4 102.0 L67.5 101.4 L67.7 100.9 L69.7 99.0 L70.2 98.2 L71.6 94.2 L72.2 93.3 L73.1 92.7 L72.7 91.5 L72.8 90.4 L74.3 85.1 L74.6 84.4 L76.0 83.1 L76.7 81.9 L78.0 78.3 L79.3 74.8 L80.2 72.3 L80.6 71.6 L81.8 70.4 L82.1 69.7 L82.0 69.1 L81.5 68.0 L81.4 67.4 L81.4 66.8 L81.5 66.3 L81.5 65.9 L81.3 65.4 L81.3 65.3 L80.9 64.8 L80.5 64.3 L80.1 63.9 L79.9 63.2 L80.0 62.8 L80.3 61.7 L80.4 61.2 L80.3 60.3 L80.4 59.8 L80.6 59.3 L81.0 58.9 L82.0 58.3 L82.2 57.9 L82.9 56.2 L83.0 54.6 L83.1 54.5 L83.3 54.2 L83.3 54.1 L83.3 54.0 L83.1 53.7 L83.1 53.6 L83.2 52.5 L83.1 52.2 L82.8 51.8 L82.6 51.5 L82.5 51.2 L83.1 50.3 L83.3 49.8 L83.2 49.3 L82.6 48.5 L82.6 48.3 L82.6 48.1 L82.6 48.0 L82.8 47.8 L83.4 47.8 L83.8 48.0 L84.2 48.2 L84.7 48.4 L85.4 48.5 L85.7 48.6 L86.8 49.3 L87.0 49.3 L88.5 49.1 L89.0 49.1 L89.8 49.1 L91.1 48.3 L91.9 48.2 L94.5 48.9 L96.1 47.2 L96.3 46.6 L96.4 46.0 L97.0 44.9 L97.2 44.4 L97.3 43.2 L97.3 42.7 L97.0 41.5 L97.1 41.1 L97.3 41.0 L101.0 39.9 L102.1 39.7 L103.3 39.2 L104.5 37.1 L105.4 36.6 L106.0 36.7 L106.8 37.5 L107.4 37.7 L108.1 37.5 L108.6 37.1 L109.5 36.1 L111.4 34.9 L111.4 34.8 L112.1 34.6 L112.7 34.6 L112.9 34.9 L113.0 35.4 L112.9 35.9 L113.1 36.5 L113.5 36.5 L114.0 36.1 L114.3 35.6 L114.3 35.3 L114.2 35.1 L114.2 34.9 L114.3 34.7 L114.4 34.7 L115.4 34.4 L115.9 34.6 L116.3 35.0 L116.8 35.3 L117.4 35.2 L117.9 34.8 L118.0 34.2 L117.9 33.7 L118.1 33.1 L118.5 32.7 L119.9 32.1 L120.5 31.6 L121.2 30.5 L122.9 26.2 L123.7 25.2 L127.6 22.0 L127.7 22.3 L127.9 22.6 L128.1 23.4 L129.3 25.0 L129.4 25.3 L129.4 25.9 L129.5 26.2 L130.0 26.8 L130.1 27.0 L130.2 27.5 L132.8 31.3 L134.7 35.6 L136.7 38.8 L137.3 41.1 L137.6 41.7 L137.3 42.8 L137.8 43.6 L138.6 44.4 L139.0 45.2 L139.1 46.3 L139.3 47.2 L140.2 48.8 L140.3 49.4 L140.4 50.5 L140.5 51.0 L141.0 51.8 L141.1 53.0 L141.2 53.4 L142.2 55.4 L142.8 57.6 L142.4 57.4 L142.9 58.6 L143.1 59.2 L143.1 60.0 L142.6 60.6 L143.1 61.8 L142.9 62.5 L142.8 62.3 L142.8 62.8 L143.1 62.9 L143.4 62.9 L143.5 63.0 L143.5 64.0 L143.5 64.2 L143.6 64.5 L143.7 64.7 L143.8 64.9 L143.9 65.3 L143.8 66.4 L143.9 66.7 L144.0 67.0 L144.2 67.4 L144.3 67.7 L144.2 68.1 L144.1 68.8 L144.1 69.2 L144.9 72.8 L145.0 74.0 L145.1 74.4 L145.8 75.8 L146.7 79.4 L147.3 80.3 L148.9 81.3 L149.2 81.7 L149.4 81.9 L150.4 82.4 L150.7 82.6 L150.7 83.0 L150.6 83.3 L150.4 83.5 L150.3 83.8 L150.4 84.2 L150.8 84.6 L150.9 84.8 L150.9 85.5 L151.1 86.0 L151.8 86.8 L151.3 86.8 L151.0 87.1 L150.9 87.5 L151.1 87.9 L151.2 87.7 L151.4 87.4 L151.7 87.3 L152.0 87.5 L152.0 88.0 L151.4 88.3 L150.8 88.4 L150.5 88.4 L150.6 88.6 L151.1 89.4 L151.2 90.3 L151.3 90.5 L151.7 90.7 L152.3 90.7 L152.9 90.7 L153.2 90.4 L153.4 90.1 L153.9 90.1 L154.4 90.2 L154.8 90.4 L155.5 91.2 L157.0 95.8 L157.1 95.9 L157.6 96.0 L157.7 96.1 L157.8 96.6 L157.9 97.1 L158.2 97.5 L158.5 97.7 L158.1 99.3 L157.9 101.6 L158.0 101.7 L158.2 101.9 L158.3 102.0 L158.4 102.4 L158.7 102.7 L159.0 102.7 L159.4 102.5 L159.7 103.0 L160.0 103.1 L160.4 103.0 L161.0 102.9 L161.2 102.7 L161.4 102.4 L161.4 102.1 L161.4 101.8 L161.3 101.6 L161.4 101.4 L161.7 101.2 L162.2 100.2 L162.3 99.7 L161.7 98.8 L161.4 97.7 L161.2 97.3 L160.8 97.3 L160.6 97.7 L160.4 97.9 L160.2 97.4 L160.1 96.8 L160.2 95.4 L160.2 95.1 L160.0 94.6 L160.0 94.2 L160.1 93.9 L160.2 93.8 L160.4 93.7 L160.6 93.6 L160.7 92.6 L160.9 92.4 L161.3 92.6 L161.5 92.6 L161.5 92.4 L161.7 91.9 L161.9 91.9 L161.9 92.0 L161.9 92.2 L162.2 92.0 L162.5 91.4 L162.8 91.1 L163.2 91.8 L163.8 92.4 L166.4 94.5 L166.8 94.7 L167.4 94.8 L167.7 94.9 L167.9 95.1 L168.3 95.3 L168.5 95.6 L168.6 95.9 L168.5 96.2 L168.3 96.5 L167.8 96.9 L167.6 97.2 L167.4 97.4 L167.0 98.5 L167.3 98.5 L167.5 98.5 L167.7 98.7 L167.7 99.0 L167.7 99.1 L167.4 99.2 L167.4 99.3 L167.4 99.4 L167.5 99.5 L167.6 99.6 L167.7 99.8 L168.4 100.3 L168.5 100.5 L168.6 100.8 L168.9 101.6 L169.1 101.9 L169.1 102.2 L169.0 102.6 L168.9 102.9 L169.1 103.3 L169.4 103.1 L169.8 103.2 L170.1 103.4 L170.2 103.7 L170.3 103.9 L170.4 104.0 L170.5 104.0 L170.6 104.2 L170.6 104.4 L170.4 104.8 L170.4 105.0 L170.7 105.5 L171.3 105.8 L173.3 106.6 L173.8 106.8 L174.0 106.9 L174.2 107.4 L174.6 107.3 L175.2 106.8 L175.8 106.6 L176.3 106.0 L176.6 105.4 L177.0 105.0 L177.0 105.4 L177.1 105.8 L177.3 106.0 L177.8 105.9 L177.9 105.7 L177.9 105.3 L177.9 105.1 L178.4 105.0 L178.7 104.9 L178.8 104.9 L179.1 105.1 L179.1 105.2 L179.0 105.4 L179.1 105.6 L179.4 105.7 L179.6 105.8 L179.7 105.9 L179.8 106.1 L180.0 106.1 L180.2 106.0 L180.4 105.9 L180.5 105.7 L180.6 105.5 L180.5 105.3 L180.4 105.1 L180.4 104.6 L180.6 104.7 L180.7 105.0 L180.8 105.1 L181.6 105.3 L181.6 105.5 L181.6 105.8 L181.6 106.0 L181.8 106.3 L182.0 106.4 L182.1 106.4 L182.3 106.3 L182.5 106.3 L183.0 106.3 L183.3 106.5 L183.4 106.7 L183.5 107.8 L183.6 108.0 L184.4 108.3 L184.3 107.9 L184.5 107.7 L185.3 107.8 L185.4 107.9 L185.5 108.2 L185.4 108.3 L185.0 108.2 L184.8 108.3 L186.1 109.7 L186.1 109.6 L186.2 109.6 L186.4 109.6 L186.5 109.9 L186.5 110.1 L186.5 110.8 L186.3 111.4 L186.3 111.8 L186.5 112.1 L187.2 112.6 L187.4 112.9 L187.4 113.5 L187.7 113.3 L188.0 113.2 L188.3 113.1 L188.6 113.3 L188.6 112.7 L189.2 113.0 L190.7 112.9 L191.5 113.4 L192.4 114.0 L193.1 114.2 L195.0 114.2 L198.2 114.9 L198.5 115.1 L198.9 115.5 L199.3 116.5 L199.7 117.0 L200.9 117.8 L201.7 118.4 L202.4 119.2 L202.8 120.1 L203.0 121.1 L203.2 121.6 L203.6 121.8 L204.1 122.0 L204.3 122.3 L204.4 122.5 L204.9 123.1 L205.3 124.2 L205.9 124.9 L207.1 126.0 L207.9 126.8 L208.1 127.2 L208.3 127.7 L208.5 128.6 L208.6 128.9 L208.9 129.2 L209.2 129.5 L210.2 130.0 L210.6 130.4 L211.0 130.9 L212.1 132.8 L212.3 133.9 L212.6 134.3 L214.3 134.8 L214.7 134.9 L215.6 134.5 L215.9 134.5 L216.2 134.6 L216.7 135.5 L217.1 136.0 L217.4 136.1 L217.7 136.2 L218.0 136.2 L218.7 136.0 L218.9 136.0 L219.4 136.2 L220.3 136.8 L220.7 136.9 L221.0 137.2 L221.1 137.7 L221.2 138.2 L221.3 138.7 L222.5 139.5 L222.7 139.9 L222.8 139.9 L223.4 140.7 L223.6 141.1 L223.7 141.1 L223.9 141.3 L224.0 141.3 L224.1 141.6 L224.3 142.2 L224.5 142.5 L224.8 142.6 L225.1 142.5 L225.4 142.3 L225.5 142.3 L225.6 142.5 L226.1 142.8 L226.3 143.0 L226.4 143.3 L226.5 143.9 L226.6 144.1 L227.3 144.6 L227.4 144.6 L227.5 145.0 L227.7 145.0 L227.9 144.8 L227.9 144.7 L227.7 144.6 L227.3 144.1 L227.2 144.0 L227.2 143.9 L227.1 143.9 L227.0 143.8 L227.0 143.6 L227.1 143.6 L227.5 143.6 L227.6 143.6 L227.6 142.8 L227.2 142.5 L226.8 142.3 L226.2 142.2 L225.9 142.2 L226.0 142.0 L226.3 141.9 L226.6 141.9 L227.6 142.6 L228.6 144.0 L229.0 144.1 L229.5 144.4 L229.7 145.1 L229.7 146.2 L230.0 147.2 L230.2 147.6 L230.5 147.8 L230.8 148.1 L231.0 148.8 L231.4 152.0 L231.8 152.6 L232.0 154.0 L231.9 154.1 L232.0 154.2 L232.9 154.7 L233.4 154.8 L234.7 154.9 L235.2 154.8 L235.5 154.6 L235.7 154.2 L235.9 153.8 L236.3 153.9 L236.4 154.1 L236.4 154.3 L236.5 154.6 L236.7 154.7 L236.8 154.8 L237.0 154.9 L237.1 155.2 L237.3 155.6 L238.7 156.7 L239.6 158.3 L240.0 158.5 L240.5 158.6 L241.0 158.8 L241.4 159.1 L241.7 159.4 L241.9 159.8 L242.2 161.4 L242.6 162.4 L242.7 162.9 L242.8 163.7 L242.9 164.1 L243.1 164.4 L243.5 164.5 L243.9 164.4 L244.2 164.2 L244.6 164.0 L245.0 164.8 L245.5 165.3 L246.3 165.5 L247.3 165.5 L247.2 165.7 L246.9 166.1 L247.2 166.1 L247.4 166.1 L247.7 165.9 L247.6 165.9 L248.1 165.6 L248.2 165.5 L248.6 165.2 L248.8 164.8 L248.9 164.5 L248.9 164.3 L248.9 164.2 L249.2 164.0 L249.0 163.8 L249.0 163.5 L249.0 163.3 L249.2 163.1 L250.0 163.7 L250.4 164.0 L250.5 164.3 L250.6 164.6 L250.9 164.8 L251.3 165.0 L251.5 165.3 L251.7 165.6 L251.8 166.5 L251.8 166.9 L252.6 168.2 L252.4 168.4 Z M176.9 87.3 L177.3 87.3 L177.5 87.4 L177.7 88.5 L177.5 89.0 L177.1 89.2 L177.1 89.2 L176.6 88.9 L176.4 88.9 L176.1 88.8 L174.8 89.2 L174.2 89.2 L173.6 89.0 L172.6 88.6 L172.0 88.5 L170.6 88.7 L170.4 88.7 L170.2 88.7 L170.1 88.6 L169.9 88.4 L169.8 88.2 L169.8 88.2 L169.6 88.1 L169.6 88.1 L169.4 88.5 L169.1 88.8 L168.6 88.8 L167.9 88.7 L166.8 88.3 L166.7 88.2 L166.3 88.1 L165.7 88.3 L165.7 88.3 L165.4 88.0 L165.3 87.7 L164.5 85.6 L164.8 85.6 L165.0 85.7 L165.1 85.8 L165.1 85.8 L164.9 86.0 L165.1 86.1 L165.3 86.3 L165.3 86.4 L165.4 86.5 L165.5 86.8 L165.5 86.8 L165.7 86.8 L165.9 86.7 L166.3 86.8 L166.7 87.0 L167.0 87.1 L167.0 87.1 L167.3 87.1 L168.5 86.8 L168.0 85.9 L167.3 85.2 L166.5 84.7 L165.6 84.5 L164.7 84.7 L164.3 84.6 L164.1 84.1 L164.2 83.6 L164.4 83.3 L164.8 83.2 L165.4 83.6 L165.6 83.7 L166.0 83.8 L166.1 83.5 L165.8 83.1 L165.6 82.6 L165.6 82.5 L166.1 82.3 L166.8 82.2 L167.1 82.2 L167.2 82.2 L167.3 81.9 L167.1 81.4 L166.8 81.1 L166.5 80.9 L166.5 80.9 L165.5 80.9 L165.2 80.8 L164.9 80.3 L164.9 80.3 L165.9 80.4 L167.0 80.6 L168.0 81.0 L168.6 81.4 L168.8 81.6 L169.0 81.9 L169.2 82.1 L169.2 82.1 L169.0 82.5 L168.7 82.8 L168.7 83.1 L168.9 83.4 L169.2 83.4 L169.4 83.3 L169.6 83.1 L169.6 83.0 L169.5 82.9 L169.4 82.7 L169.7 82.6 L170.0 82.8 L170.1 83.1 L170.1 83.1 L169.9 85.4 L170.0 85.8 L170.2 86.1 L170.2 86.2 L170.7 87.0 L170.8 87.2 L171.0 87.3 L172.7 87.7 L173.1 86.9 L173.2 86.8 L173.5 86.7 L173.1 86.6 L172.5 86.4 L172.3 86.1 L172.3 86.1 L172.5 85.8 L173.0 85.6 L173.6 85.6 L174.2 85.6 L174.5 85.7 L174.8 85.8 L174.9 85.8 L175.0 85.9 L175.1 86.0 L175.2 86.2 L175.3 86.5 L175.4 86.7 L175.6 86.8 L176.0 86.9 L176.6 87.2 L176.9 87.3 Z" fill="#172033" fill-rule="evenodd"/></svg>
