<svg xmlns="http://www.w3.org/2000/svg" viewBox="0 0 320 200" role="img"><path d="M208.9 26.0 L208.9 26.1 L208.9 26.3 L208.9 26.4 L209.2 26.5 L209.3 26.6 L209.3 26.8 L209.4 26.8 L209.4 26.9 L209.5 26.9 L209.6 26.8 L209.8 26.8 L210.0 26.7 L210.1 26.8 L210.3 26.8 L210.4 26.9 L210.4 26.9 L210.4 27.0 L210.4 27.1 L210.5 27.2 L210.5 27.3 L210.6 27.3 L210.7 27.3 L210.8 27.3 L211.0 27.3 L211.0 27.2 L211.1 27.0 L211.2 26.9 L211.4 27.0 L211.7 27.0 L212.1 27.2 L212.2 27.2 L212.3 27.1 L212.5 27.1 L212.7 27.3 L212.8 27.7 L212.7 28.1 L212.5 28.4 L212.4 28.5 L212.0 28.8 L211.9 28.9 L212.0 29.1 L212.2 29.3 L212.4 29.4 L212.7 29.4 L212.9 29.4 L213.1 29.4 L213.2 29.3 L213.2 29.0 L213.3 28.8 L213.4 28.7 L213.7 28.6 L213.9 28.6 L213.7 28.8 L213.6 28.9 L213.6 29.0 L213.8 29.2 L214.0 29.3 L214.6 29.3 L214.9 29.5 L215.2 29.7 L215.6 29.6 L215.7 29.7 L215.8 29.7 L215.9 29.8 L216.2 29.8 L216.4 29.8 L216.5 29.9 L216.8 30.1 L217.2 30.2 L218.0 30.3 L218.7 30.2 L219.0 30.2 L219.1 30.5 L219.2 30.6 L219.2 30.6 L219.1 30.7 L219.1 30.7 L219.2 30.8 L219.3 30.9 L219.4 30.9 L219.5 30.9 L219.6 30.9 L219.9 31.1 L220.1 31.2 L220.5 31.5 L220.5 31.6 L220.4 31.6 L220.4 31.7 L220.5 31.7 L220.7 31.7 L220.7 31.7 L220.8 31.7 L220.8 31.8 L220.8 31.9 L220.8 31.9 L220.9 31.9 L221.1 31.8 L221.2 31.8 L221.2 31.6 L221.4 31.6 L222.0 31.8 L222.3 31.7 L222.5 31.6 L223.0 31.4 L223.0 31.4 L223.1 31.4 L223.2 31.3 L223.2 31.2 L223.4 31.3 L223.4 31.4 L224.0 31.6 L224.1 31.8 L224.3 31.8 L224.6 31.8 L224.8 31.7 L224.8 31.9 L224.8 32.0 L225.0 32.2 L225.1 32.3 L225.2 32.3 L225.2 32.4 L225.2 32.5 L225.3 32.5 L225.4 32.5 L225.5 32.6 L225.6 32.6 L225.6 32.7 L226.0 32.8 L226.3 32.7 L227.1 32.5 L227.7 32.5 L227.9 32.4 L228.0 32.4 L228.5 32.5 L228.7 32.5 L228.9 32.8 L229.0 32.9 L229.2 32.9 L229.5 32.6 L229.6 32.5 L229.8 32.5 L230.1 32.6 L230.1 32.7 L230.1 32.7 L230.1 32.7 L230.2 32.8 L230.3 32.8 L230.5 32.8 L230.9 32.7 L231.1 32.8 L232.3 32.7 L232.6 32.8 L232.8 32.7 L232.8 32.7 L232.8 32.6 L232.8 32.5 L232.8 32.3 L232.7 32.2 L232.5 32.2 L232.6 32.1 L232.6 32.0 L232.7 32.0 L232.6 31.9 L232.7 31.6 L232.7 31.4 L232.7 31.3 L233.0 31.2 L233.2 31.2 L233.4 31.2 L233.7 31.3 L233.9 31.3 L234.1 31.3 L234.3 31.3 L234.7 31.5 L235.0 31.6 L235.1 31.7 L235.2 31.8 L235.3 31.8 L235.4 31.8 L235.5 31.7 L235.6 31.7 L235.7 31.7 L235.8 31.8 L235.9 31.8 L236.7 31.9 L237.0 31.9 L237.1 32.0 L237.2 32.2 L237.3 32.3 L237.4 32.5 L237.6 32.6 L237.7 32.6 L238.0 32.5 L239.2 32.5 L239.4 32.5 L239.4 32.7 L239.4 32.7 L239.5 32.7 L239.6 32.8 L239.8 33.0 L240.0 33.2 L240.1 33.5 L240.3 33.6 L240.2 33.7 L240.2 33.8 L240.1 33.9 L240.2 33.9 L240.2 34.0 L240.1 34.2 L240.0 34.3 L240.3 34.3 L240.4 34.4 L240.5 34.5 L240.3 34.6 L240.2 34.6 L240.0 34.7 L240.3 35.0 L240.3 35.1 L240.4 35.2 L241.0 35.3 L241.1 35.2 L241.2 35.2 L241.3 35.1 L241.3 35.1 L241.4 35.0 L242.0 35.0 L242.3 34.9 L242.4 34.6 L242.4 34.6 L242.5 34.6 L242.5 34.6 L242.5 34.6 L242.6 34.7 L242.8 34.7 L242.9 34.6 L243.0 34.5 L243.0 34.6 L243.0 34.6 L243.0 34.6 L243.0 34.6 L243.2 34.7 L243.8 34.7 L244.0 34.8 L244.5 35.1 L244.8 35.1 L244.9 35.1 L245.1 35.2 L245.2 35.3 L245.4 35.7 L245.4 35.9 L245.6 36.0 L245.8 36.0 L245.9 36.1 L246.1 36.0 L246.3 36.0 L246.4 35.9 L246.6 35.8 L246.8 35.7 L246.9 35.6 L246.9 35.5 L247.0 35.4 L247.1 35.4 L247.6 35.4 L248.2 35.3 L248.5 35.3 L248.8 35.4 L248.9 35.4 L249.4 35.6 L249.8 35.7 L249.9 35.7 L250.0 35.9 L250.1 36.0 L250.3 36.1 L250.5 36.1 L250.7 36.2 L250.8 36.3 L250.9 36.3 L251.0 36.2 L251.0 36.1 L251.1 36.0 L251.3 36.0 L251.8 36.1 L252.0 36.1 L252.2 36.1 L252.2 36.1 L252.1 36.0 L252.0 35.8 L252.1 35.7 L252.5 35.5 L252.7 35.4 L252.9 35.4 L253.3 35.4 L253.5 35.4 L253.6 35.3 L253.9 35.1 L254.1 35.1 L254.2 35.1 L254.4 35.1 L254.6 35.0 L254.9 34.9 L255.2 34.9 L255.4 34.9 L255.5 34.9 L255.7 34.9 L255.8 34.9 L255.9 35.0 L255.9 35.1 L256.0 35.2 L256.2 35.2 L256.4 35.3 L256.6 35.3 L256.9 35.3 L257.3 35.2 L257.3 35.4 L257.2 35.6 L257.2 35.7 L257.2 35.9 L257.3 36.0 L257.5 36.1 L257.7 36.1 L257.9 36.1 L258.1 36.2 L258.1 36.2 L258.2 36.1 L258.4 36.2 L258.6 36.3 L258.4 36.6 L258.3 36.7 L258.3 36.9 L258.2 36.9 L258.1 37.0 L258.1 37.1 L257.9 37.0 L257.6 37.1 L257.3 37.0 L257.2 36.9 L257.0 36.9 L256.8 37.1 L256.7 37.3 L256.7 37.6 L256.6 37.9 L256.7 38.1 L256.9 38.2 L257.2 38.3 L257.4 38.5 L257.6 38.8 L257.6 38.9 L257.5 39.0 L257.4 39.1 L257.5 39.3 L257.5 39.5 L257.5 39.5 L257.6 39.6 L257.8 39.7 L257.8 39.8 L257.8 39.9 L257.5 40.3 L257.4 40.5 L257.2 40.6 L257.0 40.9 L256.6 40.9 L256.3 41.1 L256.2 41.4 L255.9 41.5 L255.0 42.0 L254.9 42.2 L254.6 42.3 L254.3 42.3 L254.1 42.4 L254.0 42.4 L253.9 42.4 L253.8 42.5 L253.7 42.6 L253.7 42.6 L253.6 42.6 L253.5 42.6 L253.4 42.9 L252.1 43.3 L250.2 43.9 L250.0 44.1 L249.4 44.4 L248.7 44.6 L248.4 44.8 L248.1 45.0 L247.7 45.7 L247.4 46.0 L247.1 46.2 L246.4 46.5 L246.0 46.6 L245.3 46.6 L244.7 46.7 L244.5 46.8 L244.4 46.8 L244.1 46.8 L242.2 47.3 L241.3 47.3 L238.9 48.0 L238.2 48.1 L238.1 48.2 L238.0 48.4 L237.9 48.5 L237.9 48.5 L237.8 48.6 L237.5 48.5 L237.5 48.4 L237.0 48.4 L236.6 48.5 L236.3 48.6 L236.0 48.8 L234.9 49.6 L234.4 50.1 L233.3 50.9 L233.1 51.2 L233.4 51.3 L233.7 51.4 L233.8 51.4 L233.8 51.4 L233.8 51.3 L233.7 51.2 L233.8 51.2 L234.0 51.3 L234.1 51.4 L234.3 51.6 L234.5 51.7 L234.7 51.7 L234.9 51.8 L234.8 52.0 L234.7 52.2 L234.6 52.3 L234.0 52.4 L233.7 52.6 L233.2 53.2 L232.9 53.4 L232.7 53.4 L232.4 53.5 L232.1 53.2 L232.6 53.1 L232.8 53.3 L233.1 53.1 L233.5 52.7 L233.3 52.7 L233.0 52.7 L232.2 52.9 L232.0 53.0 L231.8 53.1 L231.7 53.3 L231.4 53.9 L231.2 54.1 L231.1 54.3 L230.9 54.5 L230.8 54.6 L230.7 54.9 L230.5 55.1 L229.8 56.1 L229.7 56.2 L229.4 56.3 L229.3 56.5 L228.9 56.8 L228.4 57.2 L227.8 58.1 L227.5 58.3 L227.0 58.5 L226.8 58.8 L226.3 59.5 L226.1 59.8 L225.5 60.3 L224.5 61.6 L224.4 61.7 L224.4 62.0 L224.3 62.1 L224.2 62.2 L224.0 62.4 L223.9 62.6 L223.8 62.7 L223.7 62.9 L223.6 63.0 L223.3 63.4 L223.2 63.5 L223.2 63.9 L223.2 64.4 L223.3 64.8 L223.4 65.4 L224.1 66.5 L224.2 66.6 L224.3 66.8 L224.2 66.9 L224.0 66.9 L224.1 67.1 L224.2 67.5 L224.3 67.8 L224.6 68.2 L224.8 68.5 L225.2 69.0 L225.3 69.2 L225.7 69.4 L226.1 69.7 L226.3 69.8 L226.5 69.9 L227.0 69.9 L227.5 70.0 L227.9 70.2 L228.2 70.5 L228.1 70.5 L228.0 70.5 L228.1 70.6 L228.2 70.7 L228.5 70.8 L228.6 70.8 L228.6 70.9 L228.7 71.1 L228.6 71.1 L228.4 71.2 L228.2 71.2 L228.1 71.2 L228.0 71.3 L227.8 71.6 L227.8 71.6 L227.8 71.6 L227.6 71.6 L227.5 71.6 L227.4 71.7 L227.3 71.8 L227.2 71.9 L227.1 72.0 L227.2 72.1 L227.0 72.1 L226.8 72.1 L226.7 72.2 L226.5 72.2 L226.2 72.2 L226.1 72.2 L226.0 72.3 L225.8 72.5 L225.8 72.6 L225.9 72.8 L225.8 72.9 L225.6 73.0 L225.5 73.1 L225.1 73.1 L224.7 73.2 L224.4 73.2 L224.1 73.4 L223.2 73.7 L223.0 73.8 L223.0 73.9 L222.9 73.9 L222.5 74.3 L222.4 74.4 L222.4 74.6 L222.4 74.7 L222.4 74.7 L222.0 74.7 L221.9 74.8 L221.8 74.9 L221.8 75.0 L221.4 75.0 L221.3 75.4 L221.5 76.3 L221.4 76.4 L221.2 76.4 L220.8 76.4 L220.6 76.4 L220.5 76.5 L220.3 76.7 L220.2 76.9 L220.1 77.0 L220.1 77.2 L220.1 77.6 L220.0 78.2 L220.0 78.4 L219.9 78.5 L219.7 78.5 L219.5 78.7 L219.4 78.8 L219.0 79.6 L219.0 79.8 L219.0 79.8 L219.0 80.2 L219.0 80.3 L218.7 80.0 L218.5 80.5 L218.4 80.6 L218.1 80.6 L218.1 80.8 L218.1 81.0 L218.4 81.4 L218.5 81.5 L218.8 81.7 L219.0 81.8 L219.2 81.8 L219.3 81.7 L219.5 81.7 L219.6 81.9 L219.5 82.0 L219.4 82.1 L219.3 82.1 L219.2 82.2 L219.1 82.2 L219.0 82.1 L219.0 82.2 L218.7 82.2 L218.5 82.3 L218.2 82.4 L217.9 82.4 L217.8 82.4 L217.6 82.5 L217.4 82.6 L217.3 82.5 L216.9 82.4 L216.6 82.3 L216.0 82.3 L215.8 82.3 L215.7 82.4 L215.5 82.5 L215.5 82.6 L215.5 82.7 L215.6 82.8 L215.3 82.8 L215.0 82.7 L215.0 82.6 L214.9 82.5 L214.7 82.5 L214.4 82.4 L214.3 82.4 L214.2 82.5 L214.1 82.6 L213.8 82.6 L213.5 82.5 L213.2 82.7 L213.1 82.7 L212.6 83.1 L212.5 83.2 L212.3 83.2 L212.2 83.2 L212.2 83.3 L212.1 83.3 L212.1 83.4 L212.0 83.4 L211.9 83.7 L211.9 83.8 L211.8 83.8 L211.8 83.8 L211.7 83.8 L211.7 83.8 L211.6 83.8 L211.4 84.0 L211.3 84.0 L211.1 84.0 L210.6 84.2 L210.4 84.3 L210.4 84.4 L210.3 84.5 L210.1 84.5 L210.1 84.5 L210.0 84.7 L209.9 84.9 L209.6 85.2 L209.0 85.7 L208.8 86.0 L208.6 86.4 L208.5 86.7 L208.4 87.0 L208.4 87.2 L208.1 87.8 L207.9 88.1 L207.8 88.2 L207.9 88.3 L207.9 88.4 L207.9 88.5 L207.9 88.6 L207.9 88.6 L207.8 88.6 L207.6 88.7 L207.5 88.7 L207.4 88.8 L207.1 89.0 L206.9 89.1 L206.8 89.5 L206.7 89.6 L206.6 89.7 L206.4 89.8 L206.4 89.9 L206.3 90.1 L206.3 90.2 L206.2 90.2 L206.1 90.2 L206.0 90.3 L205.9 90.5 L205.7 90.6 L205.5 90.6 L205.3 90.6 L205.0 90.5 L204.7 90.3 L204.5 90.1 L204.2 89.8 L203.9 89.7 L203.6 89.6 L203.4 89.6 L203.3 89.6 L202.9 89.7 L202.7 89.8 L202.6 89.8 L202.4 89.7 L202.3 89.6 L201.5 89.8 L201.3 89.8 L201.1 90.2 L200.9 90.6 L200.7 90.8 L200.7 90.9 L200.5 91.0 L200.3 91.0 L200.0 91.1 L199.8 91.0 L199.6 91.1 L199.3 91.0 L199.1 90.8 L199.0 90.8 L198.9 90.8 L198.8 90.9 L198.7 90.9 L198.6 90.9 L198.3 90.6 L198.1 90.4 L197.9 90.4 L197.3 90.5 L196.5 90.4 L195.7 90.5 L195.0 90.4 L194.0 90.5 L193.9 90.5 L193.7 90.7 L193.6 90.8 L193.2 91.0 L192.6 90.9 L192.2 90.7 L192.0 90.7 L191.9 90.8 L191.5 90.6 L191.4 90.5 L191.1 90.5 L190.8 90.5 L190.6 90.6 L190.1 90.7 L189.4 90.5 L189.1 90.4 L188.6 90.5 L187.9 90.6 L187.0 90.4 L186.7 90.5 L186.4 90.7 L185.6 90.8 L185.3 90.8 L183.6 90.7 L183.4 90.7 L183.3 90.8 L183.0 91.2 L183.0 91.3 L182.8 91.4 L182.7 91.5 L182.7 91.7 L182.4 92.1 L181.8 92.1 L181.5 92.6 L181.2 92.7 L181.1 92.8 L180.9 92.8 L180.5 92.9 L180.1 92.9 L179.0 92.8 L178.7 92.8 L178.7 92.8 L178.5 92.9 L177.9 93.3 L177.2 93.3 L176.7 93.5 L176.6 93.6 L176.3 93.6 L176.1 93.7 L176.0 93.7 L175.9 93.8 L175.6 94.2 L175.6 94.3 L175.4 94.7 L175.3 94.8 L175.3 94.9 L175.2 94.9 L175.1 95.0 L175.0 95.0 L175.0 95.1 L175.0 95.2 L174.9 95.3 L174.6 95.8 L174.6 95.9 L174.5 96.3 L174.3 96.3 L174.2 96.1 L174.1 96.0 L173.9 96.0 L173.7 96.0 L173.6 96.1 L173.5 96.1 L173.5 96.3 L173.5 96.4 L173.6 96.5 L173.5 96.6 L173.6 96.7 L173.6 96.8 L173.6 96.9 L173.6 97.0 L173.5 97.1 L173.5 97.1 L173.3 97.2 L172.3 97.5 L172.2 97.6 L171.9 97.6 L171.7 97.3 L171.3 97.2 L171.1 97.1 L170.9 97.1 L170.7 97.1 L170.5 97.0 L170.1 96.9 L169.9 96.8 L169.7 96.5 L169.1 96.0 L168.9 95.9 L168.7 95.9 L168.2 96.0 L167.7 95.9 L167.5 95.6 L167.3 95.3 L167.1 95.0 L166.5 94.8 L166.5 94.6 L166.5 94.4 L166.4 94.3 L166.3 94.1 L166.0 93.8 L165.7 93.4 L165.6 93.1 L165.4 92.7 L165.2 92.6 L165.1 92.5 L165.2 92.5 L165.3 92.5 L165.6 92.7 L165.7 92.8 L165.6 92.9 L165.7 93.0 L165.8 93.1 L166.0 93.1 L166.0 93.0 L166.1 92.9 L166.3 92.7 L166.3 92.7 L166.1 92.8 L165.9 92.7 L165.8 92.6 L165.9 92.3 L165.8 92.1 L165.3 91.8 L165.2 91.7 L164.6 91.7 L164.4 91.6 L164.3 91.5 L164.1 91.1 L164.0 90.9 L163.9 90.8 L163.8 90.6 L163.9 90.4 L164.1 90.2 L164.2 90.2 L164.6 90.1 L164.7 90.0 L164.8 89.8 L164.7 89.4 L164.8 89.1 L165.1 88.9 L165.9 88.9 L166.2 88.7 L166.0 88.8 L165.8 88.8 L165.5 88.8 L165.3 88.7 L164.9 88.8 L164.7 89.0 L164.7 89.2 L164.7 89.7 L164.7 89.9 L164.3 89.9 L164.0 89.6 L163.7 88.9 L163.5 88.6 L163.2 88.4 L160.9 87.0 L160.6 86.9 L160.4 86.8 L160.2 86.8 L159.8 86.5 L159.6 86.5 L159.4 86.4 L159.2 86.2 L159.2 85.9 L159.2 85.8 L159.4 85.7 L159.7 85.3 L159.8 85.1 L159.3 85.6 L159.0 85.7 L158.7 85.7 L158.7 85.8 L158.9 86.0 L159.1 86.2 L159.1 86.3 L158.9 86.3 L158.1 86.0 L157.8 85.9 L157.4 85.8 L157.1 85.9 L157.4 85.9 L157.5 86.0 L155.2 86.0 L155.0 86.1 L154.8 86.2 L154.7 86.2 L154.5 86.2 L154.3 86.1 L154.2 85.7 L154.2 85.5 L154.2 85.3 L154.1 85.0 L154.1 84.2 L153.9 83.9 L153.9 83.8 L153.9 83.6 L153.8 83.4 L153.7 83.2 L153.7 83.1 L153.5 83.0 L153.5 83.0 L153.4 82.9 L153.4 82.9 L153.3 82.8 L153.3 82.7 L153.3 82.6 L153.2 82.6 L153.2 82.6 L153.2 82.5 L153.3 82.4 L153.4 82.3 L153.4 82.3 L153.4 82.3 L153.4 82.2 L153.4 82.2 L153.5 82.1 L153.7 81.9 L153.8 81.8 L153.8 81.7 L153.9 81.2 L154.1 80.9 L154.2 80.7 L155.1 80.1 L155.4 79.7 L155.5 79.4 L155.7 78.9 L155.8 78.8 L155.8 78.7 L155.7 78.6 L155.7 78.5 L155.8 78.4 L156.1 78.4 L156.2 78.3 L156.3 78.3 L156.5 78.4 L156.6 78.4 L156.7 78.3 L156.8 78.3 L156.9 78.3 L157.0 78.2 L157.1 78.0 L157.2 77.9 L157.3 77.9 L157.9 78.1 L158.1 78.1 L158.2 77.8 L158.3 77.7 L158.4 77.4 L158.6 77.1 L158.7 76.8 L158.8 76.6 L158.9 76.4 L158.9 76.4 L158.7 76.3 L158.5 76.3 L158.2 76.4 L158.2 76.4 L158.1 76.3 L158.0 76.5 L157.8 76.6 L157.5 76.6 L157.4 76.6 L157.2 76.5 L157.1 76.4 L156.7 75.6 L156.7 75.6 L156.5 75.5 L156.5 75.4 L156.4 75.4 L156.4 75.3 L156.3 75.2 L155.3 74.2 L155.0 74.0 L154.9 73.9 L155.0 73.8 L155.1 73.7 L155.1 73.6 L155.0 73.5 L155.1 73.4 L155.3 72.9 L155.7 72.4 L155.7 72.3 L155.7 72.2 L155.7 72.2 L155.6 72.1 L155.5 72.1 L155.5 72.0 L155.5 71.9 L155.5 71.7 L155.6 71.3 L155.6 71.3 L155.7 71.2 L155.7 71.1 L156.2 70.8 L156.3 70.7 L156.5 70.7 L156.6 70.6 L156.8 70.5 L156.8 70.4 L156.9 70.3 L157.4 70.2 L157.5 70.2 L157.6 70.1 L157.7 70.0 L157.8 70.0 L157.8 69.8 L157.9 69.7 L157.7 69.5 L157.9 69.4 L158.2 69.1 L158.5 68.6 L158.6 68.5 L158.6 68.4 L158.6 68.3 L158.5 68.3 L158.6 68.1 L158.5 67.9 L158.4 67.7 L158.2 67.6 L158.0 67.5 L157.7 67.4 L157.5 67.5 L157.3 67.6 L157.1 67.6 L157.0 67.6 L156.8 67.5 L156.7 67.5 L156.7 67.4 L156.8 67.2 L156.9 67.1 L156.7 66.9 L156.5 66.8 L156.2 66.8 L156.0 66.7 L155.9 66.5 L155.8 66.3 L155.8 66.1 L155.9 65.9 L155.5 65.5 L155.3 65.4 L155.2 65.2 L155.2 65.0 L155.1 64.8 L155.2 64.7 L155.3 64.5 L155.3 64.3 L155.3 64.1 L155.3 64.0 L154.8 63.9 L154.6 63.9 L154.5 63.8 L154.4 63.6 L154.3 63.5 L154.0 63.3 L153.8 63.2 L153.5 62.9 L153.4 62.8 L153.0 62.1 L153.0 62.0 L153.0 62.0 L155.1 62.0 L155.2 62.0 L155.3 62.0 L155.5 61.9 L155.9 61.9 L156.1 61.9 L156.3 62.0 L156.6 62.0 L158.0 61.9 L158.2 61.8 L158.3 61.6 L158.3 61.5 L158.2 61.5 L158.2 61.4 L158.3 61.3 L158.4 61.1 L158.4 61.0 L158.4 61.0 L158.4 60.9 L158.4 60.8 L158.4 60.6 L158.5 60.6 L158.7 60.5 L158.8 60.5 L159.1 60.2 L159.1 60.1 L159.1 59.9 L159.1 59.8 L159.1 59.8 L159.1 59.7 L159.1 59.6 L159.1 59.6 L159.2 59.5 L159.3 59.5 L159.3 59.3 L159.3 59.2 L159.3 59.1 L159.4 59.0 L159.5 58.8 L159.2 58.2 L158.9 58.0 L158.8 57.9 L158.7 57.8 L158.6 57.7 L158.3 57.7 L158.2 57.7 L158.1 57.6 L158.0 57.2 L158.0 57.1 L158.0 57.0 L158.1 56.7 L158.2 56.7 L158.4 56.6 L158.8 56.4 L158.9 56.4 L159.0 56.4 L159.2 56.4 L159.4 56.4 L159.6 56.3 L159.6 56.2 L159.6 56.1 L159.6 56.1 L159.6 56.0 L159.7 55.9 L160.1 55.7 L160.2 55.6 L160.4 55.4 L160.0 55.2 L159.8 54.9 L159.8 54.6 L159.9 54.2 L160.2 54.0 L160.2 53.9 L160.1 53.7 L160.0 53.6 L159.9 53.5 L159.8 53.4 L159.8 53.2 L159.9 53.0 L160.1 52.7 L160.2 52.6 L160.2 52.4 L160.2 52.3 L160.1 51.9 L160.0 51.6 L159.9 51.5 L159.9 51.3 L160.0 51.2 L160.0 51.2 L160.0 51.1 L160.0 51.0 L159.9 50.9 L160.0 50.7 L160.1 50.6 L160.2 50.5 L160.1 50.4 L160.0 50.3 L159.9 50.3 L159.8 50.2 L159.7 50.0 L159.5 49.6 L159.4 49.5 L159.0 49.2 L159.0 49.1 L158.9 49.0 L159.0 48.9 L159.1 48.7 L159.1 48.7 L159.3 48.6 L159.9 48.6 L160.1 48.6 L160.3 48.5 L160.7 48.1 L160.7 47.9 L160.7 47.7 L160.8 47.6 L160.9 47.5 L161.2 47.2 L161.3 47.2 L161.3 47.0 L161.7 46.6 L161.8 46.5 L162.0 46.5 L162.6 46.5 L162.7 46.5 L163.3 46.3 L163.6 46.1 L163.9 45.8 L164.2 45.5 L164.2 45.5 L164.4 45.5 L164.4 45.5 L164.4 45.4 L164.4 45.3 L164.4 45.3 L164.4 45.3 L164.5 45.2 L164.7 45.2 L165.0 45.1 L165.0 45.1 L165.3 44.6 L165.3 44.5 L165.3 44.5 L165.3 44.4 L165.4 44.3 L165.6 44.1 L166.1 43.6 L166.0 43.5 L165.9 43.4 L165.4 43.0 L165.0 42.8 L164.5 42.7 L163.7 42.6 L163.6 42.6 L163.5 42.6 L163.5 42.7 L163.3 42.7 L163.2 42.8 L163.1 42.8 L162.8 42.7 L162.7 42.6 L162.6 42.4 L162.6 42.2 L162.6 42.1 L162.5 42.0 L162.5 42.0 L162.5 41.9 L162.6 41.8 L162.6 41.7 L162.9 40.9 L163.0 40.7 L162.7 40.6 L162.6 40.6 L162.5 40.6 L162.6 40.1 L162.5 40.0 L162.4 39.9 L162.2 39.8 L162.0 40.0 L161.7 40.1 L161.0 40.1 L160.7 40.0 L160.4 39.6 L160.1 39.6 L160.0 39.9 L159.8 40.0 L159.2 40.0 L158.9 40.0 L158.7 39.8 L158.5 39.8 L158.4 39.7 L158.2 39.9 L157.9 40.0 L157.6 39.9 L157.3 39.7 L157.0 39.5 L156.8 39.6 L156.7 39.6 L156.5 39.7 L156.4 39.8 L156.4 39.9 L156.5 40.2 L156.5 40.4 L156.3 40.5 L156.2 40.6 L155.9 40.7 L155.2 40.9 L155.1 40.9 L154.7 40.9 L154.6 41.0 L154.4 41.0 L154.2 41.2 L154.1 41.3 L154.0 41.2 L153.9 41.0 L153.8 40.9 L153.7 40.8 L153.6 40.8 L153.4 40.7 L153.4 40.7 L153.3 40.8 L153.3 40.8 L153.3 40.9 L153.2 41.0 L153.1 41.1 L152.9 41.1 L152.7 41.1 L152.5 41.1 L152.3 41.1 L152.3 41.0 L152.5 40.7 L152.0 40.6 L151.8 40.6 L151.5 40.4 L151.4 40.4 L151.1 40.5 L150.5 40.6 L150.2 40.6 L150.1 40.6 L150.1 40.7 L150.0 40.7 L150.0 40.8 L149.7 40.8 L149.6 40.5 L149.6 40.3 L149.4 40.3 L149.3 40.4 L149.3 40.6 L149.2 40.7 L149.0 40.7 L148.9 40.7 L148.7 40.7 L148.6 40.8 L148.5 41.0 L148.2 41.2 L148.2 41.2 L147.8 41.3 L146.9 41.3 L146.9 41.2 L147.0 41.0 L146.9 40.9 L146.9 40.8 L146.5 40.7 L146.4 40.5 L146.4 40.3 L146.5 40.2 L146.9 39.8 L147.2 39.5 L147.5 39.4 L147.6 39.3 L147.7 39.2 L147.7 39.0 L147.7 38.9 L147.5 38.8 L147.3 38.7 L147.1 38.7 L146.9 38.8 L146.8 38.8 L146.7 38.7 L146.6 38.6 L146.7 38.2 L146.6 38.0 L146.5 37.9 L146.2 38.1 L146.0 38.1 L145.9 38.1 L145.8 38.2 L145.7 38.2 L145.5 38.4 L145.3 38.4 L143.8 38.6 L143.6 38.7 L143.3 38.8 L143.1 38.9 L142.7 38.9 L142.6 38.9 L142.4 39.0 L142.3 39.1 L142.2 39.3 L142.1 39.4 L141.9 39.5 L141.7 39.6 L141.5 39.7 L141.4 39.7 L141.3 39.9 L141.1 40.0 L140.9 40.1 L140.7 40.2 L140.6 40.3 L140.4 40.4 L140.3 40.5 L140.1 40.5 L140.1 40.3 L139.9 38.4 L140.0 38.3 L140.1 38.2 L140.5 38.2 L140.6 38.2 L140.7 38.1 L140.7 38.0 L140.5 37.9 L140.4 37.9 L140.5 37.8 L140.7 37.7 L140.8 37.7 L140.8 37.6 L140.8 37.5 L140.9 37.5 L141.0 37.4 L141.2 37.3 L141.7 37.0 L141.8 36.9 L141.8 36.9 L142.2 36.7 L142.3 36.6 L142.5 36.5 L142.6 36.5 L142.6 36.4 L142.6 36.1 L142.6 36.0 L142.6 36.0 L142.5 36.1 L142.3 36.2 L142.2 36.3 L142.1 36.5 L141.9 36.6 L141.7 36.6 L141.1 36.8 L141.0 36.9 L140.9 36.9 L140.4 36.9 L140.2 36.9 L140.3 36.8 L140.4 36.6 L140.4 36.5 L140.4 36.5 L140.6 36.6 L140.6 36.5 L140.6 36.2 L140.6 36.1 L140.6 36.1 L140.6 36.1 L140.8 36.1 L141.1 36.1 L141.2 36.1 L141.2 36.0 L141.6 35.6 L141.8 35.5 L142.1 35.4 L142.2 35.3 L142.3 35.1 L142.2 35.2 L142.1 35.2 L142.0 35.1 L141.9 35.1 L141.9 35.2 L141.9 35.2 L141.7 35.3 L141.4 35.4 L141.3 35.5 L141.1 35.5 L140.8 35.5 L140.5 35.5 L140.2 35.4 L140.2 35.3 L140.1 35.1 L140.0 35.0 L139.9 34.9 L139.6 34.9 L139.5 34.9 L139.6 34.8 L139.8 34.7 L140.0 34.6 L140.1 34.6 L140.2 34.6 L140.3 34.7 L140.3 34.8 L140.2 34.9 L140.3 34.9 L140.4 34.9 L140.5 35.0 L140.6 34.9 L140.7 34.8 L140.6 34.7 L140.6 34.6 L140.8 34.5 L140.6 34.2 L140.6 34.0 L140.7 33.9 L140.8 33.8 L140.9 33.7 L141.0 33.7 L141.1 33.5 L141.5 33.0 L141.6 32.7 L141.5 32.7 L141.4 32.9 L141.3 33.0 L141.2 33.2 L141.0 33.2 L140.9 33.1 L140.7 33.0 L140.6 32.9 L140.5 32.8 L140.4 33.0 L140.3 33.1 L140.4 33.2 L140.2 33.4 L140.1 33.5 L140.0 33.4 L140.0 33.3 L139.9 33.3 L139.6 33.5 L139.7 33.7 L139.6 33.7 L139.2 33.8 L139.2 33.8 L139.1 34.1 L139.1 34.1 L139.0 34.1 L138.8 34.3 L138.7 34.1 L138.7 34.0 L138.6 33.8 L138.4 33.7 L138.3 33.6 L138.3 33.4 L138.4 33.1 L138.6 33.0 L138.6 32.9 L138.6 32.7 L138.7 32.5 L138.8 32.4 L138.8 32.4 L138.9 32.3 L139.0 32.3 L139.0 32.2 L139.3 32.1 L139.6 31.9 L139.7 31.8 L139.9 31.7 L140.0 31.7 L140.1 31.5 L140.0 31.3 L139.8 31.3 L139.8 31.5 L139.6 31.6 L139.4 31.7 L139.2 31.7 L138.7 31.7 L138.5 31.7 L138.5 31.9 L138.3 32.0 L138.2 32.1 L138.0 32.1 L137.8 32.0 L137.8 31.9 L137.7 31.7 L137.6 31.5 L137.8 31.5 L137.8 31.5 L137.9 31.4 L138.0 31.3 L137.9 31.2 L137.8 31.1 L137.6 31.1 L137.6 31.0 L137.5 30.9 L137.5 30.8 L137.5 30.8 L137.6 30.7 L137.6 30.7 L137.6 30.6 L137.6 30.5 L137.6 30.5 L137.4 30.5 L137.3 30.4 L137.2 30.2 L137.0 30.2 L137.0 30.3 L137.1 30.4 L137.0 30.4 L137.0 30.4 L136.9 30.4 L136.9 30.3 L136.8 30.3 L136.7 30.3 L136.6 30.4 L136.5 30.5 L136.4 30.7 L136.3 30.8 L136.3 30.7 L136.2 30.5 L136.1 30.5 L136.1 30.4 L136.2 30.3 L136.4 29.9 L136.4 29.8 L136.4 29.8 L136.4 29.7 L136.5 29.6 L136.5 29.5 L136.4 29.5 L136.3 29.4 L136.2 29.2 L136.3 29.1 L136.4 29.1 L136.5 29.0 L136.6 28.9 L136.7 28.8 L136.8 28.7 L136.8 28.6 L137.0 28.7 L137.1 28.7 L137.2 28.7 L137.4 28.6 L137.4 28.5 L137.4 28.5 L137.5 28.4 L137.6 28.4 L137.7 28.4 L137.7 28.4 L137.9 28.3 L137.9 28.3 L137.7 28.3 L137.5 28.4 L137.4 28.3 L137.4 28.3 L137.1 28.4 L136.9 28.4 L136.8 28.2 L137.3 27.9 L137.6 27.7 L138.0 27.9 L138.1 27.9 L138.3 27.8 L138.4 27.8 L138.6 27.7 L138.7 27.7 L138.8 27.5 L138.8 27.4 L138.9 27.4 L139.1 27.5 L139.3 27.5 L139.6 27.4 L139.8 27.3 L139.6 27.3 L139.4 27.3 L139.3 27.1 L139.3 27.1 L139.1 27.0 L139.1 27.0 L139.1 26.9 L139.2 26.9 L139.6 26.8 L140.0 26.6 L140.3 26.5 L140.4 26.5 L140.5 26.4 L140.6 26.4 L140.7 26.4 L141.0 26.7 L141.2 26.7 L141.4 26.7 L141.7 26.8 L141.9 26.9 L142.2 26.8 L142.5 26.6 L142.9 26.6 L143.2 26.7 L143.7 26.5 L143.8 26.4 L143.9 26.3 L143.9 26.3 L144.0 26.2 L144.2 26.2 L144.3 26.1 L144.3 26.1 L144.4 26.1 L144.9 26.0 L144.9 26.1 L145.0 26.2 L145.2 26.3 L145.3 26.2 L145.4 26.1 L145.4 25.9 L145.4 25.8 L145.6 25.8 L145.9 25.9 L146.1 26.0 L146.1 26.0 L146.2 26.2 L146.2 26.3 L146.4 26.4 L146.5 26.5 L146.6 26.7 L146.7 26.5 L146.7 26.4 L146.6 26.1 L146.6 25.9 L146.7 25.8 L146.8 25.8 L147.0 25.7 L146.8 25.6 L146.6 25.6 L146.3 25.6 L146.1 25.6 L145.9 25.4 L145.7 25.3 L145.9 25.2 L146.9 25.1 L146.9 25.1 L147.0 25.1 L147.0 25.0 L147.0 24.9 L147.0 24.9 L146.8 25.0 L146.2 25.1 L146.2 25.0 L146.2 25.0 L146.3 25.0 L146.3 25.0 L146.2 24.9 L146.0 25.1 L145.9 25.1 L145.4 25.1 L145.5 25.0 L145.5 24.8 L145.6 24.6 L145.7 24.7 L145.8 24.5 L145.7 24.5 L145.7 24.4 L145.6 24.3 L145.6 24.2 L145.7 24.2 L145.8 24.2 L145.9 24.2 L146.1 24.2 L146.4 24.1 L147.8 23.3 L147.9 23.4 L147.9 23.5 L148.0 23.5 L148.2 23.5 L148.1 23.5 L148.0 23.5 L148.0 23.4 L148.1 23.4 L148.1 23.4 L148.2 23.3 L148.0 23.2 L147.9 23.1 L148.0 23.0 L148.0 22.9 L148.1 22.8 L148.2 22.8 L148.6 22.8 L148.8 22.7 L149.1 22.6 L149.4 22.5 L149.5 22.3 L149.8 22.3 L149.9 22.4 L150.0 22.6 L150.2 22.7 L150.2 22.8 L150.1 22.8 L150.0 22.7 L149.9 22.7 L149.9 22.8 L149.8 22.9 L149.8 23.0 L149.9 23.1 L149.8 23.1 L149.8 23.1 L149.7 23.1 L149.6 23.1 L149.6 23.1 L149.5 23.1 L149.5 23.2 L150.0 23.2 L150.1 23.1 L149.9 22.9 L150.1 22.9 L150.2 22.9 L150.4 22.9 L150.4 22.9 L150.4 22.8 L150.3 22.8 L150.5 22.7 L150.7 22.6 L150.9 22.5 L151.2 22.4 L151.4 22.3 L151.6 22.2 L151.7 22.0 L151.7 22.0 L151.8 22.0 L151.9 22.1 L151.9 22.2 L151.8 22.3 L151.6 22.5 L151.6 22.6 L151.7 22.6 L151.7 22.6 L151.8 22.6 L151.8 22.6 L151.8 22.5 L151.8 22.5 L151.9 22.5 L152.0 22.5 L152.1 22.4 L152.2 22.5 L152.4 22.9 L152.4 23.0 L152.5 23.0 L152.6 22.9 L152.7 22.7 L152.8 22.8 L152.9 22.7 L153.0 22.6 L153.1 22.6 L153.5 22.6 L153.6 22.7 L154.4 23.0 L154.8 23.1 L155.4 23.9 L155.9 24.1 L155.8 24.1 L155.8 24.1 L155.8 24.2 L155.7 24.2 L155.7 24.3 L155.9 24.3 L155.9 24.3 L156.0 24.2 L156.1 24.2 L156.3 24.2 L156.5 24.2 L156.8 24.3 L157.4 24.3 L157.6 24.2 L157.8 24.3 L157.9 24.3 L158.1 24.3 L158.1 24.5 L158.0 24.6 L157.9 24.7 L157.9 24.9 L157.9 25.1 L157.9 25.1 L158.0 25.1 L158.1 24.9 L158.1 24.7 L158.1 24.6 L158.3 24.5 L158.4 24.3 L158.9 24.2 L159.9 24.2 L160.0 24.2 L160.6 24.2 L161.0 24.3 L161.3 24.3 L161.8 24.1 L162.3 24.1 L162.8 24.2 L163.1 24.4 L163.2 24.3 L163.3 24.3 L163.6 24.3 L163.6 24.3 L163.5 24.2 L163.5 24.1 L163.7 24.1 L163.9 24.2 L164.0 24.3 L164.5 24.2 L165.0 24.2 L165.2 24.2 L165.4 24.1 L165.7 24.0 L165.7 24.0 L165.8 23.9 L165.9 23.9 L166.2 24.1 L166.4 24.1 L167.1 24.2 L167.3 24.1 L167.4 24.2 L167.6 24.1 L167.7 24.0 L167.9 24.0 L169.0 24.0 L169.0 23.9 L169.0 23.8 L168.9 23.8 L169.1 23.7 L169.0 23.6 L169.0 23.6 L169.0 23.5 L169.3 23.5 L169.4 23.5 L169.5 23.4 L169.5 23.3 L169.7 23.3 L170.0 23.4 L170.2 23.5 L170.7 24.0 L170.9 24.2 L171.0 24.2 L171.0 24.0 L171.1 24.1 L171.2 24.3 L171.7 24.3 L173.7 24.3 L174.0 24.3 L174.0 24.4 L173.9 24.6 L173.7 24.7 L173.8 24.8 L173.9 24.7 L174.1 24.7 L174.2 24.7 L174.3 24.6 L174.3 24.5 L174.3 24.5 L174.5 24.5 L174.9 24.5 L175.0 24.5 L175.7 24.9 L176.1 25.0 L176.9 25.0 L177.1 25.0 L177.2 25.2 L177.4 25.1 L178.0 25.3 L178.1 25.2 L178.3 25.1 L178.4 25.1 L178.5 25.1 L178.7 25.2 L179.4 25.3 L180.2 25.6 L180.4 25.7 L182.5 25.8 L182.6 25.8 L182.8 26.0 L183.0 25.8 L183.3 25.8 L183.6 25.9 L183.8 26.0 L183.8 26.0 L183.9 25.9 L184.0 25.8 L184.5 25.9 L185.7 25.8 L186.0 25.6 L186.6 25.5 L186.8 25.5 L187.2 25.5 L187.3 25.4 L187.3 25.4 L187.3 25.3 L187.4 25.3 L187.5 25.3 L187.7 25.5 L187.7 25.4 L187.8 25.4 L187.8 25.4 L187.9 25.4 L187.9 25.4 L187.8 25.3 L187.8 25.3 L188.1 25.1 L188.3 25.0 L188.4 25.1 L188.5 25.0 L188.6 25.0 L188.6 25.1 L188.9 24.9 L189.2 24.9 L189.5 24.9 L189.8 25.1 L189.3 25.2 L189.2 25.3 L189.0 25.4 L189.1 25.5 L189.2 25.5 L189.2 25.5 L189.2 25.5 L189.2 25.5 L189.2 25.5 L189.2 25.6 L189.3 25.6 L189.3 25.6 L189.5 25.5 L189.6 25.5 L189.7 25.3 L189.7 25.3 L189.8 25.3 L189.9 25.4 L190.0 25.5 L190.0 25.4 L190.0 25.3 L190.0 25.2 L189.9 25.2 L189.9 25.1 L190.0 25.1 L190.1 25.2 L190.1 25.2 L190.2 25.1 L190.2 25.1 L190.2 25.1 L190.1 25.1 L190.3 25.0 L190.5 25.0 L190.7 25.0 L190.7 24.9 L190.9 24.8 L191.6 24.7 L191.8 24.7 L191.8 24.9 L192.0 24.9 L192.1 24.9 L192.2 25.0 L192.3 25.1 L193.0 25.1 L193.0 25.2 L193.1 25.2 L193.1 25.3 L193.1 25.4 L193.0 25.4 L193.0 25.4 L192.9 25.4 L192.8 25.4 L192.8 25.3 L192.7 25.3 L192.6 25.3 L192.6 25.4 L192.5 25.5 L192.4 25.5 L192.5 25.5 L192.7 25.7 L192.8 25.7 L192.9 25.5 L193.0 25.6 L193.1 25.6 L193.4 25.6 L193.6 25.6 L194.0 25.7 L194.6 25.8 L195.1 25.9 L195.2 25.9 L195.3 26.0 L195.5 26.1 L195.8 26.2 L196.0 26.3 L196.1 26.3 L196.4 26.1 L196.7 26.3 L197.2 26.6 L197.2 26.5 L197.0 26.3 L197.0 26.2 L196.9 26.1 L196.9 26.1 L197.0 26.0 L197.1 26.0 L197.2 25.9 L197.7 25.7 L197.8 25.7 L197.8 25.6 L197.7 25.6 L197.7 25.5 L197.9 25.5 L198.2 25.4 L198.6 25.5 L199.1 25.4 L199.3 25.4 L199.5 25.3 L199.6 25.3 L199.8 25.4 L200.0 25.6 L200.1 25.7 L200.2 25.9 L200.2 26.1 L200.3 26.1 L200.3 25.9 L200.4 25.9 L200.4 25.8 L200.4 25.8 L200.4 25.7 L200.5 25.7 L200.6 25.7 L200.7 25.8 L201.0 25.8 L201.6 26.0 L202.0 26.0 L202.2 26.1 L202.4 26.3 L203.4 26.6 L203.8 26.7 L204.2 26.8 L204.6 26.7 L204.9 26.7 L205.0 26.6 L205.1 26.7 L205.2 26.7 L205.2 26.8 L205.4 26.8 L205.4 26.8 L205.4 26.8 L205.5 26.8 L205.5 26.8 L205.6 26.8 L205.6 26.8 L205.6 26.9 L205.7 26.9 L206.0 26.8 L206.1 26.7 L206.3 26.7 L207.0 26.5 L207.2 26.4 L207.3 26.4 L207.5 26.4 L207.6 26.4 L207.7 26.5 L207.7 26.6 L207.9 26.5 L207.8 26.5 L207.7 26.4 L207.7 26.4 L208.1 26.2 L208.4 26.0 L208.8 25.9 L208.9 26.0 Z M76.9 175.1 L76.9 175.2 L77.1 175.3 L77.1 175.3 L77.1 175.5 L77.0 175.7 L77.0 175.8 L77.1 176.0 L77.1 176.1 L77.0 176.1 L77.0 176.2 L76.9 176.4 L76.9 176.5 L77.0 176.7 L77.0 176.9 L76.8 176.9 L76.7 177.0 L76.4 177.3 L76.3 177.4 L75.6 177.6 L75.5 177.7 L75.4 177.7 L75.2 178.0 L75.0 178.0 L74.9 178.0 L74.9 177.9 L74.8 177.8 L74.3 177.8 L74.2 177.8 L74.0 177.7 L73.5 177.3 L73.4 177.2 L73.4 177.2 L73.2 177.1 L73.1 177.0 L73.0 176.9 L72.7 176.4 L72.7 176.2 L72.7 176.0 L72.7 175.9 L72.7 175.7 L72.7 175.6 L72.7 175.5 L72.8 175.4 L73.2 175.2 L73.4 175.1 L73.6 174.9 L73.8 174.6 L73.7 174.4 L73.8 174.3 L73.9 174.1 L73.9 173.9 L73.8 173.8 L73.9 173.8 L74.0 173.8 L74.1 173.8 L74.2 173.9 L74.3 173.8 L74.9 174.0 L75.6 174.0 L76.2 174.1 L76.4 174.1 L76.4 173.7 L76.7 173.7 L76.7 173.7 L76.8 173.8 L76.8 173.9 L76.7 173.9 L76.6 174.0 L76.6 174.3 L76.7 174.7 L76.7 174.8 L76.7 174.9 L76.8 175.0 L76.9 175.1 Z M66.8 174.0 L66.7 174.1 L66.5 174.3 L65.9 174.9 L65.7 175.1 L65.6 175.2 L65.3 175.1 L64.8 175.3 L64.6 175.4 L64.4 175.4 L64.2 175.4 L64.1 175.3 L64.1 175.2 L64.1 175.1 L64.0 175.0 L63.9 175.0 L63.9 174.9 L63.9 174.7 L63.9 174.7 L63.7 174.5 L63.4 174.2 L63.3 174.0 L63.2 173.8 L63.1 173.7 L62.9 173.5 L62.8 173.4 L62.7 173.0 L62.7 172.9 L62.6 172.7 L62.5 172.5 L62.1 172.2 L62.0 172.0 L62.3 171.8 L62.8 171.6 L63.0 171.7 L63.2 171.8 L63.3 171.9 L63.5 171.9 L63.7 171.8 L64.0 171.7 L64.3 171.6 L64.5 171.5 L64.7 171.6 L65.1 171.5 L65.3 171.5 L65.5 171.4 L65.7 171.4 L65.8 171.3 L66.0 171.3 L66.2 171.2 L66.7 170.8 L66.9 170.7 L66.9 170.6 L66.9 170.4 L67.0 170.4 L67.2 170.3 L67.2 170.2 L67.4 170.1 L67.6 170.1 L67.8 170.0 L67.9 169.9 L68.0 169.9 L69.0 169.9 L69.6 169.8 L69.8 169.9 L69.7 170.1 L69.4 170.3 L68.7 170.7 L68.5 170.9 L68.3 171.1 L68.1 171.4 L67.8 171.6 L67.6 171.6 L67.5 171.7 L67.4 171.9 L67.4 172.1 L67.4 172.3 L67.5 172.4 L67.4 172.5 L67.3 172.5 L67.3 172.6 L67.2 172.8 L66.9 173.4 L66.8 173.8 L66.8 174.0 Z M90.6 168.3 L91.0 168.1 L91.4 168.1 L91.7 168.2 L92.0 168.5 L92.1 168.8 L92.1 169.2 L92.0 170.1 L92.0 170.3 L91.8 170.6 L91.8 170.8 L91.8 171.1 L91.8 171.2 L91.8 171.3 L91.9 171.4 L91.9 171.5 L91.9 171.6 L91.7 171.7 L91.6 171.8 L91.6 171.8 L91.6 171.9 L91.6 172.0 L91.4 172.2 L91.3 172.4 L91.2 172.7 L91.0 173.0 L90.7 173.2 L89.7 173.4 L89.2 173.5 L88.9 173.7 L88.5 173.8 L88.3 173.9 L88.0 174.2 L87.7 174.5 L87.4 174.8 L87.0 174.9 L86.8 174.9 L86.4 174.8 L86.2 174.7 L85.6 174.8 L85.4 174.7 L85.5 174.7 L85.5 174.6 L85.6 174.5 L85.5 174.4 L85.6 174.4 L85.9 174.5 L86.1 174.4 L86.5 174.3 L87.1 174.1 L87.8 173.7 L88.0 173.5 L88.2 173.3 L88.3 173.1 L88.4 172.9 L88.4 172.5 L88.5 172.3 L88.7 172.0 L89.0 171.3 L89.0 171.2 L89.1 171.1 L89.4 170.7 L89.6 170.2 L90.0 169.7 L90.1 169.2 L90.3 168.9 L90.3 168.6 L90.4 168.5 L90.5 168.4 L90.6 168.3 Z M53.9 167.5 L53.9 167.7 L53.9 167.9 L54.0 168.1 L54.2 168.1 L54.2 168.3 L53.9 168.6 L53.8 168.8 L53.9 169.0 L54.0 169.4 L53.9 169.6 L53.9 169.8 L53.6 170.1 L53.4 170.5 L53.3 170.8 L53.2 171.0 L53.1 171.0 L53.0 170.9 L52.8 170.8 L52.8 170.6 L52.7 170.1 L52.6 170.0 L52.5 169.9 L52.3 169.6 L52.2 169.4 L51.9 168.9 L51.8 168.7 L51.8 168.5 L51.7 168.3 L51.6 168.2 L51.5 168.1 L51.5 167.8 L51.8 167.5 L52.1 167.3 L52.4 167.1 L52.6 167.2 L52.8 167.3 L53.1 167.3 L53.4 167.2 L53.6 167.2 L53.8 167.4 L53.9 167.5 Z M95.4 163.4 L95.6 163.3 L95.8 163.4 L96.0 163.7 L95.9 163.9 L95.9 164.0 L95.8 164.2 L95.6 164.3 L95.6 164.4 L95.6 164.6 L95.7 164.7 L95.7 164.9 L95.7 164.9 L95.6 165.1 L95.6 165.1 L95.6 165.2 L95.6 165.4 L95.6 165.5 L95.4 165.7 L95.1 165.9 L94.8 166.1 L94.4 166.2 L94.3 166.3 L94.2 166.4 L94.1 166.4 L93.9 166.4 L93.7 166.5 L93.5 166.5 L93.2 166.5 L92.9 166.7 L92.7 167.0 L92.6 167.3 L92.5 167.3 L92.4 167.1 L92.2 167.1 L91.7 167.1 L91.7 167.0 L91.6 166.9 L91.6 166.8 L91.6 166.7 L91.7 166.7 L91.8 166.6 L91.9 166.5 L91.9 166.3 L92.0 165.8 L92.0 165.7 L92.3 165.2 L92.5 165.1 L92.6 165.0 L92.8 164.9 L93.0 164.9 L93.2 164.9 L93.4 164.8 L93.7 164.6 L93.9 164.5 L94.1 164.4 L94.2 164.4 L94.7 164.4 L94.9 164.4 L95.0 164.2 L95.1 164.0 L95.2 163.7 L95.3 163.5 L95.4 163.4 Z M242.0 67.7 L241.9 67.8 L242.0 68.0 L242.1 68.3 L242.0 68.3 L241.8 68.4 L241.8 68.5 L241.7 68.6 L241.7 68.7 L241.3 68.9 L241.0 69.2 L240.9 69.3 L240.6 69.4 L240.5 69.5 L240.5 69.5 L240.4 69.5 L240.4 69.4 L240.2 69.6 L240.1 69.6 L240.0 70.0 L240.0 70.2 L239.7 70.2 L239.6 70.0 L239.4 69.9 L239.3 69.9 L239.2 69.9 L239.2 69.9 L239.2 69.9 L239.1 69.9 L239.0 69.8 L238.8 69.8 L238.7 69.8 L238.6 69.9 L238.3 69.8 L238.2 69.7 L238.1 69.5 L238.3 69.3 L238.3 69.1 L238.2 69.0 L238.3 69.0 L238.4 68.9 L238.5 68.9 L238.6 68.9 L238.7 68.9 L238.8 68.9 L239.0 68.9 L238.9 68.5 L238.9 68.2 L239.0 68.1 L239.2 68.1 L239.3 68.0 L239.6 67.8 L239.6 67.8 L239.7 67.9 L239.9 67.8 L240.0 67.8 L240.2 67.7 L240.5 67.6 L240.7 67.5 L240.9 67.5 L241.0 67.5 L241.2 67.4 L241.3 67.4 L241.5 67.5 L241.5 67.5 L241.7 67.5 L241.8 67.6 L241.9 67.6 L242.0 67.7 Z M259.0 60.9 L259.2 61.0 L259.8 61.3 L260.1 61.3 L260.1 61.4 L260.1 61.5 L260.1 61.5 L260.1 61.6 L260.1 61.7 L260.0 61.7 L260.0 61.8 L260.1 61.9 L259.9 62.2 L259.8 62.3 L259.7 62.3 L259.5 62.4 L259.4 62.5 L259.4 62.7 L259.5 62.8 L259.1 63.1 L258.7 63.5 L258.3 63.9 L258.3 64.5 L258.2 64.4 L258.1 64.4 L258.0 64.8 L257.7 65.1 L256.8 65.5 L256.4 65.7 L256.3 65.8 L256.3 65.9 L256.2 65.9 L256.1 66.0 L256.1 65.9 L255.8 65.6 L255.7 65.6 L255.6 65.5 L255.5 65.5 L255.5 65.4 L255.5 65.3 L255.4 65.2 L255.4 65.2 L255.3 65.1 L255.1 65.0 L255.0 65.0 L254.9 65.0 L254.8 65.1 L254.7 65.1 L253.8 65.0 L253.4 64.9 L253.2 64.7 L253.1 64.1 L253.0 64.1 L253.0 63.9 L253.1 63.7 L253.0 63.5 L252.7 63.3 L252.4 63.1 L252.2 63.1 L252.0 63.1 L251.3 63.4 L251.2 63.5 L251.1 63.8 L250.9 64.0 L250.6 64.0 L250.4 63.7 L250.4 63.7 L250.4 63.6 L250.4 63.6 L250.5 63.5 L250.2 63.3 L250.1 63.4 L250.1 63.5 L250.0 63.4 L249.9 63.3 L249.7 63.5 L249.6 63.5 L249.5 63.4 L249.4 63.2 L249.3 63.1 L249.2 63.0 L249.2 62.8 L249.3 62.6 L250.0 62.3 L250.2 62.2 L250.3 62.2 L250.8 61.8 L251.0 61.7 L251.2 61.7 L251.3 61.6 L251.5 61.5 L251.8 61.3 L251.8 61.2 L251.9 61.1 L251.9 61.1 L252.0 61.1 L252.1 61.1 L252.1 61.1 L252.4 60.9 L252.4 60.9 L252.4 60.8 L252.6 60.7 L252.7 60.6 L252.8 60.6 L253.1 60.5 L253.2 60.4 L253.3 60.3 L253.4 60.2 L253.6 60.2 L253.6 60.2 L253.7 60.1 L253.7 60.1 L253.9 60.1 L254.0 60.1 L254.3 60.0 L254.9 59.7 L255.2 59.6 L255.7 59.6 L256.2 59.5 L257.3 59.2 L257.4 59.3 L257.4 59.2 L257.5 59.2 L257.6 59.3 L257.5 59.3 L257.2 59.5 L257.0 59.5 L256.9 59.5 L256.8 59.7 L256.6 59.7 L256.5 59.7 L256.5 59.7 L256.4 60.0 L256.8 60.1 L257.5 59.9 L257.5 59.9 L257.4 60.0 L257.4 60.1 L257.4 60.1 L257.4 60.2 L257.3 60.3 L257.3 60.3 L257.1 60.3 L256.8 60.4 L256.7 60.5 L256.7 60.7 L256.8 60.9 L257.1 61.1 L257.4 61.2 L257.7 61.3 L258.4 61.3 L258.5 61.2 L258.8 61.0 L259.0 60.9 Z M268.2 59.6 L268.2 59.7 L268.4 60.0 L268.5 60.1 L268.4 60.1 L268.4 60.1 L268.3 60.0 L268.3 60.0 L268.2 59.9 L268.1 60.6 L267.6 60.6 L266.9 60.4 L265.4 59.6 L265.0 59.5 L264.7 59.5 L264.0 59.6 L263.6 59.5 L263.6 59.4 L263.6 59.2 L263.7 59.1 L263.8 59.0 L263.7 59.0 L263.5 58.9 L263.4 58.8 L263.3 58.7 L263.3 58.7 L263.4 58.6 L263.4 58.5 L263.5 58.4 L264.2 58.3 L264.4 58.3 L265.3 58.3 L265.7 58.3 L265.8 58.3 L266.0 58.2 L266.1 58.1 L266.2 58.1 L266.3 58.2 L266.4 58.3 L266.6 58.4 L266.6 58.4 L266.5 58.5 L266.5 58.6 L266.6 58.6 L266.7 58.6 L266.7 58.5 L266.8 58.4 L266.8 58.3 L266.9 58.2 L266.9 58.3 L266.9 58.4 L267.0 58.5 L267.2 58.6 L267.3 58.7 L267.3 58.7 L267.4 58.8 L267.5 58.8 L267.6 58.8 L267.7 58.9 L267.8 59.0 L267.9 59.1 L267.9 59.3 L267.7 59.3 L267.9 59.4 L268.0 59.4 L268.1 59.4 L268.2 59.6 Z" fill="#172033" fill-rule="evenodd"/></svg>
