<svg xmlns="http://www.w3.org/2000/svg" viewBox="0 0 320 200" role="img"><path d="M72.8 95.7 L72.8 94.7 L73.2 92.7 L74.9 88.0 L75.7 87.2 L76.0 86.8 L76.0 86.6 L76.0 86.3 L76.0 86.2 L76.0 86.1 L76.1 85.9 L76.2 85.9 L76.3 85.3 L76.3 84.7 L75.6 81.7 L75.5 81.1 L75.7 80.6 L76.8 79.0 L77.3 78.0 L77.6 77.7 L77.8 77.5 L79.4 76.4 L79.7 76.3 L79.8 76.4 L81.5 77.8 L81.9 78.1 L82.1 78.2 L82.1 78.4 L82.1 78.8 L82.1 79.0 L82.3 79.1 L82.4 79.0 L82.5 78.6 L82.7 78.4 L82.9 78.4 L83.1 78.4 L83.3 78.4 L83.4 78.2 L83.5 77.9 L83.5 77.8 L83.6 77.6 L83.8 77.4 L84.5 76.8 L84.8 76.5 L84.9 76.0 L84.8 75.8 L84.4 75.6 L84.3 75.4 L84.3 75.2 L85.2 72.6 L85.2 72.2 L85.1 71.9 L84.8 71.7 L84.7 71.3 L84.7 71.0 L86.4 67.3 L86.5 67.0 L86.5 66.8 L86.2 66.2 L86.1 65.9 L86.1 65.4 L86.0 64.8 L86.0 64.6 L86.1 64.3 L86.3 63.9 L86.4 63.6 L86.6 63.3 L87.2 63.0 L87.5 62.9 L88.4 62.5 L88.8 62.1 L88.8 62.0 L88.8 61.7 L88.8 61.7 L88.9 61.5 L89.0 61.4 L89.5 61.1 L89.8 60.8 L89.9 60.5 L90.0 59.8 L90.3 59.2 L90.4 59.0 L90.5 58.9 L90.8 58.7 L90.9 58.6 L91.1 58.4 L91.1 58.3 L91.1 57.9 L91.3 57.5 L93.8 53.3 L94.0 53.2 L94.1 53.1 L94.3 53.1 L94.5 53.1 L94.6 52.9 L94.6 52.8 L94.7 52.6 L94.7 52.3 L94.7 52.2 L94.8 52.2 L95.0 52.1 L95.0 52.1 L95.3 52.0 L99.4 51.4 L99.6 51.4 L99.7 51.4 L99.8 51.5 L99.9 51.5 L100.0 51.6 L100.4 51.7 L100.6 51.6 L100.7 51.3 L101.0 49.8 L101.0 49.5 L100.9 49.3 L100.6 48.7 L100.6 48.4 L100.8 48.2 L101.0 48.0 L101.1 47.8 L101.1 47.7 L101.0 47.6 L100.9 47.4 L100.9 47.1 L102.2 42.6 L104.2 39.8 L104.4 39.4 L104.4 38.6 L104.5 38.4 L105.0 37.0 L105.3 36.4 L105.2 35.7 L105.0 35.0 L104.9 34.7 L104.9 34.4 L105.0 34.1 L106.2 30.4 L106.5 30.4 L106.6 30.1 L106.7 30.0 L107.0 29.9 L107.2 29.9 L107.4 29.9 L107.9 29.7 L108.1 29.6 L108.7 29.6 L108.9 29.6 L109.1 29.5 L109.2 29.4 L110.1 29.4 L110.6 29.5 L111.5 29.8 L111.9 29.8 L112.0 29.9 L112.2 30.2 L112.3 30.3 L112.5 30.3 L112.6 30.4 L112.7 30.4 L112.8 30.4 L113.0 30.2 L113.1 30.2 L113.3 30.2 L113.5 30.2 L113.6 30.1 L113.8 29.9 L113.9 29.7 L113.9 29.4 L113.9 29.1 L114.0 28.8 L114.1 28.5 L114.3 28.2 L114.7 27.9 L115.1 27.8 L116.1 27.9 L116.4 27.8 L116.6 27.7 L117.0 28.0 L117.2 28.2 L117.7 28.9 L117.9 29.1 L118.0 29.2 L118.0 29.4 L118.0 29.7 L118.0 29.9 L118.2 30.0 L118.8 30.4 L118.8 30.5 L118.9 30.8 L119.0 31.1 L119.1 31.2 L119.3 31.3 L119.4 31.3 L119.5 31.4 L119.7 31.5 L119.7 31.6 L119.7 32.0 L119.8 32.2 L119.9 32.4 L120.2 32.5 L120.3 32.4 L120.8 31.2 L121.6 29.4 L122.4 27.4 L123.3 25.4 L124.2 23.3 L124.8 22.0 L125.0 22.2 L125.2 22.4 L125.4 22.9 L125.5 23.0 L125.6 23.0 L125.7 23.0 L125.7 23.1 L125.7 23.2 L125.7 23.3 L125.7 23.4 L125.7 23.5 L125.8 23.5 L126.0 23.6 L126.1 23.7 L126.1 23.8 L126.1 23.9 L126.2 24.0 L126.3 24.1 L127.8 24.7 L128.0 24.7 L128.8 24.6 L129.1 24.6 L129.3 24.7 L129.5 24.9 L129.6 25.1 L129.6 25.2 L129.7 25.5 L129.7 25.7 L129.9 25.8 L130.0 25.9 L130.2 26.0 L130.2 26.1 L130.4 26.7 L130.5 26.9 L130.6 27.1 L130.9 27.3 L131.6 27.6 L131.7 27.7 L131.8 28.0 L131.9 28.2 L132.0 28.3 L132.1 28.3 L132.3 28.3 L132.9 28.3 L134.0 28.2 L134.5 28.0 L135.3 27.6 L135.6 27.6 L135.8 27.7 L136.1 27.7 L136.3 27.7 L136.6 27.6 L137.4 27.3 L138.0 27.2 L138.3 27.1 L138.7 26.7 L139.3 26.4 L139.5 26.2 L139.7 26.0 L139.8 25.8 L139.8 25.5 L139.8 25.3 L140.0 25.1 L140.0 25.2 L140.5 25.2 L140.8 25.3 L141.0 25.3 L141.3 25.5 L141.6 25.8 L141.8 26.1 L142.0 26.3 L142.4 27.5 L142.7 28.0 L143.0 28.0 L143.3 27.5 L143.5 27.3 L143.8 27.3 L144.5 27.4 L144.8 27.4 L145.9 27.1 L146.5 26.8 L146.7 26.5 L146.8 26.2 L147.1 26.2 L147.3 26.4 L147.5 26.6 L147.8 26.9 L147.9 27.0 L148.0 27.0 L148.7 27.2 L149.0 27.2 L149.6 27.1 L149.8 27.1 L150.2 27.1 L150.7 27.2 L151.0 27.5 L151.7 28.1 L151.9 28.2 L152.2 28.2 L152.5 28.1 L152.9 27.8 L153.1 27.7 L153.4 27.8 L153.7 27.8 L153.9 27.8 L154.6 27.6 L154.8 27.6 L156.1 27.9 L156.6 28.1 L157.2 28.5 L158.2 29.4 L159.1 30.2 L159.9 30.6 L161.4 31.3 L161.8 31.4 L163.0 31.6 L163.9 31.9 L164.7 32.5 L166.2 34.1 L167.6 35.7 L168.7 37.5 L169.6 39.2 L170.0 39.6 L171.9 40.7 L174.2 42.2 L175.6 43.3 L176.7 44.2 L177.2 44.7 L177.7 45.3 L178.1 46.0 L179.2 48.3 L179.9 49.2 L180.9 49.9 L181.7 50.2 L182.5 50.6 L183.1 51.2 L184.0 52.7 L185.1 54.1 L185.8 54.8 L184.9 55.9 L184.5 56.8 L182.7 59.2 L182.5 59.7 L182.4 59.9 L182.1 60.0 L181.9 60.2 L181.4 61.2 L180.3 62.8 L179.7 63.5 L179.6 63.6 L179.4 63.8 L179.2 63.9 L179.1 63.9 L178.9 64.0 L178.9 64.2 L178.7 64.4 L178.2 64.6 L178.0 64.7 L177.8 65.2 L177.6 66.2 L177.2 67.4 L177.2 68.2 L177.6 69.7 L177.7 71.2 L177.7 73.8 L177.6 74.4 L177.4 74.8 L177.4 74.9 L177.5 75.0 L177.9 75.1 L179.5 75.5 L179.5 75.5 L179.6 75.6 L179.6 75.7 L179.8 75.7 L179.8 75.6 L179.9 75.6 L180.0 75.5 L180.7 75.5 L181.1 75.4 L181.5 75.0 L181.9 74.9 L182.7 74.8 L183.4 74.9 L183.6 74.9 L183.8 74.9 L184.3 74.7 L184.4 74.7 L184.6 74.7 L184.8 74.7 L185.2 74.5 L185.5 74.6 L185.7 74.6 L185.9 74.7 L186.2 74.5 L187.1 73.9 L188.3 73.6 L188.9 73.5 L189.0 73.5 L189.9 73.7 L190.3 73.8 L190.5 73.9 L190.9 74.6 L191.1 74.8 L191.4 74.8 L192.0 74.9 L192.3 75.0 L192.5 75.0 L192.7 75.0 L192.8 74.8 L192.9 74.7 L193.2 74.8 L193.0 75.0 L192.9 75.6 L192.7 75.8 L192.5 76.0 L191.9 76.3 L191.7 76.5 L191.6 76.7 L191.6 77.0 L191.5 77.2 L191.3 77.4 L190.8 77.8 L190.6 78.0 L190.5 78.3 L190.4 78.9 L190.3 79.2 L190.1 79.4 L189.8 79.5 L189.6 79.6 L189.4 79.7 L189.4 80.0 L189.7 80.6 L190.1 81.2 L190.8 81.9 L191.0 82.2 L191.2 82.6 L191.3 83.8 L191.6 84.7 L192.0 85.5 L192.3 85.9 L193.6 86.8 L193.9 87.1 L194.2 87.5 L194.4 87.9 L194.5 88.4 L194.7 89.0 L195.1 89.4 L195.6 89.6 L196.2 89.7 L196.7 89.9 L197.0 90.4 L197.4 92.5 L197.6 93.1 L197.9 93.4 L198.2 93.5 L198.4 93.5 L198.5 93.7 L198.6 94.0 L198.7 94.1 L198.8 94.2 L199.1 94.4 L199.2 94.5 L199.5 95.1 L199.6 95.4 L199.7 95.8 L199.7 96.1 L199.9 96.3 L200.6 96.7 L201.6 97.4 L201.9 97.4 L202.2 97.3 L202.4 97.2 L202.6 97.3 L203.7 98.3 L204.9 99.4 L206.6 101.0 L207.6 101.8 L208.1 102.1 L209.2 102.5 L210.4 102.9 L211.6 103.3 L212.8 103.7 L214.0 104.0 L215.2 104.4 L216.4 104.8 L217.6 105.2 L218.8 105.6 L220.0 106.0 L221.2 106.4 L222.4 106.8 L223.6 107.2 L224.8 107.6 L226.0 108.0 L227.2 108.4 L228.4 108.8 L229.5 109.1 L230.7 109.5 L231.8 109.9 L232.9 110.3 L234.1 110.7 L235.2 111.1 L236.4 111.4 L237.5 111.8 L238.6 112.2 L239.8 112.6 L240.9 113.0 L242.1 113.4 L243.2 113.7 L244.3 114.1 L245.5 114.5 L246.6 114.9 L247.5 115.2 L248.3 115.6 L249.5 115.6 L251.4 115.6 L253.5 115.6 L255.7 115.6 L257.5 115.6 L259.9 115.6 L261.9 115.6 L261.2 116.2 L260.6 116.8 L259.9 117.5 L259.2 118.1 L258.6 118.7 L257.9 119.4 L257.3 120.0 L256.6 120.7 L255.9 121.3 L255.8 121.4 L255.3 121.9 L254.6 122.6 L253.9 123.2 L253.3 123.8 L252.6 124.5 L252.0 125.1 L251.3 125.8 L250.6 126.4 L250.0 127.0 L249.3 127.7 L248.7 128.3 L248.0 128.9 L247.3 129.6 L246.7 130.2 L246.0 130.9 L245.4 131.5 L244.7 132.1 L244.0 132.8 L243.4 133.4 L243.1 133.7 L242.5 134.3 L241.9 134.8 L241.6 135.1 L241.3 135.4 L240.7 136.0 L239.9 136.8 L239.1 137.6 L238.3 138.5 L237.4 139.3 L236.6 140.2 L235.8 141.0 L234.9 141.9 L234.1 142.7 L232.6 144.3 L231.2 145.9 L229.7 147.5 L228.4 148.9 L228.3 149.1 L226.8 150.7 L225.4 152.3 L223.9 153.9 L222.4 155.5 L221.7 156.3 L221.7 156.3 L220.6 157.5 L220.2 157.7 L219.5 157.6 L218.8 157.6 L218.0 157.5 L217.3 157.5 L216.6 157.5 L215.9 157.4 L215.9 157.4 L215.2 157.4 L214.5 157.3 L213.8 157.3 L213.1 157.3 L212.4 157.2 L211.7 157.2 L211.0 157.1 L210.3 157.1 L209.6 157.1 L208.9 157.0 L208.2 157.0 L207.4 156.9 L206.9 157.0 L205.7 157.5 L205.3 157.6 L203.9 157.9 L202.9 158.1 L201.4 158.4 L200.4 158.9 L198.9 159.6 L197.4 160.4 L195.8 161.1 L194.7 162.0 L193.7 162.9 L193.5 163.0 L193.5 163.1 L193.3 163.6 L193.0 164.5 L192.8 165.0 L192.4 165.4 L192.4 165.4 L191.9 165.8 L191.3 166.0 L190.4 166.2 L188.3 166.5 L186.2 166.9 L184.6 167.1 L183.6 167.2 L182.4 167.2 L182.0 167.3 L181.5 167.5 L180.8 168.1 L179.8 168.7 L179.6 168.9 L179.5 169.2 L179.5 169.6 L179.4 169.8 L179.2 169.9 L179.0 170.2 L178.4 170.6 L177.8 170.5 L177.2 170.1 L176.5 169.9 L175.9 170.3 L175.7 170.3 L175.6 170.3 L175.2 170.1 L175.0 170.1 L173.9 170.4 L173.5 170.4 L172.8 170.6 L171.3 170.7 L169.9 170.8 L169.2 170.7 L168.6 170.4 L168.0 169.9 L167.1 168.7 L166.7 168.4 L166.5 168.3 L165.9 168.0 L165.6 167.9 L165.5 167.8 L165.2 167.3 L164.9 167.0 L164.1 166.4 L163.8 166.0 L162.9 166.6 L161.8 167.0 L160.4 167.6 L158.6 168.2 L158.5 168.3 L158.5 168.5 L158.4 168.6 L157.3 169.0 L155.9 169.5 L155.9 169.5 L155.9 169.4 L155.8 169.4 L155.7 169.4 L155.7 169.5 L155.7 169.5 L155.6 169.6 L155.0 169.9 L153.7 170.6 L152.5 171.1 L151.4 171.7 L151.1 172.0 L150.8 172.7 L150.4 173.7 L150.2 174.2 L149.9 174.5 L148.9 175.5 L148.0 176.3 L147.6 176.7 L147.3 177.6 L147.1 178.0 L146.7 178.0 L146.5 177.9 L146.4 177.7 L146.3 177.5 L146.2 177.3 L145.7 177.2 L144.1 177.1 L144.2 176.9 L144.1 176.8 L143.9 176.7 L143.8 176.8 L143.3 177.1 L142.8 177.1 L142.3 177.0 L141.1 176.4 L140.9 176.4 L140.7 176.3 L140.0 176.5 L139.8 176.5 L139.5 176.4 L139.3 176.4 L138.8 176.5 L138.4 176.5 L137.4 176.2 L136.0 175.9 L135.8 175.7 L135.6 175.5 L135.2 175.0 L135.2 175.1 L135.2 175.3 L135.2 175.4 L134.4 175.3 L134.3 175.3 L134.3 175.2 L134.3 175.2 L134.1 175.3 L134.0 175.3 L133.9 175.2 L133.7 175.2 L133.6 175.1 L133.6 175.0 L133.5 174.9 L133.2 174.7 L133.1 174.6 L133.0 174.7 L133.0 174.8 L133.0 174.9 L133.0 175.0 L132.3 175.3 L131.5 175.4 L130.1 175.2 L128.6 175.0 L128.2 175.1 L127.8 175.2 L127.6 175.2 L127.3 174.9 L126.9 174.8 L126.7 174.7 L126.5 174.4 L126.2 173.9 L125.9 173.6 L125.5 173.3 L124.1 172.5 L122.8 171.6 L121.4 170.7 L120.2 169.9 L119.1 169.2 L117.5 168.2 L116.2 167.4 L114.9 166.5 L114.2 166.1 L114.1 166.0 L114.0 166.0 L113.9 166.0 L113.9 165.9 L113.8 165.6 L113.8 165.5 L113.7 165.4 L113.6 165.4 L113.3 165.4 L113.2 165.3 L113.0 165.0 L112.8 164.9 L112.3 164.7 L111.3 164.2 L110.5 164.0 L107.9 164.0 L107.9 164.0 L107.8 164.0 L107.6 163.9 L107.5 163.9 L105.3 163.9 L102.8 164.0 L102.6 163.9 L102.4 163.8 L102.3 163.8 L102.1 163.8 L101.6 163.8 L99.7 163.9 L99.6 163.9 L99.3 163.8 L99.0 163.6 L98.5 163.1 L98.2 163.0 L98.1 162.8 L98.1 162.6 L98.2 162.3 L98.2 162.0 L98.0 161.7 L98.0 161.5 L96.1 159.5 L95.8 158.9 L95.7 158.3 L95.7 155.4 L95.8 155.3 L96.3 154.6 L96.4 154.3 L96.4 154.0 L96.3 153.7 L96.0 153.2 L96.0 152.9 L96.1 152.6 L96.4 152.1 L96.4 152.0 L95.6 151.7 L94.7 151.1 L94.4 151.0 L94.1 151.1 L93.9 151.2 L93.6 151.3 L93.2 151.2 L92.7 150.7 L92.4 150.5 L92.1 150.5 L91.8 150.4 L91.5 150.4 L91.3 150.5 L91.0 150.7 L90.4 151.3 L90.1 151.5 L89.8 151.6 L89.6 151.4 L89.4 151.2 L88.9 150.5 L88.9 150.4 L88.9 150.2 L89.0 150.1 L89.1 149.9 L89.2 149.8 L89.1 149.6 L89.0 149.3 L88.5 148.9 L87.4 148.3 L86.8 147.8 L86.6 147.6 L86.5 146.8 L86.3 146.4 L85.2 144.9 L85.1 144.6 L85.1 144.4 L85.1 144.2 L85.1 144.1 L85.2 143.9 L85.1 143.7 L84.9 143.5 L84.8 143.3 L84.8 143.2 L84.9 143.0 L85.0 142.7 L85.0 142.6 L84.9 141.9 L84.8 141.6 L84.6 141.3 L84.3 141.1 L84.1 140.8 L83.8 140.2 L83.3 139.3 L83.3 139.1 L83.3 138.2 L83.2 137.9 L82.6 137.0 L82.5 136.7 L82.4 135.9 L82.1 135.1 L82.0 134.6 L81.8 134.0 L81.7 134.0 L81.6 133.8 L81.5 133.5 L81.4 133.4 L80.5 132.8 L80.3 132.7 L80.0 132.7 L79.4 132.7 L79.1 132.6 L79.0 132.5 L78.9 131.9 L78.9 131.9 L78.8 131.7 L78.8 131.6 L78.8 131.6 L79.0 131.5 L79.0 131.5 L79.0 131.2 L78.9 131.0 L78.8 130.8 L78.7 130.6 L77.8 130.0 L75.9 129.5 L75.9 129.5 L75.8 129.4 L75.7 129.4 L75.6 129.1 L75.5 129.1 L75.0 128.7 L74.8 128.5 L74.8 128.4 L74.7 128.4 L74.5 128.2 L74.5 127.9 L74.5 127.8 L74.5 127.4 L74.4 127.1 L74.3 126.8 L74.1 126.7 L73.9 126.8 L73.7 126.9 L73.4 126.7 L73.0 126.2 L72.4 125.7 L72.3 125.7 L72.3 125.6 L72.3 124.4 L72.2 123.9 L71.9 123.5 L70.3 121.8 L69.8 121.6 L69.7 121.6 L69.4 121.5 L69.3 121.5 L68.6 121.0 L68.2 120.4 L68.0 120.2 L67.9 120.1 L67.4 120.0 L67.1 119.7 L66.9 119.7 L66.0 119.8 L65.7 119.7 L65.6 119.6 L65.4 119.4 L65.3 119.2 L65.2 119.2 L64.9 119.1 L64.8 119.0 L64.5 118.9 L64.2 118.9 L63.6 119.1 L63.5 119.1 L63.2 119.3 L63.0 119.3 L62.2 119.1 L62.0 118.9 L61.8 118.7 L61.6 118.5 L61.4 118.5 L61.0 118.4 L60.6 118.2 L60.5 118.2 L60.1 118.3 L60.0 118.3 L59.9 118.5 L59.7 118.4 L59.4 118.3 L59.1 118.3 L59.0 118.2 L58.9 118.1 L58.9 118.0 L58.8 117.9 L58.6 117.8 L58.5 117.5 L58.1 116.6 L58.2 116.5 L58.4 116.3 L58.4 116.3 L58.4 116.2 L58.5 116.1 L58.6 116.0 L58.6 115.7 L58.7 115.6 L58.9 115.3 L59.6 114.6 L59.7 114.4 L59.8 114.3 L59.8 114.2 L59.9 114.1 L60.3 114.0 L60.5 113.9 L60.7 113.8 L60.8 113.6 L60.8 113.3 L60.8 113.3 L60.6 113.1 L60.5 113.1 L60.5 112.9 L60.6 112.7 L60.6 112.6 L60.7 112.4 L60.9 112.4 L61.0 112.3 L61.1 112.2 L61.1 112.1 L60.9 112.0 L60.8 111.9 L60.7 111.8 L60.6 111.7 L60.5 111.5 L60.5 111.4 L60.5 111.3 L60.6 111.0 L60.6 110.9 L60.6 110.8 L60.5 110.7 L60.5 110.7 L60.5 110.6 L60.5 110.5 L60.5 110.4 L60.5 110.2 L60.6 110.1 L60.6 110.0 L60.8 109.9 L61.0 109.9 L61.1 109.8 L61.1 109.7 L61.1 109.7 L61.5 109.3 L61.7 109.3 L63.2 109.6 L63.3 109.6 L63.5 109.4 L63.6 109.4 L63.7 109.4 L63.9 109.4 L64.8 109.3 L64.9 109.2 L64.9 109.2 L64.9 109.1 L65.1 109.1 L65.4 109.2 L65.6 109.4 L65.8 109.4 L66.0 109.4 L66.2 109.3 L66.4 109.2 L66.7 109.3 L67.1 109.6 L67.4 110.1 L67.7 110.4 L68.3 110.5 L68.5 110.5 L68.5 110.5 L69.1 110.0 L69.2 109.9 L69.5 109.8 L69.7 109.8 L70.2 109.7 L70.9 109.7 L71.2 109.6 L71.5 109.5 L72.8 108.3 L73.1 108.0 L73.3 107.6 L73.3 107.3 L73.4 107.0 L73.2 103.1 L73.0 99.1 L72.8 95.7 Z" fill="#172033" fill-rule="evenodd"/></svg>
