<svg xmlns="http://www.w3.org/2000/svg" viewBox="0 0 320 200" role="img"><path d="M202.3 26.0 L202.3 27.5 L202.2 28.3 L202.0 28.9 L201.1 29.4 L200.9 29.5 L200.5 30.0 L200.3 30.1 L200.1 30.2 L200.1 30.4 L200.3 30.9 L200.2 31.1 L200.1 31.3 L199.9 31.5 L199.7 31.7 L199.6 31.9 L199.4 32.3 L199.1 32.4 L199.0 32.5 L199.3 33.0 L199.5 33.4 L199.7 33.6 L199.8 33.9 L199.7 34.3 L199.5 35.2 L199.3 35.6 L199.0 35.9 L198.7 36.1 L198.9 36.5 L198.8 37.0 L198.6 37.4 L198.5 38.0 L198.7 39.1 L198.6 39.7 L198.2 40.2 L198.6 40.9 L199.1 41.6 L199.2 41.4 L199.5 41.6 L199.7 41.9 L199.7 42.2 L199.6 42.6 L200.1 42.8 L200.5 44.0 L200.9 44.3 L200.9 44.5 L200.9 45.7 L200.9 45.9 L200.9 46.1 L201.0 46.2 L201.2 46.5 L201.2 46.7 L201.0 46.8 L200.8 47.3 L200.4 47.5 L200.0 47.6 L199.7 47.7 L199.5 47.9 L199.4 48.2 L199.2 48.5 L198.7 48.6 L199.0 48.8 L199.3 48.9 L199.5 49.1 L199.6 49.4 L199.6 49.4 L199.8 49.4 L200.3 49.4 L201.2 49.4 L201.7 49.3 L202.2 49.1 L202.6 48.6 L203.1 48.5 L203.5 48.4 L203.7 47.9 L203.9 47.8 L204.4 47.6 L204.9 47.6 L205.3 47.6 L206.1 47.9 L206.9 48.1 L207.7 48.0 L208.5 47.9 L208.8 47.7 L209.4 46.9 L210.3 46.6 L210.6 46.3 L211.0 46.1 L211.5 46.0 L211.7 46.0 L211.9 46.0 L212.4 45.9 L212.5 45.8 L212.8 45.6 L213.0 45.5 L213.1 45.6 L213.4 45.7 L213.5 45.7 L213.8 45.6 L213.9 45.6 L214.2 45.0 L214.4 44.3 L214.4 44.2 L214.8 44.1 L219.5 44.6 L219.9 44.7 L220.4 44.9 L220.7 45.3 L221.1 45.6 L221.6 45.6 L222.5 45.3 L223.0 45.2 L223.5 45.2 L224.5 45.5 L224.7 45.6 L224.8 45.8 L225.0 45.9 L225.3 46.0 L225.4 46.1 L225.4 46.3 L225.6 46.4 L225.9 46.5 L226.2 46.7 L226.3 47.0 L226.7 48.5 L226.8 49.2 L226.7 51.1 L226.9 51.7 L227.3 52.2 L228.5 52.8 L228.9 53.3 L229.2 54.6 L229.5 55.2 L229.9 55.7 L230.3 56.2 L230.8 56.6 L231.4 56.9 L231.5 57.1 L231.5 57.5 L231.3 57.7 L231.0 57.9 L230.8 58.1 L230.9 58.4 L231.0 59.5 L230.2 60.6 L229.0 61.6 L228.3 62.6 L228.2 63.9 L228.1 64.4 L226.2 66.0 L226.1 66.1 L226.0 66.2 L225.7 66.4 L224.4 66.4 L223.0 66.3 L221.8 66.4 L221.0 67.5 L221.3 68.0 L221.5 68.5 L221.4 69.0 L220.9 69.6 L219.0 70.6 L218.5 71.1 L217.6 73.1 L216.8 74.4 L216.7 75.0 L216.8 75.6 L217.0 76.4 L217.2 77.0 L217.3 78.8 L217.4 79.0 L217.7 79.0 L218.0 79.0 L218.2 79.3 L218.2 79.6 L217.8 80.0 L217.7 80.3 L217.8 80.7 L217.9 80.9 L217.9 81.2 L217.7 81.5 L217.4 81.8 L217.1 82.2 L216.0 83.7 L215.7 84.3 L215.7 85.0 L216.8 86.4 L217.0 86.5 L217.1 86.5 L217.5 86.3 L217.6 86.2 L217.6 86.0 L217.7 85.9 L217.9 85.8 L218.8 85.9 L219.1 86.0 L219.3 86.2 L219.4 86.4 L220.3 86.2 L221.3 86.3 L222.3 86.8 L222.9 87.4 L223.3 88.3 L223.6 89.3 L223.8 90.3 L223.9 91.2 L224.3 91.0 L224.7 90.9 L225.1 90.9 L225.6 91.0 L226.0 91.1 L226.4 91.0 L226.7 90.8 L227.2 90.8 L227.9 91.0 L228.8 91.4 L229.7 91.9 L230.2 92.6 L231.2 93.3 L231.5 93.7 L232.1 94.9 L232.3 95.6 L232.1 96.4 L231.1 98.6 L231.0 99.2 L231.0 99.8 L231.2 100.5 L231.3 101.2 L231.0 101.8 L230.6 102.2 L230.2 102.9 L230.0 103.4 L229.9 104.5 L229.7 105.0 L229.6 105.4 L230.4 107.3 L230.6 107.9 L230.7 108.2 L230.7 108.4 L230.5 108.8 L230.6 109.0 L230.7 109.3 L230.8 109.4 L231.3 109.9 L231.5 110.2 L231.5 110.4 L231.5 111.2 L231.4 111.7 L231.3 112.0 L231.1 112.2 L231.0 112.4 L230.7 112.6 L230.6 112.8 L230.5 113.1 L230.7 113.5 L231.0 113.9 L231.9 114.5 L232.0 115.0 L231.9 115.3 L231.5 115.5 L231.3 115.8 L231.2 116.0 L231.1 116.6 L230.8 117.3 L231.1 117.7 L231.4 118.1 L231.4 118.5 L230.6 118.6 L230.4 118.9 L230.3 119.1 L230.2 119.4 L229.9 119.6 L229.7 119.7 L229.2 119.9 L229.0 120.1 L229.1 120.2 L229.6 120.5 L229.9 121.5 L230.4 121.7 L230.9 121.7 L231.1 121.9 L230.5 122.3 L230.2 122.6 L230.0 123.1 L229.9 125.1 L229.8 125.8 L229.8 126.0 L230.0 127.1 L229.8 127.4 L229.1 127.8 L229.1 127.8 L226.2 128.9 L226.0 129.1 L225.9 129.3 L225.8 129.5 L225.8 129.8 L225.7 130.0 L225.7 130.2 L225.8 130.3 L226.0 130.5 L226.2 130.7 L226.1 130.9 L226.0 131.4 L225.8 132.7 L225.7 133.1 L225.5 133.3 L225.1 133.4 L225.0 133.5 L224.9 133.8 L225.1 134.2 L225.1 134.4 L224.8 134.8 L223.9 135.1 L223.6 135.3 L223.7 136.2 L225.5 137.8 L225.7 138.6 L225.6 138.5 L224.4 138.8 L224.2 138.9 L224.0 139.0 L223.5 139.5 L223.3 139.7 L223.2 139.9 L223.2 140.6 L223.0 140.8 L222.8 141.0 L222.5 141.2 L222.4 141.6 L222.3 142.0 L222.1 142.2 L221.9 142.2 L221.7 142.1 L221.3 141.9 L221.0 141.8 L220.9 141.9 L219.7 142.2 L219.5 142.2 L219.4 142.1 L219.3 141.6 L219.1 141.5 L218.8 141.5 L218.6 141.6 L218.1 141.8 L217.6 141.9 L217.0 141.9 L216.4 141.7 L216.0 141.4 L216.1 141.2 L216.1 140.3 L216.3 140.1 L216.8 139.8 L217.1 139.0 L217.4 138.9 L217.5 138.7 L217.2 138.2 L216.9 138.0 L216.7 137.9 L216.5 137.7 L216.4 137.0 L216.2 136.8 L215.8 136.3 L215.5 135.9 L214.9 134.7 L214.7 133.7 L214.5 133.2 L214.2 132.7 L213.8 132.4 L213.6 132.2 L213.5 132.1 L213.4 132.3 L212.9 133.1 L212.6 133.6 L212.6 133.8 L212.5 134.3 L212.4 134.6 L212.2 134.9 L210.3 136.7 L210.2 137.0 L210.1 137.5 L210.0 137.7 L209.7 137.9 L209.2 138.1 L208.9 138.2 L208.6 138.4 L208.2 138.9 L208.0 139.1 L207.2 139.7 L207.0 139.9 L206.8 140.1 L206.8 140.4 L206.7 140.6 L206.4 140.7 L206.3 140.7 L206.1 140.4 L205.9 140.3 L205.5 140.4 L205.4 140.4 L204.9 140.3 L204.4 140.5 L204.0 140.4 L199.6 138.8 L199.4 138.7 L199.1 138.8 L198.6 139.1 L198.3 139.1 L197.8 139.0 L196.2 138.3 L195.6 138.2 L195.3 138.3 L194.8 138.7 L194.5 139.0 L194.2 139.0 L194.1 138.9 L194.2 138.6 L194.5 138.4 L194.6 138.2 L194.7 138.0 L194.8 137.8 L194.8 137.6 L194.9 137.3 L195.0 137.1 L195.2 136.9 L195.2 136.6 L195.0 136.6 L194.9 136.6 L194.7 136.4 L194.6 136.2 L194.5 135.5 L194.3 135.2 L193.8 134.5 L193.6 134.3 L193.0 134.6 L192.6 134.6 L192.5 134.2 L192.5 133.9 L192.4 133.7 L192.1 133.4 L192.0 133.2 L192.1 133.1 L192.2 132.9 L192.2 132.8 L192.3 132.6 L192.3 132.5 L191.9 132.3 L191.8 132.2 L191.8 132.1 L191.8 131.9 L191.9 131.9 L191.8 131.4 L191.7 131.2 L191.3 130.8 L191.2 130.7 L190.9 130.1 L190.4 128.3 L190.1 127.7 L189.7 127.4 L188.6 127.1 L188.5 127.0 L186.9 125.8 L185.8 125.4 L184.6 125.4 L184.3 125.5 L183.1 126.3 L182.9 126.5 L182.8 126.6 L182.7 126.9 L182.6 127.2 L182.6 127.4 L182.5 127.7 L182.2 127.9 L181.7 127.7 L181.3 127.2 L181.0 126.9 L180.7 126.8 L180.6 127.2 L180.8 129.9 L181.0 130.9 L181.5 131.7 L182.5 132.1 L182.4 132.5 L181.9 133.2 L181.8 133.6 L181.7 134.0 L181.9 135.0 L181.7 135.7 L181.4 136.6 L181.2 137.4 L181.5 138.0 L171.6 140.1 L170.8 140.0 L170.1 139.5 L169.2 138.4 L168.8 138.1 L168.5 137.9 L167.7 138.3 L166.7 138.7 L165.8 138.8 L165.2 139.1 L164.4 139.8 L164.0 140.1 L163.5 140.0 L163.1 139.8 L162.2 139.1 L162.1 138.9 L162.0 138.7 L161.8 138.5 L161.5 138.3 L160.2 138.0 L159.3 137.9 L159.2 137.9 L159.0 138.4 L159.6 139.9 L159.7 140.4 L159.5 141.8 L159.5 142.3 L159.7 142.8 L160.3 143.8 L160.5 144.3 L160.7 145.0 L160.7 145.5 L160.6 146.0 L160.3 146.6 L158.5 149.6 L158.5 149.8 L158.2 150.7 L158.3 151.3 L158.8 151.3 L159.8 150.5 L160.5 150.3 L161.0 150.5 L161.4 151.0 L162.3 152.2 L164.1 154.2 L164.5 154.8 L164.5 155.3 L163.9 155.7 L163.3 155.8 L163.0 155.7 L162.7 155.9 L162.4 156.5 L162.3 157.0 L162.2 158.7 L162.2 158.8 L162.2 158.9 L162.5 159.1 L162.7 159.3 L164.1 159.9 L164.6 160.2 L165.6 161.0 L166.5 161.4 L167.7 161.8 L168.7 162.2 L168.9 163.0 L168.6 163.5 L167.5 164.4 L167.2 165.0 L165.7 168.3 L165.7 168.9 L165.9 169.4 L166.4 169.7 L167.0 169.9 L167.5 170.2 L167.7 170.7 L167.5 171.3 L167.0 171.8 L166.5 172.2 L166.1 172.3 L166.0 172.4 L165.5 172.4 L164.1 171.9 L163.6 171.9 L162.3 172.1 L161.7 171.9 L161.3 171.4 L159.3 168.2 L158.4 167.5 L157.1 167.3 L156.5 167.8 L156.0 168.6 L155.4 169.3 L154.5 169.6 L153.5 169.8 L152.7 170.3 L151.9 170.9 L151.1 171.5 L150.4 172.0 L150.0 172.8 L148.3 177.3 L148.0 178.0 L147.5 177.7 L146.9 177.3 L145.6 176.0 L145.3 174.4 L145.0 174.0 L144.9 173.5 L144.8 173.0 L144.7 172.5 L144.2 171.9 L143.4 171.3 L140.3 168.7 L136.3 165.9 L136.1 164.8 L136.1 164.4 L136.3 164.0 L136.4 163.4 L136.3 162.9 L136.0 162.5 L135.7 162.2 L135.1 161.8 L134.4 161.3 L134.0 161.1 L133.9 160.6 L132.9 159.6 L132.6 159.2 L132.2 158.7 L131.5 158.0 L128.8 155.8 L125.7 153.3 L124.4 152.2 L121.2 149.9 L119.7 148.6 L117.8 147.2 L113.3 141.7 L112.8 140.8 L113.3 141.1 L114.0 141.9 L114.5 142.1 L115.1 142.2 L115.4 142.0 L115.7 141.6 L116.2 141.1 L116.1 141.5 L116.0 141.7 L116.0 142.0 L116.0 142.3 L116.2 142.3 L116.3 142.2 L116.3 142.1 L116.4 142.0 L116.4 142.4 L116.5 142.9 L116.7 143.2 L117.1 143.0 L117.9 143.3 L118.1 143.4 L118.1 143.4 L118.5 144.0 L118.6 144.5 L118.8 144.5 L118.8 144.3 L118.9 144.2 L119.1 144.2 L119.3 144.4 L119.3 144.3 L119.3 144.2 L119.3 144.2 L119.5 144.2 L119.5 145.1 L119.6 145.4 L119.8 145.2 L120.0 145.1 L120.2 145.0 L120.5 145.1 L120.4 145.4 L120.5 145.5 L120.7 145.4 L121.0 145.2 L121.2 145.0 L121.4 144.6 L121.5 144.4 L121.9 144.2 L122.4 144.1 L122.9 144.1 L123.2 144.2 L123.9 144.1 L124.1 144.0 L124.2 143.7 L123.8 143.4 L123.6 143.3 L123.6 142.9 L123.1 142.6 L122.5 142.4 L122.2 142.0 L122.0 142.0 L122.2 142.4 L122.5 143.7 L122.2 143.6 L122.0 143.5 L121.9 143.3 L121.8 143.2 L121.6 143.1 L121.3 142.6 L121.1 142.5 L120.9 142.5 L120.6 142.3 L120.4 142.3 L120.3 142.4 L120.3 142.5 L120.3 142.7 L120.3 142.8 L120.2 143.0 L120.0 143.2 L119.9 143.5 L119.8 143.7 L119.4 143.5 L119.1 143.3 L119.2 143.1 L119.1 142.6 L119.1 142.3 L119.4 142.2 L119.7 142.2 L119.9 142.2 L120.0 142.0 L119.7 141.7 L119.0 141.5 L118.4 141.4 L117.9 141.5 L117.4 140.3 L117.3 140.1 L117.1 139.9 L116.9 139.9 L116.9 140.2 L116.8 140.2 L116.4 140.4 L116.4 140.4 L115.8 140.3 L115.2 140.7 L114.6 141.3 L114.0 141.5 L113.8 141.3 L113.5 141.1 L113.4 140.8 L113.3 140.5 L113.4 140.4 L113.7 140.2 L113.7 140.1 L113.9 140.0 L113.7 139.9 L113.4 139.7 L113.3 139.8 L113.3 139.5 L113.3 139.3 L113.3 139.2 L113.2 139.1 L112.9 139.0 L112.8 139.1 L112.7 139.1 L112.6 139.3 L112.9 139.9 L113.0 140.3 L112.8 140.6 L112.4 140.4 L111.4 139.2 L110.9 138.9 L111.2 139.2 L111.7 139.9 L111.9 140.3 L111.4 139.9 L110.7 139.2 L110.1 138.5 L109.9 137.9 L109.9 137.7 L109.7 137.2 L109.6 134.9 L109.4 134.5 L106.9 132.1 L106.2 131.7 L105.5 130.8 L105.1 130.5 L105.2 130.4 L105.3 130.2 L104.7 130.0 L104.4 129.6 L104.1 128.7 L103.1 127.6 L102.9 127.4 L102.8 127.3 L102.5 127.1 L102.3 126.9 L102.3 126.8 L102.0 126.7 L102.1 126.4 L102.3 126.3 L102.4 126.3 L102.6 126.8 L103.0 127.2 L103.6 127.3 L104.1 127.3 L104.0 127.4 L104.0 127.4 L104.0 127.4 L103.9 127.5 L104.2 127.6 L104.4 127.5 L104.6 126.9 L104.8 126.9 L104.9 127.5 L104.8 127.5 L104.7 127.6 L104.6 127.7 L104.6 127.9 L104.7 128.0 L104.9 127.9 L105.0 127.7 L104.9 127.6 L106.2 127.6 L106.9 127.8 L107.3 128.2 L107.2 128.7 L106.6 129.2 L106.9 129.5 L107.1 129.6 L107.2 129.7 L107.8 129.7 L107.9 129.8 L108.0 129.9 L108.0 130.3 L108.0 130.5 L108.5 130.9 L108.5 131.0 L108.7 131.3 L108.8 131.5 L108.9 131.3 L109.0 131.2 L109.3 131.0 L109.4 131.0 L109.3 130.5 L109.2 130.0 L108.9 129.7 L108.7 129.7 L108.4 129.4 L107.8 128.9 L107.7 128.7 L108.0 128.2 L108.2 128.1 L108.2 127.9 L107.4 126.5 L106.9 126.0 L106.6 126.3 L106.3 126.0 L106.1 125.9 L106.0 126.2 L106.0 126.4 L106.1 126.9 L105.7 126.6 L105.0 125.4 L104.6 125.2 L104.4 125.4 L104.3 125.7 L104.2 126.0 L104.2 126.1 L103.9 126.2 L103.8 126.4 L103.7 126.6 L103.8 126.9 L103.6 126.8 L103.4 126.6 L103.2 126.6 L102.9 126.6 L103.2 126.1 L103.1 125.8 L102.6 125.4 L102.0 125.8 L101.6 125.6 L101.4 125.1 L101.4 124.4 L101.4 124.1 L101.5 123.7 L101.5 123.5 L101.5 122.4 L101.5 122.2 L101.2 121.6 L101.2 121.3 L101.2 120.5 L101.2 120.3 L100.8 119.3 L100.2 118.5 L98.8 117.0 L95.7 112.7 L95.4 112.2 L95.2 111.6 L95.0 111.1 L94.9 110.6 L95.2 111.2 L95.4 112.0 L95.8 112.4 L96.2 112.9 L96.6 112.9 L97.0 113.1 L97.3 113.4 L97.6 114.2 L98.2 114.8 L98.3 115.2 L98.4 115.5 L99.2 116.5 L99.6 116.7 L99.7 116.9 L100.9 117.8 L101.1 117.9 L101.9 118.1 L102.1 121.2 L102.3 121.6 L102.6 121.5 L102.6 121.2 L102.4 120.9 L102.5 120.7 L102.7 120.6 L102.9 120.7 L103.0 120.9 L103.1 121.1 L103.4 120.7 L104.0 120.4 L104.7 120.2 L105.3 120.1 L105.1 120.5 L105.1 120.9 L105.3 121.3 L105.6 121.5 L105.8 120.7 L105.8 120.2 L105.6 119.9 L106.4 119.8 L108.5 120.1 L109.2 119.9 L108.2 119.6 L107.8 119.3 L107.5 118.8 L107.3 117.8 L107.2 117.3 L107.3 116.9 L107.1 116.8 L106.6 116.5 L106.5 116.5 L106.2 116.5 L106.0 116.6 L106.0 116.8 L106.1 117.1 L106.1 117.4 L106.0 117.5 L105.9 117.6 L105.3 118.4 L104.7 118.8 L104.0 119.0 L103.2 119.1 L103.1 119.1 L102.9 119.2 L102.7 119.2 L102.6 119.1 L102.4 118.9 L102.4 118.5 L102.2 118.1 L102.2 117.9 L102.2 117.5 L102.1 117.3 L101.9 117.3 L101.6 117.3 L101.5 117.2 L101.5 116.8 L101.7 116.6 L102.0 116.4 L102.5 116.4 L102.7 116.2 L102.7 115.9 L102.6 115.5 L102.4 115.3 L102.4 115.2 L102.6 115.1 L103.2 115.1 L103.4 115.0 L103.6 114.7 L103.7 114.3 L104.1 113.5 L104.0 113.1 L103.6 112.2 L103.7 112.1 L103.7 112.0 L103.6 111.9 L103.4 111.7 L103.4 112.2 L103.6 113.5 L103.5 113.8 L103.3 114.0 L103.1 114.2 L102.8 114.3 L102.6 114.2 L102.4 113.9 L102.2 113.8 L101.8 113.9 L101.5 114.3 L101.3 114.6 L101.1 114.8 L99.9 115.0 L99.5 115.0 L99.2 114.7 L99.1 114.1 L99.2 113.6 L99.2 113.4 L99.2 113.4 L99.0 113.2 L98.9 113.1 L98.8 113.1 L98.7 113.2 L98.4 113.3 L98.4 113.4 L98.3 113.5 L97.9 113.4 L97.6 113.2 L96.7 112.6 L96.3 112.4 L96.0 112.3 L95.8 111.8 L95.7 111.3 L95.9 110.9 L95.8 110.8 L95.8 110.7 L95.7 110.6 L96.2 110.2 L96.1 109.6 L95.7 109.0 L95.2 108.7 L95.5 109.4 L95.4 110.1 L95.3 110.3 L95.1 110.3 L95.0 110.0 L94.9 108.5 L94.4 107.4 L92.0 104.2 L92.6 104.8 L93.0 105.0 L93.3 104.9 L93.0 104.7 L93.1 104.4 L93.3 104.1 L93.5 103.9 L93.7 103.9 L93.4 103.8 L92.6 104.3 L92.2 104.2 L92.1 103.8 L91.9 103.1 L91.7 102.7 L91.5 102.9 L91.3 102.9 L91.1 102.0 L90.9 101.7 L90.6 101.0 L89.9 99.6 L89.4 98.6 L89.0 97.3 L88.3 96.3 L87.7 94.5 L88.0 94.0 L88.2 94.2 L88.0 94.6 L88.3 94.9 L89.1 95.0 L88.9 95.2 L88.9 95.4 L89.0 95.5 L89.1 95.7 L89.6 95.7 L90.0 96.3 L90.2 97.1 L90.3 98.2 L90.4 98.5 L90.7 98.8 L91.0 98.9 L91.2 99.1 L91.3 99.5 L91.4 99.8 L91.8 99.9 L91.6 99.5 L91.6 99.1 L91.7 98.7 L91.8 98.2 L91.9 97.8 L92.3 97.8 L92.7 97.9 L93.1 97.9 L93.1 97.7 L92.9 97.6 L92.6 97.4 L92.5 97.2 L92.5 96.9 L92.7 96.7 L92.9 96.7 L93.5 97.0 L93.7 97.4 L93.9 97.8 L94.0 98.2 L94.2 98.7 L95.1 99.5 L95.4 99.9 L95.4 100.5 L95.2 101.3 L95.4 101.7 L95.6 101.7 L95.7 101.2 L95.7 99.7 L95.9 99.2 L96.5 98.6 L96.6 98.2 L96.6 97.8 L96.5 97.7 L96.6 97.6 L96.7 97.4 L96.9 97.3 L97.3 97.2 L97.4 97.1 L97.5 96.8 L97.5 96.5 L97.5 96.3 L97.8 96.2 L98.1 96.9 L98.1 96.3 L97.8 95.9 L97.6 95.5 L97.8 94.8 L99.3 93.5 L99.7 92.6 L101.9 90.2 L102.6 89.2 L102.9 88.2 L102.9 84.9 L103.1 84.4 L103.6 83.3 L103.8 82.8 L103.8 82.5 L103.9 82.0 L103.9 81.7 L103.9 81.5 L103.6 80.8 L103.6 80.5 L103.7 80.2 L103.8 80.0 L104.0 79.7 L104.1 79.5 L104.1 79.3 L104.0 79.1 L103.9 78.9 L103.9 78.3 L103.0 73.6 L102.7 72.8 L102.8 72.6 L102.9 71.9 L103.0 71.8 L103.1 71.7 L103.9 71.0 L104.1 70.9 L104.4 71.1 L104.6 71.6 L104.7 72.2 L104.7 72.7 L104.4 73.7 L104.5 73.9 L104.6 74.2 L104.6 74.4 L104.3 74.5 L104.2 74.6 L104.2 74.9 L104.2 75.1 L104.2 75.4 L104.5 75.2 L104.6 74.9 L104.7 74.8 L105.0 74.7 L105.8 74.7 L106.0 74.8 L106.1 75.1 L106.8 75.7 L107.0 76.2 L107.1 77.2 L107.2 77.3 L107.4 77.4 L107.6 77.4 L107.7 77.2 L107.5 76.1 L107.6 75.6 L107.8 75.2 L109.1 75.5 L109.4 75.7 L109.5 76.0 L109.7 76.8 L109.9 77.1 L110.0 76.9 L110.7 76.2 L110.9 76.0 L111.3 76.1 L111.5 76.2 L111.8 76.7 L113.0 76.5 L113.9 77.4 L114.7 78.7 L115.5 79.3 L114.6 77.6 L114.2 77.2 L114.2 76.8 L114.7 76.5 L115.3 76.6 L115.7 76.9 L116.0 76.7 L116.5 76.1 L116.7 75.9 L117.6 75.3 L117.9 75.2 L118.3 75.2 L119.1 75.5 L119.5 75.6 L119.8 75.5 L120.8 75.2 L120.8 75.0 L119.6 75.0 L119.1 74.9 L118.6 74.5 L118.2 74.8 L117.8 75.0 L117.3 75.1 L115.3 75.3 L115.0 75.4 L113.9 75.0 L113.6 74.8 L113.2 74.4 L113.0 74.3 L112.2 74.3 L111.9 74.2 L110.7 73.3 L109.9 72.8 L109.5 72.4 L109.4 71.9 L109.2 71.9 L109.1 72.3 L108.9 72.3 L108.6 72.3 L108.4 72.4 L107.9 72.6 L107.7 72.6 L107.5 72.3 L107.3 71.5 L107.1 71.3 L106.7 70.9 L105.5 68.2 L105.2 67.7 L104.5 66.9 L104.0 66.7 L103.6 66.7 L103.2 66.7 L102.9 66.3 L102.9 66.0 L103.0 64.6 L103.1 64.3 L103.7 64.2 L104.2 64.1 L104.5 64.0 L105.0 63.7 L105.3 63.6 L105.6 63.6 L105.8 63.6 L106.1 63.7 L106.4 63.8 L106.6 63.7 L106.9 63.5 L107.4 63.3 L107.8 63.0 L108.2 62.8 L108.7 62.9 L109.1 63.3 L109.3 63.9 L109.2 64.4 L108.8 64.6 L107.7 64.4 L107.2 64.5 L106.8 65.0 L107.4 64.8 L108.1 64.8 L108.7 65.1 L108.9 65.8 L109.2 65.7 L109.4 65.5 L109.5 65.3 L109.6 65.0 L109.9 65.4 L109.9 66.1 L109.8 66.8 L109.6 67.2 L109.8 67.9 L110.0 68.1 L110.4 68.2 L110.3 67.8 L110.3 67.3 L110.4 66.8 L110.7 66.7 L110.8 66.4 L111.1 65.4 L111.3 65.0 L110.9 64.5 L110.8 63.9 L110.9 62.7 L110.7 59.8 L109.8 57.4 L109.7 56.8 L109.6 56.4 L109.4 56.2 L109.3 55.9 L109.4 55.4 L109.7 54.9 L110.0 54.6 L110.4 54.5 L110.8 54.5 L111.3 54.4 L111.5 54.1 L111.7 53.8 L111.9 53.5 L112.4 53.4 L113.8 53.5 L114.2 53.6 L114.6 54.1 L114.8 55.2 L115.0 55.7 L115.2 55.3 L115.3 55.0 L116.1 55.1 L116.4 55.2 L116.9 55.5 L117.5 56.3 L117.9 56.6 L118.4 56.8 L118.8 56.8 L119.2 56.7 L119.5 56.5 L119.6 56.1 L119.6 55.4 L119.7 55.0 L120.2 55.0 L120.9 54.9 L123.6 54.9 L130.5 54.9 L131.1 54.9 L138.6 54.9 L144.2 54.9 L146.0 55.0 L153.5 55.0 L153.5 48.5 L153.4 41.9 L153.4 36.7 L153.4 35.4 L153.3 28.9 L153.3 26.9 L153.1 25.9 L153.3 25.6 L153.4 25.4 L153.4 25.0 L153.4 24.7 L153.5 24.3 L153.6 24.0 L153.8 23.8 L154.0 23.4 L153.9 23.1 L153.8 22.8 L153.9 22.5 L160.5 22.3 L161.2 22.1 L161.5 22.0 L161.8 22.0 L162.1 22.2 L162.6 22.6 L163.9 23.0 L164.3 23.1 L165.1 22.9 L167.3 23.0 L169.2 22.8 L171.1 23.0 L172.5 22.8 L173.0 22.9 L174.0 23.0 L175.1 23.1 L175.6 23.0 L176.5 22.7 L177.0 22.6 L177.3 22.5 L177.8 22.2 L178.1 22.2 L178.4 22.3 L179.2 22.8 L179.6 22.9 L181.0 22.6 L182.0 22.7 L183.4 23.1 L183.8 23.3 L184.4 23.1 L184.8 23.4 L185.4 23.6 L188.7 24.1 L189.2 24.0 L189.6 23.8 L189.9 23.6 L190.2 23.5 L190.6 23.6 L191.2 23.8 L191.7 23.9 L191.9 23.6 L192.2 23.8 L192.5 23.8 L192.8 23.7 L193.1 23.5 L193.8 23.7 L194.3 23.8 L194.5 23.7 L194.9 23.6 L195.3 23.6 L196.0 24.0 L197.0 23.8 L197.3 23.7 L197.8 23.2 L198.1 23.0 L198.3 22.9 L199.0 23.0 L199.7 23.1 L200.1 23.4 L200.3 23.5 L200.5 23.5 L200.8 23.3 L201.0 23.3 L201.3 23.4 L201.7 23.7 L202.1 24.0 L202.3 24.3 L202.4 24.7 L202.3 25.4 L202.3 26.0 Z" fill="#172033" fill-rule="evenodd"/></svg>
