<svg xmlns="http://www.w3.org/2000/svg" viewBox="0 0 320 200" role="img"><path d="M158.0 115.4 L160.4 120.4 L161.0 124.7 L159.9 139.2 L159.2 141.3 L157.9 143.4 L155.9 147.9 L156.0 150.2 L157.7 155.0 L157.0 156.0 L155.4 156.7 L154.5 158.4 L154.2 160.7 L154.1 163.1 L152.4 165.8 L139.8 172.3 L139.8 170.1 L137.2 171.3 L135.3 173.0 L134.1 175.2 L133.7 178.0 L130.9 177.5 L128.3 176.7 L125.7 175.6 L123.4 174.2 L120.4 176.8 L115.3 177.8 L109.8 177.6 L105.4 176.4 L115.7 169.9 L117.5 168.1 L118.6 163.8 L117.7 160.3 L116.3 156.9 L115.5 152.8 L117.1 146.2 L123.2 134.6 L123.4 129.5 L140.6 108.9 L146.8 107.9 L153.6 108.8 L160.0 112.7 L159.8 113.6 L158.0 115.4 Z M212.7 44.2 L207.5 42.7 L202.5 44.1 L197.6 46.6 L192.5 48.5 L193.5 46.6 L195.5 42.0 L196.5 40.2 L195.6 40.0 L192.5 40.2 L192.9 39.0 L194.7 36.1 L201.1 38.0 L204.9 32.9 L208.1 25.9 L212.7 22.0 L214.6 26.8 L214.1 32.2 L212.9 38.1 L212.7 44.2 Z" fill="#172033" fill-rule="evenodd"/></svg>
