<svg xmlns="http://www.w3.org/2000/svg" viewBox="0 0 320 200" role="img"><path d="M105.1 125.3 L104.8 125.1 L104.5 124.9 L104.4 124.6 L104.5 124.1 L104.6 124.1 L105.0 124.1 L105.1 124.1 L105.1 124.0 L105.1 123.9 L105.1 123.8 L105.9 123.0 L106.4 122.1 L106.8 121.7 L107.2 121.4 L107.8 121.4 L108.7 121.6 L109.2 121.4 L109.2 121.2 L107.5 121.3 L106.6 121.2 L106.3 120.9 L106.3 120.8 L106.6 120.6 L106.7 120.4 L106.7 120.1 L106.9 119.5 L107.1 118.9 L106.4 119.5 L106.1 120.2 L106.0 121.0 L105.7 121.8 L105.0 121.5 L104.7 121.3 L104.5 121.0 L104.8 120.9 L104.8 120.6 L104.7 119.9 L104.8 119.9 L104.8 119.7 L104.9 119.5 L104.9 119.4 L104.9 119.3 L104.6 119.1 L104.5 119.1 L104.4 118.5 L104.4 117.7 L104.6 117.1 L105.1 117.5 L105.0 116.9 L105.0 116.6 L105.1 116.4 L104.9 116.4 L104.7 116.6 L104.5 116.7 L104.2 116.7 L103.8 116.7 L103.6 116.9 L103.5 117.2 L103.2 118.5 L103.0 118.7 L102.4 118.4 L102.1 118.3 L102.0 118.2 L102.2 117.7 L101.9 117.5 L101.6 117.0 L101.4 116.5 L101.4 116.0 L101.6 115.4 L102.2 114.6 L102.4 114.0 L102.2 114.0 L101.5 114.5 L100.4 114.6 L99.5 114.3 L99.1 113.7 L98.9 112.9 L98.9 112.4 L99.2 112.0 L99.4 111.7 L99.6 111.3 L99.8 110.8 L99.8 110.3 L99.6 110.3 L99.0 111.6 L98.6 112.1 L98.1 112.3 L97.7 112.0 L97.3 111.5 L97.0 110.9 L96.9 110.3 L96.1 110.7 L95.4 111.1 L94.4 111.6 L93.6 111.9 L93.6 111.9 L93.4 112.1 L93.1 112.1 L93.0 112.0 L93.1 111.7 L93.2 111.7 L93.4 111.6 L93.6 111.5 L94.5 110.2 L95.1 109.5 L95.4 108.8 L95.9 108.1 L96.0 107.7 L95.9 106.0 L95.9 105.8 L96.1 105.7 L96.5 105.5 L96.5 105.3 L96.7 105.0 L97.2 104.8 L97.6 104.6 L97.7 104.1 L97.1 104.4 L96.8 104.5 L96.5 104.3 L95.2 102.9 L95.1 102.5 L95.0 102.6 L95.0 102.6 L94.8 102.7 L95.1 103.6 L95.2 104.4 L94.9 105.0 L94.0 105.4 L92.9 105.3 L92.4 104.7 L92.3 103.8 L92.6 102.9 L93.8 101.5 L94.3 100.5 L94.2 99.6 L93.9 99.4 L93.8 99.8 L93.8 100.3 L93.7 100.6 L93.4 100.8 L92.8 101.6 L92.4 101.7 L92.5 101.9 L92.3 101.9 L91.4 102.3 L91.2 102.3 L90.6 102.3 L90.1 102.2 L89.7 102.0 L89.5 101.8 L89.3 101.5 L88.9 101.0 L88.5 100.6 L88.1 100.4 L87.3 99.9 L87.1 99.7 L86.8 99.0 L86.5 98.9 L86.0 98.9 L85.8 98.8 L85.6 98.6 L85.0 98.0 L84.6 97.9 L84.3 97.8 L84.0 97.7 L83.6 97.3 L83.5 96.6 L83.9 95.8 L84.6 95.4 L85.4 95.9 L85.2 95.6 L84.8 95.1 L84.4 94.7 L84.3 94.8 L84.0 95.2 L83.6 95.0 L83.3 94.7 L83.4 94.5 L84.0 94.3 L84.5 93.7 L85.2 92.4 L84.8 92.6 L84.5 92.8 L84.0 93.4 L83.6 93.6 L82.9 94.0 L82.7 94.1 L82.6 94.5 L82.7 95.8 L82.6 96.1 L82.4 96.4 L82.0 96.6 L81.5 96.7 L80.9 96.5 L80.4 96.0 L80.1 95.5 L80.1 94.9 L80.6 94.5 L81.3 93.9 L81.7 93.4 L81.3 93.0 L81.2 93.4 L80.9 93.6 L80.4 93.7 L80.0 93.7 L80.0 94.4 L79.5 94.9 L78.9 95.0 L78.6 94.8 L78.5 94.6 L78.3 94.4 L78.1 94.1 L78.0 93.6 L78.1 93.4 L78.3 93.3 L78.4 93.1 L78.3 92.9 L78.1 92.8 L78.0 92.9 L77.9 93.0 L77.8 93.1 L77.5 93.5 L76.9 93.2 L75.2 91.6 L74.9 91.5 L74.5 91.4 L74.1 91.4 L73.7 91.5 L73.3 91.6 L72.9 91.4 L72.4 92.0 L72.1 91.7 L72.0 91.0 L72.0 90.3 L72.2 89.4 L72.2 89.0 L72.1 88.7 L71.9 88.5 L71.7 88.4 L69.9 86.6 L69.6 86.0 L69.6 85.4 L69.6 84.6 L69.7 84.0 L70.0 83.6 L70.0 83.6 L70.0 83.6 L69.5 83.6 L69.2 83.9 L69.0 84.1 L68.6 84.4 L68.3 84.5 L67.8 84.6 L67.3 84.5 L67.1 84.2 L66.9 84.2 L66.7 84.5 L66.5 84.4 L66.4 84.0 L66.3 83.5 L66.3 83.0 L66.4 82.6 L66.7 81.8 L67.0 81.9 L67.4 81.6 L67.8 81.2 L68.3 80.9 L67.6 80.9 L67.3 80.5 L67.4 80.0 L67.7 78.4 L67.9 78.0 L68.3 78.2 L68.4 78.2 L68.5 77.7 L68.7 77.5 L68.9 77.4 L69.1 77.3 L69.4 76.0 L70.1 74.6 L70.5 74.5 L70.7 74.1 L70.8 73.6 L70.6 73.3 L70.7 73.1 L71.0 72.7 L70.4 72.9 L70.4 73.1 L70.5 73.4 L70.4 73.9 L69.4 74.5 L69.3 74.6 L68.9 74.9 L68.4 75.7 L68.0 76.4 L67.7 77.3 L67.3 78.0 L66.5 78.9 L65.7 79.6 L65.3 79.8 L65.1 79.4 L65.2 79.0 L65.4 78.7 L65.6 78.5 L65.9 78.3 L65.7 78.3 L65.5 78.3 L65.4 78.4 L65.1 78.5 L64.8 78.2 L65.1 77.0 L65.3 76.5 L65.6 76.1 L65.8 75.9 L66.2 75.7 L66.4 75.5 L66.6 75.3 L66.6 75.1 L66.7 75.0 L66.5 75.0 L66.3 74.8 L65.9 75.3 L64.7 76.3 L64.3 76.8 L64.0 77.8 L63.6 78.2 L63.3 77.6 L63.0 77.3 L62.7 76.9 L62.6 76.2 L63.0 76.2 L63.3 76.0 L63.6 75.6 L63.8 75.2 L63.9 74.8 L64.0 74.4 L64.0 74.0 L64.0 73.9 L64.1 73.7 L64.1 73.6 L64.2 73.3 L63.6 73.6 L63.5 73.9 L63.4 74.1 L63.2 74.3 L62.4 74.6 L62.2 74.6 L62.2 74.3 L62.2 74.0 L62.3 73.7 L62.4 73.5 L62.3 73.2 L62.2 73.0 L62.4 72.7 L62.6 72.5 L62.1 72.4 L61.9 72.1 L62.0 71.7 L62.2 71.3 L62.6 71.1 L63.1 70.9 L63.6 70.8 L64.1 70.7 L64.4 70.6 L64.6 70.2 L64.7 69.8 L64.8 69.6 L65.3 69.5 L65.9 68.8 L66.3 68.6 L66.1 68.4 L66.0 68.3 L65.7 67.8 L65.7 68.1 L65.6 68.3 L65.5 68.5 L65.2 68.6 L65.1 68.6 L64.6 68.8 L64.5 68.9 L64.4 69.4 L64.1 69.9 L63.7 70.1 L63.2 70.0 L63.0 70.1 L62.9 70.1 L62.7 70.2 L62.4 70.2 L62.6 69.6 L62.4 69.3 L62.2 69.2 L62.0 69.5 L61.2 70.5 L60.3 70.4 L59.8 68.7 L59.1 68.8 L59.6 69.3 L59.7 69.8 L59.5 70.3 L59.3 70.7 L58.7 70.3 L58.4 70.2 L57.9 70.2 L58.9 70.9 L59.2 71.2 L59.3 71.7 L59.0 72.2 L58.5 72.8 L58.0 73.1 L57.7 73.2 L57.7 73.1 L57.5 73.1 L57.4 73.1 L57.3 73.2 L57.4 73.3 L57.5 73.6 L57.5 73.8 L57.5 74.7 L57.7 74.9 L57.9 75.0 L58.2 75.2 L58.3 75.5 L58.3 75.7 L57.9 76.2 L57.4 76.0 L56.4 75.8 L55.9 75.5 L55.3 74.9 L54.8 74.2 L54.5 73.6 L54.5 73.1 L54.7 72.5 L55.1 72.0 L55.3 71.9 L55.9 71.7 L56.0 71.6 L56.0 71.4 L56.1 71.2 L56.2 71.0 L56.4 70.9 L56.4 70.7 L56.2 70.8 L56.2 70.7 L56.2 70.6 L56.2 70.5 L57.0 69.7 L57.0 69.7 L57.9 68.6 L60.7 63.4 L61.2 61.2 L61.7 60.1 L64.5 56.0 L65.0 55.5 L65.7 55.1 L66.9 55.0 L69.2 55.2 L70.4 55.0 L72.9 53.7 L75.6 52.2 L75.9 52.0 L76.1 51.7 L76.5 51.0 L76.7 50.7 L77.0 50.6 L77.1 50.6 L77.3 50.7 L79.7 50.8 L80.3 50.8 L80.6 50.8 L80.9 51.0 L81.1 51.2 L81.4 51.4 L81.9 51.5 L82.2 51.4 L83.1 51.3 L83.6 51.3 L84.8 51.5 L85.3 51.3 L86.6 50.6 L86.8 50.4 L87.4 50.7 L88.0 50.7 L88.5 50.4 L88.8 49.8 L88.9 49.6 L89.0 48.9 L88.8 48.6 L88.9 48.5 L89.3 48.5 L89.6 48.6 L89.7 49.2 L89.9 49.3 L90.3 49.5 L90.4 49.6 L90.3 49.9 L90.5 50.1 L91.0 50.1 L91.8 50.0 L92.5 49.7 L92.9 49.4 L93.1 49.0 L93.2 47.8 L93.2 47.3 L92.8 44.0 L92.9 42.8 L93.1 41.6 L93.1 41.1 L92.8 40.6 L92.5 40.5 L91.5 40.3 L91.0 40.1 L90.7 39.9 L90.1 39.2 L89.9 38.9 L89.8 38.7 L89.7 38.6 L88.9 38.3 L88.6 38.1 L88.1 37.6 L87.5 37.2 L87.0 37.1 L86.2 37.0 L86.0 36.8 L86.1 36.5 L86.1 35.9 L86.2 35.6 L86.8 34.9 L88.5 34.1 L89.2 33.6 L89.8 33.3 L90.6 33.1 L91.0 33.2 L90.7 33.9 L92.6 33.8 L93.4 33.5 L93.9 32.8 L94.0 32.1 L94.2 31.5 L94.3 31.2 L94.2 30.4 L94.2 30.0 L94.3 29.8 L94.8 28.6 L94.9 28.1 L94.8 27.6 L94.5 27.0 L93.0 25.3 L92.8 24.5 L92.7 23.9 L93.0 22.0 L102.2 22.3 L103.4 22.7 L103.5 22.7 L103.7 22.8 L103.9 22.9 L104.0 23.0 L104.2 23.0 L104.3 22.9 L104.4 22.8 L104.5 22.8 L105.3 22.6 L105.6 22.6 L105.8 22.6 L106.2 22.9 L106.4 22.9 L106.7 22.9 L107.2 22.7 L107.4 22.7 L107.5 22.8 L107.8 23.1 L107.9 23.1 L108.0 23.1 L108.4 23.0 L108.7 23.0 L108.9 23.0 L109.0 23.0 L109.3 23.2 L109.5 22.8 L110.1 23.1 L110.6 23.1 L111.1 23.0 L111.5 23.1 L111.9 23.5 L112.0 24.0 L112.0 24.6 L111.8 25.1 L111.4 26.0 L111.3 26.5 L111.4 27.0 L111.8 27.5 L112.2 27.7 L112.7 27.8 L113.2 27.7 L113.7 27.9 L114.2 27.9 L114.5 27.6 L114.6 27.0 L115.1 25.9 L116.1 25.9 L117.3 26.5 L118.0 27.1 L118.0 27.2 L117.9 27.4 L118.0 27.6 L118.3 27.9 L118.5 28.0 L119.4 28.1 L119.8 28.3 L120.0 28.5 L120.1 28.8 L120.7 28.9 L122.6 28.8 L123.1 28.8 L123.7 29.0 L124.2 29.4 L125.0 30.3 L125.1 30.6 L125.1 30.8 L125.2 30.9 L125.6 30.9 L125.7 30.9 L125.9 30.8 L126.7 30.4 L127.3 30.2 L127.8 30.1 L128.2 30.1 L128.8 30.2 L130.1 30.7 L130.6 31.0 L131.4 32.2 L131.9 32.5 L136.7 31.2 L137.7 30.7 L138.7 29.8 L139.2 29.6 L139.9 29.5 L141.6 30.1 L142.2 30.2 L142.6 30.1 L143.7 29.5 L144.0 29.3 L144.1 29.2 L144.3 29.2 L144.3 29.3 L144.4 29.3 L146.1 30.0 L146.7 30.2 L149.0 30.3 L150.1 30.1 L152.3 29.3 L153.5 29.1 L155.9 28.9 L156.9 29.0 L158.7 29.6 L159.5 29.7 L159.5 30.2 L159.0 30.3 L158.3 30.3 L157.9 30.5 L157.7 31.1 L157.9 32.3 L157.9 32.9 L157.4 34.0 L156.6 34.9 L156.1 35.7 L156.6 36.9 L157.2 37.3 L158.9 38.1 L159.4 38.5 L160.6 40.0 L161.1 40.4 L161.6 40.8 L162.2 41.1 L162.8 41.3 L163.3 41.3 L164.2 40.9 L164.7 40.9 L165.1 40.7 L165.6 40.3 L165.9 39.8 L166.0 39.0 L166.2 38.9 L166.5 38.8 L166.7 38.7 L167.1 38.1 L167.2 38.0 L167.3 37.9 L168.2 37.3 L168.5 36.9 L168.9 35.7 L169.1 35.4 L169.5 35.3 L170.1 35.3 L171.4 34.9 L171.9 34.9 L172.6 35.1 L173.1 35.5 L174.3 37.2 L174.9 37.7 L175.6 38.0 L176.1 38.4 L176.3 39.2 L176.2 39.5 L176.0 40.0 L175.9 40.2 L176.0 40.5 L176.8 41.3 L178.0 43.4 L178.8 44.3 L180.0 44.2 L180.4 44.0 L180.7 43.8 L181.0 43.3 L181.2 42.8 L181.3 42.4 L181.6 42.1 L182.1 41.7 L182.7 41.4 L183.1 41.3 L182.9 40.7 L183.2 40.3 L183.8 40.1 L184.4 39.7 L184.4 39.4 L184.3 39.1 L184.3 38.9 L184.6 38.8 L184.7 38.6 L184.4 38.1 L184.5 37.8 L185.0 37.6 L186.3 37.7 L186.6 37.3 L186.8 37.1 L187.8 36.3 L188.2 36.0 L188.4 36.2 L188.6 36.3 L189.0 36.4 L189.0 36.0 L189.1 35.9 L189.4 35.9 L189.6 35.7 L189.8 35.5 L189.8 35.4 L190.0 35.6 L190.1 35.7 L190.2 35.7 L190.4 35.4 L191.4 35.0 L191.7 35.1 L191.8 35.3 L192.0 35.4 L192.9 35.6 L193.9 36.1 L194.5 36.2 L195.2 36.2 L195.4 36.2 L195.6 36.3 L196.0 36.6 L196.3 36.8 L196.5 36.8 L196.6 36.9 L197.0 36.9 L197.3 37.0 L197.7 37.1 L198.2 37.6 L198.6 37.7 L199.1 37.9 L200.1 38.4 L200.7 38.5 L201.2 38.7 L202.2 39.4 L202.7 39.7 L203.0 39.7 L203.6 39.6 L203.8 39.6 L204.1 39.7 L204.5 40.1 L204.8 40.2 L205.3 40.4 L206.9 40.4 L207.6 39.7 L208.0 39.2 L208.1 38.9 L208.0 38.3 L208.1 37.8 L208.3 37.3 L208.7 36.9 L209.6 36.3 L212.8 35.3 L213.4 34.8 L213.8 34.4 L215.0 33.9 L215.5 33.8 L217.2 34.1 L217.9 33.5 L218.0 33.1 L217.9 32.4 L218.3 32.3 L218.6 31.9 L218.7 31.3 L218.7 31.0 L218.5 30.8 L218.0 30.7 L217.8 30.6 L217.7 30.3 L217.7 30.1 L217.6 29.9 L216.8 29.5 L216.3 29.0 L215.9 28.5 L215.7 28.2 L216.2 27.7 L217.5 27.4 L218.0 27.0 L218.2 27.0 L218.3 27.0 L218.7 27.2 L219.1 27.4 L219.3 27.3 L219.5 27.1 L219.9 27.1 L222.1 27.5 L223.3 27.9 L226.7 29.6 L227.7 30.1 L228.2 30.7 L228.5 31.3 L228.5 31.9 L228.3 32.6 L227.9 33.1 L227.6 33.7 L227.5 34.5 L227.6 34.8 L227.9 35.2 L228.0 35.5 L228.2 35.8 L228.6 35.8 L229.1 35.6 L229.6 35.8 L229.9 36.3 L230.2 37.0 L230.1 37.6 L229.7 38.7 L229.6 39.3 L229.7 39.9 L230.2 40.3 L230.8 40.3 L231.5 40.3 L232.1 40.4 L232.6 40.8 L232.7 41.3 L232.7 41.8 L232.7 42.4 L232.9 42.7 L233.1 43.0 L233.2 43.3 L233.3 43.6 L231.8 50.9 L232.4 50.9 L232.8 51.1 L233.3 51.3 L233.8 51.5 L234.4 51.4 L234.9 51.2 L235.3 51.1 L235.6 51.4 L236.3 53.4 L236.4 54.0 L236.6 54.5 L236.9 55.1 L237.2 55.5 L238.8 56.2 L239.6 56.2 L240.3 55.7 L240.5 56.0 L240.6 56.6 L240.7 57.1 L240.9 57.6 L241.3 57.7 L242.0 57.7 L243.8 58.2 L244.6 58.6 L245.3 59.1 L244.7 59.3 L244.1 59.6 L243.8 59.9 L244.0 60.3 L244.6 60.4 L245.1 60.4 L245.4 60.5 L245.2 61.2 L244.9 61.6 L244.4 61.8 L243.8 61.8 L243.3 61.7 L242.2 61.5 L241.9 61.7 L241.6 62.3 L241.6 62.4 L241.7 62.6 L241.8 62.8 L241.7 63.0 L241.6 63.0 L241.4 63.1 L241.3 63.1 L241.0 63.2 L240.4 63.5 L240.2 63.6 L239.9 64.1 L239.7 65.1 L239.5 65.6 L239.2 65.7 L238.7 65.7 L238.4 65.8 L238.2 66.1 L238.2 66.4 L238.2 66.7 L238.2 67.0 L237.9 67.6 L236.6 68.9 L236.3 69.3 L236.1 69.7 L236.0 70.2 L236.1 70.7 L236.6 71.0 L237.0 70.8 L237.5 70.6 L238.1 70.5 L238.5 70.6 L239.0 70.6 L239.6 70.6 L240.0 70.4 L240.5 70.1 L240.8 69.6 L241.5 68.1 L242.0 68.1 L242.6 68.3 L243.2 68.3 L243.5 68.2 L243.7 68.2 L244.3 68.4 L244.5 68.4 L245.1 68.1 L245.4 68.1 L246.0 68.4 L246.6 68.9 L247.1 69.6 L247.2 70.2 L247.3 73.2 L247.2 73.7 L247.1 74.0 L246.9 74.2 L246.3 75.8 L246.2 76.3 L247.0 76.6 L247.1 77.1 L247.5 82.8 L247.8 83.5 L248.7 84.7 L249.4 86.0 L249.9 86.3 L250.6 86.3 L251.2 86.2 L251.6 86.0 L251.9 85.8 L252.1 85.9 L252.4 86.3 L252.5 86.7 L252.5 87.4 L252.6 87.8 L253.2 88.2 L253.9 88.3 L255.5 88.4 L256.0 88.7 L256.5 89.3 L256.7 90.0 L256.9 90.7 L257.0 91.4 L256.8 92.1 L256.2 93.5 L255.9 93.8 L255.7 94.1 L255.6 94.5 L255.5 94.9 L254.9 95.6 L254.3 96.0 L252.8 96.5 L252.3 97.0 L251.7 97.8 L251.4 98.5 L251.7 98.8 L252.1 98.9 L251.9 99.2 L251.6 99.5 L251.0 99.7 L251.0 100.0 L251.0 100.3 L251.2 100.5 L251.2 100.5 L251.4 100.6 L251.6 100.6 L251.7 100.8 L251.7 101.2 L251.8 101.4 L251.7 101.5 L251.6 101.5 L251.5 101.6 L251.6 101.9 L251.8 101.9 L252.3 101.9 L252.4 102.5 L251.4 109.9 L251.3 110.1 L251.3 110.8 L251.4 111.4 L251.6 111.9 L251.8 112.4 L253.4 114.7 L253.9 115.2 L254.4 115.4 L255.0 115.6 L255.6 115.6 L256.2 115.5 L256.8 115.3 L257.8 114.7 L258.4 114.6 L259.6 114.6 L259.8 114.8 L259.0 117.1 L258.9 117.8 L257.9 120.2 L257.9 121.3 L259.4 121.8 L259.7 121.8 L260.0 121.7 L260.3 121.7 L260.6 122.4 L261.0 122.8 L261.6 123.2 L262.8 123.9 L263.1 124.3 L263.1 124.4 L262.6 124.7 L262.0 124.8 L261.4 124.8 L260.9 124.9 L258.3 126.2 L257.9 126.6 L257.9 126.6 L257.6 127.3 L257.5 128.0 L257.3 129.4 L256.8 131.8 L257.1 132.7 L258.4 133.1 L259.0 133.2 L260.7 133.7 L260.9 133.7 L261.2 133.5 L261.3 133.5 L261.5 133.6 L261.7 134.0 L261.9 134.2 L262.4 134.6 L262.6 134.9 L263.3 136.1 L263.6 136.4 L264.4 136.9 L264.6 137.2 L264.7 137.7 L264.6 138.8 L264.7 139.4 L265.1 140.6 L265.1 141.1 L264.8 141.8 L264.8 142.5 L264.9 143.1 L265.5 144.3 L263.9 144.5 L263.1 144.4 L262.4 144.0 L261.6 142.2 L260.9 141.4 L260.3 141.5 L260.2 141.9 L260.3 142.4 L260.2 142.8 L259.8 143.0 L259.3 143.0 L258.8 142.8 L258.4 142.6 L258.1 142.3 L257.9 142.0 L257.7 141.5 L257.5 141.2 L257.2 140.9 L256.8 140.8 L256.3 140.9 L255.5 141.1 L255.2 141.1 L254.7 141.1 L254.5 141.1 L254.3 141.0 L254.0 140.7 L253.7 140.6 L253.2 140.7 L252.2 141.1 L251.6 141.1 L250.6 140.9 L250.2 141.0 L248.8 142.1 L248.7 142.3 L248.7 142.6 L248.8 142.9 L249.0 143.2 L249.2 143.6 L249.2 144.2 L248.9 145.8 L248.9 146.3 L249.0 146.9 L248.9 147.2 L248.4 147.7 L248.4 148.0 L250.7 149.5 L253.5 150.4 L253.8 150.3 L255.5 149.7 L255.8 149.7 L255.9 150.0 L255.7 150.4 L255.5 150.7 L255.3 151.6 L255.3 152.0 L255.5 152.4 L256.0 152.8 L256.5 153.3 L256.8 153.9 L256.9 154.2 L257.0 154.5 L256.5 154.5 L256.1 154.3 L255.9 154.0 L255.6 153.9 L254.4 154.1 L254.0 154.1 L254.0 154.4 L254.0 155.1 L253.7 156.2 L252.3 158.3 L252.2 159.4 L252.4 159.7 L253.0 160.3 L253.2 160.6 L253.1 160.9 L253.0 161.0 L252.8 161.2 L252.7 161.3 L252.5 161.8 L252.4 162.7 L252.3 163.1 L251.4 164.2 L251.4 164.3 L251.5 164.6 L251.4 164.7 L251.3 164.8 L251.0 165.0 L250.9 165.1 L250.3 165.8 L250.2 166.1 L250.2 166.4 L250.2 166.8 L250.2 167.0 L249.4 167.9 L248.4 167.5 L247.3 166.6 L246.3 166.4 L245.3 166.7 L244.8 166.7 L244.1 166.0 L243.4 166.3 L242.1 167.5 L241.3 167.0 L240.3 166.3 L239.8 165.7 L239.6 164.9 L239.8 163.8 L236.4 163.7 L236.2 164.2 L235.4 165.1 L235.2 165.7 L235.2 166.7 L235.1 166.9 L235.0 167.2 L234.9 167.3 L234.9 167.5 L235.0 167.5 L235.2 167.6 L235.3 167.7 L235.3 168.4 L235.2 168.9 L234.9 169.5 L234.4 170.0 L233.6 170.4 L233.4 170.6 L233.3 170.9 L233.3 171.4 L233.2 171.7 L232.9 171.9 L232.5 172.0 L232.2 172.2 L231.7 172.8 L231.4 173.2 L231.3 173.5 L231.4 174.0 L231.6 174.5 L231.7 175.1 L231.5 175.6 L231.2 175.8 L230.0 176.3 L229.6 176.3 L229.1 175.5 L228.7 175.3 L228.5 175.9 L228.2 175.8 L228.1 175.8 L228.0 176.3 L227.9 176.3 L227.3 176.5 L227.0 176.6 L226.5 176.6 L226.2 176.8 L225.8 177.1 L225.4 177.4 L225.0 177.5 L224.6 177.6 L224.5 177.6 L224.2 177.7 L223.9 178.0 L224.2 177.0 L224.1 176.6 L223.5 176.4 L223.3 176.2 L223.3 175.7 L223.1 175.6 L222.5 175.6 L222.3 175.6 L221.6 174.9 L221.2 173.1 L220.8 172.6 L220.4 172.5 L219.4 172.8 L219.0 172.7 L218.8 172.5 L218.6 171.9 L218.4 171.7 L218.2 171.5 L217.9 171.5 L217.5 171.4 L217.1 171.4 L216.8 171.5 L216.7 171.6 L216.6 171.9 L216.5 172.0 L216.3 172.0 L215.9 172.7 L215.6 172.4 L215.0 171.4 L214.7 171.9 L213.9 172.7 L213.6 172.8 L213.6 172.8 L213.5 172.7 L213.8 172.4 L214.0 172.2 L214.1 171.8 L214.1 171.4 L214.2 171.1 L214.5 170.8 L215.1 170.4 L215.7 169.4 L216.0 168.8 L215.9 168.4 L216.4 167.8 L216.6 167.5 L216.7 166.7 L216.9 166.3 L217.1 165.9 L217.4 165.7 L216.8 165.0 L216.8 164.0 L217.1 163.0 L217.4 162.3 L216.6 161.4 L216.4 160.9 L215.7 160.0 L215.0 158.8 L214.7 157.6 L214.8 156.4 L215.2 155.1 L215.2 155.1 L215.4 154.8 L215.5 154.5 L215.4 154.2 L215.3 153.9 L214.9 153.5 L214.6 153.5 L214.3 153.7 L214.0 154.1 L214.0 153.8 L214.3 153.3 L214.4 153.0 L213.9 150.9 L213.9 150.6 L213.8 150.3 L213.5 150.1 L212.8 150.0 L212.4 149.7 L212.3 148.9 L212.5 148.1 L212.8 147.7 L212.9 147.5 L213.0 147.4 L212.9 147.3 L212.8 147.2 L212.6 146.9 L212.5 146.6 L212.4 146.3 L212.1 146.0 L212.4 145.7 L212.6 145.6 L212.8 145.4 L212.9 145.4 L213.3 145.2 L213.1 145.1 L212.9 144.9 L212.4 144.5 L211.0 143.9 L210.6 143.4 L210.4 143.3 L210.2 143.5 L210.1 143.7 L209.9 143.8 L209.6 143.8 L209.4 143.8 L208.9 143.8 L208.5 143.9 L208.2 143.8 L208.2 143.3 L208.5 142.9 L208.9 142.7 L209.1 142.3 L209.0 141.7 L208.6 141.4 L208.0 141.1 L207.5 141.1 L207.1 141.5 L207.1 142.1 L207.0 142.5 L206.9 142.6 L206.5 142.1 L206.2 141.6 L206.1 141.1 L205.9 139.8 L205.8 139.3 L205.5 138.9 L205.0 138.9 L205.0 139.2 L204.9 139.5 L204.7 139.7 L204.5 139.9 L204.5 140.2 L204.6 140.4 L204.5 140.6 L203.8 140.8 L203.3 141.0 L203.0 141.1 L202.9 140.9 L202.8 140.8 L202.6 140.7 L202.2 140.8 L202.1 140.9 L201.6 140.9 L201.1 140.9 L200.6 141.1 L200.1 141.3 L199.0 142.2 L197.9 142.9 L197.3 142.9 L196.9 142.8 L196.8 142.4 L197.1 141.1 L196.9 140.7 L196.4 140.4 L194.8 140.0 L194.3 140.0 L193.9 140.2 L192.9 141.1 L192.4 141.4 L192.2 140.9 L191.6 141.1 L191.3 141.2 L191.0 141.2 L190.7 141.2 L190.4 141.1 L190.2 141.0 L189.4 140.8 L189.2 140.8 L188.4 140.9 L187.9 141.0 L187.6 141.3 L187.2 141.6 L187.0 142.0 L186.3 143.4 L185.9 143.8 L184.3 145.4 L183.3 146.1 L182.7 146.3 L182.4 146.2 L181.6 145.7 L181.2 145.5 L180.3 145.5 L179.4 145.7 L178.9 146.3 L178.7 147.3 L178.1 146.8 L178.4 145.9 L179.1 144.9 L179.6 144.3 L180.0 143.6 L180.4 141.1 L180.7 141.1 L180.8 140.9 L180.8 140.5 L180.9 140.2 L181.1 139.8 L181.5 139.4 L181.9 138.6 L182.4 138.0 L182.9 137.5 L183.5 137.4 L184.2 137.4 L184.7 137.0 L185.1 136.4 L185.3 135.8 L184.1 134.2 L183.9 133.9 L183.5 133.6 L182.3 132.1 L182.3 132.0 L182.1 131.9 L182.0 131.8 L182.0 131.7 L182.0 131.4 L182.0 131.2 L181.7 130.4 L181.7 130.1 L181.6 128.1 L181.8 127.1 L182.2 125.4 L182.2 125.3 L182.2 125.2 L182.1 125.0 L181.8 124.7 L181.1 124.5 L180.0 124.4 L178.8 124.4 L177.8 124.1 L177.6 123.1 L177.9 121.9 L178.4 121.0 L178.7 120.8 L179.0 120.6 L179.3 120.5 L179.5 120.1 L179.6 119.9 L179.5 119.4 L179.5 119.1 L179.6 118.8 L179.7 118.5 L179.9 118.1 L179.8 117.8 L178.6 116.7 L178.3 116.6 L177.9 116.4 L177.6 116.1 L177.3 115.6 L177.0 115.5 L176.7 115.5 L176.4 115.5 L176.2 115.5 L175.7 115.5 L175.4 115.4 L175.6 115.1 L175.9 114.9 L175.9 114.7 L175.4 114.4 L175.0 114.0 L174.7 113.6 L174.6 113.1 L174.7 112.3 L174.8 111.9 L174.6 111.8 L174.3 111.6 L174.1 111.4 L173.9 110.6 L173.8 110.3 L173.5 110.1 L172.8 109.6 L172.6 109.3 L172.4 108.5 L172.3 108.3 L172.1 108.2 L171.6 108.0 L171.5 107.9 L171.3 107.6 L171.0 106.7 L170.3 105.4 L169.3 104.1 L168.1 103.0 L166.0 101.7 L165.8 101.3 L165.4 99.5 L165.2 98.8 L164.9 98.6 L164.5 98.5 L163.5 98.2 L162.8 98.2 L156.8 98.2 L144.7 98.3 L144.5 100.0 L144.4 100.3 L139.0 101.4 L138.1 101.6 L137.6 101.6 L137.2 101.5 L136.6 101.3 L135.9 100.9 L135.4 100.4 L134.9 100.1 L134.3 100.1 L130.0 101.0 L128.7 101.4 L127.7 102.0 L127.5 102.3 L127.5 102.5 L127.5 102.7 L127.5 103.0 L127.1 105.1 L127.1 105.2 L127.3 105.5 L127.3 105.6 L127.2 105.7 L127.0 105.7 L126.9 105.7 L126.8 105.8 L126.8 106.1 L126.8 106.3 L126.7 106.3 L125.8 106.8 L125.6 107.1 L125.1 107.9 L125.0 108.0 L125.0 109.2 L124.9 109.4 L124.6 109.4 L124.4 109.4 L124.1 109.5 L124.0 109.7 L123.7 110.7 L123.6 110.8 L123.6 110.9 L123.5 110.9 L123.3 111.0 L123.1 111.1 L123.1 111.2 L123.1 111.3 L123.1 111.5 L122.2 114.6 L122.0 114.7 L121.8 114.9 L121.7 115.0 L121.7 115.2 L121.6 115.4 L121.4 115.3 L121.3 115.2 L121.2 115.2 L120.7 115.5 L120.5 115.6 L120.3 115.9 L120.3 116.1 L120.4 116.4 L120.4 116.6 L120.0 116.7 L119.5 117.0 L118.8 118.1 L118.3 118.5 L117.7 118.6 L117.2 118.5 L116.6 118.6 L116.0 118.9 L115.5 118.3 L114.9 118.8 L114.4 119.6 L114.3 120.5 L114.4 120.7 L114.8 121.2 L114.8 121.5 L114.7 121.5 L114.3 121.5 L114.1 121.6 L113.9 122.0 L113.6 122.4 L113.2 123.3 L112.9 123.8 L112.3 124.1 L111.2 124.6 L110.4 125.3 L109.9 125.3 L109.3 125.1 L108.2 124.4 L107.8 124.3 L107.0 124.5 L105.8 124.8 L105.1 125.3 Z" fill="#172033" fill-rule="evenodd"/></svg>
