<svg xmlns="http://www.w3.org/2000/svg" viewBox="0 0 320 200" role="img"><path d="M155.6 100.4 L156.3 101.3 L156.3 102.3 L156.1 103.5 L156.3 104.6 L157.0 105.5 L158.2 106.6 L159.6 107.5 L160.6 107.9 L161.6 108.1 L165.0 109.8 L166.1 110.0 L173.5 110.0 L177.0 110.0 L189.1 110.0 L189.9 110.0 L206.3 110.0 L222.7 110.0 L239.0 110.0 L239.5 112.1 L239.5 116.5 L239.6 130.9 L239.6 133.7 L239.7 145.2 L239.7 159.6 L239.8 173.9 L223.4 173.9 L219.4 173.9 L207.0 173.8 L190.6 173.8 L189.4 173.8 L174.2 173.7 L168.2 173.7 L166.6 173.9 L165.6 174.0 L165.3 174.8 L165.3 176.5 L165.1 177.2 L164.4 177.8 L163.6 178.0 L162.6 177.9 L161.6 177.4 L160.7 176.7 L159.3 175.1 L158.4 174.5 L157.5 174.2 L155.9 174.0 L156.0 173.7 L155.9 172.7 L155.5 171.3 L155.6 170.7 L156.0 170.4 L156.7 170.1 L157.6 170.0 L158.3 169.9 L157.9 169.6 L157.3 169.4 L156.5 169.3 L155.8 169.2 L155.2 169.0 L153.9 168.2 L153.2 168.1 L151.0 168.6 L150.4 168.4 L150.1 167.9 L150.4 167.3 L150.8 166.8 L151.2 166.6 L150.1 167.0 L148.9 168.1 L147.8 169.3 L147.4 170.1 L147.0 170.5 L145.2 171.0 L143.8 171.5 L143.4 170.9 L142.5 168.3 L142.1 167.6 L141.5 167.0 L140.6 166.6 L139.6 166.3 L138.9 166.5 L138.2 166.8 L136.5 167.1 L134.9 167.9 L134.0 168.1 L133.6 167.8 L132.3 166.3 L131.6 165.8 L131.7 165.3 L131.5 164.9 L130.8 163.9 L131.7 163.6 L132.3 162.9 L132.8 162.1 L133.7 159.3 L134.2 158.3 L134.8 157.9 L135.6 157.5 L136.4 156.4 L137.0 155.2 L137.3 154.2 L137.1 152.1 L137.3 151.2 L138.8 150.5 L141.0 148.6 L141.9 147.3 L142.1 147.2 L142.2 146.9 L142.5 146.7 L142.7 146.3 L142.9 145.7 L143.5 144.2 L144.4 142.5 L145.5 141.7 L146.2 141.9 L146.9 142.5 L147.9 142.9 L149.4 142.7 L150.4 142.2 L151.4 141.6 L152.6 141.0 L151.5 141.1 L149.3 142.6 L148.3 142.4 L145.9 140.1 L145.1 138.6 L145.7 137.1 L148.9 133.9 L149.0 133.7 L149.4 133.1 L149.6 132.8 L150.7 132.0 L151.2 131.6 L151.4 131.2 L151.9 130.1 L152.1 129.8 L152.4 129.6 L152.5 129.2 L152.7 127.9 L153.0 127.5 L153.3 127.2 L153.4 127.0 L153.7 126.4 L155.6 124.5 L156.2 122.7 L156.0 120.4 L154.5 115.9 L153.9 114.9 L153.8 114.4 L153.7 113.8 L153.8 113.2 L154.1 112.9 L154.3 112.6 L154.5 112.3 L154.9 105.5 L154.8 104.3 L154.3 103.3 L153.9 102.1 L154.6 101.1 L155.6 100.4 Z M107.6 23.2 L109.1 25.0 L109.6 25.9 L109.8 27.1 L109.7 28.1 L109.5 29.1 L109.2 29.9 L108.7 30.7 L106.7 32.4 L106.2 33.9 L104.4 36.1 L104.2 36.3 L103.1 39.2 L102.2 40.0 L101.9 41.3 L101.8 41.6 L101.6 41.7 L100.1 42.7 L99.9 43.6 L99.8 46.1 L99.5 47.0 L97.0 49.8 L95.2 52.9 L94.6 53.5 L94.1 53.2 L92.9 52.6 L92.6 52.3 L92.2 52.4 L91.4 52.1 L89.9 51.3 L89.5 51.4 L88.3 51.7 L87.7 51.7 L87.1 51.4 L86.0 50.7 L85.2 50.5 L84.1 50.5 L82.8 50.2 L81.7 49.4 L81.3 47.8 L81.0 47.2 L80.5 46.4 L80.2 45.7 L80.4 45.1 L80.6 44.6 L80.9 42.3 L81.3 41.2 L82.0 39.9 L83.0 38.9 L84.3 39.3 L85.0 38.9 L85.9 38.9 L87.9 39.3 L88.8 38.9 L89.1 38.1 L89.0 37.0 L88.5 36.3 L89.1 35.9 L90.0 35.3 L90.8 34.6 L91.1 33.9 L91.5 28.8 L92.2 26.9 L93.6 24.5 L95.5 22.6 L97.8 22.0 L97.7 22.2 L97.4 22.8 L99.1 23.1 L99.9 23.2 L100.4 22.8 L101.7 23.2 L103.4 23.4 L105.3 23.4 L106.8 22.8 L107.0 23.0 L107.2 23.1 L107.6 23.2 Z" fill="#172033" fill-rule="evenodd"/></svg>
