<svg xmlns="http://www.w3.org/2000/svg" viewBox="0 0 320 200" role="img"><path d="M92.1 42.6 L95.5 42.5 L97.1 42.1 L97.7 42.2 L98.5 42.3 L98.9 42.4 L99.7 42.4 L100.4 42.2 L100.8 42.1 L101.6 41.4 L102.2 41.3 L102.7 41.3 L104.5 41.4 L104.6 41.4 L105.6 42.1 L106.2 42.2 L106.4 42.1 L106.9 41.7 L107.2 41.6 L107.3 41.6 L107.6 41.6 L107.7 41.6 L107.8 41.4 L107.9 41.1 L107.9 41.0 L108.6 40.8 L109.8 41.0 L110.2 40.9 L110.4 40.9 L110.7 40.7 L110.8 40.4 L110.8 40.2 L110.8 40.0 L111.1 39.8 L111.9 39.3 L111.9 39.3 L111.9 39.3 L112.2 38.9 L113.0 38.3 L113.4 37.9 L113.4 37.8 L113.4 37.7 L113.4 37.3 L113.5 37.1 L113.7 36.9 L114.1 36.7 L114.3 36.6 L115.0 36.3 L116.4 36.0 L116.5 35.9 L116.8 35.7 L116.9 35.7 L117.0 35.7 L117.1 35.8 L117.2 36.0 L117.2 36.0 L118.0 36.3 L118.1 36.4 L118.6 36.3 L119.4 35.7 L120.0 35.5 L120.5 35.5 L120.7 35.5 L120.9 35.5 L121.8 35.7 L122.5 35.8 L122.7 35.8 L122.8 35.9 L122.8 36.2 L122.8 36.3 L123.0 36.3 L123.2 36.2 L123.6 36.2 L124.2 36.1 L124.5 36.2 L124.7 36.2 L125.2 36.5 L125.4 36.5 L126.1 36.6 L126.5 36.5 L126.8 36.5 L127.2 36.4 L127.6 36.4 L128.3 36.5 L128.8 36.4 L129.2 36.3 L129.3 36.3 L129.7 36.1 L130.1 35.7 L130.1 35.5 L130.1 35.3 L130.2 35.1 L130.5 35.0 L130.8 35.1 L130.8 35.1 L130.9 35.2 L131.0 35.4 L131.2 35.6 L131.6 35.9 L131.9 36.0 L132.1 35.8 L132.4 35.4 L132.6 34.5 L132.7 32.7 L132.8 32.6 L133.0 32.0 L133.2 31.8 L133.6 31.5 L134.0 31.5 L134.7 31.4 L136.8 31.5 L141.3 32.0 L142.2 31.9 L142.8 31.8 L143.0 31.7 L143.2 31.6 L143.3 31.3 L143.4 30.9 L143.5 30.7 L143.8 30.5 L144.3 30.3 L144.8 30.1 L145.2 30.1 L145.7 30.3 L145.9 30.5 L146.1 30.7 L146.6 30.7 L147.0 30.5 L147.7 30.1 L148.1 30.0 L150.4 30.1 L151.9 30.7 L152.7 30.7 L152.9 30.5 L153.0 30.5 L153.6 30.1 L154.0 30.0 L154.8 29.9 L155.5 30.1 L155.9 30.0 L156.4 29.4 L156.8 29.2 L157.2 29.2 L157.7 29.2 L158.1 29.1 L158.5 29.0 L159.1 28.5 L159.3 28.6 L160.4 29.2 L160.7 29.1 L161.1 28.9 L161.2 28.8 L161.4 28.8 L161.5 28.7 L161.5 28.6 L162.1 28.8 L162.3 28.8 L162.6 28.7 L162.7 28.6 L162.7 28.4 L162.7 27.9 L162.6 27.1 L163.3 26.9 L164.2 27.0 L164.9 27.1 L165.1 27.2 L165.2 27.4 L165.3 27.5 L165.4 27.5 L165.5 27.4 L165.6 27.0 L165.7 26.9 L166.0 26.7 L166.1 26.6 L166.4 26.5 L166.9 26.3 L167.3 26.3 L167.6 26.6 L168.1 26.8 L168.1 27.0 L168.1 27.2 L168.1 27.3 L168.3 27.4 L168.5 27.3 L168.6 27.3 L168.8 27.3 L169.4 27.3 L169.6 27.3 L170.4 27.1 L170.7 27.1 L171.2 27.2 L171.6 27.1 L172.0 26.6 L172.5 26.5 L173.2 26.3 L173.7 26.6 L174.0 27.2 L174.0 27.9 L174.1 28.1 L174.2 28.2 L174.3 28.3 L174.4 28.4 L174.5 28.5 L174.7 28.6 L174.8 28.6 L174.8 28.8 L174.8 29.0 L174.8 29.1 L175.2 29.3 L175.5 29.4 L176.3 29.4 L176.1 29.6 L176.7 29.6 L177.1 29.7 L177.5 29.8 L178.0 30.1 L178.7 30.9 L179.2 31.2 L179.7 31.2 L179.9 30.9 L179.8 30.5 L179.9 30.2 L180.8 30.1 L181.3 30.0 L181.5 30.0 L181.8 30.0 L182.5 30.3 L186.2 31.5 L186.6 31.5 L186.7 31.5 L186.8 31.5 L187.0 31.8 L187.1 31.8 L187.9 32.1 L188.0 32.2 L188.5 32.4 L189.4 33.5 L189.9 33.7 L190.4 33.7 L190.9 33.7 L194.8 32.8 L195.4 32.7 L195.6 32.7 L195.8 32.7 L196.0 32.8 L196.2 32.7 L196.4 32.5 L196.5 32.2 L196.7 32.0 L197.0 31.9 L199.0 32.1 L199.3 32.1 L199.7 32.3 L200.0 32.4 L200.2 32.3 L200.4 32.3 L200.5 32.1 L200.8 32.0 L201.1 31.9 L201.9 31.9 L202.7 31.4 L203.0 31.4 L203.5 31.5 L204.1 32.1 L204.6 32.2 L204.9 32.2 L205.5 31.9 L205.8 31.9 L206.1 32.0 L206.4 32.0 L206.9 31.8 L207.5 31.5 L207.8 31.4 L209.7 31.0 L209.9 31.0 L210.1 31.0 L210.3 30.7 L210.7 30.1 L210.9 29.5 L211.0 29.4 L211.2 29.3 L211.3 29.3 L211.3 29.1 L211.3 29.0 L211.0 28.7 L210.9 28.6 L210.6 28.2 L210.7 28.1 L210.9 27.9 L211.0 27.6 L211.0 27.3 L211.0 27.1 L210.9 26.8 L210.8 26.7 L210.4 26.6 L210.3 26.5 L210.2 26.4 L210.3 26.0 L210.3 25.8 L210.1 25.3 L209.9 25.1 L209.7 24.9 L209.5 24.8 L209.1 24.7 L208.8 24.6 L208.6 24.4 L208.5 24.3 L208.4 24.1 L208.4 23.7 L208.4 23.4 L208.5 23.1 L208.7 23.0 L208.8 23.0 L209.0 22.9 L209.1 22.9 L209.8 22.5 L210.4 22.4 L211.6 22.4 L212.1 22.0 L212.5 22.0 L212.6 22.1 L213.3 22.6 L213.6 22.8 L214.0 22.9 L214.9 22.9 L215.5 22.8 L215.9 22.9 L216.5 23.3 L217.4 23.5 L217.8 23.6 L218.2 23.7 L218.1 24.0 L217.9 24.3 L219.2 25.1 L220.2 25.5 L220.5 25.6 L220.9 25.2 L220.9 25.3 L220.9 25.5 L221.0 25.7 L221.1 25.8 L221.0 26.1 L221.1 26.6 L220.9 26.9 L221.2 27.2 L221.3 27.6 L221.4 28.5 L221.7 29.6 L221.8 30.0 L221.8 30.5 L221.7 31.0 L221.5 31.4 L221.2 31.6 L220.8 31.6 L220.3 31.5 L219.9 31.4 L219.6 31.1 L218.5 32.1 L218.2 32.1 L218.1 32.2 L218.1 32.3 L218.0 32.4 L217.3 32.7 L216.7 33.1 L216.3 33.2 L214.9 33.4 L214.6 33.5 L215.0 33.9 L214.7 34.4 L214.6 34.9 L214.7 35.3 L215.0 35.7 L214.5 36.2 L214.5 36.4 L214.9 36.4 L215.1 36.5 L214.7 37.1 L214.7 37.5 L215.0 38.0 L215.2 38.2 L215.8 38.5 L215.9 38.7 L215.7 39.0 L215.5 39.1 L215.2 39.1 L215.0 39.2 L214.9 39.4 L215.0 39.6 L215.2 39.8 L215.4 39.9 L215.5 40.0 L215.3 40.2 L215.0 40.4 L214.3 40.6 L214.0 40.8 L214.1 40.9 L214.2 41.1 L214.2 41.3 L213.9 41.3 L213.7 41.3 L213.6 41.2 L213.5 41.1 L213.4 41.0 L213.2 41.0 L213.1 41.4 L212.9 41.7 L212.8 41.8 L212.6 41.8 L212.6 41.7 L212.5 41.5 L212.5 41.7 L212.4 41.8 L212.3 41.9 L212.1 41.9 L212.1 42.0 L212.1 42.1 L212.2 42.1 L212.3 42.1 L212.1 42.2 L212.0 42.3 L212.0 42.4 L212.1 42.7 L210.9 43.5 L210.6 43.9 L210.4 44.5 L209.9 45.0 L209.2 45.2 L208.3 45.2 L208.4 45.1 L208.1 44.7 L208.1 44.2 L207.9 43.8 L207.4 43.7 L207.4 43.5 L207.7 43.5 L208.2 43.5 L208.5 43.4 L208.7 43.3 L208.5 43.0 L208.2 43.0 L207.8 43.1 L207.6 43.2 L207.5 43.0 L207.4 42.9 L207.2 42.9 L207.2 43.0 L207.3 43.1 L207.4 43.4 L207.2 43.4 L206.9 43.0 L206.2 42.7 L205.4 42.5 L204.9 42.7 L204.5 42.6 L203.3 42.6 L203.0 42.5 L202.8 42.5 L201.2 42.6 L200.2 42.4 L199.2 42.1 L198.2 42.0 L197.4 42.2 L197.2 42.2 L196.7 42.1 L196.2 41.9 L195.9 41.7 L195.5 41.5 L194.4 41.3 L194.0 41.3 L193.2 41.0 L192.2 40.5 L191.3 40.3 L190.5 40.8 L190.3 40.8 L190.3 40.7 L188.5 40.5 L188.1 40.3 L187.8 40.1 L187.6 40.1 L187.5 40.0 L187.5 39.7 L187.6 39.5 L187.8 39.4 L188.0 39.3 L188.3 39.3 L187.9 39.0 L187.6 38.9 L185.7 39.0 L185.3 39.0 L185.3 39.4 L184.8 39.7 L184.6 39.9 L184.2 39.9 L184.4 40.3 L184.2 40.5 L183.8 40.5 L183.4 40.5 L183.1 40.6 L182.3 40.9 L181.9 41.0 L181.3 41.3 L180.6 42.0 L179.9 42.5 L179.0 42.2 L178.2 42.5 L177.7 42.6 L177.3 42.4 L177.4 42.3 L177.4 42.3 L177.5 42.2 L176.7 41.9 L176.2 42.3 L176.1 42.4 L175.9 42.4 L175.7 42.0 L175.5 41.7 L175.2 41.4 L175.3 41.1 L174.9 41.0 L174.7 40.8 L174.5 40.6 L174.5 40.3 L173.4 40.1 L173.1 40.0 L172.9 40.2 L172.6 40.2 L172.3 40.3 L172.1 40.5 L171.7 40.4 L171.0 40.4 L170.5 40.6 L170.0 41.1 L169.0 41.8 L168.7 41.9 L169.0 42.1 L169.1 42.3 L169.1 42.5 L168.6 42.6 L168.5 42.7 L168.5 42.8 L168.6 42.9 L168.7 43.0 L169.1 43.0 L169.3 43.0 L166.4 44.4 L164.0 45.4 L163.2 45.5 L162.2 45.5 L161.2 45.3 L158.6 44.3 L158.2 44.2 L157.9 44.1 L157.2 44.2 L155.9 44.6 L155.4 44.8 L154.9 45.2 L154.6 45.5 L154.5 46.1 L154.7 46.6 L155.1 47.0 L155.6 47.1 L155.9 47.3 L156.3 47.7 L156.6 48.2 L156.8 48.6 L156.9 48.6 L157.7 49.1 L158.0 49.2 L158.4 49.3 L158.7 49.2 L159.0 49.1 L159.1 49.4 L159.6 49.7 L159.6 49.9 L159.4 50.0 L157.8 50.2 L157.5 50.4 L157.4 50.9 L157.6 51.5 L158.5 52.6 L158.7 52.8 L159.5 53.0 L159.6 53.1 L160.5 53.3 L160.7 53.4 L161.0 53.3 L161.6 53.2 L161.8 53.1 L161.8 52.9 L161.7 52.6 L161.3 52.1 L161.5 52.0 L161.3 51.8 L161.8 51.8 L162.2 52.2 L162.7 53.1 L163.0 53.3 L163.5 53.7 L164.0 53.9 L164.5 53.7 L164.7 53.8 L165.4 54.0 L165.6 54.0 L165.8 54.1 L166.1 54.6 L166.2 54.8 L166.9 54.8 L167.6 55.4 L168.9 56.8 L170.3 57.9 L170.5 58.6 L169.8 59.0 L168.8 59.2 L168.4 59.1 L168.2 58.8 L168.1 58.4 L167.7 58.1 L167.3 58.0 L167.0 57.8 L166.4 57.1 L165.9 56.4 L165.4 55.7 L164.5 55.4 L162.6 55.2 L162.0 54.9 L161.4 54.6 L160.6 54.0 L160.1 53.7 L159.8 53.6 L158.9 53.7 L158.1 53.5 L157.7 53.5 L156.5 54.0 L156.0 54.1 L155.4 53.8 L155.3 54.0 L155.1 54.2 L155.1 54.1 L154.7 54.6 L154.5 55.0 L154.6 55.3 L154.9 56.1 L155.0 56.2 L155.2 56.3 L156.0 56.7 L156.1 57.1 L156.5 57.4 L156.8 57.6 L156.9 57.5 L158.5 58.1 L158.8 58.0 L159.2 58.1 L159.5 58.4 L159.8 58.6 L160.2 58.8 L161.1 59.1 L161.3 59.3 L161.3 59.5 L161.0 59.7 L161.0 60.0 L161.1 60.1 L161.6 60.3 L161.6 60.5 L161.6 60.7 L161.4 60.7 L161.2 60.7 L161.2 60.8 L161.2 61.1 L161.4 61.2 L161.6 61.2 L161.8 61.0 L161.8 61.3 L161.8 61.4 L161.9 61.6 L162.0 61.7 L161.4 62.1 L161.3 62.3 L161.5 62.5 L161.5 62.6 L161.1 62.6 L160.8 62.8 L160.9 62.9 L161.3 62.9 L161.3 63.1 L160.2 63.1 L159.7 63.0 L159.8 62.8 L159.8 62.6 L159.6 62.6 L159.4 62.7 L159.3 62.7 L159.2 62.6 L159.3 62.3 L158.5 62.0 L158.3 61.9 L158.2 61.7 L158.0 61.5 L157.7 61.4 L157.5 61.5 L157.5 61.7 L157.6 61.8 L156.7 60.8 L156.6 60.5 L156.8 60.1 L156.8 59.9 L156.7 59.8 L156.5 59.7 L156.3 59.5 L156.2 59.3 L156.1 59.2 L154.1 57.1 L153.3 56.7 L152.9 56.6 L151.0 56.4 L149.7 55.9 L148.7 55.7 L147.8 55.7 L147.0 56.1 L146.4 56.8 L146.4 57.3 L146.6 57.7 L146.8 58.0 L146.9 58.5 L147.0 58.6 L147.1 58.7 L147.6 58.7 L147.8 58.8 L148.0 58.9 L148.2 59.2 L149.4 60.5 L150.1 61.1 L152.4 62.1 L154.0 62.4 L154.0 62.5 L154.0 62.7 L154.1 62.9 L154.3 63.2 L154.6 63.4 L155.0 63.5 L155.4 63.6 L155.8 63.6 L155.6 63.8 L155.2 64.0 L154.7 64.0 L152.8 63.8 L149.4 62.7 L148.9 62.6 L147.2 62.8 L146.9 62.9 L147.0 62.7 L147.3 62.3 L147.4 62.0 L147.3 61.8 L147.0 61.4 L146.9 61.3 L146.7 60.7 L146.3 60.3 L145.9 60.0 L145.7 59.7 L146.0 58.9 L146.1 58.0 L145.9 57.2 L145.5 56.7 L144.6 56.3 L144.1 56.1 L143.2 56.0 L142.8 55.8 L142.5 55.6 L142.1 55.7 L140.9 55.0 L140.6 55.0 L140.4 54.9 L139.9 54.8 L139.3 54.6 L138.9 54.0 L137.8 53.4 L137.4 53.2 L137.0 53.2 L136.1 53.2 L136.3 52.8 L136.1 52.5 L135.5 51.8 L135.5 51.8 L135.6 51.8 L135.6 51.8 L135.6 51.7 L134.8 50.9 L134.6 50.6 L135.1 50.4 L136.5 50.3 L137.3 50.2 L137.7 50.0 L137.8 49.8 L138.1 49.6 L138.3 49.4 L138.1 49.0 L137.6 48.7 L137.4 48.7 L137.3 48.6 L137.4 48.5 L137.5 48.2 L137.1 47.6 L136.6 47.3 L136.0 47.2 L135.3 47.4 L135.5 47.9 L135.4 48.2 L135.2 48.5 L135.0 48.7 L134.6 48.8 L134.4 48.9 L134.4 49.0 L134.0 49.0 L133.8 48.9 L133.6 48.8 L133.1 49.1 L132.8 49.3 L132.8 49.7 L132.9 50.1 L132.8 50.1 L132.6 49.9 L132.6 50.3 L132.5 50.3 L132.5 50.1 L132.3 50.1 L132.2 50.4 L132.0 50.3 L131.8 50.2 L131.5 50.1 L131.5 50.0 L131.2 50.0 L130.8 50.2 L130.8 50.5 L131.2 50.7 L131.0 50.7 L130.9 50.8 L130.8 50.9 L130.8 51.1 L130.7 51.2 L130.5 51.2 L130.1 51.0 L129.6 51.0 L129.3 51.1 L129.0 51.3 L129.4 51.6 L129.6 51.9 L129.7 52.3 L129.6 52.6 L129.9 52.8 L130.1 53.0 L130.4 53.3 L130.8 53.4 L130.9 53.6 L130.6 54.1 L130.0 54.9 L129.3 56.5 L129.3 56.8 L128.4 58.2 L128.3 58.8 L128.5 59.1 L128.8 59.5 L128.9 60.0 L128.8 60.6 L128.8 60.8 L129.1 60.9 L129.2 61.0 L129.5 61.7 L130.7 62.5 L130.9 62.5 L131.0 62.6 L131.6 62.8 L131.7 62.9 L131.8 62.9 L132.0 62.9 L132.0 63.0 L132.0 63.4 L132.0 63.5 L132.0 63.6 L132.3 64.4 L132.5 64.7 L132.7 64.9 L133.6 65.5 L134.1 65.7 L134.4 66.0 L135.0 66.5 L135.2 66.8 L135.4 67.2 L135.6 67.7 L135.6 68.2 L135.7 68.5 L136.4 69.9 L136.9 71.2 L137.3 71.6 L137.6 71.9 L138.8 72.5 L139.9 72.9 L140.8 73.4 L140.9 73.4 L141.0 73.5 L141.3 74.2 L141.5 74.5 L143.5 76.2 L143.8 76.7 L144.9 77.5 L145.3 78.8 L146.5 80.5 L146.5 80.8 L146.3 80.9 L145.5 81.5 L145.1 81.6 L144.2 81.7 L143.8 81.8 L143.5 81.9 L143.6 82.0 L143.7 82.0 L143.8 82.1 L143.9 82.1 L143.9 82.2 L143.7 82.3 L143.6 82.3 L143.4 82.4 L143.3 82.5 L143.0 82.5 L142.5 82.5 L142.0 82.6 L141.7 82.8 L141.3 82.9 L140.8 82.9 L139.8 82.7 L140.1 82.4 L140.3 82.1 L140.2 81.8 L140.5 81.6 L141.3 81.3 L141.3 81.6 L141.0 82.5 L142.6 81.8 L142.8 81.6 L142.7 81.4 L142.8 81.3 L143.0 81.3 L143.1 81.4 L143.2 81.5 L143.4 81.3 L143.5 81.1 L143.6 80.8 L143.5 80.6 L142.9 79.8 L142.7 79.6 L142.8 79.2 L142.5 78.8 L142.1 78.4 L141.7 78.1 L141.3 77.9 L140.9 77.8 L139.1 77.7 L139.1 77.6 L139.1 77.5 L139.1 77.4 L139.0 77.2 L138.7 76.9 L138.6 76.8 L138.4 76.7 L137.8 76.8 L137.3 76.6 L137.2 76.7 L137.3 76.9 L137.3 77.1 L137.1 77.2 L137.0 77.5 L137.1 77.8 L137.3 78.0 L136.8 78.1 L135.9 78.2 L135.1 78.3 L134.7 78.7 L134.6 79.6 L134.7 79.9 L135.3 81.3 L135.5 81.3 L135.6 81.0 L135.9 80.8 L135.8 80.6 L136.0 80.6 L136.1 80.7 L136.3 81.0 L136.4 80.8 L136.6 81.2 L136.7 81.6 L136.8 82.1 L137.2 82.4 L137.2 82.3 L137.2 82.2 L137.3 82.2 L137.3 82.2 L137.3 82.1 L137.2 81.9 L137.8 82.2 L138.0 82.6 L138.3 83.0 L138.6 83.3 L138.5 83.6 L138.5 83.7 L138.6 83.8 L137.9 84.1 L137.7 84.3 L137.8 84.7 L139.0 84.2 L139.6 84.0 L140.3 84.0 L140.3 84.1 L140.1 84.3 L139.4 84.6 L139.2 84.7 L139.1 84.9 L138.9 85.4 L138.8 85.5 L138.7 85.7 L138.6 85.8 L138.5 85.8 L138.3 86.0 L138.2 86.0 L137.8 85.9 L137.7 86.0 L137.5 86.1 L137.4 86.1 L137.2 86.1 L137.3 86.4 L137.3 86.5 L137.0 86.5 L136.6 86.7 L136.3 86.8 L136.1 86.7 L135.8 86.6 L135.4 86.6 L135.1 86.6 L135.0 86.8 L134.9 87.3 L134.8 87.4 L134.2 87.4 L134.0 87.5 L133.9 87.7 L133.6 87.7 L133.0 87.8 L132.5 87.8 L132.3 87.6 L132.2 87.4 L132.0 87.5 L131.5 87.7 L131.3 87.7 L131.0 87.5 L130.8 87.4 L130.8 87.3 L130.0 86.9 L129.8 86.9 L129.4 87.1 L129.2 87.3 L129.1 87.4 L128.8 87.4 L128.6 87.4 L128.4 87.5 L128.2 87.6 L128.1 87.7 L128.0 87.7 L127.8 87.5 L127.8 88.2 L128.9 88.0 L128.9 88.2 L128.4 88.4 L128.7 88.7 L129.1 88.8 L129.4 88.5 L129.5 88.5 L129.4 88.8 L129.7 88.8 L130.0 88.7 L130.2 88.7 L130.4 88.8 L131.6 88.4 L131.8 88.3 L132.4 89.1 L132.9 89.5 L133.1 89.6 L133.4 89.8 L133.6 89.9 L133.8 89.9 L134.2 89.8 L134.4 89.7 L134.7 89.8 L135.1 90.0 L135.4 90.3 L135.6 90.5 L136.1 90.2 L136.3 90.1 L136.7 90.1 L137.0 90.1 L137.4 90.5 L137.7 90.5 L139.0 90.5 L139.6 90.7 L140.0 91.2 L140.7 93.0 L141.0 93.2 L141.5 93.2 L141.7 93.2 L142.0 93.0 L142.2 92.9 L142.5 92.9 L142.8 92.8 L143.1 92.6 L142.7 92.3 L142.5 92.3 L142.9 92.1 L143.3 92.2 L144.1 92.6 L144.5 92.7 L145.2 92.7 L145.7 92.9 L146.0 93.1 L146.2 93.4 L146.3 93.7 L146.3 94.0 L146.0 94.2 L145.7 94.3 L145.4 94.6 L145.2 95.1 L145.4 94.8 L145.7 94.8 L146.0 94.9 L146.2 95.2 L146.4 95.3 L147.1 95.4 L147.4 95.6 L147.4 95.7 L147.2 95.8 L146.7 95.8 L146.4 95.9 L146.2 96.0 L146.2 96.2 L146.3 96.3 L146.7 96.3 L148.2 96.3 L150.5 96.6 L150.8 96.4 L151.1 96.1 L151.6 96.3 L152.4 97.0 L151.9 97.2 L151.8 97.3 L151.8 97.4 L152.1 97.5 L152.3 97.6 L152.4 97.7 L152.2 97.9 L152.2 98.1 L153.0 98.3 L154.0 99.6 L154.9 100.1 L155.2 100.1 L156.5 99.9 L157.1 100.2 L157.3 100.2 L159.5 101.0 L160.0 101.0 L160.4 101.1 L160.8 101.4 L161.3 102.0 L162.4 102.7 L162.6 102.8 L162.7 103.0 L163.1 103.1 L163.2 103.3 L163.2 103.5 L163.1 103.7 L163.1 103.8 L163.4 104.0 L163.1 104.1 L163.0 104.3 L162.9 104.5 L162.9 104.8 L162.7 104.5 L162.4 104.5 L161.3 105.0 L161.3 105.5 L161.6 106.4 L161.7 106.9 L162.0 107.2 L162.2 107.4 L162.3 107.6 L162.2 107.8 L161.9 108.3 L161.8 108.6 L161.8 108.8 L161.9 109.0 L161.9 109.2 L161.8 109.5 L162.1 109.5 L162.3 109.6 L162.5 109.7 L162.6 110.0 L162.5 110.1 L161.8 110.3 L162.0 110.4 L162.2 110.5 L162.4 110.6 L162.7 110.6 L162.6 110.8 L162.7 110.8 L163.1 110.9 L162.9 111.1 L162.9 111.3 L162.9 111.4 L163.1 111.5 L162.9 111.6 L162.8 111.6 L162.8 111.7 L162.7 111.9 L163.3 112.1 L163.5 112.3 L163.5 112.7 L163.5 113.2 L163.4 113.5 L162.9 113.9 L163.2 114.0 L163.2 114.2 L162.9 114.2 L162.9 114.4 L163.0 114.4 L163.1 114.4 L163.0 114.6 L163.1 114.7 L163.0 114.6 L163.0 114.6 L163.0 114.6 L162.9 114.7 L163.2 114.9 L163.0 115.2 L162.6 115.4 L162.3 115.8 L162.0 115.6 L161.1 115.3 L160.8 115.3 L160.4 115.2 L160.2 114.9 L160.2 114.0 L160.1 114.0 L159.8 114.2 L159.5 113.8 L159.3 112.8 L159.2 112.9 L159.0 113.0 L158.8 112.6 L158.5 112.2 L158.0 112.0 L157.7 112.0 L157.6 111.9 L157.5 111.9 L157.5 111.8 L157.4 111.7 L157.3 111.7 L157.1 112.2 L156.9 112.2 L156.6 112.1 L156.5 112.3 L156.4 112.2 L156.4 112.1 L156.4 112.0 L156.1 112.0 L156.3 111.7 L156.2 111.5 L155.7 111.1 L155.6 110.6 L154.7 109.5 L154.6 109.2 L154.2 109.0 L153.8 109.1 L153.4 109.3 L153.0 109.3 L153.0 109.2 L153.0 109.2 L153.2 109.1 L153.3 109.0 L153.3 108.9 L153.0 109.0 L152.8 108.9 L152.6 108.7 L152.3 108.6 L152.0 108.6 L151.7 108.5 L151.5 108.4 L151.3 108.2 L152.1 107.7 L152.3 107.3 L152.2 106.9 L152.0 106.7 L151.8 106.7 L151.7 106.8 L151.5 106.8 L150.6 106.8 L150.4 106.9 L150.2 107.0 L150.1 107.1 L150.0 107.1 L149.4 107.2 L149.2 107.2 L148.9 107.3 L148.1 107.9 L147.7 108.1 L148.5 108.2 L148.0 108.4 L146.2 108.2 L143.8 108.4 L143.0 108.7 L142.3 109.2 L141.9 109.4 L140.8 109.8 L139.8 109.5 L139.6 109.6 L139.4 109.6 L139.3 109.5 L139.0 109.5 L138.9 109.6 L138.9 109.9 L138.9 110.2 L138.7 110.3 L138.5 110.5 L138.6 110.9 L138.9 111.3 L139.4 111.2 L139.8 111.4 L140.3 111.4 L140.9 111.4 L141.3 111.2 L142.0 111.8 L142.4 112.0 L142.8 112.2 L142.7 112.4 L142.7 112.6 L142.7 112.8 L142.8 113.0 L142.5 113.0 L142.1 113.2 L141.6 113.3 L141.5 113.4 L141.5 113.5 L141.4 113.7 L142.0 114.1 L142.3 114.2 L142.7 114.2 L142.5 114.7 L142.4 115.1 L142.5 115.4 L142.7 115.9 L142.4 115.9 L142.4 116.4 L142.5 116.6 L143.0 116.8 L143.9 117.4 L144.1 117.2 L144.9 117.8 L145.0 117.9 L145.2 117.9 L145.3 118.0 L145.8 118.3 L146.0 118.4 L146.4 118.4 L146.9 118.2 L146.9 117.5 L146.4 116.9 L145.8 116.7 L145.8 116.6 L146.2 116.3 L146.6 116.2 L147.8 116.1 L148.0 116.4 L147.9 117.0 L147.6 117.6 L147.2 118.0 L147.4 118.2 L147.7 118.3 L148.0 118.4 L148.3 118.4 L148.3 118.6 L147.9 118.7 L147.7 118.7 L147.7 118.9 L147.9 118.9 L148.0 119.0 L148.6 119.1 L149.1 119.3 L149.6 119.5 L150.7 120.2 L150.6 120.3 L150.5 120.3 L150.6 120.4 L150.7 120.5 L150.7 120.6 L150.2 120.8 L148.9 121.2 L148.8 121.2 L146.0 121.3 L145.7 121.3 L145.7 121.3 L145.7 121.4 L145.7 121.5 L145.8 121.6 L145.0 121.5 L144.7 121.5 L144.7 121.7 L143.9 121.9 L143.9 122.1 L144.1 122.2 L144.3 122.2 L144.5 122.2 L144.4 122.4 L144.4 122.5 L144.6 122.5 L145.0 122.7 L144.7 122.8 L144.2 122.8 L143.4 122.8 L142.9 122.9 L142.9 123.1 L143.1 123.4 L143.3 123.8 L142.8 123.8 L142.5 123.8 L142.2 123.7 L141.9 123.6 L141.9 123.4 L142.4 123.4 L142.4 123.3 L142.1 123.2 L141.8 123.3 L141.5 123.3 L141.3 123.0 L141.7 123.1 L141.6 122.9 L141.5 122.8 L141.0 122.5 L140.8 122.7 L140.5 122.7 L140.3 122.6 L140.3 122.5 L140.3 121.8 L140.3 121.5 L140.6 121.7 L140.8 121.8 L141.1 121.6 L141.2 121.3 L141.3 120.9 L141.8 121.2 L141.9 121.3 L141.9 121.1 L141.8 120.9 L141.7 120.8 L141.7 120.6 L141.7 120.4 L141.5 120.4 L141.4 120.3 L141.2 120.2 L140.9 120.1 L140.1 120.3 L139.7 120.2 L140.0 120.0 L139.7 119.5 L139.1 119.8 L138.9 119.9 L138.8 120.2 L138.4 119.3 L138.2 119.0 L137.8 118.7 L137.7 118.7 L137.5 118.8 L137.3 118.7 L137.3 118.7 L137.2 118.6 L137.2 118.5 L137.2 118.4 L136.9 118.3 L136.7 118.3 L136.4 118.3 L136.7 118.4 L136.8 118.4 L136.9 118.6 L136.4 118.4 L136.0 118.5 L135.7 118.7 L135.3 118.9 L135.2 118.8 L134.5 118.4 L134.6 118.3 L134.7 118.1 L134.4 118.0 L134.1 117.8 L134.0 117.7 L134.1 117.5 L133.8 117.2 L133.6 117.0 L133.1 117.2 L132.7 117.4 L132.4 117.7 L132.3 118.3 L132.4 118.4 L132.6 118.7 L132.6 118.8 L132.6 119.0 L132.5 119.2 L132.5 119.4 L132.6 119.6 L132.7 119.8 L132.8 119.9 L132.9 120.0 L133.0 120.1 L132.9 120.6 L133.0 120.6 L133.3 120.8 L133.3 121.0 L133.1 121.3 L133.1 121.6 L134.3 122.7 L134.5 122.8 L134.4 123.1 L134.7 123.1 L134.7 123.3 L134.5 123.3 L134.5 123.4 L134.8 123.6 L135.3 124.4 L135.5 124.8 L136.3 126.0 L136.3 126.0 L136.5 126.2 L136.6 126.5 L136.5 126.6 L136.4 126.7 L136.3 127.0 L136.3 127.6 L136.4 127.9 L136.9 128.0 L137.3 127.9 L137.7 127.8 L137.7 128.0 L137.7 128.0 L137.8 128.1 L137.8 128.2 L137.7 128.2 L137.7 128.3 L137.8 128.3 L137.7 128.5 L138.0 128.6 L138.2 128.8 L138.2 128.9 L137.8 128.8 L138.0 129.2 L138.6 129.9 L138.6 130.2 L138.8 130.6 L138.9 131.0 L138.8 131.0 L138.6 131.0 L138.4 131.0 L138.5 131.1 L138.7 131.3 L138.8 131.4 L138.8 131.4 L138.8 131.3 L138.8 131.3 L138.9 131.3 L139.0 131.5 L139.0 131.7 L139.0 131.9 L138.9 132.1 L139.1 132.4 L139.6 133.3 L139.8 133.5 L139.7 133.7 L140.0 134.1 L140.6 134.6 L140.8 134.8 L140.8 135.1 L140.8 135.3 L140.5 135.4 L140.5 135.5 L140.7 135.5 L140.9 135.6 L141.3 135.7 L141.2 135.9 L140.9 136.0 L140.8 136.2 L140.8 136.3 L140.8 136.4 L140.8 136.4 L140.8 136.5 L140.7 136.8 L140.4 136.8 L140.1 136.6 L139.8 136.5 L139.6 136.7 L139.4 137.0 L139.2 137.2 L139.5 137.4 L139.5 137.5 L139.4 137.6 L139.4 137.7 L140.0 137.7 L139.4 138.1 L139.5 138.7 L139.8 139.3 L140.3 139.9 L140.5 140.3 L140.6 140.4 L141.0 140.5 L141.3 140.7 L141.7 140.9 L141.8 141.0 L141.9 141.1 L142.0 141.2 L142.2 141.2 L142.0 141.3 L141.9 141.3 L141.9 141.5 L142.0 141.6 L142.0 141.7 L141.9 141.8 L141.7 141.9 L142.1 142.4 L142.8 142.8 L143.3 143.1 L143.1 143.7 L142.4 143.4 L142.1 143.6 L141.8 143.6 L140.8 143.4 L140.6 143.2 L140.4 142.9 L140.2 142.7 L140.2 142.6 L140.3 142.3 L140.1 141.9 L139.8 141.6 L139.5 141.5 L138.5 141.7 L138.0 141.7 L137.8 141.4 L137.7 141.0 L137.2 140.1 L137.0 139.9 L136.8 139.7 L135.8 139.1 L136.1 138.9 L136.0 138.6 L135.1 137.9 L134.9 137.9 L134.8 138.0 L134.5 138.3 L134.4 138.2 L134.4 138.0 L134.5 137.5 L134.5 137.1 L134.3 136.6 L134.1 135.8 L133.8 135.4 L133.3 135.2 L132.6 135.1 L131.5 135.0 L130.0 135.2 L129.0 135.6 L129.0 136.6 L128.3 137.1 L128.0 137.4 L127.8 137.9 L128.1 137.9 L128.4 138.0 L128.4 138.3 L128.4 138.7 L128.3 138.7 L128.2 138.5 L128.1 138.3 L128.0 138.2 L127.8 138.2 L127.6 138.3 L127.5 138.5 L127.4 138.7 L127.5 138.8 L127.9 139.1 L127.8 139.5 L127.5 139.8 L127.3 139.3 L127.0 139.4 L126.8 139.7 L126.8 141.0 L126.9 141.5 L127.0 142.0 L127.5 142.9 L127.4 143.0 L127.5 143.2 L127.2 143.4 L127.1 143.6 L127.1 143.9 L127.3 144.1 L127.3 144.3 L127.1 144.3 L127.1 144.3 L127.0 144.5 L127.0 144.6 L126.8 144.4 L126.7 144.0 L126.6 143.5 L126.5 143.2 L126.2 143.0 L125.4 142.7 L125.1 142.4 L125.0 142.4 L124.7 142.6 L124.5 142.6 L124.3 142.4 L124.1 142.2 L123.9 141.8 L123.9 141.6 L124.0 141.3 L124.2 141.0 L124.5 141.1 L124.7 140.8 L124.6 140.5 L124.3 140.2 L124.4 140.1 L124.7 139.8 L124.2 139.8 L124.2 139.5 L124.2 139.1 L124.3 138.9 L124.7 138.8 L124.7 138.7 L124.2 138.5 L124.3 138.1 L124.7 137.4 L124.0 137.5 L123.5 136.9 L123.2 136.2 L122.8 135.8 L122.8 135.4 L122.4 134.8 L120.8 133.0 L120.4 132.8 L119.8 133.2 L119.2 132.8 L118.9 132.6 L118.8 132.2 L118.9 132.2 L119.0 132.1 L119.1 131.9 L119.2 131.7 L119.2 131.4 L119.3 131.0 L119.3 130.4 L119.3 130.2 L117.7 129.9 L116.9 129.9 L116.5 130.0 L115.6 130.4 L114.7 130.6 L114.5 130.8 L114.3 131.1 L114.1 133.3 L114.0 133.6 L114.0 133.8 L114.1 134.1 L114.2 134.3 L114.3 134.5 L114.1 134.7 L114.5 135.0 L114.8 135.2 L115.1 135.2 L115.1 135.4 L114.8 135.4 L114.5 135.5 L114.4 135.6 L114.5 135.8 L114.3 136.0 L113.4 136.7 L113.2 136.9 L113.1 136.9 L112.9 136.9 L112.5 136.3 L112.4 136.2 L111.7 135.1 L111.3 135.1 L111.0 135.1 L110.4 135.4 L110.1 135.1 L109.6 135.0 L109.4 134.7 L109.3 134.7 L109.1 134.8 L109.0 134.7 L108.8 134.4 L108.6 134.1 L108.7 133.9 L108.7 133.7 L108.7 133.5 L108.6 133.2 L108.7 133.0 L109.0 132.6 L109.1 132.4 L109.1 132.0 L109.0 131.7 L108.6 131.5 L108.2 131.6 L108.4 131.5 L108.5 131.4 L108.5 131.3 L108.3 131.3 L108.2 131.3 L108.0 131.6 L107.9 130.8 L107.3 130.2 L106.6 129.6 L106.1 128.9 L105.9 128.0 L105.9 127.1 L106.0 126.3 L106.4 125.6 L107.9 124.7 L108.5 124.2 L108.8 123.4 L108.7 122.5 L108.5 122.0 L108.3 121.6 L106.8 119.3 L105.9 118.2 L105.5 117.8 L103.5 116.7 L103.0 116.5 L102.8 116.3 L102.3 115.9 L102.1 115.7 L100.8 115.4 L100.3 115.5 L100.2 116.1 L100.0 116.1 L100.0 115.9 L100.0 115.6 L99.9 115.4 L99.7 115.3 L100.0 114.8 L100.1 114.4 L100.0 114.1 L99.7 113.0 L99.4 112.7 L99.1 112.5 L98.1 112.1 L95.7 111.5 L95.5 111.4 L95.4 111.1 L95.4 110.8 L95.3 110.6 L96.0 109.0 L96.1 109.0 L96.7 109.4 L97.7 109.0 L98.7 108.3 L99.2 107.8 L99.6 107.9 L99.8 107.7 L100.1 107.5 L100.4 107.3 L100.4 107.1 L100.3 107.1 L100.2 107.1 L100.2 107.1 L100.2 107.0 L100.0 107.1 L99.7 107.2 L99.5 107.3 L99.4 107.5 L100.4 106.2 L100.5 106.1 L101.3 105.0 L101.4 104.8 L101.4 104.5 L101.5 103.1 L101.5 102.8 L101.7 103.0 L102.0 103.4 L102.2 103.5 L102.2 103.3 L102.2 103.1 L102.1 102.9 L102.2 103.0 L102.5 103.2 L102.9 103.2 L103.4 103.2 L103.7 103.3 L104.9 104.0 L106.7 104.3 L107.1 104.3 L107.6 104.1 L108.3 103.7 L108.9 103.1 L109.9 101.6 L110.4 101.0 L112.1 100.2 L112.3 100.0 L113.8 100.2 L114.3 100.2 L114.6 100.2 L114.8 100.1 L115.0 100.3 L115.3 100.4 L115.6 100.5 L116.0 100.6 L116.2 100.6 L116.4 100.8 L116.5 101.1 L116.6 101.3 L116.9 101.5 L117.6 101.8 L117.8 101.8 L118.0 101.8 L118.3 101.7 L118.4 101.7 L118.6 101.8 L118.7 101.9 L118.9 102.0 L119.1 102.1 L119.3 102.7 L119.5 102.9 L119.7 103.0 L120.5 103.2 L120.6 103.3 L120.6 103.4 L120.8 103.5 L121.0 103.5 L121.7 103.5 L122.7 103.7 L122.9 103.9 L123.4 103.7 L123.7 103.9 L124.1 104.2 L124.8 104.4 L125.0 104.6 L125.3 104.6 L125.5 104.6 L125.7 104.5 L127.5 104.8 L130.0 105.9 L131.3 106.3 L131.5 106.4 L131.8 106.5 L133.6 107.8 L134.0 108.3 L134.1 108.4 L134.6 108.5 L135.3 109.0 L135.6 109.2 L136.0 109.2 L136.3 109.2 L136.9 109.0 L137.1 109.0 L137.2 109.0 L137.4 109.0 L137.6 109.0 L138.0 108.4 L138.1 108.3 L137.9 108.0 L137.5 107.7 L137.3 107.6 L136.9 107.5 L136.3 107.2 L135.9 107.1 L136.0 107.1 L136.1 107.0 L135.3 107.0 L135.8 106.7 L136.0 106.6 L136.3 106.5 L136.6 106.4 L137.1 106.0 L137.3 105.9 L138.0 105.9 L139.1 106.3 L139.5 106.2 L140.2 106.5 L141.0 106.4 L142.6 106.0 L143.0 105.6 L143.4 105.6 L143.6 105.4 L143.5 105.2 L143.1 104.9 L142.7 104.8 L142.7 104.7 L142.7 104.5 L143.0 104.5 L143.5 104.4 L143.8 104.3 L143.8 104.2 L143.5 104.1 L141.9 104.0 L141.6 103.9 L142.1 103.5 L141.5 103.0 L141.2 103.0 L140.4 103.6 L140.2 103.6 L139.4 103.5 L139.4 103.4 L139.8 103.4 L139.5 103.0 L139.2 102.8 L138.9 102.8 L137.6 102.6 L137.1 102.7 L136.9 103.1 L137.2 103.0 L137.5 103.0 L137.8 103.1 L138.0 103.4 L137.6 103.4 L136.9 103.3 L136.6 103.4 L136.3 102.3 L136.1 102.3 L135.9 102.6 L135.9 102.5 L135.8 102.4 L135.8 102.3 L135.4 102.4 L134.5 102.5 L134.2 102.6 L133.3 102.1 L133.5 101.9 L133.9 101.6 L134.1 101.3 L133.6 101.2 L132.8 101.0 L132.2 100.7 L131.9 100.6 L131.7 100.6 L131.6 100.4 L131.2 99.9 L131.4 99.5 L131.1 99.1 L130.6 98.9 L130.1 99.3 L130.5 99.3 L130.6 99.5 L130.3 99.7 L130.0 99.5 L129.8 99.5 L129.5 99.7 L129.3 99.9 L129.2 100.1 L129.2 100.2 L129.3 100.3 L129.4 100.3 L129.5 100.4 L129.6 100.4 L129.6 100.6 L129.5 100.6 L129.5 100.7 L129.5 100.8 L129.5 100.9 L129.2 101.1 L129.0 101.2 L128.6 101.1 L128.3 100.9 L128.2 100.8 L128.0 100.4 L127.9 100.4 L127.9 100.3 L127.8 100.2 L127.9 100.2 L128.1 100.1 L127.8 99.6 L126.7 98.5 L126.5 98.2 L126.4 98.1 L126.3 98.0 L126.0 98.0 L125.0 97.4 L125.0 97.7 L125.1 98.1 L125.1 98.3 L124.5 98.7 L124.3 98.8 L124.5 99.0 L124.6 99.1 L124.7 99.1 L124.8 99.0 L124.9 99.2 L124.8 99.4 L124.7 99.5 L124.5 99.6 L124.7 99.8 L124.5 100.0 L124.2 100.0 L123.7 99.9 L123.2 99.8 L122.3 99.9 L122.2 99.7 L121.9 99.6 L121.6 99.5 L121.3 99.6 L121.2 99.6 L120.9 99.6 L120.6 99.7 L120.3 100.0 L120.1 100.4 L119.9 100.3 L119.8 99.9 L119.6 99.8 L119.4 99.7 L119.2 99.7 L119.1 99.7 L119.2 99.5 L118.8 99.3 L118.1 99.1 L116.9 98.7 L116.5 98.7 L116.0 98.8 L115.5 98.4 L114.8 98.4 L114.1 98.6 L113.2 99.1 L113.0 99.2 L112.7 99.2 L112.5 99.1 L112.4 98.9 L112.3 98.8 L112.1 98.7 L111.9 98.7 L110.8 99.5 L110.6 99.7 L110.6 100.2 L110.3 100.3 L109.9 100.1 L109.3 99.6 L107.9 99.6 L107.6 99.7 L107.2 99.8 L106.9 99.9 L106.6 99.8 L105.1 100.6 L104.9 101.0 L104.7 101.0 L104.5 100.9 L104.2 100.8 L103.9 100.8 L103.8 100.8 L103.6 100.6 L102.7 100.2 L103.1 100.2 L103.4 100.3 L103.8 100.6 L104.1 100.7 L104.1 100.6 L104.0 100.5 L103.9 100.4 L104.0 100.3 L104.1 100.1 L103.9 100.0 L103.8 99.9 L103.8 99.8 L103.9 99.7 L104.1 99.6 L103.6 99.6 L103.8 99.3 L103.6 99.4 L103.4 99.4 L103.2 99.4 L103.0 99.3 L102.9 99.4 L102.8 99.4 L102.6 99.5 L102.7 99.0 L102.4 98.8 L102.0 98.7 L101.5 98.7 L101.4 98.5 L101.1 97.1 L100.7 96.6 L100.4 96.5 L100.3 96.4 L100.2 96.5 L100.0 96.5 L100.0 96.7 L101.0 97.9 L100.7 97.9 L100.7 98.0 L100.7 98.0 L100.8 98.0 L100.8 98.1 L100.7 98.3 L100.7 98.5 L100.6 98.7 L100.4 98.8 L100.2 98.9 L99.7 99.1 L99.6 99.2 L99.6 99.3 L99.6 99.3 L99.7 99.3 L99.6 99.5 L99.2 99.3 L99.1 99.4 L99.0 99.5 L99.0 99.6 L99.1 99.7 L99.0 99.9 L98.6 100.1 L98.4 100.2 L98.2 100.3 L97.8 100.2 L97.6 100.2 L97.4 100.0 L97.2 100.0 L97.0 100.2 L97.2 100.3 L97.3 100.4 L97.5 100.4 L97.4 100.4 L97.1 100.5 L96.9 100.6 L96.9 100.9 L96.5 100.8 L96.3 100.6 L96.2 100.3 L96.1 100.1 L95.8 100.0 L95.1 100.0 L94.8 99.9 L95.1 99.8 L95.3 99.7 L95.4 99.6 L95.3 99.3 L95.1 99.4 L95.0 99.5 L95.2 99.1 L95.3 99.0 L95.3 99.2 L95.5 99.2 L95.8 99.1 L96.0 98.9 L96.1 98.7 L95.7 98.4 L95.5 98.4 L95.3 98.7 L95.1 98.6 L94.9 98.4 L94.8 98.2 L94.7 97.9 L94.8 97.9 L94.8 97.8 L94.8 97.8 L94.8 97.7 L95.1 98.0 L95.3 98.1 L95.6 98.0 L95.6 97.7 L95.3 97.9 L95.4 97.6 L95.2 97.2 L95.3 97.0 L95.3 96.8 L95.1 96.8 L95.0 96.7 L94.7 96.6 L94.9 96.5 L95.0 96.5 L95.2 96.5 L95.1 96.4 L94.9 96.4 L94.8 96.3 L95.1 96.0 L95.1 95.8 L95.1 95.6 L94.9 95.5 L94.7 95.6 L94.5 95.8 L94.3 95.9 L94.2 95.9 L94.0 96.1 L93.7 96.2 L93.6 96.1 L93.5 95.9 L93.3 95.6 L93.3 95.3 L93.5 94.4 L93.5 93.9 L93.0 93.5 L92.6 92.6 L92.4 92.4 L91.5 92.4 L91.2 92.3 L90.9 92.1 L90.8 91.8 L90.2 90.0 L90.0 89.6 L89.7 89.4 L89.4 89.5 L89.0 89.8 L88.7 90.1 L88.6 90.4 L88.4 90.1 L88.3 90.2 L88.1 90.3 L88.0 90.2 L87.7 90.4 L87.6 90.3 L87.6 90.1 L87.5 89.9 L86.7 89.4 L86.7 89.3 L86.9 89.0 L87.0 88.6 L87.2 88.2 L87.6 88.0 L88.1 88.0 L88.3 88.0 L88.4 88.0 L88.4 87.8 L88.2 87.7 L88.0 87.6 L87.5 87.4 L87.3 87.1 L87.3 86.6 L87.3 86.3 L87.6 85.9 L87.8 86.0 L87.9 86.4 L88.3 86.6 L88.7 86.7 L89.1 86.6 L89.5 86.2 L89.7 85.8 L89.8 85.8 L89.9 86.0 L89.9 86.1 L89.9 86.2 L89.8 86.3 L89.9 86.3 L90.0 86.4 L90.0 86.5 L89.8 86.6 L90.3 86.6 L90.7 86.6 L91.0 86.4 L91.1 86.0 L91.2 86.0 L91.5 86.2 L91.7 86.2 L92.0 86.1 L92.3 86.1 L92.6 86.2 L92.9 86.3 L93.1 86.4 L93.5 86.5 L93.6 86.6 L93.5 86.9 L93.5 87.3 L93.7 87.4 L94.0 87.5 L94.3 87.6 L94.8 88.0 L94.9 87.8 L94.9 87.7 L95.0 87.6 L95.2 87.5 L95.2 87.4 L95.0 87.1 L95.2 87.0 L95.7 87.0 L96.0 87.2 L96.6 87.7 L96.6 87.7 L96.7 87.8 L96.8 87.8 L97.0 87.8 L97.0 87.5 L96.9 87.4 L96.8 87.3 L96.7 87.0 L96.6 86.9 L96.5 87.0 L96.4 86.9 L96.1 86.5 L96.1 86.3 L96.3 86.0 L96.1 85.8 L96.2 85.6 L96.4 85.5 L96.6 85.5 L96.6 85.0 L96.0 84.4 L94.8 83.5 L94.7 83.6 L94.6 83.8 L94.6 83.9 L94.7 84.1 L94.4 84.0 L94.3 84.0 L94.2 84.1 L93.8 84.4 L94.2 84.7 L93.0 84.6 L93.0 84.4 L92.7 84.4 L92.4 84.2 L92.2 84.1 L92.1 84.0 L91.8 84.1 L91.6 84.0 L91.5 83.8 L91.4 83.6 L91.5 83.6 L91.5 83.5 L91.7 83.5 L91.7 83.3 L91.5 83.3 L91.3 83.4 L91.1 83.4 L90.8 83.4 L90.6 83.2 L90.5 83.2 L90.3 83.4 L89.9 83.6 L89.8 83.7 L89.9 83.9 L90.2 84.0 L90.3 84.1 L89.3 84.1 L89.7 84.0 L89.7 83.8 L89.6 83.6 L89.6 83.4 L89.4 83.5 L89.4 83.4 L89.4 83.3 L89.3 83.3 L89.4 83.3 L89.4 83.2 L89.2 83.1 L89.1 83.2 L89.0 83.2 L88.9 83.3 L89.2 82.8 L89.1 82.4 L88.8 82.3 L88.6 82.5 L88.4 82.4 L88.4 82.5 L88.2 82.7 L88.0 82.8 L87.8 82.8 L87.8 83.0 L88.1 83.1 L88.0 83.3 L88.0 83.5 L88.0 83.8 L87.8 84.0 L87.6 84.1 L87.4 84.2 L87.3 84.4 L87.0 84.3 L87.0 84.5 L87.1 84.6 L87.2 84.6 L87.3 84.6 L88.4 85.3 L88.9 85.4 L89.0 85.6 L89.0 85.8 L89.0 85.8 L88.8 85.8 L88.4 85.6 L87.7 85.4 L87.6 85.4 L87.3 85.5 L87.3 85.6 L87.1 85.9 L86.8 86.1 L86.7 85.9 L86.6 85.7 L86.5 85.5 L86.3 85.4 L86.2 85.3 L86.2 85.1 L86.2 85.1 L86.1 85.0 L86.1 85.0 L86.1 84.8 L86.2 84.7 L86.4 84.7 L86.4 84.6 L86.2 83.8 L85.7 83.3 L85.1 82.9 L84.4 82.5 L83.7 82.1 L81.9 80.3 L81.2 80.0 L81.0 79.8 L81.1 79.6 L80.9 79.4 L80.9 79.1 L80.9 78.8 L81.1 78.6 L81.1 78.5 L80.8 78.6 L80.5 78.6 L80.4 78.5 L80.3 78.3 L79.9 78.5 L79.6 78.4 L79.3 78.3 L79.0 78.1 L78.4 78.3 L77.5 78.0 L76.7 77.3 L76.7 76.6 L76.4 76.4 L76.2 76.1 L75.9 75.8 L75.4 75.8 L75.4 75.6 L75.6 75.6 L75.6 75.5 L75.4 75.3 L75.1 75.0 L75.0 74.9 L75.3 74.8 L75.8 74.8 L76.1 74.7 L76.1 74.4 L75.8 74.2 L75.0 73.7 L75.0 73.6 L75.3 73.6 L75.6 73.7 L75.9 73.7 L76.1 73.4 L76.1 73.3 L75.8 73.2 L75.4 73.0 L75.1 73.0 L75.1 73.3 L74.9 73.1 L74.6 73.0 L74.4 73.0 L74.6 72.8 L74.2 72.7 L73.8 72.7 L73.4 72.7 L73.1 72.8 L73.3 72.6 L73.3 72.4 L73.4 72.2 L73.4 71.9 L73.5 72.0 L73.7 72.0 L73.9 71.9 L74.0 71.7 L74.0 71.6 L74.0 71.4 L74.0 71.2 L74.1 71.2 L74.3 71.1 L74.3 71.1 L74.2 70.6 L73.8 70.4 L73.4 70.3 L73.2 70.2 L73.2 70.1 L72.8 69.9 L72.7 69.9 L72.4 69.8 L72.2 69.7 L72.1 69.5 L71.0 69.3 L70.5 69.2 L70.2 69.1 L70.1 69.1 L70.0 69.1 L70.4 68.9 L71.2 69.1 L72.1 69.3 L73.1 69.7 L73.8 70.2 L74.2 70.4 L74.6 70.3 L74.7 70.2 L74.7 70.0 L74.7 69.8 L74.9 69.7 L75.1 69.6 L75.2 69.6 L75.4 69.7 L75.6 69.8 L75.7 69.3 L76.1 69.0 L76.5 68.8 L76.8 68.5 L76.9 68.3 L76.8 68.1 L76.7 68.0 L76.6 67.8 L76.6 67.8 L76.4 67.6 L76.3 67.5 L76.4 67.5 L76.5 67.2 L76.5 67.1 L76.5 66.9 L76.3 66.8 L76.3 66.7 L76.4 66.5 L76.6 66.5 L76.8 66.5 L76.9 66.5 L77.7 66.8 L78.1 66.9 L78.5 67.0 L78.9 66.7 L79.1 66.2 L79.0 65.8 L78.0 64.5 L77.4 64.1 L77.3 63.9 L77.0 62.5 L76.8 62.3 L77.1 62.3 L78.3 62.3 L78.6 62.2 L78.7 61.8 L78.9 61.4 L79.2 61.0 L79.5 60.7 L79.9 60.6 L80.7 60.7 L81.0 60.5 L81.5 60.4 L82.7 60.6 L83.2 60.5 L84.1 60.2 L84.7 60.0 L84.8 59.9 L84.9 59.7 L85.3 59.0 L85.3 58.9 L85.2 58.5 L85.2 58.3 L85.1 58.1 L85.1 58.0 L85.2 57.8 L85.6 57.7 L85.7 57.7 L86.0 57.1 L86.0 56.7 L85.9 56.2 L86.0 55.7 L86.2 55.5 L86.4 55.3 L86.7 55.2 L86.9 55.1 L86.9 55.0 L87.3 54.3 L87.5 53.9 L87.6 53.8 L87.7 53.5 L87.7 53.2 L87.6 52.6 L87.6 52.4 L87.9 52.2 L88.3 52.1 L88.5 52.1 L88.7 51.8 L88.8 51.6 L88.9 51.4 L89.2 51.3 L89.8 51.2 L90.4 51.4 L90.9 51.5 L91.5 51.2 L91.7 51.0 L91.7 50.9 L91.8 50.8 L91.8 50.5 L91.9 50.3 L92.2 50.1 L92.5 50.1 L92.6 49.8 L92.8 49.7 L93.1 49.6 L93.2 49.5 L93.3 49.3 L93.4 49.1 L93.4 48.9 L93.4 48.6 L93.7 47.8 L93.7 47.4 L93.7 47.0 L93.6 46.6 L93.3 46.2 L92.7 45.7 L92.1 45.2 L92.0 45.0 L91.9 44.9 L91.8 44.7 L91.6 44.5 L92.0 44.2 L92.1 43.7 L92.1 42.6 Z M214.6 169.2 L214.4 169.6 L214.1 169.9 L213.7 170.2 L213.4 170.5 L213.8 171.7 L214.1 172.2 L214.6 171.9 L214.4 172.3 L214.0 172.6 L213.8 173.0 L214.0 173.3 L213.8 173.7 L213.6 174.1 L213.4 174.5 L213.1 174.8 L213.0 175.0 L212.8 175.5 L212.7 175.7 L212.4 175.7 L212.2 175.8 L212.0 175.9 L210.7 176.4 L210.3 176.5 L209.7 176.5 L209.7 176.4 L209.3 176.1 L209.2 176.0 L208.6 175.9 L208.2 176.0 L207.7 176.0 L207.3 175.7 L207.1 175.6 L206.9 175.5 L206.8 175.6 L206.6 175.7 L206.4 175.8 L205.5 175.7 L204.6 175.8 L202.9 176.3 L198.2 176.1 L196.7 176.5 L196.4 176.7 L196.0 176.8 L193.9 176.6 L192.4 176.6 L191.9 176.7 L191.4 176.8 L191.2 176.9 L190.8 177.1 L189.5 177.5 L189.2 177.5 L187.9 177.4 L187.4 177.5 L187.2 177.6 L187.0 177.8 L186.9 177.9 L186.6 177.9 L186.5 177.8 L186.4 177.7 L186.2 177.7 L185.8 177.7 L185.4 177.8 L184.8 178.0 L184.5 177.9 L184.0 177.8 L178.4 178.0 L178.4 177.9 L178.7 177.7 L178.8 177.4 L178.7 176.5 L178.8 176.3 L178.9 175.8 L178.9 175.5 L178.8 175.3 L178.7 174.9 L178.5 174.7 L178.3 174.5 L178.2 174.5 L178.1 174.4 L178.0 174.3 L177.7 174.2 L175.7 174.2 L175.1 174.1 L174.8 173.9 L174.7 173.9 L174.4 174.0 L174.2 173.8 L173.7 173.3 L173.4 173.1 L173.0 172.9 L172.5 172.9 L172.1 173.0 L170.8 172.4 L170.7 172.2 L170.7 172.1 L168.2 172.3 L166.5 172.1 L166.4 172.0 L166.3 171.9 L166.2 171.8 L166.2 171.7 L166.0 171.7 L165.9 171.8 L165.8 171.9 L165.7 171.9 L164.1 171.9 L163.7 171.8 L163.5 171.8 L163.4 172.0 L163.3 172.0 L162.7 172.1 L162.2 171.9 L161.6 171.2 L161.2 171.1 L159.3 171.1 L158.3 171.0 L157.6 170.7 L157.4 170.8 L157.2 170.8 L157.1 170.8 L156.9 170.8 L156.5 171.1 L154.9 171.0 L154.3 171.3 L154.0 171.0 L152.6 171.1 L152.1 171.0 L152.0 170.8 L152.0 170.6 L151.9 170.5 L151.8 170.4 L151.5 170.4 L151.3 170.3 L151.1 170.2 L151.0 170.0 L150.8 169.8 L150.5 169.7 L150.7 169.6 L150.6 169.5 L150.5 169.5 L150.5 169.5 L150.5 169.4 L150.8 169.3 L151.0 169.2 L151.1 169.2 L151.2 169.2 L151.2 169.1 L151.2 169.1 L151.3 169.1 L151.2 168.9 L151.0 168.7 L151.0 168.5 L151.1 168.3 L151.0 167.9 L151.2 167.4 L151.6 166.8 L151.8 166.5 L151.7 166.3 L151.6 166.2 L151.5 166.1 L151.5 166.1 L151.5 165.9 L151.7 165.4 L151.9 165.2 L151.9 165.0 L151.6 164.8 L151.6 164.7 L151.7 164.6 L151.8 164.5 L151.7 164.5 L151.6 164.4 L151.9 163.8 L152.0 163.5 L151.9 163.3 L152.4 162.6 L152.5 162.4 L152.6 162.9 L152.6 163.8 L152.7 164.2 L152.8 164.4 L152.9 164.5 L153.1 164.5 L153.3 164.6 L153.3 164.7 L153.3 164.8 L153.3 164.8 L153.5 164.9 L153.7 165.0 L154.3 165.0 L154.7 164.9 L155.1 164.7 L155.3 164.3 L155.4 163.8 L155.2 163.3 L155.0 162.9 L155.0 162.5 L155.2 162.3 L155.0 161.9 L154.9 161.6 L155.0 161.3 L155.3 161.0 L155.6 160.7 L155.8 160.7 L156.0 160.9 L156.5 161.1 L156.5 161.2 L156.2 161.5 L156.2 161.8 L156.5 162.5 L156.4 163.1 L156.5 163.3 L156.9 164.0 L157.3 164.2 L159.3 164.4 L159.9 164.5 L160.3 164.4 L161.5 164.5 L162.1 164.5 L162.3 164.5 L162.6 164.4 L162.7 164.2 L162.7 164.0 L162.8 163.8 L163.1 163.7 L163.7 163.8 L163.4 162.9 L164.2 162.7 L165.2 162.8 L165.7 163.0 L166.2 164.0 L166.1 164.2 L166.0 164.3 L165.8 164.6 L165.7 164.7 L165.5 164.8 L165.3 164.8 L164.8 164.8 L163.9 164.7 L163.4 164.7 L163.1 164.8 L163.2 165.0 L163.6 165.2 L164.0 165.4 L164.7 165.6 L165.4 166.0 L165.8 166.1 L166.2 166.0 L166.6 165.9 L167.0 165.7 L167.3 165.5 L167.6 166.5 L167.6 167.0 L167.6 167.8 L167.6 168.0 L167.8 168.1 L168.2 168.1 L168.5 168.2 L169.3 168.5 L171.3 168.0 L172.1 168.1 L172.6 167.9 L174.5 167.6 L175.1 167.5 L176.5 166.9 L177.0 166.7 L177.5 166.7 L178.0 166.7 L180.3 167.0 L180.8 167.2 L181.0 167.1 L181.4 166.9 L182.0 166.7 L183.4 167.2 L183.6 167.1 L183.7 167.0 L183.7 166.9 L183.7 166.7 L184.8 166.9 L185.1 167.2 L185.5 167.2 L185.6 167.2 L185.7 167.3 L185.6 167.5 L185.5 167.6 L185.5 167.7 L185.7 168.3 L186.2 168.6 L186.9 168.6 L187.9 168.5 L188.6 168.4 L188.9 168.4 L189.0 168.5 L189.1 168.6 L189.3 168.7 L189.5 168.8 L190.2 168.8 L191.4 168.6 L192.0 168.7 L192.3 168.7 L192.7 168.6 L192.8 168.8 L193.0 168.6 L193.4 168.9 L193.7 169.3 L194.1 169.6 L194.8 169.7 L195.4 169.6 L199.0 168.5 L199.5 168.4 L199.8 168.5 L200.3 168.7 L200.6 168.8 L201.9 168.8 L201.8 169.1 L201.5 169.3 L201.0 169.7 L201.2 169.8 L201.0 170.1 L201.0 170.2 L201.1 170.4 L201.3 170.5 L201.3 170.1 L201.4 169.9 L201.6 169.9 L201.8 170.2 L201.7 170.3 L201.7 170.4 L201.8 170.5 L201.6 170.7 L201.5 170.6 L201.4 170.6 L201.3 170.6 L201.2 170.8 L201.2 171.0 L201.0 171.3 L200.9 171.6 L201.0 172.1 L200.7 172.3 L200.7 172.5 L200.9 172.7 L201.0 172.9 L201.1 173.4 L201.3 173.4 L201.6 173.4 L202.0 173.5 L202.3 173.7 L202.6 173.8 L203.1 173.8 L203.4 173.6 L203.8 173.0 L204.1 172.8 L204.3 172.8 L204.4 172.8 L204.6 172.7 L204.9 172.3 L204.9 172.2 L205.2 172.1 L205.9 172.1 L206.8 172.0 L207.0 171.9 L207.7 171.5 L207.9 171.4 L208.0 171.3 L208.3 171.2 L208.4 171.2 L208.5 171.2 L208.7 171.1 L208.8 171.1 L209.1 171.3 L210.0 171.5 L209.8 171.7 L210.3 172.0 L210.8 171.9 L211.4 171.7 L211.8 171.4 L211.7 171.4 L211.7 171.4 L211.7 171.3 L212.3 170.8 L212.7 170.3 L213.2 169.9 L214.0 169.8 L213.8 169.6 L214.1 169.6 L214.2 169.6 L214.1 169.5 L214.1 169.3 L214.0 169.2 L214.6 169.2 Z M235.0 164.5 L235.5 164.9 L235.6 165.1 L235.5 165.6 L234.9 165.5 L234.3 165.7 L233.9 166.1 L233.7 166.7 L233.8 166.7 L233.8 166.6 L233.9 166.6 L234.1 166.6 L234.0 166.8 L233.8 166.9 L233.6 167.1 L233.3 167.2 L233.4 166.8 L233.3 166.7 L232.9 166.7 L232.7 166.6 L232.4 166.4 L232.3 166.1 L232.3 165.9 L232.7 165.8 L232.7 165.6 L232.5 165.6 L232.5 165.5 L232.9 165.4 L232.9 165.2 L232.7 164.5 L232.7 164.2 L232.7 164.0 L232.8 163.8 L232.7 163.6 L232.5 163.5 L231.9 163.2 L231.7 163.0 L231.7 162.7 L231.9 162.3 L232.1 162.1 L232.3 162.0 L232.8 161.7 L233.0 161.2 L233.1 160.6 L233.7 160.0 L233.9 159.3 L233.9 158.7 L233.7 158.3 L233.7 158.1 L234.1 157.9 L234.2 157.9 L234.2 158.1 L234.4 158.1 L234.5 158.0 L234.9 157.6 L235.1 157.5 L235.2 157.5 L235.4 157.5 L235.5 157.6 L235.4 157.9 L235.1 158.4 L235.0 158.7 L235.0 159.2 L235.0 159.4 L235.2 159.6 L235.2 159.8 L235.0 160.0 L234.8 160.2 L234.5 160.5 L234.4 160.8 L234.3 161.0 L234.1 161.3 L233.8 161.5 L233.7 161.9 L233.7 162.3 L233.8 162.4 L234.4 162.8 L234.9 163.6 L235.1 163.8 L235.2 163.8 L235.1 164.0 L234.9 164.1 L234.9 164.2 L234.8 164.4 L234.8 164.4 L234.9 164.4 L235.0 164.5 Z M138.9 146.5 L140.4 147.4 L140.8 147.7 L141.0 148.1 L140.9 148.2 L140.5 148.2 L140.2 148.4 L140.0 148.6 L139.9 148.9 L139.8 150.2 L139.7 150.3 L139.4 150.3 L139.0 150.2 L138.7 150.2 L138.4 150.4 L138.4 150.1 L138.1 149.9 L137.5 149.8 L137.5 149.7 L137.5 149.6 L137.5 149.5 L137.4 149.5 L137.1 149.5 L137.0 149.5 L136.9 149.3 L136.7 149.0 L136.6 148.8 L136.8 147.6 L136.7 147.0 L136.6 146.5 L136.4 146.3 L136.4 146.0 L136.4 145.8 L137.1 144.8 L137.4 144.6 L137.7 144.8 L138.6 146.1 L138.9 146.5 Z M258.5 143.7 L258.2 144.0 L258.4 145.0 L258.0 145.2 L257.9 145.4 L257.7 146.2 L257.6 146.4 L257.1 146.9 L257.0 147.2 L256.9 147.8 L256.8 148.1 L256.6 148.2 L256.4 148.4 L256.2 149.1 L256.0 149.3 L256.0 149.3 L255.6 149.3 L255.4 149.3 L255.4 149.4 L255.3 149.6 L255.2 149.7 L255.0 149.8 L254.5 150.9 L254.7 151.0 L254.8 151.1 L255.0 151.2 L255.2 151.2 L255.2 151.4 L255.1 151.5 L255.0 151.7 L254.8 151.8 L254.9 151.9 L255.1 152.3 L253.9 152.0 L253.4 152.0 L252.9 152.1 L251.9 152.7 L251.5 153.0 L250.6 154.2 L249.9 154.9 L249.1 155.5 L248.0 156.1 L247.1 155.5 L246.9 155.5 L246.9 155.3 L246.5 154.6 L246.8 154.3 L247.4 152.7 L247.6 152.1 L247.5 151.6 L247.2 151.4 L246.9 151.2 L246.4 150.7 L246.3 150.5 L246.5 150.4 L246.5 150.3 L246.2 150.1 L246.1 150.1 L246.0 150.1 L245.8 149.9 L246.2 149.8 L247.1 149.3 L247.6 149.2 L247.8 149.0 L247.7 148.8 L247.9 148.7 L248.0 148.6 L248.0 148.4 L248.0 148.2 L248.2 147.9 L248.3 147.7 L248.5 147.4 L248.6 147.3 L249.3 147.1 L249.4 147.0 L249.6 146.8 L250.4 146.2 L250.5 145.9 L250.7 145.8 L252.1 145.4 L254.7 144.3 L255.0 144.1 L255.8 143.8 L257.2 143.8 L257.9 143.1 L258.1 143.1 L258.3 143.3 L258.5 143.5 L258.5 143.7 Z M172.4 136.5 L173.3 136.1 L173.7 136.0 L174.0 136.3 L174.0 136.6 L174.0 137.8 L173.8 138.0 L173.4 138.1 L172.6 138.3 L169.9 138.4 L169.0 138.7 L168.9 138.3 L169.1 137.8 L169.0 137.6 L169.1 137.5 L169.2 137.4 L169.3 137.3 L169.1 137.1 L169.0 137.1 L169.2 136.9 L169.4 136.5 L169.6 136.3 L169.7 136.4 L169.9 136.6 L170.1 136.7 L170.3 136.8 L170.6 136.7 L170.8 137.4 L171.3 137.6 L172.1 137.6 L172.3 137.4 L172.2 137.2 L172.0 136.9 L171.8 136.8 L171.5 136.9 L171.3 136.8 L171.1 136.5 L170.9 136.3 L170.9 136.2 L171.1 135.9 L171.4 136.1 L171.8 136.3 L172.4 136.5 Z M236.6 132.8 L236.8 133.2 L238.0 133.4 L238.3 133.8 L237.6 134.1 L235.1 134.7 L234.5 135.0 L233.1 136.2 L232.7 136.2 L232.1 136.1 L231.5 136.0 L231.3 135.8 L230.0 136.3 L229.6 136.6 L229.8 137.1 L229.5 137.2 L229.4 137.4 L229.4 137.7 L229.5 138.0 L229.1 138.0 L228.7 137.7 L228.4 137.4 L228.3 137.2 L228.3 136.4 L228.5 136.0 L228.7 136.2 L228.8 136.0 L229.1 135.8 L229.2 135.7 L229.3 135.8 L229.8 136.0 L230.2 135.7 L230.3 135.5 L230.6 135.1 L231.4 134.5 L231.6 134.4 L233.9 133.2 L236.2 132.9 L236.6 132.8 Z M207.4 132.1 L207.7 132.4 L208.1 132.7 L208.5 132.9 L209.0 133.0 L209.0 133.1 L209.0 133.1 L208.9 133.1 L208.8 133.2 L208.4 133.0 L208.0 133.1 L207.7 133.2 L207.4 133.2 L207.1 133.4 L206.1 134.0 L205.8 134.1 L205.5 134.3 L204.9 135.2 L204.5 135.4 L202.7 135.9 L201.7 135.9 L201.3 135.4 L201.6 135.5 L201.8 135.3 L202.1 135.1 L202.5 135.0 L202.7 135.2 L202.9 135.2 L203.0 135.1 L203.2 135.1 L203.8 135.1 L203.8 135.0 L204.2 134.4 L203.9 134.5 L203.8 134.4 L203.7 134.2 L203.8 134.1 L204.0 134.1 L206.6 133.0 L206.6 132.9 L206.5 132.8 L206.4 132.8 L206.3 132.7 L206.2 132.7 L206.2 132.5 L206.8 132.4 L207.1 132.3 L207.2 132.1 L207.4 132.1 Z M228.1 131.9 L228.3 131.6 L228.4 131.5 L228.6 131.4 L228.5 131.1 L228.6 130.8 L228.8 130.6 L228.9 130.4 L229.0 130.3 L229.0 130.2 L229.1 130.0 L229.1 129.9 L228.9 129.7 L228.7 129.8 L228.5 129.8 L228.4 129.9 L228.3 129.7 L228.2 129.6 L228.0 129.3 L227.8 129.1 L227.6 129.1 L227.5 129.0 L227.6 128.6 L227.9 128.9 L229.8 129.6 L229.8 129.7 L229.5 129.7 L229.8 130.0 L230.1 130.2 L230.3 130.3 L230.3 130.7 L230.5 130.5 L230.7 130.4 L230.9 130.4 L231.1 130.5 L231.2 130.8 L231.0 131.2 L231.1 131.4 L231.0 131.6 L231.0 131.7 L230.9 131.8 L231.1 131.8 L231.1 131.6 L231.3 131.6 L231.1 131.9 L230.7 131.9 L230.0 131.8 L229.9 131.9 L229.8 132.1 L229.8 132.3 L229.6 132.4 L229.4 132.3 L229.2 132.3 L229.1 132.2 L228.9 132.4 L228.7 132.2 L228.6 132.0 L228.4 131.9 L228.1 131.9 Z M190.8 129.6 L190.6 129.6 L190.4 129.8 L190.3 130.0 L190.2 130.2 L190.0 130.3 L189.7 130.6 L189.1 130.9 L188.7 131.0 L187.9 131.0 L187.7 130.9 L187.2 130.6 L187.0 130.5 L186.8 130.4 L186.8 130.1 L187.0 129.2 L187.3 129.0 L188.0 128.6 L187.8 128.5 L187.7 128.5 L187.5 128.5 L187.8 128.2 L188.5 127.7 L189.2 127.4 L189.9 127.2 L189.5 127.6 L189.7 127.8 L190.3 127.8 L190.7 127.5 L190.6 127.4 L190.5 127.2 L190.8 127.2 L191.1 127.2 L191.1 127.4 L191.0 127.6 L190.9 127.7 L190.8 127.8 L190.4 128.6 L190.4 129.0 L190.8 129.1 L190.8 129.3 L190.5 129.3 L190.5 129.4 L190.8 129.4 L190.8 129.6 Z M196.4 126.2 L196.6 126.1 L197.0 126.2 L197.6 126.6 L197.8 127.0 L198.0 127.4 L198.0 128.4 L198.0 128.8 L197.7 129.8 L197.7 130.3 L197.0 131.4 L196.9 131.5 L196.8 131.5 L196.4 131.6 L195.6 132.2 L195.4 132.3 L195.0 132.4 L194.7 132.5 L194.6 132.4 L194.6 132.4 L194.4 132.2 L194.3 132.1 L194.2 131.6 L194.1 131.4 L193.9 131.3 L193.3 131.0 L193.4 130.9 L193.4 130.7 L193.4 130.6 L193.2 130.4 L193.1 130.3 L193.1 130.1 L193.1 129.9 L193.1 129.9 L192.8 129.3 L192.5 129.0 L192.2 128.9 L192.2 128.8 L192.4 128.7 L192.5 128.6 L192.6 128.7 L192.7 128.8 L192.9 128.6 L193.8 127.8 L195.3 127.0 L195.4 126.8 L195.7 126.4 L195.9 126.3 L196.4 126.3 L196.4 126.2 Z M186.5 117.4 L186.3 117.3 L185.5 116.6 L184.6 116.2 L184.4 116.1 L184.2 115.9 L184.1 115.6 L184.0 115.3 L184.1 115.1 L184.4 115.1 L185.6 115.1 L185.7 115.2 L185.9 115.3 L185.9 115.5 L185.8 115.5 L185.8 115.6 L186.0 115.6 L186.2 115.7 L186.3 115.8 L186.4 115.9 L186.8 115.7 L187.2 115.8 L187.6 116.0 L187.8 116.2 L188.2 115.9 L188.8 116.0 L189.5 116.3 L190.0 116.4 L189.9 116.6 L190.1 116.6 L190.2 116.8 L190.3 117.0 L190.3 117.2 L189.8 117.8 L189.6 118.4 L189.3 118.5 L188.3 118.4 L187.7 118.0 L187.3 118.0 L187.1 117.9 L186.8 117.4 L186.5 117.4 Z M170.1 115.0 L170.7 115.7 L170.6 116.4 L170.0 117.1 L169.3 117.6 L168.7 118.4 L168.2 118.7 L167.8 118.5 L167.8 118.2 L167.9 117.1 L167.9 116.9 L167.9 116.4 L168.1 115.9 L168.5 115.6 L168.9 115.6 L169.0 115.5 L169.2 115.3 L168.9 115.3 L168.9 115.3 L168.9 115.1 L169.1 115.0 L169.3 115.0 L169.5 115.0 L169.6 115.1 L169.8 115.1 L169.8 115.0 L169.9 115.0 L170.0 115.0 L170.1 115.0 Z M215.6 115.0 L215.2 115.6 L214.6 116.2 L212.6 117.6 L212.2 117.8 L210.2 118.0 L209.8 118.1 L209.5 118.3 L209.1 118.6 L208.8 118.7 L208.6 118.8 L208.4 118.8 L208.3 118.8 L208.0 118.7 L207.1 118.9 L206.7 118.9 L206.6 118.4 L206.8 118.1 L207.6 117.5 L207.7 117.3 L207.9 116.9 L208.2 116.6 L208.7 116.3 L209.0 116.1 L209.5 116.1 L210.9 116.2 L211.3 116.1 L211.8 116.2 L212.5 116.0 L213.1 115.8 L213.7 115.2 L214.5 115.1 L215.6 115.0 Z M231.3 114.0 L231.5 113.9 L231.7 114.0 L231.7 114.2 L231.6 114.5 L231.0 114.4 L230.2 114.5 L228.1 115.2 L227.9 115.3 L227.6 115.5 L227.5 115.6 L227.5 115.7 L227.4 115.8 L227.2 115.9 L227.0 116.0 L225.5 115.9 L225.3 115.9 L225.2 115.7 L225.2 115.6 L225.1 115.4 L224.7 114.9 L224.5 114.7 L223.9 114.6 L223.7 114.4 L223.5 114.4 L223.3 114.4 L222.9 114.5 L222.3 114.6 L221.9 114.7 L221.7 114.9 L221.5 115.1 L221.4 115.1 L221.4 115.0 L221.2 115.0 L221.0 115.2 L220.8 115.0 L220.6 114.6 L220.6 114.3 L220.6 113.7 L220.6 113.5 L220.9 113.3 L221.3 113.2 L221.7 113.1 L222.0 113.0 L222.1 112.7 L222.3 112.5 L224.9 112.1 L225.7 112.0 L226.5 112.2 L226.9 112.3 L227.5 112.7 L228.3 112.9 L229.1 113.4 L229.4 113.6 L229.5 113.3 L229.3 113.1 L229.1 112.9 L228.9 112.6 L229.3 112.7 L229.6 112.7 L229.8 112.6 L230.0 112.5 L230.0 112.7 L230.6 112.9 L231.7 113.0 L231.1 113.2 L230.9 113.3 L230.9 113.4 L231.0 113.6 L231.1 113.8 L231.3 114.0 Z M90.6 112.6 L91.0 113.2 L92.6 114.0 L92.8 114.7 L92.5 114.4 L91.9 114.1 L91.1 113.9 L90.5 113.9 L90.1 114.0 L89.9 114.2 L89.8 114.4 L89.6 114.5 L89.3 114.6 L89.3 114.9 L89.5 115.2 L89.5 115.3 L89.5 115.6 L89.4 115.7 L89.1 115.8 L88.7 115.8 L88.5 115.7 L87.8 115.0 L86.7 114.2 L86.1 113.8 L86.1 113.4 L85.6 113.1 L84.7 112.1 L84.2 111.9 L84.4 111.6 L84.3 111.2 L84.4 111.1 L84.2 110.9 L85.1 109.8 L85.7 109.4 L86.2 109.5 L86.3 109.6 L86.3 109.6 L86.4 109.7 L86.3 109.8 L86.8 110.5 L87.0 111.0 L87.2 111.1 L87.8 111.4 L88.5 111.2 L89.5 111.5 L90.3 112.1 L90.6 112.6 Z M184.2 113.1 L184.3 113.4 L184.1 113.8 L183.7 114.2 L183.4 114.5 L183.5 114.6 L183.6 115.0 L183.4 115.0 L183.3 114.8 L182.7 114.4 L182.5 114.2 L182.1 113.3 L181.9 113.1 L181.6 113.1 L181.3 113.0 L181.1 112.8 L180.8 112.6 L180.5 112.0 L180.2 111.8 L179.8 112.0 L179.7 111.4 L179.3 111.0 L178.8 110.6 L178.4 110.3 L178.3 110.3 L178.1 110.5 L177.9 110.6 L177.8 110.4 L178.0 110.1 L177.8 109.9 L177.4 109.5 L177.2 109.3 L177.4 109.3 L177.5 109.2 L177.4 109.0 L177.3 108.8 L177.4 108.6 L177.6 108.4 L178.8 107.9 L179.4 107.8 L179.7 107.9 L179.7 108.2 L179.7 108.3 L179.8 108.4 L180.1 108.4 L180.3 108.5 L180.5 108.6 L180.6 108.8 L180.5 108.9 L180.5 109.0 L180.7 109.5 L180.8 109.7 L180.9 109.8 L181.5 110.0 L183.4 110.0 L183.6 110.2 L183.5 110.6 L183.1 111.4 L184.1 112.0 L183.9 112.1 L183.8 112.1 L183.7 112.2 L183.8 112.5 L183.6 112.7 L183.5 112.8 L183.4 113.0 L183.6 113.1 L184.0 113.0 L184.2 113.1 Z M86.8 106.4 L86.5 106.3 L86.2 106.1 L85.6 105.6 L85.0 105.3 L84.1 105.1 L83.3 105.2 L82.9 105.7 L82.5 105.5 L81.7 105.3 L81.4 105.0 L81.3 104.8 L81.3 104.3 L81.2 104.2 L80.8 103.6 L80.7 103.4 L81.0 103.5 L81.4 103.8 L81.7 103.9 L81.7 103.7 L81.3 103.4 L81.1 103.1 L80.5 101.8 L80.2 101.5 L80.0 101.4 L79.8 101.8 L79.8 102.2 L80.0 102.9 L80.0 103.4 L79.7 103.8 L79.5 104.0 L79.1 104.1 L78.9 104.3 L78.7 104.3 L78.6 103.9 L77.9 103.6 L77.8 103.2 L77.9 103.0 L78.0 102.8 L78.2 102.6 L78.2 102.4 L78.1 102.2 L78.1 102.0 L78.2 101.9 L78.4 101.8 L78.7 101.5 L79.0 100.9 L79.1 100.2 L79.2 99.5 L79.3 99.8 L79.3 99.9 L79.5 99.9 L79.8 99.5 L80.0 99.7 L80.1 100.1 L80.4 100.4 L80.6 100.2 L80.7 100.4 L80.8 100.6 L81.0 100.7 L81.2 100.6 L81.6 100.3 L82.1 100.1 L82.3 99.7 L82.4 99.2 L82.2 98.8 L82.6 99.0 L82.4 98.2 L82.3 98.1 L82.4 97.8 L82.4 97.5 L82.5 97.3 L82.3 97.1 L82.3 97.0 L83.1 97.0 L84.3 99.8 L84.4 99.9 L84.3 100.3 L84.2 100.5 L84.0 100.6 L83.7 100.9 L83.9 101.1 L84.4 101.9 L84.7 102.0 L85.0 101.8 L85.4 101.5 L85.6 101.3 L85.6 101.4 L85.5 101.6 L85.5 101.7 L85.9 101.7 L86.0 102.0 L86.1 102.3 L86.2 102.6 L87.2 103.3 L87.5 103.9 L88.3 104.8 L88.4 105.2 L88.5 105.5 L88.4 105.9 L88.2 106.3 L88.1 106.3 L87.5 106.2 L87.3 106.2 L87.0 106.3 L86.8 106.4 Z M211.0 95.4 L210.7 95.7 L210.7 96.1 L210.6 96.5 L210.1 96.6 L210.3 96.9 L210.4 96.9 L210.5 97.0 L210.4 97.1 L210.8 97.1 L210.8 97.3 L210.5 97.6 L210.5 97.9 L210.5 98.2 L210.7 99.9 L211.0 100.9 L210.4 100.9 L209.9 101.3 L209.6 101.8 L209.8 102.4 L209.8 102.7 L209.3 102.9 L208.2 103.2 L208.0 103.5 L207.9 104.0 L207.7 104.2 L207.5 104.2 L207.0 104.1 L206.7 104.0 L206.5 103.9 L206.0 103.3 L205.9 103.3 L205.8 103.3 L205.6 103.2 L205.3 102.9 L205.2 102.6 L205.1 102.7 L204.9 102.7 L204.8 102.8 L204.8 102.6 L204.8 102.3 L204.8 102.1 L204.4 102.3 L204.2 102.2 L204.3 101.9 L204.5 101.5 L204.7 101.4 L205.0 101.3 L205.4 101.2 L205.5 101.1 L205.8 100.9 L206.3 100.9 L206.5 100.9 L206.6 100.6 L206.6 100.3 L206.7 100.1 L207.1 99.9 L207.0 99.7 L207.0 99.1 L207.0 98.8 L206.9 98.9 L206.9 98.9 L206.9 99.0 L206.8 99.0 L206.7 98.8 L206.5 98.7 L206.4 98.6 L206.2 98.5 L206.3 98.3 L206.3 98.0 L206.2 97.7 L206.0 97.4 L205.7 97.2 L205.5 97.1 L205.2 97.1 L204.8 97.0 L204.4 96.7 L203.7 96.0 L203.5 95.7 L203.5 95.4 L203.6 95.1 L203.7 94.9 L203.8 94.5 L207.2 94.0 L207.6 94.0 L208.7 94.3 L208.8 94.5 L209.8 95.4 L209.8 95.3 L209.9 95.2 L209.9 95.1 L210.1 95.1 L210.1 95.0 L210.1 94.9 L210.0 94.9 L209.9 94.9 L210.3 94.8 L210.6 94.9 L210.8 95.1 L211.0 95.4 Z M83.4 93.7 L83.2 93.9 L83.0 94.2 L82.6 94.8 L82.5 94.8 L82.5 94.2 L82.9 92.0 L83.3 91.2 L83.4 90.8 L83.8 89.9 L84.0 89.8 L84.2 89.6 L84.5 89.1 L84.8 88.9 L85.2 88.6 L85.7 88.4 L85.8 88.4 L85.8 88.6 L86.1 88.7 L86.4 89.0 L86.5 89.3 L86.6 89.7 L86.7 89.9 L86.6 90.2 L86.6 90.4 L86.7 90.6 L86.7 90.8 L86.7 91.0 L86.7 91.1 L86.6 91.2 L86.1 91.8 L86.0 92.0 L86.0 92.2 L86.2 92.2 L86.3 92.1 L86.4 91.8 L86.5 91.6 L86.6 92.0 L86.5 93.2 L86.4 93.5 L86.3 93.5 L86.1 93.2 L85.9 93.2 L86.0 93.3 L86.1 93.7 L86.0 93.6 L85.8 93.5 L85.7 93.7 L85.7 93.8 L85.6 93.8 L85.6 94.0 L85.2 93.8 L84.9 93.9 L84.7 94.1 L84.8 94.3 L84.8 94.4 L84.6 94.4 L84.5 94.3 L84.4 94.2 L84.5 94.0 L84.1 93.9 L83.8 93.5 L83.4 93.7 Z M177.0 89.3 L177.1 89.3 L177.1 89.4 L177.2 89.5 L177.2 89.7 L177.2 89.9 L177.1 89.9 L177.0 89.9 L176.9 89.9 L176.7 90.1 L176.6 90.2 L176.4 90.2 L176.2 90.1 L176.1 90.1 L175.8 90.2 L175.6 90.1 L175.4 89.9 L175.3 89.7 L175.1 89.7 L174.8 89.8 L174.6 90.0 L174.5 90.4 L173.7 89.6 L174.7 89.3 L174.4 88.6 L174.3 88.5 L174.0 88.7 L173.9 88.7 L173.8 88.4 L173.6 88.3 L173.4 88.4 L173.1 88.5 L173.1 88.2 L172.6 88.1 L172.5 87.7 L172.4 87.8 L172.3 87.9 L172.1 87.7 L171.9 87.6 L171.7 87.6 L171.5 87.7 L171.5 87.5 L171.6 87.3 L171.7 87.1 L171.9 87.1 L172.1 87.0 L172.1 86.7 L172.0 86.3 L172.0 86.0 L172.1 85.7 L172.3 85.5 L172.8 85.4 L174.4 86.2 L174.7 86.5 L174.7 86.7 L174.6 87.2 L174.7 87.5 L174.8 87.8 L174.9 87.9 L175.3 88.0 L176.2 88.5 L176.7 88.9 L177.0 89.3 Z M175.0 104.2 L174.8 105.3 L174.8 105.9 L175.1 106.4 L174.9 106.7 L174.7 107.7 L174.5 108.1 L174.2 108.3 L173.7 108.5 L173.2 108.7 L172.7 108.7 L172.4 108.7 L172.3 108.5 L172.3 108.2 L171.8 107.6 L171.7 107.5 L171.4 107.3 L170.8 107.5 L170.4 107.9 L170.7 108.1 L170.7 108.2 L170.4 108.5 L170.0 108.4 L169.7 108.2 L169.3 107.9 L169.2 107.7 L169.0 107.5 L168.9 107.3 L168.7 107.1 L168.7 107.0 L169.0 106.8 L168.7 106.3 L168.5 106.2 L168.2 106.2 L168.1 105.8 L167.7 105.6 L167.2 105.6 L166.8 105.7 L166.5 105.6 L166.4 105.6 L166.2 105.7 L166.2 105.6 L166.2 105.6 L166.3 105.6 L166.4 105.6 L166.4 105.0 L166.2 104.8 L165.8 104.9 L165.7 104.7 L165.8 104.6 L166.2 104.2 L166.4 104.0 L166.3 103.7 L166.0 103.4 L165.8 102.8 L165.5 102.6 L165.1 102.6 L164.8 102.6 L164.9 102.9 L164.4 102.8 L164.5 102.4 L164.9 101.9 L165.3 101.7 L165.0 101.4 L164.9 101.4 L164.7 101.5 L164.5 101.7 L164.4 101.7 L164.4 101.8 L164.4 101.9 L164.2 102.0 L164.0 101.9 L164.0 101.8 L164.1 101.7 L164.2 101.7 L164.2 101.5 L163.8 101.5 L164.3 100.7 L163.8 100.5 L163.3 100.4 L162.8 100.3 L162.1 100.2 L162.7 100.1 L162.9 100.0 L163.1 99.8 L162.9 99.6 L162.8 99.4 L162.9 99.2 L162.9 99.2 L162.7 98.8 L162.5 98.6 L162.4 98.8 L161.1 98.7 L159.5 98.8 L159.1 98.8 L158.3 98.6 L158.0 98.5 L157.5 98.6 L156.8 98.7 L156.5 98.7 L154.9 98.4 L154.6 98.4 L153.8 98.6 L153.5 98.5 L153.3 98.3 L152.7 97.3 L152.6 97.3 L152.5 97.4 L152.4 97.5 L152.2 97.4 L152.5 97.1 L152.9 96.7 L153.2 96.3 L153.0 96.0 L153.0 95.9 L153.2 95.9 L153.2 95.7 L152.7 95.0 L152.4 94.7 L152.0 94.6 L151.0 94.5 L150.5 94.3 L150.2 94.1 L150.1 94.0 L150.1 93.6 L150.0 93.4 L149.5 93.0 L149.4 93.0 L149.3 92.9 L149.2 92.8 L149.0 92.7 L148.9 92.5 L148.9 92.3 L148.6 92.2 L148.0 91.8 L147.4 91.6 L146.7 91.1 L146.5 91.0 L146.4 90.9 L146.2 90.5 L146.0 90.4 L145.5 90.1 L143.3 88.8 L142.5 88.5 L141.9 88.3 L141.6 88.3 L141.3 88.3 L140.6 88.5 L140.2 88.4 L139.9 88.3 L139.5 87.8 L139.3 87.7 L139.0 87.7 L138.6 87.7 L138.3 87.5 L138.0 87.5 L137.7 87.5 L137.7 87.7 L138.0 87.7 L138.3 87.8 L138.5 88.0 L138.4 88.3 L138.2 88.5 L137.9 88.6 L135.4 88.7 L134.8 89.0 L134.8 88.7 L134.8 88.5 L134.9 88.3 L135.1 88.2 L135.3 88.1 L135.8 87.8 L136.0 87.7 L136.5 87.6 L137.6 87.2 L138.3 87.0 L138.9 86.8 L139.5 86.6 L139.6 86.5 L139.7 86.2 L139.7 86.1 L140.0 86.1 L140.4 86.1 L140.6 86.0 L140.8 85.8 L140.9 85.6 L140.9 85.4 L140.8 85.2 L141.1 85.1 L141.6 84.8 L141.8 84.7 L143.2 84.7 L143.7 84.6 L144.9 84.0 L145.5 84.0 L145.7 84.1 L146.1 84.4 L146.2 84.4 L146.5 84.5 L146.8 84.5 L147.2 84.7 L147.4 84.9 L147.2 85.3 L147.5 85.7 L147.9 85.9 L148.4 86.0 L148.4 86.2 L148.8 87.3 L148.9 87.5 L149.0 87.8 L149.2 88.2 L149.6 88.6 L150.7 89.0 L151.6 89.6 L152.2 89.7 L152.2 89.9 L152.2 90.1 L152.2 90.2 L152.4 90.2 L152.6 90.1 L152.8 90.3 L153.5 90.4 L153.8 90.5 L154.0 90.4 L154.3 90.5 L154.7 90.3 L155.2 90.4 L155.5 90.7 L155.7 91.1 L155.9 91.3 L156.4 91.6 L157.3 91.9 L158.3 92.2 L159.4 92.3 L159.9 92.3 L160.3 92.5 L160.8 92.5 L161.2 92.1 L161.7 92.3 L162.2 92.3 L162.7 92.2 L163.2 92.3 L164.7 92.7 L165.1 92.9 L164.9 92.9 L164.6 93.1 L164.4 93.3 L164.3 93.5 L164.3 93.9 L164.4 94.1 L166.5 95.5 L166.8 95.9 L166.3 96.2 L165.8 97.0 L165.7 97.7 L166.2 98.2 L166.2 98.4 L165.8 98.5 L165.8 98.7 L166.4 99.2 L166.4 99.4 L166.4 99.8 L166.4 100.1 L167.0 100.6 L167.0 100.9 L167.1 101.0 L167.3 101.1 L167.3 101.1 L167.3 101.5 L167.3 101.7 L167.4 101.9 L167.2 102.2 L167.1 102.3 L167.3 102.6 L167.6 102.9 L168.2 103.2 L169.0 103.5 L169.1 103.7 L169.2 103.9 L169.3 104.1 L169.4 104.2 L170.2 104.0 L170.5 104.1 L171.2 104.4 L172.1 104.5 L172.5 104.6 L172.9 104.5 L175.0 104.2 Z M221.3 83.8 L221.3 84.0 L221.2 84.4 L221.0 84.7 L220.3 84.4 L219.9 84.6 L219.6 84.5 L219.4 84.3 L219.2 84.1 L219.3 84.0 L219.1 83.8 L219.1 83.7 L219.1 83.6 L219.2 83.5 L219.2 83.4 L219.3 83.2 L219.3 83.0 L219.1 82.8 L219.0 82.8 L218.9 82.4 L218.5 82.3 L217.7 82.4 L217.3 82.6 L217.6 82.9 L218.5 83.5 L219.4 84.4 L219.8 84.7 L219.8 84.9 L219.7 85.0 L219.7 85.0 L219.7 85.0 L219.8 85.2 L219.2 85.4 L218.5 85.6 L217.0 85.7 L216.6 85.6 L215.9 85.4 L215.0 85.3 L214.7 85.2 L214.2 84.9 L213.6 84.7 L212.3 84.5 L211.1 84.4 L210.8 84.4 L210.6 84.2 L209.9 83.4 L209.7 83.2 L209.3 83.2 L209.3 83.0 L209.4 83.0 L209.6 82.8 L209.8 82.8 L209.9 82.8 L210.0 82.8 L210.1 82.8 L210.9 82.7 L211.1 82.6 L211.4 82.2 L211.7 82.0 L211.9 82.0 L212.2 82.0 L212.4 81.9 L213.1 81.4 L213.7 81.0 L213.8 81.0 L214.0 80.9 L213.9 80.7 L213.7 80.4 L213.5 80.3 L212.7 80.2 L212.4 80.2 L212.0 80.2 L211.6 80.3 L211.3 80.5 L210.9 80.7 L210.6 81.4 L210.5 81.4 L209.5 82.5 L209.2 82.7 L208.7 82.8 L208.3 82.8 L206.3 82.2 L206.0 82.1 L205.7 81.9 L205.5 81.8 L205.2 81.8 L204.7 81.6 L204.0 81.0 L203.5 80.8 L203.5 80.6 L203.8 80.6 L203.9 80.4 L203.9 80.1 L204.0 79.9 L203.9 79.8 L203.8 79.8 L203.8 79.8 L203.7 79.7 L203.8 79.6 L203.9 79.5 L204.0 79.4 L204.0 79.2 L204.1 79.0 L204.2 78.9 L204.5 78.8 L204.6 78.8 L205.2 78.3 L205.4 78.1 L205.5 78.1 L205.8 78.6 L206.6 78.6 L207.4 78.4 L208.0 78.5 L208.1 78.3 L208.2 78.2 L208.3 78.1 L208.4 78.0 L208.5 78.2 L208.5 78.3 L208.7 78.3 L209.0 78.0 L209.4 77.8 L210.4 77.7 L211.0 77.5 L211.2 77.3 L211.2 76.8 L211.0 76.3 L215.1 76.2 L215.6 76.3 L215.4 76.8 L215.8 77.0 L216.4 77.1 L216.8 77.4 L216.7 77.6 L216.0 78.5 L216.0 78.6 L217.0 79.3 L217.8 79.6 L218.0 79.7 L218.1 79.8 L218.8 80.7 L219.1 80.9 L219.6 81.1 L219.3 81.3 L219.4 81.5 L219.6 81.7 L219.8 81.8 L219.8 82.1 L219.9 82.2 L220.0 82.3 L220.3 82.2 L220.2 82.7 L220.5 83.2 L221.0 83.6 L221.3 83.8 Z M72.1 75.0 L72.2 75.3 L72.4 75.9 L72.7 76.3 L72.7 76.4 L72.4 76.6 L72.2 76.4 L71.7 76.3 L71.1 76.0 L70.8 75.9 L70.4 75.8 L70.0 75.8 L69.8 75.7 L69.2 75.3 L69.0 75.2 L68.6 75.1 L68.3 75.1 L68.0 75.1 L67.9 75.0 L68.1 75.0 L68.2 74.9 L68.4 74.7 L67.6 74.5 L67.3 74.4 L67.3 74.4 L67.2 74.5 L67.2 74.6 L66.9 74.2 L66.7 73.7 L66.5 73.3 L66.4 72.3 L66.1 71.8 L65.7 71.4 L65.1 71.1 L64.6 70.9 L64.3 70.7 L63.7 69.7 L63.6 69.5 L63.2 69.5 L62.9 69.5 L62.7 69.4 L62.6 69.1 L62.6 68.5 L62.5 68.4 L62.1 68.6 L62.1 68.2 L62.0 68.0 L61.8 67.8 L61.5 67.8 L61.7 67.6 L62.3 67.0 L62.4 66.8 L62.6 66.7 L64.8 66.7 L65.4 66.6 L66.0 66.4 L66.6 66.1 L66.9 66.1 L67.2 66.3 L67.3 66.4 L67.6 66.5 L68.2 66.7 L68.4 66.8 L68.5 67.0 L68.7 67.0 L68.7 66.8 L68.8 66.8 L68.8 67.6 L68.5 68.0 L68.0 68.2 L66.6 68.7 L66.4 68.8 L66.3 69.1 L66.3 69.4 L66.5 69.6 L66.8 69.7 L66.8 69.9 L66.5 69.9 L66.5 70.0 L67.8 70.5 L68.4 70.6 L68.3 71.1 L68.1 71.2 L67.7 71.1 L68.0 71.6 L68.5 74.0 L68.6 74.1 L68.8 74.2 L69.1 74.3 L69.8 74.4 L70.1 74.5 L70.6 74.8 L70.8 74.9 L71.2 74.9 L71.5 74.8 L71.7 74.7 L71.9 74.7 L72.1 75.0 Z M194.7 61.2 L194.5 61.5 L194.4 61.5 L194.4 61.7 L194.5 61.7 L194.5 61.7 L194.5 61.8 L194.6 62.0 L194.6 62.2 L194.7 62.3 L194.2 62.5 L193.6 62.9 L193.2 63.3 L193.3 63.9 L193.0 63.9 L192.7 63.9 L192.5 64.0 L192.4 64.2 L192.7 64.3 L192.8 64.4 L192.5 64.5 L192.2 64.7 L192.2 64.9 L192.5 65.1 L192.3 65.4 L192.4 65.6 L192.7 65.9 L192.8 66.1 L192.9 66.2 L192.8 66.2 L192.7 66.3 L192.5 66.4 L192.5 66.6 L192.5 66.8 L192.4 66.9 L192.1 66.8 L192.0 66.7 L191.4 66.5 L191.2 66.4 L191.1 66.2 L191.1 66.0 L191.0 65.9 L190.7 65.8 L190.3 65.3 L189.9 65.3 L190.4 65.0 L190.7 64.8 L190.8 64.6 L190.7 64.3 L190.4 64.0 L190.1 63.9 L189.9 63.9 L188.9 64.5 L189.1 64.5 L189.3 64.5 L189.4 64.6 L189.6 64.7 L189.2 64.7 L188.9 64.9 L188.6 65.3 L188.5 65.6 L188.7 65.5 L188.7 65.5 L188.8 65.4 L189.0 65.7 L189.3 66.1 L189.5 66.4 L189.3 66.5 L188.8 66.5 L188.4 66.5 L187.7 66.2 L188.2 65.6 L188.3 65.5 L188.2 65.3 L187.9 65.3 L187.7 65.6 L187.5 65.8 L187.4 65.8 L187.3 65.6 L187.3 65.5 L187.3 65.4 L187.2 65.3 L185.9 65.6 L185.6 65.8 L185.5 65.8 L185.6 65.6 L185.6 65.5 L185.8 65.4 L185.9 65.3 L185.8 65.3 L185.7 65.2 L185.5 65.1 L185.5 64.9 L185.5 64.8 L185.6 64.7 L185.8 64.7 L185.8 64.5 L185.6 64.5 L185.6 64.4 L185.7 64.3 L185.8 64.3 L185.9 64.2 L185.8 64.2 L186.0 63.9 L185.9 63.7 L185.7 63.5 L185.5 63.2 L185.5 62.9 L185.5 62.6 L185.4 62.4 L185.2 62.3 L185.2 62.2 L186.0 62.1 L187.4 61.8 L187.7 61.9 L187.8 62.0 L187.9 62.1 L188.0 62.2 L188.3 62.1 L189.6 61.8 L190.1 62.0 L190.4 62.3 L190.6 62.6 L191.0 62.9 L190.9 63.1 L191.4 63.0 L192.1 62.7 L192.4 62.5 L192.4 62.3 L192.9 61.7 L193.1 61.5 L193.2 61.5 L193.9 61.5 L194.1 61.5 L194.7 61.2 Z M200.2 51.8 L200.3 52.1 L200.0 52.4 L197.9 52.9 L197.4 52.9 L196.6 52.6 L195.1 51.6 L194.7 51.3 L194.6 51.0 L195.0 51.0 L196.3 50.4 L196.9 50.3 L197.6 50.3 L199.4 50.7 L199.8 50.9 L200.2 51.2 L200.4 51.5 L200.2 51.8 Z M179.5 45.2 L179.0 45.2 L178.9 45.5 L179.1 45.8 L179.5 45.9 L179.5 46.3 L179.1 46.4 L179.0 46.7 L179.2 47.4 L179.4 47.7 L179.4 47.9 L179.4 48.0 L179.2 48.1 L178.8 47.9 L178.7 48.0 L178.6 48.1 L178.2 48.2 L177.4 48.4 L177.1 48.4 L176.6 48.8 L176.2 49.0 L176.1 48.8 L176.0 48.6 L175.6 48.4 L175.5 48.3 L175.3 48.4 L175.3 48.4 L175.3 48.3 L175.3 48.1 L175.3 48.0 L175.0 47.8 L174.8 47.7 L174.2 47.6 L173.7 47.6 L173.4 47.4 L173.2 46.8 L173.4 46.2 L173.7 45.6 L174.5 44.8 L176.2 43.7 L177.0 43.9 L177.9 44.0 L178.3 44.1 L178.4 44.3 L178.4 44.5 L178.5 44.7 L178.8 44.8 L179.1 44.8 L179.3 44.9 L179.4 45.1 L179.5 45.2 Z" fill="#172033" fill-rule="evenodd"/></svg>
