<svg xmlns="http://www.w3.org/2000/svg" viewBox="0 0 320 200" role="img"><path d="M212.0 162.0 L211.0 162.4 L210.4 162.7 L210.0 162.8 L209.7 162.6 L209.4 162.4 L209.1 162.2 L208.7 162.1 L208.3 162.3 L208.0 162.5 L207.7 162.6 L207.3 162.6 L206.9 162.5 L206.6 162.6 L205.7 163.3 L205.4 163.4 L205.1 163.4 L203.6 163.2 L203.3 163.1 L203.0 162.8 L202.9 162.6 L202.7 162.5 L202.2 162.5 L201.5 162.6 L201.2 162.6 L200.8 162.5 L200.2 162.2 L199.9 161.9 L199.6 161.4 L199.5 160.8 L198.8 160.3 L197.8 160.7 L196.0 161.9 L195.6 161.8 L194.8 161.3 L194.3 161.3 L193.8 161.4 L193.5 161.7 L193.2 162.0 L192.9 162.4 L192.5 162.6 L192.2 162.7 L191.9 162.9 L191.4 164.3 L191.2 164.7 L189.8 166.5 L189.2 166.9 L188.2 167.2 L187.5 167.2 L185.7 166.9 L185.0 166.8 L184.3 167.0 L182.6 167.8 L181.9 168.2 L181.5 168.3 L181.2 168.3 L180.5 168.1 L180.2 168.0 L180.1 168.2 L180.1 168.5 L180.2 169.1 L180.2 169.5 L180.0 169.9 L179.6 170.6 L179.3 171.0 L178.4 171.2 L177.4 171.1 L176.7 170.9 L176.6 170.8 L176.4 170.3 L176.3 170.1 L175.9 169.9 L175.7 170.0 L175.5 170.1 L175.2 170.2 L174.8 170.2 L174.4 170.1 L173.9 169.9 L173.5 169.8 L173.4 169.6 L173.2 169.3 L173.1 169.2 L172.9 169.4 L172.7 169.7 L172.6 170.0 L172.4 170.2 L172.3 170.3 L171.8 170.6 L171.6 170.7 L171.6 170.9 L171.7 171.4 L171.7 171.6 L171.1 171.9 L170.9 172.0 L169.3 172.3 L169.3 172.3 L169.0 172.6 L169.1 173.1 L169.5 173.9 L169.7 174.4 L169.7 174.9 L169.6 175.2 L168.9 176.3 L168.7 176.3 L168.6 176.2 L168.4 176.1 L168.4 176.1 L168.3 176.0 L168.2 175.9 L168.1 175.9 L168.0 175.9 L167.7 176.1 L167.6 176.2 L165.4 176.0 L165.1 176.0 L164.9 176.2 L164.3 177.0 L163.9 177.4 L163.5 177.7 L163.0 177.9 L162.6 178.0 L162.2 178.0 L161.8 177.9 L161.4 177.8 L160.9 177.3 L160.7 176.9 L160.6 176.4 L160.2 175.9 L159.9 175.6 L159.4 175.4 L159.3 175.3 L158.5 175.0 L154.9 174.4 L153.6 173.9 L153.2 173.7 L153.0 173.4 L152.5 172.4 L152.3 172.1 L151.9 171.9 L151.8 171.5 L151.8 171.2 L151.6 170.8 L151.4 170.8 L150.9 170.9 L150.7 170.9 L150.6 170.8 L150.4 170.4 L150.4 170.3 L150.3 170.3 L150.0 170.2 L149.9 170.2 L149.7 170.0 L149.3 169.2 L149.1 169.0 L148.4 168.5 L148.1 168.0 L147.5 167.1 L147.0 166.7 L146.6 166.5 L146.2 166.6 L145.9 166.7 L145.4 166.7 L145.2 166.7 L145.0 166.5 L144.8 166.4 L144.3 165.9 L144.3 165.7 L144.6 165.3 L145.1 164.4 L145.0 164.2 L145.0 164.1 L144.8 164.2 L144.6 164.1 L143.8 163.8 L143.5 163.8 L143.1 163.9 L142.9 163.9 L142.7 163.7 L142.6 163.3 L142.5 162.8 L142.5 162.5 L142.6 162.2 L142.9 161.8 L143.0 161.6 L143.0 161.4 L142.9 160.8 L143.0 160.7 L143.1 160.3 L143.1 160.1 L143.0 159.9 L142.8 159.5 L142.8 159.2 L142.8 159.0 L143.1 158.6 L143.2 158.4 L143.1 158.2 L143.0 157.5 L142.9 156.7 L143.1 155.9 L143.0 155.2 L142.6 154.7 L142.4 154.6 L142.0 154.6 L141.8 154.6 L141.5 154.4 L140.9 153.9 L140.0 153.4 L139.6 153.2 L139.4 152.8 L139.4 152.6 L139.6 152.2 L139.6 152.0 L139.6 151.8 L139.6 151.3 L139.5 151.1 L138.9 149.7 L138.8 149.3 L138.8 149.0 L138.8 148.9 L138.6 148.5 L138.5 148.4 L138.3 148.3 L138.2 148.2 L138.2 148.2 L138.3 147.9 L138.3 147.8 L137.6 146.5 L137.6 146.1 L137.7 142.6 L138.1 140.9 L138.2 140.4 L138.1 139.2 L138.2 138.7 L138.4 138.2 L139.0 137.3 L139.1 137.2 L139.2 137.1 L139.4 137.1 L139.4 136.9 L139.4 136.8 L139.2 136.6 L139.2 136.4 L139.3 136.4 L139.5 136.3 L139.6 136.3 L139.6 136.1 L139.4 135.9 L139.3 135.8 L139.3 135.5 L139.4 135.3 L139.6 135.2 L139.7 135.0 L140.0 134.1 L140.1 133.8 L140.6 132.9 L140.9 132.2 L140.9 132.2 L141.1 132.2 L141.2 132.2 L141.3 132.1 L141.3 131.9 L141.2 131.6 L141.2 131.5 L141.3 130.5 L140.9 130.6 L141.0 130.2 L141.3 129.4 L141.2 128.8 L140.8 128.4 L140.5 127.9 L140.5 127.3 L141.0 126.7 L142.7 126.1 L143.5 125.4 L144.0 125.2 L144.2 125.0 L144.3 124.8 L144.3 124.6 L144.3 124.4 L144.3 124.1 L144.5 123.6 L144.8 123.3 L145.6 123.0 L146.0 122.6 L146.1 122.3 L146.0 122.0 L146.0 121.5 L146.1 121.1 L146.4 120.6 L146.8 120.2 L147.2 120.0 L147.4 120.0 L147.5 119.9 L147.5 119.7 L147.5 119.5 L147.4 119.3 L147.1 119.3 L146.4 119.1 L146.2 119.2 L146.1 119.1 L146.1 118.5 L146.0 118.4 L145.9 118.3 L145.6 117.8 L144.9 117.1 L144.7 116.8 L144.7 116.3 L145.0 115.9 L145.0 115.6 L144.6 115.3 L143.7 115.0 L143.3 114.7 L143.1 114.2 L143.0 113.9 L143.0 113.7 L143.1 113.4 L143.2 113.2 L143.3 113.0 L143.4 112.9 L143.3 112.7 L143.1 112.5 L143.1 112.4 L143.3 112.0 L144.0 111.2 L144.2 110.7 L144.2 110.6 L144.2 110.4 L144.1 110.3 L143.9 110.3 L143.6 110.2 L143.4 110.0 L143.3 109.8 L143.1 109.7 L141.9 109.0 L141.6 108.6 L141.4 108.8 L141.2 108.8 L140.8 108.7 L140.7 108.7 L140.4 108.7 L140.4 108.7 L140.3 108.5 L140.3 108.3 L140.2 108.2 L140.0 108.2 L139.6 108.4 L139.4 108.4 L139.2 108.3 L138.9 107.9 L138.8 107.8 L138.5 107.7 L138.3 107.7 L138.1 107.8 L138.0 108.0 L137.9 108.1 L137.6 108.1 L137.1 107.9 L136.7 108.0 L136.4 108.0 L136.2 108.0 L136.0 107.6 L135.9 107.4 L135.7 107.3 L135.5 107.3 L135.4 107.5 L135.3 107.7 L135.2 107.8 L135.0 107.8 L134.7 107.8 L134.4 107.6 L134.2 107.3 L134.1 106.9 L134.1 106.5 L134.7 105.9 L134.9 105.9 L135.3 105.9 L135.5 105.8 L135.7 105.6 L135.8 105.4 L135.8 105.2 L135.8 104.9 L136.0 104.7 L136.6 103.8 L136.7 103.5 L136.9 103.1 L136.9 102.7 L136.8 101.8 L137.1 100.8 L137.2 99.6 L137.3 98.9 L137.5 98.6 L137.5 98.2 L137.6 97.4 L137.9 96.1 L137.9 95.5 L137.3 95.2 L136.4 94.6 L136.0 94.3 L135.7 94.0 L135.6 93.9 L135.0 92.4 L134.8 92.1 L133.8 92.5 L133.5 92.2 L133.3 91.7 L133.0 91.6 L132.2 91.9 L131.8 92.1 L130.9 92.9 L130.5 93.2 L130.0 93.2 L129.1 92.9 L128.7 92.9 L128.5 93.0 L128.3 93.5 L128.1 93.6 L127.9 93.6 L127.8 93.5 L127.6 93.3 L127.5 93.2 L127.0 93.1 L125.8 93.3 L125.5 93.3 L125.3 93.2 L125.1 93.0 L124.8 92.9 L124.6 92.9 L123.3 92.8 L122.8 92.8 L121.9 93.0 L120.3 91.3 L118.7 89.5 L117.1 87.7 L115.5 86.0 L113.9 84.2 L112.2 82.4 L110.6 80.7 L109.0 78.9 L108.4 78.1 L108.0 77.3 L108.2 77.0 L108.9 76.7 L109.2 76.4 L110.2 74.8 L110.5 74.2 L110.7 73.9 L111.0 73.7 L111.7 73.6 L112.0 73.5 L112.3 73.3 L112.5 73.0 L112.7 72.5 L113.0 72.3 L113.3 72.2 L113.6 72.2 L113.8 72.2 L113.9 71.8 L113.9 71.6 L114.0 70.8 L114.0 70.5 L113.9 70.5 L113.8 70.4 L113.8 70.3 L113.7 70.1 L113.3 69.9 L113.2 69.7 L113.0 69.1 L113.0 68.9 L113.1 67.9 L113.2 67.6 L113.4 67.3 L113.5 67.1 L113.5 67.0 L113.4 66.8 L113.4 66.6 L113.1 66.3 L112.9 65.7 L112.8 65.4 L112.5 65.1 L112.2 64.9 L112.0 64.7 L111.9 64.2 L112.1 63.5 L112.4 62.7 L112.8 62.0 L113.4 61.2 L113.6 61.0 L114.0 60.9 L114.5 60.9 L114.9 61.1 L115.1 60.7 L115.5 60.7 L116.0 60.9 L116.4 60.6 L117.4 60.7 L117.8 60.6 L117.9 60.6 L118.5 60.0 L118.5 59.9 L118.5 59.7 L118.5 59.5 L118.3 59.2 L118.2 59.0 L118.3 58.9 L118.6 58.9 L119.1 59.0 L119.2 59.1 L119.4 59.3 L119.6 59.4 L119.8 59.5 L120.0 59.5 L120.5 59.4 L120.8 59.3 L121.2 59.4 L122.0 59.9 L122.3 60.1 L122.7 59.9 L123.1 59.5 L123.7 58.7 L124.0 58.4 L124.4 58.2 L125.9 57.9 L128.6 56.2 L129.2 56.1 L129.6 56.3 L129.8 55.2 L129.9 54.9 L130.3 54.6 L130.6 54.4 L130.9 54.1 L131.1 53.8 L131.3 53.5 L131.4 53.1 L131.4 52.7 L131.2 52.4 L130.9 52.2 L130.2 51.8 L130.2 51.7 L129.9 51.5 L129.7 51.3 L129.4 51.3 L129.1 51.4 L128.8 51.3 L128.5 51.2 L128.3 51.1 L128.0 51.0 L127.5 51.0 L127.0 51.1 L126.7 51.5 L126.2 52.3 L126.0 52.3 L124.5 51.2 L124.3 50.9 L123.9 50.3 L123.9 49.7 L124.2 49.1 L124.7 48.6 L124.8 48.5 L124.9 48.3 L124.9 48.2 L124.8 48.0 L124.6 47.7 L124.4 47.1 L124.2 46.8 L124.1 46.7 L123.9 46.6 L123.7 46.5 L123.6 46.3 L123.7 46.2 L123.7 46.0 L123.7 45.9 L123.6 45.7 L123.3 45.5 L123.0 45.5 L122.7 45.4 L122.2 44.5 L122.1 44.2 L122.1 43.8 L122.4 43.3 L123.4 43.0 L123.7 42.6 L124.0 42.0 L124.2 41.8 L124.3 41.6 L124.6 41.7 L124.8 41.6 L124.9 41.3 L124.9 41.0 L125.2 40.4 L125.2 40.2 L125.1 39.8 L125.1 39.6 L125.2 39.4 L125.7 38.8 L126.1 38.0 L126.4 37.8 L126.9 37.6 L128.7 37.6 L129.6 37.5 L130.1 37.2 L130.3 36.7 L130.8 36.2 L131.8 35.5 L131.9 35.5 L132.2 35.2 L132.4 34.9 L132.7 34.6 L133.7 34.2 L134.0 33.9 L134.4 33.5 L134.8 33.2 L135.3 33.1 L136.1 33.1 L136.6 33.1 L136.9 32.9 L137.1 32.5 L137.3 31.7 L137.6 31.4 L137.6 31.1 L137.5 30.9 L137.5 30.6 L137.7 30.2 L138.2 29.8 L138.5 29.6 L138.8 29.4 L139.9 29.2 L140.3 29.1 L140.8 29.0 L141.2 28.6 L141.4 28.2 L141.5 27.7 L140.6 26.4 L138.4 23.9 L137.1 22.0 L137.5 22.2 L138.2 22.6 L139.0 23.4 L140.2 25.2 L141.0 26.0 L141.6 26.3 L142.6 26.6 L143.2 26.8 L144.3 27.7 L144.9 28.0 L145.5 28.1 L145.7 28.5 L145.8 28.5 L145.8 28.7 L145.9 28.7 L146.0 28.7 L147.2 29.0 L147.4 29.1 L147.6 29.4 L149.5 31.1 L149.0 30.3 L148.3 29.5 L147.4 29.0 L145.8 28.3 L143.9 27.0 L142.6 26.3 L142.4 26.1 L142.2 25.5 L142.2 25.2 L142.7 25.1 L143.1 25.3 L143.8 25.9 L144.7 26.1 L145.1 26.4 L145.8 27.0 L147.2 27.8 L149.1 28.7 L151.4 30.3 L155.2 32.6 L156.5 33.5 L156.8 33.8 L157.1 34.2 L158.3 35.3 L161.2 38.5 L162.2 39.3 L162.9 40.2 L163.4 41.0 L163.9 42.0 L164.3 42.5 L164.3 42.4 L164.1 41.9 L164.2 41.6 L164.5 41.7 L165.0 41.8 L165.4 42.2 L165.8 42.6 L166.2 43.0 L166.5 43.5 L167.0 44.3 L167.5 44.9 L167.9 45.4 L169.5 47.0 L169.9 47.7 L170.1 48.4 L169.8 49.0 L170.0 48.9 L169.9 49.8 L170.0 52.5 L169.6 54.7 L169.4 55.1 L168.9 55.4 L168.5 55.7 L168.2 56.1 L168.0 56.5 L167.9 56.9 L167.7 57.8 L167.2 59.0 L167.2 59.5 L167.2 60.9 L167.2 61.1 L167.0 61.3 L166.9 61.6 L166.9 65.3 L166.8 65.8 L166.8 66.0 L165.4 68.0 L165.4 68.1 L165.5 68.2 L166.1 67.6 L166.4 67.4 L166.4 67.4 L166.5 67.2 L166.6 67.2 L166.9 67.3 L167.0 67.3 L167.1 67.3 L167.1 67.3 L167.4 67.3 L167.2 67.2 L167.6 66.3 L167.7 63.5 L167.9 62.7 L170.1 58.7 L170.7 58.0 L171.4 57.4 L172.4 57.2 L173.3 57.3 L174.1 57.5 L175.3 58.2 L175.8 58.5 L175.9 58.6 L175.9 58.7 L176.1 58.8 L176.2 58.9 L176.3 58.9 L176.4 58.8 L176.4 58.6 L176.6 58.5 L178.4 58.7 L179.8 59.4 L180.2 59.7 L180.8 60.2 L181.6 61.0 L182.2 61.4 L183.3 62.5 L184.0 63.2 L184.2 63.5 L184.6 63.6 L185.0 64.1 L186.2 65.1 L186.9 65.6 L187.3 66.0 L187.6 66.3 L188.0 66.6 L188.4 67.1 L188.8 68.1 L189.4 69.6 L189.7 69.9 L189.7 70.3 L189.8 70.5 L190.0 70.2 L190.1 70.1 L190.1 69.8 L190.1 69.5 L190.4 69.2 L190.6 69.0 L190.7 69.0 L190.8 68.9 L191.2 69.0 L191.6 69.1 L192.0 69.3 L192.4 69.5 L193.0 69.9 L193.3 70.0 L194.0 70.5 L194.9 71.2 L196.6 72.9 L197.1 73.6 L197.5 74.3 L197.7 75.2 L197.7 75.7 L197.8 76.0 L197.9 76.2 L198.0 76.4 L198.0 76.6 L197.7 76.2 L197.5 76.0 L197.9 76.8 L198.0 77.1 L198.0 77.5 L198.1 77.9 L198.1 78.6 L197.8 79.4 L197.7 79.8 L197.5 80.1 L197.4 80.4 L197.4 80.8 L197.2 81.3 L197.2 81.8 L197.7 82.6 L197.6 83.8 L197.4 84.4 L197.1 84.9 L196.9 85.3 L195.8 86.9 L195.8 87.0 L195.6 87.5 L195.5 87.8 L195.5 88.3 L195.4 88.8 L195.2 89.1 L194.2 90.1 L194.0 90.4 L193.9 90.6 L194.0 90.8 L194.2 90.8 L194.5 90.7 L194.7 90.7 L194.9 90.7 L194.9 90.8 L195.0 92.2 L195.0 92.4 L195.1 92.5 L195.3 92.6 L195.5 92.5 L195.6 92.5 L195.7 92.3 L195.4 92.1 L195.3 91.9 L195.4 91.7 L195.6 91.6 L195.8 91.5 L196.0 91.6 L196.1 91.7 L196.1 91.8 L196.3 92.1 L197.0 93.0 L197.1 93.4 L197.0 93.7 L196.8 94.0 L196.4 94.1 L196.1 94.3 L196.0 93.9 L195.8 93.6 L195.5 93.6 L195.2 93.5 L194.9 93.7 L194.8 94.0 L194.6 94.6 L194.3 95.3 L194.3 95.5 L194.2 95.8 L194.3 96.0 L195.1 96.7 L194.9 96.9 L194.7 96.8 L194.6 96.8 L194.4 96.7 L194.1 96.8 L193.9 96.9 L193.7 96.9 L193.5 97.0 L193.0 97.2 L191.3 97.3 L190.9 97.4 L190.7 97.5 L190.5 97.4 L190.2 97.1 L190.1 97.0 L189.5 97.1 L189.1 97.1 L188.1 97.5 L187.3 97.1 L186.5 97.2 L185.8 97.5 L185.2 98.1 L184.9 98.7 L184.7 98.8 L184.1 98.9 L183.9 98.9 L183.7 98.8 L183.5 98.7 L183.2 98.8 L183.0 98.9 L182.6 99.6 L182.3 100.0 L181.9 100.4 L181.6 100.9 L181.5 101.6 L181.6 101.9 L182.0 102.1 L182.3 102.3 L182.6 103.2 L183.2 103.9 L183.3 104.3 L183.3 104.7 L183.1 105.0 L182.8 105.6 L182.4 106.7 L182.1 107.3 L181.7 108.2 L181.5 108.9 L181.3 109.2 L181.1 109.5 L180.9 109.8 L180.8 110.2 L180.9 110.5 L181.0 110.8 L181.0 111.2 L181.0 111.7 L180.9 112.1 L180.6 112.5 L178.8 114.4 L178.5 114.8 L178.4 115.3 L178.7 116.2 L179.0 118.0 L179.2 118.7 L179.7 119.4 L181.1 120.5 L181.4 120.9 L182.5 122.4 L183.0 123.4 L183.1 123.8 L183.1 124.8 L183.2 125.2 L183.5 125.6 L183.8 125.8 L184.9 126.2 L185.7 126.8 L185.7 126.9 L185.9 127.3 L186.0 127.6 L186.0 127.7 L186.1 127.7 L186.2 127.9 L186.3 127.9 L186.5 127.9 L186.5 128.0 L186.6 128.0 L187.1 128.3 L187.4 128.7 L187.4 129.1 L187.1 129.7 L187.1 129.8 L187.1 130.1 L187.1 130.2 L187.0 130.6 L187.0 130.8 L187.0 131.0 L187.1 131.2 L187.2 131.4 L187.3 131.4 L187.5 131.5 L188.1 131.6 L188.4 131.8 L188.4 131.8 L189.1 132.2 L189.3 132.3 L189.5 132.2 L189.7 131.8 L190.0 131.9 L190.3 132.0 L190.4 132.1 L190.5 132.1 L190.7 132.2 L190.8 132.2 L190.9 132.3 L191.0 132.4 L191.1 132.3 L191.3 132.2 L191.3 132.1 L191.9 132.0 L192.1 131.8 L192.0 131.4 L192.7 131.7 L193.3 131.9 L193.8 131.8 L194.5 131.3 L195.0 132.3 L195.1 132.6 L195.1 133.4 L195.0 133.5 L194.8 133.8 L194.9 133.9 L195.0 134.1 L195.1 134.4 L195.1 134.6 L195.0 135.1 L194.9 135.3 L195.0 135.5 L195.2 136.0 L195.2 136.3 L195.0 136.5 L195.0 136.6 L195.2 136.8 L195.4 136.8 L195.6 136.7 L195.8 136.6 L196.0 136.5 L196.0 136.5 L196.0 136.6 L196.0 136.6 L196.1 136.6 L195.8 137.2 L196.0 137.6 L196.3 138.0 L196.5 138.4 L196.6 138.6 L196.7 138.9 L196.7 139.0 L196.6 139.1 L196.3 139.1 L196.2 139.2 L196.3 139.4 L196.3 139.6 L196.4 139.8 L196.2 140.0 L196.1 140.2 L196.3 140.4 L197.0 140.5 L197.1 140.8 L196.9 141.1 L196.6 141.3 L196.4 141.6 L196.7 142.6 L196.8 142.9 L196.9 143.0 L197.0 143.2 L197.1 143.4 L197.3 143.4 L197.5 143.4 L198.0 143.2 L198.2 143.2 L198.4 143.3 L198.0 144.1 L198.1 144.5 L198.2 144.4 L198.9 144.3 L199.1 144.4 L199.1 144.6 L198.9 144.9 L198.9 145.1 L199.0 145.4 L199.5 146.0 L199.7 146.3 L199.9 147.2 L200.0 147.3 L200.5 147.1 L200.6 147.3 L200.5 147.6 L200.4 147.9 L200.5 148.2 L200.6 148.4 L201.1 149.0 L201.1 149.2 L201.0 149.9 L201.2 150.1 L201.5 150.0 L201.9 149.7 L202.1 149.9 L202.0 150.1 L201.9 150.3 L201.9 150.5 L202.0 150.8 L202.1 151.0 L202.4 151.3 L202.5 151.5 L202.5 151.8 L202.3 152.1 L202.5 152.4 L203.3 153.1 L203.5 153.6 L203.5 154.3 L203.6 154.5 L203.8 154.6 L204.3 154.7 L204.4 154.8 L204.7 155.2 L204.9 156.2 L205.1 156.6 L205.2 157.3 L207.3 160.1 L207.9 160.4 L209.9 160.4 L210.7 160.8 L210.8 161.0 L211.0 161.2 L211.2 161.3 L211.6 161.4 L211.8 161.6 L211.9 161.8 L212.0 162.0 Z" fill="#172033" fill-rule="evenodd"/></svg>
