<svg xmlns="http://www.w3.org/2000/svg" viewBox="0 0 320 200" role="img"><path d="M162.3 23.7 L162.5 23.8 L164.1 24.5 L164.6 24.9 L164.9 24.9 L165.0 24.5 L165.3 24.4 L165.6 24.5 L165.9 24.6 L166.9 24.7 L167.7 25.1 L168.4 25.7 L169.0 26.4 L169.7 27.1 L170.9 27.6 L171.3 28.2 L171.6 28.2 L171.9 27.7 L172.2 27.8 L173.2 28.0 L173.3 28.0 L173.5 28.1 L173.7 28.2 L173.8 28.4 L174.1 28.5 L174.2 28.4 L174.3 28.2 L174.5 28.2 L174.9 28.6 L175.3 28.9 L175.5 29.1 L175.9 29.7 L175.8 30.3 L176.0 30.9 L176.4 31.6 L176.7 31.8 L176.9 32.0 L178.4 33.2 L179.3 34.4 L179.6 34.7 L181.7 35.8 L182.0 36.1 L182.2 36.5 L182.6 36.9 L184.4 37.8 L185.0 38.0 L188.0 38.1 L188.5 38.3 L190.0 39.6 L190.2 40.0 L190.7 41.2 L190.8 41.6 L191.0 42.2 L191.6 42.4 L192.2 42.4 L192.6 42.7 L192.3 42.8 L191.8 42.9 L191.6 43.0 L191.6 43.2 L192.1 43.4 L192.2 43.4 L192.6 43.6 L193.0 43.7 L193.4 43.2 L193.6 43.9 L193.5 44.2 L193.6 44.3 L194.4 44.3 L195.3 44.1 L195.7 44.2 L195.9 44.8 L196.1 44.7 L196.3 44.6 L196.4 44.4 L196.7 44.3 L199.9 44.4 L201.5 44.6 L202.9 45.1 L204.7 46.4 L205.0 46.7 L205.0 47.0 L205.2 47.6 L205.3 48.0 L205.3 48.2 L205.4 48.5 L205.7 48.6 L206.6 48.7 L211.2 49.7 L212.3 50.2 L213.0 51.1 L213.0 51.3 L213.5 51.2 L213.7 50.9 L213.8 50.6 L214.2 50.5 L214.8 50.5 L217.4 50.5 L221.4 51.3 L221.8 51.3 L222.2 51.2 L222.9 50.8 L223.2 50.8 L226.3 50.8 L227.0 50.9 L228.2 51.5 L229.1 51.5 L229.7 52.0 L230.4 52.2 L231.0 52.0 L231.6 51.8 L232.2 51.8 L232.9 52.4 L232.9 52.4 L233.1 52.4 L233.4 52.4 L233.6 52.4 L233.9 52.4 L234.6 52.0 L235.9 50.8 L236.6 50.5 L237.4 50.8 L238.4 50.6 L240.0 49.6 L240.5 49.2 L241.3 48.1 L241.9 47.6 L241.9 47.6 L242.0 47.4 L242.1 46.9 L242.3 46.7 L243.1 46.1 L243.8 46.0 L245.7 46.5 L247.2 47.0 L247.7 47.1 L248.0 46.9 L248.2 46.7 L248.4 46.3 L248.8 45.9 L249.2 46.2 L249.4 46.2 L249.6 46.2 L250.3 45.9 L251.0 45.8 L251.5 45.6 L251.8 45.3 L252.4 45.3 L252.6 45.8 L252.0 46.1 L251.7 46.3 L251.3 46.6 L252.1 47.0 L252.5 47.4 L252.6 47.6 L252.3 47.9 L251.9 48.0 L250.7 48.0 L250.6 49.1 L250.5 49.3 L250.3 49.5 L250.3 49.6 L250.4 49.8 L251.0 50.3 L251.3 50.6 L252.4 51.5 L252.5 52.1 L252.7 53.3 L253.0 53.7 L253.5 54.0 L254.2 54.3 L254.7 54.6 L254.9 55.2 L254.7 55.5 L253.7 56.5 L253.3 56.7 L252.8 57.0 L252.7 57.7 L252.6 58.5 L252.5 58.8 L252.8 59.0 L253.6 59.8 L253.9 60.1 L254.6 60.1 L255.1 59.8 L255.5 59.5 L256.2 59.2 L256.5 59.1 L256.8 59.0 L257.2 59.2 L257.4 59.5 L257.5 59.7 L257.7 59.8 L258.1 60.1 L258.7 60.3 L259.2 60.4 L259.7 60.6 L260.1 61.1 L259.0 61.9 L256.8 61.6 L256.5 61.6 L256.0 62.5 L256.0 63.2 L256.2 63.7 L256.7 64.0 L257.3 64.7 L257.0 65.2 L256.0 65.3 L255.2 65.7 L255.3 66.4 L256.0 66.7 L256.0 66.7 L256.4 66.8 L256.7 67.1 L257.3 67.4 L258.1 67.4 L258.7 67.5 L259.3 67.6 L259.8 68.0 L259.9 68.3 L260.1 69.1 L262.1 70.0 L263.6 70.4 L265.9 71.2 L267.1 71.5 L270.4 71.8 L271.1 72.0 L271.5 72.8 L271.4 73.6 L271.0 73.9 L270.9 74.0 L267.6 74.1 L267.4 74.0 L267.1 73.7 L267.0 73.6 L266.7 73.7 L266.5 73.9 L266.4 74.1 L266.2 74.2 L264.7 74.3 L263.9 74.3 L263.1 74.1 L262.7 73.8 L262.0 73.1 L261.6 72.9 L260.7 73.0 L261.0 73.6 L261.5 74.3 L261.3 74.9 L260.5 75.0 L258.4 74.9 L257.8 75.2 L257.9 75.6 L258.2 75.9 L258.5 76.1 L258.8 76.4 L259.1 76.9 L259.2 77.2 L259.4 78.1 L259.7 79.2 L259.7 79.6 L259.6 80.0 L259.5 80.4 L259.3 80.9 L259.4 81.3 L259.8 81.6 L260.6 81.3 L260.9 81.6 L261.1 82.2 L260.8 82.5 L260.4 82.6 L260.0 82.8 L259.4 83.5 L259.1 83.8 L258.6 84.0 L258.1 83.9 L257.3 83.3 L256.8 83.2 L255.8 83.6 L255.9 84.4 L256.7 85.5 L256.3 85.6 L255.2 85.6 L252.0 85.7 L250.8 85.4 L250.2 85.1 L249.2 84.7 L247.9 83.7 L247.5 82.6 L247.8 82.2 L248.6 81.8 L248.7 81.4 L248.7 81.3 L248.5 81.1 L248.4 81.0 L248.4 80.9 L248.4 80.7 L248.4 80.6 L248.3 80.4 L248.2 80.2 L248.0 80.1 L247.7 80.0 L246.7 80.0 L246.2 79.8 L245.8 79.4 L244.4 77.4 L244.2 77.2 L244.0 77.1 L243.7 77.1 L243.5 77.3 L243.4 77.5 L243.3 77.7 L243.2 77.9 L242.9 78.1 L242.6 78.0 L242.3 77.7 L242.1 77.4 L241.8 76.9 L241.7 76.7 L241.4 76.6 L241.1 76.7 L240.6 76.9 L240.3 77.0 L240.0 77.0 L239.4 76.9 L239.1 76.8 L238.6 77.0 L238.6 77.1 L238.5 77.3 L238.7 77.8 L238.8 78.3 L237.9 78.3 L236.9 78.1 L236.6 77.9 L236.0 77.6 L235.4 77.2 L234.6 76.6 L233.9 76.2 L233.2 75.9 L230.5 75.8 L230.0 75.6 L228.3 74.7 L227.3 74.5 L226.4 74.6 L226.0 75.0 L225.9 75.5 L225.9 75.9 L225.6 76.3 L225.0 76.6 L224.2 76.7 L223.8 76.7 L223.3 76.7 L222.6 76.6 L221.8 76.3 L219.7 75.0 L219.1 74.8 L218.5 74.8 L217.9 75.0 L215.6 76.9 L215.0 77.4 L214.7 77.5 L213.6 77.6 L212.5 78.0 L212.2 78.0 L211.4 77.8 L210.7 77.3 L208.6 75.4 L207.6 74.7 L206.5 74.2 L205.2 74.2 L204.4 74.5 L203.0 75.5 L202.2 75.9 L201.8 75.9 L201.0 75.9 L199.1 76.0 L198.8 76.1 L199.0 75.9 L199.3 75.1 L198.4 75.4 L198.0 75.5 L197.5 75.4 L197.8 75.1 L197.9 74.9 L197.9 74.7 L197.6 74.4 L197.3 74.3 L197.2 74.5 L197.1 74.7 L197.0 74.8 L195.7 75.1 L195.0 75.2 L194.5 74.9 L194.2 74.7 L192.9 74.2 L192.2 74.0 L190.8 73.3 L190.0 74.4 L189.9 74.6 L188.1 74.6 L187.7 74.8 L185.3 74.0 L184.3 73.7 L182.7 72.9 L182.0 71.7 L181.7 71.9 L181.1 72.1 L180.9 72.3 L181.1 71.9 L181.1 71.7 L181.0 71.5 L180.9 71.2 L180.5 71.7 L180.1 71.5 L179.7 71.1 L179.1 70.9 L179.3 71.2 L179.4 71.5 L178.6 71.5 L178.4 71.3 L178.4 71.0 L178.4 70.7 L178.1 69.9 L177.7 69.7 L176.7 70.3 L176.6 70.5 L176.3 70.8 L175.9 71.1 L175.6 71.2 L175.4 71.7 L175.0 71.8 L174.6 72.0 L174.2 72.2 L174.0 72.7 L174.0 73.0 L174.0 73.3 L173.5 73.6 L172.5 73.7 L165.0 72.1 L162.8 72.0 L161.0 72.9 L159.8 74.8 L159.3 75.4 L158.9 75.6 L157.9 75.8 L157.5 76.0 L157.2 76.4 L157.3 76.6 L157.3 76.8 L157.3 77.3 L157.1 77.6 L156.3 78.6 L155.9 79.7 L155.7 80.2 L154.8 80.4 L153.4 80.2 L151.9 79.7 L150.9 79.2 L147.4 76.8 L146.8 76.2 L146.0 74.7 L145.4 74.0 L144.9 73.8 L144.1 73.6 L143.7 73.5 L143.8 73.3 L143.9 73.0 L143.9 72.7 L143.6 72.3 L143.1 72.2 L142.7 72.2 L141.9 72.3 L138.3 72.2 L136.2 72.5 L135.4 73.0 L135.0 73.3 L134.6 74.1 L134.5 74.4 L134.7 76.6 L134.5 77.2 L133.6 78.8 L133.6 79.5 L134.0 80.7 L133.9 81.3 L133.0 82.5 L132.8 82.9 L132.7 83.2 L132.8 84.1 L133.3 84.9 L133.9 85.6 L134.3 86.3 L134.1 86.9 L133.4 87.2 L132.7 87.3 L132.1 87.9 L132.2 88.5 L132.6 89.1 L133.5 90.3 L133.7 90.5 L134.6 90.9 L134.9 91.2 L135.2 91.6 L135.5 91.9 L136.0 91.8 L136.4 91.7 L137.1 91.7 L137.4 91.6 L137.7 91.4 L137.9 91.1 L138.2 90.8 L138.6 90.8 L138.9 91.1 L139.0 91.4 L139.1 91.8 L139.3 92.1 L139.5 92.3 L139.9 92.3 L140.2 92.2 L140.5 92.2 L140.9 92.6 L141.2 93.5 L141.7 94.0 L142.0 94.2 L142.5 94.3 L143.4 94.4 L143.9 94.6 L144.2 95.0 L144.4 95.4 L144.5 95.9 L144.5 96.0 L144.1 96.1 L144.0 96.6 L143.4 97.2 L143.1 97.8 L143.8 98.4 L144.6 98.4 L146.0 98.0 L146.8 98.1 L147.2 98.5 L147.5 99.2 L147.7 99.9 L148.6 101.8 L148.9 102.5 L148.9 103.1 L148.6 103.3 L148.3 103.5 L148.1 103.6 L148.1 103.9 L148.2 103.8 L148.6 103.8 L149.3 103.9 L150.1 104.3 L150.5 104.6 L150.6 105.0 L150.6 105.0 L150.5 105.6 L150.4 105.9 L150.0 106.5 L149.9 107.0 L149.9 107.5 L150.3 108.7 L151.0 110.3 L151.6 111.0 L153.2 112.2 L153.8 112.9 L154.6 114.4 L155.2 115.1 L155.9 115.6 L156.3 115.8 L156.7 116.0 L157.1 116.0 L158.1 116.0 L158.5 116.1 L159.0 116.7 L159.1 117.2 L159.4 117.7 L161.1 118.1 L161.8 118.5 L162.3 119.0 L162.7 119.4 L163.8 120.6 L165.7 121.9 L166.9 123.2 L168.5 124.2 L168.7 124.8 L168.9 125.4 L169.2 126.2 L169.7 126.8 L173.9 129.2 L179.9 133.7 L181.7 135.2 L182.9 136.0 L183.8 136.6 L186.0 137.5 L189.6 137.9 L190.8 138.5 L191.4 139.4 L190.7 142.6 L191.5 144.5 L193.0 146.1 L194.5 147.2 L195.3 147.5 L195.7 147.8 L196.0 148.2 L196.3 149.0 L196.7 149.7 L197.3 150.2 L197.6 150.4 L202.8 152.9 L203.2 153.2 L204.3 154.2 L205.5 156.2 L205.5 156.2 L205.5 156.2 L205.5 156.2 L205.6 157.3 L204.6 157.8 L202.5 158.1 L202.5 158.1 L201.4 157.6 L200.8 157.8 L200.1 157.5 L199.4 157.0 L199.0 156.6 L198.5 155.9 L198.4 155.5 L198.7 155.1 L199.6 154.8 L199.0 154.6 L198.4 154.8 L197.7 155.1 L197.0 155.3 L197.2 155.2 L198.0 154.8 L197.6 154.8 L197.2 154.7 L196.9 154.6 L196.7 154.3 L197.0 154.0 L196.7 153.7 L196.7 153.5 L195.9 154.0 L194.6 153.2 L192.5 151.2 L187.1 149.1 L185.8 148.3 L185.2 148.1 L184.9 147.9 L184.7 147.4 L184.4 147.2 L184.0 147.1 L183.6 147.0 L183.4 146.9 L183.1 146.7 L182.7 146.3 L182.7 146.1 L182.5 145.6 L182.5 145.5 L182.3 145.4 L181.8 145.3 L181.7 145.2 L178.1 141.8 L177.0 141.3 L176.7 141.1 L176.4 140.8 L176.1 140.6 L171.2 140.1 L169.0 139.4 L166.5 139.0 L163.0 137.2 L163.0 137.1 L162.9 136.9 L162.8 136.7 L162.6 136.7 L162.4 136.7 L162.1 136.9 L161.9 136.9 L160.4 136.7 L157.6 136.7 L157.6 136.4 L158.4 136.4 L159.2 136.2 L160.0 136.0 L160.7 135.6 L160.1 135.3 L159.2 135.2 L155.5 135.1 L155.1 135.2 L154.4 135.6 L154.1 135.6 L153.4 135.7 L151.9 136.1 L147.3 136.1 L147.3 136.4 L148.5 136.6 L149.1 136.9 L149.3 137.5 L147.0 137.5 L147.1 137.9 L146.5 137.8 L145.3 137.5 L144.3 137.4 L143.9 137.3 L143.4 136.9 L143.1 136.9 L143.1 137.2 L142.7 136.9 L141.8 137.0 L141.6 136.7 L141.5 136.7 L141.5 136.8 L141.5 136.9 L141.3 136.9 L141.4 136.5 L141.6 136.4 L141.9 136.4 L142.2 136.3 L142.3 136.0 L142.2 135.9 L142.2 135.7 L142.4 135.4 L141.7 135.4 L141.5 135.5 L141.3 135.6 L141.2 135.3 L140.9 135.1 L140.0 134.9 L140.6 134.8 L140.7 134.6 L140.4 134.3 L139.7 134.3 L139.7 134.1 L139.9 134.0 L140.1 133.9 L140.3 133.8 L139.9 133.6 L139.7 133.5 L140.0 133.3 L139.7 133.1 L140.0 132.8 L139.8 132.2 L140.2 132.0 L141.6 132.0 L141.6 131.7 L139.9 131.5 L139.2 131.5 L139.7 131.3 L140.1 131.3 L140.4 131.4 L140.7 131.5 L141.1 131.4 L141.0 131.1 L140.7 130.9 L140.3 130.7 L140.8 130.6 L141.0 130.3 L141.0 130.0 L140.5 129.7 L140.6 130.4 L140.2 130.4 L139.3 129.8 L138.8 129.5 L138.5 129.5 L138.2 129.5 L137.9 129.4 L137.7 129.2 L137.2 128.6 L136.9 128.4 L135.4 127.8 L135.0 127.5 L134.2 127.3 L131.7 127.1 L131.2 126.7 L130.8 125.8 L129.9 125.6 L129.0 125.3 L128.4 124.8 L129.5 125.1 L130.1 125.3 L130.7 125.3 L130.7 125.0 L130.5 124.9 L130.3 125.0 L130.2 125.0 L130.2 125.0 L129.2 124.4 L126.7 123.5 L125.7 122.9 L125.7 122.8 L124.9 121.9 L124.4 121.5 L123.9 121.4 L123.3 121.3 L123.0 121.2 L122.7 121.1 L122.2 120.9 L122.0 120.7 L121.9 120.4 L121.6 120.1 L119.6 118.3 L118.6 117.2 L117.9 116.7 L117.1 116.5 L115.5 115.1 L115.6 115.0 L113.9 113.6 L113.4 113.4 L113.1 113.2 L112.9 113.0 L113.1 112.6 L112.5 112.3 L110.5 110.8 L111.1 110.1 L110.8 109.3 L110.0 108.6 L109.2 108.2 L109.7 107.8 L110.4 107.5 L111.0 107.6 L111.3 108.3 L111.7 108.8 L112.5 108.5 L112.9 107.9 L112.1 107.4 L112.4 107.4 L112.4 107.3 L112.4 107.3 L112.6 107.4 L112.9 107.4 L112.7 107.0 L112.5 106.8 L114.4 107.7 L115.2 108.4 L115.6 108.7 L116.2 108.7 L115.7 107.4 L116.0 107.3 L116.2 107.2 L116.3 107.1 L116.5 106.9 L116.0 106.8 L115.6 106.5 L115.2 106.1 L114.9 105.6 L115.7 105.8 L116.7 106.5 L117.8 106.8 L120.5 107.9 L121.1 108.1 L124.1 108.4 L124.9 108.3 L125.0 107.9 L124.5 107.7 L122.0 107.4 L121.8 107.3 L120.7 106.2 L120.4 106.1 L116.7 104.8 L116.2 104.4 L110.9 100.6 L109.1 98.8 L108.1 97.9 L107.0 97.6 L106.9 97.4 L105.6 96.7 L105.3 96.7 L105.1 96.3 L101.3 92.1 L100.7 90.9 L101.1 90.4 L101.1 89.8 L100.8 89.2 L100.7 88.4 L100.6 86.3 L100.7 85.7 L101.5 83.3 L101.8 82.7 L102.1 82.0 L101.8 81.1 L99.6 77.5 L99.5 76.9 L99.1 76.4 L98.5 76.1 L96.2 75.2 L92.1 73.0 L90.2 71.2 L89.7 71.0 L89.1 70.5 L88.8 70.0 L89.3 69.6 L88.9 69.3 L87.5 68.6 L88.2 69.2 L88.3 69.2 L88.1 69.5 L87.8 69.7 L87.4 69.7 L87.1 69.5 L86.6 69.1 L82.5 67.6 L81.0 67.4 L80.4 67.1 L79.8 67.1 L79.1 67.4 L78.3 68.3 L77.6 69.5 L77.1 70.8 L76.7 73.4 L76.2 74.6 L76.1 74.6 L76.1 74.8 L75.2 75.7 L74.1 75.3 L74.7 75.9 L74.6 76.4 L74.1 77.0 L73.5 77.4 L73.3 77.1 L73.1 77.4 L73.1 77.7 L73.3 78.4 L73.1 78.3 L72.9 78.3 L72.7 78.2 L72.7 78.4 L73.3 78.9 L73.6 79.7 L73.5 80.6 L73.0 81.3 L72.6 81.5 L72.3 81.5 L72.0 81.4 L71.6 81.3 L71.1 81.4 L70.7 81.7 L70.3 82.0 L70.2 82.3 L69.9 82.3 L70.0 81.6 L70.3 81.3 L70.5 80.9 L70.2 80.2 L69.4 79.7 L69.2 79.4 L69.3 79.2 L69.3 79.0 L68.8 79.0 L69.0 79.4 L68.8 80.1 L69.0 80.4 L69.4 80.6 L69.7 80.6 L70.0 80.7 L70.2 81.0 L69.7 81.3 L69.2 82.1 L69.0 82.3 L68.8 82.1 L68.6 82.1 L68.8 82.3 L68.8 82.6 L68.8 83.0 L68.6 83.4 L68.3 83.3 L68.1 83.3 L68.2 83.4 L68.3 83.6 L68.3 83.9 L68.2 83.9 L68.1 83.9 L68.1 84.0 L68.1 84.2 L67.7 84.0 L66.9 84.2 L66.3 84.2 L66.6 84.3 L66.8 84.5 L67.0 84.9 L66.8 84.9 L66.8 85.1 L67.0 85.1 L67.0 85.4 L66.8 85.6 L66.6 85.7 L66.3 86.2 L66.3 86.5 L66.4 86.6 L66.4 86.7 L66.3 87.0 L66.7 87.0 L66.9 87.0 L67.1 87.2 L67.3 87.5 L65.9 87.5 L65.3 87.5 L64.7 87.2 L64.6 87.4 L64.6 87.4 L64.5 87.5 L64.2 86.9 L63.9 86.8 L63.5 86.9 L63.1 86.7 L62.9 87.0 L63.3 87.1 L63.7 87.3 L63.9 87.6 L63.7 88.0 L64.0 88.6 L64.2 88.8 L63.6 89.0 L63.5 88.7 L63.5 88.0 L63.4 87.5 L63.1 87.3 L62.0 87.0 L61.6 87.0 L61.7 86.8 L61.8 86.6 L61.9 86.5 L61.7 86.4 L61.5 86.5 L61.3 86.5 L61.6 86.2 L61.3 85.9 L60.9 86.0 L60.3 85.8 L59.7 85.5 L59.3 85.1 L59.5 84.9 L59.9 85.3 L60.5 85.4 L61.0 85.2 L61.3 84.6 L60.3 84.8 L59.9 84.8 L59.5 84.4 L59.5 84.2 L59.7 84.1 L59.9 83.8 L60.0 83.6 L59.6 83.3 L58.8 81.8 L57.2 80.6 L55.3 78.7 L55.0 78.5 L54.5 78.1 L53.8 77.8 L53.1 77.7 L53.2 77.4 L53.4 77.0 L53.6 76.9 L52.7 76.0 L53.6 75.5 L57.0 75.3 L56.2 75.1 L55.3 75.0 L53.6 75.1 L52.6 75.3 L52.2 75.2 L52.0 74.9 L52.1 74.5 L52.2 74.2 L52.2 74.0 L51.8 73.8 L52.0 73.5 L52.0 73.3 L51.8 73.2 L51.5 73.0 L51.5 72.8 L51.8 72.6 L52.0 72.4 L52.0 72.1 L51.8 71.7 L52.0 71.3 L52.0 71.0 L51.7 70.6 L51.3 70.4 L51.4 70.2 L51.6 70.0 L51.9 69.9 L52.3 69.9 L52.3 69.6 L51.9 69.5 L51.6 69.4 L51.4 69.1 L51.3 68.8 L51.6 68.8 L52.0 68.7 L52.6 68.3 L52.1 68.2 L51.1 68.1 L50.7 68.1 L50.3 67.8 L50.0 67.4 L49.9 67.0 L50.5 66.8 L50.5 66.6 L50.0 66.2 L48.9 63.9 L49.0 63.9 L49.1 63.8 L49.2 63.7 L49.0 63.5 L49.0 63.5 L49.1 63.4 L49.2 63.2 L48.6 62.1 L48.5 61.6 L48.7 61.1 L48.9 61.1 L49.3 61.3 L51.0 61.9 L51.6 61.9 L51.8 62.0 L53.1 62.9 L53.8 63.1 L53.8 63.1 L54.5 63.1 L58.2 62.9 L60.0 63.7 L60.5 64.1 L61.1 64.2 L63.1 64.4 L63.5 64.2 L63.8 63.8 L64.4 63.5 L66.2 62.9 L66.6 62.5 L65.8 61.8 L65.8 61.4 L66.0 61.1 L66.2 61.0 L66.8 61.1 L67.8 61.2 L68.4 61.4 L68.9 61.8 L69.8 62.3 L70.8 62.5 L71.7 62.6 L71.7 62.6 L71.8 62.6 L72.8 62.4 L74.6 61.8 L75.6 61.6 L76.4 61.8 L77.9 62.3 L79.6 62.5 L81.4 62.4 L82.8 61.8 L83.5 61.3 L85.0 60.6 L85.5 59.9 L85.7 59.4 L85.9 58.6 L85.9 58.4 L86.1 57.9 L86.5 57.5 L87.4 56.8 L87.8 56.4 L88.3 55.6 L88.6 55.4 L88.8 55.3 L89.2 55.2 L89.7 55.4 L89.7 56.0 L89.7 56.6 L89.7 57.2 L90.1 57.6 L90.6 58.0 L91.9 58.7 L92.1 58.8 L92.4 58.9 L92.4 58.9 L92.6 59.1 L92.7 59.4 L92.5 60.1 L92.5 60.3 L93.3 60.7 L96.8 61.8 L96.8 61.8 L96.8 61.8 L96.8 61.8 L97.4 62.9 L99.0 63.1 L100.6 62.7 L101.3 61.8 L101.5 61.0 L102.1 61.0 L103.0 61.4 L103.7 61.8 L104.2 61.9 L104.5 61.9 L105.0 62.0 L105.3 62.3 L107.2 62.3 L107.6 62.5 L110.3 64.2 L112.0 64.4 L113.6 63.9 L115.7 63.4 L116.9 63.4 L117.3 63.3 L117.7 63.1 L118.3 62.4 L118.7 62.2 L116.8 61.3 L116.3 60.7 L116.0 59.9 L115.7 58.9 L115.7 58.8 L115.5 58.4 L115.2 58.0 L115.2 57.7 L115.7 57.5 L115.9 57.4 L116.1 57.1 L116.3 56.8 L117.4 56.5 L117.9 56.4 L118.4 56.2 L119.2 56.2 L119.0 55.9 L118.4 55.2 L118.3 55.1 L117.7 54.6 L117.6 54.6 L117.4 54.6 L117.0 54.7 L116.8 54.8 L116.7 55.0 L116.6 55.0 L116.1 54.9 L115.8 54.7 L115.6 54.6 L115.2 54.0 L114.8 53.8 L114.5 53.7 L114.5 53.5 L114.5 53.5 L114.7 53.1 L115.0 52.8 L116.5 52.2 L117.6 52.0 L121.3 51.1 L121.3 51.1 L121.7 50.9 L121.7 50.5 L121.5 50.1 L121.7 49.8 L122.1 49.6 L122.5 49.7 L123.0 49.8 L123.4 49.8 L123.8 49.7 L124.5 49.3 L124.8 49.2 L125.8 49.3 L127.2 49.5 L128.7 49.4 L129.4 49.3 L130.2 49.0 L130.6 48.6 L130.6 48.1 L130.1 47.3 L130.0 46.9 L130.1 46.4 L130.4 46.0 L130.6 45.5 L130.6 44.9 L130.6 43.7 L130.5 42.9 L130.5 42.9 L130.8 42.1 L131.3 41.7 L131.4 41.3 L131.2 41.1 L130.9 40.7 L130.4 40.5 L129.4 40.2 L128.9 40.0 L128.6 39.8 L127.9 39.2 L127.3 38.4 L127.3 37.4 L127.9 36.4 L128.6 35.4 L128.7 35.3 L129.2 34.8 L130.0 34.5 L130.7 34.6 L133.4 34.7 L134.1 34.4 L134.9 33.5 L135.3 33.3 L135.4 33.2 L136.0 33.0 L136.6 32.9 L138.3 32.9 L138.3 32.9 L138.4 32.9 L139.8 32.4 L140.9 31.9 L142.1 31.8 L142.6 31.7 L142.8 31.6 L143.6 31.4 L144.3 31.0 L144.7 30.7 L144.8 30.6 L145.1 30.1 L145.1 29.6 L145.0 29.1 L145.0 28.4 L146.2 28.6 L146.4 28.6 L146.8 28.5 L147.2 28.3 L147.5 28.0 L147.8 27.8 L148.3 27.8 L148.6 27.9 L149.5 28.5 L150.1 28.7 L150.7 28.8 L151.0 28.8 L152.4 28.6 L153.2 28.6 L153.4 28.4 L153.4 28.4 L153.4 28.0 L153.2 27.8 L152.5 27.6 L152.3 27.4 L152.2 27.0 L152.3 26.4 L152.2 26.1 L151.8 25.1 L151.7 24.6 L151.7 24.3 L151.7 24.0 L152.7 23.3 L152.8 23.2 L154.0 22.9 L154.6 22.6 L155.3 22.4 L155.7 22.1 L155.8 22.0 L156.1 22.3 L156.1 22.3 L156.3 22.0 L156.8 22.2 L157.3 22.3 L157.7 22.3 L158.2 22.3 L158.5 22.4 L159.1 22.9 L159.5 23.1 L159.8 23.1 L160.6 23.0 L161.0 23.1 L161.4 23.2 L162.3 23.7 Z M234.9 172.6 L235.1 173.2 L234.8 174.4 L234.9 175.1 L235.1 175.7 L235.5 176.2 L236.0 176.6 L236.3 176.7 L237.0 177.0 L237.2 177.4 L237.1 178.0 L236.3 177.1 L235.8 176.8 L234.5 176.5 L234.0 176.3 L233.9 175.7 L227.4 172.6 L226.7 171.9 L226.7 171.5 L226.8 171.0 L226.8 170.5 L226.6 170.3 L224.6 170.0 L223.1 169.4 L222.5 169.3 L221.8 169.2 L221.2 169.1 L220.8 168.9 L220.5 168.5 L221.3 168.5 L220.5 167.9 L220.2 167.6 L220.0 167.2 L219.4 167.6 L218.5 167.3 L216.9 166.2 L214.6 165.3 L213.9 164.7 L214.3 163.9 L213.3 163.9 L212.1 163.2 L211.1 163.1 L210.8 163.1 L210.5 163.2 L210.3 163.3 L210.1 163.6 L209.8 163.6 L209.6 163.4 L209.5 163.3 L209.3 163.2 L208.4 162.7 L207.8 162.5 L208.5 163.0 L208.9 163.4 L209.4 164.3 L209.4 164.5 L209.1 164.6 L208.9 164.6 L208.9 164.3 L208.9 164.0 L208.9 163.9 L208.1 163.5 L206.2 162.9 L204.5 162.6 L202.5 162.0 L200.4 161.7 L197.2 160.7 L197.3 159.8 L196.4 159.3 L193.8 158.9 L190.8 157.3 L189.6 157.0 L189.0 156.7 L188.7 156.6 L188.2 156.5 L184.2 156.5 L183.0 156.3 L182.3 156.1 L181.6 155.8 L181.3 155.4 L181.7 155.0 L181.7 154.8 L181.3 154.7 L181.1 154.5 L180.9 154.2 L180.7 154.0 L181.5 154.1 L182.7 154.9 L183.4 155.0 L186.6 154.8 L189.7 155.1 L195.3 156.8 L196.7 157.4 L197.7 158.1 L197.8 158.3 L197.8 158.5 L197.8 158.7 L198.0 158.9 L198.2 159.0 L198.6 158.9 L198.8 158.9 L199.5 159.3 L199.8 159.4 L200.2 159.4 L200.3 159.3 L200.3 159.0 L200.5 158.9 L200.7 159.0 L201.0 159.1 L201.2 159.2 L201.7 159.2 L202.1 159.4 L202.6 159.7 L204.1 160.1 L204.8 160.3 L205.2 160.7 L205.5 160.7 L206.0 160.7 L207.6 161.8 L208.6 162.0 L207.4 161.4 L207.1 160.9 L207.5 160.5 L207.3 160.2 L206.2 160.5 L205.3 160.1 L205.7 159.5 L206.3 159.1 L207.1 159.0 L207.9 159.1 L209.5 159.6 L210.3 159.7 L210.6 159.6 L210.9 159.4 L211.3 159.4 L211.7 159.8 L211.8 160.2 L211.8 161.1 L211.8 161.5 L213.0 162.9 L213.4 163.1 L214.8 163.3 L215.7 163.9 L217.3 165.2 L218.2 165.8 L220.2 166.7 L226.8 170.0 L228.1 170.5 L230.1 171.0 L231.2 171.0 L231.6 171.2 L232.3 172.0 L232.4 172.1 L232.9 172.3 L234.3 172.4 L234.9 172.6 Z M205.5 165.7 L206.3 166.2 L208.2 166.8 L208.9 167.5 L195.2 164.6 L194.7 165.0 L194.0 164.8 L193.2 164.3 L192.8 163.9 L193.5 163.8 L194.7 163.4 L195.4 163.4 L195.2 163.5 L195.0 163.6 L194.6 163.9 L195.0 163.8 L195.5 163.8 L195.8 163.9 L196.2 164.1 L196.5 163.9 L197.1 164.2 L199.0 164.2 L200.4 164.8 L202.3 165.1 L203.2 165.4 L203.0 165.5 L203.0 165.5 L202.9 165.7 L205.1 165.8 L205.5 165.7 Z M185.6 157.1 L186.2 157.7 L186.8 158.2 L188.2 158.9 L187.9 159.2 L187.2 158.9 L186.4 158.9 L184.7 159.2 L181.2 158.7 L179.6 158.7 L176.8 159.5 L175.0 159.7 L170.8 159.1 L168.9 158.7 L168.2 158.7 L168.2 158.9 L167.6 158.7 L166.9 158.4 L169.5 157.4 L169.5 157.1 L168.8 156.9 L167.3 156.8 L166.7 156.6 L167.5 156.2 L168.3 156.2 L169.2 156.3 L170.0 156.3 L170.8 156.7 L171.9 157.0 L174.0 157.4 L176.0 157.4 L176.5 157.3 L177.4 156.9 L181.8 156.6 L184.8 157.3 L185.6 157.1 Z M151.9 153.2 L152.1 153.1 L152.3 153.0 L152.4 153.0 L152.5 153.4 L152.4 153.6 L152.1 153.8 L151.7 154.0 L151.2 154.4 L150.8 154.7 L147.4 155.5 L146.1 155.5 L145.2 155.3 L146.0 155.0 L146.1 154.4 L145.8 153.9 L145.4 154.0 L145.2 154.0 L144.7 153.5 L144.8 153.4 L145.0 153.3 L145.2 153.3 L145.4 153.2 L146.3 152.8 L147.7 152.6 L149.3 152.6 L150.4 153.0 L150.2 153.1 L150.1 153.2 L151.0 153.0 L151.4 153.0 L151.9 153.2 Z M169.0 151.2 L168.1 151.2 L164.0 150.6 L160.8 149.7 L159.6 149.5 L159.0 149.2 L158.5 149.1 L156.9 148.6 L157.0 148.4 L157.2 148.3 L157.6 148.3 L158.1 148.5 L158.5 148.5 L159.4 148.0 L159.7 148.3 L159.8 148.2 L160.2 147.8 L160.2 148.0 L161.6 147.7 L162.7 148.2 L163.8 148.9 L164.9 148.8 L163.8 148.0 L162.8 147.6 L162.5 147.3 L163.0 147.4 L164.1 147.3 L164.9 147.8 L165.0 147.8 L165.4 147.6 L165.6 147.5 L166.1 147.5 L167.2 147.7 L167.7 147.8 L168.0 148.0 L168.2 148.3 L168.5 148.6 L169.0 148.8 L169.0 149.0 L169.0 149.1 L168.9 149.1 L168.7 149.1 L169.5 149.5 L170.3 149.7 L171.2 149.8 L174.9 149.8 L175.5 149.6 L176.0 150.0 L176.7 150.1 L179.0 150.2 L181.3 150.6 L184.7 150.5 L186.5 150.7 L187.9 151.2 L178.5 151.2 L169.0 151.2 Z M161.7 145.2 L158.8 144.0 L158.2 143.4 L158.5 143.5 L158.7 143.7 L158.9 143.7 L158.9 143.4 L159.1 143.4 L159.2 143.4 L159.4 143.4 L159.2 143.1 L159.3 142.9 L159.5 142.7 L160.0 142.6 L159.4 141.9 L158.9 141.1 L159.7 141.0 L160.0 141.1 L161.5 141.5 L168.8 141.7 L173.4 142.6 L173.4 142.9 L172.9 142.9 L173.3 143.0 L173.7 143.1 L174.0 143.1 L174.2 142.9 L174.5 143.1 L175.2 143.7 L175.6 143.8 L176.0 143.7 L176.3 143.8 L176.5 144.2 L176.0 144.9 L175.8 145.1 L175.5 144.9 L174.8 145.6 L173.5 145.8 L166.6 146.0 L164.1 145.8 L161.7 145.2 Z M157.6 142.9 L157.0 143.4 L156.0 143.2 L153.5 142.0 L151.6 141.4 L150.6 141.3 L150.6 141.2 L150.7 141.1 L150.8 141.1 L150.9 141.1 L150.5 140.9 L150.4 140.6 L150.6 140.4 L151.1 140.3 L153.3 140.4 L154.1 140.7 L154.3 141.3 L155.3 141.2 L156.0 141.7 L156.7 142.3 L157.6 142.9 Z M116.5 119.5 L116.3 119.0 L115.3 118.2 L114.9 117.8 L115.6 117.8 L116.3 118.0 L118.3 119.1 L119.4 119.3 L119.6 119.3 L119.7 119.5 L119.8 120.2 L119.9 120.4 L120.1 120.6 L120.6 120.7 L120.9 120.9 L121.2 121.1 L121.5 121.5 L121.8 122.0 L121.9 122.4 L121.6 122.3 L121.4 122.2 L121.1 122.2 L120.7 122.2 L120.4 122.1 L120.3 122.0 L120.2 121.8 L120.1 121.7 L119.1 121.4 L118.6 121.2 L118.3 120.9 L118.4 120.8 L118.5 120.6 L118.0 120.5 L117.4 120.1 L116.8 119.8 L116.5 119.5 Z M110.5 120.1 L113.3 121.5 L113.4 121.9 L112.4 122.1 L110.6 121.1 L110.1 121.2 L110.3 121.3 L110.4 121.5 L110.5 121.7 L111.5 122.2 L111.7 122.3 L112.0 122.5 L112.3 122.4 L112.5 122.5 L112.6 122.8 L112.4 123.0 L112.0 122.8 L111.7 122.6 L111.6 122.4 L110.2 121.9 L109.6 121.5 L109.1 121.0 L107.6 119.3 L106.7 118.6 L105.2 116.2 L104.4 115.7 L103.4 115.3 L100.2 112.9 L100.1 112.4 L99.9 112.1 L99.4 111.6 L99.6 111.5 L99.8 111.5 L99.9 111.6 L100.6 112.2 L102.8 113.4 L103.0 113.6 L103.1 114.0 L103.3 114.3 L103.7 114.4 L104.2 114.5 L104.5 114.8 L104.8 114.9 L105.3 114.7 L105.2 115.0 L105.1 115.2 L105.6 115.2 L105.9 115.5 L106.1 115.8 L106.1 116.4 L106.3 116.8 L106.6 117.2 L108.4 118.6 L108.8 118.8 L109.4 118.8 L109.5 119.0 L110.5 120.1 Z M100.4 97.1 L100.0 96.8 L96.1 93.3 L95.4 92.5 L95.0 91.6 L95.2 91.6 L95.3 91.7 L96.8 92.9 L99.2 95.5 L100.7 96.3 L100.5 95.2 L101.4 95.2 L102.7 95.8 L103.8 96.5 L104.7 97.5 L105.2 97.9 L106.6 98.3 L107.0 98.7 L107.4 99.3 L107.9 99.9 L107.2 99.8 L106.1 99.2 L105.3 99.1 L105.5 98.7 L105.6 98.6 L104.0 97.9 L103.3 97.7 L102.9 97.5 L102.4 97.3 L101.7 97.3 L101.7 97.6 L103.8 98.4 L106.9 101.6 L108.7 102.5 L108.1 102.2 L107.5 101.7 L107.0 101.0 L106.6 100.2 L108.2 100.7 L111.7 103.4 L112.6 103.8 L113.1 104.2 L114.2 104.9 L114.7 105.3 L113.9 105.5 L113.1 105.1 L112.1 104.6 L111.3 104.3 L111.3 104.6 L112.0 104.7 L112.6 105.0 L113.2 105.4 L113.6 105.9 L112.9 105.9 L112.9 106.1 L113.0 106.2 L113.2 106.3 L113.4 106.4 L112.6 106.2 L110.9 105.7 L110.0 105.6 L110.0 105.9 L111.6 106.7 L111.6 106.9 L110.7 106.7 L109.9 106.4 L109.3 105.9 L108.7 105.3 L108.7 105.1 L109.2 105.1 L109.2 104.8 L108.9 104.7 L108.7 104.5 L108.4 104.1 L108.8 104.1 L109.1 104.0 L109.3 103.9 L109.5 103.6 L108.5 103.1 L108.2 103.0 L107.8 103.1 L107.2 103.3 L106.9 103.3 L106.5 103.0 L105.8 102.0 L103.5 100.6 L103.2 100.5 L101.2 99.7 L101.2 99.4 L101.4 99.4 L101.8 99.2 L102.0 99.1 L101.5 98.5 L100.4 97.4 L100.4 97.1 Z M84.1 96.8 L87.2 99.2 L87.5 99.9 L86.6 100.0 L85.6 99.3 L84.4 98.1 L83.8 97.8 L83.8 97.6 L84.6 97.8 L84.9 97.8 L83.8 96.9 L83.3 96.5 L82.6 96.3 L82.3 96.7 L81.9 96.8 L81.4 96.8 L81.0 96.5 L81.0 96.3 L81.3 96.3 L81.3 96.3 L81.2 96.2 L81.1 96.0 L81.7 95.4 L81.5 94.7 L80.5 93.4 L80.3 92.9 L80.0 91.8 L80.0 91.1 L80.7 91.5 L81.7 91.8 L82.3 92.3 L82.0 93.2 L82.2 93.5 L82.4 94.1 L82.6 95.1 L82.8 95.5 L84.1 96.8 Z M95.3 88.8 L95.3 89.1 L95.4 89.3 L95.8 89.6 L95.3 89.3 L94.7 89.2 L94.1 89.2 L93.7 89.3 L92.1 88.0 L92.6 88.0 L93.1 88.0 L93.5 88.1 L93.9 88.3 L93.9 88.0 L93.8 87.9 L93.8 87.8 L93.8 87.7 L93.7 87.5 L94.3 87.9 L94.5 88.0 L94.7 88.0 L94.3 87.3 L94.0 87.0 L93.4 86.7 L93.3 86.6 L93.2 86.2 L94.0 86.3 L94.7 86.5 L94.6 86.3 L94.5 85.9 L95.2 86.0 L95.7 86.2 L95.9 86.6 L95.3 87.0 L95.3 87.2 L95.5 87.3 L97.0 88.4 L97.9 88.8 L98.4 89.1 L99.4 90.3 L99.7 91.1 L99.4 91.6 L98.3 91.0 L96.5 89.5 L95.3 88.8 Z M86.7 93.2 L86.5 93.5 L86.5 93.8 L86.7 93.9 L87.2 93.7 L87.5 94.2 L87.2 94.5 L86.9 94.7 L86.7 94.8 L86.3 94.8 L85.2 94.8 L83.5 93.4 L82.2 91.5 L82.3 89.8 L82.1 89.8 L82.0 89.7 L81.9 89.6 L81.8 89.6 L81.4 89.7 L81.2 89.4 L81.1 88.9 L81.0 87.7 L81.0 87.4 L80.8 87.2 L80.4 87.2 L79.8 86.7 L79.2 84.4 L78.4 83.9 L78.4 83.7 L78.5 83.6 L78.7 83.4 L78.3 82.7 L78.7 82.6 L79.6 82.8 L79.8 83.0 L80.5 83.7 L80.9 83.9 L81.5 83.9 L81.9 83.9 L82.1 83.6 L82.3 83.1 L82.2 82.9 L82.0 82.3 L82.0 81.9 L82.6 82.3 L82.8 82.1 L82.1 81.6 L81.5 80.9 L80.4 78.6 L80.2 78.3 L78.2 76.6 L77.8 76.1 L77.8 75.6 L78.2 74.8 L78.6 74.3 L79.1 73.9 L79.8 73.8 L80.7 74.0 L81.0 74.5 L80.9 76.0 L81.0 76.9 L81.3 77.6 L81.9 78.9 L82.9 80.3 L83.1 80.5 L83.6 80.8 L84.4 80.9 L84.9 81.0 L85.2 81.5 L85.1 82.2 L84.8 82.8 L84.4 83.4 L84.6 83.6 L84.3 84.3 L84.2 84.8 L84.4 86.1 L84.9 87.2 L84.9 87.8 L84.4 88.0 L84.6 88.4 L85.0 89.0 L85.2 89.3 L85.2 89.7 L85.0 90.2 L84.9 90.6 L85.1 91.5 L85.6 92.1 L86.2 92.6 L86.7 93.2 Z M94.6 82.6 L94.0 82.4 L92.1 81.6 L91.0 81.2 L90.9 81.0 L90.9 80.4 L90.9 79.0 L90.7 78.7 L90.1 79.0 L90.1 79.2 L90.6 79.5 L89.6 79.5 L86.6 79.2 L85.6 79.0 L84.7 78.4 L83.9 77.8 L83.3 77.1 L83.7 76.8 L84.0 76.7 L84.3 76.6 L84.8 76.6 L84.9 76.4 L84.9 76.1 L84.9 75.7 L85.3 75.6 L86.7 75.5 L87.3 75.3 L87.0 74.8 L87.5 74.3 L87.7 74.0 L87.8 73.7 L87.7 73.4 L87.5 73.1 L87.6 72.8 L88.0 72.5 L88.1 72.1 L88.0 71.7 L87.8 71.5 L87.5 71.5 L88.0 71.0 L88.6 71.0 L89.8 71.5 L89.4 71.4 L89.3 71.5 L89.4 71.7 L89.5 72.0 L89.6 72.1 L89.8 72.2 L90.4 72.9 L90.9 73.8 L89.9 74.1 L90.4 74.4 L91.6 74.5 L92.4 74.3 L92.6 75.0 L92.2 76.3 L92.4 77.1 L92.9 77.5 L93.6 77.7 L95.3 77.7 L95.2 78.7 L97.5 80.2 L98.1 81.3 L97.8 81.3 L97.4 81.5 L96.9 81.6 L96.5 81.5 L96.0 81.3 L95.5 81.6 L95.5 81.8 L96.0 82.1 L95.9 82.4 L95.3 82.5 L94.6 82.6 Z" fill="#172033" fill-rule="evenodd"/></svg>
