<svg xmlns="http://www.w3.org/2000/svg" viewBox="0 0 320 200" role="img"><path d="M258.8 50.7 L259.4 52.8 L259.7 54.1 L259.6 55.3 L259.5 57.3 L259.9 59.0 L262.0 63.7 L262.9 69.7 L262.8 73.0 L262.0 74.8 L261.5 75.2 L260.6 77.5 L259.9 78.0 L257.8 79.1 L257.3 79.6 L257.7 81.1 L259.1 82.9 L259.4 83.2 L261.9 85.6 L266.8 87.9 L267.7 88.3 L267.4 92.8 L267.0 94.1 L266.0 95.5 L263.5 97.2 L262.3 98.2 L260.1 101.2 L256.8 104.7 L255.8 105.2 L251.9 106.2 L250.6 107.1 L250.8 108.4 L252.2 108.2 L254.1 107.6 L255.8 107.6 L256.5 108.2 L257.6 110.3 L258.3 111.1 L260.0 112.6 L260.6 113.3 L261.0 114.6 L261.1 117.7 L261.7 120.7 L261.6 122.1 L261.2 123.5 L260.7 124.8 L259.8 126.2 L258.7 127.0 L256.7 128.2 L256.2 128.5 L256.0 128.6 L254.9 129.7 L253.4 132.2 L252.4 133.2 L249.5 134.2 L243.8 133.2 L241.0 133.8 L239.7 134.7 L240.4 135.9 L247.2 142.6 L247.7 143.3 L247.9 144.5 L247.5 144.9 L246.9 145.2 L246.6 146.0 L247.1 147.4 L248.2 148.0 L251.2 148.7 L251.8 149.2 L252.9 150.9 L253.6 151.5 L256.4 153.3 L260.5 154.8 L261.5 155.5 L262.2 156.1 L262.4 156.3 L261.5 157.7 L261.5 157.8 L258.1 163.3 L257.5 164.7 L257.3 166.2 L257.4 166.9 L258.2 169.1 L258.4 169.9 L258.4 171.2 L258.5 173.4 L258.3 174.7 L257.3 177.0 L256.1 176.2 L250.8 169.6 L248.5 167.7 L245.9 166.1 L239.9 164.1 L237.5 162.9 L235.0 162.0 L232.1 162.0 L226.0 163.0 L218.2 162.9 L207.2 163.0 L201.2 164.1 L199.7 163.3 L198.8 163.0 L198.4 163.3 L198.9 166.2 L198.2 166.9 L197.3 166.9 L195.2 166.2 L194.1 166.0 L185.2 166.8 L183.4 166.6 L183.5 167.0 L183.7 167.8 L183.9 168.2 L182.8 168.1 L182.3 168.0 L181.8 167.6 L179.7 168.9 L175.5 168.5 L173.5 169.3 L171.5 168.2 L168.8 167.2 L166.0 166.5 L158.0 165.6 L156.0 165.7 L155.4 165.6 L153.2 164.3 L152.5 164.1 L142.5 162.5 L137.9 163.0 L137.3 162.8 L137.6 161.8 L138.7 161.4 L141.4 161.4 L141.4 161.0 L136.3 160.5 L130.2 160.5 L128.4 161.0 L126.0 162.3 L125.1 162.5 L124.5 162.2 L123.8 160.8 L123.3 160.4 L122.3 161.0 L121.7 162.5 L121.2 163.6 L120.1 163.0 L119.7 163.0 L118.8 163.6 L118.0 163.2 L117.7 162.2 L118.1 161.0 L117.0 161.3 L116.0 163.2 L115.0 164.1 L115.0 163.0 L115.3 162.1 L116.0 160.4 L115.4 160.9 L114.5 161.9 L113.9 162.5 L113.9 162.3 L113.4 162.2 L112.6 162.0 L112.3 162.1 L112.4 162.4 L112.5 162.8 L112.4 163.0 L109.1 165.5 L103.7 167.9 L102.3 169.2 L101.0 171.3 L104.2 174.5 L104.6 175.7 L105.0 177.2 L104.8 177.8 L103.8 178.0 L98.8 178.0 L98.1 177.9 L97.4 177.5 L96.8 177.0 L96.5 175.9 L91.7 169.3 L91.5 169.1 L90.9 168.9 L90.6 168.7 L90.4 168.4 L90.3 168.2 L90.3 168.0 L90.0 167.6 L88.6 166.4 L81.3 161.2 L80.0 160.6 L77.7 160.3 L76.7 159.9 L75.9 159.3 L75.6 158.6 L75.4 157.8 L75.0 157.5 L74.3 157.5 L73.5 157.3 L71.6 156.6 L71.0 156.2 L70.4 156.8 L69.0 156.3 L67.5 156.9 L65.9 157.9 L64.2 158.3 L62.9 158.1 L61.1 157.4 L59.7 156.6 L59.0 156.0 L58.4 155.1 L55.6 153.8 L54.9 152.4 L54.7 150.9 L54.2 149.9 L52.3 147.5 L54.9 143.8 L54.7 143.5 L54.4 142.8 L55.7 141.9 L56.6 138.4 L57.8 137.6 L58.0 137.2 L57.8 136.3 L57.5 135.4 L57.2 134.8 L57.0 134.0 L57.6 133.3 L60.2 131.9 L63.5 130.6 L65.0 130.3 L66.7 130.7 L67.5 130.7 L67.8 130.1 L68.2 129.6 L69.0 129.3 L69.9 129.3 L74.2 129.5 L77.2 130.1 L87.1 134.3 L91.4 134.5 L91.6 134.6 L92.1 135.2 L92.2 135.3 L92.3 135.9 L92.8 135.9 L93.3 135.6 L93.8 135.5 L96.0 136.6 L96.9 137.0 L100.3 137.1 L101.1 137.2 L102.0 137.6 L103.6 138.9 L104.1 139.2 L104.9 139.3 L105.3 139.0 L105.5 138.8 L105.9 138.6 L106.7 138.8 L107.6 139.2 L108.3 139.2 L108.8 139.0 L109.7 138.3 L110.0 138.2 L110.1 138.0 L111.1 136.9 L111.6 136.6 L112.2 136.6 L112.8 136.6 L113.4 136.6 L116.8 135.7 L117.8 135.5 L120.5 136.2 L120.6 137.5 L119.0 138.5 L117.0 138.2 L117.0 138.6 L115.4 138.1 L113.9 137.9 L112.5 138.1 L110.8 138.6 L111.3 139.0 L112.6 139.6 L113.8 139.9 L113.9 140.3 L113.9 140.9 L114.2 141.5 L115.5 142.1 L118.0 141.7 L119.1 142.3 L121.8 140.8 L125.0 140.4 L137.0 141.3 L138.5 141.6 L141.5 143.0 L143.2 143.4 L149.3 143.2 L152.2 143.4 L154.9 144.4 L156.3 145.1 L157.4 145.5 L158.7 145.6 L160.6 145.3 L165.9 144.4 L172.5 145.9 L172.1 147.1 L173.5 146.9 L175.6 146.2 L176.9 146.2 L178.0 146.6 L183.4 147.5 L186.3 146.9 L188.3 145.2 L189.8 142.9 L191.1 140.2 L192.9 138.1 L195.3 137.6 L208.0 138.6 L208.4 138.5 L208.6 138.1 L208.7 137.8 L209.0 137.6 L209.5 137.7 L209.7 137.9 L209.8 138.1 L210.1 138.2 L211.6 139.8 L212.4 140.2 L213.7 139.9 L214.3 138.6 L214.5 136.9 L214.4 132.3 L214.5 131.4 L215.0 130.4 L215.6 129.8 L215.9 129.2 L215.5 128.3 L214.8 127.8 L211.3 126.2 L210.4 126.1 L208.6 126.0 L207.7 125.8 L206.1 124.5 L204.8 123.0 L203.3 121.9 L201.5 122.1 L198.9 120.6 L198.3 119.9 L197.6 118.5 L193.7 112.7 L192.7 111.7 L191.2 110.5 L189.6 109.6 L188.3 109.2 L186.9 108.5 L178.9 100.4 L178.6 98.4 L181.8 97.2 L184.7 97.0 L186.3 96.5 L187.0 95.4 L186.5 94.0 L185.4 93.2 L184.1 92.7 L182.8 92.0 L182.0 91.1 L180.2 88.0 L179.7 86.8 L180.2 86.5 L180.3 86.4 L180.2 86.2 L180.3 85.8 L181.0 85.2 L181.8 83.4 L182.3 82.7 L183.2 82.3 L184.4 82.1 L185.6 82.1 L186.5 82.2 L185.4 80.2 L184.6 79.7 L183.1 79.6 L182.2 79.0 L181.9 77.5 L182.0 75.9 L182.3 75.0 L182.8 75.4 L183.4 75.9 L184.2 76.1 L184.9 76.0 L185.8 75.4 L185.8 74.8 L185.5 74.2 L185.4 72.5 L185.2 72.1 L185.4 72.2 L186.5 72.4 L186.8 72.6 L187.4 73.0 L188.1 73.4 L189.0 73.4 L187.6 70.7 L186.8 70.3 L182.9 70.0 L181.9 69.3 L181.3 68.3 L180.3 67.2 L178.8 66.2 L174.0 64.1 L170.0 61.8 L168.6 61.5 L167.3 60.9 L164.7 58.8 L164.2 58.6 L163.4 59.0 L158.7 57.3 L158.0 57.2 L156.5 56.9 L155.7 56.8 L155.6 56.8 L155.2 57.0 L154.9 57.4 L154.4 57.7 L153.6 57.9 L152.5 57.6 L150.8 57.0 L149.2 56.1 L148.1 55.3 L146.6 56.7 L143.4 57.1 L136.2 56.7 L134.7 56.4 L133.9 56.3 L133.4 56.0 L132.0 54.6 L131.3 54.2 L130.2 53.6 L129.8 52.1 L129.7 50.5 L129.5 49.6 L132.2 45.5 L132.6 44.6 L133.3 44.6 L137.3 42.9 L137.3 42.3 L133.1 42.3 L134.3 41.4 L135.7 41.3 L137.3 41.4 L138.8 41.3 L148.0 37.3 L150.7 35.5 L152.2 33.5 L153.1 34.5 L154.0 34.8 L156.1 34.6 L157.2 34.7 L159.2 35.4 L160.3 35.6 L161.2 35.5 L161.7 35.5 L163.2 35.1 L164.3 35.0 L165.5 35.0 L166.5 35.4 L167.3 36.1 L167.9 35.0 L169.3 34.2 L171.0 34.1 L172.5 34.6 L174.5 33.8 L176.9 33.2 L179.4 32.9 L181.8 33.0 L189.5 34.7 L191.4 35.8 L193.0 36.6 L197.4 37.9 L197.7 38.2 L199.3 40.0 L201.3 41.3 L203.4 42.0 L204.6 41.3 L206.0 42.0 L208.2 42.9 L210.4 43.4 L211.3 43.1 L211.8 44.3 L215.5 47.5 L215.5 48.0 L215.1 47.8 L213.9 47.5 L214.9 49.7 L215.2 50.1 L216.5 50.3 L216.8 50.2 L216.5 49.6 L217.5 48.5 L217.3 48.5 L216.8 48.5 L216.5 48.5 L216.6 48.4 L216.7 48.1 L216.9 47.9 L217.0 48.0 L217.0 47.5 L216.8 47.3 L216.5 46.5 L217.0 46.5 L218.1 47.1 L219.7 47.2 L221.1 46.8 L221.7 45.7 L222.4 44.9 L223.9 44.9 L224.9 45.7 L224.3 47.5 L225.6 48.3 L226.8 48.4 L229.8 47.9 L230.0 47.9 L230.5 48.0 L231.0 48.3 L232.1 49.4 L232.8 49.6 L235.4 49.6 L236.0 49.8 L236.4 50.1 L236.6 50.5 L237.3 50.8 L238.3 51.5 L239.0 51.7 L239.6 51.4 L240.0 50.8 L240.5 50.3 L241.4 50.1 L242.8 49.0 L244.9 49.0 L248.6 50.1 L250.7 50.3 L251.2 50.7 L250.7 51.7 L250.1 52.1 L249.2 52.2 L247.1 52.2 L247.9 53.6 L249.2 53.7 L250.6 53.3 L251.7 53.2 L253.1 54.2 L253.9 54.7 L254.3 54.5 L254.7 53.5 L254.5 52.9 L252.9 52.5 L252.3 52.0 L252.1 51.4 L252.2 50.6 L252.8 50.2 L253.6 50.2 L255.6 50.6 L258.8 50.7 Z M117.3 172.8 L118.6 172.9 L120.1 173.2 L121.2 173.8 L121.2 174.9 L120.2 175.5 L118.7 175.6 L115.7 175.5 L114.4 175.2 L113.3 174.5 L111.4 172.8 L111.6 172.1 L111.9 171.8 L112.4 171.9 L112.9 172.4 L113.7 171.8 L114.1 172.0 L114.4 172.5 L115.0 172.8 L117.3 172.8 Z M104.6 132.4 L106.4 131.6 L108.9 131.8 L110.8 132.8 L110.8 134.5 L109.1 135.5 L106.7 135.5 L104.8 134.5 L104.6 132.4 Z M176.1 22.1 L178.3 22.0 L179.8 22.2 L181.1 22.7 L182.8 23.7 L190.0 26.3 L193.0 28.2 L192.1 29.9 L190.9 29.4 L184.5 28.6 L181.5 27.5 L177.9 26.7 L176.6 26.2 L175.7 26.3 L174.9 26.7 L174.0 26.8 L172.5 26.5 L170.6 25.9 L168.9 25.1 L167.8 24.2 L168.2 24.2 L168.4 24.1 L168.8 23.7 L172.3 22.6 L176.1 22.1 Z M145.3 113.6 L143.9 112.6 L143.5 112.3 L142.9 111.6 L142.4 110.8 L142.2 110.0 L142.5 109.2 L143.4 108.2 L144.7 107.3 L146.3 106.8 L147.9 106.5 L149.7 106.7 L160.2 110.9 L165.3 112.5 L171.1 115.3 L176.5 117.4 L178.7 120.0 L179.2 121.6 L179.5 123.6 L179.3 125.5 L178.4 127.0 L177.6 127.3 L177.1 126.9 L176.4 125.5 L175.8 125.0 L175.2 124.8 L173.5 124.7 L166.7 123.3 L164.4 123.1 L162.0 122.5 L155.4 118.5 L148.6 116.7 L146.8 115.6 L145.3 113.6 Z" fill="#172033" fill-rule="evenodd"/></svg>
