<svg xmlns="http://www.w3.org/2000/svg" viewBox="0 0 320 200" role="img"><path d="M127.3 109.4 L128.0 108.9 L130.0 107.6 L131.4 106.3 L131.5 105.6 L131.2 104.3 L131.2 103.6 L132.1 102.2 L136.6 98.5 L137.2 98.2 L137.2 98.2 L138.5 97.1 L139.6 96.4 L138.2 95.6 L136.6 94.6 L137.0 93.9 L137.9 92.9 L141.5 87.7 L141.7 87.4 L144.0 83.0 L145.1 81.0 L145.8 80.0 L147.1 76.4 L147.1 76.2 L147.0 75.8 L147.1 75.6 L147.6 75.4 L150.8 66.8 L152.2 60.9 L153.5 55.7 L153.7 55.3 L153.9 53.5 L154.1 53.0 L154.1 52.4 L155.0 49.2 L155.2 45.6 L155.5 44.8 L156.1 44.5 L156.6 44.6 L157.4 45.1 L158.0 45.2 L158.4 45.1 L159.8 43.8 L160.0 43.5 L160.3 42.5 L160.5 41.9 L160.4 41.5 L159.9 41.3 L160.1 40.7 L160.4 38.2 L160.9 37.0 L161.1 36.2 L161.0 35.5 L161.1 35.4 L161.3 35.1 L161.5 35.0 L161.3 34.7 L161.4 34.7 L161.5 34.7 L164.7 34.9 L164.8 34.8 L165.3 34.5 L165.5 34.4 L165.8 34.4 L166.3 34.6 L166.6 34.6 L168.1 34.2 L168.6 34.2 L168.8 34.2 L169.0 34.3 L169.5 34.6 L169.9 35.0 L170.1 35.5 L170.5 35.9 L171.0 36.0 L173.3 35.5 L175.2 34.8 L176.4 34.7 L176.6 34.1 L177.3 33.0 L177.7 32.3 L177.9 31.3 L178.0 29.3 L178.3 28.5 L178.7 27.9 L178.9 27.4 L179.2 27.0 L179.6 27.0 L179.9 27.2 L180.6 28.2 L181.1 28.5 L181.1 28.5 L181.1 28.5 L181.3 28.6 L181.3 28.6 L181.4 28.5 L181.4 28.5 L181.9 28.0 L182.0 27.5 L182.4 27.3 L183.3 27.2 L183.6 26.7 L185.1 25.3 L185.8 25.2 L186.3 25.1 L186.9 25.0 L187.5 24.8 L187.9 24.6 L188.6 23.9 L189.4 22.6 L190.0 22.0 L190.0 22.2 L189.8 22.5 L189.8 23.1 L189.6 23.3 L189.5 23.9 L188.9 24.3 L188.6 24.5 L187.7 24.9 L189.2 25.8 L187.9 27.3 L188.2 27.6 L189.3 28.3 L189.4 30.2 L190.3 30.6 L190.5 31.8 L190.0 32.6 L189.6 33.1 L189.6 33.7 L191.1 34.3 L191.0 34.8 L191.5 38.6 L191.7 39.1 L192.7 40.4 L192.1 41.3 L191.8 41.4 L191.1 42.3 L190.7 43.5 L190.8 44.0 L190.5 45.1 L188.5 47.0 L187.5 48.4 L187.4 48.4 L186.8 48.5 L184.6 49.7 L183.3 50.7 L182.8 50.9 L182.6 51.0 L181.7 50.9 L181.6 50.9 L181.7 50.9 L180.9 51.3 L180.3 52.0 L180.0 52.3 L179.7 52.4 L179.6 52.5 L179.6 52.8 L179.7 53.1 L180.1 53.3 L180.1 53.5 L179.8 53.5 L179.8 53.8 L180.0 54.2 L180.2 55.2 L180.4 55.7 L180.2 55.9 L180.2 55.9 L180.1 55.9 L180.1 55.7 L180.0 55.8 L179.8 56.3 L179.6 56.0 L179.7 56.8 L179.8 57.1 L179.3 57.1 L179.3 57.4 L179.5 57.3 L179.6 57.3 L179.9 57.7 L180.0 57.9 L180.4 58.2 L180.4 58.5 L180.0 58.5 L179.8 58.8 L179.6 59.0 L179.6 59.3 L179.7 59.4 L179.8 59.5 L179.9 59.5 L180.1 59.5 L180.1 59.8 L179.8 60.0 L179.6 60.1 L179.8 60.4 L179.3 60.7 L179.4 60.7 L179.4 60.7 L179.5 60.7 L179.6 60.9 L179.3 60.9 L179.3 61.2 L179.5 61.4 L179.6 61.5 L179.4 61.6 L179.0 61.7 L179.2 62.2 L179.3 62.3 L179.5 62.5 L179.6 62.7 L176.4 62.0 L175.5 61.8 L174.5 61.8 L173.5 61.5 L173.3 60.5 L173.3 59.3 L172.9 58.3 L171.7 57.7 L170.6 57.6 L168.1 57.7 L167.3 57.5 L166.2 56.7 L165.7 56.4 L165.6 56.4 L164.9 56.5 L164.3 56.8 L163.3 57.8 L162.1 58.5 L160.9 58.9 L159.8 59.6 L159.1 60.7 L158.6 62.8 L158.4 63.5 L158.1 64.3 L158.0 64.4 L157.5 64.6 L157.3 64.7 L157.1 65.2 L157.0 66.4 L156.9 66.9 L157.4 67.1 L157.7 67.4 L157.7 67.8 L157.6 68.3 L157.3 68.8 L155.7 70.0 L155.6 70.6 L155.8 71.1 L156.4 72.1 L156.8 73.1 L156.7 74.5 L157.6 77.2 L157.2 77.6 L157.2 78.3 L157.2 78.9 L156.8 79.3 L157.3 80.0 L157.6 80.2 L157.4 80.4 L157.5 80.7 L157.9 80.9 L158.5 81.0 L158.8 81.7 L158.7 83.6 L158.5 83.7 L157.5 83.8 L157.2 83.8 L156.9 84.2 L156.4 84.5 L156.4 84.7 L156.5 84.7 L157.3 84.9 L157.8 84.8 L158.4 84.7 L159.1 84.1 L159.5 83.9 L159.8 83.8 L160.3 83.8 L160.8 84.1 L161.2 84.7 L161.8 85.0 L162.1 85.0 L162.7 85.4 L164.2 85.7 L164.7 85.6 L164.7 85.4 L164.5 85.2 L164.6 85.0 L164.8 84.9 L165.1 84.9 L165.8 85.2 L165.9 85.2 L165.9 85.0 L165.9 84.4 L165.8 83.9 L165.6 83.5 L165.4 83.2 L165.5 82.9 L165.7 82.7 L166.1 82.8 L166.3 83.3 L166.3 83.7 L166.3 84.0 L166.6 84.3 L167.0 84.2 L167.2 84.2 L167.4 84.3 L167.5 84.5 L167.3 84.7 L167.4 84.8 L167.6 84.8 L167.8 84.9 L167.7 85.2 L167.5 85.5 L167.6 86.0 L167.6 86.3 L167.8 86.4 L167.6 86.6 L167.3 87.2 L167.4 87.5 L167.6 87.7 L167.8 88.0 L167.6 88.3 L167.3 88.5 L167.2 89.0 L167.0 89.2 L166.9 89.5 L166.8 89.6 L166.5 89.5 L166.4 89.3 L166.2 89.2 L166.0 89.4 L165.5 89.0 L164.4 89.2 L163.9 88.7 L163.4 88.6 L163.2 88.5 L162.3 88.7 L161.8 89.3 L161.0 89.9 L159.6 90.9 L156.2 92.7 L155.5 93.5 L155.4 93.6 L154.8 94.7 L154.6 95.7 L154.6 96.9 L154.4 98.2 L152.6 100.7 L152.0 102.1 L152.5 103.4 L153.3 104.0 L154.4 104.1 L155.5 104.0 L156.5 103.7 L158.9 103.4 L163.9 103.4 L166.2 102.7 L170.5 99.6 L172.8 98.5 L175.5 98.3 L175.5 98.3 L175.5 100.6 L175.5 101.0 L175.3 101.9 L174.6 103.5 L173.9 104.6 L174.2 104.9 L174.1 105.8 L173.5 106.6 L173.0 107.6 L173.3 108.7 L173.6 109.7 L174.1 110.5 L174.7 111.5 L174.9 112.6 L174.7 113.7 L172.9 116.9 L172.6 118.1 L172.6 119.3 L172.2 120.0 L171.1 120.9 L170.6 121.3 L170.1 122.2 L170.0 123.1 L170.0 124.0 L169.9 124.9 L169.7 125.3 L169.0 125.8 L168.7 126.1 L168.4 126.6 L168.3 127.1 L168.1 128.1 L167.8 129.0 L167.8 129.0 L165.5 133.1 L163.7 138.0 L163.6 138.9 L162.9 140.5 L162.9 141.5 L163.1 141.9 L163.6 142.7 L163.7 143.3 L163.7 143.8 L163.4 144.3 L163.2 144.7 L162.9 145.2 L162.6 147.2 L162.3 147.9 L162.3 149.1 L163.1 151.5 L163.1 152.8 L162.4 154.1 L160.7 156.3 L160.3 157.9 L160.2 158.4 L160.1 158.7 L159.9 159.0 L159.7 159.4 L159.4 160.7 L159.4 163.1 L159.2 164.0 L157.4 168.3 L157.1 169.3 L156.9 171.5 L156.5 172.5 L156.0 173.3 L155.7 174.2 L155.5 175.2 L155.3 175.8 L155.1 176.1 L154.4 176.9 L154.1 177.3 L153.9 177.6 L153.9 177.8 L153.7 178.0 L153.4 178.0 L153.1 178.0 L152.8 178.0 L152.4 177.4 L151.5 175.8 L151.2 174.8 L151.3 172.1 L150.3 168.0 L148.7 164.2 L147.0 160.1 L146.7 157.9 L146.8 157.6 L146.7 157.4 L146.7 157.2 L146.5 157.0 L145.0 153.1 L142.7 147.2 L141.3 144.0 L140.9 143.4 L138.7 141.7 L138.4 141.4 L138.4 140.9 L138.4 140.2 L138.8 139.0 L138.8 138.5 L138.4 138.0 L137.8 137.2 L137.5 136.6 L137.5 134.9 L136.6 131.7 L134.1 126.2 L132.1 121.5 L130.6 118.1 L129.3 114.7 L127.8 110.5 L127.3 109.4 Z" fill="#172033" fill-rule="evenodd"/></svg>
