<svg xmlns="http://www.w3.org/2000/svg" viewBox="0 0 320 200" role="img"><path d="M131.8 22.0 L131.9 22.1 L132.0 22.2 L132.1 22.3 L132.3 22.4 L132.5 22.3 L132.7 22.1 L132.9 22.0 L133.2 22.0 L133.3 22.2 L133.2 22.6 L133.0 22.8 L133.0 23.3 L133.2 23.7 L133.7 24.5 L133.8 24.7 L133.8 25.1 L133.9 25.3 L134.1 25.6 L134.2 25.7 L134.5 26.8 L134.6 27.0 L134.9 27.1 L135.1 27.2 L136.4 27.4 L136.7 27.5 L137.2 27.8 L137.5 28.1 L137.7 28.2 L138.0 28.3 L138.2 28.4 L138.4 28.5 L138.4 28.6 L138.5 28.7 L138.6 28.9 L138.6 29.0 L138.6 29.1 L138.5 29.3 L138.1 29.6 L137.5 29.8 L137.1 30.1 L137.1 30.5 L137.3 31.2 L137.4 31.6 L137.5 32.0 L137.4 33.1 L137.5 33.4 L137.6 33.6 L138.2 34.0 L138.2 34.0 L138.4 34.2 L138.6 34.3 L138.8 34.4 L139.0 34.4 L139.1 34.5 L139.2 34.6 L139.4 34.5 L139.5 34.5 L140.1 34.5 L140.6 34.6 L141.0 34.6 L141.2 34.8 L141.1 35.3 L140.8 35.6 L140.8 35.8 L140.9 36.0 L140.6 36.1 L140.5 36.2 L140.8 36.3 L141.0 36.4 L141.3 36.7 L141.9 37.4 L142.1 37.5 L142.2 37.7 L141.9 38.1 L141.7 38.2 L141.6 38.4 L141.3 38.7 L141.2 38.8 L141.0 38.9 L140.8 38.6 L140.5 38.5 L140.3 38.9 L140.0 39.0 L139.9 39.0 L139.7 39.0 L139.6 39.1 L139.4 39.1 L139.3 39.2 L139.2 39.3 L139.2 39.7 L139.1 39.8 L139.0 39.8 L138.9 39.7 L138.8 39.7 L138.7 39.8 L138.6 39.8 L138.5 39.8 L138.3 39.9 L138.1 39.9 L138.0 39.7 L137.8 39.6 L137.3 39.3 L137.3 39.1 L137.2 38.8 L137.1 38.7 L137.2 38.6 L137.2 38.5 L137.2 38.4 L137.2 38.3 L137.0 38.3 L136.9 38.3 L136.7 38.5 L136.6 38.6 L136.5 38.6 L136.3 38.6 L135.5 38.7 L135.3 38.7 L135.1 38.8 L135.1 38.9 L135.3 39.2 L135.5 39.5 L135.5 39.5 L135.5 39.6 L135.5 39.6 L135.4 39.6 L135.4 39.7 L135.4 39.7 L135.5 39.8 L135.6 40.3 L135.6 40.4 L135.6 40.5 L135.6 40.6 L135.6 40.6 L135.6 40.6 L135.7 40.6 L135.9 40.7 L136.0 40.9 L136.1 41.0 L136.7 41.7 L136.8 41.8 L137.1 41.9 L137.1 42.0 L137.2 42.1 L137.2 42.2 L137.1 42.4 L137.0 42.6 L137.0 42.8 L136.9 42.9 L136.8 43.1 L136.8 43.2 L136.9 43.3 L136.9 43.4 L136.9 43.4 L136.9 43.5 L136.9 43.5 L137.0 43.6 L137.0 43.7 L137.1 43.7 L137.1 43.8 L137.2 43.8 L137.3 43.8 L137.5 44.0 L137.6 44.1 L137.6 44.2 L137.5 44.3 L136.9 44.7 L136.9 44.8 L137.1 44.9 L137.3 45.0 L137.3 45.2 L137.2 45.5 L137.2 45.7 L137.2 45.8 L137.2 45.8 L137.2 45.9 L137.4 45.9 L137.5 45.9 L137.6 45.9 L137.8 45.9 L137.9 45.9 L138.0 46.0 L138.2 46.0 L138.3 45.9 L138.4 45.7 L138.6 45.6 L138.7 45.4 L138.9 45.2 L139.0 45.0 L139.1 44.9 L139.4 45.1 L139.5 45.2 L139.7 45.3 L139.7 45.5 L139.8 45.6 L140.0 45.7 L140.0 45.8 L140.1 45.9 L140.1 46.0 L140.1 46.1 L140.1 46.2 L140.2 46.2 L140.3 46.3 L140.3 46.4 L140.4 46.5 L140.4 46.6 L140.5 46.8 L140.7 46.9 L140.8 47.0 L140.8 47.1 L140.9 47.2 L140.9 47.4 L140.9 47.4 L141.0 47.5 L141.1 47.4 L141.2 47.4 L141.3 47.5 L141.4 47.5 L141.4 47.5 L141.4 47.5 L141.4 47.6 L141.4 47.6 L141.5 47.7 L141.6 47.8 L141.7 47.8 L141.7 47.9 L141.9 47.9 L141.9 47.9 L142.0 47.9 L142.2 47.8 L142.3 47.8 L142.6 47.8 L142.9 47.7 L143.0 47.7 L143.4 47.8 L143.5 47.8 L143.6 47.9 L143.7 48.1 L143.8 48.2 L143.9 48.2 L143.9 48.3 L144.0 48.3 L144.4 48.4 L144.5 48.5 L144.6 48.7 L144.7 48.8 L144.9 48.9 L145.0 48.8 L145.1 48.8 L145.2 48.8 L145.3 48.8 L145.5 49.0 L145.6 49.1 L145.7 49.1 L145.5 49.4 L145.5 49.4 L145.4 49.4 L145.4 49.4 L145.3 49.4 L145.3 49.4 L145.3 49.5 L145.3 49.6 L145.4 49.6 L145.5 49.7 L145.5 49.8 L145.5 49.9 L145.4 50.0 L145.4 50.1 L145.6 50.0 L145.8 50.1 L146.2 50.2 L146.8 50.4 L147.0 50.5 L147.2 50.6 L147.3 50.7 L147.4 50.6 L147.5 50.6 L147.6 50.6 L147.7 50.6 L148.3 50.9 L148.5 51.0 L148.5 51.1 L148.6 51.3 L148.7 51.4 L148.8 51.4 L149.3 51.6 L149.7 51.7 L149.9 51.8 L150.0 52.0 L150.0 52.1 L150.0 52.1 L150.0 52.1 L149.6 52.3 L149.5 52.2 L149.4 52.1 L149.4 52.1 L149.4 52.1 L149.3 52.1 L149.2 52.2 L149.1 52.3 L149.2 52.4 L149.1 52.6 L148.7 52.8 L148.6 52.9 L148.5 53.1 L148.4 53.2 L148.2 53.3 L148.1 53.4 L148.0 53.5 L147.9 53.5 L147.7 53.5 L147.6 53.6 L147.5 53.7 L147.5 53.9 L147.3 54.0 L147.0 54.4 L146.9 54.5 L146.6 54.5 L146.4 54.6 L146.4 54.8 L146.4 54.9 L146.4 55.1 L146.5 55.2 L146.5 55.4 L146.5 55.5 L146.5 55.6 L146.3 55.8 L146.3 55.8 L146.2 55.8 L146.2 55.8 L146.2 55.9 L146.2 55.9 L146.2 55.9 L146.2 56.0 L146.2 56.0 L146.1 56.1 L146.0 56.1 L146.0 56.1 L145.9 56.2 L145.9 56.2 L145.9 56.3 L145.8 56.3 L145.8 56.4 L145.6 56.4 L145.6 56.5 L145.6 56.6 L145.6 56.7 L145.7 56.9 L145.8 57.1 L145.8 57.2 L145.8 57.2 L145.9 57.2 L145.9 57.2 L145.9 57.3 L145.9 57.4 L145.8 57.8 L145.8 57.8 L145.7 57.7 L145.6 57.8 L145.6 57.8 L145.6 58.1 L145.7 58.2 L145.6 58.2 L145.5 58.3 L145.4 58.3 L145.3 58.3 L145.1 58.3 L145.0 58.5 L144.9 58.8 L145.0 59.0 L145.0 59.0 L144.9 59.1 L144.8 59.1 L144.7 59.2 L144.6 59.2 L144.6 59.3 L144.5 59.4 L144.5 59.5 L144.5 59.7 L144.5 59.9 L144.6 60.0 L144.8 60.0 L144.8 60.0 L145.0 60.1 L145.2 60.3 L145.3 60.4 L145.4 60.4 L145.6 60.4 L145.7 60.5 L145.7 60.5 L145.8 60.6 L145.8 60.6 L145.8 60.7 L146.0 60.7 L146.0 60.7 L146.1 61.0 L146.2 61.1 L146.3 61.1 L146.4 61.1 L146.5 61.1 L146.7 61.1 L146.8 61.1 L147.0 61.4 L147.1 61.4 L147.1 61.4 L147.1 61.0 L147.1 60.9 L147.2 60.8 L147.3 60.8 L147.4 60.8 L147.5 60.8 L147.5 60.8 L147.5 60.9 L147.5 60.9 L147.5 61.0 L147.6 61.0 L147.7 61.0 L148.0 61.1 L148.0 61.1 L148.1 61.3 L148.2 61.4 L148.3 61.4 L148.5 61.5 L148.6 61.5 L148.8 61.7 L148.9 61.8 L149.0 61.8 L149.2 61.8 L149.3 61.8 L149.3 61.9 L149.4 62.0 L149.4 62.1 L149.5 62.1 L149.6 62.2 L149.7 62.2 L149.8 62.2 L149.9 62.2 L150.0 62.2 L150.0 62.3 L150.0 62.3 L150.0 62.4 L150.3 62.4 L150.9 62.5 L151.0 62.6 L151.1 62.7 L151.2 63.1 L151.3 63.2 L151.6 63.6 L151.7 63.7 L151.6 63.7 L151.6 63.8 L151.6 63.8 L151.7 63.8 L151.7 63.9 L151.8 63.9 L151.9 63.9 L152.0 63.9 L152.0 63.8 L152.0 63.8 L152.1 63.7 L152.2 63.7 L152.3 63.7 L152.4 63.8 L152.5 63.9 L152.6 64.0 L152.6 64.1 L152.6 64.2 L152.6 64.2 L152.7 64.3 L153.2 64.5 L153.3 64.6 L153.4 64.7 L153.4 64.7 L153.5 64.8 L153.8 64.8 L153.9 64.9 L154.1 64.9 L154.3 65.2 L154.6 65.3 L154.7 65.4 L154.9 65.5 L155.1 65.5 L155.2 65.4 L155.4 65.2 L155.6 65.1 L155.9 65.1 L156.0 65.2 L156.0 65.2 L156.1 65.3 L156.2 65.4 L156.3 65.4 L156.6 65.5 L157.3 66.0 L157.7 66.2 L158.0 66.5 L158.2 66.5 L158.7 66.5 L159.4 66.3 L159.6 66.4 L159.6 66.4 L159.7 66.5 L159.8 66.7 L159.8 67.2 L159.9 67.4 L160.0 67.5 L160.7 67.6 L160.8 67.6 L161.1 67.7 L161.5 67.8 L162.2 67.8 L162.4 67.9 L162.7 68.1 L162.7 68.2 L162.8 68.3 L162.8 68.4 L162.9 68.4 L163.0 68.5 L163.1 68.4 L163.3 68.4 L163.3 68.3 L163.5 68.1 L163.5 68.1 L163.5 68.0 L163.4 67.9 L163.4 67.8 L163.4 67.8 L163.5 67.7 L163.6 67.7 L164.1 67.7 L164.8 67.7 L165.2 67.9 L166.0 68.3 L166.2 68.3 L166.3 68.4 L166.3 68.4 L166.3 68.3 L166.3 68.3 L166.4 68.3 L166.4 68.2 L166.4 68.2 L166.4 68.1 L166.2 68.0 L166.2 67.9 L166.3 67.8 L166.5 67.8 L166.7 67.8 L166.7 67.8 L166.7 67.8 L167.0 67.8 L167.1 67.8 L167.3 67.8 L167.5 67.4 L167.7 67.4 L167.8 67.4 L167.8 67.5 L167.8 67.6 L167.9 67.6 L168.0 67.6 L168.1 67.7 L168.2 67.8 L168.2 67.9 L168.4 67.8 L168.5 67.9 L168.5 68.0 L168.6 68.1 L168.7 68.2 L170.4 68.5 L170.5 68.6 L170.7 68.8 L170.8 69.0 L170.8 69.2 L170.8 69.4 L170.8 69.6 L170.8 69.7 L170.7 69.9 L170.6 70.0 L170.7 70.1 L170.7 70.2 L171.4 70.3 L171.5 70.3 L171.6 70.3 L171.7 70.3 L171.7 70.3 L171.8 70.4 L171.8 70.4 L171.9 70.4 L172.2 70.5 L172.4 70.6 L172.4 70.7 L172.5 70.8 L172.5 70.9 L172.6 71.0 L172.7 71.0 L172.8 71.0 L172.9 71.0 L172.9 71.1 L172.9 71.2 L173.0 71.2 L173.4 71.1 L173.5 71.1 L173.7 71.2 L173.7 71.4 L173.7 71.5 L173.9 71.7 L174.4 71.8 L174.5 71.8 L174.7 71.8 L174.8 71.7 L174.8 71.7 L174.9 71.6 L175.0 71.5 L175.1 71.5 L175.2 71.6 L175.3 71.5 L175.5 71.4 L175.7 71.3 L176.2 71.2 L176.3 71.2 L176.7 71.4 L176.8 71.5 L176.8 71.7 L176.8 72.1 L176.8 72.3 L176.9 72.4 L177.2 72.6 L177.3 72.6 L177.3 72.6 L177.4 72.6 L177.4 72.6 L177.4 72.7 L177.4 72.7 L177.5 72.8 L177.5 72.8 L177.6 72.8 L177.7 72.7 L178.1 72.4 L178.2 72.4 L178.3 72.4 L178.5 72.3 L178.7 72.4 L179.1 72.6 L179.1 72.6 L179.2 72.6 L179.3 72.6 L179.3 72.6 L179.3 72.6 L179.4 72.6 L179.5 72.6 L179.5 72.7 L179.5 72.7 L179.6 72.7 L179.6 72.7 L179.8 72.6 L180.0 72.6 L180.1 72.5 L180.2 72.6 L180.2 72.6 L180.2 72.7 L180.3 72.7 L180.3 72.7 L180.4 72.7 L180.5 72.7 L180.7 72.8 L181.0 72.9 L181.2 73.0 L181.3 73.0 L181.4 73.1 L181.5 73.1 L181.5 73.2 L181.5 73.2 L181.6 73.3 L182.0 73.4 L182.4 73.6 L182.5 73.7 L182.6 73.6 L182.6 73.6 L182.7 73.5 L182.8 73.5 L183.0 73.6 L183.0 73.6 L183.2 73.5 L183.3 73.4 L183.4 73.3 L183.5 73.2 L183.6 73.1 L183.8 73.1 L184.0 73.0 L184.1 72.9 L184.3 72.8 L184.3 72.7 L184.4 72.7 L184.4 72.8 L184.4 72.9 L184.5 73.2 L184.5 73.2 L184.5 73.4 L184.6 73.6 L184.8 73.7 L184.9 73.8 L185.2 73.7 L185.4 73.7 L185.5 73.8 L185.5 73.8 L185.6 73.9 L185.6 74.0 L185.9 74.1 L186.0 74.1 L186.0 74.0 L186.1 73.8 L186.2 73.7 L186.3 73.6 L186.5 73.6 L186.7 73.6 L186.9 73.6 L187.3 73.8 L187.5 73.9 L187.7 73.8 L187.9 73.7 L187.9 73.6 L188.0 73.6 L188.1 73.7 L188.2 73.7 L188.3 73.7 L188.4 73.7 L188.4 73.6 L188.5 73.5 L188.5 73.5 L188.6 73.5 L188.7 73.5 L188.8 73.5 L189.0 73.4 L189.1 73.4 L189.1 73.4 L189.3 73.5 L189.3 73.5 L189.3 73.5 L189.3 73.6 L189.4 73.7 L189.4 73.8 L189.6 73.9 L189.7 73.9 L189.9 73.9 L190.1 73.7 L190.3 73.4 L190.3 73.2 L190.3 73.1 L190.3 73.1 L190.3 73.0 L190.4 72.7 L190.7 72.3 L190.8 72.0 L190.8 71.9 L190.8 71.8 L190.8 71.7 L190.8 71.5 L190.7 71.2 L190.7 71.1 L190.7 71.0 L190.5 70.9 L190.5 70.8 L190.4 70.6 L190.3 70.4 L190.2 70.2 L190.1 70.2 L190.0 70.1 L189.9 70.1 L189.8 69.9 L189.7 69.8 L189.7 69.7 L189.7 69.7 L189.7 69.7 L189.8 69.5 L189.8 69.1 L189.9 68.9 L190.0 68.6 L190.1 68.5 L190.0 68.4 L190.0 68.3 L189.9 68.3 L189.9 68.2 L190.0 68.1 L190.0 68.0 L190.0 68.0 L190.1 67.9 L190.1 67.9 L190.1 67.8 L190.1 67.8 L190.0 67.8 L190.0 67.7 L190.0 67.6 L190.0 67.6 L190.0 67.5 L190.1 67.2 L190.5 66.7 L190.6 66.2 L190.7 66.1 L190.8 65.9 L190.7 65.7 L190.8 65.6 L190.8 65.5 L190.7 65.5 L190.7 65.5 L190.5 65.4 L190.4 65.3 L190.4 65.2 L190.4 65.1 L190.5 64.9 L190.6 64.9 L190.7 64.9 L190.8 64.9 L190.8 64.9 L191.0 64.9 L192.0 64.7 L192.1 64.7 L192.1 64.7 L192.1 64.7 L192.4 64.5 L192.6 64.4 L192.7 64.5 L192.8 64.4 L192.9 64.3 L193.0 64.2 L193.2 64.0 L193.3 64.0 L193.4 64.2 L193.6 64.2 L193.9 64.3 L194.0 64.3 L194.3 64.5 L194.4 64.6 L194.5 64.7 L194.5 64.7 L194.5 64.7 L194.5 64.8 L194.5 65.0 L194.5 65.1 L194.5 65.1 L194.6 65.3 L194.7 65.3 L194.7 65.4 L194.7 65.5 L194.4 66.6 L194.3 66.8 L194.2 67.0 L194.1 67.1 L194.1 67.2 L194.1 67.3 L194.2 67.4 L194.2 67.5 L194.1 67.7 L194.2 67.9 L194.3 68.0 L194.4 68.1 L194.5 68.2 L194.5 68.2 L194.6 68.2 L194.7 68.4 L194.8 68.4 L194.9 68.5 L194.9 68.7 L194.8 68.7 L194.8 68.8 L194.4 68.9 L194.3 69.0 L194.1 69.1 L194.1 69.3 L194.0 69.5 L194.0 69.5 L194.1 69.5 L194.4 69.7 L194.6 69.8 L194.6 69.9 L194.7 70.1 L194.7 70.4 L194.7 70.4 L194.7 70.6 L194.8 70.5 L194.9 70.5 L195.0 70.4 L195.1 70.6 L195.1 70.6 L195.1 70.7 L195.1 70.7 L195.2 70.8 L195.2 70.8 L195.3 70.8 L195.3 70.8 L195.4 70.8 L195.5 70.8 L195.7 70.8 L195.8 70.9 L195.9 71.0 L196.0 71.2 L196.0 71.3 L196.1 71.3 L196.3 71.4 L196.6 71.4 L196.8 71.4 L196.9 71.4 L197.0 71.3 L197.0 71.3 L197.1 71.2 L197.2 71.2 L197.3 71.2 L197.5 71.2 L197.6 71.3 L197.9 71.4 L198.1 71.5 L198.4 71.5 L198.7 71.5 L198.9 71.6 L199.0 71.7 L199.0 71.8 L198.9 71.9 L199.0 72.0 L199.1 72.0 L199.3 71.9 L199.4 71.9 L199.7 72.0 L199.8 72.0 L199.9 72.0 L200.1 72.0 L200.1 72.0 L200.2 72.1 L200.2 72.1 L200.2 72.0 L200.2 72.0 L200.2 72.0 L200.2 72.0 L200.2 71.9 L200.3 71.9 L200.3 71.9 L200.3 71.9 L200.3 71.9 L200.4 71.9 L200.4 71.9 L200.4 71.9 L200.4 71.9 L200.6 71.9 L200.6 72.0 L200.7 71.9 L201.1 71.9 L201.7 71.8 L202.0 71.7 L202.1 71.6 L202.2 71.3 L202.4 71.2 L202.5 71.2 L202.7 71.2 L202.9 71.1 L202.9 71.1 L203.0 71.0 L203.1 71.0 L203.2 70.9 L203.4 70.9 L203.9 71.3 L204.6 71.6 L205.3 71.7 L206.6 71.6 L207.0 71.6 L207.0 71.6 L207.3 71.4 L207.4 71.4 L207.6 71.5 L208.0 71.5 L208.2 71.5 L208.4 71.6 L208.5 71.6 L208.6 71.6 L208.7 71.6 L208.8 71.6 L208.9 71.5 L209.0 71.4 L209.0 71.3 L209.1 71.2 L209.1 71.1 L209.2 71.1 L209.3 71.1 L209.5 71.1 L209.6 71.1 L209.7 71.2 L209.8 71.4 L209.9 71.5 L210.0 71.5 L210.2 71.4 L210.3 71.4 L210.6 71.5 L210.6 71.5 L210.9 71.5 L211.1 71.4 L211.4 71.2 L211.6 71.1 L211.7 71.2 L211.8 71.3 L211.8 71.4 L211.8 71.4 L211.9 71.5 L212.0 71.4 L212.0 71.3 L211.9 71.2 L212.0 71.2 L212.0 71.1 L212.0 71.0 L212.1 71.0 L212.2 71.0 L212.4 71.2 L212.5 71.2 L212.8 71.2 L213.0 71.0 L213.1 70.8 L213.1 70.7 L213.0 70.4 L213.0 70.4 L212.9 70.2 L212.6 69.9 L212.5 69.7 L212.5 69.6 L212.6 69.5 L212.6 69.4 L212.6 69.4 L212.6 69.3 L212.7 69.3 L212.7 69.2 L212.8 69.2 L212.8 69.1 L212.8 69.0 L212.8 69.0 L212.9 68.9 L213.1 68.8 L213.1 68.7 L213.1 68.6 L212.7 67.8 L212.5 67.6 L212.4 67.7 L212.0 67.7 L211.8 67.7 L211.6 67.7 L211.4 67.7 L211.1 67.7 L211.1 67.7 L210.9 67.7 L210.8 67.6 L210.7 67.6 L210.6 67.5 L210.5 67.4 L210.4 67.3 L210.3 67.2 L210.2 66.8 L210.2 66.6 L210.5 66.3 L210.5 66.1 L210.5 65.9 L210.4 65.7 L210.1 65.7 L210.1 65.5 L210.5 65.5 L210.8 65.5 L211.1 65.8 L211.6 65.7 L211.8 66.0 L211.8 66.2 L212.1 66.2 L212.3 66.2 L212.4 66.1 L212.5 66.0 L213.0 66.0 L213.2 65.9 L213.3 65.7 L214.0 65.4 L214.0 65.4 L214.1 65.5 L214.2 65.7 L214.3 65.8 L214.3 65.9 L214.4 65.8 L214.5 65.6 L214.5 65.6 L214.5 65.7 L214.6 65.8 L214.7 65.8 L214.7 65.7 L214.8 65.5 L214.8 65.5 L214.9 65.5 L215.0 65.6 L215.0 65.7 L215.1 65.6 L215.3 65.5 L215.6 65.6 L215.9 65.5 L216.0 65.4 L216.2 65.2 L216.5 65.2 L216.7 64.9 L216.8 64.7 L216.6 64.5 L216.6 64.4 L216.5 64.4 L216.3 64.3 L216.2 64.3 L216.2 64.2 L216.3 64.0 L216.5 63.9 L216.6 63.8 L217.0 63.6 L217.0 63.5 L217.1 63.6 L217.1 63.6 L217.1 63.6 L217.2 63.6 L217.3 63.6 L217.4 63.6 L217.4 63.6 L217.5 63.5 L217.7 63.3 L217.8 63.2 L217.9 63.2 L218.1 63.1 L218.2 63.0 L218.6 62.9 L219.0 62.8 L219.5 62.7 L219.5 62.4 L219.4 62.2 L219.5 62.0 L219.8 61.8 L219.9 61.7 L220.0 61.5 L220.1 61.2 L220.3 61.1 L220.8 60.8 L221.4 60.8 L221.8 60.8 L221.9 60.8 L222.0 60.8 L222.1 60.7 L222.3 60.7 L222.4 60.7 L222.7 60.8 L223.2 60.6 L223.6 60.8 L223.8 60.5 L223.9 60.3 L224.0 60.1 L223.9 59.8 L224.1 59.8 L224.1 59.7 L224.4 59.6 L224.8 59.5 L225.0 59.4 L225.4 59.3 L225.6 59.1 L226.0 58.8 L225.7 58.6 L225.5 58.4 L225.6 58.1 L225.8 58.1 L225.9 58.1 L226.0 58.0 L226.1 57.9 L226.1 57.8 L226.2 57.8 L226.4 57.8 L226.7 57.8 L226.8 57.7 L226.9 57.7 L227.0 57.6 L227.3 57.2 L227.4 57.2 L227.6 57.1 L227.8 57.2 L228.0 57.3 L228.3 57.6 L228.4 57.7 L228.3 58.0 L228.4 58.0 L228.5 58.0 L228.6 58.0 L228.8 58.0 L229.1 58.0 L229.6 58.1 L230.0 58.2 L230.2 58.3 L230.3 58.3 L230.8 58.4 L230.8 58.4 L230.9 58.4 L230.9 58.5 L230.9 58.5 L230.9 58.6 L231.0 58.6 L231.3 58.7 L231.8 58.7 L232.1 58.7 L232.5 58.6 L232.6 58.2 L232.6 58.2 L232.7 58.0 L232.6 57.8 L232.6 57.8 L232.8 57.7 L232.8 57.7 L232.8 57.6 L232.8 57.6 L232.9 57.6 L232.9 57.5 L233.0 57.5 L233.0 57.5 L233.4 57.7 L233.8 57.7 L233.9 57.4 L233.9 57.0 L234.1 57.0 L234.2 56.9 L234.6 57.1 L235.1 56.9 L235.4 56.9 L235.8 56.9 L236.2 56.9 L236.2 56.9 L236.3 57.2 L236.4 57.3 L236.5 57.5 L236.7 57.6 L236.9 57.6 L237.1 57.5 L237.2 57.4 L237.3 57.4 L237.4 57.4 L237.5 57.5 L237.5 57.6 L237.3 57.8 L237.2 57.9 L237.2 58.0 L236.6 58.1 L236.5 58.2 L236.4 58.3 L236.4 58.3 L236.4 58.9 L236.5 59.3 L236.8 59.3 L237.0 59.0 L237.5 58.7 L238.0 59.0 L237.9 59.1 L237.9 59.1 L238.0 59.2 L238.1 59.2 L238.2 59.3 L238.2 59.4 L238.3 59.6 L238.3 59.7 L238.6 60.0 L238.7 60.3 L238.8 60.6 L238.2 60.7 L238.2 61.0 L237.7 61.5 L237.3 61.9 L237.1 62.3 L237.5 62.5 L237.9 62.4 L238.2 62.2 L238.3 62.2 L238.6 62.1 L238.8 62.1 L239.4 62.2 L240.5 62.6 L240.7 62.7 L240.9 62.8 L241.0 62.7 L241.2 62.6 L241.5 62.5 L241.7 62.6 L242.1 62.9 L242.2 62.9 L242.2 62.9 L242.3 62.9 L242.3 63.0 L242.4 63.1 L242.7 63.3 L242.9 63.4 L242.9 63.6 L242.8 63.9 L242.7 64.1 L242.8 64.2 L243.1 64.5 L243.1 64.7 L243.1 64.8 L243.0 64.9 L243.0 65.0 L243.0 65.1 L243.0 65.2 L243.0 65.2 L242.8 65.3 L242.7 65.3 L242.7 65.3 L242.7 65.2 L242.6 65.2 L242.5 65.1 L242.4 65.2 L242.3 65.2 L242.3 65.3 L242.2 65.4 L242.1 65.5 L241.8 65.7 L241.8 65.7 L241.7 65.7 L241.7 65.8 L241.6 65.8 L241.6 65.9 L241.5 65.9 L241.4 65.9 L241.4 66.0 L241.4 66.1 L241.4 66.1 L241.3 66.1 L241.3 66.1 L241.1 66.2 L241.0 66.2 L240.8 66.4 L240.7 66.5 L240.5 66.6 L240.4 66.7 L240.3 66.8 L240.3 66.9 L240.3 67.0 L240.3 67.1 L240.4 67.2 L240.4 67.2 L240.4 67.3 L240.4 67.4 L240.4 67.4 L240.4 67.5 L240.4 67.7 L240.4 67.8 L240.5 68.0 L241.4 69.1 L241.6 69.2 L241.6 69.3 L241.6 69.4 L241.7 69.4 L241.7 69.5 L241.7 69.5 L241.8 69.5 L241.8 69.6 L241.8 69.7 L241.8 69.8 L241.7 69.8 L241.7 69.9 L241.6 69.8 L241.6 69.8 L241.5 69.8 L241.4 69.8 L241.4 69.8 L241.3 69.8 L241.3 69.8 L241.2 69.8 L241.2 69.8 L241.1 69.7 L241.1 69.7 L240.3 69.4 L240.2 69.3 L240.2 69.2 L240.2 69.1 L240.3 69.0 L240.2 68.9 L240.0 68.8 L240.0 68.7 L239.9 68.5 L239.8 68.5 L239.7 68.4 L239.5 68.3 L239.4 68.3 L239.3 68.3 L239.2 68.3 L239.1 68.4 L239.1 68.4 L239.0 68.4 L238.9 68.4 L238.9 68.4 L238.9 68.4 L238.7 68.3 L238.6 68.4 L238.6 68.5 L238.5 68.6 L238.4 68.6 L238.3 68.7 L238.2 68.7 L238.1 68.7 L237.7 68.6 L236.2 68.9 L235.8 69.0 L235.4 69.2 L235.2 69.5 L235.0 69.9 L234.9 70.0 L234.7 70.2 L234.6 70.3 L234.3 70.3 L234.1 70.4 L233.9 70.6 L233.7 70.9 L233.7 70.9 L233.6 71.0 L233.3 71.0 L233.2 71.0 L233.2 71.1 L233.1 71.2 L233.0 71.3 L232.9 71.4 L232.8 71.4 L232.7 71.4 L232.5 71.4 L232.3 71.6 L232.2 71.8 L232.0 72.0 L231.9 72.1 L231.5 72.2 L231.3 72.3 L231.2 72.3 L231.1 72.3 L231.0 72.3 L230.9 72.2 L230.8 72.2 L230.8 72.3 L230.7 72.4 L230.7 72.4 L230.6 72.4 L230.5 72.5 L230.4 72.5 L230.4 72.5 L230.4 72.6 L230.3 72.7 L230.3 72.8 L230.3 72.8 L230.3 72.9 L230.2 73.0 L230.1 73.1 L230.0 73.2 L229.9 73.3 L229.9 73.4 L230.0 73.6 L230.1 73.7 L230.0 73.8 L230.0 74.0 L229.9 74.2 L229.9 74.4 L229.9 74.6 L230.0 74.8 L230.1 74.8 L230.1 74.8 L230.2 74.8 L230.2 74.9 L230.2 74.9 L230.2 75.0 L230.1 75.0 L230.1 75.0 L230.2 75.4 L230.3 75.5 L230.5 75.6 L230.5 75.6 L230.5 75.7 L230.5 75.9 L230.3 76.1 L230.1 76.3 L230.0 76.3 L229.7 76.4 L229.7 76.5 L229.6 76.6 L229.6 76.7 L229.8 77.3 L229.8 77.4 L229.7 77.5 L229.7 77.6 L229.6 77.6 L229.5 77.6 L229.5 77.6 L228.9 78.3 L228.9 78.3 L228.9 78.4 L228.8 78.4 L228.8 78.4 L228.9 78.5 L228.9 78.5 L228.8 78.5 L228.7 78.5 L228.7 78.5 L228.6 78.6 L228.4 78.8 L228.3 78.9 L228.2 78.9 L228.0 79.0 L227.9 79.0 L227.7 79.1 L227.7 79.2 L227.6 79.3 L227.4 79.5 L227.1 80.3 L227.1 80.6 L227.3 80.7 L227.5 80.8 L227.7 80.8 L227.9 80.9 L228.0 81.1 L228.1 81.3 L228.0 81.6 L227.9 81.7 L227.8 81.9 L227.7 82.3 L227.6 82.5 L227.4 82.8 L227.4 82.9 L227.4 83.0 L227.3 83.2 L227.3 83.2 L227.2 83.3 L227.2 83.4 L227.1 83.4 L227.0 83.4 L226.9 83.4 L226.9 83.5 L226.8 83.9 L226.7 84.0 L226.4 84.2 L226.4 84.2 L226.3 84.3 L226.2 84.6 L226.2 84.6 L226.1 84.7 L226.1 84.8 L226.0 85.0 L226.0 85.0 L225.9 85.1 L225.9 85.2 L225.9 85.2 L225.9 85.3 L225.9 85.3 L225.8 85.4 L225.7 85.5 L225.7 85.5 L225.6 85.6 L225.6 85.8 L225.6 85.9 L225.3 86.5 L225.3 86.7 L225.2 86.9 L225.2 87.0 L225.1 87.1 L225.1 87.1 L225.1 87.3 L225.1 87.4 L224.8 87.7 L224.8 87.9 L224.7 88.0 L224.8 88.1 L224.7 88.2 L224.7 88.2 L224.7 88.3 L224.6 88.3 L224.5 88.2 L224.4 88.1 L224.3 88.0 L224.0 87.9 L223.8 87.9 L223.7 87.8 L223.5 87.7 L223.3 87.7 L222.9 87.8 L222.8 87.7 L222.5 87.4 L222.3 87.4 L222.1 87.3 L221.8 87.4 L221.6 87.4 L221.6 87.5 L221.6 87.5 L221.6 87.6 L221.5 87.6 L221.5 87.6 L221.5 87.6 L221.4 87.5 L221.4 87.5 L221.3 87.5 L221.1 87.6 L221.0 87.6 L220.9 87.6 L220.9 87.6 L220.8 87.5 L220.8 87.4 L220.6 87.3 L220.6 87.2 L220.4 87.0 L220.3 86.9 L220.1 86.9 L220.1 87.0 L220.0 87.2 L220.0 87.2 L220.0 87.3 L220.0 87.4 L220.1 87.5 L220.1 87.6 L220.2 87.8 L220.3 87.9 L220.3 87.9 L220.3 87.9 L220.3 88.0 L220.3 88.2 L220.4 88.9 L220.6 89.0 L220.6 89.1 L220.7 89.2 L220.7 89.2 L220.8 89.4 L220.6 90.5 L220.6 90.7 L220.6 91.0 L220.6 91.1 L220.6 91.1 L220.6 91.2 L220.5 91.3 L220.5 91.4 L220.4 91.5 L220.5 91.7 L220.4 92.1 L220.4 92.2 L220.4 92.3 L220.4 92.4 L220.2 92.8 L220.1 92.9 L220.0 93.0 L219.9 93.1 L219.7 93.1 L219.6 93.0 L219.5 92.9 L219.4 92.8 L219.3 92.8 L219.2 92.8 L219.1 92.9 L219.1 93.1 L219.1 93.2 L219.2 93.3 L219.3 93.5 L219.3 93.7 L219.3 93.8 L219.2 93.9 L219.0 94.1 L219.0 94.2 L218.9 94.2 L218.8 94.4 L218.7 94.8 L218.7 95.0 L218.8 95.1 L218.9 95.3 L218.9 95.4 L218.9 95.5 L218.9 95.7 L218.9 95.9 L218.9 96.1 L219.0 96.1 L219.2 96.3 L219.2 96.6 L219.3 97.2 L219.3 97.3 L219.3 97.4 L219.2 97.4 L219.2 97.4 L219.0 97.5 L219.0 97.5 L219.0 97.5 L219.0 97.5 L219.1 97.7 L219.0 97.8 L218.9 97.7 L218.8 97.7 L218.7 97.6 L218.6 97.6 L218.5 97.6 L218.4 97.6 L218.4 97.7 L218.4 97.7 L218.4 98.1 L218.4 98.1 L218.3 98.2 L218.3 98.2 L218.2 98.2 L218.1 98.4 L218.1 98.5 L218.1 98.6 L218.2 98.6 L218.2 98.7 L218.2 98.7 L218.2 98.8 L218.2 98.8 L218.2 98.8 L218.2 98.8 L218.1 98.9 L218.1 98.9 L218.0 98.8 L218.0 98.8 L217.9 98.7 L217.9 98.7 L217.8 98.7 L217.7 98.8 L217.7 99.0 L217.6 99.0 L217.5 99.0 L217.5 98.8 L217.5 98.6 L217.4 98.5 L217.0 98.2 L216.6 97.9 L216.5 97.9 L216.4 97.9 L216.4 98.0 L216.4 98.2 L216.4 98.2 L216.4 98.3 L216.4 98.2 L216.4 98.2 L216.3 98.4 L216.3 98.4 L216.4 98.5 L216.4 98.6 L216.3 98.7 L216.3 98.7 L216.2 98.7 L216.1 98.7 L216.0 98.8 L216.0 98.8 L216.0 98.9 L215.9 98.9 L215.9 98.9 L215.9 98.9 L215.9 98.8 L215.8 98.4 L215.7 98.0 L215.7 98.0 L215.8 98.0 L215.9 98.0 L215.9 97.8 L215.6 96.0 L215.6 95.9 L215.5 95.7 L215.5 95.6 L215.5 95.3 L215.4 94.8 L215.4 94.7 L215.3 94.6 L215.2 94.5 L215.1 94.4 L215.1 94.3 L215.0 93.8 L215.0 93.7 L214.8 93.7 L214.7 93.5 L214.6 93.3 L214.6 92.9 L214.5 92.1 L214.5 91.9 L214.5 91.8 L214.6 91.6 L214.6 91.5 L214.6 91.4 L214.6 91.4 L214.6 91.3 L214.6 91.2 L214.6 91.1 L214.6 91.1 L214.6 91.0 L214.5 91.0 L214.5 91.0 L214.5 90.9 L214.5 90.8 L214.5 90.8 L214.4 90.7 L214.4 90.7 L214.3 90.6 L214.3 90.6 L214.3 90.3 L214.0 89.6 L214.0 89.4 L214.1 89.2 L214.1 89.1 L214.1 89.1 L214.0 89.0 L213.9 89.1 L213.8 89.3 L213.7 89.4 L213.6 89.3 L213.6 89.1 L213.5 88.9 L213.2 89.0 L213.1 89.1 L213.0 89.3 L212.9 89.4 L212.7 89.4 L212.6 89.4 L212.4 89.2 L212.3 89.1 L212.3 89.0 L212.2 89.0 L212.1 89.1 L212.1 89.2 L212.1 89.4 L212.3 90.1 L212.3 90.3 L212.1 90.5 L212.1 90.6 L212.0 90.6 L211.7 90.7 L211.6 90.8 L211.4 91.0 L211.3 91.3 L211.2 91.5 L211.2 91.8 L211.3 91.9 L211.4 92.3 L211.4 92.5 L211.4 92.6 L211.4 92.6 L211.3 92.7 L211.3 92.7 L211.3 92.7 L211.3 92.7 L211.2 92.7 L211.2 92.8 L211.2 92.8 L211.2 92.8 L211.1 93.0 L211.1 93.0 L211.0 93.1 L210.9 93.1 L210.9 93.2 L210.7 93.2 L210.6 93.2 L210.6 93.2 L210.6 93.2 L210.5 93.2 L210.5 93.2 L210.4 93.2 L210.4 93.3 L210.4 93.3 L210.3 93.4 L210.3 93.4 L210.2 93.4 L210.2 93.3 L210.2 93.3 L210.1 93.2 L210.0 93.2 L210.0 93.2 L209.9 93.1 L209.9 93.1 L209.9 92.9 L209.9 92.9 L209.8 92.9 L209.8 92.8 L209.8 92.7 L209.6 92.3 L209.6 92.2 L209.6 92.0 L209.5 92.0 L209.5 92.0 L209.5 91.9 L209.5 91.9 L209.5 91.9 L209.4 91.8 L209.4 91.8 L209.4 91.9 L209.4 91.9 L209.4 91.8 L209.3 91.7 L209.2 91.6 L209.0 91.6 L209.0 91.7 L208.9 91.8 L208.9 92.1 L209.1 92.5 L209.0 92.7 L208.8 92.7 L208.7 92.5 L208.6 92.3 L208.5 91.4 L208.5 91.3 L208.4 91.3 L208.4 91.2 L208.5 91.2 L208.5 91.1 L208.6 91.1 L208.5 91.0 L208.5 91.0 L208.4 91.0 L208.3 90.9 L208.3 90.6 L208.2 90.5 L208.2 90.4 L208.2 90.4 L208.1 90.3 L208.0 90.3 L208.0 90.2 L207.9 90.0 L207.9 89.9 L207.7 89.6 L207.7 89.5 L207.7 89.4 L207.8 89.4 L207.9 89.4 L207.9 89.3 L207.9 89.2 L207.8 89.2 L207.7 89.1 L207.7 89.0 L207.7 88.9 L207.8 88.9 L207.9 88.8 L208.0 88.8 L208.1 88.7 L208.2 88.4 L208.2 88.3 L208.2 88.2 L208.1 88.1 L208.1 88.0 L208.2 87.9 L208.3 87.6 L208.4 87.5 L208.5 87.5 L208.6 87.4 L208.7 87.4 L208.7 87.4 L208.7 87.5 L208.8 87.5 L208.9 87.4 L208.9 87.2 L208.9 87.0 L209.0 86.8 L209.2 86.8 L209.7 86.9 L209.9 86.9 L210.1 86.9 L210.2 86.9 L210.3 86.8 L210.4 86.7 L210.4 86.6 L210.5 86.2 L210.5 86.2 L210.6 86.2 L210.7 86.4 L210.7 86.5 L210.8 86.6 L210.9 86.6 L211.0 86.6 L211.1 86.5 L211.1 86.4 L211.1 86.3 L211.0 86.1 L211.1 86.1 L211.5 86.1 L211.5 86.1 L211.5 86.2 L211.5 86.3 L211.6 86.4 L211.7 86.5 L211.8 86.5 L211.9 86.5 L212.0 86.4 L212.1 85.9 L212.1 85.8 L212.0 85.6 L212.0 85.5 L212.2 85.4 L212.2 85.5 L212.3 85.6 L212.5 85.6 L212.4 85.5 L212.3 85.3 L212.3 85.3 L212.8 85.3 L213.0 85.3 L213.1 85.2 L213.2 85.1 L213.2 84.9 L213.2 84.6 L213.2 84.5 L213.3 84.4 L213.4 84.4 L213.5 84.3 L213.5 84.3 L213.5 84.2 L213.6 84.1 L213.6 83.9 L213.7 83.7 L213.9 83.0 L214.0 82.9 L214.0 82.8 L213.9 82.7 L213.9 82.7 L213.9 82.5 L213.9 82.5 L213.8 82.4 L213.9 82.3 L214.0 82.3 L214.3 82.3 L214.3 82.3 L214.6 82.5 L214.6 82.5 L214.7 82.6 L214.7 82.6 L214.7 82.6 L214.7 82.6 L214.7 82.6 L214.8 82.6 L215.1 82.5 L215.3 82.5 L215.4 82.4 L215.4 82.3 L215.4 82.2 L215.4 82.2 L215.4 82.1 L215.3 82.1 L215.3 82.1 L215.2 82.0 L215.2 82.0 L215.2 82.0 L215.2 82.0 L215.2 82.0 L215.2 82.0 L215.1 81.9 L215.1 81.9 L215.0 81.8 L215.0 81.8 L215.0 81.8 L215.0 81.8 L215.0 81.8 L214.9 81.8 L214.8 81.7 L214.8 81.7 L214.8 81.7 L214.8 81.7 L214.8 81.6 L214.6 81.5 L214.5 81.4 L214.4 81.3 L214.3 81.3 L214.0 81.3 L213.9 81.2 L213.9 81.2 L213.8 81.2 L213.7 81.1 L213.6 81.0 L213.6 81.0 L213.5 81.0 L213.5 81.0 L213.4 81.0 L213.4 80.9 L213.3 80.9 L213.3 80.9 L213.2 80.9 L213.2 80.8 L213.1 80.8 L213.0 80.7 L212.8 80.7 L212.6 80.7 L212.5 80.7 L212.4 80.7 L212.0 80.7 L211.4 80.8 L211.2 80.7 L211.1 80.8 L211.0 80.8 L211.0 80.9 L211.0 80.9 L210.9 80.9 L210.8 80.8 L210.8 80.8 L210.7 80.9 L210.7 81.0 L210.6 81.0 L210.4 81.0 L210.3 81.0 L210.2 80.9 L210.2 80.8 L210.1 80.8 L210.0 80.8 L210.0 80.8 L209.9 80.9 L209.8 80.9 L209.8 80.9 L209.7 80.9 L209.6 81.0 L209.4 80.9 L208.5 80.7 L208.3 80.6 L208.2 80.6 L208.1 80.6 L208.0 80.6 L207.7 80.6 L206.8 80.8 L206.6 80.8 L206.6 80.8 L205.9 80.9 L205.7 80.9 L205.7 80.8 L205.6 80.8 L205.5 80.8 L205.4 80.7 L205.4 80.8 L205.3 80.8 L205.3 80.8 L205.3 80.8 L205.0 80.8 L204.9 80.8 L204.9 80.7 L204.8 80.7 L204.6 80.8 L204.1 80.8 L203.5 80.9 L203.3 80.9 L202.9 80.7 L202.0 80.5 L200.7 80.0 L200.5 80.0 L200.3 80.1 L200.2 80.1 L200.1 80.0 L200.1 79.8 L200.1 79.6 L200.1 79.4 L200.1 79.4 L200.1 79.2 L200.2 78.9 L200.2 78.5 L200.3 78.1 L200.2 77.9 L200.1 77.6 L200.0 77.1 L200.0 76.9 L200.3 76.5 L200.3 76.4 L200.2 76.4 L200.2 76.4 L200.0 76.3 L200.2 76.3 L200.2 76.2 L200.3 76.1 L200.2 76.1 L200.2 76.0 L200.2 76.0 L200.2 76.0 L200.1 76.1 L200.1 76.1 L200.1 76.1 L200.1 76.1 L200.1 76.1 L200.0 76.1 L200.0 76.1 L200.0 76.0 L199.8 75.8 L199.8 75.8 L199.8 75.7 L199.8 75.6 L199.8 75.5 L199.7 75.5 L199.7 75.4 L199.7 75.3 L199.6 75.2 L199.6 75.1 L199.5 75.1 L199.4 75.2 L199.4 75.1 L199.3 75.1 L199.3 75.1 L199.3 75.1 L199.3 75.0 L199.3 74.8 L199.3 74.8 L199.2 74.7 L199.0 74.8 L199.0 74.8 L199.0 75.0 L199.0 75.1 L199.0 75.1 L198.9 75.1 L198.9 75.1 L198.8 75.1 L198.8 75.1 L198.7 75.2 L198.8 75.3 L198.9 75.3 L199.0 75.3 L198.9 75.4 L198.8 75.4 L198.8 75.5 L198.8 75.5 L198.8 75.6 L198.9 75.5 L199.0 75.5 L199.0 75.6 L199.0 75.7 L198.7 75.9 L198.7 76.1 L198.7 76.1 L198.7 76.2 L198.6 76.3 L198.5 76.3 L198.5 76.2 L198.4 76.2 L198.4 76.1 L198.3 76.0 L198.3 76.0 L198.3 76.0 L198.0 76.1 L198.0 76.1 L197.9 76.1 L197.9 76.1 L197.9 76.1 L197.9 76.1 L197.8 75.9 L197.7 75.9 L197.6 76.0 L197.5 76.0 L197.5 76.0 L197.3 76.0 L197.2 75.9 L197.1 75.8 L196.9 75.7 L196.8 75.6 L196.8 75.5 L196.8 75.5 L196.7 75.4 L196.3 75.3 L196.2 75.2 L196.2 75.1 L196.1 74.7 L196.1 74.7 L196.0 74.5 L195.9 74.4 L195.9 74.2 L196.0 74.2 L196.1 74.3 L196.1 74.2 L196.1 74.2 L196.1 74.1 L196.0 74.1 L195.9 74.0 L195.9 74.0 L195.9 74.0 L195.8 73.9 L195.8 73.9 L195.7 73.8 L195.6 73.8 L195.6 73.8 L195.5 73.7 L195.4 73.6 L195.3 73.6 L195.3 73.5 L195.2 73.5 L195.1 73.6 L195.0 73.6 L195.0 73.7 L194.9 73.8 L194.9 73.9 L195.0 74.0 L195.2 74.1 L195.3 74.2 L195.4 74.3 L195.4 74.4 L195.5 74.4 L195.5 74.4 L195.6 74.3 L195.6 74.5 L195.6 74.5 L195.7 74.5 L195.7 74.5 L195.8 74.6 L195.7 74.7 L195.4 74.7 L195.2 74.7 L195.0 74.5 L194.8 74.4 L194.7 74.5 L194.6 74.7 L194.5 74.7 L194.5 74.7 L194.4 74.6 L194.4 74.5 L194.3 74.4 L194.1 74.4 L193.6 74.5 L193.5 74.5 L193.6 74.4 L193.8 74.3 L193.9 74.3 L193.9 74.2 L193.9 74.1 L193.8 74.0 L193.7 74.0 L193.7 73.9 L193.7 73.8 L193.6 73.8 L193.6 73.8 L193.6 73.8 L193.6 73.7 L193.6 73.7 L193.5 73.6 L193.4 73.6 L193.3 73.6 L193.3 73.5 L193.3 73.5 L193.2 73.4 L193.1 73.4 L193.0 73.4 L193.0 73.4 L192.9 73.3 L192.7 73.2 L192.7 73.2 L192.6 73.1 L192.6 73.1 L192.5 73.0 L192.4 73.0 L192.2 72.9 L192.1 72.8 L192.1 72.7 L192.1 72.6 L192.1 72.5 L192.0 72.5 L192.0 72.5 L191.9 72.6 L191.9 72.7 L191.7 73.1 L191.7 73.2 L191.6 73.3 L191.6 73.4 L191.7 73.5 L191.8 73.5 L191.8 73.4 L191.8 73.3 L191.8 73.3 L191.9 73.3 L192.0 73.3 L192.3 73.4 L192.5 73.4 L192.6 73.6 L192.7 73.9 L192.7 74.0 L192.6 74.0 L192.5 74.0 L192.5 74.0 L192.4 74.0 L192.4 74.0 L192.3 74.0 L192.3 74.0 L192.2 74.0 L192.2 74.1 L191.9 74.2 L191.9 74.3 L191.8 74.4 L191.7 74.5 L191.8 74.7 L191.7 74.8 L191.6 74.9 L191.3 75.0 L191.2 75.0 L191.1 75.0 L191.1 75.0 L191.0 75.1 L191.0 75.1 L190.8 75.2 L190.7 75.3 L190.7 75.5 L190.7 75.5 L190.6 75.5 L190.7 75.6 L190.7 75.6 L190.7 75.6 L190.7 75.7 L190.8 75.7 L190.7 75.8 L190.6 75.9 L190.5 76.1 L190.4 76.5 L190.3 76.5 L190.3 76.5 L190.3 76.5 L190.3 76.8 L190.4 76.9 L190.4 76.9 L190.4 77.0 L190.4 77.1 L190.5 77.1 L190.5 77.2 L190.6 77.3 L190.7 77.3 L190.8 77.3 L190.9 77.2 L191.1 77.1 L191.3 77.2 L191.7 77.6 L192.1 77.8 L192.2 78.0 L192.3 78.3 L192.3 78.4 L192.6 78.5 L192.6 78.6 L192.8 78.7 L192.8 78.8 L192.9 78.9 L193.0 78.9 L193.2 78.9 L193.3 78.9 L193.5 79.1 L193.6 79.1 L193.7 79.1 L193.8 79.0 L193.8 79.0 L193.9 78.9 L193.9 78.9 L194.0 78.9 L194.0 78.9 L194.1 78.9 L194.1 78.8 L194.2 78.9 L194.3 78.9 L194.4 79.0 L194.4 79.0 L194.5 79.1 L194.5 79.2 L194.4 79.4 L194.4 79.5 L194.5 79.5 L194.5 79.6 L194.5 79.6 L194.5 79.7 L194.6 79.8 L194.7 79.9 L194.7 79.9 L194.9 79.9 L194.9 79.9 L195.0 80.0 L195.1 80.0 L195.4 80.0 L195.4 80.0 L195.5 80.1 L195.4 80.1 L195.4 80.2 L195.2 80.3 L195.1 80.4 L195.1 80.5 L195.1 80.6 L195.1 80.6 L195.0 80.6 L195.1 80.8 L195.0 80.7 L194.6 80.6 L194.5 80.6 L194.5 80.6 L194.5 80.6 L194.4 80.6 L194.4 80.8 L194.3 80.8 L194.0 80.8 L193.6 80.6 L193.5 80.6 L193.3 80.6 L193.2 80.6 L193.1 80.7 L193.1 80.7 L193.0 80.7 L193.0 80.7 L193.0 80.7 L192.8 80.7 L192.7 80.6 L192.6 80.6 L192.4 80.6 L192.3 80.7 L192.3 81.0 L192.3 81.4 L192.2 81.6 L192.1 81.7 L192.1 81.9 L192.0 82.0 L191.8 82.3 L191.7 82.4 L191.6 82.5 L191.5 82.5 L191.3 82.4 L191.2 82.4 L191.2 82.3 L191.2 82.2 L191.1 82.1 L191.0 82.0 L190.9 82.0 L190.8 82.0 L190.5 82.2 L190.5 82.2 L190.5 82.2 L190.6 82.3 L190.6 82.5 L190.7 82.6 L190.6 82.7 L190.5 82.7 L190.5 82.8 L190.4 82.8 L190.4 82.9 L190.3 82.9 L190.3 83.0 L190.3 83.1 L190.2 83.1 L190.2 83.1 L190.1 83.4 L190.1 83.5 L190.0 83.6 L190.0 83.7 L190.1 83.8 L190.2 83.8 L190.2 83.9 L190.3 84.0 L190.3 84.0 L190.3 84.3 L190.3 84.3 L190.4 84.4 L190.4 84.4 L190.5 84.5 L190.5 84.6 L190.6 84.6 L192.1 85.3 L192.6 85.6 L192.7 85.6 L193.1 85.6 L193.3 85.7 L193.5 85.7 L193.5 85.6 L193.6 85.5 L193.7 85.5 L193.9 85.6 L194.0 85.8 L194.1 86.0 L194.1 86.0 L194.1 86.1 L194.1 86.1 L194.1 86.2 L194.0 86.3 L194.0 86.3 L194.0 86.3 L193.9 86.4 L193.8 86.4 L193.7 86.5 L193.7 86.5 L193.7 86.6 L193.7 86.7 L193.7 86.8 L193.7 86.9 L193.7 86.9 L193.7 87.0 L193.8 87.1 L193.8 87.2 L194.0 87.2 L194.0 87.2 L193.9 87.3 L193.8 87.4 L193.9 87.5 L193.9 87.6 L193.9 87.7 L193.9 87.8 L193.9 87.9 L193.6 88.1 L193.6 88.1 L193.5 88.2 L193.3 88.2 L193.2 88.2 L193.1 88.2 L193.1 88.3 L193.1 88.3 L193.1 88.4 L193.1 88.4 L193.1 88.5 L193.0 88.6 L193.0 88.7 L193.0 88.7 L193.0 88.8 L193.0 88.9 L192.9 89.4 L192.9 89.5 L193.0 89.5 L193.0 89.5 L193.1 89.5 L193.1 89.6 L193.0 89.6 L193.0 89.7 L193.1 89.7 L193.2 89.7 L193.3 89.7 L193.3 89.7 L193.4 89.8 L193.5 90.0 L193.6 90.1 L193.8 90.2 L193.9 90.3 L193.9 90.4 L194.0 90.4 L194.1 90.3 L194.2 90.3 L194.2 90.3 L194.2 90.4 L193.9 91.1 L193.8 91.3 L193.8 91.4 L193.8 91.5 L193.8 91.7 L193.9 91.7 L194.3 91.8 L194.3 91.8 L194.4 91.8 L194.4 91.8 L194.5 91.7 L194.5 91.7 L194.6 91.8 L195.0 91.9 L195.1 91.9 L195.1 91.9 L195.3 91.9 L195.3 91.9 L195.3 92.0 L195.3 92.0 L195.2 92.1 L195.1 92.2 L194.8 92.5 L194.7 92.7 L194.7 93.0 L194.6 93.1 L194.6 93.2 L194.6 93.3 L194.8 93.4 L194.8 93.5 L194.9 93.8 L195.0 93.9 L195.2 93.9 L195.2 94.0 L195.2 94.0 L195.2 94.1 L195.2 94.3 L195.2 94.3 L195.1 94.4 L195.1 94.5 L195.0 94.6 L195.0 94.7 L195.1 94.8 L195.1 94.9 L195.1 95.0 L195.2 95.2 L195.3 95.3 L195.3 95.5 L195.3 95.6 L195.1 95.7 L195.3 95.7 L195.4 95.8 L195.4 96.0 L195.5 96.2 L195.6 96.3 L195.5 96.4 L195.5 96.5 L195.5 96.5 L195.5 96.6 L195.6 96.9 L195.6 97.0 L195.7 97.1 L195.6 97.2 L195.6 97.3 L195.9 97.6 L195.9 97.7 L196.0 97.8 L196.0 97.9 L195.9 98.0 L195.9 98.0 L195.9 98.0 L195.8 98.0 L195.8 98.1 L195.8 98.1 L195.8 98.2 L195.8 98.3 L195.8 98.4 L195.9 98.5 L195.9 98.6 L195.9 99.0 L195.9 99.1 L195.8 99.2 L195.7 99.2 L195.6 99.2 L195.6 99.2 L195.6 99.3 L195.5 99.3 L195.3 99.2 L195.2 99.1 L195.2 99.1 L195.2 99.0 L195.1 98.9 L195.1 98.9 L195.0 99.0 L195.0 99.1 L195.1 99.2 L195.2 99.2 L195.3 99.3 L195.4 99.3 L195.5 99.4 L195.6 99.6 L195.7 100.1 L195.8 100.3 L195.8 100.3 L195.9 100.4 L196.0 100.6 L196.0 100.6 L196.0 100.9 L196.0 101.0 L195.9 101.0 L195.8 101.0 L195.8 101.0 L195.8 100.9 L195.8 100.9 L195.7 100.9 L195.7 100.9 L195.7 101.0 L195.7 101.0 L195.5 101.0 L195.4 101.0 L195.2 100.8 L195.0 100.8 L194.9 100.8 L194.9 100.7 L194.9 100.6 L194.8 100.2 L194.8 100.1 L194.7 100.1 L194.7 100.2 L194.6 100.4 L194.6 100.5 L194.6 100.6 L194.7 100.8 L194.7 100.8 L194.7 100.9 L194.5 101.0 L194.4 100.9 L194.4 100.8 L194.5 100.8 L194.5 100.7 L194.5 100.7 L194.5 100.6 L194.5 100.5 L194.4 100.6 L194.4 100.7 L194.4 100.7 L194.3 100.7 L194.3 100.8 L194.3 100.8 L194.3 100.9 L194.3 101.0 L194.4 101.1 L194.4 101.1 L194.4 101.2 L194.2 101.3 L194.0 101.3 L193.9 101.2 L194.0 101.0 L193.8 100.6 L193.7 100.5 L193.9 99.9 L193.8 99.8 L193.8 99.7 L193.9 99.4 L193.9 99.1 L194.0 99.0 L194.0 98.9 L194.1 98.9 L194.2 98.8 L194.2 98.7 L194.1 98.6 L193.9 98.5 L193.9 98.4 L193.9 98.3 L194.0 98.2 L194.2 98.0 L194.1 98.0 L194.0 98.1 L193.9 98.2 L193.8 98.2 L193.8 98.3 L193.8 98.4 L193.8 98.5 L193.9 98.5 L194.0 98.6 L194.0 98.7 L193.8 98.9 L193.8 99.0 L193.8 99.1 L193.7 99.1 L193.6 99.1 L193.6 99.1 L193.5 99.1 L193.4 99.1 L193.4 99.0 L193.4 98.9 L193.4 98.9 L193.5 98.8 L193.6 98.7 L193.6 98.6 L193.5 98.5 L193.5 98.4 L193.5 98.2 L193.5 98.2 L193.6 97.9 L193.7 97.9 L193.7 97.7 L193.7 97.6 L193.6 97.6 L193.6 97.6 L193.6 97.7 L193.5 97.8 L193.5 97.8 L193.5 97.9 L193.5 98.0 L193.4 98.1 L193.4 98.1 L193.4 98.2 L193.4 98.2 L193.4 98.3 L193.4 98.4 L193.4 98.5 L193.4 98.6 L193.3 98.7 L193.3 98.8 L193.3 99.1 L193.3 99.2 L193.1 99.6 L193.1 99.7 L193.1 100.1 L193.1 100.1 L193.2 100.1 L193.3 100.0 L193.4 100.0 L193.5 100.2 L193.4 100.3 L193.4 100.4 L193.3 100.5 L193.3 100.5 L193.2 100.5 L193.3 100.8 L193.2 101.0 L193.1 100.9 L193.1 101.2 L193.1 101.3 L193.0 101.3 L193.0 101.3 L192.9 101.2 L192.9 101.3 L192.9 101.3 L192.9 101.4 L192.9 101.4 L192.8 101.5 L192.7 101.4 L192.6 101.3 L192.7 101.2 L192.7 101.1 L192.7 101.1 L192.8 101.1 L192.8 101.0 L192.8 100.9 L192.8 100.8 L192.8 100.8 L192.9 100.7 L192.8 100.4 L192.7 100.3 L192.8 100.1 L192.9 99.9 L192.9 99.8 L192.8 99.6 L192.7 99.5 L192.8 99.3 L192.8 99.1 L192.7 99.1 L192.7 99.2 L192.7 99.2 L192.6 99.3 L192.6 99.4 L192.6 99.5 L192.7 99.7 L192.7 99.8 L192.7 99.9 L192.6 99.9 L192.6 99.9 L192.6 99.9 L192.5 100.0 L192.5 100.2 L192.4 100.2 L192.4 100.4 L192.4 100.5 L192.5 100.6 L192.5 100.7 L192.5 100.8 L192.4 100.9 L192.4 101.0 L192.3 101.0 L192.2 101.1 L192.1 101.1 L192.0 100.9 L192.0 100.7 L192.1 100.5 L192.0 100.5 L191.9 100.6 L191.9 100.6 L191.8 100.6 L191.8 100.5 L191.8 100.4 L191.7 100.4 L191.7 100.4 L191.7 100.5 L191.7 100.5 L191.8 100.7 L191.8 100.7 L191.8 100.8 L191.8 100.8 L191.8 101.0 L191.7 101.0 L191.6 101.0 L191.6 100.9 L191.6 100.2 L191.5 100.1 L191.5 100.0 L191.4 99.9 L191.3 99.9 L191.4 100.1 L191.5 100.6 L191.5 100.8 L191.5 100.8 L191.5 100.9 L191.5 101.0 L191.5 101.1 L191.6 101.1 L191.6 101.2 L191.6 101.2 L191.6 101.2 L191.5 101.2 L191.5 101.3 L191.4 101.3 L191.4 101.3 L191.3 101.3 L191.3 101.3 L191.3 101.2 L191.2 101.0 L191.1 101.0 L191.0 101.0 L190.9 100.8 L190.9 100.7 L190.9 100.6 L190.9 100.5 L191.0 100.3 L191.1 100.2 L191.0 100.1 L191.0 100.0 L191.0 99.9 L190.7 99.4 L190.7 99.4 L190.8 99.3 L190.7 99.0 L190.7 98.9 L190.7 98.8 L190.8 98.8 L191.0 98.5 L191.1 98.3 L191.1 98.2 L191.0 97.9 L191.0 97.8 L190.8 97.7 L190.5 97.6 L190.3 97.5 L190.3 97.4 L190.2 97.5 L190.1 97.5 L190.0 97.5 L189.9 97.4 L189.8 97.3 L189.7 97.2 L189.7 97.1 L189.6 97.0 L189.6 96.8 L189.6 96.7 L189.5 96.5 L189.5 96.4 L189.4 96.4 L189.3 96.4 L189.3 96.4 L189.4 96.5 L189.5 96.8 L189.6 97.2 L189.6 97.3 L189.7 97.4 L189.8 97.6 L189.9 97.6 L190.0 97.6 L190.2 97.6 L190.4 97.7 L190.6 97.8 L190.8 97.9 L190.8 98.1 L190.8 98.3 L190.7 98.4 L190.5 98.6 L190.3 98.7 L190.1 98.7 L190.1 98.7 L190.1 98.7 L190.1 98.8 L190.1 98.9 L190.1 98.9 L190.0 99.0 L189.8 99.6 L189.7 99.7 L189.6 99.8 L189.6 99.8 L189.3 99.9 L189.3 99.9 L189.3 99.9 L189.3 100.0 L189.3 100.0 L189.2 100.1 L189.1 100.2 L188.9 100.3 L188.5 100.5 L188.2 100.7 L188.1 100.8 L187.8 100.8 L187.7 100.8 L186.9 101.0 L186.8 101.0 L186.5 101.1 L186.1 101.3 L185.8 101.3 L185.6 101.3 L185.6 101.3 L185.5 101.3 L185.4 101.3 L185.3 101.3 L184.8 101.6 L184.5 101.8 L183.7 102.6 L183.4 103.0 L183.2 103.5 L183.3 104.0 L183.9 105.3 L184.0 105.6 L183.9 105.7 L183.8 105.7 L183.7 105.7 L183.5 105.7 L183.5 105.8 L183.7 105.9 L183.9 105.9 L184.1 105.9 L184.1 105.9 L184.1 106.0 L184.2 106.0 L184.2 106.1 L184.2 106.1 L184.1 106.2 L184.0 106.1 L183.9 106.1 L183.9 106.1 L183.8 106.2 L183.9 106.2 L183.9 106.2 L184.0 106.2 L184.0 106.3 L184.1 106.3 L184.1 106.3 L184.1 106.3 L184.1 106.3 L184.3 106.3 L184.4 106.2 L184.4 106.2 L184.3 106.3 L184.2 106.4 L184.0 106.5 L183.7 106.6 L182.9 107.2 L182.7 107.4 L182.6 107.5 L182.6 107.7 L182.6 108.1 L182.7 108.0 L182.8 107.9 L182.9 107.9 L183.0 107.9 L183.0 107.9 L183.0 107.8 L183.0 107.7 L183.1 107.8 L183.0 108.0 L182.8 108.2 L182.7 108.3 L182.7 108.3 L182.6 108.4 L182.5 108.4 L182.4 108.5 L182.5 108.5 L182.6 108.5 L182.8 108.4 L182.6 108.5 L182.0 108.8 L181.8 108.9 L181.5 109.0 L181.4 109.0 L181.3 109.1 L181.3 109.2 L181.2 109.4 L181.1 109.5 L181.1 109.6 L180.8 110.0 L180.7 110.0 L180.7 110.1 L180.8 110.1 L180.8 110.2 L180.9 110.2 L180.7 110.3 L180.5 110.1 L180.0 109.8 L179.8 109.8 L179.7 109.8 L179.6 109.7 L179.6 109.7 L179.5 109.6 L179.4 109.5 L179.4 109.4 L179.4 109.3 L179.3 109.3 L179.3 109.5 L179.4 109.6 L179.4 109.7 L179.4 109.7 L179.5 109.8 L179.7 109.9 L179.8 110.0 L180.0 110.0 L180.0 110.0 L180.1 110.0 L180.1 110.0 L180.1 110.0 L180.1 110.1 L180.1 110.1 L180.2 110.1 L180.2 110.2 L180.2 110.2 L180.3 110.2 L180.3 110.2 L180.4 110.3 L180.5 110.3 L180.6 110.4 L180.0 110.7 L179.1 111.0 L179.0 111.0 L178.9 111.0 L178.9 111.0 L178.8 111.0 L178.7 111.0 L178.7 111.0 L178.7 111.1 L178.6 111.1 L177.8 111.3 L177.6 111.3 L177.4 111.4 L177.3 111.5 L177.2 111.5 L177.0 111.5 L177.0 111.5 L176.9 111.6 L176.7 111.6 L176.3 111.8 L176.3 111.7 L176.4 111.7 L176.4 111.7 L176.3 111.7 L175.9 111.9 L175.5 112.1 L175.4 112.1 L175.3 112.1 L175.3 112.0 L175.3 111.9 L175.3 111.9 L175.3 111.9 L175.2 111.9 L175.2 111.9 L175.2 111.8 L175.2 111.8 L175.3 111.8 L175.3 111.8 L175.4 111.8 L175.5 111.7 L175.8 111.6 L175.8 111.7 L175.8 111.7 L175.7 111.7 L175.7 111.8 L176.0 111.6 L176.1 111.6 L176.0 111.6 L176.0 111.5 L176.0 111.5 L176.0 111.5 L176.0 111.3 L176.0 110.9 L176.0 110.8 L175.7 110.8 L175.5 110.7 L175.4 110.7 L175.3 110.7 L175.2 110.8 L174.9 111.1 L174.6 111.3 L174.5 111.3 L174.4 111.4 L174.4 111.4 L174.3 111.4 L174.2 111.5 L174.0 111.7 L173.9 111.8 L174.0 112.0 L173.9 112.0 L173.8 112.2 L173.7 112.3 L173.6 112.4 L173.6 112.5 L173.6 112.6 L173.6 112.6 L173.6 112.7 L173.6 112.7 L173.5 112.7 L173.4 112.8 L173.4 112.8 L173.4 112.9 L173.4 113.0 L173.4 113.0 L173.5 112.9 L173.5 113.0 L173.5 113.0 L173.5 113.1 L173.5 113.1 L173.6 113.1 L173.6 113.1 L173.6 113.0 L173.6 113.0 L173.7 113.0 L173.8 113.0 L173.8 113.0 L173.8 113.0 L173.9 112.9 L173.9 112.9 L173.9 112.8 L173.9 112.7 L174.0 112.7 L174.0 112.7 L174.1 112.7 L174.1 112.7 L173.9 112.6 L173.9 112.6 L173.9 112.5 L174.0 112.5 L174.1 112.5 L174.1 112.4 L174.2 112.4 L174.2 112.4 L174.2 112.3 L174.1 112.3 L174.1 112.3 L174.1 112.3 L174.1 112.2 L174.2 112.1 L174.2 112.1 L174.3 112.1 L174.5 112.2 L174.8 112.0 L174.9 112.0 L174.9 112.0 L175.0 112.0 L175.0 111.9 L175.1 112.0 L175.1 112.0 L175.1 112.1 L175.1 112.2 L175.1 112.2 L175.0 112.2 L175.0 112.2 L175.0 112.3 L174.9 112.3 L174.9 112.4 L174.9 112.4 L174.8 112.4 L174.7 112.5 L174.7 112.4 L174.6 112.3 L174.6 112.3 L174.6 112.4 L174.5 112.5 L174.5 112.4 L174.5 112.4 L174.4 112.4 L174.5 112.5 L174.5 112.5 L174.5 112.6 L174.7 112.6 L176.1 111.9 L175.9 112.0 L175.4 112.3 L174.9 112.5 L174.7 112.6 L174.4 112.8 L174.2 112.9 L173.8 113.1 L173.2 113.7 L172.8 114.0 L172.1 114.6 L171.6 115.2 L171.5 115.2 L171.5 115.2 L171.4 115.1 L171.4 115.1 L171.3 115.0 L171.3 115.1 L171.3 115.1 L171.2 115.2 L171.2 115.3 L171.2 115.3 L171.3 115.4 L171.3 115.4 L171.4 115.3 L171.4 115.3 L171.5 115.3 L171.5 115.3 L171.5 115.3 L171.5 115.3 L171.4 115.5 L171.3 115.7 L171.1 116.0 L171.0 116.2 L170.9 116.2 L170.7 116.3 L170.2 117.0 L170.2 117.1 L169.6 117.7 L169.6 117.8 L169.6 117.9 L169.5 117.9 L169.2 118.1 L169.1 118.3 L169.0 118.4 L168.9 118.4 L168.8 118.4 L168.7 118.5 L168.7 118.5 L168.6 118.6 L168.5 118.6 L168.5 118.5 L168.4 118.6 L168.5 118.7 L168.6 118.7 L168.8 118.6 L169.0 118.5 L169.1 118.4 L169.0 118.5 L168.7 118.7 L168.5 118.9 L168.4 119.0 L168.2 119.2 L168.1 119.3 L168.0 119.4 L167.9 119.4 L167.9 119.5 L167.9 119.5 L167.9 119.6 L167.8 119.6 L167.7 119.8 L167.5 120.0 L165.8 120.7 L164.9 121.3 L164.7 121.4 L164.7 121.5 L164.6 121.6 L164.6 121.7 L164.6 121.7 L164.5 121.8 L164.4 121.8 L164.4 121.9 L164.2 122.0 L164.1 122.1 L164.1 122.1 L164.0 122.1 L164.0 122.0 L164.0 122.1 L164.0 122.2 L164.0 122.3 L163.9 122.4 L163.8 122.5 L163.8 122.6 L163.7 122.8 L163.3 123.1 L163.2 123.2 L163.2 123.2 L163.1 123.3 L163.1 123.3 L163.1 123.3 L163.1 123.3 L163.0 123.3 L163.0 123.3 L163.0 123.2 L163.0 123.2 L163.0 123.2 L162.9 123.1 L162.8 123.2 L162.8 123.2 L162.8 123.3 L163.0 123.3 L163.1 123.4 L163.1 123.4 L163.1 123.4 L163.1 123.5 L162.9 123.5 L162.9 123.6 L162.8 123.6 L162.6 123.6 L162.7 123.8 L162.8 123.9 L162.7 123.9 L162.6 123.9 L162.5 123.9 L162.4 124.0 L161.9 124.2 L161.7 124.3 L161.5 124.4 L161.4 124.5 L161.3 124.6 L161.2 124.7 L161.1 124.7 L161.1 124.7 L160.8 124.9 L160.8 124.9 L160.7 124.8 L160.7 124.9 L160.6 124.9 L160.5 125.0 L160.2 125.0 L160.0 125.2 L159.8 125.2 L158.4 126.1 L158.3 126.2 L158.2 126.4 L158.1 126.4 L157.9 126.5 L157.8 126.6 L157.7 126.8 L157.5 127.0 L157.4 127.1 L157.4 127.2 L157.2 127.6 L157.1 127.8 L157.2 127.9 L157.2 128.0 L157.4 128.0 L157.4 128.1 L157.5 128.1 L157.5 128.1 L157.5 128.1 L157.6 128.1 L157.6 128.1 L157.6 128.1 L157.7 128.1 L157.8 128.0 L157.8 127.8 L157.8 127.7 L157.7 127.5 L157.8 127.6 L157.8 127.7 L157.8 128.0 L157.8 128.3 L157.7 128.6 L157.7 128.9 L157.6 129.1 L157.5 129.3 L157.5 129.4 L157.5 129.4 L157.5 129.5 L157.4 129.5 L157.4 129.4 L157.4 129.4 L157.3 129.3 L157.3 129.4 L157.3 129.5 L157.4 129.6 L157.5 129.6 L157.2 129.7 L156.9 130.0 L156.8 130.0 L156.7 130.1 L156.4 130.2 L156.2 130.3 L156.1 130.4 L155.9 130.4 L155.8 130.4 L155.8 130.5 L155.7 130.6 L155.6 130.6 L155.5 130.6 L155.5 130.6 L155.4 130.7 L155.4 130.7 L155.1 130.7 L155.0 130.7 L154.9 130.8 L154.5 131.0 L154.4 131.1 L154.1 131.1 L154.1 131.1 L154.0 131.1 L153.9 131.1 L153.8 131.0 L153.6 131.0 L153.6 131.0 L153.4 131.0 L153.3 130.9 L153.3 130.9 L153.3 130.8 L153.2 130.8 L153.1 130.8 L153.2 130.9 L153.1 130.9 L152.8 130.9 L152.7 130.9 L152.4 131.0 L152.4 130.9 L152.5 130.9 L152.5 130.8 L152.4 130.8 L152.4 130.7 L152.3 130.7 L152.2 130.8 L152.2 130.8 L152.1 130.8 L152.0 130.8 L151.9 130.8 L151.8 130.8 L151.5 131.0 L151.4 131.1 L151.4 131.1 L151.5 131.2 L151.5 131.3 L151.5 131.4 L151.3 131.5 L151.3 131.8 L151.1 132.1 L151.1 132.4 L150.9 132.6 L150.9 132.7 L150.9 133.0 L150.9 133.1 L150.8 133.1 L150.5 133.4 L150.3 133.5 L150.2 133.6 L150.0 133.8 L150.0 133.9 L150.0 133.9 L150.1 134.0 L150.1 134.0 L150.1 134.1 L150.1 134.1 L150.1 134.2 L150.1 134.2 L150.0 134.1 L150.0 134.1 L149.9 134.0 L149.7 133.9 L149.7 133.9 L149.6 133.8 L149.5 133.8 L149.5 133.6 L149.5 133.5 L149.5 133.1 L149.5 133.0 L149.5 132.9 L149.4 132.7 L149.4 132.8 L149.4 132.9 L149.4 132.9 L149.4 132.9 L149.4 132.9 L149.3 132.8 L149.4 133.0 L149.4 133.3 L149.4 133.5 L149.2 133.9 L149.1 134.4 L149.0 134.5 L148.9 134.5 L148.9 134.0 L148.9 133.8 L148.8 133.6 L148.7 133.5 L148.5 133.5 L148.3 133.5 L148.2 133.5 L148.2 133.4 L148.2 133.4 L148.1 133.5 L148.1 133.5 L148.1 133.5 L147.9 133.6 L147.8 133.6 L147.7 133.6 L147.6 133.7 L147.5 133.6 L147.5 133.6 L147.4 133.7 L147.3 133.7 L147.1 133.8 L147.1 133.8 L147.0 133.9 L147.0 133.9 L147.0 133.9 L146.9 134.0 L146.8 134.0 L146.6 134.1 L146.4 134.2 L145.9 134.6 L145.8 134.8 L145.6 135.4 L145.6 135.5 L145.5 135.7 L145.5 135.7 L145.5 135.8 L145.5 135.9 L145.4 136.0 L145.3 136.1 L145.1 136.3 L145.1 136.4 L145.0 136.5 L144.9 136.9 L144.9 136.9 L144.8 137.4 L144.6 138.1 L144.6 138.5 L144.7 138.8 L144.8 138.9 L144.8 139.1 L144.9 140.0 L145.0 140.2 L145.0 140.3 L145.0 140.3 L145.1 140.4 L145.2 140.5 L145.2 140.5 L145.3 140.7 L145.3 140.8 L145.4 140.8 L145.3 140.9 L145.3 141.0 L145.3 141.0 L145.1 141.0 L145.2 141.1 L145.2 141.1 L145.4 141.0 L145.4 141.0 L145.5 141.1 L145.5 141.1 L145.4 141.1 L145.4 141.2 L145.4 141.3 L145.3 141.6 L145.4 142.1 L145.3 142.3 L145.2 142.4 L145.1 142.8 L145.1 142.8 L144.9 142.8 L144.8 142.9 L144.7 143.0 L144.7 143.0 L144.7 143.0 L144.6 143.1 L144.6 143.2 L144.8 143.1 L144.9 143.1 L144.9 143.0 L145.0 142.9 L145.1 143.0 L145.0 143.2 L145.1 143.5 L145.2 144.1 L145.3 144.4 L145.7 145.2 L145.8 145.4 L145.7 145.7 L145.6 145.9 L145.6 146.0 L145.6 146.1 L145.7 146.2 L145.8 146.6 L146.0 147.0 L146.1 147.3 L146.1 147.5 L146.1 147.5 L145.9 147.1 L145.7 146.6 L145.5 146.3 L145.4 146.1 L145.2 145.9 L145.1 145.8 L145.1 146.3 L145.1 146.5 L145.0 146.4 L145.0 146.4 L145.0 146.2 L145.0 146.1 L145.0 146.1 L144.9 146.1 L144.9 146.0 L144.9 146.2 L144.9 146.2 L144.8 146.3 L144.6 146.5 L144.7 146.6 L144.7 146.7 L144.9 146.9 L145.0 147.1 L145.0 147.1 L145.1 147.2 L145.2 147.2 L145.3 147.2 L145.6 147.2 L145.6 147.2 L145.7 147.3 L145.7 147.3 L145.8 147.3 L145.8 147.3 L145.9 147.3 L145.8 147.4 L145.9 147.5 L146.0 147.5 L146.1 147.6 L146.1 147.6 L146.1 147.6 L146.2 147.5 L146.2 147.6 L146.3 147.8 L146.3 148.0 L146.3 148.2 L146.3 148.4 L146.2 148.6 L146.2 148.6 L146.2 148.6 L146.1 148.7 L146.1 148.8 L146.1 148.8 L146.2 148.7 L146.2 148.9 L146.2 149.0 L146.1 149.1 L146.1 149.2 L146.1 149.2 L146.1 149.4 L146.1 149.4 L146.0 149.5 L146.0 149.6 L145.9 149.8 L145.9 150.2 L145.8 150.9 L145.8 151.3 L145.7 151.6 L145.6 151.8 L145.6 151.9 L145.5 152.1 L145.5 152.2 L145.4 152.4 L145.4 152.6 L145.4 152.6 L145.2 153.0 L145.0 153.3 L145.0 153.4 L144.9 153.6 L144.8 153.7 L144.7 153.8 L144.7 153.8 L144.7 153.8 L144.5 154.1 L144.4 154.2 L144.1 154.4 L144.0 154.4 L144.1 154.5 L144.2 154.4 L144.4 154.3 L144.0 154.8 L144.0 154.9 L143.9 154.9 L143.8 155.3 L143.6 155.5 L143.6 155.5 L143.5 155.6 L143.6 155.8 L143.5 155.8 L143.5 155.9 L143.5 155.9 L143.5 156.1 L143.3 156.4 L143.2 156.8 L143.2 156.9 L143.1 157.0 L143.0 157.5 L143.0 157.8 L142.9 158.0 L142.9 158.1 L143.0 158.3 L143.1 158.7 L143.1 158.9 L143.2 158.9 L143.2 158.9 L143.2 158.8 L143.2 158.8 L143.2 158.8 L143.3 158.8 L143.3 158.8 L143.3 159.1 L143.3 159.2 L143.3 159.2 L143.1 159.2 L143.1 159.2 L143.0 159.2 L143.0 159.2 L142.9 159.2 L142.9 159.3 L142.5 159.6 L142.5 159.7 L142.5 159.7 L142.6 159.6 L142.9 159.5 L142.9 159.4 L143.0 159.3 L143.1 159.3 L143.2 159.3 L143.3 159.4 L143.4 159.4 L143.4 159.4 L143.4 159.9 L143.5 160.5 L143.5 161.3 L143.5 161.5 L143.4 161.6 L143.5 162.4 L143.5 162.8 L143.5 163.7 L143.5 163.9 L143.6 164.9 L143.5 165.4 L143.5 165.4 L143.4 165.5 L143.3 165.5 L143.2 165.5 L143.1 165.5 L143.1 165.4 L143.0 165.3 L142.3 165.2 L142.2 165.2 L142.1 165.3 L142.2 165.3 L142.3 165.3 L142.4 165.3 L142.5 165.3 L142.5 165.4 L142.6 165.4 L142.7 165.4 L142.8 165.4 L143.0 165.4 L143.1 165.5 L143.0 165.6 L143.0 165.6 L141.9 165.4 L141.9 165.4 L141.8 165.4 L141.8 165.3 L141.8 165.3 L141.8 165.3 L141.9 165.3 L141.9 165.3 L142.1 165.2 L142.1 165.1 L142.0 165.1 L141.9 165.1 L141.7 165.1 L141.7 165.2 L141.7 165.2 L141.6 165.3 L141.3 165.3 L141.1 165.3 L141.0 165.2 L140.9 165.2 L140.8 165.2 L140.7 165.3 L140.4 165.5 L140.3 165.6 L140.2 165.7 L140.2 165.8 L140.2 165.9 L140.2 165.9 L140.1 166.0 L140.1 166.0 L140.0 166.0 L140.0 166.1 L140.0 166.2 L140.0 166.6 L140.1 166.7 L140.2 166.8 L140.0 167.0 L139.8 167.2 L139.5 167.7 L139.3 167.9 L139.2 168.0 L139.2 168.0 L139.2 168.2 L139.1 168.3 L138.9 168.5 L138.5 168.9 L138.5 169.0 L138.5 169.0 L138.5 169.1 L138.5 169.2 L138.4 169.2 L138.4 169.2 L138.4 169.3 L138.3 169.4 L138.3 169.5 L138.2 169.8 L138.2 170.0 L138.2 170.2 L138.3 170.4 L138.4 170.6 L138.9 171.0 L139.1 171.0 L139.3 171.1 L140.1 171.1 L140.2 171.1 L140.3 171.0 L140.5 170.9 L140.6 170.9 L140.6 171.0 L140.6 171.0 L140.6 171.1 L140.5 171.2 L140.6 171.2 L140.6 171.3 L140.6 171.3 L140.6 171.3 L140.7 171.4 L140.7 171.4 L141.1 171.7 L141.2 171.8 L141.2 171.9 L141.1 171.8 L140.7 171.5 L140.3 171.3 L140.0 171.3 L139.9 171.2 L139.8 171.2 L139.7 171.2 L139.6 171.2 L139.4 171.3 L139.2 171.3 L139.1 171.3 L139.0 171.2 L138.8 171.2 L138.6 171.2 L138.4 171.2 L138.4 171.2 L138.2 171.3 L138.2 171.3 L138.1 171.3 L138.1 171.3 L138.1 171.3 L137.9 171.3 L137.8 171.4 L137.6 171.4 L137.4 171.5 L137.3 171.5 L137.2 171.6 L137.2 171.6 L137.1 171.7 L136.8 171.7 L136.7 171.7 L136.7 171.8 L136.7 171.9 L136.6 171.9 L136.5 171.9 L135.7 172.0 L135.5 172.1 L135.3 172.2 L135.1 172.3 L134.3 172.9 L134.2 173.1 L134.0 173.4 L134.0 173.5 L134.0 173.9 L133.9 174.0 L133.9 174.1 L134.0 174.1 L134.0 174.1 L134.1 174.1 L134.2 173.9 L134.2 174.1 L134.1 174.1 L134.0 174.2 L133.9 174.3 L133.9 174.3 L133.8 174.5 L133.8 174.6 L133.7 174.6 L133.8 174.7 L133.6 174.7 L133.7 174.9 L133.8 175.1 L133.7 175.7 L133.7 175.7 L133.6 175.8 L133.5 175.9 L133.4 176.0 L133.3 176.3 L133.3 176.4 L133.2 176.4 L133.0 176.5 L131.9 177.1 L131.8 177.2 L131.6 177.4 L131.6 177.4 L130.9 177.5 L130.7 177.6 L130.5 177.8 L130.5 178.0 L130.2 178.0 L129.8 177.9 L129.1 177.7 L129.0 177.7 L128.9 177.6 L128.9 177.6 L128.8 177.5 L128.6 177.4 L128.6 177.4 L128.0 176.9 L127.9 176.8 L127.2 176.3 L127.1 176.1 L126.6 175.5 L126.3 175.2 L126.2 175.0 L125.8 174.5 L125.7 174.4 L125.5 174.2 L125.3 173.9 L125.2 173.8 L124.8 173.4 L124.7 173.2 L124.7 173.2 L124.8 173.2 L124.8 173.3 L124.9 173.3 L125.1 173.2 L125.1 173.2 L125.0 173.2 L125.0 173.2 L124.9 173.2 L124.8 173.1 L124.8 173.1 L124.9 173.0 L125.0 172.9 L125.0 172.9 L125.3 172.9 L125.3 172.9 L125.3 172.9 L125.2 172.8 L125.2 172.8 L125.2 172.8 L125.3 172.8 L125.4 172.7 L125.4 172.7 L125.3 172.7 L125.2 172.7 L125.2 172.7 L125.1 172.8 L125.1 172.8 L125.0 172.8 L124.9 172.7 L124.9 172.8 L124.8 173.0 L124.8 173.0 L124.7 172.9 L124.8 172.9 L124.8 172.9 L124.8 172.8 L124.7 172.8 L124.6 172.9 L124.6 173.0 L124.6 173.1 L124.6 173.0 L124.5 173.0 L124.5 172.9 L124.5 172.8 L124.5 172.7 L124.4 172.6 L124.4 172.4 L124.2 172.1 L124.2 172.0 L124.2 172.0 L124.2 172.0 L124.2 172.0 L124.2 172.1 L124.3 172.1 L124.3 172.0 L124.3 171.8 L124.3 171.8 L124.3 171.8 L124.2 171.9 L124.2 171.9 L124.1 171.5 L124.0 171.3 L123.9 171.3 L123.9 171.4 L124.1 171.8 L124.1 171.9 L124.1 171.9 L123.6 170.9 L123.4 169.9 L123.2 169.1 L123.3 169.0 L123.2 168.1 L123.0 167.7 L123.0 167.7 L122.9 167.4 L122.9 167.3 L123.0 167.3 L123.1 167.3 L123.2 167.5 L123.2 167.6 L123.2 167.6 L123.1 167.6 L123.0 167.6 L123.0 167.6 L123.1 167.7 L123.1 167.8 L123.2 167.8 L123.2 167.8 L123.2 167.7 L123.2 167.8 L123.2 167.8 L123.2 167.9 L123.2 167.9 L123.2 167.9 L123.3 167.9 L123.3 167.9 L123.3 167.8 L123.3 167.7 L123.4 167.8 L123.5 168.8 L123.6 168.8 L123.6 168.6 L123.5 168.3 L123.6 168.1 L123.4 167.9 L123.4 167.8 L123.5 167.8 L123.5 167.9 L123.6 168.0 L123.6 168.1 L123.6 168.2 L123.6 168.3 L123.6 168.4 L123.7 168.7 L123.7 168.8 L123.8 168.9 L123.8 169.0 L123.8 169.0 L123.7 169.1 L123.7 169.2 L123.6 169.7 L123.6 169.8 L123.7 169.8 L124.0 169.9 L124.1 169.9 L124.2 169.9 L124.3 169.9 L124.4 169.7 L124.3 169.6 L124.2 169.6 L124.1 169.5 L124.0 169.6 L124.0 169.5 L123.9 169.5 L124.0 169.4 L124.0 169.2 L123.9 169.1 L123.9 168.9 L123.9 168.8 L123.9 168.7 L123.8 168.7 L123.8 168.7 L123.8 168.6 L123.8 168.5 L123.8 168.4 L123.8 168.3 L123.7 168.3 L123.8 168.2 L123.8 168.1 L123.8 168.1 L123.8 167.9 L123.8 167.8 L123.7 167.6 L123.6 167.5 L123.4 167.3 L123.4 167.2 L123.3 167.3 L123.2 167.2 L123.1 167.0 L123.1 166.8 L123.0 166.8 L123.0 166.5 L122.9 166.5 L122.9 166.4 L122.8 166.4 L122.8 166.3 L122.8 166.4 L122.8 166.5 L122.9 166.6 L122.9 166.7 L122.9 166.9 L122.9 167.0 L123.0 167.1 L122.9 167.1 L122.8 166.9 L122.6 166.5 L122.6 166.4 L122.6 166.3 L122.6 166.2 L122.6 166.2 L122.6 166.1 L122.9 165.9 L122.9 165.9 L122.9 165.8 L123.0 165.8 L123.0 165.7 L122.9 165.7 L122.9 165.7 L122.9 165.7 L122.8 165.7 L122.8 165.6 L122.8 165.6 L122.7 165.5 L122.8 165.7 L122.8 165.8 L122.7 165.9 L122.6 166.0 L122.6 166.0 L122.5 165.9 L122.5 165.8 L122.4 165.6 L122.3 165.1 L122.2 164.9 L122.0 164.6 L122.0 164.5 L121.9 164.4 L121.9 164.1 L121.8 164.0 L121.7 163.9 L121.6 163.8 L121.6 163.6 L121.2 162.9 L121.2 162.8 L121.2 162.8 L121.2 162.7 L121.1 162.7 L121.1 162.6 L121.1 162.6 L121.2 162.6 L121.2 162.5 L121.1 162.4 L121.0 162.2 L120.9 161.7 L120.6 160.8 L120.1 159.6 L120.1 159.5 L120.1 159.5 L120.0 159.5 L120.0 159.4 L120.1 159.4 L120.1 159.3 L120.1 159.3 L120.0 159.3 L119.9 159.2 L119.8 159.0 L119.7 158.8 L119.7 158.7 L119.6 158.7 L119.5 158.7 L119.4 158.7 L119.4 158.6 L119.3 158.5 L119.3 158.4 L119.2 158.2 L119.2 158.2 L118.9 157.4 L118.8 157.2 L118.1 156.4 L118.0 156.4 L117.9 156.5 L117.9 156.5 L117.9 156.4 L117.7 156.2 L117.6 156.1 L117.7 156.0 L118.2 156.1 L118.2 156.1 L118.1 156.0 L118.1 156.0 L118.1 155.9 L118.1 155.8 L118.1 155.9 L117.9 156.0 L117.9 156.0 L117.8 156.0 L117.7 155.9 L117.6 155.9 L117.5 155.8 L117.5 155.7 L117.5 155.6 L117.7 155.6 L117.8 155.6 L117.7 155.5 L117.6 155.4 L117.6 155.4 L117.4 155.6 L117.4 155.7 L117.5 155.9 L117.3 155.7 L117.3 155.6 L117.2 155.6 L117.2 155.6 L117.2 155.6 L117.2 155.5 L117.1 155.6 L117.1 155.6 L117.1 155.6 L117.1 155.6 L117.0 155.5 L117.0 155.4 L116.9 155.2 L116.7 154.8 L116.6 154.5 L116.7 154.3 L116.7 154.3 L116.6 154.3 L116.6 154.3 L116.5 154.4 L116.5 154.4 L116.5 154.3 L116.5 154.3 L116.5 154.1 L116.4 153.9 L116.0 153.3 L116.0 153.2 L115.9 153.1 L115.9 153.1 L115.9 153.1 L115.8 153.0 L115.8 153.0 L115.8 152.9 L115.8 152.8 L115.6 152.6 L115.2 151.5 L115.2 151.4 L115.1 151.4 L115.1 151.3 L115.1 151.2 L115.1 151.1 L115.0 151.1 L115.0 151.0 L114.9 151.0 L114.9 150.9 L115.0 151.0 L115.1 151.0 L115.1 151.0 L115.2 150.8 L115.3 150.8 L115.3 150.8 L115.4 150.8 L115.5 150.7 L115.6 150.7 L115.3 150.7 L115.0 150.8 L114.9 150.8 L114.6 149.7 L114.7 149.5 L114.6 149.5 L114.6 149.4 L114.5 149.3 L114.5 149.2 L114.5 149.1 L114.5 149.1 L114.5 149.0 L114.4 148.7 L114.4 148.5 L114.3 148.1 L114.2 148.0 L114.2 147.9 L114.1 147.8 L114.2 147.7 L114.1 147.7 L114.1 147.5 L114.1 147.3 L114.1 147.5 L114.1 147.6 L114.2 147.6 L114.2 147.6 L114.2 147.5 L114.2 147.4 L114.1 147.0 L114.1 146.9 L114.0 146.5 L114.0 146.5 L114.0 146.4 L114.0 146.4 L114.0 146.4 L114.0 146.4 L114.0 146.4 L114.1 146.4 L114.1 146.4 L114.1 146.3 L114.1 146.3 L114.2 146.3 L114.2 146.3 L114.3 146.3 L114.4 146.3 L114.3 146.3 L114.3 146.3 L114.2 146.2 L114.1 146.1 L114.1 146.1 L114.2 146.0 L114.1 145.9 L114.0 146.0 L114.0 146.2 L113.9 146.0 L113.7 145.6 L113.7 145.2 L113.6 145.0 L113.5 144.8 L113.3 144.6 L113.3 144.5 L113.1 144.2 L113.0 144.1 L113.0 144.1 L113.0 143.9 L113.0 143.9 L113.0 143.8 L112.9 143.8 L112.9 143.7 L112.9 143.4 L112.9 143.3 L112.7 143.0 L112.6 142.9 L112.7 142.8 L112.7 142.9 L112.9 142.9 L113.0 142.9 L113.1 142.9 L113.0 142.8 L112.7 142.7 L112.6 142.7 L112.6 142.6 L112.5 142.3 L112.5 142.2 L112.5 142.2 L112.4 142.1 L112.4 142.0 L112.4 141.9 L112.4 141.9 L112.4 141.8 L112.3 141.6 L112.2 141.4 L112.2 141.3 L112.3 141.4 L112.3 141.5 L112.4 141.7 L112.5 141.7 L112.5 141.6 L112.5 141.6 L112.6 141.6 L112.4 141.3 L112.3 141.3 L112.3 141.3 L112.3 141.2 L112.4 141.2 L112.3 141.2 L112.3 141.2 L112.2 141.2 L112.2 141.1 L112.2 141.1 L112.2 141.0 L112.2 141.1 L112.1 141.2 L112.2 141.2 L112.1 141.3 L112.1 141.4 L112.0 141.3 L111.9 141.3 L111.9 141.2 L111.9 141.1 L111.9 141.0 L112.0 140.9 L112.1 140.8 L112.1 140.8 L112.0 140.8 L112.0 140.8 L111.9 140.8 L111.8 140.8 L111.8 140.8 L111.7 140.8 L111.7 140.7 L111.8 140.7 L111.7 140.5 L111.7 140.3 L111.6 140.2 L111.5 140.1 L111.5 140.1 L111.4 140.1 L111.3 140.2 L111.2 140.1 L111.2 140.0 L111.2 140.0 L111.1 140.0 L111.1 140.0 L111.0 140.0 L111.0 140.0 L110.8 139.9 L110.8 139.8 L110.7 139.7 L110.8 139.7 L110.9 139.7 L110.9 139.6 L110.9 139.6 L110.9 139.5 L111.0 139.5 L111.1 139.5 L111.1 139.6 L111.2 139.5 L111.2 139.4 L111.3 139.4 L111.4 139.4 L111.4 139.4 L111.5 139.4 L111.5 139.4 L111.5 139.3 L111.5 139.3 L111.5 139.3 L111.4 139.2 L111.4 139.2 L111.3 139.2 L111.1 139.3 L111.1 139.3 L111.1 139.4 L111.0 139.4 L110.9 139.5 L110.8 139.5 L110.8 139.4 L110.7 139.2 L110.7 139.2 L110.6 139.2 L110.4 139.1 L110.4 139.0 L110.4 138.9 L110.4 138.7 L110.4 138.6 L110.3 138.6 L110.2 138.6 L110.2 138.5 L110.0 138.3 L110.0 138.2 L109.7 138.2 L109.8 138.0 L109.8 137.9 L109.8 137.9 L110.0 137.8 L110.0 137.7 L109.9 137.6 L109.9 137.7 L109.6 136.7 L109.5 136.6 L109.5 136.6 L109.3 136.6 L109.2 136.5 L109.1 136.5 L109.0 136.3 L109.3 136.3 L109.3 136.3 L109.4 136.3 L109.5 136.3 L109.5 136.3 L109.6 136.3 L109.8 136.4 L109.9 136.4 L109.9 136.5 L110.0 136.5 L110.0 136.5 L110.0 136.5 L110.0 136.5 L110.0 136.4 L109.8 136.3 L109.8 136.2 L109.6 136.1 L109.5 136.1 L109.4 136.1 L109.4 136.1 L109.4 136.1 L109.3 136.1 L109.3 136.1 L109.1 136.0 L109.0 136.1 L109.0 136.0 L109.1 135.9 L109.1 135.8 L109.2 135.8 L109.2 135.8 L109.5 135.7 L109.4 135.7 L109.4 135.6 L109.4 135.6 L109.4 135.6 L109.4 135.5 L109.0 135.8 L109.0 135.8 L108.9 135.8 L108.8 135.7 L108.8 135.5 L108.7 135.4 L108.7 135.4 L108.7 135.3 L108.7 135.2 L108.7 135.2 L108.8 135.1 L108.8 135.1 L108.8 135.0 L109.0 135.0 L109.3 134.9 L109.3 134.8 L109.1 134.8 L109.0 134.9 L108.9 134.9 L108.9 134.9 L108.7 135.1 L108.7 135.1 L108.6 135.0 L108.5 134.9 L108.5 134.8 L108.4 134.7 L108.4 134.6 L108.4 134.5 L108.5 134.5 L108.4 134.5 L108.3 134.5 L108.2 134.5 L108.2 134.4 L108.2 134.3 L108.2 134.1 L108.1 134.0 L108.0 133.6 L107.9 133.5 L107.5 133.2 L107.4 133.1 L107.3 133.0 L107.3 132.8 L107.4 132.8 L107.4 132.8 L107.4 132.8 L107.3 132.8 L107.2 132.7 L107.2 132.6 L107.2 132.6 L107.1 132.6 L107.1 132.6 L107.1 132.5 L107.1 132.5 L107.1 132.5 L107.1 132.4 L107.1 132.1 L107.1 132.0 L107.2 132.0 L107.2 131.9 L107.3 131.8 L107.2 131.9 L107.1 132.0 L107.1 132.1 L107.1 132.3 L107.0 132.0 L107.0 131.8 L107.0 131.7 L107.0 131.7 L106.9 131.7 L106.9 131.7 L106.9 131.6 L106.8 131.6 L106.8 131.5 L106.7 131.0 L106.7 131.0 L106.7 130.9 L106.6 130.9 L106.6 130.8 L106.6 130.8 L106.6 130.7 L106.6 130.7 L106.7 130.6 L106.6 130.6 L106.5 130.5 L106.5 130.5 L106.4 130.3 L106.3 130.0 L106.3 130.0 L106.3 129.9 L106.2 129.9 L106.2 129.8 L106.3 129.7 L106.3 129.7 L106.3 129.8 L106.4 129.8 L106.5 129.9 L106.5 130.0 L106.7 130.0 L106.6 130.0 L106.6 129.9 L106.5 129.9 L106.5 129.9 L106.5 129.8 L106.6 129.8 L106.6 129.7 L106.5 129.7 L106.4 129.7 L106.3 129.6 L106.3 129.6 L106.3 129.5 L106.3 129.5 L106.3 129.5 L106.4 129.5 L106.4 129.5 L106.6 129.4 L106.6 129.5 L106.6 129.5 L106.6 129.5 L106.6 129.4 L106.6 129.3 L106.5 129.3 L106.4 129.3 L106.4 129.4 L106.3 129.2 L106.3 129.2 L106.3 129.2 L106.3 129.1 L106.4 129.1 L106.3 129.0 L106.3 128.9 L106.2 128.9 L106.2 128.7 L106.2 128.5 L106.2 128.4 L106.2 128.3 L106.2 128.3 L106.1 128.2 L106.1 128.1 L106.0 127.9 L106.1 127.9 L106.1 127.8 L106.0 127.6 L106.1 127.5 L106.1 127.5 L106.2 127.3 L106.0 127.2 L106.0 127.2 L106.0 127.1 L105.9 127.0 L105.9 127.0 L106.0 127.0 L106.0 127.0 L106.1 126.9 L106.1 126.8 L106.0 126.7 L106.0 126.5 L106.0 126.5 L106.0 126.4 L106.0 126.3 L105.9 126.1 L105.9 126.0 L105.8 125.8 L105.7 125.7 L105.7 125.7 L105.6 125.6 L105.6 125.5 L105.7 125.5 L105.7 125.6 L105.8 125.6 L105.9 125.6 L105.8 125.5 L105.7 125.2 L105.6 125.1 L105.5 125.0 L105.5 124.9 L105.5 124.9 L105.5 124.8 L105.6 124.7 L105.5 124.6 L105.5 124.5 L105.5 124.4 L105.3 124.2 L105.2 124.1 L105.2 124.0 L105.3 124.0 L105.4 124.0 L105.4 124.0 L105.7 123.9 L105.6 123.9 L105.4 123.8 L105.3 123.8 L105.2 123.7 L105.2 123.7 L105.2 123.6 L105.2 123.5 L105.2 123.5 L105.1 123.4 L105.1 123.3 L105.1 123.2 L105.2 123.2 L105.2 123.1 L105.2 123.0 L105.2 123.0 L105.1 122.9 L105.1 122.8 L105.1 122.7 L105.0 122.6 L105.0 122.5 L104.9 122.4 L104.9 122.2 L104.6 121.8 L104.6 121.7 L104.7 121.6 L104.6 121.6 L104.6 121.5 L104.5 121.5 L104.6 121.4 L104.6 121.3 L104.7 121.3 L104.8 121.3 L104.8 121.2 L104.7 121.2 L104.6 121.2 L104.6 121.3 L104.6 121.3 L104.5 121.2 L104.4 121.2 L104.4 121.1 L104.4 121.1 L104.4 121.0 L104.4 121.0 L104.4 120.9 L104.4 120.9 L104.4 120.9 L104.3 120.4 L104.3 120.3 L104.1 120.3 L104.1 120.1 L104.2 120.1 L104.1 120.1 L104.1 120.0 L104.1 120.0 L104.2 119.9 L104.2 119.9 L104.3 120.0 L104.3 120.0 L104.3 120.1 L104.4 120.1 L104.4 120.2 L104.4 120.1 L104.5 120.1 L104.6 120.2 L104.7 120.2 L104.8 120.2 L104.9 120.3 L104.8 120.4 L104.8 120.5 L104.8 120.5 L104.9 120.4 L104.9 120.3 L104.9 120.1 L104.9 120.0 L104.8 119.9 L104.8 119.9 L104.6 119.9 L104.5 119.9 L104.4 119.9 L104.3 119.8 L104.4 119.7 L104.3 119.7 L104.2 119.6 L104.1 119.5 L104.1 119.5 L104.1 119.5 L104.0 119.5 L104.0 119.5 L104.0 119.4 L104.0 119.4 L104.0 119.4 L104.0 119.3 L104.0 119.3 L104.0 119.2 L103.9 119.2 L103.9 119.1 L103.9 119.0 L103.9 118.8 L103.9 118.7 L104.0 118.6 L104.1 118.5 L104.2 118.5 L104.3 118.6 L104.5 118.9 L104.6 119.0 L104.6 118.9 L104.5 118.8 L104.4 118.8 L104.4 118.6 L104.4 118.6 L104.3 118.5 L104.3 118.4 L104.2 118.4 L104.1 118.4 L104.0 118.4 L104.0 118.3 L103.8 117.9 L103.7 117.8 L103.7 117.7 L103.7 117.4 L103.7 117.2 L103.7 117.1 L103.7 117.0 L103.8 116.9 L103.9 116.9 L104.0 117.0 L104.0 117.0 L104.1 116.8 L104.2 116.9 L104.4 117.1 L104.3 117.2 L104.3 117.3 L104.4 117.3 L104.5 117.4 L104.4 117.2 L104.5 117.1 L104.5 117.0 L104.6 116.9 L104.4 116.8 L104.4 116.8 L104.4 116.7 L104.4 116.7 L104.4 116.6 L104.4 116.6 L104.4 116.6 L104.4 116.6 L104.3 116.6 L104.3 116.6 L104.3 116.6 L104.2 116.7 L104.0 116.6 L103.9 116.4 L104.0 116.3 L104.1 116.4 L104.1 116.3 L104.2 116.1 L104.2 116.1 L104.3 116.1 L104.4 116.1 L104.4 116.1 L104.2 116.1 L104.2 116.0 L104.3 116.0 L104.5 115.9 L104.8 115.9 L104.8 115.9 L104.8 115.8 L104.7 115.7 L104.6 115.8 L104.4 115.9 L104.4 115.8 L104.4 115.6 L104.4 115.6 L104.5 115.5 L104.4 115.4 L104.4 115.4 L104.3 115.3 L104.4 114.9 L104.3 114.9 L104.2 115.1 L104.1 115.2 L104.1 115.4 L104.1 115.5 L104.2 115.5 L104.1 115.7 L103.9 115.9 L103.9 115.8 L103.9 115.7 L103.8 115.8 L103.7 115.9 L103.6 116.1 L103.5 116.3 L103.5 116.4 L103.4 116.4 L103.4 116.4 L103.4 116.3 L103.4 116.2 L103.4 116.2 L103.4 116.1 L103.4 116.1 L103.3 116.1 L103.3 116.2 L103.2 116.2 L103.2 116.1 L103.2 116.1 L103.4 115.9 L103.4 115.9 L103.4 115.8 L103.4 115.6 L103.4 115.6 L103.5 115.7 L103.5 115.6 L103.5 115.5 L103.5 115.5 L103.4 115.5 L103.5 115.3 L103.5 115.2 L103.5 115.2 L103.4 115.1 L103.4 115.0 L103.4 115.0 L103.5 114.9 L103.5 114.9 L103.5 114.9 L103.4 114.9 L103.4 114.9 L103.4 115.0 L103.3 115.0 L103.3 115.0 L103.3 114.9 L103.3 114.9 L103.4 114.6 L103.5 114.5 L103.5 114.4 L103.5 114.4 L103.4 114.5 L103.3 114.6 L103.2 114.7 L103.2 114.3 L103.2 114.1 L103.3 114.1 L103.6 114.0 L103.8 114.0 L103.9 114.2 L103.9 114.2 L104.1 114.2 L104.2 114.2 L104.3 114.2 L104.4 114.2 L104.4 114.3 L104.6 114.6 L104.7 114.7 L104.8 114.6 L104.7 114.6 L104.7 114.5 L104.7 114.4 L104.6 114.3 L104.6 114.3 L104.5 114.2 L104.4 114.1 L104.3 114.1 L104.0 114.1 L103.9 114.1 L103.8 114.0 L103.7 113.9 L103.6 113.9 L103.5 114.0 L103.4 114.0 L103.3 113.9 L103.2 113.7 L103.1 113.6 L103.1 113.3 L103.1 113.2 L103.1 113.1 L103.2 113.1 L103.8 112.8 L103.7 112.8 L103.6 112.8 L103.5 112.8 L103.4 112.9 L103.3 112.8 L103.3 112.8 L103.2 112.7 L103.2 112.7 L103.2 112.6 L103.1 112.6 L103.0 112.5 L103.0 112.5 L103.0 112.6 L103.0 112.7 L103.0 112.7 L103.0 112.7 L103.1 112.8 L103.1 112.9 L103.1 112.9 L103.1 112.9 L103.0 112.9 L102.9 112.8 L102.9 112.5 L102.9 112.4 L102.9 112.2 L102.7 111.7 L102.8 111.8 L102.8 111.8 L102.8 111.8 L102.8 111.9 L103.0 111.8 L103.0 111.8 L102.9 111.7 L102.9 111.6 L102.9 111.6 L102.9 111.6 L103.0 111.6 L103.0 111.5 L103.0 111.5 L103.0 111.4 L103.0 111.3 L102.7 111.6 L102.7 111.6 L102.7 111.5 L102.7 111.3 L102.7 111.2 L102.5 111.1 L102.5 111.0 L102.6 110.9 L102.6 110.8 L102.6 110.6 L102.6 110.5 L102.6 110.4 L102.7 110.4 L102.7 110.4 L102.8 110.3 L102.8 110.2 L102.8 110.1 L102.8 109.8 L102.9 109.7 L103.0 109.4 L103.0 109.2 L103.0 109.1 L103.1 109.0 L103.1 108.9 L103.1 108.9 L103.1 108.9 L103.1 108.9 L103.0 108.9 L103.0 108.8 L103.1 108.8 L103.1 108.6 L103.1 108.5 L103.2 108.4 L103.2 108.3 L103.3 108.2 L103.3 108.2 L103.4 108.1 L103.4 108.1 L103.5 108.0 L103.5 108.0 L103.5 107.8 L103.5 107.7 L103.6 107.5 L103.8 107.2 L103.9 107.1 L103.9 107.0 L103.9 106.9 L103.9 106.8 L103.9 106.7 L103.9 106.6 L103.9 106.6 L104.0 106.5 L104.0 106.4 L104.0 106.2 L104.0 106.1 L103.9 106.0 L104.2 105.8 L104.2 105.8 L104.2 105.8 L104.2 105.7 L104.1 105.7 L104.1 105.7 L104.1 105.6 L104.1 105.6 L104.1 105.5 L104.1 105.5 L103.9 105.6 L103.9 105.6 L103.8 105.4 L103.9 105.3 L103.9 105.2 L103.9 105.2 L103.8 105.2 L103.8 105.3 L103.6 105.4 L103.6 105.3 L103.7 105.1 L103.7 105.1 L103.6 104.9 L103.7 104.8 L103.9 104.7 L103.9 104.6 L103.8 104.6 L103.7 104.6 L103.6 104.6 L103.5 104.6 L103.5 104.5 L103.5 104.5 L103.4 104.4 L103.4 104.4 L103.3 104.4 L103.3 104.4 L103.2 104.3 L103.2 104.3 L103.3 104.2 L103.5 104.3 L103.6 104.3 L103.7 104.2 L103.5 103.8 L103.4 103.7 L103.4 103.7 L103.1 103.8 L103.1 103.8 L103.1 103.8 L103.0 103.8 L103.0 103.8 L103.0 103.8 L103.0 103.9 L103.0 104.0 L102.8 104.0 L102.8 103.9 L102.9 103.7 L103.0 103.6 L102.9 103.5 L102.8 103.6 L102.7 103.6 L102.7 103.6 L102.7 103.6 L102.6 103.7 L102.7 103.8 L102.6 103.9 L102.6 103.9 L102.6 103.9 L102.5 104.0 L102.4 104.0 L102.3 103.9 L102.3 103.8 L102.4 103.7 L102.8 103.5 L102.9 103.4 L102.9 103.3 L103.0 103.3 L102.9 103.3 L102.7 103.2 L102.7 103.2 L102.7 103.1 L102.6 103.1 L102.5 103.0 L102.5 102.9 L102.4 103.0 L102.3 103.0 L102.3 103.0 L102.2 102.9 L102.2 102.7 L102.2 102.6 L102.2 102.5 L102.2 102.5 L102.3 102.5 L102.5 102.4 L102.5 102.4 L102.5 102.4 L102.4 102.4 L102.2 102.4 L102.1 102.4 L102.1 102.3 L102.0 102.3 L102.1 102.3 L102.4 102.2 L102.7 102.0 L102.7 102.0 L103.0 101.8 L103.1 101.9 L103.1 101.8 L103.1 101.7 L103.0 101.7 L102.7 101.8 L102.6 101.9 L102.3 102.1 L102.1 102.1 L102.2 102.0 L102.3 101.7 L102.4 101.6 L102.5 101.6 L102.7 101.4 L102.8 101.4 L103.0 101.3 L103.1 101.3 L103.2 101.2 L103.3 101.1 L103.4 100.9 L103.5 100.8 L103.6 100.8 L103.7 100.8 L103.8 100.8 L103.9 100.8 L104.1 100.7 L104.3 100.6 L104.6 100.5 L105.0 100.3 L105.1 100.3 L105.2 100.3 L105.2 100.2 L105.3 100.2 L105.2 100.1 L105.2 100.1 L105.0 100.2 L104.8 100.3 L104.7 100.3 L104.6 100.4 L104.6 100.4 L104.5 100.4 L104.2 100.5 L104.1 100.6 L103.8 100.5 L103.7 100.5 L103.6 100.6 L103.5 100.6 L103.4 100.6 L103.1 100.6 L103.0 100.6 L102.7 100.6 L102.5 100.6 L102.4 100.6 L102.3 100.6 L102.1 100.7 L102.0 100.7 L101.9 100.6 L101.8 100.5 L101.9 100.4 L102.0 100.2 L102.0 100.1 L102.0 99.7 L102.0 99.6 L102.2 99.6 L102.2 99.5 L102.3 99.2 L102.4 99.1 L102.5 99.1 L102.7 99.1 L102.8 99.1 L102.8 99.0 L102.9 98.9 L103.0 98.9 L103.0 98.8 L103.0 98.8 L102.9 98.8 L102.9 98.8 L102.8 98.8 L102.8 98.8 L102.8 98.9 L102.8 98.9 L102.8 98.9 L102.4 99.0 L102.3 99.0 L102.3 99.1 L102.1 99.2 L102.0 99.3 L101.9 99.3 L101.9 99.2 L101.7 99.0 L101.7 98.9 L101.7 98.8 L101.8 98.6 L101.8 98.5 L101.8 98.4 L101.8 98.3 L101.8 98.3 L101.8 98.2 L101.9 98.1 L101.9 98.0 L101.9 97.9 L102.0 97.8 L102.1 97.7 L102.2 97.6 L102.3 97.6 L102.4 97.6 L102.5 97.6 L102.6 97.7 L102.7 97.7 L102.8 97.7 L102.8 97.7 L102.8 97.7 L102.9 97.7 L103.0 97.8 L103.1 97.8 L103.3 97.5 L103.4 97.4 L103.6 97.4 L103.7 97.5 L103.8 97.5 L103.9 97.6 L104.0 97.5 L104.1 97.4 L104.1 97.3 L104.0 97.2 L104.0 97.2 L103.9 97.2 L103.9 97.3 L103.8 97.3 L103.7 97.2 L103.6 97.2 L103.5 97.2 L103.4 97.3 L103.3 97.3 L103.1 97.4 L103.0 97.4 L102.6 97.2 L102.5 97.2 L102.4 97.2 L102.4 97.2 L102.3 97.2 L102.2 97.1 L102.1 97.1 L102.0 97.2 L101.8 97.3 L101.7 97.4 L101.5 97.5 L101.5 97.5 L101.4 97.4 L101.4 97.4 L101.5 97.3 L101.5 97.3 L101.4 97.3 L101.3 97.3 L101.2 97.4 L101.1 97.3 L101.0 97.3 L101.0 97.1 L101.0 97.0 L101.0 96.9 L101.1 96.9 L101.1 96.8 L101.1 96.7 L100.9 96.8 L100.9 96.8 L100.8 96.9 L100.8 97.1 L100.7 97.2 L100.7 97.3 L100.6 97.3 L100.5 97.3 L100.4 97.3 L100.3 97.2 L100.3 97.1 L100.3 97.1 L100.2 97.1 L100.1 97.1 L100.0 97.1 L100.0 97.1 L100.0 97.2 L99.7 97.2 L99.7 97.2 L99.8 97.3 L99.9 97.4 L100.0 97.3 L100.2 97.1 L100.2 97.2 L100.2 97.3 L100.2 97.3 L100.2 97.4 L100.2 97.4 L100.3 97.5 L100.6 97.5 L100.6 97.7 L100.6 98.3 L100.5 98.4 L100.5 98.5 L100.5 98.5 L100.4 98.5 L100.4 98.6 L100.4 98.6 L100.3 98.7 L100.2 98.7 L100.2 98.7 L100.1 98.7 L100.1 98.7 L100.0 98.8 L100.0 98.8 L100.0 98.7 L99.9 98.8 L99.9 98.8 L99.9 98.9 L99.9 98.9 L99.8 98.9 L99.8 98.9 L99.7 98.9 L99.7 98.8 L99.6 98.8 L99.5 98.7 L99.4 98.7 L99.5 98.8 L99.6 98.9 L99.5 98.9 L99.5 99.0 L99.3 98.9 L99.3 98.9 L99.4 99.0 L99.4 99.1 L99.4 99.1 L99.4 99.1 L99.3 99.1 L99.2 99.0 L99.1 99.0 L99.0 99.1 L99.0 99.1 L99.3 99.2 L99.4 99.2 L99.6 99.2 L99.7 99.2 L99.6 99.2 L99.6 99.3 L99.7 99.3 L99.7 99.4 L99.8 99.4 L99.8 99.5 L99.7 99.5 L99.7 99.6 L99.8 99.7 L99.7 99.7 L99.6 99.7 L99.5 99.6 L99.5 99.5 L99.4 99.5 L99.3 99.4 L99.2 99.4 L99.1 99.5 L99.1 99.5 L99.2 99.5 L99.2 99.5 L99.3 99.5 L99.3 99.5 L99.4 99.7 L99.3 99.7 L99.2 99.7 L98.8 99.6 L98.8 99.6 L98.8 99.7 L98.8 99.8 L98.8 99.9 L98.8 100.0 L98.9 100.0 L98.9 99.9 L98.9 99.9 L98.9 100.0 L98.9 100.0 L98.9 100.1 L99.1 100.0 L99.2 100.0 L99.3 100.0 L99.4 100.1 L99.5 100.1 L99.8 100.0 L99.8 100.0 L99.8 100.0 L99.8 100.1 L99.9 100.2 L100.0 100.2 L100.0 100.2 L100.0 100.4 L100.1 100.5 L100.1 100.5 L100.1 100.5 L100.2 100.5 L100.3 100.5 L100.3 100.5 L100.4 100.5 L100.4 100.6 L100.4 100.7 L100.5 100.7 L100.5 100.8 L100.5 100.8 L100.5 100.9 L100.5 100.9 L100.5 101.0 L100.5 101.0 L100.4 101.1 L100.4 101.1 L100.2 101.7 L100.1 101.9 L99.8 102.2 L99.7 102.3 L99.7 102.4 L99.5 102.6 L99.4 102.7 L99.4 102.7 L99.5 102.8 L99.4 102.8 L99.4 102.8 L99.4 102.9 L99.4 103.0 L99.4 103.0 L99.3 103.0 L99.4 103.1 L99.4 103.2 L99.4 103.3 L99.3 103.4 L99.3 103.4 L99.3 103.4 L99.2 103.4 L99.2 103.5 L99.1 103.5 L98.8 103.7 L98.7 103.7 L98.4 103.7 L97.7 104.1 L97.6 104.2 L97.5 104.3 L97.4 104.3 L97.3 104.3 L97.2 104.3 L97.1 104.3 L97.0 104.4 L96.8 104.5 L96.5 104.7 L96.3 104.7 L96.3 104.7 L96.3 104.6 L96.4 104.6 L96.3 104.6 L96.2 104.7 L95.9 104.9 L95.9 104.9 L95.9 105.0 L95.8 105.1 L95.3 105.3 L94.9 105.3 L93.9 105.8 L93.8 105.8 L93.8 105.8 L93.7 105.8 L93.6 105.9 L93.5 105.9 L93.5 106.0 L93.4 105.9 L93.3 105.9 L93.2 105.9 L93.2 106.0 L93.1 106.1 L93.0 106.1 L93.0 106.1 L92.6 106.1 L92.2 106.2 L92.1 106.2 L92.0 106.1 L91.9 106.1 L91.9 106.0 L91.8 106.0 L91.7 106.1 L91.7 106.1 L91.6 106.0 L91.4 105.9 L90.6 105.6 L90.5 105.6 L90.2 105.4 L90.1 105.3 L90.0 105.3 L89.8 105.1 L89.7 105.0 L89.4 104.9 L89.2 104.7 L88.9 104.6 L88.3 104.0 L87.8 103.6 L87.4 103.1 L87.3 103.0 L87.3 103.0 L87.2 102.9 L86.9 102.7 L86.6 102.3 L86.4 102.0 L86.4 101.8 L86.2 101.8 L86.1 101.7 L86.1 101.7 L85.3 101.0 L85.0 100.8 L84.9 100.7 L84.7 100.5 L84.6 100.4 L84.5 100.2 L84.3 100.1 L84.2 100.0 L84.0 99.8 L84.0 99.7 L84.0 99.6 L84.0 99.5 L83.8 99.6 L83.8 99.6 L83.7 99.6 L83.1 99.1 L83.0 99.0 L82.9 98.9 L82.6 98.5 L82.4 98.4 L82.3 98.3 L82.3 98.2 L82.0 97.9 L81.8 97.7 L81.7 97.6 L81.6 97.4 L81.5 97.2 L81.4 97.1 L81.4 97.0 L81.5 96.9 L81.5 96.8 L81.6 96.7 L81.6 96.6 L81.6 96.5 L81.7 96.4 L81.7 96.3 L81.8 96.3 L82.0 96.1 L82.2 96.0 L82.2 96.0 L82.2 96.1 L82.2 96.2 L82.2 96.2 L82.1 96.3 L82.0 96.3 L82.1 96.5 L82.2 96.5 L82.3 96.5 L82.3 96.5 L82.4 96.5 L82.5 96.4 L82.5 96.4 L82.6 96.5 L82.6 96.5 L82.6 96.5 L82.7 96.4 L82.8 96.3 L82.8 96.4 L82.9 96.4 L82.9 96.5 L82.8 96.7 L82.8 96.8 L82.7 96.9 L82.7 97.0 L82.8 97.1 L83.0 97.2 L83.0 97.2 L83.4 97.2 L83.7 97.0 L83.7 96.9 L83.8 96.9 L84.2 96.9 L84.4 96.9 L84.5 96.8 L84.5 96.8 L84.6 96.7 L84.6 96.7 L84.6 96.7 L84.7 96.6 L84.7 96.6 L84.7 96.6 L84.7 96.5 L84.7 96.4 L84.7 96.3 L84.7 96.2 L84.7 96.2 L84.8 96.2 L84.8 96.2 L84.9 96.2 L84.9 96.4 L85.0 96.6 L84.9 96.6 L85.0 96.7 L85.2 96.7 L85.3 96.8 L85.3 96.7 L85.3 96.7 L85.3 96.6 L85.4 96.6 L85.4 96.6 L85.5 96.6 L85.5 96.5 L85.5 96.5 L85.5 96.5 L85.6 96.5 L85.6 96.4 L85.6 96.5 L85.7 96.5 L85.7 96.5 L85.8 96.4 L85.9 96.1 L85.9 96.0 L86.0 96.1 L86.2 96.4 L86.3 96.4 L86.3 96.4 L86.4 96.3 L86.4 96.3 L86.4 96.2 L86.5 96.1 L86.5 96.1 L86.6 96.1 L86.7 96.1 L86.8 96.1 L86.9 96.0 L87.2 95.7 L87.3 95.7 L87.3 95.7 L87.4 95.7 L87.5 95.7 L87.6 95.6 L87.8 95.6 L88.3 95.7 L88.5 95.6 L88.5 95.5 L88.6 95.3 L88.8 95.1 L89.0 94.8 L89.3 94.4 L89.3 94.3 L89.3 94.2 L89.3 94.1 L89.3 94.1 L89.4 94.0 L89.6 93.6 L89.6 93.6 L89.7 93.5 L89.9 93.3 L90.0 93.3 L90.1 93.3 L90.1 93.3 L90.2 93.3 L90.3 93.3 L90.3 93.2 L90.4 93.1 L90.4 93.1 L90.4 93.0 L90.5 92.8 L90.4 92.7 L90.4 92.6 L90.3 92.5 L90.2 92.4 L90.1 92.4 L90.1 92.4 L90.0 92.5 L89.8 92.6 L89.7 92.7 L89.7 92.8 L89.7 92.8 L89.7 92.9 L89.8 93.0 L89.7 93.1 L89.7 93.1 L89.7 93.2 L89.7 93.3 L89.7 93.4 L89.7 93.4 L89.7 93.4 L89.6 93.4 L89.5 93.4 L89.5 93.5 L89.4 93.5 L89.4 93.5 L89.4 93.5 L89.3 93.4 L89.3 93.4 L89.3 93.4 L89.3 93.4 L89.2 93.4 L89.2 93.4 L89.2 93.4 L89.2 93.4 L89.1 93.4 L89.1 93.4 L89.0 93.3 L88.9 93.3 L88.9 93.2 L88.8 93.1 L88.8 93.2 L88.7 93.3 L88.6 93.4 L88.5 93.4 L88.4 93.4 L88.4 93.4 L88.4 93.4 L88.3 93.3 L88.3 93.3 L88.3 93.3 L88.3 93.3 L88.2 93.3 L88.2 93.3 L88.2 93.2 L88.2 93.2 L88.2 93.1 L88.1 93.3 L88.1 93.4 L88.2 93.4 L88.2 93.5 L88.1 93.5 L87.8 93.6 L87.4 93.7 L87.1 93.7 L86.8 93.8 L86.6 93.9 L86.5 93.9 L86.3 94.0 L86.2 94.1 L86.1 94.2 L85.9 94.5 L85.8 94.5 L85.7 94.5 L85.5 94.5 L85.1 94.5 L85.0 94.4 L84.9 94.4 L84.9 94.3 L84.7 94.3 L84.6 94.3 L84.5 94.3 L84.5 94.3 L84.5 94.3 L84.4 94.3 L84.2 94.2 L84.1 94.2 L83.9 94.1 L83.7 94.0 L83.1 94.0 L82.9 93.9 L82.5 93.7 L82.0 93.4 L81.0 93.0 L80.0 92.3 L79.8 92.2 L79.8 92.2 L79.8 92.2 L79.8 92.1 L79.8 92.1 L79.6 92.0 L79.5 91.9 L79.5 91.8 L79.5 91.7 L79.5 91.7 L79.5 91.8 L79.6 91.7 L79.6 91.6 L79.6 91.6 L79.5 91.6 L79.4 91.6 L79.2 91.6 L79.1 91.5 L79.3 91.3 L79.3 91.3 L79.5 91.3 L79.5 91.2 L79.5 91.2 L79.4 91.2 L79.4 91.1 L79.3 91.1 L79.3 91.1 L79.3 91.0 L79.3 91.0 L79.2 91.0 L79.2 91.0 L79.2 91.1 L79.1 91.1 L79.1 91.0 L79.0 91.0 L79.0 90.9 L79.0 90.9 L79.0 90.8 L79.0 90.8 L79.1 90.7 L79.1 90.7 L79.1 90.7 L79.1 90.7 L79.0 90.7 L79.0 90.7 L78.9 90.7 L78.9 90.7 L78.9 90.8 L78.8 90.8 L78.7 90.8 L78.7 90.7 L78.7 90.6 L78.7 90.6 L78.6 90.6 L78.6 90.6 L78.5 90.6 L78.5 90.6 L78.5 90.4 L78.6 90.3 L78.7 90.2 L78.8 90.2 L78.8 90.1 L78.8 90.1 L78.7 90.1 L78.7 90.1 L78.6 90.1 L78.6 90.0 L78.6 90.0 L78.6 90.1 L78.6 90.2 L78.6 90.2 L78.5 90.3 L78.4 90.3 L78.4 90.2 L78.4 90.0 L78.4 89.7 L78.4 89.6 L78.5 89.5 L78.7 89.6 L78.9 89.6 L78.9 89.5 L78.8 89.4 L78.8 89.5 L78.7 89.4 L78.7 89.4 L78.7 89.3 L78.8 89.3 L78.9 89.3 L79.0 89.2 L79.1 89.2 L79.1 89.2 L79.2 89.1 L79.4 88.9 L79.5 88.8 L79.7 88.8 L79.8 88.5 L79.9 88.5 L79.9 88.4 L80.1 88.5 L80.2 88.4 L80.3 88.4 L80.4 88.3 L80.4 88.3 L80.7 88.1 L80.6 88.1 L80.5 88.1 L80.4 88.1 L80.3 88.2 L80.1 88.3 L80.0 88.3 L79.8 88.3 L79.7 88.4 L79.6 88.4 L79.5 88.6 L79.5 88.6 L79.4 88.7 L79.2 88.7 L79.1 88.8 L79.1 88.8 L79.0 88.9 L78.8 88.9 L78.6 89.0 L78.5 89.0 L78.4 89.1 L78.0 89.5 L78.1 89.6 L78.1 89.6 L78.1 89.7 L78.0 89.7 L77.9 89.8 L77.9 89.8 L77.8 89.7 L77.7 89.7 L77.4 89.7 L77.1 89.7 L77.0 89.7 L76.9 89.6 L76.9 89.5 L77.0 89.5 L77.0 89.5 L77.1 89.5 L77.1 89.5 L77.1 89.5 L77.1 89.5 L77.1 89.4 L77.1 89.4 L77.2 89.4 L77.2 89.3 L77.3 89.3 L77.3 89.3 L77.3 89.3 L77.4 89.4 L77.4 89.4 L77.4 89.4 L77.5 89.3 L77.5 89.3 L77.6 89.3 L77.7 89.2 L77.5 89.3 L77.4 89.3 L77.4 89.2 L77.3 89.2 L77.3 89.1 L77.2 89.0 L77.2 88.9 L77.2 88.8 L77.2 88.7 L77.1 88.7 L77.1 88.8 L77.0 88.8 L77.0 88.8 L77.0 88.7 L77.1 88.5 L77.1 88.4 L77.1 88.3 L77.1 88.3 L77.1 88.3 L77.2 88.1 L77.3 88.1 L77.4 88.0 L77.4 88.0 L77.4 88.0 L77.5 88.0 L77.5 88.0 L77.5 88.0 L77.5 88.0 L77.5 88.0 L77.5 87.9 L77.5 87.9 L77.5 87.9 L77.5 87.8 L77.6 87.8 L77.6 87.8 L77.6 87.8 L77.7 87.8 L77.7 87.9 L77.8 87.9 L77.9 87.9 L77.9 87.8 L78.0 87.7 L78.0 87.7 L77.9 87.6 L77.9 87.6 L78.0 87.6 L78.1 87.6 L78.1 87.6 L78.1 87.7 L78.1 87.7 L78.3 87.6 L78.5 87.6 L79.2 87.6 L79.7 87.6 L80.2 87.6 L80.2 86.8 L80.2 86.2 L80.2 85.8 L80.3 85.5 L80.6 85.5 L80.7 85.6 L80.7 86.0 L80.8 86.1 L80.9 86.0 L81.1 85.7 L81.1 85.7 L81.1 85.6 L81.1 85.6 L81.2 85.6 L81.3 85.6 L81.3 85.6 L81.4 85.7 L81.5 85.9 L81.5 85.9 L81.6 85.9 L81.8 85.9 L82.0 85.8 L82.1 85.8 L82.3 85.8 L82.6 85.9 L82.7 86.0 L82.9 85.9 L83.4 85.8 L85.0 85.8 L85.1 85.9 L85.6 86.3 L85.8 86.4 L86.1 86.5 L87.3 86.5 L87.5 86.4 L87.7 86.3 L87.8 86.1 L87.9 85.8 L88.0 85.7 L88.1 85.7 L88.3 85.7 L88.6 85.5 L88.7 85.5 L88.8 85.5 L89.0 85.4 L89.1 85.3 L89.5 85.3 L89.6 85.3 L89.8 85.1 L90.4 85.0 L90.6 85.0 L90.7 85.1 L90.7 85.2 L90.6 85.2 L90.6 85.3 L90.5 85.3 L90.6 85.5 L90.6 85.8 L90.7 85.8 L90.8 85.9 L91.0 86.0 L91.7 86.1 L91.9 86.1 L92.1 86.0 L92.2 85.9 L92.3 85.9 L92.3 85.9 L92.2 85.8 L92.2 85.7 L92.3 85.6 L92.7 85.3 L92.8 85.3 L92.9 85.3 L93.0 85.4 L93.1 85.4 L93.2 85.3 L93.2 85.3 L93.3 85.2 L93.5 85.1 L93.6 85.1 L93.6 84.9 L93.4 84.9 L93.1 84.8 L93.0 84.8 L93.0 84.7 L93.0 84.7 L93.0 84.6 L93.0 84.6 L93.0 84.5 L93.0 84.4 L93.0 84.4 L93.0 84.4 L93.0 84.3 L92.9 84.2 L92.9 84.1 L92.9 83.9 L93.0 83.8 L93.4 83.6 L93.5 83.5 L93.5 83.5 L93.3 83.3 L93.2 82.8 L92.8 82.3 L92.7 82.0 L92.5 81.7 L92.3 80.9 L92.3 80.8 L92.2 80.7 L91.8 80.4 L91.6 80.2 L91.6 80.1 L91.5 79.9 L91.5 79.8 L91.3 79.6 L91.2 79.5 L91.1 79.3 L91.2 78.6 L91.2 78.1 L91.2 77.9 L91.0 77.7 L90.8 77.7 L90.6 77.7 L90.4 77.8 L90.2 77.9 L89.5 77.9 L89.2 77.8 L88.9 77.7 L88.9 77.7 L88.8 77.6 L88.7 77.2 L88.6 77.1 L88.3 76.9 L88.1 76.7 L87.9 76.4 L87.8 76.1 L87.8 76.0 L87.9 75.8 L87.9 75.6 L87.9 75.5 L88.2 75.0 L88.3 74.8 L88.3 74.6 L88.3 74.3 L88.3 74.2 L88.3 74.1 L88.3 74.0 L88.4 73.9 L88.3 73.7 L88.4 73.2 L88.3 73.0 L88.2 72.8 L88.0 72.7 L87.8 72.7 L86.4 72.7 L86.1 72.6 L85.7 72.3 L85.5 72.2 L84.6 71.8 L84.4 71.7 L84.4 71.4 L84.5 70.8 L84.6 70.0 L84.8 69.6 L85.0 69.3 L85.5 68.8 L85.9 68.6 L86.6 68.0 L86.9 67.5 L87.4 67.1 L87.5 66.9 L88.0 65.8 L88.0 65.7 L88.5 65.3 L88.6 65.2 L89.0 65.0 L89.3 64.6 L89.4 64.6 L89.5 64.6 L89.7 64.5 L89.9 64.4 L90.0 64.4 L90.2 64.4 L90.3 64.5 L90.5 64.6 L90.6 64.7 L90.8 64.8 L91.0 65.0 L91.0 65.0 L91.1 65.1 L91.1 65.4 L91.1 65.5 L91.3 65.8 L91.5 66.1 L91.8 66.3 L92.2 66.3 L92.6 66.2 L93.3 66.0 L94.0 65.7 L94.4 65.5 L94.9 65.4 L95.4 65.4 L95.8 65.4 L96.3 65.4 L97.1 65.2 L98.0 64.9 L98.1 64.9 L98.1 64.8 L98.2 64.1 L98.2 64.0 L98.3 63.9 L98.8 63.3 L99.5 62.8 L99.7 62.6 L99.8 62.4 L99.9 62.1 L100.3 61.0 L100.4 60.7 L100.8 60.3 L101.0 60.2 L101.8 59.8 L102.6 59.5 L103.2 59.2 L104.0 58.8 L104.0 58.8 L104.1 58.7 L104.3 58.3 L104.4 58.1 L104.8 57.7 L105.2 56.9 L105.5 56.4 L105.8 55.9 L106.1 55.1 L106.4 54.4 L106.6 53.7 L106.7 53.6 L107.7 53.2 L108.7 53.0 L108.9 52.9 L109.9 52.2 L109.9 52.1 L109.9 52.0 L109.8 51.8 L109.7 51.5 L109.6 51.4 L109.3 51.3 L109.3 51.2 L109.4 51.1 L109.4 51.1 L109.6 51.0 L109.7 51.0 L109.7 51.0 L109.6 50.9 L109.6 50.9 L109.7 50.9 L109.8 50.9 L109.9 50.8 L110.1 50.5 L110.2 50.4 L110.2 50.4 L110.5 50.3 L110.5 50.2 L110.6 50.1 L110.5 50.0 L110.5 49.9 L110.6 49.8 L110.7 49.7 L110.7 49.6 L110.8 49.6 L111.0 49.5 L111.1 49.5 L111.1 49.5 L111.2 49.4 L111.2 49.4 L111.3 49.3 L111.3 49.2 L111.3 49.1 L111.4 49.1 L111.5 48.9 L111.6 48.9 L111.7 48.8 L111.7 48.8 L111.7 48.7 L111.7 48.6 L111.7 48.6 L111.8 48.6 L111.9 48.5 L112.0 48.4 L111.9 48.3 L112.0 48.2 L112.0 48.2 L112.1 48.1 L112.2 48.1 L112.2 48.1 L112.4 48.2 L112.5 48.2 L112.5 48.1 L112.6 48.1 L112.6 48.0 L112.7 47.9 L112.8 47.8 L112.9 47.8 L113.0 47.8 L113.2 47.8 L113.2 47.7 L113.3 47.6 L113.4 47.6 L113.4 47.4 L113.5 47.3 L113.6 47.3 L114.0 47.1 L113.9 47.0 L113.8 47.0 L113.7 46.9 L113.6 46.9 L113.3 47.0 L113.3 46.9 L113.2 46.8 L113.1 46.8 L113.1 46.7 L113.1 46.6 L113.1 46.5 L113.2 46.2 L113.2 46.0 L113.2 45.9 L113.5 45.4 L113.5 45.3 L113.6 45.2 L113.7 45.1 L113.7 45.0 L113.7 44.9 L113.5 44.6 L113.4 44.1 L113.0 43.6 L113.0 43.5 L113.0 43.5 L113.1 43.4 L113.1 43.4 L113.1 43.4 L113.1 43.4 L113.2 43.4 L113.2 43.3 L113.2 43.3 L113.2 43.2 L113.2 43.2 L113.3 43.2 L113.3 43.1 L113.3 43.0 L113.3 42.9 L113.4 42.8 L113.8 42.5 L113.9 42.5 L114.0 42.4 L114.2 42.2 L114.5 42.2 L114.7 42.2 L114.8 42.1 L114.8 41.9 L114.9 41.7 L115.2 41.8 L115.3 41.7 L115.4 41.7 L115.5 41.7 L115.6 41.7 L115.7 41.7 L115.7 41.6 L115.8 41.6 L115.8 41.5 L115.9 41.5 L116.0 41.5 L116.1 41.5 L116.0 41.3 L116.1 41.3 L116.5 41.4 L116.5 41.4 L116.6 41.4 L116.6 41.4 L116.7 41.4 L116.8 41.4 L116.9 41.4 L116.9 41.3 L117.0 41.2 L117.2 41.1 L117.3 41.0 L117.4 41.0 L117.6 41.0 L117.6 41.0 L117.6 40.8 L117.7 40.7 L117.9 40.5 L117.9 40.4 L117.9 40.3 L117.8 40.1 L117.6 40.0 L117.2 39.7 L117.0 39.6 L116.6 39.5 L116.4 39.4 L116.2 39.3 L116.0 39.2 L115.8 39.3 L115.6 39.3 L115.4 39.4 L115.0 39.2 L114.7 39.2 L114.5 39.3 L114.3 39.3 L114.1 39.2 L114.0 39.1 L113.8 38.7 L113.8 38.5 L113.8 38.4 L113.9 38.3 L113.9 38.2 L113.9 38.1 L113.9 37.9 L113.9 37.8 L113.9 37.6 L114.1 37.4 L114.1 37.3 L114.1 37.2 L114.0 37.1 L113.9 37.1 L113.8 37.2 L113.8 37.3 L113.7 37.4 L113.7 37.5 L113.6 37.6 L113.5 37.6 L113.2 37.6 L113.1 37.6 L113.0 37.6 L112.8 37.5 L112.7 37.4 L112.6 37.4 L112.4 37.5 L112.3 37.5 L112.2 37.5 L112.1 37.5 L112.0 37.4 L111.9 37.3 L112.0 37.2 L112.0 37.2 L112.0 37.2 L112.1 37.1 L112.1 36.9 L112.0 36.6 L112.0 36.4 L112.0 36.2 L111.8 36.1 L111.3 36.1 L111.1 36.0 L110.8 35.6 L110.6 35.4 L110.4 35.3 L110.2 35.2 L110.1 35.0 L110.2 34.8 L110.2 34.7 L110.3 34.6 L110.5 34.5 L110.6 34.5 L110.7 34.4 L110.7 34.3 L110.8 34.2 L111.0 33.8 L111.1 33.4 L111.0 33.1 L110.7 32.9 L110.3 32.7 L110.1 32.5 L110.0 32.4 L110.0 32.3 L110.0 32.3 L110.0 32.1 L110.0 32.0 L110.0 31.9 L110.1 31.9 L110.3 31.6 L110.4 31.5 L111.0 31.4 L111.2 31.3 L111.4 31.2 L111.6 31.1 L111.7 30.9 L111.8 30.7 L111.7 30.5 L111.5 30.4 L111.3 30.4 L111.1 30.5 L110.9 30.5 L110.6 30.4 L110.5 30.4 L110.1 30.5 L109.9 30.5 L109.7 30.3 L109.6 30.2 L109.5 30.0 L109.6 29.9 L109.7 29.7 L110.1 29.6 L110.2 29.5 L110.2 29.4 L110.1 29.3 L110.1 29.2 L109.9 28.9 L109.8 28.8 L109.7 28.8 L109.5 28.8 L109.4 28.8 L109.2 28.7 L109.1 28.6 L109.0 28.5 L108.9 28.4 L108.9 28.3 L109.0 28.1 L109.1 28.1 L109.2 28.0 L109.3 28.0 L109.3 27.9 L109.3 27.7 L109.3 27.7 L109.4 27.6 L109.7 27.4 L109.8 27.3 L109.8 27.1 L109.7 27.0 L109.7 26.9 L109.9 26.7 L110.0 26.7 L110.9 26.6 L111.0 26.5 L111.5 26.3 L111.8 26.1 L112.2 26.1 L112.5 26.2 L114.0 26.6 L116.0 26.9 L116.5 26.9 L116.9 26.8 L117.1 26.8 L117.2 26.9 L117.2 26.9 L117.3 27.0 L117.4 27.1 L117.6 27.2 L117.9 27.3 L119.4 27.7 L119.6 27.7 L120.0 27.6 L120.1 27.6 L120.3 27.6 L120.4 27.6 L120.5 27.5 L120.9 27.3 L121.2 27.0 L121.4 27.0 L121.4 27.0 L121.5 26.9 L121.6 26.7 L121.7 26.7 L121.9 26.6 L122.3 26.7 L122.5 26.7 L123.1 26.6 L123.9 26.2 L124.1 26.2 L124.3 26.2 L124.5 26.3 L124.6 26.4 L124.7 26.4 L125.2 26.3 L125.3 26.3 L125.8 25.8 L125.9 25.7 L125.8 25.4 L125.9 25.3 L126.0 25.2 L126.2 25.2 L126.4 25.1 L126.6 25.2 L126.7 25.3 L126.8 25.3 L126.9 25.2 L127.0 25.1 L127.3 24.9 L127.4 24.8 L127.5 24.6 L127.4 24.5 L127.4 24.3 L127.5 24.2 L127.5 24.2 L129.7 23.1 L131.8 22.0 Z M218.6 148.4 L218.7 148.5 L218.8 148.5 L218.6 148.7 L218.6 148.9 L218.6 149.2 L218.6 149.4 L218.5 149.6 L218.4 149.8 L218.3 149.7 L218.2 149.7 L218.2 149.8 L218.2 149.8 L218.1 149.8 L218.1 149.8 L218.1 149.7 L218.1 149.6 L218.1 149.5 L218.1 149.5 L218.1 149.6 L217.9 149.6 L217.9 149.7 L217.9 149.8 L217.9 149.9 L218.0 150.0 L218.1 150.1 L218.0 150.2 L218.0 150.2 L217.9 150.2 L217.9 150.1 L217.9 150.1 L217.8 150.1 L217.8 150.1 L217.7 150.1 L217.6 150.4 L217.6 150.4 L217.6 150.5 L217.6 150.5 L217.6 150.5 L217.7 150.6 L217.8 150.5 L217.8 150.4 L217.9 150.5 L217.9 150.5 L217.9 150.6 L217.9 150.6 L218.0 150.6 L218.1 150.8 L218.1 150.9 L218.1 151.0 L218.1 151.1 L218.1 151.2 L218.1 151.3 L218.2 151.4 L218.2 151.6 L218.2 151.7 L218.2 151.9 L218.1 152.1 L218.2 152.3 L218.3 152.4 L218.2 152.7 L218.2 152.8 L218.1 152.9 L218.0 153.0 L218.1 153.0 L218.1 153.1 L218.0 153.1 L218.0 153.2 L217.9 153.3 L217.9 153.3 L217.9 153.2 L217.8 153.2 L217.8 153.1 L217.7 153.1 L217.7 153.1 L217.7 153.2 L217.6 153.2 L217.4 153.2 L217.4 153.2 L217.5 153.3 L217.5 153.5 L217.6 153.5 L217.6 153.5 L217.7 153.6 L217.7 153.6 L217.7 153.7 L217.8 153.7 L217.8 153.8 L217.7 153.8 L217.7 153.8 L217.7 153.9 L217.6 153.9 L217.6 153.9 L217.6 153.9 L217.7 154.0 L217.7 154.0 L217.7 154.1 L217.7 154.1 L217.7 154.2 L217.7 154.2 L217.6 154.3 L217.6 154.4 L217.7 154.4 L217.7 154.5 L217.7 154.5 L217.7 154.5 L217.6 154.5 L217.6 154.6 L217.5 154.7 L217.4 154.8 L217.3 154.9 L217.4 155.0 L217.4 155.0 L217.3 155.0 L217.2 155.1 L217.2 155.1 L217.2 155.2 L217.1 155.2 L217.0 155.2 L216.9 155.2 L217.0 155.3 L217.1 155.5 L217.1 155.5 L217.0 155.5 L217.0 155.5 L216.9 155.5 L217.0 155.5 L216.9 155.7 L216.8 155.8 L216.8 155.9 L216.8 156.4 L216.8 156.4 L216.9 156.2 L216.9 156.1 L216.9 156.0 L217.0 156.0 L217.1 156.0 L217.1 156.1 L217.2 156.2 L217.1 156.4 L216.9 157.3 L216.9 157.4 L216.8 157.4 L216.7 157.4 L216.5 157.6 L216.5 157.7 L216.5 157.7 L216.5 157.9 L216.5 157.9 L216.6 157.9 L216.6 157.9 L216.7 157.8 L216.7 157.6 L216.7 157.6 L216.7 157.6 L216.8 157.7 L216.8 157.5 L216.8 157.5 L216.9 157.5 L216.9 157.5 L216.9 157.6 L217.0 157.8 L217.0 157.8 L216.9 157.9 L216.9 158.0 L216.8 158.0 L216.8 158.2 L216.8 158.4 L216.7 158.5 L216.7 158.6 L216.7 158.5 L216.6 158.5 L216.6 158.5 L216.5 158.4 L216.4 158.3 L216.3 158.2 L216.3 158.1 L216.3 158.1 L216.3 158.1 L216.2 158.0 L216.2 158.0 L216.1 157.9 L216.1 157.8 L216.2 157.8 L216.2 157.8 L216.3 157.8 L216.3 157.7 L216.3 157.7 L216.2 157.7 L216.1 157.7 L216.1 157.6 L216.1 157.5 L216.1 157.4 L216.1 157.4 L216.0 157.3 L216.0 157.3 L215.9 157.3 L215.9 157.3 L215.8 157.2 L215.8 157.1 L215.8 156.9 L215.8 156.7 L215.8 156.6 L215.8 156.6 L215.7 156.6 L215.7 156.5 L215.6 156.6 L215.6 156.6 L215.6 156.5 L215.6 156.5 L215.6 156.5 L215.6 156.4 L215.6 156.4 L215.7 156.3 L215.8 156.1 L215.9 156.1 L215.9 156.1 L216.0 156.2 L216.0 156.3 L216.0 156.3 L216.1 156.2 L216.1 156.3 L216.1 156.4 L216.1 156.4 L216.1 156.4 L216.2 156.1 L216.2 156.0 L216.2 155.9 L216.2 155.8 L216.1 155.7 L216.2 155.7 L216.2 155.5 L216.3 155.5 L216.3 154.9 L216.3 154.8 L216.4 154.5 L216.5 154.4 L216.5 154.5 L216.6 154.5 L216.6 154.4 L216.7 154.4 L216.7 154.4 L216.7 154.5 L216.7 154.6 L216.7 154.7 L216.8 154.7 L216.8 154.7 L216.8 154.7 L216.8 154.7 L216.8 154.6 L216.9 154.7 L217.0 154.6 L217.1 154.6 L217.1 154.6 L217.1 154.5 L217.1 154.3 L217.0 154.2 L217.0 154.2 L216.9 154.2 L216.9 154.2 L216.9 154.1 L216.9 154.1 L217.0 154.1 L217.1 154.1 L217.1 154.1 L217.1 154.1 L217.1 154.0 L217.1 153.9 L217.0 153.9 L216.9 153.9 L216.8 153.9 L216.7 153.8 L216.7 153.6 L216.7 152.3 L216.7 152.2 L216.8 152.1 L216.9 152.0 L216.9 152.0 L216.9 152.0 L217.0 152.0 L217.0 152.0 L217.1 151.9 L217.0 151.9 L217.0 151.9 L216.9 151.8 L216.9 151.7 L216.8 151.3 L216.8 151.1 L216.8 151.0 L216.9 151.0 L216.9 150.9 L217.0 150.9 L217.1 150.9 L217.2 150.8 L217.2 150.6 L217.2 150.5 L217.2 150.2 L217.3 150.1 L217.4 150.0 L217.3 149.9 L217.2 149.9 L217.2 149.7 L217.3 149.4 L217.4 149.2 L217.5 149.2 L217.5 149.2 L217.5 149.1 L217.4 149.0 L217.4 149.0 L217.4 148.9 L217.4 148.8 L217.4 148.7 L217.5 148.6 L217.5 148.6 L217.4 148.3 L217.5 148.3 L217.5 148.2 L217.4 148.1 L217.4 148.0 L217.7 147.7 L217.7 147.7 L217.7 147.6 L217.7 147.6 L217.7 147.4 L217.7 147.4 L217.7 147.3 L217.8 147.3 L217.8 147.3 L217.9 147.1 L218.0 147.1 L218.0 147.0 L218.0 146.9 L218.0 146.9 L218.1 146.9 L218.2 146.8 L218.2 146.8 L218.3 146.9 L218.3 146.9 L218.3 146.9 L218.4 146.9 L218.3 146.8 L218.3 146.8 L218.3 146.7 L218.4 146.7 L218.4 146.8 L218.4 146.8 L218.5 146.7 L218.5 146.7 L218.6 146.8 L218.7 146.9 L218.6 147.1 L218.6 147.3 L218.6 147.7 L218.7 147.7 L218.7 147.6 L218.8 147.6 L218.7 147.7 L218.6 147.8 L218.6 147.9 L218.6 148.0 L218.5 148.0 L218.4 148.0 L218.3 148.1 L218.3 148.0 L218.3 148.0 L218.2 148.0 L218.2 148.0 L218.2 148.1 L218.2 148.2 L218.3 148.2 L218.4 148.2 L218.5 148.2 L218.6 148.4 Z" fill="#172033" fill-rule="evenodd"/></svg>
