<svg xmlns="http://www.w3.org/2000/svg" viewBox="0 0 320 200" role="img"><path d="M180.6 26.4 L180.4 26.9 L180.4 27.1 L180.5 27.4 L180.6 27.6 L180.8 27.6 L180.9 27.6 L181.0 27.7 L181.1 27.9 L181.2 28.1 L181.3 28.2 L181.5 28.3 L181.8 28.2 L182.0 28.2 L182.2 28.2 L182.4 28.4 L182.8 28.6 L182.9 28.7 L182.9 29.0 L182.7 29.2 L182.6 29.7 L182.7 30.0 L182.8 30.3 L182.9 30.7 L182.8 31.2 L182.6 31.5 L181.9 32.2 L181.7 32.6 L181.9 33.0 L182.2 33.2 L182.7 33.2 L183.3 33.2 L183.6 33.3 L183.8 33.4 L184.0 33.6 L184.2 33.7 L184.4 33.8 L184.6 33.8 L184.9 33.9 L185.2 34.2 L185.7 34.9 L185.9 35.3 L185.9 35.6 L185.5 36.3 L185.3 36.9 L185.3 37.3 L185.2 37.4 L185.0 37.5 L184.9 37.5 L184.9 37.8 L185.1 38.1 L185.2 38.1 L185.5 38.3 L185.7 38.5 L185.8 38.8 L185.9 39.0 L186.0 39.1 L186.2 39.3 L186.3 39.5 L186.3 39.7 L186.4 39.9 L186.6 40.1 L187.1 40.3 L187.6 40.2 L188.7 39.9 L189.2 39.9 L189.5 40.3 L189.7 40.7 L189.8 41.2 L189.8 42.0 L190.0 42.3 L190.3 42.7 L189.9 42.9 L190.0 43.1 L190.3 43.3 L190.6 43.6 L190.7 43.9 L190.6 44.8 L190.7 45.2 L191.3 45.8 L191.6 46.2 L191.5 46.5 L191.2 46.8 L191.0 47.2 L190.9 47.6 L191.0 47.9 L191.0 47.9 L191.0 47.9 L191.0 47.9 L191.4 48.2 L191.8 48.2 L192.2 48.1 L192.6 47.9 L192.6 47.9 L192.6 47.9 L192.6 47.9 L192.9 47.8 L193.5 47.6 L194.0 47.6 L194.4 47.7 L195.2 47.9 L195.8 48.4 L196.1 48.6 L196.6 48.7 L197.2 49.1 L198.0 50.1 L198.5 51.0 L198.7 51.3 L199.1 51.4 L199.8 51.2 L200.0 51.2 L200.3 51.4 L200.7 51.4 L201.0 51.2 L201.5 50.9 L201.7 50.9 L201.9 51.0 L202.1 51.0 L202.7 50.8 L203.9 50.9 L204.3 50.8 L204.6 50.6 L204.9 50.5 L205.2 50.5 L205.8 50.7 L205.9 50.7 L206.0 50.8 L206.1 51.1 L206.2 51.3 L206.3 51.4 L206.5 51.5 L206.9 51.6 L207.3 51.6 L208.1 51.5 L208.4 51.4 L208.7 51.2 L209.1 51.0 L209.5 51.1 L209.8 51.3 L209.9 51.5 L209.9 51.8 L209.7 52.1 L209.4 52.3 L208.8 52.6 L208.5 52.9 L208.3 53.2 L207.9 53.2 L207.1 53.2 L206.2 53.6 L205.8 53.6 L204.5 53.6 L204.1 53.7 L203.9 53.9 L203.7 54.2 L203.6 54.6 L203.6 54.9 L203.8 55.6 L203.8 55.8 L203.2 55.7 L203.1 55.7 L203.0 55.7 L203.2 56.1 L203.4 56.5 L203.5 56.5 L203.5 56.6 L203.5 56.7 L203.4 56.8 L203.2 56.9 L203.1 57.0 L203.1 57.1 L203.1 57.3 L203.4 57.8 L204.6 59.4 L205.6 60.2 L206.0 60.6 L206.2 61.2 L206.1 61.2 L206.0 61.4 L205.8 61.7 L205.6 61.9 L205.7 62.2 L206.0 62.3 L206.7 62.3 L207.0 62.5 L206.9 63.0 L206.5 63.6 L206.2 64.1 L206.6 64.5 L206.5 64.7 L206.3 64.8 L206.0 64.8 L205.6 65.0 L205.2 64.9 L205.0 64.9 L204.5 65.2 L204.3 65.4 L204.0 65.4 L203.4 65.2 L203.2 65.3 L203.0 65.2 L202.6 65.0 L202.3 64.9 L202.2 64.9 L201.9 65.3 L201.9 65.4 L201.9 65.6 L201.9 65.7 L201.8 65.7 L201.5 65.8 L201.4 65.8 L201.2 66.0 L201.1 66.2 L201.1 66.4 L201.2 66.7 L201.2 66.7 L201.3 67.2 L201.3 67.5 L201.1 67.9 L201.0 68.3 L200.7 68.6 L200.2 68.5 L200.0 68.4 L199.6 68.3 L199.2 68.3 L199.1 68.6 L199.1 69.1 L199.0 69.6 L198.5 69.9 L198.0 69.9 L197.7 70.0 L197.5 70.2 L197.5 70.4 L197.5 70.8 L197.5 71.0 L196.9 71.5 L196.8 71.8 L197.1 72.1 L197.2 72.2 L197.4 72.3 L197.5 72.4 L197.6 72.6 L197.7 72.8 L197.8 72.9 L197.8 73.0 L197.9 73.1 L198.0 73.4 L198.0 73.8 L198.1 74.1 L198.3 74.4 L198.3 74.5 L198.3 74.7 L198.3 74.9 L198.2 75.0 L198.1 75.0 L197.7 74.9 L196.4 74.8 L195.8 74.7 L195.1 74.4 L194.4 74.2 L194.3 74.8 L194.5 75.5 L194.5 76.1 L194.4 76.2 L194.3 76.4 L194.1 76.5 L194.0 76.6 L193.0 76.8 L192.8 77.0 L193.4 78.6 L193.7 79.0 L194.0 79.2 L194.4 78.9 L194.8 78.9 L195.2 79.1 L195.5 79.5 L195.6 79.9 L195.5 80.4 L195.3 81.3 L195.2 81.5 L194.9 81.8 L194.9 82.0 L195.0 82.2 L195.1 82.4 L195.2 82.5 L195.2 82.7 L195.0 82.9 L194.3 83.5 L194.0 83.7 L193.6 84.0 L193.3 84.5 L193.2 84.9 L192.9 85.5 L192.9 85.5 L192.9 85.5 L192.7 85.6 L192.6 85.7 L192.2 85.8 L192.5 86.3 L193.0 86.5 L193.5 86.5 L194.0 86.5 L194.1 86.5 L194.1 86.5 L194.1 86.5 L195.8 89.0 L196.1 89.3 L196.3 89.5 L196.6 89.7 L196.7 90.0 L196.8 90.4 L196.9 90.7 L197.1 91.0 L197.4 91.3 L197.7 91.6 L198.6 92.1 L198.6 92.2 L198.7 92.4 L198.7 93.0 L198.8 93.2 L199.1 93.1 L199.4 92.9 L200.0 92.5 L200.3 92.4 L201.2 92.4 L201.6 92.3 L201.6 92.9 L201.9 93.1 L202.3 93.4 L202.4 93.8 L202.2 94.1 L201.3 94.5 L201.0 94.8 L201.3 95.1 L201.9 95.2 L202.5 95.1 L202.8 94.8 L202.9 94.8 L203.0 94.8 L203.1 94.8 L203.1 94.8 L203.2 94.8 L203.2 94.9 L203.3 94.9 L203.9 95.6 L204.2 95.9 L204.3 96.2 L204.4 96.6 L204.4 96.9 L204.5 97.2 L205.1 97.7 L205.8 98.6 L206.4 99.0 L206.7 99.2 L206.9 99.5 L206.9 99.7 L206.8 100.1 L206.7 100.3 L206.8 100.4 L207.0 100.5 L207.1 100.7 L206.9 101.0 L206.7 101.2 L206.2 101.6 L205.8 101.9 L205.5 101.9 L205.1 101.9 L204.7 102.0 L204.4 102.1 L204.3 102.4 L204.6 102.5 L205.4 102.6 L205.8 102.8 L206.0 103.0 L206.2 103.2 L206.0 103.5 L205.8 103.8 L205.4 104.0 L205.2 104.2 L205.2 104.2 L205.6 105.0 L206.7 105.1 L208.9 104.9 L210.9 105.4 L212.8 106.1 L213.3 106.6 L215.1 107.4 L215.1 107.5 L216.0 108.1 L217.2 108.7 L218.0 109.4 L223.6 113.6 L223.7 113.6 L223.7 113.6 L224.3 114.0 L224.8 114.2 L225.4 114.3 L226.1 114.3 L226.4 114.2 L227.3 113.8 L227.5 113.8 L228.6 114.1 L229.0 114.3 L229.2 114.5 L229.4 114.8 L229.8 115.1 L230.3 115.5 L230.4 115.6 L230.4 115.8 L230.3 115.9 L230.2 116.0 L230.1 116.4 L230.0 116.5 L230.0 116.6 L230.1 116.8 L230.2 116.9 L230.8 117.4 L230.8 117.5 L230.9 117.6 L231.2 118.0 L231.4 118.1 L231.5 118.2 L231.6 118.4 L232.0 118.6 L232.1 118.9 L232.1 119.1 L232.0 119.3 L231.9 119.5 L231.8 119.7 L231.8 119.9 L231.8 120.1 L231.9 120.2 L232.2 120.2 L232.4 120.4 L232.6 120.6 L232.8 120.7 L233.0 120.8 L233.4 120.9 L233.4 120.9 L233.7 121.3 L234.1 122.1 L234.4 122.4 L235.1 122.7 L235.3 123.0 L235.3 123.0 L235.4 123.3 L236.0 124.3 L236.2 124.5 L236.5 124.7 L236.6 124.8 L236.8 125.0 L236.8 125.3 L236.9 125.4 L237.2 125.7 L238.0 126.2 L238.2 126.5 L238.3 126.9 L238.2 127.4 L235.3 134.0 L235.2 137.2 L235.2 141.7 L241.3 141.8 L241.6 141.9 L241.6 142.1 L241.5 151.1 L241.6 151.7 L243.6 152.0 L243.8 152.0 L244.0 152.1 L244.3 152.4 L244.5 152.8 L244.7 153.2 L244.8 154.0 L244.9 154.2 L245.1 154.3 L245.3 154.4 L245.5 154.4 L245.7 154.4 L246.4 154.3 L246.7 154.3 L246.9 154.4 L247.1 154.5 L247.4 155.1 L248.0 155.7 L248.8 156.3 L248.9 156.4 L249.0 156.6 L249.0 156.8 L249.0 157.0 L248.8 157.2 L248.7 157.3 L248.5 157.5 L248.5 157.7 L248.5 157.8 L248.7 158.3 L249.1 158.6 L249.2 158.8 L249.3 158.8 L249.6 159.8 L249.7 160.0 L249.8 160.4 L249.9 160.5 L250.0 160.6 L250.3 160.8 L250.6 160.9 L251.2 161.1 L251.3 161.1 L251.3 161.2 L251.3 161.2 L251.7 161.2 L251.8 161.4 L251.6 161.6 L251.1 161.8 L249.1 161.6 L247.6 161.1 L246.9 160.7 L246.3 160.5 L245.2 160.0 L244.4 159.7 L243.6 159.6 L242.8 159.6 L242.0 159.7 L240.7 160.3 L240.6 159.8 L240.5 159.3 L240.4 158.8 L240.1 158.4 L240.3 159.0 L240.4 159.2 L240.3 159.5 L240.2 159.7 L240.2 159.9 L240.4 160.1 L240.3 160.5 L236.3 158.8 L235.2 158.6 L230.4 158.6 L229.3 158.7 L226.3 159.8 L225.3 160.4 L224.6 161.2 L223.0 164.7 L222.3 165.8 L222.2 166.1 L222.2 166.6 L222.1 166.8 L221.8 167.5 L220.4 169.6 L219.8 170.8 L219.5 171.2 L218.3 172.4 L217.1 174.1 L214.3 176.9 L213.8 177.4 L213.0 177.5 L212.1 177.7 L211.8 177.8 L211.3 177.8 L210.5 178.0 L208.5 177.8 L207.1 177.7 L205.7 177.6 L204.2 177.5 L202.8 177.4 L200.9 177.2 L199.0 177.1 L197.0 176.9 L195.1 176.8 L193.2 176.6 L191.3 176.5 L189.3 176.3 L187.4 176.2 L185.9 176.1 L184.4 175.9 L182.9 175.8 L181.4 175.7 L179.7 175.6 L179.6 175.5 L179.5 175.5 L179.4 175.4 L179.2 175.4 L177.8 174.4 L176.0 173.1 L174.2 171.9 L172.4 170.6 L170.6 169.3 L168.5 167.8 L166.3 166.3 L164.2 164.8 L162.9 163.9 L162.0 163.3 L159.9 161.7 L157.7 160.2 L155.6 158.7 L153.4 157.2 L151.8 156.0 L150.1 154.9 L148.5 153.7 L146.8 152.5 L144.8 151.1 L144.8 151.1 L144.8 151.1 L144.8 151.1 L143.4 150.1 L143.1 149.8 L141.3 148.5 L139.5 147.1 L137.7 145.8 L136.1 144.6 L134.5 143.4 L133.0 142.3 L131.4 141.1 L130.1 140.2 L128.5 139.3 L126.8 138.5 L125.2 137.6 L123.5 136.8 L121.9 135.9 L120.2 135.1 L118.6 134.3 L116.9 133.4 L115.3 132.6 L113.6 131.7 L112.0 130.9 L110.3 130.1 L108.7 129.2 L107.1 128.4 L105.4 127.6 L103.8 126.7 L102.1 125.9 L100.2 124.9 L99.1 124.4 L98.1 124.0 L91.7 123.0 L91.7 123.0 L91.7 123.0 L91.7 123.0 L90.2 122.8 L86.5 122.2 L82.8 121.7 L79.1 121.1 L75.4 120.6 L75.3 120.6 L75.3 120.6 L75.2 120.7 L75.2 120.7 L75.2 120.5 L77.4 118.9 L77.9 118.3 L77.5 117.0 L77.2 116.5 L76.8 116.3 L73.3 117.1 L73.1 117.0 L73.0 116.7 L72.0 114.0 L72.0 114.0 L72.0 114.0 L72.0 114.0 L72.0 113.9 L73.5 113.6 L72.2 109.6 L71.3 106.9 L70.5 104.2 L69.8 102.2 L69.1 99.8 L68.2 97.1 L70.3 96.1 L72.3 95.1 L74.4 94.0 L76.5 93.0 L78.6 91.9 L80.6 90.9 L82.7 89.9 L84.8 88.8 L86.9 87.8 L88.9 86.7 L91.0 85.7 L93.1 84.7 L94.4 84.0 L95.2 83.6 L97.2 82.6 L99.3 81.5 L101.4 80.5 L104.1 79.1 L108.7 78.1 L109.3 77.8 L109.7 77.3 L110.4 76.1 L110.4 76.1 L113.6 70.9 L113.8 70.5 L113.8 70.0 L113.7 66.7 L113.6 63.6 L113.5 63.2 L113.7 62.0 L114.5 59.7 L114.7 57.9 L114.8 57.3 L114.9 57.3 L114.9 57.3 L114.9 57.3 L115.7 56.2 L116.4 55.4 L116.7 54.9 L116.8 54.3 L116.7 51.7 L116.6 51.1 L116.4 50.5 L114.9 47.9 L114.9 47.9 L114.9 47.9 L114.5 47.0 L114.4 46.7 L114.4 46.4 L115.0 41.7 L115.1 41.2 L116.8 38.5 L116.8 38.5 L116.8 38.5 L116.8 38.5 L117.2 38.1 L117.7 37.9 L119.0 37.8 L124.8 36.8 L125.3 36.6 L125.8 36.2 L128.3 34.0 L132.1 30.8 L134.0 29.2 L134.0 29.2 L134.0 29.2 L135.2 28.2 L135.8 27.9 L135.8 27.9 L135.8 27.6 L135.7 27.4 L135.5 27.2 L135.4 27.0 L136.3 26.9 L137.3 26.6 L138.9 26.4 L139.3 26.3 L139.3 26.2 L139.5 25.7 L141.9 22.9 L142.0 22.8 L142.0 22.7 L142.0 22.5 L142.1 22.4 L142.3 22.3 L143.2 22.0 L143.4 22.0 L143.6 22.0 L143.8 22.1 L143.8 22.4 L144.0 22.5 L145.5 22.9 L146.3 23.0 L147.1 22.8 L147.6 22.5 L148.3 22.3 L149.1 22.1 L149.6 22.1 L150.0 22.2 L152.4 23.2 L152.6 23.3 L152.7 23.3 L152.9 23.2 L153.1 23.1 L153.2 23.0 L153.6 23.0 L153.8 23.0 L154.3 23.3 L154.5 23.5 L155.3 23.8 L156.2 24.4 L156.5 24.5 L156.7 24.5 L157.2 24.3 L157.4 24.3 L157.7 24.3 L157.8 24.4 L158.2 24.6 L158.6 24.7 L159.1 24.8 L161.0 24.7 L161.5 24.7 L161.9 24.8 L162.1 24.9 L162.5 25.2 L162.7 25.3 L162.9 25.2 L163.2 25.0 L164.3 24.8 L164.8 24.3 L165.4 23.7 L166.1 23.2 L166.9 23.1 L167.5 23.2 L167.9 23.2 L169.7 23.8 L170.1 24.0 L170.4 24.3 L170.7 24.6 L170.8 25.0 L170.9 25.4 L170.9 25.7 L170.9 25.9 L170.8 26.1 L170.6 26.2 L170.4 26.2 L170.1 26.3 L169.8 26.6 L169.6 27.0 L169.6 27.4 L169.8 27.8 L170.5 29.2 L170.6 29.4 L170.8 29.5 L171.6 29.6 L171.8 29.6 L172.0 29.5 L172.2 29.2 L172.2 29.2 L172.2 29.2 L172.2 29.2 L172.5 28.8 L172.5 28.5 L172.7 28.3 L174.3 27.8 L174.8 27.6 L175.2 27.3 L175.7 26.9 L176.4 26.4 L177.1 25.9 L177.7 25.7 L178.1 25.7 L180.0 25.9 L180.4 26.1 L180.6 26.4 Z" fill="#172033" fill-rule="evenodd"/></svg>
