<svg xmlns="http://www.w3.org/2000/svg" viewBox="0 0 320 200" role="img"><path d="M66.1 23.4 L66.1 23.4 L66.2 23.5 L66.3 23.5 L66.5 23.5 L66.7 23.6 L66.7 23.6 L66.7 23.6 L66.9 23.8 L67.0 24.0 L67.3 25.0 L67.5 25.2 L67.7 25.4 L67.6 25.5 L67.6 25.6 L67.9 25.7 L68.0 25.7 L68.1 25.7 L68.2 25.7 L68.2 25.8 L68.2 25.8 L68.3 25.9 L68.6 26.1 L68.7 26.1 L68.7 26.2 L68.8 26.3 L68.9 26.4 L69.0 26.5 L69.1 26.6 L69.3 26.9 L69.4 27.0 L69.5 27.1 L69.5 27.2 L69.6 27.8 L69.7 27.9 L70.0 27.8 L71.1 28.1 L71.1 28.1 L71.2 28.1 L71.3 28.0 L71.4 28.1 L71.4 28.1 L71.4 28.2 L71.4 28.3 L71.5 28.4 L71.6 28.4 L71.8 28.4 L71.8 28.6 L71.8 28.7 L71.8 28.8 L71.9 28.9 L72.0 28.9 L72.1 29.0 L72.2 29.1 L72.2 29.3 L72.3 29.4 L72.4 29.5 L72.7 29.6 L72.7 29.6 L72.7 29.7 L72.6 29.8 L72.6 29.9 L72.6 30.0 L72.7 30.1 L73.0 30.3 L73.2 30.3 L73.3 30.4 L73.5 30.4 L73.7 30.5 L73.8 30.5 L73.9 30.5 L74.1 30.5 L74.8 30.7 L75.7 30.7 L76.2 30.8 L76.5 30.9 L78.7 31.3 L79.4 31.5 L80.0 31.6 L80.1 31.6 L80.8 31.6 L81.0 31.5 L81.6 31.2 L81.8 31.1 L81.9 31.1 L82.3 31.1 L82.6 31.0 L82.7 31.0 L82.9 31.0 L84.0 31.4 L84.2 31.4 L84.3 31.4 L84.6 31.3 L84.7 31.3 L84.9 31.2 L85.1 31.0 L85.2 30.9 L85.5 30.4 L85.6 30.3 L85.8 30.1 L86.4 29.9 L86.6 29.8 L86.8 29.4 L86.9 29.3 L87.0 29.2 L87.2 29.1 L87.2 29.1 L87.3 29.0 L87.6 28.7 L87.7 28.5 L87.9 28.4 L87.9 28.4 L88.1 28.4 L88.2 28.4 L88.5 28.5 L88.7 28.5 L88.8 28.5 L89.4 28.2 L89.5 28.2 L89.6 28.1 L89.7 28.0 L89.9 27.6 L90.2 27.1 L90.3 27.0 L90.4 26.9 L90.9 26.7 L92.0 26.4 L92.1 26.3 L92.4 26.2 L92.7 25.9 L92.7 25.9 L93.3 25.4 L93.6 25.1 L94.1 24.9 L94.8 24.7 L95.0 24.7 L95.2 24.6 L95.7 24.2 L95.9 24.1 L97.2 23.6 L97.7 23.2 L97.8 23.1 L98.0 23.0 L98.3 22.9 L99.1 22.9 L99.2 22.9 L99.3 22.8 L99.5 22.7 L99.5 22.7 L99.6 22.7 L99.8 22.8 L100.5 23.3 L102.2 24.9 L103.0 25.5 L103.3 25.8 L103.5 26.2 L103.4 26.2 L103.1 26.3 L102.6 26.6 L101.9 26.7 L101.5 26.8 L101.2 27.0 L101.0 27.3 L101.0 27.7 L101.2 28.0 L101.4 28.3 L102.0 28.7 L102.6 28.9 L102.8 29.0 L103.1 29.6 L103.2 29.7 L103.2 29.8 L103.1 30.0 L103.1 30.0 L103.0 30.1 L102.9 30.2 L102.9 30.2 L102.9 30.2 L102.5 30.5 L100.5 30.7 L100.5 30.8 L100.5 30.9 L100.5 30.9 L99.9 31.2 L99.8 31.3 L99.8 31.8 L100.0 32.1 L100.7 32.5 L102.1 33.0 L102.3 33.1 L102.3 33.2 L102.3 33.4 L102.3 33.6 L102.3 33.8 L102.8 34.1 L103.0 34.3 L103.2 34.4 L103.5 34.4 L104.1 34.2 L104.3 34.2 L104.4 34.5 L104.5 34.7 L104.6 34.9 L104.8 35.0 L105.0 35.2 L105.2 35.4 L105.3 35.5 L105.6 35.8 L105.7 35.9 L106.0 36.3 L106.4 36.6 L106.4 36.6 L106.9 36.6 L107.2 36.6 L107.4 36.5 L107.7 36.3 L107.9 36.2 L108.2 36.1 L108.5 36.1 L109.2 36.2 L109.2 37.1 L109.1 37.4 L109.2 37.7 L109.2 38.2 L109.4 38.6 L109.5 39.9 L110.0 41.1 L109.9 41.3 L109.9 41.6 L109.9 41.8 L110.0 42.0 L110.4 42.5 L110.4 42.6 L110.3 42.7 L110.3 42.7 L110.4 43.2 L110.7 43.6 L111.2 44.2 L111.9 44.8 L112.7 45.2 L114.4 45.9 L115.2 46.1 L119.3 46.6 L119.7 46.5 L120.1 46.4 L120.4 46.4 L120.8 46.5 L120.7 46.5 L120.6 46.5 L120.5 46.5 L120.4 46.6 L121.3 46.9 L122.7 47.1 L123.2 47.3 L123.5 47.5 L123.5 47.9 L123.6 48.0 L123.7 48.4 L123.8 48.6 L124.0 48.8 L124.2 49.3 L124.5 49.8 L124.9 50.0 L125.7 50.5 L126.2 51.0 L126.4 51.1 L126.6 51.1 L127.7 51.8 L128.0 51.8 L128.1 51.9 L128.4 52.1 L128.6 52.3 L130.2 53.0 L131.8 53.9 L132.7 54.2 L135.6 54.6 L137.5 55.1 L139.5 55.4 L141.4 55.8 L143.3 55.6 L145.1 55.1 L146.9 54.7 L148.8 54.4 L150.6 54.1 L152.4 53.7 L154.2 53.3 L157.7 52.6 L158.1 52.6 L162.3 52.4 L163.1 52.2 L163.6 51.9 L163.6 52.3 L163.0 52.5 L162.2 52.5 L161.7 52.7 L161.6 52.7 L161.4 52.7 L161.2 52.6 L161.0 52.6 L160.7 52.7 L160.5 52.8 L159.9 52.7 L159.4 52.7 L159.5 52.8 L159.6 52.9 L160.0 52.8 L159.8 52.9 L159.7 52.9 L159.9 53.2 L160.4 53.3 L162.0 53.5 L162.2 53.5 L162.4 53.6 L163.7 53.3 L163.8 53.2 L163.9 53.0 L163.9 51.9 L163.8 51.7 L163.7 51.7 L163.5 51.6 L163.5 51.5 L163.7 51.1 L163.5 50.8 L163.3 50.4 L163.1 49.5 L162.8 48.8 L162.7 48.7 L162.6 47.8 L165.5 48.0 L165.7 47.9 L165.9 47.9 L166.1 47.7 L166.3 47.6 L166.5 47.6 L166.8 47.6 L167.0 47.6 L167.4 47.5 L169.2 46.7 L169.4 46.7 L170.1 46.8 L170.3 46.8 L170.5 46.7 L170.7 46.5 L170.9 46.4 L171.1 46.3 L171.6 46.1 L171.8 45.9 L171.9 45.8 L171.9 45.7 L172.1 45.4 L172.1 45.2 L172.1 45.0 L172.1 44.9 L172.0 44.8 L171.9 44.8 L171.9 44.7 L171.9 44.5 L172.1 44.1 L172.1 43.9 L172.2 43.8 L172.3 43.6 L172.6 43.3 L174.2 42.4 L174.7 42.0 L174.8 41.9 L174.8 41.8 L175.0 41.7 L175.1 41.7 L175.2 41.6 L175.3 41.6 L175.4 41.4 L175.5 41.3 L175.7 41.2 L176.3 41.1 L176.5 41.1 L176.6 40.9 L176.8 40.8 L177.3 40.7 L177.4 40.7 L177.6 40.5 L177.8 40.5 L178.6 40.0 L178.9 39.9 L179.5 39.9 L181.6 39.5 L182.0 39.5 L182.6 39.6 L183.0 39.8 L183.2 39.9 L183.7 39.9 L183.9 39.9 L184.2 40.0 L184.3 40.1 L184.5 40.1 L186.0 39.9 L186.5 39.9 L186.5 39.9 L186.8 40.0 L187.0 40.1 L187.9 39.9 L188.1 39.8 L188.2 39.7 L188.2 39.5 L188.2 39.3 L187.9 39.0 L188.0 38.9 L188.6 38.4 L189.0 38.2 L189.4 38.1 L190.3 38.1 L190.5 38.1 L190.7 38.2 L190.8 38.2 L190.9 38.3 L191.1 38.3 L192.0 38.0 L192.5 37.9 L192.6 37.9 L193.0 38.2 L193.3 38.4 L193.5 38.4 L195.1 38.6 L195.5 38.8 L195.7 38.8 L195.9 38.7 L196.1 38.6 L196.4 38.4 L196.6 38.3 L196.8 38.0 L196.8 38.0 L196.9 37.9 L197.1 37.9 L197.2 37.8 L197.3 37.9 L197.5 37.9 L197.7 38.0 L197.7 38.0 L197.7 38.1 L197.7 38.2 L198.0 38.5 L198.2 38.9 L198.3 39.1 L198.6 39.4 L198.8 39.7 L199.0 39.9 L199.0 40.1 L199.0 40.3 L198.8 40.8 L199.1 41.1 L200.6 41.6 L200.8 41.6 L200.9 41.5 L201.1 41.5 L201.3 41.5 L201.8 41.7 L202.3 41.7 L202.5 41.6 L202.7 41.6 L202.8 41.7 L202.9 41.8 L203.1 41.9 L203.1 41.9 L203.2 41.9 L203.3 41.8 L203.4 41.9 L203.5 41.9 L203.6 42.1 L203.7 42.1 L203.8 42.2 L204.0 42.2 L204.2 42.1 L204.3 42.1 L204.7 42.2 L206.4 42.8 L207.1 43.0 L207.4 43.0 L207.6 43.0 L207.8 43.1 L207.9 43.2 L207.9 43.2 L207.8 43.3 L207.9 43.4 L208.0 43.7 L208.1 43.7 L208.1 43.9 L208.1 44.1 L208.1 44.2 L208.3 44.3 L208.5 44.4 L209.3 44.5 L209.5 44.5 L209.7 44.7 L209.9 44.7 L210.8 44.6 L211.0 44.6 L211.2 44.4 L211.3 44.2 L211.4 44.1 L211.6 44.0 L211.8 43.9 L211.9 44.0 L212.5 44.4 L212.9 44.5 L213.2 44.6 L213.4 44.6 L213.5 44.5 L213.6 44.4 L213.6 44.4 L213.8 44.4 L214.0 44.4 L214.1 44.4 L214.2 44.4 L214.4 44.3 L214.4 44.1 L214.4 44.0 L215.1 44.3 L215.9 44.5 L216.3 44.6 L216.5 44.7 L216.6 44.7 L216.9 44.8 L217.0 44.8 L217.4 45.1 L218.8 45.9 L219.0 45.9 L219.6 45.7 L219.9 45.8 L220.1 45.9 L220.3 46.2 L220.3 46.3 L220.3 46.5 L220.4 46.6 L220.4 46.7 L220.3 46.8 L220.3 46.9 L220.2 47.0 L220.3 47.3 L220.5 48.0 L220.6 48.1 L221.3 48.6 L221.5 48.8 L221.5 48.8 L221.5 48.9 L221.5 48.9 L221.5 49.0 L221.4 49.0 L221.4 49.1 L221.4 49.2 L221.6 49.2 L221.7 49.3 L221.8 49.3 L221.9 49.4 L221.9 49.4 L222.3 49.3 L222.4 49.3 L222.6 49.4 L222.7 49.6 L222.7 49.8 L222.8 50.0 L223.0 50.1 L223.1 50.1 L223.1 50.0 L223.3 49.8 L223.4 49.8 L223.5 49.8 L225.0 50.2 L225.7 50.7 L226.1 50.9 L227.0 51.0 L227.4 51.1 L227.7 51.5 L228.1 52.1 L228.6 52.7 L229.7 53.8 L229.9 54.1 L230.2 54.8 L230.4 55.1 L230.8 55.2 L232.5 55.2 L233.9 55.2 L236.2 55.2 L237.5 55.1 L238.6 55.1 L239.1 55.2 L239.5 55.2 L239.6 55.6 L239.7 55.8 L239.7 55.9 L239.7 56.0 L239.7 56.1 L239.7 56.2 L239.6 56.3 L239.6 56.4 L239.5 56.5 L239.5 56.7 L239.6 56.8 L239.4 57.7 L239.3 58.2 L239.5 58.5 L239.4 58.5 L239.4 58.6 L239.4 58.7 L239.5 58.7 L239.6 58.7 L239.6 58.8 L239.7 58.9 L239.7 59.0 L239.7 59.1 L239.7 59.3 L239.8 59.4 L239.9 59.6 L240.1 60.3 L240.1 60.6 L240.1 60.7 L240.1 60.7 L240.0 60.9 L240.0 60.9 L239.9 61.0 L239.9 61.1 L239.9 61.2 L239.9 61.3 L239.8 61.4 L239.7 61.4 L239.6 61.5 L239.6 61.6 L239.6 61.8 L239.6 61.9 L239.5 62.0 L239.3 62.2 L239.1 62.3 L239.3 62.4 L239.5 62.4 L239.7 62.5 L239.9 62.6 L240.1 62.8 L240.2 62.9 L240.3 63.1 L240.4 63.3 L240.4 63.7 L240.5 63.8 L240.5 64.0 L240.4 64.3 L240.5 64.3 L240.5 64.4 L240.4 64.7 L240.4 64.7 L240.4 64.9 L240.4 65.0 L240.2 65.1 L240.2 65.2 L240.2 65.5 L240.4 65.7 L240.6 66.0 L240.7 66.1 L240.8 66.6 L240.8 66.8 L240.8 67.0 L240.6 67.2 L240.4 67.5 L240.3 67.7 L240.2 68.0 L240.1 68.1 L239.9 68.3 L239.8 68.5 L239.8 68.7 L239.8 69.2 L239.7 69.4 L239.5 69.5 L239.3 69.5 L239.1 69.5 L238.9 69.6 L238.8 69.9 L238.8 70.1 L238.8 70.2 L238.9 70.2 L238.9 70.4 L238.9 70.5 L238.8 70.5 L238.8 70.5 L238.8 70.7 L239.2 71.1 L239.2 71.1 L239.2 71.2 L239.2 71.3 L239.2 71.4 L239.3 71.5 L239.1 71.8 L239.0 72.0 L238.9 72.4 L238.8 72.8 L238.7 73.0 L238.7 73.1 L238.5 73.3 L238.5 73.4 L238.5 73.5 L238.6 73.7 L238.6 73.8 L238.5 74.2 L238.4 74.6 L238.1 74.6 L238.1 74.8 L237.9 75.1 L237.5 75.3 L237.3 75.5 L237.3 75.8 L237.3 76.1 L237.3 76.3 L237.2 76.4 L237.1 76.5 L236.9 76.4 L236.8 76.5 L236.6 76.5 L236.6 76.6 L236.5 76.7 L236.0 77.1 L235.8 77.3 L235.6 77.3 L235.0 77.4 L234.7 77.5 L234.6 77.7 L234.7 77.7 L234.8 77.8 L234.8 77.9 L234.9 78.1 L235.0 78.2 L235.3 78.3 L235.4 78.4 L235.5 78.5 L235.7 78.8 L236.5 79.6 L236.6 79.8 L235.8 79.9 L234.7 79.9 L234.0 79.9 L234.0 80.2 L233.9 80.3 L233.4 80.5 L233.0 80.9 L232.7 81.2 L232.4 81.7 L232.3 82.2 L232.3 82.3 L232.4 83.3 L232.7 84.9 L232.7 85.3 L232.4 85.9 L232.3 86.3 L232.6 87.0 L233.2 87.6 L234.1 87.9 L234.9 87.9 L235.7 87.9 L236.1 87.9 L236.5 88.0 L236.6 88.1 L236.8 88.2 L236.9 88.4 L236.9 88.4 L236.8 88.5 L236.7 88.5 L236.2 88.6 L236.0 88.7 L235.9 88.8 L236.0 89.0 L236.0 89.2 L235.9 89.4 L235.8 89.5 L235.5 89.7 L235.2 89.9 L234.8 90.4 L234.3 91.0 L233.7 91.6 L233.2 92.2 L233.1 92.3 L233.1 93.2 L233.3 93.9 L233.6 94.7 L233.9 95.8 L234.3 96.8 L234.7 97.9 L235.1 99.2 L235.6 100.6 L236.0 101.8 L235.9 102.6 L235.8 103.5 L235.7 103.7 L235.4 104.0 L235.4 104.1 L235.4 104.2 L235.5 104.2 L235.6 104.3 L235.5 104.5 L235.5 104.6 L235.5 104.7 L235.6 104.8 L235.6 105.1 L235.5 105.7 L235.5 106.2 L235.7 107.2 L235.6 108.0 L235.6 108.3 L235.7 108.8 L235.9 109.8 L236.2 109.9 L237.3 110.0 L239.1 110.2 L239.1 110.2 L240.9 110.5 L243.0 110.7 L244.2 110.9 L244.8 111.0 L245.0 111.1 L245.2 111.2 L245.6 111.6 L245.7 111.8 L245.6 112.3 L245.6 112.5 L245.7 112.7 L246.0 113.1 L246.1 113.3 L246.1 113.6 L246.1 113.7 L246.3 114.1 L246.5 114.4 L246.5 114.6 L246.5 114.9 L246.4 115.1 L246.2 115.4 L246.3 115.5 L246.3 116.3 L246.3 116.3 L246.2 116.4 L246.2 116.6 L246.2 116.6 L246.3 116.6 L246.1 116.8 L245.2 117.7 L243.9 119.1 L242.6 120.4 L241.8 121.3 L240.6 122.4 L240.0 123.1 L239.2 124.0 L237.5 125.7 L237.5 125.7 L236.7 126.5 L236.1 127.1 L237.0 128.0 L237.5 128.6 L238.2 129.3 L239.0 130.1 L239.8 131.0 L240.7 131.9 L240.9 132.1 L241.1 132.1 L241.3 132.2 L241.4 132.5 L241.4 132.7 L241.3 133.1 L241.3 133.3 L241.4 133.5 L241.7 133.8 L241.9 134.0 L241.9 134.1 L241.9 134.4 L242.0 134.5 L242.1 134.6 L242.2 134.7 L242.3 134.7 L242.4 134.7 L242.5 134.9 L242.6 135.1 L242.6 135.2 L242.8 135.3 L242.9 135.4 L243.0 135.5 L242.9 135.5 L242.8 135.6 L242.7 135.7 L242.7 135.8 L242.7 135.8 L242.8 135.9 L243.0 135.9 L243.1 136.0 L243.2 136.1 L243.6 137.0 L243.7 137.2 L243.7 137.4 L243.8 137.6 L244.1 137.9 L244.4 138.5 L244.7 138.8 L245.8 139.7 L246.2 140.2 L246.9 140.7 L247.2 141.1 L247.4 141.2 L248.1 141.3 L248.6 141.6 L248.9 141.7 L249.6 141.7 L249.9 141.8 L250.8 142.1 L252.2 142.4 L252.5 142.5 L252.6 142.6 L252.7 142.8 L252.8 142.9 L253.0 143.0 L253.2 143.0 L253.3 143.1 L253.4 143.2 L253.4 143.4 L253.6 143.6 L254.2 144.3 L254.5 144.4 L256.2 144.1 L256.4 144.2 L256.5 144.6 L256.3 145.7 L256.2 146.9 L256.4 147.6 L256.6 148.6 L256.7 149.3 L256.8 150.1 L256.8 150.6 L256.9 151.6 L257.0 152.2 L256.9 152.6 L256.4 153.7 L256.6 154.0 L256.6 154.1 L256.6 154.2 L256.6 154.4 L256.5 154.5 L256.4 154.6 L256.2 154.6 L256.7 155.0 L256.8 155.0 L256.9 155.0 L257.1 155.0 L257.2 154.9 L257.2 155.0 L257.5 155.1 L257.8 155.2 L258.1 155.1 L258.7 155.0 L259.0 155.0 L259.6 154.8 L259.8 154.8 L260.0 154.8 L260.2 154.8 L260.7 154.7 L260.8 154.7 L261.0 154.7 L261.2 154.9 L261.4 155.0 L261.6 155.1 L261.7 155.2 L261.8 155.3 L262.0 155.5 L262.3 156.2 L262.2 156.1 L261.9 156.1 L261.7 156.2 L261.6 156.4 L261.6 156.5 L261.5 156.6 L261.4 156.7 L261.4 156.8 L261.5 158.0 L261.5 158.2 L261.7 158.4 L261.8 158.6 L261.7 158.8 L261.6 158.9 L261.1 159.0 L261.0 159.1 L260.9 159.2 L260.8 160.8 L260.7 161.2 L260.5 161.4 L260.4 161.4 L260.3 161.4 L260.2 161.3 L260.1 161.3 L260.0 161.3 L259.7 161.3 L259.3 161.3 L258.9 161.3 L257.9 161.2 L257.1 161.2 L256.3 161.2 L256.2 161.2 L256.2 161.3 L256.0 161.5 L256.0 161.6 L255.9 161.6 L255.8 161.6 L255.5 161.7 L255.4 161.7 L255.3 161.6 L255.1 161.6 L255.1 161.7 L255.0 161.7 L254.9 161.8 L254.7 161.9 L252.9 162.0 L252.8 162.1 L252.7 162.1 L252.6 162.3 L252.6 162.3 L252.5 162.3 L252.2 162.3 L252.1 162.3 L252.0 162.4 L251.9 162.5 L251.8 162.5 L251.6 162.6 L251.5 162.6 L251.5 162.7 L251.4 162.8 L251.5 162.9 L251.5 162.9 L251.5 163.0 L251.4 163.2 L251.1 163.5 L251.0 163.6 L251.1 163.9 L251.2 164.0 L251.2 164.2 L250.9 164.3 L250.5 164.3 L250.1 164.1 L249.7 164.1 L249.5 164.3 L249.5 164.6 L249.4 164.7 L248.9 164.8 L248.7 164.8 L248.5 164.9 L248.1 165.1 L246.8 165.5 L246.6 165.6 L246.4 165.9 L246.3 166.3 L246.2 166.9 L246.2 167.5 L246.1 168.1 L245.9 169.0 L245.8 169.7 L245.8 169.9 L245.6 170.1 L245.4 170.2 L245.2 170.1 L245.0 170.2 L244.8 170.5 L244.8 170.9 L244.9 171.3 L244.9 171.6 L244.8 171.7 L244.7 171.9 L244.6 172.0 L244.6 172.1 L244.5 172.7 L244.5 173.7 L244.4 174.7 L244.3 175.6 L244.0 176.5 L243.9 176.3 L243.9 176.2 L243.7 176.0 L243.7 176.0 L243.6 175.9 L243.5 176.0 L243.5 176.1 L243.5 176.2 L243.4 176.3 L243.5 176.3 L243.6 176.5 L243.7 176.5 L243.4 176.5 L243.3 176.4 L243.1 176.4 L242.9 176.6 L243.1 176.6 L243.2 176.7 L243.3 176.8 L243.3 176.9 L243.1 177.1 L243.0 177.2 L243.0 177.3 L243.0 177.3 L242.9 177.4 L242.8 177.4 L242.2 177.6 L242.4 177.7 L242.1 178.0 L240.3 177.4 L239.7 177.3 L239.7 177.1 L239.6 176.9 L238.1 176.4 L236.3 176.1 L234.9 175.8 L233.9 175.7 L233.7 175.6 L233.9 175.5 L233.6 175.2 L233.6 175.0 L233.6 174.4 L233.5 174.3 L233.1 174.0 L233.0 173.9 L232.8 173.9 L232.6 173.9 L231.9 174.1 L231.7 174.2 L231.6 174.3 L231.4 174.5 L231.3 174.6 L231.3 174.7 L231.4 174.8 L231.4 175.0 L231.5 175.0 L231.5 175.0 L231.7 175.1 L231.7 175.1 L231.8 175.1 L231.8 175.2 L231.9 175.3 L231.8 175.2 L231.8 175.3 L232.1 175.4 L232.1 175.6 L232.0 175.5 L231.6 175.4 L231.2 175.2 L231.0 175.1 L230.5 175.1 L230.2 174.9 L230.3 174.7 L230.4 174.7 L230.2 174.6 L230.0 174.6 L229.6 174.6 L229.3 174.7 L229.3 174.7 L229.2 174.8 L229.2 174.9 L229.2 174.9 L229.4 175.0 L229.4 175.2 L229.1 175.2 L228.9 175.1 L228.7 175.1 L228.4 175.0 L228.3 175.0 L228.2 174.8 L228.0 174.7 L227.6 174.8 L227.1 174.8 L226.5 174.9 L226.1 175.1 L225.7 175.0 L225.2 174.6 L224.8 174.5 L223.5 174.6 L223.1 174.6 L222.3 174.4 L221.7 173.9 L221.4 173.7 L220.8 173.8 L219.5 174.0 L219.2 174.1 L218.6 174.1 L218.0 174.4 L217.8 174.5 L217.7 174.4 L217.6 174.4 L217.5 174.3 L217.5 174.3 L217.4 174.4 L217.3 174.4 L217.0 174.4 L216.8 174.4 L216.6 174.3 L216.5 174.2 L216.0 173.5 L215.7 173.2 L215.3 173.0 L215.0 173.0 L214.9 173.0 L214.8 172.9 L214.7 172.8 L214.7 172.7 L214.6 172.7 L213.7 172.7 L211.7 172.3 L211.1 172.4 L210.5 172.4 L210.3 172.3 L210.4 172.1 L210.1 172.2 L209.7 172.2 L209.6 172.3 L209.3 172.5 L209.2 172.5 L209.1 172.5 L209.1 172.4 L209.0 172.4 L208.9 172.5 L208.8 172.6 L208.7 172.6 L208.6 172.6 L208.6 172.5 L208.5 172.6 L208.1 172.8 L207.7 172.9 L207.4 172.8 L207.1 172.7 L206.7 172.7 L206.4 172.5 L206.2 172.2 L205.9 171.6 L205.6 171.3 L205.2 171.2 L204.7 171.3 L204.3 171.5 L203.9 171.8 L203.7 171.9 L203.5 171.9 L203.6 171.4 L203.6 171.3 L203.6 171.2 L203.6 171.2 L203.6 171.1 L203.5 170.9 L203.4 170.8 L203.1 170.7 L202.9 170.7 L202.6 170.7 L202.0 170.8 L201.9 170.8 L201.7 170.7 L201.6 170.7 L201.4 170.7 L201.2 170.8 L201.1 170.8 L200.9 170.7 L200.1 170.5 L200.2 170.5 L198.8 170.4 L198.6 170.3 L198.6 170.1 L198.5 169.6 L198.2 169.1 L198.1 168.7 L198.0 168.5 L197.9 168.4 L197.9 168.3 L197.7 168.1 L197.6 168.1 L197.5 168.1 L197.4 168.1 L197.4 168.0 L197.4 167.9 L197.3 167.5 L197.2 167.4 L197.1 167.1 L197.1 167.0 L197.2 166.8 L197.5 166.5 L197.6 166.3 L197.5 165.9 L196.7 165.2 L196.8 164.9 L196.7 164.9 L196.7 164.4 L196.6 164.2 L196.5 164.0 L196.3 163.8 L196.2 163.7 L196.2 163.6 L196.2 163.4 L196.1 163.3 L196.3 162.0 L196.3 161.5 L195.6 159.0 L195.5 158.8 L195.1 158.5 L195.0 158.4 L195.0 158.2 L194.7 158.0 L194.5 157.9 L194.7 157.9 L194.8 157.9 L194.9 157.8 L195.1 157.8 L195.0 157.7 L195.0 157.6 L195.0 157.5 L195.1 157.4 L194.7 157.5 L194.6 157.5 L194.5 157.5 L194.5 157.5 L194.4 157.4 L194.4 157.4 L194.3 157.4 L194.3 157.3 L194.2 157.2 L194.0 157.3 L193.9 157.3 L193.9 157.2 L193.9 157.1 L193.8 157.1 L193.7 157.1 L193.7 157.0 L193.8 157.0 L193.8 156.9 L194.0 156.7 L194.1 156.7 L194.1 156.6 L193.8 156.6 L193.6 156.4 L193.4 156.2 L193.3 155.9 L193.2 156.1 L193.1 156.1 L192.8 156.1 L192.6 156.0 L192.5 155.9 L192.4 155.8 L192.3 155.8 L191.2 155.8 L191.0 155.7 L190.9 155.8 L190.7 155.7 L190.3 155.6 L189.7 155.6 L189.4 155.5 L188.8 155.3 L188.5 155.3 L187.8 155.3 L187.5 155.4 L187.2 155.5 L187.0 155.6 L186.3 155.7 L186.0 155.7 L186.0 155.8 L185.8 155.9 L185.7 156.0 L185.7 156.1 L185.7 156.1 L185.6 156.1 L185.5 156.2 L185.3 156.3 L184.6 156.7 L184.3 156.9 L184.3 157.0 L184.3 157.0 L184.1 157.1 L184.0 157.2 L183.5 157.2 L183.1 157.3 L183.0 157.3 L182.6 157.3 L182.5 157.3 L182.3 157.4 L182.2 157.5 L181.8 157.5 L181.5 157.4 L181.4 157.4 L181.2 157.5 L180.8 157.8 L180.7 157.8 L180.6 157.9 L180.0 158.5 L180.2 158.4 L180.2 158.4 L180.3 158.3 L180.4 158.6 L180.3 158.9 L180.2 159.2 L180.0 159.4 L179.7 159.7 L179.3 159.9 L178.8 160.0 L178.3 159.9 L177.5 159.7 L177.0 159.6 L176.6 159.8 L176.5 160.0 L176.4 160.2 L176.3 160.3 L176.1 160.4 L175.9 160.4 L175.4 160.5 L175.2 160.6 L174.5 161.1 L174.4 161.2 L173.4 162.0 L172.2 162.6 L172.2 162.6 L172.1 162.7 L172.0 162.7 L171.9 162.8 L171.8 162.7 L171.6 162.7 L171.5 162.6 L170.6 162.7 L170.1 162.6 L169.9 162.4 L169.8 162.1 L169.5 161.8 L169.0 161.7 L168.0 161.8 L167.7 161.6 L167.5 161.3 L167.3 161.0 L167.1 160.7 L166.8 160.4 L166.6 160.4 L166.4 160.4 L166.2 160.5 L165.3 160.5 L165.1 160.5 L164.4 160.3 L164.2 160.3 L164.1 160.3 L163.9 160.1 L163.8 160.1 L163.7 160.1 L163.5 160.1 L162.8 160.4 L162.3 160.5 L161.9 160.6 L161.6 160.6 L161.2 160.5 L160.9 160.4 L160.6 160.6 L160.5 160.5 L160.0 160.1 L159.2 159.7 L158.1 159.0 L158.0 158.8 L157.9 158.6 L157.9 158.1 L157.8 157.9 L157.6 157.7 L157.3 157.5 L153.7 156.4 L153.5 156.4 L153.2 156.3 L153.1 156.2 L153.0 156.0 L152.8 155.9 L152.2 155.7 L152.1 155.6 L152.0 155.4 L151.8 155.3 L151.3 155.1 L150.5 154.5 L150.1 154.2 L149.5 154.0 L148.7 153.7 L148.5 153.5 L148.5 153.3 L148.6 153.1 L148.7 153.1 L149.0 153.0 L149.2 153.0 L149.4 153.0 L149.5 152.9 L149.4 152.7 L149.3 152.5 L148.8 152.4 L148.7 152.3 L148.6 152.1 L148.4 151.8 L148.3 151.7 L147.5 151.0 L147.2 150.7 L146.8 150.6 L144.9 150.2 L144.5 150.0 L143.3 149.0 L142.9 148.8 L142.4 148.6 L141.9 148.5 L141.2 148.6 L141.0 148.6 L140.8 148.5 L140.5 148.5 L140.0 148.6 L139.4 148.7 L139.0 148.6 L138.0 148.4 L137.9 148.4 L137.9 148.3 L137.9 148.2 L137.8 148.2 L137.8 148.1 L137.4 148.1 L137.0 148.0 L136.8 147.7 L136.5 147.4 L136.3 147.2 L136.2 147.5 L136.0 147.5 L135.8 146.9 L135.5 146.6 L135.4 146.3 L135.0 145.7 L134.8 145.5 L134.6 145.3 L134.5 145.1 L134.8 144.5 L134.7 144.3 L134.5 144.0 L134.2 143.7 L134.0 143.5 L133.7 143.0 L133.3 142.7 L133.2 142.6 L132.6 141.2 L132.5 140.8 L132.5 139.5 L132.3 139.0 L132.1 138.6 L131.8 138.3 L131.5 138.2 L131.0 138.1 L130.6 138.0 L130.4 138.0 L130.3 137.9 L130.2 137.7 L129.7 137.1 L129.6 136.9 L129.6 136.6 L129.6 136.4 L129.8 136.3 L130.1 136.3 L130.3 136.5 L130.4 136.7 L130.5 136.8 L130.6 136.8 L130.6 136.7 L130.6 136.6 L130.6 136.5 L130.7 136.4 L130.9 136.2 L131.0 136.1 L131.0 135.9 L131.0 135.6 L130.9 135.5 L130.7 135.5 L130.6 135.2 L130.5 135.1 L130.4 135.0 L130.3 135.0 L130.2 135.1 L130.1 135.1 L130.1 135.1 L130.1 134.9 L130.1 134.8 L130.0 134.7 L129.8 134.7 L128.9 134.7 L128.8 134.8 L128.5 134.9 L128.2 134.9 L127.9 134.7 L127.8 134.4 L127.8 134.1 L127.9 134.0 L128.0 133.9 L128.0 133.7 L128.1 133.6 L128.2 133.5 L128.4 133.6 L128.4 133.2 L128.4 133.1 L128.3 133.1 L128.3 133.0 L128.1 132.8 L128.2 132.6 L128.2 132.2 L128.1 131.7 L128.1 131.5 L127.9 131.2 L127.7 131.0 L127.6 130.9 L127.6 131.2 L127.5 131.1 L127.2 130.7 L126.6 130.3 L126.5 130.2 L126.5 130.0 L126.3 129.8 L126.0 129.5 L125.3 129.3 L125.2 129.2 L125.2 129.0 L125.0 128.8 L124.7 128.5 L124.4 128.1 L124.0 127.3 L123.7 127.0 L123.5 126.9 L123.1 126.6 L122.7 126.3 L122.6 126.2 L122.6 126.1 L122.6 125.9 L122.5 125.8 L122.7 125.8 L122.7 125.7 L122.7 125.6 L122.5 125.6 L122.6 125.2 L122.4 124.6 L122.5 124.3 L122.3 124.2 L122.2 124.0 L122.0 123.8 L122.0 123.6 L121.9 123.5 L121.7 123.4 L121.7 123.4 L121.4 123.3 L121.0 123.3 L120.6 123.3 L120.2 123.5 L116.9 125.3 L116.5 125.4 L116.2 125.4 L115.9 125.0 L115.8 124.8 L115.8 124.3 L115.7 124.2 L115.7 124.1 L115.6 124.0 L115.6 124.0 L115.5 123.9 L115.4 123.9 L115.3 123.8 L115.1 123.8 L114.9 123.8 L114.7 123.9 L114.6 123.9 L114.5 123.9 L114.3 123.8 L114.2 123.8 L114.0 123.8 L113.6 123.9 L113.4 124.0 L113.1 124.0 L113.0 123.9 L113.0 123.4 L113.0 123.4 L112.8 123.3 L112.8 123.2 L112.8 123.2 L112.8 123.0 L112.8 122.9 L112.9 122.9 L112.9 122.8 L112.7 122.7 L112.7 122.9 L112.6 123.1 L112.4 123.2 L112.2 123.2 L112.0 123.1 L111.9 123.0 L111.8 122.9 L111.6 122.9 L111.4 122.8 L110.7 122.4 L110.5 122.3 L110.5 122.0 L110.3 121.8 L110.0 121.7 L109.7 121.6 L109.8 121.4 L110.0 121.4 L110.4 121.4 L110.6 121.4 L111.0 121.3 L111.2 121.3 L111.4 121.3 L111.8 121.5 L112.0 121.6 L112.2 121.6 L112.4 121.7 L112.5 121.8 L112.7 121.9 L112.7 121.8 L112.9 121.5 L113.2 121.1 L113.3 121.0 L113.3 120.8 L113.1 120.9 L112.9 120.8 L112.8 120.6 L112.8 120.2 L112.6 120.3 L112.5 120.4 L112.3 120.6 L112.3 120.4 L112.3 120.4 L112.4 120.3 L112.3 120.2 L112.2 120.2 L112.1 120.3 L111.9 120.3 L111.9 120.3 L111.8 120.2 L111.7 120.1 L111.6 120.1 L111.5 120.2 L111.5 120.2 L111.2 120.2 L111.1 120.1 L110.9 120.1 L110.7 120.2 L110.3 120.1 L110.0 120.3 L109.9 120.5 L110.2 120.6 L110.6 120.7 L110.8 120.8 L110.9 121.0 L110.7 121.2 L110.5 121.2 L109.9 121.1 L109.8 121.2 L109.2 121.6 L109.2 121.7 L109.1 121.8 L109.1 121.9 L109.2 122.0 L109.1 122.1 L109.1 122.2 L109.0 122.3 L109.1 122.5 L109.3 122.7 L109.5 122.8 L109.7 123.0 L109.8 123.1 L109.8 123.4 L109.9 123.9 L109.9 124.0 L109.8 124.2 L109.7 124.3 L109.8 124.4 L109.8 124.6 L109.8 124.8 L109.8 125.0 L109.6 125.2 L109.4 125.3 L109.2 125.4 L108.5 125.3 L108.3 125.4 L108.1 125.3 L107.4 125.3 L106.9 125.1 L106.7 125.0 L106.7 125.2 L106.8 125.3 L106.9 125.5 L106.9 125.7 L106.9 125.8 L106.8 125.9 L106.7 126.0 L106.6 126.0 L106.4 126.1 L105.6 126.0 L105.6 125.9 L105.5 126.0 L105.5 126.0 L105.5 126.0 L105.1 125.9 L105.0 125.8 L104.8 125.7 L104.8 125.7 L104.7 125.6 L104.6 125.4 L104.6 125.3 L104.4 124.7 L104.4 124.7 L104.3 124.6 L104.1 124.4 L104.0 124.1 L103.9 124.1 L104.0 124.0 L104.1 123.9 L104.2 123.8 L104.2 123.7 L104.3 123.6 L104.2 123.5 L104.2 123.4 L104.1 123.3 L103.7 122.9 L103.4 122.6 L103.1 122.3 L103.0 122.2 L102.9 122.2 L102.8 122.2 L102.4 122.2 L102.3 122.2 L102.1 122.2 L102.0 122.2 L101.9 122.1 L101.9 122.0 L101.8 121.5 L101.7 121.3 L101.6 121.1 L101.4 120.9 L101.3 120.9 L101.2 120.8 L100.1 120.7 L100.0 120.4 L100.1 115.3 L100.0 115.1 L99.9 115.1 L96.4 115.1 L96.5 112.5 L96.5 110.7 L98.1 106.9 L98.2 106.7 L98.2 106.5 L98.0 106.3 L97.6 106.0 L97.4 105.8 L97.4 105.8 L97.3 105.6 L97.3 105.5 L97.2 105.4 L97.0 105.3 L96.9 105.2 L96.5 104.7 L96.5 104.5 L96.5 104.5 L96.4 104.3 L96.0 104.1 L95.9 104.0 L95.6 103.5 L95.5 103.3 L95.4 103.3 L95.2 103.2 L95.1 103.2 L95.0 103.1 L94.9 103.0 L94.8 102.9 L94.6 102.9 L94.5 102.8 L94.5 102.7 L94.5 102.6 L94.6 102.5 L94.6 102.4 L94.7 102.3 L94.7 102.1 L94.6 102.0 L94.4 101.9 L94.4 101.7 L94.3 101.7 L94.2 101.6 L94.0 101.4 L94.0 101.3 L93.9 101.3 L93.6 101.0 L93.6 101.0 L93.5 100.8 L93.5 100.8 L93.5 100.7 L93.6 100.5 L93.7 100.5 L93.7 100.4 L93.7 100.3 L93.7 100.2 L93.4 100.0 L93.2 99.8 L93.1 99.7 L92.9 99.5 L92.7 99.4 L92.1 99.3 L92.0 99.3 L91.5 99.5 L91.3 99.5 L90.9 99.6 L90.6 99.5 L90.3 99.4 L89.9 99.2 L89.9 99.2 L89.9 99.2 L86.7 96.8 L86.3 96.4 L85.6 96.0 L85.1 95.7 L85.1 95.7 L84.1 95.2 L83.8 94.9 L82.7 94.5 L81.6 94.2 L80.3 94.3 L79.7 94.3 L79.5 93.9 L79.5 93.9 L79.6 93.7 L79.8 93.6 L80.0 93.5 L80.0 93.3 L80.0 93.1 L79.8 93.0 L79.6 93.0 L79.2 92.9 L79.0 92.8 L79.0 92.7 L79.2 92.6 L79.5 92.6 L79.6 92.6 L79.8 92.5 L80.0 92.4 L80.3 92.2 L80.5 92.0 L80.5 91.9 L80.5 91.8 L80.4 91.7 L80.4 91.6 L80.4 91.5 L80.4 91.3 L80.4 91.2 L80.3 91.0 L80.2 90.9 L79.9 90.7 L79.4 90.2 L79.1 89.9 L79.0 89.7 L79.0 89.6 L79.0 89.4 L78.9 89.2 L78.8 89.0 L78.4 88.6 L78.4 88.6 L78.4 88.6 L78.3 88.5 L78.3 88.5 L78.3 88.5 L78.2 88.5 L78.2 88.6 L78.0 88.7 L77.6 88.8 L77.3 88.7 L77.1 88.6 L77.3 88.4 L77.8 88.1 L77.9 88.0 L77.9 87.7 L77.6 87.6 L77.4 87.4 L77.5 87.1 L77.3 87.2 L76.7 87.2 L76.6 87.2 L76.2 87.5 L76.1 87.6 L75.9 87.6 L75.8 87.5 L75.8 87.2 L75.8 87.1 L75.7 87.0 L75.2 86.7 L75.1 86.6 L74.9 86.4 L74.8 86.2 L74.8 86.0 L74.7 85.8 L74.6 85.7 L74.5 85.5 L74.3 85.4 L74.2 85.3 L73.2 83.8 L73.2 83.8 L73.2 83.8 L73.2 83.8 L72.9 83.9 L72.6 83.8 L72.3 83.7 L72.1 83.5 L72.4 83.4 L72.5 83.3 L72.5 83.3 L72.5 83.3 L72.5 83.3 L72.7 83.0 L72.8 82.7 L72.9 82.5 L73.2 82.3 L73.3 82.1 L73.8 81.8 L73.9 81.7 L73.9 81.6 L73.8 81.5 L73.7 81.4 L73.7 81.3 L73.7 81.2 L73.9 81.0 L73.9 80.9 L74.0 80.4 L74.1 80.1 L74.0 79.9 L73.8 79.7 L73.6 79.6 L73.4 79.6 L73.2 79.7 L73.0 79.6 L72.8 79.4 L72.5 78.5 L72.6 78.3 L73.2 78.2 L73.3 78.2 L73.3 78.1 L73.4 78.0 L73.4 78.0 L73.5 77.6 L73.4 77.2 L73.4 76.9 L73.8 77.0 L74.2 77.2 L74.5 77.2 L75.2 77.3 L75.5 77.4 L75.5 77.4 L75.6 77.3 L75.6 77.2 L75.6 77.1 L75.6 77.0 L75.5 76.9 L75.4 76.7 L75.4 76.5 L75.4 76.3 L75.3 76.2 L75.3 76.1 L75.2 76.1 L75.2 76.0 L75.2 75.9 L75.1 75.8 L75.0 75.7 L74.9 75.7 L74.7 75.6 L74.8 75.4 L75.1 75.1 L75.2 75.0 L75.1 74.8 L75.2 74.6 L75.3 74.5 L75.4 74.5 L75.7 74.4 L76.0 74.3 L76.1 74.0 L76.0 73.8 L76.1 73.5 L76.3 73.5 L76.5 73.6 L76.7 73.7 L77.0 73.8 L77.1 73.6 L77.2 73.3 L77.3 73.1 L77.3 72.9 L77.2 72.7 L77.2 72.7 L77.2 72.5 L77.2 72.4 L77.2 72.2 L77.3 72.2 L77.4 72.1 L77.6 72.1 L77.6 72.1 L77.7 72.0 L77.6 71.9 L77.6 71.9 L77.8 71.7 L77.9 71.6 L78.0 71.7 L78.2 71.8 L78.3 71.8 L78.5 71.8 L78.8 71.9 L79.0 71.9 L79.1 71.8 L79.4 71.7 L79.5 71.6 L79.7 71.7 L80.0 71.6 L80.1 71.6 L80.2 71.5 L80.3 71.4 L80.1 71.2 L80.2 70.9 L80.5 70.6 L80.5 70.3 L80.3 70.2 L79.9 70.2 L79.8 70.1 L79.7 69.9 L79.8 69.8 L80.0 69.7 L80.0 69.6 L80.1 69.5 L80.0 69.2 L79.7 69.0 L79.1 68.5 L78.5 67.7 L78.3 67.4 L78.3 67.3 L78.3 67.2 L78.4 67.1 L78.5 67.0 L78.5 67.0 L78.5 67.0 L78.5 66.9 L78.5 66.9 L78.4 66.7 L78.3 66.5 L78.3 66.4 L78.4 66.4 L78.7 66.5 L78.7 66.4 L78.6 66.0 L78.6 65.8 L78.7 65.6 L78.7 65.4 L78.9 65.3 L79.1 65.3 L79.8 65.3 L80.1 65.2 L80.6 65.0 L81.0 65.0 L81.2 65.0 L81.4 64.9 L81.5 64.7 L81.9 64.5 L82.0 64.4 L82.1 64.2 L82.2 64.1 L82.1 63.9 L81.9 63.8 L81.7 63.8 L81.5 63.9 L81.3 64.0 L81.1 64.1 L80.7 64.1 L80.4 64.1 L80.2 64.1 L80.1 64.0 L80.1 63.9 L80.0 63.9 L80.0 63.7 L79.9 63.6 L79.8 63.6 L79.5 63.5 L79.3 63.5 L79.2 63.6 L79.0 63.7 L78.8 63.7 L78.1 63.7 L77.7 63.8 L77.6 63.8 L77.5 63.7 L77.4 63.7 L77.2 63.9 L76.9 64.0 L76.7 64.0 L76.6 63.9 L76.4 63.9 L76.0 64.0 L75.8 64.0 L75.7 63.8 L75.4 63.3 L75.0 62.7 L74.6 62.5 L74.4 62.4 L74.2 62.3 L73.8 62.1 L73.4 61.9 L73.2 61.9 L72.9 61.9 L72.5 62.0 L72.4 62.1 L72.4 62.1 L72.4 62.1 L72.4 62.1 L72.1 62.2 L71.9 62.2 L71.7 62.2 L71.5 62.1 L71.5 62.1 L71.5 62.1 L71.5 62.1 L71.4 61.9 L71.5 61.7 L71.6 61.4 L71.7 61.3 L71.8 61.1 L71.7 60.8 L71.3 60.5 L71.3 60.3 L71.3 59.8 L71.2 59.6 L71.1 59.5 L70.9 59.3 L70.8 59.2 L71.1 59.1 L70.9 58.9 L70.8 58.7 L70.8 58.2 L70.7 58.0 L70.6 57.7 L70.4 57.5 L70.2 57.5 L69.6 57.7 L69.3 57.7 L69.0 57.6 L68.9 57.5 L68.8 57.4 L68.8 57.3 L68.8 57.2 L68.7 57.1 L68.6 57.0 L68.5 56.9 L68.5 56.8 L68.4 56.6 L68.2 56.5 L68.2 56.5 L68.0 56.3 L68.0 56.2 L68.1 56.1 L68.2 56.1 L68.2 56.1 L68.2 55.9 L68.4 55.5 L68.6 55.1 L68.6 54.9 L68.5 54.7 L68.2 54.3 L68.1 54.1 L67.9 54.0 L67.7 54.0 L67.6 54.0 L67.5 54.0 L67.4 53.9 L67.3 53.8 L67.1 53.7 L66.8 53.8 L66.5 53.7 L66.3 53.6 L66.2 53.4 L66.3 53.1 L66.7 52.8 L66.9 52.6 L66.9 52.3 L66.9 52.1 L66.8 51.9 L66.7 51.7 L66.8 51.5 L66.9 51.3 L66.9 51.2 L66.8 51.1 L66.6 51.0 L66.5 50.9 L66.4 50.9 L66.3 50.9 L66.1 50.9 L66.0 50.9 L65.9 50.9 L65.9 50.7 L65.9 50.6 L65.8 50.6 L65.7 50.6 L65.6 50.6 L65.6 50.5 L65.5 50.3 L65.5 50.2 L65.6 49.9 L65.7 49.7 L65.6 49.5 L65.5 49.3 L65.5 49.1 L65.6 48.9 L65.7 48.8 L65.8 48.8 L66.0 48.6 L66.0 48.3 L65.8 48.1 L65.1 47.7 L65.1 47.6 L65.0 47.5 L64.9 47.4 L64.5 47.4 L64.4 47.3 L64.3 47.0 L64.1 46.9 L63.7 46.9 L63.6 46.8 L63.5 46.6 L63.6 46.3 L63.6 46.2 L63.6 46.1 L63.5 45.9 L63.6 45.7 L63.6 45.4 L63.7 45.2 L63.7 45.0 L63.4 44.9 L63.2 44.7 L63.3 44.4 L63.4 44.3 L63.7 44.0 L63.8 43.9 L63.8 43.8 L63.4 43.4 L63.2 43.2 L62.9 43.1 L62.6 43.2 L62.4 43.2 L62.3 43.3 L62.1 43.2 L62.0 43.1 L62.1 43.1 L62.1 42.9 L62.1 42.8 L62.0 42.8 L61.9 42.8 L61.9 42.8 L61.8 42.8 L61.7 42.7 L61.6 42.6 L61.6 42.4 L61.5 42.3 L61.4 42.3 L61.0 42.1 L60.9 42.1 L60.2 42.2 L59.8 42.1 L59.6 41.9 L59.7 41.8 L59.7 41.8 L59.8 41.6 L59.9 41.5 L59.9 41.4 L59.8 41.3 L59.8 41.1 L59.9 41.0 L60.0 40.8 L60.0 40.8 L60.1 40.7 L60.4 40.5 L60.4 40.3 L60.5 40.1 L60.6 39.9 L60.8 39.9 L61.0 39.8 L61.0 39.7 L60.9 39.5 L61.0 39.4 L61.0 39.4 L61.2 39.3 L61.3 39.2 L61.4 39.1 L61.5 38.9 L61.5 38.6 L61.4 38.1 L61.7 37.9 L62.1 37.6 L62.4 37.4 L62.4 37.2 L62.3 37.0 L62.1 36.9 L62.0 36.8 L61.8 36.7 L61.7 36.8 L61.3 36.9 L60.8 36.8 L60.7 36.8 L60.6 36.7 L60.5 36.6 L60.6 36.5 L60.6 36.4 L60.5 36.1 L60.5 36.0 L60.7 35.5 L60.7 35.4 L60.6 34.8 L60.6 34.4 L60.6 34.2 L60.6 34.0 L60.5 33.9 L60.4 33.9 L60.2 33.9 L60.1 33.8 L60.1 33.7 L60.2 33.7 L60.3 33.6 L60.2 33.4 L60.1 33.3 L60.1 33.1 L60.2 32.9 L60.5 32.2 L60.4 31.8 L59.8 31.6 L59.7 31.5 L59.5 31.3 L59.4 31.1 L59.4 31.0 L59.3 30.9 L59.4 30.9 L59.3 30.8 L59.3 30.7 L59.2 30.6 L59.1 30.6 L59.1 30.4 L59.0 30.3 L59.0 30.2 L59.0 30.2 L59.1 30.0 L59.3 29.9 L59.4 29.8 L59.3 29.4 L59.3 29.2 L59.6 28.9 L59.5 28.6 L59.1 28.4 L58.6 28.2 L58.3 28.1 L58.3 28.0 L58.4 27.8 L58.4 27.7 L58.2 27.5 L58.2 27.4 L58.2 27.3 L58.2 27.2 L58.2 27.1 L58.1 26.9 L58.0 26.7 L58.0 26.6 L58.0 26.6 L57.7 26.3 L57.7 26.2 L57.8 26.1 L58.0 26.0 L58.1 25.9 L58.3 25.9 L58.5 26.0 L58.8 25.9 L59.4 25.8 L59.6 25.8 L60.4 26.1 L60.6 26.1 L60.9 26.1 L61.4 25.9 L61.6 25.8 L61.8 25.6 L61.8 25.4 L61.8 25.2 L61.8 24.9 L61.8 24.9 L61.9 24.8 L61.9 24.7 L61.9 24.6 L61.9 24.4 L61.9 24.2 L61.9 24.1 L62.3 23.5 L62.3 23.4 L62.4 23.4 L62.4 23.2 L62.3 22.9 L62.4 22.8 L63.5 22.1 L63.8 22.0 L63.9 22.1 L64.2 22.4 L64.3 22.6 L65.0 22.8 L65.2 22.9 L66.1 23.4 Z" fill="#172033" fill-rule="evenodd"/></svg>
