<svg xmlns="http://www.w3.org/2000/svg" viewBox="0 0 320 200" role="img"><path d="M271.5 64.5 L270.3 65.1 L265.9 65.9 L263.9 66.5 L261.6 66.7 L260.8 67.0 L260.2 67.4 L260.8 67.5 L261.1 67.7 L261.2 67.9 L261.4 67.9 L261.9 68.4 L262.0 68.5 L262.2 68.6 L262.1 68.9 L261.8 69.3 L261.6 69.5 L259.2 70.5 L258.7 70.5 L257.2 70.6 L256.5 70.8 L256.1 71.4 L256.8 71.6 L257.2 71.7 L258.7 71.7 L259.0 71.9 L259.2 72.4 L258.9 72.5 L258.4 72.7 L258.1 72.8 L258.7 72.9 L261.5 73.0 L263.1 73.3 L264.2 73.2 L266.3 72.5 L267.6 72.4 L268.1 72.5 L268.6 72.8 L269.0 73.1 L269.1 73.7 L269.3 74.0 L269.6 74.1 L270.0 74.1 L270.1 74.2 L270.2 74.5 L270.4 75.1 L270.5 75.3 L270.4 75.4 L270.1 75.6 L270.0 75.7 L270.0 75.8 L270.0 76.1 L270.0 76.2 L269.4 76.8 L269.3 77.0 L269.0 77.1 L267.4 77.9 L265.6 78.5 L265.0 78.8 L265.0 79.2 L264.5 79.6 L263.3 80.1 L264.0 80.1 L264.7 79.9 L265.9 79.3 L265.5 79.8 L264.8 80.3 L264.5 80.8 L265.3 81.0 L266.2 80.9 L268.2 80.4 L273.6 79.8 L275.5 79.4 L276.5 79.2 L277.3 79.6 L276.2 80.7 L275.6 80.9 L275.7 81.1 L275.9 81.3 L276.0 81.4 L276.1 81.5 L276.7 81.7 L278.2 82.1 L278.7 82.3 L277.4 82.5 L276.6 82.8 L276.0 83.4 L274.7 84.0 L274.2 84.6 L272.3 85.5 L271.9 85.8 L271.6 86.2 L271.5 86.6 L271.8 86.4 L272.4 85.9 L272.6 85.8 L272.9 85.7 L273.8 85.4 L274.0 85.2 L274.5 84.8 L277.6 82.9 L278.1 82.7 L278.8 82.8 L280.8 83.4 L280.4 83.1 L279.7 82.8 L279.4 82.5 L284.9 83.9 L285.6 83.9 L288.3 83.7 L288.8 83.7 L289.1 83.8 L289.3 84.1 L289.3 84.4 L289.2 84.5 L288.8 84.6 L288.8 84.7 L289.6 84.7 L290.0 84.8 L290.2 84.9 L290.2 85.1 L290.2 85.3 L290.0 85.6 L290.2 85.8 L290.4 85.9 L290.9 86.1 L292.0 85.4 L292.7 85.2 L293.4 85.3 L293.6 85.4 L293.6 85.5 L293.6 85.7 L293.6 85.8 L293.8 85.8 L294.1 85.8 L294.3 85.8 L295.2 86.2 L295.3 86.3 L295.4 86.9 L295.0 87.2 L294.6 87.4 L294.3 87.7 L294.4 87.8 L294.6 88.3 L294.7 88.5 L294.5 88.6 L293.6 88.9 L293.9 89.0 L293.9 89.2 L293.8 89.4 L293.8 89.7 L293.0 90.0 L290.7 89.8 L289.7 90.1 L290.3 90.3 L292.2 90.6 L292.3 91.0 L291.8 91.3 L291.0 91.4 L289.7 91.4 L289.2 91.5 L288.1 91.8 L286.0 91.9 L285.4 92.1 L285.8 92.3 L289.8 91.7 L291.0 91.8 L293.4 91.5 L294.1 91.6 L295.4 91.9 L296.0 92.2 L296.2 92.5 L296.4 92.6 L295.8 92.8 L294.8 93.5 L294.2 93.7 L291.0 94.0 L287.7 94.0 L286.3 94.2 L284.7 94.2 L285.5 94.4 L288.4 94.2 L292.2 94.3 L294.0 94.2 L294.9 94.2 L295.2 94.2 L295.0 94.4 L294.7 94.7 L294.6 94.9 L294.6 95.0 L294.6 95.1 L294.5 95.2 L293.5 95.4 L292.7 95.4 L291.9 95.5 L291.9 95.7 L293.8 95.6 L294.3 95.7 L294.3 95.9 L294.1 95.9 L293.8 96.0 L293.6 96.1 L293.4 96.2 L294.2 96.2 L294.5 96.3 L294.7 96.4 L294.8 96.5 L294.9 96.6 L295.2 96.5 L295.6 96.1 L295.8 96.1 L295.8 96.0 L296.5 95.4 L297.6 94.9 L297.6 95.2 L297.6 95.8 L297.5 96.3 L297.4 96.6 L297.4 96.8 L297.9 96.9 L298.0 97.1 L297.8 97.4 L297.4 97.8 L296.9 98.0 L295.8 98.1 L295.3 98.3 L295.8 98.6 L296.0 98.9 L295.9 99.0 L295.5 99.1 L294.8 99.4 L294.4 99.5 L292.6 99.3 L291.0 99.4 L290.5 99.3 L290.3 99.1 L290.1 98.7 L289.8 98.4 L289.4 98.3 L289.0 98.2 L288.2 98.0 L286.9 97.8 L285.5 97.2 L284.7 97.1 L284.9 97.4 L285.1 97.6 L285.4 97.7 L285.7 97.8 L284.8 98.2 L279.7 98.3 L279.7 98.5 L287.6 98.8 L287.9 98.9 L288.2 99.1 L288.5 99.3 L288.7 99.6 L288.9 99.7 L290.0 100.2 L292.6 100.7 L293.1 101.0 L292.1 101.4 L290.8 101.3 L288.7 100.9 L286.2 101.0 L284.6 100.8 L284.2 100.9 L285.7 101.3 L289.3 101.7 L290.9 102.2 L291.1 102.4 L291.3 102.6 L291.4 102.8 L291.1 102.9 L290.7 103.0 L290.1 103.3 L289.8 103.4 L287.2 103.0 L286.4 103.3 L289.1 103.7 L289.6 103.9 L289.6 104.2 L288.9 104.3 L286.0 104.2 L285.2 104.1 L285.1 104.2 L284.9 104.3 L284.4 104.5 L284.4 104.6 L285.1 105.0 L285.5 105.3 L285.9 105.7 L285.5 105.7 L284.4 106.2 L278.8 106.7 L277.9 106.6 L277.4 106.4 L277.1 106.3 L276.4 105.3 L275.7 105.0 L275.1 104.4 L274.7 104.3 L272.7 104.1 L273.0 104.3 L273.2 104.3 L273.8 104.3 L274.2 104.4 L274.1 104.7 L274.0 105.0 L273.9 105.1 L274.3 105.3 L275.6 105.6 L276.0 105.7 L276.0 105.8 L275.9 106.1 L276.3 106.5 L276.8 106.9 L277.1 107.0 L278.4 107.2 L278.8 107.4 L278.5 107.7 L278.7 107.9 L274.5 107.3 L273.2 107.7 L273.6 107.9 L274.6 108.1 L275.1 108.4 L275.4 108.7 L275.3 108.9 L275.1 109.1 L274.6 109.2 L271.3 109.2 L271.0 109.4 L271.3 109.7 L271.8 110.0 L272.0 110.0 L272.3 110.3 L272.8 110.4 L273.3 110.5 L273.4 110.3 L274.4 110.2 L276.0 109.2 L276.8 108.9 L276.9 109.0 L276.5 109.3 L274.2 110.5 L273.9 110.8 L273.8 111.0 L273.8 111.5 L273.6 111.7 L272.8 112.4 L272.7 112.6 L272.7 112.8 L272.8 112.8 L272.8 113.0 L272.8 113.1 L272.7 113.2 L272.5 113.2 L272.4 113.3 L272.4 113.5 L272.3 113.6 L272.0 114.0 L271.9 114.0 L269.3 114.2 L267.5 114.4 L266.9 114.6 L268.0 114.2 L270.2 113.9 L271.4 113.7 L270.7 113.5 L267.9 113.3 L267.7 113.4 L267.7 113.5 L267.8 113.8 L267.7 113.9 L267.5 113.9 L266.9 114.2 L266.6 114.2 L266.5 114.3 L266.0 114.7 L265.7 114.9 L264.3 115.2 L263.8 115.5 L263.3 115.8 L262.9 116.1 L263.1 115.8 L263.2 115.7 L263.3 115.6 L263.3 115.4 L263.1 115.4 L262.9 115.7 L262.6 115.9 L262.1 116.0 L261.8 116.1 L261.7 116.2 L261.8 116.4 L262.0 116.6 L262.3 116.6 L262.8 116.6 L263.0 116.6 L263.3 116.5 L263.4 116.8 L263.6 117.1 L263.1 117.1 L262.3 117.6 L261.8 117.7 L260.7 117.6 L260.2 117.5 L259.7 117.3 L258.9 116.9 L258.4 116.7 L257.9 116.6 L257.7 116.7 L257.2 117.0 L257.0 117.1 L256.7 117.1 L256.4 117.0 L256.1 117.0 L255.8 117.1 L256.1 117.3 L255.8 117.4 L255.5 117.5 L254.9 117.5 L255.4 116.8 L255.4 116.6 L254.6 116.7 L254.2 116.7 L254.0 116.5 L253.9 116.2 L253.6 115.9 L253.3 115.8 L253.0 115.9 L253.0 116.1 L253.2 116.2 L253.4 116.4 L253.5 116.5 L253.5 116.8 L253.2 116.7 L252.5 116.6 L252.2 116.5 L252.2 116.3 L252.4 115.9 L252.0 115.4 L251.4 114.9 L250.9 114.7 L250.3 114.5 L249.4 114.3 L248.7 114.2 L249.1 114.4 L250.0 114.5 L250.5 114.7 L250.8 114.9 L251.2 115.5 L251.5 115.8 L251.3 115.9 L251.0 115.9 L250.8 115.9 L250.6 115.8 L250.6 115.9 L251.1 116.1 L251.2 116.5 L251.0 117.0 L250.6 117.3 L250.0 117.5 L248.6 117.3 L248.0 117.5 L248.4 117.6 L248.8 117.7 L249.6 117.7 L249.0 117.9 L247.4 118.1 L245.9 118.2 L244.4 118.5 L243.8 118.7 L243.6 118.6 L243.5 118.4 L243.4 118.3 L242.7 118.8 L240.5 119.5 L242.6 119.2 L243.1 119.4 L242.2 119.7 L235.8 120.6 L234.8 120.9 L236.0 120.9 L236.0 121.1 L234.4 121.7 L233.9 121.8 L233.7 121.8 L232.8 122.3 L232.2 122.5 L232.0 122.6 L231.8 122.8 L231.5 122.6 L231.3 122.5 L231.0 122.6 L230.7 122.8 L230.7 123.0 L231.1 123.0 L231.1 123.1 L229.6 123.6 L229.0 123.7 L229.2 123.3 L227.8 123.7 L227.2 124.1 L226.8 124.5 L227.2 124.5 L227.5 124.4 L227.8 124.2 L227.1 124.8 L226.8 125.0 L225.0 125.7 L223.8 126.6 L223.0 126.7 L223.3 126.7 L223.6 126.5 L223.9 126.4 L224.0 126.1 L220.3 127.4 L216.9 127.9 L216.4 127.8 L216.0 127.6 L216.2 127.7 L216.4 127.9 L216.6 127.9 L216.9 127.9 L216.4 128.1 L216.0 128.1 L216.1 128.4 L216.1 128.7 L215.9 129.0 L215.6 129.1 L215.5 129.1 L215.5 128.9 L215.5 128.5 L215.4 128.5 L215.0 128.3 L214.0 127.7 L213.8 127.6 L213.4 127.5 L213.2 127.6 L213.1 127.8 L213.1 128.2 L213.2 128.7 L213.2 129.0 L213.0 129.1 L212.7 129.0 L212.6 128.8 L212.7 128.2 L212.7 128.0 L212.5 127.7 L212.3 127.5 L212.2 127.7 L212.2 128.3 L212.2 128.7 L212.1 128.9 L212.4 129.2 L212.3 129.3 L211.9 129.5 L211.4 129.5 L211.7 128.9 L211.7 128.7 L211.5 128.5 L211.6 128.2 L211.7 128.1 L211.8 128.1 L212.0 128.0 L212.0 127.9 L211.9 127.8 L211.9 127.8 L212.0 127.1 L212.0 126.7 L212.0 126.6 L211.9 126.5 L211.6 126.3 L211.3 126.2 L211.2 126.3 L211.1 127.0 L211.2 127.2 L211.4 127.4 L211.0 127.6 L210.5 127.6 L210.1 127.6 L209.8 127.9 L210.1 128.2 L210.3 128.5 L210.4 128.7 L210.9 128.9 L210.4 129.2 L209.5 129.3 L207.7 129.3 L207.3 129.2 L206.4 128.9 L206.1 129.1 L205.7 129.2 L205.5 129.2 L205.4 128.8 L202.3 129.6 L198.9 130.2 L196.5 130.4 L196.8 130.2 L197.0 130.0 L196.9 129.7 L196.8 129.5 L196.6 129.8 L196.3 130.1 L196.0 130.2 L195.6 130.0 L195.7 130.1 L195.7 130.2 L195.7 130.2 L195.8 130.3 L195.8 130.5 L192.5 131.5 L192.8 131.0 L193.4 130.7 L194.2 130.5 L194.9 130.5 L194.9 130.3 L193.3 129.9 L192.7 129.6 L192.5 130.0 L192.6 130.1 L192.7 130.3 L192.0 130.5 L191.4 130.5 L190.8 130.3 L190.1 130.3 L190.6 130.5 L190.6 130.7 L190.0 130.7 L189.7 130.7 L189.4 130.9 L189.0 130.7 L188.6 130.9 L188.2 131.2 L188.1 131.5 L187.9 131.9 L187.6 132.2 L187.1 132.3 L186.7 132.0 L186.4 132.3 L186.2 132.5 L186.4 132.7 L186.8 132.7 L187.1 132.7 L187.6 132.4 L188.0 132.4 L189.9 132.5 L190.6 132.4 L189.5 133.3 L188.9 133.6 L188.2 133.4 L188.3 133.4 L188.3 133.4 L188.4 133.4 L188.4 133.3 L187.4 133.3 L187.4 133.5 L186.7 133.5 L186.3 133.6 L186.6 133.6 L186.9 133.7 L187.0 133.8 L186.9 134.1 L188.7 134.1 L189.1 133.9 L188.5 134.8 L187.6 135.5 L186.4 136.1 L183.9 136.6 L182.2 137.2 L180.7 137.4 L179.8 136.8 L180.2 136.7 L180.9 136.5 L181.1 136.4 L181.5 136.1 L181.8 136.0 L182.6 136.0 L182.6 135.8 L181.9 135.8 L180.5 136.0 L179.8 136.0 L178.1 135.5 L177.6 135.5 L177.8 135.7 L177.6 135.7 L177.5 135.7 L177.4 135.8 L177.7 136.0 L178.2 136.4 L178.4 136.5 L178.6 136.6 L178.7 137.0 L178.8 137.4 L178.9 137.5 L179.9 137.5 L180.5 137.5 L180.9 137.6 L175.6 137.9 L172.5 138.6 L167.2 139.3 L166.0 139.2 L161.2 138.6 L159.1 138.8 L158.4 138.7 L158.7 138.7 L158.8 138.7 L158.9 138.6 L158.0 138.5 L157.6 138.4 L157.2 138.2 L156.7 138.5 L153.4 138.2 L153.0 138.1 L151.7 137.7 L149.7 137.5 L146.8 136.6 L142.7 136.1 L141.9 135.8 L142.3 135.8 L142.5 135.7 L142.5 135.6 L142.1 135.5 L141.8 135.5 L141.4 135.6 L141.1 135.7 L138.7 135.5 L138.8 135.6 L141.3 135.8 L134.7 135.6 L134.3 135.3 L134.1 135.3 L134.1 135.4 L134.0 135.4 L133.9 135.5 L133.8 135.4 L133.7 135.3 L133.6 135.3 L133.7 135.7 L131.8 135.7 L130.9 135.6 L127.1 134.1 L126.7 133.9 L127.1 134.1 L127.5 134.1 L127.9 134.1 L128.3 133.9 L127.9 133.9 L127.4 133.8 L127.0 133.8 L127.2 133.4 L127.2 133.3 L126.8 133.6 L126.3 133.7 L125.9 133.6 L125.3 133.4 L125.3 133.3 L126.2 133.4 L125.9 133.0 L125.4 132.8 L124.9 132.6 L124.5 132.4 L124.1 132.0 L123.9 131.7 L123.6 131.5 L122.9 131.5 L122.9 131.7 L123.8 132.2 L124.3 132.7 L124.7 133.1 L123.0 132.4 L122.2 132.0 L121.8 131.4 L121.9 131.3 L122.1 131.2 L121.9 131.1 L121.6 130.7 L122.3 130.3 L123.1 130.1 L124.7 130.0 L125.5 130.1 L126.9 130.8 L127.7 130.9 L127.3 130.6 L126.7 130.1 L126.4 130.0 L124.5 129.5 L125.2 128.9 L125.3 128.6 L125.2 128.3 L125.0 128.2 L124.7 128.3 L124.8 128.5 L124.8 128.6 L124.5 128.9 L123.4 129.5 L122.7 129.8 L122.3 130.1 L121.7 130.2 L121.5 130.3 L121.4 130.5 L121.5 130.8 L121.4 131.0 L121.2 131.3 L121.1 131.3 L120.0 131.0 L118.9 130.6 L118.0 130.4 L116.3 129.8 L117.9 129.8 L118.2 129.9 L118.8 130.1 L119.2 130.2 L119.2 130.0 L119.5 130.0 L120.4 130.0 L120.4 129.8 L119.7 129.8 L119.7 129.6 L119.8 129.6 L119.9 129.6 L120.0 129.6 L120.0 129.5 L118.3 129.7 L117.6 129.6 L117.6 129.5 L118.5 129.0 L118.7 128.2 L118.4 127.6 L117.4 127.4 L117.4 127.6 L118.1 127.7 L118.1 128.1 L117.6 128.5 L116.7 129.0 L116.1 129.2 L115.4 129.3 L114.7 129.1 L115.0 129.5 L115.1 129.6 L114.1 129.2 L111.8 128.5 L108.6 128.0 L107.5 127.6 L106.9 127.5 L106.3 127.3 L105.8 126.9 L105.9 126.7 L105.9 126.5 L105.6 125.9 L107.6 125.9 L108.7 125.8 L109.4 125.5 L107.5 125.5 L106.3 125.2 L105.9 125.2 L104.6 125.3 L104.3 125.4 L104.1 125.6 L103.3 126.0 L103.1 126.1 L103.1 126.2 L104.3 126.5 L105.0 126.7 L105.3 127.1 L104.8 127.0 L103.6 126.9 L102.5 126.9 L101.8 127.1 L101.4 127.3 L101.7 127.8 L101.6 127.8 L101.5 127.8 L101.4 127.9 L101.3 127.9 L94.0 128.4 L93.1 128.1 L92.3 127.7 L91.5 127.5 L90.7 127.4 L86.5 128.1 L85.5 128.1 L85.2 128.1 L83.9 128.3 L77.1 127.6 L76.6 127.8 L76.1 128.1 L75.7 128.3 L75.1 128.1 L75.5 127.9 L74.9 127.9 L73.9 128.2 L73.1 128.3 L72.7 128.5 L72.4 128.6 L72.1 128.6 L69.7 128.5 L69.1 128.6 L69.0 128.7 L68.9 128.8 L68.7 128.9 L68.5 128.9 L68.2 128.9 L67.8 128.5 L67.6 128.5 L67.7 128.2 L67.9 128.0 L68.1 127.9 L68.1 127.6 L68.0 127.3 L67.8 127.2 L67.5 127.1 L67.2 126.9 L67.6 126.6 L68.1 125.7 L68.4 125.5 L69.5 125.5 L69.6 125.4 L69.5 125.2 L69.3 125.2 L68.7 125.4 L68.2 125.3 L67.7 125.1 L67.3 124.8 L67.1 124.3 L67.5 123.9 L67.6 123.7 L67.6 123.4 L67.6 122.8 L67.6 122.6 L67.5 122.4 L67.7 122.2 L68.0 122.0 L68.3 121.9 L68.6 122.0 L69.4 122.4 L70.3 122.6 L70.9 123.1 L71.5 123.7 L71.9 124.3 L71.5 124.3 L71.9 124.6 L72.5 124.7 L75.0 124.7 L75.6 124.7 L76.0 124.5 L75.7 124.3 L75.9 124.1 L76.2 123.9 L76.5 123.8 L76.9 123.7 L78.0 123.7 L79.0 123.3 L79.2 123.3 L79.6 123.4 L80.2 123.6 L80.5 123.7 L81.2 123.5 L82.4 123.1 L84.5 122.9 L85.2 122.7 L85.8 122.3 L86.0 122.4 L86.1 122.4 L86.3 122.4 L86.4 122.3 L86.4 122.1 L86.0 121.9 L85.4 121.7 L84.8 121.6 L84.4 121.8 L84.6 121.4 L85.3 121.2 L86.0 121.1 L86.4 121.2 L86.2 121.3 L85.8 121.4 L86.2 121.5 L86.7 121.6 L87.2 121.5 L87.6 121.4 L87.6 121.2 L87.1 121.2 L87.5 121.1 L87.6 121.1 L86.1 120.4 L85.2 120.2 L84.4 120.2 L85.1 120.0 L88.9 120.3 L89.1 120.4 L89.2 120.5 L89.3 120.6 L90.1 120.8 L90.5 120.7 L90.9 120.6 L90.6 120.6 L90.3 120.6 L90.1 120.5 L89.9 120.4 L90.2 120.2 L90.3 120.1 L90.6 120.1 L90.0 119.9 L90.7 119.8 L91.6 119.9 L91.9 119.9 L92.4 119.9 L92.9 119.4 L92.1 119.6 L91.6 119.6 L91.4 119.5 L91.6 119.2 L92.0 119.0 L92.8 118.8 L92.3 118.7 L91.5 118.7 L90.7 118.7 L90.2 118.8 L90.4 118.4 L90.1 118.2 L89.6 118.2 L88.9 118.2 L88.6 118.2 L88.4 118.3 L88.2 118.4 L87.3 118.3 L88.0 118.0 L88.3 117.8 L88.2 117.5 L89.7 117.0 L90.4 116.6 L91.0 116.2 L91.4 115.7 L91.7 115.5 L92.1 115.4 L92.6 115.4 L93.7 115.4 L94.2 115.4 L93.7 115.3 L93.5 115.3 L93.3 115.3 L94.3 114.9 L94.8 114.8 L95.4 114.7 L98.9 115.1 L99.5 115.1 L99.9 114.8 L100.2 114.6 L99.0 114.8 L98.4 114.7 L98.4 114.6 L98.7 114.6 L98.9 114.5 L99.3 114.4 L99.3 114.3 L99.3 114.3 L99.2 114.3 L99.1 114.2 L99.3 114.2 L94.7 114.1 L92.6 114.3 L90.7 115.1 L90.6 115.2 L90.5 115.3 L90.4 115.5 L90.2 115.6 L90.0 115.7 L89.5 115.7 L89.3 115.8 L88.9 115.8 L87.7 116.2 L87.4 116.4 L86.4 116.7 L85.3 116.7 L83.0 116.3 L83.0 116.1 L84.1 115.8 L85.1 115.4 L85.9 114.9 L86.4 114.8 L87.0 114.9 L87.4 114.7 L88.5 114.5 L89.0 114.4 L86.8 114.3 L86.1 114.4 L85.6 114.5 L85.2 114.6 L84.8 114.5 L84.4 114.0 L84.7 113.8 L84.8 113.5 L84.8 113.2 L85.0 112.8 L85.1 112.7 L85.3 112.8 L85.5 112.8 L85.6 112.4 L85.8 112.2 L86.1 111.8 L86.1 111.6 L86.8 111.3 L89.6 110.7 L91.1 110.6 L91.0 110.4 L90.7 110.3 L90.4 110.2 L90.0 110.3 L90.0 110.1 L90.5 109.9 L91.5 109.4 L92.3 109.2 L92.7 109.0 L92.9 108.9 L93.3 108.9 L94.3 108.9 L94.2 109.4 L94.7 109.4 L95.4 109.4 L95.7 109.7 L96.0 109.9 L98.1 109.9 L97.7 109.8 L96.8 109.8 L96.4 109.8 L96.0 109.6 L95.5 109.2 L95.0 109.1 L96.0 108.9 L96.0 108.8 L93.5 108.8 L93.5 108.6 L94.9 108.2 L95.4 108.0 L95.8 107.9 L97.7 108.1 L97.7 107.9 L95.8 107.7 L95.2 107.7 L93.6 108.4 L92.9 108.4 L92.9 108.2 L93.6 108.0 L93.8 107.8 L94.0 107.5 L93.0 108.0 L92.7 108.1 L92.5 108.2 L92.3 108.8 L92.0 108.9 L91.8 109.0 L90.7 109.4 L89.4 109.6 L89.0 109.8 L89.2 110.1 L88.4 110.0 L87.7 110.1 L86.3 110.6 L85.7 110.9 L85.3 111.0 L84.9 111.0 L84.6 110.7 L84.7 110.5 L85.1 109.9 L84.5 110.0 L84.3 110.3 L84.2 110.7 L84.2 111.1 L84.1 111.2 L83.5 111.7 L83.4 111.9 L83.4 112.1 L83.4 112.2 L83.2 112.4 L82.3 112.3 L82.1 112.4 L82.1 112.5 L81.8 112.6 L81.6 112.7 L81.4 112.7 L81.0 112.6 L80.5 112.4 L80.1 112.0 L79.9 111.7 L79.7 111.8 L79.5 111.9 L79.3 112.0 L79.1 112.0 L79.4 111.7 L79.7 111.3 L79.8 110.9 L79.6 110.6 L79.7 110.6 L79.9 110.5 L79.7 110.4 L79.5 110.3 L79.3 110.3 L79.1 110.3 L79.2 110.2 L79.4 109.9 L79.4 109.8 L78.3 110.1 L77.6 110.3 L77.0 110.3 L76.6 110.0 L76.4 109.6 L76.5 109.2 L76.8 108.9 L76.8 108.8 L76.4 108.7 L76.1 108.5 L75.9 108.3 L75.7 108.2 L75.4 108.2 L75.1 108.0 L74.7 107.7 L74.4 107.5 L75.1 107.6 L75.7 107.9 L76.4 108.1 L77.0 107.9 L76.5 107.9 L76.6 107.6 L76.9 107.4 L77.2 107.3 L77.5 107.2 L77.3 107.1 L77.2 107.0 L77.2 106.9 L80.1 106.2 L80.8 105.8 L80.8 105.7 L79.2 106.2 L78.4 106.4 L77.6 106.5 L76.9 106.7 L76.2 107.0 L75.5 107.3 L75.0 107.0 L75.3 106.9 L76.0 106.5 L76.5 106.3 L76.8 106.1 L77.0 105.8 L76.8 105.7 L77.1 105.6 L77.2 105.5 L77.5 105.3 L77.0 105.0 L76.2 104.9 L74.6 105.0 L75.0 104.6 L74.4 104.6 L74.6 104.4 L75.1 103.9 L75.3 103.6 L75.0 103.6 L74.8 103.7 L74.6 103.9 L74.4 104.1 L74.3 103.9 L74.1 103.8 L73.9 103.8 L73.6 103.9 L73.6 104.1 L72.2 103.9 L71.8 104.0 L71.1 104.4 L70.7 104.5 L70.7 104.6 L70.9 104.7 L71.4 104.8 L69.1 105.0 L68.5 104.8 L69.0 104.8 L69.3 104.8 L69.6 104.7 L69.5 104.6 L69.2 104.4 L68.9 104.2 L68.7 104.1 L66.0 104.1 L66.4 104.3 L67.8 104.6 L67.8 104.8 L67.1 104.8 L65.9 104.3 L65.2 104.3 L65.4 104.3 L62.2 104.2 L59.2 104.2 L55.8 104.1 L54.4 103.4 L53.0 103.4 L50.5 103.6 L50.5 103.7 L50.1 104.0 L49.9 104.1 L49.7 104.2 L49.4 104.3 L49.1 104.3 L46.2 103.9 L46.4 103.8 L46.7 103.8 L47.0 103.7 L46.6 103.7 L45.7 103.9 L44.9 104.3 L44.8 104.8 L44.3 105.4 L43.7 105.6 L41.8 105.7 L41.3 105.7 L40.2 106.0 L39.7 106.0 L37.9 105.6 L37.5 105.3 L37.1 105.3 L36.8 105.1 L36.7 104.7 L36.6 104.5 L35.5 103.8 L35.1 103.4 L34.7 103.0 L34.0 101.9 L34.2 101.7 L34.7 101.9 L35.1 101.8 L36.1 101.4 L36.5 101.2 L39.3 100.9 L39.8 100.9 L41.8 101.5 L44.6 101.7 L44.8 101.6 L45.2 101.3 L45.5 101.2 L46.5 101.2 L46.8 101.1 L47.7 100.5 L48.7 100.4 L51.0 100.5 L51.0 100.3 L50.8 100.3 L50.8 100.2 L50.7 100.1 L50.6 100.0 L51.7 100.0 L52.0 100.1 L51.8 100.5 L52.2 100.6 L52.4 100.5 L52.6 100.3 L52.9 100.3 L52.9 100.6 L53.0 100.9 L53.1 101.1 L53.5 100.9 L53.9 101.0 L54.4 100.9 L54.8 100.7 L54.9 100.4 L54.8 100.2 L54.6 99.9 L54.5 99.5 L54.6 99.1 L55.3 98.7 L56.3 98.7 L58.3 98.8 L58.1 99.1 L57.8 99.3 L57.1 99.5 L57.2 99.6 L57.3 99.8 L57.0 99.9 L56.8 100.0 L56.6 100.1 L56.4 100.3 L57.8 101.2 L57.7 100.8 L57.7 100.5 L57.8 100.2 L58.0 100.0 L58.2 99.9 L58.6 99.9 L58.8 99.8 L59.0 99.7 L59.2 99.4 L59.3 99.2 L60.0 98.8 L60.7 98.8 L61.4 99.1 L61.9 99.5 L62.3 99.2 L62.9 99.1 L64.4 98.9 L65.9 98.5 L65.5 98.4 L63.7 98.5 L63.7 98.3 L64.7 98.2 L66.6 97.4 L67.6 97.3 L67.4 97.4 L67.2 97.4 L67.7 97.5 L68.1 97.6 L68.1 97.8 L68.1 97.8 L68.1 97.8 L68.1 97.9 L67.8 98.2 L67.0 98.3 L66.7 98.5 L67.1 98.5 L67.5 98.5 L67.9 98.4 L68.3 98.3 L68.4 98.8 L68.6 99.0 L69.5 99.1 L70.6 99.6 L71.0 99.7 L71.0 99.5 L70.7 99.4 L70.4 99.3 L69.8 98.8 L70.5 98.4 L70.9 98.3 L71.4 98.3 L71.4 98.0 L71.9 97.9 L74.0 97.9 L76.0 97.7 L79.4 98.0 L81.6 98.5 L81.9 98.4 L82.3 98.2 L82.5 98.1 L84.4 98.1 L84.9 98.2 L85.4 98.4 L86.0 98.5 L86.0 98.5 L86.4 98.3 L87.1 98.5 L89.9 98.3 L90.5 98.1 L90.5 97.7 L90.1 97.5 L89.3 97.4 L89.6 97.1 L89.9 97.0 L90.3 96.9 L90.7 96.8 L91.0 96.5 L92.1 95.2 L92.2 94.3 L91.4 94.0 L90.3 94.0 L89.5 94.3 L89.5 94.5 L89.7 94.5 L89.7 94.7 L85.9 96.1 L84.7 96.3 L77.5 95.7 L75.7 95.1 L75.5 95.0 L75.4 95.0 L75.0 95.2 L72.7 95.3 L72.0 95.2 L71.6 94.9 L72.0 94.8 L72.7 94.7 L73.3 94.5 L73.4 94.6 L73.6 94.7 L74.1 94.7 L74.1 94.5 L73.5 94.3 L72.9 94.3 L71.7 94.5 L72.0 94.1 L72.4 93.8 L73.3 93.3 L74.4 93.1 L74.9 92.9 L74.8 92.5 L75.2 92.4 L76.1 92.5 L76.3 92.4 L77.0 91.8 L77.7 91.6 L80.5 91.2 L82.8 90.5 L83.7 90.0 L85.3 89.6 L85.9 89.4 L85.9 89.3 L85.8 89.3 L85.8 89.3 L85.8 89.2 L86.1 89.2 L86.8 89.5 L87.1 89.5 L86.9 89.2 L86.8 89.0 L88.3 88.6 L91.6 88.2 L92.5 88.0 L93.1 87.8 L90.7 88.2 L89.9 88.2 L88.1 88.0 L86.6 88.2 L86.1 88.2 L86.6 87.8 L87.1 87.5 L86.2 87.1 L85.9 86.8 L85.8 86.5 L85.4 86.6 L85.1 86.6 L84.7 86.7 L84.4 86.6 L84.5 87.0 L84.3 87.1 L83.9 87.1 L83.7 87.0 L83.5 86.8 L83.0 86.2 L82.7 85.9 L82.8 86.4 L82.7 86.7 L82.5 87.0 L82.1 87.3 L81.7 87.5 L81.4 87.6 L81.2 87.7 L81.1 87.8 L81.0 88.0 L80.8 88.2 L80.5 88.4 L79.6 88.4 L79.2 88.3 L78.5 87.9 L77.0 87.3 L76.0 87.1 L75.8 86.9 L76.3 86.5 L76.9 86.3 L79.6 86.0 L80.8 85.7 L81.4 85.6 L81.7 85.5 L81.7 85.3 L81.7 85.0 L81.8 84.7 L82.0 84.6 L82.3 84.4 L82.8 84.2 L82.1 84.3 L80.3 85.4 L79.4 85.7 L78.6 85.9 L76.8 85.9 L76.8 85.8 L77.9 85.5 L78.2 85.3 L78.2 85.1 L77.7 85.1 L77.3 85.3 L76.7 85.6 L76.2 85.7 L75.8 85.6 L75.6 85.5 L75.1 85.4 L75.1 85.6 L75.4 85.8 L75.3 86.0 L74.9 86.2 L73.5 86.5 L73.2 86.4 L72.9 85.9 L72.9 85.5 L73.0 85.2 L73.0 84.9 L72.6 84.5 L72.2 83.6 L71.9 83.3 L71.6 83.5 L71.6 83.7 L71.6 83.9 L71.6 84.2 L72.0 84.7 L72.0 85.0 L71.8 85.1 L71.4 85.6 L71.1 85.8 L70.8 85.8 L70.4 85.5 L69.9 85.1 L69.7 85.0 L69.6 85.7 L69.4 85.9 L69.1 86.0 L68.8 85.9 L68.6 85.8 L68.4 85.6 L67.8 84.9 L67.7 84.4 L67.9 84.0 L68.5 83.6 L68.2 83.4 L68.1 83.5 L68.0 83.5 L67.8 83.6 L67.1 83.4 L66.7 83.4 L66.5 83.4 L66.4 83.6 L66.4 83.7 L66.6 84.2 L66.9 84.6 L67.6 86.5 L67.2 86.6 L66.8 86.6 L66.3 86.5 L65.9 86.5 L65.9 86.3 L66.0 86.1 L65.9 85.9 L65.6 85.8 L65.3 85.8 L64.5 85.9 L64.2 85.9 L64.2 85.6 L64.0 85.6 L63.3 85.6 L63.3 85.4 L63.9 85.2 L65.0 84.5 L65.7 84.4 L65.5 84.1 L65.0 83.9 L64.2 83.7 L64.0 84.3 L63.5 84.8 L62.9 85.0 L62.4 84.8 L62.2 84.6 L62.1 84.3 L61.9 84.0 L61.7 83.9 L61.6 84.1 L61.5 84.9 L61.4 85.1 L60.9 85.4 L59.4 85.5 L58.7 85.7 L57.3 85.4 L56.6 85.1 L56.6 84.7 L56.6 84.6 L55.9 84.8 L55.5 85.2 L55.5 85.8 L55.9 86.1 L55.9 86.3 L55.6 86.4 L55.1 86.8 L54.7 87.0 L54.3 87.0 L52.7 86.9 L52.0 86.8 L51.6 86.8 L51.2 86.7 L50.9 86.5 L50.6 86.3 L50.5 86.3 L50.3 86.3 L50.2 86.4 L49.9 86.5 L50.0 86.5 L50.1 86.5 L50.3 86.6 L49.6 86.8 L48.2 87.2 L44.9 87.5 L44.1 87.3 L44.1 87.6 L44.0 87.7 L43.8 87.7 L43.6 87.8 L42.7 88.5 L38.1 89.0 L36.9 89.0 L35.9 88.7 L35.9 88.5 L36.0 88.3 L35.9 88.1 L35.7 88.0 L35.4 87.8 L35.8 87.8 L36.0 87.9 L36.2 88.0 L36.3 87.5 L35.8 87.3 L35.3 87.3 L35.0 87.7 L34.4 87.3 L30.6 86.6 L23.5 87.0 L22.5 86.9 L22.0 86.5 L23.1 86.2 L23.7 86.0 L23.9 85.7 L24.2 85.5 L25.7 85.1 L26.1 84.9 L26.2 84.5 L26.2 84.1 L26.4 83.7 L27.1 83.5 L27.6 83.3 L27.9 83.2 L28.6 83.3 L31.0 83.9 L31.7 83.9 L32.1 84.0 L33.5 84.7 L34.5 85.0 L36.2 85.2 L36.6 85.4 L37.0 85.7 L37.4 85.9 L38.2 86.1 L38.9 86.1 L40.3 85.8 L39.2 85.8 L38.6 85.7 L38.1 85.6 L37.7 85.4 L37.4 85.1 L37.0 84.8 L36.5 84.7 L35.3 84.2 L34.6 83.7 L33.8 83.2 L33.3 82.9 L37.1 83.2 L39.6 83.8 L40.3 83.9 L39.9 83.5 L39.2 83.2 L38.5 83.0 L37.4 82.8 L36.1 82.4 L34.9 82.3 L34.4 82.0 L33.5 81.5 L32.5 80.6 L32.4 80.3 L32.4 80.0 L32.4 79.7 L32.1 79.4 L33.2 79.0 L34.3 79.1 L44.8 81.5 L45.0 81.6 L45.5 82.0 L46.2 82.2 L46.3 82.3 L46.6 82.8 L46.5 83.1 L46.2 83.3 L46.0 83.7 L46.5 83.8 L47.0 83.6 L48.1 83.0 L48.2 83.2 L48.6 83.4 L48.8 83.1 L50.2 83.3 L50.8 83.2 L50.8 83.0 L50.6 83.0 L50.5 82.9 L50.3 82.7 L50.7 82.7 L51.8 82.3 L52.2 82.3 L52.6 82.4 L53.0 82.3 L53.4 82.2 L50.4 82.3 L49.0 82.1 L48.1 81.8 L47.7 81.7 L47.3 81.4 L47.0 81.1 L47.3 81.0 L48.8 80.7 L49.2 80.7 L49.6 80.9 L51.6 80.8 L52.3 80.5 L52.8 80.5 L53.9 80.6 L54.4 80.7 L54.9 80.5 L54.6 80.3 L54.4 80.3 L54.2 80.3 L54.2 80.1 L55.4 79.8 L55.8 79.6 L54.4 79.7 L53.6 79.8 L52.5 80.2 L45.8 80.2 L44.5 79.9 L43.6 79.6 L42.3 79.8 L42.0 79.7 L41.6 79.4 L40.2 78.8 L39.4 78.1 L38.8 77.3 L38.9 76.5 L40.0 76.0 L40.5 76.0 L41.9 76.4 L43.8 76.5 L44.2 76.7 L45.0 77.1 L45.5 77.2 L46.0 77.2 L47.5 77.0 L50.6 77.6 L51.6 77.6 L53.4 78.1 L54.4 78.3 L55.3 78.1 L53.2 77.8 L52.5 77.5 L50.5 77.4 L49.8 77.2 L48.6 76.8 L46.1 76.5 L45.5 76.4 L44.1 75.6 L43.4 75.4 L43.1 75.2 L42.6 75.1 L41.4 74.7 L40.4 74.1 L40.2 73.9 L40.2 73.1 L40.3 72.7 L40.7 72.4 L41.7 72.2 L43.0 72.4 L47.5 73.5 L48.9 73.6 L49.8 73.4 L49.9 73.8 L50.2 74.2 L50.6 74.4 L51.1 74.5 L51.1 74.3 L50.7 74.0 L49.9 73.3 L49.4 73.1 L48.9 73.0 L47.7 72.8 L47.1 72.8 L46.8 72.7 L46.1 72.2 L44.6 71.7 L43.8 71.2 L44.6 70.9 L46.8 70.9 L48.4 71.0 L50.6 71.7 L50.0 71.5 L49.0 70.8 L48.5 70.7 L46.1 70.7 L45.5 70.5 L45.5 70.4 L45.7 70.2 L46.1 69.9 L46.5 69.7 L46.8 69.7 L46.9 69.7 L48.0 69.6 L48.4 69.5 L48.4 69.2 L49.0 69.1 L52.9 69.5 L55.4 70.3 L56.2 70.4 L56.7 70.5 L57.3 70.9 L57.8 71.3 L57.7 71.7 L57.8 72.3 L59.1 71.5 L59.5 71.4 L59.8 71.4 L60.1 71.6 L60.4 71.9 L60.9 72.2 L60.9 72.3 L60.9 72.7 L61.0 73.1 L61.1 73.3 L60.9 73.5 L60.5 73.8 L60.4 73.9 L59.3 74.7 L59.0 75.0 L59.2 75.0 L59.7 74.6 L61.1 73.9 L61.6 73.6 L61.7 73.4 L61.8 73.2 L62.0 73.0 L62.3 72.9 L62.6 73.0 L62.8 73.2 L63.1 73.8 L63.0 73.9 L63.0 74.0 L63.3 73.8 L63.7 73.6 L64.1 73.4 L64.5 73.6 L64.1 74.2 L63.5 74.8 L62.8 75.3 L61.9 75.5 L62.9 75.5 L63.4 75.4 L63.8 75.1 L64.3 74.5 L64.7 74.1 L64.9 74.0 L65.3 74.7 L65.1 75.4 L64.9 76.0 L65.0 76.4 L65.9 75.1 L65.8 74.6 L65.9 73.9 L66.1 73.3 L66.4 72.9 L66.6 72.7 L66.7 72.7 L68.4 72.8 L68.6 72.8 L68.7 73.2 L68.8 73.4 L69.0 73.5 L70.0 73.9 L70.9 74.6 L71.1 74.7 L71.1 74.8 L71.0 75.4 L70.9 75.7 L70.7 75.9 L70.5 76.0 L70.6 76.1 L70.7 76.2 L69.4 77.6 L69.1 78.1 L69.3 78.3 L69.6 78.3 L70.2 77.3 L71.9 75.5 L72.0 75.0 L72.0 74.8 L72.6 74.8 L72.9 75.0 L73.2 75.4 L73.6 75.7 L73.8 75.7 L73.9 75.6 L74.1 75.6 L74.3 75.8 L74.3 76.0 L74.1 76.2 L74.1 76.4 L74.4 76.5 L74.5 76.4 L74.6 76.2 L74.8 76.0 L75.0 76.0 L75.0 76.2 L74.8 77.0 L74.6 77.3 L74.0 77.8 L73.8 78.1 L73.8 78.2 L74.7 78.0 L75.7 76.6 L76.5 76.4 L76.5 76.2 L76.0 75.9 L75.7 75.5 L75.5 74.9 L75.3 74.5 L74.9 74.1 L74.5 73.8 L73.9 73.5 L73.4 73.4 L73.7 73.1 L73.8 72.8 L73.9 72.5 L74.3 72.3 L74.8 72.2 L75.3 72.1 L75.7 72.1 L76.0 71.7 L75.5 71.7 L74.2 72.0 L73.8 72.2 L73.3 72.2 L71.2 71.8 L69.8 71.2 L63.9 70.2 L62.1 69.4 L61.1 68.3 L62.2 68.0 L65.9 67.6 L66.7 67.6 L69.4 67.9 L70.1 67.9 L70.3 68.0 L70.5 68.1 L70.6 68.2 L70.7 68.3 L71.3 68.6 L71.7 68.6 L72.0 68.5 L71.9 68.4 L71.8 68.3 L71.5 67.9 L72.8 67.9 L73.4 67.9 L74.5 67.5 L75.7 67.5 L76.3 67.3 L72.9 67.5 L71.9 67.3 L71.4 67.1 L71.5 67.0 L71.9 67.0 L72.3 66.8 L72.6 66.7 L72.9 66.5 L73.4 66.4 L73.8 66.4 L73.8 66.2 L73.2 66.1 L72.9 66.2 L71.9 66.6 L70.6 66.9 L69.1 66.9 L68.0 66.8 L67.8 66.8 L67.7 66.5 L67.9 66.3 L68.5 66.1 L68.5 65.9 L68.7 65.4 L68.8 65.2 L69.1 65.1 L70.3 64.9 L69.2 65.0 L68.4 65.2 L66.4 66.1 L66.0 66.2 L64.9 66.2 L64.6 66.1 L64.8 65.8 L65.2 65.4 L65.5 65.2 L65.5 65.0 L64.7 65.2 L64.2 65.3 L63.8 65.6 L62.8 66.3 L62.6 66.3 L62.0 66.6 L58.1 66.2 L57.0 66.0 L56.3 65.6 L55.9 65.4 L55.8 65.3 L56.1 65.0 L57.1 65.0 L58.3 65.2 L59.3 65.1 L59.9 64.4 L59.2 64.3 L58.4 64.1 L57.7 63.7 L57.1 63.3 L57.9 63.1 L58.7 63.2 L59.5 63.5 L60.2 63.7 L60.0 63.4 L59.9 63.3 L59.7 63.2 L62.4 63.0 L62.6 63.0 L62.8 63.1 L63.0 63.4 L63.1 63.5 L63.7 63.6 L63.9 63.4 L63.8 63.1 L63.4 63.0 L63.0 62.9 L61.8 62.5 L64.3 62.5 L64.7 62.6 L65.6 62.9 L66.7 63.1 L67.6 63.5 L68.1 63.7 L68.8 63.6 L69.7 63.2 L70.3 63.0 L70.3 62.9 L70.2 62.7 L71.1 62.5 L72.0 62.8 L72.7 63.1 L74.5 63.5 L74.8 63.5 L75.0 63.2 L74.8 62.9 L74.1 62.7 L73.9 62.5 L74.7 62.5 L75.5 62.9 L76.1 63.3 L76.3 63.9 L76.8 64.3 L78.8 64.8 L79.4 65.2 L79.1 65.5 L79.4 65.6 L80.5 65.7 L80.5 65.9 L80.0 65.8 L79.8 65.9 L79.8 66.2 L79.8 66.4 L79.9 66.6 L80.1 66.7 L80.2 66.9 L79.8 67.1 L79.8 67.3 L80.1 67.4 L80.4 67.3 L80.8 67.2 L81.2 67.1 L81.6 67.1 L81.9 67.2 L82.1 67.4 L82.3 67.5 L82.5 67.3 L82.9 67.0 L83.3 66.9 L83.5 67.1 L83.4 67.4 L85.1 67.4 L85.6 67.4 L85.8 67.3 L86.0 67.3 L86.2 67.4 L86.4 67.4 L86.6 67.5 L87.5 68.1 L87.2 68.3 L85.8 68.8 L86.1 68.9 L86.4 68.8 L86.8 68.7 L87.1 68.6 L87.5 68.7 L88.7 69.1 L89.0 69.3 L89.2 69.3 L89.4 69.3 L89.9 69.2 L90.2 69.2 L91.8 69.5 L91.7 69.6 L91.6 69.8 L92.0 70.0 L92.3 70.3 L92.3 70.6 L91.9 70.7 L92.0 70.8 L92.2 71.1 L92.3 71.2 L92.3 71.2 L92.3 71.6 L92.4 72.1 L92.6 72.3 L92.9 72.4 L93.3 72.4 L93.7 72.3 L94.2 72.2 L94.5 72.4 L94.5 72.7 L94.3 73.1 L94.0 73.3 L93.8 73.6 L94.1 73.6 L94.5 73.5 L94.9 73.3 L95.0 73.2 L95.0 72.8 L95.0 72.6 L94.5 72.1 L94.8 71.9 L95.7 71.7 L96.8 71.7 L97.0 71.8 L97.1 72.0 L97.2 72.2 L97.3 72.3 L97.8 72.4 L97.5 72.5 L97.0 72.7 L96.7 72.8 L96.6 73.0 L96.7 73.2 L97.1 73.5 L97.8 73.7 L100.5 73.4 L101.2 73.5 L101.8 73.6 L102.3 73.9 L102.6 74.5 L99.0 74.6 L98.4 74.8 L95.7 75.1 L95.4 75.1 L95.8 75.5 L96.5 75.5 L97.9 75.1 L100.3 75.0 L101.0 75.1 L100.7 75.4 L99.6 75.7 L99.6 75.8 L102.3 75.5 L103.0 75.8 L103.3 76.3 L103.4 76.7 L103.1 77.0 L102.4 77.2 L103.6 77.6 L103.6 77.7 L102.3 78.9 L101.9 79.3 L101.1 79.5 L98.6 79.9 L98.6 80.1 L99.1 80.1 L100.1 80.1 L100.5 80.1 L101.8 80.5 L102.2 80.6 L100.2 81.7 L99.4 81.9 L96.0 81.8 L95.8 81.7 L95.4 81.4 L95.3 81.3 L94.8 81.2 L94.3 80.8 L94.0 80.5 L94.0 80.3 L93.4 79.9 L92.6 79.8 L91.8 79.8 L91.1 79.9 L91.6 80.0 L92.7 80.3 L93.1 80.5 L93.2 80.5 L93.7 80.9 L93.8 81.0 L93.9 81.3 L93.8 81.5 L93.6 81.6 L93.3 81.8 L93.7 82.0 L93.9 82.1 L94.0 82.3 L94.1 82.6 L94.4 82.8 L94.7 82.9 L94.8 83.0 L95.3 83.1 L99.4 83.1 L100.2 83.2 L100.5 83.6 L100.2 83.8 L98.9 84.7 L98.4 84.9 L98.4 85.1 L99.7 84.8 L101.2 84.2 L102.5 84.1 L103.1 85.2 L102.5 86.1 L101.3 87.0 L99.8 87.6 L98.6 87.8 L98.6 88.0 L101.1 87.6 L102.1 87.2 L102.6 87.1 L103.2 87.2 L103.6 87.3 L104.3 87.8 L105.2 88.2 L105.5 88.5 L105.3 88.9 L105.6 89.0 L105.7 89.1 L105.6 89.4 L105.6 89.7 L105.8 90.3 L105.8 90.7 L105.7 91.2 L105.7 91.4 L106.7 92.7 L107.0 93.0 L106.9 93.0 L106.9 93.0 L106.9 93.1 L106.8 93.1 L107.3 93.4 L107.8 93.8 L108.1 94.3 L107.9 94.7 L107.9 94.9 L108.3 95.0 L108.4 95.0 L108.7 94.9 L108.9 94.5 L108.5 93.9 L108.4 93.5 L108.4 93.3 L108.2 93.1 L107.7 92.7 L107.5 92.5 L107.9 92.2 L108.0 92.1 L107.9 91.9 L108.1 91.7 L108.4 91.6 L108.5 91.4 L108.7 91.1 L108.7 90.7 L108.2 88.8 L108.0 88.0 L108.4 87.7 L109.1 87.9 L109.7 88.3 L110.4 89.4 L111.2 90.0 L111.3 90.1 L111.4 90.3 L112.3 90.4 L112.6 90.6 L112.8 90.4 L112.2 89.8 L111.6 89.0 L111.1 88.2 L110.9 87.5 L110.8 86.9 L110.8 86.5 L110.9 86.1 L111.1 86.0 L111.4 85.7 L111.5 85.6 L111.7 84.9 L111.8 84.7 L112.6 84.1 L115.4 83.2 L116.9 82.3 L117.4 82.2 L117.9 82.2 L118.2 82.1 L118.3 81.8 L118.6 81.8 L118.9 81.9 L119.4 82.2 L119.5 82.2 L119.8 82.2 L119.9 82.2 L119.9 82.4 L119.9 82.5 L119.7 82.5 L119.7 82.5 L119.5 83.5 L119.5 84.0 L119.7 84.4 L119.4 84.8 L119.4 85.3 L119.6 85.5 L120.2 85.4 L119.9 85.0 L120.0 84.6 L120.3 84.4 L120.9 84.6 L121.1 84.7 L121.1 84.8 L121.1 85.0 L121.2 85.3 L121.1 85.5 L121.1 85.6 L121.1 85.8 L121.1 85.8 L121.6 85.9 L121.8 85.9 L121.9 86.2 L122.0 86.3 L122.1 86.5 L122.4 86.6 L122.7 86.7 L123.0 86.8 L123.3 86.8 L123.6 86.8 L123.7 86.8 L124.2 86.6 L124.4 86.4 L124.5 86.0 L124.8 85.4 L124.5 85.3 L124.2 85.0 L123.9 84.9 L123.0 85.0 L122.6 84.9 L122.3 84.7 L123.1 84.6 L123.9 84.6 L124.2 84.5 L124.9 84.3 L125.3 84.2 L125.6 84.5 L125.5 85.6 L125.8 85.9 L125.7 85.5 L126.0 85.2 L126.1 85.0 L125.8 84.6 L126.1 84.3 L126.9 83.8 L127.3 83.5 L127.4 83.3 L127.4 82.9 L127.6 82.7 L127.8 82.6 L128.3 82.6 L128.8 82.5 L128.2 82.5 L127.9 82.2 L127.8 81.8 L128.2 81.7 L128.5 81.6 L128.7 81.3 L128.9 81.0 L128.9 80.5 L128.7 79.9 L128.3 79.3 L127.6 78.9 L127.0 78.6 L127.0 78.4 L127.7 78.2 L127.5 77.4 L126.8 76.6 L125.9 75.7 L125.7 75.5 L125.5 74.6 L125.4 74.2 L125.1 73.9 L124.7 73.6 L124.3 73.4 L124.7 73.2 L125.0 72.8 L125.2 72.4 L124.8 72.1 L125.3 71.9 L125.9 71.8 L127.0 71.9 L127.2 71.9 L127.7 71.6 L127.9 71.6 L128.2 71.5 L129.1 71.6 L129.6 71.4 L130.5 71.0 L130.9 70.9 L132.1 71.1 L132.4 71.1 L132.7 71.1 L133.2 70.9 L133.4 71.4 L133.7 71.7 L134.2 71.9 L134.8 72.1 L134.6 72.3 L134.9 72.4 L135.0 72.5 L135.3 72.9 L135.6 73.3 L136.7 74.1 L136.8 74.3 L136.9 74.5 L137.0 74.7 L137.3 74.8 L137.2 74.9 L137.1 75.1 L137.0 75.1 L137.5 75.5 L138.1 75.8 L138.6 76.1 L138.5 76.5 L139.0 76.7 L140.3 76.8 L141.3 77.1 L141.6 77.1 L141.9 77.1 L142.2 77.3 L142.4 77.4 L142.7 77.3 L142.8 77.4 L143.0 77.6 L143.0 77.7 L143.1 77.9 L143.2 78.1 L143.7 78.6 L143.9 78.8 L144.0 79.1 L144.1 79.8 L144.3 80.0 L144.8 80.3 L146.1 80.5 L146.6 80.8 L146.7 80.3 L146.9 80.1 L147.7 80.1 L147.8 80.2 L148.1 80.4 L148.3 80.5 L148.6 80.5 L149.3 80.5 L149.1 80.5 L148.9 80.6 L148.8 80.7 L148.9 80.9 L149.1 80.9 L149.6 80.8 L149.9 80.7 L150.1 80.3 L150.4 79.6 L150.5 78.9 L150.6 78.2 L150.4 77.7 L150.0 77.0 L149.3 76.2 L149.2 76.0 L147.8 75.3 L147.8 75.2 L147.9 74.9 L148.1 74.7 L148.4 74.6 L148.8 74.6 L149.3 74.5 L149.8 74.3 L150.2 74.0 L149.9 73.8 L149.7 73.6 L149.5 73.4 L149.2 72.8 L149.2 72.8 L149.3 72.7 L149.6 72.5 L150.0 72.3 L151.5 71.9 L154.8 71.7 L156.0 72.1 L156.6 72.1 L156.5 71.7 L156.7 71.6 L156.9 71.6 L157.2 71.5 L157.4 71.6 L157.3 71.7 L157.2 71.9 L157.7 72.0 L158.6 72.3 L159.1 72.4 L158.8 72.3 L158.5 72.1 L158.4 72.0 L158.2 71.7 L158.4 71.7 L158.4 71.6 L158.3 71.5 L158.0 71.4 L157.9 71.4 L157.9 71.2 L158.1 71.0 L158.4 70.5 L158.6 70.2 L158.8 70.0 L159.7 69.7 L161.9 69.4 L162.7 69.5 L162.5 70.4 L163.0 70.3 L163.3 70.1 L163.9 69.5 L163.8 69.3 L163.7 69.2 L164.2 69.0 L164.9 69.1 L166.1 69.3 L165.9 69.7 L165.5 70.2 L165.4 70.6 L165.7 70.6 L167.5 69.8 L168.2 69.9 L168.8 70.2 L169.3 70.5 L169.8 70.7 L170.0 70.9 L169.8 71.3 L169.0 71.9 L169.4 71.9 L169.7 71.9 L170.1 71.8 L170.3 71.6 L170.6 71.5 L170.9 71.7 L171.3 71.8 L171.5 71.9 L171.9 72.1 L172.2 72.5 L172.4 73.0 L172.6 73.4 L172.2 74.2 L172.0 74.6 L172.0 74.8 L173.8 75.0 L175.0 75.3 L176.8 75.4 L177.1 75.5 L177.4 75.7 L177.8 76.1 L178.4 76.3 L178.6 76.5 L178.7 76.8 L178.9 77.2 L178.9 77.3 L179.0 77.4 L179.2 77.4 L179.7 77.4 L179.9 77.4 L180.1 77.5 L180.3 77.8 L180.4 78.0 L180.4 78.7 L180.4 79.0 L180.9 79.4 L181.0 79.6 L181.0 80.7 L181.1 80.8 L181.3 80.9 L182.1 81.3 L183.3 81.8 L183.1 82.2 L183.2 82.6 L183.5 83.0 L184.0 83.0 L184.3 82.7 L184.2 82.3 L184.0 81.8 L183.8 81.5 L183.6 81.4 L183.1 81.3 L182.9 81.2 L182.8 80.9 L182.9 80.7 L183.0 80.6 L183.1 80.5 L183.1 80.2 L183.0 80.0 L183.0 79.9 L183.1 79.6 L183.2 79.5 L183.7 79.3 L183.8 79.3 L183.9 78.8 L183.9 78.4 L183.1 77.2 L183.1 77.1 L183.1 76.8 L183.0 76.7 L182.9 76.7 L182.7 76.7 L182.6 76.7 L182.1 76.3 L181.9 76.2 L181.9 76.1 L181.8 76.1 L181.8 76.0 L181.6 76.0 L181.5 76.1 L181.3 76.3 L181.2 76.4 L180.9 76.3 L180.1 75.9 L179.8 75.7 L180.1 75.3 L180.0 75.0 L179.7 74.7 L178.9 74.5 L178.4 74.0 L178.1 73.8 L178.1 73.6 L178.3 73.6 L178.3 73.4 L177.6 72.7 L177.3 71.6 L177.4 70.4 L178.1 69.7 L178.4 69.6 L180.7 69.7 L181.0 69.7 L181.6 70.0 L182.0 70.0 L183.0 70.0 L183.4 70.0 L183.4 70.1 L183.4 70.1 L183.4 70.2 L183.3 70.2 L184.2 70.4 L186.7 70.2 L187.7 70.4 L187.9 70.5 L188.2 71.0 L188.4 71.2 L188.7 71.3 L189.7 71.2 L190.1 71.3 L190.9 71.8 L191.4 71.9 L191.7 72.0 L192.7 72.7 L193.0 72.9 L193.4 73.6 L193.7 74.0 L194.5 74.2 L195.0 74.5 L195.6 75.0 L196.4 76.0 L196.8 76.4 L196.9 75.9 L196.7 75.5 L196.4 75.2 L196.1 74.8 L196.6 74.8 L197.2 74.8 L197.7 74.6 L198.2 74.5 L195.9 74.5 L195.3 74.3 L199.2 74.3 L199.5 74.4 L199.7 74.7 L200.1 75.1 L200.2 75.1 L200.4 75.0 L200.4 74.8 L200.3 74.6 L200.1 74.5 L200.1 74.3 L200.4 74.2 L200.7 74.0 L200.8 73.8 L200.7 73.4 L201.1 73.2 L201.3 73.1 L201.4 72.9 L201.4 72.8 L201.4 72.4 L201.4 72.1 L201.7 71.7 L202.4 71.4 L203.1 71.1 L203.7 71.1 L204.0 70.9 L204.2 70.6 L204.2 70.3 L204.1 70.2 L203.8 70.1 L203.9 69.9 L204.4 69.6 L205.1 69.3 L206.6 69.1 L206.9 68.6 L207.6 68.9 L210.1 69.0 L210.7 69.2 L210.8 69.2 L211.2 69.6 L212.2 70.7 L212.2 70.8 L212.2 70.9 L212.2 70.9 L212.2 71.1 L211.9 71.1 L211.9 71.2 L212.2 71.3 L212.5 71.4 L212.8 71.4 L213.1 71.2 L212.9 71.2 L212.6 71.1 L213.4 70.8 L216.6 70.4 L217.5 70.5 L217.1 70.5 L216.7 70.6 L216.3 70.7 L216.0 70.9 L216.3 71.0 L216.8 71.3 L216.9 71.3 L217.4 70.8 L217.7 70.6 L218.0 70.5 L218.7 70.8 L219.3 71.3 L219.8 71.6 L220.6 71.7 L220.6 71.6 L219.8 71.3 L219.4 71.1 L219.2 71.0 L219.0 70.6 L219.0 70.4 L218.9 70.2 L218.4 70.0 L219.5 69.7 L221.2 69.4 L222.3 69.2 L222.8 69.2 L220.6 69.7 L219.9 70.0 L222.1 69.7 L222.7 69.7 L223.3 69.9 L224.2 70.5 L224.9 70.5 L224.9 70.4 L224.0 70.0 L223.6 69.7 L223.4 69.4 L223.5 69.0 L223.7 68.7 L224.1 68.5 L224.6 68.3 L224.6 68.2 L224.5 68.2 L224.6 68.0 L224.8 67.8 L225.0 67.6 L225.1 67.4 L225.0 67.0 L224.8 66.8 L224.6 66.6 L224.2 66.2 L224.1 66.1 L223.9 66.1 L223.8 66.1 L223.6 66.0 L223.6 65.8 L223.6 65.5 L223.5 65.4 L222.8 65.2 L222.7 65.0 L222.8 64.5 L222.8 64.5 L222.5 64.5 L222.6 64.4 L222.8 64.3 L222.8 64.2 L222.7 64.1 L222.5 64.0 L222.3 63.7 L222.8 63.7 L222.8 63.5 L222.4 63.3 L221.9 62.5 L221.2 62.1 L221.5 61.8 L222.0 61.5 L222.5 61.4 L222.7 61.6 L222.7 61.8 L222.7 61.9 L223.0 62.0 L223.1 61.9 L223.2 61.6 L223.4 61.4 L223.7 61.3 L224.4 61.2 L224.8 61.2 L224.8 61.4 L224.7 61.6 L224.8 61.9 L225.0 62.0 L225.3 62.1 L225.2 62.0 L225.2 61.9 L225.2 61.8 L225.1 61.6 L225.5 61.6 L226.2 61.3 L226.4 61.3 L226.8 61.4 L227.1 61.6 L227.4 61.8 L227.8 61.8 L227.5 61.9 L227.3 62.0 L227.7 62.1 L228.2 62.1 L228.7 62.0 L228.8 62.0 L228.8 61.8 L229.1 61.6 L229.4 61.4 L229.7 61.2 L229.7 61.3 L229.9 61.6 L230.2 61.6 L230.4 61.5 L230.6 61.0 L230.9 60.9 L231.4 60.8 L232.1 60.8 L233.5 61.0 L233.8 60.9 L235.0 60.7 L237.1 61.6 L238.3 61.8 L237.9 62.0 L237.5 62.1 L237.2 62.3 L237.1 62.7 L237.3 62.6 L237.4 62.7 L237.4 62.8 L236.9 63.0 L237.0 63.1 L237.3 63.3 L237.4 63.3 L237.1 63.6 L237.5 63.6 L238.4 63.5 L239.4 63.6 L239.8 63.5 L239.8 63.6 L239.7 63.9 L239.6 64.0 L242.0 64.0 L242.5 64.1 L242.9 64.3 L243.1 64.5 L243.1 64.7 L243.1 64.9 L243.6 65.6 L242.5 66.3 L241.9 66.7 L241.2 66.9 L241.5 67.3 L241.8 67.1 L242.1 67.2 L242.5 67.4 L243.3 67.5 L243.4 67.7 L243.3 68.0 L243.1 68.3 L243.5 68.4 L245.3 68.5 L246.2 68.3 L246.5 68.3 L246.6 68.5 L246.8 68.6 L247.0 68.6 L247.1 68.6 L247.3 68.5 L247.4 68.7 L247.6 69.0 L247.8 69.1 L248.5 69.2 L249.3 69.6 L250.1 69.9 L250.6 70.2 L251.1 70.4 L251.6 70.2 L251.4 70.2 L251.4 70.1 L251.3 70.0 L251.7 69.9 L252.0 69.6 L252.3 69.2 L252.3 68.7 L252.2 68.2 L252.1 67.9 L252.3 67.6 L253.0 67.4 L256.1 67.4 L257.8 67.2 L258.0 67.0 L258.0 66.8 L258.1 66.6 L259.9 66.1 L260.2 65.8 L260.4 65.4 L260.8 65.1 L261.8 64.7 L262.4 64.5 L264.6 64.4 L265.2 64.4 L266.1 64.8 L266.7 64.9 L271.5 64.5 Z" fill="#172033" fill-rule="evenodd"/></svg>
