<svg xmlns="http://www.w3.org/2000/svg" viewBox="0 0 320 200" role="img"><path d="M103.7 47.7 L103.7 47.7 L104.6 47.8 L104.8 47.8 L105.2 47.6 L106.4 46.6 L108.5 45.5 L109.1 45.4 L109.1 45.4 L109.4 45.3 L109.6 45.3 L109.8 45.3 L110.0 45.4 L109.9 45.4 L110.3 45.8 L114.3 46.6 L114.7 46.7 L115.3 47.3 L115.5 47.3 L116.0 47.3 L116.1 47.4 L116.2 47.7 L116.1 47.9 L116.0 48.0 L115.9 48.0 L116.2 48.4 L116.5 48.6 L116.9 48.8 L117.5 48.7 L118.3 48.7 L118.5 49.2 L118.4 49.8 L118.4 50.5 L118.8 51.1 L120.4 53.3 L120.7 53.7 L120.7 53.9 L120.8 53.9 L121.2 53.9 L121.8 53.9 L123.2 53.8 L123.4 53.8 L123.8 53.9 L124.0 54.0 L124.2 53.9 L124.6 53.6 L124.8 53.5 L125.2 53.7 L126.4 54.7 L128.8 56.1 L132.1 58.8 L132.7 59.0 L133.4 59.2 L135.5 59.4 L136.1 59.7 L137.5 59.9 L142.6 60.4 L143.9 61.2 L144.6 60.9 L145.4 60.9 L147.8 61.5 L148.3 61.5 L148.8 61.4 L154.8 57.9 L160.5 54.7 L160.5 54.7 L164.6 52.5 L171.0 49.0 L173.9 47.4 L177.4 45.6 L183.8 42.1 L190.2 38.7 L194.9 36.1 L201.4 32.6 L204.6 31.0 L212.6 26.8 L221.7 22.0 L223.4 27.3 L225.0 32.1 L226.3 36.1 L228.0 41.4 L229.7 46.8 L232.2 54.6 L229.4 55.4 L229.3 55.4 L229.3 55.5 L229.3 55.5 L229.4 55.6 L231.2 60.9 L231.5 61.5 L231.8 61.7 L238.9 60.0 L239.7 60.4 L240.2 61.5 L241.0 64.0 L240.0 65.2 L235.6 68.5 L235.6 68.8 L235.2 68.9 L234.5 69.3 L230.0 72.9 L228.7 73.4 L228.7 73.4 L228.7 73.4 L224.5 74.4 L216.1 76.5 L207.7 78.6 L199.3 80.6 L192.3 82.4 L191.0 82.7 L183.9 84.5 L181.7 85.1 L172.5 87.4 L163.2 89.8 L155.4 91.8 L154.0 92.2 L158.8 96.7 L163.7 101.2 L163.8 101.3 L168.6 105.7 L173.4 110.2 L173.5 110.3 L173.6 110.4 L173.8 110.6 L173.9 110.7 L178.0 114.8 L182.1 119.0 L186.2 123.1 L190.2 127.3 L192.1 129.1 L192.1 129.2 L192.1 129.2 L192.1 129.2 L191.8 129.3 L189.1 130.7 L184.6 132.8 L180.5 134.8 L179.7 135.4 L179.2 136.1 L178.1 138.4 L176.7 141.3 L175.5 143.9 L173.8 147.4 L173.0 148.0 L168.6 148.8 L163.7 149.7 L158.3 150.6 L153.0 151.6 L149.6 152.2 L146.4 152.8 L145.4 153.2 L144.5 154.1 L142.4 157.1 L140.7 159.7 L138.4 163.1 L136.0 166.6 L133.1 168.7 L128.8 171.8 L124.8 174.7 L120.8 177.6 L119.8 178.0 L118.8 178.0 L114.9 177.4 L110.6 176.8 L108.5 176.4 L104.1 175.8 L98.6 174.9 L93.4 174.2 L87.6 173.3 L83.1 172.6 L79.0 172.0 L79.5 171.7 L79.7 168.3 L80.0 167.3 L80.8 165.8 L80.8 165.2 L80.0 164.5 L79.5 164.5 L79.5 164.4 L79.5 164.3 L79.4 164.2 L79.2 164.2 L79.4 163.2 L79.7 162.4 L80.2 161.7 L80.5 160.8 L80.7 158.7 L81.0 157.7 L82.7 153.7 L82.9 152.9 L82.9 150.6 L83.2 149.4 L83.3 149.1 L83.5 148.8 L83.7 148.4 L83.7 148.0 L84.1 146.5 L85.7 144.4 L86.3 143.2 L86.3 142.0 L85.5 139.7 L85.6 138.7 L85.8 138.0 L86.2 136.1 L86.4 135.6 L86.7 135.2 L86.9 134.8 L86.9 134.3 L86.8 133.8 L86.3 133.0 L86.1 132.6 L86.1 131.7 L86.8 130.2 L86.9 129.3 L88.5 124.8 L90.7 120.9 L90.7 120.9 L91.0 120.0 L91.2 119.1 L91.3 118.7 L91.6 118.2 L91.9 117.9 L92.5 117.4 L92.7 117.1 L92.8 116.3 L92.8 115.4 L92.9 114.6 L93.4 113.7 L93.8 113.4 L94.8 112.5 L95.3 111.8 L95.3 110.7 L95.5 109.6 L97.2 106.6 L97.4 105.5 L97.2 104.5 L96.6 103.6 L96.2 102.8 L95.9 101.9 L95.6 100.9 L96.1 100.0 L96.6 99.2 L96.7 98.4 L96.4 98.1 L97.1 97.0 L97.8 95.5 L97.9 94.7 L97.9 94.3 L98.0 92.1 L98.0 92.1 L98.0 92.1 L98.0 92.1 L98.0 92.1 L98.0 92.0 L98.2 89.3 L98.8 86.6 L99.6 84.9 L100.6 83.1 L101.8 81.9 L101.0 79.9 L101.0 79.6 L101.4 79.2 L100.5 76.2 L100.6 75.9 L100.8 75.8 L101.1 75.7 L101.2 75.5 L101.3 75.2 L101.0 74.8 L101.0 74.5 L100.9 74.0 L100.9 73.6 L100.5 72.7 L100.4 71.0 L100.6 70.4 L101.2 69.9 L100.8 69.5 L100.9 69.0 L101.5 68.1 L101.3 67.9 L101.3 67.7 L101.5 67.5 L101.8 67.4 L101.8 67.1 L101.6 66.7 L101.8 66.1 L102.2 64.3 L101.8 64.3 L101.8 64.1 L101.9 64.0 L102.1 63.9 L102.2 63.8 L101.9 63.3 L101.8 62.6 L101.8 61.9 L102.0 61.5 L101.6 60.9 L101.7 59.8 L101.5 59.4 L101.5 59.2 L101.8 59.2 L101.8 59.4 L102.0 59.4 L101.9 59.1 L101.8 58.8 L101.7 58.6 L101.5 58.4 L101.4 58.3 L101.2 57.9 L101.6 57.8 L101.7 57.7 L101.7 57.6 L101.5 57.4 L101.5 57.2 L101.8 57.2 L101.7 57.0 L101.6 57.0 L101.6 57.0 L101.5 56.9 L102.0 56.6 L101.8 56.4 L102.0 56.3 L102.2 56.1 L102.2 55.9 L102.1 55.8 L102.0 55.8 L101.9 55.7 L101.8 55.6 L101.8 55.4 L102.0 55.1 L102.2 54.9 L102.5 54.8 L102.5 54.6 L102.2 54.3 L102.1 54.1 L101.8 53.8 L101.7 53.8 L101.5 53.8 L101.5 53.6 L102.0 53.6 L101.9 53.3 L101.8 52.5 L102.0 52.8 L102.2 52.4 L102.2 52.3 L102.3 52.4 L102.3 52.5 L102.4 52.5 L102.5 52.3 L102.3 51.8 L102.2 50.8 L102.0 50.5 L102.0 50.2 L102.2 50.2 L102.2 50.0 L101.9 49.8 L101.8 49.6 L101.8 49.3 L101.9 49.1 L102.1 49.0 L102.5 48.8 L103.0 48.2 L103.7 47.7 L103.7 47.7 Z" fill="#172033" fill-rule="evenodd"/></svg>
