<svg xmlns="http://www.w3.org/2000/svg" viewBox="0 0 320 200" role="img"><path d="M296.8 75.9 L297.0 76.3 L297.1 77.1 L297.2 77.5 L297.4 77.8 L297.7 78.2 L298.0 78.5 L298.0 79.0 L297.3 79.8 L296.1 80.1 L289.8 80.0 L288.5 80.3 L287.6 80.6 L287.2 80.8 L286.9 81.2 L286.6 81.6 L286.4 82.6 L286.1 83.0 L285.2 83.6 L284.1 83.8 L282.9 83.7 L281.8 83.9 L280.4 84.7 L278.8 85.1 L276.8 86.2 L276.3 86.3 L275.7 86.3 L274.1 85.9 L273.6 86.0 L273.2 86.3 L272.0 87.1 L271.4 87.4 L270.9 87.6 L269.7 87.8 L268.8 88.1 L265.9 89.6 L264.4 89.8 L264.0 90.0 L261.7 91.2 L258.3 92.2 L258.0 92.3 L257.7 92.5 L257.5 92.8 L257.3 93.4 L257.0 93.7 L256.1 94.0 L254.3 94.3 L252.0 95.6 L251.0 96.0 L250.5 96.2 L250.1 96.6 L250.0 97.0 L250.4 98.0 L250.5 98.4 L250.3 98.9 L249.8 99.2 L248.8 99.6 L248.4 99.9 L247.8 100.6 L247.3 101.3 L246.6 102.3 L246.3 102.7 L245.9 103.0 L243.4 104.7 L242.9 104.8 L242.4 104.7 L241.5 104.4 L238.2 104.0 L237.3 104.1 L236.5 104.3 L233.1 105.6 L232.8 105.7 L232.3 105.7 L231.0 105.7 L229.1 106.1 L228.4 106.1 L227.6 105.8 L226.2 105.3 L224.8 105.1 L224.0 105.2 L222.6 105.5 L219.5 105.3 L218.7 105.2 L217.4 104.6 L216.7 104.5 L214.0 105.0 L213.0 105.3 L212.4 105.8 L212.0 106.2 L211.1 106.7 L210.7 107.0 L210.4 107.5 L210.5 108.0 L210.7 108.5 L210.8 109.0 L210.6 109.5 L210.2 109.8 L209.2 110.2 L208.3 110.8 L207.7 111.5 L207.3 112.4 L207.1 115.0 L207.0 115.4 L206.7 115.7 L205.4 116.5 L204.8 117.3 L204.0 119.0 L203.4 119.7 L202.7 120.3 L200.5 121.4 L199.7 122.0 L199.3 122.1 L199.0 121.8 L198.6 120.2 L198.3 119.8 L197.6 119.6 L196.9 120.2 L196.1 121.0 L195.3 121.5 L194.8 121.4 L193.9 121.0 L193.4 120.9 L192.8 120.9 L190.5 121.7 L190.2 122.1 L189.9 122.5 L189.5 122.9 L189.0 123.2 L188.5 123.3 L187.9 123.2 L186.3 122.9 L185.8 122.9 L185.2 122.9 L184.1 123.3 L183.5 123.4 L183.1 123.0 L182.9 122.6 L182.5 121.5 L182.4 121.0 L182.6 120.5 L183.0 120.2 L183.2 119.8 L183.1 119.4 L182.9 119.1 L182.2 118.6 L181.9 118.3 L181.7 117.8 L181.6 116.4 L181.2 115.4 L180.5 114.8 L179.6 114.8 L178.5 115.3 L173.0 118.6 L172.8 118.8 L172.5 118.8 L172.2 118.9 L172.1 119.1 L172.0 119.3 L171.8 119.5 L171.3 119.6 L170.8 119.4 L170.4 119.2 L169.9 119.1 L169.3 119.1 L168.1 119.6 L167.4 119.6 L166.5 119.5 L165.6 119.2 L163.4 118.0 L162.9 117.8 L162.3 117.9 L162.3 117.9 L162.0 118.3 L161.9 118.6 L161.8 118.6 L161.6 119.1 L161.3 119.6 L161.1 120.1 L161.3 120.5 L162.5 121.4 L162.8 121.7 L163.0 122.5 L162.2 122.7 L160.1 122.2 L159.6 122.2 L159.1 122.4 L157.8 123.4 L157.4 123.6 L156.4 124.0 L155.6 124.5 L153.4 126.3 L150.7 128.0 L149.8 128.3 L149.0 128.4 L148.2 128.3 L147.4 128.1 L146.5 127.9 L145.6 128.0 L144.8 128.3 L144.0 128.7 L143.2 129.0 L141.5 129.1 L140.9 129.6 L140.6 129.8 L140.4 130.1 L140.2 130.5 L140.2 130.8 L140.0 131.4 L139.6 131.8 L139.1 132.2 L138.8 132.7 L138.6 133.8 L138.5 134.0 L138.3 134.2 L137.5 134.7 L137.2 135.1 L137.0 135.5 L136.9 136.0 L136.9 136.5 L137.2 137.0 L137.5 137.2 L137.9 137.2 L138.4 137.5 L138.8 137.9 L138.9 138.4 L139.0 139.5 L139.6 140.8 L139.5 141.1 L138.9 141.4 L138.5 141.6 L138.2 142.0 L137.9 142.6 L137.6 143.4 L137.4 143.8 L137.0 144.0 L132.2 144.5 L131.5 144.2 L129.2 144.0 L128.3 144.1 L125.6 144.6 L125.0 144.9 L124.8 145.3 L124.8 145.6 L124.6 145.9 L123.2 146.1 L120.6 146.8 L119.8 146.8 L118.9 146.6 L118.5 146.5 L118.2 146.4 L117.9 146.5 L116.7 147.0 L116.3 147.0 L115.8 146.9 L114.3 146.6 L113.8 146.6 L112.7 146.8 L112.3 146.8 L107.7 145.8 L107.3 145.8 L106.8 145.9 L106.6 146.1 L106.1 146.6 L105.8 146.7 L105.4 146.7 L104.8 146.4 L104.4 146.3 L104.1 146.4 L103.3 147.0 L102.9 147.1 L102.5 147.1 L101.7 146.9 L101.2 146.9 L100.3 147.3 L99.8 147.3 L99.3 147.5 L99.0 147.8 L98.4 149.2 L97.4 150.9 L97.1 150.9 L97.1 150.9 L96.9 150.7 L96.6 150.2 L96.6 150.0 L96.6 149.8 L96.5 149.7 L96.0 149.4 L95.6 149.2 L95.4 149.1 L94.3 149.0 L93.8 148.8 L93.5 148.4 L93.5 147.9 L93.4 147.3 L93.1 146.7 L92.6 146.5 L92.2 146.5 L91.3 146.9 L90.4 147.0 L90.0 147.2 L87.5 148.5 L86.6 148.9 L85.7 148.9 L85.2 148.8 L84.7 148.5 L84.4 148.1 L84.2 147.7 L84.2 147.1 L84.5 146.8 L84.8 146.6 L85.1 146.2 L85.2 145.7 L85.1 145.0 L84.9 144.5 L84.5 144.2 L84.0 144.2 L81.5 144.6 L80.2 144.6 L79.2 144.2 L78.7 143.3 L78.9 142.9 L79.5 142.2 L79.7 141.8 L79.5 141.4 L79.2 141.1 L79.1 141.0 L78.7 140.8 L77.9 140.4 L77.4 140.4 L76.6 140.7 L75.8 140.8 L75.6 140.9 L75.4 141.0 L75.1 141.3 L74.9 141.4 L74.0 141.7 L73.7 141.9 L72.9 142.7 L72.6 142.8 L72.3 142.8 L70.9 142.6 L69.8 142.6 L68.8 142.9 L68.0 143.3 L67.4 144.0 L67.1 144.8 L66.6 145.5 L65.8 145.8 L65.1 145.7 L64.5 145.3 L64.0 145.2 L63.5 145.3 L63.2 145.6 L63.0 145.7 L62.8 145.6 L62.4 145.6 L62.1 145.7 L61.3 146.0 L60.6 146.1 L59.9 146.0 L59.2 145.7 L58.8 145.2 L58.8 144.9 L58.9 144.6 L59.0 144.2 L58.9 143.9 L58.6 143.7 L58.0 143.5 L57.8 143.3 L57.8 143.3 L57.8 143.3 L57.3 142.1 L56.9 141.6 L56.3 141.2 L55.9 141.2 L55.0 141.3 L54.5 141.3 L54.2 141.1 L53.6 140.7 L53.3 140.6 L52.9 140.7 L52.1 140.9 L51.6 141.0 L51.4 141.1 L51.3 141.2 L51.1 141.3 L51.0 141.4 L50.7 141.4 L50.2 141.3 L49.9 141.2 L49.6 141.3 L47.4 142.6 L46.9 142.7 L46.5 142.6 L46.5 142.2 L46.7 141.3 L46.7 140.9 L46.6 140.4 L46.4 140.2 L46.0 140.4 L45.3 141.6 L45.1 141.8 L44.7 141.9 L44.3 141.8 L43.4 141.4 L42.9 141.3 L42.4 141.3 L41.9 141.5 L41.4 141.7 L41.0 142.2 L40.8 142.3 L40.1 142.0 L39.0 142.0 L37.1 142.3 L36.1 142.0 L35.1 141.6 L34.1 141.3 L33.1 141.2 L30.9 141.3 L30.5 141.5 L29.6 142.0 L29.2 142.2 L28.8 142.4 L28.3 142.4 L27.7 142.4 L26.7 142.5 L26.1 142.4 L25.5 141.9 L25.4 141.8 L25.1 141.9 L25.1 142.1 L25.0 142.3 L24.8 142.5 L23.9 142.8 L23.5 142.2 L23.6 139.2 L23.5 138.7 L23.3 138.3 L23.0 138.0 L22.6 137.7 L22.2 137.3 L22.0 136.9 L22.1 135.9 L22.4 134.9 L23.5 132.3 L24.0 131.4 L24.1 131.2 L24.1 131.0 L24.2 131.0 L24.5 131.0 L25.3 131.7 L26.5 133.3 L28.9 132.6 L28.9 132.3 L28.3 131.5 L28.3 131.3 L28.3 131.1 L28.2 131.0 L28.1 130.8 L27.9 130.0 L28.1 129.4 L28.5 128.8 L29.0 128.2 L29.1 128.1 L29.2 127.6 L29.3 127.5 L29.5 127.6 L29.8 128.0 L29.9 128.1 L30.3 128.1 L30.7 128.1 L40.6 125.4 L41.5 125.4 L45.0 127.2 L45.6 127.4 L46.8 127.3 L47.4 127.3 L48.0 127.6 L48.3 127.9 L48.6 128.2 L49.0 128.5 L49.5 128.7 L50.4 128.8 L51.3 129.1 L53.3 129.4 L53.9 129.5 L54.5 129.8 L54.8 130.3 L54.4 130.8 L54.0 131.0 L53.6 131.2 L53.2 131.4 L52.9 131.8 L52.6 132.2 L52.6 132.7 L52.8 133.0 L53.3 133.1 L53.5 132.9 L53.7 132.4 L53.9 132.1 L54.2 132.0 L55.2 132.0 L55.8 131.9 L56.3 131.6 L56.7 131.3 L57.1 130.8 L57.3 129.9 L57.2 129.2 L57.4 128.5 L58.0 128.1 L59.6 127.6 L60.0 127.5 L60.9 126.8 L61.1 126.7 L61.2 126.6 L61.3 126.6 L61.4 126.7 L61.5 126.7 L61.5 126.8 L62.0 126.6 L62.2 126.5 L62.5 126.4 L63.8 126.6 L64.6 126.4 L65.4 125.9 L65.9 125.3 L65.4 124.7 L66.3 124.0 L67.7 123.8 L70.6 124.1 L71.4 124.1 L71.8 123.6 L72.0 123.1 L72.4 122.6 L72.7 122.5 L73.0 122.7 L73.2 123.0 L73.5 123.2 L73.8 123.3 L74.2 123.3 L75.0 123.3 L75.5 123.3 L76.3 123.9 L77.4 124.1 L77.7 124.4 L77.9 124.8 L78.3 125.1 L78.8 125.4 L79.4 125.6 L80.6 125.7 L81.2 125.7 L81.4 125.4 L81.5 125.0 L81.6 124.5 L82.1 124.2 L82.5 124.5 L82.9 125.0 L83.1 125.6 L83.1 126.6 L83.2 127.0 L83.7 127.1 L84.1 127.1 L85.4 126.5 L85.8 126.2 L86.1 125.8 L86.5 125.0 L87.3 124.4 L88.2 124.4 L89.2 124.6 L90.2 124.6 L90.5 124.6 L90.6 124.5 L90.8 124.6 L91.1 124.7 L91.5 124.7 L91.9 124.7 L92.0 124.4 L91.9 124.2 L91.7 124.1 L91.5 124.0 L90.8 123.8 L90.4 123.5 L90.2 123.1 L90.3 122.8 L92.5 121.9 L93.1 121.4 L93.5 120.7 L93.7 120.3 L93.9 120.0 L95.5 119.3 L96.0 119.2 L97.1 119.2 L97.3 119.2 L97.8 119.2 L98.0 119.3 L98.0 119.3 L97.9 119.6 L97.5 119.7 L97.1 119.7 L96.8 119.8 L96.7 120.0 L96.7 120.0 L97.0 120.1 L98.1 120.1 L98.5 120.2 L100.0 120.8 L100.7 121.0 L101.3 120.9 L101.8 120.4 L102.0 119.8 L102.1 119.2 L102.1 119.2 L101.9 118.9 L101.8 118.7 L101.8 118.7 L100.7 118.1 L100.5 117.8 L100.5 117.8 L100.5 117.6 L100.7 117.2 L100.7 116.7 L100.7 116.7 L100.1 116.0 L100.1 116.0 L100.2 115.6 L100.9 115.3 L101.8 115.9 L102.6 116.6 L103.3 116.9 L104.3 117.0 L106.1 117.9 L107.0 117.9 L107.4 117.7 L107.7 117.3 L107.8 117.0 L107.8 116.6 L108.0 116.2 L108.5 116.2 L109.4 116.5 L110.1 116.3 L110.4 114.6 L111.0 113.9 L111.9 113.6 L113.7 113.3 L115.8 112.2 L118.2 111.6 L119.4 111.1 L120.1 110.3 L120.0 109.8 L120.0 109.8 L119.8 109.8 L119.2 109.7 L117.8 109.7 L117.3 109.5 L116.9 109.1 L116.5 108.9 L114.7 109.5 L113.5 110.2 L113.2 110.2 L113.2 109.8 L113.1 109.0 L112.2 108.8 L108.9 109.1 L107.9 109.0 L106.9 108.6 L106.1 108.0 L105.0 106.7 L104.6 106.6 L103.9 106.6 L103.5 106.4 L103.5 105.8 L103.5 105.7 L103.5 105.5 L103.5 105.4 L103.3 105.3 L102.0 105.2 L101.3 105.1 L100.8 104.8 L100.0 104.0 L99.7 103.8 L99.3 104.1 L99.1 104.3 L98.8 104.9 L98.6 105.1 L97.7 105.2 L96.3 105.5 L95.5 105.7 L95.9 105.1 L96.0 104.6 L96.0 104.1 L95.8 102.8 L95.8 102.1 L95.6 101.4 L95.4 100.9 L94.7 100.7 L94.1 100.7 L93.5 101.0 L93.0 101.4 L92.2 101.7 L91.8 101.5 L91.4 101.1 L90.8 100.8 L88.8 101.0 L88.2 100.8 L88.1 99.7 L88.1 98.7 L88.0 97.8 L87.6 97.1 L85.2 94.5 L85.0 94.3 L84.8 94.2 L84.7 94.4 L84.6 94.9 L84.4 95.0 L84.2 94.9 L84.1 94.5 L83.8 94.4 L83.7 94.6 L83.6 94.9 L83.4 95.1 L83.2 95.0 L83.2 94.7 L83.6 93.3 L83.6 92.8 L83.5 92.3 L83.2 91.9 L82.6 91.9 L82.1 92.1 L81.8 92.3 L81.3 93.3 L81.3 93.3 L81.3 93.3 L81.5 93.7 L82.2 94.4 L82.3 94.9 L82.2 95.3 L81.9 96.2 L81.0 97.5 L80.3 98.1 L79.5 98.2 L78.4 97.9 L77.2 97.0 L76.9 96.9 L76.7 97.3 L76.9 101.6 L76.8 102.5 L76.2 102.8 L74.5 101.7 L73.9 102.3 L73.6 102.8 L73.3 102.8 L73.0 102.6 L72.7 102.2 L72.4 101.3 L72.1 101.0 L71.5 100.9 L71.0 101.1 L71.0 101.5 L71.1 101.9 L71.1 102.5 L70.9 102.9 L70.5 102.7 L69.9 101.9 L69.5 101.7 L68.5 101.6 L68.1 101.4 L67.6 101.1 L67.0 100.9 L65.8 100.7 L64.7 100.9 L64.2 100.8 L63.8 100.5 L63.4 100.1 L63.0 99.8 L62.6 99.6 L62.1 99.4 L61.5 99.4 L61.0 99.6 L60.6 99.7 L60.3 99.3 L60.3 98.9 L60.6 97.4 L60.6 96.8 L60.4 96.3 L59.0 94.5 L58.5 94.1 L58.1 93.8 L57.2 93.9 L54.2 95.3 L53.3 95.5 L53.1 95.5 L52.7 95.5 L52.3 95.2 L51.7 94.4 L51.3 94.0 L50.9 93.7 L50.0 93.3 L50.0 93.3 L50.0 93.3 L50.0 93.3 L46.4 93.0 L45.5 92.6 L45.1 91.8 L45.6 91.2 L49.6 89.4 L51.1 88.5 L52.0 88.2 L52.7 87.8 L53.3 87.2 L54.0 86.0 L55.1 85.0 L57.6 83.4 L58.4 83.1 L60.9 82.9 L61.7 82.6 L62.0 82.2 L62.1 80.8 L62.5 79.9 L63.5 79.7 L64.8 79.7 L65.8 79.5 L69.3 77.5 L71.4 77.1 L72.3 76.6 L72.7 75.7 L72.6 75.7 L71.8 75.5 L68.3 73.6 L67.5 73.3 L66.7 73.4 L65.6 74.0 L65.1 74.4 L64.3 74.3 L63.8 74.1 L62.8 73.3 L62.7 73.0 L63.0 72.6 L63.6 72.2 L63.9 71.9 L64.7 71.2 L64.9 70.9 L64.8 70.7 L64.7 70.6 L64.6 70.3 L64.8 69.8 L65.1 69.3 L65.4 68.9 L65.8 68.6 L67.0 69.2 L67.4 69.2 L67.7 69.1 L68.0 68.9 L68.0 68.6 L67.8 68.3 L67.8 68.3 L67.8 68.3 L67.8 68.3 L66.9 67.7 L66.7 67.5 L66.5 66.5 L67.4 66.1 L69.6 65.8 L69.9 65.5 L70.1 65.2 L70.0 64.2 L70.1 63.7 L70.3 63.4 L71.3 63.2 L71.7 63.0 L72.0 62.7 L72.5 61.9 L72.9 61.8 L73.5 61.9 L74.1 62.1 L74.6 62.2 L75.1 62.0 L75.5 61.8 L75.8 61.4 L76.1 61.0 L76.5 60.7 L77.1 60.7 L78.3 61.0 L78.7 60.9 L79.0 60.9 L79.2 61.0 L80.2 61.6 L80.5 61.7 L81.0 61.6 L83.7 60.3 L84.6 60.1 L86.3 60.0 L87.2 59.8 L87.6 59.8 L88.0 59.9 L88.4 60.1 L88.8 60.2 L90.3 60.5 L93.2 61.7 L94.0 61.8 L94.4 61.8 L95.1 61.6 L95.5 61.5 L98.7 61.6 L100.4 62.1 L103.3 63.5 L104.2 63.7 L106.0 63.7 L109.6 64.3 L110.3 64.6 L110.9 65.1 L111.8 66.3 L112.4 66.7 L113.3 67.0 L114.1 67.2 L115.0 67.2 L118.2 66.8 L119.3 66.8 L120.2 67.1 L120.7 67.4 L121.1 67.6 L121.6 67.7 L123.4 67.8 L124.0 67.9 L124.3 68.3 L124.3 69.0 L124.3 69.6 L124.6 69.9 L126.9 70.2 L128.3 70.6 L129.1 70.5 L129.1 70.1 L129.1 70.1 L127.2 67.5 L126.9 66.7 L126.7 65.9 L126.7 64.9 L127.0 64.0 L128.3 61.8 L129.0 60.8 L129.1 60.4 L129.0 59.9 L128.7 59.1 L128.7 58.7 L128.8 58.2 L129.0 57.9 L129.5 57.2 L130.4 55.2 L130.7 54.8 L131.1 54.5 L132.3 54.0 L136.6 52.7 L137.0 52.7 L138.0 52.7 L139.0 52.3 L139.8 50.6 L140.6 50.2 L141.1 50.3 L142.0 50.9 L142.4 51.1 L146.4 50.7 L146.8 50.5 L146.9 50.2 L146.6 49.7 L145.9 49.1 L146.6 49.4 L147.9 50.2 L148.6 50.4 L149.4 50.6 L150.2 50.8 L151.5 51.6 L152.0 51.8 L153.0 51.9 L153.9 52.3 L154.9 52.5 L155.4 52.7 L155.7 53.0 L156.4 53.8 L156.7 54.1 L159.3 55.6 L160.2 55.9 L163.0 56.2 L165.2 57.0 L165.9 57.4 L166.6 57.7 L168.1 58.0 L168.8 58.3 L169.4 58.7 L170.9 59.4 L171.6 59.5 L173.2 59.5 L178.9 60.0 L179.9 59.9 L180.4 60.0 L182.0 60.5 L182.6 60.5 L183.4 60.2 L184.1 59.8 L184.7 59.4 L184.9 59.1 L185.7 57.5 L186.0 57.3 L186.4 57.2 L186.6 57.2 L187.9 57.1 L188.9 57.2 L190.9 57.6 L191.5 57.7 L193.1 57.3 L193.7 57.2 L195.6 57.6 L197.8 57.6 L200.0 58.1 L200.3 58.0 L200.8 57.9 L201.1 57.9 L201.3 58.0 L201.6 58.4 L201.8 58.5 L202.3 58.4 L203.0 57.8 L203.5 57.7 L204.2 57.7 L205.5 58.1 L206.1 58.2 L206.6 58.1 L207.6 57.8 L208.7 57.8 L209.2 57.8 L210.1 57.4 L210.3 57.3 L210.3 57.2 L210.3 57.1 L210.5 57.1 L211.0 57.1 L211.1 57.1 L211.3 57.0 L211.8 56.6 L212.3 56.3 L212.8 56.2 L213.9 56.2 L214.9 56.0 L215.4 55.9 L215.9 56.0 L218.7 56.4 L219.6 56.6 L219.9 56.8 L220.6 57.6 L221.0 57.8 L221.4 57.9 L221.8 57.9 L222.2 57.9 L224.7 58.2 L225.5 58.0 L226.6 57.6 L227.0 57.5 L227.4 57.6 L228.0 57.7 L229.0 57.7 L229.5 57.9 L230.0 58.2 L230.5 58.4 L230.9 58.4 L232.2 57.9 L232.7 57.9 L234.4 57.9 L236.0 58.2 L236.2 58.4 L236.3 58.5 L236.5 58.7 L236.8 58.8 L237.4 58.6 L237.8 58.4 L238.0 58.3 L238.6 58.3 L239.2 58.3 L239.7 58.5 L241.2 59.1 L242.3 59.2 L245.0 59.1 L246.1 59.1 L247.3 59.0 L247.7 59.0 L248.8 59.3 L249.3 59.3 L249.7 59.2 L250.6 58.8 L251.2 58.6 L252.3 58.6 L253.9 58.7 L256.4 59.3 L257.4 59.8 L258.3 60.3 L258.7 60.5 L261.7 60.7 L263.7 61.3 L265.4 61.4 L266.4 61.7 L267.3 61.7 L269.3 61.0 L270.2 60.8 L270.9 61.0 L271.1 61.2 L270.9 62.2 L270.9 62.8 L271.1 63.3 L271.3 63.7 L271.7 64.2 L272.6 64.9 L274.6 65.6 L275.4 66.2 L276.5 68.2 L277.2 68.9 L278.5 69.3 L280.8 69.4 L282.9 69.1 L284.0 69.1 L289.5 70.0 L290.6 70.5 L290.9 70.8 L291.9 71.9 L293.5 73.0 L294.3 73.8 L295.0 74.6 L295.7 75.4 L296.8 75.9 Z M86.0 130.9 L85.4 131.1 L84.5 131.6 L84.1 131.8 L83.4 131.8 L83.0 132.2 L83.3 132.5 L83.8 132.8 L84.3 133.0 L84.9 133.1 L85.3 133.1 L85.6 132.8 L86.1 131.2 L86.0 130.9 Z M70.8 129.6 L70.6 129.6 L70.5 129.5 L70.4 129.5 L69.0 129.0 L68.4 128.7 L67.9 128.3 L67.6 127.6 L67.2 127.0 L66.6 126.7 L65.8 127.0 L65.4 127.8 L65.2 128.3 L65.2 128.7 L65.3 129.1 L66.0 130.1 L66.2 130.4 L66.6 130.6 L67.2 130.7 L67.5 130.9 L67.6 131.6 L66.6 132.9 L66.6 133.5 L66.9 133.6 L67.3 133.5 L67.6 133.2 L67.9 133.1 L68.4 133.1 L68.5 133.3 L68.6 133.6 L68.9 133.8 L69.2 133.8 L70.4 133.6 L71.2 133.5 L71.6 133.4 L71.9 133.1 L71.9 132.4 L70.8 131.5 L70.7 130.8 L71.2 130.5 L72.3 129.9 L72.5 129.5 L72.3 129.3 L72.0 129.2 L71.3 129.3 L71.2 129.4 L70.9 129.6 L70.8 129.6 Z M53.8 133.6 L53.5 133.6 L53.4 134.0 L53.6 134.4 L54.0 134.8 L54.8 135.2 L55.1 135.5 L55.8 136.4 L55.9 136.5 L57.2 135.7 L57.9 135.4 L58.7 135.3 L59.0 135.1 L59.0 134.7 L58.8 134.2 L58.5 134.1 L57.7 134.4 L56.9 134.4 L53.8 133.6 Z" fill="#172033" fill-rule="evenodd"/></svg>
