<svg xmlns="http://www.w3.org/2000/svg" viewBox="0 0 320 200" role="img"><path d="M174.9 22.0 L175.8 23.3 L177.1 25.4 L177.4 26.3 L178.1 27.7 L180.6 31.6 L182.6 35.8 L182.9 36.2 L184.0 37.2 L184.4 38.1 L189.1 43.5 L191.0 45.6 L193.2 47.6 L193.5 47.8 L195.0 49.2 L195.1 49.8 L195.1 50.5 L195.3 51.1 L196.3 51.5 L196.6 52.0 L197.5 54.2 L197.8 54.7 L198.3 54.9 L198.7 55.2 L200.0 57.2 L200.7 58.0 L201.0 58.5 L201.1 58.9 L201.3 59.4 L202.7 60.6 L203.2 61.6 L203.5 63.8 L204.1 65.0 L205.6 66.6 L205.7 66.9 L205.5 67.3 L205.2 67.6 L205.1 67.9 L205.1 68.2 L205.3 69.1 L205.5 71.6 L205.8 72.8 L206.7 75.3 L206.8 76.4 L206.5 77.5 L205.9 78.5 L205.3 79.7 L205.4 79.8 L205.5 80.9 L205.9 82.1 L206.0 83.3 L205.9 85.7 L205.7 86.2 L204.8 87.1 L204.5 87.6 L204.3 88.2 L204.2 91.6 L204.3 92.1 L204.5 92.4 L204.7 92.5 L204.8 92.6 L205.0 93.6 L205.2 94.3 L205.4 94.5 L205.6 94.6 L205.5 95.1 L205.2 95.3 L204.9 95.5 L204.6 95.5 L204.2 95.9 L204.1 96.2 L204.7 96.7 L205.2 97.1 L205.6 97.6 L206.2 97.6 L207.0 97.2 L208.8 95.5 L209.1 95.1 L209.6 95.4 L209.7 95.9 L209.9 96.4 L210.1 97.0 L209.6 97.5 L208.6 99.2 L208.5 99.9 L208.2 101.9 L207.5 103.6 L207.5 104.7 L206.7 106.5 L206.2 107.4 L205.9 107.9 L206.2 108.4 L206.4 108.7 L206.6 108.9 L206.5 109.6 L206.5 110.3 L206.3 111.4 L206.0 111.9 L205.5 112.4 L205.1 112.6 L204.9 112.1 L204.7 111.5 L204.3 111.0 L203.9 110.9 L203.7 111.4 L204.1 111.5 L204.3 111.7 L204.4 112.1 L204.5 112.5 L204.3 112.9 L204.0 113.0 L203.7 113.0 L203.5 113.2 L203.5 113.4 L203.6 113.9 L203.7 114.5 L203.4 114.8 L203.2 115.2 L203.4 115.5 L203.6 115.6 L203.6 116.0 L203.0 116.2 L202.4 116.5 L201.6 117.1 L200.9 117.1 L200.8 117.5 L200.7 118.0 L200.6 118.3 L200.4 118.5 L200.5 118.9 L200.5 119.1 L200.2 119.6 L199.8 120.4 L199.3 120.9 L199.0 121.4 L198.8 121.7 L198.3 121.7 L198.0 121.7 L197.6 121.8 L197.3 121.7 L197.0 121.9 L196.7 121.9 L196.6 122.3 L196.9 122.6 L196.9 122.9 L196.7 123.3 L196.1 123.5 L195.6 123.2 L195.3 122.9 L195.0 122.7 L194.3 123.4 L193.9 123.9 L193.8 124.5 L193.6 124.6 L193.5 124.3 L193.1 124.0 L193.1 124.3 L193.2 124.9 L193.0 124.9 L192.9 124.7 L192.8 124.6 L192.5 124.8 L192.2 124.9 L192.0 124.7 L191.8 124.1 L191.9 123.5 L192.1 122.8 L192.1 122.4 L192.0 122.3 L191.7 122.6 L190.8 123.8 L190.5 123.9 L190.4 123.3 L190.5 122.7 L190.3 122.7 L190.0 123.2 L189.8 123.8 L189.1 123.8 L187.2 123.8 L187.1 123.3 L186.9 123.0 L186.6 123.8 L186.4 123.9 L185.7 123.7 L185.4 123.2 L185.0 123.1 L184.6 123.4 L184.6 122.2 L184.5 122.1 L184.2 122.1 L184.0 122.4 L184.0 122.9 L183.5 122.6 L183.2 122.1 L182.8 121.9 L182.2 122.1 L182.3 121.7 L182.1 121.1 L182.2 120.9 L181.9 120.1 L181.8 120.0 L181.4 120.3 L181.1 120.7 L181.1 121.1 L181.4 121.7 L181.6 122.4 L181.7 122.7 L182.0 123.0 L182.5 123.6 L182.5 123.8 L182.4 124.2 L182.6 124.3 L183.0 124.4 L183.2 124.4 L182.9 124.6 L182.7 124.6 L182.1 124.6 L181.8 124.6 L181.7 124.4 L181.7 124.2 L181.6 124.0 L181.3 123.8 L181.1 123.7 L179.6 123.2 L179.1 123.2 L178.2 123.3 L177.9 123.4 L178.0 123.6 L178.3 124.0 L177.8 124.1 L176.8 124.5 L175.6 124.8 L175.5 125.1 L175.4 125.5 L175.1 125.8 L175.1 126.0 L178.0 124.7 L178.5 124.7 L178.6 125.2 L178.8 125.6 L178.8 125.9 L178.6 126.3 L178.2 126.5 L177.6 126.5 L177.1 126.5 L176.7 126.4 L176.5 126.7 L176.7 126.8 L176.9 126.9 L177.1 127.2 L177.1 127.3 L177.1 127.6 L177.1 128.2 L176.9 129.3 L177.2 129.5 L177.4 129.5 L177.6 129.2 L177.7 129.0 L178.1 129.3 L177.7 129.9 L177.0 130.7 L176.3 130.9 L175.5 130.8 L175.5 130.4 L176.0 130.4 L176.3 130.3 L176.4 130.1 L174.6 130.0 L174.2 129.8 L173.8 129.4 L173.8 129.1 L174.1 129.0 L174.7 128.8 L174.1 127.7 L173.6 128.1 L173.1 128.8 L172.5 128.9 L171.9 128.2 L171.5 128.0 L170.9 128.0 L170.6 128.1 L170.4 128.5 L170.4 128.9 L170.4 129.3 L169.8 129.2 L168.5 129.3 L167.9 129.1 L167.9 128.9 L167.9 128.5 L167.8 128.4 L167.7 128.3 L167.4 128.4 L167.0 128.3 L166.3 128.3 L166.0 128.2 L165.9 127.9 L165.9 127.7 L166.0 127.5 L166.0 127.3 L166.0 125.2 L166.0 124.8 L166.1 124.7 L166.3 124.4 L166.4 124.2 L166.4 123.8 L166.0 124.3 L165.6 124.8 L165.2 125.2 L164.5 125.2 L165.0 126.2 L164.6 126.4 L163.9 126.4 L163.1 126.8 L162.8 126.1 L162.6 125.8 L162.3 125.6 L162.2 126.5 L161.9 127.3 L161.3 127.7 L160.6 127.8 L160.2 127.7 L160.0 127.6 L159.7 127.6 L159.6 127.8 L159.1 127.5 L158.8 127.4 L158.7 127.4 L157.5 127.4 L157.1 127.3 L156.9 127.2 L156.9 127.0 L156.7 126.7 L156.4 126.5 L156.3 126.7 L156.3 127.0 L156.4 127.2 L156.2 127.7 L156.1 127.9 L155.8 128.2 L154.7 128.9 L154.1 129.1 L153.7 128.8 L153.2 127.9 L152.7 127.7 L152.4 128.1 L152.2 128.7 L152.3 129.1 L152.5 129.7 L153.0 130.3 L153.5 130.9 L153.9 131.1 L154.3 131.5 L154.6 131.6 L154.9 131.4 L155.8 130.7 L156.4 130.7 L157.0 130.7 L157.5 130.8 L158.0 130.5 L158.0 131.1 L157.9 131.5 L157.6 132.3 L157.3 133.7 L157.0 134.1 L156.0 134.4 L155.2 134.0 L154.6 133.9 L154.0 134.9 L153.9 134.8 L153.8 134.8 L153.8 134.8 L153.6 134.9 L153.9 135.2 L154.0 135.6 L154.3 136.9 L154.1 137.2 L153.8 137.0 L153.4 136.6 L152.7 136.6 L152.2 136.3 L151.8 135.9 L151.7 135.3 L151.9 134.6 L152.2 134.0 L152.5 133.5 L152.4 133.0 L152.1 132.7 L151.7 131.9 L151.6 131.9 L151.4 131.8 L151.2 131.8 L151.1 131.7 L151.1 131.6 L151.1 131.4 L151.2 131.3 L150.8 130.5 L150.7 130.2 L150.7 130.1 L150.9 129.8 L150.9 129.6 L150.8 129.5 L150.7 129.4 L150.6 129.3 L150.5 129.4 L150.4 129.5 L149.9 130.5 L149.7 130.7 L149.6 130.8 L149.5 130.8 L148.5 131.1 L147.9 131.2 L146.7 131.1 L146.2 131.2 L146.6 131.5 L147.3 131.8 L147.9 131.9 L147.9 132.1 L146.7 132.4 L146.1 132.7 L146.0 133.1 L146.2 133.3 L146.8 133.1 L147.1 133.2 L147.3 133.5 L147.2 133.6 L147.1 133.6 L147.0 133.7 L147.4 134.8 L148.2 135.4 L149.1 135.9 L149.7 136.6 L149.4 136.6 L148.9 136.6 L148.7 136.6 L149.9 137.0 L150.1 137.3 L150.2 137.9 L149.9 138.2 L149.6 138.4 L149.1 138.3 L148.7 138.4 L147.4 137.7 L147.0 137.6 L146.6 137.7 L146.1 137.9 L145.7 138.1 L145.6 138.3 L145.6 138.4 L146.0 139.0 L146.4 139.1 L146.6 139.2 L147.7 139.0 L148.3 139.4 L147.0 140.4 L146.5 141.0 L146.0 140.8 L145.1 141.3 L145.2 141.8 L145.6 142.1 L144.8 142.1 L143.6 140.9 L143.2 140.2 L142.1 139.2 L141.8 139.3 L140.7 139.8 L140.8 140.1 L140.9 140.2 L140.4 140.0 L139.9 140.0 L139.5 139.8 L139.3 139.4 L139.2 139.0 L139.4 138.7 L140.1 138.4 L140.3 138.3 L140.9 137.6 L141.2 137.0 L141.4 136.8 L141.8 136.6 L141.8 137.1 L141.7 137.6 L141.2 138.4 L142.1 138.4 L142.8 138.2 L143.2 137.7 L143.2 136.8 L143.0 136.5 L142.8 136.3 L142.6 136.1 L142.6 135.6 L142.8 135.4 L143.6 134.7 L143.9 134.8 L144.1 135.0 L144.1 135.2 L144.0 135.5 L144.2 135.8 L144.4 136.1 L144.7 136.2 L145.2 136.1 L145.4 135.9 L145.8 135.2 L146.0 134.9 L145.6 134.4 L145.4 133.9 L145.2 133.6 L144.7 134.0 L144.1 134.2 L143.5 133.8 L142.8 132.9 L142.4 133.4 L141.8 134.7 L141.4 135.1 L141.0 135.2 L140.7 135.2 L140.0 135.1 L139.6 135.2 L139.3 135.4 L138.8 136.0 L138.6 136.1 L137.5 136.6 L136.9 137.0 L136.6 137.2 L136.2 137.2 L136.0 137.3 L135.9 137.6 L136.0 137.9 L135.9 138.2 L135.7 138.5 L135.5 138.7 L135.3 139.0 L135.5 139.4 L133.9 140.7 L134.0 141.9 L133.7 142.1 L133.0 141.7 L132.7 142.0 L132.6 142.3 L132.6 142.6 L132.8 142.9 L132.4 142.8 L131.6 142.4 L130.5 142.1 L130.2 142.0 L130.0 141.4 L130.1 140.0 L130.0 139.4 L130.2 139.0 L130.1 138.6 L130.0 138.2 L129.6 138.0 L129.3 138.1 L129.0 138.3 L128.8 138.6 L128.7 138.9 L128.8 139.3 L129.0 139.6 L129.0 139.9 L128.1 140.1 L128.2 140.5 L128.8 141.2 L127.7 141.7 L127.3 142.0 L127.8 142.1 L127.9 142.2 L127.9 142.3 L127.9 142.5 L127.8 142.5 L127.6 142.5 L127.3 142.4 L127.2 142.4 L126.8 142.4 L126.7 142.5 L126.7 142.7 L126.6 143.0 L126.3 143.2 L125.5 143.3 L125.2 143.6 L125.1 143.7 L124.4 145.7 L124.3 146.0 L124.3 146.3 L123.6 146.2 L122.3 146.5 L121.9 146.5 L121.9 146.1 L122.2 145.4 L122.1 145.1 L121.9 144.9 L121.5 144.9 L120.7 144.9 L120.7 144.7 L120.9 144.6 L120.9 144.4 L121.0 144.0 L121.1 144.0 L121.2 144.0 L121.3 143.9 L121.8 143.3 L121.8 143.0 L121.7 142.7 L121.6 142.7 L121.4 142.6 L120.9 142.5 L120.6 142.5 L120.6 142.3 L120.7 142.2 L120.7 142.1 L120.8 141.8 L120.9 141.4 L120.8 141.2 L120.3 141.4 L120.5 140.7 L121.0 140.3 L121.8 140.2 L122.5 140.2 L122.4 140.0 L122.2 139.8 L122.0 139.7 L121.7 139.6 L122.2 139.3 L122.5 139.0 L122.5 138.7 L122.1 138.6 L122.0 138.6 L121.7 138.9 L121.5 139.0 L121.3 139.0 L120.9 138.8 L120.7 138.8 L120.6 138.9 L120.4 139.1 L120.3 139.4 L120.1 139.4 L119.8 139.4 L119.6 139.4 L119.0 139.4 L118.6 139.4 L118.2 139.6 L118.1 139.1 L117.9 138.9 L117.2 138.6 L117.2 138.5 L117.1 138.3 L116.9 138.1 L116.8 138.3 L116.7 138.4 L116.5 138.5 L116.3 138.6 L116.1 138.5 L115.5 138.0 L115.4 138.0 L115.3 137.7 L115.4 137.6 L115.5 137.6 L115.6 137.4 L115.7 137.6 L116.0 137.6 L116.2 137.4 L116.1 137.1 L115.3 136.8 L114.7 136.5 L114.7 135.6 L114.9 134.7 L115.3 134.1 L115.3 133.9 L115.3 133.6 L115.3 133.4 L115.5 133.3 L115.7 133.3 L116.0 133.3 L116.1 133.4 L116.3 133.8 L117.2 134.9 L116.9 135.2 L116.9 135.4 L116.9 135.7 L117.0 136.1 L117.6 137.4 L117.9 137.6 L119.4 137.8 L120.0 138.2 L120.3 138.1 L120.5 137.6 L120.2 137.7 L120.1 137.6 L119.5 137.5 L119.2 137.1 L118.8 136.8 L118.9 136.2 L118.5 136.2 L118.4 136.6 L118.1 136.7 L117.9 136.1 L117.8 135.4 L118.0 135.0 L117.8 134.5 L118.6 134.4 L119.8 134.6 L120.0 134.9 L119.9 135.2 L119.9 135.4 L119.9 135.5 L120.0 135.6 L120.3 135.8 L120.4 136.0 L120.8 136.2 L121.3 136.4 L121.7 136.6 L122.1 136.9 L122.4 137.0 L122.5 136.9 L121.9 136.2 L122.2 136.2 L122.8 136.4 L123.5 136.7 L124.3 137.0 L124.9 136.8 L124.3 136.7 L123.8 136.5 L122.9 135.9 L123.1 135.6 L122.5 135.3 L121.6 134.3 L121.0 134.1 L120.3 134.0 L119.5 134.0 L118.9 133.7 L118.2 133.9 L117.5 133.7 L117.4 133.4 L117.8 133.0 L118.2 132.8 L119.1 132.9 L120.2 132.5 L121.5 133.3 L121.9 133.3 L122.1 133.3 L122.1 133.4 L122.2 133.4 L122.3 133.5 L122.2 132.9 L122.3 132.4 L122.6 132.1 L123.3 131.9 L124.6 132.2 L125.3 132.3 L125.1 131.9 L125.5 131.7 L125.8 131.7 L126.1 131.7 L125.7 131.3 L125.0 131.2 L123.5 131.3 L123.6 131.0 L123.6 130.8 L123.5 130.6 L123.5 130.3 L123.6 130.2 L123.8 130.0 L123.9 129.8 L123.9 129.5 L123.7 129.1 L123.3 129.0 L122.8 129.2 L122.5 129.5 L122.5 129.8 L122.7 130.3 L122.7 130.5 L122.7 130.6 L122.3 131.1 L122.0 132.1 L121.7 132.4 L121.1 132.5 L121.1 132.4 L121.0 132.3 L121.1 132.2 L121.2 131.9 L121.3 131.7 L121.0 131.5 L120.7 131.6 L120.4 131.8 L120.1 131.9 L119.3 131.8 L119.1 131.9 L119.0 132.2 L118.6 132.2 L118.0 132.3 L117.7 132.2 L117.6 131.9 L117.8 131.6 L118.4 131.1 L118.6 130.9 L118.7 130.7 L118.8 130.5 L118.8 130.2 L118.7 129.8 L118.8 129.6 L119.2 129.3 L118.8 129.1 L118.5 128.6 L118.3 128.1 L118.4 127.6 L118.8 127.3 L119.3 127.0 L119.5 126.7 L118.8 126.6 L118.5 126.6 L118.3 126.8 L118.1 126.9 L117.9 127.0 L117.6 127.1 L117.7 127.4 L117.8 127.7 L117.8 128.0 L117.4 128.3 L116.9 128.3 L116.4 128.2 L116.0 128.0 L116.3 127.8 L116.4 127.8 L116.2 127.6 L115.9 127.4 L115.8 127.2 L115.6 127.0 L116.0 126.8 L116.3 126.8 L117.0 127.0 L116.9 126.4 L117.7 125.7 L117.5 125.1 L116.7 124.2 L116.2 123.8 L115.6 123.6 L115.8 124.3 L115.7 124.7 L115.2 124.7 L114.8 124.2 L115.1 123.9 L114.4 123.1 L114.3 122.6 L114.7 122.2 L115.3 122.2 L115.8 122.4 L116.0 122.9 L116.4 122.7 L116.6 122.3 L116.8 121.7 L117.0 122.0 L117.1 122.3 L117.0 122.8 L116.9 123.1 L116.8 123.2 L116.9 123.4 L117.0 123.4 L117.1 123.4 L117.2 123.4 L117.3 123.8 L117.4 124.0 L117.5 124.1 L117.8 124.2 L118.1 124.3 L118.6 124.3 L118.8 124.4 L118.6 124.8 L118.7 125.1 L118.9 125.4 L119.2 125.6 L119.9 124.3 L120.0 123.8 L120.0 123.3 L119.8 123.1 L119.3 123.0 L119.1 122.9 L118.9 122.7 L118.6 122.1 L117.6 121.2 L117.4 120.8 L117.5 120.6 L117.6 120.5 L117.7 120.4 L117.8 120.1 L117.5 119.9 L117.3 119.7 L117.4 119.3 L117.0 119.4 L116.7 119.5 L115.8 119.5 L116.2 119.2 L116.7 119.1 L117.3 119.0 L117.8 118.9 L117.6 118.9 L117.5 118.8 L117.4 118.7 L117.2 118.7 L117.3 118.5 L117.5 118.3 L117.7 118.2 L117.9 118.0 L118.0 117.8 L117.9 117.6 L117.9 117.4 L117.8 117.2 L117.9 116.8 L118.1 116.3 L118.8 115.6 L118.9 115.7 L119.4 116.1 L119.9 116.3 L120.1 116.3 L120.1 116.0 L119.1 115.2 L119.0 114.9 L119.2 114.2 L119.7 113.3 L120.5 111.9 L121.1 111.1 L122.1 110.8 L123.1 110.6 L124.0 110.6 L124.5 110.3 L124.9 109.8 L125.4 109.7 L125.9 110.2 L126.5 110.7 L126.9 110.8 L126.5 109.8 L126.2 109.3 L125.8 109.1 L121.7 109.6 L120.3 108.9 L120.4 108.1 L120.4 107.8 L121.1 107.5 L121.7 107.1 L122.2 106.5 L123.1 106.1 L124.1 105.7 L124.9 104.8 L125.0 103.9 L125.5 103.7 L125.8 103.5 L126.0 103.4 L127.0 103.3 L128.0 103.4 L128.7 103.8 L129.1 103.9 L129.4 104.3 L129.6 104.1 L129.7 103.8 L129.7 103.4 L129.3 103.2 L129.0 103.0 L128.5 102.8 L127.9 102.5 L127.4 102.2 L127.1 102.0 L127.2 101.8 L127.4 101.5 L127.7 101.4 L127.9 101.3 L129.5 101.4 L129.9 101.4 L130.1 101.3 L130.3 101.0 L130.4 100.8 L130.5 100.7 L130.9 100.6 L131.0 100.5 L130.9 100.3 L130.6 100.1 L130.2 100.0 L130.1 100.0 L128.0 100.7 L127.3 100.8 L125.9 100.7 L124.6 100.6 L124.5 100.1 L124.5 99.4 L124.2 99.2 L123.3 99.0 L122.1 99.2 L121.9 98.3 L124.5 98.1 L126.0 97.9 L127.4 97.8 L127.9 97.6 L128.4 97.7 L129.0 97.5 L130.0 96.8 L131.4 96.4 L131.9 96.1 L132.0 95.7 L130.3 96.1 L129.7 96.2 L129.1 96.6 L128.6 96.9 L128.1 97.1 L127.5 97.2 L126.9 97.4 L126.4 97.3 L126.3 97.1 L126.2 96.8 L126.1 96.4 L125.8 96.1 L125.4 95.6 L125.1 95.3 L125.5 95.0 L125.3 94.8 L124.9 94.7 L124.6 94.6 L123.9 93.7 L123.4 93.5 L123.0 93.7 L122.8 93.7 L122.8 93.4 L122.2 93.0 L121.6 93.1 L121.4 93.6 L121.3 93.8 L121.1 93.7 L121.3 92.8 L122.2 92.4 L123.1 92.2 L124.3 92.5 L123.9 91.9 L123.6 91.7 L123.3 91.5 L123.1 91.5 L122.9 91.6 L122.7 91.5 L122.5 91.3 L122.3 91.1 L122.9 89.8 L123.3 89.2 L123.7 89.0 L123.4 88.7 L122.2 88.4 L121.7 88.2 L122.2 87.8 L123.4 87.6 L123.7 87.3 L123.5 86.9 L123.1 86.8 L122.1 86.8 L121.9 86.7 L121.6 86.4 L121.3 86.2 L121.3 86.0 L121.7 86.0 L121.3 85.4 L121.8 85.1 L122.4 85.0 L123.0 84.3 L124.1 84.1 L124.7 83.8 L123.0 83.8 L122.6 84.0 L122.0 84.8 L121.5 84.8 L121.3 84.6 L121.0 84.0 L120.8 83.5 L120.9 83.2 L121.5 82.6 L121.7 82.2 L121.6 82.1 L121.1 82.2 L120.8 82.1 L120.6 81.9 L120.5 81.9 L120.3 81.6 L120.5 81.4 L120.4 81.1 L120.3 80.6 L120.1 80.4 L120.1 80.3 L120.5 80.3 L121.1 80.1 L121.7 80.1 L121.7 79.7 L121.9 79.4 L121.7 79.2 L121.3 79.1 L120.9 78.8 L121.2 78.4 L121.6 78.2 L121.3 77.8 L120.6 77.7 L120.5 77.2 L120.7 76.8 L121.3 76.7 L121.0 76.4 L120.8 76.2 L120.7 76.0 L120.5 76.1 L120.1 76.5 L119.6 76.6 L119.5 76.8 L119.6 77.0 L119.8 77.3 L119.8 77.8 L119.6 78.3 L119.7 79.1 L119.4 79.7 L119.2 80.0 L118.6 79.7 L118.1 79.6 L117.5 79.4 L117.6 77.8 L117.8 77.2 L117.5 77.1 L117.6 76.4 L117.3 76.1 L116.8 76.2 L116.6 76.5 L116.5 77.0 L116.3 77.3 L115.6 77.3 L115.9 77.8 L116.4 78.5 L116.6 78.9 L116.3 79.1 L116.3 79.4 L116.8 79.9 L116.4 80.0 L116.0 80.1 L115.7 80.4 L115.4 80.7 L115.4 80.5 L115.4 80.3 L115.3 80.1 L115.3 79.9 L115.6 79.2 L114.8 78.1 L115.1 77.5 L114.8 76.7 L114.3 77.0 L113.5 77.8 L113.0 77.9 L112.7 78.0 L112.4 78.1 L112.1 78.1 L111.7 77.9 L111.6 77.8 L111.5 77.5 L111.5 77.3 L111.6 77.1 L112.8 77.1 L113.1 77.0 L113.1 76.5 L112.8 76.1 L112.3 75.9 L111.9 75.8 L111.5 75.6 L111.4 75.9 L111.3 76.6 L111.1 77.0 L110.8 77.2 L110.7 77.0 L110.7 76.3 L110.6 75.6 L110.7 75.4 L111.5 74.6 L111.6 74.3 L111.7 74.0 L111.8 74.3 L111.9 74.5 L112.1 74.7 L112.3 75.0 L112.4 74.9 L112.6 74.9 L112.8 74.9 L113.1 75.0 L112.8 74.6 L112.5 74.2 L113.3 74.4 L113.6 74.3 L113.9 74.0 L113.1 73.9 L112.7 73.8 L112.6 73.4 L113.1 72.8 L112.4 72.4 L112.5 72.0 L113.0 71.7 L113.7 71.4 L113.5 72.1 L113.6 72.3 L114.0 72.4 L114.7 72.4 L114.9 72.3 L115.1 72.0 L115.1 71.4 L115.0 70.5 L115.2 69.8 L115.8 69.6 L115.7 70.0 L115.8 70.7 L115.9 71.3 L116.3 72.1 L116.1 72.3 L115.8 72.6 L115.6 72.8 L115.6 73.1 L115.8 73.5 L115.8 73.6 L115.7 73.7 L115.2 74.0 L115.1 74.1 L115.1 74.3 L115.2 74.6 L115.3 74.8 L115.5 74.7 L116.0 74.3 L116.4 74.3 L117.2 74.8 L116.6 73.7 L116.4 73.1 L116.7 72.8 L117.2 73.3 L117.5 73.4 L117.6 73.1 L117.7 73.0 L118.0 72.9 L118.6 72.8 L118.6 72.6 L118.4 72.6 L117.8 72.4 L117.8 72.2 L118.5 72.1 L118.9 71.6 L119.0 70.9 L118.8 70.4 L118.5 70.4 L117.8 70.4 L117.4 70.3 L117.1 70.0 L117.0 69.7 L117.2 69.6 L117.6 69.9 L117.8 69.4 L117.6 69.2 L117.1 69.0 L116.6 69.1 L116.8 68.9 L117.1 68.7 L117.4 68.7 L117.7 68.8 L118.0 68.9 L118.2 69.0 L118.3 68.9 L118.2 68.7 L118.2 68.5 L119.3 68.5 L119.8 68.6 L120.0 69.0 L119.8 69.2 L119.6 69.5 L119.4 69.8 L119.6 70.3 L119.8 70.0 L120.1 69.9 L120.4 69.9 L120.5 70.2 L120.6 70.4 L120.7 70.5 L120.7 70.7 L120.7 70.8 L120.4 71.1 L120.3 71.2 L120.3 72.5 L120.4 72.9 L120.7 73.2 L120.9 73.3 L121.0 73.1 L121.1 72.4 L121.6 71.0 L121.7 70.4 L121.9 70.2 L122.2 70.4 L122.7 70.8 L122.9 71.1 L123.1 71.4 L123.3 71.6 L123.7 71.6 L123.7 71.4 L123.5 71.2 L123.2 70.6 L123.0 70.4 L121.3 68.9 L121.1 68.8 L121.2 68.5 L121.5 68.5 L121.8 68.7 L122.2 69.2 L122.5 69.4 L122.8 69.5 L123.1 69.5 L123.4 69.3 L123.4 69.1 L123.2 69.0 L122.8 68.9 L122.3 68.7 L121.7 68.2 L121.4 67.6 L121.3 67.1 L121.9 67.1 L122.3 67.3 L122.7 67.6 L123.3 67.9 L123.9 68.2 L124.1 68.4 L124.5 68.6 L125.0 68.8 L125.2 69.2 L125.1 69.6 L124.8 69.8 L124.9 70.1 L125.2 70.5 L125.2 70.8 L125.1 71.2 L125.4 71.1 L125.5 70.8 L125.6 70.6 L125.5 69.9 L125.6 69.7 L125.8 69.4 L126.1 69.0 L126.5 68.8 L127.0 68.8 L127.5 68.9 L128.0 69.1 L128.7 69.2 L129.2 69.5 L129.8 70.0 L129.9 70.6 L129.4 71.8 L129.8 71.6 L130.3 71.1 L130.6 71.0 L130.8 71.3 L130.9 71.7 L131.0 72.5 L131.0 72.7 L130.8 73.1 L130.8 73.3 L130.9 73.5 L131.1 73.9 L131.4 74.8 L131.3 75.0 L130.8 75.2 L130.9 75.4 L131.0 75.6 L131.2 75.7 L131.4 75.8 L131.6 75.1 L131.9 74.7 L132.0 74.3 L131.8 73.6 L132.4 73.7 L133.0 73.8 L132.0 72.9 L131.7 72.4 L132.3 72.2 L132.8 72.2 L134.0 71.8 L135.0 71.2 L135.4 71.0 L135.7 70.8 L135.9 70.1 L135.9 69.9 L135.6 69.7 L135.5 69.6 L135.7 69.5 L135.8 69.5 L136.0 69.5 L136.4 69.3 L136.6 69.3 L136.8 69.2 L136.9 68.9 L135.2 69.3 L134.9 69.6 L135.0 70.4 L134.8 70.6 L134.1 70.8 L133.2 70.7 L132.1 70.2 L131.0 69.4 L130.7 68.6 L132.4 68.5 L132.4 68.3 L132.3 68.2 L132.0 68.1 L132.3 68.0 L132.6 68.1 L132.9 68.1 L133.1 68.3 L133.0 67.7 L132.6 67.3 L132.3 66.7 L132.6 65.9 L132.2 65.8 L132.0 66.1 L131.8 66.5 L131.8 67.0 L131.6 67.5 L131.4 67.6 L131.1 67.4 L130.5 67.5 L130.0 67.6 L128.7 67.3 L128.7 67.0 L128.5 66.7 L128.7 66.3 L128.6 65.8 L128.9 65.3 L129.3 64.9 L129.8 64.7 L130.3 64.6 L131.0 64.5 L131.8 64.4 L131.9 64.2 L132.0 63.6 L131.8 63.5 L131.4 63.7 L130.8 64.1 L130.4 64.1 L130.2 63.9 L130.0 63.7 L130.0 63.4 L129.3 63.6 L128.8 64.0 L127.8 64.8 L127.5 65.0 L127.2 65.1 L126.9 65.1 L126.7 65.0 L126.7 64.7 L126.9 64.4 L127.3 64.0 L126.4 64.1 L126.2 64.0 L126.1 63.6 L126.2 63.4 L126.6 63.2 L127.0 63.1 L127.3 63.0 L127.6 62.6 L127.5 62.5 L126.8 62.6 L126.5 62.4 L126.3 62.1 L126.1 61.7 L125.9 61.4 L126.0 61.4 L126.1 61.3 L126.3 61.2 L126.5 61.3 L126.8 61.3 L127.4 61.2 L127.8 61.3 L128.2 61.5 L128.6 61.6 L129.0 61.4 L129.0 61.7 L129.0 62.0 L129.2 62.3 L129.4 62.4 L129.7 62.3 L129.9 62.0 L130.0 61.4 L130.5 60.8 L130.9 60.9 L131.4 61.1 L132.0 61.0 L131.8 60.8 L131.7 60.6 L131.5 60.5 L131.2 60.4 L130.8 60.4 L130.6 60.2 L130.2 60.1 L129.8 60.2 L129.5 60.2 L128.9 60.1 L128.0 59.9 L126.8 59.1 L126.7 58.8 L127.3 58.2 L127.7 57.9 L127.6 57.7 L126.1 57.5 L125.4 58.2 L124.6 57.8 L124.9 57.3 L125.3 56.8 L125.1 56.5 L124.6 56.3 L124.1 56.1 L124.2 55.5 L124.1 55.1 L124.3 54.7 L125.2 54.5 L125.4 54.4 L125.5 54.2 L125.1 54.1 L125.0 54.4 L124.4 54.4 L124.2 54.1 L124.2 53.6 L124.3 52.9 L124.2 52.7 L123.9 52.2 L123.7 51.9 L123.4 51.5 L123.1 51.2 L123.1 50.8 L122.9 50.3 L122.6 49.4 L122.2 47.0 L122.3 46.6 L122.7 46.6 L124.3 47.0 L124.8 46.9 L125.2 46.8 L125.6 46.7 L126.0 46.9 L126.1 47.2 L126.2 47.8 L126.1 48.3 L126.0 48.7 L126.0 49.4 L126.9 49.9 L128.0 50.3 L128.7 50.4 L128.1 49.9 L126.5 49.0 L127.0 47.9 L127.1 47.3 L127.0 46.9 L126.7 46.5 L126.7 46.2 L126.6 45.9 L126.8 45.3 L127.1 44.8 L126.9 44.6 L126.6 44.7 L126.1 44.9 L125.9 42.4 L126.1 41.7 L126.4 41.5 L127.0 41.5 L127.7 41.3 L128.9 40.6 L131.3 37.6 L131.8 37.2 L132.9 36.5 L133.4 36.1 L134.0 34.9 L134.4 34.2 L134.7 33.8 L134.9 33.7 L136.5 32.6 L138.3 31.7 L140.2 31.1 L142.1 31.0 L143.0 31.0 L146.5 30.8 L149.3 31.4 L150.1 31.4 L151.8 31.0 L157.4 30.6 L157.6 30.7 L158.0 31.1 L158.3 31.4 L158.7 31.5 L160.6 31.2 L163.6 31.3 L165.6 31.2 L167.6 30.6 L169.4 29.7 L170.9 28.5 L171.6 27.7 L172.2 26.9 L172.5 26.0 L172.7 25.0 L172.4 24.0 L172.3 23.5 L172.5 23.1 L173.3 22.7 L174.9 22.0 Z M118.6 84.3 L118.8 84.8 L119.2 85.3 L119.4 85.7 L119.1 85.6 L117.8 85.7 L117.4 85.6 L117.3 85.2 L117.5 85.0 L117.7 84.9 L117.8 84.6 L117.1 85.0 L116.8 84.8 L116.9 84.4 L117.4 83.8 L117.2 83.7 L116.8 84.0 L116.7 83.8 L116.4 83.9 L116.5 83.2 L116.4 82.2 L116.3 81.5 L116.0 80.7 L116.3 80.5 L116.8 80.1 L117.3 79.9 L117.7 80.4 L117.7 80.6 L117.6 80.8 L117.4 80.9 L117.4 81.1 L117.9 82.0 L118.0 82.3 L117.9 82.5 L118.0 82.7 L118.3 82.9 L118.6 83.3 L118.0 83.3 L118.0 83.4 L118.2 83.5 L118.6 83.7 L118.6 83.8 L118.5 84.0 L118.6 84.3 Z M134.2 169.9 L134.4 170.3 L134.2 170.4 L134.0 170.5 L133.8 170.7 L133.8 170.9 L134.0 171.1 L134.0 171.3 L133.9 171.4 L133.6 171.7 L133.6 171.8 L133.0 172.3 L132.1 173.0 L131.8 173.5 L131.3 174.1 L131.3 174.4 L131.1 174.8 L130.4 174.8 L130.1 175.0 L129.4 174.9 L128.3 175.6 L125.4 176.1 L124.4 176.8 L123.2 177.0 L121.9 176.9 L120.5 177.1 L119.3 176.8 L116.5 176.8 L115.7 177.2 L115.2 177.9 L114.7 178.0 L114.3 177.8 L113.6 176.9 L112.7 176.7 L111.9 175.9 L111.6 175.0 L112.1 173.9 L112.6 173.1 L112.9 172.9 L113.9 172.4 L114.7 171.1 L115.5 171.0 L115.9 170.3 L117.2 169.9 L120.2 169.2 L120.9 168.7 L123.7 168.5 L125.6 167.8 L126.1 167.9 L128.4 167.6 L129.7 167.5 L130.6 167.6 L131.0 168.0 L131.4 168.3 L132.8 168.8 L133.2 169.1 L133.5 170.0 L133.8 170.3 L133.9 170.2 L134.1 170.1 L134.2 169.9 Z M117.9 140.6 L117.9 141.0 L117.8 141.4 L117.7 141.9 L117.1 142.9 L116.9 143.2 L116.6 143.3 L116.6 143.2 L116.1 142.9 L115.8 142.7 L115.8 142.9 L115.7 143.4 L113.0 144.6 L112.7 144.7 L111.5 144.8 L111.1 144.7 L111.1 144.5 L111.2 144.3 L111.4 144.1 L111.5 143.9 L111.4 143.8 L110.5 143.3 L110.5 143.9 L109.9 143.4 L110.3 142.4 L111.1 141.6 L111.9 141.6 L112.2 140.9 L112.3 140.7 L112.6 140.5 L112.9 140.3 L113.2 140.3 L113.4 140.2 L113.5 139.8 L113.8 140.1 L114.3 140.1 L114.7 139.9 L114.8 139.5 L114.6 139.1 L113.9 138.6 L114.1 138.4 L114.5 138.4 L115.0 138.6 L115.4 138.9 L115.7 139.0 L115.8 139.1 L115.9 139.3 L116.0 139.5 L116.2 139.6 L116.4 139.6 L117.0 139.2 L117.0 139.5 L117.9 140.6 Z M166.4 131.5 L166.6 131.8 L166.5 132.1 L166.4 132.4 L166.3 132.8 L166.3 133.4 L166.3 133.7 L166.2 133.9 L165.9 134.0 L166.2 134.6 L166.1 134.9 L165.6 134.9 L165.2 134.7 L164.7 134.6 L164.2 134.8 L163.7 134.8 L163.5 134.3 L163.1 133.1 L162.7 132.9 L162.3 133.1 L162.0 133.6 L161.9 134.2 L161.8 134.4 L161.3 134.4 L160.9 134.3 L160.7 134.2 L160.5 133.9 L160.4 133.7 L160.4 133.5 L160.4 133.1 L159.6 131.0 L159.5 130.5 L159.5 130.0 L159.9 129.4 L160.1 129.3 L160.3 129.3 L160.5 129.2 L160.6 128.5 L160.8 128.4 L161.3 128.1 L161.6 127.9 L162.1 128.0 L162.5 128.3 L162.7 128.7 L162.6 129.0 L162.4 129.4 L161.7 130.0 L161.9 130.2 L162.0 130.7 L162.1 130.9 L162.4 131.1 L163.0 131.2 L163.4 131.7 L163.9 131.7 L164.6 131.4 L165.3 131.3 L166.3 131.4 L166.4 131.5 Z M186.0 130.0 L185.9 130.3 L185.8 130.7 L185.6 130.9 L185.2 130.7 L185.3 131.1 L185.7 131.8 L185.8 132.2 L185.5 132.3 L185.0 132.1 L184.5 131.9 L184.2 131.7 L184.1 132.1 L184.0 132.3 L183.5 132.8 L183.3 133.2 L183.7 133.4 L184.2 133.6 L184.4 133.8 L183.9 134.1 L181.9 134.6 L181.2 134.7 L182.2 134.1 L181.8 133.9 L181.7 133.7 L181.7 133.3 L181.8 132.9 L180.9 133.3 L180.7 133.1 L180.5 132.8 L180.6 132.5 L180.7 132.3 L181.5 132.2 L181.7 131.9 L181.7 131.4 L181.8 130.9 L181.4 130.7 L181.1 131.0 L180.1 131.4 L179.6 131.7 L179.3 131.3 L178.9 130.9 L178.6 130.5 L178.5 130.0 L178.7 129.6 L179.1 129.3 L179.5 129.1 L179.9 129.0 L180.9 128.8 L181.2 128.8 L181.7 128.9 L182.1 129.1 L182.5 129.3 L183.0 129.3 L183.0 129.1 L182.5 128.9 L182.2 128.4 L182.0 127.9 L182.0 127.5 L182.4 127.5 L184.4 126.6 L184.1 126.1 L184.2 125.5 L184.7 125.2 L185.2 125.4 L185.3 125.6 L185.3 125.9 L185.1 127.0 L185.1 127.2 L185.3 127.5 L185.4 127.8 L185.6 128.0 L185.6 128.4 L185.4 128.8 L185.0 129.7 L185.6 129.6 L185.8 129.4 L185.9 129.5 L186.0 130.0 Z M123.1 53.9 L123.3 54.0 L123.4 54.1 L123.5 54.3 L123.6 54.4 L123.7 54.6 L123.6 54.6 L123.3 54.8 L123.2 54.9 L122.7 55.0 L122.5 55.0 L122.2 55.1 L121.5 55.3 L121.2 55.6 L121.0 55.9 L119.7 56.6 L119.4 56.6 L119.2 56.6 L119.0 56.6 L118.9 56.2 L118.7 56.1 L118.6 56.2 L118.5 56.2 L118.5 56.1 L118.5 56.0 L118.4 55.9 L118.3 55.9 L118.1 56.0 L118.0 56.1 L117.8 56.0 L117.4 56.0 L117.6 55.8 L117.6 55.7 L117.3 55.4 L117.2 55.3 L117.3 55.1 L117.5 55.0 L117.7 55.1 L119.0 54.4 L119.9 54.3 L120.6 54.3 L121.1 54.1 L121.3 53.5 L121.8 53.3 L122.1 53.6 L122.2 53.6 L122.4 53.7 L122.6 53.8 L122.7 53.8 L122.9 53.8 L123.1 53.9 Z M121.6 51.5 L121.3 51.6 L121.2 51.5 L120.9 51.2 L120.6 51.1 L120.5 51.2 L120.4 51.3 L120.3 51.3 L118.7 51.4 L118.2 51.2 L117.6 50.6 L118.5 50.4 L118.7 50.3 L118.9 50.0 L118.9 49.8 L118.7 49.7 L118.6 49.6 L117.6 48.0 L117.5 47.8 L117.6 47.5 L117.6 46.1 L117.7 45.8 L118.0 45.7 L118.7 45.1 L119.2 45.0 L119.6 45.3 L120.1 45.7 L120.5 46.0 L121.4 46.3 L121.8 46.6 L121.9 47.1 L121.9 47.3 L121.8 47.7 L121.7 47.9 L121.8 48.1 L122.1 48.5 L122.1 48.7 L122.2 49.7 L122.1 50.0 L122.3 50.1 L122.4 50.4 L122.5 50.6 L122.2 50.7 L121.8 51.3 L121.6 51.5 Z" fill="#172033" fill-rule="evenodd"/></svg>
