<svg xmlns="http://www.w3.org/2000/svg" viewBox="0 0 320 200" role="img"><path d="M206.4 32.4 L207.1 34.1 L208.1 35.6 L209.1 37.5 L209.6 39.6 L209.5 43.3 L209.9 45.7 L211.1 49.0 L213.8 53.8 L216.8 57.4 L219.4 57.3 L221.2 61.8 L223.5 66.2 L227.7 71.5 L229.6 75.4 L229.2 77.5 L227.0 77.7 L222.9 76.2 L220.8 75.1 L220.2 74.2 L218.2 73.9 L215.8 73.5 L214.0 73.2 L208.1 74.0 L205.2 76.3 L202.7 78.5 L196.6 81.4 L192.3 84.9 L190.1 87.9 L188.0 90.3 L183.5 92.2 L183.1 93.8 L182.1 95.2 L184.4 95.4 L188.1 94.8 L190.8 94.4 L193.0 93.6 L195.4 92.9 L196.7 93.6 L193.9 95.3 L193.9 96.5 L193.3 97.8 L195.7 99.3 L197.4 99.3 L199.3 98.7 L201.5 98.1 L202.2 95.7 L203.6 95.1 L205.5 95.7 L207.5 94.4 L208.6 92.9 L210.2 92.2 L210.9 92.8 L212.4 94.7 L212.6 94.9 L214.1 96.1 L215.1 96.4 L217.9 97.3 L221.6 96.6 L220.9 101.0 L220.8 102.9 L221.1 105.8 L222.2 110.2 L223.0 112.2 L224.4 114.2 L224.9 116.2 L227.4 129.8 L229.1 133.1 L234.1 139.6 L235.6 140.9 L239.4 142.0 L239.7 143.5 L239.3 145.5 L239.2 147.5 L240.0 149.4 L242.7 152.8 L243.3 154.0 L244.4 155.4 L246.7 156.3 L250.8 157.1 L249.8 158.6 L249.4 160.4 L249.5 162.2 L250.1 163.9 L248.6 163.0 L248.1 162.5 L248.0 163.3 L248.1 163.8 L248.5 164.2 L249.5 164.6 L248.7 165.5 L248.2 165.7 L247.9 165.6 L247.4 165.2 L246.7 165.2 L246.7 167.3 L247.6 167.8 L248.9 167.2 L250.1 166.0 L250.4 167.0 L250.8 171.8 L251.2 173.0 L252.0 174.4 L253.5 176.2 L254.7 177.3 L254.7 177.3 L237.0 177.5 L219.3 177.6 L201.6 177.8 L183.8 178.0 L178.5 178.0 L177.7 175.4 L175.8 173.6 L173.5 172.2 L171.4 170.5 L169.9 168.2 L168.5 165.3 L167.6 162.3 L167.2 156.9 L166.7 154.4 L161.2 141.1 L156.4 133.9 L155.2 132.0 L155.2 132.0 L155.1 132.0 L155.1 132.0 L149.5 131.4 L139.6 130.2 L129.7 129.1 L119.7 127.9 L109.8 126.8 L98.7 125.6 L87.5 124.4 L76.4 123.2 L65.3 121.9 L68.2 119.1 L83.2 104.4 L89.4 95.2 L95.8 89.1 L97.3 87.2 L100.2 80.4 L107.7 69.6 L109.6 65.9 L109.9 64.9 L110.3 61.9 L110.8 60.4 L114.4 54.5 L122.9 35.7 L126.3 31.5 L131.5 28.4 L147.6 22.6 L153.3 22.0 L179.1 22.0 L184.8 23.0 L206.4 32.4 Z M245.3 85.4 L246.9 85.9 L247.6 86.5 L248.8 87.3 L249.6 88.2 L250.4 89.1 L251.4 91.8 L251.2 92.9 L249.7 92.4 L248.8 92.2 L247.8 91.7 L245.1 89.6 L243.2 88.9 L240.5 88.6 L238.4 88.7 L238.5 86.0 L238.5 86.0 L239.6 84.5 L241.3 84.3 L245.3 85.4 Z M246.7 60.7 L244.9 63.8 L241.8 67.2 L238.1 70.1 L234.4 71.7 L233.8 71.6 L230.1 71.3 L227.7 68.7 L224.2 61.5 L220.1 54.9 L219.5 54.3 L218.9 53.8 L216.9 52.7 L216.2 51.7 L218.1 50.5 L219.2 50.0 L221.4 48.7 L222.5 48.4 L222.9 47.8 L223.5 44.4 L221.9 43.8 L221.0 43.7 L220.1 43.8 L220.1 43.8 L221.1 42.3 L222.5 42.4 L224.9 43.8 L226.0 43.9 L227.4 43.8 L228.2 43.2 L227.6 41.6 L229.4 40.9 L230.9 40.1 L231.3 39.2 L229.7 38.3 L229.7 38.3 L228.5 38.1 L227.2 38.7 L226.3 38.3 L225.8 37.6 L225.6 36.6 L225.5 35.5 L225.6 34.8 L225.6 34.8 L223.8 34.8 L223.6 34.6 L223.2 34.4 L223.6 33.6 L224.9 32.8 L226.3 32.3 L227.7 32.2 L229.1 32.6 L230.4 33.4 L245.9 52.7 L247.4 56.3 L246.7 60.7 Z M219.4 31.4 L218.8 31.9 L217.8 33.0 L217.4 33.4 L214.7 34.7 L213.9 34.8 L213.2 34.4 L212.7 33.7 L212.5 33.1 L213.9 32.3 L215.9 29.9 L217.0 29.4 L220.9 28.9 L220.9 28.9 L222.5 29.0 L222.2 30.0 L219.4 31.4 Z" fill="#172033" fill-rule="evenodd"/></svg>
