<svg xmlns="http://www.w3.org/2000/svg" viewBox="0 0 320 200" role="img"><path d="M203.2 131.3 L203.3 132.0 L203.7 133.4 L203.8 134.2 L203.6 135.8 L201.7 142.1 L201.6 142.8 L201.6 143.7 L201.5 144.4 L200.9 145.5 L200.8 146.0 L200.5 146.7 L199.8 147.9 L199.4 148.4 L199.7 149.4 L199.2 150.6 L195.5 156.5 L194.2 157.7 L191.9 159.4 L191.1 159.6 L190.1 160.1 L182.7 166.0 L181.2 166.8 L176.4 168.5 L176.4 168.5 L176.3 167.9 L176.3 167.8 L176.1 167.6 L176.0 167.6 L176.0 167.6 L175.7 167.7 L175.6 168.0 L175.5 168.7 L175.3 168.9 L174.9 169.0 L174.5 169.2 L173.6 169.8 L172.7 170.1 L168.6 171.0 L166.6 171.7 L164.4 172.1 L163.4 172.5 L162.7 173.4 L161.7 173.2 L161.0 173.4 L160.6 173.6 L159.1 174.7 L157.5 175.8 L156.8 176.6 L155.2 176.5 L155.2 176.5 L154.5 176.6 L154.0 176.8 L153.4 177.1 L152.5 177.9 L152.2 177.9 L151.9 178.0 L151.2 177.7 L150.5 177.4 L150.1 177.3 L149.9 177.2 L147.5 177.5 L146.9 177.3 L146.6 177.0 L146.3 176.6 L146.2 176.3 L146.0 176.1 L145.4 176.5 L144.8 176.6 L143.7 176.4 L143.4 176.4 L143.2 176.3 L143.1 176.1 L142.9 175.9 L142.6 175.8 L142.4 175.9 L142.3 176.0 L142.1 176.1 L141.9 176.1 L141.9 176.1 L141.8 176.0 L141.5 175.6 L141.4 175.6 L141.4 175.5 L141.4 175.5 L141.1 175.4 L139.4 174.8 L138.7 174.7 L138.2 174.6 L137.3 173.9 L137.1 173.8 L136.7 173.6 L136.7 173.6 L136.4 173.9 L135.7 173.3 L132.5 169.9 L132.2 169.7 L132.2 169.7 L132.2 169.6 L132.1 169.5 L132.0 169.4 L132.0 169.0 L131.9 168.8 L131.8 168.7 L131.4 168.2 L129.6 164.3 L129.5 163.9 L129.5 163.9 L129.5 163.6 L129.5 163.3 L129.5 163.3 L129.5 163.1 L129.1 162.4 L128.8 160.5 L128.1 159.2 L127.6 157.3 L127.4 156.7 L127.3 156.6 L127.2 156.5 L127.0 156.3 L126.9 156.1 L126.9 155.9 L127.1 155.8 L127.3 155.8 L127.3 155.8 L127.4 155.8 L127.1 153.7 L127.1 153.6 L126.3 151.4 L122.8 142.7 L122.3 139.7 L122.2 139.4 L122.2 136.5 L122.3 136.4 L122.7 135.5 L122.8 135.0 L122.8 134.5 L122.8 134.5 L120.9 127.8 L121.1 126.8 L121.1 127.4 L121.3 127.8 L121.5 128.1 L121.7 128.4 L122.1 129.8 L122.2 130.1 L122.5 130.1 L122.5 129.7 L122.7 129.6 L122.8 129.5 L122.8 129.5 L122.8 129.6 L122.8 128.3 L122.8 128.3 L122.7 127.8 L122.5 127.4 L122.3 127.2 L121.8 127.1 L121.5 127.0 L121.5 126.9 L121.4 126.6 L121.4 126.3 L121.6 126.0 L121.7 125.7 L119.7 111.5 L119.5 110.9 L119.6 110.8 L119.8 110.7 L120.0 110.9 L120.1 110.2 L120.3 109.4 L120.3 109.1 L120.4 108.7 L120.2 108.1 L119.9 107.5 L119.8 107.2 L119.8 106.8 L119.8 105.3 L118.8 100.8 L118.7 100.3 L118.3 99.3 L117.9 97.3 L117.2 95.7 L116.2 91.1 L116.2 89.9 L116.4 89.9 L116.4 90.0 L116.4 90.0 L116.4 90.0 L116.5 90.1 L116.6 89.4 L116.4 87.0 L116.2 86.3 L116.9 85.9 L117.5 85.1 L117.9 84.2 L118.1 83.4 L118.3 82.9 L119.5 81.1 L119.4 81.1 L118.9 82.5 L118.1 83.8 L118.3 84.2 L118.3 84.2 L118.6 84.5 L119.0 84.7 L119.5 84.7 L119.1 85.8 L118.7 86.6 L118.5 86.7 L118.3 86.7 L118.2 86.8 L118.1 87.3 L118.1 88.2 L118.1 88.5 L117.4 90.6 L117.4 91.0 L117.5 91.8 L118.2 92.7 L118.4 92.9 L117.6 94.5 L118.9 95.5 L120.7 95.6 L121.7 95.0 L121.5 94.2 L121.2 93.7 L121.1 93.5 L120.9 93.3 L120.6 92.9 L120.2 92.6 L120.1 92.2 L121.4 89.6 L121.4 89.2 L121.2 88.8 L121.0 88.5 L120.9 88.2 L120.8 87.8 L120.9 86.9 L120.9 86.6 L120.9 86.6 L120.8 86.5 L120.7 86.2 L120.7 86.2 L120.6 86.1 L120.5 85.9 L120.6 85.5 L120.8 85.1 L121.3 84.4 L121.4 84.0 L121.5 83.1 L121.9 81.5 L122.2 77.6 L122.5 77.1 L122.7 76.9 L122.9 76.6 L123.0 76.1 L123.0 74.4 L123.3 73.6 L123.8 73.1 L124.5 72.6 L125.0 72.1 L125.0 71.9 L125.4 70.6 L125.5 70.6 L125.5 70.6 L125.6 70.2 L126.0 69.4 L126.3 65.5 L125.4 63.0 L125.4 62.6 L125.5 59.8 L125.5 59.7 L125.4 58.8 L125.3 58.3 L125.1 58.0 L124.9 57.6 L125.3 57.4 L125.8 57.3 L126.2 57.2 L128.5 55.1 L129.7 54.5 L130.2 54.1 L130.5 53.1 L131.0 52.1 L131.2 50.7 L132.5 47.4 L132.6 47.2 L132.7 46.8 L132.9 45.8 L132.9 43.5 L133.0 43.1 L132.9 42.9 L132.5 42.8 L131.4 42.2 L130.9 41.8 L130.7 41.1 L130.6 41.0 L130.4 40.0 L130.4 39.5 L130.9 39.0 L131.8 38.6 L132.8 38.2 L133.6 38.1 L133.9 37.9 L134.8 36.8 L134.9 36.7 L135.1 36.6 L135.4 36.4 L135.7 36.3 L136.2 36.2 L135.8 35.5 L135.6 35.2 L135.3 34.9 L134.7 34.3 L134.0 33.8 L131.0 32.0 L130.4 31.3 L131.7 31.4 L132.9 31.8 L135.3 33.2 L137.6 33.8 L138.2 34.2 L139.2 35.0 L139.4 35.4 L138.9 35.7 L139.0 36.0 L139.2 36.2 L138.9 36.5 L138.9 36.5 L139.8 37.1 L141.7 36.6 L145.3 35.2 L146.3 35.2 L148.4 35.8 L151.0 37.0 L152.9 37.3 L152.9 37.3 L150.1 35.5 L149.2 35.0 L148.4 34.9 L148.3 34.8 L148.1 34.7 L147.4 34.2 L147.1 34.0 L146.9 34.0 L146.5 34.0 L146.0 34.0 L145.7 34.2 L145.7 34.2 L145.6 34.4 L145.4 34.5 L144.9 34.1 L144.7 34.0 L143.4 34.1 L143.0 34.0 L140.2 31.5 L139.0 30.7 L139.0 30.7 L138.5 30.5 L136.5 29.7 L135.7 29.2 L135.2 29.2 L135.3 30.2 L135.6 30.5 L136.0 30.8 L136.3 31.2 L136.0 31.7 L135.7 31.8 L135.4 31.6 L135.2 31.4 L134.4 31.0 L132.9 29.7 L132.1 29.4 L132.1 29.4 L132.5 29.9 L133.3 30.5 L133.7 31.0 L132.8 30.8 L131.8 30.4 L129.9 29.4 L128.3 28.2 L127.4 27.9 L127.3 27.8 L127.0 27.6 L126.7 27.5 L126.6 27.7 L126.2 27.4 L126.0 27.1 L125.9 26.6 L125.8 26.1 L125.5 25.6 L125.4 25.4 L125.0 24.9 L124.7 24.4 L125.6 24.0 L127.1 22.6 L127.8 22.3 L127.8 22.3 L131.0 22.5 L132.6 22.4 L133.2 22.4 L133.4 23.0 L133.4 23.8 L133.5 24.1 L133.8 24.2 L134.2 24.2 L135.1 24.5 L135.3 24.6 L135.5 24.9 L135.9 24.9 L136.3 24.8 L136.4 24.8 L136.6 24.8 L136.7 24.7 L136.7 24.7 L137.1 24.9 L137.2 25.0 L138.3 26.2 L141.8 30.0 L143.1 30.8 L145.9 32.1 L146.0 32.1 L146.0 31.8 L144.6 31.1 L141.1 28.3 L138.2 25.0 L136.7 24.2 L134.4 23.7 L133.8 23.2 L133.8 22.6 L134.6 22.3 L134.9 22.2 L135.7 22.1 L137.4 22.0 L138.2 22.1 L138.7 22.5 L139.1 23.8 L139.4 24.4 L144.7 30.5 L145.4 31.0 L147.0 31.9 L158.0 40.8 L158.1 40.8 L158.4 41.3 L158.8 41.9 L159.7 42.7 L160.2 43.4 L159.7 43.6 L159.7 43.6 L159.5 43.5 L159.4 43.5 L159.4 43.5 L159.0 42.9 L158.8 42.8 L158.8 42.8 L158.0 42.7 L157.7 42.8 L157.9 43.1 L157.9 43.2 L160.0 45.1 L160.8 45.6 L160.8 45.6 L160.5 45.1 L160.3 44.6 L160.4 44.3 L161.0 44.2 L161.2 44.3 L161.6 45.6 L162.0 46.3 L163.5 49.3 L163.2 49.2 L162.4 48.9 L161.9 48.9 L161.6 49.5 L161.9 49.6 L162.6 49.7 L163.2 50.1 L163.2 50.1 L163.3 51.0 L163.3 51.0 L163.5 51.0 L163.7 50.8 L163.8 50.7 L163.9 50.6 L164.1 50.5 L164.1 50.5 L164.3 51.3 L164.3 51.4 L164.9 52.7 L165.7 53.8 L166.4 54.3 L166.5 54.3 L166.6 54.4 L166.6 54.7 L166.4 55.0 L166.0 55.1 L165.9 55.0 L165.5 54.3 L165.0 54.0 L163.9 53.8 L163.3 53.5 L163.6 53.9 L163.7 54.1 L165.2 55.4 L165.2 56.2 L165.7 56.5 L165.6 56.5 L165.2 56.9 L164.8 57.4 L164.8 57.4 L165.5 57.9 L166.2 57.8 L166.7 57.3 L167.1 56.6 L167.4 55.9 L167.4 55.9 L168.8 57.7 L170.1 59.8 L170.6 60.4 L171.4 60.6 L172.0 61.1 L172.8 63.1 L173.0 63.3 L173.3 63.6 L173.3 63.6 L174.2 64.0 L174.7 65.1 L175.3 67.2 L175.4 66.8 L175.5 66.6 L175.7 66.7 L175.7 66.7 L176.1 66.9 L176.0 67.3 L177.1 68.5 L177.5 69.1 L177.5 69.8 L177.2 70.1 L176.8 70.3 L176.4 70.7 L176.4 70.7 L176.7 70.6 L177.0 70.6 L177.1 70.5 L177.2 70.4 L177.2 70.4 L178.1 72.3 L178.2 73.3 L177.2 73.4 L177.2 73.4 L177.4 72.8 L177.2 72.3 L176.7 72.2 L176.4 72.9 L176.5 73.4 L176.8 73.8 L177.0 74.2 L176.7 74.8 L176.4 74.6 L176.0 74.3 L175.3 73.9 L174.6 73.7 L173.9 74.0 L173.4 74.7 L173.6 75.1 L174.2 75.0 L175.0 74.3 L175.6 74.9 L176.1 75.6 L176.8 76.2 L177.6 76.5 L179.5 76.4 L180.1 76.0 L179.7 75.1 L180.7 74.6 L181.1 74.5 L181.6 74.5 L181.6 74.5 L182.1 74.8 L182.5 75.3 L182.9 75.8 L183.1 77.4 L183.8 79.5 L183.8 80.0 L183.8 80.5 L183.3 80.2 L182.8 79.1 L182.3 78.9 L182.3 79.2 L182.5 80.5 L182.5 80.6 L182.7 81.1 L183.0 81.2 L183.2 81.3 L183.2 81.3 L183.8 81.3 L184.2 81.5 L184.4 83.1 L184.8 84.1 L184.8 84.3 L184.9 84.9 L184.9 84.9 L185.0 85.4 L185.8 88.1 L186.2 90.0 L185.4 91.0 L185.4 91.0 L185.0 89.3 L185.0 89.1 L184.4 87.4 L184.1 87.4 L184.0 88.7 L184.1 89.1 L184.0 89.1 L184.0 89.2 L184.0 89.2 L184.0 89.4 L184.1 89.6 L184.2 89.8 L184.5 89.9 L184.5 89.9 L184.6 90.0 L184.9 90.8 L185.6 91.4 L185.6 91.4 L186.3 91.3 L186.5 90.4 L186.8 90.4 L187.0 90.9 L187.1 91.0 L187.4 92.5 L187.8 93.0 L188.2 93.5 L188.5 94.0 L189.0 95.1 L189.2 94.9 L189.5 94.7 L189.6 94.5 L189.7 94.9 L189.6 95.1 L189.7 95.2 L189.7 95.3 L189.8 95.4 L189.8 95.4 L189.8 95.6 L189.8 95.6 L190.0 95.5 L190.4 95.3 L190.6 95.1 L190.6 95.1 L190.7 95.3 L190.8 95.6 L190.8 95.9 L190.6 96.2 L190.6 96.5 L190.6 96.7 L190.9 97.3 L191.4 97.6 L191.7 97.9 L192.0 98.4 L191.8 98.4 L191.7 98.4 L191.6 98.5 L191.6 98.6 L191.5 98.6 L191.4 99.1 L191.2 99.5 L191.7 100.9 L192.0 101.1 L192.5 101.8 L192.5 101.8 L193.4 101.6 L193.7 101.6 L193.9 102.5 L194.3 103.0 L194.4 103.2 L196.1 104.9 L196.6 105.8 L196.7 106.6 L195.8 106.8 L195.8 106.9 L195.4 106.6 L194.5 105.3 L193.9 104.9 L193.3 104.7 L193.3 104.7 L193.2 104.7 L192.7 104.7 L192.3 105.1 L192.0 106.0 L192.5 106.2 L193.0 106.3 L193.4 106.1 L193.7 105.7 L194.1 105.9 L194.6 106.1 L194.7 106.3 L194.8 106.4 L194.8 106.9 L195.3 107.3 L195.8 107.8 L196.2 108.3 L196.7 109.0 L196.7 109.0 L196.5 109.3 L196.4 109.5 L196.5 109.8 L196.7 110.1 L196.9 109.8 L196.8 109.3 L196.8 109.3 L197.2 109.5 L198.2 110.1 L198.4 110.5 L199.1 112.3 L199.1 112.4 L198.8 113.4 L198.9 113.5 L198.9 113.5 L199.1 113.9 L199.1 114.1 L199.0 114.4 L198.7 114.6 L198.5 114.8 L198.7 115.2 L198.9 115.4 L199.0 115.6 L199.0 115.7 L199.1 115.9 L199.4 116.1 L199.0 116.5 L199.0 116.6 L199.0 116.8 L199.4 116.8 L199.7 116.4 L199.9 116.4 L199.9 116.4 L200.2 118.0 L200.2 118.6 L200.2 118.6 L200.5 118.6 L200.5 118.6 L200.5 118.1 L200.6 117.5 L200.8 117.0 L201.1 116.7 L201.1 116.4 L201.0 116.4 L200.9 116.1 L201.0 116.0 L201.2 116.1 L201.6 116.4 L201.7 116.7 L201.8 117.6 L202.4 118.6 L203.4 121.9 L203.2 131.3 Z M197.8 108.6 L197.7 108.2 L197.5 107.9 L197.3 107.5 L197.2 107.1 L197.2 106.7 L197.3 106.3 L197.4 105.9 L197.2 105.5 L197.2 105.5 L197.7 106.0 L198.2 107.1 L198.6 107.6 L198.7 107.9 L199.0 108.9 L200.0 110.4 L200.5 111.1 L201.1 114.6 L201.1 114.6 L201.1 115.4 L200.5 115.9 L199.9 115.4 L199.8 115.3 L199.7 115.2 L199.7 115.0 L199.6 114.8 L199.6 114.7 L199.8 112.2 L199.7 111.3 L199.3 110.9 L199.1 110.6 L197.8 108.6 Z M116.9 52.1 L116.4 51.9 L116.2 51.6 L116.4 51.2 L116.9 51.0 L118.7 51.0 L119.5 51.2 L120.3 51.4 L122.0 52.0 L123.6 53.0 L125.0 54.3 L125.0 54.3 L124.3 54.2 L123.2 53.6 L122.5 53.5 L123.5 54.6 L124.3 55.6 L124.7 56.2 L123.7 56.1 L123.1 55.6 L122.7 55.1 L122.4 54.8 L122.0 54.6 L120.3 53.2 L119.5 52.8 L118.7 52.5 L118.1 52.3 L117.8 52.2 L116.9 52.1 Z M124.1 30.5 L123.5 30.0 L122.9 29.1 L121.9 27.2 L122.4 26.5 L122.5 25.6 L122.7 24.9 L123.6 24.7 L124.1 24.9 L124.1 24.9 L124.1 25.2 L124.0 25.7 L123.8 26.2 L123.9 26.8 L123.9 27.2 L123.9 27.2 L124.0 27.3 L124.1 27.6 L124.3 27.9 L124.4 28.0 L124.6 28.1 L125.4 28.0 L125.5 28.1 L125.6 28.7 L125.7 29.0 L126.1 29.3 L126.7 29.5 L127.2 29.8 L127.3 29.9 L127.4 30.2 L127.1 30.5 L126.6 30.5 L126.1 30.3 L125.7 30.1 L125.4 30.0 L124.7 30.4 L124.1 30.5 L124.1 30.5 Z" fill="#172033" fill-rule="evenodd"/></svg>
