<svg xmlns="http://www.w3.org/2000/svg" viewBox="0 0 320 200" role="img"><path d="M216.9 47.3 L218.0 47.2 L219.8 47.6 L221.4 48.3 L222.1 49.1 L222.1 50.5 L222.5 51.5 L223.5 52.1 L225.2 52.5 L227.8 53.5 L233.9 59.2 L236.4 59.9 L239.4 59.9 L241.6 60.8 L242.0 65.1 L242.9 66.0 L244.0 66.8 L245.1 67.8 L245.6 69.0 L246.4 71.7 L248.5 74.1 L249.3 75.8 L249.3 76.2 L249.3 77.4 L249.4 77.9 L249.7 78.4 L250.7 79.2 L250.9 79.6 L250.6 80.7 L249.3 82.5 L249.1 83.6 L249.2 84.7 L248.8 85.6 L248.2 86.2 L247.3 86.8 L245.4 87.5 L243.2 88.1 L241.0 88.9 L239.5 90.4 L238.9 91.9 L238.9 93.5 L238.9 93.8 L239.4 95.6 L240.5 96.8 L239.3 97.5 L239.1 98.7 L239.2 99.9 L238.3 100.8 L232.6 102.4 L230.4 103.9 L229.2 105.8 L228.2 107.9 L226.8 110.1 L226.8 110.3 L226.7 112.0 L226.3 114.0 L226.3 115.7 L227.3 117.1 L228.3 117.7 L228.5 118.3 L228.4 118.9 L228.6 120.0 L229.4 121.4 L229.6 122.1 L229.1 122.8 L228.3 123.2 L226.3 123.7 L225.4 124.0 L219.5 127.2 L216.6 128.8 L207.9 133.7 L203.1 135.5 L198.1 136.4 L191.4 138.6 L188.9 138.6 L185.3 137.4 L184.0 137.2 L182.8 137.5 L179.6 139.2 L177.7 139.8 L174.1 139.3 L172.3 139.6 L170.8 140.7 L170.2 141.7 L168.9 143.8 L167.8 144.8 L167.1 145.3 L166.1 146.4 L165.6 146.9 L164.9 147.2 L162.7 147.5 L161.3 147.9 L159.8 148.8 L158.6 149.9 L158.5 151.3 L159.3 152.3 L160.4 152.7 L161.3 153.4 L161.5 155.1 L160.9 156.7 L159.9 157.7 L153.6 162.1 L153.0 162.9 L153.2 163.5 L154.0 164.8 L154.3 165.6 L154.2 166.2 L152.9 169.7 L152.7 170.1 L152.1 170.8 L151.5 171.2 L150.8 171.5 L150.2 171.9 L149.7 172.6 L149.3 174.1 L149.4 175.3 L149.5 176.5 L149.5 178.0 L147.7 177.3 L138.9 176.7 L137.3 176.2 L135.8 175.6 L135.1 175.1 L134.5 174.6 L133.9 174.1 L133.0 173.9 L132.4 174.0 L131.0 174.6 L130.2 174.7 L127.1 174.3 L124.5 173.6 L122.2 172.4 L118.2 168.4 L113.6 165.4 L113.2 164.8 L113.1 164.1 L113.0 163.4 L112.8 162.8 L111.0 160.6 L109.0 158.9 L108.8 158.2 L108.5 157.3 L105.8 156.2 L104.6 155.4 L103.8 154.3 L103.2 152.4 L102.7 151.9 L101.5 151.9 L99.9 152.5 L99.4 152.6 L98.6 152.5 L97.1 152.1 L97.1 152.1 L96.3 152.0 L96.4 150.9 L94.7 146.8 L94.6 144.7 L96.2 141.2 L97.4 140.2 L97.4 139.4 L96.7 138.9 L95.6 138.7 L93.9 138.7 L93.0 138.9 L92.3 138.6 L91.4 137.4 L90.9 136.3 L89.9 132.8 L88.8 131.3 L85.2 128.6 L83.8 127.2 L81.7 122.9 L75.6 110.1 L75.5 110.1 L75.5 110.1 L74.9 109.0 L72.7 106.1 L71.7 105.4 L70.8 104.9 L69.7 104.1 L69.1 103.9 L70.0 102.0 L70.0 100.8 L70.6 100.1 L71.4 100.1 L72.1 101.0 L72.6 100.4 L73.2 99.2 L73.6 98.9 L74.3 98.9 L74.5 99.3 L74.7 99.7 L75.3 100.0 L75.7 99.8 L78.1 97.5 L78.5 97.3 L80.6 96.6 L82.8 96.4 L83.6 96.1 L84.9 95.5 L87.0 95.1 L88.6 94.5 L91.0 93.2 L91.4 92.9 L91.5 92.8 L92.0 92.1 L92.4 91.3 L92.5 90.5 L92.9 90.2 L94.7 90.3 L95.1 90.0 L95.4 88.6 L96.2 87.4 L99.3 84.5 L99.8 84.1 L100.1 83.7 L100.2 82.7 L100.0 82.2 L99.6 81.7 L99.3 81.3 L99.5 80.7 L100.1 80.3 L100.8 80.1 L101.5 79.7 L102.2 78.9 L102.4 78.2 L102.6 76.5 L102.8 75.9 L104.0 75.2 L107.1 74.3 L107.7 74.1 L108.4 73.6 L108.3 72.7 L107.8 71.0 L107.9 70.2 L108.4 69.6 L109.1 69.2 L109.9 68.9 L110.4 68.7 L114.7 64.1 L116.4 61.3 L116.3 60.9 L116.0 59.5 L116.6 59.0 L117.1 59.5 L117.4 59.4 L118.1 59.1 L118.6 59.0 L118.0 58.2 L117.0 57.4 L116.7 56.7 L117.9 56.4 L118.8 56.1 L119.7 55.2 L121.2 53.4 L121.4 53.3 L121.8 53.4 L122.1 53.4 L122.2 53.1 L122.2 52.5 L122.3 52.3 L122.5 52.1 L122.6 51.7 L122.7 51.1 L122.7 50.0 L123.3 49.4 L124.5 49.1 L125.3 48.5 L124.8 47.2 L133.3 47.8 L135.3 47.0 L136.0 45.8 L136.4 44.7 L137.0 43.7 L138.1 43.1 L139.5 43.3 L140.4 44.0 L141.1 44.8 L142.0 45.2 L144.0 45.2 L144.6 45.0 L144.7 44.5 L144.7 44.0 L145.0 43.4 L147.9 40.1 L151.2 36.9 L151.4 36.5 L153.5 33.8 L154.5 32.8 L155.2 31.8 L155.9 32.1 L159.9 31.7 L160.9 31.6 L162.4 32.2 L164.1 32.4 L165.8 32.2 L167.3 31.7 L168.8 30.5 L170.8 27.4 L172.2 26.2 L173.8 25.6 L184.2 25.0 L185.7 24.7 L189.9 22.1 L191.0 22.0 L192.4 22.9 L193.4 24.0 L194.1 25.2 L194.6 26.7 L195.1 29.7 L195.9 30.8 L199.2 30.9 L200.3 31.7 L202.5 35.3 L203.1 35.7 L205.4 36.1 L205.5 36.1 L206.7 36.5 L207.8 37.1 L207.8 37.1 L208.8 37.9 L209.8 38.9 L212.8 43.6 L216.9 47.3 Z" fill="#172033" fill-rule="evenodd"/></svg>
