<svg xmlns="http://www.w3.org/2000/svg" viewBox="0 0 320 200" role="img"><path d="M288.3 76.4 L288.8 77.5 L288.9 78.8 L288.8 80.0 L288.4 81.1 L287.5 81.9 L286.3 82.6 L285.4 83.5 L285.2 84.6 L286.1 85.6 L285.9 86.1 L284.2 87.1 L283.8 87.6 L283.2 89.4 L282.9 89.8 L281.8 91.0 L281.3 91.9 L281.5 92.4 L282.3 92.7 L285.1 93.3 L285.9 93.3 L288.7 92.9 L296.5 93.6 L297.6 94.1 L298.0 94.9 L297.5 95.7 L296.3 96.1 L295.1 96.3 L293.3 96.6 L292.6 96.9 L291.2 97.6 L290.5 98.2 L290.2 98.7 L289.9 100.0 L289.3 101.4 L288.6 102.1 L287.6 102.2 L282.6 100.9 L282.0 100.9 L281.6 101.2 L281.3 101.4 L281.0 101.6 L280.5 101.7 L280.1 101.7 L274.9 100.9 L272.8 101.2 L271.3 102.5 L271.2 103.0 L271.3 104.2 L271.2 104.8 L270.9 105.2 L269.2 107.3 L268.4 108.1 L267.6 108.7 L266.9 109.2 L265.2 109.8 L259.5 110.4 L258.6 110.4 L256.9 110.2 L256.1 110.2 L254.3 110.6 L253.7 110.9 L253.6 111.2 L253.5 111.7 L253.2 112.1 L252.2 112.8 L251.1 113.3 L250.2 113.9 L249.7 114.7 L249.8 115.2 L250.2 116.1 L250.2 116.5 L250.0 116.9 L249.7 117.0 L249.4 117.0 L249.0 117.1 L247.9 117.6 L247.4 118.1 L247.3 118.7 L247.5 121.1 L247.4 121.6 L247.2 122.1 L247.0 122.5 L246.7 123.0 L246.7 123.6 L247.0 124.5 L248.2 126.2 L248.4 127.1 L248.2 128.0 L247.5 128.7 L246.6 129.3 L243.8 130.3 L243.1 130.8 L242.5 131.8 L242.3 133.0 L242.4 134.0 L242.2 134.9 L241.4 135.9 L239.2 137.4 L238.3 138.4 L238.3 139.6 L238.9 140.2 L239.9 140.5 L242.0 140.4 L244.8 139.5 L245.5 139.4 L246.1 139.6 L246.4 140.0 L246.5 140.5 L247.0 141.3 L247.2 141.5 L247.4 141.5 L247.9 141.4 L248.1 141.4 L248.6 141.7 L249.0 142.1 L249.4 142.5 L249.7 143.0 L249.9 143.2 L250.1 143.2 L250.4 143.3 L250.5 143.6 L250.4 143.8 L249.8 144.3 L249.7 144.5 L249.6 146.6 L249.3 147.4 L248.2 147.8 L247.6 147.9 L245.9 147.7 L245.3 147.9 L244.6 148.5 L244.1 148.7 L243.1 148.7 L238.9 148.3 L237.7 147.9 L236.6 147.3 L236.2 146.5 L236.6 146.1 L237.9 145.9 L238.3 145.5 L238.0 145.1 L236.9 144.8 L237.0 144.3 L237.9 144.0 L239.0 144.0 L239.4 143.8 L236.1 141.2 L235.9 140.9 L235.6 140.7 L235.0 140.7 L233.8 141.0 L231.9 142.6 L230.8 143.1 L226.9 143.2 L223.9 142.6 L223.1 142.6 L222.5 143.3 L221.5 145.5 L220.8 146.5 L218.9 147.7 L216.8 148.5 L214.7 148.7 L211.0 147.9 L208.8 147.7 L206.7 147.8 L206.4 147.9 L205.0 148.4 L204.9 148.7 L204.8 149.0 L204.9 149.4 L204.9 149.5 L204.0 149.9 L203.6 150.2 L203.3 150.2 L203.2 150.3 L203.4 151.1 L204.0 152.1 L204.6 152.9 L205.0 153.8 L204.9 155.1 L204.9 155.1 L204.9 155.1 L204.9 155.1 L204.3 155.9 L203.5 156.1 L200.5 156.4 L199.6 156.4 L198.9 156.0 L198.3 155.1 L198.1 155.0 L197.9 155.0 L197.8 155.0 L196.7 155.5 L193.7 155.9 L191.3 156.7 L185.9 159.5 L184.2 160.0 L182.5 160.0 L181.0 159.7 L179.4 159.8 L178.5 159.7 L178.0 159.2 L177.2 157.9 L175.9 156.9 L174.4 156.6 L172.9 156.8 L170.0 157.7 L168.6 158.0 L165.6 158.0 L164.8 157.9 L163.4 157.3 L162.7 157.2 L162.0 157.2 L158.4 158.5 L158.0 158.5 L157.6 158.4 L156.8 158.1 L156.5 158.1 L155.7 158.3 L154.9 158.6 L152.0 158.9 L149.7 159.5 L148.9 159.5 L148.1 159.3 L143.9 157.8 L142.3 157.6 L142.5 157.3 L142.5 157.0 L142.4 156.8 L142.1 156.6 L141.6 156.3 L141.2 156.0 L141.0 155.6 L141.1 155.1 L141.3 154.9 L141.5 154.7 L142.1 154.4 L142.8 153.7 L142.8 152.6 L142.1 150.4 L141.7 149.4 L141.2 148.4 L140.6 147.4 L139.8 146.8 L139.4 146.6 L138.4 146.4 L137.9 146.2 L137.4 145.9 L136.6 144.9 L136.1 144.5 L135.3 144.1 L134.3 143.6 L130.5 142.8 L128.7 142.1 L125.8 140.7 L125.0 140.5 L124.0 140.6 L122.9 140.9 L121.8 140.9 L121.0 140.2 L121.0 139.7 L121.3 139.1 L121.4 138.7 L121.1 138.4 L119.5 138.3 L119.0 138.1 L118.7 137.8 L118.5 137.4 L118.2 137.1 L117.7 136.8 L117.2 136.7 L116.2 136.8 L115.7 136.8 L112.9 136.0 L111.9 135.9 L110.7 136.2 L110.6 136.3 L109.4 137.6 L108.5 138.0 L105.7 135.0 L104.5 133.4 L104.2 131.6 L104.5 127.9 L105.6 125.7 L105.8 124.9 L105.7 124.3 L105.4 123.3 L105.4 122.8 L105.6 122.5 L106.7 121.6 L106.7 121.4 L106.6 121.2 L106.5 121.0 L106.6 120.7 L106.7 120.6 L107.1 120.6 L107.6 120.3 L108.4 120.1 L108.8 119.8 L109.5 119.2 L110.9 118.6 L111.6 118.1 L112.2 117.3 L112.4 116.5 L112.2 115.6 L111.5 113.7 L111.1 113.1 L110.5 112.7 L107.7 112.0 L107.3 111.6 L107.8 111.0 L107.2 110.8 L106.8 110.5 L106.4 110.2 L106.1 110.0 L105.7 109.9 L103.0 110.0 L102.3 109.7 L101.7 109.1 L101.1 108.1 L100.3 106.0 L99.8 105.0 L99.3 104.7 L99.1 104.6 L97.9 104.2 L93.0 105.0 L85.2 104.5 L84.3 104.4 L79.2 105.2 L78.6 105.5 L78.1 106.0 L77.2 106.3 L76.1 106.4 L74.9 106.2 L73.8 105.7 L73.4 104.9 L73.4 104.1 L73.2 103.6 L72.7 103.3 L71.5 103.4 L70.2 104.0 L69.8 104.1 L69.4 104.0 L68.2 103.5 L66.6 103.3 L65.6 102.9 L64.1 102.1 L60.8 101.7 L60.0 101.3 L59.2 100.7 L55.9 99.2 L54.0 98.7 L49.2 98.6 L47.5 97.8 L44.6 94.9 L43.1 94.1 L42.0 94.2 L38.1 96.1 L38.2 95.8 L38.0 94.7 L38.0 94.4 L38.3 94.2 L38.6 94.3 L38.9 94.3 L39.2 93.8 L39.1 93.4 L38.8 92.9 L38.4 92.4 L38.1 92.1 L37.7 91.9 L37.6 91.5 L37.6 90.4 L37.1 90.3 L34.4 91.8 L34.2 91.5 L34.2 91.4 L34.3 91.3 L36.1 89.0 L36.5 88.6 L37.2 88.1 L37.2 87.0 L36.7 85.1 L36.1 83.7 L36.0 83.3 L35.8 83.1 L35.4 82.9 L34.9 82.5 L34.7 82.0 L34.8 81.5 L34.8 81.1 L34.8 80.7 L34.7 80.3 L32.9 77.6 L32.6 76.8 L32.5 75.9 L32.2 75.4 L30.2 73.5 L29.7 73.2 L29.3 73.0 L29.0 72.7 L28.8 71.6 L28.4 70.7 L27.6 66.7 L27.6 64.6 L27.7 64.1 L28.2 63.5 L28.3 63.0 L28.3 59.0 L28.1 57.4 L29.8 57.1 L32.6 57.1 L34.5 56.8 L35.2 55.9 L35.5 54.6 L36.3 53.1 L37.5 52.1 L39.2 51.0 L40.9 50.2 L42.4 49.8 L44.5 49.8 L45.2 49.6 L51.8 46.8 L53.5 46.3 L57.7 46.2 L70.9 42.7 L71.7 42.5 L76.9 41.2 L79.0 41.2 L79.9 41.5 L81.7 42.2 L82.6 42.4 L96.5 42.2 L99.6 42.6 L99.7 42.6 L100.9 43.0 L103.0 44.2 L103.8 44.4 L104.5 44.3 L111.2 42.8 L112.9 42.1 L114.3 41.6 L115.9 41.4 L117.5 41.9 L118.6 43.2 L120.3 45.6 L122.4 46.5 L124.8 46.2 L127.1 44.8 L126.7 44.3 L127.6 44.0 L133.0 43.2 L134.1 43.4 L137.2 44.1 L142.1 45.3 L143.8 45.3 L146.6 44.4 L148.1 44.1 L151.4 44.2 L152.7 44.1 L153.1 44.2 L153.5 44.5 L153.5 44.9 L153.5 45.2 L153.5 45.3 L155.0 45.5 L158.2 45.0 L159.8 45.1 L160.4 45.2 L165.6 46.1 L170.0 48.0 L171.6 48.5 L173.0 48.7 L173.0 48.7 L174.3 48.5 L180.0 46.9 L181.4 46.7 L182.9 47.1 L185.9 48.3 L187.5 48.5 L189.1 48.1 L191.8 47.3 L192.7 46.7 L196.5 43.9 L198.3 43.0 L200.0 42.6 L204.3 41.6 L204.8 41.6 L205.8 41.8 L206.2 41.7 L206.5 41.3 L206.5 40.8 L206.7 40.3 L207.4 40.0 L208.4 40.2 L209.2 40.9 L210.4 42.9 L211.6 45.8 L212.2 46.6 L212.6 47.1 L214.2 48.1 L214.7 48.5 L215.5 50.1 L216.9 51.5 L218.5 52.2 L229.8 53.3 L234.8 53.7 L238.0 53.4 L240.3 54.0 L241.1 54.1 L243.9 54.0 L244.5 54.2 L244.9 54.6 L245.7 56.1 L246.1 56.6 L246.7 57.0 L249.4 58.0 L250.8 58.9 L254.3 61.1 L258.6 62.7 L261.2 63.7 L264.1 65.6 L268.8 67.8 L270.0 68.9 L271.0 70.3 L273.5 72.8 L276.5 74.1 L283.0 75.9 L285.6 76.3 L288.3 76.4 Z M25.0 94.9 L22.0 94.5 L22.0 94.4 L25.5 91.0 L27.5 88.2 L29.4 84.4 L29.9 80.4 L30.2 79.6 L30.0 79.4 L30.2 78.9 L29.8 78.0 L29.9 75.1 L29.5 73.8 L31.1 74.9 L31.7 76.9 L31.8 81.0 L31.7 81.6 L31.3 82.4 L31.2 83.0 L31.2 84.7 L30.6 85.5 L29.9 86.3 L29.6 87.0 L30.5 87.7 L30.5 88.0 L29.9 88.4 L29.0 89.3 L28.2 90.4 L27.9 91.4 L27.3 92.3 L25.0 94.1 L25.0 94.9 Z" fill="#172033" fill-rule="evenodd"/></svg>
