<svg xmlns="http://www.w3.org/2000/svg" viewBox="0 0 320 200" role="img"><path d="M161.9 33.6 L160.4 36.7 L159.4 39.6 L158.0 45.6 L158.4 45.7 L159.7 45.6 L160.1 45.7 L159.4 46.4 L157.4 48.9 L159.7 49.7 L161.1 51.5 L162.4 55.9 L161.8 58.3 L162.7 60.0 L166.4 63.6 L169.6 69.6 L171.3 71.4 L173.6 68.5 L177.2 72.3 L184.2 83.2 L187.5 85.4 L194.8 87.5 L197.9 88.8 L198.9 89.9 L199.7 91.4 L201.0 93.6 L201.2 94.3 L202.9 94.4 L206.1 93.1 L208.0 93.2 L211.6 94.7 L217.7 98.4 L221.3 99.9 L225.0 100.6 L235.2 100.6 L241.8 101.8 L242.6 101.9 L243.7 102.7 L243.7 102.6 L243.2 102.9 L243.2 104.7 L242.9 104.8 L241.9 109.5 L241.9 111.0 L242.4 111.9 L242.3 112.7 L240.3 113.9 L240.1 115.8 L240.6 117.6 L241.6 119.1 L243.1 120.4 L241.3 119.9 L240.3 120.2 L239.6 121.3 L241.0 122.4 L241.4 122.8 L225.8 129.4 L222.5 132.4 L222.9 133.1 L224.2 133.7 L225.5 134.5 L225.7 135.9 L225.2 136.9 L223.6 138.4 L221.4 141.3 L215.9 145.7 L212.7 149.0 L211.5 151.4 L211.5 158.1 L211.0 160.1 L209.7 167.0 L210.3 173.5 L210.3 175.0 L206.1 174.7 L200.4 172.7 L190.3 167.8 L189.9 167.6 L184.1 166.1 L178.0 165.6 L165.8 166.5 L167.2 168.5 L161.2 168.8 L159.7 169.2 L158.6 170.5 L158.6 171.9 L158.1 173.0 L155.5 173.7 L153.5 175.7 L150.3 176.5 L132.2 177.2 L128.5 178.0 L125.6 171.9 L121.6 169.3 L108.1 167.2 L102.8 165.6 L99.0 163.3 L92.4 157.5 L97.4 155.9 L102.3 152.5 L104.3 149.2 L100.7 147.9 L103.1 146.5 L104.8 144.3 L107.5 139.4 L109.2 138.1 L111.3 136.8 L112.5 135.0 L111.3 132.0 L109.8 131.1 L105.5 130.8 L104.1 130.1 L103.3 128.5 L103.6 127.8 L104.3 127.1 L104.4 125.7 L104.7 124.5 L105.8 123.8 L106.5 122.9 L106.3 121.8 L106.3 121.3 L105.0 120.0 L103.6 119.9 L102.3 120.2 L101.1 120.1 L99.8 119.6 L96.9 119.1 L95.5 118.3 L95.6 117.9 L95.1 114.9 L94.8 113.9 L89.8 107.5 L88.4 106.1 L85.7 105.0 L83.4 104.8 L81.2 104.1 L79.0 101.7 L77.7 99.0 L77.4 96.5 L78.3 94.4 L80.9 93.3 L78.8 92.1 L79.2 91.3 L79.6 90.9 L79.9 90.2 L79.9 89.0 L85.4 89.4 L83.5 87.4 L78.8 85.1 L76.3 84.3 L77.1 82.3 L84.5 74.1 L85.3 72.7 L85.8 71.6 L86.6 70.5 L88.3 69.1 L89.8 68.4 L92.9 68.0 L94.7 66.9 L97.0 64.0 L96.2 62.8 L94.7 61.6 L94.9 58.7 L96.2 57.5 L100.5 56.3 L102.1 55.3 L102.6 53.6 L102.6 51.6 L102.4 49.1 L103.6 47.8 L106.7 46.1 L108.0 44.9 L108.6 43.4 L109.0 40.0 L109.8 38.6 L113.3 36.5 L121.2 34.0 L124.3 31.9 L126.0 28.9 L126.9 26.0 L128.7 24.0 L133.2 23.7 L136.5 22.0 L137.9 23.0 L138.6 25.0 L139.9 26.5 L141.8 27.1 L142.7 27.4 L145.1 27.6 L149.9 27.2 L151.8 26.4 L153.1 25.5 L154.8 25.3 L157.5 27.0 L158.5 29.0 L158.2 31.0 L158.7 32.7 L161.9 33.6 Z" fill="#172033" fill-rule="evenodd"/></svg>
