<svg xmlns="http://www.w3.org/2000/svg" viewBox="0 0 320 200" role="img"><path d="M265.1 75.0 L271.8 75.0 L271.6 76.4 L271.7 77.3 L271.3 78.0 L271.1 78.7 L272.1 79.3 L276.1 80.3 L278.1 81.5 L278.6 81.8 L282.5 83.1 L283.2 83.5 L283.6 84.0 L283.9 84.9 L283.7 87.0 L283.4 88.2 L283.0 89.0 L281.9 89.6 L278.3 90.6 L277.6 91.1 L278.2 91.8 L279.1 92.1 L280.0 92.5 L280.2 93.5 L280.0 93.9 L279.4 94.7 L279.2 95.1 L279.1 95.5 L279.0 96.3 L278.9 96.7 L276.4 99.7 L275.6 101.0 L276.2 101.1 L276.8 101.2 L280.0 100.2 L281.6 100.0 L283.3 100.3 L284.1 100.6 L285.6 101.6 L286.4 101.9 L286.6 102.5 L285.9 103.4 L285.0 104.3 L284.6 104.9 L285.3 105.5 L289.0 107.0 L289.4 107.7 L289.4 109.4 L289.6 110.2 L290.1 110.8 L290.8 111.2 L293.9 112.0 L294.5 112.3 L294.8 112.8 L294.5 113.1 L293.5 113.6 L293.3 114.1 L293.4 114.4 L293.7 114.8 L295.7 116.2 L296.0 116.5 L296.1 116.9 L296.0 118.2 L296.1 119.1 L296.4 119.9 L297.9 122.5 L298.0 122.9 L297.9 123.4 L297.7 123.7 L297.4 124.0 L297.1 124.4 L296.7 125.3 L296.5 126.2 L296.2 127.0 L295.4 127.7 L294.0 127.2 L292.3 127.5 L291.7 127.8 L290.6 128.2 L289.0 128.7 L287.4 128.9 L286.9 129.0 L286.4 129.3 L286.0 129.8 L285.6 130.2 L285.2 130.7 L282.6 131.9 L281.4 132.5 L281.2 133.5 L280.0 134.7 L276.2 136.1 L275.1 137.8 L274.9 139.6 L274.6 140.4 L274.2 141.0 L273.1 141.1 L268.4 140.8 L267.1 140.6 L265.9 140.2 L265.0 139.6 L264.2 140.1 L262.4 141.1 L261.7 141.3 L260.6 140.9 L258.2 139.8 L257.4 139.5 L255.9 139.4 L250.9 139.8 L250.9 139.8 L250.0 140.1 L247.8 141.6 L245.7 143.9 L244.9 144.4 L241.9 145.2 L241.0 145.3 L239.0 144.8 L237.9 144.8 L237.0 145.0 L236.2 145.8 L234.0 145.7 L231.9 145.4 L226.6 144.0 L224.2 142.9 L222.2 140.9 L221.3 139.7 L220.4 138.9 L216.6 137.0 L214.2 135.6 L212.1 134.7 L208.7 133.5 L205.8 131.6 L204.7 130.9 L202.5 130.1 L202.0 129.8 L201.7 129.4 L201.0 128.1 L200.7 127.8 L200.2 127.7 L198.0 127.8 L197.3 127.7 L195.4 127.2 L192.8 127.5 L188.8 127.1 L179.7 126.2 L178.3 125.6 L177.2 124.5 L176.5 123.3 L176.1 122.9 L174.9 122.1 L174.5 121.7 L174.1 121.0 L173.1 118.7 L172.1 117.1 L171.4 116.5 L170.6 116.3 L170.1 116.6 L169.9 117.0 L169.9 117.4 L169.6 117.7 L169.3 117.8 L168.5 117.6 L168.1 117.6 L164.6 118.5 L163.3 118.8 L161.8 119.5 L158.7 121.8 L157.9 122.2 L155.8 122.9 L154.5 123.2 L153.2 123.1 L150.8 122.1 L149.6 121.8 L148.4 121.9 L143.8 123.3 L142.8 123.4 L142.7 123.4 L141.6 123.2 L140.3 122.8 L136.7 121.3 L132.5 120.5 L132.0 120.4 L130.8 120.4 L128.1 120.8 L127.0 120.6 L126.9 120.5 L126.9 120.3 L126.9 120.0 L126.6 119.7 L126.3 119.7 L125.2 119.8 L122.6 119.7 L121.3 119.9 L119.1 120.7 L117.7 120.6 L113.7 119.7 L111.2 119.1 L110.3 119.0 L105.9 119.5 L105.2 119.8 L105.5 120.2 L103.6 121.3 L101.7 121.6 L100.0 120.8 L98.6 119.0 L97.7 117.9 L96.5 117.5 L95.1 117.6 L94.0 118.0 L92.6 118.6 L87.2 119.8 L86.6 119.9 L86.0 119.7 L84.3 118.7 L83.3 118.4 L83.2 118.4 L80.8 118.1 L69.5 118.3 L68.7 118.1 L67.3 117.5 L66.6 117.3 L64.9 117.3 L60.6 118.4 L60.0 118.6 L49.3 121.4 L45.9 121.4 L44.5 121.8 L39.2 124.1 L38.6 124.2 L36.8 124.3 L35.7 124.6 L34.3 125.3 L32.9 126.1 L31.9 127.0 L31.3 128.2 L31.0 129.2 L30.4 130.0 L28.9 130.2 L26.7 130.2 L25.2 130.4 L25.2 130.4 L25.2 130.2 L24.8 128.8 L24.3 127.6 L22.6 125.2 L22.2 124.3 L22.0 123.5 L22.1 123.3 L22.4 122.5 L22.5 122.1 L22.5 121.7 L22.5 121.3 L22.1 119.8 L22.0 119.1 L22.1 118.4 L22.4 117.8 L22.9 117.3 L23.1 117.0 L23.3 116.6 L23.4 116.2 L23.4 115.4 L23.6 115.1 L23.3 114.4 L23.2 113.7 L23.4 113.4 L24.1 113.7 L24.4 114.1 L24.6 115.1 L24.9 115.6 L24.4 116.1 L24.6 116.2 L24.9 116.3 L24.9 116.9 L24.9 117.1 L24.4 117.6 L25.2 118.3 L25.5 118.4 L25.9 118.3 L26.1 118.1 L26.2 117.8 L25.8 117.0 L25.7 116.3 L25.8 115.7 L25.9 115.3 L25.8 115.0 L25.6 114.4 L25.4 114.0 L25.2 113.7 L25.0 113.5 L24.4 113.2 L23.9 113.1 L23.6 113.1 L23.3 113.0 L23.1 112.7 L22.9 112.3 L23.0 112.1 L23.2 111.9 L23.6 110.4 L25.0 108.2 L25.4 106.9 L25.7 103.7 L25.5 102.9 L25.3 102.3 L25.2 101.6 L25.7 100.9 L28.8 99.8 L29.2 99.4 L31.7 98.6 L32.4 98.2 L33.8 97.0 L34.2 96.8 L34.6 96.6 L35.7 96.1 L36.9 95.5 L37.8 94.8 L38.5 93.7 L38.9 92.3 L39.0 90.8 L38.9 90.4 L38.5 89.3 L38.5 88.9 L38.9 88.4 L39.0 88.1 L38.9 85.6 L39.0 84.8 L39.2 84.1 L39.7 83.4 L40.3 82.9 L41.0 82.7 L41.5 82.4 L42.9 80.3 L45.6 78.4 L49.8 73.9 L51.0 73.2 L52.6 72.8 L59.6 72.5 L61.2 72.2 L68.7 70.1 L79.7 66.8 L81.3 66.5 L82.2 66.5 L82.6 66.4 L83.1 66.3 L83.6 66.2 L84.1 66.2 L84.5 66.4 L84.5 66.4 L84.3 66.5 L84.1 66.8 L83.8 68.2 L83.6 69.8 L83.8 70.5 L84.1 71.1 L86.3 72.8 L94.7 76.8 L97.5 78.6 L100.5 80.1 L102.5 80.7 L103.8 80.9 L104.3 81.0 L104.4 81.3 L104.4 81.6 L104.6 82.0 L105.4 83.0 L105.6 83.1 L106.0 83.8 L106.3 84.5 L106.6 85.9 L106.9 86.6 L107.5 86.9 L107.8 87.2 L108.9 90.7 L109.3 91.3 L109.8 91.6 L110.5 91.7 L112.3 92.9 L115.4 93.6 L118.7 93.9 L119.2 94.1 L121.0 95.6 L121.4 95.8 L121.6 95.9 L123.4 96.2 L125.8 96.3 L132.3 95.5 L134.6 94.8 L135.6 94.6 L137.1 93.9 L137.8 93.4 L138.3 92.8 L138.8 92.5 L140.3 92.2 L141.7 91.7 L145.4 90.4 L145.8 89.8 L146.5 89.4 L147.4 89.1 L148.0 89.0 L148.0 88.5 L148.4 88.3 L149.3 87.9 L151.9 86.3 L152.7 85.3 L153.0 83.7 L152.9 82.0 L152.0 77.2 L151.9 75.8 L151.7 75.0 L151.3 74.6 L151.1 74.1 L151.2 73.1 L151.7 71.7 L151.2 69.5 L151.0 69.0 L149.4 67.5 L148.8 66.8 L148.8 66.1 L148.4 64.3 L148.3 63.4 L148.4 62.9 L148.7 62.4 L149.1 62.0 L150.7 62.4 L151.8 62.4 L152.7 62.1 L153.1 61.7 L153.8 60.8 L154.2 60.5 L155.8 60.1 L157.7 59.1 L158.5 59.0 L161.2 59.1 L163.5 59.0 L164.1 58.8 L164.8 57.7 L165.4 57.3 L166.5 57.5 L167.5 57.8 L168.5 57.9 L168.9 57.7 L169.7 57.3 L170.6 57.0 L173.6 56.8 L174.5 56.4 L176.8 55.2 L177.4 54.9 L178.2 54.6 L179.1 54.5 L180.9 54.4 L181.9 54.8 L182.4 55.6 L182.7 56.5 L183.2 57.3 L183.8 57.6 L184.4 57.6 L185.6 57.2 L186.3 56.7 L186.1 56.1 L185.0 55.1 L185.0 54.4 L185.5 54.2 L186.2 54.2 L186.9 54.5 L187.2 54.8 L187.6 55.5 L187.9 55.7 L188.2 55.8 L188.4 55.8 L188.7 55.7 L189.1 55.7 L190.6 56.1 L192.9 57.6 L194.4 58.1 L195.8 58.3 L196.1 58.4 L196.5 58.7 L196.5 58.9 L196.5 59.0 L196.6 59.2 L196.8 59.5 L197.6 60.1 L198.4 60.4 L199.3 60.4 L200.3 60.4 L202.3 60.0 L202.7 59.9 L203.3 59.9 L203.9 60.5 L204.2 61.2 L204.7 62.0 L205.7 62.5 L213.7 62.9 L214.1 63.0 L214.4 63.2 L214.5 63.5 L214.4 63.8 L214.2 64.0 L214.1 64.4 L214.2 65.1 L214.5 65.6 L218.7 67.5 L220.0 68.3 L223.6 71.5 L224.9 72.3 L226.5 72.9 L227.0 73.0 L230.0 73.7 L230.0 73.7 L230.6 74.0 L231.9 75.0 L232.6 75.5 L233.2 75.4 L233.7 75.1 L234.2 75.0 L234.6 75.0 L235.3 75.3 L235.7 75.4 L236.0 75.3 L236.2 75.0 L236.4 74.8 L236.6 74.5 L237.7 74.0 L239.0 73.6 L240.2 73.4 L243.2 73.4 L243.9 73.3 L244.7 73.0 L245.1 72.4 L245.5 71.9 L246.1 71.4 L246.8 71.2 L247.3 71.4 L247.7 71.7 L248.3 71.7 L249.0 71.7 L249.6 71.7 L250.9 71.9 L251.8 72.3 L253.2 73.4 L254.0 73.9 L254.9 74.2 L258.0 74.3 L263.8 75.4 L265.1 75.0 Z" fill="#172033" fill-rule="evenodd"/></svg>
