<svg xmlns="http://www.w3.org/2000/svg" viewBox="0 0 320 200" role="img"><path d="M77.4 126.1 L77.5 124.7 L77.1 123.7 L75.5 123.0 L74.7 122.7 L73.6 121.7 L72.6 120.4 L71.9 119.0 L71.9 117.4 L72.4 114.5 L71.9 113.0 L72.9 112.3 L73.9 112.0 L75.0 112.1 L76.0 112.6 L77.0 112.5 L77.3 111.9 L77.1 111.1 L76.5 110.1 L78.3 109.4 L79.3 108.9 L81.2 107.5 L81.7 106.8 L82.3 105.6 L82.3 102.9 L81.4 100.4 L79.8 98.9 L77.9 97.5 L74.7 93.6 L73.5 91.4 L72.6 89.2 L72.5 87.6 L73.4 86.6 L74.6 86.0 L75.3 85.1 L74.7 83.3 L72.6 80.1 L71.6 78.2 L71.6 76.6 L73.4 73.0 L76.2 71.1 L81.3 70.2 L86.8 70.2 L90.5 70.5 L88.9 63.5 L88.8 61.1 L88.9 60.9 L89.6 58.2 L91.1 55.8 L95.0 51.8 L92.8 51.0 L94.2 49.5 L106.0 43.1 L108.4 42.6 L108.1 42.2 L107.6 41.4 L107.3 41.0 L109.0 40.4 L114.4 40.0 L116.7 40.5 L119.1 41.8 L119.8 42.4 L119.8 43.1 L119.8 43.7 L120.0 44.5 L120.8 45.5 L122.7 47.3 L122.8 47.4 L123.0 47.8 L124.0 47.2 L124.7 46.4 L125.3 45.6 L125.8 45.1 L126.0 44.9 L127.1 44.5 L129.5 44.4 L130.1 44.0 L127.4 40.1 L124.6 34.6 L121.4 31.5 L120.8 31.2 L118.8 31.6 L118.8 31.1 L119.2 30.3 L119.2 29.7 L118.0 28.3 L117.3 28.0 L115.9 27.8 L115.0 27.3 L115.0 26.5 L115.5 25.7 L116.4 25.3 L118.1 24.7 L120.3 22.9 L121.6 22.2 L123.7 22.0 L125.0 22.9 L126.0 24.3 L127.2 25.4 L128.8 25.8 L130.7 25.7 L132.6 25.2 L135.0 23.1 L137.3 22.9 L141.7 23.4 L139.8 25.5 L139.9 28.2 L141.4 30.6 L143.8 32.1 L156.4 36.2 L158.0 37.1 L161.8 41.3 L167.2 45.4 L168.4 46.6 L169.9 49.2 L170.9 50.3 L174.1 52.3 L174.3 52.4 L177.2 55.1 L178.7 56.2 L180.6 56.9 L184.7 57.8 L186.7 58.0 L187.9 57.7 L188.6 57.1 L189.4 57.2 L192.1 60.8 L193.8 62.4 L195.6 63.5 L197.8 64.1 L200.8 64.3 L204.0 64.1 L205.0 63.6 L207.2 62.0 L208.1 61.6 L209.2 61.9 L209.9 62.7 L210.4 63.6 L211.1 64.5 L212.0 65.2 L217.6 68.1 L220.7 70.4 L220.9 70.5 L226.5 74.6 L227.6 74.8 L228.7 75.1 L233.6 75.5 L236.3 76.3 L241.1 78.9 L246.7 81.0 L248.3 82.4 L248.4 84.7 L247.5 88.3 L240.1 89.2 L236.5 90.2 L235.7 90.6 L235.0 91.6 L234.9 92.5 L235.0 93.3 L234.9 94.2 L232.6 96.1 L229.5 95.4 L226.0 93.9 L222.7 93.3 L221.7 93.6 L220.8 94.1 L218.9 95.3 L218.2 96.0 L218.0 97.9 L219.0 99.3 L219.1 99.3 L224.4 103.0 L225.1 104.0 L225.3 104.3 L224.1 106.7 L223.0 108.2 L222.7 108.9 L222.7 110.4 L222.9 111.7 L222.8 112.9 L221.7 114.1 L219.3 113.1 L217.4 114.2 L214.0 117.4 L211.7 117.9 L207.2 117.8 L204.9 119.0 L204.9 119.0 L204.1 119.6 L200.6 121.1 L200.0 121.3 L199.1 121.5 L197.5 121.3 L195.9 120.8 L192.9 119.0 L191.3 116.2 L191.0 115.3 L190.9 114.7 L191.1 113.3 L191.2 112.7 L191.9 111.6 L192.4 111.1 L192.5 111.2 L192.4 110.2 L192.4 109.3 L191.6 107.0 L190.2 105.0 L188.1 104.2 L185.9 104.9 L184.3 106.0 L183.3 106.7 L180.9 108.8 L179.4 110.6 L178.9 111.9 L178.3 114.3 L177.8 115.4 L176.7 116.4 L175.4 116.9 L174.3 117.6 L173.7 119.0 L173.7 119.0 L172.6 120.7 L171.4 122.3 L169.9 123.6 L168.0 124.4 L166.8 125.9 L162.1 130.0 L161.6 130.5 L160.8 132.0 L160.6 132.7 L160.6 134.0 L160.6 134.4 L151.7 144.6 L149.0 146.8 L148.7 147.8 L149.7 149.3 L149.7 149.3 L151.1 150.5 L156.4 153.4 L157.8 154.6 L158.0 154.8 L158.2 155.7 L156.5 158.5 L156.1 160.0 L156.0 161.9 L156.3 163.6 L157.2 165.0 L157.2 165.0 L157.9 165.7 L157.4 167.2 L156.8 167.5 L156.1 167.6 L155.6 168.0 L156.2 170.1 L156.0 170.7 L155.6 171.2 L155.5 171.7 L155.5 172.3 L155.5 172.7 L155.7 173.0 L156.6 173.7 L157.3 174.6 L157.2 177.0 L157.3 178.0 L155.6 176.9 L152.3 174.1 L150.7 173.5 L144.0 171.9 L142.4 171.1 L140.1 170.5 L139.4 170.1 L138.6 169.2 L138.6 168.7 L138.7 168.2 L138.5 167.3 L138.0 167.1 L137.1 166.5 L136.4 165.8 L136.9 165.4 L136.9 165.1 L136.5 160.5 L131.3 156.9 L130.6 155.6 L131.4 154.3 L130.7 153.7 L129.6 153.4 L128.2 151.5 L124.7 151.6 L123.9 150.6 L123.7 149.6 L123.2 149.4 L122.6 149.4 L122.0 149.0 L120.8 147.1 L119.4 146.0 L115.7 144.0 L114.7 142.6 L114.0 139.5 L113.2 138.3 L111.9 137.7 L110.3 137.7 L108.9 138.1 L108.2 138.9 L107.8 138.5 L107.2 138.0 L106.9 137.6 L105.5 138.3 L104.8 138.6 L104.3 139.0 L104.1 139.2 L103.3 139.4 L102.7 138.9 L101.9 137.6 L98.8 135.7 L97.5 134.5 L97.4 133.2 L96.9 132.9 L96.1 132.2 L95.5 131.9 L95.5 131.3 L95.7 130.0 L94.1 128.9 L92.3 128.8 L91.8 130.7 L91.2 130.7 L90.5 130.3 L88.5 130.6 L88.0 130.4 L87.6 129.8 L86.4 129.1 L85.2 128.5 L84.2 128.3 L84.4 127.9 L84.4 127.8 L84.5 127.8 L84.9 127.6 L82.6 126.4 L81.9 125.4 L82.3 124.4 L83.5 124.1 L91.0 125.9 L92.1 126.2 L94.8 127.2 L96.2 128.3 L96.9 126.8 L96.7 125.7 L94.6 122.2 L94.6 121.3 L95.0 120.0 L91.9 122.8 L87.7 123.4 L77.9 122.5 L77.9 123.2 L79.7 124.1 L78.9 126.8 L80.5 127.6 L78.7 127.1 L77.4 126.1 Z" fill="#172033" fill-rule="evenodd"/></svg>
