<svg xmlns="http://www.w3.org/2000/svg" viewBox="0 0 320 200" role="img"><path d="M130.2 118.3 L130.2 118.0 L130.3 117.6 L131.1 116.0 L131.4 115.6 L132.0 115.0 L132.3 114.7 L132.5 114.3 L132.7 113.9 L132.8 113.5 L132.8 113.0 L132.7 112.7 L132.5 112.6 L132.4 112.3 L132.3 112.2 L132.2 112.2 L132.1 112.2 L132.0 112.2 L131.8 112.0 L131.7 111.9 L131.6 111.7 L131.5 111.5 L131.6 111.3 L131.8 110.9 L131.9 110.8 L132.0 110.6 L132.0 110.4 L132.0 110.0 L132.0 109.9 L131.9 109.8 L131.9 109.7 L131.9 109.6 L132.0 109.5 L132.2 109.4 L132.2 109.3 L132.3 109.1 L132.3 109.0 L132.4 108.8 L132.7 108.8 L132.8 108.6 L132.8 108.1 L132.5 107.4 L132.4 107.0 L132.1 106.7 L131.6 106.2 L131.5 106.1 L131.4 105.7 L131.2 105.3 L130.2 104.0 L130.0 103.6 L129.9 103.2 L130.0 102.6 L130.1 102.2 L130.1 101.5 L130.1 101.5 L130.1 101.4 L130.0 101.4 L130.1 101.3 L130.2 101.2 L130.2 101.1 L130.3 100.8 L130.3 100.7 L130.2 100.4 L130.0 99.6 L129.4 98.2 L128.6 97.1 L127.9 96.1 L127.8 95.7 L127.8 93.5 L127.3 91.2 L127.3 90.5 L127.6 89.1 L127.7 88.6 L127.6 88.4 L127.4 88.1 L127.2 87.6 L126.5 86.6 L126.4 86.4 L126.4 86.0 L126.5 85.3 L126.6 85.0 L127.2 84.1 L127.4 83.6 L127.5 83.6 L127.6 83.6 L127.7 83.5 L127.8 83.2 L128.7 81.9 L128.9 81.7 L128.9 81.5 L129.0 81.4 L129.0 80.8 L129.3 80.9 L129.6 80.4 L130.0 79.4 L130.1 79.3 L130.4 79.0 L130.5 78.9 L130.6 78.6 L130.6 78.5 L130.8 78.3 L131.0 78.1 L131.2 77.6 L131.5 77.2 L131.9 76.8 L132.2 76.3 L132.3 75.8 L132.2 75.6 L132.0 75.1 L132.0 74.9 L132.0 74.6 L132.2 74.5 L132.3 74.5 L132.3 74.8 L132.5 74.5 L132.6 74.2 L132.6 73.9 L132.5 73.6 L132.0 72.9 L131.9 72.6 L131.8 72.2 L131.9 72.1 L132.0 71.9 L132.1 71.8 L132.2 71.7 L132.3 71.5 L132.3 71.4 L132.3 70.7 L132.4 70.6 L132.5 70.5 L132.6 70.4 L133.0 70.4 L133.4 70.4 L135.9 70.6 L136.2 70.5 L136.4 70.5 L136.6 70.8 L136.8 70.9 L137.0 70.9 L137.2 70.9 L137.3 70.7 L137.4 70.6 L137.5 70.5 L137.6 70.4 L137.8 70.4 L138.1 70.3 L138.3 70.3 L138.2 70.2 L138.8 69.9 L139.2 69.7 L139.4 69.4 L139.8 68.8 L140.0 68.5 L140.3 68.2 L140.6 68.1 L141.3 67.8 L141.8 67.5 L141.8 67.5 L141.9 67.7 L141.9 68.1 L142.1 68.7 L142.1 68.8 L142.1 68.9 L142.1 68.9 L142.0 69.2 L142.0 69.4 L142.0 69.5 L142.1 69.6 L142.3 69.7 L142.5 69.6 L142.6 69.5 L142.7 69.3 L142.8 69.2 L143.2 69.1 L143.4 69.0 L143.4 68.8 L143.4 68.7 L143.2 68.6 L143.0 68.5 L142.9 68.3 L142.9 68.1 L143.0 68.0 L144.9 67.8 L145.0 67.8 L145.1 67.8 L145.2 67.7 L145.3 68.0 L145.4 68.1 L145.4 68.2 L145.5 68.2 L145.5 68.4 L145.3 68.7 L145.3 68.8 L145.5 68.7 L145.6 68.9 L145.7 68.9 L145.8 68.7 L145.7 68.1 L145.7 68.0 L145.9 67.8 L146.0 67.7 L146.0 67.7 L146.0 67.4 L146.0 67.3 L146.1 67.2 L146.1 67.1 L146.1 67.0 L146.0 66.8 L145.9 66.7 L145.8 66.6 L145.9 66.5 L146.3 66.1 L146.6 65.9 L146.8 65.9 L146.9 65.9 L147.1 66.0 L147.3 66.0 L147.5 66.0 L147.9 66.2 L148.1 66.2 L148.8 65.8 L149.0 65.8 L149.1 65.7 L149.3 65.7 L149.5 65.8 L149.6 65.9 L149.6 66.2 L149.6 66.4 L149.7 66.5 L149.8 66.6 L149.9 66.6 L150.0 66.6 L150.2 66.6 L150.3 66.6 L150.6 66.8 L150.9 66.8 L150.9 66.7 L150.8 66.6 L150.7 66.4 L150.8 66.2 L150.9 66.1 L150.9 66.0 L150.9 65.8 L150.7 65.9 L150.4 66.2 L150.2 66.2 L150.3 66.0 L150.5 65.7 L150.7 65.5 L151.0 65.3 L151.2 65.1 L151.5 65.0 L151.8 65.0 L152.4 65.0 L152.6 65.0 L152.8 65.0 L152.8 65.1 L152.8 65.2 L152.8 65.4 L152.9 65.5 L153.0 65.6 L152.8 65.8 L152.8 66.0 L152.7 66.1 L152.5 66.3 L152.8 66.5 L152.9 66.7 L153.1 66.9 L153.5 67.7 L153.7 67.9 L153.9 68.1 L153.9 68.0 L153.9 67.8 L153.9 67.7 L154.0 67.6 L154.1 67.6 L154.2 67.9 L154.3 67.9 L154.5 67.9 L154.6 67.7 L154.6 67.4 L154.5 67.2 L154.8 67.2 L155.1 67.4 L155.3 67.7 L155.5 67.8 L155.6 67.8 L155.5 67.5 L155.2 67.0 L155.0 66.9 L154.5 66.5 L154.2 66.4 L153.9 66.4 L153.8 66.4 L153.6 66.2 L153.6 66.2 L153.7 66.1 L153.8 66.0 L154.1 65.5 L154.2 65.3 L154.1 65.1 L153.9 65.1 L153.8 65.1 L153.7 65.1 L153.6 65.0 L153.6 64.8 L153.8 64.5 L153.9 64.1 L154.2 63.9 L154.7 63.5 L155.4 62.7 L155.6 62.5 L155.7 62.6 L155.7 62.6 L155.7 62.7 L155.7 62.8 L155.8 62.7 L156.2 62.4 L156.6 62.1 L156.8 61.9 L157.0 61.8 L157.3 61.7 L157.7 61.7 L157.9 61.7 L157.8 61.6 L157.4 61.5 L157.4 61.4 L157.5 61.2 L158.1 61.1 L159.3 60.3 L160.2 59.5 L160.7 59.4 L161.0 59.2 L161.2 59.1 L161.2 59.2 L161.3 59.3 L161.3 59.4 L161.3 59.7 L161.3 59.7 L161.4 60.0 L161.5 60.1 L161.7 60.2 L161.8 60.3 L162.2 60.5 L162.4 60.6 L162.4 60.8 L162.3 60.9 L162.1 61.2 L162.0 61.3 L161.8 61.4 L161.7 61.5 L161.2 62.5 L161.0 62.9 L161.1 63.2 L161.2 63.2 L161.3 63.1 L161.4 62.7 L161.5 62.6 L161.7 62.5 L162.1 62.4 L162.5 62.3 L162.9 62.1 L163.2 62.0 L163.6 62.1 L164.0 62.0 L164.2 61.9 L164.2 61.7 L164.2 61.6 L164.1 61.6 L164.0 61.6 L163.9 61.5 L163.8 61.5 L163.8 61.4 L163.6 61.1 L163.4 60.4 L163.5 60.3 L163.4 60.3 L163.3 60.3 L163.2 60.3 L162.8 60.4 L162.8 60.3 L162.8 60.1 L162.9 59.9 L162.8 59.9 L162.7 59.9 L162.6 59.8 L162.5 59.6 L162.3 59.5 L162.2 59.4 L162.2 59.1 L162.3 58.9 L162.6 58.5 L163.0 58.1 L163.5 57.8 L163.9 57.5 L164.2 56.8 L164.3 56.6 L164.9 56.0 L165.1 55.9 L165.4 55.8 L165.7 55.8 L165.8 55.7 L165.8 55.4 L165.8 55.2 L165.6 55.1 L165.5 55.2 L165.4 55.4 L165.3 55.5 L165.1 55.5 L165.0 55.4 L164.8 55.2 L164.9 55.2 L165.2 54.6 L166.6 53.2 L166.8 53.1 L166.9 53.1 L166.9 53.2 L167.0 53.4 L167.2 53.6 L167.2 53.7 L167.2 54.4 L167.2 54.6 L167.3 54.7 L167.4 54.7 L167.4 54.7 L167.5 54.9 L167.4 54.9 L167.3 55.2 L166.7 55.9 L166.5 56.2 L166.4 56.5 L166.2 57.9 L166.3 58.1 L166.4 58.1 L166.6 58.1 L167.0 57.9 L167.1 57.8 L167.3 57.5 L167.4 57.2 L167.5 56.9 L167.9 56.7 L168.0 56.7 L168.0 56.6 L168.0 56.3 L168.1 56.2 L168.9 54.6 L169.0 54.3 L169.0 54.2 L169.4 53.8 L169.4 53.7 L169.4 53.5 L169.5 53.4 L169.5 53.3 L169.7 53.2 L169.8 53.2 L170.1 52.9 L170.2 52.7 L170.2 52.6 L170.3 52.4 L170.5 52.3 L170.6 52.2 L170.7 52.0 L171.2 52.6 L171.4 52.8 L171.5 52.9 L171.9 53.0 L172.0 53.1 L172.1 53.2 L172.1 53.5 L172.1 53.6 L172.2 53.4 L172.3 53.2 L172.2 52.9 L172.0 52.8 L172.3 52.6 L172.6 52.6 L172.9 52.8 L172.9 53.2 L172.9 54.0 L173.0 54.2 L173.2 53.9 L173.2 53.6 L173.2 53.1 L173.1 52.7 L172.9 52.5 L172.8 52.5 L172.6 52.3 L172.4 52.1 L172.1 52.0 L172.0 52.0 L171.6 52.2 L171.5 52.3 L171.3 52.3 L171.2 52.2 L171.0 52.1 L170.9 52.0 L170.8 51.8 L170.7 51.7 L170.4 52.2 L170.3 52.3 L170.2 52.4 L170.1 52.3 L169.9 51.9 L169.8 51.7 L169.8 51.7 L169.9 51.6 L170.0 51.5 L169.9 51.4 L169.9 51.3 L169.8 51.3 L169.7 50.9 L169.7 50.8 L169.7 50.8 L169.7 50.7 L169.6 50.6 L169.6 50.6 L169.6 50.1 L169.7 49.7 L169.8 49.4 L170.0 49.1 L170.3 48.9 L170.4 48.8 L170.4 48.6 L170.4 48.3 L170.5 48.2 L170.6 48.0 L170.9 48.0 L171.4 48.3 L171.8 48.3 L171.9 48.3 L172.1 48.3 L172.2 48.3 L172.3 48.1 L172.4 48.0 L172.5 47.8 L172.5 47.6 L172.4 47.3 L172.3 47.0 L172.1 46.8 L171.9 46.6 L172.1 46.5 L172.3 46.5 L172.8 46.9 L172.9 46.9 L173.0 47.0 L173.1 47.0 L173.1 47.1 L173.2 47.2 L173.1 47.4 L173.0 47.5 L172.9 47.6 L172.9 47.9 L172.7 48.5 L172.7 48.8 L172.7 48.9 L172.7 49.1 L172.8 49.2 L172.9 49.2 L173.0 49.1 L173.0 49.0 L173.0 48.9 L173.0 48.8 L173.1 48.7 L173.3 48.6 L173.4 48.5 L173.4 48.4 L173.3 48.3 L173.2 48.2 L173.1 48.0 L173.1 47.9 L173.2 47.6 L173.5 47.2 L173.6 47.0 L173.6 46.7 L173.5 46.5 L173.4 46.3 L173.0 46.1 L172.7 45.9 L172.3 45.5 L173.2 45.1 L173.2 45.0 L172.6 44.6 L172.2 44.4 L172.0 44.3 L171.7 43.8 L171.6 43.0 L171.7 42.4 L172.2 42.2 L172.0 42.0 L171.9 41.9 L171.8 41.8 L171.8 41.5 L171.8 41.3 L171.9 41.0 L172.0 40.7 L172.3 40.8 L172.4 40.8 L172.5 40.5 L172.6 40.0 L172.7 39.9 L172.8 39.9 L172.9 39.9 L173.0 40.0 L173.0 40.1 L172.9 40.1 L172.8 40.3 L172.9 40.4 L172.9 40.4 L173.0 40.4 L173.1 40.4 L173.0 40.5 L173.1 40.6 L173.2 40.7 L173.3 40.6 L173.3 40.5 L173.3 40.4 L173.4 40.4 L173.6 40.3 L173.4 40.1 L173.3 40.0 L173.8 40.0 L173.9 40.1 L174.0 40.4 L174.1 40.7 L174.1 40.9 L174.4 40.8 L174.6 40.9 L174.7 41.1 L174.8 41.4 L174.9 41.9 L175.0 42.1 L175.0 42.2 L175.0 42.2 L175.0 42.3 L175.2 42.4 L175.2 42.5 L175.1 42.6 L175.2 42.8 L175.5 43.0 L175.8 43.2 L176.1 43.3 L176.4 43.2 L176.7 43.0 L176.9 42.7 L176.7 42.4 L176.8 42.2 L176.8 41.6 L176.8 41.4 L177.1 41.1 L177.1 40.9 L176.8 40.5 L176.8 40.3 L177.0 40.2 L177.1 40.3 L177.5 40.8 L177.5 40.5 L177.6 40.3 L177.8 40.2 L177.9 40.1 L178.0 40.0 L178.2 40.0 L178.4 40.0 L178.6 40.0 L178.6 39.9 L178.6 39.8 L178.6 39.7 L178.8 40.0 L179.0 40.0 L179.1 40.0 L179.1 39.9 L178.9 39.5 L178.8 39.2 L178.6 38.9 L178.5 38.8 L178.5 38.7 L178.5 38.5 L178.5 38.2 L178.7 38.2 L178.8 38.3 L178.9 38.5 L179.0 38.6 L179.0 38.8 L179.2 38.9 L179.8 39.1 L179.9 39.2 L180.0 39.1 L180.1 39.1 L180.3 39.0 L180.4 39.1 L180.6 39.1 L180.7 39.1 L181.1 39.0 L181.5 38.8 L181.9 38.5 L182.2 38.1 L182.0 37.9 L182.1 37.5 L182.6 37.0 L182.5 36.9 L182.4 36.6 L182.3 36.5 L182.3 36.1 L182.4 35.9 L182.6 35.0 L182.8 34.7 L183.1 34.3 L183.2 34.1 L183.2 33.9 L183.3 33.8 L183.3 33.6 L183.5 33.5 L183.6 33.3 L183.7 33.3 L183.7 33.0 L183.9 32.2 L183.9 31.9 L183.8 31.8 L183.6 31.5 L183.5 31.4 L183.4 31.2 L183.4 31.1 L183.3 30.6 L183.3 30.4 L183.1 30.2 L183.0 30.1 L183.0 30.2 L182.9 30.2 L182.9 30.0 L182.9 29.9 L182.9 29.9 L183.0 29.8 L183.0 29.7 L183.0 29.6 L183.0 29.5 L183.0 29.4 L183.1 29.1 L183.1 29.1 L183.0 29.0 L182.9 28.9 L182.7 29.0 L182.6 29.1 L182.6 28.8 L182.5 28.6 L182.1 28.2 L181.9 27.8 L181.8 27.6 L181.8 27.8 L181.3 27.6 L181.5 27.5 L181.7 27.2 L181.8 27.2 L181.9 27.2 L182.1 27.3 L182.3 27.3 L182.7 27.4 L183.0 27.6 L183.3 28.2 L183.4 28.3 L183.6 28.2 L183.8 28.1 L183.9 28.0 L183.9 27.8 L184.0 27.2 L184.0 27.2 L184.1 26.9 L184.1 26.9 L184.1 26.7 L184.1 26.6 L184.2 26.5 L184.4 26.3 L184.5 26.3 L184.7 26.4 L184.8 26.2 L184.9 26.1 L185.0 26.0 L185.2 25.8 L185.3 26.0 L185.5 25.9 L185.6 25.6 L185.8 25.4 L186.0 25.6 L186.1 25.5 L186.3 25.3 L186.3 25.1 L186.3 25.0 L186.3 24.9 L186.2 24.8 L186.3 24.7 L186.3 24.6 L186.4 24.5 L186.5 24.5 L186.6 24.4 L186.7 24.4 L186.7 24.3 L186.6 24.2 L186.5 24.1 L186.5 24.0 L186.4 24.0 L186.3 24.0 L186.2 24.0 L186.2 23.9 L186.1 23.8 L186.0 23.8 L185.9 23.7 L185.5 23.8 L185.6 23.6 L186.1 23.4 L186.3 23.2 L186.4 23.3 L186.8 23.9 L186.9 23.8 L187.0 23.9 L187.0 23.6 L186.9 23.4 L186.7 23.2 L186.5 23.1 L186.5 23.0 L186.6 23.0 L186.7 22.9 L186.7 22.8 L186.8 22.8 L186.9 22.8 L186.9 22.7 L186.8 22.6 L186.8 22.6 L186.8 22.5 L187.2 22.1 L187.4 22.0 L187.6 22.0 L187.7 22.1 L188.0 22.5 L188.1 22.6 L188.1 23.0 L188.2 23.1 L188.4 23.4 L188.4 23.7 L188.4 24.0 L188.4 24.3 L188.6 24.7 L188.7 24.9 L188.6 24.9 L188.2 24.4 L188.1 24.4 L188.0 24.5 L187.9 24.6 L187.8 24.7 L187.7 24.7 L187.5 24.6 L187.5 24.4 L187.4 24.2 L187.3 24.3 L187.2 24.4 L187.2 24.5 L187.1 24.6 L187.3 24.7 L187.2 24.8 L187.0 25.2 L187.2 25.2 L187.4 25.2 L187.7 25.3 L187.7 25.4 L187.7 25.5 L187.5 25.6 L187.5 25.7 L187.5 25.8 L187.6 25.9 L187.6 25.9 L187.7 25.8 L187.8 25.6 L187.9 25.6 L188.0 25.6 L188.1 25.8 L188.1 25.9 L188.1 25.9 L188.1 26.0 L188.2 26.0 L188.4 26.1 L188.5 26.0 L188.6 26.0 L188.7 25.8 L188.5 25.5 L188.6 25.3 L188.8 25.2 L188.9 25.3 L189.2 25.8 L189.3 25.9 L189.3 26.0 L189.3 26.2 L189.4 26.4 L189.5 26.5 L189.6 26.7 L189.6 26.9 L189.7 26.8 L189.8 26.7 L189.9 26.6 L190.1 26.6 L190.3 26.6 L190.3 26.7 L190.4 26.8 L190.6 27.0 L190.6 27.1 L190.6 27.2 L190.6 27.3 L190.4 27.3 L190.3 27.2 L190.1 27.2 L190.0 27.3 L190.3 27.5 L190.4 27.7 L190.6 27.7 L190.8 27.5 L191.1 28.2 L191.2 28.4 L191.2 28.7 L191.2 28.8 L191.1 28.8 L191.0 28.7 L190.9 28.6 L190.9 28.2 L190.9 28.5 L191.0 29.2 L191.0 29.5 L190.9 29.6 L190.8 29.7 L190.8 29.8 L190.9 30.0 L191.0 30.1 L191.1 30.1 L191.1 30.1 L191.3 30.0 L191.4 30.1 L191.7 30.4 L191.9 30.6 L192.0 30.8 L192.0 30.9 L192.1 31.2 L192.1 31.3 L192.1 31.4 L191.9 31.7 L191.9 31.8 L192.0 31.8 L192.1 31.8 L192.2 31.8 L192.3 31.8 L192.3 31.7 L192.4 31.6 L192.5 31.5 L192.5 31.2 L192.6 31.1 L192.8 31.1 L192.9 31.1 L192.9 31.3 L192.8 31.3 L193.0 31.3 L193.1 31.4 L193.3 31.5 L193.6 31.8 L193.6 31.8 L193.6 32.1 L193.6 32.2 L193.7 32.5 L193.8 32.7 L194.0 32.7 L194.1 32.7 L194.3 32.7 L194.4 32.8 L194.4 33.0 L194.3 33.1 L194.2 33.1 L194.1 33.2 L194.3 33.4 L194.5 33.5 L194.6 33.5 L194.7 33.6 L194.8 33.9 L194.8 34.0 L195.1 34.3 L195.2 34.5 L195.2 35.1 L195.1 36.0 L195.1 36.2 L195.2 36.4 L195.2 36.6 L195.2 36.7 L195.5 37.2 L195.6 37.4 L195.5 37.9 L195.6 38.0 L195.7 38.1 L195.9 38.1 L196.0 38.0 L196.1 38.0 L196.2 38.2 L196.2 38.4 L196.1 38.8 L196.1 39.1 L196.3 39.7 L196.4 40.1 L196.5 40.1 L196.6 40.2 L196.7 40.3 L196.7 40.4 L196.7 40.6 L196.7 40.7 L196.7 40.9 L196.7 41.0 L196.8 41.0 L196.8 41.1 L196.9 41.1 L196.9 41.1 L197.0 41.1 L197.0 41.1 L197.0 41.2 L197.0 41.3 L197.0 41.4 L196.9 41.8 L197.0 42.0 L197.1 42.1 L197.4 42.6 L197.5 43.0 L197.6 45.3 L197.8 46.1 L197.8 46.5 L197.8 46.9 L197.7 47.2 L197.7 47.4 L197.7 47.8 L197.7 48.0 L197.8 48.2 L198.1 48.4 L198.3 48.8 L198.3 49.1 L198.1 50.0 L198.0 50.3 L198.0 50.5 L198.0 50.7 L198.2 51.3 L198.2 52.5 L198.6 53.1 L198.6 53.6 L198.5 53.9 L198.2 54.1 L198.3 54.2 L198.6 54.4 L198.8 54.5 L198.9 54.6 L198.9 54.8 L199.1 55.5 L199.9 57.3 L200.1 57.6 L200.7 58.3 L200.8 58.5 L200.9 58.8 L201.0 59.0 L201.1 59.0 L201.3 59.1 L201.4 59.4 L201.5 59.8 L201.6 60.5 L201.6 60.6 L201.5 60.8 L201.4 61.0 L201.4 61.0 L201.4 61.1 L201.4 61.2 L201.4 61.3 L201.3 61.6 L201.3 61.7 L201.3 61.8 L201.3 61.9 L201.4 62.0 L201.3 62.1 L201.2 62.2 L201.1 62.3 L201.0 62.7 L200.8 63.3 L200.8 63.5 L200.7 63.8 L199.7 65.6 L199.6 66.0 L199.8 66.0 L199.7 66.2 L198.9 67.2 L198.6 67.9 L198.5 68.0 L198.3 68.1 L198.1 68.0 L197.9 68.0 L197.8 68.2 L197.5 67.6 L197.3 67.4 L197.1 67.5 L196.5 67.0 L196.3 66.7 L196.2 66.4 L196.1 65.8 L196.1 65.7 L196.0 65.7 L195.8 65.6 L195.7 65.4 L195.6 65.3 L195.5 65.1 L195.4 64.9 L195.4 64.7 L195.4 64.6 L195.5 64.4 L195.5 64.2 L195.6 64.1 L195.4 63.9 L195.4 63.8 L195.3 63.8 L195.2 63.8 L195.1 63.8 L195.1 63.7 L194.8 63.3 L194.7 63.2 L194.8 62.8 L194.8 62.6 L194.7 62.1 L194.7 62.0 L194.8 61.9 L194.8 61.8 L194.7 61.7 L194.6 61.7 L194.4 61.7 L194.1 61.9 L193.7 61.9 L193.0 61.9 L192.6 62.0 L192.4 62.2 L191.7 63.1 L191.7 63.4 L192.0 64.1 L192.0 64.2 L192.0 64.4 L191.8 64.7 L191.8 64.7 L191.9 64.9 L192.0 65.0 L192.1 65.1 L192.2 65.5 L192.4 65.9 L192.5 66.5 L192.6 66.8 L192.8 67.1 L192.8 67.3 L192.8 67.5 L192.7 67.6 L192.3 68.2 L192.2 68.6 L192.2 69.0 L192.3 69.3 L192.4 69.7 L192.7 69.9 L193.5 70.2 L193.8 70.4 L194.1 70.8 L194.1 71.1 L193.9 72.2 L193.9 72.6 L193.9 73.0 L194.1 73.2 L194.2 73.2 L194.3 73.4 L194.2 73.9 L194.2 74.0 L194.2 74.1 L194.2 74.5 L194.1 74.7 L193.5 75.7 L193.2 76.0 L192.7 76.4 L192.7 77.0 L192.8 77.2 L192.9 77.4 L193.2 77.7 L193.4 77.8 L193.7 77.8 L194.0 77.8 L193.7 78.0 L193.3 78.1 L192.6 78.2 L192.3 78.4 L191.8 78.4 L191.5 78.5 L191.4 78.6 L191.2 78.8 L190.5 80.2 L189.9 81.7 L189.3 83.0 L189.2 83.8 L189.3 84.0 L189.6 84.5 L190.2 87.3 L190.2 88.1 L190.1 88.9 L189.7 90.2 L189.1 92.0 L189.1 92.2 L189.1 92.4 L189.2 92.5 L189.2 92.6 L189.4 92.7 L189.4 92.8 L189.4 93.0 L189.4 93.0 L189.3 93.1 L189.1 93.1 L188.8 93.8 L188.5 96.0 L188.4 96.2 L188.2 96.4 L188.1 96.6 L187.9 97.4 L187.2 98.7 L186.6 100.8 L185.7 102.8 L185.3 103.4 L184.2 106.9 L182.8 110.4 L182.4 112.2 L182.4 112.5 L182.4 112.9 L182.0 114.0 L182.0 113.8 L181.8 113.6 L181.7 113.5 L181.6 113.6 L181.6 113.8 L181.9 114.1 L181.9 114.3 L181.9 114.5 L181.0 116.3 L180.3 118.0 L180.0 118.8 L179.4 120.6 L178.3 124.7 L178.1 124.9 L178.0 125.1 L177.9 125.2 L177.9 125.4 L178.1 125.2 L178.2 125.3 L178.2 125.4 L178.2 125.6 L178.1 125.8 L177.9 126.1 L177.9 126.3 L177.8 126.7 L177.7 127.1 L177.3 128.0 L177.3 128.2 L177.2 128.5 L177.1 129.5 L176.9 129.9 L176.7 130.2 L175.3 134.6 L173.8 137.7 L172.4 140.9 L172.2 141.6 L171.8 142.4 L171.4 145.4 L171.1 146.1 L171.1 147.2 L170.7 148.5 L170.3 149.6 L170.0 151.2 L168.6 155.1 L168.5 154.9 L168.4 154.8 L168.4 154.7 L168.2 154.9 L168.1 155.2 L168.2 155.2 L168.4 155.2 L168.6 155.3 L168.6 155.6 L168.1 158.1 L167.4 159.6 L167.2 159.9 L167.2 160.0 L167.0 160.1 L166.9 160.2 L166.9 160.2 L166.8 160.2 L166.8 160.2 L166.7 160.3 L166.7 160.3 L166.8 160.3 L166.8 160.4 L166.8 160.4 L166.7 160.7 L166.5 161.1 L166.5 161.2 L165.8 162.8 L165.7 162.9 L165.6 162.9 L165.3 162.7 L165.3 162.8 L165.4 163.4 L165.1 165.3 L164.2 167.5 L163.9 167.9 L163.9 168.1 L163.9 168.4 L163.8 168.6 L163.2 169.0 L163.0 169.4 L163.1 170.1 L163.0 170.4 L162.9 170.3 L162.8 170.1 L162.8 170.0 L162.8 169.8 L162.7 169.9 L162.7 170.1 L162.7 170.3 L162.7 170.5 L162.6 170.7 L162.6 170.8 L162.2 170.9 L162.0 171.0 L161.7 171.3 L161.2 171.9 L161.0 172.0 L161.0 171.9 L160.9 171.7 L160.8 171.6 L160.7 171.7 L160.7 171.7 L160.0 172.1 L159.8 172.3 L159.7 172.4 L159.3 172.5 L159.2 172.6 L159.0 172.8 L158.9 172.9 L158.8 172.9 L158.7 172.9 L158.6 172.9 L158.5 173.0 L158.4 173.1 L157.6 173.3 L157.4 173.3 L157.0 173.2 L155.9 173.0 L154.6 173.0 L152.9 173.4 L150.6 174.3 L149.2 175.0 L147.6 175.8 L146.4 176.8 L146.2 177.0 L146.0 177.0 L145.7 177.1 L145.1 177.6 L144.3 177.7 L141.1 177.8 L140.9 177.9 L140.7 178.0 L140.6 178.0 L140.4 178.0 L140.3 177.8 L140.2 177.4 L140.1 177.2 L139.7 177.0 L138.5 176.6 L138.2 176.3 L138.0 176.2 L137.9 175.8 L137.7 175.7 L136.8 175.1 L136.1 174.8 L135.6 174.6 L134.4 174.5 L133.2 174.4 L131.5 174.1 L131.3 174.0 L131.1 173.5 L130.8 173.2 L130.7 172.9 L130.9 173.0 L131.1 173.2 L131.4 173.5 L131.7 173.7 L131.9 173.7 L132.0 173.6 L131.9 173.3 L131.7 173.3 L131.6 173.3 L131.3 173.0 L131.1 172.9 L130.9 172.8 L130.7 172.8 L130.5 172.8 L130.1 172.6 L129.4 171.9 L129.0 171.7 L128.7 171.7 L128.5 171.7 L127.6 171.1 L127.5 170.9 L127.4 170.0 L127.3 169.6 L126.5 168.6 L126.4 168.2 L126.5 167.2 L126.4 166.8 L126.2 166.6 L125.7 166.1 L125.7 166.1 L125.6 166.0 L125.6 165.9 L125.5 165.8 L125.5 165.6 L125.5 165.5 L125.1 165.2 L124.3 164.7 L123.9 164.4 L123.5 163.6 L123.4 161.9 L123.5 159.9 L123.3 158.8 L123.3 158.7 L123.4 158.5 L123.5 158.4 L123.4 158.2 L123.3 157.9 L123.2 157.4 L123.1 157.2 L123.0 157.0 L123.2 156.8 L123.1 156.0 L123.2 155.6 L123.4 155.4 L124.2 155.1 L124.4 154.8 L124.4 154.6 L124.2 154.3 L124.3 154.1 L124.4 154.0 L124.5 153.9 L124.6 153.7 L124.6 153.6 L124.5 153.5 L124.4 153.3 L124.1 153.1 L123.9 152.8 L123.4 152.4 L123.3 152.4 L123.2 152.3 L123.2 152.3 L123.1 152.3 L123.0 152.2 L123.0 151.9 L122.9 151.5 L122.8 150.5 L122.7 149.7 L122.5 149.2 L122.2 148.9 L121.4 148.3 L121.3 148.2 L121.1 147.8 L121.0 147.7 L120.7 147.5 L120.4 147.1 L120.1 146.8 L120.0 146.5 L119.9 146.4 L119.9 145.9 L119.7 145.6 L119.7 145.0 L119.5 144.7 L119.5 144.3 L119.4 144.2 L119.3 144.0 L119.2 143.9 L119.1 143.6 L119.1 143.3 L119.2 142.8 L119.0 141.8 L118.9 141.2 L118.6 140.7 L118.6 140.6 L118.6 140.5 L118.6 140.3 L118.5 140.1 L118.4 139.8 L118.4 139.6 L118.7 139.4 L119.0 139.4 L119.2 139.6 L119.3 139.4 L119.3 139.2 L119.2 139.0 L119.2 138.8 L118.8 138.8 L118.7 138.3 L118.7 137.3 L118.7 137.2 L118.8 136.9 L118.8 136.8 L118.8 136.5 L118.9 136.4 L118.9 136.4 L119.0 136.3 L119.0 136.3 L119.0 136.3 L119.1 136.3 L119.1 136.2 L119.2 136.2 L119.1 135.9 L119.1 135.7 L119.1 135.6 L119.2 135.5 L119.3 135.3 L119.4 135.5 L119.5 135.7 L119.4 136.1 L119.6 135.8 L119.7 135.3 L119.7 134.7 L119.7 134.2 L119.8 134.0 L120.6 133.2 L120.8 133.0 L121.0 133.0 L121.3 133.1 L121.3 130.1 L121.3 129.8 L121.6 129.3 L121.7 129.0 L121.7 129.2 L121.8 129.2 L122.1 129.0 L122.4 128.8 L122.5 128.6 L122.6 128.6 L123.2 128.6 L123.6 128.5 L123.8 128.6 L124.0 128.6 L124.3 128.7 L124.5 128.6 L124.9 128.3 L125.1 128.0 L125.3 127.7 L125.3 127.4 L125.7 126.3 L126.2 124.1 L126.9 122.8 L127.1 122.6 L127.5 122.5 L127.7 122.3 L128.3 121.2 L128.5 120.8 L128.6 120.2 L128.7 119.7 L129.0 119.4 L129.0 119.5 L129.0 119.5 L129.1 119.7 L129.4 119.1 L129.5 118.9 L130.0 118.5 L130.2 118.3 Z" fill="#172033" fill-rule="evenodd"/></svg>
