<svg xmlns="http://www.w3.org/2000/svg" viewBox="0 0 320 200" role="img"><path d="M125.5 77.2 L125.6 77.1 L125.7 77.1 L125.7 77.1 L125.8 77.0 L125.9 76.9 L126.0 76.9 L126.1 76.9 L126.2 76.8 L126.2 76.7 L126.2 76.6 L126.2 76.5 L126.2 76.4 L126.3 76.2 L126.3 76.2 L126.3 76.2 L126.4 76.2 L126.4 76.1 L126.3 75.9 L126.4 75.7 L126.4 75.7 L126.6 75.7 L127.2 76.1 L127.7 76.6 L127.9 76.8 L127.9 77.0 L128.0 77.3 L128.1 77.3 L128.2 77.3 L128.2 77.0 L128.3 76.8 L128.4 76.8 L128.6 76.9 L128.7 77.0 L128.7 77.1 L128.8 77.1 L128.8 77.1 L128.9 77.1 L128.9 77.0 L128.9 77.0 L128.9 77.0 L128.9 76.9 L128.9 76.8 L128.9 76.8 L128.8 76.7 L128.8 76.6 L128.8 76.5 L129.0 76.2 L129.1 76.1 L129.2 76.1 L129.3 76.0 L129.3 76.0 L129.3 75.4 L129.3 75.3 L129.3 75.3 L129.4 75.2 L129.5 75.2 L129.7 75.3 L129.9 75.3 L130.0 75.4 L130.1 75.5 L130.3 75.4 L130.1 75.1 L130.1 75.0 L130.2 75.0 L130.2 75.0 L130.4 75.0 L130.5 74.9 L130.5 74.9 L130.6 74.8 L130.6 74.7 L130.5 73.7 L130.4 73.4 L130.1 73.1 L130.0 73.0 L129.9 72.7 L129.9 72.5 L130.0 72.2 L130.0 72.0 L130.0 71.8 L129.8 71.5 L129.7 71.3 L129.7 71.2 L129.8 70.5 L130.0 70.3 L130.1 70.3 L130.2 70.1 L130.5 69.7 L130.6 69.6 L130.6 69.4 L130.5 69.2 L130.4 68.9 L130.3 68.8 L130.3 68.5 L130.3 68.3 L130.4 68.2 L130.6 68.1 L130.8 68.1 L130.9 68.2 L131.0 68.4 L131.2 68.5 L131.4 68.5 L131.6 68.4 L131.8 68.3 L131.9 68.1 L132.3 67.5 L132.3 67.4 L132.2 67.3 L132.2 67.1 L132.3 66.6 L132.3 66.2 L132.3 66.1 L132.3 65.9 L132.5 65.7 L132.5 65.7 L132.5 65.6 L132.5 65.5 L132.5 65.0 L132.5 64.8 L132.7 63.1 L132.7 62.9 L132.7 62.8 L132.6 62.6 L132.5 62.5 L132.3 62.4 L132.1 61.4 L132.1 61.1 L132.1 60.9 L132.1 60.9 L132.0 60.8 L131.9 60.8 L131.8 60.5 L131.7 60.4 L131.6 60.2 L131.6 60.0 L131.6 59.9 L131.6 59.8 L131.7 59.6 L131.8 59.5 L132.0 59.4 L132.2 59.5 L132.4 59.8 L132.5 59.9 L132.8 60.2 L132.8 60.3 L132.9 60.4 L132.9 60.5 L133.1 60.5 L133.3 60.5 L133.5 60.4 L133.7 60.3 L133.7 60.3 L133.8 60.4 L133.8 60.5 L133.9 60.4 L134.0 60.4 L134.0 60.3 L134.0 60.3 L134.0 60.2 L134.3 60.1 L134.7 60.1 L135.1 60.1 L135.3 60.2 L135.7 60.6 L135.9 60.7 L136.5 60.6 L136.8 60.7 L137.0 60.8 L137.3 60.8 L137.5 60.9 L138.0 61.1 L138.1 61.2 L138.2 61.4 L138.3 61.5 L138.5 61.5 L138.6 61.4 L138.6 61.4 L138.6 61.2 L138.6 61.0 L138.6 60.8 L138.7 60.7 L139.1 60.2 L139.1 60.1 L139.2 59.8 L139.2 59.7 L139.3 59.6 L139.3 59.4 L139.4 59.1 L139.5 58.8 L139.9 57.9 L139.9 57.8 L139.9 57.5 L140.0 57.4 L140.1 57.3 L140.2 57.2 L140.3 57.1 L140.3 57.0 L140.3 56.9 L140.3 56.8 L140.4 56.8 L140.5 56.7 L140.5 56.6 L140.6 56.2 L140.6 56.1 L140.7 56.1 L140.8 56.0 L141.0 55.6 L141.0 55.5 L141.1 55.4 L141.5 55.1 L141.6 54.9 L141.8 54.4 L141.9 54.2 L142.0 54.2 L142.1 54.2 L142.2 54.2 L142.3 54.1 L142.4 54.0 L142.5 53.9 L142.5 53.7 L142.5 53.6 L142.5 53.3 L142.9 52.9 L143.0 52.7 L143.2 52.0 L143.3 51.8 L143.5 51.5 L143.5 51.2 L143.5 50.8 L143.3 50.6 L143.0 50.5 L142.7 50.4 L142.4 50.3 L142.2 50.0 L142.1 49.7 L142.6 48.4 L142.8 48.2 L143.0 48.0 L143.1 47.9 L143.3 47.8 L143.5 47.7 L143.8 47.7 L143.9 47.6 L144.1 47.5 L144.3 47.2 L144.4 47.1 L144.5 47.0 L144.7 47.0 L144.7 47.0 L144.8 47.0 L144.7 46.9 L144.7 46.8 L144.7 46.8 L144.8 46.8 L144.8 46.7 L145.6 45.7 L145.7 45.7 L145.7 45.6 L145.9 45.6 L146.0 45.6 L146.0 45.4 L146.0 45.2 L145.9 44.3 L145.9 44.2 L145.9 44.0 L146.0 43.9 L146.3 43.8 L146.5 43.7 L146.8 43.4 L147.1 43.1 L147.2 42.9 L147.2 42.7 L147.1 42.6 L146.8 42.6 L146.7 42.5 L146.6 41.9 L146.6 41.8 L146.7 41.8 L146.7 41.7 L146.7 41.6 L146.6 41.6 L146.5 41.6 L146.5 41.6 L146.4 41.5 L146.3 41.3 L146.3 40.9 L146.3 40.6 L146.3 40.3 L146.5 40.0 L146.5 39.9 L146.4 39.8 L146.3 39.5 L146.3 39.3 L146.4 39.2 L146.5 39.1 L146.8 38.8 L146.8 38.7 L146.9 38.6 L146.9 38.6 L146.9 38.5 L146.9 38.3 L147.0 38.2 L147.0 38.1 L147.1 38.1 L147.3 38.1 L147.4 38.0 L147.4 38.0 L147.6 37.8 L147.6 37.7 L147.8 37.7 L147.9 37.9 L148.0 37.9 L148.1 37.9 L148.3 37.9 L148.6 37.7 L149.2 37.5 L149.4 37.4 L149.6 37.2 L149.8 36.8 L150.0 36.5 L150.4 36.4 L150.6 36.5 L150.8 36.5 L150.9 36.4 L151.0 36.2 L151.1 36.0 L151.2 35.9 L151.3 35.9 L151.7 35.9 L151.8 35.8 L151.9 35.7 L152.1 35.4 L152.5 35.0 L152.7 34.9 L153.2 34.8 L153.4 34.7 L153.6 34.5 L153.8 34.3 L154.1 33.7 L154.4 33.3 L155.0 33.0 L155.5 32.8 L157.8 32.4 L158.3 32.5 L158.4 32.5 L158.6 32.5 L158.8 32.4 L158.9 32.4 L159.1 32.2 L159.2 32.0 L159.3 32.0 L159.5 32.0 L159.6 32.0 L159.6 32.1 L159.7 32.1 L159.8 32.1 L159.9 32.1 L160.0 31.9 L160.1 31.9 L160.3 31.9 L160.4 31.9 L160.7 32.1 L160.9 32.2 L161.0 32.3 L161.1 32.5 L161.2 32.6 L161.5 32.8 L161.6 32.9 L161.5 33.1 L161.4 33.2 L161.4 33.4 L161.6 33.5 L162.8 34.0 L162.8 34.0 L162.9 34.1 L163.0 34.2 L163.1 34.2 L163.1 34.2 L163.2 34.2 L163.3 34.1 L163.4 34.1 L163.5 34.2 L163.6 34.2 L163.6 34.2 L163.7 34.2 L163.8 34.1 L163.9 33.9 L163.9 33.9 L163.8 33.8 L163.8 33.7 L163.7 33.7 L163.6 33.6 L163.6 33.5 L163.6 33.4 L163.5 33.3 L163.3 33.1 L161.9 31.5 L161.7 31.2 L161.7 31.0 L161.8 30.8 L161.8 30.7 L161.8 30.6 L161.7 30.4 L161.7 30.4 L161.7 30.3 L161.6 30.2 L161.6 30.1 L161.6 29.9 L161.6 29.7 L161.8 29.6 L161.9 29.5 L162.2 29.3 L162.4 29.2 L162.7 28.8 L162.8 28.8 L163.0 28.7 L163.2 28.7 L163.2 28.7 L163.2 28.6 L163.3 28.5 L163.3 28.4 L163.3 28.4 L163.5 28.3 L163.6 28.3 L163.6 28.2 L163.7 28.1 L163.8 28.1 L163.8 28.1 L164.3 27.7 L164.4 27.6 L164.5 27.5 L164.6 27.4 L164.8 27.3 L164.9 27.3 L165.1 27.3 L165.2 27.4 L165.2 27.5 L165.2 27.6 L165.4 27.5 L165.5 27.4 L165.6 27.4 L165.6 27.3 L165.6 27.1 L165.6 26.9 L165.7 26.7 L165.8 26.6 L165.7 26.3 L165.3 25.9 L165.2 25.7 L165.3 25.4 L165.5 24.9 L165.5 24.7 L165.5 24.5 L165.8 24.4 L165.9 24.3 L166.0 24.1 L166.1 24.1 L166.2 24.1 L166.4 24.1 L166.5 24.0 L166.5 23.9 L166.5 23.5 L166.5 23.5 L166.5 23.4 L166.5 23.3 L166.5 23.2 L166.7 23.1 L166.7 23.0 L166.7 22.9 L166.8 22.8 L167.0 22.5 L167.1 22.4 L167.2 22.1 L167.3 22.0 L167.5 22.1 L167.7 22.4 L167.9 22.5 L168.1 22.3 L168.4 22.2 L168.6 22.4 L169.0 23.3 L169.2 23.6 L169.4 23.6 L170.0 23.4 L170.3 23.5 L170.7 24.0 L171.0 24.2 L171.1 24.3 L171.1 24.4 L171.0 24.6 L171.1 24.7 L171.4 24.8 L171.6 24.8 L172.1 25.3 L172.1 25.3 L172.2 25.5 L172.2 25.6 L172.2 26.4 L172.1 26.6 L172.0 26.8 L172.1 26.9 L172.4 27.0 L172.5 27.1 L172.6 27.3 L172.6 27.4 L172.5 27.5 L172.3 27.5 L172.4 27.7 L172.5 27.8 L172.8 28.0 L172.8 28.1 L172.8 28.2 L172.8 28.4 L172.8 28.5 L172.9 28.5 L172.9 28.5 L172.8 28.7 L172.9 28.8 L173.1 29.2 L173.3 29.5 L173.5 30.1 L173.6 30.4 L173.9 30.5 L174.2 30.5 L174.4 30.3 L174.5 30.0 L174.5 29.7 L174.5 29.4 L174.5 29.3 L174.6 29.2 L174.7 29.2 L175.1 29.4 L175.3 29.5 L175.5 29.4 L175.7 29.5 L175.9 29.9 L176.0 30.0 L176.2 30.0 L176.3 29.9 L176.4 29.8 L176.5 29.8 L176.6 29.8 L176.7 29.8 L176.7 29.9 L176.8 30.0 L176.9 30.1 L176.9 30.3 L176.8 30.6 L176.8 30.9 L176.8 31.7 L176.8 31.8 L176.9 31.8 L177.0 31.8 L177.0 31.8 L177.1 32.1 L177.1 32.4 L176.9 32.9 L176.8 33.2 L176.8 33.5 L176.9 34.0 L177.0 34.2 L177.1 34.2 L177.2 34.2 L177.3 34.4 L177.4 34.5 L177.3 34.7 L177.2 34.8 L177.1 35.0 L177.3 35.7 L177.3 35.8 L177.3 35.9 L177.2 36.0 L177.2 36.1 L177.2 36.3 L177.4 36.5 L177.5 36.7 L177.4 36.9 L177.3 37.2 L177.3 37.3 L177.4 37.6 L177.4 37.7 L177.4 37.8 L177.4 37.8 L177.5 37.9 L177.5 38.1 L177.4 38.3 L177.3 38.5 L177.2 38.8 L177.2 39.9 L177.1 40.1 L177.1 40.2 L177.0 40.4 L176.7 40.7 L176.6 40.9 L176.6 41.1 L176.5 41.2 L176.6 41.3 L176.8 41.3 L176.8 41.3 L177.0 41.7 L177.1 41.9 L177.0 42.0 L177.0 42.0 L176.9 42.1 L176.9 42.2 L176.9 42.3 L176.6 42.5 L176.5 42.5 L176.4 42.4 L176.4 42.1 L176.4 42.1 L176.2 42.2 L175.9 42.2 L175.8 42.3 L175.7 42.5 L175.7 42.6 L175.8 42.7 L176.0 43.0 L176.0 43.2 L176.0 43.4 L176.0 43.5 L176.1 43.5 L176.2 43.5 L176.3 43.5 L176.4 43.6 L176.7 44.0 L176.8 44.1 L176.8 44.2 L176.9 44.2 L176.9 44.3 L177.0 44.4 L177.0 44.5 L176.9 44.6 L176.8 44.7 L176.4 45.0 L176.3 45.0 L176.2 45.0 L176.1 45.0 L175.9 44.9 L175.7 44.7 L175.6 44.7 L175.4 44.7 L175.3 44.8 L175.1 45.0 L175.0 45.1 L175.0 45.2 L174.8 45.5 L174.8 45.6 L174.7 45.6 L174.7 45.7 L174.7 45.8 L174.6 45.9 L174.6 45.9 L174.3 46.3 L174.3 46.4 L174.2 46.8 L174.1 46.9 L173.9 47.0 L173.8 47.1 L173.6 47.1 L173.5 47.1 L173.2 46.9 L173.1 46.8 L172.4 46.6 L172.3 46.6 L172.3 46.7 L172.3 47.1 L172.3 47.3 L172.2 47.4 L172.0 47.5 L172.0 47.6 L172.0 47.6 L172.0 47.8 L172.1 47.9 L172.1 48.0 L172.1 48.3 L172.1 48.4 L172.1 48.5 L171.9 48.5 L171.8 48.6 L171.7 48.8 L171.5 49.1 L171.4 49.2 L171.1 49.4 L170.9 49.5 L170.6 49.9 L170.4 50.0 L170.2 50.0 L170.1 50.0 L170.1 49.8 L170.0 49.7 L169.7 49.6 L169.5 49.8 L169.3 50.4 L169.1 50.8 L168.9 51.0 L168.8 51.1 L168.7 51.1 L168.6 51.2 L168.7 51.5 L168.7 52.1 L168.7 52.4 L168.8 52.6 L169.1 52.8 L169.2 53.0 L169.2 53.1 L169.0 53.2 L168.8 53.2 L168.5 53.2 L168.3 53.2 L168.1 53.3 L167.8 53.6 L167.2 53.9 L167.2 53.9 L167.2 54.1 L167.3 55.1 L167.1 56.3 L167.1 56.5 L167.1 56.5 L167.8 56.4 L168.0 56.4 L168.1 56.5 L168.2 56.5 L168.2 56.6 L168.2 56.7 L168.3 56.8 L168.3 56.9 L168.5 57.0 L168.5 57.1 L168.5 57.3 L168.4 57.3 L168.2 57.3 L168.1 57.4 L168.2 57.6 L168.8 57.8 L168.8 58.1 L168.8 58.2 L168.7 58.2 L168.7 58.3 L168.6 58.4 L168.7 58.5 L168.8 58.6 L168.8 58.7 L168.8 58.9 L168.7 59.1 L167.1 60.6 L167.2 60.8 L167.6 60.9 L167.9 61.1 L167.9 61.2 L167.9 61.3 L168.0 61.5 L168.1 61.3 L168.2 61.3 L168.3 61.2 L168.4 61.2 L168.6 61.1 L169.0 60.7 L169.2 60.6 L169.4 60.6 L169.5 60.5 L169.6 60.5 L169.8 60.4 L170.1 60.0 L170.2 60.0 L172.0 59.3 L172.7 59.2 L173.0 59.2 L173.6 59.3 L173.9 59.3 L174.1 59.3 L174.3 59.1 L174.5 59.1 L174.8 59.1 L175.1 59.1 L175.4 59.1 L175.7 59.4 L175.9 59.5 L176.1 59.5 L176.2 59.5 L176.3 59.4 L176.5 59.3 L176.9 59.3 L177.2 59.1 L178.0 59.1 L178.3 59.0 L178.4 58.9 L178.4 59.0 L178.5 59.2 L178.3 59.5 L177.6 59.9 L177.2 60.3 L177.0 60.3 L176.9 60.4 L176.7 60.4 L176.7 60.5 L176.7 60.6 L176.8 60.7 L176.8 60.8 L176.7 61.0 L176.7 61.1 L176.8 61.7 L176.8 61.8 L176.7 61.8 L176.7 61.9 L176.8 62.0 L176.9 62.0 L177.1 62.0 L177.4 62.1 L177.7 62.1 L177.8 62.2 L177.9 62.3 L177.9 62.7 L177.9 62.9 L178.3 63.4 L178.3 63.4 L178.4 63.5 L178.3 63.6 L178.2 63.7 L177.8 63.9 L177.7 64.0 L177.7 64.1 L177.9 64.5 L178.0 64.6 L178.1 64.5 L178.3 64.5 L178.4 64.7 L178.5 64.8 L178.6 65.2 L178.7 65.3 L178.6 65.5 L178.6 65.6 L178.5 65.7 L178.4 65.7 L178.3 65.8 L178.3 65.8 L178.4 65.9 L178.7 65.9 L178.8 66.1 L178.4 66.8 L178.4 67.1 L179.0 67.1 L179.3 67.2 L179.5 67.2 L179.6 67.2 L179.8 67.2 L179.8 67.3 L179.9 67.5 L180.0 67.7 L180.2 67.7 L180.3 67.7 L180.6 67.7 L180.7 67.7 L180.9 67.8 L181.1 67.8 L181.1 67.8 L181.1 67.8 L181.2 67.8 L181.2 67.8 L181.2 68.0 L181.3 68.0 L181.3 68.1 L181.4 68.1 L181.4 68.1 L181.5 68.1 L181.7 67.9 L181.8 67.9 L182.0 67.8 L182.0 67.8 L182.1 67.6 L182.2 67.5 L182.4 67.5 L182.5 67.6 L182.8 67.9 L182.9 68.0 L183.6 68.0 L183.7 68.1 L183.7 68.2 L183.7 68.3 L183.7 68.5 L183.8 68.6 L184.1 69.0 L184.1 69.2 L183.9 69.3 L183.6 69.3 L183.2 69.1 L183.0 69.2 L183.0 69.3 L183.1 69.6 L183.0 69.8 L183.0 69.9 L182.7 70.1 L182.6 70.5 L182.5 70.5 L182.4 70.6 L182.3 70.6 L182.2 70.6 L182.1 70.7 L182.1 70.9 L182.5 71.9 L182.6 72.0 L182.5 72.3 L182.5 72.5 L182.5 72.6 L182.6 72.7 L182.6 72.8 L182.5 72.9 L182.5 73.0 L181.9 73.5 L181.6 73.7 L181.6 73.8 L181.6 73.8 L181.6 73.9 L181.6 74.0 L181.6 74.1 L181.5 74.3 L181.4 74.4 L181.3 74.8 L181.2 74.9 L181.0 75.3 L180.9 75.4 L181.0 75.6 L180.8 75.7 L181.0 75.9 L181.3 76.0 L181.7 76.1 L182.3 76.2 L182.6 76.2 L183.1 76.0 L183.2 75.9 L183.7 76.1 L183.8 76.1 L184.1 76.1 L184.9 76.3 L185.0 76.3 L185.0 76.4 L185.1 76.5 L185.1 76.6 L185.3 76.7 L185.4 76.6 L185.5 76.5 L185.6 76.4 L185.8 76.4 L186.3 76.7 L186.3 76.7 L186.4 76.8 L186.5 76.8 L186.6 76.8 L186.6 76.8 L186.6 76.6 L186.7 76.5 L186.8 76.5 L187.5 76.6 L187.4 76.7 L187.4 76.8 L187.5 76.9 L187.5 77.0 L187.7 77.3 L187.6 77.6 L187.3 78.2 L187.3 78.4 L187.3 78.6 L187.5 78.9 L187.5 79.3 L187.6 79.5 L187.9 79.6 L188.7 79.6 L189.0 79.7 L189.1 79.8 L189.2 79.9 L189.2 79.9 L189.2 80.0 L189.1 80.0 L189.0 80.1 L188.9 80.1 L188.8 80.2 L188.8 80.4 L188.7 80.5 L188.7 80.6 L188.7 80.8 L188.7 80.9 L188.8 81.1 L188.9 81.2 L189.0 81.3 L189.3 81.7 L189.5 81.8 L189.6 81.7 L189.9 81.6 L190.0 81.5 L190.3 81.4 L190.4 81.3 L190.5 81.2 L190.5 81.2 L190.6 81.1 L190.7 81.0 L190.8 80.9 L191.0 80.9 L191.2 81.0 L191.3 81.0 L191.6 81.2 L191.6 81.4 L191.7 81.5 L191.8 81.6 L192.0 81.6 L192.1 81.5 L192.6 81.6 L192.8 81.6 L193.2 81.4 L193.4 81.4 L193.5 81.2 L193.5 81.2 L193.9 81.1 L194.3 80.6 L194.7 80.1 L195.0 79.9 L195.3 79.7 L196.2 79.5 L196.3 79.4 L196.7 79.1 L196.8 79.0 L197.0 79.0 L197.1 78.9 L197.4 79.0 L197.4 79.1 L197.4 79.5 L197.5 79.6 L197.6 79.7 L197.7 79.9 L197.8 80.0 L197.8 80.2 L197.8 80.2 L197.8 80.3 L197.7 80.5 L197.7 80.6 L197.7 80.7 L197.7 80.9 L197.7 81.0 L197.6 81.1 L196.4 82.0 L195.6 82.4 L195.5 82.4 L195.2 82.7 L195.1 82.7 L194.8 82.9 L194.6 82.9 L194.5 82.8 L194.4 82.8 L194.3 82.8 L194.3 82.8 L194.2 82.7 L194.1 82.8 L194.0 82.8 L194.0 82.9 L194.0 83.0 L193.8 84.1 L193.3 84.8 L193.2 84.9 L193.1 85.0 L192.7 85.1 L192.5 85.2 L192.6 85.4 L192.7 85.5 L192.6 85.5 L192.5 85.6 L192.4 85.7 L192.4 85.8 L192.3 86.2 L192.3 86.3 L192.5 86.5 L193.2 86.3 L193.4 86.4 L193.4 86.4 L193.2 86.6 L193.1 86.7 L193.0 86.8 L192.8 86.9 L192.5 87.0 L192.3 87.0 L191.9 86.9 L191.2 86.8 L191.0 86.8 L190.9 86.9 L190.8 87.1 L190.7 87.2 L190.4 87.3 L190.3 87.4 L190.1 87.6 L189.8 87.8 L189.7 87.9 L189.7 88.1 L189.7 88.2 L189.5 88.4 L189.4 88.6 L189.4 88.7 L189.3 88.9 L189.2 89.2 L189.1 89.9 L189.0 90.2 L189.0 90.4 L189.0 90.5 L188.9 90.7 L188.8 90.8 L188.8 90.9 L188.8 91.0 L188.8 91.1 L188.4 90.9 L188.4 90.8 L188.3 90.7 L188.3 90.7 L188.2 90.6 L188.0 90.6 L187.9 90.6 L187.8 90.5 L187.7 90.4 L187.7 90.4 L187.6 90.3 L187.6 90.2 L187.6 90.1 L187.5 90.1 L187.4 90.1 L187.4 90.1 L186.9 90.1 L186.8 90.2 L186.6 90.3 L186.5 90.4 L186.4 90.7 L186.3 90.9 L186.2 91.0 L186.0 91.0 L185.7 91.0 L185.5 91.1 L185.2 91.2 L185.0 91.2 L185.0 91.2 L184.8 91.1 L184.8 91.1 L184.7 91.1 L184.5 91.1 L184.4 91.1 L183.8 90.9 L183.4 90.6 L183.3 90.6 L183.1 90.6 L183.2 90.8 L183.5 91.1 L183.6 91.2 L183.6 91.7 L183.9 92.0 L184.0 92.2 L183.9 92.4 L183.8 92.5 L183.8 92.5 L183.8 92.6 L183.7 92.6 L183.5 92.7 L183.3 92.9 L182.3 93.2 L182.0 93.3 L181.9 93.2 L181.5 92.9 L181.4 92.9 L181.1 92.8 L180.9 92.8 L180.5 92.8 L180.2 93.0 L179.9 93.2 L179.7 93.5 L179.6 94.0 L179.6 94.1 L179.7 94.3 L179.7 94.3 L179.6 94.4 L179.6 94.4 L179.6 94.5 L179.6 94.6 L179.6 94.8 L179.6 94.9 L179.6 95.1 L179.6 95.3 L179.5 95.5 L179.3 95.6 L179.0 95.7 L178.7 95.9 L178.6 95.9 L178.4 95.7 L178.3 95.6 L178.2 95.5 L177.9 95.4 L177.4 95.8 L177.3 95.8 L176.5 95.9 L176.4 96.0 L176.3 96.1 L176.2 96.2 L176.1 96.3 L175.9 96.3 L175.8 96.4 L175.7 96.5 L175.7 96.5 L175.6 96.5 L175.5 96.5 L175.4 96.4 L175.3 96.3 L175.3 96.3 L175.2 96.3 L175.1 96.3 L174.8 96.4 L174.5 96.4 L174.1 96.4 L173.7 96.4 L173.4 96.6 L173.1 96.6 L173.0 96.5 L173.0 96.4 L173.0 96.3 L172.9 96.2 L172.9 96.1 L172.6 96.1 L172.3 95.8 L172.1 95.7 L171.9 95.7 L171.8 95.7 L171.7 95.5 L171.5 95.4 L171.4 95.5 L171.3 95.6 L171.2 96.1 L171.2 96.3 L171.3 96.6 L171.3 96.7 L171.2 96.8 L171.1 96.9 L171.1 96.9 L171.0 96.9 L170.9 96.9 L170.8 97.1 L170.7 97.1 L170.2 97.4 L170.0 97.4 L169.9 97.4 L169.8 97.5 L169.8 97.7 L169.8 97.9 L169.8 98.0 L169.9 98.0 L169.9 98.1 L169.8 98.2 L169.7 98.3 L169.5 98.5 L169.2 98.9 L169.2 98.9 L169.3 99.1 L169.3 99.2 L169.3 99.4 L169.4 99.5 L169.5 99.7 L169.5 99.8 L169.4 99.9 L169.3 99.9 L169.2 99.9 L169.2 100.0 L169.2 100.0 L169.4 100.2 L169.5 100.3 L169.6 100.5 L169.6 100.6 L169.6 101.3 L169.5 101.4 L169.4 101.5 L168.9 101.9 L168.8 102.1 L168.7 102.4 L168.7 102.5 L168.5 102.6 L168.4 102.8 L168.3 102.8 L168.3 102.9 L168.5 103.1 L168.7 103.3 L168.8 103.3 L168.8 103.5 L168.8 103.7 L168.8 103.7 L168.9 104.1 L168.9 104.2 L168.9 104.4 L169.0 104.7 L169.1 105.0 L169.1 105.4 L169.1 105.7 L169.0 105.8 L169.0 105.8 L168.9 105.8 L168.5 105.9 L168.1 105.9 L167.9 106.0 L167.3 106.3 L167.0 106.5 L166.6 106.5 L166.4 106.5 L166.3 106.5 L166.2 106.4 L166.2 106.4 L166.2 106.3 L166.0 106.1 L165.9 106.0 L165.9 106.0 L165.7 106.0 L165.7 106.1 L165.9 106.2 L166.0 106.4 L166.1 106.5 L166.3 106.9 L166.5 107.2 L166.5 107.4 L166.5 107.6 L166.5 107.8 L166.7 108.0 L166.8 108.2 L167.0 108.3 L167.2 108.4 L167.3 108.3 L167.3 108.3 L167.5 107.9 L167.5 107.8 L167.6 107.8 L168.0 108.0 L168.1 108.0 L168.2 108.2 L168.1 108.3 L168.1 108.5 L168.0 108.5 L167.9 108.6 L168.0 108.8 L168.5 109.3 L168.5 109.4 L168.5 109.4 L168.5 109.5 L168.5 109.6 L168.6 109.8 L168.6 109.9 L168.6 109.9 L168.6 110.0 L168.6 110.0 L168.6 110.1 L168.6 110.1 L168.6 110.1 L168.7 110.1 L168.8 110.2 L168.8 110.2 L168.8 110.3 L169.0 110.6 L169.0 110.6 L169.0 110.7 L169.1 110.8 L169.1 110.9 L169.1 110.9 L169.0 110.9 L168.8 111.1 L168.6 111.5 L168.5 111.6 L168.6 112.0 L168.4 112.0 L168.5 112.2 L168.6 112.2 L168.7 112.3 L168.7 112.5 L168.8 112.6 L169.0 112.7 L169.0 112.8 L169.1 112.9 L169.1 113.0 L169.1 113.1 L169.1 113.2 L169.2 113.3 L170.4 114.4 L170.6 114.6 L170.7 114.6 L170.9 114.7 L171.0 114.8 L171.1 114.9 L171.1 115.0 L171.3 115.3 L171.4 115.5 L171.4 115.6 L171.6 115.7 L171.7 115.8 L171.8 115.8 L171.9 115.9 L171.9 116.0 L171.9 116.1 L171.9 116.3 L171.9 116.4 L172.0 116.5 L172.7 117.1 L172.8 117.2 L173.0 117.3 L173.3 117.8 L173.5 117.9 L173.4 118.0 L173.4 118.1 L173.4 118.1 L173.6 118.1 L173.6 118.2 L173.6 118.3 L173.6 118.3 L173.7 118.5 L173.8 118.6 L173.9 118.6 L174.3 118.6 L174.5 118.7 L174.7 118.8 L174.8 118.9 L174.9 119.1 L175.0 119.3 L175.1 119.4 L175.2 119.6 L175.2 119.7 L175.2 119.8 L175.4 119.9 L175.4 119.9 L175.5 120.0 L175.6 120.3 L175.5 120.2 L175.4 120.2 L175.3 120.2 L175.3 120.3 L175.3 120.4 L175.4 120.5 L175.5 120.5 L175.5 120.6 L175.5 120.7 L175.4 120.8 L175.3 120.9 L175.1 120.9 L175.0 121.0 L175.0 121.2 L175.0 121.4 L175.2 121.5 L175.3 121.6 L175.3 121.9 L175.5 122.0 L175.7 122.2 L175.9 122.4 L175.9 122.5 L175.9 122.5 L175.9 122.6 L175.9 122.7 L175.9 122.8 L175.9 122.9 L176.5 123.5 L176.5 123.7 L176.5 123.8 L176.4 124.0 L176.4 124.1 L176.5 124.3 L176.7 124.9 L176.7 125.0 L176.9 125.1 L177.0 125.0 L177.3 124.7 L177.8 124.3 L177.9 124.1 L178.0 123.7 L178.0 123.6 L178.2 123.5 L178.2 123.8 L178.4 123.9 L178.6 124.0 L178.7 124.2 L178.7 124.4 L178.7 124.7 L178.6 125.1 L178.6 125.3 L178.3 125.5 L178.2 125.7 L178.2 125.8 L178.2 126.0 L178.2 126.2 L178.1 126.3 L177.9 126.5 L177.9 126.6 L177.7 126.6 L177.7 126.5 L177.6 126.5 L177.5 126.4 L177.0 126.4 L176.9 126.4 L176.7 126.5 L176.6 126.6 L176.6 126.8 L176.4 126.9 L176.4 127.0 L176.3 127.0 L176.2 127.1 L176.1 127.1 L176.0 127.0 L175.9 127.0 L175.8 127.0 L175.7 127.0 L175.8 127.2 L176.0 127.5 L176.1 127.6 L176.0 127.8 L175.9 128.1 L175.9 128.3 L176.0 128.7 L176.0 128.8 L175.7 129.7 L175.7 129.9 L175.7 130.2 L175.7 130.3 L175.7 130.8 L175.9 132.0 L175.9 132.5 L175.9 132.9 L175.6 133.1 L175.6 132.9 L175.5 132.8 L175.3 132.7 L175.1 132.6 L175.0 132.7 L174.8 132.8 L174.5 132.8 L174.5 132.9 L174.5 132.9 L174.5 133.1 L174.5 133.1 L174.5 133.2 L174.4 133.2 L174.4 133.2 L174.4 133.3 L174.3 133.3 L174.3 133.4 L174.3 133.4 L174.4 133.4 L174.4 133.4 L174.5 133.5 L174.5 133.6 L174.4 133.7 L174.4 133.7 L174.3 133.6 L174.0 133.5 L173.8 133.4 L173.6 133.4 L173.5 133.4 L173.2 133.8 L173.1 133.9 L173.0 134.0 L172.9 134.0 L172.6 134.0 L172.6 134.1 L172.6 134.1 L172.7 134.2 L172.8 134.3 L172.7 134.5 L172.5 134.8 L172.5 135.0 L172.6 135.2 L172.8 135.4 L172.8 135.4 L172.9 135.6 L172.8 135.7 L172.8 135.8 L172.8 135.8 L172.8 135.9 L172.8 135.9 L172.8 136.0 L173.0 136.3 L173.0 136.5 L173.0 136.8 L173.0 137.0 L173.0 137.0 L173.1 137.1 L173.2 137.2 L173.2 137.2 L173.1 137.3 L173.2 137.5 L173.6 138.2 L174.7 139.1 L174.8 139.3 L174.8 139.5 L174.9 139.7 L175.0 139.8 L175.1 139.9 L175.2 139.9 L175.8 141.1 L176.1 141.6 L176.2 141.6 L176.3 141.7 L176.4 141.7 L176.5 141.7 L176.6 141.8 L176.6 141.8 L176.7 142.0 L176.8 142.0 L176.9 142.0 L177.0 142.0 L177.1 142.0 L177.3 142.4 L177.5 142.6 L178.5 143.3 L178.7 143.4 L178.9 143.4 L179.0 143.5 L179.1 143.7 L179.1 143.9 L179.2 144.0 L179.4 144.3 L179.5 144.5 L179.6 144.7 L179.7 144.8 L180.0 145.0 L180.0 145.0 L180.0 145.1 L180.1 145.2 L180.1 145.2 L180.2 145.3 L180.3 145.3 L180.3 145.3 L180.3 145.4 L180.3 145.5 L180.3 145.6 L180.3 145.7 L180.4 146.1 L180.5 146.3 L180.7 146.5 L180.8 146.6 L180.8 146.7 L180.8 146.9 L180.8 147.1 L180.8 147.8 L181.1 149.1 L181.1 149.2 L181.1 149.7 L181.1 149.8 L181.1 149.9 L181.1 150.0 L181.0 150.1 L181.0 150.1 L181.0 150.2 L181.1 150.6 L181.2 150.7 L181.1 150.9 L181.1 150.9 L181.0 151.0 L180.7 151.0 L180.5 151.1 L180.4 151.2 L180.4 151.4 L180.4 151.6 L180.4 151.8 L180.3 152.0 L180.3 152.2 L180.3 152.3 L180.5 152.5 L180.7 152.6 L180.8 152.7 L180.9 152.9 L181.0 153.0 L180.9 153.1 L180.9 153.2 L180.9 153.3 L180.8 153.4 L180.9 153.5 L181.0 153.7 L181.0 154.0 L181.0 154.1 L181.1 154.2 L181.3 154.3 L181.3 154.4 L181.4 154.6 L181.3 154.7 L181.4 154.9 L181.4 155.0 L181.5 155.1 L181.7 155.1 L181.8 155.2 L181.8 155.2 L181.9 155.4 L181.9 155.5 L182.0 155.5 L182.2 155.6 L182.2 155.6 L182.3 155.7 L182.4 155.8 L182.5 155.9 L182.9 156.1 L182.9 156.2 L183.0 156.3 L183.0 156.4 L183.0 156.6 L183.0 156.8 L182.9 156.9 L182.8 157.1 L182.8 157.2 L182.8 157.3 L183.0 157.7 L183.1 157.9 L183.1 158.3 L183.1 158.5 L183.2 158.6 L183.3 158.7 L183.4 158.8 L183.4 158.9 L183.4 159.1 L183.4 159.2 L183.4 159.3 L183.5 159.4 L183.5 159.5 L183.5 159.6 L183.5 159.7 L183.4 159.8 L183.3 159.8 L183.4 160.0 L183.5 160.0 L184.0 159.9 L184.0 159.9 L184.1 159.9 L184.1 160.0 L184.1 160.0 L184.1 160.1 L184.1 160.2 L183.9 160.6 L183.9 160.9 L184.0 161.0 L184.2 161.0 L184.3 161.1 L184.4 161.3 L184.4 161.4 L184.2 161.8 L184.2 162.0 L184.3 162.1 L184.4 162.3 L184.5 162.4 L184.7 162.5 L184.8 162.5 L184.9 162.6 L184.7 163.2 L184.7 163.4 L184.1 164.1 L184.0 164.2 L183.7 164.2 L183.5 164.2 L183.3 164.3 L183.3 164.5 L183.3 164.7 L183.3 165.0 L183.2 165.1 L183.2 165.3 L183.1 165.4 L182.8 165.7 L182.7 165.8 L182.7 166.0 L182.7 166.2 L182.6 166.3 L182.3 166.7 L182.2 166.8 L182.1 167.1 L182.0 167.3 L181.7 167.6 L181.6 167.8 L181.3 168.6 L181.3 168.6 L181.1 168.7 L181.0 168.7 L181.0 168.8 L180.9 169.0 L180.8 169.1 L180.7 169.2 L180.7 169.2 L180.3 169.4 L180.2 169.5 L180.2 169.6 L180.1 169.8 L180.0 169.9 L179.9 169.9 L179.8 169.9 L179.8 169.9 L179.6 169.9 L179.6 169.8 L179.6 169.8 L179.5 169.9 L179.4 170.0 L179.4 170.1 L179.4 170.2 L179.4 170.3 L179.4 170.4 L179.5 170.5 L179.5 170.7 L179.4 170.8 L179.4 170.9 L179.3 171.0 L179.3 171.0 L179.0 171.1 L178.9 171.1 L178.8 171.1 L178.8 171.0 L178.6 171.1 L178.6 171.2 L178.5 171.3 L178.5 171.3 L178.4 171.4 L178.4 171.4 L178.2 171.4 L178.1 171.5 L178.0 171.6 L177.6 172.1 L177.5 172.3 L177.4 172.7 L177.5 172.8 L177.6 172.9 L177.7 173.0 L177.8 173.5 L177.8 173.7 L177.7 174.0 L177.6 174.4 L177.4 174.9 L177.4 175.0 L177.3 175.0 L177.3 175.1 L177.2 175.3 L177.1 175.7 L177.0 176.0 L176.9 176.1 L176.7 176.3 L176.6 176.6 L176.1 177.5 L175.9 177.9 L175.7 178.0 L175.6 177.9 L175.6 177.8 L175.6 177.7 L175.5 177.7 L175.5 177.6 L175.5 177.4 L175.5 177.3 L175.5 177.0 L175.5 176.7 L175.3 176.4 L175.3 176.3 L175.3 176.2 L175.3 176.2 L175.4 175.8 L175.5 175.7 L175.5 175.3 L175.6 175.0 L175.6 174.8 L175.5 174.3 L175.3 174.1 L175.3 173.9 L175.4 173.6 L175.3 173.2 L175.0 172.6 L175.0 172.2 L175.0 171.9 L175.0 171.8 L175.2 171.7 L175.3 171.7 L175.4 171.8 L175.6 172.1 L175.7 172.0 L175.7 171.9 L175.6 171.7 L175.5 171.7 L175.6 171.6 L175.7 171.6 L175.8 171.7 L175.9 171.8 L175.9 171.6 L176.0 171.4 L176.0 171.3 L176.2 171.1 L176.2 171.0 L176.2 170.9 L176.3 170.9 L176.3 170.8 L176.4 170.8 L176.5 170.7 L176.4 170.7 L176.2 170.7 L176.1 170.7 L176.0 170.6 L176.0 170.5 L176.0 170.5 L176.3 170.4 L176.4 170.3 L176.5 170.2 L176.6 170.2 L176.6 170.2 L176.7 170.3 L176.8 170.3 L176.8 170.3 L176.9 170.2 L177.1 170.2 L177.1 170.2 L177.1 170.1 L177.2 170.0 L177.2 169.8 L177.1 169.7 L177.2 169.6 L177.2 169.6 L177.0 169.5 L177.0 169.4 L177.0 169.3 L177.0 169.3 L177.1 169.3 L177.2 169.2 L177.2 169.1 L177.2 169.0 L177.1 168.8 L177.1 168.7 L176.9 168.7 L176.8 168.6 L176.7 168.4 L177.1 168.3 L177.2 168.2 L177.3 168.0 L177.3 167.7 L177.4 167.5 L177.5 167.3 L177.5 167.3 L177.5 167.2 L177.4 167.1 L177.3 166.7 L177.2 166.5 L177.2 166.4 L177.3 166.2 L177.1 166.3 L177.0 166.2 L177.1 165.9 L177.2 165.8 L177.3 165.7 L177.7 165.7 L177.6 165.6 L177.6 165.2 L177.5 165.1 L177.4 165.1 L177.3 165.1 L177.2 165.1 L177.2 165.0 L177.3 164.9 L177.2 164.8 L177.3 164.7 L177.3 164.5 L177.3 164.2 L177.3 164.1 L177.4 163.9 L177.5 163.8 L177.6 163.8 L177.7 163.7 L177.8 163.7 L177.8 163.8 L177.9 163.8 L178.0 163.8 L178.0 163.7 L178.0 163.6 L178.1 163.5 L178.2 163.5 L178.3 163.5 L178.5 163.6 L178.6 163.7 L178.6 163.7 L178.5 163.4 L177.9 163.3 L177.7 163.1 L177.8 162.9 L178.0 162.7 L178.1 162.5 L177.9 162.3 L178.0 162.5 L178.0 162.6 L177.9 162.6 L177.8 162.7 L177.6 163.1 L177.6 163.1 L177.4 163.1 L177.4 163.1 L177.4 163.1 L177.3 163.2 L177.2 163.3 L177.1 163.3 L177.1 163.4 L177.1 163.5 L177.1 163.6 L177.0 163.7 L176.9 163.7 L176.8 163.7 L176.6 163.6 L176.3 163.4 L176.3 163.3 L176.3 163.3 L176.2 163.1 L176.2 163.1 L176.2 163.0 L176.3 162.8 L176.4 162.8 L176.4 162.8 L176.5 162.8 L176.5 162.7 L176.2 162.7 L176.4 162.5 L176.4 162.5 L176.5 162.5 L176.5 162.5 L176.6 162.5 L176.6 162.5 L176.7 162.4 L176.8 162.2 L176.9 162.1 L177.1 162.1 L177.0 162.0 L176.8 162.0 L176.5 162.1 L175.8 162.1 L175.8 161.9 L176.0 161.9 L176.4 161.9 L176.6 161.8 L176.7 161.7 L176.9 161.6 L177.0 161.5 L177.1 161.4 L177.2 161.4 L177.2 161.4 L177.2 161.1 L177.2 161.0 L177.1 160.9 L177.1 160.8 L177.1 160.7 L177.1 160.5 L176.7 160.6 L176.7 160.5 L176.6 160.4 L176.5 160.3 L176.5 160.2 L176.5 160.1 L176.5 160.0 L176.4 160.0 L176.5 159.8 L176.5 159.8 L176.6 159.8 L176.8 159.7 L176.8 159.7 L176.7 159.7 L176.8 159.6 L177.0 159.5 L177.1 159.4 L177.1 159.3 L177.1 159.2 L177.1 159.1 L177.0 159.0 L176.7 159.1 L176.5 159.2 L176.4 159.3 L176.2 159.4 L176.1 159.4 L175.9 159.4 L175.9 159.3 L175.7 159.2 L175.7 159.0 L175.7 158.9 L175.8 158.7 L175.9 158.6 L176.1 158.6 L176.8 158.4 L177.0 158.3 L177.1 158.2 L177.0 158.0 L176.9 157.9 L176.6 157.8 L176.4 157.6 L176.4 157.6 L176.3 157.6 L176.2 157.5 L176.3 157.3 L176.3 157.1 L176.3 157.0 L176.4 156.9 L176.6 156.9 L176.9 156.9 L177.0 156.9 L177.1 156.8 L177.1 156.8 L177.1 156.7 L177.0 156.7 L176.9 156.7 L176.8 156.6 L176.7 156.6 L176.6 156.6 L176.5 156.6 L176.5 156.6 L176.4 156.4 L176.5 156.2 L176.6 156.0 L176.6 155.8 L176.7 155.8 L176.7 155.8 L176.8 155.8 L176.8 155.8 L176.8 155.8 L176.7 155.6 L176.8 155.4 L176.8 155.3 L176.9 155.2 L176.9 155.2 L177.0 155.1 L177.0 155.0 L176.9 155.0 L176.7 155.0 L176.6 155.0 L176.5 155.0 L176.5 154.9 L176.6 154.8 L176.6 154.8 L176.7 154.8 L176.8 154.8 L176.9 154.7 L176.8 154.7 L176.4 154.7 L176.3 154.6 L176.3 154.5 L176.4 154.6 L176.4 154.5 L176.5 154.5 L176.5 154.5 L176.6 154.5 L176.6 154.4 L176.5 153.7 L176.4 153.6 L176.2 153.4 L176.1 153.3 L176.2 153.2 L176.2 153.1 L176.3 153.1 L176.3 153.0 L176.2 152.7 L176.1 152.5 L176.1 152.4 L176.0 152.1 L176.0 152.0 L176.1 152.0 L176.1 151.7 L176.0 151.1 L175.9 151.0 L175.8 150.9 L175.4 150.6 L175.3 150.3 L175.3 150.2 L175.2 150.3 L175.1 150.2 L175.1 150.1 L175.1 150.0 L175.1 149.9 L175.0 149.7 L175.0 149.6 L175.1 149.5 L175.1 149.4 L175.1 149.4 L175.1 149.2 L175.1 149.2 L175.0 149.3 L175.0 149.5 L175.0 149.3 L174.9 149.2 L174.9 149.1 L174.8 149.0 L174.8 149.0 L174.7 149.0 L174.7 148.9 L174.7 148.8 L174.7 148.8 L174.8 148.7 L174.8 148.6 L174.7 148.5 L174.5 148.3 L174.5 148.1 L174.4 148.0 L174.3 148.0 L174.2 147.9 L174.2 147.8 L174.1 147.7 L174.0 147.6 L174.0 147.5 L173.7 147.0 L173.6 146.8 L173.6 146.9 L173.7 146.8 L173.5 146.7 L173.3 146.7 L173.2 146.7 L173.2 146.4 L173.3 146.1 L173.3 146.0 L173.3 145.8 L173.2 145.7 L173.2 145.6 L173.3 145.5 L173.2 145.4 L173.1 145.0 L173.1 144.6 L173.1 144.5 L173.1 144.4 L173.1 144.4 L173.1 144.3 L173.1 144.2 L173.0 144.1 L172.9 144.0 L172.8 143.9 L172.8 143.7 L172.7 143.7 L172.7 143.8 L172.7 144.0 L172.7 144.1 L172.7 144.1 L172.8 144.3 L172.8 144.3 L172.8 144.6 L172.8 144.7 L172.7 144.8 L172.7 144.9 L172.8 145.2 L172.8 145.4 L172.8 145.5 L172.7 145.8 L172.7 146.5 L172.8 146.9 L172.8 147.0 L172.8 147.2 L172.7 147.3 L172.7 147.4 L172.7 147.4 L172.6 147.5 L172.6 147.6 L172.6 147.7 L172.6 147.8 L172.6 147.9 L172.7 148.0 L172.7 148.1 L172.7 148.2 L172.6 148.1 L172.5 148.1 L172.4 148.0 L172.4 148.0 L172.4 148.1 L172.4 148.2 L172.3 148.1 L172.3 147.9 L172.3 147.8 L172.3 147.8 L172.2 147.8 L172.3 147.7 L172.4 147.6 L172.4 147.6 L172.4 147.5 L172.3 147.4 L172.3 147.4 L172.4 147.4 L172.5 147.3 L172.5 147.1 L172.4 147.0 L172.6 147.0 L172.6 146.9 L172.5 146.9 L172.4 146.8 L172.2 146.8 L172.1 146.8 L172.0 146.8 L172.0 146.7 L172.1 146.6 L172.1 146.5 L171.9 146.4 L171.8 146.2 L171.9 146.0 L172.1 146.0 L172.0 145.6 L172.0 145.3 L172.1 145.2 L172.1 145.1 L172.0 145.0 L172.0 145.0 L171.9 145.0 L171.9 144.9 L171.8 144.9 L171.8 144.7 L171.7 144.3 L171.7 144.2 L171.7 144.0 L171.9 143.7 L172.0 143.6 L172.0 143.5 L172.1 143.3 L172.1 143.2 L172.1 143.1 L172.0 142.8 L172.1 142.8 L172.0 142.7 L172.0 142.6 L171.9 142.6 L171.9 142.7 L171.5 142.2 L171.3 141.7 L171.1 141.5 L171.0 141.3 L171.0 141.1 L171.0 140.9 L171.0 140.7 L171.1 140.5 L171.1 140.3 L171.1 140.4 L171.0 140.5 L170.9 140.5 L170.9 140.5 L170.8 140.4 L170.7 140.0 L170.5 139.6 L170.4 139.3 L170.5 139.1 L170.3 139.0 L170.2 138.7 L170.2 138.5 L170.3 138.3 L170.7 138.2 L170.9 138.4 L171.1 138.7 L171.4 138.8 L171.1 138.4 L171.0 138.2 L171.1 138.2 L171.0 138.1 L170.9 138.1 L170.8 138.0 L170.9 137.8 L170.9 137.8 L170.8 137.7 L170.8 137.6 L170.7 137.6 L170.7 137.5 L170.7 137.6 L170.6 137.7 L170.6 137.7 L170.7 137.7 L170.7 137.8 L170.7 137.8 L170.6 137.9 L170.5 137.9 L170.4 137.7 L170.3 137.5 L170.3 137.5 L170.3 137.7 L170.3 138.1 L170.3 138.1 L170.2 138.1 L170.2 138.2 L170.1 138.2 L170.0 138.2 L169.9 138.2 L169.9 138.2 L169.9 138.1 L169.8 138.1 L169.6 137.1 L169.4 136.9 L169.4 136.9 L169.5 136.8 L169.5 136.7 L169.5 136.5 L169.5 136.4 L169.6 136.3 L169.6 136.2 L169.6 136.0 L169.5 135.9 L169.4 135.8 L169.2 135.7 L169.3 135.6 L169.4 135.6 L169.4 135.6 L169.5 135.6 L169.5 135.5 L169.5 135.4 L169.4 135.4 L169.5 135.2 L169.6 135.0 L169.5 134.4 L169.6 134.2 L169.7 134.1 L169.4 134.1 L169.3 134.1 L169.2 134.0 L169.0 133.6 L169.0 133.5 L169.0 133.4 L169.0 133.2 L168.9 133.1 L168.8 133.0 L168.9 132.9 L168.9 132.9 L169.0 132.8 L169.0 132.8 L169.1 132.5 L169.2 132.6 L169.3 132.5 L169.4 132.4 L169.4 132.3 L169.1 131.7 L169.1 131.6 L169.2 131.4 L169.2 131.3 L169.0 130.8 L169.0 130.7 L169.0 130.7 L169.0 130.6 L169.0 130.5 L169.0 130.5 L169.0 130.4 L169.0 130.3 L168.9 130.1 L168.9 130.0 L168.8 130.0 L168.9 129.9 L168.9 129.8 L168.9 129.7 L168.9 129.7 L168.8 129.5 L168.7 129.5 L168.7 129.4 L168.8 129.4 L168.8 129.3 L168.9 128.8 L168.8 128.6 L168.7 128.6 L168.7 128.4 L168.6 128.2 L168.1 127.9 L167.9 127.6 L167.6 127.4 L167.6 127.3 L167.6 127.3 L167.5 126.9 L167.5 126.8 L167.5 126.8 L167.6 126.7 L167.7 126.7 L167.8 126.7 L167.9 126.5 L167.9 126.4 L168.1 125.4 L168.2 125.3 L168.2 125.2 L168.2 125.1 L168.2 125.0 L168.1 124.8 L168.0 124.5 L168.0 124.1 L168.0 123.8 L168.1 123.4 L168.2 123.2 L168.4 123.0 L168.7 122.8 L169.0 122.7 L169.0 122.7 L168.9 122.7 L168.9 122.6 L168.8 122.6 L168.7 122.6 L168.7 122.6 L168.2 122.9 L168.0 123.0 L167.9 123.0 L167.3 122.9 L167.1 122.9 L166.9 123.0 L166.9 123.0 L166.9 123.0 L166.8 123.1 L166.7 123.1 L166.7 123.1 L166.6 123.0 L166.5 123.0 L166.3 123.0 L166.1 123.1 L166.0 123.2 L165.9 123.4 L165.6 122.1 L165.6 121.9 L165.5 121.7 L165.4 122.0 L165.1 121.9 L164.9 121.6 L164.8 121.3 L164.7 121.0 L164.7 120.7 L164.8 120.6 L164.7 120.5 L164.7 120.4 L164.7 120.3 L164.8 120.1 L164.7 120.1 L164.6 120.3 L164.6 120.4 L164.6 120.5 L164.5 120.4 L164.5 120.3 L164.5 120.2 L164.5 120.1 L164.6 119.9 L164.5 119.8 L164.4 119.8 L164.3 119.9 L164.3 119.7 L164.3 119.5 L164.4 119.1 L164.4 118.9 L164.4 118.8 L164.2 118.7 L164.2 118.6 L164.1 118.5 L164.1 118.4 L164.1 118.3 L164.2 118.1 L164.4 118.1 L164.7 118.2 L164.9 118.1 L164.6 118.0 L164.4 117.9 L164.3 117.9 L164.1 117.9 L164.0 118.0 L163.9 118.2 L163.8 118.4 L163.7 118.2 L163.6 117.9 L163.5 117.6 L163.7 117.5 L163.7 117.4 L163.5 117.4 L163.4 117.3 L163.4 117.1 L163.3 116.9 L163.1 116.8 L162.9 116.8 L162.8 116.7 L162.9 116.5 L161.9 115.9 L161.9 115.8 L161.8 115.7 L161.8 115.6 L161.8 115.3 L161.8 115.2 L161.7 115.3 L161.6 115.6 L161.5 115.8 L161.5 115.7 L161.4 115.6 L161.4 115.6 L161.4 115.6 L161.3 115.6 L161.3 115.7 L161.2 115.7 L161.3 115.8 L161.5 116.0 L161.8 116.2 L162.0 116.4 L162.0 116.6 L161.8 116.8 L161.6 117.0 L161.5 117.2 L161.5 117.6 L161.9 118.2 L162.0 118.5 L162.0 118.8 L161.9 118.9 L161.8 119.2 L161.7 119.6 L161.6 119.6 L161.4 119.6 L161.4 119.6 L161.4 119.7 L161.5 119.8 L161.5 119.9 L161.4 119.8 L161.2 119.8 L161.1 119.8 L161.1 119.9 L161.2 119.9 L161.3 120.0 L161.4 120.1 L161.5 120.2 L161.4 120.3 L161.3 120.5 L161.3 120.7 L161.2 121.0 L161.0 121.0 L161.0 121.1 L161.0 121.2 L161.1 121.2 L160.9 121.4 L160.8 121.6 L160.4 121.8 L160.4 121.9 L160.2 122.1 L160.0 122.6 L159.7 122.9 L159.5 123.1 L159.0 123.3 L158.5 123.4 L158.0 123.4 L157.7 123.2 L157.5 123.2 L157.3 123.1 L156.8 122.7 L156.6 122.5 L156.6 122.4 L156.6 122.2 L156.5 122.1 L156.5 121.9 L156.3 121.6 L156.3 121.4 L156.2 121.2 L156.2 121.0 L156.3 120.9 L156.6 120.7 L156.7 120.6 L156.5 120.6 L156.1 120.9 L155.8 121.0 L155.8 121.0 L156.0 121.2 L156.0 121.3 L156.0 121.6 L156.1 121.7 L156.4 122.0 L156.4 122.1 L156.4 122.2 L156.3 122.4 L156.3 122.5 L156.3 122.6 L156.4 122.8 L156.8 123.3 L156.9 123.5 L157.1 123.6 L157.2 123.7 L157.0 123.9 L156.9 124.0 L156.7 124.4 L156.2 124.5 L155.7 124.6 L155.5 124.7 L155.3 124.7 L155.1 124.7 L155.1 124.5 L155.0 124.4 L154.4 124.2 L154.9 124.6 L154.9 124.8 L154.5 125.3 L154.2 125.6 L154.0 125.6 L153.8 125.6 L153.8 125.5 L153.9 125.4 L153.9 125.3 L153.8 125.4 L153.7 125.5 L153.6 125.7 L153.3 125.7 L153.4 125.6 L153.4 125.4 L152.8 126.0 L152.6 126.2 L152.5 126.3 L152.3 126.2 L152.2 126.1 L152.2 126.0 L152.2 125.8 L152.1 125.6 L152.0 125.6 L152.1 126.4 L152.0 126.5 L151.8 126.9 L151.7 127.0 L151.7 127.4 L151.7 127.5 L151.5 127.9 L150.3 129.1 L149.8 129.5 L149.6 129.7 L149.4 129.8 L149.3 129.8 L149.1 129.8 L148.5 129.8 L148.4 129.7 L148.3 129.6 L148.3 128.8 L148.4 128.7 L148.5 128.7 L148.5 128.6 L148.6 128.4 L148.6 128.3 L148.8 128.1 L148.9 127.8 L149.0 127.6 L149.0 127.3 L149.0 127.1 L149.0 127.0 L148.9 126.7 L148.8 126.6 L148.9 126.5 L148.9 126.4 L149.0 126.2 L148.9 126.2 L148.8 126.3 L148.8 126.3 L148.7 126.4 L148.7 126.5 L148.7 126.7 L148.8 126.9 L148.9 127.1 L148.8 127.5 L148.8 127.6 L148.5 127.9 L148.4 128.3 L148.2 128.5 L148.0 128.5 L147.9 128.3 L148.0 128.2 L148.1 127.9 L148.2 127.7 L148.2 127.4 L147.9 127.9 L147.8 128.1 L147.7 128.4 L147.8 129.0 L147.7 129.2 L147.4 129.3 L147.1 129.2 L147.0 129.0 L146.9 128.7 L146.9 128.3 L147.1 127.4 L147.0 127.1 L146.8 127.6 L146.7 127.2 L146.8 126.9 L147.1 126.6 L147.4 126.5 L147.7 126.5 L147.7 126.5 L147.8 126.4 L147.8 126.4 L147.7 126.4 L147.6 126.4 L147.5 126.4 L147.5 126.3 L147.5 126.3 L147.4 126.3 L147.3 126.3 L147.2 126.3 L147.2 126.3 L147.1 126.3 L147.1 126.2 L147.0 126.2 L146.9 126.3 L146.7 126.7 L146.5 126.8 L146.5 127.0 L146.5 127.5 L146.5 127.7 L146.4 128.7 L146.3 128.9 L146.2 129.1 L146.1 129.1 L146.0 129.1 L145.9 129.2 L145.9 129.2 L145.8 129.3 L145.8 129.3 L145.8 129.4 L145.7 129.4 L145.5 129.4 L145.4 129.4 L145.1 129.3 L144.7 129.3 L144.6 129.2 L144.7 129.0 L144.8 129.0 L144.9 128.9 L145.0 128.9 L145.1 128.8 L145.0 128.7 L145.0 128.6 L145.0 128.6 L144.9 128.6 L144.8 128.7 L144.7 128.8 L144.6 128.6 L144.7 128.3 L144.6 128.2 L144.5 128.0 L144.5 127.9 L144.6 127.8 L144.7 127.6 L144.8 127.5 L144.8 127.5 L145.0 127.4 L145.1 127.4 L145.3 127.3 L145.3 127.1 L145.0 127.3 L144.9 127.1 L144.9 126.8 L144.8 126.5 L144.8 126.4 L144.8 126.2 L145.0 126.0 L145.1 125.9 L145.2 125.8 L145.4 125.8 L145.6 125.7 L145.7 125.6 L145.8 125.5 L145.9 125.3 L145.8 125.4 L145.7 125.5 L145.7 125.5 L145.6 125.6 L145.4 125.6 L145.3 125.7 L145.1 125.7 L145.0 125.7 L144.8 126.0 L144.8 126.0 L144.7 126.1 L144.7 126.3 L144.6 126.6 L144.7 126.7 L144.7 126.9 L144.8 127.0 L144.8 127.0 L144.8 127.1 L144.8 127.1 L144.7 127.3 L144.7 127.3 L144.6 127.4 L144.1 127.8 L144.0 127.9 L143.8 128.4 L143.7 128.5 L143.6 128.6 L143.4 128.7 L143.3 128.7 L143.0 128.7 L143.0 128.5 L142.9 128.4 L142.9 128.2 L142.8 128.4 L142.7 128.4 L142.6 128.2 L142.6 128.1 L142.8 128.0 L143.1 127.8 L143.4 127.6 L143.7 127.3 L143.7 126.9 L143.8 126.8 L143.9 126.7 L144.0 126.7 L144.0 126.6 L144.0 126.5 L144.0 126.3 L144.0 126.3 L144.1 126.3 L144.2 126.2 L144.2 126.1 L144.0 126.2 L144.0 126.3 L143.8 126.5 L143.6 126.9 L143.5 127.1 L143.4 127.3 L143.3 127.4 L143.2 127.5 L142.7 127.9 L142.5 128.0 L142.3 128.0 L142.2 127.8 L142.5 127.5 L142.9 127.1 L143.1 126.8 L143.2 126.4 L143.3 126.0 L143.3 125.7 L143.1 125.4 L143.1 125.3 L143.2 125.1 L143.3 125.0 L143.4 124.5 L143.5 124.4 L143.6 124.4 L143.7 124.4 L143.7 124.3 L143.6 124.3 L143.4 123.5 L143.4 123.4 L143.5 123.3 L143.5 123.2 L143.6 123.2 L143.7 123.1 L143.7 123.0 L143.4 123.2 L143.3 123.1 L143.2 123.0 L143.1 123.2 L143.3 123.9 L143.3 124.4 L143.2 124.5 L143.0 124.7 L143.0 124.8 L142.9 125.1 L142.8 125.3 L142.6 125.4 L142.4 125.5 L142.4 125.4 L142.5 125.3 L142.7 125.0 L142.9 124.7 L142.8 124.5 L142.7 124.6 L142.6 124.7 L142.5 125.0 L142.5 125.1 L142.4 125.1 L142.3 125.2 L142.2 125.1 L142.2 125.1 L142.1 125.0 L142.1 125.0 L141.9 125.0 L141.8 125.0 L141.9 125.4 L141.9 125.6 L141.8 125.7 L141.8 125.8 L141.3 126.6 L141.1 126.8 L140.8 126.9 L140.7 127.0 L140.5 127.0 L140.5 127.2 L140.4 127.4 L140.4 127.5 L140.2 127.5 L140.0 127.5 L139.9 127.5 L139.7 127.6 L139.6 127.7 L139.5 127.6 L139.3 127.3 L139.3 127.2 L139.3 127.1 L139.3 126.1 L139.5 125.1 L139.5 124.5 L139.5 124.4 L139.5 124.4 L139.6 124.2 L139.7 124.2 L139.8 123.5 L139.8 123.0 L139.8 122.9 L140.1 123.0 L140.3 123.0 L140.4 122.8 L140.4 122.6 L140.4 122.5 L140.3 122.4 L140.3 122.3 L140.5 122.2 L140.6 122.1 L140.6 121.7 L140.6 121.5 L140.7 121.3 L140.7 121.2 L140.7 121.1 L140.9 120.9 L140.9 120.8 L140.9 120.5 L140.8 120.3 L140.7 120.1 L140.7 120.0 L140.7 119.9 L140.8 119.8 L140.9 119.8 L141.0 119.9 L141.1 119.9 L141.2 119.8 L141.4 119.5 L141.2 119.5 L141.3 119.3 L141.4 119.2 L141.4 118.6 L141.4 118.5 L141.4 118.4 L141.5 118.2 L141.6 118.1 L141.6 118.0 L141.6 117.8 L141.4 117.7 L141.3 117.6 L141.3 117.5 L141.4 117.4 L141.8 117.6 L141.9 117.6 L141.9 117.5 L142.0 117.5 L142.0 117.5 L142.1 117.4 L142.0 117.3 L141.9 117.3 L141.9 117.2 L141.8 117.2 L141.8 117.1 L141.8 116.7 L141.9 116.6 L142.0 116.6 L142.1 116.5 L142.1 116.3 L142.2 116.4 L142.3 116.4 L142.4 116.5 L142.5 116.6 L142.4 116.0 L142.3 115.1 L142.3 115.0 L142.3 114.9 L142.3 114.8 L142.3 114.7 L142.2 114.5 L142.2 114.5 L142.2 114.5 L142.2 114.4 L142.2 114.1 L142.4 114.2 L142.5 114.3 L142.7 114.4 L142.6 114.3 L142.5 114.0 L142.5 113.9 L142.5 113.9 L142.5 113.8 L142.3 113.6 L142.2 113.5 L142.2 113.3 L142.2 112.9 L142.1 112.7 L141.7 112.4 L141.6 112.2 L141.6 111.7 L141.6 111.4 L141.3 110.8 L141.2 110.7 L141.3 110.6 L141.6 110.5 L141.6 110.4 L141.7 110.2 L141.6 110.0 L141.6 109.8 L141.4 109.6 L141.4 109.5 L141.4 109.4 L141.4 109.3 L141.3 109.2 L141.2 109.1 L141.2 109.1 L141.1 108.8 L141.1 108.6 L140.9 108.5 L140.5 108.6 L140.4 108.5 L140.3 108.4 L140.3 108.4 L140.3 108.3 L140.3 108.1 L140.3 108.1 L140.4 108.0 L140.5 108.2 L140.6 108.1 L140.7 108.2 L140.8 108.2 L140.8 108.2 L140.9 108.0 L141.0 108.0 L140.9 107.8 L140.9 107.7 L140.8 107.6 L140.6 107.5 L140.5 107.5 L140.4 107.3 L140.4 107.2 L140.3 107.0 L139.9 106.6 L139.7 106.3 L139.6 106.1 L139.7 106.1 L139.7 106.0 L139.6 105.3 L139.6 105.2 L138.8 104.5 L138.8 104.4 L138.8 104.4 L139.0 104.5 L139.3 104.5 L139.9 104.4 L139.7 104.4 L139.6 104.3 L139.4 104.4 L139.3 104.4 L139.0 104.0 L138.8 103.7 L138.7 103.6 L138.8 103.3 L138.7 103.4 L138.6 103.5 L138.6 103.6 L138.6 103.7 L138.5 103.8 L138.3 103.7 L138.2 103.6 L138.1 103.5 L138.0 103.5 L138.0 103.5 L137.8 103.4 L137.8 103.1 L137.8 102.9 L138.0 102.7 L137.8 102.5 L137.8 102.3 L137.9 102.2 L137.9 102.1 L138.0 102.0 L138.0 101.9 L138.1 101.9 L138.1 101.8 L138.0 101.7 L138.0 101.7 L138.2 101.5 L138.3 101.5 L138.2 101.5 L138.0 101.5 L137.9 101.5 L137.8 101.5 L137.8 101.4 L137.8 101.3 L137.8 101.2 L137.8 101.1 L137.8 100.9 L137.8 100.8 L137.8 100.7 L137.9 100.5 L138.0 100.3 L137.9 99.6 L137.9 99.5 L138.0 99.4 L138.1 99.3 L138.1 99.1 L138.1 98.9 L138.0 99.2 L137.8 99.6 L137.7 99.8 L137.8 100.2 L137.8 100.5 L137.7 100.6 L137.6 100.7 L137.5 100.9 L137.3 101.0 L137.1 100.9 L137.0 100.8 L137.0 100.6 L137.0 100.5 L136.9 100.4 L136.8 100.5 L136.8 100.6 L136.8 100.7 L136.8 100.8 L137.1 101.0 L137.1 101.1 L137.1 101.2 L137.1 101.3 L137.1 101.4 L137.1 101.9 L137.2 102.1 L137.2 102.2 L137.4 102.4 L137.4 102.5 L137.4 102.6 L137.3 102.7 L137.3 102.8 L137.3 102.9 L137.1 103.1 L137.1 103.1 L137.0 103.1 L137.0 103.1 L137.0 103.2 L137.0 103.3 L137.0 103.3 L137.0 103.3 L136.9 103.4 L136.8 103.3 L136.7 103.2 L136.4 103.1 L135.9 102.7 L135.8 102.6 L135.4 102.5 L135.3 102.4 L135.2 102.3 L135.2 102.2 L135.1 102.1 L135.0 102.1 L134.9 102.0 L134.9 102.1 L134.8 102.0 L134.7 101.9 L134.7 101.8 L134.7 101.6 L134.7 101.6 L134.7 101.5 L134.6 101.4 L134.6 101.3 L134.6 101.2 L134.5 101.1 L134.2 100.8 L134.1 100.7 L133.9 100.3 L133.8 100.2 L133.3 99.6 L133.2 99.4 L133.2 99.3 L133.2 98.9 L133.2 98.8 L133.4 98.7 L133.6 98.6 L133.8 98.6 L133.8 98.6 L133.8 98.7 L133.9 98.8 L134.0 98.8 L134.2 98.8 L134.4 99.1 L134.5 99.3 L134.3 99.4 L134.7 99.6 L134.9 99.7 L135.1 99.7 L135.2 100.0 L135.4 100.1 L135.8 100.2 L136.1 100.2 L136.4 100.1 L136.9 99.7 L137.1 99.5 L137.1 99.5 L137.1 99.4 L137.1 99.3 L137.1 99.3 L137.2 99.3 L137.2 99.3 L137.4 99.1 L137.4 99.0 L137.4 98.8 L137.4 98.5 L137.4 98.4 L137.4 98.4 L137.4 98.3 L137.3 98.3 L137.1 98.4 L136.9 98.3 L136.8 98.2 L136.8 98.1 L137.0 98.1 L136.9 98.0 L136.8 98.0 L136.6 98.0 L136.5 98.0 L136.3 97.8 L136.0 97.6 L135.8 97.4 L135.7 97.2 L135.6 97.1 L135.3 97.0 L135.2 96.9 L135.3 96.7 L135.5 96.7 L135.6 96.6 L135.8 96.7 L135.8 96.5 L135.8 96.4 L136.0 96.3 L136.1 96.2 L135.9 96.0 L135.9 95.9 L135.8 96.2 L135.7 96.4 L135.5 96.5 L135.2 96.5 L135.2 96.4 L135.1 96.3 L135.1 96.2 L135.1 96.1 L135.1 96.0 L135.3 95.9 L135.4 95.8 L135.2 95.7 L135.1 95.9 L135.0 96.0 L134.9 96.1 L134.6 96.1 L134.5 96.0 L134.4 95.8 L134.3 96.0 L134.3 96.1 L134.2 96.2 L134.2 95.6 L134.2 95.5 L134.7 94.9 L134.8 94.8 L135.0 94.8 L135.3 94.8 L135.2 94.7 L135.2 94.6 L135.2 94.5 L135.4 94.5 L135.3 94.4 L135.3 94.4 L135.2 94.3 L135.1 94.3 L135.1 94.4 L135.1 94.5 L135.1 94.5 L134.6 94.5 L134.5 94.5 L134.5 94.6 L134.4 94.6 L134.2 94.6 L134.2 94.6 L134.2 94.7 L134.1 94.8 L134.0 94.8 L133.9 94.8 L133.8 94.7 L133.7 94.6 L133.7 94.6 L133.8 94.5 L133.9 94.5 L133.5 94.4 L133.5 94.3 L133.6 94.2 L133.4 94.2 L133.4 94.1 L133.4 94.0 L133.6 93.9 L133.6 93.9 L133.5 93.8 L133.4 93.9 L133.3 93.9 L133.3 94.0 L133.2 94.1 L133.2 94.1 L133.1 94.0 L133.1 93.9 L133.0 94.1 L132.9 94.2 L132.9 94.2 L132.8 94.2 L132.7 94.1 L132.6 94.0 L132.5 93.9 L132.5 93.7 L132.3 93.3 L132.3 93.1 L132.3 93.1 L132.3 93.4 L132.2 93.5 L132.1 93.6 L132.1 93.5 L132.0 92.9 L131.9 92.9 L131.8 93.1 L131.7 93.3 L131.6 93.3 L131.4 93.4 L131.2 93.4 L130.9 93.3 L130.7 93.3 L130.6 93.4 L130.5 93.3 L130.3 93.2 L130.2 93.1 L130.2 93.0 L130.2 93.2 L130.3 93.3 L130.4 93.6 L130.6 94.2 L131.1 95.1 L131.1 95.3 L130.9 95.2 L130.8 95.0 L130.6 94.5 L130.5 94.1 L130.3 93.8 L130.2 93.7 L130.0 93.9 L130.0 94.1 L130.0 94.4 L130.1 94.7 L130.2 95.0 L130.2 95.1 L130.3 95.2 L130.4 95.2 L130.4 95.2 L130.4 95.3 L130.5 95.4 L130.5 95.4 L130.4 95.2 L130.3 95.2 L130.2 95.2 L130.2 95.1 L130.0 94.9 L129.6 94.2 L129.5 94.1 L129.5 93.8 L129.4 93.7 L129.2 93.5 L129.0 93.2 L128.9 93.1 L128.9 93.1 L128.9 92.8 L128.9 92.7 L129.0 92.8 L129.5 92.7 L129.6 92.7 L129.6 92.6 L129.8 92.4 L129.8 92.4 L129.8 92.4 L129.8 92.5 L129.8 92.5 L129.9 92.5 L130.1 92.1 L130.1 92.0 L130.1 92.0 L129.9 92.0 L129.5 92.4 L129.3 92.5 L129.0 92.5 L129.0 92.2 L129.1 91.8 L129.3 91.6 L129.4 91.0 L129.6 90.9 L129.8 90.8 L129.9 90.6 L129.9 90.2 L129.8 90.3 L129.7 90.6 L129.6 90.8 L129.5 90.7 L129.4 90.6 L129.4 90.4 L129.4 90.2 L129.7 89.6 L129.8 89.3 L129.7 89.1 L129.7 89.3 L129.6 89.5 L129.5 89.7 L129.4 89.8 L129.3 90.0 L129.3 90.2 L129.3 90.7 L129.2 91.1 L129.1 91.4 L128.6 92.0 L128.2 92.7 L128.2 92.7 L128.2 92.7 L128.1 92.8 L128.0 92.8 L127.9 92.8 L127.9 92.7 L127.8 92.6 L127.3 92.2 L127.2 92.1 L127.2 92.0 L127.2 91.9 L127.3 91.7 L127.4 91.6 L128.0 91.3 L128.3 91.2 L128.6 91.1 L128.5 91.1 L128.5 91.0 L128.3 91.0 L128.2 91.0 L128.2 91.0 L128.2 90.9 L128.1 90.9 L127.9 90.7 L127.8 90.6 L127.8 90.5 L127.7 89.8 L127.6 89.6 L127.5 89.6 L127.4 89.5 L127.4 89.7 L127.3 89.9 L127.2 90.0 L127.1 89.8 L127.2 89.8 L127.2 89.8 L127.0 89.6 L126.9 89.4 L126.9 89.1 L126.8 88.8 L126.6 88.6 L126.3 88.1 L126.0 87.9 L126.2 88.3 L126.6 88.8 L126.6 88.9 L126.7 89.6 L126.9 90.1 L126.9 90.2 L126.8 90.6 L126.9 91.5 L126.8 91.6 L126.8 91.5 L126.6 91.3 L126.6 91.2 L126.2 90.3 L126.0 90.0 L125.2 89.4 L125.1 89.2 L125.1 88.8 L125.0 88.7 L124.6 88.4 L124.6 88.3 L124.6 88.2 L124.5 88.2 L124.4 88.2 L124.3 88.1 L124.1 88.0 L124.0 88.0 L123.9 87.9 L123.8 87.7 L123.7 87.4 L123.3 86.1 L123.1 85.9 L123.1 85.7 L123.0 85.0 L122.9 84.9 L122.6 84.6 L122.5 84.5 L122.5 84.4 L122.3 84.2 L122.2 84.1 L122.2 83.9 L122.2 83.8 L122.2 83.5 L122.2 83.4 L122.2 83.0 L122.2 82.9 L122.2 82.7 L122.5 82.4 L122.6 82.1 L122.7 81.9 L122.8 81.9 L123.1 81.9 L123.4 81.5 L123.7 81.6 L123.8 81.7 L123.8 81.9 L123.8 82.0 L123.9 82.2 L124.0 82.2 L124.1 82.3 L124.2 82.3 L124.6 82.4 L124.9 82.3 L125.1 82.4 L125.3 82.7 L125.3 83.0 L125.4 83.2 L125.5 83.3 L125.7 83.3 L125.9 83.2 L126.0 83.0 L126.1 82.9 L126.1 82.8 L126.1 82.7 L125.8 81.9 L125.7 81.4 L125.7 81.2 L125.5 79.2 L125.7 77.9 L125.7 77.7 L125.5 77.2 Z" fill="#172033" fill-rule="evenodd"/></svg>
