<svg xmlns="http://www.w3.org/2000/svg" viewBox="0 0 320 200" role="img"><path d="M258.2 127.5 L266.8 138.9 L269.0 152.8 L266.0 161.7 L258.2 158.2 L249.3 166.2 L246.5 171.0 L246.5 178.0 L237.4 175.0 L234.9 173.8 L215.3 172.2 L187.9 165.2 L163.5 154.3 L153.0 140.8 L151.2 139.1 L143.1 135.5 L141.4 132.8 L141.4 115.2 L138.9 95.1 L135.6 86.1 L129.7 80.3 L136.9 75.0 L144.2 71.4 L152.1 69.3 L161.1 68.6 L161.1 72.8 L155.9 73.6 L152.6 75.0 L145.2 80.3 L190.2 84.5 L199.6 87.5 L218.7 100.8 L235.3 105.6 L238.2 110.0 L238.8 115.7 L238.8 121.4 L241.8 121.9 L258.2 127.5 Z M92.5 22.0 L107.2 26.4 L125.6 35.9 L136.6 45.4 L129.7 49.5 L119.7 49.9 L104.4 55.5 L94.4 57.3 L83.9 56.7 L72.2 54.1 L61.0 50.2 L51.7 45.3 L53.5 39.2 L51.4 33.0 L51.0 28.2 L57.7 26.3 L92.5 22.0 Z" fill="#172033" fill-rule="evenodd"/></svg>
