<svg xmlns="http://www.w3.org/2000/svg" viewBox="0 0 320 200" role="img"><path d="M231.4 92.6 L230.9 99.5 L229.4 107.5 L226.3 116.4 L225.6 120.9 L227.3 125.3 L220.2 127.5 L212.1 133.5 L207.2 140.3 L209.4 145.1 L209.6 147.2 L211.2 149.7 L211.4 151.2 L210.4 153.9 L208.7 154.4 L206.9 154.4 L205.3 155.2 L201.4 161.8 L199.2 164.7 L195.6 167.1 L171.2 174.4 L146.7 178.0 L138.0 177.3 L124.4 173.2 L116.4 172.4 L110.3 175.0 L93.6 160.8 L89.9 156.8 L88.6 152.9 L93.2 151.2 L100.4 152.6 L104.4 151.9 L106.1 148.2 L107.6 140.0 L107.3 137.1 L104.1 135.4 L106.5 128.3 L106.7 112.3 L108.1 103.5 L110.1 98.5 L116.7 86.1 L119.1 83.7 L119.7 82.8 L126.1 77.8 L128.9 76.5 L135.1 74.8 L138.0 73.6 L142.9 68.8 L143.8 63.4 L144.0 58.0 L148.4 50.4 L152.0 40.0 L153.8 36.9 L155.0 35.2 L163.0 29.1 L165.0 28.2 L168.9 27.9 L170.6 27.0 L171.9 25.0 L173.6 22.9 L176.7 22.0 L181.3 22.7 L194.3 26.2 L197.7 27.9 L199.2 31.2 L197.6 36.2 L198.7 38.9 L200.8 41.7 L203.0 46.5 L205.4 50.7 L206.2 54.0 L207.6 55.8 L208.8 56.1 L212.2 55.6 L213.4 55.8 L216.6 58.4 L217.5 60.3 L216.5 69.7 L218.8 72.7 L221.8 75.0 L224.5 83.2 L230.1 89.5 L231.4 92.6 Z" fill="#172033" fill-rule="evenodd"/></svg>
