<svg xmlns="http://www.w3.org/2000/svg" viewBox="0 0 320 200" role="img"><path d="M145.1 172.2 L145.2 178.0 L145.2 178.0 L143.1 176.2 L141.9 175.1 L141.8 173.8 L143.5 173.1 L145.1 172.2 Z M166.5 93.8 L170.3 97.3 L169.8 102.0 L168.3 111.1 L162.0 127.4 L155.5 134.1 L146.7 139.3 L133.2 138.1 L127.4 135.6 L101.8 126.6 L102.3 123.6 L147.3 125.7 L152.1 123.0 L155.3 113.6 L159.3 100.5 L166.5 93.8 Z M194.5 37.9 L194.4 38.0 L192.6 39.1 L190.8 38.9 L190.7 38.9 L194.5 37.9 Z M203.3 26.2 L203.3 26.3 L203.2 27.8 L203.6 29.0 L203.5 29.9 L202.2 30.4 L201.1 29.0 L201.5 28.3 L202.4 27.5 L203.3 26.2 Z M218.2 22.0 L218.1 22.1 L217.7 23.4 L217.9 24.8 L217.9 24.9 L217.7 25.7 L216.9 25.5 L215.8 25.3 L215.7 25.3 L214.6 23.2 L215.4 22.6 L216.8 22.5 L218.2 22.0 Z" fill="#172033" fill-rule="evenodd"/></svg>
