<svg xmlns="http://www.w3.org/2000/svg" viewBox="0 0 320 200" role="img"><path d="M173.7 66.1 L167.4 66.0 L166.7 66.2 L166.5 66.5 L166.5 66.8 L166.6 67.7 L166.6 68.5 L166.5 69.3 L165.6 71.3 L164.1 73.6 L161.9 76.8 L161.5 77.8 L161.4 78.7 L161.4 78.8 L161.9 80.5 L163.1 84.6 L164.2 88.5 L164.5 90.8 L164.8 93.6 L165.1 96.0 L165.3 98.0 L165.2 99.7 L165.3 101.4 L165.9 102.8 L165.9 102.9 L166.0 102.9 L166.4 103.3 L166.6 103.6 L167.0 104.3 L167.1 104.5 L167.1 104.6 L167.2 104.7 L167.4 104.8 L167.7 104.9 L170.3 104.8 L171.0 104.9 L171.7 105.2 L171.7 105.2 L172.3 105.6 L174.3 107.4 L176.1 109.0 L177.9 111.0 L180.0 113.5 L181.9 115.7 L183.6 117.7 L184.9 120.2 L186.7 122.4 L188.8 125.0 L189.5 125.8 L190.2 126.7 L191.2 127.7 L191.5 128.0 L191.6 128.4 L191.8 132.6 L191.9 132.7 L192.2 132.8 L192.6 132.8 L191.8 134.5 L191.3 135.8 L190.3 138.0 L190.2 138.5 L190.2 139.0 L190.3 139.3 L190.7 141.2 L191.3 143.4 L191.3 144.3 L191.3 144.3 L191.1 145.9 L191.0 148.4 L190.8 150.2 L190.6 153.1 L190.4 153.8 L190.3 154.3 L190.3 154.6 L190.4 155.3 L190.4 155.6 L190.2 156.0 L189.9 156.3 L188.4 157.3 L188.2 157.4 L188.0 157.4 L187.7 157.4 L187.5 157.4 L185.5 157.9 L185.1 158.0 L185.0 158.1 L184.9 158.4 L184.8 158.6 L184.5 158.6 L184.2 158.5 L184.1 158.3 L183.9 158.0 L183.6 157.8 L183.2 157.7 L182.8 157.6 L182.3 157.7 L181.9 158.0 L180.5 159.2 L180.4 159.4 L180.0 159.9 L179.6 160.6 L179.5 161.6 L179.5 161.8 L179.8 162.3 L179.7 162.5 L179.2 163.1 L179.2 163.2 L179.1 163.5 L179.1 164.3 L179.0 164.6 L178.7 164.9 L177.3 165.8 L177.1 166.0 L177.4 166.9 L177.7 167.4 L177.8 167.6 L177.9 167.7 L178.1 167.8 L178.3 167.8 L178.8 168.0 L178.9 168.1 L179.0 168.2 L179.1 168.4 L179.2 168.5 L179.2 168.5 L179.4 168.6 L179.5 168.6 L179.9 169.2 L180.0 169.3 L180.1 170.6 L180.1 171.0 L180.5 171.8 L180.6 172.3 L180.1 172.7 L180.1 173.1 L180.1 173.9 L180.1 174.0 L180.0 174.1 L179.9 174.2 L179.9 174.3 L180.0 174.4 L180.6 174.7 L180.7 174.9 L180.6 175.2 L180.4 175.6 L180.4 175.9 L180.6 176.6 L180.6 177.0 L180.5 177.4 L180.4 177.7 L180.3 177.9 L180.3 177.9 L179.1 178.0 L177.1 177.9 L176.0 177.8 L175.7 177.5 L175.8 177.0 L175.1 176.0 L175.3 175.4 L175.7 175.0 L176.2 174.8 L176.7 174.5 L176.9 173.9 L177.0 173.3 L177.0 172.6 L176.8 171.9 L176.3 171.6 L175.7 171.6 L175.1 171.6 L174.5 171.5 L173.9 171.1 L173.5 170.6 L173.4 170.4 L173.1 170.2 L173.0 170.2 L172.6 170.1 L172.5 170.1 L172.4 169.9 L172.4 169.5 L172.3 169.4 L172.1 169.3 L171.9 169.1 L171.6 169.0 L171.3 168.8 L171.1 168.5 L170.9 168.1 L170.8 167.8 L169.8 167.0 L169.6 166.8 L169.3 166.1 L169.0 165.8 L167.7 165.1 L167.6 165.1 L167.5 165.0 L167.2 164.4 L167.1 164.2 L167.0 164.1 L166.3 163.6 L166.1 163.4 L165.9 163.1 L165.3 161.7 L164.8 161.2 L164.0 161.1 L163.3 161.1 L162.9 160.7 L162.0 158.9 L162.1 158.2 L162.5 156.9 L162.4 156.4 L162.1 155.9 L160.4 154.2 L160.1 154.0 L159.4 153.7 L159.2 153.5 L159.0 152.9 L158.9 152.2 L159.0 151.5 L159.3 151.0 L159.8 150.4 L160.2 150.2 L160.5 150.0 L160.9 149.9 L161.2 149.7 L161.2 149.7 L162.4 148.1 L162.7 147.4 L162.7 146.6 L162.5 145.4 L162.5 144.7 L162.8 144.4 L163.2 144.2 L163.5 143.6 L164.0 143.3 L164.1 143.1 L164.2 142.6 L164.3 142.3 L164.5 142.0 L164.8 141.9 L165.0 141.7 L165.3 141.5 L165.7 141.0 L165.7 140.5 L165.5 139.1 L165.3 137.5 L165.4 137.2 L165.6 137.0 L165.5 136.7 L165.4 136.5 L165.3 136.2 L165.4 135.9 L165.9 135.4 L166.0 135.1 L166.0 134.7 L165.9 134.4 L165.7 134.1 L165.5 133.8 L165.4 133.4 L165.3 133.1 L165.3 131.6 L165.2 130.9 L165.0 130.3 L164.7 129.7 L164.5 129.0 L164.7 127.8 L164.7 127.1 L164.4 126.5 L163.3 125.5 L162.9 124.9 L162.2 123.6 L161.9 123.2 L161.8 123.0 L161.2 122.7 L161.0 122.7 L160.9 122.8 L160.7 123.0 L160.6 123.1 L160.4 123.1 L160.1 123.1 L160.0 123.1 L158.0 123.8 L156.5 123.8 L155.9 124.1 L155.7 124.3 L155.5 124.8 L155.3 124.9 L153.2 124.6 L152.6 124.6 L152.1 124.7 L150.9 125.4 L150.3 125.6 L149.7 125.6 L148.7 124.8 L148.2 124.9 L147.9 125.4 L147.8 125.9 L147.8 126.6 L147.7 127.0 L147.5 127.1 L147.1 127.0 L146.9 126.8 L146.7 126.6 L146.6 126.2 L146.3 125.5 L146.2 125.2 L145.9 125.0 L145.4 124.8 L145.2 124.6 L145.0 124.4 L144.9 124.1 L144.7 123.9 L144.5 123.6 L143.6 123.3 L143.4 123.1 L143.0 122.6 L142.0 120.6 L141.6 120.1 L141.4 119.6 L141.3 119.5 L141.2 119.3 L141.0 119.3 L140.7 119.1 L140.5 118.9 L140.0 118.1 L139.9 117.7 L140.0 116.7 L139.8 116.1 L139.4 115.8 L138.3 115.2 L137.9 114.8 L137.3 113.6 L137.0 113.4 L136.8 113.5 L136.6 114.0 L136.4 114.2 L135.7 114.4 L135.4 114.6 L135.2 114.9 L134.5 115.9 L134.2 115.9 L133.7 115.3 L133.6 115.0 L133.7 114.0 L133.7 113.9 L133.7 113.8 L133.6 113.6 L133.4 113.6 L133.1 113.6 L132.9 113.4 L132.8 113.1 L132.7 112.8 L132.6 112.5 L131.6 111.3 L131.3 111.1 L130.7 110.8 L130.0 110.7 L129.4 110.4 L129.3 109.9 L129.5 109.7 L130.2 109.3 L130.4 109.1 L130.3 108.9 L129.5 107.8 L129.0 107.6 L128.3 107.6 L127.6 107.4 L127.4 106.8 L127.5 106.4 L127.7 106.2 L128.0 106.3 L128.3 106.4 L128.6 106.3 L129.1 105.9 L129.4 105.7 L130.1 105.6 L130.4 105.4 L130.5 105.0 L130.5 104.6 L130.5 104.3 L130.7 104.1 L131.1 104.0 L131.6 103.7 L132.0 102.9 L132.3 101.9 L132.6 100.7 L132.9 100.0 L133.4 99.3 L134.0 99.2 L134.1 98.9 L134.1 98.6 L133.8 98.2 L133.6 97.8 L133.5 97.5 L133.5 97.2 L133.8 94.9 L134.4 93.7 L134.4 93.1 L134.3 92.7 L133.8 92.2 L133.2 91.9 L133.1 91.7 L133.0 90.2 L133.1 89.8 L133.3 89.3 L134.1 88.2 L134.7 87.0 L134.9 86.7 L135.2 86.5 L135.3 86.4 L135.5 86.5 L135.6 86.6 L135.7 86.7 L135.8 86.9 L136.0 86.8 L136.2 86.6 L136.3 86.5 L136.6 86.4 L136.8 86.4 L137.0 86.5 L137.1 86.6 L137.4 87.1 L137.5 87.2 L137.7 87.2 L137.8 87.1 L137.8 86.9 L137.9 86.8 L138.0 86.7 L138.1 86.7 L138.3 86.6 L138.5 86.5 L138.7 86.3 L139.1 85.6 L139.3 85.4 L139.5 85.3 L140.0 85.2 L140.3 85.3 L140.4 85.3 L140.6 85.4 L140.8 85.5 L141.2 85.4 L141.7 85.1 L142.1 84.7 L142.4 84.2 L142.6 84.0 L143.2 83.8 L143.4 83.6 L143.4 83.1 L143.5 82.9 L143.8 82.9 L144.0 82.5 L144.5 82.2 L144.6 82.2 L144.8 81.8 L144.7 81.4 L144.5 81.3 L144.2 81.4 L143.4 81.1 L141.9 81.5 L141.2 81.3 L140.8 80.7 L140.5 79.3 L140.2 78.6 L140.0 78.4 L139.4 77.8 L139.3 77.5 L139.2 76.8 L139.3 76.1 L140.1 74.3 L140.3 73.3 L140.4 73.0 L140.5 72.6 L140.4 72.4 L140.2 71.9 L140.2 71.6 L140.4 70.8 L140.5 70.1 L140.3 66.8 L140.1 66.5 L139.9 66.2 L139.5 66.1 L139.2 66.2 L138.9 66.2 L138.5 66.1 L138.4 65.9 L138.7 65.3 L138.9 64.9 L138.9 64.7 L138.8 62.9 L139.0 62.7 L139.5 63.1 L139.7 62.8 L139.7 62.5 L139.6 62.3 L139.7 62.0 L139.8 61.9 L140.1 61.8 L140.2 61.7 L140.2 61.5 L140.1 61.3 L140.2 61.2 L141.6 59.0 L141.9 58.5 L142.0 57.9 L141.4 56.8 L140.9 56.3 L140.6 55.8 L140.3 55.3 L140.1 54.7 L140.0 54.1 L140.0 53.5 L139.8 52.8 L139.5 52.6 L139.2 52.6 L139.0 52.6 L138.8 52.5 L138.9 52.2 L139.0 51.9 L139.2 51.8 L139.4 51.9 L139.7 51.9 L140.0 51.7 L140.3 51.1 L140.6 50.9 L140.9 50.8 L141.4 50.7 L141.7 50.6 L141.9 50.6 L142.6 50.7 L142.9 50.7 L143.2 50.6 L143.5 50.2 L143.8 50.2 L144.3 49.9 L144.5 49.6 L144.8 48.8 L145.8 47.7 L146.0 47.5 L146.3 47.4 L147.1 46.8 L147.4 46.5 L147.7 46.1 L147.7 46.0 L147.7 45.9 L147.7 45.7 L147.6 45.3 L147.6 44.8 L147.0 44.7 L146.7 44.4 L146.3 43.5 L146.2 43.3 L145.6 42.8 L145.4 42.6 L144.9 41.3 L144.8 40.9 L144.9 39.7 L144.9 39.1 L144.6 38.8 L144.2 38.5 L143.8 38.0 L143.3 37.8 L143.0 37.5 L142.6 37.2 L142.2 36.8 L140.6 36.1 L140.3 35.7 L140.3 35.2 L140.4 34.7 L140.8 33.8 L141.4 32.8 L141.5 32.4 L141.4 31.9 L141.1 31.1 L141.0 30.9 L140.2 30.6 L140.0 30.5 L139.7 30.3 L139.5 30.0 L139.3 29.5 L139.0 29.3 L138.5 29.0 L138.3 28.7 L138.3 28.4 L138.4 28.2 L138.5 28.0 L138.5 27.8 L138.5 27.5 L138.4 27.2 L138.1 26.7 L137.7 26.4 L136.6 26.4 L136.1 26.2 L136.0 26.7 L136.0 27.3 L135.8 27.7 L135.3 27.5 L135.2 27.3 L135.2 27.1 L135.1 26.8 L134.9 26.7 L134.6 26.8 L134.4 27.0 L134.2 27.1 L133.9 27.0 L133.7 26.4 L134.0 25.0 L134.0 24.4 L133.8 24.3 L133.5 24.1 L133.4 24.0 L133.2 24.0 L133.0 24.1 L132.9 24.1 L132.7 24.0 L132.6 23.7 L132.6 22.5 L132.9 22.2 L133.3 22.0 L133.7 22.0 L134.0 22.2 L135.0 23.2 L136.3 24.1 L136.4 24.2 L137.0 24.3 L137.6 24.6 L137.7 24.6 L137.8 24.5 L138.1 24.3 L138.2 24.3 L138.5 24.3 L138.9 24.4 L139.2 24.4 L139.4 24.3 L139.7 24.1 L139.9 24.1 L140.2 24.2 L141.3 25.0 L141.7 25.4 L142.1 26.1 L142.3 26.5 L142.6 26.7 L143.0 26.8 L143.8 26.9 L144.5 26.7 L144.9 26.5 L145.4 26.3 L146.1 26.3 L146.7 26.5 L147.3 26.6 L147.3 26.6 L147.8 26.6 L148.3 26.3 L149.0 26.1 L149.5 26.4 L150.0 26.9 L150.5 27.3 L151.0 27.5 L151.6 27.8 L152.1 28.2 L152.3 28.6 L152.5 28.8 L152.8 28.4 L152.8 28.3 L153.1 28.1 L153.3 27.9 L153.4 27.6 L153.4 27.3 L153.5 26.6 L153.6 26.3 L153.2 25.4 L153.5 24.9 L154.0 24.5 L154.2 24.2 L154.5 23.9 L155.2 24.2 L155.9 24.6 L155.9 24.6 L156.1 24.8 L156.4 25.0 L157.0 25.8 L157.2 25.9 L157.5 26.3 L158.1 26.5 L160.1 28.6 L160.7 28.8 L160.8 29.1 L160.9 29.4 L161.0 29.8 L161.1 30.0 L161.5 30.4 L161.6 30.5 L162.0 30.8 L162.0 30.9 L164.0 33.4 L164.2 33.8 L164.8 34.6 L165.1 35.3 L165.1 35.5 L165.1 35.8 L164.9 36.2 L164.8 36.4 L165.0 37.0 L165.7 38.5 L165.9 39.6 L166.0 40.0 L166.1 40.3 L166.1 40.5 L165.7 42.7 L165.7 43.1 L166.1 43.8 L166.2 44.1 L166.2 44.3 L166.0 44.8 L165.9 45.0 L166.0 45.1 L166.0 45.3 L166.1 45.6 L166.2 45.8 L166.4 46.1 L166.5 46.2 L166.7 46.1 L166.8 46.2 L166.9 46.2 L166.9 46.4 L166.9 46.8 L166.9 46.9 L167.4 47.4 L167.6 47.8 L167.6 48.3 L167.3 48.7 L167.4 48.9 L167.5 49.0 L167.6 49.1 L167.7 49.2 L167.8 49.3 L167.9 49.6 L167.6 49.8 L167.5 49.9 L167.6 50.5 L167.3 51.7 L167.3 52.6 L167.3 52.8 L166.9 53.6 L166.7 53.9 L166.3 54.4 L166.2 54.9 L166.3 55.3 L166.6 56.1 L166.6 56.6 L166.8 57.0 L167.7 57.8 L167.8 58.0 L167.9 58.2 L168.0 58.3 L168.4 58.4 L168.5 58.5 L168.7 58.6 L168.7 58.8 L168.8 59.3 L168.9 59.7 L169.2 60.0 L169.5 60.2 L169.5 60.3 L169.4 60.3 L169.2 60.5 L169.1 60.5 L169.6 61.4 L169.7 61.5 L169.8 61.5 L170.1 61.3 L170.2 61.2 L170.4 61.2 L171.3 61.5 L171.8 61.8 L172.1 62.1 L172.3 62.5 L172.4 62.7 L172.7 63.0 L172.9 63.5 L173.1 63.8 L173.3 63.9 L173.4 64.1 L173.4 64.2 L173.5 64.4 L173.6 64.6 L173.7 64.9 L173.7 65.9 L173.7 66.1 Z" fill="#172033" fill-rule="evenodd"/></svg>
