<svg xmlns="http://www.w3.org/2000/svg" viewBox="0 0 320 200" role="img"><path d="M201.2 79.9 L200.9 81.1 L201.0 81.5 L201.0 81.6 L200.9 82.0 L200.9 82.2 L200.8 82.3 L200.7 82.7 L200.4 83.2 L200.1 83.9 L199.6 84.9 L198.4 86.7 L197.6 89.5 L196.8 92.4 L196.3 96.1 L196.3 96.4 L196.2 96.7 L196.1 98.5 L196.1 98.6 L195.9 98.7 L195.3 98.6 L195.3 98.7 L195.5 98.7 L195.7 98.7 L195.8 98.8 L195.9 99.0 L195.8 99.8 L195.9 99.8 L195.9 99.6 L196.0 99.0 L196.1 98.8 L196.2 99.1 L196.0 100.8 L195.9 101.6 L195.8 103.2 L196.0 105.6 L195.9 106.7 L195.9 106.2 L195.9 106.1 L195.8 106.2 L195.5 107.1 L195.5 107.2 L195.2 107.5 L195.2 107.5 L195.2 107.6 L195.1 107.7 L195.1 107.7 L194.8 107.6 L195.0 107.8 L195.0 108.0 L194.7 108.6 L194.7 108.8 L194.7 108.9 L194.8 108.9 L194.9 108.9 L195.0 108.9 L195.1 108.8 L195.1 108.7 L195.0 108.5 L195.1 108.3 L195.2 108.2 L195.2 108.2 L195.2 108.3 L195.2 108.5 L195.2 108.7 L195.1 109.4 L195.3 110.3 L195.3 110.5 L195.3 110.6 L195.4 111.1 L195.4 111.2 L195.5 111.3 L195.7 111.8 L195.7 112.9 L195.8 113.2 L197.1 115.4 L198.0 116.4 L198.2 116.5 L198.6 116.9 L198.7 116.9 L198.8 117.0 L199.4 117.4 L199.6 117.8 L199.6 118.1 L199.5 118.5 L199.4 118.8 L199.4 119.0 L199.1 119.4 L199.0 119.5 L198.9 119.6 L198.9 119.8 L198.8 120.2 L198.8 120.2 L198.7 119.6 L198.4 119.2 L198.4 118.9 L198.3 118.9 L198.3 118.8 L198.5 118.7 L198.6 118.6 L198.8 118.5 L198.9 118.5 L199.0 118.5 L199.1 118.4 L199.1 118.3 L199.2 118.1 L199.2 118.0 L199.1 117.8 L198.9 117.7 L198.6 117.5 L198.2 117.1 L198.1 116.9 L197.6 116.5 L197.2 115.9 L197.0 115.8 L197.0 115.7 L196.9 115.6 L196.8 115.0 L196.7 114.8 L196.5 114.6 L195.8 113.4 L195.7 113.2 L195.7 113.4 L195.8 113.7 L195.9 113.8 L196.0 113.9 L196.2 114.4 L196.2 114.8 L196.3 115.5 L196.5 116.0 L196.6 116.8 L196.7 117.1 L197.4 118.3 L197.5 118.4 L197.7 118.5 L197.8 118.5 L197.9 118.4 L198.1 118.3 L198.2 118.5 L198.1 118.6 L198.1 119.0 L198.1 119.1 L198.7 120.2 L198.7 120.3 L198.8 120.4 L198.9 120.5 L198.9 120.8 L199.5 122.1 L200.1 123.2 L200.7 124.2 L200.8 124.5 L200.8 124.6 L200.8 124.7 L200.7 124.7 L200.7 124.8 L201.1 125.6 L202.1 126.7 L202.4 127.0 L202.7 127.2 L202.9 127.3 L203.0 127.6 L203.1 127.8 L203.4 128.0 L204.0 128.7 L204.5 129.1 L204.6 129.3 L204.8 129.5 L204.8 129.6 L204.9 129.7 L205.0 129.7 L205.1 129.7 L205.1 129.8 L205.4 130.3 L206.0 130.9 L206.6 131.8 L207.0 132.3 L207.2 132.6 L207.5 133.4 L207.6 134.1 L207.9 135.1 L208.0 135.3 L208.2 135.6 L208.3 135.8 L208.2 136.0 L208.2 136.1 L208.3 136.4 L208.4 136.7 L208.5 136.9 L208.6 137.1 L208.8 137.2 L209.5 137.7 L209.6 137.8 L209.8 137.7 L209.9 137.8 L209.9 138.1 L210.0 138.2 L210.1 138.3 L210.2 138.8 L210.3 138.9 L210.4 139.1 L210.6 139.2 L210.8 139.2 L211.0 139.2 L211.1 139.3 L211.2 139.4 L211.3 140.0 L211.5 140.3 L211.6 140.5 L211.8 140.8 L212.1 141.1 L212.3 141.2 L212.5 141.2 L212.6 141.3 L212.8 141.3 L213.0 141.4 L213.1 141.5 L213.1 141.5 L213.1 141.8 L212.9 141.7 L212.5 141.4 L212.0 141.2 L211.7 140.9 L211.5 140.9 L211.3 141.0 L211.5 141.1 L211.8 141.3 L212.0 141.3 L212.0 141.5 L212.2 141.6 L212.6 141.9 L212.6 141.9 L212.5 141.9 L212.2 141.8 L212.1 141.8 L212.0 141.9 L212.0 142.0 L212.1 142.1 L212.2 142.2 L212.4 142.2 L212.5 142.2 L212.7 142.1 L212.7 142.0 L212.7 142.0 L212.7 142.0 L212.8 141.9 L212.9 142.0 L213.8 142.2 L214.0 142.2 L214.1 142.3 L214.3 142.5 L214.5 142.6 L214.7 142.5 L214.3 142.3 L213.7 142.1 L213.3 141.8 L213.2 141.5 L213.8 141.9 L214.5 142.1 L215.3 142.3 L216.4 142.3 L217.2 142.2 L217.7 142.3 L217.9 142.3 L218.1 142.4 L218.4 142.6 L219.1 143.1 L219.2 143.2 L219.3 143.4 L219.3 143.5 L219.5 143.6 L220.6 143.7 L220.8 143.8 L221.2 143.8 L221.4 143.9 L221.5 144.2 L221.8 144.8 L222.0 145.1 L222.5 145.6 L222.7 145.9 L223.1 146.7 L223.2 146.7 L223.5 146.9 L223.6 147.0 L223.8 147.0 L224.1 147.1 L224.4 147.1 L224.6 147.0 L224.8 147.0 L225.1 146.9 L226.3 146.7 L227.0 146.6 L227.2 146.4 L227.4 146.3 L228.1 146.2 L228.2 146.1 L228.4 146.0 L229.3 145.7 L229.3 145.8 L229.2 145.9 L229.1 146.0 L229.1 146.1 L229.2 146.1 L229.9 146.0 L230.0 146.0 L230.1 145.9 L230.2 145.8 L230.2 145.8 L230.2 145.7 L230.1 145.6 L230.2 145.6 L230.2 145.5 L230.3 145.5 L230.4 145.4 L230.5 145.4 L230.6 145.4 L230.7 145.4 L230.8 145.3 L230.9 145.5 L231.1 145.5 L231.6 145.4 L231.7 145.3 L231.8 145.0 L231.8 144.8 L231.7 144.8 L231.7 144.8 L231.5 144.8 L231.4 144.9 L231.4 144.9 L231.3 145.0 L230.7 145.2 L230.6 145.2 L230.5 145.3 L230.5 145.4 L230.1 145.4 L229.8 145.6 L229.7 145.7 L229.6 145.7 L229.5 145.7 L229.4 145.8 L229.5 145.6 L229.7 145.5 L229.8 145.5 L229.9 145.4 L230.0 145.3 L231.6 144.7 L232.0 144.7 L232.9 144.5 L234.1 144.6 L235.4 144.5 L235.4 144.6 L235.3 144.7 L235.2 144.8 L235.1 144.8 L235.2 144.9 L235.2 145.1 L235.3 145.2 L235.3 145.2 L235.5 145.1 L235.6 145.1 L235.7 145.0 L235.7 145.1 L235.6 145.3 L235.6 145.4 L235.6 145.4 L235.7 145.2 L235.8 145.2 L235.7 145.1 L235.9 145.1 L236.0 145.0 L235.9 144.8 L235.7 144.8 L235.5 144.7 L235.5 144.7 L235.7 144.6 L235.8 144.5 L237.2 144.5 L238.0 144.3 L238.4 144.1 L238.8 143.7 L239.0 143.5 L239.0 143.4 L239.1 143.3 L239.1 143.3 L239.2 143.3 L239.3 143.3 L239.4 143.6 L239.4 144.4 L239.6 144.7 L239.6 144.4 L239.5 144.3 L239.6 144.1 L239.6 143.7 L239.6 143.6 L239.3 143.2 L239.3 143.1 L239.5 143.0 L239.7 143.0 L240.1 143.0 L240.2 143.0 L241.1 142.8 L241.8 142.6 L242.8 142.5 L243.7 142.4 L244.8 142.3 L245.5 142.3 L245.7 142.4 L246.0 142.7 L246.4 142.9 L246.5 143.0 L246.5 143.1 L246.4 143.2 L246.4 143.3 L246.3 143.3 L246.3 143.2 L246.3 143.2 L246.2 143.2 L246.1 143.2 L245.9 143.2 L245.8 143.2 L245.8 143.1 L245.8 143.0 L245.8 142.9 L245.7 142.9 L245.7 143.0 L245.5 143.1 L245.5 143.1 L245.4 143.1 L245.3 143.1 L245.2 143.1 L245.2 143.1 L245.3 143.2 L245.4 143.2 L245.4 143.2 L245.3 143.3 L245.2 143.3 L245.1 143.2 L245.0 143.2 L245.0 143.2 L245.0 143.3 L245.0 143.3 L245.0 143.4 L245.0 143.4 L244.9 143.5 L244.9 143.6 L244.8 143.6 L244.9 143.6 L245.0 143.5 L245.2 143.7 L245.3 143.7 L245.4 143.7 L245.6 143.7 L245.7 143.6 L245.7 143.7 L245.8 143.8 L245.9 143.9 L246.1 144.0 L246.3 144.0 L246.0 143.8 L245.8 143.7 L245.6 143.5 L245.6 143.2 L245.7 143.3 L245.8 143.4 L245.9 143.4 L246.1 143.4 L246.0 143.5 L246.1 143.6 L246.3 143.6 L246.3 143.7 L246.4 143.8 L246.3 143.8 L246.3 143.8 L246.3 143.8 L246.2 143.8 L246.2 143.8 L246.4 143.9 L246.7 144.0 L246.8 144.1 L246.8 144.2 L246.6 144.5 L246.5 144.6 L246.6 144.7 L246.7 144.9 L246.9 145.0 L247.0 145.0 L247.1 144.9 L247.0 144.8 L247.0 144.6 L246.9 144.5 L247.0 144.5 L247.1 144.6 L247.2 144.6 L247.3 144.6 L247.2 144.5 L247.0 144.4 L247.0 144.3 L247.0 144.1 L247.3 144.2 L247.8 144.4 L248.0 144.5 L248.2 144.4 L248.6 144.5 L248.8 144.5 L249.2 144.5 L249.4 144.4 L249.6 144.4 L249.6 144.5 L249.6 144.6 L249.7 144.6 L249.8 144.5 L249.8 144.4 L249.7 144.2 L249.7 144.1 L249.7 144.1 L249.7 144.1 L249.6 144.2 L249.6 144.2 L249.5 144.2 L249.3 144.3 L249.3 144.3 L249.3 144.2 L249.5 144.0 L249.6 143.9 L249.8 143.8 L250.2 143.7 L250.5 143.5 L250.6 143.6 L250.8 143.6 L250.9 143.5 L251.0 143.4 L251.1 143.3 L251.2 143.1 L251.3 143.0 L251.6 143.0 L251.7 143.0 L251.8 143.0 L251.9 142.9 L252.2 142.8 L252.3 142.7 L252.2 142.6 L252.1 142.7 L251.8 142.8 L251.4 142.9 L251.3 142.9 L251.6 142.3 L251.6 142.0 L251.4 141.8 L251.3 141.6 L251.2 141.6 L251.1 141.6 L251.0 141.6 L251.0 141.7 L251.0 141.7 L250.9 141.8 L250.7 141.7 L250.5 141.4 L250.3 141.4 L250.4 141.2 L250.6 141.0 L250.8 140.8 L251.2 140.7 L251.5 140.5 L251.7 140.3 L251.8 140.1 L251.6 140.2 L251.1 140.6 L250.5 140.9 L250.3 141.0 L250.3 141.2 L250.2 141.3 L250.2 141.2 L250.0 141.4 L249.9 141.4 L249.7 141.4 L249.6 141.4 L249.5 141.3 L249.7 141.1 L250.2 140.8 L250.7 140.5 L251.5 140.1 L252.5 139.6 L253.2 139.0 L253.4 138.9 L253.8 138.8 L254.4 138.4 L255.1 137.5 L255.3 137.4 L255.6 137.3 L255.9 137.1 L256.1 136.8 L256.2 136.5 L256.3 134.9 L256.4 134.5 L256.4 134.3 L256.4 134.1 L256.4 134.0 L256.4 133.9 L256.4 133.6 L256.6 133.3 L256.8 133.0 L257.3 132.7 L258.0 132.2 L258.4 131.8 L258.5 131.5 L258.5 131.4 L258.5 131.2 L258.5 131.1 L258.2 130.6 L258.2 130.5 L258.2 130.4 L258.2 130.2 L258.2 129.6 L258.3 129.2 L258.3 128.7 L258.3 128.5 L258.4 128.0 L258.4 127.7 L258.3 127.0 L258.3 126.6 L258.5 125.9 L258.5 125.0 L258.6 124.8 L259.1 124.3 L259.2 124.1 L259.3 123.6 L259.5 123.1 L259.6 122.8 L259.5 122.8 L259.4 123.3 L259.2 123.6 L259.2 123.7 L259.2 123.9 L259.1 124.1 L258.9 124.3 L258.7 124.4 L258.7 124.3 L258.8 124.1 L259.4 122.6 L259.5 122.4 L259.6 122.3 L260.6 121.7 L260.8 121.6 L261.3 121.4 L261.6 121.2 L261.8 121.1 L261.9 121.1 L262.2 121.0 L262.6 120.9 L263.1 120.5 L263.3 120.5 L263.4 120.4 L264.3 120.1 L265.2 120.0 L265.9 120.0 L267.1 119.8 L268.8 119.6 L269.5 119.4 L269.8 119.4 L270.0 119.5 L270.1 119.5 L270.2 119.4 L270.4 119.4 L270.4 119.3 L271.2 119.2 L271.7 119.1 L272.1 119.0 L272.3 119.0 L272.6 118.9 L273.6 118.6 L273.9 118.5 L274.4 118.0 L274.6 117.9 L275.2 117.9 L275.3 117.8 L275.6 117.7 L275.8 117.6 L276.5 117.6 L276.6 117.7 L276.9 117.8 L277.1 117.8 L277.2 117.8 L277.5 117.7 L278.0 117.7 L278.1 117.6 L278.2 117.6 L278.4 117.5 L278.9 117.5 L278.8 117.5 L278.5 117.4 L278.3 117.4 L278.0 117.6 L277.7 117.6 L277.6 117.7 L277.7 117.6 L277.8 117.5 L278.0 117.4 L278.3 117.4 L278.5 117.3 L278.5 117.3 L278.7 117.3 L279.0 117.4 L279.8 117.4 L280.0 117.4 L280.5 117.6 L280.9 117.7 L281.6 117.8 L282.1 118.0 L282.2 118.0 L282.1 118.1 L282.0 118.1 L281.9 118.1 L281.8 118.1 L281.7 118.0 L281.6 118.0 L281.0 117.9 L280.8 117.8 L281.0 118.0 L281.3 118.1 L281.6 118.2 L281.8 118.2 L282.4 118.2 L282.7 118.3 L282.8 118.3 L283.0 118.2 L282.6 118.2 L282.4 118.2 L282.3 118.1 L282.3 118.0 L282.9 118.1 L283.4 118.3 L283.6 118.3 L283.9 118.3 L283.9 118.3 L284.0 118.3 L284.0 118.4 L284.0 118.4 L284.2 118.5 L284.1 118.5 L284.0 118.5 L284.0 118.5 L284.0 118.5 L283.9 118.5 L284.0 118.6 L284.2 118.6 L284.5 118.5 L284.7 118.5 L285.2 118.7 L285.8 118.7 L285.9 118.7 L286.0 118.8 L286.2 118.8 L286.8 118.5 L286.9 118.4 L287.0 118.3 L287.1 118.2 L287.1 118.1 L287.1 118.0 L287.1 118.0 L287.0 117.9 L287.1 117.8 L287.1 117.8 L287.0 117.7 L286.9 117.7 L286.7 117.7 L286.5 117.8 L286.3 117.9 L286.2 118.0 L286.0 118.0 L285.8 118.0 L285.6 118.0 L285.5 117.9 L285.4 118.0 L285.3 117.9 L285.3 117.8 L285.2 117.9 L285.0 118.1 L284.8 118.1 L284.8 118.1 L284.8 118.2 L284.8 118.2 L284.9 118.2 L284.8 118.2 L284.7 118.2 L284.7 118.1 L284.7 118.0 L285.0 117.8 L285.0 117.7 L285.1 117.7 L285.2 117.6 L285.4 117.6 L285.6 117.7 L285.7 117.7 L285.9 117.8 L286.1 117.7 L287.1 117.3 L287.3 117.2 L287.9 117.4 L288.0 117.5 L288.3 117.7 L288.7 118.3 L288.7 118.4 L288.8 118.5 L288.8 118.6 L288.9 118.7 L288.9 118.8 L289.0 118.8 L289.1 118.9 L289.1 118.8 L289.2 118.8 L289.4 118.8 L289.6 118.8 L289.7 118.9 L289.8 119.3 L289.9 119.4 L289.8 119.5 L289.8 119.7 L289.8 119.8 L289.8 120.3 L289.8 120.8 L290.0 121.2 L290.5 121.2 L290.4 121.3 L290.4 121.3 L290.4 121.3 L290.2 121.7 L290.1 121.8 L290.0 122.0 L290.0 122.1 L290.1 122.2 L290.1 122.2 L290.1 122.3 L290.1 122.3 L290.0 122.3 L290.0 122.3 L289.9 122.3 L289.8 122.4 L289.8 122.4 L289.7 122.5 L289.7 122.5 L289.7 122.7 L289.7 122.8 L289.5 123.3 L289.3 123.7 L289.3 123.8 L288.7 124.6 L287.9 125.5 L287.7 125.8 L287.7 125.9 L287.2 126.1 L287.0 126.3 L286.7 126.5 L286.2 126.9 L285.2 128.4 L285.1 128.6 L285.0 128.7 L284.9 128.7 L284.9 128.8 L285.0 128.9 L284.7 129.1 L284.5 129.3 L284.4 129.5 L284.2 130.2 L284.2 130.6 L284.2 131.3 L284.3 131.5 L284.5 131.8 L284.5 132.0 L284.5 132.1 L284.4 132.4 L284.4 132.5 L284.3 132.5 L284.3 132.5 L284.2 132.9 L284.1 133.0 L284.1 132.7 L284.1 132.6 L284.1 132.5 L284.2 132.5 L284.3 132.5 L284.4 132.4 L284.4 132.4 L284.4 132.2 L284.4 131.9 L284.3 131.8 L284.2 131.7 L284.2 131.6 L284.2 131.5 L284.1 131.5 L284.1 131.5 L284.0 131.6 L284.1 131.6 L284.1 131.7 L284.2 131.8 L284.2 132.0 L284.2 132.2 L284.2 132.2 L284.2 132.2 L284.2 132.2 L284.3 132.1 L284.0 132.6 L283.9 132.7 L283.9 132.7 L283.8 132.8 L283.7 132.9 L283.7 132.9 L283.6 132.8 L283.5 132.7 L283.5 132.8 L283.4 132.9 L283.3 132.9 L283.1 133.1 L282.9 133.4 L282.8 133.7 L282.7 133.9 L282.6 134.2 L282.5 134.3 L282.4 134.3 L282.5 134.2 L282.6 134.1 L282.6 134.0 L282.6 133.9 L282.5 133.9 L282.0 133.9 L281.9 133.9 L281.9 134.0 L281.8 134.2 L281.8 134.3 L281.9 134.5 L282.0 134.6 L282.2 134.7 L282.2 134.8 L282.3 134.9 L282.4 134.9 L282.5 134.9 L282.6 134.9 L282.5 135.0 L282.5 135.3 L282.4 135.4 L282.6 135.4 L282.7 135.3 L282.8 135.2 L282.9 135.1 L283.0 135.0 L283.3 134.9 L283.4 134.9 L283.6 134.9 L283.8 135.0 L283.9 135.1 L283.9 135.0 L283.9 135.0 L283.9 134.9 L284.0 134.9 L284.1 134.9 L284.1 134.9 L284.2 134.9 L284.2 134.9 L284.3 134.9 L284.3 134.9 L284.3 134.9 L284.3 134.9 L284.2 135.0 L284.2 135.1 L284.4 135.0 L284.6 134.8 L284.6 134.7 L284.5 134.6 L284.5 134.7 L284.5 134.8 L284.4 134.8 L284.2 134.8 L283.9 134.8 L283.8 134.8 L283.7 134.7 L283.9 134.7 L284.4 134.8 L284.4 134.7 L284.4 134.7 L284.4 134.4 L284.5 134.3 L284.6 134.6 L284.7 134.8 L284.7 134.9 L284.6 135.0 L284.5 135.5 L284.4 135.7 L284.3 135.8 L284.2 136.0 L284.0 136.0 L284.0 136.0 L283.7 136.3 L283.6 136.3 L283.3 136.4 L283.5 136.3 L283.6 136.2 L283.6 136.1 L283.6 136.0 L283.3 136.1 L282.9 136.3 L282.6 136.5 L282.5 136.9 L282.6 136.9 L282.6 136.7 L282.7 136.7 L282.6 136.8 L282.5 137.0 L282.4 137.1 L282.6 137.1 L282.4 137.5 L282.3 137.7 L282.4 137.8 L282.6 137.8 L282.7 137.9 L282.7 137.9 L282.9 137.7 L283.1 137.5 L283.2 137.3 L283.3 137.1 L283.4 137.0 L283.6 137.0 L284.0 136.9 L283.8 137.3 L283.9 137.2 L284.0 137.1 L284.1 137.0 L284.3 137.0 L284.3 137.1 L284.1 137.1 L284.0 137.3 L283.7 137.6 L283.7 137.8 L283.6 138.3 L283.5 138.4 L283.5 138.6 L283.4 138.9 L283.2 139.3 L283.0 139.6 L282.9 140.7 L282.6 141.8 L282.4 142.0 L282.2 142.2 L282.0 142.5 L281.9 142.8 L281.9 143.2 L281.9 143.6 L281.9 143.7 L281.8 143.9 L281.7 144.1 L281.7 144.7 L281.6 144.9 L281.2 145.4 L281.2 145.6 L281.1 145.7 L281.0 146.0 L281.0 146.1 L281.0 146.7 L280.9 146.7 L280.9 146.4 L280.9 146.2 L280.7 146.4 L280.6 146.4 L280.6 146.3 L280.7 146.2 L280.7 146.1 L280.8 145.9 L280.8 145.6 L280.8 145.5 L280.8 145.6 L280.7 145.7 L280.7 145.8 L280.6 145.8 L280.6 145.7 L280.6 145.6 L280.7 145.6 L280.7 145.4 L280.7 145.4 L280.5 145.3 L280.5 145.2 L280.5 145.2 L280.5 145.1 L280.5 145.0 L280.3 145.0 L280.2 144.9 L280.2 144.9 L280.2 144.8 L280.3 144.8 L280.3 144.8 L280.2 144.6 L280.2 144.5 L280.1 144.5 L280.0 144.5 L279.7 144.4 L279.3 144.2 L279.1 144.1 L279.0 144.1 L279.0 143.9 L279.0 143.8 L279.0 143.7 L279.3 143.4 L279.2 143.2 L279.3 143.0 L279.4 142.9 L279.5 142.7 L279.5 142.7 L279.6 142.5 L279.6 142.4 L279.6 142.4 L279.6 142.4 L279.5 142.3 L279.5 142.3 L279.5 142.2 L279.5 142.2 L279.6 142.1 L279.6 142.1 L279.6 141.8 L279.6 141.6 L279.5 141.4 L279.4 141.3 L279.4 141.2 L279.3 140.8 L279.1 141.0 L278.9 141.2 L278.8 141.4 L278.7 141.7 L278.7 141.8 L278.6 141.9 L278.6 142.1 L278.5 142.1 L278.4 142.1 L278.4 141.9 L278.5 141.7 L278.5 141.8 L278.4 141.9 L278.2 141.9 L278.0 141.9 L277.9 142.0 L277.6 142.3 L277.5 142.4 L277.5 142.4 L277.5 142.5 L277.6 142.5 L277.8 142.3 L277.9 142.2 L278.0 142.0 L278.1 142.1 L278.1 142.3 L278.0 142.4 L278.0 142.5 L278.0 142.5 L278.1 142.4 L278.2 142.3 L278.3 142.3 L278.4 142.3 L278.3 142.4 L278.2 142.5 L278.2 142.5 L278.0 142.9 L277.8 143.1 L277.5 143.6 L277.5 143.7 L277.3 144.0 L277.2 144.1 L277.1 144.1 L277.1 144.2 L277.0 144.2 L277.0 144.2 L277.0 144.2 L276.5 144.2 L276.4 144.2 L276.3 144.2 L276.3 144.3 L276.2 144.2 L276.1 144.1 L276.1 144.1 L276.0 144.1 L275.9 144.2 L275.8 144.2 L275.7 144.3 L275.6 144.2 L275.5 144.2 L275.4 144.2 L275.2 144.4 L275.1 144.4 L275.1 144.5 L275.0 144.8 L274.9 145.0 L274.9 145.2 L274.9 145.3 L274.8 145.5 L274.5 145.8 L274.4 145.9 L274.4 146.1 L274.4 146.2 L274.4 146.2 L274.4 146.3 L274.3 146.5 L274.2 146.5 L273.9 146.6 L273.7 146.8 L273.7 146.8 L273.7 147.0 L273.7 147.1 L273.5 147.4 L273.5 147.5 L273.4 147.7 L273.4 147.8 L273.3 147.9 L273.2 148.0 L273.1 148.0 L273.0 148.1 L272.9 148.2 L272.8 148.6 L272.7 148.6 L272.3 149.0 L272.3 149.0 L272.2 149.2 L272.2 149.3 L272.1 149.3 L271.7 149.1 L271.6 149.0 L271.5 148.8 L271.4 148.8 L271.3 148.8 L271.2 148.8 L271.1 148.7 L271.0 148.5 L270.8 148.4 L270.6 148.3 L269.9 148.6 L269.7 148.8 L269.7 149.2 L269.7 149.9 L267.8 149.9 L265.9 149.9 L264.0 149.9 L262.1 149.9 L260.2 149.9 L258.4 149.9 L256.5 149.9 L254.6 149.9 L254.2 149.9 L254.0 150.0 L254.0 150.0 L254.0 152.4 L254.0 154.8 L250.2 154.7 L250.1 154.8 L250.1 154.9 L250.3 155.0 L250.6 155.0 L250.7 155.1 L250.8 155.3 L250.9 155.3 L251.2 155.3 L251.4 155.3 L251.5 155.4 L251.6 155.5 L251.6 155.7 L251.6 155.8 L251.7 155.9 L251.8 155.9 L251.9 156.0 L252.0 156.0 L252.0 156.2 L252.0 156.2 L252.1 156.4 L252.4 156.7 L252.5 156.7 L252.7 156.7 L252.8 156.7 L252.8 156.8 L252.9 156.9 L252.9 157.0 L253.2 157.4 L253.3 157.5 L253.3 157.6 L253.4 157.7 L253.7 157.8 L253.8 157.9 L253.9 158.0 L253.9 158.0 L254.0 158.0 L254.0 157.9 L254.0 157.8 L254.0 157.8 L254.2 157.8 L254.3 157.8 L254.3 157.9 L254.2 158.0 L254.3 158.1 L254.6 158.3 L254.7 158.4 L255.3 158.6 L255.4 158.6 L255.5 158.5 L255.6 158.6 L255.6 158.7 L255.6 158.8 L255.7 158.9 L256.0 159.0 L256.2 159.1 L256.7 159.9 L256.9 160.2 L256.7 160.4 L256.7 160.5 L256.8 160.5 L256.9 160.4 L256.9 160.4 L256.9 160.4 L257.0 160.4 L257.0 160.6 L256.9 160.7 L257.0 160.8 L256.9 161.0 L257.0 161.0 L257.1 161.0 L257.2 161.1 L257.2 161.2 L257.2 161.2 L257.1 161.3 L257.0 161.4 L257.1 161.3 L257.3 161.3 L257.4 161.4 L257.5 161.4 L257.5 161.4 L257.7 161.3 L257.8 161.3 L257.8 161.5 L257.9 161.6 L258.1 161.5 L258.2 161.5 L258.3 161.6 L258.3 161.6 L258.4 161.7 L258.4 161.8 L258.4 161.8 L258.7 161.9 L258.7 161.9 L258.8 161.9 L258.9 162.0 L259.0 161.9 L259.0 161.9 L259.1 161.9 L259.1 162.0 L259.1 162.2 L259.1 162.2 L259.2 162.4 L259.1 162.3 L259.0 162.3 L258.9 162.4 L258.9 162.5 L258.9 162.5 L258.9 162.4 L259.0 162.4 L259.0 162.5 L259.0 162.7 L258.9 162.8 L258.7 162.8 L258.7 162.9 L258.7 162.9 L258.9 163.0 L258.9 163.0 L258.9 163.0 L258.9 163.1 L258.8 163.0 L258.7 163.0 L258.7 163.0 L258.7 163.1 L258.7 163.1 L258.7 163.1 L258.7 163.1 L258.8 163.2 L258.8 163.3 L258.7 163.2 L258.7 163.2 L258.6 163.2 L258.5 163.3 L258.5 163.4 L258.6 163.4 L258.7 163.5 L258.6 163.5 L258.5 163.6 L258.5 163.7 L258.5 163.9 L258.8 164.0 L258.8 164.1 L258.6 164.2 L258.6 164.2 L258.7 164.3 L258.5 164.5 L258.6 164.7 L258.6 164.7 L258.7 164.6 L258.7 164.6 L258.7 164.6 L258.7 164.6 L258.7 164.7 L258.7 164.8 L258.6 164.8 L258.6 164.8 L258.5 164.9 L258.3 164.9 L257.5 164.9 L256.3 164.9 L255.2 164.9 L254.0 164.9 L253.9 164.9 L252.8 164.9 L251.6 164.9 L250.4 164.9 L249.2 164.9 L248.1 164.9 L247.7 164.9 L247.5 165.0 L247.4 165.1 L247.2 165.4 L247.1 165.7 L246.7 166.4 L246.1 167.4 L245.4 168.5 L244.7 169.7 L244.4 170.2 L244.1 170.7 L243.7 171.4 L243.5 171.6 L243.5 171.8 L243.5 171.9 L243.6 172.1 L244.7 173.5 L244.5 173.9 L244.4 174.0 L244.3 174.0 L244.2 174.0 L244.1 174.0 L244.0 174.1 L243.9 174.4 L244.0 175.0 L243.9 175.2 L243.7 175.4 L243.7 175.5 L243.7 175.7 L243.7 175.8 L243.8 176.0 L243.8 176.0 L243.8 176.2 L243.8 176.2 L243.9 176.7 L243.9 176.8 L243.9 177.0 L243.7 177.3 L243.5 177.8 L243.4 178.0 L243.2 178.0 L243.1 178.0 L242.7 177.4 L242.0 176.8 L240.9 175.8 L239.3 174.1 L238.2 172.9 L238.1 172.7 L238.1 172.5 L238.2 172.6 L238.6 172.7 L238.7 172.8 L238.7 173.0 L238.7 173.1 L238.8 173.3 L239.0 173.3 L238.9 173.1 L238.8 172.8 L238.7 172.6 L238.6 172.6 L238.4 172.5 L238.2 172.4 L238.1 172.5 L238.1 172.3 L238.0 172.3 L237.9 172.4 L238.0 172.5 L237.9 172.5 L237.4 172.1 L237.0 171.9 L236.9 171.8 L236.7 171.6 L236.0 171.1 L235.3 170.2 L235.1 170.0 L235.0 169.9 L234.7 169.8 L232.7 168.1 L232.5 168.0 L231.1 166.9 L230.2 166.3 L228.6 165.4 L228.7 165.4 L228.9 165.4 L229.0 165.4 L229.1 165.5 L229.2 165.5 L229.3 165.4 L229.4 165.3 L229.2 165.1 L229.1 164.9 L229.0 164.8 L228.8 164.7 L227.8 164.4 L227.5 164.3 L227.4 164.2 L227.2 164.1 L227.1 164.0 L227.1 163.9 L227.0 163.6 L226.9 163.6 L226.7 163.6 L226.5 163.7 L226.2 163.8 L225.8 163.7 L225.5 163.5 L225.2 163.3 L225.0 163.1 L224.9 163.0 L224.7 163.0 L224.5 163.0 L224.5 163.1 L224.6 163.3 L224.5 163.4 L224.5 163.4 L224.4 163.4 L224.4 163.4 L224.4 163.5 L224.5 163.5 L224.6 163.5 L224.6 163.6 L224.5 163.6 L224.4 163.6 L225.2 164.1 L225.6 164.3 L225.8 164.2 L225.2 164.0 L225.2 164.0 L225.4 164.0 L225.8 164.1 L225.9 164.1 L226.2 164.1 L226.2 164.1 L226.4 164.2 L226.7 164.4 L226.7 164.4 L226.5 164.4 L226.5 164.5 L227.2 164.6 L227.4 164.7 L227.6 164.9 L227.9 165.2 L228.0 165.2 L228.3 165.4 L228.4 165.4 L228.4 165.5 L225.2 164.2 L225.0 164.2 L224.8 164.0 L224.4 163.9 L223.5 163.9 L223.6 163.9 L223.1 163.9 L222.9 163.9 L222.8 163.8 L222.6 163.8 L222.5 163.9 L222.1 163.8 L221.9 163.8 L221.9 163.7 L221.9 163.6 L222.0 163.5 L222.8 163.3 L223.1 163.1 L223.1 162.7 L223.0 162.6 L222.7 162.5 L222.6 162.5 L222.5 162.4 L222.4 162.4 L222.4 162.4 L222.3 162.4 L222.3 162.6 L222.3 162.6 L222.2 162.6 L222.1 162.6 L222.1 162.7 L222.0 162.7 L221.9 162.8 L221.9 162.8 L221.7 163.0 L221.6 163.0 L221.4 163.2 L221.3 163.3 L221.2 163.2 L221.2 163.1 L221.2 163.0 L221.3 162.9 L221.4 162.8 L221.5 162.7 L221.4 162.6 L221.3 162.4 L221.2 162.3 L221.2 162.3 L221.2 162.1 L221.1 162.1 L221.0 162.0 L220.9 161.9 L220.8 161.8 L220.6 161.9 L220.4 162.0 L220.2 162.1 L219.8 162.7 L219.8 162.7 L219.3 162.7 L219.3 162.9 L219.2 162.9 L219.1 162.9 L219.1 163.0 L219.0 163.1 L219.0 163.2 L219.2 163.3 L219.5 163.4 L219.8 163.4 L220.1 163.4 L220.4 163.4 L220.5 163.3 L220.7 163.3 L220.7 163.2 L220.9 163.1 L221.0 163.1 L221.0 163.2 L220.8 163.3 L220.4 163.4 L220.1 163.4 L220.4 163.5 L221.2 163.5 L221.5 163.6 L221.6 163.8 L221.5 163.8 L221.1 163.7 L220.4 163.7 L220.0 163.8 L219.6 163.8 L219.4 163.9 L219.0 163.9 L218.7 163.9 L218.5 163.9 L218.4 163.9 L218.3 163.9 L218.2 164.0 L218.2 164.0 L218.3 164.1 L218.2 164.1 L217.9 164.1 L217.8 164.2 L217.7 164.2 L217.5 164.2 L217.4 164.2 L217.4 164.4 L217.2 164.4 L217.1 164.5 L217.1 164.6 L217.1 164.6 L217.0 164.6 L216.9 164.7 L216.6 164.8 L216.5 164.8 L216.3 165.1 L216.3 165.3 L216.2 165.3 L216.1 165.4 L215.9 165.5 L215.9 165.6 L215.8 165.7 L215.3 165.7 L215.3 165.8 L214.6 165.9 L214.5 166.0 L214.3 166.0 L214.3 166.1 L213.9 166.3 L213.5 166.3 L213.2 166.3 L213.1 166.4 L212.9 166.5 L212.9 166.5 L212.9 166.6 L212.7 166.6 L212.5 166.7 L212.3 166.7 L212.0 166.8 L211.9 166.9 L211.3 167.0 L211.2 167.1 L210.9 167.2 L210.7 167.3 L210.5 167.3 L210.3 167.5 L210.2 167.5 L210.1 167.6 L210.0 167.6 L209.9 167.6 L209.9 167.6 L209.9 167.8 L209.2 168.1 L208.9 168.2 L208.5 168.2 L207.8 168.2 L207.5 168.2 L207.2 168.1 L207.1 168.2 L206.9 168.3 L206.8 168.4 L206.6 168.5 L206.4 168.4 L206.2 168.4 L206.2 168.4 L205.7 168.3 L205.1 168.0 L204.0 167.8 L203.7 167.8 L203.0 167.4 L202.4 167.2 L202.2 167.2 L201.9 167.0 L202.0 167.0 L201.8 166.7 L201.7 166.7 L201.5 166.6 L201.0 166.3 L200.6 166.2 L200.1 166.1 L199.9 166.1 L199.4 166.0 L199.2 166.1 L198.4 166.0 L197.8 165.8 L197.6 165.8 L197.1 165.7 L196.7 165.7 L196.6 165.8 L196.5 165.8 L196.2 165.8 L195.7 165.7 L195.6 165.6 L195.4 165.5 L195.2 165.4 L195.1 165.4 L195.0 165.3 L195.0 165.3 L194.8 165.2 L194.3 164.8 L193.9 164.6 L193.0 164.1 L192.7 164.0 L192.5 163.9 L192.3 163.7 L192.8 163.9 L193.1 163.9 L193.2 163.8 L193.1 163.8 L192.9 163.7 L192.8 163.6 L192.7 163.7 L192.5 163.6 L192.4 163.6 L192.4 163.6 L192.3 163.5 L192.3 163.5 L192.2 163.5 L192.2 163.5 L192.2 163.5 L192.1 163.6 L192.1 163.6 L191.9 163.6 L191.1 163.3 L190.0 163.1 L189.4 162.9 L189.2 162.9 L189.1 162.8 L189.0 162.8 L189.0 162.8 L188.9 162.7 L188.9 162.7 L188.9 162.7 L188.9 162.7 L188.9 162.6 L188.8 162.4 L188.5 162.2 L187.8 161.5 L187.5 161.1 L187.2 160.9 L187.2 160.8 L187.1 160.7 L187.0 160.8 L186.9 160.7 L186.8 160.8 L186.7 160.8 L186.6 160.8 L186.5 160.8 L186.5 160.9 L186.4 161.0 L186.4 161.0 L186.1 160.9 L186.0 160.9 L185.6 160.8 L184.0 160.3 L182.6 159.9 L182.0 159.8 L180.9 159.6 L180.4 159.6 L180.0 159.7 L179.7 159.6 L179.5 159.5 L179.3 159.4 L179.0 159.3 L178.8 159.2 L178.4 158.9 L178.1 158.7 L178.1 158.7 L178.0 158.8 L177.9 158.8 L177.9 158.7 L177.8 158.7 L177.9 158.6 L178.0 158.7 L178.0 158.6 L178.0 158.6 L177.9 158.6 L177.9 158.6 L177.8 158.6 L177.7 158.6 L177.7 158.5 L177.7 158.5 L177.7 158.4 L177.8 158.3 L177.8 158.4 L177.9 158.3 L177.9 158.3 L177.8 158.2 L177.7 158.2 L177.6 158.1 L177.5 158.2 L177.4 158.2 L177.4 158.3 L177.5 158.3 L177.5 158.3 L177.5 158.4 L177.3 158.4 L177.3 158.4 L177.2 158.2 L177.2 158.1 L177.0 157.9 L177.0 157.9 L176.7 157.7 L176.0 157.5 L175.6 157.4 L175.2 157.2 L174.6 157.0 L173.9 156.7 L171.8 156.0 L171.0 155.8 L170.5 155.6 L169.9 155.4 L169.4 155.2 L168.9 155.1 L168.4 154.9 L167.9 154.8 L167.6 154.6 L167.5 154.7 L167.5 154.6 L167.6 154.5 L167.5 154.3 L167.4 154.2 L167.1 153.9 L166.5 153.6 L166.4 153.4 L165.8 153.0 L165.0 152.8 L164.6 152.6 L164.1 152.4 L164.1 152.3 L164.2 152.3 L164.2 152.1 L164.2 152.0 L164.1 151.9 L163.8 151.7 L163.5 151.6 L163.3 151.7 L163.2 151.6 L163.1 151.6 L163.0 151.5 L162.9 151.5 L162.9 151.3 L162.7 151.3 L162.5 151.2 L162.5 150.9 L162.2 150.6 L162.0 150.4 L161.6 150.1 L161.5 149.9 L161.4 149.8 L161.4 149.6 L161.1 149.3 L160.7 149.1 L160.5 149.1 L160.0 148.8 L159.5 148.6 L159.1 148.4 L158.6 148.5 L158.5 148.6 L158.3 148.8 L158.2 148.9 L158.0 149.0 L157.9 149.1 L157.8 149.1 L157.5 148.9 L156.9 148.7 L155.8 148.4 L155.3 148.2 L155.0 148.2 L154.3 147.9 L153.5 147.9 L153.1 147.8 L151.9 147.3 L151.1 146.9 L150.6 146.7 L150.3 146.7 L149.9 146.7 L149.8 146.6 L149.6 146.6 L148.9 146.3 L148.8 146.4 L148.3 146.2 L148.2 146.1 L147.9 146.0 L147.7 146.1 L147.6 145.9 L147.2 145.7 L146.6 145.5 L146.3 145.1 L145.9 144.1 L145.6 143.8 L145.5 143.7 L145.4 143.6 L145.3 143.5 L145.2 143.4 L144.9 143.3 L144.8 143.3 L144.7 143.2 L144.9 142.9 L144.8 142.7 L144.5 142.5 L144.0 142.0 L142.7 141.0 L142.4 140.8 L141.5 140.4 L140.7 140.0 L140.2 139.8 L139.9 139.7 L139.7 139.7 L139.5 139.6 L139.4 139.6 L139.4 139.3 L139.6 139.3 L139.7 139.2 L139.6 139.1 L139.4 138.9 L139.3 138.9 L139.2 139.0 L139.2 138.9 L139.2 138.8 L139.1 138.7 L138.9 138.8 L138.9 138.8 L138.9 139.0 L138.8 139.0 L138.8 138.9 L138.7 138.8 L138.6 139.0 L138.5 139.1 L138.4 138.9 L138.1 138.7 L137.9 138.6 L137.2 138.5 L136.8 138.4 L136.5 138.2 L136.4 138.2 L136.3 138.1 L136.3 138.0 L136.2 137.9 L136.1 138.0 L136.0 137.9 L136.0 137.9 L136.0 137.8 L136.0 137.8 L135.9 137.8 L135.8 137.8 L135.6 137.8 L135.4 137.8 L135.3 137.8 L135.3 137.6 L135.4 137.3 L135.4 137.2 L135.2 137.2 L135.2 137.2 L135.0 137.3 L135.0 137.3 L134.9 137.3 L134.8 137.3 L134.8 137.3 L134.7 137.4 L134.0 137.0 L133.7 136.8 L133.5 136.6 L133.4 136.2 L133.3 136.0 L133.1 135.9 L133.1 135.8 L133.1 135.7 L133.1 135.6 L133.0 135.5 L133.0 135.5 L132.9 135.4 L132.9 134.9 L132.7 134.7 L132.5 134.7 L132.4 134.7 L132.4 134.7 L132.2 134.6 L132.0 134.5 L131.5 134.0 L131.1 133.6 L130.6 132.8 L130.4 132.6 L130.3 132.4 L130.2 132.3 L130.0 132.1 L129.9 132.0 L129.7 131.6 L129.2 130.9 L129.1 130.7 L129.1 130.6 L129.0 130.5 L129.0 130.4 L129.0 130.0 L128.9 129.4 L128.9 129.3 L128.8 129.2 L128.7 129.1 L128.6 129.1 L128.4 128.8 L128.3 128.6 L128.0 128.5 L127.9 128.1 L127.7 127.9 L127.7 127.7 L127.8 127.5 L128.7 127.0 L129.1 126.9 L129.7 126.9 L129.8 126.9 L130.0 126.8 L130.6 126.8 L130.8 126.8 L131.1 126.6 L131.2 126.4 L131.4 126.4 L131.5 126.3 L131.6 126.2 L131.6 126.0 L131.7 125.7 L131.5 125.5 L131.2 125.4 L131.0 124.9 L130.7 124.7 L130.6 124.6 L130.5 124.7 L130.3 124.8 L130.1 124.9 L129.9 124.7 L129.6 124.7 L129.3 124.6 L129.1 124.7 L129.0 124.6 L129.1 124.5 L129.2 124.4 L129.2 124.4 L129.3 124.4 L129.5 124.3 L129.6 124.1 L129.7 124.0 L129.7 123.8 L129.8 123.7 L129.8 123.7 L129.9 123.7 L130.0 123.5 L130.2 123.2 L130.5 123.0 L130.6 122.9 L130.6 122.8 L130.8 122.7 L130.9 122.6 L130.9 122.4 L131.0 122.3 L131.1 122.3 L131.2 122.4 L131.3 122.4 L131.3 122.4 L131.5 122.2 L131.7 122.1 L131.7 121.8 L131.7 121.6 L131.6 121.5 L131.7 121.2 L131.7 121.0 L131.8 120.8 L131.7 120.1 L131.6 119.6 L131.7 119.2 L131.8 119.1 L131.9 118.8 L132.1 118.8 L132.1 118.7 L132.0 118.5 L131.9 118.3 L131.9 118.2 L131.8 118.1 L131.7 118.1 L131.6 118.1 L131.5 118.2 L131.4 118.2 L131.3 118.0 L130.9 117.9 L130.3 117.5 L130.1 117.4 L129.8 117.2 L129.7 116.8 L128.9 115.5 L128.2 114.4 L128.1 114.1 L128.0 113.6 L128.1 112.4 L128.0 111.8 L127.8 111.0 L127.6 110.4 L127.5 109.9 L127.4 109.7 L127.5 109.6 L127.5 109.5 L127.4 109.3 L127.3 109.3 L127.2 109.4 L127.2 109.4 L127.1 108.9 L126.8 108.5 L126.1 107.9 L125.7 107.4 L125.6 107.3 L125.2 107.1 L125.2 107.0 L125.1 107.0 L125.1 107.0 L125.1 106.9 L125.0 106.9 L125.2 106.6 L125.1 106.7 L125.0 106.7 L124.9 106.8 L124.8 106.9 L123.2 105.0 L123.1 104.9 L123.0 104.9 L122.9 104.8 L122.7 104.7 L121.9 103.8 L121.7 103.8 L121.6 103.8 L121.6 103.8 L121.5 103.9 L121.4 103.8 L121.4 103.7 L121.4 103.4 L121.3 103.3 L121.0 102.9 L120.9 102.8 L120.9 102.7 L121.0 102.6 L121.0 102.6 L120.9 102.5 L120.9 102.5 L120.9 102.5 L120.6 101.9 L120.5 101.8 L120.3 101.8 L120.2 101.7 L119.8 101.4 L119.8 101.3 L119.7 101.3 L119.6 101.1 L119.6 101.0 L119.4 100.9 L119.2 100.7 L119.0 100.5 L118.8 100.2 L118.6 100.1 L118.3 100.0 L118.2 99.8 L118.1 99.4 L118.0 99.2 L117.8 99.1 L117.7 98.9 L117.6 98.6 L117.3 98.1 L116.2 97.0 L115.8 96.7 L115.6 96.6 L115.5 96.6 L115.0 96.2 L113.8 95.4 L113.2 95.0 L113.2 95.0 L113.1 94.7 L113.0 94.7 L112.7 94.5 L112.4 94.3 L111.8 93.8 L109.8 92.7 L109.7 92.6 L109.6 92.4 L109.6 92.3 L109.7 92.3 L109.8 92.4 L109.8 92.4 L109.9 92.5 L109.9 92.5 L109.9 92.6 L109.9 92.6 L110.6 93.0 L110.7 93.0 L111.8 93.7 L112.0 93.7 L112.1 93.8 L112.2 93.9 L112.1 93.8 L111.9 93.6 L111.7 93.6 L111.8 93.5 L111.9 93.6 L112.2 93.7 L112.2 93.7 L112.3 93.7 L112.3 93.6 L112.2 93.6 L112.2 93.6 L112.2 93.6 L112.2 93.5 L112.3 93.5 L112.4 93.4 L112.4 93.2 L112.4 93.1 L112.0 92.4 L111.9 92.3 L111.8 92.3 L111.7 92.3 L111.5 92.3 L111.4 92.4 L111.3 92.5 L111.4 92.5 L111.7 92.4 L111.7 92.5 L111.7 92.5 L111.5 92.7 L111.4 92.8 L111.1 92.9 L111.0 92.8 L110.9 92.6 L110.7 92.5 L110.5 92.6 L110.4 92.6 L110.4 92.6 L110.3 92.6 L110.1 92.5 L110.1 92.4 L110.1 92.3 L110.1 92.2 L110.0 92.2 L110.0 92.1 L109.9 92.1 L109.8 92.0 L109.4 91.7 L109.3 91.7 L109.2 91.7 L109.0 91.6 L108.9 91.5 L108.7 91.4 L108.4 91.3 L108.5 91.4 L108.6 91.5 L108.7 91.6 L108.9 91.8 L109.1 91.9 L109.5 92.1 L109.6 92.3 L109.3 92.2 L108.7 91.9 L107.9 91.3 L107.9 91.1 L107.8 91.0 L107.8 90.7 L107.7 90.5 L107.7 90.4 L107.6 90.3 L107.5 90.2 L107.4 90.2 L107.4 90.1 L107.4 90.1 L107.4 90.0 L107.5 90.0 L107.6 90.1 L107.7 90.2 L107.8 90.2 L107.9 90.3 L108.1 90.3 L108.1 90.1 L108.1 90.0 L108.0 89.8 L107.9 89.7 L107.8 89.6 L107.9 89.5 L107.9 89.4 L107.9 89.1 L107.9 89.0 L107.9 88.9 L108.0 88.6 L107.9 88.5 L107.6 88.2 L107.5 88.2 L107.5 88.4 L107.6 88.8 L107.6 88.9 L107.6 88.9 L107.6 89.0 L107.6 89.3 L107.6 89.6 L107.5 89.7 L107.5 89.8 L107.4 89.7 L107.4 89.7 L107.3 89.7 L107.3 89.7 L107.2 89.6 L107.2 89.7 L107.2 89.7 L107.2 89.8 L106.8 89.6 L106.6 89.2 L105.9 88.0 L105.7 87.7 L105.4 87.5 L105.2 87.4 L105.1 87.4 L105.1 87.3 L105.3 87.3 L105.5 87.3 L105.6 87.4 L105.7 87.5 L106.2 88.1 L106.3 88.3 L106.3 88.4 L106.4 88.4 L106.4 88.4 L106.5 88.3 L106.5 88.3 L106.7 88.4 L106.7 88.5 L106.8 88.4 L106.8 88.4 L106.8 88.2 L106.8 88.1 L106.7 88.1 L106.6 88.1 L106.5 88.0 L106.5 88.0 L106.6 87.8 L106.6 87.8 L106.7 87.7 L106.7 87.7 L106.8 87.7 L106.8 87.8 L107.0 88.0 L107.1 88.1 L107.5 88.1 L107.8 88.2 L107.9 88.2 L107.9 88.1 L107.9 88.0 L107.0 87.2 L106.9 87.2 L106.7 87.2 L106.8 87.2 L106.8 87.3 L106.7 87.3 L106.6 87.3 L106.5 87.3 L106.4 87.3 L106.3 87.1 L106.1 86.8 L106.0 86.7 L105.9 86.8 L105.8 86.8 L105.7 86.9 L105.6 86.8 L105.5 86.9 L105.3 86.9 L105.0 86.8 L104.9 86.8 L104.8 86.5 L104.9 86.5 L104.9 86.5 L105.1 86.6 L105.2 86.6 L105.2 86.5 L105.2 86.3 L105.2 86.2 L105.1 86.1 L104.9 86.0 L104.8 85.9 L104.6 86.8 L104.5 87.0 L104.5 86.9 L104.5 86.5 L104.5 86.4 L104.4 86.2 L104.3 86.1 L104.2 86.0 L104.0 85.9 L103.1 85.6 L102.6 85.3 L102.3 85.2 L101.9 85.2 L101.6 85.2 L101.8 85.0 L102.2 85.0 L102.8 85.2 L102.6 85.1 L102.3 84.9 L102.0 84.8 L101.5 84.9 L101.3 85.0 L101.2 84.8 L101.6 84.8 L101.6 84.7 L101.5 84.6 L101.5 84.5 L101.5 84.5 L101.5 84.4 L101.4 84.4 L101.4 84.4 L101.3 84.5 L101.2 84.5 L101.3 84.2 L101.3 84.1 L101.3 83.7 L101.3 83.6 L101.2 83.6 L101.2 83.6 L101.1 83.6 L100.8 83.5 L100.8 83.5 L100.8 83.5 L100.8 83.4 L100.7 83.4 L100.7 83.4 L100.6 83.4 L100.5 83.5 L100.4 83.4 L100.3 83.4 L100.2 83.4 L100.2 83.6 L100.2 83.7 L100.3 83.7 L100.3 83.8 L100.3 83.9 L100.3 84.0 L100.3 84.0 L100.2 84.1 L100.2 84.1 L100.0 84.2 L99.9 84.2 L99.8 84.2 L99.7 84.0 L99.8 84.1 L99.8 84.0 L99.9 84.0 L99.8 83.9 L99.7 83.9 L99.3 83.9 L99.2 84.0 L99.2 84.1 L99.3 84.2 L99.0 84.2 L98.7 84.1 L98.3 83.6 L98.5 83.5 L98.6 83.5 L98.6 83.4 L98.7 83.3 L98.7 83.2 L98.8 83.2 L99.1 83.3 L99.2 83.3 L99.3 83.3 L99.3 83.3 L99.4 83.5 L99.5 83.6 L99.5 83.6 L99.5 83.5 L99.6 83.4 L99.6 83.4 L99.6 83.3 L99.6 83.2 L99.6 83.2 L99.7 83.2 L100.1 82.7 L100.2 82.6 L100.2 82.6 L100.2 82.5 L100.2 82.5 L100.2 82.5 L100.2 82.4 L100.3 82.4 L100.3 82.4 L100.3 82.4 L100.3 82.1 L100.4 81.9 L100.7 81.6 L100.8 81.5 L100.7 81.3 L100.6 81.4 L100.4 81.8 L100.3 81.9 L100.2 82.2 L100.0 82.3 L99.8 82.4 L99.4 82.5 L99.2 82.7 L99.0 83.0 L98.8 83.2 L98.6 83.1 L98.3 83.2 L98.2 83.2 L98.1 83.1 L98.0 82.9 L97.9 82.7 L97.8 82.7 L97.8 82.6 L97.7 82.6 L97.4 82.5 L97.2 82.3 L97.1 82.4 L97.2 82.5 L97.2 82.6 L97.3 82.6 L97.9 83.1 L98.0 83.3 L98.0 83.5 L97.8 83.3 L97.6 83.0 L97.4 82.8 L97.1 82.7 L96.1 82.8 L95.8 82.7 L96.0 82.6 L96.2 82.5 L96.5 82.5 L96.7 82.6 L96.7 82.4 L96.7 82.3 L96.8 82.2 L96.8 82.2 L96.9 82.1 L96.8 82.1 L96.8 82.1 L96.8 82.0 L96.8 82.0 L96.7 81.9 L96.6 81.8 L96.4 81.7 L96.2 81.7 L96.1 81.7 L96.0 81.7 L95.9 81.8 L95.9 82.3 L95.9 82.4 L95.8 82.3 L95.8 82.1 L95.9 81.9 L95.8 81.7 L95.8 81.6 L95.6 81.6 L95.5 81.4 L95.6 81.2 L95.7 80.9 L95.7 80.8 L95.7 80.8 L95.7 80.7 L95.7 80.5 L95.7 80.5 L95.6 80.3 L95.6 80.1 L95.5 80.0 L95.6 79.6 L95.6 79.5 L95.9 79.0 L96.2 78.7 L96.4 78.5 L96.5 78.1 L96.8 77.6 L97.0 77.3 L97.0 77.1 L97.1 77.0 L97.1 77.1 L97.2 77.2 L97.1 77.3 L97.0 77.4 L97.0 77.5 L96.9 77.5 L96.9 77.6 L96.9 77.6 L96.8 77.7 L96.9 77.9 L96.8 78.0 L96.8 78.1 L96.8 78.2 L96.8 78.2 L96.9 78.3 L97.0 78.2 L97.0 78.1 L97.1 77.8 L97.3 77.4 L97.4 77.2 L97.4 76.8 L97.5 76.7 L97.6 76.7 L97.8 76.7 L97.9 76.8 L98.0 77.0 L98.0 77.1 L97.9 77.3 L97.8 77.3 L97.8 77.4 L98.0 77.5 L98.4 77.8 L98.5 77.8 L98.5 77.7 L98.4 77.5 L98.4 77.4 L98.5 77.3 L98.5 77.3 L98.6 77.3 L98.6 77.2 L98.3 77.2 L98.1 76.8 L98.0 76.5 L97.7 76.4 L97.8 76.4 L97.8 76.5 L97.8 76.5 L97.9 76.6 L97.7 76.5 L97.6 76.5 L97.5 76.5 L97.3 76.8 L97.2 76.8 L97.1 76.6 L97.3 76.0 L97.2 75.7 L97.1 75.4 L96.9 75.2 L96.6 74.8 L96.2 74.5 L96.0 74.2 L95.7 74.0 L95.5 73.9 L95.2 73.8 L95.2 73.8 L95.3 73.8 L95.4 73.8 L95.6 73.9 L95.6 73.7 L95.5 73.7 L95.6 73.6 L95.5 73.5 L95.4 73.5 L95.3 73.5 L95.2 73.4 L95.2 73.3 L95.1 73.3 L95.0 73.4 L94.9 73.2 L94.8 73.2 L94.7 73.3 L94.6 73.4 L94.6 73.5 L94.6 73.5 L94.7 73.5 L94.8 73.6 L94.9 73.6 L94.8 73.7 L94.8 73.7 L95.0 73.8 L95.1 73.8 L95.1 73.9 L94.8 73.8 L94.1 73.7 L93.8 73.7 L93.6 73.8 L93.6 73.9 L93.4 73.8 L93.1 73.7 L92.7 73.6 L92.6 73.5 L92.2 73.1 L92.0 72.8 L91.9 72.5 L91.8 72.2 L91.7 72.0 L91.6 71.7 L91.6 71.6 L91.5 71.5 L91.2 71.1 L91.2 71.0 L91.3 71.1 L91.6 71.4 L91.7 71.6 L91.5 71.1 L91.5 70.9 L91.4 70.5 L91.1 70.2 L91.0 70.1 L90.9 70.1 L90.7 70.0 L90.6 70.0 L90.5 70.0 L90.5 70.1 L90.4 70.1 L90.4 70.2 L90.3 70.3 L90.2 70.4 L90.0 70.2 L89.4 70.0 L89.1 70.0 L88.9 69.9 L88.7 69.9 L88.5 69.8 L88.3 69.8 L88.0 69.6 L87.8 69.6 L87.5 69.3 L87.3 69.0 L86.9 68.7 L86.7 68.6 L86.4 68.6 L86.2 68.6 L86.2 68.5 L86.5 68.5 L86.7 68.5 L87.0 68.5 L87.1 68.5 L86.9 68.3 L86.7 68.1 L86.6 68.0 L86.6 67.9 L86.7 67.9 L86.7 67.8 L86.5 67.8 L86.5 67.8 L86.4 67.7 L86.3 67.8 L86.2 67.9 L86.1 67.9 L86.0 67.8 L86.0 67.8 L86.0 67.5 L85.9 67.3 L85.7 67.2 L85.7 66.7 L85.6 66.4 L85.3 65.8 L85.3 65.6 L85.4 65.4 L85.6 65.4 L85.8 65.3 L85.9 65.2 L85.8 65.1 L85.7 65.0 L85.6 65.1 L85.5 65.2 L85.6 64.9 L85.7 64.9 L85.8 64.8 L85.9 64.8 L86.0 64.8 L86.0 64.7 L85.7 64.7 L85.6 64.6 L85.6 64.5 L85.7 64.3 L85.5 64.2 L85.5 64.2 L85.4 64.1 L85.5 64.0 L85.5 64.1 L85.6 64.1 L85.7 64.0 L85.7 63.9 L85.7 63.9 L85.8 63.9 L86.3 63.8 L86.4 63.7 L86.3 63.6 L86.2 63.6 L85.6 63.4 L85.4 63.4 L85.5 63.5 L85.5 63.6 L85.4 63.6 L85.1 63.4 L85.0 63.3 L84.4 63.2 L84.1 63.2 L83.8 63.2 L83.4 63.3 L83.4 63.2 L83.5 63.2 L83.8 63.1 L83.7 63.0 L83.7 62.9 L83.7 62.8 L83.7 62.7 L83.6 62.6 L83.5 62.6 L83.4 62.6 L83.4 62.6 L83.4 62.9 L83.3 63.0 L83.3 63.2 L83.1 63.3 L83.2 63.3 L83.3 63.3 L83.3 63.4 L83.3 63.5 L83.3 63.6 L83.2 63.8 L83.1 63.9 L83.1 63.8 L83.0 63.8 L82.8 63.5 L82.8 63.5 L82.7 63.5 L82.6 63.4 L82.6 63.4 L82.5 63.4 L82.5 63.3 L82.4 63.3 L82.5 63.2 L82.6 63.2 L82.7 63.2 L82.5 63.0 L82.3 62.9 L82.1 62.8 L82.0 62.8 L81.8 62.8 L81.6 63.0 L81.4 63.0 L81.2 63.0 L81.3 62.9 L81.3 62.9 L81.2 62.8 L81.1 62.7 L81.0 62.7 L80.9 62.6 L80.7 62.6 L80.6 62.4 L80.4 62.3 L80.2 62.1 L80.0 62.0 L79.9 61.8 L79.7 61.7 L79.6 61.4 L79.3 61.1 L79.2 60.7 L79.1 60.6 L79.1 60.6 L79.0 60.6 L78.9 60.6 L78.9 60.6 L78.9 60.5 L78.8 60.4 L78.8 60.2 L78.8 60.1 L78.4 59.8 L78.3 59.7 L78.2 59.5 L78.3 59.4 L78.3 59.3 L78.4 59.1 L78.1 59.2 L77.7 59.1 L77.1 58.9 L76.6 58.7 L76.4 58.6 L76.2 58.5 L76.1 58.5 L75.9 58.2 L75.8 57.8 L75.6 57.5 L74.2 56.3 L74.1 56.1 L74.0 56.0 L74.0 55.9 L74.1 55.9 L74.2 55.9 L74.4 55.8 L74.5 55.8 L74.5 55.9 L74.6 55.9 L74.6 56.0 L74.7 56.0 L74.7 56.0 L74.8 55.9 L74.8 55.8 L74.8 55.7 L74.7 55.6 L74.6 55.6 L74.4 55.6 L74.2 55.6 L74.0 55.4 L73.8 55.2 L73.5 55.1 L73.3 55.1 L73.3 54.9 L73.1 54.9 L73.2 54.8 L73.0 54.7 L72.8 54.5 L72.8 54.4 L72.7 54.3 L72.6 54.2 L72.6 54.2 L72.4 54.2 L72.3 54.2 L72.1 54.2 L72.1 54.1 L72.2 54.1 L72.2 54.0 L72.2 53.9 L72.2 53.8 L72.1 53.5 L72.1 53.3 L72.0 53.2 L72.0 53.2 L72.1 53.0 L72.1 52.9 L72.1 52.8 L72.0 52.7 L71.9 52.5 L71.9 52.4 L71.8 52.3 L71.6 52.3 L71.7 51.9 L71.7 51.7 L71.6 51.5 L71.5 51.2 L71.3 51.0 L70.9 51.0 L70.8 51.1 L70.7 51.1 L70.7 51.2 L70.7 51.2 L70.7 51.3 L70.6 51.3 L70.5 51.1 L70.2 51.0 L70.0 50.9 L70.0 50.7 L70.1 50.4 L70.2 50.1 L70.3 49.9 L70.3 49.7 L70.2 49.6 L70.1 49.6 L70.0 49.5 L69.9 49.4 L69.9 49.2 L69.8 49.1 L69.5 48.9 L69.2 48.6 L69.0 48.1 L69.0 48.0 L68.9 47.9 L68.7 47.9 L68.6 47.7 L68.5 47.6 L68.4 47.3 L68.3 47.1 L68.2 46.9 L68.1 46.8 L67.9 46.3 L67.8 46.2 L67.7 46.1 L67.6 46.1 L67.5 46.1 L67.3 46.1 L67.1 46.1 L67.1 45.9 L67.2 45.8 L67.2 45.6 L67.2 45.4 L67.3 45.2 L67.2 45.1 L67.1 44.9 L67.0 44.8 L67.0 44.6 L67.1 44.2 L67.1 43.7 L67.0 43.5 L66.9 43.3 L66.7 43.2 L66.6 43.1 L66.4 43.0 L66.4 43.0 L66.3 43.0 L66.2 43.0 L66.2 43.0 L66.3 42.8 L66.3 42.6 L66.3 42.2 L66.2 41.9 L66.1 41.6 L65.7 41.2 L65.1 40.7 L64.6 40.1 L64.3 39.5 L64.0 38.6 L63.9 38.3 L64.0 38.1 L64.1 37.5 L64.1 37.2 L64.1 36.9 L63.8 36.3 L63.8 36.2 L63.9 36.1 L64.0 36.2 L64.0 36.3 L64.1 36.5 L64.2 36.8 L64.3 36.8 L64.3 36.7 L64.5 36.4 L64.5 36.0 L64.5 35.6 L64.5 35.4 L64.4 35.2 L64.2 35.0 L64.0 34.8 L63.7 34.8 L63.7 34.9 L63.9 35.0 L64.0 35.0 L63.9 35.1 L63.8 35.0 L63.6 34.9 L63.3 34.8 L63.2 34.6 L63.1 34.5 L63.0 34.2 L62.9 34.2 L62.7 34.3 L62.6 34.3 L62.7 34.5 L62.8 34.5 L62.9 34.5 L63.0 34.6 L62.9 34.6 L62.6 34.6 L61.2 34.3 L60.8 34.2 L60.3 34.2 L60.2 34.0 L59.9 33.9 L59.6 33.9 L59.4 33.8 L59.5 33.7 L59.7 33.7 L59.7 33.7 L59.6 33.4 L59.5 33.0 L59.5 32.7 L59.3 32.4 L58.8 32.1 L58.5 32.0 L58.3 31.9 L58.1 31.9 L57.7 31.7 L57.4 31.6 L57.4 31.4 L57.1 31.5 L57.0 31.5 L56.9 31.6 L56.7 31.4 L56.7 31.1 L56.6 31.0 L56.5 31.1 L56.6 31.6 L56.5 31.7 L56.6 31.7 L56.7 31.8 L56.7 31.7 L56.7 31.7 L56.8 31.8 L56.8 31.9 L56.7 31.9 L56.6 32.0 L56.5 32.1 L56.4 32.2 L56.3 32.2 L56.3 32.3 L56.3 32.3 L56.2 32.4 L56.1 32.5 L55.8 32.5 L55.4 32.5 L55.0 32.5 L54.6 32.3 L54.4 32.2 L54.2 32.1 L53.9 32.0 L53.8 31.9 L53.7 31.8 L53.6 31.7 L53.6 31.6 L53.3 31.5 L52.8 31.3 L52.7 31.2 L52.5 31.1 L52.4 31.0 L52.1 30.9 L51.7 30.5 L51.4 30.2 L51.2 30.1 L50.6 30.1 L50.5 30.1 L50.4 30.1 L50.2 29.9 L50.2 29.9 L50.1 29.9 L50.0 29.8 L49.9 29.7 L49.6 29.7 L49.5 29.7 L49.4 29.6 L49.1 29.3 L49.0 29.3 L48.9 29.2 L48.4 28.9 L48.4 28.9 L48.2 28.8 L48.1 28.8 L48.0 28.8 L47.9 28.8 L47.7 28.7 L47.7 28.7 L47.7 28.6 L47.6 28.5 L47.6 28.4 L47.5 28.4 L47.5 28.4 L47.5 28.5 L47.5 28.6 L47.7 28.8 L47.7 28.9 L47.8 28.9 L47.8 28.9 L48.1 29.0 L48.2 29.0 L48.3 29.1 L48.5 29.2 L48.5 29.3 L48.7 29.4 L48.9 29.5 L49.0 29.6 L49.1 29.8 L49.2 29.8 L49.3 29.9 L49.4 30.5 L49.4 30.7 L49.6 30.9 L49.7 31.1 L49.6 31.2 L49.3 31.6 L49.2 31.8 L49.1 32.2 L49.1 33.4 L48.9 33.9 L48.9 34.4 L48.8 35.1 L48.7 35.3 L48.8 35.7 L49.0 35.9 L49.2 36.1 L49.4 36.3 L49.4 36.3 L49.2 36.5 L49.2 36.7 L49.3 36.8 L49.5 36.9 L50.1 37.1 L50.2 37.2 L50.2 37.3 L50.2 37.3 L50.3 37.4 L50.3 37.7 L50.3 37.8 L50.3 37.9 L50.3 38.0 L50.3 38.1 L50.4 38.3 L50.4 38.6 L50.4 38.8 L50.5 38.9 L50.4 39.0 L50.3 39.2 L50.4 39.4 L50.4 39.5 L50.4 39.8 L50.5 40.1 L50.7 40.4 L50.8 40.5 L50.8 40.6 L50.8 40.7 L50.8 40.8 L50.9 40.9 L51.0 41.0 L51.0 41.2 L50.9 41.3 L50.9 41.5 L51.0 41.6 L50.9 41.9 L50.9 42.1 L50.9 42.2 L50.9 42.6 L50.8 42.7 L50.8 42.8 L50.8 42.9 L50.9 43.0 L50.8 43.1 L50.8 43.3 L50.8 43.5 L50.7 43.6 L50.7 43.7 L50.8 43.8 L50.9 44.0 L51.0 44.1 L51.0 44.2 L51.0 44.3 L51.2 44.3 L51.3 44.5 L51.4 44.7 L51.4 44.9 L51.6 45.1 L51.7 45.4 L51.8 45.6 L52.2 45.7 L52.3 46.0 L52.4 46.1 L52.7 46.1 L52.8 46.2 L52.9 46.3 L52.8 46.5 L52.9 46.7 L53.0 46.8 L52.9 46.8 L52.9 46.8 L52.9 46.9 L53.0 46.9 L53.0 47.0 L53.0 47.0 L53.0 47.2 L53.1 47.2 L53.2 47.3 L53.3 47.3 L53.3 47.3 L53.4 47.4 L53.4 47.4 L53.5 47.5 L53.6 47.5 L53.8 47.5 L53.8 47.5 L53.9 47.5 L53.9 47.4 L53.9 47.4 L53.9 47.4 L53.9 47.3 L53.9 47.3 L53.9 47.3 L54.0 47.3 L54.0 47.3 L54.0 47.3 L54.0 47.3 L54.1 47.3 L54.1 47.3 L54.1 47.3 L54.1 47.3 L54.2 47.4 L54.2 47.3 L54.3 47.3 L54.4 47.4 L54.4 47.4 L54.5 47.5 L54.5 47.5 L54.6 47.5 L54.6 47.5 L54.7 47.6 L54.7 47.7 L54.7 47.7 L54.8 47.7 L54.8 47.8 L54.8 47.8 L54.8 47.8 L54.9 47.8 L54.9 47.9 L55.0 47.9 L55.0 47.9 L55.0 48.0 L55.1 47.9 L55.1 47.9 L55.2 48.0 L55.2 48.0 L55.2 48.1 L55.2 48.1 L55.3 48.1 L55.4 48.2 L55.4 48.2 L55.4 48.3 L55.5 48.3 L55.6 48.4 L55.7 48.4 L55.8 48.5 L55.9 48.6 L55.9 48.6 L55.9 48.7 L56.0 48.8 L56.1 48.8 L56.1 48.8 L56.1 48.8 L56.2 48.9 L56.2 48.9 L56.3 48.9 L56.3 48.9 L56.4 48.9 L56.5 49.0 L56.6 49.1 L56.7 49.2 L56.7 49.2 L56.8 49.3 L56.9 49.4 L57.0 49.4 L57.0 49.5 L57.1 49.6 L57.3 49.7 L57.4 49.8 L57.5 49.9 L57.7 49.9 L57.8 50.0 L57.8 50.0 L57.8 50.1 L57.9 50.2 L58.0 50.2 L58.1 50.2 L58.1 50.3 L58.2 50.3 L58.3 50.4 L59.1 51.2 L59.4 51.4 L59.5 51.5 L59.5 51.6 L59.6 51.7 L59.6 51.7 L59.5 51.8 L59.4 51.9 L59.3 52.0 L59.3 52.1 L59.4 52.1 L59.5 52.2 L59.5 52.3 L59.5 52.4 L59.6 52.4 L59.6 52.4 L59.6 52.5 L59.7 52.5 L59.7 52.5 L59.7 52.6 L59.8 52.7 L59.9 52.8 L60.0 52.8 L60.1 52.9 L60.1 53.1 L60.3 53.3 L60.4 53.4 L60.3 53.5 L60.2 53.6 L60.2 53.6 L60.1 53.7 L60.1 53.8 L60.1 53.9 L60.2 53.9 L60.3 54.1 L60.3 54.2 L60.2 54.3 L60.2 54.3 L60.3 54.5 L60.3 54.6 L60.4 54.7 L60.5 54.7 L60.5 54.8 L60.6 54.8 L60.8 54.8 L60.9 54.8 L60.9 54.7 L60.9 54.6 L60.8 54.6 L60.8 54.5 L60.8 54.5 L60.8 54.4 L60.9 54.3 L60.9 54.3 L61.0 54.3 L61.1 54.4 L61.2 54.3 L61.2 54.2 L61.3 54.3 L61.3 54.4 L61.4 54.5 L61.5 54.5 L61.5 54.5 L61.6 54.4 L61.7 54.4 L61.6 54.5 L61.6 54.5 L61.6 54.6 L61.8 54.7 L61.8 54.7 L61.7 54.7 L61.7 54.8 L61.8 54.9 L61.8 54.9 L61.9 55.0 L61.8 55.0 L61.8 55.1 L61.8 55.2 L61.8 55.3 L61.8 55.4 L61.9 55.4 L61.9 55.6 L62.1 55.6 L62.3 55.6 L62.4 55.5 L62.5 55.4 L62.5 55.4 L62.7 55.3 L62.7 55.3 L63.0 55.3 L63.1 55.4 L63.1 55.5 L63.1 55.6 L63.2 55.6 L63.3 55.7 L63.3 55.8 L63.3 55.8 L63.3 55.9 L63.3 56.1 L63.4 56.3 L63.5 56.3 L63.5 56.5 L63.6 56.8 L63.8 57.0 L63.9 57.1 L63.8 57.3 L63.9 57.5 L64.0 57.6 L64.0 57.8 L64.0 57.9 L64.1 58.1 L64.3 58.2 L64.3 58.3 L64.4 58.4 L64.6 58.4 L64.7 58.5 L65.0 58.6 L65.2 58.6 L65.6 58.5 L65.8 58.4 L66.0 58.5 L65.9 58.6 L66.0 58.6 L66.0 58.6 L66.0 58.7 L66.0 58.7 L66.1 58.8 L66.2 58.7 L66.2 58.7 L66.3 58.7 L66.3 58.8 L66.3 58.8 L66.2 58.9 L66.2 59.0 L66.2 59.1 L66.3 59.2 L66.2 59.3 L66.1 59.6 L66.0 59.8 L66.1 59.9 L66.1 60.0 L66.1 60.1 L66.2 60.2 L66.3 60.3 L66.4 60.4 L66.6 60.7 L66.7 60.7 L66.8 60.7 L66.8 60.8 L66.7 60.8 L66.7 60.9 L66.7 61.0 L66.7 61.1 L66.6 61.2 L66.6 61.4 L66.7 61.7 L66.7 61.8 L66.8 61.8 L66.8 61.9 L66.7 62.0 L66.7 62.1 L66.6 62.2 L66.7 62.3 L66.8 62.4 L67.0 62.5 L67.0 62.5 L67.0 62.6 L67.1 62.7 L67.1 62.8 L67.0 63.0 L67.0 63.2 L67.0 63.3 L67.0 63.3 L67.0 63.4 L67.0 63.4 L67.0 63.5 L66.9 63.6 L67.0 63.8 L67.2 63.9 L67.2 63.9 L67.3 64.0 L67.3 64.0 L67.4 64.0 L67.4 64.0 L67.4 64.1 L67.4 64.2 L67.4 64.3 L67.5 64.4 L67.5 64.5 L67.5 64.6 L67.6 64.7 L67.7 64.8 L67.8 64.9 L67.9 64.9 L67.9 65.0 L68.0 65.0 L68.0 65.0 L68.1 65.0 L68.1 65.1 L68.2 65.2 L68.2 65.2 L68.4 65.3 L68.4 65.4 L68.7 65.5 L68.9 65.6 L69.0 65.6 L69.1 65.7 L69.3 65.7 L69.4 65.7 L69.4 65.8 L69.5 65.9 L69.6 65.9 L70.0 66.0 L70.1 66.1 L70.4 66.2 L70.5 66.4 L70.5 66.5 L70.7 66.6 L70.8 66.8 L70.8 67.1 L70.8 67.2 L70.9 67.4 L71.0 67.6 L71.0 67.7 L71.0 67.8 L71.1 67.9 L71.2 68.0 L71.3 68.1 L71.3 68.2 L71.5 68.3 L71.5 68.4 L71.6 68.6 L71.7 68.6 L71.8 68.8 L71.9 68.9 L71.8 69.1 L71.8 69.1 L71.7 69.2 L71.7 69.3 L71.9 69.3 L72.0 69.5 L72.1 69.5 L72.1 69.6 L72.2 69.7 L72.4 69.7 L72.6 69.8 L72.8 69.9 L73.0 69.9 L73.0 70.0 L73.1 70.0 L73.5 70.1 L73.6 70.2 L73.9 70.2 L74.0 70.3 L74.0 70.3 L74.0 70.4 L74.0 70.5 L73.9 70.5 L73.8 70.5 L73.7 70.6 L73.5 70.8 L73.5 70.9 L73.4 71.1 L73.4 71.2 L73.5 71.5 L73.7 71.6 L73.8 71.6 L73.8 71.7 L73.9 71.8 L74.0 72.0 L74.1 72.0 L74.3 72.1 L74.3 72.3 L74.7 72.5 L74.7 72.7 L74.8 72.9 L74.7 72.9 L74.7 73.0 L74.6 73.1 L74.6 73.1 L74.5 73.1 L74.4 73.3 L74.4 73.5 L74.5 73.5 L74.7 73.7 L74.8 73.8 L74.9 73.9 L74.9 74.0 L74.9 74.1 L75.1 74.1 L75.2 74.2 L75.3 74.4 L75.4 74.7 L75.6 74.9 L75.8 75.0 L76.0 74.9 L76.3 74.6 L76.3 74.5 L76.2 74.5 L76.0 74.2 L75.8 74.0 L75.6 74.0 L75.6 73.8 L75.3 73.7 L75.2 73.5 L75.1 73.5 L75.1 73.4 L75.2 73.4 L75.1 73.3 L75.1 73.1 L75.1 73.0 L75.1 72.8 L75.0 72.7 L75.1 72.6 L75.0 72.5 L75.0 72.5 L75.0 72.4 L74.9 72.3 L74.9 72.3 L74.9 72.2 L74.8 72.1 L74.8 72.1 L75.0 72.1 L75.0 72.0 L75.1 71.9 L75.3 72.1 L75.3 72.1 L75.5 72.2 L75.7 72.4 L75.9 72.6 L76.0 72.7 L76.3 73.0 L76.4 72.9 L76.5 73.0 L76.5 73.1 L76.6 73.2 L76.6 73.2 L76.8 73.3 L76.8 73.3 L76.9 73.4 L76.9 73.5 L77.1 73.5 L77.2 73.6 L77.2 73.6 L77.3 73.7 L77.3 73.9 L77.3 74.1 L77.3 74.3 L77.3 74.7 L77.3 74.9 L77.4 74.9 L77.6 75.0 L77.8 75.1 L78.0 75.1 L78.1 75.1 L78.1 75.0 L78.2 75.0 L78.2 75.1 L78.2 75.1 L78.3 75.2 L78.3 75.2 L78.2 75.3 L78.2 75.5 L78.1 75.6 L78.1 75.9 L78.1 76.0 L78.2 76.2 L78.4 76.3 L78.5 76.4 L78.5 76.4 L78.5 76.5 L78.4 76.5 L78.4 76.5 L78.5 76.6 L78.7 76.7 L78.8 76.8 L78.8 76.9 L78.8 77.1 L78.9 77.3 L78.8 77.3 L78.7 77.5 L78.8 77.6 L78.8 77.6 L78.9 77.8 L78.9 77.9 L78.9 78.1 L79.0 78.1 L79.1 78.2 L79.1 78.4 L79.1 78.6 L79.2 78.7 L79.4 78.8 L79.4 78.9 L79.4 79.0 L79.4 79.1 L79.3 79.1 L79.3 79.2 L79.2 79.3 L79.2 79.4 L79.2 79.5 L79.2 79.8 L79.2 79.9 L79.0 80.0 L79.1 80.1 L79.1 80.3 L79.2 80.4 L79.3 80.5 L79.3 80.6 L79.2 80.7 L79.3 80.8 L79.3 81.0 L79.4 81.1 L79.4 81.1 L79.4 81.1 L79.5 81.1 L79.6 81.2 L79.6 81.2 L79.6 81.3 L79.6 81.3 L79.6 81.3 L79.5 81.3 L79.5 81.2 L79.4 81.2 L79.4 81.2 L79.5 81.4 L79.5 81.5 L79.5 81.5 L79.5 81.6 L79.7 81.7 L79.8 81.8 L79.9 81.8 L79.9 81.9 L80.0 82.0 L80.0 82.0 L80.1 82.1 L80.2 82.0 L80.2 82.0 L80.3 82.2 L80.3 82.3 L80.3 82.4 L80.4 82.5 L80.4 82.6 L80.4 82.7 L80.5 82.8 L80.5 83.0 L80.6 83.1 L80.7 83.1 L80.7 83.3 L80.8 83.3 L80.9 83.4 L80.9 83.4 L81.0 83.6 L81.0 83.6 L81.1 83.7 L81.2 83.7 L81.3 83.7 L81.3 83.7 L81.3 83.7 L81.5 83.7 L81.5 83.7 L81.6 83.7 L81.5 83.8 L81.5 83.8 L81.6 83.8 L81.6 83.8 L81.7 83.8 L81.7 83.8 L81.8 83.8 L81.8 83.8 L81.8 83.8 L81.9 83.8 L82.0 83.8 L82.0 83.9 L82.0 83.9 L82.0 84.1 L82.0 84.1 L82.0 84.2 L82.0 84.3 L81.9 84.3 L81.9 84.4 L82.0 84.4 L82.0 84.6 L82.1 84.7 L82.1 84.9 L82.2 84.9 L82.3 85.1 L82.3 85.3 L82.4 85.4 L82.5 85.4 L82.5 85.5 L82.6 85.5 L82.6 85.6 L82.6 85.6 L82.6 85.7 L82.7 85.7 L82.7 85.7 L82.7 85.8 L82.7 85.8 L82.7 85.8 L82.7 85.9 L82.6 85.9 L82.6 86.0 L82.6 86.0 L82.7 86.1 L82.7 86.2 L82.7 86.4 L82.8 86.4 L82.9 86.6 L82.9 86.6 L82.9 86.7 L82.9 86.7 L82.9 86.9 L83.0 87.0 L83.1 87.1 L83.2 87.1 L83.2 87.2 L83.2 87.2 L83.2 87.2 L83.2 87.3 L83.3 87.3 L83.3 87.4 L83.3 87.4 L83.3 87.6 L83.5 87.6 L83.5 87.6 L83.6 87.7 L83.7 87.7 L83.6 87.8 L83.7 87.9 L83.7 87.9 L83.8 88.0 L83.9 88.0 L83.9 87.9 L83.9 87.9 L84.0 88.0 L84.0 88.0 L84.2 88.1 L84.2 88.2 L84.2 88.2 L84.2 88.3 L84.3 88.3 L84.3 88.3 L84.3 88.5 L84.3 88.5 L84.4 88.6 L84.5 88.7 L84.6 88.8 L84.6 88.9 L84.6 88.9 L84.7 88.9 L84.7 88.9 L84.7 89.0 L84.7 89.0 L84.7 89.0 L84.6 89.0 L84.7 89.0 L84.7 89.1 L84.8 89.2 L84.8 89.2 L84.9 89.2 L84.8 89.3 L84.8 89.3 L84.9 89.4 L84.9 89.4 L84.9 89.5 L84.9 89.5 L84.9 89.6 L84.9 89.6 L84.9 89.7 L85.0 89.8 L85.0 89.8 L85.0 89.9 L85.0 89.9 L85.1 89.9 L85.1 89.9 L85.1 90.0 L85.0 90.0 L85.1 90.0 L85.0 90.2 L85.0 90.3 L84.9 90.4 L84.8 90.5 L84.8 90.6 L84.8 90.7 L84.8 90.8 L84.6 90.8 L84.5 91.0 L84.5 91.1 L84.4 91.3 L84.4 91.5 L84.4 91.7 L84.4 91.8 L84.4 91.9 L84.4 92.0 L84.4 92.1 L84.4 92.1 L84.5 92.3 L84.5 92.4 L84.5 92.5 L84.8 92.8 L84.8 92.9 L84.9 93.0 L84.8 93.1 L84.8 93.2 L84.8 93.3 L84.8 93.3 L84.8 93.4 L84.9 93.5 L84.9 93.5 L84.9 93.6 L84.9 93.7 L85.1 94.0 L85.1 94.0 L85.2 94.1 L85.2 94.2 L85.3 94.4 L85.4 94.5 L85.5 94.6 L85.6 94.7 L85.7 94.8 L85.8 94.9 L85.9 94.9 L85.9 95.0 L86.1 95.1 L86.3 95.1 L86.6 95.2 L86.8 95.3 L87.3 95.3 L87.7 95.3 L87.9 95.3 L87.9 95.3 L87.9 95.4 L87.8 95.4 L87.7 95.5 L87.6 95.5 L87.5 95.5 L87.3 95.4 L87.0 95.3 L87.0 95.4 L87.1 95.4 L87.0 95.6 L87.1 95.6 L87.1 95.7 L87.1 95.8 L87.2 95.9 L87.4 95.9 L87.5 95.8 L87.6 95.9 L87.7 95.8 L87.7 95.8 L87.7 95.7 L87.7 95.6 L87.8 95.6 L87.9 95.5 L88.1 95.3 L88.1 95.0 L88.0 94.9 L88.1 94.9 L88.1 94.8 L88.0 94.7 L87.9 94.7 L88.0 94.7 L88.0 94.6 L88.0 94.5 L87.9 94.5 L87.9 94.6 L87.8 94.6 L87.8 94.5 L87.9 94.4 L87.8 94.4 L87.9 94.3 L87.8 94.2 L87.8 94.2 L87.8 94.1 L87.9 94.1 L88.0 94.1 L87.9 94.0 L87.9 94.0 L88.0 93.9 L88.1 93.9 L88.1 93.9 L88.2 93.8 L88.4 93.8 L88.6 93.8 L88.6 93.8 L88.7 93.9 L88.8 93.9 L88.7 94.0 L88.7 94.1 L88.7 94.1 L88.8 94.2 L88.9 94.2 L89.0 94.3 L89.1 94.3 L89.2 94.4 L89.2 94.5 L89.2 94.6 L89.2 94.6 L89.5 94.7 L89.6 94.8 L89.6 94.9 L89.7 94.9 L89.9 95.0 L90.0 95.0 L90.0 95.0 L90.1 95.0 L90.1 95.1 L90.2 95.1 L90.2 95.2 L90.3 95.2 L90.5 95.3 L90.6 95.4 L90.7 95.5 L90.7 95.6 L90.8 95.7 L90.7 95.8 L90.8 95.9 L90.8 96.3 L90.8 96.4 L91.0 96.5 L91.1 96.5 L91.3 96.6 L91.7 96.5 L92.0 96.4 L92.1 96.3 L92.2 96.3 L92.2 96.3 L92.2 96.4 L92.3 96.5 L92.4 96.5 L92.4 96.6 L92.4 96.7 L92.4 96.7 L92.4 96.8 L92.2 96.9 L92.2 96.9 L92.2 96.9 L92.2 97.0 L92.1 97.1 L92.1 97.2 L92.1 97.4 L92.2 97.5 L92.2 97.6 L92.3 97.6 L92.4 97.7 L92.4 97.7 L92.5 97.8 L92.5 97.8 L92.6 97.8 L92.7 97.9 L93.0 98.2 L93.1 98.3 L93.2 98.5 L93.3 98.5 L93.2 98.7 L93.2 99.0 L93.3 99.2 L93.4 99.5 L93.3 99.7 L93.5 99.8 L93.6 99.9 L93.8 100.0 L93.9 100.0 L94.0 100.1 L94.1 100.1 L94.3 100.2 L94.4 100.2 L94.5 100.3 L94.7 100.3 L94.8 100.4 L94.9 100.4 L94.9 100.5 L95.0 100.6 L95.2 100.6 L95.3 100.6 L95.3 100.7 L95.2 100.8 L95.2 100.9 L95.3 101.1 L95.5 101.3 L95.7 101.5 L95.7 101.6 L95.6 101.8 L95.6 101.9 L95.8 101.9 L95.8 102.0 L95.7 102.1 L95.6 102.2 L95.7 102.3 L95.6 102.4 L95.7 102.5 L95.7 102.7 L95.7 102.9 L95.6 103.0 L95.6 103.0 L95.6 103.1 L95.6 103.3 L95.6 103.3 L95.5 103.4 L95.4 103.6 L95.4 103.7 L95.3 103.7 L95.2 103.9 L95.1 104.1 L95.0 104.2 L94.9 104.3 L94.8 104.4 L94.8 104.5 L94.5 104.6 L94.4 104.7 L94.1 104.7 L93.9 104.8 L93.5 104.9 L93.4 105.1 L93.2 105.1 L93.2 105.3 L93.2 105.3 L93.0 105.5 L92.8 105.5 L92.4 105.8 L92.4 106.0 L92.2 106.1 L92.1 106.2 L92.0 106.3 L91.9 106.3 L91.7 106.3 L91.6 106.4 L91.6 106.4 L91.6 106.5 L91.3 106.5 L91.1 106.5 L91.0 106.5 L90.9 106.4 L90.7 106.3 L90.5 106.1 L90.4 106.0 L90.2 105.8 L90.1 105.6 L90.0 105.5 L90.0 105.3 L89.9 105.3 L89.8 105.0 L89.8 104.8 L89.4 103.5 L89.4 102.9 L89.3 102.6 L89.2 102.6 L89.1 102.5 L88.9 102.2 L88.9 102.0 L88.8 101.9 L88.7 101.7 L88.4 101.3 L88.3 101.2 L88.1 100.8 L87.7 100.4 L87.3 100.2 L86.2 99.8 L85.8 99.6 L85.2 99.1 L84.3 98.2 L83.7 97.6 L83.4 97.3 L83.3 97.2 L83.2 97.2 L83.1 97.1 L83.0 97.0 L82.7 96.7 L82.5 96.6 L82.3 96.3 L82.1 96.2 L82.0 96.1 L81.8 95.9 L81.4 95.7 L81.2 95.6 L81.0 95.4 L80.6 95.3 L80.2 95.0 L79.7 94.7 L78.3 94.0 L78.3 94.0 L78.4 94.0 L79.1 94.3 L78.9 94.2 L78.6 94.0 L78.3 93.9 L78.2 93.9 L78.0 93.8 L78.0 93.6 L77.7 93.3 L77.5 93.3 L77.3 93.2 L77.0 93.0 L76.8 92.8 L76.7 92.5 L76.6 92.2 L76.5 92.1 L76.6 92.1 L76.7 92.1 L76.6 92.0 L76.4 91.9 L76.3 91.8 L76.2 91.8 L76.2 91.9 L76.3 92.0 L76.1 92.2 L75.9 92.2 L75.8 92.1 L75.7 92.2 L75.6 92.2 L75.4 92.2 L75.2 92.1 L75.4 92.3 L75.6 92.4 L75.4 92.4 L75.3 92.4 L75.3 92.4 L75.2 92.5 L75.1 92.4 L75.1 92.2 L75.1 92.1 L75.1 91.9 L75.0 91.5 L74.9 91.2 L74.7 91.1 L74.5 90.9 L74.4 90.7 L74.2 90.5 L74.1 90.4 L74.1 90.4 L74.3 90.5 L74.3 90.5 L74.3 90.4 L74.1 90.3 L74.0 90.2 L73.8 90.0 L73.8 89.9 L73.8 89.7 L73.7 89.5 L73.6 89.4 L73.5 89.3 L73.6 89.6 L73.6 89.8 L73.7 90.0 L73.8 90.1 L73.8 90.2 L73.7 90.3 L73.7 90.3 L73.8 90.4 L73.8 90.4 L73.8 90.5 L73.7 90.4 L73.6 90.4 L73.6 90.3 L73.5 90.5 L73.3 90.3 L73.2 89.9 L73.3 89.8 L73.3 89.8 L73.3 89.7 L73.2 89.6 L73.1 89.7 L73.1 89.8 L73.1 90.1 L73.1 90.2 L73.2 90.3 L73.0 90.4 L72.9 90.3 L72.8 90.2 L72.7 90.1 L72.7 89.9 L72.7 89.6 L72.7 89.5 L72.7 89.5 L72.6 89.5 L72.6 89.5 L72.5 89.3 L72.6 89.3 L72.7 89.1 L72.8 89.1 L72.7 88.9 L72.7 88.9 L72.7 88.8 L72.7 88.7 L72.7 88.7 L72.8 88.6 L72.8 88.6 L72.8 88.5 L72.8 88.4 L72.7 88.3 L72.7 88.2 L72.7 88.2 L72.6 88.2 L72.5 88.3 L72.5 88.5 L72.4 88.6 L72.4 88.7 L72.4 88.9 L72.5 89.0 L72.4 89.2 L72.3 89.3 L72.2 89.3 L72.2 89.1 L72.2 89.0 L72.2 88.8 L72.2 88.8 L72.2 88.7 L72.1 88.6 L72.2 88.6 L72.3 88.6 L72.3 88.5 L72.3 88.4 L72.3 88.3 L72.4 88.2 L72.5 87.9 L72.5 87.8 L72.5 87.7 L72.5 87.6 L72.4 87.6 L72.4 87.5 L72.3 87.5 L72.4 87.4 L72.4 87.3 L72.4 87.2 L72.4 87.0 L72.4 86.8 L72.5 86.5 L72.7 86.3 L72.8 86.1 L72.9 86.0 L72.9 85.7 L72.9 85.3 L72.9 85.0 L72.8 85.0 L72.8 84.9 L72.9 84.7 L72.9 84.7 L72.9 84.5 L72.9 84.4 L72.8 84.4 L72.9 84.3 L73.1 84.2 L73.3 84.2 L73.2 84.1 L73.0 84.1 L72.9 84.2 L72.8 84.1 L72.9 84.1 L73.0 84.0 L73.0 83.8 L73.0 83.5 L72.9 83.3 L73.0 83.2 L73.0 82.9 L72.9 82.4 L72.9 82.1 L72.9 82.0 L72.8 82.1 L72.8 82.2 L72.8 83.1 L72.8 83.5 L72.7 83.8 L72.7 83.9 L72.7 83.8 L72.7 83.6 L72.7 83.1 L72.7 82.0 L72.6 81.5 L72.4 81.2 L72.4 80.9 L72.2 80.6 L72.0 80.0 L71.9 79.7 L71.7 79.5 L71.5 79.3 L71.3 79.2 L71.0 79.2 L70.9 79.0 L70.9 78.8 L70.8 78.5 L70.6 78.1 L70.3 77.8 L70.1 77.6 L69.8 77.4 L69.7 77.4 L69.6 77.4 L69.5 77.5 L69.4 77.6 L69.3 77.6 L68.8 77.3 L68.8 77.3 L68.8 77.1 L68.7 77.1 L68.6 77.1 L68.5 77.2 L68.4 77.1 L68.3 76.9 L68.3 76.9 L68.1 76.9 L67.7 76.9 L67.6 76.9 L67.3 76.5 L67.1 76.3 L66.8 76.2 L66.6 76.1 L66.4 75.9 L66.1 75.7 L65.8 75.4 L65.4 75.2 L65.3 75.1 L65.3 75.1 L65.3 75.0 L65.3 75.0 L65.3 75.0 L65.2 75.0 L65.1 75.0 L64.9 74.9 L64.8 74.8 L64.6 74.6 L64.4 74.5 L64.5 74.4 L64.4 74.2 L64.5 74.2 L64.5 74.1 L64.4 74.0 L64.3 73.8 L64.2 73.7 L64.1 73.6 L64.0 73.5 L63.9 73.4 L63.8 73.2 L63.7 73.1 L63.7 73.0 L63.8 72.9 L63.9 72.9 L63.9 72.8 L63.9 72.8 L63.8 72.8 L63.7 72.8 L63.6 72.9 L63.5 73.0 L63.5 73.1 L63.4 73.1 L63.3 73.1 L63.3 73.2 L63.3 73.3 L63.2 73.3 L63.1 73.3 L63.0 73.2 L63.0 73.1 L63.0 72.9 L62.9 72.9 L63.0 72.8 L63.1 72.8 L63.2 72.8 L63.3 72.7 L63.4 72.6 L63.5 72.5 L63.6 72.4 L63.7 72.4 L63.8 72.3 L63.8 72.1 L63.9 72.0 L63.9 71.6 L63.8 71.4 L63.7 71.3 L63.6 71.3 L63.4 71.3 L63.3 71.5 L63.3 72.1 L63.2 72.3 L63.0 72.5 L62.9 72.5 L62.8 72.6 L62.7 72.7 L62.7 72.8 L62.7 72.8 L62.7 72.9 L62.7 73.0 L62.7 73.1 L62.6 73.2 L62.5 73.2 L62.2 73.0 L61.8 72.8 L61.5 72.8 L61.4 72.7 L61.1 72.7 L60.9 72.7 L60.6 72.8 L60.5 73.0 L60.4 73.2 L60.3 73.3 L60.3 73.5 L60.2 73.5 L60.0 73.6 L59.8 73.6 L59.5 73.4 L59.3 73.0 L58.7 72.8 L58.7 72.7 L58.6 72.5 L58.5 72.3 L58.2 71.7 L58.0 71.5 L57.7 71.3 L57.4 71.2 L57.2 71.1 L56.7 71.1 L56.6 71.1 L56.6 71.2 L56.5 71.3 L56.4 71.3 L56.3 71.3 L56.0 70.9 L55.8 70.6 L55.7 70.4 L55.4 70.2 L55.1 70.0 L54.8 69.9 L54.6 69.8 L54.3 69.7 L54.0 69.8 L53.9 69.8 L53.9 70.0 L53.6 69.8 L53.4 69.6 L53.0 69.5 L52.8 69.6 L52.6 69.5 L52.7 69.4 L52.7 69.4 L52.7 69.3 L52.6 69.2 L52.4 69.1 L52.3 69.2 L52.2 69.0 L52.2 68.6 L52.2 68.3 L52.2 67.9 L52.0 67.6 L51.8 67.4 L51.8 67.3 L51.5 67.2 L51.4 67.2 L51.3 67.0 L51.0 66.9 L50.5 66.7 L50.2 66.6 L50.1 66.6 L50.0 66.4 L49.9 66.3 L49.8 66.2 L49.8 66.1 L49.7 65.9 L49.5 65.7 L49.3 65.6 L49.2 65.7 L49.1 65.8 L49.0 65.7 L49.0 65.6 L48.9 65.5 L48.9 65.5 L49.0 65.6 L49.1 65.6 L49.1 65.4 L49.1 65.3 L49.1 65.2 L49.0 65.1 L48.9 65.1 L48.8 65.1 L48.7 65.2 L48.7 65.2 L48.7 65.4 L48.5 65.3 L48.4 65.3 L48.3 65.0 L48.2 64.9 L48.0 64.8 L47.9 64.8 L47.8 64.9 L47.7 64.8 L47.6 64.7 L47.5 64.5 L47.5 64.4 L47.4 64.2 L47.4 64.1 L47.3 64.0 L47.3 64.0 L47.1 63.7 L47.3 63.7 L47.4 63.7 L47.6 63.8 L47.7 63.9 L48.1 64.0 L48.5 63.9 L48.8 63.9 L48.9 63.9 L49.1 64.0 L49.2 64.1 L49.3 64.1 L49.6 64.1 L49.8 64.1 L50.0 64.1 L50.2 64.1 L50.2 64.2 L50.3 64.3 L50.4 64.3 L50.6 64.3 L50.9 64.4 L51.2 64.4 L51.5 64.3 L51.8 64.3 L52.1 64.4 L52.4 64.3 L52.7 64.2 L52.9 64.0 L53.0 63.9 L53.1 63.9 L53.2 63.8 L53.4 63.6 L53.5 63.6 L53.6 63.5 L53.7 63.5 L53.8 63.6 L53.8 63.6 L53.8 63.7 L53.8 63.7 L53.9 63.9 L53.8 64.0 L53.8 64.2 L53.7 64.3 L53.7 64.4 L53.8 64.5 L54.0 64.7 L54.1 64.8 L54.3 65.0 L54.5 65.1 L54.7 65.1 L54.9 65.2 L55.1 65.3 L55.2 65.4 L55.3 65.5 L55.4 65.6 L55.3 65.7 L55.4 65.7 L55.5 65.7 L55.5 65.8 L55.5 65.9 L55.6 65.8 L55.7 65.8 L55.7 65.7 L55.7 65.7 L55.9 65.5 L56.0 65.4 L56.0 65.3 L56.0 65.3 L55.9 65.3 L55.9 65.3 L55.8 65.2 L55.8 65.2 L55.8 65.2 L55.7 65.2 L55.7 65.2 L55.7 65.1 L55.8 65.1 L55.9 65.1 L56.0 65.1 L56.0 65.2 L56.0 65.2 L56.1 65.2 L56.2 65.2 L56.2 65.3 L56.3 65.3 L56.4 65.4 L56.7 65.4 L56.8 65.4 L56.8 65.4 L56.9 65.3 L56.9 65.2 L57.0 65.2 L57.1 65.1 L57.1 65.0 L57.1 64.9 L57.0 64.8 L56.9 64.8 L56.9 64.8 L56.7 64.7 L56.6 64.7 L56.6 64.7 L56.6 64.6 L56.5 64.6 L56.5 64.6 L56.4 64.6 L56.4 64.6 L56.2 64.6 L56.2 64.6 L56.2 64.6 L56.1 64.5 L56.0 64.3 L56.0 64.3 L55.9 64.2 L55.8 64.2 L55.8 64.2 L55.8 64.3 L55.9 64.4 L55.9 64.5 L56.0 64.5 L56.0 64.6 L56.1 64.7 L56.0 64.8 L56.0 64.8 L55.9 64.8 L55.9 64.9 L55.9 64.9 L55.8 64.8 L55.8 64.8 L55.7 64.9 L55.6 64.9 L55.5 65.0 L55.4 65.0 L55.3 64.9 L55.2 64.8 L55.2 64.8 L55.2 64.7 L55.1 64.6 L55.1 64.5 L55.0 64.4 L54.9 64.3 L54.9 64.2 L54.9 64.0 L54.9 64.0 L55.0 63.9 L55.0 63.8 L55.1 63.6 L55.2 63.5 L55.3 63.4 L55.2 63.4 L55.1 63.4 L55.1 63.4 L55.1 63.3 L55.1 63.3 L55.2 63.3 L55.2 63.2 L55.2 63.2 L55.1 63.2 L55.1 63.1 L55.0 63.1 L55.1 63.0 L55.1 62.9 L55.0 62.9 L54.9 62.9 L54.9 62.9 L54.9 63.0 L54.8 63.1 L54.7 63.1 L54.7 63.1 L54.6 63.2 L54.5 63.2 L54.3 63.2 L54.3 63.3 L54.2 63.4 L54.1 63.4 L54.0 63.3 L54.0 63.2 L54.1 63.1 L54.1 62.9 L54.2 62.9 L54.4 62.7 L54.4 62.6 L54.6 62.5 L54.6 62.5 L54.8 62.3 L55.0 61.9 L55.2 61.7 L55.4 61.7 L55.4 62.0 L55.4 62.1 L55.2 62.2 L55.1 62.3 L55.1 62.4 L55.1 62.4 L55.2 62.6 L55.3 62.7 L55.3 62.8 L55.5 63.1 L55.6 62.8 L55.6 62.7 L55.6 62.5 L55.5 62.4 L55.4 62.4 L55.3 62.3 L55.3 62.3 L55.4 62.2 L55.6 62.3 L55.7 62.4 L55.8 62.5 L55.9 62.4 L56.0 62.2 L56.1 62.2 L56.0 62.1 L55.9 62.1 L55.8 62.0 L55.6 62.0 L55.5 62.0 L55.5 61.9 L55.5 61.6 L55.5 61.5 L55.4 61.4 L55.4 61.4 L55.5 61.3 L55.6 61.1 L55.7 61.0 L55.8 60.8 L55.9 60.7 L55.9 60.6 L55.8 60.5 L55.8 60.4 L55.7 60.4 L55.6 60.4 L55.5 60.4 L55.4 60.4 L55.4 60.3 L55.3 60.3 L55.4 60.2 L55.4 60.0 L55.5 59.8 L55.7 59.5 L55.9 59.0 L56.0 58.8 L56.0 58.5 L55.9 58.4 L55.8 58.4 L55.8 58.3 L55.8 58.1 L55.8 58.0 L55.7 58.0 L55.7 57.9 L55.6 57.8 L55.6 57.7 L55.4 57.6 L55.3 57.6 L55.1 57.7 L55.0 57.6 L55.0 57.5 L55.1 57.3 L55.0 57.1 L55.0 56.9 L54.9 56.8 L54.8 56.8 L54.6 56.8 L54.4 56.8 L54.3 56.9 L54.0 56.8 L54.0 56.7 L54.1 56.7 L54.0 56.6 L54.0 56.5 L53.8 56.4 L53.7 56.2 L53.4 56.2 L53.4 56.0 L53.4 55.9 L53.3 55.8 L53.3 55.6 L53.2 55.5 L53.0 55.5 L52.9 55.3 L52.9 55.1 L52.8 54.9 L52.6 54.9 L52.6 54.8 L52.4 54.6 L52.3 54.5 L52.1 54.5 L52.0 54.5 L51.9 54.5 L51.8 54.5 L51.7 54.4 L51.7 54.3 L51.6 54.1 L51.6 54.1 L51.4 54.1 L51.3 54.2 L51.2 53.9 L51.2 53.6 L51.2 53.5 L51.1 53.3 L51.0 53.2 L51.0 53.1 L50.7 53.0 L50.5 52.9 L50.3 53.1 L50.2 52.9 L50.1 52.7 L50.1 52.6 L50.0 52.4 L50.0 52.3 L49.9 52.2 L49.6 52.2 L49.3 51.9 L49.1 51.7 L48.8 51.4 L48.4 51.0 L48.0 50.6 L46.9 50.3 L46.2 50.2 L45.8 49.7 L45.3 49.3 L44.6 49.1 L44.2 48.8 L43.9 48.6 L43.7 48.5 L43.5 48.6 L43.3 48.5 L43.2 48.4 L43.1 48.3 L42.9 48.1 L42.7 47.9 L42.5 47.9 L41.8 47.4 L41.8 47.2 L41.9 47.0 L41.9 46.8 L41.9 46.6 L41.8 46.4 L41.8 46.2 L41.6 46.0 L41.5 45.9 L41.4 45.7 L41.2 45.7 L40.9 45.7 L40.8 45.6 L41.0 45.0 L41.1 44.5 L41.0 44.2 L41.0 44.2 L40.9 44.1 L40.9 44.0 L40.9 43.9 L40.9 43.6 L40.9 43.2 L40.9 42.9 L40.7 42.6 L40.6 42.3 L40.4 42.1 L40.1 42.0 L39.8 41.9 L39.4 41.8 L39.7 41.7 L39.7 41.6 L39.8 41.4 L39.7 41.3 L39.6 41.2 L39.4 41.1 L39.3 41.0 L39.4 41.2 L39.5 41.3 L39.5 41.4 L39.5 41.5 L39.4 41.6 L39.4 41.6 L39.3 41.5 L39.2 41.4 L39.1 41.5 L39.1 41.6 L39.1 41.6 L39.2 41.7 L39.2 41.8 L39.3 42.0 L39.4 42.2 L39.2 42.2 L39.1 41.9 L39.0 41.5 L38.8 41.2 L38.9 39.9 L38.9 39.0 L38.7 38.6 L38.7 38.4 L38.6 38.3 L38.3 38.3 L37.9 37.9 L37.7 37.9 L37.5 37.6 L37.3 37.5 L37.3 37.3 L37.1 37.1 L36.9 37.0 L36.6 37.1 L36.3 37.1 L36.3 36.8 L36.4 36.5 L36.5 35.9 L36.5 35.4 L36.3 34.8 L35.3 33.8 L34.9 33.2 L34.8 33.1 L34.8 33.1 L34.7 32.9 L34.6 32.9 L34.5 32.8 L34.3 32.7 L34.2 32.7 L34.1 32.6 L34.1 32.6 L34.0 32.5 L34.0 32.4 L33.7 32.2 L33.6 32.1 L33.4 32.0 L33.4 31.8 L33.4 31.7 L33.4 31.8 L33.5 31.7 L33.7 31.7 L33.5 31.5 L33.5 31.4 L33.6 31.3 L33.6 31.0 L33.6 30.9 L33.5 30.7 L33.4 30.7 L33.3 30.6 L33.1 30.6 L32.8 30.4 L32.8 30.2 L33.1 30.3 L33.4 30.5 L33.5 30.5 L33.7 30.4 L33.8 30.2 L33.9 30.1 L33.9 29.8 L34.0 29.6 L34.0 29.5 L33.9 29.3 L33.6 29.3 L33.4 29.2 L33.2 29.1 L33.0 29.0 L32.9 29.0 L32.7 28.9 L32.7 28.7 L32.7 28.4 L32.6 28.3 L32.3 28.3 L32.0 28.2 L31.8 28.0 L31.7 27.8 L31.7 27.5 L31.6 27.0 L31.4 26.6 L31.3 26.2 L31.2 26.1 L31.1 26.0 L30.9 25.9 L30.5 25.8 L30.4 25.7 L30.0 24.9 L29.9 24.6 L29.7 24.4 L29.6 24.2 L29.6 24.1 L29.6 23.9 L29.6 23.7 L29.6 23.6 L29.5 23.6 L30.2 23.5 L30.9 23.5 L31.5 23.4 L32.1 23.4 L32.8 23.3 L33.4 23.3 L34.0 23.2 L34.7 23.2 L35.3 23.1 L35.9 23.1 L36.6 23.0 L37.2 23.0 L37.8 22.9 L38.4 22.9 L39.1 22.8 L39.7 22.8 L40.3 22.7 L41.0 22.7 L41.6 22.6 L42.2 22.6 L42.9 22.6 L43.5 22.5 L44.1 22.5 L44.8 22.4 L45.4 22.4 L46.0 22.3 L46.7 22.3 L47.3 22.2 L47.9 22.2 L48.6 22.1 L49.2 22.1 L49.8 22.0 L50.2 22.0 L50.2 22.0 L50.1 22.2 L50.0 22.4 L49.9 22.5 L49.9 22.6 L49.7 22.7 L49.6 22.8 L49.5 23.0 L49.6 23.2 L49.5 23.4 L49.4 23.7 L49.3 23.8 L49.3 23.8 L49.4 23.8 L49.7 23.9 L53.2 25.0 L56.7 26.1 L60.2 27.2 L63.7 28.3 L67.3 29.4 L70.8 30.5 L74.3 31.5 L77.8 32.6 L78.2 32.8 L78.7 32.9 L79.1 33.1 L79.6 33.2 L80.0 33.3 L80.4 33.5 L80.9 33.6 L81.3 33.8 L81.6 33.8 L82.1 33.9 L82.6 33.9 L82.9 33.9 L83.3 33.9 L83.7 33.9 L84.1 33.9 L84.4 33.9 L84.8 33.9 L85.2 33.9 L85.5 33.9 L85.9 33.9 L86.3 33.9 L86.6 33.9 L87.0 33.9 L87.4 33.9 L87.7 33.9 L88.1 33.9 L88.5 33.9 L88.8 33.9 L89.2 33.9 L89.6 33.9 L89.9 33.9 L90.3 33.9 L90.7 33.9 L91.0 33.9 L91.4 33.9 L91.8 33.9 L92.1 33.9 L92.5 33.9 L92.9 33.9 L93.2 33.9 L93.6 33.9 L94.0 33.9 L94.3 33.9 L94.7 33.9 L95.1 33.9 L95.4 33.9 L95.8 33.9 L96.2 33.9 L96.5 33.9 L96.9 33.9 L97.3 33.9 L97.6 33.9 L98.0 33.9 L98.4 33.9 L98.7 33.9 L98.9 33.9 L99.1 33.9 L99.5 33.9 L99.6 33.9 L99.8 33.9 L100.2 33.9 L100.6 33.9 L100.9 33.9 L101.3 33.9 L101.7 33.9 L102.0 33.9 L102.4 33.9 L102.8 33.9 L103.1 33.9 L103.5 33.9 L103.9 33.9 L104.2 33.9 L104.6 33.9 L105.0 33.9 L105.3 33.9 L105.7 33.9 L106.1 33.9 L106.1 33.8 L106.1 33.8 L106.1 33.7 L106.1 33.7 L106.1 33.6 L106.1 33.5 L106.1 33.5 L106.1 33.4 L106.1 33.4 L106.1 33.3 L106.1 33.2 L106.1 33.2 L106.1 33.1 L106.1 33.1 L106.1 33.0 L106.1 32.9 L106.1 32.9 L106.1 32.8 L106.1 32.7 L106.1 32.7 L106.1 32.6 L106.1 32.6 L106.1 32.5 L106.1 32.4 L106.1 32.4 L106.1 32.3 L106.1 32.3 L106.1 32.2 L106.1 32.1 L106.1 32.1 L106.1 32.0 L106.1 32.0 L106.1 31.9 L106.1 31.8 L106.1 31.8 L106.1 31.7 L106.1 31.7 L106.1 31.6 L106.1 31.5 L106.1 31.5 L106.1 31.4 L106.1 31.4 L106.1 31.3 L106.1 31.2 L106.1 31.2 L106.1 31.1 L106.1 31.1 L106.1 31.0 L106.1 30.9 L106.1 30.9 L106.1 30.8 L106.1 30.8 L106.1 30.7 L106.1 30.6 L106.1 30.6 L106.1 30.5 L106.1 30.5 L106.1 30.4 L106.1 30.3 L106.1 30.3 L106.1 30.2 L106.1 30.2 L106.1 30.1 L106.1 30.0 L106.3 30.0 L106.5 30.0 L106.7 30.0 L106.9 30.0 L107.2 30.0 L107.4 30.0 L107.6 30.0 L107.8 30.0 L108.1 30.0 L108.3 30.0 L108.5 30.0 L108.7 30.0 L108.9 30.0 L109.2 30.0 L109.4 30.0 L109.6 30.0 L109.8 30.0 L110.1 30.0 L110.3 30.0 L110.5 30.0 L110.7 30.0 L110.9 30.0 L111.2 30.0 L111.4 30.0 L111.6 30.0 L111.8 30.0 L112.1 30.0 L112.3 30.0 L112.5 30.0 L112.7 30.0 L112.9 30.0 L113.2 30.0 L113.4 30.0 L113.6 30.0 L113.8 30.0 L114.1 30.0 L114.3 30.0 L114.5 30.0 L114.7 30.1 L114.9 30.1 L115.2 30.1 L115.4 30.1 L115.6 30.1 L115.8 30.1 L116.1 30.1 L116.3 30.1 L116.5 30.1 L116.7 30.1 L116.9 30.1 L117.2 30.1 L117.4 30.1 L117.6 30.1 L117.8 30.1 L118.1 30.1 L118.3 30.1 L118.5 30.1 L118.7 30.1 L118.9 30.1 L119.2 30.1 L119.4 30.1 L119.6 30.1 L119.8 30.1 L120.1 30.1 L120.3 30.1 L120.6 30.1 L120.7 30.1 L120.8 30.1 L120.8 30.2 L121.0 30.2 L121.4 30.2 L121.7 30.3 L122.0 30.5 L122.2 30.9 L122.4 31.1 L122.6 31.7 L122.7 31.9 L123.1 32.2 L123.2 32.4 L123.2 32.5 L123.2 32.5 L123.2 32.6 L123.3 32.6 L123.6 32.8 L123.7 32.9 L123.9 32.9 L124.2 33.0 L124.5 33.2 L124.7 33.2 L124.9 33.3 L125.0 33.3 L125.4 33.5 L125.5 33.6 L125.6 33.7 L125.6 33.8 L125.7 33.9 L125.9 34.0 L126.0 34.1 L126.0 34.1 L126.1 34.1 L126.3 34.2 L126.9 34.9 L127.0 35.1 L127.1 35.2 L127.7 35.5 L127.9 35.6 L127.9 35.6 L128.1 35.8 L128.3 35.9 L128.5 36.0 L128.6 36.1 L128.7 36.3 L128.8 36.6 L128.9 36.7 L129.1 36.8 L129.4 37.1 L130.1 37.5 L130.4 37.9 L130.5 38.0 L130.8 38.0 L131.3 38.3 L131.3 38.3 L131.4 38.4 L131.4 38.4 L131.5 38.4 L131.6 38.4 L131.6 38.4 L131.7 38.3 L131.7 38.3 L131.8 38.4 L131.8 38.4 L131.9 38.4 L132.0 38.5 L132.1 38.6 L132.2 38.6 L132.2 38.6 L132.3 38.6 L132.3 38.7 L132.3 38.7 L132.4 38.7 L132.5 38.9 L132.5 38.8 L132.9 39.2 L133.1 39.3 L133.2 39.3 L133.4 39.4 L133.6 39.5 L133.7 39.6 L133.7 39.7 L133.7 39.8 L133.8 39.9 L133.8 40.0 L133.9 40.0 L134.2 40.0 L134.2 40.1 L134.3 40.1 L134.5 40.4 L134.6 40.6 L134.7 40.6 L134.7 40.8 L134.7 40.9 L134.8 41.0 L134.9 41.0 L134.9 41.1 L134.8 41.2 L134.8 41.2 L134.8 41.3 L134.9 41.4 L134.9 41.5 L134.9 41.7 L134.9 41.7 L134.9 41.8 L135.0 41.9 L135.1 41.9 L135.2 42.0 L135.2 42.0 L135.2 42.1 L135.3 42.2 L135.3 42.3 L135.3 42.3 L135.5 42.4 L135.6 42.6 L135.7 42.9 L135.8 43.0 L135.9 43.1 L136.0 43.1 L136.1 43.2 L136.3 43.5 L136.4 43.6 L136.4 43.8 L136.4 44.1 L136.4 44.3 L136.3 44.6 L136.2 44.8 L136.2 45.0 L136.4 45.5 L136.4 45.6 L136.4 45.7 L136.4 45.8 L136.4 45.8 L136.6 46.0 L136.6 46.0 L136.6 46.1 L136.8 46.3 L136.9 46.7 L136.9 46.7 L137.1 46.9 L137.2 47.0 L137.4 47.1 L137.4 47.5 L137.6 47.7 L137.6 47.9 L137.7 48.0 L137.7 48.1 L137.7 48.1 L137.8 48.3 L138.2 48.5 L138.3 48.6 L138.4 48.7 L138.4 48.8 L138.4 48.8 L138.5 48.9 L138.6 48.9 L139.3 49.3 L139.3 49.4 L139.5 49.3 L139.7 49.3 L140.0 49.4 L140.1 49.5 L140.3 49.6 L140.4 49.7 L140.4 49.7 L140.6 50.0 L140.9 50.3 L141.1 50.4 L141.3 50.6 L141.8 51.0 L142.1 51.1 L142.9 51.4 L143.4 51.5 L144.0 51.5 L144.1 51.5 L144.2 51.6 L144.2 51.7 L144.2 51.9 L144.2 51.9 L144.3 51.9 L144.4 52.0 L144.8 52.3 L145.1 52.4 L145.8 52.6 L146.0 52.5 L146.1 52.6 L146.2 52.6 L146.2 52.7 L146.2 52.7 L146.3 52.8 L146.7 53.2 L147.1 53.4 L147.2 53.4 L147.3 53.4 L147.5 53.6 L147.6 53.7 L147.7 53.6 L147.8 53.5 L147.9 53.5 L148.0 53.7 L148.1 53.7 L148.2 53.6 L148.2 53.7 L148.1 53.8 L148.3 53.9 L148.8 53.9 L149.2 54.0 L149.6 54.0 L149.8 53.9 L149.9 53.7 L149.9 53.4 L150.0 53.4 L150.1 53.4 L150.1 53.2 L150.1 53.2 L150.2 53.1 L150.6 52.9 L150.6 52.9 L150.7 52.8 L150.9 52.4 L151.1 52.2 L151.3 52.3 L151.3 52.2 L151.7 52.0 L152.0 52.0 L152.1 51.9 L152.0 51.8 L151.8 51.7 L151.7 51.6 L151.7 51.5 L151.8 51.2 L151.8 51.0 L151.8 50.9 L151.9 50.9 L152.0 50.8 L152.0 50.8 L152.1 50.8 L152.2 50.8 L152.2 50.7 L152.2 50.7 L152.2 50.6 L152.2 50.5 L152.3 50.4 L152.3 50.3 L152.2 50.2 L152.2 50.1 L152.2 50.0 L152.3 49.9 L152.3 49.8 L152.6 49.2 L152.7 49.2 L152.7 49.1 L152.7 49.0 L152.8 48.9 L152.8 48.9 L152.7 48.8 L152.8 48.8 L152.9 48.7 L153.0 48.6 L153.0 48.5 L153.1 48.3 L153.1 48.3 L153.2 48.2 L153.4 47.8 L153.5 47.7 L153.5 47.6 L153.5 47.6 L153.6 47.5 L153.6 47.5 L153.9 47.5 L154.1 47.5 L154.4 47.3 L154.6 47.3 L154.6 47.3 L154.6 47.4 L154.7 47.4 L154.7 47.4 L154.8 47.4 L154.8 47.3 L154.9 47.3 L154.9 47.2 L155.0 47.1 L155.9 47.2 L156.0 47.2 L156.2 46.9 L156.2 46.8 L156.2 46.6 L156.2 46.5 L156.3 46.5 L156.4 46.4 L156.5 46.4 L156.6 46.2 L156.7 46.2 L156.8 46.2 L156.9 46.3 L157.1 46.4 L157.2 46.4 L157.3 46.5 L157.4 46.6 L157.7 46.6 L158.1 46.8 L158.2 46.9 L158.5 47.0 L159.3 46.9 L159.5 47.0 L159.7 46.9 L159.8 46.9 L159.9 47.0 L160.0 47.0 L160.1 47.0 L160.2 47.0 L160.3 47.0 L160.3 46.9 L160.4 46.9 L160.5 46.9 L160.7 47.0 L160.9 47.0 L161.0 46.9 L161.1 46.9 L161.1 47.0 L161.2 47.0 L162.6 47.2 L163.0 47.2 L163.2 47.1 L163.3 47.0 L163.3 46.9 L163.3 46.8 L163.4 46.9 L163.4 46.9 L163.5 47.0 L163.5 47.0 L163.4 47.2 L163.4 47.3 L163.5 47.3 L163.7 47.2 L163.8 47.1 L164.0 47.1 L164.0 47.1 L164.1 47.2 L164.2 47.3 L164.3 47.3 L164.4 47.3 L164.5 47.2 L164.5 47.2 L164.5 47.3 L164.5 47.4 L164.6 47.5 L164.7 47.7 L164.8 47.9 L164.9 48.1 L164.9 48.2 L165.0 48.2 L165.1 48.3 L165.4 48.3 L165.4 48.3 L165.4 48.4 L165.3 48.6 L165.3 48.7 L165.4 48.8 L165.6 48.7 L165.8 48.6 L166.0 48.5 L166.1 48.6 L166.1 48.9 L166.1 49.1 L166.1 49.2 L166.2 49.3 L166.3 49.3 L166.4 49.3 L166.4 49.4 L166.6 49.6 L166.9 49.7 L167.4 49.9 L167.7 49.9 L167.8 50.1 L167.8 50.3 L167.8 50.4 L167.9 50.5 L167.9 50.6 L168.0 50.7 L168.1 50.7 L168.7 51.0 L168.9 51.1 L169.1 51.3 L169.2 51.4 L169.6 51.6 L169.8 51.7 L169.9 51.8 L170.1 52.1 L170.0 52.3 L170.1 52.4 L170.5 52.7 L170.5 52.8 L170.6 52.8 L170.7 52.8 L170.8 52.9 L170.9 52.9 L170.9 53.0 L171.0 53.5 L171.2 53.8 L171.2 54.0 L171.1 54.2 L171.2 54.3 L171.2 54.3 L171.2 54.4 L171.2 54.5 L171.3 54.6 L171.4 54.7 L171.5 54.7 L171.5 54.9 L171.6 54.9 L171.7 55.0 L171.7 55.0 L171.8 55.1 L171.7 55.2 L171.7 55.2 L171.8 55.3 L171.9 55.3 L172.0 55.3 L172.0 55.3 L172.1 55.4 L172.1 55.5 L172.1 55.6 L172.4 56.4 L172.5 56.6 L172.8 56.9 L172.8 57.1 L172.9 57.2 L173.1 57.2 L173.2 57.3 L173.2 57.4 L173.2 57.6 L173.2 57.7 L173.3 57.9 L173.5 58.0 L173.8 58.1 L173.6 58.2 L173.5 58.3 L173.5 58.4 L173.6 58.4 L173.7 58.5 L173.7 58.5 L173.8 58.8 L173.8 59.1 L174.1 59.4 L174.2 59.6 L174.2 59.8 L174.2 59.9 L174.2 60.1 L174.4 60.2 L174.5 60.3 L174.8 60.4 L174.8 60.4 L174.9 60.5 L174.9 60.6 L174.9 60.7 L175.0 60.7 L175.1 60.8 L176.0 61.1 L176.1 61.3 L176.2 61.5 L176.2 61.6 L176.2 61.7 L176.3 61.8 L176.5 61.9 L176.5 61.9 L176.5 61.9 L176.5 62.0 L176.5 62.0 L176.5 62.2 L176.6 62.3 L176.7 62.4 L176.8 62.5 L176.9 62.6 L177.1 62.6 L177.2 62.7 L177.1 62.8 L177.2 62.9 L177.3 63.1 L177.5 63.2 L177.6 63.3 L177.6 63.3 L177.6 63.4 L177.5 63.5 L177.6 63.6 L177.6 63.7 L177.7 63.7 L177.8 63.8 L177.8 63.9 L177.8 64.1 L177.8 64.1 L177.8 64.2 L177.9 64.2 L178.0 64.3 L178.0 64.4 L178.2 64.4 L178.3 64.4 L178.4 64.5 L178.4 64.6 L178.5 64.7 L178.6 64.8 L178.8 64.8 L178.8 64.9 L178.9 64.9 L178.9 65.0 L178.9 65.1 L179.0 65.2 L179.1 65.3 L179.1 65.4 L179.2 65.4 L179.5 65.4 L179.5 65.4 L179.6 65.6 L179.7 65.6 L179.7 65.6 L179.9 65.5 L180.0 65.5 L180.1 65.5 L180.2 65.7 L180.3 65.7 L180.4 65.8 L180.6 65.9 L180.8 66.0 L180.8 66.1 L180.8 66.5 L180.8 66.7 L180.8 66.8 L180.9 66.8 L181.0 66.8 L181.1 66.8 L181.1 66.9 L181.1 67.0 L181.1 67.1 L181.1 67.4 L181.1 67.5 L181.0 67.7 L181.0 67.9 L181.0 68.0 L180.9 68.1 L180.9 68.1 L180.8 68.3 L180.7 68.4 L181.0 68.5 L181.0 68.5 L181.0 68.5 L181.0 68.6 L181.1 68.6 L181.2 68.7 L181.2 68.7 L181.3 68.8 L181.4 69.0 L181.5 69.1 L181.5 69.3 L181.4 69.4 L181.3 69.8 L181.3 70.0 L181.3 70.0 L181.4 70.1 L181.4 70.1 L181.4 70.2 L181.4 70.3 L181.2 70.6 L181.4 70.8 L181.4 70.8 L181.5 70.9 L181.6 70.9 L181.7 70.9 L181.8 70.9 L181.8 71.0 L181.8 71.1 L181.8 71.3 L181.9 71.4 L182.0 71.5 L182.3 71.7 L182.4 71.8 L182.7 72.1 L182.8 72.3 L182.9 72.4 L183.1 72.5 L183.2 72.9 L183.3 73.3 L183.6 74.2 L183.7 74.4 L183.7 74.8 L183.8 75.0 L184.0 75.1 L184.2 75.1 L184.3 75.2 L184.4 75.5 L184.4 75.6 L184.4 75.7 L184.3 75.8 L184.3 75.9 L184.3 76.0 L184.5 76.1 L184.6 76.2 L184.8 76.1 L184.9 76.2 L185.0 76.2 L185.0 76.3 L185.1 76.3 L185.2 76.3 L185.3 76.2 L185.5 76.2 L185.6 76.3 L185.7 76.4 L185.8 76.3 L186.1 76.5 L186.3 76.4 L186.4 76.5 L186.5 76.5 L186.5 76.5 L186.6 76.4 L186.7 76.5 L186.8 76.5 L186.8 76.4 L186.9 76.4 L186.9 76.5 L187.1 76.6 L187.4 76.8 L187.5 76.9 L187.4 77.0 L187.5 77.0 L187.7 77.0 L187.8 77.1 L187.8 77.2 L187.7 77.3 L187.7 77.3 L187.8 77.3 L187.9 77.3 L188.1 77.5 L188.2 77.5 L188.3 77.6 L188.8 77.4 L189.0 77.5 L189.3 77.6 L189.5 77.7 L189.7 77.9 L189.9 77.7 L190.1 77.8 L190.4 77.9 L190.6 78.0 L190.5 78.2 L190.5 78.2 L190.6 78.3 L190.9 78.3 L190.9 78.3 L191.1 78.6 L191.2 78.7 L191.9 79.0 L192.2 79.1 L192.5 79.1 L192.9 79.0 L193.1 79.0 L193.1 79.2 L193.2 79.3 L193.4 79.2 L193.7 79.1 L193.8 79.1 L194.3 79.2 L194.8 79.1 L195.5 79.1 L195.6 79.1 L195.7 79.3 L195.8 79.3 L196.5 79.3 L196.7 79.4 L196.9 79.5 L197.0 79.6 L197.1 79.7 L197.2 79.8 L197.3 79.9 L197.5 80.0 L197.9 80.4 L198.1 80.5 L198.2 80.5 L198.3 80.6 L198.5 80.6 L198.6 80.6 L198.6 80.8 L198.7 80.9 L198.9 80.9 L198.9 80.9 L198.9 80.8 L198.9 80.8 L199.0 80.8 L199.1 80.8 L199.1 80.9 L199.1 81.0 L199.2 81.0 L199.4 80.9 L199.4 80.7 L199.3 80.6 L199.3 80.4 L199.3 80.3 L199.5 80.2 L199.7 80.3 L199.9 80.3 L200.1 80.1 L200.1 80.0 L200.2 80.0 L200.6 80.0 L201.2 79.9 Z" fill="#172033" fill-rule="evenodd"/></svg>
