<svg xmlns="http://www.w3.org/2000/svg" viewBox="0 0 320 200" role="img"><path d="M275.9 99.2 L275.8 99.1 L275.0 98.4 L275.0 98.3 L275.1 98.1 L275.3 97.9 L275.6 97.8 L275.8 97.7 L276.1 97.7 L276.6 97.9 L276.9 97.9 L277.0 98.0 L277.1 98.1 L277.3 98.4 L277.5 98.6 L277.6 98.7 L277.7 98.7 L277.9 98.7 L278.6 98.9 L278.6 99.0 L278.6 99.0 L278.7 99.3 L278.0 99.2 L277.0 99.2 L276.4 99.2 L275.9 99.2 L275.9 99.2 Z M56.1 69.7 L56.5 70.0 L57.2 70.5 L57.4 70.6 L57.7 70.5 L57.8 70.3 L57.7 70.2 L57.4 70.3 L57.6 70.1 L57.9 70.1 L59.5 70.7 L59.9 70.9 L60.4 71.5 L62.1 74.8 L62.4 75.1 L62.7 75.4 L62.8 75.5 L63.6 75.9 L63.9 76.2 L64.2 76.5 L64.4 77.0 L64.5 77.2 L64.9 77.4 L67.4 79.4 L68.0 79.7 L68.6 79.8 L68.8 79.9 L69.5 80.6 L70.9 82.0 L72.3 84.3 L72.8 85.5 L74.2 87.8 L75.0 89.3 L75.1 89.6 L75.1 89.7 L75.4 90.0 L75.5 90.1 L75.5 90.3 L75.4 90.7 L75.4 91.0 L75.5 91.6 L75.8 93.7 L75.7 94.0 L75.6 94.3 L75.5 94.6 L75.7 95.2 L75.7 95.4 L76.1 96.7 L76.1 97.2 L76.1 97.3 L75.9 97.8 L75.8 98.0 L75.7 98.1 L75.5 98.3 L75.5 98.4 L75.5 98.5 L75.6 98.9 L75.5 99.0 L75.4 99.1 L75.4 99.1 L75.2 99.1 L75.1 99.2 L74.8 99.6 L74.7 99.8 L74.7 100.1 L74.8 100.5 L75.3 101.8 L75.3 102.2 L74.9 102.0 L74.7 102.4 L74.6 103.0 L74.5 103.5 L74.5 104.0 L74.5 104.2 L74.2 104.2 L74.1 104.4 L74.0 104.7 L73.9 104.9 L73.9 105.1 L74.0 105.4 L74.6 106.6 L74.6 106.7 L74.8 107.1 L75.3 107.5 L75.7 108.0 L75.5 108.4 L75.9 108.3 L75.3 109.8 L75.2 110.4 L75.4 112.1 L75.5 112.4 L75.6 112.6 L75.3 116.1 L75.4 116.6 L75.8 117.6 L76.5 118.5 L78.1 120.1 L78.2 120.1 L78.3 120.2 L78.5 120.3 L78.8 120.3 L78.9 120.3 L79.1 120.5 L79.2 120.6 L79.4 120.5 L79.7 120.4 L79.9 120.4 L79.9 120.6 L79.9 120.7 L79.9 120.8 L80.4 121.2 L80.6 121.4 L81.0 122.2 L80.8 122.5 L80.8 122.8 L80.9 123.1 L82.0 124.4 L82.1 124.5 L82.4 124.7 L82.5 124.8 L82.6 124.9 L82.6 125.2 L82.6 125.4 L82.7 125.5 L82.9 125.8 L83.0 126.0 L83.0 126.1 L82.8 126.4 L82.8 126.6 L82.9 126.9 L83.5 127.7 L83.9 128.6 L84.2 128.9 L84.3 129.3 L84.4 129.4 L84.7 129.8 L84.8 129.9 L84.9 130.2 L84.9 130.5 L84.9 131.1 L85.0 131.4 L85.1 131.7 L85.3 131.9 L85.5 131.7 L85.6 131.7 L86.0 132.4 L86.1 133.0 L86.4 133.4 L86.4 133.6 L86.4 134.1 L86.5 134.3 L86.7 134.5 L86.8 134.7 L86.7 134.8 L86.8 135.0 L86.9 135.6 L87.2 136.4 L87.3 137.0 L87.4 137.4 L87.3 137.5 L87.1 137.6 L87.2 138.3 L87.1 138.5 L86.6 138.5 L86.5 138.5 L86.4 138.7 L86.3 138.8 L85.7 138.7 L85.4 138.7 L84.8 138.5 L84.7 138.4 L84.7 138.2 L84.7 137.9 L84.6 137.7 L84.5 137.6 L84.3 137.5 L84.1 137.3 L84.1 136.8 L84.4 136.6 L85.0 136.4 L85.3 136.0 L85.0 135.9 L84.8 136.0 L84.5 136.1 L84.1 136.5 L84.0 136.5 L83.9 136.4 L83.8 136.2 L83.4 135.2 L83.1 134.7 L82.7 134.5 L82.7 134.7 L82.8 135.1 L83.3 135.9 L83.3 136.1 L83.3 136.5 L83.3 136.7 L83.4 136.9 L83.4 137.1 L83.4 137.3 L82.9 137.7 L82.2 137.6 L81.0 136.9 L80.6 137.0 L80.0 137.3 L79.7 137.3 L79.2 137.3 L79.0 137.3 L78.7 137.4 L78.0 138.3 L77.6 138.7 L77.1 138.6 L77.1 138.5 L77.0 138.4 L76.9 138.3 L76.8 138.3 L76.8 138.5 L76.9 138.7 L76.9 138.8 L76.9 139.0 L76.6 139.3 L76.4 139.8 L76.2 139.6 L75.8 139.1 L75.6 138.9 L75.4 138.6 L75.0 137.1 L74.7 136.5 L74.3 136.1 L73.7 135.7 L72.1 135.0 L69.7 133.6 L69.1 133.3 L68.8 133.2 L68.5 133.2 L68.2 133.1 L68.1 133.0 L67.9 132.6 L67.6 132.3 L67.2 132.0 L66.9 131.7 L66.4 131.5 L66.2 131.6 L65.5 131.7 L65.3 131.7 L64.9 131.5 L64.8 131.3 L64.5 130.7 L64.3 130.4 L63.1 129.5 L62.9 129.3 L62.8 129.1 L63.0 129.1 L63.0 129.1 L63.0 129.0 L62.9 128.9 L62.8 128.8 L62.5 128.6 L62.0 128.3 L60.0 127.5 L57.7 126.5 L57.3 126.3 L56.9 126.0 L55.8 124.8 L55.7 124.7 L55.4 124.6 L55.1 124.5 L54.9 124.3 L54.9 124.0 L54.7 124.0 L54.5 123.9 L54.1 123.6 L53.8 123.8 L53.4 123.8 L53.2 124.0 L53.1 123.7 L53.1 123.2 L53.0 122.8 L52.8 122.7 L52.7 122.6 L52.5 122.5 L52.3 122.3 L52.1 121.5 L51.9 121.3 L51.7 121.2 L51.1 121.2 L50.9 121.1 L50.8 120.9 L50.5 120.8 L49.7 120.6 L49.5 120.5 L49.0 120.4 L48.7 120.3 L48.1 119.9 L47.8 119.5 L47.1 118.4 L46.7 118.1 L46.0 117.9 L45.4 117.9 L45.1 117.6 L45.3 117.0 L45.0 117.0 L45.0 116.8 L45.7 115.9 L45.9 115.7 L46.1 115.6 L46.3 115.5 L46.3 115.1 L46.2 114.4 L46.1 114.3 L45.7 113.9 L45.6 113.8 L45.3 111.9 L45.2 111.7 L45.0 111.4 L44.5 111.0 L44.5 110.9 L44.4 110.8 L44.4 110.7 L44.1 110.6 L43.9 110.5 L43.8 110.5 L43.8 110.4 L43.7 110.2 L43.0 109.3 L42.6 108.9 L42.5 108.7 L42.4 108.4 L42.1 108.0 L42.0 107.4 L41.8 107.1 L41.6 106.8 L40.6 106.1 L40.2 105.9 L40.1 105.8 L40.0 105.7 L39.8 105.3 L39.4 104.9 L39.2 104.7 L38.6 104.6 L38.4 104.5 L38.4 104.2 L38.6 103.9 L38.8 103.7 L38.9 103.5 L38.7 103.5 L38.4 103.5 L38.2 103.6 L38.2 103.7 L38.0 103.7 L37.7 103.6 L37.3 103.4 L37.1 103.3 L37.0 103.1 L36.9 102.9 L36.8 102.6 L36.8 101.9 L36.9 101.7 L37.1 101.6 L38.0 101.6 L38.3 101.6 L38.5 101.3 L38.7 101.2 L39.0 101.1 L39.2 101.2 L39.1 100.9 L38.8 100.9 L38.4 101.1 L38.3 101.2 L37.9 101.2 L37.9 100.9 L37.9 100.6 L37.9 100.2 L37.8 100.1 L37.0 99.6 L36.8 99.3 L36.5 99.1 L36.2 99.1 L35.9 99.3 L35.7 99.0 L35.6 98.5 L35.5 98.1 L35.6 97.9 L35.4 97.8 L35.4 97.7 L35.4 97.5 L35.3 97.2 L35.1 97.1 L35.0 97.1 L34.9 97.0 L35.0 96.7 L35.1 96.3 L35.2 96.1 L35.2 95.8 L35.3 95.7 L35.5 95.5 L35.6 95.3 L35.6 94.9 L35.9 94.0 L36.1 93.6 L35.8 93.7 L35.6 93.6 L35.4 93.4 L35.3 93.2 L35.3 92.9 L35.5 92.6 L35.7 92.5 L35.9 92.6 L36.0 92.4 L36.1 92.3 L36.2 92.1 L36.4 92.0 L36.0 92.0 L35.7 92.1 L35.5 92.1 L35.4 91.7 L35.3 91.0 L35.5 90.8 L35.9 90.8 L35.9 90.7 L35.8 90.7 L35.6 90.6 L35.7 90.4 L35.7 90.3 L35.4 90.2 L35.2 90.2 L35.2 90.2 L35.1 90.2 L35.0 90.0 L35.0 89.8 L35.1 89.6 L35.1 89.4 L35.0 89.4 L34.9 89.4 L34.8 89.3 L34.7 89.1 L34.6 89.2 L34.4 89.3 L34.1 89.3 L33.9 89.2 L34.0 89.1 L34.2 89.0 L34.2 89.0 L34.2 88.8 L34.2 88.7 L34.1 88.7 L33.9 88.5 L33.8 88.5 L33.6 88.5 L33.5 88.6 L33.4 88.7 L33.2 88.5 L33.1 88.3 L33.1 88.1 L33.0 87.9 L32.6 87.5 L32.5 87.2 L32.3 86.7 L32.2 86.5 L32.1 86.2 L32.1 86.1 L32.2 86.1 L32.2 86.1 L32.3 86.1 L32.5 85.9 L32.6 85.8 L32.7 85.6 L32.8 85.2 L33.0 84.7 L33.1 84.4 L33.0 84.3 L32.9 84.0 L32.9 83.9 L32.9 83.7 L33.0 83.5 L33.1 83.3 L33.0 83.1 L32.7 82.5 L32.4 82.1 L32.3 81.9 L32.3 81.6 L32.4 80.4 L32.3 80.0 L32.0 79.5 L31.9 79.2 L31.8 78.0 L32.0 78.0 L32.1 78.1 L32.3 78.1 L32.4 78.0 L32.4 77.9 L32.3 77.8 L32.2 77.7 L32.1 77.6 L32.3 76.0 L31.9 73.2 L31.8 72.9 L31.6 72.7 L31.4 72.3 L31.2 71.7 L30.6 70.8 L30.5 70.2 L30.3 70.0 L29.8 69.7 L29.4 69.2 L29.1 68.6 L28.9 68.0 L28.8 67.4 L28.8 67.1 L28.9 66.9 L29.0 66.6 L29.1 66.2 L29.1 66.1 L29.0 65.9 L29.0 65.8 L29.1 65.6 L29.3 65.5 L29.3 65.4 L29.3 65.2 L29.2 64.9 L29.2 64.6 L29.3 64.0 L29.3 63.7 L29.3 63.6 L29.4 63.5 L29.6 63.4 L29.8 63.5 L29.8 63.5 L29.9 63.6 L30.0 63.7 L30.2 63.7 L30.2 63.6 L30.4 63.5 L30.5 63.5 L30.7 63.5 L30.8 63.6 L30.9 63.7 L31.5 65.2 L31.6 65.5 L31.9 65.7 L32.3 65.9 L32.4 66.0 L32.7 66.1 L33.0 66.1 L33.3 66.1 L33.6 66.1 L34.0 66.4 L34.3 66.6 L35.1 66.8 L35.6 67.0 L35.9 67.1 L36.1 67.1 L37.0 66.4 L37.2 66.4 L37.3 66.5 L37.3 66.8 L37.3 66.9 L37.4 67.0 L37.6 67.0 L37.7 67.0 L37.9 67.1 L38.2 67.2 L38.3 67.5 L38.4 68.2 L38.4 68.3 L38.4 68.5 L38.6 68.8 L38.6 68.9 L38.6 69.0 L38.6 69.1 L38.6 69.2 L38.5 69.3 L38.5 69.7 L38.6 69.8 L38.7 70.0 L38.8 70.0 L38.8 69.9 L39.0 69.9 L39.2 69.9 L39.8 70.0 L40.0 70.0 L40.4 69.6 L40.7 69.5 L41.1 69.9 L41.4 70.0 L42.0 69.8 L42.2 69.9 L42.3 70.1 L42.3 70.3 L42.3 70.7 L42.2 70.8 L42.0 70.9 L41.8 71.1 L41.8 71.4 L42.0 71.7 L42.3 71.9 L42.4 72.1 L42.3 72.7 L42.3 73.5 L42.2 73.9 L42.2 74.2 L42.0 74.5 L41.8 74.6 L41.5 74.6 L41.3 74.8 L40.7 75.9 L40.6 76.1 L40.6 76.3 L40.6 76.4 L40.7 76.5 L40.8 76.7 L40.9 77.0 L41.0 77.1 L41.2 77.2 L41.4 77.2 L41.6 77.2 L41.9 77.4 L42.2 77.7 L42.4 78.1 L42.5 78.4 L42.8 78.5 L43.2 78.4 L43.8 78.0 L44.0 77.8 L44.2 77.6 L44.3 77.3 L44.4 77.0 L44.5 76.3 L45.0 76.1 L45.5 76.0 L46.1 75.8 L46.6 75.4 L48.1 74.8 L48.6 74.7 L48.9 74.6 L49.2 74.7 L49.4 75.0 L49.5 75.1 L49.6 75.2 L49.7 75.3 L49.8 75.3 L50.0 75.4 L50.0 75.5 L49.9 75.6 L49.9 75.8 L50.2 76.4 L50.4 76.6 L50.7 76.7 L50.8 76.6 L50.9 76.6 L51.1 76.4 L51.3 76.3 L51.4 76.4 L51.6 76.5 L51.6 76.7 L51.8 76.9 L52.1 77.0 L52.3 77.0 L52.5 76.8 L52.6 76.5 L52.7 76.4 L53.1 76.2 L53.1 76.1 L53.2 75.9 L53.3 75.8 L53.4 75.7 L53.9 75.3 L54.0 74.8 L54.0 74.2 L54.2 73.6 L54.5 73.2 L55.6 72.4 L55.9 72.0 L56.1 71.6 L56.0 70.5 L56.1 69.7 Z M239.9 88.7 L240.1 88.7 L240.4 88.7 L240.5 88.6 L240.7 88.1 L240.8 88.0 L241.0 88.0 L241.2 88.2 L241.2 88.3 L241.3 88.3 L241.6 88.3 L241.7 88.3 L241.9 88.4 L242.0 88.4 L242.1 88.7 L242.4 88.8 L242.7 88.8 L242.9 88.8 L243.1 88.7 L243.5 88.2 L243.6 88.1 L244.2 87.6 L244.6 87.0 L244.8 86.9 L245.1 86.9 L245.3 86.8 L245.6 86.6 L245.7 86.5 L245.8 86.2 L245.9 85.7 L245.9 85.1 L245.9 85.0 L246.1 84.7 L246.2 84.6 L246.3 84.5 L246.4 84.4 L246.3 84.2 L245.7 84.5 L245.2 84.5 L244.7 84.3 L243.5 83.2 L243.5 83.0 L243.5 82.9 L243.5 82.8 L243.3 82.8 L243.3 82.8 L243.0 83.1 L242.9 82.9 L243.0 82.7 L243.0 82.5 L243.1 82.0 L243.2 81.8 L243.3 81.7 L243.4 81.6 L243.5 81.4 L244.3 81.0 L244.4 80.7 L244.6 80.5 L245.6 79.8 L246.1 78.7 L246.4 78.5 L246.6 78.8 L246.1 79.7 L246.4 80.1 L246.4 79.9 L246.5 79.6 L246.6 79.4 L247.0 79.8 L247.3 80.0 L248.6 80.0 L249.0 80.0 L249.4 79.9 L249.8 79.5 L250.2 79.0 L250.4 78.4 L250.6 77.8 L250.7 77.2 L250.8 76.9 L250.9 76.7 L251.1 76.5 L252.4 75.8 L252.6 75.6 L252.7 75.2 L252.8 74.6 L252.9 74.3 L253.7 72.9 L253.9 72.3 L253.7 71.9 L253.4 72.0 L253.3 71.8 L253.4 71.6 L253.8 71.4 L254.1 71.3 L254.7 70.3 L255.0 70.0 L255.2 69.9 L255.5 69.9 L255.6 69.9 L255.8 70.0 L256.0 70.1 L256.1 69.9 L256.0 69.5 L255.9 69.4 L255.6 69.6 L255.2 69.6 L255.2 69.5 L255.6 69.3 L255.8 69.1 L255.9 69.0 L256.0 69.0 L256.3 69.0 L256.4 68.9 L256.4 68.9 L256.4 68.8 L256.6 68.4 L256.6 68.3 L256.7 68.2 L256.8 68.0 L258.1 67.1 L258.3 66.8 L258.5 66.7 L258.8 66.5 L259.0 66.4 L259.1 66.1 L259.1 65.9 L259.1 65.8 L259.1 65.6 L259.2 65.3 L259.4 65.3 L259.7 65.1 L260.5 63.9 L260.8 63.7 L260.9 63.5 L261.0 63.3 L261.0 62.9 L261.0 62.4 L261.0 62.3 L261.1 62.2 L261.2 61.9 L261.3 61.8 L261.3 61.3 L261.3 61.0 L261.7 60.8 L261.8 60.6 L262.0 60.1 L262.0 59.7 L262.0 59.6 L262.1 59.6 L262.2 59.5 L262.3 59.3 L262.4 59.1 L262.5 59.0 L262.7 58.9 L262.8 58.9 L262.9 59.0 L263.0 59.3 L263.6 59.7 L263.7 59.8 L263.9 60.8 L263.6 60.7 L263.5 60.6 L263.4 60.7 L263.3 61.1 L263.3 61.2 L263.5 61.4 L263.7 61.4 L263.9 61.6 L264.0 61.8 L263.9 62.4 L263.8 62.8 L263.3 63.4 L263.1 63.9 L262.9 64.5 L262.9 65.0 L263.5 65.2 L263.8 65.0 L264.0 64.8 L264.2 64.5 L264.3 64.4 L264.5 64.3 L265.1 63.7 L265.6 63.4 L265.7 63.2 L265.8 62.7 L265.8 62.7 L265.9 62.6 L266.0 62.6 L266.2 62.2 L266.7 61.7 L266.8 61.5 L266.7 61.2 L266.4 60.5 L266.4 60.2 L266.5 60.1 L266.6 60.1 L266.8 60.1 L266.9 60.2 L267.1 60.1 L267.1 60.0 L267.2 59.9 L267.1 59.9 L267.0 59.8 L267.0 59.6 L267.0 59.5 L267.1 59.4 L267.2 59.4 L267.4 59.4 L267.6 59.5 L267.7 59.5 L267.8 59.4 L268.0 59.2 L268.1 59.2 L268.2 59.3 L268.6 59.5 L268.7 59.5 L268.7 59.5 L269.4 60.0 L269.5 60.0 L269.6 60.2 L269.6 60.4 L269.5 61.1 L269.4 61.2 L269.2 61.3 L269.2 61.6 L269.2 61.8 L269.3 62.1 L269.8 62.7 L269.9 63.0 L269.9 63.9 L270.0 64.1 L270.1 64.4 L270.3 64.5 L270.9 64.5 L271.1 64.6 L271.3 64.7 L271.6 65.1 L271.9 65.4 L272.2 65.6 L272.4 65.6 L272.7 65.6 L272.8 65.4 L273.1 64.9 L273.4 64.6 L273.5 64.6 L273.5 64.8 L273.5 65.2 L273.6 65.2 L273.9 65.5 L273.9 65.5 L273.8 65.6 L273.8 65.7 L273.8 65.7 L273.9 65.8 L274.1 65.8 L274.1 65.8 L274.3 66.0 L274.5 66.1 L274.6 66.1 L274.8 66.0 L275.0 66.0 L275.1 66.1 L275.5 66.5 L275.6 66.7 L275.7 67.0 L275.8 67.0 L275.9 66.9 L276.0 66.8 L276.0 66.8 L276.1 66.9 L276.2 67.0 L276.2 67.1 L276.2 67.2 L276.2 67.4 L276.3 67.5 L276.4 67.8 L276.4 67.9 L276.4 68.0 L276.3 68.1 L276.2 68.2 L276.4 68.6 L276.2 69.6 L276.1 69.8 L275.9 69.8 L275.5 69.7 L275.2 69.8 L274.9 70.0 L274.5 70.3 L274.4 70.6 L274.5 70.8 L274.8 71.1 L275.0 71.7 L275.2 71.8 L275.3 71.9 L275.3 72.0 L275.3 72.1 L275.3 72.2 L275.3 72.4 L275.2 72.5 L275.0 72.5 L274.9 72.6 L274.9 72.8 L275.0 73.0 L275.2 73.1 L275.4 73.2 L275.5 73.5 L275.4 73.7 L275.2 73.9 L274.7 74.2 L272.9 74.8 L272.6 75.2 L272.8 75.1 L273.6 74.8 L274.0 74.7 L275.0 74.7 L275.9 74.6 L276.6 74.7 L276.9 74.6 L276.9 74.5 L276.8 74.1 L277.0 74.0 L277.1 74.0 L277.3 74.1 L277.5 74.1 L277.7 74.1 L278.4 74.0 L278.5 73.9 L278.6 73.7 L278.8 73.5 L279.2 73.3 L279.7 72.7 L279.9 72.5 L280.0 72.5 L280.1 72.4 L280.3 72.5 L280.7 73.0 L280.8 73.1 L280.8 73.3 L280.8 73.4 L281.0 73.5 L281.1 73.7 L281.0 74.0 L281.1 74.3 L281.7 75.1 L281.8 75.2 L281.8 75.3 L281.4 75.8 L281.2 75.9 L280.9 76.0 L280.5 76.0 L280.3 75.9 L280.0 76.0 L279.2 75.9 L278.9 76.0 L278.8 76.2 L278.7 76.4 L278.9 76.4 L278.9 76.5 L279.4 77.6 L279.5 77.7 L279.5 77.8 L279.6 77.7 L279.8 77.7 L280.0 77.6 L280.6 77.4 L280.8 77.3 L280.9 77.3 L281.0 77.4 L281.1 77.5 L281.2 77.5 L281.4 77.4 L281.5 77.4 L281.7 77.4 L281.8 77.6 L281.9 77.7 L282.1 77.6 L282.2 77.5 L282.2 77.4 L282.1 77.2 L282.2 77.0 L282.3 76.9 L282.3 76.8 L282.4 76.7 L282.3 76.4 L282.3 76.2 L282.5 76.1 L283.1 76.0 L283.7 75.8 L284.0 75.8 L284.8 76.2 L284.8 76.2 L284.9 76.2 L285.0 76.0 L285.2 76.0 L285.3 76.0 L285.4 76.1 L285.5 76.1 L285.8 76.2 L287.2 77.0 L287.7 77.4 L287.9 77.6 L288.2 77.7 L288.4 77.8 L288.5 78.0 L288.4 78.1 L288.3 78.2 L288.2 78.3 L288.2 78.3 L288.0 79.1 L287.9 79.4 L287.9 79.7 L288.0 80.0 L288.1 80.0 L288.2 79.6 L288.3 79.5 L288.4 79.4 L288.5 79.2 L288.5 78.9 L288.5 78.7 L288.9 78.4 L289.2 78.5 L289.5 78.6 L290.1 79.4 L290.4 79.7 L290.6 79.8 L291.0 79.9 L291.3 80.1 L291.5 80.3 L291.6 80.7 L291.7 80.6 L291.7 80.5 L291.7 80.4 L291.7 80.3 L292.4 80.8 L292.7 80.9 L292.9 81.0 L293.2 81.3 L293.2 81.6 L293.0 81.7 L293.1 81.9 L293.4 81.9 L293.6 81.9 L293.8 81.8 L293.8 81.6 L293.7 81.5 L293.7 81.4 L293.9 81.3 L294.2 81.3 L294.9 81.6 L295.3 81.6 L296.4 81.1 L296.8 81.1 L297.0 81.2 L297.2 81.4 L297.5 81.8 L297.8 82.1 L297.9 82.3 L298.0 82.6 L298.0 82.9 L297.8 83.3 L297.8 83.6 L297.9 84.2 L297.8 84.6 L297.5 84.8 L296.8 85.6 L296.3 85.9 L293.7 86.8 L291.1 87.6 L290.6 87.9 L290.3 88.0 L289.9 88.1 L289.6 88.2 L289.4 88.1 L289.0 87.9 L288.5 87.9 L288.3 87.8 L288.1 87.8 L287.9 87.9 L287.5 88.2 L287.2 88.4 L287.1 88.4 L286.9 88.2 L286.8 88.1 L286.5 87.7 L286.1 87.1 L285.6 86.9 L285.3 86.8 L285.2 86.9 L285.1 86.9 L284.8 87.0 L284.3 87.4 L284.2 87.3 L284.1 87.4 L284.1 87.5 L284.1 87.7 L283.6 87.6 L283.1 87.9 L282.3 88.8 L282.1 88.9 L282.0 89.1 L281.9 89.2 L281.9 89.4 L282.0 89.4 L282.1 89.5 L282.4 89.7 L282.5 89.8 L282.6 89.9 L282.8 90.3 L283.1 90.8 L283.5 91.3 L283.9 91.7 L284.4 92.0 L284.6 92.2 L284.7 92.3 L284.8 92.3 L285.0 92.3 L285.3 92.4 L285.4 92.4 L285.4 92.5 L285.6 92.8 L285.6 92.9 L285.7 92.9 L285.8 93.0 L286.1 93.1 L286.1 92.9 L286.3 92.8 L286.5 92.9 L286.7 93.0 L286.9 93.2 L286.9 93.4 L286.8 93.5 L286.7 93.7 L286.6 93.9 L286.8 94.1 L286.9 94.2 L287.0 94.3 L287.1 94.4 L287.4 94.3 L287.8 94.0 L287.9 94.0 L288.3 94.1 L288.5 94.2 L288.4 94.3 L288.5 94.6 L289.1 95.2 L289.1 95.3 L289.0 95.5 L288.8 95.6 L288.7 95.5 L288.6 95.5 L288.4 95.4 L288.4 95.7 L288.4 95.9 L288.2 96.0 L288.1 96.2 L287.9 96.3 L287.7 96.4 L287.1 96.4 L286.9 96.4 L286.4 96.5 L286.2 96.6 L285.5 96.6 L285.2 96.5 L285.0 96.4 L284.8 96.6 L284.7 96.7 L283.4 97.0 L282.3 97.2 L282.0 97.3 L280.1 98.2 L279.8 98.2 L278.9 98.0 L278.7 97.9 L278.5 97.8 L278.0 97.3 L277.8 97.2 L277.7 97.2 L277.5 97.2 L277.5 97.1 L277.4 96.8 L277.3 96.8 L277.1 96.7 L276.7 96.6 L276.4 96.5 L276.2 96.5 L275.9 96.3 L275.8 96.0 L275.6 95.7 L275.4 95.5 L275.2 95.5 L274.9 95.7 L274.6 95.9 L274.5 96.1 L274.5 96.2 L274.8 96.4 L274.9 96.5 L274.9 97.1 L274.9 97.3 L275.1 97.5 L275.2 97.6 L275.1 97.8 L275.0 97.9 L274.7 98.1 L274.6 98.2 L274.5 98.3 L274.4 98.4 L274.4 98.5 L274.4 98.6 L274.7 98.9 L274.8 99.0 L274.6 99.0 L274.5 99.0 L273.9 99.2 L273.8 99.1 L273.6 99.0 L273.2 99.0 L273.0 99.0 L272.5 99.0 L272.1 98.8 L271.8 98.6 L271.0 97.8 L269.8 97.2 L269.3 96.9 L269.2 96.7 L269.1 96.6 L269.0 96.5 L268.8 96.5 L268.7 96.5 L268.4 96.7 L268.3 96.8 L265.7 96.8 L264.9 96.6 L264.3 96.6 L263.2 96.8 L262.7 96.7 L262.2 96.3 L261.9 96.3 L261.5 96.7 L261.2 96.8 L260.9 96.8 L260.6 96.6 L260.2 96.8 L260.0 96.8 L259.4 95.9 L259.3 95.9 L259.2 96.1 L258.9 96.3 L258.8 96.6 L258.8 96.7 L258.8 96.8 L258.9 96.9 L258.7 97.0 L258.5 97.1 L258.3 97.0 L258.2 97.0 L257.8 97.4 L257.7 97.4 L257.6 97.4 L257.4 97.3 L257.1 96.7 L257.0 96.5 L257.0 96.5 L256.9 96.4 L256.8 96.4 L256.7 96.4 L256.3 96.1 L255.9 96.1 L255.5 96.3 L255.1 96.4 L254.9 96.4 L254.3 96.3 L254.0 96.2 L253.8 96.2 L253.7 96.1 L253.6 96.4 L253.5 96.6 L253.3 96.7 L253.1 96.9 L252.4 97.6 L252.2 97.6 L252.0 97.6 L251.8 97.4 L251.7 97.2 L251.7 96.9 L251.6 96.8 L251.4 96.7 L251.1 96.6 L250.5 96.6 L250.2 96.5 L250.1 96.3 L250.0 96.1 L249.9 96.0 L249.7 96.0 L249.5 96.2 L249.4 96.6 L249.4 97.1 L249.4 97.5 L248.8 98.0 L248.8 98.1 L248.7 98.3 L248.5 98.3 L248.4 98.3 L248.3 98.1 L248.2 98.1 L247.6 98.6 L247.5 98.8 L247.4 98.9 L247.1 98.9 L247.0 99.1 L246.8 99.4 L246.8 99.6 L246.6 100.9 L246.4 101.5 L246.2 102.0 L246.0 102.2 L245.5 102.5 L245.4 102.6 L245.4 102.9 L245.6 103.1 L245.9 103.3 L246.1 103.5 L246.1 103.9 L245.6 105.6 L245.5 106.1 L245.5 106.7 L245.6 107.0 L245.9 107.9 L245.9 108.0 L245.9 108.3 L245.9 108.4 L246.0 108.6 L246.2 109.0 L246.3 109.3 L246.3 109.5 L246.2 109.6 L246.1 109.7 L246.0 109.6 L245.8 109.6 L245.7 109.5 L245.4 109.8 L245.1 110.5 L244.6 112.6 L244.7 112.9 L244.9 113.1 L245.1 113.2 L245.1 113.3 L244.6 114.0 L244.5 114.2 L244.5 114.8 L244.4 115.1 L244.2 115.2 L243.6 115.2 L242.7 115.6 L242.2 115.7 L241.8 115.5 L241.5 115.0 L241.3 114.9 L241.0 115.3 L240.8 115.8 L240.6 116.0 L239.8 116.5 L239.6 116.7 L239.4 117.0 L239.3 117.2 L239.3 117.3 L239.3 117.5 L239.1 117.6 L238.9 117.8 L238.8 117.9 L238.8 117.9 L238.9 118.1 L239.2 118.6 L239.3 118.9 L239.2 119.2 L239.0 119.3 L238.9 119.3 L238.7 119.4 L238.7 119.6 L238.7 119.7 L238.8 120.0 L238.9 120.1 L238.8 120.4 L238.7 120.7 L238.7 121.0 L238.9 121.2 L239.0 121.2 L239.3 121.1 L239.5 121.0 L239.6 121.0 L239.8 121.1 L240.0 121.2 L240.1 121.3 L240.3 121.5 L240.6 121.8 L240.7 122.2 L240.8 122.4 L240.6 122.7 L240.3 122.8 L239.6 122.8 L239.3 123.0 L238.8 123.6 L238.6 123.8 L238.3 123.9 L237.7 124.4 L237.5 124.5 L236.9 124.5 L236.8 124.6 L236.7 124.9 L236.7 125.2 L236.7 125.4 L236.6 125.6 L236.3 125.7 L235.2 125.9 L234.7 126.1 L234.5 126.6 L234.4 127.4 L234.4 127.7 L234.4 127.8 L234.6 128.0 L234.6 128.2 L234.6 128.6 L234.6 128.8 L234.8 129.1 L234.9 129.1 L235.2 129.0 L235.5 128.9 L235.6 129.0 L235.7 129.2 L235.7 129.4 L235.6 129.6 L235.5 129.9 L235.5 130.1 L235.5 130.4 L235.5 130.7 L235.5 130.9 L235.3 131.1 L234.5 131.4 L233.8 131.5 L233.6 131.6 L233.5 131.7 L233.4 131.8 L233.3 131.9 L233.2 132.1 L233.3 132.2 L233.3 132.3 L233.3 132.5 L233.4 132.9 L233.2 133.9 L232.9 134.6 L232.6 135.2 L232.4 135.5 L231.9 135.9 L231.7 136.1 L231.7 136.4 L231.8 136.7 L231.8 137.0 L231.7 137.3 L231.5 137.5 L231.1 137.6 L230.8 137.5 L229.7 136.7 L229.4 136.6 L229.1 136.5 L228.8 136.6 L226.7 137.5 L226.7 137.5 L226.4 137.7 L226.2 137.7 L226.1 137.7 L225.9 137.5 L225.8 137.4 L225.6 137.2 L225.1 137.1 L224.6 137.1 L222.5 137.4 L222.3 137.5 L221.9 137.8 L221.1 138.9 L218.9 140.4 L218.5 140.4 L218.1 140.2 L217.4 139.4 L217.1 139.2 L216.8 139.2 L216.5 139.3 L216.0 139.5 L215.3 139.5 L214.3 138.7 L213.6 138.4 L212.8 138.3 L212.2 138.2 L212.0 138.2 L211.5 137.8 L211.0 137.6 L210.5 137.5 L209.9 137.6 L209.4 137.8 L209.2 137.8 L209.1 137.7 L209.2 137.5 L209.6 137.2 L209.8 137.0 L210.0 136.7 L210.1 136.4 L210.1 136.1 L209.9 135.9 L209.7 135.8 L209.4 135.6 L209.1 135.6 L208.4 135.6 L208.2 135.5 L207.9 135.5 L207.7 135.4 L207.4 135.5 L207.3 135.7 L207.2 135.8 L207.1 135.9 L207.0 136.0 L206.9 136.0 L206.5 135.9 L202.3 135.7 L202.0 135.7 L201.7 135.9 L201.5 136.1 L201.3 136.3 L201.0 136.4 L200.2 136.4 L199.8 136.5 L198.2 137.3 L198.0 137.5 L197.9 137.9 L197.9 138.0 L198.2 138.0 L198.3 138.1 L198.3 138.3 L198.3 138.4 L197.8 139.3 L197.1 141.5 L197.0 141.6 L196.8 141.7 L196.4 141.8 L195.3 141.7 L194.4 142.0 L193.2 143.5 L192.3 143.7 L191.9 143.6 L191.2 143.3 L190.8 143.2 L190.6 143.2 L190.4 143.2 L189.2 143.7 L188.9 144.1 L188.7 144.2 L188.5 143.9 L188.5 143.7 L188.4 143.4 L188.3 143.3 L188.0 143.3 L187.5 143.5 L187.2 143.5 L186.9 143.5 L186.6 143.4 L184.7 142.6 L184.4 142.6 L181.3 143.4 L180.4 143.4 L179.9 143.5 L179.6 143.7 L178.8 144.3 L178.6 144.6 L178.6 144.8 L178.6 144.9 L178.5 145.0 L178.4 145.0 L178.3 144.9 L178.2 144.8 L178.1 144.9 L178.0 145.0 L177.8 145.1 L177.7 145.1 L177.5 145.0 L177.5 145.0 L177.3 145.1 L177.0 145.4 L176.9 145.4 L176.7 145.4 L176.5 145.3 L176.5 145.2 L176.4 145.1 L176.2 145.1 L176.1 145.2 L176.1 145.3 L175.9 145.4 L175.4 145.7 L174.7 145.6 L174.0 145.3 L173.5 144.9 L172.9 144.1 L172.7 143.9 L172.5 143.8 L171.8 143.7 L171.6 143.7 L171.4 143.8 L171.3 143.7 L171.2 143.4 L171.2 143.1 L170.5 142.1 L170.2 141.5 L170.0 141.2 L169.7 141.0 L168.9 140.9 L168.6 140.8 L168.3 140.6 L168.0 140.1 L167.7 139.8 L167.2 139.6 L167.1 139.4 L166.9 139.1 L166.6 138.3 L166.4 138.1 L166.2 138.0 L165.9 138.0 L165.6 138.0 L165.4 138.0 L165.1 137.8 L164.9 137.2 L164.8 137.1 L164.5 137.2 L164.4 137.2 L164.4 136.8 L164.3 136.7 L163.0 135.6 L162.8 135.2 L162.6 134.9 L162.5 134.7 L162.5 134.0 L162.6 132.9 L162.5 132.7 L162.3 132.6 L161.7 132.6 L161.5 132.5 L161.3 132.4 L161.2 132.2 L161.1 132.0 L161.0 131.8 L161.0 131.7 L161.0 131.6 L160.9 131.1 L161.0 130.9 L161.1 130.7 L161.6 130.3 L161.7 130.1 L161.9 129.8 L162.3 129.2 L162.6 128.4 L162.6 128.4 L162.6 128.7 L162.7 129.0 L162.8 129.5 L162.8 129.8 L162.8 130.0 L162.7 130.2 L162.7 130.5 L162.8 130.8 L163.3 131.4 L163.5 131.6 L163.8 131.8 L164.7 132.2 L165.2 132.5 L165.7 132.8 L166.0 132.9 L166.1 133.2 L166.4 133.7 L166.6 133.9 L166.7 133.9 L167.4 133.9 L167.6 133.9 L167.8 133.8 L168.1 133.8 L169.9 133.8 L170.1 133.8 L170.4 134.0 L170.5 134.0 L170.6 134.0 L170.8 133.8 L170.9 133.8 L171.1 133.7 L171.1 133.7 L171.2 133.8 L171.6 134.1 L171.7 134.2 L171.7 133.9 L171.9 133.7 L171.9 133.7 L171.9 133.6 L171.8 133.4 L171.8 133.4 L171.8 132.9 L171.8 132.8 L172.0 132.5 L172.2 132.3 L172.4 132.4 L172.5 132.8 L172.6 133.0 L172.7 133.1 L172.7 133.2 L172.7 133.4 L172.7 133.5 L172.7 133.6 L172.8 133.6 L172.9 133.7 L173.0 133.8 L173.1 133.8 L173.2 133.8 L173.5 133.8 L173.6 133.8 L173.8 133.5 L174.2 133.4 L174.5 133.2 L174.7 133.2 L174.9 133.5 L174.7 133.7 L174.6 133.9 L174.5 134.1 L174.5 134.4 L174.4 134.5 L174.2 134.7 L174.1 134.9 L174.5 134.8 L174.7 134.7 L174.9 134.8 L175.0 135.0 L175.1 135.1 L175.1 135.2 L175.3 135.3 L175.4 135.3 L175.7 135.1 L175.8 135.1 L176.0 135.2 L176.6 135.5 L177.4 135.7 L177.8 135.9 L178.0 136.3 L177.9 136.6 L177.6 136.9 L177.1 137.2 L177.1 137.3 L177.5 137.3 L177.8 137.3 L178.0 137.1 L178.3 136.9 L178.4 136.6 L178.4 136.3 L178.4 136.1 L178.3 135.9 L178.7 135.6 L179.4 135.7 L180.6 136.2 L181.2 136.6 L182.2 137.6 L182.8 138.0 L183.6 138.4 L183.8 138.5 L184.1 138.4 L184.6 138.2 L184.9 138.1 L185.4 138.3 L185.9 138.7 L186.4 138.9 L187.0 138.7 L186.8 138.6 L186.4 138.5 L186.2 138.5 L186.1 138.4 L186.0 138.0 L185.9 137.9 L185.7 137.9 L185.3 137.7 L185.1 137.7 L184.9 137.8 L184.4 138.0 L184.1 138.0 L183.8 137.9 L183.6 137.8 L183.4 137.6 L183.2 137.4 L182.5 137.1 L182.3 136.9 L182.1 136.3 L181.8 136.0 L181.7 135.8 L181.7 135.4 L181.7 135.3 L181.9 134.8 L182.0 134.3 L182.2 134.1 L183.0 134.0 L183.3 133.9 L183.6 134.0 L183.7 134.3 L183.9 134.6 L184.1 134.8 L184.5 134.7 L184.6 134.6 L184.8 134.8 L185.1 134.9 L185.4 134.8 L185.1 134.7 L185.0 134.7 L184.7 134.5 L184.6 134.5 L184.5 134.5 L184.2 134.4 L184.1 134.4 L184.1 134.4 L184.0 134.2 L183.9 134.0 L183.9 133.9 L183.8 133.8 L183.5 133.8 L183.5 133.8 L183.4 133.7 L183.1 133.1 L183.0 133.0 L183.0 132.7 L183.0 132.7 L183.4 132.6 L183.5 132.5 L183.4 132.4 L183.2 132.3 L183.2 132.2 L183.2 131.9 L183.3 131.6 L183.6 131.1 L184.1 130.2 L184.5 128.9 L184.5 128.6 L184.6 128.5 L184.8 128.6 L185.0 128.7 L185.4 128.6 L185.0 128.3 L185.0 128.0 L185.2 127.8 L185.4 127.8 L185.7 127.9 L186.2 128.0 L186.4 128.0 L186.5 127.9 L186.6 127.8 L186.9 127.4 L186.9 127.3 L186.8 127.2 L186.6 127.2 L186.5 127.4 L186.4 127.7 L186.3 127.8 L186.1 127.7 L185.7 127.5 L185.4 127.4 L184.4 127.6 L184.2 127.5 L184.1 127.4 L184.1 127.1 L184.2 126.8 L184.4 126.6 L184.7 126.5 L185.0 126.5 L184.9 126.3 L184.6 126.2 L184.3 126.1 L184.2 126.0 L184.2 125.8 L184.4 125.1 L184.6 124.1 L184.7 123.7 L185.1 123.4 L185.2 123.7 L185.4 123.8 L185.9 123.9 L186.0 124.1 L186.4 124.5 L186.5 124.6 L186.6 124.6 L186.7 124.7 L186.8 124.8 L186.9 124.8 L187.3 124.5 L187.5 124.4 L187.9 124.3 L188.0 124.4 L188.3 124.5 L188.6 124.7 L188.4 124.5 L188.2 124.2 L187.7 123.7 L187.6 123.6 L187.4 123.0 L187.3 122.8 L187.7 122.8 L188.1 122.9 L188.5 122.9 L188.8 122.7 L188.8 122.7 L188.9 122.7 L188.9 122.7 L189.0 122.7 L188.6 122.6 L188.1 122.4 L187.9 122.3 L187.7 122.1 L187.6 122.0 L187.5 121.8 L187.5 121.4 L187.7 120.6 L187.8 120.0 L187.9 119.8 L188.1 119.7 L189.1 118.9 L190.6 117.9 L191.0 117.7 L193.7 117.2 L195.9 117.1 L199.9 116.1 L203.8 115.0 L205.9 114.6 L206.8 114.2 L206.9 114.2 L209.4 113.5 L209.9 113.2 L210.6 112.4 L210.9 111.9 L210.7 111.6 L210.8 111.5 L211.2 111.2 L211.9 110.6 L212.0 110.5 L212.1 110.4 L212.5 109.7 L213.6 108.7 L213.9 108.3 L213.9 108.2 L214.0 108.1 L214.0 107.8 L214.1 107.7 L214.4 107.4 L214.5 107.3 L214.6 107.2 L215.2 106.4 L215.6 105.8 L215.7 105.5 L215.7 105.2 L215.8 104.9 L216.1 104.7 L216.7 104.4 L220.1 101.4 L223.1 97.6 L223.3 96.9 L223.2 96.4 L223.5 95.9 L223.7 95.3 L223.7 94.6 L223.4 93.3 L223.5 93.1 L223.8 93.0 L224.7 93.4 L225.5 93.6 L225.8 93.7 L226.2 94.1 L226.6 94.2 L226.7 94.3 L226.8 94.6 L226.9 94.6 L227.2 94.6 L227.3 94.7 L227.3 94.8 L227.3 94.9 L227.3 95.0 L227.5 95.1 L227.6 95.3 L227.7 95.7 L227.7 96.1 L227.9 96.4 L228.0 97.0 L227.9 97.1 L227.7 97.3 L227.7 97.4 L227.7 97.6 L227.8 97.7 L228.3 97.8 L228.9 97.9 L229.4 97.8 L229.7 97.8 L229.9 98.0 L230.2 98.9 L230.3 99.1 L230.5 99.4 L231.4 100.2 L231.7 100.4 L231.8 100.6 L231.9 100.7 L232.0 101.0 L232.0 101.2 L232.6 101.2 L233.3 100.8 L234.6 99.6 L234.7 99.4 L234.8 98.8 L234.9 98.5 L235.2 98.1 L235.3 97.8 L235.2 97.6 L234.8 97.7 L234.8 97.5 L234.9 97.3 L235.0 97.2 L235.3 96.9 L235.5 96.7 L235.6 96.4 L235.7 95.9 L235.7 95.5 L235.6 95.4 L235.4 95.5 L235.1 95.4 L234.9 95.0 L234.8 94.5 L234.7 92.8 L234.7 92.5 L234.6 92.2 L234.3 91.7 L234.2 91.4 L234.2 91.2 L234.2 91.2 L234.4 91.1 L234.9 90.9 L235.1 90.7 L235.6 90.3 L235.8 90.1 L236.1 90.0 L236.4 90.0 L236.7 90.1 L236.9 90.1 L237.1 89.9 L237.2 89.7 L237.2 89.5 L237.3 89.3 L237.6 89.0 L237.8 88.9 L237.9 88.8 L238.0 88.7 L238.1 88.6 L238.2 88.9 L238.2 89.4 L238.3 89.9 L238.3 89.9 L238.2 91.0 L238.2 92.2 L238.4 92.7 L238.8 93.8 L239.0 94.4 L239.1 95.8 L239.3 96.0 L239.4 96.1 L240.2 96.4 L240.5 96.4 L241.0 96.4 L241.1 96.4 L241.3 96.6 L241.4 96.7 L241.7 96.7 L241.8 96.7 L242.1 96.9 L242.4 97.0 L242.7 97.0 L242.9 96.8 L242.9 96.5 L242.7 96.2 L242.2 95.8 L241.9 95.3 L241.7 94.8 L241.6 94.2 L241.6 93.6 L241.7 93.1 L241.8 92.8 L241.7 92.5 L240.8 89.8 L240.4 89.3 L240.2 89.2 L240.1 89.1 L239.9 89.0 L239.9 88.7 Z M187.4 124.1 L187.4 124.1 L187.4 124.3 L187.4 124.3 L187.3 124.3 L187.1 124.2 L187.0 124.3 L186.9 124.4 L186.8 124.5 L186.7 124.3 L186.4 123.8 L186.3 123.6 L186.0 123.5 L186.0 123.2 L186.1 122.6 L186.1 122.0 L185.8 119.7 L185.9 119.0 L186.1 118.5 L186.5 118.7 L186.8 119.2 L187.0 119.8 L187.0 122.2 L187.1 123.3 L187.4 124.1 Z M31.3 81.1 L31.5 81.3 L31.7 81.4 L31.8 81.5 L31.6 82.0 L31.5 82.6 L31.4 82.8 L31.1 83.5 L31.0 83.7 L30.3 83.6 L29.7 83.6 L29.7 83.6 L29.7 83.6 L29.7 83.7 L29.6 83.6 L29.5 83.6 L29.5 83.5 L29.7 83.4 L29.7 83.2 L29.7 82.4 L29.7 81.8 L29.7 81.7 L29.6 81.5 L29.5 81.5 L29.5 81.4 L29.5 81.3 L29.6 81.2 L29.6 81.1 L29.5 81.0 L29.7 80.9 L29.8 81.0 L29.8 81.1 L29.9 81.2 L30.1 81.1 L30.1 81.0 L30.2 80.9 L30.3 80.9 L30.6 80.8 L30.8 80.8 L31.1 80.9 L31.3 81.1 Z M25.6 68.2 L25.7 68.4 L25.8 68.6 L25.8 68.7 L25.7 68.8 L25.5 68.8 L25.3 68.9 L25.2 69.1 L25.1 69.3 L24.9 69.1 L24.8 68.8 L24.5 68.8 L24.3 68.9 L24.1 69.1 L23.9 69.4 L23.6 69.4 L23.5 69.5 L23.3 69.6 L23.2 69.7 L23.0 69.0 L23.1 68.7 L23.0 68.4 L22.8 68.3 L22.4 68.2 L22.2 68.2 L22.1 68.0 L22.0 67.8 L22.0 67.2 L22.3 67.3 L22.6 67.2 L23.1 67.2 L23.3 67.4 L23.8 67.4 L24.0 67.4 L24.2 67.2 L24.4 67.0 L24.5 66.9 L24.7 66.9 L24.7 66.8 L24.6 66.7 L24.8 66.7 L24.9 66.8 L25.0 67.1 L25.1 67.3 L25.3 67.4 L25.6 67.6 L25.5 67.7 L25.6 67.7 L25.8 67.9 L25.7 68.0 L25.6 68.2 Z M268.4 54.5 L269.4 54.3 L269.8 54.4 L269.9 54.6 L270.0 54.9 L269.8 56.0 L269.7 56.4 L269.4 56.7 L269.2 56.6 L268.9 56.7 L268.1 56.8 L267.9 56.9 L267.9 57.0 L267.5 57.2 L267.4 57.3 L267.3 57.4 L267.2 57.6 L267.1 57.7 L267.0 57.8 L266.9 57.5 L266.8 56.4 L266.8 56.2 L266.9 56.1 L266.9 55.5 L266.9 55.3 L267.0 55.3 L267.2 55.2 L267.4 55.1 L267.7 54.8 L268.0 54.6 L268.2 54.5 L268.4 54.5 Z" fill="#172033" fill-rule="evenodd"/></svg>
