<svg xmlns="http://www.w3.org/2000/svg" viewBox="0 0 320 200" role="img"><path d="M77.6 57.5 L78.4 57.0 L78.6 56.8 L78.8 56.4 L78.7 56.1 L78.5 55.8 L78.1 55.4 L78.0 55.4 L78.0 55.3 L77.9 55.1 L77.8 55.0 L77.7 54.1 L77.8 53.8 L78.0 53.6 L78.3 53.3 L78.5 52.7 L78.5 52.2 L78.1 51.0 L78.1 50.3 L78.5 48.2 L78.3 44.1 L78.4 43.9 L82.0 41.3 L83.0 40.3 L85.6 36.4 L86.1 32.9 L86.2 32.5 L86.2 28.6 L87.3 28.6 L87.7 28.5 L88.2 28.3 L90.8 25.9 L91.5 25.4 L92.4 25.0 L94.3 24.6 L97.6 23.8 L98.1 23.7 L98.5 23.9 L98.8 24.2 L99.2 24.4 L100.1 24.4 L101.8 24.2 L104.1 24.3 L104.7 24.2 L104.8 24.1 L105.3 23.7 L105.6 23.5 L105.8 22.9 L106.0 22.6 L106.5 22.4 L108.9 22.0 L109.4 22.1 L114.0 23.9 L118.6 25.7 L118.7 25.8 L118.8 25.8 L119.0 25.9 L119.1 25.8 L120.1 25.3 L120.4 25.3 L121.3 25.5 L121.5 25.5 L122.6 26.1 L124.9 28.2 L127.6 31.1 L128.9 33.5 L129.3 34.2 L130.2 35.3 L130.8 35.8 L131.4 36.2 L131.9 36.4 L132.4 36.4 L133.6 36.4 L133.9 36.4 L134.0 36.4 L134.3 36.2 L135.1 35.5 L136.1 34.4 L136.5 34.3 L138.2 34.6 L138.7 34.6 L139.2 34.5 L145.1 31.0 L145.7 30.7 L146.3 30.7 L150.4 31.3 L150.8 31.4 L151.0 31.6 L151.4 31.9 L151.8 32.2 L152.4 32.6 L152.6 32.7 L153.1 32.9 L153.1 32.9 L153.3 33.0 L153.5 33.1 L154.0 33.6 L155.6 35.1 L155.7 35.1 L155.9 35.2 L155.9 35.2 L156.0 35.2 L156.2 35.1 L156.4 35.0 L156.8 35.0 L157.0 35.0 L157.4 35.1 L157.8 35.2 L158.5 35.8 L158.8 36.1 L159.3 36.9 L159.5 37.2 L160.1 37.5 L164.4 38.8 L165.0 38.8 L169.7 39.4 L170.3 39.4 L171.2 39.1 L171.5 39.1 L174.9 39.5 L175.3 39.5 L175.4 39.4 L175.6 39.3 L175.8 39.2 L175.9 39.0 L178.7 35.8 L179.2 35.3 L179.5 35.1 L179.7 35.1 L179.8 35.1 L179.8 35.1 L180.0 34.9 L180.0 34.8 L180.1 34.4 L180.2 34.2 L180.5 33.9 L183.5 32.2 L184.2 32.0 L192.1 30.3 L192.5 30.2 L194.1 30.1 L197.1 30.4 L205.0 30.4 L209.9 31.6 L211.7 32.3 L213.9 33.7 L214.7 34.2 L215.0 34.4 L215.9 34.6 L216.5 34.6 L216.7 34.5 L217.1 34.3 L217.3 34.3 L218.1 34.5 L218.3 34.6 L218.4 34.7 L218.4 34.8 L218.4 34.9 L218.6 34.9 L218.6 34.9 L218.7 34.8 L218.8 34.7 L218.9 34.7 L219.1 34.8 L219.2 34.9 L219.3 35.0 L219.5 34.9 L219.8 35.0 L220.3 35.0 L220.8 35.0 L221.2 35.1 L221.5 35.2 L221.7 35.3 L222.0 35.1 L222.0 35.0 L222.2 34.1 L222.2 34.0 L222.6 34.0 L222.7 33.9 L222.9 33.8 L223.0 33.6 L223.1 33.2 L222.8 33.2 L222.9 32.9 L223.1 32.6 L223.2 32.4 L223.8 31.8 L223.8 31.7 L223.9 31.8 L224.0 31.8 L224.1 31.7 L224.2 31.6 L224.3 31.5 L224.3 31.3 L224.5 31.4 L224.6 31.5 L224.8 31.6 L225.0 31.7 L225.1 31.6 L225.3 31.2 L225.5 31.1 L225.8 31.1 L226.1 30.9 L226.5 30.4 L226.6 30.1 L226.6 30.1 L226.7 30.0 L226.8 30.1 L226.9 30.2 L226.9 30.3 L227.1 30.2 L227.1 30.2 L227.0 30.1 L227.0 29.9 L227.0 29.8 L227.2 29.7 L227.3 29.7 L227.3 29.7 L227.5 29.7 L227.5 29.7 L227.5 29.6 L227.5 29.5 L227.5 29.5 L228.0 29.0 L228.2 28.8 L228.1 28.7 L228.0 28.6 L227.9 28.5 L227.7 28.5 L227.7 28.4 L228.0 28.4 L228.2 28.5 L228.3 28.5 L228.4 28.2 L228.9 28.3 L229.3 28.3 L230.8 27.5 L231.2 27.4 L231.6 27.4 L231.6 27.5 L231.5 27.6 L231.7 27.7 L232.0 27.7 L232.3 27.6 L232.3 27.6 L232.3 27.8 L232.4 27.7 L232.5 27.4 L232.6 27.4 L232.8 27.4 L232.8 27.5 L232.8 27.7 L232.7 27.8 L233.2 27.6 L233.6 27.5 L234.0 27.4 L234.3 27.0 L234.1 27.0 L234.0 26.9 L234.2 26.7 L234.3 26.7 L234.4 26.7 L234.5 26.6 L234.5 26.5 L234.5 26.4 L234.4 26.3 L234.4 26.2 L234.5 26.1 L234.6 25.9 L235.3 25.3 L235.5 25.2 L235.5 24.9 L235.7 24.8 L236.1 24.7 L236.1 24.7 L240.2 24.9 L243.9 29.9 L247.6 35.0 L248.5 39.3 L249.4 43.7 L249.4 44.9 L249.5 45.0 L249.5 45.3 L249.5 45.6 L249.4 46.1 L249.5 46.3 L249.6 46.5 L249.8 46.6 L250.1 46.7 L253.4 46.8 L254.4 47.0 L254.9 47.3 L254.9 47.4 L254.9 47.7 L254.9 47.8 L255.0 47.9 L255.5 48.3 L255.7 48.4 L255.7 48.5 L255.6 48.5 L255.4 48.6 L255.8 48.8 L256.1 49.0 L256.3 49.2 L256.4 49.5 L256.5 49.6 L256.7 49.5 L257.0 49.4 L257.1 49.4 L257.3 49.5 L257.4 49.6 L257.4 49.8 L257.1 50.1 L257.1 50.2 L257.0 50.3 L256.9 50.5 L256.6 51.7 L256.6 51.8 L256.3 52.0 L256.4 52.3 L256.7 53.0 L256.7 53.2 L256.7 53.3 L256.7 53.9 L256.5 54.4 L256.1 56.0 L256.0 56.3 L255.4 57.1 L255.3 57.2 L255.4 57.4 L255.5 57.6 L255.6 57.6 L255.8 57.6 L256.0 57.7 L256.0 57.8 L256.1 57.9 L256.2 58.0 L256.4 58.3 L256.6 58.5 L256.7 58.9 L256.7 59.3 L256.7 59.6 L256.5 60.0 L256.4 60.4 L256.2 60.7 L255.9 60.9 L255.1 61.2 L254.7 61.4 L254.1 61.9 L253.8 62.1 L252.8 62.4 L252.5 62.5 L251.1 63.9 L250.9 63.9 L250.5 64.0 L250.3 64.1 L249.9 64.5 L249.6 64.7 L249.2 64.9 L248.9 65.0 L248.5 64.9 L247.4 64.5 L246.7 64.3 L246.2 64.3 L245.6 64.8 L245.0 65.4 L244.5 66.1 L244.1 66.7 L243.8 67.4 L243.6 67.6 L243.0 68.0 L242.7 68.2 L242.6 68.5 L242.5 68.8 L242.6 69.4 L242.5 69.7 L242.4 69.9 L239.5 74.0 L239.0 74.9 L238.4 76.9 L237.9 80.0 L237.5 81.0 L237.5 81.2 L237.6 81.6 L237.6 81.7 L237.6 82.0 L237.4 82.5 L237.2 82.8 L236.8 83.0 L236.7 83.1 L236.4 83.2 L236.1 83.4 L234.9 83.5 L234.3 83.7 L234.0 84.3 L234.0 84.6 L234.2 85.1 L234.3 85.4 L234.2 85.8 L233.8 86.4 L233.7 86.7 L233.7 87.1 L233.9 87.4 L234.4 87.9 L234.6 88.2 L234.5 88.5 L234.4 88.7 L234.2 89.1 L234.0 90.2 L233.9 91.3 L233.5 92.4 L232.4 92.9 L231.1 93.0 L230.0 93.5 L229.8 93.7 L229.3 94.3 L229.1 94.5 L229.0 94.6 L228.1 95.0 L227.9 95.1 L227.8 95.4 L227.9 95.4 L228.4 95.5 L228.5 95.8 L228.7 96.3 L228.6 97.0 L228.6 97.3 L228.5 97.6 L227.7 98.9 L227.4 99.7 L227.4 100.3 L227.5 100.9 L227.1 104.0 L227.0 104.7 L226.6 105.1 L226.4 105.2 L226.2 105.2 L226.0 105.2 L225.8 105.2 L225.6 105.3 L225.5 105.5 L225.3 105.9 L225.1 106.5 L224.8 106.8 L223.1 107.6 L222.9 107.7 L222.6 107.7 L222.1 107.4 L221.9 107.4 L221.6 107.4 L221.4 107.5 L221.2 107.6 L220.9 107.7 L220.7 107.8 L220.5 107.7 L220.0 107.6 L220.2 107.8 L220.6 108.7 L220.6 109.0 L220.6 109.4 L220.5 109.6 L220.0 109.9 L219.9 110.1 L219.8 110.3 L219.6 110.4 L219.4 110.6 L219.1 110.6 L218.5 110.5 L218.1 110.7 L217.7 111.2 L217.6 111.9 L217.7 112.6 L217.9 114.0 L217.9 114.3 L217.9 114.4 L217.8 114.6 L217.1 115.6 L217.0 116.0 L217.0 116.6 L217.1 117.2 L217.2 117.6 L217.3 117.9 L217.2 118.1 L216.6 118.8 L215.0 121.0 L214.4 122.0 L214.3 122.4 L214.2 122.7 L214.2 123.1 L214.5 124.0 L214.4 124.4 L214.2 124.5 L213.9 124.7 L213.5 125.4 L212.5 126.3 L211.5 127.3 L210.5 128.8 L210.2 129.1 L209.9 129.3 L209.8 129.4 L209.9 129.5 L210.3 129.6 L210.5 129.8 L211.3 131.0 L211.9 131.6 L212.1 132.1 L212.0 132.4 L211.8 132.5 L211.7 132.4 L211.5 132.4 L211.4 132.4 L211.1 132.4 L211.0 132.5 L210.3 133.2 L210.0 133.3 L210.0 133.5 L209.9 133.6 L209.9 133.8 L209.7 133.8 L209.5 133.8 L209.3 133.8 L209.1 133.8 L209.1 133.8 L209.0 133.9 L208.9 134.1 L208.9 134.2 L207.9 134.8 L206.9 135.7 L206.6 136.1 L206.6 136.6 L206.7 136.8 L207.0 137.2 L207.1 137.5 L207.1 137.9 L207.0 138.4 L206.5 139.5 L206.1 140.0 L205.7 140.3 L205.0 140.3 L204.6 140.7 L204.3 141.2 L204.2 141.9 L204.1 142.3 L203.8 142.5 L203.4 142.8 L203.0 142.8 L202.8 142.8 L202.5 142.8 L202.3 142.7 L202.2 142.8 L202.1 142.9 L202.0 143.0 L201.9 142.9 L201.7 142.8 L201.6 142.8 L201.1 142.9 L200.1 143.0 L199.7 142.9 L199.4 142.7 L199.1 141.9 L198.8 140.6 L198.8 140.0 L198.8 139.3 L198.7 138.6 L198.4 137.9 L197.9 137.5 L196.4 137.2 L195.8 136.7 L195.5 136.0 L195.4 135.2 L195.1 134.6 L194.6 134.2 L193.2 133.7 L192.1 133.1 L191.7 133.0 L191.4 132.8 L191.3 132.0 L191.0 131.6 L190.7 132.0 L190.5 132.6 L190.4 133.2 L190.3 134.5 L190.2 134.5 L190.2 134.6 L190.0 134.6 L189.8 134.9 L189.7 135.1 L189.6 135.4 L189.6 135.7 L185.5 135.8 L185.0 135.7 L184.7 135.4 L184.5 135.1 L184.3 133.9 L184.1 133.6 L183.9 133.6 L183.5 133.8 L179.6 137.2 L179.2 137.3 L178.9 137.2 L178.5 137.1 L178.2 137.0 L177.8 137.4 L176.6 141.3 L176.6 141.3 L176.4 141.5 L175.8 141.5 L175.6 141.5 L175.1 141.6 L174.9 141.8 L174.5 142.5 L174.3 142.8 L173.9 142.9 L173.3 143.2 L173.2 143.2 L172.7 143.5 L172.2 144.4 L171.8 144.7 L171.5 144.7 L171.3 144.7 L171.1 144.7 L170.9 144.8 L170.7 145.1 L170.2 146.1 L169.8 146.7 L167.6 148.4 L166.1 150.0 L166.1 150.0 L165.7 150.5 L165.5 150.7 L165.2 150.9 L165.2 151.0 L165.1 151.4 L165.1 151.6 L164.8 151.7 L164.4 151.5 L164.1 151.5 L163.8 151.8 L163.6 152.0 L163.0 152.4 L162.8 152.7 L162.9 153.0 L163.0 153.3 L163.2 153.6 L163.1 154.0 L162.8 154.3 L162.5 154.5 L162.4 154.8 L162.6 155.2 L163.0 155.5 L163.3 155.8 L163.6 156.1 L163.8 156.5 L163.7 156.9 L163.5 157.2 L163.2 157.5 L162.9 157.8 L162.8 158.2 L162.8 158.5 L162.9 158.8 L162.9 159.2 L162.8 159.5 L162.5 160.2 L162.4 160.6 L162.4 160.8 L162.5 161.2 L162.5 161.4 L162.1 163.6 L162.0 163.8 L161.8 163.9 L161.6 163.9 L161.4 164.0 L161.3 164.2 L160.9 164.6 L160.8 164.9 L160.6 165.6 L160.5 165.9 L160.2 166.2 L160.2 166.2 L159.6 167.2 L159.5 167.5 L159.0 167.9 L158.9 168.1 L158.9 168.5 L159.0 168.7 L159.1 168.9 L158.8 169.2 L158.8 169.2 L158.8 169.2 L158.7 169.1 L158.6 169.0 L158.5 169.0 L158.3 169.1 L158.2 169.2 L158.0 169.4 L158.0 169.5 L157.9 169.6 L157.8 169.9 L157.7 170.1 L157.8 170.3 L157.9 170.5 L157.9 170.7 L157.7 170.9 L157.5 171.0 L157.3 171.0 L157.1 170.9 L157.0 170.9 L156.8 170.9 L156.7 170.9 L156.8 170.7 L156.9 170.6 L156.9 170.4 L157.0 170.3 L156.9 170.2 L156.8 170.2 L156.4 170.4 L156.2 170.4 L155.8 170.3 L155.7 169.8 L155.9 169.2 L156.0 168.7 L155.9 168.7 L155.8 169.2 L155.4 169.5 L154.9 169.5 L154.5 169.1 L154.6 169.0 L154.6 168.9 L154.5 168.8 L154.2 168.7 L154.3 168.4 L154.1 168.3 L153.7 167.9 L153.3 167.7 L153.3 167.7 L153.2 167.4 L153.0 167.1 L152.9 166.9 L152.7 166.9 L152.5 166.8 L152.3 166.6 L152.1 166.4 L152.1 166.3 L152.0 166.3 L152.0 166.4 L152.9 167.3 L153.1 167.5 L153.5 168.3 L153.6 168.7 L153.3 168.9 L153.4 169.1 L153.6 169.4 L153.7 169.6 L153.9 169.7 L154.1 169.8 L154.3 170.5 L154.5 170.8 L154.5 170.9 L154.3 171.2 L154.3 171.4 L154.4 171.6 L154.5 171.7 L154.7 171.8 L154.9 171.9 L154.9 172.3 L154.7 172.5 L154.3 172.7 L154.2 172.9 L154.0 173.4 L153.8 173.5 L153.6 173.5 L152.9 173.5 L152.0 173.4 L150.6 173.4 L149.9 173.3 L149.6 173.3 L149.1 173.6 L148.8 173.7 L148.1 173.7 L145.3 174.0 L145.1 173.9 L144.9 173.9 L144.7 173.9 L144.6 174.1 L144.8 174.1 L144.9 174.1 L145.1 174.2 L145.2 174.2 L144.8 174.3 L144.3 174.3 L143.8 174.3 L143.6 174.0 L143.4 174.0 L141.9 173.9 L142.0 173.8 L142.0 173.8 L142.1 173.7 L142.2 173.7 L142.0 173.6 L141.8 173.6 L141.6 173.6 L141.6 173.4 L141.7 173.3 L141.8 173.3 L141.9 173.2 L141.9 173.0 L141.9 172.9 L141.6 172.5 L141.6 172.5 L141.7 172.3 L141.5 172.0 L141.5 171.6 L141.8 170.9 L141.7 170.9 L141.5 171.0 L141.4 171.1 L141.3 171.2 L141.3 171.4 L141.3 171.6 L141.4 171.8 L141.4 172.0 L141.2 172.2 L141.2 172.3 L141.4 172.5 L141.5 172.7 L141.4 172.7 L141.2 173.0 L141.0 173.1 L140.8 173.2 L140.7 173.2 L140.5 173.1 L140.4 173.1 L140.3 173.4 L139.9 173.4 L139.3 173.1 L138.9 173.1 L138.5 173.0 L138.1 172.8 L137.9 172.5 L137.8 172.6 L137.7 172.6 L137.4 172.7 L137.4 172.7 L137.4 172.8 L137.3 172.9 L137.2 173.0 L137.2 173.1 L137.3 173.2 L137.4 173.2 L137.3 173.3 L137.5 173.4 L137.8 173.6 L138.2 173.7 L138.3 173.8 L138.3 174.0 L138.2 174.1 L137.4 174.2 L137.4 174.1 L137.0 173.6 L136.0 172.5 L135.8 172.2 L135.8 171.7 L135.8 171.6 L135.7 171.6 L135.4 171.7 L135.1 171.7 L135.0 171.7 L134.9 171.5 L134.6 171.3 L134.5 171.1 L134.2 170.4 L134.0 170.1 L134.0 170.3 L133.9 170.4 L133.9 170.5 L133.8 170.6 L133.9 170.7 L133.9 170.7 L134.1 170.8 L134.2 170.9 L134.3 171.4 L134.5 171.7 L134.8 171.8 L135.3 172.0 L135.6 172.6 L135.7 173.1 L135.3 173.3 L135.5 173.5 L135.7 173.7 L135.9 174.0 L135.8 174.3 L135.3 174.8 L135.0 174.9 L134.7 174.8 L134.7 175.0 L134.7 175.1 L134.4 175.0 L134.2 174.8 L134.1 174.5 L134.2 174.2 L133.9 174.4 L133.9 174.7 L134.0 175.0 L134.2 175.2 L133.7 175.3 L133.6 175.3 L133.4 175.0 L133.3 174.5 L133.3 173.7 L133.0 173.3 L132.9 173.0 L133.1 172.9 L133.2 172.7 L133.2 172.4 L133.3 172.1 L133.3 171.9 L133.3 171.9 L133.5 172.0 L133.6 172.0 L133.5 171.8 L133.2 171.4 L133.1 171.3 L133.0 170.9 L132.9 170.8 L132.6 171.2 L132.5 171.2 L132.5 170.9 L132.3 170.6 L132.2 170.8 L132.2 171.2 L132.2 171.3 L132.3 171.6 L132.7 172.5 L132.5 172.5 L132.4 172.5 L132.3 172.5 L132.3 172.3 L132.2 172.4 L132.0 172.4 L131.9 172.1 L131.7 171.8 L131.3 171.3 L131.3 171.6 L131.4 171.8 L131.6 172.2 L131.7 172.4 L131.8 172.5 L131.8 172.6 L131.8 172.7 L131.7 172.8 L131.6 172.9 L131.7 173.1 L131.9 172.9 L132.2 172.8 L132.5 172.8 L132.6 173.1 L132.4 174.2 L132.5 174.6 L133.1 175.7 L133.3 176.0 L133.2 176.1 L133.1 176.3 L133.0 176.3 L132.8 176.3 L132.6 176.2 L132.3 176.1 L132.3 176.2 L132.3 176.2 L132.4 176.3 L132.0 176.2 L131.7 176.1 L131.3 176.0 L130.9 176.1 L130.7 175.9 L130.6 175.7 L130.6 175.4 L130.7 175.1 L130.4 175.0 L130.2 174.5 L130.0 174.0 L129.9 173.6 L130.0 173.3 L130.0 173.2 L130.2 173.0 L130.3 172.9 L130.3 172.7 L130.4 172.5 L130.4 172.2 L130.1 172.1 L129.7 171.9 L129.4 171.3 L129.1 170.3 L129.1 169.9 L129.2 169.7 L129.3 169.5 L129.4 169.3 L129.4 169.2 L129.2 169.1 L129.0 169.3 L128.9 169.1 L128.8 169.0 L128.8 168.9 L128.7 168.9 L128.5 169.0 L128.4 168.9 L128.3 168.9 L128.3 169.1 L128.4 169.4 L128.4 169.7 L128.6 169.8 L128.8 169.9 L128.9 170.2 L129.0 170.8 L129.1 171.4 L129.2 171.7 L129.3 171.8 L129.5 171.9 L129.7 172.1 L130.0 172.7 L129.7 173.0 L129.6 173.1 L129.6 173.3 L129.9 174.9 L130.1 175.4 L130.3 175.7 L130.2 176.0 L130.6 176.3 L130.8 176.6 L130.4 176.8 L129.9 176.9 L129.2 176.9 L128.6 176.9 L128.3 176.7 L128.2 176.4 L128.3 175.5 L128.4 175.4 L128.4 175.3 L128.3 175.2 L128.2 175.1 L128.1 175.0 L128.1 174.4 L128.2 174.2 L128.6 173.2 L128.6 173.0 L128.6 172.5 L128.3 172.9 L128.0 173.6 L127.9 174.3 L128.0 174.9 L128.0 175.0 L128.0 175.3 L127.9 175.6 L127.8 175.2 L127.7 175.0 L127.7 174.0 L127.6 173.8 L127.5 173.9 L127.5 174.0 L127.4 174.0 L127.3 174.1 L127.3 174.3 L127.4 175.1 L127.4 175.4 L127.6 175.7 L127.8 176.0 L127.9 176.6 L127.9 176.8 L127.8 177.0 L127.6 177.0 L127.1 177.0 L126.7 177.0 L126.6 177.0 L126.4 176.4 L126.4 175.9 L126.4 175.2 L126.3 174.6 L126.1 174.2 L125.6 174.2 L126.0 174.6 L126.2 175.2 L126.1 175.8 L125.9 176.4 L125.9 177.0 L125.1 177.2 L124.1 177.1 L123.7 176.8 L123.5 176.8 L123.3 176.9 L123.4 177.2 L123.1 177.3 L122.7 177.3 L122.4 177.4 L122.1 177.5 L121.4 177.5 L121.0 177.7 L120.6 177.2 L121.0 176.5 L122.0 175.3 L121.8 175.3 L121.7 175.3 L121.6 175.3 L121.5 175.3 L120.9 176.0 L120.8 175.1 L120.6 174.3 L120.5 174.3 L120.5 174.7 L120.5 175.1 L120.6 175.5 L120.7 175.8 L120.5 175.6 L120.4 175.4 L120.2 175.3 L119.9 175.2 L120.1 175.6 L120.3 175.8 L120.4 176.1 L120.4 176.5 L120.3 176.9 L120.1 177.1 L120.0 177.2 L119.9 177.2 L119.8 177.3 L119.8 177.5 L119.9 177.5 L120.0 177.5 L120.3 177.5 L120.2 177.7 L119.7 177.9 L119.1 177.9 L118.7 177.8 L118.6 177.9 L118.5 177.9 L118.5 178.0 L118.2 177.9 L118.1 177.7 L118.0 177.5 L118.0 177.2 L118.1 176.9 L118.3 176.6 L118.4 176.3 L118.3 176.4 L118.1 176.4 L118.0 176.4 L118.0 176.2 L118.1 175.7 L117.9 175.7 L117.7 175.7 L117.5 175.6 L117.3 175.7 L117.3 175.8 L117.3 176.1 L117.4 176.3 L117.5 176.4 L117.4 176.7 L117.5 176.8 L117.6 177.0 L117.7 177.3 L117.6 177.6 L117.5 177.6 L117.3 177.4 L117.1 177.3 L116.7 177.3 L116.6 177.2 L116.6 176.7 L116.7 176.6 L116.7 176.6 L116.5 176.3 L116.5 176.2 L116.4 175.9 L116.5 175.7 L116.4 175.7 L116.2 176.2 L116.2 176.1 L115.9 176.0 L116.1 176.5 L116.2 176.8 L116.0 177.0 L115.8 177.0 L115.5 176.8 L115.3 176.6 L115.2 176.5 L114.9 176.4 L114.5 176.1 L114.3 175.7 L114.5 175.3 L114.3 175.3 L114.2 175.4 L114.1 175.5 L114.1 175.7 L114.0 175.7 L113.8 175.4 L113.1 175.0 L112.9 174.8 L113.0 174.8 L113.2 174.9 L113.4 175.0 L113.2 174.8 L113.0 174.7 L112.8 174.6 L112.6 174.6 L112.2 174.2 L112.1 174.0 L111.7 173.6 L111.6 173.5 L110.1 172.1 L109.6 171.5 L109.5 170.8 L109.5 170.8 L109.6 170.8 L109.7 170.9 L109.7 170.6 L109.0 170.1 L108.8 169.8 L108.7 169.6 L108.3 168.9 L108.1 168.7 L108.7 169.0 L108.5 168.6 L108.0 168.0 L107.6 166.8 L107.4 166.0 L107.3 165.8 L107.1 165.3 L107.0 165.1 L107.0 164.8 L107.0 164.7 L106.8 164.6 L106.7 164.4 L106.7 164.1 L106.8 163.9 L106.9 163.9 L107.2 163.9 L107.4 164.0 L107.6 164.1 L107.9 164.5 L108.1 164.6 L107.9 164.0 L107.8 163.8 L108.1 163.8 L108.5 163.9 L108.3 163.7 L107.9 163.2 L107.7 163.1 L107.7 163.2 L107.7 163.5 L107.6 163.5 L107.5 163.5 L107.4 163.6 L107.1 163.6 L106.9 163.5 L106.5 163.6 L106.3 163.5 L106.3 163.4 L106.3 162.8 L106.3 162.1 L105.9 160.6 L106.0 160.4 L106.4 160.3 L107.5 160.3 L107.8 160.2 L107.8 160.3 L107.9 160.5 L108.0 160.6 L108.1 160.5 L108.3 160.3 L108.3 160.2 L108.4 160.1 L109.0 159.9 L109.3 159.9 L109.5 159.9 L109.7 160.0 L109.8 160.0 L109.7 159.8 L109.3 159.4 L109.1 159.2 L109.1 159.0 L109.0 158.7 L109.1 158.4 L109.2 158.3 L109.4 158.1 L109.6 158.1 L110.2 158.1 L110.4 158.0 L110.6 157.8 L110.8 157.4 L110.5 157.5 L110.3 157.7 L110.1 157.8 L109.8 157.7 L109.7 157.8 L109.6 157.9 L109.6 158.0 L109.2 157.9 L108.8 158.1 L108.6 158.4 L108.7 158.9 L108.5 159.3 L108.3 159.5 L108.0 159.6 L107.7 159.4 L107.6 159.3 L107.5 159.2 L107.5 159.1 L107.3 159.1 L107.2 159.2 L107.2 159.4 L107.3 159.6 L107.4 159.8 L106.5 159.7 L104.7 159.1 L104.6 159.0 L104.5 158.8 L104.5 158.7 L104.0 158.3 L103.6 158.0 L103.5 157.7 L103.5 157.3 L103.5 157.2 L103.6 157.1 L103.9 156.8 L104.0 156.7 L104.1 156.7 L105.7 156.8 L106.3 156.9 L106.7 157.1 L106.8 157.1 L106.9 156.9 L107.2 156.3 L107.3 156.1 L107.5 156.0 L107.8 156.0 L108.1 156.1 L108.2 156.2 L108.3 156.3 L108.4 156.7 L108.4 156.7 L108.6 156.7 L108.7 156.7 L108.7 156.6 L108.7 156.4 L108.6 156.2 L108.3 155.9 L108.0 155.7 L107.7 155.5 L107.4 155.5 L107.2 155.7 L107.0 156.2 L106.8 156.3 L106.6 156.5 L106.3 156.5 L106.0 156.5 L105.7 156.4 L105.6 156.1 L105.6 155.8 L105.9 155.0 L105.9 154.7 L105.9 154.4 L105.8 154.4 L105.3 155.6 L105.2 155.9 L105.0 156.2 L104.7 156.3 L104.3 156.3 L104.1 156.3 L103.7 156.6 L103.3 156.7 L103.2 156.7 L103.0 156.5 L102.8 156.3 L102.5 156.0 L102.3 155.6 L102.1 155.2 L102.0 155.0 L101.8 154.7 L101.8 154.3 L101.8 154.0 L101.9 153.6 L102.1 153.3 L102.3 153.2 L102.5 153.2 L102.8 153.5 L102.9 153.5 L103.0 153.4 L103.0 153.3 L102.9 153.1 L102.9 153.0 L103.4 152.5 L104.7 152.0 L105.1 151.4 L104.8 151.5 L104.2 152.0 L103.6 152.2 L102.4 152.8 L102.1 153.0 L101.3 153.7 L101.1 153.7 L100.5 152.4 L98.6 149.8 L98.2 149.5 L97.6 149.3 L97.3 148.9 L96.9 148.3 L96.3 147.7 L95.8 147.3 L94.6 146.5 L94.1 146.2 L93.1 145.3 L92.4 144.9 L92.2 144.7 L90.8 144.1 L89.7 143.9 L86.2 143.3 L82.1 142.9 L75.1 143.3 L74.8 143.2 L74.6 143.1 L74.4 142.9 L74.2 142.7 L74.3 142.7 L74.4 142.6 L74.5 142.6 L74.6 142.7 L74.9 142.5 L75.0 142.6 L75.0 142.8 L75.1 143.1 L75.7 142.5 L75.7 142.6 L75.8 142.7 L75.9 142.7 L76.1 142.6 L76.4 142.6 L76.7 142.6 L77.0 142.4 L77.2 142.2 L77.2 142.0 L77.2 141.8 L77.2 141.7 L77.4 141.6 L78.0 141.6 L78.4 141.6 L79.1 141.3 L79.3 141.4 L79.7 141.2 L80.0 141.1 L80.2 140.8 L80.3 140.4 L80.5 140.4 L81.9 140.2 L81.7 140.1 L81.6 140.0 L81.5 140.0 L81.4 140.1 L80.5 139.8 L79.6 140.2 L78.7 140.7 L77.9 140.9 L77.6 140.9 L77.5 141.0 L76.9 141.3 L76.7 141.3 L76.5 141.4 L76.3 141.4 L76.3 141.4 L76.1 141.3 L75.9 141.3 L75.8 141.2 L75.7 141.2 L75.6 140.9 L75.6 140.7 L75.7 140.4 L75.7 140.2 L75.5 140.3 L75.3 140.5 L74.9 140.9 L74.8 140.9 L74.6 140.9 L74.5 141.0 L74.4 141.1 L74.4 141.2 L74.5 141.5 L74.5 141.6 L74.5 141.8 L74.2 142.1 L74.2 142.3 L74.1 142.5 L74.0 142.5 L73.9 142.6 L74.0 142.8 L74.1 142.9 L74.1 143.0 L74.2 143.0 L74.3 143.1 L74.2 143.5 L73.2 143.6 L71.4 143.5 L69.3 143.8 L66.8 143.6 L63.1 144.0 L63.1 143.0 L63.3 142.2 L63.3 141.9 L63.4 141.8 L63.7 140.9 L63.7 140.5 L63.6 139.9 L63.6 139.5 L63.8 139.2 L64.0 138.9 L64.2 138.8 L64.3 138.6 L64.3 137.9 L64.3 137.7 L64.2 137.6 L64.0 137.6 L63.8 137.5 L63.7 137.4 L63.5 137.3 L63.4 137.0 L63.5 136.6 L63.7 135.9 L63.6 135.2 L63.4 134.6 L63.3 134.0 L63.7 133.5 L63.9 133.4 L64.1 133.3 L64.3 133.2 L64.4 133.0 L64.3 132.9 L63.8 132.5 L63.7 132.4 L63.6 132.2 L63.7 132.0 L63.7 131.9 L63.9 131.6 L64.0 131.5 L64.1 131.3 L64.1 131.1 L63.7 127.1 L63.8 126.9 L63.9 126.8 L64.1 126.8 L64.4 126.9 L64.5 126.9 L64.5 126.8 L64.5 126.6 L64.6 126.0 L64.2 125.4 L63.7 124.8 L63.4 124.2 L63.3 123.5 L63.3 123.0 L63.5 120.8 L63.5 120.6 L63.3 120.4 L62.9 119.9 L62.7 119.5 L62.6 119.3 L62.6 119.2 L62.6 119.1 L62.6 119.0 L62.8 118.7 L62.9 118.6 L62.9 117.5 L63.1 116.5 L63.2 115.5 L63.2 115.2 L63.3 115.0 L63.5 114.7 L63.6 114.4 L63.6 114.0 L63.5 113.7 L63.2 113.0 L63.1 112.7 L63.0 112.3 L63.0 112.0 L63.2 111.3 L63.2 111.1 L63.1 110.8 L63.1 110.7 L63.2 110.5 L63.5 110.1 L63.7 109.9 L63.8 109.4 L63.8 108.9 L63.4 105.0 L63.4 104.9 L63.4 104.8 L63.5 104.6 L63.8 104.5 L63.9 104.4 L63.9 104.3 L63.8 104.0 L63.8 103.9 L63.9 103.6 L64.1 103.2 L64.1 102.9 L64.0 102.8 L63.9 102.8 L63.9 102.8 L63.8 102.6 L63.9 102.6 L64.1 102.3 L64.1 102.2 L64.2 101.8 L64.2 100.7 L64.2 100.3 L65.4 100.4 L65.7 100.4 L65.8 100.3 L65.9 100.1 L66.1 100.0 L66.3 100.0 L66.8 100.0 L67.0 100.0 L67.1 100.1 L67.3 100.2 L67.5 100.3 L67.7 100.3 L68.8 100.0 L69.2 99.7 L69.4 99.2 L70.0 97.5 L70.3 96.9 L70.4 96.6 L70.4 95.5 L70.3 95.2 L70.1 94.7 L70.0 94.3 L70.1 93.8 L70.4 93.3 L70.5 93.2 L70.8 93.1 L70.9 93.0 L71.9 91.7 L71.9 91.7 L71.8 91.5 L71.8 91.3 L71.9 90.9 L72.2 90.9 L72.5 90.9 L72.8 90.9 L73.3 90.7 L73.4 90.2 L73.3 89.7 L73.1 89.2 L73.0 88.9 L73.1 88.5 L73.2 88.2 L73.5 88.0 L74.7 87.6 L75.3 87.4 L76.3 87.5 L76.5 87.2 L77.0 86.5 L77.5 85.8 L77.7 85.5 L77.8 84.1 L77.9 83.9 L78.1 83.6 L78.4 83.5 L78.6 83.4 L78.7 83.0 L78.7 82.9 L78.8 82.6 L78.7 82.4 L78.6 82.2 L77.5 81.0 L77.2 80.7 L77.2 80.4 L77.6 79.6 L78.0 79.0 L78.0 78.8 L78.1 78.5 L78.1 78.4 L78.2 78.2 L78.5 77.9 L78.8 77.8 L79.2 77.9 L80.2 78.4 L80.5 78.4 L80.7 78.1 L80.8 77.8 L80.8 76.9 L81.0 76.5 L81.4 75.7 L81.5 75.3 L81.5 74.8 L81.5 74.4 L81.4 73.9 L81.3 73.6 L81.1 73.5 L80.9 73.4 L80.6 73.4 L80.5 73.2 L80.3 72.6 L80.3 72.5 L80.1 72.3 L80.0 72.2 L79.9 72.1 L79.8 71.9 L79.8 71.6 L80.2 70.8 L80.2 70.3 L79.8 68.8 L79.8 68.8 L79.7 68.5 L79.6 68.2 L79.5 67.9 L79.5 67.6 L79.7 66.9 L79.5 66.8 L79.4 66.8 L79.4 66.8 L79.2 66.8 L79.1 66.8 L78.7 66.4 L75.8 62.4 L75.5 62.0 L75.5 61.6 L75.8 60.7 L75.9 60.5 L76.1 59.7 L77.3 57.8 L77.6 57.5 Z" fill="#172033" fill-rule="evenodd"/></svg>
