<svg xmlns="http://www.w3.org/2000/svg" viewBox="0 0 320 200" role="img"><path d="M268.3 37.2 L268.5 38.8 L268.5 39.7 L268.3 40.6 L268.0 41.5 L267.2 42.8 L267.0 43.2 L267.1 43.9 L267.3 44.3 L267.6 44.6 L267.8 45.0 L268.3 49.1 L268.2 51.1 L267.7 52.9 L266.5 54.8 L261.8 59.2 L261.4 59.9 L260.8 60.9 L260.3 62.8 L259.8 68.9 L259.4 70.9 L258.4 72.1 L256.4 71.7 L255.5 71.5 L252.7 71.7 L249.7 71.2 L244.4 71.2 L242.5 71.6 L241.5 72.0 L240.5 72.5 L241.0 73.1 L240.9 73.6 L240.6 74.0 L240.6 74.5 L241.0 74.9 L242.9 75.8 L239.7 76.8 L238.8 76.8 L239.5 77.7 L239.7 78.7 L239.8 79.7 L240.1 80.6 L241.2 81.4 L242.7 81.8 L247.2 82.2 L250.1 82.9 L251.7 83.0 L253.2 83.0 L254.6 82.7 L255.1 82.4 L255.5 82.0 L255.8 81.9 L259.3 85.3 L260.0 86.8 L259.6 88.8 L258.4 90.5 L258.0 91.3 L258.0 92.3 L258.5 93.5 L258.8 93.9 L259.0 94.1 L258.8 94.4 L256.3 95.3 L255.7 95.7 L254.4 97.1 L253.3 97.7 L250.8 98.3 L249.7 99.0 L248.5 100.6 L247.8 101.0 L244.4 101.2 L244.1 101.3 L243.2 101.6 L242.3 102.2 L242.0 102.5 L241.5 103.2 L241.1 103.6 L240.4 103.8 L239.8 103.8 L239.3 104.0 L238.9 104.6 L239.0 105.4 L239.9 105.8 L241.1 106.0 L244.8 107.3 L246.3 108.3 L246.6 108.5 L246.7 108.9 L246.7 109.6 L246.4 109.8 L245.9 109.8 L245.5 110.1 L244.2 111.6 L242.9 112.5 L241.4 113.1 L236.4 113.2 L230.7 114.3 L228.0 115.7 L227.0 115.9 L225.9 115.9 L222.3 115.3 L222.7 116.5 L222.5 117.1 L220.4 117.5 L220.2 116.6 L219.3 116.3 L217.1 116.1 L216.9 115.9 L216.3 115.2 L215.9 114.9 L215.4 114.9 L213.6 115.1 L211.7 114.6 L209.9 113.7 L208.1 113.2 L206.2 113.8 L206.9 114.2 L209.0 115.5 L209.7 116.3 L208.8 116.1 L207.5 115.9 L205.7 115.6 L203.4 116.0 L202.6 116.3 L201.4 116.8 L200.3 117.1 L198.0 117.4 L197.1 117.8 L196.9 118.3 L198.2 118.9 L198.9 120.0 L198.8 121.1 L197.9 121.7 L197.6 121.9 L197.5 122.5 L198.1 122.6 L199.7 122.6 L200.4 122.8 L201.6 123.4 L202.2 123.8 L201.4 125.4 L202.7 126.4 L206.5 127.4 L205.9 128.7 L205.6 129.5 L205.8 130.2 L209.6 133.4 L211.8 135.0 L212.2 136.9 L212.5 137.9 L212.3 139.0 L211.9 140.2 L211.8 141.3 L212.7 141.9 L212.3 142.4 L212.2 143.6 L211.9 144.3 L211.3 144.8 L209.9 145.5 L209.3 145.8 L206.4 149.2 L205.2 150.1 L204.6 150.7 L204.1 151.8 L204.0 153.1 L204.4 154.1 L205.7 154.6 L208.5 153.4 L209.8 153.7 L209.3 153.8 L208.1 154.5 L209.2 155.2 L208.4 155.9 L205.2 157.0 L200.0 159.6 L199.2 160.1 L198.1 161.5 L197.4 162.0 L196.4 162.1 L195.7 161.7 L195.0 161.1 L194.2 160.8 L192.6 161.4 L192.9 162.7 L193.8 164.3 L193.9 165.7 L194.6 165.6 L196.1 165.2 L196.9 165.0 L197.6 165.1 L199.1 165.4 L201.1 165.2 L201.3 165.5 L200.9 166.0 L200.7 166.5 L200.8 167.3 L200.9 167.7 L201.4 168.0 L202.7 168.6 L204.5 169.0 L204.4 169.2 L204.1 169.5 L204.0 169.9 L204.5 171.0 L204.5 171.5 L204.1 172.1 L203.5 172.6 L202.2 172.5 L201.5 172.8 L201.0 173.3 L201.0 173.8 L201.1 174.3 L200.8 175.0 L200.0 175.5 L199.2 175.3 L199.4 176.1 L199.8 176.5 L200.4 176.8 L200.8 177.1 L200.7 177.9 L199.5 178.0 L195.4 177.9 L194.8 177.8 L194.2 177.7 L189.3 177.7 L188.7 177.5 L187.5 176.7 L187.0 176.5 L186.5 176.8 L185.9 177.4 L185.6 177.6 L185.0 177.7 L184.4 177.6 L183.4 177.3 L183.9 176.0 L184.0 175.3 L183.2 175.1 L182.0 174.8 L181.6 174.6 L180.7 174.2 L179.8 173.3 L179.6 172.1 L183.7 169.2 L184.4 169.0 L185.0 168.9 L185.3 168.7 L186.0 168.1 L187.0 166.7 L187.6 166.1 L187.1 165.8 L186.5 165.8 L185.3 166.1 L187.5 163.8 L188.4 162.4 L187.6 161.8 L187.8 161.0 L188.1 160.5 L188.5 160.3 L189.2 160.7 L189.6 160.3 L189.9 159.9 L190.3 159.1 L190.2 158.9 L190.1 158.7 L189.9 158.3 L190.6 158.4 L191.2 158.3 L191.7 158.2 L192.3 157.9 L191.0 157.1 L191.2 156.4 L191.9 155.9 L191.8 155.7 L191.3 154.9 L190.3 154.9 L188.6 155.2 L187.9 154.8 L186.7 153.8 L185.8 153.4 L185.0 153.4 L182.7 153.7 L181.7 153.7 L181.1 153.4 L180.6 153.0 L179.8 152.7 L176.6 152.1 L175.6 151.5 L175.3 151.4 L175.1 150.1 L174.7 149.0 L173.7 148.1 L172.4 147.6 L171.1 147.5 L170.0 147.9 L167.7 148.9 L166.5 149.2 L159.8 149.0 L158.1 149.3 L157.7 149.3 L156.7 149.2 L156.7 147.2 L155.7 146.4 L154.6 146.3 L152.5 146.4 L151.5 146.1 L151.2 145.7 L150.6 144.5 L150.3 144.0 L148.4 142.6 L148.0 142.1 L148.2 140.9 L148.9 140.0 L149.1 139.0 L148.0 137.7 L146.3 137.0 L146.1 136.9 L145.2 137.0 L144.9 137.4 L144.7 137.9 L144.3 138.6 L143.4 139.5 L142.1 140.6 L140.7 141.5 L139.5 141.7 L137.3 141.0 L136.3 140.9 L132.3 140.8 L131.1 140.5 L131.5 139.8 L132.1 139.7 L134.6 140.4 L134.1 139.5 L134.4 138.6 L134.7 137.8 L134.6 136.9 L134.0 136.5 L133.1 136.1 L132.1 135.8 L131.3 135.8 L129.4 136.4 L125.0 139.7 L124.5 140.0 L123.7 140.2 L122.8 140.2 L121.0 139.9 L119.4 140.1 L118.6 140.1 L117.6 139.6 L117.7 139.0 L118.2 138.3 L118.2 137.4 L117.8 136.9 L117.1 136.8 L115.4 137.0 L112.4 137.7 L109.4 138.8 L110.1 139.3 L110.0 139.7 L109.6 140.1 L109.6 140.7 L110.0 141.2 L111.3 142.1 L111.6 142.7 L111.4 143.6 L110.3 144.0 L107.7 143.9 L106.6 143.7 L104.5 143.0 L104.0 143.0 L102.9 142.9 L102.7 142.8 L102.2 142.1 L102.1 141.4 L102.1 140.8 L102.0 140.4 L101.4 140.1 L100.7 140.7 L99.5 140.9 L94.4 140.8 L93.3 140.6 L92.1 140.1 L89.0 138.5 L88.1 138.2 L85.7 138.1 L85.0 138.4 L83.3 140.3 L82.6 140.9 L81.8 141.2 L79.7 141.4 L79.0 141.6 L78.4 141.7 L77.8 141.5 L76.3 140.5 L72.9 139.5 L70.7 138.1 L69.8 138.1 L67.4 138.6 L66.2 138.7 L63.0 138.2 L62.0 137.9 L61.1 137.1 L60.4 136.2 L59.7 135.5 L57.8 134.5 L57.2 133.9 L57.0 133.0 L57.6 132.5 L63.4 130.2 L78.5 129.2 L79.8 129.3 L80.6 129.6 L81.5 130.2 L82.3 130.8 L82.9 131.7 L82.3 131.8 L81.3 132.2 L80.9 132.4 L80.9 132.8 L86.3 133.1 L89.1 133.8 L91.4 135.1 L92.1 136.0 L93.2 137.9 L94.1 138.6 L95.4 138.9 L98.4 138.6 L99.5 139.0 L100.6 138.8 L102.4 138.8 L103.0 138.7 L104.1 138.5 L104.9 137.2 L104.4 136.0 L103.3 135.1 L101.7 134.5 L101.2 134.5 L99.1 134.2 L96.8 133.6 L95.9 133.5 L94.2 133.7 L93.3 133.6 L92.0 133.1 L87.5 130.5 L90.5 129.6 L92.0 129.3 L97.0 129.5 L98.5 129.8 L99.8 130.5 L99.9 130.5 L99.6 129.4 L98.9 129.0 L98.7 129.0 L96.4 128.9 L95.8 128.8 L95.3 128.5 L94.8 128.2 L94.5 127.7 L94.4 127.1 L94.3 126.4 L94.5 125.9 L95.3 125.4 L96.2 125.2 L98.1 125.1 L97.5 124.7 L96.1 124.1 L92.2 123.3 L91.4 122.6 L91.0 120.7 L90.1 119.5 L88.7 118.8 L87.1 118.1 L86.1 118.6 L84.6 118.9 L83.2 118.9 L82.1 119.1 L81.9 119.3 L81.5 119.3 L80.9 119.3 L80.4 117.7 L82.0 117.1 L85.6 116.4 L86.1 116.0 L87.2 115.9 L89.0 116.2 L90.6 116.7 L90.9 116.8 L91.3 116.7 L91.9 116.6 L92.5 116.2 L92.1 115.7 L90.7 114.5 L90.3 114.3 L90.0 114.0 L89.8 113.7 L90.0 113.2 L90.2 112.9 L90.5 112.7 L90.6 112.5 L90.4 111.7 L89.4 109.4 L88.7 108.5 L89.0 108.1 L89.4 107.7 L92.1 108.1 L94.2 107.8 L96.2 107.1 L104.2 101.0 L111.1 94.8 L116.8 88.4 L120.2 82.3 L120.7 80.7 L120.7 80.3 L121.8 78.8 L124.2 67.9 L125.2 65.1 L125.4 64.2 L125.9 62.5 L128.3 58.7 L128.8 56.9 L128.9 55.8 L129.1 54.5 L129.5 53.3 L130.2 52.8 L133.7 53.1 L134.2 52.8 L134.7 53.2 L133.8 55.0 L135.1 56.0 L137.4 56.4 L139.7 56.3 L140.9 55.9 L143.3 54.6 L144.5 54.4 L146.7 54.2 L149.0 53.6 L160.3 47.4 L161.1 46.9 L162.2 46.3 L164.8 46.0 L165.9 45.5 L167.1 44.1 L168.6 40.3 L169.8 38.5 L171.8 37.1 L173.0 36.5 L175.1 36.0 L176.0 35.3 L176.9 34.5 L177.9 33.9 L179.1 33.7 L181.7 33.4 L183.7 32.4 L192.7 30.2 L194.8 29.3 L196.1 29.3 L199.9 28.1 L205.3 27.9 L211.4 27.8 L216.4 27.7 L217.0 27.8 L218.0 28.4 L218.5 28.5 L219.0 28.4 L220.4 27.7 L228.8 26.3 L242.1 25.0 L247.7 25.6 L248.9 25.9 L249.8 26.5 L251.7 31.2 L252.0 31.2 L253.4 31.8 L253.5 32.0 L253.8 32.1 L254.0 32.3 L254.4 32.6 L256.2 33.0 L258.5 33.7 L259.5 33.5 L259.9 33.9 L260.6 34.0 L261.3 33.9 L261.8 33.5 L262.1 33.5 L262.1 33.9 L261.7 34.2 L261.5 34.3 L261.5 34.6 L261.8 35.0 L261.9 35.9 L263.6 36.5 L267.7 37.2 L268.3 37.2 Z M51.5 142.6 L60.6 140.8 L61.4 140.3 L62.3 140.3 L65.9 141.7 L71.4 142.7 L73.2 143.7 L74.4 144.0 L76.7 144.0 L78.8 144.4 L80.2 144.3 L85.7 142.8 L86.4 142.2 L86.7 141.1 L87.3 140.6 L88.5 140.7 L89.8 141.0 L90.6 141.3 L91.0 141.6 L91.6 142.5 L92.1 142.9 L92.7 143.0 L94.1 143.1 L94.7 143.4 L95.0 143.5 L97.0 143.6 L98.0 142.7 L98.3 142.5 L99.4 142.6 L100.7 143.0 L100.6 143.3 L100.2 144.6 L99.9 145.1 L97.7 147.0 L94.9 148.4 L87.9 150.6 L85.3 151.9 L84.1 152.1 L77.4 152.2 L76.7 152.0 L75.8 151.4 L75.7 150.8 L75.8 150.2 L75.5 149.4 L74.5 149.0 L67.6 147.5 L66.1 147.4 L64.8 147.4 L62.5 147.8 L61.6 147.8 L60.8 147.9 L60.2 148.3 L60.1 149.0 L60.2 149.7 L60.0 150.2 L57.4 150.5 L55.6 150.3 L54.3 150.0 L53.9 149.9 L52.5 148.9 L51.7 147.5 L51.7 146.2 L52.0 144.8 L51.5 142.6 Z M90.2 125.1 L92.6 125.5 L93.7 126.0 L93.8 126.9 L93.2 127.5 L92.3 127.9 L91.3 128.1 L86.9 128.6 L85.9 128.6 L83.8 128.1 L82.6 127.6 L82.1 126.8 L81.7 126.1 L80.8 125.6 L78.6 125.1 L78.2 124.9 L77.9 124.6 L77.4 124.3 L76.7 124.3 L75.3 125.3 L74.9 125.5 L72.4 125.6 L71.3 125.4 L70.5 124.7 L70.7 122.9 L72.7 122.1 L77.5 121.6 L77.7 121.6 L78.6 121.6 L79.4 121.9 L84.8 122.0 L86.0 122.1 L86.9 122.6 L89.0 124.2 L89.3 124.5 L89.7 124.8 L90.2 125.1 Z M138.5 44.7 L138.5 45.1 L139.7 45.1 L139.3 45.8 L138.5 46.7 L137.0 48.2 L134.3 49.5 L133.0 51.0 L131.1 51.3 L129.1 50.8 L128.1 49.4 L128.4 47.9 L129.5 46.2 L130.9 44.9 L133.6 43.5 L134.9 41.8 L136.3 40.4 L138.1 40.5 L138.3 40.8 L138.5 41.1 L138.4 41.4 L138.1 41.6 L138.9 42.4 L139.5 43.4 L139.5 44.3 L138.5 44.7 Z M137.7 38.5 L140.1 36.7 L143.8 34.6 L147.6 33.3 L150.5 33.5 L150.5 33.9 L149.0 33.9 L148.3 34.2 L146.6 34.5 L142.2 37.1 L140.9 38.2 L139.5 39.0 L137.7 38.5 Z M168.4 26.7 L169.2 26.4 L177.6 25.4 L176.2 26.5 L174.6 26.8 L171.4 26.9 L171.5 27.1 L171.6 27.5 L171.7 27.7 L171.0 28.0 L168.6 28.1 L166.1 28.7 L164.1 29.0 L156.3 31.1 L154.7 31.1 L154.0 30.2 L154.6 29.3 L157.7 28.6 L158.7 28.1 L159.9 28.1 L167.5 27.2 L168.4 26.7 Z M182.6 24.6 L196.1 24.3 L198.4 25.0 L192.8 25.8 L187.0 25.8 L185.5 26.0 L182.8 26.7 L181.4 26.5 L180.4 25.7 L180.7 24.9 L181.7 24.4 L182.6 24.6 Z M212.9 22.3 L218.5 22.0 L220.0 22.3 L220.0 22.7 L219.3 22.7 L209.6 24.6 L208.5 25.4 L208.1 25.1 L208.1 24.9 L208.5 24.6 L207.9 23.8 L209.3 23.1 L211.4 22.5 L212.9 22.3 Z" fill="#172033" fill-rule="evenodd"/></svg>
