<svg xmlns="http://www.w3.org/2000/svg" viewBox="0 0 320 200" role="img"><path d="M44.5 45.7 L45.0 46.0 L49.5 49.6 L52.3 52.3 L54.1 53.3 L55.3 52.4 L55.2 53.2 L55.0 53.9 L53.7 56.1 L53.6 56.6 L53.7 57.2 L54.1 57.7 L54.7 58.0 L55.0 58.4 L55.0 58.9 L54.4 59.4 L53.2 59.3 L53.1 59.8 L52.8 60.2 L52.9 60.4 L53.1 60.5 L53.4 60.5 L53.9 60.8 L54.3 61.3 L54.6 62.0 L54.7 62.5 L54.9 63.0 L56.6 64.0 L56.9 64.0 L57.3 63.5 L57.8 63.4 L58.1 63.2 L57.6 62.4 L58.2 62.6 L58.4 63.0 L58.6 63.6 L58.9 64.0 L59.4 64.1 L59.7 63.9 L59.9 63.4 L59.8 62.7 L60.2 62.7 L60.2 63.3 L60.5 63.6 L60.9 63.7 L61.1 63.5 L61.1 62.9 L61.2 62.5 L61.4 62.4 L61.8 62.7 L61.8 62.6 L61.8 62.4 L61.9 62.4 L62.1 62.4 L62.2 62.8 L62.3 63.1 L62.5 63.4 L62.7 63.7 L63.0 63.7 L63.0 63.3 L63.4 63.3 L63.2 64.0 L63.3 65.3 L63.0 65.9 L61.6 65.0 L60.9 64.8 L59.7 64.7 L59.1 65.0 L59.0 65.8 L59.1 66.7 L59.5 67.2 L59.5 67.5 L59.2 67.4 L58.5 67.2 L58.8 67.9 L59.9 68.5 L60.2 69.0 L59.8 72.0 L59.6 72.0 L59.5 71.9 L59.3 71.9 L59.2 71.7 L60.0 72.5 L61.1 73.0 L62.2 73.1 L63.0 72.7 L64.7 73.2 L65.3 73.6 L65.3 74.0 L66.0 75.0 L66.2 75.3 L66.3 75.4 L66.4 75.7 L66.6 75.9 L66.8 76.0 L67.3 75.9 L68.2 76.0 L70.4 75.3 L71.5 75.2 L72.0 75.4 L72.5 75.7 L73.3 75.9 L74.0 75.7 L74.7 75.3 L75.1 74.8 L74.9 74.3 L75.5 74.1 L75.9 74.1 L76.5 74.3 L76.6 74.5 L77.1 74.8 L77.6 75.1 L77.8 74.8 L78.3 74.7 L81.0 75.9 L81.9 75.5 L82.1 74.7 L81.9 72.8 L78.8 71.1 L77.1 68.6 L76.7 68.2 L76.1 67.9 L75.2 67.3 L74.5 66.6 L74.3 66.2 L75.0 66.2 L76.2 66.5 L77.3 66.6 L77.8 66.1 L76.3 65.4 L75.6 64.8 L75.9 64.3 L76.8 64.3 L77.7 64.9 L78.8 66.2 L79.8 67.0 L80.0 67.2 L80.0 67.6 L79.6 67.8 L79.1 67.7 L78.8 67.5 L78.8 67.9 L79.1 68.3 L79.5 68.7 L79.7 69.4 L80.1 69.5 L80.7 69.5 L81.8 69.7 L82.5 69.7 L83.7 71.0 L84.4 71.2 L85.1 72.7 L85.3 73.0 L86.0 73.4 L88.8 77.4 L90.7 79.4 L91.6 80.0 L91.9 80.5 L92.4 81.0 L93.0 81.5 L93.4 81.7 L93.8 81.8 L94.6 82.0 L95.2 82.0 L96.0 81.8 L98.5 82.2 L99.0 82.1 L100.3 82.1 L101.4 82.8 L103.9 82.9 L105.7 82.6 L108.2 82.5 L110.0 82.2 L112.1 82.0 L114.1 81.7 L114.5 81.8 L114.9 81.8 L115.3 81.5 L115.7 81.0 L119.4 79.8 L123.0 78.3 L123.8 78.1 L125.5 78.1 L126.5 77.8 L127.0 77.3 L127.4 76.8 L128.4 75.6 L128.9 74.9 L129.3 74.6 L129.5 74.5 L129.7 74.1 L129.9 73.8 L130.3 73.6 L131.0 72.8 L132.1 72.3 L133.8 71.3 L134.5 71.1 L135.2 70.3 L137.9 68.9 L141.3 67.5 L145.9 66.0 L151.4 65.6 L152.1 65.4 L153.6 64.5 L154.1 64.3 L155.7 64.1 L157.4 63.7 L159.0 63.0 L160.3 62.3 L162.0 60.4 L163.8 58.8 L165.0 57.7 L165.1 57.2 L166.1 55.7 L167.2 55.2 L167.5 55.2 L167.7 55.7 L167.6 57.4 L167.7 57.9 L168.0 58.2 L168.4 58.5 L168.9 58.5 L169.3 58.3 L169.7 57.4 L169.7 56.5 L170.0 56.0 L170.9 56.6 L170.8 56.2 L170.7 55.4 L170.6 55.0 L170.7 55.1 L170.9 55.3 L171.3 55.0 L170.7 54.2 L171.1 53.8 L171.6 54.0 L172.5 53.9 L173.6 54.4 L174.4 55.8 L174.8 56.3 L174.6 55.3 L174.3 54.6 L174.3 53.9 L174.8 53.1 L175.5 52.5 L176.9 52.0 L177.7 51.5 L177.8 51.3 L177.9 51.0 L178.0 50.8 L178.1 50.7 L178.4 50.2 L178.9 50.0 L179.6 49.5 L179.9 48.3 L180.2 47.1 L181.0 46.8 L181.4 46.5 L181.2 46.2 L180.6 46.4 L180.2 46.5 L180.0 46.3 L180.3 46.1 L180.5 45.9 L180.8 45.4 L181.5 45.1 L182.0 44.7 L182.4 44.2 L183.2 43.9 L184.0 44.0 L184.9 43.8 L186.1 43.2 L187.0 43.4 L187.2 44.0 L187.4 44.5 L187.5 44.8 L187.0 45.1 L187.0 45.4 L187.4 45.6 L187.4 45.7 L187.6 46.0 L187.8 45.9 L188.0 45.8 L188.1 45.6 L188.3 45.4 L188.6 45.4 L188.9 45.6 L189.3 45.8 L190.2 46.0 L190.2 45.6 L190.5 44.8 L190.8 45.2 L191.1 45.3 L191.4 45.3 L191.8 45.1 L193.6 45.5 L196.2 45.8 L199.2 46.6 L200.7 47.1 L202.9 47.4 L203.7 47.0 L204.6 46.7 L205.7 46.8 L206.5 46.8 L207.3 46.6 L208.2 46.4 L209.7 46.3 L211.3 46.0 L213.3 45.8 L213.9 46.2 L213.9 46.7 L213.1 47.2 L212.5 47.1 L212.1 47.4 L211.6 47.5 L210.1 47.6 L209.4 47.8 L208.8 48.6 L209.0 49.7 L209.2 51.2 L210.0 51.5 L210.8 51.3 L211.3 51.6 L211.9 51.5 L212.5 51.4 L213.0 51.3 L213.5 51.4 L214.2 51.4 L215.0 51.7 L215.5 51.9 L215.9 52.2 L216.2 52.5 L216.5 52.9 L216.8 52.8 L217.4 52.8 L217.8 52.8 L218.3 52.9 L218.8 52.8 L219.1 52.4 L219.6 52.3 L220.5 52.5 L221.8 52.2 L222.2 51.8 L223.0 52.0 L223.5 51.9 L224.0 51.7 L224.7 51.4 L225.2 52.0 L225.9 52.4 L226.5 52.3 L228.1 52.7 L229.1 52.6 L229.7 53.1 L230.5 53.2 L231.2 52.9 L231.7 52.5 L232.5 52.2 L233.2 52.4 L234.1 53.0 L234.8 53.2 L236.3 53.2 L237.1 53.7 L237.6 53.5 L238.3 53.8 L238.8 54.2 L239.3 54.7 L240.6 55.3 L241.1 55.6 L241.7 55.8 L242.9 56.0 L243.9 56.6 L244.6 57.1 L245.3 57.4 L245.8 57.6 L246.2 57.7 L246.8 57.8 L247.5 58.2 L248.2 58.6 L249.0 59.1 L249.8 59.2 L250.5 59.1 L251.0 59.3 L251.5 59.6 L252.1 59.7 L253.0 60.2 L253.4 60.8 L254.7 61.1 L256.2 61.3 L257.1 61.6 L257.6 62.1 L257.8 62.7 L258.8 63.8 L259.4 63.9 L260.3 64.2 L261.8 66.0 L262.6 67.2 L263.2 68.1 L263.9 69.1 L265.6 70.2 L265.3 69.5 L265.1 68.9 L264.6 67.9 L264.5 67.1 L265.3 67.5 L265.9 68.6 L266.3 69.1 L267.6 70.0 L267.8 71.0 L268.2 71.6 L268.8 71.9 L269.5 72.5 L269.7 73.1 L270.1 73.6 L270.6 74.0 L270.8 74.4 L270.3 75.3 L271.2 76.3 L271.9 77.8 L272.4 78.3 L272.8 77.9 L273.0 78.0 L273.1 78.6 L274.0 79.2 L274.9 80.1 L276.0 81.3 L276.9 81.7 L276.6 81.3 L276.3 81.0 L276.0 80.7 L275.9 80.2 L276.2 80.0 L276.7 80.4 L277.2 81.0 L277.4 81.3 L278.8 82.4 L278.6 83.2 L279.4 84.0 L279.7 83.2 L280.2 83.3 L280.6 84.1 L280.4 84.8 L280.3 85.5 L280.1 86.1 L280.7 86.6 L282.2 87.6 L283.3 88.2 L284.8 88.4 L286.3 88.3 L287.2 87.8 L287.3 88.0 L287.6 88.2 L287.8 88.3 L288.1 88.4 L288.1 89.1 L287.6 89.4 L286.8 89.5 L286.1 89.6 L285.3 90.1 L285.3 90.5 L285.5 91.0 L285.5 91.8 L285.0 93.0 L283.7 94.4 L283.1 94.9 L282.8 96.3 L282.7 97.4 L283.2 97.6 L284.6 97.5 L285.4 97.8 L285.9 98.2 L286.6 99.5 L287.3 101.1 L287.7 104.3 L288.1 106.0 L288.6 106.8 L289.2 107.0 L289.9 107.1 L290.5 107.3 L290.8 107.8 L291.8 109.9 L293.0 111.7 L293.5 112.3 L294.8 114.9 L295.8 118.6 L295.9 119.7 L296.2 120.4 L296.7 120.8 L297.2 121.2 L297.6 121.7 L298.0 122.4 L297.7 122.6 L296.0 122.6 L294.6 122.9 L293.0 123.4 L291.6 124.2 L290.6 125.1 L289.4 127.8 L288.0 129.6 L287.8 130.1 L288.5 131.5 L289.4 132.4 L289.7 133.3 L288.4 134.5 L281.8 138.6 L279.6 140.7 L278.5 141.7 L277.4 141.8 L276.9 141.2 L276.3 138.9 L276.0 138.3 L274.7 136.5 L274.6 136.4 L274.2 136.3 L274.0 136.2 L274.0 136.0 L274.2 135.6 L274.2 135.5 L273.8 135.0 L271.4 133.0 L271.0 132.7 L269.8 133.4 L269.5 135.1 L269.8 137.1 L270.2 138.5 L271.2 140.6 L271.4 141.6 L271.0 142.8 L270.3 143.6 L269.4 144.2 L268.3 144.3 L267.2 144.1 L265.6 149.3 L263.7 155.4 L263.6 155.4 L262.6 155.1 L261.2 153.9 L259.2 151.4 L258.5 150.8 L258.1 150.4 L258.0 149.9 L258.1 149.4 L258.3 148.9 L258.3 148.5 L258.1 148.0 L257.9 147.8 L257.7 147.9 L257.6 148.1 L257.5 148.2 L257.1 148.0 L257.0 147.7 L257.1 147.5 L257.3 147.5 L256.8 146.6 L256.5 146.5 L256.0 146.8 L255.7 146.8 L254.6 145.6 L253.8 144.9 L253.3 144.6 L253.1 144.4 L253.0 144.0 L252.8 143.5 L252.3 143.3 L252.0 143.1 L251.8 142.6 L251.5 141.7 L251.2 141.7 L251.0 142.4 L250.9 141.9 L250.9 140.3 L250.6 139.5 L250.1 139.3 L249.7 139.6 L249.6 140.5 L249.3 139.9 L249.4 139.4 L249.6 139.0 L249.6 138.5 L249.4 138.0 L249.2 137.7 L248.7 137.3 L247.7 136.0 L247.0 135.5 L246.1 135.3 L246.2 134.8 L246.0 134.4 L245.6 134.2 L245.1 134.0 L245.5 133.1 L245.8 132.5 L245.8 131.9 L245.4 131.1 L244.0 128.9 L243.8 128.4 L243.4 126.9 L242.3 125.6 L241.2 124.5 L240.3 123.4 L239.7 122.0 L239.3 120.5 L239.3 119.9 L239.4 119.4 L239.3 118.9 L238.5 117.4 L238.4 116.8 L238.6 115.9 L239.2 115.1 L239.7 114.8 L240.2 116.3 L240.9 116.6 L241.7 116.5 L242.2 116.0 L243.6 116.7 L245.4 115.8 L247.0 114.1 L247.7 112.3 L247.6 111.4 L247.3 110.8 L246.9 110.4 L246.4 109.9 L245.0 108.4 L244.5 108.0 L244.5 107.7 L245.7 107.8 L246.1 107.7 L246.7 107.4 L246.7 107.0 L246.5 106.9 L246.3 106.8 L246.2 106.6 L246.1 106.4 L246.4 106.2 L246.5 106.2 L246.7 105.7 L247.1 106.0 L247.7 106.5 L248.0 106.7 L248.4 106.8 L248.8 106.8 L249.4 106.7 L249.5 106.5 L250.1 105.7 L250.2 105.6 L250.2 104.3 L250.2 103.8 L250.4 103.7 L251.2 102.9 L251.4 102.4 L251.5 102.0 L251.5 101.1 L251.7 100.8 L252.1 100.6 L252.6 100.6 L252.8 100.8 L253.0 102.5 L253.1 102.9 L253.6 103.3 L254.4 103.7 L255.2 104.0 L255.9 104.2 L256.4 104.5 L256.8 105.2 L257.6 107.4 L258.1 108.0 L258.7 108.5 L259.4 108.6 L259.6 108.5 L260.1 108.4 L260.6 108.4 L261.0 109.1 L261.3 109.3 L261.7 109.5 L262.1 109.6 L262.8 109.6 L262.8 109.3 L262.0 109.1 L261.4 108.8 L260.9 108.2 L260.5 107.7 L262.9 108.1 L264.1 108.6 L264.9 109.5 L266.1 110.1 L266.3 110.4 L266.3 111.1 L266.5 111.6 L266.8 111.9 L267.3 112.2 L267.8 111.9 L268.3 112.2 L268.7 112.8 L268.9 113.6 L269.2 114.1 L269.9 114.3 L270.7 114.1 L271.1 113.5 L269.8 113.5 L268.1 111.4 L267.3 111.5 L264.9 108.5 L264.4 108.2 L263.7 107.8 L259.5 107.0 L258.5 106.6 L257.7 106.0 L257.2 105.1 L257.0 104.0 L255.9 101.9 L255.6 100.7 L256.4 100.0 L255.9 99.7 L255.3 99.2 L254.8 98.6 L254.4 98.0 L254.2 97.3 L254.3 96.8 L254.6 96.5 L254.7 96.1 L254.7 95.5 L254.4 95.4 L254.0 95.3 L253.4 94.8 L253.2 94.3 L253.2 93.9 L253.0 93.5 L252.5 93.2 L252.7 93.7 L252.7 94.9 L253.0 95.3 L253.6 95.7 L253.8 95.8 L253.8 95.9 L253.8 97.4 L253.9 97.9 L254.5 99.4 L254.6 99.9 L254.4 100.3 L254.1 100.3 L253.2 98.8 L252.6 98.1 L252.2 97.7 L251.4 97.7 L250.8 98.1 L250.4 98.8 L250.2 99.8 L249.9 100.6 L249.2 101.1 L248.4 101.5 L247.5 101.6 L247.1 101.4 L246.9 101.1 L246.9 100.6 L247.0 100.3 L247.3 100.0 L248.7 99.3 L248.8 99.5 L249.0 99.6 L249.3 99.7 L249.3 98.1 L249.1 96.7 L248.3 94.2 L248.0 94.2 L247.7 94.8 L247.9 95.3 L248.3 95.6 L248.7 96.1 L248.6 97.0 L248.2 97.6 L248.0 98.2 L248.3 98.7 L248.3 99.0 L248.2 99.1 L248.0 99.2 L247.7 99.3 L247.5 98.9 L247.2 98.7 L246.9 98.6 L246.7 98.4 L246.6 98.0 L246.7 97.9 L246.8 97.9 L247.0 97.7 L247.5 96.8 L247.5 96.4 L246.7 96.1 L247.0 96.7 L246.9 97.0 L246.6 97.1 L246.4 97.4 L245.7 98.7 L245.0 98.8 L244.6 98.3 L244.1 96.8 L243.8 97.1 L243.7 97.7 L243.1 98.7 L242.2 99.5 L241.6 99.7 L241.2 98.9 L240.7 96.1 L240.3 95.2 L240.5 94.8 L240.6 94.5 L240.3 94.5 L240.3 94.8 L240.0 94.8 L240.0 93.9 L239.7 93.9 L239.5 95.0 L240.3 97.4 L240.8 99.6 L241.7 100.3 L241.9 101.1 L240.6 103.8 L240.4 103.4 L240.1 103.2 L239.7 103.1 L239.6 103.0 L239.3 102.9 L238.2 101.5 L237.7 101.2 L238.0 100.7 L237.9 99.8 L237.7 99.0 L237.4 98.4 L237.0 98.7 L236.9 98.9 L236.8 99.3 L236.7 99.7 L236.5 99.2 L236.0 98.6 L235.8 98.0 L235.8 97.4 L236.1 95.8 L235.8 95.0 L234.4 93.2 L233.9 92.6 L234.6 92.6 L235.1 92.8 L235.6 92.8 L236.1 92.6 L235.3 92.0 L235.1 91.5 L235.2 89.9 L232.2 89.1 L232.5 88.3 L232.6 88.1 L232.3 88.1 L232.1 88.2 L231.9 88.4 L231.5 88.2 L231.2 88.2 L230.8 88.3 L230.5 88.4 L230.1 88.2 L229.8 87.6 L229.4 86.5 L230.0 86.0 L230.3 85.1 L230.2 84.1 L230.0 83.3 L229.7 83.3 L229.6 84.0 L229.8 85.0 L229.8 85.7 L229.0 85.5 L228.3 86.4 L226.8 84.5 L225.5 84.5 L224.6 84.0 L223.7 82.0 L222.9 81.3 L222.9 81.0 L223.3 81.0 L223.3 80.7 L222.6 80.5 L222.2 80.1 L221.8 79.6 L221.3 79.1 L221.7 79.9 L221.8 80.5 L221.5 81.0 L220.7 81.3 L220.0 81.5 L219.5 81.3 L218.6 80.2 L218.3 79.5 L218.1 78.6 L217.8 77.8 L211.7 74.6 L209.2 74.1 L208.0 73.2 L207.8 73.0 L207.8 72.5 L207.9 72.2 L208.1 72.0 L208.2 71.5 L208.2 70.6 L208.1 69.8 L207.8 69.2 L206.9 69.2 L206.9 68.8 L207.9 68.7 L208.7 68.3 L209.2 67.7 L209.5 66.9 L209.8 66.9 L210.2 67.5 L210.6 67.5 L211.4 66.9 L212.3 66.6 L212.8 66.3 L213.0 65.9 L212.7 66.1 L212.1 66.1 L211.7 66.2 L211.4 66.5 L210.8 67.1 L210.6 67.2 L210.2 67.1 L210.1 66.8 L209.9 66.6 L209.5 66.6 L209.2 66.8 L208.6 67.7 L208.3 67.9 L208.2 67.9 L208.1 68.2 L207.8 68.4 L207.4 68.5 L206.9 68.5 L206.6 68.6 L206.4 68.8 L206.3 69.2 L206.6 69.5 L207.2 69.7 L207.7 70.1 L207.8 71.1 L207.6 71.6 L207.1 72.4 L206.5 73.0 L205.8 72.8 L205.5 72.7 L204.3 72.4 L204.3 72.2 L204.0 71.8 L203.8 71.6 L203.7 72.2 L202.9 72.5 L199.1 71.8 L197.9 72.0 L197.6 72.0 L197.6 71.7 L196.5 72.1 L193.8 71.8 L192.8 72.4 L192.3 72.0 L191.9 72.1 L191.4 72.3 L190.6 72.4 L190.1 72.6 L189.7 72.7 L189.3 72.8 L189.3 73.0 L189.2 73.2 L189.1 73.3 L188.9 73.5 L187.6 74.3 L187.5 74.7 L187.6 75.1 L187.5 75.4 L187.0 75.6 L187.8 76.9 L187.9 77.5 L187.3 77.0 L186.6 76.3 L185.9 75.4 L185.7 74.6 L185.4 74.6 L185.5 74.9 L185.5 75.0 L185.7 75.3 L185.7 75.6 L185.4 75.6 L185.7 76.7 L185.5 77.7 L184.8 78.2 L183.8 77.8 L181.6 78.2 L180.9 78.6 L181.2 79.1 L181.2 79.4 L180.7 79.2 L180.3 79.0 L180.0 78.9 L179.6 79.1 L179.4 79.0 L179.4 78.9 L179.3 78.8 L179.0 78.8 L179.0 79.1 L179.1 79.3 L179.2 79.5 L179.3 79.7 L178.5 79.6 L177.7 80.0 L177.1 80.7 L176.7 81.3 L176.5 82.3 L176.7 85.0 L176.8 85.3 L177.0 85.4 L177.2 85.5 L177.3 85.7 L177.3 86.0 L177.2 86.2 L177.0 86.5 L176.9 86.9 L176.8 87.2 L176.5 87.6 L176.2 87.9 L176.0 88.1 L175.5 88.4 L174.9 88.5 L174.8 88.7 L174.9 88.9 L174.8 89.1 L174.0 89.3 L173.2 89.6 L173.8 90.2 L175.4 90.6 L176.9 90.0 L178.3 89.3 L178.9 89.0 L179.0 88.8 L179.3 88.8 L179.3 89.2 L179.1 89.5 L177.5 90.7 L175.6 92.4 L174.7 92.8 L173.2 93.2 L171.4 93.7 L171.1 94.1 L171.2 94.6 L171.1 95.0 L170.9 95.2 L170.7 95.3 L170.2 95.4 L170.0 95.5 L169.3 96.1 L168.9 96.3 L168.5 96.4 L168.3 96.6 L167.8 97.5 L167.6 97.7 L167.5 97.9 L166.5 98.8 L163.2 100.9 L161.3 102.1 L159.2 103.2 L155.9 104.9 L154.5 105.5 L152.3 105.7 L151.9 105.7 L151.3 105.5 L151.0 105.5 L150.6 105.6 L149.8 106.0 L149.4 106.1 L148.1 105.7 L147.5 105.3 L147.2 105.0 L147.5 104.8 L147.0 105.0 L147.0 105.2 L147.0 105.4 L146.9 105.7 L146.0 106.3 L143.0 109.2 L142.7 110.1 L142.8 114.6 L142.8 115.1 L142.7 115.3 L142.4 115.7 L143.1 116.1 L143.5 117.0 L143.7 117.9 L144.1 118.3 L144.8 118.4 L146.6 119.2 L147.1 119.6 L148.7 120.1 L149.7 121.8 L150.4 123.7 L151.0 125.0 L155.5 128.6 L158.3 131.1 L162.6 136.6 L164.8 140.5 L165.4 141.9 L165.3 142.8 L164.6 144.6 L164.2 145.0 L163.7 145.2 L162.4 145.2 L162.0 145.3 L158.7 146.5 L155.8 146.5 L155.2 146.8 L154.6 146.6 L153.4 146.3 L152.9 145.9 L152.6 145.9 L152.2 146.1 L150.7 146.5 L150.7 146.8 L151.3 146.8 L151.8 146.7 L152.2 146.5 L152.6 146.2 L152.9 146.5 L149.6 147.6 L148.3 148.5 L148.1 149.8 L148.9 151.1 L148.8 151.5 L147.6 151.7 L147.3 151.8 L146.9 152.0 L146.6 152.3 L146.5 152.5 L146.4 153.0 L146.1 153.2 L145.7 153.3 L145.2 153.6 L145.0 154.0 L145.0 154.3 L145.0 154.6 L144.6 154.9 L144.2 154.9 L143.3 154.6 L142.8 154.6 L137.1 155.3 L136.8 155.3 L131.7 156.3 L127.9 156.4 L126.9 156.2 L126.6 156.2 L126.4 156.4 L126.1 156.5 L125.9 156.4 L125.7 156.2 L125.3 156.2 L124.7 156.8 L124.2 156.5 L123.4 155.2 L123.2 155.0 L122.8 154.8 L122.4 154.6 L122.0 154.6 L121.5 154.4 L121.5 154.1 L121.7 153.7 L122.0 153.6 L122.1 153.4 L122.1 152.4 L122.1 152.0 L122.4 151.7 L122.9 151.3 L123.1 151.0 L123.3 150.4 L123.3 149.5 L123.1 148.8 L121.9 148.1 L121.9 147.2 L122.4 145.7 L122.2 145.1 L120.5 143.3 L120.3 143.2 L120.0 142.9 L119.8 142.5 L120.3 142.2 L120.4 141.8 L120.5 141.3 L120.7 140.9 L120.7 140.4 L120.3 139.7 L119.7 139.1 L119.2 138.8 L119.2 138.5 L119.5 138.5 L119.5 138.2 L117.3 135.9 L116.8 135.7 L116.5 135.6 L116.3 135.4 L116.3 135.0 L116.6 134.6 L116.9 134.3 L117.4 134.2 L117.9 134.3 L117.7 133.9 L117.2 133.5 L116.6 133.2 L116.2 133.1 L116.1 132.8 L117.0 131.4 L116.5 131.5 L116.0 131.4 L115.6 131.3 L115.4 131.1 L115.5 131.0 L115.6 131.1 L115.7 131.0 L115.7 130.8 L114.6 130.6 L114.2 129.9 L114.2 129.2 L114.6 128.9 L114.8 128.8 L115.1 128.6 L115.4 128.3 L115.9 128.2 L116.5 128.2 L116.9 128.1 L117.2 127.9 L117.3 127.3 L117.0 127.3 L115.9 127.9 L115.6 126.6 L115.7 123.7 L114.7 125.6 L114.0 126.2 L113.4 125.3 L113.1 125.3 L113.2 125.8 L113.4 126.2 L113.7 126.4 L114.1 126.6 L114.1 127.0 L112.0 127.0 L111.5 126.9 L111.0 126.4 L110.4 126.3 L109.2 126.0 L109.0 125.2 L108.8 124.5 L108.0 124.4 L108.5 124.6 L108.6 124.7 L108.6 125.0 L108.0 125.2 L108.1 125.6 L109.0 126.3 L109.8 126.7 L109.9 126.8 L109.8 127.2 L109.7 127.5 L109.6 127.8 L110.5 129.5 L110.0 130.7 L109.0 131.7 L108.0 132.4 L107.8 132.0 L107.8 131.8 L107.8 131.6 L108.0 131.4 L108.0 131.1 L107.3 131.0 L106.7 131.1 L106.7 131.4 L107.2 131.6 L107.5 131.8 L108.0 132.7 L107.4 132.9 L107.1 132.9 L106.7 132.7 L107.0 133.3 L107.4 133.7 L107.6 133.7 L108.3 133.3 L109.0 133.1 L109.2 133.6 L109.0 135.6 L109.1 136.2 L109.1 136.5 L109.0 136.9 L108.8 137.1 L108.2 137.6 L108.0 137.9 L107.6 137.9 L107.2 137.6 L105.7 136.8 L105.4 136.7 L105.2 136.1 L104.6 135.9 L103.5 135.9 L99.6 134.9 L98.3 135.0 L98.1 134.4 L97.8 134.0 L97.5 133.6 L97.1 133.4 L96.0 133.6 L94.6 133.5 L93.6 133.1 L93.5 132.4 L93.9 132.3 L94.8 131.8 L95.3 131.3 L93.5 130.8 L93.0 130.9 L92.9 131.8 L91.8 131.0 L91.3 130.8 L91.3 130.5 L91.6 130.1 L91.3 129.7 L90.9 129.2 L90.7 128.7 L90.7 128.0 L91.0 127.5 L91.6 126.6 L91.6 126.3 L91.3 126.1 L90.9 126.0 L90.6 126.1 L90.3 126.3 L90.0 126.3 L89.7 126.0 L89.7 125.6 L90.1 125.3 L90.1 125.0 L89.7 124.7 L89.0 124.7 L89.2 124.0 L89.2 123.2 L89.5 122.8 L90.3 123.1 L90.2 122.7 L90.0 122.4 L89.4 121.8 L89.6 121.5 L89.5 120.8 L89.7 120.2 L89.1 120.4 L88.8 120.4 L88.7 120.4 L88.7 121.0 L89.0 121.7 L89.0 122.0 L88.9 122.2 L88.5 122.1 L88.3 121.9 L88.1 121.7 L88.1 121.3 L87.9 120.8 L87.1 119.7 L86.8 119.2 L86.1 117.5 L85.8 117.0 L85.5 117.7 L85.5 118.1 L85.5 118.6 L85.0 118.1 L85.0 117.4 L84.9 116.8 L84.2 116.4 L84.2 116.0 L84.6 116.2 L85.0 116.3 L85.3 116.3 L85.5 116.0 L85.8 116.0 L86.0 116.2 L86.1 116.2 L86.5 116.4 L84.9 113.5 L83.8 112.2 L83.4 111.4 L83.2 110.6 L83.0 110.6 L82.7 111.1 L82.6 111.6 L82.7 112.0 L83.2 112.2 L83.0 112.6 L82.2 113.3 L81.9 113.8 L81.6 113.8 L80.8 113.1 L77.1 111.7 L76.7 111.4 L74.8 111.0 L74.1 110.9 L73.6 110.6 L73.8 109.9 L74.6 108.6 L74.0 108.8 L73.4 109.2 L72.9 109.8 L72.7 110.4 L72.4 110.5 L71.7 110.1 L70.7 109.3 L70.0 109.8 L68.5 109.7 L67.0 109.2 L66.2 108.6 L65.9 108.6 L65.9 109.5 L64.7 112.1 L64.6 112.0 L64.4 111.9 L64.3 111.9 L64.3 112.2 L64.0 112.2 L64.5 111.1 L64.4 110.7 L64.0 110.9 L64.1 110.5 L64.1 110.2 L64.3 110.0 L64.6 109.9 L64.6 109.6 L64.0 109.6 L63.2 110.1 L62.5 110.2 L62.1 110.1 L61.5 109.5 L61.1 109.3 L61.1 109.0 L61.3 108.9 L61.5 108.7 L61.8 108.6 L61.2 107.2 L61.2 106.5 L61.4 106.1 L61.4 105.7 L61.2 105.5 L61.1 105.3 L61.2 105.0 L61.4 104.8 L61.5 104.9 L61.5 105.0 L61.5 105.1 L61.8 105.1 L61.5 104.5 L61.6 104.0 L62.0 103.7 L62.7 103.5 L61.6 103.4 L61.0 103.5 L60.8 103.7 L60.0 105.2 L60.0 105.5 L59.1 105.4 L58.4 105.1 L58.0 104.5 L58.2 103.5 L57.5 103.8 L56.6 104.1 L55.8 104.1 L55.0 103.8 L55.1 104.1 L55.2 104.8 L55.3 105.1 L54.5 105.2 L53.2 105.9 L52.6 106.1 L51.7 105.8 L51.1 105.3 L51.0 104.8 L51.8 104.4 L51.8 104.2 L51.4 104.0 L51.2 103.7 L51.1 103.3 L51.2 102.9 L50.7 103.2 L50.6 103.8 L50.4 104.4 L49.5 104.8 L49.5 105.1 L49.7 105.4 L49.9 105.7 L50.1 106.0 L50.2 106.4 L49.3 106.6 L49.0 106.6 L48.6 106.4 L47.4 106.6 L45.5 106.1 L42.2 104.8 L40.5 104.4 L38.6 104.4 L36.8 104.7 L33.5 105.7 L32.0 106.5 L30.9 107.7 L30.2 109.3 L30.1 111.2 L30.5 113.2 L31.6 116.4 L31.6 116.7 L31.0 117.3 L30.7 118.0 L30.3 118.4 L29.3 117.9 L29.6 116.9 L29.8 114.8 L27.3 109.4 L27.1 107.9 L26.8 107.4 L26.0 107.0 L25.6 106.9 L25.0 107.2 L24.7 107.2 L24.4 106.9 L24.0 106.3 L23.7 106.0 L22.4 105.3 L22.0 104.8 L22.1 104.2 L22.5 103.9 L24.6 102.7 L26.7 100.7 L28.0 100.0 L29.3 99.6 L30.6 99.0 L31.6 97.8 L32.0 96.4 L32.2 94.7 L31.9 91.5 L31.5 90.0 L31.0 88.8 L30.2 87.7 L28.7 86.1 L28.3 85.5 L28.0 84.8 L28.1 84.1 L28.5 83.7 L29.9 82.9 L30.3 82.4 L30.3 81.7 L30.0 81.5 L29.7 81.3 L30.2 80.7 L30.7 80.3 L35.6 78.3 L37.0 77.5 L37.6 76.4 L37.6 76.4 L37.5 75.9 L36.3 73.9 L35.6 73.5 L33.5 72.8 L31.3 71.2 L30.3 70.7 L30.0 70.6 L29.8 70.3 L29.7 69.9 L29.5 69.6 L29.2 69.3 L28.7 69.3 L27.3 69.9 L27.3 69.4 L27.2 61.7 L27.2 56.1 L27.1 52.2 L27.2 51.3 L27.6 50.7 L28.5 50.4 L31.0 50.0 L31.7 49.6 L31.8 49.2 L31.6 49.1 L31.2 49.0 L31.0 48.7 L30.7 47.5 L30.2 46.5 L30.2 46.0 L30.8 45.3 L31.6 44.6 L32.5 44.5 L35.2 45.5 L37.2 47.2 L37.6 47.3 L38.0 47.2 L38.5 47.7 L39.1 48.8 L39.6 49.4 L40.0 49.6 L40.9 49.8 L41.7 50.0 L42.4 49.9 L42.7 49.3 L42.9 47.5 L43.2 47.0 L43.9 47.1 L44.6 47.5 L45.0 47.5 L44.5 45.7 Z M111.2 140.1 L111.9 139.8 L112.7 139.5 L114.1 139.2 L114.7 139.4 L115.3 139.5 L116.7 139.5 L116.1 140.5 L115.7 140.9 L115.2 141.1 L114.7 141.3 L114.3 141.4 L113.9 141.2 L113.6 141.0 L113.4 140.9 L113.1 140.8 L112.6 140.8 L112.2 140.9 L111.9 141.1 L111.8 141.4 L111.5 141.7 L110.2 142.4 L109.5 143.1 L109.3 143.3 L108.9 143.3 L108.4 143.2 L108.1 143.1 L108.0 143.0 L106.7 143.5 L106.4 143.4 L106.8 142.8 L107.3 142.4 L107.8 142.0 L108.4 141.8 L110.0 141.5 L110.5 141.1 L110.8 140.6 L111.2 140.1 Z M87.1 147.8 L87.6 148.1 L89.1 148.0 L89.4 148.3 L90.7 150.7 L89.8 151.1 L88.8 151.4 L87.8 151.4 L86.2 150.4 L84.1 150.3 L83.2 150.1 L82.8 149.7 L81.6 148.4 L80.7 147.9 L78.8 146.2 L77.7 144.0 L77.3 143.6 L77.2 143.4 L76.8 142.2 L77.0 142.2 L78.0 142.2 L78.4 142.0 L78.4 141.9 L79.0 140.8 L79.1 140.8 L79.2 140.2 L79.3 139.8 L79.3 139.4 L79.6 139.0 L79.9 138.8 L80.8 138.6 L82.1 137.6 L82.6 137.4 L82.6 137.5 L83.0 137.5 L82.8 137.2 L82.7 136.6 L82.6 136.2 L83.0 136.2 L83.0 136.6 L83.2 136.6 L83.2 136.3 L83.3 136.3 L83.4 136.3 L83.6 136.2 L84.7 139.3 L84.7 139.8 L84.8 139.9 L85.2 140.5 L85.2 140.6 L85.1 141.0 L85.2 141.1 L85.3 141.1 L85.7 141.1 L85.8 141.1 L86.3 141.4 L86.6 141.5 L86.7 141.8 L86.8 142.5 L86.5 142.7 L85.0 143.3 L85.0 143.6 L84.6 145.0 L84.5 145.2 L84.8 145.8 L85.7 146.6 L85.8 147.0 L85.9 147.5 L86.1 147.9 L86.4 148.1 L86.8 147.8 L87.1 147.8 Z M217.0 98.1 L216.9 97.6 L217.1 97.3 L217.5 97.6 L218.1 97.9 L218.4 98.3 L218.6 98.8 L218.7 99.4 L218.8 99.8 L218.7 100.2 L219.3 100.3 L219.6 100.9 L219.6 101.4 L219.2 101.7 L219.1 102.3 L219.7 103.5 L219.3 104.5 L218.9 104.9 L218.9 105.3 L218.6 105.7 L218.0 105.7 L217.8 105.4 L217.4 105.5 L217.1 105.5 L216.8 105.6 L216.7 105.4 L216.6 105.1 L216.4 105.4 L216.0 105.8 L215.7 106.3 L215.7 106.7 L215.6 107.1 L216.0 107.7 L216.1 108.6 L216.4 108.8 L216.7 108.8 L216.7 109.0 L216.4 109.3 L215.8 108.9 L215.3 108.5 L215.4 107.9 L215.0 106.8 L214.7 106.3 L213.9 106.0 L213.6 105.7 L213.3 105.3 L213.6 104.5 L213.9 104.1 L214.1 103.3 L213.9 103.0 L213.5 102.6 L213.3 102.2 L213.5 101.9 L213.7 101.6 L213.7 101.3 L213.5 100.4 L213.6 100.0 L213.1 98.7 L213.3 98.1 L213.9 98.1 L214.3 98.3 L216.2 97.5 L216.6 97.9 L216.8 98.2 L216.8 98.4 L217.0 98.1 Z" fill="#172033" fill-rule="evenodd"/></svg>
