<svg xmlns="http://www.w3.org/2000/svg" viewBox="0 0 320 200" role="img"><path d="M47.3 41.0 L47.5 41.0 L47.8 41.1 L48.3 40.9 L48.9 40.9 L49.5 41.1 L50.1 41.2 L50.6 41.2 L50.8 41.3 L50.9 41.4 L51.0 41.5 L51.1 41.5 L51.3 41.6 L51.7 41.6 L51.9 41.6 L51.9 41.7 L52.1 42.1 L52.2 42.2 L52.4 42.1 L52.8 42.5 L53.2 42.7 L53.5 42.7 L56.4 43.9 L59.8 45.6 L60.3 45.6 L60.4 45.8 L60.4 45.9 L60.4 46.1 L61.1 46.5 L61.4 46.6 L62.0 46.5 L62.8 46.4 L63.0 46.5 L63.8 47.2 L63.9 47.4 L63.9 47.5 L63.8 47.6 L63.8 47.8 L63.8 48.0 L63.9 48.0 L64.3 48.0 L64.4 48.1 L64.9 47.9 L65.3 48.1 L65.6 48.3 L65.9 48.4 L66.3 48.4 L66.5 48.5 L66.9 48.7 L68.8 49.3 L70.5 50.0 L72.2 50.6 L75.2 51.5 L75.5 51.5 L75.7 51.6 L76.2 51.8 L76.4 51.9 L76.6 51.9 L76.8 51.9 L77.2 52.1 L78.5 52.5 L78.8 52.5 L79.3 52.4 L79.6 52.4 L79.8 52.5 L79.9 52.3 L80.2 52.5 L81.2 52.6 L81.4 52.6 L81.6 52.8 L81.8 52.9 L82.0 52.9 L85.3 53.4 L85.9 53.7 L86.2 53.9 L87.1 54.7 L87.2 55.1 L87.3 55.3 L87.4 55.3 L87.6 55.4 L87.7 55.5 L87.9 55.6 L88.3 55.7 L88.4 55.8 L88.5 55.7 L88.7 55.6 L88.8 55.6 L88.9 55.6 L89.0 55.7 L88.8 55.9 L89.0 56.1 L89.1 56.2 L89.3 56.3 L89.9 56.3 L90.2 56.4 L90.4 56.5 L91.0 57.4 L91.2 57.5 L91.8 57.8 L92.0 57.9 L92.4 58.0 L93.1 59.1 L93.5 59.2 L94.0 59.3 L95.0 59.2 L95.1 59.2 L95.3 59.2 L95.7 59.2 L95.6 59.3 L95.4 59.4 L95.3 59.4 L95.1 59.4 L95.2 59.6 L95.3 59.7 L95.5 59.8 L95.6 59.9 L95.9 60.0 L96.3 59.8 L96.5 59.9 L96.6 60.1 L96.7 60.2 L96.8 60.2 L97.0 60.2 L97.0 60.2 L97.0 60.1 L97.0 60.0 L97.2 59.9 L97.3 59.7 L97.4 59.5 L97.4 59.3 L97.9 59.2 L98.5 59.2 L99.2 59.3 L99.7 59.4 L99.9 59.4 L100.7 59.4 L101.0 59.5 L101.2 59.7 L101.3 59.9 L101.5 60.2 L101.5 60.5 L101.5 61.8 L101.6 61.9 L101.9 62.1 L102.0 62.2 L102.1 62.2 L102.4 62.3 L104.2 62.6 L104.8 62.8 L105.2 63.2 L105.5 63.4 L106.0 63.5 L106.3 63.7 L106.4 63.8 L106.4 63.9 L106.5 63.9 L106.5 63.9 L106.5 64.0 L106.5 64.1 L106.3 64.2 L106.2 64.3 L106.2 64.5 L106.3 64.7 L106.5 64.8 L107.1 65.0 L107.4 65.1 L107.9 65.5 L108.2 65.8 L108.3 65.8 L108.3 66.4 L108.3 66.5 L108.5 66.6 L109.1 67.4 L109.5 67.6 L111.1 68.1 L111.7 68.1 L112.3 68.0 L113.0 67.9 L113.6 68.1 L114.2 68.9 L115.1 69.7 L115.7 70.3 L115.8 70.6 L116.1 71.0 L116.3 71.1 L116.4 71.1 L116.5 71.0 L116.6 71.1 L116.8 71.3 L117.1 72.0 L118.8 73.9 L119.0 74.1 L119.3 74.2 L119.6 74.4 L119.6 74.4 L120.1 74.6 L120.3 74.7 L120.5 75.0 L120.6 75.3 L120.6 75.4 L120.4 75.5 L120.3 75.9 L120.2 76.6 L120.2 76.9 L120.4 77.5 L120.4 77.8 L120.5 77.9 L120.6 78.1 L120.6 78.3 L120.6 78.4 L120.5 78.6 L120.4 78.7 L120.4 78.8 L120.4 79.3 L120.3 79.7 L120.3 79.8 L120.3 80.5 L120.3 80.7 L120.2 81.0 L119.7 81.8 L119.6 82.1 L119.6 82.2 L119.7 82.5 L119.7 82.6 L119.7 82.8 L119.4 83.3 L119.4 83.8 L119.5 84.3 L119.8 84.6 L120.3 84.8 L121.2 84.6 L121.6 84.7 L121.8 85.2 L121.9 85.2 L121.9 85.1 L122.0 84.9 L122.0 84.8 L122.1 84.8 L122.1 84.8 L122.2 84.9 L122.4 84.7 L122.6 84.6 L122.8 84.6 L123.0 84.4 L123.3 84.7 L123.6 84.8 L123.8 84.9 L124.2 85.1 L124.3 85.0 L124.4 85.0 L124.4 85.0 L124.5 85.1 L124.6 85.1 L125.2 85.3 L125.4 85.4 L125.8 85.4 L126.0 85.4 L126.0 85.5 L126.1 85.7 L126.3 85.8 L126.7 85.8 L126.9 85.9 L127.1 86.0 L127.4 85.9 L127.5 86.0 L127.7 86.1 L127.8 86.2 L128.0 86.2 L128.3 86.1 L128.5 86.1 L128.7 86.1 L128.8 86.1 L129.1 86.3 L129.2 86.4 L129.3 86.5 L129.5 86.5 L129.7 86.5 L129.6 86.5 L129.9 86.5 L130.2 86.5 L130.5 86.5 L130.8 86.7 L130.8 86.8 L130.9 87.0 L131.0 87.1 L131.4 87.2 L131.5 87.3 L133.4 88.7 L134.4 89.0 L135.0 89.3 L135.3 89.4 L135.4 89.5 L135.5 89.8 L135.6 90.0 L135.8 90.1 L136.1 90.0 L136.3 89.9 L136.7 89.9 L136.9 89.9 L137.2 90.0 L137.4 90.1 L137.6 90.2 L137.8 90.4 L137.8 90.7 L138.0 90.9 L138.8 91.4 L138.9 91.4 L139.0 91.5 L139.2 91.5 L139.3 91.6 L139.4 91.6 L139.6 91.4 L139.8 91.4 L139.9 91.4 L140.1 91.6 L140.3 91.9 L140.4 92.1 L140.5 92.0 L140.7 91.9 L142.1 92.1 L142.2 92.1 L142.3 92.0 L142.5 91.9 L142.7 91.7 L142.8 91.6 L143.0 91.5 L143.2 91.5 L143.5 91.7 L143.6 91.7 L143.7 91.7 L143.7 91.6 L143.8 91.6 L143.9 91.5 L143.9 91.5 L144.0 91.6 L144.8 91.9 L145.5 92.0 L145.7 92.1 L145.9 92.3 L146.1 92.4 L146.2 92.5 L146.3 92.5 L146.4 92.6 L146.4 92.6 L146.5 92.8 L146.5 92.9 L146.6 93.0 L147.0 93.2 L148.1 94.2 L148.5 94.9 L148.6 95.0 L148.9 95.2 L149.0 95.5 L149.1 95.9 L149.3 96.2 L149.7 96.7 L150.8 97.2 L151.2 97.6 L151.2 97.8 L151.2 98.0 L151.2 98.1 L151.2 98.3 L151.3 98.5 L151.4 98.6 L151.5 98.8 L151.6 99.2 L151.8 99.6 L151.8 99.8 L151.8 99.9 L151.7 100.0 L151.6 100.1 L151.7 100.3 L151.5 100.5 L151.6 100.8 L151.6 101.0 L151.7 101.3 L151.6 101.4 L151.4 101.5 L151.4 101.6 L151.4 101.8 L151.5 101.9 L151.6 101.9 L151.7 101.8 L151.6 103.0 L150.4 103.4 L147.7 103.6 L147.6 103.7 L147.3 103.9 L147.2 104.0 L147.1 104.0 L146.9 103.9 L146.7 103.9 L146.6 103.9 L146.3 104.0 L145.3 103.7 L144.9 103.7 L144.3 103.8 L144.0 103.9 L141.6 103.7 L141.4 103.8 L141.3 103.6 L141.2 103.5 L141.1 103.4 L140.9 103.4 L140.7 103.3 L139.9 103.4 L139.7 103.4 L139.3 103.7 L139.1 103.8 L138.6 103.8 L138.3 103.8 L138.1 103.9 L138.1 104.2 L137.8 104.9 L137.8 105.2 L137.8 106.0 L137.9 106.7 L138.0 107.0 L138.5 107.6 L138.8 107.9 L139.0 108.1 L139.1 108.2 L139.2 108.2 L139.3 108.2 L139.6 108.0 L139.7 107.9 L139.7 108.1 L139.6 108.3 L139.6 108.4 L139.5 108.5 L139.6 108.7 L139.7 109.0 L139.7 109.2 L139.7 109.4 L139.6 109.7 L139.6 109.9 L139.7 109.9 L140.5 110.5 L140.7 110.7 L140.8 110.9 L140.8 111.3 L140.8 112.0 L140.9 112.2 L141.0 112.3 L140.9 112.4 L140.8 112.5 L140.8 112.6 L140.9 112.8 L141.0 113.0 L141.1 113.5 L141.1 113.6 L141.3 114.0 L141.4 114.2 L141.5 114.2 L141.6 114.3 L141.6 114.4 L141.6 114.4 L141.5 114.5 L141.4 114.5 L141.4 114.6 L141.5 114.7 L141.6 114.7 L141.7 114.7 L141.8 114.8 L141.9 114.9 L141.9 115.0 L141.9 115.1 L142.1 115.1 L142.2 115.1 L142.5 114.8 L142.6 114.8 L142.6 114.9 L142.7 114.9 L142.7 115.0 L142.7 115.1 L143.6 115.3 L144.0 115.5 L144.2 115.9 L144.3 116.0 L144.4 116.1 L144.6 116.1 L144.7 116.1 L144.9 116.2 L145.1 116.3 L145.2 116.4 L145.4 116.5 L145.2 116.7 L145.3 116.7 L145.5 116.7 L145.7 116.8 L146.0 117.1 L146.2 117.2 L146.3 117.4 L146.3 118.0 L146.4 118.1 L147.2 118.3 L147.5 118.4 L147.5 118.6 L147.5 119.0 L147.6 119.3 L147.8 119.6 L148.0 119.8 L147.8 120.1 L148.6 120.0 L148.6 119.9 L148.4 119.8 L148.3 119.7 L148.3 119.6 L148.3 119.4 L148.7 119.7 L149.0 120.0 L149.2 120.4 L149.3 121.4 L149.5 121.7 L149.7 121.8 L149.9 122.0 L150.2 122.0 L150.6 121.9 L151.0 121.8 L151.1 121.9 L151.2 122.0 L151.3 122.0 L151.4 121.9 L151.6 121.8 L151.8 121.9 L151.9 121.9 L152.6 122.4 L153.0 122.6 L153.3 122.7 L153.4 122.8 L153.5 122.9 L153.6 123.5 L153.8 123.7 L154.1 123.7 L154.4 123.7 L154.7 123.6 L154.8 123.8 L155.0 123.7 L155.2 123.7 L155.5 123.7 L155.6 123.7 L155.9 123.6 L156.0 123.6 L155.9 123.8 L155.9 124.0 L156.2 125.4 L156.4 125.7 L156.5 126.2 L156.8 126.7 L156.9 127.1 L157.0 127.5 L157.0 127.9 L156.9 128.3 L157.3 129.2 L157.4 129.6 L157.4 129.8 L157.2 130.4 L157.2 130.7 L157.2 131.0 L157.3 131.3 L157.4 131.5 L157.7 131.7 L158.2 131.9 L158.3 132.1 L158.7 132.0 L159.0 132.1 L159.2 132.3 L159.4 132.3 L159.6 132.4 L159.7 132.5 L159.8 132.6 L159.8 132.7 L159.9 132.8 L160.4 133.0 L160.6 133.1 L160.7 133.5 L160.9 133.7 L161.1 133.9 L161.2 134.2 L161.2 135.2 L161.3 136.3 L161.4 136.4 L161.6 136.4 L161.7 136.5 L161.8 136.6 L161.8 136.7 L161.8 136.7 L161.7 136.9 L161.7 137.0 L161.7 137.1 L161.8 137.2 L161.9 137.3 L162.0 137.9 L162.3 138.5 L162.7 139.0 L163.2 139.3 L164.5 139.5 L165.1 139.5 L165.3 139.6 L165.4 139.5 L166.1 139.4 L166.3 139.4 L166.5 139.3 L166.7 139.3 L167.0 139.1 L167.2 139.0 L167.3 138.8 L167.4 138.6 L167.5 138.7 L167.8 138.7 L168.1 138.7 L168.3 138.6 L168.6 138.8 L169.0 138.8 L170.0 138.6 L170.1 138.5 L170.2 138.5 L170.2 138.4 L170.2 138.3 L170.3 138.2 L170.4 138.2 L170.5 138.2 L170.7 137.9 L170.9 137.8 L171.1 137.6 L171.3 138.1 L172.7 138.0 L173.0 138.3 L173.1 138.2 L173.3 138.2 L173.4 138.2 L173.4 138.4 L173.5 138.4 L173.7 138.3 L173.8 138.4 L173.9 138.5 L173.9 138.7 L173.9 138.9 L173.8 139.1 L173.6 139.4 L173.7 139.4 L173.8 139.5 L173.8 139.5 L173.9 139.5 L173.7 139.6 L173.6 139.6 L173.4 139.6 L173.6 139.8 L173.9 139.9 L174.1 139.9 L174.0 140.2 L173.9 140.5 L173.6 140.6 L173.3 140.7 L173.1 140.6 L173.0 140.8 L172.7 141.2 L172.7 141.4 L172.6 141.8 L172.5 142.3 L172.5 142.6 L172.4 142.8 L171.9 143.2 L171.7 143.6 L171.8 144.0 L172.1 144.5 L172.2 144.9 L172.4 145.4 L173.0 145.7 L174.0 145.9 L174.4 146.1 L174.5 146.1 L174.7 146.3 L174.8 146.4 L174.8 146.4 L175.0 146.4 L175.1 146.4 L175.3 146.6 L175.3 146.6 L175.8 146.8 L175.7 147.0 L175.9 147.0 L176.0 147.0 L177.2 147.0 L177.5 147.1 L178.4 147.4 L178.6 147.4 L178.9 147.2 L179.0 147.2 L179.2 147.2 L179.4 147.3 L179.5 147.3 L179.9 147.1 L180.1 147.1 L180.4 147.1 L181.0 147.3 L181.7 147.4 L182.4 147.7 L182.8 147.7 L183.7 147.6 L184.1 147.6 L184.3 147.8 L184.5 148.2 L184.7 148.3 L184.8 148.3 L184.9 148.4 L184.9 148.6 L185.0 148.9 L185.0 148.9 L184.9 148.9 L184.6 149.0 L183.8 149.4 L183.5 149.5 L182.4 149.7 L181.9 149.9 L181.5 149.9 L181.2 149.8 L181.0 150.0 L180.3 150.2 L180.1 150.3 L179.9 150.6 L180.0 150.9 L180.4 151.4 L181.5 152.2 L182.0 152.8 L181.9 153.4 L182.3 153.4 L182.5 153.5 L183.0 154.0 L183.2 154.1 L183.5 154.3 L183.8 154.3 L184.1 154.4 L184.9 154.3 L185.3 154.4 L185.6 154.5 L186.1 154.8 L186.2 154.8 L186.4 154.8 L186.5 154.7 L186.8 154.6 L187.0 154.6 L187.1 154.6 L187.2 154.8 L187.4 155.0 L187.9 155.2 L188.0 155.2 L188.2 155.6 L188.5 155.8 L188.7 155.9 L189.3 156.0 L189.9 156.2 L190.3 156.3 L190.6 156.2 L190.6 156.3 L190.8 156.3 L191.0 156.2 L191.1 156.2 L191.7 156.3 L192.1 156.5 L192.2 156.5 L192.5 156.3 L192.6 156.3 L193.3 156.3 L193.2 156.4 L193.0 156.7 L192.9 156.7 L193.0 156.9 L193.4 157.1 L193.5 157.3 L193.6 157.4 L194.0 157.4 L195.0 157.1 L196.0 157.1 L196.2 157.0 L196.7 156.6 L197.0 156.5 L197.4 156.6 L197.3 156.8 L197.1 157.0 L196.4 157.1 L194.6 158.1 L194.0 158.3 L193.5 158.4 L193.2 158.4 L193.1 158.4 L193.0 158.3 L192.7 158.3 L192.1 158.1 L191.7 158.0 L191.1 158.0 L190.8 157.9 L190.6 157.7 L190.2 157.7 L189.7 158.1 L189.4 158.7 L189.6 159.3 L189.7 159.3 L189.7 159.2 L189.7 159.1 L189.9 159.3 L190.6 159.3 L190.9 159.4 L191.0 159.5 L191.2 159.5 L191.7 159.6 L191.9 159.7 L192.1 159.9 L193.9 160.4 L194.3 160.7 L194.4 161.2 L194.6 161.5 L194.6 161.6 L194.6 161.8 L194.3 161.9 L192.5 162.6 L192.3 162.5 L192.3 162.5 L191.9 162.6 L191.6 162.6 L191.5 162.6 L191.3 162.8 L191.2 162.8 L191.1 163.0 L190.9 163.2 L190.9 163.2 L190.8 163.2 L190.7 163.3 L190.6 163.4 L190.6 163.6 L190.4 163.5 L190.2 163.5 L189.9 163.6 L189.7 163.6 L189.5 163.3 L189.3 163.2 L189.0 163.2 L188.3 163.6 L188.3 163.6 L188.2 163.6 L188.0 163.5 L187.9 163.5 L187.9 163.4 L187.8 163.5 L187.6 163.6 L187.3 163.8 L187.2 163.7 L186.9 163.5 L186.8 163.4 L186.9 163.3 L187.0 163.2 L187.0 163.0 L186.9 162.9 L186.5 163.0 L186.1 163.1 L185.9 163.3 L185.6 163.0 L185.6 162.9 L185.4 162.8 L185.4 162.9 L185.3 162.9 L185.2 162.9 L185.0 162.6 L184.8 162.6 L184.7 162.6 L184.6 162.6 L184.5 162.6 L184.3 162.5 L184.6 162.3 L184.6 162.1 L184.4 162.0 L184.3 161.8 L184.3 161.7 L184.2 161.9 L184.0 162.2 L183.9 162.2 L183.7 162.1 L183.5 162.0 L183.5 161.9 L183.6 161.6 L183.4 161.8 L183.4 161.8 L183.3 161.8 L183.2 161.7 L183.0 161.6 L182.6 161.4 L182.7 161.6 L182.6 161.7 L182.6 161.7 L182.5 161.7 L182.6 161.7 L182.4 161.7 L182.3 161.6 L182.1 161.6 L181.9 161.5 L182.1 161.4 L182.3 161.3 L182.5 161.2 L182.6 160.9 L182.5 160.9 L182.3 161.0 L182.3 160.9 L182.4 160.8 L182.5 160.7 L182.7 160.7 L182.8 160.9 L182.9 160.9 L183.3 160.8 L184.0 161.0 L184.7 160.8 L184.8 160.7 L184.9 160.6 L184.9 160.4 L184.9 160.3 L185.0 160.2 L185.4 160.2 L185.2 160.1 L185.0 160.1 L184.8 160.1 L184.5 160.1 L184.4 160.0 L184.1 159.8 L183.7 159.8 L183.6 159.7 L183.4 159.7 L183.4 159.7 L183.3 159.8 L183.2 159.9 L183.2 160.0 L183.2 160.2 L183.1 160.4 L183.0 160.6 L182.9 160.5 L182.8 160.4 L182.8 160.3 L182.8 160.1 L182.7 160.0 L182.7 160.0 L182.6 159.9 L182.6 159.9 L182.4 159.5 L182.3 159.4 L182.2 159.2 L181.8 159.0 L181.0 158.7 L180.6 158.5 L180.3 158.3 L179.8 158.3 L178.8 158.3 L178.3 158.4 L178.0 158.4 L177.7 158.3 L177.5 158.4 L177.3 158.5 L177.0 158.4 L176.9 158.5 L177.2 158.6 L177.2 158.7 L176.7 158.7 L176.6 158.7 L176.5 158.4 L176.4 158.3 L176.3 158.3 L176.1 158.5 L176.0 158.5 L175.7 158.4 L175.9 158.3 L175.9 158.2 L175.7 158.1 L175.4 158.1 L175.3 157.9 L175.3 157.8 L175.2 157.6 L174.6 157.4 L174.4 157.5 L174.1 157.8 L173.9 157.9 L173.7 157.8 L173.4 157.7 L173.1 157.6 L172.8 157.6 L172.6 157.5 L171.5 157.0 L171.3 156.9 L170.9 156.8 L170.6 156.8 L170.5 156.7 L170.2 156.8 L170.1 156.8 L170.0 156.7 L169.6 156.9 L169.5 156.9 L169.3 157.0 L169.1 157.0 L168.9 157.1 L168.8 157.3 L168.6 157.4 L168.3 157.4 L168.0 157.3 L167.0 156.8 L166.8 156.8 L166.6 156.7 L165.8 156.9 L165.6 156.9 L165.3 156.8 L165.1 156.7 L165.0 156.7 L165.0 156.3 L164.9 156.2 L164.9 156.2 L165.0 156.1 L165.0 156.0 L164.8 156.0 L164.8 156.0 L164.9 155.8 L165.0 155.8 L165.2 155.7 L165.4 155.7 L165.4 155.6 L165.3 155.4 L165.1 155.3 L165.0 155.5 L164.9 155.6 L164.8 155.6 L164.6 155.5 L164.5 155.4 L164.4 155.3 L164.3 154.8 L164.2 154.8 L164.1 155.4 L164.0 155.7 L163.7 155.8 L163.5 156.0 L163.5 156.0 L163.4 156.0 L163.2 155.9 L162.5 155.9 L162.2 155.8 L162.0 155.8 L161.9 155.9 L161.8 156.0 L161.6 156.1 L161.4 156.1 L160.2 156.1 L159.9 156.2 L158.9 155.9 L158.8 155.7 L158.6 155.3 L158.3 155.1 L158.1 155.1 L157.9 155.3 L157.7 155.2 L157.5 155.0 L157.3 154.8 L157.0 154.7 L156.9 154.7 L156.6 154.7 L156.5 154.7 L156.4 154.6 L156.3 154.4 L156.2 154.3 L156.0 154.8 L155.4 155.1 L154.7 155.2 L154.1 155.1 L153.9 155.4 L153.7 155.6 L153.5 155.7 L153.2 155.5 L153.0 155.3 L152.9 154.9 L152.7 154.7 L152.5 154.5 L152.3 154.6 L152.0 154.7 L151.6 154.7 L151.6 154.6 L151.9 154.5 L152.0 154.2 L152.0 154.0 L151.8 153.9 L151.7 153.9 L151.6 154.0 L151.5 154.1 L151.5 154.4 L151.4 154.4 L151.2 154.2 L150.6 154.0 L150.2 154.1 L149.6 154.7 L149.5 154.7 L149.3 153.4 L149.1 153.4 L148.9 153.3 L148.8 153.2 L148.7 153.2 L148.6 153.1 L148.4 153.0 L148.2 153.0 L148.1 153.0 L147.9 152.9 L147.3 152.4 L147.2 152.1 L147.1 151.9 L146.9 151.7 L146.7 151.5 L146.5 151.4 L146.4 151.1 L146.3 150.9 L146.3 150.3 L146.2 149.9 L146.1 149.7 L144.7 147.9 L144.3 147.5 L144.2 147.3 L144.0 147.1 L143.9 146.8 L143.6 146.7 L143.5 146.8 L143.5 146.4 L143.3 146.2 L143.1 146.0 L142.9 145.9 L142.6 145.7 L142.4 145.7 L142.4 145.9 L142.6 146.2 L142.2 146.2 L141.7 146.0 L141.3 145.8 L140.9 145.6 L140.8 145.4 L140.8 144.9 L140.7 144.7 L140.5 144.6 L140.3 144.5 L140.1 144.5 L139.9 144.6 L139.9 144.7 L140.2 144.8 L140.3 144.9 L140.3 145.1 L140.3 145.2 L140.2 145.3 L140.2 145.3 L140.2 145.3 L140.0 145.3 L139.7 145.2 L139.4 145.0 L139.3 144.5 L138.9 144.0 L138.7 143.7 L138.5 142.9 L138.4 142.6 L138.1 142.3 L137.8 142.2 L137.2 142.3 L137.1 142.1 L137.2 142.1 L137.4 142.0 L137.4 141.9 L137.4 141.7 L137.2 141.6 L137.1 141.2 L137.1 140.8 L137.3 140.4 L137.2 140.4 L137.1 140.3 L137.0 140.2 L137.0 140.0 L137.1 140.0 L137.4 139.9 L137.7 139.7 L137.8 139.7 L137.9 139.5 L138.3 139.2 L138.4 139.0 L138.4 138.8 L138.3 138.7 L138.3 138.5 L138.2 138.5 L138.0 138.5 L137.9 138.7 L137.9 138.8 L137.9 138.9 L137.9 139.0 L137.4 139.5 L137.3 139.6 L136.7 139.6 L136.3 139.4 L135.8 139.1 L135.3 138.9 L135.1 138.9 L134.8 138.9 L134.7 138.9 L134.5 138.8 L134.3 138.7 L133.3 138.5 L133.0 138.4 L132.6 138.1 L132.4 137.8 L132.2 137.4 L132.0 137.1 L132.0 136.9 L132.0 136.7 L131.9 136.5 L131.8 136.4 L131.9 136.3 L131.9 136.0 L132.0 135.8 L132.3 135.9 L132.5 135.7 L132.7 135.5 L132.7 135.3 L132.7 135.0 L132.5 135.2 L132.2 135.3 L132.1 135.3 L132.2 135.0 L132.1 135.0 L132.0 134.9 L132.0 134.8 L132.0 134.7 L131.9 134.5 L131.7 134.4 L131.5 134.5 L131.4 134.5 L131.3 134.3 L131.3 134.2 L131.3 134.0 L131.3 133.9 L131.3 133.7 L131.2 133.6 L130.5 132.8 L130.3 132.5 L130.2 132.3 L130.1 132.1 L129.4 131.7 L129.0 131.4 L127.7 129.5 L127.5 129.0 L127.5 128.4 L127.4 128.3 L127.3 128.1 L127.3 128.0 L127.3 127.6 L127.2 127.3 L127.1 127.0 L126.9 126.8 L126.4 126.6 L125.9 126.2 L125.8 126.1 L125.4 126.1 L125.3 125.9 L125.0 125.4 L125.2 125.2 L125.2 125.0 L125.0 124.7 L124.8 124.5 L124.9 124.5 L125.0 124.4 L125.1 124.3 L125.0 124.1 L124.7 124.2 L124.2 124.0 L123.4 123.6 L122.6 123.4 L122.1 123.4 L121.7 123.5 L121.4 123.3 L120.4 123.0 L120.2 122.7 L120.2 122.7 L120.1 122.6 L120.0 122.5 L120.0 122.4 L120.1 122.4 L120.3 122.3 L120.3 122.3 L120.3 122.2 L120.2 122.1 L120.2 122.1 L120.1 122.0 L120.1 121.9 L120.3 121.5 L120.2 121.5 L120.0 121.8 L119.8 121.8 L119.6 121.7 L119.3 121.8 L119.5 122.2 L119.2 122.3 L118.3 122.3 L118.1 122.2 L117.8 121.9 L117.6 121.8 L117.4 121.9 L117.2 121.9 L116.9 121.9 L116.7 121.8 L116.7 122.0 L116.4 121.9 L115.4 122.0 L115.0 122.0 L114.7 122.0 L114.5 121.8 L113.6 121.0 L113.2 120.8 L112.6 120.7 L112.5 120.7 L112.3 120.8 L112.2 120.8 L112.0 120.8 L111.9 120.7 L111.6 120.4 L111.5 120.3 L111.2 120.1 L111.1 119.9 L111.0 120.1 L110.9 120.3 L110.9 120.4 L110.6 120.4 L110.2 120.3 L109.9 120.1 L109.7 119.8 L109.7 119.7 L109.6 119.5 L109.5 119.5 L109.4 119.6 L109.4 119.9 L109.4 120.0 L109.2 120.1 L108.3 120.1 L108.1 120.0 L107.7 119.5 L107.5 119.7 L107.3 119.7 L107.1 119.6 L106.9 119.5 L106.8 119.5 L106.6 119.6 L106.5 119.6 L106.5 119.5 L106.4 119.4 L106.4 119.4 L106.2 119.3 L106.1 119.2 L105.9 119.1 L105.9 119.0 L106.2 118.7 L106.3 118.4 L106.3 116.9 L106.3 116.6 L106.1 116.3 L106.0 116.6 L105.9 117.4 L105.8 117.7 L105.9 117.9 L105.7 118.1 L105.4 118.1 L105.1 118.1 L104.9 118.0 L104.6 117.9 L104.3 117.5 L103.8 117.1 L103.6 116.7 L103.5 116.5 L103.1 116.2 L103.0 116.5 L103.0 116.8 L103.1 117.1 L103.2 117.3 L103.0 117.6 L102.7 117.7 L102.3 117.7 L102.0 117.6 L101.9 117.4 L101.7 117.2 L101.6 116.9 L101.5 116.7 L101.5 116.5 L101.5 116.4 L101.5 116.3 L101.4 116.2 L101.3 116.0 L101.3 115.7 L101.3 115.5 L101.1 115.2 L101.0 115.4 L101.0 116.5 L100.9 117.0 L100.9 117.2 L101.0 117.3 L101.3 117.6 L101.2 117.7 L101.1 117.9 L101.0 117.9 L100.9 117.8 L100.8 117.7 L100.4 117.3 L100.3 117.2 L100.2 117.1 L100.2 116.8 L100.2 116.7 L100.1 116.6 L100.0 116.6 L99.9 116.5 L99.9 116.4 L99.7 116.2 L99.6 115.7 L99.4 115.5 L99.3 115.5 L99.4 115.8 L99.4 116.3 L99.5 116.6 L99.7 117.0 L99.7 117.2 L99.8 117.7 L99.9 118.1 L99.9 118.3 L100.1 118.4 L100.2 118.6 L100.3 118.9 L100.4 119.1 L100.7 119.4 L100.9 119.8 L100.5 119.9 L100.4 119.8 L100.1 119.4 L100.1 119.3 L100.0 119.1 L99.8 118.9 L99.6 118.7 L99.4 118.6 L99.3 119.0 L99.0 119.1 L98.7 119.0 L98.6 118.6 L98.6 118.1 L98.4 117.7 L97.9 117.0 L98.0 117.4 L98.1 117.8 L98.2 118.2 L98.1 118.3 L97.8 118.2 L97.5 117.5 L97.3 117.3 L97.2 117.5 L97.0 117.6 L96.8 117.6 L96.6 117.7 L96.6 117.8 L97.0 117.8 L97.1 118.1 L97.0 118.4 L96.8 118.7 L97.0 118.8 L97.2 119.0 L97.3 119.2 L97.4 119.4 L97.2 119.5 L96.6 119.7 L96.4 119.8 L96.1 119.5 L96.0 119.4 L95.8 119.4 L95.6 119.4 L95.5 119.5 L95.3 119.5 L95.1 119.4 L94.9 119.2 L92.0 118.2 L90.9 117.6 L90.6 117.3 L90.4 117.0 L90.3 116.7 L89.8 115.7 L89.7 115.4 L89.6 115.4 L89.5 115.3 L89.3 115.2 L89.0 115.2 L88.8 115.2 L88.6 115.1 L88.0 114.7 L87.9 114.6 L87.9 114.5 L87.8 114.4 L87.7 114.6 L87.8 114.8 L88.3 115.3 L88.5 115.4 L88.6 115.4 L89.0 115.6 L89.3 115.7 L89.3 115.7 L89.3 115.8 L89.3 115.9 L89.5 116.6 L90.8 118.6 L90.9 118.9 L90.9 119.3 L90.9 119.6 L91.0 120.0 L91.2 120.2 L91.5 120.7 L92.3 121.8 L92.5 122.5 L92.3 122.7 L92.3 122.8 L92.0 122.7 L91.8 122.4 L91.6 122.2 L91.3 122.0 L91.1 121.9 L90.2 121.8 L90.3 121.9 L90.4 122.1 L90.5 122.2 L90.6 122.2 L90.9 122.2 L91.0 122.3 L91.3 122.4 L91.9 123.0 L91.6 123.3 L91.4 123.4 L91.1 123.5 L89.6 123.5 L89.4 123.4 L89.2 123.3 L89.0 123.1 L88.8 123.0 L88.3 122.8 L88.2 122.7 L87.9 122.6 L87.5 122.6 L86.5 122.8 L85.7 122.8 L85.4 122.7 L85.3 122.5 L85.0 122.0 L84.8 121.6 L84.6 121.5 L84.3 121.4 L83.9 121.4 L83.9 121.4 L83.7 121.3 L83.5 121.3 L83.4 121.4 L83.5 121.5 L83.6 121.6 L83.7 121.7 L83.9 121.7 L84.5 121.8 L84.6 121.9 L84.7 122.3 L84.8 122.6 L85.1 122.8 L86.3 123.4 L86.5 123.6 L86.6 124.2 L87.5 125.7 L87.6 126.1 L87.5 126.4 L87.3 126.5 L87.0 126.5 L83.1 126.6 L83.0 126.7 L82.6 126.9 L81.3 127.0 L77.7 128.0 L77.4 128.0 L77.1 127.9 L75.6 127.2 L73.7 126.9 L73.6 126.9 L73.5 126.8 L73.2 127.0 L72.5 127.1 L72.2 127.1 L71.8 127.2 L71.0 127.8 L70.6 127.9 L70.3 127.9 L69.7 127.9 L69.3 127.8 L69.1 127.6 L69.0 127.3 L68.6 125.8 L68.3 125.4 L67.6 125.3 L66.8 125.5 L66.3 125.5 L66.1 125.5 L66.0 125.6 L65.9 125.7 L65.8 125.9 L65.6 125.9 L65.4 125.9 L65.3 126.0 L65.1 126.2 L65.0 126.3 L65.0 126.4 L65.3 126.5 L65.6 126.2 L65.8 126.1 L66.0 126.0 L66.2 126.0 L66.3 125.9 L66.4 125.8 L66.6 125.9 L66.8 125.9 L67.4 125.7 L67.8 125.7 L68.2 125.7 L68.4 126.1 L68.4 126.4 L68.9 127.8 L69.2 128.3 L69.7 128.5 L70.3 128.6 L70.9 128.4 L71.9 127.7 L72.4 127.6 L73.6 127.8 L73.9 127.7 L74.5 127.9 L75.0 128.3 L75.2 128.4 L75.5 128.5 L76.5 129.1 L77.1 129.4 L79.0 129.7 L79.6 130.0 L80.0 130.2 L82.0 131.9 L82.8 132.9 L83.3 133.6 L83.9 134.3 L84.0 134.5 L84.1 134.7 L84.1 136.7 L84.2 137.2 L84.2 137.5 L84.0 137.7 L83.7 138.0 L83.5 138.1 L83.2 138.3 L82.8 138.4 L81.9 138.4 L81.5 138.5 L81.6 138.6 L81.4 138.6 L81.1 138.6 L80.9 138.7 L80.7 138.7 L80.6 138.7 L80.6 138.7 L80.5 138.8 L80.5 138.9 L80.4 139.0 L80.2 139.0 L78.8 139.4 L78.6 139.6 L78.2 139.9 L77.8 140.1 L77.7 140.1 L77.5 140.2 L77.4 140.4 L77.2 140.6 L77.1 140.8 L76.8 140.9 L76.1 141.2 L75.6 141.6 L73.9 142.2 L73.7 142.4 L73.6 142.6 L72.7 143.0 L72.1 143.1 L71.6 142.9 L71.1 142.6 L70.4 142.0 L69.9 141.7 L69.3 141.4 L68.9 141.5 L68.5 141.3 L68.3 141.2 L67.9 141.2 L67.7 141.1 L67.0 140.8 L66.2 140.5 L66.0 140.4 L65.9 140.5 L65.6 140.7 L65.4 140.8 L64.9 140.7 L62.8 140.9 L62.5 141.0 L61.5 141.3 L61.2 141.4 L60.9 141.4 L60.5 141.3 L59.9 141.1 L59.6 141.1 L58.3 141.3 L57.9 141.3 L57.8 141.4 L57.6 141.5 L57.3 141.5 L57.1 141.6 L56.9 141.5 L56.7 141.3 L56.5 141.3 L56.2 141.4 L56.0 141.3 L55.7 141.3 L55.4 141.3 L55.2 141.0 L54.6 140.5 L54.1 140.3 L53.5 140.2 L52.9 140.2 L52.4 140.3 L51.2 141.3 L50.7 141.5 L50.0 141.6 L49.4 141.3 L47.8 139.9 L47.3 139.6 L47.3 137.9 L47.3 135.0 L47.3 132.1 L47.3 129.5 L47.3 125.5 L47.3 122.9 L47.3 122.3 L47.3 119.4 L47.3 116.6 L47.3 112.6 L47.3 112.0 L47.3 110.1 L47.3 107.8 L47.3 106.1 L47.1 106.2 L46.8 106.0 L46.8 105.5 L46.4 105.6 L46.3 105.4 L46.3 105.1 L46.2 104.9 L45.9 104.7 L45.8 104.5 L45.7 104.4 L45.8 104.3 L45.9 104.1 L45.9 104.0 L45.8 103.8 L45.5 103.5 L45.4 103.4 L45.4 103.2 L45.4 103.1 L45.5 102.9 L45.7 102.4 L45.6 102.1 L45.4 102.0 L45.6 101.8 L45.8 101.7 L46.0 101.6 L46.2 101.5 L46.2 101.4 L46.1 101.2 L46.1 101.1 L46.2 101.1 L46.3 101.1 L46.4 101.0 L46.4 100.9 L46.5 100.6 L46.5 100.4 L46.6 100.3 L46.8 100.2 L46.9 100.1 L47.0 99.8 L46.9 99.6 L46.7 99.6 L46.7 99.4 L46.6 99.3 L46.5 99.2 L46.4 99.2 L46.5 99.1 L46.6 99.1 L46.8 99.1 L47.0 99.1 L46.9 98.9 L47.0 98.8 L47.1 98.7 L47.2 98.5 L47.2 98.4 L47.0 98.3 L47.0 98.2 L47.0 98.2 L47.1 98.1 L47.1 97.8 L47.3 97.7 L47.3 97.6 L47.3 96.0 L47.3 92.6 L47.3 89.6 L47.3 86.8 L47.3 82.9 L47.3 82.3 L47.3 80.4 L47.3 77.4 L47.3 77.4 L47.3 77.2 L47.3 74.0 L47.3 71.3 L47.3 64.9 L47.3 62.3 L47.3 59.2 L47.3 55.9 L47.3 50.9 L47.3 47.1 L47.3 44.1 L47.3 41.5 L47.3 41.0 Z M241.2 177.2 L241.2 177.3 L241.3 177.3 L241.4 177.3 L241.5 177.4 L241.4 177.6 L241.3 177.6 L241.2 177.6 L241.2 177.5 L241.0 177.6 L240.9 177.6 L240.8 177.6 L240.7 177.5 L240.6 177.7 L240.4 177.7 L240.2 177.7 L240.0 177.6 L239.9 177.8 L239.9 177.8 L239.8 177.8 L239.6 177.7 L239.0 177.7 L238.9 177.7 L238.8 177.6 L238.7 177.6 L238.7 177.7 L238.5 177.8 L238.5 177.8 L238.3 177.9 L238.2 178.0 L238.0 178.0 L237.9 177.7 L238.1 177.8 L238.2 177.7 L238.3 177.7 L238.2 177.5 L238.2 177.4 L238.1 177.4 L237.9 177.5 L237.8 177.5 L237.6 177.5 L237.6 177.4 L237.5 177.3 L237.5 177.2 L237.3 177.3 L237.2 177.3 L237.0 177.3 L236.9 177.2 L236.9 177.2 L237.0 177.0 L236.9 177.0 L236.8 176.9 L236.8 176.9 L236.8 176.7 L236.6 176.8 L236.5 177.0 L236.4 177.1 L236.2 177.1 L235.6 176.8 L235.4 176.9 L235.3 176.8 L235.2 176.6 L235.2 176.4 L235.3 176.3 L235.5 176.1 L235.5 176.0 L235.4 175.9 L235.3 175.8 L235.2 175.8 L235.2 175.9 L235.1 176.0 L235.0 175.9 L234.9 175.9 L234.8 175.8 L234.6 175.8 L234.4 176.0 L234.0 176.3 L233.9 176.0 L234.5 175.7 L234.5 175.5 L234.4 175.4 L234.0 175.4 L233.9 175.3 L233.7 175.2 L233.6 174.9 L233.4 174.8 L233.3 174.8 L233.2 174.8 L233.1 174.8 L233.0 174.7 L233.1 174.4 L233.1 174.2 L232.9 174.2 L232.8 174.2 L232.7 174.1 L232.6 173.9 L232.5 173.8 L232.5 173.7 L232.6 173.5 L232.7 173.2 L233.5 173.7 L233.8 173.8 L234.1 173.7 L234.2 173.7 L234.3 174.0 L234.5 174.0 L234.6 174.0 L234.8 174.1 L235.2 174.3 L235.3 174.4 L235.7 174.5 L235.8 174.5 L236.3 174.9 L237.2 175.2 L237.9 175.7 L238.1 175.8 L238.4 175.8 L240.2 176.3 L240.3 176.3 L240.4 176.5 L240.5 176.6 L240.6 176.8 L240.9 176.9 L241.0 177.0 L241.2 177.2 Z M202.0 152.5 L202.4 152.2 L203.0 152.0 L203.6 152.1 L203.8 152.7 L203.8 153.0 L203.5 153.7 L203.4 154.3 L202.9 155.2 L202.8 155.3 L202.9 155.5 L202.7 156.0 L202.8 156.2 L202.5 156.0 L202.0 155.6 L201.7 155.4 L200.1 155.0 L199.4 154.9 L199.1 154.9 L198.8 154.9 L198.7 154.8 L198.6 154.6 L198.5 154.1 L198.6 153.7 L198.8 153.6 L198.9 153.5 L199.1 153.3 L199.2 153.1 L199.0 153.0 L198.9 153.0 L198.8 152.8 L198.5 152.5 L198.4 152.5 L198.5 152.9 L198.2 153.1 L197.9 153.2 L197.7 152.9 L197.7 152.7 L197.6 152.7 L197.6 152.7 L197.5 152.6 L197.5 152.5 L197.5 151.7 L197.5 151.6 L197.1 151.2 L197.1 151.1 L197.0 150.9 L196.9 150.8 L196.8 150.7 L196.5 150.6 L196.4 150.5 L196.4 150.4 L196.4 150.3 L196.3 150.3 L196.0 150.2 L196.0 150.2 L195.8 150.1 L195.7 149.9 L195.6 149.7 L195.5 149.4 L195.6 149.2 L195.6 148.9 L195.7 148.7 L196.2 148.9 L196.5 149.1 L196.7 149.4 L196.8 149.7 L196.9 150.1 L197.3 150.3 L197.7 150.4 L198.0 150.6 L199.0 151.7 L199.3 151.9 L199.7 152.0 L200.0 152.2 L200.2 152.5 L199.9 152.4 L199.8 152.6 L199.8 153.0 L200.0 153.1 L200.1 153.2 L200.6 153.6 L200.9 153.7 L201.2 153.8 L201.3 153.8 L201.5 153.7 L201.5 153.6 L201.6 153.4 L201.5 153.3 L201.4 153.2 L201.4 153.1 L201.6 152.9 L202.0 152.5 Z M196.3 147.9 L196.3 148.2 L196.0 148.2 L195.4 147.9 L194.4 148.0 L194.1 148.0 L193.6 147.9 L193.0 147.7 L192.5 147.5 L191.8 147.5 L191.2 147.6 L190.7 147.6 L190.6 147.5 L190.9 147.3 L191.4 146.9 L191.7 146.7 L191.9 146.5 L191.9 146.3 L191.9 146.0 L191.8 145.9 L191.1 145.4 L190.6 144.4 L190.6 143.9 L190.7 143.6 L191.0 143.3 L191.4 143.2 L191.8 143.2 L192.7 143.6 L193.2 143.7 L193.4 143.9 L193.7 144.3 L194.1 144.6 L194.3 144.7 L194.6 144.7 L194.8 144.5 L195.1 144.5 L195.4 144.4 L195.6 144.1 L196.2 144.5 L196.7 144.9 L196.8 145.0 L196.8 145.1 L196.8 145.3 L196.8 145.4 L196.9 145.6 L197.1 145.7 L197.4 145.8 L197.6 145.9 L197.6 145.9 L197.5 146.5 L197.4 146.6 L197.3 146.7 L197.2 146.7 L197.3 146.9 L197.5 147.0 L197.6 147.0 L197.8 147.0 L197.9 147.4 L198.0 147.5 L198.1 147.6 L198.2 147.7 L198.2 147.9 L198.1 148.1 L198.0 148.2 L197.8 148.3 L197.7 148.2 L197.4 148.4 L196.9 148.9 L196.9 148.6 L197.1 148.2 L197.1 148.1 L197.0 147.9 L196.7 147.9 L196.3 147.9 Z M189.7 143.7 L189.7 143.7 L189.9 143.8 L189.9 143.9 L189.8 144.0 L189.8 144.0 L189.7 144.1 L189.6 144.3 L189.4 144.9 L189.2 145.1 L189.2 145.2 L189.3 145.2 L189.6 145.2 L189.6 145.4 L189.6 145.5 L189.5 145.6 L189.2 145.9 L188.9 145.9 L188.4 145.7 L188.1 145.5 L188.0 145.6 L188.0 145.6 L188.0 145.6 L187.9 145.6 L188.0 145.4 L187.9 145.2 L187.9 145.0 L187.7 144.9 L187.5 144.9 L186.9 144.7 L186.7 144.6 L186.6 144.5 L186.6 144.3 L186.5 144.1 L185.9 143.6 L185.8 143.5 L185.8 143.0 L185.8 142.6 L186.0 142.2 L186.3 141.8 L186.6 141.5 L187.0 141.2 L187.4 141.2 L187.7 141.3 L188.6 141.7 L188.9 142.0 L189.2 142.3 L189.5 143.0 L189.5 143.3 L189.7 143.6 L189.7 143.7 Z M229.5 140.2 L229.8 140.3 L229.6 140.5 L229.4 140.6 L229.5 140.7 L229.5 140.8 L229.4 141.0 L229.2 141.0 L229.1 140.9 L229.0 140.8 L228.8 140.7 L228.7 140.8 L228.5 140.9 L228.6 141.1 L228.9 141.3 L229.2 141.5 L229.2 141.8 L229.1 141.9 L229.0 141.9 L228.9 141.7 L228.7 141.5 L228.4 141.5 L228.0 141.8 L227.4 141.9 L227.1 142.0 L227.0 141.9 L226.8 141.9 L226.6 141.7 L226.4 141.4 L226.2 141.3 L226.0 141.1 L225.8 140.9 L225.7 140.8 L225.6 141.0 L225.5 141.1 L225.5 141.4 L225.9 141.4 L225.9 141.7 L225.6 142.0 L225.4 141.5 L225.1 141.4 L224.6 141.3 L224.4 141.1 L224.2 140.8 L224.3 140.6 L224.6 140.8 L225.0 140.9 L224.9 140.6 L225.0 140.5 L225.1 140.4 L225.2 140.4 L225.3 140.4 L225.1 140.2 L225.0 140.1 L224.8 140.1 L224.5 139.9 L224.1 139.6 L223.8 139.3 L223.5 139.1 L223.1 139.2 L223.0 139.1 L222.8 139.0 L222.6 138.8 L222.1 138.6 L221.6 138.7 L221.5 138.6 L222.0 138.4 L222.0 138.3 L222.0 138.0 L221.6 137.7 L221.3 137.5 L220.9 137.8 L220.9 138.0 L220.9 138.3 L220.9 138.9 L220.9 139.1 L220.8 139.3 L220.7 138.5 L220.3 137.9 L220.6 137.6 L221.3 137.2 L221.6 137.3 L222.3 138.0 L223.5 137.9 L224.2 137.9 L224.6 138.0 L225.1 138.1 L225.6 138.0 L225.9 138.0 L226.2 138.0 L226.5 138.1 L226.7 138.2 L226.8 138.4 L227.0 138.5 L227.3 138.9 L227.6 139.1 L228.1 139.2 L228.4 139.1 L228.7 139.3 L228.9 139.5 L228.8 139.8 L229.2 140.0 L229.5 140.2 Z M154.6 86.6 L154.9 87.0 L155.0 87.4 L154.8 88.7 L154.5 89.5 L154.4 89.9 L154.2 89.8 L154.2 89.7 L154.2 89.8 L154.2 90.1 L154.2 90.2 L154.0 90.1 L153.9 90.2 L153.8 90.2 L153.7 90.4 L153.6 90.2 L153.6 89.7 L153.5 89.4 L153.3 89.3 L153.2 89.2 L152.7 89.1 L152.2 89.1 L152.0 89.0 L151.8 88.7 L151.8 88.6 L151.7 88.3 L151.6 88.2 L151.0 87.7 L150.9 87.4 L150.5 86.9 L150.3 86.7 L150.2 86.5 L150.2 86.4 L150.3 86.0 L150.3 85.3 L150.3 85.1 L150.5 84.9 L150.9 84.8 L151.1 84.7 L151.1 84.7 L151.2 84.8 L151.2 84.8 L151.3 84.9 L151.3 84.8 L151.4 84.8 L151.4 84.8 L151.5 84.8 L151.7 84.9 L152.0 85.3 L152.2 85.5 L152.4 85.6 L153.0 85.7 L153.4 85.9 L153.8 86.1 L154.6 86.6 Z M274.1 102.3 L274.2 102.6 L274.5 103.2 L274.6 103.6 L274.5 103.9 L274.3 104.3 L274.0 104.6 L273.8 104.8 L273.9 104.1 L273.9 103.7 L273.8 103.6 L273.7 103.7 L273.2 104.7 L272.9 104.3 L272.3 104.4 L271.7 104.8 L271.4 105.1 L271.0 105.6 L270.8 105.8 L270.5 105.8 L270.3 105.8 L270.1 105.7 L269.9 105.6 L269.2 105.6 L268.5 105.5 L267.9 105.3 L266.7 104.7 L266.1 104.2 L265.9 104.1 L265.7 104.0 L265.4 103.9 L264.9 103.5 L264.8 103.3 L264.6 103.0 L262.8 101.0 L262.6 100.6 L262.8 100.6 L262.9 100.6 L263.1 100.7 L263.3 100.1 L263.5 99.4 L263.5 98.7 L263.5 98.1 L263.2 97.4 L262.7 97.0 L261.2 96.5 L260.6 96.2 L260.3 95.9 L260.0 95.8 L259.8 95.7 L259.7 95.6 L259.6 95.5 L259.5 95.2 L259.3 94.5 L259.1 94.2 L259.0 94.2 L258.9 94.0 L258.2 93.7 L257.8 93.2 L257.4 93.0 L257.2 92.8 L257.0 92.6 L256.9 92.4 L256.8 92.2 L256.2 91.8 L256.1 91.5 L256.1 91.3 L256.0 91.0 L256.0 90.8 L256.1 90.7 L256.2 90.5 L256.2 90.4 L256.1 90.0 L256.0 89.8 L255.6 89.4 L255.5 89.2 L255.4 89.1 L255.4 89.0 L255.4 88.9 L255.7 88.3 L255.9 87.0 L256.0 86.7 L256.0 86.4 L255.8 86.1 L255.8 86.0 L255.8 86.0 L255.9 86.0 L255.9 85.9 L255.9 85.9 L256.2 86.2 L256.3 86.2 L256.4 86.1 L256.5 85.9 L256.4 85.6 L256.3 85.4 L256.2 85.2 L256.0 84.9 L255.4 84.2 L255.4 83.9 L255.9 83.9 L256.5 84.2 L257.1 84.7 L257.4 85.2 L257.6 85.1 L257.9 85.3 L258.1 85.5 L258.3 85.8 L258.4 85.7 L258.5 85.6 L258.6 85.6 L258.8 85.5 L259.0 85.6 L259.2 85.6 L260.2 85.6 L260.4 85.7 L260.3 85.8 L260.3 85.9 L260.4 86.0 L260.5 85.9 L260.6 85.8 L260.7 85.7 L260.9 85.7 L261.0 85.8 L261.0 85.9 L261.0 86.0 L260.9 86.2 L260.9 86.3 L260.9 86.3 L261.2 86.4 L261.3 86.4 L261.4 86.6 L261.4 87.0 L261.8 87.4 L262.2 88.1 L262.4 88.4 L262.5 88.5 L262.6 88.5 L262.7 88.6 L262.8 88.8 L262.8 88.9 L262.8 89.0 L262.8 89.5 L262.9 89.8 L263.0 90.3 L263.2 90.6 L263.4 90.5 L263.6 90.6 L263.9 90.7 L264.2 90.8 L264.9 91.6 L265.0 91.7 L265.0 91.7 L265.1 91.8 L265.2 91.8 L265.4 91.8 L265.5 91.8 L265.5 91.9 L265.7 92.2 L265.9 92.4 L266.1 92.6 L266.2 93.4 L266.3 93.6 L266.8 94.6 L267.6 95.4 L267.6 95.5 L267.8 95.4 L268.0 95.3 L268.1 95.2 L268.3 95.3 L268.4 95.5 L268.6 95.8 L268.9 95.9 L269.3 95.8 L269.3 95.7 L269.4 95.4 L269.6 95.3 L269.6 95.4 L269.6 95.4 L269.6 95.5 L269.6 95.6 L269.7 95.7 L269.7 95.8 L270.0 96.2 L270.2 96.6 L270.3 96.6 L270.5 96.7 L270.6 96.7 L270.8 96.8 L270.9 97.0 L271.1 97.3 L271.2 97.6 L271.4 97.8 L271.7 97.9 L272.0 97.9 L272.3 98.1 L272.5 98.4 L272.8 99.1 L273.2 99.5 L273.5 100.0 L273.8 100.4 L274.0 101.0 L274.0 101.1 L273.9 101.4 L273.9 101.6 L273.9 101.8 L274.1 102.1 L274.1 102.3 Z M141.8 81.5 L141.9 81.8 L142.0 82.2 L142.1 82.5 L142.3 82.7 L142.3 82.8 L142.1 83.0 L142.1 83.3 L142.1 83.6 L142.0 83.8 L141.9 83.9 L141.8 83.9 L141.7 83.8 L141.6 83.8 L141.5 83.9 L141.1 84.1 L140.6 84.1 L140.2 83.8 L139.5 83.1 L139.0 82.7 L138.8 82.5 L138.7 82.2 L138.7 82.0 L138.8 81.4 L138.9 81.1 L139.1 81.0 L139.6 80.8 L139.9 80.6 L140.1 80.5 L140.4 80.3 L140.7 80.3 L141.2 80.9 L141.4 81.0 L141.8 81.2 L141.8 81.3 L141.8 81.5 Z M255.8 80.6 L255.8 81.1 L255.4 82.5 L255.3 83.5 L255.2 83.9 L254.9 84.0 L255.0 83.7 L254.7 83.8 L254.6 84.0 L254.5 84.2 L254.4 84.4 L254.1 83.3 L253.5 81.8 L253.4 81.4 L253.3 81.0 L253.3 80.8 L253.5 80.7 L253.6 80.6 L253.6 80.3 L253.6 79.5 L253.5 79.2 L253.3 79.1 L252.9 79.5 L253.0 79.0 L253.3 78.4 L253.8 77.9 L254.2 77.6 L254.7 77.7 L255.1 78.1 L255.2 78.6 L255.3 79.0 L255.2 79.5 L255.2 79.7 L255.3 80.0 L255.4 80.1 L255.6 80.2 L255.7 80.3 L255.8 80.6 Z M220.8 67.5 L220.7 67.7 L220.0 69.4 L219.9 69.9 L220.1 70.4 L220.5 71.4 L220.7 72.0 L220.7 72.6 L220.4 73.6 L220.3 74.2 L219.3 75.7 L219.2 75.8 L219.1 75.9 L218.9 76.4 L218.8 76.5 L218.5 76.7 L218.2 77.0 L218.0 77.1 L217.3 77.2 L216.8 77.4 L216.5 77.4 L215.8 77.2 L215.5 77.2 L215.2 77.1 L215.0 77.1 L214.9 77.2 L214.7 77.1 L214.3 77.0 L214.1 77.2 L214.0 77.5 L214.0 79.3 L214.1 79.6 L214.3 79.9 L215.0 80.5 L215.1 80.6 L215.2 80.8 L215.2 80.9 L215.4 80.9 L215.7 81.0 L216.3 81.8 L216.4 82.1 L216.7 82.6 L216.7 83.0 L216.3 83.8 L216.2 83.9 L216.1 84.0 L216.0 84.1 L216.0 84.2 L215.9 84.3 L215.8 84.3 L215.6 84.3 L215.5 84.4 L214.8 84.7 L214.7 84.8 L214.0 85.5 L213.9 85.5 L213.4 85.6 L212.9 85.8 L212.7 85.8 L212.5 85.9 L212.2 86.2 L211.9 86.4 L211.5 86.4 L211.2 86.3 L210.8 85.7 L210.5 85.5 L210.2 85.4 L209.8 85.4 L209.5 85.4 L209.2 85.5 L208.8 86.0 L208.7 86.1 L208.5 86.1 L208.4 85.9 L208.4 85.8 L208.4 85.6 L208.1 85.5 L207.1 85.5 L206.6 85.4 L206.3 85.5 L206.1 85.7 L206.0 86.0 L206.1 86.3 L206.3 86.5 L206.3 86.7 L206.4 86.7 L206.8 86.8 L206.9 86.8 L207.3 87.2 L207.4 87.5 L207.1 87.7 L206.7 87.9 L206.3 87.8 L206.1 87.9 L205.8 88.1 L205.6 88.3 L205.5 88.5 L205.5 88.9 L205.4 89.1 L205.3 89.4 L205.1 89.6 L204.7 90.0 L204.5 90.2 L204.0 90.3 L203.8 90.4 L203.6 90.4 L203.4 90.6 L202.9 91.0 L202.6 91.3 L202.5 91.5 L202.5 91.6 L202.5 91.7 L202.1 92.0 L202.0 92.0 L201.9 91.8 L201.0 92.1 L200.6 92.3 L200.4 92.6 L200.2 93.0 L199.7 93.0 L198.9 92.9 L197.8 93.1 L197.6 93.2 L197.5 93.4 L197.2 93.2 L196.7 92.8 L196.6 92.8 L196.5 92.9 L196.4 93.1 L196.4 93.3 L196.5 93.6 L196.4 93.8 L196.3 94.0 L196.2 94.4 L196.0 94.5 L195.8 94.5 L195.2 94.7 L194.7 94.8 L194.6 94.9 L194.4 95.0 L194.3 95.0 L194.2 94.9 L194.1 94.8 L193.9 94.8 L193.6 94.9 L193.3 95.2 L193.1 95.4 L193.1 95.3 L193.1 95.3 L193.1 95.3 L193.0 95.3 L192.5 95.8 L192.2 96.0 L191.9 96.1 L191.7 96.2 L191.3 96.6 L191.2 96.7 L190.5 96.9 L190.1 96.9 L189.9 96.9 L189.7 96.8 L189.5 96.8 L189.4 97.0 L189.2 97.0 L189.2 97.0 L189.2 96.9 L189.1 96.8 L189.0 96.8 L189.0 96.8 L188.9 96.9 L188.3 97.0 L187.9 97.1 L187.6 97.0 L187.5 96.7 L187.4 96.6 L187.0 96.6 L186.9 96.5 L186.8 96.5 L186.6 96.5 L186.4 96.7 L186.0 96.9 L185.7 97.1 L185.4 97.1 L185.4 97.0 L185.4 96.9 L185.4 96.8 L185.3 96.7 L185.3 96.6 L185.2 96.6 L184.9 96.5 L184.8 96.5 L184.7 96.8 L184.7 96.8 L184.5 96.9 L184.7 97.1 L184.7 97.2 L184.5 97.3 L184.3 97.4 L184.4 97.2 L184.3 97.0 L184.2 96.8 L184.0 96.7 L183.8 96.7 L183.5 96.8 L183.2 97.0 L183.0 97.2 L182.8 97.0 L182.6 97.0 L182.5 97.0 L182.3 97.0 L181.9 97.0 L181.8 97.0 L181.4 96.9 L180.0 96.9 L179.9 97.0 L179.6 97.2 L179.4 97.2 L179.1 97.1 L178.8 97.1 L178.6 97.2 L178.5 97.1 L177.9 96.7 L177.8 96.5 L177.7 96.3 L177.5 96.0 L177.2 95.5 L176.4 94.4 L176.0 94.1 L174.6 93.7 L174.3 93.5 L174.1 93.4 L173.8 93.4 L173.6 93.4 L173.2 93.7 L173.0 93.8 L172.9 93.8 L172.6 94.0 L172.3 94.0 L171.8 94.0 L171.7 93.9 L171.5 93.8 L171.4 93.8 L171.5 94.0 L171.4 94.3 L171.3 94.6 L171.1 94.7 L170.9 94.8 L170.3 94.8 L170.2 94.9 L170.0 95.0 L169.8 95.0 L169.8 94.7 L169.9 94.7 L170.1 94.7 L170.2 94.7 L170.1 94.4 L170.2 94.2 L170.1 93.9 L169.8 93.7 L169.5 93.6 L169.6 93.3 L169.8 93.1 L169.9 92.9 L169.8 92.6 L169.7 92.9 L169.5 93.0 L169.4 92.9 L169.2 93.0 L168.0 92.5 L167.4 92.3 L167.0 92.4 L166.9 92.4 L166.8 92.2 L166.8 92.1 L166.9 92.0 L167.0 91.9 L167.2 91.8 L167.1 91.7 L167.0 91.7 L166.9 91.7 L166.8 91.6 L166.7 91.5 L166.7 91.4 L166.7 91.3 L166.5 91.3 L166.0 91.3 L165.8 91.3 L165.6 91.5 L165.5 91.4 L165.6 91.2 L165.6 91.0 L165.5 90.8 L165.5 90.6 L165.4 90.5 L165.1 90.5 L164.9 90.5 L164.8 90.4 L164.7 90.2 L164.5 90.2 L164.1 90.3 L163.8 90.1 L163.4 89.8 L163.2 89.6 L162.9 89.9 L162.7 90.1 L162.5 90.2 L162.2 90.1 L161.7 89.7 L161.5 89.5 L161.1 89.5 L160.4 89.4 L160.2 89.3 L160.0 89.2 L159.8 89.2 L159.7 89.1 L159.6 89.0 L159.1 88.4 L158.8 87.8 L158.7 87.2 L159.0 85.5 L159.3 84.9 L159.7 84.5 L160.2 84.2 L160.3 84.2 L160.3 84.2 L160.3 84.2 L160.3 84.1 L160.6 84.2 L160.7 84.3 L161.1 84.6 L161.2 84.7 L161.5 84.7 L161.6 84.8 L161.7 84.9 L161.8 85.2 L161.8 85.3 L162.2 85.6 L162.7 85.5 L163.1 85.2 L163.5 84.8 L163.7 84.7 L163.9 84.7 L164.4 84.9 L164.9 84.8 L165.1 84.9 L165.2 85.0 L165.4 85.1 L165.6 85.3 L165.8 85.4 L166.4 85.5 L166.7 85.6 L166.7 85.4 L166.8 85.3 L167.1 85.2 L167.3 85.0 L167.4 85.0 L167.6 85.0 L167.8 84.9 L168.6 84.4 L169.8 85.0 L170.0 85.1 L170.3 85.2 L171.4 85.7 L171.6 85.8 L171.7 85.8 L171.8 85.8 L171.9 85.9 L172.0 86.0 L172.2 86.2 L172.2 86.2 L172.3 86.4 L172.4 86.5 L174.3 86.3 L174.7 86.1 L174.9 86.3 L175.1 86.2 L175.3 86.1 L175.5 85.9 L175.6 86.1 L175.8 86.2 L175.9 86.2 L176.0 86.0 L176.4 86.3 L176.5 86.3 L176.7 86.2 L176.8 85.8 L177.0 85.7 L177.3 85.6 L178.3 85.2 L178.3 85.3 L178.4 85.3 L178.4 85.3 L178.5 85.4 L178.6 85.3 L178.7 85.2 L178.9 85.2 L179.0 85.3 L179.2 85.1 L179.2 85.0 L179.2 84.8 L179.1 84.7 L179.2 84.6 L179.2 84.7 L179.2 84.7 L179.2 84.8 L179.4 84.8 L179.5 85.0 L179.5 85.3 L179.3 85.8 L179.5 85.9 L179.7 86.0 L179.9 86.0 L180.1 85.9 L180.2 85.8 L180.4 85.7 L180.6 85.7 L180.8 85.6 L180.9 85.5 L181.0 85.3 L181.0 85.1 L181.1 85.1 L181.6 85.4 L182.2 85.4 L182.8 85.2 L183.3 84.9 L183.4 84.7 L183.8 84.0 L183.9 83.8 L183.9 83.6 L183.7 83.5 L183.5 83.5 L183.4 83.4 L183.3 83.3 L183.0 82.9 L182.9 82.7 L183.0 82.5 L183.1 82.2 L183.2 82.1 L183.3 82.0 L183.4 81.8 L183.5 81.7 L183.8 81.5 L184.1 81.4 L184.3 81.1 L184.5 80.8 L184.5 80.6 L184.5 80.5 L184.4 80.2 L184.4 80.2 L184.2 80.1 L184.2 80.0 L184.3 79.8 L184.3 79.5 L184.5 79.3 L184.5 79.1 L184.5 79.0 L184.3 78.9 L184.3 78.8 L184.3 78.7 L184.4 78.6 L184.4 78.6 L184.7 77.9 L185.2 77.6 L185.8 77.5 L186.5 77.7 L186.8 77.9 L187.0 78.0 L187.1 78.1 L187.2 78.3 L187.2 78.5 L187.1 78.6 L187.0 78.7 L186.9 78.9 L186.6 79.1 L185.9 79.3 L185.6 79.5 L185.3 79.8 L185.1 80.1 L185.3 80.4 L185.4 80.8 L185.4 81.2 L185.4 81.4 L185.3 81.5 L185.0 81.6 L184.8 81.6 L184.7 81.8 L184.6 81.9 L184.9 82.1 L185.0 82.2 L185.0 82.6 L185.4 83.2 L185.8 84.1 L185.9 84.3 L185.9 84.6 L186.0 84.9 L186.1 85.2 L186.3 85.5 L186.6 85.7 L186.9 85.8 L187.9 85.8 L188.2 85.9 L188.5 86.0 L188.8 85.9 L188.9 85.7 L189.0 85.5 L189.2 85.3 L189.4 85.2 L189.6 85.1 L190.0 84.7 L190.2 84.7 L190.4 84.4 L190.4 84.4 L190.5 84.3 L191.3 84.2 L191.6 84.2 L191.9 84.2 L192.8 84.6 L193.1 84.8 L193.3 85.0 L193.3 85.3 L193.5 85.6 L193.7 85.8 L194.0 85.7 L194.3 85.6 L194.8 85.6 L195.0 85.5 L195.4 85.2 L195.6 84.9 L195.8 84.7 L195.7 84.5 L195.7 84.3 L195.8 84.3 L196.0 84.4 L196.4 84.1 L196.8 84.3 L197.2 84.6 L197.4 84.9 L197.9 84.8 L198.0 84.8 L198.1 84.7 L198.4 84.4 L198.7 84.3 L199.0 84.1 L199.3 83.8 L199.5 83.6 L199.6 83.3 L199.7 83.0 L199.6 82.3 L199.6 82.0 L199.8 81.3 L200.2 80.4 L200.5 79.9 L200.9 79.4 L201.4 79.0 L201.5 79.0 L201.7 78.9 L201.8 78.8 L202.1 78.5 L202.3 78.3 L202.7 77.7 L202.9 77.5 L203.0 77.5 L203.1 77.5 L203.1 77.5 L203.1 77.4 L203.1 77.3 L203.1 77.3 L203.3 77.2 L203.7 77.1 L203.8 77.0 L203.9 76.9 L204.1 76.8 L204.3 76.7 L204.5 76.7 L204.7 76.6 L204.8 76.4 L204.9 75.9 L205.0 75.9 L205.2 76.1 L206.1 76.4 L206.5 76.5 L206.8 76.5 L207.0 76.4 L207.4 76.1 L208.0 76.4 L208.6 76.9 L208.9 76.8 L209.1 76.6 L209.3 76.4 L209.6 75.9 L209.7 75.6 L209.8 75.3 L209.8 74.9 L209.8 74.9 L209.8 74.9 L209.9 74.8 L209.9 74.7 L209.8 74.6 L209.8 74.6 L209.7 74.6 L209.7 74.5 L209.6 74.4 L209.4 74.0 L209.4 73.8 L209.3 73.3 L209.4 72.0 L209.3 71.4 L208.9 71.0 L208.8 70.7 L208.7 70.4 L208.7 69.7 L208.7 69.4 L208.5 69.1 L208.3 68.8 L207.9 68.5 L207.7 68.2 L207.6 68.1 L207.6 68.0 L207.6 67.7 L207.5 67.5 L207.3 67.2 L207.2 67.1 L207.2 66.9 L207.2 66.8 L207.2 66.7 L207.3 66.6 L207.3 66.5 L207.1 66.1 L207.0 65.7 L207.0 65.5 L207.2 65.2 L207.5 64.9 L207.7 65.0 L208.5 65.1 L209.1 65.1 L209.4 65.2 L209.6 65.3 L209.8 65.3 L210.0 65.3 L210.2 65.2 L210.3 65.3 L210.3 65.5 L210.5 65.4 L210.9 65.4 L211.5 65.4 L211.7 65.5 L212.2 65.7 L212.4 65.8 L212.5 66.1 L212.5 66.5 L212.7 66.9 L212.9 67.0 L213.3 67.1 L213.9 67.3 L214.2 67.2 L214.4 67.1 L214.9 66.4 L215.0 66.1 L214.8 65.9 L214.6 65.6 L214.4 65.4 L214.6 65.1 L214.8 65.2 L215.1 65.3 L215.4 65.4 L215.6 65.4 L215.7 65.4 L215.8 65.3 L215.9 65.3 L216.0 65.2 L216.4 65.3 L216.5 65.3 L216.7 65.1 L216.8 64.8 L216.9 64.5 L217.3 64.4 L217.5 64.7 L217.8 64.9 L218.0 65.1 L218.2 65.8 L218.1 65.9 L217.9 66.0 L217.8 66.0 L217.6 65.9 L217.5 65.8 L217.4 65.7 L217.4 65.6 L217.3 65.4 L217.1 65.4 L217.1 65.6 L217.1 65.8 L217.1 66.2 L217.1 66.7 L217.3 66.9 L217.6 67.0 L217.6 67.0 L217.7 66.9 L217.9 66.8 L218.1 66.9 L218.2 67.0 L218.3 67.1 L218.4 67.3 L218.6 67.3 L219.6 67.4 L219.9 67.4 L220.5 67.2 L220.7 67.2 L220.8 67.5 Z M231.7 66.3 L231.6 67.2 L231.5 67.5 L231.7 67.9 L231.3 68.4 L230.4 69.1 L230.2 69.6 L230.3 69.9 L230.4 70.1 L230.6 70.2 L230.8 70.4 L230.8 70.6 L230.8 70.9 L230.8 71.1 L230.8 71.4 L230.6 71.5 L230.3 71.7 L230.1 71.9 L230.2 72.3 L230.1 72.4 L230.1 72.5 L229.8 72.7 L229.7 72.8 L229.6 73.0 L229.4 73.5 L229.3 73.7 L229.2 73.9 L229.0 74.0 L228.9 74.1 L228.8 74.4 L228.5 74.3 L228.3 74.5 L228.2 74.8 L228.1 75.1 L227.9 74.6 L227.7 74.2 L227.3 73.8 L226.8 73.5 L226.9 73.2 L226.4 72.8 L225.9 72.4 L225.6 72.1 L225.5 71.8 L225.5 71.0 L225.4 70.9 L225.1 70.7 L224.9 70.6 L224.9 70.5 L224.8 69.8 L224.6 69.3 L224.6 69.1 L224.9 68.4 L224.9 68.3 L225.1 66.6 L224.9 66.3 L225.0 66.1 L225.0 65.9 L225.0 65.7 L224.8 65.5 L225.0 65.3 L225.0 65.0 L224.9 64.7 L224.5 64.2 L223.7 62.7 L223.6 62.3 L223.5 62.0 L223.3 61.6 L223.0 61.3 L222.8 61.1 L222.8 60.8 L222.7 60.7 L222.5 60.6 L222.4 60.5 L222.4 60.3 L222.4 60.2 L222.3 60.0 L222.2 59.9 L222.1 59.9 L221.8 59.9 L221.7 59.8 L221.6 59.7 L221.5 59.4 L221.2 59.2 L219.9 57.6 L219.9 57.4 L219.9 57.1 L219.9 57.0 L219.8 56.9 L219.5 56.7 L219.2 56.3 L219.0 56.1 L218.8 55.7 L218.6 55.6 L218.3 55.5 L218.1 55.5 L218.0 55.4 L217.9 55.1 L217.9 55.0 L217.7 54.9 L217.4 54.8 L217.0 54.5 L216.8 54.5 L216.5 54.5 L214.2 54.0 L213.6 53.8 L211.6 52.5 L208.6 49.6 L208.3 49.4 L207.4 49.2 L206.5 48.9 L206.3 48.8 L206.3 48.7 L206.2 48.6 L206.2 48.5 L206.1 48.2 L206.0 48.1 L205.8 47.9 L204.8 47.3 L204.5 47.1 L204.4 47.0 L203.7 46.8 L203.4 46.4 L203.2 46.3 L203.0 46.2 L202.7 46.2 L202.5 46.1 L202.4 45.9 L202.0 45.5 L201.7 45.5 L201.6 45.5 L201.6 45.4 L201.6 45.3 L201.6 45.3 L201.3 45.1 L201.1 45.0 L201.1 44.9 L201.1 44.8 L201.1 44.8 L200.8 44.7 L200.8 44.6 L200.7 44.5 L200.5 44.5 L200.0 44.4 L199.9 44.3 L199.7 44.1 L199.5 44.0 L199.4 43.9 L199.3 43.8 L199.1 43.8 L198.7 43.7 L198.3 43.5 L198.0 43.5 L196.8 43.7 L196.2 43.7 L195.6 43.6 L195.3 43.2 L195.3 43.0 L195.5 42.8 L195.7 42.7 L195.9 42.8 L196.2 43.0 L196.5 42.8 L197.1 42.5 L197.4 42.7 L197.7 42.5 L197.7 42.1 L197.3 42.1 L197.5 41.8 L197.5 41.7 L197.3 41.6 L197.1 41.5 L196.9 41.5 L196.7 41.5 L196.2 41.2 L196.5 40.6 L196.4 40.6 L196.4 40.4 L196.5 40.3 L196.8 40.5 L196.9 40.7 L197.0 40.8 L197.1 41.0 L197.6 41.3 L197.7 41.3 L197.8 41.5 L198.0 41.6 L198.3 41.8 L198.7 42.2 L198.9 42.4 L199.0 42.4 L199.6 42.5 L199.8 42.6 L199.9 42.6 L200.0 42.7 L200.0 42.8 L200.1 43.1 L200.2 43.2 L200.4 43.3 L200.6 43.3 L200.8 43.3 L200.9 43.4 L201.9 43.8 L202.2 44.1 L202.3 44.7 L202.6 45.1 L203.2 45.2 L204.3 45.2 L204.5 45.2 L204.6 45.3 L204.6 45.4 L204.7 45.5 L204.9 45.6 L205.0 45.6 L205.2 45.5 L205.3 45.5 L205.6 45.6 L205.9 45.7 L206.2 45.9 L206.4 46.1 L206.9 46.7 L207.0 46.7 L207.3 46.7 L207.5 46.7 L208.4 47.4 L208.5 47.4 L209.7 48.1 L210.0 48.4 L210.1 48.7 L210.4 49.0 L210.7 49.2 L211.1 49.1 L211.2 49.5 L211.4 49.8 L211.6 49.9 L211.8 50.0 L212.4 49.9 L212.6 50.0 L212.9 50.1 L213.1 50.2 L213.3 50.1 L213.5 50.2 L213.7 50.4 L214.0 50.6 L214.0 50.6 L214.5 50.6 L214.7 50.6 L214.9 50.8 L215.0 50.8 L215.1 50.8 L215.2 50.8 L215.3 50.8 L215.2 50.9 L215.3 51.0 L215.3 51.1 L215.3 51.2 L215.3 51.3 L215.3 51.3 L215.4 51.4 L215.5 51.4 L215.6 51.5 L216.1 52.1 L216.9 53.2 L217.3 53.6 L217.7 54.0 L218.3 54.3 L219.4 54.8 L219.6 55.1 L219.9 55.2 L220.0 55.3 L220.1 55.9 L220.1 55.9 L220.2 56.0 L220.3 56.0 L220.4 56.1 L220.5 56.3 L220.6 56.5 L220.8 56.8 L220.9 57.0 L221.2 57.2 L221.5 57.2 L221.8 57.0 L221.9 56.8 L222.1 57.0 L222.3 57.3 L222.5 57.6 L222.5 57.9 L222.6 58.1 L222.9 58.4 L223.0 58.5 L222.9 58.7 L222.9 58.9 L222.8 59.0 L222.9 59.2 L223.0 59.3 L223.2 59.5 L223.2 59.5 L223.3 59.6 L223.5 59.6 L223.8 59.6 L224.2 59.7 L224.5 59.9 L224.7 60.1 L225.0 60.3 L225.3 60.5 L225.6 60.6 L225.9 60.7 L226.2 60.7 L226.6 60.5 L226.8 60.3 L226.9 60.3 L227.1 60.7 L227.2 60.8 L227.2 61.1 L227.2 61.3 L227.3 61.4 L227.5 61.7 L227.5 61.9 L227.7 62.1 L228.0 62.2 L228.3 62.2 L228.6 62.2 L228.6 62.2 L228.8 62.0 L228.9 62.2 L229.0 62.4 L229.0 62.6 L229.0 62.8 L229.1 63.1 L229.6 63.5 L229.8 63.7 L230.2 64.5 L230.5 64.8 L230.6 65.1 L230.6 65.2 L230.9 65.3 L231.2 65.6 L231.6 66.0 L231.7 66.3 Z M191.2 40.0 L191.3 40.2 L191.2 40.4 L191.0 40.6 L191.0 40.9 L191.0 41.1 L191.0 41.3 L191.1 41.5 L191.2 41.6 L191.1 41.8 L191.0 41.9 L190.6 42.0 L190.1 42.2 L189.9 42.2 L189.8 42.3 L189.7 42.2 L189.6 42.1 L189.5 41.9 L189.3 42.0 L189.0 42.1 L188.9 42.3 L188.8 42.2 L188.7 42.1 L188.6 42.1 L188.3 42.1 L187.2 42.2 L187.1 42.2 L187.0 42.2 L186.8 42.2 L186.7 42.1 L186.2 41.5 L185.9 41.4 L185.7 41.2 L185.5 40.5 L184.8 39.7 L184.6 39.6 L184.3 39.7 L183.8 39.5 L183.5 39.2 L183.5 38.9 L183.6 38.9 L183.7 38.9 L183.8 39.0 L183.9 39.0 L184.0 39.0 L185.2 38.2 L185.4 38.2 L185.6 38.2 L185.8 38.2 L185.9 38.1 L186.5 37.8 L186.6 37.8 L186.8 37.8 L187.1 37.6 L187.3 37.6 L187.6 37.7 L188.4 38.2 L188.8 38.2 L188.9 38.3 L189.3 38.5 L189.5 38.5 L189.5 38.5 L189.7 38.7 L189.7 38.7 L190.1 38.8 L190.6 39.0 L190.9 39.3 L191.1 39.6 L191.0 40.1 L191.1 40.0 L191.2 40.0 Z M145.2 31.7 L145.4 31.8 L145.4 32.0 L145.4 32.4 L145.2 32.8 L144.7 32.9 L144.2 32.9 L143.7 32.9 L143.8 32.8 L143.9 32.6 L143.6 32.6 L143.4 32.7 L143.4 32.9 L143.3 33.1 L143.2 33.1 L143.1 32.9 L142.9 33.1 L142.8 33.5 L142.8 33.8 L142.6 33.9 L142.2 34.5 L141.9 34.7 L141.8 34.7 L141.6 34.7 L141.5 34.7 L141.3 34.7 L140.8 34.4 L140.6 34.4 L140.3 34.4 L139.7 34.8 L139.3 34.8 L139.3 34.7 L139.4 34.7 L139.4 34.6 L139.0 34.7 L138.5 34.8 L138.0 34.9 L136.2 34.6 L136.2 34.5 L136.0 34.4 L136.0 34.4 L135.9 34.4 L135.7 34.5 L135.7 34.5 L135.6 34.4 L135.5 34.3 L135.4 34.2 L135.2 34.2 L135.2 34.1 L135.0 33.9 L135.0 33.8 L134.9 33.8 L134.8 33.8 L134.5 33.8 L134.1 33.6 L134.0 33.7 L134.0 33.8 L134.0 33.9 L134.1 34.0 L134.2 34.1 L134.4 34.2 L134.5 34.4 L134.5 34.6 L134.3 34.7 L133.7 34.8 L133.5 34.7 L133.3 34.5 L133.0 34.6 L132.8 34.7 L132.6 34.8 L132.4 35.3 L132.2 35.4 L131.9 35.2 L131.6 35.0 L131.6 34.8 L131.4 34.2 L131.4 34.0 L131.6 33.7 L131.8 33.6 L132.0 33.7 L132.2 33.7 L132.7 33.6 L132.8 33.6 L132.8 33.5 L132.9 33.3 L132.9 33.2 L132.8 33.0 L132.4 32.5 L132.3 32.4 L132.3 32.2 L132.3 32.0 L132.3 31.8 L132.4 31.8 L132.6 31.9 L132.6 31.9 L132.7 32.0 L132.8 32.1 L133.0 32.1 L133.0 32.0 L133.2 31.5 L133.3 31.5 L133.3 31.4 L133.3 31.4 L133.4 31.4 L133.5 31.4 L133.6 31.4 L133.7 31.5 L133.8 31.6 L133.9 31.5 L134.2 31.5 L134.3 31.5 L134.5 31.5 L134.9 31.6 L135.1 31.7 L135.3 31.6 L135.9 31.3 L136.3 31.1 L136.7 31.1 L137.0 31.2 L137.4 31.4 L137.7 31.2 L140.3 31.4 L140.5 31.4 L140.6 31.6 L140.8 31.8 L140.9 32.0 L141.0 32.0 L141.1 31.7 L141.2 31.6 L141.4 31.6 L141.5 31.7 L141.6 31.9 L141.8 31.9 L142.2 31.9 L142.9 32.1 L143.0 32.1 L143.1 32.2 L143.7 32.4 L143.9 32.3 L144.3 32.3 L144.7 32.4 L145.0 32.6 L145.1 32.6 L145.1 32.2 L145.0 32.1 L144.9 31.8 L144.8 31.7 L144.7 31.6 L144.5 31.4 L144.4 31.3 L144.6 31.3 L144.8 31.3 L145.0 31.6 L145.2 31.7 Z M180.1 23.9 L180.2 24.0 L180.4 24.5 L180.5 24.8 L180.9 25.2 L181.0 25.5 L180.7 25.6 L180.4 25.7 L180.2 25.8 L180.0 25.7 L180.0 25.6 L180.0 25.6 L179.9 25.4 L179.6 25.2 L179.5 25.2 L179.3 25.1 L179.3 25.6 L179.1 25.5 L178.6 25.0 L178.4 25.0 L178.3 24.9 L177.9 24.6 L177.9 24.4 L177.8 24.3 L177.7 24.3 L177.5 24.3 L177.5 24.3 L177.3 24.1 L177.2 23.8 L177.2 23.2 L177.6 22.2 L177.8 22.0 L177.9 22.1 L178.0 22.1 L178.3 22.1 L178.5 22.2 L178.8 22.5 L179.7 23.0 L180.0 23.3 L180.0 23.4 L180.0 23.6 L180.0 23.8 L180.1 23.9 Z" fill="#172033" fill-rule="evenodd"/></svg>
