<svg xmlns="http://www.w3.org/2000/svg" viewBox="0 0 320 200" role="img"><path d="M203.5 157.4 L203.6 157.5 L203.5 157.6 L203.4 157.7 L203.4 157.9 L203.3 157.9 L203.1 157.7 L203.0 157.5 L202.9 157.0 L202.8 156.7 L202.8 156.6 L202.7 156.2 L202.7 156.2 L202.6 156.2 L202.4 156.1 L202.3 156.1 L202.3 156.0 L202.2 155.9 L202.2 155.8 L202.3 155.7 L202.3 155.6 L202.4 155.5 L202.5 155.4 L202.6 154.9 L202.6 154.7 L202.7 154.7 L202.8 154.7 L202.9 154.8 L202.9 154.9 L203.1 155.0 L203.3 155.2 L203.4 155.3 L203.5 155.6 L203.4 157.0 L203.4 157.2 L203.5 157.4 Z M172.9 152.6 L172.7 152.6 L172.6 152.6 L172.7 152.7 L172.7 152.8 L172.7 152.9 L172.6 153.0 L172.5 153.0 L172.4 153.0 L172.4 153.0 L172.0 153.2 L171.9 153.3 L171.8 153.3 L171.7 153.4 L171.6 153.4 L171.6 153.4 L171.5 153.6 L171.5 153.6 L171.3 153.6 L171.2 153.6 L171.1 153.5 L171.0 153.3 L171.0 153.0 L171.0 152.6 L171.1 152.3 L171.3 152.1 L171.5 152.2 L171.6 152.4 L171.7 152.5 L171.9 152.5 L172.0 152.4 L172.0 152.2 L172.0 152.1 L172.2 152.0 L172.4 152.1 L172.6 152.3 L172.8 152.5 L172.9 152.6 Z M205.7 127.6 L205.8 127.7 L205.8 127.9 L205.6 128.3 L205.6 128.5 L205.6 128.7 L205.6 128.8 L205.5 128.9 L205.3 128.9 L205.2 128.9 L205.3 128.7 L205.2 128.7 L205.1 128.6 L205.0 128.7 L205.0 128.6 L205.1 128.6 L205.1 128.6 L205.1 128.5 L204.9 128.3 L204.9 128.4 L204.9 128.3 L204.9 128.2 L205.0 128.0 L205.0 127.9 L205.1 127.9 L205.1 127.8 L205.1 127.7 L205.1 127.7 L205.1 127.5 L205.1 127.5 L205.0 127.3 L205.0 127.0 L205.1 126.8 L205.3 126.7 L205.3 126.8 L205.4 126.8 L205.4 126.9 L205.5 126.9 L205.5 126.9 L205.5 127.0 L205.5 127.3 L205.5 127.5 L205.7 127.6 Z M212.0 153.5 L212.1 153.6 L212.4 153.8 L212.5 153.8 L212.4 154.0 L212.2 154.3 L212.1 154.5 L212.1 154.6 L212.0 154.6 L211.9 154.7 L211.8 154.7 L211.8 154.8 L211.5 155.4 L211.5 155.5 L211.1 155.8 L211.0 156.1 L210.9 156.4 L210.9 156.8 L210.7 157.0 L210.3 157.0 L209.9 156.9 L209.6 156.8 L209.3 157.0 L209.2 157.4 L209.1 157.7 L209.1 158.0 L209.1 158.1 L209.4 158.3 L209.5 158.4 L209.6 158.6 L209.6 158.8 L209.6 159.0 L209.5 159.1 L209.1 159.0 L209.0 158.7 L208.7 158.0 L208.4 157.7 L208.1 157.5 L207.9 157.6 L207.9 158.1 L207.8 158.1 L207.8 158.0 L207.7 157.8 L207.6 158.1 L207.7 158.3 L207.9 158.5 L208.1 158.9 L208.2 159.1 L208.4 159.2 L208.6 159.3 L208.6 159.6 L208.4 160.0 L208.3 161.0 L208.3 162.6 L208.1 163.4 L208.0 164.4 L208.0 164.6 L207.8 164.5 L207.8 164.4 L207.7 163.8 L207.7 163.7 L207.3 163.5 L207.3 163.4 L207.3 163.2 L207.3 163.1 L207.3 163.0 L207.0 162.5 L206.9 162.3 L206.8 162.1 L206.7 160.7 L206.7 160.5 L206.8 159.8 L206.8 159.5 L206.7 159.2 L206.7 158.9 L206.7 158.6 L206.7 158.5 L206.5 158.4 L206.2 158.4 L206.0 158.2 L205.6 157.7 L205.5 157.5 L205.6 156.9 L205.6 156.7 L205.5 156.5 L204.9 155.9 L204.7 155.7 L204.7 155.5 L204.6 155.1 L204.2 154.0 L204.2 153.6 L204.2 153.4 L204.2 153.1 L204.1 153.0 L204.0 152.9 L203.9 152.9 L203.7 153.0 L203.0 153.4 L202.4 153.8 L202.3 153.9 L202.3 153.9 L202.2 154.0 L202.1 154.2 L202.0 154.5 L202.1 155.2 L202.1 155.4 L202.0 155.5 L201.9 155.6 L201.9 155.7 L201.9 155.8 L201.5 156.2 L201.2 156.4 L200.8 156.5 L200.5 156.6 L200.2 157.0 L200.2 157.5 L200.1 157.7 L200.0 157.8 L199.5 158.4 L199.3 158.8 L199.2 159.3 L199.1 159.8 L199.0 160.3 L199.1 160.5 L199.2 160.9 L199.2 161.2 L199.3 161.3 L199.5 161.3 L199.6 161.3 L199.6 161.0 L200.0 161.2 L200.4 161.8 L200.7 162.1 L200.9 162.0 L201.2 162.0 L201.3 162.2 L201.4 162.4 L201.4 162.9 L201.5 163.0 L201.8 163.7 L201.9 163.8 L201.9 163.9 L201.9 164.0 L201.9 164.3 L201.9 164.4 L202.0 164.5 L202.1 164.6 L202.6 166.0 L202.6 166.2 L202.6 166.5 L202.6 166.7 L202.5 166.9 L202.5 167.0 L202.5 167.2 L202.5 167.3 L202.4 167.4 L202.4 167.7 L202.2 168.2 L201.4 169.2 L200.3 170.6 L199.7 171.8 L199.5 172.0 L199.3 172.2 L199.1 172.3 L199.0 172.3 L198.4 172.3 L198.3 172.2 L198.2 172.1 L198.2 171.2 L198.1 171.0 L198.1 170.9 L198.0 170.7 L197.8 170.7 L197.6 170.7 L197.5 170.6 L197.4 170.5 L197.4 170.4 L197.4 170.3 L197.3 170.2 L197.2 170.1 L197.1 170.1 L197.0 170.1 L196.9 169.9 L196.9 169.7 L197.0 169.5 L197.1 169.3 L197.1 169.2 L197.2 169.0 L197.4 168.7 L197.8 168.2 L197.9 167.9 L198.0 167.5 L197.9 167.3 L197.8 166.9 L197.8 166.7 L197.7 166.7 L197.5 166.6 L197.4 166.6 L197.0 166.6 L196.9 166.5 L196.8 166.4 L196.6 166.5 L196.6 166.6 L196.6 166.9 L196.6 167.0 L196.5 167.1 L196.1 168.2 L195.9 168.9 L195.7 169.2 L195.5 169.2 L194.9 169.1 L194.5 169.2 L194.3 169.1 L193.2 168.6 L192.9 168.5 L192.4 168.3 L192.3 168.3 L192.1 168.3 L192.0 168.3 L191.8 168.2 L191.0 167.8 L191.0 167.9 L190.6 167.7 L190.5 167.7 L190.5 167.6 L190.5 167.5 L190.4 167.4 L190.4 167.4 L190.2 167.3 L188.6 166.5 L188.1 166.2 L186.7 165.6 L186.5 165.5 L186.2 165.3 L186.1 165.0 L186.0 164.6 L185.8 164.5 L185.1 163.7 L184.8 163.3 L184.7 162.9 L184.5 162.4 L184.5 162.1 L184.4 161.9 L184.4 161.8 L184.5 161.7 L184.6 161.7 L184.7 161.7 L184.7 161.6 L184.7 160.6 L184.6 160.4 L184.4 159.7 L184.5 159.4 L184.5 159.2 L184.5 159.0 L184.2 158.9 L184.2 158.9 L184.1 159.1 L184.0 159.1 L184.0 159.1 L184.0 159.1 L183.9 159.0 L183.9 159.0 L183.8 158.9 L183.7 158.8 L183.7 158.7 L183.7 158.6 L183.7 158.4 L183.8 158.3 L183.8 157.2 L183.9 156.6 L184.4 155.5 L184.6 155.3 L184.8 155.3 L185.1 155.1 L185.5 154.9 L185.9 154.5 L186.1 154.3 L186.2 154.0 L186.4 153.9 L186.4 153.8 L186.5 153.7 L186.4 153.3 L186.5 153.0 L186.5 152.8 L186.7 152.4 L186.6 152.3 L186.4 152.3 L186.1 152.3 L186.0 152.3 L185.9 152.1 L185.8 152.0 L185.7 152.0 L185.6 151.8 L185.1 150.7 L184.8 150.2 L184.3 149.9 L184.2 149.9 L183.6 149.5 L183.1 149.2 L183.0 149.3 L182.8 149.2 L182.6 149.2 L182.6 149.1 L182.1 149.1 L181.8 149.1 L181.6 148.9 L181.1 148.1 L180.8 148.0 L180.6 147.9 L180.3 147.9 L179.9 147.7 L179.8 147.7 L179.6 147.7 L178.9 147.7 L178.7 147.8 L178.4 147.9 L178.2 148.0 L178.0 148.1 L178.1 148.5 L178.4 148.8 L178.6 149.1 L178.5 149.6 L178.4 149.7 L178.3 149.8 L178.1 149.9 L178.0 149.9 L177.6 150.0 L177.5 150.1 L177.5 150.1 L177.5 150.3 L177.5 150.5 L177.5 150.5 L177.2 150.4 L177.1 150.4 L177.0 150.6 L177.2 150.8 L177.4 151.0 L177.5 151.2 L177.6 151.4 L177.7 151.6 L177.9 151.7 L178.1 151.9 L178.2 152.1 L178.2 152.4 L178.1 152.6 L178.0 152.7 L177.9 152.8 L177.7 152.7 L177.4 152.5 L177.1 152.3 L176.9 152.2 L176.6 151.9 L176.5 151.7 L176.3 151.6 L176.3 151.6 L176.3 151.3 L176.3 151.2 L176.2 151.1 L176.1 151.1 L175.8 151.1 L175.6 151.2 L175.6 151.3 L175.5 151.5 L175.4 151.6 L175.2 151.6 L175.0 151.5 L174.7 151.2 L174.6 151.0 L174.5 150.8 L174.6 150.6 L174.7 150.5 L174.9 150.5 L175.1 150.4 L175.2 150.2 L175.2 150.0 L175.1 149.8 L174.9 149.7 L174.7 149.6 L174.7 149.3 L174.6 149.0 L174.6 148.8 L174.5 148.7 L174.4 148.8 L174.2 149.0 L174.1 149.2 L173.8 149.5 L173.7 149.7 L173.8 149.8 L173.8 149.9 L173.8 150.0 L173.7 150.1 L173.6 150.2 L173.6 150.2 L173.6 150.3 L173.6 150.3 L173.6 150.4 L173.6 150.5 L173.6 150.7 L173.4 150.9 L173.3 151.1 L173.3 151.2 L173.3 151.6 L173.3 151.7 L173.1 151.7 L173.1 151.7 L173.0 151.6 L172.9 151.6 L172.9 151.6 L172.7 151.5 L172.6 151.4 L172.4 150.9 L172.3 150.8 L172.2 150.9 L172.0 151.0 L171.9 151.2 L171.8 151.3 L171.8 151.4 L171.9 151.5 L171.8 151.6 L171.7 151.7 L171.6 151.8 L171.4 151.8 L171.3 151.8 L171.1 151.7 L171.2 151.6 L171.1 151.5 L171.1 151.5 L171.0 151.5 L171.0 151.5 L171.0 151.5 L170.9 151.5 L170.9 151.5 L170.9 151.5 L170.9 151.4 L170.9 151.4 L170.9 151.4 L170.9 151.1 L171.0 151.0 L171.1 151.0 L171.3 151.1 L171.4 150.8 L171.3 150.7 L171.2 150.5 L171.1 150.4 L171.0 149.7 L170.9 149.5 L171.0 149.4 L171.1 149.1 L171.2 148.9 L171.2 148.7 L171.1 148.6 L170.8 148.5 L170.4 148.6 L170.3 148.5 L170.1 148.3 L170.0 148.2 L169.5 148.2 L169.4 148.3 L169.2 148.4 L169.0 148.4 L168.8 148.5 L167.9 149.2 L167.6 149.5 L167.1 150.2 L167.0 150.4 L167.0 150.5 L167.2 150.6 L167.5 150.5 L167.6 150.5 L167.6 150.8 L167.5 150.9 L167.4 151.1 L167.3 151.3 L167.1 151.4 L167.2 151.0 L167.2 150.9 L167.1 150.9 L167.0 151.0 L166.9 151.1 L166.8 151.2 L166.7 151.4 L166.2 151.7 L166.1 151.9 L166.2 152.1 L166.3 152.3 L166.4 152.5 L166.4 152.7 L166.3 152.9 L166.1 153.2 L165.9 153.3 L165.8 153.3 L165.7 153.3 L165.6 153.3 L165.4 153.6 L165.2 154.1 L165.1 155.0 L165.0 155.5 L165.0 155.7 L164.5 156.3 L164.1 157.3 L164.0 157.6 L163.8 157.7 L163.7 157.9 L163.6 157.9 L163.4 157.9 L163.3 157.9 L162.7 157.7 L161.9 157.2 L161.6 157.0 L161.2 156.2 L161.2 155.3 L161.6 154.4 L162.4 153.8 L162.7 153.6 L162.8 153.5 L162.9 153.4 L162.9 153.4 L162.9 153.3 L162.8 153.2 L162.7 153.1 L162.7 152.8 L162.8 152.3 L162.8 152.0 L162.8 151.9 L162.9 151.8 L163.0 151.6 L163.1 151.5 L163.1 151.2 L163.2 151.1 L163.3 151.0 L163.5 150.8 L163.6 150.7 L163.8 150.6 L163.9 150.4 L163.6 150.2 L163.5 150.0 L163.6 149.7 L163.7 149.2 L163.6 148.9 L163.5 148.8 L163.4 148.7 L163.5 148.4 L163.7 147.9 L164.7 146.8 L164.9 146.3 L165.1 146.1 L165.2 146.0 L165.5 145.8 L165.8 145.7 L166.2 145.5 L167.1 145.2 L167.3 145.2 L167.5 145.3 L167.6 145.2 L167.6 145.1 L167.7 145.1 L167.8 145.2 L168.0 145.1 L168.8 144.9 L169.3 144.7 L169.4 144.7 L169.6 144.3 L169.7 144.1 L169.8 144.3 L169.8 144.5 L170.0 144.6 L170.3 144.7 L170.6 144.7 L171.6 144.5 L171.8 144.4 L171.9 144.4 L172.1 144.4 L172.3 144.3 L172.4 144.3 L172.6 144.2 L173.2 143.7 L173.3 143.4 L173.2 143.2 L172.8 142.9 L172.8 142.9 L172.7 142.6 L172.7 142.6 L172.8 142.5 L173.0 142.4 L173.0 142.4 L173.1 142.3 L173.1 142.3 L173.2 142.2 L173.2 142.1 L173.2 142.0 L173.1 141.7 L173.1 141.6 L173.2 141.4 L173.4 141.1 L173.5 140.9 L173.5 140.8 L173.6 140.6 L173.8 140.4 L173.9 140.3 L174.1 140.3 L174.9 140.2 L175.3 140.0 L175.5 140.0 L175.5 140.1 L175.6 140.2 L175.7 140.3 L175.8 140.3 L176.5 140.2 L176.6 140.1 L176.8 140.0 L177.0 139.7 L177.0 139.7 L177.1 139.2 L177.2 139.0 L177.4 139.0 L177.5 139.0 L177.5 139.1 L177.6 139.1 L177.7 139.1 L177.7 139.0 L177.8 138.9 L177.9 138.9 L177.9 138.7 L177.5 138.3 L177.4 138.2 L177.4 138.1 L177.5 138.1 L177.7 138.0 L177.8 138.0 L177.9 138.1 L177.9 138.1 L178.2 138.2 L178.4 138.4 L178.5 138.4 L178.6 138.4 L178.8 138.3 L178.8 138.9 L178.9 139.2 L179.1 139.1 L179.1 139.2 L179.2 139.2 L179.3 139.3 L179.4 139.3 L179.4 139.4 L179.5 139.6 L179.6 139.5 L179.6 139.4 L179.6 139.3 L179.7 139.1 L179.7 139.1 L179.9 138.9 L179.7 138.7 L179.9 138.6 L180.1 138.7 L180.0 138.9 L180.9 139.0 L181.0 139.1 L181.1 139.2 L181.2 139.4 L181.3 139.4 L181.4 139.3 L181.4 139.3 L181.5 139.5 L181.5 139.5 L181.6 139.9 L181.7 139.9 L181.7 140.1 L182.2 140.6 L182.4 141.0 L182.5 141.5 L182.6 142.0 L182.6 143.3 L182.8 143.9 L182.8 144.1 L182.7 144.3 L181.5 145.3 L181.3 145.4 L180.8 145.4 L180.6 145.5 L180.6 145.8 L180.6 145.8 L180.6 145.8 L180.5 145.9 L180.5 146.1 L180.5 146.3 L180.5 146.3 L180.5 146.3 L180.5 146.3 L180.5 146.3 L180.7 146.3 L180.8 146.2 L180.9 146.1 L181.2 145.9 L182.7 144.8 L182.8 144.7 L183.1 144.7 L183.2 144.6 L183.5 144.3 L183.7 144.1 L184.1 144.0 L184.5 143.9 L185.8 143.9 L186.2 143.8 L186.6 143.6 L186.7 143.5 L186.9 143.1 L187.0 143.0 L187.0 142.9 L187.0 142.8 L186.9 142.6 L186.9 142.5 L186.9 142.4 L186.9 142.3 L187.0 142.1 L187.0 142.1 L187.0 142.0 L187.0 141.9 L187.1 141.9 L187.1 141.8 L187.2 141.8 L187.3 141.5 L187.3 141.4 L187.3 141.0 L187.4 140.8 L187.6 140.3 L187.8 140.0 L188.1 139.6 L188.5 139.3 L188.9 139.1 L189.2 139.1 L189.2 139.2 L189.2 139.4 L189.3 139.6 L189.3 139.6 L189.6 139.7 L189.6 139.7 L189.7 139.7 L189.8 139.7 L189.9 139.8 L190.3 140.2 L190.4 140.3 L190.6 140.3 L191.2 140.3 L191.1 140.5 L191.0 140.8 L191.0 141.0 L191.0 141.2 L191.0 141.2 L191.1 140.9 L191.3 140.8 L191.5 140.7 L191.8 140.8 L191.8 140.7 L192.0 140.6 L192.1 140.5 L192.2 140.5 L192.2 140.5 L192.2 140.4 L192.2 140.4 L192.2 140.3 L192.2 140.3 L192.2 139.9 L192.2 139.8 L192.3 139.7 L192.4 139.6 L192.5 139.4 L192.4 139.2 L192.2 138.9 L192.2 138.6 L192.2 138.4 L192.4 138.3 L192.5 138.1 L192.6 138.0 L192.5 137.7 L192.5 137.5 L192.6 137.0 L192.6 136.1 L192.5 135.6 L192.6 135.4 L192.7 135.2 L192.7 135.1 L192.9 135.0 L193.0 134.9 L193.1 134.9 L193.2 135.0 L193.3 135.0 L193.4 135.0 L193.6 135.0 L193.8 135.0 L194.0 135.1 L194.2 135.2 L194.3 135.4 L194.4 135.5 L195.2 135.9 L195.3 136.0 L195.5 136.3 L195.7 136.4 L195.9 136.8 L196.1 136.9 L196.2 136.9 L196.4 136.8 L196.7 136.7 L196.8 136.6 L197.0 136.4 L197.0 135.5 L197.0 135.3 L197.0 135.2 L196.9 135.2 L196.9 135.1 L196.9 135.0 L196.9 134.8 L197.0 134.6 L197.0 134.5 L197.0 134.4 L197.0 134.3 L197.1 134.2 L197.2 134.1 L197.3 134.1 L197.4 134.2 L197.5 134.5 L197.9 134.9 L198.1 135.1 L198.3 135.1 L199.0 135.2 L199.5 135.3 L199.7 135.3 L199.9 135.2 L200.5 134.9 L200.6 134.8 L200.7 134.5 L200.8 134.1 L200.8 133.0 L200.8 132.8 L200.7 132.7 L200.6 132.6 L200.6 132.5 L200.6 132.4 L200.6 132.2 L200.6 132.1 L200.6 132.0 L200.5 131.8 L200.4 131.5 L200.2 131.1 L200.1 130.8 L200.1 130.7 L200.0 130.7 L200.0 130.6 L200.0 130.3 L200.0 130.2 L200.0 130.1 L199.7 129.5 L199.7 129.3 L199.7 129.1 L199.3 127.7 L199.2 127.5 L199.3 127.3 L199.3 127.1 L199.9 126.2 L199.9 126.1 L200.0 126.3 L200.2 126.4 L200.4 126.6 L200.8 126.7 L201.1 126.8 L201.3 126.9 L201.3 127.1 L201.4 127.4 L201.5 127.7 L201.6 128.0 L201.7 128.2 L201.9 128.4 L202.2 128.5 L202.5 128.5 L202.4 128.5 L202.4 128.6 L202.4 128.6 L202.4 128.7 L202.5 128.6 L202.6 128.7 L202.7 128.8 L202.8 128.8 L203.0 128.8 L203.1 128.8 L203.3 129.0 L203.4 129.1 L203.5 129.1 L204.2 129.2 L204.4 129.3 L204.7 129.7 L204.8 129.7 L205.0 129.7 L205.1 129.7 L205.1 129.8 L205.1 129.9 L205.2 130.0 L205.3 130.1 L205.4 129.9 L205.4 129.8 L205.5 129.8 L205.5 130.0 L205.5 130.1 L205.4 130.2 L205.4 130.3 L205.2 130.3 L204.9 130.4 L204.8 130.5 L204.8 130.7 L204.9 130.8 L205.0 130.8 L205.1 130.9 L205.3 130.9 L205.4 130.9 L205.7 130.7 L205.7 131.2 L205.8 131.5 L205.9 131.9 L206.4 132.4 L206.5 132.4 L206.6 132.5 L206.8 132.4 L207.0 132.3 L207.4 132.2 L207.7 131.8 L208.0 131.7 L208.2 131.7 L208.2 131.9 L208.2 132.1 L208.0 132.4 L207.9 132.7 L207.8 133.2 L207.8 133.6 L207.7 134.0 L207.8 134.2 L207.9 134.2 L208.0 134.2 L208.2 134.3 L208.2 134.4 L208.3 134.6 L208.4 134.8 L209.2 135.5 L209.3 135.8 L209.3 135.9 L209.4 136.3 L209.4 136.5 L209.4 136.6 L209.5 136.7 L209.5 136.7 L209.5 136.8 L209.4 136.8 L209.4 137.1 L209.2 137.4 L209.1 137.6 L208.8 137.7 L208.4 137.9 L208.3 138.0 L208.3 138.1 L208.4 138.2 L208.6 138.3 L208.6 138.4 L208.6 138.4 L208.6 138.4 L208.6 138.4 L208.6 138.5 L208.4 138.4 L208.3 138.4 L208.1 138.4 L207.9 138.4 L207.7 138.7 L207.3 138.8 L207.1 139.1 L207.0 139.3 L207.2 139.6 L207.4 140.1 L207.5 140.2 L207.6 140.2 L208.0 140.2 L208.2 140.3 L208.3 140.3 L208.4 140.2 L208.2 140.1 L208.1 140.0 L208.2 139.9 L208.3 139.9 L208.5 140.0 L208.6 140.0 L208.7 139.9 L209.0 140.0 L209.7 140.1 L209.7 140.1 L209.7 140.1 L209.8 140.0 L209.8 140.0 L209.8 140.1 L209.8 140.2 L209.9 140.3 L210.2 140.5 L210.2 140.6 L210.1 140.7 L210.2 140.8 L210.2 140.8 L210.3 140.9 L210.0 140.8 L209.9 140.9 L209.8 141.0 L209.8 141.2 L209.8 141.3 L210.0 141.2 L210.0 141.4 L209.9 141.6 L209.7 142.0 L209.6 142.0 L209.5 142.1 L209.4 142.2 L209.5 142.2 L209.5 142.3 L209.7 142.5 L209.8 142.6 L209.9 142.6 L210.0 142.7 L209.9 143.0 L209.6 143.4 L209.5 143.6 L209.6 143.8 L209.7 143.9 L209.9 143.8 L210.1 143.7 L210.4 143.6 L210.8 143.3 L210.8 143.4 L210.8 144.4 L210.7 144.5 L210.7 144.7 L210.9 144.9 L210.6 145.0 L210.5 145.4 L210.5 145.9 L210.7 146.1 L210.5 146.3 L210.1 146.7 L210.0 146.9 L210.0 147.0 L210.0 147.2 L210.0 147.5 L210.2 147.7 L210.4 147.9 L210.7 148.1 L210.8 148.2 L210.8 148.3 L211.1 148.7 L211.3 148.8 L211.9 148.9 L212.1 149.0 L212.0 149.2 L212.0 149.5 L212.0 150.0 L212.0 150.2 L212.2 150.8 L212.3 151.3 L212.4 151.5 L212.4 151.7 L212.3 152.0 L212.2 152.0 L212.0 152.1 L211.9 152.2 L211.9 152.3 L212.0 152.4 L212.2 152.6 L212.1 152.8 L212.1 153.3 L212.0 153.5 Z M198.1 124.5 L198.3 124.9 L198.2 124.9 L198.1 125.0 L198.1 125.0 L198.0 125.1 L197.9 125.1 L197.8 125.0 L197.8 124.9 L197.8 124.9 L197.8 124.8 L197.5 124.5 L197.1 123.8 L196.7 123.6 L196.5 123.4 L196.4 123.2 L196.3 122.8 L196.3 122.5 L196.4 122.4 L196.5 122.4 L196.6 122.4 L196.8 122.6 L197.3 122.8 L197.4 122.9 L197.5 123.1 L197.7 123.8 L197.8 123.9 L197.9 124.1 L198.1 124.3 L198.1 124.5 Z M190.6 107.2 L190.8 107.3 L190.9 107.5 L190.8 107.9 L190.7 108.0 L190.5 108.1 L189.8 108.1 L189.6 108.0 L189.3 108.0 L189.3 108.1 L189.3 108.2 L189.2 108.2 L189.1 108.1 L189.1 108.1 L189.1 108.0 L189.0 108.0 L188.7 107.6 L188.5 107.4 L188.3 106.6 L188.2 106.4 L188.1 106.3 L187.9 106.0 L187.9 105.9 L188.1 105.9 L188.6 105.8 L188.7 105.8 L189.2 105.8 L189.4 105.8 L189.6 105.8 L189.7 105.9 L189.9 106.0 L190.1 106.1 L190.2 106.5 L190.5 107.1 L190.6 107.2 Z M192.9 106.5 L193.0 106.6 L193.1 106.7 L193.2 106.7 L193.4 106.8 L193.3 106.9 L193.3 107.0 L193.3 107.2 L193.3 107.4 L193.2 107.5 L193.1 107.5 L192.8 107.2 L192.9 107.2 L192.8 107.0 L192.8 107.0 L192.6 107.1 L192.5 106.8 L192.5 106.8 L192.6 106.8 L192.6 106.6 L192.5 106.5 L192.3 106.4 L192.2 106.3 L192.1 106.3 L192.1 106.1 L192.0 106.0 L192.0 105.9 L191.9 105.8 L191.9 105.7 L192.0 105.5 L192.1 105.5 L192.1 105.5 L192.2 105.6 L192.6 105.8 L192.6 105.9 L192.7 105.9 L192.7 106.0 L192.7 106.1 L192.7 106.1 L192.9 106.2 L192.9 106.3 L192.9 106.5 Z M165.6 32.9 L165.8 33.1 L165.9 33.6 L165.8 34.1 L165.7 34.5 L165.5 34.9 L165.2 35.2 L165.0 35.4 L164.6 35.6 L164.3 35.9 L164.2 36.0 L164.2 36.2 L164.2 36.3 L164.2 36.4 L164.2 36.5 L164.2 36.6 L164.2 36.9 L164.3 37.3 L164.3 37.4 L163.8 39.4 L163.8 39.6 L163.9 39.8 L163.9 39.9 L163.8 40.0 L163.8 40.1 L163.8 40.2 L164.0 40.3 L164.0 40.4 L164.0 41.4 L164.1 41.7 L164.4 42.5 L164.5 42.7 L164.6 43.0 L164.8 43.2 L164.9 43.5 L164.9 43.7 L165.0 43.9 L165.0 44.0 L165.1 44.2 L165.2 44.3 L165.2 44.3 L165.3 44.2 L165.3 44.2 L165.4 44.2 L165.6 44.4 L165.7 44.4 L165.9 44.4 L166.2 44.3 L166.3 44.3 L166.5 44.3 L166.6 44.7 L166.7 44.8 L166.6 44.5 L166.8 44.7 L167.1 44.9 L167.1 45.2 L166.9 45.1 L166.8 45.0 L166.8 45.1 L166.8 45.3 L166.9 45.6 L166.9 45.7 L166.9 45.9 L166.8 46.2 L166.8 46.4 L166.9 46.5 L167.1 46.7 L167.2 46.9 L167.3 46.8 L167.3 46.8 L167.4 46.7 L167.5 46.8 L167.7 46.7 L167.8 46.6 L168.0 46.7 L168.1 46.9 L168.1 47.1 L168.0 47.3 L167.9 47.5 L167.8 47.6 L167.8 47.7 L167.7 47.9 L167.6 47.9 L167.6 48.0 L167.5 48.2 L167.3 49.1 L167.4 49.3 L167.2 49.6 L166.9 50.4 L166.4 51.2 L166.3 51.5 L166.1 52.0 L166.0 52.1 L165.9 52.3 L165.6 52.8 L165.4 53.0 L165.1 53.3 L165.0 53.4 L164.9 53.5 L164.9 53.6 L164.8 53.7 L164.8 53.9 L164.8 54.0 L164.6 54.1 L164.5 54.3 L164.6 54.4 L164.7 54.7 L164.8 54.5 L164.8 54.5 L164.8 54.5 L164.8 54.8 L164.4 55.5 L164.5 55.8 L164.7 55.6 L164.8 55.5 L164.8 55.7 L164.5 56.1 L164.5 56.2 L164.6 56.4 L164.5 56.4 L164.5 56.4 L164.3 56.5 L164.2 56.5 L163.9 56.9 L163.6 57.2 L163.2 57.5 L163.2 57.5 L163.2 57.5 L163.1 57.6 L163.1 57.7 L163.1 57.8 L163.1 57.8 L163.1 57.9 L163.0 58.1 L162.5 58.4 L162.3 58.6 L162.2 58.6 L162.4 58.3 L162.6 58.1 L162.6 57.9 L162.7 57.7 L163.2 57.4 L163.3 57.2 L163.3 56.9 L163.4 56.7 L163.8 56.5 L163.9 56.3 L163.8 56.2 L163.5 56.1 L163.3 56.2 L163.2 56.4 L163.1 56.6 L163.1 56.7 L163.0 56.9 L162.9 57.0 L162.5 57.2 L161.8 57.5 L161.7 57.5 L161.3 57.6 L160.9 57.7 L160.8 57.8 L160.6 57.9 L160.5 58.0 L160.1 58.1 L160.0 58.1 L159.9 58.2 L159.8 58.2 L159.7 58.1 L159.6 58.2 L158.9 58.8 L158.8 58.9 L158.4 59.3 L157.9 59.6 L157.7 59.7 L157.6 59.9 L157.5 60.1 L157.5 60.6 L157.5 60.8 L157.7 61.2 L157.7 61.4 L157.8 61.5 L158.1 61.6 L158.3 61.6 L158.4 61.8 L158.4 62.0 L157.9 62.5 L158.1 62.6 L158.2 62.6 L158.3 62.7 L157.9 62.9 L157.7 63.0 L157.6 63.2 L157.6 63.4 L157.4 63.6 L156.8 64.1 L156.8 64.2 L156.7 64.9 L156.6 65.1 L156.5 65.3 L156.1 65.8 L155.9 65.7 L155.8 65.7 L155.7 65.7 L155.6 66.0 L155.6 66.5 L155.7 67.0 L156.0 67.3 L156.3 67.6 L156.5 67.7 L156.7 67.9 L156.8 68.1 L157.0 69.2 L157.1 69.3 L157.2 69.4 L157.5 70.0 L157.6 70.1 L157.7 70.4 L157.8 70.7 L157.9 71.0 L158.1 71.2 L158.1 71.3 L158.0 71.4 L157.9 71.4 L158.4 71.9 L158.4 72.0 L158.5 72.1 L159.2 72.6 L159.3 72.8 L159.3 72.9 L159.1 72.9 L158.7 73.0 L158.5 73.0 L158.3 73.1 L158.1 73.2 L158.1 73.4 L158.1 73.9 L158.1 74.1 L158.5 75.4 L158.5 75.8 L158.7 76.2 L158.7 76.4 L158.9 76.5 L159.3 77.0 L159.4 77.1 L159.5 77.3 L159.4 77.7 L159.5 77.8 L159.7 77.9 L159.7 78.0 L159.7 78.2 L159.6 78.4 L159.5 78.5 L159.4 78.6 L159.4 78.7 L159.5 78.8 L159.9 79.3 L160.7 79.9 L161.4 80.6 L161.6 80.8 L163.3 81.4 L164.8 81.7 L164.9 81.4 L164.7 81.2 L164.3 80.8 L164.5 80.8 L165.5 81.0 L165.6 81.0 L165.6 80.9 L165.5 80.7 L165.6 80.6 L165.7 80.6 L165.7 80.5 L165.5 80.5 L165.1 80.0 L164.9 79.9 L164.6 79.8 L164.3 79.5 L164.2 79.2 L164.1 78.9 L164.2 79.0 L164.2 79.0 L164.2 79.1 L164.3 79.1 L164.3 78.9 L164.4 78.7 L164.8 78.5 L165.0 78.6 L165.0 78.4 L165.0 78.2 L165.1 78.0 L165.2 78.0 L165.2 78.2 L165.2 78.5 L165.1 78.7 L165.2 78.8 L165.2 78.9 L165.3 79.0 L165.3 79.2 L165.3 79.2 L165.3 79.3 L165.4 79.3 L165.4 79.4 L165.5 79.3 L165.5 79.2 L165.5 79.2 L165.6 79.3 L165.6 79.4 L165.6 79.7 L165.8 79.6 L166.0 79.5 L166.1 79.3 L166.1 79.0 L166.1 79.0 L165.9 78.8 L165.9 78.7 L165.9 78.5 L166.0 78.5 L166.1 78.5 L166.1 78.6 L166.2 78.6 L166.2 78.5 L166.2 78.4 L166.2 78.4 L166.1 78.3 L166.3 78.3 L166.4 78.2 L166.4 78.1 L166.3 78.0 L166.3 77.9 L166.5 77.5 L166.5 77.4 L166.6 77.6 L166.7 77.5 L166.8 77.4 L166.8 77.2 L167.0 77.3 L167.2 77.2 L167.3 77.1 L167.4 77.0 L167.6 77.0 L167.7 77.0 L168.0 77.2 L167.9 77.1 L167.8 77.0 L168.1 76.9 L168.6 77.1 L168.9 77.2 L168.8 77.3 L168.9 77.4 L169.0 77.5 L169.1 77.3 L169.1 77.5 L169.2 77.6 L169.3 77.6 L169.4 77.5 L169.7 77.5 L169.8 77.6 L169.7 77.3 L169.6 77.0 L169.7 76.9 L169.9 77.0 L170.0 77.0 L170.1 77.1 L170.2 77.3 L170.3 77.3 L170.5 77.1 L170.6 77.2 L170.6 77.2 L170.7 77.3 L170.8 77.3 L170.9 77.3 L170.8 77.4 L170.9 77.4 L171.0 77.6 L171.1 77.6 L171.3 77.6 L171.6 77.7 L171.8 77.8 L172.1 78.2 L172.2 78.3 L172.1 78.4 L172.1 78.4 L172.2 78.5 L172.3 78.5 L172.4 78.5 L172.4 78.5 L172.7 78.9 L172.8 79.0 L173.2 79.4 L173.3 79.6 L173.4 79.5 L173.5 79.5 L173.6 79.7 L173.7 79.8 L173.7 80.0 L173.6 80.1 L173.5 80.2 L173.6 80.5 L173.8 80.7 L174.0 80.9 L174.1 80.8 L174.1 81.0 L174.1 81.5 L174.2 81.8 L174.1 81.9 L174.1 82.0 L174.0 82.0 L173.9 82.0 L173.8 82.1 L173.8 82.2 L173.7 82.7 L173.7 82.8 L173.7 83.2 L173.9 83.4 L174.2 83.5 L174.4 83.7 L174.4 83.7 L174.7 83.6 L174.9 83.6 L175.5 83.7 L175.6 83.6 L176.0 83.5 L176.1 83.4 L176.5 83.0 L176.5 82.9 L176.6 82.8 L176.6 82.7 L176.6 82.7 L176.5 82.5 L176.4 82.1 L176.2 81.9 L176.2 81.7 L176.6 81.5 L176.6 81.4 L176.7 81.4 L176.8 81.2 L176.8 81.1 L176.8 80.9 L176.7 81.0 L176.6 81.4 L176.5 81.4 L176.3 81.4 L176.2 81.4 L175.7 81.1 L175.6 81.0 L175.6 80.8 L175.7 80.7 L175.9 80.6 L176.0 80.6 L175.8 80.5 L176.0 80.4 L176.0 80.3 L175.9 80.0 L176.0 79.9 L176.3 80.0 L176.6 80.2 L176.6 80.1 L176.6 80.1 L176.5 79.9 L176.8 80.0 L176.8 79.9 L176.8 79.9 L176.7 79.7 L176.8 79.6 L176.9 79.7 L177.0 79.9 L177.1 80.2 L176.9 80.3 L176.9 80.4 L177.0 80.5 L177.0 80.6 L177.2 80.4 L177.3 80.3 L177.4 80.3 L177.4 80.4 L177.3 80.6 L177.4 80.6 L177.4 80.5 L177.5 80.6 L177.5 80.8 L177.7 81.1 L177.6 81.3 L177.7 81.4 L177.7 81.5 L177.7 81.6 L177.7 81.7 L177.8 81.7 L177.9 81.6 L177.9 81.5 L178.0 81.4 L178.0 81.1 L178.2 81.2 L178.4 81.3 L178.5 81.4 L178.5 81.6 L179.0 81.5 L179.8 81.8 L180.6 82.0 L180.9 81.4 L181.2 81.8 L181.5 82.2 L181.9 82.5 L182.7 82.8 L182.7 82.9 L182.8 82.9 L182.8 82.9 L182.9 83.0 L183.2 83.0 L183.3 83.0 L183.4 83.1 L183.5 83.4 L183.7 83.5 L183.8 83.7 L183.7 83.8 L183.5 83.7 L183.4 83.6 L183.4 83.5 L183.3 83.5 L183.3 83.6 L183.2 83.7 L183.1 83.6 L182.9 83.5 L182.5 83.5 L182.4 83.6 L182.3 83.8 L182.1 84.0 L181.9 84.1 L181.7 84.1 L181.3 83.9 L180.7 83.8 L180.4 83.8 L180.3 83.9 L180.2 83.9 L180.0 83.9 L179.8 83.7 L179.6 83.7 L179.4 83.7 L179.3 83.9 L178.9 84.8 L178.9 85.0 L179.0 85.0 L179.0 85.1 L179.0 85.1 L179.0 85.2 L179.0 85.2 L179.0 85.3 L179.0 85.5 L179.1 85.5 L179.2 85.5 L179.3 85.4 L179.6 85.8 L179.7 85.9 L179.8 86.0 L180.4 86.3 L180.6 86.5 L180.9 86.9 L180.9 87.0 L181.0 87.1 L181.1 87.1 L181.1 87.3 L181.1 87.3 L181.1 87.6 L181.3 87.9 L181.4 88.1 L181.6 88.1 L181.8 88.2 L181.9 88.5 L182.1 88.9 L182.2 88.8 L182.3 88.8 L182.4 89.0 L182.5 89.1 L181.8 89.1 L181.5 89.2 L181.4 89.4 L181.4 89.6 L181.4 89.8 L181.3 89.9 L181.4 90.1 L181.6 90.4 L181.5 90.5 L181.3 90.6 L181.3 90.7 L181.3 90.7 L181.3 90.8 L181.3 90.9 L181.5 91.0 L181.6 91.0 L181.7 91.0 L181.9 91.0 L182.0 90.8 L182.1 90.8 L182.5 90.3 L182.5 90.2 L182.6 90.1 L182.7 90.0 L182.8 90.0 L182.9 90.0 L183.0 90.2 L183.1 90.2 L183.2 90.2 L183.3 90.3 L183.4 90.3 L183.4 90.4 L183.4 90.4 L183.8 90.5 L184.0 90.6 L184.1 90.7 L184.3 90.9 L184.4 91.0 L184.8 91.4 L184.9 91.5 L185.1 91.4 L185.3 90.9 L185.3 90.8 L185.4 90.7 L185.7 90.8 L185.9 90.9 L186.1 91.0 L186.1 91.2 L186.1 91.4 L186.0 91.5 L185.8 91.4 L185.7 91.6 L185.6 91.7 L185.5 92.0 L185.3 92.4 L185.3 92.5 L185.4 92.7 L185.5 92.9 L185.6 93.6 L185.6 93.8 L185.5 95.1 L185.4 95.3 L185.1 95.5 L185.0 95.6 L185.1 95.8 L185.1 95.9 L185.1 96.0 L184.9 96.1 L185.0 96.2 L185.1 96.4 L185.0 96.4 L184.8 96.6 L184.7 96.6 L184.5 96.6 L184.2 96.6 L183.9 96.5 L183.6 96.3 L183.3 95.8 L183.3 95.7 L183.3 95.7 L183.2 95.7 L183.1 95.7 L183.0 95.5 L182.7 95.4 L182.6 95.3 L182.6 95.1 L182.3 94.7 L182.4 94.5 L182.4 94.2 L182.4 94.0 L182.3 93.7 L182.2 93.6 L182.0 93.6 L181.8 93.4 L182.1 93.4 L182.3 93.3 L182.5 93.2 L182.6 93.0 L182.7 93.0 L182.9 93.2 L182.9 93.3 L183.0 93.3 L183.1 93.3 L183.2 93.3 L183.3 93.3 L183.4 93.2 L183.4 93.2 L183.4 93.0 L183.5 92.9 L183.6 92.9 L183.7 92.9 L183.8 93.0 L183.9 93.0 L184.1 92.9 L184.3 92.7 L184.4 92.5 L184.4 92.3 L184.3 92.1 L184.1 92.0 L183.6 92.1 L183.4 92.1 L183.1 91.9 L182.9 91.9 L182.8 92.0 L182.7 92.2 L182.6 92.4 L182.6 92.5 L182.3 92.8 L182.1 92.9 L181.9 93.0 L181.8 93.0 L181.7 93.1 L181.6 93.0 L181.5 92.9 L181.5 92.9 L181.4 92.9 L181.3 93.1 L181.2 93.2 L181.2 93.2 L181.1 93.3 L181.1 93.3 L181.0 93.1 L180.9 93.0 L181.0 92.9 L181.1 92.9 L181.2 92.8 L181.0 92.8 L180.8 92.8 L180.7 92.8 L180.7 92.9 L180.8 92.9 L180.8 93.1 L180.6 92.8 L180.7 92.6 L180.8 92.4 L180.8 92.3 L180.7 92.4 L180.6 92.4 L180.5 92.4 L180.4 92.5 L180.4 92.6 L180.3 92.7 L180.3 92.8 L180.2 92.8 L180.2 92.8 L180.1 92.8 L179.9 92.8 L179.8 92.8 L179.7 92.7 L179.4 92.4 L179.3 92.3 L179.1 92.2 L178.9 92.1 L178.9 92.1 L178.8 92.1 L178.7 92.0 L178.5 91.7 L178.3 91.6 L178.1 91.3 L178.0 91.2 L177.7 91.2 L177.6 91.1 L177.4 91.1 L177.1 91.2 L176.8 91.4 L176.6 91.5 L176.5 91.4 L176.4 91.2 L176.3 91.0 L176.3 90.8 L176.4 90.7 L176.2 90.3 L176.5 89.4 L176.5 89.0 L176.3 88.8 L175.9 88.6 L175.7 88.4 L175.7 88.3 L175.6 88.1 L175.6 88.0 L175.3 87.7 L175.3 87.4 L175.2 87.0 L175.0 86.7 L174.8 86.6 L174.5 86.5 L173.9 86.1 L173.6 86.1 L173.4 86.0 L173.2 85.9 L173.0 85.9 L172.9 85.9 L172.6 85.6 L171.9 85.1 L171.8 85.1 L171.7 85.0 L171.3 84.6 L171.2 84.5 L171.7 84.0 L171.2 83.5 L170.9 83.2 L170.6 83.1 L170.6 83.1 L170.5 83.1 L170.6 83.0 L170.7 83.0 L170.7 82.9 L170.5 82.8 L170.4 82.7 L169.9 82.6 L169.8 82.5 L169.7 82.7 L169.6 82.7 L169.4 82.6 L169.3 82.5 L169.3 82.4 L169.4 82.4 L169.5 82.3 L169.4 82.2 L169.1 81.9 L169.0 81.8 L168.8 81.8 L168.7 81.7 L168.6 81.7 L168.6 81.5 L168.5 81.4 L168.4 81.5 L168.4 81.4 L168.2 81.2 L168.2 81.2 L168.2 81.1 L167.9 81.4 L167.3 81.4 L167.0 81.3 L166.8 81.1 L166.8 81.3 L166.9 81.5 L167.0 81.6 L167.2 81.7 L167.2 81.7 L167.8 82.5 L167.9 82.7 L167.9 82.8 L167.8 83.0 L167.8 83.2 L167.9 83.6 L167.7 83.5 L167.6 83.7 L167.7 84.2 L167.7 84.5 L167.9 84.7 L168.3 85.1 L169.1 85.6 L169.2 85.8 L169.2 85.9 L168.9 85.8 L168.5 85.5 L168.5 85.6 L168.8 86.1 L169.3 86.6 L169.4 86.8 L169.5 87.0 L169.6 87.5 L169.7 87.9 L169.7 88.3 L169.7 88.4 L169.7 88.5 L169.8 88.6 L169.8 88.7 L169.8 88.9 L169.8 89.0 L169.8 89.1 L169.8 89.1 L169.7 89.2 L169.6 89.2 L169.5 89.3 L169.4 89.4 L169.2 89.5 L168.9 89.7 L168.7 89.7 L168.5 89.6 L167.8 89.0 L167.8 88.8 L168.0 88.4 L168.0 88.2 L167.8 87.6 L166.7 86.2 L166.7 86.1 L166.7 86.0 L166.6 85.9 L166.4 85.7 L166.3 85.6 L166.0 85.5 L166.0 85.3 L165.8 85.2 L165.1 85.2 L165.1 85.0 L164.9 84.9 L164.6 84.9 L164.4 84.8 L164.4 84.7 L164.3 84.5 L164.3 84.4 L164.2 84.3 L163.6 83.4 L163.3 83.1 L163.0 82.8 L162.9 83.1 L162.7 83.0 L162.6 82.9 L162.4 82.8 L162.2 82.8 L162.2 82.8 L161.8 82.4 L161.6 82.3 L161.5 82.3 L161.4 82.3 L161.3 82.2 L161.0 82.0 L160.9 82.0 L160.8 81.9 L160.4 81.8 L160.3 81.6 L160.2 81.4 L160.0 81.3 L159.9 81.3 L159.5 81.1 L159.3 81.1 L159.3 81.2 L159.1 81.3 L159.0 81.5 L159.0 81.5 L158.4 81.7 L158.4 81.7 L158.2 81.9 L158.1 81.9 L157.9 81.8 L157.9 81.8 L157.7 81.9 L157.4 82.0 L157.2 82.2 L157.1 82.2 L157.1 82.2 L156.9 82.3 L156.8 82.3 L156.7 82.3 L156.4 82.7 L156.2 82.9 L156.2 83.7 L156.2 84.0 L156.3 84.0 L156.4 84.0 L156.5 84.0 L156.2 84.4 L156.1 84.4 L155.7 84.3 L155.5 84.3 L155.3 84.4 L154.7 84.9 L154.5 85.1 L154.3 85.1 L154.2 85.0 L154.1 84.9 L153.8 84.8 L153.7 84.8 L153.5 84.8 L153.4 84.8 L153.3 84.7 L153.2 84.6 L153.0 84.6 L152.7 84.7 L152.5 84.8 L152.3 84.9 L152.2 84.8 L152.0 84.8 L151.9 84.7 L151.8 84.6 L151.9 84.6 L151.9 84.5 L152.0 84.4 L152.0 84.1 L152.0 83.9 L152.0 83.7 L151.9 83.3 L151.8 83.3 L151.6 83.2 L151.5 83.1 L151.4 83.1 L151.2 83.1 L150.4 84.1 L150.3 84.1 L150.2 84.1 L150.2 83.9 L150.2 83.8 L150.2 83.7 L150.3 83.7 L150.3 83.6 L150.4 83.4 L150.4 83.4 L150.6 83.4 L150.7 83.3 L150.7 83.2 L150.7 83.1 L150.5 82.9 L150.5 82.8 L150.5 82.7 L150.5 82.5 L150.5 82.4 L150.5 82.2 L150.5 82.0 L150.4 81.8 L150.3 81.7 L150.1 81.7 L149.1 81.6 L148.7 81.4 L148.5 81.4 L148.2 81.5 L148.2 81.7 L148.2 81.8 L148.4 82.1 L148.4 82.3 L148.2 82.3 L147.8 82.3 L147.7 82.4 L147.7 82.6 L147.8 82.8 L147.9 83.0 L147.8 83.2 L147.6 83.1 L147.4 82.8 L147.3 82.4 L147.3 81.5 L147.1 81.1 L147.3 81.0 L147.4 80.9 L147.5 80.8 L147.5 80.8 L147.3 80.7 L147.3 80.5 L147.3 79.9 L147.3 79.6 L147.2 79.4 L146.9 79.3 L146.9 79.2 L147.1 79.1 L147.1 79.0 L147.0 78.9 L146.8 78.8 L146.9 78.8 L147.0 78.8 L147.1 78.7 L147.1 78.7 L147.0 78.5 L147.1 78.4 L147.2 78.1 L147.3 78.0 L147.4 77.8 L147.6 77.7 L148.0 77.6 L148.2 77.6 L148.3 77.5 L148.5 77.4 L148.5 77.2 L148.6 77.2 L148.8 77.1 L148.9 77.0 L149.2 76.6 L150.1 75.7 L150.2 75.7 L150.3 75.7 L150.6 75.7 L150.7 75.7 L150.8 75.5 L151.1 75.3 L151.2 75.1 L151.3 74.9 L151.2 74.7 L151.0 74.3 L150.9 74.1 L150.8 73.6 L150.8 73.5 L150.4 73.0 L150.4 72.9 L150.3 72.8 L149.8 72.6 L149.8 72.6 L149.8 72.5 L149.7 72.4 L149.6 72.4 L148.5 72.4 L147.9 72.3 L147.8 72.3 L147.7 72.2 L147.6 72.2 L147.5 72.1 L147.4 71.9 L147.4 71.6 L147.4 71.4 L147.3 71.2 L147.3 71.6 L147.3 71.7 L147.3 71.7 L147.2 71.8 L147.1 71.8 L147.1 71.7 L147.0 71.8 L147.2 71.1 L147.1 70.9 L147.0 70.9 L146.9 71.1 L146.8 71.6 L146.6 71.5 L146.5 71.6 L146.5 71.7 L146.5 72.2 L146.4 72.9 L146.4 73.1 L146.9 73.6 L146.9 73.7 L146.9 73.8 L146.8 74.0 L147.0 74.7 L147.1 75.2 L147.0 75.6 L146.7 75.9 L146.3 76.0 L146.2 76.0 L146.1 75.9 L146.0 75.9 L145.9 75.9 L145.9 76.0 L145.9 76.0 L145.8 76.1 L145.7 76.1 L145.6 76.1 L145.6 76.0 L145.5 76.0 L145.0 75.8 L145.0 75.8 L144.7 75.5 L144.7 75.2 L144.7 74.5 L144.7 74.2 L144.6 74.0 L144.1 73.7 L144.0 73.8 L143.9 73.8 L143.8 73.7 L143.8 73.6 L143.7 73.6 L143.3 73.1 L143.2 72.8 L143.4 72.6 L143.5 72.6 L143.5 72.5 L143.2 72.4 L143.3 72.3 L143.4 72.2 L143.5 72.1 L143.5 72.0 L143.6 72.0 L143.7 72.0 L143.7 71.9 L143.8 71.7 L143.6 71.7 L143.5 71.7 L143.5 71.6 L143.4 71.5 L143.4 71.5 L143.3 71.5 L143.2 71.5 L143.1 71.4 L143.0 71.2 L142.9 71.2 L142.7 71.3 L142.8 71.6 L142.7 71.9 L142.6 72.3 L142.5 72.5 L142.3 72.5 L142.1 72.5 L142.0 72.4 L141.9 72.3 L141.8 72.2 L141.6 72.1 L141.5 72.0 L141.5 71.9 L141.6 71.9 L141.6 71.8 L141.7 71.7 L141.6 71.8 L141.5 71.8 L141.2 71.0 L141.1 70.6 L141.2 69.6 L141.2 69.2 L140.8 67.6 L140.7 67.5 L140.6 67.5 L140.6 67.4 L140.6 67.2 L140.6 66.9 L140.6 66.8 L140.4 66.5 L140.2 66.1 L140.1 66.0 L139.5 65.4 L139.4 65.2 L139.4 65.1 L139.6 65.0 L139.6 64.9 L139.6 64.8 L139.6 64.8 L139.5 64.6 L139.7 64.7 L139.9 64.7 L140.1 64.5 L140.2 64.3 L140.2 64.2 L140.1 64.1 L140.1 64.0 L140.0 64.0 L140.0 64.0 L140.0 63.8 L139.9 63.7 L139.8 63.6 L139.8 63.7 L139.7 63.8 L139.5 63.4 L139.5 63.2 L139.5 63.1 L139.7 62.8 L139.7 62.7 L139.7 62.4 L139.5 62.2 L139.3 62.1 L139.1 61.8 L139.4 61.7 L139.4 61.6 L139.4 61.1 L139.4 60.9 L139.5 60.8 L139.5 60.6 L139.4 60.4 L139.3 59.9 L139.1 59.7 L139.0 59.5 L138.7 59.5 L138.5 59.6 L138.4 59.8 L138.3 59.8 L138.2 59.8 L138.1 59.9 L137.9 59.6 L138.0 58.3 L138.0 58.2 L138.1 57.7 L138.2 57.5 L138.1 57.4 L138.0 57.2 L138.0 57.1 L137.9 56.8 L138.0 56.6 L138.2 55.9 L138.2 55.5 L138.3 55.3 L138.4 55.1 L138.5 55.0 L138.6 55.0 L138.7 55.0 L138.8 55.0 L139.0 54.9 L139.0 54.8 L139.2 54.8 L139.4 54.8 L139.7 54.8 L139.8 55.0 L139.8 55.2 L139.5 56.3 L139.7 56.4 L140.2 56.5 L140.3 56.5 L140.3 56.6 L140.6 56.9 L140.8 57.0 L141.0 57.0 L141.1 57.0 L141.3 57.1 L141.5 57.3 L141.5 57.3 L141.6 57.3 L141.7 58.0 L141.7 58.2 L141.9 58.4 L142.1 58.5 L142.6 58.6 L142.9 58.6 L143.1 58.6 L143.3 58.5 L143.4 58.4 L143.8 58.4 L143.9 58.5 L143.8 58.8 L144.0 58.7 L144.1 58.5 L144.2 58.3 L144.3 58.4 L144.4 58.4 L144.5 58.4 L144.6 58.3 L144.5 58.2 L144.4 58.2 L144.2 58.3 L144.1 58.3 L144.2 58.1 L144.6 57.8 L144.7 57.6 L144.7 57.5 L144.9 57.3 L145.0 57.2 L145.0 56.7 L144.9 56.5 L144.8 56.2 L144.4 55.8 L144.4 56.0 L144.4 55.9 L144.3 55.9 L144.2 55.8 L144.0 54.0 L143.8 53.6 L143.9 53.1 L143.8 52.8 L143.7 52.5 L143.6 52.3 L143.7 52.2 L143.7 52.3 L143.7 52.3 L143.8 52.3 L143.9 52.3 L143.9 52.2 L143.9 52.1 L143.9 51.9 L143.9 51.6 L144.1 51.2 L144.1 51.0 L144.0 50.8 L144.0 50.5 L144.0 50.3 L144.0 50.2 L144.1 50.1 L144.1 50.0 L144.2 49.9 L144.3 49.8 L144.4 49.7 L145.2 48.5 L145.3 48.3 L145.3 48.0 L145.1 46.2 L145.1 46.1 L145.0 46.0 L145.0 45.9 L145.0 45.7 L145.1 45.2 L145.0 44.6 L145.1 44.5 L145.3 44.3 L145.3 44.2 L145.4 44.1 L145.4 44.0 L145.4 43.9 L145.3 43.5 L145.0 42.7 L145.0 42.5 L144.5 42.4 L144.3 42.3 L144.2 42.1 L144.4 40.7 L144.5 40.7 L144.8 40.6 L145.0 40.5 L145.1 40.4 L145.1 40.2 L145.1 40.0 L145.0 39.9 L144.9 39.7 L144.8 39.6 L144.9 39.5 L145.2 39.2 L145.2 39.0 L145.3 38.8 L145.2 38.3 L145.2 38.2 L145.5 37.8 L145.7 37.3 L145.8 37.2 L145.8 37.0 L145.8 36.8 L145.7 36.6 L145.7 36.4 L145.7 36.3 L146.3 35.0 L146.3 35.0 L146.2 35.0 L146.2 34.9 L146.2 34.9 L146.2 34.9 L146.3 34.8 L146.3 34.8 L146.4 34.8 L146.4 34.6 L146.7 34.1 L146.9 33.7 L147.0 33.3 L146.9 32.8 L146.8 32.4 L146.7 32.1 L146.7 32.0 L146.8 31.8 L147.0 31.6 L147.2 31.4 L147.4 31.4 L147.9 31.5 L148.1 31.4 L148.6 31.3 L148.8 31.2 L149.0 31.1 L149.0 30.9 L149.0 30.7 L149.1 30.5 L149.2 30.3 L149.4 30.2 L149.7 30.2 L149.8 30.3 L150.0 30.5 L150.3 30.9 L150.5 31.1 L150.7 31.1 L150.9 31.0 L151.1 30.9 L151.1 30.8 L151.2 30.7 L151.7 30.5 L151.8 30.5 L151.9 30.5 L152.1 30.5 L152.2 30.5 L152.4 30.4 L152.5 30.3 L152.6 30.3 L152.7 30.3 L152.8 30.4 L152.9 30.4 L153.2 30.4 L153.3 30.5 L153.4 30.5 L153.4 30.6 L153.5 30.7 L154.1 31.0 L154.3 31.2 L155.4 31.7 L155.6 31.9 L155.7 32.0 L156.1 32.1 L156.9 32.6 L157.0 32.6 L157.1 32.6 L157.2 32.7 L157.2 32.7 L157.3 32.8 L157.4 32.9 L157.9 33.1 L158.1 33.3 L158.3 33.6 L158.5 33.8 L158.5 33.8 L158.4 33.6 L158.4 33.4 L158.5 33.2 L158.6 33.3 L158.8 33.4 L160.7 34.1 L161.2 34.2 L161.4 34.2 L162.0 34.1 L162.2 34.1 L162.8 33.8 L163.2 33.1 L163.3 33.0 L163.5 33.0 L163.6 32.9 L163.6 32.5 L163.9 31.7 L164.0 31.6 L164.5 31.6 L164.7 31.6 L164.9 31.6 L165.0 31.8 L165.0 32.3 L165.1 32.4 L165.2 32.6 L165.5 32.8 L165.6 32.9 Z M143.3 175.6 L143.3 175.8 L143.2 176.5 L143.1 176.9 L143.1 177.1 L142.9 177.3 L142.8 177.2 L142.7 177.2 L142.6 177.0 L142.6 176.9 L142.6 176.5 L142.6 176.4 L142.6 176.3 L142.5 176.3 L142.5 176.4 L142.5 176.5 L142.4 176.5 L142.4 176.5 L142.2 176.5 L142.1 176.5 L142.0 176.4 L141.9 176.3 L141.9 176.2 L141.8 176.3 L141.8 176.7 L141.7 176.8 L141.5 176.9 L141.4 176.9 L141.2 176.8 L141.1 176.8 L140.9 176.8 L140.8 176.9 L140.7 177.0 L140.6 177.1 L140.6 177.2 L140.5 177.1 L140.4 177.2 L140.3 177.2 L140.3 177.6 L140.1 177.7 L140.0 177.7 L139.9 177.6 L139.7 177.6 L139.7 177.6 L139.5 177.8 L139.4 177.9 L139.1 177.9 L138.9 177.9 L138.8 178.0 L138.7 178.0 L138.6 177.9 L138.6 177.7 L138.6 177.4 L138.5 177.2 L138.7 177.1 L138.7 177.1 L139.1 176.9 L139.5 176.8 L139.5 176.7 L139.6 176.7 L140.0 176.5 L140.1 176.2 L140.2 176.1 L140.5 176.1 L140.8 176.0 L140.9 175.9 L141.0 175.9 L141.2 175.7 L141.3 175.7 L141.3 175.7 L141.4 175.8 L141.5 175.7 L141.6 175.7 L141.6 175.5 L141.6 175.4 L141.9 175.2 L142.0 175.1 L142.2 175.0 L142.4 174.9 L142.6 174.8 L142.7 174.7 L142.9 174.7 L142.9 174.8 L142.9 175.0 L142.9 175.5 L143.0 175.6 L143.1 175.6 L143.1 175.6 L143.2 175.6 L143.3 175.6 Z M165.5 160.8 L165.9 161.0 L166.0 161.1 L165.8 161.3 L165.6 161.3 L165.1 161.3 L164.9 161.5 L164.8 161.6 L164.7 161.8 L164.6 161.9 L164.5 162.1 L164.5 162.6 L164.4 162.8 L164.1 162.8 L163.9 162.8 L163.6 162.9 L162.9 163.2 L162.7 163.2 L162.3 163.2 L161.9 163.3 L161.9 163.2 L161.8 163.0 L161.8 162.9 L161.8 162.8 L161.0 162.2 L161.0 161.6 L161.0 161.4 L160.8 161.3 L160.5 161.3 L160.3 161.2 L160.2 160.9 L160.3 160.7 L160.4 160.5 L160.6 160.4 L161.7 160.3 L161.8 160.3 L161.9 160.1 L162.3 159.9 L162.5 159.7 L162.6 159.7 L162.8 159.6 L163.0 159.6 L163.1 159.6 L163.2 159.7 L163.4 159.8 L163.5 159.9 L163.6 159.9 L163.9 160.0 L164.0 160.0 L164.0 160.1 L164.1 160.2 L164.2 160.3 L164.3 160.3 L164.8 160.4 L164.9 160.4 L164.9 160.5 L165.0 160.5 L165.1 160.6 L165.2 160.6 L165.5 160.7 L165.5 160.8 Z M108.9 145.3 L108.9 145.5 L108.9 145.6 L108.9 145.7 L109.0 145.8 L108.9 145.9 L108.8 145.9 L108.8 146.0 L108.8 146.2 L108.9 146.6 L108.9 146.8 L108.9 146.8 L108.8 146.9 L108.8 147.0 L108.8 147.2 L108.8 147.2 L108.9 147.3 L108.9 147.3 L108.9 147.3 L108.9 147.4 L108.8 147.4 L108.8 147.5 L108.7 147.6 L108.6 147.7 L108.4 147.8 L108.2 147.9 L108.4 148.1 L108.3 148.1 L108.1 148.1 L107.9 148.0 L108.0 147.8 L107.9 147.7 L107.7 147.3 L107.5 146.8 L107.5 146.7 L107.6 145.3 L107.7 145.3 L107.7 145.4 L107.7 145.6 L107.8 145.6 L107.9 145.6 L108.0 145.5 L108.0 145.3 L108.1 145.3 L108.6 145.2 L108.8 145.2 L108.9 145.3 Z M111.5 142.4 L111.8 142.6 L111.8 142.9 L111.8 143.3 L111.9 143.5 L111.8 143.7 L111.7 143.8 L111.6 143.8 L111.4 143.8 L111.1 143.9 L111.0 143.7 L111.0 143.3 L110.9 143.0 L111.0 142.9 L111.0 142.5 L111.1 142.4 L111.2 142.5 L111.3 142.5 L111.4 142.4 L111.4 142.4 L111.4 142.4 L111.5 142.4 L111.5 142.4 L111.5 142.4 Z M192.6 132.9 L192.7 133.0 L192.8 133.1 L192.8 133.4 L192.8 133.7 L192.8 133.8 L192.8 134.0 L192.6 134.2 L192.5 134.2 L192.4 134.2 L192.3 134.2 L192.3 134.1 L192.2 134.0 L192.1 134.0 L192.0 134.0 L191.4 133.7 L191.1 133.4 L191.0 133.1 L191.1 132.7 L191.4 132.4 L191.8 132.3 L192.2 132.5 L192.4 132.7 L192.5 132.8 L192.6 132.9 Z M180.8 133.3 L180.8 133.3 L181.0 133.3 L181.0 133.4 L181.0 133.5 L180.8 133.7 L180.8 133.7 L180.7 133.7 L180.4 133.7 L180.3 133.7 L180.2 133.8 L180.2 133.8 L180.2 133.9 L180.1 134.0 L180.1 134.0 L179.9 133.9 L179.7 133.9 L179.5 133.9 L179.3 133.8 L178.4 133.2 L178.3 133.0 L178.3 132.9 L178.6 132.7 L178.8 132.8 L179.1 132.7 L179.3 132.6 L179.7 132.3 L179.7 132.3 L179.8 132.2 L179.8 132.0 L179.9 131.9 L180.0 131.9 L180.2 131.9 L180.3 131.9 L180.4 132.1 L180.6 132.4 L180.7 132.5 L180.8 132.5 L180.8 132.7 L180.7 132.8 L180.6 132.9 L180.6 133.0 L180.7 133.1 L180.8 133.3 Z M207.6 126.0 L207.7 126.2 L207.8 126.3 L207.7 126.5 L207.5 126.6 L207.3 126.7 L207.2 126.8 L207.1 126.8 L206.8 126.8 L206.4 126.6 L206.2 126.6 L206.3 126.9 L206.2 126.7 L206.0 126.6 L205.7 126.2 L205.7 126.1 L205.7 126.1 L205.8 126.0 L205.7 126.0 L205.7 125.9 L205.6 125.9 L205.5 125.9 L205.4 125.8 L205.6 125.8 L205.7 125.8 L205.8 125.8 L205.9 125.7 L205.8 125.6 L205.7 125.5 L205.6 125.4 L205.6 125.3 L206.3 124.2 L206.3 124.1 L206.3 124.0 L206.3 123.9 L206.3 123.8 L206.4 123.7 L206.6 123.6 L206.7 123.6 L207.2 124.7 L207.3 125.3 L207.3 125.4 L207.2 125.5 L207.1 125.6 L207.0 125.7 L207.2 125.8 L207.3 125.8 L207.5 125.9 L207.6 126.0 Z M190.2 125.6 L190.0 125.7 L190.3 125.9 L190.8 126.3 L190.6 126.9 L190.5 127.0 L190.4 127.1 L190.1 127.1 L189.9 127.1 L189.7 127.0 L189.7 126.9 L189.7 126.8 L189.6 126.7 L189.5 126.7 L189.4 126.8 L189.1 127.1 L189.0 127.2 L188.8 127.2 L188.7 127.3 L188.7 127.4 L188.7 127.6 L188.6 127.7 L188.6 127.8 L188.5 127.9 L188.2 128.1 L187.7 128.3 L187.3 128.5 L186.9 128.5 L186.5 128.5 L184.8 128.6 L183.4 128.3 L182.9 128.2 L182.7 128.0 L182.6 127.9 L182.6 127.6 L182.7 127.4 L182.7 127.2 L182.6 127.1 L182.4 127.0 L182.2 127.1 L182.0 127.0 L181.9 126.8 L181.9 126.6 L182.0 126.3 L182.2 125.9 L182.3 125.7 L182.7 125.4 L182.8 125.3 L182.8 125.1 L182.9 125.1 L183.0 125.2 L183.2 125.1 L183.2 125.0 L183.3 124.9 L183.3 124.9 L183.7 124.7 L184.2 124.6 L184.6 124.4 L184.8 124.1 L184.8 123.8 L184.9 123.7 L185.0 123.6 L185.3 123.5 L185.3 123.4 L185.3 123.3 L185.3 123.2 L185.4 123.1 L185.5 123.1 L185.6 123.0 L185.8 122.8 L185.9 122.7 L186.1 122.6 L186.5 122.5 L186.9 122.5 L187.7 122.4 L187.9 122.6 L187.9 123.0 L188.0 122.9 L188.2 122.6 L188.4 122.5 L188.4 122.7 L188.5 122.9 L188.6 123.0 L188.7 123.0 L189.2 123.4 L189.4 123.5 L189.7 123.5 L189.8 123.5 L190.0 123.7 L190.3 123.8 L190.5 123.9 L190.4 124.2 L190.4 124.4 L190.4 124.5 L190.2 124.3 L190.2 124.5 L190.2 124.7 L190.2 124.8 L190.1 125.0 L190.3 125.1 L190.4 125.3 L190.4 125.5 L190.2 125.6 Z M202.7 125.2 L202.8 125.3 L202.7 125.5 L202.5 125.6 L202.3 125.5 L202.1 125.4 L202.1 125.2 L202.1 125.1 L202.1 124.9 L202.0 124.8 L201.7 124.7 L201.6 124.6 L201.7 124.6 L201.7 124.6 L201.6 124.5 L201.6 124.4 L201.6 124.4 L201.6 124.3 L201.6 124.3 L201.4 124.3 L201.3 124.1 L201.3 123.8 L201.4 123.6 L201.5 123.7 L201.5 123.7 L201.6 123.7 L201.6 123.6 L201.6 123.5 L201.5 123.3 L201.4 123.2 L201.3 123.2 L201.3 123.3 L201.2 123.4 L201.1 123.3 L201.0 123.3 L200.9 123.3 L200.9 123.4 L200.7 123.5 L200.6 123.5 L200.5 123.4 L200.5 123.3 L200.5 123.1 L200.3 123.1 L200.3 123.0 L200.3 122.7 L200.3 122.6 L200.5 122.5 L200.6 122.4 L200.6 122.1 L200.5 121.9 L200.6 121.9 L200.7 121.9 L200.7 122.0 L200.8 122.0 L200.8 121.9 L200.7 121.7 L200.7 121.6 L200.8 121.4 L200.8 121.4 L200.7 121.4 L200.7 121.3 L200.7 121.3 L200.7 121.1 L200.6 120.9 L200.6 120.7 L200.9 120.7 L201.0 120.7 L201.0 120.6 L201.0 120.3 L201.0 120.3 L201.0 120.2 L201.0 120.2 L201.0 120.1 L201.1 120.1 L201.2 120.0 L201.2 120.1 L201.3 120.2 L201.4 120.2 L201.5 120.2 L201.6 120.2 L201.6 120.1 L201.6 119.6 L201.7 119.4 L201.8 119.3 L201.9 119.2 L202.0 119.2 L202.1 119.2 L202.2 119.5 L202.4 119.8 L202.4 120.2 L202.2 121.0 L202.1 121.3 L202.1 121.3 L202.0 121.3 L201.9 121.3 L201.9 121.4 L201.9 121.5 L201.9 121.6 L202.1 121.7 L202.2 121.9 L202.1 122.0 L202.2 122.1 L202.0 122.2 L202.1 122.3 L202.2 122.4 L202.4 122.3 L202.3 122.6 L202.3 122.8 L202.3 123.0 L202.5 123.2 L202.6 123.3 L202.6 123.4 L202.6 123.6 L202.5 123.7 L202.4 123.9 L202.3 124.0 L202.4 124.0 L202.5 124.5 L202.3 124.6 L202.4 124.8 L202.6 125.0 L202.7 125.2 Z M140.0 117.6 L140.3 117.7 L140.6 117.9 L140.7 118.0 L140.5 118.1 L140.5 118.2 L140.5 118.3 L140.4 118.4 L140.2 118.5 L140.0 118.4 L140.0 118.4 L140.0 118.5 L140.0 118.5 L140.0 118.6 L139.7 118.2 L139.6 118.1 L139.6 118.4 L139.7 118.6 L139.7 118.8 L139.7 119.0 L139.6 119.0 L139.4 119.0 L139.3 119.0 L139.3 119.1 L139.3 119.1 L139.2 119.2 L139.0 119.2 L138.8 119.2 L138.6 119.3 L138.5 119.3 L138.3 119.2 L138.2 119.1 L138.2 118.8 L138.2 118.4 L138.0 118.4 L137.9 118.4 L137.9 118.3 L137.9 118.3 L138.4 118.0 L138.5 117.8 L138.7 117.4 L138.8 117.3 L138.9 117.2 L139.0 117.2 L139.1 117.2 L139.4 117.4 L139.7 117.5 L140.0 117.6 Z M170.1 116.2 L170.3 116.6 L170.3 117.2 L170.2 117.8 L169.8 118.7 L169.5 119.1 L169.2 119.4 L168.8 119.5 L168.9 119.2 L168.8 119.2 L168.6 119.3 L168.5 119.4 L168.5 119.5 L168.3 119.6 L168.2 119.6 L168.1 119.6 L168.0 119.5 L168.0 119.3 L168.0 119.2 L168.0 119.1 L168.0 119.0 L167.9 119.0 L167.8 119.0 L167.7 119.0 L167.7 118.9 L167.6 118.8 L167.6 118.7 L167.7 118.7 L167.8 118.7 L167.9 118.7 L168.0 118.6 L168.0 118.5 L168.1 118.4 L168.3 118.3 L168.3 118.2 L168.1 118.2 L168.1 118.0 L168.1 117.8 L168.2 117.6 L168.3 117.4 L168.5 117.1 L168.6 117.0 L168.7 116.9 L168.9 116.8 L169.1 116.8 L169.2 116.3 L169.3 116.2 L169.5 116.1 L169.6 115.9 L169.9 116.1 L170.1 116.2 Z M179.4 115.2 L179.4 115.2 L179.4 115.7 L179.3 115.9 L179.0 116.4 L178.8 116.8 L178.5 118.2 L178.3 118.5 L177.4 119.4 L177.3 119.6 L177.2 119.9 L176.9 120.4 L176.9 120.6 L176.9 121.4 L176.8 121.6 L176.5 122.3 L176.5 122.5 L176.4 122.8 L176.4 123.0 L176.3 123.2 L175.8 123.9 L175.7 124.2 L175.7 124.2 L175.6 124.3 L175.6 124.4 L175.4 124.9 L175.1 125.2 L175.0 125.4 L174.9 125.6 L175.0 127.5 L175.0 127.8 L175.0 127.9 L174.9 128.0 L174.9 128.0 L174.8 128.0 L174.7 128.1 L174.7 128.3 L175.1 128.6 L175.0 128.9 L174.9 128.7 L174.8 128.8 L174.7 129.1 L174.9 129.2 L175.2 129.2 L175.3 129.3 L175.3 129.5 L175.3 129.8 L175.5 129.9 L175.7 130.1 L175.9 130.2 L176.1 130.7 L176.3 130.9 L176.5 131.1 L176.7 131.3 L176.8 131.8 L176.6 132.3 L176.4 132.7 L175.8 133.6 L175.8 133.8 L175.7 133.9 L174.9 134.3 L174.8 134.4 L174.4 134.4 L174.3 134.4 L174.1 134.5 L173.8 134.6 L173.7 134.7 L173.6 134.7 L173.1 134.5 L172.7 134.2 L172.5 133.7 L172.0 132.7 L172.0 131.9 L171.9 131.7 L171.8 131.6 L171.5 131.3 L171.3 131.2 L171.1 131.1 L170.4 131.1 L170.2 131.0 L169.7 130.8 L169.6 130.7 L169.5 130.7 L169.4 130.6 L169.3 130.5 L169.2 130.4 L169.1 130.4 L169.0 130.4 L168.8 130.4 L168.8 130.3 L168.7 130.2 L168.5 129.9 L168.3 129.7 L168.1 129.2 L167.9 129.1 L167.8 129.1 L167.7 129.0 L167.4 128.3 L167.3 128.1 L167.4 128.0 L167.3 127.9 L167.1 127.7 L167.1 127.8 L167.0 127.9 L166.9 127.9 L166.9 127.7 L167.0 127.5 L167.0 127.3 L166.9 127.3 L166.8 127.4 L166.7 127.5 L166.7 127.0 L166.8 126.6 L166.8 126.3 L166.6 126.0 L166.6 125.9 L166.7 125.8 L167.1 125.0 L167.3 124.6 L167.5 124.5 L167.7 124.4 L168.2 124.3 L168.4 124.3 L169.1 124.5 L169.3 124.6 L169.5 124.5 L170.0 124.3 L170.2 124.2 L170.8 123.6 L171.1 123.4 L171.3 123.6 L171.5 123.5 L171.8 123.1 L171.9 122.9 L171.8 122.6 L171.7 122.2 L171.6 121.7 L171.8 120.4 L171.7 119.9 L171.3 119.1 L171.2 118.6 L171.3 118.4 L171.5 118.3 L171.7 118.3 L171.8 118.2 L171.8 118.1 L172.2 117.7 L172.5 117.1 L172.5 117.0 L172.9 116.4 L172.9 116.1 L172.9 115.4 L172.8 115.4 L172.7 115.3 L172.7 115.2 L172.7 115.0 L172.7 114.9 L172.7 114.8 L172.8 114.7 L173.1 114.3 L173.2 114.3 L173.7 114.2 L173.9 114.2 L174.1 114.1 L175.0 113.6 L175.5 113.4 L176.0 113.4 L176.0 113.4 L176.1 113.5 L176.1 113.6 L176.2 113.6 L176.4 113.6 L176.5 113.6 L176.6 113.7 L176.8 113.9 L176.9 113.9 L177.0 113.9 L177.3 113.8 L177.4 113.8 L177.6 113.8 L177.6 113.9 L177.5 114.0 L177.5 114.1 L177.6 114.2 L177.7 114.1 L177.8 114.1 L177.9 114.0 L178.0 114.0 L178.2 114.0 L178.3 114.0 L178.7 114.1 L178.9 114.2 L179.0 114.4 L179.1 114.8 L179.1 114.9 L179.3 115.1 L179.3 115.1 L179.4 115.1 L179.4 115.1 L179.4 115.2 Z M184.6 115.1 L184.5 115.4 L184.3 115.8 L184.3 116.1 L184.3 116.5 L184.6 117.4 L184.7 117.8 L184.6 117.8 L184.5 117.8 L184.5 117.9 L184.4 117.9 L184.4 118.0 L184.5 118.0 L184.5 118.1 L184.5 118.9 L184.4 119.1 L184.2 119.8 L184.2 119.9 L184.3 120.1 L184.2 120.1 L184.0 120.3 L184.0 120.2 L183.9 120.1 L183.8 120.1 L183.8 120.2 L183.7 120.3 L183.8 120.6 L183.6 120.7 L183.0 121.0 L182.9 121.1 L182.6 121.5 L182.5 121.6 L182.2 121.6 L182.0 121.6 L181.8 121.7 L181.6 122.0 L181.0 122.5 L180.9 122.7 L180.9 122.9 L180.9 123.0 L180.8 123.2 L180.6 123.3 L180.5 123.3 L180.4 123.4 L180.3 123.4 L180.3 123.5 L180.2 123.6 L180.2 123.7 L180.2 123.8 L180.2 124.6 L180.0 125.2 L180.0 125.4 L180.0 125.5 L179.9 125.6 L179.8 125.6 L179.7 125.6 L178.7 128.0 L178.7 128.4 L178.5 128.9 L178.4 129.1 L178.3 129.2 L178.1 129.3 L178.0 129.4 L177.9 129.5 L177.8 129.8 L177.2 130.4 L177.1 130.5 L176.9 130.6 L176.8 130.6 L176.7 130.4 L176.6 129.8 L176.6 129.5 L177.2 126.5 L177.6 125.5 L177.6 125.3 L177.7 125.0 L177.6 125.0 L177.4 124.9 L177.4 124.8 L177.4 124.5 L177.4 124.4 L177.5 124.4 L177.6 124.4 L177.6 124.5 L177.7 124.5 L177.7 124.4 L177.7 124.3 L177.7 124.1 L177.8 123.8 L177.9 123.6 L178.3 123.3 L178.7 122.9 L178.9 122.6 L179.0 122.1 L179.5 121.4 L179.7 120.7 L179.8 120.6 L180.0 120.4 L180.9 119.2 L180.9 119.0 L180.9 119.0 L181.0 118.9 L181.0 118.8 L181.1 118.7 L181.0 118.4 L181.0 118.2 L181.1 118.0 L181.4 117.7 L181.5 117.2 L181.6 117.0 L181.8 116.8 L182.2 116.3 L182.4 116.0 L183.1 114.0 L183.3 113.6 L183.3 113.4 L183.2 113.0 L183.2 112.8 L183.4 112.7 L183.5 112.5 L183.5 112.3 L183.5 112.3 L183.6 112.3 L183.6 112.4 L183.8 112.5 L183.6 111.9 L183.6 111.8 L183.5 111.6 L183.6 111.4 L183.7 111.2 L184.3 110.5 L184.6 110.3 L184.9 110.4 L184.8 110.5 L184.8 110.8 L184.7 111.1 L184.6 111.3 L184.6 111.7 L184.5 111.9 L184.2 112.3 L184.1 112.5 L184.2 112.5 L184.2 112.6 L184.2 112.7 L184.2 112.7 L184.5 112.7 L184.6 112.7 L184.7 112.6 L184.6 112.9 L184.7 113.5 L184.7 113.7 L184.6 114.1 L184.7 114.3 L184.8 114.5 L184.8 114.6 L184.8 114.8 L184.6 115.0 L184.6 115.1 Z M181.9 111.4 L182.0 111.5 L182.1 111.6 L182.0 111.7 L181.3 111.8 L181.3 111.8 L181.2 111.6 L180.9 111.0 L180.9 110.7 L180.9 110.6 L181.0 110.5 L181.2 110.2 L181.3 110.1 L181.4 110.2 L181.5 110.3 L181.8 111.2 L181.9 111.4 Z M137.0 118.2 L137.5 118.4 L137.6 118.6 L137.4 118.8 L137.3 118.9 L137.1 118.9 L137.0 119.0 L136.8 119.3 L136.7 119.4 L136.2 119.8 L136.0 120.1 L135.8 120.1 L135.6 120.2 L135.2 120.2 L135.0 120.1 L134.9 120.1 L134.8 120.1 L134.6 120.1 L134.3 120.3 L134.0 120.4 L133.8 120.5 L133.6 120.6 L132.8 121.4 L132.5 121.8 L132.3 122.2 L132.1 123.3 L131.9 123.6 L131.5 123.7 L131.0 123.9 L130.8 123.9 L130.6 124.1 L130.5 124.1 L130.4 124.1 L130.1 124.1 L130.0 124.1 L129.9 124.2 L129.7 124.3 L129.5 124.3 L129.4 124.4 L129.2 124.4 L128.7 124.4 L128.4 124.5 L128.1 124.6 L127.8 124.9 L127.5 124.8 L127.3 124.9 L127.1 125.1 L127.0 125.4 L127.1 125.8 L127.3 126.2 L127.4 126.5 L127.3 127.1 L127.2 127.1 L127.0 127.1 L126.8 127.0 L126.8 126.8 L126.8 126.6 L126.8 126.6 L126.6 126.6 L126.5 126.6 L126.5 126.8 L126.5 127.0 L126.5 127.2 L126.6 127.2 L126.7 127.3 L126.7 127.4 L126.6 127.5 L126.9 127.5 L127.1 127.6 L127.1 127.8 L126.8 127.8 L126.8 128.0 L126.7 128.2 L126.6 128.4 L126.5 128.5 L126.5 128.6 L126.4 128.7 L126.4 128.8 L126.2 128.8 L126.1 128.9 L125.3 130.2 L124.9 130.6 L124.8 130.7 L124.8 130.9 L124.7 131.1 L124.3 131.7 L124.2 131.7 L123.8 132.0 L123.7 132.0 L123.5 132.1 L123.0 132.7 L122.8 133.0 L122.7 133.1 L122.5 133.1 L122.1 133.1 L121.9 133.1 L121.7 133.3 L121.6 133.3 L120.9 133.4 L120.7 133.4 L120.6 133.5 L120.3 133.6 L120.3 133.7 L120.2 134.0 L120.1 134.3 L120.1 134.4 L120.1 134.5 L120.1 134.5 L120.0 134.5 L120.0 134.5 L119.9 134.6 L119.9 134.6 L119.8 134.8 L119.7 135.1 L119.5 135.6 L119.0 136.3 L118.9 136.4 L117.9 136.9 L117.1 137.5 L116.4 138.3 L116.2 138.4 L115.9 138.5 L115.7 138.5 L115.6 138.6 L115.4 138.6 L115.2 138.7 L115.0 138.7 L114.4 138.6 L114.1 138.7 L114.0 139.0 L114.0 139.4 L114.0 139.7 L113.7 140.1 L113.6 140.3 L113.6 140.4 L113.5 140.5 L113.3 140.5 L113.3 140.5 L113.2 140.4 L113.1 140.3 L112.1 140.6 L111.7 140.8 L111.4 141.0 L111.4 141.1 L111.3 141.3 L111.3 141.3 L110.9 141.4 L110.9 141.6 L110.7 141.8 L110.4 142.0 L110.1 142.3 L110.1 142.3 L110.0 141.9 L110.1 141.8 L110.2 141.6 L110.2 141.4 L110.3 141.3 L110.4 141.2 L110.4 141.2 L110.4 141.1 L110.4 140.8 L110.4 140.7 L110.4 140.5 L110.4 140.5 L110.4 140.4 L110.5 140.4 L110.6 140.1 L110.7 139.9 L110.9 139.5 L110.9 139.5 L110.9 139.3 L111.0 139.4 L111.1 139.2 L111.2 139.0 L111.3 138.9 L111.4 138.8 L111.5 138.7 L111.7 138.5 L111.8 138.3 L111.7 138.3 L111.9 138.0 L112.1 137.8 L112.5 137.7 L112.7 137.5 L112.9 137.3 L113.6 136.1 L113.9 135.9 L114.8 135.1 L114.9 134.8 L115.0 134.6 L115.1 134.4 L115.3 134.3 L115.5 134.3 L115.6 134.2 L115.7 134.2 L115.8 134.3 L115.8 134.3 L115.9 134.4 L116.0 134.3 L116.1 134.3 L116.3 134.2 L116.3 134.1 L116.5 133.8 L116.5 133.7 L116.5 133.7 L116.6 133.6 L116.6 133.5 L116.5 133.4 L116.6 133.3 L117.1 133.0 L117.2 133.0 L117.4 132.8 L117.7 132.3 L117.8 132.2 L118.3 132.3 L118.5 132.3 L118.7 132.2 L118.7 132.3 L118.7 132.4 L118.8 132.5 L118.9 132.5 L119.0 132.4 L119.1 132.3 L119.3 132.0 L119.4 131.9 L120.2 131.4 L120.3 131.3 L120.3 131.2 L120.3 131.0 L120.3 130.9 L120.5 130.7 L120.7 130.6 L120.9 130.5 L121.2 129.9 L121.9 129.4 L122.1 129.0 L122.4 128.8 L122.5 128.7 L122.5 128.6 L122.5 128.6 L122.6 128.5 L122.6 128.4 L122.6 128.1 L122.6 128.0 L122.8 127.9 L122.9 127.9 L123.0 127.9 L123.2 127.7 L123.3 127.7 L123.4 127.7 L123.4 127.7 L123.5 127.5 L123.5 127.4 L123.6 127.4 L123.7 127.4 L123.8 127.3 L124.6 126.6 L124.7 126.5 L124.8 126.2 L125.3 125.7 L125.4 125.6 L125.5 125.4 L125.5 125.3 L125.6 125.1 L126.0 124.6 L126.1 124.5 L126.0 124.2 L126.2 124.1 L126.7 123.8 L126.8 123.7 L127.2 122.9 L127.2 122.8 L127.3 123.1 L127.3 123.3 L127.2 123.4 L127.1 123.4 L127.3 123.6 L127.6 123.7 L127.7 123.6 L127.7 123.5 L127.8 123.4 L127.9 123.3 L127.9 123.3 L128.0 123.2 L128.0 123.1 L127.9 123.1 L127.7 122.7 L127.7 122.5 L127.7 122.3 L127.7 122.1 L127.8 122.1 L128.0 122.1 L128.1 122.1 L128.4 121.9 L128.5 121.9 L128.8 121.9 L129.0 121.9 L129.2 121.8 L129.3 121.6 L129.3 121.4 L129.2 121.3 L129.2 121.1 L129.2 121.1 L129.3 121.1 L129.3 121.1 L129.4 121.1 L129.5 121.0 L129.6 120.9 L129.8 120.9 L130.0 120.8 L130.0 120.7 L130.0 120.5 L130.1 120.4 L129.9 120.3 L129.8 120.3 L129.7 120.4 L129.5 120.5 L129.5 120.3 L129.5 120.2 L129.6 120.0 L129.7 119.9 L129.8 119.8 L130.0 119.8 L130.2 119.8 L130.4 119.9 L130.5 119.9 L130.6 119.8 L130.6 119.7 L130.6 119.6 L130.9 119.6 L130.8 119.4 L130.7 119.3 L130.6 119.3 L130.7 119.1 L130.7 119.1 L130.9 119.0 L131.0 118.9 L131.0 119.0 L131.0 119.1 L131.0 119.1 L131.0 119.3 L131.1 119.9 L131.2 120.0 L131.4 119.9 L131.7 119.6 L131.8 119.3 L131.8 119.3 L131.9 119.2 L132.0 119.2 L132.1 119.2 L132.2 118.9 L132.6 118.8 L132.7 118.7 L132.6 118.5 L132.5 118.4 L132.4 118.3 L132.4 118.1 L132.6 118.2 L132.9 118.1 L133.1 117.9 L133.2 117.8 L133.5 116.3 L133.4 116.2 L133.3 116.0 L133.3 116.0 L133.2 115.9 L133.2 115.8 L133.1 115.8 L133.0 115.8 L132.9 115.9 L132.8 115.9 L132.7 115.8 L132.7 115.7 L132.7 115.4 L132.6 115.2 L132.5 115.1 L132.3 115.0 L132.1 114.9 L132.5 114.5 L132.5 114.5 L132.4 114.4 L132.3 114.3 L132.2 114.2 L132.3 114.1 L132.1 114.0 L132.2 113.9 L132.4 113.9 L132.4 114.1 L132.5 114.1 L132.5 114.1 L132.6 114.0 L132.6 114.1 L132.7 114.1 L132.7 114.1 L132.8 114.1 L132.9 114.1 L132.8 114.2 L132.8 114.2 L132.7 114.3 L132.9 114.6 L132.7 114.6 L132.7 114.7 L132.9 114.7 L133.0 114.7 L133.1 114.6 L133.0 114.9 L133.1 115.0 L133.2 115.1 L133.3 115.2 L133.4 115.2 L133.4 115.2 L133.5 115.2 L133.5 115.4 L133.7 115.5 L133.9 115.6 L134.0 115.7 L134.0 115.8 L134.1 115.9 L134.2 115.9 L134.3 115.8 L134.4 115.9 L134.4 116.0 L134.5 116.1 L134.5 116.2 L134.6 116.3 L134.7 116.3 L134.8 116.2 L134.8 116.1 L134.8 116.0 L134.7 116.0 L134.6 115.6 L134.5 115.5 L134.5 115.4 L134.6 115.2 L134.7 115.2 L134.6 115.0 L134.4 114.9 L134.3 114.8 L134.1 114.8 L133.9 114.8 L133.7 114.8 L133.6 114.7 L133.5 114.4 L133.5 114.3 L133.6 114.1 L133.6 114.1 L133.5 114.0 L133.4 114.1 L133.2 114.0 L133.2 113.9 L133.2 113.3 L133.3 113.2 L133.3 113.1 L133.3 113.1 L133.4 113.2 L133.4 113.3 L133.5 113.3 L133.6 113.3 L133.6 113.1 L133.3 112.6 L133.3 112.3 L133.4 112.2 L133.5 112.4 L133.7 112.6 L133.8 112.7 L133.9 112.7 L134.0 112.8 L134.1 112.8 L134.2 112.7 L134.3 112.6 L134.3 112.3 L134.4 112.0 L134.4 111.9 L134.3 111.8 L134.2 111.8 L134.1 111.6 L134.0 111.5 L133.9 111.3 L134.1 111.3 L134.2 111.2 L134.3 111.0 L134.4 110.9 L134.4 110.6 L134.3 110.1 L134.3 109.9 L134.4 109.9 L134.4 109.8 L134.4 109.8 L134.5 109.7 L134.5 109.7 L134.6 109.7 L134.6 109.7 L134.6 109.7 L134.8 109.6 L134.9 109.4 L134.9 109.3 L134.9 109.0 L135.0 108.9 L135.1 108.8 L135.2 108.7 L135.3 108.8 L135.3 109.0 L135.3 109.1 L135.3 109.3 L135.3 109.4 L135.4 109.5 L135.4 109.6 L135.5 109.7 L135.6 109.8 L135.6 109.8 L135.7 109.7 L135.7 109.7 L135.9 110.0 L135.9 110.5 L135.8 110.9 L135.6 111.4 L135.4 111.8 L135.3 112.0 L135.5 112.3 L135.7 112.5 L135.8 112.7 L135.9 113.2 L135.9 113.2 L135.8 113.3 L135.6 113.2 L135.4 113.1 L135.3 113.2 L135.2 113.5 L135.2 113.6 L135.2 113.8 L135.3 114.0 L135.3 114.1 L135.3 114.2 L135.2 114.4 L135.2 114.6 L135.2 114.7 L135.3 114.9 L135.4 115.1 L135.4 115.2 L135.5 115.3 L135.6 115.3 L135.8 115.3 L135.8 115.2 L135.9 115.2 L135.9 115.2 L136.1 115.1 L136.1 115.1 L136.2 115.1 L136.3 115.2 L136.3 115.4 L136.2 115.5 L136.2 115.7 L136.2 116.0 L136.2 116.4 L136.2 116.6 L136.1 116.8 L136.1 116.9 L136.3 117.0 L136.5 116.9 L136.7 116.8 L136.8 116.9 L137.0 117.1 L136.9 117.1 L136.8 117.1 L136.7 117.1 L136.6 117.1 L136.7 117.2 L136.7 117.3 L136.7 117.3 L136.7 117.4 L136.8 117.5 L136.9 118.0 L137.0 118.2 Z M197.9 120.7 L197.9 120.9 L197.9 121.2 L197.8 121.4 L197.4 121.4 L196.7 121.1 L196.5 121.2 L196.4 121.4 L196.4 121.7 L196.5 122.0 L196.6 122.2 L196.2 122.0 L195.9 121.7 L195.7 121.3 L195.6 120.9 L195.4 120.7 L195.4 120.7 L195.4 120.6 L195.4 120.2 L195.3 120.1 L195.0 120.0 L194.8 120.0 L194.7 120.2 L194.8 120.6 L194.9 122.0 L195.2 122.7 L195.3 123.2 L195.4 123.7 L195.4 123.9 L195.3 124.0 L195.1 123.9 L194.5 123.5 L194.5 123.4 L194.4 123.3 L194.3 123.2 L194.1 123.2 L194.0 123.1 L193.9 123.0 L193.8 122.8 L193.7 122.7 L193.4 122.7 L192.9 122.7 L192.7 122.6 L192.5 122.5 L192.4 122.2 L192.4 121.7 L192.6 121.3 L192.7 120.9 L192.7 120.7 L192.6 120.4 L192.4 120.1 L192.2 120.0 L192.1 119.9 L192.1 119.6 L192.1 119.3 L192.1 118.8 L192.2 118.7 L192.2 118.6 L192.4 118.5 L192.4 118.4 L192.4 117.9 L192.5 117.7 L192.7 117.0 L192.8 116.8 L192.8 116.3 L192.5 115.3 L192.5 115.2 L192.1 114.8 L192.0 114.8 L192.0 114.6 L191.9 114.4 L191.6 114.0 L191.1 113.6 L191.0 113.6 L191.0 113.4 L190.8 113.3 L190.6 113.3 L190.4 113.3 L190.2 113.4 L190.0 113.5 L190.0 113.7 L190.1 113.9 L190.2 114.1 L190.1 114.3 L189.9 114.5 L189.8 114.6 L189.6 114.7 L189.6 114.7 L189.2 114.4 L189.2 114.4 L189.0 114.4 L188.9 114.4 L188.9 114.1 L188.8 114.0 L188.7 114.1 L188.5 114.1 L188.4 114.1 L188.4 114.0 L188.4 113.8 L188.4 113.7 L188.6 113.5 L188.6 113.3 L188.6 113.1 L188.5 113.0 L188.4 112.9 L188.3 112.8 L188.3 112.6 L188.3 112.4 L188.4 112.3 L188.5 112.1 L188.6 112.0 L188.6 111.9 L188.6 111.8 L188.5 111.7 L188.5 111.0 L188.5 110.0 L188.3 110.1 L188.1 109.9 L187.9 109.8 L187.9 109.5 L187.9 109.5 L188.0 109.3 L188.1 109.2 L187.9 109.2 L187.8 109.1 L187.7 109.1 L187.8 109.0 L187.8 108.9 L187.7 108.8 L187.6 108.7 L187.6 108.5 L187.4 108.3 L187.3 107.6 L187.3 107.4 L187.4 107.4 L187.6 107.3 L187.6 107.3 L187.8 107.3 L188.0 107.7 L188.7 108.2 L188.9 108.5 L189.3 109.1 L189.3 108.7 L189.4 108.5 L189.5 108.5 L189.9 108.7 L190.0 108.9 L190.2 109.6 L190.5 109.9 L190.9 110.0 L191.4 110.0 L191.8 109.9 L192.1 109.8 L192.7 109.3 L193.1 108.7 L193.2 108.6 L193.3 108.6 L193.6 108.7 L193.7 108.8 L193.7 108.7 L193.7 108.6 L193.8 108.6 L193.8 108.6 L193.9 108.7 L193.9 108.7 L193.9 108.8 L194.2 108.7 L194.3 108.8 L194.4 108.8 L194.6 109.0 L194.7 109.1 L194.8 109.2 L194.7 109.4 L194.7 109.7 L194.6 109.9 L194.5 110.0 L194.6 110.1 L194.6 110.2 L194.6 110.2 L194.6 110.3 L194.7 110.4 L194.7 110.4 L194.8 110.4 L194.8 110.4 L194.9 110.5 L195.0 110.5 L195.1 110.5 L195.1 110.6 L195.2 110.8 L195.2 110.8 L195.3 110.8 L195.3 110.6 L195.4 110.6 L195.4 111.0 L195.4 111.1 L195.3 111.2 L195.2 111.3 L195.2 111.4 L195.2 111.5 L195.4 111.8 L195.4 111.9 L195.4 112.2 L195.5 113.2 L195.5 113.7 L195.1 115.0 L195.0 115.5 L195.1 116.0 L195.2 116.1 L195.9 116.4 L196.1 116.5 L196.2 116.6 L196.3 116.6 L196.3 117.0 L196.8 117.5 L196.8 117.5 L197.0 117.6 L197.1 117.9 L196.9 118.4 L197.0 118.5 L197.1 118.8 L197.1 118.9 L197.1 119.3 L197.1 119.5 L197.2 119.6 L197.3 119.9 L197.4 120.0 L197.5 119.9 L197.6 119.9 L197.7 120.0 L197.8 120.2 L197.9 120.4 L197.9 120.7 Z M175.0 108.1 L175.1 108.2 L175.0 108.4 L174.9 108.6 L174.9 108.7 L174.9 109.0 L174.9 109.2 L174.8 109.4 L174.8 109.5 L174.8 109.5 L174.6 109.5 L174.6 109.6 L174.5 109.6 L174.5 109.7 L174.5 109.7 L174.5 110.0 L174.5 110.0 L174.4 110.3 L174.4 110.4 L174.4 110.8 L174.5 110.9 L174.6 111.0 L174.6 111.0 L174.7 111.2 L174.6 111.3 L174.4 111.5 L174.4 111.7 L174.1 111.6 L173.9 111.5 L173.6 111.5 L173.5 112.1 L173.4 112.3 L173.1 112.5 L172.9 112.6 L172.9 112.7 L172.9 112.8 L172.7 112.9 L172.7 112.8 L172.7 112.7 L172.6 112.6 L172.5 112.6 L172.5 112.7 L172.4 112.9 L172.4 113.0 L172.3 113.0 L172.2 113.0 L172.1 112.9 L172.0 112.9 L171.9 113.0 L171.7 113.2 L171.7 113.0 L171.4 113.1 L171.1 113.3 L170.9 113.6 L170.8 113.8 L170.9 114.1 L171.0 114.4 L171.0 114.7 L170.9 115.0 L170.6 115.4 L170.4 115.5 L170.2 115.6 L170.1 115.6 L170.0 115.5 L169.9 115.5 L169.8 115.5 L169.6 115.6 L169.4 115.6 L169.3 115.7 L169.2 115.8 L169.0 115.9 L169.0 116.0 L168.9 116.1 L168.9 116.2 L168.9 116.2 L168.9 116.3 L168.8 116.4 L168.7 116.6 L168.2 116.7 L167.2 116.7 L166.3 116.9 L166.2 116.9 L166.1 117.0 L166.0 117.0 L165.6 117.0 L165.5 117.0 L165.4 117.1 L165.2 117.2 L165.1 117.3 L165.0 117.3 L164.9 117.2 L164.8 117.2 L164.7 117.3 L164.2 117.7 L164.1 117.7 L164.0 117.8 L163.9 117.8 L163.7 117.8 L163.4 118.0 L162.8 119.1 L162.7 119.2 L162.5 119.4 L162.1 119.5 L161.8 119.5 L161.6 119.1 L161.6 118.7 L162.0 117.9 L162.2 117.4 L162.2 117.2 L162.1 116.5 L162.0 116.3 L161.7 116.0 L161.6 115.8 L161.7 115.6 L161.8 115.2 L161.9 114.9 L162.1 114.4 L162.8 113.1 L162.9 112.6 L162.9 110.8 L162.9 110.6 L162.8 110.3 L162.8 110.1 L162.9 109.8 L163.0 109.6 L163.0 109.4 L163.1 108.1 L163.1 108.1 L163.2 108.0 L163.3 107.9 L163.5 106.2 L163.4 105.8 L163.2 105.4 L163.0 105.4 L162.6 105.3 L162.2 105.3 L161.9 105.1 L161.7 105.1 L161.4 105.0 L161.0 105.1 L160.9 105.0 L160.7 105.0 L160.7 104.9 L160.8 104.8 L160.9 104.7 L161.0 104.6 L161.1 104.5 L161.1 104.4 L161.1 104.2 L161.1 104.0 L161.1 103.9 L161.1 103.7 L161.2 103.6 L161.3 103.6 L161.4 103.6 L161.5 103.5 L161.7 103.3 L161.7 103.3 L161.8 103.2 L161.9 103.2 L161.9 103.2 L162.0 103.2 L162.1 103.3 L162.1 103.4 L162.2 103.4 L162.5 103.5 L162.7 103.6 L162.9 103.9 L163.1 104.1 L163.3 104.3 L163.6 104.4 L164.8 104.6 L165.2 104.8 L165.6 105.0 L165.8 105.3 L166.0 105.3 L166.4 105.4 L166.5 105.4 L167.0 106.1 L167.1 106.2 L167.3 106.2 L167.4 106.3 L167.9 106.8 L168.5 107.1 L168.7 107.2 L168.8 107.3 L168.8 107.4 L168.8 107.5 L168.9 107.7 L169.1 107.8 L169.2 107.8 L169.3 107.7 L169.4 107.6 L169.4 107.5 L169.4 107.4 L169.4 107.4 L169.4 107.2 L169.5 107.1 L169.6 107.2 L169.8 107.4 L169.8 107.4 L170.0 107.4 L169.9 107.3 L169.9 107.2 L170.0 107.2 L170.1 107.1 L170.3 106.9 L170.3 106.8 L170.3 106.8 L170.2 106.7 L170.2 106.7 L170.5 106.7 L171.0 106.7 L171.3 106.7 L171.6 106.9 L171.7 107.1 L171.8 107.2 L171.8 107.4 L172.0 107.4 L172.1 107.4 L172.6 107.6 L172.0 108.0 L171.8 108.3 L171.8 108.5 L172.1 108.6 L172.4 108.4 L172.7 108.2 L173.0 108.1 L173.3 108.0 L173.7 107.7 L174.2 107.6 L174.5 107.4 L174.7 107.1 L174.9 106.8 L175.0 106.8 L175.0 107.5 L174.9 107.6 L174.8 107.7 L174.7 107.7 L174.6 107.7 L174.5 107.8 L174.5 107.9 L174.6 108.0 L174.7 108.0 L174.8 108.0 L174.7 108.1 L174.8 108.1 L175.0 108.1 Z M140.9 103.6 L141.2 103.9 L141.4 103.9 L141.5 104.0 L141.4 104.0 L141.1 104.0 L141.1 104.1 L141.1 104.3 L141.0 104.4 L141.0 104.5 L141.1 104.5 L141.2 104.6 L141.2 104.5 L141.3 104.6 L141.3 104.6 L141.4 104.7 L141.5 104.7 L141.2 105.0 L141.2 105.0 L141.3 105.3 L141.1 105.6 L140.7 105.9 L140.4 105.9 L140.2 106.1 L140.1 105.9 L140.0 105.6 L140.1 105.3 L140.3 105.4 L140.3 105.5 L140.3 105.6 L140.4 105.6 L140.4 105.4 L140.4 105.3 L140.3 105.3 L140.5 105.1 L140.6 105.0 L140.6 104.8 L140.6 104.7 L140.5 104.7 L140.4 104.7 L140.3 104.7 L140.3 104.9 L140.1 105.0 L140.0 105.0 L139.8 104.9 L139.7 104.8 L139.6 104.5 L139.5 104.4 L139.6 104.3 L139.7 104.2 L139.7 104.2 L139.6 104.0 L139.3 103.8 L139.2 103.6 L139.2 103.5 L139.0 103.0 L139.1 103.0 L139.1 103.0 L139.2 103.0 L139.3 103.0 L139.3 103.0 L139.3 103.1 L139.4 103.1 L139.4 103.1 L139.4 103.1 L139.5 103.0 L139.4 103.0 L139.4 103.0 L139.4 102.9 L139.6 102.7 L139.7 102.7 L139.8 102.9 L140.2 103.1 L140.1 103.2 L140.3 103.3 L140.8 103.3 L140.9 103.3 L140.9 103.3 L140.9 103.4 L140.6 103.4 L140.7 103.5 L140.8 103.6 L140.9 103.6 Z M144.4 102.1 L144.4 102.3 L144.4 102.4 L144.3 102.5 L144.1 102.5 L144.0 102.5 L143.9 102.5 L143.9 102.5 L143.8 102.4 L143.6 102.4 L143.4 102.5 L143.3 102.6 L143.2 102.6 L143.0 102.5 L142.9 102.4 L142.8 102.4 L142.6 102.4 L142.6 102.3 L142.5 102.2 L142.3 102.2 L142.1 102.1 L142.0 102.2 L142.1 102.4 L142.1 102.5 L142.1 102.6 L142.0 102.7 L142.0 102.7 L141.9 102.7 L141.9 102.7 L141.8 102.8 L141.8 102.8 L141.6 102.5 L141.5 102.4 L141.0 102.5 L140.8 102.5 L140.6 102.3 L140.4 102.2 L140.3 101.9 L140.0 101.5 L139.9 101.3 L139.9 101.1 L139.9 101.0 L139.8 100.9 L139.7 100.8 L139.6 100.6 L139.6 100.5 L139.6 100.3 L139.4 100.2 L139.3 100.3 L139.2 100.4 L139.1 100.6 L139.1 100.7 L138.9 100.6 L139.0 100.6 L139.1 100.5 L139.1 100.3 L139.2 100.2 L139.2 100.1 L139.1 99.9 L139.2 99.7 L139.3 99.6 L139.5 99.6 L139.7 99.5 L139.5 99.4 L139.4 99.5 L139.3 99.5 L139.3 99.1 L139.3 98.9 L139.6 98.9 L139.8 99.0 L139.9 99.2 L139.9 99.4 L139.9 99.5 L140.0 99.5 L140.5 99.6 L140.6 99.6 L140.8 99.7 L141.1 99.9 L141.4 100.2 L141.5 100.3 L141.5 100.3 L141.7 100.3 L141.8 100.3 L141.7 100.4 L141.6 100.4 L141.6 100.5 L141.6 100.6 L141.9 100.6 L142.4 101.1 L142.7 101.2 L142.7 101.1 L142.8 101.1 L142.9 101.1 L143.0 101.1 L143.0 100.1 L143.1 100.1 L143.2 100.3 L143.3 100.4 L143.3 100.6 L143.3 100.9 L143.4 101.0 L143.5 101.0 L143.7 101.0 L143.8 101.2 L143.8 101.2 L143.8 101.2 L143.8 101.1 L143.8 101.1 L144.2 101.4 L144.3 101.6 L144.4 101.7 L144.3 101.9 L144.3 101.9 L144.2 102.0 L144.1 102.1 L144.0 102.2 L144.1 102.3 L144.1 102.2 L144.2 102.1 L144.3 102.1 L144.3 102.2 L144.3 102.2 L144.3 102.2 L144.4 102.1 Z M169.8 98.1 L169.8 98.2 L169.6 99.0 L169.5 99.1 L169.3 99.3 L169.1 99.4 L169.0 99.5 L168.9 99.4 L168.8 99.2 L168.7 99.1 L168.4 99.1 L168.3 99.0 L168.1 98.6 L167.9 98.4 L167.6 98.3 L167.4 98.2 L167.2 98.1 L167.0 98.0 L166.9 97.8 L166.9 97.4 L167.2 97.2 L167.6 97.1 L168.8 97.1 L169.2 97.2 L169.3 97.2 L169.4 97.3 L169.4 97.5 L169.5 97.7 L169.6 97.8 L169.8 98.1 Z M202.7 111.7 L202.8 112.0 L203.2 112.4 L203.4 112.8 L203.2 113.1 L203.1 113.0 L202.8 112.9 L202.7 112.8 L202.6 112.4 L202.6 112.4 L202.6 112.4 L202.6 112.3 L202.6 112.1 L202.6 112.1 L202.5 112.0 L202.4 112.0 L202.3 111.9 L202.2 111.8 L202.0 111.7 L201.9 111.8 L201.6 112.0 L201.4 112.0 L201.3 112.0 L201.3 111.9 L201.2 111.8 L201.2 111.7 L201.1 111.6 L201.0 111.7 L200.9 111.7 L200.8 111.7 L200.8 111.8 L200.7 112.2 L200.7 112.3 L200.4 112.1 L200.2 111.9 L200.0 111.9 L199.8 112.2 L199.7 112.3 L199.5 112.3 L199.5 112.2 L199.5 112.1 L199.3 112.1 L199.2 112.2 L199.0 112.0 L198.9 111.9 L198.5 111.8 L198.4 111.8 L198.4 111.7 L198.3 111.7 L197.9 111.9 L197.9 111.9 L197.8 112.0 L197.7 112.2 L197.7 112.3 L197.6 112.3 L197.5 112.3 L197.5 112.3 L197.4 112.2 L197.3 112.0 L197.3 111.9 L197.2 111.3 L197.1 110.9 L196.8 110.4 L196.4 110.3 L195.9 110.2 L195.4 110.3 L194.9 110.2 L194.8 109.9 L194.9 109.0 L194.9 108.9 L194.9 108.8 L195.0 108.8 L195.0 108.7 L194.9 108.6 L194.7 108.5 L194.6 108.4 L194.5 108.4 L194.4 108.4 L194.3 108.3 L194.1 108.2 L194.0 108.0 L194.0 107.9 L193.8 108.2 L193.7 108.3 L193.5 108.2 L193.4 108.2 L193.2 108.1 L193.1 108.0 L193.1 107.8 L193.2 107.7 L193.3 107.6 L193.4 107.5 L193.5 107.4 L193.7 107.4 L193.8 107.4 L193.9 107.3 L193.7 107.1 L194.4 107.1 L194.5 107.1 L194.7 106.9 L194.8 106.7 L194.9 106.5 L194.9 106.4 L194.9 106.2 L194.8 106.0 L194.9 105.9 L195.1 105.6 L195.3 105.4 L195.4 105.5 L195.5 105.6 L195.5 105.3 L195.4 105.1 L195.2 104.9 L195.0 104.9 L194.8 105.0 L194.3 105.2 L194.1 105.3 L193.8 105.0 L193.1 104.1 L192.7 104.0 L192.7 103.9 L192.8 103.9 L192.8 103.9 L192.7 103.9 L192.7 103.9 L192.8 103.6 L192.9 103.6 L192.9 103.6 L193.0 103.6 L193.1 103.7 L193.0 103.5 L192.9 103.4 L192.7 103.4 L192.5 103.6 L192.3 103.5 L192.2 103.4 L192.4 103.3 L192.3 103.2 L192.3 103.2 L192.2 103.2 L192.1 103.3 L192.1 103.0 L192.0 102.8 L192.0 102.7 L191.4 102.1 L191.0 102.0 L190.6 101.9 L190.2 101.9 L189.9 101.7 L189.4 101.4 L188.9 100.8 L188.7 100.6 L188.7 100.6 L188.7 100.5 L188.7 100.5 L188.5 100.4 L188.3 100.0 L187.8 98.3 L187.1 96.7 L187.0 96.5 L187.1 96.4 L187.1 96.3 L187.2 96.2 L187.4 96.1 L187.5 96.2 L188.0 96.5 L188.0 96.5 L188.1 96.6 L188.4 96.4 L188.5 96.4 L188.5 96.4 L188.8 96.6 L189.0 96.6 L189.7 96.6 L189.7 96.6 L189.8 96.7 L189.9 96.7 L189.9 96.8 L189.9 96.8 L190.0 96.7 L190.1 96.7 L190.3 96.7 L190.5 96.8 L191.4 96.8 L193.5 96.7 L193.6 96.7 L193.7 96.6 L193.8 96.4 L193.7 96.3 L193.6 96.2 L193.6 96.1 L193.6 96.0 L193.8 96.1 L193.9 96.2 L194.0 96.3 L194.1 96.4 L194.3 96.3 L194.5 96.2 L194.6 96.2 L194.7 96.4 L194.8 96.3 L195.0 96.4 L195.2 96.6 L195.3 96.6 L195.3 96.6 L195.4 96.7 L195.5 96.7 L195.6 96.7 L195.7 96.7 L195.8 96.6 L195.9 96.5 L196.0 96.4 L196.0 96.2 L196.1 96.2 L196.4 96.3 L196.5 96.2 L196.6 96.2 L196.7 96.2 L196.8 96.2 L197.1 96.5 L197.6 96.8 L197.9 97.0 L197.9 97.2 L198.0 97.3 L198.3 97.5 L198.3 97.6 L198.5 97.9 L198.6 98.0 L198.7 98.1 L198.5 98.2 L198.3 98.5 L198.3 98.7 L198.5 98.9 L198.4 99.0 L198.4 99.0 L198.4 99.2 L198.3 99.2 L198.7 99.0 L198.8 99.0 L198.8 99.1 L198.8 99.2 L198.8 99.2 L198.7 99.3 L198.8 99.4 L199.0 99.3 L199.2 99.2 L199.1 99.4 L199.2 99.4 L199.6 99.4 L199.8 99.5 L200.2 99.8 L200.4 99.8 L200.4 99.9 L200.7 100.2 L200.8 100.5 L200.8 100.6 L200.6 100.5 L200.5 100.6 L200.2 100.6 L200.1 100.6 L200.2 100.7 L200.3 100.7 L200.4 100.8 L200.4 100.9 L200.1 100.9 L200.0 101.0 L199.9 101.1 L199.9 101.3 L200.0 101.3 L200.4 101.3 L200.3 101.4 L200.3 101.4 L200.3 101.5 L200.4 101.5 L200.5 101.7 L200.6 101.8 L200.6 102.0 L200.3 102.3 L200.2 102.4 L200.0 102.6 L199.8 102.8 L199.8 103.0 L199.7 103.2 L199.8 103.5 L199.8 103.5 L199.9 103.9 L199.9 104.2 L199.9 104.3 L200.0 104.4 L200.3 104.6 L200.3 104.7 L200.3 104.8 L200.2 104.9 L199.9 104.8 L199.8 105.0 L199.8 105.2 L200.0 105.1 L200.2 105.1 L200.3 105.3 L200.4 105.7 L200.3 106.0 L200.2 106.0 L200.1 106.1 L200.0 106.2 L200.1 106.3 L200.1 106.4 L200.0 106.5 L200.0 106.7 L200.0 106.8 L200.1 106.8 L200.2 106.8 L200.3 106.9 L200.3 106.9 L200.3 107.2 L200.3 107.4 L200.4 107.5 L200.6 107.8 L200.7 108.0 L200.7 108.2 L200.6 108.3 L200.7 108.3 L200.7 108.3 L200.8 108.3 L200.9 108.3 L200.9 108.6 L201.0 108.7 L201.1 108.8 L201.2 108.8 L201.4 109.0 L201.5 109.0 L201.5 109.1 L201.7 109.2 L201.8 109.3 L201.9 109.3 L201.9 109.6 L201.8 109.8 L201.7 109.9 L201.1 110.4 L201.0 110.6 L201.0 111.0 L201.1 111.2 L201.4 111.3 L201.8 111.1 L201.6 110.9 L201.6 110.8 L201.8 110.8 L202.3 111.1 L202.5 111.2 L202.6 111.4 L202.7 111.7 Z M184.7 104.6 L184.7 104.8 L184.8 105.0 L184.8 105.2 L184.8 105.4 L184.7 105.4 L184.5 105.2 L184.3 104.8 L184.1 104.7 L183.8 104.4 L183.5 104.2 L183.2 104.0 L182.9 103.9 L182.7 103.7 L182.5 103.4 L182.3 103.5 L182.1 103.4 L181.7 103.3 L181.5 103.4 L181.3 103.3 L181.1 103.1 L180.9 103.0 L181.0 102.8 L181.0 102.7 L181.1 102.7 L181.3 102.7 L181.2 102.4 L181.1 102.5 L181.1 102.5 L181.0 102.5 L180.9 102.4 L180.8 102.2 L180.6 102.1 L180.4 102.0 L180.3 101.8 L180.3 101.7 L180.5 101.7 L180.2 101.6 L180.0 101.6 L179.9 101.6 L179.8 101.2 L179.6 101.0 L179.3 100.6 L179.1 100.4 L179.1 100.3 L178.7 100.2 L178.7 100.2 L178.5 100.1 L178.2 100.1 L178.0 100.2 L177.8 100.3 L177.7 100.4 L177.3 100.9 L177.2 101.2 L177.2 101.3 L177.0 101.4 L176.9 101.5 L176.8 101.5 L176.8 101.5 L176.7 101.7 L176.1 102.4 L175.2 103.2 L174.9 103.3 L174.8 103.2 L174.8 103.0 L174.9 102.7 L175.0 102.5 L175.1 102.4 L175.2 102.4 L175.3 102.3 L175.3 102.2 L175.3 102.1 L175.3 102.0 L175.4 101.8 L175.4 101.7 L175.5 101.6 L175.5 101.2 L175.5 101.0 L175.7 101.1 L175.8 100.9 L175.8 100.8 L176.0 100.8 L176.1 100.7 L176.2 100.7 L176.2 100.5 L176.0 100.3 L176.2 100.3 L176.3 100.2 L176.4 100.1 L176.4 99.9 L176.0 99.9 L175.8 99.9 L175.6 100.0 L175.6 99.9 L175.6 99.6 L175.6 99.5 L175.6 99.5 L175.9 99.1 L175.9 99.0 L176.0 98.6 L176.1 98.1 L176.2 97.9 L176.1 97.7 L176.1 97.6 L176.0 97.5 L175.8 97.4 L175.7 96.1 L175.7 96.0 L175.8 96.0 L175.9 96.0 L176.0 96.1 L176.2 96.2 L176.5 96.2 L176.7 96.3 L176.8 96.3 L176.9 96.4 L177.0 96.5 L177.1 96.5 L177.1 96.5 L177.1 96.6 L176.9 96.5 L176.9 96.7 L177.1 97.1 L177.0 97.2 L176.9 97.2 L176.7 97.4 L176.7 97.6 L176.7 97.7 L176.9 97.6 L177.1 97.4 L177.1 97.4 L177.2 97.4 L177.2 97.3 L177.3 97.3 L177.3 97.2 L177.3 97.1 L177.3 97.1 L177.3 97.0 L177.4 96.9 L177.4 96.9 L177.5 96.8 L177.7 96.8 L177.9 96.8 L178.1 96.9 L178.4 97.2 L178.6 97.4 L178.8 97.4 L179.1 97.4 L179.2 97.5 L179.3 97.7 L179.4 97.8 L179.5 98.0 L179.6 98.2 L179.8 98.3 L179.8 98.3 L179.7 98.3 L179.6 98.4 L179.6 98.5 L179.6 98.6 L179.9 98.5 L180.1 98.4 L180.2 98.6 L180.2 98.7 L180.3 98.7 L180.5 98.7 L180.6 98.7 L180.7 98.8 L180.8 98.9 L180.8 99.0 L181.5 100.1 L181.8 100.4 L181.8 99.9 L181.8 99.8 L182.1 99.9 L182.4 100.3 L182.6 100.3 L182.7 100.2 L182.8 100.1 L182.9 100.3 L182.9 100.2 L183.0 100.4 L183.5 101.3 L183.6 101.4 L183.8 101.4 L183.8 101.5 L183.9 101.6 L184.0 101.9 L184.0 102.0 L184.5 102.6 L184.6 102.8 L184.7 103.0 L184.5 102.8 L184.3 102.5 L184.1 102.4 L184.1 102.5 L184.1 102.6 L184.3 102.7 L184.2 102.8 L184.2 103.0 L184.4 103.3 L184.7 103.8 L184.7 104.0 L184.7 104.2 L184.7 104.5 L184.7 104.6 Z M163.6 95.2 L163.9 95.3 L164.0 95.4 L164.0 95.6 L164.0 95.6 L163.8 95.6 L163.7 95.7 L163.7 95.8 L163.8 96.4 L163.7 96.7 L163.5 97.5 L163.4 98.3 L163.2 99.0 L162.9 99.8 L162.8 99.9 L162.7 100.1 L162.8 100.3 L163.0 100.4 L163.0 100.6 L162.8 100.4 L162.8 100.5 L162.6 100.7 L162.5 100.8 L162.5 101.3 L162.5 101.3 L162.2 101.1 L162.2 100.9 L162.2 100.7 L161.9 100.7 L161.9 100.5 L161.9 100.0 L162.0 100.2 L162.2 100.3 L162.3 100.2 L162.4 99.9 L162.3 99.8 L162.3 99.7 L162.1 99.7 L162.0 99.7 L161.6 99.2 L161.5 99.2 L161.5 98.8 L161.6 98.3 L161.7 98.1 L162.1 98.0 L162.2 97.7 L162.3 97.3 L162.3 96.9 L162.2 96.2 L162.3 96.0 L162.5 95.8 L163.2 95.6 L163.5 95.5 L163.6 95.2 Z M181.7 98.4 L181.8 98.6 L181.8 98.7 L181.8 98.8 L181.7 98.7 L181.6 98.7 L181.5 98.6 L181.5 98.4 L181.5 98.3 L181.2 98.0 L179.5 95.7 L179.5 95.6 L179.5 95.4 L179.6 95.4 L179.7 95.5 L179.7 95.3 L179.8 95.1 L179.8 95.0 L179.9 95.0 L180.0 95.1 L180.2 95.3 L180.8 95.6 L180.9 95.7 L180.8 95.7 L180.8 95.8 L180.7 95.8 L180.9 95.8 L181.0 95.8 L181.1 95.9 L181.2 96.0 L181.1 96.2 L181.2 96.4 L181.3 96.6 L181.4 96.8 L181.4 97.0 L181.6 97.3 L181.7 97.9 L181.7 98.0 L181.8 98.0 L181.8 98.1 L181.7 98.4 Z M176.2 93.1 L176.3 93.6 L177.1 94.5 L177.3 94.9 L176.9 94.7 L176.2 93.6 L175.9 93.4 L175.8 93.3 L175.4 93.2 L175.2 93.1 L174.4 92.4 L174.3 92.3 L174.3 92.3 L174.1 92.1 L174.0 92.0 L173.9 92.0 L173.9 91.9 L173.9 91.8 L173.8 91.7 L173.6 91.5 L172.9 91.4 L172.7 91.1 L172.6 90.5 L172.6 90.4 L172.7 90.3 L172.9 90.3 L173.1 90.2 L173.1 89.9 L173.2 90.0 L173.4 90.0 L173.6 90.2 L173.7 90.3 L173.8 90.4 L174.0 90.7 L174.2 91.1 L174.5 91.3 L174.5 91.4 L174.6 91.5 L174.7 91.8 L174.7 91.9 L174.8 91.9 L174.9 92.3 L175.1 92.4 L175.4 92.6 L175.7 92.7 L175.9 92.6 L176.0 92.7 L176.1 92.8 L176.2 92.9 L176.2 93.1 Z M157.2 94.8 L157.2 94.9 L157.2 95.1 L157.3 95.3 L157.4 95.5 L157.4 95.5 L157.4 95.8 L157.4 95.8 L157.3 95.8 L157.2 95.9 L156.8 96.5 L156.7 96.6 L156.4 96.8 L156.3 96.8 L156.3 96.8 L156.2 96.8 L156.2 96.9 L156.2 97.1 L156.2 97.1 L156.3 97.2 L156.2 97.3 L156.1 97.2 L156.1 97.3 L156.1 97.3 L156.1 97.4 L156.1 97.5 L155.9 97.6 L155.9 97.9 L156.1 98.3 L156.3 98.5 L156.3 98.6 L155.8 98.4 L155.6 98.5 L155.6 98.6 L155.7 98.7 L155.7 98.8 L155.7 98.9 L155.6 99.0 L155.7 99.1 L155.7 99.1 L155.8 99.2 L155.8 99.3 L155.4 99.1 L155.3 98.9 L155.2 99.0 L154.9 99.2 L154.8 99.3 L154.6 99.3 L154.4 99.5 L154.1 100.1 L154.1 100.1 L154.0 100.1 L153.7 99.9 L153.6 99.8 L152.9 99.8 L152.7 99.7 L152.5 99.5 L152.5 99.2 L152.6 98.9 L152.6 99.0 L152.7 99.1 L152.8 99.2 L153.0 99.1 L152.9 99.0 L152.8 99.1 L152.8 99.1 L152.7 98.9 L152.7 98.9 L152.5 98.7 L152.4 98.7 L152.4 98.9 L152.2 98.8 L152.0 98.7 L151.8 98.5 L151.7 98.2 L151.4 98.0 L151.3 97.9 L151.2 97.9 L150.8 97.1 L150.7 97.0 L150.5 96.9 L150.6 96.6 L150.7 96.2 L150.7 96.0 L150.6 95.8 L150.5 95.6 L150.2 95.2 L150.0 94.9 L149.9 94.7 L149.6 94.6 L149.4 94.6 L149.3 94.5 L149.2 94.3 L149.2 94.2 L149.1 94.0 L149.1 93.8 L149.1 93.7 L148.9 93.4 L148.9 93.3 L149.0 93.3 L149.0 93.2 L149.1 93.1 L149.1 93.0 L149.0 92.5 L148.9 92.2 L148.8 91.6 L148.6 91.2 L148.2 90.6 L147.8 89.9 L147.6 89.6 L147.0 89.4 L146.9 89.2 L146.7 89.1 L146.3 89.1 L146.2 89.1 L146.3 88.9 L146.0 88.6 L145.8 88.3 L145.7 88.0 L145.6 87.2 L145.5 87.0 L145.4 86.9 L145.3 87.0 L145.1 87.0 L145.0 87.0 L144.9 87.1 L144.9 87.1 L144.9 87.2 L144.8 87.2 L144.6 87.4 L144.5 87.5 L144.3 87.4 L144.1 87.3 L144.0 87.1 L143.9 86.9 L143.9 86.8 L144.0 86.5 L144.1 86.3 L144.3 86.1 L144.5 86.0 L144.7 85.9 L145.0 85.9 L145.7 86.0 L146.4 86.1 L146.5 86.0 L146.6 86.0 L146.7 86.0 L146.9 86.1 L147.1 86.2 L147.3 86.2 L147.7 86.2 L147.9 86.2 L148.1 86.4 L148.3 86.3 L148.4 86.3 L148.6 86.5 L148.8 86.5 L149.0 86.5 L149.3 86.4 L150.2 86.1 L150.5 86.0 L150.7 86.1 L150.8 86.1 L150.9 86.0 L150.9 85.8 L151.1 85.9 L151.1 85.9 L151.2 85.8 L151.2 85.9 L151.3 85.9 L151.2 86.0 L151.2 86.1 L151.1 86.1 L151.0 86.1 L151.1 86.2 L151.2 86.3 L151.3 86.5 L151.4 86.5 L151.5 86.6 L151.7 87.0 L151.9 87.1 L152.6 87.1 L152.8 87.2 L152.8 87.5 L152.8 87.5 L152.9 87.5 L152.9 87.3 L152.9 87.2 L153.0 87.2 L153.0 87.2 L153.1 87.1 L153.2 87.1 L153.3 87.0 L153.4 86.9 L153.5 86.8 L153.6 86.8 L153.8 87.2 L155.1 88.2 L155.5 88.9 L155.7 89.0 L156.0 89.1 L156.1 89.2 L156.2 89.3 L156.3 89.5 L156.2 89.7 L156.2 89.8 L156.2 89.9 L156.2 90.0 L156.3 90.1 L156.4 90.1 L156.6 90.0 L156.7 90.0 L156.9 90.0 L157.2 90.1 L157.4 90.2 L157.5 90.4 L157.4 90.6 L157.3 90.8 L156.9 91.0 L156.8 91.2 L156.7 91.4 L156.7 91.7 L156.8 92.4 L156.8 92.5 L156.7 93.0 L156.7 93.1 L156.6 93.1 L156.7 93.4 L156.7 94.1 L156.8 94.4 L157.1 94.7 L157.2 94.8 Z M163.4 87.1 L163.5 87.2 L163.7 87.3 L163.7 87.4 L163.6 87.7 L163.0 88.3 L162.8 88.7 L162.9 88.9 L162.8 89.1 L162.4 89.4 L162.2 89.4 L162.1 89.3 L161.9 89.1 L161.8 89.0 L161.7 89.0 L161.3 88.7 L161.2 88.6 L161.1 88.6 L161.0 88.6 L160.9 88.5 L160.7 88.2 L160.3 87.9 L160.3 87.8 L160.3 87.5 L160.3 87.4 L160.3 87.3 L160.3 86.7 L160.3 86.5 L160.4 86.4 L160.7 85.9 L160.7 85.8 L160.8 85.5 L160.8 85.4 L160.9 85.4 L161.1 85.6 L161.3 85.9 L161.4 85.8 L161.5 85.7 L161.6 85.7 L161.7 85.8 L162.0 85.9 L162.2 85.8 L162.3 85.6 L162.4 85.7 L162.5 85.8 L162.6 85.9 L162.5 86.1 L162.7 86.0 L162.8 86.1 L162.9 86.2 L162.8 86.3 L162.8 86.3 L162.9 86.4 L163.0 86.4 L163.1 86.3 L163.4 86.4 L163.6 86.5 L163.6 86.7 L163.6 86.8 L163.5 86.8 L163.4 86.8 L163.4 86.9 L163.4 87.1 Z M143.4 83.9 L143.5 83.9 L143.6 83.9 L143.7 84.0 L143.7 84.1 L143.5 84.2 L143.5 84.3 L143.4 84.2 L143.3 84.0 L143.2 83.9 L143.1 83.9 L143.0 83.9 L142.9 83.8 L142.9 83.7 L142.8 83.6 L142.7 83.5 L142.6 83.5 L142.5 83.5 L142.3 83.4 L142.2 83.4 L142.1 83.3 L141.8 83.1 L141.6 83.0 L141.5 82.7 L141.5 82.4 L141.5 82.3 L141.5 82.2 L141.6 82.2 L141.7 82.2 L141.9 82.2 L142.1 82.4 L142.4 82.5 L142.4 82.6 L142.6 82.6 L142.8 82.6 L143.0 82.7 L143.2 82.8 L143.5 83.4 L143.5 83.5 L143.4 83.6 L143.3 83.7 L143.4 83.9 Z M188.6 82.1 L188.6 82.2 L188.4 82.3 L188.3 82.4 L188.4 82.5 L188.5 82.6 L188.5 82.8 L188.6 82.9 L188.4 83.0 L188.3 83.0 L188.4 83.1 L188.4 83.2 L188.4 83.5 L188.3 83.7 L188.3 83.9 L188.5 84.2 L188.5 84.3 L188.3 84.4 L188.0 84.4 L187.9 84.4 L187.9 84.5 L187.9 84.7 L187.7 85.4 L187.7 85.5 L187.5 85.4 L187.4 85.2 L187.2 85.0 L187.1 85.1 L187.0 85.0 L186.8 85.1 L186.6 85.2 L186.5 85.3 L186.4 85.4 L186.3 85.6 L186.2 85.8 L186.1 85.9 L185.9 85.8 L185.3 85.3 L185.0 85.1 L184.8 85.0 L184.6 85.0 L184.6 84.9 L184.6 84.7 L184.5 84.6 L184.4 84.4 L184.3 84.3 L184.4 84.2 L184.7 84.0 L185.0 83.8 L185.2 83.5 L185.4 83.1 L185.5 82.7 L185.4 82.1 L185.4 81.9 L185.5 81.7 L185.5 81.5 L185.4 81.1 L185.3 80.9 L185.3 80.8 L185.4 80.8 L185.5 80.7 L185.5 80.6 L185.5 80.5 L185.4 80.4 L185.4 80.2 L185.5 80.0 L185.5 79.9 L185.7 80.0 L185.8 80.0 L186.1 79.8 L186.2 79.7 L186.2 79.7 L186.3 79.7 L186.4 79.8 L186.6 80.0 L186.8 80.2 L186.9 80.5 L187.0 80.8 L187.1 81.2 L187.2 81.2 L187.3 81.3 L187.4 81.5 L187.3 81.6 L187.4 81.7 L187.4 81.7 L187.4 81.7 L187.5 81.7 L187.6 81.4 L187.9 81.6 L188.6 82.1 Z M163.5 79.6 L163.9 79.9 L164.2 80.1 L164.3 80.4 L164.2 80.6 L164.0 80.6 L163.8 80.5 L163.4 80.2 L162.7 79.7 L162.2 79.3 L162.1 79.3 L161.9 79.2 L161.7 78.9 L161.6 78.6 L161.5 78.5 L161.5 78.3 L161.6 78.2 L161.7 78.2 L161.9 78.2 L161.9 78.3 L162.0 78.3 L162.1 78.4 L163.5 79.6 Z M162.4 69.7 L162.6 69.8 L162.8 69.9 L163.0 70.0 L162.9 70.3 L162.7 70.0 L162.5 69.9 L162.4 70.0 L162.3 70.1 L162.2 70.2 L162.3 70.2 L162.4 70.2 L162.5 70.5 L162.5 70.6 L162.4 70.7 L162.0 70.9 L162.0 70.9 L162.0 71.0 L162.0 71.4 L162.0 71.5 L162.1 71.6 L162.3 71.6 L162.4 71.8 L162.5 72.0 L162.6 72.7 L162.6 72.9 L162.4 73.4 L162.2 73.6 L161.9 73.7 L161.7 73.8 L161.4 73.7 L161.3 73.4 L161.3 73.1 L161.4 72.9 L161.6 72.8 L161.6 72.4 L161.4 71.9 L161.2 71.7 L161.1 71.6 L161.0 71.5 L161.0 71.1 L161.0 71.0 L160.8 70.6 L160.7 70.6 L160.5 70.5 L160.4 70.5 L160.3 70.4 L160.4 69.7 L160.5 69.5 L160.6 69.4 L161.0 69.6 L161.2 69.6 L161.3 69.4 L161.3 69.3 L161.5 69.3 L162.0 69.3 L162.2 69.4 L162.3 69.4 L162.4 69.4 L162.4 69.6 L162.4 69.7 Z M162.0 26.5 L162.1 26.7 L162.2 26.8 L162.2 26.9 L161.9 27.0 L161.7 27.4 L161.6 27.5 L161.2 27.8 L161.0 28.0 L161.0 28.2 L160.9 28.3 L160.7 28.3 L160.5 28.2 L160.6 28.0 L160.6 27.8 L160.8 27.6 L161.0 27.5 L160.7 27.2 L160.8 27.1 L160.9 26.9 L161.0 26.8 L160.9 26.7 L161.0 26.6 L161.2 26.4 L161.3 26.3 L161.3 26.3 L161.4 26.4 L161.5 26.4 L161.5 26.4 L161.5 26.3 L161.7 26.3 L161.7 26.3 L161.8 26.3 L161.9 26.4 L161.9 26.5 L162.0 26.5 Z M157.2 22.9 L157.3 23.0 L157.3 23.1 L157.3 23.1 L157.4 23.2 L157.4 23.2 L157.4 23.3 L157.4 23.4 L157.3 23.4 L157.2 23.3 L157.1 23.3 L157.0 23.4 L157.0 23.5 L157.0 23.5 L156.9 23.6 L156.6 23.5 L156.5 23.4 L156.1 23.2 L156.0 23.1 L156.0 23.1 L155.9 23.1 L155.8 23.1 L155.7 23.0 L155.6 22.7 L155.3 22.4 L155.3 22.3 L155.5 22.3 L155.6 22.2 L155.8 22.0 L156.4 22.2 L156.6 22.2 L156.8 22.2 L156.9 22.1 L157.1 22.1 L157.2 22.2 L157.2 22.7 L157.2 22.8 L157.2 22.8 L157.2 22.9 Z M155.6 167.6 L155.8 167.7 L156.0 167.8 L156.1 168.0 L156.0 168.2 L155.9 168.3 L155.8 168.3 L155.7 168.3 L155.7 168.5 L155.7 168.6 L155.6 168.6 L155.2 168.7 L155.2 168.7 L155.0 168.8 L154.7 169.1 L154.6 169.2 L154.5 169.2 L154.4 169.1 L154.3 169.1 L154.2 168.9 L154.2 168.8 L154.2 168.7 L154.2 168.6 L153.9 168.3 L153.5 168.3 L152.6 168.7 L152.4 168.8 L152.3 168.9 L152.2 168.9 L152.2 168.8 L152.0 168.6 L152.0 168.6 L151.5 168.5 L151.4 168.5 L151.1 168.8 L150.8 168.9 L150.7 168.9 L150.6 168.9 L150.6 168.8 L150.6 168.7 L150.6 168.7 L150.5 168.6 L150.5 168.6 L150.3 168.6 L150.3 168.5 L150.1 168.3 L150.1 168.1 L150.1 167.9 L150.2 167.7 L150.4 167.5 L150.8 167.3 L151.1 167.1 L151.4 167.1 L151.5 167.0 L151.7 166.7 L151.8 166.6 L151.9 166.6 L152.3 166.6 L152.5 166.6 L152.7 166.6 L152.8 166.7 L153.1 166.8 L153.2 166.9 L153.4 167.0 L153.7 167.5 L153.8 167.7 L154.0 167.6 L154.2 167.5 L154.4 167.4 L154.9 167.6 L155.1 167.6 L155.6 167.6 Z" fill="#172033" fill-rule="evenodd"/></svg>
