<svg xmlns="http://www.w3.org/2000/svg" viewBox="0 0 320 200" role="img"><path d="M152.0 164.2 L152.1 163.8 L152.0 163.2 L151.6 162.1 L151.5 161.8 L151.2 161.4 L151.1 161.1 L150.9 160.2 L150.8 160.0 L150.4 159.8 L150.0 159.8 L149.6 160.0 L149.2 160.0 L148.8 159.9 L148.3 159.5 L148.0 159.3 L147.6 159.2 L146.8 159.1 L146.4 159.0 L146.2 158.8 L146.0 158.0 L145.3 157.2 L144.9 156.4 L144.9 155.6 L145.6 155.1 L144.9 154.8 L144.8 154.5 L144.8 154.1 L144.7 153.6 L144.3 153.5 L143.2 153.9 L142.6 153.9 L140.6 153.2 L139.6 153.0 L138.5 153.0 L138.6 153.0 L138.6 153.1 L138.7 153.1 L138.7 153.1 L137.9 153.6 L137.5 153.6 L137.0 153.3 L136.9 153.1 L136.7 152.7 L136.6 152.6 L136.3 152.4 L135.6 152.4 L135.3 152.3 L134.5 151.8 L134.1 151.6 L132.4 151.4 L132.0 151.2 L132.2 150.7 L130.6 150.0 L130.3 150.0 L129.8 149.9 L129.9 150.5 L130.1 150.5 L130.3 150.5 L130.5 150.5 L130.7 150.7 L130.7 151.0 L130.6 151.1 L129.7 151.2 L128.7 151.3 L128.2 151.3 L127.4 151.8 L126.4 152.0 L125.5 151.9 L123.7 150.7 L123.4 150.5 L123.2 150.2 L123.1 149.8 L122.9 149.5 L122.6 149.3 L122.3 149.1 L122.3 149.0 L122.3 148.8 L122.6 148.7 L122.6 148.7 L122.6 148.7 L122.6 148.6 L122.6 148.6 L122.2 148.6 L121.5 148.3 L121.1 148.3 L120.9 148.3 L120.6 148.4 L120.4 148.4 L119.9 148.3 L118.6 147.3 L118.6 147.1 L118.8 146.8 L119.1 146.7 L120.4 146.7 L121.1 146.5 L122.2 146.0 L122.8 145.7 L123.0 145.3 L122.6 144.8 L122.3 144.7 L122.2 144.4 L122.3 144.2 L122.6 143.7 L122.6 143.6 L122.7 143.5 L122.7 143.4 L122.6 143.4 L122.1 142.9 L121.9 142.8 L121.5 142.7 L121.3 142.8 L121.3 143.0 L121.1 143.2 L120.3 143.9 L119.9 144.2 L119.2 144.3 L116.9 144.0 L115.6 144.1 L114.8 144.7 L114.7 144.7 L114.5 144.7 L114.4 144.7 L114.2 144.7 L114.0 144.2 L113.4 143.9 L112.8 143.9 L112.5 144.4 L112.2 144.2 L112.0 143.9 L111.9 143.6 L112.0 143.3 L111.8 143.2 L111.7 143.1 L111.6 143.0 L111.6 142.9 L112.1 142.8 L111.5 142.6 L110.3 142.7 L109.6 142.5 L108.7 142.2 L108.4 142.0 L108.3 141.8 L108.1 141.4 L108.0 141.1 L108.1 141.0 L107.7 141.0 L106.9 141.1 L106.6 141.1 L106.2 141.0 L105.6 140.6 L105.3 140.5 L102.6 140.0 L102.0 140.1 L101.6 139.9 L100.8 139.6 L100.2 139.6 L99.5 139.9 L99.5 140.2 L100.3 141.1 L100.6 141.5 L100.8 142.1 L101.1 142.6 L101.6 143.0 L102.2 143.2 L102.7 143.5 L103.0 144.0 L103.0 144.7 L103.4 145.0 L103.4 145.3 L103.3 145.5 L103.0 145.5 L102.7 145.2 L102.5 145.0 L102.4 145.0 L102.0 145.0 L101.9 145.0 L101.9 145.4 L101.9 145.4 L101.6 145.5 L101.1 145.3 L100.9 145.4 L100.6 145.5 L100.1 145.9 L99.9 146.0 L99.6 146.1 L99.2 146.1 L98.7 146.1 L98.2 146.2 L97.6 146.5 L97.1 147.0 L96.8 147.3 L96.5 147.6 L95.9 147.9 L95.1 148.6 L94.0 148.7 L92.9 148.3 L92.0 147.7 L91.5 147.4 L91.2 147.0 L90.9 146.1 L90.6 145.6 L89.8 145.1 L89.5 144.7 L89.1 144.3 L88.4 143.5 L88.0 143.2 L87.5 142.9 L86.3 142.6 L85.8 142.2 L85.7 142.0 L85.7 141.8 L85.7 141.5 L85.5 141.3 L85.3 141.2 L84.1 141.2 L83.8 141.3 L83.6 141.4 L83.4 141.4 L83.0 141.2 L82.9 141.1 L82.6 140.4 L81.7 140.3 L81.4 139.8 L81.6 139.4 L82.2 139.5 L82.1 139.4 L82.0 139.1 L82.2 139.1 L82.4 139.0 L82.6 139.0 L83.0 138.7 L83.4 138.6 L83.8 138.3 L84.0 138.0 L84.5 137.9 L85.3 138.1 L85.8 138.0 L86.0 137.8 L86.6 137.4 L86.8 137.2 L86.7 137.2 L86.7 137.1 L86.8 136.9 L86.8 136.7 L86.9 136.6 L87.0 136.5 L87.0 136.4 L86.9 136.2 L87.7 136.0 L87.5 135.5 L85.2 134.0 L84.4 133.7 L83.5 133.5 L82.6 133.5 L82.2 133.6 L82.0 133.8 L81.8 134.2 L81.5 134.4 L81.0 134.5 L80.6 134.4 L79.8 134.0 L78.7 133.9 L77.0 134.9 L75.9 135.0 L75.8 135.0 L75.8 134.9 L75.8 134.8 L75.9 134.7 L76.3 134.5 L76.3 134.2 L76.2 133.8 L75.9 133.5 L75.6 133.0 L75.2 132.8 L74.8 132.8 L73.2 133.2 L72.5 133.2 L72.3 133.1 L71.0 131.7 L70.9 131.5 L70.8 131.3 L70.1 131.3 L67.9 131.6 L67.7 131.6 L67.5 131.4 L67.1 131.1 L66.8 131.0 L61.5 129.8 L60.3 129.8 L60.1 130.0 L59.8 130.3 L59.5 130.5 L59.5 130.5 L59.2 130.4 L59.0 130.2 L59.0 130.0 L59.1 129.7 L59.1 129.4 L58.8 128.9 L58.4 128.7 L57.9 128.6 L57.3 128.3 L57.1 128.0 L56.7 127.6 L56.5 127.1 L56.4 126.7 L56.6 126.3 L56.8 126.0 L56.9 125.7 L56.4 125.3 L55.7 125.1 L54.2 125.0 L54.0 124.7 L53.8 124.2 L53.5 124.1 L53.2 124.3 L52.9 124.6 L52.9 124.7 L52.8 124.9 L52.5 125.0 L52.2 124.8 L51.9 124.6 L51.6 124.4 L50.3 124.2 L49.8 123.9 L49.7 124.1 L49.6 124.2 L49.2 124.4 L49.0 124.4 L48.9 124.5 L48.7 124.6 L48.6 124.7 L48.6 124.7 L48.7 125.0 L49.2 125.2 L49.6 125.5 L49.6 126.3 L49.5 126.5 L49.3 126.6 L49.2 126.7 L49.2 126.9 L49.2 127.0 L49.2 127.1 L49.2 128.0 L49.2 128.2 L46.1 128.1 L45.2 128.2 L44.6 128.2 L44.6 127.7 L45.0 127.3 L45.9 126.7 L47.3 124.7 L48.5 122.7 L48.6 122.4 L48.6 121.9 L48.6 121.7 L48.7 121.5 L49.0 121.4 L49.1 121.2 L49.2 120.8 L49.2 120.2 L49.4 119.4 L49.8 118.7 L50.3 118.1 L50.1 118.1 L50.0 118.0 L50.2 117.2 L49.8 116.7 L49.2 116.2 L48.7 115.7 L48.6 115.5 L48.5 115.0 L48.5 115.0 L48.3 113.9 L48.2 113.2 L48.5 112.8 L48.2 112.5 L47.7 112.1 L47.3 111.9 L46.7 111.8 L45.4 111.5 L44.8 111.3 L44.8 111.3 L44.3 111.1 L42.5 110.7 L41.9 110.3 L41.8 110.0 L41.8 109.8 L42.0 109.3 L42.5 108.8 L42.8 108.3 L42.8 107.6 L42.5 106.9 L42.2 106.4 L40.9 105.7 L40.3 105.3 L40.0 104.6 L39.9 103.9 L39.5 103.6 L39.0 103.4 L38.6 103.0 L38.5 102.4 L38.9 102.0 L40.4 101.0 L40.9 100.6 L41.3 100.1 L41.5 99.6 L41.6 98.0 L41.8 97.7 L42.4 97.1 L42.5 96.8 L42.5 96.6 L42.6 96.3 L42.8 96.1 L43.3 95.7 L41.6 94.9 L41.3 94.5 L41.5 93.8 L41.7 93.4 L41.8 93.0 L41.5 92.6 L41.5 92.4 L42.0 92.0 L42.0 91.5 L41.6 91.0 L40.8 90.8 L40.1 90.7 L39.2 90.4 L38.6 90.0 L38.7 89.5 L38.2 88.7 L37.5 87.6 L37.4 86.5 L38.8 85.8 L39.4 85.1 L39.9 84.5 L39.7 84.2 L39.2 83.9 L39.4 83.3 L40.2 82.4 L39.4 81.9 L39.2 81.8 L37.7 80.8 L36.1 80.4 L35.3 79.8 L34.8 79.6 L34.5 79.4 L33.6 78.4 L33.2 78.1 L30.3 76.8 L29.6 76.6 L28.7 75.9 L28.2 75.8 L27.6 75.8 L27.0 75.7 L26.6 75.4 L26.3 75.1 L27.0 74.7 L27.3 74.4 L27.4 73.9 L27.3 73.5 L27.0 72.6 L26.8 72.3 L26.8 72.1 L28.1 71.6 L29.7 71.0 L31.3 70.3 L32.1 69.8 L32.5 69.3 L32.6 69.1 L33.4 67.6 L33.3 67.2 L33.2 66.8 L33.1 66.4 L33.1 66.0 L33.3 65.7 L33.6 65.4 L33.9 65.3 L34.1 65.2 L34.8 64.3 L34.4 64.2 L34.3 64.0 L33.9 63.8 L33.7 63.6 L33.7 63.4 L33.6 62.9 L33.6 62.7 L33.4 62.2 L32.9 60.6 L32.6 59.2 L32.0 58.7 L31.7 58.1 L31.1 57.5 L30.9 56.9 L30.9 56.4 L31.0 55.4 L30.9 55.1 L30.3 54.1 L29.9 53.6 L30.0 53.1 L30.0 52.4 L30.0 52.4 L30.3 52.4 L30.8 52.2 L31.1 52.0 L31.1 51.8 L30.7 51.6 L30.9 51.5 L31.0 51.5 L30.9 51.4 L30.7 51.3 L30.8 51.1 L31.1 51.2 L31.5 51.3 L31.8 51.5 L32.1 52.0 L32.5 52.2 L33.2 52.4 L33.7 52.7 L34.0 52.9 L35.2 53.0 L36.6 53.3 L37.1 53.5 L37.6 53.9 L38.4 54.9 L38.7 55.1 L38.9 55.0 L38.9 54.6 L39.0 54.3 L39.3 54.2 L39.6 54.0 L39.6 53.9 L39.6 53.8 L39.6 53.6 L39.3 53.6 L38.7 53.6 L38.3 53.5 L37.5 52.3 L37.7 51.7 L38.3 50.5 L38.7 50.7 L38.9 50.6 L39.2 50.5 L39.6 50.5 L39.4 49.9 L39.5 49.3 L39.7 48.8 L39.8 48.3 L39.6 48.3 L39.6 48.7 L39.3 48.9 L38.7 49.3 L38.9 49.4 L38.6 49.4 L38.5 49.3 L38.3 49.2 L38.2 49.1 L38.3 49.0 L38.5 48.8 L38.7 48.7 L38.3 48.3 L37.7 48.0 L34.7 47.9 L34.3 47.6 L34.7 47.1 L34.6 47.0 L34.6 47.0 L34.6 47.0 L34.5 46.9 L34.2 47.1 L34.0 47.2 L33.8 47.1 L33.5 47.1 L33.3 47.1 L33.1 47.3 L32.9 47.4 L32.7 47.6 L33.5 47.7 L33.9 47.8 L34.1 48.0 L34.1 48.3 L33.8 48.5 L33.5 48.6 L33.2 48.5 L32.5 48.8 L32.1 48.9 L31.7 48.9 L31.7 49.1 L32.1 49.2 L32.1 49.2 L31.7 49.3 L31.5 49.2 L31.1 49.1 L30.7 49.1 L30.3 48.9 L29.0 47.8 L28.4 47.6 L28.3 47.6 L28.1 47.2 L27.7 46.9 L27.9 46.8 L28.1 46.7 L28.6 46.0 L29.0 46.1 L29.3 46.3 L30.1 46.5 L32.8 46.6 L33.8 46.5 L34.9 46.1 L36.8 45.3 L43.8 43.5 L49.9 42.5 L57.4 40.7 L62.2 39.9 L67.4 39.1 L72.6 37.7 L76.9 37.4 L79.9 36.8 L79.5 37.0 L78.2 37.4 L78.8 37.6 L81.1 37.4 L81.1 37.2 L81.0 37.2 L81.0 37.0 L82.2 37.0 L82.2 36.9 L82.2 36.8 L82.1 36.8 L82.0 36.8 L82.1 36.4 L81.5 36.4 L80.0 36.6 L81.0 36.4 L82.1 35.9 L83.7 34.8 L83.4 35.2 L82.8 35.6 L82.5 35.8 L82.8 35.7 L83.3 35.7 L83.7 35.6 L84.1 35.3 L85.0 35.0 L85.3 34.8 L85.0 34.4 L84.5 34.4 L84.3 34.6 L83.9 34.8 L85.0 33.7 L88.1 31.3 L88.1 31.5 L88.0 31.8 L88.2 31.8 L88.7 31.7 L89.0 31.5 L89.2 31.1 L89.0 31.0 L88.7 31.1 L88.3 31.3 L88.8 30.7 L89.7 30.2 L91.6 29.5 L97.1 29.0 L99.3 28.5 L100.4 28.4 L101.4 28.2 L104.0 26.6 L112.1 24.4 L122.2 23.3 L126.7 22.4 L133.8 22.0 L138.2 22.0 L138.8 22.1 L139.8 22.6 L140.1 22.7 L140.7 22.8 L149.8 26.0 L151.5 27.2 L151.7 27.5 L152.0 27.9 L152.0 28.3 L151.6 28.4 L151.5 28.3 L151.3 28.1 L151.2 27.9 L150.7 27.7 L150.3 27.2 L149.9 26.9 L148.6 25.7 L148.4 25.6 L147.5 25.5 L147.2 25.4 L147.0 25.2 L146.2 25.0 L144.6 24.4 L143.0 23.9 L142.8 23.7 L141.9 23.4 L141.7 23.3 L141.4 23.4 L141.2 23.5 L140.8 24.3 L140.8 24.5 L140.8 24.8 L140.9 24.9 L141.6 25.1 L141.7 25.2 L142.0 25.5 L142.4 26.0 L142.4 26.2 L142.3 26.4 L142.3 26.6 L142.6 26.8 L142.4 27.3 L142.8 27.5 L143.3 27.5 L143.7 27.1 L143.5 27.6 L143.8 27.9 L144.1 28.2 L144.8 29.4 L145.0 29.7 L144.9 30.3 L144.9 31.4 L145.1 32.4 L145.4 32.8 L145.9 32.9 L146.7 33.2 L147.1 33.3 L147.4 33.4 L147.9 33.4 L148.3 33.6 L148.4 33.8 L148.9 34.2 L153.4 35.0 L154.4 35.1 L155.2 34.8 L155.4 34.9 L155.8 35.0 L156.5 35.2 L166.5 34.3 L168.7 33.7 L169.8 33.5 L170.6 33.3 L172.3 32.3 L172.7 32.2 L173.3 32.5 L174.6 32.7 L176.7 32.8 L182.2 33.0 L192.5 33.3 L200.2 33.5 L207.9 33.8 L217.5 34.1 L229.1 34.4 L236.5 34.6 L243.9 34.9 L250.1 35.1 L255.2 35.2 L257.0 34.9 L257.5 34.6 L258.2 33.9 L258.2 33.9 L258.9 33.7 L259.4 33.7 L261.0 34.2 L261.3 34.2 L261.9 34.2 L262.2 34.2 L262.5 34.4 L262.6 34.6 L262.8 34.8 L262.9 34.9 L263.2 35.1 L264.1 35.1 L264.3 35.3 L264.2 35.5 L264.1 35.8 L264.1 36.1 L264.5 36.5 L265.2 36.5 L265.8 36.3 L266.3 36.3 L266.8 36.4 L268.5 37.2 L269.5 37.6 L271.6 38.1 L272.2 38.3 L272.7 38.6 L272.9 38.8 L273.4 39.4 L273.7 39.6 L273.9 39.7 L274.5 39.8 L274.8 39.9 L275.2 40.2 L275.6 40.8 L275.9 41.4 L276.1 41.9 L276.4 43.2 L276.5 43.8 L276.1 44.2 L275.7 44.4 L275.6 44.5 L275.5 44.6 L275.4 44.9 L275.6 45.1 L275.8 45.3 L276.1 45.4 L276.2 45.6 L276.3 45.7 L276.3 45.8 L276.2 46.0 L276.2 46.8 L276.5 47.4 L276.8 48.0 L277.1 48.7 L277.3 50.1 L277.6 50.7 L278.3 51.3 L278.3 51.3 L278.3 52.9 L279.0 54.8 L281.2 58.9 L282.5 60.5 L283.0 61.3 L284.1 63.8 L284.6 64.6 L285.1 65.0 L285.3 65.4 L285.5 65.8 L285.8 66.2 L286.3 66.5 L286.8 66.7 L287.1 67.0 L287.0 67.7 L286.8 68.0 L286.4 68.4 L286.2 68.7 L286.1 69.3 L286.4 69.7 L287.2 70.3 L287.5 70.7 L287.5 70.9 L287.5 71.3 L287.5 71.4 L287.7 72.2 L287.7 72.4 L287.6 72.5 L287.3 72.9 L287.3 73.1 L287.3 73.4 L287.4 73.6 L287.5 73.7 L287.6 73.9 L287.8 77.1 L287.8 77.9 L287.5 79.1 L286.4 79.9 L282.9 81.3 L278.4 82.1 L276.0 83.0 L273.7 84.2 L270.4 87.2 L269.4 88.0 L268.9 88.5 L267.6 90.0 L267.7 90.1 L267.9 90.2 L268.1 90.3 L268.4 90.5 L268.5 90.9 L268.3 91.3 L268.9 91.6 L270.8 91.9 L271.2 91.8 L271.6 92.0 L273.2 92.4 L273.8 92.4 L273.8 92.6 L273.6 92.8 L273.7 92.9 L274.0 92.8 L274.4 92.9 L274.6 93.0 L274.9 93.1 L275.2 92.8 L275.3 92.9 L275.6 93.1 L275.8 93.2 L276.2 92.9 L276.3 93.1 L276.3 93.4 L276.1 93.5 L276.9 94.4 L277.4 94.5 L278.7 94.5 L279.2 94.7 L279.3 94.9 L279.5 95.1 L279.6 95.3 L279.9 95.4 L280.2 95.5 L280.3 95.8 L280.4 96.1 L280.6 96.5 L281.0 97.5 L281.3 97.9 L280.8 98.1 L280.5 98.5 L280.0 99.2 L279.8 99.7 L279.8 100.5 L279.6 100.9 L279.7 100.9 L279.8 100.9 L279.8 100.9 L279.8 101.0 L279.5 101.1 L279.4 101.7 L279.1 101.9 L279.5 102.4 L280.0 102.8 L279.7 103.5 L279.2 103.8 L278.6 104.0 L278.2 104.3 L278.1 104.5 L277.9 104.8 L277.8 105.4 L277.9 105.5 L278.1 105.7 L278.1 105.9 L277.9 106.0 L277.8 106.0 L277.9 106.2 L278.0 106.4 L278.2 106.5 L277.8 106.8 L277.7 106.8 L277.4 106.9 L277.4 107.1 L277.7 107.3 L277.8 107.5 L277.6 108.2 L277.7 108.6 L277.9 109.0 L278.5 109.6 L278.3 109.6 L278.2 109.6 L278.5 110.0 L278.9 110.2 L279.3 110.3 L279.4 110.6 L279.4 110.8 L279.6 111.2 L280.0 111.4 L280.5 111.5 L280.9 111.6 L280.5 112.2 L280.5 112.3 L281.6 113.3 L281.8 113.7 L281.5 113.7 L281.3 113.9 L281.3 114.2 L281.5 114.6 L281.0 114.7 L280.5 115.0 L280.1 115.4 L280.0 115.8 L280.2 116.3 L280.6 116.5 L281.1 116.5 L281.6 116.7 L283.0 118.7 L283.6 119.1 L285.0 119.7 L286.3 120.5 L286.6 120.8 L286.1 121.0 L286.0 121.2 L286.4 121.7 L287.1 122.4 L287.3 122.8 L287.7 123.9 L287.7 124.1 L287.5 124.3 L287.7 124.4 L288.1 124.5 L288.4 124.6 L288.7 124.9 L288.8 125.1 L288.8 125.4 L288.9 125.7 L289.3 126.1 L291.2 127.2 L293.4 128.0 L293.7 128.3 L293.4 128.8 L292.6 128.9 L291.7 128.9 L291.2 129.0 L290.4 128.8 L289.7 128.8 L289.1 129.1 L288.8 129.6 L288.8 130.1 L289.2 130.4 L289.8 130.6 L290.6 130.7 L290.6 130.8 L290.2 131.3 L290.6 131.7 L291.3 132.0 L292.1 132.1 L291.9 132.7 L292.1 133.3 L292.8 134.3 L292.8 134.3 L292.2 135.0 L292.4 136.3 L292.6 136.6 L292.8 136.7 L292.7 136.8 L292.4 137.1 L291.9 137.4 L290.2 138.0 L290.1 138.3 L290.1 138.8 L290.1 139.2 L290.0 139.5 L289.4 140.3 L288.0 140.7 L283.2 140.8 L282.2 140.9 L281.8 141.1 L281.4 141.3 L281.1 141.7 L280.8 142.4 L280.8 142.5 L280.4 142.8 L278.3 144.3 L277.5 144.7 L277.5 144.7 L277.5 144.7 L277.5 144.7 L276.1 145.4 L274.9 146.0 L268.8 150.2 L268.0 151.0 L267.0 151.5 L265.9 152.3 L263.0 155.0 L261.9 155.8 L261.8 156.0 L261.5 156.5 L261.4 156.7 L261.2 156.9 L260.7 157.0 L260.5 157.1 L260.2 157.3 L258.6 159.2 L258.1 159.5 L257.8 159.6 L257.3 159.7 L257.0 159.8 L256.8 160.1 L256.3 160.9 L254.3 162.7 L253.6 163.7 L254.1 164.7 L254.3 165.1 L254.5 166.2 L254.6 166.5 L254.7 166.7 L255.0 167.0 L255.6 167.4 L255.7 167.6 L255.8 168.0 L256.2 170.5 L256.1 170.9 L255.7 171.7 L255.3 172.6 L254.9 173.2 L254.7 173.5 L254.9 173.7 L255.0 173.6 L255.4 173.3 L255.8 173.5 L255.7 173.5 L255.6 173.6 L256.5 174.0 L257.3 174.6 L257.8 174.9 L259.0 175.3 L259.3 175.6 L259.3 175.8 L259.1 176.3 L259.0 176.7 L259.1 176.9 L259.6 177.4 L259.6 177.5 L259.7 177.6 L259.3 178.0 L258.8 177.8 L258.2 177.5 L257.7 177.3 L257.4 177.3 L256.9 176.8 L256.7 176.6 L256.4 176.6 L255.8 176.7 L254.8 176.7 L254.2 176.7 L253.7 176.7 L253.0 176.4 L252.0 175.7 L251.5 175.6 L250.9 175.9 L250.0 175.6 L247.9 175.6 L246.9 175.4 L245.6 174.5 L245.0 174.3 L243.5 174.4 L242.3 174.1 L242.1 174.0 L242.0 173.8 L242.1 173.7 L242.1 173.5 L241.8 173.2 L241.6 173.2 L240.9 173.3 L240.7 173.3 L240.4 173.2 L239.5 172.8 L237.6 172.6 L236.8 172.2 L236.7 171.4 L236.3 170.4 L235.6 169.6 L234.6 169.0 L233.2 168.5 L232.2 168.0 L231.7 167.8 L231.2 167.8 L230.7 168.1 L230.3 168.4 L230.0 168.5 L229.6 168.3 L228.7 167.4 L228.3 167.1 L228.0 167.1 L227.6 167.1 L227.4 167.1 L227.1 167.0 L226.6 166.7 L226.4 166.5 L225.9 166.5 L224.0 166.6 L223.6 166.7 L223.1 166.8 L222.7 166.8 L221.7 166.9 L221.2 166.9 L218.6 166.4 L217.1 165.9 L216.8 165.8 L216.3 166.1 L215.5 166.9 L215.0 167.1 L214.4 167.2 L214.0 167.0 L213.6 166.7 L213.2 166.5 L212.7 166.5 L211.7 166.7 L211.2 166.8 L210.7 167.2 L211.0 167.4 L211.6 167.7 L212.0 168.1 L211.8 168.3 L211.3 168.4 L210.7 168.4 L210.3 168.4 L209.7 168.8 L208.9 169.6 L208.3 169.9 L207.7 170.1 L207.2 170.0 L206.7 169.8 L206.3 169.5 L205.8 169.3 L205.4 169.2 L204.9 169.3 L204.3 169.2 L203.9 169.0 L201.5 167.1 L201.1 167.1 L200.1 167.2 L199.5 167.2 L199.3 167.2 L199.0 167.3 L198.6 167.6 L198.3 167.8 L197.6 167.9 L197.1 167.8 L194.8 167.1 L194.4 167.2 L194.4 167.6 L193.0 167.7 L191.9 167.4 L191.6 167.4 L191.3 167.5 L191.2 167.7 L191.2 167.9 L191.0 168.3 L190.9 168.7 L190.7 168.8 L188.7 168.9 L188.3 169.1 L187.7 169.5 L187.4 169.7 L186.8 169.6 L186.8 169.6 L186.6 169.7 L186.1 170.5 L185.9 170.8 L185.8 171.1 L185.4 171.4 L185.3 172.3 L185.0 173.0 L184.5 173.2 L183.6 172.9 L182.2 172.1 L181.5 171.8 L180.6 171.9 L180.1 172.1 L179.6 172.5 L179.2 172.7 L178.6 172.9 L177.4 172.8 L176.7 172.7 L176.4 172.3 L176.5 172.0 L177.5 170.9 L177.6 170.9 L177.8 170.8 L178.0 170.8 L178.0 170.6 L178.0 170.5 L178.0 170.5 L177.8 170.3 L177.8 170.3 L177.7 170.3 L177.7 170.3 L177.3 170.1 L177.2 170.0 L177.2 170.0 L177.3 169.9 L177.5 169.7 L177.5 169.6 L177.4 168.3 L177.2 167.9 L177.0 167.3 L177.0 167.3 L176.7 167.2 L175.8 167.5 L175.3 167.5 L174.7 167.5 L173.2 167.1 L173.2 167.1 L173.2 166.8 L173.2 166.4 L173.3 166.2 L173.4 166.1 L172.3 166.1 L171.8 166.0 L171.3 165.7 L171.2 165.5 L170.7 164.7 L170.2 163.3 L169.9 162.8 L169.3 162.5 L169.1 162.4 L168.6 161.9 L168.4 161.8 L168.3 161.8 L168.1 161.8 L168.0 162.0 L165.7 163.6 L165.5 163.7 L165.1 163.8 L164.8 163.9 L164.0 163.8 L163.5 163.9 L163.1 164.1 L162.7 164.3 L162.3 164.7 L161.9 165.5 L161.9 165.6 L162.0 165.7 L162.1 165.8 L162.0 166.0 L161.9 166.0 L161.6 166.0 L161.5 166.0 L161.3 166.6 L161.2 166.9 L161.0 167.1 L160.2 167.3 L159.5 167.4 L159.3 167.4 L159.0 167.3 L158.5 167.1 L158.2 167.0 L157.7 167.1 L156.6 167.5 L156.0 167.5 L155.4 167.5 L155.3 167.2 L155.4 166.3 L155.3 165.9 L155.2 165.5 L155.2 165.1 L155.4 164.7 L154.6 164.4 L152.0 164.2 Z" fill="#172033" fill-rule="evenodd"/></svg>
