<svg xmlns="http://www.w3.org/2000/svg" viewBox="0 0 320 200" role="img"><path d="M98.9 42.1 L99.5 42.0 L100.0 41.7 L100.3 41.3 L100.0 40.7 L100.3 40.4 L100.7 40.4 L101.2 40.5 L101.7 40.7 L102.1 40.9 L102.6 41.0 L103.1 41.0 L104.3 40.3 L104.7 39.8 L105.4 38.5 L105.9 37.9 L106.5 37.7 L107.2 37.7 L109.2 38.2 L109.7 38.5 L110.9 39.4 L112.3 40.2 L113.0 40.7 L113.2 40.8 L113.4 40.8 L113.6 40.8 L113.9 40.7 L113.9 40.7 L113.9 40.7 L114.0 40.7 L114.0 40.7 L115.9 41.4 L116.5 41.3 L116.6 41.3 L116.7 41.2 L116.9 41.1 L117.0 40.9 L117.2 40.7 L117.5 40.6 L117.8 40.5 L118.9 40.4 L119.4 40.5 L121.3 40.6 L122.5 40.9 L123.2 41.0 L125.2 40.9 L125.7 41.1 L127.2 42.0 L127.4 42.5 L128.1 42.4 L131.0 41.6 L131.9 41.7 L132.4 41.9 L133.8 42.2 L134.4 42.3 L135.5 43.0 L136.0 43.1 L136.0 43.1 L137.8 43.5 L138.4 43.5 L140.3 42.9 L141.8 42.8 L142.9 42.2 L143.6 41.9 L144.2 41.9 L145.8 42.2 L147.5 42.2 L148.0 42.3 L148.3 42.4 L149.4 42.8 L150.1 43.2 L150.6 43.6 L150.8 44.1 L150.8 44.4 L151.0 44.8 L151.5 45.2 L152.5 45.6 L154.8 46.2 L155.2 46.5 L155.6 46.8 L156.6 48.0 L157.3 48.7 L157.8 49.0 L158.8 48.9 L159.2 48.8 L161.3 48.6 L163.2 48.0 L163.2 48.0 L163.2 48.0 L164.4 47.2 L167.2 44.1 L168.5 43.5 L182.8 42.4 L184.7 41.9 L186.3 41.8 L187.1 41.5 L187.6 41.5 L189.0 41.6 L190.9 41.2 L193.0 41.2 L193.7 41.2 L195.1 40.7 L195.4 40.4 L196.0 39.4 L196.4 39.1 L197.1 38.7 L197.5 38.4 L197.9 37.8 L198.4 36.9 L198.7 36.0 L198.7 35.3 L198.9 34.3 L199.1 34.4 L199.7 34.4 L200.2 34.3 L201.1 34.0 L201.6 33.9 L203.0 33.9 L203.5 33.8 L207.2 33.3 L208.1 33.0 L209.5 32.5 L210.1 32.5 L210.8 32.9 L211.1 33.0 L211.4 32.6 L211.7 33.1 L212.3 33.2 L213.5 33.0 L214.0 33.2 L214.7 33.7 L215.0 33.6 L216.2 34.4 L216.4 34.7 L216.5 35.1 L216.8 35.0 L217.1 34.7 L217.4 34.6 L217.8 34.8 L217.9 35.1 L218.1 35.4 L219.1 35.7 L219.1 35.9 L218.8 36.1 L218.2 36.2 L218.2 36.3 L219.0 36.7 L219.6 36.8 L219.9 36.6 L220.2 36.7 L220.5 36.8 L220.6 37.0 L220.6 37.0 L220.6 37.1 L220.3 37.4 L220.2 37.6 L220.4 38.3 L220.9 38.8 L221.6 39.3 L222.4 39.6 L222.4 39.8 L221.8 40.0 L221.8 40.1 L221.9 40.2 L221.9 40.3 L222.0 40.4 L222.8 40.1 L223.1 40.5 L223.4 40.9 L223.8 40.8 L224.1 41.0 L224.2 41.3 L224.0 41.6 L223.6 41.8 L224.2 42.1 L224.4 42.2 L224.4 42.2 L224.4 42.3 L223.9 42.8 L224.2 43.1 L224.9 43.3 L225.4 43.8 L225.4 43.9 L225.4 44.8 L225.4 45.0 L225.7 45.1 L226.1 45.2 L226.4 45.3 L226.6 45.6 L225.6 46.0 L226.0 46.2 L226.4 46.6 L226.7 47.0 L226.8 47.3 L226.9 47.4 L227.5 47.7 L227.6 47.8 L227.6 47.8 L227.7 48.1 L227.7 48.4 L227.8 48.6 L227.8 48.8 L227.2 48.9 L227.4 49.5 L228.1 50.3 L230.0 52.0 L230.8 52.5 L231.7 52.8 L231.7 52.8 L231.8 53.0 L231.9 53.4 L232.0 53.6 L232.1 53.7 L232.1 53.9 L232.1 54.1 L232.2 54.1 L232.5 54.1 L232.6 54.2 L232.8 54.9 L233.0 55.4 L233.3 55.6 L233.6 55.6 L233.7 55.6 L233.8 55.7 L234.0 55.8 L234.8 55.8 L234.8 55.8 L235.2 55.9 L235.6 56.0 L236.0 56.3 L236.2 56.6 L236.0 56.7 L235.8 56.9 L235.7 57.2 L235.6 57.6 L236.1 57.9 L235.9 58.8 L236.3 59.0 L236.4 59.0 L236.7 59.2 L237.4 60.3 L237.8 60.8 L238.0 60.8 L238.8 61.0 L239.1 61.1 L239.3 61.2 L239.6 61.3 L240.3 61.4 L240.6 61.7 L241.2 62.4 L241.2 62.7 L241.5 63.1 L242.2 63.8 L242.6 64.6 L242.6 64.6 L242.7 64.8 L242.8 65.0 L242.7 65.1 L242.4 65.2 L242.8 65.5 L244.0 66.0 L244.0 66.2 L243.8 66.4 L244.0 66.5 L244.2 66.5 L244.5 66.7 L245.4 67.3 L246.2 67.7 L246.6 67.9 L246.6 68.4 L247.3 68.5 L248.0 68.7 L248.6 69.0 L249.2 68.8 L249.5 69.2 L249.5 69.3 L250.4 70.1 L250.8 70.5 L251.4 71.6 L251.5 72.0 L251.5 72.1 L251.2 72.6 L251.7 72.8 L251.7 73.1 L251.7 73.5 L252.0 73.8 L252.0 74.0 L252.0 74.3 L251.9 74.6 L252.4 75.4 L253.6 76.8 L253.6 77.3 L255.2 79.6 L255.5 80.4 L255.6 80.5 L255.6 80.8 L255.6 81.2 L255.4 81.5 L255.1 81.9 L255.0 82.3 L255.2 82.8 L255.0 82.9 L254.9 83.1 L254.8 84.2 L254.9 84.4 L255.2 85.0 L255.3 85.0 L255.5 85.0 L255.6 85.0 L255.6 85.3 L255.6 86.2 L255.6 86.4 L255.4 86.6 L255.0 86.8 L255.2 87.2 L255.1 87.3 L255.0 87.4 L254.8 87.4 L254.6 87.6 L254.4 88.5 L254.3 88.6 L254.0 88.7 L253.9 88.9 L254.0 89.5 L254.0 89.8 L254.0 89.9 L253.6 90.5 L253.2 90.8 L253.0 90.9 L252.6 90.9 L252.3 91.0 L252.2 91.2 L252.3 91.7 L252.3 91.9 L251.9 92.0 L251.6 92.1 L251.6 92.3 L252.2 92.9 L252.4 93.1 L252.5 93.3 L252.6 93.6 L252.3 94.2 L252.1 95.0 L251.6 95.9 L251.5 96.1 L251.3 96.5 L251.1 96.6 L251.0 96.8 L251.0 96.9 L251.2 97.0 L251.2 97.2 L250.9 98.2 L250.8 98.5 L250.9 98.9 L251.6 100.4 L251.7 100.7 L251.7 100.9 L251.9 101.1 L252.0 101.3 L252.0 101.5 L251.9 101.7 L251.8 102.0 L251.9 102.2 L252.2 102.5 L252.2 102.7 L252.1 102.8 L251.8 103.0 L251.6 103.2 L251.7 104.0 L252.2 104.9 L252.7 105.6 L252.9 105.9 L253.2 108.8 L253.1 109.3 L253.3 109.6 L252.9 109.8 L251.9 109.8 L251.5 109.9 L251.1 110.1 L250.6 110.4 L250.2 110.8 L251.8 111.4 L252.5 111.7 L253.0 112.4 L253.1 112.5 L253.2 112.6 L253.2 112.7 L253.2 113.7 L253.4 114.0 L254.2 114.6 L254.6 115.0 L254.7 114.9 L255.3 114.9 L256.2 115.2 L256.8 115.8 L256.6 116.4 L257.5 117.9 L258.0 118.7 L258.7 119.0 L259.2 119.1 L260.2 119.5 L262.8 119.9 L265.2 120.8 L269.1 121.5 L270.2 121.4 L271.1 121.3 L271.5 121.2 L271.8 121.0 L271.0 120.7 L270.8 120.6 L270.7 120.4 L270.6 120.1 L270.6 119.9 L271.5 119.6 L271.4 119.1 L271.4 118.7 L272.2 118.6 L272.7 118.7 L273.4 119.1 L274.1 119.2 L274.5 119.3 L275.0 119.7 L275.5 119.9 L276.2 119.8 L276.3 119.6 L276.4 119.0 L276.6 118.8 L276.8 118.6 L277.1 118.6 L277.7 118.6 L278.1 118.4 L279.6 117.6 L280.8 117.3 L281.3 117.2 L281.7 116.9 L282.0 116.8 L282.7 116.7 L282.8 116.7 L282.9 116.4 L283.2 116.2 L283.6 116.0 L284.2 115.7 L284.7 115.7 L285.2 115.8 L285.8 115.8 L286.1 115.7 L286.3 115.6 L286.5 115.4 L286.7 115.3 L287.0 115.1 L287.3 115.2 L287.6 115.3 L287.9 115.4 L290.2 115.5 L294.2 116.6 L295.6 117.4 L295.9 117.6 L296.6 118.0 L297.1 119.0 L297.2 120.1 L296.8 121.0 L297.0 121.1 L297.0 121.4 L297.0 121.6 L296.8 121.8 L296.6 121.7 L295.8 121.8 L295.8 122.0 L296.2 122.4 L296.5 122.9 L297.0 123.3 L298.0 123.4 L297.3 123.9 L297.0 124.7 L296.7 127.2 L296.6 127.7 L296.2 128.6 L296.1 129.0 L296.1 129.5 L296.0 129.9 L295.8 130.2 L296.0 130.8 L295.2 131.6 L295.6 132.1 L295.4 132.5 L295.2 132.6 L294.9 132.6 L294.6 132.8 L294.2 133.2 L294.0 133.3 L293.4 133.1 L293.1 133.2 L292.8 133.3 L292.5 133.3 L286.8 134.0 L283.2 134.1 L282.1 134.4 L279.2 135.8 L278.4 136.4 L277.6 137.2 L277.4 137.0 L277.4 136.5 L277.0 136.0 L276.9 135.5 L277.5 135.3 L278.2 135.2 L279.3 134.9 L280.4 134.6 L281.1 134.3 L281.6 133.8 L281.8 133.1 L281.6 132.8 L281.3 132.4 L280.4 131.7 L280.6 132.2 L280.6 132.4 L280.6 132.8 L280.1 132.7 L279.7 132.9 L279.3 133.0 L279.0 132.6 L278.9 132.0 L278.8 130.3 L279.1 129.7 L280.5 129.3 L280.8 129.0 L280.6 128.7 L279.3 128.1 L278.9 127.9 L278.0 127.9 L277.1 127.7 L276.8 127.8 L276.7 127.9 L276.6 128.2 L276.4 128.4 L276.1 128.6 L275.5 128.6 L275.2 128.7 L274.1 129.4 L273.8 129.7 L273.6 130.4 L273.6 130.5 L273.9 130.7 L274.0 130.9 L273.9 131.0 L273.8 131.1 L273.7 131.2 L273.6 131.3 L273.7 131.5 L273.9 131.7 L274.1 131.9 L274.8 132.1 L276.2 133.1 L275.8 133.4 L275.7 133.5 L275.4 133.5 L275.7 133.7 L275.8 133.7 L275.8 134.0 L275.4 134.1 L275.4 134.4 L275.6 134.7 L276.0 134.9 L275.7 135.1 L275.4 135.2 L274.1 135.2 L273.8 135.3 L272.0 136.1 L271.7 136.3 L271.4 136.7 L271.4 137.0 L271.6 137.2 L272.0 137.0 L271.9 137.3 L271.3 137.4 L271.2 137.9 L271.3 138.3 L271.5 138.5 L273.1 138.3 L273.8 138.0 L274.4 137.5 L275.0 137.0 L274.6 136.4 L276.6 136.8 L277.1 137.1 L277.2 137.6 L277.0 138.1 L276.5 138.6 L275.8 138.8 L276.3 138.3 L276.8 137.7 L276.9 137.2 L276.2 137.0 L276.2 137.2 L276.4 137.4 L276.4 137.5 L275.8 137.6 L275.4 137.4 L275.2 137.4 L275.1 137.4 L274.9 137.6 L274.8 137.8 L274.2 138.1 L273.3 138.8 L272.8 139.0 L271.4 139.5 L271.0 139.7 L271.5 139.1 L271.6 138.8 L271.2 138.7 L270.8 138.8 L270.5 139.0 L270.4 139.4 L270.8 139.4 L270.6 139.7 L270.7 139.9 L271.0 140.1 L271.4 140.2 L270.2 140.4 L269.8 140.7 L269.8 141.2 L269.9 141.0 L270.1 140.9 L270.2 140.8 L270.6 140.9 L271.0 141.2 L270.7 141.5 L270.4 142.3 L270.2 143.1 L270.3 143.7 L270.5 143.7 L270.8 143.5 L270.9 143.2 L271.1 142.5 L271.4 142.2 L272.0 142.0 L272.9 141.1 L273.4 140.7 L273.9 140.5 L274.4 140.4 L274.8 140.1 L275.1 139.7 L275.4 139.2 L275.2 139.7 L274.9 140.2 L273.0 142.9 L271.7 143.6 L269.0 146.2 L268.7 146.8 L268.6 147.2 L268.2 147.0 L267.8 147.1 L267.4 147.4 L267.1 147.7 L266.9 148.0 L266.9 148.4 L266.8 149.6 L266.9 149.9 L267.4 150.5 L267.8 151.5 L267.9 151.9 L267.8 152.1 L268.0 152.4 L267.6 152.2 L267.2 152.3 L267.0 152.5 L266.8 152.8 L267.0 153.3 L267.5 155.7 L268.0 157.2 L268.0 157.4 L267.9 157.6 L267.7 157.9 L267.5 158.4 L267.1 159.3 L267.0 159.6 L266.3 160.7 L266.2 160.9 L265.7 162.5 L265.5 162.8 L265.5 163.1 L265.6 163.4 L265.5 163.6 L265.4 163.9 L265.4 164.2 L265.4 164.5 L265.3 164.8 L261.1 165.0 L254.9 164.2 L248.8 162.2 L247.8 161.7 L246.5 158.3 L245.8 157.5 L245.8 157.5 L244.2 157.6 L242.2 158.4 L240.3 158.8 L239.1 157.6 L238.9 157.5 L238.4 156.6 L237.7 156.4 L236.0 156.8 L230.4 156.8 L230.1 156.7 L229.5 156.0 L229.2 155.7 L227.5 155.2 L226.9 154.7 L227.1 154.0 L226.6 153.7 L226.5 153.7 L225.8 153.8 L225.2 153.5 L222.1 153.1 L220.0 152.1 L219.3 152.5 L215.8 152.7 L213.1 153.9 L212.0 154.1 L210.7 154.1 L210.4 154.2 L209.8 154.4 L209.5 154.5 L208.9 154.5 L208.0 154.8 L202.2 155.4 L199.7 155.7 L199.1 155.7 L196.8 156.5 L194.4 156.9 L193.4 157.3 L192.3 158.2 L191.8 158.7 L191.6 159.2 L188.1 161.1 L187.8 161.4 L187.6 161.8 L186.2 163.1 L185.3 163.4 L184.4 164.2 L184.3 164.3 L183.6 165.1 L182.4 165.5 L182.2 165.5 L180.4 165.5 L179.9 165.8 L179.5 166.1 L178.8 166.4 L178.2 166.6 L177.6 166.7 L177.1 166.9 L176.4 166.9 L175.1 166.9 L174.9 166.9 L174.5 167.0 L173.3 167.4 L172.6 167.5 L171.3 167.4 L170.3 166.9 L169.3 166.4 L169.2 166.3 L168.2 165.9 L167.0 165.7 L163.2 165.5 L159.8 164.6 L153.6 164.9 L152.2 164.8 L151.0 164.4 L146.3 163.1 L145.3 163.0 L144.2 163.3 L142.6 164.2 L142.1 164.3 L141.5 164.3 L136.3 164.5 L136.0 164.4 L125.8 162.6 L124.2 161.9 L123.5 161.8 L121.0 162.2 L120.6 162.1 L119.8 162.0 L116.6 160.8 L112.0 160.6 L109.3 160.9 L108.2 161.3 L107.2 161.4 L106.3 161.7 L104.0 161.9 L100.1 162.1 L99.2 162.0 L98.5 161.5 L98.1 160.9 L98.1 160.3 L98.8 158.1 L99.1 157.4 L99.7 157.2 L100.3 157.1 L101.5 156.8 L102.1 156.8 L103.1 156.4 L103.6 155.5 L103.4 154.6 L102.7 154.3 L102.1 154.2 L100.8 154.0 L99.7 153.7 L93.5 150.6 L93.4 150.6 L93.3 150.2 L93.4 148.8 L93.2 148.4 L92.6 148.2 L91.4 148.1 L90.3 147.7 L89.3 147.1 L88.5 146.3 L88.0 145.5 L88.0 145.3 L88.1 144.8 L88.0 144.6 L87.9 144.4 L87.3 144.0 L87.2 143.7 L87.2 143.4 L87.3 143.0 L87.4 142.7 L87.6 142.6 L87.9 142.5 L88.9 142.5 L89.3 142.3 L89.5 142.1 L89.6 141.6 L89.8 141.1 L90.2 140.8 L90.8 140.6 L91.4 140.7 L92.0 140.8 L93.1 141.4 L93.7 141.5 L94.3 141.4 L94.9 141.2 L95.4 140.8 L95.6 140.3 L94.1 139.1 L93.7 138.9 L91.4 138.7 L90.4 138.3 L89.4 137.7 L87.4 136.1 L87.0 136.0 L86.4 135.9 L85.7 135.9 L85.4 136.0 L84.4 136.8 L83.8 137.1 L82.6 137.3 L82.2 137.5 L82.0 138.0 L78.7 142.2 L78.3 142.5 L77.6 142.7 L77.0 142.6 L76.3 142.4 L75.8 142.0 L75.5 141.2 L75.2 141.0 L74.9 140.9 L74.6 140.7 L74.4 140.4 L74.3 140.1 L74.3 139.9 L74.2 139.7 L73.4 138.3 L73.1 138.1 L72.2 137.9 L69.5 137.0 L69.1 136.9 L68.6 137.0 L67.5 137.3 L66.2 137.5 L64.7 137.5 L63.3 137.2 L62.2 136.4 L61.9 135.9 L61.7 135.4 L61.5 134.9 L61.0 134.6 L60.4 134.5 L58.6 134.6 L56.1 134.4 L55.7 134.2 L55.1 133.4 L54.6 133.2 L54.6 133.1 L54.1 133.0 L54.2 132.6 L54.5 132.3 L54.9 132.0 L55.6 131.8 L57.3 131.9 L58.2 131.8 L59.3 131.6 L59.8 131.3 L59.8 130.8 L59.6 130.3 L59.2 130.0 L58.2 129.7 L57.4 129.5 L56.0 129.3 L55.3 129.0 L55.3 128.8 L55.4 128.6 L55.3 128.5 L54.8 128.5 L54.4 128.4 L54.4 128.1 L54.5 127.8 L54.7 127.6 L55.0 127.5 L55.7 127.5 L56.0 127.4 L56.4 127.2 L56.5 127.0 L56.5 126.8 L56.6 126.4 L56.7 126.3 L57.0 126.1 L57.1 126.0 L57.1 125.8 L57.1 125.6 L57.1 125.4 L57.0 125.4 L57.2 125.1 L57.5 125.0 L57.8 124.8 L58.2 124.8 L58.5 124.6 L58.6 124.2 L58.5 123.9 L58.2 123.6 L57.5 123.0 L56.8 122.6 L55.9 122.3 L52.8 121.6 L51.6 121.5 L51.1 121.4 L50.1 120.9 L49.6 120.5 L48.6 119.5 L48.2 119.2 L47.9 119.3 L47.4 119.6 L47.1 119.7 L46.8 119.7 L46.5 119.5 L46.3 119.3 L46.0 119.2 L44.6 118.7 L43.6 118.4 L43.1 118.1 L42.0 117.1 L40.1 115.9 L39.1 114.9 L38.7 114.6 L38.2 114.4 L37.7 114.3 L37.3 114.1 L37.1 113.7 L37.8 113.3 L38.2 113.0 L38.3 112.6 L37.9 111.9 L37.0 110.9 L36.9 110.4 L37.2 109.7 L37.5 109.2 L37.6 108.9 L37.7 108.5 L37.7 107.0 L37.7 106.7 L37.8 106.4 L37.8 106.1 L37.6 105.8 L37.2 105.7 L36.9 105.8 L36.7 106.1 L36.5 106.4 L36.1 106.6 L35.7 106.7 L35.3 106.6 L35.0 106.4 L34.7 106.0 L34.0 105.4 L33.8 105.1 L33.7 104.9 L33.7 104.8 L33.6 104.2 L33.5 104.0 L33.3 103.8 L32.8 103.5 L32.6 103.4 L31.6 102.2 L31.2 101.9 L30.6 101.7 L29.5 101.6 L29.0 101.5 L27.4 100.5 L26.9 100.2 L25.7 99.8 L25.2 99.6 L24.8 99.1 L24.2 97.8 L23.8 97.3 L22.0 95.7 L23.2 94.7 L27.9 94.6 L28.6 93.8 L29.8 94.0 L30.9 94.3 L31.8 94.9 L32.1 95.0 L32.4 95.1 L32.6 95.1 L34.3 94.9 L34.9 94.7 L35.3 94.3 L35.5 94.0 L35.5 94.0 L35.5 93.6 L35.6 93.4 L35.9 93.4 L36.1 93.4 L36.4 93.5 L36.6 93.3 L36.7 93.1 L36.4 92.4 L36.4 92.1 L36.5 92.0 L37.6 91.3 L37.9 91.2 L38.2 91.1 L38.8 91.0 L39.4 91.0 L39.7 91.1 L40.2 91.4 L40.5 91.5 L40.7 91.5 L41.2 91.3 L41.4 91.3 L41.9 91.3 L43.0 91.7 L43.6 91.6 L43.8 91.6 L44.1 91.6 L44.3 91.6 L44.5 91.8 L45.1 92.2 L45.6 92.0 L47.0 90.8 L47.2 90.8 L48.0 90.8 L48.3 90.6 L48.7 90.2 L48.9 89.6 L49.0 88.3 L49.3 87.7 L49.8 87.3 L50.4 87.1 L51.6 87.1 L52.3 86.8 L52.1 86.1 L51.3 85.0 L51.3 84.4 L51.7 83.9 L52.2 83.5 L52.6 82.9 L52.7 81.8 L52.9 81.3 L53.3 80.9 L54.0 80.8 L55.0 80.9 L55.7 80.6 L56.3 80.1 L56.5 79.7 L56.5 79.6 L56.8 79.2 L57.6 79.1 L58.2 78.9 L58.7 78.4 L58.8 77.8 L58.1 77.4 L58.0 77.4 L57.9 77.3 L57.8 77.2 L57.9 77.0 L57.9 76.9 L58.0 76.7 L58.2 76.6 L58.8 75.4 L59.2 74.9 L59.8 74.5 L60.8 74.3 L61.1 74.2 L61.4 73.8 L61.4 73.5 L61.3 73.2 L61.2 72.8 L61.3 72.5 L61.3 72.4 L61.4 72.3 L62.8 71.6 L63.0 71.4 L63.6 69.9 L63.7 69.9 L63.7 69.9 L63.4 69.5 L63.2 69.4 L62.9 69.4 L62.7 69.3 L62.6 69.2 L62.6 69.1 L63.7 68.1 L64.4 67.7 L65.8 67.0 L66.4 66.6 L66.6 66.4 L66.7 65.9 L66.9 65.6 L67.1 65.3 L67.8 64.9 L68.0 64.7 L68.2 64.3 L68.2 64.0 L68.1 63.8 L68.1 63.4 L68.3 63.1 L68.6 62.7 L68.7 62.4 L69.1 61.4 L69.3 61.0 L70.4 59.9 L70.9 59.5 L71.4 59.3 L72.7 59.0 L73.3 58.2 L73.3 57.3 L73.0 56.2 L73.0 55.3 L73.5 54.6 L74.4 54.0 L76.2 53.1 L77.6 52.8 L77.8 52.7 L78.0 52.6 L78.2 52.4 L78.2 52.4 L78.2 52.2 L78.2 52.0 L78.3 51.8 L79.1 51.1 L79.1 50.8 L79.2 50.3 L79.4 50.1 L79.6 49.9 L80.1 49.6 L80.3 49.5 L80.9 48.8 L81.3 48.6 L81.8 48.4 L82.3 48.3 L82.7 48.2 L84.0 48.4 L84.5 48.4 L84.8 48.2 L85.2 48.0 L85.6 46.9 L86.5 46.7 L88.7 47.5 L89.7 47.6 L90.8 47.5 L91.9 47.2 L92.7 46.7 L93.5 46.1 L93.8 45.9 L94.4 45.7 L95.1 45.6 L95.2 45.6 L95.5 45.2 L95.4 45.0 L95.3 44.8 L95.3 44.6 L95.6 44.2 L96.0 44.0 L97.2 43.7 L97.7 43.4 L98.4 42.5 L98.9 42.1 Z" fill="#172033" fill-rule="evenodd"/></svg>
