<svg xmlns="http://www.w3.org/2000/svg" viewBox="0 0 320 200" role="img"><path d="M84.4 168.6 L83.0 167.1 L81.2 166.2 L78.6 166.0 L77.4 165.5 L74.1 163.3 L73.4 162.6 L74.0 155.9 L73.4 153.8 L72.5 152.9 L71.5 152.4 L70.8 151.9 L70.4 150.8 L70.7 149.6 L72.3 148.3 L72.0 147.2 L71.1 145.6 L70.7 143.8 L70.6 141.9 L71.2 139.6 L72.5 138.6 L74.8 137.7 L76.7 137.2 L78.2 136.3 L79.5 135.0 L80.5 133.4 L81.1 132.1 L81.4 131.2 L81.6 130.4 L82.5 129.6 L83.2 129.3 L85.7 129.4 L89.7 128.3 L92.7 125.9 L94.9 122.5 L96.3 118.3 L96.8 114.6 L96.6 111.5 L94.3 97.6 L94.1 94.4 L94.5 91.2 L96.2 87.3 L99.5 82.1 L101.7 78.5 L103.6 74.9 L104.7 73.4 L108.9 69.8 L109.8 68.7 L112.2 63.7 L113.3 62.4 L114.6 61.8 L121.4 61.5 L121.6 61.5 L121.8 61.4 L122.0 61.2 L122.3 60.7 L124.0 58.0 L127.0 54.9 L130.5 52.3 L134.0 51.1 L137.6 51.3 L139.4 51.1 L141.0 50.7 L142.9 49.7 L144.2 48.7 L145.7 47.9 L147.8 47.5 L148.9 47.8 L150.8 48.9 L151.4 49.1 L152.1 48.7 L152.6 47.0 L153.4 46.0 L154.3 45.5 L155.0 45.3 L155.8 45.4 L155.8 45.4 L156.8 45.9 L159.3 49.5 L159.7 51.3 L159.9 55.0 L160.7 56.8 L162.2 58.3 L164.0 58.7 L165.8 58.5 L167.8 57.8 L173.7 54.5 L174.7 54.3 L175.5 52.4 L176.6 51.2 L177.1 51.0 L179.7 49.6 L183.3 48.2 L184.2 47.3 L184.7 45.9 L185.2 42.5 L185.9 41.3 L186.5 40.9 L187.3 40.8 L188.0 40.7 L188.6 40.5 L190.0 39.7 L193.9 36.0 L195.0 34.5 L196.0 32.9 L196.2 32.3 L196.4 31.1 L196.6 30.5 L196.9 30.3 L197.2 30.0 L198.7 29.4 L199.3 28.9 L199.7 27.6 L200.3 23.9 L201.0 22.7 L202.4 22.2 L203.8 22.4 L205.3 22.8 L206.8 23.0 L208.2 22.7 L209.4 22.2 L210.6 22.0 L211.9 22.4 L212.9 22.7 L212.2 23.4 L211.5 24.4 L211.2 25.4 L211.5 26.4 L212.8 27.2 L213.1 28.4 L212.9 29.0 L212.6 29.5 L212.3 30.0 L212.5 30.5 L213.2 31.0 L213.9 30.9 L214.5 30.6 L214.9 30.5 L216.0 31.3 L216.3 31.9 L216.7 34.1 L217.2 35.4 L218.8 38.1 L219.4 39.9 L220.2 40.9 L220.4 41.7 L220.3 41.9 L220.1 42.3 L219.9 42.8 L219.8 43.5 L220.2 44.9 L221.4 45.8 L224.0 46.8 L224.9 47.5 L226.2 48.8 L227.0 49.3 L232.9 51.4 L234.6 51.7 L236.3 52.7 L236.8 55.0 L236.7 57.3 L236.4 58.3 L235.9 58.9 L236.4 60.0 L237.9 62.0 L239.0 63.1 L239.4 63.8 L240.2 67.0 L241.1 69.0 L242.5 70.0 L244.6 69.2 L245.2 71.1 L245.1 73.4 L244.0 80.3 L244.0 81.3 L244.2 81.7 L245.0 82.9 L245.2 83.8 L244.2 86.2 L244.5 87.1 L245.2 90.7 L244.7 92.1 L243.8 93.5 L243.3 94.8 L244.0 96.4 L242.5 97.5 L242.0 98.1 L241.6 98.8 L244.2 99.2 L244.5 101.6 L243.3 106.7 L245.0 106.3 L246.5 107.1 L247.9 108.5 L248.8 109.8 L249.6 112.3 L246.5 122.1 L245.8 126.0 L246.1 132.1 L245.8 133.9 L244.9 135.5 L243.7 136.3 L242.2 137.0 L240.9 137.8 L239.6 138.1 L239.0 138.5 L238.2 138.7 L237.5 138.5 L232.9 136.2 L231.9 135.9 L230.8 136.1 L229.8 136.9 L228.5 139.2 L227.5 140.1 L225.7 140.2 L223.8 139.6 L221.9 139.4 L220.2 140.4 L217.3 140.3 L214.3 138.9 L209.6 135.0 L209.0 134.3 L208.6 133.0 L208.2 132.6 L207.9 132.7 L205.1 132.0 L204.6 131.8 L203.2 132.2 L202.4 133.0 L202.0 133.5 L201.6 134.0 L200.5 135.1 L199.2 135.7 L197.5 136.3 L195.8 136.6 L194.4 136.7 L193.3 136.4 L190.6 135.1 L189.6 135.0 L189.2 135.6 L189.2 136.4 L189.0 137.0 L185.0 142.0 L183.5 143.1 L181.6 143.1 L179.5 142.3 L177.7 141.1 L176.2 139.8 L173.5 136.6 L172.4 135.8 L171.4 135.4 L170.6 135.4 L169.8 135.5 L169.1 135.4 L167.6 134.0 L167.4 133.9 L166.8 133.4 L166.1 133.0 L165.2 133.0 L165.0 133.5 L165.0 134.3 L164.4 138.8 L165.0 145.6 L163.1 152.3 L162.8 161.3 L162.7 162.3 L162.2 164.3 L161.4 166.2 L160.3 168.0 L159.1 169.6 L157.3 171.4 L155.7 172.4 L153.9 172.7 L151.7 172.7 L149.7 172.1 L148.7 172.1 L148.1 172.9 L147.8 174.8 L147.4 175.6 L146.5 176.1 L144.6 176.4 L142.9 176.1 L139.2 174.9 L138.3 174.6 L137.7 174.5 L135.0 175.5 L134.4 175.9 L133.7 176.2 L132.8 176.1 L130.8 176.4 L129.2 177.4 L127.5 178.0 L125.4 176.8 L122.3 176.2 L120.5 175.9 L119.0 176.1 L115.2 177.8 L113.0 178.0 L112.2 176.3 L112.1 175.2 L111.3 173.3 L111.1 172.3 L111.4 171.4 L112.6 169.9 L112.8 168.9 L112.3 167.8 L110.3 166.0 L110.3 165.9 L110.0 164.7 L110.1 163.7 L110.1 163.3 L109.0 162.5 L107.4 161.6 L105.5 161.1 L101.8 160.7 L99.8 160.1 L94.5 157.7 L93.0 157.5 L87.9 157.8 L85.9 159.8 L84.4 168.6 Z" fill="#172033" fill-rule="evenodd"/></svg>
