<svg xmlns="http://www.w3.org/2000/svg" viewBox="0 0 320 200" role="img"><path d="M265.6 73.7 L284.5 78.0 L295.0 81.9 L298.0 86.5 L289.2 101.2 L276.3 116.7 L260.7 129.2 L243.6 134.2 L224.9 136.3 L210.0 142.0 L183.4 160.2 L179.0 164.3 L176.9 166.9 L172.9 168.6 L163.1 170.1 L144.6 169.7 L135.4 167.3 L131.5 162.8 L125.0 152.4 L109.2 145.1 L90.2 140.7 L74.0 138.9 L40.9 139.8 L27.5 136.5 L22.0 126.0 L25.3 114.0 L48.0 81.9 L51.3 67.5 L55.0 59.4 L63.6 50.7 L73.7 44.6 L81.0 43.4 L97.5 45.5 L114.6 43.4 L135.8 33.2 L147.1 29.9 L167.3 31.1 L186.8 37.5 L244.0 66.1 L265.6 73.7 Z" fill="#172033" fill-rule="evenodd"/></svg>
