<svg xmlns="http://www.w3.org/2000/svg" viewBox="0 0 320 200" role="img"><path d="M46.3 160.0 L46.3 160.0 L44.7 159.7 L41.6 157.4 L41.8 157.0 L41.6 156.3 L42.2 155.4 L42.2 154.8 L41.4 154.7 L40.7 154.4 L40.2 153.8 L39.8 153.0 L41.7 153.3 L49.2 152.5 L56.0 151.8 L56.0 151.2 L55.0 150.3 L53.7 149.3 L52.4 148.2 L56.7 148.0 L60.1 149.3 L64.3 149.0 L66.0 147.5 L67.7 146.0 L68.4 144.9 L68.3 144.7 L68.3 144.6 L67.5 144.6 L66.2 144.0 L65.2 143.3 L58.2 135.1 L52.2 133.2 L51.3 132.7 L47.9 130.8 L46.4 130.5 L43.4 130.2 L40.9 129.3 L40.3 128.5 L39.6 127.5 L39.9 124.5 L42.5 120.3 L43.3 119.0 L43.9 117.3 L44.6 115.5 L43.1 113.9 L42.6 114.0 L40.1 114.4 L37.3 115.3 L34.6 115.5 L32.3 113.5 L32.2 113.4 L32.2 113.4 L32.1 113.3 L32.0 113.2 L31.6 113.0 L30.5 112.0 L31.8 111.2 L32.3 111.0 L32.9 110.4 L33.2 109.8 L33.0 109.2 L32.3 108.7 L34.3 106.8 L35.8 106.0 L44.0 101.6 L46.5 98.4 L46.2 97.6 L45.8 96.8 L45.0 96.7 L43.8 96.5 L41.2 96.7 L39.0 96.5 L36.3 94.7 L34.7 93.9 L32.3 93.5 L31.0 93.0 L28.4 92.9 L27.0 92.6 L28.3 94.1 L25.9 94.4 L25.2 93.6 L24.9 92.4 L23.7 91.3 L23.7 91.3 L23.7 91.3 L23.2 89.1 L22.7 88.0 L22.0 87.2 L24.3 86.2 L24.7 85.7 L25.9 84.2 L27.1 82.4 L28.0 81.6 L29.2 81.5 L30.3 81.1 L32.4 80.1 L36.4 78.6 L38.6 77.0 L40.4 75.2 L42.6 73.8 L45.6 73.5 L47.7 73.6 L49.4 73.0 L50.1 71.9 L50.3 71.6 L50.4 69.4 L50.9 68.9 L51.3 68.4 L51.4 67.7 L51.4 67.1 L52.7 67.1 L58.5 68.1 L59.7 68.1 L65.4 67.5 L68.1 67.8 L76.1 70.4 L77.5 70.5 L78.9 70.3 L80.5 70.1 L82.0 70.2 L83.4 70.5 L84.7 70.9 L89.6 73.8 L90.6 74.0 L90.7 74.0 L98.8 74.2 L109.3 74.4 L112.3 74.0 L113.2 74.1 L113.6 74.5 L113.9 75.0 L114.4 75.4 L115.9 75.9 L117.1 76.3 L118.6 76.4 L121.6 75.9 L122.8 77.1 L123.8 78.6 L125.0 79.4 L126.5 79.0 L126.9 78.3 L127.3 77.5 L128.0 75.8 L129.3 74.5 L130.2 74.3 L132.1 74.2 L133.0 74.0 L133.9 73.6 L135.6 72.3 L136.0 72.2 L136.5 72.3 L137.2 72.4 L137.8 71.3 L138.8 70.5 L139.3 69.9 L139.8 69.4 L141.3 69.0 L142.0 69.4 L144.3 69.1 L146.2 68.5 L146.7 68.2 L147.4 67.1 L148.3 65.6 L149.0 64.3 L149.7 62.9 L150.7 61.4 L152.1 59.9 L153.2 59.6 L154.5 59.7 L156.0 59.6 L156.3 59.5 L158.2 58.7 L159.4 58.2 L160.7 58.3 L162.4 60.0 L165.6 56.8 L170.7 55.7 L172.7 55.8 L174.5 56.0 L180.4 56.4 L183.2 56.6 L194.4 56.2 L199.2 56.0 L201.8 56.7 L203.4 57.6 L203.8 57.9 L205.8 58.7 L208.4 58.4 L210.0 57.5 L210.3 57.2 L210.6 56.7 L210.8 55.8 L210.9 55.7 L211.7 54.4 L213.1 53.7 L214.9 53.4 L216.8 53.4 L218.1 53.6 L219.3 53.4 L219.7 53.2 L220.2 52.9 L220.7 52.2 L220.7 51.1 L221.0 49.7 L222.4 50.3 L229.1 51.0 L231.4 50.9 L234.0 50.2 L237.3 49.3 L239.8 49.1 L242.2 49.5 L248.1 51.5 L251.7 52.0 L252.7 52.4 L254.3 53.8 L254.3 53.8 L254.1 51.8 L253.1 50.5 L251.3 49.6 L250.3 47.5 L250.2 46.0 L250.3 44.7 L250.3 44.4 L250.9 41.7 L250.9 41.1 L250.5 40.9 L250.4 40.7 L251.2 40.1 L251.8 39.9 L255.3 39.3 L255.7 39.2 L257.5 38.5 L261.1 37.0 L264.3 37.5 L264.7 37.6 L268.6 37.4 L276.7 36.9 L277.6 37.3 L278.9 38.4 L279.3 38.7 L280.1 39.0 L281.4 39.0 L281.7 39.5 L281.5 40.3 L281.0 41.3 L280.4 42.3 L280.1 42.7 L279.3 43.6 L279.1 44.3 L279.0 44.6 L279.2 45.0 L280.4 47.5 L281.4 48.4 L282.1 49.4 L282.9 50.0 L284.2 49.9 L284.2 51.4 L284.9 51.6 L284.9 51.6 L285.4 51.7 L287.0 51.8 L288.3 52.4 L288.8 54.0 L288.1 54.5 L287.6 54.8 L285.9 55.4 L285.1 56.3 L285.5 56.8 L285.8 57.5 L287.4 58.4 L290.5 59.6 L293.8 63.1 L296.7 64.9 L298.0 68.6 L295.9 67.5 L295.0 67.1 L294.1 67.0 L292.2 67.2 L291.4 67.1 L290.7 66.8 L289.2 65.7 L288.4 65.3 L287.5 65.3 L286.3 65.3 L285.2 65.2 L284.2 64.7 L283.7 65.3 L283.6 65.3 L283.0 64.7 L282.7 65.0 L281.8 65.7 L280.1 66.1 L278.7 66.6 L276.0 67.4 L275.7 67.6 L273.4 69.4 L273.4 70.1 L273.3 70.7 L273.7 71.9 L274.7 74.3 L274.8 75.0 L274.6 76.4 L274.8 77.1 L275.4 77.6 L276.9 78.2 L277.3 78.7 L277.4 79.4 L277.4 79.6 L277.0 79.9 L275.0 79.9 L271.9 80.4 L271.1 80.4 L269.7 80.2 L268.4 79.7 L266.3 78.3 L265.5 78.0 L264.4 78.2 L263.6 78.7 L263.0 79.4 L262.1 79.9 L261.1 80.0 L260.6 79.9 L257.9 79.5 L257.9 81.1 L258.1 82.3 L258.1 83.5 L257.4 84.7 L257.2 84.8 L256.3 85.6 L254.5 86.4 L252.7 87.1 L252.3 87.1 L251.3 87.3 L248.4 87.7 L245.7 88.7 L242.7 89.9 L242.4 89.9 L242.3 89.9 L238.3 90.0 L236.9 90.2 L235.6 90.7 L235.3 90.8 L234.4 91.3 L232.6 93.4 L230.9 94.1 L224.6 93.8 L223.2 93.7 L221.3 94.4 L220.1 95.5 L219.8 95.8 L218.2 98.0 L216.9 100.4 L216.9 102.7 L218.1 104.6 L219.9 105.9 L220.6 106.4 L221.6 106.9 L224.1 107.6 L225.2 108.1 L225.9 109.0 L226.4 109.4 L226.0 110.3 L225.0 111.4 L224.3 113.2 L224.3 113.2 L224.4 115.0 L224.6 117.7 L224.4 119.2 L224.0 120.3 L223.4 121.3 L223.0 122.3 L223.4 123.5 L224.4 125.2 L224.5 126.5 L223.6 127.3 L221.8 128.0 L220.1 128.4 L216.7 128.4 L213.4 128.0 L211.1 127.8 L210.3 128.1 L208.6 129.0 L207.8 129.2 L206.8 129.1 L205.8 128.9 L204.8 128.8 L203.8 129.1 L203.4 129.9 L203.7 130.9 L203.9 131.7 L202.9 132.3 L202.8 132.3 L194.2 134.3 L191.9 134.8 L188.3 136.2 L187.6 136.8 L187.1 137.7 L187.0 137.8 L187.2 138.2 L187.9 138.4 L188.7 139.0 L189.6 140.2 L190.0 140.6 L190.8 141.0 L192.0 141.3 L192.3 141.1 L192.4 140.8 L192.8 140.6 L193.9 140.4 L194.2 140.2 L194.5 140.4 L195.9 141.5 L196.1 141.7 L197.5 143.3 L198.0 144.1 L196.2 144.1 L194.9 144.4 L193.9 144.8 L191.3 145.4 L190.8 146.0 L190.5 146.7 L189.9 147.1 L188.8 147.5 L188.9 148.2 L189.5 149.2 L190.0 150.1 L190.0 150.2 L190.5 152.5 L191.2 154.4 L192.5 155.9 L196.9 158.0 L196.1 158.5 L194.5 160.0 L193.7 160.5 L192.7 160.7 L189.9 160.7 L185.0 162.0 L181.4 162.9 L177.4 162.5 L171.0 158.7 L170.2 158.2 L165.9 158.1 L165.0 157.5 L164.0 157.2 L163.2 157.1 L162.0 157.0 L160.4 156.0 L158.5 155.1 L156.9 155.1 L156.5 157.0 L154.9 159.1 L151.1 160.0 L147.5 159.5 L146.1 157.0 L146.1 157.0 L146.1 157.0 L146.1 157.0 L137.9 154.5 L136.2 153.4 L136.2 153.0 L136.5 151.4 L136.3 150.8 L135.8 150.3 L135.8 150.3 L135.2 150.0 L134.6 149.9 L131.6 148.2 L130.5 147.3 L129.6 146.2 L129.6 145.0 L129.7 143.4 L129.5 142.1 L128.5 141.7 L127.5 142.0 L127.0 142.2 L126.3 142.7 L125.2 144.5 L124.3 145.4 L122.1 147.1 L121.3 148.0 L120.7 149.1 L120.7 149.5 L120.3 151.4 L119.9 152.7 L118.7 154.2 L115.3 155.9 L113.6 157.0 L110.3 158.3 L106.2 158.6 L102.2 158.1 L98.7 157.0 L96.8 156.7 L94.5 157.1 L90.4 158.5 L88.1 158.8 L87.9 158.8 L87.8 158.8 L85.8 158.7 L83.5 158.1 L81.3 157.0 L80.1 156.2 L78.8 155.7 L76.5 155.4 L75.2 155.2 L74.5 155.4 L74.2 156.1 L74.2 157.0 L76.1 158.6 L75.0 159.7 L70.9 160.9 L69.6 161.8 L68.8 162.6 L67.9 163.1 L63.2 162.6 L61.8 162.3 L60.7 161.5 L56.5 159.6 L47.8 159.9 L46.3 160.0 Z" fill="#172033" fill-rule="evenodd"/></svg>
