<svg xmlns="http://www.w3.org/2000/svg" viewBox="0 0 320 200" role="img"><path d="M298.0 80.8 L297.6 81.6 L297.3 82.7 L297.1 83.8 L297.1 84.6 L296.3 85.1 L294.5 85.2 L293.6 85.7 L292.6 87.7 L292.0 88.6 L291.9 88.8 L291.9 89.4 L291.8 89.7 L291.3 90.2 L290.2 90.8 L289.8 91.2 L289.7 91.2 L289.4 91.8 L289.4 92.2 L289.5 92.6 L289.6 94.3 L289.5 94.6 L289.1 95.1 L288.7 95.5 L288.2 95.8 L287.9 96.1 L287.7 96.7 L287.8 97.8 L287.5 98.8 L286.9 99.7 L286.1 100.4 L285.5 100.7 L284.2 100.9 L283.6 101.2 L283.3 101.5 L282.8 102.3 L282.5 102.7 L279.3 104.4 L278.6 105.2 L278.5 106.1 L279.0 108.1 L278.9 108.9 L278.3 109.6 L278.3 113.1 L277.4 113.9 L276.5 114.4 L275.6 114.5 L272.7 114.4 L271.8 114.4 L271.0 114.6 L268.4 114.7 L267.7 114.9 L266.2 115.4 L264.2 115.6 L261.6 116.5 L260.2 116.6 L258.7 116.2 L257.4 115.6 L256.2 114.7 L253.5 111.9 L253.1 111.4 L252.5 109.4 L252.1 108.9 L251.2 108.7 L249.4 108.8 L248.7 108.5 L248.3 108.2 L247.9 107.2 L247.6 106.8 L247.2 106.6 L246.3 106.3 L244.7 105.7 L244.0 105.6 L241.4 106.1 L239.8 106.1 L239.0 106.2 L238.0 106.6 L237.6 107.0 L237.4 107.6 L236.8 108.1 L236.1 108.4 L235.5 108.2 L234.9 107.9 L234.0 107.6 L232.4 107.9 L228.7 109.1 L227.5 108.9 L226.5 108.2 L225.1 107.8 L223.7 107.6 L222.5 107.7 L220.8 107.6 L218.1 106.5 L216.6 106.4 L215.9 106.3 L214.5 105.4 L213.7 105.2 L212.9 105.2 L202.7 106.8 L199.7 106.9 L198.3 107.3 L198.2 107.6 L198.2 108.0 L198.3 108.9 L198.3 109.0 L198.3 109.2 L198.3 109.4 L198.3 109.6 L197.6 110.2 L197.5 110.3 L196.0 111.3 L195.3 112.0 L194.7 112.7 L192.9 116.6 L191.9 118.0 L190.6 119.2 L189.2 120.1 L188.1 120.5 L187.5 120.4 L187.0 120.0 L186.0 119.6 L185.5 119.8 L184.0 120.7 L183.2 120.9 L182.4 120.9 L181.9 120.7 L181.4 120.8 L180.8 121.3 L180.6 121.6 L180.4 122.5 L180.0 122.9 L179.6 123.1 L178.7 123.4 L176.8 124.2 L176.6 124.2 L174.8 124.6 L173.7 125.1 L171.5 126.5 L170.3 126.7 L169.3 126.5 L167.5 125.4 L166.3 125.1 L164.5 125.5 L164.1 125.5 L163.6 125.0 L163.7 124.6 L164.0 124.2 L164.0 123.7 L163.1 123.0 L162.0 122.9 L159.8 123.2 L159.3 123.0 L158.2 122.2 L157.7 121.9 L157.2 121.8 L156.7 121.8 L152.2 122.5 L151.4 122.9 L150.8 123.6 L150.4 125.5 L149.8 126.2 L149.8 126.2 L149.8 126.3 L149.8 126.3 L149.8 126.3 L149.9 126.6 L149.9 126.9 L149.9 127.1 L149.8 127.4 L147.2 128.6 L140.7 128.5 L137.8 129.7 L137.2 129.8 L131.2 129.3 L128.3 129.6 L127.4 129.6 L126.3 129.5 L125.6 129.8 L123.2 130.1 L118.6 130.8 L117.8 131.3 L116.5 133.1 L116.0 133.4 L115.1 133.5 L114.6 133.6 L114.0 134.2 L114.1 134.3 L114.4 134.5 L114.6 135.1 L114.1 137.1 L114.0 138.1 L114.3 139.0 L115.7 140.0 L117.6 140.9 L117.5 140.9 L116.3 141.2 L115.2 141.4 L114.4 141.8 L112.8 143.0 L111.6 143.5 L110.2 143.6 L108.7 143.4 L107.0 142.9 L104.8 142.8 L94.9 143.6 L91.2 144.6 L89.4 144.7 L83.5 144.3 L72.4 144.7 L69.6 144.9 L65.5 144.1 L64.4 143.7 L62.3 143.0 L61.8 142.6 L61.4 142.1 L60.5 141.5 L59.5 141.0 L58.8 140.8 L58.3 140.8 L57.8 141.0 L57.3 141.0 L56.7 140.6 L55.1 139.0 L54.6 138.8 L53.4 138.6 L52.9 138.4 L52.4 138.1 L47.4 133.7 L45.9 132.8 L42.8 132.5 L42.2 132.4 L40.2 132.0 L38.5 131.8 L36.7 132.5 L35.6 131.8 L34.0 131.4 L32.9 131.0 L33.2 130.2 L32.6 129.9 L32.4 129.8 L32.7 128.9 L32.9 128.4 L33.4 128.0 L32.8 127.6 L32.6 127.3 L31.8 126.4 L31.3 126.2 L30.5 126.1 L29.9 125.8 L28.7 124.9 L28.3 124.2 L28.3 123.1 L28.1 122.3 L27.3 120.5 L27.3 120.3 L27.4 119.7 L27.3 119.5 L27.1 119.4 L26.8 119.3 L26.3 119.0 L25.9 118.8 L25.5 118.7 L25.3 118.4 L25.3 118.2 L25.1 117.9 L25.0 117.6 L24.8 117.5 L24.6 117.4 L24.7 117.2 L24.9 116.9 L25.0 116.7 L24.8 116.3 L24.3 115.9 L23.8 115.7 L23.5 115.5 L22.5 115.5 L22.2 115.3 L22.0 115.0 L22.0 114.5 L22.1 114.3 L22.2 114.1 L22.4 113.8 L22.8 111.2 L23.0 110.6 L23.5 109.9 L24.7 108.7 L25.0 108.0 L25.4 107.6 L26.2 107.2 L27.0 106.6 L27.1 106.4 L27.3 105.7 L26.9 103.5 L27.0 102.6 L27.8 101.9 L28.3 101.3 L30.8 96.6 L32.0 95.2 L33.6 94.3 L34.3 93.7 L34.6 92.8 L35.0 92.3 L37.7 91.1 L39.8 90.8 L42.2 91.2 L47.7 93.0 L48.5 92.9 L49.5 92.5 L50.4 92.1 L51.5 91.9 L52.2 92.1 L53.7 93.2 L55.5 93.4 L64.8 90.9 L65.6 90.5 L67.3 88.6 L68.1 88.1 L69.3 88.0 L70.3 88.1 L71.2 88.1 L72.1 87.5 L72.5 86.8 L72.9 85.3 L73.2 84.6 L73.8 83.8 L74.9 83.4 L76.0 83.2 L78.6 83.4 L80.2 82.9 L81.7 82.0 L82.7 80.9 L83.0 79.8 L82.9 77.7 L82.9 77.4 L83.1 76.1 L83.7 74.5 L84.6 73.0 L85.8 71.8 L87.2 70.9 L93.7 69.2 L95.5 68.3 L96.7 67.7 L96.8 65.4 L98.2 65.6 L99.3 65.1 L101.3 63.5 L102.9 62.9 L103.3 62.7 L103.6 62.2 L103.7 61.3 L104.0 60.9 L105.0 60.5 L107.1 60.7 L108.5 60.3 L108.8 60.2 L109.2 60.3 L110.7 60.8 L112.1 61.1 L113.5 61.0 L115.5 59.8 L116.4 59.6 L118.4 59.6 L123.2 59.9 L124.6 60.4 L124.2 61.2 L124.2 61.9 L124.4 62.6 L124.6 63.3 L124.4 64.9 L124.6 65.4 L125.6 65.5 L126.8 65.5 L128.7 64.8 L129.7 64.6 L130.2 64.7 L131.1 65.2 L131.6 65.3 L132.1 65.3 L133.3 65.2 L134.8 64.8 L135.2 64.4 L135.3 63.8 L135.6 62.9 L135.8 62.8 L136.4 62.8 L136.6 62.7 L136.7 62.4 L136.6 62.2 L136.5 62.0 L136.4 62.0 L137.1 60.4 L137.8 59.7 L138.5 59.3 L139.3 59.0 L140.2 58.9 L141.7 58.9 L142.2 58.8 L142.9 58.7 L143.3 58.5 L147.5 55.5 L147.7 55.2 L147.9 55.1 L148.2 55.2 L148.6 55.3 L149.4 56.2 L149.8 56.5 L150.9 57.0 L151.5 58.0 L152.4 60.4 L153.2 62.0 L153.4 62.3 L154.3 62.7 L155.3 62.9 L157.2 62.9 L157.0 63.2 L156.9 63.5 L157.0 64.2 L156.9 64.8 L156.8 64.8 L159.6 65.4 L160.7 65.5 L161.7 65.4 L163.3 65.0 L163.7 65.2 L163.7 65.2 L164.2 66.2 L164.4 67.0 L164.7 69.3 L164.6 69.5 L164.3 69.9 L164.2 70.1 L164.2 70.1 L164.4 70.2 L165.1 70.6 L165.1 70.6 L165.2 70.7 L165.2 70.7 L165.5 70.9 L165.6 71.0 L165.6 71.2 L165.5 71.4 L165.3 71.5 L164.9 71.6 L164.7 71.7 L162.9 73.7 L162.7 74.3 L163.3 74.9 L164.5 75.2 L166.8 75.3 L167.9 75.0 L168.5 74.6 L169.5 73.9 L170.4 73.5 L171.9 73.4 L173.3 73.8 L175.8 75.4 L177.4 75.9 L178.3 75.4 L178.8 74.2 L179.1 72.5 L179.7 72.0 L180.0 71.5 L180.3 70.9 L181.2 69.6 L181.5 69.3 L181.6 69.4 L182.7 69.5 L183.2 69.2 L184.2 68.4 L185.0 68.1 L188.7 67.9 L188.9 67.7 L189.3 67.0 L189.5 66.3 L189.6 65.9 L189.8 65.6 L190.3 65.3 L190.9 65.3 L192.9 65.8 L195.4 65.7 L195.4 64.9 L196.1 64.8 L200.2 66.2 L201.3 66.3 L202.4 66.1 L203.0 65.7 L203.8 65.1 L204.3 64.9 L204.7 64.9 L205.7 65.0 L207.6 64.8 L208.3 64.9 L212.6 68.2 L213.4 68.6 L214.5 68.7 L215.3 68.7 L216.1 68.8 L217.0 69.2 L217.8 69.7 L218.6 70.1 L219.5 70.2 L220.6 70.0 L221.6 69.4 L223.2 67.8 L224.2 67.2 L225.0 67.1 L226.0 67.1 L226.9 67.0 L227.3 66.5 L226.7 65.8 L225.6 65.4 L225.0 64.9 L226.0 64.2 L226.7 64.0 L228.7 63.7 L229.4 63.8 L230.3 64.2 L231.0 64.7 L231.7 65.0 L232.8 64.9 L233.6 64.4 L235.1 62.9 L236.0 62.5 L236.7 62.6 L239.4 63.6 L244.1 64.4 L244.9 64.4 L246.7 64.2 L247.4 64.3 L248.3 64.1 L249.0 63.9 L252.5 63.6 L253.4 63.8 L253.9 64.0 L254.8 64.6 L255.3 64.8 L255.7 64.8 L256.4 64.7 L256.9 64.8 L257.7 65.3 L259.4 67.0 L260.1 67.4 L260.6 67.2 L261.3 66.6 L262.1 66.1 L263.1 66.0 L264.0 66.3 L265.8 67.4 L268.4 68.3 L270.1 69.3 L271.5 70.8 L272.1 72.5 L272.5 74.1 L273.8 74.7 L277.3 75.2 L278.8 75.8 L279.4 76.0 L279.9 76.0 L281.0 75.9 L281.4 76.0 L282.0 76.3 L282.0 76.7 L281.8 77.0 L282.0 77.3 L282.3 77.5 L284.6 78.0 L287.3 77.9 L288.3 78.2 L290.8 79.8 L292.5 80.1 L296.3 80.3 L298.0 80.8 Z" fill="#172033" fill-rule="evenodd"/></svg>
