<svg xmlns="http://www.w3.org/2000/svg" viewBox="0 0 320 200" role="img"><path d="M236.5 98.6 L236.5 101.3 L234.9 107.5 L234.0 109.4 L233.9 110.5 L234.3 112.0 L234.7 113.0 L234.6 113.9 L233.3 115.1 L232.3 115.7 L231.3 116.0 L230.3 116.1 L226.2 116.2 L225.2 116.3 L224.0 116.9 L223.3 117.8 L222.1 120.0 L221.5 120.5 L220.3 121.2 L219.8 121.6 L219.6 122.1 L219.5 122.7 L219.7 134.9 L218.5 135.1 L218.1 135.2 L215.7 136.5 L213.8 138.1 L207.0 146.3 L206.5 147.0 L205.9 147.4 L205.3 147.7 L203.3 148.2 L201.3 149.3 L193.7 155.3 L192.8 156.4 L189.5 160.6 L189.1 161.0 L184.9 162.9 L184.1 163.1 L182.3 165.8 L181.4 166.7 L181.2 166.9 L181.4 167.4 L182.1 168.6 L182.2 169.2 L182.1 169.7 L181.9 169.9 L181.5 170.1 L180.4 170.2 L180.2 170.5 L180.4 171.5 L180.3 172.3 L180.0 173.3 L179.5 174.1 L178.1 174.9 L177.9 175.7 L178.0 177.0 L177.6 177.3 L176.0 178.0 L175.2 177.3 L173.1 176.8 L172.1 176.3 L171.1 175.6 L170.3 175.0 L170.8 174.9 L171.0 174.8 L171.2 174.6 L171.4 174.3 L169.9 174.3 L169.3 174.4 L168.9 174.6 L168.6 174.6 L168.1 173.5 L167.4 172.8 L164.7 170.5 L157.6 166.4 L145.7 162.1 L133.5 157.2 L123.7 154.1 L125.3 152.9 L127.1 152.8 L129.0 153.4 L130.7 154.1 L130.6 153.7 L130.4 153.4 L130.0 153.2 L129.5 153.1 L129.1 153.0 L128.7 152.4 L128.3 152.1 L127.3 151.7 L126.8 151.6 L125.9 152.1 L125.5 151.9 L125.0 151.5 L124.6 151.3 L124.5 150.9 L124.9 150.0 L125.6 149.0 L126.5 148.2 L127.0 147.4 L127.7 146.9 L128.6 147.2 L129.2 146.9 L129.8 146.8 L131.0 146.8 L131.3 146.8 L131.9 146.5 L132.3 146.5 L132.6 146.6 L133.2 147.1 L133.5 147.2 L134.5 146.9 L135.3 146.4 L136.3 145.9 L137.7 145.8 L137.6 145.7 L137.4 145.3 L137.3 145.1 L138.3 144.8 L139.2 144.7 L139.9 144.3 L140.1 143.4 L139.7 143.4 L139.4 143.4 L139.1 143.4 L138.7 143.5 L138.4 143.7 L138.1 143.2 L138.0 143.0 L137.5 143.1 L136.9 143.1 L136.4 143.2 L136.2 143.5 L136.1 144.0 L135.8 144.2 L134.9 144.4 L134.3 144.7 L133.3 144.7 L132.8 144.9 L131.8 145.3 L130.7 145.6 L129.6 146.0 L129.0 146.2 L128.6 146.1 L127.6 145.9 L127.1 145.8 L125.9 145.4 L125.6 144.4 L125.3 143.4 L124.4 142.7 L124.4 142.3 L124.7 142.1 L124.8 141.8 L124.9 141.4 L124.8 140.9 L124.4 141.3 L124.1 141.5 L123.7 141.5 L123.4 141.2 L123.1 141.2 L123.1 142.0 L121.9 140.8 L122.5 139.1 L124.4 136.4 L125.3 136.8 L125.5 137.1 L125.9 136.7 L125.6 136.1 L125.5 135.4 L125.8 134.8 L126.5 134.7 L125.5 134.0 L124.6 134.8 L123.1 137.1 L120.6 138.6 L118.9 139.2 L118.2 138.7 L117.8 138.7 L114.5 138.1 L114.2 138.1 L113.9 138.0 L113.4 137.8 L111.3 136.4 L110.6 136.1 L110.0 135.6 L109.5 134.7 L109.4 133.7 L109.5 133.1 L110.0 132.7 L110.9 132.2 L110.0 132.4 L107.4 133.4 L105.0 131.9 L104.3 130.6 L103.9 130.0 L103.1 129.8 L102.6 129.5 L101.9 129.0 L100.8 127.7 L101.8 127.5 L103.5 126.5 L104.5 126.3 L105.3 126.4 L106.1 126.7 L107.8 127.4 L106.8 126.4 L105.5 125.5 L104.4 124.5 L103.5 122.0 L103.4 121.8 L103.2 121.7 L103.3 121.3 L103.6 120.6 L103.7 119.9 L104.0 119.2 L104.5 118.5 L105.0 118.0 L103.4 117.8 L102.7 117.1 L102.3 116.1 L101.5 114.9 L101.0 114.5 L100.3 114.2 L99.7 113.8 L99.5 112.9 L99.5 112.2 L99.6 111.6 L99.8 110.9 L100.1 110.3 L99.7 110.4 L99.4 110.6 L99.1 110.8 L98.8 111.0 L98.4 111.1 L98.2 111.1 L98.0 111.1 L97.5 111.0 L95.3 111.4 L94.1 111.8 L92.8 112.6 L91.5 113.6 L90.7 114.5 L90.4 114.5 L90.5 113.7 L90.4 111.6 L90.2 110.5 L90.2 109.9 L90.4 109.3 L89.8 108.8 L88.1 106.0 L88.0 106.0 L87.9 105.8 L87.6 105.8 L87.4 105.7 L87.3 105.3 L87.0 104.8 L85.7 103.1 L85.4 102.8 L85.1 102.3 L84.8 101.9 L84.2 101.7 L84.9 100.8 L85.1 100.4 L85.2 99.7 L85.1 99.3 L84.4 98.3 L84.2 97.8 L85.3 98.0 L85.6 98.2 L85.9 98.0 L86.0 98.1 L86.3 98.5 L87.1 98.2 L88.0 98.2 L88.9 98.5 L89.7 98.9 L90.4 99.6 L91.4 101.3 L93.2 102.3 L94.4 103.4 L95.7 104.3 L96.6 104.2 L97.0 104.1 L97.0 103.8 L96.4 103.6 L95.9 103.4 L95.5 103.0 L95.3 102.4 L96.0 102.4 L96.0 102.0 L94.5 101.7 L93.1 101.2 L92.4 100.4 L92.8 99.2 L93.4 98.8 L95.0 98.2 L95.6 97.8 L96.0 97.3 L96.3 96.8 L96.7 96.5 L97.4 96.8 L97.4 96.2 L97.5 95.7 L97.8 95.2 L98.1 94.7 L98.6 94.9 L101.9 95.1 L102.9 95.4 L103.4 95.4 L103.9 95.3 L104.9 94.6 L105.3 94.3 L104.4 94.2 L103.3 94.3 L102.4 94.2 L102.3 93.6 L102.2 93.7 L103.2 92.4 L105.0 88.5 L103.8 90.0 L102.9 91.4 L102.0 92.4 L100.1 93.0 L99.2 92.9 L98.5 92.8 L97.8 92.8 L96.5 93.6 L95.6 93.6 L94.8 93.3 L94.2 92.6 L95.4 92.4 L96.0 91.8 L96.5 91.1 L97.4 90.5 L97.4 90.2 L96.9 90.1 L96.6 90.0 L96.5 89.8 L96.3 89.5 L96.0 89.5 L95.5 91.1 L95.1 91.7 L94.6 91.9 L93.8 91.7 L93.0 91.1 L92.1 89.8 L91.6 90.1 L91.2 90.1 L90.9 89.7 L90.7 89.2 L90.5 90.0 L90.9 90.6 L91.7 91.0 L92.5 91.2 L91.8 91.6 L93.2 92.6 L93.3 93.7 L92.5 94.8 L91.5 95.7 L91.7 96.2 L91.7 96.6 L91.4 97.0 L90.9 97.1 L90.5 97.0 L90.2 96.6 L88.8 94.3 L88.5 93.5 L88.1 92.1 L87.7 91.1 L87.2 90.3 L86.7 89.7 L86.5 89.1 L86.5 88.3 L86.6 86.7 L86.8 86.7 L86.6 81.3 L88.0 79.7 L88.5 79.6 L88.8 79.8 L88.9 80.1 L89.4 80.4 L93.2 80.4 L94.1 80.3 L95.1 79.8 L96.5 79.7 L99.5 79.7 L97.4 79.1 L97.0 79.3 L96.6 79.5 L95.8 79.5 L94.8 79.4 L94.2 79.1 L93.7 79.3 L92.9 79.5 L92.1 79.4 L91.8 78.9 L91.6 78.5 L91.3 78.4 L90.9 78.4 L90.7 78.4 L90.7 78.0 L90.8 77.8 L91.0 77.7 L91.5 76.7 L92.5 76.3 L93.8 76.0 L94.9 76.0 L94.9 75.6 L94.0 75.3 L92.9 75.5 L90.7 76.3 L89.6 76.4 L88.3 76.1 L87.3 75.4 L86.9 74.2 L86.7 74.4 L86.6 74.5 L86.6 74.5 L86.6 74.9 L85.8 74.2 L85.5 74.3 L85.4 74.5 L85.3 74.6 L85.2 74.9 L84.1 74.1 L84.3 71.6 L83.5 70.7 L83.5 70.4 L84.7 69.5 L86.9 68.8 L88.2 68.6 L89.0 68.8 L90.9 70.0 L92.1 70.4 L92.9 70.3 L94.4 69.2 L96.3 68.2 L97.3 67.6 L98.0 66.8 L98.6 65.2 L99.0 64.5 L99.5 63.8 L99.8 63.6 L100.6 63.5 L100.8 63.5 L100.7 63.1 L100.1 62.2 L99.8 61.7 L100.1 60.3 L100.9 58.7 L101.9 57.9 L102.9 59.0 L104.0 58.4 L105.0 58.3 L106.0 58.4 L107.1 58.2 L107.9 57.5 L109.1 55.5 L110.0 55.1 L110.7 54.9 L110.7 54.5 L110.5 54.0 L110.5 53.6 L110.9 53.1 L111.2 52.8 L112.1 52.4 L112.3 52.4 L112.5 52.6 L112.8 52.6 L113.0 52.3 L113.1 52.0 L113.3 51.8 L113.6 51.5 L113.9 51.2 L115.6 45.7 L115.6 45.4 L115.5 45.2 L115.5 45.0 L115.9 44.8 L116.2 44.7 L116.4 44.6 L116.5 44.5 L116.6 44.3 L117.1 42.6 L117.3 42.2 L117.8 42.0 L118.3 42.1 L118.7 42.0 L118.9 41.6 L118.9 39.5 L119.1 39.3 L119.9 37.9 L120.4 37.4 L122.0 36.4 L122.1 36.4 L122.2 36.2 L122.2 35.6 L122.3 35.3 L122.5 35.3 L122.8 35.4 L122.9 35.3 L122.9 35.0 L122.7 34.4 L122.7 34.3 L123.4 30.5 L123.4 30.0 L123.3 29.7 L123.4 29.3 L123.7 28.9 L125.5 27.8 L127.8 27.0 L135.4 25.4 L136.6 25.4 L137.5 26.0 L138.4 26.8 L139.6 27.6 L140.6 27.9 L141.4 28.1 L142.3 28.1 L143.9 27.8 L153.4 25.7 L153.7 25.3 L154.0 22.2 L175.6 22.1 L186.3 22.0 L187.6 22.1 L189.3 22.6 L190.0 22.7 L190.6 23.2 L191.0 24.3 L191.6 27.7 L192.0 28.2 L195.8 30.6 L197.9 32.6 L199.6 34.8 L200.8 37.1 L201.4 38.8 L201.7 39.3 L202.0 39.5 L202.8 39.8 L203.2 40.1 L203.4 40.5 L203.7 41.8 L204.1 42.3 L205.4 43.2 L205.9 43.7 L206.1 44.1 L206.3 45.5 L206.7 46.0 L207.2 46.2 L207.6 46.5 L207.6 47.3 L207.3 48.5 L207.5 49.4 L208.1 50.2 L208.8 51.0 L209.6 51.5 L209.7 51.8 L209.2 52.2 L208.7 52.6 L209.3 52.8 L210.2 52.9 L210.5 52.8 L211.0 52.9 L211.6 52.9 L212.0 53.0 L212.6 53.9 L213.2 54.4 L213.9 54.8 L214.5 55.1 L216.6 57.0 L216.7 57.6 L216.5 58.2 L216.2 58.7 L216.0 59.4 L216.0 59.8 L216.2 60.7 L216.1 61.1 L215.7 61.7 L215.2 62.0 L214.6 62.3 L214.1 62.6 L213.2 64.2 L212.6 66.4 L213.0 68.3 L214.8 68.8 L216.9 68.7 L218.9 68.9 L220.1 69.3 L220.7 69.8 L220.8 70.1 L220.8 70.4 L220.8 70.5 L220.1 73.5 L219.8 75.3 L219.9 79.0 L220.0 79.5 L220.5 80.9 L220.5 81.1 L220.4 81.7 L220.4 81.9 L220.6 82.1 L221.0 82.3 L221.1 82.4 L223.2 85.2 L224.0 85.7 L224.2 86.2 L226.4 89.1 L226.0 90.2 L225.3 91.2 L224.4 91.8 L223.2 91.9 L222.2 92.1 L221.2 92.9 L220.4 94.0 L219.6 95.5 L218.8 96.2 L218.5 96.8 L218.3 97.5 L218.3 98.1 L218.2 98.5 L217.7 98.6 L216.9 103.0 L216.2 104.2 L215.3 105.3 L214.1 107.0 L213.6 108.6 L214.6 109.5 L215.0 107.8 L216.0 106.8 L217.4 106.3 L219.1 106.4 L219.8 106.7 L221.3 107.6 L221.8 107.8 L222.7 107.4 L224.5 106.2 L227.5 103.3 L228.1 102.5 L229.4 100.1 L229.9 99.4 L230.4 98.8 L231.1 98.4 L231.8 98.1 L233.4 97.9 L233.7 97.9 L235.1 98.3 L235.5 98.6 L236.0 98.7 L236.5 98.6 Z M124.4 145.1 L123.9 145.5 L123.8 146.0 L124.1 147.5 L124.0 148.4 L123.6 149.0 L123.2 149.5 L122.7 150.3 L122.7 151.1 L123.1 152.8 L123.1 153.4 L122.4 154.0 L121.6 154.2 L120.7 153.9 L120.3 153.1 L121.3 153.1 L120.6 151.8 L119.7 150.6 L118.7 149.6 L117.7 149.3 L117.0 149.2 L112.3 148.0 L110.7 147.1 L106.4 146.5 L101.2 145.1 L101.2 144.7 L103.1 144.3 L103.3 143.6 L103.9 142.9 L104.6 142.7 L106.6 142.3 L112.1 142.3 L113.0 142.2 L114.9 141.7 L117.9 141.5 L119.0 141.6 L120.0 142.0 L119.2 142.8 L119.7 143.1 L121.7 143.0 L122.6 143.3 L123.3 143.8 L123.9 144.4 L124.4 145.1 Z" fill="#172033" fill-rule="evenodd"/></svg>
