<svg xmlns="http://www.w3.org/2000/svg" viewBox="0 0 320 200" role="img"><path d="M163.1 84.1 L163.4 83.9 L163.6 83.7 L164.1 83.2 L164.6 82.7 L164.9 82.5 L165.4 81.9 L166.0 81.4 L166.5 80.9 L167.1 80.3 L167.6 79.8 L168.2 79.3 L168.7 78.7 L169.3 78.2 L169.9 77.7 L170.4 77.1 L171.0 76.6 L171.5 76.1 L172.1 75.5 L172.6 75.0 L173.2 74.5 L173.7 73.9 L174.3 73.4 L174.8 72.9 L175.3 72.4 L175.4 72.3 L175.9 71.8 L176.5 71.3 L177.1 70.7 L177.6 70.2 L178.2 69.6 L178.7 69.1 L179.3 68.6 L179.8 68.0 L180.4 67.5 L181.1 66.5 L181.7 65.4 L182.4 64.4 L183.1 63.4 L183.8 62.3 L184.5 61.3 L185.2 60.3 L185.9 59.2 L186.5 58.2 L187.2 57.1 L187.9 56.1 L188.6 55.1 L189.3 54.0 L190.0 53.0 L190.6 52.0 L191.3 50.9 L191.3 49.7 L191.3 49.6 L191.3 48.4 L191.3 47.1 L191.3 45.8 L191.3 44.5 L191.3 43.2 L191.3 42.0 L191.3 40.7 L191.3 39.4 L191.3 38.1 L191.3 36.8 L191.3 35.6 L191.3 34.3 L191.3 33.0 L191.3 31.7 L191.3 30.4 L191.8 30.4 L193.3 30.1 L194.7 29.9 L195.2 29.7 L195.4 29.4 L195.5 29.3 L195.6 29.4 L195.7 29.5 L195.8 29.5 L196.6 29.4 L196.8 29.3 L197.0 29.3 L197.6 28.9 L197.8 28.9 L198.0 28.8 L198.2 28.3 L198.4 28.1 L198.6 28.0 L198.9 28.0 L199.4 28.0 L199.4 28.0 L199.6 27.9 L199.7 27.9 L199.8 27.9 L200.2 27.9 L201.2 28.0 L201.7 28.0 L202.1 27.7 L202.1 27.7 L202.3 27.6 L202.5 27.6 L202.5 27.5 L202.7 27.4 L202.8 27.4 L202.8 27.4 L202.9 27.4 L203.0 27.5 L203.0 27.5 L204.0 27.4 L204.2 27.5 L204.9 27.1 L205.1 26.9 L205.3 26.9 L205.7 26.9 L205.8 26.8 L205.9 26.7 L206.0 26.7 L206.5 26.6 L206.7 26.4 L207.7 25.6 L208.2 25.5 L208.4 25.4 L208.8 25.0 L209.1 24.7 L209.3 24.5 L209.3 24.2 L209.3 24.0 L209.4 23.7 L209.5 23.5 L209.6 23.3 L209.8 22.9 L210.0 22.8 L210.1 22.7 L210.3 22.7 L210.6 22.6 L210.6 22.5 L210.7 22.4 L210.7 22.4 L210.8 22.4 L210.9 22.5 L211.0 22.5 L211.2 22.4 L211.7 22.2 L212.1 22.1 L212.2 22.0 L212.5 22.0 L213.3 22.5 L214.5 22.6 L215.1 23.2 L215.4 23.3 L216.3 23.3 L216.5 23.3 L216.9 23.5 L217.1 23.6 L217.4 23.6 L217.6 23.6 L217.9 23.7 L218.2 23.8 L218.0 24.1 L217.9 24.6 L217.7 25.0 L217.7 25.5 L217.6 25.8 L217.4 26.0 L217.2 26.3 L216.9 26.7 L216.5 27.2 L216.2 27.4 L216.2 27.5 L216.2 27.6 L216.3 27.8 L216.3 27.9 L216.2 28.2 L216.2 28.4 L215.8 29.2 L215.7 29.4 L215.7 30.1 L215.6 30.6 L215.8 31.1 L216.3 31.4 L216.8 31.5 L217.0 31.7 L216.7 31.9 L216.4 32.5 L216.3 32.7 L216.2 32.8 L216.2 33.1 L216.1 33.4 L216.2 34.9 L216.4 37.0 L216.6 37.9 L216.6 38.0 L216.3 38.0 L216.0 38.1 L216.0 38.3 L216.0 38.8 L216.0 39.0 L215.9 39.2 L215.7 39.3 L215.4 39.3 L215.2 39.3 L215.0 39.5 L214.9 39.7 L215.0 39.9 L215.2 39.9 L217.0 39.6 L217.1 39.6 L217.2 39.6 L217.3 39.6 L217.4 39.5 L217.3 39.4 L217.2 39.3 L217.1 39.3 L217.1 39.2 L217.0 39.0 L217.0 38.7 L216.9 38.5 L216.8 38.3 L217.0 38.4 L217.2 38.5 L217.3 38.7 L217.5 38.8 L217.6 38.9 L217.8 38.9 L218.0 39.1 L218.1 39.2 L218.4 39.2 L218.5 39.3 L218.6 39.3 L218.8 39.2 L218.9 39.2 L219.1 39.2 L219.3 39.2 L219.4 39.5 L219.6 39.6 L219.5 39.8 L219.3 40.2 L219.2 40.2 L219.1 40.3 L219.1 40.3 L219.1 40.5 L219.0 40.5 L218.8 40.4 L218.6 40.4 L218.5 40.4 L218.2 40.4 L217.9 40.4 L217.8 40.1 L217.8 40.0 L217.7 39.9 L217.6 39.8 L215.8 40.0 L215.0 40.3 L214.0 40.9 L213.8 41.3 L213.7 42.0 L213.8 42.7 L213.5 43.5 L213.5 44.0 L213.7 44.4 L213.7 44.5 L213.7 44.7 L213.6 44.8 L213.4 45.6 L213.5 45.8 L213.3 46.0 L213.3 46.2 L213.2 46.8 L213.0 47.2 L212.9 47.3 L213.0 47.6 L213.0 47.7 L212.9 48.0 L212.8 48.7 L212.6 49.0 L212.6 49.3 L212.7 49.9 L213.0 50.6 L213.0 50.9 L213.0 51.1 L212.9 51.3 L212.2 52.4 L211.9 52.6 L211.5 52.8 L211.3 52.9 L211.1 53.1 L210.8 53.7 L210.7 53.8 L210.8 54.6 L210.8 54.8 L210.6 55.2 L210.3 55.6 L209.1 56.6 L208.7 57.0 L208.4 57.3 L208.2 57.7 L208.1 58.2 L207.9 59.1 L207.7 59.5 L207.1 60.2 L207.1 60.4 L207.1 61.1 L207.1 61.3 L206.9 61.7 L206.7 61.9 L206.6 62.0 L206.3 62.1 L206.2 62.3 L206.1 62.5 L206.0 62.7 L205.3 63.7 L205.2 63.8 L205.0 64.2 L204.7 65.2 L204.5 65.6 L204.1 66.0 L202.6 66.9 L201.6 67.9 L201.4 68.2 L201.3 68.6 L201.2 69.4 L201.2 69.6 L201.4 69.7 L201.5 69.9 L201.4 70.2 L201.4 70.4 L201.0 70.9 L200.7 71.3 L200.6 71.5 L200.5 72.0 L200.5 72.2 L199.3 74.2 L198.7 75.3 L198.0 76.1 L196.2 78.6 L195.4 80.2 L194.8 81.0 L194.3 82.6 L192.9 85.5 L192.8 85.8 L192.9 86.0 L193.0 86.5 L193.0 86.8 L192.8 87.8 L192.4 88.6 L191.5 90.3 L190.3 92.3 L188.5 95.0 L188.0 96.2 L187.7 96.6 L186.9 97.4 L185.7 99.3 L184.4 100.8 L182.9 102.7 L181.3 106.1 L180.0 107.9 L178.8 109.2 L175.8 112.4 L174.8 113.8 L173.0 115.6 L171.6 117.1 L169.7 119.1 L169.4 119.4 L167.3 121.8 L165.8 123.2 L165.0 124.2 L163.4 125.5 L162.5 126.4 L161.8 126.9 L161.8 127.0 L161.8 127.1 L161.7 127.2 L161.6 127.2 L161.4 127.3 L161.3 127.5 L161.2 127.7 L161.1 127.9 L161.0 128.0 L160.5 128.3 L159.4 129.4 L159.3 129.6 L159.1 129.9 L159.0 130.0 L158.5 130.3 L158.4 130.7 L158.1 130.9 L155.8 132.3 L154.5 133.1 L153.3 133.8 L149.5 136.0 L149.1 136.2 L148.8 136.3 L148.7 136.3 L146.4 137.4 L144.5 138.7 L144.4 138.8 L144.3 138.9 L142.7 140.0 L141.3 140.9 L138.8 142.8 L137.5 144.1 L137.3 144.2 L136.8 144.5 L136.7 144.6 L136.6 144.7 L136.6 144.9 L136.6 145.1 L136.5 145.1 L136.3 145.2 L136.3 145.2 L136.2 145.3 L135.4 146.2 L135.2 146.3 L134.9 146.4 L134.8 146.5 L134.3 147.2 L133.0 147.8 L132.5 148.2 L132.0 148.9 L131.8 149.0 L131.6 149.1 L131.1 149.5 L129.0 151.6 L126.9 153.9 L125.7 155.1 L124.7 156.1 L122.4 158.6 L121.0 160.1 L120.3 160.7 L119.6 161.3 L118.8 162.1 L118.6 162.4 L118.5 162.6 L118.5 162.7 L118.5 162.7 L118.2 162.8 L118.1 162.9 L117.7 163.5 L117.6 163.7 L117.8 163.8 L117.7 164.0 L117.6 164.0 L117.6 164.0 L117.6 163.9 L117.6 163.8 L117.5 163.8 L116.9 164.3 L116.8 164.4 L116.8 164.6 L116.6 164.8 L116.2 165.1 L115.1 166.5 L115.0 166.6 L115.0 166.7 L115.0 166.7 L114.9 166.8 L114.9 166.8 L114.4 167.5 L114.1 167.8 L114.0 167.9 L113.8 168.0 L113.6 168.1 L113.2 168.1 L113.0 168.1 L112.9 168.2 L113.2 168.3 L113.1 168.5 L113.0 168.7 L113.0 168.9 L112.8 168.9 L112.6 169.2 L112.5 169.4 L112.5 169.6 L112.4 169.7 L112.0 170.0 L111.9 170.1 L111.9 170.0 L111.8 169.5 L111.8 169.1 L111.8 168.9 L111.7 168.9 L111.7 169.0 L111.7 169.2 L111.6 169.3 L111.6 169.4 L111.6 169.5 L111.7 169.7 L111.7 169.8 L111.7 170.0 L111.8 170.1 L111.9 170.1 L111.9 170.2 L111.9 170.3 L111.8 170.6 L111.8 170.7 L111.7 170.8 L111.4 171.1 L111.4 171.2 L111.3 171.3 L111.3 171.4 L111.2 171.6 L110.8 172.1 L110.7 172.2 L110.8 172.3 L110.9 172.3 L111.0 172.2 L111.1 172.2 L110.9 172.5 L110.7 172.5 L110.4 172.3 L110.3 172.0 L110.3 172.0 L110.3 172.2 L110.4 172.6 L110.4 172.8 L110.4 173.1 L109.2 175.0 L108.9 175.3 L108.7 175.6 L108.3 176.5 L108.0 176.7 L107.8 176.8 L107.4 177.5 L107.2 177.7 L107.2 177.7 L106.9 178.0 L106.9 177.8 L107.0 177.1 L106.9 176.8 L106.8 176.6 L106.3 176.0 L105.8 175.3 L105.2 174.5 L104.6 173.8 L104.1 173.1 L103.5 172.4 L102.9 171.6 L102.3 170.8 L101.8 170.1 L101.5 169.7 L101.2 169.3 L100.9 169.0 L100.6 168.6 L100.6 167.7 L100.6 166.9 L100.6 166.1 L100.5 164.9 L100.5 163.6 L100.5 162.4 L100.5 161.2 L100.5 160.4 L100.5 159.6 L100.5 158.7 L100.5 157.3 L100.5 155.8 L100.5 154.4 L100.5 153.0 L100.5 151.6 L100.5 150.1 L100.5 148.7 L100.5 147.3 L100.5 145.9 L100.5 144.6 L100.5 144.4 L100.5 143.0 L100.5 141.6 L100.5 140.2 L100.5 138.7 L100.5 137.3 L100.5 135.9 L100.5 134.7 L100.5 133.5 L100.5 132.3 L100.5 131.0 L100.5 130.2 L100.5 128.7 L100.4 127.2 L100.4 126.6 L100.6 126.3 L101.0 125.9 L101.9 125.0 L102.9 124.0 L103.8 123.1 L104.7 122.2 L105.3 121.3 L105.9 120.5 L106.5 119.6 L107.1 118.8 L108.0 117.4 L109.0 116.1 L110.0 114.7 L110.9 113.3 L111.1 113.1 L111.2 113.0 L111.3 112.8 L111.3 112.5 L111.4 112.3 L111.6 112.1 L112.4 111.6 L113.0 111.1 L113.4 110.9 L113.8 110.8 L114.8 110.8 L115.6 110.8 L117.0 110.5 L118.7 110.2 L120.4 110.0 L121.2 109.8 L121.7 109.6 L122.1 109.3 L122.1 109.3 L122.5 109.0 L122.7 108.6 L122.9 107.8 L123.0 107.4 L123.1 107.3 L123.2 107.2 L124.0 106.5 L125.0 105.7 L126.3 105.1 L127.6 104.5 L128.9 103.8 L129.6 103.5 L130.9 103.2 L131.8 103.0 L132.9 102.7 L133.3 102.6 L134.3 102.3 L134.7 102.2 L135.4 102.2 L135.9 102.3 L136.5 102.3 L137.1 102.3 L137.7 102.4 L138.3 102.4 L138.9 102.4 L139.5 102.5 L140.1 102.5 L140.7 102.5 L141.3 102.6 L141.8 102.6 L141.9 102.6 L142.4 102.6 L143.0 102.7 L143.6 102.7 L144.2 102.7 L144.8 102.8 L145.4 102.8 L145.8 102.7 L146.7 101.7 L146.7 101.7 L147.3 101.0 L148.5 99.7 L149.8 98.3 L151.0 97.0 L152.2 95.7 L152.3 95.5 L153.4 94.3 L154.6 93.0 L155.9 91.6 L157.1 90.3 L157.8 89.6 L158.5 88.9 L159.2 88.2 L159.9 87.5 L160.6 86.7 L161.3 86.0 L162.0 85.3 L162.7 84.6 L163.1 84.1 Z" fill="#172033" fill-rule="evenodd"/></svg>
