<svg xmlns="http://www.w3.org/2000/svg" viewBox="0 0 320 200" role="img"><path d="M265.5 157.8 L264.3 157.8 L263.0 157.8 L262.9 156.8 L262.2 156.7 L261.7 157.1 L261.6 157.8 L261.6 157.8 L261.6 157.8 L261.5 158.4 L260.0 157.8 L259.9 157.8 L259.9 157.8 L259.1 156.2 L258.3 154.9 L259.2 152.7 L257.9 152.3 L256.1 152.3 L256.8 150.9 L256.4 150.5 L255.0 151.2 L253.7 151.9 L253.4 151.3 L252.2 151.8 L250.7 152.4 L249.1 153.0 L247.6 153.5 L246.2 154.0 L244.8 154.6 L243.0 155.2 L241.8 155.8 L240.6 156.4 L239.3 157.1 L237.9 157.8 L236.1 159.6 L234.3 161.4 L232.5 163.2 L230.7 165.0 L229.3 166.4 L227.8 167.9 L225.8 169.9 L224.1 171.6 L222.8 172.9 L222.7 173.0 L222.0 173.4 L221.3 173.5 L218.4 173.3 L216.7 173.2 L216.2 173.1 L215.8 172.9 L213.6 171.1 L213.2 170.9 L212.9 171.0 L211.8 171.9 L210.4 172.6 L208.9 173.0 L206.1 173.2 L202.8 173.5 L202.0 173.7 L198.7 175.7 L198.5 175.9 L198.5 176.2 L198.6 176.8 L198.6 177.1 L198.5 177.3 L198.5 177.5 L198.4 177.6 L198.2 177.6 L197.0 177.4 L196.7 177.2 L196.5 176.9 L196.3 176.8 L196.1 176.4 L195.9 176.3 L195.8 176.3 L194.4 176.2 L194.1 176.1 L194.0 175.8 L193.9 174.9 L193.9 174.6 L193.6 174.2 L192.3 172.7 L191.9 172.4 L191.8 172.3 L191.5 172.2 L191.4 172.2 L191.4 172.3 L189.9 173.9 L189.8 174.0 L189.5 174.2 L187.6 174.4 L187.3 174.6 L187.1 174.8 L187.1 174.9 L186.9 175.0 L186.5 175.0 L184.3 173.7 L182.8 172.9 L182.1 172.7 L181.3 172.6 L180.5 172.6 L180.0 172.7 L179.4 173.2 L178.9 173.6 L178.7 173.7 L178.4 173.7 L178.2 173.8 L177.7 174.3 L177.4 174.4 L177.2 174.4 L176.9 174.4 L176.7 174.4 L176.5 174.6 L176.4 174.8 L176.4 175.0 L176.3 175.2 L175.1 176.9 L174.7 177.7 L174.6 178.0 L174.4 177.6 L174.6 176.7 L174.3 176.4 L173.8 176.2 L173.5 176.0 L173.4 175.7 L173.4 175.1 L173.3 174.9 L173.0 174.7 L172.7 174.9 L172.4 175.3 L172.0 175.5 L171.5 175.5 L171.3 175.5 L171.0 175.6 L170.4 175.9 L170.2 176.0 L169.9 176.0 L169.7 176.0 L169.5 176.0 L169.3 175.8 L169.3 175.7 L169.4 175.6 L169.5 175.4 L169.7 174.7 L169.7 174.3 L169.3 171.7 L169.0 171.3 L168.8 171.2 L168.7 171.2 L168.5 171.3 L168.3 171.3 L167.9 171.3 L167.8 171.3 L167.1 171.0 L165.7 170.2 L164.5 169.8 L163.3 169.8 L163.0 169.7 L162.9 169.5 L162.8 169.3 L162.8 169.1 L162.8 168.9 L162.7 168.7 L162.3 168.2 L162.1 167.8 L162.0 167.4 L161.8 167.1 L161.4 166.8 L160.7 166.7 L160.4 166.5 L160.1 166.1 L159.7 165.3 L159.4 165.0 L159.0 164.7 L158.8 164.7 L158.6 164.7 L158.4 164.7 L158.3 164.5 L158.2 164.3 L158.4 164.1 L158.5 163.9 L158.6 163.7 L158.4 163.4 L158.0 163.0 L157.5 162.7 L157.1 162.7 L156.3 162.7 L155.8 162.3 L155.6 161.6 L155.6 160.9 L155.8 160.3 L155.8 160.1 L155.8 160.0 L155.7 159.7 L155.6 159.5 L155.8 159.3 L155.8 159.2 L155.9 159.1 L156.0 158.9 L155.8 158.8 L155.6 158.7 L155.2 158.5 L155.1 158.4 L154.7 158.5 L154.5 158.5 L154.3 158.4 L153.8 157.9 L153.5 157.8 L152.8 157.4 L152.6 157.4 L152.1 157.4 L151.5 157.1 L151.3 157.1 L151.2 157.1 L150.9 157.2 L150.8 157.2 L150.6 157.0 L150.6 156.9 L150.2 156.9 L149.9 156.9 L149.8 157.1 L149.7 157.8 L149.7 158.1 L149.7 158.3 L149.7 158.5 L149.3 158.8 L149.2 159.0 L149.1 159.4 L148.9 159.7 L148.7 160.1 L147.8 160.8 L147.6 161.1 L147.4 161.5 L147.2 162.0 L146.9 162.0 L146.5 162.0 L146.1 162.0 L145.9 162.2 L145.8 162.5 L145.7 162.8 L145.2 162.9 L144.8 162.7 L143.7 161.5 L143.5 161.4 L142.8 161.1 L142.7 161.1 L142.7 160.8 L142.5 160.7 L141.6 160.2 L141.5 160.0 L140.4 160.3 L140.0 160.3 L139.2 160.3 L138.6 160.3 L138.4 160.3 L138.0 160.2 L137.9 159.8 L137.9 159.4 L137.6 159.1 L137.4 159.0 L137.2 159.1 L137.1 159.2 L136.8 159.3 L136.5 159.3 L136.3 159.4 L135.6 160.8 L135.3 161.2 L135.0 161.3 L134.3 161.5 L134.1 161.6 L134.0 161.8 L134.0 162.0 L133.8 162.2 L133.7 162.3 L133.5 162.2 L133.3 162.2 L133.1 162.2 L132.7 162.3 L132.5 162.5 L131.8 163.4 L131.5 163.7 L131.1 163.9 L130.7 164.0 L130.3 163.8 L130.1 163.7 L130.0 163.4 L129.9 163.0 L129.3 162.6 L128.5 162.6 L127.7 162.8 L127.0 162.7 L126.7 162.4 L126.4 162.1 L125.9 161.5 L125.8 161.1 L125.7 161.0 L125.4 161.0 L125.2 161.1 L124.9 161.4 L124.8 161.4 L124.2 160.6 L124.1 160.4 L124.1 160.3 L124.0 160.2 L124.0 160.0 L124.1 159.6 L124.2 159.2 L124.1 159.1 L123.2 158.9 L123.0 158.9 L122.9 158.9 L122.7 158.7 L122.6 158.7 L122.4 158.8 L122.4 158.8 L122.4 158.9 L122.4 158.9 L122.4 159.0 L122.3 159.1 L122.2 159.1 L121.9 158.9 L121.8 158.9 L121.3 159.0 L121.2 159.0 L121.0 158.9 L120.6 158.5 L120.5 158.4 L120.3 158.3 L119.9 158.2 L119.8 158.2 L119.7 157.9 L119.6 157.5 L119.6 156.8 L119.7 155.7 L119.6 155.4 L119.6 155.2 L119.4 155.0 L119.3 154.8 L119.1 154.7 L119.0 154.7 L118.6 154.8 L118.5 154.8 L118.3 154.6 L118.1 154.3 L118.0 153.6 L117.8 153.2 L117.4 153.0 L115.9 152.8 L115.5 152.7 L115.2 152.4 L115.1 152.2 L115.0 151.8 L115.0 151.7 L114.8 151.5 L114.2 151.1 L114.1 151.0 L114.0 150.9 L113.9 150.9 L113.8 150.8 L113.9 150.0 L113.9 149.7 L113.7 149.5 L113.2 149.1 L112.9 148.4 L112.4 148.0 L111.4 147.3 L111.0 146.9 L110.7 146.4 L110.2 145.2 L110.2 145.0 L110.1 144.1 L109.9 143.6 L109.9 143.4 L109.9 143.1 L110.6 141.2 L110.6 141.0 L110.7 140.7 L110.6 140.5 L110.4 140.4 L110.3 140.4 L110.2 140.5 L110.1 140.5 L110.1 140.5 L110.0 140.6 L109.9 140.5 L109.8 140.4 L109.8 140.3 L109.8 140.0 L109.9 139.7 L109.9 139.6 L109.9 139.5 L109.6 139.3 L109.5 139.2 L109.5 139.1 L109.5 138.9 L109.4 138.6 L109.2 138.4 L109.0 138.1 L108.8 138.0 L108.4 137.9 L108.3 137.8 L108.3 137.6 L108.2 137.3 L108.0 137.1 L107.3 136.9 L107.1 136.9 L106.8 137.0 L106.6 137.0 L106.5 136.9 L106.4 136.6 L106.1 136.4 L105.8 135.9 L105.6 135.6 L104.9 135.8 L104.5 135.8 L104.3 135.5 L104.1 135.1 L103.9 135.1 L103.6 135.2 L103.2 135.2 L102.8 135.0 L102.6 134.7 L102.5 133.9 L102.3 133.7 L102.0 133.5 L100.7 133.0 L99.5 133.0 L98.9 132.9 L97.8 132.6 L97.5 132.4 L97.4 132.0 L97.2 131.7 L97.0 131.3 L96.7 131.3 L96.0 131.8 L95.7 131.8 L95.6 131.5 L95.8 131.1 L96.1 130.8 L96.4 130.6 L96.8 130.4 L97.1 130.1 L97.2 129.8 L97.2 129.5 L97.0 129.2 L96.7 129.1 L96.4 129.1 L96.3 129.0 L96.3 128.6 L96.2 128.1 L95.9 127.9 L95.2 127.8 L94.8 127.5 L94.4 127.0 L94.1 126.7 L93.8 126.5 L93.5 126.4 L93.3 126.2 L93.2 125.8 L93.2 125.5 L93.3 125.2 L93.3 124.9 L92.9 124.8 L93.1 124.6 L93.2 124.5 L93.4 124.4 L93.6 124.2 L93.9 123.5 L94.5 122.8 L94.8 122.2 L94.9 122.1 L94.9 121.8 L94.9 121.5 L94.0 121.0 L92.9 120.6 L92.3 120.3 L92.0 119.9 L91.3 119.4 L90.7 118.7 L90.5 118.6 L90.1 118.5 L89.7 118.3 L89.6 118.1 L89.5 117.9 L89.5 117.7 L89.4 117.4 L89.4 117.3 L89.4 117.2 L89.4 117.1 L89.3 117.1 L89.2 117.1 L89.1 117.1 L89.0 117.1 L88.9 117.0 L88.8 116.6 L88.7 115.7 L88.6 115.3 L87.8 115.2 L87.6 115.2 L87.5 115.1 L87.5 114.9 L87.4 114.8 L87.2 114.7 L86.9 114.7 L86.7 114.6 L86.1 114.3 L86.0 114.2 L86.0 113.8 L85.9 113.7 L85.6 113.5 L84.8 113.5 L84.5 113.4 L84.4 113.1 L84.4 112.9 L84.3 112.7 L83.8 112.7 L83.6 112.6 L83.4 112.3 L83.2 112.3 L82.8 112.3 L82.7 112.2 L82.3 111.9 L81.9 111.8 L80.8 111.5 L80.5 111.3 L79.7 110.6 L79.5 110.4 L79.2 110.4 L78.8 110.5 L78.4 110.3 L77.7 109.8 L76.7 109.3 L76.4 109.1 L76.2 108.8 L76.1 108.6 L76.0 108.0 L75.9 107.8 L75.8 107.7 L75.5 107.6 L75.3 107.5 L75.2 107.4 L75.1 107.1 L74.9 107.0 L74.7 106.9 L73.6 106.3 L73.3 105.4 L73.2 105.1 L73.2 104.9 L73.6 104.5 L74.7 104.1 L75.1 103.8 L75.2 103.5 L75.2 103.2 L75.1 103.0 L75.0 102.7 L75.1 101.9 L75.1 101.7 L75.0 101.3 L74.7 100.9 L74.5 100.3 L74.3 100.0 L74.1 99.8 L73.7 99.7 L73.5 99.6 L73.5 99.4 L73.3 99.4 L72.9 99.3 L72.6 99.3 L72.1 99.4 L71.8 99.4 L71.3 99.2 L70.8 98.8 L69.9 97.9 L69.7 97.8 L69.6 97.7 L69.5 97.6 L69.4 97.4 L69.3 97.1 L69.0 96.7 L68.9 96.1 L68.8 95.8 L67.2 94.4 L66.7 94.2 L65.6 94.0 L65.1 93.7 L64.7 93.7 L64.3 93.7 L63.3 93.5 L62.1 93.7 L61.5 93.7 L61.0 93.3 L60.8 93.3 L60.7 93.2 L60.6 93.1 L60.5 92.9 L60.1 92.5 L59.4 92.6 L58.3 93.0 L58.2 92.9 L57.9 92.7 L57.8 92.6 L57.6 92.6 L57.4 92.6 L57.1 92.6 L57.0 92.6 L56.3 92.4 L56.0 92.3 L55.6 92.1 L55.1 91.7 L54.7 91.2 L54.5 90.7 L54.6 90.1 L54.8 89.5 L55.8 87.9 L56.0 87.7 L56.7 87.2 L56.8 87.0 L56.7 86.8 L56.3 86.4 L56.1 86.2 L56.2 85.9 L56.5 85.4 L56.6 85.2 L56.2 85.0 L55.6 85.0 L55.4 85.1 L55.5 84.9 L55.5 84.7 L55.6 84.5 L56.7 83.8 L57.2 83.5 L59.2 82.3 L59.6 82.2 L61.2 82.0 L62.1 81.7 L62.2 81.6 L62.3 81.5 L62.3 79.6 L62.4 79.5 L62.5 79.2 L64.1 76.5 L64.2 76.3 L64.2 76.2 L64.5 72.8 L64.6 72.5 L64.8 72.3 L65.3 71.8 L66.4 70.6 L66.5 70.2 L66.6 70.0 L66.5 65.2 L66.6 64.9 L66.7 64.7 L66.7 64.7 L66.8 64.7 L67.0 64.6 L67.2 64.6 L67.3 64.5 L67.5 64.5 L68.1 63.9 L68.7 63.6 L68.9 63.3 L69.4 62.7 L69.7 62.4 L69.8 62.2 L70.0 61.9 L70.1 61.6 L70.5 60.6 L70.7 60.1 L70.8 60.0 L70.8 59.9 L70.7 59.8 L70.7 59.6 L70.5 59.2 L70.5 59.2 L70.5 59.0 L70.5 58.8 L70.5 58.6 L71.4 56.7 L71.6 56.5 L71.7 56.4 L71.8 56.3 L72.1 56.3 L72.4 56.1 L72.6 56.1 L73.0 56.1 L73.2 56.1 L73.7 55.9 L73.8 55.9 L74.0 56.0 L74.1 56.0 L74.3 55.9 L74.4 55.9 L74.5 55.8 L74.7 55.9 L74.8 55.9 L75.0 56.0 L75.1 56.0 L75.2 56.0 L75.3 56.0 L75.4 56.0 L75.6 56.0 L75.7 56.0 L75.9 56.0 L76.0 56.0 L76.1 56.0 L76.4 55.8 L76.5 55.8 L76.7 55.8 L76.8 55.8 L77.0 55.7 L77.2 55.7 L77.4 55.6 L77.7 55.5 L77.9 55.5 L78.1 55.4 L78.8 55.5 L79.0 55.4 L79.2 55.4 L79.3 55.4 L80.6 54.9 L81.4 54.7 L81.5 54.7 L82.1 54.7 L82.5 54.6 L82.7 54.6 L82.8 54.5 L83.6 54.6 L83.7 54.6 L83.9 54.5 L84.2 54.3 L85.0 54.1 L85.2 54.1 L85.3 54.2 L86.1 55.1 L86.2 55.3 L86.2 55.3 L86.2 55.4 L86.3 58.2 L86.4 58.3 L86.4 58.4 L86.5 58.5 L86.7 58.6 L87.3 59.0 L87.6 59.1 L88.1 59.3 L88.1 59.3 L88.2 59.4 L88.3 59.4 L88.4 59.6 L89.5 61.3 L89.7 61.6 L89.9 61.8 L89.9 61.8 L91.3 62.4 L94.7 66.3 L98.1 70.2 L98.9 70.7 L99.3 70.9 L100.3 71.0 L100.5 71.0 L107.4 68.6 L112.1 68.5 L112.9 68.7 L115.4 68.7 L116.9 68.9 L117.0 68.8 L117.4 68.7 L117.5 68.7 L119.7 69.1 L121.5 69.0 L121.8 68.9 L122.0 68.9 L123.8 72.6 L124.7 73.6 L131.8 73.6 L138.9 73.7 L139.0 73.7 L138.7 73.3 L138.7 72.6 L138.7 71.9 L139.0 71.2 L140.2 70.0 L141.6 69.0 L141.9 68.7 L144.1 67.6 L146.3 66.8 L150.4 65.9 L151.9 64.5 L152.7 63.1 L152.7 60.6 L153.3 60.2 L154.3 59.6 L159.0 57.3 L159.9 56.8 L164.1 59.5 L168.3 62.1 L173.0 66.3 L173.3 66.5 L173.5 66.6 L173.8 66.5 L174.0 66.3 L174.4 66.2 L174.6 66.1 L176.6 66.0 L176.6 66.0 L180.4 65.8 L181.7 65.3 L185.5 61.6 L189.4 57.8 L191.3 55.4 L191.8 54.9 L192.9 53.2 L194.1 50.2 L194.4 49.9 L198.6 46.4 L202.8 42.8 L203.1 42.3 L203.2 41.8 L201.9 39.5 L201.6 38.2 L201.6 36.4 L201.8 33.5 L201.7 31.7 L201.7 31.5 L201.6 31.2 L201.5 31.1 L196.8 25.9 L202.8 25.8 L208.7 25.8 L208.8 25.4 L208.7 25.2 L208.7 25.0 L208.5 24.3 L208.4 23.5 L208.3 23.3 L208.4 23.0 L208.4 22.6 L208.4 22.4 L208.4 22.3 L208.4 22.2 L208.4 22.1 L208.5 22.0 L217.0 22.1 L216.9 23.6 L215.8 27.0 L215.9 29.1 L215.6 31.5 L215.6 31.7 L215.3 32.2 L215.1 32.5 L214.9 32.8 L214.8 32.9 L214.7 33.0 L214.7 33.3 L215.6 39.9 L216.5 46.5 L216.4 46.9 L216.4 47.1 L215.9 47.9 L215.8 48.2 L215.8 48.4 L215.9 48.6 L219.9 50.0 L220.1 50.1 L220.2 50.2 L221.6 51.9 L225.5 55.0 L229.4 58.2 L229.6 58.5 L230.4 60.5 L230.5 60.8 L230.6 61.2 L230.5 61.6 L230.3 62.8 L230.4 63.3 L230.5 63.7 L230.7 64.1 L230.7 64.2 L230.6 64.3 L230.6 64.5 L229.4 66.8 L229.1 68.4 L228.9 69.8 L229.0 70.6 L229.1 71.1 L229.2 71.2 L229.3 71.3 L229.3 71.3 L229.4 71.4 L232.4 71.4 L232.6 75.8 L232.9 81.0 L233.1 86.2 L233.0 86.6 L233.0 87.0 L232.7 87.4 L232.4 87.8 L230.6 89.4 L230.2 89.6 L229.9 89.7 L228.9 89.7 L228.3 89.8 L228.0 89.9 L227.7 90.0 L227.5 90.1 L226.8 90.8 L226.7 90.8 L226.5 90.8 L225.7 90.7 L225.3 90.2 L224.9 89.6 L224.3 89.1 L224.0 89.1 L223.7 89.2 L223.5 89.3 L223.1 89.4 L222.9 89.3 L222.6 89.1 L222.3 88.9 L221.9 88.9 L222.0 89.0 L222.0 89.1 L221.8 89.2 L220.6 89.3 L220.4 89.3 L220.3 89.3 L220.1 89.4 L219.9 89.6 L219.7 89.6 L217.8 89.2 L217.5 89.2 L216.9 89.7 L217.0 89.7 L217.0 89.9 L216.9 90.0 L216.6 90.0 L216.4 90.1 L216.3 90.3 L216.3 90.4 L216.3 90.7 L216.2 90.8 L216.1 90.9 L216.1 91.0 L216.2 91.1 L216.3 91.2 L216.4 91.2 L216.3 91.5 L216.2 91.8 L216.1 91.9 L216.2 92.1 L216.3 92.3 L216.4 92.4 L216.6 92.6 L216.7 92.7 L217.0 92.8 L217.0 93.1 L216.8 93.2 L216.7 93.2 L216.5 93.3 L216.4 93.5 L216.3 93.7 L216.3 93.9 L216.3 94.1 L216.3 94.2 L216.6 94.4 L216.6 94.5 L216.6 94.9 L216.4 95.1 L216.2 95.3 L215.9 95.4 L215.4 95.5 L215.3 95.6 L215.2 95.8 L215.2 95.9 L215.1 96.1 L214.0 97.1 L213.8 97.4 L213.7 97.6 L213.6 98.0 L213.6 98.1 L213.5 98.2 L213.4 98.4 L213.4 98.4 L213.1 98.7 L213.1 98.9 L213.5 100.0 L213.7 100.3 L214.0 100.5 L214.1 100.7 L214.1 100.8 L214.2 100.9 L214.3 101.0 L214.8 101.0 L215.2 101.2 L215.4 101.2 L215.5 101.1 L215.6 101.1 L216.2 100.9 L216.3 101.0 L216.9 101.2 L217.4 101.3 L217.6 101.3 L217.9 101.5 L218.1 101.9 L218.5 102.1 L219.5 102.4 L219.7 102.4 L220.1 102.1 L220.3 102.0 L221.1 101.9 L221.5 101.9 L221.8 102.0 L222.0 102.1 L222.3 102.2 L222.5 102.3 L222.7 102.4 L222.9 102.8 L223.1 102.9 L223.5 103.0 L224.6 102.9 L224.8 102.9 L225.3 103.3 L225.9 103.4 L226.1 103.5 L226.3 103.8 L226.9 104.6 L227.8 105.2 L227.9 105.3 L228.3 105.3 L228.5 105.4 L229.0 105.7 L231.2 107.9 L231.6 108.4 L231.7 109.0 L231.7 110.7 L231.7 110.8 L231.8 110.8 L232.7 111.5 L233.2 112.1 L233.5 112.3 L233.8 112.3 L234.1 112.1 L234.4 112.3 L234.5 112.6 L234.6 112.9 L234.6 113.5 L234.6 113.7 L234.7 114.1 L234.8 114.3 L235.0 114.3 L235.1 114.4 L235.2 114.7 L236.0 115.2 L236.1 115.3 L236.2 115.6 L236.3 115.7 L236.4 115.7 L236.5 115.8 L239.0 116.4 L240.1 117.2 L240.3 117.5 L240.4 117.7 L240.5 118.0 L240.5 118.4 L240.5 118.4 L240.3 118.6 L240.3 118.6 L240.3 118.7 L240.4 118.9 L240.4 118.9 L240.5 119.7 L240.7 119.8 L241.0 119.9 L241.8 119.9 L242.2 120.0 L242.5 120.1 L243.7 120.9 L243.8 121.1 L243.9 121.4 L244.1 121.7 L244.2 121.7 L244.4 122.5 L244.6 123.2 L245.0 124.2 L245.2 125.2 L245.3 125.6 L246.0 126.8 L246.1 127.3 L246.1 128.3 L246.2 128.7 L246.9 129.8 L247.2 130.7 L247.5 131.0 L247.8 131.3 L248.1 131.7 L248.3 132.0 L248.4 133.0 L248.5 133.2 L248.3 133.6 L248.2 133.8 L248.2 134.0 L248.3 134.2 L248.6 134.5 L248.7 134.7 L248.6 134.9 L248.6 135.1 L248.5 135.3 L248.6 135.6 L248.7 136.0 L250.2 138.0 L250.4 138.5 L250.6 139.5 L250.8 139.9 L251.6 140.5 L253.0 141.3 L253.7 141.9 L253.8 142.2 L253.9 142.4 L253.8 142.6 L253.6 142.8 L253.5 143.0 L253.5 143.2 L253.6 143.4 L254.1 144.3 L254.4 144.6 L254.7 144.8 L255.2 144.7 L255.6 144.4 L256.3 143.6 L256.7 143.4 L257.0 143.3 L257.4 143.3 L257.8 143.4 L258.1 143.4 L258.5 143.7 L259.3 144.3 L259.7 144.4 L260.1 144.3 L260.4 144.2 L260.8 144.1 L261.2 144.2 L262.4 144.9 L263.4 145.3 L263.5 145.5 L263.0 146.2 L262.9 146.6 L262.9 146.9 L263.3 147.6 L263.4 148.1 L263.4 148.4 L263.3 148.8 L262.6 149.6 L262.5 149.9 L262.4 153.6 L262.6 154.5 L263.0 155.2 L265.5 157.8 Z" fill="#172033" fill-rule="evenodd"/></svg>
