<svg xmlns="http://www.w3.org/2000/svg" viewBox="0 0 320 200" role="img"><path d="M188.3 23.5 L197.3 29.6 L206.7 39.7 L214.4 51.3 L218.6 62.3 L220.4 73.1 L220.2 79.5 L218.6 86.8 L215.4 94.7 L212.0 99.5 L202.1 108.9 L197.1 114.9 L185.5 133.9 L183.1 134.9 L179.3 135.7 L177.0 137.5 L179.6 144.4 L176.7 146.1 L172.2 147.0 L169.0 148.0 L162.8 155.0 L162.0 156.2 L148.5 156.5 L146.7 156.2 L142.4 170.7 L138.2 176.3 L132.9 170.0 L130.0 177.1 L125.8 178.0 L121.7 174.2 L119.2 167.0 L119.8 166.5 L121.8 159.5 L121.9 156.2 L120.6 152.1 L119.0 150.3 L117.4 149.5 L116.2 148.0 L101.9 102.0 L99.6 98.1 L101.5 94.5 L102.2 91.0 L102.4 82.9 L103.3 79.7 L111.2 70.3 L112.8 66.7 L113.2 64.1 L114.2 61.6 L128.4 47.3 L131.6 45.8 L146.7 40.6 L159.3 30.2 L172.3 22.0 L188.3 23.5 Z" fill="#172033" fill-rule="evenodd"/></svg>
