<svg xmlns="http://www.w3.org/2000/svg" viewBox="0 0 320 200" role="img"><path d="M193.6 165.0 L193.1 164.4 L192.8 164.0 L192.8 163.5 L192.9 163.4 L193.1 163.1 L193.2 163.0 L193.2 162.7 L193.2 162.6 L193.3 162.1 L193.3 161.9 L193.2 161.8 L193.3 161.3 L193.3 161.0 L193.2 160.7 L193.1 160.0 L193.0 159.7 L192.8 159.3 L192.6 159.1 L192.3 158.8 L192.0 158.5 L191.6 158.3 L191.1 158.3 L190.8 158.2 L191.1 158.0 L191.5 157.7 L191.7 157.5 L191.7 157.3 L191.7 156.9 L191.7 156.7 L191.8 156.6 L192.0 156.5 L192.2 156.4 L192.3 156.2 L192.3 156.0 L192.3 155.9 L192.4 155.7 L192.5 155.5 L192.7 155.3 L192.7 155.2 L192.7 155.1 L192.6 154.5 L192.3 153.3 L192.0 152.9 L192.0 152.8 L192.0 152.3 L191.9 152.1 L191.9 151.9 L191.8 151.8 L191.7 151.7 L191.5 151.6 L191.3 151.5 L191.4 151.4 L191.4 151.3 L191.5 151.2 L191.2 150.7 L191.3 149.7 L191.7 148.2 L191.6 147.9 L191.6 147.6 L191.6 147.4 L191.8 147.3 L191.9 147.1 L191.9 146.9 L192.0 146.6 L191.9 146.4 L191.9 146.2 L191.7 145.9 L191.5 145.3 L190.8 145.2 L189.8 145.0 L187.8 145.1 L185.5 145.1 L181.4 145.2 L178.6 145.2 L175.6 145.2 L174.9 144.9 L174.5 144.4 L173.9 143.2 L173.5 142.7 L171.5 140.6 L170.6 139.5 L169.9 138.3 L169.3 137.7 L168.5 137.4 L167.0 137.2 L166.2 136.9 L165.0 136.0 L162.2 135.3 L162.0 135.3 L161.8 135.3 L161.5 135.6 L161.4 135.8 L161.2 135.8 L161.0 135.6 L160.8 135.3 L160.7 134.9 L160.6 134.6 L160.3 134.3 L160.0 134.3 L159.4 134.5 L159.2 134.5 L159.0 134.4 L158.9 134.3 L158.8 134.2 L158.4 134.2 L158.4 134.0 L158.4 133.9 L158.5 133.7 L158.5 133.7 L158.6 133.6 L158.6 133.5 L158.5 133.4 L158.1 133.1 L156.9 132.3 L156.7 132.0 L156.3 130.6 L156.2 130.2 L156.3 130.0 L156.4 129.8 L156.5 129.7 L156.5 129.5 L156.3 129.3 L156.4 128.9 L156.3 128.6 L155.9 128.2 L155.5 127.9 L155.1 127.8 L154.0 128.2 L153.6 128.2 L151.0 126.7 L150.4 126.2 L150.1 126.1 L149.6 126.0 L149.3 125.9 L149.1 125.8 L148.3 125.5 L146.8 125.2 L145.6 124.7 L145.5 124.8 L145.5 125.1 L145.2 125.4 L145.0 125.4 L144.8 125.4 L144.4 125.4 L144.2 125.4 L144.0 125.5 L143.9 125.6 L143.7 125.7 L143.3 125.7 L142.9 125.7 L142.0 125.4 L141.0 124.7 L140.7 124.6 L140.3 124.6 L140.0 124.8 L139.8 125.0 L139.6 125.4 L139.4 125.7 L139.0 125.8 L137.3 125.9 L137.0 125.9 L136.5 125.6 L136.2 125.5 L134.7 125.3 L134.4 125.2 L134.1 125.0 L134.0 124.8 L134.0 124.5 L133.9 124.2 L133.9 124.0 L133.5 123.6 L133.5 123.4 L133.6 123.3 L133.6 123.1 L133.4 123.0 L133.1 122.9 L132.8 122.8 L132.1 122.8 L130.8 122.5 L127.8 121.4 L127.1 121.2 L126.8 121.3 L126.5 121.3 L126.2 121.3 L125.9 121.2 L125.8 121.1 L125.6 120.8 L125.4 120.7 L125.3 120.7 L125.0 120.7 L124.9 120.7 L124.8 120.7 L124.6 120.6 L124.3 120.4 L124.1 120.3 L123.8 120.3 L123.5 120.4 L122.5 120.4 L121.5 120.2 L121.2 120.1 L120.9 120.2 L120.6 120.2 L120.3 120.3 L117.5 119.4 L117.0 118.9 L117.4 117.9 L117.4 117.5 L117.3 117.2 L116.9 116.7 L116.7 116.1 L116.0 115.6 L115.8 115.3 L115.5 114.7 L115.0 114.1 L114.9 113.9 L114.9 113.7 L114.9 113.6 L114.7 113.5 L114.2 113.4 L114.0 113.4 L113.8 113.4 L113.5 113.5 L113.3 113.7 L113.2 113.7 L112.9 114.3 L112.6 114.5 L112.0 114.8 L111.7 115.0 L111.4 115.1 L111.0 115.1 L110.2 114.8 L107.3 114.4 L107.0 114.3 L106.3 114.0 L105.6 113.5 L105.4 113.5 L104.4 113.6 L102.9 114.2 L102.6 114.2 L102.3 114.1 L102.1 114.0 L101.8 113.8 L101.5 113.8 L99.7 113.8 L99.0 114.0 L98.3 114.4 L97.1 115.3 L97.0 115.5 L97.5 116.0 L97.6 116.4 L97.5 116.7 L97.3 117.0 L97.0 117.2 L95.4 117.4 L95.0 117.4 L94.4 117.2 L94.3 117.2 L93.6 117.1 L90.8 117.5 L90.5 117.5 L90.2 117.4 L89.7 117.2 L89.4 117.1 L88.4 117.1 L88.1 117.0 L87.3 116.7 L86.1 116.5 L85.5 116.5 L81.7 117.1 L80.5 117.1 L80.0 117.3 L78.6 118.2 L78.1 118.3 L77.7 118.6 L77.5 118.6 L76.6 118.9 L76.2 119.0 L76.0 119.3 L75.8 119.4 L74.7 119.6 L74.3 119.7 L74.1 119.8 L73.9 120.2 L73.8 120.3 L73.6 120.4 L73.3 120.4 L73.1 120.5 L73.0 120.8 L72.8 121.0 L71.9 121.8 L69.0 123.4 L68.4 123.9 L68.2 124.2 L68.0 124.5 L68.0 124.9 L67.6 125.5 L67.7 125.9 L67.7 126.0 L68.0 126.2 L68.0 126.3 L68.1 126.5 L68.0 126.9 L68.0 127.2 L67.7 127.7 L67.7 128.0 L67.6 128.1 L67.1 128.5 L66.2 128.9 L65.9 129.1 L65.5 129.3 L65.1 129.7 L64.8 129.8 L64.3 129.8 L63.1 129.6 L62.7 129.6 L59.4 131.1 L58.7 131.3 L58.3 131.3 L57.9 131.3 L57.4 131.3 L57.1 131.5 L56.7 131.8 L56.4 131.9 L56.0 131.9 L50.7 131.5 L50.7 131.5 L50.4 129.1 L50.2 128.3 L49.8 127.5 L49.7 127.2 L49.6 126.3 L48.9 123.7 L48.6 118.1 L48.7 117.8 L48.9 117.2 L49.1 116.2 L49.6 114.8 L49.5 114.2 L49.8 113.6 L49.8 112.8 L49.7 111.4 L49.7 111.2 L49.5 110.9 L49.4 110.8 L49.3 110.6 L49.3 110.2 L49.0 109.0 L49.0 108.6 L49.2 107.0 L49.4 106.2 L49.7 105.6 L50.6 104.4 L50.9 103.7 L50.7 103.2 L51.0 103.0 L51.2 102.6 L51.3 102.2 L51.5 101.9 L51.7 101.6 L51.9 101.2 L52.0 101.0 L51.8 101.0 L51.8 100.6 L51.5 100.4 L50.9 100.2 L50.9 100.2 L50.8 100.0 L50.7 100.0 L50.6 99.9 L50.4 99.9 L50.3 99.8 L50.2 99.7 L50.2 99.6 L50.1 99.4 L50.1 99.2 L49.8 98.8 L49.6 98.7 L48.9 98.6 L48.4 98.5 L48.2 98.5 L48.0 98.6 L47.9 98.7 L47.8 98.7 L47.6 98.6 L47.5 98.3 L47.1 97.4 L46.9 97.2 L46.8 97.3 L46.8 97.6 L47.0 97.9 L47.1 98.1 L47.1 98.2 L46.8 98.1 L46.6 97.8 L46.4 97.5 L46.6 96.9 L46.5 96.6 L46.5 96.4 L46.6 96.3 L47.1 96.0 L46.6 95.9 L46.6 95.5 L47.0 94.6 L46.6 94.8 L46.1 95.1 L45.7 95.4 L46.0 95.6 L46.2 97.7 L46.0 97.4 L45.5 96.9 L45.3 96.6 L45.2 96.3 L45.2 95.9 L45.0 95.6 L44.6 95.6 L44.7 95.3 L44.8 95.0 L44.7 94.8 L44.5 94.6 L44.4 94.8 L44.1 95.4 L44.0 95.6 L43.9 95.1 L44.0 94.6 L44.3 93.4 L43.8 93.8 L44.1 93.2 L44.2 92.9 L44.1 93.0 L43.7 93.1 L43.9 92.6 L43.8 92.5 L43.6 92.6 L43.3 92.9 L43.1 92.8 L42.9 92.9 L42.1 92.9 L41.7 93.2 L41.5 93.1 L41.6 92.8 L41.4 92.8 L41.3 93.0 L41.1 93.2 L40.8 93.3 L40.5 93.3 L40.6 93.2 L40.8 92.8 L40.6 92.8 L40.3 92.8 L40.2 92.8 L40.2 92.8 L40.0 92.9 L39.9 92.9 L39.9 92.9 L39.8 92.7 L39.7 92.7 L39.4 92.7 L38.9 92.9 L38.6 92.9 L38.6 92.8 L38.7 92.6 L38.7 92.6 L38.5 92.5 L38.3 92.5 L38.1 92.5 L37.8 92.3 L37.6 92.3 L37.2 92.3 L36.2 92.5 L35.8 92.7 L36.5 93.0 L36.8 93.1 L36.4 93.5 L36.3 93.7 L36.2 94.1 L36.3 94.4 L36.5 95.2 L36.4 95.7 L36.3 95.9 L36.1 95.8 L35.6 93.1 L35.5 92.9 L34.6 91.9 L34.6 91.6 L34.8 91.2 L34.9 91.0 L35.5 90.6 L35.6 90.4 L35.7 90.2 L35.7 89.9 L36.1 89.7 L36.4 89.3 L37.1 87.8 L37.6 87.0 L38.3 86.4 L39.0 86.5 L38.6 86.7 L38.3 86.9 L37.8 87.5 L37.7 87.7 L37.5 88.3 L37.4 88.3 L37.0 88.7 L37.1 89.1 L37.9 89.2 L40.0 88.9 L41.2 88.9 L41.6 89.0 L41.8 89.3 L42.0 89.6 L42.2 89.8 L42.5 90.0 L42.8 90.1 L43.6 90.1 L44.0 90.3 L44.1 90.2 L44.2 90.1 L44.2 89.9 L44.1 89.7 L44.0 89.6 L43.8 89.6 L44.1 89.1 L44.3 89.2 L44.6 89.5 L44.9 89.7 L45.2 89.7 L45.8 89.3 L46.2 89.2 L46.4 89.2 L46.8 89.4 L47.0 89.5 L47.2 89.3 L47.2 89.1 L47.0 88.9 L46.7 88.8 L46.3 88.6 L45.5 88.5 L45.1 88.3 L45.5 88.2 L45.6 88.0 L45.7 87.8 L45.5 87.5 L45.2 87.3 L45.0 87.3 L44.0 87.4 L44.0 87.2 L44.0 86.9 L43.9 86.7 L43.7 86.4 L43.5 86.2 L43.3 86.1 L43.4 86.8 L43.4 87.1 L43.3 87.1 L42.6 86.2 L42.1 85.8 L41.6 85.7 L41.6 85.8 L41.8 86.3 L41.7 86.2 L41.4 86.1 L41.3 86.0 L41.3 86.4 L41.7 86.7 L41.7 87.1 L41.0 86.7 L40.9 86.0 L41.3 84.5 L41.0 84.6 L40.8 84.7 L40.6 84.6 L40.3 84.5 L40.3 84.4 L41.0 84.1 L42.0 83.0 L42.6 82.5 L42.5 82.4 L42.4 82.2 L42.3 82.1 L42.5 82.1 L42.7 82.0 L43.1 82.0 L43.4 81.9 L43.4 81.8 L43.2 81.6 L43.1 81.6 L43.4 81.4 L43.7 81.2 L43.9 80.9 L44.1 80.5 L44.0 80.6 L43.9 80.6 L43.9 80.6 L43.8 80.7 L43.5 80.4 L43.2 80.4 L42.5 80.4 L42.1 80.3 L41.7 80.0 L41.4 79.9 L41.1 79.8 L40.7 79.8 L40.4 79.9 L40.1 80.0 L39.3 80.7 L39.0 80.8 L38.9 80.9 L38.6 81.0 L38.4 81.1 L38.3 81.0 L37.9 80.9 L37.8 80.8 L37.5 80.7 L36.3 80.0 L35.9 80.1 L35.7 80.3 L35.4 80.4 L34.0 80.5 L34.1 80.4 L34.2 80.2 L34.3 80.1 L34.5 80.0 L33.2 80.3 L32.4 80.4 L31.8 80.3 L31.5 79.7 L31.2 79.5 L30.9 79.7 L30.9 79.9 L31.0 80.2 L31.4 80.6 L31.4 80.8 L31.6 81.9 L31.7 82.1 L32.2 82.7 L32.4 82.8 L33.2 83.9 L33.8 84.3 L34.0 84.4 L34.0 84.5 L33.0 84.1 L33.3 84.3 L33.8 84.8 L33.7 84.9 L33.1 84.5 L32.8 84.2 L32.3 83.2 L32.0 82.9 L31.3 82.7 L31.1 82.3 L31.0 81.9 L30.8 81.2 L30.7 81.0 L28.8 79.8 L28.1 79.3 L27.8 78.9 L28.0 78.0 L28.1 77.6 L28.3 77.3 L28.4 76.9 L28.2 76.6 L27.7 76.0 L27.9 75.8 L27.9 75.7 L27.4 75.3 L27.1 74.6 L27.1 73.8 L27.8 70.5 L28.1 69.9 L28.5 69.2 L29.7 68.0 L30.3 67.1 L30.4 66.4 L30.2 66.3 L29.7 66.2 L29.6 66.1 L29.6 65.9 L29.8 65.6 L29.8 65.5 L29.7 65.4 L29.9 65.3 L30.2 65.2 L30.4 65.2 L30.4 65.1 L30.4 64.8 L30.3 64.7 L30.2 64.6 L30.7 63.1 L31.4 61.6 L31.6 61.0 L31.3 59.6 L31.3 58.8 L31.5 59.0 L32.0 59.2 L32.2 59.3 L32.3 59.5 L32.2 59.8 L32.1 60.0 L32.1 60.2 L32.3 60.5 L33.2 61.4 L33.3 61.7 L33.5 62.4 L33.7 62.7 L34.3 63.0 L34.4 63.1 L34.9 63.1 L35.1 63.1 L35.3 63.0 L35.0 63.2 L34.5 63.4 L34.2 63.5 L34.3 63.8 L34.4 63.9 L34.7 64.1 L34.9 64.3 L34.9 64.5 L34.9 64.7 L35.0 64.9 L35.2 65.0 L36.1 65.0 L36.5 65.0 L36.9 64.8 L37.8 64.1 L38.1 64.0 L37.8 64.6 L37.7 64.9 L37.9 65.0 L39.3 64.8 L39.5 64.7 L39.6 64.5 L39.6 64.3 L39.6 64.1 L39.9 63.8 L40.1 63.7 L40.3 63.8 L40.4 63.9 L40.2 64.2 L40.2 64.4 L40.4 64.8 L40.7 65.1 L41.0 65.3 L41.5 65.4 L41.6 65.4 L41.9 65.6 L42.1 65.6 L42.3 65.6 L42.5 65.5 L42.7 65.4 L43.4 65.1 L43.7 64.9 L43.8 64.5 L43.8 63.7 L43.9 63.3 L44.3 62.6 L44.4 62.6 L44.7 62.6 L44.9 62.6 L45.1 62.7 L45.2 62.8 L45.3 62.9 L45.3 63.0 L45.6 63.1 L45.7 63.1 L45.7 63.2 L45.6 63.3 L45.6 63.4 L45.5 63.5 L45.6 63.9 L45.8 64.1 L46.0 64.2 L45.8 64.4 L45.7 64.6 L45.5 64.7 L45.8 65.0 L46.1 65.8 L46.3 66.2 L46.5 66.3 L46.7 66.3 L46.9 66.3 L47.0 66.5 L46.9 66.7 L46.7 67.1 L46.6 67.3 L46.9 67.8 L47.7 67.8 L48.6 67.6 L49.7 67.7 L50.0 67.5 L50.3 67.2 L51.1 66.9 L51.3 66.8 L51.5 66.9 L52.1 67.1 L52.6 67.1 L52.9 67.0 L53.3 66.9 L53.9 66.8 L54.1 66.7 L54.2 66.5 L54.2 66.4 L54.1 66.3 L53.6 66.1 L53.4 66.0 L54.5 66.1 L55.1 66.0 L55.7 65.7 L56.9 65.8 L56.9 65.8 L56.8 65.9 L56.6 66.4 L56.6 66.5 L56.7 66.6 L57.3 66.8 L60.2 66.8 L59.8 66.6 L59.4 66.5 L59.6 66.3 L60.4 66.1 L60.7 65.9 L58.8 65.9 L58.5 65.9 L58.4 65.7 L58.3 65.3 L58.3 65.0 L57.9 64.4 L57.8 63.9 L57.6 63.6 L57.5 63.4 L57.6 63.3 L57.6 63.2 L57.7 63.1 L57.7 63.0 L57.5 62.9 L57.3 63.0 L57.2 62.9 L57.1 62.7 L57.2 62.6 L57.4 62.6 L57.5 62.6 L57.7 62.6 L58.2 62.1 L58.4 62.0 L58.8 61.9 L59.4 62.1 L60.5 62.8 L60.9 62.8 L61.4 63.1 L61.5 63.4 L61.2 63.7 L60.9 64.0 L61.6 64.2 L63.8 63.9 L64.5 63.7 L64.8 63.6 L65.1 63.2 L65.9 62.8 L66.1 62.7 L66.9 61.8 L67.0 61.5 L67.1 61.2 L67.0 60.8 L66.9 60.6 L66.4 60.1 L65.8 59.3 L65.5 59.2 L65.5 59.1 L66.0 59.2 L66.4 59.3 L67.3 59.8 L67.1 59.6 L66.7 59.4 L66.6 59.2 L66.4 59.0 L66.3 58.9 L66.3 58.8 L66.3 58.7 L66.4 58.6 L66.5 58.5 L66.6 58.6 L66.3 58.2 L65.7 58.1 L65.2 58.1 L64.7 57.9 L64.7 57.3 L64.0 56.8 L60.1 54.5 L58.4 53.9 L58.1 53.7 L57.4 53.2 L56.5 52.8 L56.1 52.6 L56.0 52.5 L55.7 52.1 L55.3 51.7 L55.2 51.6 L54.5 51.4 L54.1 51.3 L53.8 51.0 L53.5 50.7 L53.2 50.1 L52.9 49.4 L52.9 48.7 L52.8 47.0 L52.7 46.3 L52.5 45.6 L52.2 45.0 L51.3 43.8 L51.1 43.5 L51.0 43.3 L50.8 43.2 L50.6 43.2 L50.5 43.1 L50.4 42.9 L50.4 42.7 L50.5 42.5 L50.6 42.3 L50.6 42.2 L50.5 41.8 L50.5 41.6 L50.7 41.1 L50.7 40.9 L50.7 40.6 L50.7 40.2 L50.5 39.8 L50.3 39.5 L49.7 39.1 L48.8 38.6 L47.8 38.4 L47.0 38.6 L46.2 38.3 L40.2 39.0 L39.1 39.5 L38.7 39.5 L37.2 39.5 L36.1 39.0 L35.3 39.3 L34.6 39.8 L34.1 40.2 L32.2 41.4 L31.7 41.9 L29.5 45.6 L29.1 46.0 L28.8 46.2 L28.7 46.4 L28.5 46.9 L28.4 47.4 L28.5 47.7 L28.7 47.6 L29.3 47.0 L29.6 46.9 L30.6 46.9 L31.1 47.1 L31.3 47.4 L31.3 47.7 L31.0 48.0 L30.9 48.3 L30.9 48.5 L31.0 48.8 L31.0 49.1 L31.0 49.5 L29.7 52.0 L29.6 52.4 L29.3 52.9 L29.3 53.1 L29.3 53.3 L29.6 53.8 L29.8 54.6 L29.9 55.8 L30.0 56.1 L31.1 57.8 L31.2 58.1 L31.1 58.5 L30.7 59.1 L30.6 59.5 L30.5 59.5 L30.4 59.3 L30.1 59.1 L30.0 59.0 L29.9 58.8 L30.1 58.2 L30.1 57.7 L30.0 57.3 L29.9 56.9 L29.7 56.6 L29.6 56.5 L29.4 56.3 L29.3 56.2 L29.3 55.9 L29.3 55.6 L29.3 55.4 L28.9 54.2 L28.8 54.1 L28.6 53.9 L28.3 53.2 L28.0 53.0 L27.7 52.9 L27.6 52.8 L27.5 52.6 L27.4 52.4 L27.4 52.2 L27.3 52.1 L27.0 51.9 L26.8 51.7 L26.2 51.7 L26.1 51.6 L25.4 50.9 L25.0 50.7 L24.7 50.6 L24.4 50.4 L24.4 49.9 L24.4 49.9 L24.8 49.3 L24.9 49.2 L24.9 48.9 L24.9 48.5 L24.9 48.4 L25.1 48.2 L25.1 48.1 L25.0 47.9 L24.9 47.9 L24.8 47.8 L24.8 47.8 L24.6 47.4 L24.5 47.2 L24.4 47.1 L24.2 47.1 L23.9 47.1 L23.8 47.1 L23.6 46.8 L23.5 46.8 L23.2 46.7 L22.9 46.4 L22.7 46.3 L22.2 46.2 L22.0 45.9 L22.8 45.3 L25.8 43.1 L28.3 41.2 L28.4 41.2 L28.4 41.2 L32.5 38.6 L35.5 37.8 L36.6 37.3 L40.9 36.0 L42.2 35.8 L45.6 35.4 L48.6 35.0 L53.3 34.4 L54.7 34.5 L56.1 34.9 L59.2 36.4 L62.4 38.0 L64.4 39.0 L66.7 40.1 L70.0 42.4 L70.4 42.8 L70.6 43.2 L70.6 43.5 L70.5 43.9 L70.5 44.3 L70.6 44.7 L70.8 45.0 L72.8 47.1 L73.7 48.0 L75.0 49.7 L76.2 51.3 L76.8 51.8 L77.5 52.3 L78.7 52.9 L79.0 53.2 L79.2 53.5 L79.8 54.5 L80.1 54.8 L80.5 55.1 L81.1 55.3 L81.7 55.5 L84.1 55.4 L85.3 55.0 L87.1 54.8 L88.8 54.2 L89.5 54.1 L90.8 54.2 L93.9 54.4 L97.5 54.5 L101.6 54.7 L102.3 54.7 L106.6 54.9 L108.4 55.2 L110.8 55.6 L111.2 55.4 L111.8 54.6 L112.2 54.2 L113.1 53.9 L113.5 53.7 L113.7 53.5 L113.8 53.3 L113.6 53.3 L112.6 53.1 L112.3 53.0 L112.1 52.8 L111.6 52.5 L111.3 52.0 L111.0 51.4 L110.9 50.9 L110.9 50.2 L110.9 49.7 L110.6 49.1 L110.2 48.6 L109.9 47.9 L109.9 47.3 L110.0 46.7 L110.1 45.9 L109.7 44.4 L109.7 43.7 L110.2 43.1 L112.1 42.4 L112.9 42.0 L113.6 41.2 L113.6 41.2 L114.7 39.7 L116.2 38.5 L118.1 37.9 L119.9 37.8 L122.7 38.2 L123.6 38.0 L124.6 37.7 L125.0 37.6 L126.3 37.6 L126.7 37.6 L127.1 37.3 L127.1 37.2 L126.8 37.0 L126.7 36.6 L126.9 36.4 L127.6 36.2 L127.9 36.0 L128.7 34.6 L128.8 34.2 L128.8 33.9 L128.4 33.2 L128.3 32.7 L128.6 32.5 L129.1 32.3 L129.6 31.9 L129.8 31.7 L130.0 31.5 L130.4 31.4 L130.8 31.3 L131.2 31.3 L131.6 31.4 L131.9 31.6 L132.3 32.1 L132.6 32.2 L133.0 32.2 L133.7 32.0 L134.0 31.9 L134.4 32.0 L136.4 32.7 L137.0 33.0 L137.5 33.5 L137.7 34.2 L137.7 34.6 L137.6 34.9 L137.5 35.2 L137.8 35.5 L138.1 35.5 L139.3 35.4 L139.6 35.3 L139.6 35.1 L139.6 35.0 L139.3 34.8 L138.6 34.1 L137.1 32.4 L136.6 31.5 L136.0 30.8 L135.3 30.4 L132.9 29.6 L132.5 29.3 L132.4 28.9 L132.6 28.7 L132.9 28.5 L133.7 28.2 L134.7 27.8 L135.1 27.7 L135.5 27.7 L137.6 28.3 L138.6 28.5 L139.6 28.5 L140.4 28.3 L140.8 27.8 L141.1 26.1 L141.5 25.7 L141.9 25.9 L146.1 29.5 L147.4 30.4 L148.8 30.9 L149.7 31.0 L150.2 31.0 L150.8 30.9 L151.4 30.6 L151.8 30.6 L152.3 30.8 L153.5 31.8 L153.8 32.1 L154.0 32.5 L154.2 34.0 L154.5 34.3 L155.1 34.5 L156.0 34.6 L156.5 34.7 L157.3 35.4 L157.8 35.5 L158.8 35.5 L162.9 35.0 L164.6 35.2 L165.4 35.1 L166.3 35.2 L166.9 35.7 L167.5 36.3 L168.1 36.7 L169.0 37.0 L169.5 37.2 L169.7 37.4 L169.6 37.8 L169.3 37.9 L168.9 38.1 L168.6 38.2 L168.4 39.1 L168.8 40.1 L168.8 40.9 L167.7 41.2 L167.7 41.2 L167.7 41.2 L167.7 41.2 L167.3 41.3 L167.1 41.5 L167.1 41.7 L167.3 42.0 L167.6 42.1 L168.6 42.1 L170.6 42.6 L171.2 43.0 L171.6 43.5 L171.9 43.8 L172.2 44.0 L173.1 44.4 L173.3 44.6 L173.6 44.8 L173.8 45.1 L173.8 45.3 L173.6 45.6 L173.3 45.6 L172.9 45.5 L172.2 45.2 L171.5 45.0 L170.9 45.0 L170.4 45.3 L169.9 45.8 L170.0 46.5 L170.6 47.4 L171.9 48.8 L172.1 49.1 L171.8 49.4 L171.0 49.7 L170.7 49.9 L170.4 50.2 L170.3 50.5 L170.1 52.1 L170.2 52.5 L170.7 52.9 L172.9 53.7 L174.7 54.5 L175.9 55.1 L177.0 55.9 L177.5 56.2 L178.2 56.4 L179.4 56.3 L181.7 55.8 L185.6 55.6 L187.0 55.8 L187.9 56.5 L188.0 56.5 L188.2 56.4 L188.4 56.0 L188.5 55.9 L188.6 55.9 L188.7 56.1 L188.8 56.3 L189.9 56.1 L190.3 56.1 L192.3 57.2 L193.1 57.5 L193.8 57.4 L194.5 57.2 L195.0 56.7 L195.4 56.1 L195.9 55.9 L196.0 55.2 L196.3 54.8 L196.7 54.7 L197.5 54.7 L199.3 55.1 L201.0 55.6 L205.4 58.1 L205.8 58.4 L207.2 60.2 L207.4 60.5 L207.4 60.9 L207.5 62.3 L207.6 62.6 L207.4 62.7 L207.6 63.1 L208.2 64.7 L208.5 65.6 L208.6 66.0 L208.8 66.3 L209.5 66.8 L209.7 67.1 L210.1 68.3 L210.4 68.7 L211.1 69.4 L211.2 69.6 L211.4 70.0 L211.4 70.1 L211.5 70.2 L211.9 70.5 L212.8 70.7 L214.4 71.4 L214.6 71.6 L214.7 72.4 L214.8 72.7 L215.3 73.5 L215.5 73.9 L215.5 74.2 L215.5 74.8 L215.6 75.1 L216.2 76.1 L216.3 76.6 L216.2 76.9 L216.0 77.3 L215.9 77.7 L216.0 78.1 L216.3 79.2 L216.5 79.7 L217.9 81.1 L218.2 81.2 L219.3 82.0 L221.5 83.3 L224.2 84.8 L227.4 86.5 L233.8 90.0 L236.5 91.5 L237.7 92.4 L239.8 94.7 L241.0 95.6 L243.1 96.8 L245.8 98.3 L248.9 100.1 L249.5 100.3 L250.1 100.4 L250.6 100.3 L252.1 99.7 L252.7 99.7 L253.2 99.9 L253.7 100.5 L254.8 101.6 L258.9 104.3 L261.4 105.4 L264.3 106.2 L265.6 106.9 L268.2 108.7 L270.0 110.0 L272.6 111.4 L274.6 112.5 L277.8 114.2 L279.1 114.5 L280.4 114.4 L280.9 114.2 L281.8 113.6 L282.4 113.4 L283.1 113.5 L285.0 114.2 L286.3 114.4 L286.8 114.6 L288.0 115.4 L289.3 115.6 L289.9 115.9 L290.5 116.3 L291.4 117.2 L293.4 117.9 L294.0 118.1 L295.5 118.1 L296.2 118.2 L296.9 118.5 L297.6 118.9 L297.6 118.9 L297.6 118.9 L297.8 119.4 L298.0 119.8 L297.3 120.9 L296.2 122.0 L295.5 123.0 L295.5 123.7 L295.6 125.3 L295.5 126.0 L295.1 127.4 L295.0 128.0 L295.3 128.6 L295.7 128.9 L296.0 129.1 L296.1 129.4 L295.8 129.8 L295.4 130.1 L295.1 130.5 L295.1 130.8 L295.5 131.1 L295.2 131.3 L294.9 131.5 L294.6 131.8 L294.4 131.9 L294.2 131.9 L294.0 131.8 L293.7 131.5 L293.5 131.4 L293.0 131.4 L291.7 131.8 L291.2 131.8 L290.8 131.5 L290.5 131.3 L290.3 131.2 L290.2 131.1 L290.0 131.1 L289.7 130.9 L289.5 130.9 L288.8 130.9 L288.6 130.9 L288.2 130.7 L287.9 130.4 L287.4 129.9 L287.0 129.6 L282.6 128.3 L282.3 128.1 L282.1 128.0 L282.0 127.8 L281.7 127.2 L281.5 127.1 L281.1 127.1 L280.8 127.0 L280.8 127.2 L280.7 127.7 L280.4 127.9 L279.6 127.9 L279.3 128.0 L279.0 128.1 L278.8 128.3 L278.6 128.6 L278.6 128.6 L278.6 128.6 L278.4 129.0 L278.2 129.4 L278.1 129.8 L278.2 130.7 L278.3 131.1 L278.2 131.5 L277.9 131.8 L277.4 132.2 L276.5 133.2 L275.8 133.5 L275.5 133.5 L267.3 133.7 L265.8 134.0 L262.3 135.6 L261.7 135.9 L261.4 136.4 L261.3 137.1 L261.7 138.6 L261.7 139.4 L261.5 140.0 L260.8 141.1 L258.7 144.2 L258.4 144.8 L258.1 145.5 L258.0 146.0 L258.0 146.3 L258.1 146.7 L258.4 147.5 L258.5 147.9 L258.4 148.7 L258.2 149.4 L257.8 150.0 L256.3 152.0 L255.9 152.3 L255.2 152.8 L254.6 153.0 L253.2 153.2 L252.8 153.3 L252.5 153.5 L252.3 153.7 L252.0 154.5 L251.8 154.7 L251.5 154.6 L251.2 154.5 L250.4 154.4 L249.7 154.5 L249.0 154.8 L247.7 155.6 L247.5 155.8 L247.3 156.1 L247.3 156.5 L247.5 157.4 L247.5 157.6 L245.6 157.1 L245.1 157.0 L244.8 157.0 L244.5 157.0 L243.9 157.2 L242.1 158.1 L241.3 158.2 L238.9 158.3 L238.5 158.4 L238.1 158.6 L237.9 158.8 L237.4 159.3 L237.1 159.5 L235.5 160.1 L233.8 160.4 L229.6 160.3 L229.2 160.4 L228.9 160.7 L228.8 161.0 L229.0 161.2 L229.1 161.5 L229.2 161.8 L229.4 162.1 L230.4 162.8 L230.6 163.1 L230.8 163.2 L231.2 163.4 L231.3 163.5 L231.3 163.6 L231.2 163.8 L230.7 164.1 L229.2 164.5 L228.7 164.9 L228.6 165.2 L228.7 166.2 L228.7 166.4 L229.1 166.6 L229.1 166.8 L228.9 167.5 L228.9 168.2 L228.7 168.5 L228.5 168.8 L228.1 168.9 L227.3 168.9 L226.9 169.0 L225.6 169.5 L223.8 170.6 L223.7 170.7 L222.5 171.2 L222.0 171.6 L221.8 171.9 L221.5 172.1 L221.2 172.2 L219.8 172.7 L219.5 172.8 L219.3 172.8 L218.8 172.6 L218.5 172.6 L218.4 172.6 L218.2 172.6 L217.9 172.5 L216.7 171.6 L216.1 171.6 L215.5 172.1 L213.6 174.2 L213.3 174.3 L213.1 174.1 L212.7 173.4 L212.6 173.1 L212.7 172.3 L212.6 172.0 L212.5 171.6 L212.3 171.3 L212.0 171.1 L210.9 170.7 L210.4 170.4 L208.4 168.8 L207.9 168.5 L207.3 168.3 L206.2 168.3 L203.8 168.9 L202.7 169.0 L200.1 168.7 L198.8 168.3 L197.9 167.4 L196.6 166.5 L196.5 166.4 L196.3 166.4 L196.1 166.4 L196.0 166.3 L195.8 166.2 L195.7 166.0 L195.7 165.9 L195.8 165.7 L195.8 165.6 L195.5 165.4 L195.4 165.4 L195.4 165.4 L195.2 165.2 L195.3 165.0 L195.3 165.0 L195.2 164.8 L195.0 164.8 L194.8 164.8 L193.8 164.9 L193.6 165.0 Z" fill="#172033" fill-rule="evenodd"/></svg>
