<svg xmlns="http://www.w3.org/2000/svg" viewBox="0 0 320 200" role="img"><path d="M203.5 113.3 L203.5 114.3 L202.9 116.3 L202.8 116.7 L202.8 117.9 L202.4 119.4 L202.6 121.7 L202.2 124.0 L202.3 125.2 L202.7 126.0 L204.2 127.3 L204.7 128.0 L204.8 129.0 L204.4 129.7 L203.9 130.0 L203.7 130.2 L202.1 131.1 L196.4 133.4 L189.6 136.2 L189.0 136.7 L188.1 138.5 L187.4 139.1 L186.6 139.5 L185.9 140.0 L185.5 140.1 L185.1 140.0 L184.7 139.8 L184.3 139.7 L183.8 140.2 L183.6 141.9 L183.3 142.7 L182.4 143.4 L182.0 144.2 L181.7 144.5 L181.4 144.8 L181.1 145.0 L179.9 145.4 L177.4 145.4 L176.3 146.2 L174.8 148.4 L173.4 149.8 L173.0 150.3 L172.8 151.7 L172.8 152.1 L174.5 155.8 L175.2 158.1 L175.8 159.4 L175.9 159.8 L175.8 160.6 L175.9 161.4 L176.4 162.9 L176.4 163.7 L176.0 164.6 L174.7 167.0 L172.7 169.0 L170.4 172.2 L167.7 175.2 L167.1 175.5 L165.5 175.6 L164.9 175.8 L160.0 178.0 L159.3 175.6 L158.7 173.2 L158.1 170.8 L157.5 168.4 L156.8 165.9 L156.2 163.5 L155.6 161.1 L155.0 158.7 L154.4 156.3 L153.7 153.9 L153.1 151.5 L152.5 149.1 L151.9 146.6 L151.2 144.2 L150.6 141.8 L150.0 139.4 L149.9 139.2 L149.5 137.6 L149.3 137.2 L149.0 136.9 L145.3 134.6 L140.7 131.8 L137.2 129.6 L134.5 128.2 L133.9 127.6 L133.9 127.6 L133.6 126.9 L133.4 124.6 L133.1 121.5 L132.8 120.8 L130.6 117.9 L128.5 115.2 L128.0 114.9 L127.6 115.0 L127.1 115.0 L126.7 114.9 L126.3 114.7 L123.8 113.2 L123.0 113.0 L122.0 112.9 L121.2 112.7 L120.6 112.2 L120.3 111.2 L120.2 108.3 L120.2 108.2 L119.9 107.3 L118.2 104.8 L116.8 102.8 L116.6 102.3 L116.4 101.1 L115.8 100.1 L115.6 99.7 L115.3 98.5 L115.2 97.7 L115.7 95.5 L115.8 93.8 L116.1 93.2 L116.5 92.8 L117.4 92.1 L118.0 91.5 L118.6 91.0 L119.4 90.6 L120.8 90.4 L121.2 90.2 L121.5 90.0 L121.7 89.6 L122.5 87.0 L122.9 86.2 L123.8 85.7 L125.7 85.0 L126.6 84.5 L128.7 83.7 L128.9 83.6 L129.8 82.9 L130.3 82.6 L130.5 82.5 L130.6 82.4 L130.7 82.0 L130.9 81.8 L131.7 81.4 L131.8 81.1 L131.3 80.4 L131.3 80.1 L131.6 79.7 L132.3 79.1 L132.3 79.1 L132.5 78.9 L132.5 78.6 L132.1 76.4 L132.1 75.6 L132.3 74.7 L132.8 73.5 L133.2 71.9 L133.5 71.2 L134.5 70.2 L135.9 68.5 L136.1 68.1 L135.3 67.6 L134.4 67.4 L133.6 67.1 L133.1 66.3 L132.9 65.4 L133.0 64.6 L133.2 63.8 L134.0 62.3 L134.0 61.6 L133.8 59.8 L133.7 59.1 L133.4 58.4 L132.3 57.0 L132.0 56.2 L131.9 55.3 L132.1 53.5 L132.5 52.1 L132.6 51.9 L132.7 50.7 L133.1 49.1 L133.4 48.7 L133.6 48.3 L133.5 47.9 L133.4 47.5 L133.3 47.1 L133.4 46.1 L134.4 43.8 L134.4 43.7 L134.5 43.4 L134.5 42.5 L134.5 42.1 L134.3 41.7 L134.0 41.5 L133.5 41.4 L133.1 41.2 L131.2 41.0 L130.3 40.7 L130.3 40.7 L130.4 40.0 L130.9 39.5 L131.5 39.1 L132.9 38.7 L135.6 37.4 L136.1 37.0 L136.6 36.2 L136.8 35.4 L136.3 35.0 L135.6 34.7 L135.7 34.3 L136.4 34.0 L137.2 34.0 L138.0 34.0 L138.8 33.9 L140.3 33.4 L140.7 33.2 L140.7 32.9 L140.0 32.0 L139.9 31.7 L139.9 31.5 L139.8 30.9 L140.3 30.8 L141.8 30.2 L142.3 30.2 L144.2 30.2 L144.7 30.0 L145.6 29.4 L146.3 29.2 L146.4 29.1 L146.9 28.7 L147.6 28.0 L148.3 27.0 L148.6 26.8 L148.8 26.8 L149.4 26.2 L149.6 26.1 L150.3 25.9 L152.0 25.3 L152.3 25.2 L152.8 24.6 L153.2 24.4 L156.1 24.4 L156.9 24.1 L157.4 23.7 L157.7 23.5 L158.0 23.6 L158.3 23.7 L158.5 23.7 L158.7 23.6 L159.4 23.5 L159.9 23.3 L160.4 23.0 L160.7 22.8 L161.1 23.0 L161.5 22.9 L162.3 22.5 L162.8 22.3 L163.2 22.2 L164.1 22.2 L164.6 22.0 L164.9 22.0 L165.1 22.1 L165.3 22.3 L165.5 22.3 L167.4 22.4 L167.4 22.4 L167.4 22.6 L167.4 23.6 L166.8 24.1 L165.9 24.3 L165.5 24.9 L165.5 25.1 L165.9 25.7 L166.0 25.8 L166.1 25.9 L166.3 26.2 L166.4 26.2 L167.4 26.3 L167.8 26.3 L168.3 26.0 L168.6 25.7 L168.8 25.3 L168.8 24.9 L167.4 24.4 L167.2 24.5 L166.8 24.6 L166.5 24.6 L166.5 24.4 L167.1 24.1 L167.3 24.1 L167.4 24.0 L167.5 23.9 L167.6 23.8 L167.9 23.8 L170.0 24.2 L170.4 24.1 L171.6 23.7 L171.8 23.8 L172.1 24.2 L173.7 24.4 L174.4 24.9 L176.0 25.4 L176.4 25.7 L175.7 25.8 L175.4 25.9 L175.1 26.1 L175.0 25.7 L174.4 25.7 L173.7 25.8 L173.3 26.1 L173.4 26.4 L174.0 26.6 L174.7 26.6 L175.1 26.6 L175.3 26.7 L175.5 27.0 L175.5 27.2 L175.4 27.5 L175.2 27.1 L174.3 27.9 L174.5 29.0 L175.3 30.1 L176.3 30.9 L177.1 31.2 L177.4 31.4 L177.9 31.9 L178.1 32.2 L178.0 32.4 L177.5 32.9 L177.3 33.3 L177.0 33.5 L176.7 33.5 L176.4 33.3 L176.6 33.0 L176.4 32.9 L176.0 32.9 L175.3 33.1 L175.1 33.3 L174.7 33.7 L174.6 34.0 L174.9 34.1 L175.6 34.1 L175.9 34.3 L176.0 34.1 L176.1 34.1 L176.4 33.6 L176.9 34.4 L177.5 35.1 L178.3 35.5 L179.3 35.6 L179.6 35.5 L180.1 35.5 L181.2 35.1 L181.8 34.9 L182.3 34.6 L182.4 34.0 L182.6 33.4 L182.9 32.6 L183.3 32.3 L183.8 32.2 L184.8 32.3 L185.7 32.1 L186.6 31.9 L187.6 31.2 L188.3 30.7 L188.5 30.6 L188.6 30.4 L188.7 30.3 L189.9 29.4 L190.1 29.3 L190.2 29.0 L190.1 28.9 L190.1 28.7 L190.3 28.5 L190.7 28.3 L191.8 28.2 L192.7 27.7 L193.1 27.6 L193.5 27.8 L193.7 28.2 L193.7 28.4 L193.5 28.6 L193.4 28.9 L193.5 29.1 L193.7 29.4 L193.7 29.6 L193.8 29.8 L194.2 30.2 L194.3 30.5 L194.4 30.7 L194.4 31.1 L194.5 31.4 L194.6 31.5 L194.7 31.7 L194.9 31.9 L195.0 32.0 L195.1 32.1 L195.4 32.4 L195.3 32.8 L195.0 33.1 L194.1 33.4 L192.9 34.2 L192.2 35.2 L191.3 36.3 L189.8 38.6 L188.6 41.0 L188.0 41.6 L186.2 42.0 L184.1 42.9 L183.3 42.8 L182.6 43.2 L181.9 44.1 L181.5 44.9 L181.2 45.8 L181.0 46.7 L180.9 47.9 L180.9 49.0 L181.0 49.7 L181.3 50.5 L181.4 50.9 L181.5 51.0 L181.6 51.2 L181.8 51.7 L181.8 51.9 L182.3 52.5 L182.7 52.8 L183.0 53.0 L183.2 53.2 L183.8 54.6 L184.1 54.9 L185.6 56.1 L185.7 56.1 L186.1 56.3 L186.8 56.5 L188.1 56.2 L188.3 56.2 L188.5 56.3 L188.9 56.6 L188.7 56.9 L188.6 57.3 L188.7 57.8 L188.9 58.1 L189.8 58.4 L191.8 59.1 L192.7 59.0 L193.3 59.4 L193.6 59.9 L192.8 60.2 L192.7 60.7 L192.7 61.1 L192.7 61.2 L192.9 61.7 L193.3 62.0 L194.3 62.3 L193.7 62.7 L193.5 63.3 L193.4 63.9 L193.5 64.8 L193.2 65.3 L193.3 66.1 L193.8 66.8 L194.6 67.6 L195.1 67.9 L195.6 68.1 L195.9 68.2 L195.9 68.6 L195.3 68.6 L194.8 68.9 L194.4 69.6 L193.8 70.0 L193.5 70.5 L193.2 71.1 L192.7 71.4 L192.9 72.0 L192.8 72.7 L192.1 73.4 L191.2 73.8 L190.6 74.3 L190.8 74.9 L190.6 75.3 L190.6 76.2 L189.7 76.7 L189.5 76.9 L189.3 77.0 L189.3 77.1 L189.5 77.6 L189.6 77.9 L188.8 78.2 L188.3 78.5 L187.6 79.1 L187.2 79.7 L186.8 80.0 L186.6 80.4 L186.2 80.8 L185.8 81.0 L184.4 81.3 L184.2 81.5 L184.1 81.6 L184.1 81.8 L184.0 82.1 L183.8 82.3 L183.8 82.8 L183.6 83.0 L183.6 83.4 L183.2 83.7 L182.7 83.9 L180.7 84.1 L179.9 84.5 L178.8 86.1 L177.7 86.3 L177.5 86.3 L177.3 86.2 L177.1 86.2 L176.8 86.3 L176.7 86.4 L176.6 86.5 L176.1 87.0 L175.9 87.2 L175.6 87.2 L174.6 87.6 L174.1 87.9 L173.3 88.2 L172.7 88.7 L172.4 89.3 L171.7 90.7 L171.2 91.3 L170.9 91.4 L170.7 91.5 L170.7 91.5 L170.6 91.6 L170.8 92.0 L170.9 92.4 L170.9 93.3 L171.0 93.7 L171.3 94.6 L171.3 95.0 L171.5 95.7 L172.0 96.5 L174.1 98.9 L174.3 99.1 L174.6 99.2 L177.7 101.8 L178.5 102.3 L180.3 102.9 L180.6 102.9 L181.2 103.1 L182.7 102.9 L184.4 102.5 L185.8 101.9 L186.2 101.8 L186.7 102.5 L186.6 104.0 L186.0 104.5 L185.6 104.6 L185.4 104.9 L185.3 105.3 L185.4 105.6 L185.9 106.4 L186.2 106.7 L186.7 106.8 L187.6 106.6 L189.2 105.8 L190.0 105.6 L190.4 105.4 L190.8 105.1 L190.9 104.7 L190.8 104.3 L190.4 103.9 L190.4 103.7 L191.0 103.3 L191.3 103.5 L191.5 103.5 L191.8 103.4 L191.9 103.2 L192.1 103.2 L192.4 103.4 L193.3 103.7 L193.7 103.9 L194.0 104.2 L194.8 105.2 L194.8 105.4 L195.0 106.5 L194.4 107.3 L194.8 108.6 L194.6 109.3 L195.3 109.1 L195.7 109.5 L196.1 110.0 L196.7 110.2 L197.2 110.3 L198.3 110.8 L198.8 111.0 L198.7 111.1 L198.6 111.1 L198.5 111.1 L196.4 110.5 L195.3 110.4 L195.1 111.1 L195.3 111.4 L195.6 111.6 L196.0 111.9 L196.1 112.4 L196.3 112.6 L196.8 112.6 L197.8 112.5 L198.7 112.6 L200.6 113.2 L201.5 113.2 L201.9 113.0 L201.8 112.7 L201.4 112.5 L201.0 112.3 L200.8 112.2 L200.5 111.9 L200.1 111.6 L202.1 112.8 L203.3 113.2 L203.5 113.3 L203.5 113.3 Z M192.2 98.8 L192.6 99.0 L193.1 99.2 L193.5 99.4 L193.7 99.7 L192.3 100.8 L191.9 101.0 L191.8 101.1 L191.7 101.2 L191.5 102.0 L191.3 102.0 L191.4 101.4 L191.5 101.2 L191.1 101.3 L190.8 102.0 L190.4 102.5 L190.1 102.8 L189.9 103.2 L189.6 102.9 L189.6 102.5 L189.7 102.2 L189.3 101.7 L188.9 101.5 L188.6 101.3 L188.2 101.2 L187.8 101.5 L187.6 101.8 L187.2 101.9 L186.7 101.6 L186.6 101.2 L186.4 100.6 L186.4 100.1 L186.9 99.4 L186.6 98.5 L186.6 97.9 L187.4 97.6 L189.2 97.9 L190.2 98.0 L190.9 97.6 L191.5 98.3 L192.2 98.8 Z" fill="#172033" fill-rule="evenodd"/></svg>
