<svg xmlns="http://www.w3.org/2000/svg" viewBox="0 0 320 200" role="img"><path d="M248.4 113.5 L250.9 128.3 L250.7 134.3 L248.4 149.0 L248.7 174.0 L246.2 178.0 L240.0 174.5 L237.5 168.5 L232.4 163.6 L221.0 155.5 L221.0 152.8 L222.5 152.2 L226.4 150.0 L224.1 145.7 L223.7 140.3 L225.7 135.7 L233.6 132.4 L236.2 129.4 L240.0 122.8 L240.9 120.4 L243.9 114.4 L246.9 110.4 L248.4 113.5 Z M188.3 46.4 L192.7 49.5 L194.2 52.6 L193.8 58.8 L190.3 62.3 L167.7 78.0 L166.3 81.4 L166.9 85.6 L168.3 90.1 L169.0 94.3 L167.6 99.0 L164.0 101.8 L159.5 103.1 L155.2 103.8 L146.6 102.0 L142.5 98.7 L136.2 87.2 L130.9 82.5 L111.9 73.6 L108.9 76.6 L99.1 71.1 L93.4 69.1 L88.5 68.2 L84.7 66.2 L74.8 53.3 L69.1 42.5 L72.9 32.8 L82.1 25.4 L92.6 22.0 L87.7 27.7 L81.4 32.8 L78.7 38.0 L84.5 43.7 L88.8 45.4 L92.3 45.5 L114.9 41.4 L118.6 42.4 L121.6 44.6 L124.7 46.4 L127.3 48.9 L128.2 53.3 L122.3 56.9 L119.5 60.2 L121.2 64.2 L125.4 65.8 L129.4 64.1 L133.4 61.4 L137.5 60.1 L142.4 60.8 L149.5 64.5 L152.7 65.5 L158.6 64.1 L161.0 60.0 L163.3 54.5 L169.0 49.2 L173.1 47.4 L178.3 46.0 L183.6 45.5 L188.3 46.4 Z" fill="#172033" fill-rule="evenodd"/></svg>
