<svg xmlns="http://www.w3.org/2000/svg" viewBox="0 0 320 200" role="img"><path d="M277.9 68.4 L277.8 68.8 L278.0 69.2 L278.2 69.7 L278.5 69.9 L279.1 69.9 L279.7 70.2 L280.3 70.5 L280.8 71.0 L281.0 71.3 L281.0 71.5 L281.1 71.8 L281.1 72.2 L281.3 72.5 L281.9 73.2 L282.0 73.5 L282.1 73.7 L282.2 74.7 L282.1 74.9 L281.8 75.3 L281.7 75.4 L281.8 75.7 L281.2 76.3 L281.0 76.6 L281.0 76.9 L280.9 76.9 L280.9 76.8 L280.8 76.8 L280.7 76.8 L280.8 76.9 L280.8 76.9 L280.8 77.0 L280.5 77.0 L280.2 77.2 L279.7 77.7 L279.7 77.9 L280.0 78.1 L280.6 78.5 L280.6 78.6 L280.6 78.7 L280.4 79.2 L280.3 79.4 L280.2 79.6 L280.3 79.9 L280.7 80.1 L281.4 80.8 L281.6 81.2 L281.6 81.2 L281.3 81.4 L281.5 81.6 L281.9 82.0 L282.0 82.2 L281.9 82.4 L281.2 82.5 L281.0 82.7 L281.2 83.1 L281.9 83.4 L283.2 83.7 L284.8 84.3 L286.6 84.6 L286.8 84.5 L287.4 84.2 L287.7 84.2 L287.8 84.2 L288.0 84.3 L288.1 84.4 L288.3 84.4 L288.6 84.3 L289.0 84.2 L289.9 84.1 L290.4 84.1 L290.9 84.2 L291.7 84.6 L293.0 85.1 L293.8 85.7 L294.2 86.0 L294.4 86.2 L294.4 86.4 L294.5 86.6 L294.6 86.7 L294.8 86.8 L294.9 86.9 L294.9 87.1 L294.9 87.2 L295.1 87.1 L295.7 87.6 L295.9 87.7 L296.0 87.7 L296.2 87.7 L296.2 87.7 L296.3 87.7 L296.4 87.9 L297.3 88.8 L297.5 89.1 L297.7 89.3 L297.8 89.8 L298.0 90.0 L296.8 89.3 L296.5 89.1 L295.6 88.8 L295.4 88.6 L295.0 88.2 L294.8 88.1 L294.5 88.1 L292.9 89.1 L292.8 89.3 L292.9 89.8 L292.9 90.0 L292.9 90.0 L292.8 90.2 L292.3 91.0 L292.2 91.2 L292.2 91.4 L292.2 91.6 L292.3 91.8 L292.3 92.0 L292.1 92.1 L292.1 92.1 L292.0 92.5 L292.1 92.7 L292.1 93.0 L291.8 93.3 L291.6 93.5 L290.8 93.7 L290.5 93.8 L290.1 93.8 L289.1 93.4 L288.7 93.4 L287.9 93.5 L287.6 93.5 L287.3 93.5 L287.0 93.5 L286.8 93.6 L286.5 93.7 L286.4 93.9 L286.4 94.1 L286.8 94.4 L286.8 94.4 L286.9 94.6 L287.0 94.9 L287.2 95.2 L287.2 95.3 L287.1 95.4 L287.1 95.5 L287.2 95.6 L287.4 95.9 L287.4 96.1 L287.3 96.3 L287.3 96.5 L287.7 96.7 L288.3 97.0 L288.9 97.3 L289.0 97.6 L288.7 98.1 L288.6 98.3 L288.8 98.9 L288.6 99.1 L288.4 99.2 L288.2 99.5 L288.2 99.5 L288.3 99.6 L288.3 99.7 L288.4 99.9 L288.5 100.0 L288.6 100.1 L288.7 100.2 L288.7 100.3 L288.7 100.5 L288.8 100.6 L288.8 100.7 L289.0 101.0 L289.2 101.2 L289.4 101.4 L290.2 101.7 L290.2 102.1 L289.9 103.2 L289.8 103.5 L289.8 103.7 L289.9 103.9 L290.0 104.1 L289.9 104.2 L289.8 104.3 L289.7 104.4 L289.9 104.5 L290.2 104.6 L290.3 104.6 L290.4 104.7 L290.5 105.0 L290.5 105.3 L290.4 105.8 L290.6 106.6 L290.5 106.8 L290.4 107.4 L290.4 107.6 L290.4 108.0 L290.4 108.1 L290.3 108.4 L290.4 108.5 L290.5 108.6 L290.7 108.6 L291.5 108.7 L292.0 108.5 L292.1 108.5 L292.4 108.6 L292.6 108.7 L292.8 108.9 L292.9 109.1 L292.9 109.4 L292.6 109.7 L292.0 110.1 L291.6 110.4 L291.7 111.1 L291.6 111.4 L291.5 111.7 L291.4 111.9 L291.3 112.0 L291.1 112.1 L290.9 112.2 L290.9 112.3 L291.0 112.6 L291.0 112.7 L290.7 112.8 L290.5 112.9 L290.3 113.1 L290.2 113.4 L290.1 113.7 L289.7 114.0 L289.6 114.2 L289.6 114.2 L289.5 114.4 L289.4 114.6 L289.4 114.7 L289.4 115.0 L289.5 115.1 L289.3 115.3 L289.2 115.5 L289.1 115.5 L289.1 115.6 L289.4 115.9 L289.9 116.0 L290.8 115.9 L291.0 116.0 L291.5 116.2 L291.7 116.2 L291.8 116.4 L291.8 116.6 L291.9 116.7 L292.1 116.9 L292.2 116.9 L292.3 116.9 L292.4 116.9 L292.5 117.0 L292.5 117.0 L292.5 117.3 L292.4 117.3 L292.6 117.5 L292.8 117.5 L293.0 117.5 L293.2 117.4 L293.6 117.3 L294.0 117.5 L294.4 117.7 L294.9 118.3 L294.9 118.4 L294.8 118.6 L294.3 118.9 L294.2 119.1 L294.1 119.5 L294.4 119.8 L294.7 120.0 L294.8 120.2 L294.6 120.5 L294.5 120.9 L294.5 121.2 L294.6 121.5 L294.6 121.5 L294.7 121.8 L294.5 122.2 L294.5 122.5 L294.7 122.6 L295.3 122.6 L295.5 122.7 L295.7 123.2 L295.9 123.3 L296.4 123.2 L296.5 123.4 L296.6 123.6 L296.7 123.8 L297.6 124.2 L297.9 124.5 L297.9 125.0 L297.7 125.2 L297.5 125.3 L297.3 125.4 L297.2 125.6 L297.3 125.9 L297.4 126.2 L297.5 126.4 L297.4 126.7 L297.2 126.5 L296.9 126.3 L295.4 126.2 L295.1 126.2 L294.6 126.4 L294.1 126.7 L293.5 127.1 L293.2 127.5 L292.8 127.7 L292.4 127.9 L291.2 128.2 L291.1 128.3 L291.0 128.6 L290.8 128.9 L290.8 128.9 L290.8 128.9 L290.8 128.9 L290.6 129.1 L290.5 129.2 L290.3 129.3 L289.7 129.1 L289.6 129.0 L289.5 128.9 L288.9 127.8 L288.8 127.5 L288.8 127.2 L288.9 126.9 L289.2 126.6 L289.4 126.6 L289.5 126.5 L289.7 126.5 L289.8 126.3 L289.8 126.2 L289.8 126.0 L289.7 125.7 L289.6 125.3 L289.4 125.1 L289.2 124.9 L288.8 124.7 L287.4 124.2 L287.2 124.2 L286.7 124.1 L286.0 124.2 L285.5 124.6 L285.0 125.1 L284.6 125.5 L283.8 125.6 L283.5 125.8 L283.3 125.9 L283.2 125.8 L282.9 125.6 L282.8 125.5 L282.4 125.4 L282.0 125.4 L280.5 125.5 L280.2 125.4 L279.8 125.3 L279.5 125.1 L279.4 125.1 L279.2 125.1 L279.0 125.1 L278.7 125.2 L278.5 125.2 L278.2 125.1 L277.6 124.7 L277.0 124.5 L276.8 124.3 L276.4 124.1 L276.2 124.1 L275.9 124.1 L275.8 124.1 L275.7 124.3 L275.5 124.3 L275.4 124.3 L275.3 124.2 L273.4 123.4 L273.1 123.3 L272.7 123.4 L272.1 123.5 L271.5 123.7 L271.1 123.9 L270.5 124.1 L269.9 124.0 L268.7 123.7 L268.6 123.6 L268.5 123.4 L268.4 123.3 L268.2 123.3 L268.1 123.3 L267.4 123.5 L267.3 123.6 L267.2 123.7 L267.1 123.8 L267.1 123.9 L267.1 124.0 L265.2 126.2 L265.0 126.6 L265.0 126.6 L264.7 126.7 L263.5 126.9 L262.6 127.1 L262.0 127.2 L262.0 126.8 L261.9 126.6 L261.8 126.5 L261.7 126.3 L261.9 125.5 L261.8 125.3 L261.7 125.2 L261.2 124.9 L261.2 124.8 L261.1 124.7 L261.0 124.6 L260.9 124.6 L260.8 124.7 L260.7 124.7 L260.7 124.8 L260.2 124.6 L260.0 124.6 L260.0 124.5 L260.0 124.4 L260.0 124.2 L259.8 124.0 L259.6 124.2 L259.4 124.3 L258.6 125.1 L257.5 125.9 L256.9 126.2 L255.2 126.5 L249.1 127.7 L245.0 127.8 L244.7 127.8 L244.0 127.6 L240.5 127.0 L237.8 127.3 L237.0 127.6 L235.1 128.4 L234.4 128.6 L234.0 128.6 L233.7 128.6 L233.4 128.7 L233.1 128.9 L231.2 129.9 L230.1 130.5 L229.6 130.7 L229.0 130.8 L228.5 130.9 L227.0 131.6 L223.9 132.6 L219.1 133.3 L216.2 133.8 L215.4 133.8 L213.1 133.2 L212.3 133.2 L212.0 133.3 L209.6 133.4 L208.6 133.3 L207.7 132.9 L207.3 132.6 L205.7 131.2 L205.0 130.9 L202.2 130.2 L201.2 130.2 L200.7 130.2 L199.7 130.5 L198.3 131.2 L198.0 131.4 L197.6 131.5 L195.3 132.3 L192.8 132.7 L192.0 133.1 L189.8 134.2 L189.2 134.2 L186.8 133.8 L186.5 133.8 L185.5 134.0 L185.2 134.0 L185.0 134.0 L184.8 133.9 L184.5 134.0 L184.3 134.2 L184.1 134.4 L184.0 134.4 L183.7 134.3 L183.4 134.1 L183.4 133.9 L183.5 133.4 L183.5 133.1 L183.4 132.9 L182.9 132.6 L182.7 132.4 L182.4 132.3 L182.1 132.2 L181.9 132.1 L180.9 132.1 L178.2 131.3 L178.2 131.3 L178.1 131.3 L177.9 131.3 L178.0 131.7 L177.8 132.0 L177.6 132.2 L177.4 132.5 L177.3 132.9 L177.3 133.1 L177.3 133.4 L177.1 133.8 L176.9 134.4 L176.9 135.0 L176.8 135.7 L176.4 136.2 L176.3 136.5 L176.4 136.7 L176.7 137.5 L176.7 137.6 L176.8 137.7 L177.1 137.8 L177.1 137.8 L177.2 137.9 L177.2 138.0 L177.3 138.1 L177.3 138.3 L177.2 138.5 L177.1 138.6 L177.0 138.6 L177.2 138.7 L177.7 138.8 L177.9 138.8 L178.1 139.0 L178.1 139.0 L178.2 139.2 L178.3 139.5 L178.4 139.7 L178.4 140.0 L178.3 140.1 L177.2 140.3 L177.0 140.3 L175.9 140.2 L175.6 140.2 L175.4 140.2 L175.4 140.3 L175.3 140.4 L175.3 140.5 L175.2 140.6 L175.1 140.6 L175.0 140.5 L174.6 140.5 L174.4 140.4 L174.2 140.3 L174.0 140.2 L173.8 140.3 L174.0 140.5 L174.0 140.6 L173.9 140.7 L173.8 140.8 L173.8 141.1 L173.8 143.2 L173.8 143.6 L173.5 143.7 L172.9 143.5 L172.6 143.6 L172.6 143.6 L172.5 144.1 L172.2 144.2 L171.9 144.1 L171.4 144.2 L171.1 144.6 L171.0 145.7 L170.8 146.1 L170.8 146.1 L170.6 146.2 L169.7 145.6 L169.3 145.5 L168.8 145.5 L168.6 145.4 L168.4 145.3 L168.4 145.1 L168.4 144.9 L168.4 144.8 L168.2 144.6 L167.9 144.6 L167.7 144.7 L167.4 144.8 L167.2 144.7 L167.2 144.7 L167.4 144.5 L168.0 143.6 L168.2 143.5 L168.2 143.2 L167.8 142.2 L166.7 140.8 L166.5 140.6 L166.4 140.4 L166.2 139.9 L166.0 139.7 L165.7 139.5 L165.6 139.4 L165.4 139.0 L165.4 138.8 L165.8 138.3 L165.9 138.2 L166.1 138.1 L166.2 138.1 L166.4 138.1 L166.5 138.0 L166.7 137.7 L166.8 137.6 L167.0 137.4 L167.2 137.4 L167.3 137.2 L167.3 136.9 L167.5 136.8 L167.6 136.8 L167.7 136.7 L168.3 136.5 L168.4 136.5 L169.1 135.8 L169.2 135.6 L169.3 135.6 L170.9 134.8 L171.2 134.7 L171.3 134.6 L171.5 134.4 L171.6 134.1 L171.7 133.8 L171.7 133.6 L171.6 133.5 L171.6 133.4 L171.5 133.2 L171.5 133.1 L171.5 132.2 L171.4 132.0 L171.3 131.7 L170.4 130.7 L169.9 130.3 L169.4 130.0 L168.8 129.9 L168.3 130.0 L167.8 130.4 L167.0 131.2 L166.8 131.4 L166.5 131.4 L166.4 131.5 L165.9 132.0 L165.7 132.1 L165.1 132.2 L163.9 132.3 L163.3 132.4 L163.2 132.6 L163.0 132.8 L162.8 132.9 L162.9 132.8 L162.9 132.7 L162.9 132.7 L162.7 132.6 L162.6 132.8 L162.4 133.0 L162.2 133.2 L162.3 133.4 L162.6 133.2 L162.9 133.3 L162.9 133.0 L163.0 133.1 L163.1 133.1 L163.1 133.2 L163.1 133.2 L163.2 133.1 L163.2 133.0 L163.2 132.9 L163.1 132.8 L163.4 132.7 L163.4 132.8 L163.5 133.0 L163.6 133.0 L163.8 133.0 L163.9 132.9 L164.1 132.9 L164.2 132.9 L163.4 133.2 L163.0 133.5 L162.7 133.8 L162.8 134.0 L163.0 133.9 L163.6 133.3 L163.8 133.2 L164.0 133.1 L163.5 133.6 L163.4 133.7 L163.3 134.0 L163.2 134.1 L163.1 134.2 L163.1 134.4 L163.1 134.6 L163.0 134.6 L162.8 134.7 L162.6 134.8 L162.5 134.8 L162.0 134.9 L161.8 134.8 L161.4 134.5 L161.2 134.4 L161.0 134.5 L160.9 134.6 L160.9 134.7 L161.0 134.7 L161.1 134.8 L161.6 134.9 L161.0 134.8 L160.4 134.7 L160.3 134.8 L159.9 134.9 L159.8 135.0 L159.8 135.1 L159.6 135.2 L159.3 135.2 L158.9 135.5 L158.9 135.6 L158.8 135.5 L158.5 135.2 L158.4 135.1 L158.2 135.1 L154.4 133.3 L154.0 133.2 L153.6 132.9 L153.3 132.8 L153.0 132.8 L152.8 132.8 L152.8 132.8 L152.6 132.9 L152.4 132.9 L152.4 132.9 L152.5 132.6 L152.3 132.5 L151.7 132.0 L150.5 131.5 L150.4 131.6 L149.9 131.4 L149.3 131.5 L148.3 131.9 L147.9 132.0 L147.7 132.0 L147.3 132.2 L147.2 132.3 L147.0 132.6 L147.0 132.6 L146.5 132.8 L145.2 133.8 L143.6 134.6 L143.2 134.9 L141.9 136.2 L141.8 136.4 L141.7 136.5 L141.6 136.6 L141.3 136.8 L140.8 137.2 L140.3 137.4 L140.2 137.8 L140.3 138.3 L140.3 138.7 L140.0 138.9 L139.5 138.9 L139.1 139.1 L139.0 139.4 L139.0 139.3 L139.1 139.3 L139.1 139.4 L138.8 139.7 L138.7 139.9 L138.6 140.1 L138.6 140.3 L138.5 140.4 L138.3 140.4 L138.3 140.3 L138.4 140.0 L138.3 139.6 L138.1 139.2 L137.8 139.1 L137.6 139.0 L137.4 138.9 L137.2 138.9 L137.0 139.0 L136.7 139.4 L136.6 139.5 L136.3 139.6 L136.5 139.6 L136.5 139.6 L136.5 139.7 L136.4 139.8 L136.2 140.1 L136.0 140.2 L135.8 140.2 L135.3 140.4 L135.2 140.4 L134.8 140.8 L134.7 141.0 L134.6 141.4 L134.5 141.5 L134.5 141.4 L134.1 140.9 L134.1 140.7 L133.9 140.7 L133.7 140.7 L133.5 140.8 L133.2 141.0 L132.9 141.4 L132.5 141.6 L132.2 141.6 L132.4 141.5 L132.4 141.4 L132.1 141.3 L131.5 141.2 L131.2 141.2 L130.8 141.2 L130.3 141.4 L130.1 141.5 L129.5 141.3 L129.2 141.3 L129.0 141.6 L128.6 141.6 L128.0 141.6 L127.5 141.7 L127.4 141.7 L127.2 141.7 L126.9 141.5 L126.7 141.5 L126.4 141.6 L126.2 141.8 L126.1 142.0 L125.9 142.2 L125.7 142.3 L125.7 142.3 L125.6 142.2 L125.5 142.2 L125.3 142.2 L124.8 142.2 L123.8 142.0 L123.6 142.0 L122.6 142.4 L122.4 142.4 L122.3 142.6 L121.5 143.1 L120.9 143.1 L119.6 142.8 L119.0 142.6 L118.1 142.1 L118.1 142.1 L117.5 142.1 L117.3 142.0 L116.1 141.5 L116.0 141.3 L115.9 141.2 L115.6 141.1 L115.3 141.0 L115.1 140.9 L114.4 140.1 L114.3 140.1 L114.2 140.1 L113.9 139.9 L113.9 139.8 L113.8 139.4 L113.8 139.3 L113.4 138.9 L112.5 138.2 L112.4 137.8 L112.3 137.7 L112.3 137.6 L112.1 137.4 L111.9 137.2 L111.9 137.1 L111.7 137.1 L111.7 137.1 L111.4 136.6 L111.2 136.4 L111.0 136.3 L110.1 135.5 L110.0 135.5 L109.9 135.5 L109.7 135.5 L109.5 135.4 L109.4 135.4 L109.3 135.3 L109.3 135.2 L108.7 135.3 L108.4 135.2 L108.2 135.1 L108.1 135.0 L107.7 134.9 L107.3 134.8 L107.0 134.8 L106.9 134.7 L106.3 134.5 L106.0 134.2 L105.8 134.1 L105.7 134.1 L105.4 134.0 L104.2 133.6 L104.0 133.5 L103.8 133.3 L101.0 132.3 L100.6 132.2 L100.6 131.9 L100.0 131.6 L94.1 130.9 L91.7 131.0 L91.3 130.9 L91.0 130.8 L90.4 130.4 L89.6 130.9 L89.2 131.2 L89.0 131.6 L88.8 131.9 L88.7 132.0 L88.7 132.5 L88.6 133.0 L88.6 133.2 L88.8 133.4 L88.8 133.5 L88.7 133.6 L88.6 133.8 L88.5 133.9 L88.5 134.1 L88.5 134.4 L88.6 134.5 L88.7 134.7 L88.8 134.8 L88.9 134.7 L88.9 135.0 L88.7 135.6 L88.7 135.7 L88.2 136.1 L88.0 136.3 L87.8 136.8 L87.5 137.2 L87.5 137.4 L87.3 137.6 L87.3 137.9 L87.5 138.1 L87.7 138.2 L87.6 138.4 L88.0 138.5 L87.8 138.7 L87.4 139.0 L87.2 139.3 L87.3 139.3 L87.3 139.2 L87.4 139.2 L87.4 139.2 L87.5 139.3 L87.3 139.4 L87.1 139.5 L87.0 139.7 L86.8 140.0 L86.6 140.2 L86.2 140.5 L86.2 139.9 L86.1 139.6 L86.0 139.5 L85.6 139.6 L84.1 139.0 L83.8 139.0 L82.6 139.1 L82.5 139.2 L82.5 139.5 L82.4 139.8 L82.4 139.8 L82.3 139.7 L82.2 139.5 L82.2 139.8 L82.2 139.9 L81.9 139.8 L82.0 139.9 L81.9 140.0 L81.4 139.9 L81.3 139.8 L81.2 139.7 L81.0 139.7 L80.8 139.8 L81.1 139.8 L81.1 139.9 L80.1 140.3 L79.9 140.3 L79.7 140.4 L79.6 140.4 L79.4 140.3 L79.2 140.3 L79.1 140.3 L79.0 140.3 L78.8 140.5 L78.6 140.6 L78.0 140.7 L77.8 140.8 L77.9 140.8 L77.9 140.8 L77.9 140.8 L77.9 140.9 L77.8 140.9 L77.4 141.0 L77.4 141.1 L77.7 141.1 L77.5 141.2 L77.3 141.4 L77.1 141.5 L76.8 141.5 L76.8 141.4 L76.9 141.3 L76.9 141.3 L77.0 141.2 L77.0 141.2 L76.8 141.2 L76.8 141.2 L76.7 141.3 L76.5 141.1 L76.4 141.1 L76.2 141.1 L76.0 141.2 L76.0 141.2 L76.0 141.3 L75.9 141.4 L75.7 141.4 L75.7 141.4 L75.5 141.7 L75.4 141.4 L74.9 141.2 L74.8 140.9 L75.0 141.0 L75.1 140.9 L75.1 140.8 L74.9 140.7 L74.2 140.8 L74.2 140.7 L74.3 140.6 L74.5 140.6 L74.6 140.6 L74.8 140.6 L74.5 140.5 L73.3 140.5 L72.9 140.4 L72.0 140.0 L71.8 140.1 L71.7 140.0 L71.7 139.6 L71.6 139.7 L71.5 139.7 L71.5 139.6 L71.4 139.6 L71.2 139.6 L71.2 139.7 L71.1 139.7 L71.1 139.8 L71.0 139.9 L70.9 140.0 L70.9 140.0 L70.8 140.1 L70.6 140.0 L70.5 139.9 L70.5 139.8 L70.4 139.9 L69.5 139.2 L69.4 139.1 L69.3 138.9 L69.1 138.7 L68.2 138.5 L67.9 138.3 L67.7 138.4 L67.7 138.2 L67.7 138.1 L67.7 138.1 L67.7 138.0 L67.3 138.0 L67.4 137.9 L67.3 137.8 L67.2 137.8 L67.0 137.8 L67.1 137.6 L67.2 137.5 L67.4 137.5 L67.5 137.5 L67.5 137.4 L67.5 137.4 L67.5 137.4 L67.4 137.4 L67.5 137.1 L67.4 136.8 L67.3 136.6 L67.0 136.5 L67.0 136.5 L67.2 136.3 L67.3 136.3 L67.4 136.3 L67.4 136.1 L67.4 135.6 L67.3 135.4 L67.1 135.5 L67.0 135.5 L66.9 135.3 L66.2 135.5 L65.8 135.5 L66.1 135.4 L66.2 135.3 L66.1 135.1 L65.9 134.8 L66.0 134.7 L66.1 134.5 L66.2 134.3 L66.4 134.5 L66.6 134.3 L66.8 134.1 L67.0 134.0 L67.0 134.1 L66.9 134.3 L67.1 134.3 L67.2 134.3 L67.3 134.2 L67.3 134.1 L67.2 133.9 L67.1 133.8 L67.0 133.7 L66.1 133.2 L65.0 132.8 L64.8 132.7 L64.7 132.5 L64.5 132.6 L64.2 132.9 L64.0 133.0 L64.0 133.1 L64.1 133.1 L64.1 133.2 L63.8 133.2 L63.7 133.3 L63.6 133.3 L63.6 133.4 L63.6 133.6 L63.6 133.7 L63.4 133.7 L63.5 133.9 L63.5 133.9 L63.6 133.9 L63.5 134.0 L63.7 134.2 L63.7 134.2 L63.8 134.2 L63.9 134.1 L64.0 134.0 L64.0 133.8 L63.9 133.6 L64.2 133.8 L64.1 134.1 L63.8 134.3 L63.6 134.4 L63.7 134.6 L63.5 134.7 L63.3 134.7 L63.1 134.6 L62.9 134.5 L62.9 134.4 L63.1 134.3 L63.3 134.2 L63.3 134.1 L63.0 134.0 L62.9 133.9 L62.7 133.9 L62.5 133.9 L62.4 133.5 L61.9 133.2 L61.2 133.1 L60.8 133.3 L60.7 133.3 L60.6 133.1 L60.5 132.9 L60.3 133.0 L60.1 133.2 L60.0 133.1 L59.8 132.7 L59.9 132.5 L60.0 132.2 L59.9 132.0 L59.8 131.8 L59.8 131.7 L59.8 131.7 L59.8 131.7 L59.9 131.7 L59.9 131.7 L59.8 131.6 L59.8 131.6 L59.9 131.5 L59.8 131.5 L59.7 131.6 L59.7 131.7 L59.7 131.8 L59.6 131.8 L59.6 131.7 L59.6 131.6 L59.4 131.5 L58.9 131.4 L58.6 131.5 L58.7 131.9 L58.5 131.8 L58.4 131.8 L58.2 131.8 L58.1 131.7 L58.3 131.6 L58.3 131.5 L57.9 131.5 L57.7 131.5 L57.6 131.3 L57.6 131.0 L57.7 131.0 L57.7 131.0 L57.8 131.0 L57.8 130.9 L57.7 130.8 L57.7 130.8 L57.7 130.8 L57.6 130.6 L57.6 130.5 L57.5 130.5 L57.5 130.7 L57.3 130.8 L57.0 130.9 L56.6 130.9 L56.5 130.9 L56.5 131.0 L56.6 131.1 L56.7 131.2 L56.7 131.2 L56.9 131.2 L57.0 131.2 L57.2 131.3 L57.0 131.5 L56.9 131.7 L56.7 131.9 L56.5 131.9 L55.7 131.6 L55.5 131.5 L55.5 131.5 L55.5 131.7 L55.5 131.8 L55.2 131.8 L55.0 131.8 L54.9 131.7 L55.0 131.5 L55.2 131.5 L55.5 131.4 L55.5 131.3 L55.4 131.2 L55.2 131.1 L54.9 131.0 L54.7 131.1 L54.5 131.3 L54.4 131.6 L54.4 131.8 L54.6 131.9 L54.6 132.2 L55.2 132.6 L55.3 132.9 L55.1 132.8 L54.8 132.8 L54.6 132.8 L54.5 133.0 L54.4 133.0 L54.3 132.9 L54.3 133.0 L54.3 133.0 L54.3 133.1 L54.2 133.1 L54.3 133.1 L54.3 133.1 L54.3 133.2 L53.6 133.4 L53.3 133.6 L53.0 133.9 L52.8 134.3 L52.6 134.6 L52.2 134.8 L51.8 134.7 L51.8 134.8 L51.7 134.9 L51.7 134.9 L51.5 134.9 L51.6 135.0 L51.6 135.1 L51.6 135.1 L51.4 135.2 L51.3 135.2 L51.2 135.2 L51.1 135.0 L51.0 135.2 L50.8 135.3 L50.6 135.2 L50.4 135.0 L50.4 135.0 L50.5 134.9 L50.5 134.8 L50.4 134.8 L50.4 134.7 L50.3 134.6 L51.4 134.6 L51.7 134.5 L51.9 134.4 L52.0 134.2 L52.2 134.0 L52.0 133.8 L51.7 134.1 L51.6 134.1 L51.6 134.0 L51.8 133.9 L51.8 133.7 L51.8 133.6 L51.6 133.4 L51.5 133.4 L51.4 133.4 L51.4 133.6 L51.4 133.7 L51.2 133.6 L51.0 133.6 L50.9 133.5 L50.8 133.6 L50.6 133.6 L50.5 133.5 L50.4 133.4 L50.5 133.3 L51.0 133.2 L50.9 133.1 L51.2 133.1 L51.3 133.1 L51.4 133.1 L51.5 133.0 L51.5 132.9 L51.5 132.9 L52.1 132.9 L52.2 132.8 L52.2 133.1 L52.4 133.1 L52.6 132.9 L52.6 132.7 L52.5 132.6 L52.2 132.6 L52.1 132.5 L52.2 132.4 L52.3 132.3 L52.4 132.2 L52.5 132.1 L52.6 132.2 L52.6 132.3 L52.8 132.4 L52.8 132.2 L52.7 131.9 L52.7 131.7 L52.5 131.7 L52.3 131.7 L52.2 131.8 L51.9 132.1 L51.6 132.3 L51.5 132.3 L51.4 132.1 L51.2 132.3 L50.6 132.4 L50.4 132.5 L50.3 132.5 L50.2 132.3 L50.1 132.4 L49.9 132.5 L49.7 132.6 L49.6 132.4 L49.5 132.4 L49.4 132.5 L49.3 132.6 L49.2 132.6 L49.1 132.5 L49.0 132.4 L48.9 132.6 L48.8 132.6 L48.6 132.5 L48.4 132.4 L48.1 132.3 L47.8 132.4 L47.8 132.3 L47.6 132.4 L47.5 132.4 L47.3 132.3 L47.0 132.3 L46.8 132.4 L46.5 132.7 L46.3 132.8 L46.3 132.9 L46.3 133.1 L46.1 133.5 L46.1 133.8 L45.6 133.6 L45.3 133.6 L45.1 133.5 L44.8 133.6 L44.6 133.6 L44.4 133.6 L44.4 133.4 L43.4 133.7 L43.3 133.8 L43.2 133.9 L43.2 133.9 L43.1 133.9 L42.9 133.8 L42.8 133.7 L42.5 133.7 L42.3 133.7 L42.2 133.7 L42.1 133.5 L42.0 133.4 L41.8 133.4 L41.7 133.5 L41.7 133.5 L41.6 133.4 L41.6 133.4 L41.5 133.4 L41.6 133.3 L41.6 133.3 L41.6 133.2 L41.4 133.1 L41.4 133.0 L41.6 133.1 L41.9 133.1 L42.1 133.1 L42.3 133.1 L42.4 132.9 L42.5 132.7 L42.7 132.5 L42.8 132.4 L43.0 132.4 L43.3 132.4 L44.4 132.3 L44.9 132.3 L45.2 132.3 L45.3 132.1 L45.3 131.9 L45.4 131.7 L45.7 131.6 L46.4 132.0 L46.6 131.9 L46.8 132.0 L47.0 132.0 L47.2 132.0 L47.4 132.0 L47.8 131.7 L48.0 131.6 L49.2 131.6 L49.4 131.6 L49.5 131.7 L49.7 131.7 L50.0 131.8 L50.3 131.8 L50.8 131.8 L51.1 131.8 L51.3 132.0 L51.4 131.9 L51.5 131.8 L51.7 131.6 L51.6 131.4 L51.5 131.4 L51.3 131.3 L51.0 131.3 L51.1 131.2 L51.3 131.3 L51.3 131.2 L51.2 131.0 L51.0 130.9 L51.1 130.9 L51.1 130.9 L51.2 130.8 L51.2 130.8 L51.3 130.9 L51.4 130.8 L51.6 130.8 L51.7 130.7 L51.7 130.6 L51.4 130.4 L51.3 130.2 L51.2 130.1 L51.4 130.2 L51.5 130.1 L51.4 130.1 L51.4 130.0 L51.4 130.0 L51.3 129.9 L51.4 129.9 L51.7 129.9 L51.8 129.9 L51.8 129.8 L51.5 129.8 L51.5 129.7 L51.9 129.7 L52.0 129.7 L52.1 129.8 L52.2 129.7 L52.3 129.7 L52.4 129.7 L52.4 129.8 L52.5 129.8 L52.7 129.7 L53.0 129.9 L53.1 129.8 L53.2 129.8 L53.3 129.9 L53.3 130.1 L53.4 130.0 L53.4 130.0 L53.4 130.0 L53.3 129.9 L53.4 129.8 L53.4 129.8 L53.3 129.7 L53.2 129.7 L53.2 129.6 L53.4 129.6 L53.5 129.6 L53.6 129.6 L53.6 129.7 L53.9 129.3 L54.0 129.2 L54.0 129.1 L53.8 129.1 L54.0 128.9 L54.0 128.8 L54.3 128.9 L54.5 129.0 L54.6 128.9 L54.5 128.7 L55.3 128.4 L55.8 128.4 L55.8 128.3 L55.7 128.2 L55.5 128.1 L55.4 128.1 L53.5 128.3 L52.8 128.3 L52.5 128.3 L52.5 128.5 L52.5 128.6 L52.3 128.5 L50.7 128.3 L50.6 128.3 L50.4 128.5 L50.2 128.5 L50.0 128.5 L49.6 128.4 L49.2 128.4 L48.0 128.7 L47.9 128.7 L47.8 128.7 L47.8 128.8 L47.7 128.9 L47.6 128.9 L47.4 128.8 L47.3 128.8 L47.1 128.9 L46.8 128.7 L46.3 128.7 L45.9 128.9 L45.6 129.1 L45.3 129.0 L44.9 128.8 L44.6 128.9 L44.5 129.2 L44.1 129.0 L44.0 128.9 L43.8 128.9 L43.3 128.9 L43.2 128.9 L43.0 128.8 L42.8 128.5 L42.7 128.4 L42.4 128.4 L42.2 128.6 L42.1 128.5 L42.2 128.4 L42.0 128.4 L42.0 128.5 L41.8 128.9 L41.8 128.8 L41.8 128.8 L41.8 128.8 L41.8 128.7 L41.8 128.7 L41.8 128.7 L41.8 128.7 L41.7 128.6 L41.8 128.5 L41.8 128.5 L41.8 128.5 L41.7 128.4 L41.6 128.5 L41.2 128.5 L41.0 128.6 L41.0 128.7 L41.1 128.8 L41.0 129.0 L40.8 129.1 L40.6 129.2 L40.7 129.3 L40.7 129.4 L40.6 129.4 L40.5 129.4 L40.4 129.4 L40.3 129.3 L40.1 129.3 L39.9 129.1 L39.9 128.8 L39.8 128.5 L39.8 128.3 L39.6 128.1 L39.6 127.9 L39.7 127.6 L39.9 127.6 L40.1 127.5 L40.4 127.4 L40.5 127.2 L40.4 127.1 L40.3 127.1 L40.2 127.1 L40.0 127.2 L40.0 127.1 L40.0 127.1 L39.9 127.0 L40.0 127.1 L40.2 126.9 L40.7 127.0 L40.9 127.0 L40.9 126.9 L41.0 126.8 L41.0 126.6 L40.9 126.5 L41.1 126.5 L41.2 126.6 L41.3 126.7 L41.2 126.9 L41.3 126.9 L41.4 126.7 L41.5 126.6 L41.6 126.6 L41.7 126.7 L41.8 126.6 L41.8 126.6 L41.8 126.6 L41.8 126.6 L41.8 126.8 L41.9 126.9 L42.0 126.9 L42.2 126.9 L42.3 127.0 L42.4 127.0 L42.5 127.0 L42.7 127.0 L42.6 127.0 L42.6 127.0 L42.6 127.0 L42.5 127.1 L42.8 127.4 L43.0 127.5 L43.2 127.4 L43.6 127.2 L43.9 127.1 L44.0 127.0 L44.2 127.0 L44.5 127.0 L44.7 126.9 L44.7 126.8 L44.5 126.8 L44.4 126.8 L44.4 126.9 L44.3 126.4 L44.1 126.2 L44.0 126.1 L44.0 126.0 L44.7 125.8 L44.9 125.9 L44.7 126.2 L44.8 126.1 L45.0 126.1 L45.2 125.9 L44.9 125.8 L44.9 125.7 L44.9 125.4 L44.9 125.3 L45.1 125.2 L45.2 125.2 L45.2 125.1 L45.2 124.9 L45.3 124.8 L45.1 124.7 L45.1 124.7 L45.0 124.6 L44.9 124.7 L44.9 124.7 L44.9 124.8 L44.5 124.8 L44.3 124.8 L44.3 124.9 L44.2 125.1 L44.0 125.3 L43.8 125.4 L43.6 125.4 L43.8 125.2 L43.9 125.0 L43.7 124.9 L43.4 124.9 L43.3 124.9 L43.2 125.0 L43.0 125.1 L43.0 125.0 L43.0 124.9 L43.1 124.7 L43.4 124.5 L43.3 124.3 L43.4 124.2 L43.4 124.0 L43.3 123.8 L43.2 123.8 L43.1 124.2 L42.8 124.3 L42.4 124.3 L42.0 124.1 L41.9 123.7 L42.0 123.4 L42.3 123.2 L42.7 123.1 L42.5 122.8 L42.2 122.7 L42.1 122.7 L41.9 122.7 L41.7 122.8 L41.5 123.0 L41.5 123.2 L41.3 123.4 L40.9 123.4 L40.9 123.5 L41.2 123.6 L41.1 123.6 L40.2 123.7 L40.0 123.7 L39.8 123.9 L39.7 123.7 L39.6 123.7 L39.5 123.7 L39.4 123.8 L39.4 123.6 L39.4 123.6 L39.3 123.6 L39.2 123.6 L39.2 123.6 L39.1 123.6 L39.0 123.6 L39.2 123.4 L39.3 123.3 L39.3 123.1 L39.2 122.9 L39.5 122.9 L39.5 122.8 L39.5 122.7 L39.4 122.5 L39.5 121.8 L39.2 121.9 L39.1 121.8 L39.0 121.8 L38.9 121.8 L38.8 121.9 L38.9 121.7 L39.0 121.5 L39.0 121.3 L38.9 121.0 L39.0 120.9 L38.9 120.9 L38.9 120.8 L38.9 120.6 L39.2 120.8 L39.3 120.5 L39.3 120.2 L39.3 120.0 L39.1 120.0 L38.2 119.5 L36.9 119.2 L36.4 119.0 L36.5 118.7 L36.8 118.7 L37.8 118.7 L38.1 118.7 L39.3 118.3 L39.5 118.2 L39.9 117.9 L40.0 117.6 L40.0 117.3 L40.1 117.0 L40.0 116.8 L39.9 116.7 L39.8 116.5 L39.7 116.4 L39.7 116.1 L39.8 116.0 L40.0 115.9 L40.0 115.8 L40.1 115.7 L40.1 115.5 L40.1 115.4 L40.0 115.3 L40.3 115.1 L40.1 114.8 L39.7 114.3 L39.4 114.4 L38.8 114.4 L38.3 114.3 L37.9 114.2 L37.8 114.1 L37.8 114.0 L37.7 113.9 L37.6 113.9 L37.4 113.9 L37.3 113.9 L37.2 113.8 L37.2 113.7 L37.2 113.5 L37.0 113.4 L36.6 113.4 L35.9 113.1 L35.5 113.1 L35.0 113.2 L34.7 113.3 L34.6 113.3 L34.6 113.3 L34.5 113.4 L34.5 113.5 L34.3 113.6 L34.2 113.5 L33.9 113.0 L34.0 112.8 L34.0 112.6 L33.9 112.4 L33.8 112.2 L33.6 112.0 L33.3 111.7 L33.2 111.6 L32.9 111.7 L32.9 111.5 L32.9 111.1 L32.7 110.9 L32.5 110.9 L32.2 111.0 L31.9 111.1 L31.0 111.1 L30.9 111.1 L30.7 112.1 L30.6 112.0 L30.6 112.0 L30.6 112.0 L30.5 112.0 L30.5 112.2 L30.5 112.4 L30.4 112.5 L30.3 112.6 L30.2 112.5 L30.0 112.2 L29.9 112.0 L29.8 112.3 L29.7 112.3 L29.5 112.2 L29.2 111.9 L29.1 111.8 L29.1 111.7 L29.1 111.5 L28.7 111.5 L28.4 111.3 L28.0 111.0 L27.6 110.9 L27.7 111.1 L27.7 111.2 L27.6 111.2 L27.6 111.1 L27.2 110.8 L27.3 110.7 L27.3 110.5 L27.3 110.4 L27.2 110.3 L27.1 110.3 L27.0 110.7 L26.7 110.7 L26.3 110.6 L25.9 110.3 L25.7 110.3 L25.0 110.1 L24.9 110.0 L25.0 109.8 L25.4 109.9 L25.6 109.7 L25.7 109.4 L26.0 109.4 L26.0 109.2 L25.8 109.1 L25.7 108.8 L25.8 108.7 L26.0 108.8 L26.1 108.7 L26.1 108.6 L26.2 108.6 L26.2 108.6 L26.3 108.7 L26.3 108.9 L26.3 109.0 L26.1 109.2 L26.2 109.2 L26.3 109.2 L26.4 109.2 L26.5 109.2 L26.6 109.3 L26.6 109.3 L26.7 109.4 L26.7 109.4 L27.0 109.5 L27.2 109.4 L27.3 109.3 L27.1 109.2 L27.1 109.1 L27.4 109.2 L27.5 109.2 L27.6 109.2 L27.8 109.1 L28.2 108.9 L28.3 108.8 L28.5 108.7 L28.5 108.4 L28.4 108.1 L28.1 107.9 L28.1 107.8 L28.5 108.0 L28.7 108.1 L28.8 108.1 L29.1 107.7 L28.8 107.6 L28.5 107.4 L28.2 107.3 L28.0 107.2 L27.8 107.1 L27.7 107.2 L27.6 107.4 L27.5 107.4 L27.2 107.4 L27.2 107.4 L27.4 107.2 L27.4 106.9 L27.4 106.8 L26.9 106.2 L27.0 106.3 L27.0 106.2 L26.8 105.7 L26.8 105.6 L26.8 105.5 L26.6 105.0 L26.6 104.8 L26.7 104.5 L26.7 104.4 L26.9 104.3 L27.1 104.3 L27.4 104.1 L27.6 104.1 L28.0 104.1 L28.4 104.2 L28.7 104.3 L28.9 104.5 L29.4 104.9 L29.7 105.2 L29.8 105.4 L30.1 105.9 L30.5 106.2 L30.6 106.3 L30.7 106.4 L30.8 106.5 L30.9 106.6 L30.9 106.8 L30.9 106.9 L30.9 107.1 L31.0 107.2 L30.9 107.3 L30.8 107.3 L30.8 107.3 L30.6 107.2 L30.5 107.2 L30.3 107.2 L30.2 107.3 L30.4 107.4 L30.4 107.6 L30.3 107.7 L30.2 107.9 L30.5 108.0 L30.7 108.1 L30.7 108.4 L30.9 108.6 L31.2 109.3 L31.4 109.6 L31.7 109.5 L31.8 109.3 L31.7 109.2 L31.5 109.1 L31.4 108.4 L31.4 108.2 L31.6 107.9 L31.8 107.8 L32.1 107.8 L32.1 107.7 L32.2 107.7 L32.3 107.9 L32.5 108.2 L32.8 108.8 L32.9 108.7 L33.0 108.7 L33.1 108.6 L33.2 108.8 L33.4 108.8 L33.7 108.7 L33.9 108.6 L35.1 108.6 L35.8 108.3 L36.1 108.2 L36.1 108.2 L36.3 108.1 L36.4 108.0 L36.6 108.0 L36.7 108.1 L36.8 108.1 L37.0 108.0 L37.0 108.1 L37.1 108.0 L37.5 108.2 L37.9 108.0 L38.2 107.7 L38.6 107.5 L38.6 107.4 L38.5 107.3 L38.4 107.4 L38.3 107.4 L38.2 107.3 L37.9 107.4 L37.4 107.4 L37.3 107.4 L36.9 107.3 L36.5 107.3 L35.6 107.6 L35.3 107.7 L35.3 107.7 L35.4 107.5 L35.2 107.4 L34.7 106.8 L34.5 106.7 L34.1 106.6 L34.0 106.6 L33.7 106.4 L33.5 106.1 L33.7 106.3 L34.0 106.4 L34.4 106.6 L34.6 106.6 L34.6 106.5 L34.4 106.4 L34.2 106.2 L34.0 106.1 L33.8 106.0 L33.9 105.9 L33.9 105.5 L34.0 105.3 L33.8 105.2 L33.6 105.2 L33.5 105.3 L33.2 105.3 L33.2 105.2 L33.3 105.1 L33.0 105.0 L32.8 105.0 L32.6 105.0 L32.6 105.0 L32.6 104.8 L32.7 104.7 L32.5 104.7 L32.3 104.7 L32.1 104.5 L32.2 104.4 L32.3 104.3 L32.4 104.3 L32.6 104.3 L32.3 104.0 L32.2 103.8 L32.1 103.5 L32.4 103.4 L33.1 103.2 L33.5 103.0 L33.6 103.0 L33.7 103.1 L33.7 103.1 L33.7 103.1 L33.9 103.1 L34.0 103.1 L34.4 103.3 L34.6 103.3 L34.8 103.3 L34.7 103.1 L34.8 103.0 L35.0 102.9 L35.1 102.9 L35.2 103.0 L35.2 102.9 L35.3 102.8 L35.2 102.7 L35.2 102.5 L35.1 102.6 L34.8 102.2 L34.7 102.1 L35.3 101.9 L35.4 102.2 L35.6 102.3 L35.8 102.1 L35.6 101.7 L35.9 101.6 L36.1 101.5 L36.3 101.4 L36.4 101.3 L36.7 101.5 L37.0 101.3 L37.1 101.1 L36.8 101.0 L37.1 100.6 L37.1 100.4 L36.8 100.3 L36.6 100.5 L36.4 100.5 L36.2 100.6 L36.0 100.6 L35.9 100.5 L35.7 100.3 L35.7 100.3 L35.5 100.3 L35.4 100.4 L35.2 100.4 L35.1 100.3 L34.9 100.4 L34.4 100.6 L34.2 100.7 L34.1 100.6 L33.9 100.3 L33.6 100.3 L33.4 100.1 L33.2 99.8 L33.3 99.4 L33.5 99.2 L33.5 99.1 L33.4 99.1 L33.2 99.1 L33.4 98.9 L33.7 98.7 L34.1 98.5 L34.3 98.5 L34.5 98.3 L34.4 98.1 L34.0 97.6 L33.6 97.2 L33.4 97.1 L33.0 96.9 L32.8 96.9 L32.6 96.7 L32.4 96.5 L32.4 96.3 L32.3 96.1 L32.2 95.8 L32.1 95.5 L31.8 95.4 L31.1 95.5 L30.8 95.5 L30.5 95.4 L30.6 95.2 L30.7 94.9 L30.8 94.8 L31.0 94.7 L31.1 94.8 L31.1 94.9 L30.9 94.9 L30.9 95.0 L31.0 95.0 L31.2 95.1 L31.3 95.2 L31.4 95.2 L31.3 95.0 L31.4 94.9 L31.5 94.8 L31.7 94.8 L31.9 94.4 L33.5 93.5 L33.4 93.4 L33.3 93.4 L33.3 93.3 L33.3 93.2 L33.3 93.2 L33.3 93.0 L33.8 93.0 L34.0 92.9 L34.2 92.8 L34.0 92.6 L34.3 92.5 L35.1 92.3 L35.2 92.2 L35.2 92.2 L35.2 92.0 L35.4 91.5 L35.4 91.2 L35.3 91.0 L35.1 90.8 L34.6 90.8 L34.3 90.9 L34.0 91.1 L33.8 91.2 L33.4 91.0 L31.3 91.3 L28.2 91.7 L27.9 91.8 L27.7 92.0 L27.6 92.0 L27.0 92.3 L26.8 92.3 L26.7 92.3 L25.9 92.2 L25.7 92.2 L25.5 92.3 L25.4 92.3 L25.2 92.4 L25.2 92.5 L25.2 92.6 L25.1 92.5 L24.9 92.4 L23.8 92.7 L23.2 92.7 L22.6 92.4 L22.5 92.1 L22.9 91.3 L23.1 90.6 L23.7 90.2 L23.8 89.9 L23.9 89.0 L23.9 88.9 L23.6 88.5 L23.5 88.3 L23.5 88.2 L23.6 88.1 L23.7 88.1 L23.7 88.0 L23.7 87.6 L23.8 87.3 L23.7 87.1 L23.5 87.1 L23.6 86.9 L23.8 86.2 L23.8 86.1 L23.7 85.8 L23.7 85.7 L23.8 85.5 L23.9 85.3 L23.9 85.2 L24.0 85.1 L24.3 84.7 L24.4 84.6 L25.2 84.8 L25.4 84.7 L25.9 84.5 L26.1 84.4 L26.7 83.9 L26.8 83.8 L26.9 83.6 L26.9 83.5 L26.9 83.4 L27.0 83.3 L26.9 83.2 L26.9 83.2 L27.0 83.2 L27.2 83.2 L27.2 83.2 L27.3 83.1 L27.4 82.9 L27.4 82.7 L27.4 82.4 L27.3 82.2 L27.4 81.9 L27.5 81.9 L27.6 81.8 L27.8 81.8 L28.0 81.8 L28.4 81.7 L28.9 81.6 L29.1 81.4 L29.8 80.7 L29.9 80.7 L30.1 80.6 L30.3 80.5 L30.4 80.4 L32.0 79.0 L32.3 78.8 L32.9 78.7 L34.2 78.8 L34.7 78.7 L34.9 78.8 L35.2 78.9 L36.1 79.0 L36.4 78.9 L36.8 78.7 L37.2 78.3 L37.6 78.1 L38.3 78.0 L38.8 78.1 L39.4 78.1 L39.7 78.1 L40.2 77.8 L40.4 77.8 L40.7 78.0 L40.8 78.2 L41.0 78.6 L40.8 78.7 L40.7 78.7 L40.7 78.7 L40.7 78.7 L40.6 78.7 L40.5 78.7 L41.2 79.3 L42.0 79.7 L42.9 80.0 L43.9 80.2 L44.3 80.2 L44.5 80.1 L45.0 79.9 L45.2 79.8 L45.6 79.9 L46.0 80.0 L46.3 80.1 L46.7 79.9 L47.0 80.0 L47.4 80.1 L47.8 80.0 L48.2 79.6 L49.0 79.3 L49.2 79.0 L48.9 79.0 L48.2 78.8 L48.0 78.9 L47.9 78.9 L47.8 78.8 L47.8 78.6 L47.7 78.6 L47.6 78.6 L47.5 78.5 L47.4 78.4 L47.3 78.3 L47.3 78.3 L47.3 78.1 L47.2 78.0 L47.1 78.0 L47.0 78.0 L46.9 77.9 L46.4 77.6 L46.3 77.4 L46.3 77.3 L46.4 77.3 L46.6 77.2 L46.8 77.0 L47.0 76.9 L47.1 77.0 L47.2 77.0 L47.4 76.8 L47.7 77.1 L47.7 77.1 L47.8 77.1 L47.9 77.1 L47.9 77.0 L48.0 77.0 L50.5 77.3 L51.1 77.5 L51.4 77.7 L51.2 78.1 L49.9 78.6 L49.5 78.8 L49.6 79.2 L50.1 79.3 L51.3 79.2 L52.6 78.9 L56.0 78.8 L56.8 78.9 L58.1 78.8 L57.9 78.8 L57.8 78.9 L57.7 79.0 L57.7 79.1 L58.3 79.0 L58.9 78.9 L59.6 79.1 L60.3 79.3 L60.4 79.2 L60.4 79.3 L60.5 79.3 L60.6 79.3 L60.7 79.3 L60.9 79.2 L61.0 79.1 L61.8 79.0 L62.0 78.9 L62.3 78.8 L62.5 78.8 L63.0 78.9 L63.5 78.9 L63.9 79.0 L64.1 79.1 L64.5 79.3 L64.7 79.3 L65.0 79.4 L66.1 79.3 L66.4 79.3 L66.6 79.2 L66.7 79.0 L66.8 78.6 L66.9 78.4 L67.1 78.5 L67.4 78.5 L67.6 78.4 L67.8 78.3 L67.6 78.1 L67.3 77.8 L66.9 77.7 L66.6 77.6 L65.8 77.6 L65.7 77.7 L65.3 77.9 L65.2 77.9 L64.4 77.8 L63.1 77.2 L62.3 77.0 L62.6 76.6 L63.1 76.3 L64.1 76.0 L64.6 75.8 L65.2 75.3 L65.4 75.2 L69.8 74.9 L70.4 74.8 L71.0 74.5 L71.3 74.3 L71.4 74.3 L71.5 74.4 L71.6 74.5 L71.7 74.6 L71.9 74.5 L72.1 74.5 L72.2 74.4 L72.4 74.3 L72.5 74.2 L72.5 74.1 L72.7 74.1 L72.8 74.0 L73.0 74.0 L73.1 74.0 L73.4 74.1 L73.6 74.3 L73.7 74.5 L73.8 74.5 L76.7 74.0 L78.4 74.0 L78.9 74.2 L79.2 74.2 L79.4 73.9 L79.3 73.6 L78.7 73.5 L77.5 73.6 L77.4 73.6 L77.3 73.7 L77.2 73.7 L77.0 73.7 L76.8 73.6 L76.6 73.4 L76.5 73.4 L76.2 73.3 L75.7 73.2 L75.4 73.2 L71.9 73.3 L71.6 73.4 L71.4 73.5 L71.2 73.6 L70.9 73.5 L70.7 73.4 L70.7 73.2 L70.6 73.1 L70.5 73.1 L70.5 73.1 L70.5 73.0 L70.6 73.0 L70.7 73.0 L70.6 72.8 L70.5 72.7 L70.4 72.6 L70.3 72.6 L70.2 72.7 L70.1 72.6 L69.9 72.7 L69.8 72.7 L69.4 72.8 L69.4 72.7 L69.5 72.7 L69.6 72.6 L69.6 72.5 L69.7 72.4 L69.8 72.4 L69.9 72.5 L69.8 72.4 L69.9 72.4 L69.9 72.4 L70.0 72.4 L69.8 72.2 L69.5 71.9 L69.3 71.8 L69.2 71.7 L68.9 71.8 L68.6 71.6 L67.7 71.3 L67.4 71.1 L67.1 70.8 L66.8 70.6 L66.0 70.3 L66.1 70.2 L66.1 70.2 L66.1 70.2 L66.1 70.2 L66.0 70.1 L65.9 69.9 L65.8 69.7 L65.7 69.6 L66.0 69.4 L66.3 69.2 L66.5 68.9 L66.7 68.3 L66.9 68.1 L66.9 67.9 L66.6 67.8 L67.0 67.3 L67.5 66.9 L68.1 66.6 L68.6 66.6 L68.6 66.6 L68.8 66.5 L69.0 66.5 L71.8 66.8 L74.7 67.4 L78.6 67.8 L82.3 67.9 L82.7 67.8 L83.0 67.8 L83.3 67.6 L83.5 67.5 L83.6 67.5 L83.8 67.3 L83.9 67.2 L84.0 67.2 L84.1 67.1 L84.3 66.9 L84.5 66.8 L84.7 66.9 L85.3 67.0 L85.8 67.3 L90.6 68.2 L91.1 68.5 L91.3 68.6 L92.6 68.8 L96.4 68.7 L96.7 68.6 L96.9 68.6 L97.0 68.6 L97.3 68.6 L97.5 68.6 L98.1 68.6 L98.2 68.6 L98.3 68.6 L98.4 68.6 L98.5 68.6 L98.6 68.6 L98.6 68.5 L98.7 68.4 L99.3 68.3 L99.8 68.0 L100.6 67.4 L100.8 67.2 L100.9 67.0 L101.0 66.8 L101.0 66.5 L101.0 66.3 L101.2 66.1 L101.2 65.9 L101.1 65.8 L100.8 65.7 L100.8 65.5 L101.0 65.3 L101.3 65.3 L101.9 65.2 L102.0 65.2 L102.3 64.9 L102.3 64.8 L102.5 64.8 L104.7 64.1 L107.8 62.6 L109.6 61.9 L110.2 61.6 L110.3 61.5 L111.7 61.2 L112.1 61.0 L112.3 60.6 L113.3 59.8 L113.4 59.7 L113.6 59.4 L114.1 59.3 L114.9 59.3 L114.9 59.2 L115.0 59.2 L115.2 59.1 L115.2 59.0 L115.3 58.9 L115.3 58.9 L115.4 58.9 L115.5 59.1 L115.6 59.1 L115.9 59.0 L116.2 58.7 L116.4 58.6 L117.4 58.2 L117.6 58.1 L117.8 58.0 L118.0 58.0 L118.2 58.1 L118.4 57.8 L118.7 57.7 L119.1 57.6 L119.5 57.7 L119.7 57.7 L120.6 57.5 L120.8 57.4 L121.0 57.4 L121.5 57.4 L121.9 57.3 L122.1 57.2 L122.3 57.2 L123.3 57.0 L123.9 56.9 L124.5 56.5 L126.9 55.9 L129.2 55.0 L129.7 55.0 L130.8 55.1 L132.4 55.1 L132.7 55.2 L133.4 55.4 L136.6 55.6 L136.8 55.6 L137.3 55.7 L139.2 55.6 L144.0 56.1 L145.7 55.7 L146.2 55.7 L146.5 55.7 L146.9 55.9 L147.4 56.0 L149.3 56.1 L150.1 56.0 L150.9 55.9 L151.1 55.8 L151.7 55.4 L152.2 55.2 L152.6 54.8 L153.0 54.3 L153.1 53.8 L153.3 53.9 L153.7 54.0 L153.9 54.0 L153.9 54.0 L154.0 53.9 L154.1 53.9 L154.2 53.9 L154.3 54.1 L154.4 54.2 L154.5 54.3 L154.5 54.4 L154.5 54.5 L155.0 54.9 L155.4 55.0 L155.8 54.9 L155.9 54.9 L156.2 54.7 L156.3 54.6 L156.6 54.7 L156.7 54.7 L157.0 54.9 L157.0 55.1 L156.2 55.0 L155.8 55.0 L155.5 55.2 L155.4 55.4 L155.3 55.7 L155.2 56.1 L155.2 56.4 L155.3 56.6 L155.7 57.1 L156.1 57.6 L156.9 58.1 L156.9 58.2 L156.7 58.2 L156.8 58.4 L156.9 58.6 L157.1 58.8 L157.6 59.0 L158.0 59.4 L158.2 59.5 L159.1 59.8 L159.7 59.8 L160.0 60.0 L160.4 60.3 L161.0 60.5 L161.6 60.7 L162.3 60.7 L162.9 60.7 L163.2 60.6 L163.8 60.3 L164.7 60.2 L166.3 59.7 L166.6 59.7 L167.0 59.6 L167.6 59.2 L167.9 59.2 L167.9 59.3 L167.8 59.4 L167.7 59.5 L167.6 59.5 L167.5 59.6 L167.5 59.8 L167.2 60.3 L167.3 60.5 L167.4 60.5 L167.4 60.1 L167.6 59.8 L167.8 59.6 L168.0 59.4 L168.1 59.3 L168.2 59.3 L169.1 59.9 L169.1 59.7 L169.2 59.7 L170.3 60.8 L170.5 61.2 L170.5 61.8 L170.5 61.9 L170.3 62.2 L170.3 62.3 L170.3 62.7 L170.3 63.0 L170.5 63.2 L171.2 63.8 L171.5 64.0 L172.0 64.7 L172.2 64.9 L173.0 65.2 L173.4 65.2 L173.5 65.3 L173.5 65.4 L173.5 65.6 L173.6 65.8 L173.7 65.8 L173.9 65.9 L174.0 65.9 L174.1 66.0 L174.3 66.2 L174.3 66.2 L174.5 66.3 L174.8 66.3 L174.9 66.4 L175.2 66.5 L175.5 66.4 L176.1 66.1 L176.9 65.6 L177.0 65.5 L177.1 65.3 L177.3 65.1 L177.3 65.0 L177.4 64.9 L177.5 64.6 L177.4 64.6 L177.6 64.5 L177.8 64.5 L178.1 64.6 L178.4 64.6 L179.7 64.6 L180.8 64.8 L183.0 65.7 L183.5 66.0 L183.7 66.4 L183.7 67.1 L183.8 67.3 L184.1 67.4 L184.4 67.5 L184.9 67.7 L185.2 67.8 L187.1 67.8 L187.6 67.9 L188.0 68.2 L188.1 68.2 L188.4 68.3 L188.8 68.3 L189.0 68.4 L189.4 68.7 L189.6 68.9 L190.2 69.0 L190.3 69.1 L190.6 69.4 L190.9 69.5 L191.5 69.4 L191.8 69.5 L191.8 69.4 L192.1 69.3 L192.2 69.3 L192.3 69.1 L192.5 68.7 L192.6 68.5 L192.9 68.3 L193.1 68.1 L193.4 67.9 L193.5 68.2 L193.7 68.3 L194.0 68.3 L194.3 68.1 L194.4 68.2 L194.8 68.2 L194.8 69.1 L195.0 69.4 L195.8 69.7 L196.0 69.8 L196.1 69.9 L196.4 70.3 L197.0 70.1 L197.7 70.1 L199.4 70.6 L200.3 70.7 L200.9 70.9 L201.2 70.9 L201.9 70.7 L202.2 70.8 L202.8 71.2 L203.1 71.2 L203.7 71.1 L204.2 71.2 L204.6 71.2 L204.7 71.1 L205.9 71.1 L206.1 71.0 L206.6 70.5 L206.8 70.5 L207.3 70.4 L207.5 70.4 L207.6 70.4 L207.8 70.7 L207.9 70.8 L208.0 70.7 L208.3 70.7 L208.5 70.7 L208.6 70.6 L208.7 70.5 L208.9 70.4 L209.0 70.4 L209.3 70.1 L209.4 70.0 L209.4 70.0 L209.8 69.9 L210.8 69.7 L211.0 69.6 L211.3 69.4 L211.6 69.4 L213.2 69.4 L214.4 69.2 L214.6 69.1 L214.9 68.9 L215.1 68.8 L215.6 68.9 L215.9 68.9 L216.3 69.2 L216.6 69.3 L216.9 69.2 L217.3 69.0 L217.6 69.0 L217.8 68.9 L218.6 68.6 L218.6 68.5 L218.7 68.4 L218.8 68.4 L219.0 68.3 L219.9 68.5 L220.1 68.7 L220.5 69.0 L221.3 69.6 L221.9 69.9 L222.5 70.0 L222.8 69.9 L223.1 69.8 L223.4 69.7 L223.8 70.0 L223.9 70.0 L224.2 70.0 L224.4 70.0 L225.3 70.5 L225.5 70.6 L225.8 70.7 L226.0 70.5 L227.0 70.3 L227.3 70.3 L228.2 70.9 L228.6 71.1 L229.2 71.2 L229.4 71.1 L229.9 71.0 L230.2 70.9 L230.7 70.8 L231.1 70.6 L231.8 70.5 L234.2 69.3 L234.7 69.4 L235.1 69.5 L235.5 69.4 L236.0 69.2 L236.5 68.8 L236.7 68.7 L237.2 68.7 L237.4 68.6 L237.6 68.6 L238.5 67.7 L239.5 67.1 L239.7 67.0 L239.9 67.1 L240.5 67.2 L240.9 67.2 L241.4 66.9 L241.7 66.8 L242.0 66.8 L242.3 66.7 L242.7 66.6 L242.9 66.4 L243.5 66.0 L243.8 65.8 L244.2 65.7 L244.6 65.7 L244.8 65.7 L246.2 64.8 L246.6 64.7 L246.9 64.6 L247.1 64.5 L247.6 64.5 L247.8 64.4 L248.0 64.3 L248.3 64.0 L248.4 63.7 L248.5 63.4 L248.6 63.3 L249.5 62.7 L249.7 62.4 L251.3 62.9 L251.4 63.0 L251.9 62.9 L252.2 62.8 L252.4 62.8 L252.4 62.9 L252.4 63.0 L252.4 63.1 L252.4 63.2 L252.6 63.2 L253.0 63.3 L253.2 63.3 L253.8 63.7 L254.0 63.8 L254.1 63.7 L254.7 63.4 L255.2 62.9 L255.4 62.7 L256.0 62.6 L257.0 62.9 L257.5 62.7 L257.8 62.7 L258.0 62.6 L258.2 62.7 L258.4 62.7 L258.8 62.6 L259.1 62.6 L259.3 62.7 L259.5 62.9 L259.9 62.9 L260.6 62.9 L263.2 63.7 L263.4 63.7 L263.5 63.7 L263.8 63.5 L264.3 63.0 L264.6 62.7 L264.8 62.5 L264.9 61.9 L265.0 61.7 L265.3 61.5 L265.4 61.5 L265.4 61.5 L265.7 61.4 L266.5 61.4 L268.5 61.5 L268.8 61.6 L268.7 61.7 L268.6 61.9 L268.6 62.0 L268.5 62.1 L268.4 62.3 L268.1 62.4 L268.0 62.6 L268.4 62.8 L268.7 63.0 L268.9 63.1 L269.3 62.7 L269.5 62.6 L269.6 62.7 L269.7 62.9 L269.8 63.1 L269.9 63.1 L270.3 63.2 L270.4 63.3 L270.5 63.4 L270.6 63.4 L270.7 63.5 L270.8 63.6 L271.3 64.2 L271.5 64.4 L272.5 64.9 L273.3 65.4 L273.7 65.6 L274.1 65.6 L274.2 65.7 L274.0 65.9 L273.7 66.0 L273.0 66.3 L273.4 66.4 L273.7 66.4 L274.0 66.4 L274.3 66.7 L274.6 67.3 L274.8 67.5 L276.2 67.2 L276.6 67.2 L277.1 67.2 L277.5 67.4 L277.9 67.7 L278.1 68.0 L277.9 68.4 Z M51.2 55.7 L51.4 56.4 L51.4 56.6 L51.4 56.6 L51.5 56.7 L51.6 56.8 L51.6 56.9 L51.4 57.0 L51.3 57.0 L51.0 56.9 L50.8 56.9 L50.6 57.0 L50.5 57.2 L50.4 57.5 L50.5 57.9 L50.7 58.2 L51.0 58.4 L51.2 58.7 L51.5 59.3 L51.7 59.5 L51.9 59.7 L52.1 59.8 L52.1 60.0 L52.2 60.0 L52.2 60.0 L52.2 60.1 L52.2 60.2 L52.1 60.2 L52.0 60.2 L52.0 60.3 L52.1 60.5 L52.3 60.8 L52.6 61.0 L53.0 61.2 L53.2 61.4 L53.5 61.8 L54.3 62.4 L56.6 63.4 L59.7 64.4 L64.3 66.1 L65.7 66.3 L65.8 66.4 L65.8 66.4 L65.9 66.4 L66.0 66.4 L66.1 66.4 L66.2 66.3 L66.3 66.2 L66.6 66.3 L67.0 66.4 L67.2 66.5 L67.1 66.9 L66.9 67.2 L66.6 67.4 L66.4 67.5 L66.2 67.6 L66.3 67.7 L66.4 67.8 L66.5 67.9 L66.6 68.0 L66.6 68.0 L66.7 68.1 L66.6 68.2 L66.6 68.2 L66.5 68.2 L66.5 68.5 L66.4 68.8 L66.2 69.0 L66.1 69.2 L66.0 69.3 L65.7 69.3 L65.6 69.4 L65.5 69.5 L65.4 69.6 L65.4 69.7 L65.5 69.7 L65.5 69.8 L65.5 69.9 L65.4 70.0 L65.4 70.0 L65.0 70.0 L64.9 69.9 L64.8 69.9 L64.7 69.9 L64.6 70.0 L64.6 70.1 L64.4 70.1 L64.1 70.2 L63.6 70.3 L63.4 70.4 L63.3 70.4 L63.3 70.5 L63.2 70.5 L63.0 70.6 L62.6 70.5 L62.5 70.5 L62.4 70.4 L62.2 70.3 L61.9 70.3 L60.1 70.5 L59.7 70.3 L59.8 69.9 L59.6 69.7 L59.5 69.7 L59.4 69.7 L59.5 69.3 L59.3 69.0 L59.0 68.8 L58.7 68.7 L58.7 69.0 L59.1 69.2 L59.2 69.5 L59.2 69.6 L59.2 69.8 L59.1 70.0 L58.9 70.2 L58.4 70.1 L57.7 69.5 L57.3 69.4 L56.8 69.3 L55.8 69.0 L55.3 69.0 L54.8 69.0 L54.7 68.9 L54.5 68.8 L54.4 68.7 L53.8 68.8 L53.6 68.9 L53.5 68.8 L53.3 68.7 L52.6 69.0 L52.5 69.0 L52.4 69.0 L51.6 69.3 L51.4 69.3 L51.1 69.4 L50.9 69.5 L50.7 69.7 L50.4 70.1 L50.3 70.2 L50.3 70.4 L50.1 70.4 L48.9 70.3 L48.6 70.2 L48.4 70.1 L48.2 70.0 L47.6 69.8 L47.1 69.8 L43.9 70.2 L43.5 70.4 L43.1 70.9 L42.8 72.0 L42.5 72.5 L41.1 73.5 L40.4 74.4 L39.1 75.1 L39.0 75.2 L38.9 75.3 L38.8 75.4 L38.7 75.4 L38.3 75.5 L37.9 75.7 L37.2 75.7 L36.9 75.7 L36.7 75.9 L36.2 76.3 L36.1 76.4 L35.7 76.5 L35.5 76.5 L34.9 76.6 L34.1 77.0 L33.8 77.2 L33.6 77.3 L32.7 77.4 L32.4 77.5 L31.9 77.9 L31.7 77.9 L31.6 78.0 L31.4 78.4 L31.3 78.6 L30.8 78.8 L30.7 78.9 L30.7 79.2 L30.6 79.4 L30.4 79.6 L29.5 80.2 L29.4 80.2 L29.0 80.3 L28.8 80.4 L28.5 80.7 L28.5 80.7 L28.4 80.8 L28.0 81.1 L27.8 81.3 L27.4 81.5 L27.1 81.6 L26.8 81.6 L26.6 81.8 L26.6 82.0 L26.8 82.3 L27.0 82.4 L26.3 83.0 L26.1 83.1 L25.5 83.3 L25.1 83.7 L24.9 83.7 L24.1 84.0 L24.0 84.0 L23.8 83.9 L23.9 83.7 L24.0 83.5 L24.1 83.5 L24.3 83.3 L24.5 83.0 L24.6 82.7 L24.7 82.6 L25.3 81.8 L25.5 81.3 L25.4 80.9 L25.2 80.6 L24.7 80.3 L24.9 80.2 L24.9 80.1 L24.9 80.1 L24.7 80.0 L24.6 80.0 L24.7 79.8 L24.9 79.7 L25.0 79.7 L25.2 79.6 L25.9 79.3 L26.2 79.3 L26.5 79.0 L27.2 78.7 L27.9 78.2 L28.7 78.0 L29.4 77.6 L29.8 77.4 L30.3 77.2 L30.7 77.1 L31.4 77.2 L31.6 77.1 L31.8 77.0 L32.1 76.6 L32.3 76.4 L32.6 76.5 L33.1 76.4 L33.5 76.2 L33.7 75.8 L33.2 75.1 L33.1 75.0 L33.0 75.0 L32.0 75.1 L31.7 75.3 L31.5 75.3 L30.5 75.3 L30.1 75.4 L28.9 75.9 L28.5 75.7 L28.3 75.6 L28.0 75.6 L27.8 75.7 L27.6 75.8 L27.4 75.8 L27.0 75.7 L26.7 75.7 L26.0 75.9 L23.2 75.8 L22.9 75.8 L22.6 75.7 L22.5 75.5 L22.4 75.2 L22.3 75.0 L22.4 74.8 L22.4 74.4 L22.2 74.1 L22.0 73.9 L22.1 73.9 L22.2 73.8 L22.7 73.9 L23.2 73.7 L23.5 73.4 L23.6 73.0 L23.8 72.8 L24.6 72.2 L24.5 72.1 L24.5 72.0 L24.6 71.9 L24.7 71.9 L24.7 71.9 L24.6 71.9 L24.6 71.8 L24.6 71.8 L24.8 71.7 L24.8 71.7 L24.8 71.6 L24.8 71.5 L24.9 71.6 L24.9 71.7 L25.0 71.7 L25.1 71.6 L25.2 71.5 L25.3 71.2 L25.4 71.2 L25.5 71.3 L25.6 71.3 L25.7 71.4 L25.8 71.4 L26.0 71.3 L26.0 71.2 L25.9 71.1 L25.8 71.1 L26.0 70.9 L26.4 70.8 L26.6 70.7 L26.8 70.5 L26.7 70.5 L26.6 70.4 L26.5 70.3 L26.4 70.1 L26.5 70.0 L26.6 70.0 L26.8 70.0 L26.9 69.9 L27.0 69.7 L27.0 69.5 L26.6 69.4 L26.5 69.2 L26.3 68.9 L26.3 68.7 L26.5 68.3 L26.4 68.2 L26.2 68.2 L26.2 68.1 L26.5 67.8 L26.3 67.5 L26.2 67.2 L26.3 67.0 L26.5 66.6 L26.2 66.4 L26.4 66.3 L27.3 66.2 L27.6 66.1 L28.0 65.8 L28.4 65.6 L28.5 65.6 L28.5 65.5 L28.6 65.4 L28.7 65.4 L29.5 64.8 L29.6 65.0 L29.9 65.1 L30.2 65.2 L30.5 65.1 L30.7 65.0 L30.8 64.7 L30.9 64.4 L30.9 64.1 L30.8 63.8 L30.6 63.1 L30.5 62.6 L30.4 62.3 L30.3 62.1 L30.4 62.0 L30.3 61.6 L30.4 61.4 L30.3 61.3 L30.3 61.2 L30.3 61.1 L30.3 61.0 L30.0 61.3 L29.8 61.2 L29.2 60.9 L28.3 60.5 L28.5 60.3 L28.5 60.1 L28.3 60.0 L28.0 59.9 L27.5 59.8 L27.1 59.6 L26.8 59.5 L26.4 59.5 L26.3 59.4 L26.2 59.1 L26.2 58.7 L26.4 58.4 L27.0 58.0 L28.5 58.0 L29.2 57.9 L29.4 57.7 L29.6 57.4 L29.6 57.1 L29.6 57.0 L29.7 56.9 L29.7 56.9 L29.7 56.7 L29.7 56.7 L29.7 56.6 L29.5 56.5 L29.5 56.5 L29.6 56.4 L29.6 56.3 L29.8 56.2 L30.2 55.9 L30.4 55.8 L30.7 55.8 L32.1 55.9 L32.3 55.9 L32.5 55.8 L32.8 55.6 L33.0 55.5 L33.1 55.6 L33.4 55.8 L33.6 55.8 L33.7 55.8 L33.8 55.7 L34.0 55.5 L34.2 55.5 L34.3 55.5 L34.5 55.5 L34.6 55.5 L34.8 55.4 L34.9 55.3 L35.2 55.4 L35.3 55.4 L35.5 55.2 L35.6 55.0 L35.7 54.9 L35.9 54.8 L36.2 54.7 L36.5 54.2 L36.9 54.1 L36.9 54.1 L37.2 54.1 L37.4 54.1 L37.7 54.3 L37.9 54.4 L38.1 54.4 L38.4 54.4 L38.8 54.5 L38.8 54.4 L38.8 54.4 L38.9 54.3 L39.2 54.0 L39.4 53.9 L39.7 53.9 L40.2 53.9 L40.7 54.2 L41.1 54.5 L41.7 55.2 L42.0 55.5 L42.4 55.7 L43.5 56.1 L43.7 56.3 L44.1 56.6 L44.2 56.8 L44.5 56.7 L44.3 56.6 L44.3 56.6 L44.4 56.5 L44.5 56.5 L44.4 56.5 L44.4 56.5 L44.3 56.4 L44.3 56.4 L44.6 56.3 L44.8 56.3 L44.9 56.1 L45.0 56.2 L45.1 56.2 L45.1 56.1 L45.2 56.0 L46.3 55.8 L46.9 55.8 L47.6 56.1 L47.8 56.1 L48.0 56.1 L48.2 56.1 L48.2 56.0 L48.0 55.9 L48.0 55.7 L48.0 55.5 L48.1 55.4 L48.1 55.4 L48.2 55.4 L48.3 55.4 L48.3 55.4 L48.6 55.4 L48.7 55.4 L49.1 55.4 L49.5 55.6 L49.7 55.6 L50.4 55.6 L50.6 55.6 L51.2 55.7 Z" fill="#172033" fill-rule="evenodd"/></svg>
