<svg xmlns="http://www.w3.org/2000/svg" viewBox="0 0 320 200" role="img"><path d="M186.6 99.7 L184.4 99.3 L183.0 101.6 L182.3 105.1 L182.5 108.5 L184.8 115.8 L185.2 119.3 L181.8 122.2 L181.9 125.6 L182.3 127.8 L183.5 134.3 L184.1 136.0 L184.9 137.5 L187.0 140.6 L191.5 143.7 L188.0 147.3 L186.5 153.5 L186.5 160.5 L187.3 166.5 L184.8 166.0 L181.9 166.8 L179.2 168.5 L177.1 170.3 L175.0 171.7 L172.3 172.7 L166.9 173.9 L165.7 174.1 L164.0 174.2 L156.7 173.0 L154.1 173.3 L146.5 174.8 L137.1 173.9 L126.9 174.8 L126.8 174.7 L122.0 173.9 L120.9 174.2 L117.5 175.6 L116.2 175.7 L113.8 176.2 L112.6 176.4 L110.9 176.1 L109.8 175.5 L108.7 174.7 L107.3 173.9 L105.1 173.3 L102.6 173.0 L92.3 173.0 L89.5 173.3 L87.3 174.3 L85.6 175.7 L83.3 177.0 L80.8 178.0 L78.7 178.0 L76.2 176.3 L77.3 174.7 L81.2 172.7 L81.8 172.2 L83.1 171.8 L86.9 171.1 L87.7 170.4 L89.0 168.6 L90.8 167.2 L92.8 166.2 L102.0 163.5 L102.6 163.2 L107.1 161.1 L110.7 158.0 L110.7 157.9 L110.6 154.3 L112.1 153.5 L113.9 153.5 L120.1 154.6 L124.8 154.4 L125.2 154.4 L126.5 154.3 L127.8 153.8 L129.4 152.5 L130.9 150.9 L131.8 149.4 L132.2 147.0 L132.1 146.1 L131.9 145.0 L131.3 143.1 L131.0 140.8 L130.8 140.2 L129.7 139.3 L129.3 138.8 L129.3 138.1 L129.6 138.0 L130.0 137.9 L130.2 137.5 L130.1 136.6 L129.4 134.3 L129.0 133.5 L128.7 131.8 L129.4 129.4 L131.0 125.7 L131.8 121.2 L131.8 116.5 L130.6 112.1 L127.7 108.5 L128.6 107.8 L123.8 104.6 L121.4 103.5 L118.0 102.0 L115.5 101.4 L109.4 101.0 L108.6 100.8 L108.1 100.2 L107.3 98.8 L113.5 94.6 L115.1 93.9 L120.0 94.3 L125.5 93.0 L128.5 93.1 L129.0 93.1 L130.5 92.4 L131.4 91.2 L132.0 90.7 L132.6 92.2 L133.5 92.2 L133.5 91.8 L133.5 90.6 L134.2 90.6 L134.3 91.2 L134.5 91.5 L134.8 91.7 L135.1 92.2 L134.2 93.1 L135.2 92.9 L135.9 92.3 L136.4 91.7 L136.7 91.5 L139.0 91.4 L139.2 91.5 L140.2 90.6 L142.4 88.0 L143.2 87.3 L144.8 87.2 L145.3 87.1 L151.6 87.9 L165.4 88.0 L166.4 87.2 L168.4 85.7 L175.4 84.9 L177.5 84.0 L193.0 82.3 L197.9 83.2 L192.8 92.0 L186.6 99.7 Z M242.8 22.0 L243.7 22.9 L243.8 25.8 L243.4 29.5 L242.5 32.1 L241.2 31.8 L240.4 31.8 L239.7 33.6 L238.7 33.8 L237.5 33.4 L236.3 33.4 L236.1 33.9 L234.3 36.3 L233.9 36.3 L231.1 38.0 L230.2 38.7 L228.9 39.5 L227.4 39.5 L226.0 39.2 L224.8 39.2 L217.6 42.7 L215.5 43.2 L212.3 46.0 L210.3 46.8 L209.5 44.9 L207.7 45.7 L206.0 45.5 L205.0 44.3 L205.3 42.5 L206.3 42.0 L208.0 41.7 L209.5 41.1 L210.2 39.6 L211.4 38.0 L221.5 31.5 L223.6 29.4 L224.8 28.5 L226.4 27.7 L230.3 26.3 L233.6 25.6 L235.0 24.8 L236.5 24.6 L238.4 25.7 L239.3 25.6 L241.5 22.9 L242.8 22.0 Z" fill="#172033" fill-rule="evenodd"/></svg>
