<svg xmlns="http://www.w3.org/2000/svg" viewBox="0 0 320 200" role="img"><path d="M241.3 37.6 L238.0 41.2 L237.5 41.9 L237.1 43.0 L236.8 44.2 L236.8 45.5 L236.8 46.6 L237.4 49.1 L237.3 49.7 L237.1 50.4 L237.1 51.7 L237.7 52.6 L238.9 53.3 L240.2 53.5 L240.2 53.8 L239.6 53.7 L239.1 53.8 L238.6 53.9 L238.3 54.1 L238.8 54.9 L239.0 56.0 L238.9 56.9 L237.8 57.4 L237.7 57.8 L237.9 58.3 L238.2 58.7 L238.3 59.2 L237.8 59.6 L236.8 60.1 L235.5 61.4 L235.5 61.9 L235.6 63.0 L235.3 63.5 L235.1 63.8 L235.0 64.3 L234.9 65.4 L234.8 65.6 L234.6 65.8 L234.5 66.0 L234.7 66.3 L234.7 66.3 L234.9 66.5 L235.0 66.7 L235.1 66.9 L235.2 67.1 L234.9 67.5 L233.9 68.4 L232.8 69.8 L232.0 70.4 L231.7 70.7 L231.9 71.0 L231.7 71.3 L230.6 72.1 L230.1 72.5 L229.6 73.4 L229.1 75.4 L227.8 77.1 L227.6 77.8 L227.6 78.6 L227.9 79.4 L228.2 79.8 L228.4 79.9 L228.5 80.2 L228.6 80.7 L228.4 81.3 L227.7 82.2 L227.6 82.7 L227.5 83.8 L227.0 86.4 L225.8 89.1 L224.4 95.5 L223.6 97.1 L221.7 107.4 L220.9 111.7 L220.5 112.5 L219.2 114.0 L218.8 114.8 L218.4 115.7 L218.1 117.6 L218.2 119.2 L218.0 120.8 L217.1 122.4 L216.8 122.7 L215.9 123.3 L215.6 123.6 L215.4 124.0 L215.1 124.9 L214.2 126.3 L213.7 128.4 L213.4 129.4 L211.6 131.8 L211.3 132.2 L208.9 134.1 L208.3 134.7 L208.2 135.1 L208.4 136.2 L208.3 136.6 L208.1 137.1 L207.7 137.7 L206.9 138.7 L206.1 139.4 L203.2 141.1 L201.3 143.1 L200.9 143.3 L200.5 143.7 L199.6 145.9 L199.1 146.7 L197.7 148.3 L197.2 149.3 L196.8 151.3 L196.0 154.0 L194.3 156.7 L194.1 157.6 L193.8 160.3 L193.8 162.6 L194.0 171.0 L193.7 172.2 L193.3 173.2 L192.7 173.6 L192.0 174.2 L192.0 175.6 L192.2 177.0 L192.2 178.0 L191.4 176.9 L190.2 176.1 L188.8 175.5 L187.4 175.2 L187.4 176.2 L187.0 176.6 L186.4 176.5 L185.7 176.0 L185.7 175.6 L185.9 174.5 L184.9 173.0 L184.9 172.6 L184.9 172.2 L184.9 171.7 L184.9 170.0 L185.0 169.4 L185.5 168.9 L185.6 168.4 L182.1 160.0 L181.8 159.5 L180.8 158.4 L180.1 156.8 L179.7 156.4 L178.3 155.3 L177.7 155.0 L177.5 155.0 L177.3 154.8 L177.2 154.2 L177.0 154.0 L176.3 153.6 L174.5 152.8 L173.7 152.3 L172.9 151.6 L172.5 151.4 L172.0 151.2 L171.7 151.2 L171.4 151.3 L171.0 151.3 L168.7 149.6 L166.6 146.9 L168.8 149.3 L168.6 148.2 L168.2 147.5 L167.9 147.0 L167.0 146.0 L165.4 144.7 L164.8 144.0 L164.5 143.2 L164.9 142.5 L165.1 141.8 L164.8 140.9 L164.3 139.9 L163.5 138.7 L162.7 137.1 L162.5 136.3 L162.5 135.9 L162.8 135.3 L162.8 134.9 L162.7 134.7 L162.5 134.5 L162.3 134.3 L162.2 133.9 L161.7 133.1 L161.5 132.8 L161.2 130.6 L161.0 129.6 L160.7 129.0 L160.0 128.4 L160.8 127.8 L161.3 126.9 L161.1 126.0 L160.0 125.9 L159.8 126.2 L159.6 126.7 L159.3 127.2 L158.7 127.1 L158.5 126.8 L158.5 125.6 L158.4 125.2 L157.7 125.0 L157.3 125.3 L157.0 125.8 L156.5 125.9 L156.0 125.5 L155.8 124.9 L156.0 124.4 L156.2 124.0 L156.7 123.7 L157.3 123.7 L157.9 123.5 L158.1 123.0 L157.8 122.8 L156.2 122.4 L156.2 122.1 L157.5 122.1 L157.4 121.6 L156.7 121.0 L156.2 120.5 L156.3 119.9 L156.7 119.6 L157.2 119.5 L157.4 119.1 L157.3 118.5 L157.1 117.9 L157.2 117.5 L157.5 116.9 L157.9 116.4 L157.8 116.1 L157.9 115.7 L158.5 114.3 L158.7 114.0 L159.2 113.9 L158.5 113.5 L158.8 112.8 L159.5 112.8 L160.1 112.5 L160.3 112.6 L160.2 112.1 L159.8 112.4 L159.4 112.3 L159.0 112.3 L159.0 111.7 L159.4 110.8 L160.1 110.8 L161.0 110.8 L160.4 109.1 L159.6 107.8 L160.0 107.2 L160.0 106.9 L159.5 106.7 L159.5 106.4 L159.8 106.1 L160.0 105.7 L160.7 104.8 L159.2 104.9 L159.2 103.5 L160.0 102.7 L159.9 100.0 L160.1 98.1 L160.5 96.5 L161.3 95.3 L161.5 93.6 L161.9 92.2 L162.2 91.8 L163.2 90.4 L163.4 90.0 L163.6 89.8 L164.5 89.1 L164.8 88.6 L165.1 87.5 L165.3 87.0 L166.5 85.9 L166.9 85.4 L167.4 84.2 L168.1 82.9 L169.1 80.4 L169.6 79.6 L170.1 79.1 L170.6 78.9 L170.9 78.7 L171.2 78.5 L171.3 78.0 L171.5 77.5 L172.4 76.9 L172.6 76.4 L172.7 74.8 L172.9 74.4 L173.4 73.9 L175.4 71.8 L175.5 71.7 L175.6 71.2 L176.2 70.7 L176.6 69.7 L177.0 67.7 L178.7 65.2 L179.2 63.6 L179.8 62.7 L182.1 60.3 L183.4 59.1 L183.7 58.4 L183.8 57.4 L184.2 56.5 L185.3 54.8 L185.5 53.8 L185.8 53.4 L187.0 53.1 L187.3 52.7 L187.5 52.3 L187.8 51.9 L188.5 51.2 L189.3 50.7 L190.3 50.4 L191.6 50.7 L191.4 49.8 L191.9 49.2 L192.5 48.6 L192.8 47.7 L193.0 47.4 L193.6 47.1 L193.9 46.2 L194.8 44.4 L195.2 43.9 L195.4 43.7 L195.4 43.4 L195.2 43.1 L195.0 42.8 L195.3 42.3 L195.6 42.0 L195.6 42.0 L195.9 41.6 L196.0 41.0 L196.1 40.6 L196.5 40.1 L197.0 39.8 L197.4 39.6 L197.4 39.4 L197.5 39.0 L197.9 38.0 L198.2 37.5 L199.8 35.2 L201.0 33.9 L202.3 32.9 L205.5 32.0 L206.3 31.5 L206.9 31.0 L207.7 30.6 L209.3 30.1 L212.8 29.6 L214.8 29.2 L215.6 28.9 L216.7 28.1 L217.0 28.0 L217.4 27.9 L217.9 27.9 L218.6 28.1 L218.9 28.5 L219.1 28.9 L219.4 29.2 L220.0 29.0 L219.4 28.1 L218.3 27.1 L217.8 26.8 L218.0 26.4 L218.3 26.2 L218.6 26.0 L218.7 25.9 L219.1 25.0 L219.7 24.1 L220.8 23.2 L222.5 22.4 L224.4 22.0 L226.3 22.2 L227.1 22.7 L228.9 25.0 L229.5 26.2 L229.7 26.1 L230.2 26.0 L230.7 25.9 L231.1 26.0 L231.1 26.1 L230.9 26.4 L230.7 26.6 L230.7 27.0 L230.9 27.2 L231.6 27.6 L231.7 27.8 L232.0 28.0 L232.7 28.2 L240.7 30.0 L241.3 30.3 L241.0 30.9 L240.9 31.4 L241.0 32.2 L241.5 33.6 L241.9 34.2 L242.3 34.4 L243.5 34.2 L244.2 34.3 L244.9 34.5 L245.6 34.8 L245.9 35.2 L242.3 36.8 L241.3 37.6 Z M225.5 171.5 L226.3 172.1 L226.7 172.5 L226.6 173.0 L225.7 173.2 L224.4 172.8 L223.2 172.0 L222.5 171.4 L222.7 170.9 L222.7 170.5 L222.5 170.2 L222.2 169.8 L225.7 169.8 L225.7 170.1 L225.6 170.3 L225.4 170.7 L225.4 171.1 L225.5 171.5 Z M79.4 57.3 L80.7 57.0 L81.9 58.1 L82.8 60.1 L82.6 61.5 L81.9 62.2 L80.7 61.5 L79.8 61.3 L78.4 61.4 L77.1 62.1 L76.5 63.1 L75.9 63.4 L75.2 63.1 L74.7 63.0 L74.3 62.9 L74.1 62.5 L74.2 62.4 L74.5 62.0 L74.7 61.8 L74.7 61.4 L74.7 61.1 L74.6 60.4 L74.2 59.7 L74.2 59.4 L74.5 59.2 L75.8 58.6 L77.6 59.7 L78.8 59.5 L79.0 58.1 L79.4 57.3 Z M137.2 99.7 L138.0 101.0 L138.2 101.7 L138.1 102.2 L137.8 101.9 L137.4 101.6 L136.9 101.5 L136.2 101.9 L135.7 101.9 L135.4 102.0 L135.3 102.3 L135.1 102.9 L135.0 103.1 L134.2 103.6 L133.3 103.7 L132.5 103.4 L131.6 102.6 L131.8 102.2 L132.3 102.7 L133.0 102.8 L133.8 102.6 L134.4 102.2 L134.0 102.0 L133.6 101.8 L133.4 101.6 L133.1 101.2 L133.0 101.4 L133.0 101.4 L133.0 101.5 L132.8 101.5 L132.7 100.9 L132.8 100.3 L133.1 100.3 L133.5 100.3 L134.8 99.6 L135.6 99.3 L135.4 100.1 L135.3 100.3 L136.0 100.1 L136.5 100.1 L136.9 100.1 L137.2 99.7 Z" fill="#172033" fill-rule="evenodd"/></svg>
