<svg xmlns="http://www.w3.org/2000/svg" viewBox="0 0 320 200" role="img"><path d="M131.5 144.3 L131.3 144.1 L130.2 143.7 L129.5 143.3 L129.4 143.3 L129.1 143.3 L129.0 143.2 L129.0 143.1 L128.9 142.9 L128.9 142.8 L128.7 142.6 L128.5 142.5 L127.4 142.4 L126.2 142.1 L125.6 142.1 L125.4 142.0 L125.2 141.6 L124.9 141.0 L124.8 140.8 L124.3 140.4 L123.7 140.3 L121.8 140.3 L121.5 140.3 L121.2 140.2 L120.9 140.0 L120.4 139.4 L120.2 139.4 L120.1 139.3 L119.9 139.3 L119.6 139.3 L119.5 139.4 L119.4 139.3 L118.9 139.1 L118.6 139.0 L118.3 139.1 L118.1 139.3 L117.8 139.4 L117.2 139.2 L116.9 138.7 L116.9 138.0 L117.2 137.4 L115.0 136.8 L114.7 136.8 L114.2 137.1 L113.9 137.2 L113.6 137.2 L113.4 137.1 L112.0 136.0 L111.6 135.6 L111.5 135.0 L111.5 134.4 L111.4 134.0 L111.1 133.8 L110.6 133.6 L110.3 133.5 L110.0 133.1 L109.8 133.0 L109.6 133.0 L109.4 133.0 L109.2 133.0 L109.0 132.9 L109.0 132.8 L108.9 132.5 L108.9 132.4 L108.7 132.4 L108.7 132.4 L108.6 132.4 L108.5 132.5 L108.4 132.5 L107.6 132.8 L107.5 132.8 L107.4 132.9 L107.2 132.9 L107.0 132.7 L106.8 132.4 L106.6 132.3 L106.2 132.3 L105.9 132.4 L105.6 132.6 L105.3 132.8 L104.7 132.8 L104.1 132.5 L103.5 132.2 L103.0 131.8 L102.0 130.8 L101.1 129.5 L100.4 128.0 L100.0 126.6 L99.6 125.3 L98.6 122.8 L95.5 118.0 L95.1 116.6 L95.0 115.6 L94.4 113.8 L93.4 111.5 L92.5 110.1 L90.4 107.7 L89.3 106.8 L88.6 106.5 L87.2 105.7 L85.3 104.3 L84.8 103.8 L84.5 103.2 L83.8 101.3 L82.8 100.0 L82.4 99.3 L82.2 98.8 L81.9 97.0 L81.5 95.4 L81.5 94.8 L81.8 93.9 L82.8 92.4 L83.3 91.6 L83.5 90.5 L83.2 89.3 L81.8 86.0 L81.2 83.6 L80.0 81.5 L79.6 80.4 L79.5 80.3 L79.3 79.1 L79.2 77.9 L79.5 76.7 L80.4 74.3 L80.5 73.1 L80.5 72.5 L80.4 72.3 L83.8 72.2 L84.5 72.4 L85.1 72.5 L85.2 72.5 L85.4 72.4 L85.4 72.2 L85.4 72.0 L85.5 71.8 L85.6 71.7 L85.8 71.6 L85.9 71.5 L85.9 71.2 L85.9 71.2 L86.2 71.0 L86.3 71.1 L86.5 71.1 L86.7 71.2 L86.9 71.1 L87.6 70.8 L88.2 70.3 L88.7 70.0 L88.8 69.9 L89.1 69.7 L89.3 69.5 L89.7 68.6 L89.8 68.4 L90.8 67.6 L91.3 67.0 L91.6 66.4 L91.6 66.3 L91.9 65.8 L92.1 64.7 L92.3 64.5 L93.0 63.7 L93.6 62.7 L94.0 62.5 L94.6 62.7 L94.7 62.4 L94.6 62.2 L94.5 62.0 L94.5 61.7 L94.5 61.5 L94.5 61.5 L94.6 61.2 L95.2 60.3 L95.3 60.0 L95.3 59.7 L95.3 59.4 L95.4 59.3 L95.8 59.0 L95.8 58.9 L95.8 58.7 L95.9 58.7 L96.1 58.7 L96.2 58.7 L96.2 58.7 L96.4 58.7 L96.5 58.6 L96.5 58.5 L96.5 58.5 L96.9 58.4 L97.0 58.3 L97.1 58.2 L97.3 58.0 L98.0 57.7 L98.4 57.3 L98.4 56.9 L97.9 56.7 L97.8 56.7 L98.1 56.3 L98.4 56.1 L98.7 55.9 L99.1 55.7 L99.3 55.7 L99.4 55.6 L99.5 55.5 L99.6 55.3 L99.9 55.5 L100.3 55.5 L100.7 55.2 L100.9 54.8 L100.9 54.8 L100.8 54.5 L100.8 54.4 L101.0 54.1 L101.2 53.7 L101.2 53.6 L101.2 53.4 L101.1 53.3 L100.9 53.1 L100.9 53.0 L100.9 52.9 L101.0 52.8 L100.9 52.7 L100.8 52.5 L100.4 52.1 L100.4 51.9 L100.5 51.7 L100.9 51.2 L101.0 51.1 L101.1 50.9 L100.7 50.9 L100.0 51.1 L99.7 51.1 L99.5 51.1 L99.2 50.9 L99.0 50.8 L98.8 50.8 L98.7 50.9 L98.5 50.9 L98.3 50.9 L98.3 50.8 L98.3 50.6 L98.2 50.5 L98.2 50.4 L98.0 50.4 L97.0 49.8 L96.9 49.8 L96.7 49.8 L96.5 50.0 L96.2 50.4 L96.2 50.4 L96.2 50.4 L96.1 50.2 L96.0 50.1 L95.9 50.0 L96.0 49.8 L95.7 49.8 L95.5 49.6 L95.1 49.1 L95.1 48.8 L95.2 48.5 L95.6 48.1 L95.6 47.7 L95.6 47.5 L95.7 47.3 L96.6 46.4 L96.7 46.2 L96.3 46.3 L95.8 46.5 L95.5 46.6 L95.2 46.6 L95.1 46.5 L95.1 46.1 L95.2 45.9 L95.6 45.6 L95.7 45.4 L95.8 45.3 L95.9 44.8 L96.5 43.5 L96.6 43.1 L97.1 42.5 L97.4 42.4 L97.7 42.4 L98.0 42.5 L98.3 42.5 L98.5 42.4 L98.7 42.0 L98.9 41.8 L99.1 41.8 L99.2 41.9 L100.0 42.2 L100.1 42.3 L100.2 42.2 L100.3 42.2 L100.5 42.1 L100.8 42.0 L101.0 41.9 L101.2 41.7 L101.3 41.5 L101.4 41.2 L101.3 40.2 L101.5 39.5 L102.0 37.9 L101.8 37.5 L101.7 37.3 L101.5 37.1 L101.2 36.9 L100.9 37.0 L101.1 36.2 L101.1 35.8 L100.6 35.7 L100.7 35.6 L100.8 35.5 L101.0 35.3 L100.9 35.0 L101.0 34.8 L101.2 34.6 L101.2 34.4 L101.1 33.8 L101.1 33.6 L101.2 33.2 L101.2 33.1 L101.1 32.9 L101.0 32.8 L101.0 32.7 L101.2 31.5 L101.2 31.1 L101.1 30.8 L100.8 31.0 L100.6 30.8 L100.4 30.5 L100.3 29.9 L100.2 29.8 L100.0 29.6 L99.8 29.3 L99.7 29.1 L99.8 29.0 L99.8 28.9 L99.9 28.5 L99.8 28.1 L99.5 27.9 L99.2 27.9 L98.3 27.5 L98.1 27.5 L97.9 27.3 L97.8 27.1 L97.3 27.0 L97.1 26.8 L97.1 26.6 L97.1 26.5 L97.1 26.4 L97.1 26.3 L97.2 26.3 L97.1 26.2 L97.0 26.0 L96.9 25.7 L96.6 25.3 L96.6 25.1 L96.5 24.7 L96.4 24.6 L96.3 24.5 L96.2 24.5 L96.1 24.5 L96.0 24.5 L95.9 24.5 L95.8 24.4 L95.9 24.3 L95.9 24.2 L96.0 24.1 L95.9 23.9 L95.7 23.8 L95.7 23.6 L95.7 23.5 L95.8 23.3 L95.9 23.2 L95.9 23.2 L96.1 23.1 L96.2 23.1 L96.3 23.2 L96.4 23.2 L96.5 23.3 L96.7 23.3 L97.0 23.2 L97.7 23.1 L98.0 23.2 L98.3 23.3 L98.5 23.1 L99.1 22.6 L99.3 22.5 L99.8 22.3 L100.4 22.0 L100.9 22.1 L101.1 22.2 L102.0 22.2 L104.7 22.2 L107.4 22.2 L107.7 22.2 L110.0 22.2 L112.7 22.2 L115.3 22.2 L117.9 22.2 L118.0 22.2 L120.6 22.2 L123.3 22.2 L126.0 22.2 L128.6 22.2 L128.6 22.2 L130.4 22.2 L131.3 22.2 L133.9 22.2 L136.6 22.2 L138.8 22.2 L139.3 22.2 L141.8 22.2 L141.9 22.2 L144.6 22.2 L145.8 22.2 L146.9 22.2 L146.9 22.2 L147.1 22.2 L147.2 22.6 L147.4 22.8 L147.9 22.8 L149.0 23.4 L152.1 25.1 L155.2 26.9 L157.6 28.2 L158.3 28.6 L161.5 30.4 L164.6 32.1 L165.2 32.5 L167.7 33.8 L170.8 35.6 L173.9 37.3 L177.0 39.1 L180.2 40.8 L183.3 42.5 L186.4 44.3 L189.5 46.0 L192.6 47.8 L195.7 49.5 L196.9 50.1 L198.9 51.2 L200.1 51.9 L200.3 52.3 L200.5 53.8 L200.6 54.0 L200.9 55.8 L200.6 55.8 L200.5 55.9 L200.4 56.2 L200.4 56.4 L200.2 56.4 L199.8 56.6 L199.5 56.9 L199.3 57.1 L199.2 57.2 L199.1 57.4 L199.1 57.6 L199.1 57.7 L199.2 57.8 L199.5 57.9 L199.5 58.0 L199.5 58.2 L199.4 58.5 L199.4 58.7 L200.1 58.7 L200.4 58.7 L200.7 58.8 L201.0 58.9 L201.2 59.1 L201.3 59.3 L201.5 60.2 L201.7 60.5 L201.9 60.8 L202.7 61.3 L203.9 62.2 L205.2 63.1 L206.4 64.0 L207.6 64.9 L208.9 65.8 L210.1 66.7 L211.3 67.5 L211.4 67.6 L212.6 68.5 L213.8 69.4 L215.1 70.2 L216.3 71.1 L217.6 72.0 L218.8 72.9 L220.0 73.8 L221.3 74.7 L222.5 75.6 L222.6 75.7 L222.9 75.8 L223.0 76.2 L222.9 76.6 L222.6 76.9 L222.2 77.1 L222.5 77.2 L222.7 77.2 L222.9 77.3 L222.9 77.6 L222.9 77.9 L222.8 78.2 L222.7 78.4 L222.3 79.2 L222.1 79.4 L222.0 79.2 L222.1 78.9 L222.2 78.6 L222.2 78.3 L222.1 78.1 L221.9 78.8 L221.6 79.1 L221.3 79.1 L221.6 79.5 L221.6 79.6 L221.7 80.4 L221.6 80.6 L221.5 80.6 L221.3 80.6 L221.2 80.6 L221.1 80.7 L221.0 81.0 L220.9 81.2 L221.1 81.2 L221.6 81.0 L221.6 81.2 L221.8 81.5 L221.8 81.7 L221.8 81.8 L221.2 82.3 L221.1 82.4 L220.8 83.0 L220.4 83.6 L220.3 83.8 L220.4 83.9 L220.6 83.7 L220.8 83.5 L220.9 83.6 L220.3 85.5 L220.1 85.8 L219.9 86.0 L219.8 86.1 L219.6 86.2 L219.5 86.3 L219.4 86.5 L219.5 86.7 L219.6 86.7 L219.7 86.8 L219.7 87.0 L219.5 87.6 L219.1 88.5 L218.6 89.2 L218.1 89.5 L218.3 89.6 L218.2 89.9 L218.2 90.6 L218.1 90.9 L217.9 91.1 L217.6 91.6 L217.3 92.1 L217.2 92.4 L217.1 92.8 L217.1 93.7 L217.1 93.8 L217.0 93.9 L216.9 94.1 L216.8 94.2 L216.8 94.3 L216.8 94.6 L216.6 94.9 L216.5 95.2 L216.5 95.6 L216.6 95.7 L216.8 95.9 L216.8 96.0 L217.0 96.5 L217.0 96.7 L217.1 96.8 L217.4 97.0 L217.7 97.2 L217.7 97.3 L217.7 97.8 L217.7 98.2 L217.6 98.5 L217.4 98.7 L217.5 99.0 L217.6 99.9 L217.8 100.2 L217.9 100.3 L218.1 100.4 L218.3 100.5 L218.3 100.7 L218.3 100.8 L218.4 101.0 L218.5 101.1 L218.6 101.3 L218.7 101.3 L218.8 101.3 L219.0 101.4 L219.1 101.4 L219.1 101.5 L219.2 101.6 L219.2 101.7 L219.4 101.7 L219.8 101.7 L220.0 101.8 L220.1 101.9 L220.3 101.8 L220.3 101.7 L220.1 101.6 L219.9 101.5 L219.6 101.4 L220.0 101.5 L220.3 101.6 L221.1 102.4 L221.6 103.0 L222.0 103.2 L222.1 103.3 L222.3 103.7 L222.5 103.9 L222.7 104.0 L222.8 104.1 L222.9 104.3 L223.0 104.5 L223.0 104.6 L223.1 105.0 L223.3 105.4 L223.6 105.6 L223.8 105.4 L223.9 105.8 L223.8 106.3 L223.8 106.9 L224.1 107.1 L224.1 106.9 L224.1 106.7 L224.0 106.6 L224.3 106.6 L224.5 106.7 L224.9 107.0 L225.1 107.0 L225.6 107.1 L225.7 107.2 L225.9 107.3 L226.5 107.2 L226.6 107.3 L226.6 107.5 L226.9 107.9 L227.0 108.3 L227.7 109.2 L227.8 109.3 L227.8 109.5 L227.7 109.6 L227.6 109.6 L227.6 109.7 L227.7 110.6 L227.7 111.0 L227.5 111.0 L227.3 111.2 L227.2 111.6 L227.1 111.8 L227.0 111.9 L226.8 111.9 L226.7 111.8 L226.7 111.5 L226.1 111.9 L226.0 112.0 L225.9 112.1 L225.9 112.4 L225.8 112.6 L225.8 112.8 L225.6 113.0 L225.4 113.2 L225.3 113.2 L225.2 113.2 L225.1 113.3 L225.1 113.4 L225.2 113.5 L225.2 113.6 L225.1 113.8 L224.9 113.8 L224.7 113.8 L224.5 113.8 L224.6 114.0 L224.8 114.2 L224.9 114.4 L224.9 114.7 L224.8 114.9 L224.7 115.2 L224.5 115.5 L224.2 115.8 L224.0 116.4 L223.7 118.0 L223.7 118.3 L223.8 118.6 L224.0 119.0 L224.0 119.3 L224.0 119.5 L223.9 119.7 L224.1 120.3 L224.1 120.5 L223.4 121.3 L223.8 121.2 L224.2 120.8 L224.4 120.3 L224.5 119.9 L224.7 120.0 L224.9 120.2 L224.9 120.4 L224.7 120.7 L225.2 120.6 L225.5 120.6 L225.7 120.8 L226.1 121.2 L226.2 121.4 L226.1 121.8 L225.9 122.2 L225.8 122.4 L226.0 122.9 L226.0 123.5 L226.1 123.7 L226.3 123.6 L226.4 123.5 L226.3 124.0 L226.2 124.4 L225.7 125.1 L225.2 126.4 L225.0 126.8 L224.9 126.8 L224.8 126.8 L224.8 126.8 L224.7 126.8 L224.8 127.0 L224.8 127.6 L224.8 127.8 L224.6 127.7 L224.6 127.8 L224.5 128.1 L224.3 127.9 L224.1 127.8 L224.0 127.7 L224.1 127.9 L224.1 128.1 L224.0 128.2 L223.8 128.3 L224.0 128.7 L224.1 129.1 L224.2 129.5 L224.2 129.9 L224.1 130.8 L224.1 131.2 L224.6 131.7 L224.8 132.0 L224.9 132.4 L225.0 132.7 L225.0 133.9 L224.9 134.2 L225.4 134.3 L225.5 134.4 L225.5 134.5 L225.6 134.6 L225.7 134.7 L226.0 134.7 L226.1 134.8 L226.1 135.0 L226.2 135.3 L226.3 135.5 L226.5 135.6 L226.6 135.7 L226.8 135.8 L227.0 136.0 L227.1 136.5 L227.3 136.8 L227.7 137.1 L227.8 137.2 L227.6 137.3 L227.4 137.3 L227.3 137.2 L227.1 137.1 L227.1 137.0 L226.8 136.8 L226.5 136.4 L226.3 136.3 L226.0 136.3 L225.8 136.4 L225.7 136.4 L225.7 136.5 L225.4 136.9 L225.6 137.0 L226.5 136.9 L226.3 137.1 L226.2 137.3 L226.3 137.4 L226.6 137.4 L226.9 137.5 L226.9 137.7 L226.8 137.9 L226.8 138.3 L226.8 138.3 L226.9 138.4 L227.0 138.5 L227.0 138.7 L227.0 138.8 L226.9 138.9 L226.9 139.0 L226.9 139.0 L227.0 139.0 L227.1 139.1 L227.1 139.2 L227.0 139.3 L227.0 139.4 L226.9 139.5 L226.9 139.7 L227.0 139.9 L227.0 140.0 L227.0 140.2 L227.2 140.1 L227.4 140.0 L227.7 139.8 L227.8 139.7 L228.0 139.7 L228.2 139.9 L228.8 140.7 L229.1 141.1 L229.2 141.5 L228.9 142.0 L228.9 142.1 L229.0 142.2 L229.1 142.3 L229.2 142.4 L229.2 142.6 L229.1 142.9 L229.1 143.0 L229.1 143.5 L229.1 143.7 L228.9 143.9 L228.7 144.1 L228.6 144.1 L228.4 144.1 L228.2 144.1 L228.0 144.2 L227.9 144.4 L227.9 144.6 L228.0 144.8 L228.1 144.8 L228.3 144.8 L228.6 144.7 L228.6 144.6 L228.7 144.5 L228.8 144.6 L228.9 144.7 L229.0 144.7 L229.0 144.7 L229.2 144.8 L229.2 145.0 L229.2 145.1 L229.2 145.2 L229.3 145.4 L229.6 145.7 L229.7 146.0 L229.9 146.8 L230.1 147.0 L230.3 147.1 L230.2 147.2 L230.1 147.3 L230.1 147.4 L230.1 147.6 L230.2 147.7 L230.4 147.9 L230.5 148.0 L230.4 148.3 L230.6 148.6 L230.5 148.7 L230.2 148.8 L229.9 149.0 L229.9 149.2 L230.0 149.2 L230.6 149.2 L230.7 149.2 L230.7 149.3 L230.8 149.7 L230.9 149.9 L231.2 150.0 L231.3 150.1 L231.4 150.3 L231.5 150.7 L231.4 151.0 L231.1 151.2 L230.7 151.1 L230.8 151.3 L231.2 151.6 L231.2 151.7 L231.1 151.9 L230.6 152.1 L230.1 152.2 L230.1 152.3 L230.3 152.7 L230.3 153.0 L230.1 153.2 L230.0 153.3 L229.8 153.5 L230.1 153.4 L230.8 152.6 L231.1 152.6 L231.3 152.8 L231.7 152.7 L232.1 153.0 L232.2 153.1 L232.5 153.0 L232.6 153.1 L233.0 153.4 L233.9 154.8 L233.9 155.6 L234.0 156.1 L234.2 155.9 L234.3 155.7 L234.3 155.4 L234.2 155.2 L234.1 154.9 L234.1 154.8 L234.3 154.8 L234.5 154.8 L234.8 154.9 L235.2 155.1 L235.5 155.1 L236.1 155.3 L236.1 155.3 L236.2 155.3 L236.2 155.5 L236.2 155.7 L236.1 155.9 L236.1 156.1 L236.2 156.3 L236.2 156.5 L236.1 156.5 L236.0 156.6 L235.9 156.7 L236.0 156.8 L236.1 156.8 L236.2 156.8 L236.2 156.8 L236.5 156.9 L236.6 156.9 L236.6 156.8 L236.6 156.7 L236.7 156.6 L236.8 156.6 L236.9 156.6 L237.1 156.8 L237.4 157.0 L237.6 157.2 L237.6 157.0 L237.6 156.9 L237.7 156.9 L237.7 156.8 L237.8 156.8 L237.9 156.9 L238.0 156.8 L238.1 156.8 L237.9 156.7 L237.1 156.4 L237.6 155.8 L237.8 155.8 L237.9 156.0 L237.9 156.2 L238.0 156.4 L238.1 156.5 L238.5 156.6 L238.6 156.8 L238.7 156.9 L239.2 157.9 L239.3 158.1 L239.4 158.0 L239.8 158.1 L239.9 158.2 L240.4 158.0 L240.5 157.7 L240.3 157.5 L240.0 157.6 L240.0 157.4 L240.0 157.3 L240.1 157.2 L240.3 157.2 L240.5 157.2 L240.5 157.3 L240.6 157.5 L240.7 157.6 L240.8 157.9 L240.6 158.1 L240.4 158.3 L240.2 158.6 L240.3 158.6 L240.5 158.6 L240.6 158.6 L240.4 159.1 L240.4 159.2 L240.5 159.3 L240.5 159.4 L240.6 159.6 L240.6 159.8 L240.4 160.2 L239.9 160.6 L239.4 161.0 L238.4 161.3 L237.9 161.7 L237.0 162.6 L236.8 162.9 L236.6 163.1 L236.2 163.2 L234.4 164.6 L234.1 164.8 L232.6 165.4 L231.1 166.4 L230.8 166.6 L228.3 167.1 L227.2 167.2 L227.0 167.2 L226.7 167.4 L223.9 169.6 L223.6 169.8 L223.2 169.9 L222.8 169.9 L222.5 169.8 L221.9 169.5 L221.6 169.4 L221.1 169.6 L220.6 169.7 L218.7 169.7 L218.2 169.8 L217.8 170.2 L217.6 170.3 L217.3 170.4 L217.1 170.5 L216.5 171.1 L216.2 171.2 L216.1 171.2 L215.8 171.1 L215.6 171.1 L215.4 171.1 L215.1 171.3 L214.7 171.4 L214.5 171.6 L214.2 172.0 L212.7 172.9 L212.4 173.4 L212.4 173.4 L211.9 173.1 L210.8 172.9 L210.3 172.6 L209.5 171.8 L208.9 171.4 L208.3 171.3 L208.1 171.3 L207.8 171.5 L207.6 171.5 L207.5 171.5 L207.2 171.3 L207.0 171.2 L207.0 171.2 L206.9 171.0 L206.9 171.0 L206.8 171.0 L206.7 171.0 L206.7 171.1 L206.7 171.1 L206.6 171.1 L206.2 171.1 L205.4 171.2 L205.3 171.4 L205.2 171.4 L204.6 171.4 L204.3 171.5 L203.4 172.0 L203.3 172.1 L203.3 172.4 L203.0 173.0 L202.9 173.2 L202.9 173.4 L202.6 174.1 L202.5 174.4 L202.6 174.6 L202.7 174.8 L202.7 174.9 L202.6 175.1 L202.4 175.3 L202.1 175.5 L201.0 176.0 L200.4 176.5 L200.1 176.6 L199.8 176.7 L199.3 176.7 L199.0 176.7 L198.5 177.0 L198.2 177.1 L198.0 177.1 L197.9 177.3 L197.8 177.5 L197.7 177.7 L197.6 177.8 L197.5 177.8 L197.2 177.9 L196.9 177.9 L196.2 177.7 L196.1 177.6 L195.8 177.3 L195.6 177.3 L195.5 177.3 L195.4 177.3 L195.3 177.4 L195.1 177.5 L194.6 177.5 L194.0 177.5 L192.8 177.2 L192.2 176.9 L191.7 176.5 L191.3 176.0 L191.2 175.6 L190.9 175.7 L190.8 175.8 L190.7 175.9 L189.3 176.0 L189.1 175.9 L188.8 175.7 L188.5 175.7 L188.3 175.6 L188.1 175.7 L187.4 176.5 L187.0 177.1 L186.9 177.2 L186.7 177.3 L186.2 177.5 L186.1 177.6 L186.0 177.7 L185.9 177.7 L185.5 177.8 L185.3 177.9 L184.4 178.0 L184.1 178.0 L183.7 177.8 L183.7 177.8 L183.6 177.7 L183.5 177.3 L183.4 177.3 L181.7 177.3 L181.6 177.3 L181.5 177.4 L181.4 177.4 L181.0 177.5 L180.4 177.7 L180.2 177.7 L180.1 177.6 L179.9 177.5 L179.7 177.5 L179.1 177.6 L178.9 177.5 L178.8 177.2 L178.7 176.9 L178.8 176.7 L178.7 176.4 L178.7 176.1 L178.6 175.8 L178.4 175.7 L178.3 175.6 L178.2 175.6 L178.1 175.5 L177.9 175.4 L177.8 175.3 L177.5 175.2 L177.3 175.2 L176.8 174.9 L176.5 174.7 L176.3 174.7 L176.0 174.8 L175.7 174.7 L175.6 174.4 L175.8 174.1 L175.5 173.8 L175.3 173.7 L174.8 173.7 L174.7 173.7 L174.3 173.5 L173.7 173.4 L173.5 173.5 L173.0 174.1 L172.8 174.3 L172.0 174.4 L171.8 174.6 L171.9 174.9 L171.7 175.0 L171.5 175.2 L171.4 175.4 L171.3 175.7 L171.2 175.8 L170.4 176.0 L170.4 176.0 L170.0 176.2 L169.8 176.1 L169.6 176.0 L169.4 176.0 L169.4 176.3 L169.2 176.2 L169.2 176.1 L169.1 176.0 L169.0 175.9 L168.9 175.8 L168.8 175.8 L168.8 175.9 L168.7 175.9 L168.7 175.9 L168.5 176.0 L168.4 176.0 L168.1 176.0 L167.9 175.9 L167.8 175.8 L167.8 175.8 L167.2 175.8 L161.2 175.7 L161.1 175.6 L161.1 174.8 L161.1 174.6 L161.0 174.4 L161.0 174.3 L160.9 174.2 L160.9 174.1 L160.7 174.0 L160.6 173.9 L160.5 173.5 L160.2 173.2 L160.1 173.1 L160.0 172.8 L159.7 172.6 L159.4 172.4 L158.8 172.2 L158.7 172.2 L158.5 172.2 L158.4 172.4 L158.3 172.4 L158.2 172.3 L157.8 171.7 L157.9 171.6 L158.1 171.6 L158.1 171.5 L158.1 171.4 L157.9 171.3 L157.7 171.1 L157.6 170.8 L157.6 170.5 L157.5 170.3 L157.4 170.2 L157.3 170.1 L157.0 170.1 L157.0 170.0 L156.9 169.9 L156.9 169.7 L156.2 169.1 L156.1 168.9 L156.0 168.5 L155.8 167.9 L155.8 167.6 L155.8 167.3 L156.1 166.9 L156.3 166.7 L156.5 166.1 L156.6 166.0 L156.6 165.3 L156.7 164.4 L156.7 164.0 L156.8 163.9 L156.9 163.8 L156.9 163.6 L156.8 163.5 L156.7 163.4 L156.7 163.3 L156.6 163.3 L156.6 163.2 L156.7 162.8 L156.7 162.5 L156.6 162.2 L156.3 161.9 L156.2 161.8 L156.3 161.5 L156.2 161.3 L156.2 161.3 L156.1 161.3 L156.0 161.3 L155.9 161.3 L155.7 161.1 L155.7 160.9 L155.6 160.7 L155.6 160.6 L155.6 160.5 L155.6 160.3 L155.7 160.0 L155.8 159.9 L155.7 159.6 L155.4 159.1 L155.4 158.8 L155.6 157.2 L155.7 157.1 L155.6 156.9 L155.5 156.6 L155.4 155.8 L154.9 154.7 L154.8 154.2 L154.8 154.1 L154.9 153.8 L155.0 153.6 L154.9 153.5 L154.8 153.0 L154.3 152.4 L154.2 152.1 L152.7 150.3 L152.7 150.2 L152.4 150.0 L152.4 150.0 L152.0 149.6 L152.0 149.5 L151.9 149.2 L151.9 149.0 L151.8 148.8 L151.3 148.6 L149.9 147.2 L149.5 147.0 L149.2 146.7 L149.1 146.6 L148.6 146.0 L148.4 145.9 L148.3 145.8 L148.3 145.8 L147.8 145.5 L147.3 145.3 L147.1 145.5 L146.9 145.7 L146.6 146.0 L146.4 146.3 L146.6 147.0 L146.6 147.2 L146.5 147.7 L146.5 147.9 L146.4 148.1 L146.3 148.3 L146.1 148.4 L146.1 148.5 L145.9 148.8 L145.7 148.6 L145.5 148.4 L145.2 148.1 L144.8 147.8 L144.4 147.7 L144.1 147.4 L143.7 147.1 L143.3 146.8 L142.8 147.0 L142.4 147.2 L142.1 147.2 L142.1 147.2 L141.7 147.2 L141.2 147.0 L140.8 147.0 L140.4 147.1 L140.1 147.3 L139.6 147.4 L139.0 147.4 L138.7 147.3 L138.5 147.1 L138.3 146.9 L138.1 146.3 L137.8 146.1 L137.0 145.5 L136.7 145.4 L136.6 145.4 L136.4 145.6 L136.2 145.6 L136.1 145.6 L135.8 145.5 L135.6 145.5 L135.5 145.6 L135.3 145.7 L135.1 145.8 L135.1 145.7 L134.7 145.6 L134.3 145.5 L134.1 145.4 L133.2 144.7 L132.5 144.0 L132.3 143.9 L132.0 143.9 L131.7 144.0 L131.5 144.3 Z M227.6 99.5 L227.7 99.6 L228.1 100.3 L228.0 100.9 L227.6 101.3 L227.1 101.5 L226.6 101.4 L226.4 101.2 L226.2 100.9 L226.0 100.6 L225.8 99.4 L225.8 99.2 L225.5 99.3 L225.5 99.4 L225.6 99.6 L225.7 99.8 L225.7 100.1 L225.6 100.2 L225.2 100.1 L225.3 99.8 L225.2 99.6 L224.8 99.2 L224.3 98.5 L224.2 98.4 L224.1 98.3 L223.9 98.4 L223.9 98.5 L224.0 98.5 L224.0 98.5 L224.0 98.6 L224.0 98.7 L223.8 98.5 L223.7 98.8 L223.8 99.1 L224.0 99.3 L223.9 99.3 L223.9 99.3 L223.8 99.3 L223.7 99.3 L223.6 99.2 L223.5 99.1 L223.5 99.1 L222.8 98.2 L222.6 98.0 L222.4 97.3 L222.3 97.1 L222.8 96.5 L222.7 95.6 L222.4 94.7 L222.5 93.9 L222.5 93.7 L222.5 93.5 L222.5 93.4 L222.6 93.3 L222.6 93.4 L222.8 93.5 L222.8 93.6 L223.0 93.2 L223.6 92.8 L223.8 92.5 L223.9 92.0 L224.0 91.0 L224.3 90.7 L224.5 91.2 L224.9 91.9 L225.0 92.5 L224.9 93.1 L224.9 93.3 L224.9 93.5 L225.1 93.9 L225.1 94.1 L225.1 94.4 L225.4 94.8 L225.6 95.5 L225.7 95.5 L226.0 95.6 L226.0 95.8 L226.0 96.0 L225.9 96.1 L225.9 96.3 L225.9 96.6 L225.9 96.7 L226.0 96.9 L226.1 97.1 L225.9 97.3 L225.8 97.4 L225.8 97.6 L226.0 97.5 L226.1 97.6 L226.2 97.7 L226.4 97.9 L226.4 97.7 L226.5 97.5 L226.6 97.5 L226.7 97.7 L226.7 97.7 L226.8 97.7 L226.8 97.6 L226.8 97.6 L227.0 97.6 L227.0 97.3 L226.9 96.9 L227.0 96.6 L227.2 96.9 L227.4 97.3 L227.6 99.5 Z" fill="#172033" fill-rule="evenodd"/></svg>
