<svg xmlns="http://www.w3.org/2000/svg" viewBox="0 0 320 200" role="img"><path d="M169.5 49.3 L170.4 49.3 L170.9 49.3 L171.3 49.5 L171.3 49.8 L171.4 50.1 L171.4 50.3 L171.7 50.4 L172.0 50.4 L172.8 50.1 L173.3 50.1 L174.3 50.3 L174.5 50.2 L176.6 49.6 L177.3 49.3 L177.8 48.7 L178.0 47.8 L178.1 47.5 L178.2 47.4 L178.4 47.4 L178.6 47.3 L178.7 47.1 L178.6 47.0 L178.3 46.6 L178.3 46.5 L178.5 45.9 L179.1 45.9 L180.4 46.2 L181.2 46.0 L184.2 47.0 L184.6 47.0 L185.5 46.9 L186.0 46.9 L186.3 46.9 L186.7 47.2 L187.0 47.2 L187.3 47.1 L188.8 46.2 L189.1 46.1 L189.3 46.1 L189.5 46.2 L189.6 46.2 L189.7 46.1 L189.9 45.9 L190.0 45.8 L190.3 45.8 L190.5 45.7 L190.9 45.4 L191.2 45.2 L191.4 45.2 L192.9 45.4 L193.9 45.4 L194.1 45.4 L194.5 45.6 L194.6 45.6 L194.8 45.7 L195.1 45.7 L195.3 45.6 L195.5 45.5 L195.7 45.4 L196.0 45.7 L195.9 46.2 L196.2 46.5 L196.5 46.5 L197.6 45.8 L198.9 45.4 L199.6 45.3 L200.3 45.4 L200.7 45.4 L200.9 45.6 L201.0 45.8 L201.2 46.1 L201.5 46.2 L202.2 46.5 L202.5 46.7 L202.8 47.3 L203.0 47.4 L204.0 47.8 L204.3 48.0 L204.5 48.3 L204.7 48.4 L204.8 48.6 L204.8 48.7 L204.8 48.9 L204.6 49.3 L204.6 49.3 L204.6 49.6 L204.7 50.1 L204.7 50.4 L204.9 50.7 L205.2 51.0 L205.3 51.3 L205.2 51.5 L205.2 51.6 L205.9 51.6 L206.2 51.8 L206.8 52.2 L206.9 52.3 L207.1 52.4 L207.2 52.4 L207.2 52.5 L207.3 52.7 L207.3 52.7 L207.5 52.8 L207.7 52.7 L207.9 52.7 L208.2 52.8 L208.7 53.2 L209.0 53.3 L209.4 53.5 L209.6 53.7 L210.0 54.3 L210.0 54.9 L209.5 55.3 L209.2 55.4 L208.3 55.4 L205.7 55.8 L205.1 56.0 L204.9 56.3 L205.1 56.5 L205.6 56.6 L205.8 56.7 L205.9 56.8 L206.0 57.1 L206.0 57.2 L206.1 57.4 L206.8 57.8 L207.0 58.0 L207.1 58.3 L207.2 58.6 L207.1 58.8 L207.0 59.1 L206.9 59.2 L207.0 59.4 L207.0 59.5 L207.1 59.6 L207.0 59.8 L206.9 59.9 L206.6 59.9 L206.5 60.0 L206.5 60.1 L206.7 60.3 L207.0 60.5 L207.2 60.6 L207.5 60.6 L207.7 60.7 L208.0 60.7 L208.3 60.5 L208.4 61.1 L208.0 61.6 L207.4 62.0 L206.5 62.4 L207.6 62.7 L208.0 62.7 L208.3 62.6 L208.9 62.3 L209.4 62.3 L210.0 62.3 L211.0 62.6 L211.6 62.7 L212.5 62.6 L213.0 62.6 L213.2 62.7 L213.3 63.0 L213.4 63.2 L213.5 63.4 L213.8 63.6 L214.0 63.6 L215.1 63.7 L216.2 63.5 L217.5 63.2 L218.2 62.9 L218.4 62.9 L218.7 63.0 L219.0 63.1 L219.3 63.1 L219.6 63.0 L219.9 62.9 L220.2 63.0 L220.4 63.2 L220.5 63.4 L220.9 64.8 L221.2 65.3 L221.6 65.6 L222.2 65.6 L223.2 65.4 L223.7 65.5 L224.0 65.5 L224.3 65.6 L224.4 65.8 L224.3 66.1 L224.1 66.2 L223.3 66.3 L223.3 66.5 L223.3 66.8 L223.3 66.9 L223.4 67.0 L223.5 67.1 L223.9 67.2 L224.0 67.3 L224.2 67.5 L224.3 67.7 L224.2 67.8 L224.2 68.1 L224.3 68.3 L224.7 68.5 L224.8 68.7 L224.8 68.9 L224.8 69.1 L224.8 69.3 L225.0 69.4 L225.4 69.6 L225.6 69.7 L225.7 69.8 L225.8 70.3 L225.8 70.6 L225.8 71.0 L226.2 71.3 L225.0 71.6 L224.8 71.8 L224.8 72.0 L225.5 73.8 L225.8 74.2 L226.4 74.3 L226.7 74.4 L227.0 74.5 L227.3 74.6 L227.5 74.9 L227.6 75.2 L227.6 75.5 L227.7 75.7 L228.1 76.0 L228.4 76.1 L228.7 76.2 L229.0 76.3 L229.3 76.3 L229.6 76.2 L229.7 76.2 L229.9 76.0 L230.0 75.8 L230.3 75.7 L230.4 75.6 L230.7 75.6 L230.9 75.6 L231.0 75.5 L231.3 75.2 L231.5 75.1 L231.8 75.0 L233.3 74.9 L235.9 75.0 L236.4 75.2 L236.5 75.5 L236.9 75.6 L238.4 77.2 L238.8 77.3 L239.2 77.3 L239.5 77.2 L239.8 77.0 L240.1 76.8 L240.3 76.8 L240.4 76.8 L240.6 76.8 L240.9 76.9 L241.2 77.0 L241.7 77.2 L242.2 77.3 L242.3 77.3 L242.5 77.4 L242.6 77.4 L242.5 77.5 L242.5 77.8 L242.5 78.0 L242.5 78.1 L242.7 78.2 L243.1 78.3 L243.4 78.4 L243.8 78.3 L244.0 78.2 L244.2 78.1 L244.4 77.8 L244.6 77.6 L244.8 77.5 L247.3 76.5 L248.3 76.3 L249.3 76.3 L250.4 76.4 L252.6 75.9 L253.1 75.7 L254.0 75.1 L254.4 75.0 L256.0 74.9 L256.3 75.0 L256.5 75.4 L256.7 75.9 L257.0 76.3 L258.3 76.7 L258.8 77.0 L258.8 77.7 L258.7 78.0 L258.6 78.2 L258.7 78.4 L258.8 78.5 L259.3 78.8 L260.8 80.3 L261.3 80.5 L262.5 80.9 L263.1 81.1 L263.6 81.4 L264.1 81.8 L264.6 82.4 L264.6 82.4 L264.9 82.7 L264.9 82.9 L264.9 83.0 L265.3 82.9 L266.0 82.6 L266.1 82.6 L266.3 82.6 L266.6 82.7 L266.8 82.7 L267.5 82.4 L267.6 81.7 L267.4 81.0 L267.6 80.6 L267.8 80.5 L268.8 80.6 L269.2 80.5 L269.5 80.6 L269.7 80.7 L270.2 81.6 L270.4 81.8 L270.7 81.9 L271.4 81.9 L271.6 82.0 L272.0 82.2 L272.6 82.3 L273.7 82.2 L274.4 82.2 L274.6 82.2 L274.7 82.1 L275.1 82.1 L275.1 82.0 L275.1 82.1 L275.2 82.4 L275.3 82.6 L275.4 82.7 L275.5 82.8 L276.4 83.2 L278.0 83.5 L278.5 83.9 L278.9 84.2 L279.3 84.5 L280.7 84.4 L281.0 84.4 L281.3 84.2 L281.8 83.8 L282.0 83.6 L282.6 83.4 L283.0 83.6 L283.0 83.7 L283.9 85.1 L284.2 85.4 L284.7 85.6 L285.3 85.7 L285.9 85.6 L286.5 85.4 L287.0 85.3 L287.6 85.6 L287.9 85.7 L288.8 85.7 L289.0 85.9 L289.2 86.2 L289.4 86.9 L289.8 87.4 L290.2 87.6 L290.8 87.7 L291.4 87.9 L292.2 88.4 L292.5 88.5 L292.9 88.5 L293.4 88.5 L293.9 88.3 L294.3 88.2 L295.2 87.6 L295.5 87.5 L295.8 87.5 L297.3 87.8 L297.4 87.8 L297.6 87.9 L297.5 88.2 L297.3 88.5 L296.7 88.7 L296.4 88.8 L296.1 89.3 L296.2 89.8 L296.5 90.3 L297.1 90.9 L297.8 91.5 L298.0 91.7 L298.0 92.0 L297.7 92.5 L297.7 93.0 L297.6 93.2 L297.2 93.3 L296.9 93.5 L296.4 94.0 L296.1 94.2 L295.2 94.6 L294.8 94.9 L294.5 95.3 L294.4 95.5 L294.4 95.9 L294.3 96.1 L294.1 96.2 L293.9 96.2 L293.4 96.1 L293.0 96.1 L291.7 96.4 L290.9 96.4 L290.7 96.5 L290.6 97.3 L290.8 97.5 L291.1 97.6 L291.4 97.8 L291.6 98.0 L291.7 98.3 L291.9 98.4 L292.2 98.5 L293.4 98.7 L294.0 98.6 L294.2 98.7 L294.3 98.8 L294.6 99.0 L294.8 99.1 L295.1 98.9 L295.4 98.7 L295.7 98.5 L296.1 98.6 L296.4 98.8 L296.4 99.1 L296.2 99.4 L295.9 99.7 L295.2 100.0 L294.6 100.1 L292.9 99.6 L292.5 99.6 L292.2 99.7 L291.9 100.0 L291.7 100.1 L291.6 100.3 L291.5 100.5 L291.1 100.6 L291.0 100.7 L290.1 102.7 L289.9 103.1 L290.5 103.1 L290.8 103.0 L292.6 103.2 L293.0 103.3 L293.3 103.6 L293.5 104.0 L293.5 104.1 L293.5 104.2 L293.5 104.3 L293.6 104.3 L293.5 104.4 L293.4 104.5 L293.2 104.5 L293.1 104.5 L293.2 104.7 L293.3 104.8 L293.5 104.9 L294.0 105.6 L294.1 106.0 L294.2 106.2 L294.4 106.4 L294.0 106.6 L293.8 106.8 L292.7 107.4 L293.8 107.8 L294.1 107.8 L294.9 107.6 L295.2 107.7 L295.5 107.9 L295.4 108.2 L295.2 108.5 L295.0 108.7 L294.2 109.1 L293.9 109.3 L293.2 110.3 L293.0 110.6 L292.9 110.9 L293.2 111.4 L293.2 111.6 L293.1 111.6 L293.0 111.6 L292.2 111.7 L292.0 111.7 L291.9 111.9 L291.9 112.0 L292.0 112.1 L292.2 112.2 L292.4 112.6 L292.4 112.7 L292.4 112.9 L292.3 113.1 L292.2 113.3 L292.1 113.4 L292.2 113.5 L292.2 113.8 L292.2 113.9 L292.1 114.3 L291.9 114.7 L291.5 114.9 L291.0 115.0 L289.4 114.7 L289.0 114.7 L288.0 114.8 L287.6 114.8 L287.2 114.7 L286.6 114.8 L286.2 114.8 L286.0 114.7 L285.5 114.5 L285.1 114.5 L282.9 114.6 L282.3 114.7 L282.0 114.7 L281.7 114.7 L280.8 114.3 L280.8 114.3 L278.4 114.2 L277.7 114.4 L277.1 114.9 L276.7 115.5 L276.5 116.2 L276.3 116.8 L276.2 117.1 L275.9 117.1 L275.3 116.9 L275.1 117.0 L274.8 117.1 L274.2 117.5 L273.9 117.7 L273.5 117.8 L270.3 118.1 L269.8 118.4 L269.4 118.8 L269.1 119.3 L268.9 119.9 L269.0 121.0 L268.9 121.4 L268.5 121.9 L268.0 122.3 L267.9 122.6 L267.8 122.8 L268.0 123.0 L268.3 123.0 L268.9 122.9 L269.2 123.0 L269.4 123.0 L269.5 123.2 L269.5 123.5 L269.3 123.7 L269.0 123.9 L268.6 124.0 L268.3 124.1 L268.1 124.5 L268.0 124.9 L268.0 125.4 L268.3 125.8 L268.3 125.8 L267.9 126.1 L267.1 126.8 L266.6 127.0 L266.9 126.5 L266.9 126.3 L266.5 126.2 L266.0 125.9 L266.0 125.9 L265.9 126.0 L265.5 126.1 L265.3 126.2 L264.7 126.0 L264.4 126.0 L264.2 126.0 L262.8 125.9 L261.2 126.3 L260.5 126.3 L258.5 126.0 L258.0 126.2 L257.0 126.9 L255.4 128.4 L255.0 129.0 L254.8 129.2 L254.4 129.3 L254.5 128.9 L254.1 128.6 L253.6 128.5 L253.1 128.4 L252.8 128.4 L252.1 128.8 L250.3 129.3 L250.1 129.3 L249.9 129.4 L249.4 129.7 L249.2 129.7 L248.7 129.9 L247.9 130.4 L247.4 130.5 L247.5 130.8 L247.3 131.2 L247.0 131.5 L246.9 131.9 L246.8 132.3 L246.5 132.7 L246.1 133.0 L245.7 132.9 L245.7 132.8 L245.8 132.8 L246.1 132.9 L246.4 132.5 L246.6 131.9 L246.6 131.6 L246.5 131.6 L245.9 131.1 L245.7 131.0 L245.2 130.9 L245.0 130.8 L244.7 130.9 L244.4 130.9 L244.0 130.8 L243.8 130.8 L243.6 131.0 L243.5 131.1 L243.3 131.1 L242.3 131.1 L241.7 131.4 L240.9 131.5 L240.4 131.7 L240.0 131.9 L239.0 132.6 L238.7 133.0 L238.6 133.4 L238.5 133.4 L238.5 133.2 L238.4 133.2 L238.3 133.2 L238.1 133.3 L238.1 133.4 L238.1 133.4 L238.0 133.2 L238.0 133.2 L238.1 133.1 L238.1 133.0 L237.9 132.9 L237.8 132.9 L237.7 132.7 L237.6 132.7 L237.5 132.6 L237.2 132.5 L236.9 132.5 L236.4 132.6 L235.3 132.5 L233.2 132.7 L232.8 132.7 L231.7 133.2 L230.8 133.5 L230.4 133.8 L229.1 134.8 L228.6 135.1 L226.8 135.7 L226.5 135.9 L226.3 136.1 L225.8 136.5 L225.6 136.7 L225.1 136.9 L224.8 137.1 L223.4 138.8 L223.3 138.8 L223.0 139.0 L222.2 140.1 L221.8 140.5 L221.5 140.8 L220.9 140.9 L220.5 141.1 L220.0 141.2 L219.6 141.4 L219.0 141.6 L218.7 141.5 L218.8 141.4 L219.3 141.0 L219.8 140.8 L219.8 140.7 L219.7 140.6 L221.3 140.2 L222.1 139.9 L222.5 139.3 L222.9 139.1 L223.0 138.8 L223.5 138.2 L224.0 137.8 L224.2 137.6 L224.3 137.2 L224.0 137.4 L223.8 137.6 L223.5 137.6 L223.1 137.4 L223.0 137.0 L223.1 136.6 L223.4 136.0 L223.2 136.0 L223.0 136.0 L222.8 135.9 L222.7 135.9 L222.5 135.8 L222.3 135.7 L222.1 135.4 L221.9 135.2 L221.9 134.9 L221.6 135.2 L221.7 135.5 L221.9 135.8 L222.1 136.0 L222.1 136.2 L222.2 136.3 L222.3 136.4 L222.2 136.7 L222.1 136.8 L221.6 137.2 L220.7 138.2 L220.6 138.2 L220.2 138.6 L219.5 138.9 L218.0 139.1 L217.9 139.1 L217.7 139.1 L217.6 139.0 L217.6 138.9 L217.5 138.8 L217.4 138.9 L217.3 139.0 L217.3 139.2 L217.2 139.3 L216.5 139.6 L216.5 139.6 L216.2 139.9 L216.1 140.0 L216.1 140.2 L216.1 140.3 L216.2 140.6 L216.3 141.5 L216.4 141.8 L216.5 142.0 L217.1 143.9 L217.2 144.1 L217.4 144.3 L217.6 144.4 L218.4 146.0 L219.0 146.9 L218.6 147.1 L218.3 147.0 L217.7 146.6 L217.0 146.2 L216.1 146.0 L215.8 145.7 L215.7 145.3 L215.7 144.7 L215.7 144.3 L215.4 143.8 L215.0 143.5 L214.2 143.1 L213.5 143.0 L212.9 143.1 L212.4 143.1 L211.8 143.0 L211.7 143.2 L211.4 143.5 L210.8 143.4 L210.3 143.2 L210.0 142.9 L209.7 142.6 L209.5 142.3 L209.2 141.9 L208.8 141.7 L208.3 141.7 L207.9 141.5 L207.3 141.2 L206.8 141.2 L206.2 141.3 L205.3 141.3 L204.7 141.1 L204.1 141.0 L203.6 140.7 L202.8 140.4 L202.1 140.0 L201.3 139.7 L200.7 139.6 L199.9 139.8 L199.3 139.7 L198.6 139.4 L198.5 139.5 L198.7 140.1 L198.5 140.5 L198.0 140.8 L197.8 140.5 L197.5 140.4 L197.1 140.4 L196.8 140.6 L196.5 140.9 L196.5 141.1 L196.9 141.3 L196.9 141.4 L196.5 141.4 L196.1 141.5 L196.0 141.7 L196.3 142.0 L196.1 142.0 L195.8 141.9 L194.9 141.9 L194.7 141.8 L194.3 141.4 L193.9 141.1 L193.5 141.1 L193.1 141.4 L193.1 141.3 L193.0 141.3 L192.9 141.3 L192.8 141.3 L193.1 141.1 L193.2 140.9 L193.2 140.7 L192.9 140.7 L191.7 140.8 L191.8 140.6 L191.8 140.4 L192.0 139.3 L191.6 139.6 L191.4 140.0 L191.1 140.4 L190.6 140.6 L190.5 140.6 L190.3 140.7 L190.1 140.7 L190.0 140.6 L189.6 140.4 L188.7 140.1 L188.9 140.6 L188.7 140.8 L187.1 141.0 L186.8 141.0 L186.7 140.9 L186.6 140.9 L186.5 140.9 L186.1 140.9 L186.0 140.9 L185.2 140.7 L184.8 140.7 L184.6 140.7 L184.0 140.9 L182.1 141.1 L181.9 141.2 L181.8 141.3 L181.5 141.4 L181.4 141.5 L180.8 141.6 L177.7 140.9 L177.4 140.8 L177.2 140.8 L177.1 140.8 L177.1 140.7 L177.0 140.5 L177.0 140.4 L176.9 140.3 L176.9 140.1 L176.8 140.0 L177.1 139.8 L177.2 139.8 L177.2 139.6 L176.7 139.7 L176.3 139.8 L175.9 139.7 L175.3 139.6 L175.0 139.5 L174.8 139.5 L174.3 138.9 L173.8 138.7 L173.3 138.8 L172.6 138.5 L171.3 137.8 L171.3 138.0 L171.4 138.2 L171.4 138.4 L171.3 138.5 L170.3 138.4 L170.0 138.4 L169.8 138.3 L169.6 138.1 L169.5 137.9 L169.7 137.7 L170.0 137.5 L170.3 137.4 L170.6 137.4 L171.4 137.5 L172.6 137.4 L172.7 137.3 L173.5 136.8 L173.7 136.8 L173.9 136.8 L174.0 136.7 L173.9 136.5 L173.2 135.9 L172.9 135.8 L172.4 135.8 L171.7 135.8 L169.6 135.1 L169.2 135.1 L168.9 135.1 L168.6 135.2 L168.4 135.3 L168.3 135.4 L168.3 135.5 L168.3 135.7 L168.3 136.2 L167.9 135.5 L167.8 135.4 L167.6 135.4 L165.8 134.1 L165.5 133.7 L166.0 134.0 L166.4 134.3 L166.7 134.4 L169.3 134.2 L169.9 134.4 L170.7 134.7 L170.8 134.7 L171.0 134.8 L172.3 134.8 L173.6 135.0 L174.5 134.9 L174.8 134.9 L176.5 135.2 L177.3 135.5 L177.9 135.6 L178.6 135.6 L179.2 135.4 L179.6 135.1 L179.3 134.8 L179.7 134.4 L180.8 133.8 L181.1 133.7 L181.8 133.6 L182.1 133.5 L182.3 133.3 L182.6 133.2 L182.8 133.0 L183.0 132.8 L182.6 132.9 L182.2 133.1 L181.8 133.3 L181.4 133.2 L179.3 134.0 L178.2 134.1 L177.2 133.7 L177.0 133.5 L176.9 133.4 L176.7 133.5 L176.4 133.7 L176.3 133.7 L176.1 133.8 L175.8 133.8 L175.7 133.8 L175.3 134.2 L175.1 134.0 L174.9 133.4 L174.6 133.3 L173.7 133.2 L173.4 133.1 L173.2 132.9 L173.0 132.7 L172.8 132.4 L172.7 132.1 L172.6 131.8 L172.5 131.6 L172.3 131.4 L172.2 131.1 L172.1 130.5 L172.4 130.0 L172.8 129.6 L173.1 129.0 L173.2 128.7 L173.2 128.5 L173.0 128.3 L172.2 128.2 L172.1 128.1 L172.1 127.9 L172.6 127.4 L172.7 127.3 L172.6 127.2 L172.2 127.1 L171.5 127.2 L171.3 127.2 L171.0 127.0 L171.4 126.4 L171.5 126.0 L171.3 125.6 L171.1 125.5 L170.9 125.4 L170.7 125.4 L170.6 125.1 L170.5 124.9 L170.5 124.7 L170.5 124.6 L170.3 124.4 L169.4 124.1 L169.2 123.9 L169.3 123.6 L169.3 123.5 L169.1 123.5 L169.1 123.5 L168.8 123.8 L168.8 123.9 L168.9 124.0 L169.1 124.2 L169.4 124.4 L170.1 124.5 L170.3 124.7 L170.2 125.5 L170.3 125.6 L170.7 125.7 L170.8 125.8 L170.9 125.8 L171.0 125.9 L171.1 126.0 L171.0 126.2 L170.8 126.5 L170.7 126.6 L170.6 127.3 L171.1 127.4 L171.8 127.4 L172.3 127.4 L171.8 127.8 L171.6 128.0 L171.5 128.3 L171.7 128.6 L171.9 128.6 L172.3 128.5 L172.6 128.4 L172.7 128.7 L172.5 129.2 L172.2 129.6 L171.9 129.7 L171.5 129.8 L171.2 130.1 L171.0 130.4 L171.0 130.8 L171.6 131.3 L171.6 131.4 L171.5 132.1 L171.6 132.4 L171.7 132.5 L171.7 132.6 L171.5 132.8 L171.4 132.9 L171.1 133.0 L170.9 133.1 L170.2 133.2 L169.6 133.1 L168.1 132.7 L167.2 132.8 L166.9 132.9 L166.8 133.1 L166.6 133.3 L166.3 133.3 L166.2 133.3 L165.9 133.1 L165.8 133.1 L165.5 133.1 L165.3 133.1 L165.2 133.1 L165.1 132.8 L165.3 132.6 L166.1 131.6 L166.3 131.3 L166.3 131.1 L166.5 131.0 L167.2 130.3 L167.0 130.1 L166.9 130.2 L166.8 130.4 L166.7 130.6 L166.6 130.7 L166.3 130.7 L166.2 130.8 L166.1 130.9 L165.8 131.2 L165.8 131.2 L165.7 131.3 L165.5 131.3 L165.3 131.2 L165.1 131.1 L164.9 130.7 L164.7 130.5 L164.5 130.5 L164.7 130.9 L164.7 131.0 L164.7 131.2 L164.8 131.3 L165.0 131.3 L165.4 131.6 L165.5 131.7 L165.4 131.9 L165.1 132.2 L165.1 132.3 L164.8 132.4 L164.3 133.0 L164.1 133.1 L163.8 133.2 L163.2 133.4 L162.9 133.5 L162.7 133.5 L162.3 133.4 L162.1 133.3 L162.0 133.4 L161.7 133.3 L160.6 133.1 L160.2 133.1 L159.4 133.3 L158.6 133.4 L158.0 133.5 L157.6 133.5 L157.5 133.6 L157.1 133.8 L157.0 133.8 L156.8 133.7 L156.6 133.8 L155.7 134.2 L155.5 134.3 L154.9 134.2 L154.7 134.2 L154.6 134.3 L154.1 134.7 L154.0 134.8 L154.1 135.0 L154.3 135.4 L154.4 135.7 L154.5 135.7 L154.6 135.8 L154.7 135.9 L154.6 135.9 L154.6 136.0 L154.5 136.1 L154.4 136.1 L154.3 136.6 L154.3 136.7 L153.6 137.2 L153.4 137.4 L152.6 137.4 L152.4 137.5 L152.5 137.5 L152.9 137.7 L153.0 137.8 L153.0 138.0 L152.9 138.1 L152.5 138.8 L151.4 139.8 L151.1 140.3 L150.8 140.5 L150.6 140.6 L150.5 140.7 L150.2 141.3 L150.0 141.5 L148.1 142.8 L146.5 144.3 L145.6 144.9 L144.6 145.5 L144.6 145.3 L144.5 144.4 L144.4 144.4 L144.3 144.5 L144.1 144.6 L144.1 144.8 L144.0 145.2 L144.0 145.3 L143.9 145.4 L143.9 145.5 L143.9 145.6 L143.8 145.6 L143.7 145.6 L143.7 145.5 L143.6 145.5 L143.5 145.5 L143.4 145.6 L142.7 145.2 L142.3 145.1 L142.0 145.2 L141.8 145.5 L141.8 145.9 L141.7 146.2 L141.6 146.1 L141.4 145.9 L141.4 145.8 L141.5 145.6 L141.5 145.6 L141.3 145.6 L141.2 145.8 L141.2 146.1 L141.3 146.3 L141.4 146.4 L141.5 146.5 L141.4 147.0 L141.3 146.8 L141.2 146.7 L140.9 146.5 L140.9 146.5 L140.9 146.4 L140.9 146.4 L140.7 146.3 L140.6 146.4 L140.6 146.4 L140.6 146.5 L140.5 146.5 L140.2 146.5 L139.8 146.6 L139.4 146.8 L139.3 147.1 L139.4 147.3 L139.6 147.4 L140.0 147.5 L140.3 147.6 L140.4 147.8 L140.3 147.8 L140.0 147.9 L139.8 148.0 L139.5 148.1 L139.2 148.0 L139.2 148.1 L139.1 148.1 L139.1 148.2 L139.2 148.3 L139.0 148.4 L138.6 148.5 L138.4 148.6 L138.4 148.2 L138.2 147.8 L137.9 147.5 L137.6 147.4 L137.6 147.3 L137.5 146.5 L137.6 146.3 L137.7 146.2 L137.8 146.1 L137.6 145.9 L137.6 145.8 L137.5 145.8 L137.5 145.8 L137.1 145.6 L137.1 145.5 L137.0 145.4 L136.9 145.4 L136.8 145.5 L136.8 145.6 L136.9 145.7 L137.1 145.9 L137.1 146.0 L137.1 146.1 L136.8 146.4 L136.7 146.5 L136.7 146.8 L136.7 146.9 L136.8 147.0 L136.9 147.2 L136.4 147.5 L136.3 148.1 L136.3 148.8 L136.2 149.5 L136.6 149.6 L136.8 149.7 L137.1 149.7 L137.4 149.7 L137.6 149.5 L138.0 149.3 L137.8 149.4 L137.3 150.0 L137.1 150.1 L136.9 150.2 L136.8 150.3 L136.7 150.5 L136.6 150.5 L136.4 150.6 L136.4 150.7 L136.6 151.1 L136.8 151.2 L137.0 151.3 L137.1 151.3 L137.2 151.1 L137.2 150.9 L137.2 150.8 L137.4 150.7 L137.4 151.1 L137.5 151.2 L137.6 151.2 L137.7 151.1 L137.6 151.0 L137.8 151.1 L137.9 151.1 L138.0 151.1 L138.1 151.4 L138.2 151.1 L138.2 150.9 L138.4 150.8 L138.6 151.0 L138.7 151.2 L138.7 151.5 L138.6 151.7 L138.3 151.7 L138.5 151.9 L138.6 152.1 L138.7 152.5 L138.7 153.1 L138.7 153.3 L138.6 153.4 L138.5 153.6 L138.5 153.7 L138.3 154.1 L138.3 154.3 L138.3 154.4 L138.3 154.4 L138.3 154.4 L138.0 154.6 L137.7 154.7 L137.5 154.8 L137.2 154.7 L137.3 154.6 L137.3 154.5 L137.3 154.4 L137.2 154.3 L137.4 153.9 L137.4 153.3 L137.1 152.7 L136.8 152.5 L136.6 152.5 L135.9 152.0 L133.7 151.5 L132.6 151.4 L132.4 151.3 L132.2 151.3 L132.1 151.3 L131.9 151.3 L131.8 151.4 L131.7 151.5 L131.6 151.5 L131.5 151.6 L131.1 151.6 L130.9 151.6 L130.6 151.6 L130.3 151.7 L130.1 151.8 L129.9 151.9 L129.9 152.0 L129.8 152.1 L129.4 152.1 L129.3 152.2 L129.1 152.3 L128.8 152.4 L128.2 152.5 L127.4 153.0 L127.2 153.1 L126.9 153.1 L126.7 153.1 L126.6 153.1 L126.5 153.3 L126.5 153.6 L126.4 153.7 L126.1 153.8 L125.8 153.6 L125.5 153.5 L125.3 153.4 L125.0 153.3 L124.6 153.1 L124.3 153.1 L123.9 153.1 L123.9 153.3 L123.9 153.6 L123.5 153.7 L123.5 153.8 L123.5 154.0 L123.6 154.1 L123.7 154.2 L124.1 154.3 L123.9 154.4 L123.8 154.5 L123.3 154.5 L122.7 154.6 L120.7 154.2 L119.4 153.8 L118.0 153.5 L117.5 153.3 L117.2 153.3 L116.9 153.1 L116.6 152.7 L116.1 151.9 L116.2 151.6 L115.9 151.3 L115.5 151.1 L115.1 151.2 L115.1 151.2 L114.9 151.0 L114.9 150.9 L115.0 150.7 L115.2 150.5 L115.2 150.5 L116.0 150.1 L116.0 150.1 L117.1 150.1 L118.2 150.3 L119.2 150.4 L119.5 150.3 L119.6 150.1 L119.5 149.6 L119.5 149.5 L119.5 149.5 L119.5 149.4 L119.6 149.4 L119.6 149.3 L120.1 149.2 L119.8 149.0 L119.8 148.8 L119.7 148.5 L119.7 148.3 L119.5 148.2 L119.2 148.1 L119.1 148.0 L119.2 147.8 L119.5 147.4 L119.7 147.3 L120.0 147.2 L120.4 147.1 L120.5 147.0 L120.5 146.8 L120.4 146.7 L120.7 146.4 L121.7 146.3 L122.1 146.1 L122.1 146.0 L122.1 145.8 L122.1 145.7 L122.1 145.6 L122.2 145.5 L122.6 145.5 L122.9 145.4 L123.1 145.2 L123.2 145.0 L123.3 144.7 L123.2 144.5 L123.0 143.9 L123.0 143.7 L123.2 143.5 L123.4 143.3 L126.1 142.8 L126.5 142.7 L126.5 142.4 L126.2 141.7 L126.2 141.4 L126.3 141.1 L126.8 140.7 L127.2 140.3 L127.4 139.9 L127.3 139.6 L126.9 139.3 L126.4 139.0 L126.4 139.0 L126.1 138.8 L126.1 138.6 L126.2 138.3 L126.3 138.1 L126.3 137.8 L126.0 137.1 L125.9 136.5 L126.0 136.1 L126.3 135.8 L127.5 135.2 L128.0 135.1 L128.3 135.0 L129.6 134.5 L129.9 134.5 L130.0 134.5 L130.2 134.7 L130.3 135.0 L130.3 136.3 L130.3 136.5 L130.2 136.7 L130.1 136.8 L129.9 137.0 L130.0 137.1 L130.2 137.3 L130.6 137.1 L131.1 136.7 L131.3 136.7 L131.4 136.7 L131.5 136.7 L131.6 136.5 L131.6 136.3 L131.5 136.0 L131.6 135.8 L131.8 135.5 L132.1 135.6 L132.4 136.1 L132.7 136.4 L132.9 136.4 L133.5 135.7 L133.8 135.4 L134.1 135.3 L134.1 135.3 L134.5 135.4 L134.6 135.5 L134.6 135.5 L134.6 135.7 L134.5 135.8 L134.4 135.9 L134.4 136.0 L134.4 136.1 L134.5 136.2 L134.7 136.3 L135.2 136.4 L135.4 136.4 L135.6 136.5 L135.9 136.9 L136.1 137.1 L136.3 137.2 L136.6 137.2 L136.8 137.1 L137.0 137.0 L137.1 136.7 L137.1 136.4 L137.2 136.3 L137.6 136.3 L137.9 136.2 L138.1 136.0 L138.1 135.5 L138.3 135.8 L139.1 136.3 L139.4 136.6 L139.5 136.8 L139.5 136.9 L139.5 137.2 L139.5 137.3 L139.8 137.5 L140.1 137.5 L140.7 137.2 L141.0 137.1 L141.2 137.0 L143.0 137.1 L143.7 137.0 L144.1 136.7 L144.5 136.3 L144.3 136.2 L144.0 136.1 L143.8 136.2 L143.6 136.3 L143.4 136.0 L142.7 135.7 L142.8 135.5 L142.6 135.3 L142.5 135.2 L142.4 135.1 L142.3 135.1 L142.1 135.2 L142.0 135.2 L141.9 135.2 L141.9 135.0 L141.8 135.0 L141.2 134.8 L140.9 134.6 L140.9 134.3 L141.2 134.2 L141.5 134.2 L141.7 133.9 L141.6 133.7 L141.5 133.4 L141.4 133.3 L141.4 133.1 L141.5 132.9 L141.5 132.8 L141.6 132.6 L141.7 131.6 L141.7 131.4 L141.6 131.2 L141.5 131.0 L141.4 130.9 L141.4 130.8 L141.4 130.4 L141.4 130.3 L141.2 130.3 L141.0 130.3 L140.9 130.4 L140.8 130.4 L140.7 130.3 L140.6 130.0 L140.5 129.9 L140.1 129.7 L139.6 129.6 L139.2 129.7 L138.7 129.6 L138.4 129.5 L138.0 129.1 L137.8 128.9 L137.6 128.8 L137.1 128.8 L136.8 128.7 L136.7 128.7 L136.4 128.5 L136.3 128.4 L135.9 128.4 L135.8 128.4 L135.7 128.3 L135.7 128.1 L135.7 128.0 L135.8 127.8 L135.9 127.2 L136.1 127.1 L136.3 126.9 L136.4 126.7 L136.4 126.5 L136.2 126.3 L136.1 126.1 L135.9 126.0 L135.6 126.0 L135.4 126.2 L135.3 126.4 L135.1 126.5 L135.0 126.4 L134.5 125.8 L134.5 125.8 L134.5 125.7 L134.5 125.7 L134.5 125.6 L134.9 125.6 L135.3 125.5 L135.5 125.3 L135.6 125.0 L135.4 124.2 L135.5 123.8 L135.8 123.7 L136.0 123.4 L136.0 123.1 L135.9 122.7 L135.7 122.5 L135.4 122.3 L135.1 122.2 L134.8 122.2 L134.5 122.2 L134.3 122.5 L134.3 122.7 L134.2 122.9 L133.9 123.1 L133.7 123.2 L133.4 123.1 L133.2 123.1 L133.0 122.9 L132.8 122.8 L132.8 122.7 L132.7 122.5 L132.7 122.3 L132.6 122.0 L132.4 121.8 L132.2 121.8 L132.0 121.7 L131.7 121.6 L131.6 121.5 L131.6 121.3 L131.4 121.1 L131.0 120.9 L130.7 120.6 L130.5 120.5 L130.2 120.6 L130.1 120.8 L129.9 120.8 L129.6 120.7 L129.5 120.5 L129.3 120.1 L129.2 120.0 L129.1 119.9 L129.1 119.9 L129.1 119.9 L129.1 119.9 L128.9 119.3 L129.1 118.9 L129.5 118.5 L129.9 118.0 L130.1 117.5 L130.1 116.9 L130.2 116.4 L130.6 116.0 L130.8 115.9 L130.7 115.7 L130.5 115.6 L130.0 115.4 L129.9 115.3 L129.9 115.2 L130.0 114.9 L130.2 114.7 L130.5 114.5 L130.7 114.3 L130.8 114.1 L130.6 114.0 L130.0 113.9 L129.8 113.8 L129.7 113.6 L129.5 113.0 L129.4 112.8 L129.2 112.6 L129.0 112.5 L128.8 112.4 L128.6 112.4 L128.1 112.6 L127.4 113.2 L126.8 113.2 L126.4 113.1 L126.2 113.0 L125.8 112.8 L125.3 112.5 L125.0 112.1 L124.9 112.0 L124.7 111.8 L124.6 111.7 L124.5 111.6 L124.5 111.2 L124.3 110.8 L124.2 110.7 L124.2 110.6 L124.2 110.5 L124.1 110.4 L123.6 110.2 L123.1 110.1 L122.0 110.1 L120.6 109.7 L120.1 109.7 L119.8 109.8 L119.5 110.4 L119.5 110.4 L119.4 110.7 L119.4 111.0 L119.3 111.1 L119.2 111.1 L118.9 111.0 L118.7 110.8 L118.2 110.2 L118.5 110.1 L118.5 109.8 L118.4 109.6 L118.1 109.5 L117.8 109.5 L117.6 109.7 L117.4 109.9 L117.2 110.1 L116.9 110.2 L116.7 110.0 L116.7 109.8 L116.8 109.6 L117.0 109.4 L117.2 109.3 L117.4 109.2 L117.5 108.9 L117.5 108.6 L117.3 108.5 L117.0 108.4 L116.3 108.5 L116.1 108.6 L115.8 108.7 L115.5 108.9 L115.2 108.9 L114.9 108.9 L114.7 108.7 L114.7 108.4 L114.6 108.2 L114.3 108.2 L113.8 108.4 L113.6 108.5 L113.3 108.5 L113.0 108.4 L113.3 107.8 L113.3 107.5 L113.0 107.3 L112.7 107.2 L111.9 107.1 L111.3 107.1 L110.7 106.9 L110.4 106.6 L110.2 106.5 L110.1 106.3 L109.8 106.0 L109.5 105.8 L108.5 105.4 L108.0 105.2 L106.1 105.2 L105.8 105.1 L105.8 104.7 L105.4 104.7 L105.0 104.9 L104.9 104.9 L104.2 104.9 L103.9 105.2 L103.0 105.7 L102.7 105.8 L102.5 105.8 L102.1 105.5 L101.8 105.4 L101.2 105.6 L100.4 106.3 L100.3 106.4 L99.7 106.6 L99.2 106.6 L97.6 106.2 L97.3 106.0 L97.1 106.0 L96.9 106.0 L96.9 106.1 L97.0 106.3 L96.9 106.4 L97.0 106.4 L97.0 106.5 L97.0 106.6 L96.9 106.6 L96.8 106.6 L96.6 106.6 L96.5 106.6 L96.4 106.6 L96.2 106.7 L95.7 106.7 L95.1 106.5 L94.6 106.2 L94.1 106.1 L93.9 106.1 L93.9 106.2 L93.8 106.3 L93.7 106.4 L93.6 106.4 L93.4 106.4 L93.3 106.4 L93.1 106.5 L93.1 106.6 L93.2 106.8 L93.3 107.1 L93.3 107.4 L93.2 107.6 L93.1 107.7 L92.8 107.7 L92.5 107.6 L92.3 107.5 L92.1 107.3 L91.9 107.1 L91.6 107.1 L91.5 107.2 L91.5 107.4 L90.9 107.6 L90.8 107.8 L90.7 108.0 L90.7 108.1 L90.2 108.3 L88.3 108.6 L88.0 108.6 L87.3 108.7 L87.0 108.7 L86.5 108.9 L86.3 108.9 L86.0 108.9 L85.9 108.9 L85.7 109.4 L85.8 109.7 L85.6 110.2 L85.4 110.7 L85.1 111.0 L84.9 111.2 L84.5 111.4 L84.3 111.5 L84.0 112.1 L83.9 112.2 L83.1 112.4 L82.8 112.4 L81.7 112.5 L80.7 112.7 L80.0 112.6 L79.7 112.6 L79.2 112.8 L78.4 112.8 L77.4 113.1 L69.9 113.7 L69.3 114.0 L67.8 115.6 L67.1 116.0 L67.1 116.0 L67.1 116.1 L66.2 116.3 L65.0 116.5 L64.8 116.5 L64.3 116.6 L64.0 116.4 L63.7 116.0 L63.2 115.4 L63.0 115.2 L62.7 115.1 L61.5 114.8 L61.0 114.6 L60.7 114.4 L60.6 114.2 L60.6 114.0 L60.5 113.7 L60.3 113.5 L59.9 113.3 L59.3 113.1 L59.2 113.0 L58.9 113.0 L58.0 113.0 L57.1 112.8 L56.9 112.8 L56.5 113.0 L55.9 113.3 L55.1 113.3 L54.1 113.7 L53.8 113.7 L52.9 113.4 L52.9 113.5 L52.6 113.4 L52.0 113.1 L51.7 113.0 L51.0 112.8 L50.7 112.7 L50.2 112.7 L48.7 113.1 L48.4 113.1 L48.3 112.9 L47.5 112.4 L47.2 112.3 L46.2 112.3 L45.8 112.3 L45.2 112.2 L44.2 112.1 L43.9 112.0 L43.3 112.1 L43.2 112.1 L43.0 112.2 L42.9 112.3 L42.8 112.4 L42.8 112.5 L42.7 112.5 L42.7 112.5 L42.3 112.6 L41.3 112.2 L41.3 112.2 L41.3 112.2 L41.3 112.2 L41.2 112.2 L41.1 112.3 L41.0 112.3 L40.9 112.2 L40.8 112.2 L40.4 111.9 L39.7 111.5 L39.1 111.0 L38.8 110.9 L37.8 110.6 L37.4 110.6 L37.1 110.7 L36.8 111.0 L36.4 111.7 L36.2 112.0 L35.6 112.3 L35.3 112.4 L35.1 112.3 L34.9 112.2 L34.6 112.1 L34.3 112.0 L34.1 112.0 L34.0 112.2 L34.1 112.5 L34.0 112.7 L33.7 112.9 L33.4 112.9 L32.8 112.6 L32.7 112.4 L33.0 112.2 L33.0 112.0 L33.1 111.8 L33.2 111.7 L33.1 111.4 L32.9 111.2 L32.7 111.0 L32.2 110.7 L31.7 110.5 L31.6 110.4 L31.4 110.3 L31.1 110.4 L30.9 110.5 L30.6 110.6 L29.5 110.6 L29.3 110.6 L29.2 110.6 L29.2 110.6 L28.9 110.2 L28.7 109.7 L28.5 109.4 L27.3 108.4 L27.3 108.4 L27.2 108.4 L27.1 108.4 L26.9 108.5 L26.6 108.5 L26.4 108.5 L26.1 108.4 L26.0 108.4 L25.9 108.4 L25.9 108.4 L25.8 108.5 L25.6 108.5 L25.5 108.5 L25.4 108.4 L24.7 107.6 L24.5 107.3 L24.5 107.1 L24.5 106.9 L24.5 106.8 L24.4 106.6 L24.3 106.6 L23.9 106.6 L23.9 106.4 L24.1 105.9 L23.6 105.8 L23.1 105.7 L22.6 105.8 L22.4 106.0 L22.4 106.0 L22.4 106.0 L22.0 105.9 L22.0 104.8 L22.2 104.6 L22.2 104.3 L22.1 103.7 L22.1 103.4 L22.3 103.1 L23.3 102.6 L23.4 102.5 L23.6 102.3 L23.7 102.1 L23.9 102.1 L24.3 102.0 L24.5 101.9 L24.7 101.7 L24.9 101.4 L25.0 101.1 L25.0 100.7 L25.0 100.5 L25.1 100.4 L25.3 100.4 L25.4 100.2 L25.5 100.1 L25.6 100.0 L25.5 99.4 L25.5 99.3 L25.5 99.2 L25.6 99.0 L25.6 99.0 L25.8 98.9 L26.1 98.7 L26.3 98.5 L26.3 98.4 L26.3 98.2 L26.3 98.2 L26.5 97.9 L26.8 97.2 L27.1 97.1 L27.7 97.0 L27.9 96.9 L27.9 96.7 L28.0 96.3 L28.1 96.0 L28.2 95.7 L28.6 95.5 L28.9 95.6 L29.4 96.0 L29.8 96.1 L30.1 96.2 L30.5 96.1 L31.0 96.2 L31.4 96.1 L31.5 96.1 L31.7 96.2 L32.0 96.5 L32.1 96.5 L32.4 96.6 L32.8 96.8 L33.1 96.9 L33.2 96.7 L33.2 96.6 L33.2 96.6 L32.9 96.3 L32.9 96.1 L32.9 95.9 L33.0 95.6 L33.0 95.5 L32.8 95.4 L32.2 95.1 L31.9 95.0 L31.4 94.6 L30.9 94.3 L31.0 94.3 L31.0 94.3 L30.8 94.2 L30.6 94.4 L30.5 94.4 L30.4 94.3 L30.5 94.1 L30.7 93.8 L30.9 93.3 L31.2 92.8 L31.3 92.6 L31.1 91.2 L31.0 90.9 L30.9 90.8 L30.6 90.6 L30.4 90.4 L30.3 90.3 L30.3 90.1 L30.2 89.5 L30.1 89.3 L29.8 88.7 L30.2 88.1 L31.3 87.1 L31.6 86.6 L31.7 86.5 L31.9 86.4 L32.2 86.3 L32.4 86.3 L32.6 86.1 L33.6 85.0 L33.7 84.9 L33.8 84.8 L34.1 84.8 L34.3 84.7 L34.3 84.6 L34.4 84.3 L34.5 84.1 L35.2 83.7 L36.8 82.2 L37.4 81.7 L38.0 81.4 L38.5 81.0 L42.0 78.5 L42.7 78.2 L43.5 77.8 L43.5 77.8 L43.5 77.8 L43.5 77.8 L43.9 77.5 L45.1 76.7 L45.4 76.5 L45.4 76.5 L45.6 76.1 L45.7 75.9 L45.9 75.7 L46.2 75.6 L46.7 75.5 L49.5 75.5 L50.3 75.3 L50.6 74.8 L50.7 74.6 L50.7 74.4 L50.7 74.1 L50.8 73.9 L51.7 73.6 L52.0 73.4 L52.2 73.2 L52.2 73.2 L52.2 73.2 L52.0 73.0 L51.9 72.2 L52.2 71.8 L52.2 71.8 L51.9 71.2 L51.7 70.9 L51.8 70.6 L51.4 70.5 L51.0 70.3 L50.8 70.1 L51.0 69.8 L51.0 69.7 L50.6 69.7 L50.2 69.6 L50.0 69.4 L49.9 69.1 L50.1 68.9 L50.5 68.7 L50.9 68.7 L51.3 68.8 L51.6 68.7 L52.1 68.7 L52.6 68.6 L52.8 68.4 L52.6 68.2 L51.3 67.7 L50.3 67.1 L50.0 66.9 L50.0 66.7 L49.9 66.6 L49.9 66.4 L49.7 66.3 L49.5 66.2 L49.3 66.1 L49.2 66.1 L49.3 66.0 L49.3 65.9 L49.1 65.2 L49.0 65.0 L48.6 64.6 L48.4 64.3 L48.4 64.2 L48.7 64.1 L48.5 63.9 L47.8 63.4 L47.0 63.1 L46.6 62.9 L45.8 61.7 L45.5 61.6 L45.2 61.6 L45.0 61.5 L44.9 61.2 L45.0 61.0 L45.2 60.8 L45.5 60.6 L45.7 60.5 L45.7 60.3 L45.7 60.1 L45.8 60.0 L46.0 60.0 L45.8 59.8 L45.2 59.2 L45.2 59.1 L45.4 58.8 L45.2 58.7 L44.9 58.7 L44.7 58.6 L44.6 58.4 L44.6 58.3 L44.7 58.3 L44.8 58.3 L44.9 58.0 L44.9 57.9 L44.4 57.2 L44.4 57.0 L44.4 56.9 L44.6 56.7 L44.7 56.6 L44.9 56.6 L46.4 56.3 L46.8 56.3 L47.8 56.5 L48.2 56.5 L48.8 56.7 L49.3 57.0 L49.7 57.3 L50.3 57.2 L52.6 55.9 L54.3 55.2 L54.8 54.8 L55.1 53.8 L55.4 53.5 L55.9 53.0 L56.2 52.8 L56.6 52.7 L60.4 52.5 L61.3 52.7 L61.6 52.7 L65.9 52.2 L67.3 51.8 L68.0 51.7 L68.7 51.6 L71.3 52.1 L74.3 52.1 L76.4 52.1 L77.7 52.0 L80.9 52.4 L82.0 52.3 L82.4 52.4 L83.4 52.9 L83.9 53.1 L87.5 53.2 L87.6 53.2 L87.6 53.3 L87.6 53.5 L87.6 53.6 L87.8 53.8 L88.0 53.8 L91.4 53.9 L94.3 54.7 L95.3 54.8 L96.8 54.5 L98.2 54.5 L98.8 54.6 L99.2 54.7 L99.3 55.0 L99.3 55.3 L99.3 55.7 L99.4 56.0 L99.6 56.2 L99.9 56.2 L100.3 56.1 L100.8 56.2 L100.7 56.5 L100.5 56.8 L100.4 57.1 L100.6 57.2 L100.9 57.2 L101.6 57.0 L102.5 57.1 L102.8 57.1 L103.1 57.0 L103.5 56.7 L103.8 56.6 L104.4 56.6 L104.4 56.6 L106.0 57.1 L106.9 57.1 L107.1 57.2 L107.3 57.5 L107.2 57.9 L106.7 58.6 L106.7 58.7 L106.8 58.8 L107.0 58.9 L107.2 59.0 L107.5 59.1 L107.7 59.1 L107.9 59.0 L108.6 58.4 L108.7 58.3 L108.7 58.1 L108.7 57.9 L108.7 57.7 L108.7 57.5 L108.8 57.2 L109.0 57.0 L109.2 56.8 L109.6 56.8 L109.9 56.9 L110.9 57.5 L111.1 57.6 L111.4 57.6 L112.9 57.6 L113.2 57.6 L113.6 57.4 L114.1 56.8 L114.4 56.5 L114.7 56.3 L115.0 56.2 L115.4 56.2 L115.6 56.4 L115.6 56.5 L115.6 56.7 L115.6 56.8 L115.8 57.0 L116.0 57.1 L116.4 57.3 L116.6 57.4 L116.7 57.5 L116.9 58.0 L116.9 58.1 L117.1 58.1 L117.3 58.1 L117.7 57.8 L118.5 57.5 L118.9 57.4 L119.3 57.4 L120.7 57.6 L121.1 57.7 L121.2 57.9 L121.2 58.2 L121.5 59.1 L121.6 59.3 L121.7 59.5 L122.0 59.5 L122.2 59.5 L122.4 59.4 L122.6 59.4 L122.7 59.6 L122.8 59.9 L123.0 60.0 L123.3 59.8 L123.3 59.6 L123.3 59.0 L123.3 58.8 L123.6 58.4 L124.1 58.0 L124.6 57.8 L125.1 57.6 L125.5 57.6 L126.4 57.6 L126.8 57.5 L127.1 57.3 L127.5 56.8 L127.8 56.6 L128.1 56.5 L128.4 56.5 L129.0 56.6 L129.4 56.8 L129.6 56.9 L129.9 57.5 L130.4 58.0 L130.6 58.2 L130.7 58.6 L130.5 59.0 L130.6 59.2 L130.9 59.3 L131.2 59.6 L131.4 59.9 L131.5 60.2 L131.7 60.5 L132.0 60.6 L132.4 60.5 L132.5 60.4 L133.0 60.2 L133.3 60.1 L134.0 60.3 L134.3 60.3 L134.5 60.0 L134.7 59.7 L134.9 59.5 L135.1 59.4 L135.5 59.4 L135.8 59.3 L136.1 59.1 L136.3 58.9 L136.6 58.7 L136.9 58.7 L137.3 58.6 L137.6 58.7 L137.9 58.8 L138.1 59.1 L138.2 59.3 L138.4 59.5 L139.8 59.6 L140.1 59.6 L140.3 59.4 L140.5 59.2 L140.7 59.1 L140.9 59.1 L141.1 59.2 L141.3 59.2 L142.2 58.9 L142.6 58.8 L144.7 58.8 L145.2 58.8 L145.6 59.0 L146.2 59.5 L146.4 59.7 L147.2 59.9 L147.4 60.0 L147.4 60.1 L147.5 60.2 L147.5 60.4 L147.5 60.5 L147.5 60.6 L147.3 61.0 L147.3 61.0 L147.4 61.1 L147.9 61.5 L148.1 61.6 L148.3 61.7 L148.8 61.7 L149.0 61.7 L149.2 61.8 L149.6 62.2 L149.8 62.2 L150.0 62.2 L150.2 62.2 L150.4 62.3 L150.6 62.4 L150.7 62.6 L150.9 62.6 L150.9 62.5 L151.0 62.5 L151.0 62.1 L151.0 62.1 L151.3 61.8 L151.3 61.5 L151.8 61.3 L152.2 61.0 L152.1 60.6 L152.3 60.6 L152.3 60.5 L152.2 60.4 L152.1 60.3 L152.0 59.9 L151.9 59.8 L151.7 59.7 L151.6 59.7 L151.5 59.6 L151.4 59.5 L151.4 59.3 L151.5 59.2 L151.7 59.1 L151.9 59.1 L151.9 59.0 L151.8 59.0 L151.6 58.9 L151.5 58.8 L151.4 58.6 L151.5 58.5 L151.4 58.4 L151.3 58.3 L151.1 58.2 L151.2 58.1 L151.3 58.1 L151.4 57.9 L151.1 57.8 L150.6 57.7 L150.5 57.6 L150.5 57.5 L150.5 57.4 L150.6 57.4 L150.6 57.4 L150.8 57.4 L150.8 57.3 L150.6 57.2 L150.3 57.1 L150.3 56.9 L150.8 56.7 L151.0 56.6 L150.9 56.5 L150.9 56.4 L151.0 56.4 L151.1 56.3 L151.2 56.2 L151.1 56.0 L151.3 55.7 L151.2 55.5 L151.4 55.4 L151.8 55.4 L152.0 55.4 L152.1 55.2 L152.1 55.0 L152.2 54.9 L152.3 54.7 L152.3 54.6 L152.2 54.6 L151.9 54.5 L152.1 54.4 L152.4 54.3 L152.7 54.1 L152.7 53.8 L152.6 53.7 L152.6 53.6 L152.7 53.6 L152.8 53.5 L153.1 53.2 L153.1 53.2 L153.2 53.1 L153.3 53.0 L153.4 52.9 L153.7 52.8 L153.7 52.7 L153.7 52.5 L153.8 52.4 L153.9 52.4 L154.4 52.4 L154.5 52.4 L154.7 52.3 L154.9 52.1 L154.9 52.0 L154.8 52.0 L154.7 51.9 L154.7 51.8 L155.2 51.7 L155.4 51.6 L155.6 51.5 L155.8 51.4 L155.9 51.3 L155.9 51.2 L155.9 51.1 L155.9 51.1 L156.1 51.0 L156.2 50.9 L156.3 50.9 L156.4 50.9 L156.5 51.0 L156.9 51.0 L157.0 50.8 L156.9 50.6 L156.4 50.5 L156.5 50.4 L156.5 50.4 L156.5 50.3 L156.6 50.2 L156.5 50.0 L156.8 49.8 L157.1 49.7 L159.2 49.7 L159.8 49.7 L160.2 49.8 L160.9 50.2 L161.3 50.3 L161.6 50.2 L161.9 49.9 L162.1 49.6 L162.4 49.4 L163.6 49.1 L165.0 49.1 L167.7 49.4 L169.5 49.3 Z" fill="#172033" fill-rule="evenodd"/></svg>
