<svg xmlns="http://www.w3.org/2000/svg" viewBox="0 0 320 200" role="img"><path d="M110.5 166.8 L110.2 166.7 L109.8 166.6 L109.4 166.6 L109.1 166.8 L108.7 166.9 L108.2 166.9 L107.7 166.7 L107.3 166.6 L106.9 166.8 L106.6 167.2 L106.4 168.3 L106.3 168.7 L106.1 168.9 L105.7 169.1 L105.6 169.2 L105.5 169.2 L105.4 169.4 L105.3 169.8 L105.3 170.0 L105.0 170.5 L104.6 170.9 L103.4 172.1 L103.0 172.3 L102.8 172.4 L102.6 172.4 L102.4 172.5 L102.1 172.6 L102.0 173.0 L101.8 174.0 L101.6 174.4 L101.3 174.7 L100.2 175.1 L99.4 175.6 L99.3 175.7 L98.9 176.0 L98.7 176.6 L98.4 176.7 L96.5 177.7 L95.9 177.9 L95.4 178.0 L94.8 177.8 L94.3 177.4 L94.1 176.8 L94.0 175.7 L93.9 175.1 L93.1 174.0 L92.8 173.9 L92.8 173.9 L92.6 173.8 L92.3 173.9 L92.1 174.0 L91.8 174.3 L91.7 174.9 L91.4 175.0 L91.3 174.9 L90.7 174.6 L90.3 174.5 L89.7 174.6 L89.2 174.9 L88.8 175.2 L88.2 175.5 L87.7 175.6 L87.2 175.7 L86.1 175.6 L86.3 174.0 L86.3 173.5 L86.2 173.2 L85.9 172.6 L85.9 172.3 L86.1 171.6 L86.1 171.4 L86.0 170.8 L85.7 170.4 L85.5 170.0 L85.5 169.3 L85.8 167.6 L85.8 167.1 L85.7 166.6 L85.3 165.5 L85.2 165.1 L85.3 164.7 L85.3 164.7 L85.5 164.5 L85.6 164.2 L85.5 163.8 L85.4 163.3 L85.4 163.0 L85.5 162.8 L85.8 162.3 L86.6 162.0 L86.9 161.7 L87.0 161.3 L87.0 159.6 L87.0 159.0 L86.7 158.0 L86.7 157.4 L87.1 155.2 L87.2 155.1 L87.3 155.0 L87.5 154.8 L87.5 154.6 L87.4 154.5 L87.2 154.2 L87.2 154.0 L87.3 153.7 L87.5 153.6 L87.8 153.6 L88.1 153.5 L88.1 153.1 L88.0 151.4 L87.9 151.0 L87.6 150.4 L87.5 150.2 L87.5 149.7 L88.1 146.3 L88.1 145.8 L88.6 143.1 L88.8 142.1 L89.2 139.3 L89.6 138.3 L89.8 137.8 L89.8 137.3 L89.4 136.1 L89.5 135.6 L89.7 134.9 L90.9 133.2 L91.1 132.9 L91.4 133.0 L91.6 133.2 L91.8 133.2 L92.1 133.1 L92.2 132.9 L93.0 128.4 L93.2 127.8 L93.5 127.3 L95.0 125.6 L95.5 125.0 L95.6 124.8 L96.0 123.9 L95.9 122.9 L95.4 120.7 L95.4 120.1 L95.8 117.8 L95.6 116.4 L95.6 116.1 L96.2 115.0 L96.5 114.8 L97.1 114.3 L97.5 114.0 L98.7 113.5 L101.6 112.8 L101.9 112.7 L102.2 112.3 L102.6 111.4 L102.7 111.3 L102.9 110.9 L103.5 110.2 L103.7 109.7 L103.5 108.6 L103.5 108.1 L103.9 107.8 L104.0 107.5 L104.0 107.2 L104.1 106.6 L104.2 106.5 L105.0 105.6 L105.2 105.5 L105.5 105.4 L105.7 105.5 L106.0 105.7 L106.5 105.9 L106.8 105.6 L107.2 105.0 L107.6 104.7 L107.9 104.6 L108.6 104.7 L108.9 104.7 L109.4 104.5 L109.8 104.4 L110.2 104.1 L110.7 103.7 L112.8 101.0 L114.0 99.5 L116.3 96.5 L120.0 93.5 L123.8 90.5 L125.7 88.9 L127.6 86.5 L128.3 85.7 L130.0 83.5 L131.7 81.4 L132.4 80.0 L132.7 78.7 L132.7 78.6 L132.6 78.5 L132.3 78.1 L130.8 77.2 L130.2 76.7 L130.0 76.3 L129.9 75.7 L129.9 74.5 L128.5 75.0 L128.1 75.1 L127.7 75.1 L126.5 74.9 L126.1 74.6 L126.0 74.4 L126.1 74.3 L126.2 74.2 L126.3 74.0 L126.2 73.8 L126.1 73.7 L124.6 72.0 L124.1 71.7 L123.1 71.7 L122.7 72.4 L122.3 73.3 L121.5 73.7 L121.0 73.5 L120.5 73.0 L120.1 72.5 L119.8 72.1 L119.7 71.7 L119.7 71.2 L119.7 70.9 L119.4 70.7 L117.5 70.7 L117.1 70.6 L117.0 70.1 L117.2 69.6 L117.6 69.0 L117.8 68.6 L117.8 68.1 L117.7 67.1 L117.8 66.6 L117.9 66.3 L118.4 65.4 L118.5 65.2 L118.5 65.1 L118.6 64.8 L119.5 62.3 L119.5 62.2 L119.5 61.9 L119.6 61.7 L119.7 61.7 L120.0 61.6 L120.1 61.5 L120.3 61.3 L121.0 59.4 L121.0 58.3 L120.7 57.3 L120.1 56.1 L119.6 55.7 L118.4 54.8 L118.0 54.4 L118.0 53.9 L118.1 53.3 L118.5 52.0 L119.6 48.7 L120.1 47.7 L120.2 47.6 L120.6 47.6 L120.7 47.5 L120.8 47.4 L120.8 47.1 L120.9 46.9 L121.4 46.0 L122.2 45.1 L122.4 44.8 L122.5 44.6 L122.7 44.0 L122.7 43.7 L122.4 43.2 L122.3 42.8 L122.5 42.1 L122.5 41.8 L122.2 41.2 L121.7 41.3 L121.2 41.8 L120.6 42.0 L120.7 41.6 L121.3 40.4 L123.1 37.7 L123.3 37.4 L123.3 37.1 L123.5 36.8 L123.8 36.5 L124.1 36.4 L124.6 36.5 L124.9 36.4 L125.3 36.2 L126.1 35.6 L126.4 35.5 L126.9 35.4 L127.1 35.3 L127.9 34.7 L128.9 33.9 L129.6 33.7 L130.9 33.7 L132.0 33.9 L133.1 34.2 L135.4 35.4 L138.9 37.3 L139.4 37.4 L139.6 37.2 L139.7 37.2 L140.0 36.8 L140.5 36.5 L143.3 36.1 L143.8 35.9 L144.1 35.7 L146.3 33.2 L146.3 33.0 L146.4 33.1 L147.0 33.3 L147.1 33.4 L147.8 33.9 L149.7 36.1 L150.1 36.8 L150.2 37.3 L150.3 38.6 L150.5 39.0 L150.9 39.2 L153.0 39.3 L153.2 39.4 L153.5 39.5 L153.9 40.1 L154.1 40.4 L154.5 40.8 L154.9 41.0 L156.7 41.4 L157.0 41.4 L157.2 41.1 L157.2 41.0 L157.3 40.6 L157.3 40.2 L157.2 39.2 L157.2 38.8 L157.5 38.5 L162.6 35.4 L163.8 35.1 L168.8 34.7 L173.1 34.3 L175.4 33.7 L177.6 32.6 L179.2 31.3 L179.7 31.2 L180.3 31.4 L183.7 34.2 L184.3 34.5 L185.1 34.7 L187.6 34.8 L192.0 35.0 L193.2 34.9 L194.2 34.3 L194.4 34.2 L196.4 32.2 L199.0 29.5 L202.1 26.5 L204.3 24.2 L206.6 22.0 L207.4 22.4 L208.0 22.9 L208.3 23.5 L208.3 24.3 L208.3 24.7 L208.5 25.0 L208.9 25.3 L209.1 25.6 L209.2 25.9 L209.2 26.2 L209.1 26.9 L209.0 27.3 L208.9 27.5 L208.9 27.8 L209.1 28.2 L209.4 28.5 L209.8 28.8 L210.1 29.1 L210.2 29.6 L209.9 30.3 L209.5 30.9 L209.5 31.4 L210.1 31.6 L210.6 31.5 L211.7 31.1 L212.2 31.1 L212.8 31.5 L212.9 31.8 L212.6 32.2 L211.3 32.9 L211.3 33.0 L211.7 33.2 L212.1 33.6 L211.5 34.0 L211.4 34.2 L211.7 34.3 L211.9 34.3 L212.4 34.2 L213.0 34.1 L213.5 34.0 L213.8 33.9 L213.8 34.1 L214.4 34.9 L214.8 36.0 L215.1 36.1 L215.3 36.0 L215.4 35.8 L215.7 35.5 L216.4 35.3 L216.9 35.5 L217.8 36.4 L218.3 36.7 L218.8 36.9 L219.2 37.1 L219.4 37.7 L219.3 39.9 L219.1 41.0 L218.6 41.8 L218.3 41.9 L218.0 42.0 L217.8 42.1 L217.6 42.3 L217.7 42.6 L218.0 43.2 L218.1 43.5 L218.1 43.8 L217.8 44.5 L217.7 44.8 L217.8 45.1 L218.0 45.4 L218.2 45.7 L218.4 46.0 L218.8 47.1 L219.1 50.4 L219.4 51.1 L219.9 51.4 L221.2 51.8 L221.8 52.2 L222.1 52.7 L222.1 52.7 L222.9 56.9 L223.2 57.4 L224.1 58.3 L224.5 59.0 L224.7 59.2 L225.1 59.3 L225.3 59.3 L225.6 59.0 L225.7 59.0 L225.8 58.9 L225.9 58.7 L226.0 58.7 L226.1 58.7 L226.1 58.8 L226.2 58.9 L226.2 59.0 L226.3 59.0 L227.0 59.4 L227.2 59.4 L227.4 59.7 L227.5 59.9 L228.0 61.6 L228.5 64.0 L229.6 66.4 L229.9 66.7 L230.2 66.7 L230.5 66.5 L230.6 66.3 L230.9 66.2 L231.2 66.6 L231.3 68.0 L231.5 68.5 L232.2 69.3 L232.5 69.7 L232.4 70.4 L232.0 70.8 L231.5 71.2 L231.0 71.5 L230.7 72.2 L230.9 73.3 L232.0 75.8 L232.5 77.0 L233.7 80.0 L233.7 80.5 L233.4 81.8 L233.4 82.3 L233.4 82.9 L233.5 83.4 L233.7 83.9 L234.0 84.2 L234.6 84.8 L234.8 85.1 L234.7 85.4 L234.1 86.0 L234.0 86.4 L234.0 91.7 L233.8 92.3 L233.0 94.1 L232.8 94.4 L232.5 94.7 L232.2 94.8 L231.6 94.9 L231.4 95.1 L230.7 96.0 L230.2 98.2 L228.5 99.6 L228.6 100.0 L228.6 100.5 L229.1 101.6 L229.4 102.7 L229.0 103.8 L228.2 104.2 L225.9 104.5 L225.3 104.8 L224.4 105.7 L223.1 106.0 L222.9 106.5 L222.9 107.1 L222.7 107.4 L222.6 107.6 L222.5 107.6 L222.0 107.7 L221.5 107.5 L221.1 107.4 L220.5 107.9 L220.3 108.4 L220.0 109.0 L219.9 109.6 L219.9 110.8 L219.7 111.4 L219.0 113.1 L218.2 114.1 L217.8 115.2 L217.3 115.7 L215.6 116.6 L215.4 116.8 L215.3 117.1 L215.2 117.8 L214.8 118.9 L214.1 119.6 L213.2 120.1 L212.1 120.5 L211.3 121.1 L210.8 121.9 L210.8 122.0 L210.1 124.7 L210.0 124.9 L209.9 125.2 L209.4 125.8 L209.3 126.0 L209.3 126.5 L209.6 127.5 L209.5 128.1 L209.3 128.4 L208.3 129.2 L206.1 132.1 L205.9 132.5 L204.3 134.6 L204.2 135.1 L205.0 137.9 L205.9 140.8 L205.9 141.8 L205.4 146.2 L204.8 151.8 L204.3 155.7 L204.4 159.5 L204.6 165.1 L202.3 165.1 L197.3 165.1 L197.1 165.1 L192.3 165.1 L191.5 165.1 L187.3 165.1 L182.3 165.1 L177.2 165.1 L175.6 165.1 L172.2 165.1 L172.2 165.1 L167.2 165.1 L162.2 165.1 L157.2 165.1 L152.2 165.1 L152.0 165.1 L147.2 165.1 L142.1 165.1 L137.1 165.1 L132.7 165.1 L132.1 165.1 L127.1 165.1 L122.1 165.1 L120.3 165.1 L119.9 164.8 L118.9 164.6 L117.9 165.1 L116.8 165.5 L116.4 165.7 L115.5 166.7 L115.1 167.0 L114.4 166.8 L113.9 166.7 L112.5 166.8 L112.0 167.0 L111.6 167.0 L111.5 166.9 L111.3 166.8 L111.1 166.6 L110.8 166.6 L110.6 166.8 L110.5 166.8 Z" fill="#172033" fill-rule="evenodd"/></svg>
