<svg xmlns="http://www.w3.org/2000/svg" viewBox="0 0 320 200" role="img"><path d="M101.5 25.0 L102.0 25.4 L102.7 27.1 L103.7 27.7 L104.5 27.8 L105.9 27.5 L106.6 27.5 L107.1 27.7 L107.5 28.4 L108.0 28.5 L108.4 28.3 L109.1 27.8 L109.5 27.6 L110.1 27.6 L110.5 27.9 L110.9 28.1 L111.3 28.3 L111.6 28.2 L112.0 27.8 L112.2 27.7 L112.4 27.8 L112.8 28.2 L113.0 28.3 L114.0 28.1 L114.9 27.5 L115.6 26.6 L115.8 25.6 L116.0 24.7 L116.7 23.7 L117.5 22.8 L118.3 22.3 L118.7 22.3 L119.3 22.6 L119.6 22.6 L120.2 22.3 L120.5 22.2 L121.6 22.0 L122.3 22.0 L123.8 22.4 L125.0 22.2 L126.2 22.2 L127.4 22.9 L128.0 23.7 L128.3 24.1 L130.3 25.2 L131.3 25.7 L131.8 26.0 L132.3 26.4 L132.6 26.8 L132.7 27.5 L132.6 27.8 L132.6 28.0 L133.1 28.3 L133.4 28.4 L133.8 28.4 L134.1 28.4 L134.4 28.6 L134.6 28.8 L134.9 29.2 L136.1 30.3 L136.4 30.6 L137.0 31.0 L138.7 32.0 L139.2 32.5 L140.0 33.6 L140.5 34.1 L140.9 34.4 L142.4 35.2 L144.2 36.5 L145.3 37.0 L145.9 37.5 L146.9 38.6 L147.1 38.9 L147.2 39.2 L147.3 39.6 L147.7 39.8 L148.3 40.2 L148.6 40.4 L148.8 40.7 L149.9 42.4 L150.3 43.0 L152.4 44.4 L153.0 45.3 L153.2 46.3 L153.2 46.3 L153.2 46.3 L153.0 47.2 L152.4 48.1 L152.3 48.8 L152.3 50.9 L152.1 52.3 L152.1 53.0 L152.3 53.3 L152.4 53.5 L152.5 53.5 L153.3 53.4 L155.4 53.5 L156.4 53.4 L157.1 53.3 L157.5 53.3 L157.7 53.1 L157.9 52.9 L158.0 52.8 L158.2 52.5 L158.7 52.3 L158.7 52.3 L159.9 51.5 L160.4 51.2 L160.6 50.7 L161.0 49.6 L161.4 49.1 L162.0 49.1 L162.8 49.2 L163.5 49.3 L163.9 48.9 L164.0 48.3 L163.9 47.0 L164.0 46.4 L164.5 46.0 L165.2 45.9 L165.9 46.0 L166.8 46.9 L167.9 47.5 L168.4 47.9 L169.1 48.6 L170.6 49.8 L173.0 52.1 L173.5 52.7 L173.6 53.2 L173.8 54.4 L174.0 54.9 L174.3 55.2 L175.4 55.8 L175.8 56.3 L176.2 57.6 L176.5 58.2 L177.0 58.7 L177.5 59.0 L178.8 59.4 L179.4 59.7 L180.9 60.9 L181.5 61.3 L182.0 61.3 L182.4 61.1 L182.8 60.6 L183.4 59.6 L183.9 59.5 L184.4 60.1 L184.9 60.9 L185.8 61.8 L186.7 62.6 L188.0 63.1 L188.4 63.5 L188.8 63.9 L189.2 64.3 L189.6 64.5 L190.6 64.8 L195.9 65.5 L197.0 65.5 L197.4 65.6 L197.9 66.0 L198.4 67.0 L198.8 67.4 L200.5 68.6 L200.9 69.0 L201.3 69.6 L201.5 70.1 L201.5 71.4 L201.8 72.1 L202.0 72.4 L202.8 73.1 L203.9 73.8 L204.8 74.5 L205.8 75.5 L208.0 77.2 L209.8 78.3 L211.4 79.6 L212.1 80.0 L212.5 80.0 L212.8 79.6 L213.4 79.2 L214.0 79.0 L214.6 79.0 L215.2 79.3 L215.7 79.6 L215.9 79.8 L216.2 80.3 L216.5 80.5 L216.8 80.6 L217.9 80.7 L218.4 80.9 L218.9 81.0 L219.8 81.6 L220.2 81.9 L220.3 82.3 L220.4 82.6 L220.6 82.9 L220.9 83.2 L221.3 83.6 L222.2 84.0 L224.1 84.4 L224.5 84.6 L224.7 85.1 L224.8 86.2 L225.7 88.1 L227.3 90.1 L227.7 91.0 L227.9 92.1 L228.0 93.7 L228.2 94.3 L228.5 94.7 L229.3 95.3 L229.6 95.7 L230.2 96.5 L230.8 97.3 L231.6 97.9 L233.6 99.1 L235.5 100.9 L237.3 101.4 L238.7 102.2 L239.2 102.3 L240.2 102.3 L241.3 102.9 L242.3 103.3 L242.8 103.6 L244.9 105.5 L245.2 106.0 L245.1 106.6 L244.7 107.0 L243.6 107.8 L242.9 108.5 L242.3 109.2 L240.1 110.5 L239.2 111.3 L239.0 111.9 L238.9 113.1 L238.7 113.7 L238.3 114.0 L234.4 116.2 L233.3 117.0 L232.4 118.0 L232.4 118.0 L232.4 118.1 L232.1 118.9 L231.6 120.3 L231.6 122.7 L232.3 127.5 L231.6 132.8 L231.5 135.6 L232.4 137.0 L233.1 137.0 L233.6 136.9 L234.2 136.9 L234.7 137.2 L235.0 137.7 L235.2 138.3 L235.6 138.6 L236.6 138.6 L236.1 138.9 L235.5 139.3 L234.4 140.5 L233.6 141.6 L233.2 142.7 L232.6 145.3 L232.0 146.9 L231.8 148.4 L231.5 148.9 L230.4 149.5 L229.9 149.9 L228.3 151.6 L226.6 152.7 L226.0 153.2 L224.9 155.1 L224.6 155.4 L224.5 155.8 L223.8 157.6 L224.3 158.8 L224.3 159.3 L223.0 159.7 L220.0 161.1 L217.7 162.4 L212.8 166.4 L212.4 166.8 L212.3 167.4 L212.3 167.9 L212.1 168.2 L209.2 168.8 L208.5 168.8 L208.6 168.5 L208.8 168.3 L209.4 167.9 L209.1 167.8 L208.9 167.6 L208.8 167.3 L208.7 167.0 L208.7 166.6 L209.1 165.9 L209.2 165.7 L208.7 165.3 L207.8 165.0 L206.9 164.8 L206.3 164.8 L206.6 165.1 L207.8 165.5 L207.6 165.9 L207.0 166.3 L206.4 166.7 L206.0 166.8 L205.8 167.0 L205.8 167.5 L206.0 167.8 L206.5 167.7 L206.5 167.5 L206.9 167.6 L207.5 168.0 L207.8 168.7 L207.6 169.1 L207.0 169.5 L199.8 172.7 L199.4 172.8 L197.5 173.3 L196.4 174.0 L195.8 174.3 L194.4 174.6 L188.9 176.8 L188.2 176.9 L187.6 177.1 L186.7 177.9 L186.1 178.0 L186.3 177.7 L186.3 177.5 L186.3 177.3 L186.0 176.9 L185.6 176.6 L185.0 176.3 L183.7 176.2 L183.7 176.1 L183.7 175.9 L183.5 175.6 L183.2 175.4 L182.9 175.3 L182.2 175.1 L180.6 175.2 L177.7 175.8 L176.5 175.6 L175.6 174.9 L174.0 173.1 L172.7 172.5 L171.9 172.5 L169.8 172.3 L168.5 172.4 L166.8 172.1 L165.5 171.6 L164.1 171.8 L162.6 171.3 L160.6 171.9 L159.5 171.6 L157.3 172.2 L156.4 172.6 L154.3 173.7 L152.7 174.7 L150.6 175.7 L149.4 175.6 L148.5 176.1 L148.0 176.3 L147.8 177.0 L147.1 176.2 L146.6 176.1 L146.0 175.9 L146.3 175.6 L146.3 175.3 L145.9 175.0 L145.4 174.9 L145.2 175.4 L144.6 175.8 L144.3 175.9 L143.6 175.8 L142.8 175.8 L141.8 175.1 L139.9 174.2 L139.4 173.8 L139.3 173.4 L139.9 173.0 L140.4 172.5 L141.2 172.3 L140.8 171.9 L140.1 171.7 L138.5 171.1 L137.3 171.0 L136.2 171.0 L135.5 171.4 L135.0 171.3 L134.5 171.1 L133.3 170.5 L132.7 170.3 L132.1 170.0 L130.0 169.5 L127.4 169.2 L124.8 168.3 L124.3 168.0 L123.9 167.2 L123.4 166.8 L122.3 166.2 L121.6 165.4 L120.9 164.9 L120.3 164.5 L119.4 164.1 L119.0 163.7 L119.0 163.3 L118.8 163.1 L118.4 162.8 L118.2 162.7 L117.6 162.1 L117.0 161.7 L116.0 161.3 L114.3 161.0 L111.5 160.9 L109.7 161.0 L109.1 160.6 L107.7 160.7 L106.8 161.1 L106.4 160.7 L105.6 160.6 L104.7 161.0 L103.6 161.4 L102.6 160.5 L101.8 160.5 L100.8 160.6 L99.6 161.1 L97.8 161.7 L97.2 161.6 L96.4 162.0 L95.4 162.0 L94.5 162.1 L93.5 161.9 L93.8 161.7 L93.5 161.2 L92.6 161.0 L92.0 160.2 L92.1 158.9 L91.3 158.2 L90.7 157.3 L88.3 155.0 L87.2 154.5 L86.9 154.0 L86.4 153.0 L85.8 152.5 L85.0 152.3 L84.2 152.1 L83.4 152.1 L82.5 152.0 L82.1 151.6 L81.8 150.4 L81.4 149.7 L78.7 146.4 L78.1 146.0 L76.9 145.4 L76.4 145.0 L75.9 144.4 L75.7 143.7 L74.9 140.0 L74.8 137.2 L75.2 134.5 L75.1 133.8 L74.9 133.2 L74.8 132.5 L75.0 131.8 L75.4 131.1 L76.5 129.9 L76.7 129.2 L76.5 128.6 L75.6 128.0 L75.4 127.3 L75.6 126.8 L76.1 126.2 L77.3 125.3 L77.6 124.7 L77.7 123.9 L77.1 121.1 L77.1 119.8 L77.6 118.8 L78.9 118.4 L81.9 118.5 L83.2 118.4 L84.4 117.9 L85.6 117.0 L86.1 116.4 L86.4 115.9 L86.4 115.1 L86.6 114.5 L87.0 113.3 L87.3 112.0 L87.0 111.1 L86.4 110.3 L85.0 109.1 L84.6 108.6 L84.5 108.0 L84.4 107.3 L84.5 105.9 L84.4 105.1 L84.2 104.6 L84.4 104.3 L84.1 103.5 L83.8 101.3 L83.4 100.8 L83.2 100.3 L82.5 97.9 L82.4 97.2 L82.4 97.1 L82.7 96.8 L83.5 95.3 L85.6 92.8 L85.7 91.9 L85.4 90.9 L83.2 88.5 L82.9 87.8 L83.0 87.1 L83.7 86.1 L84.1 84.9 L84.2 83.5 L84.1 82.1 L83.7 81.1 L82.7 80.1 L82.3 79.5 L82.6 78.8 L83.4 78.0 L83.9 77.6 L84.6 77.4 L86.2 77.1 L86.9 76.9 L87.3 76.4 L89.2 71.5 L89.5 70.0 L89.2 68.6 L88.4 67.7 L87.6 67.2 L87.2 66.9 L86.4 66.1 L86.8 65.1 L87.4 64.7 L88.6 64.0 L89.1 63.7 L89.4 63.1 L89.6 61.6 L89.9 61.0 L90.1 60.7 L90.6 60.4 L90.9 60.2 L91.6 59.0 L91.9 58.6 L91.9 57.8 L91.6 56.3 L92.1 54.9 L92.9 53.9 L93.5 52.8 L93.2 51.3 L91.8 49.6 L91.6 49.2 L91.9 48.6 L92.5 48.3 L93.9 48.0 L94.6 48.1 L95.0 47.9 L95.2 47.5 L95.3 46.7 L95.4 46.3 L95.4 45.0 L95.2 44.2 L95.2 43.6 L94.9 42.8 L94.7 41.7 L94.4 41.0 L93.7 39.6 L93.2 39.0 L92.5 37.8 L92.4 36.5 L92.8 35.4 L93.6 34.4 L99.9 29.4 L100.6 28.4 L100.9 27.2 L100.4 25.8 L100.3 25.1 L101.5 25.0 Z" fill="#172033" fill-rule="evenodd"/></svg>
