<svg xmlns="http://www.w3.org/2000/svg" viewBox="0 0 320 200" role="img"><path d="M262.8 118.2 L262.5 118.2 L261.1 118.3 L258.8 118.8 L258.1 118.9 L257.4 118.8 L256.7 118.5 L256.5 117.8 L256.2 117.1 L255.8 116.5 L255.5 116.4 L255.2 116.4 L254.9 116.5 L254.5 116.5 L254.2 116.5 L253.4 116.2 L253.6 115.6 L253.5 115.6 L253.4 115.4 L253.4 115.4 L253.4 115.4 L253.2 115.2 L253.1 115.1 L253.1 115.1 L253.1 114.7 L253.3 114.4 L253.8 114.2 L254.9 114.0 L255.1 113.9 L255.2 113.8 L255.6 113.3 L255.8 113.1 L256.1 113.0 L256.3 113.0 L256.5 112.9 L256.8 112.7 L257.3 112.2 L258.3 111.6 L258.5 111.4 L258.8 111.3 L258.9 111.2 L259.2 111.2 L259.2 111.1 L259.2 111.1 L259.3 111.0 L259.5 110.9 L259.6 110.9 L259.6 110.7 L259.7 110.2 L259.1 109.9 L257.6 109.7 L257.4 109.4 L257.3 109.1 L257.5 108.9 L257.8 108.9 L258.4 109.3 L258.7 109.4 L258.7 109.1 L258.6 108.9 L255.7 106.4 L255.2 106.1 L255.1 106.0 L255.1 106.0 L254.8 105.7 L254.6 105.6 L253.8 105.3 L253.2 105.5 L252.8 107.2 L251.9 107.9 L250.7 108.5 L249.1 109.0 L247.6 109.9 L244.6 110.6 L244.2 110.7 L243.9 110.9 L243.2 111.6 L242.9 111.8 L242.4 111.9 L241.9 111.8 L241.7 111.6 L241.6 111.5 L241.3 111.1 L241.1 110.9 L240.7 110.7 L240.5 110.6 L239.9 109.9 L239.5 109.6 L239.0 109.6 L238.7 109.4 L238.5 109.3 L238.3 109.1 L238.0 109.1 L237.5 109.3 L237.3 109.4 L237.0 109.5 L236.6 109.9 L236.4 110.3 L236.3 110.8 L236.3 111.4 L236.4 112.3 L236.3 112.5 L236.1 112.6 L235.1 112.6 L234.5 112.9 L234.5 113.3 L235.2 114.1 L235.2 114.1 L235.5 115.0 L235.7 115.3 L236.1 115.9 L236.2 116.2 L236.3 116.5 L236.2 117.3 L235.7 117.4 L235.1 117.2 L234.7 117.3 L234.7 117.7 L235.9 118.5 L235.9 118.9 L235.3 119.1 L234.5 119.1 L233.1 118.8 L232.5 118.6 L232.0 118.4 L231.6 118.3 L229.0 118.6 L228.7 118.7 L228.1 119.0 L227.8 119.0 L226.8 118.9 L226.5 118.9 L225.6 119.1 L224.9 119.2 L224.6 119.4 L225.0 119.8 L225.7 120.1 L226.3 120.3 L226.4 120.3 L230.2 119.7 L231.0 120.1 L231.1 120.3 L231.1 120.6 L231.1 120.8 L231.0 121.0 L230.6 121.1 L229.4 120.9 L229.1 121.0 L228.5 121.4 L228.3 121.4 L228.0 120.9 L227.7 120.8 L227.5 121.1 L227.5 121.2 L227.8 121.4 L227.9 121.5 L227.8 121.8 L227.9 122.0 L227.9 122.1 L229.4 123.6 L229.4 124.0 L228.7 124.2 L228.4 123.8 L228.1 123.1 L227.8 122.5 L227.4 122.4 L227.3 122.5 L227.4 122.8 L227.6 123.1 L227.9 123.7 L227.9 124.0 L227.7 124.3 L227.6 124.3 L227.5 124.3 L227.4 124.3 L227.3 124.6 L227.3 124.6 L227.3 124.7 L227.3 124.8 L227.2 124.9 L227.0 124.9 L226.5 124.3 L226.3 124.2 L225.7 124.5 L225.5 124.5 L225.3 124.5 L225.1 124.8 L225.0 127.4 L224.9 127.8 L224.7 128.1 L224.3 128.4 L223.6 128.8 L223.4 129.0 L223.5 129.1 L223.6 129.3 L223.6 129.3 L223.3 129.4 L222.3 129.6 L221.5 129.7 L220.7 129.6 L219.4 129.3 L217.0 129.2 L211.5 128.1 L210.7 128.1 L210.1 128.3 L208.6 129.1 L207.3 129.2 L207.0 129.5 L207.1 130.2 L207.1 130.2 L207.0 130.3 L206.9 130.3 L206.9 130.3 L206.4 130.3 L206.2 130.3 L206.0 130.5 L205.8 131.1 L205.7 131.7 L205.7 132.3 L205.5 132.9 L205.4 133.4 L205.3 133.4 L205.1 133.4 L205.0 133.4 L204.8 133.5 L204.7 133.6 L204.7 133.7 L204.7 133.9 L204.8 134.6 L204.8 134.6 L205.3 134.9 L207.2 135.5 L208.5 135.5 L209.1 135.7 L209.2 135.8 L209.3 135.9 L209.4 136.0 L209.5 136.0 L209.8 136.0 L209.9 136.0 L210.1 136.2 L210.1 136.2 L210.1 136.4 L209.9 137.7 L210.0 138.1 L210.0 138.1 L210.0 138.1 L210.3 138.3 L212.3 138.5 L212.8 138.5 L214.0 138.2 L214.0 138.2 L214.0 138.2 L214.2 138.1 L214.4 138.1 L214.7 138.1 L214.9 138.2 L215.1 138.2 L215.3 138.4 L215.6 138.4 L215.8 138.4 L216.1 138.2 L216.2 138.2 L216.4 138.2 L216.5 138.2 L216.6 138.2 L216.6 138.2 L216.6 138.2 L216.6 138.2 L216.9 138.5 L217.4 139.4 L217.7 139.7 L217.9 139.9 L218.0 140.3 L218.0 140.6 L217.9 140.9 L217.7 141.1 L217.4 141.3 L217.2 141.4 L216.8 141.4 L216.5 141.4 L216.3 141.5 L216.3 141.9 L216.3 142.0 L216.4 142.2 L216.5 142.3 L216.5 142.5 L216.4 142.6 L216.0 142.8 L215.9 143.1 L215.9 143.4 L216.1 144.0 L216.1 144.3 L216.1 145.2 L216.1 145.6 L216.3 145.8 L216.6 146.3 L216.7 146.5 L216.8 147.0 L216.8 147.2 L217.0 147.5 L217.6 147.9 L218.2 148.8 L218.5 149.0 L219.3 149.4 L220.6 150.3 L221.0 150.8 L221.0 151.4 L220.8 152.3 L220.4 153.2 L219.8 154.0 L219.6 154.3 L219.6 154.3 L219.6 154.3 L219.6 154.3 L219.6 154.3 L219.4 154.6 L219.4 154.8 L219.2 155.0 L219.1 155.1 L219.0 155.2 L218.8 155.2 L218.0 155.3 L217.5 155.4 L217.2 155.7 L216.5 157.3 L216.1 158.0 L214.9 159.3 L214.0 160.0 L213.2 160.8 L212.5 161.8 L212.1 162.8 L212.0 163.4 L212.3 164.7 L212.4 165.4 L212.3 166.0 L212.1 166.5 L211.8 167.0 L211.7 167.2 L211.7 166.9 L211.5 166.7 L211.2 166.6 L210.8 166.5 L210.3 166.5 L210.1 166.5 L209.9 166.4 L209.5 166.2 L209.4 166.2 L209.2 166.2 L208.9 166.3 L208.7 166.3 L208.6 166.4 L208.5 166.5 L208.4 166.7 L208.2 166.7 L207.9 166.5 L207.6 165.9 L207.3 165.7 L206.9 165.8 L206.6 166.0 L206.1 166.4 L205.8 166.6 L205.5 166.7 L205.1 166.8 L204.7 166.8 L204.3 166.9 L203.7 167.2 L203.3 167.3 L203.0 167.2 L202.8 166.9 L202.7 166.6 L202.5 166.4 L202.2 166.1 L201.5 165.9 L201.2 165.7 L201.0 165.5 L200.7 164.8 L200.5 164.6 L200.2 164.6 L199.6 164.2 L199.3 164.1 L198.5 164.1 L197.0 164.4 L194.9 164.4 L194.8 164.5 L194.4 164.7 L194.3 164.7 L193.8 164.7 L193.6 164.7 L192.6 164.3 L192.2 164.3 L191.8 164.3 L191.5 164.4 L191.1 164.2 L191.1 163.9 L191.3 163.6 L191.6 163.4 L191.9 163.0 L191.8 162.8 L191.6 162.5 L191.3 162.3 L191.0 161.9 L191.1 161.3 L191.5 160.2 L191.5 159.6 L191.4 158.3 L191.4 157.7 L192.0 156.9 L192.9 156.0 L193.5 155.1 L193.3 154.7 L193.1 154.3 L193.1 154.3 L193.1 154.3 L192.6 154.0 L192.0 153.8 L191.4 153.6 L190.2 153.6 L189.7 153.5 L188.0 152.9 L187.3 152.2 L186.8 151.8 L186.3 151.6 L185.3 151.4 L184.3 150.7 L183.8 150.6 L182.7 150.4 L181.1 149.8 L180.6 149.8 L180.1 149.9 L179.3 150.4 L178.9 150.6 L177.8 150.7 L176.7 150.4 L174.1 149.0 L172.5 148.1 L170.3 147.0 L168.8 145.9 L166.7 144.4 L165.6 143.8 L163.2 143.2 L161.2 142.2 L157.8 140.0 L156.9 139.1 L156.4 138.6 L156.0 138.4 L155.5 138.4 L154.3 138.9 L153.9 139.0 L153.4 138.9 L152.9 138.7 L150.3 137.3 L148.1 136.0 L146.3 135.1 L145.3 134.3 L143.6 132.4 L142.6 131.6 L140.3 130.4 L135.0 127.5 L132.4 126.1 L130.2 124.9 L128.4 123.8 L127.4 123.1 L127.3 123.0 L126.1 121.9 L125.9 121.5 L125.6 120.6 L125.6 120.2 L125.7 119.9 L125.8 119.6 L125.9 119.3 L125.8 118.9 L125.3 118.1 L125.3 117.8 L125.3 117.4 L125.2 117.0 L125.1 116.7 L124.6 116.1 L124.5 115.8 L124.5 115.1 L124.3 115.0 L123.0 114.4 L122.3 114.2 L121.9 114.0 L121.8 113.9 L121.8 113.9 L121.7 113.5 L121.6 113.4 L121.0 112.8 L120.8 112.4 L120.4 111.4 L120.2 111.2 L119.7 110.8 L119.5 110.6 L119.4 110.2 L119.2 109.5 L118.7 108.1 L118.5 107.8 L118.7 107.7 L118.6 107.5 L118.5 106.3 L118.5 106.0 L118.4 105.7 L117.2 104.2 L116.9 104.0 L113.3 102.0 L111.9 101.5 L110.3 101.2 L109.7 101.2 L109.3 101.3 L109.1 101.6 L109.0 102.2 L108.6 102.4 L108.3 102.9 L107.8 103.2 L107.3 103.4 L106.7 103.5 L106.0 103.3 L104.3 102.4 L104.1 102.4 L103.1 102.5 L103.0 102.3 L103.0 102.2 L102.9 102.2 L102.8 102.3 L102.6 102.6 L102.5 102.7 L102.4 102.7 L101.6 102.1 L100.5 101.9 L97.3 102.1 L95.3 102.6 L94.4 102.6 L93.8 102.4 L93.3 102.2 L92.5 101.5 L91.5 101.0 L89.9 100.4 L88.2 99.7 L87.7 99.4 L87.6 99.0 L87.8 97.7 L88.0 97.4 L88.2 97.2 L88.4 97.0 L89.1 96.8 L89.3 96.6 L89.2 96.3 L88.1 95.1 L87.6 94.4 L87.5 93.9 L87.9 93.4 L88.3 93.2 L88.8 93.2 L89.4 93.3 L90.0 93.6 L90.3 93.7 L90.6 93.6 L90.7 93.4 L90.7 93.2 L90.6 93.0 L90.4 92.8 L90.1 92.7 L89.4 92.3 L89.1 92.1 L88.9 91.9 L88.6 91.5 L88.1 91.2 L86.4 90.7 L85.6 90.7 L85.4 90.7 L85.2 90.4 L85.2 90.2 L85.4 90.1 L85.7 90.0 L85.7 90.0 L85.7 90.0 L85.7 90.0 L86.6 89.7 L86.6 89.1 L86.3 88.3 L86.4 87.6 L86.7 87.4 L87.0 87.3 L87.3 87.2 L87.3 86.9 L87.1 86.7 L86.8 86.5 L86.0 86.3 L85.5 85.9 L85.0 85.4 L84.5 85.0 L83.8 85.0 L83.1 85.0 L81.7 84.9 L78.3 85.3 L77.5 85.3 L77.1 85.2 L76.4 84.7 L76.0 84.6 L75.2 84.5 L74.8 84.3 L74.5 84.0 L74.4 82.8 L74.2 82.5 L74.0 82.2 L73.0 81.4 L72.6 81.3 L72.2 81.3 L71.7 81.5 L71.2 81.6 L70.8 81.6 L70.0 81.5 L68.9 81.1 L67.8 80.4 L64.4 77.4 L64.0 77.2 L63.7 77.6 L63.5 78.9 L63.1 79.4 L62.5 79.5 L61.6 79.5 L60.8 79.4 L59.1 78.8 L58.7 78.8 L58.4 78.9 L57.5 79.3 L56.9 79.5 L56.6 79.6 L56.5 79.9 L56.6 80.2 L56.9 80.4 L58.9 81.1 L59.5 81.4 L59.9 82.0 L60.4 82.7 L61.6 84.2 L62.2 84.7 L62.4 84.9 L62.5 85.0 L62.4 85.1 L62.2 85.2 L61.2 85.3 L60.9 85.3 L60.7 85.1 L60.7 84.8 L60.8 84.5 L60.9 84.2 L60.7 83.7 L60.3 83.3 L59.8 83.0 L58.2 82.4 L57.8 82.4 L57.5 82.4 L56.9 82.6 L56.7 82.6 L56.4 82.5 L56.0 82.1 L55.8 81.9 L55.5 81.8 L55.1 81.8 L54.8 81.9 L54.5 82.0 L54.3 82.1 L54.2 82.3 L53.8 82.7 L53.3 82.8 L53.1 83.0 L53.2 83.4 L53.5 84.0 L53.5 84.2 L53.4 84.6 L52.7 85.7 L52.5 85.9 L51.9 86.0 L51.8 86.3 L51.9 86.5 L52.1 86.7 L52.1 86.8 L51.8 87.0 L51.5 87.1 L50.4 87.0 L50.1 87.1 L49.2 87.4 L48.4 87.5 L46.1 87.2 L44.6 87.3 L43.1 87.8 L41.8 88.8 L40.9 90.0 L40.9 90.0 L40.3 90.7 L39.7 91.1 L38.1 91.6 L37.7 92.1 L37.7 92.7 L38.0 93.9 L38.0 94.6 L37.8 95.1 L37.8 95.6 L38.1 96.2 L38.5 96.6 L38.7 97.0 L38.7 97.5 L38.7 98.0 L38.8 98.5 L39.0 98.9 L39.3 99.3 L39.7 99.6 L39.9 99.8 L40.1 99.8 L40.9 100.0 L41.1 100.1 L41.0 100.2 L40.8 100.3 L40.5 100.5 L39.7 100.8 L39.4 101.1 L38.9 101.8 L38.6 101.9 L36.7 101.6 L35.1 101.3 L31.5 101.2 L31.0 101.2 L27.6 101.0 L24.6 100.9 L22.0 100.8 L22.0 97.1 L22.0 93.4 L22.0 89.7 L22.0 86.1 L22.0 82.4 L22.0 78.7 L22.0 75.0 L22.0 71.3 L22.0 67.6 L22.0 63.9 L22.0 60.2 L22.0 56.6 L22.0 52.9 L22.0 49.2 L22.0 45.5 L22.0 41.8 L22.0 41.8 L22.0 41.8 L22.0 41.8 L22.0 41.8 L22.0 41.8 L22.0 41.8 L22.0 41.8 L22.0 41.8 L22.0 41.8 L22.0 41.8 L22.0 41.8 L22.0 41.8 L22.0 41.8 L22.0 41.8 L22.0 41.8 L22.0 41.8 L22.0 41.8 L22.0 41.8 L22.0 41.8 L22.0 41.8 L22.0 41.8 L22.0 41.8 L22.0 41.8 L22.0 41.8 L22.0 41.8 L22.0 41.8 L22.0 41.8 L22.0 41.8 L22.0 41.8 L22.0 41.8 L22.0 41.8 L22.0 41.8 L22.0 41.8 L22.0 41.8 L22.0 41.8 L22.0 41.8 L22.0 41.8 L22.0 41.8 L22.0 41.8 L23.5 41.4 L25.1 41.1 L26.6 40.7 L28.1 40.4 L29.6 40.0 L31.1 39.7 L32.6 39.4 L33.8 39.1 L34.1 39.0 L35.6 38.7 L37.1 38.3 L38.6 38.0 L40.1 37.6 L41.6 37.3 L43.1 37.0 L44.6 36.6 L46.1 36.3 L48.2 35.8 L50.2 35.4 L52.2 35.0 L54.2 34.5 L55.1 34.3 L56.0 34.2 L57.0 34.0 L57.9 33.8 L58.9 33.6 L59.8 33.4 L60.8 33.2 L61.8 33.0 L63.1 32.7 L63.5 32.7 L63.9 32.9 L65.1 33.5 L65.5 33.6 L66.5 34.1 L68.0 34.8 L70.1 35.8 L71.5 36.5 L72.5 37.0 L75.3 38.3 L78.3 39.7 L81.5 41.2 L84.7 42.8 L87.9 44.3 L91.0 45.8 L94.0 47.2 L96.7 48.4 L99.0 49.6 L100.9 50.5 L102.3 51.1 L103.3 51.6 L103.7 51.9 L104.0 52.4 L104.1 52.8 L104.2 53.6 L104.4 54.0 L105.3 55.1 L107.2 56.5 L108.1 57.2 L109.0 57.9 L110.1 58.8 L111.0 59.6 L111.9 60.3 L112.8 61.1 L113.8 61.9 L114.7 62.6 L115.6 63.4 L116.5 64.1 L117.4 64.9 L118.6 65.9 L118.9 66.0 L119.2 66.1 L119.3 66.1 L120.6 65.9 L121.2 65.9 L121.7 65.8 L122.3 65.7 L122.9 65.6 L123.8 65.5 L124.7 65.4 L125.6 65.3 L126.5 65.1 L128.0 65.0 L129.4 64.8 L130.9 64.6 L132.4 64.4 L133.8 64.3 L135.3 64.1 L136.8 63.9 L138.2 63.7 L140.7 63.9 L143.1 64.1 L145.6 64.2 L148.0 64.4 L150.3 64.5 L152.5 64.7 L154.7 64.8 L156.9 65.0 L157.8 65.0 L158.1 65.0 L158.4 64.9 L160.0 64.3 L161.5 63.7 L163.1 63.0 L164.7 62.4 L165.0 62.3 L165.3 62.2 L165.5 62.2 L165.8 62.3 L166.1 62.5 L166.3 62.6 L168.1 64.3 L169.8 65.9 L170.6 66.5 L171.4 67.1 L173.1 67.9 L174.7 68.6 L175.0 68.9 L175.3 69.1 L176.7 71.1 L177.6 72.4 L178.8 74.2 L179.8 75.8 L180.0 75.8 L180.1 75.8 L182.4 74.9 L184.7 74.0 L184.4 78.0 L184.0 82.0 L184.0 82.4 L184.0 82.8 L183.9 83.0 L183.8 83.1 L183.6 83.2 L183.4 83.2 L183.4 83.3 L183.3 83.4 L183.3 83.9 L183.3 86.6 L183.2 89.7 L183.2 89.8 L183.2 89.9 L183.3 89.9 L183.4 89.9 L185.3 90.0 L187.1 90.0 L188.8 90.0 L190.8 90.0 L190.8 90.0 L190.9 90.0 L191.0 90.0 L191.0 90.0 L191.1 90.0 L191.1 90.0 L191.2 90.0 L191.2 90.0 L191.5 92.0 L191.8 94.1 L192.3 96.1 L192.8 98.0 L193.5 100.4 L194.2 102.8 L194.5 103.1 L194.9 103.4 L195.3 103.5 L195.5 103.6 L196.2 103.7 L198.1 103.6 L199.6 103.5 L202.0 103.4 L203.7 103.4 L205.8 103.3 L207.1 103.2 L209.1 103.1 L211.2 103.0 L211.4 103.1 L211.6 103.1 L211.9 103.2 L212.2 103.4 L212.4 103.4 L212.6 103.5 L212.8 103.4 L212.9 103.4 L213.4 103.2 L213.8 103.0 L214.0 102.9 L214.2 102.8 L214.3 103.0 L214.4 103.2 L214.5 103.2 L214.5 103.2 L214.5 103.3 L214.6 103.4 L214.9 103.8 L215.3 104.1 L215.4 104.3 L215.5 104.4 L215.5 104.7 L215.6 105.0 L215.7 105.2 L215.8 105.3 L215.9 105.2 L216.0 105.2 L216.1 105.1 L216.2 105.1 L216.3 105.1 L216.4 105.1 L216.5 105.2 L216.6 105.3 L216.7 105.1 L216.8 104.9 L217.0 104.9 L217.1 104.9 L217.2 105.1 L217.2 105.2 L217.2 105.3 L217.2 105.3 L217.2 105.4 L217.2 105.4 L217.2 105.4 L217.3 105.5 L217.3 105.5 L217.4 105.5 L217.2 105.6 L217.0 105.7 L216.9 105.7 L216.9 105.8 L216.9 105.8 L217.0 105.8 L217.0 105.9 L217.1 105.9 L217.1 106.0 L217.2 106.1 L217.2 106.3 L217.2 106.5 L217.1 106.8 L217.0 107.1 L216.9 107.3 L216.8 107.6 L216.7 107.8 L216.5 108.0 L216.5 108.1 L216.4 108.2 L216.2 108.3 L216.1 108.4 L216.0 108.5 L215.9 108.6 L215.6 108.7 L215.3 108.8 L215.2 108.8 L215.2 108.9 L215.1 109.0 L215.1 109.0 L215.2 109.0 L215.2 109.1 L215.5 109.1 L215.8 109.2 L216.1 109.3 L216.3 109.4 L217.1 109.9 L217.8 110.5 L218.3 110.8 L218.9 111.1 L219.5 111.4 L220.8 111.9 L222.7 112.7 L222.7 112.6 L222.7 112.6 L222.8 112.5 L222.9 112.4 L223.0 112.4 L223.2 112.4 L223.2 112.4 L223.3 112.3 L223.3 112.2 L223.4 112.2 L223.4 112.1 L223.5 112.1 L223.6 112.1 L223.7 112.1 L224.0 112.2 L224.4 112.4 L224.6 112.4 L224.8 112.4 L225.0 112.3 L225.1 112.3 L225.2 112.2 L225.2 112.0 L225.1 112.0 L224.9 111.9 L225.1 111.7 L225.3 111.4 L225.3 111.4 L225.3 111.3 L225.3 111.2 L225.2 111.1 L225.1 111.0 L225.1 111.0 L225.1 110.8 L225.0 110.7 L225.0 110.6 L225.0 110.5 L224.8 110.5 L224.6 110.5 L224.6 110.4 L224.5 110.4 L224.4 110.3 L224.4 110.3 L224.3 110.1 L224.2 110.0 L224.2 109.3 L224.1 108.6 L224.1 108.5 L224.1 108.4 L224.2 108.3 L224.2 108.3 L224.3 108.3 L224.3 108.2 L224.4 108.1 L224.4 108.1 L224.5 108.0 L224.5 107.9 L224.4 107.7 L224.4 107.5 L224.4 107.5 L224.4 107.4 L224.5 107.4 L224.5 107.4 L224.6 107.4 L224.6 107.4 L224.7 107.5 L224.7 107.5 L224.8 107.3 L224.9 107.1 L225.1 107.0 L225.3 106.9 L225.7 106.8 L225.8 106.7 L226.3 106.5 L226.5 106.4 L226.7 106.2 L226.9 105.6 L227.2 105.0 L227.5 104.8 L227.7 104.6 L228.2 104.4 L228.8 104.2 L229.0 103.9 L229.2 103.7 L229.3 103.6 L229.4 103.5 L229.6 103.4 L229.7 103.4 L230.1 103.4 L230.4 103.3 L230.7 103.2 L231.0 103.1 L231.3 103.0 L231.5 102.8 L231.7 102.7 L231.8 102.6 L231.9 102.5 L232.0 102.4 L232.1 101.7 L232.2 100.9 L232.2 100.8 L232.2 100.6 L232.2 100.5 L232.1 100.5 L232.1 100.4 L232.1 100.4 L232.1 100.4 L232.0 100.4 L231.9 100.3 L231.9 100.2 L231.9 100.1 L231.8 100.1 L231.9 100.0 L231.9 100.0 L232.0 99.9 L232.0 99.9 L232.4 99.7 L232.8 99.6 L232.9 99.6 L233.1 99.5 L233.2 99.6 L233.4 99.6 L233.5 99.5 L233.5 99.3 L233.7 99.1 L233.9 99.0 L234.4 98.8 L234.8 98.6 L234.9 98.6 L235.1 98.5 L235.3 98.6 L235.5 98.7 L235.7 98.7 L235.8 98.6 L236.1 98.5 L236.4 98.3 L236.5 98.3 L236.6 98.3 L237.1 98.4 L237.6 98.4 L237.7 98.4 L237.8 98.3 L237.8 98.3 L237.8 98.2 L237.6 98.0 L237.5 97.8 L237.5 97.7 L237.4 97.6 L237.5 97.4 L237.7 97.2 L237.9 97.1 L238.1 97.0 L238.5 96.9 L239.0 96.8 L239.8 96.3 L240.6 95.8 L240.9 95.6 L241.1 95.4 L241.2 95.3 L241.4 95.2 L242.4 95.0 L243.5 94.8 L244.4 94.8 L245.3 94.7 L245.7 94.6 L246.0 94.5 L246.2 94.3 L246.5 94.1 L246.6 94.0 L246.7 93.8 L246.8 93.8 L246.9 93.7 L247.4 93.6 L247.8 93.4 L248.5 93.1 L249.2 92.7 L249.4 92.5 L249.6 92.3 L250.1 91.6 L250.7 90.9 L250.8 90.8 L250.9 90.8 L251.0 90.7 L251.2 90.6 L251.3 90.6 L251.5 90.6 L251.6 90.5 L251.7 90.5 L251.8 90.4 L251.9 90.3 L252.0 90.1 L252.1 90.0 L252.3 89.7 L252.5 89.3 L252.8 89.1 L253.1 88.9 L253.9 88.7 L254.7 88.4 L254.8 88.4 L255.0 88.4 L255.1 88.5 L255.2 88.6 L255.4 88.7 L255.5 88.8 L255.6 88.9 L255.6 89.0 L255.7 89.2 L255.7 89.3 L255.9 89.4 L256.0 89.5 L256.2 89.6 L256.3 89.6 L256.5 89.6 L256.7 89.6 L257.0 89.6 L257.2 89.5 L257.4 89.2 L257.5 89.0 L257.7 88.7 L257.8 88.4 L258.0 88.1 L258.2 87.9 L258.4 87.7 L258.7 87.5 L258.7 87.4 L258.8 87.3 L258.9 87.1 L259.0 87.0 L259.1 86.8 L259.2 86.7 L259.4 86.7 L259.6 86.7 L260.0 86.8 L260.3 86.9 L260.6 86.8 L260.9 86.8 L261.2 86.7 L261.5 86.6 L262.1 86.2 L262.6 85.9 L263.0 85.7 L263.7 85.3 L264.2 85.2 L264.7 85.4 L267.0 86.6 L267.5 86.7 L267.5 86.7 L267.3 87.3 L266.7 87.6 L265.4 87.9 L263.1 89.2 L262.4 89.3 L261.6 89.3 L261.0 89.4 L260.7 90.0 L260.7 90.9 L260.5 91.2 L259.9 91.4 L258.3 91.5 L257.8 91.7 L256.2 92.7 L255.5 93.4 L255.1 94.1 L254.7 94.5 L254.2 94.8 L253.7 95.0 L252.7 95.5 L250.1 96.7 L249.8 97.1 L250.1 97.6 L250.7 97.9 L252.9 98.0 L252.9 98.0 L252.9 98.0 L252.9 98.0 L253.5 98.3 L253.8 98.5 L254.0 98.7 L254.4 99.3 L254.7 99.5 L255.0 99.5 L255.1 99.5 L255.6 99.3 L257.6 98.5 L258.1 98.4 L258.4 98.5 L258.7 98.8 L259.6 100.0 L259.8 100.3 L259.8 100.7 L259.6 101.6 L259.6 101.9 L259.8 102.1 L260.0 102.1 L260.3 102.0 L260.7 102.0 L261.0 102.1 L261.3 102.2 L261.6 102.4 L261.8 102.7 L262.1 102.9 L262.4 102.9 L263.1 102.8 L263.9 102.9 L264.2 103.1 L264.6 103.2 L264.8 103.4 L265.4 103.4 L265.7 103.6 L266.1 104.1 L266.4 104.2 L266.5 103.9 L266.5 103.6 L266.4 103.3 L266.5 103.1 L266.8 102.9 L267.2 103.0 L267.3 103.2 L267.5 103.8 L267.7 104.0 L267.9 104.2 L268.1 104.1 L268.3 103.8 L268.7 103.4 L269.8 104.2 L270.2 103.9 L270.2 103.4 L270.1 100.6 L270.2 100.4 L270.4 100.4 L271.2 101.0 L271.9 101.2 L272.4 101.1 L272.9 100.8 L273.4 99.9 L273.6 99.4 L273.7 99.0 L273.7 98.8 L273.2 98.3 L273.0 98.0 L273.0 98.0 L273.0 98.0 L273.4 97.4 L273.6 97.2 L273.9 97.1 L274.3 97.2 L274.5 97.4 L274.5 97.7 L274.5 98.0 L274.3 98.9 L274.3 99.1 L274.4 99.2 L274.5 99.1 L274.6 98.9 L274.7 98.8 L274.8 98.8 L274.9 99.1 L275.1 99.2 L275.2 99.1 L275.2 98.7 L275.3 98.7 L275.4 98.7 L275.6 98.8 L277.1 100.5 L277.3 101.0 L277.4 101.5 L277.4 102.2 L277.5 102.9 L277.9 103.0 L279.2 102.8 L279.6 103.1 L279.8 103.3 L280.1 103.5 L280.6 103.2 L280.9 103.0 L281.3 102.8 L281.7 102.8 L282.1 103.0 L282.3 103.3 L282.3 103.7 L282.4 104.2 L282.5 105.0 L282.5 105.3 L282.4 105.6 L282.2 106.0 L282.7 105.9 L283.6 105.7 L284.2 105.6 L284.3 105.5 L284.5 105.1 L284.6 105.0 L284.9 104.8 L285.1 104.9 L285.6 105.5 L285.9 105.6 L286.3 105.7 L287.2 105.8 L287.3 105.8 L287.3 105.9 L287.3 106.0 L287.3 106.1 L287.3 106.5 L287.6 106.6 L288.0 106.6 L288.3 106.7 L289.0 107.5 L289.5 107.9 L290.1 108.1 L290.8 108.2 L292.9 108.0 L293.5 108.2 L293.6 108.6 L293.5 108.9 L293.7 108.9 L294.5 108.5 L295.7 108.1 L295.9 108.2 L296.1 108.4 L296.5 108.6 L297.4 108.6 L297.8 108.6 L297.9 108.6 L297.9 108.6 L298.0 109.0 L297.5 109.5 L296.7 109.8 L295.2 110.2 L293.9 110.9 L292.7 111.1 L292.1 111.3 L291.8 111.7 L291.6 112.8 L291.1 113.0 L290.5 112.8 L290.2 112.8 L290.1 113.0 L290.1 113.3 L290.0 113.5 L289.8 113.7 L289.6 113.8 L289.0 113.9 L287.8 113.3 L287.2 113.2 L286.7 113.0 L286.2 112.6 L285.7 112.2 L285.2 112.4 L285.1 112.6 L285.1 112.6 L285.5 113.1 L285.5 113.1 L285.5 113.4 L285.4 113.6 L285.4 113.8 L285.4 113.8 L285.5 114.0 L286.2 114.3 L286.2 114.3 L286.3 114.5 L286.4 114.7 L286.4 114.7 L286.4 115.0 L286.2 115.4 L285.9 115.8 L285.5 115.9 L285.1 115.7 L284.1 115.3 L283.9 115.2 L283.1 115.3 L282.9 115.2 L282.9 115.2 L283.0 115.1 L283.2 115.0 L283.5 115.0 L283.7 114.9 L283.8 114.8 L283.8 114.8 L283.6 114.7 L283.3 114.7 L283.2 114.7 L282.5 114.7 L282.2 114.7 L281.1 115.2 L281.0 115.4 L280.9 115.7 L280.7 116.1 L280.2 116.4 L278.8 117.0 L278.8 117.2 L278.9 117.4 L279.2 117.6 L279.6 117.8 L279.8 117.8 L279.9 117.9 L279.9 118.0 L279.8 118.2 L279.6 118.2 L279.4 118.2 L279.2 118.1 L279.0 118.1 L279.0 118.1 L278.8 118.2 L278.1 118.1 L277.5 118.0 L276.9 118.0 L276.4 118.4 L276.1 118.9 L275.9 119.2 L275.7 119.3 L274.8 119.7 L274.6 119.8 L274.3 119.7 L274.2 119.4 L274.2 118.8 L274.1 118.4 L273.8 118.1 L273.6 117.9 L273.3 118.1 L273.2 118.4 L273.1 118.7 L273.0 118.9 L272.6 118.9 L271.8 118.8 L271.5 118.7 L271.1 118.5 L270.8 118.3 L270.7 118.0 L270.6 117.9 L269.8 117.7 L269.3 117.3 L269.0 117.3 L268.5 117.3 L268.2 117.3 L268.0 117.3 L267.9 117.1 L267.7 116.9 L267.5 116.8 L267.3 116.9 L267.1 117.2 L266.9 117.5 L266.7 117.8 L266.2 117.8 L264.3 117.6 L263.4 117.8 L262.8 118.2 Z M256.5 105.7 L256.2 105.7 L256.4 106.1 L256.4 106.1 L256.7 106.3 L257.2 106.8 L257.4 107.0 L257.8 107.0 L257.7 106.7 L257.5 106.4 L257.3 106.1 L256.9 105.8 L256.5 105.7 Z" fill="#172033" fill-rule="evenodd"/></svg>
