<svg xmlns="http://www.w3.org/2000/svg" viewBox="0 0 320 200" role="img"><path d="M162.3 124.2 L158.0 128.2 L152.6 137.2 L147.9 140.4 L150.1 140.4 L147.9 142.7 L146.4 140.5 L144.0 139.1 L141.0 138.5 L137.5 138.6 L137.5 136.4 L142.0 137.7 L148.7 136.4 L148.7 134.0 L146.8 131.8 L145.9 130.3 L148.3 128.0 L156.6 122.7 L160.0 120.0 L160.5 121.1 L160.6 122.2 L161.0 123.2 L162.3 124.2 Z M170.2 91.8 L164.9 95.8 L157.5 92.3 L139.3 79.7 L136.9 71.0 L137.7 60.9 L141.8 53.0 L141.0 51.9 L139.6 48.9 L147.6 47.7 L151.0 41.0 L153.1 32.4 L156.9 25.5 L160.7 23.1 L164.3 22.1 L167.5 22.0 L175.0 23.2 L177.1 24.0 L178.3 26.0 L180.2 30.3 L183.1 43.5 L183.0 61.8 L178.9 79.6 L170.2 91.8 Z M162.9 174.3 L165.5 169.8 L167.9 170.3 L165.4 176.2 L164.2 177.8 L163.2 178.0 L162.9 174.3 Z" fill="#172033" fill-rule="evenodd"/></svg>
