<svg xmlns="http://www.w3.org/2000/svg" viewBox="0 0 320 200" role="img"><path d="M248.9 71.2 L249.7 72.4 L251.1 74.0 L251.7 74.8 L251.7 75.1 L251.5 75.4 L251.2 75.6 L251.0 75.7 L250.7 75.7 L250.0 75.9 L249.8 76.0 L249.6 76.2 L249.3 76.4 L249.2 76.6 L249.2 76.8 L249.2 77.0 L249.2 77.2 L249.0 77.4 L248.9 77.9 L248.8 78.1 L248.6 78.3 L248.3 78.3 L247.7 78.2 L247.4 78.3 L247.2 78.5 L247.0 78.8 L246.7 78.9 L246.1 79.2 L245.9 79.4 L245.8 79.6 L245.6 79.8 L245.5 79.8 L244.9 80.3 L244.6 80.5 L244.5 80.9 L244.1 81.1 L243.5 81.2 L242.4 81.1 L242.1 81.2 L241.9 81.4 L241.6 81.9 L241.3 82.3 L241.3 82.4 L241.3 82.5 L241.3 82.8 L241.3 82.9 L241.1 83.3 L241.1 83.5 L241.1 83.7 L240.9 83.8 L240.7 83.7 L240.7 83.8 L240.5 84.0 L240.3 84.3 L240.1 84.6 L239.5 84.8 L239.3 85.1 L239.3 85.3 L239.4 85.5 L239.7 86.1 L239.9 86.2 L240.1 86.2 L240.3 86.3 L240.3 86.4 L240.3 86.5 L240.3 86.6 L240.3 86.7 L240.4 86.8 L240.5 86.9 L240.6 87.0 L240.7 87.0 L240.8 87.2 L240.9 87.6 L241.1 87.8 L241.1 87.9 L241.1 88.0 L241.1 88.1 L241.0 88.2 L240.7 88.5 L240.5 88.8 L240.5 89.2 L240.7 89.6 L240.8 89.8 L241.8 90.5 L242.0 90.5 L242.3 90.0 L242.5 89.8 L242.8 89.7 L243.1 89.7 L243.3 89.7 L243.4 89.8 L243.6 89.9 L243.8 89.9 L244.0 89.9 L244.2 89.9 L244.3 90.0 L244.5 90.2 L244.5 90.2 L245.0 90.4 L245.1 90.6 L245.2 90.8 L245.3 91.0 L245.2 91.3 L245.1 91.5 L245.0 91.7 L244.8 91.8 L244.5 92.0 L244.3 92.2 L244.2 92.4 L244.1 93.1 L243.9 92.9 L243.5 93.0 L241.8 94.1 L240.8 94.3 L240.6 94.4 L240.3 94.6 L240.0 95.1 L239.7 95.4 L239.4 95.5 L239.2 95.4 L238.7 95.1 L238.5 95.0 L238.3 95.0 L238.0 95.1 L237.9 95.1 L237.7 95.1 L237.6 95.0 L237.5 94.9 L237.4 94.8 L237.1 94.7 L236.9 94.7 L236.9 94.8 L236.9 94.9 L237.0 95.1 L237.0 95.2 L237.0 95.3 L237.0 95.4 L236.7 95.8 L236.6 95.8 L236.3 95.9 L235.7 95.8 L235.4 96.0 L235.1 95.9 L234.9 95.9 L234.7 96.1 L234.5 96.0 L234.2 96.0 L233.9 96.1 L233.8 96.2 L233.4 96.7 L233.1 97.2 L232.9 97.7 L232.8 98.1 L232.9 98.4 L233.0 98.6 L233.2 98.7 L233.4 98.9 L233.5 99.1 L233.6 99.5 L233.8 99.7 L233.8 99.8 L233.8 99.9 L233.8 100.0 L233.8 100.1 L233.7 100.3 L233.6 100.5 L233.5 101.1 L233.5 101.3 L233.6 101.6 L233.7 101.8 L233.9 101.9 L234.0 102.0 L234.0 102.1 L234.1 102.1 L234.1 102.2 L234.2 102.3 L234.1 102.8 L234.1 103.0 L234.0 103.2 L233.9 103.2 L233.7 103.2 L233.5 103.3 L233.3 103.4 L233.2 103.8 L233.1 103.9 L232.9 104.0 L232.7 104.1 L232.2 104.2 L232.0 104.3 L231.9 104.5 L231.8 104.9 L231.1 105.9 L230.9 106.1 L230.5 106.3 L230.3 106.5 L230.6 107.0 L231.0 107.5 L232.0 108.6 L233.0 109.7 L234.1 110.9 L235.1 112.0 L236.1 113.1 L237.1 114.3 L238.2 115.4 L239.2 116.5 L239.6 116.6 L239.9 116.7 L240.2 116.9 L241.1 119.3 L241.2 119.9 L240.9 120.6 L240.0 121.7 L239.5 122.1 L238.9 122.5 L237.6 123.1 L237.5 123.1 L237.2 123.1 L237.1 123.2 L237.0 123.3 L236.6 124.1 L236.5 124.7 L236.4 125.0 L236.0 125.5 L235.5 125.7 L234.4 125.9 L233.6 126.1 L233.4 126.1 L233.2 126.1 L232.7 125.8 L232.5 125.8 L231.7 125.7 L231.4 125.7 L231.3 125.9 L231.7 126.4 L231.7 126.7 L231.5 126.9 L231.2 127.0 L230.8 127.1 L230.5 127.1 L229.8 127.1 L229.5 127.1 L228.9 127.3 L228.7 127.7 L228.6 128.7 L228.6 128.9 L228.5 129.0 L228.4 129.2 L228.2 129.3 L228.0 129.4 L227.9 129.4 L227.8 129.3 L227.6 129.3 L227.4 129.3 L227.2 129.5 L227.0 129.5 L226.9 129.5 L226.5 129.3 L226.0 129.3 L225.7 129.3 L225.5 129.4 L225.2 129.6 L224.5 130.4 L224.2 130.5 L224.0 130.6 L223.7 130.7 L223.4 130.8 L223.1 130.8 L222.8 130.7 L222.6 130.6 L222.3 130.5 L221.7 130.6 L220.7 131.3 L220.1 131.5 L219.6 131.5 L217.0 130.4 L216.4 130.3 L215.9 130.4 L215.9 130.5 L215.8 130.7 L215.8 130.8 L215.6 130.9 L215.2 130.9 L214.9 131.0 L214.8 131.2 L214.8 131.4 L214.8 131.7 L214.6 132.2 L214.2 132.3 L213.1 132.2 L212.4 132.2 L212.1 132.3 L211.8 132.5 L211.8 132.7 L211.8 132.9 L211.8 133.2 L211.7 133.6 L211.6 133.8 L211.5 134.1 L211.6 134.5 L211.6 134.6 L211.7 134.7 L211.8 134.8 L211.8 135.1 L212.1 135.7 L212.2 136.2 L212.2 136.8 L212.1 137.3 L211.8 137.8 L211.6 138.1 L211.4 138.2 L211.3 138.2 L211.1 138.2 L210.9 138.2 L210.7 138.5 L210.4 138.6 L210.2 138.7 L209.9 138.7 L209.6 138.6 L209.3 138.5 L209.0 138.4 L208.7 138.2 L208.5 137.9 L208.3 137.6 L206.9 136.0 L206.1 135.4 L205.3 134.3 L204.8 133.8 L203.9 133.3 L203.4 133.1 L202.9 133.2 L202.6 133.6 L202.5 134.1 L202.3 134.5 L201.8 134.7 L201.2 134.4 L200.3 133.6 L199.6 133.5 L199.3 133.5 L198.6 133.7 L198.3 133.7 L198.0 133.6 L197.4 133.4 L196.9 133.4 L196.3 133.7 L195.7 134.1 L195.2 134.4 L194.7 134.3 L194.3 133.9 L194.1 133.4 L193.9 132.4 L193.7 132.0 L193.5 131.5 L193.2 131.2 L192.8 131.1 L191.9 130.8 L190.2 130.7 L187.2 131.1 L186.9 131.0 L186.8 130.8 L186.6 130.2 L186.4 129.9 L186.2 129.7 L185.7 129.2 L185.1 128.9 L184.5 128.9 L184.3 129.1 L184.2 129.3 L184.1 129.6 L184.2 129.9 L184.3 130.2 L184.6 130.4 L184.9 130.5 L185.1 130.6 L185.3 130.8 L185.4 131.1 L185.6 131.6 L186.2 132.8 L186.2 132.8 L186.5 133.1 L187.1 133.6 L187.4 133.9 L188.0 134.7 L189.3 135.7 L189.8 136.0 L190.5 136.3 L190.8 136.5 L191.6 137.4 L192.2 137.9 L192.4 138.2 L192.5 138.5 L192.5 139.1 L192.5 139.3 L192.4 139.5 L192.0 140.0 L191.9 140.3 L191.8 140.6 L192.2 142.3 L192.2 142.9 L192.1 144.0 L192.2 144.6 L192.4 145.0 L192.8 145.5 L193.3 146.4 L193.7 147.0 L194.8 149.0 L195.0 149.7 L195.2 150.0 L195.2 150.1 L195.2 150.2 L195.1 150.6 L195.1 151.3 L195.0 151.6 L194.5 152.5 L194.4 152.9 L194.4 153.2 L194.5 153.4 L194.7 153.5 L195.0 153.4 L195.8 153.5 L197.4 154.0 L198.3 154.0 L199.2 153.8 L200.9 153.9 L201.8 154.0 L203.5 154.1 L203.7 154.2 L203.8 154.4 L203.7 154.8 L203.6 155.0 L203.7 156.0 L203.6 156.2 L203.4 156.6 L203.3 157.0 L203.2 157.2 L203.2 157.5 L203.1 157.7 L202.7 157.9 L201.8 158.1 L201.6 158.1 L201.3 158.0 L201.1 158.0 L200.3 158.4 L198.4 159.9 L198.1 160.1 L197.8 160.1 L196.2 160.1 L195.7 160.2 L195.2 160.3 L194.7 160.7 L194.4 161.2 L194.3 162.4 L194.1 163.2 L194.2 164.0 L194.1 164.3 L194.1 164.5 L193.9 164.9 L193.7 165.2 L193.4 165.5 L192.8 165.8 L192.0 166.5 L191.1 167.2 L190.8 167.5 L190.6 168.1 L190.4 168.3 L190.2 168.4 L189.9 168.3 L189.8 168.0 L189.9 167.6 L190.0 167.4 L190.2 166.8 L190.2 166.5 L189.9 166.4 L189.6 166.4 L189.3 166.6 L188.7 167.0 L188.0 167.4 L187.7 167.6 L187.5 167.9 L187.2 168.5 L187.0 168.8 L185.3 169.9 L185.0 170.0 L184.7 169.9 L184.1 169.6 L183.8 169.6 L183.6 169.8 L183.3 170.1 L183.0 170.3 L182.8 170.4 L182.6 170.4 L182.3 170.5 L182.1 170.6 L181.7 170.9 L181.6 171.0 L181.5 171.0 L181.4 171.1 L181.4 171.1 L181.4 171.3 L181.4 171.4 L180.9 171.5 L180.3 171.4 L179.8 171.5 L179.5 172.2 L179.4 173.3 L179.2 173.9 L178.9 174.3 L178.6 174.4 L178.4 174.4 L177.8 174.4 L177.5 174.4 L177.2 174.5 L176.4 175.5 L176.3 175.7 L176.1 176.1 L176.1 176.2 L176.1 176.6 L176.1 176.8 L175.8 177.0 L175.6 177.4 L175.3 177.7 L174.9 177.9 L174.6 178.0 L174.3 178.0 L174.1 177.9 L173.9 177.7 L173.8 177.4 L173.7 176.8 L174.0 176.3 L174.5 175.7 L174.7 175.1 L174.7 174.8 L174.6 174.5 L174.4 174.2 L174.1 173.8 L173.9 173.7 L173.8 173.6 L173.6 173.5 L173.4 173.5 L173.2 173.5 L172.2 173.5 L171.9 173.5 L171.6 173.6 L171.0 174.0 L169.9 174.5 L169.6 174.7 L169.3 175.0 L168.8 175.6 L168.5 175.9 L168.2 176.0 L168.0 176.1 L167.4 176.1 L167.1 176.3 L166.6 176.8 L166.3 176.9 L166.0 176.9 L165.8 176.7 L165.6 176.6 L165.3 176.5 L165.1 176.5 L164.3 176.7 L163.5 176.5 L162.7 175.9 L162.1 175.4 L161.8 175.2 L161.2 174.6 L160.3 173.8 L159.2 172.8 L158.1 171.9 L157.2 171.1 L156.6 170.5 L156.3 170.3 L156.0 169.7 L156.0 169.4 L156.2 168.9 L156.2 168.5 L156.1 168.2 L156.0 167.9 L155.8 167.8 L155.7 167.7 L155.6 167.5 L155.5 167.3 L155.6 166.8 L155.5 166.5 L155.4 166.2 L155.1 165.7 L155.0 165.4 L154.9 165.2 L154.9 164.6 L154.9 164.3 L153.7 161.2 L153.5 160.7 L153.5 160.6 L153.4 160.5 L153.2 160.3 L153.0 160.1 L152.9 160.0 L152.9 159.9 L152.8 159.7 L153.0 159.4 L153.1 159.3 L153.1 159.1 L153.1 158.4 L153.0 158.1 L152.8 158.0 L152.6 158.0 L152.4 157.8 L152.2 157.7 L152.0 157.1 L151.9 156.7 L151.7 156.2 L151.7 155.9 L151.9 155.7 L152.1 155.5 L152.3 155.2 L152.2 154.9 L152.1 154.8 L152.1 154.6 L152.1 154.4 L152.0 154.3 L151.5 154.1 L151.0 153.9 L150.9 153.8 L150.7 153.6 L150.5 153.5 L150.4 153.4 L150.2 153.3 L150.2 153.2 L150.1 153.0 L150.0 152.9 L149.9 152.8 L149.6 152.6 L149.5 152.5 L149.4 152.4 L149.3 152.2 L149.2 152.1 L149.1 152.0 L149.0 152.0 L148.8 151.7 L148.8 151.6 L148.7 151.5 L148.4 151.4 L148.3 151.3 L148.2 151.2 L148.1 150.9 L148.1 150.8 L147.9 150.6 L147.6 150.6 L147.0 150.5 L146.9 150.4 L146.8 150.1 L146.7 149.5 L146.6 149.3 L146.4 149.0 L146.2 148.8 L145.9 148.8 L145.7 148.9 L145.3 148.9 L144.8 148.6 L144.6 148.4 L144.5 148.4 L144.2 148.5 L144.1 148.5 L143.8 148.5 L143.5 148.6 L143.4 148.7 L143.3 148.9 L143.1 149.1 L143.1 148.2 L143.3 147.8 L143.7 147.5 L144.2 146.9 L144.8 146.4 L145.4 145.9 L146.0 145.3 L146.5 144.8 L147.1 144.3 L147.7 143.7 L148.3 143.2 L148.5 143.0 L148.7 142.9 L149.0 142.8 L149.1 142.8 L149.3 142.6 L150.1 141.6 L150.5 141.1 L150.5 140.5 L150.1 140.0 L149.6 139.8 L149.4 139.7 L149.2 139.4 L148.3 137.1 L147.9 136.6 L147.4 136.3 L147.1 136.3 L146.9 136.4 L146.6 136.4 L146.3 136.2 L146.1 136.0 L146.0 135.6 L145.9 135.0 L145.8 134.6 L145.3 133.7 L145.2 133.4 L145.2 132.6 L145.0 132.3 L145.0 132.2 L145.0 132.2 L145.0 132.0 L144.9 131.7 L144.8 131.6 L144.6 131.1 L144.4 130.9 L144.1 130.7 L144.0 130.4 L144.0 130.0 L143.8 129.6 L143.8 129.1 L143.8 128.6 L144.1 128.2 L144.1 128.0 L144.1 127.8 L143.9 127.5 L143.8 127.4 L143.9 127.2 L143.9 127.1 L143.9 126.9 L143.9 126.9 L143.7 126.8 L143.7 126.8 L143.5 126.3 L143.4 126.1 L143.2 125.9 L143.2 126.0 L143.1 125.9 L143.0 125.8 L142.9 125.7 L142.8 125.5 L142.8 125.4 L142.9 125.3 L143.0 125.2 L143.1 125.1 L143.1 125.0 L143.1 124.5 L143.2 124.2 L143.2 123.4 L143.3 123.1 L143.4 122.9 L143.5 122.7 L143.6 122.1 L143.7 121.9 L143.6 121.7 L143.6 121.6 L143.6 121.6 L143.7 121.4 L143.6 121.3 L143.5 121.1 L143.5 121.0 L143.5 120.7 L143.6 120.1 L143.7 119.6 L143.8 119.4 L143.7 118.8 L143.8 118.7 L143.8 118.6 L143.9 118.5 L143.9 118.4 L143.9 118.3 L143.6 118.0 L143.6 117.9 L143.5 117.7 L143.5 117.6 L143.5 117.5 L143.5 117.3 L143.5 117.2 L143.6 116.8 L143.7 116.7 L143.6 116.4 L143.6 116.2 L143.5 116.0 L143.4 115.7 L143.2 115.2 L143.4 114.7 L143.7 114.1 L144.2 113.7 L144.3 113.7 L144.4 113.7 L144.5 113.7 L144.6 113.6 L144.7 113.5 L144.8 113.4 L145.2 113.3 L145.3 113.2 L145.5 112.9 L145.7 112.8 L145.8 112.8 L145.9 112.7 L146.1 112.2 L146.1 112.1 L146.2 112.0 L146.3 111.9 L146.3 111.8 L146.3 111.7 L146.1 111.5 L146.1 111.4 L146.0 111.2 L145.9 110.4 L145.9 109.8 L146.0 109.2 L146.2 108.6 L146.5 108.2 L147.3 107.4 L147.5 107.2 L148.1 106.5 L148.3 106.4 L148.8 106.2 L148.9 106.0 L149.0 105.8 L149.0 105.5 L148.9 105.2 L148.5 105.0 L148.0 104.2 L148.0 103.7 L148.1 103.5 L148.2 103.3 L148.5 103.1 L148.6 103.1 L148.6 103.1 L148.0 103.0 L147.6 102.7 L147.3 102.4 L146.9 102.1 L144.8 101.6 L143.8 101.6 L143.6 101.5 L143.5 101.5 L143.3 101.6 L143.1 101.8 L142.9 101.9 L142.8 102.0 L142.6 102.0 L142.4 102.0 L142.4 102.2 L142.3 102.3 L142.3 102.5 L142.2 102.6 L142.0 102.6 L141.9 102.6 L141.4 102.8 L140.9 102.9 L139.2 102.7 L138.6 102.8 L137.0 103.3 L136.5 103.3 L135.6 103.1 L135.4 103.1 L135.1 103.1 L134.1 103.4 L133.2 103.4 L133.1 103.5 L132.7 103.8 L132.6 103.9 L132.2 103.9 L131.7 103.6 L131.4 103.5 L131.1 103.5 L130.2 103.2 L129.9 103.2 L129.1 103.2 L128.8 103.2 L128.5 103.1 L128.2 103.0 L127.9 103.1 L127.4 102.8 L127.1 102.8 L126.8 102.8 L126.5 102.9 L126.2 103.3 L125.9 103.4 L125.1 104.2 L124.3 104.6 L124.0 104.4 L123.4 103.8 L123.2 103.6 L122.8 103.7 L122.1 104.0 L121.8 104.1 L121.8 104.1 L121.6 104.1 L121.2 103.6 L120.2 102.3 L119.2 101.0 L118.2 99.7 L117.1 98.4 L116.1 97.1 L115.1 95.8 L114.1 94.6 L113.0 93.3 L112.8 93.0 L112.4 92.6 L112.0 92.5 L111.5 92.5 L111.0 92.6 L110.2 93.1 L109.8 93.1 L108.4 92.4 L108.2 92.3 L108.2 92.3 L108.1 92.2 L108.0 92.1 L107.9 92.1 L107.6 92.1 L107.4 92.1 L107.2 92.1 L107.1 92.0 L106.4 91.1 L106.3 91.1 L106.1 91.1 L105.7 91.2 L105.5 91.2 L105.0 91.1 L104.9 91.1 L104.7 90.9 L104.6 90.9 L104.2 90.9 L103.4 91.1 L102.8 91.1 L102.3 91.3 L102.0 91.3 L101.9 91.4 L101.9 91.5 L101.7 91.7 L101.1 92.1 L100.5 92.3 L99.7 92.4 L98.8 92.3 L98.7 92.4 L98.5 92.5 L98.4 92.7 L98.1 92.7 L98.0 92.7 L97.9 92.6 L97.7 92.5 L97.1 92.5 L96.9 92.4 L96.8 92.3 L96.8 92.1 L96.8 92.0 L96.7 91.9 L96.5 91.9 L95.9 92.0 L95.7 91.9 L95.2 91.8 L95.0 91.8 L94.8 91.8 L94.5 92.0 L94.3 92.1 L94.0 91.8 L93.7 91.8 L93.5 91.8 L93.5 91.8 L93.5 91.9 L93.2 91.8 L93.2 91.8 L93.2 91.8 L93.1 91.7 L93.1 91.7 L93.0 91.7 L92.8 91.8 L92.7 91.8 L92.6 91.8 L92.4 91.7 L92.3 91.6 L92.2 91.5 L91.8 91.5 L91.6 91.5 L91.5 91.6 L91.6 91.8 L91.2 91.7 L90.9 91.8 L90.5 91.8 L90.2 91.8 L90.2 92.1 L90.1 92.1 L90.0 92.1 L89.8 92.1 L89.6 92.2 L89.5 92.3 L89.4 92.4 L89.2 92.4 L88.7 92.4 L87.6 92.1 L87.2 92.0 L87.2 92.0 L87.0 92.0 L86.7 91.7 L86.5 91.6 L86.2 91.4 L86.0 91.3 L85.8 91.0 L85.0 89.6 L84.9 89.2 L84.8 88.8 L84.8 88.4 L84.8 88.3 L84.9 87.8 L84.9 87.7 L84.8 87.7 L84.3 87.1 L83.9 86.9 L82.8 87.0 L82.1 86.8 L81.8 86.7 L81.5 86.6 L81.0 86.3 L80.6 85.7 L80.6 85.4 L80.7 85.1 L80.8 84.8 L80.8 84.5 L80.8 84.3 L80.6 83.7 L80.6 83.5 L80.7 82.0 L81.0 81.2 L81.0 81.0 L81.0 80.4 L80.9 80.2 L80.8 80.0 L80.5 79.7 L80.5 79.6 L80.5 79.4 L80.6 79.3 L80.8 79.3 L80.9 79.2 L81.1 79.0 L81.3 78.8 L81.4 78.6 L81.5 78.4 L81.6 78.1 L81.9 78.1 L82.1 78.1 L82.4 78.1 L82.6 77.8 L82.6 77.3 L82.3 76.4 L81.8 75.5 L81.8 75.2 L81.8 75.0 L81.9 74.6 L81.9 74.4 L81.9 74.1 L81.8 73.9 L81.7 73.7 L81.5 73.5 L81.5 73.5 L81.4 73.5 L81.2 73.4 L81.1 73.4 L80.9 73.3 L80.6 72.9 L80.4 72.6 L80.1 72.3 L79.8 72.1 L79.6 71.8 L79.3 71.5 L79.0 71.2 L78.8 70.9 L78.5 70.6 L78.3 70.4 L78.0 69.9 L77.8 69.4 L77.7 68.8 L77.5 68.2 L77.4 67.6 L77.2 67.0 L77.1 66.4 L76.9 65.8 L76.8 65.2 L76.6 64.7 L76.5 64.4 L76.3 64.1 L76.5 63.8 L76.4 63.7 L76.2 63.5 L75.9 63.3 L75.8 63.4 L75.7 63.4 L75.6 63.4 L75.5 63.4 L75.3 63.4 L75.2 63.5 L74.7 63.8 L74.5 63.9 L74.2 63.8 L74.0 63.5 L73.9 63.2 L73.9 62.6 L73.9 62.3 L73.8 62.2 L73.7 62.1 L73.7 62.0 L73.7 62.0 L73.7 61.9 L73.7 61.8 L73.6 61.3 L73.5 61.2 L73.2 61.2 L72.6 61.8 L72.3 61.9 L71.9 62.0 L71.7 62.2 L71.2 62.6 L70.7 62.9 L70.2 62.9 L68.7 63.0 L68.5 63.0 L68.3 62.9 L68.3 62.6 L68.5 62.3 L69.0 62.0 L69.2 61.8 L69.4 61.5 L69.9 60.3 L70.9 58.7 L71.2 58.1 L71.4 58.0 L71.9 57.6 L72.1 57.4 L72.3 57.2 L72.6 56.2 L73.4 55.1 L73.8 54.2 L73.9 53.9 L73.8 53.6 L73.7 53.4 L73.6 53.0 L73.7 52.8 L73.8 52.2 L73.8 51.7 L74.5 49.3 L74.7 46.4 L74.7 46.1 L74.7 45.9 L74.8 45.9 L74.8 45.6 L75.1 45.3 L75.3 45.1 L75.5 44.8 L75.7 44.1 L76.6 43.2 L76.9 42.6 L77.6 40.7 L77.9 40.1 L78.2 39.7 L78.8 39.3 L79.1 39.1 L79.3 38.8 L79.8 37.6 L79.9 37.5 L80.2 37.2 L80.3 37.1 L80.3 36.9 L80.3 36.7 L80.4 36.6 L80.6 36.4 L80.9 36.4 L81.5 36.3 L82.2 36.1 L82.5 36.0 L82.8 36.0 L83.3 36.2 L83.5 36.1 L83.6 35.9 L84.0 35.2 L84.4 34.4 L84.9 33.7 L85.3 33.0 L85.7 32.2 L86.1 31.5 L86.5 30.7 L86.9 30.0 L87.0 29.8 L87.2 29.4 L87.5 29.3 L87.8 29.2 L88.6 29.0 L89.4 28.8 L90.2 28.6 L91.0 28.4 L91.8 28.2 L92.6 27.9 L93.4 27.7 L94.2 27.5 L94.5 27.4 L95.1 27.2 L95.5 26.8 L95.8 26.7 L96.2 26.7 L96.0 27.0 L96.0 27.3 L96.1 27.5 L95.7 27.6 L95.6 27.6 L95.5 27.7 L95.5 27.8 L95.5 27.9 L95.4 28.0 L95.1 28.0 L94.3 28.4 L93.8 28.6 L91.5 28.9 L89.0 29.7 L88.4 29.8 L88.1 29.9 L87.8 30.1 L87.6 30.2 L87.5 30.7 L87.5 31.3 L87.9 33.1 L89.0 35.3 L89.9 36.4 L90.2 36.8 L91.8 37.6 L92.0 37.8 L92.2 38.0 L92.2 38.2 L92.1 38.2 L91.4 38.4 L91.5 38.1 L91.4 38.0 L91.2 37.8 L90.8 37.8 L90.7 37.7 L90.6 37.7 L90.5 37.8 L90.5 37.8 L90.4 37.9 L90.2 38.0 L90.4 38.1 L90.8 38.6 L90.9 38.8 L90.9 38.9 L90.9 39.1 L90.9 39.3 L91.0 39.8 L91.2 40.4 L91.5 40.9 L91.8 41.3 L92.3 41.7 L92.8 42.0 L92.7 42.3 L92.6 42.8 L92.4 43.1 L92.4 43.2 L92.5 43.3 L92.4 43.5 L92.4 43.6 L92.4 43.8 L92.3 44.1 L92.2 44.4 L92.1 44.7 L92.1 45.4 L92.1 45.5 L92.1 45.6 L92.0 45.7 L91.9 45.7 L91.5 45.9 L91.2 46.2 L91.2 46.2 L91.0 46.3 L90.8 46.4 L90.4 46.7 L90.1 47.1 L89.3 48.5 L88.6 49.5 L88.5 49.8 L88.3 50.0 L87.7 50.1 L87.5 50.3 L87.3 50.5 L87.2 50.8 L87.1 51.4 L86.8 51.9 L86.5 52.7 L85.6 53.6 L85.4 54.0 L85.5 54.2 L85.7 54.8 L85.9 55.0 L86.8 55.9 L87.1 56.4 L87.8 57.9 L87.6 57.8 L87.5 57.5 L87.4 57.2 L87.3 57.0 L87.2 57.1 L87.2 57.1 L87.2 57.1 L87.3 57.2 L87.1 57.3 L87.1 57.3 L87.1 57.4 L87.0 57.4 L87.2 57.5 L87.4 57.7 L87.6 57.9 L87.6 58.2 L87.5 58.5 L87.3 58.5 L87.1 58.3 L86.9 58.2 L86.8 58.4 L87.0 58.7 L87.2 59.0 L87.4 58.9 L87.7 58.6 L88.0 58.5 L88.1 58.7 L88.2 58.7 L88.2 58.5 L88.3 58.5 L88.7 59.0 L88.8 59.0 L89.0 59.1 L89.1 59.1 L89.2 59.3 L88.8 59.2 L88.4 59.3 L88.3 59.6 L88.4 60.0 L88.5 59.6 L88.6 59.5 L89.4 59.5 L89.7 59.7 L90.0 60.1 L90.3 60.3 L90.7 60.0 L90.6 60.2 L90.6 60.3 L90.7 60.4 L90.8 60.5 L90.7 60.6 L90.5 60.6 L90.5 60.7 L90.7 60.8 L90.7 61.1 L90.6 61.3 L90.5 61.5 L90.4 61.4 L90.1 61.6 L89.6 62.1 L89.7 62.2 L89.9 62.0 L90.0 62.0 L90.1 62.1 L90.2 62.1 L90.3 62.0 L90.4 62.0 L90.4 61.9 L90.6 62.0 L90.5 62.1 L90.5 62.3 L90.7 62.4 L90.4 62.4 L90.5 62.6 L90.7 63.0 L90.4 63.3 L90.3 63.4 L90.4 63.6 L90.5 63.6 L90.6 63.7 L90.6 63.8 L90.7 63.8 L90.9 63.9 L91.0 63.9 L90.9 64.0 L90.9 64.0 L91.0 64.2 L91.3 64.4 L91.9 64.5 L92.5 64.6 L93.1 64.6 L93.7 64.5 L95.6 63.9 L96.9 63.4 L97.4 63.1 L97.6 62.8 L97.8 62.1 L98.1 61.9 L98.4 61.4 L98.6 61.3 L98.7 61.3 L99.0 61.2 L99.1 61.2 L99.2 61.1 L99.3 61.1 L99.4 61.0 L99.6 61.0 L99.8 60.8 L99.9 60.6 L99.9 60.3 L99.6 59.5 L99.5 58.4 L99.5 58.2 L99.4 58.0 L99.4 57.9 L99.4 57.7 L99.5 57.6 L99.7 57.2 L99.7 57.1 L100.0 56.1 L100.0 55.5 L100.0 55.4 L100.1 55.3 L100.1 55.2 L100.1 55.2 L100.0 54.9 L99.9 54.7 L99.6 54.5 L99.5 54.2 L99.4 53.9 L99.5 53.9 L99.6 53.8 L99.7 53.7 L99.6 53.6 L99.4 53.4 L99.1 53.0 L98.4 52.1 L98.1 51.9 L97.8 52.0 L97.5 50.8 L97.3 50.2 L97.0 49.6 L96.5 49.1 L96.2 48.9 L95.7 48.7 L95.6 48.5 L95.4 48.0 L95.3 47.8 L95.0 47.5 L94.9 47.1 L94.8 46.8 L94.5 46.5 L94.3 46.4 L94.3 46.3 L94.2 46.1 L94.2 46.0 L94.3 45.8 L94.4 45.1 L94.3 44.9 L94.1 44.7 L93.5 44.3 L93.3 44.1 L93.3 43.7 L93.4 43.6 L93.8 43.2 L93.9 43.2 L93.8 43.2 L93.4 42.6 L93.4 42.4 L93.4 42.2 L93.5 41.9 L93.5 41.7 L93.4 41.5 L93.3 41.4 L93.1 41.2 L93.0 41.0 L92.9 40.9 L92.7 40.9 L92.7 40.8 L93.7 40.7 L94.2 40.8 L94.6 40.9 L94.7 40.6 L94.7 40.4 L94.5 40.1 L94.5 39.9 L94.6 39.7 L94.9 39.5 L95.0 39.3 L94.7 39.3 L94.6 39.3 L94.4 39.2 L94.3 39.1 L94.0 38.8 L93.8 38.7 L94.4 38.5 L95.0 38.5 L96.1 38.5 L96.6 38.4 L96.8 38.3 L98.2 37.7 L98.8 37.4 L99.0 37.3 L99.8 37.0 L102.4 35.5 L104.5 35.0 L104.9 34.8 L105.2 35.0 L105.6 35.0 L107.2 34.8 L107.4 34.6 L107.6 34.3 L107.5 34.3 L107.4 34.4 L107.3 34.5 L107.3 34.7 L107.2 34.3 L107.6 34.2 L108.3 34.3 L108.7 34.2 L109.7 33.7 L110.2 33.4 L110.5 33.4 L111.0 33.4 L111.7 33.1 L112.0 32.8 L112.2 32.4 L112.2 32.2 L112.1 32.1 L112.1 32.0 L111.9 31.9 L112.0 31.8 L112.2 31.9 L112.4 32.0 L112.5 32.1 L112.6 32.3 L112.8 32.4 L112.9 32.3 L113.0 32.2 L113.1 32.0 L113.2 32.0 L113.3 32.1 L113.5 32.2 L113.6 32.2 L113.6 32.2 L113.7 32.1 L113.7 32.0 L113.6 31.9 L113.6 31.8 L113.5 31.8 L113.5 31.7 L113.5 31.7 L113.6 31.6 L113.4 31.5 L113.4 31.4 L112.8 31.2 L112.5 31.1 L112.5 31.1 L112.5 31.0 L112.6 31.0 L112.8 31.0 L112.7 30.9 L112.6 30.9 L112.4 30.8 L112.2 30.7 L111.9 30.5 L112.5 30.6 L112.8 30.8 L113.2 31.0 L113.4 31.2 L113.6 31.2 L113.8 31.3 L114.0 31.2 L114.3 31.3 L114.5 31.4 L114.7 31.3 L114.9 31.2 L115.1 31.3 L115.2 31.5 L115.3 31.5 L115.5 31.5 L115.6 31.7 L115.8 31.9 L116.1 32.0 L116.2 32.3 L116.6 32.4 L116.9 32.3 L117.0 32.1 L117.4 31.9 L117.5 31.7 L117.6 31.4 L117.3 30.9 L117.4 30.7 L117.2 30.5 L117.0 29.9 L116.9 29.5 L116.6 28.8 L116.5 28.8 L116.5 29.1 L116.4 29.0 L116.3 28.9 L116.2 28.8 L116.0 28.9 L115.9 29.0 L115.8 29.1 L115.7 29.1 L115.1 29.3 L114.8 29.3 L114.9 29.1 L114.3 29.3 L114.2 29.4 L113.8 29.4 L113.6 29.4 L113.4 29.5 L113.1 29.7 L112.3 29.7 L111.6 30.1 L111.3 30.0 L111.0 29.7 L111.0 29.4 L111.0 29.3 L111.2 29.1 L111.2 29.0 L111.3 28.9 L111.2 28.8 L111.2 28.8 L111.2 28.7 L111.2 28.4 L111.1 28.3 L111.0 28.2 L111.0 28.1 L111.1 28.1 L111.3 28.2 L111.3 28.3 L111.3 27.9 L111.3 27.7 L111.2 27.6 L111.1 27.5 L111.0 27.6 L111.0 27.8 L110.9 27.9 L110.8 27.7 L110.5 27.2 L110.4 27.1 L110.4 27.0 L110.3 27.0 L110.3 26.7 L110.3 26.6 L110.2 26.6 L110.0 26.6 L110.1 26.4 L110.2 25.9 L110.2 25.7 L110.3 25.5 L110.5 25.1 L110.6 24.8 L110.7 24.6 L111.1 24.1 L111.2 23.9 L111.3 23.7 L111.3 23.3 L111.3 23.2 L111.9 23.2 L112.2 23.1 L112.4 22.9 L113.2 22.2 L113.6 22.1 L113.9 22.0 L114.1 22.1 L114.3 22.2 L114.9 22.3 L115.1 22.5 L116.3 24.5 L116.5 25.0 L116.6 25.6 L116.6 26.8 L116.7 27.3 L117.5 29.7 L118.2 30.9 L118.6 31.5 L119.2 31.9 L119.7 31.9 L120.0 31.7 L120.4 31.5 L120.9 31.3 L122.0 31.5 L122.5 31.5 L123.1 31.3 L123.5 31.1 L123.7 31.0 L124.0 31.0 L124.1 31.0 L124.4 31.2 L124.5 31.2 L125.0 31.2 L125.1 31.2 L126.0 31.6 L126.2 31.6 L126.2 31.7 L126.4 31.9 L126.6 32.0 L126.8 32.1 L127.4 32.2 L129.5 32.1 L129.7 32.2 L129.9 32.3 L130.4 32.8 L130.7 33.0 L130.9 33.1 L131.4 33.3 L131.6 33.4 L131.8 33.4 L131.9 33.3 L132.0 33.4 L132.3 33.5 L132.4 33.6 L132.5 33.8 L132.8 34.1 L133.8 34.6 L134.1 34.8 L134.4 35.1 L134.5 35.3 L134.6 35.4 L135.5 35.8 L135.6 35.6 L135.6 35.6 L135.6 35.5 L135.7 35.5 L135.7 35.6 L135.9 35.8 L135.9 35.9 L135.8 36.1 L135.9 36.5 L136.4 37.2 L137.2 38.8 L137.4 39.2 L137.3 39.4 L137.2 39.3 L137.0 39.2 L136.8 39.1 L136.6 39.0 L136.4 39.0 L136.3 39.1 L136.1 39.2 L136.0 39.3 L136.5 39.4 L137.6 39.5 L137.9 39.7 L137.8 40.0 L137.5 40.1 L136.9 40.1 L136.7 40.2 L136.7 40.5 L136.7 40.8 L136.8 41.6 L137.3 42.8 L137.4 43.1 L137.7 43.7 L137.9 43.9 L138.3 44.4 L138.8 44.9 L139.4 45.1 L141.0 45.1 L141.3 45.2 L141.6 45.3 L141.9 45.4 L142.2 45.4 L142.4 45.3 L142.6 45.2 L142.7 45.2 L142.8 45.3 L142.9 45.4 L142.9 45.5 L142.9 45.5 L143.0 45.6 L143.1 45.5 L143.2 45.4 L143.2 45.3 L143.6 45.1 L144.1 45.0 L145.9 44.9 L147.1 44.6 L148.2 44.5 L149.4 44.4 L150.2 44.3 L151.4 44.3 L152.3 44.2 L153.1 43.8 L153.6 43.7 L154.2 43.5 L154.5 43.4 L156.2 43.5 L157.7 43.3 L160.8 43.2 L162.4 43.2 L162.5 43.2 L162.7 43.3 L163.4 43.4 L163.6 43.4 L163.8 43.3 L164.0 43.1 L164.2 43.0 L164.4 42.9 L164.7 42.9 L165.6 43.4 L166.5 43.6 L166.7 43.8 L167.4 43.9 L167.5 43.9 L167.4 44.1 L167.1 44.3 L166.8 44.4 L166.5 44.4 L166.5 44.5 L166.5 44.9 L166.6 45.0 L167.0 45.4 L168.0 46.2 L168.1 46.3 L168.5 46.6 L168.8 47.0 L169.7 47.5 L169.5 47.5 L169.4 47.5 L169.2 47.4 L169.1 47.3 L169.0 47.4 L168.9 47.5 L169.2 47.9 L169.5 47.8 L169.9 48.0 L170.5 48.5 L170.8 48.7 L171.2 48.7 L172.0 48.7 L171.6 48.5 L170.2 47.9 L169.9 47.5 L173.8 49.2 L175.5 49.7 L175.9 49.8 L177.5 50.0 L179.4 50.4 L179.9 50.7 L180.4 50.8 L180.6 50.9 L180.6 50.9 L179.6 50.6 L179.3 50.6 L179.4 50.8 L179.6 50.9 L179.9 51.0 L180.5 51.1 L180.7 51.0 L180.8 51.0 L181.0 50.9 L181.4 50.8 L181.9 50.5 L182.1 50.4 L182.4 50.4 L183.2 50.5 L184.2 50.6 L184.7 50.5 L185.1 50.3 L185.2 50.1 L185.3 49.9 L185.5 49.4 L185.5 49.2 L185.4 48.8 L185.5 48.6 L185.6 48.7 L185.7 48.8 L185.9 48.8 L186.0 48.8 L185.9 48.9 L185.9 49.0 L185.8 49.0 L185.9 49.2 L186.1 49.2 L186.3 49.0 L186.1 48.9 L186.3 48.8 L186.6 48.3 L186.8 48.3 L187.2 48.2 L187.4 48.2 L187.4 48.3 L187.4 48.3 L187.3 48.3 L187.4 48.3 L187.5 48.3 L187.6 48.3 L187.7 48.4 L187.8 48.4 L187.9 48.3 L187.9 48.3 L188.0 48.3 L188.1 48.3 L188.4 48.4 L188.5 48.5 L188.8 48.3 L189.2 48.0 L189.6 47.9 L189.9 47.7 L190.0 47.7 L190.1 47.6 L190.1 47.5 L190.0 47.4 L189.6 47.6 L189.3 47.6 L189.0 47.5 L188.8 47.3 L188.9 47.2 L189.0 47.2 L189.2 47.3 L189.4 47.3 L189.5 47.3 L189.8 47.1 L190.0 47.1 L190.0 46.9 L190.0 46.8 L190.0 46.7 L189.7 46.7 L189.7 46.6 L190.0 46.5 L190.2 46.5 L190.2 46.7 L190.2 46.9 L190.2 47.1 L190.3 47.1 L190.5 47.0 L190.6 46.8 L190.6 46.4 L191.1 46.2 L191.8 46.0 L192.3 45.8 L192.4 45.5 L192.5 45.4 L192.6 45.2 L192.9 45.2 L193.2 45.2 L193.4 45.2 L193.6 45.3 L194.2 45.6 L194.5 45.7 L194.8 45.7 L195.1 45.7 L195.9 45.5 L196.2 45.5 L196.7 45.6 L197.0 45.7 L197.6 45.7 L199.4 45.2 L199.8 45.0 L199.5 45.0 L199.2 45.0 L198.8 45.0 L198.5 44.8 L198.2 44.6 L197.6 44.3 L197.2 44.2 L196.5 44.2 L196.2 44.1 L195.9 44.0 L195.6 43.8 L195.3 43.9 L194.5 44.0 L194.6 43.9 L194.7 43.7 L194.5 43.7 L194.4 43.8 L194.3 43.9 L194.2 44.0 L194.0 44.0 L193.1 44.0 L192.9 44.0 L192.5 44.2 L192.4 44.3 L192.3 44.4 L192.1 44.7 L192.0 44.7 L191.8 44.7 L191.7 44.5 L191.7 44.3 L191.7 44.1 L191.6 43.9 L191.3 43.6 L191.1 43.3 L191.2 43.1 L191.4 43.0 L191.5 42.9 L191.5 42.8 L191.5 42.6 L191.6 42.6 L191.7 42.9 L191.9 43.0 L192.5 43.1 L192.7 43.1 L193.0 43.3 L193.2 43.4 L193.4 43.3 L194.2 42.9 L194.3 42.9 L194.5 42.9 L194.6 42.9 L194.6 43.0 L194.7 43.0 L194.7 43.1 L196.0 43.1 L196.3 43.2 L196.5 43.1 L197.0 43.0 L197.2 42.9 L197.4 42.8 L197.5 42.6 L197.6 42.3 L197.6 42.1 L197.7 42.1 L197.9 42.4 L198.1 42.6 L198.4 42.7 L199.8 43.0 L201.2 43.2 L201.5 43.2 L202.0 42.8 L202.4 42.7 L202.6 42.8 L202.7 42.8 L202.7 42.6 L202.9 42.6 L203.0 42.7 L203.2 42.7 L203.3 42.7 L203.4 42.4 L203.4 42.3 L203.5 42.3 L203.6 42.4 L203.7 42.4 L203.8 42.3 L203.9 42.4 L203.8 42.5 L204.1 42.6 L204.2 42.4 L204.4 42.5 L204.6 42.6 L204.8 42.6 L204.8 42.6 L204.9 42.5 L205.0 42.4 L205.2 42.5 L205.3 42.5 L205.4 42.4 L206.4 41.8 L206.5 41.8 L206.5 41.8 L206.6 42.0 L206.7 42.1 L206.8 42.2 L207.0 42.2 L207.1 42.1 L207.2 42.1 L207.3 42.0 L207.6 42.0 L208.5 42.0 L208.8 42.0 L209.3 42.2 L209.6 42.3 L210.0 42.2 L210.5 42.0 L211.0 41.9 L212.5 41.4 L212.6 41.4 L213.0 41.6 L213.1 41.6 L213.3 41.6 L213.6 41.7 L214.9 41.7 L216.8 42.0 L217.9 42.2 L218.5 42.3 L219.4 42.3 L219.9 42.4 L220.1 42.4 L220.3 42.4 L220.6 42.1 L220.8 42.1 L221.7 42.1 L222.1 42.0 L222.4 41.8 L222.6 41.9 L222.9 41.8 L223.1 42.0 L223.3 41.8 L223.6 41.7 L224.0 41.6 L224.3 41.7 L224.0 41.8 L223.8 41.9 L223.7 42.1 L223.8 42.4 L223.7 42.5 L223.6 42.4 L223.4 42.5 L223.3 42.6 L223.0 42.7 L223.0 42.7 L222.8 42.9 L222.7 42.9 L222.5 42.9 L222.4 42.9 L222.3 42.9 L222.1 43.0 L221.3 43.1 L221.0 43.2 L219.8 43.0 L218.9 43.1 L218.8 43.2 L218.6 43.3 L217.9 44.3 L217.7 44.5 L217.4 44.5 L217.1 44.3 L216.8 44.3 L216.5 44.4 L216.2 44.5 L216.1 44.4 L215.8 44.3 L215.7 44.3 L215.5 44.3 L215.3 44.4 L215.1 44.4 L214.9 44.3 L214.0 44.1 L213.2 44.0 L210.1 44.4 L209.7 44.5 L209.5 44.7 L209.4 44.9 L209.1 45.2 L208.7 45.4 L208.5 45.5 L208.5 45.6 L208.9 45.4 L209.7 44.8 L210.1 44.6 L210.6 44.5 L210.8 44.8 L210.9 45.2 L210.8 45.5 L210.9 45.9 L211.0 46.2 L210.9 46.3 L210.8 46.3 L210.6 46.4 L210.5 46.4 L210.4 46.4 L210.2 46.2 L210.1 46.1 L209.2 46.1 L208.7 46.2 L208.6 46.5 L208.7 46.4 L209.0 46.3 L209.1 46.6 L209.1 46.8 L209.3 46.9 L209.1 47.0 L208.9 47.2 L208.7 47.3 L209.0 47.5 L208.9 47.6 L208.8 47.8 L208.6 48.0 L209.4 47.9 L209.6 47.8 L209.7 47.6 L209.4 47.1 L209.4 46.8 L209.3 46.7 L209.3 46.5 L209.3 46.3 L209.4 46.2 L209.7 46.2 L209.9 46.3 L210.3 46.7 L210.4 46.6 L210.6 46.6 L210.7 46.5 L210.8 46.5 L211.3 46.3 L211.4 46.2 L211.6 46.3 L211.9 46.4 L212.1 46.5 L212.2 46.6 L212.3 46.7 L212.3 46.9 L212.3 47.1 L212.4 47.2 L212.7 47.4 L212.9 47.6 L213.1 47.7 L213.1 48.0 L213.2 48.3 L213.1 48.7 L213.1 48.8 L213.2 49.1 L213.2 49.2 L213.3 49.3 L213.4 49.3 L213.5 49.4 L213.6 49.6 L213.7 49.9 L213.7 49.9 L213.7 50.2 L213.5 50.4 L213.3 50.6 L213.1 50.7 L213.0 50.7 L212.7 50.7 L212.6 50.8 L212.4 50.7 L212.3 50.7 L212.2 50.6 L212.1 50.6 L211.9 50.5 L211.7 50.5 L211.5 50.6 L211.4 50.8 L211.4 50.9 L211.3 51.0 L211.2 51.1 L211.1 51.1 L211.0 51.1 L210.9 50.8 L210.9 50.7 L210.7 50.6 L210.3 50.8 L210.1 50.8 L210.1 50.7 L210.1 50.5 L210.1 50.4 L210.0 50.3 L209.9 50.3 L209.7 50.4 L209.6 50.5 L209.5 50.6 L209.5 50.4 L209.4 50.3 L209.3 50.3 L209.2 50.2 L209.0 50.4 L208.8 50.4 L208.4 50.3 L208.5 50.4 L208.5 50.4 L208.7 50.6 L208.9 50.8 L209.0 50.7 L209.1 50.6 L209.2 50.5 L209.3 50.5 L209.4 50.6 L209.4 51.3 L209.5 51.6 L209.7 51.6 L209.6 51.4 L209.6 51.2 L209.7 51.1 L209.6 50.9 L209.6 50.8 L209.6 50.7 L209.7 50.6 L209.8 50.6 L209.9 50.7 L209.8 50.9 L209.9 51.0 L210.1 51.1 L210.3 51.1 L210.5 51.0 L210.7 50.9 L210.8 51.0 L211.0 51.2 L211.1 51.3 L211.4 51.3 L211.2 51.7 L211.4 51.8 L211.6 51.7 L211.7 51.5 L211.5 51.0 L211.6 50.8 L211.9 50.7 L211.9 50.7 L212.2 51.0 L212.3 51.0 L212.5 51.0 L213.2 50.9 L213.5 50.7 L213.8 50.5 L214.0 50.2 L214.0 49.9 L213.8 49.3 L213.7 49.0 L213.8 48.7 L214.0 48.6 L214.3 48.7 L214.6 48.8 L215.2 49.2 L215.5 49.7 L215.8 50.8 L216.0 51.0 L216.1 51.2 L216.2 51.4 L216.2 51.7 L216.4 52.0 L216.4 52.1 L216.4 52.3 L216.2 52.6 L216.5 52.6 L216.7 52.7 L216.8 52.9 L217.1 53.3 L217.8 54.6 L217.9 54.8 L217.9 55.1 L217.8 55.3 L217.8 55.5 L217.8 55.5 L217.9 55.7 L218.3 55.3 L218.5 54.9 L218.9 53.8 L218.9 53.4 L218.7 52.5 L218.7 52.0 L218.9 52.2 L219.2 52.5 L219.7 53.5 L219.8 53.8 L219.8 55.7 L219.6 56.3 L219.3 56.6 L219.7 56.4 L220.0 56.0 L220.1 55.4 L220.0 53.7 L219.9 53.4 L219.6 52.9 L219.5 52.6 L220.3 52.7 L220.6 52.8 L220.7 52.9 L220.7 53.1 L220.8 53.3 L221.0 53.3 L221.4 53.4 L221.7 53.5 L221.8 53.4 L221.8 53.4 L221.7 53.3 L221.6 53.2 L221.1 53.1 L221.0 53.1 L221.0 53.0 L220.6 52.6 L220.3 52.5 L220.2 52.4 L219.4 52.4 L219.2 52.4 L219.0 52.1 L219.2 51.9 L219.2 51.6 L219.4 51.5 L219.5 51.4 L220.7 51.7 L221.3 52.0 L221.8 52.3 L223.2 53.3 L223.4 53.5 L223.8 54.1 L224.2 54.4 L224.5 54.5 L224.5 54.7 L224.5 54.8 L224.7 55.0 L224.7 55.1 L224.7 55.2 L224.6 55.6 L224.3 56.1 L224.3 56.4 L224.4 56.4 L224.7 55.7 L224.9 54.9 L225.1 55.0 L225.3 55.2 L225.5 55.6 L225.6 55.8 L225.6 56.0 L225.6 57.2 L225.8 56.9 L225.8 56.6 L225.8 56.0 L225.8 55.8 L225.8 55.7 L225.7 55.6 L225.6 55.5 L225.5 55.4 L225.4 55.1 L225.4 54.9 L225.3 54.9 L225.0 54.8 L224.9 54.7 L224.9 54.7 L224.7 54.4 L224.6 54.2 L224.6 54.1 L224.5 54.0 L224.6 54.0 L225.0 54.0 L225.5 54.1 L226.6 54.4 L226.7 54.4 L227.7 54.6 L227.9 54.5 L227.9 54.3 L227.7 54.1 L227.6 53.9 L227.5 53.9 L227.4 53.8 L227.1 53.7 L227.1 53.6 L227.1 53.5 L226.9 53.4 L226.7 53.3 L226.6 53.1 L226.7 53.0 L227.1 53.1 L227.2 53.1 L227.4 53.2 L227.8 53.4 L228.4 53.8 L228.8 54.1 L229.3 54.4 L229.5 54.6 L230.0 55.3 L229.9 54.9 L229.6 54.5 L229.5 54.2 L229.1 54.1 L228.9 53.9 L228.9 53.8 L229.1 54.0 L229.3 54.0 L229.6 54.1 L229.8 54.2 L229.9 54.3 L230.3 54.7 L230.5 54.9 L230.7 55.1 L230.9 55.3 L231.1 55.6 L231.3 55.7 L231.6 55.9 L232.2 56.4 L232.5 56.7 L232.6 57.1 L232.9 57.4 L233.1 57.3 L232.9 57.1 L233.2 57.0 L233.9 57.5 L234.2 57.3 L234.3 57.4 L234.8 57.3 L235.0 57.4 L235.5 57.6 L236.0 57.8 L236.2 57.9 L236.3 58.2 L236.2 58.2 L236.2 58.1 L236.1 58.0 L236.1 58.4 L236.1 58.5 L236.2 58.6 L236.3 58.6 L236.4 58.6 L236.5 58.5 L236.8 58.6 L237.0 58.7 L237.3 58.9 L237.5 59.0 L237.7 59.2 L237.9 59.5 L238.1 59.7 L238.1 59.7 L238.1 59.8 L238.1 59.9 L238.2 59.9 L238.4 60.0 L238.4 60.0 L238.5 60.3 L238.6 60.6 L238.6 61.0 L238.4 61.2 L238.4 61.1 L238.4 61.1 L238.2 60.9 L238.2 61.1 L238.1 61.3 L238.1 61.5 L237.9 61.6 L237.7 61.6 L237.4 61.8 L237.3 61.9 L237.1 61.9 L236.9 61.9 L236.8 62.0 L236.7 62.1 L236.6 62.2 L236.5 62.3 L236.4 62.3 L236.4 62.3 L236.1 62.4 L235.4 63.1 L235.0 63.2 L234.8 63.4 L234.5 63.8 L234.2 64.6 L234.4 64.6 L234.5 64.4 L234.7 64.2 L234.7 64.0 L234.8 63.9 L235.9 62.9 L236.2 62.7 L236.3 63.0 L236.2 63.1 L236.0 63.3 L235.9 63.4 L235.9 63.6 L235.8 63.9 L235.8 64.0 L235.7 64.1 L235.7 64.2 L235.7 64.4 L235.6 64.5 L235.5 64.6 L235.3 64.7 L235.2 64.7 L234.7 65.2 L234.6 65.2 L234.6 65.4 L234.3 65.7 L234.3 65.9 L234.1 66.5 L234.1 66.7 L234.2 67.0 L234.2 67.1 L234.0 67.7 L233.3 68.8 L233.1 69.4 L233.0 70.0 L232.9 70.5 L232.5 70.8 L231.9 70.8 L231.2 70.5 L231.0 70.5 L228.6 70.7 L228.0 70.5 L227.5 70.2 L227.2 70.2 L227.0 70.3 L226.8 70.4 L226.8 70.7 L226.9 70.8 L227.6 71.2 L228.1 71.3 L228.2 71.4 L228.3 71.4 L228.4 71.5 L228.4 71.6 L228.6 71.6 L228.8 71.5 L228.9 71.5 L229.0 71.5 L229.1 71.7 L229.3 71.9 L229.4 71.9 L229.6 72.0 L229.7 72.0 L229.8 72.2 L229.8 72.2 L230.1 72.3 L230.6 72.2 L230.8 72.1 L231.0 72.2 L231.1 72.4 L231.1 72.6 L231.2 72.8 L231.3 72.9 L231.7 73.1 L231.8 73.3 L232.3 73.1 L232.4 72.9 L232.5 72.7 L232.6 72.5 L232.8 72.3 L233.1 72.1 L233.2 72.1 L233.5 72.0 L234.4 72.1 L235.0 71.9 L235.3 71.9 L235.4 72.1 L235.1 72.3 L234.6 72.4 L234.5 72.7 L234.5 72.9 L234.5 73.1 L234.6 73.2 L234.7 73.3 L234.7 73.1 L234.7 72.8 L234.8 72.6 L234.8 72.5 L235.0 72.4 L235.1 72.4 L235.3 72.4 L235.4 72.4 L235.5 72.3 L235.5 72.2 L235.6 72.0 L235.6 71.9 L235.8 71.8 L235.8 71.6 L235.8 71.3 L235.9 71.2 L235.9 71.1 L235.9 71.0 L236.0 70.9 L236.3 71.0 L236.5 71.0 L236.8 70.9 L238.1 70.7 L239.8 70.5 L240.1 70.7 L240.2 70.8 L240.4 71.0 L240.6 71.1 L240.7 71.2 L241.0 71.3 L241.8 71.3 L242.7 71.5 L243.0 71.5 L243.0 71.4 L243.1 71.1 L243.4 70.8 L243.7 70.3 L244.2 70.1 L246.5 70.3 L247.1 70.4 L247.6 70.7 L248.1 71.0 L248.3 71.1 L248.9 71.2 Z M197.2 36.4 L197.3 36.6 L197.5 37.1 L197.5 37.4 L198.0 38.2 L198.0 38.5 L197.6 38.5 L197.6 38.5 L197.6 38.7 L197.6 38.8 L197.4 38.7 L197.3 38.6 L197.2 38.7 L197.2 38.8 L196.9 39.0 L196.5 39.7 L195.8 39.6 L195.5 39.7 L194.6 40.0 L194.4 40.1 L194.4 39.7 L194.2 39.7 L193.9 39.7 L193.6 39.2 L193.3 39.0 L193.0 38.8 L192.8 38.6 L192.4 38.9 L192.1 39.0 L191.1 38.9 L191.1 38.9 L191.0 38.8 L190.9 38.8 L190.6 38.8 L190.5 38.8 L189.9 38.7 L189.6 38.6 L190.0 37.9 L190.0 37.8 L190.1 37.5 L190.2 37.3 L190.4 37.3 L190.7 37.3 L190.8 37.3 L190.9 37.3 L191.1 37.1 L191.2 37.1 L191.5 37.2 L191.9 37.0 L192.2 37.0 L192.5 37.0 L192.6 37.2 L192.6 37.4 L192.6 37.6 L192.7 37.7 L193.2 37.9 L193.7 38.2 L194.0 38.3 L194.5 38.3 L194.7 38.2 L194.9 38.0 L195.0 37.8 L194.9 37.4 L195.0 37.3 L195.2 37.2 L195.3 37.1 L195.3 36.9 L195.3 36.8 L195.4 36.7 L195.5 36.6 L195.6 36.6 L195.9 36.5 L196.0 36.5 L196.2 36.3 L196.6 35.9 L196.8 35.8 L196.8 36.0 L197.0 36.1 L197.2 36.2 L197.2 36.4 Z M236.3 67.5 L237.0 67.5 L237.3 67.4 L237.4 67.1 L237.6 67.0 L238.0 67.0 L238.7 67.0 L239.0 66.8 L239.3 66.7 L239.4 66.8 L239.2 67.0 L239.3 67.1 L239.5 67.2 L239.6 67.4 L239.6 67.6 L239.8 67.8 L239.9 68.1 L239.8 68.2 L239.4 68.4 L239.1 68.4 L238.8 68.7 L238.6 69.1 L238.4 69.3 L238.3 69.6 L238.0 69.9 L237.8 70.1 L237.2 70.1 L236.8 70.1 L236.4 70.1 L236.1 70.2 L235.6 70.1 L235.0 70.1 L234.4 70.2 L234.2 70.3 L233.9 70.5 L233.8 70.6 L233.6 70.7 L233.4 70.7 L233.3 70.6 L233.3 70.3 L233.4 70.1 L233.4 69.8 L233.4 69.3 L233.6 69.0 L234.0 68.5 L234.4 68.2 L234.9 67.9 L235.3 67.8 L235.7 67.6 L236.0 67.6 L236.3 67.5 Z" fill="#172033" fill-rule="evenodd"/></svg>
