<svg xmlns="http://www.w3.org/2000/svg" viewBox="0 0 320 200" role="img"><path d="M178.2 113.3 L178.2 113.1 L178.1 113.0 L178.0 113.0 L177.9 112.9 L178.1 112.7 L178.0 112.6 L177.9 112.4 L177.9 112.2 L178.0 112.1 L178.4 111.7 L178.5 111.5 L178.6 111.4 L178.5 111.3 L177.9 110.8 L177.7 110.7 L177.6 110.6 L177.5 110.5 L177.4 110.4 L177.5 110.2 L177.4 110.1 L177.4 109.9 L177.5 109.8 L177.7 109.8 L178.0 109.7 L178.2 109.7 L178.3 109.6 L178.6 109.7 L178.8 109.7 L178.9 109.6 L178.9 109.5 L178.8 109.3 L178.8 109.2 L178.9 109.1 L179.0 109.0 L179.1 108.9 L179.2 108.8 L179.2 108.6 L179.3 108.2 L179.3 108.1 L179.4 108.0 L179.5 108.0 L179.5 108.1 L179.6 108.1 L179.6 108.0 L179.7 107.5 L179.7 107.4 L179.6 107.2 L179.5 107.0 L179.0 106.7 L178.9 106.6 L178.8 106.4 L178.8 106.0 L178.8 105.9 L178.7 105.8 L178.6 105.8 L178.1 105.9 L177.9 105.8 L177.9 105.6 L177.9 105.3 L177.8 105.1 L177.7 105.0 L177.6 105.1 L177.6 105.1 L177.5 105.0 L177.5 105.0 L177.4 104.8 L177.4 104.8 L177.3 104.9 L177.2 104.9 L177.0 104.8 L177.0 104.8 L176.9 104.9 L176.8 105.0 L176.7 105.0 L176.6 105.0 L176.0 104.0 L175.9 103.9 L175.5 103.7 L175.3 103.5 L175.2 103.4 L175.2 103.2 L175.1 102.8 L175.1 102.6 L175.0 102.5 L174.4 102.2 L174.3 102.0 L174.3 101.8 L174.5 101.2 L174.7 101.1 L174.8 101.1 L174.9 101.1 L175.0 101.2 L175.1 101.2 L175.2 101.2 L175.9 100.7 L176.1 100.6 L176.5 100.6 L176.7 100.5 L176.8 100.3 L177.1 99.8 L177.3 99.7 L177.4 99.5 L177.4 99.4 L177.3 99.4 L177.2 99.2 L177.3 99.1 L177.3 99.0 L177.3 98.9 L177.2 98.9 L177.0 98.9 L176.4 99.0 L176.1 99.0 L175.8 99.0 L175.6 98.8 L175.2 98.3 L174.9 98.1 L174.8 98.0 L174.6 98.0 L174.5 98.0 L174.3 97.9 L174.2 97.8 L174.1 97.7 L174.1 97.7 L174.0 97.5 L173.9 97.0 L173.8 96.8 L173.6 96.7 L173.4 96.6 L173.4 96.6 L173.3 96.5 L172.8 96.5 L172.5 96.5 L172.4 96.5 L172.2 96.4 L172.2 96.3 L172.2 96.1 L172.1 96.0 L172.1 95.9 L171.8 95.8 L171.6 95.7 L171.5 95.5 L171.4 95.2 L171.4 95.2 L171.3 95.3 L171.2 95.3 L171.2 95.3 L171.2 95.2 L171.2 95.2 L171.2 95.1 L171.2 95.1 L171.3 94.8 L171.3 94.3 L171.1 94.1 L170.8 94.0 L170.6 94.4 L170.6 94.6 L170.4 94.7 L170.2 94.9 L170.1 95.0 L170.1 95.0 L170.1 95.1 L170.1 95.1 L170.0 95.2 L169.9 95.2 L169.8 95.2 L169.8 95.2 L169.8 95.1 L169.5 95.1 L169.2 95.0 L169.1 94.7 L168.9 94.3 L168.9 94.1 L168.9 93.6 L168.9 93.5 L168.7 93.4 L168.6 93.4 L168.4 93.3 L168.2 93.2 L167.9 92.9 L167.9 92.7 L167.8 92.4 L167.8 89.6 L167.8 89.4 L167.7 89.2 L167.4 89.5 L167.1 89.4 L167.0 89.4 L166.8 89.3 L166.6 89.2 L166.5 89.1 L166.5 89.1 L166.5 89.0 L166.4 88.9 L166.2 88.6 L166.2 88.6 L166.3 88.4 L166.3 88.4 L166.2 88.2 L165.7 87.7 L165.4 87.2 L165.3 87.1 L165.3 87.0 L165.4 86.8 L165.4 86.7 L165.4 86.6 L165.2 86.5 L165.2 86.4 L165.2 86.3 L165.2 86.2 L165.2 86.1 L165.0 86.0 L164.9 86.1 L164.8 86.1 L164.8 86.2 L164.8 86.3 L164.6 86.4 L164.5 86.5 L164.3 86.5 L164.1 86.4 L162.4 84.9 L161.4 83.9 L161.4 83.9 L161.2 83.7 L160.5 82.8 L160.3 82.5 L159.9 82.3 L159.4 82.1 L159.2 82.0 L159.1 81.8 L159.0 81.4 L158.9 81.3 L158.7 81.0 L158.4 80.5 L158.0 80.1 L157.9 79.7 L158.0 78.9 L158.0 78.9 L157.8 78.6 L157.8 78.6 L157.6 78.5 L157.5 78.4 L157.5 78.3 L157.4 78.1 L157.4 77.9 L157.3 77.9 L157.1 77.8 L157.0 77.7 L156.8 77.3 L156.8 77.3 L156.7 77.3 L156.6 77.2 L156.6 77.2 L156.7 77.2 L156.7 77.1 L156.7 77.0 L156.6 76.7 L156.5 76.7 L156.4 76.5 L156.2 76.4 L155.9 76.4 L155.7 76.5 L155.7 76.6 L155.6 76.8 L155.6 76.9 L155.5 77.0 L155.5 77.0 L155.4 76.9 L155.4 76.9 L155.2 76.8 L155.0 76.8 L154.8 76.7 L154.7 76.5 L154.7 76.4 L154.8 76.1 L154.8 76.0 L154.7 75.9 L154.7 75.9 L154.6 75.9 L154.3 76.0 L154.2 76.0 L154.1 75.9 L154.0 75.9 L153.9 75.7 L153.9 75.6 L153.4 75.3 L153.3 75.2 L153.3 75.0 L153.3 74.8 L153.3 74.7 L153.1 74.5 L152.8 74.3 L152.6 74.1 L152.5 73.8 L152.5 73.3 L152.7 72.8 L152.8 72.4 L153.0 72.2 L153.1 72.2 L153.2 72.3 L153.3 72.3 L153.4 72.1 L153.4 72.0 L153.4 71.9 L153.3 71.8 L153.1 71.7 L152.8 71.2 L152.7 71.2 L152.5 71.2 L152.4 71.2 L152.3 71.2 L152.0 71.1 L151.5 70.8 L151.3 70.8 L151.2 70.8 L151.0 70.9 L150.8 70.8 L150.7 70.7 L150.6 70.4 L150.3 70.4 L149.7 70.4 L149.5 70.4 L149.1 70.3 L148.7 70.2 L148.6 70.2 L148.5 70.1 L148.4 69.9 L148.3 69.9 L148.2 69.8 L148.0 69.8 L147.9 69.8 L147.7 69.7 L147.4 69.4 L147.3 69.3 L146.9 69.1 L146.8 69.0 L146.4 68.5 L146.3 68.4 L146.1 68.3 L145.9 68.2 L145.6 68.2 L145.4 68.2 L145.3 68.1 L145.0 67.7 L144.8 67.5 L144.6 67.4 L144.5 67.4 L144.3 67.3 L144.1 67.2 L144.0 67.0 L143.8 66.9 L143.8 66.9 L143.6 66.9 L143.3 67.0 L143.2 66.9 L143.2 66.7 L143.2 66.5 L143.1 66.4 L142.6 66.1 L141.5 65.6 L141.2 65.5 L141.0 65.6 L140.8 65.6 L140.8 65.6 L140.5 65.4 L140.2 65.3 L140.1 65.2 L140.1 65.2 L139.9 64.9 L139.8 64.9 L139.6 64.9 L139.5 64.9 L139.6 64.7 L139.7 64.6 L140.1 64.4 L140.2 64.3 L140.5 64.0 L140.6 63.9 L140.8 63.9 L141.0 63.7 L141.3 63.6 L141.4 63.6 L141.5 63.7 L141.5 63.7 L141.6 63.5 L141.6 63.4 L141.6 63.2 L141.7 63.1 L141.8 63.0 L141.9 63.0 L142.0 62.9 L142.1 62.8 L142.1 62.8 L141.9 62.7 L141.9 62.5 L141.9 62.3 L141.8 62.1 L141.7 62.0 L141.4 61.8 L141.3 61.7 L141.1 61.1 L141.0 61.0 L141.1 60.8 L141.2 60.8 L141.3 60.8 L141.8 61.1 L142.0 61.1 L142.2 61.1 L142.3 61.1 L142.4 60.9 L142.5 60.8 L142.5 60.8 L142.7 60.8 L143.2 60.7 L143.5 60.6 L143.6 60.7 L144.0 60.8 L144.2 61.1 L144.7 60.8 L144.9 60.8 L145.1 60.8 L145.2 60.9 L145.3 61.0 L145.5 61.2 L145.5 61.2 L145.8 61.3 L146.4 61.7 L146.6 61.7 L146.8 61.7 L146.9 61.6 L147.1 61.5 L147.2 61.5 L147.3 61.5 L147.5 61.6 L147.5 61.6 L147.6 61.5 L148.0 60.7 L148.1 60.5 L148.2 60.4 L148.4 60.3 L148.5 60.2 L148.6 60.2 L148.8 60.2 L149.1 59.9 L149.4 59.8 L149.6 59.7 L149.7 59.4 L149.7 59.2 L149.7 59.1 L149.6 59.0 L149.4 59.0 L149.1 58.9 L149.0 58.9 L149.1 58.7 L149.3 58.4 L149.9 58.1 L150.1 58.0 L150.2 57.8 L150.2 57.7 L150.3 57.7 L150.5 57.6 L150.8 57.7 L150.9 57.6 L151.0 57.6 L151.1 57.5 L151.1 57.4 L151.1 57.3 L151.1 57.1 L151.1 56.9 L151.0 56.8 L151.0 56.8 L151.1 56.7 L151.2 56.7 L151.2 56.7 L151.2 56.5 L150.8 56.3 L150.6 56.1 L150.6 55.8 L150.7 55.7 L150.6 55.6 L149.7 55.2 L149.3 55.2 L148.8 55.3 L148.4 55.4 L148.0 55.2 L148.0 55.1 L147.9 54.9 L148.0 54.7 L148.0 54.5 L148.1 54.5 L148.2 54.5 L148.3 54.5 L148.3 54.3 L148.3 54.2 L148.3 54.1 L148.3 54.0 L148.3 53.9 L148.1 53.8 L147.7 53.6 L147.5 53.5 L147.3 53.2 L147.1 53.1 L145.6 53.1 L145.2 53.0 L144.9 52.8 L144.9 52.6 L145.5 52.3 L145.5 52.3 L145.8 51.8 L146.0 52.0 L146.3 52.1 L146.6 52.0 L146.8 51.8 L147.5 51.0 L147.5 50.7 L147.6 50.7 L147.4 50.5 L146.8 50.3 L146.3 50.1 L146.1 49.9 L146.0 49.6 L145.8 49.4 L145.6 49.4 L145.4 49.4 L145.2 49.4 L145.1 49.3 L145.0 49.1 L145.0 49.0 L144.9 49.0 L144.7 48.9 L144.6 48.8 L144.5 48.7 L144.3 48.4 L144.2 48.2 L144.1 48.1 L144.0 48.1 L143.9 48.0 L143.8 48.0 L143.7 48.0 L143.5 48.1 L143.4 48.1 L143.4 48.0 L143.3 47.8 L143.2 47.7 L143.1 47.7 L142.8 47.6 L142.7 47.6 L142.5 47.6 L142.4 47.5 L142.3 47.5 L142.1 47.4 L142.0 47.3 L141.7 47.4 L141.2 47.9 L140.8 48.0 L140.7 48.0 L140.6 48.0 L140.4 48.1 L139.6 48.3 L139.5 48.4 L139.3 48.5 L139.2 48.5 L139.1 48.6 L138.9 48.5 L138.8 48.6 L138.7 48.7 L138.6 48.9 L138.5 49.1 L138.5 49.3 L138.5 49.5 L138.5 49.6 L138.5 49.7 L138.3 49.8 L138.1 49.8 L138.1 49.8 L138.0 49.9 L137.9 50.0 L138.0 50.1 L138.1 50.3 L138.1 50.4 L138.0 50.5 L137.9 50.5 L137.8 50.5 L137.7 50.6 L137.5 50.5 L137.5 50.5 L137.5 50.5 L137.2 50.3 L136.8 49.9 L136.6 49.8 L136.0 49.6 L136.0 49.6 L135.9 49.6 L135.8 49.6 L135.7 49.5 L135.6 49.5 L135.5 49.4 L135.3 49.0 L135.2 48.9 L135.0 48.8 L135.0 48.9 L134.9 48.9 L134.9 49.0 L134.7 49.1 L134.6 49.1 L134.4 49.2 L134.3 49.2 L134.2 49.2 L133.9 49.1 L133.3 48.8 L133.1 48.7 L133.0 48.7 L132.9 48.8 L132.8 48.8 L132.7 48.8 L132.6 48.8 L132.5 48.7 L132.4 48.6 L132.3 48.6 L132.1 48.6 L132.0 48.5 L131.9 48.5 L131.8 48.3 L131.4 48.0 L131.3 47.7 L130.9 47.0 L130.7 46.5 L130.5 46.3 L130.3 46.2 L130.1 46.2 L130.0 46.2 L130.0 46.1 L129.9 46.0 L129.9 45.9 L129.8 45.5 L129.8 45.4 L129.6 45.3 L129.5 45.2 L129.4 45.2 L129.4 45.2 L129.3 45.1 L129.3 45.0 L129.4 44.8 L129.4 44.7 L129.4 44.5 L129.3 44.4 L129.1 44.3 L129.0 44.3 L128.7 44.3 L128.5 44.3 L128.4 44.3 L128.6 44.1 L128.7 43.9 L129.1 43.8 L129.2 43.7 L129.3 43.5 L129.3 43.1 L129.3 42.8 L129.7 42.3 L129.7 42.2 L129.5 42.2 L129.3 42.3 L129.1 42.4 L129.0 42.5 L129.4 41.7 L129.7 41.5 L130.1 41.1 L130.3 40.9 L130.3 40.8 L130.3 40.8 L130.3 40.8 L130.3 40.8 L130.2 40.5 L130.1 40.3 L130.1 39.5 L130.1 39.4 L130.1 39.3 L130.0 39.2 L129.9 39.2 L129.9 39.2 L129.1 39.5 L128.9 39.5 L128.8 39.4 L128.8 39.2 L128.8 38.8 L128.7 38.3 L128.5 38.1 L128.3 38.3 L128.3 39.1 L128.2 39.5 L127.9 39.8 L127.6 40.0 L127.5 40.0 L126.9 40.0 L126.9 40.0 L126.9 40.0 L126.8 39.9 L126.7 39.7 L126.7 39.5 L126.6 39.3 L126.7 38.6 L126.6 38.2 L126.2 37.4 L125.9 37.2 L125.4 37.0 L125.0 36.8 L124.9 36.4 L124.9 36.4 L124.9 36.4 L125.0 36.3 L125.0 36.3 L125.1 36.2 L124.9 36.0 L124.7 35.9 L124.4 35.7 L124.4 35.6 L124.3 35.4 L124.2 35.3 L124.1 35.2 L123.8 35.0 L123.0 34.3 L122.4 34.0 L122.2 33.8 L122.1 33.6 L122.0 33.5 L121.8 33.3 L121.6 33.2 L121.6 33.1 L121.6 33.0 L121.6 32.9 L121.6 32.9 L121.5 32.8 L121.5 32.8 L121.4 32.5 L121.3 32.4 L121.2 32.2 L121.4 32.1 L121.5 32.0 L121.7 31.9 L122.0 32.0 L122.1 32.1 L122.3 32.1 L122.4 31.9 L122.5 31.7 L122.6 31.4 L122.7 31.2 L124.0 29.9 L124.0 29.8 L124.0 29.8 L124.0 29.7 L123.9 29.6 L123.8 29.5 L123.7 29.5 L123.7 29.3 L123.8 29.3 L123.9 29.3 L124.0 29.3 L124.2 29.2 L124.3 29.1 L124.4 28.9 L124.5 28.5 L124.5 28.5 L124.7 28.3 L124.9 28.3 L125.2 28.4 L125.4 28.5 L125.5 28.7 L125.6 28.9 L125.6 29.1 L125.9 29.1 L126.0 29.0 L126.0 28.9 L126.1 28.9 L126.2 28.9 L126.2 28.9 L126.4 29.1 L126.5 29.1 L126.7 29.2 L127.1 29.3 L127.3 29.3 L127.9 29.8 L128.1 29.9 L128.6 30.0 L128.8 30.1 L128.9 30.2 L129.0 30.4 L129.1 30.6 L129.4 31.3 L129.5 31.4 L129.7 31.5 L130.1 31.6 L130.4 31.8 L130.6 31.9 L130.8 31.9 L131.0 31.8 L131.1 31.6 L131.0 31.4 L131.0 31.3 L131.1 31.2 L131.3 31.1 L131.5 31.1 L132.0 30.7 L132.1 30.7 L132.1 30.5 L131.9 30.4 L131.9 30.3 L132.0 30.0 L132.3 29.8 L132.9 29.5 L133.1 29.4 L133.2 29.2 L133.4 28.8 L133.8 28.1 L133.9 28.1 L134.2 28.1 L134.3 28.2 L134.4 28.3 L134.5 28.4 L134.6 28.5 L134.8 28.6 L134.8 28.8 L134.8 29.0 L134.8 29.1 L134.9 29.3 L135.3 29.9 L135.5 30.2 L135.7 30.2 L135.8 30.3 L136.0 30.2 L136.3 29.7 L136.3 29.6 L136.3 29.6 L136.3 29.1 L136.3 29.0 L136.5 28.8 L136.6 28.6 L136.7 28.4 L136.8 28.3 L136.9 28.2 L137.4 28.0 L137.5 28.0 L138.2 28.9 L138.9 29.5 L139.0 29.6 L139.1 29.7 L139.3 30.0 L139.3 30.0 L139.4 30.1 L139.7 30.3 L139.7 30.4 L139.9 30.4 L140.0 30.4 L140.1 30.5 L140.2 30.8 L140.3 30.8 L140.5 30.9 L140.6 31.0 L140.6 31.1 L140.8 31.0 L140.9 30.8 L140.9 30.7 L140.9 30.6 L140.9 30.4 L141.0 30.2 L141.1 29.9 L141.2 29.8 L141.2 29.1 L141.3 28.8 L141.5 28.5 L141.6 28.5 L141.8 28.2 L141.8 28.2 L142.0 28.1 L142.1 28.0 L142.4 28.0 L143.3 27.7 L143.6 27.7 L143.5 27.9 L143.5 28.1 L143.5 28.4 L143.6 28.6 L143.7 28.7 L144.3 29.0 L144.5 29.1 L144.7 29.2 L144.8 29.1 L144.9 29.1 L145.8 28.5 L146.0 28.3 L146.7 27.8 L146.9 27.6 L146.9 27.6 L147.0 27.6 L147.0 27.7 L147.0 27.7 L147.0 27.8 L147.1 27.8 L147.1 27.8 L147.2 27.9 L147.3 27.9 L147.3 27.9 L147.4 27.8 L147.5 27.7 L147.7 27.7 L148.1 27.9 L148.3 27.8 L148.5 27.8 L148.6 27.7 L148.8 27.6 L149.1 27.1 L149.2 27.0 L149.8 26.7 L149.8 26.6 L149.8 26.3 L149.5 25.0 L149.6 24.8 L149.9 24.8 L150.2 24.6 L150.2 24.5 L150.2 24.3 L150.2 24.1 L150.4 24.1 L150.5 24.1 L150.8 24.2 L150.9 24.2 L151.0 24.2 L151.4 23.9 L151.8 23.7 L152.1 23.5 L152.3 23.4 L153.1 23.2 L153.2 23.2 L153.2 23.1 L153.2 23.1 L153.3 23.0 L153.3 23.1 L153.4 23.1 L153.4 23.1 L153.5 23.1 L153.5 23.2 L153.6 23.2 L153.7 23.2 L153.9 23.1 L154.0 22.9 L154.0 22.7 L154.1 22.5 L154.2 22.4 L154.6 22.1 L154.7 22.0 L154.9 22.0 L155.0 22.1 L155.0 22.3 L155.1 22.5 L155.2 22.7 L155.4 22.8 L155.6 22.9 L155.7 23.0 L155.8 23.0 L155.9 22.9 L156.0 22.9 L156.1 23.0 L156.2 23.0 L156.3 23.3 L156.5 23.7 L156.6 23.8 L157.1 24.1 L157.1 24.1 L157.2 24.2 L157.3 24.4 L157.3 24.8 L157.3 24.9 L157.3 25.1 L157.4 25.2 L157.6 25.3 L158.3 25.3 L158.6 25.4 L158.9 25.4 L159.0 25.5 L159.2 25.7 L159.3 25.7 L159.4 25.7 L159.6 25.8 L159.7 25.9 L159.7 25.9 L159.7 25.9 L159.7 25.9 L159.8 26.1 L160.4 26.7 L160.6 26.9 L160.7 26.8 L160.7 26.8 L160.8 26.7 L160.8 26.6 L161.0 26.6 L161.1 26.6 L161.2 26.7 L161.6 26.6 L161.7 26.6 L161.9 26.5 L162.0 26.2 L162.1 26.1 L163.0 26.1 L163.5 26.1 L163.9 26.2 L164.3 26.4 L164.5 26.8 L164.5 27.2 L164.6 27.3 L164.8 27.4 L165.1 27.4 L165.3 27.4 L165.5 27.4 L167.0 27.0 L167.1 26.9 L167.2 26.7 L167.3 26.6 L167.4 26.7 L167.6 26.8 L168.1 26.9 L168.3 27.0 L168.4 27.1 L168.5 27.3 L168.6 27.4 L168.8 27.4 L168.9 27.4 L169.0 27.3 L169.1 27.2 L169.2 27.3 L169.3 27.3 L169.4 27.5 L169.7 27.7 L169.9 28.0 L169.9 28.0 L170.0 28.0 L170.3 28.0 L170.5 28.0 L170.6 28.1 L170.5 28.3 L170.1 28.5 L170.0 28.6 L170.0 28.7 L169.9 29.1 L169.8 29.3 L169.6 29.6 L169.5 29.8 L169.3 30.3 L169.2 30.4 L169.0 30.4 L168.8 30.3 L168.7 30.1 L168.6 30.0 L168.4 30.0 L168.2 30.1 L168.1 30.3 L167.9 31.4 L167.9 31.5 L167.7 31.7 L167.7 31.8 L167.7 31.9 L167.8 32.1 L167.8 32.2 L167.8 32.6 L167.9 32.8 L168.0 32.9 L168.2 33.0 L168.7 33.0 L168.8 33.1 L168.9 33.3 L169.1 34.0 L169.1 34.2 L169.0 34.2 L168.9 34.4 L168.9 34.5 L169.0 34.7 L169.1 34.8 L169.1 34.9 L169.1 35.0 L169.1 35.1 L169.1 35.2 L169.1 35.3 L169.2 35.4 L169.2 35.4 L169.2 35.7 L169.2 36.0 L169.0 36.4 L169.0 36.5 L169.0 36.6 L169.0 36.7 L169.1 36.8 L169.3 36.8 L169.4 36.7 L169.8 36.3 L169.8 36.3 L170.0 36.4 L170.0 36.4 L170.1 36.5 L170.2 36.6 L170.4 36.7 L170.6 36.7 L171.0 36.7 L171.3 36.7 L171.4 36.9 L171.5 37.0 L171.6 37.2 L171.9 37.3 L172.0 37.2 L172.2 37.1 L172.4 37.1 L172.6 37.1 L172.8 37.2 L172.9 37.3 L172.9 37.5 L172.8 37.7 L172.7 37.9 L172.6 38.0 L172.6 38.3 L172.7 38.4 L172.9 38.5 L173.4 38.6 L173.7 38.7 L174.5 39.4 L174.9 39.5 L175.3 39.4 L175.6 39.4 L175.9 39.7 L176.2 40.4 L176.2 40.5 L176.4 40.6 L176.7 40.4 L177.0 40.1 L177.2 40.1 L177.4 40.1 L177.5 40.3 L177.6 40.7 L177.7 40.7 L177.9 40.8 L178.0 40.8 L178.1 40.8 L178.2 40.7 L178.2 40.6 L178.3 40.5 L178.5 40.5 L178.9 40.6 L179.2 40.6 L179.8 40.4 L180.0 40.4 L180.4 40.1 L180.5 40.0 L180.7 40.0 L180.9 40.0 L181.2 40.1 L181.5 40.2 L181.5 40.3 L181.6 40.4 L181.7 40.6 L181.8 40.7 L182.1 40.9 L182.5 41.3 L182.6 41.3 L183.1 41.8 L182.9 41.9 L182.7 42.1 L182.5 42.3 L182.4 42.1 L182.4 42.0 L182.4 41.9 L182.5 41.9 L182.5 41.9 L182.5 41.8 L182.5 41.7 L182.4 41.7 L182.4 41.6 L182.4 41.5 L182.3 41.4 L182.1 41.3 L182.0 41.3 L182.0 41.4 L182.0 41.4 L181.9 41.5 L181.8 41.5 L181.8 41.4 L181.7 41.4 L181.6 41.7 L181.5 41.8 L181.4 41.7 L181.4 41.6 L181.4 41.4 L181.3 41.4 L181.3 41.5 L181.3 41.5 L181.3 41.6 L181.3 41.6 L181.3 41.7 L181.3 41.7 L181.2 41.6 L181.1 41.7 L181.1 41.5 L181.0 41.4 L180.8 41.5 L180.6 41.5 L180.6 41.6 L180.8 41.6 L180.9 41.6 L181.0 41.7 L181.0 41.9 L180.9 41.8 L180.9 41.9 L181.0 42.0 L181.0 42.1 L180.9 42.1 L180.8 42.1 L180.7 42.2 L180.7 42.3 L180.8 42.3 L180.6 42.6 L180.4 42.6 L180.3 42.6 L180.3 42.6 L180.2 42.7 L180.1 42.7 L179.9 42.7 L179.8 42.6 L179.7 42.6 L179.7 42.7 L179.7 42.7 L179.7 42.8 L179.8 42.9 L179.7 43.0 L179.5 43.0 L179.4 42.9 L179.4 43.0 L179.4 43.0 L179.4 43.0 L179.5 43.0 L179.5 43.1 L179.4 43.2 L179.3 43.2 L179.4 43.3 L179.5 43.3 L179.4 43.3 L179.2 43.4 L179.3 43.4 L179.3 43.4 L179.3 43.4 L179.3 43.5 L179.3 43.5 L179.1 43.4 L179.1 43.7 L179.0 43.8 L178.9 43.8 L178.7 43.8 L178.6 43.8 L178.5 43.7 L178.5 43.6 L178.4 43.5 L178.4 43.4 L178.3 43.3 L178.2 43.3 L178.2 43.3 L178.2 43.4 L178.3 43.5 L178.2 43.6 L178.2 43.7 L178.4 43.8 L178.2 43.8 L178.0 43.8 L177.8 43.8 L177.8 43.8 L177.7 43.7 L177.6 43.7 L177.5 43.6 L177.4 43.6 L177.1 43.5 L177.0 43.6 L177.1 43.7 L177.4 43.8 L177.4 43.9 L177.2 44.0 L176.8 44.0 L176.6 44.1 L176.6 44.1 L176.6 44.2 L176.6 44.3 L176.5 44.3 L176.5 44.4 L176.5 44.8 L176.4 44.9 L176.5 45.0 L176.6 45.0 L176.7 45.0 L176.8 45.0 L176.7 45.5 L176.7 45.7 L176.5 45.9 L176.6 46.0 L176.6 46.0 L176.5 46.1 L176.4 46.1 L176.5 46.2 L176.5 46.4 L176.5 46.5 L176.6 46.6 L176.6 46.7 L176.5 46.8 L176.4 46.8 L176.2 46.9 L176.0 46.9 L175.8 46.9 L175.6 46.9 L175.5 46.9 L175.3 46.9 L175.1 47.0 L174.9 47.0 L175.0 47.0 L175.0 47.1 L175.1 47.1 L175.1 47.1 L175.1 47.2 L175.0 47.2 L174.7 47.4 L174.8 47.6 L174.6 47.6 L174.5 47.6 L174.4 47.7 L174.3 47.6 L174.3 47.7 L174.1 47.5 L173.6 47.5 L173.4 47.4 L173.4 47.3 L173.7 46.9 L174.3 46.6 L174.3 46.5 L174.1 46.5 L174.0 46.5 L173.9 46.6 L173.8 46.7 L173.7 46.7 L173.7 46.8 L173.7 46.9 L173.6 46.9 L173.5 46.8 L173.5 46.8 L173.6 46.7 L173.6 46.7 L173.6 46.6 L173.6 46.6 L173.5 46.6 L173.5 46.8 L173.4 46.8 L173.3 46.8 L173.3 46.6 L173.3 46.6 L173.3 46.7 L173.2 46.8 L173.2 46.9 L173.2 46.9 L173.2 46.8 L173.2 46.7 L173.1 46.6 L173.0 46.6 L173.0 46.7 L173.0 46.7 L173.1 46.8 L173.1 46.8 L173.1 46.8 L173.0 46.8 L173.1 46.9 L173.0 46.9 L172.9 46.9 L172.7 46.7 L172.6 46.9 L172.9 47.1 L173.0 47.2 L172.9 47.4 L172.7 47.5 L172.5 47.5 L172.3 47.5 L172.1 47.4 L172.0 47.4 L171.8 47.3 L171.7 47.2 L171.5 47.0 L171.4 47.0 L171.3 47.1 L171.3 47.0 L171.2 47.0 L171.2 47.0 L171.5 47.4 L171.6 47.5 L171.8 47.6 L171.9 47.6 L171.9 47.7 L171.9 47.8 L172.0 47.8 L172.1 47.9 L172.1 48.0 L171.8 48.0 L171.7 47.9 L171.6 47.8 L171.4 47.6 L171.4 47.6 L171.4 47.7 L171.4 47.8 L171.5 47.8 L171.5 47.9 L171.3 48.2 L171.2 48.1 L171.1 47.9 L170.9 47.7 L171.0 47.7 L171.0 47.7 L170.9 47.6 L170.9 47.6 L170.7 47.7 L170.4 47.5 L170.3 47.4 L170.5 47.3 L170.7 47.3 L170.8 47.3 L170.8 47.2 L170.8 47.1 L170.7 47.0 L170.6 47.0 L170.6 46.9 L170.7 46.8 L170.6 46.7 L170.6 46.7 L170.5 46.7 L170.4 46.7 L170.4 46.7 L170.4 46.8 L170.4 46.8 L170.2 46.8 L170.0 46.7 L169.9 46.6 L169.6 46.7 L169.6 46.8 L169.7 46.8 L169.7 46.9 L169.3 46.7 L169.1 46.7 L168.9 46.7 L169.0 46.8 L169.0 46.8 L169.4 46.9 L169.4 46.9 L169.3 46.9 L169.1 46.9 L169.1 46.9 L169.2 47.0 L169.2 47.2 L169.2 47.3 L169.3 47.4 L169.4 47.4 L169.7 47.5 L169.9 47.5 L170.0 47.5 L170.1 47.6 L170.2 47.8 L170.1 47.9 L170.0 48.1 L170.0 48.2 L169.9 48.2 L169.7 48.0 L169.5 48.2 L169.6 48.3 L169.8 48.4 L170.0 48.5 L170.1 48.8 L170.1 49.0 L169.9 49.1 L169.7 49.0 L169.8 49.2 L169.9 49.4 L170.1 49.6 L170.3 49.7 L170.4 49.6 L170.5 49.8 L170.6 50.3 L170.4 50.2 L170.3 50.1 L170.3 50.0 L170.2 50.0 L170.1 50.0 L170.0 50.1 L170.0 50.1 L169.9 50.1 L169.8 50.2 L169.7 50.2 L169.6 50.2 L169.3 50.1 L169.1 50.1 L169.1 50.2 L169.4 50.3 L169.6 50.4 L169.6 50.5 L169.4 50.7 L169.2 50.8 L169.0 50.8 L168.9 50.9 L168.7 50.8 L168.6 50.8 L168.5 50.6 L168.3 50.5 L168.4 50.6 L168.4 50.7 L168.5 50.8 L168.6 50.9 L168.7 51.0 L168.7 51.0 L168.8 51.0 L168.8 51.1 L168.8 51.2 L168.7 51.2 L168.7 51.3 L168.5 51.3 L168.3 51.5 L167.6 51.8 L167.8 51.9 L168.0 51.9 L168.3 51.7 L168.3 51.8 L168.1 51.9 L168.2 52.1 L168.3 52.3 L168.3 52.4 L168.2 52.5 L167.9 52.6 L167.9 52.6 L167.8 52.6 L167.7 52.7 L167.7 52.8 L167.6 52.9 L167.7 52.9 L167.8 52.8 L168.1 52.7 L168.3 52.7 L168.4 52.8 L168.4 53.2 L168.3 53.5 L168.2 53.6 L168.1 53.5 L168.1 53.4 L168.1 53.5 L168.1 53.5 L168.1 53.5 L168.1 53.5 L168.2 53.7 L168.3 53.8 L168.3 53.9 L168.3 54.1 L168.4 54.3 L168.4 54.6 L168.3 54.7 L168.1 54.5 L168.0 54.3 L167.8 54.2 L167.7 54.2 L167.5 54.2 L167.4 54.2 L167.5 54.3 L167.5 54.3 L167.6 54.4 L167.6 54.3 L167.7 54.2 L167.9 54.4 L168.0 54.5 L168.0 54.6 L168.1 54.7 L168.2 54.9 L168.2 55.0 L168.0 55.1 L167.9 55.1 L167.7 55.1 L167.5 55.2 L167.1 55.2 L167.0 55.2 L166.3 55.3 L166.3 55.2 L166.4 55.2 L166.4 55.2 L166.3 55.2 L166.3 55.2 L166.2 55.2 L166.2 55.3 L166.2 55.4 L166.2 55.5 L166.0 55.5 L165.9 55.6 L165.7 55.9 L165.4 56.3 L165.1 56.5 L164.9 56.8 L164.6 57.0 L164.4 57.3 L164.2 57.3 L164.3 57.1 L164.4 57.1 L164.3 57.0 L164.2 57.1 L164.1 57.4 L164.0 57.6 L163.9 57.6 L163.5 57.7 L163.3 57.8 L163.2 57.7 L163.3 57.5 L163.3 57.3 L163.4 57.1 L163.3 57.1 L163.3 57.3 L163.1 57.8 L163.0 57.8 L162.9 57.8 L162.7 57.7 L162.6 57.6 L162.5 57.5 L162.4 57.5 L162.4 57.6 L162.2 57.8 L161.8 58.2 L161.7 58.3 L161.6 58.4 L161.6 58.5 L161.7 58.7 L161.7 58.8 L161.5 59.1 L161.4 59.2 L161.4 59.5 L161.4 59.7 L161.4 59.6 L161.3 59.5 L161.2 59.6 L161.0 59.7 L160.8 59.9 L160.8 60.0 L161.0 59.9 L161.3 59.9 L161.4 59.8 L161.3 59.9 L161.2 60.2 L161.1 60.3 L161.1 60.4 L160.9 60.4 L160.8 60.4 L160.7 60.6 L160.6 60.7 L160.4 61.1 L160.3 61.3 L160.3 61.4 L160.3 61.7 L160.2 61.8 L160.2 61.6 L160.1 61.6 L160.0 61.7 L160.0 61.8 L160.0 61.8 L160.1 61.7 L160.1 61.6 L160.2 61.7 L160.2 61.8 L160.2 61.9 L160.2 62.0 L160.2 62.0 L160.3 62.4 L160.1 63.2 L160.2 63.6 L160.0 63.5 L159.9 63.8 L159.7 63.7 L159.7 63.8 L159.9 63.9 L159.9 64.0 L160.0 64.3 L160.2 64.6 L160.2 64.8 L160.0 64.6 L160.0 64.7 L160.0 64.9 L160.1 64.8 L160.2 64.9 L160.1 65.1 L160.1 65.1 L160.1 65.2 L160.0 65.2 L159.9 65.2 L159.8 65.2 L159.8 65.5 L159.6 65.5 L159.5 65.5 L159.5 65.6 L159.3 66.2 L159.3 66.6 L159.4 66.9 L159.1 67.0 L159.0 67.1 L158.9 67.2 L158.7 67.1 L158.4 67.3 L158.2 67.7 L158.1 68.0 L158.1 68.2 L158.1 68.3 L158.2 68.4 L158.2 68.5 L158.3 68.8 L158.3 69.0 L158.4 69.2 L158.7 69.3 L158.9 69.5 L159.2 69.6 L159.2 69.6 L159.0 69.8 L159.0 69.7 L158.9 69.6 L158.8 69.6 L158.7 69.6 L158.8 69.8 L158.9 69.8 L158.9 69.9 L159.1 69.9 L159.2 69.9 L159.4 70.1 L159.5 70.3 L159.6 70.4 L159.4 70.9 L159.5 70.9 L159.6 71.0 L159.6 71.2 L159.6 71.4 L159.5 71.6 L159.7 71.5 L159.7 71.2 L159.7 70.6 L159.7 70.6 L159.9 70.7 L159.9 71.0 L160.0 71.3 L160.0 71.4 L160.1 71.5 L160.3 72.3 L160.9 73.2 L161.3 73.6 L161.6 73.6 L161.7 73.8 L161.7 74.0 L161.8 74.2 L161.9 74.3 L162.2 74.5 L162.2 74.6 L162.6 75.1 L163.2 75.5 L163.3 75.7 L163.3 75.8 L163.1 75.8 L163.2 75.9 L163.4 75.9 L163.6 75.8 L163.9 75.8 L164.1 75.8 L164.6 76.2 L164.7 76.3 L164.9 76.4 L165.0 76.4 L165.3 76.8 L165.7 77.0 L165.8 77.2 L165.9 77.4 L165.8 77.4 L165.7 77.3 L165.6 77.3 L165.4 77.4 L165.4 77.5 L165.5 77.6 L165.6 77.5 L165.6 77.5 L165.7 77.5 L165.7 77.6 L165.7 77.7 L165.8 77.9 L165.8 77.8 L165.8 77.7 L165.9 77.6 L166.0 77.5 L166.1 77.4 L166.1 77.5 L166.2 77.5 L166.3 77.5 L166.4 77.4 L166.6 77.2 L166.7 77.3 L166.7 77.4 L166.6 77.6 L166.7 77.8 L166.8 78.0 L167.6 79.0 L167.7 79.1 L167.7 79.2 L167.5 79.3 L167.3 79.5 L167.2 79.6 L167.1 79.7 L167.0 79.8 L166.8 79.8 L166.8 79.9 L166.9 79.9 L166.9 80.0 L166.9 80.1 L166.8 80.2 L166.9 80.4 L167.0 80.7 L167.1 81.2 L167.2 81.3 L167.4 81.5 L167.4 81.6 L167.3 81.7 L167.2 81.7 L166.9 81.6 L166.7 81.3 L166.6 81.3 L166.5 81.2 L166.1 81.0 L165.4 81.0 L165.2 80.9 L165.2 81.0 L165.3 81.1 L165.6 81.2 L165.8 81.2 L166.2 81.3 L166.7 81.4 L166.7 81.5 L166.6 81.5 L166.4 81.4 L166.2 81.5 L166.2 81.7 L166.5 81.9 L166.4 81.8 L166.4 81.7 L166.3 81.7 L166.6 81.6 L166.9 81.6 L167.2 81.8 L167.5 81.9 L167.6 82.0 L167.8 82.5 L168.1 82.8 L168.6 83.6 L168.8 84.0 L168.8 84.1 L168.9 84.2 L169.1 84.3 L169.1 84.4 L169.1 84.4 L169.3 84.6 L170.2 85.6 L172.1 86.9 L172.8 87.4 L173.9 88.2 L174.0 88.5 L174.0 88.9 L174.1 89.0 L174.7 89.8 L174.8 89.9 L174.8 90.0 L174.8 90.0 L174.7 90.0 L174.7 90.1 L174.6 90.2 L174.6 90.2 L174.2 90.4 L174.2 90.5 L174.5 90.5 L174.6 90.5 L174.7 90.4 L174.7 90.4 L174.7 90.3 L174.7 90.2 L174.9 90.1 L175.0 90.1 L175.0 90.1 L175.1 90.2 L175.2 90.3 L175.3 90.4 L176.7 91.5 L177.0 91.7 L177.9 92.4 L179.1 93.4 L179.4 93.5 L179.4 93.5 L179.0 93.4 L177.7 92.8 L177.4 92.8 L178.2 93.2 L178.4 93.3 L178.5 93.4 L178.6 93.5 L178.8 93.5 L178.9 93.5 L179.0 93.5 L179.0 93.6 L179.1 93.6 L179.4 93.7 L179.4 93.8 L179.3 93.8 L179.2 93.7 L179.2 93.7 L179.2 93.8 L179.1 93.8 L179.1 93.9 L179.3 93.9 L179.4 93.9 L179.7 93.8 L179.6 93.9 L179.6 94.0 L179.5 94.0 L179.5 94.1 L179.6 94.1 L179.6 94.2 L179.7 94.4 L179.7 94.4 L179.8 94.4 L179.8 94.4 L179.9 94.3 L179.9 94.2 L180.0 94.2 L180.1 94.2 L180.1 94.3 L180.2 94.4 L180.6 94.7 L180.7 94.8 L180.9 95.1 L181.1 95.3 L181.4 95.6 L181.6 95.6 L181.5 95.7 L181.5 95.7 L181.4 95.7 L181.3 95.7 L181.3 95.6 L181.2 95.6 L181.1 95.6 L181.1 95.6 L181.2 96.2 L181.3 96.3 L181.4 96.4 L181.6 96.6 L181.7 96.6 L181.8 96.5 L181.9 96.5 L182.0 96.6 L182.0 96.7 L182.1 96.6 L182.1 96.7 L182.5 96.4 L182.6 96.4 L182.5 96.0 L182.5 95.9 L182.7 95.9 L183.1 96.2 L183.4 96.3 L183.5 96.2 L183.5 96.1 L183.6 96.0 L183.7 96.0 L183.7 96.1 L183.8 96.4 L183.9 96.6 L184.2 97.1 L183.9 96.9 L183.8 96.9 L183.7 97.0 L183.8 97.2 L184.0 97.2 L184.2 97.2 L184.3 97.2 L184.4 97.2 L184.6 97.3 L184.8 97.4 L185.1 97.4 L185.4 97.4 L185.3 97.4 L185.2 97.5 L184.9 97.8 L184.7 98.1 L184.7 98.4 L184.9 98.5 L185.2 98.7 L185.3 98.9 L185.5 98.7 L185.6 98.7 L185.6 98.7 L185.7 99.1 L185.7 99.1 L185.7 99.2 L185.6 99.4 L185.4 99.5 L185.3 99.6 L185.5 99.5 L185.7 99.4 L185.9 99.4 L186.0 99.5 L185.9 99.0 L185.8 98.8 L185.8 98.7 L185.8 98.5 L185.8 98.3 L185.6 98.3 L185.6 98.2 L185.7 98.2 L185.8 98.1 L185.8 98.0 L185.8 97.9 L185.9 98.0 L185.9 98.0 L185.9 98.0 L186.0 97.9 L186.0 97.9 L186.1 98.0 L186.3 98.1 L186.4 98.2 L186.6 98.2 L186.6 98.2 L186.7 98.1 L186.7 98.0 L186.8 98.0 L186.8 98.1 L186.9 98.2 L186.8 98.3 L186.7 98.4 L186.6 98.5 L186.5 98.6 L186.4 98.5 L186.2 98.6 L186.0 98.5 L186.0 98.9 L186.0 99.3 L186.2 99.7 L186.2 99.7 L186.3 100.0 L186.5 100.1 L187.0 100.5 L187.2 100.6 L187.3 100.7 L187.4 100.9 L187.3 100.9 L187.2 101.0 L187.2 101.0 L187.3 101.0 L187.3 101.0 L187.4 100.9 L187.5 100.9 L187.6 100.9 L187.6 101.0 L187.7 101.7 L188.0 102.3 L189.8 104.6 L190.0 104.8 L190.4 104.7 L190.3 105.0 L190.3 105.1 L190.2 104.9 L190.0 105.0 L189.9 105.1 L189.8 105.2 L189.9 105.4 L190.1 105.6 L190.3 105.5 L190.5 105.0 L190.6 105.0 L190.6 105.2 L190.7 105.5 L190.7 105.6 L191.0 105.8 L191.0 105.8 L191.1 105.9 L191.3 106.0 L191.3 106.0 L191.4 106.1 L191.4 106.2 L191.4 106.4 L191.4 106.5 L191.5 106.6 L191.4 106.7 L191.4 106.7 L191.4 106.8 L191.5 106.8 L191.5 106.7 L191.5 106.5 L191.6 106.5 L191.7 106.6 L191.9 106.5 L191.9 106.5 L191.6 106.4 L191.5 106.2 L191.6 106.0 L191.8 105.9 L191.8 105.8 L191.8 105.8 L191.7 105.7 L191.7 105.7 L191.8 105.7 L191.8 105.7 L191.9 105.7 L192.0 105.7 L192.0 105.8 L192.1 106.2 L192.1 106.3 L192.2 106.4 L192.5 106.6 L192.5 106.6 L192.5 107.0 L192.6 107.2 L192.8 107.4 L193.0 107.5 L193.1 107.5 L193.2 107.5 L193.3 107.5 L193.2 107.7 L193.1 107.8 L192.9 107.8 L192.8 107.8 L192.8 107.9 L192.9 107.9 L192.9 107.9 L193.0 108.0 L193.0 108.1 L192.8 108.0 L192.8 108.1 L192.7 108.4 L192.7 108.6 L192.5 108.5 L192.4 108.5 L192.3 108.6 L192.4 108.7 L192.5 108.7 L192.6 108.7 L192.6 108.7 L192.7 108.8 L192.7 108.9 L192.8 108.9 L192.8 108.8 L192.8 108.8 L192.8 108.6 L192.9 109.6 L193.2 110.4 L193.8 111.9 L193.6 111.9 L193.7 112.0 L193.9 112.1 L194.0 112.2 L194.2 112.5 L194.2 112.5 L194.6 113.0 L194.7 113.2 L194.8 113.7 L194.7 113.6 L194.6 113.6 L194.6 113.5 L194.6 113.6 L194.6 114.3 L194.7 114.4 L194.7 114.5 L194.7 114.6 L194.6 114.5 L194.5 114.7 L194.5 114.7 L194.4 114.8 L194.5 114.9 L194.6 114.7 L194.6 114.6 L194.9 115.6 L195.1 115.8 L195.1 116.0 L195.1 116.5 L195.2 116.7 L195.2 116.9 L195.4 117.2 L195.7 117.5 L195.8 117.7 L195.8 117.8 L195.9 118.2 L195.8 118.4 L195.9 118.8 L196.3 119.3 L196.1 119.3 L196.0 119.2 L196.0 119.1 L195.9 119.0 L195.6 118.9 L195.6 119.1 L195.7 119.3 L196.0 119.5 L196.2 119.6 L196.4 120.4 L196.6 121.6 L196.7 121.7 L197.0 121.9 L197.0 122.0 L196.9 122.9 L197.0 123.3 L196.9 123.3 L196.6 123.3 L196.6 123.2 L196.7 122.6 L196.5 122.0 L196.4 121.9 L196.3 122.0 L196.3 122.1 L196.2 122.5 L196.1 122.7 L196.1 122.8 L196.2 122.7 L196.3 123.0 L196.4 123.0 L196.5 123.1 L196.4 123.2 L196.3 123.3 L196.2 123.4 L196.1 123.6 L196.3 123.9 L196.3 123.9 L196.3 124.0 L196.3 124.3 L196.3 124.5 L196.4 124.7 L196.5 124.9 L196.6 125.0 L196.6 125.0 L196.8 125.1 L196.9 125.2 L196.9 125.2 L197.0 125.3 L197.0 125.3 L196.9 125.4 L196.8 125.4 L196.8 125.5 L196.8 125.5 L196.9 125.5 L196.9 125.7 L196.8 125.6 L196.6 125.2 L196.4 124.9 L196.2 124.6 L196.1 124.4 L196.0 124.4 L196.0 124.6 L196.0 124.7 L196.1 124.7 L196.2 124.8 L196.3 124.9 L196.3 125.1 L196.4 125.2 L196.5 125.4 L196.6 125.4 L196.6 125.5 L196.5 125.5 L196.5 125.5 L196.6 125.6 L196.8 125.9 L196.9 125.9 L196.9 125.8 L197.0 125.8 L197.1 125.7 L197.1 125.9 L197.0 126.0 L196.9 126.1 L197.0 126.2 L197.1 126.3 L197.2 126.3 L197.3 126.2 L197.4 126.4 L197.3 126.5 L197.3 126.6 L197.2 126.8 L197.1 126.9 L197.0 127.0 L196.9 126.9 L196.7 126.8 L196.7 126.7 L196.7 126.6 L196.8 126.6 L196.9 126.5 L196.9 126.4 L196.9 126.3 L196.5 126.1 L196.4 126.1 L196.4 126.1 L196.3 126.2 L196.2 126.4 L196.3 126.5 L196.3 126.6 L196.2 126.7 L196.4 126.8 L196.3 126.8 L196.2 126.9 L196.2 127.1 L196.4 127.2 L196.6 127.4 L196.7 127.5 L196.8 127.4 L196.9 127.4 L197.0 127.5 L197.0 127.7 L197.0 127.7 L196.9 127.8 L196.8 127.8 L196.8 127.8 L196.9 127.9 L196.9 127.9 L196.9 128.0 L196.9 128.1 L196.8 128.1 L196.7 128.0 L196.7 128.0 L196.6 128.1 L196.6 128.1 L196.5 128.1 L196.6 128.5 L196.7 128.6 L196.9 128.8 L196.9 128.4 L196.9 128.3 L197.0 128.3 L197.0 128.2 L197.0 128.1 L197.0 128.1 L197.0 128.1 L197.1 128.1 L197.1 128.2 L197.1 128.3 L197.2 128.5 L197.1 128.6 L197.0 128.9 L197.0 129.0 L197.1 129.2 L197.1 129.3 L197.0 129.5 L197.0 129.7 L197.0 129.9 L197.1 130.0 L197.2 130.1 L197.3 130.3 L197.2 130.4 L197.4 130.5 L197.5 130.5 L197.7 130.9 L198.0 131.2 L198.2 131.6 L198.6 132.1 L198.7 132.2 L198.7 132.3 L198.7 132.5 L198.7 132.7 L198.6 132.8 L198.6 132.8 L198.4 132.9 L198.3 132.9 L198.3 132.8 L198.3 132.8 L198.4 132.7 L198.5 132.7 L198.5 132.6 L198.5 132.6 L198.5 132.6 L198.4 132.5 L198.2 132.7 L198.1 132.7 L198.1 132.9 L198.0 133.0 L197.9 133.0 L197.8 133.0 L197.8 133.0 L197.8 133.0 L197.7 133.1 L197.7 133.2 L197.7 133.3 L197.7 133.5 L197.7 133.6 L198.2 134.5 L198.4 134.7 L198.5 134.7 L198.7 134.8 L198.8 134.9 L198.7 135.0 L198.7 135.0 L198.6 135.0 L198.5 135.1 L198.5 135.2 L198.5 135.7 L198.5 135.8 L198.4 135.9 L198.3 135.7 L198.2 135.4 L198.1 135.4 L198.1 135.3 L198.0 135.3 L198.0 135.2 L198.1 135.2 L198.2 135.0 L198.2 134.9 L198.0 134.6 L198.0 134.7 L197.9 134.7 L197.9 134.7 L197.7 134.7 L197.8 134.8 L197.8 134.9 L197.8 135.0 L197.7 135.1 L197.7 135.0 L197.6 134.9 L197.5 134.8 L197.4 134.8 L197.6 134.6 L197.6 134.5 L197.6 134.5 L197.7 134.5 L197.8 134.4 L197.9 134.3 L197.8 134.1 L197.7 133.9 L197.6 133.8 L197.6 133.4 L197.6 133.4 L197.4 133.4 L197.4 133.5 L197.4 133.6 L197.3 133.7 L197.0 133.9 L196.9 134.0 L196.6 134.3 L196.5 134.4 L196.3 134.5 L196.2 134.6 L195.9 135.0 L195.9 135.1 L196.0 135.5 L195.9 135.6 L195.9 135.7 L195.9 135.9 L195.9 136.0 L196.0 136.0 L196.0 136.0 L196.0 136.0 L196.0 136.1 L196.1 136.1 L196.1 136.0 L196.1 135.8 L196.2 135.7 L196.3 135.7 L196.3 135.6 L196.2 135.6 L196.2 135.6 L196.4 135.6 L196.4 135.8 L196.3 135.9 L196.2 136.1 L196.3 136.3 L196.4 136.4 L196.9 136.8 L197.0 136.9 L196.9 137.1 L196.9 137.2 L196.9 137.3 L197.0 137.3 L197.1 137.4 L197.3 137.5 L197.4 137.6 L197.3 137.7 L197.4 137.8 L197.3 137.9 L197.2 137.7 L197.1 137.8 L197.0 138.0 L196.9 138.1 L196.8 138.0 L196.6 137.9 L196.5 137.7 L196.0 137.2 L195.7 137.0 L195.4 137.0 L195.5 137.1 L195.5 137.2 L195.6 137.2 L195.5 137.2 L195.4 137.2 L195.4 137.2 L195.4 137.3 L195.6 137.5 L195.6 137.6 L195.8 137.6 L196.0 137.7 L196.0 138.0 L196.0 138.2 L196.0 138.3 L196.1 138.4 L196.2 138.5 L196.3 138.6 L196.3 138.7 L196.3 138.7 L196.1 138.7 L196.1 138.7 L196.0 138.7 L195.9 139.0 L195.7 138.9 L195.6 138.9 L195.7 139.0 L195.8 139.1 L196.0 139.2 L195.9 139.3 L196.0 139.5 L196.1 139.6 L196.1 139.7 L195.9 139.6 L195.8 139.6 L195.7 139.8 L195.8 139.7 L195.8 139.7 L195.9 139.8 L196.0 139.8 L196.0 140.0 L196.0 140.1 L196.0 140.1 L196.0 140.1 L196.1 140.2 L196.2 140.3 L196.1 140.4 L196.0 140.6 L196.0 140.6 L196.0 141.1 L196.1 141.3 L196.4 141.8 L196.5 141.9 L196.8 142.1 L196.8 142.2 L196.8 142.4 L196.8 142.4 L196.6 142.6 L196.6 142.8 L196.6 142.9 L196.7 143.0 L196.9 143.1 L196.9 143.2 L196.7 143.2 L196.5 143.2 L196.4 143.1 L196.3 143.0 L196.3 143.0 L196.2 143.1 L196.1 143.1 L196.1 142.8 L196.1 142.0 L196.0 141.6 L196.1 141.6 L195.8 141.0 L195.7 140.6 L195.6 140.4 L195.5 140.6 L195.6 140.9 L195.7 140.9 L195.7 140.9 L195.6 141.2 L195.7 141.3 L195.9 141.6 L196.0 141.7 L196.0 142.0 L195.9 142.3 L195.7 142.6 L195.4 142.9 L195.2 142.9 L195.1 143.2 L195.2 143.6 L195.5 143.7 L195.5 143.6 L195.7 143.4 L195.9 143.2 L195.9 143.2 L195.9 143.3 L195.8 143.5 L195.8 143.6 L195.9 143.8 L195.9 144.0 L195.9 144.1 L196.3 144.6 L196.2 144.8 L196.1 144.7 L196.1 144.8 L196.0 145.0 L195.8 145.3 L195.8 145.4 L195.8 145.5 L195.7 145.6 L195.7 145.7 L195.5 145.8 L195.4 145.9 L195.4 146.0 L195.3 146.2 L195.2 146.3 L195.1 146.3 L195.0 146.2 L194.9 146.2 L194.7 146.2 L194.5 146.2 L194.4 146.1 L194.3 145.7 L194.2 145.6 L194.0 145.7 L194.0 145.8 L194.1 145.9 L194.2 146.0 L194.2 146.1 L194.1 146.3 L194.1 146.4 L194.2 146.6 L194.0 146.6 L193.9 146.6 L194.1 146.9 L194.1 147.3 L194.0 148.1 L194.0 148.5 L194.0 148.6 L193.8 148.7 L193.6 148.9 L193.4 149.0 L193.3 149.1 L193.1 149.1 L192.6 148.9 L192.4 148.8 L192.3 148.8 L192.1 148.9 L191.9 148.9 L191.5 149.2 L191.4 149.3 L191.3 149.4 L191.2 149.6 L191.1 150.2 L191.0 150.3 L190.9 150.4 L190.8 150.5 L190.6 150.5 L190.5 150.4 L190.3 150.3 L190.2 150.3 L190.0 150.3 L189.8 150.4 L189.7 150.5 L189.3 150.5 L189.3 150.5 L189.1 150.6 L188.8 150.7 L188.7 150.9 L188.5 151.1 L188.4 151.2 L188.3 151.7 L188.2 151.8 L187.9 151.8 L187.9 151.8 L187.5 152.0 L187.4 152.1 L187.2 152.1 L187.1 152.1 L187.1 152.2 L186.9 152.7 L186.9 152.8 L186.7 152.9 L186.6 152.9 L186.4 153.3 L186.3 153.3 L186.2 152.9 L186.0 152.8 L184.7 153.1 L184.4 153.2 L184.2 153.4 L184.2 153.5 L183.9 153.7 L183.9 153.9 L183.8 154.0 L183.7 154.3 L183.6 154.7 L183.2 155.5 L183.1 155.5 L183.0 155.4 L182.6 155.3 L182.4 155.3 L182.2 155.3 L182.0 155.3 L181.4 155.6 L180.9 155.9 L180.8 156.0 L180.4 156.2 L179.7 156.5 L179.5 156.6 L179.2 156.6 L178.9 156.8 L178.8 156.9 L178.7 157.0 L178.4 157.2 L178.4 157.3 L178.3 157.5 L178.1 157.6 L177.4 157.9 L177.2 157.9 L176.7 158.0 L176.3 158.1 L176.2 158.1 L176.1 158.2 L175.8 158.5 L175.6 158.9 L175.4 158.9 L175.0 158.6 L174.7 158.6 L174.8 158.5 L174.8 158.5 L174.9 158.5 L175.0 158.4 L175.0 158.3 L174.9 158.2 L174.9 158.1 L174.8 158.1 L174.8 158.1 L174.5 157.8 L174.5 157.9 L174.4 157.9 L174.3 157.8 L174.2 157.8 L174.2 158.0 L174.1 158.0 L174.0 157.8 L173.8 157.7 L173.6 157.7 L173.4 157.8 L173.3 157.8 L173.4 157.7 L173.4 157.7 L173.3 157.5 L173.2 157.7 L173.2 157.8 L173.0 157.9 L173.0 157.7 L173.0 157.6 L172.8 157.7 L172.7 157.7 L172.7 157.8 L172.6 157.8 L172.6 157.6 L172.7 157.6 L172.8 157.5 L172.9 157.5 L173.0 157.5 L173.0 157.3 L173.1 157.2 L173.0 156.5 L173.0 156.4 L172.9 156.3 L172.8 156.2 L172.8 156.2 L173.0 156.2 L173.0 156.2 L172.9 156.0 L172.8 155.8 L172.5 155.5 L172.5 155.7 L172.6 155.8 L172.7 155.9 L172.8 156.0 L172.7 156.2 L172.7 156.4 L172.9 156.4 L173.0 156.5 L172.9 156.7 L172.8 156.9 L172.8 157.0 L172.9 157.1 L173.0 157.1 L173.0 157.2 L172.9 157.3 L172.8 157.2 L172.7 157.1 L172.7 157.0 L172.6 156.9 L172.6 156.8 L172.7 156.7 L172.7 156.6 L172.7 156.3 L172.6 156.3 L172.5 156.6 L172.5 156.9 L172.6 157.2 L172.8 157.4 L172.7 157.4 L172.6 157.5 L172.4 157.9 L172.3 158.0 L172.2 157.9 L172.3 157.8 L172.3 157.7 L172.3 157.6 L172.3 157.5 L172.2 157.4 L172.2 157.4 L172.1 157.3 L172.0 157.1 L172.0 156.9 L172.1 156.6 L171.5 156.1 L171.4 156.0 L171.3 156.1 L171.1 156.2 L170.9 156.2 L170.8 156.1 L170.7 156.0 L170.6 155.9 L170.5 155.8 L170.4 155.7 L170.3 155.6 L170.3 155.7 L170.2 155.7 L170.0 155.8 L170.0 155.8 L169.9 155.9 L170.0 156.0 L170.1 156.1 L170.2 156.1 L170.2 156.2 L170.3 156.5 L170.3 156.6 L170.2 156.7 L170.1 156.7 L170.1 156.8 L170.0 157.0 L170.0 157.1 L170.0 157.2 L169.9 157.4 L169.8 157.5 L169.4 157.6 L169.2 157.6 L169.1 157.4 L169.1 157.4 L169.1 157.5 L169.1 157.6 L169.2 157.7 L169.1 157.7 L169.0 157.8 L168.9 157.8 L168.8 158.0 L168.7 158.1 L168.6 158.2 L168.4 158.3 L168.4 158.1 L168.4 157.9 L168.3 157.8 L168.3 157.7 L168.3 158.1 L168.3 158.3 L168.5 158.3 L168.6 158.3 L168.8 158.2 L168.9 158.0 L169.0 157.9 L169.1 157.9 L169.1 158.0 L169.1 158.2 L169.2 158.3 L169.4 158.3 L169.5 158.2 L169.7 157.9 L169.8 157.9 L170.0 157.9 L170.1 158.1 L170.2 158.3 L170.3 158.4 L170.4 158.6 L170.5 158.7 L170.5 159.6 L170.5 159.9 L170.3 160.0 L170.1 160.0 L169.6 159.8 L168.5 159.8 L167.7 159.7 L167.3 159.7 L167.1 159.6 L166.9 159.5 L166.8 159.5 L166.6 159.5 L167.2 159.9 L169.8 160.8 L169.8 160.8 L170.0 161.0 L170.0 161.0 L170.1 161.0 L170.1 161.1 L170.2 161.1 L170.3 161.1 L170.4 161.1 L170.5 161.2 L170.6 161.2 L170.6 161.3 L170.6 161.6 L170.5 161.7 L169.9 162.3 L169.8 162.4 L169.6 162.4 L169.6 162.3 L169.6 162.2 L169.6 162.1 L169.6 162.0 L169.5 162.0 L169.5 162.2 L169.4 162.2 L169.3 162.4 L169.2 162.4 L169.2 162.5 L169.2 162.6 L169.3 162.7 L169.4 162.8 L169.3 162.8 L169.2 162.8 L169.1 162.9 L169.1 162.9 L169.0 163.0 L169.0 163.1 L169.0 163.2 L169.0 163.2 L168.6 163.1 L168.4 163.1 L168.2 163.0 L168.1 162.8 L167.9 162.7 L167.4 162.5 L167.1 162.3 L166.8 161.9 L165.9 160.6 L165.6 160.3 L165.2 160.1 L165.3 160.2 L165.3 160.2 L165.4 160.2 L165.7 160.5 L165.8 160.6 L165.9 161.0 L166.0 161.2 L167.0 162.5 L167.3 162.7 L168.1 163.1 L168.6 163.5 L169.2 163.8 L169.4 163.9 L169.5 164.0 L169.5 164.2 L169.3 164.4 L169.2 164.5 L169.2 164.5 L169.3 164.4 L169.3 164.3 L169.3 164.2 L169.2 164.1 L169.1 164.1 L169.1 164.5 L168.9 164.7 L168.6 164.8 L168.3 164.7 L168.1 164.5 L167.5 163.9 L167.2 163.7 L166.3 163.2 L163.7 160.5 L163.6 160.4 L163.5 160.4 L163.4 160.3 L163.4 160.4 L163.3 160.4 L163.4 160.5 L163.5 160.5 L163.6 160.6 L163.8 160.8 L163.9 161.0 L164.0 161.3 L164.1 161.5 L164.2 161.6 L164.4 161.8 L164.8 162.1 L165.1 162.3 L165.2 162.4 L165.3 162.5 L165.4 162.7 L165.4 162.8 L166.0 163.3 L166.0 163.3 L166.3 163.6 L167.2 164.3 L167.4 164.6 L167.6 165.0 L167.7 165.4 L167.8 165.5 L168.1 165.5 L168.2 165.6 L168.3 165.8 L168.3 166.0 L168.2 166.6 L168.1 166.9 L167.9 167.3 L167.6 167.5 L167.4 167.6 L167.3 167.7 L167.1 167.6 L167.0 167.6 L166.9 167.6 L166.8 167.7 L166.4 167.7 L166.2 167.6 L165.7 167.3 L164.8 166.8 L162.8 164.9 L161.8 163.7 L161.4 163.4 L161.1 163.1 L160.8 163.0 L160.4 162.8 L160.2 162.8 L160.5 163.1 L161.1 163.8 L162.9 165.5 L163.0 165.7 L163.0 165.9 L163.1 166.1 L164.2 167.7 L164.3 167.9 L164.3 168.0 L164.4 168.5 L164.3 168.6 L163.9 169.0 L164.0 169.1 L164.1 169.2 L164.2 169.2 L164.2 169.4 L164.2 169.5 L164.1 169.6 L163.8 169.7 L162.3 170.1 L160.8 170.7 L159.6 171.2 L157.3 172.1 L157.0 172.3 L156.6 172.8 L156.3 173.0 L156.2 173.1 L156.1 173.3 L156.1 173.3 L156.0 173.4 L155.9 173.4 L155.9 173.5 L155.9 173.6 L155.9 173.6 L155.1 175.1 L154.9 175.4 L154.7 175.7 L154.3 175.9 L153.9 176.0 L153.6 176.2 L153.2 176.5 L152.9 177.0 L152.7 177.3 L152.0 177.5 L150.1 178.0 L149.9 178.0 L149.8 177.9 L149.7 177.9 L149.7 177.8 L149.0 177.7 L148.8 177.6 L148.7 177.6 L148.7 177.5 L148.7 177.5 L148.9 177.5 L149.1 177.5 L149.6 177.1 L149.7 177.1 L149.8 177.0 L149.9 177.0 L149.9 176.9 L149.9 176.8 L149.8 176.7 L149.7 176.7 L149.9 176.6 L150.0 176.6 L150.7 176.7 L150.8 176.7 L151.0 176.6 L151.2 176.5 L151.2 176.4 L151.0 176.5 L150.6 176.6 L150.3 176.6 L150.1 176.5 L150.0 176.3 L150.1 176.3 L150.2 176.2 L150.4 176.2 L150.6 176.2 L150.7 176.2 L150.9 176.1 L150.9 176.0 L150.8 175.8 L150.7 175.6 L150.8 175.4 L150.1 175.7 L149.7 175.8 L149.4 175.7 L149.2 175.3 L149.4 174.9 L149.5 174.6 L149.6 174.1 L149.6 173.7 L149.6 172.9 L149.6 172.0 L149.7 171.4 L149.8 169.8 L149.8 169.2 L149.9 168.0 L149.9 167.6 L150.1 165.6 L150.3 165.1 L150.5 164.5 L151.0 164.5 L151.3 164.4 L151.4 164.2 L151.5 164.1 L152.2 163.6 L152.4 163.5 L152.5 163.6 L152.6 163.7 L152.8 164.4 L152.8 164.2 L152.7 163.8 L152.7 163.4 L152.7 163.2 L152.5 162.9 L152.1 162.3 L151.6 161.9 L151.4 161.8 L151.2 161.8 L150.8 161.9 L150.6 161.9 L150.2 161.7 L150.0 161.3 L149.8 161.0 L149.6 160.7 L149.2 160.5 L148.9 160.4 L148.5 160.5 L148.3 160.8 L148.2 160.9 L148.2 161.0 L148.2 161.0 L148.1 161.1 L148.0 161.1 L148.0 161.3 L147.9 161.4 L147.6 161.3 L147.5 161.4 L147.5 161.3 L147.5 161.2 L147.5 161.1 L147.5 161.0 L147.5 160.9 L147.4 160.8 L147.3 160.7 L147.3 160.4 L147.3 160.1 L147.2 160.0 L146.9 159.8 L146.8 159.8 L146.8 159.9 L146.8 159.9 L146.7 159.9 L146.7 159.6 L146.6 159.4 L146.4 159.1 L146.3 159.0 L146.4 159.0 L146.4 159.0 L146.5 158.9 L146.6 158.8 L146.7 158.7 L146.7 158.6 L146.6 158.5 L146.5 158.5 L146.4 158.6 L146.3 158.8 L146.2 158.8 L146.0 158.9 L145.9 158.9 L145.9 158.8 L145.9 158.6 L145.8 158.5 L146.0 158.5 L146.2 158.5 L146.3 158.4 L146.7 157.7 L146.8 157.6 L146.9 157.4 L147.0 157.3 L147.2 157.3 L147.7 157.3 L148.5 157.4 L148.7 157.4 L149.2 157.4 L149.7 157.4 L150.1 157.3 L150.3 157.0 L150.8 156.4 L150.9 156.2 L151.0 156.1 L152.1 155.6 L152.3 155.4 L152.3 155.0 L151.9 154.3 L151.8 153.9 L151.7 153.6 L151.8 153.4 L151.9 153.2 L152.0 153.2 L152.1 153.1 L152.2 153.0 L152.4 152.9 L152.5 152.9 L152.5 153.1 L152.6 153.2 L152.8 153.3 L153.8 153.5 L154.3 153.6 L154.4 153.7 L154.8 154.0 L155.0 154.0 L155.1 153.9 L155.4 153.3 L155.8 152.8 L155.9 152.7 L156.0 152.8 L156.3 152.8 L156.5 153.0 L156.6 153.0 L157.1 152.9 L158.1 152.6 L158.3 152.6 L158.5 152.5 L158.7 152.4 L158.7 152.4 L159.0 152.2 L159.3 152.1 L159.6 152.2 L159.7 152.4 L159.9 152.7 L160.3 153.2 L160.3 153.3 L160.5 153.7 L160.5 153.9 L160.7 154.0 L160.9 154.2 L161.1 154.1 L161.2 154.0 L161.3 153.8 L161.4 153.6 L161.4 153.4 L161.8 153.7 L161.9 153.8 L162.1 154.1 L162.3 154.2 L162.6 154.4 L162.9 154.5 L163.5 154.5 L163.8 154.6 L164.0 154.8 L163.8 153.8 L163.5 153.3 L163.4 153.1 L163.5 153.1 L163.5 152.8 L163.4 152.8 L163.5 152.7 L163.5 152.7 L163.7 152.6 L164.0 152.7 L164.1 152.7 L164.1 152.6 L164.0 152.4 L163.8 151.8 L163.7 151.6 L163.5 151.5 L163.4 151.4 L163.2 151.5 L163.1 151.7 L163.0 151.5 L162.8 151.4 L162.5 151.0 L162.3 150.9 L162.0 150.5 L161.9 150.3 L161.3 150.2 L161.1 150.0 L161.0 149.7 L161.0 149.7 L161.0 149.5 L160.8 149.4 L160.6 149.4 L160.5 149.3 L160.5 149.1 L160.7 148.3 L160.8 148.0 L160.8 147.8 L160.8 147.7 L160.6 147.1 L160.7 146.8 L160.7 146.7 L160.6 146.6 L160.5 146.5 L160.2 146.4 L160.1 146.4 L160.0 146.2 L159.9 146.1 L160.0 145.9 L160.1 145.8 L160.2 145.6 L160.3 145.6 L160.5 145.4 L160.7 145.4 L161.2 145.6 L161.5 145.6 L161.6 145.4 L161.7 145.2 L162.0 144.9 L162.0 144.8 L162.1 144.6 L162.1 144.5 L162.3 144.2 L162.8 144.3 L163.3 144.5 L163.8 144.5 L164.5 144.7 L164.7 144.8 L164.8 144.9 L164.9 145.1 L165.0 145.2 L165.2 145.2 L165.8 145.1 L165.9 145.1 L166.0 145.1 L166.1 145.1 L166.4 145.3 L166.5 145.4 L166.6 145.4 L166.7 145.2 L166.7 145.2 L166.6 145.0 L166.4 144.5 L166.3 144.3 L166.4 144.2 L166.5 144.0 L166.6 143.9 L166.6 143.8 L166.6 143.6 L166.6 143.5 L166.8 143.3 L166.8 143.2 L166.7 143.0 L166.4 142.4 L166.3 142.2 L166.3 142.1 L166.6 142.1 L166.7 142.0 L166.8 142.1 L166.9 142.1 L167.0 142.2 L167.0 142.3 L167.1 142.3 L167.5 142.1 L168.0 142.1 L168.9 142.2 L168.8 142.1 L169.3 142.2 L169.5 142.1 L169.8 141.8 L169.9 141.5 L170.1 141.2 L170.3 141.1 L170.5 141.1 L170.6 141.1 L171.4 141.1 L171.8 141.1 L172.2 140.9 L172.5 140.8 L173.2 140.1 L173.5 139.7 L173.8 139.5 L173.9 139.4 L174.0 139.2 L174.3 138.9 L174.9 138.6 L175.1 138.5 L175.6 138.4 L176.1 138.3 L176.3 138.5 L176.6 139.0 L176.8 139.1 L177.1 139.1 L177.4 138.6 L177.7 138.5 L178.0 138.4 L178.1 138.2 L178.2 137.9 L178.3 137.7 L178.6 136.8 L178.6 136.6 L178.6 136.6 L178.5 136.4 L178.5 136.3 L178.6 136.2 L178.6 136.1 L178.7 135.8 L178.7 135.4 L178.4 134.2 L178.4 133.9 L178.4 133.6 L178.3 133.4 L178.2 133.1 L177.9 132.7 L177.8 132.6 L177.8 132.5 L177.8 132.1 L177.6 131.9 L177.6 131.8 L177.6 131.7 L177.7 131.5 L177.7 131.5 L177.8 131.4 L177.8 131.4 L177.7 131.3 L177.6 131.2 L177.5 131.0 L178.6 128.5 L178.8 128.2 L179.1 127.4 L179.1 127.0 L179.1 126.0 L179.0 125.6 L178.1 124.0 L177.9 123.7 L177.7 123.4 L177.7 123.4 L177.6 123.2 L177.4 123.0 L177.3 122.8 L177.3 122.7 L177.4 122.5 L177.4 122.4 L177.3 122.1 L177.3 121.9 L177.4 121.8 L177.4 121.7 L177.4 121.5 L177.4 121.5 L177.2 121.2 L177.2 121.1 L177.2 121.0 L177.2 120.9 L177.2 120.8 L177.0 120.7 L176.6 120.8 L176.4 120.7 L176.3 120.5 L176.3 120.3 L176.4 120.1 L176.3 119.9 L176.2 119.7 L176.1 119.6 L176.1 119.5 L176.1 119.2 L176.5 118.2 L176.5 117.8 L176.5 117.7 L176.5 117.6 L176.4 117.4 L176.4 117.3 L176.4 117.1 L176.5 116.9 L176.7 116.6 L176.7 116.5 L176.7 116.4 L176.8 116.3 L176.9 116.2 L177.0 116.2 L177.1 116.2 L177.1 116.3 L177.2 116.3 L177.4 116.3 L177.5 116.1 L177.6 116.0 L177.7 115.7 L177.8 115.6 L177.8 115.5 L177.8 115.4 L178.0 115.1 L178.0 115.0 L178.0 114.9 L178.0 114.5 L178.0 114.4 L178.3 113.8 L178.3 113.6 L178.2 113.3 Z M141.9 159.0 L142.0 159.2 L142.0 160.3 L141.6 161.3 L141.4 161.9 L141.6 162.2 L141.5 162.4 L141.5 162.5 L141.6 162.6 L141.6 162.8 L141.4 162.7 L141.4 162.7 L141.2 162.6 L141.0 162.1 L140.9 161.2 L140.6 160.4 L140.4 160.1 L140.1 159.8 L139.7 159.6 L139.6 159.5 L139.5 159.1 L139.5 159.0 L139.5 158.9 L140.2 159.0 L140.4 159.0 L140.5 158.9 L140.5 158.9 L140.6 158.7 L140.6 158.7 L140.7 158.6 L140.8 158.5 L140.8 158.4 L140.8 158.3 L140.9 158.2 L141.0 158.1 L141.1 158.1 L141.3 158.3 L141.2 158.2 L141.9 159.0 Z" fill="#172033" fill-rule="evenodd"/></svg>
