<svg xmlns="http://www.w3.org/2000/svg" viewBox="0 0 320 200" role="img"><path d="M199.4 175.9 L198.8 175.7 L198.4 175.2 L197.8 174.0 L199.1 173.8 L199.7 173.8 L200.2 174.0 L200.8 174.8 L200.8 175.4 L200.3 175.9 L199.4 175.9 Z M194.2 173.2 L194.6 171.5 L195.1 171.1 L196.3 171.0 L195.9 171.7 L195.9 173.2 L195.6 173.9 L194.8 174.3 L194.1 174.3 L193.8 173.9 L194.2 173.2 Z M192.8 167.4 L192.2 167.5 L191.6 167.8 L191.0 168.0 L190.4 167.8 L189.9 167.4 L189.3 167.0 L188.7 166.9 L188.1 167.1 L187.0 166.3 L186.4 166.2 L185.7 166.5 L185.3 165.9 L183.8 165.1 L183.1 164.5 L182.5 164.1 L181.7 163.8 L181.3 163.5 L181.5 162.8 L180.9 162.3 L181.5 161.7 L182.6 161.2 L183.9 160.9 L184.5 160.5 L184.9 160.4 L186.9 160.4 L187.8 160.0 L189.5 158.3 L190.1 158.0 L190.3 157.7 L191.0 156.0 L191.4 155.8 L192.4 155.5 L193.2 156.5 L193.9 157.9 L194.8 160.7 L195.0 162.1 L195.8 162.9 L199.0 164.5 L199.3 164.9 L199.4 165.6 L199.0 166.1 L197.5 167.2 L192.8 167.4 Z M176.5 170.6 L176.9 170.5 L177.3 171.1 L177.5 171.8 L177.8 172.3 L176.8 173.3 L176.5 173.4 L175.9 173.6 L175.6 173.9 L175.4 174.3 L174.9 174.8 L174.6 175.2 L174.7 175.6 L174.7 175.9 L174.2 176.2 L173.4 176.2 L173.1 175.8 L173.0 175.3 L172.7 174.9 L172.2 174.8 L171.1 174.6 L170.8 174.5 L170.6 174.1 L169.9 174.1 L169.3 174.2 L168.9 174.2 L168.0 173.9 L167.0 174.2 L166.2 174.8 L165.6 175.3 L165.9 175.5 L166.0 175.7 L166.2 175.8 L166.6 175.9 L166.2 176.4 L165.6 176.6 L164.5 176.8 L163.5 177.7 L163.3 177.6 L163.0 177.4 L162.7 177.4 L162.6 178.0 L162.4 178.0 L162.0 177.5 L160.8 177.1 L160.2 176.1 L159.7 175.7 L159.1 175.0 L159.0 174.0 L159.3 174.0 L159.5 174.3 L159.8 174.6 L160.1 174.8 L160.5 174.9 L160.4 174.2 L160.2 173.3 L159.8 172.5 L158.7 171.1 L158.5 170.6 L158.4 169.9 L158.4 169.1 L158.4 168.9 L158.2 168.6 L157.9 168.4 L157.6 168.4 L157.5 168.3 L157.4 167.3 L157.4 164.6 L157.6 164.1 L157.2 161.9 L157.1 161.7 L157.2 160.9 L157.1 160.5 L156.9 160.4 L156.7 160.4 L156.6 160.3 L156.3 159.5 L154.8 157.1 L154.0 157.5 L153.8 157.7 L153.5 157.4 L152.8 158.2 L150.8 159.5 L149.7 158.6 L149.2 158.4 L148.7 158.6 L148.4 158.1 L148.3 157.7 L148.2 157.3 L148.1 156.8 L147.7 156.3 L147.3 156.0 L147.0 155.7 L146.9 155.1 L147.0 154.0 L148.4 151.6 L148.2 148.7 L148.2 148.1 L148.5 147.7 L148.5 147.4 L148.7 147.1 L149.1 147.0 L150.5 146.1 L155.4 148.0 L155.3 149.5 L158.0 152.8 L157.2 154.3 L157.7 154.5 L158.2 154.9 L158.4 155.3 L158.1 155.8 L158.5 156.2 L158.9 156.6 L159.3 156.9 L160.2 157.2 L160.8 157.8 L161.3 158.0 L161.4 157.8 L161.4 157.4 L161.1 156.6 L161.3 156.5 L161.7 157.0 L162.4 158.0 L162.3 158.4 L162.0 158.8 L162.0 159.2 L163.0 159.7 L163.3 159.8 L163.5 159.8 L163.7 159.6 L163.8 159.4 L164.0 159.3 L164.2 159.2 L164.3 159.7 L164.5 160.2 L164.7 160.7 L165.1 161.0 L165.6 161.4 L166.6 161.6 L167.2 161.9 L168.2 162.8 L168.7 163.6 L169.4 163.9 L170.6 163.5 L171.0 163.7 L171.1 163.7 L171.1 164.1 L170.8 164.7 L171.6 165.6 L173.6 167.1 L174.7 166.9 L175.3 167.9 L175.7 170.1 L174.8 171.5 L174.7 172.3 L175.4 172.8 L175.5 172.0 L175.7 171.4 L176.0 171.0 L176.5 170.6 Z M149.6 141.0 L148.7 140.9 L148.1 140.7 L146.9 139.8 L146.2 139.5 L145.0 139.2 L144.4 138.9 L143.7 137.6 L143.8 136.5 L144.7 135.6 L146.1 135.2 L149.2 135.6 L150.8 136.1 L151.0 136.9 L150.4 138.3 L150.8 139.5 L150.8 140.5 L149.6 141.0 Z M147.4 131.6 L148.3 131.2 L148.9 131.2 L149.0 131.4 L148.4 131.6 L148.4 131.9 L148.8 132.0 L149.0 132.2 L148.9 132.5 L148.7 132.8 L149.7 133.3 L149.7 134.1 L149.1 134.6 L148.1 134.3 L147.9 134.5 L147.8 134.6 L147.4 134.6 L146.8 134.5 L146.3 134.4 L145.3 133.7 L147.4 131.6 Z M193.0 130.6 L193.3 131.0 L193.6 131.2 L193.8 131.4 L193.9 132.0 L193.5 134.8 L193.6 135.5 L194.2 136.9 L194.2 138.3 L194.3 138.9 L195.4 141.7 L195.7 144.0 L195.9 144.6 L196.5 145.7 L196.6 146.4 L196.7 148.2 L196.6 149.7 L196.0 150.9 L194.8 151.6 L193.8 151.7 L193.3 151.3 L193.1 150.7 L192.9 148.9 L192.1 146.2 L191.6 142.8 L190.6 140.4 L190.2 138.8 L190.1 137.1 L190.3 135.2 L191.4 131.8 L191.6 128.2 L192.6 128.1 L192.9 130.2 L193.0 130.6 Z M182.1 125.1 L181.9 125.9 L181.6 126.5 L178.6 128.8 L177.6 129.2 L173.0 129.2 L172.0 128.9 L170.5 128.1 L170.3 127.6 L170.7 126.9 L176.1 121.9 L177.1 121.6 L177.8 121.4 L180.0 120.6 L183.7 120.0 L184.9 120.2 L184.9 120.6 L183.9 121.6 L183.3 122.2 L182.7 123.1 L182.3 124.1 L182.1 125.1 Z M145.9 106.1 L144.9 105.0 L144.7 104.6 L145.5 104.8 L146.7 105.6 L147.4 105.8 L147.1 106.2 L146.7 106.4 L146.3 106.3 L145.9 106.1 Z M189.0 106.8 L189.1 106.5 L189.2 106.3 L189.2 106.0 L188.9 105.6 L188.8 105.2 L188.9 104.7 L189.3 104.2 L189.7 104.0 L190.2 104.3 L190.7 105.1 L191.0 105.9 L191.1 106.5 L191.2 107.6 L191.8 110.0 L191.8 110.5 L191.7 111.4 L191.8 111.9 L192.3 113.3 L192.4 113.8 L192.4 115.4 L192.5 115.7 L193.1 116.4 L193.3 116.8 L193.1 119.9 L193.4 120.5 L193.3 121.3 L193.0 122.6 L192.9 123.9 L192.7 125.2 L192.1 125.0 L191.6 125.0 L190.6 125.2 L190.8 124.2 L190.8 123.1 L190.2 121.0 L190.5 119.4 L190.5 114.7 L190.1 113.7 L189.0 106.8 Z M146.7 131.4 L145.0 133.4 L144.6 133.7 L144.3 133.9 L143.9 134.0 L143.4 134.0 L142.8 133.9 L142.1 133.5 L141.7 133.4 L140.0 133.2 L138.1 133.2 L136.4 133.7 L135.3 134.6 L135.7 135.1 L135.4 135.1 L134.4 134.9 L133.9 135.3 L133.7 135.6 L133.5 136.0 L133.2 136.4 L132.3 136.9 L131.3 136.8 L130.4 136.3 L129.6 135.5 L130.1 134.7 L130.1 133.6 L129.7 132.6 L128.1 131.9 L127.5 131.3 L126.5 129.8 L126.0 128.4 L125.8 128.1 L124.6 127.0 L124.4 126.6 L124.3 126.0 L123.6 125.2 L123.5 124.8 L123.6 124.4 L124.0 123.5 L124.2 122.2 L124.8 120.3 L125.0 119.4 L124.9 117.4 L124.7 116.3 L123.6 114.9 L123.4 114.0 L123.2 112.1 L122.7 110.5 L122.8 109.8 L123.2 109.1 L122.4 108.9 L122.0 108.2 L121.7 107.4 L121.7 106.5 L121.5 105.8 L120.5 104.4 L120.1 103.6 L119.3 100.3 L119.4 99.5 L119.7 98.8 L119.9 97.8 L119.8 96.7 L119.5 96.1 L120.7 93.6 L120.7 92.5 L120.8 92.0 L122.2 91.6 L122.5 91.3 L122.7 91.1 L123.2 91.5 L123.4 91.9 L123.8 93.1 L123.9 93.3 L124.3 93.5 L124.5 94.0 L124.7 94.5 L124.7 95.0 L124.9 95.1 L125.9 96.4 L126.3 97.4 L126.6 98.0 L127.5 98.4 L129.3 99.7 L128.8 100.2 L129.0 101.2 L129.8 103.3 L130.3 105.4 L130.5 107.6 L130.4 108.1 L130.6 108.4 L130.9 108.6 L131.1 109.0 L131.7 114.4 L132.2 114.8 L133.3 114.8 L135.3 114.6 L136.5 114.7 L136.9 114.6 L137.2 114.3 L137.8 113.4 L138.1 113.0 L138.5 112.7 L138.8 112.3 L139.0 111.7 L139.2 106.8 L139.1 106.2 L138.9 105.5 L139.4 104.9 L140.2 104.5 L140.8 104.2 L144.1 104.6 L144.1 104.9 L143.3 105.0 L143.0 105.4 L142.9 105.9 L143.0 107.8 L142.8 108.2 L142.3 108.8 L143.0 108.9 L143.3 109.4 L143.5 110.9 L144.3 113.1 L144.4 114.0 L145.5 113.2 L146.0 113.1 L146.9 113.4 L146.6 114.2 L147.4 117.7 L147.2 118.5 L146.9 118.6 L146.7 118.8 L147.2 119.4 L147.4 119.5 L148.1 119.8 L148.4 120.0 L148.5 120.2 L149.0 121.2 L148.9 122.1 L148.7 122.8 L148.4 123.1 L148.1 122.4 L147.8 122.4 L148.1 123.9 L148.9 126.2 L149.9 128.2 L151.0 129.1 L151.3 129.3 L151.4 129.8 L151.3 130.3 L151.1 130.6 L150.8 130.9 L150.6 130.9 L150.2 130.7 L149.7 130.6 L148.1 130.6 L147.4 130.9 L146.7 131.4 Z M163.3 69.6 L163.7 69.8 L166.4 71.1 L166.8 71.4 L167.2 71.8 L166.9 74.1 L166.8 74.5 L166.5 74.8 L165.4 76.7 L164.7 77.3 L164.3 77.5 L163.8 77.6 L160.8 77.3 L160.2 77.6 L159.6 77.5 L159.0 77.3 L158.6 77.0 L158.2 76.9 L158.0 76.7 L158.2 76.1 L158.7 75.3 L158.4 72.8 L158.5 72.0 L158.8 71.7 L159.3 71.4 L160.3 70.6 L160.6 70.5 L161.0 70.6 L161.8 70.5 L162.2 70.4 L162.8 69.8 L163.3 69.6 Z M160.5 59.8 L160.5 58.9 L160.3 58.3 L159.9 57.9 L159.0 57.2 L158.0 55.7 L157.7 54.7 L157.8 53.6 L158.1 52.6 L158.7 51.9 L159.5 51.3 L161.5 50.5 L162.1 50.5 L162.8 50.9 L163.5 51.7 L164.8 54.1 L165.4 54.5 L164.8 55.2 L164.5 55.4 L164.8 56.0 L165.1 56.2 L165.5 56.4 L166.0 56.6 L166.2 56.7 L166.4 56.7 L166.5 56.7 L166.6 57.1 L166.5 57.2 L166.2 57.2 L165.9 57.2 L165.6 57.2 L164.9 57.7 L164.1 58.1 L163.2 58.3 L162.0 58.4 L162.2 58.6 L162.3 58.6 L162.3 58.8 L162.0 59.0 L162.6 60.1 L161.9 60.9 L161.0 60.9 L160.5 59.8 Z M171.6 46.6 L172.0 46.8 L172.2 47.5 L172.2 48.2 L172.0 48.7 L171.7 48.9 L170.9 49.2 L170.0 49.3 L169.3 49.3 L169.0 49.8 L168.6 49.8 L168.5 49.4 L170.1 47.3 L170.8 46.8 L171.6 46.6 Z M155.1 41.7 L155.4 42.3 L155.8 42.5 L156.4 42.4 L156.9 42.0 L156.8 43.2 L156.3 43.6 L155.4 43.7 L154.4 43.6 L154.0 42.9 L153.6 42.2 L153.6 41.5 L154.2 40.8 L155.3 40.5 L156.0 41.0 L156.0 41.5 L155.1 41.7 Z M121.7 29.6 L122.3 29.0 L123.3 28.7 L124.2 28.7 L124.7 29.3 L124.7 30.1 L124.1 30.7 L123.3 31.0 L122.6 30.8 L122.2 30.6 L122.0 30.3 L121.8 30.0 L121.7 29.6 Z M121.7 26.0 L121.4 26.1 L121.3 26.3 L121.4 26.5 L121.4 26.9 L121.3 27.1 L121.2 27.2 L121.0 27.3 L120.7 27.5 L120.0 27.1 L119.6 26.6 L119.5 26.0 L119.5 25.1 L119.8 23.8 L119.8 23.4 L119.7 23.0 L119.5 22.8 L119.3 22.5 L119.2 22.0 L120.7 22.4 L121.0 22.6 L121.3 23.1 L121.5 24.1 L121.7 24.5 L121.7 24.7 L121.4 25.0 L121.4 25.3 L121.4 25.6 L121.7 26.0 Z M126.0 39.3 L125.3 37.5 L126.0 37.2 L126.7 37.9 L126.0 39.3 Z" fill="#172033" fill-rule="evenodd"/></svg>
