<svg xmlns="http://www.w3.org/2000/svg" viewBox="0 0 320 200" role="img"><path d="M141.3 66.1 L142.1 68.3 L142.4 70.5 L142.6 75.2 L143.6 79.1 L145.4 81.5 L146.6 84.1 L145.5 88.6 L143.5 91.8 L141.1 94.3 L139.2 97.3 L138.4 102.0 L139.0 106.7 L138.9 108.9 L137.6 109.8 L132.8 109.7 L130.6 109.3 L128.5 108.3 L125.2 105.5 L123.6 103.5 L121.5 102.5 L117.3 102.8 L106.9 106.4 L75.2 109.8 L73.2 108.4 L71.1 105.6 L69.5 104.0 L66.2 102.3 L64.6 101.0 L63.9 99.2 L63.5 97.3 L61.5 93.2 L61.1 90.7 L60.1 88.3 L57.6 86.7 L54.8 85.6 L52.7 84.4 L48.3 77.7 L45.6 74.6 L40.3 72.6 L38.2 71.0 L35.1 68.2 L34.5 67.2 L34.2 65.0 L33.7 63.9 L32.5 63.3 L29.8 63.5 L28.7 63.2 L26.4 60.4 L23.3 55.7 L22.0 51.2 L25.3 49.2 L32.3 49.2 L39.9 52.1 L46.9 52.3 L51.5 51.6 L56.3 49.0 L58.7 48.4 L63.2 48.0 L65.8 47.4 L71.3 44.6 L73.7 43.8 L89.9 43.8 L94.1 43.2 L102.7 40.3 L107.5 39.5 L111.9 39.5 L116.4 40.3 L120.9 42.3 L125.0 45.8 L136.9 59.1 L137.1 59.9 L136.7 62.3 L136.9 63.2 L138.0 64.1 L140.5 65.1 L141.3 66.1 Z M272.0 139.3 L281.2 138.4 L291.5 143.4 L298.0 151.0 L295.8 157.4 L296.4 158.2 L297.4 160.3 L292.2 160.5 L277.6 159.1 L269.0 159.9 L264.9 159.5 L260.7 157.4 L257.3 159.2 L253.9 159.0 L247.4 157.4 L244.1 157.7 L235.3 160.3 L233.2 160.3 L231.4 159.7 L230.2 158.6 L229.7 156.9 L228.9 155.1 L226.9 154.3 L222.7 153.3 L219.1 151.4 L215.9 150.4 L212.5 150.1 L204.5 151.1 L200.8 151.0 L197.7 149.9 L194.7 147.7 L190.4 141.1 L188.3 138.7 L186.3 139.3 L184.9 139.3 L181.3 134.3 L178.9 132.9 L174.3 132.3 L170.1 130.4 L169.5 126.1 L171.2 121.4 L173.6 118.2 L189.7 112.5 L207.2 109.8 L216.6 110.2 L225.2 112.0 L254.4 123.3 L263.3 124.3 L267.7 125.9 L271.3 128.5 L273.4 132.3 L273.1 134.4 L271.7 135.6 L270.8 137.0 L272.0 139.3 Z" fill="#172033" fill-rule="evenodd"/></svg>
