<svg xmlns="http://www.w3.org/2000/svg" viewBox="0 0 320 200" role="img"><path d="M240.5 41.2 L240.5 42.1 L240.6 42.3 L240.7 42.4 L240.8 42.4 L240.9 42.3 L241.1 42.3 L241.2 42.4 L241.5 42.6 L241.6 42.7 L241.6 43.1 L241.3 44.2 L241.5 44.7 L241.7 44.7 L241.9 44.6 L242.1 44.5 L242.3 44.5 L242.5 44.6 L242.5 44.7 L242.6 44.9 L242.6 45.1 L243.0 45.2 L243.1 44.9 L243.2 44.4 L243.3 44.0 L243.6 44.2 L244.5 44.2 L244.8 44.5 L245.0 44.9 L245.1 45.1 L245.1 45.3 L245.1 45.5 L245.0 45.6 L245.0 45.8 L245.0 46.0 L245.1 46.2 L245.5 46.5 L245.7 46.6 L245.9 47.1 L246.1 47.3 L246.3 47.4 L246.5 47.5 L247.0 47.7 L247.1 47.9 L247.4 48.5 L247.5 48.9 L247.4 49.3 L246.9 50.0 L246.6 50.7 L246.5 51.1 L246.5 51.5 L246.7 51.8 L248.0 52.4 L248.4 52.7 L248.6 52.9 L248.9 53.2 L249.3 53.3 L249.6 53.7 L249.9 53.9 L250.1 54.2 L250.2 54.7 L250.1 55.6 L250.1 55.9 L250.6 56.9 L250.7 57.1 L251.1 57.5 L251.2 57.6 L251.6 58.3 L251.8 58.6 L252.2 58.7 L252.2 59.1 L252.3 59.4 L252.4 59.5 L252.4 59.6 L252.4 59.6 L252.1 60.0 L251.9 60.2 L251.2 60.7 L251.0 60.8 L250.8 60.9 L250.1 61.8 L249.8 62.4 L249.6 62.7 L249.3 62.9 L249.1 62.9 L248.8 63.2 L248.6 63.3 L248.3 63.3 L247.8 63.2 L247.6 63.2 L247.4 63.3 L247.0 63.4 L246.8 63.5 L246.6 63.6 L246.3 64.1 L246.0 64.2 L245.8 64.2 L245.7 64.2 L245.5 64.2 L245.4 64.5 L245.4 64.7 L245.5 64.8 L245.7 64.8 L245.9 64.8 L246.1 65.0 L246.3 65.5 L246.3 65.9 L246.4 66.4 L246.5 66.9 L246.7 67.3 L247.0 67.7 L247.4 68.1 L247.9 68.9 L247.8 69.4 L247.5 69.8 L246.4 71.5 L246.4 71.6 L246.5 71.8 L246.4 71.9 L246.4 72.0 L246.1 72.1 L246.0 72.2 L246.0 72.4 L246.0 72.6 L246.0 72.8 L245.9 73.0 L245.5 72.7 L245.4 72.9 L245.4 74.3 L245.4 74.4 L245.3 74.7 L245.1 75.2 L245.1 75.4 L245.4 75.5 L245.7 75.5 L245.9 75.4 L246.2 75.5 L246.4 75.7 L246.5 76.0 L246.7 78.5 L246.6 79.1 L246.4 79.7 L246.4 80.0 L246.6 80.3 L246.7 80.5 L246.6 80.8 L246.5 81.0 L246.4 81.8 L245.7 83.3 L245.7 83.8 L245.7 84.3 L245.8 84.6 L246.3 85.0 L246.5 85.2 L246.7 85.7 L246.9 86.8 L247.2 87.3 L247.8 87.5 L249.0 87.1 L249.6 87.4 L249.8 87.4 L250.0 87.4 L250.0 87.7 L249.9 88.0 L249.8 88.0 L249.4 88.3 L249.3 88.5 L249.1 88.6 L249.0 88.7 L249.0 89.1 L248.8 89.3 L248.4 89.5 L248.2 89.6 L247.9 90.0 L247.6 90.3 L247.3 90.5 L246.9 90.6 L246.8 90.6 L246.6 90.5 L246.5 90.4 L246.3 90.4 L245.9 90.5 L245.7 90.5 L245.6 90.7 L245.3 91.3 L245.1 91.4 L244.9 91.5 L244.8 91.5 L244.8 91.6 L244.7 91.6 L244.6 91.7 L244.5 91.8 L244.5 91.9 L244.3 91.9 L244.2 91.8 L244.0 91.5 L243.9 91.4 L243.8 91.3 L243.7 91.4 L243.4 91.4 L243.3 91.5 L243.1 91.6 L243.0 91.7 L242.9 91.6 L242.8 91.4 L242.7 91.4 L242.6 91.3 L242.5 91.4 L242.3 91.6 L242.1 91.8 L241.6 92.7 L241.1 93.6 L240.8 94.0 L240.8 94.3 L240.9 95.4 L241.0 95.6 L241.4 95.9 L241.8 96.2 L241.9 96.6 L241.9 97.1 L241.4 98.0 L241.2 99.8 L241.2 100.0 L241.3 100.3 L241.4 100.6 L241.6 100.9 L241.7 101.1 L241.6 101.3 L241.1 101.5 L240.7 102.0 L240.4 102.6 L240.2 103.5 L240.0 104.3 L239.7 104.9 L239.3 105.2 L239.0 105.2 L238.9 105.4 L238.8 105.6 L238.8 105.9 L238.8 106.3 L238.6 106.4 L238.0 106.5 L237.8 106.6 L237.3 107.0 L237.1 107.0 L236.8 106.9 L236.6 106.9 L236.5 107.0 L236.4 107.3 L236.6 107.8 L237.1 108.0 L237.7 108.0 L238.1 108.1 L238.7 109.0 L238.8 109.2 L238.6 109.3 L238.1 109.6 L237.9 109.8 L238.0 110.2 L238.4 110.4 L239.0 110.5 L239.5 110.7 L239.7 110.9 L240.5 111.8 L240.6 112.1 L240.6 112.3 L240.7 112.6 L240.8 112.7 L241.1 112.6 L241.3 112.7 L241.3 112.8 L241.4 112.9 L241.3 113.0 L241.3 113.8 L241.3 114.1 L241.7 114.5 L242.0 114.4 L242.5 113.7 L242.7 113.4 L242.9 113.3 L243.5 113.2 L243.6 113.0 L243.8 112.6 L243.9 112.5 L244.2 112.7 L244.7 113.6 L244.9 113.9 L243.8 114.3 L242.4 114.8 L240.4 115.4 L237.7 116.3 L235.0 117.2 L232.6 118.0 L231.0 118.6 L229.5 119.1 L228.2 119.3 L227.6 119.5 L226.4 120.0 L224.9 120.5 L222.8 121.2 L220.5 121.9 L219.4 122.5 L218.0 123.2 L216.6 123.7 L215.0 124.1 L212.9 124.6 L211.3 125.0 L211.0 125.0 L208.8 125.5 L207.2 125.9 L205.0 126.6 L203.7 127.1 L202.0 127.7 L200.5 128.4 L199.4 129.0 L198.0 129.2 L197.7 129.2 L197.7 129.2 L197.7 129.3 L197.8 129.8 L197.8 130.5 L197.9 131.2 L198.5 133.2 L198.9 133.9 L199.4 134.2 L199.6 134.3 L199.8 134.5 L200.0 134.8 L200.1 135.1 L200.2 135.4 L200.2 136.5 L200.2 136.6 L200.5 137.0 L200.5 137.1 L200.5 137.3 L200.2 137.8 L200.1 138.2 L200.1 138.4 L200.6 138.8 L200.7 139.0 L200.8 139.4 L200.8 139.5 L200.6 139.6 L200.0 139.8 L199.5 139.8 L199.0 139.6 L198.8 139.5 L198.4 139.4 L198.2 139.5 L198.0 139.7 L197.9 139.8 L197.6 139.8 L197.4 139.8 L197.0 139.5 L196.4 139.4 L195.7 139.5 L195.1 139.6 L194.5 139.7 L193.8 139.6 L192.5 139.3 L191.8 139.2 L191.4 139.3 L190.7 139.6 L190.1 139.7 L189.2 140.0 L188.8 140.0 L188.5 140.0 L188.1 139.9 L187.8 139.9 L187.4 140.0 L186.8 140.5 L186.6 140.6 L185.2 140.7 L185.0 140.8 L181.5 142.4 L180.9 142.9 L180.8 143.0 L180.5 143.1 L180.1 143.3 L179.9 143.5 L179.7 143.7 L179.4 144.3 L179.2 144.5 L178.8 144.5 L178.1 144.5 L177.8 144.6 L177.7 144.6 L177.5 144.7 L176.9 145.2 L176.6 145.7 L176.5 145.8 L176.3 146.1 L176.3 146.3 L176.3 146.4 L176.4 146.5 L176.5 146.6 L176.5 146.7 L176.4 147.2 L176.2 147.9 L176.1 148.5 L176.4 149.0 L176.0 149.8 L176.0 150.2 L176.0 150.4 L176.3 151.1 L176.3 151.4 L175.9 152.0 L175.8 152.2 L175.7 152.7 L175.5 153.0 L174.9 153.5 L174.8 153.7 L174.4 154.0 L174.3 154.1 L174.1 154.2 L173.6 154.2 L172.9 154.3 L167.2 156.5 L166.1 157.1 L164.5 158.4 L163.1 159.0 L160.7 160.0 L159.8 160.5 L159.2 161.1 L157.1 164.2 L156.8 164.8 L156.5 166.1 L156.1 166.8 L155.2 167.7 L153.6 169.1 L149.4 173.3 L149.3 173.5 L149.2 173.7 L149.2 174.0 L149.3 174.4 L148.8 175.0 L148.2 175.6 L147.7 176.0 L147.3 176.3 L147.0 176.3 L146.3 176.3 L146.1 176.4 L145.5 176.8 L145.2 176.7 L143.7 177.3 L143.3 177.4 L143.0 177.4 L142.8 177.5 L142.4 177.9 L142.2 178.0 L142.0 178.0 L141.1 177.7 L140.8 177.6 L140.6 177.4 L140.4 177.1 L140.1 177.0 L139.9 176.9 L139.5 176.8 L138.8 176.6 L137.6 175.9 L136.9 175.8 L136.3 175.9 L136.2 175.9 L136.1 175.8 L135.9 175.7 L135.8 175.6 L135.1 175.5 L134.9 175.5 L134.8 175.4 L134.7 175.2 L134.6 175.1 L134.5 175.1 L134.3 175.1 L133.8 175.5 L133.6 175.6 L133.3 175.7 L133.0 175.8 L132.7 175.9 L132.6 175.9 L132.6 176.0 L132.7 176.2 L132.6 176.3 L132.4 176.3 L132.1 176.3 L131.9 176.4 L131.8 176.6 L131.7 176.5 L130.8 176.9 L130.6 176.9 L129.9 176.9 L129.0 176.5 L128.8 176.3 L128.7 176.0 L128.7 175.8 L129.0 175.7 L128.8 175.4 L128.0 175.1 L127.9 174.9 L127.8 174.7 L127.4 174.5 L127.1 174.4 L126.5 174.2 L126.3 174.1 L126.1 173.9 L125.7 174.0 L124.9 174.3 L123.8 174.5 L123.7 174.6 L123.6 174.7 L123.5 174.7 L123.4 174.7 L123.3 174.6 L123.2 174.6 L122.0 174.6 L121.8 174.6 L121.3 174.4 L120.8 174.4 L120.6 174.4 L120.3 174.3 L119.8 173.9 L119.6 173.8 L119.4 173.7 L119.3 173.5 L119.2 173.3 L119.0 173.2 L118.7 173.1 L118.5 173.1 L118.4 173.0 L118.1 172.8 L118.1 172.7 L117.9 172.6 L117.8 172.6 L117.8 172.5 L117.8 172.3 L117.8 172.2 L117.5 171.9 L117.4 172.0 L117.3 172.1 L117.2 172.0 L117.2 171.9 L117.0 171.8 L116.9 171.8 L116.9 171.7 L116.7 171.3 L116.7 171.2 L116.4 171.0 L116.4 170.9 L116.2 170.9 L116.1 170.9 L116.0 170.8 L115.9 170.7 L115.9 170.6 L116.0 170.3 L115.9 170.3 L115.8 170.3 L115.5 170.4 L115.3 170.4 L115.1 170.2 L114.9 170.0 L114.9 170.0 L114.7 169.8 L114.4 170.0 L114.2 169.7 L113.7 169.5 L112.6 169.3 L112.1 169.3 L112.0 169.3 L111.9 169.2 L111.8 169.1 L111.7 169.1 L110.4 168.9 L109.6 168.9 L109.5 168.9 L109.4 169.0 L109.3 169.2 L109.1 169.2 L108.9 169.5 L108.7 169.5 L108.6 169.5 L108.4 169.5 L108.2 169.4 L108.0 169.3 L107.9 169.2 L107.8 169.1 L107.4 169.1 L107.1 168.9 L106.6 168.8 L106.0 168.6 L105.7 168.6 L105.4 168.6 L104.7 168.8 L104.6 168.8 L104.4 168.7 L103.6 168.7 L103.3 168.7 L103.0 168.7 L102.6 168.8 L101.9 168.9 L101.2 169.0 L100.5 169.2 L99.9 169.3 L99.2 169.4 L98.5 169.6 L97.8 169.7 L97.1 169.8 L96.5 170.0 L95.8 170.1 L95.1 170.2 L94.4 170.4 L93.8 170.5 L93.1 170.6 L92.4 170.8 L91.7 170.9 L91.3 171.0 L91.0 171.0 L90.4 171.1 L89.8 171.2 L89.7 171.0 L89.7 170.8 L89.8 170.6 L89.4 170.3 L89.1 170.0 L88.8 169.7 L88.6 169.6 L88.3 169.6 L87.8 169.5 L87.6 169.6 L87.3 169.6 L87.0 169.7 L86.7 169.6 L86.6 169.4 L86.5 169.2 L86.6 168.9 L86.5 168.7 L86.4 168.5 L85.7 168.2 L85.3 167.9 L84.9 167.5 L84.6 167.0 L84.5 166.6 L84.4 166.4 L83.7 165.7 L83.5 165.6 L82.7 165.4 L81.8 165.0 L81.4 164.8 L80.7 164.2 L80.2 164.0 L80.0 163.8 L79.9 163.6 L79.7 162.8 L79.5 162.4 L79.2 162.0 L78.5 161.2 L78.2 161.1 L77.3 160.7 L77.1 160.7 L77.0 160.7 L76.9 160.5 L76.9 160.2 L76.9 160.1 L76.7 159.9 L76.2 159.8 L76.0 159.6 L75.8 159.4 L75.7 159.0 L74.5 157.2 L74.4 157.1 L74.3 157.0 L74.0 157.0 L73.9 156.9 L73.8 156.8 L73.7 156.6 L73.5 156.3 L73.4 156.1 L73.2 156.0 L72.8 155.9 L72.7 155.8 L72.6 155.7 L72.5 155.7 L72.5 155.7 L72.4 155.8 L72.3 155.8 L72.0 155.9 L71.9 155.9 L71.7 155.8 L70.3 154.8 L70.2 154.5 L70.2 154.3 L70.1 154.0 L70.0 153.9 L69.7 153.9 L69.6 153.8 L69.6 153.6 L69.6 153.4 L69.6 153.2 L69.3 152.7 L69.2 152.5 L69.2 152.3 L69.3 152.0 L69.4 151.7 L69.6 151.5 L69.6 151.3 L69.4 151.2 L68.8 151.1 L68.8 151.0 L68.8 150.6 L68.8 150.5 L68.7 150.4 L68.5 150.2 L68.5 150.2 L68.4 149.9 L68.4 149.7 L68.3 149.5 L68.1 149.3 L68.3 149.3 L68.7 149.3 L68.1 148.4 L67.7 147.9 L67.7 147.6 L67.7 147.3 L67.7 146.4 L67.7 145.4 L67.6 145.3 L67.6 144.6 L67.6 143.0 L67.7 141.4 L67.7 139.8 L67.7 138.2 L67.7 137.5 L67.7 137.0 L67.7 136.7 L67.7 136.0 L67.7 133.7 L67.7 131.3 L67.7 128.9 L67.7 126.5 L67.6 124.1 L67.6 121.7 L67.6 119.4 L67.6 117.0 L67.6 114.6 L67.6 112.2 L67.6 109.8 L67.6 108.9 L67.6 107.5 L67.6 105.1 L67.6 102.7 L67.6 100.3 L67.6 97.9 L69.6 97.9 L71.6 97.9 L73.5 97.9 L75.5 97.9 L77.4 97.9 L79.4 97.9 L81.4 97.9 L83.3 97.9 L85.3 97.9 L87.3 97.9 L89.2 97.9 L91.2 97.9 L93.2 97.9 L95.1 97.9 L97.1 97.9 L99.0 97.9 L99.6 97.9 L99.4 97.4 L99.1 96.9 L98.7 96.4 L97.9 95.5 L97.6 95.1 L97.4 94.6 L97.5 94.0 L97.8 93.3 L98.1 92.1 L98.4 91.0 L98.6 90.5 L99.3 89.5 L99.9 88.7 L100.0 88.5 L100.0 88.2 L99.9 87.5 L99.8 86.5 L99.6 86.1 L99.2 85.7 L98.9 85.2 L98.8 84.5 L98.9 82.3 L99.0 80.3 L99.4 79.5 L99.4 79.3 L99.3 79.0 L99.2 77.8 L99.1 77.4 L98.9 77.1 L98.8 76.8 L98.8 76.4 L98.9 76.1 L99.2 75.4 L99.6 74.8 L99.7 74.6 L99.7 74.3 L99.7 74.0 L99.7 73.8 L99.7 73.6 L99.9 73.3 L100.4 73.0 L100.5 72.8 L100.5 72.6 L99.8 71.0 L99.7 70.6 L99.8 68.4 L99.5 68.3 L99.4 68.1 L99.5 67.5 L99.4 66.6 L99.5 66.4 L99.6 66.0 L99.5 65.8 L99.2 65.4 L99.1 65.1 L99.0 64.3 L99.6 64.3 L100.3 64.5 L101.0 64.7 L101.3 65.0 L101.3 65.2 L101.3 65.5 L101.2 65.6 L101.3 65.8 L101.4 66.1 L101.4 66.3 L101.4 66.8 L101.5 67.0 L101.8 67.0 L102.1 66.9 L102.4 66.9 L103.0 67.0 L103.3 67.1 L103.9 67.1 L104.2 67.1 L104.5 67.3 L105.0 67.6 L105.4 67.9 L105.6 68.2 L105.5 68.4 L105.4 68.6 L105.3 68.7 L105.3 68.9 L105.3 69.1 L105.6 69.3 L105.7 69.5 L105.8 69.8 L105.8 70.1 L105.8 70.4 L105.7 70.7 L105.6 71.0 L105.1 71.8 L104.9 72.0 L104.3 72.2 L104.1 72.3 L104.2 72.6 L104.4 72.7 L105.1 72.8 L105.4 72.8 L105.7 73.0 L106.3 73.5 L106.6 73.6 L107.0 73.7 L107.3 73.6 L108.0 73.4 L108.1 73.4 L108.3 73.4 L108.5 73.3 L108.6 73.2 L108.6 73.0 L108.7 72.9 L108.8 72.8 L108.9 72.6 L109.1 72.6 L109.4 72.5 L109.6 72.4 L109.7 72.3 L110.0 71.9 L110.2 71.7 L110.8 71.5 L112.0 71.5 L112.6 71.3 L113.8 70.8 L114.4 70.6 L115.0 70.6 L117.3 70.4 L118.2 70.2 L119.7 69.5 L120.2 69.4 L120.4 69.6 L120.5 69.9 L120.4 70.3 L120.5 70.7 L120.5 70.8 L120.4 70.9 L120.0 71.0 L119.8 71.2 L119.9 71.3 L120.1 71.5 L120.2 71.6 L120.0 71.9 L119.9 72.0 L119.7 72.2 L119.7 72.6 L119.9 72.9 L120.2 73.5 L120.3 73.8 L120.3 73.9 L120.1 74.2 L120.0 74.3 L120.0 74.5 L120.1 74.8 L120.5 76.1 L120.7 76.3 L120.8 76.5 L120.9 76.5 L121.0 76.6 L121.2 76.5 L121.4 76.6 L121.5 76.7 L121.6 76.8 L121.8 77.0 L122.7 77.4 L122.9 77.6 L123.0 77.7 L123.0 77.8 L123.0 77.9 L122.8 78.3 L122.9 78.5 L123.2 78.6 L123.5 78.6 L123.6 78.5 L123.7 78.4 L123.8 78.3 L124.0 78.3 L124.2 78.2 L124.3 78.1 L124.3 77.9 L124.4 77.8 L125.2 77.8 L125.7 78.2 L126.2 78.6 L126.8 79.0 L127.1 79.0 L128.0 79.0 L128.2 79.0 L128.5 78.9 L128.6 78.8 L128.8 78.9 L128.9 78.9 L128.9 79.0 L129.8 79.7 L130.1 79.8 L130.3 80.0 L130.6 80.5 L130.8 80.6 L131.0 80.6 L133.8 80.6 L134.1 80.7 L134.4 80.9 L134.8 81.1 L135.3 81.0 L135.7 81.2 L135.8 81.2 L136.0 81.1 L136.3 80.9 L136.5 80.8 L137.1 80.7 L137.7 80.7 L138.1 80.8 L138.3 81.0 L138.6 81.3 L138.9 81.5 L139.4 81.7 L140.7 81.8 L141.3 81.9 L141.6 82.1 L141.9 82.3 L142.1 82.4 L142.5 82.3 L142.7 82.1 L142.9 81.8 L143.1 81.6 L143.5 81.6 L144.3 81.7 L144.9 81.6 L145.6 81.2 L146.1 80.7 L146.4 80.1 L146.5 78.8 L146.6 78.2 L146.9 77.8 L147.1 77.6 L147.3 77.4 L147.3 76.9 L147.1 76.3 L147.1 76.0 L147.3 75.7 L147.4 75.7 L147.8 75.8 L148.0 75.8 L148.5 75.6 L149.2 75.5 L149.7 75.3 L149.8 75.3 L150.0 75.7 L150.2 76.4 L150.3 77.2 L150.3 77.7 L150.6 79.1 L153.6 80.9 L154.3 82.1 L154.4 82.8 L155.2 85.0 L155.4 85.3 L156.3 86.0 L156.3 86.0 L157.0 86.8 L157.5 86.9 L158.2 87.0 L158.9 86.9 L159.4 86.8 L159.7 86.6 L159.9 86.4 L160.1 86.2 L160.5 86.3 L160.8 86.4 L161.7 86.9 L161.9 87.2 L162.0 87.6 L162.1 87.9 L162.4 88.0 L162.7 88.0 L163.0 88.0 L164.1 88.1 L164.3 88.2 L164.3 88.3 L164.4 88.5 L164.4 88.6 L164.8 88.9 L165.0 88.8 L165.3 88.6 L165.7 88.5 L166.0 88.6 L166.2 88.8 L166.5 89.0 L166.9 89.0 L167.2 89.0 L167.5 89.0 L167.8 89.1 L168.1 89.2 L169.4 90.4 L169.6 90.7 L169.9 91.5 L170.1 91.8 L170.7 92.4 L170.8 92.7 L170.8 93.1 L170.6 93.4 L170.4 93.5 L170.2 93.8 L170.3 94.2 L170.7 94.6 L171.0 94.9 L171.3 95.3 L171.3 96.1 L171.5 96.3 L171.7 96.3 L172.0 96.2 L172.1 96.0 L172.3 95.5 L172.5 95.4 L173.3 95.5 L173.9 96.2 L175.0 97.5 L175.3 97.8 L175.4 98.0 L175.5 98.5 L175.6 98.6 L175.8 98.7 L175.9 98.7 L175.8 98.8 L175.8 99.0 L175.8 99.1 L175.8 99.1 L175.8 99.3 L175.8 99.4 L175.8 99.5 L175.9 99.5 L176.0 99.5 L176.1 99.5 L176.2 100.1 L176.4 100.2 L176.7 100.2 L176.8 100.2 L177.0 100.5 L177.5 102.8 L177.7 103.5 L178.2 103.9 L178.4 104.2 L178.7 104.2 L179.0 104.2 L179.3 104.1 L179.6 104.1 L179.7 104.1 L180.1 104.0 L180.5 104.0 L180.8 104.2 L181.0 104.3 L181.1 104.6 L181.2 104.8 L181.4 104.8 L181.6 104.7 L181.9 104.4 L182.1 104.3 L182.5 104.1 L183.4 103.5 L185.6 102.7 L186.0 102.5 L186.9 101.6 L187.2 101.5 L187.6 101.5 L187.9 101.6 L188.2 101.9 L188.5 102.1 L188.7 102.1 L188.8 102.0 L188.9 102.0 L189.1 102.2 L189.1 102.4 L189.1 102.5 L189.0 102.7 L188.9 102.8 L188.8 102.9 L188.5 103.0 L188.4 103.1 L188.4 103.2 L188.4 103.5 L188.4 103.7 L188.3 103.7 L188.2 103.7 L188.0 103.8 L188.0 104.1 L188.1 104.2 L188.2 104.4 L188.3 104.6 L188.4 104.7 L188.7 104.8 L189.0 105.0 L189.6 105.1 L190.6 105.2 L190.9 105.1 L191.1 104.6 L191.1 102.9 L191.1 100.5 L191.1 98.3 L191.1 95.9 L191.1 93.2 L191.2 90.8 L191.2 88.2 L191.2 86.3 L191.2 84.6 L191.2 84.6 L191.2 84.6 L191.2 84.6 L190.5 84.6 L190.1 84.7 L189.6 85.1 L188.8 85.5 L188.5 85.5 L188.3 85.4 L188.1 85.2 L187.9 85.1 L187.6 85.1 L187.5 85.2 L187.3 85.4 L187.0 85.5 L186.3 85.8 L186.0 86.0 L185.9 86.2 L185.7 86.8 L185.7 87.1 L185.6 87.3 L185.6 87.4 L185.6 87.5 L186.1 88.1 L186.4 88.2 L186.6 88.2 L186.8 88.3 L186.9 88.6 L186.8 88.9 L186.7 89.1 L186.4 89.3 L186.1 89.3 L186.0 89.3 L185.9 89.2 L185.9 89.1 L185.8 89.1 L185.7 89.1 L185.5 89.1 L185.4 89.1 L184.9 88.9 L184.3 88.6 L184.2 88.6 L183.5 88.5 L183.3 88.5 L183.2 88.5 L183.0 88.3 L182.7 88.0 L182.6 87.9 L181.3 87.9 L180.9 88.0 L180.6 88.2 L180.3 88.3 L180.1 88.0 L179.9 88.1 L179.6 88.2 L179.4 88.2 L179.2 88.1 L179.1 88.1 L179.0 88.1 L179.0 87.9 L178.9 87.7 L177.7 85.4 L177.2 84.9 L176.3 84.4 L176.2 84.2 L176.1 83.9 L175.9 83.6 L175.7 83.3 L175.5 83.1 L175.0 82.8 L174.7 82.7 L174.6 82.4 L174.6 82.0 L174.5 81.9 L173.9 82.0 L173.6 81.9 L172.8 81.5 L172.6 81.3 L172.3 80.7 L172.1 80.6 L171.7 80.8 L171.7 80.6 L171.5 80.3 L171.4 80.2 L171.3 80.1 L171.1 80.0 L171.0 80.0 L170.8 80.1 L170.6 79.9 L170.5 79.1 L170.3 78.9 L170.0 78.9 L169.9 78.7 L169.7 77.6 L169.7 77.4 L169.4 77.2 L169.3 77.0 L169.4 77.0 L169.4 76.8 L169.1 75.9 L169.0 75.7 L168.8 75.5 L168.7 75.3 L168.5 74.9 L168.4 74.8 L168.4 74.5 L168.3 73.7 L168.4 73.4 L169.2 72.2 L169.2 72.1 L169.6 71.9 L169.7 71.8 L169.6 71.2 L169.6 70.9 L169.8 70.7 L169.9 70.5 L170.2 69.9 L170.2 69.4 L170.2 69.2 L170.3 69.1 L170.4 68.9 L170.4 68.7 L170.4 68.6 L170.3 67.7 L170.3 67.6 L170.5 67.3 L170.7 66.9 L170.8 66.7 L170.8 66.5 L170.7 66.2 L170.8 66.0 L170.8 65.9 L171.1 65.6 L171.2 65.4 L171.2 65.3 L171.4 65.0 L171.4 64.8 L171.4 64.1 L171.5 63.7 L171.6 63.4 L171.8 63.0 L172.1 62.7 L172.2 62.6 L172.3 62.2 L172.6 61.9 L172.6 61.8 L172.7 61.7 L172.9 61.7 L173.0 61.7 L173.3 61.5 L173.5 61.3 L173.7 61.0 L173.8 60.7 L173.7 60.6 L173.3 60.3 L173.2 60.1 L173.3 60.0 L173.4 59.6 L173.4 59.4 L173.0 59.0 L172.8 58.7 L172.8 58.5 L172.8 58.4 L172.7 58.1 L172.8 58.0 L172.9 57.8 L172.9 57.7 L172.9 57.5 L172.9 57.3 L172.8 57.0 L172.7 56.7 L172.5 56.4 L172.5 56.0 L172.5 55.7 L172.6 55.4 L172.7 55.2 L172.6 54.9 L172.6 54.9 L172.4 54.8 L172.4 54.8 L172.3 54.7 L172.3 54.5 L172.3 54.5 L171.7 54.0 L171.9 53.7 L172.3 53.3 L172.5 52.8 L172.7 52.2 L172.7 50.9 L172.6 49.8 L172.7 49.4 L173.1 48.4 L173.3 47.7 L173.4 47.4 L173.7 47.3 L173.8 47.2 L173.4 46.8 L173.3 46.6 L173.2 46.5 L173.1 46.5 L172.9 46.3 L172.7 46.0 L172.6 45.7 L172.6 45.0 L172.6 44.8 L172.4 44.5 L172.4 44.3 L172.3 44.1 L172.0 43.8 L172.0 43.6 L172.0 43.5 L172.4 43.4 L172.5 43.3 L172.0 43.3 L171.8 43.2 L171.7 43.0 L171.7 42.8 L171.7 42.6 L171.6 42.4 L171.5 42.2 L171.1 41.9 L170.9 41.8 L170.9 41.5 L170.9 41.3 L170.9 41.0 L170.9 40.7 L170.6 40.3 L170.0 40.0 L169.2 39.9 L168.6 39.6 L168.3 39.0 L168.6 38.4 L169.3 38.0 L170.7 37.3 L172.2 36.3 L174.8 33.7 L176.8 31.0 L177.4 29.7 L177.5 28.3 L176.8 26.9 L176.8 26.6 L177.2 26.4 L179.1 26.1 L181.8 25.7 L184.3 25.3 L187.6 24.8 L187.9 24.8 L192.1 24.1 L196.3 23.5 L199.5 23.0 L203.5 22.4 L206.2 22.0 L206.6 23.5 L207.4 25.1 L208.4 26.5 L209.5 27.6 L210.0 28.0 L210.7 28.4 L211.4 28.7 L212.0 28.7 L212.4 28.5 L212.7 28.3 L213.0 28.1 L213.4 28.1 L213.6 28.2 L213.9 28.6 L214.0 28.8 L214.2 28.8 L214.4 28.7 L214.5 28.7 L215.3 28.4 L215.5 28.3 L215.6 28.3 L215.7 28.2 L215.7 28.2 L215.8 28.3 L215.9 28.4 L216.0 28.7 L216.0 28.8 L216.2 28.9 L216.4 28.9 L216.6 28.9 L216.9 28.9 L217.1 29.1 L217.5 29.5 L217.7 29.6 L218.3 29.8 L218.6 30.0 L218.7 30.4 L218.7 31.0 L218.9 31.7 L219.2 32.2 L220.8 33.4 L221.0 33.5 L221.3 33.5 L221.7 33.3 L222.2 33.1 L222.6 33.0 L224.9 33.7 L224.6 34.3 L224.6 35.1 L224.9 35.7 L225.6 35.9 L225.9 35.7 L226.2 35.6 L226.4 35.5 L226.8 35.5 L227.3 35.8 L227.4 35.8 L227.6 35.8 L227.9 35.7 L228.0 35.7 L228.2 35.8 L228.4 35.9 L228.9 36.5 L229.3 36.7 L229.6 36.8 L229.9 36.9 L232.0 36.8 L232.6 37.0 L233.2 37.4 L233.4 37.6 L233.7 38.3 L233.9 38.7 L234.1 38.8 L234.7 38.9 L236.1 39.2 L237.2 39.2 L237.4 39.4 L237.6 39.6 L237.7 39.7 L237.7 39.9 L237.8 40.1 L237.9 40.1 L238.2 40.1 L238.3 40.1 L239.0 40.6 L240.2 41.0 L240.5 41.2 Z" fill="#172033" fill-rule="evenodd"/></svg>
