<svg xmlns="http://www.w3.org/2000/svg" viewBox="0 0 900 520">
  <defs>
    <linearGradient id="sky" x1="0" y1="0" x2="1" y2="1">
      <stop offset="0" stop-color="#d9f99d"/>
      <stop offset="0.48" stop-color="#93c5fd"/>
      <stop offset="1" stop-color="#fef3c7"/>
    </linearGradient>
    <filter id="shadow" x="-20%" y="-20%" width="140%" height="140%">
      <feDropShadow dx="0" dy="18" stdDeviation="18" flood-color="#0f172a" flood-opacity="0.22"/>
    </filter>
  </defs>
  <rect width="900" height="520" fill="url(#sky)"/>
  <path d="M95 400 C210 316 300 353 390 262 C478 172 555 180 650 103 C716 49 802 66 846 117 L846 520 L64 520 C48 480 55 432 95 400Z" fill="#0f766e" opacity="0.14"/>
  <g filter="url(#shadow)" fill="#102033">
    <path d="M209 163 C256 116 335 123 373 172 C408 217 391 274 341 301 C289 329 214 313 185 265 C163 228 174 198 209 163Z"/>
    <path d="M488 122 C537 91 618 108 661 153 C710 204 706 282 651 326 C598 369 511 349 474 291 C438 234 443 151 488 122Z"/>
    <path d="M348 353 C387 326 448 336 482 373 C518 412 506 466 455 487 C407 507 340 489 319 448 C303 417 314 377 348 353Z"/>
    <path d="M681 371 C720 351 774 359 805 393 C833 424 823 469 785 490 C746 512 688 501 661 469 C635 438 644 390 681 371Z"/>
  </g>
  <path d="M87 77 C201 36 303 36 405 70 C528 111 633 111 810 58" fill="none" stroke="#ffffff" stroke-width="10" stroke-linecap="round" opacity="0.42"/>
</svg>
