<svg xmlns="http://www.w3.org/2000/svg" viewBox="0 0 320 200" role="img"><path d="M158.9 22.0 L161.3 25.8 L160.6 27.2 L161.0 28.0 L162.1 28.3 L166.3 28.3 L167.4 28.6 L170.8 30.6 L171.6 31.5 L171.7 32.5 L169.5 33.7 L163.1 33.5 L162.4 35.6 L163.3 36.7 L164.6 37.4 L165.9 37.5 L166.3 36.7 L166.5 35.6 L167.5 36.0 L169.6 37.6 L170.9 38.3 L171.9 39.1 L173.0 39.7 L176.0 40.0 L178.8 40.9 L180.3 41.1 L183.3 39.9 L183.9 39.7 L185.7 39.6 L186.1 41.1 L185.5 43.2 L186.3 43.8 L187.2 44.0 L187.9 44.1 L189.6 45.2 L192.3 47.9 L193.3 48.6 L194.6 49.0 L196.1 49.1 L197.3 49.5 L197.4 50.9 L196.2 53.6 L194.5 55.0 L189.5 56.9 L186.9 57.8 L184.4 59.4 L182.8 61.5 L182.8 63.1 L182.8 64.3 L183.7 65.8 L184.9 66.7 L186.2 67.5 L187.3 68.5 L187.6 69.2 L187.7 70.6 L188.0 71.3 L188.6 71.8 L190.0 72.5 L190.5 73.2 L192.6 76.6 L196.4 79.3 L211.4 85.8 L211.4 85.9 L214.1 88.2 L215.4 88.2 L215.9 88.1 L216.8 87.9 L218.2 87.8 L219.1 88.2 L220.0 88.9 L221.7 90.6 L221.8 91.0 L221.9 91.3 L221.8 91.7 L220.7 95.8 L219.9 97.4 L218.6 98.7 L217.2 99.6 L217.0 100.1 L216.2 103.1 L215.8 103.8 L214.9 104.3 L210.4 104.7 L199.9 103.3 L195.8 105.3 L195.9 106.0 L196.0 106.9 L198.0 107.6 L204.7 108.1 L206.5 108.8 L207.9 110.0 L210.8 114.5 L211.3 115.3 L214.2 117.5 L215.5 118.1 L217.6 118.9 L221.7 119.8 L223.5 121.2 L225.9 125.0 L228.0 126.3 L230.4 126.8 L231.5 127.3 L232.4 128.2 L233.9 130.4 L234.9 131.1 L236.3 131.4 L238.5 131.1 L242.9 129.3 L245.1 129.5 L246.0 130.0 L247.6 131.6 L248.5 132.2 L249.8 132.3 L253.8 132.0 L254.9 132.2 L255.9 132.8 L256.7 133.6 L256.9 134.6 L256.3 135.5 L255.4 135.9 L254.7 136.4 L254.6 137.5 L255.1 138.2 L255.1 138.8 L254.6 139.3 L253.8 139.5 L253.8 139.6 L249.1 140.2 L247.1 141.2 L246.2 142.9 L247.1 144.9 L249.2 146.2 L253.8 147.8 L254.9 148.4 L255.3 149.3 L255.7 150.4 L256.3 151.3 L257.9 152.6 L260.6 154.1 L261.0 154.4 L261.5 154.8 L261.5 154.9 L261.8 155.4 L261.2 155.6 L259.9 155.6 L256.9 157.3 L256.1 157.4 L252.2 155.8 L249.9 155.6 L248.4 156.7 L248.5 158.7 L250.2 159.9 L252.3 160.9 L253.8 161.9 L254.7 164.0 L255.0 165.8 L254.8 167.6 L254.0 169.6 L253.9 169.8 L253.8 170.0 L253.6 170.8 L253.5 171.6 L253.6 172.4 L253.8 173.1 L256.1 176.8 L254.9 176.6 L248.2 174.2 L247.3 174.1 L246.7 174.1 L245.1 174.5 L242.6 174.6 L241.8 174.8 L240.5 175.2 L237.2 177.1 L236.0 177.6 L231.8 178.0 L228.0 172.4 L224.7 165.1 L223.4 163.1 L221.7 161.2 L220.3 159.5 L219.8 157.8 L220.1 156.2 L221.7 154.6 L222.1 154.2 L222.3 153.7 L222.1 153.2 L221.7 152.7 L220.4 151.7 L216.7 150.3 L215.8 150.0 L214.2 149.1 L213.0 148.0 L211.7 147.2 L208.1 146.5 L207.9 146.2 L207.5 145.5 L207.9 144.2 L210.1 141.4 L210.4 140.4 L209.8 137.5 L209.8 137.5 L210.0 135.8 L210.0 134.8 L209.4 133.9 L208.0 133.1 L206.2 132.6 L204.7 132.6 L204.3 132.7 L196.4 134.2 L194.7 134.7 L189.6 137.3 L188.9 137.5 L188.2 137.8 L187.4 137.9 L186.7 137.8 L186.0 137.5 L186.0 137.5 L184.0 135.9 L182.8 135.4 L179.8 135.2 L178.9 134.9 L178.2 134.2 L177.5 132.9 L175.9 131.1 L175.5 130.7 L173.7 131.1 L171.9 132.4 L169.5 132.9 L168.3 132.3 L168.0 131.3 L168.7 129.0 L168.8 127.5 L168.5 126.3 L167.8 125.2 L163.6 121.0 L163.1 120.6 L160.9 119.7 L158.5 120.4 L156.1 121.8 L155.7 121.9 L154.1 122.7 L151.9 123.1 L149.1 123.0 L146.1 123.4 L144.3 124.1 L143.3 122.8 L139.3 118.8 L139.0 118.3 L138.6 118.0 L138.3 118.0 L137.6 118.1 L137.3 118.0 L136.1 117.5 L133.8 115.4 L132.9 115.8 L132.7 115.4 L132.7 114.7 L132.5 114.1 L131.5 113.5 L130.9 113.1 L130.7 112.6 L130.4 111.6 L129.7 110.6 L128.0 109.2 L124.3 106.7 L119.0 104.3 L115.4 102.7 L113.0 102.2 L110.9 102.2 L107.0 103.0 L105.2 103.2 L103.8 103.5 L103.2 103.5 L102.6 103.4 L101.8 102.8 L101.2 102.6 L99.8 102.9 L97.6 104.1 L96.6 104.4 L88.8 103.4 L81.8 100.4 L75.9 99.1 L73.0 97.9 L72.1 96.0 L73.0 95.4 L75.9 94.9 L76.6 94.1 L76.1 93.3 L74.1 91.4 L73.5 90.3 L74.6 89.6 L74.6 89.5 L73.6 87.9 L70.8 85.0 L69.0 83.8 L68.4 82.7 L68.8 81.7 L69.4 81.0 L70.3 78.5 L70.4 78.4 L70.4 77.9 L67.8 76.2 L66.4 75.1 L66.1 74.2 L68.3 72.2 L69.7 71.5 L71.3 71.4 L71.1 70.9 L71.0 70.7 L70.8 70.4 L71.2 70.6 L71.5 70.6 L71.7 70.7 L72.1 70.9 L72.1 69.4 L72.9 68.1 L75.6 65.6 L75.2 64.2 L75.5 63.8 L76.9 61.9 L77.1 61.4 L76.7 57.0 L76.5 55.9 L75.9 54.7 L73.2 51.5 L72.6 50.2 L72.2 48.7 L72.1 47.4 L71.8 46.2 L71.1 44.9 L69.1 43.0 L66.5 41.4 L63.8 40.4 L61.0 40.1 L59.8 39.2 L58.8 37.4 L58.2 35.3 L58.5 33.8 L59.1 33.9 L59.8 34.0 L60.4 33.8 L63.9 32.8 L66.6 32.7 L77.1 33.8 L78.7 33.7 L79.9 33.3 L82.9 31.3 L85.7 30.5 L91.6 30.4 L93.0 30.1 L93.1 30.1 L94.5 29.8 L97.1 28.9 L98.4 28.8 L101.1 29.4 L102.5 29.2 L103.7 28.7 L104.8 27.9 L105.1 27.3 L105.1 26.8 L105.3 26.3 L106.1 25.9 L106.7 25.9 L108.5 26.4 L111.6 28.1 L112.8 28.4 L114.3 28.2 L114.9 27.9 L115.4 27.5 L115.9 27.1 L116.6 27.0 L117.4 27.0 L120.9 28.6 L122.3 29.0 L123.7 29.1 L125.3 28.7 L126.6 27.6 L127.0 27.4 L127.7 27.4 L128.0 27.9 L128.2 28.5 L128.6 29.0 L129.9 29.3 L130.9 28.7 L131.7 27.6 L132.5 26.8 L133.9 26.3 L135.2 26.5 L137.9 27.3 L147.3 27.4 L149.0 27.2 L149.6 26.6 L149.4 26.3 L148.9 25.8 L146.5 25.0 L146.0 24.1 L147.2 23.1 L153.4 23.8 L155.9 23.8 L156.7 23.4 L158.1 22.4 L158.9 22.0 Z M157.4 35.4 L156.4 35.9 L156.2 36.8 L156.6 37.8 L157.4 38.6 L159.8 39.2 L160.7 37.7 L160.0 35.9 L157.4 35.4 Z M172.2 42.7 L172.9 42.0 L171.1 40.8 L170.8 40.8 L170.6 40.8 L170.3 40.9 L170.1 41.1 L170.8 42.5 L172.2 42.7 Z M191.8 66.3 L189.6 65.8 L189.2 65.1 L189.0 64.5 L189.2 63.8 L189.6 63.2 L190.4 62.7 L191.2 62.5 L192.2 62.5 L193.1 62.6 L194.8 63.3 L193.9 65.0 L191.8 66.3 Z" fill="#172033" fill-rule="evenodd"/></svg>
