<svg xmlns="http://www.w3.org/2000/svg" viewBox="0 0 320 200" role="img"><path d="M104.8 24.8 L104.7 25.1 L104.3 25.3 L102.1 25.8 L101.7 26.0 L101.5 26.2 L101.4 26.4 L101.3 26.7 L101.3 27.0 L101.2 27.1 L100.7 27.4 L100.5 27.5 L100.4 27.8 L100.4 28.0 L100.3 28.1 L100.0 28.2 L99.6 28.2 L99.5 28.3 L99.4 28.5 L99.3 29.0 L98.8 29.2 L97.9 29.6 L97.8 29.6 L97.7 29.6 L97.6 29.6 L97.6 29.7 L97.6 29.8 L97.6 29.9 L97.6 30.0 L97.7 30.1 L98.4 30.3 L98.5 30.4 L98.6 30.8 L98.6 31.7 L98.5 32.7 L98.5 34.0 L98.4 35.5 L98.4 36.2 L98.4 37.3 L97.5 37.3 L96.5 37.2 L95.5 37.4 L94.9 37.7 L94.9 37.7 L94.4 36.8 L94.2 36.0 L94.5 35.3 L94.6 35.2 L94.8 35.1 L94.9 35.1 L95.0 35.1 L95.1 35.0 L95.2 34.8 L95.2 34.4 L95.2 34.3 L95.0 33.9 L94.8 33.5 L94.5 32.7 L94.5 32.4 L94.1 31.6 L94.0 31.1 L93.3 30.3 L92.8 29.5 L92.8 29.4 L92.9 29.4 L93.2 29.4 L93.3 29.5 L93.4 29.6 L93.5 29.8 L93.7 29.9 L93.9 29.8 L94.0 29.6 L94.0 29.4 L94.1 29.4 L94.1 29.1 L94.1 29.0 L93.9 29.0 L93.8 29.0 L93.7 29.1 L93.7 29.3 L93.7 29.5 L93.7 29.6 L93.6 29.5 L93.5 29.3 L93.4 29.2 L93.4 29.2 L93.3 29.3 L93.2 29.3 L93.1 29.2 L92.9 29.2 L92.6 29.2 L92.7 29.1 L94.0 28.0 L94.3 27.5 L94.7 26.3 L94.7 26.3 L94.9 26.3 L95.0 26.3 L95.1 26.5 L95.2 26.7 L95.3 26.6 L95.5 26.6 L95.7 26.5 L96.1 26.5 L96.2 26.4 L96.3 26.3 L96.8 25.3 L96.9 25.1 L96.9 24.6 L97.0 24.5 L97.3 24.5 L97.4 24.5 L98.2 24.2 L99.5 24.0 L99.7 23.9 L99.8 23.8 L100.0 23.3 L100.2 23.1 L100.4 23.0 L100.6 22.9 L100.8 22.7 L100.8 22.4 L101.0 22.2 L101.2 22.0 L101.4 22.1 L101.5 22.1 L101.7 22.2 L101.9 22.2 L102.0 22.2 L102.2 22.2 L102.3 22.1 L102.5 22.2 L102.7 22.5 L102.9 23.0 L103.1 23.3 L103.5 23.6 L104.3 24.5 L104.8 24.8 Z M229.4 96.1 L229.5 96.7 L229.6 96.9 L229.8 97.2 L229.8 97.4 L229.7 97.6 L229.7 97.8 L229.7 98.4 L229.7 98.9 L229.7 99.0 L230.0 99.1 L229.9 100.7 L230.0 101.0 L230.5 102.1 L230.5 102.2 L230.4 102.4 L230.0 102.7 L229.9 102.8 L229.9 103.0 L229.9 103.1 L229.9 103.4 L229.9 103.6 L229.8 103.7 L229.5 104.2 L229.3 104.6 L229.3 104.9 L229.3 105.2 L229.3 105.4 L229.5 105.6 L229.6 105.9 L229.6 106.7 L229.7 107.0 L229.6 107.1 L229.4 107.7 L229.3 109.2 L229.3 110.8 L229.3 111.3 L229.6 111.6 L229.9 111.9 L230.0 112.2 L230.0 112.9 L230.1 113.4 L230.1 113.6 L230.0 113.8 L229.6 114.4 L229.1 115.1 L229.0 115.4 L228.8 116.2 L228.5 117.1 L228.3 117.6 L228.2 118.1 L228.3 118.4 L228.6 118.7 L229.2 119.4 L229.5 119.7 L229.7 120.1 L229.8 120.5 L229.4 120.5 L228.0 120.5 L226.6 120.5 L225.2 120.5 L223.7 120.5 L222.3 120.5 L220.9 120.5 L219.5 120.5 L218.0 120.5 L216.6 120.5 L215.2 120.5 L213.8 120.5 L212.4 120.5 L210.9 120.5 L209.5 120.5 L208.1 120.5 L206.7 120.5 L206.7 122.2 L206.7 123.9 L206.7 125.6 L206.7 127.4 L206.7 128.4 L206.7 129.1 L206.7 130.8 L206.7 132.5 L206.7 134.3 L206.7 136.0 L206.7 137.7 L206.7 139.4 L206.7 141.2 L206.7 142.9 L206.7 144.6 L206.7 146.3 L206.7 148.0 L206.7 148.5 L206.7 148.7 L206.7 149.1 L206.7 149.6 L206.7 150.8 L206.7 151.9 L206.7 153.1 L206.7 154.3 L206.7 154.8 L206.7 154.8 L206.7 155.5 L206.7 156.2 L206.7 156.4 L206.7 156.7 L207.0 157.0 L207.4 157.7 L207.1 157.7 L207.0 157.7 L207.2 157.8 L207.2 158.0 L207.2 158.1 L207.3 158.3 L207.3 158.3 L207.5 158.5 L207.5 158.5 L207.5 158.6 L207.5 158.9 L207.5 158.9 L207.9 159.0 L208.1 159.1 L208.1 159.2 L208.0 159.4 L207.9 159.6 L207.8 159.8 L207.8 160.0 L207.9 160.1 L208.1 160.5 L208.1 160.6 L208.1 160.8 L208.1 160.9 L208.1 161.0 L208.4 161.0 L208.5 161.1 L208.5 161.3 L208.6 161.4 L208.6 161.6 L209.6 162.4 L209.8 162.4 L209.9 162.4 L210.0 162.4 L210.2 162.3 L210.2 162.3 L210.2 162.3 L210.3 162.3 L210.4 162.4 L210.4 162.4 L210.7 162.5 L210.8 162.6 L210.9 162.7 L211.1 163.0 L211.2 163.1 L211.2 163.2 L211.3 163.2 L211.5 163.2 L211.6 163.3 L211.7 163.4 L212.5 164.7 L212.6 165.0 L212.7 165.1 L212.9 165.2 L213.2 165.3 L213.4 165.5 L213.4 165.6 L213.4 165.8 L213.5 165.9 L213.5 165.9 L213.7 165.9 L214.4 166.2 L214.5 166.3 L215.0 166.8 L215.3 167.1 L215.4 167.4 L215.6 168.0 L215.7 168.1 L215.8 168.3 L216.2 168.5 L216.6 168.8 L216.9 169.0 L217.6 169.3 L218.2 169.5 L218.3 169.6 L218.8 170.1 L218.9 170.2 L219.0 170.5 L219.2 170.8 L219.5 171.1 L219.7 171.4 L220.2 171.5 L220.4 171.7 L220.4 171.9 L220.4 172.0 L220.4 172.2 L220.5 172.3 L220.7 172.4 L220.9 172.4 L221.1 172.3 L221.3 172.3 L221.7 172.3 L221.8 172.4 L222.0 172.5 L222.2 172.6 L222.5 172.9 L222.7 173.1 L222.6 173.2 L222.6 173.4 L222.7 173.5 L221.8 173.7 L219.4 174.2 L217.1 174.6 L214.7 175.0 L212.4 175.5 L209.5 176.0 L206.7 176.5 L203.8 177.1 L200.9 177.6 L200.1 177.7 L199.9 177.8 L199.8 177.8 L199.6 177.5 L199.3 177.4 L198.7 177.2 L198.1 176.9 L197.9 176.8 L197.5 176.9 L197.3 176.8 L197.1 176.9 L196.9 177.0 L196.7 177.0 L196.5 176.9 L195.5 177.2 L195.3 177.2 L194.4 177.5 L194.3 177.8 L193.9 177.9 L193.5 178.0 L193.3 178.0 L193.0 177.8 L192.7 177.6 L192.5 177.6 L192.4 177.7 L192.3 177.7 L192.1 177.7 L191.9 177.6 L191.8 177.5 L191.7 177.4 L191.2 177.4 L190.8 177.4 L190.5 177.5 L190.4 177.4 L190.0 177.2 L189.6 177.0 L189.5 176.9 L189.3 176.7 L189.0 176.4 L188.8 176.3 L188.5 176.4 L188.0 176.0 L187.9 176.0 L187.5 176.0 L187.3 176.1 L187.2 176.0 L186.8 176.3 L186.5 176.2 L186.2 176.2 L186.0 176.2 L185.8 176.4 L185.7 176.3 L185.6 176.4 L185.4 176.4 L185.1 176.4 L184.4 176.5 L184.3 176.4 L183.9 176.3 L183.5 176.1 L181.7 176.1 L181.6 176.1 L181.5 176.3 L181.4 176.4 L181.2 176.4 L181.0 176.3 L180.7 176.2 L180.6 176.1 L180.5 175.9 L180.3 175.8 L180.0 175.9 L179.4 176.0 L177.4 176.0 L175.6 175.5 L175.4 175.4 L174.9 175.4 L174.6 175.4 L174.4 175.4 L174.2 175.4 L173.8 175.6 L172.8 175.6 L171.3 175.3 L170.3 174.9 L169.9 174.8 L169.7 174.6 L169.5 174.3 L168.8 173.7 L168.7 173.6 L168.5 173.5 L168.4 173.4 L168.3 173.3 L168.3 173.1 L168.2 173.0 L167.6 172.5 L167.5 172.5 L167.5 172.3 L167.1 171.6 L166.8 171.5 L166.8 171.5 L166.7 171.4 L166.6 170.9 L166.5 170.9 L166.4 170.8 L166.4 170.7 L166.3 170.7 L166.3 170.7 L165.6 170.7 L162.7 170.7 L161.2 170.7 L159.8 170.7 L156.8 170.7 L153.9 170.7 L152.9 170.7 L151.0 170.7 L148.0 170.7 L145.1 170.7 L142.2 170.6 L139.2 170.6 L136.3 170.6 L133.4 170.6 L133.2 170.6 L130.4 170.6 L127.5 170.6 L124.6 170.6 L121.6 170.6 L118.7 170.6 L117.9 170.6 L117.9 170.6 L117.8 170.6 L117.8 170.7 L117.7 170.9 L117.4 171.0 L116.9 170.9 L116.8 170.9 L116.6 171.0 L116.5 171.0 L116.4 171.0 L116.2 171.0 L116.0 171.0 L115.7 170.9 L115.6 170.9 L115.5 170.9 L115.3 171.0 L115.2 171.0 L114.9 171.0 L114.8 170.9 L114.2 170.2 L114.1 170.1 L113.0 169.5 L111.9 168.9 L110.9 168.1 L109.9 167.6 L110.0 167.3 L109.9 167.1 L109.8 166.9 L109.6 166.5 L109.5 166.3 L109.2 166.2 L109.0 166.2 L108.7 166.1 L108.3 165.9 L108.1 165.8 L107.9 165.8 L107.7 165.9 L107.6 165.9 L107.5 165.9 L107.3 165.9 L107.0 166.0 L107.0 166.0 L106.9 166.0 L106.8 166.0 L106.5 166.0 L106.4 165.9 L106.3 165.8 L106.2 165.7 L106.1 165.8 L105.9 165.6 L105.6 165.7 L105.4 165.7 L104.1 166.0 L103.5 166.3 L103.2 166.4 L103.0 166.5 L102.7 166.5 L102.6 166.7 L102.6 166.8 L102.6 166.9 L102.5 167.0 L102.3 167.0 L102.2 167.1 L102.1 167.1 L102.0 167.3 L101.9 167.4 L101.5 167.5 L101.0 167.8 L100.6 168.1 L100.4 168.2 L100.1 168.2 L99.8 168.3 L99.3 168.7 L99.0 168.9 L98.9 168.9 L98.5 168.8 L97.8 168.8 L97.6 168.7 L97.3 168.5 L97.2 168.5 L97.0 168.7 L96.9 168.7 L96.1 168.7 L95.3 168.8 L95.3 168.7 L95.2 168.6 L95.2 168.5 L95.1 168.5 L95.0 168.4 L94.8 168.4 L94.7 168.3 L94.7 168.2 L94.6 168.1 L94.6 168.1 L94.6 168.0 L94.5 167.9 L94.4 167.9 L94.3 167.9 L94.3 168.0 L94.1 168.0 L93.7 167.9 L93.6 167.8 L93.5 167.8 L93.5 167.8 L93.4 167.8 L92.9 167.9 L92.3 168.1 L91.9 168.3 L91.3 168.7 L90.9 168.9 L90.7 169.0 L90.6 169.1 L90.6 169.2 L90.5 169.2 L90.3 169.2 L90.2 169.2 L90.0 169.1 L89.9 169.1 L89.9 169.1 L89.9 169.0 L89.8 168.9 L89.7 168.8 L89.7 168.7 L89.7 168.5 L89.8 168.1 L89.8 166.6 L89.9 165.6 L90.0 164.7 L89.9 163.9 L89.9 163.6 L90.1 163.5 L90.1 164.0 L90.3 164.2 L90.5 163.7 L90.5 162.8 L90.5 162.5 L90.4 161.4 L90.5 160.2 L90.0 155.9 L90.0 155.7 L90.1 155.5 L90.3 155.0 L90.1 154.5 L89.5 153.6 L89.5 153.1 L89.7 152.5 L89.8 152.4 L90.1 152.2 L90.3 152.1 L90.4 152.2 L90.5 152.4 L90.6 152.5 L90.8 152.4 L91.3 151.9 L91.4 151.7 L91.5 151.5 L91.5 151.2 L91.5 151.1 L91.7 150.8 L92.4 150.4 L92.6 150.1 L92.6 149.8 L92.9 148.9 L93.0 148.6 L92.9 148.3 L92.9 148.0 L93.1 147.3 L93.2 146.0 L93.2 145.8 L93.3 145.7 L93.7 145.3 L93.8 145.3 L94.0 145.4 L94.1 145.4 L94.2 145.3 L94.3 145.1 L94.2 144.9 L94.2 144.7 L94.0 144.6 L93.9 144.7 L93.8 144.6 L93.9 144.4 L94.0 144.0 L94.3 143.4 L94.3 143.0 L94.4 142.8 L94.5 142.7 L94.6 142.6 L94.7 142.4 L94.8 142.3 L94.9 141.7 L94.9 141.5 L94.9 141.4 L95.0 141.3 L95.1 141.3 L95.2 141.3 L95.2 141.3 L95.3 141.2 L95.4 140.8 L95.7 140.5 L95.7 140.3 L95.6 140.1 L95.6 139.9 L95.6 139.7 L95.7 139.5 L95.9 138.6 L96.0 137.7 L96.0 137.5 L96.2 137.3 L96.3 136.9 L96.5 136.1 L96.5 135.4 L96.5 135.0 L96.3 134.6 L96.2 134.4 L96.2 134.3 L96.2 134.2 L96.2 134.2 L96.1 134.0 L96.1 134.0 L96.1 133.9 L96.2 133.9 L96.2 133.9 L96.3 133.9 L96.5 133.9 L96.5 133.8 L96.6 133.7 L96.6 133.6 L96.6 133.5 L96.6 133.4 L96.5 133.3 L96.4 133.1 L96.3 132.9 L96.5 132.7 L96.5 132.4 L96.8 132.1 L96.8 132.0 L96.9 131.8 L96.9 131.6 L97.1 131.3 L97.1 131.2 L97.2 130.8 L97.2 130.6 L97.3 130.5 L97.6 130.4 L97.6 130.4 L97.7 130.3 L97.8 130.3 L97.9 130.5 L98.0 130.5 L98.1 130.5 L98.3 130.2 L98.4 129.8 L98.4 128.6 L98.4 127.5 L98.4 127.4 L98.6 127.1 L98.6 126.9 L98.5 126.8 L98.5 126.7 L98.5 126.6 L98.6 126.6 L98.6 126.2 L98.5 126.1 L98.4 125.7 L98.4 125.5 L98.4 125.3 L98.5 125.2 L98.6 125.0 L98.8 125.0 L99.0 124.9 L99.1 124.9 L99.2 124.7 L99.3 124.6 L99.5 124.5 L99.7 124.5 L99.8 124.4 L99.9 124.2 L99.9 124.1 L99.9 124.0 L99.8 123.9 L99.8 123.8 L99.8 123.8 L99.9 123.6 L100.0 123.6 L100.0 123.4 L100.4 123.2 L100.4 123.1 L100.5 123.0 L100.5 122.9 L100.6 123.0 L100.7 123.0 L100.9 122.9 L100.9 122.8 L101.1 122.8 L101.2 122.7 L102.0 121.7 L102.3 121.5 L102.4 121.4 L102.6 121.1 L103.3 120.3 L103.5 119.9 L103.5 119.6 L103.4 119.3 L103.2 119.0 L103.1 118.7 L103.3 118.4 L103.8 117.8 L104.1 117.7 L104.8 117.0 L105.1 116.8 L105.2 116.7 L105.4 116.4 L105.5 116.3 L105.8 116.0 L106.0 115.9 L106.2 115.9 L106.3 115.9 L106.5 116.0 L106.6 116.0 L107.0 115.7 L107.1 115.6 L107.3 115.7 L107.5 115.8 L107.7 115.9 L108.1 115.8 L108.5 115.5 L109.0 115.0 L109.2 114.8 L109.3 114.7 L109.4 114.5 L109.4 114.0 L109.5 113.8 L109.5 113.6 L109.8 113.3 L110.5 112.6 L110.6 112.6 L110.6 112.7 L110.4 112.7 L110.4 112.8 L110.3 112.9 L110.4 113.0 L110.6 112.8 L110.8 112.4 L111.2 112.0 L111.3 111.9 L111.6 111.0 L111.9 110.3 L112.0 109.9 L112.2 109.1 L112.2 108.9 L112.4 108.8 L112.5 108.6 L112.7 108.4 L112.7 108.1 L112.9 107.0 L113.0 106.6 L113.1 106.4 L112.9 104.3 L112.9 103.1 L113.0 102.8 L113.1 102.6 L113.0 102.5 L113.0 102.4 L113.0 102.2 L113.1 102.1 L113.1 101.5 L113.1 101.4 L113.1 101.3 L113.3 101.0 L113.4 100.8 L113.4 100.5 L113.7 98.9 L113.7 98.2 L113.7 97.4 L113.6 97.0 L113.5 96.6 L112.4 95.1 L112.3 94.9 L112.3 94.7 L112.4 94.5 L112.8 94.1 L112.8 93.9 L112.7 93.7 L112.6 93.5 L112.1 93.1 L112.0 93.0 L112.0 92.9 L110.9 91.6 L110.2 91.0 L110.0 90.8 L110.0 90.6 L109.9 89.8 L109.9 89.6 L109.8 89.3 L109.2 88.5 L109.0 88.2 L108.9 87.6 L108.7 87.4 L108.3 87.0 L107.6 85.9 L107.6 85.7 L107.7 85.5 L107.8 85.3 L107.7 84.8 L107.5 84.3 L107.2 83.9 L106.2 82.8 L106.2 82.6 L106.2 82.4 L106.5 82.1 L106.6 81.9 L106.5 81.7 L106.5 81.5 L106.4 81.3 L106.3 81.2 L106.3 81.1 L105.9 80.0 L105.9 79.8 L105.9 79.3 L105.9 79.1 L105.7 78.7 L105.6 78.5 L105.4 78.3 L104.5 76.9 L104.2 76.1 L103.9 75.8 L103.9 75.1 L104.3 74.2 L105.0 73.5 L105.5 73.2 L105.3 73.6 L104.5 74.3 L104.1 75.2 L104.0 75.5 L104.1 75.7 L104.2 75.6 L104.9 74.5 L104.9 74.4 L105.0 74.2 L105.1 74.2 L105.3 74.2 L105.4 74.2 L105.5 74.0 L105.7 73.7 L105.8 73.4 L106.1 73.1 L106.2 73.0 L106.2 72.9 L106.2 72.6 L106.2 72.5 L106.5 72.1 L106.7 72.0 L106.9 71.9 L106.4 72.5 L106.2 72.7 L106.4 72.6 L106.8 72.4 L107.0 72.3 L107.1 72.3 L107.2 72.2 L107.2 72.1 L107.2 72.0 L107.2 72.0 L107.3 71.9 L107.3 71.9 L108.0 72.0 L108.3 71.9 L108.5 71.3 L108.6 70.9 L108.7 70.7 L108.6 70.6 L108.3 70.1 L108.2 69.8 L108.0 69.0 L107.9 68.6 L108.0 68.6 L108.1 68.6 L108.2 68.6 L108.3 68.5 L108.4 68.4 L108.4 67.5 L108.3 67.2 L108.2 67.0 L107.1 65.3 L107.0 65.2 L106.8 64.7 L106.7 64.5 L106.7 64.4 L106.5 64.1 L106.4 63.9 L106.2 63.5 L106.1 63.0 L105.4 61.6 L103.8 58.1 L103.3 56.8 L103.0 55.7 L102.6 55.3 L102.5 55.1 L102.3 54.9 L102.3 54.5 L102.3 54.2 L102.1 51.9 L102.0 51.6 L101.9 51.4 L101.9 51.3 L101.9 51.3 L101.9 51.2 L101.9 51.2 L102.0 51.1 L102.0 51.0 L102.0 50.9 L102.1 50.9 L102.1 50.8 L102.0 50.7 L101.7 51.0 L101.5 50.9 L100.6 49.7 L99.6 48.8 L98.8 47.6 L97.8 45.7 L97.4 44.8 L97.1 44.1 L96.8 43.7 L96.5 43.3 L96.2 42.9 L95.7 42.1 L95.7 41.7 L95.9 41.5 L96.1 41.4 L96.4 41.3 L96.3 41.5 L96.3 41.8 L96.5 41.8 L96.9 41.7 L97.5 41.6 L98.2 41.5 L98.6 41.3 L98.8 41.2 L99.2 41.1 L99.8 40.8 L99.9 40.7 L100.2 40.7 L100.4 40.8 L100.7 40.9 L101.0 41.0 L101.4 40.9 L101.9 40.8 L102.4 40.6 L102.6 40.4 L103.1 40.2 L103.4 39.9 L103.6 39.6 L103.7 39.4 L103.8 39.3 L104.1 39.2 L104.3 39.2 L104.5 39.1 L104.7 39.1 L105.1 39.2 L105.3 39.1 L105.5 39.1 L105.9 38.8 L106.1 38.8 L106.1 38.8 L107.1 38.8 L107.5 39.0 L107.9 39.1 L108.0 39.1 L108.3 38.8 L108.3 38.8 L108.7 38.8 L109.6 38.8 L110.0 38.9 L110.1 38.9 L110.3 38.8 L110.4 38.8 L111.3 38.9 L113.2 38.7 L114.8 38.6 L115.2 38.7 L115.5 38.9 L115.7 38.9 L117.0 38.8 L117.3 38.9 L118.0 39.1 L118.2 39.1 L119.4 39.2 L120.4 39.2 L120.9 39.1 L121.7 39.3 L122.0 39.3 L123.5 39.0 L124.1 39.0 L124.5 39.0 L125.6 39.0 L126.6 39.0 L127.7 39.0 L128.7 39.0 L129.7 38.9 L130.8 38.9 L131.8 38.9 L132.9 38.9 L133.9 38.9 L135.0 38.9 L136.0 38.8 L137.1 38.8 L138.1 38.8 L139.1 38.8 L139.4 38.8 L140.2 38.8 L141.2 38.7 L141.9 38.7 L142.2 38.8 L142.4 38.9 L142.6 39.1 L142.8 39.2 L143.0 39.2 L143.2 39.2 L143.5 39.1 L143.8 39.1 L144.0 39.1 L144.2 39.1 L144.6 39.3 L144.7 39.3 L145.1 39.5 L145.1 39.6 L144.9 39.8 L144.9 39.9 L145.0 40.0 L145.1 40.2 L145.1 40.3 L145.2 41.0 L145.2 41.1 L145.3 41.1 L145.4 41.0 L145.5 41.0 L145.5 41.1 L145.3 41.4 L145.5 41.4 L145.6 41.6 L145.8 41.8 L146.0 41.9 L146.1 41.9 L146.2 42.0 L146.3 42.2 L146.5 42.4 L146.6 42.6 L146.6 42.7 L146.5 42.9 L146.5 43.0 L146.5 43.9 L146.5 44.0 L146.5 44.1 L146.5 44.2 L146.5 44.3 L146.5 44.4 L146.4 44.4 L146.3 44.4 L146.2 44.5 L146.2 45.0 L146.2 45.0 L146.3 45.1 L146.4 45.2 L146.4 45.1 L146.5 45.1 L146.5 45.3 L146.5 45.4 L146.4 45.6 L146.4 45.7 L146.6 45.7 L146.5 45.9 L146.5 46.0 L146.6 46.1 L146.7 46.2 L146.8 46.4 L146.8 46.5 L146.7 46.7 L146.6 46.9 L146.7 47.1 L146.8 47.5 L146.9 47.7 L146.9 48.1 L147.0 48.3 L147.1 48.5 L147.7 49.4 L147.7 49.5 L147.8 49.7 L147.8 49.9 L147.9 50.0 L148.1 50.0 L148.3 50.1 L148.5 50.1 L148.8 50.3 L148.9 50.6 L149.0 51.2 L148.9 51.3 L148.9 51.4 L148.9 51.5 L149.0 51.5 L149.1 51.6 L149.2 51.6 L149.3 51.7 L149.3 51.8 L149.4 52.0 L149.4 52.2 L149.3 52.4 L149.3 52.6 L148.9 52.5 L148.9 52.8 L149.1 53.6 L149.1 54.2 L149.2 54.3 L149.3 54.3 L149.4 54.5 L149.6 54.8 L149.6 54.9 L149.6 55.1 L149.7 55.2 L150.0 55.3 L150.4 55.6 L150.7 55.8 L150.8 55.9 L150.8 56.0 L150.8 56.2 L150.8 56.4 L150.9 56.6 L151.1 56.7 L151.2 56.5 L151.2 56.5 L151.3 56.6 L151.4 56.6 L151.6 56.7 L151.7 56.7 L151.8 56.8 L151.7 56.9 L151.6 56.9 L151.5 57.0 L151.4 57.1 L151.4 57.2 L151.5 57.3 L151.6 57.4 L151.7 57.5 L151.9 57.7 L152.0 58.3 L152.2 58.5 L152.8 58.8 L153.0 59.0 L153.0 59.2 L153.0 59.4 L153.0 59.7 L153.0 59.8 L153.2 59.8 L153.2 59.8 L153.2 59.9 L153.2 59.9 L153.2 59.9 L153.4 60.0 L153.4 60.1 L153.3 60.2 L153.3 60.3 L153.3 60.5 L153.5 60.6 L153.6 60.7 L153.6 60.8 L153.9 60.8 L154.0 60.9 L154.0 61.0 L154.0 61.1 L154.1 61.3 L154.3 61.3 L154.3 61.3 L154.2 61.4 L154.3 61.5 L154.4 61.5 L154.5 61.5 L154.6 61.6 L154.6 61.8 L154.6 61.8 L154.8 61.8 L154.9 61.9 L154.9 62.0 L154.7 62.2 L154.7 62.3 L154.7 62.4 L154.8 62.5 L155.1 62.6 L155.0 62.7 L155.0 62.7 L155.0 62.7 L155.1 62.8 L155.1 62.8 L155.2 62.7 L155.2 62.7 L155.3 63.0 L155.4 63.1 L155.5 63.2 L155.8 63.4 L155.9 63.4 L155.9 63.6 L155.8 64.0 L155.9 64.1 L155.9 64.1 L155.9 64.2 L156.6 64.4 L156.9 64.4 L157.9 64.1 L158.2 64.1 L158.6 64.2 L158.8 64.2 L159.5 63.8 L159.6 63.8 L160.0 63.8 L160.4 64.0 L161.0 64.5 L161.3 64.5 L162.3 64.5 L162.2 64.2 L162.2 63.9 L162.3 63.7 L162.5 63.5 L162.7 63.5 L163.2 63.3 L163.4 63.2 L164.2 63.3 L164.8 63.3 L165.2 63.5 L165.4 63.5 L165.5 63.4 L165.8 63.3 L166.0 63.3 L166.7 63.2 L166.7 63.3 L167.0 63.2 L166.9 62.8 L166.9 62.6 L167.1 62.5 L167.9 62.5 L168.8 62.5 L169.6 62.5 L169.7 62.6 L169.8 62.9 L169.8 63.0 L170.0 63.3 L170.5 63.3 L172.0 63.3 L173.4 63.3 L174.9 63.3 L176.4 63.3 L176.7 63.3 L176.4 62.4 L176.4 62.1 L176.4 61.8 L176.6 61.2 L176.7 60.9 L176.9 60.2 L177.0 59.9 L177.0 59.6 L176.9 59.3 L176.7 59.0 L176.6 58.7 L176.7 58.4 L177.5 58.5 L177.7 58.4 L177.8 58.2 L178.0 57.8 L178.1 57.6 L178.1 57.6 L178.1 57.6 L178.1 57.6 L178.5 57.3 L178.5 57.0 L178.2 56.2 L178.1 55.8 L178.0 55.4 L178.2 53.6 L178.3 53.2 L178.4 53.0 L178.7 52.6 L178.8 52.4 L178.8 52.3 L178.6 51.9 L179.2 51.9 L179.6 51.9 L180.1 51.9 L180.6 51.9 L181.1 51.9 L181.6 51.9 L182.0 51.9 L182.5 51.9 L183.0 51.9 L183.5 51.9 L183.6 51.9 L184.0 51.9 L184.4 51.9 L184.9 51.9 L185.4 51.9 L185.9 51.9 L186.4 51.9 L186.8 51.9 L187.4 51.9 L187.4 51.7 L187.4 51.3 L187.5 51.2 L187.6 51.0 L187.7 50.9 L187.8 50.9 L188.4 50.9 L189.4 50.9 L190.4 50.9 L191.0 50.9 L190.8 51.6 L190.4 52.4 L190.3 52.8 L190.0 53.5 L190.0 54.0 L190.0 54.5 L190.0 55.1 L190.5 55.1 L191.4 55.1 L192.2 55.1 L193.0 55.1 L193.8 55.1 L194.7 55.1 L195.5 55.1 L196.3 55.1 L197.2 55.1 L198.0 55.1 L198.8 55.1 L199.7 55.1 L200.5 55.1 L201.3 55.1 L202.2 55.1 L203.0 55.1 L203.8 55.1 L204.2 55.1 L204.4 55.1 L204.4 55.1 L204.5 55.2 L204.6 55.2 L204.6 55.3 L204.7 55.3 L205.0 55.9 L205.0 56.0 L205.1 56.1 L205.1 56.2 L205.0 56.2 L205.0 56.3 L205.1 56.4 L205.1 56.5 L205.2 56.6 L205.2 56.7 L205.2 56.8 L205.2 56.9 L205.2 57.0 L205.2 57.0 L205.3 57.1 L205.3 57.2 L205.3 57.4 L205.2 57.6 L205.2 57.7 L205.1 57.9 L205.2 57.9 L205.2 58.0 L205.2 58.1 L205.2 58.5 L205.2 58.6 L205.0 58.8 L205.0 58.9 L205.0 59.1 L204.9 59.2 L204.8 59.4 L204.7 59.8 L204.6 60.3 L204.5 60.5 L204.3 60.9 L204.3 61.1 L204.2 61.6 L204.3 61.9 L204.3 62.0 L204.3 62.1 L204.1 62.4 L204.1 62.5 L204.1 63.2 L204.1 63.4 L204.3 63.5 L204.6 63.7 L204.7 63.9 L204.7 64.2 L204.8 64.4 L204.9 64.6 L205.2 64.9 L205.3 65.1 L205.3 65.3 L205.3 65.7 L205.5 66.3 L205.5 66.5 L205.9 66.8 L206.0 67.0 L205.9 67.1 L205.8 67.1 L205.8 67.3 L205.9 67.6 L206.2 68.0 L206.3 68.5 L206.2 69.0 L205.9 69.9 L206.0 69.9 L206.0 69.9 L206.1 69.9 L206.2 69.9 L206.0 70.3 L205.8 70.7 L205.7 71.5 L205.6 72.2 L205.5 72.3 L205.4 72.7 L205.3 73.0 L205.2 73.9 L205.2 74.5 L205.1 75.8 L205.2 76.9 L205.2 77.4 L205.1 77.9 L204.7 78.6 L204.7 79.0 L204.5 79.2 L204.5 79.4 L204.6 79.5 L204.8 79.7 L204.8 79.8 L205.0 80.3 L205.1 81.3 L205.2 81.8 L205.5 82.2 L206.2 83.0 L206.4 83.4 L206.5 83.4 L206.7 83.3 L206.7 83.3 L206.7 83.6 L206.9 84.0 L207.5 84.7 L207.7 84.8 L207.7 84.8 L207.8 84.7 L207.9 84.7 L208.1 84.9 L208.6 85.2 L208.7 85.4 L208.8 85.6 L208.9 86.0 L209.1 86.6 L209.2 87.1 L209.3 87.3 L209.2 87.6 L209.4 88.2 L209.7 88.7 L209.9 89.2 L210.2 89.7 L210.3 90.0 L210.5 90.2 L210.5 90.4 L210.5 90.5 L210.4 90.7 L210.4 90.8 L210.4 91.0 L210.1 91.4 L210.0 91.7 L210.0 91.9 L210.2 92.1 L210.3 92.2 L210.4 92.4 L210.4 92.9 L210.4 93.2 L210.4 93.4 L210.5 93.8 L210.6 94.1 L210.6 94.2 L210.6 94.2 L210.6 94.6 L210.6 94.9 L210.4 95.0 L210.2 95.0 L209.9 95.1 L209.5 95.3 L209.3 95.4 L209.0 95.6 L208.8 95.9 L208.8 96.1 L208.9 96.3 L209.1 97.1 L209.1 97.5 L209.2 97.6 L209.4 97.7 L209.4 97.7 L209.4 97.9 L209.6 98.3 L209.7 98.5 L209.8 99.5 L209.8 100.0 L209.6 100.4 L209.9 100.4 L210.1 100.3 L210.6 99.8 L210.8 99.6 L211.9 99.3 L212.3 99.0 L212.6 98.1 L213.1 98.0 L213.9 98.4 L214.4 98.5 L214.8 98.6 L215.2 98.7 L215.6 98.6 L215.9 98.5 L216.1 98.3 L216.4 98.2 L216.7 98.2 L216.9 98.3 L217.3 98.6 L217.6 98.7 L218.0 98.8 L218.5 98.8 L219.7 98.6 L220.6 98.4 L221.8 97.7 L222.6 97.3 L223.1 97.2 L223.6 97.1 L224.0 97.2 L224.7 97.4 L225.7 97.6 L226.1 97.7 L226.5 97.6 L226.9 97.7 L227.4 97.8 L227.9 97.9 L228.3 97.8 L228.3 97.7 L228.4 97.4 L228.5 97.3 L228.6 97.2 L228.8 97.1 L229.0 97.0 L229.0 96.7 L229.1 96.5 L229.2 96.2 L229.4 96.1 Z" fill="#172033" fill-rule="evenodd"/></svg>
