<svg xmlns="http://www.w3.org/2000/svg" viewBox="0 0 320 200" role="img"><path d="M143.2 26.9 L143.5 26.5 L143.6 26.3 L144.0 26.1 L144.0 26.0 L144.0 25.9 L144.0 25.5 L144.1 25.5 L144.2 25.5 L144.2 25.4 L144.3 25.4 L144.3 25.3 L144.4 25.3 L144.6 25.2 L145.1 25.0 L145.1 25.0 L145.1 25.0 L145.1 24.8 L145.1 24.8 L145.2 24.7 L145.2 24.6 L145.3 24.3 L145.3 24.1 L145.4 24.1 L145.5 24.0 L145.5 23.9 L145.6 23.9 L145.6 24.0 L145.7 24.0 L145.8 24.0 L145.8 24.0 L145.9 24.0 L145.9 23.9 L145.9 23.9 L146.4 23.8 L147.1 23.6 L147.2 23.5 L147.2 23.5 L147.2 23.4 L147.3 23.4 L147.3 23.4 L147.4 23.4 L147.4 23.4 L147.4 23.4 L147.4 23.3 L147.4 23.2 L147.5 22.8 L147.7 22.0 L147.8 22.0 L148.2 22.1 L148.4 22.2 L148.5 22.4 L148.6 22.6 L148.6 22.6 L149.0 22.7 L149.1 22.7 L149.7 23.4 L149.9 23.5 L150.0 23.5 L150.7 23.5 L150.7 23.4 L150.7 23.4 L150.8 23.4 L150.8 23.4 L151.1 23.4 L151.4 23.5 L152.6 23.5 L153.4 23.5 L154.3 23.6 L154.6 23.8 L154.8 23.9 L154.9 23.9 L154.9 23.8 L155.0 23.8 L155.0 23.8 L155.1 23.8 L155.2 23.9 L155.3 23.9 L155.4 24.0 L155.5 24.0 L155.6 24.1 L155.6 24.2 L155.7 24.3 L155.7 24.4 L155.6 24.4 L155.6 24.5 L155.5 24.6 L155.6 24.7 L155.7 24.8 L155.7 24.8 L155.8 24.9 L155.7 24.9 L155.7 25.0 L155.7 25.0 L155.8 25.1 L155.8 25.1 L155.9 25.2 L155.9 25.3 L156.2 25.5 L156.2 25.6 L156.2 25.7 L156.1 25.7 L156.1 25.8 L156.1 25.8 L156.1 25.9 L156.1 25.9 L156.1 26.0 L156.1 26.0 L156.1 26.1 L156.2 26.1 L156.3 26.3 L156.4 26.4 L156.5 26.4 L156.5 26.5 L156.6 26.7 L156.5 26.8 L156.6 26.8 L156.6 27.0 L156.7 27.1 L156.7 27.0 L156.8 26.7 L156.8 26.6 L156.8 26.2 L157.0 25.5 L157.1 25.4 L157.3 25.2 L157.5 25.1 L157.8 24.2 L157.8 24.2 L157.9 24.1 L158.0 24.1 L158.1 23.7 L158.2 23.5 L158.2 23.4 L158.2 23.4 L158.3 23.4 L158.3 23.3 L158.4 23.3 L158.4 23.3 L158.4 23.2 L158.4 23.1 L158.4 23.0 L158.5 23.0 L158.5 23.0 L158.6 23.0 L159.1 23.0 L159.2 23.1 L159.4 23.2 L159.4 23.2 L159.6 23.1 L159.7 23.0 L159.9 23.0 L161.4 23.0 L162.8 23.0 L162.8 23.0 L163.5 23.0 L163.7 23.0 L163.8 23.0 L163.8 23.1 L163.9 23.2 L163.9 23.3 L163.8 23.3 L163.9 23.4 L163.9 23.5 L163.9 23.6 L164.0 23.7 L164.2 23.8 L164.4 23.9 L164.5 24.0 L164.5 24.0 L164.5 24.1 L164.5 24.1 L164.5 24.1 L164.6 24.1 L164.6 24.1 L164.7 24.2 L164.7 24.2 L164.6 24.2 L164.7 24.3 L164.7 24.3 L164.6 24.3 L164.6 24.4 L164.7 24.4 L164.7 24.5 L164.8 24.5 L164.8 24.5 L164.9 24.5 L165.0 24.6 L165.1 24.7 L165.2 24.7 L165.4 24.8 L165.4 24.8 L165.5 24.9 L165.5 25.0 L165.9 25.2 L165.9 25.2 L166.0 25.2 L166.2 25.2 L166.2 25.2 L166.2 25.3 L166.2 25.3 L166.3 25.3 L166.3 25.4 L166.3 25.4 L166.3 25.4 L166.3 25.4 L166.3 25.4 L166.5 25.5 L166.5 25.6 L166.5 25.7 L166.4 25.8 L166.4 25.8 L166.5 25.9 L166.6 25.9 L166.6 25.9 L166.7 25.9 L166.7 25.9 L166.7 26.0 L166.7 26.1 L166.7 26.2 L166.8 26.2 L166.7 26.3 L166.7 26.3 L166.8 26.4 L166.8 26.4 L166.8 26.5 L166.9 26.5 L167.0 26.6 L167.0 26.7 L167.0 26.7 L167.0 26.7 L167.1 26.8 L167.1 26.8 L167.1 26.8 L167.2 26.8 L167.2 26.8 L167.2 26.9 L167.2 27.0 L167.3 27.1 L167.4 27.1 L167.5 27.3 L167.6 27.4 L167.6 27.4 L167.5 27.5 L167.6 27.6 L167.6 27.6 L167.6 27.7 L167.8 27.9 L168.3 28.1 L168.3 28.2 L168.5 28.3 L168.5 28.4 L168.6 28.4 L168.7 28.5 L168.7 28.5 L168.7 28.6 L168.8 28.6 L168.8 28.7 L168.8 28.8 L168.8 28.8 L168.9 28.9 L169.0 28.9 L169.0 29.0 L169.1 29.0 L169.1 29.0 L169.4 29.0 L169.4 29.0 L169.7 29.3 L169.7 29.3 L169.8 29.3 L169.9 29.3 L169.8 29.3 L169.8 29.4 L169.8 29.4 L169.9 29.5 L169.9 29.6 L170.0 29.6 L170.1 29.6 L170.2 29.6 L170.2 29.7 L170.3 29.7 L170.4 29.8 L170.4 29.8 L170.5 29.8 L170.6 29.8 L170.9 29.9 L170.9 30.0 L170.9 30.1 L171.0 30.1 L171.1 30.2 L171.1 30.2 L171.2 30.3 L171.3 30.3 L171.3 30.3 L171.4 30.3 L171.4 30.3 L171.5 30.3 L171.5 30.4 L171.6 30.5 L171.7 30.5 L171.8 30.5 L171.8 30.6 L171.8 30.7 L171.7 30.8 L171.8 30.9 L171.8 31.0 L172.0 31.0 L172.0 31.1 L172.1 31.2 L172.1 31.3 L172.1 31.3 L172.2 31.4 L172.2 31.5 L172.4 31.6 L172.6 31.5 L172.7 31.6 L172.9 31.7 L173.0 31.8 L173.1 31.8 L173.3 31.8 L173.5 31.8 L173.6 31.8 L173.7 31.9 L173.7 31.9 L173.9 31.9 L174.0 31.9 L174.1 31.9 L174.1 31.9 L174.2 31.9 L174.2 32.0 L174.3 32.1 L174.3 32.1 L174.4 32.1 L174.5 32.2 L174.7 32.3 L175.0 32.3 L175.1 32.3 L175.2 32.3 L175.2 32.4 L175.3 32.4 L175.4 32.5 L175.4 32.5 L175.6 32.5 L175.9 32.5 L176.3 32.5 L176.4 32.5 L176.6 32.4 L176.7 32.4 L176.8 32.4 L178.5 33.4 L178.7 33.6 L178.8 33.7 L178.8 33.7 L178.8 33.8 L179.0 33.8 L179.0 33.8 L179.1 33.8 L179.2 33.9 L179.2 33.9 L179.3 33.9 L179.4 34.0 L179.5 34.0 L179.5 34.1 L179.5 34.1 L179.5 34.1 L179.5 34.2 L179.7 34.2 L179.8 34.4 L179.9 34.4 L180.0 34.6 L180.1 34.7 L180.2 34.7 L180.3 34.8 L180.3 34.8 L180.4 34.8 L180.4 34.8 L180.4 34.9 L180.5 34.9 L180.7 35.0 L180.8 35.0 L180.9 35.1 L181.1 35.2 L181.2 35.2 L181.3 35.2 L181.3 35.2 L181.4 35.3 L181.5 35.3 L181.5 35.4 L181.6 35.4 L182.5 36.0 L182.6 36.0 L182.9 36.0 L183.0 36.1 L183.0 36.1 L183.0 36.1 L183.1 36.1 L183.1 36.2 L183.1 36.2 L184.1 36.4 L184.2 36.4 L184.3 36.5 L184.4 36.6 L184.7 36.9 L184.7 37.0 L184.7 37.0 L184.8 37.0 L184.8 37.0 L184.9 37.0 L184.9 37.0 L185.0 37.0 L185.1 36.8 L185.2 36.8 L185.3 36.8 L185.7 37.1 L185.8 37.1 L185.8 37.1 L186.1 37.3 L186.2 37.3 L186.3 37.3 L186.3 37.3 L186.4 37.3 L186.4 37.4 L186.4 37.4 L186.5 37.4 L186.9 37.4 L186.9 37.5 L187.0 37.5 L187.2 37.7 L187.3 37.8 L187.4 37.9 L187.5 37.9 L187.6 38.2 L187.7 38.3 L187.9 38.4 L187.9 38.4 L188.0 38.8 L188.0 38.8 L188.3 39.0 L188.4 39.1 L188.4 39.1 L188.4 39.2 L188.4 39.6 L188.3 39.7 L188.3 39.8 L188.2 39.8 L188.2 39.8 L188.1 39.9 L188.1 40.0 L188.0 40.0 L187.9 39.9 L187.9 40.0 L187.9 40.1 L187.8 40.1 L187.8 40.1 L187.8 40.1 L187.7 40.1 L187.7 40.1 L187.6 40.2 L187.5 40.2 L187.4 40.4 L187.4 40.4 L187.5 40.4 L187.5 40.4 L187.6 40.5 L187.5 40.5 L187.4 40.6 L187.3 40.7 L187.3 40.7 L187.2 40.7 L187.2 40.8 L187.3 41.0 L187.2 41.0 L187.2 41.1 L187.1 41.1 L187.0 41.1 L186.9 41.2 L186.9 41.2 L186.9 41.2 L187.0 41.3 L187.0 41.3 L187.0 41.4 L187.0 41.4 L186.8 41.5 L186.8 41.6 L187.0 41.7 L187.0 41.7 L186.9 41.8 L186.4 42.2 L186.2 42.3 L185.9 42.4 L185.9 42.4 L185.8 42.6 L185.8 42.7 L185.8 42.7 L185.7 42.7 L185.7 42.6 L185.7 42.6 L185.6 42.6 L185.6 42.7 L185.7 42.7 L185.8 42.8 L185.8 42.8 L185.8 42.9 L185.8 42.9 L185.7 43.0 L185.6 43.0 L185.5 43.0 L185.5 43.1 L185.6 43.3 L185.6 43.3 L185.5 43.4 L185.4 43.6 L185.3 43.7 L185.4 43.8 L185.5 43.9 L185.5 43.9 L185.4 44.0 L185.4 44.0 L185.4 44.1 L185.3 44.2 L185.3 44.2 L185.3 44.3 L185.4 44.3 L185.5 44.4 L185.5 44.4 L185.5 44.5 L185.6 44.5 L185.5 44.6 L185.5 44.6 L185.4 44.6 L185.4 44.7 L185.5 44.7 L185.5 44.8 L185.5 44.8 L185.5 44.8 L185.4 44.8 L185.3 44.8 L185.3 44.8 L185.2 44.8 L185.2 44.9 L185.2 44.9 L185.2 45.3 L185.2 45.3 L185.1 45.3 L185.1 45.3 L185.0 45.4 L185.0 45.4 L185.0 45.5 L185.1 45.5 L185.0 45.6 L184.9 45.6 L184.8 45.5 L184.7 45.5 L184.7 45.7 L184.7 45.7 L184.8 45.8 L184.9 45.9 L184.8 45.9 L184.6 45.9 L184.5 46.0 L184.5 46.0 L184.4 46.1 L184.2 46.1 L184.1 46.2 L184.1 46.2 L184.1 46.3 L184.2 46.3 L184.1 46.4 L184.0 46.5 L184.0 46.6 L184.0 46.6 L184.0 46.6 L184.0 46.7 L183.9 46.7 L183.9 46.7 L183.9 46.7 L183.9 46.7 L183.9 46.7 L183.9 46.7 L183.9 46.6 L183.8 46.6 L183.8 46.6 L183.8 46.6 L183.8 46.7 L183.7 46.7 L183.7 46.7 L183.7 46.8 L183.7 46.9 L183.7 46.9 L183.7 47.0 L183.5 47.0 L183.3 47.1 L183.3 47.2 L183.3 47.3 L183.3 47.4 L183.3 47.4 L183.5 47.5 L183.5 47.6 L183.5 47.7 L183.5 47.9 L183.5 47.9 L183.5 47.9 L183.9 47.8 L185.2 47.7 L185.7 47.7 L185.8 47.7 L186.1 47.7 L186.2 47.7 L186.2 47.7 L186.3 47.7 L186.6 47.7 L186.6 47.7 L186.7 47.8 L186.8 47.8 L187.0 47.8 L187.0 47.8 L187.2 47.9 L187.2 47.9 L187.7 48.0 L187.8 48.0 L187.8 48.0 L188.5 48.4 L188.6 48.4 L188.6 48.4 L188.7 48.4 L189.2 48.3 L189.3 48.3 L189.4 48.3 L189.5 48.4 L189.5 48.4 L189.6 48.5 L189.6 48.5 L189.7 48.5 L189.7 48.5 L189.9 48.6 L189.9 48.6 L190.0 48.6 L190.1 48.7 L190.1 48.7 L190.2 48.7 L190.2 48.7 L190.3 48.7 L190.3 48.7 L190.5 48.7 L190.7 48.7 L191.1 48.5 L191.3 48.4 L191.5 48.4 L191.5 48.4 L191.6 48.5 L191.9 48.7 L192.1 48.8 L192.1 48.8 L192.3 48.8 L192.5 48.6 L192.7 48.6 L192.8 48.5 L193.2 48.6 L193.2 48.6 L193.3 48.8 L193.4 48.9 L193.6 49.0 L193.7 49.1 L193.8 49.2 L193.8 49.2 L194.0 49.2 L194.1 49.1 L194.1 48.9 L194.2 48.8 L194.3 48.7 L194.4 48.6 L194.4 48.5 L194.4 48.4 L194.4 48.3 L194.5 48.2 L194.7 48.2 L194.8 48.1 L194.9 48.0 L195.0 47.9 L195.1 47.8 L195.3 47.9 L195.4 47.9 L195.4 47.9 L195.7 48.0 L195.8 48.0 L195.9 48.0 L195.9 48.0 L196.0 48.0 L196.1 48.0 L196.2 48.0 L196.3 48.1 L196.4 48.3 L196.4 48.3 L196.5 48.4 L196.6 48.4 L196.9 48.5 L197.0 48.4 L197.2 48.2 L197.3 48.1 L197.5 48.1 L197.6 48.1 L197.6 48.0 L197.7 47.9 L197.7 47.8 L197.7 47.8 L197.7 47.7 L197.7 47.6 L197.7 47.6 L197.7 47.6 L197.7 47.5 L197.6 47.3 L197.6 47.2 L197.7 47.2 L197.8 47.2 L197.8 47.1 L197.9 47.0 L197.9 46.9 L198.0 46.9 L198.1 46.9 L198.2 46.9 L198.3 46.8 L198.3 46.6 L198.3 46.5 L198.4 46.4 L198.5 46.4 L198.6 46.3 L198.6 46.3 L198.9 46.3 L199.1 46.1 L199.2 46.1 L199.3 46.2 L199.4 46.2 L199.5 46.2 L199.7 46.2 L199.8 46.2 L199.8 46.2 L199.9 46.1 L199.8 45.9 L199.8 45.8 L200.1 45.5 L200.2 45.5 L200.4 45.5 L200.5 45.5 L200.6 45.4 L200.6 45.3 L200.7 45.2 L200.7 45.0 L200.8 44.9 L200.9 44.9 L201.0 44.8 L201.2 44.8 L201.2 44.8 L201.2 44.9 L201.3 44.9 L201.3 44.9 L201.4 44.8 L201.4 44.7 L201.4 44.6 L201.4 44.5 L201.4 44.4 L201.4 44.3 L201.4 44.2 L201.4 44.2 L201.5 44.1 L201.6 44.0 L201.8 43.8 L201.8 43.8 L201.9 43.7 L201.9 43.4 L201.9 43.4 L201.9 43.4 L202.0 43.2 L202.0 43.0 L202.0 42.9 L202.0 42.9 L202.0 42.9 L202.0 42.8 L202.1 42.7 L202.1 42.7 L202.1 42.6 L202.0 42.5 L202.0 42.5 L202.1 42.2 L202.1 42.1 L202.0 41.9 L202.0 41.8 L202.0 41.7 L202.0 41.7 L202.0 41.6 L202.1 41.6 L202.2 41.6 L202.2 41.6 L202.3 41.5 L202.3 41.4 L202.2 41.2 L202.2 41.1 L202.3 41.1 L202.3 41.0 L202.3 40.9 L202.3 40.8 L202.2 40.7 L202.2 40.6 L202.2 40.5 L202.1 40.3 L202.1 40.2 L202.1 40.1 L202.3 40.1 L202.4 40.1 L202.4 40.0 L202.3 39.8 L202.3 39.8 L202.5 39.7 L202.5 39.8 L202.6 39.8 L202.6 39.9 L202.6 39.9 L202.7 39.9 L202.8 39.9 L202.9 40.0 L202.9 40.1 L203.0 40.2 L203.0 40.2 L203.0 40.3 L203.0 40.3 L203.0 40.3 L203.1 40.2 L203.0 40.1 L203.0 40.1 L203.1 40.1 L203.2 40.0 L203.2 40.0 L203.2 39.9 L203.2 39.9 L203.2 39.8 L203.2 39.8 L203.3 39.8 L203.3 39.8 L203.4 39.8 L203.5 39.8 L203.5 39.7 L203.6 39.7 L203.7 39.7 L203.8 39.7 L203.8 39.7 L203.9 39.8 L203.9 39.9 L203.9 39.9 L204.0 39.8 L204.0 39.8 L204.0 39.8 L204.1 39.8 L204.2 39.8 L204.2 39.7 L204.1 39.6 L204.1 39.5 L204.2 39.6 L204.3 39.6 L204.3 39.6 L204.4 39.5 L204.5 39.4 L204.5 39.4 L204.6 39.4 L204.6 39.4 L204.6 39.4 L204.6 39.5 L204.5 39.6 L204.5 39.7 L204.5 39.7 L204.5 39.8 L204.6 39.8 L204.6 39.9 L204.7 39.9 L204.7 39.8 L204.7 39.8 L204.7 39.7 L204.7 39.7 L204.7 39.6 L204.8 39.7 L204.8 39.7 L204.9 39.7 L204.9 39.7 L205.0 39.7 L205.0 39.7 L205.1 39.8 L205.2 39.8 L205.2 39.9 L205.2 40.0 L205.3 40.1 L205.3 40.1 L205.5 40.0 L205.6 40.1 L205.6 40.2 L205.7 40.3 L205.7 40.4 L205.7 40.4 L205.6 40.5 L205.6 40.5 L205.7 40.6 L205.8 40.6 L205.8 40.7 L205.8 40.8 L205.9 40.9 L205.8 41.1 L205.9 41.4 L205.9 41.4 L205.9 41.5 L205.9 41.5 L205.9 41.6 L205.9 41.6 L206.1 41.8 L206.1 41.8 L206.1 41.8 L206.2 41.9 L206.3 42.0 L206.3 42.2 L206.4 42.4 L206.6 42.6 L206.7 42.8 L206.7 43.0 L206.6 43.1 L206.4 43.4 L206.4 43.5 L206.4 44.0 L206.4 44.1 L206.4 44.1 L206.4 44.2 L206.3 44.2 L206.3 44.2 L206.3 44.3 L206.4 44.3 L206.4 44.3 L206.4 44.3 L206.4 44.4 L206.3 44.6 L206.3 44.7 L206.3 44.8 L206.3 44.9 L206.3 45.0 L206.3 45.0 L206.2 45.0 L206.2 45.1 L206.2 45.1 L206.2 45.2 L206.2 45.2 L206.3 45.2 L206.3 45.2 L206.3 45.3 L206.3 45.3 L206.3 45.4 L206.3 45.4 L206.3 45.4 L206.3 45.4 L206.4 45.6 L206.5 45.9 L206.4 46.0 L206.4 46.2 L206.2 46.6 L206.2 46.6 L206.1 46.6 L206.1 46.6 L206.0 46.6 L206.0 46.7 L206.0 46.8 L206.0 46.9 L206.0 46.9 L205.9 47.0 L205.9 47.0 L205.9 47.0 L206.0 47.1 L205.9 47.1 L205.9 47.2 L205.8 47.2 L205.8 47.2 L205.8 47.1 L205.7 47.0 L205.7 47.0 L205.6 47.0 L205.6 47.2 L205.5 47.2 L205.5 47.2 L205.4 47.2 L205.3 47.1 L205.3 47.2 L205.3 47.2 L205.3 47.3 L205.3 47.3 L205.2 47.4 L205.2 47.4 L205.1 47.3 L205.1 47.3 L205.1 47.3 L205.0 47.4 L205.0 47.4 L204.7 47.8 L204.5 47.8 L204.4 47.8 L204.4 47.7 L204.3 47.6 L204.3 47.6 L204.2 47.7 L204.1 48.0 L204.1 48.0 L204.0 48.1 L204.0 48.1 L204.0 48.2 L204.0 48.2 L204.0 48.2 L203.9 48.3 L203.9 48.3 L203.9 48.3 L203.8 48.4 L203.8 48.4 L203.8 48.4 L203.8 48.5 L203.7 48.5 L203.6 48.4 L203.5 48.4 L203.5 48.3 L203.5 48.4 L203.5 48.5 L203.4 48.5 L203.4 48.6 L203.4 48.6 L203.3 48.5 L203.3 48.4 L203.3 48.4 L203.2 48.4 L203.0 48.4 L202.9 48.4 L202.9 48.4 L203.0 48.5 L203.0 48.6 L202.9 48.7 L202.6 48.7 L202.6 48.7 L202.5 48.7 L202.5 48.7 L202.4 48.6 L202.4 48.6 L202.4 48.6 L202.4 48.6 L202.3 48.6 L202.3 48.6 L202.3 48.6 L202.2 48.7 L202.2 48.8 L202.2 48.9 L202.1 48.9 L202.0 48.9 L202.0 48.8 L202.0 48.8 L202.0 48.8 L201.9 48.8 L201.9 48.9 L201.9 49.0 L201.9 49.0 L201.9 49.0 L201.9 49.0 L201.8 49.0 L201.7 49.0 L201.7 49.0 L201.5 49.1 L201.4 49.1 L201.4 49.1 L201.4 49.0 L201.4 49.0 L201.4 49.0 L201.4 49.0 L201.4 49.0 L201.4 49.0 L201.4 48.9 L201.3 48.9 L201.3 49.0 L201.2 49.0 L201.2 49.1 L201.2 49.2 L201.1 49.3 L201.0 49.4 L200.9 49.4 L200.9 49.4 L200.9 49.5 L200.9 49.8 L200.8 49.9 L200.8 49.9 L200.7 49.9 L200.5 50.1 L200.4 50.1 L200.3 50.1 L200.2 50.1 L200.1 50.1 L200.0 50.1 L200.1 50.2 L200.2 50.3 L200.3 50.4 L200.3 50.4 L200.2 50.4 L200.1 50.4 L200.0 50.4 L199.9 50.4 L199.9 50.4 L199.9 50.4 L199.9 50.6 L199.8 50.6 L199.7 50.5 L199.6 50.5 L199.5 50.5 L199.4 50.6 L199.4 50.6 L199.2 50.8 L199.1 50.8 L199.1 50.8 L199.0 50.7 L198.9 50.7 L198.9 50.8 L198.8 50.9 L198.8 51.0 L198.7 51.0 L198.7 51.0 L198.6 51.0 L198.6 51.0 L198.6 51.1 L198.6 51.2 L198.6 51.2 L198.6 51.3 L198.4 51.5 L198.3 51.5 L198.2 51.5 L198.2 51.5 L198.1 51.5 L198.1 51.5 L198.1 51.5 L198.0 51.5 L198.0 51.5 L198.0 51.6 L197.9 51.7 L197.9 51.7 L197.9 51.7 L197.8 51.8 L197.8 51.8 L197.8 51.8 L197.8 51.8 L197.7 51.8 L197.7 51.8 L197.7 51.7 L197.7 51.7 L197.6 51.7 L197.5 51.7 L197.5 51.8 L197.5 51.8 L197.4 51.9 L197.4 51.9 L197.2 52.1 L196.9 52.1 L196.8 52.2 L196.8 52.3 L196.9 52.4 L197.1 52.5 L197.1 52.5 L197.2 52.5 L197.2 52.6 L197.3 52.7 L197.2 52.9 L197.2 53.0 L197.2 53.0 L197.1 53.0 L197.1 53.0 L197.0 52.9 L197.0 52.9 L196.8 52.8 L196.6 52.8 L196.5 52.8 L196.2 52.8 L196.2 52.9 L196.2 53.0 L196.2 53.0 L196.2 53.3 L196.2 53.3 L196.2 53.3 L196.1 53.3 L196.1 53.4 L195.9 53.4 L195.8 53.4 L195.7 53.5 L195.6 53.5 L195.6 53.6 L195.6 53.7 L195.6 53.9 L195.5 54.0 L195.2 54.2 L194.9 54.6 L194.7 54.7 L194.5 54.8 L194.4 54.8 L194.3 54.9 L194.3 55.3 L194.2 55.4 L193.9 55.6 L193.8 55.8 L193.8 56.0 L193.8 56.1 L193.7 56.2 L193.6 56.2 L193.3 56.3 L193.2 56.3 L193.0 56.4 L192.8 56.6 L192.7 56.7 L192.7 56.8 L192.6 56.9 L192.6 56.9 L192.7 57.0 L192.6 57.1 L192.5 57.3 L192.5 57.4 L192.4 57.4 L192.4 57.5 L192.2 57.5 L192.1 57.6 L192.1 57.6 L192.1 57.6 L192.1 57.7 L192.1 57.7 L192.1 57.8 L192.0 57.8 L192.0 57.9 L191.9 57.9 L191.9 58.0 L191.9 58.0 L191.9 58.1 L191.5 58.3 L191.5 58.4 L191.4 58.4 L191.3 58.6 L191.2 58.6 L191.1 58.8 L191.0 58.9 L191.0 59.0 L190.9 59.0 L190.6 59.4 L190.5 59.4 L190.4 59.4 L190.2 59.5 L190.0 59.5 L189.8 59.5 L189.7 59.6 L189.6 59.8 L189.5 60.4 L189.5 60.4 L189.1 60.7 L188.7 61.2 L188.5 61.3 L188.4 61.3 L188.2 61.4 L188.1 61.4 L188.0 61.4 L188.0 61.5 L188.1 61.7 L188.1 61.9 L188.0 62.1 L187.0 62.8 L186.9 62.9 L186.9 63.1 L186.9 63.3 L187.0 63.5 L187.1 63.6 L187.2 63.8 L187.2 63.9 L187.2 64.0 L187.3 64.1 L187.3 64.2 L187.3 64.3 L187.3 64.5 L187.3 64.6 L187.3 64.7 L187.2 64.8 L187.2 64.8 L187.1 64.8 L186.9 64.8 L186.8 64.9 L186.8 65.0 L186.8 65.0 L187.0 65.3 L187.0 65.5 L186.9 65.6 L186.8 65.8 L186.8 66.0 L186.8 66.2 L186.8 66.3 L186.7 66.4 L186.6 66.6 L186.6 66.6 L186.5 66.6 L186.5 66.7 L186.5 66.8 L186.4 67.0 L186.4 67.1 L186.3 67.1 L186.1 67.2 L186.0 67.3 L186.0 67.4 L186.1 67.6 L186.2 67.6 L186.3 67.7 L186.4 67.8 L186.4 68.0 L186.4 68.2 L186.1 68.9 L186.1 69.0 L186.0 69.0 L185.7 69.1 L185.6 69.1 L185.6 69.2 L185.4 69.3 L185.4 69.4 L185.4 69.5 L185.6 69.6 L185.6 69.8 L185.7 70.0 L185.6 70.2 L185.6 70.4 L185.5 70.5 L185.5 70.6 L185.5 70.7 L185.8 71.1 L185.9 71.2 L185.9 71.4 L185.6 71.7 L185.5 71.9 L185.4 72.0 L185.4 72.0 L185.4 72.0 L185.3 72.2 L185.3 72.4 L185.3 73.0 L185.4 73.3 L185.5 73.8 L185.5 73.9 L185.7 74.0 L185.7 74.1 L185.7 74.2 L185.6 74.4 L185.6 74.5 L185.6 74.7 L185.7 74.8 L185.6 74.9 L185.4 75.0 L185.4 75.0 L185.3 75.0 L185.2 75.0 L184.5 74.9 L184.4 75.0 L184.4 75.0 L184.3 75.1 L184.3 75.1 L184.4 75.1 L184.4 75.2 L184.4 75.2 L184.4 75.3 L184.4 75.4 L184.3 75.6 L184.3 75.7 L184.4 75.9 L184.4 76.0 L184.4 76.0 L184.3 76.1 L184.2 76.2 L184.1 76.3 L184.0 76.5 L183.9 76.7 L183.8 76.9 L183.8 77.1 L183.9 77.3 L183.9 77.3 L183.8 77.4 L183.8 77.8 L183.8 77.9 L183.8 78.1 L183.9 78.2 L184.1 78.5 L184.2 78.6 L184.2 78.7 L184.2 78.9 L184.3 79.2 L184.3 79.2 L184.2 79.3 L184.2 79.3 L184.2 79.3 L184.3 79.3 L184.3 79.4 L184.5 79.4 L184.5 79.4 L184.5 79.5 L184.5 79.6 L184.5 79.8 L184.5 79.9 L184.5 80.0 L184.5 80.0 L184.6 80.1 L184.6 80.2 L184.4 80.3 L184.4 80.3 L184.4 80.4 L184.3 80.4 L184.3 80.5 L184.2 80.6 L184.1 80.6 L184.0 80.5 L184.0 80.5 L183.8 80.5 L183.8 80.6 L183.7 80.6 L183.7 80.6 L183.7 80.6 L183.9 80.8 L184.0 80.8 L184.2 80.9 L184.2 81.0 L184.1 81.1 L184.1 81.2 L184.0 81.2 L183.9 81.3 L183.9 81.4 L184.0 81.4 L184.1 81.5 L184.1 81.6 L184.1 81.7 L184.1 81.7 L184.2 81.8 L184.3 81.8 L184.4 81.9 L184.6 82.0 L184.6 82.0 L184.7 82.1 L184.8 82.2 L184.9 82.4 L185.2 82.6 L185.5 82.7 L185.6 82.8 L185.8 82.8 L185.9 82.8 L186.0 82.9 L186.2 82.9 L186.3 83.0 L186.5 83.1 L186.6 83.2 L186.9 83.2 L186.9 83.2 L187.0 83.3 L187.2 83.4 L187.5 83.5 L187.8 83.7 L188.2 83.9 L188.6 84.0 L188.7 84.2 L188.9 84.3 L189.4 84.7 L189.6 84.9 L189.8 85.0 L189.9 85.1 L190.1 85.4 L190.3 85.7 L190.4 85.9 L190.4 86.0 L190.4 86.2 L190.2 86.4 L190.0 86.6 L189.5 87.2 L189.4 87.4 L189.3 87.5 L189.3 87.7 L189.2 87.9 L189.2 88.0 L189.2 88.2 L189.3 88.4 L189.3 88.5 L189.3 88.5 L189.3 88.6 L189.4 88.7 L189.4 88.7 L189.4 88.7 L189.5 89.0 L189.6 89.1 L189.6 89.1 L189.7 89.2 L189.8 89.2 L189.8 89.3 L189.8 89.4 L189.9 89.5 L190.5 90.0 L191.0 90.2 L191.2 90.3 L191.3 90.3 L191.4 90.4 L191.3 90.4 L191.3 90.5 L191.4 90.4 L191.5 90.3 L191.7 90.3 L191.8 90.3 L192.1 90.3 L192.1 90.2 L192.1 90.1 L192.1 90.1 L192.2 90.1 L192.3 90.2 L192.3 90.4 L192.4 90.4 L192.4 90.5 L192.4 91.1 L192.6 91.4 L192.6 91.5 L192.6 92.1 L192.6 92.6 L192.6 92.8 L192.5 93.0 L192.0 93.5 L191.6 94.1 L190.9 95.0 L190.8 95.3 L190.3 95.9 L190.1 96.0 L189.6 96.4 L189.4 96.6 L189.3 96.7 L189.3 96.7 L188.9 97.1 L188.7 97.2 L188.6 97.4 L188.6 97.6 L188.5 97.8 L188.5 98.0 L188.5 98.1 L188.5 98.1 L188.6 98.1 L188.5 98.2 L188.5 98.2 L188.5 98.2 L188.5 98.4 L188.5 98.4 L188.4 98.6 L188.2 98.7 L187.8 99.0 L187.3 99.2 L187.0 99.4 L186.3 99.8 L186.1 99.8 L186.0 99.8 L185.8 100.0 L185.6 100.0 L185.1 100.2 L184.9 100.3 L184.8 100.3 L184.4 100.4 L184.0 100.5 L183.7 100.7 L182.9 100.8 L181.9 101.1 L181.7 101.2 L181.5 101.2 L181.4 101.3 L180.0 101.5 L178.7 101.7 L177.9 102.0 L177.8 102.0 L177.5 102.0 L175.3 102.3 L174.6 102.4 L173.9 102.5 L172.9 102.6 L172.4 102.6 L172.3 102.6 L172.2 102.6 L172.1 102.6 L172.1 102.6 L172.0 102.6 L171.6 102.7 L170.7 102.6 L170.3 102.6 L170.0 102.7 L169.9 102.8 L169.8 102.8 L169.1 102.7 L169.0 102.6 L169.0 102.6 L168.9 102.6 L168.9 102.6 L168.8 102.6 L168.8 102.6 L168.8 102.6 L168.8 102.6 L168.6 102.6 L168.3 102.6 L167.5 102.4 L167.3 102.4 L167.1 102.3 L167.1 102.1 L167.0 102.0 L166.9 101.9 L166.8 101.8 L166.1 101.8 L166.0 101.8 L165.9 101.7 L165.8 101.8 L165.8 101.9 L165.8 101.9 L165.8 102.0 L165.9 102.2 L165.8 102.3 L165.9 102.2 L166.0 102.2 L166.0 102.2 L166.0 102.3 L166.0 102.5 L166.0 102.5 L166.1 102.5 L166.1 102.5 L166.3 102.5 L166.3 102.5 L166.3 102.6 L166.2 102.7 L166.3 102.7 L166.1 102.8 L166.1 102.8 L166.0 103.0 L166.0 103.1 L165.9 103.1 L165.9 103.2 L165.9 103.2 L165.9 103.2 L166.0 103.3 L166.0 103.3 L166.0 103.4 L166.0 103.5 L166.0 103.5 L166.0 103.6 L166.1 103.7 L166.3 103.8 L166.4 103.9 L166.3 103.9 L166.2 103.9 L166.1 103.9 L166.1 103.9 L166.1 104.0 L166.2 104.0 L166.3 104.0 L166.7 104.0 L166.8 104.1 L167.2 104.2 L167.4 104.3 L167.5 104.4 L167.5 104.5 L167.5 104.5 L167.4 104.6 L167.4 104.6 L167.3 104.7 L167.3 104.6 L167.2 104.6 L167.2 104.6 L167.1 104.6 L166.9 104.4 L166.8 104.3 L166.7 104.3 L166.7 104.2 L166.7 104.2 L166.7 104.2 L166.6 104.2 L166.6 104.2 L166.6 104.2 L166.5 104.2 L166.3 104.2 L166.3 104.2 L166.3 104.3 L166.3 104.3 L166.3 104.3 L166.4 104.3 L166.5 104.3 L166.5 104.3 L166.5 104.4 L166.6 104.5 L166.7 104.6 L166.9 104.7 L166.9 104.8 L167.2 104.8 L167.3 104.8 L167.3 104.8 L167.3 104.9 L167.3 104.9 L167.3 105.0 L167.3 105.0 L167.2 105.1 L167.2 105.4 L167.2 105.5 L167.2 105.5 L167.1 106.2 L167.0 106.6 L167.0 106.7 L167.0 106.7 L166.8 106.7 L166.8 106.7 L166.5 106.7 L166.4 106.7 L166.2 106.5 L166.1 106.6 L166.2 106.6 L166.3 106.7 L166.1 106.8 L166.1 106.8 L166.1 106.9 L166.1 107.0 L166.1 107.1 L166.0 107.2 L166.0 107.4 L165.9 107.6 L165.9 107.6 L165.9 107.7 L166.0 107.9 L166.0 108.0 L165.9 108.2 L165.9 108.3 L165.9 108.4 L165.8 108.5 L165.6 108.5 L165.5 108.5 L165.5 108.6 L165.4 108.7 L165.3 108.8 L165.3 108.9 L165.3 108.9 L165.4 109.1 L165.5 109.4 L165.6 109.4 L165.6 109.5 L165.6 109.6 L165.7 109.6 L165.8 109.6 L166.0 109.7 L166.0 109.7 L166.1 109.8 L166.1 109.9 L166.1 109.9 L166.1 109.9 L166.2 110.0 L166.3 110.1 L166.3 110.0 L166.4 110.2 L166.4 110.3 L166.3 110.4 L166.1 110.4 L166.1 110.3 L166.0 110.2 L166.0 110.2 L166.0 110.3 L166.0 110.3 L166.0 110.3 L166.0 110.4 L166.0 110.4 L166.0 110.5 L166.0 110.5 L166.0 110.5 L166.0 110.5 L166.1 110.6 L166.4 110.4 L166.6 110.4 L166.7 110.4 L166.7 110.4 L166.5 110.5 L166.5 110.6 L166.5 110.6 L166.4 110.8 L166.4 110.8 L166.4 110.9 L166.3 111.1 L166.1 111.4 L166.0 111.5 L165.3 111.8 L164.7 112.1 L164.4 112.2 L164.3 112.2 L164.3 112.3 L164.2 112.3 L164.1 112.3 L163.9 112.3 L163.8 112.3 L163.8 112.3 L163.7 112.4 L163.6 112.4 L163.5 112.5 L163.2 112.6 L162.6 112.8 L162.4 112.8 L161.4 112.8 L161.2 112.8 L161.1 112.9 L160.6 112.8 L160.0 112.9 L159.2 112.8 L159.0 112.8 L158.8 112.7 L158.4 112.4 L158.2 112.3 L158.0 112.3 L157.9 112.3 L157.9 112.2 L157.9 112.2 L158.0 112.1 L157.9 112.1 L157.8 112.1 L157.7 112.2 L157.6 112.2 L157.4 112.1 L156.2 111.7 L155.6 111.6 L155.2 111.4 L154.8 111.3 L154.5 111.3 L154.2 111.3 L154.1 111.3 L153.9 111.3 L153.9 111.2 L154.0 111.2 L154.1 111.1 L154.2 111.1 L154.2 111.2 L154.2 111.2 L154.3 111.2 L154.3 111.2 L154.3 111.2 L154.6 111.2 L154.7 111.2 L154.7 111.2 L154.7 111.1 L154.5 111.0 L154.5 111.0 L154.6 110.9 L154.5 110.8 L154.0 110.7 L153.8 110.7 L153.6 110.8 L153.6 110.8 L153.6 110.8 L153.8 110.8 L153.9 110.8 L153.8 110.9 L153.8 110.9 L153.9 111.0 L153.9 111.0 L153.5 111.0 L153.4 111.0 L153.3 111.1 L152.9 111.3 L152.9 111.4 L152.9 111.4 L152.9 111.5 L152.9 111.6 L152.8 111.6 L152.7 111.7 L152.7 111.8 L152.7 112.0 L152.7 112.1 L152.8 112.9 L153.0 113.5 L153.0 113.6 L153.1 113.9 L153.2 114.1 L153.2 114.2 L153.5 114.4 L153.6 114.6 L153.5 114.7 L153.5 114.9 L153.4 115.0 L153.4 115.1 L153.3 115.2 L153.4 115.4 L153.5 115.7 L153.5 115.8 L153.4 116.0 L153.2 116.4 L153.2 116.6 L153.2 116.7 L153.3 116.8 L153.5 117.2 L153.6 117.4 L153.8 117.5 L154.2 117.7 L154.2 117.7 L154.3 117.7 L154.4 117.7 L154.4 117.7 L154.5 117.8 L154.6 117.8 L154.7 117.9 L154.8 117.9 L155.1 117.9 L155.2 117.9 L155.3 118.0 L155.4 118.0 L155.5 118.0 L155.6 118.0 L155.7 117.9 L155.8 117.9 L155.9 118.0 L155.9 118.0 L156.0 118.1 L156.0 118.1 L155.9 118.1 L155.8 118.2 L155.4 118.6 L155.4 118.6 L155.4 118.8 L155.4 118.8 L155.5 118.8 L155.9 118.8 L156.1 118.9 L156.3 118.9 L156.4 118.9 L156.5 118.8 L156.7 118.8 L156.7 118.8 L157.6 118.8 L157.7 118.8 L157.8 118.7 L157.8 118.7 L157.9 118.6 L158.0 118.6 L158.0 118.5 L158.0 118.5 L158.0 118.4 L157.9 118.4 L157.9 118.4 L157.9 118.4 L158.0 118.3 L158.0 118.3 L158.0 118.3 L158.0 118.2 L157.9 118.2 L157.9 118.1 L157.9 118.1 L157.8 118.0 L157.6 118.0 L157.1 118.0 L156.8 118.0 L156.6 117.9 L156.8 117.8 L157.4 117.8 L158.0 117.5 L158.4 117.3 L158.8 117.2 L159.1 117.1 L159.3 117.2 L159.5 117.3 L159.6 117.4 L159.7 117.7 L159.7 117.8 L159.8 117.9 L159.8 117.9 L160.0 118.0 L160.1 118.2 L160.1 118.4 L160.1 118.9 L160.2 119.6 L160.1 119.8 L160.0 120.0 L159.9 120.1 L160.0 120.3 L159.7 120.6 L159.4 120.7 L158.5 120.8 L158.2 120.8 L158.1 120.8 L157.9 120.9 L157.7 120.9 L157.6 120.9 L157.4 120.8 L157.3 120.6 L157.2 120.5 L157.1 120.5 L157.0 120.4 L157.0 120.3 L157.1 120.2 L157.1 120.2 L157.2 119.9 L157.2 119.8 L157.3 119.8 L157.3 119.8 L157.2 119.7 L157.1 119.7 L157.1 119.7 L157.0 119.7 L157.0 119.6 L157.0 119.6 L156.8 119.5 L156.8 119.5 L156.7 119.4 L156.7 119.3 L156.6 119.3 L156.4 119.2 L156.2 119.2 L155.7 119.2 L155.3 119.2 L155.2 119.2 L155.1 119.3 L155.0 119.4 L154.8 119.4 L154.8 119.4 L154.7 119.4 L154.5 119.6 L154.4 119.7 L154.3 119.7 L154.1 119.8 L153.9 119.8 L153.8 119.9 L153.7 119.9 L153.7 120.0 L153.6 120.1 L153.5 120.2 L153.4 120.3 L153.5 120.4 L153.5 120.5 L153.7 120.5 L153.9 120.6 L154.2 120.7 L154.7 120.9 L154.9 121.0 L155.1 121.1 L155.2 121.1 L155.3 121.2 L155.4 121.2 L155.5 121.2 L155.6 121.2 L155.7 121.2 L155.8 121.2 L155.8 121.2 L155.9 121.2 L156.0 121.3 L156.0 121.3 L156.1 121.3 L156.2 121.4 L156.3 121.4 L156.7 121.3 L156.7 121.2 L156.7 121.3 L156.8 121.4 L156.8 121.5 L156.7 121.5 L156.1 121.8 L155.6 122.0 L154.6 122.2 L153.8 122.6 L153.6 122.7 L153.5 122.8 L153.4 122.9 L153.4 122.9 L153.3 123.0 L153.3 123.1 L153.3 123.2 L153.4 123.3 L153.3 123.3 L153.3 123.4 L153.2 123.4 L152.8 123.7 L152.6 124.0 L152.5 124.0 L152.3 124.2 L152.2 124.2 L152.0 124.5 L152.0 124.5 L152.0 124.6 L151.9 124.6 L152.0 124.9 L152.0 125.0 L152.1 125.1 L152.1 125.2 L152.0 125.3 L152.0 125.4 L152.1 125.4 L152.1 125.5 L152.2 125.5 L152.2 125.6 L152.2 125.7 L152.2 125.8 L152.2 125.9 L152.2 126.0 L152.3 126.0 L152.4 126.0 L152.4 126.1 L152.3 126.1 L152.4 126.2 L152.4 126.3 L152.5 126.3 L152.6 126.3 L152.5 126.4 L152.4 126.5 L152.4 126.6 L152.4 126.6 L152.4 126.7 L152.5 126.7 L152.5 126.8 L152.4 126.8 L152.3 126.9 L152.2 126.9 L152.1 127.0 L152.1 127.1 L152.1 127.2 L152.1 127.3 L152.1 127.4 L152.2 127.4 L152.2 127.4 L152.3 127.4 L152.2 127.5 L152.3 127.5 L152.3 127.6 L152.3 127.6 L152.3 127.6 L152.3 127.7 L152.4 127.7 L152.4 127.7 L152.5 127.8 L152.5 127.8 L152.5 127.9 L152.4 127.9 L152.4 127.9 L152.4 128.0 L152.4 128.0 L152.3 128.0 L152.3 128.0 L152.2 128.1 L152.2 128.1 L152.2 128.1 L152.2 128.1 L152.2 128.1 L152.2 128.2 L152.2 128.2 L152.2 128.2 L152.2 128.2 L152.1 128.2 L152.1 128.2 L152.1 128.2 L152.1 128.2 L152.1 128.2 L152.1 128.3 L152.0 128.3 L152.0 128.3 L152.0 128.3 L152.0 128.3 L152.0 128.3 L152.0 128.4 L152.1 128.4 L152.0 128.4 L152.0 128.4 L152.0 128.5 L152.0 128.5 L152.1 128.5 L152.1 128.5 L152.1 128.5 L152.2 128.5 L152.2 128.5 L152.2 128.5 L152.2 128.6 L152.2 128.6 L152.2 128.6 L152.2 128.6 L152.1 128.6 L152.1 128.6 L152.0 128.6 L152.0 128.7 L152.0 128.7 L152.0 128.6 L152.0 128.6 L152.0 128.6 L151.9 128.5 L151.9 128.6 L151.9 128.6 L151.8 128.6 L151.8 128.6 L151.8 128.6 L151.8 128.6 L151.8 128.7 L151.8 128.7 L151.8 128.7 L151.8 128.7 L151.7 128.7 L151.7 128.7 L151.7 128.8 L151.7 128.8 L151.7 128.8 L151.8 128.8 L151.8 128.9 L151.8 128.9 L151.8 128.9 L151.8 128.9 L151.8 128.9 L151.8 128.9 L151.7 128.9 L151.7 128.9 L151.7 128.9 L151.7 129.0 L151.6 128.9 L151.6 128.9 L151.6 128.9 L151.6 128.9 L151.5 128.9 L151.5 128.9 L151.5 128.8 L151.5 128.9 L151.4 128.9 L151.3 128.9 L151.3 128.9 L151.3 128.9 L151.4 129.0 L151.3 129.0 L151.3 129.0 L151.2 129.0 L151.0 129.1 L150.8 129.2 L150.7 129.2 L150.5 129.3 L150.4 129.4 L150.4 129.4 L150.3 129.5 L150.3 129.5 L150.3 129.6 L150.3 129.7 L150.3 129.8 L150.2 129.9 L150.2 129.9 L150.1 129.9 L150.1 130.0 L150.1 130.1 L150.1 130.1 L150.1 130.1 L150.1 130.1 L150.2 130.3 L150.2 130.3 L150.3 130.3 L150.3 130.3 L150.4 130.3 L150.4 130.3 L150.4 130.3 L150.5 130.3 L150.5 130.3 L150.5 130.3 L150.6 130.3 L150.7 130.4 L150.8 130.4 L150.9 130.4 L151.0 130.5 L151.1 130.5 L151.0 130.6 L150.9 130.6 L150.9 130.6 L150.9 130.7 L150.8 130.7 L150.8 130.7 L150.7 130.7 L150.7 130.7 L150.7 130.8 L150.8 130.8 L150.8 130.9 L150.7 130.9 L150.6 130.9 L150.6 130.9 L150.6 130.9 L150.7 131.0 L150.5 131.1 L150.4 131.1 L150.3 131.1 L150.3 131.2 L150.1 131.0 L150.0 131.0 L149.8 131.0 L149.7 131.0 L149.7 131.0 L149.6 131.0 L149.6 130.9 L149.6 130.9 L149.5 130.9 L149.4 130.9 L149.3 130.9 L149.3 131.0 L149.4 131.0 L149.3 131.0 L149.1 131.1 L149.0 131.1 L148.9 131.0 L148.7 130.9 L148.6 130.9 L148.3 130.8 L148.0 130.8 L147.9 130.8 L147.8 130.9 L147.6 131.0 L147.5 131.1 L147.4 131.1 L147.3 131.1 L147.2 131.1 L147.2 131.1 L147.1 131.1 L147.1 131.1 L147.0 131.1 L146.9 131.2 L146.6 131.2 L146.5 131.3 L146.4 131.4 L146.4 131.5 L146.6 131.5 L146.7 131.6 L146.6 131.7 L146.1 131.5 L146.1 131.5 L146.1 131.6 L146.3 131.7 L146.4 131.8 L146.4 131.9 L146.2 131.9 L145.7 131.9 L145.1 131.9 L144.8 132.0 L144.5 132.1 L144.3 132.2 L144.1 132.3 L143.8 132.5 L143.7 132.7 L143.5 132.9 L143.4 133.0 L143.2 133.2 L143.1 133.3 L142.9 133.5 L142.8 133.6 L142.7 133.7 L142.6 133.7 L142.5 133.8 L142.5 134.0 L142.5 134.1 L142.5 134.2 L142.6 134.2 L142.5 134.3 L142.5 134.3 L142.4 134.3 L142.4 134.4 L142.4 134.4 L142.4 134.5 L142.4 134.5 L142.4 134.5 L142.4 134.6 L142.3 134.6 L142.1 134.6 L142.1 134.7 L142.0 134.7 L141.9 134.9 L141.8 135.0 L141.7 135.1 L141.6 135.2 L141.6 135.2 L141.6 135.4 L141.5 135.4 L141.4 135.5 L141.4 135.5 L141.3 135.9 L141.2 136.0 L141.2 136.2 L141.2 136.3 L141.4 137.1 L141.6 137.4 L141.7 137.6 L142.2 138.2 L142.4 138.4 L142.6 138.5 L142.8 138.5 L142.9 138.6 L143.0 138.6 L143.0 138.7 L143.2 138.8 L143.4 138.8 L143.5 138.9 L143.6 139.0 L143.8 139.1 L143.9 139.3 L144.0 139.4 L144.0 139.4 L144.1 139.4 L144.1 139.4 L144.2 139.5 L144.2 139.5 L144.3 139.5 L144.7 139.9 L145.0 140.2 L145.1 140.3 L145.5 140.4 L145.7 140.4 L145.9 140.5 L146.1 140.4 L146.2 140.5 L146.3 140.5 L146.4 140.4 L146.5 140.4 L146.5 140.5 L146.7 140.5 L146.8 140.5 L147.0 140.5 L147.1 140.5 L147.1 140.6 L147.4 140.6 L147.9 140.7 L148.4 140.6 L148.7 140.6 L148.8 140.5 L148.9 140.5 L149.2 140.7 L149.4 140.7 L149.5 140.8 L149.5 140.9 L149.7 141.0 L149.7 141.0 L149.8 141.1 L150.0 141.2 L150.0 141.3 L150.1 141.5 L150.1 141.7 L150.2 141.8 L150.1 142.2 L150.1 142.6 L149.9 142.9 L149.8 143.2 L149.5 143.7 L149.5 143.8 L149.3 143.8 L149.2 143.7 L149.0 143.7 L148.7 143.7 L148.5 143.8 L148.4 143.9 L148.3 144.0 L148.1 144.0 L147.8 144.1 L147.5 144.3 L147.4 144.3 L147.1 144.3 L147.0 144.3 L147.2 144.3 L147.4 144.3 L147.8 144.2 L147.9 144.2 L148.1 144.1 L148.6 144.0 L148.7 143.9 L148.9 143.8 L149.2 143.8 L149.3 143.9 L149.4 143.9 L149.4 144.2 L149.5 144.4 L149.6 144.5 L149.8 144.5 L149.9 144.5 L149.8 144.6 L149.8 144.6 L149.9 144.7 L149.9 144.7 L149.8 144.7 L149.7 144.7 L149.6 144.8 L149.5 144.7 L149.3 144.6 L149.2 144.7 L149.1 144.8 L149.1 144.8 L149.2 144.9 L149.1 145.0 L149.1 145.0 L149.1 145.1 L149.1 145.1 L149.0 145.2 L149.0 145.2 L149.1 145.3 L149.3 145.3 L149.3 145.4 L149.2 145.5 L149.1 145.5 L149.0 145.4 L149.0 145.4 L148.9 145.4 L148.8 145.4 L148.5 145.4 L148.4 145.5 L148.3 145.5 L148.2 145.6 L148.2 145.7 L148.1 145.7 L148.1 145.8 L147.9 145.9 L147.7 145.9 L147.6 146.1 L147.4 146.1 L147.3 146.2 L147.2 146.3 L147.2 146.4 L147.2 146.6 L147.2 146.6 L147.0 146.6 L146.9 146.6 L146.7 146.6 L146.7 146.6 L146.6 146.6 L146.7 146.7 L146.6 146.8 L146.5 146.9 L146.3 146.9 L146.1 146.9 L145.8 147.0 L145.6 147.1 L145.3 147.2 L145.2 147.2 L145.0 147.3 L144.9 147.5 L144.8 147.5 L144.8 147.6 L144.8 147.7 L144.7 147.7 L144.5 147.8 L144.2 147.8 L143.9 148.0 L143.6 148.1 L143.5 148.2 L143.5 148.4 L143.3 148.5 L143.2 148.7 L143.2 148.8 L143.0 148.9 L142.6 149.0 L142.2 149.2 L141.5 149.7 L141.4 149.8 L141.4 150.0 L141.3 150.1 L141.2 150.2 L141.2 150.2 L141.2 150.3 L141.2 150.4 L141.3 150.5 L141.2 150.5 L141.2 150.5 L141.1 150.5 L141.1 150.6 L141.0 150.6 L141.0 150.7 L141.0 150.8 L140.8 150.9 L140.7 150.9 L140.7 151.0 L140.8 151.0 L140.8 151.0 L140.8 151.1 L140.7 151.1 L140.7 151.2 L140.6 151.2 L140.6 151.2 L140.6 151.3 L140.5 151.4 L140.2 151.4 L140.2 151.4 L140.3 151.5 L140.4 151.5 L140.7 151.5 L140.9 151.4 L140.9 151.2 L140.9 151.1 L141.0 151.0 L141.0 150.9 L141.1 150.8 L141.1 150.8 L141.2 150.8 L141.3 150.9 L141.3 151.0 L141.3 151.1 L141.1 151.4 L141.1 151.5 L141.0 151.8 L140.9 152.1 L140.8 152.3 L140.8 152.5 L140.8 152.6 L140.8 152.8 L140.8 152.8 L140.7 153.3 L140.6 153.6 L140.5 153.7 L140.4 153.8 L140.4 153.9 L140.4 153.9 L140.2 154.1 L139.9 154.3 L139.5 154.5 L139.1 154.7 L138.6 154.8 L138.2 154.9 L137.9 154.9 L137.8 154.9 L137.8 154.8 L137.7 154.7 L137.6 154.7 L137.5 154.5 L137.4 154.5 L137.4 154.3 L137.3 154.2 L137.2 154.1 L137.0 154.0 L136.9 153.9 L136.9 153.8 L136.8 153.6 L136.7 153.5 L136.4 153.3 L136.4 153.2 L136.3 153.1 L136.2 153.1 L136.1 153.0 L136.0 153.0 L136.3 153.2 L136.3 153.2 L136.4 153.3 L136.5 153.5 L136.7 153.6 L136.7 153.9 L136.7 154.0 L136.7 154.0 L136.5 154.1 L136.4 154.1 L136.3 154.2 L136.2 154.2 L136.0 154.1 L135.7 154.2 L135.3 154.1 L135.2 154.2 L135.0 154.3 L134.9 154.3 L134.7 154.3 L134.7 154.4 L134.7 154.4 L134.8 154.4 L134.8 154.4 L134.9 154.4 L135.2 154.4 L135.3 154.3 L135.4 154.2 L135.5 154.2 L135.6 154.2 L135.7 154.2 L135.8 154.2 L136.1 154.3 L136.3 154.3 L136.4 154.2 L136.6 154.2 L136.7 154.2 L136.8 154.2 L136.8 154.2 L136.9 154.3 L136.9 154.3 L137.0 154.4 L137.0 154.4 L137.0 154.5 L137.0 154.6 L137.1 154.7 L137.3 154.8 L137.4 154.8 L137.5 154.8 L137.6 154.9 L137.6 154.9 L137.7 154.9 L137.8 155.0 L137.7 155.1 L137.6 155.1 L137.5 155.2 L137.4 155.2 L136.6 155.5 L136.0 155.7 L135.8 155.7 L135.7 155.7 L135.7 155.8 L135.6 155.8 L135.5 155.8 L135.4 155.8 L135.3 155.9 L135.3 156.0 L135.2 156.0 L135.0 156.2 L134.9 156.3 L134.8 156.4 L134.7 156.5 L134.6 156.7 L134.5 156.8 L134.4 156.9 L134.4 157.1 L134.2 157.5 L134.1 157.7 L134.1 157.8 L134.1 157.9 L134.1 158.0 L134.2 158.3 L134.2 158.4 L134.1 158.5 L134.0 158.6 L133.8 158.7 L133.5 158.9 L133.1 159.1 L132.9 159.2 L132.8 159.4 L133.0 159.3 L133.2 159.1 L133.4 159.1 L133.7 159.0 L133.8 158.9 L134.0 158.9 L134.0 159.0 L134.0 159.1 L134.1 159.3 L134.2 159.6 L134.2 159.9 L134.3 160.0 L134.3 160.1 L134.4 160.3 L134.5 160.5 L134.9 161.3 L135.0 161.4 L135.0 161.5 L134.9 161.6 L134.8 161.7 L134.8 161.7 L134.7 161.6 L134.5 161.6 L134.4 161.7 L134.3 161.8 L134.2 161.8 L134.1 161.8 L134.0 161.8 L133.4 161.6 L133.1 161.6 L133.0 161.6 L132.9 161.6 L132.8 161.7 L132.5 161.7 L132.4 161.7 L132.2 161.8 L132.0 161.9 L131.9 161.9 L132.9 161.8 L133.1 161.8 L133.3 161.8 L133.8 161.9 L134.0 162.0 L134.0 162.1 L133.7 162.2 L133.7 162.2 L133.8 162.2 L133.9 162.2 L134.3 162.1 L134.5 162.0 L134.6 161.9 L134.8 161.9 L134.9 161.9 L135.1 162.0 L135.4 162.6 L135.6 162.8 L135.9 163.3 L136.2 163.7 L137.0 164.5 L137.6 165.0 L137.7 165.1 L137.8 165.2 L137.7 165.3 L137.6 165.4 L137.5 165.4 L137.5 165.5 L137.4 165.5 L137.4 165.5 L137.4 165.4 L137.3 165.3 L137.3 165.1 L137.3 165.1 L137.2 165.1 L136.8 165.0 L136.8 165.0 L136.6 164.9 L136.5 164.9 L135.6 164.8 L135.4 164.8 L134.7 164.5 L133.8 164.3 L132.5 164.3 L131.6 164.1 L130.8 163.9 L130.3 163.7 L129.9 163.7 L128.9 163.7 L127.8 163.7 L126.7 163.7 L125.7 163.7 L124.6 163.7 L123.6 163.7 L122.5 163.7 L121.4 163.6 L121.1 163.6 L120.9 163.5 L120.9 163.3 L120.9 163.2 L120.9 163.1 L120.8 163.0 L120.6 162.9 L120.3 162.6 L120.0 162.5 L119.8 162.4 L119.4 162.3 L119.3 162.2 L119.2 162.1 L119.2 161.9 L119.1 161.8 L119.0 161.7 L118.9 161.7 L118.8 161.7 L118.7 161.7 L118.6 161.6 L118.7 161.4 L119.0 161.2 L119.1 161.2 L119.1 161.2 L119.0 161.1 L119.0 161.1 L119.1 161.0 L119.1 161.0 L119.1 161.0 L119.1 160.9 L119.2 160.8 L119.2 160.6 L119.2 160.5 L119.2 160.4 L119.4 160.2 L119.5 160.1 L119.5 160.1 L119.4 160.0 L119.0 159.9 L118.9 159.8 L118.8 159.6 L118.8 159.5 L118.8 159.4 L119.0 159.3 L119.0 159.2 L119.1 159.2 L119.2 159.2 L119.3 159.1 L119.4 159.0 L119.4 158.8 L119.5 158.4 L119.5 158.2 L119.4 158.1 L119.2 158.0 L119.1 157.9 L119.1 157.8 L119.1 157.7 L119.1 157.7 L119.3 157.4 L119.3 157.4 L119.2 157.3 L119.1 157.3 L118.9 157.2 L118.3 157.1 L118.1 157.2 L117.8 157.4 L117.6 157.4 L117.5 157.4 L117.2 157.2 L117.1 157.2 L117.0 157.2 L116.5 157.4 L116.3 157.5 L116.0 157.8 L115.8 157.9 L115.5 157.9 L115.3 157.9 L115.2 157.8 L115.1 157.7 L115.1 157.5 L115.1 157.3 L115.0 157.2 L114.8 157.1 L114.8 157.0 L114.8 156.9 L114.8 156.6 L114.7 156.4 L114.7 156.3 L114.7 156.1 L114.7 156.0 L114.7 155.9 L114.6 155.7 L114.5 155.6 L114.4 155.5 L114.3 155.4 L114.1 155.3 L113.5 155.0 L113.5 154.8 L113.5 154.7 L113.7 154.4 L113.8 154.4 L113.7 154.3 L113.7 154.2 L113.4 154.1 L113.3 154.0 L113.3 153.9 L113.4 153.9 L113.5 153.8 L113.5 153.7 L113.5 153.7 L113.5 153.6 L113.7 153.4 L113.8 153.3 L113.8 153.2 L115.1 152.8 L115.4 152.5 L115.7 152.2 L115.7 151.9 L115.6 151.6 L115.4 151.5 L115.5 151.1 L115.5 150.9 L115.5 150.9 L115.2 150.8 L115.2 150.8 L115.1 150.7 L115.1 150.6 L115.2 150.5 L115.5 150.3 L115.5 150.2 L115.6 150.1 L115.6 150.1 L115.6 150.0 L115.6 149.9 L115.9 149.6 L115.9 149.6 L116.0 149.6 L116.1 149.5 L116.4 149.4 L116.8 149.4 L117.0 149.3 L117.2 149.2 L117.5 149.0 L117.8 148.8 L117.9 148.6 L118.0 148.5 L118.0 148.3 L117.9 147.8 L117.8 147.6 L117.8 147.3 L118.0 147.0 L118.2 147.0 L118.4 146.9 L118.7 146.8 L118.7 146.8 L118.9 146.6 L118.9 146.6 L118.9 146.6 L119.0 146.5 L119.1 146.5 L119.2 146.6 L119.3 146.6 L119.3 146.5 L119.3 146.4 L119.2 146.3 L119.2 146.3 L119.2 146.2 L119.2 146.0 L119.2 145.9 L119.1 145.4 L119.1 145.3 L118.9 145.2 L118.9 145.2 L118.8 145.2 L118.8 145.1 L118.8 145.1 L118.8 145.0 L118.7 145.0 L118.6 144.9 L118.5 144.9 L118.4 144.9 L118.3 144.8 L118.2 144.7 L118.1 144.5 L118.2 144.4 L118.3 144.2 L118.5 143.9 L118.5 143.8 L119.0 143.2 L119.0 143.1 L119.1 143.1 L119.1 143.0 L119.1 142.9 L119.2 142.6 L119.2 142.6 L119.1 142.5 L119.0 142.5 L119.0 142.5 L119.0 142.4 L119.1 142.3 L119.1 142.2 L119.3 142.2 L119.5 142.2 L119.7 142.2 L119.8 142.2 L119.9 142.2 L120.0 142.0 L120.4 141.7 L120.5 141.6 L120.5 141.5 L120.5 141.5 L120.5 141.4 L120.5 141.3 L120.5 141.3 L120.5 141.2 L120.5 141.2 L120.6 141.2 L120.9 141.3 L121.1 141.3 L121.2 141.3 L121.3 141.2 L121.3 141.0 L121.3 140.9 L121.2 140.8 L121.1 140.7 L120.8 140.6 L120.7 140.5 L120.7 140.4 L121.0 140.3 L121.1 140.2 L121.0 140.2 L120.9 140.1 L120.8 140.0 L120.8 139.9 L120.9 139.7 L120.9 139.6 L121.0 139.6 L121.0 139.6 L121.0 139.5 L121.0 139.5 L120.9 139.4 L120.9 139.4 L120.9 139.4 L121.0 139.3 L121.1 139.3 L121.4 139.3 L121.5 139.2 L121.5 139.2 L121.7 139.1 L121.7 139.0 L122.0 138.9 L122.2 138.8 L122.2 138.6 L122.1 138.3 L122.1 138.2 L122.2 138.1 L122.2 138.1 L122.2 138.0 L121.9 137.4 L121.8 137.2 L121.8 137.0 L121.8 136.8 L121.8 136.7 L121.7 136.6 L121.4 136.5 L121.2 136.3 L121.2 136.3 L121.1 136.3 L121.1 136.3 L121.1 136.2 L121.1 136.2 L121.2 136.2 L121.5 136.1 L121.7 136.1 L121.8 136.1 L121.8 136.0 L121.9 135.9 L122.0 135.8 L122.3 135.5 L122.5 135.4 L122.4 135.2 L122.4 135.1 L122.3 135.0 L122.1 134.9 L121.9 134.9 L121.8 134.8 L121.8 134.8 L121.8 134.7 L121.9 134.6 L121.9 134.5 L121.8 134.5 L121.7 134.4 L121.6 134.3 L121.6 134.3 L121.6 134.2 L121.7 134.1 L121.7 134.1 L121.7 134.1 L121.7 134.0 L121.7 134.0 L121.7 133.9 L121.7 133.9 L121.8 133.8 L121.8 133.7 L121.9 133.7 L121.9 133.7 L121.9 133.6 L121.9 133.6 L121.8 133.6 L121.8 133.5 L121.9 133.4 L122.0 133.4 L122.2 133.3 L122.4 133.3 L122.7 133.3 L122.9 133.3 L123.1 133.2 L123.1 133.1 L123.1 133.1 L123.0 132.9 L123.0 132.8 L123.0 132.8 L123.5 132.6 L123.6 132.6 L123.6 132.5 L123.7 132.4 L123.8 132.4 L123.9 132.3 L123.9 132.1 L123.8 132.0 L123.7 131.8 L123.5 131.7 L123.3 131.6 L123.1 131.4 L123.0 131.4 L123.0 131.2 L122.8 130.9 L122.6 130.8 L122.5 130.7 L122.3 130.8 L122.1 130.7 L122.0 130.7 L121.9 130.6 L121.8 130.5 L121.7 130.5 L121.6 130.5 L121.5 130.6 L121.4 130.6 L121.2 130.6 L121.0 130.5 L120.8 130.5 L120.6 130.4 L120.4 130.4 L120.3 130.4 L120.3 130.3 L120.3 130.2 L120.3 130.1 L120.3 129.8 L120.3 129.7 L120.5 129.7 L120.6 129.8 L120.7 129.8 L121.4 129.9 L121.5 129.9 L121.6 129.8 L121.6 129.8 L121.7 129.7 L121.8 129.7 L121.9 129.7 L122.2 129.8 L122.4 129.8 L122.8 129.7 L123.0 129.7 L123.2 129.7 L123.6 129.9 L123.8 129.9 L124.0 129.9 L124.1 129.8 L124.3 129.7 L124.3 129.5 L124.3 129.3 L124.2 129.3 L124.3 129.2 L124.4 129.0 L124.4 128.9 L124.5 128.9 L124.6 128.9 L124.7 128.9 L124.8 128.8 L124.8 128.7 L124.8 128.7 L124.8 128.6 L124.7 128.6 L124.6 128.5 L124.6 128.4 L124.6 128.4 L124.6 128.3 L124.5 128.2 L124.4 128.2 L124.3 128.2 L124.0 128.2 L123.3 128.1 L122.4 128.1 L122.1 128.0 L121.9 128.0 L121.7 128.1 L121.5 128.1 L121.3 127.9 L121.3 127.9 L121.4 127.8 L121.5 127.8 L121.6 127.7 L121.6 127.6 L121.6 127.6 L121.5 127.5 L121.5 127.4 L121.5 127.4 L121.6 127.2 L121.6 127.1 L121.6 127.1 L121.4 126.9 L121.4 126.7 L121.5 126.6 L121.6 126.6 L121.8 126.5 L121.9 126.4 L122.2 126.0 L122.3 125.9 L122.3 125.8 L122.0 125.5 L122.0 125.4 L121.9 125.4 L121.8 125.4 L121.8 125.4 L121.8 125.3 L121.8 125.3 L121.8 125.2 L121.8 125.2 L121.8 125.1 L121.8 125.1 L121.7 125.1 L121.6 125.1 L121.6 125.1 L121.5 125.0 L121.6 124.9 L121.6 124.9 L121.7 124.8 L121.9 124.8 L122.0 124.8 L122.1 124.7 L122.1 124.6 L122.0 124.4 L122.0 124.3 L122.0 124.3 L121.8 124.2 L121.8 124.1 L121.7 124.1 L121.7 124.1 L121.7 124.1 L121.6 124.0 L121.5 124.0 L121.4 124.0 L121.3 124.0 L121.2 123.9 L121.3 123.9 L121.3 123.8 L121.4 123.8 L121.4 123.7 L121.3 123.7 L121.2 123.6 L121.1 123.6 L121.1 123.6 L121.0 123.6 L121.0 123.6 L120.9 123.6 L120.9 123.6 L120.9 123.5 L121.0 123.5 L121.0 123.5 L121.0 123.3 L121.0 123.3 L121.0 123.3 L121.0 123.3 L121.1 123.2 L121.1 123.2 L121.1 123.2 L121.1 123.0 L121.1 123.0 L121.2 123.0 L121.3 123.0 L121.5 122.9 L121.6 122.9 L121.8 122.9 L121.9 122.9 L121.9 122.8 L121.9 122.7 L121.9 122.7 L121.8 122.6 L121.8 122.5 L121.8 122.5 L121.9 122.4 L121.9 122.4 L121.9 122.3 L121.8 122.2 L121.3 122.1 L120.6 122.0 L120.4 122.0 L120.2 121.8 L120.1 121.7 L120.0 121.5 L120.0 121.3 L120.1 121.0 L120.2 120.8 L120.1 120.2 L120.1 120.1 L120.0 119.9 L120.0 119.9 L120.1 119.8 L120.1 119.7 L120.1 119.7 L120.0 119.6 L120.0 119.6 L120.0 119.4 L120.1 119.3 L120.3 119.2 L120.5 119.1 L120.5 119.0 L120.5 119.0 L120.3 118.8 L120.3 118.8 L120.4 118.5 L120.4 118.4 L120.1 118.3 L120.1 118.1 L120.1 118.0 L120.2 117.9 L120.3 117.8 L120.4 117.7 L120.4 117.6 L120.5 117.5 L120.6 117.4 L120.8 117.4 L120.9 117.5 L120.9 117.6 L121.0 117.6 L121.1 117.6 L121.2 117.6 L121.2 117.5 L121.2 117.5 L121.3 117.4 L121.6 117.4 L121.8 117.4 L121.9 117.3 L121.9 117.2 L121.9 116.9 L121.9 116.9 L121.8 116.8 L121.8 116.8 L121.7 116.7 L121.7 116.7 L121.7 116.6 L121.7 116.5 L121.7 116.2 L121.6 116.0 L121.4 115.9 L121.4 115.8 L121.4 115.6 L121.3 115.5 L121.0 115.2 L121.0 115.0 L121.1 115.0 L121.3 114.9 L121.3 114.8 L121.4 114.8 L121.4 114.7 L121.3 114.7 L121.2 114.6 L121.2 114.5 L121.2 114.4 L121.2 114.3 L121.3 114.2 L121.3 114.1 L121.2 114.1 L121.2 114.0 L121.1 113.8 L121.1 113.7 L121.3 113.4 L121.3 113.3 L121.3 113.2 L121.2 113.0 L121.2 112.9 L121.2 112.9 L121.3 112.9 L121.3 112.8 L121.3 112.6 L121.4 112.5 L121.4 112.4 L121.3 112.2 L121.3 112.1 L121.3 112.1 L121.4 111.9 L121.4 111.8 L121.3 111.7 L121.3 111.6 L121.1 111.4 L121.1 111.3 L120.9 110.8 L120.9 110.7 L121.3 110.4 L121.4 110.3 L121.4 110.1 L121.4 110.1 L121.3 110.0 L121.3 110.0 L121.3 110.0 L121.4 109.8 L121.6 109.4 L121.6 109.4 L121.7 109.3 L121.9 109.4 L122.0 109.4 L122.0 109.3 L122.2 109.0 L122.2 108.9 L122.2 108.9 L122.2 108.8 L122.2 108.8 L122.2 108.8 L122.1 108.7 L122.1 108.7 L122.0 108.8 L122.0 108.8 L122.0 108.8 L122.0 108.8 L121.9 108.8 L121.9 108.8 L121.8 108.7 L121.6 108.5 L121.6 108.5 L121.5 108.4 L121.5 108.4 L121.6 108.3 L121.6 108.3 L121.5 108.2 L121.5 108.2 L121.6 108.0 L121.6 108.0 L121.6 108.0 L121.6 107.9 L121.6 107.9 L121.6 107.8 L121.6 107.8 L121.8 107.8 L122.0 107.9 L122.2 107.9 L122.2 107.7 L122.2 107.6 L122.2 107.5 L122.2 107.5 L122.2 107.5 L122.2 107.4 L122.2 107.4 L122.3 107.4 L122.4 107.1 L122.5 107.0 L122.5 106.9 L122.4 106.9 L122.2 106.8 L122.2 106.7 L122.2 106.6 L122.2 106.5 L122.1 106.4 L122.0 106.2 L122.0 106.1 L122.1 106.0 L122.1 106.0 L122.1 105.9 L122.0 105.7 L122.0 105.6 L122.0 105.5 L122.1 105.5 L122.1 105.4 L122.2 105.4 L122.4 105.5 L122.4 105.6 L122.5 105.6 L122.6 105.6 L122.7 105.6 L122.8 105.6 L122.9 105.6 L122.9 105.6 L123.0 105.5 L123.1 105.4 L122.8 105.2 L123.0 105.1 L123.0 105.0 L123.1 104.9 L123.2 104.8 L123.2 104.8 L123.1 104.6 L123.1 104.5 L123.2 104.4 L123.3 104.4 L123.4 104.3 L123.4 104.2 L123.5 103.8 L123.4 103.2 L123.4 102.8 L123.4 102.7 L123.4 102.4 L123.5 102.3 L123.6 102.2 L124.1 102.0 L124.2 101.9 L124.2 101.9 L124.3 101.8 L124.3 101.8 L124.7 101.8 L124.7 101.7 L125.0 101.6 L125.2 101.5 L125.3 101.5 L125.5 101.6 L125.6 101.5 L125.7 101.5 L125.8 101.4 L125.8 101.3 L125.9 101.3 L126.0 101.3 L126.0 101.2 L126.0 101.2 L125.9 101.2 L125.9 101.1 L125.9 101.1 L125.9 101.0 L126.0 101.0 L126.1 100.8 L126.1 100.8 L126.2 100.7 L126.1 100.5 L125.9 100.4 L125.8 100.3 L125.6 100.2 L125.5 100.0 L125.3 99.3 L125.3 99.1 L125.3 99.0 L125.3 98.8 L125.3 98.8 L125.3 98.8 L125.3 98.8 L125.3 98.7 L125.3 98.6 L125.3 98.5 L125.3 98.4 L125.3 98.4 L125.3 98.4 L125.3 98.4 L125.3 98.3 L125.2 98.2 L125.2 98.1 L125.1 98.0 L125.1 97.9 L125.0 97.8 L124.9 97.6 L124.8 97.3 L124.5 96.7 L124.5 96.4 L124.5 96.3 L124.5 96.3 L124.6 96.2 L124.6 96.2 L124.8 96.1 L124.8 96.1 L124.8 96.0 L124.7 95.9 L124.7 95.9 L124.7 95.8 L124.8 95.6 L124.8 95.5 L124.8 95.4 L124.7 95.3 L124.6 95.2 L124.5 95.0 L124.4 94.8 L124.4 94.7 L124.5 94.6 L124.6 94.4 L124.7 94.4 L124.7 94.3 L124.7 94.2 L124.7 94.1 L124.7 94.0 L124.8 93.9 L125.0 93.8 L124.8 93.7 L124.7 93.6 L124.7 93.4 L124.6 93.4 L124.5 93.3 L124.4 93.2 L124.4 93.2 L124.5 93.2 L124.6 93.2 L124.7 93.2 L124.7 93.1 L124.7 93.1 L124.6 93.0 L124.6 92.9 L124.6 92.9 L124.6 92.9 L124.6 92.8 L124.6 92.8 L124.6 92.8 L124.6 92.7 L124.6 92.7 L124.5 92.7 L124.5 92.7 L124.5 92.6 L124.5 92.6 L124.5 92.5 L124.5 92.5 L124.5 92.5 L124.7 92.2 L124.7 92.1 L124.7 92.0 L124.7 91.9 L124.8 91.8 L124.9 91.8 L125.0 91.9 L125.0 91.9 L125.1 91.9 L125.1 91.8 L125.0 91.5 L125.1 91.3 L125.1 91.1 L125.2 90.9 L125.2 90.9 L125.3 90.9 L125.4 90.9 L125.5 90.9 L125.6 90.9 L125.7 90.9 L125.7 90.8 L125.8 90.6 L125.8 90.6 L125.9 90.5 L126.0 90.6 L126.2 90.6 L126.2 90.6 L126.2 90.7 L126.3 90.7 L126.7 90.6 L126.7 90.5 L126.7 90.4 L126.7 90.4 L126.6 90.3 L126.6 90.2 L126.6 90.2 L126.7 90.1 L126.7 90.0 L126.7 90.0 L126.7 89.9 L126.7 89.9 L126.8 89.9 L126.8 89.9 L126.9 89.8 L127.0 89.8 L127.1 89.6 L127.2 89.6 L127.2 89.6 L127.2 89.6 L127.2 89.5 L127.3 89.5 L127.3 89.4 L127.3 89.4 L127.3 89.3 L127.4 89.3 L127.5 89.3 L127.7 89.4 L127.9 89.4 L127.9 89.4 L128.0 89.3 L128.0 89.3 L128.1 89.2 L128.1 89.0 L128.2 89.0 L128.3 88.9 L128.3 88.9 L128.3 88.8 L128.1 88.5 L128.1 88.5 L128.2 88.4 L128.2 88.3 L128.2 88.3 L128.3 88.3 L128.3 88.2 L128.2 88.2 L128.1 88.2 L128.1 88.2 L128.1 88.0 L128.4 87.8 L128.4 87.6 L128.3 87.5 L128.1 87.1 L128.1 87.0 L128.1 86.8 L128.1 86.7 L128.1 86.5 L128.2 86.3 L128.1 86.3 L128.0 86.2 L128.0 86.1 L127.9 85.8 L127.9 85.7 L127.9 85.7 L128.0 85.7 L128.1 85.6 L128.0 85.5 L127.8 85.4 L127.6 85.4 L127.4 85.4 L127.4 85.2 L127.5 84.9 L128.3 84.7 L128.3 84.4 L128.3 84.1 L128.3 84.1 L128.4 83.7 L128.8 83.0 L128.8 83.0 L128.7 82.9 L128.6 82.9 L128.6 82.8 L128.6 82.7 L128.7 82.7 L128.8 82.7 L128.9 82.5 L128.9 82.2 L129.0 82.0 L129.1 81.9 L129.3 81.8 L129.4 81.7 L129.5 81.5 L129.5 81.4 L129.8 81.2 L129.8 81.1 L129.8 81.0 L129.8 80.9 L129.8 80.7 L129.8 80.6 L129.8 80.6 L129.9 80.6 L130.1 80.5 L130.2 80.5 L130.3 80.6 L130.5 80.6 L130.5 80.6 L130.5 80.6 L130.5 80.5 L130.9 80.4 L130.9 80.4 L130.8 80.3 L130.7 80.1 L130.7 80.0 L130.7 79.9 L130.7 79.9 L130.7 79.8 L130.7 79.8 L130.7 79.4 L130.7 79.2 L130.7 79.1 L130.6 79.1 L130.5 79.1 L130.5 79.1 L130.5 78.9 L130.5 78.8 L130.5 78.7 L130.5 78.3 L130.5 78.2 L130.5 78.2 L130.7 78.0 L130.7 78.0 L130.7 77.9 L130.6 77.8 L130.6 77.7 L130.6 77.6 L130.7 77.3 L130.7 77.3 L130.6 77.2 L130.6 77.2 L130.7 77.2 L130.7 77.1 L130.8 77.1 L130.8 77.1 L130.8 77.0 L130.8 76.8 L130.9 76.7 L130.9 76.7 L131.0 76.5 L131.1 76.5 L131.1 76.4 L131.0 76.2 L130.9 75.9 L130.8 75.8 L130.7 75.8 L130.5 75.7 L130.3 75.7 L130.1 76.0 L130.0 76.0 L129.9 75.7 L129.8 75.6 L129.7 75.5 L129.6 75.5 L129.6 75.4 L129.6 75.3 L129.6 75.0 L129.6 74.9 L129.6 74.8 L129.6 74.8 L129.5 74.8 L129.6 74.7 L129.6 74.6 L129.8 74.6 L129.9 74.6 L129.9 74.5 L130.0 74.3 L130.0 74.2 L130.1 74.1 L130.1 74.0 L130.0 74.0 L129.9 73.9 L129.8 73.9 L129.7 73.8 L129.4 73.5 L129.3 73.4 L129.2 72.9 L129.2 72.7 L129.2 72.7 L129.2 72.6 L129.3 72.6 L129.4 72.6 L129.4 72.6 L129.3 72.4 L129.3 72.4 L129.3 72.3 L129.3 72.2 L129.3 72.1 L129.2 72.0 L129.0 71.9 L128.9 71.8 L128.9 71.4 L128.9 71.4 L128.8 71.3 L128.7 71.3 L128.6 71.2 L128.6 71.2 L128.5 71.1 L128.5 71.1 L128.5 71.0 L128.5 70.9 L128.5 70.9 L128.5 70.9 L128.5 70.8 L128.4 70.7 L128.5 70.7 L128.5 70.6 L128.5 70.6 L128.5 70.5 L128.4 70.5 L128.4 70.4 L128.4 70.3 L128.4 70.3 L128.3 70.3 L128.3 70.2 L128.2 70.1 L128.2 70.1 L128.3 70.0 L128.4 70.1 L128.6 70.1 L128.7 70.1 L128.8 70.1 L128.8 69.9 L128.9 69.8 L128.9 69.8 L128.9 69.7 L128.9 69.6 L128.9 69.5 L128.8 69.5 L128.7 69.4 L128.6 69.3 L128.4 69.3 L128.2 69.3 L128.1 69.3 L127.9 69.1 L127.8 69.1 L127.8 68.9 L127.8 68.8 L127.8 68.6 L127.7 68.6 L127.6 68.4 L127.3 68.0 L127.3 67.9 L127.3 67.8 L127.3 67.6 L127.4 67.4 L127.4 67.2 L127.4 67.1 L127.5 67.0 L127.5 66.9 L127.4 66.8 L127.4 66.7 L127.4 66.6 L127.5 66.4 L127.5 66.4 L127.5 66.2 L127.5 66.1 L127.6 66.0 L127.8 65.7 L127.9 65.6 L128.0 65.7 L128.0 65.8 L128.0 65.9 L128.1 65.9 L128.2 65.9 L128.2 65.9 L128.3 65.8 L128.3 65.6 L128.4 65.5 L128.5 65.4 L128.6 65.4 L128.8 65.4 L128.8 65.4 L128.8 65.3 L128.8 65.3 L128.6 65.2 L128.5 65.1 L128.5 65.0 L128.5 64.9 L128.6 64.3 L128.6 64.1 L128.7 64.1 L128.7 64.0 L128.8 63.9 L128.8 63.9 L128.8 63.8 L128.8 63.8 L128.8 63.7 L128.8 63.6 L128.9 63.5 L129.0 63.3 L129.0 62.9 L129.1 62.8 L129.2 62.8 L129.3 62.7 L129.4 62.7 L129.4 62.6 L129.4 62.5 L129.3 62.3 L129.3 62.2 L129.4 62.2 L129.8 62.3 L129.9 62.4 L130.1 62.3 L130.2 62.3 L130.4 62.2 L130.5 62.1 L130.5 62.0 L130.5 61.9 L130.5 61.7 L130.6 61.6 L130.6 61.6 L130.6 61.6 L130.6 61.5 L130.7 61.5 L130.8 61.4 L130.8 61.3 L130.8 61.1 L130.6 61.0 L130.4 60.9 L130.3 61.0 L130.2 60.9 L130.2 60.9 L130.2 60.8 L130.3 60.6 L130.4 60.4 L130.4 60.2 L130.5 59.6 L130.4 59.2 L130.4 59.2 L130.4 59.1 L130.2 59.0 L130.2 59.0 L130.2 58.8 L130.2 58.7 L130.2 58.6 L130.1 58.1 L130.1 58.1 L130.1 58.0 L130.0 58.0 L130.0 57.7 L129.9 57.7 L129.9 57.6 L129.9 57.5 L129.9 57.4 L129.9 57.2 L129.9 57.1 L130.0 57.1 L130.1 57.1 L130.1 57.0 L130.2 57.0 L130.2 57.0 L130.2 56.9 L130.1 56.9 L130.1 56.8 L130.1 56.8 L130.2 56.8 L130.2 56.8 L130.3 56.7 L130.4 56.7 L130.4 56.6 L130.5 56.6 L130.5 56.5 L130.5 56.5 L130.6 56.5 L130.8 56.4 L130.9 56.4 L131.0 56.3 L131.0 56.2 L131.0 56.1 L131.0 55.8 L131.0 55.7 L131.0 55.6 L131.0 55.5 L131.0 55.5 L131.1 55.4 L131.1 55.3 L131.2 55.3 L131.2 55.2 L131.2 55.2 L131.2 55.2 L131.3 54.9 L131.3 54.9 L131.3 54.8 L131.2 54.6 L131.2 54.5 L131.2 54.3 L131.3 54.1 L131.4 54.0 L131.5 53.9 L131.5 53.9 L131.5 53.8 L131.6 53.8 L131.6 53.8 L131.6 53.3 L131.7 53.0 L131.7 53.0 L131.9 52.8 L132.2 52.6 L132.4 52.4 L132.4 52.3 L132.5 52.1 L132.5 52.0 L132.6 52.1 L132.7 52.1 L132.8 52.1 L132.8 52.1 L132.9 51.9 L133.0 51.7 L133.2 51.4 L133.3 51.3 L133.3 51.3 L133.3 51.2 L133.3 51.2 L133.3 51.1 L133.4 51.1 L133.5 51.1 L133.7 51.0 L133.9 50.9 L133.9 50.8 L134.1 50.1 L134.2 49.9 L134.2 49.8 L134.2 49.8 L134.4 49.7 L134.4 49.7 L134.4 49.6 L134.3 49.6 L134.3 49.5 L134.3 49.4 L134.4 49.4 L134.5 49.3 L134.5 49.3 L134.6 49.0 L134.7 48.9 L134.7 48.8 L134.7 48.7 L134.7 48.7 L134.7 48.6 L134.7 48.6 L134.8 48.5 L135.0 48.4 L135.0 48.4 L135.1 48.3 L135.3 47.8 L135.3 47.8 L135.3 47.6 L135.3 47.5 L135.4 47.4 L135.6 47.1 L135.6 47.0 L135.7 47.0 L135.9 46.9 L136.1 46.9 L136.2 47.0 L136.4 47.2 L136.6 47.2 L136.7 47.2 L136.7 47.1 L136.8 47.1 L136.8 47.0 L136.9 46.9 L137.0 46.8 L137.1 46.8 L137.4 46.8 L137.5 46.7 L137.7 46.7 L137.7 46.7 L137.9 46.7 L137.9 46.7 L137.9 46.6 L137.9 46.5 L137.9 46.4 L137.9 46.4 L138.0 46.2 L138.0 46.1 L138.0 46.0 L137.9 45.8 L137.1 44.7 L136.9 44.5 L136.8 44.3 L136.7 44.1 L136.7 43.9 L136.7 43.5 L136.7 43.3 L136.7 43.2 L136.9 43.0 L137.5 42.6 L137.5 42.4 L137.5 42.2 L137.2 41.0 L137.1 40.6 L137.1 40.5 L137.0 40.4 L136.9 40.3 L136.8 40.2 L136.8 40.0 L136.8 39.9 L136.8 39.8 L136.8 39.8 L136.8 39.7 L136.6 39.5 L136.6 39.4 L136.6 39.3 L136.6 39.1 L136.8 38.4 L137.0 37.9 L137.1 37.8 L137.1 37.8 L137.2 37.8 L137.3 37.7 L137.4 37.8 L137.5 37.8 L137.6 37.7 L137.7 37.7 L137.7 37.6 L137.7 37.6 L137.6 37.4 L137.5 37.3 L137.4 37.2 L137.4 37.0 L137.4 36.9 L137.4 36.9 L137.4 36.9 L137.3 36.9 L137.3 36.8 L137.3 36.8 L137.2 36.8 L137.2 36.7 L137.2 36.7 L137.3 36.7 L137.3 36.7 L137.2 36.6 L137.2 36.6 L137.1 36.6 L137.1 36.6 L137.0 36.6 L136.9 36.5 L136.9 36.5 L136.8 36.4 L136.7 36.2 L136.7 36.1 L136.8 36.0 L137.0 35.5 L137.1 35.4 L137.1 35.3 L137.1 35.3 L137.1 35.2 L137.2 35.2 L137.3 35.3 L137.3 35.3 L137.4 35.2 L137.4 35.1 L137.6 34.7 L137.7 34.7 L137.7 34.7 L137.8 34.7 L137.9 34.7 L138.0 34.7 L138.1 34.4 L138.2 34.3 L138.2 34.2 L138.3 34.2 L138.5 34.1 L138.7 34.0 L138.9 33.9 L139.2 33.9 L139.4 33.8 L140.0 33.5 L140.6 33.3 L141.2 33.0 L141.7 32.8 L141.8 32.8 L141.9 32.8 L142.0 32.7 L142.0 32.7 L142.2 32.6 L142.4 32.5 L142.5 32.4 L142.6 32.1 L142.8 31.6 L143.0 31.1 L143.0 31.1 L143.3 30.1 L143.6 29.1 L144.0 28.1 L144.0 27.8 L144.1 27.7 L143.2 26.9 Z M136.4 176.7 L136.4 175.5 L136.5 174.2 L136.5 173.0 L136.5 171.7 L136.5 170.5 L136.5 169.2 L136.5 167.9 L136.5 166.7 L136.7 166.8 L136.7 166.8 L136.8 166.9 L136.8 167.0 L137.1 167.3 L137.4 167.6 L137.5 167.7 L137.8 167.8 L138.0 168.0 L138.1 168.1 L138.2 168.3 L138.4 168.8 L138.4 168.9 L138.4 168.9 L138.3 168.9 L138.3 168.8 L138.1 168.4 L138.0 168.4 L137.9 168.4 L137.8 168.5 L137.7 168.5 L137.5 168.6 L137.3 168.8 L137.0 168.9 L136.8 169.2 L136.8 169.3 L136.9 169.5 L137.1 169.6 L137.3 169.8 L137.5 169.8 L137.7 169.8 L138.1 169.9 L138.6 169.8 L138.9 170.0 L139.0 170.1 L139.1 170.2 L139.1 170.4 L139.1 170.4 L139.1 170.5 L139.2 170.7 L139.2 170.8 L139.5 171.1 L139.5 171.2 L140.4 171.8 L140.7 171.9 L140.8 172.0 L140.9 172.1 L140.8 172.1 L140.9 172.1 L141.0 172.1 L141.2 172.2 L141.5 172.3 L141.6 172.4 L141.4 172.4 L141.4 172.5 L141.4 172.6 L141.5 172.6 L142.7 173.3 L143.5 173.6 L144.0 173.8 L144.3 173.9 L144.4 174.0 L144.6 174.1 L145.2 174.2 L145.5 174.4 L145.8 174.7 L146.2 175.0 L146.3 175.1 L146.5 175.1 L146.6 175.3 L146.7 175.3 L146.9 175.3 L147.1 175.3 L147.5 175.5 L149.1 176.0 L149.2 176.0 L149.3 176.0 L149.3 176.0 L149.5 176.1 L149.6 176.1 L149.9 176.1 L150.2 176.2 L151.4 176.1 L151.6 176.1 L151.7 176.1 L152.1 176.0 L152.8 176.1 L152.8 176.1 L152.8 176.2 L152.7 176.2 L152.6 176.3 L152.6 176.3 L152.5 176.6 L152.5 176.6 L152.5 176.6 L152.5 176.7 L152.4 176.7 L152.3 176.8 L152.3 176.8 L152.4 176.9 L152.4 176.9 L152.3 177.0 L152.1 177.0 L152.1 177.1 L152.0 177.4 L151.9 177.4 L151.8 177.4 L151.8 177.4 L151.7 177.4 L151.7 177.4 L151.7 177.3 L151.6 177.3 L151.5 177.2 L151.3 177.2 L151.2 177.3 L151.3 177.4 L151.2 177.4 L150.8 177.4 L150.6 177.4 L150.6 177.5 L150.6 177.5 L150.5 177.6 L150.5 177.6 L150.4 177.6 L150.3 177.6 L150.2 177.6 L150.2 177.5 L150.2 177.5 L150.2 177.4 L150.2 177.4 L150.2 177.4 L150.1 177.3 L150.1 177.3 L150.0 177.3 L149.9 177.3 L149.7 177.4 L149.4 177.3 L149.3 177.3 L149.0 177.3 L148.9 177.3 L149.0 177.4 L149.1 177.5 L149.0 177.6 L148.9 177.6 L148.5 177.7 L148.3 177.7 L147.9 177.7 L147.3 177.7 L147.1 177.8 L147.1 177.9 L147.1 177.9 L146.8 178.0 L146.7 178.0 L146.3 178.0 L145.9 177.9 L145.7 177.9 L145.6 177.8 L145.6 177.7 L145.5 177.7 L145.1 177.5 L144.9 177.5 L144.4 177.4 L144.0 177.3 L142.6 177.3 L141.6 177.2 L141.0 177.2 L139.8 177.1 L139.1 177.0 L138.9 176.9 L138.4 176.9 L138.2 176.8 L138.0 176.8 L138.0 176.8 L138.0 176.9 L138.0 177.0 L137.9 177.0 L137.0 177.1 L136.9 177.0 L136.8 177.0 L136.7 176.9 L136.5 176.7 L136.4 176.7 Z" fill="#172033" fill-rule="evenodd"/></svg>
