<svg xmlns="http://www.w3.org/2000/svg" viewBox="0 0 320 200" role="img"><path d="M290.6 67.1 L291.0 68.8 L290.8 69.2 L290.7 69.4 L290.1 69.8 L289.5 70.1 L289.2 70.5 L289.1 71.0 L288.1 71.9 L287.7 72.4 L287.6 72.9 L287.3 74.8 L287.2 75.0 L287.1 75.1 L287.0 75.3 L287.0 75.7 L287.1 75.9 L287.4 76.0 L288.1 76.1 L288.3 76.2 L288.7 76.4 L289.1 76.7 L289.2 76.9 L289.2 77.1 L289.0 77.3 L289.0 77.5 L289.1 77.6 L289.2 77.6 L289.3 77.8 L289.5 78.0 L289.5 78.2 L289.6 78.4 L289.9 78.5 L290.2 78.6 L290.6 78.9 L290.8 78.9 L291.0 79.1 L291.0 79.2 L291.0 79.6 L291.0 79.8 L291.5 81.1 L291.7 81.7 L291.7 82.5 L292.0 83.1 L292.9 83.8 L293.4 84.0 L294.0 84.0 L294.3 84.2 L294.9 84.9 L295.1 85.1 L295.5 85.4 L295.2 85.7 L295.0 86.1 L294.8 86.7 L294.9 86.8 L295.3 87.0 L295.2 87.6 L296.0 87.9 L297.2 88.2 L298.0 88.7 L295.7 90.0 L296.1 90.3 L296.1 90.5 L295.9 90.8 L295.8 91.1 L295.7 91.1 L295.4 91.3 L295.3 91.4 L295.4 91.5 L295.5 91.6 L295.7 91.7 L295.8 91.7 L295.6 92.4 L295.4 92.9 L295.1 93.2 L294.5 93.5 L293.2 93.7 L292.8 93.9 L292.8 94.3 L293.0 94.4 L293.8 94.7 L294.1 94.8 L294.4 95.5 L294.6 95.7 L294.1 96.1 L294.2 96.8 L294.4 97.5 L294.5 98.7 L294.6 99.0 L294.9 99.3 L295.4 99.5 L294.6 99.7 L292.0 100.0 L289.1 100.4 L287.7 100.3 L287.2 99.3 L286.7 99.6 L286.0 100.4 L285.6 100.6 L285.3 100.7 L283.3 100.5 L282.9 100.3 L282.5 100.0 L282.2 99.6 L282.1 99.3 L281.9 98.9 L281.4 98.7 L278.5 98.0 L277.0 97.8 L275.7 98.2 L275.4 98.6 L275.5 99.1 L275.3 99.4 L275.0 99.6 L273.6 100.1 L273.1 100.4 L272.9 100.5 L272.7 100.4 L272.5 100.3 L272.3 100.1 L272.1 100.3 L271.5 100.9 L271.2 101.2 L271.9 101.4 L273.9 102.0 L274.9 101.8 L277.3 102.5 L278.5 102.4 L279.3 102.6 L279.9 103.2 L280.2 103.9 L280.0 104.6 L280.6 104.9 L281.1 105.2 L281.4 105.7 L281.3 106.2 L281.0 106.7 L279.9 107.0 L279.5 107.3 L279.6 108.7 L279.1 109.0 L277.8 109.7 L273.9 110.9 L273.5 110.4 L273.0 110.2 L272.5 110.3 L272.1 110.8 L272.2 112.1 L272.2 112.3 L272.0 112.3 L271.8 112.4 L271.8 112.6 L271.9 112.8 L272.1 112.8 L272.2 112.9 L272.3 112.9 L273.4 114.5 L273.6 115.1 L273.3 115.6 L272.8 115.9 L271.7 116.3 L271.7 116.3 L271.8 117.0 L271.3 117.8 L271.4 118.3 L271.6 118.5 L271.9 118.5 L272.2 118.5 L272.4 118.7 L272.4 119.0 L272.1 119.6 L272.1 119.8 L272.6 120.1 L273.8 119.7 L274.4 119.7 L274.9 120.1 L274.7 120.6 L273.9 121.3 L273.1 121.6 L272.9 122.2 L273.2 122.6 L273.9 122.8 L274.3 123.0 L274.4 123.1 L274.3 123.3 L273.9 123.5 L272.3 124.0 L271.8 124.2 L272.8 124.3 L273.4 124.5 L273.9 124.8 L274.0 125.2 L273.4 125.3 L272.4 125.3 L271.8 125.4 L271.8 125.4 L271.7 125.5 L271.5 125.5 L271.3 125.5 L271.1 125.4 L270.5 125.0 L269.7 125.0 L268.2 125.1 L266.9 124.9 L266.4 125.0 L266.0 125.4 L265.9 125.9 L265.6 126.1 L265.2 126.1 L264.9 126.3 L264.8 126.6 L264.8 126.8 L264.8 127.0 L264.5 127.3 L264.3 127.4 L263.5 127.6 L262.6 128.1 L262.2 128.4 L260.9 129.6 L260.4 129.9 L259.8 130.1 L258.4 130.7 L257.6 131.0 L257.5 131.0 L256.0 131.3 L255.8 131.4 L255.4 131.6 L255.5 131.7 L255.6 131.8 L255.7 132.0 L255.4 133.2 L255.4 133.3 L255.3 133.8 L255.4 134.4 L255.8 135.3 L256.6 135.6 L257.0 136.2 L257.1 137.0 L257.0 137.0 L256.4 136.5 L256.0 136.3 L254.5 136.1 L252.1 135.2 L251.0 135.1 L250.0 135.2 L248.7 135.5 L247.6 135.8 L246.6 135.9 L243.9 135.6 L243.3 135.3 L243.2 135.9 L243.2 136.4 L242.9 136.7 L242.8 136.8 L242.6 136.9 L242.1 137.0 L241.6 136.8 L240.8 136.9 L240.0 137.0 L239.5 137.3 L239.1 137.8 L239.1 137.9 L239.0 138.2 L238.9 138.4 L238.8 138.6 L238.1 138.9 L237.0 139.1 L236.2 138.7 L236.0 138.6 L235.4 138.2 L234.3 137.9 L232.3 138.0 L227.7 138.2 L226.5 138.1 L224.1 137.9 L223.4 137.9 L222.5 137.8 L220.4 138.3 L219.1 139.6 L218.4 138.9 L217.9 138.8 L217.3 139.1 L216.6 139.4 L216.4 139.4 L215.8 139.5 L215.3 139.4 L214.8 139.6 L214.2 140.2 L213.8 140.8 L213.5 141.4 L213.3 141.9 L212.9 142.5 L212.6 143.0 L212.4 143.1 L211.6 143.3 L210.7 143.5 L210.4 143.3 L209.8 143.5 L209.5 143.7 L209.4 143.9 L208.9 144.3 L208.7 144.7 L208.4 144.7 L208.2 144.6 L208.0 144.7 L207.3 145.2 L206.9 145.4 L206.6 145.4 L205.8 145.5 L205.4 145.6 L204.9 146.1 L204.6 146.8 L204.4 147.1 L204.3 147.4 L203.6 147.6 L203.1 147.3 L202.7 146.6 L202.2 146.2 L201.0 146.4 L200.4 146.3 L199.9 146.1 L199.3 146.0 L199.1 145.8 L199.0 145.6 L198.8 145.4 L198.4 145.3 L197.2 145.5 L192.8 145.4 L189.5 145.4 L189.4 145.4 L189.0 145.3 L187.0 144.1 L186.5 143.9 L185.9 143.8 L185.2 143.8 L184.6 143.8 L184.0 143.9 L183.4 143.9 L180.1 142.8 L179.0 142.7 L176.7 142.9 L176.2 142.9 L173.8 142.5 L173.3 142.5 L172.7 142.6 L172.1 142.5 L167.8 141.6 L166.2 141.5 L165.9 141.4 L165.4 141.0 L165.2 140.9 L163.0 141.0 L161.4 140.8 L157.7 141.4 L156.2 141.3 L155.5 141.1 L153.2 140.1 L150.2 139.7 L141.7 139.2 L139.7 138.3 L138.8 138.1 L138.5 138.0 L138.2 138.1 L137.6 138.2 L137.3 138.2 L136.9 138.1 L136.3 137.8 L136.0 137.7 L135.9 137.7 L134.1 137.6 L132.0 137.7 L131.5 137.7 L130.9 137.5 L129.8 137.0 L128.7 136.9 L127.8 136.7 L126.4 136.3 L125.1 135.6 L124.4 134.4 L124.1 133.6 L123.5 133.4 L122.7 133.3 L122.0 133.1 L121.6 132.9 L121.4 132.8 L121.4 132.5 L121.4 132.1 L121.5 131.6 L121.6 131.4 L121.7 131.1 L121.7 130.7 L121.3 129.9 L120.8 129.6 L119.3 129.6 L118.8 129.5 L118.5 129.3 L118.3 129.1 L117.9 128.8 L117.5 128.6 L116.7 128.5 L116.3 128.4 L116.8 128.1 L116.8 127.7 L116.6 127.4 L116.3 127.0 L116.1 126.1 L116.0 125.7 L115.7 125.4 L116.1 124.7 L118.3 123.9 L119.1 123.2 L119.1 122.7 L119.1 122.2 L118.2 122.0 L116.5 122.3 L115.9 122.4 L112.2 123.7 L109.7 123.7 L108.1 124.1 L106.5 124.7 L105.3 125.4 L103.6 125.5 L103.2 125.7 L102.5 126.1 L102.1 126.2 L101.4 126.0 L100.3 125.4 L99.6 125.4 L99.3 125.4 L99.0 125.4 L99.0 125.4 L99.0 125.4 L97.1 125.1 L96.2 125.2 L95.2 125.4 L95.2 125.4 L95.2 125.4 L95.2 125.4 L94.8 125.5 L94.5 125.5 L94.2 125.5 L93.9 125.4 L93.7 125.2 L93.5 125.1 L93.2 125.0 L92.6 124.9 L92.2 124.9 L91.9 125.1 L91.6 125.4 L91.6 125.4 L90.4 126.2 L89.3 126.2 L88.2 125.8 L86.9 125.6 L84.3 125.9 L81.8 126.4 L81.2 126.7 L78.8 128.3 L78.5 128.7 L78.2 130.0 L77.5 131.1 L77.4 131.3 L77.5 131.6 L77.4 131.8 L77.3 131.9 L76.9 132.1 L76.7 132.2 L75.9 133.1 L75.4 133.5 L74.9 133.5 L74.3 133.4 L73.0 133.3 L72.4 133.4 L71.2 133.6 L70.8 133.7 L70.5 133.6 L69.8 133.2 L69.5 133.1 L69.1 133.1 L68.5 133.2 L68.1 133.2 L67.1 132.8 L66.6 132.7 L65.9 132.9 L65.5 132.8 L65.3 132.5 L65.4 132.4 L66.2 131.9 L66.4 131.7 L66.1 131.3 L63.3 130.2 L62.7 130.1 L62.1 130.1 L58.4 130.8 L56.9 130.7 L55.7 130.0 L55.7 129.3 L56.1 128.0 L55.9 127.4 L55.6 127.2 L54.4 126.5 L53.6 125.6 L53.2 125.4 L53.2 125.4 L53.2 125.4 L53.0 125.3 L52.8 125.3 L52.6 125.3 L51.6 125.7 L50.7 126.4 L50.0 127.2 L50.0 127.9 L49.1 127.9 L48.4 127.8 L47.8 127.9 L47.3 128.5 L47.1 129.0 L47.1 129.3 L47.0 129.6 L46.6 129.9 L45.0 130.5 L44.1 130.7 L43.9 130.7 L43.4 130.7 L41.8 130.3 L41.0 130.0 L39.6 129.1 L35.7 128.2 L34.8 127.7 L34.3 127.3 L34.3 127.0 L34.4 126.6 L34.5 125.7 L34.6 125.4 L34.6 125.2 L34.5 125.1 L34.3 125.1 L34.1 125.0 L34.2 124.6 L27.4 123.1 L26.7 123.0 L24.8 123.2 L24.2 123.1 L25.2 122.2 L25.4 121.3 L25.1 120.3 L24.2 119.5 L23.1 119.1 L23.1 118.8 L23.5 118.2 L23.5 118.0 L23.2 117.5 L22.9 117.1 L22.7 116.8 L22.9 116.3 L22.3 115.9 L22.0 115.6 L23.2 114.3 L24.4 113.3 L24.5 113.0 L24.7 112.4 L24.9 112.0 L26.3 110.8 L26.6 110.3 L26.7 108.8 L25.6 108.1 L24.3 107.7 L23.2 106.6 L23.2 106.4 L23.0 105.8 L23.0 105.8 L23.2 105.8 L25.3 106.2 L27.6 106.2 L28.6 105.9 L29.1 105.3 L29.6 104.7 L30.4 104.1 L30.9 103.9 L31.4 103.8 L32.0 104.0 L32.4 104.3 L32.5 104.7 L32.4 105.1 L32.6 105.5 L33.3 105.8 L33.6 105.8 L34.0 105.6 L34.2 105.5 L35.3 105.8 L36.4 105.9 L36.9 105.8 L37.4 105.6 L37.5 106.2 L37.8 106.5 L38.3 106.8 L38.6 107.3 L38.6 107.4 L38.6 107.5 L38.7 107.7 L39.1 107.9 L39.4 107.8 L39.7 107.6 L40.1 107.5 L41.9 109.2 L42.2 109.7 L42.1 110.0 L41.3 110.5 L41.6 110.8 L41.7 111.2 L41.8 111.5 L42.0 111.9 L42.3 112.1 L42.6 112.1 L42.8 112.0 L43.3 111.8 L43.5 111.8 L43.9 112.0 L44.1 112.0 L44.2 111.9 L44.6 111.6 L46.2 111.4 L46.9 111.6 L46.9 112.3 L46.2 113.6 L46.3 113.9 L46.3 114.1 L46.2 114.3 L46.1 114.4 L45.6 114.5 L45.4 114.6 L45.1 115.0 L45.0 115.2 L45.1 115.3 L45.7 115.3 L48.0 115.1 L48.8 114.9 L50.4 114.2 L51.1 113.7 L51.8 113.2 L52.6 112.1 L52.8 111.8 L53.2 111.7 L53.9 111.5 L54.2 111.3 L54.8 110.8 L55.4 110.1 L55.7 109.2 L55.7 108.5 L55.5 108.0 L55.3 107.7 L55.0 107.5 L54.5 107.3 L54.9 105.8 L54.9 105.5 L54.7 105.1 L54.4 104.7 L54.3 104.4 L54.9 104.2 L55.5 104.2 L55.7 104.1 L55.9 104.2 L56.0 104.5 L56.0 104.6 L55.8 104.8 L55.7 105.0 L55.7 105.4 L55.9 105.5 L56.2 105.7 L56.8 105.8 L58.3 106.0 L58.8 105.9 L59.2 105.7 L59.9 105.0 L60.5 104.8 L61.3 104.8 L66.1 106.0 L66.2 106.1 L66.4 106.3 L66.5 106.5 L66.9 106.5 L67.9 106.4 L69.4 106.0 L69.9 105.9 L70.4 105.9 L70.8 106.1 L71.6 106.5 L71.3 106.7 L70.1 107.3 L70.4 107.6 L72.3 108.1 L74.1 109.5 L74.2 109.6 L74.2 109.9 L74.1 110.1 L74.0 110.3 L73.9 110.3 L74.3 110.8 L74.8 111.0 L78.5 111.0 L79.3 110.9 L81.6 109.8 L82.5 109.6 L83.3 109.8 L83.2 110.8 L84.1 110.9 L84.9 110.6 L85.4 110.2 L85.9 109.8 L86.6 109.4 L87.2 109.2 L88.8 109.2 L89.4 109.0 L89.7 108.7 L89.6 108.4 L89.2 108.2 L88.7 108.1 L90.4 106.8 L91.3 106.7 L92.2 106.8 L93.0 106.9 L94.7 106.7 L95.5 106.5 L96.1 106.0 L96.3 105.7 L96.6 104.9 L96.8 104.5 L97.8 103.9 L98.0 103.8 L98.6 103.8 L100.2 104.0 L103.2 104.0 L105.2 104.3 L105.6 104.2 L105.9 103.6 L106.3 103.4 L109.4 103.0 L117.7 103.3 L118.0 103.2 L119.0 102.3 L119.1 102.1 L119.2 101.8 L119.1 100.8 L119.0 100.6 L118.8 100.5 L118.5 100.3 L118.3 100.1 L118.2 99.9 L118.1 99.6 L118.7 99.4 L119.5 98.9 L119.8 98.8 L120.4 98.6 L120.5 98.6 L120.4 98.8 L120.3 99.2 L120.1 99.5 L119.9 99.7 L119.8 99.9 L120.0 100.3 L120.3 100.6 L120.7 100.5 L121.5 100.2 L122.3 100.2 L124.4 100.5 L125.0 100.4 L126.5 100.0 L127.0 100.1 L127.2 100.3 L127.6 101.1 L127.8 101.4 L128.1 101.6 L129.2 102.2 L129.7 102.4 L130.4 102.4 L131.2 102.3 L131.7 102.1 L132.1 101.9 L133.4 101.1 L134.0 100.9 L135.3 100.7 L136.6 100.7 L138.7 101.0 L139.3 101.0 L138.9 101.6 L139.5 102.1 L140.4 102.5 L141.1 103.0 L140.1 103.3 L139.7 104.2 L139.9 105.0 L140.8 105.5 L141.3 105.6 L141.7 105.7 L142.0 105.8 L143.6 107.1 L145.4 108.0 L145.8 108.1 L146.1 108.0 L146.4 107.9 L146.8 107.9 L147.1 108.0 L147.3 108.2 L147.6 108.3 L148.0 108.3 L148.2 108.1 L149.2 107.3 L149.2 107.0 L149.1 106.8 L149.0 106.6 L148.9 106.4 L148.9 106.2 L148.9 105.5 L149.0 105.4 L149.3 104.8 L149.4 104.8 L149.3 104.8 L149.3 104.0 L149.4 104.0 L150.0 103.5 L150.0 103.4 L150.4 102.7 L150.5 102.6 L150.6 102.2 L150.6 101.7 L150.5 101.3 L150.2 100.7 L149.5 99.9 L149.1 99.6 L148.6 99.3 L148.0 99.3 L147.1 99.5 L146.6 99.6 L144.6 99.3 L144.0 98.9 L144.7 98.2 L144.7 98.2 L144.9 98.0 L145.0 97.7 L145.0 97.5 L145.0 97.3 L145.2 97.0 L147.6 94.5 L147.4 94.4 L146.6 93.6 L145.4 91.7 L144.8 91.3 L144.5 91.1 L143.8 90.6 L142.9 90.3 L142.6 90.0 L142.4 89.6 L142.4 89.6 L142.3 89.2 L141.8 88.4 L139.2 86.6 L138.9 86.2 L138.6 85.8 L138.4 85.3 L138.4 84.8 L138.7 84.6 L138.9 84.5 L139.1 84.5 L139.3 84.5 L139.9 83.9 L140.0 83.8 L141.5 83.1 L141.9 82.8 L142.6 82.1 L142.9 81.8 L143.5 81.6 L145.5 81.4 L145.4 81.3 L146.0 81.0 L147.1 80.5 L148.5 79.7 L149.1 79.4 L152.8 78.4 L157.8 77.8 L159.0 77.4 L162.6 75.3 L163.1 74.7 L163.3 74.0 L163.3 73.8 L163.5 73.6 L163.7 73.4 L163.7 73.0 L163.7 72.0 L163.7 71.6 L163.9 71.3 L164.4 70.6 L164.5 70.2 L164.4 69.9 L164.1 69.6 L163.9 68.9 L163.8 68.8 L163.8 68.6 L164.0 68.4 L164.3 68.2 L165.5 67.9 L166.7 67.8 L170.5 68.5 L171.1 68.7 L171.7 69.0 L172.3 69.6 L173.7 70.0 L173.8 70.1 L174.1 69.1 L174.4 68.7 L174.6 68.7 L175.3 68.6 L175.6 68.5 L175.9 68.3 L176.1 68.2 L176.7 67.3 L176.9 66.8 L177.0 66.3 L177.1 65.7 L176.9 64.5 L177.0 64.1 L177.4 63.8 L177.0 63.6 L176.8 63.5 L176.4 63.0 L176.2 63.1 L176.3 62.7 L177.4 61.2 L178.9 61.5 L179.5 61.7 L180.2 62.0 L181.0 62.5 L183.4 63.4 L183.8 63.6 L184.4 64.2 L184.6 64.5 L184.8 64.6 L185.0 64.7 L185.2 64.8 L185.3 65.0 L185.3 65.2 L185.1 65.3 L184.9 65.2 L184.8 65.3 L184.6 65.6 L184.4 65.7 L184.3 65.8 L184.5 66.3 L184.6 66.5 L185.2 67.0 L185.6 67.2 L186.8 67.5 L191.9 67.9 L195.5 68.7 L195.8 68.7 L196.1 68.6 L196.9 68.3 L198.7 67.7 L199.3 67.3 L200.1 65.9 L200.7 65.7 L201.5 66.3 L203.0 66.8 L203.4 66.9 L203.9 66.8 L205.0 66.5 L205.6 66.5 L205.8 66.6 L205.9 66.8 L205.9 67.1 L206.0 67.2 L206.3 67.2 L206.8 67.1 L207.0 67.1 L207.4 67.5 L207.6 67.8 L207.9 68.1 L208.5 68.1 L209.1 67.7 L209.2 67.6 L209.4 66.7 L209.4 65.6 L209.5 64.6 L210.2 63.8 L212.1 62.7 L212.3 62.0 L212.7 61.6 L212.8 61.2 L213.0 60.8 L213.6 60.7 L215.5 60.9 L217.3 61.4 L218.1 61.3 L218.5 60.7 L218.4 60.6 L218.2 60.4 L218.1 60.1 L218.0 59.9 L218.1 59.6 L218.3 59.2 L219.1 56.9 L219.1 55.9 L219.0 54.8 L219.0 53.8 L219.5 53.0 L219.4 52.8 L219.4 52.6 L219.5 52.5 L219.6 52.5 L220.4 52.4 L222.4 52.8 L225.2 53.0 L225.5 53.5 L225.7 54.0 L225.6 54.5 L225.4 55.0 L226.1 55.0 L228.9 54.5 L229.1 54.5 L229.6 54.1 L229.7 53.9 L229.8 53.4 L229.9 53.2 L230.2 53.2 L230.4 53.4 L230.5 53.6 L230.7 53.6 L232.4 53.7 L233.2 53.8 L234.9 54.4 L236.6 54.7 L237.3 55.0 L239.1 56.1 L240.0 56.3 L242.1 56.8 L244.9 57.9 L245.7 58.0 L246.6 58.0 L247.2 57.9 L248.5 57.4 L248.8 57.4 L249.9 57.4 L250.1 57.5 L250.2 57.9 L250.4 58.1 L250.7 58.2 L251.4 58.2 L251.7 58.4 L252.0 58.5 L252.3 58.5 L251.9 58.8 L252.4 58.7 L252.8 58.7 L253.1 58.9 L253.1 59.3 L253.7 59.2 L253.9 59.3 L253.9 59.6 L254.0 59.8 L257.6 61.5 L259.5 62.1 L262.9 61.9 L267.9 62.4 L268.0 62.4 L268.7 62.3 L269.2 62.6 L269.4 62.6 L270.0 62.5 L270.4 62.3 L272.2 60.2 L272.8 59.9 L273.9 60.0 L274.3 60.0 L274.9 59.8 L275.2 59.8 L275.6 59.9 L276.2 60.1 L278.4 60.5 L279.0 60.6 L279.7 60.8 L280.0 61.2 L280.1 61.7 L280.4 62.2 L280.9 62.4 L281.5 62.4 L282.8 62.4 L283.4 62.5 L284.7 63.1 L285.4 63.3 L286.1 63.2 L287.4 62.9 L288.0 62.9 L288.9 63.7 L289.4 66.1 L290.6 67.1 Z" fill="#172033" fill-rule="evenodd"/></svg>
