<svg xmlns="http://www.w3.org/2000/svg" viewBox="0 0 320 200" role="img"><path d="M159.2 159.0 L159.2 159.0 L153.6 156.5 L154.6 156.5 L156.2 157.0 L157.2 157.2 L156.3 156.6 L155.0 156.1 L158.1 155.6 L159.7 154.7 L159.5 153.1 L159.5 153.1 L159.5 153.1 L159.5 153.1 L157.8 150.1 L156.0 148.6 L155.4 148.1 L147.6 144.3 L147.1 144.0 L146.2 143.3 L145.6 142.2 L145.1 141.0 L144.7 140.4 L144.1 140.0 L142.9 139.5 L140.6 137.9 L138.4 135.4 L137.1 132.5 L138.2 127.7 L137.3 126.3 L135.5 125.4 L130.0 124.8 L126.6 123.4 L125.4 122.6 L123.5 121.4 L120.8 119.0 L111.7 112.3 L105.3 108.6 L104.5 107.7 L104.0 106.4 L103.8 105.5 L103.4 104.6 L101.0 103.1 L99.2 101.2 L96.4 99.1 L94.7 97.4 L94.1 96.7 L93.2 95.9 L92.2 95.4 L89.7 94.7 L89.3 94.1 L89.0 93.2 L88.3 92.3 L87.7 92.2 L86.2 92.2 L85.6 92.2 L85.0 92.0 L84.4 91.6 L83.3 90.8 L82.4 89.8 L81.2 87.6 L80.3 86.5 L77.8 84.6 L76.9 83.6 L75.8 81.2 L75.3 79.4 L75.2 78.5 L75.4 77.9 L76.0 76.9 L76.2 76.5 L76.3 75.5 L76.3 75.5 L76.2 74.9 L75.5 74.5 L74.4 73.9 L73.3 73.8 L72.7 73.7 L72.5 73.9 L72.5 73.5 L72.9 73.2 L73.4 73.0 L73.7 72.6 L73.7 71.7 L73.3 70.6 L71.9 67.8 L71.6 66.7 L71.2 65.7 L70.6 65.1 L69.3 64.9 L67.3 65.6 L66.1 65.5 L64.9 64.6 L65.3 63.6 L66.3 62.8 L66.6 62.0 L67.0 61.8 L67.1 61.8 L66.9 61.0 L66.6 60.3 L66.2 59.8 L65.5 59.5 L64.1 59.4 L63.4 59.2 L62.8 58.9 L62.0 58.1 L61.6 56.7 L61.0 56.1 L60.5 56.1 L60.1 56.3 L59.6 56.3 L59.1 56.0 L58.9 55.5 L58.8 54.9 L58.6 54.4 L58.2 54.1 L57.5 54.0 L57.1 54.4 L56.8 54.9 L56.3 55.3 L55.8 55.4 L54.8 55.4 L54.3 55.6 L53.4 55.7 L52.9 55.3 L52.6 54.7 L52.1 54.2 L50.8 53.5 L50.5 53.2 L49.0 51.5 L48.4 50.5 L48.3 49.6 L49.1 48.8 L50.3 48.5 L51.3 48.2 L51.6 47.2 L51.0 46.1 L50.1 45.0 L49.3 43.9 L49.1 42.5 L49.3 42.0 L49.6 41.4 L51.0 39.7 L51.2 38.7 L50.6 36.9 L50.6 35.9 L51.9 33.4 L52.2 32.5 L52.0 29.1 L52.0 28.7 L52.7 27.4 L53.3 27.0 L54.5 26.2 L57.6 25.9 L63.1 26.0 L64.4 25.8 L65.0 25.8 L65.7 26.0 L66.2 26.5 L66.2 27.1 L66.0 27.5 L65.9 27.7 L66.4 28.0 L67.7 28.2 L68.4 28.6 L69.3 29.6 L70.5 31.8 L71.5 32.8 L76.7 36.5 L78.4 37.2 L80.5 37.9 L82.7 38.2 L84.0 37.9 L84.4 37.1 L85.0 35.5 L86.2 34.0 L86.4 33.5 L86.5 32.8 L86.4 32.5 L86.4 32.1 L86.8 31.6 L87.4 31.3 L88.9 31.0 L89.5 30.7 L90.3 29.8 L92.1 26.9 L94.8 25.6 L98.2 25.6 L109.6 28.0 L111.0 27.9 L111.7 27.5 L111.8 27.0 L111.8 26.5 L112.1 25.9 L112.7 25.5 L113.3 25.3 L113.9 25.0 L114.2 24.4 L114.7 24.2 L115.3 23.7 L115.7 23.2 L115.9 22.9 L117.5 22.0 L117.9 22.3 L118.4 23.5 L118.5 24.0 L118.4 24.5 L118.8 24.8 L120.0 24.7 L119.8 24.3 L119.6 23.9 L120.4 24.1 L121.1 24.7 L121.7 25.0 L122.3 24.3 L122.5 24.8 L122.6 25.1 L122.5 25.4 L122.3 25.9 L122.6 25.7 L123.5 25.3 L123.9 25.1 L125.0 26.8 L127.4 28.1 L128.9 28.6 L132.5 29.8 L133.1 29.5 L135.8 29.4 L136.1 29.1 L137.2 27.4 L139.4 28.5 L140.5 28.8 L142.4 29.7 L142.9 30.0 L143.7 30.3 L144.7 30.2 L146.6 29.8 L146.8 29.6 L146.9 29.2 L147.2 29.0 L147.6 29.2 L147.9 29.6 L148.0 29.9 L147.8 30.2 L147.4 30.6 L148.1 30.8 L148.8 30.7 L150.2 30.2 L149.7 31.4 L149.4 31.7 L149.8 31.6 L152.7 31.4 L153.9 31.5 L154.6 31.4 L155.7 30.9 L157.9 29.3 L159.1 28.8 L161.0 28.9 L162.7 29.6 L164.2 30.7 L167.4 33.6 L168.5 34.3 L169.6 34.6 L170.2 34.6 L171.9 34.1 L173.5 33.8 L173.9 33.6 L174.9 33.0 L178.4 30.1 L179.2 29.7 L180.1 29.7 L181.0 30.1 L184.2 32.1 L185.5 32.5 L186.6 32.7 L187.3 32.7 L187.8 32.7 L189.0 32.5 L190.1 32.1 L190.4 31.5 L190.5 30.8 L190.6 30.0 L191.2 29.5 L192.7 29.3 L194.0 29.7 L196.6 31.0 L197.5 31.3 L201.5 31.5 L202.6 31.9 L203.6 32.4 L204.9 33.4 L205.7 34.0 L206.6 34.5 L207.1 34.7 L208.6 35.1 L210.0 35.1 L209.9 34.3 L209.6 33.6 L209.6 33.2 L209.7 33.1 L210.5 32.9 L211.0 32.9 L211.9 33.0 L212.3 33.1 L212.7 33.0 L213.5 32.6 L213.9 32.6 L214.3 32.7 L214.6 33.0 L215.0 33.7 L215.3 34.2 L215.7 34.5 L216.2 34.7 L216.7 34.5 L216.9 34.2 L217.0 33.9 L217.2 33.5 L217.5 33.3 L217.9 33.3 L218.2 33.4 L218.5 33.7 L220.6 36.8 L221.3 37.4 L222.0 37.6 L223.6 37.7 L224.0 37.8 L224.2 38.0 L224.4 38.2 L224.5 38.5 L224.5 38.7 L224.5 39.0 L224.6 39.1 L224.7 39.3 L225.0 39.6 L225.1 39.8 L224.9 40.3 L223.7 41.0 L223.3 41.6 L223.9 43.2 L225.8 44.7 L227.2 45.4 L228.2 45.8 L230.0 46.2 L234.8 46.1 L236.6 46.1 L237.2 46.0 L239.0 45.6 L240.2 45.5 L241.1 45.2 L246.2 42.6 L247.0 42.4 L247.3 42.8 L247.5 43.3 L247.8 43.5 L248.4 43.5 L249.4 43.2 L250.0 43.1 L252.5 43.5 L253.0 43.5 L253.5 43.3 L254.0 43.3 L255.2 44.1 L255.7 44.2 L256.3 44.2 L256.5 44.1 L256.5 44.1 L256.7 44.2 L257.0 44.5 L257.4 44.7 L257.6 45.1 L257.8 45.5 L257.8 46.1 L257.6 46.3 L257.3 46.3 L257.1 46.6 L255.1 53.5 L254.5 54.6 L253.9 55.2 L252.8 55.9 L252.2 56.3 L251.7 56.9 L250.9 58.6 L248.2 61.8 L248.0 62.0 L247.3 62.3 L247.1 62.6 L246.9 62.9 L247.0 63.9 L246.9 64.3 L246.6 64.7 L246.2 65.1 L245.7 65.4 L243.7 65.9 L243.6 66.8 L244.5 69.3 L244.4 70.9 L243.7 71.7 L242.9 72.4 L242.4 73.6 L242.5 74.7 L243.0 75.9 L244.2 77.8 L245.3 78.7 L246.4 79.1 L248.9 79.5 L250.1 79.9 L250.6 80.0 L251.4 80.1 L253.2 79.7 L253.9 79.8 L254.8 80.4 L255.8 81.5 L256.5 82.7 L256.7 83.8 L257.0 84.6 L258.1 85.4 L260.6 86.7 L261.2 87.2 L261.6 87.3 L261.9 87.3 L262.6 86.8 L262.9 86.8 L263.4 87.2 L263.5 88.3 L263.9 88.6 L264.8 89.2 L265.8 90.3 L266.2 90.7 L268.0 91.4 L269.0 92.3 L269.5 92.6 L269.7 92.4 L270.0 92.1 L270.6 91.9 L271.3 92.4 L271.7 93.5 L271.2 94.4 L270.2 95.2 L267.9 96.5 L266.5 96.8 L265.1 96.9 L261.9 96.7 L258.8 96.8 L258.0 97.0 L257.1 97.1 L256.4 96.7 L254.9 95.7 L253.5 95.0 L252.7 94.8 L251.9 94.8 L250.7 95.1 L250.2 95.4 L249.9 96.0 L249.9 96.4 L250.2 97.1 L250.1 97.5 L249.4 98.0 L250.1 98.3 L252.0 99.3 L253.8 101.0 L256.9 104.6 L262.7 109.1 L263.9 111.0 L265.2 114.2 L265.3 115.7 L263.9 116.8 L263.6 117.5 L263.5 118.3 L263.6 119.1 L263.9 119.7 L264.3 120.0 L264.4 120.2 L264.3 120.5 L263.9 120.7 L261.7 120.0 L261.0 120.1 L260.3 121.3 L259.8 121.8 L259.3 121.3 L258.9 120.3 L258.1 119.2 L257.1 118.3 L256.1 117.9 L255.5 118.1 L254.2 118.8 L253.5 119.1 L252.8 119.1 L251.4 118.9 L250.7 119.1 L249.9 120.0 L249.4 121.3 L248.7 122.3 L247.5 122.3 L244.7 122.0 L243.3 122.1 L241.8 123.4 L240.6 123.7 L239.4 123.8 L238.5 123.5 L237.7 122.8 L237.1 122.0 L236.3 121.4 L235.0 121.5 L234.1 122.0 L232.8 123.1 L231.7 123.4 L231.2 123.7 L230.8 124.2 L230.9 124.7 L231.4 125.0 L232.3 125.2 L232.7 125.4 L233.5 126.2 L233.5 126.6 L233.2 127.1 L233.2 127.4 L234.5 127.1 L234.9 127.3 L236.8 129.2 L238.5 132.7 L240.3 135.1 L239.9 135.3 L238.4 135.4 L237.7 135.7 L237.6 135.8 L237.3 136.1 L236.9 136.6 L236.4 137.1 L235.8 137.5 L235.7 137.2 L235.6 137.1 L234.5 136.0 L234.0 135.4 L233.8 134.9 L233.9 134.5 L233.8 134.1 L233.4 133.7 L231.9 132.9 L230.5 132.6 L227.1 132.9 L226.0 133.2 L226.2 133.5 L226.6 134.0 L226.7 134.2 L225.2 134.6 L217.9 138.5 L217.1 139.4 L218.4 139.9 L216.0 142.5 L215.0 143.9 L214.6 145.6 L214.6 145.8 L214.6 147.2 L215.6 151.6 L213.3 151.4 L209.9 151.4 L206.7 151.9 L205.0 153.1 L203.8 155.4 L203.9 156.4 L204.4 157.5 L205.8 159.5 L206.1 160.6 L205.7 161.2 L205.0 161.6 L204.4 162.2 L204.5 163.2 L205.0 164.6 L205.8 166.0 L207.8 168.4 L208.9 169.3 L209.9 170.2 L210.5 171.8 L210.5 173.4 L210.1 174.2 L209.9 174.6 L208.6 175.5 L208.0 175.8 L206.9 176.2 L207.3 176.8 L207.4 177.3 L207.2 177.7 L206.6 177.7 L206.0 177.4 L205.3 177.4 L204.7 177.6 L204.1 178.0 L203.1 177.7 L201.1 177.6 L200.2 177.2 L200.2 177.1 L199.0 175.9 L198.4 175.5 L196.9 175.6 L193.8 174.8 L191.9 174.1 L181.9 169.1 L178.8 167.6 L177.4 166.8 L175.0 164.7 L173.6 164.0 L171.6 163.5 L170.9 163.2 L169.1 161.2 L169.0 160.5 L169.1 159.1 L168.9 158.6 L168.3 157.9 L167.7 157.9 L167.3 158.2 L166.8 158.4 L165.6 158.3 L163.2 157.6 L162.0 157.4 L160.7 157.6 L159.9 158.2 L159.2 159.0 Z" fill="#172033" fill-rule="evenodd"/></svg>
