<svg xmlns="http://www.w3.org/2000/svg" viewBox="0 0 320 200" role="img"><path d="M22.0 57.6 L23.4 56.9 L26.2 56.4 L35.9 51.7 L50.8 46.2 L65.2 40.3 L81.3 37.0 L81.3 37.0 L81.9 39.8 L81.6 41.5 L81.6 43.2 L82.6 45.0 L84.3 46.2 L84.8 46.3 L86.5 46.8 L88.8 47.0 L92.2 46.7 L92.4 46.0 L92.2 45.1 L92.3 44.3 L93.1 43.7 L94.2 43.6 L95.3 43.5 L98.2 43.1 L99.9 43.1 L101.8 43.3 L110.5 45.1 L111.9 45.6 L112.2 46.6 L112.1 47.4 L112.2 48.1 L113.3 48.9 L114.2 49.2 L122.7 49.1 L124.3 48.8 L127.5 47.2 L136.4 44.4 L140.0 42.6 L142.8 40.2 L143.2 39.5 L143.7 37.8 L143.8 37.5 L143.8 37.5 L145.2 38.3 L145.7 39.0 L146.2 40.3 L147.4 41.3 L148.7 42.0 L149.6 42.7 L149.9 43.1 L150.0 43.6 L149.8 44.1 L149.3 44.6 L149.2 44.7 L150.0 44.4 L150.6 44.0 L151.6 42.7 L149.2 42.0 L148.6 41.7 L148.3 41.1 L148.4 39.5 L148.2 38.8 L147.6 38.2 L146.6 37.4 L148.0 37.4 L148.7 37.5 L151.3 38.3 L152.7 38.6 L156.0 38.8 L157.4 38.3 L157.7 37.1 L157.3 36.4 L155.7 35.2 L155.1 34.5 L155.2 33.8 L155.6 33.3 L155.8 32.7 L154.9 32.1 L158.7 30.8 L162.5 29.9 L164.6 29.7 L165.5 29.8 L166.1 30.4 L166.0 31.6 L165.4 32.5 L165.3 33.2 L166.6 33.8 L167.6 33.8 L169.6 33.6 L171.9 34.0 L173.0 33.9 L174.0 33.7 L174.7 33.3 L180.3 29.1 L182.6 28.3 L183.7 28.4 L185.0 28.7 L186.2 29.2 L186.9 29.8 L187.1 30.9 L186.6 31.9 L186.3 33.0 L186.8 34.2 L183.7 33.3 L182.9 33.4 L182.5 34.3 L184.0 34.7 L189.0 34.8 L190.3 35.0 L193.1 35.8 L194.7 35.5 L196.5 34.4 L198.1 33.0 L199.2 31.9 L199.7 31.0 L200.0 30.3 L200.4 29.9 L201.5 29.7 L201.7 29.9 L203.9 30.8 L205.3 32.5 L205.0 33.7 L204.2 34.8 L204.0 36.3 L204.4 37.0 L206.9 38.8 L207.3 39.4 L208.0 41.0 L208.3 41.4 L209.6 41.9 L212.3 41.7 L213.7 41.8 L214.9 42.8 L215.0 45.3 L216.2 45.5 L216.7 45.5 L218.9 45.1 L227.4 45.3 L228.9 45.0 L231.9 43.7 L233.3 43.2 L234.9 43.3 L236.5 44.0 L237.9 45.1 L238.4 46.5 L238.6 48.1 L239.0 48.3 L240.2 49.0 L244.3 49.8 L245.3 50.2 L246.0 50.7 L246.7 51.0 L248.0 51.0 L251.0 50.7 L251.9 50.7 L253.1 51.2 L254.6 52.5 L255.5 53.0 L257.7 52.6 L258.9 52.7 L259.6 53.6 L259.7 53.9 L258.7 54.6 L258.5 55.4 L260.1 56.5 L259.5 56.7 L258.8 56.9 L258.0 57.0 L257.2 57.0 L257.4 57.5 L257.5 57.7 L257.7 58.0 L257.2 59.0 L256.8 59.5 L256.2 59.9 L255.4 59.5 L254.8 59.7 L254.4 60.4 L254.3 61.4 L255.2 62.2 L254.1 63.9 L251.3 66.8 L252.9 66.5 L253.6 66.5 L254.3 66.8 L253.4 67.7 L252.2 69.3 L251.3 70.2 L250.9 70.4 L250.1 70.6 L249.3 70.8 L244.1 74.4 L244.3 76.0 L245.4 77.1 L246.6 77.7 L247.0 77.8 L248.6 78.3 L249.7 78.5 L249.6 79.4 L248.8 81.0 L250.1 81.5 L250.9 81.6 L251.7 81.5 L252.0 81.2 L252.8 80.4 L253.4 80.1 L254.2 80.3 L255.6 81.3 L256.4 81.6 L262.6 81.5 L263.4 81.7 L264.2 81.9 L269.4 82.0 L270.8 81.8 L270.7 81.9 L270.6 82.1 L270.6 82.2 L270.8 82.3 L271.9 82.7 L272.0 83.4 L271.7 84.2 L272.0 84.8 L272.9 84.8 L275.8 84.3 L277.0 84.4 L278.3 85.3 L282.7 89.5 L281.8 89.9 L282.6 90.9 L284.1 91.4 L289.0 91.5 L289.2 91.9 L288.7 92.6 L287.9 93.2 L287.9 93.5 L286.3 94.1 L284.0 95.3 L282.7 96.6 L283.9 97.5 L283.3 98.1 L283.4 98.4 L284.0 98.6 L284.8 98.6 L284.3 99.2 L284.8 99.6 L285.4 100.4 L286.0 100.7 L286.7 100.7 L289.1 100.2 L289.3 100.1 L289.5 100.1 L289.6 100.1 L289.8 100.2 L290.9 100.6 L294.0 101.0 L295.3 101.1 L294.5 101.6 L294.3 102.1 L294.5 102.8 L294.9 103.5 L295.5 104.1 L296.1 104.2 L296.3 104.5 L296.3 105.6 L295.8 107.3 L295.3 108.3 L295.4 109.1 L297.9 111.9 L297.9 112.4 L298.0 112.9 L297.1 113.5 L295.2 113.7 L294.2 113.6 L293.4 113.4 L292.6 113.4 L291.7 113.7 L290.9 114.3 L290.5 115.0 L290.3 115.7 L290.6 116.4 L289.3 117.1 L286.2 117.7 L284.8 118.1 L284.1 118.8 L282.4 119.6 L281.7 120.2 L282.6 120.9 L283.0 121.7 L283.0 122.5 L282.6 123.2 L282.0 123.4 L280.6 123.5 L280.0 123.7 L279.9 123.9 L279.6 124.7 L279.5 125.1 L280.2 125.5 L280.4 125.9 L280.2 126.4 L279.6 126.9 L278.5 126.6 L278.4 126.0 L278.4 125.3 L278.1 124.7 L277.2 124.1 L276.6 124.1 L276.2 124.5 L275.6 124.7 L273.9 124.9 L273.1 124.8 L272.8 124.7 L272.2 124.5 L271.7 124.0 L271.5 123.3 L271.0 123.0 L269.9 123.5 L268.4 123.6 L267.8 124.3 L267.5 125.3 L266.9 126.3 L265.9 127.0 L263.2 127.9 L262.0 128.6 L261.8 129.0 L261.6 130.2 L261.5 130.7 L261.0 131.1 L260.0 131.7 L259.5 132.1 L259.6 132.9 L259.6 133.6 L259.4 134.2 L258.9 134.5 L257.5 135.0 L257.0 135.3 L257.0 136.3 L257.5 136.7 L257.7 137.1 L257.0 138.1 L256.4 138.5 L255.3 138.6 L254.8 138.8 L254.2 139.3 L254.0 139.7 L253.8 140.1 L253.5 140.5 L251.0 143.3 L250.7 144.0 L251.6 144.2 L253.2 145.0 L253.8 145.7 L252.0 145.5 L252.0 146.0 L251.9 146.2 L251.7 146.3 L251.6 146.6 L252.3 147.0 L251.4 147.4 L251.1 148.1 L251.2 148.9 L251.7 149.8 L252.4 150.6 L253.1 150.9 L253.9 151.0 L254.8 151.3 L255.3 151.8 L257.0 153.9 L257.1 154.3 L257.3 155.3 L257.2 155.4 L257.7 155.7 L258.7 155.9 L259.1 156.0 L259.5 156.1 L260.0 156.0 L260.4 156.0 L260.9 156.4 L260.9 156.6 L261.0 157.0 L260.7 157.3 L260.3 157.5 L260.2 157.9 L260.2 158.4 L260.0 158.6 L259.9 158.9 L260.1 159.4 L260.6 159.6 L262.0 159.7 L262.6 160.0 L263.0 161.0 L262.6 161.7 L261.9 162.1 L261.3 162.5 L260.4 164.2 L259.8 164.9 L259.0 165.4 L260.2 165.8 L259.5 167.0 L257.9 168.1 L256.2 168.6 L255.3 168.5 L253.8 167.9 L253.0 167.8 L252.2 168.1 L251.3 168.9 L250.4 169.1 L248.9 168.9 L247.3 168.4 L245.7 168.2 L243.9 168.8 L243.1 169.5 L242.9 170.1 L242.7 170.3 L241.6 170.4 L241.0 170.3 L238.8 169.7 L237.4 170.0 L235.6 171.0 L233.8 171.7 L232.2 171.4 L231.8 170.8 L231.8 170.1 L232.1 169.5 L232.1 168.7 L231.8 168.1 L228.3 164.0 L227.6 163.5 L227.0 163.2 L224.8 162.7 L224.0 162.4 L223.5 162.3 L223.3 162.5 L223.0 162.9 L222.6 163.3 L222.1 163.4 L220.9 163.2 L220.5 162.9 L220.4 162.3 L220.6 161.3 L221.2 161.0 L221.5 160.8 L221.0 159.7 L219.6 158.6 L218.1 157.6 L216.6 157.7 L213.3 158.2 L211.7 157.9 L210.4 157.3 L209.3 156.6 L206.3 153.8 L205.4 153.2 L202.8 152.7 L201.4 152.2 L198.8 150.5 L197.5 150.1 L197.3 150.1 L196.0 150.1 L192.8 150.8 L191.2 151.0 L189.4 150.8 L188.7 150.3 L188.7 147.6 L188.6 147.2 L187.9 146.4 L187.7 146.0 L187.8 145.6 L188.5 145.1 L188.7 144.7 L189.1 143.9 L189.5 143.3 L189.6 142.7 L189.5 141.7 L188.4 140.4 L185.0 139.5 L184.1 138.5 L184.4 137.4 L187.1 132.9 L187.2 132.2 L187.1 131.6 L187.2 130.9 L188.5 129.0 L188.9 128.9 L189.7 129.5 L189.9 128.2 L190.3 126.8 L190.4 125.5 L189.7 124.9 L187.5 125.2 L186.6 125.0 L186.3 124.0 L184.4 124.5 L176.7 129.5 L176.3 130.1 L176.1 130.8 L176.3 131.2 L176.6 131.6 L176.6 132.1 L176.1 134.3 L175.6 135.5 L174.9 136.3 L174.2 136.6 L171.2 136.9 L161.2 140.1 L159.1 140.4 L158.5 140.3 L147.8 138.4 L143.4 138.8 L142.3 138.9 L141.3 138.7 L137.3 137.3 L137.4 137.3 L137.9 137.3 L137.8 136.3 L137.4 135.2 L137.1 135.1 L137.4 134.3 L137.7 133.7 L138.3 133.3 L139.6 132.5 L141.2 131.8 L142.9 131.2 L143.0 130.7 L142.5 130.2 L142.0 129.5 L140.8 126.4 L140.1 126.2 L139.3 126.2 L137.9 126.7 L136.9 126.3 L137.1 125.0 L138.5 122.2 L138.8 120.9 L139.2 120.3 L139.9 119.6 L141.6 118.7 L142.3 118.2 L142.5 117.5 L142.1 117.0 L141.2 116.5 L140.2 116.1 L139.6 116.0 L138.7 116.2 L138.6 116.7 L138.7 117.2 L138.2 117.5 L136.9 117.1 L134.9 114.4 L133.4 113.5 L131.9 113.0 L129.5 111.3 L128.1 110.9 L126.6 111.0 L122.1 112.2 L120.4 112.2 L119.2 111.8 L117.9 111.3 L116.4 110.8 L113.5 110.6 L110.3 110.7 L109.4 110.9 L108.8 111.4 L107.5 112.8 L107.2 113.4 L107.0 113.6 L106.7 113.7 L106.6 113.6 L106.5 113.7 L106.2 114.1 L103.7 112.6 L103.0 109.7 L103.0 106.4 L102.4 103.6 L101.3 102.2 L99.8 101.4 L98.3 100.9 L96.6 100.7 L92.0 100.6 L91.1 100.2 L91.8 99.4 L91.9 98.8 L91.5 98.5 L90.4 98.3 L89.4 98.3 L88.7 98.6 L88.0 99.1 L87.0 99.6 L83.9 100.3 L82.1 100.4 L80.9 100.2 L77.7 99.2 L76.8 98.7 L75.7 97.8 L75.3 96.9 L75.2 94.7 L73.3 90.6 L72.7 88.6 L73.7 87.4 L72.9 85.7 L72.3 85.0 L71.4 84.8 L70.4 84.7 L69.8 84.3 L68.9 82.9 L67.9 81.8 L66.7 80.4 L65.5 79.7 L63.7 79.3 L58.0 80.5 L54.2 81.2 L52.6 81.9 L51.3 82.8 L49.1 85.1 L48.2 85.6 L47.0 85.5 L46.7 85.4 L41.0 83.7 L39.7 83.0 L39.3 82.5 L38.3 81.1 L37.9 80.6 L35.2 79.0 L34.8 78.5 L34.5 78.0 L34.2 77.6 L33.2 77.3 L32.6 77.2 L31.2 77.3 L30.6 77.3 L29.6 77.2 L29.1 77.0 L28.7 76.6 L28.1 75.7 L27.7 75.5 L26.9 75.2 L26.7 74.9 L26.7 74.6 L27.3 73.8 L27.4 73.4 L25.9 70.2 L26.4 69.6 L28.0 68.5 L28.4 68.1 L28.2 66.7 L27.1 65.6 L24.5 63.8 L23.8 62.4 L23.1 59.2 L22.0 57.6 Z" fill="#172033" fill-rule="evenodd"/></svg>
