<svg xmlns="http://www.w3.org/2000/svg" viewBox="0 0 320 200" role="img"><path d="M268.5 109.3 L267.5 112.0 L267.1 112.7 L266.1 113.8 L265.8 114.6 L265.8 115.1 L265.8 115.4 L265.7 115.6 L265.3 116.0 L263.8 116.8 L261.8 118.4 L258.2 122.1 L258.1 122.2 L257.4 122.5 L256.4 122.5 L255.2 122.0 L254.5 121.7 L254.2 121.6 L253.9 121.8 L253.4 121.7 L252.9 121.8 L251.8 122.2 L251.3 122.2 L250.1 122.2 L249.7 122.3 L249.2 122.5 L247.9 122.8 L247.4 123.1 L246.9 123.2 L246.3 122.2 L245.8 122.2 L245.9 122.0 L245.9 121.6 L246.0 121.5 L243.4 121.3 L242.9 121.2 L242.4 120.9 L242.3 121.3 L242.0 121.4 L242.0 121.5 L241.7 121.6 L241.3 121.8 L241.1 122.1 L241.0 122.4 L241.3 123.0 L240.8 123.2 L240.2 123.5 L239.7 123.9 L239.4 124.4 L239.6 124.8 L239.9 125.2 L239.9 125.6 L239.4 126.0 L239.3 125.7 L239.1 125.7 L238.9 125.7 L238.7 126.0 L238.5 125.7 L238.2 125.3 L237.9 125.2 L237.7 125.5 L237.8 125.7 L238.1 126.0 L238.1 126.2 L238.1 126.5 L237.7 127.1 L236.8 126.7 L236.4 126.5 L235.9 126.5 L235.6 126.6 L235.5 126.7 L235.3 126.7 L235.1 126.7 L235.1 126.6 L234.9 126.3 L234.7 126.1 L234.4 126.5 L234.1 126.8 L234.0 127.1 L234.5 127.9 L234.6 128.9 L234.7 129.3 L234.4 129.2 L233.9 129.0 L233.6 129.0 L233.5 129.1 L233.3 129.6 L233.1 129.7 L232.2 129.9 L232.1 130.0 L232.1 130.4 L232.2 130.4 L232.4 130.2 L232.7 130.3 L232.7 130.4 L232.6 130.7 L232.7 130.9 L232.7 130.9 L233.0 131.0 L233.0 131.0 L233.1 131.4 L233.1 131.7 L233.1 132.0 L233.3 132.3 L233.6 132.6 L233.6 133.0 L233.5 133.1 L233.3 133.0 L233.1 132.7 L233.0 132.5 L232.8 132.4 L231.9 132.4 L231.8 132.4 L231.5 132.5 L231.3 132.5 L231.3 132.5 L231.1 132.2 L231.1 132.2 L230.9 132.1 L230.8 132.0 L230.6 131.8 L230.0 131.7 L229.9 131.7 L229.7 131.7 L229.6 132.0 L229.4 132.3 L229.2 132.7 L229.1 132.7 L229.0 133.0 L229.1 133.3 L229.2 133.6 L229.4 133.7 L229.5 133.8 L229.6 134.1 L229.5 134.5 L229.4 134.6 L228.9 134.6 L228.5 134.6 L227.7 134.1 L224.1 134.2 L221.5 134.2 L219.8 134.5 L216.3 135.7 L216.7 134.6 L216.2 134.5 L216.3 134.3 L216.4 134.2 L216.4 134.1 L216.4 134.0 L216.4 133.9 L216.4 133.8 L216.3 133.8 L213.2 133.2 L210.8 132.7 L204.6 131.4 L201.2 130.8 L199.8 130.5 L198.4 130.2 L194.7 129.4 L194.6 129.9 L194.7 130.1 L194.8 130.4 L194.6 130.8 L194.2 131.1 L192.8 132.1 L192.3 131.5 L191.8 131.1 L191.3 131.1 L190.8 131.8 L190.6 132.2 L190.6 132.8 L190.4 133.1 L190.1 133.3 L189.4 133.7 L189.1 134.0 L189.1 134.0 L189.1 134.1 L189.0 134.1 L188.9 134.2 L188.8 134.2 L187.7 134.2 L187.2 134.2 L186.8 134.4 L186.5 134.8 L186.3 135.5 L186.0 136.1 L185.5 136.4 L184.2 135.2 L184.3 135.0 L184.5 134.8 L184.6 134.5 L184.5 134.3 L184.2 134.3 L184.0 134.4 L183.9 134.4 L183.9 134.1 L183.7 134.1 L180.5 134.0 L180.5 134.0 L180.4 133.8 L180.3 133.7 L180.1 133.8 L179.9 134.0 L179.3 134.1 L178.7 134.8 L178.3 134.8 L178.4 134.4 L178.2 134.5 L178.0 134.4 L177.8 134.0 L177.6 133.9 L177.4 133.8 L173.6 133.5 L172.8 133.6 L172.6 134.1 L169.3 134.0 L165.8 134.0 L165.1 133.9 L164.2 133.5 L163.9 133.4 L163.6 133.3 L160.1 133.2 L159.6 133.3 L159.4 133.8 L159.1 134.0 L154.8 134.0 L148.8 134.1 L142.7 134.1 L136.0 134.2 L130.7 134.3 L128.1 134.3 L127.5 134.3 L127.5 134.0 L125.1 134.0 L125.2 134.1 L125.1 134.3 L125.3 134.8 L125.6 135.3 L125.7 135.8 L125.6 136.5 L125.2 136.9 L124.8 137.2 L124.4 137.6 L124.2 138.2 L123.9 139.5 L123.4 140.2 L123.3 140.8 L123.2 141.1 L122.9 141.4 L122.8 141.5 L122.9 141.8 L122.9 141.9 L123.0 141.9 L123.1 142.0 L123.2 142.0 L123.3 142.1 L123.3 142.3 L123.2 142.4 L123.1 142.5 L123.0 143.0 L122.6 143.7 L122.5 143.9 L122.6 144.4 L123.5 145.9 L123.5 146.2 L123.6 146.7 L123.7 147.0 L123.8 147.2 L124.1 147.5 L124.2 147.7 L124.3 148.2 L124.5 148.6 L125.5 149.4 L125.8 149.6 L126.3 149.6 L126.9 149.7 L127.1 149.8 L126.9 150.0 L126.7 150.3 L126.4 150.4 L126.0 150.4 L125.8 150.5 L125.5 150.7 L125.4 150.9 L125.2 151.3 L125.0 151.9 L125.0 152.5 L125.3 152.9 L125.5 153.0 L125.8 153.1 L126.0 153.1 L126.1 153.3 L126.2 153.6 L126.3 153.7 L126.6 153.7 L126.9 153.8 L127.1 153.9 L127.3 154.0 L127.4 154.2 L127.4 154.5 L127.3 154.9 L127.1 155.1 L126.6 155.6 L126.2 156.1 L126.2 156.7 L126.5 157.9 L126.5 160.3 L126.6 160.8 L127.2 161.7 L127.4 162.2 L127.4 162.9 L127.1 164.2 L127.2 164.9 L127.9 165.9 L128.0 166.2 L127.8 166.5 L126.9 167.5 L126.4 168.4 L126.3 169.0 L126.5 169.6 L126.7 169.8 L126.9 169.8 L127.0 169.8 L127.2 169.9 L127.4 170.2 L127.4 170.4 L127.5 170.7 L127.7 170.8 L127.8 170.9 L127.5 171.2 L127.2 171.6 L127.1 172.0 L127.0 172.5 L127.1 172.9 L127.2 173.2 L128.2 174.1 L129.2 175.3 L128.3 176.2 L127.7 177.6 L127.2 178.0 L126.5 177.9 L125.9 177.5 L123.1 173.9 L121.8 171.2 L121.3 170.0 L121.0 169.3 L120.5 168.9 L120.0 168.8 L119.1 169.0 L118.6 169.0 L118.1 168.6 L117.8 168.0 L117.5 166.7 L116.9 166.0 L116.3 165.9 L115.7 165.8 L115.2 165.6 L115.1 165.0 L115.1 164.4 L115.1 163.8 L114.8 163.6 L114.4 163.9 L113.4 165.2 L113.1 165.6 L112.4 165.7 L112.1 165.3 L112.1 164.8 L112.1 164.2 L112.0 164.0 L111.7 164.1 L111.4 164.3 L111.1 164.4 L110.8 164.3 L110.3 163.8 L110.0 163.7 L105.7 163.3 L104.0 163.6 L103.6 163.5 L103.3 163.3 L103.1 163.0 L102.9 162.8 L102.5 162.7 L102.4 162.8 L102.2 163.1 L102.0 163.2 L101.9 163.1 L101.5 162.9 L101.3 162.9 L100.0 163.1 L99.6 163.2 L99.3 163.4 L98.9 163.9 L98.6 164.0 L98.1 164.2 L96.3 164.2 L96.2 164.2 L95.7 164.4 L94.7 165.0 L94.1 165.2 L93.7 165.4 L93.6 165.9 L93.4 166.2 L92.5 166.3 L92.3 166.3 L91.9 166.5 L91.8 166.6 L91.8 166.7 L91.8 166.9 L91.6 166.9 L91.4 166.9 L91.2 166.7 L89.6 166.2 L89.1 166.3 L88.6 166.7 L87.8 167.8 L87.3 168.0 L86.3 168.2 L85.8 168.3 L85.5 168.7 L85.6 168.7 L85.9 168.8 L85.1 169.7 L84.9 169.9 L84.9 170.2 L85.0 170.8 L84.9 171.1 L84.6 171.8 L84.4 172.0 L84.4 172.0 L83.7 171.7 L83.2 171.6 L83.2 172.1 L83.2 172.5 L83.1 172.8 L82.7 172.6 L82.5 172.3 L82.3 171.4 L82.0 171.0 L81.4 170.8 L80.4 170.9 L79.5 170.8 L79.1 170.2 L79.2 169.7 L79.4 169.0 L79.5 168.5 L79.4 168.4 L79.3 168.3 L79.0 168.3 L78.6 168.3 L78.5 168.3 L78.4 168.4 L78.4 168.6 L78.2 169.0 L78.2 169.4 L78.1 169.6 L77.7 169.8 L77.4 169.6 L77.0 169.1 L76.7 168.8 L76.3 169.2 L76.0 169.3 L75.7 169.4 L75.3 169.4 L75.3 169.5 L75.2 169.6 L75.0 169.8 L74.8 169.9 L74.6 170.0 L74.6 170.0 L74.6 169.9 L74.4 169.8 L74.0 169.6 L73.9 169.5 L73.8 169.3 L73.8 169.0 L73.7 168.8 L73.4 168.5 L73.2 168.3 L73.1 168.2 L73.0 168.1 L72.7 168.1 L72.4 168.1 L72.3 168.2 L72.4 168.3 L72.6 168.4 L72.1 168.5 L71.8 167.9 L71.4 168.1 L71.3 167.8 L71.3 167.7 L71.0 167.5 L71.0 167.3 L71.3 167.3 L71.5 167.3 L72.0 167.1 L71.7 166.7 L71.6 166.1 L71.4 165.6 L70.8 165.8 L70.6 165.2 L70.3 164.9 L69.7 164.7 L69.1 164.7 L68.8 164.6 L68.7 164.5 L68.6 164.4 L68.3 164.3 L68.1 164.4 L68.0 164.7 L67.8 164.9 L67.6 164.8 L66.8 164.0 L66.7 163.7 L67.1 162.6 L67.1 162.4 L66.8 161.8 L66.5 161.4 L66.3 161.1 L66.9 161.1 L67.0 160.7 L66.8 160.2 L66.5 159.8 L66.2 159.6 L65.8 159.4 L65.5 159.2 L65.4 158.7 L65.1 158.9 L64.8 159.0 L64.5 159.0 L64.3 158.7 L64.6 158.5 L64.5 158.4 L64.3 158.4 L64.1 158.3 L63.9 158.3 L64.2 158.1 L64.8 157.9 L64.7 157.6 L64.0 157.2 L63.9 156.9 L64.1 156.4 L63.3 156.4 L63.4 156.1 L63.6 155.6 L63.5 155.1 L63.4 155.3 L63.3 155.4 L63.1 155.6 L62.9 155.6 L62.6 155.6 L62.6 155.5 L62.7 155.3 L62.8 155.2 L62.8 153.7 L62.6 153.3 L62.5 153.3 L62.1 153.0 L61.7 152.9 L61.5 153.3 L61.2 153.3 L59.9 152.5 L59.4 152.7 L58.2 152.5 L57.7 152.5 L57.5 152.6 L57.3 152.8 L57.2 152.9 L56.9 153.0 L56.5 153.0 L56.4 153.0 L56.3 152.9 L56.1 152.9 L56.0 153.0 L55.9 153.1 L55.8 153.2 L55.2 153.2 L54.8 153.1 L54.4 152.9 L54.1 152.6 L54.0 152.5 L53.9 152.2 L53.8 152.0 L53.7 151.9 L53.4 151.9 L53.2 151.9 L52.8 151.7 L52.8 151.2 L52.5 150.5 L52.0 149.9 L51.5 149.7 L51.6 149.3 L51.9 147.9 L52.0 147.6 L52.6 146.6 L53.0 145.2 L52.9 144.9 L52.7 144.7 L52.7 144.3 L52.9 143.9 L53.2 143.6 L52.8 143.5 L52.7 143.3 L52.6 142.8 L52.6 142.6 L52.9 141.1 L53.0 140.7 L53.2 140.5 L53.4 140.4 L53.6 140.2 L53.6 140.0 L53.6 139.7 L54.0 138.2 L53.9 137.8 L53.6 137.2 L53.1 135.3 L52.7 134.6 L52.1 134.7 L52.2 134.0 L52.0 132.6 L51.9 132.3 L52.0 131.9 L52.4 131.6 L55.1 131.3 L55.6 131.2 L56.1 131.0 L56.7 130.6 L57.0 130.2 L57.2 129.1 L57.4 128.4 L58.3 127.6 L58.6 127.0 L58.7 126.6 L58.5 123.7 L58.6 123.2 L59.0 122.8 L59.6 122.6 L59.8 122.3 L59.8 122.0 L59.7 121.3 L59.7 119.1 L59.4 118.1 L58.4 117.3 L58.1 117.3 L57.8 117.3 L57.6 117.3 L57.4 117.0 L57.4 116.6 L57.5 116.3 L57.7 116.1 L57.9 115.8 L58.1 114.7 L58.2 114.1 L58.2 113.6 L57.9 113.1 L57.6 112.7 L57.2 112.4 L56.7 112.2 L56.4 112.1 L56.1 112.1 L55.7 112.2 L55.6 112.1 L54.8 111.7 L54.7 111.6 L54.5 111.3 L54.5 111.2 L54.7 111.1 L55.1 111.1 L55.2 111.1 L55.5 111.3 L55.7 111.4 L55.8 111.4 L56.0 111.1 L56.1 111.1 L57.1 110.9 L57.2 110.9 L57.3 110.8 L57.4 110.7 L57.6 110.7 L57.8 110.8 L57.9 110.9 L58.1 111.0 L58.3 110.9 L58.5 110.8 L59.0 110.0 L60.1 109.2 L60.8 108.4 L61.2 108.0 L62.1 107.8 L63.0 107.2 L63.4 107.0 L63.8 107.0 L64.9 107.0 L65.4 107.0 L65.7 107.0 L66.0 106.9 L66.2 106.8 L66.5 106.6 L67.1 106.3 L67.7 106.4 L68.3 106.5 L68.8 106.5 L70.0 106.1 L70.6 106.1 L71.1 106.6 L71.6 106.4 L72.4 106.3 L72.8 106.1 L73.0 105.8 L73.2 105.4 L73.4 105.1 L73.7 104.9 L73.9 104.8 L74.5 104.8 L74.8 104.8 L75.3 104.6 L75.3 104.5 L75.5 104.2 L75.5 103.8 L75.8 103.2 L76.8 102.7 L77.6 102.7 L77.9 102.4 L77.2 101.1 L79.6 99.1 L79.7 99.0 L79.8 98.8 L79.7 98.5 L79.8 98.1 L79.8 97.9 L79.9 97.7 L80.2 97.5 L80.6 97.5 L80.8 97.7 L81.1 98.0 L81.3 98.2 L82.1 98.0 L81.9 96.9 L80.9 94.5 L81.1 93.9 L81.6 93.3 L82.1 92.8 L82.5 92.3 L82.6 91.9 L82.6 91.8 L82.5 91.7 L82.2 91.4 L81.7 90.1 L81.2 89.6 L80.0 88.7 L79.8 88.3 L79.9 86.9 L80.0 86.8 L80.2 86.8 L80.5 86.8 L81.3 86.5 L82.2 86.3 L83.1 86.2 L83.9 86.4 L84.7 86.8 L85.1 86.9 L85.7 86.9 L86.2 86.7 L86.5 86.5 L86.6 86.5 L86.8 86.1 L87.4 84.3 L87.4 84.0 L87.1 82.8 L87.2 81.2 L87.0 80.4 L86.5 79.8 L85.7 79.1 L85.3 78.7 L84.6 77.1 L83.8 76.4 L83.6 76.1 L83.6 75.8 L83.8 75.6 L83.9 75.3 L84.3 74.4 L84.7 74.2 L86.5 74.3 L86.8 74.2 L87.0 74.0 L86.9 73.7 L86.4 73.4 L86.2 73.2 L86.3 72.8 L86.7 72.3 L87.2 71.8 L87.6 71.6 L87.9 71.5 L88.1 71.6 L88.4 71.6 L88.7 71.4 L89.2 70.8 L89.6 70.2 L90.1 69.0 L90.4 68.5 L90.8 68.1 L91.1 68.0 L91.8 67.8 L92.1 67.7 L92.5 67.2 L92.8 67.1 L93.1 67.0 L93.5 66.7 L93.9 66.4 L94.0 66.2 L93.8 66.0 L93.5 66.0 L93.3 65.9 L93.7 65.4 L93.8 65.4 L93.9 65.3 L94.0 65.4 L94.1 65.4 L94.2 65.6 L94.2 65.7 L94.4 66.2 L94.5 66.4 L94.7 66.5 L95.4 66.6 L95.5 66.7 L95.5 67.0 L95.3 67.1 L95.0 67.1 L94.8 67.2 L94.3 67.7 L94.0 67.8 L93.7 68.2 L94.0 68.4 L94.7 68.6 L95.2 68.6 L95.7 68.6 L96.2 68.7 L97.1 69.0 L98.3 69.3 L98.8 69.5 L100.8 71.1 L102.1 71.9 L104.3 73.6 L104.5 73.6 L104.9 73.6 L105.0 73.6 L105.5 74.1 L105.7 74.3 L105.9 74.3 L106.5 74.3 L107.7 74.4 L108.0 74.5 L108.3 74.4 L108.6 74.0 L108.6 73.5 L108.3 72.5 L108.4 71.8 L109.0 71.5 L113.5 71.3 L113.9 71.0 L112.9 64.2 L113.3 63.2 L113.4 62.5 L113.6 61.0 L113.4 60.3 L112.8 59.9 L113.4 59.4 L114.1 59.6 L115.3 60.5 L116.1 60.6 L116.7 60.5 L117.2 60.5 L117.9 60.9 L118.4 61.3 L118.6 61.6 L118.6 62.0 L118.8 62.4 L119.1 62.3 L119.6 61.8 L119.9 61.6 L120.2 61.6 L120.8 61.6 L121.0 61.7 L121.2 61.8 L121.4 61.9 L121.6 61.9 L122.6 61.5 L123.5 61.2 L122.8 58.6 L122.6 57.1 L123.1 56.1 L123.6 55.3 L124.6 51.7 L124.6 51.7 L124.6 51.6 L124.5 51.6 L124.3 51.6 L125.0 50.4 L129.1 48.2 L129.6 47.7 L131.1 46.0 L131.7 45.5 L133.9 44.3 L135.4 43.9 L137.5 44.4 L143.9 47.3 L144.8 47.5 L145.2 47.5 L145.8 47.2 L147.1 46.6 L147.4 46.5 L147.5 46.2 L148.0 39.4 L148.2 38.7 L149.0 38.4 L150.3 38.3 L152.6 38.5 L154.5 38.4 L156.4 38.0 L165.9 32.0 L167.1 31.5 L172.3 30.2 L173.4 29.8 L174.3 29.2 L174.3 29.2 L180.0 24.3 L180.0 24.3 L181.5 22.9 L181.8 22.6 L182.3 22.3 L183.2 22.0 L189.2 22.0 L190.1 22.0 L190.4 22.1 L191.0 23.8 L191.3 24.1 L192.0 24.1 L193.0 23.7 L194.7 22.7 L196.5 22.4 L198.4 22.8 L202.0 24.3 L202.0 24.3 L208.9 26.6 L209.0 27.3 L208.8 27.6 L208.4 27.9 L208.0 28.4 L208.0 29.1 L208.8 30.7 L209.0 31.6 L207.1 36.6 L207.3 38.0 L208.1 39.3 L208.5 39.7 L212.5 43.2 L213.6 44.7 L213.7 44.9 L213.7 45.1 L213.4 45.4 L213.3 45.7 L213.2 46.5 L213.0 46.9 L212.4 47.8 L212.3 48.2 L212.4 48.5 L212.7 49.0 L212.9 49.2 L213.1 49.3 L213.2 49.5 L213.3 49.7 L213.3 49.9 L213.1 50.3 L213.1 50.5 L213.3 50.8 L213.7 51.0 L214.0 51.2 L214.0 51.7 L214.3 52.2 L214.7 52.5 L215.2 52.8 L215.5 53.1 L215.5 53.3 L215.2 53.8 L215.3 54.1 L215.4 54.3 L216.0 54.7 L216.2 54.9 L216.4 55.4 L216.7 55.7 L216.8 55.9 L217.2 56.2 L218.1 56.8 L218.4 57.2 L218.7 57.5 L219.2 57.7 L219.4 58.0 L219.3 58.5 L219.0 59.0 L218.9 59.5 L219.3 60.2 L220.0 60.4 L223.6 60.3 L223.9 60.3 L224.0 60.5 L224.0 60.8 L224.0 60.9 L224.0 61.0 L223.9 61.1 L223.9 61.3 L224.2 61.6 L224.8 61.9 L225.3 61.9 L226.3 61.8 L227.6 62.2 L229.0 63.0 L230.1 64.2 L230.3 65.4 L230.8 66.3 L231.7 66.9 L234.7 68.3 L235.2 68.4 L236.3 68.6 L236.8 68.7 L237.2 69.0 L237.7 69.6 L237.0 69.8 L236.5 69.6 L236.0 69.2 L235.5 69.1 L235.4 69.2 L235.3 69.5 L235.0 70.4 L234.8 70.5 L234.2 70.3 L232.7 69.9 L230.5 69.0 L229.9 68.9 L229.6 70.0 L229.6 72.4 L229.6 74.9 L229.6 76.7 L229.6 77.2 L229.7 77.7 L229.9 78.2 L230.7 78.6 L232.7 78.7 L233.5 79.1 L235.1 80.4 L236.7 81.8 L238.7 83.5 L239.4 84.1 L241.7 85.9 L243.2 87.2 L245.1 88.7 L245.8 89.1 L246.8 89.4 L249.6 89.6 L253.0 89.9 L253.5 89.8 L254.0 89.5 L254.3 89.1 L254.6 88.5 L255.1 87.9 L255.3 87.5 L255.4 87.4 L255.6 87.3 L255.8 87.4 L256.0 87.4 L256.3 87.2 L256.8 86.7 L257.0 86.6 L259.7 86.8 L260.8 87.1 L261.5 87.9 L261.7 88.5 L261.8 88.6 L262.1 88.9 L262.4 89.1 L262.9 89.4 L263.1 89.8 L263.3 90.1 L263.4 90.5 L263.6 92.1 L263.7 92.5 L263.9 92.9 L264.1 93.1 L264.5 93.5 L264.6 93.7 L264.6 93.8 L264.5 94.1 L264.5 94.2 L264.5 94.8 L264.3 95.1 L263.9 95.2 L262.3 95.4 L262.2 95.3 L261.9 95.2 L261.8 95.2 L261.6 95.3 L261.4 95.5 L261.3 95.6 L259.7 96.0 L259.3 96.3 L259.2 97.1 L259.8 98.1 L260.9 99.7 L263.0 102.5 L264.9 105.1 L267.1 108.1 L268.5 109.3 Z" fill="#172033" fill-rule="evenodd"/></svg>
