<svg xmlns="http://www.w3.org/2000/svg" viewBox="0 0 320 200" role="img"><path d="M206.5 29.0 L204.1 32.1 L203.2 33.6 L200.4 40.2 L199.8 42.5 L199.5 43.3 L198.8 44.2 L197.1 45.8 L196.5 46.7 L196.2 48.5 L197.0 49.3 L198.4 49.3 L200.0 48.8 L202.5 47.6 L204.2 47.0 L203.7 48.4 L199.6 52.7 L199.0 53.7 L198.8 54.8 L198.7 56.6 L197.2 58.8 L196.3 60.4 L196.5 61.6 L198.3 64.0 L199.4 65.0 L200.7 65.3 L200.4 66.1 L200.8 66.7 L201.4 67.3 L201.7 68.2 L201.7 68.3 L202.1 68.1 L203.5 66.1 L204.4 65.4 L205.4 65.0 L206.0 65.1 L210.7 67.9 L211.6 68.3 L211.9 68.5 L212.1 69.0 L212.3 70.2 L212.5 70.5 L213.5 70.7 L214.2 70.5 L214.9 70.2 L215.8 70.2 L216.7 70.5 L218.4 71.6 L219.3 71.9 L221.0 71.7 L224.4 70.8 L226.1 70.8 L225.6 71.6 L225.4 72.0 L223.1 74.6 L222.7 75.8 L223.0 76.8 L224.8 78.5 L225.5 79.5 L225.5 79.9 L225.2 80.8 L225.1 81.2 L225.4 81.8 L226.3 82.5 L226.6 83.0 L226.7 83.9 L226.6 84.8 L225.9 86.5 L224.9 88.0 L225.0 88.5 L225.3 89.8 L225.3 90.2 L224.2 92.2 L222.5 93.3 L220.5 93.6 L218.6 92.6 L218.3 93.5 L217.9 94.1 L217.2 94.5 L216.3 94.6 L214.3 95.4 L212.7 96.4 L211.4 97.6 L210.0 99.2 L210.5 99.5 L212.7 100.7 L212.6 102.6 L210.7 104.5 L207.3 106.0 L206.4 107.1 L205.8 107.7 L205.3 107.8 L203.4 108.3 L203.3 108.4 L203.2 109.1 L203.1 109.2 L201.7 109.3 L201.7 109.2 L201.5 109.2 L200.3 109.4 L200.1 109.6 L199.9 110.4 L199.7 110.7 L197.7 112.2 L197.3 113.0 L197.5 114.5 L197.4 115.8 L196.9 117.2 L193.9 121.8 L193.4 123.1 L193.4 123.2 L193.3 124.5 L193.6 125.7 L194.0 126.9 L194.3 128.0 L194.0 129.3 L190.8 128.2 L189.0 129.4 L186.2 134.2 L182.4 138.0 L181.5 139.5 L180.3 144.7 L179.2 147.4 L179.0 147.9 L177.3 150.8 L175.1 153.5 L170.2 157.6 L169.4 158.6 L167.6 163.0 L166.7 164.2 L165.1 165.1 L164.3 165.7 L161.9 167.1 L159.3 169.5 L155.4 171.3 L154.8 171.5 L153.6 171.3 L152.8 170.9 L152.0 170.8 L150.9 171.5 L150.7 171.8 L150.6 173.0 L150.2 173.6 L149.0 174.2 L148.5 174.6 L148.3 175.6 L148.2 176.5 L148.0 177.4 L147.2 178.0 L146.8 177.9 L143.9 177.6 L140.3 176.8 L123.4 177.0 L121.2 159.6 L120.8 158.2 L118.8 151.3 L114.3 143.7 L111.6 140.8 L110.5 139.2 L109.8 137.3 L109.2 128.8 L109.9 123.5 L110.4 120.5 L110.5 114.8 L109.2 96.5 L109.3 94.4 L109.6 93.4 L111.3 91.9 L111.7 91.6 L110.4 90.6 L109.9 89.2 L109.7 84.3 L110.0 82.9 L110.5 81.7 L111.4 81.2 L111.8 80.3 L111.7 79.9 L111.2 75.7 L110.5 74.6 L109.5 73.9 L108.3 73.4 L107.0 73.2 L105.6 72.7 L105.0 71.4 L104.7 69.9 L104.3 68.7 L103.2 68.0 L101.8 67.6 L100.7 67.0 L100.3 65.8 L100.2 64.7 L99.9 64.0 L98.8 62.4 L98.1 60.4 L97.8 59.9 L96.7 59.4 L95.2 59.2 L93.9 58.9 L93.3 57.7 L93.4 56.1 L93.9 54.9 L94.9 54.1 L96.3 53.9 L95.4 52.2 L96.6 44.9 L98.2 43.3 L102.4 43.1 L103.6 43.2 L108.0 45.1 L109.6 45.6 L112.7 46.0 L114.2 46.4 L115.5 47.1 L116.4 47.8 L116.4 48.1 L116.4 49.0 L116.6 50.0 L116.6 50.0 L118.2 51.5 L118.6 52.4 L118.5 53.2 L117.5 54.4 L117.2 55.2 L117.4 56.0 L118.1 57.5 L118.1 58.4 L118.8 59.8 L120.6 59.6 L123.7 58.3 L125.0 58.1 L126.4 58.4 L129.0 58.9 L130.7 59.8 L132.0 59.4 L133.4 58.5 L135.0 58.3 L135.7 58.3 L136.3 58.1 L136.8 57.8 L139.0 57.0 L139.5 57.0 L140.3 57.3 L143.3 58.3 L144.6 58.5 L146.2 58.3 L146.9 57.9 L147.3 57.2 L147.5 55.7 L148.0 55.0 L148.9 55.0 L150.5 55.5 L152.3 55.5 L153.7 55.2 L155.1 54.5 L156.6 53.0 L157.5 51.6 L158.4 50.2 L159.1 48.6 L159.5 47.0 L159.5 46.2 L159.8 38.8 L161.4 33.3 L160.9 27.8 L161.3 24.1 L161.3 23.4 L161.5 23.0 L162.3 23.0 L162.9 23.3 L163.3 23.7 L163.5 23.8 L164.7 24.9 L165.3 25.0 L165.9 25.0 L166.6 25.0 L167.4 25.3 L168.3 25.9 L170.6 28.6 L171.7 29.6 L173.2 30.6 L174.9 31.3 L176.5 31.2 L177.7 30.4 L181.0 26.3 L181.2 25.8 L181.2 25.1 L181.5 24.6 L182.3 24.7 L184.5 25.8 L185.4 26.0 L186.6 25.9 L188.0 25.7 L189.3 25.2 L190.4 24.7 L191.3 23.8 L191.6 23.4 L191.9 23.0 L192.6 22.3 L193.8 22.0 L194.2 22.2 L196.4 22.7 L196.7 22.6 L197.0 23.0 L197.4 24.0 L197.8 24.6 L201.7 27.8 L204.1 29.0 L206.5 29.0 Z" fill="#172033" fill-rule="evenodd"/></svg>
