<svg xmlns="http://www.w3.org/2000/svg" viewBox="0 0 320 200" role="img"><path d="M192.7 39.7 L192.2 40.3 L190.4 43.3 L190.1 44.4 L190.0 44.8 L189.5 46.1 L189.5 46.7 L189.9 47.4 L194.4 53.7 L195.0 54.3 L195.2 54.3 L195.5 54.2 L195.5 54.2 L195.7 54.3 L195.9 54.5 L195.6 55.4 L195.6 56.0 L195.7 56.5 L195.9 56.9 L196.2 57.4 L196.2 57.4 L196.7 59.6 L196.7 60.4 L196.1 61.7 L196.1 62.1 L196.2 62.4 L196.4 62.7 L196.7 62.8 L196.8 63.1 L197.0 63.3 L197.2 64.1 L197.4 64.4 L197.8 64.5 L198.1 64.6 L198.4 64.8 L198.7 65.3 L198.8 66.0 L198.8 66.6 L198.8 67.4 L198.6 68.1 L198.0 69.3 L197.7 70.0 L197.7 71.3 L197.6 71.8 L197.2 72.2 L196.8 72.3 L195.2 71.5 L194.6 71.4 L194.1 71.5 L193.6 72.0 L193.5 72.2 L193.4 72.4 L193.4 72.9 L193.3 73.2 L192.6 74.2 L192.1 75.3 L192.1 75.8 L192.5 76.4 L194.2 78.1 L194.5 78.4 L194.5 78.8 L194.5 79.3 L194.4 79.4 L194.2 80.0 L193.9 80.2 L193.5 80.4 L193.1 80.7 L193.0 81.1 L192.8 83.3 L192.6 83.8 L191.7 84.8 L191.1 86.0 L190.6 86.4 L189.1 86.2 L188.1 86.5 L186.3 87.2 L185.9 87.5 L185.7 88.0 L185.6 88.6 L185.7 89.1 L186.0 89.9 L186.2 90.6 L186.1 91.3 L185.2 91.7 L184.8 91.7 L184.3 91.6 L183.9 91.7 L183.7 92.4 L183.7 92.5 L183.9 92.9 L183.8 93.0 L182.3 95.0 L182.1 95.1 L181.7 95.3 L181.5 95.4 L181.0 96.2 L180.9 96.9 L181.1 97.6 L181.4 98.4 L181.5 98.8 L181.5 100.5 L181.3 101.0 L180.8 102.0 L180.0 104.5 L179.6 105.3 L179.0 105.8 L177.3 106.2 L177.0 106.2 L176.7 106.1 L176.5 105.9 L176.2 105.8 L175.9 105.8 L175.1 105.8 L174.9 105.8 L174.6 106.0 L174.4 106.2 L174.2 106.4 L173.8 106.5 L171.9 106.3 L171.9 107.0 L171.9 108.6 L171.8 109.3 L171.7 109.4 L171.4 109.8 L171.3 109.9 L171.4 110.1 L171.5 110.1 L171.6 110.2 L171.7 110.4 L171.7 110.7 L171.4 111.5 L171.3 111.9 L171.3 112.1 L171.4 112.5 L171.4 112.7 L171.3 112.8 L170.9 113.0 L170.7 113.2 L170.7 113.5 L170.7 113.5 L171.2 119.6 L171.3 120.4 L171.1 121.2 L170.9 121.5 L170.3 122.1 L170.2 122.4 L170.2 122.6 L170.3 123.1 L170.3 123.3 L170.1 124.4 L170.0 124.9 L170.1 125.5 L170.3 126.0 L170.8 127.1 L171.0 127.6 L171.0 128.2 L170.8 128.6 L170.5 129.0 L170.3 129.5 L170.3 129.9 L170.2 131.4 L169.9 133.0 L169.8 134.6 L169.7 134.9 L169.5 135.3 L169.4 135.5 L169.4 135.6 L169.4 135.7 L169.6 136.0 L169.9 136.8 L170.5 137.4 L170.7 137.8 L170.8 138.2 L170.6 141.6 L170.5 142.4 L170.6 143.4 L171.1 144.3 L171.9 145.2 L172.5 146.1 L172.4 147.2 L172.3 147.4 L172.3 147.5 L172.2 147.6 L171.7 147.5 L171.4 147.5 L171.2 147.6 L171.2 147.9 L171.7 154.1 L171.7 154.4 L171.6 154.7 L171.4 154.9 L171.1 155.4 L171.0 155.6 L171.0 155.8 L171.1 156.1 L171.3 156.4 L172.0 156.9 L172.1 157.1 L172.0 157.4 L171.8 157.5 L171.5 157.6 L171.2 157.8 L170.5 158.7 L170.6 159.6 L170.9 160.6 L171.1 161.6 L170.8 162.7 L170.7 163.2 L170.8 163.7 L171.0 164.0 L171.3 164.1 L171.5 164.2 L171.8 164.2 L172.0 164.4 L172.0 164.6 L172.1 165.8 L172.0 166.1 L171.7 166.3 L171.2 166.7 L170.9 167.2 L170.9 167.7 L171.1 168.8 L171.1 169.3 L170.6 170.7 L170.5 170.9 L170.4 171.4 L170.2 172.6 L170.2 174.1 L170.2 174.1 L160.2 175.0 L158.2 175.5 L149.6 176.5 L142.9 178.0 L142.7 177.5 L143.2 177.2 L146.5 176.4 L147.0 176.4 L146.5 174.6 L146.0 172.7 L145.4 171.6 L145.1 171.5 L144.6 171.2 L144.4 171.0 L144.4 170.8 L144.4 170.3 L144.4 170.0 L144.3 169.8 L143.8 169.5 L143.8 169.3 L143.7 169.0 L143.6 168.9 L143.3 169.0 L143.1 168.9 L142.9 168.8 L142.7 168.6 L142.5 168.4 L142.3 168.2 L142.2 168.0 L142.2 167.8 L142.3 167.5 L142.3 167.3 L142.0 166.8 L141.7 166.6 L141.5 166.3 L141.7 165.7 L142.1 165.2 L142.3 165.0 L142.4 164.6 L142.3 164.0 L142.1 163.4 L142.0 163.0 L141.9 162.6 L142.1 161.5 L142.1 161.2 L141.9 160.9 L141.5 160.6 L141.4 160.6 L141.2 160.2 L140.7 158.4 L142.6 158.4 L143.0 158.3 L143.0 154.6 L143.0 150.9 L143.0 147.1 L143.0 144.6 L143.0 142.5 L143.0 142.0 L142.9 137.0 L142.9 133.0 L143.0 129.0 L143.0 126.1 L142.8 124.0 L142.6 123.7 L142.5 123.7 L142.4 123.6 L142.5 123.0 L142.5 122.5 L142.6 122.3 L143.4 121.0 L143.5 120.5 L143.4 120.3 L142.7 119.4 L142.6 119.2 L142.6 118.9 L142.6 118.1 L142.5 114.7 L142.5 112.4 L142.5 109.6 L142.4 106.5 L142.3 105.8 L142.1 105.2 L141.6 104.3 L140.0 102.7 L138.0 100.6 L137.8 100.4 L137.4 99.6 L137.0 98.6 L136.8 96.1 L136.5 95.4 L136.1 95.6 L135.7 95.2 L135.5 94.6 L135.4 94.1 L135.5 93.7 L135.9 93.0 L136.1 92.7 L136.1 92.5 L136.1 92.0 L136.2 91.7 L136.2 91.4 L136.0 90.2 L136.0 88.3 L135.9 85.5 L135.9 83.7 L135.9 83.5 L135.6 82.6 L132.9 80.8 L129.3 78.5 L127.2 77.0 L125.7 76.1 L123.3 74.5 L121.4 73.3 L121.2 72.9 L121.2 72.3 L121.5 69.7 L121.9 68.3 L121.9 67.3 L121.7 65.0 L122.1 64.2 L123.5 62.9 L123.8 62.4 L123.9 62.2 L123.9 61.6 L124.0 61.3 L124.4 60.6 L124.3 60.3 L124.1 59.8 L124.0 59.5 L124.1 59.0 L124.8 57.5 L125.5 57.9 L125.9 57.9 L126.3 57.9 L126.4 57.8 L126.5 57.5 L126.5 57.2 L126.3 57.1 L126.1 57.0 L126.0 56.8 L126.0 56.5 L126.0 56.2 L126.1 56.2 L126.3 55.8 L126.5 55.5 L126.7 55.3 L126.8 55.3 L126.9 55.3 L127.4 55.4 L127.6 55.5 L127.7 55.6 L127.9 55.7 L128.0 55.7 L128.1 56.0 L128.1 56.0 L128.3 56.0 L128.6 55.9 L128.7 55.9 L129.4 56.0 L129.7 56.0 L129.8 56.2 L129.9 56.4 L130.1 56.6 L130.2 56.5 L130.2 56.1 L130.0 55.8 L129.8 55.5 L129.8 55.2 L129.7 55.0 L129.7 54.7 L129.6 54.7 L129.4 54.5 L129.3 54.5 L129.3 54.4 L129.4 54.1 L129.3 54.0 L129.1 53.9 L128.9 54.1 L128.8 54.1 L128.8 53.7 L128.9 53.7 L129.8 53.5 L129.9 53.4 L130.1 52.9 L130.2 52.8 L130.5 52.8 L131.0 53.0 L131.2 53.1 L131.1 52.7 L131.0 51.8 L130.5 51.0 L130.7 50.7 L130.9 50.5 L131.2 50.1 L131.4 50.3 L131.6 50.6 L131.6 50.7 L131.8 50.7 L131.9 50.6 L132.1 50.6 L132.3 50.5 L132.8 50.5 L133.2 50.6 L134.0 51.0 L134.3 50.5 L134.4 50.3 L134.3 50.0 L134.1 49.8 L134.0 49.6 L134.1 49.3 L134.4 49.4 L134.7 49.7 L134.9 50.0 L135.0 49.8 L135.2 49.7 L135.4 49.8 L135.6 50.0 L136.0 49.6 L136.0 49.3 L135.7 49.0 L135.6 48.5 L135.8 48.1 L136.3 47.7 L136.9 47.5 L137.3 47.2 L137.0 46.7 L137.1 46.5 L137.3 46.2 L137.6 45.9 L137.9 45.8 L137.9 45.8 L138.2 45.7 L138.3 45.3 L138.7 45.6 L139.2 45.7 L141.6 45.9 L141.6 46.0 L141.5 46.4 L141.5 46.5 L141.9 46.5 L142.4 47.5 L142.9 47.3 L143.3 47.1 L144.5 46.9 L145.0 46.6 L145.4 46.5 L146.5 46.6 L147.0 46.5 L148.0 46.2 L148.4 46.1 L148.9 46.2 L149.1 46.0 L149.4 46.1 L150.1 46.4 L151.2 46.8 L152.0 46.8 L152.7 46.5 L152.9 46.4 L156.2 43.1 L158.0 41.6 L159.4 40.8 L159.7 40.5 L159.8 40.3 L159.8 40.0 L159.8 39.6 L160.1 38.8 L161.0 37.8 L161.4 37.1 L162.3 34.7 L162.3 34.4 L162.0 34.0 L161.9 33.7 L162.1 33.4 L162.3 33.3 L162.5 33.4 L162.7 33.3 L162.9 33.1 L163.1 32.7 L163.3 32.6 L163.5 32.5 L163.8 32.6 L164.0 32.6 L164.0 32.2 L164.0 31.9 L163.8 31.7 L163.5 31.7 L163.3 31.6 L163.0 31.3 L162.8 31.1 L162.7 30.9 L161.8 28.5 L161.6 27.1 L161.6 26.5 L161.8 26.1 L162.4 25.8 L162.8 25.8 L163.3 25.8 L163.7 25.8 L163.7 25.7 L163.9 25.4 L164.1 25.3 L164.2 25.4 L164.4 25.5 L164.5 25.6 L164.7 25.3 L164.8 25.0 L165.0 24.9 L165.2 25.0 L165.5 25.0 L165.6 25.0 L165.6 25.2 L165.7 25.3 L165.9 25.3 L166.0 25.2 L166.2 25.0 L166.4 24.9 L167.3 24.7 L167.3 24.7 L167.6 24.8 L167.7 24.8 L167.8 24.7 L168.1 24.5 L168.3 24.5 L169.2 24.7 L169.4 24.6 L169.8 24.0 L169.9 23.8 L169.9 23.6 L170.0 23.5 L170.1 23.3 L170.4 23.2 L170.7 23.4 L170.9 23.3 L171.2 23.1 L171.6 22.7 L171.9 22.5 L172.1 22.4 L172.6 22.5 L172.9 22.4 L173.5 22.4 L173.8 22.0 L175.0 23.1 L175.5 23.3 L175.7 23.6 L175.9 23.9 L176.1 24.5 L176.3 24.7 L176.6 24.8 L176.9 24.9 L177.7 25.0 L177.9 25.1 L178.0 25.2 L178.3 25.7 L179.3 27.2 L183.6 31.1 L183.7 31.2 L184.0 31.5 L184.1 31.6 L184.2 32.1 L184.3 32.7 L184.5 33.2 L185.1 34.1 L185.4 34.5 L185.6 34.7 L186.0 34.9 L186.3 35.0 L186.6 34.9 L187.0 34.7 L187.3 34.7 L187.6 34.9 L187.8 35.0 L189.0 35.7 L189.9 36.0 L190.2 36.2 L190.4 36.4 L191.2 37.5 L191.4 37.7 L191.5 37.8 L191.7 37.9 L191.7 38.1 L191.9 38.5 L192.0 38.7 L192.0 38.9 L192.1 39.1 L192.3 39.2 L192.6 39.6 L192.7 39.7 Z" fill="#172033" fill-rule="evenodd"/></svg>
