<svg xmlns="http://www.w3.org/2000/svg" viewBox="0 0 320 200" role="img"><path d="M229.9 44.3 L230.0 47.7 L231.4 49.1 L233.4 50.1 L235.3 51.4 L239.1 56.7 L248.9 85.0 L249.5 88.6 L249.3 91.2 L248.1 97.1 L248.0 103.0 L248.9 109.3 L250.8 115.2 L254.3 119.8 L259.6 124.8 L261.7 128.0 L262.1 131.1 L259.9 133.5 L256.6 133.3 L253.2 131.8 L250.5 130.0 L249.1 129.5 L246.3 129.6 L244.7 129.0 L242.4 127.0 L241.1 126.6 L236.6 127.0 L233.5 126.3 L225.0 123.2 L223.0 121.8 L221.8 119.7 L220.0 104.9 L218.2 99.0 L213.3 87.4 L212.0 81.5 L211.4 69.4 L212.5 57.5 L215.2 60.3 L218.0 58.5 L220.9 55.2 L224.3 53.4 L227.5 52.8 L227.6 51.0 L226.4 48.7 L225.5 46.2 L225.8 45.0 L226.8 44.4 L228.2 44.2 L229.9 44.3 L229.9 44.3 Z M205.3 47.2 L201.9 50.6 L201.4 52.9 L201.2 55.4 L200.3 57.7 L197.9 59.2 L195.2 59.3 L192.5 58.8 L189.7 58.6 L186.4 59.6 L183.7 61.3 L178.8 65.9 L176.3 67.5 L170.8 69.8 L169.5 71.0 L169.3 71.1 L169.2 73.6 L170.3 76.4 L173.2 81.9 L174.1 85.0 L174.6 88.3 L175.4 105.9 L176.3 111.4 L178.9 115.5 L181.9 116.6 L184.1 116.2 L185.2 117.0 L184.9 121.3 L183.5 126.9 L182.4 129.5 L180.8 132.0 L177.2 135.5 L176.2 136.4 L175.3 137.8 L175.4 140.9 L180.1 139.0 L180.6 141.6 L179.5 144.3 L176.1 149.4 L175.0 152.4 L174.2 158.5 L173.1 160.7 L159.3 173.9 L152.2 178.0 L146.0 177.3 L145.3 176.1 L144.2 172.4 L143.4 170.8 L142.3 169.7 L139.1 167.5 L129.7 158.8 L127.5 155.9 L126.0 153.0 L122.9 143.5 L121.0 141.5 L118.3 141.3 L112.1 142.4 L105.6 141.1 L100.5 140.8 L99.8 139.4 L99.5 137.2 L100.0 136.3 L102.1 134.5 L102.6 133.0 L101.5 126.3 L99.5 123.3 L99.5 119.1 L98.3 114.9 L97.5 113.2 L95.9 111.5 L95.4 110.5 L95.2 109.3 L94.9 108.3 L93.8 107.9 L91.5 107.8 L90.6 107.4 L89.4 104.3 L87.7 103.2 L84.0 101.8 L79.1 97.9 L75.9 96.3 L67.7 95.0 L57.9 90.4 L95.8 91.6 L107.1 89.5 L117.4 83.7 L132.2 78.4 L137.4 76.5 L140.6 73.4 L142.9 69.1 L148.3 63.6 L166.4 49.2 L172.1 45.8 L197.3 30.5 L216.7 22.5 L220.4 22.0 L223.3 23.1 L223.5 25.1 L221.3 26.6 L216.6 28.7 L215.4 30.7 L212.9 36.7 L212.4 38.5 L211.4 40.5 L206.8 44.8 L205.3 47.2 Z" fill="#172033" fill-rule="evenodd"/></svg>
