<svg xmlns="http://www.w3.org/2000/svg" viewBox="0 0 320 200" role="img"><path d="M227.3 165.7 L226.5 165.0 L225.6 163.2 L224.8 162.1 L224.2 160.7 L223.7 159.9 L223.6 159.4 L223.6 158.7 L224.8 159.5 L227.6 165.4 L227.3 165.7 Z M151.6 155.3 L151.0 155.8 L148.5 156.9 L147.7 157.0 L147.3 156.6 L147.1 156.0 L147.0 155.3 L147.1 154.9 L147.6 154.8 L148.2 155.0 L148.7 155.0 L148.9 154.5 L149.4 154.4 L152.1 152.7 L152.3 152.6 L153.1 152.2 L153.6 152.0 L155.6 152.0 L155.4 152.5 L155.1 152.7 L154.3 153.0 L153.9 153.0 L153.7 152.8 L153.4 152.7 L152.9 153.0 L152.6 153.4 L152.1 154.8 L151.6 155.3 Z M149.6 151.7 L148.9 151.7 L148.6 152.1 L148.7 152.7 L148.9 153.3 L148.2 153.2 L147.0 153.3 L146.3 153.3 L145.8 153.1 L145.2 152.7 L145.0 152.3 L145.6 152.0 L146.9 151.8 L148.1 151.2 L149.1 151.0 L149.6 151.7 Z M220.6 154.0 L219.7 154.0 L219.1 153.8 L217.1 151.3 L216.6 150.6 L216.6 150.0 L217.3 150.4 L217.8 151.0 L218.1 151.7 L218.6 152.3 L219.2 152.8 L219.7 153.0 L220.1 153.3 L220.6 154.0 Z M168.9 167.6 L169.3 168.3 L169.0 170.2 L169.3 171.0 L168.5 172.7 L167.8 173.0 L166.6 172.7 L166.8 173.3 L167.6 174.0 L167.9 174.7 L167.9 175.3 L167.6 176.1 L167.2 176.7 L166.9 177.0 L165.4 177.5 L164.2 177.0 L163.2 176.3 L162.0 176.0 L162.8 176.9 L162.8 177.4 L162.3 178.0 L162.0 178.0 L161.2 177.0 L159.7 176.6 L156.6 176.7 L158.3 176.0 L158.0 175.2 L159.1 175.2 L161.6 176.0 L161.9 175.1 L162.4 174.5 L163.1 174.0 L165.7 172.9 L166.4 172.4 L166.4 171.8 L165.6 171.5 L164.7 172.0 L163.9 172.6 L163.1 173.0 L160.3 174.7 L160.5 174.8 L160.6 175.0 L159.4 174.9 L158.3 173.3 L157.3 173.0 L160.5 171.9 L162.1 171.0 L162.3 170.0 L161.6 170.7 L160.7 171.0 L158.1 171.0 L157.4 171.1 L156.8 171.4 L156.2 171.5 L155.6 171.4 L155.2 171.0 L154.9 170.4 L154.2 167.1 L154.2 165.9 L154.5 165.4 L153.7 165.1 L153.7 164.6 L153.9 163.9 L153.9 163.3 L153.4 162.8 L152.7 162.4 L152.3 162.1 L152.6 161.7 L152.6 161.3 L151.7 160.8 L148.6 159.7 L148.9 159.3 L149.3 159.0 L150.0 159.4 L150.3 159.3 L150.3 158.9 L150.3 158.7 L150.3 158.2 L150.2 158.0 L150.2 157.8 L150.6 157.4 L151.1 157.1 L152.4 156.7 L152.9 156.3 L153.1 155.9 L153.4 154.7 L153.6 154.3 L155.3 154.2 L155.9 154.0 L156.4 153.6 L156.6 153.3 L156.7 152.9 L157.0 152.3 L157.7 151.8 L159.7 151.0 L160.3 150.4 L161.6 149.7 L162.1 150.3 L162.4 151.1 L162.8 151.7 L163.4 152.0 L163.8 152.3 L163.3 152.9 L160.3 155.1 L159.1 155.7 L157.6 156.0 L157.6 156.3 L158.5 156.4 L158.8 156.8 L158.6 157.2 L157.8 157.4 L157.6 157.5 L158.1 158.0 L159.3 158.7 L160.0 158.4 L160.3 158.9 L160.2 159.8 L159.4 161.2 L159.2 161.8 L159.0 162.3 L158.3 162.7 L159.2 162.9 L160.0 162.3 L161.5 159.4 L162.5 158.4 L163.0 157.7 L163.1 156.7 L163.2 155.5 L163.4 154.4 L164.0 153.6 L164.9 153.8 L165.6 154.8 L166.2 156.0 L166.8 156.8 L167.4 157.5 L167.7 158.3 L167.9 159.1 L168.0 160.7 L168.2 161.8 L168.3 162.2 L168.2 162.7 L168.0 163.7 L167.9 164.2 L168.1 164.4 L168.8 165.4 L168.9 165.8 L168.8 166.4 L168.4 166.8 L168.1 167.0 L167.9 167.2 L167.4 167.4 L166.4 167.4 L165.4 167.8 L165.2 169.0 L166.9 167.9 L168.0 167.5 L168.9 167.6 Z M157.1 148.5 L156.2 149.1 L155.6 149.0 L155.3 148.5 L155.6 148.0 L156.7 147.5 L157.6 146.9 L158.5 146.5 L159.5 146.3 L160.3 146.4 L160.6 146.5 L161.0 146.8 L161.3 147.2 L161.3 147.7 L160.9 147.9 L160.4 147.8 L159.9 147.5 L159.5 147.3 L158.6 147.4 L158.1 147.6 L157.1 148.5 Z M171.1 116.2 L170.4 115.8 L169.4 115.7 L168.5 115.7 L167.9 115.7 L167.1 114.9 L167.7 113.9 L168.8 113.1 L169.9 112.7 L170.6 112.6 L172.3 112.0 L173.0 112.0 L175.1 112.0 L177.2 111.7 L177.9 111.7 L178.6 111.9 L179.8 112.6 L181.6 112.9 L181.1 113.5 L176.0 115.7 L174.8 115.7 L173.3 115.0 L173.0 115.5 L172.4 116.0 L171.8 116.4 L171.1 116.2 Z M128.6 132.3 L129.2 132.0 L129.5 131.7 L129.6 131.2 L129.3 130.7 L129.9 129.8 L130.7 129.9 L131.3 130.5 L131.6 131.5 L131.6 132.4 L131.4 133.1 L131.1 133.7 L130.6 134.4 L129.8 134.9 L129.6 135.0 L129.7 135.5 L130.0 135.9 L130.3 136.1 L131.6 135.3 L132.3 135.2 L132.7 134.8 L132.6 133.7 L133.6 134.1 L133.6 135.0 L133.3 136.0 L133.5 136.9 L134.3 137.3 L134.7 136.7 L134.8 135.6 L134.6 134.7 L135.1 134.9 L135.6 135.2 L136.0 135.3 L136.3 135.0 L136.2 134.3 L135.9 133.8 L135.4 133.5 L135.0 133.0 L134.9 132.7 L135.0 132.0 L135.0 131.7 L134.7 131.3 L133.9 130.7 L133.6 130.3 L133.4 129.7 L133.3 128.9 L133.0 128.4 L132.3 128.7 L132.8 129.1 L133.0 129.8 L133.0 131.7 L132.5 131.2 L132.2 130.4 L131.8 129.7 L131.1 129.3 L131.0 129.0 L131.2 128.2 L131.6 126.7 L132.4 126.0 L133.4 125.2 L134.2 124.2 L134.0 123.0 L134.4 122.7 L135.7 122.5 L136.0 122.2 L136.1 121.6 L136.8 120.4 L136.9 119.7 L137.4 119.7 L137.2 119.3 L136.8 118.8 L136.6 118.4 L136.7 118.0 L137.0 117.3 L137.3 116.7 L137.8 116.4 L138.2 115.8 L138.1 114.4 L137.6 112.2 L137.1 110.7 L136.1 108.6 L135.4 106.8 L136.0 105.7 L136.8 105.8 L138.6 106.1 L139.3 106.4 L139.9 106.9 L140.2 107.4 L140.6 107.8 L141.4 108.0 L142.2 107.7 L142.9 107.2 L143.6 106.9 L144.5 107.2 L145.1 107.6 L145.8 107.9 L146.4 108.4 L147.0 109.0 L146.2 109.8 L146.1 110.7 L146.5 111.5 L147.3 112.0 L146.7 113.9 L146.5 115.1 L146.8 115.7 L147.7 115.8 L148.4 116.2 L149.0 116.9 L152.0 123.6 L154.1 126.6 L154.9 127.3 L155.8 127.7 L156.4 128.0 L158.2 129.7 L158.6 130.3 L158.7 131.2 L158.6 132.4 L158.4 133.5 L158.1 134.2 L157.8 135.1 L158.2 136.3 L159.3 138.4 L159.5 140.1 L159.1 141.3 L157.9 142.1 L156.1 142.4 L155.4 142.6 L154.8 143.1 L154.4 143.6 L153.9 144.0 L152.5 144.2 L152.1 144.6 L152.6 145.7 L152.1 146.2 L150.3 147.3 L149.4 147.6 L147.7 147.6 L147.1 147.8 L145.2 149.1 L145.0 149.5 L145.1 149.9 L145.2 150.3 L145.3 150.7 L145.0 151.0 L144.5 151.1 L144.0 151.0 L143.6 150.7 L143.3 150.4 L142.8 149.0 L142.4 147.4 L141.9 145.9 L140.8 145.3 L139.3 144.8 L139.0 143.3 L139.3 140.0 L138.4 140.6 L137.8 141.3 L137.1 141.8 L135.8 142.0 L134.8 141.8 L128.7 138.6 L125.8 136.1 L124.9 135.1 L124.3 134.0 L124.9 133.9 L126.0 133.5 L126.9 132.9 L127.3 132.5 L127.4 131.8 L127.8 131.9 L128.2 132.2 L128.6 132.3 Z M235.2 107.7 L236.7 108.6 L237.3 109.3 L237.6 110.2 L237.2 114.3 L237.0 115.1 L236.9 115.5 L236.7 116.0 L236.3 116.3 L235.8 116.5 L235.6 116.7 L235.4 117.6 L235.6 118.5 L236.2 119.7 L236.4 120.5 L236.2 122.8 L236.0 123.8 L234.8 125.5 L234.6 126.2 L234.4 129.6 L234.6 131.5 L235.2 133.0 L233.6 132.4 L232.8 130.8 L232.3 129.0 L231.6 127.7 L230.8 127.2 L228.7 126.4 L227.8 125.8 L226.7 124.8 L226.9 124.3 L227.6 124.3 L232.4 125.0 L232.7 124.9 L233.0 124.6 L233.2 124.2 L233.4 123.9 L234.2 123.1 L234.4 122.7 L234.6 122.0 L234.5 120.9 L234.1 121.2 L233.6 121.9 L233.1 122.4 L232.8 121.8 L232.8 120.6 L233.2 118.4 L233.5 117.5 L233.7 117.4 L233.9 117.0 L235.3 115.9 L235.6 115.5 L235.9 112.7 L235.9 111.7 L235.1 109.5 L233.5 108.3 L231.8 107.5 L230.3 106.4 L226.2 101.0 L225.0 100.1 L223.2 99.5 L219.3 98.7 L217.3 97.8 L214.3 95.2 L212.4 94.7 L211.4 94.6 L209.3 94.1 L208.4 94.0 L207.4 94.3 L205.7 95.1 L204.9 95.0 L206.1 93.9 L206.8 92.0 L207.6 88.4 L207.3 88.4 L208.9 88.3 L209.7 88.4 L210.2 88.7 L209.7 89.4 L209.5 90.2 L209.5 91.0 L209.6 92.0 L210.3 91.1 L210.9 91.6 L211.3 92.5 L211.8 93.0 L212.7 93.3 L218.9 97.6 L220.7 98.5 L222.9 99.0 L225.2 99.1 L226.0 99.3 L226.8 99.9 L229.3 103.0 L232.2 105.7 L235.2 107.7 Z M154.6 81.4 L154.0 81.3 L153.4 80.7 L152.6 79.4 L151.6 78.4 L151.3 77.8 L151.6 77.4 L152.2 77.5 L152.7 78.0 L154.5 80.9 L154.6 81.4 Z M168.3 52.2 L168.1 52.6 L166.6 54.1 L166.9 53.0 L166.6 52.3 L166.3 51.7 L166.3 50.7 L166.7 51.0 L168.0 51.9 L168.3 52.2 Z M155.0 23.1 L154.1 22.9 L150.2 23.2 L148.7 23.7 L147.7 23.7 L147.8 23.5 L147.9 23.5 L148.3 23.4 L150.0 22.4 L152.2 22.0 L156.8 22.1 L161.3 23.0 L163.8 23.2 L164.9 22.4 L167.5 23.5 L169.6 24.9 L178.5 32.7 L179.5 33.3 L180.7 33.6 L182.3 33.7 L181.9 34.2 L181.2 34.4 L179.6 34.4 L180.3 35.7 L181.3 36.8 L182.6 37.5 L185.6 38.0 L186.9 38.5 L189.2 40.1 L191.0 41.0 L191.6 41.4 L192.0 42.0 L192.4 42.9 L192.4 43.7 L191.8 44.1 L191.6 44.4 L191.6 46.6 L191.8 47.4 L192.2 47.9 L192.9 48.2 L193.6 48.4 L193.0 49.5 L192.9 49.9 L193.0 50.4 L193.3 50.7 L193.5 51.0 L193.6 51.2 L193.7 51.6 L193.7 51.8 L193.7 52.0 L193.3 52.4 L192.9 52.7 L192.5 52.9 L191.6 53.0 L191.7 52.8 L191.9 52.1 L190.3 52.3 L188.8 53.0 L187.5 54.1 L186.4 55.2 L186.0 56.4 L185.5 60.1 L185.6 61.1 L185.1 63.8 L185.4 67.7 L185.2 71.2 L183.4 72.7 L182.2 72.1 L181.0 70.7 L180.2 69.2 L179.9 68.2 L179.1 67.6 L175.6 66.9 L174.6 65.7 L175.4 65.7 L176.3 65.4 L177.0 64.9 L177.5 63.7 L178.1 63.6 L178.8 63.5 L179.4 63.2 L181.2 61.4 L182.4 60.5 L183.6 60.1 L183.3 59.7 L183.1 59.3 L183.0 58.8 L183.0 58.2 L182.8 57.9 L182.4 57.6 L182.0 57.2 L181.9 56.7 L182.2 56.2 L182.7 55.7 L183.1 55.3 L183.3 54.6 L183.2 53.3 L183.1 52.7 L182.3 51.9 L183.8 49.9 L183.8 49.4 L183.3 48.8 L183.3 45.4 L184.0 45.4 L184.5 45.1 L184.9 44.6 L185.3 44.1 L185.3 43.8 L185.3 42.9 L185.4 42.5 L185.7 42.3 L186.0 42.2 L186.3 42.1 L186.8 41.3 L187.0 40.4 L186.6 39.7 L184.9 39.3 L183.8 38.8 L179.3 38.2 L178.4 37.7 L177.9 36.9 L177.3 35.7 L177.5 35.4 L177.6 35.0 L177.4 34.6 L176.9 34.0 L176.6 33.4 L176.5 33.2 L176.2 33.1 L176.0 33.3 L175.7 33.6 L175.4 33.7 L174.5 33.6 L173.7 33.3 L173.4 32.8 L173.6 32.1 L172.8 30.4 L170.6 27.1 L169.3 25.7 L168.5 25.2 L167.4 24.8 L166.3 24.8 L165.4 25.2 L164.6 25.5 L163.4 25.3 L160.6 24.5 L159.7 24.4 L157.8 24.4 L157.2 24.2 L155.8 23.4 L155.0 23.1 Z M152.2 147.5 L153.6 147.4 L154.0 147.4 L153.8 147.8 L153.2 148.5 L152.3 148.9 L151.5 148.5 L151.5 147.8 L152.2 147.5 Z M205.4 138.2 L205.5 138.5 L205.5 139.2 L205.2 139.4 L204.7 139.2 L204.4 138.6 L204.5 137.7 L204.9 137.5 L205.3 137.9 L205.4 138.2 Z M152.4 95.9 L151.7 95.9 L151.3 95.9 L150.4 95.9 L150.4 95.8 L150.7 95.6 L151.1 95.4 L151.4 95.4 L151.9 95.4 L152.7 95.4 L153.3 95.1 L153.6 94.6 L153.8 94.6 L153.5 95.2 L153.0 95.7 L152.4 95.9 Z M85.0 78.1 L85.2 78.6 L85.4 79.6 L85.2 80.1 L85.1 79.8 L84.8 80.0 L84.2 80.2 L84.1 79.7 L84.5 79.0 L84.3 78.7 L83.6 79.3 L83.3 79.7 L83.0 80.1 L82.9 80.7 L83.4 81.1 L84.2 81.4 L84.7 81.8 L84.5 82.0 L83.1 81.8 L82.6 81.8 L82.4 81.6 L82.6 80.9 L82.9 80.0 L83.6 78.9 L84.5 78.2 L85.0 78.1 Z M152.9 37.9 L153.2 37.7 L153.7 37.3 L153.9 37.5 L153.4 37.9 L153.3 38.2 L153.3 38.4 L153.0 38.8 L152.9 39.3 L152.5 39.7 L152.2 39.7 L152.1 39.6 L152.0 39.4 L151.3 38.7 L151.1 38.3 L151.0 37.8 L151.3 37.6 L152.8 37.4 L153.0 37.6 L152.5 38.1 L152.4 38.3 L152.8 38.1 L152.9 37.9 Z M202.8 89.9 L203.3 89.9 L203.7 90.0 L203.6 90.3 L202.8 90.6 L201.8 90.6 L201.2 91.1 L200.7 91.1 L200.6 90.8 L201.4 90.3 L202.0 90.2 L202.8 89.9 Z" fill="#172033" fill-rule="evenodd"/></svg>
