<svg xmlns="http://www.w3.org/2000/svg" viewBox="0 0 320 200" role="img"><path d="M34.7 162.9 L34.6 162.6 L34.2 162.4 L33.8 162.3 L33.4 161.8 L33.6 161.9 L33.8 161.8 L33.2 161.2 L32.9 160.8 L32.8 160.3 L33.0 159.6 L32.9 159.3 L32.6 159.1 L32.6 158.8 L32.9 158.8 L33.0 158.8 L33.4 158.5 L33.3 158.3 L33.1 158.1 L33.0 158.0 L33.1 157.9 L33.4 157.8 L33.3 157.6 L33.1 157.4 L33.0 157.3 L33.2 156.6 L33.3 156.3 L33.4 156.1 L33.9 155.7 L34.5 155.5 L35.1 155.2 L35.4 154.5 L34.8 154.0 L34.4 153.5 L34.7 153.3 L34.8 152.7 L35.2 152.5 L35.2 152.4 L35.1 152.4 L35.1 152.4 L35.0 152.3 L35.2 152.0 L35.2 151.1 L35.4 150.5 L35.9 149.7 L36.3 149.4 L36.8 149.2 L36.4 148.7 L36.0 147.6 L35.8 147.2 L35.7 146.9 L35.6 146.6 L35.3 146.4 L35.0 146.3 L34.8 146.1 L34.7 145.9 L34.5 145.7 L34.0 145.5 L32.6 145.5 L32.0 145.4 L31.2 144.4 L31.3 144.3 L31.4 144.0 L31.3 143.7 L30.8 144.0 L30.6 143.9 L30.3 143.8 L30.2 143.6 L29.8 143.9 L29.6 143.9 L29.3 143.7 L28.9 143.6 L28.5 143.7 L28.4 143.7 L28.6 143.4 L28.6 143.2 L28.0 143.2 L26.2 142.8 L25.9 142.5 L25.4 142.6 L23.3 142.3 L22.7 142.0 L22.9 141.5 L22.8 141.2 L22.5 140.9 L22.3 140.8 L22.1 140.6 L22.0 140.6 L23.3 139.0 L23.9 138.4 L25.0 137.6 L28.5 134.3 L31.1 133.0 L33.7 132.1 L38.5 131.2 L42.3 129.6 L43.5 128.8 L43.9 127.5 L43.8 126.7 L43.6 123.2 L43.5 123.0 L43.4 122.8 L43.3 122.6 L43.2 122.3 L43.3 122.1 L43.6 121.7 L43.7 121.5 L43.7 121.3 L43.5 120.5 L43.5 120.3 L43.5 120.0 L43.5 119.7 L43.2 119.3 L42.3 118.6 L42.0 118.1 L42.1 117.6 L42.4 117.2 L42.7 116.8 L43.0 116.4 L43.0 115.7 L42.7 115.4 L42.2 115.1 L41.7 114.8 L41.4 114.3 L41.1 113.9 L40.9 113.5 L40.3 113.1 L39.8 112.3 L38.7 109.5 L38.1 108.6 L36.7 106.9 L34.3 102.4 L33.6 100.4 L33.5 98.7 L33.5 98.7 L32.8 98.0 L32.5 97.5 L32.3 95.9 L32.0 95.2 L31.6 94.5 L31.3 93.8 L31.2 93.0 L32.2 93.1 L34.8 94.1 L35.3 94.2 L35.8 94.1 L37.2 93.8 L39.0 93.6 L39.5 93.4 L40.0 93.3 L40.2 93.3 L40.7 93.5 L40.9 93.5 L41.1 93.5 L43.4 92.8 L43.8 92.7 L44.2 92.8 L45.1 93.2 L45.6 93.2 L47.4 93.2 L48.3 93.1 L50.1 92.5 L51.0 92.4 L51.9 92.6 L52.7 93.2 L53.2 94.0 L53.5 94.3 L54.1 94.3 L55.1 94.3 L56.0 94.5 L57.0 94.5 L58.1 94.2 L61.4 92.4 L62.8 91.9 L64.7 91.7 L65.4 91.4 L65.5 91.4 L65.6 91.4 L65.7 91.4 L66.1 92.0 L66.5 92.3 L67.0 92.3 L68.9 92.1 L69.4 91.9 L69.8 91.4 L69.8 91.4 L69.8 91.4 L69.8 91.4 L69.8 90.6 L69.6 90.1 L69.2 89.6 L68.8 89.0 L68.7 88.5 L68.8 88.4 L68.9 88.4 L69.2 88.2 L69.7 88.0 L69.8 87.9 L69.7 87.7 L69.7 87.5 L69.8 87.3 L70.7 87.0 L70.8 87.0 L72.2 86.9 L73.5 87.0 L75.8 87.5 L77.1 87.4 L78.3 86.9 L79.5 86.1 L80.0 85.5 L80.6 84.2 L81.0 83.8 L81.5 83.7 L83.3 84.1 L85.7 84.1 L86.4 83.8 L87.5 82.8 L88.3 82.6 L88.6 82.6 L88.8 82.7 L89.0 82.9 L91.0 84.5 L90.8 84.6 L90.1 84.6 L89.5 84.8 L89.4 85.1 L90.1 85.3 L90.3 85.6 L90.1 85.8 L89.2 85.9 L89.0 86.2 L89.2 86.7 L89.9 87.0 L90.7 87.3 L93.2 87.5 L93.9 87.5 L94.2 87.4 L94.6 87.0 L94.9 86.9 L96.0 87.0 L96.4 87.0 L97.0 86.7 L97.3 86.2 L97.3 84.9 L97.4 84.8 L97.7 84.5 L97.8 84.4 L97.7 84.2 L97.6 84.2 L97.4 84.1 L97.3 84.0 L97.1 83.7 L96.9 83.4 L96.6 83.2 L96.3 83.1 L96.2 83.0 L95.9 83.1 L95.8 83.1 L95.7 83.0 L95.4 82.5 L95.3 82.2 L95.1 81.9 L94.7 81.8 L94.3 81.9 L92.5 82.4 L91.3 82.5 L90.7 82.3 L90.3 81.9 L90.3 81.2 L90.8 80.6 L92.2 79.7 L92.7 79.0 L92.8 78.5 L92.8 77.9 L92.9 77.1 L93.2 76.5 L93.7 76.2 L95.4 75.6 L96.0 75.2 L96.4 74.8 L96.5 74.2 L96.4 73.7 L95.7 72.6 L95.5 72.1 L95.5 71.7 L95.6 71.4 L95.8 71.1 L95.9 70.8 L95.9 70.5 L95.8 69.1 L95.9 68.7 L96.2 68.4 L96.9 68.1 L97.1 68.0 L97.3 68.0 L97.5 68.0 L97.6 67.7 L97.6 67.5 L97.3 66.9 L97.3 66.6 L97.6 66.1 L98.2 65.7 L98.8 65.4 L99.5 65.0 L99.6 64.7 L99.7 64.5 L99.8 64.3 L100.1 64.1 L101.2 63.8 L101.7 63.8 L102.8 64.0 L103.3 64.0 L106.8 63.6 L107.9 63.2 L108.3 62.9 L108.8 62.5 L109.3 62.1 L110.4 60.7 L110.5 60.5 L110.6 60.1 L110.5 59.4 L110.6 59.1 L111.5 58.3 L112.8 58.2 L116.0 58.6 L116.3 58.6 L116.6 58.6 L116.7 58.5 L116.9 58.3 L117.1 58.1 L117.6 58.1 L120.6 58.9 L121.2 58.8 L121.7 58.4 L122.0 57.6 L122.2 56.8 L122.4 56.5 L122.9 56.1 L123.7 55.6 L124.1 55.5 L125.3 55.3 L126.0 55.2 L126.7 54.9 L127.0 54.4 L126.7 53.9 L126.1 53.7 L121.3 53.2 L119.5 53.4 L119.1 53.4 L117.3 53.1 L116.9 52.9 L116.8 52.6 L117.0 52.0 L117.7 51.3 L117.9 51.0 L118.3 50.0 L118.6 49.6 L119.6 49.1 L119.7 48.7 L119.1 48.1 L119.3 47.4 L119.8 46.9 L120.5 46.4 L121.1 45.9 L121.4 45.3 L121.4 44.5 L121.3 43.7 L121.1 43.1 L121.7 42.5 L122.4 42.2 L123.1 42.3 L124.7 42.6 L125.3 42.6 L127.7 41.9 L128.2 41.5 L129.9 39.8 L131.6 38.7 L132.2 38.5 L132.2 38.4 L136.0 38.2 L137.1 38.3 L137.8 38.5 L139.6 39.3 L140.4 39.6 L140.9 39.5 L142.3 38.7 L142.9 38.3 L143.6 38.8 L144.5 39.1 L145.4 39.3 L149.1 39.4 L149.9 39.4 L150.1 38.9 L150.4 38.3 L150.6 36.9 L151.4 35.7 L154.3 34.6 L155.2 33.7 L155.3 33.0 L156.2 32.4 L158.2 31.6 L158.6 31.2 L158.8 30.9 L159.1 30.5 L159.6 30.3 L159.9 30.2 L161.1 30.0 L162.3 29.7 L163.1 29.4 L163.6 29.2 L164.9 28.9 L166.0 29.3 L166.5 29.8 L168.5 31.1 L169.4 31.8 L170.0 32.1 L170.6 32.2 L171.3 32.0 L172.2 31.2 L172.9 30.9 L177.2 30.6 L178.8 30.8 L179.3 30.9 L179.6 31.0 L180.1 31.5 L181.1 32.4 L181.3 32.6 L181.6 33.3 L181.8 34.0 L182.1 34.6 L182.8 35.0 L185.0 35.3 L185.7 35.2 L185.7 34.6 L186.5 34.1 L188.3 33.7 L188.3 33.7 L188.3 33.7 L190.0 33.0 L191.4 32.7 L193.1 32.8 L194.7 33.1 L196.1 33.7 L197.0 34.1 L201.5 34.8 L202.0 35.0 L202.5 35.2 L203.0 35.6 L203.3 35.9 L203.4 36.1 L203.3 36.3 L203.1 36.3 L202.8 36.3 L202.6 36.4 L202.3 36.5 L202.1 36.6 L201.9 36.7 L201.6 36.9 L201.5 37.2 L201.4 37.9 L201.3 38.2 L200.6 39.1 L200.5 39.6 L200.7 40.2 L201.0 40.6 L202.5 41.3 L203.9 42.5 L204.4 42.7 L205.2 42.5 L207.5 41.0 L210.3 40.1 L211.1 40.0 L213.1 40.3 L213.8 40.0 L215.0 38.9 L215.7 38.3 L216.8 38.0 L217.9 37.8 L219.1 37.9 L222.5 38.6 L223.3 38.4 L224.6 37.7 L225.2 37.5 L225.7 37.6 L226.7 38.1 L227.3 38.3 L233.0 39.4 L233.2 39.6 L233.2 39.8 L233.1 40.1 L233.0 40.3 L233.3 40.5 L235.9 41.3 L236.2 41.4 L236.4 41.6 L236.5 41.9 L236.4 42.2 L236.3 42.4 L236.3 42.7 L236.7 43.1 L237.2 43.3 L237.9 43.4 L239.1 43.4 L239.5 43.5 L239.8 43.8 L240.0 44.2 L240.9 45.2 L241.7 45.2 L242.7 44.9 L243.9 44.7 L245.0 45.0 L245.6 45.6 L245.8 45.8 L246.0 46.9 L245.4 47.9 L245.9 48.1 L246.0 48.1 L245.8 48.5 L245.1 48.8 L244.9 49.3 L245.1 49.8 L245.6 50.2 L246.0 50.6 L246.0 51.1 L245.6 51.5 L243.9 52.2 L242.9 53.0 L242.5 53.5 L242.4 54.1 L242.7 54.4 L243.2 54.7 L244.2 55.0 L244.6 55.4 L245.0 56.4 L245.5 56.8 L246.8 57.4 L247.2 57.6 L247.2 57.7 L247.1 58.0 L247.1 58.2 L247.2 58.2 L247.5 58.3 L247.6 58.3 L247.7 58.5 L247.9 58.5 L247.9 58.7 L247.8 59.0 L247.5 59.2 L247.5 59.4 L247.5 59.6 L247.8 59.8 L248.2 60.4 L248.5 61.1 L248.5 61.7 L247.8 61.8 L246.4 61.6 L245.8 61.6 L245.6 62.0 L245.9 62.4 L246.3 62.8 L246.5 63.1 L245.9 63.7 L245.4 63.9 L243.7 64.1 L243.0 64.4 L243.1 64.7 L243.3 65.1 L243.3 65.9 L242.9 66.3 L242.2 66.7 L241.6 67.2 L241.5 68.0 L241.7 68.5 L242.1 68.7 L243.3 68.9 L247.8 70.8 L248.2 71.3 L248.3 71.8 L248.9 71.8 L251.4 71.9 L252.0 72.7 L253.2 73.3 L252.4 74.4 L250.9 75.7 L250.2 77.0 L251.0 77.4 L253.2 77.7 L253.5 78.1 L253.5 78.1 L254.4 78.3 L254.8 78.9 L255.5 80.3 L255.9 80.7 L256.2 80.9 L256.6 81.2 L256.8 81.6 L257.0 83.3 L257.3 84.2 L257.7 84.6 L262.2 86.7 L263.0 87.1 L263.7 87.2 L265.2 87.5 L267.6 88.3 L268.5 88.4 L269.3 88.4 L269.6 88.5 L269.9 88.7 L270.2 89.1 L270.4 89.5 L270.6 89.8 L271.0 89.9 L271.7 89.6 L271.8 89.6 L272.1 89.7 L272.1 89.8 L272.1 89.9 L272.8 91.4 L272.6 91.7 L272.6 91.9 L272.6 92.1 L272.5 92.3 L272.2 92.9 L271.7 94.6 L271.2 95.3 L270.1 96.4 L269.8 97.1 L271.1 97.2 L273.5 97.7 L279.6 96.7 L280.3 96.8 L282.0 97.5 L285.6 98.1 L286.6 98.6 L287.5 99.3 L288.0 99.5 L289.4 99.4 L290.0 99.5 L290.5 99.7 L291.1 100.1 L291.3 100.3 L291.4 100.5 L291.3 100.8 L291.1 101.0 L288.9 101.6 L288.7 101.8 L288.7 102.0 L288.8 102.5 L289.1 103.3 L289.6 103.9 L290.3 104.3 L291.1 104.6 L292.5 105.0 L293.2 105.4 L293.7 105.9 L293.7 105.9 L293.9 106.1 L294.1 106.1 L294.3 106.1 L294.6 105.9 L295.1 105.8 L295.6 105.9 L296.0 106.0 L295.9 106.3 L295.8 106.6 L295.9 106.9 L296.2 106.9 L297.1 106.8 L297.5 106.8 L298.0 107.4 L297.9 107.7 L297.6 109.5 L297.9 110.4 L297.4 110.7 L296.9 110.7 L296.5 110.5 L296.0 110.5 L294.0 110.7 L294.1 110.8 L294.3 111.1 L294.4 111.2 L293.7 111.5 L292.7 111.6 L291.8 111.5 L291.1 111.3 L290.4 111.4 L290.1 111.8 L290.4 112.1 L291.1 112.2 L290.8 112.7 L290.4 113.3 L289.5 114.2 L288.9 114.5 L288.5 114.7 L287.4 114.9 L286.5 115.4 L285.7 116.0 L285.0 116.5 L283.4 116.5 L283.3 116.6 L283.3 116.7 L283.2 116.9 L283.2 116.9 L283.2 117.1 L283.2 117.2 L283.0 117.3 L282.9 117.3 L282.7 117.2 L281.6 117.3 L280.9 117.7 L280.6 117.8 L279.6 117.7 L277.5 117.2 L276.7 117.3 L275.9 117.5 L275.2 117.6 L274.5 117.5 L273.0 116.9 L272.7 116.9 L271.6 116.9 L271.3 116.9 L270.9 116.4 L270.6 115.2 L270.2 114.7 L269.7 114.5 L268.4 114.5 L267.8 114.5 L266.1 114.0 L265.5 114.0 L264.9 114.1 L263.8 114.5 L263.1 114.5 L261.7 114.3 L260.4 114.3 L259.3 114.8 L258.7 116.2 L258.8 116.6 L258.8 116.6 L258.9 116.9 L258.9 117.2 L258.8 117.5 L258.6 117.7 L257.8 117.8 L257.5 117.9 L256.1 119.3 L255.5 119.7 L257.6 120.8 L258.1 121.3 L258.9 122.7 L259.5 123.3 L260.4 123.9 L261.4 124.2 L262.2 124.4 L262.9 124.5 L263.1 124.7 L263.2 125.1 L263.5 125.5 L263.9 125.9 L264.2 126.0 L264.5 126.3 L264.8 126.8 L264.8 128.0 L264.2 128.6 L262.2 129.3 L262.5 129.7 L263.8 130.8 L264.7 131.9 L265.1 132.3 L266.1 132.9 L266.5 133.2 L266.4 133.5 L266.0 133.5 L264.9 133.4 L264.5 133.4 L264.6 133.5 L265.0 133.8 L264.4 134.0 L264.2 134.2 L264.3 134.5 L264.7 134.8 L265.3 135.1 L265.4 135.8 L265.2 136.6 L265.2 137.4 L265.4 137.7 L265.7 137.9 L265.9 138.2 L265.9 138.8 L265.7 139.1 L265.4 139.5 L265.1 139.8 L264.7 140.0 L265.6 140.8 L266.1 141.1 L266.6 141.3 L267.1 141.5 L268.1 141.6 L268.5 141.7 L268.2 142.0 L268.0 142.3 L268.0 142.8 L268.0 143.2 L268.2 143.5 L268.5 143.6 L270.0 144.3 L270.4 144.7 L270.5 145.2 L270.4 146.1 L267.1 146.2 L262.0 145.6 L259.4 145.6 L257.1 146.2 L256.5 146.6 L256.1 147.2 L255.6 147.7 L254.9 147.9 L254.2 147.7 L252.9 147.0 L252.2 146.8 L251.1 146.7 L247.1 146.8 L246.4 147.0 L246.0 147.3 L246.1 147.8 L246.0 147.9 L245.9 148.1 L245.9 148.2 L245.8 148.3 L246.6 148.4 L246.9 148.8 L246.6 149.2 L245.9 149.2 L245.7 149.0 L245.5 149.0 L245.3 149.0 L245.1 149.2 L244.9 149.3 L244.8 149.5 L244.8 149.7 L244.8 149.8 L244.5 150.0 L244.2 150.2 L243.9 150.4 L243.5 150.6 L242.6 150.8 L242.6 150.9 L242.7 151.0 L242.9 151.2 L242.9 151.4 L242.5 151.7 L242.2 151.9 L242.0 151.9 L241.1 151.9 L240.9 151.9 L240.8 152.1 L240.7 152.4 L240.7 152.6 L240.1 152.8 L239.9 153.0 L239.7 153.2 L239.6 153.3 L239.5 153.4 L238.9 153.9 L238.7 154.1 L238.6 154.2 L238.6 154.3 L238.8 154.6 L238.8 155.0 L238.3 155.4 L237.6 155.6 L237.3 155.9 L237.9 156.1 L238.1 156.1 L238.1 156.3 L237.8 156.5 L237.7 156.9 L237.7 157.2 L237.5 157.5 L237.2 157.6 L236.3 157.6 L235.9 157.7 L236.1 158.1 L235.7 158.7 L235.9 159.1 L235.7 159.2 L235.5 159.4 L235.3 159.5 L235.4 159.6 L235.5 159.9 L235.1 160.0 L234.3 160.4 L234.3 160.7 L234.9 161.0 L235.1 161.1 L235.1 161.2 L234.9 161.3 L234.8 161.3 L234.7 161.4 L234.5 161.4 L234.5 161.6 L234.9 161.9 L235.8 162.1 L236.3 162.2 L236.1 162.5 L235.9 162.7 L235.7 162.8 L236.0 163.0 L236.3 163.2 L236.5 163.4 L236.3 163.6 L236.4 164.0 L236.7 164.2 L237.0 164.3 L237.3 164.4 L237.3 164.6 L236.9 164.6 L236.6 164.6 L236.4 164.8 L236.3 165.2 L236.4 165.5 L236.6 165.6 L236.9 165.6 L237.3 165.8 L237.4 166.0 L237.7 166.8 L237.9 166.9 L238.1 167.1 L238.1 167.3 L237.7 167.4 L237.9 168.2 L237.1 168.7 L236.2 169.1 L236.1 169.5 L235.6 170.1 L235.5 170.2 L235.5 170.9 L235.5 170.9 L235.3 171.0 L235.0 171.1 L234.8 170.8 L234.5 170.6 L234.1 170.4 L233.7 170.4 L233.3 170.4 L232.9 170.3 L232.2 169.7 L231.8 169.5 L231.4 169.4 L230.5 169.4 L230.1 169.3 L229.7 169.1 L228.8 168.4 L228.6 168.0 L228.7 168.0 L228.9 167.4 L229.0 167.2 L229.0 166.9 L228.9 166.7 L228.9 166.5 L228.7 166.3 L228.3 166.1 L226.9 165.6 L226.4 165.3 L225.4 164.4 L224.6 164.0 L223.7 163.9 L219.7 164.0 L219.0 164.1 L217.3 164.7 L216.9 164.7 L216.4 164.5 L216.2 164.5 L215.8 164.6 L215.3 165.2 L215.0 165.4 L214.5 165.5 L211.9 165.2 L211.5 164.9 L211.2 164.4 L210.8 163.9 L210.3 163.7 L209.6 163.6 L209.0 163.7 L208.4 163.9 L207.8 164.2 L207.4 164.6 L207.0 164.9 L206.3 165.1 L205.5 165.1 L205.1 165.2 L204.9 165.6 L204.4 166.3 L204.0 166.8 L203.4 166.8 L202.2 166.4 L201.5 166.6 L200.8 167.0 L200.4 167.2 L199.8 167.3 L199.1 167.1 L198.8 166.6 L198.5 165.9 L198.2 165.4 L197.6 164.9 L197.1 164.7 L196.9 164.4 L197.2 163.6 L197.1 162.9 L196.8 162.4 L195.8 161.5 L195.2 160.5 L194.8 160.1 L194.1 159.8 L193.0 159.6 L192.4 159.7 L191.8 159.8 L191.2 160.1 L190.5 161.1 L190.0 161.4 L189.2 161.6 L187.5 161.6 L186.6 161.7 L185.7 162.0 L184.8 162.5 L184.0 163.1 L183.4 163.9 L183.3 164.4 L183.4 165.5 L183.2 165.9 L182.7 166.3 L182.4 166.0 L182.2 165.5 L182.0 165.1 L181.6 165.1 L181.2 165.2 L180.8 165.3 L180.4 165.2 L180.1 164.9 L179.9 164.5 L179.4 162.9 L179.4 162.3 L179.1 161.9 L178.4 161.7 L175.8 161.4 L175.0 161.4 L174.2 161.5 L172.8 162.1 L172.0 162.6 L171.7 162.7 L171.3 162.6 L171.1 162.4 L170.8 161.6 L170.6 161.3 L170.3 161.0 L169.5 160.7 L169.1 160.5 L168.9 160.2 L168.8 159.9 L168.8 159.7 L168.7 159.4 L168.3 159.1 L167.7 159.0 L167.1 159.2 L166.5 159.6 L165.9 160.1 L165.0 161.3 L164.3 161.6 L163.7 161.8 L160.9 161.8 L160.4 161.7 L159.8 161.5 L158.1 160.3 L157.4 160.1 L156.8 160.2 L156.2 160.5 L155.9 161.0 L155.7 161.6 L155.7 161.9 L155.8 162.2 L155.8 162.6 L155.7 162.9 L155.5 163.1 L154.2 164.3 L153.9 164.4 L153.4 164.5 L153.0 164.4 L152.5 164.1 L152.1 163.9 L152.0 163.7 L152.0 163.6 L152.9 162.2 L153.1 161.5 L152.8 160.9 L152.3 160.7 L150.7 160.7 L147.6 159.9 L147.6 159.9 L146.6 159.9 L146.0 160.0 L145.2 160.6 L144.6 160.8 L144.0 160.8 L142.3 160.6 L141.1 160.9 L140.5 160.9 L140.1 160.7 L140.3 160.2 L140.7 159.6 L140.8 159.1 L139.9 158.9 L139.2 159.0 L138.7 159.0 L138.2 158.7 L138.0 158.1 L138.0 157.4 L138.1 156.8 L137.9 156.3 L137.1 156.0 L135.9 155.9 L133.4 155.8 L130.5 156.4 L128.6 156.2 L123.1 154.7 L116.8 154.6 L116.3 154.5 L116.0 154.2 L115.9 153.9 L116.0 153.6 L116.0 153.4 L115.7 153.3 L108.9 153.1 L108.1 152.9 L106.2 151.9 L105.3 151.7 L103.3 151.8 L97.2 151.1 L94.7 151.4 L90.8 151.3 L85.2 151.3 L80.3 150.4 L79.0 150.5 L77.7 150.7 L75.1 151.6 L67.0 152.4 L66.4 152.4 L64.6 152.1 L57.4 152.5 L56.8 152.6 L56.2 153.0 L55.1 154.0 L54.7 154.5 L54.0 156.4 L53.2 157.1 L49.9 158.5 L45.6 161.0 L44.4 161.1 L43.6 160.6 L42.8 160.0 L41.6 159.7 L40.9 159.6 L38.9 159.3 L38.2 159.3 L35.4 159.7 L35.0 159.8 L34.7 160.0 L34.4 160.4 L34.4 160.6 L34.5 160.9 L35.3 162.3 L35.4 162.5 L35.2 163.0 L35.0 163.1 L34.7 162.9 Z" fill="#172033" fill-rule="evenodd"/></svg>
