<svg xmlns="http://www.w3.org/2000/svg" viewBox="0 0 320 200" role="img"><path d="M134.2 37.7 L133.9 35.8 L134.1 34.8 L134.0 34.5 L134.0 34.4 L134.1 34.2 L134.2 33.9 L134.3 33.7 L134.3 33.5 L134.3 33.0 L134.2 32.3 L134.1 32.0 L133.8 31.4 L133.8 31.3 L133.7 31.2 L133.5 31.0 L133.4 30.9 L133.5 30.7 L133.6 30.5 L133.8 30.3 L133.9 30.3 L134.1 30.4 L134.2 30.4 L134.4 30.4 L134.6 30.4 L134.9 30.3 L135.2 30.1 L135.4 29.8 L135.8 28.8 L136.0 28.5 L136.3 28.2 L136.4 28.0 L136.4 28.0 L136.5 28.0 L136.6 27.9 L136.7 27.9 L136.9 27.4 L137.1 27.3 L137.2 27.2 L137.4 27.1 L137.4 26.7 L137.5 26.7 L137.6 26.6 L137.6 26.5 L137.7 26.5 L137.7 26.2 L137.8 26.0 L137.9 25.9 L138.1 25.7 L138.2 25.6 L138.4 25.5 L138.7 25.6 L138.9 25.5 L139.0 25.3 L139.2 25.1 L139.2 25.0 L139.6 24.8 L140.3 24.4 L140.5 24.1 L140.6 24.0 L140.8 24.0 L141.4 24.0 L141.5 24.0 L141.8 23.9 L142.0 23.8 L142.3 24.0 L143.2 24.0 L143.3 24.0 L143.5 24.1 L143.7 24.1 L144.1 24.3 L144.2 24.4 L144.3 24.5 L144.4 24.6 L144.5 24.9 L144.6 25.0 L144.6 25.1 L144.8 25.2 L145.6 25.3 L145.8 25.5 L146.0 25.6 L146.3 25.8 L146.8 26.0 L147.0 26.1 L147.3 26.6 L147.5 26.7 L147.7 26.8 L148.0 26.9 L148.2 26.9 L148.3 27.0 L148.5 27.1 L148.6 27.4 L148.8 27.8 L148.9 27.8 L149.0 27.9 L149.2 28.1 L149.3 28.2 L149.4 28.4 L149.3 28.5 L149.2 28.7 L149.2 28.8 L149.3 29.0 L149.3 29.0 L150.2 29.8 L150.3 30.0 L150.5 30.0 L151.2 29.9 L151.9 29.9 L152.1 29.9 L152.2 29.8 L152.3 29.7 L152.4 29.7 L152.8 29.6 L153.5 29.8 L154.3 30.1 L154.5 30.1 L154.5 30.2 L154.7 30.5 L154.8 30.6 L155.0 30.6 L155.1 30.7 L155.1 30.8 L155.2 30.8 L155.4 30.9 L155.4 30.9 L155.5 30.9 L155.6 31.0 L155.7 31.0 L155.8 30.9 L155.8 30.9 L155.9 30.8 L155.9 30.7 L156.0 30.7 L156.0 30.7 L156.1 30.6 L156.2 30.6 L156.3 30.7 L156.4 30.7 L156.4 30.8 L156.8 31.0 L156.9 31.1 L157.1 31.1 L157.3 31.2 L157.6 31.1 L157.7 31.2 L157.8 31.2 L157.9 31.3 L157.9 31.3 L158.0 31.3 L158.2 31.3 L158.3 31.4 L159.1 31.0 L159.2 30.9 L159.5 31.0 L159.8 30.9 L159.9 31.0 L160.1 31.0 L160.1 31.1 L160.2 31.1 L160.2 31.1 L160.3 31.1 L160.5 31.1 L160.6 31.1 L160.8 31.2 L160.9 31.3 L161.0 31.4 L161.2 31.4 L161.7 31.5 L161.9 31.4 L161.9 31.4 L162.0 31.4 L162.0 31.4 L162.1 31.4 L162.2 31.4 L162.4 31.5 L162.6 31.6 L163.0 31.7 L163.2 31.7 L163.2 31.7 L163.4 31.9 L163.4 32.0 L163.6 32.0 L163.8 32.1 L164.6 32.3 L165.6 32.3 L165.7 32.2 L165.8 32.2 L165.9 32.2 L166.2 31.9 L166.3 31.8 L166.4 31.7 L166.4 31.6 L166.6 31.5 L166.6 31.4 L166.6 31.4 L166.6 31.2 L166.6 31.1 L166.8 30.6 L166.9 30.6 L167.0 30.5 L167.1 30.5 L167.2 30.4 L167.2 30.3 L167.2 30.2 L167.0 30.1 L167.0 29.9 L167.0 29.7 L167.0 29.5 L167.2 29.4 L167.5 29.4 L167.7 29.4 L167.8 29.3 L167.9 29.2 L167.9 29.2 L167.9 29.0 L167.9 28.9 L168.0 28.8 L168.0 28.8 L168.1 28.7 L168.1 28.6 L168.2 28.5 L168.2 28.4 L168.1 28.3 L168.1 28.2 L168.2 28.1 L168.3 28.0 L168.4 27.9 L168.4 27.8 L168.5 27.5 L168.6 27.4 L168.8 27.3 L168.9 27.4 L169.0 27.5 L169.2 27.5 L169.3 27.3 L169.5 27.1 L169.5 27.1 L169.5 27.0 L169.4 26.9 L169.4 26.8 L169.5 26.7 L169.5 26.6 L169.6 26.6 L169.7 26.6 L169.8 26.6 L169.9 26.6 L170.0 26.5 L170.1 26.5 L170.2 26.5 L170.3 26.5 L170.4 26.8 L170.5 26.9 L170.5 27.1 L170.5 27.2 L170.6 27.2 L170.7 27.2 L170.8 27.3 L170.9 27.3 L171.0 27.4 L171.2 27.5 L171.4 27.5 L171.8 27.3 L171.9 27.4 L172.1 27.7 L172.2 27.7 L172.2 27.8 L172.5 27.9 L172.6 28.1 L172.7 28.2 L172.8 28.2 L172.9 28.2 L172.9 28.2 L173.0 28.3 L173.0 28.4 L173.2 28.4 L173.3 28.4 L173.5 28.4 L173.6 28.5 L173.7 28.5 L173.8 28.5 L173.9 28.5 L173.9 28.4 L173.9 28.4 L173.9 28.3 L174.0 28.2 L174.0 28.0 L174.1 27.9 L174.2 27.9 L174.4 27.8 L174.6 27.8 L175.1 27.4 L175.3 27.3 L175.6 27.2 L176.0 27.0 L176.1 27.0 L176.5 26.9 L176.7 26.9 L177.0 26.6 L177.2 26.6 L177.3 26.6 L177.4 26.6 L177.5 26.7 L177.6 26.6 L177.6 26.6 L177.7 26.5 L178.0 26.6 L178.2 26.6 L178.2 26.5 L178.2 26.4 L178.2 26.3 L178.2 26.3 L178.3 26.2 L178.3 26.2 L178.4 26.2 L178.5 26.3 L178.6 26.2 L179.1 26.0 L179.3 25.9 L179.4 25.8 L179.6 25.7 L179.7 25.8 L179.8 25.9 L179.9 25.9 L180.0 25.9 L180.3 25.6 L180.4 25.5 L180.6 25.4 L180.7 25.5 L180.8 25.7 L180.8 25.7 L180.9 25.6 L180.9 25.6 L180.9 25.5 L180.9 25.4 L181.0 25.2 L181.0 25.1 L181.1 25.1 L181.7 25.0 L181.9 24.9 L182.0 24.8 L182.0 24.7 L181.8 24.7 L181.7 24.6 L181.7 24.4 L181.8 24.2 L182.0 24.1 L182.0 24.2 L182.1 24.4 L182.1 24.5 L182.2 24.6 L182.3 24.5 L182.3 24.4 L182.3 24.3 L182.5 24.2 L182.7 24.3 L182.7 24.3 L182.9 24.4 L183.1 24.5 L183.1 24.6 L183.2 24.7 L183.3 24.8 L183.3 24.8 L183.5 24.9 L183.7 24.9 L183.7 25.0 L183.7 25.1 L183.8 25.2 L183.9 25.3 L184.1 25.4 L184.2 25.5 L184.1 25.6 L184.1 25.7 L184.2 25.7 L184.7 25.8 L184.9 25.8 L185.0 25.7 L185.1 25.8 L185.2 25.8 L185.3 25.7 L185.4 25.6 L185.5 25.6 L185.5 25.6 L185.6 25.6 L185.7 25.6 L185.9 25.6 L186.2 25.4 L186.4 25.3 L186.4 25.3 L186.6 25.2 L186.6 25.2 L186.7 25.2 L187.0 25.3 L187.3 25.4 L187.6 25.5 L187.7 25.5 L187.7 25.3 L187.8 25.2 L187.8 25.1 L187.9 25.1 L188.0 25.0 L188.0 25.0 L188.1 25.0 L188.2 25.0 L188.2 25.0 L188.3 25.1 L188.8 25.0 L188.9 25.0 L189.0 24.9 L189.4 24.9 L189.5 24.8 L189.6 24.8 L189.6 24.7 L189.6 24.5 L189.6 24.4 L189.8 24.2 L189.8 24.2 L189.8 24.1 L189.9 23.9 L189.8 23.9 L189.8 23.8 L189.6 23.8 L189.6 23.8 L189.5 23.6 L189.6 23.4 L189.7 23.3 L189.7 23.2 L189.8 23.0 L189.8 22.9 L189.9 22.7 L190.1 22.7 L190.0 22.5 L190.0 22.5 L190.1 22.4 L190.2 22.3 L190.4 22.4 L190.6 22.4 L190.9 22.2 L190.9 22.2 L191.0 22.2 L191.1 22.3 L191.1 22.3 L191.3 22.2 L191.4 22.2 L191.4 22.0 L191.5 22.0 L191.6 22.0 L191.7 22.0 L191.8 22.0 L191.8 22.1 L191.9 22.2 L191.9 22.3 L192.1 22.3 L192.1 22.3 L192.1 22.3 L192.0 22.4 L192.0 22.4 L192.0 22.5 L192.1 22.5 L192.2 22.5 L192.2 22.5 L192.3 22.5 L192.4 22.5 L192.4 22.5 L192.5 22.6 L192.5 22.6 L192.7 22.6 L192.8 22.7 L193.0 23.0 L193.1 23.0 L193.2 23.1 L193.3 23.1 L193.4 23.0 L193.3 22.9 L193.4 22.9 L193.5 22.9 L193.5 23.1 L193.6 23.1 L193.7 23.1 L193.7 23.1 L193.7 23.2 L193.7 23.3 L193.7 23.3 L193.8 23.5 L193.9 23.5 L194.0 23.4 L194.0 23.3 L194.2 23.3 L194.3 23.4 L194.4 23.6 L194.5 23.7 L194.5 23.5 L194.6 23.4 L194.8 23.4 L194.9 23.5 L194.9 23.3 L194.9 23.2 L195.0 23.2 L195.1 23.2 L195.2 23.3 L195.4 23.5 L195.5 23.5 L195.5 23.5 L195.7 23.4 L195.8 23.5 L195.8 23.4 L195.8 23.4 L195.9 23.3 L196.0 23.3 L196.0 23.4 L196.0 23.3 L196.0 23.1 L196.0 23.1 L196.1 23.1 L196.1 23.1 L196.2 23.1 L196.2 23.1 L196.3 23.0 L196.3 23.0 L196.4 23.0 L196.5 23.1 L196.5 23.2 L196.7 23.1 L196.7 23.2 L196.7 23.2 L196.8 23.2 L196.9 23.2 L196.9 23.1 L197.0 23.4 L197.0 23.5 L197.1 23.4 L197.1 23.5 L197.1 23.6 L197.2 23.6 L197.2 23.6 L197.3 23.5 L197.3 23.7 L197.5 23.8 L197.7 23.9 L197.9 23.9 L198.0 23.9 L198.2 23.9 L198.2 24.0 L198.3 23.9 L198.5 23.9 L198.6 24.0 L198.7 24.1 L198.8 24.2 L198.9 24.2 L199.1 24.6 L199.1 24.6 L199.2 24.6 L199.4 24.7 L199.5 24.7 L199.6 24.7 L199.7 24.7 L199.8 24.6 L199.9 24.6 L199.9 24.6 L200.0 24.5 L200.2 24.4 L200.3 24.5 L200.4 24.6 L200.5 24.6 L200.5 24.5 L200.6 24.5 L200.7 24.5 L200.8 24.5 L200.9 24.4 L201.0 24.3 L201.4 24.3 L201.5 24.3 L201.5 24.4 L201.9 24.7 L201.9 24.8 L202.0 24.8 L202.1 24.7 L202.1 24.7 L202.2 24.7 L202.2 24.7 L202.3 24.8 L202.3 24.8 L202.4 24.8 L202.5 24.8 L202.6 24.7 L202.6 24.6 L202.7 24.4 L202.7 24.3 L203.0 24.1 L203.2 23.9 L203.5 23.7 L203.8 23.5 L204.1 23.4 L204.5 23.4 L204.8 23.6 L205.5 23.9 L205.7 24.0 L205.9 24.0 L206.0 24.0 L206.1 24.1 L206.2 24.2 L206.4 24.3 L206.4 24.3 L206.5 24.3 L206.7 24.3 L206.8 24.3 L206.9 24.4 L207.0 24.4 L207.2 24.5 L207.2 24.6 L207.1 25.0 L207.2 25.0 L207.2 25.1 L207.3 25.1 L207.3 25.1 L207.6 25.3 L207.7 25.4 L207.7 25.5 L207.7 25.7 L207.8 25.8 L207.9 25.9 L208.1 25.9 L208.8 26.0 L209.0 26.1 L209.1 26.3 L209.2 26.6 L209.2 26.8 L209.3 26.9 L209.4 26.9 L209.5 26.8 L209.6 26.8 L209.7 26.9 L209.8 27.0 L209.8 27.0 L209.8 27.1 L209.9 27.3 L209.8 27.8 L209.8 28.1 L209.9 28.3 L209.9 28.5 L210.0 28.5 L210.2 28.5 L210.2 28.5 L210.3 28.6 L210.5 28.8 L210.6 28.8 L210.6 28.8 L210.9 28.8 L210.9 28.8 L211.0 28.8 L211.1 28.8 L211.1 28.8 L211.1 28.8 L211.1 28.7 L211.1 28.7 L211.1 28.7 L211.2 28.7 L211.3 28.7 L211.3 28.8 L211.4 28.8 L211.5 28.8 L211.9 28.8 L211.9 28.9 L211.9 29.1 L211.9 29.3 L211.9 29.3 L211.9 29.4 L211.9 29.5 L212.0 29.6 L212.2 29.9 L212.3 29.9 L212.4 29.8 L212.5 29.7 L212.6 29.7 L212.7 29.8 L212.7 30.0 L213.0 30.2 L213.1 30.4 L213.3 30.5 L213.6 30.6 L214.0 30.5 L214.3 30.5 L214.6 30.7 L214.7 30.9 L214.7 31.0 L214.8 31.0 L215.0 31.1 L215.2 31.1 L215.3 31.0 L215.5 30.8 L215.8 30.4 L215.9 30.3 L216.1 30.3 L216.2 30.3 L216.3 30.3 L216.3 30.3 L216.4 30.3 L216.5 30.2 L216.5 30.1 L216.5 30.0 L216.6 30.0 L217.0 29.9 L217.1 29.8 L217.2 29.6 L217.6 29.0 L217.6 29.0 L217.8 29.0 L217.9 28.9 L218.0 28.8 L218.1 28.8 L218.2 28.8 L218.3 29.0 L218.3 29.2 L218.3 29.3 L218.6 29.4 L218.6 29.4 L218.9 29.4 L219.3 29.4 L219.5 29.4 L220.0 29.3 L220.0 29.4 L220.4 29.6 L220.5 29.7 L220.6 29.8 L220.6 29.8 L220.9 29.9 L221.0 30.0 L221.5 30.5 L221.7 30.6 L221.9 30.6 L222.0 30.4 L222.0 30.3 L222.1 30.2 L222.3 30.2 L222.5 30.2 L222.6 30.2 L222.7 30.0 L222.8 29.8 L222.9 29.7 L223.3 29.3 L223.4 29.1 L223.5 29.0 L223.5 28.8 L223.6 28.7 L223.8 28.6 L223.8 28.5 L223.8 28.4 L223.8 28.2 L223.8 27.9 L223.9 27.8 L224.0 27.8 L224.2 27.9 L224.2 27.9 L224.3 28.0 L224.3 28.0 L224.5 27.9 L224.5 27.9 L224.6 27.9 L224.9 28.1 L225.1 28.1 L225.2 28.1 L225.6 28.2 L225.7 28.3 L225.9 28.5 L226.0 28.6 L226.1 28.6 L226.3 28.6 L226.3 28.6 L226.5 28.7 L226.6 28.7 L226.7 28.8 L226.7 28.9 L226.6 28.9 L226.6 29.0 L226.5 29.1 L226.5 29.1 L226.6 29.3 L226.6 29.3 L226.6 29.4 L226.5 29.7 L226.5 30.0 L226.6 30.3 L226.8 30.5 L227.2 30.5 L227.4 30.5 L227.6 30.7 L227.8 30.8 L227.9 31.0 L227.8 31.1 L227.8 31.2 L227.7 31.3 L227.7 31.4 L227.8 31.4 L227.9 31.5 L228.0 31.5 L228.1 31.5 L228.3 31.6 L228.4 31.7 L228.6 32.1 L228.7 32.3 L228.9 32.4 L229.2 32.4 L229.4 32.5 L229.5 32.7 L229.5 32.9 L229.6 33.1 L229.8 33.3 L229.8 33.4 L229.9 33.5 L229.9 33.6 L229.9 33.7 L229.9 33.8 L230.1 33.8 L230.6 33.8 L231.2 34.0 L231.8 34.4 L232.2 34.5 L232.2 34.5 L232.4 34.5 L232.5 34.5 L232.6 34.5 L232.6 34.5 L232.7 34.5 L232.8 34.7 L233.0 35.9 L233.0 36.1 L233.0 36.4 L232.9 36.5 L232.9 36.6 L232.9 36.6 L233.0 36.7 L233.0 36.7 L233.1 36.7 L233.3 36.7 L233.4 36.6 L233.6 36.5 L233.8 36.5 L233.9 36.4 L234.1 36.4 L234.3 36.3 L234.4 36.2 L234.6 36.1 L234.7 36.2 L234.7 36.3 L234.8 36.6 L234.8 36.7 L234.9 36.8 L235.2 36.9 L235.3 37.0 L235.2 37.4 L235.3 37.6 L235.5 37.5 L235.7 37.4 L235.8 37.4 L235.9 37.6 L235.9 37.6 L235.9 37.9 L235.9 38.0 L235.9 38.1 L236.0 38.2 L235.9 38.4 L235.9 38.5 L235.8 38.6 L235.6 38.8 L235.4 39.1 L235.4 39.2 L235.4 39.2 L235.4 39.3 L235.3 39.3 L235.2 39.3 L235.2 39.3 L235.0 39.6 L234.7 40.7 L234.6 41.0 L234.5 41.2 L234.5 41.4 L234.6 41.5 L235.0 41.8 L235.2 41.9 L235.4 42.2 L235.5 42.6 L235.4 42.9 L235.2 43.4 L235.2 43.5 L235.1 43.5 L235.0 43.6 L235.0 43.6 L235.0 43.6 L235.0 43.7 L235.0 43.8 L234.7 44.5 L234.7 44.6 L234.7 44.6 L234.7 44.7 L234.5 45.0 L234.5 45.0 L234.5 45.2 L234.5 45.5 L234.5 45.7 L234.4 45.8 L234.3 46.0 L234.2 46.1 L234.3 46.3 L234.4 46.3 L235.0 46.3 L235.0 46.4 L235.1 46.5 L235.1 46.6 L235.1 46.7 L235.2 46.8 L235.3 47.0 L235.5 47.1 L235.6 47.2 L235.8 47.1 L235.9 46.8 L236.1 46.6 L236.4 46.6 L236.5 46.7 L237.0 47.2 L237.0 47.2 L237.0 47.3 L237.0 47.4 L237.0 47.4 L236.9 47.4 L237.0 47.5 L237.1 47.6 L237.5 47.6 L237.6 47.6 L237.7 47.6 L238.1 47.4 L238.1 47.8 L238.2 48.0 L238.2 48.1 L238.4 48.3 L238.9 48.5 L239.0 48.7 L239.0 48.7 L239.0 48.7 L238.9 49.1 L238.7 49.5 L238.2 50.2 L237.6 50.8 L237.5 51.1 L236.9 51.8 L236.3 52.3 L235.1 53.2 L234.0 54.1 L233.3 55.0 L233.0 55.5 L232.3 56.3 L232.2 56.4 L232.1 56.5 L231.9 56.5 L231.8 56.6 L231.7 56.6 L231.5 56.6 L231.4 56.6 L231.3 56.7 L231.2 56.8 L231.1 56.9 L230.9 56.9 L230.8 56.8 L230.7 56.8 L230.7 56.8 L230.6 56.9 L230.4 57.1 L230.3 57.2 L230.3 57.3 L230.3 57.4 L230.3 57.5 L230.2 57.6 L230.2 57.8 L230.2 58.1 L230.1 58.3 L230.0 58.4 L229.9 58.6 L229.9 58.6 L229.7 58.9 L229.7 59.0 L229.6 59.0 L228.7 59.2 L228.3 59.4 L228.2 59.5 L228.0 59.6 L227.9 59.7 L227.8 60.0 L227.8 60.1 L227.8 60.5 L227.7 61.2 L227.7 61.4 L227.9 62.1 L227.9 62.4 L227.8 62.7 L227.7 62.7 L227.6 62.9 L227.1 63.4 L227.0 63.6 L227.0 63.7 L226.7 65.1 L226.7 65.2 L226.6 65.2 L226.6 65.2 L226.5 65.1 L226.4 65.1 L226.3 65.2 L226.0 65.7 L225.9 65.9 L225.9 66.1 L226.0 66.4 L226.0 66.6 L226.0 66.7 L225.8 67.0 L225.7 67.9 L225.6 68.2 L225.5 69.0 L225.5 69.1 L225.3 70.2 L225.3 70.3 L225.3 70.4 L225.4 70.6 L225.5 70.7 L225.5 71.2 L225.5 71.3 L225.4 71.4 L225.3 71.4 L225.2 71.4 L225.2 71.5 L225.2 71.5 L225.3 71.6 L225.3 71.7 L225.3 71.7 L225.3 71.8 L225.2 71.8 L225.2 71.9 L225.1 72.5 L225.1 72.7 L225.2 73.0 L225.2 73.2 L225.1 73.7 L225.1 73.8 L225.0 73.9 L224.8 74.0 L224.7 74.1 L224.7 74.2 L224.7 74.3 L224.7 74.5 L224.7 74.6 L224.7 74.7 L224.7 74.7 L224.7 74.7 L224.6 74.8 L224.7 75.0 L224.8 75.3 L224.8 75.5 L224.8 75.6 L224.7 76.1 L224.7 76.3 L224.8 76.4 L224.9 76.6 L224.9 76.8 L224.9 76.8 L224.8 77.0 L224.8 77.1 L224.9 77.3 L225.0 77.4 L225.0 77.5 L224.9 78.0 L224.6 78.1 L224.2 78.4 L223.9 78.7 L223.8 78.9 L223.7 79.0 L223.7 79.0 L223.7 79.0 L223.7 79.0 L223.1 79.0 L222.9 79.1 L222.8 79.2 L222.6 79.7 L222.5 79.8 L222.1 80.1 L222.0 80.3 L221.8 80.6 L221.6 80.9 L221.3 81.4 L221.2 81.8 L221.1 82.1 L221.1 82.4 L221.4 83.7 L221.4 84.0 L221.3 84.3 L221.2 84.7 L221.0 85.1 L220.7 85.3 L220.3 85.4 L220.1 85.4 L220.0 85.4 L220.0 85.5 L219.9 85.5 L219.9 85.6 L219.9 85.8 L219.8 85.9 L219.6 86.0 L219.5 86.1 L219.3 86.2 L219.1 86.2 L219.0 86.3 L218.9 86.6 L218.9 86.7 L219.0 86.9 L219.1 87.0 L219.1 87.1 L218.9 87.3 L218.9 87.4 L218.9 87.5 L219.0 87.5 L219.1 87.6 L219.2 87.7 L219.2 87.9 L219.2 88.5 L219.3 88.6 L219.6 88.8 L219.7 88.8 L219.9 88.8 L220.1 88.9 L220.2 89.1 L220.3 89.3 L220.2 89.3 L220.1 89.4 L220.0 89.5 L220.0 89.7 L220.0 89.8 L220.2 89.9 L220.4 89.9 L220.5 89.9 L220.5 90.0 L220.6 90.2 L220.7 90.4 L220.8 90.5 L220.8 90.6 L220.8 90.8 L221.0 90.8 L221.1 90.9 L221.2 91.0 L221.3 91.1 L221.3 91.3 L221.4 91.4 L221.5 91.5 L221.7 91.5 L221.8 91.5 L222.0 91.6 L222.0 91.8 L222.1 92.2 L222.1 92.3 L222.1 92.4 L222.0 92.4 L221.9 92.6 L221.9 92.8 L221.9 93.3 L221.9 93.5 L222.1 93.6 L222.0 93.6 L221.9 93.8 L221.8 93.9 L221.8 94.1 L222.0 96.2 L221.9 96.9 L221.9 97.2 L221.8 97.8 L221.9 98.8 L221.9 99.0 L222.1 99.2 L222.4 99.6 L222.9 100.4 L223.1 101.2 L223.2 101.4 L223.4 103.4 L223.5 103.5 L223.5 103.8 L223.4 104.5 L222.9 105.9 L222.7 106.6 L222.8 107.3 L222.9 107.9 L222.9 108.0 L223.2 108.7 L223.9 109.8 L224.2 111.2 L225.0 113.1 L225.2 113.8 L225.1 114.4 L224.8 114.9 L224.2 115.7 L224.0 116.2 L224.1 116.6 L224.3 117.5 L224.4 118.5 L224.5 118.8 L224.8 119.2 L225.3 119.9 L225.8 121.0 L225.9 121.4 L226.2 121.6 L227.3 122.5 L228.1 122.9 L228.5 123.1 L229.1 123.6 L230.3 125.0 L230.8 125.7 L231.4 127.1 L231.7 128.1 L231.8 128.7 L232.0 129.4 L233.8 132.2 L234.4 133.7 L234.6 134.4 L233.2 134.6 L231.1 134.9 L229.4 135.2 L227.2 135.5 L225.0 135.9 L224.9 135.9 L223.1 136.1 L221.8 136.3 L220.4 136.6 L219.4 136.7 L219.2 136.8 L219.2 136.9 L219.6 137.7 L219.5 138.4 L219.2 139.1 L218.1 140.5 L216.8 141.9 L216.0 142.4 L215.2 142.8 L214.9 143.0 L214.7 143.3 L214.9 143.6 L215.2 143.8 L215.6 143.8 L215.9 144.0 L216.1 144.2 L216.1 144.4 L216.1 144.5 L216.1 144.6 L216.1 144.8 L216.2 144.9 L216.4 145.0 L216.5 145.1 L216.5 145.2 L216.5 145.3 L216.5 145.4 L216.6 145.5 L216.7 145.6 L216.9 145.6 L216.9 145.6 L216.7 145.7 L216.6 145.7 L216.7 145.8 L216.8 146.0 L216.9 146.1 L216.9 146.2 L217.0 146.4 L217.0 146.4 L217.0 146.8 L217.0 147.0 L217.1 147.2 L217.2 147.2 L217.3 147.2 L217.4 147.3 L217.4 147.4 L217.6 147.6 L217.6 147.7 L217.4 147.7 L217.3 147.9 L217.3 148.2 L217.0 148.8 L217.0 148.9 L217.0 149.5 L217.0 150.2 L216.9 150.5 L216.8 150.8 L216.6 151.0 L216.5 151.2 L216.8 151.4 L216.8 151.4 L216.8 151.5 L216.9 151.6 L216.9 151.6 L217.0 151.6 L217.0 151.6 L217.0 151.8 L217.0 151.9 L216.9 152.1 L216.9 152.2 L216.9 152.4 L217.0 152.6 L217.1 152.7 L217.1 152.9 L217.2 153.0 L217.1 153.1 L217.1 153.2 L217.1 153.3 L217.0 153.3 L217.1 153.5 L217.1 153.5 L217.1 153.7 L217.2 153.8 L217.4 154.0 L217.4 154.1 L217.3 154.3 L217.3 154.4 L217.4 154.5 L217.6 154.6 L217.6 154.7 L217.6 154.8 L217.5 155.0 L217.3 155.1 L217.2 155.2 L217.2 155.2 L217.1 155.2 L217.0 155.2 L217.0 155.3 L216.8 155.5 L216.8 155.7 L216.7 155.8 L216.6 155.9 L216.5 156.1 L216.4 156.3 L216.4 156.5 L216.4 156.8 L216.3 156.9 L216.3 157.1 L216.2 157.2 L216.2 157.3 L216.1 157.4 L216.0 157.5 L216.0 157.6 L216.0 157.7 L216.0 157.8 L216.0 157.9 L215.9 158.1 L215.8 158.3 L215.8 158.4 L215.8 158.8 L215.8 158.9 L215.8 159.0 L215.8 159.1 L215.7 159.1 L215.7 159.2 L215.7 159.5 L215.6 159.8 L215.5 159.9 L215.4 160.0 L215.4 160.2 L215.4 160.5 L215.4 160.5 L215.2 160.7 L215.2 160.7 L214.8 161.3 L214.7 161.5 L214.8 161.9 L214.8 162.1 L214.8 162.1 L214.9 162.4 L215.0 162.5 L215.1 162.6 L215.2 162.7 L215.3 163.1 L215.3 163.2 L215.3 163.3 L215.3 163.3 L215.4 163.4 L215.5 163.5 L215.6 164.1 L215.6 164.2 L215.8 164.2 L215.9 164.3 L215.9 164.7 L216.0 164.9 L216.1 164.8 L216.2 164.8 L216.3 164.9 L216.4 164.9 L216.4 165.0 L216.5 165.1 L216.5 165.2 L216.7 165.1 L216.8 165.2 L217.0 165.5 L217.1 165.6 L217.5 165.8 L217.7 165.8 L218.0 165.8 L218.0 165.9 L218.1 166.1 L218.1 166.2 L218.2 166.3 L218.5 166.5 L218.6 166.5 L218.7 166.7 L218.8 166.8 L218.9 167.0 L218.9 167.1 L219.4 167.4 L219.6 167.6 L220.3 168.8 L220.3 168.9 L220.3 169.0 L220.4 169.1 L220.4 169.1 L220.5 169.1 L220.6 169.1 L220.8 169.0 L220.9 169.0 L221.0 169.2 L221.2 169.1 L221.3 169.0 L221.5 169.0 L222.2 169.0 L222.3 169.0 L222.4 169.2 L222.5 169.2 L222.6 169.3 L222.7 169.3 L223.0 169.3 L223.1 169.3 L223.5 169.5 L223.7 169.6 L223.7 169.6 L223.8 169.6 L223.9 169.6 L223.9 169.6 L224.0 169.6 L224.0 169.7 L224.1 169.7 L224.2 169.7 L224.4 169.6 L224.4 169.5 L224.5 169.3 L224.4 169.2 L224.3 169.1 L224.2 169.1 L224.1 169.1 L223.8 168.8 L223.8 168.7 L223.8 168.6 L223.8 168.6 L223.9 168.4 L224.0 168.0 L224.0 167.9 L224.1 167.8 L224.5 167.7 L224.7 167.6 L224.8 167.5 L224.9 167.5 L225.0 167.5 L225.1 167.5 L225.2 167.7 L225.3 167.7 L225.5 167.7 L225.9 167.5 L226.2 167.3 L226.4 167.2 L226.7 167.2 L226.7 167.2 L226.7 167.2 L226.7 167.2 L226.7 168.1 L226.7 169.1 L226.7 170.5 L226.7 171.7 L226.7 173.2 L226.7 174.4 L226.7 175.6 L226.7 176.8 L226.7 177.7 L226.6 178.0 L226.4 178.0 L225.9 178.0 L225.6 177.9 L225.4 177.8 L225.3 177.8 L225.2 177.7 L225.1 177.6 L225.1 177.5 L225.1 177.4 L225.1 177.3 L225.1 177.3 L225.2 177.2 L225.3 177.2 L225.3 177.1 L225.3 177.0 L225.3 176.9 L225.3 176.8 L225.5 176.8 L225.5 176.8 L225.6 176.7 L225.6 176.6 L225.6 176.5 L225.6 176.4 L225.5 176.4 L225.5 176.4 L225.4 176.4 L225.3 176.4 L225.1 176.3 L225.0 176.2 L224.8 176.1 L224.7 176.1 L224.5 176.1 L224.0 176.6 L223.8 176.7 L222.6 177.1 L222.2 177.4 L222.0 177.5 L221.9 177.6 L221.7 177.8 L221.6 177.8 L221.5 177.8 L221.4 177.7 L221.4 177.6 L221.3 177.5 L221.1 177.4 L220.9 177.4 L220.7 177.4 L220.6 177.4 L220.5 177.4 L220.3 177.5 L220.2 177.5 L220.0 177.5 L219.9 177.4 L219.7 177.1 L219.5 176.8 L219.3 175.5 L219.2 175.4 L219.1 175.4 L219.0 175.4 L218.9 175.3 L218.8 175.1 L218.8 175.0 L218.7 175.0 L218.7 175.0 L218.6 175.0 L218.6 174.9 L218.6 174.8 L218.6 174.8 L218.6 174.8 L218.7 174.7 L218.7 174.6 L218.7 174.6 L218.5 174.6 L218.5 174.5 L218.4 174.2 L218.4 174.1 L218.2 174.0 L217.7 173.3 L217.3 173.0 L217.0 172.9 L216.8 172.9 L216.7 173.2 L216.6 173.3 L216.5 173.3 L216.4 173.3 L216.3 173.3 L216.3 172.8 L216.1 172.6 L216.0 172.5 L215.8 172.2 L215.7 172.0 L215.8 171.9 L215.9 171.8 L216.0 171.7 L216.0 171.5 L216.0 171.3 L215.7 171.0 L215.6 170.8 L215.4 170.4 L215.3 170.2 L214.6 169.7 L214.5 169.6 L214.3 169.5 L214.2 169.5 L214.0 169.5 L213.8 169.5 L213.6 169.4 L213.5 169.3 L213.3 169.3 L213.1 169.3 L213.0 169.4 L212.9 169.5 L212.7 169.3 L212.7 169.2 L212.6 169.2 L212.6 169.1 L212.5 169.0 L211.9 169.0 L211.8 169.0 L211.6 169.0 L211.5 169.0 L211.4 168.8 L211.4 168.6 L211.3 168.4 L210.8 168.2 L210.6 168.1 L210.4 168.1 L210.3 168.1 L210.2 168.3 L210.1 168.4 L209.8 168.4 L209.4 168.5 L209.0 168.4 L208.8 168.4 L208.5 168.0 L208.4 167.9 L208.0 167.6 L207.8 167.4 L207.4 166.3 L207.4 165.9 L207.0 165.3 L205.5 164.3 L205.3 163.6 L205.3 163.3 L205.2 162.9 L205.2 162.6 L205.0 162.4 L205.0 162.4 L204.7 162.5 L204.4 162.5 L204.1 162.6 L204.0 162.6 L203.8 162.6 L203.7 162.6 L203.6 162.7 L203.6 162.8 L203.7 163.2 L203.7 163.4 L203.6 163.5 L203.5 163.7 L203.4 163.8 L203.3 164.2 L203.3 164.8 L203.1 165.2 L202.8 165.4 L202.5 165.6 L202.1 165.7 L201.7 165.7 L201.5 165.7 L201.4 165.8 L201.3 165.9 L201.2 166.0 L201.0 166.1 L200.9 166.0 L200.7 165.9 L200.6 165.8 L200.3 165.7 L199.6 165.7 L199.3 165.6 L199.1 165.5 L199.0 165.4 L198.9 165.3 L198.7 165.2 L198.4 165.2 L198.0 165.2 L198.0 165.3 L197.8 165.4 L197.7 165.4 L197.6 165.4 L197.4 165.3 L197.1 165.4 L197.0 165.3 L196.8 165.2 L196.6 165.1 L195.2 165.1 L195.1 165.1 L194.9 165.1 L194.8 164.8 L194.7 164.7 L194.5 164.6 L194.1 164.3 L194.0 164.2 L194.0 164.2 L193.9 164.2 L193.9 164.2 L193.7 164.3 L193.6 164.3 L193.1 164.3 L193.0 164.3 L192.7 164.1 L192.4 163.9 L192.1 163.7 L191.7 163.7 L191.7 163.7 L191.6 163.8 L191.6 163.9 L191.5 163.9 L191.4 163.9 L191.4 164.0 L191.3 164.0 L191.2 164.1 L191.1 164.1 L190.9 164.0 L190.9 163.9 L191.0 163.7 L191.0 163.6 L191.0 163.6 L190.9 163.6 L190.8 163.4 L190.3 163.2 L190.3 163.1 L190.2 163.1 L190.2 163.0 L190.0 163.0 L189.9 163.0 L189.9 163.0 L189.8 163.0 L189.7 162.9 L189.7 162.7 L189.4 162.1 L189.4 161.9 L189.4 161.8 L189.5 161.8 L189.6 161.6 L189.6 161.6 L189.5 161.4 L189.3 161.1 L189.3 160.9 L189.3 160.7 L189.3 160.6 L189.4 160.5 L189.5 160.4 L189.5 160.3 L189.4 160.3 L189.3 160.2 L189.4 160.1 L189.6 160.0 L189.6 160.0 L189.7 159.9 L189.6 159.7 L189.6 159.5 L189.6 159.3 L189.5 159.3 L189.3 159.3 L188.5 159.7 L188.0 159.8 L186.8 159.9 L186.5 159.9 L186.1 160.0 L185.5 160.3 L185.2 160.3 L184.6 160.3 L184.3 160.5 L184.2 160.6 L184.0 160.8 L183.9 160.8 L183.8 160.9 L183.7 160.9 L183.6 160.9 L183.5 161.0 L183.5 161.1 L183.4 161.2 L183.4 161.3 L183.4 161.3 L183.3 161.3 L183.2 161.3 L183.1 161.3 L182.7 161.5 L182.6 161.5 L182.4 161.5 L182.2 161.4 L181.9 161.1 L181.7 161.0 L181.6 161.0 L181.2 161.0 L181.1 160.9 L181.0 160.8 L181.1 160.7 L181.5 160.6 L181.6 160.5 L181.9 160.1 L181.9 159.9 L182.0 159.8 L182.0 159.6 L182.0 159.4 L181.9 159.3 L181.9 159.2 L181.7 159.1 L181.7 159.0 L181.7 158.9 L181.7 158.8 L181.8 158.7 L181.8 158.6 L181.7 158.5 L181.5 158.3 L181.3 158.1 L181.1 158.1 L181.0 158.0 L180.6 158.0 L180.5 158.0 L180.2 157.9 L180.0 157.9 L179.9 158.0 L179.7 158.0 L179.6 157.9 L179.7 157.6 L179.6 157.5 L179.6 157.4 L179.6 157.3 L179.6 157.2 L179.6 157.0 L179.6 157.0 L179.4 156.8 L179.1 156.7 L178.7 156.6 L178.4 156.6 L178.2 156.7 L178.2 156.8 L178.1 157.0 L178.1 157.2 L178.0 157.3 L177.8 157.4 L177.7 157.4 L177.7 157.5 L177.6 157.7 L177.6 157.8 L177.3 157.9 L177.0 157.8 L176.6 157.7 L176.3 157.7 L176.0 157.7 L175.7 157.7 L175.0 157.5 L174.5 157.3 L174.2 157.3 L173.8 157.3 L173.5 157.4 L172.9 157.7 L172.0 158.2 L171.3 158.3 L170.5 158.5 L170.1 158.5 L169.8 158.4 L169.7 158.4 L169.3 158.2 L169.2 158.1 L169.0 158.1 L168.8 158.2 L168.6 158.3 L168.4 158.4 L168.1 158.4 L167.8 158.4 L167.5 158.3 L167.2 158.2 L166.6 157.9 L166.3 158.0 L166.0 158.7 L165.8 158.9 L164.9 159.1 L164.8 159.2 L164.4 159.6 L164.3 159.7 L164.1 159.7 L164.2 159.4 L164.2 159.0 L164.1 158.3 L164.1 158.1 L163.9 157.9 L163.9 157.7 L163.9 157.7 L163.8 157.6 L163.7 157.6 L163.7 157.3 L163.6 156.7 L163.5 156.6 L163.5 156.4 L163.6 156.2 L163.8 156.1 L164.0 156.0 L164.3 155.8 L164.5 155.8 L164.7 155.7 L164.8 155.7 L164.8 155.5 L164.8 155.2 L164.8 155.2 L164.8 155.1 L164.7 154.9 L164.7 154.6 L164.7 154.4 L164.7 154.3 L164.6 153.9 L164.6 153.7 L164.5 153.6 L164.4 153.5 L164.4 153.3 L164.4 153.2 L164.6 152.9 L164.6 152.7 L164.7 152.7 L164.7 152.5 L164.7 152.4 L164.7 152.3 L164.6 152.2 L164.5 151.9 L164.3 151.6 L164.1 151.2 L163.9 150.8 L163.8 150.4 L163.8 150.2 L163.8 150.1 L163.7 149.7 L163.6 149.3 L163.5 149.0 L163.4 148.8 L163.3 148.7 L163.0 148.5 L162.9 148.3 L162.8 148.3 L162.7 148.4 L162.7 148.4 L162.6 148.3 L162.1 147.8 L162.0 147.5 L162.0 147.3 L161.9 147.3 L161.8 147.4 L161.7 147.4 L161.6 147.1 L161.1 146.5 L160.9 146.2 L160.8 145.8 L160.7 145.1 L160.6 144.8 L160.6 144.7 L160.4 144.5 L160.4 144.4 L160.4 144.3 L160.5 144.2 L160.5 143.9 L160.8 143.4 L160.9 143.0 L160.9 142.7 L160.8 141.8 L160.9 140.9 L160.9 140.5 L160.9 139.8 L161.0 139.6 L161.1 139.3 L161.2 139.3 L161.2 138.7 L161.3 138.1 L161.4 137.9 L161.6 137.6 L161.5 137.6 L161.5 137.6 L161.5 137.6 L161.4 137.6 L161.6 136.9 L161.6 136.6 L161.6 136.2 L161.4 135.9 L161.3 135.7 L161.3 135.6 L161.4 135.5 L161.5 135.5 L161.4 135.4 L161.1 135.1 L161.1 135.0 L161.0 134.6 L161.0 134.2 L160.9 134.1 L160.9 134.0 L160.7 133.7 L160.6 133.6 L160.5 133.4 L160.5 133.2 L160.4 133.1 L160.2 133.0 L160.1 132.9 L160.1 132.8 L160.0 132.2 L160.1 132.1 L160.2 132.0 L160.2 131.9 L160.2 131.8 L160.2 131.6 L160.2 131.2 L160.3 131.1 L160.3 130.8 L160.4 130.6 L160.5 130.3 L160.6 130.0 L160.7 129.9 L160.7 129.7 L160.7 129.6 L160.8 129.5 L160.9 129.4 L160.9 129.4 L160.9 129.0 L160.9 129.0 L160.9 128.9 L160.8 128.9 L160.8 128.8 L160.9 128.7 L160.9 128.5 L161.0 128.4 L160.9 128.3 L160.9 128.3 L160.8 128.2 L160.8 128.2 L160.9 128.1 L160.9 128.1 L160.9 128.0 L160.8 127.9 L160.8 127.8 L160.7 127.7 L160.7 127.7 L160.8 127.6 L160.8 127.6 L160.8 127.5 L160.7 127.4 L160.5 127.0 L160.5 127.0 L160.4 126.9 L160.4 126.9 L160.3 126.9 L160.3 126.9 L160.2 126.8 L159.9 126.8 L159.3 126.9 L158.7 126.9 L158.1 126.9 L157.5 126.9 L156.9 126.9 L156.3 126.9 L155.7 126.9 L155.1 126.9 L154.5 126.9 L153.9 126.9 L153.3 126.9 L152.6 126.9 L152.0 126.9 L151.4 126.9 L150.8 126.9 L150.2 126.9 L149.9 126.9 L149.8 126.5 L149.8 126.1 L149.9 125.7 L150.1 125.2 L150.2 124.9 L150.4 124.3 L150.6 123.8 L150.1 123.8 L149.4 123.8 L148.7 123.8 L148.3 123.8 L148.2 123.8 L148.1 123.9 L148.1 124.0 L148.0 124.1 L148.0 124.4 L148.0 124.5 L147.6 124.5 L147.2 124.5 L146.9 124.5 L146.5 124.5 L146.2 124.5 L145.8 124.5 L145.5 124.5 L145.2 124.5 L145.1 124.5 L144.8 124.5 L144.4 124.5 L144.1 124.5 L143.8 124.5 L143.4 124.5 L143.1 124.5 L142.7 124.5 L142.4 124.5 L142.0 124.5 L141.6 124.5 L141.7 124.8 L141.8 124.9 L141.7 125.1 L141.5 125.4 L141.4 125.5 L141.3 125.8 L141.2 127.1 L141.2 127.4 L141.3 127.7 L141.5 128.2 L141.5 128.5 L141.3 128.7 L141.3 128.7 L141.3 128.7 L141.3 128.7 L141.1 128.8 L141.1 129.1 L140.9 129.3 L140.8 129.3 L140.2 129.3 L140.2 129.5 L140.3 129.7 L140.4 129.9 L140.4 130.1 L140.4 130.3 L140.4 130.6 L140.2 131.1 L140.1 131.3 L140.0 131.7 L140.0 131.9 L140.0 132.2 L140.2 132.8 L140.0 132.8 L138.9 132.8 L137.9 132.8 L136.8 132.8 L135.8 132.8 L135.4 132.8 L135.3 132.6 L135.2 132.5 L135.2 132.3 L135.1 132.2 L134.5 132.2 L133.9 132.2 L133.3 132.2 L133.2 132.3 L133.1 132.5 L133.2 132.8 L133.0 132.8 L133.0 132.8 L132.5 132.8 L132.3 132.8 L132.1 132.9 L132.0 132.9 L131.9 132.9 L131.6 132.8 L131.2 132.8 L130.6 132.8 L130.4 132.8 L130.1 132.9 L130.0 133.0 L129.8 133.1 L129.7 133.3 L129.7 133.5 L129.8 133.7 L129.0 133.7 L128.8 133.7 L128.4 133.3 L128.2 133.2 L127.9 133.2 L127.7 133.2 L127.2 133.5 L127.1 133.5 L126.8 133.4 L126.6 133.4 L125.9 133.6 L125.7 133.6 L125.2 133.5 L125.1 133.4 L125.1 133.4 L125.1 133.3 L125.2 133.1 L125.1 132.9 L125.1 132.9 L124.9 132.8 L124.8 132.7 L124.8 132.6 L124.7 132.3 L124.6 132.4 L124.6 132.4 L124.6 132.5 L124.5 132.4 L124.5 132.4 L124.5 132.3 L124.6 132.3 L124.4 132.2 L124.3 132.1 L124.3 132.1 L124.3 132.0 L124.4 131.9 L124.4 131.8 L124.3 131.7 L124.2 131.8 L124.2 131.7 L124.2 131.6 L124.2 131.5 L124.1 131.5 L124.0 131.5 L123.9 131.5 L124.0 131.4 L124.0 131.3 L123.8 131.3 L123.8 131.2 L123.8 131.1 L123.8 131.1 L123.7 131.0 L123.5 131.0 L123.5 131.0 L123.5 130.9 L123.3 130.7 L123.3 130.6 L123.3 130.6 L123.3 130.5 L123.3 130.4 L123.2 130.4 L123.2 130.3 L123.2 130.3 L123.2 130.3 L123.2 130.2 L123.1 130.3 L123.1 130.2 L123.1 130.0 L123.0 129.8 L123.1 129.7 L122.9 129.6 L122.5 129.4 L122.4 129.2 L122.2 128.8 L122.1 128.6 L122.0 128.5 L122.0 128.5 L121.9 128.4 L121.9 128.3 L121.9 128.2 L122.0 128.2 L122.1 128.2 L122.2 128.1 L122.2 128.1 L122.1 128.0 L121.9 128.0 L121.8 127.9 L121.8 127.9 L121.7 127.9 L121.7 128.0 L121.6 128.0 L121.5 127.8 L121.5 127.6 L121.5 127.5 L121.5 127.4 L121.4 127.3 L121.2 127.2 L120.9 127.0 L120.7 127.0 L120.6 126.9 L120.6 126.7 L120.6 126.6 L120.5 126.4 L120.4 126.3 L120.3 126.3 L120.2 126.2 L120.3 125.8 L120.1 125.2 L120.1 125.0 L120.4 125.1 L120.4 124.9 L120.4 124.8 L120.5 124.6 L120.4 124.5 L120.4 124.4 L120.3 124.4 L120.3 124.3 L120.2 124.3 L120.1 124.2 L120.1 124.2 L120.1 124.1 L120.2 124.1 L120.1 123.6 L120.0 123.4 L119.8 123.2 L119.7 123.2 L119.5 123.2 L119.4 123.2 L119.3 123.1 L119.3 123.0 L119.3 122.8 L119.2 122.7 L118.8 122.1 L118.7 122.0 L118.7 121.8 L118.6 121.5 L118.6 121.4 L118.5 121.1 L118.5 120.9 L118.5 120.8 L118.6 120.6 L118.6 120.5 L118.5 120.5 L118.4 120.4 L118.4 120.3 L118.4 120.2 L118.4 120.1 L118.3 120.1 L118.3 120.0 L118.3 119.9 L118.4 119.8 L118.4 119.7 L118.3 119.7 L118.3 119.7 L118.2 119.6 L118.2 119.6 L118.1 119.5 L118.2 119.2 L118.2 119.1 L118.3 119.1 L118.3 119.1 L118.4 119.1 L118.4 119.0 L118.4 118.9 L118.3 118.8 L118.3 118.7 L118.3 118.1 L118.4 118.0 L118.4 117.9 L118.4 117.8 L118.4 117.7 L118.2 117.5 L118.2 117.4 L118.1 117.3 L118.0 117.3 L117.9 117.2 L117.7 117.1 L117.6 117.0 L117.5 117.0 L117.6 116.8 L117.6 116.7 L117.5 116.7 L117.5 116.7 L117.4 116.7 L117.4 116.6 L117.4 116.1 L117.3 116.0 L117.3 116.0 L117.2 115.9 L117.2 115.8 L117.3 115.7 L117.4 115.6 L117.1 115.4 L117.0 115.4 L116.7 115.3 L116.5 115.3 L116.4 115.2 L116.2 115.3 L116.0 115.3 L115.8 115.4 L115.7 115.3 L115.5 115.3 L115.4 115.1 L115.2 115.1 L115.0 115.0 L114.5 115.0 L113.8 115.0 L113.2 115.0 L113.0 115.1 L112.3 115.1 L111.5 115.1 L110.8 115.1 L110.0 115.1 L109.2 115.1 L108.5 115.1 L107.7 115.1 L107.0 115.2 L106.2 115.2 L105.5 115.2 L104.7 115.2 L104.0 115.2 L103.2 115.2 L102.4 115.2 L102.1 115.2 L101.7 115.2 L100.6 115.4 L100.4 115.4 L99.8 115.3 L99.5 115.3 L98.7 115.3 L97.8 115.3 L97.7 115.3 L97.2 115.1 L97.0 115.1 L96.0 115.2 L95.9 115.1 L95.7 115.0 L95.4 114.9 L94.2 115.0 L92.9 115.1 L92.2 115.0 L92.1 115.1 L92.0 115.1 L91.9 115.1 L91.6 115.0 L91.0 115.0 L90.7 115.0 L90.7 115.1 L90.5 115.2 L90.4 115.3 L90.1 115.2 L89.8 115.1 L89.1 115.0 L89.1 115.0 L89.1 115.0 L89.0 115.0 L88.8 115.0 L88.6 115.1 L88.5 115.1 L88.3 115.1 L88.1 115.1 L87.9 115.0 L87.5 114.9 L87.4 114.8 L87.1 114.7 L86.9 114.7 L86.7 114.7 L86.4 114.7 L86.1 114.8 L85.9 114.9 L85.8 115.0 L85.6 115.1 L85.5 115.2 L85.4 115.4 L85.2 115.7 L85.3 116.1 L84.8 116.2 L84.3 116.2 L83.9 116.4 L83.2 116.6 L83.0 116.7 L82.9 116.6 L82.9 116.5 L82.9 116.4 L83.1 116.3 L83.1 116.1 L83.1 116.1 L83.0 116.0 L82.8 116.0 L82.7 116.0 L82.7 116.1 L82.6 116.1 L82.6 116.3 L82.5 116.1 L82.4 115.9 L82.4 115.9 L82.4 115.8 L82.3 115.8 L82.2 115.8 L82.0 115.5 L81.5 115.0 L81.3 114.8 L81.0 114.3 L81.4 114.0 L82.1 113.9 L82.9 113.9 L83.5 114.0 L83.5 113.2 L83.5 112.7 L83.6 111.6 L83.6 110.6 L83.6 109.9 L83.7 109.3 L83.6 109.0 L83.5 108.9 L83.0 108.8 L83.0 108.7 L82.9 108.6 L82.9 108.5 L82.9 108.5 L83.0 108.4 L83.0 108.4 L83.1 108.4 L83.1 108.4 L83.8 108.1 L84.1 107.9 L84.3 107.6 L84.3 107.5 L84.4 107.4 L84.7 107.4 L84.9 107.3 L85.0 107.2 L85.0 107.1 L85.1 106.9 L85.2 106.8 L85.5 106.6 L85.6 106.5 L85.6 106.3 L85.7 106.1 L85.8 105.9 L85.9 105.8 L86.2 105.6 L87.8 105.3 L88.1 105.2 L88.2 104.9 L88.2 104.6 L88.3 104.5 L88.5 104.4 L88.7 104.6 L88.7 104.8 L88.9 105.0 L89.0 105.3 L89.1 105.3 L89.3 105.5 L89.7 105.8 L89.8 105.9 L90.3 106.1 L90.5 106.2 L90.5 106.2 L90.6 106.3 L90.6 106.6 L90.8 107.0 L90.9 106.9 L91.1 106.6 L91.6 106.3 L91.6 106.3 L91.7 106.2 L91.6 106.1 L91.6 106.1 L91.8 105.9 L91.9 105.9 L92.0 106.0 L92.2 106.1 L92.3 106.2 L92.4 106.1 L92.5 106.1 L92.6 105.8 L92.8 105.7 L92.9 105.7 L93.1 105.7 L93.2 105.7 L93.2 105.7 L93.2 105.5 L93.2 105.4 L93.3 105.4 L93.3 105.4 L93.4 105.4 L93.5 105.3 L93.4 105.0 L93.4 104.8 L93.5 104.5 L93.5 104.3 L93.5 103.5 L93.5 103.4 L93.6 103.4 L94.1 103.2 L94.3 103.2 L94.5 103.3 L94.5 103.4 L94.7 103.6 L94.7 103.7 L94.8 103.7 L95.1 103.7 L95.1 103.7 L95.3 103.8 L95.4 103.8 L95.5 103.7 L95.6 103.6 L95.7 103.5 L95.8 103.4 L95.8 103.4 L96.0 103.1 L96.3 103.0 L97.1 102.9 L97.4 102.8 L97.7 102.6 L98.0 102.4 L98.2 102.2 L98.5 102.2 L98.9 102.0 L99.0 102.0 L99.1 102.0 L99.1 102.1 L99.1 102.1 L99.1 102.2 L99.1 102.4 L99.0 102.4 L99.0 102.5 L99.1 102.6 L99.2 102.8 L99.4 103.0 L99.7 103.2 L99.7 103.2 L99.7 103.4 L99.6 103.5 L99.5 103.7 L99.4 103.8 L99.3 103.9 L98.9 104.0 L98.8 104.2 L98.7 104.3 L98.7 104.4 L98.8 104.5 L98.9 104.9 L99.0 105.0 L99.1 105.1 L99.2 105.3 L99.2 105.5 L99.2 105.5 L99.2 105.7 L99.1 105.8 L99.2 105.9 L99.2 105.9 L99.2 106.0 L99.3 106.1 L99.1 106.7 L99.2 107.0 L99.3 107.0 L99.5 106.9 L99.6 106.9 L99.7 106.7 L99.8 106.7 L100.0 106.6 L100.1 106.6 L100.2 106.7 L100.3 106.7 L100.4 106.7 L100.5 106.7 L100.5 106.8 L100.6 106.9 L100.6 106.9 L100.7 106.9 L101.0 107.1 L101.1 107.1 L101.4 107.1 L101.7 107.0 L102.2 106.7 L102.6 106.5 L102.7 106.4 L102.8 106.3 L102.9 106.1 L103.6 105.0 L104.2 104.4 L104.2 104.3 L104.3 104.2 L104.8 104.0 L104.9 103.8 L105.4 103.2 L105.7 102.7 L105.7 102.6 L105.8 102.5 L106.0 102.3 L106.2 102.2 L106.4 102.1 L107.3 101.7 L107.7 101.6 L107.9 101.5 L107.9 101.4 L108.0 101.4 L108.1 101.2 L108.2 101.1 L108.4 100.3 L108.5 100.1 L108.7 100.0 L108.8 100.0 L110.0 99.6 L110.4 99.5 L110.8 99.5 L111.1 99.4 L111.4 99.2 L111.5 99.2 L111.7 99.0 L111.8 98.5 L111.9 98.4 L111.9 98.3 L112.2 97.9 L112.3 97.5 L112.5 97.4 L112.5 97.2 L112.9 96.5 L113.4 95.9 L113.6 95.5 L113.7 95.1 L114.1 94.4 L114.2 94.1 L114.3 94.0 L114.3 93.8 L114.2 93.7 L114.2 93.6 L114.1 93.5 L114.0 93.3 L114.1 93.0 L114.1 92.8 L114.0 92.6 L113.9 92.5 L114.0 92.1 L113.9 91.6 L114.0 91.2 L113.9 90.9 L113.9 90.4 L113.9 90.3 L113.9 90.2 L114.1 89.6 L114.3 88.4 L114.0 86.4 L114.0 86.0 L114.0 85.9 L114.0 85.8 L113.9 85.7 L113.9 85.6 L113.9 85.5 L114.0 85.1 L114.0 85.0 L114.0 85.0 L114.0 84.8 L114.0 84.6 L114.1 84.4 L114.3 84.2 L114.5 84.0 L114.8 83.8 L115.2 83.4 L115.6 83.1 L116.1 82.6 L116.2 82.4 L116.3 82.4 L116.3 82.3 L116.5 82.3 L116.6 82.2 L116.7 82.2 L116.7 82.0 L116.7 81.9 L116.8 81.9 L117.4 81.1 L117.5 80.8 L117.6 80.6 L117.6 80.3 L117.6 80.2 L117.6 80.1 L117.7 79.9 L117.8 79.7 L118.0 79.5 L118.1 79.1 L118.4 78.8 L118.7 78.2 L118.9 78.0 L119.0 77.7 L119.2 77.3 L119.3 77.1 L119.3 77.0 L119.4 77.0 L119.6 76.9 L119.9 76.6 L120.2 76.3 L120.5 76.0 L120.7 75.7 L120.7 75.7 L120.8 75.7 L120.9 75.6 L120.9 75.6 L121.2 75.5 L121.6 75.4 L122.1 75.2 L122.3 75.2 L122.7 75.1 L123.2 75.0 L123.2 74.9 L123.4 74.7 L123.4 74.7 L123.7 74.6 L123.7 74.5 L123.9 74.3 L124.1 74.1 L125.2 72.8 L125.7 72.2 L125.9 72.1 L126.0 72.0 L126.1 71.9 L126.1 71.9 L126.1 71.8 L126.1 71.7 L126.1 71.7 L126.2 71.6 L126.7 71.1 L126.8 70.9 L126.9 70.9 L126.8 69.4 L126.6 68.6 L126.6 68.4 L126.6 68.1 L127.0 66.6 L127.1 66.3 L127.8 64.5 L128.5 63.5 L128.5 63.4 L128.6 62.6 L128.6 62.5 L128.5 62.3 L128.4 62.2 L128.3 62.1 L128.1 61.7 L128.1 61.5 L128.1 61.3 L128.2 60.6 L128.2 60.4 L128.0 59.3 L128.0 58.7 L127.9 58.1 L127.9 57.9 L128.1 57.6 L128.3 57.4 L128.6 56.8 L128.7 56.7 L128.7 56.1 L129.0 55.2 L129.0 54.9 L129.1 54.7 L129.6 53.7 L129.6 53.5 L129.5 51.1 L129.5 51.0 L129.6 50.7 L129.7 50.6 L129.7 50.4 L129.6 50.1 L129.6 49.3 L129.6 49.0 L129.6 48.8 L129.6 48.6 L129.9 47.8 L130.0 47.7 L130.2 47.4 L130.2 47.3 L130.3 47.3 L130.4 47.2 L130.5 46.9 L130.6 46.7 L130.7 46.6 L130.7 46.4 L130.8 45.9 L130.9 45.8 L131.0 45.7 L131.5 45.2 L131.6 45.2 L131.6 45.1 L132.2 44.0 L132.4 43.5 L132.5 43.3 L132.5 43.1 L132.7 42.7 L132.8 42.5 L132.9 42.4 L132.9 42.2 L132.9 42.2 L133.1 42.0 L133.4 41.1 L133.5 41.0 L133.6 40.9 L133.9 40.7 L134.1 40.6 L134.1 40.5 L134.1 40.4 L134.2 40.2 L134.3 39.0 L134.2 38.0 L134.2 37.7 Z" fill="#172033" fill-rule="evenodd"/></svg>
