<svg xmlns="http://www.w3.org/2000/svg" viewBox="0 0 320 200" role="img"><path d="M194.7 23.5 L194.7 23.9 L197.2 27.6 L199.1 28.9 L202.3 32.0 L205.3 36.7 L208.2 41.5 L208.6 42.3 L209.1 45.3 L209.0 46.0 L208.8 46.5 L208.1 47.5 L207.9 48.1 L207.9 48.2 L208.1 48.7 L208.1 48.9 L208.1 49.5 L208.2 49.6 L208.3 49.9 L208.4 49.9 L208.5 49.9 L208.6 50.0 L208.6 50.2 L208.2 51.6 L208.2 51.9 L208.4 52.4 L208.4 52.7 L208.2 52.9 L208.0 53.1 L207.3 53.9 L206.9 54.3 L206.7 54.4 L206.4 54.5 L205.8 54.5 L205.6 54.6 L205.4 54.9 L205.3 55.0 L204.9 57.3 L204.9 57.7 L205.2 58.1 L205.6 58.3 L206.1 58.3 L206.8 57.7 L207.1 57.7 L207.2 58.1 L207.2 58.7 L207.0 59.7 L206.7 60.2 L205.9 61.0 L205.7 61.5 L205.7 61.9 L205.8 62.4 L206.1 62.8 L206.5 62.9 L206.7 62.9 L207.2 62.5 L207.4 62.4 L207.7 62.3 L208.0 62.4 L208.3 62.5 L208.6 62.7 L208.8 62.8 L209.4 62.8 L210.0 62.9 L210.3 62.8 L210.8 62.6 L211.4 62.6 L212.6 62.8 L213.5 62.7 L214.2 63.0 L214.6 63.1 L215.1 63.0 L217.0 63.3 L218.0 63.1 L218.1 63.1 L218.8 63.1 L219.1 63.3 L219.1 63.5 L218.8 64.0 L218.7 64.3 L218.8 64.5 L219.3 64.9 L219.4 65.1 L219.3 65.3 L218.5 65.7 L218.4 65.9 L217.4 67.6 L217.2 68.2 L217.1 68.8 L217.3 69.3 L217.6 69.8 L218.1 70.1 L218.6 70.4 L218.9 70.5 L219.5 70.6 L219.6 70.6 L219.9 70.7 L220.2 70.7 L220.3 70.7 L220.4 70.8 L220.7 71.0 L220.8 71.0 L222.0 70.6 L222.6 70.6 L223.0 71.0 L223.1 71.1 L223.2 71.3 L223.3 71.3 L223.5 71.4 L224.1 71.7 L224.6 71.7 L225.9 71.5 L226.9 71.7 L227.2 71.7 L227.6 71.8 L228.1 72.1 L229.2 72.2 L229.7 72.5 L231.3 73.9 L231.4 74.1 L231.5 74.8 L231.8 75.2 L231.9 75.5 L232.0 75.6 L232.1 75.7 L232.2 75.8 L232.4 75.9 L233.2 76.9 L233.8 77.3 L234.3 77.5 L234.6 77.4 L235.1 77.3 L235.4 77.3 L235.8 77.4 L235.9 77.5 L236.0 77.6 L236.1 77.7 L236.6 77.8 L236.8 78.1 L237.0 78.3 L237.2 78.9 L237.4 79.4 L237.5 79.7 L237.5 79.9 L237.5 80.7 L237.5 81.0 L237.6 81.2 L237.7 81.5 L237.6 81.8 L237.2 82.1 L236.0 82.5 L235.7 82.9 L235.7 83.1 L235.7 83.4 L236.1 84.3 L237.2 84.8 L237.4 85.0 L237.5 85.1 L237.7 85.4 L237.8 85.5 L237.9 85.6 L238.2 85.7 L238.4 85.8 L238.5 86.0 L238.6 86.6 L238.7 86.8 L238.9 87.1 L239.1 87.2 L240.1 87.7 L240.8 88.3 L241.3 88.5 L241.6 88.4 L241.9 88.4 L242.2 88.6 L243.0 89.3 L243.3 89.5 L244.4 89.7 L244.7 89.9 L245.1 90.2 L245.3 90.3 L245.6 90.2 L245.8 90.3 L246.1 90.6 L246.3 90.7 L246.7 90.7 L246.8 90.8 L246.8 91.1 L247.0 91.3 L247.2 91.4 L248.0 91.5 L248.3 91.7 L248.4 91.8 L248.5 92.1 L248.5 92.3 L249.1 92.6 L249.3 92.7 L249.6 92.7 L249.8 92.8 L249.9 92.9 L249.9 93.0 L250.0 93.1 L250.2 93.2 L251.0 93.3 L251.1 93.7 L251.2 94.6 L251.3 95.0 L251.4 95.1 L251.5 95.0 L251.7 95.0 L251.8 95.0 L251.8 95.1 L251.8 95.2 L251.8 95.3 L251.8 95.4 L251.9 95.6 L251.9 95.8 L252.0 96.0 L252.1 96.2 L252.5 96.5 L252.9 96.6 L253.2 96.7 L253.7 97.4 L254.4 97.9 L254.7 98.2 L255.3 98.5 L256.4 98.9 L257.3 99.4 L257.3 99.8 L257.3 100.0 L257.1 100.2 L256.9 100.7 L256.3 101.4 L256.0 102.2 L255.8 102.3 L255.6 102.4 L255.5 102.5 L255.3 102.7 L255.7 102.8 L255.7 103.1 L255.6 103.4 L255.6 103.8 L255.7 104.1 L255.9 104.3 L256.1 104.4 L256.5 104.6 L256.8 104.9 L257.2 105.4 L257.5 105.7 L258.3 105.8 L258.6 106.0 L258.6 106.5 L258.6 106.9 L258.8 107.0 L259.1 107.0 L259.3 107.1 L259.6 107.4 L259.6 107.7 L259.4 108.0 L259.1 108.3 L258.8 108.4 L258.5 108.7 L258.2 109.0 L258.0 109.3 L258.1 109.7 L258.4 109.6 L259.1 109.1 L259.4 109.2 L259.6 109.5 L259.7 109.9 L259.9 110.2 L260.2 110.5 L261.2 110.8 L261.8 110.9 L263.1 110.8 L264.3 111.3 L264.7 111.5 L264.9 111.8 L265.0 112.6 L265.1 112.9 L265.5 113.1 L265.9 113.0 L266.2 112.9 L266.4 113.0 L266.6 113.4 L266.8 113.7 L267.2 113.7 L268.0 113.5 L268.2 113.7 L268.4 114.2 L268.7 114.5 L268.8 114.8 L269.0 114.8 L269.1 114.8 L269.5 114.7 L269.6 114.7 L270.4 115.0 L270.5 115.1 L270.7 115.4 L270.7 115.6 L270.7 115.7 L271.1 115.9 L271.4 116.0 L271.6 116.2 L271.7 116.5 L271.8 116.8 L271.8 116.9 L271.8 117.0 L271.9 117.1 L272.2 117.3 L272.2 117.4 L272.2 117.5 L272.2 117.8 L272.1 118.1 L272.1 118.2 L272.2 118.4 L272.3 118.4 L272.4 118.4 L272.4 118.4 L272.5 118.3 L272.6 118.3 L272.7 118.3 L272.9 118.4 L273.0 118.5 L272.9 118.8 L273.0 119.0 L272.2 121.0 L272.2 121.2 L272.2 121.5 L272.4 121.9 L272.5 122.8 L272.6 123.1 L273.0 124.2 L273.3 124.7 L273.7 125.2 L274.7 125.8 L275.2 126.3 L275.5 127.0 L276.0 127.3 L276.2 127.6 L275.7 127.4 L275.5 127.3 L275.3 127.2 L275.1 127.1 L274.8 127.1 L274.6 127.1 L274.4 127.0 L274.2 126.8 L273.9 126.6 L273.7 126.5 L273.4 126.4 L273.0 126.3 L272.6 126.2 L271.1 125.5 L270.4 125.2 L269.6 125.2 L268.8 125.4 L268.2 125.8 L267.6 126.1 L267.1 126.6 L266.6 127.1 L266.5 127.3 L266.4 127.7 L266.3 127.9 L266.1 128.1 L266.0 128.1 L265.6 128.1 L265.6 128.1 L265.6 128.0 L265.5 127.9 L265.3 127.9 L265.2 127.9 L265.0 128.1 L264.9 128.1 L264.8 128.0 L264.1 127.2 L263.9 127.2 L263.7 127.1 L262.8 127.1 L262.6 127.2 L262.4 127.4 L262.2 127.5 L262.0 127.4 L261.8 127.4 L261.7 127.6 L261.6 127.6 L261.5 127.4 L261.2 127.4 L260.8 127.5 L260.6 127.7 L260.5 127.6 L260.4 127.7 L260.2 127.9 L259.9 128.0 L259.8 128.0 L259.5 128.0 L259.0 127.8 L258.8 127.7 L258.7 127.6 L258.4 127.0 L258.2 126.8 L257.9 126.6 L257.6 126.4 L257.5 126.2 L257.1 126.3 L257.0 126.4 L256.8 126.2 L256.5 126.2 L256.2 126.2 L255.7 126.1 L255.4 126.0 L255.0 125.7 L254.9 125.4 L254.8 125.5 L254.6 125.5 L254.5 125.6 L254.5 125.3 L254.5 125.2 L254.3 125.3 L254.2 125.1 L254.1 124.6 L254.0 124.6 L253.8 124.8 L253.8 124.7 L253.6 124.7 L253.6 124.6 L253.3 124.7 L253.2 124.5 L253.1 124.3 L252.8 124.2 L252.7 124.4 L252.7 124.5 L252.5 124.6 L252.4 124.6 L252.3 124.5 L252.2 124.5 L252.1 124.5 L252.2 124.9 L252.2 125.1 L252.1 125.0 L251.9 125.0 L251.8 125.0 L251.7 125.2 L251.6 125.2 L251.4 125.2 L251.2 125.3 L251.0 125.4 L250.8 125.3 L250.5 124.9 L250.3 124.8 L250.0 124.8 L249.9 124.8 L249.8 125.0 L249.8 125.3 L249.5 125.2 L249.2 125.2 L249.0 125.4 L248.9 125.8 L248.6 125.5 L248.4 125.2 L248.3 124.9 L247.8 124.9 L247.8 125.0 L247.6 125.3 L247.4 125.3 L247.3 125.0 L247.2 124.9 L247.2 124.7 L247.2 124.5 L247.1 124.5 L247.0 124.5 L246.9 124.6 L246.8 124.1 L246.6 124.0 L246.4 124.1 L246.6 124.2 L246.5 124.4 L246.2 124.5 L246.0 124.4 L245.8 124.2 L245.3 123.7 L245.0 123.5 L244.6 123.4 L244.6 123.3 L244.5 123.3 L244.4 123.2 L244.3 123.1 L244.1 123.2 L244.0 123.3 L243.8 123.3 L243.6 123.1 L243.6 123.0 L243.7 122.9 L243.7 122.9 L243.8 122.8 L243.8 122.7 L243.4 122.8 L243.3 122.6 L243.2 122.4 L243.1 122.1 L243.0 122.1 L242.7 122.2 L242.4 122.1 L242.2 122.2 L242.3 122.5 L242.1 122.5 L241.7 122.7 L241.5 122.7 L241.4 122.5 L241.3 122.5 L241.3 122.5 L240.5 123.0 L240.1 123.1 L239.8 122.9 L239.6 123.1 L239.3 123.2 L239.2 123.3 L239.4 123.6 L239.1 123.7 L238.8 124.0 L238.7 124.3 L238.7 124.7 L238.6 125.0 L238.4 125.2 L238.2 125.5 L238.3 125.9 L238.4 126.0 L238.8 126.0 L238.9 126.2 L238.9 126.3 L238.8 126.6 L238.8 126.8 L238.8 126.9 L238.5 127.2 L238.5 127.4 L238.4 127.9 L238.4 128.1 L238.2 128.2 L237.9 128.3 L237.1 128.4 L237.0 128.5 L236.8 128.6 L235.6 128.7 L235.5 128.6 L235.4 128.6 L235.2 128.5 L235.0 128.5 L234.9 128.7 L234.8 128.8 L234.6 128.8 L234.5 128.9 L234.3 129.3 L234.2 129.6 L234.1 129.7 L233.4 129.5 L232.8 129.2 L232.2 129.0 L232.0 129.0 L231.8 129.0 L231.5 129.3 L231.4 129.3 L231.0 129.4 L230.4 129.8 L230.0 129.9 L229.8 129.9 L229.7 129.8 L229.5 129.8 L229.4 129.9 L229.2 130.1 L229.0 130.2 L228.8 130.3 L228.6 130.1 L228.3 130.3 L227.9 130.3 L226.7 130.2 L226.6 130.1 L226.6 129.9 L226.9 129.6 L226.6 129.4 L226.1 129.2 L225.9 129.1 L225.8 128.9 L225.8 128.5 L225.6 128.3 L225.4 128.3 L225.0 128.2 L224.8 128.1 L224.7 128.0 L224.5 127.6 L224.4 127.5 L224.1 127.3 L223.6 127.0 L223.5 127.0 L223.1 126.9 L222.7 127.0 L222.6 127.2 L222.6 127.5 L222.6 127.6 L222.3 127.5 L222.2 127.4 L222.1 126.8 L222.0 126.6 L221.7 126.9 L221.5 127.3 L221.4 127.7 L221.5 127.9 L222.0 128.0 L222.0 128.2 L221.8 128.4 L221.5 128.6 L220.2 128.8 L220.0 128.9 L220.0 128.9 L219.8 129.5 L219.7 129.7 L219.7 129.8 L219.7 130.0 L219.5 130.1 L219.4 130.1 L219.3 129.6 L219.0 129.5 L218.7 129.6 L218.3 129.8 L217.8 130.5 L217.6 130.5 L217.4 130.5 L217.1 130.3 L216.9 130.2 L216.5 130.2 L216.2 130.4 L215.8 130.8 L214.8 131.2 L214.5 131.4 L214.3 131.1 L214.2 131.1 L214.0 131.2 L214.0 131.3 L213.9 131.5 L213.9 131.6 L214.0 131.8 L214.0 132.1 L213.6 132.1 L212.8 131.9 L212.7 131.9 L212.5 132.1 L212.3 132.1 L212.2 132.1 L211.9 132.0 L211.7 132.0 L211.3 132.1 L210.7 132.6 L210.3 132.7 L209.5 132.8 L209.1 133.0 L208.4 133.3 L207.6 133.5 L207.2 133.7 L206.1 134.6 L205.8 134.7 L205.4 134.7 L205.1 134.9 L204.9 135.1 L204.8 135.4 L204.7 135.6 L204.7 135.8 L204.7 135.9 L204.6 136.0 L204.5 136.1 L204.2 136.1 L204.0 136.2 L203.7 136.0 L203.4 135.9 L203.1 135.8 L202.8 135.8 L202.7 135.7 L202.5 135.5 L202.5 135.5 L202.4 135.4 L202.0 135.4 L201.8 135.3 L201.6 134.8 L201.1 134.5 L201.1 134.4 L200.8 134.3 L200.4 133.7 L200.1 133.5 L199.3 133.9 L198.9 133.9 L198.5 133.8 L198.3 133.6 L198.1 133.5 L197.9 133.4 L197.6 133.4 L197.4 133.3 L197.3 133.0 L197.3 132.8 L197.1 132.4 L196.9 131.9 L196.7 131.8 L196.5 131.7 L196.3 131.8 L196.1 131.9 L195.9 132.0 L195.6 132.0 L195.4 131.9 L195.3 132.0 L195.1 132.1 L195.0 132.4 L195.0 132.6 L195.1 132.8 L195.3 133.0 L195.1 133.2 L194.7 133.5 L194.5 134.0 L194.2 133.9 L193.9 133.7 L193.6 133.6 L193.3 133.7 L193.1 134.0 L192.9 134.6 L192.8 134.8 L192.7 135.1 L192.5 135.3 L192.2 135.4 L192.2 135.6 L192.3 136.0 L192.3 136.2 L192.3 136.3 L192.1 136.6 L192.1 136.7 L192.0 136.8 L191.8 137.0 L191.7 137.1 L191.7 137.5 L191.7 137.7 L191.6 137.9 L191.4 138.0 L191.0 138.0 L190.2 138.0 L189.9 138.2 L189.8 138.6 L189.8 139.1 L189.9 139.4 L190.2 139.8 L190.2 139.9 L190.2 140.1 L190.0 140.3 L189.8 140.5 L189.6 140.5 L189.4 140.7 L188.9 141.7 L188.9 141.9 L189.0 142.2 L189.0 142.4 L188.9 142.6 L188.6 142.8 L188.5 142.9 L188.4 143.2 L188.1 143.5 L187.5 144.0 L187.4 144.0 L187.0 144.1 L186.8 144.2 L184.7 144.3 L183.0 143.9 L182.6 143.7 L182.2 143.5 L182.0 143.4 L181.7 143.1 L181.6 143.0 L181.3 142.9 L180.4 142.7 L180.0 142.5 L179.5 142.3 L179.4 142.3 L179.1 142.3 L179.0 142.3 L179.0 142.3 L178.8 142.4 L178.4 142.5 L177.4 142.4 L177.0 142.3 L176.7 142.1 L176.4 141.9 L176.1 141.8 L176.0 141.7 L175.4 141.8 L175.2 141.7 L175.2 141.7 L175.1 141.6 L175.0 141.5 L174.6 141.4 L174.4 141.4 L173.8 141.4 L173.1 141.3 L172.8 141.4 L171.1 142.3 L170.9 142.2 L170.6 142.2 L170.4 142.1 L170.2 142.0 L170.1 141.9 L169.9 141.8 L169.7 141.8 L168.9 141.8 L168.6 141.8 L168.2 141.7 L167.9 141.5 L167.0 141.0 L167.0 140.9 L166.8 140.7 L166.7 140.7 L166.4 140.7 L166.3 140.7 L166.1 140.8 L166.0 140.9 L165.9 141.0 L165.8 141.2 L165.7 141.3 L165.5 141.4 L165.3 141.4 L165.1 141.3 L165.0 141.2 L164.8 141.2 L164.5 141.1 L164.3 141.1 L164.2 140.8 L164.0 140.7 L163.5 140.5 L163.4 140.3 L163.0 139.7 L162.9 139.6 L162.6 139.5 L160.9 138.9 L159.2 138.5 L158.5 138.6 L158.3 138.7 L158.1 138.9 L157.8 139.0 L157.4 139.1 L156.0 139.1 L154.5 139.3 L154.1 139.2 L153.7 139.0 L151.9 137.3 L151.8 137.2 L151.6 136.8 L151.7 136.5 L151.9 136.2 L152.0 135.9 L151.9 135.5 L151.6 135.1 L151.2 134.8 L150.9 134.7 L150.8 134.6 L150.4 133.7 L150.0 133.2 L149.8 132.9 L149.5 132.7 L149.1 132.7 L148.3 132.4 L147.9 132.3 L147.6 132.0 L146.8 131.0 L146.4 130.8 L145.3 130.3 L144.7 129.9 L144.3 129.6 L143.8 129.3 L142.2 128.9 L141.8 128.8 L141.6 128.5 L141.5 128.3 L141.2 127.7 L141.1 127.5 L140.9 127.3 L140.6 127.1 L139.8 126.7 L139.3 126.6 L138.9 126.4 L138.7 126.4 L136.7 126.3 L136.1 126.0 L135.7 126.1 L135.1 126.4 L134.8 126.4 L133.6 126.4 L133.2 126.5 L132.9 126.7 L132.6 127.3 L131.0 128.2 L130.1 128.6 L130.0 128.8 L129.7 129.2 L129.4 129.7 L129.1 129.8 L128.3 129.8 L128.0 129.9 L127.8 130.0 L127.4 130.4 L127.2 130.7 L127.0 131.2 L126.8 131.7 L126.7 131.9 L126.6 132.1 L126.4 132.2 L126.3 132.3 L126.1 133.0 L125.9 133.2 L125.6 133.4 L125.3 133.7 L124.6 134.7 L124.6 134.8 L124.2 134.9 L124.2 135.0 L124.1 135.0 L123.9 135.5 L123.3 136.0 L122.9 136.6 L122.0 138.9 L121.5 139.5 L121.0 139.9 L120.1 140.2 L119.8 140.3 L119.4 140.3 L119.1 140.2 L118.7 140.0 L118.4 140.0 L118.0 140.3 L117.8 140.8 L117.7 141.2 L117.8 141.5 L118.3 141.9 L118.4 142.1 L118.5 142.4 L119.2 143.6 L119.4 144.3 L119.6 145.8 L119.6 146.9 L119.5 147.4 L119.4 147.8 L119.1 148.4 L119.0 148.8 L119.0 149.0 L119.0 149.6 L118.7 151.8 L119.3 155.9 L118.5 155.9 L118.3 155.7 L118.0 155.0 L117.3 153.9 L117.0 153.5 L116.5 153.2 L116.3 153.2 L116.1 153.4 L115.8 153.7 L115.6 153.8 L115.3 153.8 L115.1 153.8 L115.0 153.9 L115.0 154.1 L114.9 154.2 L114.8 154.2 L114.6 154.1 L114.5 154.1 L113.0 154.2 L112.8 154.2 L112.7 154.1 L112.6 154.2 L112.4 154.4 L112.3 155.0 L112.2 155.1 L112.0 155.4 L111.7 155.7 L111.4 155.9 L111.0 155.9 L110.7 155.6 L110.5 154.9 L110.2 154.6 L109.6 154.4 L109.0 154.4 L108.4 154.5 L107.8 154.8 L107.6 154.8 L107.4 154.8 L106.8 154.4 L106.7 154.3 L106.6 154.4 L105.9 154.7 L105.6 154.8 L105.3 154.8 L105.2 154.5 L105.1 154.2 L104.9 153.8 L104.7 153.6 L104.4 153.4 L104.3 153.4 L103.9 153.5 L103.8 153.5 L103.7 153.4 L103.5 153.2 L103.4 153.2 L103.3 153.2 L103.0 153.2 L103.0 153.3 L101.5 153.3 L100.8 153.2 L100.1 152.9 L99.5 152.3 L99.4 152.3 L99.1 152.2 L99.1 152.2 L99.0 151.9 L98.9 151.9 L98.5 151.8 L98.2 151.9 L97.9 152.1 L97.7 152.2 L97.0 152.6 L96.7 153.0 L96.3 153.4 L95.6 153.4 L95.2 153.3 L94.9 153.3 L94.7 153.4 L94.4 153.6 L94.3 153.8 L94.1 153.9 L93.8 154.1 L93.6 154.1 L92.9 154.1 L92.6 154.1 L92.1 154.3 L91.9 154.4 L91.4 154.3 L91.3 154.4 L91.0 154.5 L90.8 154.6 L90.6 154.8 L90.5 154.8 L90.4 154.8 L90.1 154.8 L90.0 154.8 L89.8 154.9 L89.6 154.8 L89.5 154.7 L89.3 154.6 L89.1 154.6 L88.6 154.6 L88.5 154.6 L88.1 154.5 L88.0 154.4 L87.7 154.4 L87.7 154.6 L87.7 154.8 L87.7 154.9 L87.4 155.1 L87.0 155.1 L85.5 154.8 L85.2 154.7 L84.7 154.8 L83.9 155.0 L83.2 155.5 L82.6 156.1 L82.3 156.9 L82.2 158.4 L81.7 159.5 L81.7 160.0 L81.6 160.4 L81.0 161.2 L80.8 161.6 L80.8 162.1 L80.9 162.4 L81.1 162.8 L81.3 163.2 L81.1 163.8 L80.5 165.2 L80.5 165.9 L80.7 166.3 L81.0 166.6 L81.1 166.9 L81.1 167.3 L80.5 168.4 L80.1 169.3 L79.9 169.8 L79.1 171.4 L78.3 173.1 L77.8 174.3 L76.9 176.1 L76.0 178.0 L76.0 177.9 L75.7 177.8 L75.8 177.6 L75.9 177.4 L75.8 177.3 L75.8 177.2 L75.5 177.0 L75.5 177.0 L75.5 176.6 L75.4 176.4 L75.4 176.3 L75.2 176.1 L74.9 175.7 L74.7 175.3 L74.5 174.9 L74.5 174.8 L74.5 174.1 L74.4 173.8 L74.2 173.4 L74.1 173.1 L74.2 172.7 L74.4 172.1 L74.5 171.8 L74.5 171.4 L74.2 170.8 L74.1 170.4 L74.2 170.2 L74.3 170.0 L74.5 169.7 L74.3 169.7 L74.1 169.7 L73.8 169.7 L73.6 169.7 L73.6 169.5 L73.6 169.3 L73.5 168.7 L73.6 168.2 L74.1 167.7 L74.2 167.3 L74.2 166.8 L74.0 166.4 L73.8 166.1 L73.5 165.5 L73.1 164.9 L73.0 164.8 L72.8 164.7 L72.6 164.7 L72.4 164.7 L72.2 164.8 L72.1 164.7 L72.1 164.7 L72.0 164.6 L71.8 163.7 L71.6 163.3 L71.3 163.0 L71.0 162.7 L70.7 162.6 L69.9 162.6 L69.9 162.6 L69.7 162.5 L69.6 162.5 L69.5 162.5 L69.3 162.6 L69.2 162.6 L69.0 162.6 L68.8 162.6 L68.7 162.5 L67.4 161.1 L65.7 159.3 L63.9 157.4 L62.1 155.5 L60.6 153.9 L59.4 152.6 L59.2 152.4 L57.8 150.9 L56.2 148.6 L55.2 146.1 L55.5 146.1 L56.1 146.3 L56.4 146.3 L56.7 146.3 L57.4 145.9 L57.8 145.8 L58.1 145.7 L58.1 145.5 L57.9 145.3 L57.6 145.3 L57.4 145.3 L57.3 145.2 L57.2 144.9 L57.1 144.7 L56.8 144.6 L56.6 144.6 L56.4 144.4 L56.2 144.0 L56.2 143.0 L56.0 141.9 L55.9 141.4 L55.6 140.9 L55.0 140.1 L54.9 139.9 L54.7 139.4 L54.6 139.3 L54.4 139.1 L53.6 138.9 L50.8 136.9 L50.2 136.3 L49.7 135.5 L49.5 134.7 L49.3 133.3 L49.2 133.0 L49.2 132.9 L49.3 132.7 L49.4 132.3 L49.4 132.1 L49.2 130.4 L49.1 130.2 L49.0 130.0 L48.9 129.9 L48.9 129.4 L48.9 129.2 L48.7 129.1 L48.7 128.9 L48.7 128.6 L48.7 128.5 L48.8 127.9 L48.7 127.2 L48.7 126.3 L48.7 125.9 L48.5 125.5 L48.3 125.1 L48.0 124.8 L47.7 124.6 L46.9 124.4 L46.5 124.2 L46.3 123.8 L46.2 123.6 L46.3 123.6 L46.5 123.4 L46.7 123.1 L46.8 122.8 L46.8 122.6 L46.9 122.5 L47.1 122.2 L47.2 121.9 L47.2 121.8 L47.5 121.7 L47.6 121.5 L47.5 121.0 L47.6 120.7 L47.9 120.2 L47.9 120.0 L47.9 119.5 L47.9 119.2 L47.8 119.0 L47.5 118.5 L47.5 118.3 L47.4 118.0 L47.5 117.7 L47.8 116.9 L48.0 115.9 L48.2 115.7 L48.0 115.3 L47.9 113.4 L47.7 113.1 L47.6 112.7 L47.3 112.4 L47.1 112.4 L46.6 112.7 L46.4 112.7 L45.8 112.6 L45.5 112.6 L45.2 112.4 L45.1 112.1 L45.0 111.8 L44.9 111.5 L44.6 111.3 L44.4 111.1 L44.2 110.8 L44.0 110.7 L43.9 110.5 L43.8 110.3 L43.9 110.2 L44.0 110.1 L44.1 110.0 L44.3 110.2 L44.4 110.2 L44.5 110.1 L44.5 109.9 L44.6 109.9 L44.6 109.7 L44.6 109.6 L44.6 109.5 L44.6 109.4 L44.8 109.2 L45.2 108.8 L45.5 108.7 L46.0 108.2 L46.3 107.9 L46.5 107.6 L47.2 107.6 L49.7 106.4 L50.0 106.2 L50.7 105.3 L50.9 105.0 L50.9 104.8 L50.9 104.6 L50.8 104.2 L50.9 104.0 L51.3 103.4 L53.3 98.8 L53.5 98.4 L53.8 98.1 L54.1 97.9 L55.1 97.4 L55.3 97.2 L55.5 96.9 L55.8 96.1 L56.2 95.4 L56.7 93.8 L57.0 92.7 L57.2 92.4 L57.3 92.1 L57.5 92.0 L57.9 91.8 L58.1 91.6 L58.1 91.5 L58.0 90.4 L58.1 90.3 L58.1 90.1 L58.4 89.6 L58.7 88.8 L59.1 88.5 L59.4 88.2 L60.7 87.5 L61.6 86.8 L61.7 86.7 L61.8 86.4 L61.9 86.3 L62.0 86.3 L62.4 86.3 L62.4 86.3 L62.5 86.0 L62.1 85.7 L62.2 85.4 L63.2 84.2 L63.3 83.9 L63.9 84.1 L64.6 84.1 L65.9 84.0 L66.6 84.0 L67.5 84.9 L68.2 85.1 L68.9 85.1 L71.2 84.5 L71.5 84.4 L72.1 84.0 L72.4 83.8 L72.7 83.2 L73.0 83.0 L73.3 82.8 L73.7 82.7 L74.8 82.5 L75.4 82.3 L75.8 82.3 L76.2 82.3 L76.6 82.1 L77.2 81.6 L77.6 81.5 L79.1 81.2 L79.3 81.1 L79.4 80.8 L79.4 79.6 L79.5 79.3 L79.8 79.0 L80.0 79.0 L80.1 79.1 L80.3 79.2 L80.6 79.1 L80.7 79.0 L80.9 78.5 L81.0 78.3 L81.3 78.1 L81.6 77.9 L82.3 77.7 L82.3 77.9 L82.3 78.0 L82.3 78.2 L82.2 78.7 L82.3 79.1 L82.5 79.3 L82.8 79.5 L83.0 79.6 L83.1 79.7 L83.3 79.7 L83.4 79.9 L83.5 80.1 L83.5 80.3 L83.4 80.5 L83.4 80.7 L83.5 81.1 L83.6 81.3 L84.3 81.5 L84.8 81.7 L85.2 82.0 L85.8 82.8 L86.2 83.4 L86.5 83.6 L86.9 83.5 L87.0 83.5 L87.0 83.4 L87.4 83.1 L87.5 83.1 L87.7 83.1 L87.7 83.1 L87.8 83.0 L87.7 82.9 L87.6 82.8 L87.6 82.7 L87.7 82.3 L87.9 82.1 L88.2 81.9 L88.9 81.7 L89.7 81.6 L90.0 81.7 L90.1 81.5 L90.3 81.3 L90.5 81.3 L91.0 81.4 L91.1 81.3 L91.1 81.2 L91.1 81.0 L91.4 80.8 L91.7 80.9 L91.9 81.0 L92.0 81.1 L92.1 81.1 L92.4 81.0 L92.7 80.7 L93.4 79.9 L93.7 79.6 L93.8 79.6 L94.0 79.6 L94.1 79.5 L94.1 79.2 L94.3 79.0 L94.5 78.8 L94.5 78.8 L94.8 78.6 L97.2 77.7 L97.6 77.5 L97.8 77.2 L98.6 77.5 L98.8 77.3 L99.0 76.9 L99.3 76.7 L99.7 76.6 L100.3 76.6 L100.7 76.5 L101.0 76.3 L101.4 75.8 L101.7 75.7 L102.1 75.7 L102.4 75.7 L104.9 76.1 L105.6 76.1 L106.3 76.0 L107.7 75.5 L109.4 75.1 L117.2 74.9 L118.6 74.6 L119.1 73.8 L119.1 72.9 L119.5 72.3 L120.1 71.7 L120.9 71.3 L121.9 71.0 L122.2 70.8 L122.6 70.5 L123.3 69.4 L123.9 68.8 L124.2 68.5 L124.3 68.1 L124.5 67.7 L126.3 65.7 L127.0 64.3 L127.2 64.2 L127.4 64.1 L127.6 63.8 L128.1 63.4 L127.8 63.0 L127.2 62.6 L127.0 62.4 L126.8 62.1 L124.7 61.2 L124.5 61.1 L124.4 60.8 L124.3 60.5 L124.2 60.4 L123.9 60.5 L123.6 60.3 L123.6 60.0 L124.0 59.4 L124.2 59.5 L124.3 59.5 L124.5 59.4 L124.5 59.3 L124.6 59.1 L124.7 59.0 L124.8 59.0 L125.1 58.8 L125.4 58.7 L125.5 58.6 L125.5 58.5 L125.7 58.4 L125.9 58.2 L126.3 57.9 L127.0 57.5 L127.7 57.3 L128.2 57.5 L128.3 57.5 L128.5 57.5 L128.9 57.6 L129.0 57.5 L129.1 57.3 L129.3 57.3 L130.1 57.2 L130.4 57.1 L130.6 57.1 L130.8 57.2 L131.0 57.4 L131.2 57.4 L131.4 57.2 L131.6 57.4 L131.9 57.5 L132.2 57.6 L132.5 57.6 L132.7 57.6 L133.4 57.3 L133.6 57.4 L134.9 57.4 L135.0 57.4 L135.1 57.4 L135.2 57.5 L135.4 57.4 L135.8 57.4 L136.3 57.2 L136.8 57.0 L137.3 57.4 L137.6 57.2 L138.4 57.2 L138.5 57.2 L138.6 57.1 L139.1 56.9 L139.2 56.9 L139.4 56.9 L139.9 56.7 L140.3 56.7 L141.8 56.8 L142.0 56.7 L142.2 56.4 L142.5 56.5 L142.5 56.5 L142.7 56.4 L143.2 56.1 L143.3 56.1 L143.5 56.1 L143.6 56.1 L143.7 56.0 L143.7 55.9 L143.7 55.8 L143.8 55.7 L143.8 55.7 L144.0 55.7 L144.0 56.0 L144.2 56.0 L144.3 55.9 L144.3 55.9 L144.2 55.8 L144.3 55.7 L144.8 55.2 L144.9 55.2 L145.1 55.2 L145.3 55.3 L145.5 55.3 L145.5 55.2 L145.5 55.1 L145.5 55.0 L145.7 54.9 L145.8 55.0 L146.0 55.2 L146.2 55.4 L146.5 55.5 L146.7 55.5 L147.3 55.1 L147.5 55.0 L147.7 55.1 L147.9 55.2 L148.3 55.5 L148.7 55.5 L150.1 55.5 L150.5 55.5 L150.6 55.4 L150.9 55.2 L151.1 55.1 L151.3 55.1 L151.5 55.2 L151.8 54.8 L152.0 54.3 L152.3 54.0 L152.8 53.8 L152.9 53.6 L152.7 53.2 L152.6 52.8 L152.9 52.6 L153.1 52.6 L153.2 52.5 L153.3 52.3 L153.3 52.1 L153.4 51.9 L153.5 51.9 L153.9 52.1 L153.9 52.1 L154.3 52.1 L154.3 52.1 L154.6 52.2 L154.7 52.2 L155.6 52.2 L155.4 51.5 L156.1 51.1 L156.9 50.9 L157.1 50.8 L157.2 50.9 L157.4 50.7 L157.5 50.5 L157.5 50.4 L157.8 50.3 L157.8 50.2 L157.9 50.1 L158.0 50.0 L158.1 50.1 L158.2 50.2 L158.2 50.2 L158.3 50.2 L158.4 50.2 L158.5 49.8 L158.6 49.4 L158.7 49.0 L159.1 48.8 L159.3 48.7 L160.0 47.9 L160.1 47.7 L160.2 47.5 L160.4 47.3 L160.7 47.1 L160.8 47.0 L160.9 46.8 L160.9 46.7 L161.2 46.9 L161.2 46.6 L161.2 46.6 L161.1 46.5 L161.1 46.4 L161.3 46.3 L161.5 46.1 L161.5 45.5 L161.5 45.2 L161.8 44.7 L161.8 44.4 L161.9 44.3 L162.0 44.2 L162.1 44.1 L162.2 44.1 L162.2 44.0 L162.2 44.0 L162.3 44.0 L162.4 43.9 L162.5 44.0 L162.6 44.2 L162.7 44.2 L162.8 44.1 L163.0 44.0 L163.2 43.8 L163.3 43.8 L163.3 43.8 L163.4 43.8 L163.4 43.8 L163.4 43.5 L163.4 43.5 L163.7 42.8 L163.9 42.5 L164.9 41.9 L165.0 41.8 L165.1 41.5 L165.2 41.3 L166.1 40.2 L166.4 40.0 L166.6 40.2 L167.3 40.5 L167.6 40.5 L168.2 40.3 L168.8 39.7 L169.2 39.0 L170.2 36.9 L170.7 36.2 L171.2 35.9 L171.4 35.9 L171.6 36.0 L171.8 36.0 L172.0 36.0 L172.1 36.0 L172.7 35.8 L172.8 35.8 L173.2 35.7 L173.4 35.4 L173.6 35.0 L173.8 34.7 L173.9 34.6 L174.1 34.6 L174.3 34.5 L174.4 34.4 L174.4 34.2 L174.3 34.0 L174.3 33.8 L174.3 33.4 L174.9 32.5 L174.8 32.4 L174.7 32.2 L174.8 32.1 L174.8 32.0 L174.7 31.8 L174.3 31.5 L174.3 31.3 L174.2 31.0 L174.1 30.3 L174.0 30.0 L174.1 29.6 L174.2 29.1 L174.3 28.8 L174.4 28.5 L174.6 28.3 L174.9 28.2 L175.2 28.2 L175.3 28.2 L175.4 28.0 L175.5 27.9 L175.7 27.8 L175.8 27.8 L176.2 27.7 L176.4 27.7 L176.7 27.9 L176.9 27.9 L177.0 27.8 L177.0 27.8 L177.5 27.4 L178.0 27.0 L178.3 26.9 L179.4 26.6 L179.6 26.4 L179.4 26.0 L179.5 25.8 L179.7 25.4 L179.8 25.1 L180.2 24.9 L181.7 25.1 L182.0 25.0 L182.5 25.3 L182.7 24.9 L182.9 24.4 L183.4 23.9 L183.6 23.7 L183.8 23.5 L184.1 23.6 L184.2 23.6 L184.4 23.5 L184.8 23.2 L185.0 23.1 L185.4 22.9 L185.8 22.8 L185.8 22.8 L186.3 22.8 L186.6 22.7 L186.8 22.5 L187.1 22.2 L187.3 22.0 L187.5 22.0 L187.8 22.1 L188.1 22.1 L188.3 22.2 L188.4 22.0 L188.8 22.4 L189.2 22.4 L189.6 22.3 L190.0 22.2 L190.2 22.3 L190.5 22.4 L190.7 22.5 L191.3 22.5 L191.5 22.5 L192.1 22.6 L192.6 23.0 L193.7 23.4 L194.7 23.5 Z" fill="#172033" fill-rule="evenodd"/></svg>
