<svg xmlns="http://www.w3.org/2000/svg" viewBox="0 0 320 200" role="img"><path d="M297.2 96.7 L296.9 98.7 L296.7 99.2 L296.3 99.6 L295.0 100.7 L295.1 101.7 L295.5 102.5 L295.7 103.4 L294.9 104.2 L293.9 104.6 L293.7 105.2 L293.7 105.9 L293.6 106.7 L293.0 107.5 L292.3 107.9 L292.0 108.5 L292.6 109.6 L293.7 110.5 L296.3 110.7 L297.5 111.5 L298.0 112.6 L298.0 114.2 L297.5 115.7 L297.1 116.2 L296.6 116.7 L295.5 116.9 L291.1 116.1 L289.0 116.2 L288.2 116.1 L287.5 115.9 L287.1 115.6 L286.8 115.3 L286.3 115.0 L283.8 114.4 L283.5 113.8 L283.9 112.5 L283.8 111.8 L282.8 111.3 L281.2 111.3 L275.4 112.4 L274.8 112.6 L274.6 113.1 L273.8 115.1 L273.3 115.5 L272.0 116.5 L271.5 117.0 L271.4 117.4 L271.4 118.8 L271.1 119.4 L271.2 120.0 L271.3 120.4 L271.6 120.8 L272.1 121.0 L271.1 122.3 L272.0 123.1 L273.8 123.6 L276.6 124.0 L277.6 124.3 L278.1 125.0 L277.6 126.3 L277.2 126.7 L275.9 127.5 L275.4 128.1 L275.1 128.9 L275.1 129.5 L275.3 130.0 L275.9 130.7 L278.4 132.5 L279.2 133.6 L278.4 134.7 L276.7 135.5 L274.1 136.1 L272.1 136.1 L272.0 134.7 L271.4 133.7 L269.0 132.2 L268.1 131.4 L267.7 130.0 L267.7 128.8 L267.3 127.8 L265.7 127.1 L264.5 126.9 L263.3 126.8 L260.6 127.2 L256.5 128.6 L255.3 128.9 L254.5 128.8 L253.0 128.2 L252.3 128.1 L251.7 128.7 L251.5 129.4 L251.6 130.1 L251.6 130.5 L250.7 131.4 L249.5 131.8 L242.5 131.7 L241.1 131.3 L239.8 130.7 L239.0 130.0 L237.8 127.8 L237.3 127.5 L235.9 127.0 L235.5 126.7 L235.3 126.3 L235.4 125.4 L235.1 119.5 L234.9 119.1 L234.4 119.2 L233.4 119.7 L233.0 120.1 L232.8 120.5 L232.5 120.9 L231.8 121.1 L231.3 120.9 L229.8 119.9 L229.7 119.2 L228.5 118.9 L225.6 119.2 L224.4 119.9 L223.3 121.4 L222.8 122.9 L223.4 123.7 L224.2 124.1 L224.4 124.7 L224.2 125.5 L224.2 126.4 L225.0 128.5 L225.1 129.3 L224.7 130.7 L222.9 133.3 L222.0 135.5 L221.5 136.1 L220.8 136.5 L220.0 136.8 L219.4 137.1 L219.0 137.7 L218.7 138.4 L218.3 139.0 L218.3 139.1 L213.8 141.2 L212.7 142.3 L212.5 143.1 L212.6 144.5 L212.4 145.3 L211.9 145.8 L211.3 146.1 L210.0 146.4 L208.4 147.2 L208.1 147.9 L209.2 150.0 L207.2 151.3 L207.1 151.5 L207.0 151.6 L207.1 151.8 L207.2 151.9 L207.9 152.4 L208.4 153.5 L208.9 154.1 L209.5 154.3 L210.9 154.5 L211.4 154.8 L212.1 155.8 L211.9 156.8 L210.4 158.9 L208.4 160.6 L206.6 160.3 L204.6 159.7 L202.2 160.2 L202.4 159.3 L202.8 158.6 L203.0 157.8 L202.9 156.7 L202.6 155.9 L202.1 155.1 L201.0 153.8 L200.4 152.8 L200.0 152.5 L199.6 152.2 L196.1 150.9 L195.1 150.7 L194.1 150.6 L194.2 150.5 L194.4 150.2 L195.5 148.5 L197.2 147.0 L198.2 145.5 L196.6 144.1 L195.7 143.9 L193.8 143.9 L192.8 143.8 L192.3 143.6 L191.9 143.0 L191.7 143.0 L191.4 142.9 L191.0 143.0 L190.1 143.6 L189.6 143.8 L188.6 143.7 L185.7 142.6 L184.5 142.3 L183.9 142.1 L180.1 138.1 L178.3 136.9 L176.6 136.3 L175.0 135.9 L173.9 135.2 L173.2 134.2 L173.0 132.7 L173.2 131.2 L174.2 128.0 L174.4 126.2 L174.4 124.4 L174.1 123.0 L173.3 122.2 L171.5 121.9 L170.7 122.1 L168.1 122.5 L166.5 123.1 L165.2 124.0 L164.6 124.8 L164.9 125.1 L165.3 125.3 L165.3 125.9 L164.9 126.5 L164.3 127.0 L163.6 127.3 L161.9 127.9 L158.9 130.7 L157.6 131.3 L155.0 131.7 L153.6 132.1 L152.5 133.0 L151.8 133.6 L151.6 134.1 L151.8 134.3 L153.2 135.2 L155.0 137.6 L155.2 139.9 L153.9 141.8 L151.2 143.5 L150.5 143.6 L149.3 143.7 L148.7 144.0 L148.2 144.7 L148.1 145.4 L148.1 146.0 L147.8 147.8 L147.6 147.9 L147.1 148.8 L147.0 149.0 L146.2 149.6 L145.8 149.9 L145.2 150.0 L140.9 150.7 L140.0 151.2 L139.3 152.1 L139.2 153.3 L137.9 153.3 L137.8 153.4 L137.6 154.0 L137.7 154.3 L137.6 154.5 L136.8 154.8 L136.4 154.8 L135.3 154.6 L133.7 154.6 L130.7 153.9 L130.1 153.9 L129.7 154.1 L129.1 154.2 L128.4 154.0 L128.3 153.8 L127.2 152.6 L126.2 152.1 L125.3 151.7 L119.0 150.6 L118.0 150.9 L117.4 151.6 L116.8 152.3 L115.5 152.4 L113.6 152.9 L110.0 154.8 L108.1 155.2 L103.5 154.9 L102.7 155.1 L101.0 155.8 L97.2 156.9 L95.3 157.2 L93.3 157.2 L91.5 156.9 L90.0 156.3 L87.3 154.2 L86.9 153.7 L86.5 153.1 L86.1 152.0 L85.4 150.7 L85.2 150.0 L84.9 149.9 L80.7 146.6 L79.4 146.2 L78.8 146.4 L78.4 146.7 L77.9 146.9 L77.4 146.9 L76.8 146.6 L76.8 146.4 L76.9 146.1 L76.9 145.7 L77.0 145.6 L77.0 145.0 L76.8 144.3 L76.7 144.4 L77.0 144.1 L77.4 143.7 L77.9 143.2 L77.9 142.7 L77.0 142.1 L72.1 141.4 L71.6 140.3 L72.2 138.2 L73.2 136.0 L75.4 133.1 L74.0 131.5 L71.8 129.9 L70.7 128.5 L71.0 127.8 L72.6 126.5 L73.0 125.4 L73.0 124.8 L72.9 124.3 L72.3 123.7 L71.4 123.3 L62.3 121.7 L58.2 121.6 L54.3 122.2 L49.1 124.6 L47.1 125.0 L45.1 125.1 L43.2 125.5 L41.2 126.7 L39.5 128.3 L38.2 129.5 L37.9 130.3 L38.1 130.9 L38.7 132.0 L38.7 132.2 L39.3 133.2 L39.6 133.5 L40.2 133.7 L41.2 133.4 L41.6 133.5 L42.0 134.9 L40.4 136.1 L36.5 137.9 L33.3 140.4 L31.4 141.1 L29.3 140.5 L26.5 140.6 L23.7 141.0 L22.2 141.6 L23.1 140.3 L23.5 139.7 L23.7 139.2 L22.6 138.2 L22.0 137.4 L22.2 136.6 L23.7 136.0 L27.4 134.7 L27.5 134.7 L27.6 134.7 L27.7 134.7 L28.2 134.8 L28.6 134.9 L28.9 134.8 L30.3 134.5 L30.5 134.1 L30.5 133.6 L30.5 132.9 L30.9 131.2 L31.1 130.7 L32.0 129.3 L33.1 127.6 L33.0 126.9 L32.3 126.0 L31.4 125.4 L28.4 124.1 L28.1 124.0 L28.8 123.5 L28.9 123.1 L28.8 122.7 L28.8 122.2 L28.7 122.0 L28.6 121.8 L28.4 121.5 L28.4 121.2 L28.7 120.8 L29.4 120.3 L31.5 117.7 L33.7 115.9 L32.2 114.7 L32.0 113.9 L32.8 113.2 L41.1 108.0 L45.4 106.3 L46.0 106.0 L47.7 104.7 L49.7 104.0 L50.3 103.7 L51.0 103.1 L51.3 102.6 L51.2 101.5 L50.8 101.2 L50.5 100.9 L50.3 100.5 L50.4 100.2 L51.3 98.3 L51.8 97.7 L51.9 97.5 L52.1 97.1 L52.2 96.3 L52.0 95.6 L51.2 94.6 L50.9 94.0 L51.8 91.9 L54.8 90.7 L61.4 89.3 L65.5 87.1 L66.9 85.8 L66.1 84.6 L67.0 83.6 L67.5 83.3 L69.1 82.9 L69.3 82.5 L69.5 82.4 L70.4 82.1 L70.3 81.0 L72.2 80.6 L76.0 78.1 L76.2 78.1 L77.3 76.8 L79.1 75.5 L83.3 73.4 L83.0 71.9 L83.4 70.7 L84.6 69.9 L85.1 69.8 L85.4 69.7 L86.3 68.9 L87.0 68.6 L87.6 68.5 L88.2 68.3 L88.6 67.6 L88.0 67.0 L87.1 66.4 L86.2 65.9 L85.1 66.3 L77.8 66.8 L78.1 66.0 L78.8 65.0 L79.7 64.2 L81.3 63.6 L81.4 62.4 L83.0 62.2 L84.0 61.8 L84.9 61.3 L85.4 60.8 L85.1 60.0 L84.5 59.2 L84.3 58.5 L85.4 58.3 L86.0 58.0 L86.5 57.9 L87.1 58.0 L87.6 58.3 L89.2 58.4 L92.3 58.1 L93.7 58.3 L94.5 58.6 L94.6 58.6 L95.3 58.7 L97.0 58.6 L95.9 60.3 L96.2 61.3 L97.6 61.8 L99.4 62.2 L99.6 62.4 L99.8 62.6 L100.0 62.8 L100.5 62.9 L100.9 62.9 L103.2 62.2 L104.8 62.0 L106.5 62.0 L109.1 62.1 L109.7 61.9 L110.8 61.6 L111.7 60.9 L112.0 60.6 L112.2 60.0 L112.1 59.6 L111.8 59.4 L111.6 59.2 L111.3 58.8 L111.3 58.4 L112.0 58.3 L112.9 58.5 L113.2 58.7 L113.7 58.9 L114.5 59.0 L115.5 58.4 L115.6 58.3 L115.7 58.1 L115.7 57.9 L115.7 57.9 L115.6 57.8 L115.2 57.4 L115.0 57.1 L115.1 56.9 L115.5 56.8 L116.1 56.9 L116.6 56.8 L116.9 56.4 L116.8 55.8 L116.6 55.8 L115.6 55.3 L115.5 55.3 L117.8 54.0 L118.1 53.8 L119.6 53.2 L121.8 52.7 L121.8 52.7 L124.9 52.0 L126.3 51.9 L125.5 53.5 L124.8 53.9 L123.4 53.9 L123.2 53.9 L125.5 54.7 L126.4 55.0 L127.7 55.1 L130.4 54.8 L132.8 54.4 L134.0 54.0 L135.0 53.2 L136.1 52.0 L136.9 52.3 L140.9 52.5 L141.3 52.7 L141.5 53.3 L141.6 53.9 L141.7 54.1 L149.7 54.1 L152.4 53.7 L153.0 53.5 L153.3 53.2 L153.6 52.9 L154.1 52.5 L154.6 52.2 L155.9 51.7 L157.0 51.5 L157.4 51.2 L157.7 50.9 L158.1 50.8 L161.4 50.4 L162.5 50.4 L164.1 50.7 L164.8 50.8 L165.1 51.0 L165.4 51.6 L165.8 52.2 L166.5 52.5 L168.8 52.9 L172.7 52.9 L172.9 52.9 L174.6 52.7 L174.6 52.4 L175.4 51.4 L177.2 50.5 L179.1 50.4 L180.0 51.0 L180.7 51.8 L180.9 51.9 L181.4 52.4 L182.2 52.2 L182.4 52.0 L182.6 51.7 L182.7 51.3 L182.7 50.8 L182.7 50.4 L182.7 50.2 L182.6 50.0 L182.5 49.7 L182.6 49.3 L182.8 49.2 L183.2 49.1 L183.4 49.1 L183.5 49.2 L183.5 49.6 L183.9 49.7 L184.3 48.3 L183.7 48.3 L183.4 48.2 L182.7 48.0 L181.9 47.9 L178.9 48.2 L178.0 48.5 L177.1 48.9 L176.2 49.3 L175.1 49.3 L173.9 48.8 L172.3 48.0 L172.0 48.0 L171.0 47.7 L171.4 47.1 L171.3 46.5 L171.0 46.1 L171.1 45.6 L171.7 45.2 L173.2 44.6 L173.9 44.2 L174.4 43.0 L174.6 42.5 L175.5 41.7 L176.0 41.5 L176.6 41.5 L179.9 41.1 L180.9 40.8 L180.3 39.8 L181.3 39.4 L182.8 39.5 L183.9 39.8 L184.0 40.3 L184.1 41.1 L184.3 41.8 L184.9 42.1 L185.6 41.8 L186.0 40.4 L186.5 40.0 L187.3 40.2 L187.9 40.8 L188.4 41.5 L188.8 42.0 L189.5 42.1 L190.1 42.0 L190.7 42.1 L191.1 42.7 L191.0 43.0 L190.2 43.8 L190.0 44.2 L190.2 44.7 L190.7 45.1 L190.9 45.5 L191.0 45.9 L194.2 45.9 L193.7 45.5 L194.3 44.3 L195.9 44.4 L197.9 45.2 L199.5 46.2 L198.4 46.4 L198.4 46.8 L199.2 47.4 L199.3 47.4 L201.0 48.3 L202.5 48.6 L204.9 48.4 L207.2 47.9 L208.1 47.2 L209.3 46.9 L216.1 47.4 L219.5 47.4 L220.3 48.3 L222.6 48.3 L225.0 48.7 L241.8 55.7 L242.1 56.8 L242.2 57.2 L244.0 59.0 L246.3 59.7 L248.1 60.8 L248.0 63.4 L247.4 64.3 L245.1 66.3 L244.8 66.9 L244.4 68.0 L244.2 68.4 L242.1 70.1 L240.2 72.4 L239.2 73.5 L238.1 75.6 L238.0 77.6 L238.4 78.7 L239.1 79.5 L239.6 80.5 L239.6 81.8 L239.0 82.6 L238.1 83.3 L237.4 84.0 L237.5 84.5 L238.8 84.8 L242.6 85.2 L243.8 85.0 L245.0 85.2 L248.2 84.9 L249.2 85.0 L260.8 87.5 L260.7 88.2 L260.9 88.3 L261.3 88.3 L261.5 88.5 L261.5 88.9 L261.3 89.5 L261.1 90.9 L260.9 91.5 L261.0 92.1 L261.8 92.9 L263.3 93.7 L269.9 95.1 L272.2 96.7 L273.6 97.2 L276.3 97.8 L277.1 97.8 L277.5 97.8 L279.1 97.5 L281.8 96.6 L282.4 96.0 L282.6 95.5 L282.6 95.0 L282.9 94.2 L283.8 93.1 L284.8 93.0 L286.0 93.2 L287.5 93.2 L287.6 92.0 L288.6 90.6 L290.2 89.4 L292.0 88.7 L292.3 88.7 L292.6 88.7 L293.0 88.9 L293.0 88.9 L293.0 88.9 L293.6 89.3 L294.9 90.7 L297.0 91.9 L297.5 92.3 L297.8 93.3 L297.1 95.4 L297.2 96.7 Z" fill="#172033" fill-rule="evenodd"/></svg>
