<svg xmlns="http://www.w3.org/2000/svg" viewBox="0 0 320 200" role="img"><path d="M105.1 125.0 L105.2 125.0 L105.2 124.8 L105.1 124.7 L104.9 124.6 L104.8 124.5 L104.8 124.4 L104.9 124.2 L104.9 124.0 L104.8 123.9 L104.7 123.9 L104.6 123.9 L104.4 124.0 L104.3 123.9 L104.3 123.8 L104.1 123.8 L104.0 123.7 L103.8 123.6 L103.8 123.6 L103.5 123.4 L103.4 123.3 L103.3 123.1 L103.3 123.0 L103.4 122.9 L103.5 122.8 L103.7 122.8 L103.9 122.6 L104.0 122.4 L104.2 122.2 L104.4 121.9 L104.6 121.7 L104.7 121.6 L104.9 121.4 L105.4 121.3 L105.6 121.4 L105.7 121.3 L105.9 121.4 L106.1 121.5 L106.3 121.5 L106.6 121.5 L106.8 121.6 L107.1 121.6 L107.2 121.6 L107.2 121.7 L107.3 121.8 L107.4 121.8 L107.5 121.8 L107.5 121.7 L107.5 121.6 L107.5 121.4 L107.7 121.3 L107.7 121.1 L107.6 120.9 L107.7 120.8 L107.7 120.7 L107.7 120.7 L107.7 120.6 L107.7 120.6 L107.7 120.5 L107.7 120.5 L107.6 120.7 L107.5 120.7 L107.3 120.7 L107.2 120.6 L107.2 120.4 L107.3 120.2 L107.3 120.1 L107.3 119.9 L107.3 119.8 L107.3 119.7 L107.2 119.6 L107.1 119.5 L107.1 119.5 L106.9 119.5 L106.9 119.6 L106.8 119.9 L106.7 120.0 L106.6 119.9 L106.6 119.7 L106.6 119.5 L106.4 119.2 L106.4 118.7 L106.3 118.4 L106.3 118.0 L106.4 117.8 L106.5 117.5 L106.5 117.3 L106.8 117.2 L106.9 116.9 L107.2 116.4 L107.4 116.0 L107.5 115.7 L107.6 115.6 L107.5 115.7 L107.5 115.9 L107.6 116.0 L107.6 116.2 L107.7 115.8 L107.8 115.3 L107.9 115.1 L108.1 115.2 L108.3 114.9 L108.6 114.6 L108.8 114.3 L109.0 114.2 L109.2 114.0 L109.4 113.9 L109.6 113.7 L109.7 113.7 L109.8 113.9 L109.9 114.2 L110.0 114.4 L110.2 114.7 L110.4 114.7 L110.3 114.4 L110.3 114.1 L110.3 113.8 L110.4 113.7 L110.5 113.6 L110.6 113.7 L110.7 114.0 L110.6 114.2 L110.7 114.4 L110.8 114.6 L110.9 114.7 L111.0 114.9 L111.1 114.9 L111.4 115.1 L111.6 115.2 L111.7 115.1 L111.8 115.0 L112.0 115.0 L112.0 114.9 L112.0 114.9 L112.0 114.8 L112.0 114.8 L112.0 114.7 L112.1 114.7 L112.1 114.4 L112.0 114.2 L112.0 114.1 L111.9 113.9 L111.8 113.8 L111.9 113.7 L112.1 113.7 L112.2 113.7 L112.5 113.6 L112.6 113.7 L112.8 113.6 L112.9 113.6 L113.1 113.4 L113.3 113.5 L113.4 113.6 L113.5 113.8 L113.6 113.9 L113.7 113.9 L113.9 113.8 L113.8 114.0 L113.7 114.2 L113.7 114.3 L113.9 114.4 L114.0 114.4 L114.2 114.5 L114.3 114.5 L114.6 114.4 L114.7 114.4 L114.9 114.4 L115.1 114.2 L115.1 114.1 L115.1 113.9 L115.1 113.8 L115.0 113.6 L114.8 113.5 L114.7 113.4 L114.7 113.4 L114.9 113.4 L114.9 113.3 L114.8 113.3 L114.7 113.2 L114.7 113.2 L114.8 113.1 L114.7 113.0 L114.6 113.0 L114.7 112.9 L114.7 112.8 L114.6 112.8 L114.6 112.8 L114.6 112.7 L114.6 112.6 L114.7 112.7 L114.9 112.6 L115.0 112.5 L115.1 112.5 L115.2 112.5 L115.3 112.5 L115.3 112.4 L115.3 112.4 L115.2 112.4 L115.0 112.4 L115.0 112.4 L114.8 112.3 L114.9 112.3 L115.0 112.2 L115.0 112.1 L115.1 112.2 L115.2 112.2 L115.4 112.2 L115.5 112.2 L115.6 112.2 L115.6 112.3 L115.7 112.4 L115.7 112.4 L115.6 112.2 L115.3 112.1 L115.4 111.9 L115.5 111.8 L115.7 111.8 L115.8 111.8 L115.9 111.7 L116.0 111.7 L116.1 111.7 L116.1 111.8 L116.2 111.9 L116.2 111.6 L116.0 111.6 L115.7 111.6 L115.5 111.7 L115.5 111.6 L115.5 111.4 L115.5 111.2 L115.7 111.1 L115.8 111.1 L115.9 111.2 L116.0 111.3 L116.0 111.3 L116.2 111.4 L116.2 111.4 L116.2 111.3 L116.2 111.2 L116.3 111.1 L116.4 111.1 L116.4 111.1 L116.4 111.0 L116.3 110.9 L116.2 110.9 L116.2 110.8 L116.2 110.8 L116.2 110.7 L116.3 110.6 L116.3 110.6 L116.3 110.6 L116.3 110.5 L116.2 110.5 L116.2 110.5 L116.1 110.5 L116.0 110.4 L116.0 110.4 L116.0 110.5 L116.0 110.5 L116.0 110.5 L115.9 110.6 L115.8 110.6 L115.8 110.6 L115.7 110.4 L115.5 110.7 L115.4 110.7 L115.4 110.6 L115.8 110.2 L116.0 109.9 L116.1 109.7 L116.8 109.1 L117.0 108.8 L117.1 108.6 L117.3 108.5 L117.4 108.6 L117.4 108.5 L117.5 108.4 L117.5 108.3 L117.5 108.3 L117.6 108.4 L117.7 108.3 L117.6 108.2 L117.5 108.1 L117.3 108.2 L117.1 108.2 L117.1 108.1 L117.2 108.0 L117.4 107.8 L117.6 107.7 L117.8 107.6 L117.7 107.5 L117.7 107.3 L117.8 107.2 L117.9 107.1 L118.0 107.0 L118.1 107.1 L118.2 107.0 L118.4 107.0 L118.4 107.0 L118.6 106.8 L118.8 107.2 L119.0 107.3 L119.2 107.4 L119.1 107.3 L118.8 107.0 L118.7 106.8 L118.7 106.7 L118.8 106.5 L118.9 106.4 L118.9 106.5 L119.0 106.6 L119.0 106.6 L119.1 106.6 L119.0 106.5 L118.9 106.4 L118.9 106.3 L119.0 106.2 L119.1 106.0 L119.1 105.8 L119.1 105.6 L119.1 105.6 L119.2 105.6 L119.2 105.7 L119.2 105.7 L119.2 105.8 L119.2 105.9 L119.2 105.9 L119.3 105.9 L119.4 105.9 L119.5 105.9 L119.6 105.9 L119.6 106.0 L119.7 106.0 L119.7 105.9 L119.6 105.9 L119.6 105.8 L119.5 105.8 L119.5 105.8 L119.6 105.7 L119.6 105.7 L119.4 105.6 L119.4 105.6 L119.4 105.6 L119.4 105.5 L119.5 105.5 L119.6 105.6 L119.6 105.4 L119.5 105.4 L119.3 105.4 L119.1 105.5 L119.2 105.3 L119.3 105.3 L119.4 105.3 L119.6 105.3 L119.5 105.3 L119.4 105.2 L119.4 105.2 L119.4 105.2 L119.5 105.2 L119.5 105.1 L119.6 105.1 L119.5 105.1 L119.5 105.0 L119.7 105.0 L119.9 104.9 L119.9 105.0 L119.8 105.1 L119.9 105.1 L120.2 105.0 L120.1 105.0 L120.0 104.9 L120.1 104.8 L120.2 104.6 L120.3 104.5 L120.4 104.2 L120.5 104.3 L120.6 104.3 L120.7 104.3 L120.7 104.2 L120.9 104.2 L121.0 104.1 L121.1 104.1 L120.9 104.0 L120.8 104.1 L120.7 104.1 L120.6 104.1 L120.5 104.0 L120.6 103.9 L120.7 103.9 L120.9 103.8 L121.0 103.7 L120.8 103.7 L120.4 103.9 L120.3 103.8 L120.3 103.6 L120.3 103.5 L120.3 103.3 L120.6 103.5 L120.7 103.6 L120.9 103.6 L121.0 103.6 L121.0 103.5 L120.9 103.5 L120.8 103.5 L120.7 103.5 L120.6 103.5 L120.6 103.4 L120.5 103.3 L120.7 103.4 L120.8 103.3 L120.9 103.3 L121.0 103.1 L120.8 103.1 L120.7 102.9 L120.8 102.8 L120.9 102.7 L121.0 102.7 L121.0 102.8 L121.0 102.9 L121.0 103.0 L121.2 102.8 L121.1 102.6 L121.1 102.5 L121.5 102.3 L121.6 102.2 L121.7 102.0 L121.9 101.9 L121.9 101.8 L121.3 101.9 L121.3 101.9 L121.4 101.8 L121.4 101.8 L121.2 101.8 L121.1 101.8 L121.0 101.7 L121.0 102.1 L120.5 102.5 L119.8 102.6 L119.4 102.4 L119.5 102.3 L119.6 102.2 L119.6 102.2 L119.6 102.1 L119.4 102.0 L119.3 102.0 L119.3 102.0 L119.3 101.9 L119.2 101.8 L119.3 101.8 L119.3 101.7 L119.3 101.6 L119.4 101.4 L119.4 101.3 L119.5 101.2 L119.6 101.2 L119.7 101.2 L119.7 101.3 L119.6 101.4 L120.1 101.3 L120.2 101.3 L120.2 101.2 L119.9 101.3 L119.9 101.2 L120.0 101.1 L120.2 100.8 L120.4 100.5 L120.3 100.5 L120.3 100.4 L120.2 100.4 L120.2 100.3 L120.1 100.4 L120.0 100.3 L119.8 100.2 L119.7 100.1 L119.7 100.2 L119.7 100.3 L119.7 100.4 L119.7 100.5 L119.6 100.4 L119.5 100.4 L119.5 100.4 L119.4 100.5 L119.4 100.5 L119.4 100.6 L119.4 100.6 L119.4 100.6 L119.4 100.7 L119.3 100.6 L119.3 100.6 L119.3 100.6 L119.2 100.6 L119.2 100.8 L119.2 101.0 L119.1 101.3 L119.0 101.4 L119.0 101.4 L119.0 101.7 L118.9 101.7 L118.8 101.8 L118.7 101.7 L118.6 101.5 L118.7 101.4 L118.2 101.0 L118.1 101.0 L118.1 100.8 L118.1 100.7 L118.3 100.7 L118.2 100.5 L118.2 100.5 L118.1 100.2 L118.1 99.9 L118.1 99.6 L118.1 99.5 L118.2 99.4 L118.3 99.3 L118.4 99.3 L118.5 99.3 L118.6 99.3 L118.7 99.2 L118.7 99.1 L118.8 99.0 L118.9 99.0 L119.0 99.0 L119.2 99.2 L119.2 99.2 L119.4 99.2 L119.5 99.1 L119.7 98.9 L120.0 98.6 L119.2 98.6 L119.0 98.6 L118.9 98.4 L118.5 97.8 L118.8 97.5 L118.9 97.3 L118.9 96.9 L119.0 96.8 L119.2 96.7 L119.2 96.6 L119.1 96.7 L119.1 96.4 L119.2 96.0 L119.2 94.7 L119.2 94.8 L119.3 94.9 L119.3 94.9 L119.4 95.0 L119.4 94.9 L119.4 94.7 L119.4 94.6 L119.2 94.5 L119.2 94.3 L119.1 94.2 L119.1 94.1 L119.3 94.1 L119.5 94.2 L119.6 94.4 L119.7 94.5 L119.8 94.5 L119.6 94.2 L119.2 93.7 L119.2 93.4 L119.1 93.4 L119.0 93.5 L119.0 93.5 L118.9 93.1 L118.8 91.9 L118.7 91.8 L118.7 90.4 L118.7 90.0 L118.8 89.7 L118.9 89.5 L118.8 89.4 L118.8 89.2 L118.8 89.0 L118.8 88.9 L118.7 88.8 L118.6 88.6 L118.6 88.2 L118.5 88.3 L118.4 88.2 L118.3 88.1 L118.3 88.0 L118.4 88.0 L118.5 88.0 L118.5 88.0 L118.5 88.0 L118.6 88.0 L118.5 87.9 L118.5 87.8 L118.4 87.5 L118.4 87.5 L118.4 87.5 L118.3 87.4 L118.3 87.4 L118.2 87.4 L118.1 87.3 L118.0 87.2 L117.9 87.1 L117.8 87.1 L117.7 87.0 L117.6 87.0 L117.5 87.1 L117.4 87.1 L117.4 87.2 L117.3 87.1 L117.2 87.1 L117.1 87.2 L117.0 87.2 L116.9 87.0 L117.0 87.0 L117.0 86.9 L117.2 86.9 L117.2 86.8 L117.5 86.3 L117.6 86.2 L117.7 86.2 L117.9 86.1 L118.0 86.1 L118.1 86.0 L118.2 86.0 L118.2 85.9 L118.4 85.9 L118.5 85.9 L118.7 86.0 L118.8 86.1 L119.1 86.0 L119.1 85.9 L119.1 85.9 L119.1 85.8 L119.2 85.7 L119.2 85.7 L119.2 85.6 L119.2 85.6 L119.2 85.5 L119.3 85.6 L119.3 85.6 L119.4 85.5 L119.4 85.4 L119.5 85.3 L119.6 85.3 L119.7 85.2 L119.8 85.1 L119.8 85.0 L119.9 84.9 L119.9 84.8 L119.9 84.4 L119.7 84.1 L119.3 83.4 L119.3 83.4 L119.2 83.4 L119.2 83.2 L118.9 82.2 L118.8 82.2 L118.8 82.4 L118.7 82.4 L118.6 82.0 L118.3 81.6 L117.8 80.9 L117.7 80.8 L117.6 80.6 L117.6 80.3 L117.7 79.9 L117.7 79.8 L117.6 79.7 L117.7 79.6 L118.1 79.9 L118.3 80.2 L118.4 80.1 L118.5 79.9 L118.6 79.6 L118.6 79.4 L118.6 79.3 L118.6 79.1 L118.6 79.0 L118.4 78.8 L118.5 78.7 L118.7 78.6 L118.7 78.7 L118.7 78.7 L118.8 78.7 L118.8 78.8 L118.8 78.6 L118.8 78.5 L118.7 78.4 L118.6 78.3 L118.6 78.3 L118.7 78.0 L118.8 77.9 L118.8 77.7 L118.9 77.5 L119.0 77.3 L118.9 77.1 L118.9 77.0 L118.5 76.7 L118.5 76.6 L118.4 76.6 L118.4 76.5 L118.3 76.5 L118.3 76.4 L118.3 76.2 L118.3 76.0 L118.3 75.9 L118.3 75.9 L118.2 75.9 L117.8 75.7 L117.6 75.7 L117.4 75.9 L117.3 76.0 L117.4 76.1 L117.4 76.1 L117.3 76.2 L117.3 76.2 L117.2 76.2 L117.1 76.2 L117.1 76.0 L117.2 75.9 L117.2 75.8 L116.8 74.9 L116.6 74.7 L116.4 74.4 L116.2 74.3 L116.0 74.3 L115.9 74.2 L115.9 74.2 L115.8 74.2 L115.8 74.3 L115.8 74.4 L115.7 74.4 L115.7 74.5 L115.6 73.8 L115.7 73.6 L116.0 73.4 L116.1 73.3 L116.0 72.9 L115.7 72.4 L115.6 72.4 L115.7 72.5 L115.7 72.5 L115.7 72.6 L115.7 72.6 L115.7 72.6 L115.5 72.4 L114.8 71.7 L114.7 71.6 L114.5 71.6 L114.5 71.5 L114.4 71.4 L114.3 71.3 L114.2 71.3 L114.3 71.2 L114.1 71.2 L114.0 71.1 L113.9 70.9 L113.8 70.9 L114.2 69.7 L114.5 68.6 L114.7 68.7 L114.9 68.6 L115.1 68.5 L115.2 68.4 L115.3 68.1 L115.3 67.9 L115.1 67.5 L115.0 67.2 L115.0 66.8 L115.0 66.5 L115.2 66.4 L115.3 66.4 L115.8 66.8 L115.9 66.9 L115.9 66.9 L115.9 67.0 L115.9 67.0 L115.9 67.1 L116.0 67.1 L116.0 67.1 L116.3 67.5 L116.3 67.6 L116.4 68.0 L116.5 68.2 L116.7 68.1 L117.0 67.9 L117.4 67.5 L118.7 66.7 L119.0 66.5 L118.9 66.3 L118.7 66.1 L118.6 65.8 L118.6 65.7 L118.9 65.4 L119.2 64.8 L119.4 64.6 L119.6 64.5 L120.0 64.4 L120.2 64.3 L120.6 64.3 L120.6 64.3 L120.6 64.1 L120.5 64.1 L120.4 64.0 L120.3 63.9 L120.2 63.8 L120.2 63.5 L120.0 62.8 L119.7 62.3 L119.6 62.2 L119.4 61.8 L119.2 61.4 L119.1 61.3 L119.0 61.2 L118.9 61.2 L118.8 61.2 L118.7 61.0 L118.6 60.7 L118.5 60.1 L118.4 59.7 L118.2 59.5 L118.1 59.4 L118.0 59.3 L117.7 59.4 L117.6 59.3 L117.6 59.1 L117.7 58.8 L117.8 58.7 L118.0 58.4 L118.2 58.2 L118.1 58.0 L118.1 57.9 L118.1 57.9 L118.3 57.8 L118.4 57.7 L118.6 57.7 L118.7 57.6 L118.7 57.5 L118.7 57.5 L118.7 57.5 L118.7 57.4 L118.7 57.4 L118.9 57.5 L119.0 57.8 L119.1 58.0 L119.2 58.1 L119.3 58.2 L119.4 58.4 L119.4 58.5 L119.5 58.9 L119.6 59.1 L120.2 59.5 L120.7 59.7 L120.8 59.8 L120.9 59.9 L121.7 61.1 L121.9 61.3 L122.0 61.3 L122.3 61.3 L122.3 61.3 L122.4 61.4 L122.4 61.2 L122.5 61.2 L122.6 61.3 L122.6 61.5 L122.5 61.5 L122.5 61.5 L122.4 61.4 L122.4 61.7 L122.5 61.8 L122.6 61.9 L122.8 61.8 L122.8 62.0 L122.9 61.9 L122.9 62.0 L122.8 62.1 L122.8 62.3 L122.8 62.2 L122.7 62.2 L122.6 62.2 L122.7 62.5 L122.9 62.7 L123.1 62.6 L123.2 62.5 L123.7 62.5 L123.7 62.5 L123.6 62.6 L123.6 62.7 L123.6 62.8 L123.7 62.8 L123.7 62.8 L123.8 62.8 L123.8 62.8 L123.5 63.0 L123.5 63.0 L123.6 63.0 L123.6 63.1 L123.7 63.1 L123.7 63.2 L123.7 63.2 L123.7 63.2 L123.6 63.2 L123.6 63.1 L123.5 63.1 L123.4 63.1 L123.5 63.2 L123.6 63.3 L123.7 63.4 L123.7 63.5 L123.5 63.4 L123.2 63.3 L123.0 63.3 L122.9 63.5 L122.9 63.5 L122.9 63.5 L122.9 63.5 L123.0 63.5 L122.8 64.1 L123.0 64.4 L123.5 64.5 L124.1 64.6 L124.2 64.5 L124.3 64.5 L124.4 64.4 L124.5 64.4 L124.5 64.3 L124.5 64.2 L124.5 64.2 L124.5 64.1 L124.5 64.0 L124.6 63.9 L124.6 63.8 L124.7 63.2 L124.7 63.0 L124.6 62.8 L124.5 62.8 L124.5 62.9 L124.5 62.9 L124.6 63.0 L124.5 63.0 L124.4 62.9 L124.4 62.7 L124.4 62.4 L124.5 62.1 L124.5 61.9 L124.4 61.6 L124.3 61.3 L124.3 60.0 L124.3 59.8 L124.1 59.8 L124.0 59.7 L124.0 59.6 L123.9 59.4 L123.9 59.3 L123.7 59.1 L123.4 58.9 L123.0 58.7 L122.8 58.7 L122.8 58.7 L122.7 58.6 L122.8 58.4 L123.0 58.1 L123.2 57.9 L124.1 57.6 L124.3 57.6 L125.2 57.4 L125.3 57.3 L125.4 57.2 L125.4 57.1 L125.4 57.0 L125.4 56.9 L125.5 56.9 L125.5 56.8 L125.5 56.8 L125.5 56.7 L125.6 56.7 L126.3 56.5 L126.4 56.4 L126.8 56.0 L127.3 55.7 L127.5 55.5 L127.5 55.4 L127.4 55.3 L127.5 55.2 L128.1 55.1 L128.3 55.0 L128.5 54.9 L128.6 54.9 L128.6 54.8 L128.7 54.7 L129.0 54.4 L129.1 54.3 L129.0 54.0 L129.1 53.7 L129.3 53.5 L129.6 53.2 L129.7 53.1 L129.8 53.0 L129.9 52.2 L129.9 52.1 L130.0 52.1 L130.2 52.0 L130.3 52.0 L130.4 51.9 L130.5 51.8 L130.4 51.6 L130.5 51.5 L130.5 51.4 L130.6 51.3 L130.7 51.2 L130.8 51.2 L131.2 51.1 L131.5 51.0 L131.7 50.8 L131.9 50.6 L132.0 50.4 L132.0 50.3 L132.2 50.3 L132.3 50.4 L132.6 50.4 L133.0 50.3 L133.2 50.2 L133.3 50.2 L133.3 50.3 L133.4 50.4 L133.4 50.5 L133.3 50.4 L133.1 50.4 L133.0 50.4 L132.9 50.5 L132.9 50.6 L133.0 50.6 L133.1 50.6 L133.1 50.5 L133.2 50.6 L133.2 50.6 L133.2 50.7 L133.3 50.7 L133.5 50.5 L133.7 50.5 L133.9 50.4 L134.1 50.4 L134.3 50.5 L134.3 50.5 L134.6 50.6 L134.7 50.5 L135.0 50.2 L135.3 49.7 L135.4 49.1 L135.5 48.6 L135.4 48.3 L135.2 48.2 L135.2 48.1 L135.1 48.0 L134.9 48.0 L134.8 47.9 L134.7 47.8 L134.5 47.8 L134.4 47.9 L134.3 47.9 L134.3 47.8 L134.8 47.3 L134.9 47.1 L135.0 46.6 L135.0 46.3 L135.1 46.1 L135.2 45.9 L135.3 45.6 L135.3 45.4 L135.3 45.2 L135.5 44.7 L135.5 44.4 L135.3 44.0 L135.3 43.9 L135.4 43.8 L135.4 43.8 L135.5 43.7 L135.6 43.7 L135.6 43.7 L135.7 43.4 L135.8 43.3 L135.8 43.3 L135.8 43.2 L135.8 43.1 L135.8 43.0 L135.8 42.9 L135.9 42.8 L135.6 43.0 L135.2 43.2 L134.8 43.6 L134.4 43.8 L134.3 43.8 L134.4 43.5 L134.7 43.3 L134.8 43.2 L134.9 43.1 L134.9 43.1 L135.0 42.9 L135.1 42.8 L135.1 42.7 L135.1 42.6 L135.1 42.5 L135.3 42.5 L135.3 42.5 L135.2 42.4 L135.3 42.3 L135.3 42.2 L135.4 42.4 L135.6 42.4 L135.9 42.2 L136.0 42.1 L136.0 41.9 L136.0 41.6 L135.9 41.4 L135.9 41.4 L135.8 41.4 L135.8 41.4 L135.7 41.1 L135.6 41.1 L135.6 41.2 L135.6 41.3 L135.5 41.3 L135.4 41.3 L135.5 41.3 L135.5 41.1 L135.6 41.0 L135.6 41.0 L135.7 40.9 L135.8 40.8 L136.1 40.6 L136.1 40.5 L136.1 40.7 L136.0 40.8 L136.0 41.0 L136.1 41.1 L136.2 41.0 L136.3 40.8 L136.3 40.6 L136.3 40.4 L136.2 40.3 L136.2 40.3 L136.1 40.3 L136.1 40.2 L136.1 40.1 L136.1 40.1 L136.1 40.0 L136.1 39.9 L136.1 39.8 L136.0 39.8 L135.9 39.8 L136.0 39.7 L136.1 39.6 L136.2 39.5 L136.3 39.5 L136.4 39.5 L136.5 39.4 L136.6 39.3 L136.6 39.3 L136.5 39.2 L136.5 39.2 L136.6 39.1 L136.6 39.1 L136.7 39.1 L136.7 39.1 L136.8 39.1 L136.9 39.0 L136.9 38.9 L136.9 38.9 L137.0 38.8 L137.1 38.7 L137.1 38.7 L137.1 38.7 L137.4 38.6 L138.0 38.4 L138.1 38.4 L138.2 38.2 L138.2 38.1 L138.3 38.1 L138.3 38.1 L138.4 38.1 L138.4 38.2 L138.4 38.2 L138.4 38.3 L138.4 38.3 L138.4 38.3 L138.4 38.4 L138.4 38.4 L138.4 38.5 L138.5 38.5 L138.6 38.4 L138.8 38.2 L138.7 38.1 L138.7 38.0 L138.7 38.0 L138.7 37.9 L138.6 38.0 L138.5 38.1 L138.3 38.0 L138.3 37.8 L138.3 37.6 L138.7 37.5 L138.8 37.3 L138.9 37.3 L139.0 37.3 L139.1 37.3 L139.2 37.2 L139.8 36.8 L140.2 36.7 L140.4 36.6 L140.5 36.5 L140.5 36.3 L140.5 36.2 L140.6 36.0 L140.6 36.0 L140.7 35.9 L140.8 35.8 L141.0 35.8 L141.2 35.8 L141.3 35.6 L141.5 35.4 L141.6 35.3 L141.8 35.3 L142.1 35.3 L142.3 35.1 L142.3 35.0 L142.3 34.8 L142.2 34.7 L142.3 34.7 L142.5 34.8 L142.7 34.9 L143.2 35.0 L144.2 35.4 L144.8 35.6 L145.3 35.8 L145.8 35.8 L146.4 35.9 L147.0 35.8 L147.4 35.8 L147.3 35.9 L146.8 36.0 L145.9 36.0 L145.8 35.9 L145.7 35.9 L145.6 35.9 L145.5 36.0 L145.5 36.0 L145.5 36.1 L145.5 36.2 L145.4 36.3 L145.3 36.4 L145.4 36.7 L145.7 37.1 L145.5 37.0 L145.4 36.9 L145.3 36.8 L145.2 36.9 L145.1 36.8 L144.9 36.8 L144.7 36.8 L144.7 36.8 L144.6 36.9 L144.5 37.1 L144.5 37.3 L144.5 37.5 L144.5 37.7 L144.6 37.7 L144.7 37.7 L144.8 37.6 L144.8 37.4 L144.9 37.3 L144.9 37.4 L144.9 37.5 L145.0 37.5 L145.1 37.5 L145.1 37.6 L145.1 37.9 L145.2 38.0 L145.4 38.0 L145.5 37.9 L145.6 37.7 L145.4 37.8 L145.4 37.8 L145.3 37.7 L145.3 37.6 L145.3 37.4 L145.4 37.3 L145.5 37.3 L145.4 37.2 L145.6 37.2 L145.7 37.3 L145.8 37.5 L145.8 38.0 L145.9 38.1 L146.1 38.1 L146.4 38.1 L146.5 38.1 L146.6 38.0 L146.8 37.8 L146.8 37.8 L146.8 37.7 L147.1 37.2 L147.1 37.2 L147.1 36.9 L147.2 36.7 L147.2 36.6 L147.2 36.6 L147.4 36.4 L147.4 36.4 L147.5 36.0 L147.6 35.8 L148.1 35.0 L148.2 34.9 L148.1 34.8 L148.0 34.6 L148.0 34.5 L148.0 34.4 L148.0 34.3 L148.0 34.2 L148.0 34.1 L147.9 33.9 L147.9 33.8 L147.9 33.8 L148.0 33.7 L148.0 33.7 L148.0 33.6 L148.0 33.6 L148.0 33.6 L148.0 33.6 L148.0 33.5 L148.0 33.4 L148.2 33.2 L148.2 33.1 L148.3 33.1 L148.3 33.1 L148.3 33.0 L148.4 32.8 L148.6 32.7 L148.7 32.8 L148.8 32.7 L148.7 32.5 L148.8 32.5 L148.8 32.6 L148.8 32.6 L148.9 32.7 L149.0 32.6 L149.0 32.5 L149.0 32.5 L149.0 32.5 L149.1 32.5 L149.1 32.6 L149.1 32.6 L149.1 32.4 L149.2 32.4 L149.3 32.6 L149.4 32.6 L149.5 32.6 L149.5 32.5 L149.6 32.4 L149.6 32.5 L149.7 32.5 L149.7 32.4 L149.8 32.4 L149.8 32.4 L149.9 32.4 L150.1 32.4 L150.3 32.5 L150.5 32.6 L150.6 32.7 L150.7 32.7 L151.1 32.8 L151.4 33.0 L151.8 33.1 L152.9 33.2 L154.0 33.1 L154.2 33.1 L155.8 33.1 L156.8 33.0 L156.9 32.9 L156.9 32.8 L157.2 32.6 L157.5 32.5 L157.5 32.5 L157.6 32.4 L157.7 32.1 L157.7 32.1 L157.8 32.1 L157.9 32.0 L158.1 31.8 L158.2 31.7 L158.5 31.6 L159.0 31.1 L160.1 30.5 L161.8 29.2 L161.9 29.1 L162.3 29.0 L162.8 28.9 L163.0 28.8 L163.3 28.6 L163.5 28.7 L163.7 28.6 L163.9 28.4 L164.1 28.3 L164.6 28.3 L164.8 28.3 L165.0 28.2 L165.2 28.0 L165.5 27.9 L165.9 27.6 L166.4 27.4 L166.5 27.3 L166.7 27.1 L166.7 27.0 L166.7 26.9 L166.9 26.6 L167.2 26.1 L167.3 25.8 L167.5 25.5 L167.6 25.4 L167.6 25.2 L167.5 24.7 L167.5 24.5 L167.4 24.4 L167.4 24.4 L167.3 24.3 L167.2 24.3 L167.3 24.2 L167.3 24.1 L167.6 24.0 L167.9 24.1 L168.8 23.9 L169.1 24.0 L169.1 24.2 L168.7 24.6 L168.9 24.6 L169.0 24.9 L169.2 24.9 L169.4 24.8 L169.5 24.8 L169.5 24.7 L169.6 24.6 L169.7 24.5 L169.7 24.4 L169.9 24.4 L170.0 24.4 L170.1 24.4 L170.1 24.3 L170.1 24.2 L170.0 24.2 L170.0 24.1 L170.1 24.0 L170.0 23.9 L169.9 23.8 L169.9 23.8 L169.7 23.7 L169.6 23.7 L169.5 23.7 L169.4 23.8 L169.4 23.9 L169.3 23.9 L169.2 23.7 L169.7 23.4 L170.0 23.2 L170.0 23.1 L170.1 23.0 L170.1 23.0 L170.3 23.0 L170.3 23.0 L170.5 22.9 L170.5 22.8 L170.6 22.9 L170.5 23.0 L170.3 23.1 L170.3 23.2 L170.4 23.4 L170.5 23.4 L170.6 23.4 L170.7 23.4 L170.7 23.3 L170.7 23.3 L170.7 23.2 L170.7 23.2 L170.9 23.2 L170.9 23.2 L171.1 23.1 L171.2 23.0 L171.2 22.9 L171.3 22.8 L171.3 22.8 L171.2 22.8 L171.2 22.7 L171.2 22.6 L171.3 22.6 L171.4 22.5 L171.4 22.5 L171.5 22.5 L171.5 22.7 L171.5 22.8 L171.6 22.8 L171.7 23.0 L171.7 23.0 L171.7 22.9 L171.8 22.9 L171.8 22.8 L171.8 22.8 L171.7 22.7 L171.7 22.7 L171.8 22.7 L171.9 22.6 L172.0 22.6 L172.1 22.5 L172.2 22.5 L172.3 22.4 L172.2 22.4 L172.1 22.4 L172.0 22.5 L171.9 22.5 L171.9 22.5 L171.9 22.4 L171.9 22.3 L172.0 22.3 L171.9 22.3 L171.8 22.3 L171.8 22.3 L171.7 22.4 L171.7 22.2 L171.7 22.2 L171.8 22.1 L171.7 22.2 L171.4 22.4 L171.3 22.5 L171.3 22.5 L171.4 22.3 L171.5 22.1 L171.7 22.0 L171.9 22.0 L172.1 22.0 L172.3 22.2 L172.6 22.2 L173.2 22.2 L173.4 22.2 L173.6 22.3 L173.9 22.5 L174.0 22.6 L174.1 22.7 L174.2 22.7 L174.5 22.7 L174.6 22.7 L174.8 22.9 L175.0 22.9 L175.4 23.0 L175.7 23.2 L175.9 23.3 L176.0 23.5 L176.1 23.5 L176.1 23.6 L176.1 23.8 L176.7 24.7 L176.8 25.0 L177.1 25.5 L177.2 25.7 L177.1 25.9 L177.0 26.1 L176.9 26.2 L176.7 26.4 L176.0 26.8 L175.8 27.0 L175.7 27.0 L175.5 27.1 L175.4 27.1 L175.4 27.2 L175.2 27.7 L175.1 27.8 L175.1 27.8 L174.9 27.8 L174.7 27.9 L174.4 28.1 L174.0 28.3 L173.7 28.3 L173.2 28.5 L172.7 28.6 L172.1 28.8 L171.6 28.9 L171.0 29.0 L170.5 29.2 L169.9 29.3 L169.4 29.5 L169.1 29.5 L168.9 29.7 L168.8 29.9 L168.7 30.1 L168.4 30.6 L168.1 31.1 L167.9 31.6 L167.6 32.1 L167.3 32.6 L167.0 33.1 L166.7 33.6 L166.5 34.1 L166.4 34.3 L166.2 34.3 L165.8 34.2 L165.7 34.2 L165.5 34.2 L165.0 34.4 L164.6 34.4 L164.4 34.5 L164.2 34.6 L164.2 34.7 L164.1 34.8 L164.1 34.9 L164.0 35.0 L163.9 35.2 L163.8 35.3 L163.5 36.1 L163.3 36.3 L163.1 36.5 L162.7 36.8 L162.5 37.1 L162.3 37.5 L161.8 38.7 L161.6 39.2 L161.0 39.8 L160.8 40.3 L160.7 40.5 L160.5 40.6 L160.4 40.8 L160.3 41.0 L160.3 41.1 L160.3 41.2 L160.3 41.4 L160.1 43.4 L159.6 45.1 L159.6 45.4 L159.6 45.8 L159.5 46.0 L159.6 46.2 L159.7 46.4 L159.7 46.6 L159.7 46.8 L159.4 47.4 L158.8 48.2 L158.6 48.8 L158.5 49.0 L158.4 49.1 L158.0 49.4 L157.9 49.5 L157.7 49.9 L156.9 51.0 L156.6 51.8 L156.5 52.0 L156.3 52.2 L156.0 52.4 L155.9 52.6 L155.9 52.8 L156.0 52.9 L156.1 52.8 L157.1 52.8 L157.5 52.8 L157.9 52.6 L158.2 52.3 L158.4 52.2 L158.6 52.1 L158.8 52.0 L159.2 51.6 L159.4 51.6 L159.5 51.7 L159.6 52.0 L159.6 52.1 L159.6 52.2 L159.6 52.2 L159.6 52.2 L159.7 52.3 L159.7 52.4 L159.7 52.6 L159.7 53.0 L159.8 53.2 L159.9 53.4 L160.1 53.5 L160.3 53.4 L160.6 53.2 L160.7 53.1 L160.8 53.1 L160.9 53.1 L161.0 53.1 L161.1 53.1 L161.1 53.1 L161.3 53.2 L161.5 53.3 L161.5 53.4 L161.4 53.6 L161.5 53.8 L161.6 54.0 L161.7 54.4 L161.8 54.8 L161.9 55.2 L162.0 55.6 L162.1 56.0 L162.2 56.5 L162.3 56.9 L162.4 57.3 L162.5 57.6 L162.7 58.0 L162.9 58.1 L163.1 58.3 L163.3 58.5 L163.5 58.7 L163.6 58.9 L163.8 59.1 L164.0 59.3 L164.2 59.5 L164.4 59.7 L164.6 60.0 L164.7 60.0 L164.8 60.1 L164.9 60.1 L165.0 60.2 L165.0 60.2 L165.1 60.3 L165.2 60.4 L165.2 60.6 L165.3 60.7 L165.3 60.9 L165.2 61.2 L165.2 61.3 L165.2 61.5 L165.5 62.1 L165.7 62.8 L165.7 63.1 L165.6 63.3 L165.4 63.3 L165.2 63.3 L165.1 63.3 L165.0 63.5 L164.9 63.7 L164.8 63.8 L164.7 63.9 L164.6 64.1 L164.5 64.1 L164.4 64.1 L164.3 64.2 L164.3 64.3 L164.3 64.4 L164.5 64.6 L164.6 64.7 L164.6 64.9 L164.6 65.3 L164.6 65.5 L164.4 66.0 L164.3 67.0 L164.4 67.2 L164.5 67.6 L164.5 67.7 L164.5 67.9 L164.4 68.1 L164.4 68.3 L164.4 68.5 L164.6 69.0 L165.0 69.2 L165.2 69.3 L165.4 69.3 L165.9 69.4 L166.6 69.4 L166.9 69.5 L167.3 69.9 L167.3 69.9 L167.3 70.0 L167.2 70.4 L167.2 70.5 L167.3 70.7 L167.3 71.0 L167.4 71.3 L167.9 72.3 L168.1 72.4 L168.2 72.5 L168.5 72.6 L168.6 72.7 L168.8 72.9 L168.9 72.9 L168.9 72.9 L169.2 73.0 L170.0 73.2 L170.3 73.2 L170.4 73.2 L170.5 73.1 L170.6 73.1 L170.7 73.0 L170.8 73.0 L170.9 73.0 L171.0 73.0 L171.0 72.8 L171.2 72.8 L171.5 72.8 L171.7 72.7 L171.9 72.8 L171.9 72.7 L172.0 72.6 L172.1 72.6 L172.4 72.6 L172.5 72.6 L172.5 72.7 L172.6 72.8 L172.7 72.8 L172.8 72.8 L172.9 72.7 L173.0 72.7 L173.0 72.7 L173.0 72.8 L173.1 72.8 L173.1 72.8 L173.3 72.8 L173.3 72.8 L173.3 72.8 L173.4 72.7 L173.6 72.8 L173.8 73.0 L173.9 72.9 L174.2 72.8 L174.3 72.8 L174.5 72.8 L174.8 72.9 L174.9 72.9 L175.3 72.8 L175.5 72.8 L175.5 72.9 L175.6 73.0 L175.6 73.1 L175.6 73.2 L175.7 73.3 L176.2 73.3 L176.3 73.3 L176.4 73.4 L176.5 73.4 L176.6 73.4 L176.8 73.3 L176.8 73.2 L176.9 73.1 L177.6 73.2 L178.1 73.2 L178.6 73.0 L179.0 72.7 L179.1 72.6 L179.1 72.5 L179.2 72.4 L179.4 72.4 L179.7 72.3 L180.1 72.3 L180.7 72.1 L181.0 72.1 L181.0 72.2 L181.2 72.3 L181.2 72.3 L181.6 72.4 L181.7 72.4 L182.0 72.3 L182.1 72.3 L182.2 72.3 L182.7 72.9 L182.8 73.0 L182.9 73.0 L183.0 73.0 L183.2 73.0 L183.3 73.0 L183.4 73.0 L183.4 73.1 L183.4 73.1 L183.6 73.2 L184.6 73.6 L184.8 73.7 L185.4 73.4 L185.7 73.3 L186.1 73.3 L186.3 73.3 L186.6 73.6 L186.8 73.8 L187.5 74.7 L188.2 75.6 L188.9 76.5 L189.6 77.4 L190.3 78.2 L191.0 79.1 L191.7 80.0 L192.5 80.9 L192.7 81.3 L192.8 81.3 L192.8 81.3 L193.1 81.2 L193.5 81.0 L193.8 80.9 L194.0 81.0 L194.4 81.5 L194.6 81.7 L195.1 81.4 L195.7 80.8 L195.9 80.7 L196.1 80.4 L196.3 80.4 L196.5 80.4 L196.7 80.4 L197.1 80.6 L197.2 80.5 L197.4 80.6 L197.7 80.6 L197.9 80.7 L198.5 80.7 L198.7 80.7 L199.3 80.9 L199.5 80.9 L199.7 80.9 L200.1 81.1 L200.3 81.1 L200.4 81.1 L200.6 80.9 L200.7 80.8 L201.3 80.8 L202.0 80.6 L202.2 80.6 L202.4 80.6 L203.0 80.8 L203.4 80.8 L204.4 80.4 L204.8 80.3 L206.0 80.4 L206.4 80.4 L206.7 80.3 L206.8 80.2 L206.9 80.2 L207.0 80.1 L207.0 80.0 L207.1 80.0 L207.1 79.8 L207.2 79.8 L207.3 79.8 L207.4 79.8 L207.5 79.7 L207.7 79.5 L207.8 79.5 L207.9 79.5 L208.1 79.5 L208.7 79.6 L210.2 79.9 L210.5 80.1 L210.7 80.3 L211.0 80.5 L211.3 80.6 L211.3 80.6 L211.3 80.6 L211.1 80.7 L211.0 80.8 L211.0 81.0 L211.0 81.3 L211.3 81.9 L211.5 82.0 L211.6 82.2 L211.6 82.4 L211.6 82.6 L211.5 82.7 L211.2 82.8 L211.0 82.9 L210.6 83.4 L210.5 83.6 L209.9 84.1 L209.7 84.4 L209.6 84.8 L209.5 85.2 L209.5 85.6 L209.6 86.2 L209.6 86.4 L209.6 86.4 L209.8 86.5 L209.8 86.6 L209.8 86.7 L209.7 86.8 L209.7 86.8 L209.6 86.9 L209.5 87.2 L209.5 87.3 L209.3 87.3 L209.2 87.4 L209.1 87.6 L209.0 87.6 L208.7 87.7 L208.7 87.8 L208.6 87.9 L208.5 87.9 L208.5 87.9 L208.4 87.9 L208.3 87.9 L208.0 88.2 L207.8 88.6 L207.7 89.0 L207.8 89.3 L207.8 89.5 L207.9 89.6 L207.9 89.8 L208.0 90.0 L207.9 90.1 L207.8 90.3 L207.8 90.4 L207.8 90.5 L207.8 90.6 L207.8 90.7 L207.9 90.8 L207.9 90.9 L208.1 91.1 L208.1 91.2 L208.1 91.3 L208.1 91.3 L208.0 91.4 L208.0 91.4 L208.0 91.8 L208.0 92.0 L207.9 92.4 L207.8 92.7 L207.8 92.9 L207.8 93.0 L207.9 93.2 L208.0 93.2 L207.9 93.3 L207.9 93.4 L207.9 93.5 L208.0 93.6 L207.9 93.7 L207.9 94.1 L207.8 94.3 L207.7 94.4 L207.7 94.6 L207.6 95.2 L207.6 95.4 L207.6 95.7 L207.6 95.8 L207.5 95.9 L207.4 95.9 L207.4 96.0 L207.4 96.1 L207.4 96.2 L207.5 96.3 L207.5 96.4 L207.6 96.4 L207.6 96.4 L207.8 96.5 L207.9 96.6 L208.0 96.9 L208.0 97.0 L208.1 97.0 L208.1 97.1 L208.1 97.2 L208.1 97.3 L208.1 97.4 L208.1 97.5 L208.2 97.7 L208.3 97.8 L208.2 97.9 L208.1 98.2 L208.0 98.6 L208.1 98.9 L208.2 99.2 L208.2 99.5 L208.3 99.6 L208.5 99.8 L208.6 100.0 L208.7 100.3 L208.8 100.4 L208.9 100.6 L208.9 100.7 L208.9 100.7 L208.9 100.7 L209.0 101.0 L209.0 101.5 L209.1 101.7 L209.4 102.4 L209.5 102.6 L209.6 103.1 L209.6 103.3 L209.8 103.5 L210.0 103.6 L210.2 103.6 L210.3 103.6 L210.5 103.6 L210.9 103.7 L211.1 104.1 L211.8 105.7 L211.9 105.9 L212.0 106.0 L212.4 106.1 L212.7 106.4 L212.7 106.8 L212.4 107.2 L211.9 107.9 L211.7 108.0 L211.6 108.1 L211.4 108.1 L211.3 108.1 L211.2 108.3 L210.8 108.7 L210.4 109.0 L210.0 109.4 L209.6 109.8 L209.2 110.2 L208.8 110.5 L208.4 110.9 L208.0 111.3 L207.7 111.5 L207.6 111.7 L207.6 112.4 L207.7 112.3 L207.8 112.1 L207.9 112.0 L208.0 112.0 L208.3 112.0 L208.4 112.0 L208.5 111.9 L208.6 111.9 L208.7 112.0 L209.1 112.2 L209.3 112.3 L209.5 112.2 L209.7 112.2 L209.9 112.3 L210.0 112.5 L210.1 112.7 L210.1 113.1 L210.2 113.3 L210.3 113.4 L210.7 113.4 L210.9 113.5 L211.0 113.6 L211.1 113.7 L211.1 113.8 L211.2 113.9 L211.2 114.0 L211.4 114.1 L211.5 114.1 L211.5 114.2 L211.7 114.4 L211.7 114.4 L211.8 114.5 L211.9 114.5 L211.9 114.6 L212.0 114.7 L212.1 114.8 L212.3 114.9 L212.4 115.0 L212.4 115.1 L212.5 115.2 L212.5 115.3 L212.6 115.4 L212.7 115.4 L212.8 115.5 L213.0 115.7 L213.1 115.7 L213.4 115.8 L213.7 116.0 L213.8 116.1 L213.8 116.2 L213.8 116.3 L213.9 116.4 L213.9 116.6 L213.8 116.8 L213.6 117.0 L213.5 117.1 L213.5 117.3 L213.7 117.6 L213.7 117.9 L213.9 118.3 L214.0 118.4 L214.1 118.5 L214.3 118.6 L214.4 118.6 L214.5 118.8 L214.5 119.3 L214.5 119.5 L214.4 119.5 L214.3 119.7 L214.3 119.8 L214.4 119.9 L214.4 120.0 L214.5 120.1 L214.7 120.3 L214.7 120.3 L214.8 120.4 L214.9 120.7 L215.7 122.9 L215.8 123.1 L215.8 123.5 L215.8 123.7 L215.9 123.9 L216.1 124.2 L216.2 124.4 L216.2 124.6 L216.1 125.0 L216.2 125.1 L216.3 125.2 L216.4 125.3 L216.5 125.4 L216.6 125.6 L216.6 125.8 L216.6 126.1 L216.5 126.4 L216.5 126.6 L216.7 127.0 L216.4 127.1 L215.8 127.3 L214.9 127.5 L214.7 127.5 L214.7 127.2 L214.6 126.7 L214.9 124.0 L214.8 123.5 L214.5 122.5 L214.1 121.7 L213.1 120.4 L212.9 120.0 L212.6 119.3 L212.4 118.9 L212.1 118.7 L212.0 118.6 L211.6 118.5 L211.4 118.5 L211.4 118.5 L211.2 118.7 L211.1 118.7 L210.8 118.8 L210.6 118.9 L210.4 119.1 L210.0 119.2 L209.3 120.0 L208.2 121.5 L207.9 121.8 L207.5 122.0 L207.2 122.1 L206.9 122.2 L206.5 122.2 L206.2 122.1 L205.9 121.8 L205.7 121.5 L205.5 121.1 L205.3 120.5 L205.2 120.3 L205.0 120.2 L204.8 120.1 L204.6 120.0 L204.6 120.0 L204.5 119.9 L204.5 119.9 L204.5 119.7 L204.4 119.6 L204.3 119.7 L203.8 121.1 L203.6 121.4 L203.7 121.4 L203.9 121.4 L204.0 121.5 L204.0 121.7 L204.0 121.9 L204.3 121.9 L204.4 122.0 L204.4 122.0 L204.4 122.2 L204.4 122.2 L204.5 122.3 L204.7 122.4 L204.0 122.4 L203.5 122.4 L202.4 122.4 L200.7 122.4 L198.8 122.4 L196.9 122.4 L195.2 122.4 L194.0 122.4 L193.6 122.4 L193.2 122.3 L192.5 122.0 L191.8 121.9 L191.5 121.9 L190.8 122.2 L190.4 122.2 L190.2 122.2 L190.1 122.2 L189.9 122.2 L189.5 122.4 L189.3 122.5 L189.0 122.5 L188.9 122.5 L188.9 122.9 L188.9 123.5 L188.9 124.1 L188.9 124.8 L188.9 125.4 L188.9 126.1 L188.9 126.7 L188.9 127.3 L188.9 128.0 L188.9 128.5 L189.1 128.6 L189.5 128.3 L189.8 128.2 L189.9 128.3 L190.0 128.3 L190.1 128.3 L190.1 128.5 L190.2 128.6 L191.1 128.4 L191.3 128.4 L191.7 128.6 L191.8 128.6 L192.1 128.6 L192.4 128.5 L192.5 128.5 L192.6 128.6 L192.6 128.6 L192.6 128.7 L192.7 128.7 L192.9 128.8 L193.0 128.8 L193.4 128.5 L193.6 128.5 L193.7 128.5 L194.2 128.7 L194.3 128.8 L194.5 129.0 L194.6 129.1 L194.7 129.2 L194.7 129.3 L194.7 129.4 L194.8 129.5 L195.0 129.6 L194.9 130.0 L195.1 130.1 L195.3 130.2 L195.4 130.3 L195.4 130.3 L195.4 130.5 L195.4 130.5 L195.3 130.5 L195.2 130.6 L195.2 130.7 L195.3 131.2 L195.3 131.4 L195.2 131.5 L195.1 131.5 L195.1 131.6 L195.1 131.8 L195.2 131.8 L195.4 131.9 L195.5 132.0 L195.6 132.2 L195.6 132.4 L195.5 132.5 L195.4 132.5 L195.3 132.5 L195.1 132.5 L195.0 132.5 L194.9 132.5 L194.8 132.7 L194.8 132.7 L194.6 132.7 L194.3 132.7 L194.1 132.7 L194.1 132.4 L194.0 132.3 L193.9 132.3 L193.7 132.4 L193.5 132.5 L193.4 132.4 L192.8 131.8 L192.6 131.6 L192.4 131.6 L192.2 131.6 L192.0 131.7 L191.7 131.9 L191.5 131.9 L191.3 132.0 L191.2 132.2 L191.1 132.4 L190.8 132.3 L190.5 132.2 L190.4 132.2 L190.0 132.5 L189.7 132.6 L189.4 132.8 L189.0 132.8 L188.3 132.9 L188.2 132.9 L188.0 133.0 L187.8 132.9 L187.5 132.9 L187.3 133.0 L187.2 133.1 L187.0 132.9 L187.0 133.6 L187.0 133.8 L187.0 134.5 L187.0 135.3 L186.9 136.4 L186.9 137.4 L186.9 138.3 L186.9 138.9 L186.9 139.1 L186.8 139.6 L186.9 139.9 L187.0 140.1 L187.4 140.5 L187.8 141.0 L188.1 141.3 L188.2 141.4 L188.3 141.4 L188.7 141.5 L188.9 141.6 L188.9 141.7 L189.0 141.9 L189.1 142.0 L189.2 142.1 L189.4 142.2 L189.5 142.2 L189.8 142.6 L189.9 142.7 L190.6 142.9 L190.8 143.0 L191.0 143.2 L191.1 143.3 L191.2 143.5 L191.2 143.7 L191.2 144.0 L191.2 144.1 L191.3 144.2 L191.3 144.3 L191.4 144.3 L191.4 144.5 L191.4 144.7 L191.1 145.1 L191.0 145.3 L191.1 145.5 L191.4 145.9 L191.5 146.0 L191.5 146.3 L191.5 146.4 L191.6 146.5 L191.7 146.6 L191.7 146.6 L191.8 146.6 L191.9 146.7 L191.9 146.9 L191.8 146.9 L191.8 147.0 L191.9 147.2 L192.0 147.2 L192.2 147.3 L192.3 147.4 L192.5 147.7 L192.5 147.7 L192.6 147.7 L192.7 147.7 L192.7 147.8 L192.7 147.9 L192.7 147.9 L192.8 148.2 L192.7 148.3 L192.7 148.5 L192.7 148.6 L193.0 149.2 L193.1 149.5 L192.9 150.0 L192.9 150.0 L193.0 150.4 L192.8 151.3 L192.8 151.7 L192.6 152.4 L192.7 152.5 L192.5 153.0 L192.4 153.6 L192.1 155.1 L191.9 156.6 L191.6 158.1 L191.3 159.6 L191.0 161.1 L190.8 162.6 L190.5 164.1 L190.2 165.6 L189.9 167.1 L189.7 168.6 L189.4 170.1 L189.1 171.7 L188.8 173.2 L188.6 174.7 L188.3 176.2 L188.0 177.7 L188.0 177.7 L188.0 177.7 L188.0 177.7 L188.0 177.8 L188.0 177.8 L188.0 177.8 L188.0 177.8 L187.9 177.8 L187.9 177.9 L187.9 177.9 L187.9 177.9 L187.9 177.9 L187.9 177.9 L187.9 178.0 L187.9 178.0 L187.9 178.0 L187.6 177.5 L187.4 177.2 L187.2 177.0 L187.0 176.8 L186.0 176.3 L185.8 176.1 L185.7 175.8 L185.6 175.4 L185.5 175.1 L185.3 174.8 L185.0 174.5 L184.6 174.2 L184.3 174.1 L184.0 174.1 L183.8 174.2 L183.4 174.6 L183.2 174.7 L182.9 174.7 L182.4 174.5 L182.4 174.5 L181.1 173.8 L180.7 173.8 L181.0 173.3 L181.7 172.1 L182.5 171.0 L183.2 169.8 L183.9 168.7 L184.7 167.6 L185.4 166.4 L186.1 165.3 L186.9 164.1 L187.1 163.8 L187.1 163.8 L187.0 163.8 L186.9 163.7 L186.8 163.6 L186.8 163.4 L186.6 163.0 L186.5 163.0 L186.4 163.1 L186.3 163.2 L186.3 163.3 L186.2 163.3 L186.1 163.4 L186.0 163.3 L186.0 163.2 L186.0 163.1 L186.0 163.0 L185.8 162.9 L185.7 162.9 L185.5 163.0 L185.3 163.0 L185.2 162.8 L185.1 162.4 L185.0 162.2 L184.8 162.1 L184.6 162.2 L184.4 162.3 L184.2 162.3 L184.1 162.3 L184.1 162.3 L184.0 162.2 L184.0 162.1 L184.1 162.0 L184.2 162.0 L184.3 162.0 L184.3 161.8 L184.2 161.7 L184.0 161.6 L183.8 161.6 L183.7 161.7 L183.5 161.8 L183.4 161.8 L183.3 161.7 L183.2 161.6 L183.2 161.5 L183.1 161.4 L183.0 161.3 L182.8 161.3 L182.7 161.2 L182.5 161.2 L182.4 161.1 L182.3 161.0 L182.1 160.9 L182.0 161.0 L181.9 161.1 L182.0 161.2 L181.9 161.3 L181.9 161.3 L181.5 161.3 L181.4 161.3 L181.4 161.2 L181.4 161.0 L181.4 160.9 L181.3 160.8 L181.0 160.6 L181.0 160.6 L181.0 160.3 L181.0 160.2 L180.9 160.2 L180.7 160.1 L180.5 160.1 L180.2 160.0 L179.9 159.8 L179.4 159.3 L179.1 159.1 L178.9 159.2 L178.7 159.1 L178.3 159.0 L178.0 159.0 L177.9 159.1 L177.9 159.3 L178.0 159.5 L177.9 159.6 L177.8 159.6 L177.7 159.6 L177.5 159.4 L177.3 159.4 L177.1 159.5 L176.9 159.6 L176.7 160.0 L176.4 160.1 L176.2 160.3 L176.1 160.3 L176.0 160.3 L175.9 160.2 L175.8 160.2 L175.7 160.2 L175.5 160.3 L175.3 160.4 L175.2 160.2 L174.6 160.6 L174.3 160.6 L174.2 160.4 L174.2 160.4 L174.3 160.2 L174.4 160.2 L174.3 160.1 L174.1 159.8 L173.9 159.5 L173.8 159.5 L173.7 159.6 L173.6 159.9 L173.5 160.1 L173.4 160.0 L173.3 159.8 L173.3 159.5 L173.3 159.3 L173.2 159.2 L172.6 159.1 L172.4 159.0 L172.3 158.8 L172.1 158.7 L171.9 158.7 L171.5 158.9 L171.4 158.9 L171.3 158.7 L171.3 158.4 L171.2 158.4 L171.0 158.4 L170.5 158.8 L170.4 158.8 L170.3 158.9 L170.0 159.4 L169.6 159.7 L169.5 159.8 L169.5 160.0 L169.3 160.1 L169.2 160.2 L168.6 160.1 L168.3 160.1 L168.0 160.2 L167.8 160.4 L167.3 160.9 L167.2 160.9 L166.6 160.8 L166.5 160.8 L166.3 160.9 L166.2 160.9 L166.2 161.1 L166.2 161.2 L166.1 161.2 L165.9 161.2 L165.5 161.3 L165.3 161.3 L165.2 161.3 L165.0 161.2 L164.9 161.1 L164.8 161.0 L164.7 160.9 L163.8 160.7 L163.6 160.7 L163.2 160.3 L163.0 160.3 L162.8 160.2 L162.7 160.4 L162.5 160.9 L162.4 161.0 L162.2 161.1 L162.1 161.0 L162.1 160.8 L162.1 160.7 L162.1 160.6 L162.0 160.5 L161.9 160.6 L161.8 160.7 L161.8 160.8 L161.7 160.9 L161.5 160.7 L161.3 160.6 L161.1 160.8 L160.8 160.9 L160.7 161.0 L160.6 161.0 L160.2 161.1 L160.1 161.1 L160.0 161.0 L160.0 160.9 L159.8 160.4 L159.7 160.3 L159.6 160.3 L159.0 159.9 L159.0 160.0 L158.9 160.2 L158.7 160.3 L158.7 160.1 L158.6 160.1 L158.2 160.0 L158.0 159.9 L158.0 159.8 L158.0 159.5 L157.9 159.5 L157.8 159.4 L157.8 159.3 L157.8 159.3 L157.7 159.1 L157.7 159.0 L157.7 158.9 L157.7 158.9 L157.8 158.8 L158.1 158.5 L158.2 158.3 L158.5 157.8 L158.4 157.7 L158.3 157.5 L158.2 157.3 L158.2 157.1 L158.0 156.9 L157.9 156.7 L157.9 156.6 L157.9 156.5 L158.0 156.2 L158.0 156.1 L158.0 156.0 L157.8 155.7 L157.7 155.6 L157.8 155.2 L157.7 155.1 L157.6 155.1 L157.5 155.1 L157.5 155.0 L157.2 154.7 L157.1 154.7 L157.1 155.0 L157.0 155.0 L156.7 154.9 L156.6 154.9 L156.4 155.1 L156.3 155.2 L156.2 155.2 L156.0 155.0 L155.9 154.9 L155.8 154.9 L155.7 154.9 L155.6 154.9 L155.5 154.9 L155.4 154.9 L155.4 154.8 L155.4 154.7 L155.3 154.7 L154.7 154.3 L154.6 154.1 L154.6 153.7 L154.7 153.4 L154.8 153.3 L155.0 153.1 L155.0 152.9 L154.9 152.6 L154.9 152.4 L154.9 152.3 L154.9 152.2 L154.8 152.1 L154.6 152.0 L154.5 151.8 L154.2 151.7 L154.1 151.5 L154.2 151.3 L154.3 151.3 L154.1 151.2 L154.1 151.1 L154.0 151.0 L154.0 151.0 L154.0 150.8 L154.0 150.7 L153.9 150.6 L153.9 150.6 L153.8 150.6 L153.7 150.6 L153.7 150.6 L153.7 150.5 L153.6 150.3 L153.6 150.2 L153.6 150.2 L153.4 150.1 L153.2 150.0 L153.1 149.9 L152.9 149.9 L152.7 149.8 L152.5 149.7 L152.5 149.5 L152.3 149.5 L152.2 149.8 L152.0 149.9 L151.9 149.9 L151.8 149.8 L151.5 149.7 L151.4 149.7 L151.3 149.6 L151.1 149.3 L151.0 148.9 L150.9 148.8 L150.8 148.8 L150.5 148.8 L150.4 148.8 L150.3 148.7 L150.4 148.5 L150.4 148.5 L150.3 148.4 L150.3 148.4 L150.3 148.5 L150.2 148.5 L150.1 148.6 L150.1 148.6 L150.0 148.6 L149.9 148.6 L149.8 148.5 L149.8 148.4 L149.6 147.8 L149.5 147.7 L149.3 148.0 L149.1 148.0 L148.5 147.8 L147.9 147.7 L147.7 147.5 L147.5 147.2 L147.3 146.8 L147.3 146.7 L147.0 146.5 L147.0 146.5 L147.0 146.3 L147.1 146.3 L147.3 146.4 L147.4 146.4 L147.5 146.2 L147.4 146.1 L147.3 146.0 L147.3 145.9 L147.4 145.8 L147.3 145.7 L147.1 145.7 L147.0 145.7 L147.0 145.7 L146.6 145.3 L146.6 145.2 L146.6 145.0 L146.6 144.9 L146.7 144.8 L146.8 144.8 L146.3 143.8 L146.3 143.7 L146.3 143.7 L146.3 143.6 L146.3 143.5 L146.2 143.5 L146.1 143.5 L146.1 143.4 L146.0 143.3 L145.8 143.2 L145.7 143.1 L145.2 142.7 L144.9 142.5 L144.5 142.1 L144.3 141.7 L144.2 141.6 L144.1 141.6 L144.0 141.7 L143.9 141.7 L143.9 141.7 L143.8 141.7 L143.7 141.7 L143.7 141.7 L143.6 141.6 L143.6 141.6 L143.5 141.5 L143.5 141.5 L143.2 141.5 L143.1 141.4 L143.0 141.4 L142.8 141.4 L142.9 141.2 L143.1 141.0 L142.8 140.4 L142.7 140.2 L142.5 140.0 L142.4 140.1 L142.1 140.4 L142.0 140.5 L141.9 140.5 L141.8 140.5 L141.5 140.4 L141.3 140.3 L141.1 140.2 L140.8 139.8 L140.7 139.7 L140.6 139.7 L140.4 139.7 L140.4 139.7 L140.3 139.6 L139.9 139.1 L139.7 138.9 L139.5 138.8 L139.1 138.7 L138.9 138.7 L138.8 138.7 L138.7 138.8 L138.6 139.0 L138.6 139.1 L138.5 139.3 L138.3 139.4 L138.2 139.4 L138.0 139.3 L137.4 139.1 L136.9 139.0 L136.7 138.9 L136.5 138.8 L136.0 138.5 L135.5 138.1 L135.3 138.0 L135.3 138.0 L135.1 137.8 L135.0 137.7 L134.8 137.6 L134.6 137.7 L134.2 137.8 L134.0 137.8 L133.8 137.8 L133.6 137.7 L133.5 137.6 L133.2 137.5 L132.8 137.2 L132.7 137.1 L132.2 136.7 L131.9 136.5 L131.8 136.4 L131.8 136.2 L131.8 136.1 L131.1 135.3 L131.1 135.2 L131.0 135.0 L130.8 135.1 L130.6 135.1 L130.4 135.2 L130.3 135.1 L130.3 134.8 L130.2 134.7 L130.2 134.7 L130.0 134.7 L129.8 134.7 L129.6 134.7 L129.4 134.6 L129.2 134.6 L129.0 134.4 L128.8 134.2 L128.7 134.1 L128.6 134.2 L128.4 134.3 L128.4 134.3 L128.3 134.4 L128.1 134.6 L128.0 134.7 L127.9 134.7 L127.7 134.7 L127.6 134.7 L127.6 134.7 L127.6 135.4 L127.7 136.1 L127.5 136.2 L126.6 136.3 L126.4 136.4 L126.2 136.4 L126.0 136.4 L125.8 136.1 L125.6 136.0 L125.5 136.0 L125.1 135.9 L124.7 135.8 L124.6 135.9 L124.6 136.3 L124.5 136.3 L124.2 136.1 L124.1 136.1 L123.4 136.2 L123.3 136.2 L123.1 136.1 L123.0 136.0 L122.8 135.8 L122.7 135.8 L122.5 135.7 L122.4 135.7 L122.0 135.7 L121.7 135.6 L121.4 135.2 L121.2 135.1 L121.1 135.1 L120.9 135.1 L120.4 135.3 L120.2 135.3 L120.1 135.3 L119.9 135.2 L119.8 135.1 L118.8 134.9 L118.5 134.8 L118.2 134.6 L118.1 134.4 L118.1 134.1 L118.0 133.8 L117.9 132.8 L117.8 132.4 L117.4 132.3 L117.4 132.3 L117.1 132.3 L116.7 132.2 L116.1 131.7 L115.9 131.5 L115.9 130.8 L115.6 130.6 L115.4 130.6 L114.6 130.8 L114.4 130.9 L114.2 130.9 L114.0 130.8 L113.8 130.8 L113.7 130.7 L113.7 130.6 L113.7 130.5 L113.7 130.4 L113.6 130.3 L113.5 130.3 L113.5 130.3 L113.4 130.3 L112.8 130.0 L112.1 130.0 L111.7 129.8 L110.5 128.9 L110.3 128.8 L109.7 128.7 L109.6 128.6 L109.3 128.4 L108.5 127.4 L108.4 127.4 L108.3 127.3 L107.8 127.2 L107.6 127.2 L107.5 127.3 L107.4 127.1 L107.3 126.9 L107.2 126.8 L107.2 126.6 L107.1 126.6 L107.0 126.7 L106.8 126.7 L106.6 126.6 L106.4 126.5 L106.3 126.3 L106.2 126.1 L106.1 125.9 L105.8 125.7 L105.6 125.4 L105.1 125.0 Z" fill="#172033" fill-rule="evenodd"/></svg>
