<svg xmlns="http://www.w3.org/2000/svg" viewBox="0 0 320 200" role="img"><path d="M187.4 35.4 L187.9 35.4 L188.1 35.5 L188.3 35.5 L188.6 35.6 L188.6 35.7 L188.5 35.8 L188.5 36.0 L188.7 35.9 L188.9 35.7 L189.0 35.5 L189.2 35.5 L190.0 36.0 L191.0 37.1 L192.2 39.4 L193.1 41.8 L193.0 43.3 L192.3 42.5 L191.0 39.3 L191.8 43.2 L191.7 44.8 L190.3 46.0 L191.1 45.9 L191.6 45.5 L192.1 45.1 L192.7 44.7 L192.5 45.0 L192.4 45.3 L192.5 45.6 L192.7 46.0 L192.9 45.4 L193.1 44.3 L193.4 43.7 L195.8 50.2 L198.7 57.1 L202.3 63.0 L211.6 75.1 L212.4 75.7 L215.5 79.5 L217.4 81.3 L218.6 80.7 L219.1 81.0 L220.4 81.2 L220.6 81.6 L220.7 82.5 L220.8 83.3 L221.2 83.9 L221.8 84.6 L224.1 88.0 L224.8 88.5 L227.7 92.2 L229.8 94.2 L231.1 93.9 L231.3 94.6 L231.6 96.6 L232.1 97.5 L232.8 98.1 L236.1 99.2 L237.3 99.4 L238.4 99.3 L239.5 99.4 L240.5 99.9 L241.7 101.7 L242.5 102.2 L242.6 102.3 L243.1 104.1 L242.7 104.1 L242.0 103.7 L241.2 103.6 L240.9 104.2 L240.7 106.0 L240.4 106.7 L239.7 106.8 L238.8 106.6 L237.9 106.3 L237.5 106.1 L236.9 105.5 L236.3 104.4 L235.8 103.8 L235.4 104.0 L234.9 103.8 L232.9 102.1 L230.0 101.0 L229.1 101.1 L228.2 101.8 L227.7 102.6 L227.6 103.1 L228.2 104.1 L228.5 105.5 L228.7 105.7 L229.0 105.8 L229.3 106.0 L229.2 106.4 L228.5 106.8 L225.8 107.1 L224.9 107.5 L224.5 108.2 L224.4 109.1 L224.4 113.2 L224.5 119.1 L224.6 127.1 L224.6 127.6 L226.1 127.0 L226.5 127.0 L226.9 127.3 L227.1 127.7 L227.2 128.0 L227.4 128.3 L227.7 128.5 L228.8 129.0 L231.1 130.7 L233.3 131.4 L234.0 131.8 L235.2 134.0 L235.4 134.4 L235.4 134.5 L234.7 135.6 L233.2 136.5 L228.2 138.5 L227.6 138.9 L227.1 139.6 L227.4 139.8 L227.8 140.0 L227.7 140.7 L227.3 141.2 L225.8 142.1 L225.4 142.6 L225.4 143.3 L225.6 144.0 L226.0 144.6 L227.6 146.3 L228.4 147.5 L229.0 148.8 L229.4 150.3 L229.7 153.7 L229.6 155.4 L229.1 156.9 L228.0 158.2 L226.7 158.8 L225.3 159.2 L223.9 160.0 L221.8 162.0 L219.5 163.3 L219.1 163.6 L219.0 164.2 L219.5 164.7 L220.9 165.5 L221.1 165.8 L221.6 166.5 L221.9 166.7 L222.2 166.7 L222.8 166.5 L223.2 166.5 L224.1 167.0 L224.4 167.5 L224.6 169.1 L227.2 174.7 L227.0 176.9 L226.7 178.0 L226.0 177.5 L226.1 176.7 L226.5 175.9 L226.7 175.1 L226.5 174.5 L223.2 168.8 L222.0 167.6 L215.9 163.2 L214.2 161.6 L215.7 159.8 L215.9 159.7 L216.2 159.2 L216.7 158.5 L217.1 157.8 L216.8 157.0 L215.2 155.0 L214.9 154.4 L214.9 153.7 L215.2 153.4 L215.8 153.3 L216.6 152.8 L216.0 152.6 L214.6 152.7 L213.9 152.4 L213.5 152.0 L212.6 150.1 L212.7 149.8 L212.8 149.7 L212.9 149.4 L213.2 149.4 L213.7 150.2 L213.8 150.6 L213.9 151.2 L214.1 151.4 L215.6 150.8 L215.6 150.4 L214.9 150.1 L214.2 149.6 L213.6 149.0 L213.2 148.4 L212.9 148.4 L212.5 149.0 L211.6 149.0 L210.6 148.9 L209.8 149.1 L209.5 148.4 L208.9 147.7 L208.2 147.4 L207.5 147.7 L206.0 146.8 L205.5 146.1 L205.8 145.0 L205.5 145.0 L205.1 145.0 L205.3 144.2 L204.6 143.8 L203.6 143.6 L202.8 143.4 L202.5 143.9 L202.2 143.9 L201.9 143.7 L201.4 143.7 L201.2 143.9 L201.1 144.3 L200.9 144.6 L200.3 144.7 L198.6 144.5 L198.0 144.7 L197.7 145.7 L198.1 145.4 L198.1 145.4 L198.4 145.4 L200.1 147.9 L200.4 148.7 L201.4 150.3 L201.8 150.8 L202.4 151.1 L204.2 151.6 L205.0 151.7 L205.7 152.1 L206.3 152.9 L206.9 153.5 L207.5 153.1 L207.5 154.3 L207.5 154.8 L207.2 155.1 L207.2 155.5 L207.9 156.5 L208.2 158.2 L208.1 160.0 L207.5 161.2 L206.4 161.2 L204.6 160.7 L202.9 159.9 L202.1 159.2 L202.4 159.2 L202.6 159.4 L202.8 159.4 L203.5 159.5 L202.5 159.1 L202.2 158.8 L201.8 158.5 L201.8 159.2 L198.9 158.0 L197.9 157.8 L194.9 158.2 L194.1 158.2 L193.4 157.8 L192.7 157.2 L191.5 155.6 L187.2 151.7 L187.0 151.2 L186.8 151.2 L185.7 150.8 L185.4 150.6 L185.3 149.1 L186.8 146.8 L187.1 146.4 L187.9 145.9 L188.4 145.7 L188.7 145.9 L188.8 146.2 L189.2 145.8 L190.4 144.0 L190.7 143.7 L190.1 142.9 L190.8 142.0 L192.2 141.3 L193.4 141.0 L193.4 140.7 L192.3 140.5 L191.8 140.6 L191.4 140.9 L190.8 141.5 L190.3 141.8 L190.1 141.3 L190.3 140.5 L191.0 139.6 L192.2 139.0 L192.8 138.7 L193.0 138.1 L192.7 137.6 L192.1 137.3 L191.5 136.8 L191.4 135.9 L192.3 136.4 L192.8 136.6 L193.4 136.6 L193.1 136.2 L192.7 136.0 L192.0 135.6 L191.7 135.3 L191.5 135.1 L191.3 135.0 L190.7 134.9 L191.3 134.6 L191.2 134.3 L190.9 134.1 L190.7 133.9 L190.9 133.4 L191.2 133.0 L191.5 132.6 L192.0 132.2 L190.7 128.8 L190.5 128.4 L189.6 127.5 L189.3 127.9 L188.2 126.4 L187.2 124.8 L185.9 123.5 L183.9 123.1 L184.1 121.9 L183.0 120.8 L181.5 120.0 L180.4 119.8 L176.5 116.1 L172.8 114.4 L172.1 113.9 L167.4 112.0 L167.1 112.0 L166.8 112.3 L166.5 112.3 L166.3 112.1 L166.1 111.7 L165.4 112.0 L165.0 111.6 L164.6 111.2 L163.7 111.0 L164.3 110.1 L163.6 108.9 L162.3 107.7 L161.0 107.3 L161.0 107.6 L161.5 107.7 L161.8 107.9 L162.4 108.3 L161.1 108.1 L159.1 106.9 L157.8 106.6 L156.6 106.5 L150.0 104.7 L148.8 104.6 L148.2 104.7 L147.5 104.9 L146.9 105.1 L146.2 105.0 L145.6 104.5 L145.5 103.9 L145.2 103.4 L144.5 103.3 L144.7 103.5 L144.7 103.6 L144.9 104.0 L144.0 103.3 L142.2 102.2 L141.9 101.4 L141.7 100.8 L141.3 100.4 L140.7 100.2 L140.2 99.9 L140.0 99.4 L140.1 98.9 L140.0 98.6 L139.2 98.6 L139.4 98.0 L139.3 97.5 L139.2 97.0 L139.2 96.5 L139.5 96.0 L140.3 95.2 L140.7 94.3 L141.0 93.9 L141.3 93.4 L141.5 92.7 L141.3 92.1 L141.0 91.6 L140.2 90.8 L138.2 87.9 L137.6 87.5 L136.8 87.1 L137.0 86.4 L137.6 85.3 L136.4 84.3 L136.2 83.8 L136.5 83.1 L135.1 82.6 L130.7 83.1 L130.7 82.7 L131.3 82.5 L132.1 82.4 L133.8 82.4 L133.8 82.1 L132.2 82.0 L130.8 81.7 L129.6 81.3 L128.4 80.7 L126.9 79.5 L126.7 79.2 L126.4 79.1 L125.7 78.7 L125.3 78.3 L125.5 78.0 L124.7 77.6 L122.7 75.7 L121.6 75.2 L121.1 74.8 L120.8 74.7 L120.6 74.8 L120.3 74.9 L120.1 75.0 L119.6 74.7 L119.9 74.1 L120.0 73.8 L119.8 73.6 L119.6 73.6 L119.0 73.0 L118.1 73.3 L114.8 73.3 L113.9 73.1 L113.1 72.5 L111.9 71.3 L111.9 71.0 L112.1 70.1 L111.3 69.0 L109.2 67.6 L109.5 68.6 L110.9 69.6 L111.2 70.8 L111.3 73.1 L111.6 74.4 L112.2 75.3 L111.6 75.7 L111.7 76.4 L112.3 77.1 L113.8 77.6 L114.3 78.1 L114.9 79.4 L115.2 79.4 L115.6 79.2 L115.8 79.3 L115.9 79.7 L115.5 79.7 L115.0 79.7 L114.6 79.5 L114.2 79.4 L114.2 79.7 L115.2 80.5 L116.3 81.5 L119.3 82.7 L119.6 82.9 L120.0 82.8 L120.8 83.1 L122.7 84.1 L123.5 84.4 L124.5 84.5 L125.4 84.1 L125.9 84.5 L127.2 85.3 L127.7 85.8 L127.7 86.1 L126.8 86.3 L126.8 87.0 L127.4 87.9 L128.1 88.5 L127.7 88.6 L127.3 88.9 L126.7 89.5 L127.4 89.8 L128.3 89.9 L130.0 89.8 L130.0 90.1 L129.3 90.6 L128.5 91.0 L127.7 91.5 L127.4 92.3 L127.2 92.5 L126.0 93.2 L125.8 93.6 L125.6 94.5 L125.4 94.8 L123.8 94.1 L123.0 94.0 L122.7 94.7 L122.9 95.1 L123.6 96.0 L123.5 96.2 L121.9 97.0 L121.6 97.0 L121.5 97.3 L120.3 97.9 L120.1 98.3 L119.0 101.7 L118.5 102.5 L118.0 103.3 L117.6 103.3 L116.2 100.5 L112.1 95.0 L111.9 94.4 L111.7 94.1 L111.2 93.8 L110.0 93.3 L109.9 92.9 L109.9 92.5 L109.8 92.2 L108.7 90.9 L107.0 90.0 L101.8 88.1 L101.3 88.2 L100.6 88.7 L100.3 88.8 L99.8 88.7 L99.1 88.2 L98.6 88.1 L98.3 88.1 L98.2 88.0 L98.1 87.8 L97.9 87.6 L97.6 87.5 L97.3 87.5 L97.1 87.7 L97.1 87.8 L94.3 86.9 L93.0 86.7 L92.6 86.5 L92.4 86.3 L92.0 86.1 L91.5 86.1 L91.1 86.3 L90.8 86.4 L90.3 85.8 L90.7 84.9 L90.2 83.6 L85.1 77.5 L84.8 77.0 L84.4 75.7 L83.8 74.7 L81.9 70.1 L81.7 68.7 L81.5 67.9 L81.2 67.2 L81.9 66.6 L82.2 66.1 L82.1 65.7 L81.0 64.4 L80.4 64.0 L80.8 63.5 L81.6 62.9 L82.2 62.0 L82.6 61.2 L83.4 61.5 L83.9 61.0 L84.2 60.2 L85.3 59.5 L84.9 58.6 L84.1 57.7 L83.6 57.1 L83.9 56.9 L84.1 56.9 L84.3 56.8 L84.3 56.5 L83.6 56.5 L83.6 56.1 L84.2 56.0 L84.5 55.7 L85.0 54.8 L85.3 54.8 L86.0 55.3 L86.9 54.9 L87.9 54.4 L88.7 54.5 L89.0 54.5 L88.9 53.8 L89.1 53.5 L89.4 53.3 L89.6 53.1 L90.1 52.4 L90.3 52.4 L90.9 52.5 L92.3 50.9 L92.2 50.5 L92.0 50.2 L91.3 49.8 L89.3 51.8 L89.3 51.6 L89.3 51.5 L89.2 51.4 L89.0 51.4 L89.0 51.1 L89.6 50.5 L89.9 50.2 L90.3 50.1 L90.0 49.8 L89.9 49.8 L89.9 49.9 L89.8 50.0 L89.6 50.1 L89.8 49.7 L89.8 49.6 L90.3 49.4 L90.3 49.1 L90.0 49.1 L90.0 48.7 L90.8 48.1 L91.0 46.4 L90.7 43.2 L90.0 42.3 L88.3 41.6 L86.7 41.3 L86.0 41.8 L85.7 41.8 L84.3 40.7 L83.9 40.3 L84.2 40.4 L84.4 40.3 L84.6 40.0 L84.3 39.6 L83.9 39.6 L83.0 39.7 L82.6 39.6 L81.1 39.1 L80.0 38.4 L78.7 37.9 L76.9 37.7 L76.9 37.3 L78.0 37.0 L80.1 36.1 L81.2 36.0 L81.1 35.7 L80.9 35.5 L80.7 35.4 L80.2 35.3 L80.2 34.9 L82.7 34.8 L83.3 34.9 L83.5 35.3 L83.5 35.8 L83.4 36.1 L83.5 36.3 L83.7 36.4 L84.3 37.0 L84.6 37.0 L85.0 36.6 L85.0 36.3 L84.4 35.7 L84.9 35.4 L86.0 35.2 L87.0 35.3 L87.3 35.4 L87.7 35.9 L88.1 36.0 L88.5 35.8 L88.6 35.6 L88.6 35.2 L88.3 34.9 L88.3 34.6 L89.0 34.3 L89.2 33.8 L89.1 33.1 L88.7 32.6 L88.3 32.3 L87.5 32.0 L87.1 31.7 L86.7 31.3 L86.7 31.2 L87.0 31.1 L87.3 30.9 L88.1 30.2 L88.5 30.4 L89.0 30.9 L90.0 30.9 L90.6 30.4 L90.5 29.6 L89.9 29.0 L89.3 28.5 L88.9 28.3 L90.1 26.4 L91.0 24.5 L92.4 22.7 L94.0 22.0 L95.4 22.7 L96.8 23.9 L98.4 24.8 L103.4 26.6 L110.0 29.1 L111.8 29.7 L118.8 32.3 L126.8 35.2 L127.9 35.3 L129.0 34.9 L134.1 31.6 L137.7 29.2 L139.3 28.9 L140.1 29.2 L142.0 30.6 L142.9 30.7 L143.9 30.6 L145.1 31.0 L147.5 32.0 L147.8 32.1 L148.0 32.2 L148.3 32.3 L148.5 32.5 L149.6 33.9 L150.0 34.2 L150.5 34.5 L151.0 34.7 L151.5 34.7 L152.0 34.5 L154.6 32.8 L155.0 32.6 L155.5 32.8 L155.6 33.2 L155.6 33.7 L155.7 34.3 L155.9 34.6 L156.6 35.4 L156.7 35.8 L157.2 36.3 L159.5 37.1 L160.0 37.5 L160.5 38.0 L161.4 38.4 L162.3 39.1 L162.5 40.3 L161.8 40.7 L161.6 40.8 L161.4 41.2 L161.4 41.5 L161.6 41.7 L161.8 41.8 L162.8 42.7 L163.1 43.0 L163.6 42.6 L164.4 42.7 L164.8 42.7 L165.2 42.8 L165.8 42.7 L166.7 43.6 L167.3 43.8 L167.8 43.3 L168.2 43.3 L168.8 43.9 L170.0 43.1 L170.8 43.3 L171.4 42.8 L172.1 42.7 L172.6 43.0 L172.8 43.9 L175.8 46.2 L176.1 46.3 L176.6 46.4 L177.1 46.3 L177.7 45.8 L178.1 45.7 L179.4 46.0 L179.6 45.9 L180.6 44.7 L183.9 43.5 L184.1 43.4 L187.3 42.7 L189.1 41.8 L189.2 40.5 L188.8 38.7 L188.7 37.6 L188.2 37.4 L188.4 36.7 L188.3 36.4 L188.2 36.4 L187.8 35.5 L187.4 35.4 Z" fill="#172033" fill-rule="evenodd"/></svg>
