<svg xmlns="http://www.w3.org/2000/svg" viewBox="0 0 320 200" role="img"><path d="M217.6 129.0 L213.1 136.1 L189.8 171.9 L188.4 171.5 L187.6 172.2 L186.7 173.3 L185.4 173.8 L184.2 173.6 L182.1 172.9 L178.4 172.6 L176.5 172.2 L175.0 170.9 L172.8 166.1 L171.1 165.5 L169.0 165.4 L162.8 164.0 L162.1 164.0 L158.8 164.3 L150.9 166.7 L145.0 170.4 L143.1 171.3 L141.8 171.3 L140.5 170.8 L138.5 170.5 L135.6 171.4 L134.9 171.5 L133.3 171.5 L132.5 171.5 L129.4 172.9 L128.2 173.2 L126.6 173.2 L122.1 172.2 L117.2 172.7 L114.9 173.5 L112.1 176.2 L109.7 176.8 L104.7 177.0 L104.2 177.2 L103.8 177.7 L103.3 178.0 L102.5 177.9 L102.0 177.5 L101.8 176.9 L101.5 176.5 L91.1 174.4 L88.9 173.6 L88.3 172.8 L87.8 172.2 L89.4 169.7 L90.0 165.9 L90.2 149.1 L89.1 139.5 L86.8 129.4 L86.8 124.6 L89.4 116.7 L90.6 110.0 L91.9 107.2 L93.2 106.4 L96.7 104.9 L97.6 103.8 L98.0 102.5 L98.8 102.0 L99.8 101.7 L101.0 101.1 L102.2 100.2 L103.2 99.2 L106.5 94.6 L113.8 84.4 L117.3 78.0 L118.3 76.9 L120.4 75.9 L121.1 74.8 L122.4 71.6 L134.1 55.9 L136.8 50.2 L142.1 43.2 L146.6 38.5 L148.1 38.2 L150.5 38.8 L154.5 40.6 L168.3 52.5 L169.4 50.9 L169.9 50.8 L172.6 50.0 L173.8 48.3 L174.6 47.5 L177.2 47.0 L178.3 46.5 L178.8 44.1 L178.0 41.3 L177.7 38.7 L181.5 35.2 L183.5 30.4 L185.0 29.2 L185.8 29.3 L186.9 30.1 L187.8 30.0 L206.8 22.0 L208.3 22.9 L209.1 24.5 L209.8 26.2 L210.7 27.7 L219.3 37.3 L221.4 40.5 L222.6 41.8 L224.0 42.2 L225.4 41.2 L225.4 44.3 L225.6 45.8 L226.0 47.3 L226.7 48.5 L227.5 49.4 L228.1 50.5 L228.4 52.1 L228.5 55.4 L228.8 57.2 L229.3 58.4 L232.6 62.9 L232.9 64.4 L232.6 69.5 L233.2 76.1 L232.8 78.9 L231.5 81.5 L229.6 83.7 L227.3 85.2 L226.6 85.4 L224.2 85.8 L221.8 87.0 L220.1 87.3 L216.3 87.4 L214.6 87.8 L211.8 89.8 L205.0 97.7 L204.6 98.0 L204.1 98.2 L203.2 98.6 L202.6 99.0 L202.2 99.6 L201.8 100.8 L201.4 101.3 L200.1 101.8 L195.3 102.0 L194.1 102.5 L192.8 103.4 L191.5 104.0 L189.1 103.1 L187.4 103.4 L179.3 106.2 L177.0 107.6 L174.9 109.7 L168.8 120.8 L168.2 121.5 L167.4 122.0 L164.7 122.8 L163.8 122.8 L161.7 122.4 L159.4 122.5 L158.7 122.4 L158.2 122.1 L157.4 120.9 L156.9 120.6 L155.0 120.7 L154.0 121.5 L154.0 122.1 L155.1 121.8 L155.5 123.7 L155.5 123.8 L155.5 125.9 L156.0 127.7 L158.9 128.8 L160.7 130.4 L161.7 130.8 L163.0 130.6 L164.4 129.3 L165.3 129.0 L166.1 129.2 L166.9 129.6 L167.8 129.8 L168.6 129.3 L169.1 128.2 L168.5 127.6 L167.6 127.1 L167.1 126.6 L167.9 125.2 L169.7 123.9 L173.7 122.4 L179.6 121.7 L181.5 121.2 L182.4 120.6 L183.1 119.8 L183.9 119.6 L184.8 120.3 L185.6 120.6 L187.8 120.6 L200.1 120.4 L201.9 120.1 L203.7 120.1 L205.6 121.2 L207.3 120.8 L208.2 119.6 L208.9 118.4 L209.8 118.2 L210.4 119.1 L211.6 124.2 L211.7 124.3 L212.6 125.6 L213.6 126.4 L216.4 127.8 L217.6 129.0 Z" fill="#172033" fill-rule="evenodd"/></svg>
