<svg xmlns="http://www.w3.org/2000/svg" viewBox="0 0 320 200" role="img"><path d="M162.2 178.0 L158.2 176.9 L157.5 174.0 L158.7 165.2 L158.5 154.7 L158.7 153.1 L156.7 149.0 L152.1 143.9 L151.3 139.6 L150.6 130.6 L149.0 124.1 L143.9 113.5 L143.2 110.9 L142.3 104.3 L141.2 101.1 L132.9 93.1 L131.6 90.1 L130.9 86.7 L129.2 83.0 L127.2 80.1 L125.2 78.9 L122.8 77.1 L122.0 72.7 L121.7 63.9 L120.2 61.1 L118.2 59.4 L116.7 57.4 L116.7 54.1 L118.5 51.7 L124.5 47.6 L126.4 44.0 L123.9 43.5 L119.5 42.0 L116.7 41.7 L119.7 37.5 L123.9 22.0 L131.1 22.3 L135.4 22.4 L139.5 23.9 L143.9 27.2 L149.7 35.4 L154.4 38.4 L159.8 35.7 L164.2 34.8 L182.2 41.7 L182.8 44.2 L185.1 49.7 L188.7 55.5 L190.7 59.0 L196.3 66.8 L196.8 67.5 L200.2 80.2 L200.8 93.5 L198.3 103.6 L200.0 104.2 L201.5 105.4 L203.3 106.1 L201.0 119.2 L201.5 130.8 L201.7 133.6 L200.6 147.8 L193.2 160.5 L190.6 162.5 L188.8 162.9 L187.4 162.8 L183.7 163.3 L180.7 162.6 L178.4 163.0 L176.4 164.7 L174.6 169.4 L169.5 171.6 L168.4 174.2 L168.2 174.4 L166.6 176.8 L162.2 178.0 Z" fill="#172033" fill-rule="evenodd"/></svg>
