<svg xmlns="http://www.w3.org/2000/svg" viewBox="0 0 320 200" role="img"><path d="M53.8 37.2 L55.1 37.5 L56.3 38.1 L56.0 36.7 L54.8 34.2 L54.9 33.5 L54.9 33.0 L53.1 32.9 L52.9 32.2 L53.6 31.1 L54.7 30.1 L55.0 29.9 L55.3 29.8 L56.1 29.8 L56.5 29.6 L57.2 28.8 L57.6 28.4 L58.4 28.1 L59.0 28.0 L59.6 27.7 L60.4 27.1 L59.9 26.2 L59.9 25.5 L60.2 24.9 L61.1 24.7 L61.6 24.8 L62.4 25.2 L62.9 25.2 L63.1 25.1 L63.6 24.5 L63.8 24.3 L70.7 23.8 L72.4 24.1 L74.2 24.6 L80.6 27.8 L82.4 28.1 L84.2 27.5 L85.6 28.4 L86.5 28.8 L89.5 28.9 L90.3 28.7 L90.4 28.2 L90.5 27.5 L90.8 26.8 L91.6 26.5 L92.2 27.2 L92.9 28.9 L93.5 28.6 L93.8 28.3 L94.1 27.9 L94.3 27.5 L93.7 27.3 L93.6 27.2 L93.6 27.1 L93.4 26.6 L94.4 27.0 L95.3 26.9 L96.2 26.7 L97.3 26.6 L98.0 26.1 L99.2 23.9 L100.0 23.4 L101.0 23.2 L103.2 22.1 L104.4 22.0 L105.5 22.3 L106.5 22.8 L107.1 23.7 L106.7 24.7 L108.0 25.2 L108.5 25.2 L108.2 24.2 L108.0 23.8 L111.2 24.3 L112.2 24.2 L114.2 23.8 L114.9 23.8 L115.7 24.4 L118.7 27.7 L118.9 28.3 L118.6 28.9 L121.1 28.9 L122.1 29.4 L124.6 31.4 L127.0 32.6 L129.6 33.4 L132.6 33.9 L136.6 33.9 L137.0 33.7 L137.3 33.3 L138.1 32.7 L139.0 32.3 L139.7 32.1 L142.3 32.9 L146.4 36.9 L148.8 39.4 L149.9 40.1 L151.2 40.7 L152.5 41.1 L155.6 41.4 L158.0 42.3 L162.5 43.1 L163.5 43.1 L164.2 42.8 L164.8 42.4 L167.2 39.9 L168.5 39.3 L172.2 39.4 L174.0 39.2 L174.8 39.3 L175.9 39.9 L178.1 42.2 L178.9 43.7 L178.8 45.4 L177.7 49.1 L179.1 49.6 L179.6 50.8 L179.6 53.9 L179.7 55.2 L180.1 56.3 L184.6 62.6 L186.6 64.4 L186.9 64.7 L189.1 65.5 L190.5 65.3 L193.1 64.4 L194.4 64.2 L197.4 64.1 L198.8 63.8 L200.1 63.3 L202.1 62.0 L202.9 61.8 L203.6 62.0 L205.0 62.7 L205.9 62.8 L207.5 62.4 L208.2 62.3 L208.6 62.4 L208.9 62.4 L209.2 62.6 L209.3 63.0 L209.5 63.4 L210.0 63.2 L210.7 62.8 L214.6 64.3 L215.7 65.1 L216.5 63.6 L217.7 62.6 L220.8 61.0 L222.7 60.4 L223.2 61.2 L222.7 62.8 L221.7 64.7 L223.0 65.1 L224.5 65.1 L226.0 64.8 L227.2 64.2 L227.6 65.6 L226.7 66.8 L225.5 67.8 L224.9 69.0 L224.6 70.2 L223.9 71.3 L222.7 72.1 L221.2 72.4 L216.0 71.5 L210.2 71.9 L208.9 71.6 L206.4 70.4 L197.9 69.4 L196.9 69.6 L196.5 70.5 L196.3 73.7 L195.8 76.4 L196.0 77.5 L196.7 77.9 L197.5 78.5 L201.2 77.9 L202.5 78.4 L204.0 77.9 L207.2 79.0 L208.9 78.9 L208.4 78.5 L207.9 78.2 L207.3 78.0 L206.5 77.9 L206.5 77.5 L210.1 77.3 L211.1 77.5 L212.3 78.3 L213.2 80.3 L214.4 81.1 L215.5 81.4 L217.8 81.7 L224.0 83.3 L226.6 84.0 L227.7 83.9 L228.9 83.2 L228.5 82.7 L227.7 82.2 L227.7 81.6 L228.9 81.3 L229.9 82.2 L231.3 84.3 L232.2 84.8 L233.2 85.1 L234.1 85.5 L234.5 86.2 L235.3 85.6 L237.0 84.9 L237.7 84.3 L237.2 83.8 L237.5 83.7 L238.1 83.7 L238.7 83.5 L239.4 82.8 L239.6 82.5 L239.8 82.5 L242.2 82.6 L243.6 82.9 L244.9 83.3 L246.0 83.9 L246.1 84.1 L246.1 84.3 L246.2 84.6 L246.5 84.8 L247.8 85.3 L247.9 85.2 L250.3 85.7 L251.8 85.8 L252.4 86.0 L252.6 86.0 L253.1 86.4 L253.7 86.7 L254.9 86.8 L255.6 87.1 L263.4 93.9 L266.2 97.2 L270.3 100.2 L273.1 102.1 L274.0 102.4 L274.4 102.7 L277.4 105.5 L281.2 107.7 L283.1 110.3 L282.7 113.0 L276.4 122.1 L276.0 122.4 L275.5 122.9 L275.3 123.5 L275.5 125.8 L275.3 126.5 L274.6 127.6 L273.5 128.2 L272.1 128.3 L270.5 128.3 L269.3 127.9 L266.6 126.3 L265.7 126.0 L264.6 126.7 L264.7 127.8 L265.1 129.1 L264.5 130.4 L263.7 131.4 L263.2 132.6 L262.2 136.5 L261.8 137.2 L261.0 137.5 L255.4 137.9 L254.2 137.5 L254.1 135.1 L252.4 131.8 L250.2 128.7 L248.2 126.5 L246.1 125.1 L243.4 124.0 L240.6 123.6 L237.3 124.9 L232.5 125.1 L231.2 124.9 L228.3 123.9 L226.9 123.7 L225.8 123.4 L223.9 121.8 L222.4 121.4 L221.1 121.7 L219.8 122.1 L218.5 122.2 L217.1 121.4 L215.7 122.7 L207.0 123.3 L204.4 124.2 L203.1 124.3 L199.4 121.9 L197.9 121.1 L196.9 121.0 L196.5 121.6 L196.6 122.4 L196.7 123.1 L196.5 123.7 L195.9 123.9 L194.9 123.9 L194.1 123.8 L193.7 123.5 L192.6 121.7 L192.1 121.2 L191.6 121.1 L181.2 120.0 L179.4 120.1 L179.1 120.1 L178.0 120.4 L175.9 121.3 L174.2 122.5 L173.5 122.8 L171.7 123.3 L171.0 123.7 L170.2 124.1 L168.7 125.3 L167.6 127.0 L167.1 129.0 L166.8 129.6 L165.3 130.3 L164.9 130.8 L164.6 131.6 L162.4 133.6 L160.7 135.3 L159.8 136.1 L159.4 135.9 L157.8 136.0 L156.6 136.2 L155.7 136.6 L154.5 135.9 L153.3 135.7 L144.7 135.7 L143.3 136.1 L140.5 137.6 L139.0 137.9 L134.3 137.9 L133.3 137.5 L133.2 136.9 L133.7 136.5 L134.3 136.1 L134.6 135.7 L134.4 135.0 L134.0 134.6 L133.5 134.3 L133.0 133.7 L131.7 132.9 L131.4 132.2 L131.6 131.6 L132.0 131.3 L132.4 131.0 L132.8 130.6 L133.1 129.2 L133.1 127.8 L132.9 126.6 L132.6 125.8 L131.1 124.0 L130.2 123.4 L128.7 122.9 L127.3 122.6 L125.7 122.4 L124.2 122.8 L123.6 124.0 L123.9 125.4 L123.7 125.9 L121.7 127.8 L121.2 128.1 L120.5 128.3 L119.7 128.3 L118.3 127.9 L117.7 127.8 L117.1 128.0 L116.2 128.7 L115.6 128.8 L114.7 128.7 L114.4 128.9 L113.8 129.5 L113.6 129.7 L113.2 130.5 L113.1 130.8 L112.9 131.1 L112.0 131.4 L111.7 131.5 L109.9 133.5 L109.0 134.1 L107.4 134.3 L106.7 134.0 L106.3 133.5 L106.0 132.8 L105.5 132.2 L104.8 131.7 L104.1 131.4 L101.2 130.8 L99.9 130.8 L98.8 131.2 L98.4 132.2 L98.3 132.8 L97.7 133.8 L97.5 134.5 L97.7 135.4 L98.0 135.9 L98.4 136.3 L98.9 137.0 L100.0 140.7 L100.3 141.3 L100.4 142.1 L99.1 144.0 L97.9 146.6 L91.6 155.5 L91.1 157.0 L90.8 157.5 L90.2 157.9 L88.8 158.6 L88.0 159.3 L87.4 159.9 L87.0 160.7 L86.5 161.8 L86.0 161.7 L85.9 161.6 L85.6 161.3 L85.5 161.8 L85.4 162.0 L85.1 162.2 L85.6 162.2 L85.3 162.8 L85.0 163.2 L84.5 163.5 L84.0 163.6 L83.8 163.9 L83.3 165.2 L83.1 165.7 L82.3 166.8 L80.0 173.1 L79.3 174.3 L76.5 178.0 L75.9 177.7 L75.3 177.2 L75.3 176.9 L74.6 176.4 L70.0 169.1 L68.9 168.0 L66.6 167.1 L61.3 167.8 L59.0 167.3 L59.7 166.8 L61.8 164.7 L62.3 163.8 L62.2 162.4 L61.9 161.4 L60.8 159.5 L60.1 158.4 L60.0 158.0 L59.9 157.2 L60.4 154.7 L59.9 153.5 L58.7 152.2 L56.3 150.3 L52.5 148.9 L53.3 146.9 L53.6 145.8 L53.4 143.8 L53.5 142.7 L53.3 142.0 L52.6 140.0 L52.5 139.4 L52.7 138.1 L53.2 136.8 L56.2 132.0 L56.2 131.9 L57.0 130.6 L56.9 130.4 L56.3 129.9 L55.3 129.3 L51.7 128.0 L49.2 126.4 L48.6 125.8 L47.6 124.4 L47.1 123.9 L44.5 123.3 L43.4 122.8 L43.0 121.5 L43.3 120.8 L43.8 120.5 L44.2 120.2 L44.0 119.2 L43.6 118.5 L37.5 112.6 L36.9 111.5 L38.1 110.7 L40.6 110.2 L45.6 111.1 L48.2 110.2 L49.0 109.4 L50.4 107.1 L51.3 106.2 L51.5 106.1 L52.0 105.8 L53.8 104.7 L54.7 104.0 L55.5 102.8 L55.9 101.6 L56.3 100.4 L56.4 99.1 L55.8 96.5 L55.8 93.8 L55.4 92.6 L54.9 92.0 L53.4 90.6 L52.8 89.9 L51.8 88.0 L51.2 87.6 L49.6 87.5 L48.0 88.1 L46.8 88.2 L46.6 87.1 L47.7 86.3 L51.2 85.5 L52.0 85.0 L54.9 81.9 L56.9 79.2 L58.0 78.4 L60.2 76.8 L61.1 75.7 L61.4 74.5 L61.7 70.5 L60.9 70.1 L56.5 68.1 L54.3 66.0 L54.0 65.7 L52.9 64.1 L52.5 62.8 L53.0 62.4 L54.8 61.4 L55.4 60.9 L56.2 58.9 L56.6 58.5 L57.4 57.0 L57.4 54.0 L56.6 48.8 L54.8 44.6 L54.4 43.1 L54.6 41.3 L54.6 40.2 L54.4 39.1 L53.8 37.2 Z M260.7 140.2 L264.1 140.2 L265.0 140.5 L265.7 141.3 L266.4 142.6 L266.9 143.8 L266.8 144.4 L265.8 144.1 L263.6 143.2 L262.5 143.0 L261.3 143.1 L259.3 143.8 L258.1 143.9 L255.8 143.3 L254.1 141.9 L253.0 140.1 L252.4 138.4 L253.4 138.1 L254.6 138.4 L255.8 138.9 L256.8 139.6 L257.5 139.8 L260.7 140.2 Z" fill="#172033" fill-rule="evenodd"/></svg>
