<svg xmlns="http://www.w3.org/2000/svg" viewBox="0 0 320 200" role="img"><path d="M104.3 126.2 L102.8 125.3 L101.3 124.3 L99.9 123.4 L98.4 122.5 L97.3 121.9 L97.1 121.7 L95.9 121.0 L94.4 120.2 L93.0 119.3 L91.5 118.5 L89.8 117.5 L88.1 116.5 L86.4 115.5 L84.7 114.5 L83.0 113.5 L81.3 112.5 L79.6 111.5 L77.9 110.5 L76.2 109.5 L74.5 108.5 L72.8 107.5 L71.1 106.5 L71.1 105.6 L71.1 104.8 L71.1 104.0 L71.1 103.2 L71.1 102.7 L71.1 102.2 L71.1 101.7 L71.1 101.2 L71.1 100.6 L71.1 100.1 L71.1 99.6 L71.1 99.1 L71.1 98.6 L71.1 98.1 L71.1 97.5 L71.1 97.0 L71.1 96.5 L71.1 96.0 L71.1 95.5 L71.1 95.0 L71.1 94.6 L71.1 94.3 L71.2 94.2 L71.4 94.0 L72.5 93.5 L72.9 93.2 L73.3 93.1 L73.4 93.0 L73.7 92.5 L73.8 92.4 L74.1 92.3 L74.2 92.2 L74.8 91.7 L75.4 91.4 L76.4 91.0 L76.7 90.8 L77.4 90.2 L78.4 89.6 L78.9 89.2 L79.3 89.0 L79.4 88.9 L80.0 88.5 L80.2 88.3 L80.7 88.4 L81.0 88.4 L81.2 88.4 L81.4 88.4 L81.6 88.3 L82.6 88.4 L83.4 87.7 L84.3 87.3 L85.0 87.2 L85.9 87.3 L87.4 87.8 L88.2 87.2 L89.4 87.1 L90.6 86.8 L91.8 86.7 L93.1 86.7 L94.2 86.7 L95.2 86.5 L96.3 86.4 L96.6 87.2 L97.3 87.4 L98.2 87.2 L99.1 86.2 L99.8 85.1 L100.4 84.1 L101.3 83.3 L102.2 82.7 L103.2 82.0 L103.9 81.5 L104.8 81.1 L106.0 80.6 L107.2 79.8 L108.2 78.7 L109.0 78.3 L110.1 78.0 L111.4 78.0 L112.8 77.7 L114.5 77.0 L114.4 76.4 L114.3 75.9 L114.8 75.5 L115.2 74.8 L114.8 74.2 L114.8 74.0 L114.7 73.9 L114.6 73.7 L114.5 73.6 L114.2 73.5 L114.1 73.4 L113.8 73.1 L113.7 73.0 L113.6 72.9 L113.4 73.0 L113.2 73.2 L113.0 73.2 L112.9 73.2 L112.8 73.2 L112.8 73.0 L112.8 72.8 L113.0 72.6 L113.0 72.4 L113.0 71.7 L113.0 71.6 L113.1 71.5 L113.6 71.2 L114.2 71.1 L114.3 68.9 L114.9 68.6 L115.3 68.7 L115.6 68.7 L118.1 68.3 L120.0 67.8 L121.5 67.6 L121.1 66.8 L120.5 65.4 L121.0 65.2 L122.6 65.1 L124.2 64.7 L125.4 64.8 L125.9 64.8 L126.5 64.8 L127.2 64.8 L127.9 64.9 L128.7 64.9 L129.4 64.9 L130.2 65.0 L130.9 65.0 L131.6 65.0 L132.3 65.0 L132.9 65.1 L133.4 65.1 L133.8 65.1 L134.2 65.1 L134.4 65.1 L134.4 65.1 L135.1 65.2 L135.4 65.1 L135.6 64.8 L135.6 64.6 L135.4 64.5 L135.2 64.4 L135.1 64.5 L134.8 64.6 L134.6 64.6 L134.6 64.4 L134.6 64.4 L134.8 64.3 L134.8 64.2 L134.9 64.1 L134.9 64.1 L134.9 64.0 L134.9 63.9 L135.0 63.1 L135.1 62.8 L135.2 62.6 L135.4 62.5 L135.5 62.4 L135.9 62.4 L136.2 62.3 L136.5 62.1 L137.0 61.6 L136.8 61.4 L134.4 59.8 L133.9 59.7 L133.6 59.5 L132.4 57.8 L132.8 57.6 L132.9 57.5 L132.9 57.5 L132.9 57.4 L133.0 57.3 L133.0 57.1 L133.0 56.9 L132.9 56.7 L132.8 56.6 L132.5 56.5 L132.3 56.3 L132.1 56.1 L132.0 55.8 L131.9 55.6 L131.4 55.2 L131.4 54.9 L131.4 54.1 L131.4 53.9 L131.6 53.6 L131.7 53.2 L131.9 53.0 L132.0 52.8 L131.9 52.5 L131.5 51.7 L131.4 51.6 L131.3 51.5 L131.0 51.4 L130.9 51.3 L130.8 51.2 L130.9 51.1 L130.9 51.0 L131.0 50.9 L131.1 50.8 L131.2 50.7 L131.2 50.6 L131.1 50.3 L131.0 49.9 L131.1 49.5 L131.5 48.1 L131.5 48.0 L131.5 47.8 L131.4 47.7 L130.8 46.1 L130.6 45.8 L130.3 45.4 L131.2 44.5 L131.1 44.5 L130.8 44.4 L129.7 43.5 L129.8 43.4 L130.3 42.8 L130.5 42.4 L130.6 42.3 L130.6 42.3 L130.5 42.1 L129.6 41.7 L129.3 41.4 L128.8 41.2 L128.7 41.1 L128.6 41.0 L128.6 40.8 L128.6 40.7 L128.5 40.7 L128.1 40.6 L127.8 40.5 L127.5 40.3 L127.2 40.1 L127.0 40.0 L126.8 39.8 L126.7 39.6 L126.7 39.3 L126.9 39.2 L126.9 39.2 L127.0 39.2 L127.0 39.2 L127.0 39.3 L127.3 39.2 L127.6 39.2 L127.9 39.3 L128.2 39.4 L128.7 39.3 L128.9 39.4 L129.0 39.4 L129.1 39.4 L129.2 39.3 L130.0 39.1 L130.2 38.9 L130.3 38.9 L130.6 38.9 L130.7 38.9 L130.8 38.8 L131.1 38.6 L131.7 38.4 L131.8 38.4 L131.8 38.2 L132.8 37.5 L133.0 37.4 L133.8 37.4 L134.1 37.3 L134.1 37.3 L134.2 37.3 L134.4 37.0 L134.5 37.0 L134.7 36.9 L134.8 36.8 L134.9 36.7 L135.0 36.5 L135.1 36.1 L135.2 35.9 L135.3 35.8 L135.6 35.2 L135.7 35.1 L135.8 35.0 L136.0 35.0 L136.0 35.0 L136.2 34.7 L136.3 34.7 L136.5 34.5 L136.8 34.3 L136.9 34.2 L137.0 34.2 L137.3 34.1 L137.4 34.0 L137.6 33.9 L137.7 33.8 L137.9 33.8 L138.0 33.8 L138.1 33.9 L138.1 33.9 L138.2 33.9 L138.5 33.7 L138.7 33.4 L138.9 33.4 L139.0 33.4 L139.1 33.5 L139.2 33.5 L139.3 33.5 L139.4 33.6 L139.5 33.6 L139.6 33.6 L139.7 33.6 L139.8 33.7 L139.8 33.8 L139.9 33.8 L140.0 33.9 L140.3 33.8 L140.5 33.8 L140.6 33.7 L140.8 33.6 L140.9 33.4 L141.0 33.4 L141.1 33.4 L141.2 33.4 L141.3 33.4 L141.3 33.3 L141.7 32.6 L141.8 32.5 L141.7 32.5 L141.7 32.5 L141.7 32.4 L141.7 32.4 L141.8 32.4 L141.8 32.4 L141.9 32.4 L141.9 32.4 L142.0 32.4 L142.2 32.4 L142.3 32.4 L142.6 32.3 L142.9 32.2 L143.0 32.3 L143.0 32.4 L143.1 32.4 L143.2 32.4 L143.3 32.5 L143.3 32.6 L143.2 32.7 L143.3 32.8 L143.4 32.9 L143.6 33.0 L144.2 33.1 L144.6 33.2 L144.8 33.3 L144.9 33.2 L145.1 33.2 L145.5 33.0 L145.9 32.8 L146.1 32.6 L146.5 32.1 L146.5 31.9 L146.8 31.3 L146.9 31.1 L146.9 31.0 L146.9 31.0 L147.0 30.9 L147.1 30.9 L147.2 30.9 L147.6 30.5 L147.7 30.4 L148.3 30.3 L148.4 30.2 L148.4 30.1 L148.6 30.1 L148.7 30.0 L148.7 29.9 L148.8 29.7 L148.8 29.6 L149.0 29.6 L149.2 29.5 L149.5 29.5 L149.7 29.5 L149.9 29.4 L150.0 29.3 L150.6 29.0 L151.0 28.9 L151.1 28.8 L151.3 28.7 L151.4 28.6 L151.6 28.6 L152.2 28.5 L152.3 28.5 L152.5 28.5 L152.8 28.3 L153.3 28.2 L153.4 28.1 L153.5 28.0 L153.7 27.9 L153.8 27.8 L153.9 27.8 L153.9 27.7 L153.9 27.6 L154.0 27.5 L154.1 27.5 L154.5 27.4 L154.8 27.2 L155.5 27.2 L155.7 27.2 L156.0 27.0 L156.2 27.0 L156.6 27.0 L156.7 27.0 L156.9 26.9 L157.4 26.7 L157.6 26.7 L157.8 26.7 L158.2 26.8 L158.4 26.9 L158.6 26.9 L158.9 26.8 L160.5 26.7 L160.6 26.7 L160.7 26.7 L160.9 26.6 L161.0 26.6 L161.1 26.6 L161.3 26.6 L161.4 26.6 L161.8 26.5 L162.3 26.5 L162.7 26.6 L162.8 26.6 L163.6 26.5 L165.7 26.0 L165.9 25.9 L166.1 25.9 L166.3 26.0 L166.4 26.0 L166.5 26.1 L166.5 26.2 L166.6 26.3 L166.7 26.3 L166.7 26.3 L166.9 26.3 L167.0 26.3 L168.2 26.3 L168.5 26.2 L169.3 25.7 L169.9 25.5 L170.1 25.3 L170.3 25.0 L170.4 24.9 L170.6 24.7 L171.1 24.5 L171.5 24.4 L171.6 24.4 L171.8 24.4 L172.1 24.6 L172.3 24.8 L172.6 24.9 L172.9 25.0 L173.2 25.0 L173.2 25.0 L173.5 24.9 L173.6 24.8 L173.6 24.6 L173.6 24.4 L173.7 24.4 L174.3 24.6 L174.6 24.7 L175.6 24.7 L175.8 24.7 L176.2 24.6 L176.3 24.6 L176.4 24.6 L176.5 24.6 L176.5 24.5 L176.6 24.5 L176.7 24.4 L176.9 24.5 L177.0 24.5 L177.3 24.3 L177.8 23.9 L178.1 23.7 L178.8 23.6 L179.2 23.5 L179.5 23.6 L179.8 23.7 L180.0 23.7 L180.1 23.7 L180.3 23.7 L180.6 23.7 L180.6 23.7 L181.0 23.7 L181.2 23.8 L181.6 23.7 L181.7 23.6 L181.8 23.7 L182.0 23.7 L182.1 23.7 L182.2 23.7 L182.4 23.6 L182.5 23.6 L182.7 23.6 L182.9 23.7 L183.0 23.7 L184.1 23.6 L184.2 23.6 L184.3 23.6 L184.4 23.7 L184.5 23.7 L184.6 23.8 L184.9 23.8 L185.0 23.8 L185.3 23.7 L185.4 23.7 L185.7 23.7 L186.3 23.7 L186.9 23.7 L187.1 23.7 L188.5 24.2 L188.6 24.3 L188.7 24.4 L188.8 24.4 L188.9 24.4 L189.0 24.4 L189.0 24.4 L189.1 24.5 L189.2 24.6 L189.3 24.6 L189.5 24.7 L189.6 24.7 L189.8 24.7 L189.6 25.1 L189.7 25.2 L189.9 25.4 L190.9 25.8 L191.2 25.9 L191.5 25.9 L192.1 25.8 L192.6 25.7 L192.6 25.7 L192.9 25.7 L192.9 25.7 L193.1 25.6 L193.1 25.5 L193.5 25.4 L193.6 25.3 L193.7 25.0 L193.9 24.9 L194.0 24.8 L194.2 24.7 L194.5 24.6 L194.7 24.5 L195.0 24.3 L195.2 24.3 L195.4 24.2 L196.0 24.3 L196.4 24.3 L197.8 24.1 L199.2 23.6 L199.5 23.5 L199.7 23.3 L199.7 23.1 L199.7 23.0 L199.7 22.8 L199.8 22.7 L199.9 22.6 L200.2 22.4 L200.3 22.3 L200.4 22.2 L200.7 22.1 L201.1 22.0 L201.5 22.0 L201.8 22.1 L202.1 22.3 L202.2 22.3 L202.2 22.4 L202.2 22.5 L202.3 22.5 L202.3 22.5 L202.4 22.6 L202.5 22.9 L202.7 23.0 L202.8 23.0 L203.0 23.0 L203.1 23.1 L203.3 23.2 L204.6 23.2 L204.7 23.2 L204.9 23.3 L205.0 23.4 L205.1 23.5 L205.1 23.7 L205.3 23.7 L205.7 23.8 L205.9 23.7 L206.7 23.6 L206.9 23.4 L207.1 23.5 L207.3 23.5 L207.5 23.5 L207.6 23.5 L207.6 23.4 L208.0 23.1 L208.1 23.1 L208.2 23.1 L208.2 23.0 L208.3 22.9 L208.3 22.8 L208.3 22.7 L208.3 22.6 L207.9 22.3 L207.7 22.1 L207.7 22.1 L207.8 22.1 L207.9 22.0 L208.0 22.0 L208.1 22.1 L208.3 22.1 L208.4 22.1 L208.4 22.2 L208.4 22.2 L208.5 22.2 L208.5 22.2 L208.5 22.2 L208.6 22.1 L208.6 22.1 L208.7 22.1 L208.8 22.1 L208.9 22.2 L209.0 22.2 L209.1 22.2 L209.3 22.1 L209.4 22.1 L209.4 22.1 L209.5 22.1 L209.5 22.2 L209.6 22.3 L209.6 22.4 L209.7 22.4 L209.9 22.4 L210.0 22.4 L210.0 22.4 L210.2 22.4 L210.3 22.3 L210.7 22.5 L210.9 22.7 L211.2 22.9 L211.6 23.0 L211.7 23.0 L211.7 22.9 L211.8 22.9 L211.9 22.9 L212.0 23.0 L212.1 23.0 L212.2 23.1 L212.3 23.1 L212.7 23.1 L212.8 23.1 L212.9 22.9 L213.0 22.9 L212.9 23.0 L212.8 23.2 L212.8 23.4 L212.9 23.5 L212.8 23.8 L212.8 23.8 L213.1 23.9 L213.6 24.1 L213.9 24.1 L215.2 23.9 L215.4 23.8 L215.5 23.7 L216.7 23.2 L216.9 23.3 L217.0 23.4 L217.2 23.4 L217.6 23.4 L217.8 23.4 L218.0 23.5 L218.1 23.5 L218.2 23.5 L218.3 23.6 L218.4 23.6 L218.7 23.7 L219.0 23.6 L219.9 23.3 L219.9 23.3 L219.9 23.6 L219.9 23.7 L220.0 23.7 L220.3 24.1 L220.3 24.2 L220.1 24.3 L219.5 24.5 L219.2 24.5 L218.9 24.5 L218.6 24.6 L218.3 24.7 L218.2 24.8 L218.5 24.9 L218.7 25.1 L218.6 25.4 L218.4 25.7 L218.2 25.9 L217.2 26.4 L216.6 26.6 L216.4 26.7 L216.2 26.9 L216.2 27.2 L216.2 27.2 L216.5 27.3 L217.3 27.4 L217.4 27.5 L217.6 27.5 L217.7 27.6 L217.8 27.7 L217.8 27.9 L217.8 28.2 L217.8 28.4 L217.8 28.4 L217.4 29.3 L217.3 29.7 L217.4 29.8 L217.4 30.0 L217.5 30.2 L217.4 30.3 L217.3 30.5 L217.1 31.1 L217.1 31.6 L217.0 31.7 L216.9 32.2 L216.8 32.9 L216.8 33.3 L217.0 33.6 L217.4 34.1 L217.5 34.4 L217.5 34.7 L217.6 35.4 L217.6 35.7 L217.3 36.3 L217.2 36.6 L217.2 36.9 L217.3 37.2 L217.5 37.5 L217.8 37.7 L218.1 37.8 L218.4 37.9 L218.4 38.1 L217.8 38.8 L217.4 39.1 L217.3 39.4 L217.2 40.1 L217.0 40.5 L216.9 40.9 L216.9 41.2 L217.1 42.1 L217.0 42.2 L217.0 42.3 L216.9 42.3 L216.7 42.5 L216.6 42.6 L216.5 42.8 L216.8 43.1 L216.7 43.2 L216.4 43.3 L216.3 43.4 L216.3 43.5 L216.2 43.6 L216.2 43.7 L216.0 43.8 L215.6 44.0 L215.5 44.1 L214.7 44.4 L214.4 44.6 L213.6 44.9 L213.3 45.1 L213.1 45.4 L212.8 46.4 L212.7 46.5 L212.6 46.6 L212.4 46.7 L211.9 46.8 L211.6 46.9 L211.3 47.1 L211.1 47.4 L210.8 47.7 L210.6 47.8 L210.5 48.1 L210.4 48.7 L210.3 49.6 L210.3 49.9 L210.4 50.4 L210.5 50.5 L210.7 50.9 L210.8 51.4 L210.9 51.6 L211.4 52.4 L212.1 53.3 L212.2 53.7 L212.2 53.7 L212.2 54.9 L212.4 55.3 L212.6 55.5 L212.9 55.5 L213.3 55.6 L213.6 55.7 L214.6 56.2 L214.8 56.3 L214.9 56.4 L215.1 56.4 L215.3 56.3 L215.5 56.4 L216.3 57.5 L217.2 58.7 L217.3 58.9 L217.4 60.1 L217.5 61.0 L217.6 61.3 L217.6 61.3 L217.8 61.5 L218.9 62.1 L220.3 63.0 L222.1 64.1 L223.5 65.0 L223.6 65.1 L223.7 65.2 L223.9 65.9 L223.9 65.9 L224.2 66.9 L224.4 67.8 L224.6 68.8 L224.9 69.7 L225.1 70.7 L225.4 71.6 L225.6 72.6 L225.9 73.5 L226.1 74.5 L226.4 75.4 L226.6 76.4 L226.8 77.3 L227.1 78.3 L227.3 79.2 L227.6 80.2 L227.8 81.1 L225.8 82.1 L226.0 82.4 L226.5 82.9 L227.0 83.3 L228.1 84.8 L229.1 86.5 L229.8 88.5 L230.5 90.6 L230.6 91.9 L230.7 93.5 L230.5 95.0 L230.0 98.0 L230.1 98.5 L231.4 101.4 L231.4 101.8 L231.4 101.9 L230.8 103.6 L230.6 103.7 L230.4 103.9 L230.2 104.0 L230.2 104.2 L230.3 104.4 L230.4 104.6 L230.3 104.7 L230.0 105.1 L229.9 105.3 L229.7 105.8 L229.6 106.1 L229.6 106.3 L229.6 106.4 L230.3 108.7 L230.4 109.6 L230.5 109.8 L230.6 109.8 L231.0 110.0 L231.1 110.1 L231.2 110.3 L231.0 111.2 L230.9 111.5 L231.0 111.7 L231.1 111.9 L230.7 113.0 L230.5 113.2 L227.5 114.5 L227.5 114.7 L227.5 114.8 L227.4 114.9 L227.1 115.2 L226.9 115.5 L226.8 115.7 L226.6 116.1 L226.8 116.5 L228.0 118.1 L229.3 119.7 L230.4 121.1 L231.7 122.7 L232.0 123.3 L232.1 123.8 L232.2 125.0 L232.2 126.2 L232.2 127.4 L232.3 127.6 L233.6 128.3 L233.8 128.5 L233.9 129.3 L234.0 129.6 L234.2 129.8 L235.3 130.6 L235.5 130.7 L235.8 130.6 L236.8 130.3 L237.8 130.0 L238.0 130.0 L238.2 130.0 L239.8 130.5 L241.9 131.1 L244.6 131.9 L244.9 132.0 L245.2 132.2 L245.4 132.4 L246.0 133.6 L246.7 134.7 L246.7 134.7 L247.6 136.5 L248.2 137.7 L248.9 138.9 L248.3 139.2 L247.7 139.6 L247.1 139.9 L246.6 140.3 L246.0 140.6 L245.4 141.0 L244.8 141.3 L244.2 141.7 L243.6 142.0 L243.0 142.3 L242.5 142.7 L241.9 143.0 L241.3 143.4 L240.7 143.7 L240.1 144.1 L239.5 144.4 L238.9 144.8 L238.4 145.1 L237.8 145.5 L237.2 145.8 L236.6 146.1 L236.0 146.5 L235.4 146.8 L234.8 147.2 L234.3 147.5 L233.7 147.9 L233.1 148.2 L232.5 148.6 L231.9 148.9 L231.3 149.3 L230.7 149.6 L230.2 149.9 L229.6 150.3 L229.0 150.6 L228.4 151.0 L227.8 151.3 L227.2 151.7 L226.6 152.0 L226.1 152.4 L225.5 152.7 L224.9 153.1 L224.3 153.4 L223.7 153.7 L223.1 154.1 L222.5 154.4 L222.0 154.8 L221.4 155.1 L220.8 155.5 L220.2 155.8 L219.6 156.2 L219.0 156.5 L218.4 156.9 L217.9 157.2 L217.3 157.5 L216.7 157.9 L216.1 158.2 L215.5 158.6 L214.9 158.9 L214.3 159.3 L213.8 159.6 L213.2 160.0 L212.6 160.3 L212.0 160.7 L211.4 161.0 L210.3 161.7 L209.4 162.4 L208.8 162.9 L208.2 163.4 L207.6 163.9 L207.0 164.4 L206.3 164.9 L206.0 165.2 L205.5 165.6 L204.9 166.1 L204.4 166.5 L203.8 167.0 L203.3 167.5 L202.8 167.9 L202.2 168.4 L201.7 168.9 L201.1 169.4 L200.6 169.8 L200.0 170.3 L199.5 170.8 L199.0 171.2 L198.4 171.7 L197.9 172.2 L197.3 172.6 L196.8 173.1 L196.1 173.7 L195.7 173.9 L195.4 174.1 L194.2 174.3 L193.4 174.4 L191.5 174.8 L189.6 175.2 L188.8 175.3 L187.1 175.6 L185.5 175.9 L183.9 176.3 L182.3 176.6 L180.8 176.8 L179.3 177.1 L178.5 177.3 L177.8 177.4 L176.4 177.7 L175.5 177.8 L175.5 177.8 L174.8 178.0 L174.5 178.0 L174.4 178.0 L174.3 177.9 L174.1 177.8 L173.6 177.3 L173.2 177.2 L173.0 177.1 L172.9 177.0 L172.7 176.8 L172.6 176.6 L172.6 176.5 L172.6 176.3 L172.8 176.1 L172.8 176.0 L172.9 175.9 L173.0 175.8 L173.2 175.6 L173.2 175.5 L173.3 175.1 L173.3 175.0 L173.5 174.9 L173.7 174.8 L173.8 174.6 L173.9 174.4 L173.9 174.3 L173.8 174.1 L173.7 174.0 L173.6 173.8 L173.6 173.7 L173.7 173.6 L173.7 173.5 L173.6 173.4 L173.6 173.4 L173.6 173.4 L173.5 173.3 L173.4 173.0 L173.4 172.7 L173.5 171.0 L173.5 170.8 L173.4 170.7 L173.3 170.7 L172.9 170.6 L172.8 170.5 L172.3 170.1 L171.2 169.7 L168.9 169.2 L168.4 169.2 L167.6 169.0 L167.5 169.0 L167.3 169.0 L167.0 168.8 L166.9 168.8 L166.7 168.7 L166.5 168.7 L166.4 168.6 L166.1 168.0 L165.8 167.6 L165.5 167.3 L165.0 166.9 L164.8 166.8 L164.6 166.8 L164.5 166.8 L164.3 166.9 L163.9 167.2 L163.7 167.3 L163.6 167.3 L163.0 167.1 L162.9 167.1 L162.9 167.0 L162.8 167.0 L162.7 167.0 L162.6 167.0 L162.4 167.1 L162.3 167.2 L162.1 167.2 L162.1 167.1 L162.0 166.9 L162.0 166.7 L161.8 166.6 L161.7 166.6 L161.5 166.7 L161.3 166.6 L161.2 166.6 L160.1 165.8 L160.1 165.6 L160.1 165.0 L160.0 164.7 L159.8 164.4 L159.3 164.0 L158.9 163.9 L158.6 163.8 L158.5 163.7 L158.3 163.7 L158.0 163.6 L157.6 163.5 L157.4 163.4 L157.3 163.3 L157.1 163.0 L157.0 162.9 L156.8 162.8 L156.6 162.8 L156.3 162.9 L156.1 162.9 L155.9 162.9 L155.8 162.8 L155.7 162.7 L155.7 162.5 L155.7 162.3 L155.9 161.6 L156.0 160.6 L156.0 160.4 L155.8 159.9 L155.7 159.7 L154.7 159.0 L154.0 158.5 L153.2 158.1 L152.5 157.6 L151.7 157.1 L151.0 156.6 L150.2 156.1 L149.5 155.6 L148.7 155.1 L148.0 154.6 L147.3 154.2 L146.5 153.7 L145.9 153.3 L145.8 153.2 L145.0 152.7 L144.3 152.2 L143.5 151.7 L142.8 151.2 L142.0 150.7 L141.3 150.3 L140.5 149.8 L139.8 149.3 L139.0 148.8 L138.3 148.3 L137.6 147.8 L136.8 147.3 L136.1 146.8 L135.3 146.4 L134.6 145.9 L133.8 145.4 L133.1 144.9 L132.3 144.4 L131.6 143.9 L130.8 143.4 L130.1 142.9 L129.3 142.5 L128.6 142.0 L127.9 141.5 L127.1 141.0 L126.4 140.5 L125.6 140.0 L124.9 139.5 L124.1 139.0 L123.4 138.5 L122.6 138.1 L121.9 137.6 L121.1 137.1 L120.4 136.6 L119.7 136.1 L118.9 135.6 L118.2 135.2 L117.5 134.7 L116.8 134.3 L116.2 133.8 L115.5 133.4 L114.8 132.9 L114.1 132.5 L113.4 132.0 L112.7 131.6 L112.0 131.1 L111.4 130.7 L110.7 130.2 L110.0 129.8 L109.3 129.3 L108.6 128.9 L107.9 128.4 L107.0 127.8 L106.3 127.4 L105.7 127.0 L105.0 126.6 L104.3 126.2 L104.3 126.2 L104.3 126.2 L104.3 126.2 Z" fill="#172033" fill-rule="evenodd"/></svg>
