<svg xmlns="http://www.w3.org/2000/svg" viewBox="0 0 320 200" role="img"><path d="M234.5 43.2 L235.5 43.9 L235.9 44.4 L236.4 44.8 L236.6 45.1 L236.8 45.5 L237.0 45.8 L237.4 46.1 L237.8 46.2 L238.1 46.2 L238.3 46.1 L238.5 46.2 L238.5 46.5 L238.6 46.7 L238.9 47.1 L239.0 47.4 L239.3 47.2 L239.6 47.2 L240.5 47.4 L240.7 47.5 L240.9 47.7 L242.5 49.5 L242.9 49.8 L243.3 50.0 L244.3 50.3 L244.7 50.5 L247.0 52.2 L247.7 52.6 L249.0 52.6 L250.2 53.1 L250.4 53.1 L250.4 53.0 L250.5 53.0 L250.7 53.2 L250.8 53.4 L250.8 53.6 L250.8 53.8 L251.0 53.9 L251.4 54.1 L251.8 54.2 L252.1 54.2 L252.5 54.1 L253.9 53.6 L254.3 53.6 L254.9 54.0 L255.0 55.3 L255.3 55.8 L256.5 56.6 L257.1 56.9 L257.7 56.8 L257.7 56.8 L258.5 57.0 L258.7 57.8 L258.8 59.7 L259.0 60.3 L259.1 60.8 L259.2 61.2 L259.7 61.6 L260.3 61.8 L262.2 62.2 L262.5 62.3 L262.8 62.5 L263.1 62.6 L263.5 62.5 L264.4 62.2 L264.7 62.1 L264.9 62.2 L265.3 62.3 L265.9 63.1 L266.5 63.2 L267.2 63.2 L267.4 63.3 L267.7 63.4 L267.9 63.5 L268.2 63.9 L268.6 64.1 L268.8 64.2 L269.1 64.2 L270.3 64.0 L270.5 64.1 L271.1 64.3 L271.4 64.3 L271.4 63.6 L271.6 63.6 L272.2 63.7 L273.1 63.8 L273.3 63.9 L273.6 64.1 L274.1 64.5 L274.4 64.6 L274.7 64.6 L275.1 64.4 L276.9 64.2 L277.2 64.0 L277.0 62.8 L277.0 61.5 L277.0 61.4 L277.2 61.4 L277.6 61.4 L277.8 61.3 L277.9 61.3 L278.4 60.7 L278.5 60.7 L278.6 60.6 L278.9 60.4 L279.1 60.3 L279.2 60.4 L279.7 60.9 L280.1 61.1 L280.4 61.3 L280.8 61.4 L281.2 61.4 L281.6 61.4 L281.8 61.4 L282.0 61.5 L282.1 61.6 L282.2 62.1 L282.3 62.2 L282.6 62.2 L283.0 62.1 L283.4 62.0 L283.6 62.3 L283.7 62.5 L284.9 64.0 L284.9 64.2 L285.0 64.6 L285.2 64.9 L285.7 65.3 L286.7 65.9 L286.9 66.2 L287.6 66.7 L288.1 67.0 L288.4 67.1 L288.7 67.2 L289.1 67.2 L289.5 67.2 L290.3 67.0 L290.6 66.9 L291.0 67.1 L291.2 67.3 L291.5 67.6 L291.6 67.7 L292.0 67.8 L292.8 68.5 L293.8 69.2 L294.2 69.3 L294.6 69.5 L295.6 69.7 L296.7 70.1 L297.0 70.3 L296.8 70.6 L296.4 70.9 L296.2 71.0 L295.9 71.1 L295.7 71.1 L295.1 71.0 L294.9 71.0 L294.4 71.3 L294.0 71.3 L292.7 70.6 L292.5 70.6 L292.2 70.6 L291.9 70.6 L291.7 70.5 L291.3 70.4 L291.0 70.3 L290.8 70.4 L290.7 70.7 L290.7 71.1 L290.9 71.5 L291.1 71.6 L291.2 71.7 L291.6 71.7 L291.8 71.7 L292.0 71.8 L292.4 72.2 L292.6 72.3 L293.0 72.4 L293.3 72.6 L293.5 72.8 L294.0 74.8 L294.3 75.6 L294.9 76.3 L295.2 76.6 L295.4 76.7 L295.6 76.7 L295.8 76.7 L295.9 76.8 L296.0 76.9 L296.6 77.4 L296.7 77.5 L296.8 77.7 L296.9 77.8 L297.0 77.8 L297.1 77.7 L297.2 77.7 L297.4 78.0 L297.5 78.4 L297.4 79.1 L297.4 79.2 L297.5 79.3 L297.5 79.5 L297.5 79.6 L297.3 79.8 L297.1 79.9 L296.9 80.0 L296.8 80.2 L296.8 80.4 L296.9 80.7 L296.9 80.9 L296.9 81.1 L296.8 81.4 L296.8 81.6 L297.6 84.3 L297.6 84.4 L297.5 84.8 L297.6 84.9 L297.7 85.1 L297.9 85.3 L298.0 85.4 L298.0 85.6 L297.8 85.6 L297.0 85.6 L296.3 85.7 L295.9 85.6 L295.7 85.5 L295.6 85.3 L295.3 85.1 L294.8 84.6 L294.7 84.7 L294.5 85.6 L294.0 87.7 L293.4 89.8 L292.9 91.9 L292.4 93.9 L292.1 95.0 L291.9 95.6 L291.8 95.7 L291.5 96.1 L290.5 97.0 L289.8 97.8 L288.9 98.8 L288.0 99.8 L287.2 100.9 L286.3 101.9 L285.4 102.9 L284.5 104.0 L283.6 105.0 L282.8 106.0 L281.7 106.8 L280.7 107.6 L279.6 108.4 L278.6 109.2 L277.5 110.0 L276.4 110.8 L275.4 111.6 L274.3 112.4 L273.3 113.2 L272.6 113.7 L272.3 113.8 L270.7 114.4 L268.5 115.2 L266.2 116.0 L264.0 116.7 L261.8 117.5 L259.6 118.3 L257.4 119.1 L255.1 119.8 L252.9 120.6 L252.4 120.8 L251.8 121.0 L251.4 121.2 L250.1 122.3 L248.3 124.7 L247.5 125.4 L247.2 125.7 L246.7 126.7 L246.5 127.1 L245.8 127.5 L245.6 127.8 L245.6 128.2 L245.8 128.5 L246.1 128.7 L246.3 128.9 L246.4 129.4 L246.2 129.8 L245.9 129.9 L245.6 130.0 L245.3 130.2 L245.1 130.3 L244.9 130.0 L244.7 128.9 L244.6 128.6 L244.3 128.4 L243.6 128.2 L243.2 128.2 L242.9 128.2 L242.7 128.6 L242.7 128.7 L242.8 129.0 L242.8 129.2 L242.7 130.0 L242.5 130.7 L242.4 130.8 L242.1 131.5 L242.0 131.9 L242.0 132.2 L242.0 132.8 L242.0 133.2 L242.0 133.4 L241.9 133.5 L241.7 133.5 L241.6 133.5 L241.6 133.6 L241.6 133.8 L241.8 135.0 L241.7 135.3 L241.3 135.7 L241.1 135.8 L240.9 135.9 L240.8 136.0 L240.6 136.4 L240.5 136.7 L240.3 138.0 L240.3 138.1 L240.2 138.2 L240.0 138.3 L239.8 138.4 L239.6 138.4 L239.4 138.5 L239.2 138.7 L239.1 138.9 L239.1 140.0 L238.9 140.8 L237.8 143.0 L237.7 143.8 L237.5 144.1 L237.2 144.4 L237.1 144.8 L237.1 145.4 L237.2 146.1 L237.4 146.4 L237.9 146.7 L237.8 147.0 L237.5 147.3 L237.3 147.7 L237.2 148.0 L237.2 148.4 L237.2 148.7 L237.1 149.0 L236.6 149.3 L236.4 149.5 L234.8 150.1 L234.0 150.5 L233.2 151.3 L232.9 151.7 L232.7 152.2 L232.7 152.7 L233.1 153.5 L233.2 153.9 L233.0 154.2 L232.6 154.3 L232.2 154.3 L231.8 154.4 L231.6 154.7 L231.4 155.6 L231.3 155.9 L230.8 156.4 L230.3 156.8 L230.0 156.5 L229.8 156.4 L229.6 156.3 L229.4 156.3 L229.1 156.3 L229.0 156.4 L228.7 156.3 L228.1 156.1 L227.8 156.0 L227.3 156.0 L226.5 156.1 L226.1 156.0 L225.9 155.7 L225.7 155.3 L225.4 155.0 L225.3 154.9 L224.9 154.7 L224.8 154.6 L224.7 154.5 L224.6 154.1 L224.5 154.0 L224.2 153.7 L223.8 153.5 L223.5 153.3 L223.4 152.9 L223.3 152.6 L223.3 152.6 L222.9 151.7 L222.7 150.7 L222.1 149.9 L222.2 149.5 L222.6 148.8 L222.6 148.6 L222.5 148.4 L222.1 148.2 L221.7 148.2 L221.6 148.1 L221.4 147.9 L221.2 147.9 L220.3 147.0 L219.8 146.7 L219.2 146.8 L218.6 147.2 L217.4 147.6 L216.8 147.5 L216.3 147.0 L216.0 146.5 L215.5 146.0 L215.0 145.9 L214.6 145.9 L214.1 145.9 L213.7 145.6 L213.3 145.4 L212.7 144.7 L212.4 144.5 L212.1 144.4 L211.7 144.3 L211.5 144.2 L211.3 144.0 L211.3 144.0 L210.6 144.1 L210.4 144.2 L210.2 144.3 L210.0 144.4 L209.9 144.6 L209.7 145.3 L209.6 145.5 L209.3 145.8 L208.0 146.9 L207.2 147.3 L207.1 147.4 L206.9 147.4 L206.6 147.4 L206.3 147.3 L205.5 146.9 L205.3 146.7 L205.1 146.3 L205.2 146.0 L207.5 142.9 L207.7 142.5 L206.9 142.6 L206.1 142.8 L205.5 142.8 L205.2 142.0 L205.2 141.8 L205.2 141.5 L205.2 141.3 L205.1 141.1 L204.8 140.7 L204.7 140.5 L204.8 140.2 L204.8 140.1 L204.9 139.7 L205.1 139.3 L205.3 139.0 L205.6 138.8 L205.9 138.7 L206.3 138.7 L206.6 138.7 L207.0 138.8 L207.7 139.2 L208.1 139.3 L208.4 139.1 L208.7 138.7 L209.0 138.3 L209.2 138.0 L210.6 137.4 L210.9 137.1 L210.9 136.9 L210.9 136.9 L210.8 136.8 L210.6 136.7 L210.5 136.5 L210.4 136.3 L210.4 136.0 L210.4 135.9 L210.3 135.5 L209.9 134.9 L209.8 134.6 L209.9 134.5 L209.9 134.3 L210.0 134.2 L210.0 134.0 L209.9 133.7 L209.8 133.6 L209.8 133.4 L209.9 133.2 L210.0 132.9 L210.0 132.7 L210.0 132.5 L209.9 132.2 L209.9 132.0 L209.8 131.8 L209.7 131.7 L209.5 131.7 L209.4 131.6 L209.4 131.4 L209.5 130.9 L209.6 130.6 L209.6 130.4 L209.5 130.3 L209.4 130.2 L209.1 130.0 L209.0 129.9 L209.0 129.6 L209.1 129.2 L209.1 128.9 L208.9 128.7 L208.2 128.5 L207.9 128.4 L207.8 128.3 L207.8 128.2 L207.7 128.1 L207.8 127.9 L208.0 127.7 L208.1 127.5 L208.2 127.3 L208.4 127.0 L208.2 127.5 L208.2 127.6 L208.3 128.0 L208.5 127.8 L208.6 127.3 L208.8 127.0 L209.2 127.5 L209.5 127.4 L210.8 127.1 L211.0 127.2 L211.1 127.2 L211.3 127.2 L211.4 127.1 L211.8 126.7 L211.9 126.6 L212.6 125.2 L212.8 125.0 L213.2 125.0 L213.2 125.5 L213.1 126.3 L213.3 126.2 L213.4 126.0 L213.5 125.8 L213.7 125.6 L213.8 125.5 L214.4 125.2 L214.6 124.9 L214.8 124.5 L214.9 124.1 L215.0 123.4 L215.3 122.8 L215.9 121.8 L216.0 121.5 L215.8 121.2 L215.9 120.8 L216.1 120.1 L216.2 119.8 L216.7 118.0 L217.1 117.3 L217.1 117.2 L217.3 116.8 L217.4 116.4 L217.8 115.4 L218.0 115.1 L218.5 114.5 L218.6 114.2 L218.7 113.8 L218.5 113.0 L218.3 112.4 L218.3 112.3 L217.9 112.3 L217.7 112.3 L217.5 112.2 L217.3 111.9 L217.0 110.9 L216.8 110.6 L216.6 110.4 L216.6 110.1 L216.6 109.1 L216.5 108.3 L216.5 108.1 L216.6 107.7 L216.6 107.4 L216.6 107.3 L216.5 107.2 L216.3 106.9 L216.2 106.9 L216.2 106.8 L216.2 106.7 L216.1 106.6 L216.1 106.4 L216.2 106.2 L216.3 106.0 L216.4 105.9 L216.2 105.6 L216.5 105.3 L216.8 105.3 L217.0 105.1 L217.1 104.7 L217.2 104.5 L217.5 104.4 L217.8 104.2 L217.9 103.8 L216.9 104.4 L216.8 104.5 L216.7 104.7 L216.7 105.0 L216.6 105.0 L216.0 105.1 L215.9 105.2 L215.9 105.3 L215.7 105.8 L215.6 106.5 L215.5 107.0 L215.7 107.5 L216.2 108.4 L216.2 109.0 L216.0 112.4 L215.8 113.1 L215.6 113.3 L215.2 113.9 L215.0 114.0 L214.7 114.1 L214.1 114.4 L213.8 114.5 L213.7 114.4 L213.6 114.1 L213.4 114.1 L213.0 114.1 L212.9 114.1 L212.7 113.9 L212.6 113.6 L212.8 113.3 L213.4 113.0 L213.5 112.6 L213.6 112.4 L213.8 112.2 L214.3 112.1 L214.4 112.2 L214.5 112.4 L214.6 112.5 L214.8 112.5 L215.0 112.4 L215.1 112.3 L215.0 112.1 L214.9 111.9 L214.9 112.3 L214.6 112.2 L214.2 111.8 L213.8 111.8 L213.5 112.0 L213.2 112.1 L213.1 111.8 L213.2 111.5 L213.5 110.7 L213.6 110.3 L213.7 110.1 L213.8 110.0 L214.0 109.9 L214.2 109.9 L214.3 109.7 L214.7 109.1 L214.5 109.2 L214.4 109.2 L214.3 109.4 L214.1 109.5 L213.8 109.5 L213.6 109.5 L213.4 109.6 L213.2 109.8 L212.5 111.8 L211.3 113.5 L210.7 114.1 L210.2 114.3 L210.0 114.6 L209.9 114.7 L209.7 114.8 L209.6 114.8 L209.5 114.7 L209.4 114.6 L209.3 114.5 L209.0 114.4 L208.9 114.5 L208.8 114.8 L208.9 115.2 L208.9 115.2 L209.4 115.7 L209.5 115.9 L209.5 116.1 L209.5 116.5 L209.3 116.6 L208.9 116.6 L208.2 116.3 L207.4 115.6 L207.2 115.5 L206.9 115.3 L206.8 115.2 L206.7 115.1 L206.4 115.1 L206.2 115.1 L205.6 114.6 L203.7 112.4 L202.2 111.1 L201.7 110.9 L201.1 110.6 L200.6 110.7 L199.6 110.3 L199.3 110.2 L198.6 109.5 L198.2 109.4 L197.9 109.4 L197.7 109.4 L197.6 109.2 L197.5 108.6 L197.3 108.3 L197.0 107.9 L196.8 107.7 L196.1 107.1 L196.1 107.0 L196.0 106.8 L195.9 106.7 L196.0 106.6 L196.2 106.6 L196.2 106.7 L196.3 106.8 L196.3 106.8 L196.8 106.9 L197.0 107.0 L197.1 107.0 L197.2 107.3 L197.4 107.6 L197.8 107.5 L198.5 107.3 L199.4 106.6 L200.0 106.2 L200.7 105.5 L200.8 104.5 L200.6 104.0 L200.4 103.4 L200.4 103.3 L200.4 103.1 L200.6 103.0 L200.9 102.9 L200.9 102.5 L200.9 102.0 L200.4 100.2 L200.1 99.4 L200.0 99.1 L199.9 98.8 L199.7 98.6 L199.5 98.3 L199.1 97.3 L198.8 97.0 L198.7 96.7 L198.7 96.5 L198.8 96.3 L199.4 95.8 L199.3 95.4 L199.3 94.9 L199.5 94.8 L199.7 94.6 L199.9 94.5 L200.2 94.5 L200.3 94.3 L200.3 94.0 L200.3 93.7 L200.4 93.4 L200.3 93.0 L200.4 92.7 L200.7 92.6 L200.7 92.2 L200.2 91.4 L199.1 90.2 L198.3 88.7 L197.9 87.8 L197.7 87.2 L197.8 86.9 L198.0 86.7 L198.2 86.5 L198.5 86.2 L198.6 86.0 L198.7 85.9 L199.0 85.6 L199.2 85.4 L199.2 85.2 L199.4 85.1 L199.7 85.2 L199.9 85.2 L200.2 85.1 L200.4 85.0 L200.7 85.0 L200.9 85.0 L201.1 84.9 L201.0 85.0 L201.4 85.2 L201.6 85.2 L201.8 85.0 L202.0 85.0 L202.1 84.8 L202.3 84.7 L202.5 85.0 L202.6 85.0 L202.9 85.1 L203.4 84.9 L203.8 84.5 L204.2 84.1 L204.4 83.0 L204.5 82.7 L204.7 81.5 L205.0 80.7 L205.4 79.9 L205.7 79.4 L205.7 79.3 L205.9 79.1 L206.1 79.1 L206.4 79.0 L206.4 79.5 L206.7 79.8 L207.1 80.1 L207.6 80.1 L208.5 80.1 L208.5 79.9 L208.0 79.8 L207.5 79.7 L207.1 79.7 L206.9 79.5 L206.7 79.0 L206.5 78.6 L206.2 78.5 L206.1 78.3 L206.1 77.9 L205.9 77.4 L205.8 76.9 L205.6 76.3 L205.3 75.9 L205.1 75.2 L205.2 74.9 L205.6 74.9 L206.2 74.4 L206.7 73.6 L206.9 73.3 L207.0 73.1 L207.1 72.7 L207.3 72.4 L207.6 72.2 L207.9 71.9 L208.1 71.5 L208.4 71.8 L208.8 71.6 L209.2 71.3 L209.7 70.9 L210.8 69.8 L211.6 68.7 L211.9 68.3 L212.0 68.0 L212.1 67.8 L212.2 67.7 L212.3 67.6 L212.6 67.5 L212.9 66.9 L213.1 66.3 L213.2 65.3 L213.1 64.9 L213.0 64.2 L213.0 62.8 L213.1 62.4 L213.1 62.2 L213.2 62.2 L213.4 62.2 L213.4 62.3 L213.5 62.5 L213.6 62.7 L213.7 62.7 L213.7 62.5 L213.9 62.2 L214.0 62.0 L213.9 61.8 L213.8 61.6 L213.6 61.4 L213.2 60.7 L213.0 60.4 L213.0 60.0 L213.0 59.6 L213.2 59.4 L213.3 59.2 L213.5 59.0 L213.5 58.6 L213.4 58.2 L213.3 57.9 L213.2 57.4 L213.0 57.2 L212.8 57.1 L212.4 57.0 L212.2 56.9 L212.1 56.7 L212.0 56.5 L211.9 56.2 L211.9 55.4 L212.1 54.7 L212.5 54.1 L213.0 53.6 L213.3 53.8 L213.6 53.8 L214.1 53.8 L214.4 53.7 L214.8 53.4 L215.0 53.3 L215.2 53.3 L215.7 53.1 L216.2 53.0 L216.6 52.7 L216.8 52.7 L216.9 52.6 L217.5 52.2 L217.6 52.1 L217.8 51.7 L217.9 51.6 L218.4 51.4 L219.4 51.1 L219.9 50.7 L220.0 50.9 L220.0 51.1 L219.6 52.2 L219.7 52.5 L219.9 52.6 L220.0 52.7 L220.2 52.9 L220.5 53.4 L220.6 53.5 L220.3 52.8 L220.1 52.6 L220.0 52.4 L220.0 52.3 L220.1 52.2 L220.1 52.1 L220.1 51.6 L220.1 51.3 L220.3 51.1 L220.6 50.9 L221.4 51.1 L222.2 50.6 L223.4 49.5 L223.8 49.4 L225.0 49.5 L225.2 49.5 L225.6 49.3 L225.7 49.3 L226.2 49.3 L226.5 49.3 L226.7 49.2 L227.1 49.4 L227.6 49.3 L228.1 49.2 L228.5 49.1 L228.9 48.9 L230.2 47.1 L230.4 47.0 L230.9 47.1 L231.2 47.4 L231.4 47.8 L231.6 48.2 L231.6 48.7 L231.9 48.5 L232.1 48.3 L232.2 47.9 L232.3 47.2 L232.4 47.0 L232.5 46.8 L232.7 46.5 L232.8 46.7 L232.9 46.7 L233.0 46.7 L233.2 46.6 L233.3 46.5 L233.4 46.4 L233.4 46.2 L233.4 46.0 L233.7 45.7 L234.0 45.7 L234.8 45.9 L234.6 45.7 L234.3 45.6 L233.9 45.5 L233.7 45.4 L233.5 45.2 L233.6 44.9 L233.7 44.7 L234.4 44.1 L234.5 43.9 L234.5 43.6 L234.4 43.3 L234.5 43.2 Z M212.8 115.4 L213.6 115.4 L214.8 116.2 L215.5 116.4 L215.5 116.5 L215.4 116.6 L215.4 116.8 L215.3 116.9 L215.1 117.0 L214.2 117.4 L214.1 117.6 L213.9 117.8 L213.8 117.9 L213.7 118.2 L213.6 118.4 L213.4 118.6 L213.4 118.6 L213.2 118.9 L213.0 119.3 L212.8 119.7 L212.7 120.0 L212.4 120.1 L212.1 120.4 L212.2 120.8 L211.9 121.1 L211.8 121.3 L211.5 121.7 L210.9 121.7 L210.5 121.9 L210.2 122.0 L209.8 121.9 L209.4 121.8 L209.1 121.7 L209.0 121.3 L209.1 120.7 L209.2 118.6 L209.2 118.3 L209.8 117.2 L210.1 116.5 L210.3 116.3 L211.4 116.0 L212.4 115.5 L212.8 115.4 Z M49.6 80.5 L49.8 80.7 L50.1 80.7 L50.3 80.6 L50.5 80.5 L50.6 81.1 L50.2 81.9 L49.7 82.5 L49.2 82.9 L48.6 83.1 L48.5 83.2 L48.5 83.4 L48.2 83.9 L47.9 84.4 L47.6 84.7 L47.4 84.8 L47.1 84.9 L46.8 85.0 L46.2 85.0 L46.1 85.0 L45.7 85.3 L45.5 85.3 L45.3 85.3 L44.9 85.0 L44.7 85.0 L44.1 84.9 L43.9 84.8 L43.9 84.6 L44.0 84.4 L44.2 84.2 L44.4 84.0 L45.1 83.7 L45.3 83.5 L45.5 82.9 L45.7 82.9 L46.4 82.7 L46.6 82.5 L46.9 81.9 L47.1 81.7 L47.5 81.3 L47.6 81.1 L47.8 81.0 L48.4 80.8 L48.6 80.6 L48.9 80.6 L49.4 80.5 L49.6 80.5 Z M34.0 77.9 L34.2 78.1 L34.2 78.5 L34.0 79.3 L34.0 79.5 L34.1 79.7 L34.1 79.9 L34.1 80.0 L33.9 80.4 L33.9 80.5 L33.6 80.6 L33.4 80.9 L33.2 81.2 L33.0 81.5 L32.8 81.6 L32.7 81.6 L31.9 81.6 L31.8 81.6 L31.7 82.0 L31.5 82.2 L31.2 82.2 L30.8 82.2 L30.2 82.0 L29.9 81.9 L29.7 81.8 L29.7 81.7 L29.6 81.7 L29.4 81.6 L29.1 81.0 L28.9 80.8 L28.6 80.9 L28.3 80.8 L28.0 80.7 L27.8 80.5 L27.8 80.3 L27.8 79.4 L27.9 78.9 L28.1 78.5 L28.4 78.1 L28.6 77.8 L28.8 77.7 L29.3 77.5 L29.5 77.5 L29.7 77.5 L30.1 77.6 L30.2 77.6 L30.4 77.5 L30.6 77.4 L30.7 77.4 L32.4 77.2 L32.8 77.0 L32.9 77.0 L33.0 77.1 L33.1 77.1 L33.1 77.2 L33.2 77.4 L33.2 77.6 L33.2 77.8 L33.3 77.8 L33.5 77.9 L33.8 77.9 L34.0 77.9 Z M27.5 73.5 L27.7 73.6 L27.6 73.9 L27.2 74.5 L27.1 74.9 L26.7 75.0 L26.4 74.9 L25.6 74.7 L24.4 74.7 L24.0 74.6 L23.7 74.4 L23.4 74.3 L23.0 74.4 L22.7 74.1 L22.6 73.7 L22.4 73.3 L22.0 73.2 L22.7 72.2 L22.8 72.0 L22.7 71.7 L22.8 71.3 L23.1 71.1 L23.5 71.1 L23.6 71.2 L23.6 71.1 L23.7 71.1 L24.1 71.3 L25.3 71.7 L25.7 71.8 L26.3 72.0 L27.2 73.0 L27.7 73.4 L27.6 73.4 L27.6 73.4 L27.5 73.5 Z" fill="#172033" fill-rule="evenodd"/></svg>
