<svg xmlns="http://www.w3.org/2000/svg" viewBox="0 0 320 200" role="img"><path d="M129.5 131.5 L129.9 131.1 L130.2 130.7 L130.4 130.2 L130.5 129.7 L130.7 129.2 L132.7 126.5 L133.5 124.8 L135.6 123.4 L136.3 122.6 L136.3 120.5 L136.6 119.6 L136.7 119.1 L136.5 118.6 L136.1 118.2 L135.9 117.7 L135.9 117.2 L136.5 116.3 L136.5 115.8 L136.5 115.4 L136.6 114.9 L137.5 114.2 L138.8 113.8 L140.0 113.2 L140.5 112.2 L140.1 111.3 L139.1 110.5 L135.4 109.0 L133.7 108.6 L131.9 108.5 L130.4 108.9 L129.9 109.3 L129.4 109.8 L129.0 110.4 L128.8 110.9 L128.8 111.5 L128.6 111.9 L127.3 113.2 L126.7 113.6 L126.1 113.9 L125.3 114.0 L123.7 113.7 L122.9 113.7 L122.2 114.1 L121.4 115.1 L121.0 115.3 L120.2 115.1 L119.8 114.9 L118.5 113.7 L116.5 112.7 L115.3 111.9 L112.4 111.3 L110.7 111.2 L109.8 111.0 L109.6 110.9 L109.1 110.5 L108.9 110.4 L108.5 110.4 L108.3 110.5 L108.0 110.6 L107.7 110.7 L107.3 110.6 L106.9 110.4 L106.5 110.4 L106.1 110.6 L105.8 110.8 L105.5 111.0 L105.2 111.0 L104.9 110.9 L104.6 110.5 L104.4 110.0 L104.2 109.5 L104.2 109.1 L103.9 108.4 L103.5 108.1 L102.9 107.8 L102.4 107.4 L102.1 106.9 L102.1 106.4 L102.4 105.4 L102.4 104.1 L102.2 103.0 L101.6 102.5 L100.3 102.8 L99.8 102.8 L98.9 102.5 L98.1 102.1 L97.6 101.8 L97.3 101.2 L97.3 100.7 L97.1 100.4 L96.4 100.6 L95.9 101.0 L95.5 101.5 L95.1 101.7 L94.5 101.3 L94.4 100.9 L94.6 100.5 L95.0 100.0 L95.2 99.5 L95.0 98.7 L94.5 97.7 L94.1 96.5 L94.3 95.5 L94.7 95.1 L95.1 95.1 L96.0 95.2 L96.3 95.2 L96.5 94.9 L96.4 94.7 L95.7 94.4 L95.6 93.8 L95.9 93.3 L96.4 93.3 L98.1 93.7 L99.7 93.6 L101.3 93.2 L103.0 93.1 L103.8 93.3 L105.5 93.9 L106.2 94.0 L107.6 94.0 L107.7 93.9 L107.8 93.6 L107.7 93.3 L107.4 93.1 L106.7 92.9 L106.6 92.5 L106.8 92.0 L107.4 91.7 L108.2 91.7 L109.9 92.2 L110.7 92.3 L109.5 91.5 L108.1 91.0 L106.8 91.0 L105.6 91.7 L104.8 91.1 L104.0 91.1 L102.1 91.4 L98.9 91.2 L97.9 91.4 L97.1 91.6 L96.6 91.9 L96.3 92.1 L96.0 92.1 L94.6 91.9 L93.8 92.0 L91.4 92.6 L93.0 91.0 L93.8 90.6 L95.3 90.5 L95.6 90.2 L92.9 88.2 L92.5 87.4 L91.1 86.3 L91.1 85.4 L92.0 84.8 L94.9 84.9 L95.8 84.2 L96.6 84.5 L97.3 84.5 L98.1 84.4 L99.5 83.7 L99.9 83.5 L100.0 83.2 L100.0 82.7 L99.7 81.7 L99.0 80.9 L98.1 80.4 L97.0 80.0 L97.6 80.6 L98.9 81.3 L99.4 81.8 L99.0 82.0 L98.2 82.0 L97.9 82.1 L97.0 82.7 L97.0 82.9 L97.0 83.1 L96.7 83.6 L96.3 83.6 L96.0 83.5 L95.8 83.2 L95.6 83.0 L92.8 82.7 L91.6 82.2 L90.5 81.2 L90.8 81.3 L91.4 81.2 L91.7 81.2 L91.4 80.4 L91.6 79.9 L93.6 78.7 L94.0 78.5 L94.5 78.6 L95.2 79.2 L95.3 76.9 L93.8 74.8 L93.2 73.1 L95.6 72.3 L96.0 72.4 L96.9 72.6 L97.5 72.6 L97.8 72.5 L98.5 72.1 L99.5 71.8 L100.0 71.5 L100.6 71.2 L101.5 71.1 L103.8 72.3 L103.9 72.3 L104.4 72.3 L105.0 71.9 L105.0 71.5 L104.7 71.1 L104.2 70.8 L104.6 70.3 L105.6 70.0 L109.4 70.0 L111.3 70.2 L113.4 70.1 L115.6 69.7 L117.8 69.6 L119.7 70.6 L120.5 69.5 L120.2 68.8 L117.4 66.8 L117.0 66.4 L117.1 65.9 L117.7 65.5 L118.2 65.2 L118.9 65.1 L119.7 65.2 L120.9 65.6 L123.3 67.0 L124.6 67.2 L125.8 66.9 L125.4 66.2 L124.3 65.4 L123.2 64.9 L124.1 64.6 L127.9 64.4 L129.5 64.1 L130.0 63.6 L130.5 62.2 L130.7 61.9 L133.5 61.5 L134.5 61.6 L135.4 61.9 L136.9 62.9 L137.8 63.1 L138.6 62.9 L139.3 62.5 L140.0 62.2 L140.8 62.4 L143.3 63.3 L144.1 63.4 L144.8 63.2 L144.7 62.8 L144.0 62.4 L143.2 62.2 L143.2 61.9 L144.3 62.0 L144.8 61.8 L144.9 61.4 L145.1 61.0 L145.5 60.8 L146.0 60.8 L146.5 61.0 L147.2 61.7 L147.8 62.4 L148.5 62.9 L149.7 62.8 L150.2 62.6 L150.5 62.4 L151.5 61.3 L151.6 61.1 L151.2 60.4 L150.9 60.2 L150.5 60.0 L150.2 59.8 L150.0 59.4 L150.0 59.0 L150.0 58.6 L149.9 58.4 L149.7 58.0 L151.1 57.6 L152.7 58.3 L155.6 60.1 L156.7 60.3 L160.1 59.8 L161.1 60.0 L162.9 60.6 L163.8 60.7 L164.6 60.5 L164.3 59.4 L164.9 58.9 L165.9 58.9 L168.0 59.6 L177.3 61.0 L177.4 61.0 L177.1 60.0 L177.7 59.4 L178.7 59.2 L182.8 59.2 L183.2 59.1 L183.2 58.8 L182.9 58.5 L182.4 58.3 L181.2 57.5 L180.5 55.8 L180.4 54.0 L180.7 53.2 L181.4 53.6 L182.8 55.0 L183.6 55.3 L184.6 55.5 L185.3 56.0 L186.6 57.1 L187.6 57.5 L189.0 57.7 L190.3 57.6 L190.8 56.8 L190.5 56.1 L189.8 55.6 L189.3 55.0 L189.6 54.1 L189.3 54.1 L188.9 53.9 L188.7 53.9 L189.8 53.2 L191.1 53.4 L193.5 54.7 L193.2 55.0 L193.7 55.6 L194.1 56.7 L194.7 57.1 L195.5 57.3 L195.9 57.3 L196.3 57.3 L197.0 56.9 L197.7 56.2 L197.3 55.9 L197.9 54.9 L198.9 55.2 L199.9 56.0 L200.6 56.5 L201.5 56.4 L201.6 56.1 L201.4 55.7 L201.5 55.3 L202.0 54.9 L202.5 54.8 L203.1 54.9 L204.6 55.3 L206.3 56.1 L206.4 56.3 L206.5 56.5 L206.6 56.8 L207.0 56.9 L215.2 56.8 L216.0 57.0 L217.8 57.6 L220.5 57.9 L222.9 58.6 L224.7 58.9 L225.6 58.9 L226.3 58.8 L227.8 58.2 L228.4 58.0 L230.2 58.1 L231.9 58.4 L233.5 58.8 L235.1 59.5 L236.9 60.5 L238.9 61.6 L241.1 62.0 L242.9 62.6 L243.8 62.8 L251.5 63.1 L258.4 62.9 L264.2 62.7 L270.9 63.6 L277.6 63.8 L284.4 64.6 L286.2 64.3 L287.9 63.7 L289.2 62.9 L290.7 61.4 L291.6 62.2 L293.5 62.8 L294.5 63.3 L295.5 64.6 L295.9 64.9 L296.4 65.3 L297.5 65.8 L298.0 66.1 L297.8 66.9 L296.7 66.5 L294.8 67.3 L291.3 67.5 L289.9 67.8 L293.1 68.5 L294.1 68.5 L293.2 69.1 L288.2 69.0 L285.7 69.7 L284.8 70.4 L285.2 71.1 L284.4 72.1 L283.1 75.3 L280.5 79.0 L279.8 79.9 L277.9 81.7 L277.4 82.7 L276.7 83.3 L276.6 83.4 L272.8 85.2 L267.2 87.7 L265.8 90.2 L264.3 93.0 L265.1 95.0 L266.0 97.2 L268.1 102.6 L270.6 108.6 L267.9 111.9 L267.4 114.1 L268.0 116.2 L269.0 117.3 L269.9 118.3 L271.6 120.3 L273.8 121.9 L274.1 123.2 L273.8 124.3 L273.9 125.6 L274.7 125.8 L275.5 126.1 L275.8 127.2 L275.6 127.7 L275.3 128.2 L275.1 128.7 L275.3 129.3 L275.7 129.6 L280.1 130.5 L280.8 130.9 L281.2 131.8 L280.6 132.4 L279.6 132.8 L276.9 133.4 L270.6 133.9 L269.8 134.0 L269.3 134.1 L269.6 134.2 L270.5 134.7 L269.3 135.0 L268.7 135.3 L268.3 135.7 L268.1 136.4 L268.6 137.6 L268.5 138.2 L267.8 138.6 L264.2 139.3 L263.5 139.7 L263.2 139.9 L263.0 140.3 L262.8 140.7 L262.9 140.9 L263.0 141.1 L263.1 141.7 L263.2 141.8 L263.3 141.9 L263.2 142.8 L263.1 143.0 L262.7 143.2 L262.2 143.4 L261.6 143.4 L261.1 143.5 L260.7 143.9 L260.7 144.4 L261.0 145.1 L261.4 145.8 L261.8 146.3 L260.4 146.8 L253.7 145.5 L250.2 145.3 L249.1 145.1 L248.3 144.5 L246.7 143.2 L245.6 142.8 L244.1 142.5 L243.4 142.5 L242.6 142.6 L242.0 142.5 L241.5 142.2 L240.9 142.0 L240.1 142.2 L239.5 142.7 L239.0 143.4 L238.5 144.0 L237.6 144.4 L236.8 144.5 L233.5 144.4 L232.0 144.7 L230.6 145.1 L229.3 145.7 L229.0 146.0 L228.9 146.3 L228.7 146.6 L228.2 146.7 L227.8 146.6 L227.0 146.3 L226.6 146.3 L226.0 146.5 L225.4 146.7 L224.7 146.8 L223.9 146.3 L222.5 145.2 L221.7 144.8 L221.7 144.8 L218.3 144.0 L217.7 143.9 L215.9 143.2 L214.5 142.2 L210.3 138.6 L208.9 137.7 L204.1 135.6 L203.7 135.0 L203.6 134.1 L203.7 133.7 L204.0 133.5 L204.1 133.2 L204.0 132.8 L203.7 132.6 L203.1 132.5 L194.0 132.0 L192.9 131.5 L192.4 130.6 L192.0 129.7 L191.3 129.1 L190.6 129.1 L190.2 129.2 L187.8 129.6 L186.7 129.7 L185.7 129.6 L184.8 129.3 L183.8 128.6 L183.6 128.3 L183.6 128.0 L183.6 128.0 L183.5 127.7 L183.1 127.4 L182.7 127.2 L181.2 127.1 L179.4 126.5 L176.8 124.8 L175.1 124.3 L174.6 124.3 L174.4 124.4 L174.1 124.4 L173.7 124.3 L173.4 124.0 L172.9 123.2 L172.6 122.9 L171.8 122.6 L171.0 122.5 L170.5 122.8 L170.4 123.5 L171.6 124.7 L171.9 125.4 L171.1 126.0 L169.7 126.4 L169.0 126.4 L168.4 126.1 L167.8 125.2 L167.4 124.1 L166.8 123.2 L165.7 122.8 L163.7 122.8 L162.7 123.0 L161.7 123.3 L161.1 123.7 L158.5 125.1 L157.4 125.5 L154.1 125.8 L153.0 126.1 L152.1 126.6 L151.6 126.8 L150.5 126.7 L149.4 126.3 L148.0 126.1 L147.4 126.6 L146.6 127.8 L145.9 128.1 L143.3 128.2 L140.2 128.1 L139.3 128.2 L137.1 129.3 L135.3 129.8 L134.8 130.1 L134.1 131.1 L133.6 131.6 L132.6 131.9 L131.3 131.9 L129.5 131.5 Z M82.7 103.8 L83.8 104.1 L85.3 104.6 L86.5 105.3 L87.2 106.0 L86.8 106.6 L84.1 105.5 L83.0 106.0 L83.6 106.0 L84.1 106.2 L84.5 106.4 L84.8 106.8 L82.9 106.7 L82.1 106.4 L81.2 106.0 L81.1 105.7 L80.9 105.4 L80.6 105.2 L80.2 105.0 L79.5 105.0 L79.4 105.1 L79.2 105.4 L79.1 105.5 L78.9 106.1 L78.7 106.4 L78.4 106.7 L78.1 106.8 L77.4 107.1 L77.1 107.1 L76.7 107.0 L76.4 107.1 L76.2 107.6 L76.2 107.9 L76.3 108.1 L76.4 108.4 L76.5 108.6 L75.5 109.0 L74.6 109.6 L73.7 110.0 L71.7 109.2 L70.8 109.2 L70.4 109.6 L71.4 110.1 L68.5 112.2 L67.8 112.4 L67.1 112.5 L66.4 112.8 L65.1 113.6 L64.5 113.9 L63.5 114.0 L61.6 113.9 L60.6 114.0 L60.1 114.6 L62.1 115.3 L60.7 116.0 L58.3 116.2 L57.7 115.1 L57.1 114.9 L56.3 114.8 L55.5 114.8 L54.7 115.0 L54.1 115.4 L53.8 115.6 L53.6 115.5 L53.1 115.0 L52.5 114.7 L52.1 115.0 L51.8 115.8 L51.5 115.9 L51.3 116.0 L51.2 116.1 L50.9 116.1 L50.9 115.9 L50.6 115.3 L50.6 115.1 L50.0 115.1 L49.2 115.3 L48.5 115.6 L48.1 115.9 L47.6 116.1 L47.1 116.0 L46.6 115.9 L46.1 115.9 L45.8 116.1 L45.0 116.3 L44.6 116.4 L43.3 116.8 L42.1 117.4 L41.5 117.8 L41.2 118.0 L41.1 118.2 L41.0 119.8 L40.8 120.8 L40.4 121.7 L39.2 123.5 L38.9 123.9 L38.4 124.3 L38.0 124.6 L37.9 125.1 L38.1 126.0 L37.5 126.5 L31.4 129.5 L30.0 129.5 L28.9 128.6 L29.0 128.1 L28.9 127.6 L28.4 127.2 L27.8 127.1 L27.7 127.0 L27.7 126.8 L27.6 126.6 L27.7 126.5 L28.8 126.5 L29.2 126.5 L29.5 126.2 L29.9 125.3 L30.2 124.9 L31.8 123.5 L32.6 122.6 L33.0 122.2 L33.5 122.0 L34.1 122.1 L34.6 122.3 L35.2 122.4 L35.7 122.3 L35.9 122.0 L36.2 121.1 L36.5 120.7 L38.1 119.3 L37.1 118.8 L35.4 118.4 L32.4 118.1 L31.6 117.7 L30.0 115.6 L29.0 115.1 L26.2 115.1 L24.8 114.9 L23.5 114.3 L22.8 113.5 L22.5 113.0 L22.5 112.6 L23.0 112.4 L25.3 112.8 L24.8 112.1 L24.1 111.5 L23.8 110.9 L24.7 110.7 L25.5 111.0 L26.2 111.6 L26.9 111.9 L27.7 111.6 L27.3 110.8 L27.9 110.4 L28.9 110.2 L29.8 110.4 L29.4 109.9 L28.9 109.0 L26.9 107.0 L26.0 106.4 L25.0 105.4 L24.4 105.0 L23.2 104.4 L22.0 103.6 L24.3 104.1 L25.0 104.1 L25.6 104.0 L25.7 103.9 L25.8 103.6 L26.2 103.3 L27.8 103.3 L29.1 103.5 L30.2 104.1 L32.1 105.9 L32.3 106.4 L32.4 107.0 L32.5 107.2 L32.7 107.4 L32.9 107.4 L33.2 107.4 L33.6 107.3 L33.6 106.9 L33.3 106.2 L33.6 105.1 L33.8 104.6 L34.2 104.1 L34.8 103.9 L36.2 103.5 L36.7 103.1 L37.2 102.5 L37.4 102.2 L37.7 102.1 L38.5 102.0 L38.6 102.1 L38.8 102.4 L38.9 102.6 L39.0 102.8 L39.0 103.3 L39.2 103.6 L39.9 103.8 L41.1 104.0 L41.6 103.1 L41.6 101.9 L41.8 101.0 L43.3 100.4 L49.4 100.0 L53.2 98.4 L54.6 98.2 L55.1 98.4 L55.9 99.5 L56.4 99.7 L56.7 99.8 L57.1 100.2 L57.4 100.3 L57.9 100.2 L58.6 99.8 L58.9 99.7 L59.8 99.8 L60.5 100.1 L61.3 100.2 L62.2 100.0 L63.6 99.1 L64.5 98.7 L66.0 99.1 L68.4 98.8 L69.3 99.0 L70.3 99.3 L72.3 99.6 L74.3 100.4 L76.7 101.0 L77.6 101.6 L78.2 102.5 L78.5 102.8 L79.2 103.1 L80.9 103.6 L82.7 103.8 Z M89.3 100.6 L90.0 101.3 L90.1 101.6 L89.2 102.0 L88.9 102.4 L88.4 102.6 L87.8 102.5 L87.1 102.3 L86.3 102.1 L84.8 102.0 L84.2 102.2 L82.9 102.5 L82.4 102.5 L78.6 100.6 L76.3 100.1 L75.3 99.6 L75.4 98.6 L76.0 98.4 L77.3 98.7 L78.0 98.5 L78.1 98.2 L78.4 97.3 L78.6 97.0 L79.4 96.4 L80.4 96.2 L81.3 96.2 L85.2 96.8 L87.1 97.4 L87.6 97.8 L87.9 98.2 L87.8 98.6 L87.7 99.0 L87.8 99.4 L88.2 99.8 L89.0 100.3 L89.3 100.6 Z M88.5 81.1 L89.6 82.0 L89.8 82.5 L89.4 83.2 L89.0 83.4 L88.5 83.3 L87.9 83.1 L87.5 83.0 L87.0 83.1 L85.7 83.6 L84.8 83.6 L83.3 83.1 L82.4 83.0 L82.2 83.1 L82.1 83.3 L81.9 83.5 L80.3 83.7 L79.8 83.7 L79.2 83.5 L77.9 81.6 L77.7 81.4 L77.9 80.9 L78.4 80.6 L79.2 80.4 L80.1 80.3 L81.8 80.4 L84.8 80.9 L86.7 80.6 L87.7 80.6 L88.5 81.1 Z M42.0 86.9 L39.1 87.3 L37.8 87.2 L32.0 85.6 L31.2 85.1 L31.7 84.4 L33.4 84.2 L36.6 84.5 L49.4 83.6 L48.5 83.3 L48.5 83.0 L49.0 82.9 L50.0 83.2 L50.5 83.2 L50.5 81.6 L51.2 81.2 L52.2 81.2 L52.9 81.0 L53.6 80.7 L54.2 80.0 L54.3 79.7 L54.3 79.3 L54.4 78.9 L54.8 78.6 L55.2 78.4 L57.1 78.6 L57.1 78.6 L58.2 78.6 L59.5 78.9 L60.3 79.3 L59.3 80.5 L59.7 81.3 L60.6 81.8 L61.3 82.1 L65.6 82.0 L69.9 83.0 L70.5 83.6 L70.7 84.0 L70.4 84.7 L70.5 85.1 L70.9 85.5 L71.8 85.9 L72.2 86.2 L72.5 86.4 L73.1 86.8 L73.4 87.0 L73.5 87.2 L73.5 87.5 L73.5 88.0 L73.7 88.2 L74.0 88.3 L74.3 88.3 L74.4 88.4 L74.5 89.3 L74.2 89.7 L73.5 89.8 L71.8 89.1 L71.3 89.0 L70.8 89.0 L70.5 89.1 L70.4 89.4 L70.2 89.5 L69.6 89.3 L68.9 89.5 L68.2 89.5 L67.5 89.6 L66.9 90.2 L67.4 90.2 L67.6 90.3 L67.8 90.5 L67.9 90.9 L67.8 91.4 L67.6 91.5 L67.3 91.5 L66.8 91.8 L66.0 92.0 L64.8 92.1 L63.6 91.8 L63.1 91.4 L63.6 90.9 L64.5 90.6 L65.2 90.2 L64.9 89.7 L64.1 89.7 L63.1 90.0 L62.0 90.4 L61.3 90.7 L60.3 91.8 L58.9 94.3 L57.7 95.2 L55.8 95.8 L53.4 95.9 L51.1 95.6 L49.4 94.7 L49.8 94.5 L50.2 94.3 L50.9 93.7 L50.3 93.3 L49.5 92.5 L48.8 91.6 L48.5 90.9 L48.5 89.8 L48.4 89.2 L48.0 88.7 L45.9 87.5 L44.7 87.0 L43.4 86.8 L42.0 86.9 Z" fill="#172033" fill-rule="evenodd"/></svg>
