<svg xmlns="http://www.w3.org/2000/svg" viewBox="0 0 320 200" role="img"><path d="M215.8 29.2 L215.9 29.6 L216.6 31.3 L217.1 32.7 L217.7 34.1 L218.5 36.0 L219.5 38.2 L219.9 39.5 L219.9 40.2 L220.0 40.5 L220.3 40.8 L220.4 41.0 L220.4 41.2 L220.3 41.7 L220.2 41.9 L220.3 42.1 L220.4 42.3 L221.3 43.0 L221.4 43.2 L222.0 44.5 L222.9 46.9 L223.6 48.5 L223.6 48.5 L223.6 48.6 L223.6 48.7 L223.6 48.8 L223.7 49.7 L224.4 51.4 L225.1 52.9 L225.5 54.6 L225.5 55.7 L225.6 56.1 L225.9 56.7 L226.1 57.0 L225.9 57.1 L225.8 57.2 L225.6 57.3 L225.5 57.4 L225.4 57.6 L225.4 57.8 L225.3 57.9 L225.1 58.0 L225.1 58.0 L225.2 58.0 L225.2 58.0 L225.2 58.1 L225.1 58.2 L225.0 58.2 L224.9 58.3 L225.0 58.4 L224.8 58.4 L224.8 58.5 L224.8 58.6 L224.9 58.6 L224.7 58.8 L224.3 59.3 L224.2 59.4 L224.1 59.5 L224.0 59.5 L223.9 59.6 L223.9 59.7 L223.8 59.8 L223.7 59.9 L223.7 60.0 L223.8 60.2 L223.7 60.4 L223.6 60.6 L223.5 60.8 L223.5 61.7 L223.5 61.9 L223.3 62.0 L223.1 62.1 L223.0 62.2 L223.0 62.5 L222.9 62.7 L222.8 63.0 L222.7 63.2 L222.7 63.4 L222.7 64.3 L222.7 64.5 L222.9 64.7 L222.9 64.9 L222.8 65.1 L222.7 65.2 L222.6 65.2 L222.2 65.4 L222.2 65.5 L222.1 65.7 L222.1 65.8 L222.2 66.1 L222.2 67.1 L221.8 67.4 L221.8 67.5 L221.8 67.6 L221.9 67.8 L221.9 68.1 L221.8 68.3 L221.8 68.3 L221.9 68.4 L222.0 68.6 L221.8 68.7 L221.8 68.8 L221.9 68.9 L221.9 69.0 L221.8 69.2 L221.8 69.3 L221.7 69.3 L221.7 69.4 L221.6 69.7 L221.2 70.2 L221.0 70.9 L220.3 71.8 L220.1 72.3 L220.1 72.3 L220.1 72.3 L220.1 72.4 L220.0 72.3 L220.2 72.8 L220.0 73.2 L219.7 73.4 L219.3 73.7 L219.4 73.7 L219.4 73.7 L219.4 73.8 L219.2 73.9 L219.1 74.1 L218.9 74.8 L218.9 75.0 L218.7 75.3 L218.7 75.3 L218.6 75.5 L218.4 75.9 L218.3 76.1 L218.4 76.3 L218.4 76.5 L218.5 76.7 L218.6 76.9 L218.6 77.0 L218.4 77.3 L218.6 77.5 L218.8 77.7 L218.9 78.0 L219.1 78.1 L219.1 78.2 L219.1 78.3 L219.1 78.4 L219.0 78.4 L219.0 78.5 L219.0 78.7 L218.8 79.3 L218.7 79.7 L218.9 80.2 L218.7 81.3 L218.8 81.4 L218.4 81.5 L218.2 81.5 L218.2 81.6 L218.1 81.8 L218.1 81.9 L217.9 82.0 L217.8 82.3 L217.6 82.3 L217.5 82.3 L217.3 82.4 L217.1 82.4 L217.1 82.5 L217.2 82.5 L217.2 82.5 L217.2 82.5 L217.1 82.8 L216.9 83.3 L216.8 83.4 L216.7 83.4 L216.6 83.3 L216.5 83.3 L216.4 83.2 L216.3 83.3 L216.2 83.7 L216.0 83.9 L216.2 84.1 L216.0 84.2 L215.6 84.4 L215.4 84.4 L215.3 84.4 L215.2 84.4 L215.3 84.7 L215.3 84.8 L215.9 84.8 L215.9 84.9 L215.8 84.9 L215.8 85.0 L215.9 85.0 L215.9 85.1 L216.0 85.3 L215.9 85.2 L215.8 85.2 L215.8 85.2 L215.8 85.3 L215.8 85.3 L215.9 85.3 L215.9 85.4 L215.8 85.4 L215.7 85.3 L215.4 84.9 L215.1 84.7 L215.0 84.6 L214.8 84.5 L214.6 84.4 L213.0 84.3 L212.6 84.0 L211.6 82.9 L211.5 82.8 L211.3 82.8 L210.4 82.1 L210.2 82.0 L210.0 82.0 L209.8 82.1 L209.6 81.7 L209.5 81.8 L209.3 81.6 L208.8 81.2 L208.6 81.1 L208.6 81.1 L208.5 81.0 L208.5 80.9 L208.4 80.8 L208.3 80.7 L208.2 80.7 L207.9 80.6 L208.0 80.2 L207.2 79.8 L207.2 79.5 L206.9 79.4 L206.7 79.0 L206.5 78.7 L206.5 78.4 L206.4 78.4 L206.4 78.4 L206.3 78.3 L206.3 78.2 L206.2 78.2 L206.2 78.3 L206.1 78.3 L206.0 78.3 L205.9 78.1 L205.8 78.1 L205.6 77.3 L205.5 77.2 L205.4 77.2 L205.3 77.0 L204.9 76.5 L204.7 76.2 L202.6 75.1 L202.5 75.0 L202.5 74.9 L202.1 74.3 L201.8 74.1 L201.6 73.9 L201.6 73.8 L200.5 73.1 L200.4 73.0 L200.3 72.9 L200.3 72.7 L200.1 72.5 L199.9 72.3 L199.8 72.3 L199.9 72.1 L199.9 72.3 L200.0 72.3 L199.9 71.7 L199.6 71.7 L199.5 71.9 L199.8 72.1 L199.5 72.0 L199.3 71.8 L199.2 71.5 L199.2 70.9 L199.1 70.6 L198.8 70.1 L198.9 69.8 L199.1 69.1 L199.3 68.7 L199.1 68.5 L199.0 68.4 L198.9 68.0 L198.8 68.0 L198.7 67.9 L198.5 67.8 L198.4 67.5 L198.4 66.8 L198.3 66.6 L198.3 66.5 L198.5 66.3 L198.5 66.2 L198.4 65.8 L198.4 65.8 L198.3 65.5 L198.3 65.3 L198.4 65.2 L198.5 65.1 L198.4 64.8 L198.2 64.7 L198.1 64.7 L198.1 64.5 L198.0 64.4 L197.8 64.3 L197.7 64.4 L197.5 64.2 L197.1 64.0 L196.9 63.8 L196.7 63.4 L196.7 63.3 L196.6 63.3 L196.4 63.1 L196.3 63.0 L196.3 63.0 L196.0 62.6 L195.9 62.6 L195.8 62.5 L195.8 62.5 L195.7 62.5 L195.7 62.3 L195.7 62.3 L194.9 61.6 L194.7 61.6 L194.3 61.4 L194.0 61.2 L193.8 61.0 L193.7 60.7 L193.6 60.4 L193.5 60.1 L193.3 60.0 L193.1 59.9 L193.0 59.8 L192.7 59.1 L192.7 59.1 L192.7 58.5 L192.7 58.2 L192.2 58.0 L191.4 57.5 L191.6 57.5 L191.5 57.4 L191.4 57.4 L191.4 57.3 L191.2 57.3 L191.3 57.3 L191.3 57.2 L191.3 57.2 L191.3 57.1 L191.2 57.1 L191.2 57.2 L191.1 57.3 L191.1 57.4 L191.2 57.5 L191.0 57.5 L191.1 56.9 L191.2 56.2 L191.0 55.5 L190.5 55.2 L190.5 55.1 L190.6 54.9 L190.6 54.7 L190.5 54.4 L190.5 54.2 L190.5 54.0 L190.6 53.6 L190.7 53.5 L190.7 53.2 L190.6 53.0 L190.6 52.9 L190.5 52.8 L190.1 52.3 L190.0 52.2 L189.9 52.1 L189.6 51.7 L189.2 51.6 L189.3 51.4 L189.5 51.3 L189.6 51.2 L189.6 50.8 L189.4 50.5 L188.7 49.9 L188.8 49.8 L188.9 49.7 L188.9 49.7 L188.8 49.6 L188.9 49.5 L188.9 49.5 L188.9 49.5 L188.8 49.5 L188.7 49.4 L188.7 49.3 L188.6 49.2 L188.5 49.1 L188.6 49.1 L188.6 49.1 L188.7 49.0 L188.8 49.0 L188.8 48.9 L188.8 48.8 L188.8 48.7 L188.8 48.6 L188.7 48.6 L188.5 49.0 L188.5 49.1 L188.5 49.3 L188.6 49.3 L188.7 49.5 L188.7 49.7 L188.6 49.7 L188.5 49.5 L188.4 49.4 L188.2 49.3 L188.0 49.5 L187.8 49.4 L187.4 49.5 L187.2 49.8 L187.0 50.1 L187.0 50.4 L187.1 50.7 L187.3 50.8 L187.7 50.9 L187.4 51.1 L186.1 52.8 L186.0 52.9 L185.8 53.0 L185.4 53.8 L185.3 54.0 L185.2 54.7 L185.2 55.0 L184.9 55.2 L184.9 55.3 L185.1 55.4 L185.3 55.7 L185.4 55.9 L185.6 56.2 L185.7 56.4 L186.6 56.9 L186.8 57.0 L187.5 57.8 L188.0 58.1 L188.5 58.5 L188.9 58.9 L189.0 59.2 L189.1 59.6 L189.3 60.2 L189.5 60.7 L189.7 61.0 L189.7 61.1 L189.6 61.4 L190.1 62.9 L190.1 63.1 L190.1 63.5 L190.0 63.6 L189.9 63.7 L189.8 63.9 L189.6 64.0 L189.6 64.1 L189.7 64.3 L189.6 64.8 L189.6 65.3 L189.7 65.5 L190.2 66.0 L190.3 66.2 L190.4 66.3 L190.4 66.7 L190.5 66.8 L190.8 67.2 L190.9 67.2 L191.6 68.0 L192.1 68.1 L192.5 68.5 L192.7 69.0 L193.4 71.4 L193.5 71.7 L193.7 71.7 L194.4 72.1 L194.8 72.5 L195.0 72.7 L195.2 73.0 L195.3 73.0 L195.5 73.1 L195.7 73.1 L195.7 73.2 L195.8 73.6 L196.3 74.3 L196.4 74.5 L196.4 74.5 L196.4 74.6 L196.4 74.6 L196.3 74.6 L197.0 75.1 L197.3 75.4 L197.3 75.8 L197.4 75.9 L197.6 76.1 L197.6 76.3 L197.7 76.4 L197.7 76.4 L198.1 76.9 L198.9 77.6 L199.0 78.0 L199.2 78.1 L199.4 78.1 L199.5 78.2 L199.6 78.4 L199.6 78.6 L199.6 78.7 L199.9 78.8 L200.2 78.9 L200.7 79.5 L201.1 79.7 L201.1 79.8 L201.1 79.9 L201.1 80.0 L201.0 80.1 L201.2 80.2 L201.4 80.3 L201.5 80.2 L201.7 80.5 L202.0 80.6 L202.8 80.8 L203.9 81.7 L204.3 82.4 L204.5 82.5 L204.6 82.7 L204.9 83.4 L205.0 83.6 L205.0 83.7 L205.0 83.9 L205.1 84.2 L205.2 84.3 L205.2 84.4 L205.1 84.4 L204.8 84.4 L204.7 84.0 L204.3 83.8 L203.9 83.7 L203.5 83.5 L203.4 83.5 L203.3 83.8 L203.3 83.9 L203.3 84.0 L203.4 84.2 L203.7 84.5 L203.9 84.7 L204.0 84.9 L204.1 85.0 L204.3 85.0 L204.5 84.9 L204.6 84.9 L204.6 85.1 L204.5 85.4 L204.4 85.6 L204.3 85.7 L204.4 85.8 L204.4 85.9 L204.5 86.0 L204.8 86.1 L204.9 86.2 L205.0 86.2 L205.1 86.5 L205.2 86.6 L205.2 86.7 L205.0 86.6 L204.6 86.2 L204.5 86.2 L204.5 86.3 L204.6 86.4 L204.6 86.5 L204.5 86.5 L204.4 86.2 L204.1 86.2 L203.8 86.5 L203.6 86.7 L204.0 86.9 L204.3 87.2 L204.7 88.0 L204.7 88.1 L204.6 88.2 L204.6 88.3 L204.6 88.5 L204.9 88.7 L205.6 89.0 L205.8 89.2 L205.9 89.3 L205.9 89.7 L206.0 89.8 L206.1 90.0 L206.3 90.2 L206.5 90.4 L206.6 90.7 L206.7 91.4 L206.8 91.7 L207.3 92.1 L207.9 92.5 L208.6 92.8 L208.9 93.0 L209.2 93.3 L209.2 93.4 L209.2 94.0 L209.1 94.1 L209.0 94.2 L208.9 94.3 L208.9 94.4 L209.0 94.5 L209.0 94.6 L209.1 95.0 L209.1 95.2 L209.3 95.5 L209.6 95.6 L209.9 95.9 L210.2 96.2 L210.3 96.5 L210.1 96.5 L210.1 96.7 L210.2 97.0 L210.5 97.4 L210.6 97.6 L210.8 98.1 L211.0 98.3 L211.2 98.4 L211.4 98.6 L211.6 98.7 L211.7 98.9 L211.8 99.4 L211.8 99.6 L211.7 99.8 L211.4 99.8 L211.3 99.7 L211.1 99.6 L210.9 99.9 L210.9 100.1 L210.9 100.4 L210.9 100.7 L211.0 100.9 L211.0 101.3 L210.7 102.3 L210.8 102.8 L211.0 102.9 L211.6 103.1 L211.8 103.2 L212.0 103.5 L212.2 104.0 L212.7 104.6 L212.9 105.0 L213.5 106.4 L213.7 106.9 L214.0 107.3 L214.2 107.7 L214.6 108.2 L216.0 111.1 L216.6 111.9 L217.2 113.3 L218.5 114.9 L218.6 115.1 L218.8 115.6 L219.9 117.0 L220.5 117.6 L220.6 117.8 L222.0 120.3 L222.2 121.0 L222.6 121.7 L222.8 122.6 L223.1 123.0 L223.8 123.8 L223.9 124.0 L224.0 124.5 L224.1 124.7 L224.6 125.4 L224.8 126.1 L225.5 127.2 L226.9 129.4 L227.0 129.9 L227.2 130.4 L227.4 130.7 L227.7 131.0 L227.8 131.3 L227.8 131.9 L227.9 132.2 L227.9 132.4 L228.1 132.6 L228.3 132.8 L228.5 132.9 L228.9 133.3 L229.2 133.7 L229.6 135.0 L229.7 135.2 L230.0 135.6 L230.3 136.2 L230.5 136.3 L230.5 136.6 L230.2 137.1 L230.2 137.5 L230.9 137.8 L231.7 139.2 L233.9 140.7 L234.2 141.1 L234.8 142.6 L235.3 143.1 L235.9 143.9 L236.2 143.8 L236.0 143.6 L235.9 143.4 L236.0 143.3 L236.4 143.7 L236.8 143.8 L237.4 144.4 L237.6 144.8 L237.7 145.3 L238.2 145.6 L238.7 145.5 L239.1 145.6 L239.5 145.7 L239.8 145.9 L240.1 146.1 L240.4 146.8 L240.7 147.2 L240.6 147.3 L240.4 147.0 L240.0 146.7 L239.8 146.7 L239.2 146.9 L239.0 147.1 L238.6 146.9 L238.3 146.8 L238.0 146.8 L237.8 146.8 L237.6 146.8 L237.3 146.6 L237.2 146.5 L237.0 146.3 L236.8 146.3 L236.8 146.2 L236.6 146.1 L236.2 146.0 L236.1 146.1 L235.8 146.5 L235.7 146.9 L235.8 147.7 L235.7 148.4 L235.6 148.9 L235.7 149.3 L236.0 149.4 L236.1 149.6 L236.1 149.8 L236.1 149.9 L236.1 150.2 L236.1 150.4 L236.1 150.7 L236.1 151.4 L236.0 152.8 L236.0 153.0 L235.9 153.5 L235.8 153.7 L235.9 154.0 L236.0 154.2 L236.4 154.7 L236.7 155.2 L236.8 155.4 L236.8 155.7 L236.8 156.4 L236.9 157.2 L237.1 157.8 L237.2 158.3 L237.9 159.5 L234.8 162.1 L231.3 165.2 L233.5 163.4 L235.8 161.4 L237.9 159.5 L238.2 160.0 L238.5 160.6 L238.7 162.0 L238.8 162.3 L239.1 162.9 L239.8 163.6 L240.2 163.9 L240.0 163.6 L239.6 162.9 L239.9 162.9 L240.1 163.0 L240.3 163.3 L240.4 163.5 L240.5 164.3 L240.6 164.5 L240.8 164.6 L241.0 164.8 L241.1 165.0 L241.3 165.2 L241.6 165.6 L242.2 166.0 L242.8 166.3 L243.1 166.3 L243.1 166.4 L243.3 166.5 L243.6 166.6 L243.8 166.7 L244.7 166.8 L246.0 167.0 L247.3 167.4 L247.7 167.6 L248.5 168.3 L248.7 168.7 L248.8 169.5 L249.1 170.0 L249.6 170.4 L250.1 170.7 L250.4 170.8 L250.6 170.9 L250.5 170.7 L250.6 170.7 L251.0 171.0 L250.9 171.5 L251.2 172.2 L252.3 172.6 L252.8 172.9 L253.1 173.1 L254.1 173.9 L255.6 175.2 L255.9 175.3 L256.1 175.3 L256.2 175.2 L256.2 175.1 L256.3 175.1 L256.4 175.1 L256.7 175.3 L256.8 175.4 L256.9 175.5 L257.1 176.0 L257.3 176.2 L257.5 176.4 L258.1 176.7 L258.5 176.8 L258.6 177.4 L258.6 177.6 L258.5 177.8 L258.3 178.0 L258.3 178.0 L254.6 178.0 L250.8 178.0 L247.0 178.0 L243.3 178.0 L239.5 178.0 L235.8 178.0 L232.0 178.0 L228.3 178.0 L224.5 178.0 L220.7 178.0 L217.0 178.0 L213.2 178.0 L213.1 178.0 L213.0 178.0 L209.5 178.0 L205.7 178.0 L202.0 178.0 L198.5 178.0 L198.2 178.0 L198.2 178.0 L196.5 178.0 L194.9 178.0 L193.2 178.0 L191.6 178.0 L189.9 178.0 L188.3 178.0 L187.9 178.0 L186.6 178.0 L185.0 178.0 L183.3 178.0 L181.7 178.0 L180.0 178.0 L178.4 178.0 L176.7 178.0 L175.1 178.0 L173.4 178.0 L171.8 178.0 L171.3 178.0 L170.4 178.0 L170.9 176.6 L171.3 175.5 L171.3 175.1 L171.1 174.8 L170.8 174.4 L170.5 174.3 L170.2 174.2 L169.9 174.3 L169.6 174.4 L169.1 174.9 L168.4 176.3 L168.4 176.4 L167.6 177.9 L167.3 178.0 L166.7 178.0 L165.2 178.0 L163.6 178.0 L162.0 178.0 L160.4 178.0 L158.9 178.0 L157.3 178.0 L155.7 178.0 L154.2 178.0 L152.6 178.0 L151.0 178.0 L149.4 178.0 L147.9 178.0 L146.3 178.0 L144.7 178.0 L143.2 178.0 L141.6 178.0 L140.0 178.0 L138.4 178.0 L136.9 178.0 L135.3 178.0 L133.7 178.0 L132.2 178.0 L130.6 178.0 L129.0 178.0 L127.4 178.0 L125.9 178.0 L124.3 178.0 L122.7 178.0 L121.2 178.0 L119.6 178.0 L118.0 178.0 L116.4 178.0 L114.9 178.0 L113.3 178.0 L111.7 178.0 L110.2 178.0 L108.6 178.0 L107.0 178.0 L105.4 178.0 L103.9 178.0 L102.3 178.0 L100.7 178.0 L99.2 178.0 L97.6 178.0 L96.0 178.0 L94.4 178.0 L92.9 178.0 L91.3 178.0 L89.7 178.0 L88.2 178.0 L86.6 178.0 L85.0 178.0 L83.4 178.0 L81.9 178.0 L80.3 178.0 L78.7 178.0 L77.2 178.0 L75.6 178.0 L74.0 178.0 L72.4 178.0 L70.9 178.0 L69.3 178.0 L67.7 178.0 L66.2 178.0 L66.2 173.3 L66.2 168.6 L66.2 163.8 L66.2 159.1 L66.2 154.4 L66.2 149.7 L66.2 145.0 L66.2 140.3 L66.2 135.6 L66.2 130.9 L66.2 126.2 L66.2 121.4 L66.2 116.7 L66.2 112.0 L66.2 107.3 L66.2 102.6 L66.2 99.4 L66.2 96.4 L66.2 95.0 L66.2 89.5 L66.2 87.0 L66.2 86.4 L66.2 80.7 L66.2 79.5 L66.2 73.1 L66.2 66.7 L66.2 64.0 L66.2 62.0 L66.0 61.0 L65.8 60.2 L64.4 57.3 L64.3 56.8 L64.2 56.1 L64.4 55.0 L64.4 54.6 L64.1 53.9 L63.3 52.7 L63.2 52.0 L63.5 51.2 L63.5 50.9 L63.4 50.5 L62.0 47.5 L61.6 46.8 L61.4 46.4 L61.4 45.8 L61.7 45.2 L62.4 44.2 L62.6 43.6 L62.8 43.4 L63.2 42.9 L63.7 42.5 L64.7 41.2 L65.0 40.7 L65.1 40.1 L65.2 39.8 L65.7 38.7 L65.8 37.8 L66.0 37.2 L66.3 36.6 L66.4 36.1 L66.2 35.4 L65.4 34.1 L65.2 33.3 L64.7 32.3 L64.6 32.0 L64.2 30.2 L64.2 28.9 L64.0 27.6 L64.0 27.0 L64.2 26.5 L66.8 24.6 L67.4 23.2 L67.9 22.7 L68.9 22.0 L68.9 22.1 L69.1 23.2 L69.2 23.7 L69.5 24.0 L69.9 24.1 L70.7 24.1 L71.3 24.4 L71.7 24.4 L72.4 24.3 L72.6 24.4 L72.7 24.4 L72.9 24.5 L73.2 24.3 L73.6 24.2 L74.1 24.2 L76.7 23.5 L79.8 22.7 L80.5 22.6 L82.1 22.6 L88.4 24.2 L93.1 24.7 L93.4 24.8 L93.6 24.9 L94.4 24.9 L94.8 24.9 L95.9 25.4 L96.6 25.5 L97.3 25.6 L97.9 25.4 L98.2 25.3 L98.5 25.5 L98.7 25.7 L98.9 25.7 L99.0 25.7 L99.2 25.8 L99.6 26.0 L100.6 26.3 L101.7 26.4 L102.1 26.5 L102.4 26.7 L102.5 26.6 L102.7 26.5 L102.7 26.4 L102.9 26.5 L103.9 26.4 L104.0 26.5 L104.2 26.5 L104.3 26.7 L104.3 26.7 L104.2 26.8 L104.3 26.9 L104.4 27.1 L104.5 27.2 L104.6 27.2 L104.6 27.3 L104.6 27.5 L104.7 27.6 L104.8 27.8 L104.9 28.3 L105.1 28.5 L105.5 28.8 L106.0 29.0 L106.5 29.1 L107.5 29.3 L107.9 29.4 L108.2 29.5 L108.6 29.3 L109.4 29.7 L110.4 29.5 L112.2 28.8 L112.5 28.7 L112.7 28.8 L112.8 29.1 L112.8 29.4 L112.8 29.5 L113.1 30.1 L113.2 30.6 L113.2 30.8 L113.7 31.0 L114.5 31.1 L117.4 31.1 L117.6 31.1 L117.7 31.2 L117.9 31.3 L118.0 31.4 L118.2 31.5 L118.7 31.4 L119.0 31.4 L119.7 31.6 L120.0 31.6 L120.4 31.6 L121.1 31.3 L121.4 31.2 L121.7 31.3 L122.0 31.4 L122.3 31.5 L122.5 31.7 L122.6 31.8 L123.2 31.8 L123.4 31.8 L123.6 31.8 L123.9 32.0 L126.7 32.9 L127.3 33.1 L127.6 33.3 L128.0 33.3 L128.1 33.4 L128.2 33.8 L128.3 34.0 L128.4 34.0 L128.7 34.1 L131.5 35.4 L134.1 35.3 L134.6 35.2 L136.8 34.3 L139.2 33.3 L140.0 32.7 L140.7 32.4 L140.8 32.4 L140.9 32.2 L141.0 32.1 L143.4 30.6 L143.7 30.2 L144.1 30.3 L144.6 30.1 L145.3 29.5 L145.2 29.4 L145.1 29.4 L145.0 29.4 L145.1 29.3 L145.2 29.2 L145.3 29.1 L145.4 29.3 L145.5 29.3 L145.7 29.1 L146.5 28.6 L146.7 28.4 L146.9 28.3 L147.2 28.0 L147.4 27.9 L147.6 27.8 L147.7 27.7 L147.8 27.6 L148.0 27.5 L147.9 27.5 L147.9 27.5 L147.9 27.5 L147.9 27.4 L148.3 27.2 L148.3 27.7 L148.7 28.0 L148.8 28.0 L149.4 28.2 L150.0 28.2 L149.8 28.3 L149.7 28.5 L149.5 28.5 L149.5 28.6 L149.5 28.6 L149.6 28.6 L149.6 28.7 L149.4 28.8 L149.5 28.9 L149.7 29.0 L149.9 29.1 L150.5 28.8 L150.4 28.9 L150.5 29.0 L150.7 29.1 L150.7 29.0 L150.8 28.9 L151.3 28.5 L151.3 28.6 L151.4 28.6 L151.4 28.7 L151.4 28.6 L151.5 28.5 L151.5 28.4 L151.5 28.3 L151.6 28.3 L151.6 28.5 L151.7 28.6 L151.7 28.7 L151.8 28.8 L151.9 28.7 L152.1 28.2 L151.8 28.1 L151.6 28.2 L151.4 28.3 L151.1 28.3 L151.1 28.2 L151.1 28.2 L151.2 28.2 L151.3 28.2 L151.3 28.1 L151.0 28.2 L150.1 28.2 L150.1 28.1 L150.7 28.0 L151.2 27.7 L152.2 26.9 L152.6 26.4 L152.8 25.8 L152.9 25.1 L152.7 24.6 L152.8 24.6 L152.9 24.9 L153.1 25.2 L153.3 25.4 L153.6 25.4 L153.2 25.1 L152.9 24.7 L153.0 24.4 L153.6 24.7 L154.1 25.0 L154.6 25.1 L155.1 25.2 L155.8 25.1 L158.1 24.6 L162.9 23.1 L162.9 23.2 L162.7 23.3 L161.2 23.7 L159.9 24.4 L159.1 24.7 L158.4 25.1 L158.3 25.1 L158.1 25.2 L157.9 25.2 L157.3 25.6 L157.0 25.7 L156.4 25.7 L156.3 25.8 L156.2 25.8 L155.9 26.1 L155.9 26.2 L156.3 26.3 L156.4 26.3 L156.5 26.2 L156.6 26.2 L156.8 26.3 L157.3 26.3 L157.7 26.2 L157.9 26.1 L158.1 25.8 L158.4 25.9 L158.7 26.1 L158.9 26.3 L159.0 26.3 L159.1 26.1 L159.4 25.8 L159.7 25.5 L159.9 25.4 L160.1 25.4 L160.3 25.5 L160.5 25.6 L160.7 25.7 L160.9 25.7 L161.1 25.6 L161.3 25.6 L161.5 25.7 L161.4 25.7 L161.4 25.7 L161.4 25.7 L161.4 25.8 L161.6 25.8 L161.9 25.8 L162.1 25.6 L162.4 25.4 L162.3 25.4 L162.3 25.4 L162.3 25.4 L162.3 25.3 L162.3 25.3 L162.3 25.3 L162.3 25.3 L162.4 25.2 L162.9 25.4 L163.0 25.6 L163.2 25.4 L163.3 25.3 L163.5 25.0 L163.4 24.9 L163.4 24.7 L163.7 24.6 L163.7 24.5 L163.7 24.4 L163.7 24.3 L163.8 24.2 L163.9 24.2 L164.5 24.2 L164.6 24.3 L164.9 24.4 L164.9 24.5 L164.9 24.6 L165.0 24.6 L165.1 24.7 L165.3 24.6 L165.4 24.6 L165.4 24.5 L165.1 24.3 L165.2 24.3 L165.3 24.2 L165.4 24.3 L165.1 23.9 L164.5 23.5 L163.7 23.2 L163.0 23.2 L163.1 23.1 L163.5 23.0 L164.9 22.8 L165.4 22.8 L166.9 23.2 L169.0 24.0 L169.4 24.2 L170.1 24.7 L171.8 25.3 L172.3 25.4 L172.6 25.4 L173.0 25.4 L175.4 24.8 L176.9 24.1 L177.4 24.0 L178.1 24.0 L178.6 24.2 L178.8 24.6 L178.9 24.8 L179.4 25.4 L179.6 25.9 L179.9 26.1 L180.4 26.5 L180.6 26.6 L181.0 26.7 L181.0 26.7 L181.2 26.8 L181.6 27.2 L181.7 27.2 L181.9 27.3 L182.5 27.7 L182.7 27.8 L182.2 27.7 L180.6 26.9 L180.7 26.9 L180.8 26.9 L180.8 26.9 L180.9 27.0 L180.9 26.9 L180.8 26.8 L180.7 26.8 L180.4 26.7 L180.3 26.7 L180.3 26.6 L180.2 26.5 L179.8 26.3 L179.6 26.2 L179.5 26.2 L179.4 26.2 L179.3 26.0 L179.2 25.8 L179.1 25.7 L179.0 25.6 L179.2 25.6 L179.4 25.5 L178.6 24.7 L178.4 24.4 L178.2 24.1 L178.0 24.0 L178.0 24.1 L177.7 24.0 L177.6 24.1 L177.5 24.2 L177.3 24.1 L177.3 24.2 L177.3 24.3 L177.3 24.3 L177.2 24.3 L177.1 24.3 L177.1 24.2 L177.1 24.4 L177.0 24.4 L177.0 24.6 L177.3 24.6 L177.2 24.7 L177.5 25.1 L177.4 25.3 L177.5 25.3 L177.5 25.4 L177.4 25.4 L177.4 25.5 L177.5 25.6 L177.5 25.7 L177.4 25.7 L177.4 25.5 L177.2 25.3 L177.1 25.2 L176.9 25.2 L176.9 25.1 L176.9 25.1 L176.7 25.2 L176.6 25.4 L176.7 25.5 L176.8 25.4 L176.9 25.3 L177.0 25.4 L177.1 25.4 L177.2 25.4 L177.2 25.6 L177.1 25.6 L177.1 25.7 L177.1 25.8 L177.2 25.8 L177.4 25.9 L177.5 25.9 L177.4 26.0 L177.2 26.0 L177.1 26.0 L177.0 25.9 L176.9 25.9 L176.9 26.0 L176.8 26.0 L176.8 26.0 L176.7 26.0 L176.8 26.0 L176.9 26.1 L177.0 26.2 L176.7 26.5 L176.7 26.7 L176.8 26.8 L177.2 26.8 L177.2 26.9 L177.0 26.8 L176.8 26.8 L176.7 26.8 L176.5 26.9 L176.4 26.9 L176.3 26.8 L176.2 26.8 L176.1 26.9 L176.1 27.1 L176.2 27.1 L176.3 27.2 L176.3 27.3 L176.1 27.3 L176.1 27.4 L176.2 27.6 L176.1 27.6 L175.9 27.7 L175.7 27.8 L175.7 28.0 L175.8 28.1 L176.0 28.2 L176.2 28.1 L176.2 28.1 L176.2 28.1 L176.1 28.1 L176.1 28.1 L176.1 28.0 L176.3 28.1 L176.4 28.1 L176.6 28.1 L176.7 28.2 L176.7 28.3 L176.7 28.5 L176.8 28.5 L177.0 28.6 L177.2 28.7 L177.5 28.8 L177.6 29.0 L177.8 28.7 L177.8 28.6 L178.0 28.5 L177.9 28.7 L177.9 28.8 L177.9 28.9 L178.0 29.0 L177.7 29.0 L177.7 29.1 L178.0 29.1 L177.9 29.1 L177.9 29.2 L177.8 29.2 L177.9 29.3 L177.9 29.3 L178.0 29.3 L178.0 29.2 L178.1 29.2 L178.1 29.2 L178.1 29.3 L178.1 29.3 L178.2 29.3 L178.2 29.2 L178.3 29.2 L178.2 29.4 L178.3 29.6 L178.4 29.6 L178.5 29.3 L178.7 29.3 L179.0 29.1 L179.3 28.9 L179.6 29.0 L179.4 29.0 L179.4 29.1 L179.6 29.2 L179.7 29.1 L179.8 29.1 L179.8 29.0 L180.1 29.1 L180.1 29.2 L180.0 29.3 L180.0 29.3 L180.0 29.5 L180.1 29.5 L180.2 29.4 L180.2 29.6 L180.1 29.7 L180.1 29.7 L180.0 29.8 L180.0 29.9 L180.1 30.0 L180.1 30.2 L179.7 30.4 L179.7 30.5 L179.9 30.5 L180.0 30.5 L180.1 30.4 L180.2 30.3 L180.3 30.3 L180.3 30.5 L180.3 30.5 L180.4 30.6 L180.5 30.7 L180.6 30.8 L180.6 30.9 L180.4 30.9 L180.3 31.0 L180.2 31.1 L180.2 31.2 L180.3 31.2 L180.4 31.3 L180.6 31.2 L180.7 31.2 L180.8 31.2 L180.9 31.3 L180.9 31.4 L180.8 31.4 L180.8 31.5 L181.0 31.7 L181.2 31.7 L181.4 31.7 L181.6 31.6 L181.6 31.5 L181.4 31.5 L181.2 31.4 L181.1 31.3 L181.1 31.1 L181.3 31.1 L181.6 31.3 L181.8 31.3 L181.8 31.3 L181.7 31.1 L182.0 31.1 L182.0 31.1 L182.0 31.0 L182.0 31.0 L182.0 30.9 L182.0 30.9 L181.9 30.9 L182.0 30.9 L182.2 30.8 L182.2 30.8 L182.2 30.9 L182.3 30.9 L182.4 30.9 L182.3 30.7 L182.4 30.6 L182.6 30.6 L182.8 30.8 L183.0 30.9 L183.3 30.9 L183.5 30.9 L183.9 30.7 L184.1 30.4 L184.0 30.1 L183.7 29.9 L184.1 29.8 L184.1 29.9 L184.2 29.9 L184.2 29.4 L184.2 29.2 L184.2 28.9 L183.9 28.6 L183.8 28.4 L184.0 28.3 L183.8 28.2 L183.5 28.1 L183.1 28.0 L182.9 28.1 L182.8 27.8 L183.0 27.9 L183.2 27.9 L183.6 27.9 L184.3 28.1 L184.5 28.2 L184.6 28.2 L184.8 28.2 L184.9 28.5 L185.0 28.7 L185.3 28.8 L185.8 28.9 L186.0 29.1 L186.3 29.4 L186.9 30.0 L187.2 30.2 L187.7 30.9 L188.1 31.2 L188.6 31.5 L189.2 31.6 L189.2 31.6 L189.9 31.6 L190.6 31.6 L191.8 31.3 L193.2 30.7 L193.5 30.5 L194.2 30.2 L194.3 30.1 L194.4 30.1 L194.4 30.2 L193.9 30.4 L193.0 31.0 L192.5 31.1 L191.6 31.4 L190.2 31.8 L191.0 31.8 L191.0 31.9 L190.8 32.0 L191.3 32.0 L191.5 31.9 L191.6 31.8 L191.7 31.8 L191.7 31.8 L191.7 31.9 L191.8 31.9 L191.9 31.9 L192.9 31.3 L193.7 31.1 L193.9 31.0 L194.0 31.0 L194.1 31.1 L194.3 31.1 L194.2 31.2 L194.1 31.2 L194.1 31.3 L194.3 31.3 L194.7 31.1 L194.7 31.0 L194.2 31.0 L194.2 30.9 L194.4 30.8 L194.7 30.9 L195.0 31.0 L195.1 31.2 L195.2 31.3 L195.2 31.5 L195.2 31.5 L195.0 31.5 L195.5 31.7 L195.8 31.7 L196.0 31.5 L196.0 31.4 L195.8 31.3 L195.8 31.3 L195.8 31.2 L196.4 31.1 L196.5 31.0 L196.5 30.9 L196.5 30.7 L196.6 30.6 L196.7 30.4 L196.5 30.4 L196.4 30.5 L196.1 30.8 L196.1 30.8 L196.0 30.9 L196.0 30.9 L196.1 31.0 L195.9 31.0 L195.5 31.0 L195.1 31.0 L194.9 30.9 L195.4 30.8 L195.6 30.6 L195.9 30.3 L196.1 30.0 L196.3 29.9 L196.7 29.8 L196.9 29.8 L197.2 29.5 L197.4 29.4 L197.7 29.4 L197.7 29.5 L197.2 29.5 L197.2 29.6 L197.4 29.8 L198.0 30.4 L198.2 30.7 L198.1 30.8 L197.9 30.8 L197.7 31.0 L197.6 30.9 L197.6 30.9 L197.6 30.9 L197.5 30.9 L197.5 31.0 L197.8 31.1 L198.0 31.3 L198.0 31.6 L197.8 31.9 L198.4 31.7 L198.7 31.6 L198.9 31.6 L199.0 31.6 L199.1 31.6 L199.2 31.6 L199.2 31.5 L199.0 31.4 L198.9 31.4 L198.9 31.5 L198.8 31.5 L198.8 31.4 L199.6 31.1 L199.9 31.0 L200.0 31.0 L199.9 31.1 L200.0 31.2 L200.1 31.1 L200.2 31.1 L200.3 31.2 L200.4 31.3 L200.5 31.3 L200.5 31.2 L200.5 31.0 L200.5 31.0 L200.7 31.0 L200.6 30.9 L200.4 30.9 L200.3 30.9 L200.1 30.9 L201.9 30.8 L201.7 30.5 L201.9 30.4 L202.2 30.4 L202.2 30.1 L202.4 30.2 L202.4 30.2 L202.5 30.2 L202.7 30.2 L203.4 30.4 L203.7 30.5 L204.9 30.6 L205.2 30.8 L205.2 30.6 L205.5 30.7 L206.1 30.7 L209.4 30.0 L212.5 28.9 L215.0 27.5 L215.0 27.5 L215.4 28.1 L215.5 28.4 L215.8 29.2 Z M225.7 166.9 L224.3 169.8 L225.1 168.1 L225.7 166.9 Z M222.8 173.1 L218.6 173.9 L214.1 174.8 L217.0 174.3 L219.9 173.7 L222.8 173.1 Z" fill="#172033" fill-rule="evenodd"/></svg>
