<svg xmlns="http://www.w3.org/2000/svg" viewBox="0 0 320 200" role="img"><path d="M203.4 37.9 L201.6 38.6 L199.8 38.8 L195.9 39.9 L195.2 39.9 L195.2 40.2 L195.4 40.3 L195.7 40.4 L198.7 40.3 L200.0 40.4 L201.1 40.8 L200.3 42.0 L199.8 42.5 L195.9 45.3 L195.7 45.5 L195.7 45.7 L195.9 46.1 L196.2 46.5 L199.0 50.4 L199.4 50.8 L200.0 50.9 L204.3 51.6 L208.7 52.3 L209.2 52.4 L209.6 52.7 L210.9 53.7 L211.4 54.1 L214.0 56.2 L215.0 56.7 L219.5 58.3 L219.1 58.5 L219.0 58.7 L218.9 58.9 L218.8 59.9 L218.7 60.1 L218.3 60.7 L218.1 61.0 L212.0 64.2 L211.9 64.4 L211.7 64.6 L211.6 64.7 L211.4 64.8 L210.7 65.2 L205.7 68.9 L205.7 68.9 L204.9 70.1 L205.5 71.2 L209.0 73.6 L209.6 74.4 L209.7 74.4 L210.1 74.7 L210.1 74.9 L210.2 75.0 L210.2 75.2 L210.4 75.3 L212.1 76.5 L212.3 76.7 L212.4 77.4 L212.5 77.7 L212.8 78.2 L213.1 78.7 L214.0 79.6 L216.2 81.2 L217.4 81.9 L217.8 82.3 L218.1 82.9 L218.6 84.1 L218.7 84.3 L219.3 85.0 L219.5 85.2 L219.9 86.0 L220.5 86.6 L220.6 86.9 L221.0 88.3 L221.1 88.7 L221.1 89.0 L220.8 89.2 L220.3 89.1 L219.4 88.8 L215.7 89.3 L214.8 89.6 L215.3 89.9 L216.4 90.2 L216.9 90.6 L216.7 90.7 L215.5 91.4 L215.2 91.6 L215.2 91.7 L215.2 91.7 L215.0 92.2 L215.2 93.6 L215.1 94.1 L213.5 95.0 L212.9 95.6 L213.7 95.9 L215.8 95.8 L216.8 96.0 L216.9 96.6 L216.7 96.7 L216.6 96.8 L216.4 96.9 L216.4 97.1 L216.6 97.2 L216.9 97.2 L217.1 97.3 L217.0 97.5 L216.6 97.7 L214.3 98.0 L213.7 98.2 L213.2 98.6 L213.1 99.3 L213.8 100.5 L214.7 101.6 L216.0 102.2 L217.5 102.4 L220.3 102.4 L220.9 102.6 L221.1 102.7 L221.2 102.8 L221.1 102.9 L221.0 103.0 L221.0 103.2 L221.0 103.3 L221.0 103.4 L221.2 103.6 L221.3 103.7 L221.9 104.0 L222.2 104.3 L222.1 104.6 L221.8 104.8 L221.4 105.0 L218.8 105.5 L218.7 105.6 L218.6 105.7 L218.7 105.7 L218.8 105.8 L218.9 105.8 L218.9 106.0 L218.9 106.2 L219.0 106.3 L219.0 106.4 L219.0 106.4 L219.0 106.5 L219.0 106.5 L219.2 106.5 L219.2 106.6 L219.2 106.7 L219.9 106.9 L220.4 107.2 L220.3 107.5 L220.0 107.9 L219.8 108.3 L220.1 108.6 L220.7 108.8 L221.8 109.1 L224.2 109.5 L225.0 109.8 L225.4 110.0 L225.7 110.3 L226.1 110.5 L227.0 110.6 L227.5 110.8 L227.8 111.0 L227.7 111.3 L227.4 111.6 L227.4 111.9 L227.6 112.1 L227.9 112.4 L228.2 113.0 L228.2 113.6 L227.7 114.0 L227.1 114.5 L227.1 114.5 L224.3 115.9 L223.4 116.9 L222.4 117.5 L220.1 117.9 L219.3 118.2 L219.0 118.3 L219.3 118.7 L223.0 120.7 L225.1 121.4 L226.0 122.1 L226.3 122.3 L226.8 122.5 L231.8 123.8 L234.1 125.1 L237.2 126.1 L237.6 126.3 L238.0 126.6 L238.1 126.9 L238.1 127.1 L238.2 127.5 L238.3 127.8 L238.5 128.0 L238.9 128.2 L239.9 128.6 L240.3 128.8 L241.3 129.5 L241.6 129.7 L241.8 129.7 L242.2 130.0 L242.4 130.4 L242.7 130.8 L243.2 131.0 L241.8 132.2 L241.2 132.7 L240.8 133.4 L240.1 134.8 L239.8 135.2 L239.1 135.7 L238.8 136.0 L238.5 136.8 L238.2 137.1 L237.9 137.3 L237.9 137.3 L237.9 137.3 L237.1 137.5 L236.9 137.6 L236.7 137.8 L236.4 138.1 L234.2 139.3 L234.0 139.4 L233.6 140.0 L233.4 140.1 L233.1 140.3 L231.4 140.9 L230.0 141.5 L229.4 141.7 L229.2 141.8 L229.0 141.9 L228.6 142.4 L226.6 143.7 L224.5 144.9 L224.5 144.9 L224.5 144.9 L221.5 147.0 L219.0 148.9 L216.9 149.9 L216.6 150.1 L216.3 150.7 L216.0 150.9 L213.8 152.2 L213.3 152.3 L212.3 152.6 L212.0 152.7 L211.7 153.0 L211.4 153.3 L211.2 153.6 L209.0 154.8 L208.5 155.1 L208.3 155.3 L208.1 155.5 L207.2 156.2 L206.1 156.7 L203.8 157.4 L203.0 157.7 L201.9 158.2 L201.1 158.5 L200.8 158.6 L200.3 159.0 L199.4 159.5 L199.1 159.7 L198.9 160.1 L198.9 160.1 L198.3 160.5 L196.9 160.7 L196.2 160.9 L194.0 162.1 L192.6 163.1 L191.2 163.6 L189.0 165.0 L188.6 165.3 L187.3 165.9 L186.0 166.7 L185.8 166.6 L185.6 166.4 L185.3 166.3 L185.0 166.4 L185.0 166.5 L185.1 166.6 L185.2 166.6 L184.9 166.7 L184.9 166.9 L185.0 167.1 L185.2 167.2 L185.0 167.3 L184.9 167.3 L185.1 167.4 L185.2 167.4 L184.7 167.7 L184.5 167.8 L183.4 167.6 L183.5 167.5 L184.0 167.4 L184.2 167.2 L183.6 167.2 L183.3 167.2 L183.1 167.3 L183.0 167.5 L183.0 167.7 L183.1 167.8 L183.3 168.0 L182.7 167.9 L181.5 167.3 L180.9 167.4 L181.1 167.5 L181.1 167.5 L181.2 167.6 L181.1 167.7 L181.0 167.8 L180.9 167.9 L181.1 167.9 L181.2 168.0 L181.3 168.1 L181.4 168.2 L180.7 168.1 L179.3 167.6 L178.7 167.4 L177.5 167.4 L177.3 167.3 L177.2 167.1 L177.6 167.1 L178.4 167.1 L178.1 167.0 L177.0 166.6 L177.2 166.3 L177.0 166.2 L176.6 166.3 L176.4 166.5 L176.5 166.7 L176.7 167.0 L176.8 167.2 L176.4 167.3 L176.4 167.1 L176.3 167.1 L176.0 167.1 L175.8 167.1 L175.6 166.9 L175.4 166.8 L175.3 166.9 L175.2 167.1 L175.1 167.1 L174.9 167.1 L174.7 166.9 L174.6 166.8 L174.4 166.8 L174.2 166.9 L174.1 167.0 L174.1 167.1 L174.1 167.2 L174.0 167.3 L173.9 167.4 L173.7 167.7 L173.4 167.8 L172.7 167.8 L173.1 168.0 L173.2 168.2 L173.2 168.3 L173.0 168.3 L172.6 168.0 L172.4 167.9 L171.0 168.2 L170.6 168.2 L170.7 168.1 L170.8 168.0 L170.9 167.8 L170.6 167.7 L170.3 167.8 L170.0 167.9 L169.8 168.0 L169.8 168.1 L169.8 168.4 L169.8 168.5 L169.7 168.6 L169.3 168.7 L169.2 168.7 L169.0 168.8 L168.7 168.6 L168.4 168.4 L168.2 168.3 L167.9 168.2 L167.6 168.3 L167.3 168.3 L167.3 168.5 L166.9 168.5 L166.6 168.4 L166.2 168.2 L165.9 168.0 L165.8 167.7 L166.0 167.6 L166.4 167.4 L166.7 167.3 L167.1 166.9 L167.2 166.8 L167.1 166.4 L167.2 166.3 L167.3 166.1 L168.0 165.9 L168.7 165.9 L170.0 166.4 L169.7 165.8 L169.2 165.4 L168.6 165.2 L167.9 165.4 L167.5 165.6 L166.9 166.1 L165.6 167.4 L165.5 167.9 L165.9 168.4 L165.7 168.6 L165.5 168.7 L165.4 168.8 L165.0 168.8 L164.9 168.9 L165.0 169.1 L164.8 169.1 L164.7 169.0 L164.4 168.8 L164.4 169.0 L164.3 169.1 L164.2 169.1 L164.0 169.1 L163.9 169.2 L163.8 169.3 L163.8 169.4 L163.7 169.4 L163.5 169.3 L163.3 169.1 L163.1 168.8 L162.9 168.7 L162.8 168.6 L162.5 168.4 L162.3 168.3 L162.1 168.3 L162.0 168.5 L162.2 168.7 L162.7 169.0 L161.3 168.9 L161.1 168.9 L160.8 169.1 L160.7 169.1 L160.6 169.0 L160.0 168.7 L159.5 168.6 L159.3 168.5 L158.7 168.1 L158.2 167.9 L157.7 167.8 L157.3 167.8 L157.3 167.9 L158.1 168.1 L158.3 168.2 L158.6 168.4 L159.0 168.5 L159.1 168.7 L159.1 168.8 L159.1 169.0 L159.0 169.0 L158.8 169.0 L158.6 169.0 L158.7 169.2 L158.9 169.3 L159.5 169.5 L159.7 169.8 L159.9 169.9 L160.1 169.9 L160.2 170.0 L160.2 170.2 L160.1 170.4 L159.9 170.5 L159.1 170.6 L159.1 170.2 L158.5 169.7 L158.6 169.5 L158.4 169.5 L158.3 169.6 L158.2 169.7 L158.0 169.7 L157.9 169.7 L157.7 169.7 L156.8 169.2 L156.5 169.1 L156.1 169.0 L156.7 169.4 L157.0 169.5 L157.3 169.6 L157.1 169.9 L156.8 170.3 L156.8 170.5 L156.9 170.7 L157.3 171.1 L157.5 171.4 L157.2 171.4 L156.9 171.3 L156.8 171.2 L156.5 171.1 L156.7 171.0 L156.4 170.8 L156.1 170.8 L155.8 170.7 L155.5 170.7 L155.0 170.4 L154.8 170.3 L154.6 170.4 L154.7 170.6 L155.2 170.8 L156.2 171.1 L155.2 171.3 L155.2 171.4 L154.9 171.5 L154.5 171.4 L153.3 170.7 L153.2 170.6 L153.2 170.4 L153.3 170.2 L153.5 170.2 L153.2 170.1 L153.2 169.9 L154.0 169.9 L153.8 169.6 L153.5 169.6 L153.2 169.7 L152.9 169.8 L152.5 170.0 L151.3 170.2 L151.3 170.3 L151.6 170.3 L151.6 170.5 L151.6 170.7 L151.6 170.9 L151.5 170.9 L151.4 171.0 L151.3 171.0 L151.2 171.3 L151.1 171.3 L151.0 171.4 L148.8 171.4 L148.9 171.2 L148.7 171.1 L148.1 171.0 L148.1 171.1 L148.2 171.2 L148.2 171.3 L147.8 171.4 L146.3 171.4 L146.3 171.4 L146.2 171.5 L146.2 171.7 L146.2 171.7 L146.2 171.7 L146.0 171.7 L145.7 171.6 L145.7 171.7 L146.2 171.9 L146.4 172.0 L146.3 172.1 L146.1 172.1 L146.3 172.2 L146.0 172.3 L145.1 172.5 L144.8 172.5 L144.8 172.3 L144.8 172.3 L144.9 172.2 L144.2 172.4 L144.1 172.6 L144.4 172.7 L144.3 172.8 L144.0 172.7 L143.8 172.9 L143.5 172.8 L143.3 172.7 L143.5 172.5 L143.7 172.3 L143.7 172.1 L143.6 171.9 L143.3 171.9 L143.1 172.1 L142.7 172.8 L142.6 173.0 L141.3 173.0 L141.0 172.9 L140.8 172.8 L141.4 172.7 L141.3 172.4 L140.9 172.2 L140.4 172.2 L140.7 172.7 L140.5 172.7 L140.1 172.9 L139.9 173.0 L139.1 173.0 L138.6 173.1 L138.5 173.2 L138.4 173.2 L138.3 173.3 L138.4 173.5 L138.3 173.6 L138.1 173.6 L138.0 173.5 L138.0 173.3 L137.9 173.2 L137.7 173.1 L136.8 172.8 L136.6 172.8 L136.5 172.8 L136.7 173.0 L136.9 173.1 L137.1 173.1 L137.2 173.2 L137.1 173.4 L136.9 173.5 L136.7 173.5 L136.5 173.6 L136.4 173.8 L137.4 173.6 L137.3 173.7 L137.2 173.8 L136.9 174.0 L137.2 174.1 L137.2 174.2 L136.1 174.6 L135.5 175.0 L135.3 175.2 L134.9 175.2 L134.5 175.3 L134.6 175.1 L135.0 174.6 L135.2 174.4 L134.9 174.4 L134.5 174.6 L133.8 175.1 L133.7 174.8 L133.5 174.9 L133.2 175.1 L132.9 175.2 L133.0 174.9 L133.2 174.8 L133.4 174.7 L133.6 174.6 L133.6 174.5 L133.6 174.3 L133.6 174.2 L133.7 174.0 L133.0 174.0 L132.6 174.0 L132.4 174.2 L132.6 174.3 L132.1 174.5 L132.0 174.5 L131.8 174.5 L131.2 174.4 L130.8 174.4 L130.5 174.5 L130.5 174.6 L130.9 174.7 L130.6 174.8 L130.4 174.8 L130.1 174.7 L129.9 174.6 L129.7 174.6 L129.2 174.8 L129.0 174.8 L128.8 174.7 L128.6 175.0 L128.3 175.0 L128.2 174.8 L128.4 174.6 L128.4 174.5 L128.2 174.5 L128.0 174.7 L127.9 174.8 L127.7 175.0 L127.5 175.1 L127.2 175.1 L126.2 175.2 L125.1 175.8 L124.7 175.6 L122.2 175.8 L122.0 175.7 L121.8 175.5 L121.7 175.5 L121.5 175.5 L120.5 175.6 L119.8 175.8 L119.5 175.8 L119.6 175.6 L120.3 175.0 L120.5 174.8 L121.0 174.8 L121.2 174.7 L121.2 174.6 L121.1 174.4 L121.1 174.3 L121.1 174.2 L121.2 174.0 L120.7 174.1 L120.5 174.2 L120.4 174.3 L120.3 174.4 L120.2 174.6 L120.0 174.6 L119.8 174.7 L119.8 174.9 L119.7 175.1 L119.6 175.2 L119.5 175.3 L119.1 175.4 L119.0 175.5 L118.5 176.0 L117.9 176.3 L116.5 176.7 L116.3 176.9 L116.3 177.1 L116.5 177.4 L116.8 177.4 L116.8 177.5 L114.2 177.8 L114.0 177.9 L113.0 177.8 L112.7 177.8 L112.4 177.9 L111.5 178.0 L111.2 178.0 L111.5 177.9 L111.9 177.5 L112.1 177.4 L112.7 177.4 L114.9 176.9 L115.5 176.8 L115.4 176.5 L115.5 176.4 L115.6 176.4 L115.8 176.4 L116.3 176.4 L116.7 176.3 L117.0 176.1 L117.4 175.8 L117.6 175.4 L117.9 175.0 L118.0 174.7 L117.7 174.8 L116.7 175.9 L116.3 176.2 L116.0 176.2 L116.1 176.1 L116.1 176.0 L116.1 176.0 L116.0 175.9 L115.8 175.9 L115.6 175.9 L115.5 176.0 L115.5 176.1 L114.9 176.0 L114.8 176.1 L114.7 176.3 L114.6 176.3 L114.5 176.2 L114.5 176.0 L114.6 175.6 L114.6 175.5 L114.9 175.4 L116.0 175.2 L116.3 175.0 L116.6 174.6 L116.9 174.5 L116.1 174.4 L114.6 174.5 L113.8 174.5 L113.5 174.5 L113.1 174.3 L112.9 174.2 L112.8 174.0 L112.9 173.8 L113.1 173.6 L113.6 173.3 L113.3 173.1 L113.2 173.2 L113.1 173.4 L113.0 173.5 L112.9 173.6 L112.6 173.6 L112.5 173.7 L112.5 173.4 L112.3 173.3 L112.1 173.2 L111.5 173.1 L111.2 172.9 L111.0 172.9 L111.2 172.7 L111.2 172.6 L111.1 172.4 L110.9 172.3 L111.7 171.6 L112.1 171.4 L113.1 170.9 L113.3 170.7 L113.4 170.5 L113.5 170.3 L113.6 170.2 L114.0 170.0 L114.2 169.9 L114.2 169.7 L113.9 169.7 L113.5 169.9 L113.1 170.2 L112.9 170.5 L112.0 170.3 L111.1 170.6 L108.9 171.5 L107.0 171.8 L106.2 172.0 L105.7 172.0 L105.9 171.9 L106.8 171.6 L106.5 171.6 L106.4 171.4 L106.7 171.1 L106.9 171.1 L107.6 170.9 L106.8 170.9 L106.5 171.0 L105.8 171.3 L105.4 171.4 L104.6 171.4 L104.7 171.3 L104.7 171.2 L104.7 171.1 L104.8 171.0 L104.9 170.9 L105.2 170.8 L105.5 170.6 L106.0 170.3 L106.0 170.1 L106.8 169.6 L107.3 169.4 L107.3 169.2 L107.2 169.1 L106.6 169.4 L106.0 169.5 L104.8 169.4 L105.1 169.0 L102.7 169.3 L102.2 169.3 L102.0 169.3 L101.5 169.0 L100.5 168.6 L100.2 168.5 L99.5 168.5 L99.4 168.4 L99.4 168.2 L99.3 168.1 L99.0 168.3 L98.7 168.5 L98.5 168.5 L98.0 168.2 L98.0 168.1 L98.0 168.0 L98.0 168.0 L97.9 168.0 L97.8 168.0 L97.7 168.0 L97.6 167.9 L97.5 167.9 L97.4 167.8 L97.5 167.6 L96.8 167.6 L96.8 167.5 L96.9 167.3 L97.0 167.2 L96.7 167.2 L96.3 167.1 L95.8 167.1 L95.5 167.1 L95.4 167.3 L95.4 167.5 L95.8 167.9 L95.1 167.8 L94.8 167.7 L94.5 167.9 L94.5 167.6 L94.7 167.1 L94.8 166.8 L94.8 166.6 L94.8 166.4 L95.0 166.2 L95.4 166.2 L95.2 166.1 L95.1 165.9 L95.2 165.8 L95.3 165.6 L94.3 166.0 L94.0 166.1 L93.7 166.3 L92.9 166.4 L92.6 166.5 L92.6 166.6 L92.7 166.8 L92.6 167.0 L92.6 167.1 L92.5 167.1 L92.5 167.2 L92.5 167.4 L92.3 167.6 L91.8 167.7 L91.4 167.7 L91.0 167.6 L91.4 167.5 L91.2 167.1 L90.4 166.5 L90.7 166.5 L91.3 166.6 L91.3 166.5 L91.0 166.4 L89.9 166.4 L89.5 166.5 L89.3 166.5 L89.1 166.5 L88.9 166.3 L88.8 166.3 L88.8 166.2 L88.9 166.2 L88.9 166.2 L89.1 166.1 L88.8 165.9 L89.3 166.0 L89.6 166.0 L89.7 165.9 L88.9 165.6 L88.6 165.5 L88.3 165.3 L88.1 165.1 L87.9 164.8 L87.9 164.8 L88.0 164.8 L88.0 164.7 L87.9 164.6 L89.0 164.8 L89.2 164.8 L89.3 164.6 L89.2 164.4 L89.1 164.3 L89.0 164.1 L89.7 164.1 L89.7 164.0 L89.4 164.0 L89.0 163.9 L88.7 163.8 L88.4 163.7 L88.7 163.6 L88.8 163.6 L89.0 163.6 L88.6 163.4 L88.4 163.3 L88.2 163.3 L88.3 163.1 L88.2 162.9 L88.0 162.7 L87.8 162.8 L87.7 162.7 L87.6 162.6 L87.5 162.6 L87.5 162.4 L87.7 162.3 L87.4 162.0 L87.6 161.9 L88.4 162.0 L88.7 162.0 L89.1 161.8 L88.9 161.8 L88.7 161.7 L88.3 161.7 L88.2 161.7 L87.9 161.4 L88.1 161.4 L88.3 161.2 L88.5 161.2 L88.6 161.2 L88.7 161.3 L88.9 161.4 L89.1 161.4 L89.0 161.3 L88.9 161.1 L88.8 160.9 L88.7 160.9 L88.5 160.9 L88.4 160.8 L88.4 160.7 L88.3 160.6 L87.6 159.9 L87.4 159.7 L87.6 159.6 L87.7 159.5 L87.3 159.4 L87.1 159.2 L87.1 159.0 L87.4 159.0 L88.1 159.3 L88.4 159.3 L88.8 159.3 L88.7 159.2 L88.7 159.2 L88.5 159.1 L88.1 159.0 L88.6 158.9 L89.4 159.1 L89.9 159.0 L89.7 158.9 L89.5 158.7 L89.4 158.6 L89.6 158.4 L89.4 158.0 L89.3 157.9 L89.2 157.8 L89.3 157.8 L89.7 157.7 L89.6 157.7 L89.5 157.6 L89.4 157.6 L89.3 157.6 L89.5 157.3 L89.3 157.3 L89.5 157.3 L89.7 157.2 L90.2 157.2 L90.1 157.1 L90.1 157.0 L90.5 156.9 L91.0 156.8 L90.8 156.5 L90.5 156.4 L89.8 156.2 L89.9 156.0 L90.1 156.0 L90.3 155.9 L90.2 155.7 L90.8 155.7 L90.8 155.6 L90.8 155.5 L90.8 155.2 L90.8 155.1 L90.8 155.0 L90.7 154.9 L90.6 154.8 L90.6 154.8 L90.6 154.6 L90.6 154.5 L90.5 154.2 L90.4 154.1 L90.2 154.0 L90.0 154.0 L89.6 153.9 L89.4 153.8 L89.8 153.7 L90.8 153.7 L91.2 153.6 L91.0 153.4 L90.8 153.2 L90.3 153.0 L89.3 152.7 L89.0 152.6 L91.0 152.7 L91.5 152.6 L91.2 152.1 L91.1 152.0 L90.9 152.0 L90.5 152.1 L90.3 152.0 L89.7 151.6 L89.6 151.5 L89.5 151.4 L89.6 151.4 L89.9 151.3 L90.3 151.3 L92.0 151.6 L93.0 152.0 L93.4 152.0 L93.4 151.9 L92.4 151.4 L91.9 151.0 L91.5 150.4 L91.3 150.3 L90.9 150.2 L90.7 150.1 L90.7 149.9 L90.8 149.7 L90.8 149.6 L90.4 149.2 L90.4 149.1 L90.7 149.2 L91.2 149.4 L91.4 149.3 L91.0 149.1 L90.0 148.7 L89.7 148.4 L89.7 148.2 L89.9 148.0 L90.0 147.8 L89.9 147.6 L89.7 147.5 L89.5 147.5 L89.3 147.4 L89.4 147.1 L88.9 146.8 L88.7 146.6 L88.5 146.4 L88.7 146.4 L88.8 146.3 L88.8 146.1 L88.5 146.1 L88.5 145.9 L88.4 145.8 L88.3 145.7 L88.2 145.7 L87.5 145.7 L87.4 145.7 L87.3 145.6 L87.0 145.5 L86.8 145.5 L87.0 145.2 L86.8 145.0 L86.1 145.0 L86.7 144.0 L86.9 143.6 L86.9 142.9 L87.0 142.8 L87.3 143.1 L87.5 142.6 L87.6 142.4 L87.5 142.2 L87.7 142.1 L88.2 141.9 L88.4 141.8 L88.5 141.6 L88.3 141.4 L87.9 141.2 L88.2 140.7 L87.9 140.7 L87.7 140.9 L87.5 141.1 L87.3 141.2 L87.3 141.0 L87.5 140.5 L87.6 140.3 L87.6 139.6 L87.7 139.3 L86.9 139.5 L86.7 139.4 L86.5 139.3 L86.5 139.1 L86.6 138.9 L86.8 138.7 L86.7 138.5 L85.7 139.3 L85.6 139.4 L85.8 139.6 L85.5 139.6 L85.4 139.4 L85.5 139.1 L85.6 138.8 L85.5 138.8 L85.4 138.7 L85.3 138.7 L85.4 138.5 L85.5 138.5 L85.6 138.4 L85.4 138.3 L85.1 138.3 L84.8 138.4 L84.6 138.6 L84.5 138.4 L84.8 137.9 L84.9 137.7 L84.6 137.8 L84.4 137.8 L84.3 137.7 L84.3 137.5 L84.3 137.2 L84.4 137.0 L84.6 136.8 L84.9 136.7 L84.8 136.6 L84.5 136.3 L84.8 136.2 L85.1 136.0 L85.4 135.8 L85.7 135.9 L85.5 135.6 L84.4 135.5 L84.2 135.3 L84.0 135.3 L83.8 135.4 L83.5 135.7 L83.6 135.3 L83.8 134.7 L83.7 134.4 L84.0 134.4 L84.5 134.2 L84.8 134.0 L85.0 133.8 L85.0 133.6 L84.9 133.6 L84.8 133.6 L84.7 133.6 L84.4 133.4 L84.3 133.3 L84.2 133.1 L84.3 132.9 L84.5 132.7 L84.8 132.7 L85.1 132.8 L85.3 132.8 L85.4 132.7 L85.5 132.7 L85.7 132.5 L85.8 132.3 L85.9 132.1 L85.9 131.9 L86.0 131.7 L86.2 131.5 L86.6 131.5 L87.6 131.7 L88.0 131.7 L88.1 131.6 L88.4 131.4 L88.5 131.4 L88.6 131.2 L88.6 131.0 L88.8 130.8 L88.9 130.5 L89.0 130.4 L89.0 130.4 L89.6 130.3 L89.3 129.7 L89.3 129.5 L89.3 129.1 L89.3 129.0 L89.2 129.0 L89.3 128.9 L89.5 128.8 L89.6 128.8 L89.8 128.9 L89.8 128.9 L89.9 128.7 L90.1 128.4 L90.5 128.6 L91.1 128.9 L91.6 129.0 L92.1 129.2 L92.5 129.3 L93.0 129.1 L92.4 128.7 L91.3 128.3 L91.0 128.1 L91.0 127.9 L91.2 127.7 L91.1 127.7 L90.8 127.7 L90.6 127.7 L90.5 127.6 L90.4 127.4 L90.4 127.3 L90.4 127.2 L90.2 127.1 L90.3 127.0 L90.5 126.9 L90.9 126.9 L90.9 126.8 L90.3 126.7 L90.2 126.6 L90.1 126.4 L90.2 126.2 L90.5 126.1 L90.8 126.0 L91.0 126.0 L91.9 126.4 L92.4 126.5 L92.7 126.2 L93.0 126.3 L93.4 126.5 L93.8 126.5 L94.2 126.4 L93.9 126.3 L93.5 126.3 L93.2 126.2 L93.2 126.1 L93.8 125.9 L94.1 125.9 L94.7 125.9 L95.0 125.8 L95.8 125.6 L96.1 125.6 L96.0 125.8 L96.0 125.9 L96.1 126.5 L96.1 126.7 L95.9 126.8 L96.3 126.9 L97.5 127.4 L97.3 127.0 L97.1 126.7 L97.5 126.6 L97.7 126.5 L97.8 126.4 L97.9 126.3 L97.9 126.1 L98.0 126.0 L98.1 125.9 L98.4 125.8 L98.6 125.9 L98.7 126.0 L98.8 126.1 L99.1 126.1 L99.5 125.9 L99.7 125.9 L99.9 125.9 L100.2 126.0 L100.4 126.0 L100.5 126.0 L100.5 125.9 L100.5 125.8 L100.5 125.8 L100.6 125.8 L100.7 125.8 L100.8 125.9 L100.8 125.9 L101.5 125.5 L101.8 125.2 L102.0 125.0 L102.1 125.0 L102.4 125.3 L102.8 125.2 L103.1 124.9 L103.4 124.7 L103.3 124.6 L103.2 124.5 L103.0 124.2 L102.8 124.1 L102.4 123.9 L101.6 123.4 L101.5 123.3 L101.3 123.3 L101.1 123.2 L100.9 123.1 L100.7 123.0 L100.6 122.6 L101.0 122.4 L101.5 122.4 L101.9 122.6 L102.4 122.9 L102.8 123.0 L103.3 123.0 L103.8 123.2 L102.6 122.5 L102.0 122.1 L101.9 121.7 L102.0 121.5 L102.2 121.5 L102.6 121.5 L102.9 121.6 L102.9 121.7 L102.8 121.9 L102.8 122.0 L103.1 122.1 L103.5 122.2 L103.8 122.3 L103.7 122.7 L103.9 122.6 L104.2 122.4 L104.4 122.3 L104.4 122.2 L104.3 122.1 L104.3 122.0 L104.4 121.8 L104.5 121.7 L104.5 121.7 L104.8 121.1 L104.9 121.0 L105.1 120.9 L105.2 120.8 L105.3 120.6 L105.4 120.6 L106.0 120.8 L105.9 120.6 L105.3 120.1 L105.6 119.9 L105.7 119.8 L105.8 119.7 L105.8 119.6 L105.8 119.6 L105.7 119.5 L106.4 119.6 L106.6 119.5 L106.8 119.3 L106.7 119.0 L106.7 118.8 L106.8 118.8 L107.1 118.9 L107.3 119.1 L107.4 119.2 L107.5 119.1 L107.5 118.9 L107.7 118.8 L107.9 118.8 L108.0 118.9 L108.2 119.0 L108.4 119.1 L108.5 119.3 L108.4 119.5 L108.6 119.7 L108.9 120.0 L109.0 120.1 L109.2 120.0 L109.5 120.0 L109.8 119.9 L109.9 119.8 L110.1 119.8 L110.2 119.7 L110.3 119.7 L110.4 119.6 L110.4 119.5 L110.4 119.4 L110.4 119.3 L110.5 119.2 L110.7 119.1 L111.2 119.0 L111.4 118.8 L111.2 118.7 L110.4 118.5 L111.4 118.5 L111.1 118.3 L111.0 118.2 L111.4 118.3 L111.6 118.3 L111.8 118.2 L111.9 118.2 L111.9 118.0 L111.9 117.9 L111.8 117.9 L111.5 117.8 L111.4 117.6 L111.5 117.5 L111.8 117.4 L112.1 117.4 L112.3 117.5 L112.5 117.8 L112.8 118.0 L112.9 117.9 L113.0 117.8 L112.8 117.6 L112.8 117.6 L112.9 117.4 L112.9 117.3 L112.8 117.1 L113.7 116.7 L113.9 116.6 L114.1 116.5 L114.8 116.6 L115.0 116.6 L115.1 116.5 L115.3 116.4 L115.2 116.4 L115.1 116.3 L115.1 116.2 L115.3 116.1 L115.5 116.1 L115.9 116.0 L117.1 116.0 L117.6 115.9 L117.9 115.7 L118.3 115.9 L118.6 115.8 L118.9 115.7 L119.3 115.5 L118.8 115.3 L118.6 115.1 L118.6 115.0 L118.7 114.8 L118.7 114.7 L118.6 114.5 L118.5 114.4 L118.6 114.3 L118.7 113.6 L119.0 113.5 L119.3 113.5 L119.8 113.6 L119.9 113.6 L120.0 113.8 L120.2 113.8 L120.4 113.8 L120.5 113.7 L120.6 113.7 L121.1 113.9 L122.1 113.9 L122.4 113.8 L122.1 113.4 L121.8 113.0 L121.5 112.9 L121.7 112.7 L121.8 112.7 L122.3 112.8 L122.4 112.7 L122.7 112.4 L122.9 112.4 L123.0 112.2 L123.3 112.0 L123.6 111.8 L123.7 111.8 L123.9 111.6 L123.8 111.6 L123.9 111.4 L123.9 111.2 L124.1 111.1 L124.5 111.2 L124.7 111.2 L125.4 111.0 L125.6 110.9 L125.7 110.7 L126.0 110.3 L126.3 110.3 L127.0 110.5 L127.3 110.6 L127.1 110.4 L127.0 110.2 L127.0 110.0 L127.1 109.8 L127.2 109.5 L127.7 109.2 L127.9 109.0 L128.1 108.6 L128.2 108.4 L128.5 108.3 L129.2 108.2 L129.4 108.0 L129.4 107.8 L129.6 107.8 L129.7 107.8 L129.9 107.7 L130.0 107.6 L130.1 107.6 L130.7 107.5 L131.3 107.5 L131.3 107.4 L131.3 107.1 L131.4 107.0 L131.4 106.9 L131.6 106.9 L132.1 107.0 L132.2 106.9 L132.3 106.8 L132.4 106.6 L132.5 106.5 L132.8 106.4 L133.1 106.4 L133.4 106.3 L133.6 106.0 L133.6 105.9 L133.5 105.8 L133.5 105.6 L133.8 105.5 L133.8 105.4 L133.8 105.3 L133.7 105.3 L133.8 105.0 L134.0 104.8 L134.4 104.4 L134.4 104.3 L134.5 104.2 L134.6 104.1 L134.7 104.0 L134.8 104.0 L135.3 103.7 L135.9 103.5 L136.2 103.4 L136.4 103.2 L136.3 103.0 L136.2 103.0 L136.2 102.9 L136.4 102.7 L136.6 102.6 L137.1 102.5 L136.5 102.2 L136.3 102.1 L136.6 102.0 L136.9 102.1 L138.1 102.4 L138.3 102.3 L138.4 102.3 L138.4 102.2 L138.3 102.1 L138.2 102.0 L138.3 101.7 L138.6 101.7 L139.3 101.6 L139.3 101.3 L139.9 101.2 L141.8 101.1 L144.5 100.4 L144.8 100.4 L145.0 100.4 L145.2 100.6 L145.3 100.8 L145.5 100.9 L145.6 100.9 L145.7 100.9 L145.9 100.8 L146.0 100.9 L146.1 101.0 L146.1 101.2 L146.2 101.3 L146.4 101.4 L146.6 101.5 L146.9 101.6 L147.3 101.6 L147.3 101.7 L147.1 101.7 L147.0 101.8 L146.8 101.8 L147.3 101.9 L148.7 101.7 L148.8 101.7 L148.7 101.4 L148.7 101.3 L148.9 100.8 L148.9 100.7 L148.8 100.5 L148.6 100.5 L148.4 100.6 L148.2 100.6 L148.0 100.5 L147.6 100.3 L147.0 100.2 L146.7 100.1 L146.2 99.6 L146.3 99.6 L146.5 99.5 L146.6 99.4 L146.4 99.3 L146.7 99.3 L148.2 99.4 L148.5 99.5 L149.1 99.7 L149.4 99.9 L149.7 99.9 L150.0 99.9 L150.1 99.6 L150.0 99.4 L149.8 99.3 L149.7 99.2 L149.8 98.9 L149.7 98.8 L149.6 98.8 L149.6 98.7 L149.7 98.6 L149.3 98.4 L149.1 98.3 L149.1 98.1 L149.0 98.0 L149.0 97.9 L148.9 97.8 L148.7 97.7 L148.3 97.5 L146.6 97.3 L146.7 96.9 L146.8 96.8 L147.3 96.5 L147.5 96.4 L147.6 96.2 L147.7 96.0 L147.6 95.8 L147.8 95.8 L148.0 95.8 L148.1 95.8 L148.3 95.7 L148.2 95.7 L148.0 95.6 L147.9 95.6 L148.0 95.4 L148.1 95.3 L147.9 95.2 L147.7 95.2 L147.6 95.2 L147.8 95.0 L148.0 94.5 L148.2 94.3 L148.2 94.3 L148.1 94.2 L148.0 94.1 L148.1 94.1 L148.2 94.1 L148.4 93.9 L147.4 93.4 L147.6 93.3 L148.0 93.3 L148.2 93.3 L148.4 93.2 L148.6 93.0 L148.7 92.9 L148.6 92.6 L148.8 92.1 L148.7 91.8 L148.3 91.4 L147.8 91.2 L146.7 90.7 L146.3 90.6 L145.9 90.6 L145.6 90.6 L145.2 90.6 L144.9 90.4 L144.8 90.2 L144.8 90.1 L144.7 90.1 L144.6 89.9 L144.5 89.8 L144.3 89.8 L143.9 89.8 L143.7 89.7 L143.4 89.6 L142.7 89.7 L142.4 89.7 L142.2 89.6 L141.9 89.3 L141.7 89.2 L141.2 89.1 L140.6 89.1 L140.0 89.1 L139.5 89.2 L139.1 89.4 L138.9 89.5 L138.6 89.5 L138.4 89.5 L138.3 89.3 L138.3 88.8 L138.3 88.6 L138.2 88.6 L137.2 88.4 L137.0 88.2 L136.8 88.0 L136.6 87.8 L136.5 87.5 L136.7 87.1 L136.9 86.9 L137.7 86.1 L138.0 85.8 L138.1 85.7 L138.3 85.6 L138.7 85.5 L138.9 85.5 L138.9 85.3 L138.7 85.4 L137.9 85.6 L137.8 85.6 L137.6 85.6 L137.5 85.6 L137.5 85.7 L137.5 85.9 L137.5 86.0 L137.4 86.0 L137.1 86.2 L136.4 86.8 L136.0 87.0 L135.7 87.1 L135.3 87.0 L135.0 87.0 L134.7 87.1 L134.6 87.2 L134.6 87.3 L134.6 87.3 L134.5 87.4 L134.3 87.4 L133.6 87.3 L133.1 87.0 L133.0 86.9 L132.4 86.8 L131.8 86.6 L131.9 86.8 L132.0 87.1 L131.9 87.3 L131.6 87.4 L131.3 87.3 L131.0 87.1 L130.8 86.9 L130.6 86.7 L130.6 86.6 L130.6 86.4 L130.0 85.9 L129.7 85.3 L129.3 85.0 L129.0 84.7 L129.0 84.4 L129.0 84.2 L128.6 83.4 L128.4 83.2 L128.3 83.1 L127.9 82.9 L127.8 82.8 L127.6 82.7 L126.8 81.7 L126.5 81.5 L124.9 81.3 L124.3 81.1 L123.9 80.8 L123.4 80.0 L123.3 79.6 L123.1 79.3 L123.0 79.1 L123.0 79.0 L123.2 78.8 L123.2 78.6 L123.2 78.4 L123.1 78.1 L123.1 77.9 L123.1 77.8 L122.8 77.5 L122.7 77.3 L122.9 77.0 L123.2 76.7 L123.7 76.6 L124.1 76.5 L124.1 76.3 L124.4 76.2 L124.9 76.1 L125.2 75.9 L125.2 75.7 L126.0 75.5 L126.3 75.4 L126.5 75.1 L126.5 74.9 L126.5 74.6 L126.3 74.3 L126.5 74.1 L126.6 73.8 L126.7 73.5 L126.7 73.2 L126.5 72.6 L126.5 72.5 L127.0 72.2 L127.2 71.9 L127.5 71.9 L127.9 71.9 L128.1 71.8 L128.2 71.7 L128.2 71.6 L127.5 70.8 L127.1 70.4 L126.8 70.2 L126.2 69.9 L125.4 69.1 L125.0 68.9 L124.5 68.8 L124.2 68.7 L123.9 68.5 L123.3 68.0 L123.2 67.9 L123.2 67.7 L123.1 67.6 L123.1 67.4 L123.1 67.3 L122.9 67.2 L122.8 67.1 L122.4 66.8 L122.0 66.6 L121.8 66.4 L121.7 66.1 L121.9 66.0 L122.0 65.8 L122.2 65.7 L122.3 65.5 L122.0 65.4 L121.9 65.3 L122.0 65.0 L122.1 64.8 L122.4 64.7 L124.1 64.3 L124.5 64.1 L124.9 63.6 L124.4 63.5 L124.4 63.1 L124.5 62.7 L124.6 62.4 L124.4 62.2 L124.0 62.2 L123.0 62.1 L122.0 61.8 L121.4 61.9 L120.8 62.0 L120.2 62.0 L119.7 61.7 L119.5 61.4 L119.7 61.1 L120.0 60.8 L120.3 60.5 L120.1 60.3 L120.5 60.1 L121.1 60.0 L121.4 59.8 L121.3 59.5 L121.2 59.2 L120.8 58.8 L120.7 58.6 L120.5 58.0 L120.4 57.7 L120.3 57.5 L120.3 56.6 L120.2 56.3 L120.2 56.0 L120.3 55.6 L120.5 55.3 L121.0 55.2 L122.1 55.0 L122.6 54.9 L123.0 54.6 L123.0 54.3 L122.7 54.1 L121.7 53.9 L120.3 53.3 L119.9 53.2 L118.8 52.8 L118.6 52.6 L118.6 52.5 L118.0 51.6 L117.8 51.4 L117.6 51.3 L117.1 51.3 L115.8 51.7 L115.5 51.7 L115.4 51.6 L115.3 51.6 L115.2 51.6 L115.2 51.4 L115.2 51.3 L115.3 51.2 L115.4 50.8 L115.3 50.7 L115.2 50.6 L115.3 50.2 L115.1 50.0 L114.4 49.7 L114.2 49.5 L114.1 49.4 L114.1 49.3 L114.0 49.1 L113.7 49.0 L111.5 48.4 L111.0 48.2 L110.4 47.7 L110.0 47.5 L109.1 47.7 L108.7 47.5 L108.2 47.2 L107.8 47.0 L107.5 47.0 L107.3 47.1 L107.0 47.1 L106.3 46.9 L105.7 46.9 L104.7 46.7 L103.5 46.6 L103.4 46.6 L103.4 46.5 L103.4 46.4 L102.3 46.3 L98.8 46.3 L98.3 46.1 L98.3 46.1 L98.3 45.9 L98.3 45.8 L98.2 45.8 L98.1 45.8 L97.9 45.7 L97.7 45.5 L97.3 45.3 L97.2 45.2 L96.5 44.9 L93.7 44.6 L93.4 44.1 L92.6 43.9 L91.2 43.4 L90.1 43.3 L89.6 43.1 L89.4 43.0 L88.9 42.5 L88.9 42.3 L88.7 42.2 L88.4 42.1 L87.3 42.1 L87.2 42.1 L87.1 42.0 L87.0 41.9 L86.9 41.8 L86.7 41.7 L85.8 41.1 L84.9 40.7 L83.6 40.3 L81.1 39.9 L80.8 39.8 L80.8 39.5 L81.3 39.4 L81.5 39.1 L81.5 38.8 L81.2 38.6 L80.5 38.6 L79.4 38.2 L77.6 38.1 L76.8 37.8 L78.2 36.8 L78.7 36.8 L83.0 37.7 L83.6 37.8 L84.0 37.7 L84.9 37.0 L83.1 35.6 L83.5 35.1 L83.8 34.8 L84.0 34.7 L87.3 33.9 L92.3 34.2 L92.6 34.3 L96.9 37.3 L98.1 38.2 L100.2 39.0 L100.4 39.2 L100.6 39.6 L100.8 39.7 L102.0 40.5 L103.2 40.9 L103.4 41.0 L103.8 42.4 L104.0 42.7 L104.3 42.7 L106.0 42.5 L106.4 42.5 L106.8 42.5 L110.7 43.3 L113.2 43.1 L114.0 43.2 L114.4 43.4 L115.6 44.1 L115.9 44.1 L120.3 43.1 L122.7 43.0 L124.1 42.7 L124.6 42.1 L124.9 41.4 L125.9 41.1 L127.1 41.1 L130.1 41.7 L130.6 42.1 L131.0 42.2 L133.2 42.8 L135.5 43.1 L138.2 43.4 L139.6 43.8 L140.7 44.5 L141.2 45.0 L141.5 45.1 L141.9 45.1 L142.2 44.9 L142.4 44.6 L142.6 44.3 L143.1 44.2 L143.4 44.2 L144.4 43.9 L144.8 43.9 L145.1 43.9 L145.4 43.7 L145.5 43.4 L145.3 43.3 L145.4 43.2 L145.4 43.1 L145.5 43.0 L145.5 42.3 L145.6 41.9 L145.8 41.6 L146.4 41.2 L149.2 40.2 L149.9 40.1 L150.6 40.0 L152.5 40.3 L152.9 40.3 L153.2 40.1 L153.5 39.9 L153.6 39.7 L153.9 39.5 L154.4 39.2 L154.5 39.1 L154.6 38.9 L154.8 38.7 L155.4 38.4 L155.6 38.3 L155.5 38.1 L155.4 38.1 L155.1 38.0 L155.0 37.9 L155.0 37.8 L155.0 37.7 L155.0 37.7 L154.7 37.4 L154.7 37.3 L154.8 37.2 L154.9 37.1 L154.9 36.6 L154.9 36.5 L155.0 36.5 L155.0 36.4 L155.1 36.3 L155.0 36.2 L154.8 35.9 L154.7 35.8 L154.5 35.4 L154.5 35.0 L155.1 33.8 L155.3 33.6 L156.7 32.7 L156.6 32.6 L156.1 32.0 L156.5 31.6 L156.7 31.5 L156.8 31.4 L156.8 31.1 L156.9 30.9 L157.1 30.7 L157.0 30.6 L156.9 30.5 L156.8 30.4 L157.0 30.3 L157.9 30.0 L158.3 29.7 L158.6 29.4 L158.6 29.1 L158.2 28.7 L158.0 28.6 L158.0 28.4 L158.1 28.3 L158.3 28.1 L158.6 27.9 L159.0 27.8 L161.3 27.5 L161.5 27.5 L161.7 27.4 L161.9 27.2 L162.6 26.8 L163.4 26.3 L164.9 25.6 L165.3 25.3 L165.2 25.1 L165.3 24.9 L165.8 24.7 L166.1 24.4 L166.6 24.3 L169.3 24.1 L170.3 24.2 L171.7 24.1 L172.1 24.1 L173.0 24.4 L173.4 24.3 L173.8 24.3 L175.0 24.6 L175.3 24.6 L178.5 24.2 L179.1 23.9 L179.0 23.9 L178.8 23.8 L178.6 23.8 L178.8 23.6 L179.0 23.6 L179.3 23.6 L179.5 23.5 L180.5 23.1 L182.3 22.8 L182.4 22.5 L183.0 22.2 L183.8 22.1 L185.8 22.2 L186.9 22.0 L187.4 22.1 L187.8 22.3 L188.6 23.0 L191.5 24.8 L191.8 24.9 L194.7 25.3 L194.7 25.8 L195.1 26.2 L195.7 26.3 L196.2 26.4 L201.2 27.2 L206.1 28.1 L206.4 28.3 L207.2 29.4 L209.4 31.3 L207.6 32.6 L202.1 35.1 L201.9 35.2 L201.8 35.6 L201.5 36.7 L201.5 37.0 L201.7 37.1 L203.4 37.9 Z M110.6 171.5 L110.9 171.1 L111.3 170.8 L111.7 170.6 L112.3 170.7 L112.2 171.0 L111.9 171.2 L111.5 171.4 L111.2 171.6 L111.1 171.7 L111.0 171.9 L110.9 172.0 L110.5 172.1 L110.4 172.2 L110.4 172.4 L110.5 172.5 L110.4 172.6 L110.3 172.6 L110.3 172.6 L110.2 172.7 L110.3 172.7 L110.5 172.8 L110.4 172.9 L110.4 173.0 L110.6 173.4 L110.1 173.9 L108.8 174.4 L108.8 174.5 L109.0 174.5 L109.1 174.5 L109.3 174.6 L109.1 174.7 L108.9 175.0 L108.8 175.1 L108.5 175.0 L108.3 175.1 L108.1 175.2 L107.9 174.9 L107.7 174.6 L107.6 174.8 L107.1 175.1 L107.0 175.1 L106.9 175.2 L107.0 175.4 L106.9 175.4 L106.9 175.2 L106.8 175.0 L106.7 175.0 L106.5 175.1 L106.5 174.9 L106.6 174.8 L106.7 174.6 L106.8 174.4 L106.6 174.5 L106.0 174.8 L105.8 175.0 L105.1 175.1 L104.9 175.2 L104.9 174.8 L104.9 174.6 L105.0 174.4 L104.9 174.2 L104.9 174.0 L105.0 173.9 L104.9 173.7 L104.8 173.6 L104.3 173.5 L104.2 173.4 L104.5 173.3 L105.0 173.1 L105.4 173.1 L106.9 173.1 L106.9 173.0 L104.1 172.9 L104.2 172.5 L104.3 172.1 L104.6 171.8 L105.0 171.7 L104.7 172.1 L104.6 172.3 L104.8 172.3 L106.4 172.2 L106.9 172.0 L107.2 171.9 L110.1 171.7 L110.6 171.5 Z" fill="#172033" fill-rule="evenodd"/></svg>
