<svg xmlns="http://www.w3.org/2000/svg" viewBox="0 0 320 200" role="img"><path d="M211.7 24.5 L211.7 23.4 L212.4 22.9 L213.1 22.5 L214.9 22.0 L214.4 23.1 L213.7 23.7 L212.8 24.1 L211.7 24.5 Z M211.7 43.3 L211.7 40.7 L212.2 40.0 L213.5 39.1 L213.8 38.5 L214.2 38.3 L216.2 37.8 L216.9 37.7 L216.9 38.0 L216.5 38.1 L216.2 38.3 L216.3 38.4 L216.6 38.7 L216.6 39.1 L216.3 39.2 L216.1 39.3 L215.8 39.4 L215.4 39.4 L215.1 39.6 L214.9 40.1 L214.9 40.6 L215.4 40.8 L215.7 41.1 L215.0 41.8 L214.2 42.4 L211.7 43.3 Z M211.7 64.8 L211.7 55.8 L212.2 55.0 L216.0 51.1 L216.9 50.6 L218.0 50.3 L218.6 50.4 L219.1 51.0 L219.5 52.5 L219.7 53.3 L219.7 53.9 L220.4 54.2 L220.8 54.6 L221.1 55.1 L220.8 55.5 L219.0 57.2 L218.5 58.1 L218.4 58.5 L218.3 59.7 L218.1 59.8 L217.8 59.8 L217.3 59.9 L214.2 61.9 L212.6 63.2 L211.7 64.8 Z M211.7 55.7 L211.7 64.7 L211.7 64.8 L211.3 65.4 L210.8 65.8 L210.0 66.3 L209.4 66.6 L208.7 66.7 L208.1 66.7 L207.5 66.6 L207.3 65.8 L206.4 65.0 L206.2 64.3 L206.4 63.5 L207.0 62.9 L208.2 62.0 L210.1 59.4 L210.4 58.8 L210.6 57.9 L211.7 55.8 L211.7 55.7 Z M211.7 23.4 L211.7 24.4 L211.7 24.5 L208.6 27.2 L208.2 27.4 L207.3 27.4 L206.8 27.6 L206.4 28.0 L206.0 28.8 L205.6 29.2 L204.9 29.8 L204.5 30.2 L204.6 30.4 L204.2 30.6 L203.5 31.8 L201.5 34.6 L200.6 35.2 L200.6 36.3 L199.7 37.8 L198.4 39.2 L197.3 39.7 L196.2 40.1 L191.3 43.3 L191.0 43.5 L190.8 43.9 L190.5 44.6 L190.4 45.3 L190.5 46.1 L190.4 46.9 L190.0 47.6 L189.4 48.1 L188.1 48.9 L187.5 49.3 L187.3 49.6 L186.7 50.6 L186.4 50.7 L185.5 51.0 L185.3 51.3 L185.8 51.8 L185.9 52.7 L185.8 53.6 L185.3 54.4 L185.6 54.8 L186.4 54.2 L187.4 53.9 L188.2 54.1 L188.8 54.8 L189.5 54.2 L190.7 52.9 L191.4 52.6 L191.9 52.6 L192.5 52.3 L193.1 51.9 L193.3 51.4 L193.5 50.8 L194.0 50.5 L194.6 50.4 L195.0 50.2 L195.1 50.0 L195.3 49.3 L195.4 49.1 L195.6 49.1 L196.2 48.9 L196.4 48.8 L196.8 48.3 L197.3 47.0 L197.6 46.5 L198.1 46.3 L198.6 46.1 L199.0 45.9 L199.2 45.5 L199.4 45.1 L199.8 44.9 L200.6 44.6 L202.3 43.6 L203.3 42.8 L203.7 42.0 L204.2 41.7 L206.8 40.4 L207.1 40.2 L207.3 39.8 L207.5 39.6 L207.9 39.4 L208.7 39.4 L208.8 39.6 L208.8 40.0 L209.4 41.2 L209.1 41.7 L208.8 42.1 L208.5 42.5 L207.9 43.9 L206.2 47.1 L206.1 47.3 L206.2 47.9 L206.2 48.1 L206.0 48.2 L205.3 48.1 L205.1 48.1 L204.0 49.5 L205.4 49.6 L206.2 50.2 L206.7 51.1 L206.8 52.3 L207.5 52.2 L208.5 52.4 L209.2 52.9 L209.3 53.7 L208.8 54.1 L208.0 53.9 L206.5 53.3 L206.6 53.6 L207.0 54.4 L207.2 54.8 L206.4 54.5 L206.2 54.4 L205.4 54.9 L204.8 54.7 L204.5 54.0 L204.7 53.3 L202.9 53.3 L202.2 53.0 L201.7 52.3 L200.6 52.7 L199.5 52.6 L198.5 52.4 L197.8 52.3 L197.3 52.5 L196.5 53.2 L195.9 53.3 L195.3 53.4 L194.8 53.5 L194.5 53.8 L194.3 54.4 L194.0 53.9 L194.0 53.7 L193.6 53.7 L193.1 54.7 L191.3 55.9 L190.5 56.8 L189.6 56.1 L188.6 56.0 L186.5 56.5 L184.9 56.5 L184.0 56.7 L183.2 57.2 L181.4 56.6 L180.0 56.5 L176.0 56.8 L176.1 56.7 L176.6 56.3 L176.9 55.6 L177.4 55.0 L178.3 54.7 L179.0 54.4 L178.7 53.7 L178.8 53.0 L178.2 52.6 L176.6 52.3 L175.3 51.3 L174.5 50.9 L174.1 51.1 L173.5 51.1 L169.7 52.5 L168.7 53.1 L167.2 54.4 L167.5 55.2 L167.2 56.0 L166.5 56.5 L165.8 56.8 L164.3 56.4 L163.2 57.7 L161.9 61.3 L163.2 60.5 L163.8 60.4 L164.8 60.6 L164.3 61.2 L162.8 62.2 L162.3 62.7 L161.9 62.7 L161.3 62.5 L159.3 61.9 L158.6 61.5 L158.4 61.1 L158.3 60.7 L158.2 60.4 L157.2 60.2 L156.9 59.9 L156.7 59.4 L156.7 58.9 L156.4 58.9 L156.4 59.9 L155.6 59.5 L155.0 59.4 L154.5 59.6 L153.9 59.9 L151.9 61.7 L151.6 62.2 L151.1 64.1 L150.8 64.5 L150.3 64.7 L150.2 65.0 L150.8 65.5 L149.0 66.7 L148.9 66.9 L147.4 67.0 L146.8 66.9 L146.0 66.6 L145.3 65.9 L144.7 64.5 L144.3 62.9 L144.2 61.5 L143.7 60.5 L142.7 59.6 L142.0 58.4 L142.5 56.8 L141.4 56.5 L140.9 56.1 L140.7 55.4 L137.6 56.9 L136.1 57.2 L134.8 56.1 L135.0 56.0 L135.1 56.0 L135.2 55.8 L134.6 55.3 L134.5 54.7 L134.7 54.4 L135.2 54.8 L135.5 54.8 L135.4 53.8 L135.9 52.9 L137.6 51.6 L137.6 52.6 L138.0 52.2 L138.2 51.6 L138.4 51.3 L139.0 51.6 L139.2 50.8 L139.9 49.6 L140.0 48.8 L138.9 49.4 L138.2 49.3 L137.7 48.8 L137.3 47.8 L139.2 47.1 L139.7 47.1 L140.1 47.3 L140.7 48.1 L141.0 48.5 L141.6 48.6 L143.2 48.8 L144.7 49.8 L145.2 49.9 L145.9 49.7 L146.2 49.5 L146.3 49.2 L146.6 48.8 L149.4 46.5 L150.2 46.2 L150.7 46.7 L150.8 48.1 L151.5 47.8 L151.7 47.5 L151.5 46.2 L151.7 45.6 L153.2 43.6 L153.3 43.9 L153.6 44.3 L153.6 44.6 L154.0 44.4 L154.2 44.1 L154.3 43.8 L154.3 43.3 L154.6 43.3 L155.2 43.9 L155.7 43.4 L156.3 42.6 L156.9 42.1 L157.4 41.9 L157.3 41.2 L156.9 40.4 L156.7 39.7 L156.9 39.9 L157.5 40.0 L157.8 40.1 L158.0 39.2 L158.5 39.2 L159.0 39.5 L159.2 39.7 L159.9 39.6 L161.3 39.2 L163.7 38.9 L166.4 38.0 L167.9 37.7 L169.4 37.8 L170.0 37.7 L170.1 37.5 L170.5 36.8 L170.7 36.6 L171.0 36.4 L171.9 36.3 L172.2 36.1 L173.1 36.1 L174.6 36.4 L176.1 36.6 L176.9 35.9 L177.7 36.6 L178.1 36.4 L178.5 35.8 L179.2 35.6 L179.5 35.7 L179.8 36.4 L180.2 36.6 L180.6 36.5 L180.9 36.5 L181.1 36.4 L181.4 36.6 L181.4 35.8 L181.0 35.1 L180.6 34.5 L180.0 34.2 L180.6 33.7 L181.1 33.5 L181.7 33.6 L182.2 33.8 L182.4 33.0 L182.9 32.0 L183.5 31.6 L184.2 32.1 L184.6 31.2 L184.6 30.4 L184.9 29.8 L185.6 29.3 L187.4 29.5 L188.1 29.2 L187.4 28.3 L188.0 28.3 L188.5 28.6 L188.8 29.1 L189.1 29.7 L189.5 27.9 L189.8 27.2 L190.0 27.8 L190.5 28.1 L191.1 28.3 L191.6 28.6 L192.0 28.2 L192.4 28.2 L192.7 28.5 L192.9 29.0 L192.9 28.2 L193.1 27.9 L193.5 27.9 L193.8 28.0 L194.1 27.8 L194.3 27.4 L194.3 27.0 L194.3 26.9 L194.6 26.9 L194.8 27.0 L195.0 27.2 L195.2 27.2 L196.2 27.3 L196.6 27.2 L196.8 26.7 L197.0 26.4 L198.3 25.9 L199.8 25.1 L200.1 25.8 L200.2 27.0 L200.6 27.6 L201.2 27.3 L202.3 26.4 L203.0 26.2 L203.6 26.4 L203.7 26.7 L203.4 27.0 L203.0 27.2 L203.6 27.4 L204.2 27.4 L204.4 27.6 L205.0 26.8 L206.8 25.4 L207.2 25.0 L210.9 23.4 L211.7 23.4 L211.7 23.4 Z M218.7 166.5 L218.7 166.5 L219.4 164.3 L221.2 164.5 L222.5 166.0 L221.5 167.5 L221.0 165.8 L220.0 165.6 L219.1 166.4 L219.2 167.3 L219.6 168.3 L218.9 168.5 L218.2 167.9 L218.7 166.5 Z M200.4 174.5 L201.0 174.9 L201.3 175.8 L201.4 176.8 L201.7 177.6 L200.2 178.0 L199.6 178.0 L198.8 177.9 L198.6 177.7 L198.5 177.2 L198.9 177.1 L199.0 177.0 L199.0 176.9 L199.2 176.6 L199.4 176.6 L200.0 176.8 L200.3 176.9 L199.9 176.1 L199.4 175.3 L199.4 174.7 L200.4 174.5 Z M132.0 166.0 L132.4 165.9 L134.2 166.2 L134.8 166.5 L135.2 167.1 L135.5 168.1 L135.4 168.9 L134.3 169.4 L133.6 169.9 L133.2 169.6 L132.7 169.4 L131.7 169.3 L131.9 169.7 L131.9 170.1 L131.7 170.4 L131.3 170.7 L130.7 170.5 L129.6 170.4 L128.3 170.5 L127.5 170.7 L127.6 170.3 L127.7 169.6 L127.8 169.3 L127.4 169.5 L127.0 169.5 L126.8 169.5 L126.4 169.3 L126.7 169.0 L126.9 168.7 L127.1 168.6 L125.7 168.1 L124.4 168.6 L122.3 170.3 L121.5 170.5 L120.7 170.5 L120.0 170.6 L119.8 171.2 L119.8 172.2 L119.7 172.5 L119.5 171.7 L119.0 172.1 L118.8 172.7 L118.9 173.2 L119.3 173.4 L120.0 173.6 L120.3 174.0 L120.2 175.3 L120.0 175.7 L119.7 176.0 L119.2 176.2 L118.8 176.2 L118.4 175.9 L118.3 175.4 L118.4 174.1 L117.7 174.7 L117.4 174.8 L116.7 174.8 L116.2 175.3 L115.9 175.8 L115.6 176.1 L114.8 176.2 L114.0 176.1 L112.7 175.6 L112.0 175.5 L110.9 176.2 L110.3 176.2 L110.1 175.5 L109.7 175.5 L109.3 175.7 L108.8 175.6 L108.2 175.2 L107.7 174.8 L109.2 173.4 L110.1 173.0 L111.1 173.4 L111.7 173.0 L111.8 171.9 L112.2 171.4 L112.8 171.1 L113.4 171.1 L116.2 171.8 L116.7 171.7 L117.0 171.4 L117.1 170.9 L117.2 170.4 L117.7 170.0 L118.4 170.5 L118.9 170.0 L119.1 169.1 L119.1 168.2 L119.8 167.1 L121.6 166.4 L123.6 166.3 L125.1 166.8 L125.5 165.4 L125.8 165.2 L126.6 165.1 L126.8 165.0 L127.0 164.8 L127.2 164.5 L127.7 164.4 L128.2 164.5 L128.6 164.7 L129.0 164.7 L129.6 164.4 L129.9 165.1 L131.6 165.2 L132.0 166.0 Z M136.9 162.0 L137.3 162.4 L137.5 162.8 L137.4 163.2 L137.3 163.7 L136.6 163.5 L136.2 164.0 L136.0 164.5 L135.5 164.4 L134.1 163.5 L134.2 162.9 L134.7 162.2 L134.8 161.8 L135.3 161.3 L136.4 161.0 L137.1 161.1 L136.9 162.0 Z M208.9 145.7 L209.1 146.1 L209.3 146.3 L208.9 146.9 L207.7 147.2 L207.2 147.7 L206.2 148.4 L206.6 148.8 L207.3 148.5 L207.5 148.5 L207.7 149.1 L206.7 149.8 L206.7 150.9 L205.8 151.1 L205.2 150.2 L205.2 149.4 L204.6 149.0 L204.3 148.5 L203.3 147.9 L203.1 147.4 L204.1 146.9 L206.1 146.2 L208.1 145.8 L208.9 145.7 Z M92.3 142.5 L92.6 143.0 L92.7 143.7 L92.7 144.9 L93.0 147.3 L92.3 146.9 L91.7 146.0 L91.2 145.1 L90.9 144.2 L90.8 143.4 L90.9 143.0 L91.6 142.1 L91.8 142.3 L91.9 142.4 L92.1 142.4 L92.3 142.5 Z M116.4 136.2 L116.6 135.3 L117.2 135.1 L117.8 135.6 L118.1 136.5 L117.9 137.6 L117.4 138.4 L116.6 138.5 L115.7 137.9 L116.1 137.8 L116.3 137.7 L116.3 137.5 L116.0 137.2 L116.3 137.0 L116.3 136.8 L116.3 136.5 L116.4 136.2 Z M178.5 117.4 L179.3 118.8 L179.4 121.5 L178.7 123.5 L177.2 122.6 L176.7 122.0 L176.3 120.6 L176.0 120.0 L175.1 118.8 L174.7 118.2 L174.5 117.4 L174.3 117.9 L174.4 119.0 L174.3 119.3 L173.8 119.4 L173.6 119.1 L173.4 117.6 L173.5 116.2 L173.4 115.9 L172.9 115.1 L172.8 114.6 L173.3 114.9 L173.7 115.0 L174.8 114.1 L175.0 114.1 L175.4 114.2 L176.0 114.3 L176.8 114.8 L178.0 116.9 L178.5 117.4 Z M182.8 107.0 L182.8 107.2 L182.8 107.3 L182.5 107.6 L182.6 108.0 L182.8 108.4 L182.9 108.9 L182.8 109.4 L182.4 109.8 L182.1 109.6 L181.8 108.7 L181.4 108.2 L181.0 107.6 L180.8 106.9 L181.1 106.3 L182.0 106.7 L182.8 107.0 Z M147.0 103.5 L147.8 104.7 L148.9 105.3 L149.7 105.5 L149.6 105.9 L149.5 106.1 L149.4 106.3 L149.0 105.9 L148.7 106.1 L148.4 106.1 L148.1 105.7 L147.5 105.6 L146.7 103.7 L146.4 102.8 L147.0 103.5 Z M149.6 98.6 L149.9 98.3 L150.7 98.1 L151.6 98.6 L152.1 99.8 L152.3 100.5 L152.4 101.2 L152.6 101.8 L152.4 102.6 L152.3 103.2 L151.9 103.7 L150.7 104.0 L150.0 104.2 L149.2 104.6 L148.7 103.7 L148.4 102.9 L147.7 100.8 L148.3 99.3 L149.6 98.6 Z M161.2 98.2 L160.8 97.5 L160.9 97.0 L161.3 96.8 L161.9 97.2 L162.3 97.7 L162.9 99.2 L163.0 100.0 L162.6 100.0 L162.4 99.4 L162.1 98.9 L161.7 98.5 L161.2 98.2 Z M146.3 117.0 L146.2 117.4 L145.7 118.1 L145.6 118.4 L145.6 119.2 L145.6 119.6 L145.4 120.3 L144.9 121.0 L144.3 121.6 L143.8 121.9 L141.3 123.1 L140.0 124.3 L140.0 123.3 L138.6 123.9 L138.0 124.0 L138.6 123.2 L138.6 123.0 L138.3 122.5 L138.1 122.4 L137.9 122.4 L137.4 122.1 L136.9 122.0 L135.5 122.7 L134.8 123.0 L134.9 124.0 L134.0 124.6 L132.9 124.9 L132.4 124.9 L132.4 124.1 L132.5 123.8 L132.4 123.7 L131.6 122.9 L131.1 122.7 L130.6 122.6 L129.9 122.6 L130.1 122.8 L130.1 122.9 L130.3 123.0 L130.0 123.4 L129.7 123.7 L129.4 123.9 L128.9 124.0 L128.9 123.9 L128.7 123.6 L128.5 123.4 L128.2 123.3 L127.8 123.4 L127.2 123.6 L126.9 123.6 L126.5 123.8 L126.2 124.2 L125.9 124.6 L125.2 124.7 L124.6 124.8 L124.2 124.9 L123.9 125.1 L123.6 125.4 L123.4 125.7 L123.2 126.5 L123.0 126.8 L122.5 127.0 L121.5 127.4 L121.0 127.6 L119.6 129.3 L118.7 130.1 L117.7 130.3 L117.3 130.3 L117.0 130.6 L115.9 129.6 L112.1 130.9 L110.5 130.6 L109.7 130.6 L109.4 130.5 L109.0 130.3 L108.7 130.6 L108.1 130.9 L107.4 131.1 L106.8 130.8 L106.1 130.7 L105.4 131.1 L104.8 131.3 L104.5 130.4 L104.3 130.2 L104.0 130.3 L103.6 130.6 L103.3 130.8 L103.0 130.9 L102.7 130.8 L101.7 130.0 L101.6 129.6 L101.4 129.3 L99.1 128.8 L94.8 127.7 L93.5 127.5 L92.1 127.1 L89.4 125.9 L88.2 126.1 L86.6 125.4 L86.0 125.3 L83.4 125.5 L83.0 125.4 L82.4 125.2 L82.1 124.9 L81.8 124.6 L81.6 124.3 L78.0 123.5 L76.4 122.8 L75.3 121.2 L74.9 121.6 L74.7 121.0 L74.7 120.0 L74.6 119.5 L74.4 119.2 L74.2 118.9 L74.0 118.6 L73.9 117.9 L73.6 117.6 L72.7 117.1 L72.7 116.9 L72.9 116.4 L72.7 116.0 L72.3 115.5 L72.1 115.0 L72.3 114.6 L73.0 113.7 L73.2 113.2 L73.1 112.6 L72.9 112.2 L72.6 111.8 L72.5 111.3 L72.8 110.3 L73.7 109.9 L76.0 109.7 L77.3 109.2 L77.7 109.0 L78.2 108.5 L78.3 108.0 L78.2 107.7 L78.1 107.1 L78.1 105.4 L78.2 104.7 L78.4 104.6 L78.7 104.7 L80.5 105.2 L80.9 105.2 L81.4 104.7 L81.5 104.4 L81.3 104.0 L81.2 103.6 L81.1 103.1 L80.9 102.1 L80.9 101.6 L80.7 101.1 L80.3 100.9 L79.9 100.7 L79.4 100.3 L79.1 99.2 L79.8 98.7 L80.7 98.2 L81.2 97.4 L81.4 97.0 L82.5 96.7 L83.0 96.5 L83.2 95.9 L83.1 95.4 L83.1 94.8 L83.6 94.4 L84.2 95.0 L84.7 94.9 L84.9 94.3 L84.7 93.7 L85.1 92.9 L85.5 92.3 L86.0 92.1 L86.4 92.7 L86.8 92.7 L88.9 90.9 L90.9 89.7 L91.1 89.5 L91.3 89.4 L91.3 89.2 L91.4 88.9 L91.8 88.8 L92.1 88.9 L92.5 89.0 L92.7 89.1 L92.5 89.2 L92.2 89.6 L92.4 90.5 L92.7 91.4 L93.0 92.0 L93.3 91.6 L93.0 91.0 L92.8 90.4 L92.8 89.8 L93.0 89.2 L93.4 88.9 L95.1 88.0 L95.4 87.9 L97.4 88.5 L97.6 88.2 L97.8 87.6 L98.0 87.0 L98.2 86.8 L98.6 86.6 L99.0 86.4 L99.3 86.2 L100.4 86.0 L100.6 85.7 L100.7 85.5 L101.3 85.3 L101.5 85.1 L101.7 85.3 L101.7 85.9 L101.7 86.5 L101.6 86.9 L101.3 87.4 L101.0 87.8 L101.8 88.0 L102.5 87.6 L103.1 87.0 L103.8 86.4 L104.9 87.1 L106.4 87.3 L107.9 87.1 L109.0 86.8 L110.5 86.1 L111.1 85.7 L111.7 85.2 L112.3 84.8 L113.5 84.7 L114.3 84.3 L115.9 84.6 L117.8 84.3 L119.3 83.4 L119.8 81.9 L120.9 82.3 L122.3 82.9 L123.5 83.7 L124.0 84.5 L124.1 85.1 L124.7 86.1 L124.7 86.8 L124.3 87.3 L123.1 88.6 L122.6 89.2 L123.1 89.5 L123.2 89.9 L123.0 90.3 L122.6 90.6 L123.3 90.5 L124.7 88.9 L125.6 88.5 L126.8 88.6 L127.8 89.0 L128.7 89.6 L129.2 90.6 L129.3 91.0 L129.2 91.6 L129.2 92.0 L129.4 92.0 L130.3 92.8 L130.5 93.0 L130.6 93.2 L132.8 94.6 L133.3 94.6 L133.8 94.6 L134.5 94.7 L135.3 95.3 L136.7 97.2 L137.1 97.5 L138.2 97.7 L139.2 98.0 L140.2 98.7 L140.7 99.7 L140.8 100.9 L140.3 101.9 L139.6 102.7 L139.3 103.6 L139.2 104.1 L139.1 104.6 L139.0 105.0 L139.2 105.4 L139.5 105.7 L140.5 106.4 L140.7 106.6 L140.8 107.2 L140.6 107.7 L140.6 108.3 L141.0 108.7 L141.7 108.5 L142.0 108.6 L142.0 109.0 L141.4 109.4 L142.0 109.6 L142.4 110.0 L142.4 110.5 L142.1 111.1 L141.9 111.0 L141.4 110.8 L141.5 111.0 L141.8 111.9 L140.2 112.2 L140.4 113.7 L141.3 115.2 L141.9 116.0 L142.9 116.1 L143.4 116.3 L143.6 116.8 L144.2 117.4 L144.4 117.7 L144.4 117.9 L144.5 118.0 L145.1 118.1 L145.4 117.9 L145.7 117.6 L145.9 117.3 L146.0 117.0 L146.3 117.0 Z M64.1 79.1 L65.4 79.6 L66.1 79.6 L66.9 79.1 L67.6 80.1 L67.3 80.2 L67.1 80.4 L67.1 80.6 L66.3 81.6 L65.7 82.2 L65.0 82.4 L64.5 81.9 L64.4 81.1 L64.6 80.4 L64.7 79.8 L64.1 79.5 L64.1 79.1 Z M183.9 81.4 L183.8 82.7 L183.5 83.8 L182.9 84.8 L182.2 85.7 L180.8 86.8 L180.4 86.5 L180.4 83.5 L180.3 82.6 L180.1 81.9 L179.7 81.2 L179.8 80.5 L179.8 79.8 L180.2 79.3 L182.3 79.0 L182.7 78.9 L183.2 78.9 L183.7 79.3 L183.7 79.6 L183.9 81.4 Z M73.2 70.7 L73.4 70.4 L73.9 69.0 L74.2 69.6 L74.2 70.3 L74.0 71.0 L73.5 71.4 L73.1 72.4 L71.6 73.4 L71.4 74.2 L71.2 74.0 L71.0 73.9 L70.9 73.8 L70.7 73.5 L70.2 73.8 L69.9 74.2 L69.7 74.6 L69.7 75.3 L68.3 74.9 L68.3 74.6 L68.8 74.6 L69.0 74.6 L68.8 74.1 L68.7 73.4 L68.8 72.7 L69.2 72.5 L69.6 72.3 L69.8 71.8 L69.9 71.2 L70.1 70.7 L70.4 70.4 L71.6 69.5 L72.0 69.4 L72.0 69.6 L72.6 70.5 L72.8 70.7 L73.2 70.7 Z M81.9 59.9 L80.3 61.1 L79.8 61.7 L80.5 62.0 L80.3 62.4 L80.1 62.8 L79.8 63.1 L79.4 63.4 L79.3 63.1 L78.9 62.7 L78.3 61.7 L78.6 61.2 L79.8 60.6 L79.4 59.8 L80.1 59.6 L81.1 59.7 L81.9 59.9 Z M127.1 56.1 L126.9 57.2 L127.2 57.8 L127.1 57.9 L125.8 57.9 L124.9 58.2 L124.5 57.6 L124.4 55.8 L124.7 55.8 L125.1 56.1 L125.7 56.2 L127.1 56.1 Z M87.8 50.2 L88.8 50.3 L89.4 50.7 L89.5 51.4 L89.2 52.3 L88.8 52.8 L88.0 53.4 L87.8 53.9 L87.6 54.1 L84.4 56.6 L83.7 57.3 L83.3 58.2 L82.8 58.0 L82.6 57.9 L82.4 58.2 L82.0 58.4 L81.6 58.5 L81.2 58.2 L81.2 57.9 L81.5 56.7 L81.6 56.1 L81.9 56.1 L82.5 56.8 L83.5 56.3 L85.4 54.4 L87.7 52.5 L88.4 51.4 L87.8 50.2 Z M207.5 49.1 L205.8 49.1 L206.7 48.9 L207.0 48.8 L207.2 48.7 L207.2 47.9 L207.4 47.8 L207.8 47.7 L208.4 47.6 L208.9 47.3 L209.3 46.7 L209.3 47.8 L209.1 48.6 L208.5 49.1 L207.5 49.1 Z M246.1 105.8 L245.5 105.2 L245.6 104.2 L246.3 103.5 L247.4 103.4 L248.3 104.2 L248.3 105.3 L247.5 106.0 L246.1 105.8 Z M254.6 90.6 L253.8 89.9 L253.6 89.0 L254.1 88.3 L255.1 88.2 L255.7 88.7 L255.9 89.7 L255.6 90.5 L254.6 90.6 Z" fill="#172033" fill-rule="evenodd"/></svg>
