<svg xmlns="http://www.w3.org/2000/svg" viewBox="0 0 320 200" role="img"><path d="M251.3 46.4 L254.6 52.3 L259.6 54.5 L265.6 53.7 L271.7 50.5 L279.6 81.5 L279.9 87.5 L275.2 89.0 L262.1 87.8 L259.5 89.3 L260.7 95.7 L266.1 106.8 L267.3 113.9 L265.1 123.5 L259.5 129.1 L252.4 131.6 L223.8 135.6 L212.4 134.9 L206.2 128.2 L193.4 132.6 L185.4 127.2 L179.7 118.2 L173.7 111.9 L176.1 104.1 L177.0 96.5 L175.2 89.4 L169.3 83.4 L171.0 81.0 L173.7 74.9 L157.3 73.9 L153.0 64.6 L157.0 44.4 L162.6 38.7 L174.1 38.4 L184.3 35.7 L185.9 22.0 L198.2 27.3 L202.2 30.1 L208.0 26.8 L212.3 27.2 L216.6 29.1 L222.5 30.1 L237.4 29.5 L242.9 30.1 L243.3 31.4 L253.2 37.9 L255.1 38.3 L258.9 43.5 L257.3 44.8 L251.3 46.4 Z M40.1 178.0 L41.8 171.9 L43.5 170.0 L47.6 169.4 L47.2 172.9 L45.8 174.8 L40.1 178.0 Z" fill="#172033" fill-rule="evenodd"/></svg>
