<svg xmlns="http://www.w3.org/2000/svg" viewBox="0 0 320 200" role="img"><path d="M162.2 22.0 L162.4 22.4 L162.6 23.1 L162.7 23.4 L163.3 23.8 L163.5 24.0 L163.6 24.3 L163.5 24.4 L163.1 24.7 L163.0 24.8 L163.4 25.5 L163.3 25.6 L163.2 25.8 L163.2 25.9 L163.3 25.9 L163.4 26.0 L163.5 26.1 L163.7 26.3 L163.7 26.3 L163.9 26.4 L164.1 26.4 L164.2 26.4 L164.5 26.4 L164.7 26.4 L164.9 26.5 L165.0 26.6 L165.0 26.7 L165.1 26.8 L165.7 27.2 L165.8 27.3 L166.0 27.6 L166.1 27.7 L166.4 27.8 L167.7 28.2 L167.8 28.2 L168.0 28.3 L168.2 28.2 L168.7 27.6 L169.0 27.4 L169.4 27.3 L170.2 27.1 L171.5 26.9 L171.9 26.9 L172.2 27.1 L172.4 27.4 L172.7 27.7 L172.9 28.0 L173.0 28.1 L173.2 28.1 L173.4 28.1 L173.6 28.3 L173.7 28.7 L173.5 28.9 L173.6 29.4 L174.1 30.3 L174.1 30.8 L174.2 31.0 L174.4 31.2 L174.6 31.3 L175.3 31.5 L175.6 31.6 L176.0 31.6 L176.7 31.4 L176.9 31.3 L177.1 31.2 L177.3 31.1 L177.5 31.1 L177.7 31.2 L177.8 31.2 L177.8 31.4 L177.6 31.5 L177.8 31.6 L178.9 31.6 L179.2 31.7 L179.6 31.8 L179.9 32.0 L180.2 32.3 L180.3 32.9 L180.3 33.7 L180.4 34.3 L181.0 34.7 L181.1 34.6 L181.1 34.6 L181.1 34.6 L181.2 34.5 L181.2 34.5 L181.3 34.4 L181.6 34.0 L181.7 33.9 L181.9 33.9 L182.6 33.9 L183.3 33.9 L183.6 34.0 L183.9 34.1 L184.2 34.2 L184.6 34.2 L185.6 34.0 L185.9 33.9 L186.2 34.0 L186.8 34.4 L187.1 34.5 L187.4 34.7 L187.9 35.3 L188.2 35.4 L188.3 35.3 L188.3 35.2 L188.3 35.1 L188.5 35.1 L188.6 35.1 L188.8 35.2 L189.0 35.3 L189.1 35.4 L189.1 35.6 L189.0 35.7 L188.6 35.9 L188.4 36.0 L188.3 36.2 L188.2 36.5 L187.9 37.1 L187.9 37.4 L188.1 37.5 L188.4 37.4 L188.6 37.4 L188.8 37.4 L189.0 38.1 L189.1 38.3 L189.3 38.4 L189.2 38.5 L188.9 38.6 L188.5 38.8 L188.2 39.0 L188.1 39.0 L188.0 39.2 L187.9 39.4 L188.0 39.4 L188.1 39.6 L188.1 39.9 L188.0 39.9 L188.0 39.9 L188.9 40.2 L189.1 40.2 L189.3 40.2 L190.3 40.1 L192.7 40.5 L192.9 40.5 L193.3 40.5 L195.6 39.8 L196.2 39.7 L196.4 39.6 L196.6 39.4 L196.7 39.2 L196.8 38.7 L196.8 38.6 L196.7 38.5 L196.7 38.4 L196.7 38.2 L196.8 38.1 L198.5 37.0 L199.0 36.9 L199.0 37.1 L199.2 37.2 L199.7 37.1 L199.9 37.2 L199.8 37.5 L199.8 37.8 L199.7 38.1 L199.6 38.0 L199.5 38.0 L199.2 38.4 L199.1 38.6 L199.2 38.7 L199.1 38.9 L198.5 39.9 L198.5 40.1 L198.7 40.3 L199.4 40.5 L199.7 40.8 L199.7 41.1 L199.7 41.2 L199.6 41.3 L199.5 41.5 L199.4 41.6 L199.3 41.7 L199.3 41.8 L199.3 41.9 L199.5 42.1 L199.5 42.2 L199.5 42.8 L199.6 42.9 L200.1 42.9 L200.4 42.9 L201.1 42.7 L201.4 42.7 L201.5 42.7 L201.7 42.8 L202.3 43.2 L202.7 43.3 L203.2 43.4 L203.4 43.5 L204.1 44.2 L204.4 44.3 L204.6 44.5 L205.0 44.5 L205.7 44.4 L206.1 44.4 L206.4 44.6 L206.7 44.9 L206.8 45.1 L206.8 45.2 L206.6 45.2 L206.6 45.4 L206.6 45.6 L206.7 45.7 L207.0 45.7 L207.1 45.7 L207.2 45.6 L207.2 45.5 L207.3 45.5 L207.4 45.5 L207.6 45.5 L208.1 45.7 L208.2 45.7 L208.4 45.8 L209.1 46.7 L209.2 46.9 L209.2 47.1 L209.2 47.2 L209.1 47.3 L209.2 47.5 L209.6 47.6 L210.0 47.4 L210.4 47.2 L210.7 47.1 L211.2 47.3 L211.4 47.3 L211.6 47.3 L211.6 47.2 L211.7 47.1 L211.9 46.9 L212.3 46.8 L212.6 46.8 L213.0 46.9 L213.3 47.0 L213.5 46.9 L213.7 46.7 L213.9 46.7 L214.1 46.7 L214.4 46.8 L214.6 46.9 L215.1 47.3 L215.4 47.5 L215.8 47.6 L216.8 47.8 L217.1 48.0 L217.3 48.4 L217.6 48.4 L219.0 48.3 L219.2 48.2 L219.4 48.1 L219.6 48.0 L219.6 48.0 L219.6 47.9 L219.7 47.8 L219.8 47.7 L220.3 47.7 L220.2 47.6 L221.1 47.5 L221.5 47.5 L222.0 47.6 L222.0 47.6 L222.8 48.0 L223.2 48.2 L223.5 48.2 L223.6 48.2 L223.8 48.2 L224.1 48.0 L224.3 48.0 L224.4 48.0 L225.9 48.5 L226.2 48.7 L226.3 48.8 L226.3 48.9 L226.3 49.0 L226.3 49.0 L226.4 49.2 L227.2 49.7 L227.2 49.8 L227.2 49.9 L226.9 49.9 L226.8 50.1 L226.9 50.3 L227.2 50.5 L228.2 51.1 L228.3 51.2 L228.2 51.4 L228.2 51.4 L228.3 51.5 L228.6 51.5 L228.6 51.6 L228.7 51.9 L228.8 51.9 L228.8 52.0 L228.8 52.1 L228.9 52.2 L229.0 52.2 L229.2 52.1 L229.2 52.1 L229.3 52.3 L229.3 52.5 L229.2 52.7 L229.4 52.9 L229.6 53.0 L230.3 53.0 L231.0 53.2 L231.2 53.1 L231.4 52.9 L231.4 52.6 L231.3 52.4 L231.3 52.1 L231.5 52.1 L232.2 52.2 L232.6 52.2 L232.8 52.2 L233.8 52.6 L234.2 52.6 L234.2 53.1 L234.3 53.6 L234.7 53.8 L235.2 53.6 L235.2 53.5 L235.2 53.4 L235.2 53.3 L235.3 53.2 L235.4 53.2 L236.0 53.5 L236.3 53.6 L236.5 53.7 L237.9 53.7 L238.3 53.8 L238.4 53.8 L238.5 53.7 L238.7 53.5 L238.8 53.4 L238.9 53.4 L239.3 53.4 L239.4 53.3 L239.5 53.3 L239.6 53.0 L239.6 52.9 L239.9 52.8 L240.0 52.8 L240.3 52.8 L240.6 52.8 L240.7 53.0 L241.4 53.0 L241.7 53.1 L241.8 53.3 L241.6 53.3 L241.6 53.4 L241.6 53.4 L241.8 53.6 L242.2 54.0 L242.4 54.2 L242.7 54.3 L243.4 54.4 L243.8 54.5 L243.9 54.6 L244.1 54.8 L244.2 54.9 L244.4 54.9 L244.4 54.9 L244.6 54.9 L244.8 54.8 L245.0 54.8 L245.2 54.8 L245.5 54.9 L245.7 54.9 L245.9 54.9 L246.3 54.8 L246.4 54.7 L247.8 55.0 L248.7 54.9 L249.0 54.9 L251.5 55.8 L253.1 56.0 L253.3 56.2 L253.3 56.2 L252.9 56.4 L252.4 57.0 L251.7 58.4 L251.5 58.6 L251.4 58.6 L250.8 58.9 L250.7 58.9 L250.7 58.9 L250.6 58.9 L250.5 59.0 L250.5 59.2 L250.4 59.3 L250.3 59.3 L250.2 59.3 L249.8 59.4 L249.6 59.4 L249.5 59.5 L249.5 59.8 L249.4 60.0 L249.2 60.1 L249.0 60.3 L248.8 60.3 L248.4 60.7 L248.1 60.8 L247.9 60.9 L247.7 61.0 L247.0 61.7 L246.9 62.2 L246.9 62.8 L247.1 63.1 L247.1 63.2 L246.7 63.4 L246.5 63.6 L246.4 63.7 L246.4 64.0 L246.3 64.2 L246.2 64.3 L246.1 64.4 L246.0 64.6 L245.9 65.0 L245.8 65.2 L245.9 65.4 L246.0 65.6 L246.1 65.8 L246.1 66.1 L245.8 66.3 L245.5 66.4 L245.3 66.6 L245.2 66.9 L245.1 67.2 L245.0 67.5 L244.9 67.7 L243.9 68.7 L243.8 68.9 L243.7 69.1 L243.6 69.2 L243.5 69.3 L243.4 69.5 L243.3 69.7 L243.2 70.0 L243.3 70.7 L243.9 71.5 L244.0 72.0 L243.8 72.2 L243.4 72.5 L243.3 72.7 L243.3 73.0 L243.3 73.0 L243.2 73.2 L243.1 73.3 L243.0 73.4 L243.0 73.4 L243.0 73.5 L243.0 73.5 L243.0 73.6 L243.0 73.6 L243.1 73.9 L243.0 74.1 L242.8 74.2 L242.7 74.3 L242.5 74.8 L242.5 75.0 L242.7 75.6 L242.6 75.8 L242.6 76.0 L242.3 76.1 L242.2 76.2 L242.3 76.6 L242.3 76.8 L242.4 76.8 L242.6 76.9 L242.8 77.1 L243.2 77.6 L243.3 77.7 L243.4 77.8 L243.5 77.8 L243.5 78.0 L243.5 78.0 L243.4 78.2 L243.4 78.2 L242.8 78.4 L242.5 78.5 L242.4 78.6 L241.8 78.9 L241.8 78.9 L242.1 79.0 L242.1 79.0 L242.1 79.2 L242.1 79.3 L241.9 79.3 L241.8 79.3 L241.7 79.3 L241.6 79.4 L241.7 79.4 L241.8 79.6 L241.8 79.6 L241.8 79.6 L241.8 79.6 L241.8 79.7 L241.8 79.7 L241.5 79.9 L241.3 79.8 L241.2 79.8 L241.1 79.7 L240.9 79.7 L240.7 79.7 L240.7 79.8 L240.7 79.9 L240.8 80.0 L240.9 80.0 L240.9 80.1 L240.9 80.3 L240.8 80.4 L240.5 80.6 L240.2 80.6 L240.1 80.7 L239.4 80.7 L239.0 80.6 L238.6 80.7 L237.9 80.9 L237.8 80.9 L237.7 80.9 L237.6 80.8 L237.6 80.8 L237.5 80.7 L237.1 80.6 L236.7 80.5 L236.6 80.2 L236.9 79.8 L236.5 79.8 L236.3 79.8 L236.3 79.8 L236.1 79.7 L235.7 79.6 L234.9 79.7 L234.5 79.7 L234.3 79.6 L234.2 79.6 L234.0 79.6 L233.9 79.7 L233.6 79.7 L233.6 79.9 L233.8 80.1 L233.9 80.3 L233.8 80.5 L233.5 80.6 L233.3 80.7 L232.8 80.8 L232.8 81.1 L232.4 81.2 L232.2 81.5 L232.0 81.7 L231.9 81.9 L233.8 81.8 L234.1 81.7 L234.3 81.8 L234.6 82.0 L234.7 82.1 L234.6 82.3 L234.5 82.4 L234.3 82.4 L234.1 82.5 L233.9 82.7 L233.8 82.7 L233.7 82.7 L233.4 82.9 L233.3 83.3 L233.3 83.7 L232.2 84.2 L231.8 84.5 L231.5 84.9 L231.4 84.9 L230.4 85.5 L229.9 85.6 L229.9 85.9 L229.7 86.0 L229.7 86.0 L229.6 86.1 L229.2 86.2 L229.0 86.3 L228.8 86.6 L229.0 86.9 L228.6 87.2 L227.6 87.8 L225.9 88.2 L225.1 88.5 L224.8 89.1 L224.9 89.2 L225.1 89.5 L225.2 89.7 L225.1 89.9 L225.1 90.0 L225.1 90.0 L224.9 90.2 L224.7 90.7 L224.7 90.8 L224.7 90.9 L224.8 90.9 L224.9 91.0 L224.9 91.3 L224.9 91.4 L224.7 91.6 L224.5 91.7 L224.0 91.9 L223.6 92.2 L223.4 92.3 L222.2 92.7 L220.1 94.1 L219.9 94.3 L219.9 94.5 L220.3 94.8 L219.7 95.3 L219.2 95.9 L219.0 96.1 L218.9 96.2 L218.9 96.3 L219.0 96.3 L219.0 96.4 L219.0 96.4 L219.0 96.6 L219.1 96.7 L219.0 96.8 L218.8 96.9 L218.9 96.9 L219.7 97.3 L219.9 97.5 L220.1 97.7 L220.2 97.9 L219.9 98.3 L219.6 98.7 L219.6 98.8 L219.5 99.3 L219.5 99.4 L219.5 99.6 L219.4 99.7 L219.1 99.8 L219.0 99.8 L218.9 99.8 L218.7 99.7 L218.7 99.7 L218.7 99.7 L218.7 99.7 L217.7 100.1 L217.3 100.2 L217.2 100.4 L217.4 100.6 L217.7 100.9 L217.6 101.0 L217.5 101.2 L217.3 101.5 L217.7 101.4 L218.4 101.3 L219.2 101.2 L219.7 101.4 L220.2 101.2 L221.0 100.6 L222.1 100.1 L222.5 99.8 L222.4 99.4 L222.3 99.4 L222.0 99.5 L221.9 99.4 L221.8 99.3 L221.6 99.1 L221.6 99.0 L221.5 98.7 L221.4 98.6 L221.5 98.4 L221.8 98.0 L222.3 97.6 L222.8 97.3 L223.3 97.2 L223.8 97.2 L224.4 97.1 L225.7 96.4 L226.7 96.3 L227.8 96.3 L230.2 96.8 L230.5 96.8 L230.6 97.0 L230.6 97.1 L230.6 97.3 L230.5 97.6 L230.1 97.9 L230.0 98.1 L230.3 98.5 L230.9 98.9 L231.3 99.3 L230.7 100.1 L230.4 100.7 L230.3 101.2 L230.4 101.5 L231.7 101.7 L231.9 101.8 L231.9 102.0 L231.8 102.1 L231.7 102.2 L231.6 102.3 L231.6 102.3 L231.7 102.4 L231.7 102.6 L231.6 102.6 L231.6 102.7 L231.6 102.8 L231.6 102.8 L231.8 102.9 L231.9 102.9 L232.0 102.9 L232.2 102.8 L232.3 102.7 L232.7 102.9 L233.7 103.7 L233.8 103.7 L233.9 103.9 L234.1 104.3 L234.2 104.5 L234.3 104.7 L234.4 104.8 L234.1 104.9 L234.0 105.1 L233.8 105.3 L233.7 105.5 L233.5 105.7 L233.2 105.9 L232.8 106.0 L232.5 106.1 L232.1 106.1 L232.0 106.1 L232.0 106.2 L232.0 106.3 L231.9 106.4 L231.8 106.4 L231.7 106.3 L231.6 106.3 L231.5 106.2 L231.1 106.3 L230.8 106.4 L230.6 106.7 L230.5 106.9 L230.5 107.2 L230.6 107.5 L230.7 108.2 L231.1 108.5 L231.5 108.7 L231.9 108.8 L232.1 108.8 L232.5 109.1 L232.7 109.2 L233.2 109.3 L233.4 109.4 L233.5 109.6 L233.5 109.7 L233.3 110.0 L233.3 110.1 L233.3 110.3 L233.5 110.5 L233.5 110.6 L233.6 111.3 L233.7 111.5 L234.5 111.8 L235.2 112.1 L235.2 112.2 L235.3 112.3 L235.4 112.5 L235.6 112.7 L235.8 112.8 L236.5 113.0 L236.6 113.1 L236.6 113.3 L236.4 113.5 L236.1 114.0 L235.6 114.4 L235.5 114.5 L235.6 115.0 L235.8 115.3 L235.8 115.5 L235.3 115.8 L235.0 116.2 L234.9 116.3 L234.8 116.2 L234.6 116.1 L234.5 116.0 L233.9 116.1 L233.4 116.3 L233.1 116.5 L232.9 116.8 L232.6 117.0 L232.5 117.0 L232.1 117.0 L232.0 117.0 L231.9 117.2 L232.0 117.2 L232.1 117.3 L232.0 117.4 L231.5 117.6 L230.9 117.5 L230.4 117.2 L229.8 117.2 L229.7 117.2 L229.4 117.4 L229.2 117.4 L229.1 117.4 L228.8 117.4 L228.7 117.4 L228.1 117.7 L228.1 117.7 L227.8 117.8 L227.6 118.0 L227.9 118.3 L228.2 118.5 L228.2 118.6 L228.2 118.7 L228.2 118.9 L228.4 119.1 L228.6 119.2 L229.2 119.3 L229.6 119.5 L229.7 119.9 L229.7 120.8 L229.9 121.2 L230.5 121.5 L231.6 121.9 L231.9 122.0 L232.7 121.9 L232.9 121.9 L233.7 122.1 L234.0 122.4 L234.1 122.4 L234.1 122.5 L234.1 122.6 L234.1 122.6 L234.1 122.7 L234.1 122.7 L234.0 123.0 L234.0 123.0 L234.2 123.3 L234.3 123.7 L234.3 123.9 L234.8 124.5 L234.9 124.7 L234.6 124.7 L234.0 124.6 L233.7 124.6 L233.4 124.8 L233.1 125.0 L233.0 125.4 L233.1 125.7 L232.9 125.8 L232.4 126.5 L231.6 126.9 L231.4 127.2 L231.4 127.7 L231.8 128.1 L232.3 128.5 L232.7 128.7 L232.2 128.9 L232.0 129.1 L231.9 129.6 L231.9 129.7 L231.9 129.8 L231.9 129.9 L232.0 130.0 L232.3 130.3 L232.5 130.4 L232.7 130.8 L232.8 130.9 L232.9 131.0 L233.2 131.2 L233.4 131.3 L233.5 131.4 L233.5 131.6 L233.6 131.7 L233.7 131.9 L234.0 131.9 L234.1 131.9 L234.3 131.8 L234.6 131.8 L234.8 131.9 L235.7 132.2 L236.3 132.4 L238.1 133.2 L238.4 133.3 L238.8 133.3 L239.0 133.4 L239.1 133.5 L239.2 133.6 L239.3 133.7 L239.5 133.7 L240.1 133.8 L242.9 133.2 L243.4 133.2 L244.0 132.8 L244.5 132.9 L244.3 133.4 L244.5 133.7 L244.9 134.0 L245.1 134.3 L245.1 134.4 L245.1 134.7 L244.9 134.8 L244.7 135.0 L244.5 135.1 L244.4 135.3 L244.3 135.7 L244.1 135.8 L243.8 136.1 L243.0 136.6 L242.6 137.0 L241.9 137.6 L241.7 137.9 L241.8 138.3 L242.1 139.1 L241.9 139.2 L241.8 139.2 L241.7 139.2 L241.7 139.2 L241.7 139.2 L241.7 139.5 L241.7 139.5 L241.5 139.6 L241.4 139.5 L241.3 139.6 L241.2 139.7 L241.0 139.8 L240.9 139.7 L240.5 139.5 L240.2 139.6 L240.0 139.8 L239.9 140.0 L239.9 140.2 L239.7 140.3 L239.5 140.4 L239.4 140.6 L239.3 140.8 L239.1 140.8 L238.8 140.7 L238.5 140.7 L238.1 140.7 L237.9 140.8 L237.7 141.0 L237.7 141.1 L237.4 141.4 L237.3 141.4 L237.2 141.2 L236.9 141.2 L236.7 141.3 L236.5 141.3 L236.3 141.4 L236.2 141.5 L236.2 141.6 L236.0 142.1 L236.1 142.5 L236.1 142.6 L236.2 142.8 L236.2 142.9 L236.0 143.0 L235.8 142.7 L235.7 142.7 L235.4 142.7 L235.2 142.8 L235.0 143.0 L234.7 143.1 L234.6 143.2 L234.5 143.0 L234.3 143.0 L233.9 143.0 L233.6 143.0 L233.4 143.1 L233.1 143.3 L233.1 143.6 L233.2 143.6 L233.2 143.6 L233.3 143.7 L233.3 143.8 L232.8 144.2 L232.7 144.6 L232.4 144.7 L232.3 144.9 L231.9 144.9 L231.9 144.8 L231.9 144.8 L231.8 144.7 L231.7 144.8 L231.7 144.9 L231.8 145.1 L231.6 145.2 L231.4 145.1 L231.1 145.1 L230.5 145.2 L230.4 145.1 L230.1 145.0 L230.0 145.1 L229.7 145.2 L229.7 145.6 L229.5 145.9 L229.5 146.2 L229.1 146.2 L228.8 146.2 L228.7 146.4 L228.6 146.6 L228.4 146.7 L228.0 147.0 L227.6 147.2 L227.5 147.5 L227.8 147.5 L228.8 147.3 L229.1 147.4 L229.2 147.5 L229.0 147.8 L228.7 147.9 L228.6 148.2 L228.8 148.4 L228.9 148.5 L228.6 148.7 L228.2 148.9 L228.1 148.9 L227.8 149.0 L227.6 149.0 L227.5 148.9 L227.5 148.8 L227.3 148.8 L227.0 148.8 L226.6 148.9 L226.6 149.0 L226.4 149.2 L226.1 149.4 L225.7 149.3 L225.2 149.3 L224.7 149.3 L224.4 149.4 L224.0 149.6 L223.8 149.9 L223.9 150.1 L224.0 150.3 L223.5 150.3 L223.2 150.2 L223.2 150.1 L222.9 150.0 L222.5 149.9 L222.0 149.8 L221.5 149.9 L221.1 150.0 L220.8 150.1 L220.6 150.3 L220.4 150.6 L220.4 151.0 L220.7 151.1 L220.9 151.0 L220.9 151.2 L220.4 151.2 L219.5 151.3 L219.4 151.2 L219.6 151.1 L219.9 151.1 L220.1 150.9 L220.0 150.6 L219.7 150.4 L219.4 150.4 L218.7 150.5 L218.4 150.5 L218.2 150.2 L217.8 150.1 L217.3 150.1 L216.9 150.0 L217.0 149.9 L217.0 149.7 L217.0 149.6 L216.8 149.6 L216.5 149.7 L216.0 149.8 L216.3 149.9 L216.5 150.3 L216.8 150.4 L217.2 150.5 L217.0 150.6 L216.6 150.6 L216.2 150.6 L216.0 150.7 L215.7 151.1 L215.1 150.9 L214.6 150.7 L214.5 150.5 L214.8 150.4 L215.1 150.2 L214.9 150.1 L214.8 150.0 L214.5 149.9 L214.5 149.8 L214.4 149.7 L214.1 149.7 L213.8 149.7 L213.1 149.4 L213.0 149.1 L212.7 148.9 L212.4 148.8 L212.1 148.8 L211.9 148.9 L211.8 149.2 L211.4 149.1 L211.1 149.1 L210.9 148.9 L210.7 148.7 L210.6 148.5 L210.3 148.4 L210.2 148.4 L210.0 148.5 L209.3 148.4 L209.0 148.4 L208.5 148.4 L208.3 148.4 L207.9 148.4 L207.5 148.3 L207.6 148.0 L207.6 147.9 L207.7 147.7 L207.8 147.4 L207.7 147.3 L207.6 147.1 L207.6 147.0 L207.4 146.4 L206.6 146.1 L205.7 146.5 L204.5 146.5 L203.9 146.6 L203.0 146.5 L202.5 146.4 L202.1 146.0 L202.0 145.7 L202.3 145.2 L202.8 145.0 L204.3 145.0 L204.7 144.9 L205.0 144.7 L205.4 144.4 L205.6 144.1 L205.5 143.7 L205.0 143.9 L204.6 144.0 L204.2 144.0 L203.8 143.7 L203.7 143.4 L203.7 143.3 L203.6 143.2 L203.3 143.1 L203.2 143.1 L202.8 143.1 L202.7 143.1 L202.5 142.9 L202.4 142.8 L202.3 142.9 L202.2 143.1 L202.1 143.4 L202.1 143.5 L202.2 143.8 L202.3 143.9 L202.5 144.0 L202.7 144.1 L202.9 144.5 L202.7 144.9 L202.4 145.1 L201.9 145.1 L201.7 145.1 L200.8 144.7 L200.4 144.9 L200.2 145.0 L199.8 145.0 L199.7 145.1 L199.5 145.3 L199.6 145.4 L199.8 145.7 L199.8 145.9 L200.3 145.9 L200.0 146.1 L199.6 146.3 L199.5 146.0 L199.2 145.6 L198.6 145.4 L198.0 145.0 L197.8 144.6 L197.8 143.6 L197.8 143.4 L197.7 143.1 L197.5 142.8 L197.3 142.6 L197.0 142.5 L197.0 142.6 L197.5 143.1 L197.6 143.3 L197.6 144.5 L197.8 145.0 L198.2 145.3 L198.7 145.6 L199.1 145.9 L199.0 146.2 L198.6 146.2 L196.6 146.2 L195.4 146.0 L195.0 145.8 L195.0 145.6 L195.3 145.3 L195.3 145.1 L195.2 144.9 L194.8 144.7 L194.1 144.5 L192.4 144.6 L189.2 144.4 L188.8 144.3 L188.5 144.2 L188.0 144.0 L187.8 143.6 L188.0 143.2 L188.0 143.2 L187.6 142.9 L186.6 142.9 L185.7 142.9 L185.1 143.1 L184.9 143.2 L181.7 145.2 L179.8 145.8 L179.3 146.1 L178.1 147.3 L177.7 147.4 L177.1 147.1 L176.7 147.2 L176.0 147.2 L174.9 147.6 L173.8 148.3 L173.5 148.5 L173.4 148.6 L173.2 148.8 L173.0 148.9 L172.7 149.1 L172.5 149.3 L172.3 149.6 L172.0 149.8 L171.7 150.1 L171.5 150.4 L171.4 150.6 L171.2 150.9 L171.0 151.3 L170.8 151.6 L170.7 151.9 L170.6 152.4 L170.5 152.7 L170.5 152.9 L170.7 152.9 L170.7 153.3 L170.6 154.2 L170.5 155.1 L170.5 155.8 L170.5 156.2 L170.4 156.9 L170.5 157.7 L170.6 158.4 L170.7 158.9 L170.9 159.1 L171.2 159.2 L171.7 159.3 L172.0 159.4 L172.2 159.6 L172.2 159.7 L172.1 159.9 L172.2 160.1 L172.4 160.2 L172.7 160.5 L172.7 160.8 L172.7 160.9 L172.0 161.0 L171.6 161.0 L171.2 161.0 L170.9 160.9 L170.7 160.8 L170.5 160.7 L170.4 160.5 L170.3 160.4 L170.2 160.3 L169.7 160.3 L169.6 160.3 L169.3 160.4 L168.8 160.3 L168.2 160.6 L168.0 160.6 L167.7 160.6 L167.4 160.6 L167.2 160.7 L166.7 161.1 L166.4 161.2 L166.1 161.3 L165.5 161.2 L165.1 161.2 L164.9 161.3 L164.2 161.7 L164.1 161.8 L164.2 162.1 L164.4 162.3 L164.4 162.4 L164.0 162.4 L163.6 162.4 L162.9 162.2 L162.6 162.2 L162.5 162.3 L162.3 162.5 L162.2 162.6 L162.0 162.6 L161.9 162.6 L161.5 162.4 L161.2 162.4 L160.9 162.2 L160.7 161.9 L160.6 161.7 L160.3 161.7 L159.8 161.6 L158.9 161.3 L158.7 161.1 L158.2 160.9 L157.7 161.0 L156.7 161.2 L156.0 161.1 L155.7 161.2 L155.7 161.3 L155.5 161.6 L155.5 161.6 L155.1 161.9 L154.8 162.1 L154.6 162.2 L154.4 162.2 L153.9 162.3 L153.7 162.2 L153.5 162.1 L153.2 161.9 L153.0 161.7 L152.8 161.1 L152.6 160.8 L152.4 160.7 L152.1 160.7 L151.7 160.7 L150.8 160.2 L150.5 160.1 L149.5 160.0 L149.2 159.9 L149.2 159.9 L149.2 159.8 L149.1 159.8 L149.1 159.8 L149.1 159.4 L149.3 159.0 L149.6 158.8 L150.0 158.8 L150.0 158.7 L149.8 158.6 L149.4 158.5 L149.2 158.4 L149.3 158.0 L147.5 157.9 L147.3 157.8 L146.5 157.4 L146.2 157.4 L145.7 157.6 L145.2 157.5 L145.0 158.2 L144.6 158.3 L144.4 158.0 L144.1 157.5 L143.8 157.2 L143.5 156.8 L143.4 156.8 L143.2 156.7 L143.2 156.7 L143.2 156.5 L142.9 156.4 L140.9 156.4 L140.3 156.5 L140.2 156.5 L139.9 156.3 L139.7 156.1 L139.6 155.9 L139.5 155.6 L139.2 155.4 L138.8 155.4 L137.5 155.3 L137.3 155.2 L137.1 155.1 L136.9 155.0 L136.8 155.1 L136.6 155.2 L136.5 155.2 L136.3 155.2 L136.0 155.0 L135.9 154.9 L135.4 154.8 L134.7 154.5 L134.5 154.4 L134.1 154.5 L133.9 154.4 L133.3 154.3 L133.0 154.2 L132.6 154.3 L132.2 154.4 L132.1 154.6 L132.2 154.9 L132.0 155.4 L132.1 155.6 L132.0 155.6 L132.0 155.7 L131.9 155.9 L132.1 155.9 L132.3 156.1 L132.4 156.4 L132.4 156.6 L132.3 156.7 L132.2 156.8 L132.0 156.8 L131.5 156.8 L129.4 156.8 L129.2 156.7 L128.6 156.9 L128.3 156.9 L127.9 156.8 L127.9 156.8 L127.8 156.7 L127.9 156.6 L127.8 156.6 L127.4 156.3 L127.1 156.4 L126.8 156.6 L126.3 157.1 L126.1 157.1 L125.9 156.9 L125.5 156.4 L125.3 156.3 L124.4 156.2 L124.1 156.2 L123.8 156.3 L122.9 156.5 L121.6 156.8 L121.1 156.8 L120.4 156.6 L120.3 156.6 L120.3 156.5 L120.2 156.4 L120.0 156.4 L119.8 156.3 L119.7 156.2 L119.7 156.1 L119.6 156.0 L119.4 155.9 L119.2 155.6 L119.1 155.3 L119.1 155.1 L118.8 155.2 L118.3 155.2 L117.9 155.2 L117.7 154.9 L116.8 154.5 L116.8 154.5 L116.5 154.3 L116.4 154.5 L116.3 154.6 L116.2 154.6 L116.0 154.5 L115.3 155.0 L114.9 155.1 L114.4 155.2 L113.5 154.9 L113.1 154.9 L113.1 155.2 L113.0 155.3 L112.7 155.4 L112.6 155.4 L112.4 155.4 L112.4 155.3 L112.4 155.2 L112.3 155.1 L112.3 155.0 L112.0 155.0 L111.9 155.0 L111.9 154.9 L111.9 154.9 L111.9 154.8 L111.3 154.2 L111.0 154.0 L110.5 153.8 L110.3 153.7 L110.1 153.8 L110.0 153.7 L109.8 153.6 L109.7 153.5 L109.7 153.4 L109.8 153.3 L109.8 153.2 L109.7 153.1 L109.5 152.6 L109.1 152.5 L107.8 152.7 L106.6 152.6 L105.9 152.5 L105.4 152.2 L105.2 152.0 L104.9 151.9 L104.4 151.9 L104.2 151.8 L104.0 151.7 L103.8 151.6 L103.2 151.7 L102.7 151.4 L102.2 151.1 L101.2 151.0 L100.9 150.9 L100.7 150.7 L100.6 150.4 L100.7 150.2 L101.1 150.0 L100.7 150.0 L100.3 150.1 L100.1 150.3 L99.9 150.6 L99.9 151.0 L99.8 151.2 L99.5 151.3 L99.1 151.3 L98.7 151.2 L98.3 151.1 L98.0 150.8 L97.8 150.5 L97.9 150.3 L98.6 149.8 L98.8 149.6 L99.1 149.1 L99.2 148.5 L99.2 147.9 L98.7 147.5 L98.5 147.5 L98.3 147.6 L98.2 147.6 L97.5 147.3 L97.0 147.2 L96.7 147.2 L96.4 147.3 L96.3 147.6 L96.2 147.7 L96.0 147.8 L95.8 147.8 L95.7 147.8 L95.5 147.7 L95.4 147.7 L95.3 147.4 L95.2 147.3 L95.3 147.2 L95.3 147.1 L95.1 147.0 L94.8 146.9 L94.7 146.9 L94.4 147.0 L94.0 147.0 L93.8 147.1 L93.7 147.1 L93.6 147.0 L93.6 147.0 L93.5 146.7 L93.3 146.5 L92.9 146.3 L92.9 146.1 L92.9 145.8 L92.9 145.6 L92.9 145.6 L93.0 145.6 L93.2 145.7 L93.3 145.6 L93.6 145.5 L95.0 145.4 L95.4 145.0 L95.8 144.8 L96.1 144.7 L96.2 144.5 L96.6 144.0 L96.6 143.9 L96.8 143.7 L97.4 143.1 L97.5 143.0 L98.0 142.5 L98.1 142.0 L98.5 141.1 L99.1 138.4 L99.5 137.5 L100.1 135.4 L101.1 130.9 L101.6 128.6 L101.7 127.6 L101.6 127.4 L101.5 126.9 L101.5 126.8 L101.9 126.4 L102.0 126.3 L102.0 126.1 L102.3 125.3 L102.7 125.1 L103.1 125.0 L104.0 125.2 L104.6 125.2 L104.9 125.0 L104.9 124.7 L104.5 124.4 L104.8 124.4 L104.6 124.2 L103.4 123.4 L103.2 123.4 L103.1 123.3 L103.1 123.3 L103.0 123.2 L102.9 123.2 L102.8 123.3 L102.8 123.4 L102.8 123.4 L102.7 123.5 L102.6 123.6 L101.9 124.4 L101.7 125.1 L101.6 125.5 L101.5 125.7 L102.4 117.7 L103.1 115.2 L103.4 111.8 L103.5 111.6 L104.0 110.8 L104.3 110.6 L104.5 110.5 L104.7 110.5 L104.7 110.6 L104.7 110.7 L104.7 110.9 L104.7 111.0 L104.6 111.1 L104.6 111.1 L104.7 111.2 L104.9 111.4 L105.0 111.5 L106.1 112.1 L106.8 112.4 L107.0 112.5 L108.9 114.0 L109.4 114.5 L109.6 114.9 L109.6 115.3 L109.8 115.9 L110.1 117.3 L110.2 117.5 L110.7 118.5 L111.3 119.0 L111.9 119.4 L112.4 119.6 L112.6 119.7 L112.7 119.9 L112.7 120.1 L112.7 120.3 L112.7 120.7 L112.8 121.0 L112.9 121.3 L113.1 121.4 L113.0 121.1 L113.0 120.7 L112.9 120.5 L113.0 120.1 L112.9 119.7 L112.5 119.5 L112.1 119.3 L112.6 119.3 L113.0 119.4 L113.4 119.5 L113.8 119.7 L113.4 119.2 L112.7 119.0 L112.0 118.8 L111.5 118.5 L111.2 118.1 L111.0 117.6 L110.4 114.5 L110.1 113.9 L109.6 112.9 L109.3 112.4 L108.9 112.0 L108.2 111.4 L105.9 110.3 L105.9 110.2 L105.8 109.9 L105.7 109.8 L105.2 109.7 L104.3 109.1 L103.8 109.0 L103.5 108.9 L103.2 108.8 L103.0 108.6 L102.8 108.4 L102.5 108.3 L102.0 108.4 L101.7 108.3 L102.0 107.2 L101.9 107.0 L103.0 106.7 L103.3 106.7 L104.4 107.6 L104.5 107.7 L104.7 107.8 L105.9 108.2 L105.5 107.9 L104.0 107.1 L103.6 106.7 L103.5 106.6 L103.5 106.4 L103.5 106.2 L103.3 105.9 L103.2 105.8 L103.4 105.7 L103.5 105.6 L103.6 105.5 L103.7 105.4 L103.8 105.3 L104.1 105.2 L104.2 105.2 L104.4 105.2 L104.5 105.2 L104.5 105.0 L104.5 104.8 L104.4 104.7 L104.3 104.5 L104.2 104.4 L104.3 104.4 L104.5 104.3 L104.5 104.2 L104.3 104.1 L104.1 103.9 L103.9 103.3 L104.2 103.5 L104.5 103.5 L104.7 103.4 L104.9 103.1 L104.9 103.0 L104.8 102.9 L104.7 102.9 L104.6 102.8 L104.3 102.7 L104.2 102.6 L104.2 102.4 L104.1 102.2 L104.1 102.1 L104.1 102.0 L104.0 102.0 L103.8 101.9 L103.8 101.9 L103.7 101.8 L103.6 101.8 L103.6 101.7 L103.8 101.6 L103.4 101.4 L103.3 101.4 L103.2 101.3 L103.2 101.3 L103.2 101.2 L103.2 101.1 L103.1 101.1 L102.9 101.1 L102.7 101.1 L102.6 101.1 L102.4 101.1 L102.3 101.0 L102.3 100.8 L102.4 100.7 L102.5 100.5 L102.7 100.5 L102.6 100.2 L102.8 100.0 L103.9 99.5 L104.0 99.3 L104.0 99.1 L103.9 99.0 L103.9 98.8 L103.5 98.4 L102.8 98.4 L102.2 98.7 L102.2 99.2 L101.8 99.1 L101.5 98.8 L101.2 98.5 L100.9 98.5 L100.8 98.4 L100.3 98.2 L99.9 98.0 L99.7 98.0 L98.9 98.1 L98.4 98.1 L98.3 97.8 L98.2 97.4 L97.9 97.1 L97.5 96.9 L97.1 96.8 L96.0 96.8 L95.6 96.7 L95.7 96.5 L95.5 96.3 L94.6 96.2 L94.1 95.9 L93.6 95.8 L93.4 95.7 L93.3 95.6 L93.1 95.3 L93.0 95.1 L93.0 95.3 L93.1 95.5 L93.1 95.7 L93.0 95.8 L92.9 95.7 L92.7 95.6 L92.4 94.4 L92.4 94.1 L92.2 94.0 L92.1 93.8 L92.0 93.6 L91.9 93.4 L91.6 93.2 L91.4 93.1 L91.2 92.9 L91.0 92.5 L90.8 92.4 L90.6 92.4 L90.3 92.3 L90.2 92.2 L89.7 91.6 L88.8 90.9 L88.3 90.7 L87.9 90.6 L87.7 90.5 L87.6 90.2 L87.5 89.9 L87.5 89.6 L87.5 89.3 L87.6 89.1 L88.1 88.9 L88.0 88.7 L88.2 88.5 L88.8 88.3 L89.0 88.0 L89.3 87.5 L89.5 87.2 L89.7 87.0 L89.7 86.8 L89.5 86.5 L89.4 86.3 L89.1 86.1 L88.2 85.7 L86.3 85.5 L85.7 85.3 L85.9 85.2 L86.1 85.1 L86.3 85.0 L86.8 85.0 L86.9 84.9 L87.0 84.8 L87.0 84.5 L87.1 84.3 L86.9 84.1 L86.8 83.8 L86.9 83.6 L86.9 83.4 L87.0 83.2 L87.2 83.1 L87.5 83.0 L89.0 82.9 L89.1 82.8 L89.2 82.8 L89.4 82.8 L89.5 82.9 L89.6 83.0 L90.4 83.1 L90.7 83.1 L90.6 83.0 L90.8 83.0 L90.9 83.0 L91.1 83.1 L91.2 83.2 L90.9 83.2 L90.9 83.3 L91.6 83.7 L92.2 83.7 L92.4 83.8 L92.7 84.1 L93.1 84.2 L94.0 84.2 L93.7 84.1 L93.0 84.0 L92.7 83.8 L92.2 83.4 L91.7 83.1 L91.1 82.9 L90.8 82.8 L90.4 82.8 L90.3 82.7 L90.0 82.6 L89.4 82.5 L87.2 82.6 L86.7 82.8 L86.6 82.9 L86.5 83.0 L86.5 83.1 L86.3 83.2 L85.8 83.3 L85.4 83.6 L85.1 83.6 L84.8 83.6 L84.5 83.6 L84.3 83.4 L83.9 83.1 L83.6 83.0 L83.4 83.0 L83.2 83.0 L83.1 83.0 L83.0 83.1 L82.9 83.2 L82.9 83.3 L82.9 83.3 L82.4 83.3 L80.9 82.8 L80.9 82.7 L81.3 82.7 L82.0 82.9 L82.3 82.9 L82.6 82.7 L82.5 82.5 L82.1 82.2 L81.9 82.0 L81.8 82.0 L81.7 82.1 L81.7 82.1 L81.7 82.2 L81.8 82.3 L81.7 82.4 L81.5 82.4 L81.5 82.0 L81.3 81.7 L80.7 81.4 L81.9 80.9 L82.1 80.9 L82.3 81.0 L82.6 81.0 L82.5 81.1 L82.5 81.1 L82.4 81.1 L82.6 81.2 L82.7 81.1 L83.3 80.9 L83.3 80.8 L83.1 80.8 L82.7 80.8 L82.4 80.7 L82.6 80.5 L82.3 80.3 L82.0 80.3 L81.8 80.2 L81.9 79.9 L81.7 79.7 L81.8 79.6 L82.8 79.6 L83.4 79.5 L83.8 79.5 L83.5 79.4 L83.1 79.5 L82.8 79.5 L81.5 79.1 L81.3 79.1 L81.1 79.1 L80.6 79.2 L80.0 79.2 L79.8 79.3 L79.7 79.3 L79.6 79.4 L79.5 79.2 L79.7 79.2 L80.0 79.1 L80.2 78.9 L80.3 78.7 L80.1 78.9 L79.9 78.9 L79.6 78.9 L79.4 78.9 L79.5 78.9 L79.6 79.0 L79.6 79.0 L79.7 79.1 L79.3 79.1 L79.1 79.1 L78.9 79.0 L78.9 79.4 L78.7 79.5 L78.1 79.4 L77.9 79.4 L77.0 79.6 L76.7 79.6 L76.5 79.6 L76.3 79.5 L76.1 79.4 L76.0 79.3 L75.8 79.0 L75.7 79.0 L75.7 78.9 L75.5 78.8 L75.3 78.8 L75.3 78.8 L75.3 78.8 L75.3 78.7 L75.0 78.6 L75.3 78.5 L75.7 78.5 L75.9 78.8 L76.1 78.8 L76.1 78.7 L76.2 78.7 L76.4 78.7 L76.5 78.8 L76.5 78.7 L76.6 78.5 L76.9 78.7 L77.3 78.8 L77.7 78.7 L78.0 78.6 L77.9 78.5 L78.5 77.9 L78.6 77.6 L78.3 77.3 L78.3 77.4 L78.4 77.5 L78.4 77.6 L78.3 77.7 L78.1 77.7 L78.4 77.8 L78.3 77.9 L78.2 77.9 L78.0 77.9 L78.0 77.8 L77.2 77.5 L77.5 77.5 L77.8 77.6 L77.6 77.4 L77.4 77.3 L76.9 77.3 L77.2 77.4 L76.8 77.5 L76.0 77.5 L75.8 77.7 L75.7 77.8 L75.4 77.9 L74.8 78.0 L74.8 77.9 L75.0 77.9 L75.0 77.8 L74.7 77.8 L74.7 77.9 L74.6 77.9 L74.5 77.9 L74.5 77.7 L74.4 77.6 L74.5 77.5 L74.6 77.4 L74.4 77.4 L74.2 77.3 L74.1 77.1 L74.1 76.9 L74.0 76.9 L74.0 77.1 L74.1 77.3 L74.1 77.4 L74.1 77.8 L74.1 77.9 L74.3 78.1 L74.5 78.3 L74.6 78.4 L74.6 78.5 L74.6 78.5 L74.5 78.6 L74.5 78.5 L74.3 78.4 L74.2 78.4 L74.0 78.3 L73.9 78.2 L73.6 78.0 L73.7 78.2 L73.6 78.3 L73.5 78.3 L73.4 78.1 L73.4 77.8 L73.3 77.9 L73.2 78.1 L73.3 78.3 L73.1 78.3 L73.0 78.2 L72.9 78.2 L72.4 78.3 L72.1 78.4 L71.9 78.3 L72.0 78.2 L72.1 78.2 L71.9 78.1 L71.8 78.0 L71.6 78.0 L71.4 78.2 L71.5 78.2 L71.6 78.2 L71.7 78.3 L71.5 78.8 L71.6 79.3 L71.8 79.6 L72.2 79.9 L72.0 79.9 L71.6 79.8 L71.5 79.9 L71.4 79.9 L71.2 79.5 L71.2 79.3 L71.3 79.1 L71.4 78.9 L71.4 78.6 L71.4 78.3 L71.3 78.0 L71.1 77.8 L70.9 77.6 L70.7 77.5 L70.5 77.5 L70.4 77.4 L70.3 77.3 L70.4 77.1 L70.6 76.7 L71.8 76.3 L71.7 76.2 L71.7 76.1 L71.7 76.0 L71.7 75.8 L71.6 75.9 L71.4 75.9 L71.3 76.0 L71.3 75.6 L71.3 75.5 L71.2 75.5 L71.1 75.7 L70.9 75.7 L70.7 75.6 L70.5 75.6 L70.7 75.7 L70.8 75.8 L70.9 76.0 L71.0 76.2 L70.9 76.2 L70.9 76.2 L70.9 76.2 L70.9 76.3 L70.7 76.2 L70.6 76.3 L70.5 76.4 L70.2 76.4 L70.3 76.4 L70.5 76.6 L70.2 76.7 L70.2 76.8 L70.1 77.0 L70.0 77.1 L69.8 77.0 L69.3 76.6 L68.9 76.5 L68.2 76.4 L67.8 76.4 L68.1 76.3 L68.4 76.3 L69.0 76.5 L69.0 76.4 L68.8 76.3 L68.5 76.2 L67.8 76.2 L67.8 76.1 L67.9 76.1 L68.0 76.0 L68.0 75.9 L68.0 75.8 L68.1 75.7 L68.4 75.8 L68.5 75.7 L68.7 75.4 L68.8 75.2 L69.0 75.1 L69.0 75.0 L68.7 75.2 L68.2 75.5 L67.7 75.7 L67.4 75.8 L67.5 75.8 L67.6 75.9 L67.7 76.0 L67.7 76.1 L66.4 76.3 L66.2 76.2 L66.1 76.1 L65.6 75.7 L65.4 75.4 L65.2 75.3 L65.1 75.2 L65.1 75.1 L64.9 75.2 L64.6 75.2 L64.1 75.1 L63.7 75.1 L63.5 75.1 L63.4 75.0 L63.2 74.9 L63.1 74.9 L62.5 74.9 L62.2 74.8 L62.1 74.6 L61.9 74.5 L61.1 74.9 L60.9 74.7 L60.5 74.7 L60.2 74.8 L59.9 74.7 L59.9 74.7 L59.6 74.3 L59.4 74.2 L59.3 74.2 L59.3 74.1 L59.3 73.9 L59.2 73.9 L59.1 73.8 L58.9 73.8 L58.8 73.6 L58.5 73.3 L58.1 73.1 L57.7 73.1 L57.8 73.4 L57.7 73.7 L57.4 73.9 L57.0 73.9 L57.2 73.9 L57.3 73.9 L57.4 73.8 L57.5 73.6 L57.3 73.7 L57.1 73.7 L57.0 73.7 L56.9 73.9 L56.5 73.6 L56.2 73.6 L56.0 73.5 L55.8 73.5 L55.6 73.3 L55.4 73.0 L55.4 72.8 L55.2 73.0 L55.3 73.2 L55.5 73.4 L55.7 73.5 L55.7 73.6 L55.5 73.7 L55.4 73.7 L55.2 73.8 L55.1 73.9 L54.8 73.5 L54.5 73.6 L54.5 73.8 L54.7 73.9 L54.7 73.9 L54.6 74.0 L54.6 74.1 L55.1 74.1 L55.1 74.2 L54.5 74.5 L54.3 74.6 L53.9 74.7 L51.5 74.6 L51.5 74.5 L51.5 74.3 L51.5 74.2 L51.6 74.2 L51.8 74.2 L51.9 74.1 L52.0 74.0 L51.9 73.7 L51.7 73.3 L51.5 72.9 L51.3 72.6 L50.5 71.9 L49.1 71.2 L48.9 71.1 L48.7 71.2 L48.5 71.4 L48.3 71.4 L47.8 71.1 L47.6 71.1 L47.0 71.1 L45.8 70.9 L45.9 70.8 L46.0 70.7 L46.1 70.6 L46.2 70.5 L46.2 70.5 L46.2 70.4 L46.3 70.3 L46.3 70.3 L46.4 70.4 L46.5 70.5 L51.7 69.7 L52.6 69.9 L52.9 69.8 L52.9 69.7 L53.1 69.2 L53.0 69.1 L52.8 68.9 L52.7 68.8 L52.7 68.4 L52.4 68.2 L51.8 68.1 L51.6 68.1 L51.5 68.0 L51.5 67.9 L51.4 67.8 L51.0 67.9 L50.2 67.5 L49.7 67.7 L49.5 67.9 L49.3 68.3 L49.0 68.6 L48.6 68.7 L48.7 68.4 L48.8 68.3 L48.6 68.1 L48.5 67.9 L48.5 67.8 L48.5 67.6 L48.7 67.6 L48.7 67.5 L48.6 67.3 L48.4 67.3 L47.5 67.3 L47.5 67.1 L47.5 66.9 L47.6 66.9 L47.8 66.9 L47.9 66.9 L48.1 66.9 L48.3 66.9 L48.3 66.8 L48.3 66.7 L48.2 66.6 L48.5 66.1 L48.7 66.0 L49.0 66.1 L48.8 66.7 L49.2 66.8 L50.7 66.7 L50.8 66.8 L50.9 66.9 L51.1 66.9 L51.3 66.9 L51.5 66.9 L52.2 66.8 L53.3 66.7 L53.2 66.8 L53.1 66.8 L52.9 66.8 L53.2 66.9 L54.5 66.7 L54.5 66.6 L54.0 66.6 L53.8 66.6 L53.7 66.4 L53.6 66.5 L53.4 66.5 L53.2 66.5 L53.1 66.3 L53.0 66.4 L52.3 66.4 L52.4 66.2 L52.5 66.2 L52.6 66.2 L52.6 66.1 L52.7 66.0 L52.9 66.0 L53.2 65.7 L52.9 65.7 L52.5 65.9 L52.3 66.0 L52.3 65.8 L52.4 65.8 L52.4 65.7 L52.3 65.7 L52.2 65.8 L52.1 65.9 L52.1 66.0 L51.8 65.9 L51.3 66.1 L51.0 66.2 L51.0 66.1 L51.0 66.1 L51.1 66.1 L51.0 66.0 L50.8 66.0 L50.7 66.1 L50.4 66.1 L50.2 66.2 L50.2 66.1 L51.1 65.3 L51.3 65.2 L52.9 64.6 L52.6 64.7 L52.1 64.9 L51.7 64.9 L50.7 65.1 L50.2 65.2 L49.2 65.6 L48.4 65.8 L47.9 65.9 L47.6 66.0 L47.3 65.9 L46.7 65.8 L46.4 65.7 L46.4 65.8 L46.4 65.9 L46.3 66.0 L46.2 66.1 L45.4 66.1 L45.2 66.0 L45.0 65.8 L44.9 65.5 L45.2 65.5 L45.2 65.3 L44.9 64.8 L44.9 64.5 L45.0 64.2 L45.2 64.0 L45.5 64.0 L45.5 63.9 L45.1 63.7 L45.2 63.2 L45.6 62.7 L45.9 62.4 L46.1 62.5 L46.3 62.5 L46.1 62.4 L46.4 62.3 L46.7 62.2 L47.2 62.2 L47.5 62.3 L48.0 62.5 L48.2 62.4 L47.9 62.1 L47.8 61.9 L48.0 61.8 L48.7 61.9 L49.0 61.9 L48.6 61.8 L48.6 61.7 L48.6 61.7 L48.6 61.6 L48.5 61.5 L48.5 61.4 L49.7 61.4 L50.1 61.4 L50.6 61.2 L51.0 61.2 L50.8 61.1 L50.7 61.1 L50.7 61.0 L51.1 60.9 L51.6 60.8 L52.0 60.7 L52.4 60.7 L52.7 60.9 L52.6 61.3 L53.0 61.2 L53.5 61.0 L53.6 61.0 L53.8 61.0 L54.2 61.1 L54.4 61.1 L54.4 61.0 L54.1 60.9 L54.2 60.8 L54.4 60.6 L54.7 60.5 L55.0 60.4 L55.4 60.3 L55.8 60.3 L56.0 60.5 L56.1 60.4 L56.2 60.4 L56.3 60.4 L56.4 60.6 L56.5 60.6 L56.6 60.5 L56.6 60.4 L56.7 60.3 L56.6 60.1 L56.8 60.1 L57.0 60.0 L57.4 59.9 L57.9 59.8 L58.0 59.8 L58.0 60.0 L57.9 60.1 L57.9 60.2 L58.1 60.2 L58.1 60.3 L58.0 60.3 L58.0 60.5 L58.2 60.5 L58.3 60.6 L58.3 60.8 L58.2 61.0 L58.7 60.7 L58.9 60.6 L59.2 60.7 L59.1 60.8 L59.0 60.8 L59.0 60.9 L59.2 61.1 L59.7 61.3 L59.9 61.4 L60.0 61.3 L59.9 61.2 L60.0 61.1 L59.9 61.0 L59.9 60.9 L59.8 60.6 L59.9 60.6 L59.9 60.6 L60.0 60.7 L60.1 60.8 L60.1 60.5 L60.1 60.2 L60.2 60.0 L60.4 60.1 L60.5 60.0 L60.5 60.0 L60.6 59.9 L60.6 59.8 L60.8 60.0 L61.1 60.0 L61.8 60.0 L62.0 60.1 L62.4 60.3 L62.5 60.3 L62.7 60.3 L63.3 60.2 L63.3 60.5 L63.7 60.6 L64.2 60.6 L64.4 60.5 L64.2 60.1 L64.2 59.9 L64.2 59.8 L65.1 59.7 L64.8 59.6 L64.3 59.1 L64.2 58.9 L64.4 58.7 L64.8 58.6 L65.2 58.2 L65.3 58.0 L65.4 58.0 L65.5 58.1 L66.0 58.1 L66.6 58.4 L66.8 58.4 L66.7 58.4 L66.7 58.5 L66.7 58.5 L66.6 58.6 L67.0 58.6 L67.2 58.6 L67.3 58.5 L67.5 58.4 L67.6 58.3 L68.9 58.0 L69.1 57.9 L69.2 57.9 L69.4 57.9 L69.9 57.5 L70.1 57.6 L70.2 57.8 L70.2 58.1 L70.1 58.4 L69.9 58.6 L69.9 58.7 L69.9 58.7 L70.0 58.8 L70.1 58.6 L70.2 58.4 L70.7 58.0 L71.1 57.8 L71.2 57.7 L71.4 57.8 L71.7 57.5 L71.9 57.5 L72.1 57.6 L72.2 57.7 L72.2 57.9 L72.1 58.0 L72.1 58.1 L72.3 58.3 L72.2 58.4 L72.0 58.8 L71.9 58.9 L71.5 59.2 L71.5 59.4 L71.7 59.4 L72.2 58.6 L72.5 58.3 L72.8 58.4 L72.9 58.3 L73.1 58.2 L73.3 58.3 L73.4 58.4 L73.3 58.5 L73.4 58.5 L73.4 58.5 L73.4 58.5 L73.4 58.6 L73.3 58.6 L73.1 58.7 L72.9 58.8 L72.9 58.9 L73.1 59.0 L73.5 59.1 L74.3 59.2 L74.6 59.2 L74.6 59.4 L74.6 59.5 L74.6 59.6 L74.5 59.7 L74.4 59.7 L74.4 59.8 L74.6 59.9 L74.9 60.0 L75.2 60.2 L75.3 60.4 L76.3 61.0 L76.5 61.5 L76.6 61.6 L76.6 61.7 L76.5 61.8 L76.5 61.8 L76.6 61.9 L76.6 62.0 L76.8 62.1 L77.2 62.3 L78.1 62.5 L78.1 62.7 L78.0 62.8 L77.9 62.9 L77.8 63.0 L78.0 63.0 L78.2 63.0 L78.3 63.1 L78.4 63.3 L78.6 63.4 L78.7 63.2 L78.7 63.0 L78.7 62.9 L79.4 62.9 L79.6 62.8 L80.0 62.6 L80.3 62.2 L80.5 62.1 L80.6 62.0 L80.9 61.9 L82.0 61.5 L82.2 61.3 L82.2 61.2 L82.1 61.2 L81.8 61.1 L82.5 61.0 L82.8 61.0 L83.0 61.2 L83.4 61.1 L83.9 60.9 L84.3 60.6 L84.5 60.3 L84.6 60.5 L84.7 60.6 L84.9 60.7 L85.1 60.7 L85.1 60.8 L85.0 60.8 L84.9 60.9 L84.8 61.0 L84.7 61.1 L84.3 61.4 L84.6 61.6 L84.9 61.5 L85.2 61.2 L85.6 61.1 L85.6 61.2 L85.7 61.6 L85.8 61.7 L86.0 61.7 L86.1 61.9 L86.1 62.0 L86.2 62.2 L86.3 62.1 L86.5 62.0 L86.5 61.9 L86.5 61.7 L86.6 61.9 L86.7 62.1 L86.8 62.2 L87.0 62.1 L87.0 62.0 L87.0 62.0 L86.8 61.9 L87.0 61.7 L87.2 61.6 L87.4 61.6 L87.6 61.8 L87.5 61.7 L87.4 61.6 L87.3 61.3 L88.0 61.2 L88.8 61.1 L88.8 61.2 L89.1 61.6 L89.2 61.8 L89.2 61.9 L89.4 62.1 L89.6 62.1 L89.5 62.3 L89.5 62.3 L89.9 62.7 L90.0 62.9 L89.9 63.3 L90.1 63.2 L90.6 63.0 L90.1 62.8 L90.2 62.6 L90.0 62.4 L89.9 62.1 L90.0 62.1 L90.1 62.2 L90.2 62.2 L90.4 62.3 L90.2 62.1 L90.1 62.0 L89.9 62.0 L89.7 62.0 L89.6 61.9 L89.3 61.4 L89.1 61.2 L89.2 61.1 L89.3 60.9 L89.5 60.8 L89.7 60.8 L89.8 60.7 L89.8 60.6 L89.8 60.5 L90.0 60.5 L90.6 60.5 L90.5 60.3 L92.1 60.1 L92.1 60.2 L92.1 60.3 L92.1 60.3 L92.2 60.5 L91.8 60.9 L91.8 61.3 L92.2 61.5 L92.9 61.7 L94.0 61.7 L95.3 61.5 L96.1 61.3 L96.2 61.2 L96.3 61.2 L97.6 61.3 L99.3 61.1 L99.9 61.2 L99.7 60.9 L99.3 60.8 L98.7 60.8 L98.7 60.8 L98.6 60.9 L98.5 60.9 L98.5 60.8 L98.5 60.7 L98.4 60.6 L98.3 60.6 L97.8 60.5 L97.6 60.4 L97.5 60.3 L97.4 59.9 L96.8 59.6 L96.6 59.2 L96.6 58.7 L96.5 58.4 L96.4 58.1 L96.0 58.0 L96.0 57.9 L96.2 57.8 L96.4 57.7 L96.5 57.5 L96.6 56.7 L96.7 56.6 L96.8 56.7 L96.9 56.5 L96.9 56.4 L96.9 56.3 L96.7 56.3 L96.6 56.2 L96.8 55.3 L96.9 55.0 L97.1 54.9 L97.5 55.1 L97.5 55.0 L97.2 54.9 L96.8 54.9 L96.5 55.0 L96.4 55.2 L96.3 55.3 L96.2 55.2 L96.1 55.0 L96.1 54.9 L96.1 54.5 L96.1 54.3 L96.2 54.2 L96.0 54.2 L95.9 54.0 L95.9 53.8 L96.0 53.6 L96.1 53.4 L96.2 53.3 L96.5 53.2 L96.3 53.1 L96.3 53.1 L96.2 53.2 L96.1 52.9 L95.9 52.6 L95.9 52.3 L95.8 52.0 L96.0 51.9 L96.3 51.9 L96.8 52.0 L96.8 51.9 L96.5 51.8 L96.1 51.7 L95.7 51.7 L95.6 52.0 L95.4 51.8 L95.1 51.2 L94.9 51.0 L95.0 50.9 L95.0 50.9 L95.1 50.9 L94.6 50.6 L94.4 50.5 L94.3 50.2 L94.6 50.2 L94.6 50.1 L94.4 49.8 L94.3 49.8 L94.2 50.1 L93.9 49.9 L93.5 49.7 L93.2 49.6 L93.2 49.4 L93.3 49.4 L93.3 49.3 L93.1 49.4 L92.9 49.4 L92.7 49.5 L92.5 49.3 L92.5 49.1 L92.6 48.6 L92.5 48.4 L92.5 48.2 L92.4 48.1 L92.2 47.9 L92.2 47.8 L92.2 47.7 L92.1 47.6 L91.9 47.4 L91.5 47.1 L91.4 47.0 L91.5 46.8 L92.0 46.5 L92.1 46.3 L92.2 45.8 L92.2 45.6 L92.1 45.3 L91.9 45.1 L91.8 45.0 L91.7 44.9 L91.2 44.8 L90.5 44.6 L90.6 44.2 L90.6 44.0 L90.6 43.9 L91.1 43.8 L91.2 43.9 L91.5 44.0 L91.7 44.1 L92.2 44.0 L92.3 44.1 L92.4 44.1 L92.5 44.3 L92.5 44.4 L92.6 44.4 L92.8 44.4 L92.9 44.4 L93.2 44.5 L94.3 44.6 L95.5 44.9 L95.7 44.8 L95.7 44.9 L95.8 45.0 L95.8 45.0 L95.9 45.1 L96.1 45.0 L96.3 44.9 L96.5 44.8 L96.6 44.9 L97.0 44.9 L97.2 44.9 L97.4 44.9 L97.7 44.7 L98.1 44.3 L98.3 44.2 L99.1 44.1 L99.4 44.1 L101.3 44.3 L101.4 44.3 L101.5 44.5 L101.6 44.7 L101.9 45.2 L102.0 45.5 L101.6 45.7 L101.5 45.8 L101.5 46.0 L101.4 46.0 L101.1 46.0 L100.9 46.1 L100.8 46.2 L100.7 46.5 L100.9 46.9 L101.2 47.1 L101.4 47.6 L102.7 48.6 L102.8 48.8 L102.9 49.2 L102.8 49.4 L102.8 49.5 L102.7 49.6 L102.7 49.6 L102.7 49.8 L102.9 49.8 L103.0 49.7 L103.2 49.7 L103.4 49.8 L103.5 49.9 L103.7 50.0 L104.0 49.9 L104.0 49.8 L103.8 49.6 L103.9 49.4 L104.2 49.2 L104.5 49.1 L106.6 49.2 L108.5 49.7 L111.2 49.8 L111.9 49.9 L112.3 49.9 L112.9 49.7 L113.3 49.8 L114.0 50.0 L115.1 50.0 L115.4 50.1 L115.9 50.3 L116.7 50.4 L118.2 51.0 L118.6 50.8 L121.1 50.4 L121.9 50.1 L122.3 49.9 L122.7 49.8 L122.8 49.7 L123.2 49.3 L124.3 48.8 L126.3 48.5 L128.3 48.2 L129.0 48.0 L129.3 47.8 L129.6 47.6 L128.5 48.0 L127.1 48.2 L125.8 48.1 L124.7 47.8 L124.3 47.8 L124.1 47.8 L123.7 47.7 L123.4 47.6 L123.2 47.4 L123.2 47.3 L123.0 47.2 L122.9 47.1 L122.9 46.9 L123.0 46.8 L123.8 45.8 L124.4 44.4 L124.7 44.2 L125.5 43.8 L125.7 43.8 L125.8 43.7 L127.9 43.1 L128.1 42.9 L130.1 42.1 L130.6 42.0 L131.3 41.7 L132.5 41.4 L133.9 41.5 L140.5 40.1 L140.9 39.9 L141.3 39.8 L141.9 39.3 L144.0 38.2 L144.9 37.6 L145.1 37.5 L145.2 37.3 L145.5 36.5 L146.1 36.0 L146.6 36.0 L148.2 36.5 L148.4 36.4 L148.5 36.4 L148.5 36.3 L148.4 36.3 L148.3 36.2 L148.2 36.2 L148.1 36.0 L148.4 36.0 L148.4 35.9 L148.1 35.9 L147.8 35.9 L147.5 35.7 L147.4 35.5 L147.3 35.3 L146.6 35.1 L146.4 35.0 L146.5 34.5 L146.6 33.9 L146.9 33.4 L147.3 33.5 L147.5 33.5 L147.5 33.4 L146.6 33.0 L146.6 32.8 L146.9 32.3 L147.0 31.6 L147.0 30.9 L147.5 30.7 L147.1 30.2 L147.0 30.0 L146.9 29.3 L146.8 28.6 L146.8 28.2 L146.8 28.0 L147.2 27.3 L147.4 27.1 L147.5 26.8 L147.4 26.4 L147.1 25.8 L147.1 25.6 L147.1 25.5 L147.4 25.3 L147.6 25.3 L147.9 25.3 L148.2 25.2 L148.5 25.0 L149.0 24.6 L149.4 24.3 L152.5 23.5 L152.8 23.5 L153.4 23.3 L155.9 23.1 L158.7 22.5 L158.9 22.5 L159.0 22.4 L160.0 22.5 L161.3 22.3 L161.9 22.1 L162.2 22.0 L162.2 22.0 Z M153.5 160.7 L153.6 160.7 L153.7 160.7 L153.8 160.7 L153.6 160.5 L153.4 160.2 L153.3 160.0 L153.1 160.1 L152.9 160.4 L152.9 160.6 L153.2 160.7 L153.5 160.7 Z M259.1 164.5 L259.3 164.3 L259.1 164.2 L258.9 164.2 L258.8 164.1 L258.9 163.9 L259.0 163.9 L259.5 163.9 L259.6 163.9 L259.7 163.8 L259.9 163.7 L260.5 163.6 L260.7 163.6 L260.9 163.5 L261.0 163.4 L261.1 163.5 L261.1 163.4 L261.1 163.3 L260.9 163.2 L260.8 163.2 L260.3 162.9 L260.2 162.9 L260.2 162.8 L260.1 162.7 L259.9 162.8 L259.8 162.8 L259.7 162.8 L259.7 162.7 L259.8 162.6 L260.3 162.4 L259.9 162.2 L259.6 162.2 L258.9 162.4 L259.0 162.3 L258.9 162.1 L258.9 162.0 L258.9 161.8 L258.9 161.6 L259.1 161.7 L259.2 161.7 L259.4 161.6 L259.5 161.5 L259.7 161.6 L259.7 161.5 L259.7 161.4 L259.8 161.3 L259.9 161.2 L259.9 161.1 L260.0 161.1 L260.5 161.0 L260.6 160.9 L260.7 160.8 L260.7 160.6 L260.9 160.4 L260.9 160.2 L260.8 160.2 L260.7 160.2 L260.6 160.1 L260.6 160.1 L260.8 159.6 L261.0 159.5 L261.3 159.4 L261.6 159.3 L261.5 159.2 L261.6 158.8 L261.4 158.7 L261.4 158.5 L261.6 158.6 L261.6 158.6 L261.6 158.6 L261.7 158.8 L261.9 158.6 L262.1 158.7 L262.3 158.8 L262.4 158.9 L262.7 158.8 L262.9 158.7 L263.0 158.4 L263.1 158.2 L263.0 158.1 L263.6 158.1 L264.6 157.7 L266.4 157.4 L266.9 157.2 L267.0 156.9 L267.8 156.2 L268.0 156.1 L268.4 156.0 L268.8 156.0 L268.9 156.1 L269.1 156.1 L269.9 156.2 L270.2 156.4 L270.4 156.4 L270.5 156.6 L270.5 156.7 L270.7 157.0 L270.8 157.0 L271.4 156.3 L271.6 155.8 L271.5 155.5 L271.6 155.1 L271.5 154.9 L271.3 154.6 L271.0 154.4 L271.5 153.9 L271.5 153.8 L271.3 153.6 L271.3 153.5 L271.4 153.3 L271.5 153.2 L271.9 152.9 L271.8 152.8 L271.8 152.8 L271.8 152.7 L271.9 152.6 L271.7 152.5 L271.6 152.2 L271.6 151.9 L271.7 151.7 L271.9 151.6 L272.6 151.6 L272.9 151.5 L273.1 151.7 L273.2 151.8 L273.6 151.9 L273.6 152.1 L273.4 152.2 L273.4 152.4 L273.5 152.5 L273.7 152.7 L273.6 153.0 L273.9 154.5 L273.9 155.0 L273.3 156.4 L273.4 156.6 L273.3 156.9 L273.3 157.3 L273.3 157.4 L273.3 157.4 L273.2 157.5 L273.2 157.5 L273.3 157.6 L273.3 157.6 L273.4 157.6 L273.4 157.6 L273.5 157.8 L273.5 157.9 L273.5 158.0 L273.4 158.1 L273.6 158.2 L273.6 158.3 L273.7 158.4 L273.8 158.5 L273.9 158.6 L274.3 158.8 L274.3 158.5 L274.2 158.4 L274.0 158.0 L274.4 158.5 L274.6 158.8 L274.7 159.1 L274.6 160.0 L274.7 160.5 L274.9 160.8 L274.8 161.1 L274.7 161.3 L274.7 161.5 L274.7 161.8 L274.7 162.2 L275.0 162.8 L275.1 163.1 L275.0 165.1 L275.1 165.5 L275.0 165.6 L275.0 165.9 L275.0 166.0 L274.9 166.2 L274.4 166.5 L274.3 166.7 L274.0 167.1 L272.9 168.2 L272.7 168.4 L272.6 168.6 L272.6 169.2 L272.4 170.3 L272.6 171.4 L272.6 172.5 L272.5 172.6 L272.4 172.7 L272.2 172.8 L272.1 172.9 L272.0 173.1 L272.2 173.1 L272.2 173.3 L272.1 173.5 L271.9 173.6 L271.8 173.6 L271.7 173.6 L271.6 173.7 L271.7 173.9 L271.5 173.9 L271.2 173.8 L271.0 173.8 L270.8 173.8 L270.8 174.0 L270.7 174.1 L270.6 174.3 L270.8 174.4 L271.3 174.2 L271.6 174.2 L271.8 174.3 L271.7 174.5 L271.6 174.7 L271.4 174.9 L271.1 174.9 L270.9 175.0 L270.8 175.2 L270.6 175.3 L270.4 175.4 L270.4 175.5 L270.4 175.6 L270.4 175.7 L270.4 175.8 L270.5 175.9 L270.6 176.0 L270.5 176.1 L270.4 176.2 L270.5 176.4 L270.2 176.4 L269.8 176.7 L269.5 176.7 L269.5 176.8 L269.6 176.9 L269.7 177.0 L269.6 177.1 L269.5 177.2 L269.5 177.3 L269.7 177.3 L269.9 177.1 L270.1 177.0 L270.1 177.2 L269.9 177.5 L269.8 177.8 L269.7 177.9 L269.4 178.0 L269.2 177.9 L268.8 177.7 L268.6 177.6 L268.1 177.5 L267.7 177.4 L267.8 177.0 L267.9 176.9 L268.1 176.9 L267.8 176.7 L267.4 176.6 L267.2 176.5 L267.4 176.2 L267.4 176.1 L267.2 176.2 L266.7 176.5 L266.6 176.4 L266.7 176.3 L266.7 176.3 L266.7 176.3 L266.7 176.2 L266.6 176.3 L266.5 176.3 L266.4 176.4 L266.3 176.2 L266.1 176.1 L265.7 176.0 L265.3 176.0 L265.1 176.0 L264.9 175.9 L264.8 175.8 L264.6 175.7 L264.2 175.7 L264.2 175.6 L264.2 175.5 L264.1 175.5 L263.9 175.4 L263.8 175.4 L263.7 175.4 L263.5 175.4 L263.8 175.2 L263.8 175.1 L263.6 175.1 L263.4 175.0 L263.3 175.0 L263.1 175.0 L262.9 174.9 L262.8 174.9 L262.8 174.6 L262.8 174.4 L262.6 174.4 L262.7 174.2 L262.8 173.8 L262.9 173.6 L263.2 173.7 L264.1 173.4 L264.2 173.3 L264.3 173.1 L264.5 173.0 L264.7 172.9 L264.9 172.7 L264.5 172.7 L263.5 172.5 L263.1 172.5 L262.7 172.4 L262.5 172.3 L262.7 172.0 L262.3 172.0 L261.6 172.1 L261.2 172.2 L261.3 172.1 L261.3 172.0 L261.1 172.0 L260.9 171.9 L260.8 171.9 L260.6 171.8 L260.8 171.8 L261.2 171.7 L261.4 171.6 L261.6 171.5 L261.7 171.3 L261.6 171.2 L261.4 171.1 L261.4 171.0 L261.8 171.0 L262.1 170.9 L262.7 170.6 L262.6 170.5 L262.5 170.4 L262.3 170.3 L262.1 170.3 L262.6 170.2 L262.8 170.1 L262.7 170.1 L262.7 169.9 L262.6 169.9 L262.6 169.9 L262.7 169.6 L262.8 169.6 L262.8 169.6 L263.0 169.4 L263.0 169.3 L263.0 169.3 L262.8 169.2 L262.7 169.1 L262.6 169.0 L262.5 168.9 L262.3 168.9 L262.0 168.9 L261.5 169.1 L261.1 169.2 L260.5 169.2 L260.2 169.3 L259.9 169.4 L259.8 169.2 L260.0 168.9 L259.9 168.7 L259.5 168.3 L260.3 168.3 L260.6 168.2 L260.8 167.9 L260.6 167.8 L260.7 167.6 L261.0 167.4 L261.4 167.3 L261.5 167.3 L261.9 167.1 L262.0 167.1 L262.0 166.9 L261.9 166.8 L261.7 166.7 L261.4 166.2 L261.3 166.1 L261.1 166.0 L260.7 166.1 L260.6 166.1 L260.5 165.9 L260.2 165.7 L259.8 165.7 L259.5 165.7 L259.5 165.5 L259.6 165.5 L259.5 165.4 L259.3 165.4 L259.2 165.3 L259.0 165.4 L259.2 165.3 L259.3 165.3 L259.6 165.1 L259.6 165.0 L259.1 165.0 L259.1 164.9 L259.3 164.9 L259.4 164.7 L259.3 164.5 L259.1 164.5 Z" fill="#172033" fill-rule="evenodd"/></svg>
