<svg xmlns="http://www.w3.org/2000/svg" viewBox="0 0 320 200" role="img"><path d="M101.4 104.0 L101.3 104.3 L101.5 104.3 L102.2 104.2 L102.4 104.2 L103.1 104.4 L103.6 104.4 L104.1 104.4 L104.2 104.3 L104.5 104.1 L104.8 104.0 L104.8 103.8 L104.9 103.5 L105.0 103.3 L105.2 103.2 L105.4 103.1 L105.5 102.4 L105.6 102.2 L105.8 102.2 L106.4 102.4 L106.7 102.5 L108.6 102.5 L110.2 102.0 L111.2 102.0 L111.5 101.9 L111.7 101.7 L112.0 101.5 L112.3 101.5 L112.6 101.4 L113.1 101.6 L113.5 101.7 L114.0 101.5 L114.4 101.5 L115.8 102.0 L116.0 102.0 L116.3 102.0 L116.9 101.8 L117.2 101.8 L117.7 101.9 L118.0 102.0 L118.1 102.1 L118.3 102.1 L118.8 102.4 L118.9 102.6 L118.9 103.4 L118.8 103.6 L118.6 104.0 L118.7 104.1 L119.0 104.1 L119.2 104.1 L119.4 104.1 L119.7 104.2 L119.8 104.3 L119.9 104.4 L119.9 104.7 L119.7 105.2 L119.7 105.3 L120.1 105.3 L120.5 105.4 L120.8 105.6 L121.1 105.9 L121.2 106.0 L121.3 106.2 L121.4 106.3 L121.5 106.4 L121.7 106.5 L121.8 106.6 L121.9 106.7 L122.1 106.8 L122.2 107.0 L122.2 107.2 L122.4 107.6 L122.7 107.8 L123.2 107.9 L123.5 108.2 L123.6 108.2 L123.3 107.8 L122.4 107.3 L122.6 107.0 L123.1 107.1 L123.5 107.3 L123.8 107.6 L124.0 108.0 L123.9 108.4 L123.7 108.7 L123.4 109.0 L123.0 109.1 L122.1 109.2 L121.7 109.4 L121.3 109.6 L121.1 109.8 L120.7 110.1 L120.5 110.3 L120.7 110.4 L120.8 110.5 L120.8 110.7 L120.8 110.7 L121.0 110.7 L121.1 110.7 L121.2 110.6 L121.4 110.5 L121.7 110.2 L121.8 110.1 L122.3 110.0 L122.8 109.7 L123.1 109.7 L123.4 109.7 L123.6 109.8 L123.9 109.8 L125.6 109.7 L125.7 109.7 L125.9 109.9 L126.0 110.0 L126.2 110.0 L126.2 110.1 L126.2 110.2 L126.3 110.3 L126.5 110.8 L126.7 111.1 L126.9 111.1 L127.0 111.3 L127.1 111.8 L127.2 112.0 L127.6 112.4 L127.7 112.5 L127.6 112.6 L127.6 112.7 L127.7 112.8 L127.7 112.8 L127.6 112.9 L127.3 113.2 L127.2 113.3 L127.3 113.6 L127.3 113.8 L127.1 113.9 L127.0 114.0 L126.9 114.2 L127.1 114.3 L126.9 114.4 L126.7 114.6 L126.5 114.6 L126.3 114.5 L126.2 114.3 L126.0 114.0 L125.9 114.0 L125.7 113.8 L125.6 113.7 L125.6 113.5 L125.7 113.3 L126.0 113.1 L126.1 112.9 L126.0 112.4 L125.9 112.1 L125.6 111.8 L124.6 111.3 L124.2 111.2 L123.8 111.1 L123.8 111.2 L123.9 111.4 L123.9 111.5 L123.7 111.6 L123.6 111.7 L123.8 111.7 L124.0 111.8 L124.1 111.9 L124.2 111.9 L124.7 111.9 L124.9 112.0 L124.7 112.1 L124.4 112.1 L124.3 112.2 L124.7 112.3 L124.6 112.5 L124.6 112.7 L124.7 112.8 L124.9 112.8 L124.9 112.9 L124.9 112.9 L124.8 113.0 L124.9 113.1 L124.5 113.9 L124.4 114.0 L123.9 114.3 L123.7 114.4 L124.3 114.3 L125.0 114.1 L125.6 113.9 L126.0 114.2 L126.1 114.8 L126.0 115.2 L125.6 115.5 L125.1 115.8 L125.0 115.8 L124.9 115.8 L124.8 115.8 L124.7 116.1 L124.6 116.1 L124.5 116.2 L124.4 116.2 L124.3 116.0 L124.1 115.9 L123.3 115.9 L122.7 115.9 L122.1 116.1 L121.8 116.1 L121.5 116.2 L121.4 116.3 L121.4 116.8 L121.4 116.9 L121.4 117.2 L121.3 117.5 L121.2 117.8 L121.0 118.0 L120.8 118.2 L120.2 118.4 L119.7 118.6 L119.1 118.9 L118.9 119.0 L118.3 119.0 L118.1 119.0 L117.9 118.9 L117.9 118.8 L118.1 118.7 L118.3 118.7 L117.1 118.4 L117.0 118.4 L116.8 118.2 L116.4 118.1 L116.0 118.1 L115.7 118.0 L115.6 118.1 L115.4 118.0 L115.1 118.0 L114.9 118.1 L114.8 118.1 L114.6 118.0 L114.5 117.9 L114.3 117.9 L114.2 118.1 L114.1 118.2 L114.2 118.3 L114.2 118.4 L114.1 118.5 L114.0 118.6 L113.7 118.6 L113.3 118.7 L113.2 118.7 L113.1 118.7 L113.0 118.6 L113.0 118.5 L113.0 118.5 L112.6 118.5 L111.3 118.8 L111.2 118.8 L111.0 118.7 L110.9 118.7 L110.8 118.8 L110.7 118.9 L110.6 118.9 L110.6 119.0 L110.4 118.9 L110.0 118.6 L109.8 118.5 L110.0 118.2 L110.0 118.0 L109.8 117.8 L110.2 117.6 L110.3 117.3 L110.2 117.1 L110.1 117.0 L109.9 116.8 L109.6 116.7 L109.4 116.6 L109.3 116.6 L109.1 116.7 L109.0 116.8 L108.9 116.8 L108.7 116.8 L108.4 116.7 L108.1 116.6 L107.8 116.4 L107.6 116.1 L107.5 116.0 L107.4 115.9 L107.4 115.7 L107.2 115.6 L106.7 115.5 L107.0 115.4 L107.1 115.3 L107.1 115.1 L106.9 114.8 L106.8 114.6 L106.7 114.5 L106.5 114.5 L106.4 114.5 L106.2 114.2 L106.1 114.1 L105.2 113.7 L104.8 113.5 L104.3 113.5 L103.9 113.8 L103.2 114.4 L102.7 114.7 L102.6 114.7 L102.3 114.6 L102.3 114.6 L102.2 114.7 L102.2 114.7 L102.2 114.8 L102.3 114.9 L102.3 114.9 L102.3 114.9 L102.2 115.1 L102.2 115.1 L102.1 115.1 L102.0 115.1 L101.9 115.1 L102.0 115.3 L102.5 115.4 L102.4 115.6 L102.9 115.9 L102.7 116.0 L102.8 116.3 L102.5 116.4 L101.7 116.5 L101.5 116.6 L101.4 116.6 L101.3 116.7 L101.2 116.9 L101.3 116.9 L101.4 117.0 L101.5 117.1 L101.2 117.2 L101.2 117.3 L101.2 117.5 L101.1 117.6 L101.0 117.7 L100.8 117.7 L100.7 117.7 L100.7 117.6 L100.7 117.4 L100.7 117.3 L100.8 117.1 L100.7 117.1 L100.3 117.3 L100.2 117.3 L100.2 117.4 L100.5 117.8 L100.4 117.8 L100.3 117.9 L99.6 117.7 L99.4 117.7 L99.3 117.7 L99.3 117.7 L99.2 117.5 L99.0 117.5 L98.9 117.5 L98.8 117.5 L99.0 117.4 L98.6 117.4 L98.1 117.7 L97.7 117.7 L96.2 117.5 L96.0 117.4 L96.0 117.3 L96.0 117.2 L95.9 117.1 L94.8 116.6 L94.5 116.6 L93.7 116.6 L92.9 116.5 L92.6 116.4 L92.4 116.2 L92.4 115.6 L92.3 115.3 L92.1 115.3 L91.5 115.2 L91.4 115.2 L91.2 115.1 L91.0 115.0 L90.8 114.8 L90.5 114.3 L90.1 114.3 L89.7 114.2 L89.4 114.0 L88.8 113.5 L88.4 113.3 L88.3 113.1 L88.2 113.0 L88.2 112.9 L88.0 112.8 L88.1 112.8 L88.4 112.7 L89.1 112.6 L89.5 112.5 L89.7 112.4 L89.7 112.3 L89.9 112.1 L90.2 111.8 L90.5 111.6 L91.6 111.8 L92.2 111.8 L92.7 111.7 L94.2 110.9 L94.8 110.8 L94.8 110.7 L94.7 110.5 L94.6 110.4 L94.3 110.5 L94.1 110.6 L93.9 110.6 L93.4 110.3 L93.2 110.2 L93.1 110.3 L92.9 110.4 L92.8 110.4 L92.6 110.3 L92.5 110.1 L92.4 110.1 L92.1 110.0 L91.9 109.9 L91.8 109.8 L91.9 109.6 L91.8 109.5 L91.6 109.4 L92.3 109.2 L92.8 108.9 L93.0 108.9 L93.4 109.1 L93.9 109.3 L94.3 109.3 L94.8 109.1 L95.3 108.8 L95.6 108.7 L96.1 108.8 L96.5 108.7 L96.8 108.8 L97.0 108.8 L97.1 108.8 L97.1 108.7 L97.1 108.7 L97.0 108.6 L97.1 108.2 L97.1 108.0 L98.2 107.3 L98.4 107.0 L98.6 106.7 L98.6 106.5 L98.5 106.2 L98.6 106.0 L98.7 105.9 L99.0 105.9 L99.0 105.8 L99.1 105.7 L99.1 105.6 L99.0 105.2 L99.1 105.1 L99.2 105.1 L99.2 105.1 L99.1 105.0 L99.6 104.6 L99.7 104.5 L99.9 104.4 L100.8 104.4 L100.9 104.3 L101.0 104.2 L101.2 104.1 L101.4 104.0 Z M167.8 154.0 L167.3 154.3 L167.1 154.4 L166.4 154.5 L165.8 154.8 L165.6 154.9 L165.0 155.0 L163.7 155.1 L163.5 155.0 L163.4 154.9 L163.4 154.8 L163.3 154.8 L163.1 154.8 L162.8 155.1 L162.7 155.2 L161.8 155.6 L161.8 155.6 L161.6 155.6 L161.4 155.7 L161.0 156.0 L161.0 156.0 L160.9 156.2 L160.8 156.3 L160.7 156.3 L160.5 156.3 L160.4 156.4 L160.4 156.4 L160.6 156.7 L160.5 157.0 L160.2 157.2 L160.0 157.1 L159.7 157.1 L158.7 157.4 L155.1 157.2 L154.8 157.1 L154.6 156.8 L154.2 156.5 L153.3 156.0 L153.1 156.0 L152.8 156.1 L152.5 156.0 L152.2 155.8 L152.1 155.7 L152.1 155.6 L152.1 155.6 L152.1 155.6 L152.2 155.6 L152.1 155.3 L152.0 155.2 L151.9 155.0 L151.8 154.8 L151.6 154.6 L151.5 154.5 L151.2 154.4 L151.1 154.3 L150.9 154.0 L150.7 153.9 L150.5 153.9 L150.1 153.9 L149.0 154.0 L148.8 154.1 L148.6 154.2 L148.5 154.2 L148.4 154.4 L148.6 154.5 L148.7 154.7 L148.8 154.8 L148.2 154.8 L148.2 154.8 L148.1 154.9 L148.1 154.9 L148.0 154.8 L148.0 154.8 L147.9 154.7 L147.8 154.7 L147.7 154.7 L147.6 154.7 L147.5 154.9 L147.4 154.9 L147.3 154.9 L147.2 154.8 L146.8 154.7 L146.7 154.7 L146.5 154.8 L146.4 154.9 L146.2 155.0 L146.0 155.1 L145.9 155.1 L145.7 155.0 L145.6 155.0 L145.5 155.1 L145.3 155.1 L144.5 154.9 L144.2 154.9 L144.2 154.8 L144.2 154.8 L144.1 154.7 L144.4 154.6 L144.4 154.4 L144.2 154.2 L144.2 154.0 L144.7 153.9 L144.8 153.9 L144.9 153.7 L145.0 153.6 L145.1 153.7 L145.0 153.7 L145.0 153.8 L145.1 153.8 L145.2 153.9 L145.7 153.8 L146.4 153.8 L147.1 153.7 L147.4 153.3 L147.4 153.2 L147.4 153.2 L147.4 153.1 L147.3 153.1 L147.2 153.3 L147.1 153.3 L146.9 153.3 L146.3 153.3 L145.5 153.0 L145.3 153.1 L144.2 153.2 L143.9 153.1 L143.5 152.9 L143.1 152.7 L142.9 152.4 L143.5 152.5 L143.8 152.4 L143.9 152.3 L143.7 152.3 L143.4 152.3 L143.2 152.2 L143.1 152.0 L143.1 152.0 L143.2 151.9 L143.3 151.7 L143.3 151.6 L143.2 151.5 L143.1 151.6 L142.9 151.7 L142.9 151.8 L142.7 151.9 L142.7 151.9 L142.5 151.9 L142.4 151.8 L142.3 151.7 L142.0 151.7 L141.9 151.8 L142.0 152.0 L142.3 152.1 L141.8 152.3 L141.2 152.3 L140.1 152.2 L139.7 152.2 L139.2 152.3 L139.1 152.3 L138.6 152.5 L138.6 152.9 L138.5 152.9 L138.4 152.9 L138.4 153.0 L138.4 153.1 L138.1 153.5 L138.0 153.5 L137.8 153.4 L137.7 153.4 L137.4 153.6 L136.2 153.6 L135.9 153.6 L135.7 153.7 L135.6 153.8 L135.5 153.9 L135.3 154.0 L135.1 154.1 L134.9 154.3 L134.8 154.3 L134.7 154.3 L134.6 154.2 L133.6 154.0 L133.3 153.9 L133.4 153.7 L133.2 153.4 L132.5 153.3 L132.2 153.1 L132.3 153.0 L133.4 153.1 L133.4 153.1 L133.4 153.0 L133.3 152.9 L133.5 152.9 L133.9 153.0 L134.1 153.0 L134.3 153.0 L134.8 152.8 L135.5 152.7 L135.9 152.6 L136.0 152.5 L136.2 152.6 L136.2 152.5 L135.8 152.3 L135.7 151.9 L136.0 151.6 L136.5 151.5 L136.5 151.4 L136.3 151.5 L135.9 151.6 L135.1 151.6 L134.9 151.7 L135.2 151.7 L135.3 151.8 L135.4 151.9 L135.3 152.1 L135.5 152.2 L135.5 152.4 L135.3 152.5 L134.1 152.7 L133.8 152.7 L131.8 152.5 L131.5 152.6 L131.7 152.8 L131.5 153.0 L131.3 153.0 L131.3 152.8 L131.3 152.7 L130.6 152.4 L130.4 152.3 L130.7 152.3 L130.9 152.3 L131.0 152.2 L131.2 152.1 L131.4 151.9 L131.9 151.9 L132.1 151.8 L132.4 151.7 L132.4 151.5 L132.3 151.2 L132.3 150.9 L132.3 150.7 L132.1 150.5 L131.9 150.4 L131.8 150.5 L131.6 150.4 L131.0 150.3 L130.8 150.2 L130.5 150.3 L129.7 150.4 L129.5 150.4 L129.6 150.4 L129.7 150.3 L129.7 150.2 L129.6 150.2 L129.6 150.1 L129.6 150.1 L129.8 150.0 L129.8 149.9 L129.6 149.7 L129.8 149.7 L130.3 149.6 L130.6 149.6 L131.0 149.3 L131.2 149.2 L131.6 149.2 L132.2 149.1 L132.7 148.8 L132.7 148.4 L132.9 148.4 L132.9 148.3 L132.8 148.2 L132.8 148.1 L132.9 148.1 L133.2 148.0 L133.6 148.1 L133.7 148.1 L134.5 148.3 L134.8 148.3 L135.2 148.2 L135.1 148.0 L135.4 148.1 L135.9 148.2 L136.3 148.2 L136.4 148.2 L136.4 148.0 L136.3 147.9 L136.3 147.7 L136.4 147.7 L136.9 147.6 L137.2 147.5 L137.4 147.4 L137.7 147.0 L138.0 146.8 L138.2 146.8 L138.7 147.0 L138.7 146.6 L139.2 146.5 L141.0 146.5 L141.2 146.5 L141.3 146.4 L141.3 146.3 L141.4 146.2 L141.9 146.1 L142.1 146.0 L142.4 145.8 L142.9 145.5 L143.1 145.4 L143.3 145.4 L143.6 145.4 L143.9 145.3 L145.6 144.4 L146.4 143.7 L146.9 143.2 L147.0 142.8 L147.2 142.2 L147.3 141.9 L147.5 141.6 L147.6 141.4 L147.5 141.3 L147.5 141.1 L147.5 140.9 L147.6 140.8 L147.7 140.8 L148.1 140.9 L148.2 140.9 L148.5 140.8 L149.2 140.5 L149.2 140.4 L148.8 140.4 L148.1 140.6 L147.7 140.6 L147.4 140.5 L146.8 139.9 L146.6 139.7 L146.7 139.4 L146.9 139.0 L147.2 138.7 L147.5 138.6 L147.5 138.6 L147.6 138.4 L147.6 138.3 L147.7 138.3 L147.8 138.3 L148.4 138.0 L148.6 137.8 L148.2 137.9 L148.0 138.0 L147.7 138.0 L146.6 137.2 L146.3 136.8 L146.3 136.7 L146.3 136.6 L146.6 136.5 L146.7 136.4 L146.7 136.2 L146.6 136.0 L146.5 135.9 L146.5 135.7 L146.6 135.6 L146.6 135.5 L147.5 135.2 L147.4 135.1 L147.4 135.1 L147.3 135.0 L147.1 135.2 L147.0 135.2 L146.8 135.2 L146.7 135.0 L146.3 135.2 L146.0 135.2 L145.1 135.2 L144.1 135.3 L143.8 135.4 L143.6 135.5 L142.6 135.5 L142.3 135.6 L142.0 135.8 L141.5 136.1 L141.5 136.2 L141.6 136.2 L141.3 136.3 L141.2 136.5 L141.2 136.7 L141.4 136.8 L141.2 136.9 L141.1 137.0 L141.0 137.0 L140.8 137.0 L140.6 136.9 L140.3 136.8 L140.0 136.7 L139.8 136.6 L139.7 136.7 L139.6 136.7 L139.5 136.8 L139.4 136.8 L139.0 136.9 L138.2 136.8 L138.0 136.9 L137.8 137.1 L137.6 137.1 L137.4 137.0 L137.5 136.9 L137.6 136.8 L137.5 136.7 L137.6 136.7 L137.8 136.4 L139.8 135.0 L140.0 134.9 L140.3 134.9 L140.6 134.9 L140.9 134.8 L142.0 134.2 L142.3 133.9 L143.3 133.6 L143.4 133.4 L143.4 133.1 L143.5 132.5 L143.5 132.3 L143.6 132.3 L143.7 132.3 L143.7 132.4 L143.8 132.5 L143.9 132.4 L144.0 132.2 L144.0 132.2 L144.6 131.7 L144.8 131.7 L145.0 131.6 L145.2 131.4 L145.5 131.1 L145.9 130.8 L146.2 130.7 L146.7 130.6 L147.1 130.6 L147.2 130.6 L147.4 130.6 L147.5 130.7 L147.7 130.6 L148.0 130.5 L148.3 130.4 L148.8 130.2 L150.4 129.8 L150.9 129.8 L150.7 129.5 L150.3 129.3 L150.2 129.1 L150.5 129.1 L150.7 129.2 L151.0 129.3 L151.2 129.4 L151.5 129.3 L151.8 129.4 L152.1 129.5 L152.3 129.7 L152.5 129.8 L154.2 129.8 L154.8 129.7 L157.5 128.9 L158.1 128.9 L158.7 129.1 L159.0 129.2 L159.1 129.3 L159.3 129.5 L161.1 130.2 L161.4 130.3 L161.5 130.5 L161.6 130.6 L161.7 130.5 L161.7 130.2 L161.7 130.0 L161.5 129.8 L161.3 129.6 L161.0 129.1 L160.4 128.7 L160.2 128.5 L160.2 128.3 L160.4 128.2 L160.6 128.1 L161.3 128.0 L161.6 127.9 L162.1 127.7 L162.4 127.7 L162.7 127.9 L163.6 129.3 L163.9 129.5 L164.2 129.7 L164.6 129.8 L165.1 129.8 L165.1 129.8 L165.1 129.7 L165.2 129.6 L165.3 129.6 L165.4 129.6 L165.6 129.7 L165.7 129.7 L166.0 129.7 L166.2 129.6 L166.6 129.5 L166.5 129.3 L166.5 129.2 L166.6 129.1 L166.8 129.0 L166.9 129.0 L167.0 129.0 L167.1 129.0 L167.3 128.9 L167.1 128.9 L166.3 129.0 L166.2 129.0 L166.1 129.3 L165.8 129.3 L165.7 129.3 L165.2 129.3 L164.6 129.2 L164.0 128.9 L163.5 128.6 L163.2 128.3 L161.5 126.1 L161.4 125.9 L161.5 125.7 L161.6 125.5 L162.6 124.5 L163.4 123.9 L163.5 123.9 L163.6 123.7 L164.2 123.5 L164.4 123.3 L163.1 123.3 L162.6 123.2 L162.2 122.8 L162.1 122.4 L162.3 121.3 L162.1 120.9 L162.3 120.6 L162.7 120.5 L164.0 120.2 L164.2 120.2 L164.4 120.3 L164.5 120.3 L164.6 120.2 L164.6 120.1 L164.7 120.1 L164.9 120.0 L165.0 120.0 L164.8 119.8 L165.3 119.5 L165.4 119.3 L165.1 119.4 L164.9 119.4 L164.4 119.5 L164.4 119.4 L164.1 119.1 L164.1 119.0 L164.2 118.9 L164.4 118.9 L164.5 118.8 L164.8 118.5 L165.0 118.3 L165.4 118.2 L165.6 118.1 L165.9 117.7 L165.6 117.5 L165.3 117.1 L165.1 116.8 L165.0 116.7 L165.3 116.6 L165.7 116.4 L165.9 116.2 L165.9 115.9 L165.8 115.9 L165.7 116.1 L165.5 116.3 L165.1 116.5 L164.6 116.7 L164.3 116.8 L164.2 116.9 L164.1 117.2 L163.8 117.3 L163.1 117.3 L162.9 117.2 L162.8 117.0 L162.7 116.8 L162.8 116.6 L162.7 116.4 L162.6 116.3 L162.4 116.2 L162.2 116.3 L162.3 116.5 L162.2 116.7 L162.1 116.9 L162.1 117.0 L162.0 117.2 L161.6 117.5 L161.4 117.8 L161.2 117.9 L160.8 118.1 L160.8 118.2 L160.8 118.4 L160.8 118.6 L160.3 118.2 L160.2 118.1 L159.9 118.1 L159.7 118.0 L159.6 118.0 L159.4 117.9 L159.5 117.7 L159.5 117.4 L159.5 117.2 L159.3 117.1 L159.3 117.0 L159.8 116.9 L159.9 116.5 L159.9 116.0 L159.9 115.7 L159.7 115.8 L159.6 115.9 L159.4 116.3 L159.6 116.6 L159.3 116.6 L159.0 116.6 L158.8 116.6 L158.5 116.7 L158.2 116.5 L157.6 116.0 L157.2 115.7 L157.0 115.5 L156.9 115.3 L157.0 115.1 L157.0 115.0 L157.1 114.9 L157.0 114.7 L156.9 114.5 L156.9 114.5 L156.5 114.4 L156.0 113.8 L155.7 113.6 L154.3 112.5 L154.1 112.4 L154.0 112.4 L153.9 112.2 L153.7 112.1 L153.8 112.0 L154.0 111.9 L154.1 111.8 L154.4 111.3 L154.8 110.2 L155.2 109.5 L155.4 109.2 L155.5 109.1 L155.7 109.0 L156.0 108.9 L156.1 108.9 L156.3 108.7 L156.6 108.5 L156.7 108.2 L156.5 108.0 L157.0 107.1 L157.3 106.7 L157.6 106.5 L157.9 106.4 L158.1 106.5 L158.2 106.6 L158.5 106.7 L158.6 106.7 L159.2 106.5 L159.0 106.4 L158.3 106.2 L158.7 105.9 L158.9 105.8 L159.8 105.7 L160.0 105.7 L160.1 105.8 L160.2 105.8 L160.3 105.9 L160.8 106.0 L161.1 106.0 L162.3 105.8 L162.6 105.7 L161.6 105.7 L161.6 105.6 L161.9 105.6 L162.1 105.5 L162.3 105.4 L162.6 105.5 L162.6 105.4 L162.2 105.3 L162.2 105.3 L161.0 105.5 L156.3 105.3 L156.1 105.3 L155.9 105.2 L155.7 105.1 L155.5 105.2 L155.5 105.2 L155.5 105.2 L155.5 105.2 L155.5 105.3 L155.3 105.4 L155.1 105.3 L154.7 105.1 L154.5 105.5 L154.6 105.6 L154.7 105.9 L154.7 106.2 L154.7 106.5 L154.5 106.7 L154.3 106.8 L152.9 106.7 L152.5 106.8 L152.2 107.1 L151.2 107.0 L151.2 107.0 L151.2 107.0 L151.3 107.1 L151.2 107.1 L151.0 107.1 L151.0 107.1 L150.9 107.0 L151.0 106.8 L151.1 106.8 L151.2 106.9 L151.2 106.8 L151.1 106.7 L151.1 106.7 L150.9 106.8 L150.7 107.0 L150.8 107.1 L150.8 107.2 L150.7 107.2 L150.5 107.3 L151.0 107.6 L150.8 107.6 L150.1 107.8 L149.0 108.3 L148.3 108.4 L147.8 108.4 L147.8 108.3 L147.8 108.2 L147.7 108.2 L147.7 108.2 L147.6 108.2 L147.7 108.1 L147.7 108.1 L147.7 108.1 L147.7 107.9 L147.7 107.7 L147.7 107.6 L147.5 107.5 L147.5 107.5 L147.3 107.6 L147.1 107.8 L147.1 108.0 L147.2 108.3 L146.7 108.3 L145.9 108.0 L145.4 107.5 L145.5 107.0 L145.3 107.0 L145.0 107.3 L144.7 107.4 L144.5 107.4 L143.4 107.1 L143.3 107.0 L143.1 106.9 L143.0 106.7 L142.9 106.5 L142.8 106.4 L142.6 106.4 L142.5 106.4 L142.4 106.6 L142.3 106.8 L142.3 106.9 L142.4 107.3 L142.5 107.5 L142.6 107.6 L142.8 107.6 L143.0 107.6 L143.2 107.7 L143.4 107.8 L143.5 108.0 L143.3 108.2 L143.3 108.3 L143.5 108.6 L143.3 108.8 L143.3 109.1 L143.4 109.3 L143.3 109.5 L143.2 109.5 L143.2 109.6 L143.1 109.6 L142.9 109.7 L142.6 109.6 L142.3 109.6 L141.9 109.4 L141.8 109.4 L141.2 109.4 L141.1 109.3 L140.3 108.6 L139.8 108.3 L138.1 107.7 L137.4 107.6 L137.1 107.4 L136.9 107.0 L136.6 107.0 L136.0 107.0 L135.7 107.1 L135.3 107.2 L135.0 107.4 L134.8 107.6 L134.7 107.7 L134.6 107.8 L134.6 107.9 L134.6 108.0 L134.6 108.1 L134.7 108.3 L134.8 108.4 L135.0 108.5 L135.1 108.6 L135.2 109.0 L135.5 109.3 L135.9 109.5 L135.9 109.6 L135.8 109.9 L135.8 110.0 L135.8 110.1 L136.0 110.3 L135.7 110.3 L135.1 110.1 L134.8 110.1 L134.6 110.0 L134.5 109.7 L134.6 109.5 L134.7 109.4 L134.6 109.3 L134.6 109.2 L134.6 109.1 L134.6 109.0 L134.3 108.9 L134.2 108.9 L134.1 108.9 L134.1 108.7 L134.0 108.5 L133.9 108.3 L133.8 108.3 L133.5 108.2 L132.1 107.2 L131.7 106.8 L131.4 106.3 L131.3 105.7 L131.4 105.2 L131.5 104.9 L131.7 104.8 L132.0 104.8 L132.2 104.8 L132.2 104.7 L132.3 104.6 L132.4 104.6 L132.6 104.8 L132.6 104.9 L132.8 105.1 L133.0 105.2 L133.0 105.4 L133.0 105.5 L133.0 105.9 L133.1 106.0 L133.3 106.2 L133.5 106.3 L133.8 106.3 L134.0 106.2 L134.1 106.1 L134.1 106.1 L134.1 106.0 L133.6 105.4 L133.5 105.2 L133.5 105.1 L133.5 105.1 L133.3 104.8 L133.2 104.6 L133.2 104.3 L133.3 104.2 L133.3 104.1 L133.6 103.7 L133.7 103.5 L133.7 103.3 L133.8 103.0 L134.1 102.8 L134.7 102.6 L135.7 101.9 L135.7 101.8 L135.9 101.8 L135.9 101.8 L135.9 101.6 L135.9 101.5 L136.3 101.0 L136.3 100.9 L136.3 100.8 L136.3 100.5 L136.3 100.3 L136.4 100.2 L136.9 99.9 L137.1 99.8 L137.2 99.7 L137.3 99.5 L137.5 99.2 L137.6 99.0 L138.1 98.8 L139.0 98.5 L139.4 98.2 L139.5 97.9 L139.4 97.5 L139.0 97.3 L138.5 97.2 L138.8 96.9 L138.8 96.9 L138.7 96.6 L138.4 96.3 L138.0 96.1 L137.2 95.9 L136.7 95.9 L136.6 95.8 L136.7 95.7 L136.7 95.6 L135.9 95.2 L135.4 95.0 L135.1 94.8 L135.8 94.4 L136.0 94.1 L135.9 93.6 L135.8 93.4 L135.7 93.3 L135.7 93.1 L135.6 92.5 L135.6 92.5 L135.5 92.1 L135.6 91.7 L135.8 91.5 L136.1 91.3 L136.6 91.2 L136.9 91.2 L137.1 91.2 L138.0 91.4 L138.2 91.4 L138.4 91.4 L138.7 91.5 L141.1 91.7 L141.5 91.6 L139.9 91.4 L139.3 91.3 L138.7 91.1 L138.0 90.6 L137.4 90.4 L137.1 90.3 L136.9 90.1 L136.7 89.9 L136.5 89.5 L136.5 89.4 L136.3 89.4 L136.2 89.5 L136.2 89.6 L136.3 89.8 L137.0 90.4 L137.2 90.7 L137.1 90.8 L136.8 90.8 L136.5 90.8 L136.1 90.7 L136.0 90.5 L135.9 90.3 L135.9 89.7 L135.9 89.6 L136.5 88.8 L137.5 87.8 L137.6 87.6 L137.5 87.6 L137.3 87.6 L137.1 87.8 L136.3 88.8 L136.1 88.9 L135.8 88.9 L135.7 88.8 L135.7 88.4 L135.7 88.2 L135.5 88.0 L135.3 88.0 L135.1 88.1 L135.3 88.4 L135.5 88.9 L135.6 89.4 L135.6 89.6 L135.4 89.7 L135.3 89.8 L135.4 90.1 L135.4 90.3 L135.4 90.5 L135.5 90.7 L135.3 90.8 L135.1 90.7 L134.9 90.6 L134.6 90.6 L134.6 90.7 L134.8 90.8 L135.0 90.8 L135.1 90.9 L135.2 91.1 L135.2 91.3 L135.0 91.5 L134.8 91.6 L134.7 91.7 L134.7 91.9 L134.6 92.0 L134.6 92.1 L134.4 92.3 L134.2 92.4 L134.0 92.4 L133.6 92.4 L133.3 92.2 L133.1 91.9 L133.0 91.4 L132.9 91.2 L132.4 90.7 L132.3 90.5 L132.2 90.4 L131.9 90.5 L132.2 90.8 L132.7 91.5 L132.8 91.8 L132.7 92.0 L132.4 91.9 L131.5 91.5 L131.3 91.3 L131.3 91.0 L131.2 91.1 L131.1 91.3 L131.0 91.5 L131.0 91.6 L130.9 91.8 L130.5 92.1 L130.8 92.5 L130.9 92.7 L131.1 93.0 L130.8 93.0 L130.2 92.8 L129.7 92.7 L129.5 92.6 L129.4 92.2 L129.3 92.2 L129.2 92.1 L129.1 92.0 L129.1 91.9 L129.1 91.8 L129.1 91.5 L129.1 91.4 L129.2 91.3 L129.3 91.2 L129.2 91.0 L129.1 90.6 L129.4 90.4 L131.0 88.8 L131.8 88.6 L132.4 88.4 L132.6 88.3 L133.1 87.6 L133.3 87.4 L133.8 87.3 L134.3 87.1 L134.8 86.9 L135.1 86.5 L134.9 86.6 L134.3 87.0 L134.1 87.0 L133.5 87.1 L133.2 87.1 L133.0 87.2 L132.9 87.4 L132.5 87.9 L132.4 88.0 L130.7 88.7 L129.5 89.7 L129.3 89.8 L129.1 89.8 L129.0 89.8 L129.0 89.9 L128.9 90.1 L128.8 90.3 L128.8 90.3 L128.6 90.4 L128.3 90.5 L128.0 90.5 L127.7 90.4 L127.7 90.3 L127.7 90.2 L127.6 90.1 L127.5 90.2 L127.5 90.2 L127.5 90.3 L127.5 90.4 L127.4 91.2 L127.4 91.2 L127.6 91.3 L127.7 91.3 L127.9 91.6 L127.9 91.8 L127.9 91.9 L128.0 92.0 L128.2 92.1 L128.2 92.2 L128.1 92.2 L128.1 92.3 L128.1 92.3 L128.3 92.4 L128.2 92.4 L128.1 92.5 L128.1 92.5 L128.9 93.0 L129.2 93.3 L129.4 93.7 L129.3 93.9 L129.1 94.0 L128.6 94.1 L128.4 94.2 L127.7 94.6 L127.5 94.7 L127.4 94.9 L127.3 95.1 L127.3 95.2 L127.2 95.4 L127.2 95.6 L126.9 95.7 L126.9 95.8 L127.0 95.8 L127.0 95.9 L127.0 96.2 L127.1 96.3 L127.3 96.3 L127.4 96.5 L127.3 96.6 L127.1 96.7 L126.9 96.8 L127.0 97.1 L126.7 97.4 L126.6 97.5 L126.6 97.6 L126.6 97.9 L126.6 98.0 L126.5 98.0 L126.5 98.0 L126.4 98.0 L126.1 98.5 L125.8 98.7 L125.5 98.8 L125.5 98.9 L125.7 98.9 L125.8 99.0 L126.0 99.0 L126.1 99.1 L126.3 99.5 L126.3 99.5 L126.5 99.6 L126.4 99.8 L125.9 100.2 L125.6 100.4 L125.4 100.5 L125.0 100.6 L124.7 100.6 L124.6 100.6 L124.3 100.5 L124.1 100.5 L124.0 100.6 L123.6 100.7 L123.5 100.7 L123.0 100.7 L122.8 100.7 L122.6 100.5 L122.5 99.9 L122.4 99.5 L122.5 99.3 L122.9 99.1 L123.5 98.7 L123.6 98.5 L123.6 98.2 L123.5 97.9 L123.5 97.6 L123.7 97.2 L123.7 97.1 L123.6 97.0 L123.5 96.9 L123.6 96.7 L123.9 96.3 L124.2 95.8 L124.3 95.5 L124.1 95.3 L124.9 94.9 L125.0 94.7 L125.1 94.5 L125.3 94.3 L125.5 94.1 L125.7 94.0 L126.2 93.9 L126.7 93.6 L127.1 93.2 L127.4 92.8 L126.0 93.7 L125.5 93.9 L125.3 94.0 L125.1 94.0 L125.2 93.8 L124.8 93.7 L124.6 93.6 L124.4 93.5 L124.3 93.3 L124.3 92.9 L124.2 92.8 L124.8 92.3 L124.9 92.1 L125.0 92.0 L125.2 91.8 L125.5 91.7 L125.7 91.5 L125.4 91.6 L124.9 91.9 L124.5 92.0 L124.2 92.2 L124.1 92.2 L124.0 92.1 L123.9 91.9 L123.9 91.8 L125.5 90.4 L125.6 90.2 L125.5 90.1 L125.6 90.1 L125.7 90.0 L125.5 90.0 L125.3 90.0 L125.1 90.1 L124.9 90.2 L124.8 90.5 L124.2 90.9 L124.2 91.2 L124.0 91.5 L123.9 91.5 L123.8 91.5 L123.7 91.4 L123.7 91.3 L123.8 91.2 L123.9 90.8 L124.4 90.2 L125.5 89.3 L125.5 89.3 L125.6 89.2 L125.6 89.1 L125.7 89.1 L125.8 89.1 L125.9 89.2 L126.0 89.2 L126.0 89.2 L126.0 89.2 L126.2 89.3 L126.3 89.3 L126.3 89.2 L126.2 89.1 L126.1 89.1 L126.0 89.0 L126.0 89.0 L125.9 88.8 L125.9 88.7 L125.9 88.6 L126.4 88.2 L126.5 88.0 L126.6 87.8 L126.1 87.9 L125.8 88.1 L125.5 88.4 L125.2 88.5 L125.3 88.2 L125.5 87.9 L125.7 87.7 L126.0 87.4 L125.9 87.2 L126.0 87.1 L126.4 87.0 L126.6 86.9 L126.8 86.9 L126.8 86.8 L126.7 86.7 L126.5 86.6 L125.9 86.7 L125.8 86.8 L125.7 86.9 L125.5 87.0 L125.4 86.9 L125.3 86.8 L125.3 86.6 L125.5 86.3 L125.7 85.8 L125.8 85.6 L126.1 85.4 L126.4 85.5 L126.8 85.5 L127.5 85.3 L127.5 85.3 L127.1 85.3 L126.5 85.4 L126.2 85.3 L126.5 84.9 L126.6 84.8 L126.7 84.7 L126.9 84.6 L127.0 84.6 L127.0 84.5 L127.3 84.2 L127.8 84.0 L129.3 84.0 L130.5 84.2 L130.9 84.1 L131.3 83.9 L132.2 83.2 L132.7 82.6 L133.0 82.4 L132.7 82.5 L132.5 82.7 L132.4 82.9 L132.1 83.2 L131.5 83.5 L131.2 83.8 L131.1 83.9 L130.4 83.9 L128.9 83.7 L128.5 83.9 L128.3 83.8 L128.0 83.3 L127.8 83.3 L127.7 83.4 L127.4 83.8 L127.2 83.7 L127.7 83.0 L127.8 82.8 L128.1 83.0 L128.5 83.0 L128.8 83.0 L129.1 83.0 L129.8 82.7 L130.1 82.6 L130.3 82.5 L130.5 82.4 L130.0 82.5 L129.8 82.6 L129.5 82.5 L129.5 82.6 L129.2 82.7 L129.1 82.7 L128.7 82.8 L128.6 82.9 L128.4 82.8 L128.2 82.7 L128.0 82.7 L128.0 82.6 L128.1 82.5 L128.1 82.5 L128.2 82.4 L128.3 82.4 L128.3 82.2 L128.4 82.2 L128.7 81.8 L128.9 81.7 L129.5 81.4 L129.6 81.3 L129.6 81.2 L129.4 81.1 L129.4 81.0 L129.5 80.9 L129.8 80.8 L130.2 80.8 L130.4 80.8 L130.8 80.6 L131.1 80.6 L131.7 80.7 L132.0 80.6 L132.6 80.4 L133.8 80.3 L134.0 80.2 L131.6 80.5 L130.5 80.2 L130.5 80.1 L130.7 79.9 L130.7 79.8 L131.7 79.2 L132.0 79.0 L132.2 78.7 L131.4 79.1 L131.2 79.2 L131.2 79.3 L131.0 79.4 L130.9 79.5 L130.7 79.5 L130.6 79.5 L130.5 79.6 L130.5 79.8 L130.5 79.9 L130.3 80.1 L130.1 80.2 L129.9 80.3 L129.6 80.3 L129.5 80.3 L129.3 80.5 L129.0 80.5 L128.9 80.6 L128.8 80.8 L128.3 81.1 L128.1 81.2 L127.8 81.2 L127.7 81.2 L127.5 81.5 L127.3 81.6 L127.1 81.6 L127.0 81.7 L126.8 81.8 L126.2 82.3 L125.3 82.9 L124.3 83.3 L124.2 83.4 L124.1 83.3 L123.9 83.1 L123.8 83.1 L123.5 83.0 L123.2 83.0 L123.0 82.9 L122.8 82.8 L123.0 82.5 L123.1 82.4 L123.1 82.3 L123.0 82.3 L122.5 82.7 L121.6 82.6 L119.4 81.6 L119.3 81.5 L119.4 81.3 L119.5 81.1 L119.7 81.1 L120.4 81.1 L120.9 81.1 L121.4 81.3 L121.8 81.5 L121.9 81.4 L121.6 81.2 L121.4 81.1 L121.4 81.0 L123.0 80.4 L123.3 80.4 L124.2 80.6 L124.6 80.7 L125.4 80.7 L125.8 80.6 L126.1 80.5 L124.7 80.6 L124.4 80.6 L123.7 80.3 L123.1 80.2 L121.5 80.7 L121.0 80.8 L120.8 80.8 L120.6 80.7 L120.3 80.6 L120.1 80.6 L119.1 80.6 L118.1 80.5 L117.7 80.5 L117.4 80.6 L117.1 80.7 L116.8 80.7 L116.5 80.6 L116.3 80.5 L116.2 80.4 L116.1 80.3 L116.1 80.2 L116.1 80.1 L116.1 80.0 L116.2 80.0 L116.3 80.0 L116.4 80.0 L116.7 79.7 L116.9 79.6 L119.1 79.5 L119.3 79.4 L119.8 79.2 L120.0 79.2 L120.2 79.2 L120.4 79.3 L120.5 79.4 L120.7 79.5 L121.5 79.7 L121.6 79.7 L121.6 79.6 L121.5 79.4 L121.4 79.3 L121.1 79.3 L121.1 79.2 L121.3 79.2 L121.5 79.2 L121.7 79.2 L121.8 79.3 L122.0 79.2 L122.4 79.1 L122.7 79.1 L123.0 79.2 L121.9 78.9 L121.6 78.7 L121.6 78.6 L121.8 78.4 L123.3 78.3 L123.9 78.2 L124.4 77.9 L124.2 77.9 L123.9 77.9 L123.7 77.9 L123.5 78.2 L123.2 78.2 L122.6 78.1 L122.7 78.0 L123.3 77.6 L122.7 77.5 L121.3 77.7 L120.6 77.6 L121.1 77.5 L121.6 77.5 L121.6 77.4 L121.5 77.4 L121.2 77.2 L121.5 77.0 L121.6 76.7 L121.8 76.4 L121.9 76.1 L122.2 75.9 L122.6 75.8 L123.0 75.7 L123.4 75.7 L123.5 75.8 L123.8 76.1 L124.0 76.2 L124.2 76.3 L124.4 76.4 L124.9 76.4 L125.7 76.3 L126.4 76.1 L126.4 76.0 L126.1 76.1 L125.9 76.1 L125.7 76.2 L125.5 76.1 L125.2 76.2 L124.9 76.2 L124.6 76.1 L124.3 76.0 L124.0 75.9 L124.1 75.8 L124.1 75.6 L123.8 75.4 L123.7 75.4 L123.4 75.5 L123.2 75.5 L123.1 75.5 L122.8 75.4 L122.7 75.3 L122.5 75.2 L122.7 75.0 L123.3 74.5 L123.5 74.4 L123.6 74.3 L123.8 74.3 L124.2 74.4 L124.4 74.3 L124.6 74.2 L125.0 74.3 L125.6 74.5 L125.9 74.6 L127.3 74.6 L127.4 74.6 L127.5 74.5 L127.7 74.5 L128.0 74.5 L128.1 74.5 L128.2 74.5 L128.2 74.4 L127.9 74.3 L126.7 74.4 L126.3 74.5 L126.1 74.5 L126.0 74.5 L125.7 74.2 L125.5 74.1 L124.3 73.9 L124.1 73.8 L124.2 73.5 L124.7 73.1 L124.9 72.9 L124.6 72.7 L125.0 72.4 L125.6 72.2 L126.1 72.2 L126.6 72.3 L127.0 72.6 L127.5 72.8 L128.1 72.7 L128.1 72.6 L127.5 72.6 L127.3 72.5 L127.1 72.3 L127.0 72.2 L126.8 72.2 L126.7 72.1 L126.9 71.8 L127.2 71.6 L127.6 71.6 L127.6 71.5 L127.2 71.4 L127.0 71.5 L126.8 71.7 L126.6 71.8 L126.4 71.8 L125.9 72.0 L125.6 72.1 L125.3 72.0 L124.7 71.9 L124.5 71.9 L123.8 72.0 L123.5 72.0 L123.4 71.8 L123.5 71.7 L123.8 71.3 L123.9 71.2 L124.2 71.1 L124.4 71.0 L124.5 71.0 L124.6 71.0 L124.7 71.1 L124.7 71.2 L125.1 71.1 L126.7 70.7 L127.4 70.4 L127.5 70.0 L127.2 69.9 L126.8 70.2 L126.2 70.7 L125.8 70.8 L125.5 70.8 L125.1 70.7 L124.7 70.7 L125.1 70.5 L125.2 70.4 L125.1 70.3 L125.0 70.1 L125.0 70.0 L124.9 70.0 L124.7 70.2 L123.7 70.9 L123.4 71.0 L122.6 71.0 L122.3 70.9 L122.0 70.4 L122.1 70.4 L122.1 70.4 L122.2 70.3 L122.2 70.3 L122.2 70.2 L122.0 70.1 L122.0 70.1 L122.0 69.9 L122.1 69.8 L122.2 69.7 L122.1 69.6 L121.6 69.6 L121.5 69.5 L121.5 69.4 L121.4 69.1 L121.3 68.9 L121.4 68.8 L121.6 68.6 L121.6 68.5 L121.6 68.3 L121.6 68.1 L121.7 68.0 L121.9 68.0 L121.9 67.9 L121.8 67.8 L121.8 67.7 L122.1 67.6 L122.3 67.7 L122.6 67.7 L123.4 68.2 L123.6 68.3 L123.7 68.2 L124.0 68.4 L124.1 68.5 L124.5 68.7 L124.7 68.7 L124.6 68.6 L124.6 68.5 L124.5 68.4 L124.5 68.4 L125.5 68.3 L126.1 68.3 L126.5 68.3 L126.5 68.2 L126.1 68.0 L125.4 68.0 L124.8 68.0 L124.4 68.2 L123.9 67.9 L124.0 67.8 L124.1 67.7 L123.6 67.6 L123.4 67.4 L123.2 67.1 L122.9 66.9 L122.7 66.8 L122.5 66.8 L122.3 66.8 L122.2 66.6 L122.3 66.4 L122.6 66.2 L122.5 66.1 L122.5 66.0 L123.1 65.8 L123.3 65.8 L123.8 66.1 L123.9 66.1 L124.1 66.0 L124.2 65.8 L124.0 65.8 L123.9 65.7 L123.8 65.6 L123.7 65.5 L123.5 65.5 L122.3 65.3 L122.3 65.2 L122.4 64.8 L122.3 64.6 L122.4 64.5 L122.2 64.2 L122.2 64.0 L122.3 63.9 L122.4 63.7 L122.5 63.6 L122.7 63.5 L123.1 63.4 L123.5 63.4 L123.8 63.5 L124.2 63.6 L124.1 63.8 L124.2 64.1 L124.3 64.4 L124.4 64.6 L124.5 64.8 L124.7 64.9 L125.0 64.9 L125.2 64.9 L125.1 64.9 L125.0 64.8 L124.9 64.6 L125.1 64.6 L125.2 64.6 L125.5 64.7 L125.4 64.4 L125.5 64.2 L125.5 64.0 L125.3 63.8 L124.7 63.5 L124.5 63.4 L124.7 63.2 L124.6 63.2 L124.5 63.2 L124.5 63.1 L124.6 63.0 L125.0 62.7 L125.1 62.6 L125.3 62.8 L125.5 62.8 L126.0 62.8 L125.9 63.2 L126.3 63.5 L126.9 63.7 L127.4 63.7 L127.3 63.6 L127.5 63.5 L127.6 63.1 L127.8 62.9 L128.0 62.9 L128.6 63.1 L128.8 63.2 L129.2 63.4 L129.7 63.6 L130.8 63.8 L130.5 63.6 L130.4 63.5 L130.0 63.4 L129.3 63.1 L128.4 62.8 L128.3 62.8 L128.3 62.7 L128.2 62.7 L128.2 62.6 L128.3 62.5 L128.4 62.5 L128.5 62.6 L128.6 62.6 L128.7 62.4 L128.9 62.5 L129.3 62.8 L129.7 62.9 L129.8 62.9 L130.1 62.8 L130.3 62.8 L130.4 62.9 L130.8 63.0 L130.9 63.0 L131.1 63.1 L131.6 63.4 L132.2 63.5 L132.6 63.9 L132.9 64.0 L132.9 63.9 L132.8 63.8 L132.7 63.7 L132.6 63.6 L132.6 63.5 L131.1 62.8 L130.8 62.7 L130.8 62.6 L131.0 62.6 L131.2 62.5 L131.1 62.4 L131.0 62.2 L130.8 62.1 L130.4 62.0 L130.2 61.9 L129.7 61.9 L129.1 61.5 L128.8 61.4 L128.8 61.4 L128.8 61.4 L128.9 61.3 L128.7 61.2 L128.4 61.1 L127.8 61.1 L127.8 61.1 L127.8 61.0 L127.9 61.0 L128.0 60.9 L128.0 60.8 L127.5 60.4 L127.8 60.2 L128.3 60.3 L128.7 60.6 L129.0 60.5 L129.3 60.6 L129.6 60.6 L130.0 60.3 L129.9 60.3 L129.9 60.2 L129.9 60.1 L129.9 60.0 L129.8 59.9 L130.0 59.9 L130.0 59.8 L129.7 59.6 L129.8 59.6 L130.3 59.5 L130.5 59.5 L130.5 59.4 L130.0 59.4 L129.8 59.3 L129.6 59.3 L129.7 59.2 L129.6 59.1 L129.4 59.0 L129.3 59.0 L129.2 59.0 L129.2 58.9 L129.2 58.7 L129.3 58.7 L129.1 58.7 L128.9 58.6 L128.3 58.1 L128.3 57.8 L128.5 57.8 L128.9 57.9 L129.5 58.1 L129.7 58.1 L130.0 58.1 L130.5 57.9 L130.8 57.8 L131.1 57.8 L131.5 58.0 L131.6 57.9 L131.8 57.8 L132.0 57.7 L132.1 57.7 L132.3 57.7 L132.8 57.9 L133.0 58.0 L133.7 57.9 L133.9 58.0 L134.9 58.4 L134.8 58.2 L134.6 58.1 L134.2 58.0 L134.4 57.9 L134.8 57.8 L135.0 57.8 L134.1 57.7 L133.8 57.7 L133.7 57.7 L133.5 57.8 L133.4 57.9 L133.2 57.8 L132.9 57.7 L132.8 57.7 L132.6 57.6 L132.1 57.3 L132.0 57.2 L132.0 57.1 L131.7 56.9 L131.6 56.9 L131.5 56.7 L131.5 56.6 L131.5 56.5 L131.7 56.5 L131.6 56.3 L131.6 56.2 L131.7 56.0 L131.8 55.9 L131.9 55.8 L131.8 55.7 L131.8 55.6 L131.9 55.6 L132.0 55.6 L132.2 55.7 L132.3 55.7 L133.1 56.0 L133.7 56.0 L133.3 55.8 L133.2 55.7 L133.2 55.6 L133.1 55.5 L133.0 55.6 L132.9 55.6 L132.7 55.6 L132.5 55.6 L132.5 55.5 L132.7 55.5 L132.7 55.5 L132.7 55.4 L132.6 55.4 L132.6 55.4 L132.4 55.3 L133.2 55.0 L133.6 55.1 L134.0 55.3 L132.4 54.5 L132.4 54.3 L132.5 54.2 L132.6 54.1 L133.3 53.8 L133.6 53.7 L133.7 53.5 L133.6 53.5 L133.7 53.2 L133.8 52.9 L133.9 52.7 L134.1 52.5 L136.0 52.7 L136.3 52.8 L136.6 53.0 L136.6 53.1 L136.7 53.3 L136.8 53.5 L136.8 53.5 L136.8 53.7 L136.8 53.8 L136.7 53.9 L136.6 54.0 L136.9 53.9 L137.0 53.8 L137.0 53.6 L137.0 53.5 L137.1 53.2 L137.2 53.2 L137.3 53.1 L137.2 52.8 L137.5 52.9 L137.9 53.2 L138.1 53.3 L138.5 53.5 L138.7 53.5 L138.9 53.6 L138.9 53.7 L138.8 53.8 L138.8 53.9 L138.6 54.0 L138.1 54.3 L137.8 54.6 L137.6 54.9 L137.4 55.1 L137.7 55.1 L138.6 54.6 L138.7 54.5 L138.8 54.3 L139.0 54.2 L139.3 54.1 L139.6 54.0 L139.7 53.8 L139.8 53.5 L140.0 53.3 L140.3 53.2 L140.9 53.3 L141.6 53.4 L142.3 53.7 L142.3 53.8 L142.2 53.9 L142.2 53.9 L142.3 54.0 L141.9 54.2 L141.7 54.5 L141.5 54.8 L141.3 55.1 L141.5 55.0 L141.8 54.9 L142.2 54.6 L142.2 54.5 L142.2 54.5 L142.2 54.4 L142.2 54.4 L142.3 54.4 L142.9 54.0 L142.9 54.0 L143.5 53.8 L143.8 53.7 L144.0 53.7 L144.3 53.7 L144.7 54.0 L145.0 54.0 L144.8 53.9 L145.0 53.8 L145.1 53.7 L145.1 53.7 L145.2 53.6 L145.4 53.6 L145.7 53.7 L145.9 53.7 L146.0 53.6 L146.1 53.5 L146.3 53.4 L146.8 53.4 L147.1 53.5 L147.3 53.5 L147.4 53.4 L147.5 53.3 L147.7 53.1 L147.9 53.0 L148.0 53.0 L148.0 53.0 L148.0 53.0 L148.3 53.3 L148.4 53.3 L148.7 53.3 L149.9 53.4 L151.2 53.3 L151.8 53.1 L152.8 52.8 L153.4 52.6 L154.3 52.5 L154.7 52.5 L155.1 52.6 L154.9 52.7 L154.9 52.7 L155.2 52.9 L155.6 52.9 L156.4 52.7 L157.2 52.9 L157.6 52.9 L157.8 52.6 L157.6 52.6 L157.3 52.5 L157.1 52.3 L156.9 52.1 L157.3 51.9 L157.5 51.8 L157.7 51.8 L157.8 51.9 L157.8 52.0 L157.9 52.2 L158.0 52.2 L158.4 52.2 L159.4 52.1 L160.0 52.0 L160.7 52.3 L161.2 52.3 L162.1 52.2 L162.6 52.3 L162.5 52.6 L162.3 52.9 L162.2 53.1 L162.0 53.2 L161.8 53.5 L161.7 53.6 L161.3 53.8 L161.2 53.9 L161.0 54.2 L161.0 54.4 L161.2 54.6 L161.5 54.7 L161.7 54.7 L161.8 54.6 L162.0 54.6 L162.1 54.7 L162.1 54.9 L162.1 55.0 L161.9 55.1 L161.8 55.1 L161.7 55.6 L161.0 56.3 L160.3 56.8 L159.7 57.2 L159.1 57.4 L157.9 57.6 L157.3 57.8 L156.6 58.2 L156.4 58.3 L156.3 58.6 L156.1 58.8 L155.5 59.2 L152.3 60.6 L151.2 60.8 L150.9 61.0 L150.8 61.1 L150.7 61.4 L150.6 61.5 L150.5 61.6 L150.1 61.7 L149.6 61.8 L148.7 62.1 L148.6 62.2 L148.5 62.3 L148.4 62.4 L148.4 62.5 L148.2 62.5 L148.1 62.4 L148.2 62.3 L148.0 62.3 L147.6 62.3 L147.2 62.1 L147.1 62.2 L147.2 62.3 L147.3 62.4 L147.5 62.5 L148.0 62.5 L148.2 62.6 L148.3 62.6 L148.6 62.9 L148.3 63.2 L148.2 63.3 L148.3 63.5 L148.1 63.5 L147.6 63.4 L147.4 63.4 L147.3 63.5 L147.0 63.7 L146.9 63.7 L146.5 63.7 L145.7 63.5 L145.3 63.4 L144.1 63.6 L143.8 63.5 L143.3 63.1 L143.0 63.0 L142.8 62.9 L143.5 63.5 L144.0 63.8 L144.5 63.8 L145.1 63.7 L145.4 63.6 L145.7 63.8 L145.9 63.9 L146.3 64.1 L146.5 64.1 L146.4 63.8 L147.4 64.2 L147.9 64.2 L148.7 63.9 L149.1 63.9 L149.4 64.1 L149.2 64.3 L149.7 64.4 L150.2 64.3 L150.7 64.0 L151.1 63.7 L151.4 63.5 L151.5 63.5 L151.6 63.7 L151.6 63.9 L151.5 64.1 L149.5 65.4 L149.2 65.6 L148.8 65.9 L148.6 66.0 L148.3 66.0 L148.1 66.0 L148.0 65.8 L148.2 65.6 L147.8 65.4 L147.3 65.5 L146.2 66.1 L146.0 66.1 L145.6 66.1 L144.7 66.3 L144.4 66.2 L144.2 66.2 L144.1 66.4 L144.0 66.6 L143.7 66.7 L143.5 66.7 L142.6 67.3 L142.5 67.3 L142.4 67.5 L142.2 67.7 L142.3 67.7 L142.5 67.6 L142.9 67.5 L143.2 67.4 L143.4 67.3 L143.5 67.1 L143.7 67.0 L144.3 66.8 L144.9 66.5 L145.5 66.3 L145.6 66.3 L145.8 66.3 L146.0 66.5 L146.7 66.6 L147.0 66.5 L147.3 66.4 L147.5 66.3 L148.1 66.1 L148.3 66.1 L148.4 66.3 L148.1 66.6 L147.7 66.9 L147.2 67.1 L146.7 67.5 L146.8 67.6 L146.8 67.6 L146.9 67.7 L146.9 67.7 L146.2 67.7 L146.0 67.8 L145.7 68.0 L145.9 68.1 L145.8 68.1 L145.4 68.1 L144.6 68.1 L144.6 68.2 L145.1 68.2 L145.2 68.2 L145.4 68.3 L145.2 68.6 L145.0 68.8 L144.8 68.9 L145.4 69.0 L145.6 69.0 L145.9 68.9 L146.2 68.7 L146.3 68.6 L146.3 68.6 L146.6 68.6 L146.8 68.5 L147.0 68.3 L147.2 68.2 L147.5 68.1 L147.7 68.1 L147.9 68.0 L147.8 67.9 L147.2 67.6 L147.6 67.6 L149.0 67.5 L150.3 67.6 L150.8 67.5 L153.0 66.6 L153.9 66.5 L153.8 66.7 L153.7 66.7 L153.6 66.8 L153.8 66.9 L153.9 66.9 L154.1 66.8 L154.4 66.8 L154.1 66.4 L154.6 66.5 L154.9 66.5 L155.2 66.5 L155.4 66.4 L155.6 66.3 L155.7 66.1 L155.7 65.9 L155.8 65.8 L155.9 65.7 L156.1 65.8 L156.2 65.8 L156.4 65.8 L156.8 65.6 L157.0 65.6 L158.8 65.6 L159.9 66.0 L161.8 66.4 L162.4 66.4 L163.0 66.3 L163.9 65.9 L164.1 65.9 L166.4 65.9 L166.5 65.9 L166.7 66.1 L166.8 66.1 L167.0 66.1 L167.1 66.0 L167.2 66.0 L167.4 66.1 L167.9 66.0 L169.1 66.2 L169.5 66.2 L169.8 66.4 L169.9 66.4 L170.0 66.3 L170.2 66.2 L170.4 66.2 L171.1 66.4 L171.2 66.3 L171.3 66.3 L171.5 66.4 L171.6 66.4 L171.8 66.4 L172.0 66.2 L172.2 66.2 L172.5 66.3 L172.6 66.3 L172.7 66.2 L172.8 66.2 L172.9 66.1 L173.0 66.0 L173.1 66.0 L173.4 66.0 L174.1 66.2 L174.4 66.3 L174.7 66.3 L175.6 65.9 L175.8 65.9 L177.4 65.9 L177.4 66.0 L177.5 66.1 L177.6 66.2 L177.8 66.3 L178.0 66.3 L178.2 66.2 L178.4 66.2 L178.5 66.3 L178.6 66.5 L179.9 67.2 L180.0 67.4 L180.0 67.7 L180.1 68.0 L180.3 68.2 L180.3 68.3 L180.3 68.5 L180.4 68.6 L180.8 68.9 L180.6 68.9 L180.5 69.0 L180.6 69.1 L180.7 69.2 L180.9 69.2 L180.8 69.3 L180.4 69.5 L179.8 69.9 L179.6 70.2 L179.6 70.4 L178.0 71.1 L177.7 71.5 L176.7 72.8 L176.4 73.5 L176.3 73.8 L176.4 74.1 L176.6 74.2 L176.7 74.4 L176.4 74.6 L176.4 74.6 L175.1 75.8 L174.7 76.3 L174.5 76.8 L174.5 76.9 L174.6 77.0 L174.7 77.1 L174.7 77.3 L174.6 77.4 L174.4 77.6 L174.3 77.7 L174.2 77.9 L174.0 78.1 L173.5 78.3 L173.1 78.6 L172.8 78.9 L172.5 79.1 L171.7 79.4 L171.5 79.5 L171.2 79.7 L171.1 79.8 L171.0 79.9 L170.9 80.5 L170.7 80.7 L170.5 80.9 L170.3 81.1 L170.3 81.2 L170.4 81.4 L170.4 81.5 L170.4 81.6 L170.1 81.7 L169.9 82.0 L169.7 82.1 L168.4 82.7 L168.1 83.0 L167.8 83.1 L167.3 83.3 L167.1 83.4 L166.9 83.8 L166.7 83.8 L166.6 83.8 L166.5 83.7 L166.3 83.7 L165.5 83.7 L162.1 84.0 L162.0 84.0 L161.5 84.2 L161.0 84.4 L159.5 85.2 L158.9 85.4 L158.2 85.3 L158.4 85.4 L158.7 85.4 L159.3 85.4 L159.6 85.4 L160.2 85.2 L160.7 85.1 L163.6 84.3 L163.8 84.2 L163.9 84.1 L164.2 84.0 L164.6 83.9 L164.8 84.0 L165.1 84.2 L165.6 84.2 L165.8 84.4 L165.8 84.6 L165.7 84.9 L165.5 85.1 L165.3 85.3 L165.6 85.3 L165.7 85.3 L165.7 85.5 L165.8 85.6 L165.9 85.6 L166.1 85.6 L166.2 85.6 L166.3 85.7 L167.6 85.8 L167.9 85.9 L168.4 86.1 L168.5 86.2 L169.0 86.4 L169.0 86.5 L168.3 87.0 L168.0 87.2 L167.7 87.3 L167.0 87.4 L166.0 87.8 L165.7 87.8 L165.4 87.8 L164.5 87.5 L163.8 87.5 L163.4 87.6 L163.3 87.7 L163.2 87.8 L162.4 88.1 L161.6 88.6 L161.4 88.7 L161.1 88.8 L160.9 88.9 L160.7 89.4 L160.5 89.6 L160.3 89.7 L159.3 89.7 L159.0 89.8 L158.5 90.0 L158.0 90.2 L157.4 90.2 L156.8 90.2 L154.5 89.8 L153.2 89.8 L152.6 89.7 L152.1 89.5 L152.1 89.5 L151.6 89.2 L151.3 89.0 L151.1 88.9 L150.8 88.9 L150.8 89.0 L151.7 89.4 L151.8 89.5 L151.9 89.5 L152.4 90.0 L152.5 90.1 L152.6 90.1 L152.9 90.1 L153.0 90.1 L153.1 90.2 L153.1 90.3 L153.2 90.4 L153.4 90.4 L154.2 90.3 L154.6 90.3 L157.0 90.7 L157.7 90.7 L158.0 90.6 L158.1 90.6 L158.3 90.8 L158.5 90.9 L161.2 91.0 L161.3 91.0 L161.5 91.2 L161.6 91.3 L161.8 91.3 L162.7 91.3 L163.8 91.0 L164.1 90.8 L164.4 90.6 L164.6 90.4 L165.0 90.4 L164.9 90.2 L164.8 90.2 L164.8 90.1 L165.0 90.0 L165.5 89.7 L165.8 89.6 L168.2 89.7 L168.5 89.8 L168.9 90.1 L169.1 90.2 L169.0 90.4 L168.9 90.5 L169.1 90.6 L169.5 90.5 L169.7 90.6 L169.8 90.5 L169.9 90.5 L170.0 90.4 L170.2 90.5 L170.8 90.8 L171.4 90.9 L172.3 91.3 L172.9 91.5 L175.3 91.7 L175.4 91.8 L175.5 91.9 L175.5 92.0 L175.5 92.1 L175.6 92.2 L176.0 92.3 L176.2 92.4 L177.1 93.4 L177.3 93.6 L179.2 95.0 L179.4 95.3 L179.5 95.5 L179.8 95.6 L179.9 95.7 L180.0 95.8 L180.0 95.9 L180.2 95.8 L180.3 95.8 L180.3 95.7 L180.4 95.7 L180.6 95.7 L180.7 95.7 L180.9 95.9 L181.0 96.1 L180.7 96.1 L180.7 96.2 L180.9 96.2 L181.4 96.1 L181.7 96.2 L182.7 96.6 L182.7 96.7 L182.7 96.8 L182.7 96.9 L182.8 97.0 L182.9 97.1 L182.7 97.2 L182.7 97.3 L182.9 97.3 L183.1 97.4 L183.1 97.5 L183.0 97.7 L183.1 97.7 L183.2 97.8 L183.3 97.9 L183.4 98.0 L183.5 99.0 L183.4 99.1 L183.4 99.4 L183.3 99.5 L183.3 99.6 L183.4 99.9 L183.8 100.3 L183.8 100.5 L183.8 100.6 L183.8 100.7 L183.7 100.7 L183.7 100.8 L183.6 100.9 L183.6 101.0 L183.7 101.1 L183.7 101.2 L183.8 101.3 L184.0 101.5 L184.3 101.7 L184.2 101.9 L184.3 102.0 L184.4 102.1 L184.5 102.2 L184.5 102.4 L184.4 102.5 L184.3 102.6 L184.4 102.8 L184.6 103.0 L184.7 103.1 L184.7 103.4 L184.9 103.7 L184.9 103.8 L185.0 103.8 L185.2 103.9 L185.2 103.9 L185.2 103.9 L185.3 104.0 L185.5 104.4 L185.7 104.5 L185.7 104.7 L185.8 104.9 L185.9 105.0 L186.1 105.1 L186.1 105.1 L186.5 105.4 L186.6 105.5 L186.6 105.6 L186.6 105.7 L186.6 105.8 L186.6 106.1 L186.7 106.2 L186.8 106.3 L186.7 106.4 L187.6 108.2 L187.9 108.7 L188.4 109.1 L188.6 109.2 L189.4 109.4 L189.4 109.5 L189.1 109.5 L189.1 109.5 L189.1 109.6 L189.2 109.7 L189.2 109.8 L189.3 109.9 L189.4 110.0 L189.5 110.1 L189.4 110.2 L189.2 110.3 L188.9 110.3 L188.9 110.4 L189.0 110.5 L189.1 110.5 L189.2 110.5 L189.3 110.5 L189.3 110.5 L189.3 110.4 L189.4 110.4 L189.4 110.5 L189.5 110.5 L189.5 110.6 L189.5 110.6 L189.7 110.6 L189.7 110.6 L189.9 110.1 L190.1 110.3 L190.4 110.5 L190.6 110.5 L191.3 110.6 L192.0 110.8 L194.9 111.4 L198.2 112.6 L198.6 112.8 L198.8 113.0 L198.8 113.2 L198.8 113.3 L198.8 113.4 L199.0 113.5 L199.4 113.8 L199.6 113.9 L199.9 114.1 L200.1 114.4 L200.3 114.8 L200.3 115.1 L200.3 115.2 L200.4 115.3 L200.5 115.4 L200.7 115.4 L200.6 115.6 L200.6 115.6 L200.7 115.7 L201.0 115.9 L201.1 116.0 L201.7 116.1 L201.8 116.2 L202.0 116.3 L202.3 116.4 L202.4 116.5 L202.5 116.9 L202.6 116.9 L203.0 117.2 L204.7 117.6 L205.2 117.9 L204.0 118.3 L203.5 118.6 L203.2 119.2 L203.5 119.6 L203.9 120.5 L204.2 121.0 L205.7 122.4 L208.3 124.7 L208.5 125.2 L208.3 125.6 L208.2 125.7 L207.9 125.8 L208.2 125.4 L208.3 125.1 L208.1 125.0 L207.8 125.0 L207.2 124.7 L206.8 124.6 L206.6 124.7 L206.0 124.9 L205.7 124.9 L205.3 124.9 L205.0 124.8 L204.7 124.8 L204.5 124.6 L203.1 123.6 L202.6 123.3 L202.1 123.3 L201.9 123.3 L200.1 123.6 L199.8 123.6 L199.0 123.6 L198.5 123.7 L198.4 123.7 L198.0 123.5 L198.0 123.4 L197.1 123.4 L196.8 123.4 L195.8 123.8 L196.0 123.9 L196.1 123.9 L196.2 124.0 L196.3 124.0 L196.5 123.8 L196.9 123.7 L197.4 123.7 L197.7 123.7 L198.3 124.0 L198.5 124.1 L198.7 124.2 L198.9 124.1 L199.3 123.9 L201.9 123.6 L202.3 123.7 L202.6 124.0 L203.6 125.0 L204.3 125.2 L204.7 125.5 L205.0 125.6 L205.5 125.7 L205.7 125.7 L206.3 126.2 L207.7 126.9 L208.0 127.0 L208.3 127.0 L208.5 127.1 L208.8 127.3 L208.8 127.4 L208.8 127.5 L208.9 127.6 L209.0 127.7 L209.1 127.7 L209.5 127.9 L209.4 128.0 L209.7 128.1 L209.9 128.3 L210.1 128.6 L210.1 128.7 L211.3 130.7 L211.5 131.3 L211.5 131.9 L211.2 132.6 L211.1 132.7 L211.0 132.8 L210.7 132.8 L210.4 132.9 L209.1 133.7 L208.9 133.8 L208.7 133.9 L207.5 134.9 L207.2 135.1 L206.9 135.2 L206.7 135.2 L206.5 135.4 L206.5 135.6 L206.9 135.6 L207.7 135.5 L207.9 135.6 L208.3 135.8 L208.5 135.8 L208.8 136.0 L209.6 136.7 L209.9 136.9 L210.2 136.8 L210.5 136.8 L211.1 136.8 L211.3 136.9 L211.7 137.3 L211.9 137.3 L211.9 137.2 L211.8 137.0 L212.1 136.7 L212.5 136.5 L212.7 136.3 L212.8 135.9 L213.0 135.5 L213.2 135.2 L213.4 134.9 L213.9 134.6 L214.6 134.4 L215.4 134.3 L216.1 134.4 L216.0 134.2 L216.3 134.2 L216.6 134.2 L216.9 134.3 L217.2 134.4 L218.4 134.4 L219.0 134.4 L219.7 134.6 L220.4 134.7 L221.0 134.6 L220.9 134.5 L220.7 134.5 L220.5 134.4 L220.3 134.4 L220.3 134.4 L224.8 135.0 L226.6 135.6 L230.1 137.2 L230.6 137.5 L230.9 137.9 L231.2 138.6 L231.4 139.0 L231.6 139.4 L231.5 139.7 L231.6 139.9 L231.7 140.2 L231.6 140.7 L232.0 141.4 L231.9 141.6 L231.7 141.7 L231.4 142.4 L231.4 142.6 L231.4 142.7 L230.7 143.8 L230.3 144.3 L230.1 144.4 L229.9 144.5 L229.9 144.9 L230.0 145.6 L229.9 145.8 L229.6 146.3 L229.6 146.6 L229.3 147.0 L229.3 147.2 L229.2 147.3 L228.1 147.6 L227.9 147.7 L227.7 147.6 L227.6 147.8 L227.5 147.9 L227.4 148.0 L227.3 148.1 L227.0 148.4 L226.0 149.1 L225.8 149.3 L225.6 149.3 L224.6 148.5 L224.2 148.5 L223.5 148.1 L223.1 148.0 L223.1 148.1 L223.6 148.4 L223.9 148.6 L224.6 148.7 L224.7 148.7 L224.8 148.8 L224.8 149.0 L224.7 149.1 L224.4 149.0 L224.3 149.1 L224.0 149.1 L223.8 149.1 L223.6 149.1 L223.2 148.9 L222.9 148.9 L222.2 149.1 L221.8 149.1 L222.2 149.2 L224.6 149.3 L224.9 149.2 L224.9 149.5 L223.7 150.2 L223.9 150.3 L224.1 150.4 L224.6 150.4 L224.8 150.3 L224.9 150.2 L225.0 150.2 L225.0 150.5 L224.8 150.7 L224.0 151.2 L223.2 151.5 L222.8 151.6 L221.8 151.7 L221.5 151.7 L221.4 151.6 L221.1 151.3 L220.7 150.9 L220.5 150.7 L220.5 151.0 L220.3 151.2 L219.7 151.3 L219.3 151.6 L219.2 151.6 L219.2 151.7 L219.1 151.9 L219.1 152.0 L219.0 152.1 L218.8 152.1 L218.6 152.3 L218.4 152.3 L218.3 152.3 L217.9 152.2 L217.8 152.2 L217.4 152.2 L216.8 152.4 L216.5 152.5 L216.7 152.6 L216.9 152.6 L217.2 152.7 L217.4 152.9 L217.8 152.7 L218.7 152.5 L219.1 152.4 L219.6 152.2 L219.8 152.2 L220.0 152.3 L220.1 152.4 L220.0 152.6 L220.0 152.7 L219.9 152.7 L220.0 152.8 L220.0 152.9 L220.1 153.1 L220.0 153.2 L219.9 153.3 L219.9 153.6 L219.9 153.7 L219.8 153.8 L219.5 153.9 L219.9 153.9 L220.1 153.9 L220.1 154.0 L219.7 154.4 L219.0 154.8 L218.3 155.1 L218.2 155.2 L217.5 155.3 L216.4 155.2 L216.0 155.2 L216.0 155.2 L215.8 155.2 L215.7 155.2 L215.7 155.2 L215.6 155.2 L215.4 155.4 L215.2 155.4 L215.0 155.4 L214.8 155.5 L214.6 155.6 L214.3 155.4 L214.3 155.4 L213.9 155.4 L212.9 155.6 L212.9 155.7 L212.8 155.9 L212.7 156.0 L212.5 156.2 L212.3 156.2 L212.1 156.3 L211.9 156.4 L212.8 156.3 L213.0 156.2 L213.0 156.1 L213.1 156.0 L213.1 156.0 L214.1 155.8 L216.4 156.0 L216.6 156.1 L216.8 156.3 L216.8 156.5 L216.7 156.5 L216.4 156.6 L215.8 156.5 L215.6 156.5 L215.2 156.8 L214.6 156.9 L214.4 157.0 L214.5 157.0 L214.6 157.1 L214.7 157.2 L214.8 157.3 L216.1 157.3 L216.7 157.4 L216.5 157.2 L216.5 157.0 L216.6 156.9 L216.9 156.9 L216.9 157.1 L217.0 157.3 L217.2 157.6 L217.4 157.7 L220.5 157.9 L222.3 157.5 L227.0 157.3 L227.3 157.4 L227.2 157.9 L227.1 158.0 L227.1 158.0 L227.0 158.1 L226.9 158.2 L226.4 158.2 L226.3 158.2 L226.3 158.5 L226.4 158.8 L226.7 159.1 L226.8 159.7 L226.7 160.3 L226.4 160.7 L226.0 161.0 L225.0 161.2 L224.6 161.4 L224.5 161.4 L224.1 161.4 L224.0 161.5 L223.8 161.6 L223.7 161.7 L223.6 161.7 L223.3 161.8 L222.4 161.8 L222.1 161.9 L221.8 162.0 L221.2 162.3 L220.5 163.0 L220.3 163.2 L220.4 163.6 L220.5 164.1 L220.0 164.2 L218.9 164.0 L218.0 163.8 L217.4 163.9 L216.0 164.8 L215.4 165.0 L212.2 165.4 L211.7 165.6 L211.6 165.6 L211.5 165.7 L211.3 165.8 L211.3 165.9 L210.8 166.1 L210.3 166.6 L209.7 166.6 L209.4 166.6 L208.8 166.4 L208.6 166.4 L208.1 166.4 L208.0 166.3 L207.7 166.2 L207.5 166.1 L206.8 166.1 L206.6 166.0 L203.8 165.4 L203.4 165.4 L203.3 165.4 L203.0 165.5 L202.4 165.4 L200.6 165.8 L198.1 165.8 L195.7 166.3 L195.6 166.3 L195.5 166.2 L195.4 166.2 L195.2 166.2 L195.2 166.3 L195.3 166.6 L195.2 166.7 L194.9 166.8 L194.6 166.8 L193.3 166.2 L193.1 166.1 L193.2 166.0 L193.4 165.9 L193.8 165.8 L193.8 165.7 L193.7 165.6 L193.4 165.5 L193.2 165.4 L193.2 165.5 L193.0 165.5 L192.9 165.5 L193.0 165.3 L192.9 165.2 L192.7 165.2 L192.3 165.1 L191.9 165.1 L191.8 165.1 L191.6 165.2 L191.4 165.5 L191.2 165.8 L191.1 166.1 L190.7 166.1 L190.4 165.9 L190.5 165.6 L190.8 165.4 L190.9 165.2 L190.6 165.1 L190.6 165.1 L189.7 165.2 L189.5 165.2 L190.0 165.5 L190.1 165.6 L190.1 165.8 L190.1 166.0 L189.9 166.1 L189.7 166.1 L189.4 166.0 L189.2 165.9 L189.1 165.8 L189.0 165.7 L188.5 165.6 L188.2 165.4 L187.7 165.3 L187.5 165.2 L187.3 165.0 L187.0 164.8 L185.4 164.2 L185.1 164.1 L185.1 164.2 L185.3 164.3 L185.5 164.4 L185.7 164.4 L186.1 164.7 L187.2 165.5 L187.3 165.7 L187.3 165.8 L186.9 165.9 L186.0 165.9 L185.8 166.0 L185.9 166.0 L186.0 166.1 L186.0 166.2 L185.3 166.3 L185.0 166.4 L184.8 166.4 L184.7 166.4 L184.3 166.4 L183.8 166.9 L183.8 167.0 L183.7 167.0 L183.5 166.9 L183.2 166.8 L182.2 166.7 L182.1 166.7 L181.8 166.7 L181.5 166.8 L181.0 166.9 L180.7 167.0 L180.3 166.9 L179.8 166.9 L179.5 166.9 L179.2 166.9 L178.9 167.0 L178.9 167.0 L178.6 167.2 L178.4 167.3 L178.3 167.4 L178.2 167.3 L178.2 167.2 L178.1 167.1 L177.6 167.0 L177.2 167.0 L177.1 167.0 L177.0 166.9 L177.0 166.9 L176.9 166.7 L176.8 166.7 L176.7 166.8 L176.2 167.3 L176.4 167.3 L176.6 167.2 L176.7 167.2 L176.9 167.1 L177.2 167.4 L177.4 167.5 L177.6 167.6 L177.9 167.6 L178.1 167.6 L178.2 167.7 L178.1 168.0 L178.3 168.1 L178.4 168.1 L177.9 168.5 L177.9 168.7 L177.6 168.8 L176.4 168.8 L176.2 168.8 L175.1 168.4 L172.4 168.2 L171.9 168.0 L171.6 168.1 L171.1 168.2 L170.9 168.3 L170.7 168.6 L170.6 168.9 L170.8 169.1 L171.1 169.2 L171.2 169.3 L171.0 169.6 L170.8 169.8 L170.7 169.8 L170.7 169.2 L170.4 168.9 L167.4 167.4 L164.9 166.8 L164.5 166.8 L163.7 166.9 L163.5 166.9 L162.9 167.2 L162.6 167.2 L162.0 167.1 L161.9 167.1 L161.6 167.3 L161.5 167.3 L161.2 167.4 L161.1 167.5 L160.9 167.5 L160.7 167.4 L160.5 167.4 L160.2 167.4 L159.7 167.6 L159.2 167.6 L159.0 167.8 L158.9 168.0 L158.6 168.2 L157.6 168.5 L157.3 168.5 L157.0 168.4 L156.8 168.3 L156.6 168.1 L156.5 167.7 L156.4 167.7 L156.4 167.7 L156.3 167.6 L156.3 167.6 L156.2 167.6 L156.1 167.6 L156.1 167.7 L156.1 167.8 L156.3 167.9 L156.5 168.4 L156.6 168.6 L156.4 168.7 L156.2 168.9 L155.9 169.2 L155.8 169.5 L155.6 169.9 L155.6 170.2 L155.9 170.8 L155.5 170.8 L155.2 170.8 L155.0 170.9 L154.9 171.2 L155.0 171.4 L155.2 171.5 L155.9 171.5 L155.9 171.5 L155.7 171.8 L155.7 171.9 L155.6 171.9 L155.5 171.9 L155.4 172.0 L155.3 172.3 L155.1 172.4 L154.9 172.4 L154.7 172.2 L154.6 172.6 L154.2 172.7 L153.9 172.7 L153.8 172.9 L153.7 173.1 L153.5 173.4 L153.5 173.8 L153.6 174.1 L153.4 174.2 L152.8 174.3 L152.5 174.3 L152.2 174.3 L151.9 174.2 L151.7 174.2 L151.5 174.3 L151.0 174.0 L150.1 173.3 L149.2 172.8 L149.0 172.7 L148.9 172.8 L148.5 172.9 L148.4 172.9 L148.3 173.0 L148.1 173.1 L148.0 173.1 L147.8 173.1 L147.7 173.1 L147.4 172.9 L147.5 172.9 L147.5 172.7 L147.2 172.7 L146.9 172.5 L146.7 172.3 L146.9 172.0 L146.4 172.1 L146.2 172.0 L146.0 172.0 L146.0 171.9 L145.9 171.8 L145.8 171.6 L145.7 171.4 L145.8 171.2 L146.0 171.0 L146.1 170.8 L145.8 170.8 L145.7 170.8 L145.5 170.8 L145.5 170.9 L145.5 170.9 L145.4 171.0 L145.2 171.1 L145.0 171.1 L145.0 171.2 L145.3 171.2 L145.3 171.4 L145.3 171.5 L145.1 171.7 L144.9 171.7 L144.2 171.7 L144.5 171.9 L145.3 171.8 L145.6 172.0 L145.1 172.0 L145.1 172.1 L145.3 172.1 L145.5 172.1 L145.4 172.2 L145.8 172.2 L145.8 172.3 L145.7 172.4 L145.6 172.5 L145.6 172.6 L145.6 172.7 L145.6 172.7 L145.3 172.7 L145.2 172.6 L145.0 172.3 L144.8 172.2 L143.5 172.0 L142.9 172.1 L141.8 172.5 L141.3 172.7 L138.9 172.7 L138.9 172.8 L138.8 172.8 L138.8 172.8 L138.7 172.8 L138.5 172.4 L138.4 172.4 L138.3 172.5 L138.2 172.5 L138.1 172.5 L137.8 172.6 L137.6 172.6 L137.4 172.7 L137.5 172.9 L137.5 173.0 L137.4 173.1 L137.3 173.2 L137.1 173.3 L137.1 173.4 L137.1 173.5 L137.2 173.6 L137.2 173.6 L137.0 173.9 L137.0 174.0 L136.9 174.1 L136.1 174.0 L135.9 174.1 L135.6 174.3 L135.3 174.4 L134.7 174.5 L134.5 174.7 L133.9 175.3 L133.8 175.1 L133.7 174.6 L133.5 174.5 L133.2 174.6 L133.2 174.7 L133.2 174.9 L133.0 175.0 L133.0 175.1 L133.1 175.2 L133.3 175.3 L133.2 175.3 L133.1 175.3 L132.9 175.4 L132.8 175.5 L132.8 175.6 L132.8 175.7 L132.7 175.8 L132.6 175.9 L132.1 176.0 L132.3 176.0 L132.4 176.0 L132.6 176.1 L132.7 176.1 L132.9 176.1 L132.9 176.1 L133.0 176.2 L133.0 176.4 L133.1 176.4 L133.1 176.5 L133.0 176.8 L132.5 177.2 L132.4 177.2 L132.1 177.2 L131.9 177.2 L131.8 177.3 L131.4 177.6 L131.2 177.9 L131.2 178.0 L131.1 178.0 L130.9 177.9 L130.5 177.6 L130.4 177.5 L130.4 177.4 L130.3 177.2 L130.3 177.1 L130.3 177.0 L130.2 176.9 L129.8 176.4 L129.6 176.2 L129.3 176.1 L128.4 175.8 L127.8 175.8 L127.3 175.6 L127.1 175.5 L126.8 175.5 L126.4 175.6 L126.1 175.8 L126.1 176.0 L126.2 176.2 L126.1 176.4 L125.8 176.5 L125.6 176.6 L125.0 176.7 L124.3 176.8 L123.8 176.7 L123.6 176.2 L123.7 176.2 L123.8 176.2 L123.9 176.1 L123.9 176.0 L123.9 176.0 L123.8 175.9 L123.8 175.9 L123.7 175.6 L123.7 175.5 L123.8 175.4 L123.8 175.4 L124.1 175.1 L124.2 175.0 L124.6 174.9 L125.5 174.6 L126.0 174.5 L126.6 174.2 L126.9 174.2 L127.3 174.5 L127.6 174.6 L127.9 174.5 L128.1 174.3 L128.2 174.1 L128.3 174.0 L128.4 173.9 L128.9 173.9 L129.4 173.7 L131.1 172.6 L131.6 172.4 L131.8 172.3 L131.8 172.3 L131.9 172.1 L131.8 171.9 L131.7 171.6 L131.9 171.6 L132.1 171.5 L132.2 171.5 L133.2 171.2 L133.3 171.1 L133.4 170.9 L133.5 170.4 L133.5 170.1 L133.6 169.8 L133.7 169.6 L134.0 169.5 L134.3 169.5 L134.4 169.4 L134.6 169.3 L134.7 169.3 L134.8 169.3 L134.9 169.5 L134.9 169.7 L134.9 169.9 L135.0 169.8 L135.1 169.8 L135.1 169.8 L135.4 169.9 L136.0 169.9 L136.2 170.0 L136.0 169.8 L135.8 169.7 L135.3 169.6 L135.1 169.4 L135.1 169.2 L135.2 169.1 L135.1 169.0 L135.1 168.9 L135.5 168.9 L136.6 168.9 L137.0 168.8 L137.2 168.6 L137.4 168.3 L137.6 168.1 L137.5 167.9 L137.6 167.7 L137.7 167.6 L137.9 167.7 L138.9 167.1 L139.1 166.9 L139.2 166.7 L139.5 166.5 L140.1 166.2 L140.5 165.7 L140.4 164.4 L140.6 163.8 L140.7 163.7 L140.9 163.3 L140.8 163.2 L140.8 163.0 L140.7 162.8 L140.8 162.7 L142.1 162.7 L142.3 162.7 L142.6 162.9 L142.7 162.9 L143.5 163.0 L143.8 162.9 L144.1 162.8 L145.0 162.1 L145.1 162.0 L145.2 162.0 L145.3 161.9 L145.4 161.8 L145.3 161.7 L145.2 161.3 L145.1 161.2 L145.1 161.1 L144.8 160.9 L144.7 160.7 L145.2 160.8 L145.3 160.7 L145.4 160.6 L145.4 160.4 L145.3 160.3 L145.1 160.2 L145.1 160.1 L146.2 159.9 L148.9 159.7 L149.4 159.6 L149.7 159.6 L150.7 159.6 L151.1 159.5 L151.5 159.4 L151.8 159.3 L153.7 159.7 L154.8 159.6 L156.6 159.9 L157.1 160.2 L157.3 160.2 L159.0 160.2 L160.0 160.0 L160.6 159.9 L161.5 160.0 L162.1 159.9 L162.5 159.7 L162.6 159.8 L162.4 160.0 L162.6 160.1 L162.8 159.8 L162.9 159.7 L162.9 159.6 L162.9 159.5 L162.8 159.4 L162.8 159.2 L162.8 158.7 L162.8 158.4 L162.6 158.3 L162.9 158.3 L163.0 158.3 L163.0 158.3 L163.1 158.1 L163.1 157.9 L163.2 157.8 L163.4 157.6 L163.5 157.5 L163.3 157.4 L163.6 157.2 L164.1 157.2 L164.6 156.9 L165.6 156.1 L165.8 155.9 L166.1 155.9 L166.4 155.8 L166.7 155.8 L167.0 155.7 L167.3 155.5 L168.6 154.1 L168.7 154.1 L168.9 154.0 L169.0 154.0 L169.0 153.8 L169.1 153.7 L169.2 153.6 L169.3 153.5 L169.3 153.4 L170.2 152.8 L170.7 152.4 L170.9 152.3 L171.5 152.2 L171.8 152.1 L171.9 151.9 L171.8 151.7 L171.6 151.6 L171.6 151.9 L171.3 152.0 L171.0 152.1 L170.7 152.1 L170.4 152.2 L170.2 152.3 L170.0 152.5 L169.8 152.7 L169.0 153.1 L168.8 153.2 L168.7 153.3 L167.8 154.0 Z M190.7 167.1 L191.0 167.4 L191.0 167.5 L190.9 167.5 L190.9 167.5 L190.8 167.6 L190.8 167.6 L190.2 167.7 L190.0 167.8 L189.6 168.0 L189.5 168.1 L189.5 168.1 L189.5 168.4 L189.5 168.6 L189.4 168.7 L187.8 169.0 L187.3 168.9 L185.4 168.0 L185.3 167.9 L184.8 167.7 L184.7 167.7 L184.1 167.7 L183.9 167.8 L183.6 167.9 L184.0 167.5 L184.5 167.2 L185.8 166.8 L185.8 166.8 L185.7 166.9 L185.7 167.0 L186.1 167.0 L186.4 166.8 L186.9 166.4 L187.3 166.2 L187.6 166.2 L189.8 166.8 L190.1 166.8 L190.3 166.8 L190.5 166.9 L190.5 166.9 L190.5 167.0 L190.5 167.1 L190.5 167.1 L190.6 167.1 L190.7 167.1 Z M147.0 129.5 L147.4 129.5 L147.6 129.5 L147.8 129.6 L147.5 129.8 L147.0 130.4 L146.7 130.5 L146.3 130.5 L145.9 130.6 L145.6 130.8 L145.3 131.0 L145.3 131.0 L145.2 131.1 L145.2 131.1 L145.2 131.2 L145.2 131.3 L145.2 131.4 L145.1 131.3 L144.6 131.6 L144.4 131.7 L143.5 132.1 L143.3 132.1 L143.1 132.1 L142.8 132.0 L142.8 132.0 L142.7 132.1 L142.6 132.1 L142.5 132.1 L142.4 132.0 L142.4 131.9 L142.5 131.7 L142.5 131.7 L142.6 131.6 L142.8 131.5 L142.9 131.3 L142.7 131.3 L142.5 131.3 L142.2 131.6 L142.0 131.7 L141.9 131.6 L141.5 131.4 L141.4 131.4 L141.3 131.4 L141.3 131.4 L141.3 131.3 L141.3 131.2 L141.3 131.2 L141.3 131.1 L141.3 131.0 L141.2 130.9 L140.9 130.8 L140.4 130.2 L140.2 130.0 L140.2 129.9 L140.3 129.7 L140.3 129.5 L140.3 129.2 L140.4 128.7 L140.3 128.5 L140.2 128.3 L140.4 128.2 L142.3 127.8 L142.5 127.8 L143.5 127.9 L143.7 127.9 L144.3 128.1 L144.4 128.2 L144.5 128.3 L144.5 128.5 L144.6 128.6 L144.6 128.6 L144.8 128.7 L145.0 128.8 L145.0 128.8 L145.1 128.9 L145.0 129.0 L145.0 129.1 L145.1 129.1 L145.1 129.1 L145.3 129.3 L145.4 129.5 L145.4 129.6 L145.5 129.7 L145.7 129.7 L145.9 129.7 L146.2 129.6 L146.4 129.6 L146.5 129.6 L146.6 129.4 L146.7 129.4 L146.8 129.4 L147.0 129.5 L147.0 129.5 Z M132.9 97.7 L132.6 97.8 L132.6 98.0 L132.8 98.2 L132.8 98.4 L132.6 98.6 L132.3 98.7 L131.6 98.7 L130.8 98.7 L130.2 98.6 L129.6 98.3 L129.0 98.0 L129.0 97.9 L129.0 97.8 L128.8 97.5 L128.8 97.3 L128.8 97.3 L128.8 97.2 L128.9 97.2 L128.9 97.1 L129.0 97.1 L128.6 96.8 L128.3 96.5 L128.2 96.1 L128.3 95.7 L128.5 95.4 L128.8 95.0 L129.3 94.8 L129.8 94.8 L129.7 94.7 L129.7 94.6 L129.7 94.6 L130.0 94.5 L130.2 94.6 L131.1 94.8 L131.3 95.0 L131.6 95.2 L131.8 95.5 L132.1 96.3 L132.0 96.5 L132.6 96.8 L132.6 97.2 L132.5 97.2 L132.3 97.2 L132.1 97.3 L132.2 97.4 L132.3 97.5 L132.9 97.7 Z M119.0 94.5 L119.0 94.6 L119.0 94.8 L119.1 94.9 L119.1 95.1 L119.1 95.2 L119.0 95.2 L118.8 95.3 L118.7 95.4 L118.6 95.5 L118.6 95.4 L118.3 95.6 L118.0 95.8 L117.6 95.9 L117.2 96.0 L116.6 95.9 L116.4 96.0 L116.3 96.3 L116.2 96.3 L116.1 96.4 L115.7 96.6 L115.3 96.7 L115.0 96.6 L114.8 96.3 L114.9 95.9 L115.2 95.7 L116.0 95.5 L115.7 95.0 L115.5 94.8 L114.9 94.7 L114.8 94.7 L114.8 94.4 L115.2 94.1 L115.9 93.8 L115.6 93.7 L115.1 93.7 L114.7 93.7 L114.4 93.8 L114.1 94.3 L113.9 94.6 L113.4 94.8 L113.0 95.1 L112.8 95.3 L112.4 95.3 L112.2 95.2 L112.2 94.9 L112.4 94.7 L112.3 94.6 L112.3 94.6 L112.2 94.6 L112.3 94.3 L113.0 93.8 L112.5 93.6 L112.7 93.5 L112.8 93.4 L112.9 93.3 L112.9 93.0 L112.9 92.9 L113.0 92.7 L113.6 92.5 L114.4 92.3 L114.5 92.2 L114.7 92.1 L114.9 92.2 L114.8 92.3 L114.6 92.7 L114.6 92.8 L114.7 93.0 L114.8 93.2 L115.0 93.2 L115.0 93.1 L114.9 92.8 L115.2 92.5 L115.7 92.2 L116.2 92.0 L116.5 91.8 L116.7 91.7 L116.9 91.7 L117.1 91.6 L117.3 91.5 L117.5 91.4 L117.6 91.4 L117.7 91.5 L117.7 91.6 L117.8 92.2 L118.0 93.0 L118.0 93.4 L118.1 93.6 L118.3 93.7 L118.6 93.8 L118.7 93.9 L118.8 93.9 L118.7 94.1 L118.7 94.2 L118.6 94.3 L118.7 94.4 L118.8 94.4 L119.0 94.5 Z M122.4 88.9 L123.2 88.5 L123.6 88.3 L123.9 88.4 L124.0 88.6 L124.0 88.8 L124.0 88.9 L123.8 89.1 L123.5 89.3 L123.2 89.4 L122.7 90.3 L121.4 91.6 L121.1 92.2 L121.0 92.2 L120.6 92.4 L120.4 92.5 L120.3 92.6 L120.1 93.2 L120.0 93.4 L119.7 93.5 L119.1 93.5 L118.6 93.3 L118.4 92.9 L118.2 92.2 L118.3 92.0 L118.4 91.8 L118.6 91.7 L118.9 91.6 L119.1 91.5 L119.5 91.3 L120.7 91.1 L121.1 90.9 L120.8 90.9 L120.3 91.0 L119.8 91.0 L119.6 90.8 L119.7 90.4 L120.1 90.0 L120.6 89.7 L120.9 89.6 L121.3 89.5 L122.4 88.9 Z M124.0 84.3 L124.1 84.4 L124.3 84.6 L124.4 84.8 L124.3 84.9 L123.8 84.9 L123.6 84.8 L123.6 84.6 L123.5 84.6 L123.4 84.6 L123.3 84.5 L123.2 84.6 L123.3 84.7 L123.1 84.9 L122.6 85.1 L122.6 85.3 L122.8 85.2 L123.1 85.1 L123.7 85.0 L123.9 85.1 L123.8 85.3 L123.5 85.4 L122.3 85.9 L121.7 86.0 L121.2 85.8 L121.3 85.8 L121.5 85.7 L121.6 85.6 L121.6 85.4 L121.5 85.4 L121.3 85.4 L121.0 85.4 L120.9 85.5 L120.8 85.6 L120.7 85.7 L120.6 85.7 L120.1 85.8 L118.9 86.1 L118.7 86.3 L118.5 86.4 L118.3 86.3 L118.2 86.3 L118.0 86.2 L117.9 86.3 L117.5 86.4 L117.4 86.4 L116.0 86.4 L115.9 86.5 L115.9 86.6 L115.8 86.7 L115.6 86.7 L115.4 86.7 L115.1 86.7 L114.7 86.5 L114.5 86.4 L114.3 86.2 L114.2 85.9 L114.3 85.7 L114.6 85.6 L115.0 85.5 L115.3 85.6 L115.5 85.7 L115.7 85.9 L115.9 86.0 L116.2 85.9 L116.2 85.8 L116.1 85.8 L116.0 85.8 L115.9 85.8 L115.9 85.7 L116.1 85.7 L116.8 85.8 L117.0 85.7 L117.3 85.6 L118.3 85.4 L118.9 85.2 L119.2 85.0 L119.1 84.9 L118.8 85.0 L118.0 85.3 L117.3 85.4 L116.9 85.3 L116.6 85.2 L116.5 85.0 L116.6 84.9 L116.7 84.8 L116.9 84.8 L117.1 84.7 L117.2 84.7 L117.4 84.4 L117.5 84.3 L117.5 84.1 L117.7 84.1 L117.8 84.0 L118.3 84.1 L119.2 83.8 L119.3 83.8 L119.4 83.6 L119.4 83.5 L119.4 83.3 L119.2 83.3 L118.3 83.5 L118.0 83.6 L117.9 83.6 L117.8 83.7 L117.6 83.7 L117.5 83.6 L117.3 83.3 L117.1 83.2 L117.0 83.1 L116.7 83.0 L115.3 82.8 L115.0 82.8 L114.8 82.7 L114.6 82.6 L115.3 82.3 L115.2 82.1 L114.9 82.0 L114.8 81.8 L115.3 81.8 L115.5 81.7 L115.8 81.6 L115.9 81.7 L116.0 81.7 L116.2 81.7 L116.3 81.7 L116.3 81.4 L116.7 81.2 L117.3 81.1 L117.8 81.1 L118.0 81.2 L118.6 81.3 L118.6 81.3 L118.6 81.5 L118.6 81.6 L119.0 81.6 L119.4 81.9 L119.9 82.7 L120.0 82.8 L120.0 82.9 L120.0 82.9 L120.2 83.0 L121.6 83.0 L121.7 83.0 L121.8 83.1 L122.0 83.2 L122.2 83.1 L122.3 83.1 L122.5 83.1 L122.6 83.1 L122.9 83.4 L123.0 83.5 L123.1 83.5 L123.4 83.5 L123.5 83.5 L123.7 83.5 L123.9 83.7 L124.0 83.8 L124.1 84.0 L124.2 84.0 L124.4 84.0 L124.6 84.1 L124.5 84.4 L124.4 84.3 L124.3 84.3 L124.0 84.3 Z M101.5 71.4 L101.7 71.5 L101.8 71.6 L101.9 71.7 L102.2 71.7 L102.1 71.9 L102.0 71.9 L101.8 72.0 L101.6 72.1 L101.5 72.2 L101.4 72.5 L101.3 72.6 L101.0 72.7 L99.9 72.6 L99.9 72.6 L100.8 72.8 L101.1 72.9 L101.2 73.2 L101.3 73.5 L101.2 73.8 L101.1 73.9 L100.8 73.8 L100.6 73.8 L100.0 73.8 L100.0 73.9 L100.3 74.0 L100.8 73.9 L101.0 73.9 L101.2 74.0 L101.4 74.2 L101.6 74.3 L101.9 74.3 L101.9 74.4 L101.5 74.6 L100.4 74.5 L99.9 74.6 L99.5 74.4 L99.4 74.2 L99.0 73.4 L98.9 73.2 L99.0 73.0 L99.0 72.9 L98.8 72.8 L98.6 72.7 L98.4 72.6 L98.6 72.5 L98.7 72.4 L98.9 72.2 L99.0 72.0 L99.0 71.9 L99.1 71.8 L99.3 71.8 L99.4 71.6 L99.2 71.1 L98.8 70.5 L99.1 70.3 L99.8 70.2 L99.9 70.2 L101.2 70.7 L101.1 70.7 L101.0 70.7 L100.7 70.7 L100.7 70.8 L101.0 70.8 L101.5 71.0 L101.8 71.1 L101.8 71.2 L101.4 71.3 L101.1 71.2 L100.8 71.0 L100.2 70.9 L99.9 70.6 L99.6 70.5 L99.3 70.6 L99.4 70.6 L99.5 70.7 L99.6 70.7 L99.6 70.8 L99.6 70.9 L99.8 71.0 L99.9 71.0 L100.0 71.0 L100.3 71.1 L100.4 71.1 L100.6 71.3 L100.8 71.3 L101.3 71.3 L101.5 71.4 Z M103.1 66.6 L103.4 66.6 L103.7 66.6 L103.9 66.7 L104.1 66.9 L103.9 67.0 L103.7 67.2 L103.6 67.3 L103.4 67.3 L103.2 67.2 L103.1 67.1 L103.0 67.0 L102.9 67.0 L102.5 66.8 L101.9 66.8 L101.9 66.9 L102.1 66.9 L102.2 66.9 L102.2 67.0 L102.1 67.1 L102.1 67.2 L102.5 67.2 L102.6 67.2 L102.7 67.4 L102.8 67.6 L103.0 67.6 L103.5 67.5 L103.2 67.8 L102.8 67.9 L102.0 68.0 L101.9 68.0 L101.7 68.1 L101.6 68.1 L101.5 68.0 L101.4 67.8 L101.3 67.8 L101.1 67.8 L100.5 68.1 L100.5 68.2 L101.5 68.2 L102.4 68.1 L102.7 68.1 L102.9 68.1 L103.0 68.2 L103.1 68.3 L103.0 68.4 L102.7 68.7 L102.1 68.7 L101.8 68.7 L101.6 68.8 L101.4 68.7 L100.8 68.7 L100.6 68.7 L100.5 68.6 L100.4 68.6 L100.2 68.4 L100.2 68.3 L100.1 68.3 L100.0 68.2 L100.1 68.2 L100.4 68.1 L99.9 68.1 L99.1 67.8 L98.6 67.7 L98.5 67.8 L98.4 67.8 L98.3 67.9 L98.2 67.9 L98.0 67.8 L97.8 67.8 L97.1 67.5 L97.1 67.4 L97.5 67.3 L97.7 67.0 L97.9 66.7 L98.1 66.5 L98.4 66.6 L99.4 66.5 L99.4 66.6 L99.3 66.6 L99.0 66.7 L99.3 66.9 L99.7 66.6 L100.2 66.3 L100.5 66.1 L100.5 66.2 L100.4 66.2 L100.3 66.3 L100.2 66.5 L101.0 66.7 L101.3 66.7 L101.3 66.6 L101.2 66.6 L101.0 66.5 L101.3 66.4 L102.0 66.1 L102.4 66.1 L102.6 66.2 L102.6 66.4 L102.5 66.5 L102.3 66.6 L102.5 66.7 L102.9 66.5 L103.1 66.6 Z M111.3 71.1 L111.1 71.2 L109.8 70.9 L109.4 70.8 L109.1 70.6 L109.0 70.4 L108.9 70.0 L108.3 69.8 L108.1 69.5 L109.0 69.5 L108.8 69.3 L108.7 69.2 L108.7 69.0 L108.8 68.8 L109.0 68.7 L109.1 68.6 L109.3 68.7 L110.0 69.3 L110.1 69.4 L110.2 69.5 L110.5 69.6 L110.7 69.6 L110.6 69.5 L110.6 69.4 L110.7 69.4 L110.7 69.3 L110.8 69.3 L110.6 69.1 L110.5 69.1 L110.5 69.0 L110.3 68.9 L110.3 68.9 L110.4 68.8 L110.5 68.8 L110.5 68.7 L110.6 68.7 L110.9 68.7 L111.3 68.8 L111.2 68.5 L110.8 68.3 L110.4 68.1 L110.0 68.1 L110.2 67.9 L110.4 67.7 L110.4 67.5 L110.2 67.4 L110.2 67.3 L110.5 67.3 L110.7 67.4 L110.9 67.5 L111.2 67.6 L111.3 67.8 L111.3 67.9 L111.3 68.0 L111.5 68.1 L111.6 68.1 L112.2 68.3 L112.4 68.4 L112.6 68.5 L112.8 68.7 L112.9 68.6 L113.2 68.6 L113.4 68.6 L113.1 69.0 L113.2 69.0 L113.5 68.8 L113.7 68.5 L113.9 68.6 L115.0 69.4 L115.0 69.3 L114.9 69.2 L114.8 69.1 L114.8 69.1 L114.8 68.9 L114.6 68.7 L114.1 68.4 L113.8 68.1 L113.9 67.9 L114.1 67.8 L114.3 67.5 L114.1 67.5 L113.9 67.5 L113.8 67.5 L113.7 67.4 L113.8 67.2 L113.7 67.1 L113.6 67.0 L113.5 66.9 L113.5 66.7 L113.5 66.7 L113.6 66.7 L114.2 66.5 L114.3 66.4 L114.4 66.2 L114.5 66.1 L114.6 66.0 L114.8 66.0 L114.9 66.0 L114.9 66.0 L115.0 65.9 L115.1 66.1 L115.2 66.1 L115.6 66.3 L115.7 66.4 L116.1 66.7 L116.1 66.8 L116.8 67.1 L117.0 67.3 L117.2 67.4 L117.3 67.5 L117.4 68.5 L117.5 69.0 L117.6 69.2 L117.5 69.4 L117.4 69.7 L117.4 69.9 L117.3 70.0 L116.9 70.2 L116.8 70.4 L116.9 70.3 L117.2 70.2 L117.4 70.1 L117.7 70.2 L117.8 70.3 L117.7 70.5 L117.5 70.6 L117.5 70.7 L117.5 70.9 L117.7 71.1 L118.0 71.2 L118.0 71.3 L117.9 71.4 L117.5 71.6 L117.3 71.7 L118.5 71.6 L118.8 71.6 L118.9 71.7 L118.7 71.9 L118.4 72.0 L118.4 72.1 L118.8 72.0 L119.1 71.9 L119.4 71.9 L119.7 72.1 L119.8 72.2 L120.0 72.2 L120.4 72.2 L120.6 72.2 L120.7 72.3 L120.8 72.5 L120.9 72.6 L121.1 72.6 L121.3 72.5 L121.3 72.4 L121.4 72.4 L122.0 72.4 L122.4 72.1 L122.8 72.1 L123.3 72.1 L123.5 72.2 L124.6 72.2 L124.4 72.6 L124.4 72.7 L124.4 72.9 L124.4 73.0 L124.3 73.1 L124.0 73.3 L123.4 73.6 L123.2 73.6 L122.6 73.7 L122.5 73.8 L122.5 74.1 L122.4 74.3 L122.1 74.4 L121.8 74.5 L121.6 74.6 L121.5 74.7 L120.7 75.4 L120.4 75.5 L120.2 75.6 L119.4 75.7 L119.2 75.6 L119.0 75.4 L119.1 75.2 L119.5 74.9 L119.4 74.7 L119.4 74.6 L119.5 74.6 L119.6 74.6 L119.6 74.4 L119.7 74.4 L119.8 74.3 L120.0 74.0 L120.2 73.9 L120.3 73.8 L121.7 73.4 L121.7 73.4 L121.3 73.5 L120.9 73.5 L119.7 73.5 L119.6 73.5 L119.6 73.4 L119.6 73.3 L119.6 73.2 L119.2 72.9 L119.0 72.8 L118.8 72.7 L118.9 72.9 L119.0 73.0 L119.1 73.2 L119.0 73.5 L118.9 73.6 L118.8 73.6 L118.8 73.7 L118.7 73.9 L118.6 74.0 L118.4 74.2 L118.2 74.2 L118.0 74.1 L117.9 73.9 L117.9 73.6 L117.9 73.4 L117.7 73.3 L117.7 73.2 L117.6 73.3 L117.5 73.4 L117.4 73.3 L117.2 73.2 L117.1 73.2 L117.0 73.2 L117.0 73.2 L117.2 73.4 L116.9 73.5 L114.9 73.7 L114.9 73.6 L115.0 73.6 L115.5 73.2 L115.5 73.2 L115.2 73.1 L115.0 73.2 L114.7 73.3 L114.5 73.4 L114.2 73.1 L114.0 72.8 L114.1 72.8 L114.3 72.8 L114.4 72.7 L114.5 72.6 L113.8 72.6 L113.6 72.6 L112.9 72.1 L112.9 72.0 L112.8 71.9 L112.7 71.8 L112.7 71.7 L112.6 71.7 L112.6 71.7 L112.5 71.6 L113.2 71.3 L113.5 71.2 L113.8 71.3 L114.0 71.4 L114.3 71.6 L114.6 71.7 L115.0 71.8 L114.8 71.6 L113.9 71.2 L113.7 71.0 L113.6 71.0 L113.4 71.0 L113.3 71.0 L113.0 71.1 L112.8 71.1 L113.0 71.0 L113.0 70.9 L112.9 70.8 L112.6 70.8 L112.7 70.7 L112.7 70.7 L112.8 70.7 L112.7 70.6 L112.6 70.5 L112.5 70.4 L112.6 70.3 L112.4 70.3 L112.1 70.5 L111.9 70.6 L112.0 70.4 L112.0 70.3 L111.9 70.2 L111.8 70.1 L111.7 70.3 L111.5 70.3 L111.3 70.4 L111.2 70.5 L111.2 70.6 L111.3 70.9 L111.3 71.1 Z M105.7 65.3 L105.4 65.5 L105.3 65.4 L104.6 65.0 L104.4 64.9 L103.5 64.3 L103.4 64.3 L103.3 64.2 L103.2 64.0 L103.2 64.0 L103.4 63.9 L103.6 63.9 L103.7 64.0 L103.8 64.1 L103.9 64.3 L105.0 63.7 L105.2 63.6 L105.6 63.5 L106.3 63.5 L105.6 63.2 L105.6 63.1 L106.3 62.9 L106.7 62.8 L107.2 62.9 L107.4 63.0 L107.3 62.9 L107.2 62.9 L107.0 62.8 L107.0 62.8 L107.0 62.7 L107.2 62.6 L107.3 62.6 L107.3 62.5 L106.5 62.5 L106.3 62.5 L105.9 62.3 L105.7 62.2 L104.9 62.2 L104.5 62.2 L104.4 61.9 L104.2 62.0 L104.1 62.0 L103.4 61.7 L103.6 61.6 L103.8 61.5 L104.0 61.4 L104.3 61.4 L104.3 61.3 L104.2 61.3 L104.2 61.3 L104.2 61.3 L104.2 61.2 L104.6 61.2 L105.1 61.1 L106.0 60.8 L104.6 61.0 L104.2 61.0 L104.2 60.9 L104.3 60.8 L104.5 60.8 L104.7 60.8 L104.7 60.8 L104.3 60.8 L104.4 60.7 L104.5 60.6 L104.6 60.6 L104.7 60.4 L104.0 60.7 L103.9 60.7 L103.5 60.2 L103.4 60.2 L103.5 60.0 L103.4 59.9 L103.2 59.9 L103.2 59.8 L103.2 59.6 L103.4 59.5 L103.4 59.4 L103.5 59.3 L103.6 59.3 L103.6 59.2 L103.7 59.2 L103.6 59.1 L103.5 59.1 L103.4 59.1 L103.4 59.0 L104.5 58.9 L104.8 58.9 L104.4 58.8 L104.2 58.7 L104.2 58.5 L104.2 58.3 L104.3 58.2 L104.6 58.1 L104.8 58.1 L105.3 58.3 L105.5 58.3 L105.6 58.3 L106.4 58.5 L106.4 58.6 L105.9 58.5 L106.0 58.8 L106.3 59.0 L106.5 59.1 L106.5 59.3 L106.6 59.6 L106.9 59.9 L107.0 60.1 L107.0 59.9 L107.0 59.8 L107.0 59.6 L106.9 59.6 L106.7 59.3 L106.6 59.2 L106.8 59.1 L106.8 59.0 L106.9 58.9 L106.9 58.9 L107.5 58.8 L107.7 58.7 L107.9 58.7 L108.3 58.8 L108.7 59.0 L108.8 59.2 L109.2 58.9 L108.9 58.7 L108.7 58.7 L108.7 58.6 L108.6 58.3 L108.5 58.3 L108.4 58.2 L108.2 58.3 L108.1 58.3 L108.1 58.2 L108.1 58.1 L108.0 58.1 L107.9 57.9 L107.8 57.9 L107.7 57.8 L107.8 57.7 L107.9 57.7 L107.9 57.7 L108.0 57.7 L108.0 57.6 L107.9 57.5 L107.8 57.5 L107.6 57.5 L108.8 56.9 L109.1 56.7 L109.3 56.7 L109.4 56.7 L109.5 56.6 L109.6 56.6 L110.1 56.6 L110.5 56.5 L111.4 56.3 L111.5 56.2 L111.9 55.9 L114.5 54.9 L115.2 54.4 L115.6 54.2 L116.0 54.2 L116.3 54.4 L116.5 54.6 L116.7 54.9 L116.8 55.1 L117.0 55.4 L117.1 55.5 L116.8 55.6 L116.7 55.7 L116.4 56.3 L116.5 56.4 L116.7 56.4 L116.8 56.5 L117.1 56.5 L117.1 56.6 L116.8 56.7 L116.1 56.9 L115.9 57.1 L115.9 57.2 L115.9 57.3 L115.8 57.4 L115.6 57.4 L115.5 57.4 L115.3 57.6 L114.9 57.7 L114.9 57.8 L114.9 57.9 L114.9 58.1 L114.7 58.1 L114.6 58.2 L114.2 58.2 L114.5 58.4 L115.0 58.5 L115.6 58.5 L116.0 58.4 L116.7 58.0 L116.9 57.9 L117.2 57.9 L117.3 57.9 L117.2 58.0 L117.2 58.1 L117.3 58.1 L117.2 58.1 L117.1 58.2 L117.1 58.3 L117.1 58.3 L117.2 58.5 L116.8 58.6 L116.7 58.6 L116.6 58.7 L116.4 58.8 L116.4 58.9 L116.1 58.9 L115.9 58.9 L115.5 58.8 L115.2 58.7 L114.6 58.8 L114.3 58.7 L113.9 58.6 L113.7 58.6 L114.0 59.1 L114.2 59.3 L114.1 59.3 L114.0 59.4 L114.0 59.4 L114.1 59.6 L113.8 59.7 L113.1 59.8 L112.6 60.1 L112.4 60.2 L112.3 60.1 L112.0 60.1 L111.9 60.1 L111.5 60.3 L110.8 60.4 L110.5 60.3 L110.5 60.4 L111.1 60.5 L113.0 60.2 L113.4 60.1 L113.6 60.1 L113.8 60.1 L113.9 60.3 L114.0 60.5 L114.0 60.6 L114.0 60.7 L114.2 60.8 L114.1 60.8 L114.0 60.9 L113.8 60.9 L113.7 60.9 L113.8 61.0 L114.0 61.0 L114.2 61.1 L114.4 61.0 L114.1 61.2 L113.9 61.4 L113.7 61.5 L113.3 61.5 L112.0 61.4 L111.7 61.3 L111.6 61.3 L111.5 61.5 L111.6 61.5 L111.9 61.6 L112.2 61.7 L112.7 61.8 L112.9 61.9 L112.9 62.0 L112.8 62.1 L112.5 62.3 L112.4 62.4 L112.1 62.5 L112.0 62.5 L111.8 62.5 L111.5 62.4 L111.5 62.5 L111.6 62.6 L111.6 62.6 L111.7 62.6 L111.7 62.7 L111.4 62.8 L111.1 62.8 L110.9 62.7 L110.7 62.5 L110.6 62.3 L110.5 62.3 L110.4 62.2 L110.3 62.3 L110.4 62.5 L110.5 62.6 L110.6 62.7 L110.5 62.8 L110.1 62.7 L109.9 62.6 L109.8 62.6 L109.8 62.4 L109.4 61.9 L109.2 61.8 L109.2 61.5 L109.4 61.2 L109.8 61.0 L110.4 60.9 L110.9 60.8 L110.9 60.8 L109.5 60.8 L109.5 60.8 L109.5 61.0 L109.1 61.2 L108.7 61.4 L108.4 61.5 L108.6 61.7 L108.9 62.1 L109.1 62.2 L109.3 62.3 L109.5 62.4 L109.6 62.5 L109.7 62.6 L109.7 62.7 L109.6 62.7 L109.5 62.7 L109.4 62.7 L109.5 62.8 L109.6 62.9 L109.8 62.9 L109.8 62.9 L109.9 63.0 L109.9 63.3 L108.7 63.2 L108.2 63.0 L108.1 63.1 L108.0 63.1 L107.9 63.2 L107.8 63.3 L108.0 63.4 L108.3 63.5 L108.4 63.5 L108.8 63.8 L108.8 63.9 L108.7 64.0 L108.5 64.1 L108.3 64.1 L108.0 64.1 L108.0 64.2 L108.1 64.2 L108.1 64.3 L107.8 64.3 L107.1 64.0 L107.0 64.1 L107.1 64.2 L107.2 64.3 L107.3 64.3 L107.2 64.5 L107.0 64.5 L106.6 64.7 L106.7 64.7 L106.8 64.8 L106.8 64.8 L106.5 65.0 L105.7 65.3 Z M166.9 47.5 L167.1 47.6 L167.1 47.7 L167.2 47.9 L167.2 48.1 L167.0 48.2 L166.8 48.3 L166.2 48.3 L166.0 48.4 L165.7 48.7 L165.5 48.8 L165.2 48.8 L164.1 48.6 L164.0 48.5 L163.8 48.4 L163.3 47.8 L163.2 47.7 L163.0 47.7 L162.8 47.9 L162.6 48.0 L162.3 47.9 L162.2 48.0 L162.0 48.0 L161.9 48.0 L161.7 47.9 L161.9 48.2 L161.4 48.1 L161.3 48.2 L161.2 48.3 L160.8 48.3 L160.0 48.3 L159.6 48.2 L159.5 47.8 L159.5 47.5 L159.7 47.2 L159.9 47.1 L159.9 47.0 L159.8 46.9 L159.7 46.8 L159.7 46.7 L159.6 46.6 L159.5 46.6 L159.4 46.7 L159.3 46.8 L159.4 46.9 L159.4 47.0 L159.3 46.9 L159.2 46.9 L159.0 46.9 L158.9 47.0 L159.1 47.0 L159.1 47.1 L159.1 47.2 L159.1 47.2 L159.2 47.4 L159.1 47.6 L158.7 47.8 L158.7 47.8 L158.2 47.7 L157.8 47.4 L157.6 46.9 L157.8 46.5 L157.9 46.4 L157.8 45.7 L158.2 45.3 L158.9 45.0 L159.6 45.0 L160.3 45.0 L160.7 45.1 L161.2 45.3 L161.3 45.3 L161.5 45.3 L161.7 45.3 L161.8 45.3 L162.1 45.5 L162.2 45.6 L162.0 45.6 L161.9 45.7 L162.2 45.8 L163.0 46.1 L162.9 46.1 L162.8 46.1 L162.8 46.2 L162.9 46.2 L162.9 46.2 L163.0 46.3 L162.1 46.4 L162.0 46.4 L161.9 46.6 L161.6 46.9 L161.3 47.0 L161.0 47.1 L161.2 47.1 L161.5 47.2 L162.0 47.2 L162.3 47.2 L162.5 47.0 L162.7 46.9 L163.3 47.1 L163.5 47.1 L163.7 47.0 L163.9 47.0 L164.1 47.0 L164.3 47.2 L164.4 47.3 L164.7 47.1 L164.6 47.2 L164.6 47.4 L164.6 47.5 L164.9 47.5 L165.1 47.4 L165.4 47.3 L165.6 47.2 L166.0 47.2 L166.1 47.3 L166.2 47.4 L166.1 47.5 L165.5 47.7 L165.3 47.8 L165.4 48.0 L165.6 48.1 L165.9 48.2 L166.2 48.2 L166.0 47.8 L165.9 47.8 L166.1 47.7 L166.6 47.6 L166.9 47.5 Z M190.5 26.6 L190.6 26.4 L190.8 26.2 L191.1 26.1 L191.4 26.1 L191.2 26.4 L190.1 27.0 L190.1 27.1 L190.1 27.2 L190.2 27.2 L190.3 27.2 L190.4 27.0 L190.5 27.0 L190.7 26.9 L190.9 26.9 L191.0 27.1 L191.0 27.1 L190.9 27.3 L190.8 27.4 L190.7 27.5 L189.6 27.6 L189.4 27.6 L189.7 27.8 L190.4 27.9 L190.8 28.0 L190.1 28.4 L189.9 28.4 L189.9 28.4 L189.9 28.5 L189.9 28.6 L189.9 28.7 L190.0 28.7 L190.1 28.6 L190.2 28.6 L190.3 28.6 L190.5 28.7 L190.6 28.7 L190.0 29.0 L189.7 29.0 L189.5 29.0 L189.3 28.8 L189.2 28.7 L189.1 28.7 L189.0 28.8 L189.0 28.9 L189.1 29.0 L189.2 29.0 L189.2 29.1 L189.0 29.1 L188.9 29.1 L188.7 29.2 L188.7 29.3 L189.3 29.3 L189.2 29.4 L189.1 29.5 L189.0 29.7 L189.2 29.5 L189.4 29.4 L189.6 29.4 L189.2 29.9 L189.1 30.1 L189.3 29.9 L189.6 29.9 L189.8 29.9 L189.6 30.2 L190.1 30.4 L190.1 30.5 L189.7 30.5 L189.7 30.6 L189.8 30.6 L189.8 30.7 L189.5 30.6 L189.4 30.7 L189.2 30.8 L189.0 30.8 L189.2 30.9 L189.1 31.0 L189.0 31.1 L188.9 31.1 L188.8 31.1 L188.8 31.2 L188.9 31.2 L189.2 31.3 L188.9 31.4 L189.1 31.6 L189.3 31.8 L189.5 31.8 L189.4 32.0 L189.2 32.1 L188.9 32.1 L188.7 32.1 L188.8 32.3 L189.1 32.7 L189.0 32.8 L188.7 32.8 L188.3 32.7 L188.3 33.0 L188.3 33.3 L188.2 33.6 L188.0 33.8 L187.9 33.7 L187.9 33.7 L188.0 33.8 L188.1 34.0 L188.0 34.2 L187.9 34.4 L188.0 34.5 L188.1 34.6 L188.0 34.7 L187.9 34.8 L187.8 34.7 L187.6 34.5 L187.5 34.6 L187.4 34.6 L187.3 34.5 L187.5 34.4 L187.5 34.3 L187.3 34.2 L186.8 34.2 L186.6 34.1 L186.4 34.0 L186.7 33.8 L186.6 33.6 L186.7 33.4 L186.9 33.4 L187.0 33.3 L187.2 33.4 L187.2 33.3 L186.9 33.1 L186.8 33.1 L186.8 33.0 L187.2 33.0 L187.1 32.7 L187.3 32.5 L187.5 32.2 L187.7 31.6 L187.9 31.3 L188.1 31.0 L188.0 30.6 L187.9 30.5 L187.8 30.5 L187.7 30.5 L187.7 30.4 L187.7 30.3 L187.7 30.3 L188.0 30.0 L187.8 30.0 L187.6 30.0 L187.6 30.1 L187.4 30.1 L187.3 30.0 L187.4 29.9 L187.6 29.5 L187.7 29.4 L187.8 29.3 L188.0 29.2 L188.0 29.1 L187.7 29.1 L187.5 29.2 L187.1 29.7 L186.9 29.4 L186.7 29.1 L186.4 29.0 L185.9 28.9 L185.9 29.0 L186.2 29.1 L186.4 29.2 L186.6 29.4 L186.8 29.6 L186.7 29.8 L186.4 29.6 L186.3 29.6 L186.1 29.6 L186.1 29.9 L186.0 30.0 L185.9 30.1 L185.8 29.9 L185.6 30.0 L185.6 30.1 L185.5 30.3 L185.4 30.4 L185.3 30.4 L184.7 30.2 L184.7 30.2 L184.4 30.0 L184.3 30.0 L184.2 29.9 L184.2 29.8 L184.3 29.7 L184.5 29.6 L184.9 29.5 L185.1 29.5 L184.9 29.4 L184.6 29.1 L184.5 29.2 L184.4 29.4 L184.3 29.6 L184.1 29.6 L184.0 29.4 L183.9 29.3 L183.7 29.4 L183.3 29.5 L183.0 29.5 L182.8 29.5 L182.7 29.5 L182.7 29.4 L182.7 29.3 L182.6 29.3 L182.3 29.3 L182.2 29.2 L182.0 28.8 L181.9 28.5 L181.9 28.4 L182.1 28.3 L182.4 28.2 L182.6 28.1 L182.9 28.1 L183.1 28.1 L183.4 28.2 L183.5 28.3 L183.7 28.4 L183.9 28.4 L183.8 28.2 L184.3 28.3 L184.3 28.2 L184.2 28.2 L184.2 28.1 L184.9 28.1 L185.1 28.2 L185.1 28.6 L185.2 28.6 L185.3 28.5 L185.4 28.5 L185.3 28.4 L185.3 28.3 L185.2 28.2 L185.5 28.2 L185.5 28.2 L185.4 28.0 L185.7 27.9 L186.1 28.0 L186.4 28.2 L186.6 28.5 L186.8 28.3 L187.0 28.2 L186.6 28.0 L186.9 27.6 L187.0 27.7 L187.1 27.7 L187.3 27.7 L187.1 27.5 L187.4 27.5 L188.1 27.5 L187.8 27.4 L187.3 27.3 L187.0 27.2 L186.9 26.9 L186.6 27.1 L186.5 27.1 L186.3 27.1 L186.1 27.0 L186.1 26.9 L186.1 26.7 L186.3 26.6 L186.3 26.5 L185.8 26.5 L185.7 26.5 L185.5 26.4 L185.6 26.2 L185.5 26.0 L185.4 25.5 L185.2 25.8 L185.1 26.0 L184.9 26.0 L184.7 26.0 L184.6 25.9 L184.7 25.7 L184.9 25.6 L184.6 25.6 L184.4 25.7 L184.2 25.7 L183.9 25.5 L183.8 25.7 L183.6 25.7 L183.1 25.7 L183.0 25.7 L183.1 25.5 L183.3 25.3 L183.4 25.2 L183.7 25.3 L183.8 25.2 L183.9 25.1 L183.9 25.0 L183.9 24.9 L183.9 24.8 L184.1 24.7 L184.2 24.6 L184.4 24.6 L184.6 24.7 L184.8 25.0 L185.3 25.3 L185.8 25.4 L186.3 25.2 L186.1 25.2 L185.9 25.1 L185.6 25.1 L185.5 25.1 L185.3 25.0 L185.2 24.9 L184.9 24.8 L185.0 24.7 L185.2 24.5 L185.3 24.4 L185.5 24.4 L185.9 24.2 L185.8 24.2 L185.7 24.1 L185.8 24.0 L185.9 24.0 L185.8 23.9 L185.8 23.8 L186.2 23.8 L186.6 23.8 L186.9 23.9 L187.3 24.0 L187.3 24.0 L187.4 23.9 L187.1 23.8 L187.2 23.7 L187.5 23.3 L187.6 23.6 L187.7 23.7 L187.6 23.8 L187.6 24.0 L187.6 24.1 L187.5 24.1 L187.4 24.1 L187.5 24.5 L187.4 24.6 L187.2 24.7 L187.0 24.9 L187.3 24.9 L187.2 25.0 L187.2 25.0 L187.0 25.0 L187.1 25.1 L187.1 25.1 L187.2 25.1 L187.3 25.1 L187.0 25.6 L187.1 25.6 L187.3 25.6 L187.4 25.5 L187.5 25.4 L187.6 25.5 L187.4 25.7 L187.4 25.8 L187.4 25.9 L187.4 26.0 L187.1 26.1 L186.8 26.6 L186.5 26.7 L186.5 26.8 L186.7 26.8 L186.9 26.8 L187.0 26.8 L187.2 26.7 L187.2 26.5 L187.6 26.3 L188.5 26.2 L187.8 26.0 L187.6 25.8 L187.7 25.7 L187.9 25.6 L188.1 25.7 L188.1 25.9 L188.2 25.8 L188.5 25.6 L188.6 25.5 L188.7 25.4 L189.0 25.5 L189.2 25.7 L189.1 25.8 L189.3 25.9 L189.4 25.9 L189.5 26.1 L189.6 26.2 L189.5 26.3 L189.5 26.3 L189.7 26.4 L189.5 26.5 L189.2 26.4 L189.0 26.5 L188.9 26.6 L188.8 26.6 L188.6 26.7 L188.7 26.7 L188.8 26.7 L189.2 26.6 L189.1 26.7 L189.0 26.7 L189.0 26.8 L189.5 26.7 L189.6 26.7 L189.7 27.0 L189.8 27.0 L189.8 26.9 L189.9 26.9 L190.0 26.9 L190.1 26.8 L190.1 26.7 L190.2 26.6 L190.2 26.5 L190.4 26.4 L190.4 26.5 L190.4 26.5 L190.5 26.6 Z M192.1 22.5 L191.9 22.7 L191.9 22.9 L192.2 23.1 L192.1 23.3 L192.0 23.4 L191.5 23.2 L191.3 23.1 L191.0 23.1 L191.1 23.2 L191.3 23.3 L191.7 23.7 L191.5 23.8 L191.3 23.8 L191.1 23.8 L190.9 23.7 L190.9 23.9 L191.1 24.0 L191.3 24.0 L191.6 24.0 L191.5 24.1 L191.5 24.1 L191.5 24.1 L191.7 24.3 L191.7 24.5 L191.5 24.6 L191.3 24.6 L191.5 24.9 L191.5 25.0 L191.6 25.2 L191.5 25.4 L191.4 25.4 L191.1 25.3 L190.7 25.3 L190.5 25.3 L190.5 25.2 L190.4 25.2 L190.3 25.2 L190.3 25.3 L190.5 25.4 L190.5 25.5 L190.0 25.5 L189.6 25.3 L189.4 25.0 L189.3 23.6 L189.4 23.3 L189.9 23.2 L189.9 23.3 L189.8 23.5 L190.0 23.7 L190.2 23.8 L190.4 23.7 L190.3 23.7 L190.1 23.3 L190.1 23.1 L190.1 23.0 L190.3 22.8 L190.2 22.7 L190.1 22.7 L190.1 22.6 L190.2 22.4 L190.2 22.3 L190.4 22.1 L190.5 22.0 L190.7 22.0 L190.9 22.3 L191.0 22.1 L191.3 22.0 L192.0 22.1 L192.0 22.3 L191.9 22.3 L191.9 22.3 L191.9 22.5 L191.9 22.5 L192.0 22.5 L192.1 22.5 Z" fill="#172033" fill-rule="evenodd"/></svg>
