<svg xmlns="http://www.w3.org/2000/svg" viewBox="0 0 320 200" role="img"><path d="M86.4 96.0 L84.3 86.4 L83.6 84.8 L82.5 83.4 L81.2 82.3 L79.5 81.6 L76.4 81.2 L75.7 80.9 L75.0 80.4 L74.0 80.0 L73.0 79.7 L72.2 79.7 L71.7 79.8 L70.9 80.1 L70.3 80.2 L69.9 80.0 L68.0 77.9 L67.1 75.4 L65.4 73.2 L64.7 72.0 L63.7 72.0 L62.0 72.6 L61.0 72.3 L59.8 70.9 L59.1 70.6 L59.0 70.4 L58.1 69.2 L57.8 69.0 L54.8 68.1 L50.7 67.7 L48.8 67.8 L47.4 68.1 L46.9 68.1 L46.4 68.0 L45.6 67.4 L45.2 67.2 L45.0 67.1 L44.3 66.6 L44.0 66.4 L43.6 66.3 L42.3 66.1 L39.0 64.9 L37.4 64.8 L36.4 65.8 L35.9 65.5 L35.3 64.4 L35.0 63.9 L34.0 63.2 L33.6 62.7 L33.8 61.4 L33.2 60.2 L32.3 59.1 L31.6 58.5 L30.3 58.1 L28.1 57.6 L26.7 56.6 L26.2 56.4 L24.3 56.2 L23.0 55.8 L22.0 55.6 L22.2 54.9 L25.0 49.6 L25.6 48.9 L26.6 48.5 L29.3 47.9 L32.2 47.9 L42.3 50.7 L44.0 50.8 L45.2 50.6 L47.9 49.6 L49.4 49.4 L50.6 49.9 L51.0 50.1 L53.0 51.2 L57.2 52.3 L58.6 52.9 L64.2 56.2 L65.5 56.4 L69.8 56.0 L71.2 56.2 L72.5 56.7 L73.8 57.5 L75.2 57.9 L78.1 57.5 L79.4 57.8 L79.8 58.2 L80.3 59.2 L80.7 59.6 L81.3 60.0 L83.5 60.5 L84.5 60.9 L86.4 62.3 L87.5 62.8 L89.0 62.8 L92.0 62.6 L93.5 62.7 L96.2 63.2 L97.5 63.3 L100.3 63.1 L101.5 63.1 L102.7 63.4 L104.0 63.9 L105.3 64.1 L106.6 64.2 L108.0 64.0 L111.2 62.7 L111.4 62.6 L112.5 62.3 L119.4 61.9 L119.8 61.9 L122.3 62.2 L124.6 63.3 L125.7 64.1 L126.9 64.8 L129.4 65.9 L130.2 66.0 L130.7 65.8 L131.9 65.0 L132.6 64.8 L133.9 64.8 L135.8 64.3 L137.4 64.4 L139.0 64.7 L140.1 65.2 L141.3 66.0 L142.5 66.6 L146.0 67.6 L146.0 68.1 L145.7 68.8 L145.6 69.4 L145.9 69.9 L148.0 70.9 L152.4 74.0 L153.2 74.3 L154.0 74.6 L161.9 76.3 L165.7 77.1 L167.3 77.4 L170.1 78.4 L170.8 78.8 L172.5 80.3 L173.3 80.7 L177.1 81.4 L178.2 81.8 L178.9 82.0 L179.4 83.2 L178.4 84.2 L177.0 85.0 L175.9 85.8 L175.7 87.0 L176.9 88.1 L178.8 88.5 L180.8 88.6 L182.4 88.9 L183.4 89.5 L183.9 89.8 L184.7 90.0 L185.4 89.9 L186.0 89.5 L187.1 88.5 L187.6 88.1 L189.4 87.4 L193.3 87.3 L194.8 87.0 L195.3 86.9 L195.8 86.4 L196.6 85.9 L197.4 84.7 L198.3 83.9 L202.0 83.8 L203.6 83.4 L206.9 82.1 L208.0 81.9 L210.1 81.8 L211.9 81.9 L213.4 82.3 L213.6 82.3 L215.1 83.0 L215.7 83.4 L216.9 84.3 L217.4 84.9 L218.4 87.3 L219.0 87.7 L219.3 87.4 L220.0 85.1 L221.2 83.2 L221.4 82.6 L222.5 81.5 L224.3 81.8 L228.8 84.1 L229.5 84.4 L230.3 84.5 L231.0 84.4 L231.4 84.3 L232.6 83.9 L233.3 83.9 L234.7 84.2 L235.9 85.0 L239.9 88.6 L240.4 89.2 L240.7 89.7 L241.1 90.5 L241.6 90.9 L242.9 91.4 L244.7 91.2 L248.0 90.4 L250.4 90.5 L253.8 90.9 L257.0 91.9 L258.7 93.4 L258.7 93.4 L258.6 94.3 L253.8 103.5 L254.3 104.5 L255.5 105.1 L257.1 105.6 L261.7 108.0 L264.5 108.6 L265.1 109.0 L266.3 111.1 L266.7 111.6 L267.3 111.8 L268.0 111.8 L268.3 111.8 L268.9 111.4 L269.2 111.4 L269.5 111.5 L270.2 111.9 L270.5 112.1 L271.3 112.0 L271.8 111.9 L272.2 112.1 L272.5 113.0 L273.5 113.4 L274.8 113.4 L277.2 113.0 L277.2 113.0 L277.2 113.0 L277.5 112.9 L277.9 112.9 L278.2 112.9 L278.6 113.0 L279.7 113.7 L281.5 115.3 L282.7 115.7 L285.1 115.8 L286.1 116.2 L287.1 117.3 L285.6 119.7 L284.7 120.7 L282.9 122.4 L282.3 122.8 L281.7 123.0 L280.8 123.1 L278.9 122.7 L278.0 122.8 L277.2 123.4 L276.8 124.9 L276.8 126.9 L277.3 128.8 L278.5 129.5 L278.8 129.3 L279.0 128.9 L279.3 128.6 L279.9 128.6 L280.0 128.8 L280.9 130.1 L280.9 130.4 L281.3 132.0 L281.6 132.9 L282.3 133.6 L284.5 134.7 L285.0 134.9 L285.8 135.0 L287.7 136.4 L291.7 137.6 L293.8 138.6 L294.4 139.7 L295.0 139.5 L295.3 139.7 L295.4 139.7 L295.7 140.0 L296.4 140.7 L297.7 142.2 L298.0 142.8 L297.9 142.8 L297.5 142.8 L297.2 143.1 L297.1 143.4 L297.0 144.2 L297.0 144.4 L296.7 144.7 L296.2 145.1 L295.9 145.3 L295.5 146.4 L295.3 147.9 L295.0 149.2 L294.7 149.4 L294.2 150.0 L293.4 150.1 L292.6 150.0 L291.8 149.9 L290.9 150.3 L290.4 151.0 L290.2 151.6 L289.9 152.0 L289.0 152.1 L288.2 151.7 L287.1 150.6 L286.4 150.1 L283.9 149.5 L283.1 149.1 L280.7 147.5 L279.5 146.3 L278.8 145.9 L278.1 145.7 L275.0 145.7 L274.1 145.8 L273.0 146.3 L271.9 146.9 L271.1 147.1 L270.1 147.2 L268.1 147.0 L262.0 145.3 L260.0 144.3 L259.2 144.0 L257.5 142.9 L256.5 141.7 L257.4 140.8 L258.4 140.6 L258.9 140.4 L258.9 140.1 L257.9 139.8 L255.2 139.4 L249.3 137.7 L248.0 136.7 L247.4 136.2 L246.8 136.1 L245.4 136.4 L244.6 136.5 L244.0 136.4 L242.0 135.6 L241.2 135.3 L239.9 135.3 L238.5 135.6 L232.3 139.5 L228.4 141.9 L227.9 142.2 L226.9 142.8 L226.4 143.1 L224.9 143.1 L220.9 142.6 L220.1 143.3 L220.4 143.8 L222.0 144.4 L222.3 144.7 L222.4 144.9 L222.0 145.3 L220.9 145.4 L214.9 145.3 L213.2 144.8 L212.3 144.7 L211.5 145.0 L210.9 145.5 L210.4 146.2 L209.8 146.6 L209.0 146.4 L208.8 146.1 L208.6 145.7 L208.4 145.4 L207.9 145.4 L207.7 145.5 L206.9 146.2 L205.9 146.5 L204.9 146.4 L204.0 146.2 L201.8 145.2 L201.3 145.1 L200.8 145.2 L200.5 145.5 L200.2 145.7 L199.8 145.9 L198.9 146.0 L198.1 145.8 L196.1 144.8 L195.0 144.4 L194.6 144.4 L194.1 144.7 L194.0 145.0 L193.9 145.3 L193.7 145.8 L193.1 146.2 L192.3 146.6 L191.4 146.7 L189.7 146.3 L188.8 146.4 L187.2 146.9 L186.2 147.1 L186.2 147.1 L185.3 147.3 L181.5 147.4 L179.7 147.9 L177.8 149.2 L177.0 149.4 L176.0 149.5 L169.3 148.8 L167.6 148.8 L165.3 149.5 L164.9 149.6 L164.5 149.6 L164.1 149.5 L164.6 148.4 L164.0 147.5 L162.9 146.7 L161.8 146.2 L160.5 145.9 L159.3 146.0 L155.5 146.8 L154.9 146.5 L153.9 144.6 L153.1 143.9 L152.3 143.8 L151.4 143.9 L150.2 143.7 L152.5 142.8 L153.1 142.4 L153.6 141.8 L153.6 141.6 L152.4 141.5 L151.1 141.0 L149.1 139.7 L146.1 138.1 L145.5 137.7 L144.3 135.9 L143.9 135.6 L143.6 135.5 L143.4 135.4 L143.2 135.2 L143.0 135.0 L141.7 134.7 L141.4 134.6 L141.1 134.1 L140.9 133.6 L140.6 133.3 L140.0 133.6 L139.0 134.5 L138.2 134.3 L137.4 133.6 L136.4 133.1 L136.7 132.7 L137.5 132.2 L137.9 131.9 L138.0 131.6 L138.1 131.1 L138.3 130.7 L138.6 130.3 L137.8 130.1 L132.0 129.7 L130.0 129.8 L129.2 130.0 L129.0 130.1 L128.9 130.1 L128.1 130.6 L127.7 131.3 L127.3 132.9 L126.9 133.6 L126.0 134.3 L124.8 135.7 L123.9 136.1 L123.4 136.1 L122.9 136.2 L115.7 134.0 L113.6 134.1 L112.6 134.1 L112.0 133.6 L111.4 133.3 L110.7 133.3 L109.5 133.6 L108.9 133.4 L108.3 133.3 L107.7 133.4 L107.1 133.6 L105.7 133.9 L102.7 133.1 L101.1 133.6 L100.5 133.9 L99.2 135.3 L97.6 136.4 L97.2 136.5 L96.7 136.4 L95.0 135.2 L94.5 135.1 L93.3 135.0 L92.8 134.8 L92.6 134.6 L92.6 134.2 L92.7 133.9 L92.6 133.8 L92.3 133.8 L91.3 134.1 L90.0 134.2 L89.5 134.1 L85.1 132.7 L87.8 129.1 L89.0 127.9 L91.5 126.7 L92.2 125.4 L94.2 123.0 L94.3 122.6 L94.3 122.2 L94.3 121.9 L94.6 121.5 L95.2 120.8 L95.5 120.5 L95.6 120.1 L95.6 116.8 L95.6 116.6 L95.1 114.0 L95.0 113.1 L94.8 112.5 L93.1 110.3 L91.9 108.7 L91.5 108.4 L91.0 108.1 L90.8 107.3 L90.8 105.9 L90.4 104.0 L88.2 98.4 L88.1 98.1 L87.8 97.8 L86.7 97.0 L86.5 96.7 L86.4 96.0 Z" fill="#172033" fill-rule="evenodd"/></svg>
