<svg xmlns="http://www.w3.org/2000/svg" viewBox="0 0 320 200" role="img"><path d="M181.1 22.7 L181.3 23.1 L181.7 23.4 L182.2 23.7 L182.7 23.8 L183.1 23.8 L183.9 23.6 L184.4 23.6 L185.2 23.9 L185.6 24.4 L185.7 25.2 L185.6 26.0 L185.5 26.4 L185.4 26.5 L185.1 26.7 L184.9 26.9 L184.8 27.1 L184.3 29.5 L184.3 29.8 L184.4 30.2 L184.4 30.5 L184.2 30.7 L183.7 31.0 L183.4 31.5 L183.2 31.9 L183.0 32.9 L183.0 33.2 L182.8 33.8 L182.8 34.4 L183.0 34.9 L183.3 35.0 L183.5 35.2 L183.8 35.2 L184.4 35.3 L184.5 35.4 L184.7 35.6 L184.9 35.7 L185.7 36.0 L185.9 36.1 L186.1 36.3 L186.4 36.9 L186.6 37.1 L187.9 37.9 L188.2 38.3 L189.5 40.6 L189.5 40.7 L189.7 40.6 L189.8 40.5 L189.9 40.3 L190.0 40.3 L190.6 40.5 L190.8 40.6 L191.1 40.5 L191.3 40.4 L191.6 40.3 L191.8 40.4 L192.1 40.6 L192.1 40.9 L192.0 41.1 L192.0 41.3 L192.2 41.8 L192.6 42.1 L192.9 42.5 L192.7 43.0 L193.0 43.0 L194.1 42.8 L194.3 43.0 L194.8 43.4 L194.2 43.8 L194.1 44.2 L194.0 44.6 L193.9 44.9 L193.9 45.7 L193.8 47.4 L194.0 48.1 L194.3 48.3 L194.6 48.3 L194.8 48.5 L194.8 49.0 L194.8 49.4 L194.7 49.4 L194.5 49.5 L194.1 49.5 L193.7 49.5 L193.8 49.8 L193.8 49.9 L193.7 50.1 L193.7 50.3 L193.7 50.5 L194.0 51.0 L194.2 51.5 L194.2 51.7 L194.0 51.9 L193.7 52.2 L193.5 52.6 L193.4 52.9 L193.5 53.9 L193.5 54.2 L193.0 56.0 L193.0 56.5 L193.2 56.8 L193.3 56.9 L193.5 57.2 L193.6 57.5 L193.7 58.0 L193.6 58.4 L193.4 58.7 L192.9 58.8 L192.5 58.5 L191.9 57.9 L191.5 58.6 L191.5 59.3 L191.9 59.8 L192.7 59.9 L193.7 59.6 L194.1 59.7 L194.4 60.2 L194.2 60.5 L193.8 60.6 L193.3 60.6 L193.0 60.4 L192.6 60.6 L192.0 60.7 L190.8 60.5 L190.7 60.7 L190.6 61.4 L190.6 61.5 L190.7 61.6 L190.8 61.7 L191.1 61.9 L191.3 62.0 L192.0 61.9 L192.3 61.9 L192.5 62.2 L192.4 62.4 L192.1 62.7 L191.7 62.8 L190.7 63.0 L190.7 63.3 L190.9 63.7 L190.7 64.0 L190.8 64.3 L191.2 64.4 L191.7 64.3 L192.8 63.9 L193.0 63.8 L193.1 63.6 L193.2 63.1 L193.3 62.9 L193.7 62.7 L194.2 62.6 L195.2 62.6 L195.6 62.6 L196.9 63.1 L197.1 63.3 L197.1 63.6 L197.1 63.8 L196.9 64.1 L196.9 64.1 L196.9 64.1 L196.9 64.1 L197.6 64.4 L198.1 64.8 L198.2 65.3 L198.0 66.6 L198.0 67.3 L197.9 67.6 L197.6 67.8 L197.3 68.0 L197.1 68.2 L197.1 68.7 L197.4 69.6 L197.4 70.0 L197.1 70.5 L196.6 70.9 L196.4 71.2 L196.4 71.6 L196.3 72.3 L195.9 73.1 L195.7 73.8 L196.0 74.6 L196.0 74.6 L196.0 74.6 L197.2 76.6 L197.5 77.8 L196.9 78.5 L196.9 78.5 L196.8 78.8 L196.8 79.2 L196.7 79.5 L196.4 79.6 L196.1 79.6 L195.8 79.5 L195.6 79.5 L195.4 79.6 L195.5 79.7 L195.3 80.1 L195.1 80.4 L194.8 79.8 L194.5 79.7 L194.2 79.8 L194.1 80.0 L194.1 80.3 L194.3 81.2 L195.0 82.7 L195.9 84.1 L196.9 84.7 L197.3 85.2 L197.9 85.7 L198.6 86.2 L200.1 86.9 L200.6 87.8 L200.9 88.7 L201.8 89.5 L201.9 89.8 L201.9 90.0 L201.9 90.4 L201.9 90.6 L201.9 90.7 L202.0 90.8 L202.3 90.9 L202.4 91.0 L202.5 91.6 L202.3 91.9 L201.9 92.2 L200.8 92.6 L200.4 92.9 L199.6 93.6 L199.4 93.7 L199.2 93.7 L199.1 93.8 L199.1 94.2 L199.2 94.4 L199.4 94.6 L199.5 94.8 L199.6 95.1 L199.5 95.4 L199.3 95.6 L199.1 95.8 L199.3 96.4 L199.4 97.5 L199.6 98.4 L199.6 98.9 L199.6 99.8 L199.8 101.4 L199.8 101.5 L199.8 103.0 L200.0 104.3 L200.0 105.6 L200.0 106.1 L199.3 106.0 L199.0 106.5 L199.0 107.2 L199.0 107.9 L198.8 108.2 L198.5 108.4 L198.1 108.5 L197.8 108.6 L197.5 108.9 L197.4 109.1 L197.3 109.4 L197.2 110.8 L197.3 112.0 L197.7 113.1 L198.5 113.8 L198.9 113.8 L199.4 113.7 L200.3 113.4 L200.5 113.6 L200.9 115.2 L200.8 115.7 L200.5 116.6 L200.3 117.8 L199.7 119.2 L199.6 120.2 L199.7 121.3 L199.7 122.3 L199.2 123.1 L198.9 123.3 L197.9 123.6 L197.5 123.6 L197.2 123.7 L197.5 124.1 L198.2 124.6 L198.4 125.1 L198.4 125.5 L197.9 126.4 L197.7 126.9 L197.8 127.1 L198.0 127.3 L198.3 127.5 L199.0 128.8 L199.2 129.0 L199.6 129.1 L200.0 129.3 L200.4 129.7 L200.6 130.1 L200.6 130.5 L200.4 131.7 L200.5 132.2 L200.8 132.5 L201.2 132.7 L201.4 133.1 L201.6 133.1 L202.3 133.1 L202.5 133.2 L202.8 133.5 L202.8 133.7 L202.7 133.9 L202.5 134.2 L202.5 134.4 L202.5 134.9 L202.6 135.5 L202.9 136.1 L203.3 136.6 L203.8 137.2 L205.0 137.8 L205.6 138.1 L206.4 139.1 L206.7 139.3 L207.2 139.5 L209.1 139.5 L209.7 141.4 L210.1 141.9 L210.3 142.1 L210.4 142.2 L210.6 142.3 L210.8 142.5 L211.1 143.0 L211.4 143.3 L211.7 143.4 L213.7 143.7 L214.0 144.0 L214.0 144.9 L213.9 144.9 L213.8 145.0 L212.7 145.6 L211.9 146.2 L210.6 147.5 L210.3 147.9 L209.7 149.1 L209.6 149.6 L209.6 150.1 L209.3 151.2 L209.1 151.7 L208.4 152.4 L207.4 152.8 L202.7 153.3 L194.0 152.6 L193.0 152.7 L192.4 152.8 L192.1 153.0 L192.0 153.1 L191.9 153.2 L191.3 153.2 L191.1 153.3 L190.6 153.6 L189.0 154.0 L188.6 154.3 L188.0 154.9 L187.0 155.2 L186.7 155.5 L186.4 156.0 L186.0 156.4 L184.1 157.0 L184.0 157.1 L183.7 157.4 L183.5 157.5 L183.3 157.6 L182.9 157.6 L177.7 159.3 L176.6 159.4 L176.5 159.5 L176.2 159.7 L174.4 161.1 L174.2 161.4 L174.1 161.8 L173.7 162.1 L172.9 162.7 L171.2 163.1 L170.9 163.1 L170.7 163.3 L170.3 163.6 L169.9 163.7 L169.7 163.3 L168.4 164.2 L168.1 164.3 L166.7 165.5 L166.1 166.2 L165.8 166.4 L164.0 166.7 L163.4 166.6 L163.1 166.3 L162.9 166.5 L162.7 166.6 L162.1 166.7 L161.5 166.8 L161.2 166.8 L161.1 166.6 L161.0 166.4 L160.8 166.4 L160.5 166.7 L160.1 166.7 L159.7 166.8 L157.2 167.9 L156.9 168.2 L156.7 168.4 L156.2 168.7 L155.2 169.2 L154.7 169.3 L153.2 169.3 L152.9 169.4 L152.3 169.7 L152.1 169.8 L151.8 169.9 L151.3 169.8 L151.1 169.8 L150.6 170.0 L149.7 170.4 L148.1 170.7 L147.5 170.9 L147.1 171.2 L147.1 171.2 L146.7 171.0 L146.3 171.0 L145.9 171.1 L145.6 171.3 L145.6 171.5 L145.7 171.9 L145.7 172.1 L145.5 172.2 L145.4 172.3 L143.7 173.1 L143.5 173.4 L142.8 174.1 L142.7 174.3 L142.7 174.5 L142.7 174.6 L142.5 174.6 L142.3 174.7 L140.6 175.1 L138.8 176.0 L138.4 176.3 L137.8 177.1 L137.4 177.5 L137.1 177.6 L135.4 177.8 L135.1 178.0 L134.4 178.0 L134.3 178.0 L134.1 177.8 L134.0 177.6 L134.1 177.3 L134.0 177.1 L133.7 177.0 L133.5 177.0 L133.1 176.8 L132.9 176.8 L132.9 176.7 L132.7 176.5 L131.6 175.6 L131.1 175.4 L130.9 175.3 L130.8 175.1 L130.7 174.9 L130.6 174.7 L130.5 174.6 L128.0 173.6 L123.9 172.7 L119.9 171.4 L116.7 171.1 L113.2 170.5 L109.8 169.5 L109.4 169.4 L109.6 169.0 L109.7 169.0 L109.9 168.9 L110.2 168.8 L112.0 168.8 L112.5 169.0 L112.6 169.1 L112.9 169.6 L113.1 169.7 L113.4 169.6 L113.9 169.4 L114.1 169.3 L114.1 168.7 L114.7 168.4 L115.6 168.2 L116.1 168.0 L117.1 168.0 L117.7 168.0 L118.0 167.7 L118.2 167.3 L118.1 167.1 L117.8 166.8 L117.7 166.7 L117.7 166.5 L117.8 166.0 L117.8 165.8 L117.7 165.5 L117.4 165.0 L117.3 164.7 L117.5 163.2 L118.3 163.3 L118.6 163.3 L118.8 163.0 L118.9 162.6 L118.8 162.1 L118.1 160.6 L117.7 158.8 L117.6 157.6 L117.6 157.2 L117.4 156.9 L117.1 156.6 L115.3 156.2 L114.9 156.3 L114.1 156.8 L113.7 156.9 L113.1 156.5 L113.0 155.9 L113.2 154.4 L111.6 154.5 L111.9 151.8 L111.8 150.9 L111.5 150.0 L110.6 148.3 L110.2 147.4 L109.5 143.4 L109.0 142.0 L108.3 141.4 L108.2 141.3 L107.9 140.9 L106.0 132.4 L106.0 132.0 L106.2 131.7 L106.6 131.4 L106.8 131.3 L107.2 130.0 L107.2 129.8 L106.9 129.2 L106.6 128.8 L106.4 128.5 L106.5 127.7 L106.9 126.7 L109.7 121.9 L110.0 121.8 L110.0 121.7 L110.0 121.7 L111.2 121.3 L111.4 121.2 L111.6 119.9 L111.7 119.7 L112.8 118.3 L113.0 117.8 L113.0 117.5 L112.9 117.3 L112.8 117.1 L112.6 116.8 L112.6 116.5 L113.8 109.1 L114.1 108.1 L115.8 104.3 L115.9 104.2 L116.2 103.9 L116.3 103.7 L116.3 103.6 L116.2 103.3 L116.2 103.2 L116.4 103.0 L117.0 102.6 L117.2 102.4 L117.3 102.2 L117.4 100.3 L117.4 100.2 L117.6 100.1 L117.7 100.3 L117.9 100.4 L117.9 100.5 L118.3 100.1 L119.4 98.9 L119.9 98.6 L121.3 98.1 L121.8 97.8 L122.0 97.5 L122.1 97.1 L121.9 96.5 L121.6 95.8 L121.5 95.5 L121.6 95.1 L121.8 94.8 L122.0 94.6 L122.2 94.7 L122.5 94.8 L122.7 94.8 L123.1 94.7 L124.2 94.1 L124.3 93.7 L123.2 86.9 L122.1 80.1 L122.0 79.7 L121.8 79.8 L121.8 79.8 L121.6 79.6 L121.7 79.3 L121.9 79.2 L122.1 79.0 L122.2 78.7 L121.7 77.0 L121.6 76.6 L121.6 76.4 L121.5 76.3 L121.3 76.3 L121.1 76.2 L120.8 75.0 L120.7 74.5 L120.6 74.1 L120.0 73.8 L119.4 73.7 L118.7 73.7 L118.4 73.6 L118.2 73.5 L118.1 73.3 L117.8 73.2 L118.0 72.8 L118.1 72.5 L118.2 71.2 L118.3 71.0 L118.8 70.5 L119.2 69.6 L119.5 69.2 L120.3 68.8 L120.6 68.3 L120.6 67.9 L120.2 67.7 L119.8 67.6 L119.5 67.3 L119.3 67.0 L119.3 66.5 L119.6 66.2 L119.9 66.0 L120.2 65.8 L120.3 65.4 L120.3 64.8 L120.2 64.4 L120.2 64.2 L120.3 63.4 L120.2 63.1 L119.9 62.6 L119.0 61.5 L118.2 60.8 L118.0 60.5 L118.0 60.1 L118.0 59.7 L118.1 59.3 L118.3 59.0 L118.7 58.7 L118.6 58.6 L118.4 58.5 L118.3 58.3 L118.3 58.1 L118.2 57.9 L118.0 57.8 L117.8 57.8 L117.7 57.8 L117.5 57.5 L117.3 57.0 L117.4 56.5 L117.8 55.7 L118.7 54.8 L118.8 54.5 L118.7 54.3 L118.2 53.4 L118.1 52.8 L118.3 51.7 L118.3 51.0 L118.2 50.6 L117.6 49.8 L117.5 49.3 L117.5 47.2 L117.2 46.1 L117.2 45.6 L117.6 45.1 L118.1 44.8 L118.2 44.5 L118.3 44.2 L118.3 43.9 L118.2 43.8 L118.1 43.7 L117.8 43.6 L117.6 43.5 L117.4 43.5 L117.2 43.4 L117.2 43.1 L117.1 43.0 L116.9 42.9 L116.6 42.9 L116.4 42.8 L116.2 42.4 L116.2 41.9 L116.3 41.4 L116.5 41.0 L116.7 40.8 L116.9 40.7 L117.1 40.6 L117.4 40.6 L117.7 40.5 L117.9 40.2 L118.0 40.0 L117.9 39.9 L117.3 39.9 L116.9 39.8 L116.6 39.7 L115.8 38.9 L115.6 38.6 L115.5 38.1 L115.4 38.0 L115.1 37.7 L115.0 37.6 L114.9 37.3 L114.9 36.8 L114.8 36.6 L114.1 35.3 L114.0 34.8 L114.1 34.6 L114.4 34.0 L114.5 33.6 L114.6 33.5 L114.7 33.4 L114.7 33.3 L114.6 33.2 L114.5 33.1 L114.4 33.1 L114.3 33.1 L114.3 33.0 L114.2 32.7 L114.3 32.6 L114.6 32.3 L114.7 32.1 L114.8 31.5 L115.2 30.9 L115.5 29.8 L115.6 29.3 L116.0 28.9 L116.4 28.6 L116.7 28.2 L116.8 27.7 L116.7 27.2 L116.4 26.8 L116.3 26.3 L116.3 26.1 L116.3 26.0 L118.4 26.0 L118.4 26.3 L118.9 26.3 L121.2 26.3 L126.0 26.2 L131.8 26.2 L137.3 26.1 L142.6 26.1 L146.4 26.0 L146.7 25.9 L146.8 25.4 L147.3 25.3 L150.3 25.4 L150.6 25.5 L150.9 25.6 L151.7 25.9 L152.3 26.0 L155.4 26.1 L158.3 26.1 L158.5 25.7 L159.2 25.6 L162.5 25.9 L162.7 25.9 L162.9 26.0 L163.1 26.4 L163.2 26.5 L163.5 26.4 L163.3 26.8 L163.7 26.7 L164.3 26.1 L164.8 26.0 L164.9 25.9 L165.1 25.8 L165.2 25.9 L165.3 26.0 L165.3 26.0 L168.1 26.1 L168.3 26.1 L168.3 26.4 L168.4 26.4 L168.6 26.3 L168.8 26.4 L169.0 26.5 L168.9 26.7 L168.7 26.9 L168.6 27.1 L169.8 28.2 L170.2 27.9 L170.4 27.4 L170.6 26.8 L170.8 26.4 L171.2 26.3 L171.7 26.2 L172.6 26.2 L172.7 26.2 L172.8 26.2 L172.9 26.1 L172.9 26.0 L172.9 26.0 L173.2 25.8 L173.8 25.5 L174.1 25.2 L174.2 25.0 L174.3 24.4 L174.4 24.1 L174.9 23.5 L175.3 23.5 L175.8 23.9 L176.2 24.4 L177.4 23.5 L177.8 23.2 L177.9 22.8 L177.9 22.6 L177.8 22.4 L177.9 22.0 L181.1 22.7 Z" fill="#172033" fill-rule="evenodd"/></svg>
