<svg xmlns="http://www.w3.org/2000/svg" viewBox="0 0 320 200" role="img"><path d="M29.0 134.6 L27.6 133.4 L26.2 133.0 L25.9 132.3 L26.3 131.5 L27.0 130.2 L26.8 128.8 L25.0 124.3 L25.0 123.2 L25.2 118.9 L25.0 117.7 L24.5 116.5 L22.9 114.8 L22.5 113.6 L23.2 112.1 L22.9 111.6 L22.0 109.5 L22.8 108.6 L23.8 105.7 L24.8 105.2 L25.9 104.9 L27.1 104.2 L28.1 103.4 L33.5 97.0 L35.8 95.1 L36.0 96.0 L36.5 96.7 L37.3 97.2 L38.3 97.6 L39.9 96.8 L41.5 96.7 L42.9 97.3 L43.9 98.3 L44.4 99.9 L43.4 100.2 L41.9 100.3 L40.8 101.4 L42.3 102.6 L43.5 105.3 L44.1 108.0 L43.9 109.5 L47.3 113.4 L48.0 114.0 L52.7 114.2 L54.0 114.5 L55.2 115.3 L55.9 115.9 L56.8 116.4 L58.7 116.5 L59.6 117.1 L60.1 118.6 L60.2 120.2 L59.6 121.5 L61.4 120.0 L62.2 120.0 L63.4 120.9 L62.9 119.9 L61.2 118.3 L60.9 118.0 L60.6 116.8 L60.0 116.1 L59.0 115.7 L57.7 115.8 L57.7 115.2 L60.4 115.3 L61.7 115.1 L62.8 114.5 L63.7 116.4 L64.8 116.0 L66.0 114.7 L67.5 114.0 L69.2 113.5 L72.6 111.3 L74.4 110.8 L77.0 111.6 L77.3 113.4 L77.0 115.5 L77.2 117.1 L78.8 117.5 L81.1 116.9 L84.2 115.2 L84.2 114.5 L83.2 114.6 L82.2 115.0 L81.4 115.5 L80.7 116.2 L79.8 116.8 L79.4 116.3 L79.0 113.8 L78.9 112.7 L78.7 111.8 L78.2 111.5 L77.7 111.2 L77.4 110.7 L77.2 110.0 L77.2 109.2 L77.5 107.5 L78.2 106.4 L81.9 103.4 L82.6 102.7 L82.9 101.7 L83.3 101.3 L84.2 101.4 L85.7 102.0 L98.5 102.7 L103.4 101.6 L105.2 101.4 L106.2 101.4 L106.7 101.5 L107.2 101.6 L108.0 101.4 L108.7 101.1 L109.2 100.7 L109.6 100.3 L109.8 100.1 L111.8 100.0 L117.8 100.7 L119.6 100.5 L125.0 98.9 L125.8 98.4 L127.6 97.2 L128.4 97.0 L129.3 97.3 L130.6 98.6 L131.5 98.9 L132.8 98.9 L133.8 98.7 L134.6 98.4 L135.7 97.6 L136.5 96.7 L137.9 94.5 L138.8 93.9 L139.9 93.8 L141.0 94.2 L142.1 94.8 L142.9 95.4 L143.8 95.8 L144.8 95.7 L145.8 95.3 L146.6 95.1 L148.4 95.6 L149.5 96.7 L150.4 98.0 L151.3 98.9 L154.5 99.9 L158.5 100.2 L161.8 98.8 L162.7 95.1 L162.2 95.1 L162.0 95.1 L162.0 95.1 L161.8 96.5 L161.2 97.7 L160.2 98.6 L159.2 98.9 L157.5 98.7 L154.3 97.8 L152.9 97.6 L151.6 97.2 L150.1 96.1 L147.9 94.2 L147.1 93.8 L146.3 93.9 L145.5 94.3 L144.7 94.5 L143.9 94.3 L143.2 93.8 L142.6 93.4 L142.2 93.2 L141.0 92.9 L139.9 92.4 L138.7 92.1 L136.9 92.6 L136.0 93.4 L134.7 95.1 L133.7 95.7 L132.2 95.8 L129.7 94.6 L128.1 94.5 L126.5 94.8 L122.4 97.0 L119.1 97.9 L89.8 100.2 L86.9 99.2 L85.1 98.9 L83.4 99.3 L81.7 100.1 L79.1 102.0 L75.3 105.8 L74.4 106.5 L73.7 106.8 L73.0 107.3 L72.3 107.6 L71.6 107.0 L71.5 106.3 L71.8 105.4 L71.9 104.3 L71.6 103.3 L70.0 104.7 L69.8 105.4 L70.4 106.5 L69.4 106.9 L69.1 107.0 L69.1 107.7 L69.5 107.8 L69.9 108.1 L70.4 108.2 L68.5 109.1 L65.4 109.6 L62.3 109.7 L60.3 109.5 L53.2 107.8 L50.2 107.7 L50.8 106.8 L51.9 104.6 L52.1 103.6 L51.9 102.3 L51.0 100.5 L50.8 99.8 L50.4 99.2 L48.7 98.0 L48.1 96.9 L47.2 96.4 L47.0 96.1 L47.0 94.2 L47.8 90.3 L47.7 88.9 L47.2 87.7 L46.6 86.8 L52.3 86.8 L58.0 86.8 L63.7 86.8 L69.4 86.8 L75.1 86.9 L80.8 86.9 L86.5 86.9 L90.2 86.9 L92.2 86.9 L97.9 86.9 L103.6 87.0 L109.3 87.0 L115.0 87.0 L120.7 87.0 L126.3 87.1 L132.0 87.1 L137.7 87.1 L142.2 87.1 L143.7 86.6 L143.8 83.0 L144.1 81.8 L144.2 81.1 L144.9 79.1 L145.8 77.2 L146.9 75.6 L149.7 72.6 L153.6 69.8 L157.8 68.3 L161.8 68.9 L162.7 69.7 L164.4 72.0 L165.2 72.6 L167.2 72.1 L174.1 67.8 L180.8 65.4 L182.7 65.5 L188.2 67.5 L197.4 67.9 L200.8 69.0 L202.5 70.4 L204.0 71.6 L205.2 73.1 L206.0 74.8 L207.8 80.8 L208.4 81.5 L212.2 83.7 L213.5 84.1 L214.6 83.8 L220.2 80.7 L223.9 79.7 L227.7 80.0 L231.6 81.8 L233.4 83.2 L234.7 84.7 L235.5 86.5 L236.8 90.5 L237.3 91.7 L238.3 92.7 L239.0 93.2 L245.7 97.9 L247.9 98.9 L249.5 99.1 L251.1 98.7 L256.5 96.8 L261.6 93.7 L263.3 93.0 L268.6 91.8 L272.9 89.7 L274.7 89.3 L275.7 89.2 L277.3 89.4 L278.3 89.2 L279.3 88.7 L281.2 87.7 L282.4 87.5 L284.4 87.8 L286.7 88.6 L288.9 89.7 L290.4 90.9 L290.9 91.7 L291.5 93.4 L292.0 94.2 L292.2 94.4 L292.8 94.9 L294.9 96.1 L295.8 96.9 L298.0 101.2 L297.6 105.9 L295.0 109.8 L290.5 111.7 L283.6 112.3 L279.9 113.3 L276.2 113.3 L272.3 114.7 L270.7 114.7 L269.3 115.3 L264.9 118.6 L262.9 119.5 L260.2 119.6 L255.3 118.7 L250.1 119.1 L247.6 119.0 L245.2 118.3 L241.8 116.6 L240.9 115.9 L240.0 115.2 L239.3 114.3 L238.3 113.2 L237.1 112.9 L234.2 112.8 L232.8 112.4 L231.6 111.7 L230.8 110.9 L228.1 108.6 L227.1 108.2 L224.1 108.9 L220.7 109.3 L217.4 108.9 L214.3 107.7 L211.8 105.4 L209.9 102.9 L208.9 102.3 L207.1 102.0 L205.4 101.4 L202.3 99.6 L200.9 99.2 L197.4 98.9 L194.3 98.1 L188.3 95.1 L188.3 95.1 L188.3 95.1 L188.3 95.1 L183.7 91.9 L179.6 88.1 L177.1 86.5 L175.0 87.3 L173.1 89.2 L171.0 91.3 L169.7 93.4 L169.4 99.1 L168.8 101.6 L167.0 104.0 L164.3 105.7 L161.3 106.8 L158.3 107.3 L155.0 107.3 L145.0 105.2 L142.1 105.1 L139.9 105.9 L137.8 107.0 L135.1 107.9 L133.6 108.1 L127.4 107.5 L126.2 107.5 L122.1 108.8 L115.7 109.4 L114.7 110.0 L114.3 111.3 L114.2 117.8 L114.1 119.2 L113.9 125.7 L113.3 126.2 L109.9 126.2 L107.5 126.1 L101.6 126.1 L89.6 126.0 L69.3 125.8 L55.4 125.7 L40.3 125.5 L36.3 125.5 L33.1 126.2 L31.8 128.4 L31.5 129.3 L30.0 130.7 L29.4 131.5 L29.1 132.5 L29.0 134.6 Z" fill="#172033" fill-rule="evenodd"/></svg>
