<svg xmlns="http://www.w3.org/2000/svg" viewBox="0 0 320 200" role="img"><path d="M193.3 151.9 L193.3 151.9 L192.2 151.1 L192.2 151.2 L192.0 151.5 L191.9 150.7 L191.5 150.9 L190.6 151.8 L190.0 151.9 L189.6 151.7 L189.2 151.5 L188.6 151.4 L188.2 151.6 L187.9 151.7 L187.0 152.8 L186.4 153.2 L186.3 152.5 L185.9 152.1 L185.3 152.0 L184.8 152.4 L184.6 153.0 L184.7 153.4 L185.0 153.8 L185.1 154.3 L184.9 154.6 L184.5 154.9 L184.3 155.2 L184.5 155.8 L185.3 155.9 L185.6 156.0 L185.8 156.2 L185.9 156.3 L186.1 156.7 L186.2 156.9 L186.2 157.5 L186.3 157.7 L186.5 157.9 L187.0 158.1 L187.1 158.3 L187.1 158.9 L186.8 159.1 L182.7 160.1 L181.7 160.5 L180.8 161.2 L180.0 162.1 L178.4 164.9 L178.3 165.2 L178.3 165.5 L178.5 166.0 L178.6 166.1 L178.6 166.3 L178.0 166.6 L177.4 166.4 L176.4 165.6 L175.8 165.4 L175.2 165.5 L173.5 166.1 L173.1 166.4 L172.3 167.2 L168.6 169.7 L168.0 170.1 L167.7 170.7 L167.5 171.2 L167.1 171.8 L166.6 172.1 L165.6 172.7 L165.1 173.1 L164.8 173.7 L164.6 174.3 L164.5 174.9 L164.6 175.5 L165.2 178.0 L165.2 178.0 L159.5 175.7 L153.6 173.1 L149.8 171.8 L146.8 171.1 L144.6 170.7 L141.9 170.5 L139.0 170.7 L138.5 170.9 L134.2 171.1 L129.1 171.0 L124.4 170.5 L118.6 169.4 L109.7 165.6 L106.4 163.8 L101.6 160.9 L96.0 156.9 L90.6 152.2 L83.1 146.9 L83.9 146.8 L84.6 146.0 L85.4 143.7 L86.2 142.2 L86.4 141.6 L86.4 140.9 L85.7 139.0 L85.7 138.8 L85.7 138.2 L85.7 137.9 L85.3 137.0 L85.2 136.6 L85.2 135.8 L85.4 135.4 L86.2 134.5 L86.6 133.3 L86.5 131.0 L86.6 129.7 L87.1 129.3 L87.6 129.1 L88.1 129.1 L88.6 128.9 L89.0 128.4 L89.7 126.7 L84.8 120.5 L84.5 119.9 L84.5 119.2 L84.7 118.5 L85.4 117.3 L87.3 114.2 L88.5 112.2 L89.9 109.8 L92.9 104.8 L96.0 99.7 L98.6 95.3 L100.4 92.2 L101.2 91.0 L102.0 89.6 L102.5 89.0 L103.1 88.7 L104.8 88.7 L110.1 88.7 L115.4 88.7 L120.6 88.7 L125.9 88.7 L130.9 88.7 L131.2 88.7 L136.4 88.7 L141.7 88.7 L146.9 88.7 L150.4 88.7 L151.1 88.6 L151.8 88.3 L151.8 88.3 L152.0 88.1 L152.2 87.6 L152.3 87.3 L152.1 87.4 L152.0 87.4 L151.9 87.4 L151.8 87.5 L151.5 87.5 L151.4 86.9 L152.3 86.2 L151.8 85.7 L151.8 85.5 L152.6 85.1 L152.4 84.7 L151.3 84.1 L151.1 83.4 L151.4 82.9 L151.9 82.5 L152.3 82.3 L151.8 82.1 L151.4 81.8 L151.4 81.5 L151.8 81.0 L152.0 81.2 L152.1 81.2 L152.6 81.3 L152.4 81.1 L152.2 80.7 L152.1 80.5 L152.2 80.5 L152.3 80.4 L152.3 80.3 L152.3 80.2 L152.6 80.4 L152.9 80.5 L153.1 80.4 L153.1 80.0 L152.9 80.1 L152.3 79.9 L151.9 79.6 L152.2 79.4 L152.9 79.2 L153.5 78.7 L153.7 78.1 L153.4 77.6 L153.1 77.6 L153.1 77.9 L152.9 77.9 L152.9 77.3 L153.3 77.1 L153.8 77.2 L154.4 77.3 L154.0 76.6 L153.9 76.4 L153.9 75.9 L153.8 75.3 L153.6 75.3 L153.3 75.4 L152.9 75.5 L152.6 75.4 L152.3 75.2 L152.0 75.1 L150.7 74.9 L150.6 74.7 L150.7 74.4 L150.5 73.9 L150.3 73.7 L149.9 73.5 L149.5 73.4 L148.6 73.8 L148.3 73.5 L148.2 72.6 L147.8 72.6 L146.8 72.9 L146.6 73.0 L146.4 72.9 L145.8 72.8 L145.2 72.8 L144.7 72.9 L144.9 72.5 L145.3 72.3 L145.5 72.0 L145.5 71.6 L145.1 71.3 L144.5 71.3 L144.2 71.1 L144.5 70.5 L144.3 69.9 L144.6 69.3 L144.7 68.7 L144.2 68.4 L144.1 68.7 L144.0 68.8 L143.8 68.9 L143.4 68.9 L143.4 68.7 L143.9 67.8 L143.4 66.4 L140.8 62.8 L140.3 62.4 L138.9 61.8 L138.4 61.3 L138.5 60.9 L138.5 60.6 L138.0 60.3 L137.6 60.6 L137.2 60.6 L134.5 59.8 L133.8 59.4 L132.7 58.3 L131.9 58.0 L132.5 57.3 L132.4 57.0 L131.9 56.9 L131.3 56.9 L131.2 57.1 L131.3 57.5 L131.4 57.8 L131.0 58.0 L130.8 57.9 L130.3 57.4 L130.1 57.2 L128.6 56.7 L128.2 56.3 L128.0 55.5 L127.8 55.1 L126.4 53.5 L126.3 53.2 L126.1 52.5 L125.9 52.2 L125.5 52.2 L124.6 52.2 L124.2 52.1 L122.8 50.7 L122.5 50.1 L122.3 49.8 L122.1 49.1 L122.0 48.8 L121.6 48.6 L120.8 48.4 L120.7 48.2 L120.6 47.6 L120.4 46.9 L120.1 46.3 L119.6 45.9 L118.6 45.9 L117.6 46.0 L116.8 45.9 L116.5 45.0 L115.9 44.7 L114.7 44.5 L113.8 44.1 L114.0 43.5 L114.3 43.4 L131.0 43.5 L131.1 33.0 L131.1 22.5 L131.4 22.2 L132.2 22.0 L133.8 22.0 L142.2 22.0 L150.6 22.0 L159.0 22.0 L167.4 22.0 L175.8 22.0 L184.2 22.0 L192.6 22.1 L201.0 22.1 L201.1 30.3 L201.4 40.9 L201.4 51.8 L200.8 61.7 L200.1 72.4 L199.7 76.4 L199.1 84.2 L198.2 93.1 L198.1 94.9 L198.1 95.4 L198.4 95.9 L198.5 95.8 L198.8 95.6 L199.3 95.5 L199.6 95.4 L200.3 95.2 L203.3 95.3 L204.3 95.1 L205.6 95.1 L209.0 96.0 L210.4 95.4 L210.9 95.6 L212.2 96.7 L213.5 96.4 L215.2 96.7 L216.5 97.5 L216.7 98.3 L217.5 98.4 L221.4 100.8 L220.9 102.5 L221.0 102.7 L222.0 102.7 L222.5 102.6 L222.6 102.3 L222.5 102.0 L222.4 101.9 L222.4 101.8 L222.3 101.6 L222.2 101.5 L222.2 101.2 L222.4 101.1 L222.7 101.2 L223.1 101.1 L223.2 100.8 L223.4 100.1 L223.7 99.7 L224.1 99.4 L224.3 99.1 L224.3 98.5 L224.0 97.6 L224.0 97.0 L224.3 97.0 L224.3 97.4 L224.3 97.5 L224.5 97.5 L225.0 97.2 L226.1 97.4 L226.6 97.2 L225.8 96.4 L225.3 96.1 L224.6 95.7 L224.3 95.4 L224.0 94.9 L223.7 94.6 L222.1 93.7 L221.6 93.1 L222.2 92.5 L222.8 92.8 L223.8 93.3 L224.3 93.6 L225.4 94.7 L226.2 95.1 L228.2 96.8 L232.1 98.5 L233.4 99.7 L233.8 99.8 L235.5 101.3 L236.8 101.8 L236.9 101.8 L236.4 102.0 L236.3 102.3 L236.3 102.8 L236.1 103.3 L235.8 103.0 L235.2 103.3 L234.6 103.6 L234.0 103.8 L233.2 103.8 L233.0 104.1 L231.8 106.0 L230.1 107.7 L227.5 109.7 L226.2 110.6 L222.9 113.1 L219.6 115.6 L216.2 118.1 L213.0 120.6 L208.1 124.2 L206.8 124.8 L202.9 126.1 L201.7 126.6 L201.5 126.8 L201.0 127.2 L200.5 127.9 L199.9 129.7 L200.7 130.4 L200.7 131.4 L200.2 132.5 L199.9 132.9 L199.5 133.4 L198.6 134.2 L198.3 134.6 L198.2 135.3 L198.4 135.9 L198.8 136.4 L199.5 137.3 L199.9 137.8 L200.6 139.5 L201.0 140.0 L201.4 140.3 L201.5 140.6 L201.6 140.7 L201.7 141.3 L201.6 141.6 L201.2 142.1 L201.0 142.3 L201.2 144.2 L201.2 144.9 L201.0 145.5 L200.5 146.0 L200.1 146.0 L199.1 145.7 L198.7 145.6 L198.0 145.7 L197.7 145.9 L197.5 146.2 L197.2 146.6 L196.0 147.6 L195.5 148.1 L195.1 148.8 L194.8 149.1 L193.9 149.3 L193.5 149.6 L193.3 150.1 L193.2 150.7 L193.3 151.9 Z" fill="#172033" fill-rule="evenodd"/></svg>
