<svg xmlns="http://www.w3.org/2000/svg" viewBox="0 0 320 200" role="img"><path d="M290.6 22.5 L289.9 28.4 L290.0 30.4 L290.9 32.8 L295.3 38.3 L296.4 40.1 L296.6 41.7 L296.3 43.2 L294.7 46.9 L294.5 47.6 L294.4 48.7 L294.7 51.3 L294.6 52.3 L293.9 54.1 L293.5 56.4 L292.0 58.7 L289.5 59.6 L283.4 59.7 L284.6 57.7 L283.1 57.3 L280.6 57.8 L278.9 58.8 L276.8 60.6 L271.4 63.0 L269.4 65.2 L269.2 66.1 L269.2 68.0 L268.8 69.0 L269.5 69.3 L271.8 69.7 L273.6 70.2 L275.3 71.3 L277.1 72.9 L278.0 73.5 L280.4 74.4 L280.8 74.9 L281.1 75.6 L281.5 76.4 L283.5 78.6 L284.6 79.3 L286.0 79.9 L289.1 80.4 L290.0 80.8 L291.0 82.3 L291.1 83.9 L290.3 87.5 L290.0 91.2 L291.4 101.7 L291.4 103.3 L290.9 107.2 L290.4 108.3 L289.0 109.4 L286.9 110.2 L284.6 110.6 L282.8 110.4 L282.3 109.7 L282.5 109.1 L282.4 108.5 L281.1 108.1 L280.4 107.7 L280.1 105.9 L279.3 105.4 L278.0 105.3 L277.7 105.8 L278.1 106.8 L277.9 108.9 L277.6 109.7 L276.5 111.4 L275.0 112.3 L273.2 112.3 L271.2 111.4 L270.5 111.9 L266.7 114.2 L265.0 114.8 L261.1 114.2 L259.7 114.2 L257.1 114.7 L255.8 114.7 L254.4 114.4 L253.5 113.9 L252.7 113.2 L252.0 112.7 L251.1 112.5 L249.0 112.8 L241.6 112.3 L241.0 112.1 L240.6 112.0 L239.6 112.5 L238.9 113.3 L237.9 115.4 L237.3 116.3 L236.2 117.2 L227.9 121.6 L220.0 125.9 L216.3 126.5 L208.9 125.7 L205.2 126.1 L203.1 127.2 L201.5 129.0 L192.6 141.7 L191.3 145.1 L189.5 152.1 L181.0 168.4 L178.0 171.9 L178.0 171.9 L175.5 174.5 L172.0 176.9 L169.7 178.0 L168.7 177.8 L169.0 176.7 L169.6 176.1 L170.4 175.7 L171.1 175.1 L172.5 173.1 L173.0 172.6 L173.0 172.0 L172.4 172.0 L172.0 172.9 L171.5 173.6 L170.9 174.1 L169.9 174.5 L168.9 174.5 L167.9 174.3 L167.2 173.8 L166.9 173.0 L168.5 166.4 L169.0 165.3 L170.0 164.8 L170.5 163.7 L170.9 162.4 L171.5 161.4 L172.0 161.1 L173.1 161.2 L173.6 161.0 L173.6 160.7 L173.5 159.5 L173.6 159.2 L177.3 158.9 L177.1 158.1 L176.7 157.5 L176.1 157.1 L175.5 156.8 L176.6 155.5 L177.3 153.8 L177.2 152.3 L176.0 151.3 L175.2 153.6 L173.9 155.3 L172.1 156.3 L169.9 156.8 L170.4 158.2 L170.0 159.1 L169.2 159.3 L168.2 158.6 L168.0 159.0 L167.7 159.4 L167.5 159.8 L167.5 160.4 L167.1 160.2 L166.2 159.8 L166.2 161.5 L165.7 162.3 L164.8 162.9 L163.5 163.8 L162.5 165.1 L161.2 167.6 L158.9 170.7 L157.9 171.6 L156.8 172.0 L155.7 171.5 L154.3 170.3 L153.3 169.0 L153.2 168.1 L154.2 167.4 L156.8 166.0 L157.8 165.3 L158.2 164.3 L158.9 160.4 L158.0 152.9 L158.9 150.7 L156.9 151.0 L156.4 152.4 L156.7 154.1 L157.2 155.6 L157.3 157.0 L157.2 159.1 L156.5 160.6 L154.2 159.7 L151.1 159.8 L150.1 159.5 L149.5 159.1 L149.0 158.8 L148.6 158.6 L146.5 158.9 L145.4 158.7 L144.9 157.7 L144.7 156.7 L144.1 156.1 L143.2 155.7 L142.2 155.6 L140.9 154.7 L140.5 152.5 L140.6 148.3 L140.9 147.3 L140.8 146.7 L140.3 146.4 L139.8 146.4 L139.5 146.3 L139.4 146.0 L139.4 145.5 L139.5 144.5 L139.9 143.4 L140.0 142.4 L140.5 141.6 L142.7 138.6 L143.7 137.9 L144.2 138.0 L146.0 138.8 L147.1 139.0 L148.0 138.7 L149.2 137.5 L150.1 137.3 L151.0 136.8 L152.1 135.6 L153.0 134.2 L153.5 133.0 L148.6 136.9 L146.8 137.9 L145.4 137.1 L145.1 136.0 L145.6 133.3 L146.1 132.4 L147.1 131.3 L147.8 130.4 L147.4 129.9 L145.9 130.3 L144.7 131.4 L143.9 132.9 L143.7 134.5 L143.1 135.5 L141.8 136.2 L140.4 136.7 L139.4 137.3 L138.5 138.7 L138.1 139.8 L137.3 140.6 L135.5 141.0 L134.3 141.3 L133.3 141.8 L132.6 141.6 L132.2 139.7 L132.4 138.7 L133.8 135.5 L134.2 134.8 L134.5 134.2 L137.0 130.6 L135.4 130.5 L134.9 129.9 L134.9 128.9 L135.2 127.5 L135.9 128.0 L136.7 128.0 L137.5 127.6 L138.3 126.9 L138.3 127.4 L138.8 128.7 L139.2 127.6 L139.9 126.6 L140.6 126.3 L141.2 127.5 L141.9 127.5 L141.8 126.6 L141.6 125.8 L141.2 125.1 L140.6 124.4 L141.1 124.4 L141.1 124.3 L141.1 124.1 L141.2 123.8 L142.1 124.2 L143.0 124.4 L144.3 124.4 L145.8 124.8 L146.3 124.5 L145.6 123.2 L145.9 122.5 L146.2 121.4 L146.8 121.4 L147.5 122.4 L148.7 122.2 L149.8 122.2 L149.8 123.8 L151.5 123.2 L151.5 122.0 L150.4 120.6 L149.1 119.6 L148.8 119.8 L148.4 119.9 L147.4 120.2 L147.4 119.6 L149.3 118.9 L150.2 118.4 L151.1 117.7 L151.7 118.8 L152.9 120.1 L154.3 120.8 L155.9 120.2 L154.9 120.0 L154.8 119.4 L155.0 118.6 L154.7 117.7 L154.0 117.3 L153.3 117.3 L152.6 117.1 L152.3 115.9 L153.3 116.2 L155.3 116.7 L155.9 117.1 L157.2 116.5 L157.0 117.1 L156.7 118.3 L156.5 118.9 L158.7 120.4 L159.4 120.3 L160.2 118.9 L159.7 118.1 L158.6 116.6 L158.4 116.2 L158.6 115.6 L159.2 114.9 L160.0 114.3 L160.8 114.0 L160.9 114.2 L161.6 114.7 L162.6 115.1 L163.5 115.3 L164.1 115.6 L164.4 116.3 L164.5 117.3 L164.5 118.3 L166.2 117.7 L166.1 117.4 L165.8 116.8 L165.7 116.5 L167.0 116.5 L167.9 117.0 L168.6 117.9 L169.3 118.9 L165.8 119.6 L164.5 119.6 L164.9 120.0 L165.1 120.4 L165.5 120.6 L166.2 120.8 L165.8 122.2 L166.3 123.0 L167.1 122.9 L168.0 120.5 L169.0 120.4 L170.1 120.6 L170.5 120.5 L173.4 120.3 L174.2 120.2 L175.2 119.7 L175.9 119.1 L176.4 118.3 L176.7 117.1 L175.6 117.4 L174.8 117.9 L173.8 118.2 L170.9 118.5 L170.2 118.3 L169.9 117.4 L170.1 117.0 L170.6 116.7 L171.2 116.5 L171.8 116.5 L171.5 115.7 L171.4 115.2 L171.8 114.0 L170.8 113.8 L170.0 114.3 L169.5 115.2 L169.3 116.5 L168.1 115.1 L167.3 114.7 L166.2 114.7 L166.2 114.0 L166.9 113.7 L168.2 112.2 L168.2 111.6 L167.5 110.4 L166.9 110.4 L165.7 113.4 L164.6 113.7 L163.3 112.9 L162.0 112.8 L162.9 111.5 L164.2 110.9 L165.3 110.2 L165.7 108.5 L164.9 109.3 L164.1 109.7 L163.3 109.7 L162.6 109.1 L162.0 109.1 L161.9 110.0 L161.7 110.6 L161.1 110.9 L160.2 111.0 L160.5 112.3 L159.8 112.6 L158.9 112.2 L158.4 111.0 L157.0 112.9 L156.3 112.4 L156.7 110.9 L158.9 109.8 L158.1 109.2 L157.8 108.5 L157.9 107.7 L158.4 106.7 L158.9 106.7 L159.3 107.0 L159.7 107.1 L160.8 107.3 L160.4 106.1 L159.6 105.3 L157.8 104.3 L157.2 104.3 L156.9 105.8 L156.3 106.9 L155.8 108.1 L155.9 109.8 L155.0 110.2 L154.2 111.3 L153.5 111.6 L152.9 111.3 L153.2 110.5 L154.1 109.1 L153.0 108.7 L152.8 107.6 L153.5 104.9 L152.6 105.4 L152.0 106.2 L151.7 107.1 L151.6 108.2 L151.3 108.3 L149.4 108.3 L148.6 108.5 L149.8 109.1 L149.8 109.8 L150.8 110.5 L151.9 111.1 L152.3 111.9 L151.9 113.1 L151.2 113.4 L150.3 113.0 L149.8 112.2 L149.4 112.9 L149.0 113.7 L148.8 114.4 L148.6 115.3 L147.9 111.8 L147.4 110.6 L146.9 110.8 L146.2 111.0 L146.8 112.2 L145.6 112.2 L145.9 114.6 L146.3 115.6 L147.4 116.5 L146.8 117.7 L145.4 116.7 L144.2 115.5 L142.5 112.8 L142.2 114.4 L142.8 115.9 L143.7 117.3 L144.3 118.9 L143.9 118.7 L142.5 118.3 L142.1 119.5 L141.3 119.5 L140.7 118.6 L140.6 117.1 L140.0 117.1 L139.7 117.9 L139.4 118.8 L139.3 119.8 L139.4 120.8 L138.6 120.4 L138.3 120.2 L138.3 121.9 L137.3 121.3 L137.0 120.6 L136.7 119.6 L136.1 118.6 L135.6 117.6 L136.0 116.9 L137.0 116.2 L137.4 114.8 L138.3 113.5 L139.2 111.8 L139.4 109.8 L136.5 112.5 L134.9 113.3 L133.3 112.2 L133.8 111.4 L133.8 109.6 L133.9 108.5 L132.7 108.5 L132.0 108.8 L131.5 109.3 L130.9 109.8 L130.9 110.1 L130.2 110.9 L129.4 111.3 L129.0 110.7 L128.7 109.2 L128.2 107.8 L128.2 106.3 L129.9 103.8 L130.6 101.9 L131.2 101.0 L134.6 97.6 L135.5 97.0 L136.1 96.8 L136.3 96.4 L136.4 95.4 L136.6 94.6 L137.1 93.8 L138.3 92.7 L138.8 92.7 L139.1 93.3 L139.3 93.5 L139.7 93.7 L140.0 94.0 L140.4 93.1 L140.8 92.8 L141.3 92.9 L141.9 92.7 L144.0 92.8 L147.5 93.7 L149.5 94.0 L160.5 94.0 L160.9 93.7 L162.4 92.3 L162.9 92.0 L165.3 91.5 L166.7 90.2 L167.9 88.8 L169.3 87.8 L171.4 87.8 L171.7 89.2 L171.1 91.0 L170.2 92.4 L169.6 94.1 L169.6 96.3 L170.2 98.5 L171.1 100.0 L172.9 100.8 L175.1 101.1 L177.1 101.8 L177.9 103.4 L178.9 104.4 L181.0 104.9 L183.0 104.5 L184.0 103.0 L181.7 103.8 L180.0 102.4 L178.8 100.4 L177.6 99.4 L175.0 99.1 L174.2 98.8 L173.2 98.2 L172.7 97.6 L172.2 96.9 L171.5 96.1 L171.1 94.9 L171.9 93.8 L173.0 92.8 L173.6 91.8 L175.2 87.4 L175.3 86.9 L175.7 86.6 L177.0 86.6 L177.9 86.3 L177.9 85.7 L177.3 85.1 L176.7 84.7 L176.7 84.4 L175.8 84.2 L174.8 84.1 L173.9 84.5 L173.2 84.6 L171.2 83.8 L170.2 83.6 L169.0 84.0 L166.2 85.6 L164.8 86.0 L164.0 86.6 L161.5 89.3 L160.2 90.2 L158.2 90.6 L156.5 90.2 L152.9 89.1 L149.4 88.5 L148.3 88.0 L147.1 86.9 L145.4 85.8 L143.4 85.3 L141.3 85.4 L139.4 86.0 L138.7 86.4 L137.2 87.6 L136.7 87.8 L134.8 87.7 L133.8 87.8 L133.0 88.1 L130.2 90.9 L129.7 91.2 L128.4 91.7 L127.9 92.0 L125.2 95.7 L124.5 96.3 L122.7 96.8 L118.8 99.2 L117.1 99.9 L116.8 100.0 L111.1 101.0 L110.2 101.5 L109.3 102.3 L105.1 104.5 L103.4 104.9 L105.2 97.7 L106.8 94.7 L109.0 94.6 L109.5 94.9 L110.2 95.1 L111.0 95.2 L111.9 95.1 L111.9 94.5 L110.3 94.4 L108.2 92.7 L106.5 92.7 L105.1 93.8 L104.7 95.3 L104.5 97.0 L101.6 102.5 L100.7 103.0 L99.0 102.6 L98.6 101.5 L99.2 98.2 L97.7 98.9 L97.3 100.3 L97.3 102.1 L96.7 103.7 L96.1 104.0 L94.2 104.7 L93.3 105.2 L92.5 106.0 L91.9 106.1 L91.6 105.7 L91.2 104.9 L91.0 103.1 L91.5 101.4 L93.0 98.2 L94.3 93.2 L94.9 92.0 L95.2 91.7 L95.8 91.3 L96.4 91.0 L97.0 90.9 L97.4 90.6 L98.0 88.4 L100.3 85.0 L101.0 84.2 L102.3 83.4 L104.1 82.7 L106.1 82.2 L107.7 82.3 L108.2 82.8 L108.5 83.6 L109.0 84.4 L109.8 84.7 L111.6 84.8 L112.4 85.0 L113.2 85.4 L113.4 84.1 L114.1 82.9 L114.4 81.8 L113.8 81.1 L113.3 81.4 L112.4 82.3 L111.2 83.0 L109.5 82.9 L109.0 82.6 L108.4 81.5 L107.7 81.1 L106.9 80.9 L106.5 80.9 L106.2 81.0 L102.8 81.3 L101.6 80.9 L101.0 79.9 L100.4 79.9 L99.8 81.3 L98.1 82.3 L96.1 82.8 L94.3 82.9 L94.5 83.6 L94.6 83.8 L94.9 84.2 L94.6 84.3 L94.4 84.3 L94.2 84.4 L94.3 84.7 L93.5 84.4 L93.0 84.0 L93.1 84.4 L93.4 85.6 L93.2 86.7 L92.4 87.8 L91.1 89.0 L89.9 89.5 L83.3 89.6 L82.5 89.9 L80.7 90.7 L80.0 90.9 L79.5 91.2 L78.9 91.8 L78.2 92.5 L77.2 92.7 L76.3 92.4 L75.5 91.8 L74.1 90.2 L72.0 90.7 L69.1 90.2 L66.6 89.1 L65.6 88.1 L63.8 84.2 L62.9 83.7 L60.5 83.3 L59.5 82.9 L58.7 82.1 L58.2 81.0 L57.8 79.7 L57.5 77.0 L56.7 74.7 L56.5 73.5 L58.9 68.3 L59.8 67.2 L60.8 66.4 L61.9 65.7 L63.1 65.2 L63.1 66.3 L63.6 67.1 L64.2 67.2 L65.0 66.4 L65.1 65.7 L64.3 64.4 L64.4 63.4 L65.4 62.0 L66.9 61.1 L68.5 60.4 L75.1 56.6 L76.5 55.4 L77.2 54.6 L78.2 53.1 L79.0 52.4 L79.8 52.1 L81.8 51.6 L82.7 51.2 L80.3 51.2 L78.7 51.8 L77.5 53.0 L76.2 54.6 L74.4 55.8 L69.9 56.7 L68.0 57.3 L64.9 59.3 L64.1 60.0 L61.0 63.4 L59.4 62.7 L59.5 61.1 L60.2 59.1 L60.1 57.3 L59.6 58.6 L58.5 60.4 L58.0 63.7 L57.1 64.9 L55.7 65.4 L54.0 64.6 L53.4 65.2 L53.2 64.8 L52.1 64.0 L52.0 65.2 L51.3 65.7 L50.2 65.9 L48.8 65.8 L48.6 66.2 L48.1 66.8 L47.5 67.2 L47.3 66.8 L47.1 66.4 L46.8 66.1 L46.3 65.9 L44.5 65.6 L43.7 65.0 L43.2 64.1 L43.0 63.1 L42.5 62.6 L40.3 60.3 L40.3 59.7 L39.7 59.4 L37.8 57.8 L36.9 57.3 L36.5 57.4 L35.2 57.9 L34.5 57.9 L34.0 57.5 L33.2 56.1 L32.7 55.4 L29.4 52.9 L28.4 52.4 L27.0 52.4 L26.0 52.8 L25.1 53.4 L24.1 53.7 L23.4 52.9 L25.4 51.5 L28.7 50.7 L40.8 51.5 L42.4 51.5 L47.1 50.3 L51.6 50.3 L54.3 49.2 L61.4 45.4 L67.5 42.2 L68.5 42.0 L69.4 42.2 L71.3 42.9 L72.1 43.0 L72.5 42.9 L72.9 42.6 L73.5 42.3 L80.2 41.2 L83.4 41.4 L88.9 43.3 L90.7 43.6 L97.7 43.1 L98.6 43.1 L114.0 44.0 L117.0 43.4 L139.5 33.1 L139.8 32.9 L144.5 29.5 L149.9 27.1 L155.1 23.4 L157.4 22.4 L160.0 22.0 L164.3 22.0 L188.7 22.1 L195.9 22.1 L227.4 22.3 L235.8 22.3 L259.0 22.4 L290.6 22.5 Z M93.0 153.7 L94.8 155.0 L96.1 156.7 L97.0 158.9 L97.6 162.8 L98.3 163.6 L98.9 164.2 L99.2 165.0 L98.7 166.2 L97.7 166.7 L96.4 166.8 L95.5 166.5 L94.8 167.0 L93.9 166.9 L91.5 166.5 L91.3 166.8 L90.8 167.1 L90.2 167.3 L90.0 166.8 L89.9 166.1 L90.0 165.7 L90.2 165.4 L90.9 165.3 L91.8 165.1 L94.3 163.9 L94.9 163.5 L94.5 162.5 L93.5 162.2 L92.6 162.7 L92.4 164.1 L91.8 163.5 L91.2 162.8 L92.0 161.5 L92.4 160.5 L92.5 159.4 L92.4 158.0 L92.0 156.0 L92.1 154.9 L93.0 153.7 Z M90.6 157.4 L90.8 160.0 L90.5 161.2 L89.7 162.5 L87.8 164.8 L86.8 165.4 L86.3 164.4 L86.0 163.0 L85.5 161.9 L85.4 160.7 L86.3 159.2 L84.3 159.2 L83.3 158.3 L83.2 157.0 L83.9 155.6 L85.2 154.6 L90.0 153.1 L90.3 153.9 L90.5 155.0 L90.6 157.4 Z M83.9 161.0 L82.7 161.0 L82.7 161.7 L83.5 163.4 L83.2 165.0 L82.7 166.4 L83.3 167.2 L81.5 168.3 L79.9 168.4 L78.3 168.3 L76.5 169.0 L76.2 168.2 L76.1 167.5 L76.2 166.7 L76.5 165.9 L76.0 165.9 L74.8 167.8 L75.4 169.0 L74.2 168.6 L73.9 168.4 L73.5 167.8 L71.5 168.0 L69.3 166.6 L67.4 164.4 L66.2 162.2 L67.4 161.1 L68.8 160.0 L70.3 159.5 L71.7 159.8 L70.4 160.3 L69.9 160.4 L70.0 160.8 L70.1 161.1 L70.2 161.3 L70.5 161.7 L71.3 160.9 L72.3 160.5 L73.2 159.8 L73.9 156.8 L74.6 156.2 L75.4 155.9 L76.0 154.9 L76.4 155.4 L77.8 156.2 L78.0 154.0 L79.4 153.0 L81.2 153.2 L82.7 154.4 L83.2 155.1 L83.0 155.6 L82.4 156.2 L82.1 157.1 L82.2 158.4 L82.6 159.2 L83.9 161.0 Z M101.0 144.6 L103.3 144.6 L103.8 145.5 L102.8 148.8 L102.7 152.5 L101.9 153.7 L99.7 153.7 L97.5 152.1 L97.5 149.4 L98.9 146.6 L101.0 144.6 Z M118.7 144.6 L118.4 146.2 L118.9 149.1 L118.7 150.7 L118.2 151.1 L117.7 150.1 L116.9 148.9 L115.6 148.8 L115.6 149.5 L116.3 149.5 L116.3 150.1 L115.6 151.3 L115.1 151.9 L114.4 152.5 L113.9 151.8 L113.7 151.5 L112.6 151.9 L113.1 152.8 L113.2 154.1 L113.0 155.5 L112.6 156.8 L112.4 156.4 L112.1 156.0 L111.9 155.6 L111.4 155.7 L111.2 155.7 L111.1 155.7 L110.7 155.6 L110.2 155.6 L109.3 156.6 L108.5 156.1 L107.9 154.9 L107.7 153.7 L108.3 153.1 L109.3 152.5 L109.7 151.8 L108.3 151.3 L108.3 150.7 L110.2 148.8 L110.3 148.4 L110.1 147.4 L110.2 147.0 L110.6 146.9 L111.2 147.0 L111.7 147.0 L111.9 146.7 L112.9 144.9 L115.0 144.3 L117.3 144.4 L118.7 144.6 Z M72.9 151.9 L67.0 152.4 L65.9 152.2 L63.5 151.0 L63.1 151.0 L63.2 150.0 L63.5 149.1 L64.1 148.5 L65.0 148.3 L64.9 146.7 L66.1 145.3 L67.9 144.5 L69.2 144.6 L69.9 143.9 L70.7 145.0 L71.7 145.1 L72.9 144.9 L74.1 145.2 L74.5 145.8 L74.8 147.0 L74.9 148.1 L74.8 148.8 L73.8 149.2 L72.9 149.8 L72.5 150.6 L72.9 151.9 Z M118.1 127.5 L118.3 127.7 L118.4 128.0 L118.7 128.1 L119.3 128.1 L119.2 128.5 L119.1 128.8 L118.7 129.4 L119.2 130.1 L118.8 130.8 L116.8 132.3 L116.4 131.5 L116.3 131.2 L115.6 131.2 L114.6 132.1 L113.1 132.1 L111.9 131.5 L111.4 130.6 L111.8 129.8 L112.6 129.7 L113.3 129.9 L113.8 129.9 L114.4 129.2 L114.9 128.5 L115.3 127.7 L115.6 126.9 L116.3 127.5 L116.7 127.1 L118.1 126.3 L118.5 126.6 L118.5 126.9 L118.1 127.5 Z M65.6 131.7 L63.7 131.7 L62.6 131.6 L61.4 131.2 L62.4 130.5 L64.1 129.6 L65.5 128.6 L66.2 127.2 L67.2 126.3 L69.5 125.7 L72.0 125.4 L73.5 125.6 L74.0 126.5 L73.7 127.4 L71.0 130.1 L70.5 130.6 L70.2 131.0 L70.0 131.5 L69.7 132.0 L69.2 132.3 L68.5 132.4 L65.6 131.7 Z M63.7 127.4 L63.2 127.6 L62.3 127.6 L61.4 128.1 L61.0 128.2 L60.7 128.6 L60.3 128.8 L59.8 128.4 L58.6 127.1 L58.3 126.9 L58.1 126.9 L53.4 126.9 L52.6 127.6 L51.9 128.0 L50.9 128.1 L51.2 127.5 L51.6 126.9 L51.0 125.7 L51.1 125.5 L51.6 125.0 L50.7 124.5 L50.3 124.4 L53.6 122.8 L57.3 122.7 L60.7 122.3 L63.1 119.6 L63.5 119.7 L63.6 119.7 L63.6 119.8 L63.8 120.2 L64.4 120.2 L65.1 120.1 L65.7 119.9 L66.2 119.6 L66.5 119.8 L66.7 120.1 L66.8 120.8 L66.5 122.4 L65.8 123.7 L64.4 125.6 L64.0 126.4 L63.9 126.9 L63.7 127.4 Z M86.3 125.9 L86.6 124.5 L87.3 122.6 L88.2 120.9 L89.1 120.2 L90.5 119.6 L92.5 117.5 L93.7 117.7 L93.8 119.1 L94.4 120.0 L95.2 120.1 L95.5 118.9 L96.6 120.0 L96.4 122.4 L97.4 123.2 L96.3 125.0 L96.0 127.2 L96.4 129.4 L97.4 131.2 L95.6 131.8 L93.3 133.1 L91.3 133.6 L90.6 131.7 L90.0 131.7 L89.8 132.1 L89.6 132.6 L89.4 133.0 L89.1 132.7 L88.5 132.1 L88.2 131.7 L87.7 132.7 L86.9 133.4 L86.0 133.9 L85.1 134.2 L84.3 133.0 L81.2 130.9 L80.8 129.9 L83.9 128.1 L85.9 125.9 L86.3 125.9 Z M135.2 115.3 L135.1 116.5 L134.1 117.5 L133.9 118.6 L134.4 119.6 L135.2 120.5 L135.3 121.1 L133.6 121.4 L132.5 121.2 L131.7 120.7 L130.9 120.8 L130.8 121.0 L129.0 122.6 L128.6 122.7 L126.6 122.6 L126.6 123.2 L128.5 123.9 L128.1 125.3 L126.9 126.1 L126.0 125.0 L125.0 125.3 L123.8 125.2 L122.8 124.9 L122.4 124.7 L122.0 125.0 L121.2 124.4 L121.0 123.6 L122.1 123.2 L123.2 122.6 L124.1 121.2 L125.2 120.1 L127.3 120.2 L127.4 118.8 L128.3 117.8 L129.4 117.0 L130.2 115.9 L131.7 116.3 L133.1 115.9 L134.2 115.4 L135.2 115.3 Z M73.5 94.0 L75.1 93.4 L76.8 93.5 L80.0 94.0 L81.2 93.8 L82.5 93.3 L85.1 92.0 L84.8 91.7 L84.8 91.6 L85.0 91.5 L86.3 91.4 L87.4 91.4 L88.7 91.5 L89.4 92.3 L89.6 92.5 L89.2 94.8 L88.5 95.9 L87.7 96.9 L87.0 98.2 L86.2 101.6 L85.7 103.1 L84.6 104.3 L83.7 103.7 L82.6 103.8 L81.6 104.2 L80.8 104.3 L79.7 103.6 L77.5 100.3 L76.4 99.8 L75.4 99.8 L74.5 99.6 L74.1 98.5 L74.1 96.0 L73.9 94.9 L73.5 94.0 Z" fill="#172033" fill-rule="evenodd"/></svg>
