<svg xmlns="http://www.w3.org/2000/svg" viewBox="0 0 320 200" role="img"><path d="M22.1 112.9 L22.0 111.5 L22.1 110.8 L22.4 110.2 L22.8 109.9 L23.8 109.7 L24.2 109.3 L24.6 108.5 L25.2 107.9 L26.6 106.7 L27.0 106.3 L27.2 105.9 L27.6 105.7 L28.3 105.6 L28.9 105.7 L30.0 106.1 L30.5 106.0 L31.0 105.5 L31.2 104.8 L31.2 104.0 L31.0 101.8 L31.2 101.5 L31.7 101.0 L31.8 100.7 L31.7 99.9 L31.6 99.8 L31.4 99.5 L31.0 99.2 L30.6 98.6 L29.7 96.6 L29.3 95.9 L28.4 94.9 L28.0 94.3 L27.8 93.7 L27.9 92.9 L28.2 92.4 L29.3 91.4 L29.7 90.8 L30.1 90.4 L30.6 89.1 L30.6 88.0 L29.8 87.2 L30.5 85.1 L31.0 84.3 L31.6 83.8 L31.9 83.6 L33.2 82.9 L37.7 81.5 L39.3 80.8 L44.9 76.6 L48.7 73.7 L52.5 70.8 L56.4 67.9 L60.2 65.0 L61.7 63.9 L64.7 61.6 L66.8 59.7 L68.1 57.5 L68.4 57.1 L69.3 57.1 L70.0 56.9 L70.7 56.5 L71.4 56.2 L71.7 56.5 L72.0 55.9 L71.9 55.5 L72.1 55.1 L72.6 54.9 L72.9 55.0 L74.9 56.4 L76.0 56.7 L77.1 56.2 L79.7 53.5 L80.8 52.9 L80.5 52.2 L81.0 52.0 L82.7 52.3 L85.3 50.7 L85.6 50.1 L85.7 49.7 L85.5 49.5 L85.0 49.4 L84.6 49.1 L84.4 48.7 L84.6 48.6 L86.4 48.6 L87.2 48.3 L87.9 47.8 L89.2 47.4 L93.0 47.2 L93.8 46.9 L94.1 46.3 L94.4 46.2 L94.7 46.1 L95.5 46.2 L96.2 46.5 L98.2 47.6 L98.9 47.7 L98.9 47.4 L98.5 47.0 L98.9 46.5 L100.5 45.6 L99.6 46.7 L99.3 47.4 L99.7 47.7 L100.0 48.0 L104.1 51.6 L105.4 52.2 L106.9 51.9 L107.1 51.7 L107.6 51.0 L107.8 50.7 L108.2 50.7 L109.3 50.8 L109.6 50.6 L109.8 49.8 L110.5 49.4 L111.4 49.3 L116.0 50.4 L119.9 51.7 L124.1 52.1 L128.8 53.2 L130.3 53.3 L132.0 53.2 L134.8 52.4 L135.5 52.3 L135.7 52.1 L136.4 51.6 L136.6 51.5 L136.8 51.3 L137.4 51.5 L137.9 51.8 L138.1 51.9 L140.0 52.1 L148.6 51.4 L150.1 51.4 L151.5 51.9 L151.6 52.0 L152.6 52.6 L153.3 52.8 L154.3 52.9 L155.2 52.7 L156.0 52.4 L160.2 49.9 L161.3 48.7 L161.8 48.3 L163.3 47.7 L164.8 47.3 L171.2 47.1 L171.7 47.0 L172.2 46.7 L173.9 45.5 L174.8 44.5 L175.2 43.5 L174.5 42.6 L171.7 42.2 L170.4 41.8 L170.6 41.3 L171.7 41.3 L175.2 41.9 L177.5 42.3 L179.2 42.5 L181.3 43.1 L183.4 43.6 L184.1 43.8 L184.6 44.0 L184.7 44.5 L184.7 45.1 L184.8 45.6 L185.1 45.6 L185.1 45.3 L185.2 45.1 L185.3 45.1 L185.4 45.0 L186.2 45.0 L186.6 45.6 L187.3 46.2 L188.3 46.8 L190.2 47.6 L193.6 48.5 L195.9 48.3 L199.2 48.0 L204.0 47.9 L206.5 46.8 L209.7 44.6 L211.9 43.3 L215.2 43.3 L217.4 44.0 L221.7 45.8 L227.0 47.4 L229.5 48.2 L230.2 48.7 L229.9 49.2 L229.4 50.0 L229.3 50.7 L229.3 51.8 L230.3 52.7 L231.1 52.8 L232.2 52.5 L232.4 51.6 L232.5 51.2 L232.9 51.2 L233.2 51.8 L234.0 52.3 L235.1 52.1 L236.2 52.2 L238.4 52.5 L238.8 52.1 L239.4 51.8 L238.5 51.4 L237.4 51.1 L233.9 50.6 L232.6 50.0 L231.5 49.5 L231.1 48.8 L232.9 49.1 L238.9 50.3 L242.9 50.7 L245.5 50.8 L246.5 51.1 L248.9 53.0 L252.1 55.6 L256.9 59.5 L261.6 63.4 L264.2 65.5 L267.6 67.5 L268.4 68.0 L269.2 68.3 L270.8 68.6 L271.2 68.8 L271.5 69.2 L271.5 69.6 L271.2 69.8 L270.5 69.9 L269.8 69.6 L268.1 68.3 L266.8 67.9 L266.0 67.3 L265.6 67.1 L264.2 67.1 L263.6 67.0 L263.1 66.5 L263.3 66.4 L263.5 66.3 L263.7 66.2 L263.3 65.7 L261.9 64.1 L261.6 64.1 L261.1 64.3 L260.5 64.0 L259.9 63.5 L259.3 63.2 L258.4 63.3 L258.0 63.6 L257.7 64.0 L257.1 64.4 L256.8 64.2 L255.5 63.8 L256.1 63.3 L256.3 63.0 L256.4 62.7 L256.2 62.6 L255.8 62.5 L255.2 62.5 L254.9 62.6 L254.8 63.1 L255.1 63.8 L255.6 64.6 L256.1 65.3 L256.0 65.4 L256.0 65.4 L255.9 65.5 L255.8 65.6 L255.5 65.6 L254.2 63.1 L253.7 62.6 L253.2 62.5 L252.6 62.6 L251.9 62.9 L251.4 62.8 L250.6 62.7 L250.1 62.6 L250.4 63.6 L250.7 63.9 L251.5 64.2 L251.5 64.6 L251.4 65.1 L251.3 65.6 L251.6 65.6 L251.7 64.9 L252.6 64.5 L253.0 63.3 L253.4 63.2 L253.8 63.4 L254.4 64.9 L255.2 66.0 L255.4 67.0 L254.5 67.5 L254.0 67.9 L254.3 69.1 L255.1 70.3 L255.8 71.1 L257.0 71.6 L257.9 71.9 L258.4 71.4 L257.9 70.1 L258.5 70.6 L259.1 71.2 L259.3 71.9 L258.9 72.6 L259.5 73.3 L260.4 73.5 L262.5 73.2 L262.5 73.5 L262.1 73.5 L261.8 73.6 L261.3 73.8 L261.3 74.1 L261.7 74.8 L262.2 75.5 L263.0 76.0 L263.9 76.2 L264.7 76.1 L265.7 75.9 L266.7 75.5 L267.4 75.0 L266.8 74.5 L264.9 73.5 L264.6 73.2 L264.5 72.9 L264.3 72.7 L263.9 72.6 L263.4 72.6 L260.0 71.4 L259.5 71.1 L258.4 69.6 L257.9 69.2 L258.3 68.9 L258.8 68.7 L259.7 68.3 L263.7 70.0 L264.3 70.9 L264.6 71.4 L265.2 71.8 L265.9 72.1 L267.2 72.4 L267.7 72.8 L268.2 73.2 L268.6 73.8 L268.3 74.0 L267.9 74.3 L267.7 74.4 L267.7 74.7 L268.4 74.8 L269.0 74.4 L269.5 74.3 L269.8 75.6 L269.7 77.3 L269.8 77.7 L270.1 78.0 L270.5 78.0 L270.7 77.7 L270.7 77.1 L271.0 77.1 L271.4 78.0 L271.8 77.8 L272.5 76.5 L273.2 76.1 L274.1 75.8 L275.7 75.6 L275.9 75.4 L275.8 74.4 L275.9 74.1 L276.2 73.9 L276.5 73.9 L276.8 74.0 L279.7 74.6 L280.4 74.4 L280.4 74.7 L280.1 74.9 L280.2 75.1 L280.3 75.3 L280.4 75.6 L280.4 77.0 L280.2 77.6 L279.7 77.9 L279.2 77.7 L278.9 77.0 L278.8 76.8 L278.4 76.6 L277.9 76.5 L277.5 76.5 L277.3 76.7 L277.0 77.1 L276.8 77.7 L276.6 78.0 L276.4 78.1 L276.2 78.3 L276.2 78.8 L276.3 79.2 L276.5 79.3 L276.8 79.1 L277.1 78.9 L276.8 78.6 L276.8 78.3 L276.9 78.0 L277.1 77.7 L277.4 77.7 L277.5 78.8 L277.8 79.6 L278.3 79.9 L279.2 79.5 L279.4 79.3 L279.8 78.6 L280.1 78.4 L280.5 78.1 L282.4 77.5 L282.4 77.3 L282.2 76.8 L282.0 76.6 L281.8 76.4 L281.5 76.1 L281.3 75.6 L281.2 75.0 L280.9 74.2 L280.3 73.7 L279.5 74.1 L278.2 73.3 L277.5 73.2 L276.8 73.5 L276.5 73.2 L276.6 73.0 L276.8 72.6 L276.0 72.5 L274.1 71.8 L273.7 71.5 L273.3 71.0 L272.3 70.7 L271.7 70.4 L271.9 69.5 L272.6 69.2 L273.3 69.6 L274.0 70.1 L274.5 70.4 L275.0 70.6 L279.8 73.0 L285.7 75.2 L288.0 76.8 L288.5 77.7 L289.2 80.5 L290.0 82.3 L291.2 84.0 L292.5 85.0 L298.0 87.1 L297.4 87.2 L295.9 87.1 L295.3 87.3 L294.1 87.8 L292.2 87.7 L292.0 87.8 L291.5 87.6 L291.1 87.3 L291.2 87.1 L291.7 86.9 L289.7 86.7 L289.0 86.7 L288.3 87.1 L288.1 86.6 L287.6 86.3 L287.0 86.1 L286.5 85.6 L286.1 86.4 L285.4 87.1 L284.5 87.7 L283.4 87.8 L283.0 87.6 L282.5 86.8 L282.3 86.5 L281.7 86.4 L281.2 86.5 L281.1 86.7 L281.4 87.1 L281.1 87.4 L281.1 87.7 L281.1 88.4 L280.6 88.0 L280.4 88.2 L280.3 88.7 L280.4 89.3 L280.2 89.2 L279.5 89.0 L279.6 89.1 L279.8 89.4 L279.8 89.6 L279.2 89.8 L278.1 90.6 L277.0 91.0 L276.8 91.5 L276.7 92.1 L276.5 92.6 L276.2 92.6 L275.8 92.2 L275.0 91.9 L274.0 91.9 L273.1 92.0 L272.3 92.4 L272.1 92.9 L272.6 94.1 L272.2 94.1 L272.1 93.8 L271.7 93.6 L271.3 93.5 L270.7 93.5 L270.8 94.2 L269.9 94.6 L267.4 94.7 L267.7 95.2 L268.0 95.5 L268.3 95.7 L267.5 95.7 L266.6 96.0 L265.8 96.4 L265.3 96.9 L265.0 96.5 L264.9 96.4 L264.7 96.4 L264.4 96.3 L264.6 96.7 L264.6 96.9 L264.1 96.7 L263.4 96.0 L262.8 95.7 L262.6 96.7 L262.6 97.1 L262.8 97.5 L258.5 97.7 L257.7 97.6 L257.6 97.3 L257.4 97.1 L256.6 97.2 L256.2 97.1 L256.0 97.0 L255.9 96.7 L254.9 96.1 L254.5 96.1 L254.1 96.5 L254.6 97.6 L254.9 98.0 L255.3 98.4 L255.3 98.7 L255.0 98.9 L254.8 98.8 L254.6 98.7 L254.2 98.7 L253.8 98.8 L253.6 99.0 L253.4 99.2 L253.1 99.3 L252.1 99.6 L251.4 99.7 L250.9 99.5 L249.8 98.4 L249.5 98.1 L249.1 97.9 L248.5 97.7 L247.9 97.7 L247.7 98.2 L247.9 100.3 L247.7 101.3 L246.8 101.7 L246.3 101.7 L245.2 101.5 L244.5 101.4 L244.2 101.2 L243.9 100.0 L243.4 99.6 L242.8 100.4 L242.2 101.5 L241.4 102.5 L239.8 103.1 L238.6 103.7 L238.1 103.8 L237.4 103.6 L237.0 103.3 L236.5 103.0 L235.8 103.2 L236.0 102.3 L236.1 102.0 L232.9 101.9 L231.9 101.7 L230.2 101.0 L229.4 100.9 L228.5 101.4 L227.9 99.9 L227.4 99.1 L226.5 98.5 L226.5 98.0 L226.4 97.4 L225.5 97.3 L225.6 97.2 L225.9 96.8 L226.0 96.7 L225.4 95.6 L224.4 94.9 L223.3 94.6 L222.1 94.6 L219.5 95.1 L218.7 95.5 L216.7 97.4 L215.9 98.0 L215.2 98.4 L215.1 98.5 L214.5 99.0 L214.1 99.7 L213.9 101.4 L213.8 101.6 L213.5 101.7 L212.8 101.9 L213.1 102.3 L214.3 103.2 L213.4 104.1 L213.1 104.5 L214.2 104.5 L214.2 104.6 L213.9 105.2 L212.3 106.7 L211.4 107.2 L210.6 106.6 L209.9 105.9 L209.1 105.7 L208.8 106.3 L208.6 107.5 L208.5 109.8 L208.3 110.0 L207.3 111.1 L207.3 111.4 L207.4 112.1 L207.3 112.3 L206.1 113.2 L206.8 113.7 L207.6 114.4 L208.2 115.3 L208.2 116.3 L207.7 117.0 L206.8 117.6 L205.7 117.9 L204.6 118.1 L202.9 118.1 L202.5 118.2 L201.4 118.7 L201.0 118.8 L200.7 119.1 L200.6 119.4 L200.3 119.7 L200.1 120.1 L200.0 120.2 L199.8 120.2 L199.3 120.2 L199.2 120.2 L198.7 120.6 L198.2 121.2 L197.8 121.9 L197.5 123.1 L197.1 123.9 L196.6 124.8 L196.1 125.4 L195.0 126.3 L194.2 126.7 L192.6 127.1 L192.4 127.7 L192.3 128.4 L191.8 129.0 L191.0 129.3 L190.3 129.4 L189.9 129.5 L188.9 129.8 L188.5 130.4 L188.1 130.8 L186.5 131.3 L186.7 131.8 L186.5 131.8 L186.4 131.8 L186.4 131.9 L186.4 132.1 L186.1 132.1 L185.7 132.0 L184.8 132.7 L184.3 133.0 L183.5 132.9 L183.0 132.8 L182.8 133.1 L182.7 134.0 L182.3 135.4 L182.1 136.2 L182.3 136.6 L183.0 136.8 L183.2 137.3 L183.1 138.0 L182.7 138.7 L182.4 139.0 L182.3 139.1 L182.3 139.1 L182.2 139.0 L181.6 138.4 L180.7 138.3 L179.7 138.4 L178.7 138.0 L178.0 137.2 L177.6 136.3 L177.1 135.5 L176.1 135.1 L175.5 135.1 L175.1 135.3 L174.7 135.4 L174.1 135.2 L173.8 134.9 L172.8 133.7 L169.7 131.4 L169.6 130.3 L170.0 129.3 L170.0 128.8 L166.7 129.3 L166.1 129.6 L165.6 130.1 L165.3 130.5 L165.1 130.9 L164.8 131.4 L164.3 132.0 L163.8 132.2 L163.3 132.4 L162.8 132.7 L161.3 135.1 L158.4 138.1 L157.7 139.2 L157.3 140.5 L157.1 141.2 L156.5 141.7 L155.9 142.1 L155.1 142.2 L152.8 142.4 L152.5 142.3 L152.1 142.2 L151.8 142.0 L151.1 141.3 L150.4 141.4 L149.9 141.7 L149.2 141.9 L148.4 141.7 L147.0 140.9 L145.2 141.0 L141.6 141.7 L139.7 141.5 L138.7 141.5 L137.7 142.0 L137.2 142.4 L137.0 142.6 L136.9 142.8 L136.8 143.4 L136.8 144.2 L136.7 146.6 L136.8 147.0 L136.9 147.2 L137.1 147.3 L137.5 147.6 L137.7 147.9 L137.7 148.6 L137.4 150.0 L137.4 150.8 L138.9 156.1 L138.8 156.8 L138.2 158.0 L138.2 158.6 L138.3 159.1 L138.6 159.2 L138.9 159.3 L139.2 159.5 L139.5 160.1 L139.6 160.4 L139.9 161.6 L139.8 162.3 L139.4 162.9 L138.8 163.5 L138.5 163.7 L138.2 163.9 L137.8 164.0 L137.4 163.9 L134.8 162.6 L134.0 162.6 L133.3 162.8 L132.7 163.2 L130.6 164.9 L130.3 165.4 L129.9 166.0 L129.6 167.2 L129.5 167.3 L129.6 167.6 L130.0 168.3 L130.0 168.4 L129.7 170.7 L129.8 171.0 L130.0 171.1 L130.2 171.3 L130.1 171.7 L129.9 172.0 L129.2 172.3 L128.9 172.5 L127.9 174.1 L127.4 174.6 L126.3 175.3 L125.4 175.7 L125.1 176.4 L124.6 176.4 L123.6 175.8 L122.9 175.7 L112.8 176.4 L112.8 176.4 L113.2 176.1 L113.3 175.5 L113.7 175.1 L114.1 174.7 L114.7 174.5 L114.7 174.2 L113.5 174.2 L112.6 174.0 L112.0 173.7 L111.4 173.0 L111.1 172.6 L111.0 172.3 L111.1 171.6 L111.4 171.5 L112.8 171.3 L113.2 171.2 L110.6 170.5 L109.2 170.4 L108.4 170.6 L108.1 170.6 L108.0 168.9 L107.4 167.2 L106.5 165.6 L105.6 164.5 L105.4 163.8 L105.3 163.8 L105.2 163.6 L105.0 163.6 L104.7 163.7 L104.4 163.6 L104.1 163.2 L104.0 162.9 L104.1 162.5 L104.4 162.1 L104.8 161.8 L105.6 161.5 L106.0 161.2 L106.8 159.9 L107.2 159.7 L107.8 159.8 L108.5 159.6 L109.9 159.1 L109.8 158.7 L109.8 158.4 L109.9 158.1 L109.2 157.6 L108.9 157.3 L108.5 157.3 L107.6 157.4 L107.3 157.4 L106.9 156.9 L106.1 157.5 L105.9 157.7 L105.6 158.1 L105.6 158.7 L105.7 159.1 L105.8 159.3 L105.3 159.7 L105.0 159.7 L103.5 159.7 L102.8 159.8 L102.4 159.8 L102.0 159.7 L102.0 159.4 L102.6 159.4 L102.6 159.1 L101.8 158.9 L100.9 158.6 L100.1 158.5 L99.6 159.1 L99.3 159.1 L99.4 158.6 L99.9 157.5 L99.2 157.3 L99.1 156.8 L99.3 155.6 L99.0 154.9 L98.5 155.0 L97.9 155.5 L97.4 156.0 L97.8 157.3 L97.2 158.5 L96.0 159.3 L94.7 159.7 L93.9 159.5 L92.9 158.9 L92.1 158.6 L92.0 158.3 L92.0 158.0 L91.8 157.9 L91.4 157.8 L91.1 157.8 L90.5 157.6 L94.0 156.0 L94.7 155.1 L94.8 154.6 L94.8 154.0 L94.5 153.5 L94.2 153.1 L93.5 152.8 L92.6 153.1 L92.2 153.0 L91.7 152.0 L91.9 150.7 L93.0 148.2 L93.1 147.4 L93.1 145.8 L93.2 145.0 L93.6 144.5 L94.1 144.1 L94.3 143.6 L94.0 142.8 L94.2 142.1 L95.1 140.1 L95.5 139.5 L94.7 139.2 L93.5 138.1 L92.8 137.5 L92.5 137.4 L91.9 137.1 L91.7 137.0 L91.3 136.5 L90.9 135.3 L90.4 135.0 L89.8 135.0 L89.3 135.4 L89.0 135.8 L88.5 136.1 L88.1 136.2 L87.3 136.0 L86.8 136.0 L86.5 136.1 L85.9 136.5 L85.7 136.6 L85.4 136.5 L84.7 136.1 L84.5 136.1 L84.4 136.0 L83.7 136.2 L81.7 137.2 L81.3 136.1 L80.6 135.3 L79.8 134.5 L79.2 133.8 L78.5 132.1 L78.0 131.7 L76.8 131.7 L74.5 131.9 L73.8 131.9 L72.7 131.7 L72.6 131.7 L72.0 131.6 L71.5 131.8 L71.5 131.9 L71.6 132.8 L71.7 132.9 L72.1 133.3 L72.1 133.4 L71.9 134.0 L71.6 134.1 L71.2 134.0 L70.7 134.2 L70.4 134.6 L70.2 134.9 L70.1 135.1 L69.7 135.4 L69.3 135.6 L68.7 135.6 L68.2 135.8 L67.9 136.4 L67.7 136.2 L67.3 136.1 L67.0 136.1 L66.7 136.1 L66.5 136.3 L66.5 136.5 L66.5 136.8 L66.4 136.9 L66.1 136.9 L65.4 136.6 L65.0 136.6 L63.2 137.0 L62.4 137.3 L61.6 137.8 L60.4 137.9 L60.8 137.2 L60.7 136.5 L60.3 135.4 L60.1 134.9 L60.2 134.3 L60.4 133.8 L60.4 133.2 L60.2 132.8 L60.1 132.7 L60.3 132.7 L60.3 132.7 L60.4 132.6 L60.4 132.6 L60.4 132.5 L60.4 132.4 L60.1 132.0 L59.6 131.8 L57.7 131.7 L54.3 130.6 L53.2 130.6 L52.1 130.7 L51.8 130.8 L51.8 130.8 L51.8 130.5 L51.7 130.2 L51.5 129.9 L51.2 129.6 L51.0 129.5 L50.0 129.4 L49.3 129.0 L49.4 128.3 L49.6 127.6 L49.7 126.9 L49.3 126.3 L49.0 126.4 L48.5 126.7 L48.0 126.9 L46.0 126.7 L45.2 126.8 L45.0 125.6 L44.3 124.3 L43.4 123.1 L42.3 122.4 L41.6 122.4 L41.0 122.7 L40.4 123.0 L40.0 123.1 L39.6 122.8 L39.5 122.3 L39.4 122.0 L39.4 121.8 L39.2 121.2 L38.8 120.6 L38.4 120.1 L37.3 119.2 L37.1 118.8 L36.9 117.5 L36.6 116.9 L35.9 116.6 L34.4 116.4 L33.9 116.0 L34.1 115.6 L34.1 115.1 L34.0 114.7 L33.8 114.3 L33.6 113.9 L33.3 113.7 L33.1 113.7 L32.7 113.8 L32.3 114.2 L31.7 115.3 L31.3 115.7 L29.2 115.1 L28.1 114.4 L25.9 113.9 L24.5 113.3 L22.8 113.0 L22.1 112.9 Z M144.1 30.1 L144.4 29.0 L145.7 28.0 L147.4 26.9 L148.8 26.4 L151.4 25.2 L154.3 24.2 L156.2 23.7 L157.6 23.6 L159.3 23.7 L160.7 23.7 L162.9 23.8 L162.0 24.0 L161.0 24.5 L160.2 24.2 L158.8 24.5 L157.9 24.3 L157.1 24.5 L156.8 24.6 L156.2 25.0 L155.9 25.1 L155.5 25.1 L154.9 25.3 L154.1 25.8 L152.5 26.6 L150.9 27.2 L149.2 28.3 L147.7 28.8 L146.7 28.9 L146.0 29.5 L145.2 30.2 L144.4 30.8 L144.1 30.1 Z" fill="#172033" fill-rule="evenodd"/></svg>
