<svg xmlns="http://www.w3.org/2000/svg" viewBox="0 0 320 200" role="img"><path d="M298.0 67.8 L297.3 68.3 L296.3 69.6 L295.6 70.0 L294.0 70.4 L293.4 70.7 L292.9 71.3 L292.9 71.6 L293.1 71.9 L293.2 72.2 L292.9 72.6 L292.6 72.8 L291.8 72.8 L290.9 73.1 L290.4 73.3 L289.4 74.2 L288.2 74.9 L286.8 75.4 L285.2 75.5 L283.8 75.4 L280.8 74.3 L279.5 74.5 L278.9 76.1 L278.4 76.4 L277.9 76.5 L277.3 76.6 L275.4 76.4 L274.9 76.4 L274.2 76.6 L273.4 76.9 L272.9 77.2 L272.1 78.1 L271.7 78.3 L271.0 78.7 L270.8 78.9 L270.6 79.2 L270.5 80.0 L270.3 80.3 L269.3 81.3 L269.2 81.5 L269.2 81.8 L269.1 82.1 L269.1 82.2 L268.9 82.5 L268.6 82.6 L268.3 82.7 L266.3 83.1 L263.8 84.4 L262.6 85.3 L261.8 86.3 L261.9 87.5 L262.3 88.9 L262.4 90.3 L261.5 91.4 L259.7 91.8 L259.0 92.1 L258.3 92.7 L256.7 94.2 L256.4 94.7 L256.0 96.1 L255.8 96.5 L255.3 97.1 L255.1 97.6 L255.1 98.0 L255.2 98.4 L255.2 98.8 L255.0 99.3 L254.6 99.6 L253.7 100.2 L253.3 100.6 L253.2 101.0 L253.0 101.7 L252.7 102.0 L251.9 102.6 L249.9 103.5 L248.9 104.1 L247.4 105.4 L247.4 105.5 L247.5 105.7 L247.9 105.9 L248.2 105.9 L248.5 106.1 L248.9 106.5 L248.9 106.6 L248.8 106.6 L248.0 108.6 L247.6 108.9 L245.8 110.0 L245.6 110.0 L245.6 110.1 L245.5 110.6 L245.5 111.1 L245.7 111.5 L245.7 112.0 L245.3 112.5 L244.9 112.8 L243.4 113.0 L242.6 113.6 L242.1 114.2 L241.2 115.9 L241.0 116.1 L240.9 116.3 L240.8 116.5 L240.7 116.8 L240.8 116.9 L240.9 117.0 L241.1 117.1 L242.2 117.6 L242.0 118.4 L241.3 119.1 L240.5 119.5 L239.4 119.6 L238.9 120.1 L238.8 120.2 L238.6 120.8 L237.7 121.5 L236.8 121.8 L235.3 121.8 L234.5 121.9 L233.9 122.4 L233.6 123.2 L233.5 124.8 L233.0 125.5 L232.3 126.1 L231.7 126.8 L231.6 127.6 L232.8 129.2 L233.0 130.1 L232.1 130.6 L230.4 130.6 L229.6 130.8 L228.9 131.4 L228.5 132.2 L228.3 134.1 L228.0 134.8 L227.5 135.5 L227.1 135.7 L225.9 135.7 L225.6 135.8 L223.7 137.4 L223.0 137.6 L222.2 137.1 L221.9 136.9 L221.6 136.8 L221.2 136.8 L220.9 136.9 L220.1 136.9 L218.5 136.4 L217.8 136.3 L217.5 136.4 L216.9 136.6 L216.5 136.7 L216.2 136.5 L215.5 136.1 L215.1 136.0 L214.3 136.0 L213.4 136.1 L213.0 136.3 L212.6 136.4 L211.0 137.3 L210.8 137.6 L210.8 138.0 L211.2 138.9 L211.2 139.2 L210.9 139.4 L210.5 139.4 L210.1 139.3 L209.8 139.4 L209.6 139.7 L209.6 140.1 L209.6 140.2 L209.4 140.6 L208.7 141.1 L207.9 141.4 L205.6 141.7 L205.3 141.7 L204.8 141.6 L204.4 141.4 L203.3 140.7 L201.6 140.2 L200.0 139.9 L199.0 141.0 L192.4 141.2 L190.8 142.6 L188.6 141.3 L187.9 141.1 L186.8 141.4 L186.5 141.5 L186.2 141.3 L185.8 140.9 L185.6 140.8 L184.9 140.7 L184.5 140.7 L183.5 141.1 L182.3 141.2 L180.6 140.5 L178.0 140.4 L176.4 140.6 L175.8 140.8 L172.4 141.8 L171.7 141.7 L169.2 140.5 L168.3 140.2 L167.5 140.0 L166.6 139.9 L164.2 140.3 L163.4 140.2 L162.6 140.3 L161.6 140.6 L160.7 141.1 L160.1 141.5 L160.1 141.9 L160.4 142.2 L160.5 142.6 L159.5 143.0 L159.2 143.3 L159.0 143.6 L158.7 143.8 L158.0 144.2 L157.7 144.3 L157.2 144.4 L156.7 144.6 L156.4 144.9 L156.1 145.3 L155.6 145.6 L155.0 145.8 L153.5 145.8 L152.7 145.9 L152.4 146.1 L151.9 146.3 L151.6 146.8 L151.4 147.3 L151.0 147.8 L149.8 147.9 L146.3 147.7 L145.4 147.3 L145.4 147.3 L144.8 146.5 L143.8 146.2 L142.9 146.5 L142.3 147.3 L142.2 148.5 L141.5 148.6 L140.5 148.5 L139.5 149.0 L139.4 149.2 L139.3 149.3 L139.4 149.5 L139.7 149.8 L139.8 150.0 L139.7 150.1 L139.5 150.2 L138.7 149.9 L136.2 149.8 L135.6 149.8 L135.2 150.2 L134.8 150.3 L133.9 150.5 L133.2 150.8 L133.0 150.8 L132.8 150.9 L132.3 150.5 L131.9 150.9 L131.7 151.3 L131.5 151.6 L131.1 151.8 L130.6 151.7 L129.0 151.1 L127.0 150.7 L126.2 150.8 L125.3 151.4 L125.2 151.6 L125.0 152.1 L124.9 152.3 L124.9 152.4 L124.3 152.8 L123.4 154.0 L122.9 154.5 L121.1 155.5 L120.1 155.8 L119.1 155.5 L118.5 155.8 L117.1 157.0 L116.3 157.5 L116.0 157.5 L115.7 157.5 L115.4 157.5 L115.2 157.5 L115.2 157.5 L114.5 156.8 L113.8 156.8 L113.2 157.1 L112.5 157.3 L111.8 157.1 L111.1 156.6 L110.1 156.6 L108.9 155.9 L108.1 155.7 L104.8 155.7 L104.4 155.8 L103.7 156.2 L103.3 156.3 L102.8 156.3 L98.5 155.5 L95.7 155.5 L95.1 155.5 L94.7 155.6 L94.5 155.9 L94.3 156.2 L93.8 156.3 L93.8 156.1 L93.0 155.2 L91.8 154.6 L86.8 153.5 L85.9 153.4 L85.6 153.3 L85.5 153.0 L85.4 152.8 L85.4 152.3 L85.2 151.7 L85.1 151.4 L84.8 151.0 L82.9 149.6 L81.4 149.1 L79.7 148.9 L76.2 148.8 L75.9 148.9 L75.8 149.1 L75.6 149.2 L75.4 149.3 L75.1 148.6 L74.7 148.5 L73.7 148.8 L72.9 148.8 L72.8 148.7 L72.8 148.3 L72.6 147.6 L72.2 148.1 L71.7 148.1 L71.3 147.8 L71.3 147.8 L70.7 147.6 L70.7 147.4 L70.9 147.3 L71.4 147.1 L71.8 147.1 L71.4 146.7 L70.7 146.7 L70.1 146.5 L69.8 145.8 L69.7 145.4 L69.2 144.1 L69.0 143.7 L67.3 142.3 L66.9 142.1 L63.6 142.0 L63.0 141.8 L61.0 140.8 L60.5 140.4 L60.3 140.0 L60.0 139.7 L57.8 138.4 L57.4 138.1 L56.4 136.8 L54.9 135.5 L54.6 135.4 L54.4 135.1 L54.0 134.3 L53.6 133.7 L53.8 133.1 L53.4 132.4 L53.1 132.2 L52.8 131.8 L52.3 131.5 L52.0 131.5 L52.0 131.7 L51.8 131.8 L51.6 131.6 L51.4 131.5 L51.2 131.3 L51.0 131.2 L50.9 131.2 L49.8 131.0 L49.5 130.9 L49.2 131.5 L48.9 131.5 L48.4 130.7 L47.2 130.2 L46.4 129.5 L45.7 128.7 L45.0 128.1 L44.1 127.7 L43.0 127.6 L42.7 127.4 L42.4 127.4 L42.1 127.5 L41.9 127.9 L41.7 127.9 L41.1 127.5 L39.4 126.7 L39.1 126.6 L38.6 124.8 L37.2 124.0 L35.7 122.4 L34.2 121.8 L33.5 121.4 L33.3 121.1 L33.2 120.8 L33.5 120.4 L34.3 120.2 L34.6 120.0 L34.9 119.8 L34.7 119.0 L34.0 118.8 L33.3 118.7 L33.1 118.7 L33.0 118.7 L32.7 118.6 L32.7 117.9 L32.1 117.9 L31.8 117.6 L31.4 117.2 L31.0 116.8 L30.4 115.6 L30.3 115.4 L30.4 115.3 L30.5 115.0 L30.8 114.6 L31.0 114.4 L31.3 113.9 L31.5 113.4 L31.6 113.1 L31.4 112.9 L30.8 112.8 L30.5 112.7 L30.3 112.5 L29.7 112.0 L29.2 111.9 L25.5 112.1 L23.7 112.2 L23.5 112.1 L22.0 111.9 L22.7 111.7 L23.2 111.3 L24.6 110.0 L25.1 109.6 L26.2 109.1 L27.0 108.9 L27.3 108.7 L27.6 108.4 L27.6 108.2 L27.5 107.9 L27.7 107.7 L28.1 107.5 L28.5 107.4 L28.8 107.2 L29.0 106.6 L29.4 106.1 L29.9 106.1 L31.4 106.3 L33.1 106.2 L34.0 106.2 L34.7 106.6 L34.9 106.7 L35.1 106.7 L35.3 106.7 L35.5 106.6 L35.5 106.6 L36.1 106.5 L37.2 106.5 L38.0 106.4 L37.8 105.9 L37.2 105.6 L36.6 105.4 L35.5 105.3 L36.0 105.0 L37.8 104.5 L38.2 104.3 L38.4 104.1 L38.3 103.9 L37.8 103.7 L37.0 103.5 L36.7 103.0 L36.9 102.4 L37.8 102.0 L38.7 101.2 L38.9 100.7 L38.4 100.2 L37.7 100.2 L36.4 100.6 L35.8 100.4 L35.8 100.2 L36.2 99.5 L36.2 99.1 L35.9 98.8 L35.5 98.8 L35.2 98.8 L35.0 98.7 L34.8 98.0 L35.5 97.1 L35.3 96.4 L35.3 96.4 L36.6 96.0 L37.2 95.6 L37.4 95.1 L37.3 94.4 L36.0 92.6 L35.9 92.5 L35.7 92.5 L35.6 92.4 L35.4 92.3 L35.5 92.0 L35.6 91.9 L35.8 91.9 L35.9 91.7 L35.8 90.2 L36.2 89.7 L36.8 89.6 L37.3 89.8 L37.8 90.4 L42.2 89.0 L43.7 88.2 L44.2 87.9 L44.1 86.3 L44.5 85.9 L45.7 85.6 L46.2 85.1 L46.2 84.4 L45.9 83.9 L45.3 83.5 L44.6 83.3 L44.9 82.5 L44.5 81.7 L43.8 81.0 L42.9 80.7 L41.6 80.9 L38.9 80.2 L37.8 80.3 L35.5 79.7 L34.8 79.4 L35.1 79.1 L35.7 78.4 L36.0 78.2 L36.3 78.4 L36.5 78.6 L36.7 78.6 L36.9 78.5 L37.4 78.2 L39.0 77.6 L39.4 77.4 L39.6 77.0 L39.5 76.5 L39.8 76.1 L41.3 75.6 L43.0 75.8 L46.2 76.6 L46.8 76.9 L47.0 77.2 L47.1 77.7 L47.4 78.1 L47.9 78.4 L48.3 78.6 L50.6 78.8 L51.0 78.8 L51.4 78.5 L52.2 77.6 L52.8 77.3 L53.4 78.4 L54.9 78.6 L58.1 78.0 L61.1 77.8 L61.9 77.5 L61.5 77.3 L61.1 77.0 L60.9 76.6 L60.8 75.2 L60.6 74.4 L60.5 73.7 L61.1 73.3 L60.9 73.0 L60.5 72.2 L60.1 72.1 L59.3 71.8 L59.0 71.6 L59.0 71.2 L59.5 71.0 L60.9 70.8 L61.6 70.4 L62.0 70.0 L62.3 69.5 L62.4 68.8 L62.3 68.7 L62.1 68.7 L61.9 68.6 L61.9 68.4 L62.0 68.3 L62.4 68.1 L62.4 68.0 L62.6 67.7 L62.8 67.4 L62.8 67.2 L62.3 66.8 L64.9 65.4 L66.4 64.8 L67.8 65.0 L69.5 65.3 L70.0 65.4 L72.6 65.7 L73.9 66.4 L78.1 70.2 L78.5 70.4 L78.9 70.5 L79.9 70.7 L80.3 70.8 L81.7 72.2 L82.2 72.6 L82.6 72.6 L83.0 72.4 L83.4 72.4 L84.1 72.6 L84.9 73.0 L85.6 73.5 L86.0 73.9 L86.4 74.2 L88.1 74.8 L89.0 75.2 L92.5 75.8 L94.8 75.7 L104.1 75.3 L109.1 75.6 L110.7 75.5 L113.7 74.7 L122.0 74.1 L123.9 74.1 L125.3 74.6 L126.6 74.7 L127.7 74.7 L128.7 74.3 L130.1 73.2 L130.8 72.9 L131.7 72.7 L132.7 72.5 L132.8 72.4 L131.2 71.7 L130.0 70.9 L129.7 70.1 L129.8 69.3 L130.3 67.6 L130.1 67.1 L129.8 67.0 L129.8 66.8 L130.3 66.4 L130.7 66.2 L131.5 66.1 L131.9 65.9 L133.0 64.4 L133.7 64.0 L137.5 63.4 L139.5 63.1 L140.1 62.9 L141.0 63.0 L141.8 63.0 L144.2 62.8 L149.3 63.2 L149.7 63.1 L152.2 62.1 L157.7 62.1 L159.8 61.1 L159.9 60.9 L159.9 60.7 L159.9 60.5 L159.8 60.2 L159.8 60.2 L159.8 60.2 L159.8 60.2 L159.8 60.1 L160.3 59.5 L160.7 57.9 L161.1 57.3 L161.8 57.1 L165.6 56.4 L166.0 56.4 L166.4 56.5 L166.9 56.7 L167.8 57.5 L168.2 57.6 L170.1 57.4 L171.0 57.5 L171.7 58.1 L171.8 58.5 L171.5 58.8 L171.4 59.2 L171.8 59.5 L172.2 59.6 L173.7 59.2 L174.7 59.4 L176.2 60.4 L177.1 60.6 L178.0 60.3 L179.9 59.2 L180.8 58.8 L182.3 58.5 L182.5 58.4 L184.1 57.8 L184.9 57.6 L185.2 57.4 L185.5 57.0 L185.7 56.3 L185.9 56.0 L186.4 55.6 L186.7 55.5 L187.2 55.7 L187.9 55.7 L188.6 55.5 L189.8 54.7 L190.2 54.6 L191.1 54.9 L191.5 55.2 L192.0 55.4 L192.9 55.0 L194.1 54.2 L195.1 53.2 L196.0 52.0 L197.6 48.8 L198.0 48.2 L198.6 47.6 L199.9 46.8 L200.0 46.7 L200.5 46.2 L200.6 46.0 L200.6 45.9 L200.6 45.7 L200.5 45.6 L200.5 44.9 L200.5 44.5 L200.5 44.2 L201.7 43.9 L204.2 43.8 L212.8 42.5 L213.5 42.5 L214.1 42.7 L215.3 43.4 L215.9 43.5 L217.2 43.6 L219.4 44.5 L220.9 44.6 L221.9 44.5 L223.1 44.7 L224.2 45.0 L225.0 45.6 L226.1 45.7 L229.2 44.7 L230.6 44.5 L231.3 44.7 L231.8 45.0 L232.3 45.2 L232.9 44.9 L233.3 44.5 L233.6 44.0 L233.9 43.7 L234.7 43.4 L235.4 43.3 L236.8 43.2 L238.9 42.8 L239.5 42.9 L240.8 43.5 L241.6 43.6 L241.9 43.9 L242.2 44.2 L242.6 45.0 L242.8 45.3 L243.5 45.5 L245.0 45.5 L245.7 45.6 L246.0 46.0 L246.6 47.7 L246.9 48.2 L249.2 50.5 L250.1 51.2 L251.2 51.8 L252.5 52.1 L253.7 52.0 L255.8 51.3 L257.6 51.1 L258.8 50.6 L259.4 50.5 L261.5 50.4 L262.3 50.2 L263.0 50.2 L265.5 50.3 L266.2 50.2 L266.9 49.8 L267.7 49.2 L268.7 49.3 L268.7 49.3 L268.8 49.3 L269.2 49.0 L270.5 48.6 L271.9 48.7 L273.4 49.2 L272.7 50.4 L272.7 51.1 L273.9 51.0 L274.1 51.1 L274.4 51.4 L274.4 51.8 L274.4 52.3 L274.4 52.9 L274.8 53.7 L276.8 55.7 L277.1 55.9 L277.4 56.0 L277.7 55.9 L278.0 55.7 L278.2 55.7 L278.3 55.7 L278.5 55.7 L279.3 55.9 L280.0 56.0 L280.6 56.0 L281.4 55.7 L281.5 55.7 L281.7 55.7 L281.9 55.8 L284.9 58.4 L285.4 59.3 L286.0 60.6 L286.7 61.5 L286.9 61.7 L287.0 61.7 L287.6 61.5 L290.5 61.5 L291.2 61.3 L291.9 61.0 L292.6 60.9 L293.3 61.2 L293.4 61.4 L294.9 61.9 L296.1 62.7 L296.6 63.1 L297.1 63.7 L297.3 64.5 L297.2 64.9 L296.9 65.3 L296.9 65.9 L296.2 66.5 L296.5 67.0 L298.0 67.8 Z" fill="#172033" fill-rule="evenodd"/></svg>
