<svg xmlns="http://www.w3.org/2000/svg" viewBox="0 0 320 200" role="img"><path d="M199.1 34.6 L198.4 34.7 L198.0 35.0 L197.7 35.2 L197.4 35.5 L194.9 35.7 L194.4 35.9 L194.0 36.2 L192.9 37.2 L193.0 37.5 L192.9 37.6 L192.7 37.6 L192.6 37.9 L192.8 38.9 L192.7 39.2 L192.5 39.5 L192.4 39.5 L191.6 39.7 L191.3 40.0 L191.2 40.5 L191.3 41.5 L191.3 41.9 L190.9 42.7 L190.3 43.4 L187.4 45.5 L187.2 46.0 L187.1 47.0 L187.2 47.3 L187.4 47.4 L187.4 47.5 L186.9 47.7 L186.5 47.6 L185.7 47.4 L184.6 47.6 L183.2 47.4 L182.5 47.6 L181.1 48.4 L179.8 48.9 L178.4 48.9 L177.1 48.5 L176.0 48.0 L175.4 47.9 L174.1 48.7 L172.1 49.3 L172.8 49.6 L173.0 49.7 L172.7 50.3 L173.0 50.7 L173.7 51.0 L174.4 51.1 L174.7 51.2 L175.1 51.7 L175.4 51.9 L175.7 51.9 L176.4 51.6 L176.7 51.6 L177.2 51.8 L178.5 52.4 L179.1 52.6 L179.8 52.4 L180.4 52.1 L180.8 52.2 L180.9 52.9 L180.9 53.0 L179.3 53.3 L175.3 55.5 L173.8 55.8 L172.2 55.8 L169.2 55.4 L168.4 55.9 L167.6 56.6 L167.1 57.2 L166.9 57.4 L166.5 57.6 L165.5 57.9 L163.4 58.3 L162.7 58.5 L162.5 58.6 L163.0 58.9 L163.1 59.2 L163.2 59.5 L163.5 59.8 L164.5 60.4 L166.2 61.8 L167.1 62.4 L168.1 62.7 L169.2 62.7 L170.1 64.0 L170.6 64.5 L171.3 65.0 L171.6 65.1 L171.9 65.1 L173.5 65.3 L174.1 65.5 L174.3 66.2 L174.5 67.9 L175.0 68.5 L175.8 68.8 L178.0 69.0 L180.3 68.9 L181.0 69.0 L183.9 70.2 L184.2 70.5 L184.2 70.8 L184.3 71.1 L184.8 71.3 L189.0 71.9 L189.9 71.8 L191.5 71.1 L192.5 71.1 L192.1 71.5 L192.2 71.5 L192.6 71.5 L192.9 71.5 L193.2 71.9 L193.3 72.1 L193.5 72.1 L194.1 72.0 L196.0 72.4 L196.4 72.4 L196.6 72.3 L195.7 71.2 L195.7 71.0 L196.0 70.8 L197.2 70.3 L197.4 70.4 L197.2 70.7 L197.2 71.1 L197.2 71.5 L197.2 71.9 L197.3 72.1 L197.8 71.9 L198.2 71.6 L198.5 71.3 L198.6 70.9 L198.4 70.5 L199.2 70.3 L199.1 70.1 L198.8 69.9 L198.6 69.7 L198.8 69.3 L199.1 69.1 L199.4 68.9 L199.8 68.7 L202.0 68.3 L202.9 68.0 L202.6 67.4 L203.1 66.9 L201.7 66.2 L202.0 65.7 L200.6 65.3 L200.6 64.8 L200.7 64.8 L201.0 64.9 L201.3 64.7 L201.3 64.7 L201.6 64.3 L201.6 64.3 L201.5 64.3 L201.3 64.1 L201.2 63.8 L201.3 63.6 L201.4 63.6 L201.6 63.5 L202.3 63.6 L202.6 63.6 L203.9 63.0 L205.8 61.3 L207.0 60.6 L208.2 60.5 L209.6 60.9 L212.0 62.1 L212.3 62.4 L212.6 63.1 L213.0 63.2 L213.4 63.2 L213.7 63.4 L214.1 64.0 L214.5 64.7 L214.6 65.3 L214.3 65.7 L213.6 65.9 L215.0 66.3 L215.3 66.6 L215.5 66.9 L215.7 67.3 L215.9 67.7 L216.5 68.3 L217.3 68.8 L218.2 69.3 L219.0 69.6 L219.5 69.6 L219.8 69.4 L220.1 69.2 L220.5 69.0 L221.0 69.0 L221.4 69.2 L222.3 69.6 L222.8 70.0 L223.2 70.2 L223.4 70.9 L223.0 71.7 L222.1 72.3 L222.5 72.8 L222.5 73.2 L221.9 74.2 L222.5 74.5 L223.5 75.2 L224.1 75.4 L224.3 75.3 L224.6 75.1 L224.7 74.9 L225.0 74.8 L225.3 74.8 L225.9 74.9 L226.2 74.9 L229.6 74.2 L230.7 74.2 L230.7 74.2 L230.8 74.4 L231.1 74.6 L231.3 74.7 L231.6 74.7 L232.6 74.5 L233.6 74.4 L233.8 74.2 L234.0 73.9 L234.0 73.6 L233.9 73.3 L233.9 73.0 L234.5 72.5 L234.8 72.5 L235.1 72.8 L235.6 73.0 L236.1 72.9 L236.7 72.8 L237.2 72.7 L237.8 73.0 L240.3 74.4 L240.9 74.6 L241.2 74.8 L241.8 75.3 L242.0 75.4 L242.9 75.5 L243.2 75.6 L243.5 75.7 L244.3 76.3 L244.1 76.8 L242.8 77.7 L242.1 77.9 L241.2 77.7 L240.2 77.3 L239.7 77.1 L239.1 77.1 L236.4 76.4 L234.3 76.2 L234.3 76.5 L234.7 76.7 L234.5 77.1 L234.0 77.6 L233.7 78.3 L233.5 79.5 L233.5 80.2 L233.7 80.9 L234.6 81.6 L236.0 82.0 L238.9 82.2 L238.9 82.5 L238.5 83.2 L238.4 83.9 L238.8 84.5 L239.7 84.9 L238.9 85.5 L238.7 86.6 L238.8 87.6 L239.0 89.3 L239.2 89.9 L239.4 90.5 L239.7 90.9 L240.1 91.1 L240.7 91.4 L241.1 91.5 L241.8 92.5 L242.9 92.9 L244.1 93.3 L244.9 93.6 L245.2 94.0 L245.5 94.5 L245.5 95.1 L245.3 95.6 L244.6 96.3 L244.4 96.6 L244.3 96.9 L244.0 97.2 L243.6 97.9 L243.2 98.2 L242.9 97.8 L242.2 97.8 L241.4 97.9 L240.8 98.2 L243.3 98.9 L243.5 99.4 L243.7 99.8 L244.0 100.1 L243.9 100.3 L243.6 100.5 L243.5 100.7 L244.1 100.9 L245.8 100.9 L246.5 101.2 L246.1 101.9 L245.6 101.9 L245.0 101.7 L244.5 101.5 L244.3 101.4 L243.8 101.0 L243.6 100.9 L243.3 101.0 L242.6 101.2 L242.3 101.2 L240.0 102.3 L239.9 102.7 L240.1 103.1 L241.1 103.6 L241.8 104.3 L242.4 104.6 L243.5 104.8 L243.9 105.0 L244.2 105.0 L244.7 105.2 L244.7 105.5 L244.5 105.8 L244.3 106.0 L244.3 106.8 L244.4 107.4 L244.6 108.0 L245.0 108.4 L245.0 108.4 L245.5 108.7 L245.7 109.2 L245.4 109.9 L246.0 110.4 L247.3 112.1 L247.2 112.2 L247.2 112.2 L247.2 112.2 L247.0 112.3 L247.2 113.0 L247.2 113.9 L247.0 114.9 L246.6 115.5 L246.5 116.1 L247.0 116.7 L248.6 117.9 L248.8 118.2 L248.3 118.3 L248.0 118.5 L247.6 119.2 L247.4 119.4 L247.0 119.7 L245.7 121.5 L246.0 121.8 L244.3 122.8 L243.8 123.2 L243.4 123.8 L242.4 125.6 L242.7 126.5 L242.5 126.7 L241.8 127.7 L240.0 129.7 L239.8 130.4 L239.8 131.0 L240.2 132.2 L240.3 132.8 L240.2 134.4 L239.7 135.1 L237.3 137.6 L236.6 138.1 L235.9 138.3 L235.3 138.9 L234.4 139.9 L234.0 140.5 L234.0 141.2 L234.1 141.9 L234.0 142.4 L233.7 142.1 L233.4 141.9 L233.1 141.9 L230.8 142.0 L230.0 141.8 L230.2 141.1 L229.8 141.2 L229.5 141.3 L229.2 141.4 L228.9 141.6 L228.9 141.9 L229.5 142.0 L230.0 142.3 L230.5 142.8 L230.8 143.3 L230.5 143.7 L231.7 143.9 L232.1 144.2 L232.3 144.6 L232.8 144.3 L233.7 143.3 L233.7 143.5 L233.1 144.4 L233.9 145.3 L235.9 146.5 L234.8 148.2 L234.3 148.7 L233.9 148.9 L233.6 149.0 L233.2 149.0 L232.7 148.7 L232.8 148.5 L233.1 148.3 L233.4 147.8 L233.4 147.7 L232.9 147.6 L232.7 147.7 L232.3 148.0 L231.8 148.3 L231.8 148.3 L231.7 148.4 L229.9 148.4 L229.9 148.1 L230.8 148.1 L230.2 147.9 L229.8 147.9 L229.1 148.1 L227.2 148.4 L225.6 149.0 L224.9 148.9 L223.8 148.3 L223.1 148.0 L220.2 147.5 L217.4 147.7 L216.6 147.6 L216.6 147.3 L217.2 147.2 L217.8 146.8 L218.2 146.3 L218.3 145.7 L217.8 146.1 L217.1 146.5 L216.3 146.7 L215.6 146.5 L215.3 146.8 L215.3 147.1 L215.4 147.2 L215.4 147.3 L215.3 147.6 L215.7 147.4 L215.9 147.3 L216.1 147.3 L216.0 147.9 L215.9 148.1 L215.6 148.4 L215.8 148.4 L216.1 148.4 L216.1 148.7 L216.0 148.7 L215.7 148.7 L215.6 148.7 L215.9 149.0 L213.0 150.0 L212.6 150.3 L212.1 150.8 L211.6 151.1 L210.9 150.9 L211.3 150.4 L211.8 150.1 L212.3 149.9 L212.7 149.6 L212.7 149.2 L212.1 147.6 L211.8 147.4 L211.4 147.0 L211.0 146.7 L210.6 146.5 L210.1 146.3 L209.5 145.0 L209.0 144.6 L209.1 145.1 L209.2 145.5 L209.3 145.7 L209.3 146.1 L209.4 146.3 L210.0 146.9 L210.1 147.3 L209.6 148.3 L209.7 148.7 L210.7 148.7 L210.7 149.0 L210.1 149.3 L208.9 150.2 L208.2 150.6 L207.4 150.7 L205.6 150.7 L204.7 150.9 L205.0 150.4 L206.1 149.5 L205.2 149.3 L204.7 149.2 L204.2 149.3 L204.2 149.5 L204.4 149.6 L204.5 149.7 L204.6 149.9 L204.7 150.0 L204.3 150.0 L203.8 149.8 L203.5 149.8 L203.0 149.9 L202.7 150.1 L202.6 150.4 L202.3 150.6 L201.5 150.8 L200.8 150.8 L199.3 150.6 L191.7 151.1 L189.0 152.0 L187.5 152.2 L187.3 152.3 L187.2 152.5 L186.9 152.7 L186.5 152.7 L186.3 152.6 L186.1 152.3 L186.0 152.0 L185.9 151.9 L185.2 152.1 L184.4 152.4 L183.9 152.9 L184.1 153.6 L184.5 153.3 L185.1 153.2 L185.8 153.3 L187.0 153.7 L187.3 153.7 L187.3 153.9 L187.1 154.4 L185.9 154.9 L185.7 156.1 L185.6 156.4 L185.2 156.5 L184.8 156.5 L184.5 156.7 L183.8 157.0 L181.7 156.8 L180.8 157.1 L180.5 157.6 L180.5 158.1 L180.3 158.3 L176.1 157.9 L176.0 157.7 L175.9 157.4 L175.7 157.0 L175.3 156.8 L175.2 157.0 L175.2 157.0 L175.1 158.0 L175.0 158.3 L174.5 158.8 L173.9 159.3 L173.2 159.5 L172.4 159.5 L173.6 160.2 L174.1 160.3 L173.6 160.7 L172.7 161.0 L171.1 161.2 L169.0 161.8 L168.4 162.2 L169.2 162.8 L168.5 163.0 L165.5 163.4 L164.0 163.8 L161.5 163.9 L160.4 163.9 L160.0 163.9 L159.6 163.9 L159.4 163.7 L159.5 163.4 L159.8 163.2 L160.1 163.1 L160.5 163.0 L160.4 162.9 L160.2 162.5 L160.8 162.5 L161.4 162.3 L161.9 162.1 L162.4 161.7 L162.1 161.6 L161.9 161.5 L161.7 161.5 L161.3 161.4 L161.6 160.9 L161.8 160.8 L162.1 160.6 L161.9 160.3 L161.7 160.2 L161.4 160.3 L161.0 160.6 L160.5 160.4 L159.7 160.3 L158.1 160.3 L158.1 160.1 L157.7 159.9 L157.0 160.0 L156.3 160.2 L155.6 160.3 L154.0 160.3 L153.2 160.3 L152.3 160.6 L153.7 160.9 L155.3 161.1 L156.3 161.5 L155.6 162.8 L157.1 162.7 L157.5 162.8 L157.5 163.0 L157.3 163.0 L157.3 163.3 L157.6 163.5 L157.8 163.6 L157.2 163.7 L156.9 163.8 L156.7 163.9 L158.1 163.9 L157.4 164.5 L157.3 164.7 L157.3 164.9 L157.5 165.1 L157.6 165.3 L157.4 165.6 L156.1 166.5 L155.7 167.0 L154.6 167.3 L153.1 167.5 L152.6 167.8 L152.1 168.2 L151.8 167.8 L151.3 167.4 L150.7 167.3 L150.2 167.4 L150.8 167.7 L151.0 168.1 L150.8 168.6 L150.2 168.8 L149.9 168.0 L149.1 167.7 L147.2 167.7 L147.2 167.9 L147.6 168.1 L148.4 168.1 L148.9 168.2 L149.2 168.0 L149.5 167.9 L149.6 168.2 L149.6 168.4 L149.3 168.6 L149.0 168.7 L148.7 168.8 L148.1 169.7 L148.0 170.0 L148.0 170.4 L148.2 171.0 L148.3 171.5 L147.8 171.2 L147.2 170.4 L146.7 170.1 L146.0 170.1 L144.1 170.4 L139.3 170.1 L139.9 170.5 L140.6 170.7 L142.0 170.7 L142.0 170.9 L141.8 171.1 L141.5 171.2 L142.3 171.5 L141.9 171.7 L141.6 172.0 L141.6 172.4 L141.8 172.8 L140.3 172.7 L139.9 172.9 L139.6 172.7 L139.4 172.4 L139.0 172.3 L137.6 172.3 L137.2 172.2 L136.9 172.1 L136.6 172.1 L136.3 172.3 L135.5 172.1 L135.0 172.5 L134.6 173.2 L134.2 173.7 L132.8 173.9 L132.6 174.0 L132.4 174.5 L132.0 174.4 L131.7 174.1 L131.6 173.9 L131.3 173.8 L130.5 173.4 L130.1 173.4 L129.6 173.4 L129.0 173.6 L126.9 173.9 L126.4 173.8 L125.5 173.4 L125.0 173.4 L125.0 173.7 L125.1 173.7 L125.5 173.9 L125.2 174.3 L124.7 174.7 L124.1 174.9 L123.5 175.0 L122.4 174.8 L122.1 174.9 L122.2 175.3 L122.2 175.5 L121.7 175.5 L121.4 175.8 L121.2 176.1 L120.9 176.4 L120.5 176.4 L120.1 176.3 L119.7 176.2 L119.3 176.4 L119.2 176.1 L119.2 175.9 L119.1 175.7 L119.0 175.5 L117.9 175.9 L117.8 176.3 L117.6 176.4 L117.3 176.3 L116.9 176.5 L116.5 176.8 L115.9 176.9 L114.7 176.9 L115.1 176.7 L115.5 176.5 L115.8 176.2 L116.0 175.8 L115.5 176.1 L115.0 176.2 L114.8 176.1 L115.2 175.5 L115.6 175.2 L116.6 174.8 L117.1 174.5 L117.0 174.4 L116.9 174.3 L116.9 174.3 L116.8 174.2 L116.5 174.4 L115.2 174.9 L115.0 175.1 L114.7 175.4 L113.8 175.8 L113.4 175.4 L113.4 175.0 L113.7 174.6 L113.8 174.0 L113.6 173.8 L112.9 173.6 L112.2 173.5 L111.7 173.7 L112.0 174.1 L110.9 174.5 L108.1 174.8 L107.9 175.0 L107.9 175.4 L107.7 175.5 L107.0 175.5 L106.8 175.5 L106.0 176.0 L105.5 176.1 L104.9 176.1 L104.8 175.7 L104.3 175.2 L103.8 175.1 L103.5 175.4 L101.4 176.6 L101.6 176.8 L101.7 176.9 L101.9 176.9 L99.2 177.7 L99.3 177.3 L99.0 177.3 L97.8 178.0 L97.5 177.7 L97.3 178.0 L97.3 177.5 L97.4 177.3 L97.5 177.1 L97.5 176.9 L97.2 176.8 L97.0 176.7 L96.7 176.4 L97.6 176.2 L98.3 175.9 L99.7 175.0 L100.5 174.7 L101.8 174.4 L102.7 174.2 L103.4 173.8 L105.1 172.6 L105.9 172.2 L107.3 171.8 L108.1 171.5 L106.3 171.3 L98.7 173.8 L96.2 173.9 L97.9 173.2 L98.2 173.1 L98.6 172.9 L98.9 172.6 L99.3 172.2 L100.8 171.9 L105.7 170.2 L106.2 169.7 L107.5 169.6 L109.0 169.1 L110.4 168.9 L111.6 168.6 L111.7 167.9 L111.9 167.7 L112.0 167.5 L112.2 167.4 L112.2 167.1 L111.6 167.0 L111.0 167.2 L110.4 167.4 L109.4 166.9 L109.1 166.9 L108.9 166.9 L108.9 166.7 L109.0 166.2 L108.9 166.1 L108.7 165.9 L108.4 165.7 L108.0 165.6 L107.6 165.5 L107.7 166.0 L107.7 166.4 L107.7 166.7 L108.1 167.1 L107.3 167.3 L106.8 167.5 L105.7 168.2 L104.9 168.5 L104.1 168.7 L101.5 168.9 L100.1 169.2 L95.1 169.7 L93.5 170.1 L92.9 170.4 L92.9 170.5 L92.8 170.7 L92.8 170.8 L92.7 170.9 L92.5 171.0 L90.0 171.6 L89.0 172.0 L88.6 172.0 L87.8 171.8 L87.4 171.7 L85.6 171.9 L84.7 172.1 L84.0 172.6 L83.7 172.3 L84.0 172.1 L84.1 171.9 L84.1 171.7 L84.3 171.5 L84.5 171.4 L87.2 170.9 L87.8 170.7 L87.8 170.5 L87.7 170.4 L87.6 170.4 L87.5 170.4 L87.7 169.9 L87.4 169.6 L86.8 169.5 L86.2 169.5 L86.7 169.1 L87.5 168.9 L89.1 169.0 L90.0 168.8 L91.9 167.7 L91.9 167.4 L90.2 167.4 L90.9 166.7 L92.2 166.1 L93.5 165.7 L94.6 165.5 L94.5 165.7 L94.2 166.1 L94.0 166.3 L94.7 166.2 L95.4 166.0 L95.8 165.6 L95.9 165.0 L96.4 165.2 L97.1 165.2 L98.7 165.2 L98.7 165.0 L98.3 164.9 L97.5 164.7 L97.5 164.4 L98.1 164.2 L99.1 163.5 L99.9 163.2 L100.3 162.7 L100.5 162.5 L100.9 162.5 L101.9 162.5 L103.2 162.3 L105.5 161.5 L106.8 161.2 L106.8 160.9 L103.9 161.1 L99.7 162.1 L99.0 162.4 L98.7 162.7 L98.4 162.9 L97.1 162.9 L96.5 163.0 L96.7 163.3 L95.6 163.8 L95.1 163.9 L95.2 163.7 L95.3 163.2 L95.4 163.0 L94.8 163.0 L94.5 163.2 L94.3 163.4 L94.0 163.6 L93.6 163.7 L92.6 163.8 L92.1 163.9 L90.4 164.7 L89.5 165.0 L88.6 164.7 L87.8 165.2 L86.8 165.7 L85.8 166.1 L84.8 166.3 L85.0 165.8 L81.3 164.7 L82.8 164.4 L83.2 163.4 L82.5 162.4 L80.9 162.0 L80.4 162.2 L79.4 163.1 L79.0 163.3 L78.5 163.5 L77.3 164.2 L76.7 164.4 L76.4 163.9 L76.9 162.8 L76.7 162.2 L76.1 162.2 L75.3 162.2 L74.8 162.1 L75.0 161.7 L75.0 161.5 L74.9 161.5 L74.8 161.5 L74.8 161.4 L74.9 161.3 L74.9 161.2 L75.0 161.1 L75.0 160.9 L74.9 160.9 L74.6 160.9 L74.5 160.9 L74.5 160.6 L75.8 160.5 L79.1 159.8 L79.8 159.8 L80.1 159.7 L80.2 159.4 L80.2 159.1 L80.1 159.0 L79.5 158.8 L79.2 158.4 L78.8 158.0 L78.0 157.9 L78.0 157.7 L78.5 157.5 L79.5 157.3 L79.9 157.1 L79.6 156.5 L80.4 156.3 L81.6 156.1 L82.6 155.7 L85.1 154.9 L88.8 154.4 L90.5 153.8 L91.3 152.5 L91.6 152.5 L91.6 153.2 L92.0 153.5 L92.5 153.6 L93.1 153.6 L92.9 153.2 L93.8 150.9 L95.0 151.3 L96.3 151.4 L99.2 151.1 L98.9 151.0 L98.6 150.7 L98.4 150.6 L99.7 150.0 L91.9 150.3 L92.4 151.1 L92.1 151.6 L92.0 151.8 L91.7 151.1 L91.3 150.8 L90.8 150.7 L90.2 150.6 L89.1 150.5 L83.7 151.4 L82.8 151.7 L82.4 151.5 L82.0 151.1 L81.6 150.9 L81.1 151.0 L80.9 151.2 L80.6 151.3 L79.6 150.7 L79.1 150.7 L78.0 150.9 L78.0 151.1 L78.4 151.1 L78.7 151.2 L79.4 151.4 L79.4 151.6 L78.4 151.5 L76.5 151.1 L75.6 151.1 L75.6 151.4 L75.7 151.5 L76.1 151.6 L75.3 151.7 L73.7 152.1 L72.9 152.2 L71.9 152.0 L71.7 151.5 L71.6 150.8 L71.2 150.0 L71.6 149.9 L72.3 149.5 L72.3 149.3 L71.9 148.9 L72.4 148.6 L73.2 148.3 L74.0 148.1 L73.7 148.7 L74.5 149.1 L75.0 149.3 L75.4 149.1 L75.5 148.8 L75.4 148.5 L75.4 148.2 L75.9 147.9 L75.5 147.7 L75.3 147.6 L75.7 147.0 L76.1 146.9 L76.7 146.9 L77.5 146.8 L77.9 146.5 L78.8 145.6 L79.2 145.4 L83.4 144.7 L84.0 145.0 L83.5 146.5 L83.6 146.8 L86.2 146.5 L87.3 146.1 L88.4 145.4 L88.7 144.6 L87.8 143.8 L89.2 143.8 L89.6 143.9 L89.4 144.3 L89.6 144.9 L89.7 145.5 L89.8 146.0 L90.4 146.2 L91.0 146.3 L92.2 146.7 L93.6 146.8 L95.2 146.8 L95.8 146.6 L96.6 146.0 L97.1 145.8 L97.5 146.0 L97.3 146.1 L97.0 146.2 L97.7 146.5 L100.5 146.2 L99.9 145.8 L99.4 145.7 L98.1 145.7 L96.8 145.3 L96.2 145.2 L95.6 145.4 L95.3 145.2 L95.1 145.0 L95.0 144.7 L94.9 144.3 L95.3 144.6 L95.7 144.8 L96.1 144.8 L96.7 144.6 L96.2 144.4 L96.0 144.4 L95.6 144.3 L95.6 144.0 L96.0 144.0 L97.0 143.8 L96.6 143.1 L96.7 141.2 L96.1 140.8 L94.0 140.6 L92.9 140.2 L92.1 139.7 L92.7 139.4 L93.5 139.2 L96.2 139.1 L100.1 138.0 L100.6 137.7 L101.2 137.2 L101.9 136.9 L102.9 136.9 L104.0 137.1 L104.6 137.3 L104.5 136.8 L104.0 136.5 L103.4 136.4 L102.7 136.5 L102.9 136.3 L103.0 136.1 L102.9 135.9 L102.7 135.7 L102.7 135.4 L103.0 135.2 L103.1 134.9 L103.0 134.4 L103.1 134.2 L104.1 133.5 L104.3 133.6 L104.6 133.5 L104.9 133.3 L105.3 133.2 L106.9 133.5 L110.1 133.5 L110.4 133.6 L110.7 133.7 L111.1 133.8 L111.5 133.6 L111.8 133.4 L112.1 133.2 L112.4 133.2 L115.4 133.3 L115.5 133.3 L115.9 133.3 L116.5 133.2 L119.0 133.2 L120.4 133.0 L121.0 132.9 L121.6 132.5 L122.1 132.3 L127.0 131.3 L127.7 131.0 L128.0 131.5 L128.7 131.6 L129.5 131.5 L130.1 131.3 L130.3 131.1 L130.6 130.7 L130.9 130.4 L131.3 130.2 L138.3 129.7 L139.6 129.4 L138.9 129.4 L136.3 128.8 L135.0 128.6 L132.4 128.9 L131.7 128.8 L131.3 128.6 L131.3 128.3 L131.8 128.1 L131.8 127.8 L131.6 127.5 L131.6 127.0 L131.6 126.6 L130.9 126.4 L131.3 126.1 L131.7 125.6 L132.0 125.4 L131.0 125.5 L129.7 126.0 L128.8 126.5 L128.7 127.0 L127.4 128.5 L123.9 131.4 L123.2 131.6 L119.7 131.9 L119.5 132.0 L118.8 132.5 L118.4 132.7 L117.9 132.7 L117.4 132.7 L117.0 132.6 L116.6 132.4 L117.2 132.1 L118.1 131.7 L118.7 131.3 L118.7 130.7 L117.5 131.2 L114.6 131.8 L112.5 131.8 L111.7 131.7 L110.9 131.5 L110.6 131.2 L110.3 131.0 L109.0 130.8 L108.4 130.5 L108.6 129.9 L108.2 129.7 L106.8 129.7 L106.8 130.0 L107.1 130.0 L107.4 130.2 L107.7 130.4 L107.9 130.7 L104.9 131.6 L103.1 131.8 L102.3 132.1 L101.9 132.5 L101.8 133.1 L101.5 133.2 L101.1 133.0 L100.8 132.9 L99.8 133.4 L92.7 134.0 L92.7 133.8 L93.4 133.6 L95.1 132.8 L97.1 132.5 L105.1 127.8 L105.0 127.7 L104.9 127.3 L105.3 127.1 L105.9 126.9 L106.2 126.7 L106.8 126.6 L108.0 126.7 L108.4 126.7 L109.2 126.5 L109.6 126.4 L110.0 126.3 L110.2 125.9 L110.3 125.4 L110.6 125.1 L110.4 124.9 L110.4 124.9 L110.5 124.8 L110.6 124.6 L110.3 124.3 L110.7 124.1 L111.2 123.9 L111.6 123.5 L111.9 123.2 L112.2 122.8 L112.3 122.5 L112.4 122.3 L112.8 122.1 L112.8 121.8 L112.8 121.3 L115.3 119.9 L115.7 119.1 L115.0 119.0 L111.9 119.1 L110.8 118.8 L112.0 118.2 L112.4 117.8 L113.6 116.6 L114.0 116.3 L114.4 116.1 L114.1 115.9 L116.2 113.4 L117.1 112.9 L117.7 112.2 L118.3 111.4 L119.0 110.7 L119.8 110.5 L120.7 110.8 L122.6 111.8 L123.5 112.1 L124.2 111.9 L125.0 111.6 L125.9 111.4 L126.9 111.8 L127.0 111.1 L126.4 110.8 L124.7 110.5 L124.7 110.2 L127.0 109.9 L127.6 110.0 L128.8 110.6 L129.6 110.7 L129.6 110.5 L127.9 109.9 L127.9 109.6 L128.9 109.8 L129.4 109.9 L129.8 109.6 L130.3 109.5 L130.6 109.5 L130.4 109.9 L130.8 110.2 L131.2 110.5 L131.7 110.6 L132.3 110.7 L131.9 109.9 L131.7 109.6 L131.5 109.3 L132.0 108.7 L132.6 108.3 L133.9 107.7 L133.5 107.7 L132.8 107.9 L132.4 108.0 L128.5 107.9 L127.9 107.7 L128.6 107.5 L130.4 107.2 L131.2 107.2 L131.2 106.9 L130.1 106.9 L130.1 106.6 L130.5 106.4 L131.5 106.3 L132.0 106.1 L132.0 105.8 L128.9 105.6 L128.1 105.6 L126.7 106.0 L113.9 106.7 L112.6 107.0 L112.0 107.3 L111.1 107.4 L109.5 107.4 L108.7 107.2 L108.2 106.8 L107.9 106.4 L107.3 106.1 L108.1 105.4 L107.8 105.0 L107.1 105.0 L106.8 105.7 L106.6 106.6 L106.1 107.1 L105.5 107.1 L104.9 106.6 L104.9 106.4 L105.6 105.5 L105.3 103.7 L106.1 103.4 L106.2 103.4 L106.6 103.6 L106.9 103.6 L107.1 103.6 L107.3 103.2 L107.4 103.1 L107.5 103.0 L106.0 102.0 L106.4 101.7 L107.9 101.2 L106.4 101.2 L105.7 101.2 L105.1 101.5 L105.7 102.0 L105.7 102.6 L105.4 103.2 L104.6 103.4 L103.9 103.0 L104.1 102.2 L104.5 101.5 L104.5 101.2 L104.2 101.1 L104.1 101.0 L103.9 100.9 L103.7 101.1 L103.1 101.5 L102.6 101.6 L102.3 101.9 L101.9 102.5 L100.9 103.6 L100.3 104.0 L98.5 104.5 L97.8 104.5 L97.2 104.1 L96.4 103.7 L94.7 103.9 L94.0 103.6 L94.2 103.5 L94.4 103.0 L94.5 102.5 L94.6 102.3 L94.9 102.1 L95.2 102.0 L95.8 102.0 L96.4 101.9 L98.1 101.3 L98.7 100.9 L98.7 100.7 L97.3 100.7 L97.3 100.4 L98.1 100.1 L98.1 99.9 L97.5 99.9 L97.1 100.0 L96.2 100.4 L96.2 100.7 L95.7 100.9 L95.1 100.8 L94.9 100.4 L95.1 100.0 L95.9 99.7 L96.2 99.3 L95.7 99.3 L95.4 99.5 L95.1 99.8 L94.7 99.9 L94.4 99.8 L94.0 99.6 L93.7 99.6 L93.2 99.9 L93.1 100.2 L93.2 100.7 L93.2 101.1 L92.8 101.2 L92.4 101.3 L91.7 101.4 L90.1 101.5 L89.6 101.4 L89.1 101.2 L88.7 100.9 L88.5 100.5 L88.2 100.2 L87.7 100.1 L86.1 100.3 L85.1 100.2 L84.6 99.9 L84.2 100.0 L83.9 100.1 L83.2 100.1 L83.5 99.5 L83.9 99.1 L84.5 98.8 L85.4 98.8 L86.9 98.9 L87.5 98.9 L88.1 98.5 L88.1 98.2 L87.6 98.2 L87.2 98.0 L86.9 97.8 L86.7 97.4 L87.6 97.5 L88.5 97.8 L89.3 97.8 L89.7 97.4 L88.9 97.5 L87.4 97.3 L85.9 96.9 L85.1 96.3 L85.1 96.1 L84.8 95.6 L84.5 95.2 L84.1 95.0 L83.0 95.1 L82.5 95.2 L82.1 95.0 L83.0 94.5 L83.9 94.5 L84.9 94.7 L85.9 94.7 L85.8 94.5 L85.7 94.1 L85.6 93.9 L87.4 93.9 L89.1 94.2 L89.4 94.3 L90.0 95.0 L90.3 94.8 L90.9 94.3 L91.3 94.2 L88.9 93.2 L88.3 92.7 L89.8 92.5 L92.9 92.7 L94.0 92.5 L95.4 92.0 L95.9 92.0 L96.3 92.1 L97.2 92.5 L99.1 92.7 L102.2 92.8 L102.2 92.5 L101.5 92.3 L98.7 92.5 L97.0 92.1 L93.8 90.9 L93.2 89.1 L93.5 88.3 L93.9 87.6 L94.1 87.0 L93.8 86.3 L94.2 86.1 L95.7 86.0 L96.7 85.7 L97.7 85.7 L98.1 85.6 L98.5 85.3 L98.7 85.3 L99.5 85.6 L100.0 85.7 L107.3 84.9 L107.3 84.7 L106.7 84.6 L105.1 84.1 L105.4 84.0 L105.5 83.9 L105.7 83.9 L106.0 83.8 L106.0 83.6 L105.8 83.2 L106.2 82.9 L107.6 82.2 L107.3 82.2 L106.5 82.0 L106.8 81.8 L107.1 81.5 L107.2 81.2 L107.3 80.9 L107.1 80.9 L106.9 80.9 L106.7 81.0 L106.5 81.1 L105.4 80.9 L99.7 80.9 L95.8 82.2 L93.7 82.5 L92.4 81.7 L92.9 81.4 L93.1 80.3 L93.8 80.0 L93.7 79.7 L93.7 79.5 L93.8 79.2 L93.8 79.0 L93.5 79.0 L93.5 78.7 L95.4 78.4 L95.7 78.5 L96.6 78.9 L97.2 79.0 L97.6 79.2 L97.8 80.1 L98.2 80.3 L98.6 80.2 L98.6 79.9 L98.5 79.4 L98.7 79.0 L98.3 78.7 L98.0 78.4 L97.6 78.2 L97.0 78.2 L97.0 78.4 L97.3 78.7 L96.8 78.6 L96.6 78.3 L96.1 77.3 L96.1 77.1 L96.1 77.0 L95.9 76.8 L95.7 76.8 L95.0 76.8 L94.9 76.7 L94.7 76.4 L94.5 76.2 L94.2 75.9 L94.0 75.3 L94.2 74.7 L94.6 74.5 L95.2 74.4 L95.6 74.1 L95.1 73.9 L95.1 73.7 L95.4 73.4 L95.9 73.3 L95.6 73.0 L96.7 72.4 L96.4 72.3 L95.9 72.2 L94.9 72.4 L95.0 72.8 L94.9 72.9 L94.7 73.0 L94.3 73.0 L94.3 73.3 L94.6 73.3 L93.4 74.1 L92.3 74.3 L91.3 73.8 L90.5 72.7 L91.3 72.8 L93.1 72.4 L93.8 72.2 L92.6 71.7 L92.1 71.3 L91.9 70.8 L92.1 70.9 L92.7 71.0 L92.9 71.1 L92.4 70.6 L91.1 69.7 L91.6 70.0 L92.1 70.0 L92.4 69.8 L92.7 69.5 L90.6 68.4 L89.7 68.2 L89.1 68.7 L89.7 69.1 L89.5 69.4 L88.8 69.6 L88.1 69.5 L88.4 69.9 L88.6 70.0 L88.6 70.3 L88.0 70.2 L87.6 70.3 L86.7 70.6 L86.7 70.8 L87.2 70.9 L87.4 71.2 L87.5 71.9 L87.2 71.9 L86.4 72.2 L86.9 72.4 L87.4 72.8 L87.5 73.1 L86.8 73.3 L86.1 73.2 L85.5 73.1 L85.2 72.7 L85.1 71.9 L85.3 71.5 L86.2 70.3 L86.4 69.9 L86.6 69.2 L86.9 68.8 L87.3 68.6 L87.8 68.1 L86.6 68.1 L86.1 67.9 L85.6 67.6 L86.4 67.6 L86.7 67.2 L86.9 66.7 L87.3 66.2 L87.7 66.0 L89.4 65.4 L89.6 65.2 L89.7 65.0 L89.9 64.9 L90.2 64.9 L90.5 65.0 L90.6 65.2 L90.6 65.5 L90.8 65.7 L91.3 65.9 L92.0 66.1 L92.7 66.2 L93.2 65.9 L93.5 66.2 L93.8 66.4 L94.2 66.4 L94.6 66.2 L94.6 66.4 L94.6 66.4 L94.7 66.4 L94.9 66.5 L94.0 67.5 L93.0 67.9 L92.1 67.8 L91.1 67.3 L90.8 68.1 L91.4 68.3 L92.4 68.3 L93.1 68.5 L93.7 68.8 L94.3 68.5 L94.8 68.1 L95.4 67.8 L94.8 67.4 L95.1 66.7 L95.7 66.2 L96.3 65.9 L97.2 66.1 L98.6 66.7 L99.5 66.8 L99.2 66.4 L98.9 66.2 L98.1 65.9 L98.1 65.7 L98.5 65.6 L98.9 65.5 L99.7 65.7 L99.0 65.4 L96.9 65.1 L96.5 64.7 L96.3 64.2 L96.3 63.9 L98.7 63.5 L99.5 63.6 L101.0 64.2 L101.8 64.3 L108.6 64.6 L109.0 64.6 L109.7 64.4 L110.2 64.3 L110.5 64.4 L111.1 64.7 L111.4 64.9 L114.5 65.1 L114.9 65.1 L115.4 64.9 L115.8 64.7 L116.1 64.5 L116.5 64.3 L117.0 64.3 L118.8 64.8 L119.1 64.9 L119.4 65.0 L119.7 65.8 L119.9 65.9 L120.6 65.9 L121.1 65.8 L121.1 65.7 L121.4 66.0 L121.5 66.3 L121.4 66.6 L121.1 66.8 L121.1 67.0 L122.0 67.3 L122.0 67.6 L121.2 67.9 L121.4 68.3 L123.3 69.3 L123.8 69.7 L124.2 70.3 L124.2 71.1 L124.4 71.1 L124.4 70.4 L124.6 69.8 L124.6 69.2 L124.4 68.7 L125.3 68.4 L126.2 67.9 L126.9 67.1 L127.1 66.1 L127.7 65.4 L129.1 65.3 L131.5 65.7 L131.7 65.6 L132.0 65.5 L132.2 65.4 L132.6 65.6 L133.3 65.9 L133.9 66.0 L134.8 66.4 L135.4 66.5 L137.4 66.5 L138.2 66.3 L139.0 65.9 L140.1 66.4 L142.6 66.1 L143.7 66.5 L143.9 66.8 L144.0 67.3 L144.3 67.7 L145.4 67.9 L145.8 68.2 L146.7 69.0 L147.2 68.7 L147.8 68.6 L149.1 68.7 L149.1 68.4 L148.5 68.2 L147.8 68.1 L147.2 67.9 L146.9 67.4 L146.7 67.1 L146.1 66.9 L145.4 66.8 L144.8 66.8 L144.8 66.5 L145.0 66.3 L145.5 65.8 L145.8 65.7 L146.7 65.9 L147.2 66.0 L147.5 65.8 L147.9 65.6 L150.7 65.9 L150.1 65.5 L149.4 65.1 L148.6 64.9 L147.9 64.9 L147.1 64.9 L146.8 64.8 L146.7 64.5 L146.9 64.1 L147.4 64.2 L148.3 64.6 L149.1 64.3 L148.8 63.9 L147.9 63.6 L147.1 63.5 L143.2 63.5 L142.9 63.4 L142.9 63.0 L143.1 62.7 L143.5 62.4 L143.9 62.2 L145.1 62.0 L149.7 60.1 L150.3 60.0 L150.6 59.9 L150.7 59.5 L150.7 58.8 L150.9 58.1 L151.2 58.2 L151.4 58.6 L151.6 58.9 L151.7 58.9 L151.8 58.9 L151.8 59.2 L153.0 58.7 L154.1 58.3 L154.2 58.3 L157.5 58.0 L158.0 57.9 L159.8 57.2 L161.0 57.0 L161.0 56.7 L159.7 56.7 L159.1 56.5 L158.6 56.2 L160.8 55.1 L160.7 54.3 L162.5 53.3 L162.4 52.4 L162.8 52.5 L163.1 52.7 L163.4 52.8 L163.9 52.9 L164.3 51.6 L164.6 51.3 L164.4 51.2 L164.4 51.2 L164.4 51.2 L164.3 51.0 L163.5 51.5 L162.7 51.7 L160.0 52.0 L158.6 52.7 L157.8 52.9 L157.8 52.7 L158.2 52.3 L158.2 52.0 L158.0 51.7 L157.4 51.6 L156.8 51.7 L155.8 52.5 L154.8 52.8 L152.9 54.0 L152.4 54.2 L151.8 54.4 L151.3 54.5 L151.3 54.3 L152.2 53.6 L152.8 53.3 L153.6 53.2 L154.1 52.9 L154.0 52.3 L153.5 52.0 L152.9 52.4 L152.6 52.4 L152.8 51.5 L152.2 51.5 L151.6 52.0 L151.3 52.8 L151.1 53.0 L150.6 52.8 L150.3 52.5 L150.1 52.2 L150.1 52.0 L150.1 51.9 L149.8 51.8 L149.5 51.9 L149.1 52.0 L148.9 52.1 L147.9 52.1 L147.4 52.2 L147.0 52.8 L146.5 52.7 L145.7 52.4 L142.7 52.4 L142.0 52.1 L142.3 51.7 L142.0 51.5 L138.7 50.8 L138.0 50.8 L138.1 50.6 L138.2 50.5 L138.3 50.3 L138.5 50.2 L138.5 50.0 L138.0 49.8 L137.8 49.5 L137.8 49.2 L138.4 49.1 L139.0 49.1 L139.4 48.9 L139.7 48.7 L139.9 48.2 L140.3 47.9 L143.1 46.7 L144.1 46.5 L148.1 46.5 L150.2 46.9 L151.3 46.9 L151.3 46.7 L148.5 46.3 L147.7 45.9 L148.4 45.7 L150.1 45.6 L150.6 45.7 L151.1 46.2 L151.7 46.7 L152.4 46.9 L153.2 46.7 L151.1 45.5 L149.6 45.2 L148.2 44.6 L147.2 44.5 L147.4 44.1 L147.7 44.0 L148.1 44.0 L148.6 44.0 L148.9 43.8 L149.5 43.4 L149.9 43.2 L150.7 43.6 L151.6 43.7 L153.4 43.4 L155.6 44.0 L156.4 44.0 L156.4 43.7 L155.7 43.6 L154.9 43.4 L154.2 43.0 L154.3 42.3 L154.8 42.0 L156.4 42.2 L157.0 42.1 L156.4 41.8 L156.0 41.1 L155.5 41.0 L154.7 40.9 L154.5 41.0 L154.4 41.1 L154.3 41.4 L154.3 41.7 L154.3 41.8 L153.1 41.8 L152.2 41.2 L151.5 40.4 L151.0 39.6 L151.5 39.4 L151.9 39.5 L152.3 39.8 L152.8 39.9 L153.3 39.8 L153.8 39.7 L154.8 39.3 L153.7 39.1 L152.8 38.6 L151.3 37.5 L151.3 37.2 L151.6 37.0 L152.0 36.9 L152.5 37.0 L152.9 37.2 L153.3 36.8 L153.4 36.6 L153.2 36.6 L153.4 36.1 L153.7 36.0 L154.1 36.0 L154.5 35.9 L155.3 34.9 L155.6 34.8 L156.0 35.0 L156.1 35.9 L156.4 36.1 L156.7 35.9 L156.9 35.2 L157.3 35.0 L156.8 33.8 L156.7 33.1 L156.8 32.8 L157.3 32.6 L157.9 31.4 L158.3 30.9 L158.9 30.9 L161.2 31.5 L161.9 31.4 L163.1 31.0 L163.7 30.9 L163.5 31.3 L163.2 31.5 L163.0 31.8 L162.9 32.2 L163.1 32.4 L163.6 32.1 L164.8 31.2 L167.2 30.3 L168.0 30.1 L168.5 29.8 L168.9 29.2 L169.4 28.6 L170.3 28.5 L171.3 29.0 L171.0 29.4 L169.2 30.1 L169.2 30.4 L170.8 29.9 L171.1 30.0 L171.4 30.2 L171.9 30.1 L172.6 30.0 L173.0 29.8 L173.5 30.4 L173.5 30.6 L173.3 31.1 L173.7 31.0 L174.3 30.8 L174.9 30.6 L174.7 31.0 L174.4 31.3 L174.0 31.4 L173.5 31.5 L173.5 31.8 L174.2 31.7 L174.7 31.8 L175.0 31.8 L175.4 31.5 L175.9 30.8 L175.8 30.3 L174.9 29.6 L174.6 28.8 L175.3 28.3 L176.3 27.9 L177.3 27.2 L177.4 27.4 L177.5 27.4 L177.6 27.5 L176.7 29.3 L176.6 29.6 L176.7 29.7 L176.8 29.8 L177.0 30.0 L177.3 30.1 L177.7 30.1 L178.0 29.9 L178.4 29.8 L178.9 30.0 L179.8 30.3 L180.5 30.7 L180.8 31.1 L180.9 31.2 L181.3 31.7 L181.4 32.0 L181.4 32.3 L181.2 33.0 L181.1 33.4 L181.4 33.0 L182.1 32.0 L182.3 31.8 L182.5 31.5 L182.2 30.8 L181.8 30.2 L181.7 30.0 L181.6 29.6 L181.4 29.1 L181.1 28.6 L180.6 28.5 L180.3 28.8 L180.3 29.4 L180.6 30.0 L180.8 30.4 L180.3 30.3 L179.9 30.1 L179.6 29.8 L179.2 29.6 L178.1 29.4 L177.6 29.1 L177.7 28.6 L178.8 27.4 L178.8 27.2 L180.2 27.3 L180.8 27.2 L182.3 26.5 L182.8 26.3 L183.4 26.5 L183.9 26.9 L184.2 27.3 L184.5 27.5 L184.7 27.7 L184.6 28.4 L184.5 29.0 L184.4 29.2 L184.6 29.5 L185.1 29.8 L186.3 30.1 L186.3 30.6 L186.6 31.1 L187.1 31.6 L187.5 31.8 L188.0 32.0 L188.1 32.7 L187.9 33.3 L187.5 33.6 L186.9 33.7 L186.4 34.0 L185.7 34.5 L183.5 35.3 L183.5 35.6 L185.9 35.3 L186.7 35.5 L186.3 36.4 L185.8 36.7 L183.8 37.5 L182.5 38.6 L181.9 38.8 L181.9 39.1 L182.7 39.0 L183.5 38.7 L187.2 36.6 L187.6 36.5 L188.0 36.1 L188.8 35.9 L189.7 35.7 L190.4 35.6 L190.9 35.1 L191.1 34.4 L190.9 33.9 L190.2 33.6 L190.0 33.5 L190.2 33.1 L190.6 32.6 L190.6 31.6 L190.3 31.5 L188.7 30.1 L187.8 29.7 L187.5 29.5 L187.3 29.2 L187.2 28.8 L187.2 28.4 L188.1 27.9 L188.5 27.2 L188.6 26.4 L188.2 25.8 L188.8 25.8 L189.4 26.0 L190.0 26.1 L190.6 25.8 L190.5 25.7 L190.5 25.6 L190.4 25.5 L190.4 25.3 L191.1 25.7 L192.0 26.0 L192.9 25.9 L194.4 25.0 L195.2 24.9 L196.0 25.1 L196.6 25.8 L195.7 25.8 L195.5 25.8 L196.2 26.1 L197.1 26.4 L198.0 26.4 L198.8 26.1 L196.2 24.9 L195.0 24.0 L194.9 23.1 L193.9 22.7 L193.4 22.5 L193.1 22.2 L193.7 22.0 L194.4 22.1 L195.8 22.5 L198.5 23.1 L199.1 23.2 L200.7 23.6 L201.2 23.9 L203.2 25.7 L203.8 26.0 L205.8 26.5 L207.3 26.7 L209.1 27.1 L209.9 27.5 L210.8 27.2 L211.3 27.8 L211.2 28.6 L210.0 29.0 L208.9 29.2 L207.6 29.5 L206.3 30.0 L205.0 30.7 L203.7 31.1 L202.6 31.3 L202.1 31.6 L200.3 33.0 L199.7 33.7 L199.2 34.4 L199.1 34.6 Z M91.6 78.7 L92.1 78.6 L92.5 78.5 L92.9 78.5 L93.2 78.7 L93.2 79.0 L92.9 79.3 L92.6 79.9 L92.5 80.6 L92.7 81.1 L91.8 81.6 L91.1 81.4 L90.3 80.8 L89.4 80.3 L88.9 80.3 L88.4 80.4 L88.0 80.3 L87.8 79.9 L87.9 79.3 L88.0 78.9 L88.0 78.5 L87.5 78.2 L86.7 78.0 L83.7 78.4 L82.6 78.3 L80.7 77.9 L79.6 77.9 L79.6 77.6 L80.7 77.6 L81.5 77.4 L82.2 77.0 L82.7 76.2 L83.0 76.5 L83.3 76.6 L83.6 76.5 L84.0 76.2 L84.8 76.9 L85.9 76.7 L86.8 76.2 L87.7 76.0 L91.1 76.0 L91.9 76.2 L92.7 77.3 L91.9 77.3 L92.0 77.6 L92.0 77.9 L91.8 78.2 L91.6 78.4 L91.6 78.7 Z" fill="#172033" fill-rule="evenodd"/></svg>
