<svg xmlns="http://www.w3.org/2000/svg" viewBox="0 0 320 200" role="img"><path d="M77.2 39.3 L77.8 39.9 L78.2 40.0 L78.6 40.1 L79.1 40.1 L79.6 40.0 L80.5 39.8 L80.9 39.6 L81.1 39.5 L82.3 39.6 L82.7 39.5 L83.6 39.0 L84.1 38.9 L84.4 38.9 L84.5 38.7 L84.7 38.6 L84.9 38.5 L86.5 38.7 L86.7 38.8 L86.9 39.0 L87.2 39.3 L87.2 39.3 L87.4 39.3 L87.5 39.3 L87.6 39.3 L87.8 39.3 L88.5 39.5 L88.9 39.5 L89.2 39.5 L89.3 39.5 L89.5 39.4 L89.5 39.4 L89.5 39.3 L89.5 39.2 L89.5 39.1 L89.9 39.1 L89.9 38.8 L90.1 38.6 L90.3 38.5 L91.3 38.3 L91.5 38.3 L91.6 38.2 L91.8 38.1 L91.8 38.0 L91.9 37.8 L92.0 37.8 L92.0 37.4 L92.0 37.2 L92.1 37.0 L92.2 36.9 L92.3 36.8 L92.6 36.8 L92.8 36.7 L93.5 36.3 L93.8 35.8 L93.7 35.3 L93.3 34.7 L92.9 34.5 L92.9 34.4 L93.0 34.3 L93.1 34.2 L93.4 34.0 L93.7 33.9 L94.4 33.8 L94.7 33.6 L95.4 32.9 L95.8 32.8 L96.0 32.7 L96.2 32.6 L96.2 32.4 L96.2 32.3 L96.1 32.2 L96.1 32.2 L96.2 32.0 L96.5 31.7 L96.9 31.6 L97.6 31.5 L97.8 31.5 L98.2 31.5 L98.4 31.7 L98.5 32.1 L98.5 32.5 L98.4 32.9 L98.2 33.7 L98.1 34.1 L98.2 34.5 L98.4 34.7 L98.6 34.9 L99.0 35.0 L99.4 35.1 L99.9 35.4 L100.8 36.4 L100.9 36.4 L101.2 36.5 L101.9 36.8 L102.2 36.8 L102.3 36.8 L102.5 36.6 L102.6 36.6 L102.7 36.6 L102.7 36.6 L102.9 36.8 L103.0 36.8 L103.2 36.8 L103.7 36.8 L103.9 36.9 L104.3 37.2 L104.1 37.6 L103.6 38.0 L103.4 38.4 L103.3 38.4 L103.3 38.5 L103.5 38.5 L103.8 38.6 L104.6 38.9 L104.7 38.9 L104.8 39.0 L105.0 39.3 L105.2 39.6 L105.4 39.8 L105.4 40.0 L105.5 40.2 L105.4 40.4 L105.3 40.6 L105.3 40.8 L105.9 40.7 L106.3 40.9 L106.8 40.9 L107.3 40.5 L107.6 40.0 L107.7 39.7 L107.5 39.5 L107.4 39.4 L107.1 39.4 L106.9 39.3 L106.8 39.2 L106.7 38.9 L106.5 38.8 L106.5 38.8 L106.5 38.7 L106.5 38.7 L106.5 38.7 L107.0 38.3 L106.7 37.8 L106.8 37.6 L107.2 37.4 L107.5 37.4 L107.6 37.3 L107.8 37.2 L107.8 37.0 L107.8 36.6 L107.8 36.5 L108.1 36.2 L109.2 35.7 L109.2 35.6 L109.3 35.5 L109.4 35.3 L109.5 35.2 L109.6 35.1 L109.8 35.0 L110.0 34.9 L110.1 34.8 L110.3 34.2 L110.8 33.6 L110.9 33.3 L110.8 33.1 L110.6 32.6 L110.6 32.3 L110.7 32.1 L110.7 32.0 L110.5 31.9 L110.3 31.7 L110.4 31.3 L110.7 31.0 L111.0 30.8 L111.7 30.7 L112.0 30.8 L112.0 31.0 L112.4 31.2 L112.5 31.3 L112.7 31.2 L112.7 31.1 L112.8 31.0 L112.9 30.9 L113.1 30.8 L113.3 30.8 L113.3 30.9 L113.4 32.3 L113.4 32.5 L113.4 32.6 L113.5 32.7 L113.8 32.8 L114.0 32.9 L114.3 33.4 L114.5 33.6 L114.8 33.8 L115.1 33.9 L116.8 33.9 L117.1 33.8 L117.3 33.6 L117.4 33.5 L117.3 33.3 L117.4 33.1 L117.5 33.0 L117.7 33.0 L118.0 33.1 L118.2 33.2 L118.6 33.1 L119.5 32.7 L120.2 32.7 L120.5 32.7 L120.8 32.7 L121.2 32.9 L121.3 33.1 L121.3 33.4 L121.4 33.8 L121.6 34.0 L122.2 34.3 L122.3 34.6 L122.3 34.9 L122.8 34.9 L123.5 34.8 L123.9 34.6 L124.1 34.3 L123.9 34.0 L123.3 33.6 L123.1 33.4 L123.1 33.3 L123.1 33.2 L123.2 33.0 L123.3 32.8 L123.6 32.6 L123.7 32.5 L123.8 32.2 L123.7 32.0 L123.4 32.0 L122.8 31.9 L122.3 31.8 L122.1 31.6 L122.4 31.2 L122.2 31.2 L122.2 31.1 L122.1 31.0 L122.1 30.9 L122.2 30.7 L122.2 30.4 L122.2 30.3 L122.3 30.1 L122.7 29.9 L122.8 29.8 L123.0 29.3 L123.0 29.2 L123.2 29.1 L124.6 28.9 L125.0 28.9 L125.2 29.0 L125.2 29.2 L125.2 29.5 L125.2 29.6 L125.8 29.8 L126.0 29.8 L126.0 29.9 L126.1 30.0 L126.3 30.0 L126.5 30.1 L127.0 30.0 L128.1 30.2 L128.4 30.2 L128.5 30.1 L128.6 29.9 L128.7 29.6 L128.7 29.2 L128.6 28.9 L128.3 28.7 L127.6 28.7 L127.4 28.5 L127.2 28.2 L127.3 28.0 L127.5 27.9 L127.6 27.7 L127.6 27.5 L127.6 27.4 L127.7 27.2 L127.9 27.1 L128.1 26.9 L128.1 26.7 L128.0 26.5 L128.0 26.3 L128.3 26.0 L128.4 25.9 L128.4 25.8 L128.5 25.3 L129.0 25.6 L129.6 25.6 L131.1 25.3 L131.4 25.3 L131.6 25.4 L132.8 25.8 L132.9 26.0 L132.8 26.1 L132.5 26.3 L132.4 26.3 L132.5 26.5 L132.7 26.5 L133.0 26.4 L133.2 26.4 L133.6 26.6 L133.7 26.6 L134.0 26.6 L134.2 26.6 L134.3 26.6 L134.6 26.8 L134.7 26.8 L134.9 26.8 L135.4 26.7 L135.6 26.7 L136.2 26.7 L136.4 26.7 L136.6 26.7 L136.8 26.6 L137.2 26.2 L137.2 26.1 L137.4 26.1 L137.5 26.0 L137.5 26.0 L137.5 25.8 L137.5 25.8 L137.8 25.3 L137.9 24.8 L138.0 24.6 L139.0 23.9 L139.3 23.8 L140.3 23.6 L141.4 23.5 L141.9 23.5 L142.4 23.7 L142.8 23.7 L143.3 23.4 L143.3 23.4 L143.4 23.3 L143.6 23.2 L143.7 23.2 L144.0 23.2 L144.1 23.3 L144.2 23.3 L144.2 23.4 L144.4 23.4 L144.5 23.4 L144.7 23.4 L144.8 23.4 L144.8 23.4 L144.8 23.4 L144.8 23.4 L145.2 23.3 L145.6 23.3 L146.4 23.4 L146.4 23.4 L146.4 23.4 L146.5 23.4 L146.6 23.4 L146.9 23.4 L147.4 23.6 L147.7 23.7 L147.8 23.7 L148.1 23.5 L148.3 23.4 L149.0 23.4 L149.5 23.1 L150.1 22.9 L150.8 22.7 L151.8 22.7 L153.4 22.1 L153.6 22.1 L154.3 22.0 L154.7 22.1 L154.7 22.3 L154.7 22.5 L154.3 22.8 L153.4 23.1 L153.3 23.4 L153.4 23.5 L153.4 23.7 L153.5 24.0 L153.6 24.2 L153.7 24.4 L153.7 24.5 L153.5 24.6 L153.7 24.7 L154.0 24.7 L154.2 24.8 L154.4 24.9 L154.5 25.0 L154.5 25.1 L154.7 25.1 L155.4 25.1 L155.6 25.2 L155.7 25.6 L155.8 25.8 L155.7 25.9 L155.7 26.0 L155.6 26.1 L155.6 26.3 L155.6 26.4 L155.7 26.5 L155.9 26.6 L156.2 26.6 L156.5 26.7 L156.7 26.8 L156.9 27.1 L157.2 27.6 L157.7 27.9 L158.3 28.1 L158.6 28.1 L159.1 28.2 L159.6 28.4 L159.8 28.5 L160.0 28.5 L160.9 28.4 L161.6 28.5 L161.7 28.5 L161.8 28.5 L162.1 28.7 L162.2 28.7 L162.3 28.7 L162.6 28.6 L162.7 28.6 L162.8 28.6 L163.2 28.7 L164.0 29.1 L167.5 29.3 L168.8 29.5 L169.7 29.9 L170.0 30.0 L170.6 30.0 L172.2 29.8 L172.8 29.8 L173.7 29.8 L173.8 29.8 L174.0 30.0 L174.2 30.1 L174.8 30.1 L176.6 30.5 L176.8 30.5 L177.1 30.5 L177.1 30.6 L177.0 30.7 L177.0 30.8 L176.9 30.9 L176.9 31.2 L176.8 31.3 L176.7 31.5 L176.4 31.6 L176.1 31.6 L175.6 31.6 L175.2 31.8 L174.9 32.2 L174.5 32.4 L173.8 32.7 L173.5 32.9 L173.3 32.9 L173.1 32.9 L172.9 33.1 L172.7 33.4 L172.5 33.6 L172.4 33.7 L172.0 33.9 L172.2 34.0 L172.2 34.2 L172.3 34.6 L172.3 34.6 L172.3 34.6 L172.5 34.8 L172.6 35.0 L172.7 35.1 L173.1 35.1 L172.9 34.8 L173.1 34.9 L173.6 34.9 L173.8 35.0 L174.2 35.0 L174.5 35.2 L174.9 35.5 L175.3 35.5 L175.8 35.5 L176.0 35.5 L176.1 35.5 L176.2 35.7 L176.2 35.8 L175.8 36.4 L174.4 37.1 L174.1 37.2 L173.8 37.6 L173.9 37.6 L174.0 37.7 L173.9 37.8 L173.8 38.0 L173.7 38.0 L173.5 38.1 L173.7 38.3 L173.8 38.3 L173.8 38.3 L173.8 38.4 L173.8 38.4 L173.8 38.4 L174.2 38.7 L174.6 38.7 L175.1 38.5 L175.6 38.5 L175.6 38.4 L175.9 38.7 L175.8 39.0 L175.7 39.3 L175.5 39.5 L175.1 40.3 L175.0 40.8 L175.2 40.9 L175.3 41.1 L175.7 41.2 L176.2 41.3 L176.5 41.3 L177.0 41.7 L177.2 41.7 L178.2 42.1 L179.4 43.5 L179.6 43.6 L179.8 43.7 L179.9 43.7 L179.9 43.7 L180.0 43.7 L179.8 43.9 L179.6 44.2 L179.3 44.4 L178.6 44.5 L178.0 44.3 L177.2 44.3 L177.3 44.2 L177.5 44.0 L177.9 44.0 L178.3 44.0 L178.7 44.0 L178.5 44.0 L178.3 43.8 L178.2 43.7 L177.6 43.5 L177.9 43.4 L177.9 43.1 L177.6 42.8 L177.4 42.7 L176.3 41.8 L176.0 41.6 L175.2 41.4 L174.8 41.3 L174.6 41.5 L174.4 41.8 L174.5 42.1 L174.9 42.2 L174.3 42.3 L174.3 42.4 L174.2 42.5 L173.8 42.6 L173.6 42.6 L173.3 42.8 L173.0 43.0 L172.6 43.1 L172.2 43.0 L172.4 42.9 L172.7 42.8 L172.9 42.7 L173.0 42.6 L172.9 42.4 L172.3 42.3 L172.1 42.1 L171.8 42.1 L170.4 41.9 L170.3 41.8 L169.9 41.6 L169.8 41.5 L169.6 41.6 L169.1 41.7 L168.9 41.9 L168.8 41.9 L168.7 41.9 L168.5 41.7 L168.4 41.6 L168.2 41.7 L168.2 41.8 L168.3 42.0 L168.4 42.1 L168.4 42.2 L168.1 42.2 L167.8 42.3 L167.6 42.5 L167.7 42.8 L167.9 42.9 L168.2 42.8 L168.8 42.7 L168.6 42.9 L168.1 43.2 L168.0 43.4 L168.0 43.4 L167.9 43.6 L167.5 43.7 L166.3 43.7 L165.7 43.8 L163.3 44.9 L160.8 45.8 L159.3 46.2 L159.0 46.3 L158.9 46.4 L158.4 46.5 L158.0 46.6 L157.8 46.7 L157.9 46.4 L158.0 46.2 L158.1 46.1 L158.1 45.9 L158.2 46.0 L158.3 45.9 L158.4 45.9 L158.4 45.7 L158.5 45.7 L158.5 45.9 L158.6 45.9 L158.7 45.9 L158.8 45.8 L158.6 45.6 L158.7 45.7 L158.9 45.6 L159.1 45.6 L159.1 45.6 L159.1 45.6 L159.1 45.7 L159.2 45.7 L159.2 45.7 L159.1 45.7 L159.0 45.7 L159.0 45.8 L159.3 45.8 L159.4 45.6 L159.4 45.4 L159.6 45.3 L159.8 45.3 L160.0 45.2 L160.2 45.1 L160.3 44.9 L160.1 45.0 L159.8 45.2 L159.7 45.2 L159.4 45.0 L159.3 44.8 L159.2 44.6 L158.9 44.7 L158.5 45.0 L158.2 45.3 L158.4 45.4 L158.4 45.5 L158.1 45.5 L157.9 45.4 L157.8 45.4 L157.7 45.4 L157.6 45.1 L157.4 45.4 L157.5 45.5 L158.0 45.6 L158.0 45.7 L157.8 45.8 L157.5 45.8 L157.3 45.8 L157.4 45.6 L156.9 45.6 L156.3 45.9 L155.7 46.3 L155.4 46.7 L155.4 46.8 L155.5 46.8 L155.4 46.9 L155.3 47.0 L155.3 47.2 L155.5 47.3 L155.4 47.4 L155.3 47.5 L155.3 47.6 L155.3 47.8 L155.2 47.8 L155.0 47.8 L155.0 47.9 L155.1 48.1 L154.9 48.3 L154.9 48.5 L154.7 48.6 L154.4 48.6 L154.2 48.5 L154.1 48.5 L153.9 48.5 L153.9 48.8 L154.0 49.0 L154.1 49.3 L154.3 49.3 L154.5 49.3 L154.6 49.1 L154.6 48.9 L154.6 48.7 L154.9 48.8 L154.9 49.0 L154.9 49.2 L155.0 49.4 L154.8 49.5 L154.8 49.6 L154.8 49.6 L155.0 49.7 L154.9 50.0 L155.1 50.1 L155.3 50.2 L155.6 50.2 L155.6 50.2 L155.5 50.2 L155.5 50.2 L155.7 50.0 L156.1 49.8 L156.2 49.7 L156.1 50.0 L156.2 50.2 L156.3 50.4 L156.4 50.6 L156.4 51.1 L156.5 51.7 L156.4 51.6 L156.2 51.6 L156.2 51.5 L156.2 51.3 L156.2 51.3 L156.1 51.6 L156.1 51.9 L156.2 52.0 L156.5 52.0 L156.5 51.9 L156.5 51.9 L156.4 51.8 L156.7 52.0 L156.9 52.2 L157.1 52.4 L157.3 52.6 L157.3 52.7 L157.1 52.7 L157.1 52.7 L157.0 52.8 L156.9 52.8 L157.1 53.0 L157.4 52.8 L157.4 52.6 L157.3 52.4 L157.1 52.2 L157.4 52.3 L157.6 52.4 L157.8 52.5 L157.8 52.7 L158.0 52.9 L158.1 53.0 L158.3 53.0 L158.6 53.3 L158.9 53.5 L159.1 53.4 L159.0 53.4 L158.9 53.4 L158.9 53.4 L158.9 53.3 L159.1 53.3 L159.4 53.4 L159.5 53.5 L159.6 53.6 L159.6 53.8 L159.4 53.9 L159.5 54.0 L159.4 54.2 L159.3 54.3 L159.3 54.3 L159.2 54.3 L159.1 54.4 L159.0 54.5 L159.0 55.0 L158.9 55.2 L158.7 55.5 L158.3 55.9 L158.3 55.8 L158.2 55.7 L158.1 55.5 L158.0 55.4 L158.2 55.0 L158.2 54.8 L158.2 54.7 L158.0 54.6 L157.8 54.7 L157.7 54.8 L157.7 54.9 L157.5 55.2 L157.5 55.3 L157.9 55.4 L157.8 55.5 L157.7 55.6 L157.6 55.7 L157.6 55.8 L157.7 55.8 L157.8 55.9 L158.0 55.9 L157.8 56.1 L157.6 56.3 L157.2 56.3 L157.0 56.1 L156.8 55.9 L156.4 55.7 L156.2 55.5 L156.0 55.5 L155.6 55.8 L155.6 55.9 L155.8 55.9 L155.4 56.9 L155.3 57.5 L155.4 58.1 L155.6 58.6 L155.7 58.9 L155.9 59.0 L155.9 59.1 L155.8 60.2 L155.9 60.9 L156.3 62.4 L156.4 62.7 L156.4 62.9 L156.5 62.9 L156.7 63.1 L156.7 63.2 L156.8 63.5 L156.9 63.8 L157.1 64.4 L157.5 64.8 L157.9 65.2 L158.5 65.7 L158.8 66.1 L159.3 66.4 L159.8 66.7 L160.2 66.9 L161.1 67.7 L161.5 68.0 L162.0 68.3 L162.2 68.4 L162.9 68.6 L162.9 68.6 L163.6 68.6 L163.9 68.8 L164.5 69.1 L165.5 69.4 L165.7 69.6 L165.8 69.7 L170.4 72.6 L172.1 73.4 L172.4 73.5 L172.6 73.6 L173.3 73.8 L173.7 73.9 L173.8 73.9 L173.9 73.8 L174.0 73.7 L174.0 73.7 L174.1 73.7 L174.1 73.6 L174.2 73.6 L174.3 73.7 L174.3 73.7 L174.4 73.8 L174.4 73.8 L174.7 73.9 L174.9 74.2 L175.1 74.4 L175.2 74.5 L175.5 74.6 L175.8 74.7 L175.9 74.9 L175.8 75.2 L178.0 79.2 L178.2 79.5 L178.2 79.6 L178.3 80.1 L178.4 80.2 L178.6 80.4 L179.1 81.2 L179.3 81.7 L179.5 83.0 L180.1 84.6 L180.7 86.1 L181.2 87.1 L181.6 87.6 L182.5 88.7 L182.6 88.9 L182.7 89.1 L184.8 91.0 L185.8 91.7 L186.9 92.2 L187.3 92.5 L188.0 93.2 L189.9 94.7 L190.4 94.9 L191.3 95.2 L191.9 95.3 L192.1 95.4 L192.3 95.7 L192.3 96.3 L192.4 96.6 L192.6 96.8 L192.9 96.9 L193.0 96.9 L193.2 96.9 L193.5 97.1 L194.0 97.4 L194.6 97.6 L195.8 97.7 L196.4 97.9 L196.6 98.0 L197.0 98.4 L197.2 98.5 L197.4 98.6 L198.1 98.9 L198.3 99.0 L198.6 99.1 L199.0 99.1 L200.7 99.1 L202.5 99.4 L203.2 99.4 L205.6 99.1 L208.1 99.2 L211.9 98.9 L213.1 99.1 L213.1 99.2 L213.6 99.3 L213.9 99.7 L214.1 99.7 L214.1 99.9 L214.2 100.2 L214.3 100.7 L214.3 100.9 L214.3 101.2 L214.2 101.4 L213.9 101.6 L213.6 101.8 L213.4 101.9 L213.1 102.0 L212.8 102.2 L212.4 102.5 L211.9 102.8 L210.3 103.4 L210.0 103.8 L209.8 104.4 L209.9 105.0 L210.1 105.5 L210.5 105.8 L210.9 106.1 L211.8 106.6 L212.7 106.8 L212.9 107.0 L213.2 107.1 L216.0 108.1 L218.3 109.1 L219.2 109.3 L219.5 109.4 L219.7 109.6 L220.3 109.9 L223.9 110.8 L224.2 111.0 L224.3 111.0 L224.3 110.9 L224.4 110.9 L224.7 111.2 L227.3 111.8 L229.4 112.7 L230.5 113.3 L231.0 113.7 L231.6 114.3 L231.8 114.4 L232.1 114.5 L232.6 114.8 L233.5 115.6 L233.8 115.6 L234.1 115.7 L234.6 116.0 L235.9 116.2 L236.1 116.3 L237.6 116.8 L239.0 117.6 L240.2 117.8 L240.7 117.9 L240.7 118.3 L240.9 118.3 L241.2 118.2 L241.5 118.2 L241.5 118.3 L241.5 118.5 L241.6 118.6 L241.9 118.9 L242.0 119.0 L241.9 119.6 L243.2 120.4 L244.5 121.0 L244.8 121.1 L244.9 121.1 L245.2 121.5 L245.4 121.7 L245.9 122.0 L246.3 122.5 L246.5 122.7 L246.8 122.8 L246.9 122.9 L247.9 124.0 L248.8 125.7 L248.9 125.8 L249.0 125.8 L249.1 125.9 L249.0 126.1 L249.0 126.2 L249.1 126.3 L249.1 126.4 L249.0 126.6 L248.7 126.7 L248.6 127.1 L248.4 127.3 L247.9 127.6 L247.5 128.3 L247.5 128.4 L247.4 128.8 L247.3 129.1 L247.2 129.2 L247.3 129.6 L247.3 129.8 L247.1 130.6 L247.2 130.7 L247.1 130.8 L247.0 131.0 L246.9 131.0 L246.5 131.0 L246.4 131.0 L246.3 130.9 L245.6 130.5 L245.3 130.4 L244.7 130.4 L244.5 130.4 L244.2 130.2 L243.8 130.1 L243.3 129.7 L242.8 129.4 L242.6 129.4 L242.4 129.3 L241.5 128.2 L241.3 128.0 L241.3 127.9 L241.5 127.9 L241.7 127.8 L241.7 127.6 L241.6 127.4 L241.4 127.3 L241.0 127.2 L240.9 127.1 L241.4 126.9 L241.5 126.5 L241.3 126.2 L240.9 125.8 L240.5 125.5 L240.3 125.3 L240.2 125.1 L240.2 124.8 L240.1 124.6 L240.0 124.4 L239.9 124.2 L240.1 124.2 L240.1 124.2 L239.3 123.7 L239.1 123.6 L234.1 123.4 L233.8 123.4 L233.0 123.0 L232.8 123.0 L232.5 123.0 L232.4 123.0 L232.3 123.0 L232.0 122.8 L231.9 122.7 L231.7 122.7 L230.8 122.3 L230.0 122.1 L229.6 121.9 L229.4 121.7 L229.7 121.6 L230.0 121.4 L230.1 121.1 L229.8 120.9 L230.1 120.8 L230.8 120.9 L231.1 120.8 L231.2 120.5 L231.0 120.5 L230.3 120.7 L230.3 120.6 L230.4 120.5 L230.1 120.4 L229.8 120.5 L229.6 120.7 L229.2 120.8 L229.1 120.7 L229.0 120.6 L229.0 120.5 L228.9 120.4 L228.7 120.3 L228.4 120.3 L228.3 120.3 L227.1 120.2 L226.0 120.6 L225.1 121.3 L224.4 122.1 L223.2 123.5 L222.8 123.9 L222.5 124.8 L222.4 125.0 L222.2 125.1 L221.6 125.8 L221.0 126.2 L220.8 126.4 L220.5 126.7 L220.4 127.3 L220.4 127.5 L220.6 128.0 L220.9 128.5 L220.7 128.7 L220.5 128.8 L220.3 129.2 L219.6 129.7 L219.0 130.4 L218.8 130.9 L218.8 131.3 L219.0 131.8 L219.4 132.1 L219.4 132.2 L219.2 132.6 L219.6 133.0 L220.3 133.4 L220.8 133.6 L222.7 133.7 L223.2 133.8 L223.4 133.9 L223.7 134.1 L223.9 134.3 L224.0 134.5 L224.1 134.7 L225.0 135.0 L225.7 135.5 L226.0 135.5 L226.3 135.6 L226.6 135.7 L226.8 135.8 L226.9 136.0 L227.3 136.3 L227.7 136.6 L228.3 136.8 L228.8 136.9 L228.2 137.9 L228.1 138.7 L228.1 138.9 L228.2 139.1 L228.3 139.3 L228.5 139.6 L228.6 139.8 L228.5 140.3 L228.2 141.1 L228.3 141.6 L228.6 142.1 L228.7 142.2 L228.8 142.3 L229.3 142.5 L229.5 142.5 L229.2 142.6 L229.0 142.7 L229.0 142.8 L229.0 143.4 L229.0 143.5 L228.5 143.9 L228.4 143.9 L228.3 144.0 L228.2 144.1 L228.0 144.4 L227.8 144.1 L227.5 144.1 L227.0 144.2 L226.7 144.3 L226.4 144.0 L226.1 143.9 L225.8 143.8 L225.4 143.8 L224.0 144.1 L222.3 144.7 L221.7 145.1 L221.6 145.2 L221.5 145.3 L220.6 145.7 L220.2 145.9 L220.0 146.1 L219.9 146.6 L219.7 146.8 L219.5 147.1 L219.4 147.4 L219.6 147.5 L219.7 147.6 L219.7 147.8 L219.8 149.0 L220.1 150.0 L220.1 150.4 L220.0 151.5 L219.8 151.7 L219.3 152.1 L219.0 152.3 L218.9 152.4 L218.4 152.7 L218.0 152.8 L216.5 153.4 L216.0 153.7 L214.0 155.7 L213.7 156.2 L213.3 157.8 L213.1 158.3 L213.0 158.5 L212.8 158.6 L212.6 158.8 L212.4 158.9 L211.7 159.0 L211.5 159.1 L210.6 158.9 L207.9 159.0 L207.5 158.9 L207.1 158.8 L206.7 158.6 L206.5 158.4 L206.1 158.1 L206.0 157.7 L206.0 157.5 L206.3 157.2 L206.0 156.8 L205.8 156.5 L205.9 156.3 L206.1 156.0 L206.2 155.7 L206.2 155.5 L206.0 155.1 L206.0 154.6 L206.2 154.3 L206.7 154.1 L208.3 153.7 L208.4 153.6 L208.4 153.5 L208.6 153.4 L208.7 153.3 L208.9 152.6 L210.0 150.8 L210.2 150.2 L210.2 149.7 L210.0 149.2 L209.5 148.8 L209.4 148.8 L209.2 148.7 L209.1 148.6 L209.0 148.5 L209.0 148.4 L209.0 148.3 L209.0 148.2 L209.1 148.0 L209.4 147.9 L210.0 147.7 L211.0 147.2 L211.5 147.0 L212.2 147.0 L213.3 147.1 L213.5 147.1 L213.7 147.0 L214.1 146.7 L214.5 146.3 L214.7 145.7 L214.8 145.1 L214.7 144.4 L214.7 144.1 L214.5 143.9 L214.3 143.8 L214.0 143.7 L213.8 143.6 L213.5 143.3 L212.7 141.8 L212.1 138.3 L212.0 137.8 L211.4 136.4 L210.8 135.8 L210.4 135.2 L210.0 134.9 L209.6 134.7 L209.5 134.5 L209.4 134.1 L209.2 133.7 L209.0 133.2 L208.7 132.8 L208.6 132.5 L208.3 131.0 L208.3 131.1 L208.2 130.8 L208.1 130.7 L208.0 130.6 L208.0 130.5 L208.2 129.9 L208.1 129.6 L207.6 129.0 L207.5 128.8 L207.4 128.5 L207.2 128.3 L206.6 127.8 L206.2 127.3 L205.9 127.1 L205.8 127.0 L205.8 126.8 L205.6 126.9 L204.5 126.8 L204.2 127.0 L203.9 127.3 L203.4 127.5 L202.9 128.0 L202.6 128.1 L201.9 128.0 L201.6 127.9 L201.2 127.5 L201.0 127.4 L200.9 127.5 L200.7 127.5 L200.6 127.5 L200.4 127.5 L200.4 127.4 L200.7 127.3 L200.4 126.9 L200.0 126.5 L199.6 126.3 L199.3 126.2 L198.4 125.4 L198.2 125.4 L197.9 125.4 L197.5 125.5 L197.2 125.4 L197.0 125.3 L196.8 125.0 L196.5 124.8 L196.1 124.7 L196.0 124.6 L195.9 124.5 L195.6 124.6 L195.3 124.4 L195.2 124.4 L195.1 124.1 L195.5 123.7 L195.6 123.4 L195.5 123.1 L195.5 123.0 L195.6 122.9 L195.8 122.9 L196.0 122.8 L196.1 122.7 L196.4 122.6 L196.5 122.5 L196.5 122.0 L196.1 121.5 L194.8 119.4 L194.4 118.9 L194.0 118.5 L193.6 118.2 L193.2 118.0 L192.8 117.8 L192.3 118.0 L191.9 118.3 L191.7 118.3 L190.9 118.3 L190.7 118.3 L190.1 118.7 L189.7 118.8 L189.3 118.7 L188.8 118.5 L188.6 118.6 L187.8 118.8 L187.5 119.0 L186.9 119.2 L186.7 119.4 L186.5 119.2 L186.4 118.9 L186.6 118.6 L186.9 118.5 L187.2 118.5 L187.3 118.4 L187.5 118.3 L187.6 118.2 L188.2 117.7 L188.7 117.6 L188.7 117.3 L188.6 117.1 L188.4 116.8 L188.2 116.7 L187.8 116.7 L187.6 116.6 L187.4 116.6 L187.3 116.4 L187.0 116.3 L186.8 116.1 L186.2 115.6 L185.9 115.4 L185.7 115.4 L185.3 115.4 L184.9 115.5 L184.7 115.7 L184.6 116.0 L184.3 116.0 L184.0 115.8 L183.6 115.7 L183.2 115.6 L183.0 115.5 L182.8 115.5 L182.7 115.7 L182.7 115.8 L182.8 116.0 L182.8 116.3 L182.7 116.2 L182.2 116.2 L182.2 116.1 L182.3 115.4 L182.2 114.9 L181.9 114.2 L181.0 113.1 L180.5 112.8 L180.3 112.7 L180.3 112.5 L180.2 112.2 L180.2 112.0 L179.8 111.4 L179.3 110.8 L178.4 109.9 L177.4 109.2 L177.2 109.2 L176.7 109.3 L176.5 109.3 L176.4 109.1 L175.5 109.2 L175.0 109.5 L175.2 109.9 L174.7 109.9 L174.6 109.9 L174.4 109.8 L174.4 109.6 L174.3 109.6 L174.2 109.7 L174.1 109.7 L173.8 109.4 L171.4 108.6 L170.9 108.6 L169.6 108.8 L169.4 108.9 L168.8 109.1 L168.3 109.3 L167.9 109.6 L167.6 109.7 L167.2 109.6 L167.1 109.4 L167.1 109.2 L166.9 108.9 L166.8 108.7 L166.5 108.3 L166.3 108.1 L165.4 107.3 L165.0 107.0 L164.5 106.8 L164.2 106.8 L163.0 106.7 L162.8 106.7 L161.8 106.2 L161.4 106.0 L161.2 106.2 L161.1 106.3 L160.9 106.1 L159.8 104.9 L158.3 103.6 L156.8 102.5 L156.5 102.4 L156.1 102.3 L155.9 102.1 L155.8 102.1 L155.3 102.0 L155.2 102.0 L155.0 101.8 L154.8 101.5 L154.8 101.2 L154.8 100.9 L154.7 100.6 L154.5 100.3 L154.2 99.9 L153.8 99.5 L152.4 98.7 L152.2 98.6 L152.1 98.5 L152.0 98.3 L151.9 98.2 L151.5 98.1 L151.4 98.1 L151.2 97.9 L150.9 97.7 L150.6 97.6 L150.4 97.5 L149.2 97.5 L149.0 97.5 L149.0 97.4 L148.8 97.1 L148.5 96.8 L148.3 96.7 L148.2 96.5 L147.9 96.1 L147.8 96.0 L147.8 95.8 L147.7 95.5 L146.9 94.3 L146.5 93.9 L144.7 92.8 L144.0 92.7 L143.0 92.3 L142.6 92.2 L142.6 92.1 L142.5 92.0 L142.3 92.0 L142.1 92.0 L142.0 92.0 L142.1 92.1 L141.6 92.1 L140.5 91.8 L140.3 91.7 L140.1 91.7 L139.8 91.8 L139.7 91.9 L139.7 92.1 L139.5 92.4 L139.4 92.6 L139.3 92.5 L139.1 92.5 L139.0 92.6 L139.0 92.6 L138.9 92.5 L138.7 92.3 L138.3 92.2 L138.1 92.0 L138.0 91.8 L138.0 91.6 L138.1 91.4 L138.4 91.4 L138.8 91.5 L139.1 91.5 L139.4 91.2 L139.5 90.9 L139.5 90.5 L139.5 90.3 L139.1 89.9 L139.0 89.6 L138.9 89.6 L138.7 89.7 L138.6 89.7 L138.4 89.5 L138.3 89.2 L138.1 89.0 L137.9 88.9 L137.8 88.6 L137.5 88.4 L136.8 88.1 L136.7 87.9 L136.6 87.6 L136.5 87.4 L136.4 87.3 L136.3 87.3 L135.8 86.9 L135.0 86.6 L132.6 86.0 L133.0 85.8 L133.2 85.6 L133.2 85.3 L133.2 84.9 L133.2 84.8 L133.3 84.8 L133.3 84.7 L133.3 84.5 L133.1 84.3 L132.9 84.2 L131.9 83.9 L131.2 83.7 L130.4 83.7 L129.8 83.9 L129.8 84.0 L129.9 84.1 L129.5 84.2 L129.2 84.0 L128.9 83.2 L129.2 83.0 L129.4 82.7 L129.8 81.9 L129.7 81.7 L129.7 81.4 L129.8 81.1 L129.9 80.9 L129.8 80.6 L129.7 80.3 L129.7 79.7 L129.6 79.4 L129.4 79.1 L128.2 77.3 L127.3 76.3 L127.1 76.1 L126.6 76.0 L126.5 75.7 L126.1 74.6 L125.7 71.0 L125.5 70.4 L124.9 69.3 L124.4 68.8 L123.8 68.5 L123.3 67.9 L123.1 67.8 L122.8 67.7 L122.2 67.4 L121.9 67.4 L121.7 67.3 L121.5 67.3 L121.5 67.3 L121.4 67.4 L121.3 67.5 L121.2 67.5 L121.0 67.4 L120.8 67.2 L120.3 66.9 L120.0 66.8 L119.9 66.8 L119.4 66.5 L119.1 66.5 L119.2 66.7 L119.1 66.7 L119.1 66.7 L119.0 66.8 L119.1 66.9 L119.2 67.0 L119.3 67.0 L119.4 67.1 L119.4 67.2 L119.3 67.2 L119.3 67.2 L119.2 67.4 L119.4 67.5 L119.4 67.5 L119.2 67.5 L119.1 67.3 L119.0 67.2 L118.3 67.0 L117.5 66.4 L117.4 66.4 L117.0 66.1 L116.8 66.0 L116.4 66.0 L116.2 66.0 L116.0 65.9 L115.5 65.5 L115.4 65.5 L115.3 65.3 L115.1 65.2 L114.4 64.9 L114.2 64.8 L114.1 64.7 L114.0 64.5 L113.8 64.6 L113.5 64.6 L113.3 64.6 L113.2 64.4 L113.1 64.3 L112.4 64.1 L112.3 63.7 L110.7 63.1 L110.2 62.9 L110.1 63.0 L110.0 63.2 L109.9 63.3 L109.9 63.6 L109.2 63.4 L108.9 63.2 L109.0 63.1 L108.7 62.7 L108.3 62.6 L106.8 62.4 L106.0 62.2 L105.6 62.0 L105.5 62.0 L104.8 62.0 L104.4 62.0 L104.3 61.9 L104.2 61.7 L103.2 61.7 L102.8 61.7 L102.6 61.8 L102.2 62.1 L102.0 62.2 L101.9 62.2 L101.8 62.2 L101.7 62.2 L101.6 62.2 L100.7 62.7 L100.4 62.8 L100.2 62.8 L99.9 63.1 L98.8 63.6 L98.4 63.9 L98.5 64.2 L98.4 64.4 L98.3 64.4 L98.3 64.5 L98.3 64.6 L98.0 64.7 L98.0 64.7 L97.9 64.9 L97.9 65.1 L97.9 65.2 L97.7 65.4 L97.3 65.5 L96.5 65.7 L96.1 65.9 L95.8 66.1 L95.6 66.2 L95.3 66.6 L95.2 66.7 L95.3 66.9 L95.2 67.1 L95.1 67.3 L95.0 67.5 L94.3 68.0 L94.1 68.4 L94.3 68.7 L94.3 68.8 L94.0 68.9 L93.5 69.2 L93.1 69.3 L93.0 69.4 L92.9 69.5 L92.9 69.6 L92.8 69.7 L92.6 69.8 L92.3 69.8 L91.2 70.3 L88.6 70.8 L87.9 71.2 L87.2 71.3 L85.4 71.3 L85.0 71.4 L84.8 71.4 L84.7 71.3 L84.5 71.3 L84.4 71.3 L84.1 70.5 L84.0 70.2 L84.2 69.8 L84.9 69.3 L85.2 69.0 L85.9 68.5 L86.3 68.2 L86.4 68.1 L86.5 67.7 L86.6 67.6 L86.8 67.4 L87.0 67.3 L87.2 67.1 L87.2 66.9 L87.1 66.8 L87.0 66.5 L86.6 66.3 L86.4 66.0 L86.6 65.5 L86.2 65.5 L85.6 65.7 L85.1 65.8 L82.5 66.3 L81.9 66.3 L81.8 66.3 L81.7 66.2 L81.6 66.0 L81.5 65.9 L81.3 65.9 L80.9 65.8 L80.6 65.8 L79.0 65.0 L78.4 64.9 L77.5 64.5 L77.3 64.5 L77.1 64.5 L77.0 64.6 L76.8 64.6 L76.6 64.5 L76.4 64.4 L76.4 64.3 L76.3 64.1 L76.2 64.0 L76.1 63.9 L75.8 63.7 L75.7 63.6 L75.6 63.5 L75.4 63.2 L75.3 63.1 L75.0 62.8 L74.9 62.7 L74.8 62.6 L74.8 62.5 L74.9 62.4 L75.0 61.9 L75.1 61.8 L75.6 61.6 L75.2 61.4 L74.8 61.0 L74.4 60.6 L74.4 60.2 L74.5 60.0 L75.3 59.5 L75.8 58.9 L76.0 58.8 L75.9 58.5 L76.0 58.2 L76.2 57.9 L76.6 57.8 L76.9 57.8 L77.4 57.9 L77.7 57.9 L77.6 57.7 L77.1 57.1 L77.1 57.0 L77.0 56.6 L76.8 56.3 L76.8 56.3 L76.9 56.0 L76.9 56.0 L76.9 55.9 L76.9 55.9 L76.9 55.8 L76.9 55.8 L76.9 55.7 L76.6 55.5 L75.8 55.3 L75.6 55.2 L74.8 55.3 L74.6 55.3 L73.5 54.9 L73.0 54.6 L72.8 54.3 L72.8 53.4 L72.7 53.0 L72.3 52.8 L71.8 52.8 L71.6 52.7 L71.5 52.4 L71.4 52.3 L71.4 52.2 L71.4 52.1 L71.2 51.9 L70.9 51.6 L71.1 51.5 L71.3 51.3 L71.3 51.3 L71.9 51.1 L72.0 51.1 L72.3 51.1 L72.4 51.1 L72.5 51.0 L72.8 50.9 L72.9 50.8 L73.4 50.9 L74.0 51.1 L74.5 51.2 L75.0 51.1 L75.0 51.0 L74.9 50.9 L74.9 50.8 L74.9 50.7 L75.1 50.7 L75.4 50.7 L75.6 50.6 L75.8 50.5 L76.0 50.2 L76.2 50.0 L76.8 49.9 L77.3 49.8 L77.4 49.8 L77.6 50.0 L77.7 50.0 L77.8 49.9 L78.1 49.6 L78.5 49.3 L78.5 49.1 L78.3 48.8 L78.2 48.3 L78.3 48.3 L78.8 47.8 L79.1 47.5 L79.2 47.2 L79.2 47.0 L79.1 47.0 L78.5 46.8 L78.3 46.7 L78.2 46.5 L78.1 46.3 L78.0 46.2 L77.9 46.2 L77.3 45.8 L76.6 45.5 L76.5 45.3 L76.4 44.7 L76.3 44.6 L76.2 44.4 L76.1 44.3 L76.2 44.2 L76.3 43.9 L76.4 43.8 L76.3 43.6 L76.1 43.5 L75.6 43.4 L75.4 43.3 L75.1 43.1 L74.9 43.0 L74.5 43.0 L74.1 42.8 L73.8 42.4 L73.6 41.8 L73.6 41.6 L73.6 41.3 L73.7 41.0 L73.9 40.8 L74.1 40.7 L74.5 40.6 L74.6 40.7 L74.7 40.7 L74.8 40.8 L74.9 40.8 L74.9 40.7 L74.9 40.6 L74.9 40.6 L75.1 40.5 L75.4 40.5 L75.7 40.5 L76.1 40.4 L76.4 40.2 L76.6 39.9 L76.7 39.7 L76.8 39.6 L77.0 39.4 L77.2 39.3 Z M158.0 69.8 L158.5 69.7 L158.8 69.4 L158.8 69.3 L158.8 69.3 L158.8 69.3 L158.8 69.2 L158.8 69.2 L159.0 69.1 L159.0 68.8 L158.9 68.5 L158.8 68.4 L158.4 68.5 L157.9 68.6 L157.8 68.7 L157.5 68.9 L157.4 69.3 L157.6 69.6 L158.0 69.8 Z M158.4 99.5 L158.4 99.5 L158.4 99.5 L158.4 99.5 L158.4 99.5 L158.4 99.5 L158.4 99.5 Z M204.4 153.4 L204.9 153.4 L205.7 153.7 L206.2 153.8 L206.2 153.9 L206.1 154.0 L206.0 154.0 L205.8 154.0 L205.2 154.3 L205.0 154.5 L204.9 154.7 L204.9 154.9 L205.1 154.9 L204.4 155.8 L204.0 156.6 L202.4 158.2 L201.0 159.9 L200.7 160.4 L200.5 160.7 L200.1 160.9 L199.7 161.5 L199.6 161.7 L199.6 161.8 L199.8 162.1 L199.8 162.3 L199.7 162.4 L199.5 162.6 L199.5 162.7 L199.4 163.0 L199.3 163.5 L199.2 163.8 L198.9 164.3 L198.2 165.0 L197.9 165.4 L197.9 165.7 L197.8 166.0 L197.9 167.4 L197.9 167.7 L198.0 167.9 L198.1 168.0 L199.2 168.5 L199.7 168.6 L200.0 168.7 L200.3 169.0 L200.4 169.3 L200.2 169.2 L200.0 169.2 L199.9 169.4 L199.8 169.5 L199.8 169.3 L199.7 169.2 L199.6 169.2 L199.4 169.2 L199.5 169.4 L199.2 169.7 L199.4 170.2 L199.7 170.5 L200.0 170.4 L200.2 170.5 L200.2 170.6 L199.9 170.6 L200.0 170.8 L200.2 171.1 L200.5 171.2 L200.8 171.2 L201.0 171.3 L201.1 171.5 L201.0 171.9 L200.8 171.8 L200.7 171.9 L200.7 172.1 L200.9 172.2 L201.2 172.2 L201.3 172.2 L201.4 172.4 L201.5 172.7 L201.3 172.7 L201.2 172.7 L201.1 172.6 L201.0 172.6 L200.5 172.8 L200.6 172.9 L200.5 173.0 L200.4 173.0 L200.5 173.1 L200.5 173.2 L200.1 173.3 L199.9 173.4 L199.7 173.5 L199.4 173.5 L199.1 173.7 L198.9 174.0 L198.1 175.5 L198.1 175.7 L197.9 175.8 L198.0 176.1 L198.2 176.6 L198.5 177.5 L198.5 177.7 L198.2 177.9 L197.9 178.0 L197.6 177.9 L197.3 177.8 L197.1 177.5 L197.0 177.4 L196.8 177.3 L196.6 177.3 L196.5 177.3 L196.4 177.4 L196.2 177.5 L195.9 177.4 L195.3 177.0 L194.7 176.9 L194.2 176.9 L193.2 177.3 L193.1 177.2 L193.1 177.2 L192.9 177.2 L192.7 177.0 L191.8 176.9 L191.6 176.7 L191.4 176.5 L190.5 176.2 L190.2 176.1 L190.0 176.2 L188.8 175.9 L188.7 175.8 L187.4 173.7 L187.1 173.2 L185.7 172.2 L184.7 171.6 L183.4 171.2 L182.9 171.1 L181.2 171.2 L181.0 171.2 L180.8 171.4 L180.6 171.4 L180.0 171.3 L179.0 170.8 L178.5 170.6 L177.8 170.5 L177.3 170.3 L176.8 170.0 L175.5 169.0 L175.1 168.7 L174.6 168.6 L173.9 168.5 L173.3 168.4 L172.9 168.1 L172.1 167.7 L171.5 167.4 L171.2 167.1 L171.1 167.1 L170.9 167.0 L170.7 167.0 L170.4 166.4 L170.3 166.3 L170.0 166.2 L169.8 166.0 L169.7 165.9 L169.5 165.9 L169.4 165.8 L169.3 165.6 L169.2 165.6 L167.4 165.4 L167.1 165.4 L167.0 165.5 L166.8 165.4 L166.7 165.3 L166.6 165.0 L166.6 164.8 L166.2 164.5 L165.7 164.3 L164.5 164.2 L163.3 164.3 L162.1 164.4 L161.5 164.4 L161.1 164.1 L160.5 163.3 L160.3 163.1 L160.1 163.0 L159.5 163.0 L159.2 162.9 L158.9 162.6 L158.7 162.3 L158.6 162.1 L158.5 161.9 L158.5 161.7 L158.4 161.5 L158.3 161.3 L158.1 161.1 L158.0 160.9 L158.0 160.7 L158.3 160.6 L158.3 160.7 L158.5 160.6 L158.6 160.5 L158.5 160.5 L158.7 160.1 L158.7 160.1 L158.8 159.8 L158.8 159.7 L158.8 159.6 L158.6 159.4 L158.6 159.3 L158.6 159.2 L158.6 159.2 L158.6 159.1 L159.0 158.6 L159.1 158.2 L159.1 157.9 L159.2 157.7 L159.0 157.6 L159.5 157.4 L159.8 157.1 L160.2 156.8 L160.7 156.9 L161.2 156.7 L161.4 156.5 L161.4 156.3 L161.5 156.1 L161.7 156.1 L162.0 156.2 L162.2 156.2 L162.5 156.0 L162.5 155.6 L162.4 155.3 L162.6 155.0 L162.7 155.2 L162.8 155.2 L163.0 155.2 L163.1 155.4 L163.5 156.1 L163.9 156.7 L164.0 156.8 L164.4 157.0 L164.6 157.1 L164.6 157.2 L165.1 157.5 L165.7 157.4 L167.0 156.9 L167.5 156.6 L167.6 156.5 L167.6 156.5 L167.6 156.4 L167.6 156.2 L167.6 156.0 L167.4 155.9 L167.4 155.8 L167.9 155.4 L167.8 155.3 L167.9 155.1 L168.1 155.0 L168.3 155.0 L168.4 155.0 L168.9 155.2 L169.3 155.2 L169.7 155.2 L170.0 155.1 L170.2 154.8 L170.4 154.9 L170.6 154.8 L170.7 154.7 L171.0 154.7 L171.2 154.6 L171.3 154.6 L171.4 154.6 L171.4 154.7 L171.5 154.8 L171.5 154.9 L172.1 155.2 L172.1 155.3 L172.2 155.8 L172.2 155.9 L172.4 156.3 L174.3 156.2 L174.7 156.5 L174.6 156.7 L174.7 156.9 L174.8 157.0 L174.9 157.1 L175.4 157.3 L175.9 157.7 L176.3 157.9 L177.0 158.0 L177.2 158.1 L177.2 158.1 L177.2 158.1 L177.1 158.2 L177.4 158.2 L178.4 158.3 L178.7 158.2 L179.4 157.9 L180.0 157.8 L180.2 157.7 L180.4 157.6 L180.6 157.5 L181.6 157.3 L181.8 157.1 L182.5 157.4 L182.8 157.5 L183.1 157.6 L183.3 157.5 L183.8 157.5 L185.6 157.7 L186.5 157.6 L187.3 157.4 L188.0 157.1 L188.5 157.3 L189.2 157.2 L191.0 156.7 L191.5 156.4 L191.9 156.1 L192.5 155.5 L192.7 155.5 L193.2 155.5 L193.5 155.5 L194.6 155.3 L194.8 155.2 L195.0 155.1 L195.1 155.1 L195.5 155.1 L195.7 155.2 L195.9 155.4 L196.0 155.5 L196.2 155.5 L196.6 155.6 L197.1 155.6 L197.2 155.6 L197.3 155.7 L197.4 155.9 L197.5 155.9 L197.8 156.0 L198.1 155.9 L198.3 155.8 L199.1 155.5 L199.5 155.1 L200.1 154.3 L200.0 154.2 L200.0 154.1 L200.0 154.1 L200.1 154.0 L200.0 153.9 L200.1 153.9 L200.2 154.1 L200.1 154.4 L200.2 154.6 L200.3 154.7 L200.6 154.8 L200.9 154.8 L201.3 154.7 L202.5 154.4 L202.8 154.2 L203.0 154.1 L203.6 153.9 L204.2 153.4 L204.4 153.4 Z M118.6 119.6 L119.0 119.9 L119.1 120.0 L119.1 120.2 L118.9 120.5 L118.9 120.6 L118.9 120.9 L118.7 121.2 L118.4 121.6 L118.1 122.1 L118.0 122.3 L117.6 122.4 L117.4 122.5 L117.2 122.7 L117.0 123.1 L116.8 123.3 L116.4 123.5 L116.2 123.7 L116.1 124.0 L116.1 124.3 L116.2 124.9 L116.2 125.0 L116.5 125.8 L116.7 126.0 L116.9 126.1 L117.0 126.2 L117.4 126.5 L117.7 126.7 L117.7 126.9 L117.1 128.1 L117.0 128.6 L117.2 129.0 L117.3 128.9 L117.4 128.9 L117.5 128.9 L117.5 129.0 L117.4 129.1 L117.3 129.1 L117.2 129.1 L117.2 129.2 L117.1 129.4 L117.0 129.6 L117.0 129.7 L117.1 129.9 L117.0 129.9 L117.0 130.0 L117.0 130.0 L117.1 130.1 L117.2 130.1 L117.2 130.2 L117.0 130.4 L116.9 130.7 L116.8 131.1 L116.8 131.4 L116.8 131.6 L116.9 132.0 L116.9 132.2 L116.8 132.3 L116.7 132.6 L116.7 132.8 L116.6 132.9 L116.6 133.0 L116.5 133.2 L116.5 133.4 L116.6 134.0 L116.5 134.4 L116.2 135.4 L116.4 135.7 L116.3 136.2 L115.9 137.0 L115.8 137.6 L115.7 137.8 L115.8 138.0 L115.9 138.2 L116.2 138.4 L116.2 138.5 L115.8 138.6 L115.5 138.9 L115.2 139.4 L115.3 139.7 L115.2 139.9 L115.3 139.9 L115.4 140.0 L115.4 140.1 L115.4 140.2 L115.3 140.5 L115.2 140.7 L115.1 140.8 L114.8 140.9 L114.6 141.1 L114.5 141.4 L114.4 141.3 L114.3 141.3 L114.3 141.2 L114.4 141.1 L114.2 140.9 L113.9 140.9 L113.7 141.0 L113.5 141.1 L113.4 141.1 L113.3 140.9 L113.2 140.9 L112.9 140.7 L112.5 140.4 L112.4 140.3 L112.3 140.3 L111.9 140.0 L111.8 139.9 L111.6 139.9 L111.4 139.8 L111.2 139.7 L111.1 139.6 L111.0 139.7 L110.8 139.6 L110.5 139.6 L110.0 139.5 L109.7 139.6 L109.5 139.8 L109.3 140.0 L109.2 140.1 L108.8 140.0 L108.5 139.8 L107.8 139.2 L107.7 139.3 L107.6 139.2 L107.5 139.1 L107.3 139.0 L107.1 139.0 L107.0 139.0 L106.9 139.0 L107.1 139.1 L107.1 139.2 L107.1 139.3 L107.2 139.4 L107.3 139.5 L107.3 139.5 L107.3 139.5 L107.5 139.6 L107.9 139.5 L107.9 139.6 L107.9 139.7 L107.9 139.8 L107.3 140.2 L107.1 140.5 L107.0 140.7 L107.0 141.1 L107.0 141.4 L107.1 141.6 L107.2 141.9 L107.3 142.0 L107.4 142.1 L107.4 142.2 L107.2 142.5 L107.0 143.0 L107.1 143.0 L107.0 143.1 L106.9 143.1 L106.8 143.0 L106.7 143.2 L105.2 144.4 L105.1 144.4 L104.9 144.4 L104.8 144.5 L104.7 144.7 L104.6 144.8 L104.4 144.7 L104.2 144.6 L103.8 144.3 L103.8 144.6 L103.6 144.4 L103.3 144.1 L102.9 144.0 L102.5 143.9 L102.2 144.0 L101.8 144.3 L101.5 144.5 L101.6 144.9 L101.4 145.0 L101.3 144.9 L101.4 144.6 L101.3 144.5 L101.0 144.5 L100.8 144.4 L100.8 144.3 L101.0 144.1 L101.0 143.7 L100.8 143.5 L100.5 143.5 L100.4 142.7 L100.2 142.1 L100.1 142.1 L99.9 142.2 L99.6 142.0 L99.3 142.0 L99.4 141.9 L99.5 141.7 L99.3 141.6 L99.0 141.7 L99.0 141.7 L98.9 141.6 L98.9 141.3 L98.8 141.1 L98.6 141.1 L98.4 141.2 L98.3 141.0 L98.4 140.6 L98.3 140.4 L98.2 140.3 L98.1 140.3 L98.0 140.3 L98.0 140.4 L97.9 140.4 L97.9 140.3 L97.8 140.2 L97.8 140.1 L97.8 139.9 L97.7 139.9 L97.6 139.9 L97.5 139.8 L97.4 139.6 L97.4 139.5 L97.4 139.4 L98.2 138.7 L98.3 138.4 L98.0 138.1 L98.0 137.9 L97.5 137.5 L97.4 137.3 L97.5 137.1 L97.7 136.9 L97.8 136.8 L97.9 136.5 L97.8 136.4 L97.6 136.0 L97.6 136.0 L97.6 135.9 L97.7 135.7 L98.1 135.3 L98.3 135.1 L98.6 134.6 L98.7 134.3 L98.6 134.2 L98.7 134.0 L98.7 133.7 L98.5 133.1 L98.5 132.4 L98.4 132.2 L98.4 132.1 L98.5 132.0 L98.4 131.6 L98.5 131.5 L98.7 131.6 L98.8 131.6 L99.3 132.2 L99.5 132.4 L99.8 132.5 L100.3 132.4 L99.5 132.3 L99.3 132.1 L99.4 131.9 L99.6 131.6 L99.8 131.4 L100.0 131.2 L99.9 131.2 L99.8 131.3 L99.7 131.4 L99.6 131.5 L99.5 131.5 L99.7 131.4 L99.9 131.1 L100.0 130.9 L100.1 130.7 L100.1 130.2 L100.1 130.0 L100.0 129.8 L99.6 129.5 L99.2 129.3 L98.7 129.3 L98.3 129.5 L98.4 129.6 L98.5 129.5 L98.5 129.5 L98.6 129.5 L98.7 129.5 L98.6 129.6 L98.4 129.7 L98.3 130.1 L98.2 130.0 L98.3 129.8 L98.2 129.7 L98.1 129.6 L97.8 129.4 L97.8 129.4 L97.8 129.4 L97.7 129.3 L97.7 129.2 L97.7 129.1 L97.8 129.0 L97.8 128.9 L97.7 128.3 L97.7 128.1 L97.9 127.8 L97.9 127.6 L97.7 127.4 L97.5 127.5 L97.4 127.5 L97.5 127.3 L97.8 127.2 L97.8 127.2 L98.3 127.2 L98.6 127.1 L98.7 127.1 L98.8 127.0 L99.0 126.9 L99.1 126.6 L99.1 126.4 L99.1 126.2 L98.8 125.8 L98.7 125.5 L98.7 124.7 L98.9 124.0 L98.9 123.6 L98.7 123.3 L98.4 123.0 L98.0 122.8 L97.9 122.9 L97.6 122.7 L97.5 122.4 L97.7 121.6 L97.6 121.4 L97.5 121.0 L97.3 120.6 L97.0 120.5 L96.8 120.3 L96.6 120.0 L96.6 119.7 L96.5 119.3 L96.2 119.1 L95.8 119.1 L95.0 119.4 L94.7 119.3 L94.9 119.0 L95.0 118.8 L94.7 118.7 L94.4 118.9 L94.3 119.2 L94.2 119.5 L94.1 119.3 L94.0 119.1 L93.9 118.7 L93.9 118.6 L94.2 118.5 L94.4 118.4 L94.6 118.1 L94.6 117.8 L94.7 117.8 L94.7 117.7 L94.8 117.6 L94.7 117.6 L94.5 117.6 L94.4 117.5 L94.3 117.5 L94.1 117.2 L94.0 117.1 L93.8 117.1 L94.9 115.0 L95.0 114.8 L95.0 114.5 L94.9 114.3 L94.7 114.2 L94.5 114.1 L94.5 113.8 L94.7 113.6 L94.8 113.4 L94.9 113.4 L95.0 113.6 L95.1 113.6 L95.2 113.6 L95.3 113.7 L95.3 113.8 L95.3 114.0 L95.2 114.2 L95.3 114.4 L96.0 115.0 L96.4 115.2 L98.1 115.4 L98.9 115.6 L99.3 115.6 L99.6 115.6 L100.7 115.2 L101.0 115.0 L101.3 114.8 L101.4 114.6 L102.4 114.2 L102.8 114.2 L103.0 114.2 L103.2 114.3 L104.1 113.8 L104.4 113.6 L104.9 112.9 L105.1 112.8 L105.0 112.7 L105.0 112.7 L105.0 112.7 L105.0 112.7 L105.5 112.5 L105.6 112.5 L105.7 112.4 L105.9 112.1 L106.0 112.0 L106.1 112.0 L106.4 111.8 L106.6 111.6 L106.8 111.2 L107.1 111.1 L108.1 111.0 L108.4 110.9 L108.8 110.6 L108.9 110.7 L109.1 110.5 L109.2 110.3 L109.2 109.6 L109.3 109.4 L109.6 109.3 L109.9 109.2 L110.2 109.1 L110.2 109.2 L110.3 109.3 L110.4 109.3 L110.6 109.3 L110.8 109.5 L110.8 110.0 L110.9 110.1 L110.9 110.0 L110.8 109.9 L110.9 109.8 L110.9 109.7 L111.0 109.7 L111.1 109.9 L111.1 109.9 L111.0 110.0 L111.0 110.1 L111.2 110.1 L111.3 110.1 L111.4 110.0 L111.5 110.1 L111.7 110.2 L111.8 109.8 L112.0 109.9 L112.6 110.3 L112.6 110.2 L112.7 110.3 L112.8 110.3 L112.9 110.3 L113.1 110.3 L113.1 110.4 L113.0 110.4 L113.0 110.5 L112.9 110.6 L112.9 110.6 L113.0 110.7 L113.1 110.8 L113.2 110.9 L113.4 111.0 L113.3 111.1 L113.3 111.3 L113.4 111.6 L113.5 111.3 L113.6 111.2 L113.8 111.1 L113.7 111.1 L113.7 111.0 L113.7 111.0 L113.6 110.9 L113.8 110.8 L114.0 110.8 L114.1 110.9 L114.4 110.9 L114.4 110.9 L114.5 110.8 L114.6 110.8 L114.7 110.9 L114.6 111.0 L114.7 111.1 L114.8 111.2 L114.9 111.2 L115.0 111.1 L115.1 111.1 L115.1 111.2 L115.2 111.2 L115.2 111.2 L115.2 111.2 L115.2 111.4 L115.2 111.6 L115.1 111.7 L114.9 111.9 L114.9 111.8 L114.8 111.7 L114.8 111.6 L114.5 112.5 L114.4 112.8 L114.7 112.8 L114.6 112.6 L114.9 112.5 L115.0 112.5 L115.1 112.6 L115.0 112.9 L115.1 112.9 L115.1 112.8 L115.1 112.8 L115.1 112.8 L115.2 112.8 L115.3 112.9 L115.3 112.9 L115.6 112.7 L116.0 112.7 L116.4 112.8 L116.7 113.0 L116.5 113.1 L116.3 113.1 L116.0 113.0 L115.8 113.0 L115.5 113.1 L115.5 113.3 L115.4 113.6 L115.2 113.8 L115.3 114.0 L115.1 114.0 L114.4 114.0 L114.4 114.1 L114.4 114.1 L114.3 114.1 L114.4 114.3 L114.5 114.3 L114.7 114.2 L114.8 114.2 L115.0 114.3 L115.2 114.4 L115.3 114.4 L115.6 114.4 L115.8 114.2 L116.1 114.2 L116.4 114.2 L116.3 114.3 L116.2 114.4 L116.1 114.5 L115.9 114.5 L115.9 114.6 L116.5 114.8 L116.6 114.9 L116.6 115.0 L116.7 115.1 L116.8 115.1 L117.0 115.0 L117.1 115.2 L117.2 115.3 L117.4 115.3 L117.6 115.3 L117.1 115.5 L116.9 115.6 L117.1 115.7 L117.1 115.8 L116.8 115.8 L116.7 115.9 L116.6 116.0 L116.8 116.1 L116.8 116.0 L116.9 116.2 L117.3 116.6 L117.4 116.8 L117.4 117.1 L117.9 117.8 L117.9 118.0 L118.0 118.9 L118.1 119.1 L118.1 119.2 L118.2 119.2 L118.4 119.3 L118.5 119.4 L118.5 119.5 L118.6 119.6 Z" fill="#172033" fill-rule="evenodd"/></svg>
