<svg xmlns="http://www.w3.org/2000/svg" viewBox="0 0 320 200" role="img"><path d="M288.4 112.8 L289.3 114.9 L290.3 117.2 L292.2 120.2 L294.6 122.6 L298.0 125.1 L296.7 126.1 L290.2 127.7 L285.6 130.1 L282.9 130.8 L280.7 130.2 L281.6 129.6 L281.9 129.2 L282.4 127.7 L280.1 128.5 L278.1 131.3 L275.9 132.0 L273.9 131.4 L271.7 130.4 L269.4 129.9 L265.6 131.2 L255.6 132.0 L248.6 131.0 L247.6 131.1 L246.7 131.2 L245.6 131.1 L244.3 130.2 L243.8 129.1 L243.5 127.6 L243.1 126.4 L242.1 125.9 L241.1 125.6 L240.4 124.9 L239.9 124.0 L239.1 123.4 L235.3 122.5 L234.3 122.0 L232.4 121.2 L229.8 121.4 L225.2 122.4 L223.3 122.6 L216.7 122.4 L216.7 121.5 L230.5 120.8 L229.7 120.0 L229.0 119.4 L227.4 119.0 L223.6 119.0 L221.0 119.0 L218.3 117.5 L216.1 116.1 L214.4 115.4 L214.1 116.7 L213.5 118.0 L211.9 119.7 L211.4 120.7 L209.8 120.5 L209.3 121.4 L208.8 124.3 L206.5 131.9 L204.8 134.2 L202.8 135.4 L201.1 135.4 L200.0 135.0 L199.0 134.3 L197.6 133.8 L190.7 133.8 L190.7 132.8 L193.3 132.0 L192.0 130.8 L190.3 128.7 L188.9 127.7 L187.4 127.1 L183.8 126.7 L180.5 127.8 L177.6 129.4 L175.6 133.4 L175.1 134.5 L176.0 138.0 L175.1 138.4 L173.5 139.3 L172.6 139.7 L172.9 140.3 L173.1 141.6 L173.4 142.4 L172.1 141.8 L170.7 141.7 L169.4 142.2 L168.2 143.2 L170.4 144.5 L172.7 145.0 L175.2 144.8 L177.7 144.0 L179.0 148.8 L178.6 151.0 L175.6 151.9 L172.9 151.7 L170.6 151.2 L168.2 150.2 L157.3 140.8 L155.0 138.1 L145.6 132.8 L142.8 131.9 L139.8 131.5 L137.5 132.4 L134.8 134.1 L132.2 134.4 L126.7 132.8 L121.2 132.0 L104.1 132.9 L103.3 132.7 L100.7 131.0 L96.2 128.9 L95.1 128.1 L94.5 127.1 L93.2 123.9 L93.0 122.9 L92.5 122.1 L90.2 121.3 L89.5 120.8 L89.3 118.1 L89.6 114.9 L88.8 112.3 L85.6 111.1 L76.8 111.1 L74.8 110.3 L71.8 103.7 L70.8 102.4 L69.7 101.7 L68.5 101.0 L67.5 100.8 L66.7 100.1 L66.1 98.6 L65.3 95.6 L62.9 91.0 L59.8 89.4 L50.5 89.6 L44.8 88.7 L42.8 88.6 L41.6 89.7 L40.6 90.2 L39.7 90.0 L36.6 88.8 L36.3 88.6 L34.6 88.4 L30.7 87.2 L28.5 86.9 L26.3 86.4 L24.1 85.0 L22.6 83.1 L22.0 80.9 L22.7 79.8 L24.6 78.6 L25.5 77.5 L25.8 75.9 L25.6 72.1 L25.9 71.0 L26.8 69.5 L27.0 68.5 L27.4 68.0 L29.4 67.9 L30.6 67.1 L31.6 65.6 L32.9 64.6 L35.0 65.3 L36.3 61.7 L40.2 58.3 L44.7 56.9 L47.9 59.3 L49.8 57.2 L51.8 57.1 L54.1 57.9 L57.0 58.5 L65.2 57.5 L67.9 57.5 L69.3 58.0 L70.2 58.4 L71.6 58.7 L73.1 58.5 L74.4 57.6 L74.5 56.8 L74.4 55.8 L75.2 54.5 L78.1 51.0 L79.4 49.9 L81.6 48.9 L86.7 48.1 L92.5 48.3 L102.7 50.5 L111.6 52.3 L123.9 52.5 L129.3 53.8 L138.1 54.4 L141.4 55.2 L144.0 56.7 L148.0 55.7 L154.4 55.7 L161.1 56.4 L165.7 57.5 L166.2 58.1 L166.7 59.7 L167.3 60.2 L168.1 60.2 L168.7 59.9 L169.1 59.5 L169.0 59.3 L174.7 60.2 L175.4 60.6 L177.5 62.4 L178.2 62.8 L182.3 62.9 L186.6 62.2 L188.9 61.9 L190.5 62.2 L193.1 63.4 L194.6 63.7 L202.1 63.4 L203.5 62.6 L205.6 62.4 L207.2 62.5 L208.8 62.8 L209.7 63.8 L209.3 65.2 L209.3 66.9 L210.7 68.1 L215.2 70.8 L219.1 73.0 L219.8 74.2 L221.0 77.5 L221.7 78.6 L222.9 79.3 L225.2 79.9 L231.7 80.4 L233.9 80.9 L235.8 81.8 L238.2 84.1 L240.0 85.3 L242.2 85.9 L246.4 85.7 L248.5 87.1 L249.3 87.3 L249.9 87.9 L250.7 88.4 L251.7 88.6 L261.2 88.6 L261.8 89.0 L262.8 90.8 L263.3 91.4 L272.6 93.1 L277.4 94.7 L278.0 97.3 L281.6 100.6 L284.4 104.4 L288.4 112.8 Z" fill="#172033" fill-rule="evenodd"/></svg>
