<svg xmlns="http://www.w3.org/2000/svg" viewBox="0 0 320 200" role="img"><path d="M137.4 117.7 L137.3 117.8 L137.5 118.0 L137.6 118.1 L137.4 118.2 L137.3 118.2 L137.2 118.3 L137.2 118.3 L137.1 118.4 L137.1 118.5 L137.1 118.7 L137.0 118.8 L137.0 118.8 L136.9 118.8 L136.9 119.0 L136.8 119.3 L136.6 119.6 L136.6 119.9 L136.4 120.4 L136.2 121.1 L135.9 121.9 L135.8 122.1 L135.8 122.2 L135.8 122.3 L135.9 122.5 L135.9 122.6 L136.2 122.7 L136.1 122.8 L136.0 122.9 L136.0 122.9 L135.8 123.8 L135.9 124.0 L135.6 124.1 L135.5 124.2 L135.5 124.3 L135.5 124.4 L135.4 124.5 L135.3 124.6 L135.3 124.7 L135.4 124.7 L135.4 124.7 L135.4 124.8 L135.4 124.9 L135.4 125.0 L135.3 125.0 L135.3 125.1 L135.2 125.5 L135.1 125.5 L135.0 125.6 L135.0 125.7 L135.0 125.8 L135.0 125.8 L134.9 125.8 L134.9 125.8 L134.9 125.8 L134.8 125.8 L134.9 125.7 L134.9 125.7 L134.9 125.7 L134.6 125.7 L134.5 125.7 L134.3 125.7 L134.3 125.6 L134.3 125.5 L134.3 125.4 L134.3 125.4 L134.1 125.3 L134.1 125.2 L134.0 125.2 L134.0 125.2 L133.8 125.2 L133.7 125.1 L133.6 125.1 L133.5 125.1 L133.3 125.1 L133.0 125.2 L132.9 125.3 L132.8 125.4 L132.7 125.6 L132.6 125.9 L132.7 125.9 L133.0 126.0 L133.1 126.0 L133.3 126.1 L133.3 126.2 L133.3 126.3 L133.1 126.4 L133.1 126.5 L133.2 126.5 L133.4 126.4 L133.5 126.5 L133.0 126.9 L132.8 126.9 L132.6 126.9 L132.6 127.1 L132.5 127.2 L132.4 127.4 L132.3 127.5 L132.2 127.6 L132.1 127.6 L132.0 127.7 L131.8 127.7 L131.6 127.8 L131.4 127.9 L131.2 127.9 L131.0 128.0 L130.9 128.0 L130.8 128.1 L130.5 128.2 L130.3 128.4 L130.2 128.5 L130.0 128.5 L130.0 128.0 L130.2 127.9 L130.5 127.7 L130.6 127.6 L130.8 127.2 L130.7 127.0 L130.9 126.8 L131.0 126.5 L131.0 126.1 L131.0 126.0 L130.9 125.8 L130.8 125.6 L130.7 125.3 L130.3 125.2 L130.3 125.0 L130.4 124.7 L130.3 124.5 L129.8 124.5 L129.7 124.4 L129.6 124.4 L129.6 124.3 L129.5 124.2 L129.7 124.0 L129.9 124.0 L130.0 124.0 L130.2 124.0 L130.4 124.0 L130.5 124.1 L130.5 124.3 L130.5 124.4 L130.6 124.4 L130.7 124.4 L130.7 124.4 L130.9 124.3 L131.0 124.0 L131.1 123.8 L131.1 123.5 L130.9 123.3 L130.6 123.3 L130.2 123.2 L129.9 123.3 L129.7 123.5 L129.7 123.6 L129.6 123.8 L129.6 123.8 L129.4 124.0 L129.3 124.1 L129.3 124.4 L129.2 124.6 L129.1 124.8 L129.0 125.1 L129.0 125.2 L129.0 125.4 L129.2 125.8 L129.3 126.1 L129.4 126.2 L129.5 126.3 L129.6 126.3 L129.8 126.5 L130.0 126.5 L130.0 126.6 L129.9 126.9 L129.9 127.0 L129.9 127.2 L129.7 127.2 L129.6 127.3 L129.5 127.4 L129.4 127.3 L129.3 127.3 L129.2 127.3 L129.1 127.3 L129.0 127.3 L129.0 127.2 L129.0 127.1 L128.9 127.0 L128.8 126.9 L128.5 126.7 L127.4 126.7 L127.2 126.7 L127.0 126.7 L126.8 126.7 L126.7 126.6 L126.7 126.5 L126.7 126.4 L126.6 126.2 L126.5 126.1 L126.6 126.1 L126.7 126.1 L126.7 126.1 L126.6 125.9 L126.4 125.8 L126.2 125.6 L126.0 125.5 L126.2 125.4 L126.3 125.4 L126.4 125.4 L126.5 125.5 L126.5 125.5 L126.6 125.5 L126.8 125.7 L126.9 125.7 L127.0 125.6 L127.3 125.3 L127.4 125.0 L127.5 124.9 L127.6 124.6 L127.6 124.4 L127.6 124.2 L127.7 124.1 L127.6 123.9 L127.6 123.8 L127.4 123.6 L127.1 123.2 L127.0 123.2 L126.6 123.0 L126.5 123.0 L126.5 122.9 L126.4 122.7 L126.5 122.5 L126.6 122.4 L126.8 122.5 L126.9 122.5 L126.7 122.3 L126.6 122.2 L126.8 122.0 L126.8 121.7 L126.7 121.6 L126.7 121.4 L126.6 121.3 L126.6 121.3 L126.5 121.2 L126.4 121.1 L126.5 121.0 L126.7 120.8 L126.7 120.7 L126.5 120.5 L126.7 120.3 L127.0 120.2 L127.2 120.5 L127.4 120.4 L127.5 120.3 L127.6 120.2 L127.6 120.2 L127.7 120.0 L127.7 120.0 L127.7 120.0 L127.8 120.0 L127.8 119.9 L127.8 119.8 L127.8 119.8 L128.3 119.3 L128.4 119.1 L128.4 119.1 L128.5 119.0 L128.6 119.0 L128.6 118.9 L128.6 118.9 L128.6 118.8 L128.6 118.6 L128.7 118.6 L128.9 118.8 L128.9 118.7 L128.9 118.6 L128.9 118.4 L129.0 118.4 L129.1 118.1 L129.3 118.1 L129.4 117.9 L129.3 117.7 L129.2 117.6 L129.3 117.5 L129.4 117.5 L129.6 117.5 L129.5 117.4 L129.3 117.3 L129.3 117.2 L129.4 117.1 L129.9 116.7 L130.0 116.6 L130.1 116.4 L129.9 116.4 L128.7 116.6 L128.6 116.7 L128.5 116.6 L128.5 116.5 L128.7 116.4 L129.2 116.2 L129.3 116.1 L129.4 116.1 L129.5 116.1 L129.6 116.0 L129.7 116.0 L129.8 116.0 L129.8 116.0 L129.7 115.9 L129.6 115.9 L129.5 115.8 L129.5 115.7 L129.5 115.6 L129.6 115.6 L129.6 115.5 L129.7 115.5 L129.7 115.4 L129.6 115.4 L129.6 115.3 L129.5 115.2 L129.0 114.8 L128.6 114.5 L128.4 114.4 L128.4 114.3 L128.3 113.8 L128.3 113.5 L128.3 113.3 L128.3 113.3 L128.3 113.2 L128.2 113.2 L128.2 113.2 L128.1 113.2 L128.1 113.2 L128.0 113.1 L127.9 113.0 L127.9 112.9 L127.9 112.9 L127.9 112.8 L127.7 112.8 L127.5 112.8 L127.4 112.8 L127.3 112.8 L127.1 112.5 L126.9 112.5 L126.8 112.7 L126.5 112.9 L126.3 113.0 L126.1 113.0 L126.1 113.1 L126.2 113.2 L126.4 113.5 L126.7 113.9 L126.8 114.0 L126.8 114.2 L126.7 114.2 L126.7 114.4 L126.6 114.5 L126.4 114.5 L126.3 114.6 L126.2 114.7 L126.0 114.7 L125.9 114.8 L126.1 114.8 L126.1 114.9 L126.3 115.0 L126.5 115.0 L126.6 115.0 L127.0 114.8 L127.4 114.8 L127.7 114.9 L127.8 115.1 L127.9 115.4 L127.9 115.5 L127.9 115.7 L127.9 115.8 L127.8 115.9 L127.8 116.0 L127.8 116.1 L127.7 116.3 L127.4 116.4 L127.1 116.4 L127.1 116.5 L127.1 116.6 L127.0 116.6 L126.9 116.6 L126.9 116.7 L126.8 116.7 L126.6 116.8 L126.5 116.8 L126.4 116.8 L126.4 116.8 L126.4 116.7 L126.3 116.6 L126.3 116.5 L126.1 116.5 L126.1 116.3 L126.1 116.2 L126.2 116.2 L126.3 116.2 L126.4 116.1 L126.5 116.0 L126.6 116.0 L126.7 115.9 L126.7 115.8 L126.7 115.7 L126.6 115.6 L126.5 115.6 L126.5 115.6 L126.5 115.5 L126.6 115.4 L126.5 115.4 L126.3 115.4 L126.2 115.4 L126.1 115.4 L125.9 115.4 L125.6 115.4 L125.5 115.5 L125.4 115.6 L125.2 115.7 L125.1 115.7 L125.0 115.7 L124.9 115.7 L124.9 115.6 L124.9 115.6 L124.8 115.6 L124.8 115.7 L124.8 115.8 L124.6 116.1 L124.5 116.2 L124.4 116.3 L124.3 116.4 L124.1 116.5 L124.0 116.5 L124.0 116.6 L123.9 116.7 L123.8 116.8 L123.6 116.9 L123.6 117.0 L123.5 117.0 L123.4 116.9 L123.3 117.0 L123.3 117.0 L123.2 116.9 L123.3 116.9 L123.4 116.8 L123.5 116.8 L123.6 116.7 L123.7 116.6 L123.7 116.4 L123.8 116.3 L123.8 116.2 L123.8 116.2 L123.7 116.2 L123.7 116.2 L123.7 116.1 L123.8 116.1 L123.8 116.0 L123.9 116.0 L124.0 116.1 L124.0 116.0 L124.1 115.9 L123.9 115.9 L123.9 115.8 L123.7 115.5 L123.7 115.5 L123.6 115.4 L123.6 115.4 L123.5 115.3 L123.5 115.2 L123.4 115.2 L123.3 115.3 L123.2 115.3 L123.1 115.1 L123.0 115.0 L122.9 114.9 L122.8 114.8 L122.8 114.7 L122.8 114.6 L122.8 114.6 L122.7 114.5 L122.6 114.4 L122.5 114.4 L122.5 114.2 L122.5 114.0 L122.6 113.9 L122.6 113.8 L122.6 113.7 L122.6 113.6 L122.7 113.6 L122.7 113.4 L122.8 113.2 L123.1 113.3 L123.2 113.4 L123.2 113.4 L123.2 113.5 L123.2 113.5 L123.3 113.5 L123.3 113.5 L123.3 113.4 L123.4 113.5 L123.4 113.5 L123.4 113.6 L123.3 113.7 L123.2 113.8 L123.3 113.9 L123.4 113.9 L123.5 113.7 L123.7 113.8 L123.8 113.9 L123.9 114.0 L123.8 114.1 L123.8 114.1 L123.8 114.3 L123.8 114.4 L123.8 114.5 L123.7 114.4 L123.7 114.2 L123.6 114.2 L123.6 114.5 L123.7 114.6 L123.8 114.7 L123.7 114.8 L123.8 114.9 L123.9 114.9 L123.9 115.0 L124.0 115.0 L124.0 115.0 L124.1 115.0 L124.1 115.0 L124.2 114.9 L124.3 114.9 L124.3 114.8 L124.7 114.9 L125.1 115.0 L125.2 115.0 L125.1 114.9 L124.7 114.4 L124.7 114.2 L124.7 114.1 L124.8 113.9 L124.8 113.7 L124.5 113.6 L124.3 113.4 L124.1 113.5 L124.0 113.5 L123.9 113.5 L123.9 113.4 L123.7 113.3 L123.6 113.3 L123.5 113.4 L123.4 113.4 L123.3 113.4 L123.3 113.3 L123.2 113.1 L123.3 113.1 L123.3 113.1 L123.3 113.0 L123.3 112.9 L123.4 112.9 L123.4 112.8 L123.3 112.8 L123.2 113.0 L123.1 112.9 L123.1 112.8 L123.1 112.7 L123.0 112.7 L123.1 112.8 L123.0 113.0 L123.0 113.0 L123.0 113.0 L122.8 113.0 L122.8 113.1 L122.7 113.1 L122.7 112.9 L122.9 112.9 L122.9 112.8 L122.9 112.7 L122.8 112.7 L122.7 112.6 L122.6 112.6 L122.7 112.5 L122.7 112.5 L122.6 112.5 L122.6 112.4 L122.5 112.4 L122.4 112.4 L122.4 112.4 L122.2 112.3 L122.2 112.3 L122.0 112.3 L121.9 112.2 L122.0 112.0 L122.0 111.9 L122.0 111.8 L122.1 111.8 L122.2 111.8 L122.2 111.7 L122.1 111.6 L122.0 111.5 L122.1 111.3 L122.1 111.1 L122.2 111.1 L122.4 111.2 L122.6 111.2 L122.8 110.9 L122.8 111.0 L122.8 111.2 L123.0 111.3 L123.3 111.2 L123.8 111.3 L123.8 111.4 L123.8 111.4 L123.9 111.6 L123.9 111.7 L124.0 111.8 L124.1 111.8 L124.1 111.7 L124.0 111.5 L124.0 111.3 L124.1 111.2 L124.2 111.1 L124.2 111.0 L124.2 110.9 L123.8 110.7 L123.7 110.6 L123.6 110.5 L123.7 110.4 L123.7 110.3 L123.8 110.3 L124.0 110.4 L124.0 110.5 L124.1 110.6 L124.2 110.7 L124.2 110.6 L124.2 110.5 L124.0 110.3 L124.0 110.1 L124.1 109.9 L124.1 109.8 L124.2 109.9 L124.3 109.9 L124.5 109.8 L124.8 110.0 L124.9 110.1 L124.9 110.2 L124.8 110.3 L124.7 110.3 L124.8 110.4 L124.9 110.3 L124.9 110.4 L124.9 110.5 L125.0 110.5 L125.1 110.6 L125.3 110.6 L125.4 110.6 L125.5 110.5 L125.5 110.3 L125.6 110.2 L125.8 110.1 L125.9 110.1 L126.0 110.1 L126.1 110.1 L126.1 110.0 L126.2 110.0 L126.3 110.0 L126.4 109.9 L126.5 109.8 L126.4 109.8 L126.1 109.9 L126.1 109.9 L126.0 109.8 L126.0 109.7 L125.9 109.7 L125.9 109.7 L125.9 109.6 L125.9 109.6 L126.0 109.5 L126.1 109.5 L126.1 109.5 L126.2 109.5 L126.3 109.4 L126.3 109.3 L126.3 109.2 L126.4 109.2 L126.5 109.2 L126.6 109.2 L126.6 109.2 L126.7 109.2 L126.7 109.0 L126.8 109.0 L126.9 109.1 L126.9 109.1 L126.8 109.2 L126.9 109.3 L127.0 109.4 L127.0 109.4 L127.2 109.4 L127.2 109.4 L127.1 109.5 L127.2 109.6 L127.3 109.6 L127.3 109.6 L127.3 109.6 L127.4 109.6 L127.4 109.6 L127.5 109.5 L127.6 109.5 L127.8 109.5 L127.9 109.4 L128.0 109.4 L128.1 109.3 L128.1 109.2 L128.2 109.1 L128.1 109.0 L128.1 108.9 L128.0 109.0 L127.8 109.1 L127.7 109.2 L127.6 109.1 L127.6 109.1 L127.5 109.0 L127.4 109.0 L127.3 109.0 L127.3 108.9 L127.3 108.8 L127.4 108.8 L127.5 108.9 L127.6 109.0 L127.7 109.0 L128.0 108.9 L128.1 108.8 L128.2 108.7 L128.3 108.6 L128.4 108.6 L128.5 108.5 L128.6 108.4 L128.6 108.3 L128.6 108.1 L128.5 108.1 L128.5 108.1 L128.5 108.0 L128.5 107.9 L128.6 107.9 L128.6 107.9 L128.7 107.8 L128.8 107.6 L128.8 107.6 L128.9 107.6 L129.1 107.5 L129.1 107.5 L129.2 107.4 L129.2 107.4 L129.3 107.4 L129.7 107.4 L129.8 107.4 L130.0 107.3 L130.2 107.0 L130.3 107.0 L130.4 107.0 L130.4 107.0 L130.5 107.0 L130.7 106.9 L131.0 106.9 L131.3 107.0 L131.2 107.1 L131.3 107.1 L131.5 107.1 L131.6 107.2 L131.6 107.3 L131.8 107.3 L131.9 107.3 L132.0 107.3 L132.1 107.1 L132.1 107.0 L132.3 106.8 L132.6 106.8 L132.7 106.8 L132.6 107.0 L132.6 107.1 L132.5 107.1 L132.5 107.2 L132.5 107.3 L132.5 107.3 L132.5 107.4 L132.4 107.4 L132.4 107.5 L132.4 107.6 L132.4 107.6 L132.4 107.7 L132.2 107.7 L132.2 107.8 L132.2 107.9 L132.3 107.9 L132.4 107.9 L132.6 107.9 L132.5 108.1 L132.6 108.2 L132.6 108.4 L132.7 108.5 L132.9 108.9 L133.0 109.1 L133.1 109.2 L133.3 109.3 L133.4 109.3 L133.6 109.3 L133.9 109.3 L134.1 109.4 L134.4 109.4 L134.6 109.6 L134.9 109.6 L135.2 109.6 L135.6 109.6 L135.6 109.5 L135.9 109.3 L136.0 109.2 L136.1 109.1 L136.2 109.0 L136.3 108.9 L136.6 108.9 L136.7 108.9 L136.8 108.8 L137.0 108.9 L137.1 109.0 L137.3 108.9 L137.4 109.0 L137.6 109.2 L137.7 109.4 L137.9 109.6 L137.9 109.7 L137.9 109.9 L137.9 110.1 L137.9 110.3 L137.8 110.5 L137.7 110.7 L137.7 110.9 L137.6 110.9 L137.5 110.8 L137.3 110.8 L137.2 110.8 L137.2 110.9 L137.2 111.0 L137.2 111.1 L137.0 111.2 L136.9 111.2 L136.9 111.3 L136.7 111.3 L136.6 111.3 L136.5 111.3 L136.4 111.2 L136.2 111.2 L136.2 111.4 L136.3 111.9 L136.4 111.9 L136.5 112.0 L137.0 112.0 L137.3 111.9 L137.6 112.0 L137.7 111.9 L138.1 112.0 L138.5 112.1 L138.8 112.0 L139.0 111.9 L139.1 111.9 L139.0 112.1 L138.9 112.3 L138.9 112.4 L138.9 112.4 L138.7 112.5 L138.6 112.6 L138.6 112.7 L138.5 112.9 L138.7 113.0 L138.9 112.9 L139.1 112.9 L139.2 112.9 L139.0 113.1 L138.9 113.2 L138.8 113.3 L139.0 113.3 L139.0 113.3 L139.2 113.3 L139.2 113.3 L139.3 113.4 L139.4 113.3 L139.4 113.2 L139.4 113.2 L139.5 113.3 L139.5 113.4 L139.6 113.4 L139.7 113.4 L139.7 113.4 L139.8 113.4 L139.8 113.2 L139.9 113.4 L139.9 113.5 L139.7 113.5 L139.4 113.5 L139.3 113.5 L139.3 113.6 L139.2 113.8 L139.1 114.0 L139.2 114.0 L139.4 114.2 L139.5 114.2 L139.6 114.3 L139.6 114.2 L139.7 114.2 L139.7 114.2 L139.8 114.3 L139.8 114.3 L139.9 114.3 L139.9 114.3 L140.0 114.3 L140.0 114.3 L140.1 114.2 L140.3 114.2 L140.4 114.3 L140.5 114.3 L140.3 114.3 L140.2 114.4 L140.0 114.4 L139.8 114.6 L139.7 114.7 L139.8 114.7 L139.8 114.7 L139.9 114.8 L139.8 114.9 L139.7 115.0 L139.6 115.0 L139.6 115.0 L139.5 115.1 L139.6 115.1 L139.8 115.1 L139.9 115.1 L139.8 115.2 L139.7 115.3 L139.6 115.4 L139.5 115.4 L139.3 115.5 L139.0 115.4 L138.9 115.6 L138.9 115.8 L138.9 115.8 L138.9 115.9 L138.9 115.9 L138.8 115.9 L138.8 115.9 L138.8 116.1 L138.8 116.2 L138.7 116.2 L138.6 116.1 L138.5 116.0 L138.5 116.1 L138.4 116.2 L138.3 116.3 L138.2 116.4 L138.2 116.4 L138.1 116.5 L138.1 116.5 L138.2 116.5 L138.2 116.6 L138.1 116.6 L138.0 116.8 L138.0 116.9 L137.9 116.9 L137.7 116.9 L137.7 116.9 L137.6 117.1 L137.5 117.3 L137.5 117.4 L137.6 117.4 L137.7 117.4 L137.8 117.5 L137.9 117.6 L137.8 117.7 L137.6 117.8 L137.5 117.7 L137.4 117.7 Z M159.6 107.8 L159.8 107.7 L160.0 107.7 L160.0 107.7 L159.9 107.8 L159.7 107.9 L159.4 108.0 L159.3 108.1 L159.0 108.1 L159.0 108.2 L158.8 108.3 L158.7 108.5 L158.5 108.5 L158.5 108.6 L157.9 108.9 L157.5 109.1 L157.3 109.2 L157.4 109.3 L157.2 109.4 L157.2 109.5 L157.1 109.6 L157.0 109.6 L156.9 109.6 L156.8 109.7 L156.8 109.8 L156.8 109.9 L156.7 110.0 L156.5 110.1 L156.3 110.5 L156.1 111.1 L156.0 111.4 L156.0 111.6 L156.0 111.7 L155.9 111.9 L155.9 112.0 L155.8 112.1 L155.7 111.9 L155.6 111.7 L155.5 111.7 L155.3 111.7 L155.3 111.5 L155.1 111.4 L154.8 111.0 L154.7 110.8 L154.5 110.7 L154.3 110.7 L154.1 110.5 L154.0 110.2 L153.5 110.2 L152.8 110.0 L152.6 109.9 L152.1 110.0 L151.6 110.1 L151.5 110.2 L151.2 110.3 L150.6 110.5 L150.5 110.7 L150.5 110.8 L150.4 110.9 L150.2 111.0 L150.1 111.0 L149.9 111.0 L149.9 111.0 L149.8 111.0 L149.7 111.1 L149.6 111.3 L149.6 111.3 L149.6 111.2 L149.5 111.1 L149.5 111.1 L149.3 111.2 L149.2 111.3 L149.1 111.5 L149.1 111.6 L149.0 111.7 L149.1 111.8 L149.1 111.8 L149.1 111.9 L149.1 111.9 L149.2 111.9 L149.2 112.0 L149.2 112.0 L149.1 112.0 L149.1 112.1 L149.1 112.1 L149.0 112.2 L149.0 112.3 L148.9 112.4 L148.8 112.5 L148.8 112.6 L148.8 112.7 L148.7 112.7 L148.7 112.7 L148.6 112.7 L148.4 112.8 L148.2 113.2 L148.0 113.4 L147.9 113.5 L147.9 113.6 L147.9 113.7 L147.8 113.7 L147.7 113.6 L147.6 113.6 L147.3 113.7 L147.2 114.0 L147.1 114.2 L147.3 114.6 L147.2 114.8 L147.1 114.9 L146.9 114.9 L146.9 114.9 L146.9 115.1 L146.9 115.2 L147.0 115.3 L147.0 115.4 L147.1 115.4 L147.2 115.5 L147.3 115.6 L147.4 115.8 L147.4 115.9 L147.2 116.0 L147.1 115.9 L147.0 115.9 L147.0 115.8 L146.9 115.7 L146.9 115.6 L146.7 115.5 L146.6 115.5 L146.4 115.5 L146.3 115.7 L146.2 115.6 L146.1 115.5 L146.0 115.6 L145.9 115.7 L145.8 115.8 L145.7 115.8 L145.5 115.7 L145.4 115.7 L145.2 115.5 L145.1 115.4 L144.7 115.5 L144.5 115.7 L144.4 115.5 L144.4 115.3 L144.6 115.1 L144.7 114.9 L144.9 114.7 L145.0 114.6 L145.1 114.5 L144.5 114.5 L144.5 114.5 L144.4 114.5 L144.1 114.4 L144.0 114.3 L144.0 114.4 L143.9 114.4 L143.8 114.4 L143.7 114.4 L143.6 114.5 L143.7 114.5 L143.8 114.6 L143.8 114.6 L143.7 114.7 L143.5 114.7 L143.4 114.6 L143.3 114.3 L143.5 114.2 L143.4 114.1 L143.5 114.0 L143.5 113.9 L143.4 113.7 L143.3 113.6 L143.1 113.5 L142.9 113.5 L142.8 113.7 L142.7 113.7 L142.8 113.5 L142.8 113.4 L142.8 113.3 L143.2 113.5 L143.3 113.4 L143.4 113.4 L143.2 113.4 L143.3 113.3 L143.3 113.2 L143.2 113.1 L143.1 113.1 L143.1 113.0 L143.3 113.0 L143.3 113.0 L143.4 113.0 L143.4 112.9 L143.4 112.9 L143.4 112.9 L143.2 112.9 L143.1 112.8 L143.0 112.7 L143.1 112.6 L143.2 112.6 L143.1 112.5 L143.1 112.5 L143.0 112.4 L142.9 112.5 L142.8 112.5 L142.7 112.4 L142.9 112.3 L143.1 112.4 L143.2 112.4 L143.2 112.5 L143.4 112.5 L143.4 112.6 L143.6 112.5 L143.5 112.4 L143.6 112.3 L143.8 112.3 L143.9 112.2 L143.8 112.1 L143.7 112.0 L143.8 111.9 L143.7 111.9 L143.6 112.0 L143.5 111.9 L143.5 111.9 L143.4 111.8 L143.4 111.7 L143.6 111.6 L143.7 111.6 L143.7 111.5 L143.4 111.5 L142.9 111.6 L142.8 111.6 L142.7 111.5 L142.6 111.5 L142.7 111.4 L142.7 111.4 L142.8 111.4 L142.9 111.4 L142.9 111.3 L142.9 111.1 L142.8 111.2 L142.7 111.1 L142.7 110.9 L142.8 110.8 L142.8 110.8 L142.7 110.8 L142.8 110.7 L142.8 110.6 L142.9 110.6 L142.9 110.6 L142.6 110.4 L142.5 110.4 L142.4 110.4 L142.3 110.5 L142.2 110.5 L142.1 110.5 L141.9 110.6 L141.7 110.6 L141.4 110.8 L141.2 110.9 L140.9 111.0 L140.9 111.1 L140.8 111.2 L140.7 111.2 L140.6 111.1 L140.7 111.0 L140.4 111.2 L140.0 111.3 L139.9 111.3 L140.1 111.2 L140.2 111.1 L140.5 110.9 L140.8 110.8 L141.0 110.8 L141.1 110.8 L141.0 110.7 L141.0 110.7 L141.1 110.6 L141.3 110.5 L141.5 110.5 L141.6 110.4 L141.8 110.5 L142.0 110.3 L142.9 109.9 L143.0 109.8 L143.0 109.7 L143.1 109.7 L143.3 109.4 L143.4 109.4 L143.5 109.3 L144.3 109.0 L144.4 108.9 L144.6 108.8 L144.8 108.6 L145.0 108.3 L145.0 108.1 L144.9 107.9 L145.0 107.6 L145.0 107.4 L145.1 107.2 L145.4 107.2 L145.4 107.0 L145.5 106.8 L145.5 106.5 L145.7 106.4 L146.1 106.2 L146.2 106.1 L146.6 106.0 L146.6 105.9 L146.7 105.8 L146.6 105.7 L146.5 105.7 L146.4 105.7 L146.4 105.6 L146.6 105.6 L146.7 105.6 L146.8 105.5 L146.8 105.6 L146.9 105.6 L146.9 105.7 L147.0 105.7 L147.4 106.1 L147.6 106.6 L147.7 106.7 L147.8 106.8 L147.8 106.9 L148.0 107.0 L148.1 107.0 L148.3 107.0 L148.5 107.0 L148.7 106.9 L149.0 106.8 L149.0 106.7 L149.2 106.6 L149.4 106.7 L149.6 106.6 L149.7 106.6 L149.8 106.6 L150.2 106.6 L150.4 106.7 L150.8 106.8 L150.9 106.8 L151.1 106.7 L151.2 106.7 L151.3 106.6 L151.4 106.5 L151.5 106.4 L151.7 106.2 L151.8 106.1 L151.9 105.9 L151.9 105.6 L151.9 105.3 L151.9 105.2 L151.8 105.1 L151.7 105.0 L151.6 104.9 L151.5 104.8 L151.4 104.7 L151.3 104.6 L151.4 104.7 L151.7 104.8 L151.9 104.8 L152.0 104.8 L152.1 104.9 L152.3 104.8 L152.6 104.7 L152.7 104.5 L152.9 104.4 L153.4 104.2 L153.6 104.1 L153.7 104.0 L153.7 103.9 L153.8 103.8 L153.9 103.8 L153.9 103.8 L154.1 103.8 L154.1 103.8 L154.2 103.8 L154.3 103.8 L154.4 103.9 L154.5 103.9 L154.6 104.0 L154.7 104.0 L154.8 103.9 L154.9 103.9 L155.1 104.0 L155.2 103.9 L155.3 103.8 L155.4 103.9 L155.4 103.8 L155.4 103.7 L155.5 103.7 L155.6 103.6 L155.6 103.7 L155.7 103.8 L155.7 103.9 L155.7 104.1 L155.7 104.1 L155.9 104.2 L155.9 104.1 L156.1 104.0 L156.1 103.9 L156.3 104.0 L156.4 104.1 L156.5 104.1 L156.4 104.4 L156.7 104.5 L156.8 104.5 L156.9 104.5 L157.0 104.7 L157.1 104.7 L157.3 104.7 L157.4 104.7 L157.5 104.7 L157.5 104.8 L157.6 104.9 L157.7 105.0 L158.0 105.0 L158.2 104.9 L158.6 104.9 L158.8 104.8 L158.9 104.8 L159.0 104.7 L159.0 104.8 L158.9 104.8 L158.9 105.0 L159.0 104.9 L159.1 104.8 L159.3 104.8 L159.2 104.9 L159.1 105.0 L159.1 105.0 L159.1 105.1 L159.1 105.1 L159.0 105.2 L159.1 105.2 L159.1 105.2 L159.2 105.2 L159.2 105.3 L159.1 105.4 L159.1 105.5 L159.1 105.5 L159.0 105.7 L159.0 105.9 L159.0 106.0 L158.9 106.1 L158.9 106.2 L158.9 106.2 L158.9 106.3 L158.9 106.5 L159.0 106.5 L159.0 106.5 L159.1 106.5 L159.1 106.5 L159.2 106.4 L159.3 106.6 L159.4 106.7 L159.6 106.9 L159.6 106.9 L159.7 107.0 L159.7 107.1 L159.7 107.2 L159.6 107.3 L159.6 107.4 L159.5 107.4 L159.4 107.4 L159.3 107.6 L159.4 107.6 L159.8 107.6 L159.8 107.7 L159.7 107.7 L159.6 107.7 L159.6 107.7 L159.6 107.8 Z M150.3 103.3 L150.2 103.4 L149.7 104.0 L149.6 104.0 L149.4 104.1 L149.3 104.2 L149.2 104.2 L149.1 104.1 L149.2 104.0 L149.3 104.0 L149.4 104.0 L149.4 104.0 L149.5 103.8 L149.4 103.7 L149.3 103.7 L149.1 103.7 L149.1 103.7 L149.2 103.6 L149.1 103.4 L149.0 103.4 L148.9 103.8 L148.8 103.9 L148.6 103.9 L148.5 104.0 L148.7 104.1 L148.7 104.3 L148.7 104.4 L148.5 104.5 L148.5 104.4 L148.4 104.4 L148.4 104.4 L148.3 104.4 L148.2 104.4 L148.1 104.5 L147.9 104.6 L147.9 104.7 L147.7 104.6 L147.7 104.5 L147.7 104.2 L147.8 104.2 L147.8 104.1 L147.9 104.0 L148.0 103.9 L148.1 104.0 L148.0 104.1 L148.0 104.2 L148.2 104.2 L148.3 103.9 L148.4 103.9 L148.4 103.9 L148.3 103.8 L148.2 103.7 L148.1 103.7 L148.0 103.7 L147.9 103.7 L147.9 103.7 L147.8 103.7 L147.8 103.9 L147.6 104.1 L147.3 104.1 L146.5 104.2 L146.3 104.3 L146.1 104.4 L146.0 104.2 L145.9 104.3 L145.7 104.4 L145.6 104.5 L145.4 104.5 L145.5 104.6 L145.5 104.7 L145.6 104.7 L145.5 104.8 L145.4 104.8 L145.2 104.8 L145.0 104.9 L144.7 105.1 L144.5 105.1 L144.4 105.0 L144.4 105.0 L144.4 104.9 L144.4 104.9 L144.3 104.9 L144.2 105.0 L144.2 105.0 L144.2 105.0 L144.0 105.1 L143.9 105.1 L143.8 105.0 L144.0 104.9 L143.9 104.8 L143.8 104.7 L143.7 104.5 L143.6 104.4 L143.5 104.4 L143.5 104.3 L143.6 104.3 L143.6 104.2 L143.5 104.1 L143.6 104.1 L143.7 104.1 L143.7 104.1 L143.7 104.0 L143.6 103.9 L143.5 103.9 L143.4 103.9 L143.2 104.0 L143.1 104.0 L142.8 103.8 L142.7 103.8 L142.4 104.0 L142.1 104.1 L141.5 104.8 L141.5 104.9 L141.6 105.0 L141.6 105.1 L141.6 105.3 L141.6 105.5 L141.5 105.6 L141.4 105.6 L141.3 105.7 L141.3 106.0 L141.4 106.3 L141.4 106.6 L141.2 106.8 L141.0 106.9 L140.9 106.9 L140.8 107.0 L140.8 107.2 L140.9 107.3 L141.0 107.6 L141.0 107.7 L141.0 107.8 L140.6 107.9 L140.4 108.1 L140.3 108.2 L140.2 108.2 L140.2 108.0 L140.3 107.9 L140.4 107.9 L140.4 107.8 L140.4 107.7 L140.5 107.8 L140.6 107.8 L140.6 107.8 L140.7 107.7 L140.7 107.5 L140.6 107.5 L140.5 107.4 L140.4 107.4 L140.3 107.3 L139.8 107.2 L139.6 107.1 L139.6 107.1 L139.4 106.9 L139.3 106.8 L139.1 106.8 L139.1 106.7 L138.9 106.6 L138.8 106.5 L138.6 106.6 L138.5 106.7 L138.6 106.7 L138.6 106.8 L138.3 106.8 L138.2 106.7 L138.2 106.6 L138.4 106.5 L138.6 106.4 L138.5 106.3 L138.5 106.3 L138.4 106.2 L138.0 106.1 L137.7 106.2 L137.6 106.2 L137.5 106.2 L137.2 106.3 L137.2 106.3 L137.0 106.3 L136.9 106.3 L136.9 106.3 L136.9 106.2 L136.8 106.3 L136.9 106.4 L136.9 106.5 L136.9 106.6 L136.8 106.6 L136.7 106.6 L136.7 106.6 L136.7 106.6 L136.7 106.5 L136.6 106.5 L136.6 106.5 L136.6 106.5 L136.6 106.5 L136.3 106.5 L136.3 106.4 L136.1 106.3 L136.1 106.3 L136.0 106.3 L136.0 106.4 L136.0 106.4 L136.0 106.5 L135.9 106.5 L135.9 106.5 L135.9 106.6 L135.8 106.6 L135.8 106.6 L135.8 106.7 L135.7 106.7 L135.7 106.7 L135.7 106.6 L135.6 106.6 L135.6 106.5 L135.6 106.6 L135.5 106.6 L135.5 106.7 L135.4 106.6 L135.5 106.5 L135.5 106.4 L135.5 106.3 L135.4 106.2 L135.3 106.3 L135.1 106.6 L135.0 106.8 L134.9 106.9 L134.5 107.1 L134.4 107.1 L134.3 107.0 L134.3 107.0 L134.2 107.0 L134.2 107.0 L134.1 107.0 L134.1 106.9 L134.1 106.9 L134.0 106.9 L134.0 106.9 L134.0 106.9 L133.9 107.0 L133.9 107.0 L133.8 107.0 L133.8 107.0 L133.8 106.9 L133.7 106.9 L133.7 106.8 L133.7 106.7 L133.7 106.7 L133.7 106.7 L133.4 106.5 L133.3 106.3 L133.0 106.2 L132.8 106.2 L132.6 106.4 L132.3 106.7 L132.0 106.9 L132.0 107.1 L131.9 107.2 L131.8 107.1 L131.7 107.0 L131.6 107.0 L131.6 106.9 L131.8 106.9 L131.9 106.7 L131.8 106.6 L131.9 106.5 L131.9 106.4 L131.9 106.4 L131.8 106.3 L131.9 106.1 L131.8 106.0 L131.6 106.0 L131.6 105.9 L131.6 105.8 L131.5 105.8 L131.5 105.7 L131.6 105.6 L131.7 105.5 L131.8 105.5 L131.9 105.4 L131.9 105.3 L132.0 105.2 L131.9 105.1 L131.9 105.1 L131.9 104.9 L131.8 104.7 L131.7 104.6 L131.7 104.6 L131.6 104.5 L131.6 104.5 L131.6 104.4 L131.6 104.4 L131.7 104.3 L131.7 104.1 L131.7 104.0 L131.8 103.9 L131.9 103.9 L132.0 104.0 L132.1 103.9 L132.1 103.9 L132.2 103.9 L132.5 103.8 L132.6 103.8 L132.8 103.7 L132.6 103.6 L132.5 103.6 L132.3 103.6 L132.2 103.6 L132.1 103.6 L132.1 103.6 L132.0 103.6 L132.1 103.5 L132.1 103.4 L132.2 103.4 L132.3 103.3 L132.4 103.3 L132.5 103.4 L132.5 103.5 L132.6 103.5 L132.7 103.5 L132.8 103.5 L132.9 103.5 L133.0 103.4 L133.1 103.4 L133.2 103.5 L133.4 103.5 L133.5 103.5 L133.5 103.7 L133.6 103.8 L133.8 103.8 L133.8 103.7 L133.9 103.6 L133.8 103.5 L133.8 103.5 L133.8 103.4 L133.9 103.4 L134.0 103.4 L134.2 103.3 L134.4 103.3 L134.5 103.4 L134.6 103.5 L134.5 103.5 L134.4 103.4 L134.3 103.4 L134.2 103.5 L134.1 103.5 L134.1 103.6 L134.1 103.7 L134.0 103.8 L134.1 103.8 L134.2 103.7 L134.2 103.7 L134.6 103.7 L134.9 103.6 L135.0 103.5 L135.2 103.5 L135.6 103.4 L135.5 103.2 L135.6 103.1 L135.9 102.9 L135.9 102.9 L135.8 102.7 L135.9 102.7 L136.1 102.6 L136.3 102.5 L136.4 102.4 L136.6 102.3 L136.6 102.2 L136.6 102.0 L136.7 102.0 L136.8 102.0 L136.9 102.0 L136.9 101.9 L136.9 101.8 L136.9 101.7 L137.0 101.6 L137.1 101.7 L137.3 101.7 L137.4 101.7 L137.5 101.6 L137.5 101.6 L137.7 101.6 L138.0 101.6 L138.3 101.5 L138.6 101.4 L138.7 101.3 L138.8 101.3 L138.8 101.1 L138.9 101.0 L138.9 100.9 L139.1 100.9 L139.1 100.9 L139.3 100.7 L139.5 100.6 L139.8 100.4 L140.0 100.2 L140.1 100.1 L140.2 100.1 L140.3 100.0 L140.3 99.9 L140.7 99.6 L140.8 99.5 L141.0 99.4 L141.4 99.1 L141.6 98.9 L141.8 98.9 L142.0 98.8 L142.2 98.7 L142.2 98.5 L142.5 98.4 L142.6 98.3 L142.7 98.2 L142.7 98.1 L142.8 98.0 L142.8 97.9 L143.3 97.6 L143.5 97.5 L143.7 97.4 L143.8 97.3 L143.9 97.3 L144.1 97.2 L144.4 97.1 L144.5 97.0 L144.6 96.9 L144.7 96.8 L144.8 96.6 L144.8 96.5 L144.8 96.4 L144.8 96.3 L144.6 96.2 L144.5 96.1 L144.4 96.0 L144.5 95.9 L144.7 95.9 L144.9 95.9 L145.0 95.9 L145.2 95.9 L145.3 95.9 L145.4 95.8 L145.3 95.8 L145.2 95.7 L145.3 95.7 L145.4 95.7 L145.5 95.7 L145.8 95.6 L146.0 95.5 L146.2 95.4 L146.6 95.4 L146.8 95.4 L147.0 95.4 L147.0 95.2 L147.1 95.2 L147.3 95.2 L147.4 95.2 L147.5 95.1 L147.6 95.0 L147.7 94.9 L147.8 95.0 L147.9 94.9 L147.9 94.8 L148.0 94.8 L148.1 94.9 L148.2 95.0 L148.3 95.1 L148.6 95.0 L148.7 95.0 L148.8 94.9 L148.9 94.9 L148.8 95.0 L148.9 95.0 L148.9 95.0 L149.0 95.0 L149.1 95.0 L149.3 95.0 L149.5 94.9 L149.6 95.0 L149.5 95.1 L149.4 95.1 L149.3 95.1 L149.2 95.2 L149.1 95.2 L149.1 95.3 L149.1 95.4 L149.1 95.4 L149.1 95.5 L149.3 95.7 L149.6 95.8 L149.8 95.8 L150.0 95.8 L150.1 95.9 L150.2 95.8 L150.4 95.6 L150.8 95.4 L151.0 95.4 L151.4 95.3 L151.8 95.4 L152.6 95.5 L153.9 95.4 L154.6 95.2 L154.8 95.4 L155.8 95.2 L156.3 95.2 L156.4 95.1 L156.6 95.0 L156.7 94.9 L157.0 94.8 L157.1 94.8 L157.2 94.8 L157.3 94.7 L157.6 94.6 L157.9 94.5 L158.2 94.4 L158.5 94.3 L158.9 94.3 L159.3 94.3 L159.6 94.3 L160.1 94.3 L160.4 94.3 L160.5 94.3 L160.6 94.4 L160.7 94.4 L160.9 94.4 L161.0 94.4 L161.0 94.4 L161.1 94.4 L161.2 94.5 L161.3 94.5 L161.5 94.4 L161.5 94.4 L161.6 94.3 L161.6 94.2 L161.8 94.1 L161.9 94.1 L162.1 94.1 L162.2 94.0 L162.5 93.9 L162.5 93.8 L162.8 93.7 L163.2 93.6 L163.4 93.6 L163.5 93.5 L163.7 93.6 L163.8 93.8 L163.9 93.8 L164.0 94.0 L164.1 94.1 L164.1 94.3 L164.1 94.4 L163.9 94.3 L163.8 94.4 L163.7 94.5 L163.6 94.6 L163.6 94.7 L163.4 94.9 L163.2 95.0 L163.2 95.2 L163.3 95.2 L163.4 95.2 L163.4 95.1 L163.5 95.0 L163.6 94.9 L163.7 94.8 L163.7 95.0 L163.8 95.0 L163.8 95.1 L163.8 95.1 L163.7 95.1 L163.6 95.1 L163.6 95.2 L164.1 95.4 L164.2 95.4 L164.2 95.3 L164.3 95.5 L164.3 95.6 L164.2 95.6 L164.2 95.8 L164.2 95.8 L164.2 95.9 L164.3 95.8 L164.4 95.7 L164.4 95.6 L164.6 95.6 L164.8 95.7 L164.8 95.6 L164.8 95.5 L164.6 95.5 L164.4 95.4 L164.3 95.2 L164.5 95.1 L164.6 95.1 L164.8 95.1 L164.9 95.1 L165.0 95.0 L165.1 94.9 L165.1 94.9 L165.3 94.8 L165.2 94.9 L165.2 95.0 L165.3 95.0 L165.4 95.1 L165.4 95.2 L165.4 95.3 L165.4 95.3 L165.4 95.3 L165.4 95.4 L165.5 95.3 L165.5 95.3 L165.6 95.2 L165.6 95.3 L165.6 95.4 L165.6 95.5 L165.7 95.6 L166.0 95.6 L166.0 95.6 L166.1 95.5 L166.2 95.5 L166.3 95.4 L166.4 95.3 L166.6 95.2 L166.8 95.3 L166.7 95.3 L166.6 95.4 L166.5 95.6 L166.4 95.6 L166.6 95.7 L167.0 95.6 L167.2 95.6 L167.3 95.5 L167.3 95.4 L167.3 95.3 L167.1 95.4 L167.1 95.2 L166.9 95.2 L167.0 95.1 L167.3 95.0 L167.3 95.0 L167.4 95.2 L167.6 95.1 L167.7 95.3 L167.8 95.3 L168.0 95.3 L167.9 95.2 L167.8 95.2 L167.7 95.0 L167.8 95.0 L167.8 94.9 L167.9 95.0 L168.0 95.0 L168.1 94.9 L168.1 94.9 L168.1 94.8 L168.0 94.8 L168.0 94.7 L168.0 94.7 L167.8 94.6 L167.8 94.5 L167.9 94.5 L168.0 94.5 L168.1 94.6 L168.2 94.7 L168.5 94.6 L168.5 94.7 L168.6 94.7 L168.8 94.6 L168.8 94.6 L169.0 94.6 L169.1 94.6 L169.1 94.5 L168.9 94.4 L169.0 94.2 L169.0 94.1 L169.0 94.0 L168.9 94.0 L168.9 93.8 L169.1 93.8 L169.3 93.6 L169.4 93.7 L169.4 93.8 L169.5 93.9 L169.5 94.0 L169.5 94.1 L169.4 94.1 L169.4 94.2 L169.5 94.3 L169.5 94.4 L169.7 94.3 L169.7 94.2 L169.8 94.2 L169.8 94.1 L169.8 94.0 L169.9 93.9 L169.9 93.9 L169.9 93.7 L169.9 93.6 L169.9 93.5 L169.8 93.3 L169.8 93.2 L169.7 93.1 L169.6 93.0 L169.3 92.8 L169.1 92.7 L169.2 92.5 L169.2 92.3 L169.0 92.1 L168.9 92.0 L168.9 91.8 L169.1 91.8 L169.2 91.7 L169.3 91.4 L169.4 91.3 L169.5 91.0 L169.9 90.7 L170.0 90.5 L170.1 90.4 L170.2 90.2 L170.1 90.0 L170.1 90.0 L170.3 90.0 L170.4 90.0 L170.6 89.9 L171.2 89.5 L171.4 89.3 L171.7 89.2 L172.0 89.0 L172.4 88.7 L173.9 87.0 L174.3 86.5 L174.8 85.5 L174.8 85.3 L174.8 85.1 L174.8 85.1 L174.7 85.1 L174.7 85.0 L174.8 84.9 L174.8 84.6 L174.8 84.5 L174.6 84.4 L174.6 84.2 L174.5 84.1 L174.5 84.0 L174.5 83.6 L174.5 83.5 L174.4 83.4 L174.3 83.4 L174.3 83.5 L174.2 83.5 L174.1 83.4 L174.1 83.2 L174.2 83.1 L174.3 82.9 L174.4 82.8 L174.3 82.8 L174.4 82.7 L174.5 82.5 L174.6 82.4 L174.5 82.3 L174.5 82.1 L174.7 81.9 L174.9 81.8 L175.4 81.6 L175.7 81.5 L175.8 81.6 L176.1 81.6 L176.9 81.2 L177.1 81.2 L177.2 81.0 L177.4 80.9 L178.4 80.7 L178.7 80.6 L179.0 80.7 L179.1 80.8 L179.1 80.9 L179.1 81.0 L179.2 81.1 L179.1 81.2 L179.1 81.2 L178.9 81.3 L178.8 81.3 L178.6 81.3 L178.5 81.3 L178.4 81.4 L178.3 81.5 L178.3 81.7 L178.4 81.9 L178.5 81.9 L178.5 82.0 L178.5 82.1 L178.4 82.2 L178.3 82.3 L178.2 82.4 L178.1 82.4 L177.7 82.3 L177.3 82.4 L177.2 82.6 L177.1 82.8 L177.1 82.9 L176.9 83.0 L176.8 83.0 L176.7 83.1 L176.6 83.2 L176.4 83.1 L176.2 83.0 L176.1 82.9 L176.2 82.8 L176.2 82.8 L176.2 82.8 L176.1 82.9 L176.0 82.9 L176.0 82.9 L175.9 83.1 L175.7 83.2 L175.7 83.5 L175.8 83.5 L175.7 83.6 L175.7 83.7 L175.6 83.7 L175.6 83.9 L175.5 83.9 L175.6 84.0 L175.7 84.0 L175.9 83.9 L176.0 83.9 L176.3 84.1 L176.4 84.2 L176.6 84.1 L176.7 83.8 L176.8 83.8 L176.9 83.8 L176.9 83.9 L176.9 84.3 L176.9 84.8 L176.7 85.0 L176.7 85.1 L176.4 85.5 L176.6 85.7 L176.9 85.9 L177.1 86.1 L177.5 86.1 L177.7 86.3 L178.0 86.3 L178.3 86.2 L178.7 86.3 L179.0 86.3 L179.1 86.1 L179.3 86.0 L179.4 85.8 L179.5 85.6 L179.6 85.5 L179.6 85.4 L179.6 85.3 L179.7 85.1 L179.8 85.0 L180.2 84.8 L180.8 84.7 L181.5 84.6 L182.5 84.3 L183.1 84.1 L183.9 83.7 L184.3 83.6 L184.4 83.4 L184.6 83.3 L185.1 83.3 L185.4 83.3 L185.7 83.2 L186.3 82.8 L187.1 82.1 L187.9 81.7 L188.1 81.6 L188.2 81.3 L188.4 81.0 L188.7 80.7 L189.1 80.4 L189.3 80.1 L189.5 79.9 L189.8 78.9 L189.9 78.7 L190.2 78.4 L190.7 78.1 L191.6 77.6 L191.7 77.5 L191.9 77.5 L192.2 77.5 L192.8 77.2 L193.0 77.2 L193.4 76.9 L194.2 76.2 L194.3 76.1 L194.4 75.9 L194.6 74.4 L194.7 74.1 L194.8 73.8 L195.1 73.4 L195.5 72.7 L195.6 72.4 L195.8 72.2 L196.5 71.7 L196.7 71.5 L196.9 71.2 L197.2 70.3 L197.5 69.6 L197.6 69.4 L197.6 69.1 L197.7 69.0 L197.7 68.9 L197.8 68.7 L197.8 68.4 L197.8 68.2 L197.9 67.9 L198.0 67.7 L198.3 67.6 L198.5 67.4 L198.7 66.8 L198.9 66.1 L199.0 64.7 L199.0 64.5 L198.8 64.2 L198.8 64.0 L198.7 63.8 L198.6 63.6 L198.3 63.4 L198.0 63.2 L197.6 63.3 L197.5 63.4 L197.5 63.4 L197.4 63.5 L197.3 63.5 L196.8 63.5 L196.7 63.5 L196.6 63.3 L196.6 63.2 L196.4 63.1 L196.4 62.9 L196.5 62.9 L196.3 62.8 L196.3 62.6 L196.3 62.5 L196.7 62.6 L197.1 62.8 L197.2 62.8 L197.6 62.6 L197.8 62.4 L198.4 61.6 L198.5 61.3 L198.5 61.1 L198.6 60.9 L198.6 60.8 L198.7 60.1 L198.7 59.9 L198.6 59.8 L198.5 59.7 L198.3 59.5 L198.1 59.4 L198.1 59.3 L198.1 59.0 L198.1 58.7 L198.1 58.5 L198.0 58.4 L198.0 58.3 L197.9 58.2 L197.6 58.2 L197.5 58.2 L197.5 58.0 L197.7 57.9 L197.8 57.8 L198.0 57.8 L198.1 57.6 L198.2 57.5 L198.3 57.4 L198.4 57.2 L198.5 57.1 L198.9 56.9 L199.1 56.9 L199.2 57.0 L199.3 57.0 L199.4 57.0 L199.6 57.0 L199.7 56.9 L200.0 56.7 L200.1 56.8 L200.3 56.8 L200.4 56.7 L200.5 56.5 L200.7 56.1 L200.8 55.6 L200.9 55.5 L200.9 55.3 L200.9 55.2 L200.9 55.0 L200.9 55.0 L201.0 55.1 L201.1 55.2 L201.2 55.2 L201.3 55.3 L201.3 55.3 L201.3 55.1 L201.3 55.0 L201.3 55.0 L201.4 54.9 L201.5 55.0 L201.5 55.0 L201.5 54.9 L201.5 54.9 L201.3 54.9 L201.2 54.9 L201.1 54.9 L201.1 54.8 L201.0 54.8 L201.0 54.8 L200.9 54.9 L200.9 54.8 L200.9 54.6 L200.9 54.6 L200.7 54.3 L200.6 54.3 L200.5 54.3 L200.4 54.3 L200.3 54.2 L200.4 54.1 L200.6 54.1 L200.8 54.2 L200.9 54.1 L201.0 53.9 L201.0 53.8 L201.0 53.7 L201.0 53.6 L201.0 53.4 L201.0 53.4 L201.0 53.3 L201.1 53.2 L201.2 53.3 L201.3 53.4 L201.4 53.4 L201.5 53.5 L201.7 53.7 L201.9 53.8 L202.1 53.8 L202.3 53.7 L202.4 53.6 L202.6 53.5 L202.9 53.5 L203.2 53.7 L203.3 53.9 L203.2 54.1 L203.2 54.3 L203.2 54.4 L203.2 54.5 L203.2 54.6 L203.2 54.9 L203.3 55.1 L203.5 55.9 L203.7 56.2 L204.1 56.4 L204.4 56.3 L204.6 56.1 L204.8 56.0 L204.9 55.8 L204.9 55.7 L204.9 55.7 L204.9 55.6 L204.9 55.6 L204.9 55.6 L204.8 55.6 L204.8 55.5 L204.7 55.5 L204.8 55.5 L204.9 55.5 L204.8 55.4 L204.9 55.4 L204.9 55.3 L204.9 55.3 L204.9 55.2 L205.0 55.1 L205.1 55.1 L205.2 55.1 L205.3 55.2 L205.4 55.2 L205.5 55.2 L205.6 55.3 L205.6 55.4 L205.7 55.5 L205.7 55.5 L205.7 55.5 L205.7 55.5 L205.7 55.6 L205.7 55.6 L205.7 55.6 L205.8 55.6 L206.0 55.7 L206.1 55.8 L206.2 55.8 L206.3 55.8 L206.4 55.8 L206.4 55.9 L206.5 56.0 L206.6 56.0 L206.7 56.1 L206.8 56.1 L207.0 56.1 L207.1 56.0 L207.2 55.8 L207.5 55.3 L207.6 55.0 L207.7 54.6 L207.7 54.4 L207.7 54.4 L207.7 54.3 L207.8 54.2 L207.9 54.2 L207.9 54.0 L207.9 53.8 L207.8 53.6 L207.6 53.4 L207.4 53.2 L207.2 53.1 L207.1 53.1 L207.0 53.2 L206.9 53.3 L206.9 53.4 L206.9 53.4 L206.9 53.4 L207.0 53.3 L207.0 53.3 L207.0 53.3 L207.0 53.3 L207.0 53.3 L207.0 53.4 L206.7 53.6 L206.6 53.6 L206.4 53.7 L206.3 53.8 L206.1 53.8 L205.9 53.7 L205.8 53.7 L205.7 53.7 L205.6 53.8 L205.5 53.9 L205.2 53.9 L205.1 54.0 L205.0 53.9 L204.9 54.0 L204.6 54.1 L204.5 54.2 L204.4 54.2 L204.2 54.1 L204.2 53.8 L204.2 53.7 L204.3 53.6 L204.3 53.4 L204.3 53.3 L204.4 53.1 L204.4 52.9 L204.4 52.8 L204.4 52.7 L204.5 52.7 L204.6 52.5 L204.6 52.3 L204.7 52.1 L204.8 52.0 L205.0 51.7 L205.1 51.7 L205.2 51.6 L205.2 51.5 L205.2 51.4 L205.1 51.3 L205.2 51.3 L205.2 51.2 L205.2 51.2 L205.3 51.3 L205.5 51.3 L205.6 51.4 L205.7 51.5 L205.8 51.6 L205.9 51.6 L206.0 51.6 L206.4 51.6 L206.7 51.8 L206.9 52.0 L207.0 52.1 L207.2 52.2 L207.2 52.2 L207.3 52.3 L207.6 52.5 L207.9 52.6 L208.2 52.6 L208.4 52.5 L208.7 52.4 L208.9 52.3 L209.0 52.2 L209.2 52.1 L209.3 52.0 L209.3 52.0 L209.3 52.1 L209.3 52.1 L209.3 52.2 L209.3 52.2 L209.2 52.3 L209.2 52.3 L209.3 52.3 L209.2 52.4 L209.1 52.5 L209.1 52.6 L209.0 52.7 L209.0 52.9 L208.9 53.3 L208.8 53.5 L208.8 53.5 L208.7 54.0 L208.8 54.2 L208.8 54.2 L208.8 54.3 L208.8 54.4 L208.8 54.5 L208.7 54.9 L208.7 55.3 L208.7 55.6 L208.8 55.7 L208.9 56.5 L209.0 57.2 L209.1 57.6 L209.3 58.1 L209.4 58.3 L209.5 58.4 L209.7 58.6 L209.8 58.6 L209.9 58.6 L210.0 58.5 L210.1 58.5 L210.1 58.6 L210.2 58.7 L210.5 58.8 L210.9 59.2 L210.9 59.3 L211.2 59.5 L211.2 59.6 L211.3 59.7 L211.4 59.8 L211.4 59.9 L211.5 60.1 L211.6 60.1 L211.6 60.2 L211.6 60.2 L211.8 60.4 L212.0 60.7 L212.1 60.8 L212.0 60.9 L211.9 61.0 L211.9 61.0 L211.8 61.1 L211.8 61.2 L211.9 61.2 L212.1 61.3 L212.2 61.3 L212.3 61.5 L212.2 61.6 L212.1 61.7 L212.0 61.8 L212.1 62.0 L212.2 62.1 L212.6 62.4 L212.7 62.5 L212.8 62.5 L212.8 62.5 L212.9 62.7 L212.9 62.8 L212.9 62.8 L212.9 62.9 L212.8 63.0 L212.8 63.1 L212.9 63.2 L212.9 63.2 L213.0 63.3 L213.0 63.4 L213.0 63.6 L213.1 63.7 L213.2 64.1 L213.3 64.2 L213.2 64.2 L213.3 64.3 L213.3 64.3 L213.3 64.4 L213.2 64.4 L213.2 64.5 L213.1 64.7 L213.1 65.0 L213.1 65.1 L213.0 65.2 L212.9 65.3 L213.0 65.4 L213.3 65.2 L213.5 65.1 L213.4 65.2 L213.4 65.3 L213.4 65.3 L213.5 65.3 L213.4 65.5 L213.4 65.6 L213.6 65.7 L213.7 65.7 L213.7 65.8 L213.7 65.8 L213.7 65.9 L213.7 65.9 L213.7 65.9 L213.6 66.0 L213.6 66.0 L213.3 66.3 L213.2 66.3 L213.0 66.4 L212.9 66.5 L213.0 66.6 L213.2 66.6 L213.4 66.5 L213.4 66.3 L213.5 66.3 L213.6 66.3 L213.6 66.4 L213.6 66.5 L213.5 66.5 L213.5 66.6 L213.5 66.7 L213.4 66.8 L213.3 66.8 L213.2 66.8 L213.2 66.8 L213.1 66.8 L213.0 66.9 L212.8 67.0 L212.8 67.0 L213.0 67.1 L212.9 67.2 L212.7 67.3 L212.5 67.4 L212.7 67.5 L212.8 67.4 L213.0 67.3 L213.1 67.3 L213.1 67.4 L212.9 67.5 L212.6 67.7 L212.6 67.7 L212.7 67.8 L212.7 67.8 L212.7 67.8 L212.5 67.8 L212.5 67.8 L212.5 67.9 L212.5 68.0 L212.7 68.0 L212.8 68.0 L212.8 68.0 L212.8 68.2 L212.7 68.3 L212.5 68.3 L212.3 68.3 L212.3 68.4 L212.4 68.5 L212.7 68.5 L212.6 68.6 L212.4 68.7 L212.3 68.7 L212.1 68.7 L212.2 68.8 L212.5 69.0 L212.6 69.1 L212.4 69.2 L212.0 69.1 L211.9 69.2 L212.2 69.3 L212.3 69.4 L212.2 69.4 L212.1 69.4 L212.0 69.4 L211.9 69.4 L211.9 69.5 L212.0 69.5 L212.1 69.6 L212.2 69.6 L212.1 69.7 L211.8 69.6 L211.5 69.7 L211.3 69.6 L211.2 69.6 L211.2 69.7 L211.3 69.8 L211.3 69.8 L211.4 69.9 L211.3 69.9 L211.2 69.9 L211.1 70.0 L211.2 70.1 L211.3 70.1 L211.2 70.2 L211.1 70.2 L211.0 70.2 L210.9 70.1 L210.9 70.1 L210.8 70.0 L210.9 69.9 L211.0 69.9 L210.7 69.9 L210.6 69.9 L210.6 70.1 L210.6 70.4 L210.8 70.8 L210.8 70.9 L210.7 70.8 L210.6 70.8 L210.6 70.7 L210.6 70.7 L210.5 70.6 L210.5 70.6 L210.5 70.7 L210.4 70.7 L210.3 70.7 L210.2 70.7 L210.2 70.8 L210.2 70.9 L210.2 71.0 L210.2 71.1 L210.2 71.2 L210.1 71.3 L209.8 71.4 L209.7 71.5 L209.8 71.6 L209.8 71.6 L209.9 71.7 L210.0 71.8 L210.1 71.9 L210.0 72.0 L210.0 72.0 L209.9 72.0 L209.9 72.0 L209.9 72.0 L209.8 72.0 L209.7 72.1 L209.7 72.2 L209.5 72.2 L209.4 72.2 L209.3 72.3 L209.3 72.4 L209.4 72.4 L209.4 72.5 L209.8 72.5 L209.8 72.5 L209.8 72.6 L209.7 72.7 L209.6 72.8 L209.3 73.0 L209.4 73.1 L209.5 73.2 L209.7 73.3 L209.8 73.1 L209.9 73.3 L209.9 73.4 L209.9 73.5 L209.9 73.6 L209.8 73.6 L209.7 73.6 L209.7 73.5 L209.7 73.4 L209.6 73.7 L209.5 73.8 L209.6 73.8 L209.6 73.8 L209.6 73.9 L209.6 73.9 L209.4 73.9 L209.3 74.0 L209.3 74.0 L209.4 74.1 L209.4 74.2 L209.4 74.2 L209.5 74.3 L209.5 74.2 L209.7 74.2 L209.8 74.3 L209.9 74.3 L209.8 74.3 L209.7 74.3 L209.6 74.3 L209.6 74.4 L209.7 74.5 L209.8 74.7 L209.8 74.8 L209.9 75.0 L209.8 75.0 L209.7 75.2 L209.7 75.2 L209.5 75.0 L209.4 75.0 L209.3 75.0 L209.3 75.0 L209.3 74.9 L209.3 74.9 L209.3 74.8 L209.3 74.8 L209.2 74.7 L209.0 74.7 L209.0 74.6 L209.1 74.4 L209.0 74.4 L209.0 74.4 L208.9 74.4 L208.8 74.4 L208.7 74.4 L208.6 74.3 L208.5 74.2 L208.3 74.2 L208.1 74.2 L207.6 74.3 L207.4 74.3 L207.2 74.5 L207.1 74.6 L207.2 74.8 L207.1 74.8 L207.0 74.8 L207.0 74.8 L206.8 74.4 L206.8 74.5 L206.7 74.5 L206.7 74.5 L206.6 74.4 L206.5 74.5 L206.4 74.6 L206.3 74.8 L206.2 74.9 L206.3 74.9 L206.4 74.9 L206.5 74.9 L206.5 75.0 L206.5 75.0 L206.4 75.0 L206.3 75.1 L206.3 75.1 L206.0 75.4 L205.8 75.7 L205.6 75.9 L205.3 76.8 L205.3 77.1 L205.3 77.4 L205.4 78.0 L205.4 78.0 L205.6 78.3 L205.8 78.6 L205.9 78.9 L205.9 79.0 L206.0 79.1 L206.0 79.2 L206.0 79.3 L206.0 79.4 L205.9 79.5 L205.9 79.5 L206.0 79.6 L206.1 79.7 L206.1 79.8 L206.2 81.7 L206.1 82.0 L206.0 82.5 L206.0 82.7 L205.9 82.8 L205.9 83.5 L205.9 83.6 L205.8 83.9 L205.7 84.5 L205.6 84.8 L205.3 85.0 L205.3 85.0 L205.1 85.0 L204.8 85.1 L204.7 85.2 L204.6 85.3 L204.5 85.3 L204.4 85.3 L204.4 85.4 L204.4 85.6 L204.4 85.6 L204.4 85.7 L204.1 86.1 L204.0 86.2 L203.6 87.3 L203.2 87.9 L203.1 88.1 L203.0 88.7 L203.0 88.8 L203.1 89.1 L203.1 89.2 L203.1 89.4 L202.8 89.6 L202.7 89.8 L202.7 90.0 L202.8 90.7 L203.0 91.1 L203.3 91.7 L204.3 93.3 L204.6 93.6 L204.7 93.7 L204.8 93.8 L204.8 93.8 L204.9 93.8 L205.0 93.8 L205.0 93.9 L204.9 94.1 L204.9 94.1 L204.8 94.1 L204.7 94.0 L204.6 93.9 L204.4 94.0 L204.2 94.1 L203.8 94.2 L203.8 94.1 L203.4 94.1 L202.9 94.4 L202.1 95.0 L201.6 95.6 L201.4 96.4 L201.5 96.8 L201.6 97.0 L201.5 97.3 L201.5 97.6 L201.4 97.7 L201.3 97.9 L201.1 97.9 L201.0 98.0 L201.0 98.1 L200.9 98.2 L200.8 98.2 L200.7 98.1 L200.6 98.2 L200.4 98.2 L200.3 98.4 L200.0 98.3 L199.7 98.3 L199.5 98.3 L199.3 98.5 L199.3 98.6 L199.1 98.7 L198.9 98.8 L198.7 98.9 L198.5 99.0 L198.4 99.1 L198.4 99.3 L198.3 99.4 L198.3 99.5 L198.3 99.6 L198.2 99.7 L198.1 99.8 L198.0 99.9 L197.8 99.9 L197.7 99.9 L197.6 99.9 L197.5 99.9 L197.4 99.9 L197.4 99.9 L197.2 99.8 L197.3 99.8 L197.2 99.7 L197.2 99.6 L196.9 99.5 L196.8 99.5 L196.7 99.4 L196.7 99.4 L196.8 99.4 L197.0 99.4 L197.0 99.4 L197.1 99.4 L197.2 99.3 L197.3 99.3 L197.4 99.2 L197.5 99.3 L197.6 99.3 L197.6 99.2 L197.6 99.1 L197.5 99.0 L197.3 99.0 L197.3 98.9 L197.4 98.8 L197.4 98.8 L197.4 98.7 L197.4 98.5 L197.3 98.5 L197.3 98.2 L197.2 98.0 L197.2 97.9 L197.2 97.8 L197.3 97.7 L197.5 97.6 L197.6 97.5 L197.6 97.4 L197.4 97.2 L197.4 97.0 L197.1 96.9 L196.9 96.9 L196.9 96.8 L197.1 96.9 L197.3 96.8 L197.3 96.6 L197.4 96.5 L197.4 96.4 L197.8 96.5 L197.9 96.4 L197.9 96.3 L197.8 96.1 L197.9 96.0 L198.1 95.9 L198.2 95.8 L198.4 95.8 L198.6 95.7 L198.7 95.6 L198.8 95.4 L199.1 95.2 L199.2 95.2 L199.3 95.1 L199.3 95.0 L199.2 95.0 L199.2 94.9 L199.1 94.8 L199.0 94.7 L198.9 94.6 L198.8 94.5 L198.6 94.3 L198.5 94.4 L198.4 94.3 L198.2 94.2 L198.0 94.3 L198.1 94.5 L197.9 94.6 L197.8 94.7 L197.7 94.6 L197.7 94.6 L197.6 94.6 L197.5 94.5 L197.4 94.5 L197.4 94.6 L197.3 94.7 L197.2 94.6 L197.2 94.5 L197.1 94.5 L197.1 94.6 L197.0 94.8 L196.9 94.7 L196.9 94.5 L196.8 94.4 L196.8 94.5 L196.8 94.8 L197.0 94.9 L197.0 95.0 L197.1 95.2 L197.0 95.3 L197.0 95.4 L197.0 95.4 L196.9 95.5 L196.7 95.6 L196.4 95.8 L196.3 95.8 L196.1 95.8 L196.0 95.8 L195.9 95.9 L196.1 95.9 L196.2 96.0 L196.2 96.0 L196.2 96.1 L196.2 96.2 L196.2 96.2 L196.0 96.2 L195.9 96.2 L195.9 96.3 L196.0 96.4 L196.0 96.7 L196.0 96.8 L196.0 96.9 L196.0 97.0 L196.0 97.1 L196.1 97.0 L196.2 97.0 L196.3 97.2 L196.6 97.2 L196.7 97.4 L196.5 97.5 L196.6 97.5 L196.6 97.5 L196.6 97.6 L196.5 97.7 L196.3 97.6 L196.1 97.8 L196.1 97.9 L196.1 98.0 L196.2 98.1 L196.2 98.2 L196.2 98.2 L196.1 98.2 L195.9 98.2 L195.8 98.2 L195.7 98.2 L195.7 98.1 L195.7 98.1 L195.7 97.9 L195.6 97.7 L195.8 97.6 L195.8 97.6 L195.6 97.5 L195.6 97.4 L195.4 97.2 L195.4 97.2 L195.3 97.1 L195.2 97.1 L195.2 96.9 L195.1 97.0 L194.9 97.0 L194.8 97.0 L194.6 96.9 L194.2 96.8 L193.6 96.9 L193.3 97.0 L192.9 97.1 L192.6 97.3 L192.3 97.5 L192.3 97.8 L192.4 98.2 L192.1 98.1 L191.9 98.4 L191.8 98.6 L191.8 98.8 L192.0 98.8 L192.0 99.0 L191.9 99.1 L191.8 99.2 L191.9 99.4 L192.2 99.4 L192.3 99.6 L192.3 99.9 L192.2 100.1 L192.1 100.2 L191.9 100.2 L191.9 100.3 L191.8 100.4 L191.8 100.6 L191.6 100.7 L191.6 100.8 L191.5 100.9 L191.4 100.9 L191.3 101.0 L191.3 101.0 L191.2 101.1 L191.2 101.2 L191.2 101.3 L191.1 101.4 L191.1 101.5 L191.1 101.6 L191.2 101.8 L191.1 101.8 L191.0 101.8 L190.9 101.7 L190.8 101.7 L190.4 101.9 L190.2 102.0 L190.0 102.1 L189.9 102.1 L189.8 102.0 L189.7 101.9 L189.5 101.8 L189.6 101.7 L189.5 101.6 L189.5 101.6 L189.4 101.5 L189.4 101.5 L189.3 101.4 L189.3 101.3 L189.3 101.2 L189.4 101.1 L189.5 101.0 L189.5 101.0 L189.4 100.8 L189.4 100.6 L189.4 100.4 L189.5 100.3 L189.4 100.3 L189.4 100.1 L189.4 100.1 L189.5 100.0 L189.6 99.9 L189.7 99.9 L189.6 99.8 L189.5 99.7 L189.5 99.5 L189.5 99.3 L189.6 99.2 L189.6 99.0 L189.9 99.0 L190.1 99.0 L190.3 99.0 L190.4 99.0 L190.5 99.0 L190.1 98.6 L190.0 98.5 L189.8 98.3 L189.3 98.2 L189.0 98.2 L188.7 98.3 L188.5 98.3 L188.2 98.3 L187.9 98.5 L187.7 98.8 L187.5 98.9 L187.5 99.2 L187.6 99.2 L187.6 99.1 L187.7 99.0 L187.8 99.1 L187.6 99.3 L187.3 99.5 L187.0 99.6 L186.8 99.7 L186.6 99.8 L186.5 99.9 L186.4 100.0 L186.3 100.1 L186.3 100.2 L186.3 100.3 L186.4 100.5 L186.3 100.6 L186.2 100.7 L186.0 100.9 L185.7 101.1 L185.5 101.3 L185.3 101.7 L185.3 101.8 L185.3 102.0 L185.5 102.0 L185.6 102.1 L185.6 102.2 L185.3 102.1 L184.2 101.7 L183.6 101.6 L183.1 101.6 L182.3 101.8 L181.5 101.6 L180.9 101.6 L180.5 101.6 L179.7 101.6 L179.0 101.8 L177.6 102.2 L177.2 102.2 L176.9 102.3 L176.8 102.3 L176.7 102.3 L176.7 102.2 L176.7 102.1 L176.8 102.0 L176.9 101.8 L177.1 101.6 L177.3 101.8 L177.3 101.9 L177.3 101.9 L177.4 101.9 L177.4 101.8 L177.5 101.8 L177.7 101.7 L177.8 101.7 L178.0 101.6 L178.3 101.4 L178.4 101.4 L178.6 101.2 L178.7 101.2 L178.7 101.3 L178.7 101.4 L178.8 101.5 L178.8 101.3 L178.8 101.2 L179.0 101.2 L179.0 101.2 L178.8 101.1 L178.9 101.0 L178.9 100.9 L178.9 100.8 L178.7 100.7 L178.6 100.6 L178.5 100.6 L178.3 100.6 L178.2 100.5 L178.1 100.6 L178.0 100.6 L177.9 100.7 L177.9 100.9 L177.8 100.9 L177.8 100.8 L177.7 100.8 L177.6 100.7 L177.4 100.7 L177.3 100.8 L177.2 100.8 L177.1 100.8 L176.9 100.8 L176.7 100.8 L176.7 100.8 L176.5 100.6 L176.5 100.6 L176.4 100.5 L176.2 100.4 L176.3 100.2 L176.4 99.9 L176.4 99.7 L176.3 99.8 L176.2 100.0 L176.1 100.2 L176.0 100.3 L176.0 100.4 L175.9 100.8 L176.0 100.9 L176.1 101.0 L176.3 101.1 L176.3 101.3 L176.3 101.4 L176.1 101.4 L175.9 101.3 L175.6 101.2 L175.5 101.1 L175.4 101.0 L175.4 100.9 L175.5 100.7 L175.5 100.6 L175.5 100.5 L175.5 100.4 L175.5 100.2 L175.4 100.1 L175.3 100.1 L175.2 99.9 L175.2 99.8 L175.2 99.6 L175.2 99.5 L175.3 99.4 L175.4 99.3 L175.5 99.1 L175.5 99.0 L175.7 98.9 L175.7 98.7 L175.7 98.5 L175.6 98.5 L175.5 98.7 L175.4 98.9 L175.4 98.7 L175.4 98.6 L175.3 98.6 L175.4 98.9 L175.2 99.0 L175.1 98.8 L175.1 98.8 L175.0 99.0 L174.9 99.0 L174.7 99.0 L174.7 99.0 L174.5 99.0 L174.2 99.2 L174.0 99.3 L174.0 99.4 L174.0 99.5 L173.9 99.5 L173.9 99.6 L173.9 99.6 L174.1 99.6 L173.9 99.7 L174.0 99.8 L173.9 100.0 L173.7 100.3 L173.3 100.6 L173.1 100.9 L173.1 101.2 L173.0 101.4 L173.0 101.5 L173.0 101.6 L173.1 101.7 L173.1 101.7 L173.2 101.7 L173.2 101.8 L173.2 101.9 L173.2 102.0 L173.2 102.1 L173.4 102.1 L173.7 102.1 L173.8 102.2 L174.0 102.3 L174.1 102.4 L174.2 102.5 L174.7 102.8 L175.1 102.9 L175.2 103.0 L175.2 102.9 L175.4 102.9 L175.4 103.0 L175.5 103.0 L175.6 103.1 L175.6 103.2 L175.6 103.2 L175.7 103.3 L175.8 103.3 L175.8 103.3 L175.9 103.3 L176.0 103.4 L176.0 103.5 L175.9 103.8 L175.8 103.7 L175.7 103.7 L175.7 103.7 L175.6 103.8 L175.7 103.9 L175.7 103.9 L175.8 103.9 L175.9 103.9 L175.8 104.0 L175.7 104.1 L175.7 104.1 L175.7 104.2 L175.8 104.3 L175.8 104.4 L175.8 104.6 L175.7 104.6 L175.4 104.7 L175.3 104.7 L175.2 104.7 L175.0 104.7 L174.9 104.6 L174.9 104.5 L175.0 104.5 L175.1 104.5 L175.3 104.6 L175.4 104.6 L175.4 104.6 L175.3 104.5 L175.3 104.5 L175.4 104.5 L175.5 104.4 L175.4 104.3 L175.3 104.2 L175.1 104.3 L175.1 104.3 L175.1 104.3 L175.1 104.4 L175.1 104.4 L174.9 104.3 L174.7 104.3 L174.5 104.4 L174.4 104.4 L174.4 104.2 L174.5 104.1 L174.4 104.1 L174.2 104.1 L174.0 104.2 L174.1 104.2 L174.1 104.3 L174.0 104.4 L173.8 104.5 L173.7 104.6 L173.5 104.6 L173.4 104.5 L173.4 104.5 L173.3 104.5 L173.3 104.6 L173.3 104.6 L173.1 104.5 L173.0 104.5 L173.0 104.6 L173.0 104.7 L172.9 104.7 L173.0 104.8 L172.9 104.8 L172.7 104.8 L172.3 105.0 L172.3 105.0 L172.0 105.0 L171.7 105.2 L171.4 105.4 L171.4 105.6 L171.5 105.7 L171.5 105.7 L171.5 105.7 L171.5 105.8 L171.5 105.9 L171.4 105.9 L171.3 105.9 L171.3 105.9 L171.2 105.9 L171.1 105.7 L171.0 105.7 L171.0 105.8 L170.9 105.9 L170.8 106.0 L170.8 106.0 L170.9 106.0 L171.0 106.0 L171.0 106.1 L171.0 106.2 L171.2 106.3 L171.2 106.4 L171.2 106.4 L171.2 106.5 L171.2 106.7 L171.2 106.7 L171.1 106.8 L171.0 106.7 L170.9 106.6 L170.9 106.6 L170.8 106.7 L170.7 106.7 L170.7 106.8 L170.9 106.8 L170.9 106.9 L170.9 107.0 L170.7 106.9 L170.7 107.1 L170.7 107.1 L170.4 107.1 L170.4 107.2 L170.3 107.2 L170.2 107.3 L170.2 107.3 L170.1 107.3 L170.0 107.3 L169.7 107.6 L169.3 108.5 L169.1 108.8 L169.1 108.8 L169.1 109.1 L168.9 109.1 L168.9 109.3 L168.7 109.3 L168.7 109.4 L168.9 109.5 L168.8 109.6 L168.6 109.8 L168.4 109.9 L168.4 110.0 L167.9 110.1 L167.8 110.2 L167.7 110.2 L167.6 110.4 L167.7 110.5 L167.6 110.6 L167.5 110.6 L167.4 110.7 L167.4 110.5 L167.5 110.4 L167.5 110.3 L166.8 110.3 L166.5 110.2 L165.5 109.9 L165.1 109.8 L164.9 109.6 L164.8 109.6 L164.7 109.5 L164.7 109.4 L164.7 109.3 L164.7 109.2 L164.6 109.1 L164.6 109.1 L164.5 109.1 L164.4 109.0 L164.3 108.9 L164.4 108.8 L164.6 108.7 L164.8 108.7 L164.7 108.6 L164.4 108.4 L164.2 108.3 L164.1 108.2 L164.0 108.3 L163.8 108.1 L163.6 108.1 L163.5 108.0 L163.3 107.9 L163.1 107.7 L163.0 107.4 L162.7 107.3 L162.6 107.3 L162.3 107.4 L162.3 107.4 L162.3 107.3 L162.3 107.3 L162.3 107.2 L162.3 107.2 L162.4 107.2 L162.4 107.1 L162.4 107.0 L162.5 106.9 L162.6 106.9 L162.6 106.8 L162.4 106.8 L162.4 106.7 L162.5 106.6 L162.7 106.6 L162.8 106.5 L163.0 106.4 L163.0 106.3 L163.1 106.2 L163.0 106.2 L162.8 106.1 L162.7 106.0 L162.6 106.0 L162.7 105.8 L162.7 105.8 L162.8 105.7 L162.8 105.7 L162.8 105.7 L162.8 105.6 L162.8 105.5 L163.0 105.5 L163.2 105.5 L163.3 105.4 L163.2 105.3 L163.1 105.2 L163.0 105.2 L162.9 104.8 L162.7 104.7 L162.5 104.6 L162.3 104.6 L162.4 104.4 L162.6 104.2 L163.4 104.0 L163.7 103.8 L163.9 103.6 L164.2 103.4 L164.5 103.1 L164.6 103.0 L164.6 102.8 L164.6 102.7 L164.7 102.7 L164.8 102.6 L164.9 102.6 L164.9 102.4 L164.9 102.3 L164.9 102.0 L164.8 101.9 L164.8 101.7 L164.9 101.4 L164.8 101.5 L164.7 101.5 L164.5 101.5 L164.4 101.3 L164.2 101.3 L164.0 101.3 L164.0 101.5 L163.7 101.6 L163.7 101.4 L163.5 101.5 L163.6 101.7 L163.4 101.7 L163.4 101.6 L163.2 101.6 L163.2 101.7 L162.7 101.8 L162.4 101.9 L162.2 101.9 L162.0 101.8 L161.7 101.8 L161.6 101.8 L161.4 101.6 L161.2 101.5 L161.0 101.4 L160.6 101.2 L160.4 101.2 L160.1 101.0 L160.0 100.9 L159.6 100.8 L158.7 100.9 L158.6 100.9 L158.6 100.9 L158.6 100.8 L158.5 100.9 L158.5 100.9 L158.4 100.9 L158.4 100.9 L158.3 100.9 L158.2 100.9 L158.2 100.9 L158.1 100.9 L158.1 100.7 L158.1 100.8 L158.0 100.8 L158.0 100.8 L158.0 100.9 L158.0 100.9 L157.9 100.9 L157.9 100.9 L157.9 100.9 L157.7 101.2 L157.6 101.2 L157.5 101.2 L157.4 101.2 L157.4 101.1 L157.3 101.1 L157.2 101.1 L157.1 101.2 L157.1 101.3 L157.1 101.3 L156.9 101.4 L156.6 101.3 L156.3 101.3 L156.1 101.2 L156.1 101.2 L156.1 101.3 L156.2 101.3 L156.6 101.4 L156.5 101.4 L156.4 101.4 L156.3 101.4 L156.2 101.6 L156.1 101.7 L156.1 101.7 L156.0 101.7 L155.8 101.8 L155.8 101.8 L155.7 101.8 L155.7 101.9 L155.8 101.9 L155.8 101.9 L155.9 101.8 L155.8 102.0 L155.6 102.1 L155.4 102.2 L155.1 102.3 L155.0 102.2 L154.9 102.1 L154.7 102.1 L154.5 102.1 L154.4 102.1 L154.2 102.2 L154.1 102.2 L154.0 102.3 L154.0 102.4 L154.1 102.4 L154.2 102.4 L154.4 102.2 L154.5 102.2 L154.7 102.1 L154.8 102.2 L154.9 102.3 L154.9 102.4 L154.8 102.5 L154.7 102.5 L154.6 102.6 L154.6 102.6 L154.6 102.6 L154.6 102.7 L154.4 102.6 L154.3 102.8 L154.2 103.0 L154.1 103.2 L153.5 103.1 L153.2 103.1 L153.2 103.3 L153.0 103.3 L152.9 103.1 L152.8 102.9 L152.6 102.8 L152.6 102.8 L152.5 102.8 L152.5 102.7 L152.5 102.6 L152.4 102.7 L152.3 102.7 L152.2 102.7 L152.1 102.8 L151.9 102.8 L151.6 103.0 L151.5 103.0 L151.5 103.1 L151.4 103.1 L151.4 103.1 L151.2 103.2 L151.2 103.2 L151.1 103.2 L151.1 103.3 L150.6 103.4 L150.9 103.1 L151.0 103.0 L150.9 102.9 L150.8 102.9 L150.6 103.0 L150.5 103.1 L150.3 103.1 L150.3 103.1 L150.2 103.2 L150.3 103.3 Z M240.9 37.6 L240.9 37.7 L241.2 37.7 L241.3 37.8 L241.2 37.8 L241.2 37.8 L241.0 37.8 L240.9 37.9 L240.8 38.0 L240.7 38.1 L240.4 38.1 L240.4 38.1 L240.2 38.2 L240.2 38.2 L239.9 38.2 L239.8 38.2 L239.8 38.3 L239.7 38.3 L239.7 38.4 L239.5 38.5 L239.4 38.6 L239.4 38.7 L239.3 38.9 L239.3 39.0 L239.2 39.0 L239.0 39.2 L239.1 39.3 L239.0 39.3 L238.9 39.3 L238.7 39.2 L238.5 39.1 L238.4 39.2 L238.2 39.2 L237.4 39.2 L237.3 39.3 L237.1 39.4 L236.9 39.5 L236.4 39.5 L236.2 39.6 L236.1 39.6 L236.1 39.7 L236.1 39.8 L236.2 39.9 L236.3 39.9 L236.5 39.9 L236.4 40.0 L236.3 40.0 L236.0 40.0 L236.0 40.1 L236.0 40.1 L236.0 40.2 L235.8 40.2 L235.6 40.2 L235.2 40.2 L235.4 40.3 L235.4 40.4 L235.4 40.5 L235.3 40.6 L235.2 40.6 L234.7 40.7 L234.5 40.6 L234.3 40.6 L234.1 40.4 L234.1 40.4 L234.1 40.3 L234.1 40.2 L233.9 40.2 L233.8 40.2 L233.8 40.2 L233.7 40.1 L233.7 40.2 L233.6 40.2 L233.6 40.3 L233.5 40.3 L233.4 40.4 L233.4 40.4 L233.3 40.6 L233.3 40.6 L233.3 40.7 L233.4 40.8 L233.5 40.9 L233.6 41.0 L233.3 41.0 L232.3 40.9 L231.7 40.9 L231.5 41.0 L231.3 41.0 L230.8 40.8 L230.7 40.8 L230.6 40.7 L230.6 40.7 L230.6 40.6 L230.5 40.5 L230.4 40.5 L230.3 40.5 L229.2 40.7 L228.2 41.0 L227.1 41.6 L226.3 42.3 L225.2 43.0 L224.8 43.4 L223.8 44.5 L223.1 45.5 L223.0 45.8 L222.9 46.1 L223.0 46.6 L223.0 46.7 L223.0 46.9 L223.0 47.0 L222.8 47.6 L222.7 47.8 L222.5 47.9 L222.4 48.3 L222.3 48.4 L222.2 48.3 L222.0 48.2 L221.9 48.1 L221.8 48.0 L221.7 47.9 L221.6 47.8 L221.4 47.6 L220.3 47.1 L218.8 46.7 L217.2 46.0 L216.6 45.8 L215.3 45.1 L214.8 44.8 L214.4 44.5 L213.7 44.4 L213.1 44.1 L212.7 43.7 L212.5 43.7 L212.4 43.6 L211.9 43.4 L211.2 43.3 L210.5 43.3 L209.9 43.4 L209.0 43.7 L207.8 44.4 L207.6 44.5 L207.5 44.6 L207.4 44.6 L207.3 44.6 L207.2 44.6 L207.1 44.6 L206.6 45.0 L206.4 45.1 L206.0 45.5 L205.9 45.6 L205.8 45.6 L205.7 45.6 L205.6 45.6 L205.5 45.6 L205.5 45.6 L205.4 45.5 L205.4 45.4 L205.4 45.4 L205.7 45.4 L205.8 45.4 L205.8 45.3 L205.7 45.3 L205.5 45.2 L205.3 45.1 L205.3 45.1 L205.2 45.0 L205.2 44.7 L203.9 43.7 L203.6 43.6 L203.4 43.6 L202.9 43.6 L202.4 43.6 L202.2 43.6 L201.9 43.7 L201.6 43.9 L201.3 44.1 L200.9 44.7 L200.8 44.9 L200.7 45.3 L200.6 45.6 L200.7 45.9 L200.9 46.1 L201.7 46.4 L201.9 46.6 L202.4 47.0 L202.6 47.1 L202.7 47.0 L203.0 47.0 L203.5 46.9 L203.6 46.9 L203.8 46.8 L204.2 47.1 L204.3 47.3 L204.7 47.7 L204.8 47.7 L205.1 47.9 L205.2 48.0 L205.7 48.5 L205.8 48.5 L206.0 48.6 L206.1 48.6 L206.3 48.7 L206.5 48.7 L206.7 48.8 L207.2 49.2 L207.3 49.3 L207.3 49.4 L206.9 49.4 L206.8 49.4 L206.6 49.5 L206.2 49.9 L205.9 49.9 L205.6 49.9 L205.0 49.6 L204.6 49.5 L204.2 49.5 L203.9 49.7 L203.7 49.7 L203.7 49.6 L203.7 49.5 L203.8 49.4 L203.9 49.3 L203.9 49.2 L203.7 49.1 L203.6 49.1 L203.4 49.1 L203.2 49.2 L203.2 49.3 L203.1 49.6 L203.0 49.8 L202.5 49.9 L202.5 50.0 L202.4 50.0 L202.0 50.1 L201.9 50.2 L201.7 50.4 L201.8 51.0 L201.7 51.3 L201.5 51.4 L200.6 51.6 L200.4 51.7 L200.3 51.8 L200.2 52.0 L200.2 52.1 L200.1 52.2 L199.9 52.2 L199.6 52.1 L199.5 52.1 L199.3 52.1 L199.3 52.1 L199.2 52.1 L199.0 52.0 L198.9 52.0 L198.8 51.9 L198.7 51.8 L198.6 51.5 L198.4 51.1 L198.4 50.9 L198.4 50.7 L198.6 50.5 L198.7 50.1 L199.1 49.6 L199.2 49.3 L199.2 49.3 L199.3 49.3 L199.4 49.3 L199.5 49.2 L199.5 49.1 L199.5 49.0 L199.5 48.9 L199.5 48.9 L199.5 48.8 L199.5 48.8 L199.5 48.7 L199.6 48.7 L199.6 48.6 L199.6 48.5 L199.7 48.5 L199.6 48.3 L199.6 48.2 L199.6 48.1 L199.6 48.0 L199.4 47.7 L199.0 47.2 L198.7 47.1 L198.0 46.8 L197.9 46.7 L197.9 46.6 L197.8 46.6 L197.7 46.4 L197.6 46.4 L197.4 46.3 L197.1 46.1 L197.0 46.0 L196.9 45.8 L196.8 45.5 L196.9 45.4 L197.0 45.3 L197.3 44.9 L197.3 44.7 L197.4 44.4 L197.4 44.1 L197.3 43.5 L197.4 43.2 L197.6 43.0 L197.9 42.9 L198.6 42.8 L198.8 42.8 L198.9 42.7 L199.2 42.4 L199.3 42.4 L199.4 42.4 L199.5 42.4 L199.5 42.3 L199.6 42.3 L199.8 42.0 L199.9 41.9 L200.0 41.9 L200.2 41.9 L200.3 42.2 L200.5 42.2 L200.6 42.3 L200.8 42.2 L200.8 42.0 L200.8 41.8 L200.9 41.8 L201.0 41.7 L201.1 41.6 L201.3 41.3 L201.4 41.2 L201.9 40.8 L202.2 40.6 L202.4 40.5 L202.4 40.4 L202.3 40.3 L202.2 40.2 L202.2 40.0 L202.1 39.9 L201.8 39.5 L201.5 39.3 L201.2 39.1 L201.0 38.9 L201.0 38.7 L201.2 38.1 L201.5 38.1 L201.7 38.1 L201.9 38.0 L201.9 37.9 L201.9 37.9 L202.0 37.8 L202.0 37.8 L202.1 37.8 L202.2 37.8 L202.3 37.9 L202.3 37.9 L202.5 37.9 L203.1 38.3 L203.2 38.4 L203.4 38.6 L203.6 38.7 L204.1 38.9 L204.2 38.9 L204.3 39.0 L204.4 39.1 L204.5 39.1 L205.2 39.0 L205.8 38.8 L206.0 38.8 L206.0 38.8 L206.0 38.9 L205.9 39.1 L206.0 39.2 L206.1 39.2 L206.4 39.3 L206.7 39.3 L206.9 39.4 L207.0 39.4 L207.1 39.5 L207.3 39.5 L207.4 39.4 L207.5 39.4 L208.1 39.0 L208.6 38.7 L208.8 38.4 L209.0 38.2 L209.1 37.8 L209.1 37.5 L209.0 37.3 L208.6 36.8 L208.5 36.6 L208.5 36.5 L208.6 36.4 L208.7 36.2 L208.6 36.0 L208.5 35.9 L208.6 35.7 L208.4 35.4 L208.4 35.3 L208.4 35.1 L208.5 34.9 L208.7 34.7 L208.8 34.6 L209.0 34.5 L209.2 34.5 L209.5 34.4 L209.6 34.4 L209.8 34.3 L210.2 34.1 L210.4 33.9 L210.6 33.6 L210.7 33.3 L210.8 33.0 L210.8 32.7 L210.7 31.1 L210.8 30.9 L211.4 30.0 L211.7 28.8 L211.7 28.4 L211.6 27.5 L211.4 26.7 L211.2 26.1 L210.2 24.6 L210.1 24.3 L210.2 24.0 L210.2 23.9 L210.4 23.8 L210.4 23.7 L210.4 23.6 L210.5 23.6 L210.5 23.5 L210.6 23.3 L210.6 23.2 L210.6 23.0 L210.6 22.9 L210.6 22.7 L210.6 22.6 L210.8 22.5 L210.8 22.6 L210.9 22.6 L210.9 22.7 L210.9 22.8 L211.0 22.9 L211.0 22.9 L211.2 22.8 L211.6 22.8 L211.9 22.7 L212.2 22.6 L212.2 22.6 L212.3 22.5 L212.3 22.4 L212.3 22.3 L212.3 22.3 L212.4 22.1 L212.6 22.0 L212.8 22.0 L212.9 22.1 L213.1 22.3 L213.1 22.4 L213.2 22.4 L213.3 22.5 L213.6 22.9 L213.9 23.1 L214.6 23.4 L214.8 23.6 L217.2 25.7 L217.7 26.5 L217.8 26.7 L218.1 26.8 L218.5 27.2 L219.9 28.4 L220.1 28.5 L220.4 28.9 L220.9 29.1 L221.4 29.5 L222.1 29.9 L222.2 29.9 L222.3 30.0 L222.6 30.2 L222.7 30.3 L223.0 30.3 L223.1 30.4 L223.3 30.6 L223.3 30.6 L223.5 30.8 L223.5 30.8 L224.6 31.3 L226.2 31.8 L226.2 31.8 L225.7 31.8 L225.5 31.8 L225.6 31.9 L225.8 32.0 L225.8 32.0 L225.9 32.3 L226.0 32.3 L226.0 32.3 L226.1 32.3 L226.2 32.4 L226.3 32.4 L227.4 32.4 L227.4 32.4 L227.6 32.3 L227.8 32.2 L227.9 32.2 L228.8 32.2 L229.0 32.3 L229.1 32.4 L229.1 32.4 L229.1 32.4 L228.9 32.5 L228.8 32.6 L228.7 32.9 L228.9 33.0 L229.0 33.0 L229.1 33.0 L229.2 32.9 L229.3 32.8 L229.3 32.7 L229.4 32.5 L229.5 32.3 L229.7 32.3 L229.8 32.4 L229.8 32.6 L229.9 32.8 L229.9 32.9 L230.0 32.9 L230.1 33.0 L230.2 33.2 L230.3 33.3 L230.4 33.3 L230.7 33.5 L230.8 33.5 L231.0 33.6 L232.1 33.7 L233.3 33.8 L233.7 33.7 L234.0 33.6 L234.8 32.9 L235.5 32.3 L235.6 32.3 L236.1 32.0 L236.4 31.8 L236.6 31.7 L236.7 31.6 L237.1 31.2 L237.4 31.0 L237.5 30.8 L237.6 30.7 L237.6 30.6 L237.7 30.6 L237.7 30.6 L237.8 30.8 L237.9 30.9 L238.0 31.0 L238.0 31.3 L237.8 31.6 L237.4 32.0 L237.3 32.2 L237.2 32.5 L237.1 32.6 L236.5 33.3 L236.3 33.5 L236.1 33.8 L236.0 34.0 L236.1 34.2 L236.0 34.3 L235.9 34.5 L235.9 34.6 L235.8 34.7 L235.7 34.8 L235.8 34.9 L235.8 35.0 L236.1 35.5 L236.2 35.6 L236.7 35.9 L236.7 36.0 L236.8 36.2 L236.9 36.3 L236.9 36.5 L236.9 36.5 L237.0 36.6 L237.1 36.7 L237.2 36.9 L237.4 37.5 L237.5 37.8 L237.8 38.1 L238.1 38.3 L237.9 38.3 L237.4 38.0 L237.2 37.9 L237.1 38.0 L237.1 38.1 L237.2 38.2 L237.3 38.2 L237.4 38.2 L237.5 38.3 L237.6 38.3 L237.5 38.4 L237.6 38.5 L237.8 38.5 L238.0 38.6 L238.7 38.6 L238.8 38.7 L239.0 38.8 L239.1 38.7 L239.0 38.7 L238.9 38.6 L238.9 38.5 L238.9 38.5 L239.2 38.3 L239.5 38.0 L239.6 38.0 L239.8 37.9 L239.9 37.9 L239.9 37.9 L239.9 37.8 L240.0 37.7 L240.1 37.7 L240.2 37.7 L240.5 37.7 L240.6 37.7 L240.7 37.6 L240.7 37.6 L240.8 37.6 L240.8 37.6 L240.8 37.6 L240.9 37.6 Z M79.8 177.0 L79.9 177.0 L80.2 177.0 L80.5 177.1 L80.7 177.2 L80.7 177.4 L80.5 177.6 L80.2 178.0 L80.1 178.0 L79.3 177.8 L78.8 177.8 L78.7 177.7 L78.8 177.5 L78.9 177.5 L78.9 177.5 L78.9 177.6 L79.0 177.5 L79.1 177.5 L79.2 177.6 L79.3 177.5 L79.3 177.5 L79.3 177.2 L79.4 176.9 L79.4 176.9 L79.5 176.8 L79.5 176.8 L79.6 176.8 L79.6 176.9 L79.8 177.0 Z M113.0 159.4 L112.9 159.4 L112.9 159.4 L112.9 159.5 L113.0 159.5 L113.0 159.6 L112.9 159.7 L112.9 159.7 L112.9 159.7 L112.8 159.9 L112.8 159.9 L112.8 160.0 L112.8 160.1 L112.7 160.1 L112.7 160.1 L112.7 160.1 L112.4 160.4 L112.3 160.6 L112.1 160.6 L111.8 160.6 L111.7 160.7 L111.6 160.7 L111.6 160.8 L111.5 160.9 L111.5 160.9 L111.5 161.0 L111.5 161.0 L111.6 161.0 L111.6 161.1 L111.5 161.1 L111.5 161.1 L111.5 161.2 L111.3 161.2 L111.2 161.2 L111.0 161.2 L110.9 161.2 L110.8 161.3 L110.4 161.7 L110.3 161.8 L110.2 161.8 L110.1 161.8 L110.1 161.9 L110.1 161.9 L109.6 161.9 L109.5 161.9 L109.4 162.0 L109.3 162.1 L109.4 162.1 L109.4 162.2 L109.5 162.2 L109.5 162.3 L109.6 162.5 L109.6 162.6 L109.7 162.7 L109.8 162.8 L109.9 162.9 L109.8 163.0 L109.6 162.9 L109.5 162.9 L109.3 162.8 L109.2 162.9 L108.9 163.5 L108.8 163.6 L108.8 163.8 L108.9 163.9 L109.0 163.9 L109.1 163.8 L109.2 163.8 L109.1 164.0 L109.0 164.2 L108.9 164.3 L108.7 164.3 L108.6 164.4 L108.5 164.6 L108.4 164.6 L107.9 164.6 L108.0 164.3 L107.8 163.8 L107.8 163.6 L108.0 163.7 L108.1 163.5 L108.2 163.3 L108.3 163.2 L108.4 163.2 L108.5 163.1 L108.6 162.9 L108.6 162.9 L108.6 162.7 L108.5 162.4 L108.5 162.2 L108.5 162.1 L108.5 162.0 L108.7 162.0 L108.9 162.0 L109.0 162.0 L109.1 161.9 L109.1 161.9 L109.1 161.9 L109.2 161.7 L109.3 161.6 L109.5 161.5 L109.8 161.4 L110.0 161.3 L110.2 161.1 L110.2 160.9 L110.2 160.8 L110.1 160.8 L109.7 160.7 L109.7 160.7 L109.7 160.5 L109.7 160.4 L109.6 160.2 L109.6 160.1 L109.7 160.1 L109.9 160.1 L110.2 160.1 L110.4 160.1 L110.5 160.2 L110.5 160.3 L110.4 160.3 L110.4 160.4 L110.5 160.5 L110.5 160.6 L110.6 160.6 L110.9 160.5 L111.3 160.3 L111.3 160.1 L111.3 160.1 L111.6 159.8 L111.7 159.8 L111.7 159.7 L111.7 159.6 L111.8 159.6 L111.8 159.6 L111.9 159.5 L112.2 159.3 L112.2 159.2 L112.3 159.1 L112.4 158.9 L112.4 158.7 L112.9 159.2 L113.0 159.4 Z M123.0 147.1 L123.1 147.2 L123.1 147.2 L123.1 147.3 L123.1 147.3 L123.1 147.4 L123.0 147.4 L123.0 147.4 L122.9 147.4 L122.8 147.4 L122.5 147.6 L122.4 147.6 L122.4 147.6 L122.4 147.6 L122.4 147.7 L122.3 147.7 L122.3 147.7 L122.1 147.8 L121.9 148.1 L121.8 148.2 L121.7 148.2 L121.5 148.4 L121.4 148.5 L121.2 148.4 L121.1 148.4 L121.2 148.5 L121.1 148.6 L121.1 148.6 L121.0 148.7 L120.9 148.7 L121.0 148.8 L121.2 148.9 L121.3 149.0 L120.9 149.2 L120.8 149.2 L120.8 149.3 L120.7 149.3 L120.6 149.3 L120.4 149.4 L120.5 149.4 L120.6 149.5 L120.6 149.6 L120.6 149.7 L120.5 149.6 L120.3 149.5 L119.9 149.2 L119.9 149.1 L119.9 149.0 L119.9 148.9 L119.8 148.9 L119.7 149.0 L119.6 149.0 L119.4 148.9 L119.1 148.8 L119.0 148.8 L118.9 148.7 L118.9 148.7 L119.0 148.6 L119.0 148.6 L119.1 148.6 L119.2 148.7 L119.4 148.6 L119.6 148.7 L119.8 148.7 L120.0 148.5 L119.7 148.5 L119.6 148.4 L119.5 148.3 L119.6 148.2 L119.7 148.2 L119.8 148.1 L120.0 148.1 L120.0 148.1 L120.2 148.0 L120.3 147.9 L120.3 147.9 L120.5 147.8 L120.6 147.8 L120.8 147.8 L120.9 147.7 L121.0 147.7 L121.1 147.7 L121.3 147.6 L121.3 147.4 L121.4 147.5 L121.5 147.6 L121.5 147.6 L121.6 147.7 L121.8 147.4 L122.0 147.2 L122.4 147.0 L122.3 147.3 L122.4 147.3 L122.5 147.3 L122.6 147.3 L122.6 147.2 L122.8 147.0 L122.8 147.0 L122.7 146.9 L122.7 146.8 L122.8 146.8 L122.9 146.8 L123.0 146.9 L123.0 147.1 Z M130.1 133.1 L130.1 133.4 L129.9 133.7 L129.6 134.0 L129.4 134.1 L129.2 134.2 L129.0 134.2 L128.7 134.2 L128.4 134.1 L128.3 134.0 L128.2 133.7 L128.0 133.4 L128.0 133.2 L127.9 133.0 L128.0 132.9 L128.3 132.9 L128.4 132.8 L128.6 132.6 L128.6 132.5 L128.8 132.5 L128.8 132.4 L129.0 132.6 L129.3 132.7 L129.6 132.8 L129.9 132.9 L130.1 133.1 Z M132.9 129.7 L133.0 129.7 L133.0 129.8 L133.1 130.0 L133.2 130.1 L133.0 130.2 L133.0 130.5 L133.1 130.7 L132.9 131.0 L132.9 131.2 L132.9 131.4 L132.9 131.5 L132.8 131.5 L132.8 131.7 L132.8 131.8 L132.6 131.8 L132.5 131.8 L132.5 132.0 L132.4 132.1 L132.4 132.2 L132.3 132.3 L132.3 132.5 L132.3 132.5 L132.3 132.6 L132.4 132.7 L132.3 132.7 L132.3 132.8 L132.4 132.9 L132.2 133.0 L132.2 133.1 L132.1 133.1 L132.0 133.2 L131.8 133.2 L131.7 133.3 L131.7 133.3 L131.6 133.3 L131.5 133.3 L131.5 133.2 L131.5 133.1 L131.5 133.0 L131.5 132.8 L131.4 132.6 L131.4 132.5 L131.4 132.4 L131.5 132.4 L131.6 132.5 L131.6 132.3 L131.8 132.2 L132.0 131.9 L132.1 131.7 L132.2 131.5 L132.2 131.4 L132.1 131.2 L132.1 131.1 L132.1 131.0 L132.1 130.9 L132.2 130.8 L132.3 130.7 L132.4 130.5 L132.4 130.4 L132.5 130.4 L132.6 130.2 L132.6 130.1 L132.7 129.9 L132.8 129.8 L132.8 129.7 L132.9 129.7 Z M126.4 117.2 L126.6 117.4 L126.6 117.7 L126.7 118.3 L126.7 118.3 L126.7 118.4 L126.7 118.5 L126.7 118.7 L126.7 118.7 L126.6 118.8 L126.6 118.8 L126.5 118.9 L126.3 118.9 L126.3 119.0 L126.2 119.2 L126.1 119.3 L125.9 119.3 L125.9 119.4 L125.7 119.6 L125.6 119.6 L125.4 119.7 L125.3 119.8 L125.1 119.8 L125.1 119.7 L125.2 119.3 L125.2 119.4 L125.1 119.4 L125.0 119.4 L124.9 119.5 L124.9 119.4 L124.9 119.3 L124.9 119.3 L125.1 119.1 L125.3 119.0 L125.4 119.0 L125.5 119.0 L125.6 119.0 L125.6 118.9 L125.6 118.9 L125.5 118.9 L125.4 118.9 L125.2 118.9 L125.1 118.9 L125.0 118.8 L125.0 118.6 L125.0 118.5 L125.0 118.4 L125.1 118.4 L125.1 118.3 L125.1 118.2 L125.1 118.1 L125.2 117.9 L125.3 117.8 L125.4 117.7 L125.4 117.5 L125.2 117.3 L125.3 117.3 L125.4 117.3 L125.4 117.4 L125.5 117.4 L125.6 117.4 L125.7 117.3 L125.9 117.3 L126.1 117.2 L126.2 117.2 L126.4 117.2 Z M116.9 116.2 L117.1 116.4 L117.1 116.4 L117.1 116.5 L117.1 116.5 L117.0 116.5 L116.8 116.5 L116.5 116.5 L116.5 116.4 L116.3 116.4 L116.3 116.4 L116.2 116.4 L116.2 116.5 L116.2 116.6 L116.2 116.6 L116.2 116.6 L116.3 116.7 L116.3 116.8 L116.3 116.9 L116.2 117.0 L116.0 116.9 L115.9 116.8 L115.7 116.8 L115.4 116.8 L115.3 116.9 L115.0 116.7 L114.9 116.7 L114.9 116.6 L115.0 116.5 L115.0 116.4 L115.0 116.4 L115.1 116.3 L115.1 116.3 L115.1 116.3 L115.2 116.5 L115.2 116.5 L115.2 116.5 L115.3 116.3 L115.3 116.2 L115.3 116.1 L115.3 116.1 L115.3 116.0 L115.3 116.0 L115.2 115.9 L115.2 115.9 L115.2 115.9 L115.2 115.8 L115.3 115.7 L115.2 115.6 L115.3 115.5 L115.4 115.5 L115.5 115.4 L115.5 115.5 L115.6 115.7 L115.7 115.7 L115.8 115.7 L116.0 115.6 L116.2 115.5 L116.3 115.4 L116.4 115.3 L116.5 115.5 L116.5 115.5 L116.5 115.6 L116.6 115.6 L116.7 115.6 L116.7 115.7 L116.7 116.0 L116.8 116.1 L116.9 116.2 Z M120.1 104.5 L120.2 104.4 L120.4 104.4 L120.4 104.4 L120.4 104.5 L120.2 104.5 L120.2 104.6 L120.2 104.8 L120.2 104.8 L120.1 104.9 L120.0 104.9 L120.0 105.0 L120.1 105.0 L120.0 105.1 L120.0 105.2 L120.0 105.3 L120.0 105.3 L120.0 105.3 L119.9 105.4 L119.9 105.4 L119.9 105.6 L119.8 105.6 L119.8 105.7 L119.7 105.7 L119.7 105.8 L119.6 105.8 L119.5 105.8 L119.5 105.9 L119.4 105.8 L119.4 105.8 L119.3 105.7 L119.2 105.7 L119.1 105.7 L119.1 105.7 L119.1 105.4 L119.2 105.3 L119.1 105.1 L119.2 104.9 L119.2 104.8 L119.2 104.7 L119.3 104.5 L119.3 104.2 L119.4 104.1 L119.5 104.1 L119.5 104.2 L119.5 104.2 L119.5 104.4 L119.5 104.4 L119.6 104.3 L119.7 104.3 L119.8 104.3 L119.9 104.3 L119.8 104.2 L119.8 104.2 L119.9 104.2 L120.0 104.2 L120.1 104.3 L120.1 104.4 L120.1 104.5 Z M161.9 102.1 L162.1 102.2 L162.1 102.3 L162.0 102.4 L161.9 102.5 L161.8 102.6 L161.7 102.8 L161.5 103.0 L161.4 103.2 L161.1 103.4 L161.1 103.7 L161.1 103.8 L161.1 103.9 L161.1 104.0 L161.2 104.0 L161.3 104.2 L161.3 104.3 L161.5 104.4 L161.6 104.5 L161.4 104.6 L161.2 104.6 L161.0 104.7 L160.8 104.8 L160.6 104.9 L160.4 105.0 L160.0 105.1 L159.9 105.1 L159.9 105.0 L159.7 104.9 L159.7 104.9 L159.8 104.8 L159.8 104.7 L159.6 104.7 L159.4 104.6 L159.3 104.4 L159.4 104.3 L159.5 104.1 L159.7 104.1 L159.8 104.1 L160.4 103.2 L160.6 103.1 L160.7 103.1 L160.8 103.0 L160.8 103.0 L160.9 102.8 L160.9 102.8 L161.0 102.6 L161.3 102.5 L161.4 102.5 L161.6 102.3 L161.7 102.1 L161.9 102.1 Z M121.2 102.0 L121.2 102.1 L121.3 102.1 L121.3 102.2 L121.3 102.3 L121.2 102.5 L121.1 102.7 L120.8 103.0 L120.6 103.2 L120.7 103.4 L120.5 103.5 L120.5 103.7 L120.6 103.6 L120.7 103.5 L120.7 103.6 L120.7 103.7 L120.7 103.7 L120.7 103.8 L120.8 103.9 L120.8 103.9 L120.8 104.0 L120.7 104.1 L120.6 104.1 L120.5 104.3 L120.4 104.3 L120.2 104.3 L120.1 104.1 L120.2 104.1 L120.4 104.1 L120.4 103.9 L120.3 103.9 L120.2 104.0 L120.1 104.0 L120.1 103.9 L120.1 103.8 L120.1 103.7 L120.0 103.8 L119.9 103.8 L120.0 104.0 L119.9 104.0 L119.8 103.9 L119.7 103.9 L119.5 103.9 L119.6 103.8 L119.7 103.8 L119.8 103.8 L119.8 103.5 L119.8 103.3 L119.9 103.3 L119.9 103.3 L120.0 103.3 L120.0 103.2 L120.1 103.1 L120.1 103.1 L120.0 103.2 L119.9 103.2 L119.9 103.1 L120.0 102.9 L120.1 102.7 L120.2 102.6 L120.2 102.5 L120.1 102.4 L120.0 102.4 L120.0 102.3 L120.1 102.2 L120.1 102.1 L120.2 101.8 L120.3 101.8 L120.5 101.8 L120.6 101.8 L120.7 101.7 L120.8 101.6 L121.0 101.5 L120.9 101.5 L120.9 101.4 L121.1 101.4 L121.1 101.4 L121.2 101.4 L121.3 101.4 L121.4 101.5 L121.4 101.6 L121.4 101.7 L121.3 101.7 L121.3 101.7 L121.3 101.7 L121.4 101.8 L121.4 101.9 L121.4 102.0 L121.3 102.0 L121.2 102.0 L121.2 102.0 Z M149.9 89.8 L150.0 90.0 L150.0 90.3 L149.9 90.4 L149.8 90.4 L149.8 90.4 L149.7 90.3 L149.6 90.4 L149.6 90.4 L149.7 90.5 L149.7 90.6 L149.7 90.6 L149.6 90.7 L149.5 90.7 L149.2 90.6 L149.1 90.6 L149.0 90.6 L148.7 90.4 L148.6 90.3 L148.6 90.3 L148.6 89.8 L148.7 89.7 L149.3 89.3 L149.3 89.4 L149.4 89.5 L149.5 89.5 L149.5 89.5 L149.6 89.5 L149.6 89.6 L149.6 89.6 L149.6 89.6 L149.7 89.7 L149.8 89.7 L149.8 89.7 L149.9 89.8 L149.9 89.8 Z M187.2 76.7 L187.5 76.7 L187.8 76.6 L188.1 76.6 L188.1 76.9 L188.0 77.1 L187.7 77.4 L187.6 77.6 L187.5 77.9 L187.4 78.0 L186.6 78.4 L185.8 78.7 L185.7 78.7 L185.6 78.7 L185.5 78.6 L185.4 78.6 L185.4 78.5 L185.4 78.4 L185.5 78.4 L185.9 78.3 L185.9 78.3 L186.0 78.2 L186.0 77.9 L186.1 77.7 L186.3 77.5 L186.4 77.4 L186.2 77.2 L185.7 77.3 L185.6 77.1 L185.6 76.9 L185.6 76.8 L185.6 76.6 L185.7 76.5 L186.0 76.2 L186.1 75.9 L186.3 75.8 L186.4 75.8 L186.5 75.7 L186.8 75.4 L187.0 75.3 L187.3 74.9 L187.4 74.8 L187.5 74.8 L187.6 74.8 L187.7 74.8 L187.7 74.9 L187.6 75.4 L187.4 75.8 L187.1 76.4 L187.1 76.6 L187.1 76.7 L187.1 76.8 L187.2 76.8 L187.2 76.7 Z" fill="#172033" fill-rule="evenodd"/></svg>
