<svg xmlns="http://www.w3.org/2000/svg" viewBox="0 0 320 200" role="img"><path d="M124.9 28.6 L124.9 28.6 L125.0 27.9 L125.5 27.6 L126.1 27.7 L126.1 28.6 L127.4 28.6 L128.4 28.6 L128.4 28.9 L128.6 29.3 L128.7 29.6 L128.6 29.9 L128.6 30.2 L128.7 30.4 L129.0 30.6 L129.6 31.1 L130.0 31.3 L130.3 31.4 L130.4 31.4 L132.7 31.4 L133.3 31.3 L133.5 31.3 L133.6 31.4 L133.9 31.5 L134.1 31.5 L137.1 31.5 L139.6 31.4 L139.8 31.5 L140.0 31.6 L140.1 31.6 L140.1 31.6 L143.2 31.6 L144.2 31.9 L145.3 32.5 L146.0 32.6 L146.1 32.7 L146.4 33.1 L146.5 33.2 L146.8 33.2 L147.0 33.2 L147.1 33.4 L147.1 33.5 L147.2 33.9 L147.3 34.0 L147.3 34.0 L147.4 34.0 L147.5 34.0 L148.4 34.6 L150.0 35.6 L151.5 36.6 L153.4 37.8 L154.7 38.6 L156.1 39.6 L157.8 40.6 L159.3 41.6 L160.9 42.6 L161.4 43.0 L161.7 43.3 L162.1 43.9 L162.4 44.2 L162.6 44.3 L163.1 44.5 L163.4 44.8 L163.6 44.8 L164.1 44.7 L164.6 44.6 L166.4 44.8 L168.1 45.0 L169.0 45.0 L169.8 44.6 L169.8 44.5 L169.8 44.4 L169.8 44.2 L170.0 44.2 L170.1 44.2 L170.4 44.5 L170.5 44.6 L170.5 44.7 L170.6 44.8 L170.8 44.9 L171.0 44.9 L171.1 44.9 L171.3 44.8 L171.4 44.9 L171.4 45.0 L171.5 45.0 L172.4 45.1 L172.4 45.0 L172.4 44.7 L172.4 44.6 L172.9 45.2 L173.1 45.5 L173.4 45.6 L175.0 46.1 L176.2 46.4 L176.6 46.4 L177.3 46.2 L177.6 46.3 L177.8 46.4 L178.0 46.4 L179.0 46.2 L179.1 46.2 L179.3 46.3 L180.8 47.0 L181.4 47.1 L182.0 47.1 L182.6 46.7 L182.7 46.7 L182.9 46.7 L183.0 46.8 L182.9 47.1 L184.9 47.2 L185.4 47.4 L185.5 47.5 L185.6 47.8 L185.7 48.0 L186.0 48.1 L186.5 48.1 L186.8 47.7 L187.1 46.6 L187.5 46.1 L188.6 45.2 L189.8 44.0 L190.2 43.6 L190.4 43.1 L190.9 41.9 L191.2 41.1 L191.5 40.7 L192.9 40.0 L194.3 39.4 L195.8 38.6 L196.6 38.2 L196.6 38.2 L196.6 38.1 L196.6 38.0 L196.8 38.0 L196.8 38.0 L196.9 38.0 L196.9 38.0 L198.6 37.5 L199.8 37.0 L199.9 37.0 L200.0 36.7 L200.1 36.6 L202.2 35.8 L203.9 35.2 L205.2 34.6 L206.2 34.0 L206.6 34.4 L207.5 35.1 L207.9 35.6 L208.2 36.0 L208.4 36.2 L208.7 36.4 L209.4 36.6 L209.7 36.8 L210.1 37.2 L211.1 38.6 L211.9 39.2 L212.6 39.5 L213.5 39.6 L215.1 39.5 L216.9 39.4 L217.7 39.2 L218.1 39.1 L219.4 38.8 L219.7 38.8 L220.1 39.0 L220.3 39.0 L220.6 39.0 L221.3 38.6 L222.0 38.9 L222.7 39.2 L223.4 39.4 L224.2 38.9 L222.9 40.9 L221.5 42.8 L220.2 44.7 L218.8 46.6 L218.0 47.8 L217.2 49.0 L216.4 50.2 L215.5 51.4 L214.2 52.7 L212.9 54.0 L211.6 55.3 L210.2 56.6 L209.7 57.2 L209.5 57.6 L209.5 58.5 L209.5 60.5 L209.5 62.7 L209.5 63.9 L209.5 65.6 L209.5 67.3 L209.5 69.0 L209.5 70.7 L209.5 72.8 L209.5 74.8 L209.5 76.8 L209.5 78.8 L209.5 80.8 L209.5 82.8 L209.5 83.1 L209.5 84.8 L209.5 86.8 L209.5 88.8 L209.5 90.8 L209.5 92.8 L209.5 94.8 L209.5 96.9 L209.5 98.9 L209.5 100.9 L209.5 102.9 L209.5 104.2 L209.5 105.3 L209.5 106.4 L209.6 108.1 L209.6 109.9 L209.6 111.6 L209.6 113.3 L209.7 114.5 L209.7 115.6 L209.7 116.8 L210.1 117.4 L210.5 117.9 L210.9 118.4 L211.3 118.9 L212.1 120.0 L212.9 121.0 L213.8 122.2 L214.6 123.1 L215.4 124.1 L216.2 125.2 L217.0 126.3 L217.8 127.3 L218.4 128.1 L218.6 128.5 L218.7 128.8 L218.6 129.8 L218.6 130.1 L218.6 130.1 L217.4 131.4 L216.8 132.2 L216.7 132.5 L216.4 132.7 L215.5 133.6 L214.9 134.3 L214.6 134.5 L214.3 134.2 L214.0 134.3 L213.7 134.3 L213.5 134.1 L213.5 133.7 L213.2 134.1 L213.1 134.4 L213.0 134.8 L212.5 134.8 L211.9 134.6 L211.8 134.6 L211.6 134.7 L211.2 135.1 L210.8 135.3 L210.6 135.5 L210.5 135.7 L210.2 135.7 L210.0 135.5 L209.9 135.4 L209.7 135.3 L209.7 135.1 L209.7 134.8 L209.9 134.4 L209.8 134.2 L209.8 134.0 L209.9 133.8 L210.1 133.4 L209.5 133.8 L209.5 135.7 L209.1 136.1 L208.8 135.9 L208.5 134.9 L208.2 134.7 L208.1 134.6 L207.9 134.4 L207.8 134.4 L207.6 134.6 L207.7 134.9 L207.7 135.1 L207.7 135.3 L208.0 135.2 L208.2 135.2 L208.3 135.4 L208.4 135.7 L208.3 135.8 L208.2 135.8 L208.1 135.9 L208.2 136.1 L208.3 136.1 L208.4 136.2 L208.5 136.3 L208.5 137.4 L208.6 138.1 L208.8 138.5 L208.9 138.5 L209.1 138.5 L209.3 138.5 L209.5 138.6 L209.7 138.9 L209.7 139.0 L209.5 139.5 L209.1 139.9 L208.8 140.0 L208.7 139.8 L209.2 139.6 L209.0 139.5 L208.7 139.3 L208.4 138.9 L208.3 138.8 L208.3 138.7 L208.3 138.6 L208.1 138.6 L208.2 138.6 L208.0 138.6 L207.8 138.7 L207.4 138.9 L207.1 139.3 L206.7 139.6 L206.4 139.5 L206.4 139.6 L206.4 139.7 L206.5 139.9 L206.7 139.9 L206.7 140.0 L206.7 140.1 L206.6 140.2 L206.7 140.5 L207.1 140.8 L207.3 141.0 L207.1 141.4 L206.6 141.8 L206.1 142.2 L205.4 142.5 L204.4 143.6 L203.8 143.9 L203.3 143.7 L202.9 143.5 L202.4 143.4 L201.8 143.5 L200.2 144.0 L199.5 144.5 L199.1 144.6 L198.7 144.9 L197.9 145.5 L197.7 145.7 L197.5 146.0 L197.2 146.6 L196.8 147.2 L196.7 147.5 L196.7 147.6 L197.0 147.9 L197.0 148.0 L196.9 148.3 L196.9 148.4 L196.6 149.5 L196.6 150.0 L196.9 150.2 L196.8 150.7 L197.0 150.9 L197.3 150.8 L197.7 150.6 L197.7 150.8 L197.6 150.9 L197.0 151.5 L196.7 151.9 L196.6 152.1 L196.5 152.9 L196.4 153.2 L195.9 154.0 L195.8 154.2 L196.0 154.8 L196.0 155.1 L195.9 155.3 L195.8 155.6 L195.6 155.8 L195.4 155.9 L194.6 156.3 L194.4 156.4 L194.0 156.9 L193.8 157.0 L193.5 157.1 L193.6 156.8 L193.8 156.2 L193.8 156.0 L193.5 156.0 L193.4 156.2 L193.4 156.4 L193.4 156.6 L193.4 156.8 L193.3 157.2 L193.3 157.3 L193.4 157.4 L193.4 157.5 L193.1 157.9 L192.8 158.8 L192.3 159.5 L192.2 160.4 L192.0 160.8 L191.8 160.9 L191.6 161.0 L191.3 160.8 L191.2 160.8 L191.0 160.5 L190.9 160.5 L190.5 160.5 L190.6 160.3 L190.6 160.3 L190.4 160.1 L190.3 160.4 L190.3 160.7 L190.5 160.8 L190.9 160.8 L190.7 161.1 L190.7 161.2 L191.0 161.3 L191.5 161.1 L191.7 161.2 L191.8 161.5 L191.8 161.7 L191.8 162.2 L190.5 165.8 L190.1 166.2 L189.6 166.3 L189.3 166.0 L189.3 165.5 L189.0 165.7 L188.9 165.8 L188.9 165.9 L189.0 166.1 L189.1 166.3 L189.2 166.4 L189.3 166.6 L189.7 166.5 L189.8 166.6 L189.8 166.9 L189.5 167.3 L189.4 167.4 L189.4 167.5 L189.3 167.7 L189.1 167.9 L189.0 168.0 L188.8 167.9 L188.7 167.5 L188.6 167.4 L188.5 167.2 L188.5 166.9 L188.5 166.6 L188.2 166.9 L187.8 166.7 L187.6 166.6 L187.4 166.8 L187.6 166.9 L187.8 167.0 L188.2 167.1 L188.1 167.4 L187.9 167.5 L187.4 167.6 L187.3 167.6 L187.1 167.6 L186.9 167.6 L186.9 167.8 L186.9 168.1 L186.9 168.3 L187.0 168.4 L187.2 168.1 L187.8 168.1 L188.3 168.2 L188.6 168.5 L188.6 168.9 L187.8 170.3 L187.3 171.6 L186.7 173.6 L186.6 174.0 L186.4 173.8 L186.3 173.8 L186.1 174.0 L186.0 174.2 L186.0 174.2 L186.0 174.4 L185.9 174.5 L185.7 174.7 L185.7 174.8 L185.1 176.5 L185.0 176.2 L185.1 175.7 L185.0 175.5 L184.8 175.6 L184.7 175.9 L184.6 176.1 L184.5 176.3 L184.4 176.3 L184.3 176.3 L184.2 176.3 L184.1 176.5 L184.2 176.6 L184.4 177.0 L184.2 177.2 L183.7 177.3 L183.1 177.1 L182.7 176.7 L182.7 176.8 L182.6 177.0 L182.1 176.9 L181.8 177.2 L181.5 177.7 L181.2 177.9 L181.1 177.9 L181.0 177.9 L181.0 177.9 L180.9 178.0 L179.6 177.0 L178.2 176.0 L176.8 175.0 L175.5 174.1 L174.1 173.1 L172.7 172.1 L171.3 171.1 L170.0 170.1 L168.6 169.1 L168.5 169.0 L167.2 168.1 L165.9 167.1 L164.5 166.2 L163.1 165.2 L161.7 164.2 L160.4 163.2 L159.0 162.2 L158.1 161.6 L157.9 161.3 L157.7 161.0 L157.5 160.0 L157.3 159.7 L157.1 159.5 L156.8 159.4 L156.5 159.3 L156.1 159.2 L155.4 159.3 L155.3 159.1 L155.4 158.8 L155.5 158.5 L155.4 158.4 L155.2 158.3 L155.0 158.2 L155.0 158.0 L155.1 157.9 L155.1 157.7 L155.2 157.5 L155.5 157.3 L155.8 157.0 L156.2 156.8 L156.5 156.8 L156.5 156.5 L156.5 156.3 L156.7 156.1 L157.0 156.1 L156.7 154.1 L156.6 153.9 L156.3 152.2 L156.1 151.8 L154.8 151.0 L152.6 149.8 L151.3 149.1 L147.9 147.2 L144.4 145.3 L141.0 143.3 L137.5 141.4 L134.1 139.5 L130.6 137.6 L127.2 135.6 L123.7 133.7 L120.3 131.8 L117.6 130.3 L116.8 129.9 L113.4 127.9 L109.9 126.0 L109.1 125.5 L106.5 124.1 L103.0 122.2 L99.6 120.2 L98.4 119.6 L97.8 119.5 L97.6 119.4 L97.5 118.9 L97.3 118.9 L97.2 118.9 L96.0 118.9 L95.9 115.7 L95.8 113.5 L96.1 111.2 L96.5 107.9 L96.8 105.3 L96.8 104.7 L96.3 103.0 L95.8 101.4 L95.8 101.1 L96.8 99.8 L96.9 99.6 L98.2 97.9 L98.8 97.5 L98.9 97.3 L98.9 96.9 L98.8 96.3 L98.7 96.0 L98.8 95.9 L99.1 95.6 L99.2 95.4 L99.3 95.3 L99.6 93.7 L99.7 93.6 L99.9 93.1 L100.4 92.8 L101.1 92.6 L101.6 92.3 L102.0 91.9 L102.2 91.2 L102.3 90.8 L102.3 90.6 L102.5 90.5 L103.5 90.0 L103.8 89.7 L104.0 89.1 L104.5 88.5 L104.9 87.4 L105.0 87.1 L105.0 86.4 L105.1 86.1 L105.2 85.7 L105.4 85.4 L105.7 85.1 L105.9 85.2 L106.2 85.3 L106.5 85.3 L106.5 85.3 L106.6 85.1 L106.7 85.0 L106.7 84.6 L106.9 84.3 L107.6 84.1 L108.2 83.6 L108.5 83.4 L109.8 83.3 L110.3 83.0 L110.6 82.4 L110.4 81.7 L110.1 81.1 L110.1 80.8 L110.0 80.5 L111.0 79.7 L111.3 78.4 L111.7 77.9 L111.9 77.8 L112.2 77.7 L112.4 77.7 L112.5 77.5 L112.6 77.3 L113.2 76.3 L113.3 75.9 L113.3 72.8 L113.3 72.6 L113.6 72.2 L113.7 72.0 L113.6 71.9 L113.2 71.5 L113.1 71.3 L113.0 71.1 L112.9 70.7 L112.9 70.4 L112.9 70.1 L113.1 69.4 L113.1 69.1 L112.3 67.3 L112.1 66.6 L111.4 65.1 L111.3 64.5 L111.5 64.1 L111.8 63.9 L112.1 63.7 L112.3 63.4 L112.4 63.0 L112.2 62.8 L111.8 62.3 L111.7 62.0 L111.6 61.2 L111.4 61.0 L111.3 61.0 L111.2 61.1 L111.1 61.3 L110.8 61.2 L110.7 61.1 L110.0 59.7 L109.8 58.3 L109.4 57.3 L109.4 57.1 L109.3 57.0 L109.2 57.0 L108.7 56.8 L108.7 56.7 L108.7 56.7 L108.6 56.6 L108.6 56.6 L108.5 56.5 L108.5 56.6 L108.4 56.7 L108.4 56.7 L108.3 56.8 L108.1 56.9 L108.0 56.9 L107.8 56.9 L107.7 56.7 L107.4 56.3 L106.9 55.8 L106.8 55.5 L106.3 53.1 L106.3 53.1 L106.1 52.7 L105.8 52.5 L105.0 52.3 L104.7 52.1 L104.5 51.7 L104.3 49.7 L104.1 49.1 L104.0 48.9 L103.9 48.8 L103.7 48.6 L103.7 48.4 L103.7 48.2 L103.9 47.8 L103.9 47.7 L103.9 47.5 L103.7 47.1 L103.7 47.0 L103.7 46.8 L103.9 46.8 L104.1 46.7 L104.2 46.6 L104.5 46.2 L104.7 45.5 L104.7 44.2 L104.6 43.9 L104.4 43.7 L104.1 43.7 L103.8 43.5 L103.2 42.9 L102.9 42.8 L102.5 42.9 L102.3 43.1 L102.3 43.3 L102.2 43.3 L102.0 43.2 L101.8 42.6 L101.4 42.1 L101.4 42.0 L101.2 42.0 L100.9 42.1 L100.6 42.2 L100.3 42.2 L100.2 42.2 L100.0 42.2 L100.1 42.0 L100.4 41.8 L100.2 41.6 L99.9 41.5 L99.9 41.4 L100.7 41.0 L100.9 40.8 L100.8 40.6 L100.5 40.4 L100.2 40.4 L99.5 40.6 L99.3 40.7 L98.9 40.5 L98.9 40.3 L99.1 39.9 L99.3 39.5 L99.2 39.2 L99.1 39.0 L98.8 38.9 L98.6 38.7 L98.5 38.4 L98.5 38.3 L98.6 38.1 L98.6 37.9 L98.7 37.5 L98.7 37.3 L98.6 37.1 L98.5 37.0 L98.3 36.8 L98.2 36.6 L98.2 36.4 L98.2 35.9 L98.0 35.5 L97.6 35.3 L97.2 35.0 L98.8 33.4 L100.4 31.8 L102.0 30.2 L103.7 28.6 L104.9 27.9 L106.0 27.4 L107.1 26.8 L108.2 26.3 L109.8 25.7 L111.1 25.2 L112.3 24.7 L113.6 24.3 L115.1 23.7 L116.4 23.2 L117.5 22.8 L117.8 23.3 L119.0 22.7 L120.2 22.0 L120.6 22.4 L120.0 23.7 L121.6 23.7 L122.8 24.0 L122.0 26.0 L122.6 27.2 L123.4 28.6 L123.4 28.6 L123.4 28.6 L124.9 29.1 L124.9 28.6 L124.9 28.6 Z" fill="#172033" fill-rule="evenodd"/></svg>
