<svg xmlns="http://www.w3.org/2000/svg" viewBox="0 0 320 200" role="img"><path d="M253.1 22.0 L253.5 23.0 L253.3 23.9 L252.5 25.7 L252.4 26.3 L252.6 27.4 L252.5 27.9 L252.3 28.4 L251.8 29.1 L251.6 29.6 L251.6 29.8 L251.5 30.3 L251.0 31.3 L250.7 31.8 L250.2 32.2 L249.5 32.4 L249.3 32.3 L249.2 32.0 L249.0 31.9 L248.5 32.0 L248.2 32.3 L248.1 32.6 L248.0 32.9 L247.9 33.2 L247.2 34.5 L246.9 35.2 L246.9 35.9 L246.9 36.3 L247.3 37.0 L247.4 37.3 L247.4 37.7 L247.2 38.9 L245.9 42.4 L245.8 43.3 L245.9 43.7 L246.3 44.0 L246.7 44.7 L246.7 45.4 L246.6 46.1 L246.6 46.9 L247.0 47.5 L247.6 47.8 L249.0 47.6 L249.6 47.8 L249.8 48.2 L249.8 48.5 L249.8 48.9 L249.8 49.2 L250.3 50.3 L250.4 50.5 L250.4 50.9 L250.3 51.3 L250.1 51.8 L250.0 52.4 L250.4 53.5 L250.3 53.8 L250.1 54.6 L250.1 55.0 L250.3 55.5 L250.9 56.3 L251.3 56.9 L251.4 57.0 L252.2 57.9 L252.8 58.8 L255.8 64.5 L256.1 65.9 L256.3 69.4 L256.2 70.6 L255.0 73.3 L254.6 74.5 L250.9 83.2 L251.0 83.7 L251.5 84.1 L251.6 84.4 L251.6 84.6 L251.6 84.8 L251.4 85.0 L251.1 85.3 L251.1 85.7 L251.2 86.1 L251.6 87.1 L251.7 88.2 L251.9 88.7 L252.1 89.1 L253.1 90.3 L253.6 91.3 L253.7 92.2 L253.7 93.2 L253.8 94.3 L254.7 98.3 L254.8 99.5 L254.6 100.6 L254.4 101.1 L254.2 101.5 L254.1 101.9 L254.4 102.3 L254.4 102.3 L254.4 103.2 L253.3 106.1 L253.1 107.0 L252.8 107.9 L252.3 108.5 L251.4 108.9 L250.5 109.5 L249.3 111.1 L248.4 111.2 L247.7 110.6 L246.6 108.9 L245.8 108.4 L244.2 108.5 L242.4 109.1 L241.8 109.3 L239.7 110.3 L238.6 111.4 L238.4 111.9 L237.9 112.3 L237.0 113.0 L235.8 114.4 L233.3 116.8 L232.4 117.4 L231.1 117.9 L229.7 118.1 L227.0 117.9 L226.5 117.9 L225.8 118.0 L225.0 118.5 L224.4 119.3 L224.0 120.5 L223.3 121.4 L222.5 121.6 L220.7 121.2 L221.0 121.8 L217.9 121.4 L216.1 121.3 L215.0 122.1 L214.5 122.1 L214.3 121.8 L214.2 121.5 L213.8 121.3 L213.4 121.2 L212.9 121.3 L212.1 121.5 L212.1 121.6 L212.4 122.5 L213.5 124.4 L213.7 125.3 L213.6 125.4 L213.1 126.3 L213.0 126.5 L213.0 127.2 L213.0 127.5 L212.7 128.0 L212.4 128.5 L212.2 129.0 L212.3 129.6 L213.3 131.3 L213.6 132.1 L213.6 132.1 L213.2 132.7 L212.8 132.7 L212.3 132.4 L211.5 131.9 L211.0 131.7 L210.6 131.6 L210.3 131.7 L208.2 132.2 L207.7 132.1 L207.4 131.9 L206.9 131.1 L206.6 130.8 L205.9 130.4 L203.4 129.6 L201.9 129.6 L200.0 129.0 L198.3 128.7 L197.5 129.6 L197.4 130.1 L197.3 130.6 L197.1 131.0 L196.1 132.1 L195.8 132.8 L195.4 133.4 L194.3 133.3 L192.6 132.7 L192.0 132.8 L191.2 133.4 L191.1 133.5 L190.7 134.0 L190.2 134.7 L190.1 135.4 L190.2 135.5 L190.6 136.2 L191.0 136.4 L192.0 136.6 L192.4 136.9 L192.6 137.3 L192.6 137.8 L192.5 138.7 L193.1 140.6 L193.2 141.2 L193.1 141.7 L192.7 143.0 L192.1 145.7 L192.1 146.2 L192.6 146.6 L193.2 146.7 L193.6 147.0 L193.7 147.8 L193.7 147.8 L194.1 148.8 L194.9 149.4 L196.8 149.8 L197.3 150.3 L198.2 151.7 L198.8 152.3 L200.1 153.4 L200.5 153.9 L200.9 154.7 L201.3 153.9 L201.9 153.6 L202.5 153.7 L203.2 154.2 L203.6 154.8 L204.2 156.9 L204.6 157.6 L204.3 157.8 L204.0 157.8 L203.2 157.8 L202.5 157.9 L202.4 158.0 L202.2 158.4 L202.3 158.5 L202.2 159.4 L202.2 159.5 L202.4 160.1 L203.3 161.7 L204.2 165.2 L203.4 164.6 L202.4 164.3 L200.4 164.1 L199.4 163.8 L198.4 163.3 L197.5 162.6 L196.8 161.9 L196.5 161.5 L195.3 160.5 L195.2 161.1 L194.9 161.9 L194.4 162.6 L194.1 163.0 L193.3 163.0 L192.7 162.6 L192.2 162.0 L191.9 161.5 L191.5 160.2 L191.3 159.7 L190.0 158.0 L189.4 156.9 L188.8 156.2 L187.8 156.1 L186.7 156.4 L185.9 156.9 L185.9 156.9 L185.2 157.3 L184.4 157.7 L183.8 157.8 L180.4 158.5 L178.6 158.9 L178.3 158.9 L177.5 158.5 L176.5 158.2 L176.3 158.1 L175.9 158.4 L174.4 160.1 L173.3 162.3 L172.9 162.6 L172.4 162.4 L171.2 161.3 L170.6 161.0 L169.0 160.7 L165.4 160.0 L164.9 159.9 L164.5 159.3 L164.4 158.8 L164.2 158.7 L163.4 159.1 L162.9 159.4 L162.8 159.6 L162.4 159.9 L162.0 160.4 L161.8 161.0 L161.9 162.2 L162.5 163.6 L163.8 166.0 L163.8 167.2 L162.9 168.0 L159.4 169.8 L158.9 170.2 L158.5 170.6 L157.0 172.9 L156.1 173.8 L154.8 174.3 L153.2 174.4 L151.4 174.2 L150.5 174.1 L147.8 173.7 L146.2 173.8 L145.6 173.9 L145.2 174.3 L144.8 174.8 L144.5 175.4 L143.0 177.6 L142.6 177.9 L142.1 178.0 L141.4 177.9 L141.4 177.9 L141.3 177.6 L140.7 176.9 L140.4 176.7 L139.8 176.9 L138.6 175.6 L138.2 175.4 L137.1 175.4 L136.5 175.6 L136.1 175.7 L135.8 175.6 L135.6 175.0 L135.4 173.5 L135.0 173.1 L134.8 173.0 L134.3 172.5 L134.1 172.4 L133.8 172.4 L133.6 172.6 L133.4 172.6 L133.1 172.4 L132.5 173.1 L131.6 173.1 L129.7 172.7 L129.1 172.7 L128.2 172.9 L127.6 172.9 L124.1 171.9 L123.5 171.9 L123.0 171.7 L122.0 170.9 L122.0 170.6 L121.2 169.2 L121.1 169.1 L120.5 169.2 L120.4 169.1 L120.4 169.0 L120.5 168.8 L120.4 168.7 L120.3 168.4 L120.3 167.9 L120.1 167.7 L119.9 168.4 L119.9 169.2 L120.1 170.5 L120.0 171.2 L119.7 171.8 L118.9 172.9 L118.5 173.3 L118.0 173.6 L117.4 173.6 L116.5 173.6 L116.1 173.6 L115.9 173.4 L115.7 173.1 L115.4 172.9 L115.0 172.8 L114.4 172.8 L114.2 172.7 L114.2 172.9 L114.9 173.3 L115.6 174.0 L115.8 174.6 L115.0 174.9 L113.9 174.8 L112.5 175.1 L111.8 175.1 L111.3 174.9 L111.1 174.4 L111.0 173.9 L111.1 173.6 L110.9 173.5 L110.8 173.1 L110.7 172.9 L110.4 172.9 L110.2 173.0 L110.1 173.1 L109.9 173.1 L109.7 173.1 L109.4 172.9 L109.1 172.7 L108.8 171.8 L108.4 171.4 L107.7 170.9 L107.1 171.1 L106.9 170.7 L107.1 170.0 L107.6 169.7 L107.8 169.4 L108.2 168.8 L108.5 168.1 L108.7 167.5 L109.3 166.7 L110.7 166.3 L113.5 166.2 L113.5 166.2 L113.7 166.2 L113.7 166.1 L113.7 165.9 L113.2 165.8 L113.1 165.6 L113.3 164.0 L113.4 163.7 L113.7 163.4 L114.1 163.2 L114.6 162.9 L114.9 162.4 L115.0 162.0 L114.9 160.6 L114.4 159.3 L113.3 157.5 L112.6 155.7 L113.2 154.4 L112.5 153.9 L112.1 153.8 L111.1 153.6 L110.6 153.5 L110.3 153.2 L109.9 151.9 L109.1 151.2 L108.0 150.8 L106.9 150.7 L107.0 150.8 L107.0 150.9 L107.0 150.9 L107.2 151.0 L106.7 151.7 L106.4 151.7 L106.3 151.5 L106.1 151.4 L105.7 151.2 L105.7 151.5 L105.9 151.9 L105.7 152.4 L104.9 153.5 L105.7 153.1 L105.7 153.5 L105.5 154.2 L104.5 155.8 L104.3 156.5 L104.2 157.3 L103.8 158.3 L103.7 158.7 L103.7 159.1 L103.9 159.6 L104.0 160.1 L103.8 160.6 L103.3 161.0 L102.7 161.1 L102.2 160.9 L102.0 161.1 L101.9 161.2 L101.5 161.4 L101.2 160.6 L100.4 160.0 L99.5 159.7 L98.7 159.2 L97.2 160.1 L96.6 160.7 L96.7 161.2 L96.2 161.2 L95.8 161.2 L95.5 161.4 L95.2 161.7 L94.5 161.3 L93.7 161.2 L93.2 161.1 L93.7 160.4 L92.6 159.6 L92.3 159.4 L92.1 159.2 L92.3 158.5 L92.6 157.9 L92.7 157.8 L92.7 156.7 L92.3 154.8 L92.2 153.8 L92.3 153.5 L92.6 153.1 L92.9 152.6 L93.0 151.9 L92.9 151.3 L92.8 150.9 L92.2 150.0 L92.1 149.7 L92.1 149.4 L92.0 149.1 L91.9 148.8 L91.6 148.8 L90.9 148.8 L90.7 148.7 L90.8 148.3 L91.2 148.1 L91.5 147.8 L91.2 147.5 L91.2 147.2 L91.5 146.8 L92.5 145.9 L93.5 145.3 L94.0 145.7 L94.2 145.7 L94.2 145.2 L93.8 144.3 L93.7 143.7 L93.2 143.9 L93.0 144.1 L92.7 144.2 L92.3 143.8 L92.1 143.4 L92.1 142.9 L92.0 142.2 L91.8 141.7 L91.2 140.9 L91.0 140.5 L91.3 140.6 L91.4 140.6 L91.4 140.7 L91.5 141.0 L91.7 141.0 L92.0 140.6 L92.3 140.3 L92.8 140.1 L93.4 140.0 L93.8 140.2 L94.4 141.1 L95.0 141.2 L93.8 139.1 L93.5 138.8 L93.7 138.4 L93.7 138.2 L93.5 138.2 L93.4 138.4 L93.2 138.8 L93.4 139.1 L93.3 139.4 L93.1 139.6 L92.7 139.7 L92.4 139.6 L91.9 138.9 L91.0 138.4 L90.7 137.6 L90.7 136.7 L90.7 136.0 L90.5 136.3 L90.6 135.5 L90.7 135.2 L90.4 135.2 L90.2 135.1 L90.0 134.7 L90.0 136.0 L89.9 136.6 L89.7 137.0 L89.5 137.0 L89.1 136.9 L88.6 137.0 L88.1 137.2 L87.7 137.5 L87.0 136.5 L87.7 136.0 L87.9 136.2 L88.5 136.8 L88.7 136.8 L88.6 136.4 L88.2 135.9 L88.0 135.5 L88.0 134.0 L88.4 133.6 L88.9 133.8 L89.5 134.1 L90.2 134.0 L90.2 133.8 L89.8 133.8 L89.4 133.7 L89.1 133.5 L89.0 133.3 L89.0 133.0 L89.2 133.0 L89.2 132.8 L88.9 132.9 L88.7 133.0 L88.5 133.0 L88.4 132.7 L88.2 132.3 L88.0 132.3 L88.0 133.0 L87.7 132.8 L87.7 133.5 L87.5 133.5 L87.6 132.5 L87.8 131.7 L88.1 131.2 L88.7 130.8 L89.1 130.6 L89.4 130.5 L89.7 130.6 L90.1 130.9 L90.5 131.1 L91.1 131.0 L91.5 130.7 L91.7 130.3 L91.5 130.3 L91.2 130.7 L90.7 130.7 L90.1 130.4 L89.7 130.0 L89.5 130.0 L88.0 130.8 L87.8 130.5 L87.5 130.1 L87.3 129.6 L87.2 129.2 L87.0 128.9 L86.2 128.4 L85.0 126.5 L84.7 126.5 L85.3 127.7 L87.1 129.6 L87.5 130.8 L87.4 131.4 L87.0 132.5 L87.0 133.0 L87.4 134.6 L87.3 135.2 L87.0 136.0 L86.9 135.5 L86.6 134.9 L86.5 134.4 L86.4 134.1 L85.7 133.5 L85.5 133.3 L86.0 132.4 L85.9 130.3 L85.5 128.9 L84.5 127.4 L82.9 125.2 L81.3 122.1 L80.9 120.3 L80.3 119.0 L80.1 118.8 L79.6 118.2 L77.7 115.3 L77.4 113.9 L78.3 107.9 L78.5 107.2 L78.8 106.6 L79.8 105.7 L80.1 105.2 L80.0 104.9 L80.0 104.5 L79.6 104.0 L78.4 103.4 L77.9 102.9 L77.8 102.6 L77.7 102.0 L77.6 101.7 L77.4 101.5 L76.4 100.9 L73.7 98.2 L72.6 97.4 L70.5 96.7 L70.3 96.6 L70.0 96.3 L69.7 95.7 L69.6 95.0 L69.6 94.2 L69.8 93.6 L70.3 93.2 L70.3 93.2 L70.7 92.1 L70.7 91.7 L70.6 91.3 L70.5 91.0 L70.3 90.8 L70.1 90.4 L69.8 89.7 L69.7 88.3 L69.5 87.4 L69.3 87.0 L69.2 86.6 L69.2 86.3 L69.6 85.8 L69.7 85.7 L69.6 85.6 L69.3 85.3 L69.3 85.1 L69.3 85.0 L69.5 84.8 L69.8 84.7 L70.0 84.6 L70.1 84.4 L70.1 84.2 L70.1 84.1 L69.5 83.8 L69.1 83.3 L68.5 82.2 L66.9 80.3 L66.2 79.0 L64.2 74.1 L64.2 74.0 L64.2 71.4 L64.4 69.2 L64.2 66.5 L64.2 66.4 L64.3 65.9 L64.2 65.7 L64.1 65.3 L63.7 64.7 L63.7 64.3 L64.3 63.5 L65.8 63.3 L68.7 63.6 L70.9 63.4 L71.6 63.1 L73.3 62.2 L74.0 62.0 L72.7 61.2 L71.9 60.4 L72.0 59.6 L73.2 58.8 L76.8 57.0 L77.7 56.3 L77.8 56.0 L77.9 55.2 L78.0 54.8 L78.1 54.5 L78.8 53.7 L79.1 53.1 L79.7 51.1 L80.4 50.0 L81.3 49.1 L83.4 47.5 L83.9 46.9 L84.0 46.4 L84.0 45.9 L84.1 45.0 L84.4 44.5 L85.1 43.4 L85.4 42.8 L85.5 42.1 L85.5 41.6 L85.5 41.5 L85.7 40.9 L86.2 40.3 L86.9 40.0 L88.2 39.7 L88.8 39.3 L89.3 38.9 L91.7 36.9 L92.9 36.2 L93.7 36.0 L95.9 35.7 L97.5 35.2 L98.6 34.9 L101.1 34.9 L101.8 34.8 L102.5 34.5 L103.5 33.8 L104.0 33.6 L104.1 33.7 L104.3 33.9 L104.6 34.1 L105.0 34.1 L105.3 34.0 L106.6 33.1 L108.0 32.4 L108.7 32.3 L109.3 32.5 L109.8 32.8 L110.3 32.9 L111.1 32.5 L111.3 32.3 L111.3 32.0 L111.5 31.7 L111.8 31.5 L112.2 31.5 L112.5 31.6 L112.8 31.8 L113.1 32.0 L113.1 32.4 L113.1 33.2 L113.2 33.6 L113.5 33.7 L114.7 33.8 L116.8 34.3 L117.5 34.4 L118.0 34.3 L118.3 34.2 L118.6 34.2 L119.1 34.4 L119.5 34.6 L119.9 34.9 L120.3 35.1 L120.8 35.2 L121.5 35.2 L121.7 35.0 L121.8 34.7 L122.1 34.4 L124.1 34.3 L125.1 35.1 L126.3 34.8 L126.6 34.6 L126.7 34.6 L127.7 34.1 L129.0 33.8 L129.2 33.9 L129.4 34.1 L129.7 34.3 L130.1 34.3 L130.4 34.2 L131.3 33.2 L131.4 33.0 L131.4 32.9 L131.8 32.9 L131.6 33.1 L131.7 33.4 L131.9 33.7 L132.3 33.9 L133.0 33.7 L133.5 33.3 L134.0 33.0 L134.9 33.1 L136.8 33.9 L141.0 34.5 L141.2 34.6 L141.5 34.6 L141.7 34.6 L141.8 34.6 L142.0 34.5 L142.2 34.3 L142.5 34.1 L142.9 34.0 L143.6 34.2 L144.2 34.4 L144.8 34.5 L145.5 34.2 L145.9 33.8 L146.2 33.2 L146.6 32.7 L147.2 32.4 L147.8 32.4 L148.7 32.8 L149.3 32.7 L149.6 32.5 L149.9 32.0 L150.2 31.8 L150.5 32.0 L150.7 32.6 L150.9 32.8 L151.5 32.7 L152.6 31.9 L153.1 31.6 L153.7 31.7 L154.2 32.0 L154.7 32.4 L155.3 32.7 L155.5 32.7 L156.2 32.6 L156.5 32.6 L156.8 32.7 L157.4 33.1 L157.7 33.2 L158.3 33.3 L159.8 33.6 L160.4 33.8 L160.6 34.2 L160.6 34.7 L160.4 36.4 L160.5 36.7 L161.7 38.8 L162.3 39.5 L163.1 39.8 L165.1 39.2 L166.2 37.4 L167.0 35.6 L168.1 35.1 L168.1 36.2 L168.2 37.0 L168.6 37.8 L170.7 41.0 L171.4 41.6 L171.6 41.8 L172.2 41.9 L172.4 42.1 L173.4 43.4 L173.7 43.6 L174.0 43.8 L174.6 43.8 L175.7 43.9 L176.7 43.7 L177.8 43.4 L178.6 42.8 L179.2 42.6 L179.8 42.4 L180.8 41.7 L181.1 41.8 L181.4 42.1 L181.6 42.3 L181.8 42.6 L182.4 42.4 L183.0 42.7 L183.6 43.2 L183.8 43.9 L184.4 43.5 L184.8 43.5 L185.1 43.7 L185.7 44.0 L186.3 44.0 L187.0 43.9 L187.4 43.9 L188.4 44.5 L189.0 45.4 L189.4 46.4 L190.0 47.3 L193.1 49.9 L194.0 50.4 L194.1 50.4 L195.0 50.6 L195.9 50.6 L196.8 50.2 L197.7 50.2 L199.5 50.7 L200.3 50.7 L200.8 50.0 L200.7 48.3 L201.2 47.8 L201.7 47.3 L202.4 46.8 L202.9 46.4 L203.2 45.7 L203.0 45.0 L202.5 44.5 L201.9 44.0 L201.5 43.4 L200.5 41.3 L200.0 40.7 L198.7 39.9 L198.2 39.4 L197.9 38.7 L198.0 37.8 L197.9 37.1 L197.5 36.5 L196.8 35.9 L196.6 35.6 L196.6 35.1 L196.6 34.7 L196.8 34.3 L197.5 34.4 L199.1 35.0 L199.8 35.0 L199.9 34.8 L200.0 34.2 L200.1 34.1 L200.3 34.0 L200.6 34.1 L201.2 34.0 L202.1 34.2 L203.4 34.3 L204.1 34.2 L204.6 33.8 L205.2 33.1 L205.4 32.3 L205.8 30.4 L206.1 29.8 L206.3 30.0 L208.6 31.3 L208.9 31.4 L209.4 31.5 L209.9 31.3 L210.1 31.3 L212.1 31.0 L213.0 30.7 L213.4 30.0 L213.5 29.9 L213.8 29.7 L213.9 29.5 L213.5 29.2 L213.5 29.0 L213.6 28.7 L213.6 28.6 L214.0 28.4 L214.4 28.4 L214.8 28.5 L215.4 28.6 L215.4 28.3 L215.1 28.3 L215.0 28.1 L214.9 27.8 L214.9 27.5 L214.9 27.1 L215.1 27.0 L215.4 27.0 L215.6 26.9 L216.4 26.2 L216.6 26.3 L217.1 27.0 L217.2 27.5 L217.4 28.7 L217.5 29.0 L217.9 29.2 L218.7 29.4 L219.1 29.6 L219.8 30.7 L220.4 31.0 L220.8 31.2 L223.5 32.0 L223.6 32.1 L223.9 32.4 L224.1 32.7 L224.4 33.2 L225.6 35.0 L226.6 35.9 L227.1 36.2 L227.6 36.4 L228.2 36.5 L229.6 35.7 L229.7 35.5 L230.0 35.4 L230.3 35.4 L230.7 35.5 L231.3 35.9 L231.7 36.0 L232.2 35.9 L232.3 35.7 L232.3 35.4 L232.7 34.5 L233.2 34.4 L233.3 34.3 L234.0 33.3 L235.1 32.0 L235.1 31.8 L235.2 31.8 L235.7 32.0 L236.3 32.4 L236.6 32.9 L237.0 33.1 L237.8 32.8 L238.9 32.1 L239.9 31.2 L240.2 30.6 L240.4 30.0 L240.7 29.6 L241.2 29.6 L241.2 29.6 L241.3 29.6 L241.3 29.6 L241.8 29.7 L242.1 29.5 L242.5 28.8 L242.6 28.0 L242.6 27.8 L242.8 27.6 L243.2 27.4 L243.4 27.2 L244.0 26.3 L244.6 25.9 L245.2 25.9 L246.2 26.6 L246.9 27.2 L247.3 27.3 L248.0 27.5 L248.8 27.8 L249.2 27.9 L249.7 27.5 L249.8 27.2 L249.8 26.9 L249.8 26.6 L249.8 26.3 L249.9 26.0 L250.2 25.7 L250.3 25.5 L250.6 24.6 L250.8 24.4 L251.4 24.1 L252.6 22.4 L253.1 22.0 Z" fill="#172033" fill-rule="evenodd"/></svg>
