<svg xmlns="http://www.w3.org/2000/svg" viewBox="0 0 320 200" role="img"><path d="M249.7 151.8 L255.2 156.6 L257.5 166.2 L255.5 173.6 L248.2 171.4 L243.9 174.1 L239.0 176.3 L233.8 177.8 L228.5 178.0 L223.1 176.1 L219.1 172.7 L216.2 169.6 L211.2 166.6 L206.2 159.9 L203.7 158.4 L192.9 157.6 L144.3 143.1 L125.9 134.4 L109.7 122.3 L97.3 110.7 L87.8 104.5 L83.5 107.3 L78.9 107.4 L69.7 103.9 L62.5 95.9 L63.9 82.7 L66.7 80.4 L80.5 72.6 L86.9 71.8 L91.2 73.2 L93.0 75.1 L91.9 76.1 L85.7 78.8 L79.6 85.4 L77.7 93.9 L83.5 102.6 L88.5 103.4 L95.1 102.5 L101.0 102.9 L103.5 107.3 L105.9 110.4 L111.6 111.5 L123.1 111.9 L132.8 116.0 L135.7 116.0 L131.5 110.4 L126.4 106.9 L121.3 104.7 L116.7 101.7 L113.3 95.8 L119.5 97.9 L124.6 97.8 L127.4 94.3 L126.7 86.0 L131.8 89.4 L133.8 94.3 L135.0 99.6 L138.0 104.1 L143.6 106.4 L145.6 102.7 L144.6 96.4 L137.7 85.6 L136.7 80.7 L137.7 76.3 L139.8 72.6 L145.4 76.2 L147.9 74.9 L146.4 66.0 L151.9 69.3 L152.3 73.7 L151.4 78.3 L153.2 82.7 L158.0 85.5 L160.3 84.0 L161.9 81.0 L166.7 78.2 L169.3 75.0 L171.4 71.2 L172.3 67.8 L171.0 63.6 L167.8 61.8 L159.2 59.8 L145.1 53.2 L127.7 41.2 L124.9 39.8 L122.8 37.1 L117.6 32.1 L112.2 29.8 L109.7 35.0 L107.2 38.2 L101.9 37.5 L97.4 33.4 L96.9 26.7 L103.2 22.0 L113.6 22.5 L138.0 28.7 L156.2 43.1 L186.9 51.9 L192.5 51.4 L191.9 56.5 L190.2 61.2 L187.5 64.7 L180.0 67.7 L178.0 72.0 L175.8 82.7 L174.5 105.3 L185.2 117.3 L202.3 125.5 L220.2 136.7 L226.9 142.3 L234.3 147.2 L242.1 150.5 L249.7 151.8 Z" fill="#172033" fill-rule="evenodd"/></svg>
