<svg xmlns="http://www.w3.org/2000/svg" viewBox="0 0 320 200" role="img"><path d="M198.7 167.9 L200.0 168.5 L208.2 173.8 L210.0 176.4 L209.4 177.7 L207.1 178.0 L203.5 178.0 L193.0 175.9 L182.2 175.6 L179.7 174.8 L179.0 173.6 L179.2 171.0 L178.7 169.5 L177.4 168.3 L176.0 167.7 L174.9 166.8 L174.4 164.8 L174.3 159.2 L175.2 157.0 L177.7 157.8 L179.9 159.0 L186.3 160.2 L189.3 161.1 L197.3 166.3 L198.7 167.9 Z M149.1 93.0 L149.5 94.5 L150.4 96.2 L154.0 101.0 L154.0 102.3 L152.2 105.0 L151.7 106.6 L151.6 107.7 L151.2 108.5 L150.0 109.3 L148.6 109.8 L146.5 110.1 L144.6 109.9 L143.8 108.7 L142.8 106.8 L134.2 99.0 L131.9 98.0 L125.3 97.7 L123.7 97.3 L121.9 96.3 L118.9 94.0 L117.7 92.4 L117.3 91.0 L117.1 89.7 L116.4 88.2 L112.4 84.4 L110.7 82.0 L110.0 78.2 L110.5 76.7 L111.5 74.8 L114.8 70.0 L114.8 68.4 L114.4 66.7 L114.3 64.9 L116.4 37.7 L116.1 35.9 L115.2 34.2 L116.7 31.6 L118.2 27.8 L119.8 24.8 L121.6 24.8 L128.2 22.6 L132.0 22.0 L134.8 23.1 L136.7 25.5 L138.0 28.0 L138.7 30.8 L135.3 59.6 L136.7 65.8 L143.5 75.5 L146.0 81.8 L146.1 83.4 L145.8 86.6 L146.0 88.2 L146.7 89.3 L147.7 90.3 L148.7 91.4 L149.1 93.0 Z" fill="#172033" fill-rule="evenodd"/></svg>
