<svg xmlns="http://www.w3.org/2000/svg" viewBox="0 0 320 200" role="img"><path d="M209.3 127.3 L219.6 127.5 L228.5 130.4 L235.4 136.8 L239.4 147.6 L240.0 152.1 L240.2 163.6 L239.4 167.9 L236.9 173.9 L234.9 176.0 L225.9 178.0 L202.9 176.2 L195.9 158.1 L199.7 137.3 L209.3 127.3 Z M184.0 96.3 L190.7 100.0 L196.7 108.1 L196.7 116.3 L185.7 120.3 L179.4 116.2 L174.1 97.5 L164.3 91.7 L157.8 84.7 L153.3 83.1 L137.7 84.0 L131.3 83.1 L115.6 77.0 L94.4 64.4 L79.8 48.5 L83.7 32.4 L85.6 30.8 L87.0 29.9 L88.4 29.3 L90.8 28.8 L96.8 26.3 L98.9 24.8 L100.3 22.0 L149.6 50.3 L161.7 62.9 L170.3 83.2 L175.9 92.4 L184.0 96.3 Z" fill="#172033" fill-rule="evenodd"/></svg>
