<svg xmlns="http://www.w3.org/2000/svg" viewBox="0 0 320 200" role="img"><path d="M185.0 150.3 L183.3 150.9 L182.5 151.4 L182.3 151.8 L182.4 152.3 L182.7 153.3 L182.5 154.3 L182.1 155.3 L181.6 156.1 L180.9 156.8 L179.3 158.1 L177.5 159.1 L175.5 159.6 L173.5 159.7 L170.4 159.6 L168.5 159.9 L168.1 159.8 L167.7 159.6 L167.3 159.1 L167.1 159.0 L161.5 159.4 L159.7 159.8 L158.9 159.9 L156.1 159.2 L152.5 159.4 L151.6 159.4 L149.7 159.5 L147.7 160.2 L145.8 161.1 L144.2 162.1 L144.1 162.3 L143.7 162.6 L143.3 163.4 L142.7 164.6 L142.2 165.0 L141.1 165.7 L140.6 166.1 L138.1 169.1 L136.9 169.9 L136.2 170.1 L135.6 170.1 L135.3 170.3 L135.1 171.0 L135.3 173.5 L135.3 173.6 L135.0 173.9 L134.9 174.4 L134.6 174.4 L134.0 174.7 L133.2 175.1 L132.7 175.0 L128.6 172.9 L128.4 172.8 L127.6 171.8 L127.5 171.7 L126.9 171.7 L126.3 171.9 L124.0 172.9 L123.4 173.0 L122.7 173.1 L121.7 173.1 L121.0 173.2 L120.4 173.5 L120.2 173.7 L120.1 173.8 L120.2 173.9 L120.3 174.4 L120.5 175.0 L120.7 175.3 L120.6 175.7 L120.5 176.1 L120.4 176.3 L119.0 176.1 L118.7 174.9 L118.4 174.4 L117.9 174.4 L117.7 174.3 L117.5 173.6 L117.5 172.3 L116.6 172.8 L116.2 172.8 L116.0 172.2 L115.8 171.9 L115.4 171.5 L114.9 171.2 L114.6 171.1 L114.2 171.4 L114.4 171.7 L114.8 172.1 L115.0 172.2 L115.1 172.5 L115.3 173.3 L115.4 173.7 L115.2 173.5 L114.9 173.3 L114.5 173.2 L114.2 173.1 L113.9 173.1 L113.7 173.1 L113.5 173.1 L113.2 172.9 L112.8 172.5 L111.3 170.7 L111.2 170.4 L111.0 170.2 L110.3 170.0 L110.1 169.9 L110.0 169.7 L110.0 169.4 L110.1 168.8 L110.0 168.7 L109.5 168.7 L109.2 168.6 L108.7 168.4 L108.4 168.3 L107.2 168.2 L106.7 168.2 L105.5 167.7 L104.8 167.6 L104.0 167.6 L103.5 167.8 L103.5 168.3 L104.0 168.7 L104.8 169.1 L105.3 169.3 L106.3 169.2 L106.6 169.3 L106.4 169.9 L106.7 169.8 L107.0 169.7 L107.3 169.8 L107.6 169.9 L107.3 170.3 L107.0 170.7 L107.6 170.7 L107.8 170.6 L108.0 170.5 L108.2 170.7 L107.9 171.0 L107.5 171.2 L107.1 171.4 L106.6 171.5 L106.1 171.5 L105.8 171.3 L105.5 171.0 L105.0 170.7 L104.9 171.4 L105.2 172.1 L105.3 172.7 L104.8 173.3 L105.2 173.6 L105.4 173.7 L105.3 174.0 L105.1 174.1 L104.5 174.1 L104.4 174.2 L104.4 174.4 L104.6 174.7 L104.7 175.1 L104.7 175.4 L104.5 175.5 L104.2 175.5 L103.9 175.4 L103.7 175.3 L103.4 175.1 L103.5 175.0 L103.5 175.0 L103.6 175.0 L103.6 174.9 L103.3 174.7 L102.9 174.7 L102.7 174.9 L102.6 175.2 L102.4 175.2 L102.0 175.2 L101.8 174.9 L102.0 174.5 L101.3 175.0 L100.9 175.7 L100.5 176.4 L99.4 176.7 L98.4 176.7 L97.8 176.8 L97.6 177.0 L97.5 177.5 L97.2 177.9 L96.7 178.0 L96.4 177.7 L96.8 176.2 L97.2 175.5 L98.0 175.7 L99.6 175.1 L99.1 174.9 L98.1 175.1 L97.6 174.9 L98.0 174.5 L98.6 174.1 L99.3 173.8 L99.9 173.7 L101.4 174.0 L101.9 173.8 L102.0 173.1 L101.5 173.3 L101.1 173.2 L100.8 173.0 L100.6 172.7 L101.5 171.9 L101.5 171.6 L100.7 171.5 L100.1 171.3 L99.9 171.0 L99.6 170.8 L99.0 171.1 L99.1 171.2 L99.2 171.4 L99.2 171.5 L98.5 171.5 L98.1 171.5 L97.8 171.7 L98.4 171.9 L99.1 172.2 L99.6 172.6 L99.6 173.1 L99.0 172.7 L98.3 172.4 L97.5 172.3 L96.8 172.5 L96.9 172.7 L97.1 172.9 L97.3 173.0 L97.6 173.1 L96.7 173.7 L96.1 174.0 L95.6 174.1 L95.6 174.0 L95.6 173.9 L95.5 173.8 L95.4 173.7 L93.6 173.7 L93.9 173.3 L95.2 172.6 L95.6 172.1 L95.4 171.6 L94.1 171.0 L94.2 170.5 L93.6 170.6 L93.3 171.0 L93.0 171.5 L92.7 172.0 L92.2 172.3 L91.7 172.4 L91.2 172.4 L89.5 172.2 L89.2 172.1 L88.4 171.6 L88.1 171.5 L87.4 171.4 L87.0 171.3 L86.8 170.9 L87.0 170.3 L86.3 170.6 L86.0 170.7 L86.1 170.2 L86.4 169.9 L86.7 169.7 L87.3 169.7 L87.7 169.6 L88.4 169.1 L88.8 169.1 L89.2 169.2 L90.0 169.6 L90.5 169.7 L91.0 169.7 L91.4 169.6 L91.7 169.4 L92.0 169.1 L91.8 168.9 L91.4 169.1 L91.1 169.1 L90.8 169.0 L90.2 168.6 L90.0 168.5 L90.0 168.4 L89.8 168.1 L89.7 167.5 L90.0 167.3 L91.2 167.3 L92.5 167.1 L92.8 167.2 L92.9 167.4 L93.0 167.7 L93.2 167.9 L93.8 167.9 L94.0 166.9 L94.6 166.7 L94.3 166.2 L93.8 166.1 L92.7 166.1 L92.1 166.0 L91.1 165.7 L90.7 165.7 L90.2 165.7 L88.8 166.3 L87.4 166.5 L87.0 166.7 L84.8 165.7 L83.8 164.9 L83.2 164.7 L83.0 165.2 L82.6 165.4 L81.9 165.5 L80.5 165.7 L77.1 165.1 L76.8 164.8 L77.0 164.5 L77.7 164.3 L79.1 164.2 L79.7 163.9 L79.9 163.4 L80.1 163.3 L81.4 163.1 L81.6 162.8 L82.1 162.1 L82.4 161.9 L83.0 161.8 L83.5 162.0 L84.3 163.0 L84.6 162.9 L86.4 161.9 L85.6 161.6 L84.1 161.8 L83.3 161.4 L82.8 161.0 L82.8 160.8 L82.8 160.3 L83.1 158.4 L83.2 158.1 L84.5 156.6 L84.7 156.2 L85.0 155.3 L85.4 155.0 L85.6 155.0 L85.8 155.0 L85.8 155.2 L85.8 155.6 L86.1 155.3 L86.6 154.7 L87.1 154.0 L87.2 153.5 L87.0 153.2 L86.5 152.8 L86.4 152.6 L86.4 152.2 L86.5 152.0 L86.5 151.7 L86.0 151.4 L86.1 151.2 L86.5 151.2 L87.1 151.5 L87.4 151.3 L87.7 151.2 L87.8 151.5 L88.3 151.9 L88.9 151.4 L89.6 151.2 L90.3 151.5 L90.5 151.2 L90.5 150.7 L90.6 150.2 L90.3 150.0 L90.0 149.6 L90.0 149.3 L90.2 149.0 L90.6 149.1 L90.9 149.6 L91.2 150.0 L91.8 150.0 L91.9 149.7 L91.8 149.3 L91.8 148.9 L92.1 149.0 L92.2 149.3 L92.5 149.4 L93.0 149.3 L93.5 149.3 L94.2 148.9 L94.4 148.9 L94.7 149.1 L95.4 149.3 L95.7 149.1 L95.9 149.0 L96.2 148.7 L96.7 148.4 L97.4 148.2 L98.2 148.2 L98.5 148.3 L99.1 148.4 L99.5 148.4 L99.6 148.4 L99.6 148.1 L99.8 147.9 L100.1 147.8 L101.4 148.4 L101.5 148.7 L101.6 149.3 L101.8 149.4 L102.2 149.4 L102.3 149.1 L102.4 148.8 L102.5 148.6 L102.8 148.7 L103.1 148.9 L103.3 149.1 L103.4 149.3 L103.7 149.7 L104.4 150.1 L105.2 150.2 L105.8 150.1 L105.5 149.8 L105.2 149.4 L105.0 149.2 L104.7 149.2 L104.1 149.1 L103.8 149.0 L102.5 147.7 L102.0 147.4 L101.6 147.4 L100.9 147.4 L100.6 147.2 L100.4 147.0 L99.7 146.0 L99.7 145.8 L99.7 145.8 L99.4 145.8 L99.3 146.0 L99.2 146.2 L99.0 146.4 L98.6 146.4 L98.9 146.6 L99.1 146.8 L99.3 147.0 L98.8 147.2 L98.0 147.5 L97.5 147.4 L97.2 147.0 L97.0 147.0 L96.8 147.4 L96.6 147.5 L95.8 147.4 L95.7 147.3 L95.7 147.2 L95.5 147.0 L95.4 147.0 L95.2 147.2 L95.3 147.4 L95.5 147.6 L95.6 147.6 L95.6 147.8 L95.2 148.0 L94.7 147.9 L94.3 147.8 L93.9 147.5 L93.7 147.2 L93.8 147.0 L94.4 146.4 L94.2 146.3 L94.0 146.2 L94.1 145.9 L94.0 145.6 L93.6 145.3 L93.2 145.2 L93.3 145.9 L92.9 146.9 L92.1 146.9 L91.7 146.5 L91.6 146.2 L91.2 146.0 L90.8 145.8 L90.6 145.0 L90.8 144.5 L90.9 144.0 L91.0 142.9 L91.0 142.4 L91.4 141.7 L91.6 141.1 L92.1 140.5 L92.5 140.0 L92.4 139.7 L92.8 139.2 L93.4 138.4 L93.9 137.8 L94.2 137.3 L94.5 136.9 L95.1 136.9 L95.8 136.9 L96.4 136.8 L94.9 136.7 L95.0 136.4 L95.1 136.2 L95.1 136.0 L94.9 135.8 L95.0 135.7 L95.0 135.4 L95.0 135.2 L95.2 135.1 L95.2 135.0 L95.0 134.8 L95.3 134.5 L95.6 134.4 L96.3 134.4 L96.6 134.3 L96.5 134.1 L96.3 133.9 L96.2 133.6 L96.6 133.0 L97.3 132.8 L98.0 132.8 L98.6 133.0 L98.4 132.6 L98.2 132.4 L98.1 132.1 L99.2 130.5 L99.6 130.2 L99.1 130.1 L98.8 129.9 L98.6 129.5 L98.8 129.0 L98.7 128.9 L98.4 128.6 L98.7 128.7 L98.8 128.7 L99.0 128.8 L99.6 128.5 L99.9 128.3 L100.0 128.0 L99.4 128.0 L97.6 127.8 L97.0 127.6 L97.1 127.2 L97.8 126.4 L97.5 126.4 L97.2 126.4 L96.9 126.5 L96.6 126.6 L96.7 125.8 L97.1 125.4 L97.7 125.1 L98.2 124.6 L98.4 124.2 L98.5 123.8 L98.7 123.5 L99.5 123.3 L99.7 123.0 L99.8 122.6 L99.6 122.2 L99.1 122.4 L96.1 123.7 L95.5 123.9 L95.2 124.0 L94.9 124.0 L94.7 123.9 L93.9 123.2 L93.8 123.1 L93.5 122.8 L93.0 122.7 L92.7 122.5 L93.2 122.0 L91.2 122.0 L91.3 122.2 L91.5 122.6 L91.6 122.8 L90.3 122.8 L90.0 122.7 L89.9 122.6 L89.9 122.4 L89.8 122.2 L89.6 121.9 L89.6 121.8 L89.4 121.6 L89.1 121.6 L88.6 121.7 L88.3 121.7 L88.0 121.6 L87.7 121.5 L87.1 121.0 L87.0 120.9 L86.9 120.7 L86.7 120.6 L86.4 120.6 L86.2 120.6 L85.4 119.9 L85.0 119.9 L84.8 120.4 L84.4 120.2 L84.0 120.1 L83.7 119.9 L83.4 119.0 L83.1 118.7 L82.7 118.4 L82.2 118.2 L81.7 118.0 L81.1 118.0 L80.8 117.9 L80.7 117.6 L79.9 117.6 L79.6 117.4 L79.5 116.7 L79.2 116.4 L79.0 116.7 L79.0 117.0 L79.1 117.3 L79.3 117.5 L79.4 117.8 L79.3 118.1 L79.3 118.5 L79.1 118.8 L79.1 119.1 L79.5 119.2 L79.4 119.6 L79.0 119.6 L78.7 119.8 L78.8 120.1 L79.1 120.4 L78.8 120.5 L78.3 120.3 L77.7 120.6 L77.1 121.1 L76.3 121.4 L76.1 121.9 L76.0 122.0 L75.6 121.8 L75.6 121.7 L75.6 121.6 L75.7 121.4 L75.5 121.3 L75.4 121.3 L75.3 121.2 L75.2 120.9 L75.7 120.4 L75.8 119.9 L76.2 119.7 L76.3 119.3 L76.3 118.9 L76.0 118.9 L75.8 119.0 L75.6 119.0 L75.5 118.9 L75.3 118.5 L75.2 118.4 L74.9 118.2 L74.6 118.2 L74.4 118.1 L74.4 117.9 L74.4 117.6 L74.5 117.2 L74.6 116.9 L74.4 116.7 L73.9 116.5 L73.8 116.3 L73.9 115.7 L73.8 115.5 L73.6 115.4 L72.5 115.3 L70.0 115.0 L69.9 115.0 L69.8 115.1 L69.7 115.2 L69.6 115.2 L69.4 115.1 L69.3 114.8 L69.2 114.8 L69.1 114.7 L69.0 114.1 L68.9 114.0 L68.7 113.9 L67.9 113.8 L67.5 113.2 L67.3 113.0 L67.1 112.8 L66.9 112.7 L66.7 112.6 L67.0 112.2 L67.4 112.1 L67.8 112.0 L68.2 111.8 L68.3 111.4 L68.5 110.0 L69.2 109.2 L70.0 109.3 L71.0 109.6 L71.9 109.4 L71.4 109.1 L70.0 109.1 L69.3 109.0 L68.8 108.6 L68.6 108.1 L68.5 107.6 L68.2 107.2 L68.6 106.8 L72.8 103.8 L72.9 103.7 L73.2 103.7 L73.4 103.6 L73.4 103.5 L73.5 103.1 L73.6 103.0 L74.0 102.6 L75.2 102.1 L75.7 101.7 L76.1 101.4 L77.6 101.2 L78.2 101.0 L78.5 100.5 L78.7 99.8 L79.0 99.2 L79.5 98.9 L80.1 98.8 L80.8 98.5 L82.2 97.4 L83.2 96.4 L83.4 96.1 L83.5 95.9 L83.8 96.1 L84.1 96.4 L84.2 96.5 L84.4 96.6 L84.7 96.7 L85.4 96.8 L86.2 96.7 L86.8 96.7 L87.3 96.7 L87.8 96.5 L87.9 96.3 L87.7 95.9 L87.4 95.5 L87.0 95.2 L87.0 94.8 L87.3 94.4 L88.0 94.2 L88.7 94.0 L89.2 93.8 L89.9 93.5 L90.5 93.3 L91.1 93.0 L91.9 92.7 L92.9 92.4 L93.7 92.2 L94.1 92.0 L94.3 91.8 L94.5 91.5 L94.7 91.2 L95.2 91.1 L95.6 91.0 L96.0 91.2 L96.4 91.3 L97.0 91.1 L97.2 91.1 L97.5 91.2 L97.8 91.5 L98.0 91.5 L98.7 91.6 L98.8 91.3 L98.7 91.0 L98.7 90.9 L98.8 90.5 L99.0 90.4 L99.6 90.5 L99.8 90.3 L99.9 90.2 L99.9 89.7 L100.0 89.5 L100.3 89.2 L100.6 89.0 L101.0 88.9 L102.2 88.9 L102.6 88.8 L102.8 88.5 L102.8 87.8 L103.0 87.3 L103.3 87.1 L103.7 87.2 L104.1 87.4 L104.4 87.7 L104.4 87.8 L106.1 87.7 L106.5 87.5 L106.3 87.1 L105.4 86.3 L106.6 85.2 L107.2 84.9 L107.2 84.9 L108.1 84.7 L108.4 84.6 L108.5 84.4 L108.6 84.2 L108.8 84.1 L109.1 84.1 L109.4 84.2 L110.6 84.6 L110.9 84.6 L112.1 83.9 L112.5 83.8 L112.9 83.7 L113.3 83.9 L113.6 84.2 L114.0 84.4 L114.3 84.2 L114.8 84.0 L115.7 83.9 L116.1 83.7 L116.3 83.4 L116.1 83.3 L115.7 83.3 L115.3 83.3 L115.6 82.9 L116.1 82.8 L116.7 82.7 L117.2 82.4 L117.7 81.7 L117.9 81.4 L117.8 81.1 L118.0 80.9 L118.3 80.7 L118.6 80.6 L118.9 80.5 L118.8 80.1 L119.1 79.8 L119.5 79.5 L119.9 79.1 L119.4 78.6 L120.1 78.1 L123.4 76.6 L123.9 76.3 L124.1 76.0 L124.9 74.7 L125.2 74.4 L125.9 73.8 L126.3 73.5 L127.0 72.3 L127.3 71.9 L128.7 70.6 L129.6 70.1 L130.5 70.1 L130.4 70.2 L130.3 70.3 L130.3 70.4 L130.1 70.5 L130.1 70.7 L131.1 70.5 L131.1 69.7 L130.7 68.8 L130.5 68.1 L130.7 67.7 L131.7 66.5 L132.2 65.2 L132.7 64.4 L132.8 64.0 L132.7 63.6 L132.4 63.2 L132.4 62.8 L133.4 62.0 L133.9 61.3 L134.4 61.2 L135.4 61.3 L135.7 61.1 L136.6 60.5 L137.1 60.3 L136.7 60.0 L136.3 59.8 L135.9 59.6 L135.7 59.3 L136.2 59.1 L136.7 59.1 L137.1 59.2 L137.5 59.5 L138.4 60.2 L138.9 60.4 L139.1 60.2 L139.5 59.4 L141.1 58.9 L141.5 58.2 L141.8 57.8 L142.4 57.5 L143.0 57.4 L143.3 57.6 L143.3 58.2 L143.5 58.4 L143.9 58.4 L144.5 58.5 L145.1 58.8 L146.0 59.4 L146.3 59.4 L146.4 59.8 L147.1 60.5 L147.3 60.9 L146.8 60.8 L146.5 61.0 L146.4 61.3 L146.5 61.7 L146.8 62.0 L147.2 62.2 L148.1 62.5 L148.0 62.6 L147.9 62.9 L148.4 62.9 L149.9 63.4 L150.3 63.7 L149.7 63.9 L149.1 64.1 L148.5 64.5 L148.1 65.1 L148.3 65.1 L148.6 65.1 L148.8 65.2 L149.0 65.5 L149.2 65.5 L149.6 65.3 L149.9 65.3 L150.0 65.5 L150.2 65.6 L150.3 65.7 L150.5 65.5 L150.9 64.9 L151.1 64.8 L151.6 65.0 L152.2 65.3 L152.6 65.4 L152.9 65.4 L153.1 65.3 L153.3 65.3 L153.5 65.4 L153.5 65.6 L153.4 65.8 L153.1 65.9 L152.9 66.0 L153.4 66.2 L154.0 66.3 L155.1 66.4 L155.4 66.4 L155.9 66.2 L156.1 66.2 L156.4 66.3 L156.6 66.4 L156.8 66.5 L156.9 66.6 L157.6 66.7 L158.0 66.5 L158.4 66.3 L158.9 66.2 L159.4 66.3 L159.9 66.5 L160.4 66.6 L160.9 66.4 L161.0 67.1 L161.4 67.4 L162.5 67.6 L163.5 68.1 L163.7 68.2 L164.0 68.1 L164.3 67.7 L164.4 67.7 L165.2 67.9 L168.0 68.0 L168.8 67.8 L169.3 68.1 L169.9 68.2 L170.4 68.0 L170.6 67.5 L170.8 67.3 L171.5 67.2 L172.7 67.0 L173.6 67.6 L173.9 67.5 L174.1 67.3 L174.3 67.0 L174.7 67.3 L174.7 67.9 L174.6 68.4 L174.8 68.7 L175.0 68.8 L175.3 68.7 L175.8 68.5 L175.7 69.1 L176.2 69.4 L176.9 69.4 L177.3 69.1 L177.8 69.3 L177.3 69.7 L178.6 69.8 L179.7 69.0 L182.7 64.9 L183.2 63.7 L182.6 63.1 L182.5 62.6 L182.2 62.0 L181.6 61.5 L180.9 61.2 L179.7 60.5 L179.0 60.0 L178.8 59.3 L178.5 58.7 L177.1 56.7 L177.0 56.2 L176.0 55.9 L175.7 55.5 L175.5 55.1 L174.9 52.6 L174.9 52.1 L175.3 51.7 L175.9 51.6 L177.2 51.6 L182.0 50.6 L184.9 50.8 L185.6 50.9 L186.2 51.3 L187.6 51.2 L188.6 51.6 L189.0 51.7 L190.2 51.3 L190.5 51.3 L190.8 51.5 L191.1 51.4 L191.5 51.0 L191.8 50.7 L192.1 50.7 L194.3 50.8 L195.0 50.7 L195.4 50.2 L198.2 50.3 L200.1 50.7 L200.7 50.8 L201.8 50.5 L202.2 49.3 L202.5 49.0 L203.1 48.8 L203.8 48.8 L204.3 48.6 L205.1 48.0 L205.4 47.6 L205.4 47.0 L206.1 47.4 L206.6 47.4 L207.1 47.2 L207.9 46.5 L208.7 45.9 L209.3 45.4 L209.5 45.3 L209.7 45.1 L209.8 44.9 L209.7 44.7 L209.0 44.6 L208.8 44.4 L208.9 44.1 L209.2 43.9 L209.5 43.9 L209.7 43.7 L209.8 43.5 L209.8 43.2 L209.9 43.0 L210.2 42.8 L210.0 42.7 L209.8 42.5 L209.5 42.5 L209.2 42.5 L209.2 42.2 L210.2 42.2 L210.5 42.1 L210.6 41.6 L210.6 41.5 L210.4 41.4 L210.2 41.3 L210.2 41.0 L210.3 40.8 L210.5 40.6 L210.7 40.5 L212.2 40.2 L212.4 40.2 L212.5 39.6 L212.8 39.2 L213.1 39.1 L213.4 39.4 L213.8 39.2 L213.6 39.0 L213.5 38.7 L213.5 38.5 L213.8 38.4 L214.2 38.5 L214.4 38.9 L214.8 39.0 L215.1 39.0 L215.4 38.8 L215.8 38.6 L216.2 38.6 L217.7 39.5 L217.8 39.8 L218.7 40.1 L218.9 40.3 L219.0 40.6 L219.2 40.7 L219.5 40.7 L219.8 40.5 L219.9 40.2 L219.9 39.9 L220.0 39.7 L220.7 39.5 L220.9 39.2 L221.0 38.8 L220.9 38.4 L222.1 38.5 L223.2 38.7 L224.1 38.6 L224.9 37.6 L225.0 36.6 L224.9 35.4 L225.1 34.4 L225.9 33.8 L225.9 33.6 L225.4 33.5 L225.2 33.1 L225.5 32.7 L226.3 32.6 L226.1 32.2 L226.3 31.9 L226.6 31.7 L226.5 31.5 L226.2 31.3 L225.9 31.2 L225.7 31.0 L225.6 30.4 L225.7 30.1 L225.8 29.7 L226.2 29.1 L226.6 28.4 L226.8 28.0 L226.9 27.1 L227.9 25.0 L228.2 24.7 L228.3 24.4 L228.3 23.7 L228.5 23.4 L228.8 23.2 L229.7 23.1 L230.1 23.0 L229.8 22.9 L229.6 22.8 L229.4 22.6 L229.3 22.4 L229.6 22.3 L230.1 22.1 L230.5 22.0 L230.9 22.1 L231.1 22.2 L232.0 23.1 L232.2 23.3 L232.7 23.4 L233.0 23.5 L234.2 23.4 L235.6 23.0 L236.3 22.8 L236.7 23.1 L236.6 23.5 L236.4 24.0 L236.1 24.4 L235.7 24.6 L236.9 25.0 L238.5 25.0 L239.8 25.2 L240.3 26.2 L239.9 28.7 L239.9 29.8 L240.5 30.8 L242.1 32.0 L242.3 32.5 L244.3 33.8 L244.6 33.9 L244.9 33.9 L245.1 33.9 L245.3 34.0 L245.4 34.2 L245.3 34.8 L245.4 35.1 L246.0 35.5 L246.5 35.3 L246.6 34.9 L246.1 34.4 L246.5 34.0 L247.0 33.7 L247.5 33.7 L247.9 34.0 L248.0 34.3 L248.2 35.5 L248.3 36.0 L248.7 36.6 L248.7 36.7 L248.8 37.1 L248.9 37.2 L249.0 37.3 L249.1 37.4 L249.6 38.5 L250.0 38.9 L250.5 39.2 L251.2 39.4 L251.7 39.8 L252.0 40.3 L252.1 41.0 L252.1 41.8 L252.2 42.2 L252.5 42.4 L253.3 42.9 L253.1 43.1 L252.3 43.3 L251.3 43.5 L250.8 43.6 L250.4 43.8 L250.3 43.9 L250.3 43.3 L250.3 43.0 L250.2 42.8 L249.8 42.5 L249.4 42.3 L248.6 42.2 L248.0 42.0 L247.7 41.7 L246.8 41.6 L246.4 41.8 L246.5 42.1 L246.1 42.4 L245.7 42.5 L245.4 42.2 L245.0 42.1 L244.7 42.1 L244.7 42.3 L244.7 42.6 L244.3 42.8 L244.0 43.0 L244.1 43.4 L244.1 43.6 L244.2 43.8 L244.5 43.8 L244.7 43.9 L244.7 44.2 L244.5 44.5 L244.3 44.4 L243.9 44.0 L243.6 44.1 L243.3 44.4 L243.6 44.8 L243.3 44.8 L243.1 45.2 L242.6 45.3 L242.5 45.9 L242.1 46.1 L241.8 46.2 L241.8 45.8 L242.0 45.1 L241.8 44.6 L241.4 44.6 L240.1 45.5 L239.5 46.2 L239.1 46.4 L238.7 46.5 L238.8 46.9 L238.6 48.6 L238.5 48.6 L238.2 48.5 L237.9 48.7 L237.5 49.1 L237.6 49.1 L237.7 49.3 L237.5 49.4 L237.2 49.4 L236.7 49.1 L236.3 48.9 L235.5 48.9 L234.9 49.2 L234.8 49.8 L234.8 50.0 L234.3 50.1 L234.2 50.3 L234.1 50.5 L233.9 51.2 L233.8 51.7 L233.6 51.8 L233.2 51.1 L232.9 51.2 L232.8 51.8 L232.3 52.1 L232.5 52.2 L232.6 52.3 L232.9 52.6 L232.6 52.7 L232.4 52.9 L232.1 53.2 L232.2 53.2 L232.1 53.5 L231.9 53.8 L231.9 54.0 L231.8 54.5 L231.5 54.7 L231.2 54.6 L231.0 54.4 L230.3 54.1 L229.8 54.3 L229.6 55.0 L229.4 55.7 L229.4 56.7 L229.0 57.6 L228.6 57.9 L228.5 58.4 L228.2 58.6 L227.7 58.0 L227.3 58.0 L226.2 58.6 L225.9 59.4 L225.5 60.4 L225.2 60.8 L224.5 61.0 L223.8 61.8 L223.5 62.7 L223.1 63.9 L222.5 64.7 L222.9 65.4 L222.8 65.9 L222.6 66.3 L222.8 67.2 L223.5 67.8 L224.1 68.3 L224.4 68.5 L225.1 68.5 L225.3 68.9 L225.7 69.3 L226.0 69.5 L226.2 69.5 L226.7 69.4 L226.8 69.5 L227.1 69.8 L227.1 69.9 L226.9 70.0 L226.8 70.4 L226.8 70.5 L226.6 71.1 L226.5 71.3 L226.1 71.6 L225.7 72.2 L224.6 75.9 L224.4 77.2 L224.8 78.3 L224.7 78.7 L224.6 79.1 L224.6 80.1 L224.8 81.4 L225.0 81.7 L225.5 82.2 L225.9 82.4 L225.6 82.6 L225.5 83.2 L225.6 83.4 L225.0 84.0 L225.1 84.5 L224.8 85.2 L224.5 85.6 L224.2 85.6 L224.0 85.3 L223.6 85.4 L222.9 85.5 L222.4 85.4 L221.9 85.5 L221.4 85.4 L221.0 85.5 L220.3 85.5 L219.7 85.8 L219.7 86.3 L219.1 86.4 L218.7 86.8 L218.4 86.9 L217.5 86.8 L216.0 87.2 L214.9 87.8 L213.8 88.2 L213.5 88.6 L213.1 89.0 L212.7 89.9 L212.4 90.3 L212.2 90.3 L211.9 90.0 L211.7 89.6 L211.4 89.3 L211.0 89.3 L210.4 89.4 L209.9 89.7 L209.8 90.0 L209.6 90.3 L209.6 90.4 L209.6 90.6 L209.4 90.8 L209.4 91.0 L209.3 91.4 L209.2 91.5 L209.1 91.8 L209.0 92.0 L208.8 92.2 L208.7 92.4 L208.6 92.7 L208.6 93.4 L208.3 93.5 L208.1 93.8 L208.0 94.1 L206.9 95.1 L205.8 96.2 L204.4 96.2 L202.8 96.6 L200.6 98.4 L199.5 99.2 L198.6 99.3 L198.1 99.6 L197.1 99.9 L196.6 99.9 L196.3 100.2 L195.4 100.1 L194.4 100.3 L193.9 100.9 L193.5 100.9 L193.5 100.7 L192.9 100.9 L192.4 101.3 L192.3 102.1 L192.7 102.2 L193.5 102.5 L193.6 102.8 L193.8 103.0 L193.7 103.4 L193.7 104.1 L193.3 104.3 L193.1 104.5 L192.9 104.6 L192.7 104.8 L192.5 104.7 L192.1 104.6 L191.5 104.6 L191.2 104.8 L190.2 105.2 L190.0 105.6 L189.7 105.8 L189.2 106.1 L188.3 106.1 L187.9 106.4 L187.4 106.8 L187.0 107.0 L186.3 107.2 L185.8 107.1 L185.0 107.2 L184.2 108.1 L183.9 109.2 L183.1 109.1 L182.5 108.1 L182.0 107.8 L181.2 108.0 L181.0 108.4 L181.2 109.2 L180.9 109.2 L180.2 109.2 L180.0 109.2 L179.6 109.3 L179.1 109.5 L178.8 109.6 L178.6 109.5 L178.5 109.4 L178.4 109.2 L174.5 108.7 L174.4 108.8 L174.3 109.3 L174.2 109.4 L174.0 109.6 L173.7 109.7 L173.4 109.8 L173.2 109.9 L172.8 110.6 L172.6 110.8 L172.3 110.8 L171.6 110.5 L171.1 111.2 L171.1 111.7 L170.9 112.9 L170.6 113.2 L167.9 113.4 L168.4 113.7 L168.3 114.0 L167.4 114.3 L166.3 114.2 L165.4 114.5 L164.9 115.4 L164.5 115.7 L164.0 115.3 L163.3 115.0 L162.8 115.6 L162.4 115.7 L161.9 116.0 L161.5 116.3 L161.1 117.0 L160.3 117.4 L160.1 117.7 L160.0 117.9 L159.8 118.3 L159.7 118.6 L159.7 118.8 L159.9 119.3 L159.9 120.0 L160.0 120.3 L160.2 120.4 L160.5 120.4 L161.2 120.6 L161.7 121.2 L161.9 121.9 L160.8 123.1 L160.3 124.3 L160.7 126.3 L161.5 129.2 L161.5 130.0 L161.3 130.3 L161.0 130.4 L160.6 130.3 L160.3 130.0 L160.3 129.6 L160.5 129.2 L160.9 128.4 L159.9 127.3 L159.8 126.9 L159.5 126.6 L159.2 126.5 L158.8 126.7 L157.9 127.3 L157.9 127.4 L157.7 127.7 L157.5 127.8 L156.1 128.2 L156.1 128.4 L156.5 128.5 L157.2 128.7 L157.5 128.8 L157.9 128.6 L158.3 128.5 L158.7 128.6 L158.9 129.1 L158.7 129.3 L157.8 129.5 L157.5 129.6 L157.4 129.4 L157.2 129.3 L157.0 129.2 L156.8 129.2 L156.5 129.3 L156.5 129.4 L156.7 129.6 L156.7 129.8 L156.4 130.6 L156.1 131.4 L155.9 132.2 L156.3 132.8 L156.6 133.4 L157.0 133.6 L157.4 133.7 L158.0 134.3 L158.3 134.4 L158.9 134.4 L159.0 134.1 L158.9 133.8 L158.9 133.6 L159.4 133.6 L160.0 134.7 L160.6 135.0 L162.8 134.8 L163.5 135.0 L163.9 135.2 L164.1 135.5 L164.4 135.7 L164.8 135.8 L166.8 135.8 L167.3 135.8 L167.6 136.1 L168.2 137.0 L169.2 138.0 L169.3 138.3 L169.5 138.7 L170.0 139.2 L171.0 140.0 L171.1 140.4 L171.2 140.5 L171.4 140.3 L171.6 140.2 L171.8 140.3 L171.9 140.5 L172.0 141.0 L172.2 141.2 L172.4 141.4 L172.7 141.4 L173.2 141.7 L174.2 142.9 L174.7 143.4 L177.0 143.8 L180.5 147.2 L180.9 147.1 L182.2 146.5 L182.6 146.4 L183.5 147.5 L183.7 147.7 L184.2 147.9 L184.5 148.1 L184.8 148.7 L184.8 148.8 L184.9 149.2 L184.8 149.7 L185.0 150.2 L185.0 150.3 Z" fill="#172033" fill-rule="evenodd"/></svg>
