<svg xmlns="http://www.w3.org/2000/svg" viewBox="0 0 320 200" role="img"><path d="M298.0 92.7 L297.2 92.6 L296.9 92.5 L296.6 92.4 L295.6 92.7 L295.5 92.7 L295.1 92.6 L294.9 92.6 L294.7 92.7 L294.6 92.9 L294.5 93.0 L294.2 93.2 L294.1 93.3 L294.0 93.4 L293.9 93.5 L293.8 93.6 L293.9 93.7 L293.9 93.9 L294.1 94.1 L294.3 94.3 L294.4 94.4 L294.2 94.6 L294.1 94.7 L294.0 94.8 L294.1 94.9 L294.1 95.1 L294.1 95.2 L294.1 95.3 L293.6 95.8 L293.3 96.0 L293.1 96.1 L293.1 96.2 L292.9 96.4 L292.9 96.5 L292.7 96.6 L292.0 96.8 L291.3 96.8 L291.1 96.8 L291.0 96.9 L290.7 97.1 L290.4 97.2 L289.1 97.2 L287.6 97.3 L287.3 97.4 L287.2 97.6 L286.3 99.1 L286.1 99.9 L286.0 100.1 L285.9 100.3 L285.8 100.4 L285.8 100.6 L286.3 102.6 L286.3 102.8 L286.2 103.3 L286.2 103.5 L286.2 103.5 L286.4 103.7 L286.8 104.2 L286.9 104.4 L286.9 104.5 L286.8 104.6 L286.8 104.7 L286.9 104.9 L286.9 105.0 L286.8 105.2 L286.8 105.3 L286.8 105.4 L286.7 105.5 L286.4 105.5 L286.2 105.5 L286.1 105.6 L286.0 105.7 L286.0 105.9 L285.9 106.0 L285.9 106.0 L285.8 106.1 L285.7 106.3 L285.7 106.4 L285.7 106.5 L285.2 106.5 L284.3 106.6 L284.0 106.5 L283.8 106.5 L283.7 106.6 L283.6 106.7 L283.4 106.9 L283.3 107.0 L282.8 107.2 L282.6 107.4 L282.5 107.4 L282.2 107.4 L282.1 107.5 L282.0 107.6 L281.9 107.8 L281.7 107.8 L281.2 107.9 L280.7 108.1 L280.5 108.1 L280.4 108.0 L280.4 107.9 L280.4 107.8 L280.5 107.7 L280.6 107.6 L280.6 107.4 L280.5 107.2 L280.3 107.0 L280.0 106.9 L279.7 106.9 L279.1 107.0 L278.8 107.0 L278.4 106.9 L278.3 106.9 L278.2 106.9 L278.2 106.9 L277.3 106.8 L276.6 106.9 L276.6 106.9 L276.6 106.9 L276.6 106.9 L276.2 107.0 L276.0 107.1 L275.5 107.0 L274.9 107.0 L272.3 106.4 L271.2 105.8 L270.9 105.8 L270.3 105.7 L270.1 105.6 L269.8 105.4 L269.6 105.4 L269.5 105.3 L269.3 105.3 L269.1 105.4 L268.9 105.4 L268.9 105.5 L268.9 105.8 L268.9 105.9 L268.8 106.0 L268.8 106.1 L268.8 106.1 L268.8 106.3 L268.8 106.4 L268.7 106.6 L268.7 106.7 L268.7 106.9 L268.7 107.0 L268.7 107.1 L268.7 107.2 L267.7 108.6 L267.1 110.2 L266.8 110.6 L266.8 110.8 L266.7 111.1 L266.6 111.3 L266.1 111.9 L265.9 112.3 L265.7 112.7 L265.5 113.6 L265.3 114.2 L265.2 114.4 L265.1 114.8 L264.5 115.4 L264.3 116.0 L264.1 116.4 L264.0 116.6 L264.0 116.7 L264.2 117.0 L264.2 117.0 L264.2 117.0 L264.5 117.1 L265.5 117.2 L266.2 117.4 L266.3 117.5 L266.3 117.8 L266.3 118.0 L266.2 118.7 L266.0 119.1 L265.7 119.5 L265.2 119.6 L264.9 119.4 L264.3 119.0 L264.0 118.8 L263.7 118.8 L263.3 118.8 L262.0 119.3 L261.7 119.4 L261.4 119.3 L261.3 119.2 L261.2 119.1 L260.7 119.1 L260.6 119.0 L260.6 118.9 L260.6 118.8 L260.5 118.5 L260.4 118.3 L260.3 118.1 L260.0 118.0 L259.8 118.0 L259.5 118.1 L258.9 118.4 L256.2 119.0 L255.7 119.2 L255.4 119.2 L255.1 119.2 L254.3 119.5 L254.1 119.5 L253.6 119.4 L253.2 119.4 L252.1 119.7 L251.7 119.6 L251.5 119.6 L251.4 119.7 L251.3 120.0 L251.1 120.0 L251.0 120.0 L250.5 120.0 L250.0 120.2 L249.5 120.1 L249.2 120.1 L248.9 120.2 L248.7 120.4 L248.0 120.8 L247.7 120.9 L247.6 121.0 L247.5 121.2 L247.6 121.4 L248.5 121.7 L248.8 121.8 L250.0 121.6 L250.2 121.6 L250.3 121.6 L250.6 121.8 L251.7 122.1 L251.8 122.2 L251.9 122.3 L251.8 122.4 L251.7 122.4 L251.3 122.5 L251.1 122.6 L250.9 122.7 L250.9 122.8 L250.9 122.8 L251.1 122.9 L251.1 123.0 L251.1 123.1 L251.0 123.2 L250.8 123.8 L250.7 124.0 L250.8 124.3 L251.0 125.3 L251.0 125.5 L250.9 126.0 L250.8 126.3 L250.8 126.4 L250.9 126.5 L251.2 126.7 L251.2 126.8 L251.3 126.9 L251.3 127.0 L251.3 127.1 L251.3 127.1 L251.4 127.3 L251.5 127.4 L251.7 127.7 L252.5 129.2 L253.3 130.8 L253.3 131.0 L253.2 131.2 L252.9 131.6 L253.0 131.8 L253.2 131.8 L253.5 131.9 L253.6 132.0 L253.6 132.1 L253.6 132.2 L253.6 132.4 L253.7 132.5 L253.8 132.7 L253.9 132.8 L253.8 133.0 L253.7 133.1 L253.6 133.1 L253.5 133.2 L253.3 133.1 L253.0 133.0 L252.7 132.9 L252.4 133.0 L251.9 133.3 L251.3 133.5 L251.0 133.7 L250.9 133.8 L251.0 134.0 L251.3 134.2 L251.7 134.3 L252.0 134.4 L252.2 134.4 L252.3 134.5 L252.2 134.7 L252.1 134.7 L251.7 134.8 L251.2 134.9 L251.1 135.0 L250.8 135.1 L250.7 135.1 L250.4 135.0 L250.3 135.0 L250.2 135.1 L250.0 135.3 L249.9 135.7 L249.8 135.9 L249.5 136.1 L249.5 136.3 L249.5 136.4 L249.5 136.5 L249.5 136.6 L249.6 136.9 L249.7 137.0 L249.9 137.2 L249.9 137.3 L249.9 137.4 L249.9 137.5 L249.8 137.6 L249.8 137.7 L250.0 138.2 L250.0 138.3 L250.1 138.4 L250.2 138.5 L250.3 139.0 L250.3 139.1 L250.2 139.2 L249.9 139.3 L249.6 139.2 L249.4 139.0 L249.3 138.8 L249.0 138.5 L248.6 138.2 L248.3 138.0 L248.2 137.9 L248.0 137.7 L246.5 137.5 L246.2 137.5 L245.6 137.6 L245.0 137.5 L244.6 137.4 L244.4 137.2 L244.1 136.7 L243.9 136.5 L243.4 136.4 L243.1 136.2 L243.1 136.0 L243.0 135.9 L242.9 135.8 L242.9 135.6 L243.0 135.4 L242.9 135.3 L242.8 135.3 L242.5 135.3 L242.0 135.5 L241.7 135.5 L241.4 135.4 L241.0 135.4 L240.5 135.2 L239.6 135.2 L239.5 135.1 L239.3 135.0 L239.0 134.9 L238.3 134.7 L237.9 134.7 L237.6 134.7 L237.5 134.7 L237.2 134.8 L237.1 134.9 L237.0 134.9 L236.7 134.8 L236.6 134.8 L236.2 134.8 L235.9 134.8 L235.2 134.8 L234.9 134.8 L234.5 134.6 L234.4 134.6 L234.2 134.6 L234.1 134.6 L234.0 134.6 L233.9 134.7 L233.7 134.7 L233.6 134.7 L233.6 134.6 L233.6 134.6 L233.5 134.6 L233.1 134.5 L232.6 134.5 L232.5 134.5 L232.1 134.6 L232.0 134.6 L231.9 134.6 L231.8 134.5 L231.6 134.4 L231.4 134.4 L231.2 134.4 L231.1 134.4 L231.0 134.4 L230.7 134.5 L230.5 134.5 L229.8 134.5 L229.7 134.5 L229.6 134.5 L229.4 134.4 L229.3 134.4 L229.2 134.2 L229.1 134.1 L228.8 134.1 L228.1 134.0 L227.9 133.9 L227.8 133.9 L227.5 134.0 L227.2 134.0 L227.1 134.0 L227.0 134.1 L226.8 134.2 L226.8 134.3 L226.8 134.3 L226.6 134.2 L226.6 134.3 L226.6 134.3 L226.6 134.3 L226.5 134.3 L226.3 134.4 L226.1 134.5 L225.8 134.5 L225.6 134.5 L225.4 134.6 L225.3 134.5 L224.9 134.4 L224.7 134.4 L224.6 134.5 L224.4 134.6 L224.3 134.6 L224.2 134.6 L224.1 134.5 L224.1 134.5 L224.0 134.5 L223.9 134.5 L223.8 134.5 L223.2 134.4 L222.6 134.4 L222.1 134.3 L221.9 134.3 L221.5 134.4 L221.3 134.4 L220.8 134.3 L220.5 134.3 L220.2 134.3 L220.1 134.3 L220.0 134.3 L219.9 134.4 L219.7 134.8 L219.6 134.9 L219.5 135.0 L219.3 135.1 L219.1 135.2 L218.9 135.2 L218.5 135.0 L218.3 135.0 L218.1 135.0 L216.6 134.9 L216.1 134.9 L215.9 134.9 L215.5 134.7 L215.4 134.6 L215.2 134.5 L214.8 134.4 L214.6 134.3 L214.4 134.2 L213.8 134.0 L213.0 133.9 L212.8 133.9 L212.1 133.5 L212.0 133.4 L211.8 133.2 L211.7 133.1 L211.6 133.0 L211.3 133.0 L211.1 132.8 L210.8 132.8 L210.7 132.8 L210.3 132.6 L210.1 132.5 L209.9 132.5 L209.7 132.4 L209.4 132.2 L209.2 132.1 L209.4 132.3 L209.4 132.4 L209.4 132.5 L209.3 132.5 L208.2 132.6 L208.1 132.6 L207.9 132.4 L207.7 132.4 L207.5 132.5 L207.3 133.0 L207.1 133.1 L206.8 133.1 L206.7 133.1 L205.5 133.4 L205.2 133.6 L205.1 133.6 L205.0 133.7 L204.7 134.3 L204.6 134.5 L204.5 134.6 L204.5 134.7 L204.5 134.8 L204.6 135.0 L204.6 135.1 L204.6 135.2 L204.4 135.5 L204.1 136.1 L204.0 136.4 L204.0 136.6 L204.0 136.8 L204.1 137.1 L204.6 137.8 L204.6 137.8 L204.6 137.9 L204.4 137.9 L204.0 137.8 L203.4 137.7 L203.3 137.6 L203.3 137.5 L203.4 137.3 L203.2 137.2 L203.1 137.1 L202.6 137.1 L202.5 137.1 L202.4 137.0 L202.2 137.0 L202.0 136.9 L201.7 136.9 L200.8 137.0 L200.6 137.0 L200.4 136.9 L200.1 136.9 L200.0 136.7 L199.7 136.4 L199.6 136.3 L199.4 136.2 L198.4 136.0 L197.9 136.0 L197.7 136.0 L196.9 135.6 L196.4 135.5 L195.6 135.4 L195.5 135.5 L195.3 135.5 L195.2 135.5 L194.9 135.5 L194.2 135.2 L193.7 135.1 L193.6 135.1 L193.5 135.0 L193.4 135.0 L193.3 135.0 L193.1 135.1 L192.6 135.1 L192.4 135.1 L191.6 135.5 L191.5 135.5 L191.4 135.5 L191.2 135.3 L191.1 135.3 L191.0 135.3 L190.9 135.3 L190.6 135.2 L190.4 135.2 L190.3 135.3 L190.2 135.4 L190.2 135.5 L190.0 135.6 L189.9 135.6 L189.8 135.6 L189.6 135.6 L189.5 135.5 L189.4 135.6 L189.2 135.8 L189.1 135.8 L189.0 135.9 L188.8 136.0 L188.7 136.0 L188.7 136.2 L188.7 136.4 L188.7 136.5 L188.6 136.6 L188.0 136.7 L187.7 136.8 L187.8 137.1 L187.9 137.1 L188.1 137.3 L188.1 137.3 L188.1 137.3 L188.1 137.3 L188.1 137.4 L188.1 137.4 L188.1 137.5 L188.0 137.5 L187.9 137.5 L187.5 137.4 L187.4 137.4 L187.3 137.6 L187.3 137.7 L187.2 137.8 L187.2 137.9 L187.3 137.9 L187.3 138.0 L187.2 138.1 L187.0 138.3 L186.9 138.3 L186.8 138.4 L186.7 138.5 L186.7 138.6 L187.0 138.8 L187.1 138.9 L187.3 138.9 L187.1 139.1 L186.9 139.2 L186.8 139.3 L186.6 139.3 L186.5 139.3 L186.4 139.3 L186.2 139.3 L186.1 139.3 L186.0 139.3 L185.9 139.3 L185.9 139.3 L185.8 139.4 L185.8 139.4 L185.8 139.5 L185.7 139.5 L185.7 139.6 L185.6 139.7 L185.5 139.8 L185.4 139.9 L185.3 140.0 L185.3 140.1 L185.2 140.2 L185.1 140.3 L185.1 140.4 L185.0 140.5 L184.9 140.5 L184.8 140.5 L184.7 140.5 L184.6 140.5 L184.6 140.4 L184.5 140.4 L184.4 140.4 L184.4 140.3 L184.4 140.2 L184.4 140.2 L184.3 140.1 L184.3 140.1 L184.2 140.1 L184.2 140.0 L184.1 140.0 L184.1 140.0 L184.0 140.0 L183.7 140.1 L183.4 140.2 L183.2 140.3 L183.1 140.4 L183.0 140.5 L182.9 140.6 L182.9 140.7 L182.9 140.8 L182.8 140.8 L182.8 140.8 L182.7 140.9 L182.7 140.9 L182.6 140.9 L182.5 140.9 L182.5 140.9 L182.4 141.0 L182.4 141.0 L182.3 141.0 L182.1 141.3 L181.9 141.6 L181.8 141.7 L181.7 141.8 L181.4 141.9 L181.1 142.1 L180.9 142.1 L180.8 142.2 L180.7 142.2 L180.6 142.3 L180.6 142.3 L180.6 142.4 L180.5 142.5 L180.3 142.5 L180.2 142.6 L180.1 142.6 L179.7 142.6 L179.3 142.7 L178.9 142.8 L178.4 142.8 L178.3 142.9 L178.3 142.9 L178.2 143.0 L178.1 143.1 L177.8 143.3 L177.4 143.5 L177.2 143.5 L177.0 143.6 L176.9 143.6 L176.8 143.7 L176.8 143.8 L176.8 143.9 L176.8 143.9 L176.8 143.9 L176.8 144.0 L176.9 144.1 L176.9 144.1 L176.9 144.2 L176.9 144.2 L176.8 144.2 L176.6 144.2 L176.4 144.1 L176.4 144.1 L176.3 144.2 L176.2 144.2 L176.1 144.3 L176.0 144.3 L176.0 144.3 L175.9 144.3 L175.8 144.2 L175.7 144.2 L175.7 144.3 L175.5 144.3 L175.3 144.4 L175.2 144.5 L175.1 144.6 L175.1 144.6 L175.0 144.7 L175.0 144.7 L174.9 144.7 L174.9 144.7 L174.8 144.7 L174.6 144.7 L174.5 144.8 L174.5 144.8 L174.4 144.8 L174.4 144.9 L174.4 144.9 L174.4 144.9 L174.4 144.9 L174.4 145.0 L174.5 145.0 L174.5 145.0 L174.5 145.0 L174.5 145.0 L174.5 145.0 L174.5 145.1 L174.5 145.1 L174.6 145.2 L174.6 145.2 L174.5 145.6 L174.4 145.9 L174.4 145.9 L174.4 146.0 L174.3 146.0 L174.3 146.0 L174.2 146.1 L174.0 146.2 L173.9 146.2 L173.8 146.3 L173.7 146.3 L173.5 146.3 L173.4 146.3 L173.4 146.3 L173.3 146.4 L173.3 146.4 L173.2 146.5 L173.1 146.6 L172.9 146.7 L172.7 146.8 L172.6 146.9 L172.5 146.9 L172.3 147.2 L172.2 147.5 L172.2 147.5 L172.1 147.6 L171.9 147.7 L171.8 147.7 L171.7 147.7 L171.6 147.8 L171.5 147.8 L171.4 147.9 L171.4 148.0 L171.4 148.0 L171.4 148.0 L171.3 148.0 L171.3 148.0 L171.3 148.0 L171.3 147.9 L171.3 148.0 L171.3 148.0 L171.3 148.1 L171.3 148.2 L171.3 148.2 L171.3 148.2 L171.3 148.3 L171.2 148.3 L171.2 148.3 L171.2 148.3 L171.2 148.4 L171.2 148.4 L171.2 148.4 L171.1 148.5 L171.2 148.8 L171.2 149.0 L171.2 149.1 L171.3 149.2 L171.3 149.2 L171.3 149.2 L171.3 149.2 L171.4 149.3 L171.5 149.3 L171.5 149.3 L171.5 149.3 L171.5 149.4 L171.6 149.4 L171.6 149.5 L171.6 149.5 L171.6 149.5 L171.6 149.6 L171.7 149.6 L171.7 149.6 L171.7 149.7 L171.6 149.8 L171.5 149.9 L171.6 149.9 L171.6 149.9 L171.6 150.0 L171.6 150.0 L171.5 150.0 L171.4 150.1 L171.3 150.1 L171.3 150.1 L171.1 150.0 L171.0 149.9 L170.9 149.9 L170.9 149.9 L170.9 150.0 L170.8 150.0 L170.8 150.0 L170.8 150.0 L170.8 150.1 L170.8 150.1 L170.7 150.1 L170.7 150.1 L170.6 150.1 L170.6 150.1 L170.6 150.2 L170.5 150.2 L169.7 149.9 L169.2 149.6 L169.0 149.5 L168.7 149.4 L168.5 149.3 L168.2 149.0 L167.9 148.8 L167.8 148.8 L167.7 148.7 L167.5 148.7 L167.4 148.7 L167.4 148.7 L167.4 148.6 L167.4 148.6 L167.4 148.6 L167.4 148.6 L167.4 148.5 L167.6 148.5 L167.7 148.5 L167.7 148.4 L167.8 148.4 L167.8 148.4 L167.9 148.3 L167.9 148.3 L168.0 148.2 L168.0 148.1 L168.1 148.0 L168.1 147.9 L168.2 147.8 L168.2 147.7 L168.2 147.6 L168.2 147.5 L168.2 147.4 L168.2 147.4 L168.2 147.3 L168.2 147.3 L168.2 147.3 L168.1 147.3 L168.1 147.3 L168.1 147.3 L168.2 147.3 L168.2 147.2 L168.3 147.2 L168.3 147.2 L168.3 147.2 L168.3 147.1 L168.2 147.1 L168.2 147.1 L168.2 147.1 L168.2 147.1 L168.2 147.1 L168.2 147.0 L168.2 146.9 L168.1 146.9 L168.1 146.9 L168.0 147.0 L168.0 147.1 L167.9 147.0 L167.9 147.0 L167.9 147.0 L167.8 147.0 L167.8 147.0 L167.7 147.0 L167.7 147.1 L167.7 147.1 L167.6 147.0 L167.6 147.0 L167.5 146.8 L167.5 146.7 L167.5 146.6 L167.4 146.6 L167.3 146.4 L167.1 146.3 L167.1 146.3 L167.1 146.2 L167.1 146.2 L167.1 146.2 L167.0 146.1 L167.0 146.0 L166.9 146.1 L166.8 146.1 L166.6 146.2 L166.4 146.3 L166.4 146.3 L166.3 146.3 L166.2 146.3 L166.2 146.3 L166.0 146.2 L165.9 146.2 L165.8 146.1 L165.7 146.1 L164.9 146.2 L164.0 146.2 L163.4 146.2 L162.6 146.3 L161.8 146.3 L160.9 146.3 L160.2 146.4 L159.4 146.4 L159.1 146.4 L159.0 146.3 L158.9 146.3 L158.7 146.2 L158.6 146.0 L158.3 145.0 L158.0 144.0 L157.8 143.2 L157.6 142.4 L157.4 141.5 L157.3 140.7 L157.3 140.6 L157.3 140.6 L157.3 140.6 L157.2 140.6 L157.2 140.6 L157.2 140.6 L157.2 140.6 L157.1 140.6 L156.3 140.6 L155.6 140.6 L154.8 140.6 L154.0 140.6 L154.0 140.6 L154.0 140.6 L154.0 140.6 L154.0 140.5 L154.0 139.2 L154.0 138.1 L154.0 137.9 L154.0 137.8 L154.0 137.8 L154.1 137.8 L154.2 137.7 L154.2 137.7 L154.3 137.6 L154.3 137.5 L154.3 137.3 L154.5 135.6 L154.6 133.9 L153.6 134.3 L152.6 134.7 L152.6 134.7 L152.5 134.7 L152.1 134.0 L151.6 133.3 L151.2 132.7 L150.6 131.8 L150.5 131.8 L150.4 131.7 L149.7 131.4 L149.0 131.0 L148.7 130.8 L148.3 130.5 L147.6 129.8 L146.9 129.1 L146.7 129.1 L146.6 129.0 L146.5 129.0 L146.4 129.0 L146.3 129.0 L146.2 129.0 L145.5 129.3 L144.8 129.6 L144.2 129.8 L143.5 130.1 L143.4 130.1 L143.3 130.2 L142.9 130.1 L142.0 130.1 L141.0 130.0 L140.1 129.9 L139.2 129.9 L138.1 129.8 L137.1 129.7 L136.1 129.7 L135.0 129.6 L134.4 129.7 L133.8 129.8 L133.2 129.8 L132.6 129.9 L132.0 130.0 L131.3 130.0 L130.7 130.1 L130.1 130.2 L129.7 130.2 L129.3 130.3 L129.0 130.3 L128.6 130.4 L128.3 130.4 L128.1 130.5 L127.9 130.5 L127.6 130.5 L127.1 130.6 L127.1 130.6 L126.9 130.6 L126.8 130.5 L126.3 130.1 L125.9 129.8 L125.5 129.5 L125.1 129.1 L124.8 128.8 L124.4 128.5 L124.0 128.2 L123.6 127.9 L123.2 127.5 L122.7 127.1 L122.4 126.8 L122.0 126.6 L121.2 126.0 L120.8 125.5 L120.8 125.3 L120.7 125.0 L120.7 124.8 L120.5 124.6 L120.4 124.5 L119.9 124.3 L119.4 124.0 L118.6 123.6 L117.6 123.2 L116.4 122.6 L115.2 122.0 L113.9 121.4 L112.5 120.8 L111.2 120.1 L109.9 119.5 L108.6 118.9 L107.4 118.4 L107.0 118.1 L106.4 117.9 L105.5 117.5 L104.9 117.1 L104.5 116.9 L104.3 116.9 L103.8 116.6 L103.6 116.6 L103.4 116.6 L102.9 116.7 L102.5 116.8 L102.1 116.8 L101.7 116.9 L101.3 117.0 L100.9 117.1 L100.5 117.2 L100.1 117.2 L99.7 117.3 L98.9 117.5 L98.0 117.7 L97.2 117.9 L96.3 118.1 L95.7 118.2 L95.1 118.3 L94.4 118.5 L93.8 118.6 L93.2 118.8 L92.5 118.9 L91.9 119.1 L91.3 119.2 L91.1 119.2 L90.6 119.4 L90.0 119.5 L89.4 119.6 L88.7 119.8 L88.1 119.9 L87.5 120.1 L86.8 120.2 L86.2 120.4 L86.2 120.4 L86.2 120.4 L86.2 120.4 L86.2 120.4 L86.2 120.4 L86.2 120.4 L86.2 120.4 L86.2 120.4 L86.2 120.4 L86.2 120.4 L86.2 120.4 L86.2 120.4 L86.2 120.4 L86.2 120.4 L86.2 120.4 L86.2 120.4 L86.2 120.4 L86.2 120.4 L86.2 120.4 L86.2 120.4 L86.2 120.4 L86.2 120.4 L86.2 120.4 L86.2 120.4 L86.2 120.4 L86.2 120.4 L86.2 120.4 L86.2 120.4 L86.2 120.4 L86.2 120.4 L86.2 120.4 L86.2 120.4 L86.2 120.4 L86.2 120.4 L86.2 120.4 L86.2 120.4 L86.2 120.4 L86.2 120.4 L86.2 120.4 L86.2 121.9 L86.2 123.5 L86.2 125.0 L86.2 126.6 L86.2 128.1 L86.2 129.7 L86.2 131.2 L86.2 132.8 L86.2 134.3 L86.2 135.9 L86.2 137.4 L86.2 139.0 L86.2 140.5 L86.2 142.1 L86.2 143.6 L86.2 145.2 L85.7 145.2 L85.5 145.2 L84.9 145.4 L84.3 145.5 L83.9 145.6 L83.0 145.6 L82.8 145.6 L82.6 145.5 L82.5 145.4 L82.4 145.3 L82.2 144.9 L82.1 144.8 L82.0 144.7 L81.6 144.5 L81.3 144.4 L81.1 144.2 L80.7 143.6 L80.3 143.0 L80.0 142.7 L79.2 142.0 L79.2 141.9 L79.1 141.7 L79.2 141.6 L79.2 141.5 L79.2 141.4 L79.1 141.2 L79.0 141.1 L77.8 140.3 L77.0 139.9 L76.3 139.5 L75.2 139.0 L74.1 138.5 L73.7 138.3 L73.1 138.3 L71.5 138.5 L70.5 138.6 L69.3 138.8 L68.9 138.9 L67.4 139.3 L67.0 139.5 L65.9 139.8 L64.5 140.6 L64.5 140.7 L64.5 140.7 L63.6 141.3 L62.5 142.1 L62.3 142.3 L62.3 142.2 L62.3 142.0 L62.6 141.5 L62.6 141.3 L62.6 141.0 L62.5 140.9 L62.4 140.8 L62.4 140.7 L62.3 140.7 L62.2 140.6 L62.2 140.5 L62.3 140.3 L62.3 140.2 L62.2 140.2 L62.0 140.0 L62.1 139.9 L62.2 139.8 L62.2 139.6 L62.2 139.5 L62.3 139.4 L62.4 139.3 L62.5 139.3 L62.6 139.2 L62.9 138.8 L63.3 138.4 L63.3 138.3 L63.4 138.3 L63.4 138.2 L63.4 138.1 L63.4 138.0 L63.4 137.9 L63.6 137.8 L63.7 137.7 L63.7 137.7 L63.7 137.5 L63.7 137.5 L63.8 137.2 L63.9 137.0 L63.9 136.7 L63.8 136.5 L63.6 136.2 L63.5 136.0 L63.2 135.9 L63.1 135.7 L63.1 135.6 L63.2 135.5 L63.2 135.6 L63.3 135.8 L63.4 135.9 L63.5 136.0 L63.6 136.0 L63.8 136.1 L63.8 136.1 L63.8 136.2 L63.9 136.2 L63.9 136.2 L64.0 136.5 L64.0 136.6 L64.1 136.7 L64.2 136.6 L64.3 136.5 L64.3 136.3 L64.3 136.2 L64.3 135.9 L64.1 135.7 L63.9 135.6 L63.6 135.5 L63.5 135.4 L63.2 135.2 L62.5 135.0 L61.8 135.0 L61.7 135.0 L61.6 135.0 L61.6 135.0 L61.5 135.1 L61.4 135.1 L61.4 135.2 L61.3 135.3 L61.2 135.2 L60.7 134.8 L60.5 134.6 L60.3 134.6 L59.7 134.7 L59.3 134.8 L59.0 134.9 L58.9 135.0 L58.7 134.9 L58.3 134.6 L58.2 134.5 L58.1 134.2 L58.0 134.1 L57.9 134.0 L57.8 133.8 L57.8 133.6 L57.4 133.4 L57.4 133.2 L57.3 133.2 L57.2 133.2 L57.1 133.2 L57.1 133.1 L57.1 133.0 L57.1 133.0 L57.2 132.9 L57.1 132.8 L57.1 132.6 L57.0 132.6 L56.7 132.7 L56.4 132.6 L56.2 132.7 L56.1 132.7 L56.1 132.8 L56.1 132.8 L56.0 132.8 L55.9 132.8 L55.7 132.7 L55.7 132.7 L55.0 132.8 L54.4 132.8 L54.3 132.7 L54.4 132.6 L54.6 132.0 L54.7 131.7 L54.7 130.9 L54.7 130.7 L54.5 130.4 L54.4 130.4 L54.4 130.3 L54.4 130.1 L54.4 130.1 L54.3 130.0 L54.0 129.8 L54.0 129.7 L54.0 129.6 L53.9 129.6 L53.8 129.6 L53.7 129.7 L53.7 129.6 L53.6 129.6 L53.5 129.6 L53.3 129.4 L52.7 128.4 L52.7 128.3 L52.6 128.2 L52.6 128.1 L52.6 128.1 L52.5 128.0 L52.5 128.0 L52.5 127.9 L52.5 127.8 L52.5 127.7 L52.4 127.6 L52.2 127.5 L52.2 127.5 L52.1 127.3 L52.0 127.2 L52.0 127.1 L51.9 127.0 L51.8 127.0 L51.7 127.0 L51.6 126.9 L51.6 126.8 L51.6 126.8 L51.6 126.7 L51.6 126.6 L51.6 126.1 L51.6 125.9 L51.5 125.8 L51.3 125.6 L51.1 125.5 L50.5 125.3 L48.1 125.0 L47.8 124.9 L47.7 124.8 L47.5 124.7 L47.4 124.6 L47.4 124.5 L47.4 124.1 L47.4 124.0 L47.4 123.9 L47.4 123.8 L47.3 123.7 L47.3 123.5 L47.3 123.3 L47.4 123.1 L47.5 123.3 L47.6 123.2 L47.7 123.1 L47.7 122.9 L47.8 122.9 L47.8 122.8 L47.8 122.7 L47.8 122.7 L47.9 122.6 L48.0 122.6 L48.0 122.7 L48.1 122.7 L49.2 122.9 L49.5 122.9 L49.8 122.8 L50.0 122.8 L50.0 122.9 L50.1 122.9 L50.7 122.9 L50.8 123.0 L50.9 123.0 L51.0 123.0 L51.0 122.9 L51.1 122.8 L51.1 122.8 L51.2 122.8 L51.5 122.8 L51.7 122.8 L51.8 122.9 L52.1 123.1 L52.3 123.2 L52.4 123.3 L52.5 123.3 L52.6 123.3 L52.6 123.3 L52.6 123.4 L52.6 123.4 L52.5 123.4 L52.6 123.5 L52.8 123.6 L53.3 123.8 L53.5 123.8 L53.7 123.8 L53.9 123.8 L54.1 123.7 L54.4 123.5 L54.5 123.4 L54.5 123.4 L54.5 123.4 L54.5 123.4 L54.6 123.4 L54.7 123.4 L54.8 123.3 L55.0 123.3 L55.1 123.3 L55.1 123.5 L55.3 123.6 L55.7 123.5 L56.2 123.7 L56.3 123.6 L56.4 123.6 L56.4 123.5 L56.3 123.4 L56.2 123.3 L55.8 123.2 L55.5 123.0 L55.4 123.0 L55.0 123.0 L54.7 123.1 L54.5 122.9 L54.3 122.4 L54.1 122.2 L53.9 122.1 L53.4 121.8 L53.3 121.8 L53.3 121.7 L53.2 121.7 L53.0 121.7 L52.9 121.7 L52.9 121.6 L52.8 121.6 L52.4 121.4 L52.3 121.3 L52.3 121.1 L52.3 121.0 L52.4 120.9 L52.5 120.9 L52.5 120.8 L52.5 120.8 L52.5 120.7 L52.4 120.7 L52.3 120.7 L52.2 120.7 L52.2 120.6 L52.3 120.5 L52.4 120.4 L52.6 120.4 L52.7 120.3 L52.9 120.4 L53.0 120.4 L53.1 120.3 L53.1 120.3 L53.2 120.2 L53.3 120.1 L53.6 120.0 L53.7 119.9 L53.9 119.9 L54.0 119.9 L54.1 120.1 L54.3 120.2 L54.4 120.2 L54.5 120.1 L54.4 120.0 L54.3 119.8 L54.2 119.7 L54.2 119.7 L54.2 119.6 L54.3 119.5 L54.3 119.4 L54.3 119.4 L54.2 119.3 L54.2 119.2 L54.3 119.2 L54.3 119.0 L54.5 118.8 L54.6 118.7 L54.6 118.6 L55.2 118.1 L55.3 118.0 L55.3 117.8 L55.4 117.7 L55.5 117.8 L55.6 118.0 L55.9 118.1 L56.2 118.1 L56.6 118.0 L56.8 117.9 L57.0 117.7 L57.1 117.7 L57.2 117.7 L57.3 117.7 L57.4 117.6 L57.5 117.4 L57.6 117.3 L57.7 117.2 L57.8 117.3 L57.8 117.4 L57.9 117.5 L57.9 117.6 L58.5 117.7 L58.6 117.7 L58.8 117.8 L58.9 117.9 L59.0 117.8 L59.2 117.7 L59.4 117.7 L59.5 117.7 L59.8 117.7 L59.9 117.8 L62.0 117.6 L62.3 117.6 L62.8 117.6 L63.1 117.6 L64.3 118.0 L65.0 118.1 L65.3 118.2 L65.5 118.2 L66.1 118.2 L66.3 118.2 L66.6 118.3 L66.8 118.3 L66.9 118.3 L67.2 118.2 L67.4 118.1 L67.4 118.1 L67.5 118.1 L67.5 118.0 L67.7 118.1 L67.7 118.1 L67.8 118.1 L67.8 118.0 L67.9 118.0 L67.9 117.9 L67.7 117.8 L67.0 117.7 L67.0 117.7 L66.9 117.7 L66.9 117.6 L66.8 117.6 L66.6 117.6 L66.3 117.5 L65.5 117.2 L65.3 117.2 L65.2 117.2 L65.1 117.0 L65.1 117.0 L65.0 117.0 L64.7 117.0 L64.4 116.8 L64.3 116.8 L64.3 116.7 L64.3 116.6 L64.3 116.6 L64.3 116.5 L64.3 116.5 L64.3 116.4 L64.3 116.4 L64.3 116.3 L64.3 116.1 L64.3 116.0 L64.4 115.9 L64.6 115.9 L64.7 115.9 L64.7 115.7 L64.9 115.5 L65.1 115.2 L65.2 115.1 L65.3 115.0 L65.5 115.0 L65.5 115.0 L65.8 114.7 L65.8 114.6 L66.0 114.3 L66.1 114.2 L66.3 114.1 L66.3 114.0 L66.4 114.0 L66.4 113.8 L66.5 113.7 L66.6 113.5 L66.7 113.4 L66.6 113.3 L66.6 113.4 L66.6 113.3 L66.6 113.2 L66.8 113.0 L66.8 112.9 L66.9 112.8 L66.9 112.3 L67.1 111.7 L67.1 111.3 L66.9 110.9 L66.6 110.6 L66.3 110.4 L66.4 110.4 L66.6 110.5 L66.8 110.6 L66.8 110.5 L66.6 110.5 L66.6 110.4 L66.6 110.2 L66.6 110.1 L66.5 110.2 L66.3 110.3 L66.2 110.3 L66.1 110.3 L66.0 110.2 L66.1 110.0 L66.3 109.7 L66.4 109.8 L66.4 109.9 L66.6 109.9 L66.7 109.8 L66.7 109.7 L66.7 109.5 L66.8 109.4 L66.9 109.5 L66.9 109.5 L67.0 109.4 L67.0 109.3 L67.1 109.3 L67.3 109.3 L67.3 109.3 L67.4 109.3 L67.4 109.2 L67.5 109.1 L67.5 108.9 L67.3 108.7 L67.1 108.7 L66.9 108.6 L66.8 108.6 L66.7 108.5 L66.8 108.3 L66.6 107.8 L66.5 107.6 L66.5 107.5 L66.4 107.5 L66.1 107.5 L66.0 107.5 L65.9 107.4 L65.6 107.2 L65.5 107.1 L65.2 107.1 L64.6 107.2 L64.2 107.2 L63.5 107.2 L63.3 107.1 L63.2 107.1 L62.9 106.9 L62.8 106.9 L62.4 106.8 L62.3 106.8 L62.2 106.9 L62.2 107.0 L62.2 107.1 L62.1 107.2 L61.8 107.5 L61.7 107.5 L61.1 107.7 L60.9 107.7 L60.7 107.6 L60.6 107.6 L60.5 107.7 L60.5 107.8 L60.6 107.8 L60.8 107.8 L60.8 107.8 L60.9 107.9 L60.9 108.0 L61.0 108.0 L61.0 108.1 L60.9 108.1 L60.1 108.1 L59.9 108.0 L59.8 108.0 L59.8 108.0 L59.8 107.9 L59.8 107.8 L59.7 107.8 L59.6 107.8 L59.4 107.6 L59.4 107.6 L59.3 107.6 L59.3 107.5 L59.3 107.4 L59.4 107.4 L59.5 107.3 L59.4 107.2 L59.3 107.2 L59.2 107.3 L59.0 107.6 L58.9 107.6 L58.7 107.6 L58.5 107.6 L58.3 107.5 L58.5 107.3 L58.6 107.3 L58.5 107.3 L58.3 107.3 L58.0 107.4 L57.9 107.4 L57.7 107.4 L57.6 107.3 L57.5 107.2 L57.2 107.1 L57.1 107.0 L57.3 106.7 L57.2 106.5 L57.2 106.4 L57.0 106.4 L56.8 106.5 L56.8 106.6 L56.8 106.8 L56.7 106.9 L56.6 106.9 L56.4 106.8 L56.2 106.6 L56.1 106.5 L56.0 106.4 L55.5 106.4 L55.1 106.3 L54.3 106.1 L54.0 106.0 L53.8 106.0 L53.5 106.2 L53.2 106.3 L52.4 106.4 L52.2 106.5 L52.0 106.7 L51.9 106.7 L51.8 106.7 L51.7 106.6 L51.6 106.6 L51.5 106.6 L51.5 106.6 L51.5 106.7 L51.5 106.7 L51.5 106.8 L50.9 107.4 L50.8 107.5 L50.7 107.3 L50.8 107.3 L50.9 107.1 L50.9 107.0 L50.9 107.0 L50.8 107.0 L50.6 107.2 L50.4 107.3 L50.2 107.3 L50.1 107.3 L50.0 107.3 L49.9 107.4 L49.9 107.7 L49.8 107.8 L49.8 107.9 L49.6 108.0 L49.5 107.9 L49.6 107.8 L49.7 107.7 L49.7 107.6 L49.5 107.6 L49.3 107.7 L49.3 107.7 L49.2 107.7 L49.1 107.7 L49.1 107.7 L48.9 107.6 L48.8 107.5 L48.7 107.5 L48.7 107.5 L48.7 107.5 L48.6 107.6 L48.4 108.1 L48.3 108.1 L48.3 108.0 L48.3 107.8 L48.2 107.9 L48.2 107.9 L48.1 108.0 L48.1 108.1 L48.0 108.1 L47.9 108.1 L47.9 108.1 L47.8 108.2 L47.8 108.2 L47.5 108.6 L47.4 108.7 L47.2 108.7 L47.2 108.6 L47.3 108.5 L47.3 108.4 L47.2 108.4 L47.2 108.4 L46.9 108.5 L46.3 109.0 L46.1 109.2 L46.0 109.3 L45.9 109.3 L45.6 109.3 L45.5 109.3 L45.5 109.4 L45.4 109.5 L45.3 109.5 L45.1 109.6 L45.0 109.7 L44.9 109.7 L44.7 109.7 L44.6 109.7 L44.6 109.8 L44.6 109.9 L44.4 109.9 L44.3 109.8 L44.3 109.7 L44.2 109.8 L44.2 109.9 L44.2 110.0 L44.1 110.0 L44.0 109.8 L43.9 109.8 L43.8 109.8 L43.8 109.8 L43.8 110.0 L43.8 110.1 L43.3 109.7 L43.2 109.6 L43.2 109.8 L43.3 110.1 L43.1 110.0 L43.1 110.1 L43.0 110.1 L43.0 110.2 L42.9 110.1 L42.8 110.0 L42.4 109.8 L42.3 109.8 L42.2 109.7 L42.2 109.6 L42.2 109.8 L42.2 109.9 L42.3 110.0 L42.4 110.1 L42.4 110.2 L42.4 110.2 L42.3 110.2 L42.2 110.2 L42.1 110.1 L42.1 110.1 L42.2 110.0 L42.2 110.0 L42.1 110.0 L42.0 109.9 L41.9 109.8 L41.9 109.9 L41.9 109.9 L41.9 109.9 L41.7 109.9 L41.4 109.8 L41.2 109.7 L41.1 109.6 L41.2 109.8 L41.6 110.1 L41.7 110.3 L41.6 110.3 L41.3 110.3 L41.3 110.3 L41.2 110.2 L41.1 110.1 L41.1 110.0 L40.9 110.0 L40.9 110.1 L41.0 110.1 L41.1 110.3 L41.1 110.4 L41.3 110.5 L41.5 110.7 L41.5 110.7 L41.6 110.8 L41.5 110.9 L41.5 111.0 L41.2 110.8 L41.1 110.7 L41.0 110.6 L40.9 110.5 L40.8 110.4 L40.7 110.4 L40.5 110.4 L40.6 110.4 L40.7 110.5 L40.7 110.5 L40.7 110.6 L40.8 110.7 L41.0 110.9 L41.0 110.9 L40.9 111.0 L40.8 110.9 L40.3 110.8 L40.2 110.8 L40.2 110.8 L40.2 110.9 L40.2 110.9 L40.3 110.9 L40.4 111.0 L40.5 111.0 L40.5 111.1 L40.6 111.3 L40.6 111.3 L40.6 111.4 L40.6 111.4 L39.3 110.8 L38.8 110.6 L38.5 110.4 L38.3 110.3 L38.2 110.3 L38.0 110.3 L37.8 110.3 L37.4 110.1 L37.2 110.0 L37.0 109.9 L36.8 109.8 L36.2 109.8 L35.9 109.7 L36.1 109.6 L36.0 109.5 L35.9 109.4 L35.9 109.3 L35.9 109.3 L35.6 109.2 L35.5 109.1 L35.4 109.1 L35.5 109.0 L35.7 108.6 L36.0 108.4 L36.5 108.4 L36.9 108.5 L37.0 108.5 L37.1 108.7 L37.3 108.9 L37.4 109.0 L38.5 108.8 L38.7 108.7 L39.1 108.4 L37.0 106.1 L36.0 104.3 L35.9 104.2 L35.8 104.1 L35.7 104.0 L35.5 104.0 L35.2 103.9 L35.1 103.8 L34.7 103.5 L34.7 103.5 L33.5 102.0 L33.0 101.8 L32.6 101.6 L29.9 101.6 L28.5 101.2 L28.3 101.2 L28.2 101.2 L28.2 101.3 L28.2 101.7 L28.1 102.1 L28.1 102.2 L28.0 102.2 L26.7 101.6 L26.5 101.5 L26.4 101.4 L26.3 101.3 L26.4 101.2 L26.5 101.1 L26.5 101.0 L26.6 101.0 L26.6 101.0 L26.6 100.9 L26.6 100.9 L26.3 100.6 L25.9 100.2 L25.8 100.2 L25.9 100.1 L26.5 99.9 L26.7 99.7 L26.8 99.6 L26.7 99.5 L26.3 99.5 L26.2 99.4 L26.2 99.3 L26.3 99.1 L26.3 99.0 L26.3 98.9 L26.2 98.8 L26.1 98.7 L26.0 98.7 L26.1 98.6 L26.1 98.6 L26.2 98.6 L26.3 98.4 L26.3 98.4 L26.3 98.4 L26.2 98.3 L26.1 98.2 L25.4 98.1 L23.7 97.7 L22.0 97.3 L22.0 97.3 L22.0 97.3 L22.0 97.3 L22.0 97.3 L23.0 95.5 L23.9 93.9 L24.0 93.7 L24.3 93.6 L24.8 93.4 L24.9 93.4 L25.1 93.3 L25.4 93.0 L25.7 92.7 L25.8 92.3 L25.7 91.9 L25.4 91.7 L24.4 91.2 L24.0 91.1 L24.4 89.4 L24.8 87.8 L25.0 87.5 L25.2 87.3 L26.7 86.9 L27.2 86.6 L27.6 86.2 L27.7 86.1 L27.7 85.8 L27.4 85.5 L27.3 85.3 L27.4 85.2 L27.6 85.0 L27.7 84.9 L27.7 84.8 L27.6 84.8 L27.5 84.7 L27.6 84.6 L27.7 84.5 L28.2 84.4 L28.3 84.3 L28.5 84.0 L28.5 84.0 L28.7 83.8 L29.0 83.6 L29.3 83.5 L29.6 83.5 L29.7 83.6 L30.2 83.9 L30.5 84.1 L30.6 84.1 L30.7 84.2 L30.7 84.3 L30.8 84.3 L30.9 84.4 L31.0 84.4 L31.3 84.6 L31.4 84.8 L31.7 84.9 L32.0 85.2 L32.2 85.3 L32.3 85.4 L32.3 85.5 L32.4 85.6 L32.4 85.7 L32.8 85.8 L32.9 86.0 L33.0 86.2 L33.0 86.4 L33.1 86.6 L33.2 86.7 L33.2 86.8 L33.3 86.9 L33.4 86.9 L33.6 87.1 L33.8 87.2 L33.8 87.4 L33.9 87.5 L34.1 87.5 L34.3 87.5 L34.4 87.5 L34.7 87.7 L35.1 87.8 L35.2 87.8 L35.3 87.8 L35.4 87.7 L35.5 87.6 L36.9 87.3 L37.6 87.0 L38.1 86.6 L38.2 86.5 L38.3 86.4 L38.3 86.3 L38.2 86.1 L38.1 86.0 L38.0 85.9 L37.6 85.8 L37.6 85.6 L37.6 85.4 L37.5 85.1 L37.2 84.8 L37.0 84.3 L36.8 83.3 L36.9 82.8 L36.8 82.6 L36.7 82.5 L36.3 82.4 L36.2 82.4 L36.1 82.2 L36.2 82.2 L36.4 82.2 L37.3 82.5 L37.6 82.6 L37.9 82.5 L39.1 81.9 L39.7 81.4 L40.0 81.3 L41.0 81.1 L41.5 81.0 L41.8 80.8 L41.9 80.6 L41.8 80.4 L41.6 80.2 L41.4 80.0 L41.5 79.8 L41.6 79.7 L41.7 79.6 L41.7 79.3 L41.8 79.2 L41.9 79.1 L42.0 79.0 L42.1 79.0 L42.7 79.1 L44.3 79.1 L44.4 79.1 L44.7 78.8 L45.7 78.2 L46.0 78.2 L47.2 78.0 L48.0 77.7 L48.1 77.7 L48.2 77.6 L48.1 77.5 L48.1 77.4 L48.1 77.3 L48.1 77.2 L48.2 77.2 L48.3 77.1 L48.3 77.1 L48.3 77.0 L48.2 77.0 L48.3 77.0 L48.4 76.9 L48.8 76.9 L48.9 76.9 L49.0 76.8 L49.0 76.7 L49.2 76.7 L49.3 76.7 L49.4 76.6 L49.4 76.5 L49.3 76.1 L49.3 76.0 L49.5 75.9 L49.6 75.9 L49.7 75.8 L49.7 75.6 L49.7 75.5 L49.9 75.5 L50.1 75.6 L50.4 75.6 L50.5 75.7 L50.4 75.8 L50.2 75.9 L50.3 76.0 L50.5 76.0 L50.7 76.0 L51.0 75.9 L51.1 75.8 L51.2 75.6 L50.8 75.0 L50.8 74.8 L51.0 74.7 L51.3 74.7 L51.5 74.8 L51.6 74.8 L51.7 74.9 L51.8 75.0 L51.9 75.2 L52.1 75.2 L53.7 75.3 L53.8 75.2 L54.0 75.2 L54.1 75.2 L54.3 75.2 L54.4 75.4 L54.5 75.4 L54.6 75.5 L54.9 75.5 L55.1 75.5 L55.1 75.7 L55.1 75.8 L55.1 75.9 L55.0 76.0 L54.8 76.0 L54.2 76.1 L54.2 76.2 L54.2 76.3 L54.3 76.4 L54.4 76.5 L54.4 76.5 L54.6 76.6 L55.1 76.6 L55.7 76.6 L56.0 76.5 L56.1 76.4 L56.2 76.3 L56.3 76.2 L56.5 76.2 L56.7 76.2 L56.7 76.3 L56.8 76.4 L56.8 76.5 L56.9 76.7 L57.2 76.7 L57.6 76.6 L57.8 76.5 L57.8 76.2 L57.7 76.0 L57.7 75.8 L58.1 75.5 L58.3 75.3 L58.4 75.2 L58.6 75.2 L58.8 75.2 L59.0 75.3 L59.2 75.3 L59.3 75.4 L59.5 75.4 L59.8 75.4 L59.9 75.3 L60.1 75.3 L60.2 75.0 L60.3 75.0 L60.5 74.9 L60.9 74.9 L61.1 74.9 L61.2 74.8 L61.3 74.6 L61.4 74.6 L61.6 74.6 L61.7 74.9 L61.8 75.1 L61.9 75.3 L62.3 75.9 L62.5 76.3 L62.5 76.4 L62.6 76.5 L62.7 76.6 L62.9 76.6 L63.0 76.7 L63.1 76.7 L63.2 76.6 L63.8 76.7 L63.8 76.7 L63.9 76.7 L64.0 76.6 L64.0 76.6 L64.1 76.5 L64.2 76.5 L64.3 76.5 L64.4 76.5 L64.4 76.4 L64.5 76.4 L64.6 76.4 L64.6 76.4 L64.8 76.5 L64.9 76.5 L65.2 76.5 L65.4 76.5 L65.3 76.6 L65.4 76.7 L65.6 76.7 L65.7 76.7 L65.8 76.7 L65.9 76.7 L66.0 76.6 L66.1 76.5 L66.3 76.5 L67.1 76.5 L67.1 76.4 L67.1 76.3 L67.2 76.3 L67.3 76.3 L67.4 76.3 L67.4 76.4 L67.4 76.4 L67.5 76.4 L67.5 76.5 L67.6 76.4 L67.6 76.4 L67.6 76.4 L68.1 76.5 L68.2 76.4 L68.4 76.4 L68.5 76.5 L68.6 76.5 L68.8 76.5 L68.9 76.6 L69.0 76.7 L69.1 76.8 L69.8 77.0 L70.1 77.1 L70.2 77.2 L70.2 77.3 L70.2 77.3 L69.9 77.4 L70.1 77.5 L70.1 77.6 L70.0 77.7 L70.1 77.8 L70.3 78.0 L70.4 78.1 L70.5 78.2 L70.6 78.3 L71.9 78.5 L72.2 78.5 L72.4 78.5 L72.7 78.7 L72.8 78.8 L72.9 79.0 L73.1 79.0 L73.4 79.1 L73.6 79.1 L73.6 79.2 L73.7 79.5 L73.8 79.6 L73.8 79.7 L73.8 79.7 L73.8 79.8 L74.0 80.0 L74.1 80.1 L74.4 80.2 L74.5 80.3 L74.6 80.4 L74.7 80.4 L74.9 80.5 L75.4 80.6 L75.5 80.6 L75.6 80.7 L75.7 80.7 L76.0 80.8 L76.1 80.8 L76.1 80.8 L76.1 80.9 L76.1 81.0 L76.1 81.0 L75.7 81.4 L75.6 81.5 L75.6 81.8 L75.6 81.9 L75.4 82.2 L75.4 82.4 L75.4 82.5 L75.5 82.6 L75.8 82.9 L75.9 82.9 L76.1 83.0 L76.2 83.0 L76.5 83.0 L76.5 83.0 L76.8 82.9 L77.2 82.7 L77.4 82.5 L77.4 82.3 L77.1 81.8 L77.1 81.6 L77.2 81.4 L77.2 81.2 L77.2 81.2 L77.1 81.1 L77.1 81.1 L77.1 81.0 L77.2 80.9 L77.2 80.8 L77.1 80.6 L76.8 80.4 L76.4 80.4 L76.2 80.3 L76.3 80.2 L76.4 80.2 L76.5 80.1 L76.4 79.9 L76.4 79.8 L76.6 79.7 L77.1 79.6 L77.3 79.6 L77.5 79.6 L77.6 79.7 L77.9 79.8 L78.3 80.0 L78.4 80.1 L78.6 80.2 L78.9 80.4 L79.9 80.6 L80.0 80.7 L80.0 81.0 L80.2 81.2 L81.6 82.1 L81.8 82.1 L81.9 82.1 L82.1 82.1 L82.4 82.1 L82.6 82.1 L82.7 82.1 L82.9 82.2 L83.0 82.3 L83.1 82.4 L83.1 82.5 L83.4 82.6 L83.5 82.6 L83.8 82.8 L84.0 83.0 L84.3 82.9 L84.8 82.6 L85.9 82.2 L86.9 81.7 L87.0 81.5 L87.3 80.7 L87.3 80.5 L87.4 80.4 L87.5 80.4 L88.1 80.6 L88.3 80.6 L88.5 80.6 L88.6 80.5 L88.7 80.4 L88.7 80.1 L88.8 80.1 L89.1 80.0 L89.3 80.0 L89.3 79.9 L89.2 79.7 L89.2 79.6 L89.3 79.5 L89.4 79.4 L89.6 79.3 L89.8 79.3 L90.4 79.9 L90.5 79.9 L91.0 80.0 L91.1 80.0 L91.1 79.9 L91.1 79.8 L91.0 79.6 L90.9 79.5 L91.0 79.4 L91.2 79.3 L91.3 79.3 L91.5 79.3 L91.6 79.3 L91.8 79.4 L92.0 79.4 L92.2 79.4 L92.4 79.4 L92.5 79.4 L92.7 79.3 L93.3 79.4 L93.6 79.3 L94.0 79.1 L94.1 79.1 L94.2 79.2 L94.3 79.3 L94.4 79.6 L94.4 79.7 L94.5 79.7 L94.7 79.7 L94.8 79.8 L94.9 79.8 L95.0 79.9 L95.1 80.0 L95.2 80.3 L95.3 80.4 L95.4 80.5 L95.5 80.6 L95.9 80.7 L96.1 80.8 L96.3 80.7 L96.4 80.7 L96.5 80.6 L96.6 80.5 L96.7 80.4 L96.9 80.3 L97.1 80.4 L97.8 80.5 L98.0 80.4 L98.1 80.2 L98.1 80.0 L98.0 79.5 L98.1 79.3 L98.2 79.1 L98.3 79.0 L98.5 79.0 L98.8 79.1 L98.9 79.1 L99.3 79.1 L99.3 79.1 L99.4 79.2 L99.5 79.3 L99.6 79.3 L99.8 79.2 L99.9 79.2 L100.4 79.1 L100.4 79.1 L100.5 79.2 L100.5 79.2 L100.5 79.3 L100.5 79.3 L100.6 79.4 L100.8 79.4 L101.0 79.4 L101.1 79.4 L101.2 79.2 L101.3 79.1 L101.4 79.0 L101.5 78.9 L101.7 78.9 L101.9 78.8 L102.0 78.8 L102.2 79.0 L102.3 79.1 L102.3 79.2 L102.4 79.2 L102.4 79.3 L102.5 79.4 L103.4 79.4 L103.7 79.5 L103.9 79.6 L103.9 79.9 L103.9 80.0 L103.8 80.1 L103.7 80.2 L103.6 80.3 L103.5 80.4 L103.6 80.5 L103.6 80.6 L103.7 80.7 L103.8 80.7 L104.2 80.7 L104.3 80.8 L104.2 81.0 L104.2 81.1 L104.3 81.2 L104.5 81.2 L104.7 81.2 L104.9 81.2 L105.0 81.3 L105.2 81.5 L105.2 81.6 L105.3 81.6 L105.8 81.9 L106.1 82.0 L107.9 82.1 L108.1 82.1 L108.2 82.2 L108.3 82.3 L108.4 82.4 L108.5 82.4 L108.6 82.4 L109.2 82.3 L109.6 82.3 L109.8 82.4 L110.0 82.5 L110.3 82.6 L110.4 82.6 L110.4 82.8 L110.2 82.9 L109.8 82.8 L109.7 82.9 L109.7 83.0 L109.8 83.1 L110.1 83.3 L110.4 83.3 L110.6 83.1 L110.8 83.0 L111.2 83.0 L111.5 83.0 L111.8 82.9 L112.1 82.7 L112.4 82.3 L112.5 82.3 L112.7 82.1 L112.8 82.0 L112.8 81.9 L112.8 81.6 L112.8 81.5 L112.8 81.4 L113.1 80.9 L113.2 80.9 L113.2 80.8 L113.5 80.8 L113.9 80.8 L114.3 80.8 L114.4 81.1 L114.4 81.3 L114.6 81.5 L114.8 81.7 L115.0 81.8 L115.4 81.9 L118.2 82.1 L118.9 82.1 L120.8 81.7 L122.6 81.3 L122.9 81.1 L123.0 80.9 L123.1 80.6 L123.2 80.0 L123.3 79.8 L123.6 78.7 L123.7 78.4 L124.0 78.2 L124.3 78.1 L124.6 78.0 L124.5 78.0 L124.1 77.9 L123.9 77.8 L123.8 77.6 L123.5 77.1 L123.4 76.9 L123.3 76.9 L123.1 76.9 L122.8 76.8 L122.5 76.7 L122.4 76.7 L122.3 76.7 L122.2 76.7 L122.1 76.7 L121.9 76.6 L121.7 76.6 L121.2 76.6 L121.1 76.6 L120.8 76.6 L120.7 76.5 L120.5 76.6 L120.4 76.5 L120.3 76.5 L120.3 76.5 L120.3 76.5 L120.2 76.5 L120.2 76.4 L120.2 76.4 L119.9 76.3 L119.8 76.2 L119.8 76.1 L119.7 76.0 L119.7 76.0 L119.7 75.7 L119.7 75.7 L119.6 75.7 L116.8 75.6 L116.8 75.6 L116.7 75.6 L116.7 75.5 L116.7 75.4 L116.6 75.4 L115.9 75.3 L115.8 75.3 L115.8 75.1 L115.9 75.0 L116.2 74.9 L116.3 74.9 L116.3 74.8 L116.3 74.7 L116.4 74.7 L116.5 74.6 L116.6 74.5 L116.6 74.5 L116.4 74.4 L115.2 74.2 L114.5 73.8 L114.3 73.8 L114.2 73.9 L114.2 74.0 L114.0 74.0 L113.8 74.0 L113.6 73.9 L113.3 73.5 L113.3 73.4 L113.3 73.2 L113.4 73.1 L113.6 73.1 L114.7 73.1 L115.7 72.4 L116.2 72.2 L116.8 72.0 L117.2 72.0 L117.5 72.1 L117.9 72.1 L118.3 71.9 L118.5 71.6 L118.6 71.5 L119.3 71.4 L119.4 71.3 L119.8 71.1 L119.9 71.0 L120.2 70.9 L120.4 70.8 L120.0 70.4 L119.9 70.3 L119.8 70.2 L119.8 69.9 L119.8 69.8 L119.7 69.7 L119.6 69.7 L119.0 69.6 L118.9 69.5 L118.8 69.4 L118.9 69.1 L118.9 68.9 L118.8 68.8 L118.8 68.8 L118.7 68.8 L118.4 68.8 L118.3 68.8 L118.2 68.8 L118.1 68.7 L118.1 68.7 L118.1 68.6 L118.0 68.6 L117.9 68.6 L117.9 68.5 L117.9 68.4 L117.9 68.3 L118.1 68.1 L118.4 68.0 L118.7 67.9 L119.0 67.8 L119.1 67.7 L119.2 67.5 L119.3 67.5 L120.5 66.8 L120.0 66.5 L120.0 66.5 L120.0 66.5 L120.5 66.5 L120.7 66.4 L121.0 66.3 L121.0 66.3 L121.0 66.3 L121.0 66.3 L121.2 66.2 L121.4 66.2 L121.6 66.2 L121.9 66.3 L122.1 66.4 L122.3 66.4 L122.5 66.4 L122.7 66.3 L123.0 66.2 L123.2 66.1 L123.4 66.2 L123.6 66.3 L124.0 66.6 L124.2 66.6 L124.4 66.5 L124.6 66.5 L124.7 66.5 L125.0 66.5 L125.7 66.4 L125.9 66.5 L126.4 66.7 L126.6 66.7 L127.1 66.6 L127.4 66.5 L127.5 66.3 L127.5 66.3 L127.7 66.0 L127.7 65.8 L127.6 65.7 L127.4 65.5 L127.2 65.4 L125.8 65.3 L125.3 65.1 L124.9 64.9 L124.6 64.7 L124.5 64.6 L123.8 64.9 L123.6 64.9 L123.4 64.8 L122.7 64.5 L122.5 64.5 L121.8 64.5 L121.5 64.4 L121.2 64.3 L121.1 64.1 L121.0 63.9 L121.1 63.8 L121.2 63.6 L121.5 63.3 L121.5 63.2 L121.6 63.2 L121.6 63.0 L121.7 62.9 L121.9 62.9 L122.1 62.9 L122.2 63.0 L122.3 63.1 L122.5 63.2 L122.7 63.3 L122.9 63.3 L123.1 63.3 L123.4 63.0 L123.6 63.0 L123.9 62.9 L123.7 62.4 L123.6 62.3 L123.5 62.3 L122.8 62.3 L122.6 62.3 L122.3 62.6 L122.0 62.6 L121.1 62.5 L120.9 62.4 L120.9 62.4 L120.8 62.3 L120.8 62.2 L120.4 62.2 L119.5 62.1 L119.3 62.0 L119.5 61.8 L120.2 62.0 L120.4 61.9 L120.4 61.8 L120.4 61.7 L120.4 61.6 L120.5 61.5 L120.6 61.5 L120.8 61.5 L120.9 61.4 L121.0 61.2 L121.2 61.1 L121.3 61.0 L121.5 60.9 L121.5 60.7 L121.3 60.7 L121.1 60.6 L120.9 60.5 L120.8 60.4 L120.7 60.4 L120.6 60.3 L120.1 60.3 L120.0 60.3 L119.9 60.2 L119.9 60.2 L119.9 60.1 L120.0 60.0 L120.1 59.9 L120.2 59.9 L120.6 59.8 L120.8 59.8 L121.1 59.9 L121.2 59.9 L121.2 59.9 L121.2 60.0 L121.3 60.1 L121.4 60.1 L121.5 60.1 L121.7 60.0 L121.7 59.9 L121.6 59.8 L121.5 59.6 L121.5 59.5 L121.4 59.4 L121.8 59.4 L122.0 59.3 L122.1 59.2 L122.2 59.1 L122.4 59.1 L122.9 59.1 L123.1 59.2 L123.2 59.4 L123.4 59.5 L123.9 59.6 L123.9 59.8 L123.9 59.8 L124.1 59.9 L124.2 59.9 L124.3 59.8 L124.3 59.7 L124.3 59.6 L125.0 59.6 L125.0 59.6 L125.1 59.6 L125.2 59.6 L125.4 59.5 L125.5 59.5 L125.6 59.5 L125.7 59.6 L125.7 59.7 L125.7 59.8 L125.8 59.9 L125.9 59.9 L126.2 60.0 L126.9 60.0 L126.9 59.6 L126.9 59.5 L126.9 59.4 L129.7 59.3 L129.8 59.4 L129.9 59.4 L129.9 59.6 L129.9 59.6 L129.6 59.7 L129.5 59.8 L129.5 59.9 L129.6 60.0 L130.0 60.1 L130.1 60.2 L130.2 60.3 L130.3 60.3 L130.3 60.4 L130.4 60.4 L130.5 60.4 L130.6 60.3 L130.5 60.1 L130.5 60.0 L130.5 60.0 L130.6 59.9 L130.8 59.7 L130.7 59.6 L130.7 59.6 L130.6 59.3 L130.8 59.2 L131.1 59.0 L131.4 59.0 L132.0 59.0 L132.4 58.9 L132.5 58.9 L132.8 59.0 L133.0 59.0 L133.5 58.9 L134.2 58.9 L134.4 58.9 L134.5 58.8 L134.5 58.7 L134.4 58.6 L134.4 58.5 L134.5 58.3 L134.7 58.3 L135.1 58.3 L135.9 58.4 L135.9 58.4 L136.1 58.4 L136.3 58.4 L136.7 58.2 L136.9 58.1 L137.3 58.1 L138.4 57.8 L138.7 57.8 L138.9 57.9 L139.4 58.2 L139.6 58.2 L139.7 58.2 L139.8 58.1 L140.0 58.1 L140.2 58.0 L140.5 58.0 L140.6 57.8 L140.4 57.6 L140.3 57.5 L140.3 57.5 L140.3 57.4 L140.4 57.4 L140.4 57.4 L140.6 57.4 L140.6 57.5 L140.7 57.5 L140.8 57.5 L140.9 57.4 L141.0 57.4 L141.0 57.3 L141.1 57.3 L141.4 57.4 L141.6 57.4 L141.9 57.3 L142.1 57.2 L142.3 57.2 L142.3 57.2 L142.4 57.1 L142.5 57.1 L142.7 57.2 L143.3 57.1 L143.4 57.1 L143.5 57.1 L143.5 57.0 L143.6 57.0 L143.6 57.0 L143.8 57.0 L143.9 57.1 L144.0 57.0 L144.3 56.9 L144.4 57.0 L144.8 57.2 L145.0 57.3 L145.3 57.3 L145.7 57.1 L146.1 56.9 L146.6 56.8 L147.0 56.9 L147.5 57.3 L147.6 57.4 L147.7 57.4 L147.8 57.5 L147.9 57.5 L148.0 57.4 L148.1 57.4 L148.1 57.4 L148.3 57.4 L148.4 57.4 L148.6 57.2 L148.4 56.5 L148.5 56.3 L148.5 56.2 L148.5 56.2 L148.5 56.0 L148.6 56.0 L149.5 55.7 L149.7 55.7 L150.0 55.8 L150.2 55.8 L150.2 55.6 L150.2 55.4 L150.2 55.3 L150.4 55.2 L151.0 55.3 L152.0 55.5 L152.2 55.5 L152.4 55.4 L152.5 55.1 L152.7 55.0 L153.0 54.9 L153.5 54.8 L153.6 54.8 L153.6 55.3 L153.8 55.4 L154.6 55.2 L156.9 54.7 L157.4 54.7 L158.2 54.7 L158.6 54.7 L158.8 54.6 L159.1 54.4 L159.2 54.4 L160.5 54.4 L160.7 54.3 L161.1 54.2 L161.3 54.2 L161.8 54.2 L162.1 54.1 L162.3 54.0 L162.4 53.9 L162.6 53.8 L162.8 53.7 L163.2 53.8 L163.7 53.7 L164.9 53.8 L165.4 53.7 L165.8 53.5 L166.1 53.2 L166.2 53.1 L166.4 53.0 L166.6 53.0 L166.8 53.0 L167.5 53.1 L168.5 53.1 L168.7 53.0 L168.7 52.8 L168.9 52.8 L168.9 52.7 L169.0 52.6 L169.0 52.5 L169.1 52.5 L169.3 52.4 L169.5 52.4 L169.5 52.3 L169.0 52.1 L168.7 51.9 L168.8 51.7 L168.7 51.6 L168.6 51.6 L169.1 51.5 L169.2 51.5 L169.3 51.5 L169.4 51.5 L169.5 51.5 L169.6 51.5 L170.0 51.4 L170.1 51.4 L170.7 51.5 L171.1 51.4 L171.3 51.4 L171.4 51.5 L171.5 51.4 L171.6 51.4 L171.6 51.3 L171.6 51.2 L171.6 51.1 L171.7 51.0 L172.0 50.9 L172.0 50.8 L172.0 50.7 L172.0 50.6 L172.1 50.4 L172.2 50.3 L172.3 50.4 L172.4 50.4 L173.0 50.4 L173.1 50.5 L173.3 50.6 L173.5 50.8 L173.7 50.9 L173.8 50.9 L174.0 50.9 L174.1 50.8 L174.1 50.7 L174.0 50.4 L173.9 50.4 L173.7 50.3 L173.6 50.3 L173.6 50.0 L173.5 50.0 L173.5 49.9 L173.6 49.9 L173.7 49.8 L173.8 49.8 L175.0 50.1 L175.2 50.2 L175.3 50.4 L175.4 50.6 L175.7 50.5 L176.3 50.2 L176.4 50.2 L177.4 50.4 L178.7 50.5 L179.6 50.8 L179.8 50.9 L180.3 51.3 L180.5 51.4 L181.1 51.4 L181.3 51.5 L182.3 51.9 L182.4 51.9 L182.5 51.8 L182.7 51.6 L182.9 51.5 L183.5 51.4 L183.5 51.4 L183.5 51.3 L183.5 51.3 L183.6 51.2 L183.6 51.1 L183.9 50.9 L184.0 50.8 L184.1 50.8 L184.6 50.9 L184.7 50.9 L184.9 50.9 L185.0 50.9 L185.2 50.8 L185.4 50.7 L185.8 50.6 L186.2 50.7 L186.5 50.8 L186.4 50.9 L186.3 51.0 L186.2 51.1 L186.3 51.2 L186.8 51.5 L187.4 52.1 L187.5 52.2 L187.5 52.3 L187.5 52.4 L187.5 52.4 L187.5 52.4 L187.5 52.5 L187.5 52.6 L187.5 52.7 L187.5 52.8 L187.4 52.9 L187.5 53.1 L187.5 53.2 L187.4 53.3 L187.3 53.4 L187.3 53.5 L187.4 53.6 L187.6 53.8 L187.7 53.9 L187.7 54.1 L187.7 54.3 L188.0 54.5 L188.4 54.6 L188.6 54.6 L188.9 54.6 L189.1 54.6 L189.2 54.7 L189.4 54.9 L189.5 55.1 L189.5 55.2 L189.4 55.3 L189.3 55.3 L188.9 55.4 L188.7 55.5 L188.7 55.7 L188.7 56.2 L188.7 56.2 L188.7 56.3 L188.7 56.3 L188.8 56.4 L188.9 56.5 L188.8 56.7 L188.8 56.7 L188.9 56.8 L189.0 56.8 L189.0 56.8 L189.0 56.9 L189.0 57.0 L189.0 57.1 L189.0 57.4 L188.6 57.4 L188.5 57.4 L188.4 57.4 L188.1 57.3 L188.0 57.3 L187.7 57.3 L187.6 57.3 L187.5 57.5 L187.5 57.7 L188.0 57.7 L188.0 57.7 L188.1 57.9 L188.1 58.0 L188.0 58.2 L188.0 58.3 L188.3 58.3 L188.4 58.4 L188.5 58.5 L188.7 58.8 L188.8 58.8 L188.9 58.8 L189.2 58.7 L189.4 58.6 L189.7 58.2 L189.9 58.2 L190.1 58.2 L190.3 58.2 L190.5 58.3 L190.7 58.3 L190.8 58.3 L190.8 58.4 L190.9 58.5 L190.9 58.8 L191.1 58.8 L191.4 58.7 L191.6 58.6 L191.6 58.7 L191.8 58.8 L191.9 58.8 L192.0 58.8 L192.1 58.8 L192.3 58.7 L192.5 58.6 L192.5 58.5 L192.5 58.2 L192.5 58.1 L192.6 58.0 L192.7 57.9 L192.8 57.8 L194.2 57.9 L194.3 58.0 L194.5 58.0 L194.6 58.1 L195.0 58.5 L195.1 58.6 L195.3 58.7 L195.5 58.7 L195.7 58.6 L195.7 58.5 L195.7 58.3 L195.6 58.2 L195.4 58.1 L195.2 58.1 L195.0 58.1 L194.9 58.0 L194.9 58.0 L194.9 57.9 L194.9 57.8 L194.9 57.7 L195.0 57.7 L195.1 57.5 L195.2 57.4 L195.1 57.4 L194.9 57.3 L194.7 57.2 L194.6 57.1 L194.6 57.0 L194.7 57.0 L195.5 57.0 L195.7 57.1 L196.0 57.3 L196.2 57.5 L196.3 57.7 L196.3 57.7 L196.6 57.8 L196.7 57.9 L196.7 58.0 L196.5 58.3 L197.1 58.5 L197.7 58.6 L197.7 58.6 L197.7 58.7 L197.7 58.7 L197.6 58.8 L197.5 58.8 L197.4 58.8 L197.3 58.8 L197.3 58.8 L197.2 58.9 L197.2 58.9 L197.1 58.9 L196.9 58.9 L196.9 58.9 L196.9 59.0 L196.9 59.1 L196.9 59.1 L197.0 59.2 L197.2 59.3 L197.3 59.4 L197.2 59.6 L197.2 59.6 L197.0 59.8 L197.0 60.0 L197.0 60.1 L197.1 60.1 L197.3 60.2 L197.5 60.2 L197.7 60.1 L198.0 59.9 L198.1 59.7 L198.2 59.7 L198.3 59.7 L199.0 59.9 L199.2 59.8 L199.1 59.6 L199.0 59.4 L198.9 59.2 L198.7 59.2 L198.5 59.2 L197.9 59.2 L197.9 59.2 L197.9 59.1 L198.0 58.9 L198.0 58.8 L198.3 58.7 L198.7 58.6 L199.6 58.7 L200.4 58.7 L200.8 58.7 L200.9 58.7 L201.0 58.8 L201.0 58.9 L201.1 59.2 L201.4 59.3 L201.4 59.4 L201.5 59.6 L201.6 59.7 L202.5 59.8 L203.6 59.9 L203.7 59.9 L203.8 59.9 L203.8 59.8 L203.8 59.7 L203.9 59.7 L204.1 59.7 L204.1 59.7 L204.2 59.8 L204.4 59.9 L204.5 59.9 L204.6 59.9 L204.7 59.8 L204.7 59.7 L204.7 59.6 L204.7 59.6 L204.8 59.4 L205.2 59.4 L205.3 59.3 L205.3 59.2 L205.2 59.1 L205.2 59.1 L205.3 59.0 L205.6 59.0 L205.7 59.0 L205.8 59.0 L205.8 59.2 L205.8 59.2 L206.2 59.1 L205.9 60.2 L205.8 60.4 L205.7 60.5 L205.5 60.5 L204.5 60.4 L204.3 60.4 L204.1 60.4 L204.0 60.5 L203.9 60.7 L204.2 60.8 L203.6 61.0 L203.4 61.0 L203.3 61.6 L203.0 61.7 L202.9 61.7 L202.8 61.8 L202.7 61.9 L202.7 62.0 L203.0 62.2 L202.8 62.4 L203.9 62.8 L203.6 63.2 L204.0 63.4 L204.1 63.4 L204.3 63.2 L204.7 63.0 L204.8 63.0 L204.8 63.0 L204.9 62.9 L205.0 62.8 L205.0 62.7 L205.1 62.6 L205.1 62.5 L205.1 62.5 L205.3 62.5 L205.3 62.5 L205.5 62.5 L205.5 62.5 L205.6 62.4 L205.6 62.4 L205.6 62.3 L205.6 62.2 L205.6 62.2 L205.7 62.1 L206.2 62.2 L206.3 62.2 L206.5 62.3 L206.6 62.2 L207.1 62.0 L207.3 62.0 L207.5 62.0 L207.8 62.0 L208.3 62.0 L208.4 62.1 L208.4 62.2 L208.4 62.3 L208.4 62.4 L208.5 62.5 L208.7 62.5 L208.8 62.4 L208.9 62.3 L209.0 62.2 L209.4 62.2 L209.5 62.3 L209.6 62.3 L209.6 62.4 L209.7 62.5 L209.8 62.5 L209.7 62.7 L209.8 62.8 L210.0 63.0 L210.0 63.0 L210.0 63.0 L210.4 63.1 L210.6 63.2 L210.7 63.1 L211.1 62.4 L211.0 62.4 L211.0 62.3 L210.9 62.2 L210.8 62.2 L210.9 61.9 L210.9 61.7 L211.0 61.7 L212.1 61.7 L212.2 61.6 L212.3 61.3 L212.4 61.2 L212.4 61.2 L212.5 61.2 L212.9 61.1 L212.9 61.1 L213.0 61.0 L213.1 60.8 L213.1 60.7 L213.2 60.7 L213.4 60.6 L214.0 60.6 L214.2 60.7 L214.7 60.8 L214.9 60.8 L215.8 60.4 L216.6 60.1 L217.7 59.6 L217.2 59.1 L217.6 58.9 L217.9 58.8 L218.1 58.8 L218.8 58.9 L219.1 58.9 L219.4 58.8 L219.8 58.6 L220.6 58.4 L221.8 58.1 L222.7 57.8 L222.6 57.7 L222.6 57.6 L222.7 57.4 L222.8 57.3 L222.9 57.2 L223.1 57.2 L224.4 57.4 L224.7 57.3 L225.1 57.1 L225.3 57.1 L225.4 57.1 L225.6 57.1 L225.7 57.1 L225.8 57.0 L225.8 56.9 L225.8 56.8 L225.9 56.7 L226.0 56.6 L226.2 56.5 L226.6 56.6 L226.8 56.6 L227.2 56.4 L227.4 56.4 L227.5 56.4 L227.6 56.5 L227.6 56.6 L227.5 56.7 L226.9 56.8 L226.8 56.8 L226.7 56.9 L226.6 57.0 L226.7 57.1 L227.0 57.1 L227.1 57.2 L227.2 57.3 L227.1 57.5 L227.0 57.6 L226.9 57.8 L226.8 57.9 L226.7 58.1 L226.6 58.2 L226.6 58.2 L226.4 58.3 L226.3 58.4 L226.0 58.6 L225.6 58.6 L224.7 58.4 L224.3 58.4 L224.1 58.4 L224.0 58.5 L224.0 58.5 L224.7 59.2 L224.7 59.3 L224.8 59.6 L225.0 59.8 L225.6 60.1 L226.4 60.5 L227.7 61.1 L228.9 61.6 L230.2 62.2 L231.5 62.8 L232.4 63.3 L233.2 63.8 L233.5 64.1 L234.1 64.4 L234.8 65.1 L235.3 65.6 L236.0 66.4 L236.8 67.2 L237.5 68.0 L238.2 68.7 L239.2 69.8 L240.1 70.9 L241.1 72.0 L242.0 73.1 L242.0 73.1 L242.0 73.1 L242.8 73.9 L243.5 74.8 L243.8 75.2 L244.2 75.6 L244.9 76.5 L245.5 77.3 L246.1 78.1 L246.7 78.9 L247.3 79.7 L247.7 80.1 L248.0 80.6 L248.2 81.0 L248.3 81.1 L248.4 81.2 L248.7 81.4 L248.9 81.5 L249.1 81.5 L248.7 81.1 L248.6 80.9 L248.8 80.8 L249.0 80.8 L249.2 81.0 L249.3 81.0 L249.5 81.0 L249.6 81.0 L249.6 80.7 L249.7 80.6 L249.8 80.6 L250.1 80.5 L250.2 80.5 L250.3 80.4 L250.3 80.4 L250.4 80.4 L250.7 80.4 L250.9 80.3 L251.2 80.2 L251.5 80.1 L251.6 79.8 L251.6 79.7 L251.7 79.6 L251.7 79.5 L251.6 79.4 L251.6 79.3 L251.4 79.2 L251.3 79.1 L251.3 79.0 L251.3 78.9 L251.3 78.7 L251.4 78.5 L251.4 78.4 L251.6 78.4 L251.7 78.4 L252.3 78.4 L252.6 78.4 L252.7 78.2 L252.7 78.1 L252.7 78.0 L252.8 77.9 L252.9 77.8 L253.0 77.8 L253.1 77.8 L254.0 78.0 L254.2 78.1 L254.3 78.0 L254.4 77.9 L254.5 77.9 L254.6 77.9 L254.7 78.0 L254.7 78.2 L254.8 78.3 L254.8 78.4 L255.1 78.5 L255.4 78.6 L255.6 78.6 L255.7 78.6 L255.9 78.5 L256.0 78.5 L256.2 78.5 L256.3 78.5 L256.3 78.6 L256.3 78.7 L256.3 78.9 L255.8 79.6 L255.6 80.0 L255.6 80.1 L255.7 80.2 L255.8 80.2 L256.0 80.2 L256.3 80.2 L257.1 80.0 L258.0 80.1 L258.0 80.3 L258.1 80.5 L258.2 80.7 L258.4 80.9 L258.3 81.1 L258.1 81.2 L258.1 81.4 L258.2 81.5 L258.4 81.6 L259.8 81.6 L260.0 81.5 L260.2 81.3 L260.3 81.2 L260.4 81.3 L260.7 81.4 L260.8 81.4 L261.3 81.3 L261.7 81.4 L262.0 81.4 L262.1 81.5 L262.5 81.7 L262.7 81.8 L263.0 81.8 L263.2 81.8 L263.4 81.8 L263.5 81.7 L263.6 81.6 L263.8 81.5 L263.9 81.5 L264.0 81.6 L264.1 81.5 L264.1 81.5 L264.2 81.5 L264.3 81.5 L264.4 81.5 L264.5 81.5 L264.8 81.5 L264.9 81.5 L265.2 81.7 L266.1 81.4 L266.6 81.2 L266.7 81.1 L266.8 80.6 L266.9 80.5 L267.2 80.4 L267.7 80.5 L268.6 80.6 L268.9 80.5 L269.2 80.4 L269.4 80.1 L269.5 79.8 L269.6 79.8 L269.6 79.8 L269.7 79.8 L269.9 79.9 L270.0 79.9 L270.1 79.9 L270.2 79.8 L271.0 79.8 L271.7 79.8 L271.9 80.0 L272.0 80.1 L272.2 80.2 L272.9 80.3 L273.1 80.3 L273.4 80.5 L273.6 80.6 L273.7 80.6 L274.0 80.6 L274.2 80.6 L274.3 80.7 L274.4 80.8 L274.7 81.0 L274.7 81.1 L275.0 81.1 L275.2 81.3 L275.2 81.7 L275.4 81.9 L276.1 82.3 L276.2 82.3 L276.4 82.5 L276.5 82.6 L276.5 82.7 L276.6 82.8 L276.8 83.0 L276.9 83.1 L276.9 83.2 L276.7 83.6 L276.8 83.8 L277.0 84.0 L277.2 84.2 L277.2 84.4 L277.2 84.5 L277.2 84.7 L277.2 84.8 L277.3 84.8 L277.5 84.9 L277.6 84.9 L277.6 85.0 L277.7 85.1 L277.8 85.1 L278.0 85.1 L278.3 85.0 L278.5 84.9 L278.8 85.0 L279.0 85.2 L279.2 85.3 L279.4 85.3 L279.6 85.3 L279.9 85.3 L280.0 85.4 L280.2 85.5 L280.4 85.6 L280.5 85.6 L280.8 85.6 L280.9 85.7 L281.0 85.7 L281.1 86.0 L281.2 86.0 L281.3 86.0 L281.4 85.9 L281.5 85.9 L281.7 85.9 L282.1 86.0 L282.2 86.1 L282.4 86.3 L282.5 86.4 L282.5 86.5 L282.4 86.6 L282.1 86.6 L282.1 86.6 L282.0 86.6 L282.0 86.6 L282.0 87.0 L282.0 87.2 L282.1 87.3 L282.5 87.3 L282.7 87.4 L282.8 87.6 L282.8 87.8 L282.8 87.9 L283.0 88.0 L283.4 88.3 L283.5 88.5 L283.6 89.1 L283.8 89.3 L284.1 89.4 L284.3 89.3 L284.5 89.3 L284.6 89.2 L284.8 89.2 L284.9 89.1 L285.0 89.2 L285.3 89.3 L285.5 89.4 L285.8 89.4 L285.9 89.3 L286.0 89.3 L286.2 89.2 L286.3 89.1 L286.5 89.1 L286.5 89.2 L286.6 89.4 L286.7 89.5 L286.8 89.5 L287.0 89.5 L287.2 89.4 L287.3 89.4 L287.5 89.5 L287.6 89.6 L287.7 89.6 L287.8 89.7 L287.9 89.7 L288.1 89.5 L288.2 89.5 L288.4 89.5 L288.7 89.5 L288.7 89.6 L288.6 89.9 L288.6 90.0 L288.7 90.1 L288.8 90.1 L288.9 90.0 L289.0 90.0 L289.0 90.0 L289.2 89.8 L289.5 89.8 L289.8 89.8 L290.0 90.0 L290.3 90.2 L290.5 90.0 L290.7 89.6 L290.9 89.4 L291.3 89.2 L291.7 89.1 L292.2 88.8 L292.3 88.8 L292.3 88.7 L292.3 88.7 L292.3 88.6 L292.2 88.5 L292.6 88.4 L292.6 88.4 L292.7 88.3 L292.7 88.3 L292.8 88.3 L292.8 88.3 L292.9 88.3 L293.0 88.2 L293.1 88.0 L293.2 87.9 L293.4 87.9 L293.7 88.0 L293.8 88.1 L294.0 88.0 L294.1 88.0 L294.2 88.0 L294.2 88.1 L294.1 88.2 L294.1 88.3 L294.0 88.3 L294.1 88.4 L294.1 88.5 L294.3 88.6 L294.2 88.7 L294.0 88.8 L293.9 88.8 L293.6 88.8 L293.4 88.9 L293.2 89.1 L293.1 89.2 L293.1 89.3 L293.1 89.4 L293.2 89.5 L293.4 89.6 L293.5 89.6 L293.8 89.6 L294.0 89.6 L294.5 89.8 L294.6 89.9 L294.6 90.0 L294.6 90.1 L294.6 90.3 L294.7 90.4 L294.8 90.5 L295.2 90.6 L295.4 90.7 L295.3 90.7 L295.2 90.8 L295.2 90.9 L295.2 91.0 L295.4 91.1 L295.8 91.4 L295.9 91.4 L295.9 91.5 L295.9 91.6 L296.0 91.6 L296.1 91.7 L296.2 91.7 L296.3 91.7 L296.9 91.7 L297.1 91.7 L297.3 91.8 L297.6 91.9 L297.8 92.1 L297.9 92.5 L298.0 92.7 Z M136.2 116.5 L136.6 116.5 L137.0 116.5 L137.4 116.4 L137.8 116.3 L138.1 116.2 L138.4 116.0 L138.7 115.9 L139.0 115.7 L139.3 115.5 L139.5 115.3 L139.7 115.1 L139.9 114.8 L140.0 114.6 L140.1 114.3 L140.2 114.0 L140.2 113.7 L140.2 113.4 L140.1 113.2 L140.0 112.9 L139.9 112.6 L139.7 112.4 L139.5 112.2 L139.3 112.0 L139.0 111.8 L138.7 111.6 L138.4 111.4 L138.1 111.3 L137.8 111.2 L137.4 111.1 L137.0 111.0 L136.6 111.0 L136.2 110.9 L135.8 111.0 L135.4 111.0 L135.1 111.1 L134.7 111.2 L134.4 111.3 L134.0 111.4 L133.7 111.6 L133.4 111.8 L133.2 112.0 L133.0 112.2 L132.8 112.4 L132.6 112.6 L132.5 112.9 L132.4 113.2 L132.3 113.4 L132.3 113.7 L132.3 114.0 L132.4 114.3 L132.5 114.6 L132.6 114.8 L132.8 115.1 L133.0 115.3 L133.2 115.5 L133.4 115.7 L133.7 115.9 L134.0 116.0 L134.4 116.2 L134.7 116.3 L135.1 116.4 L135.4 116.5 L135.8 116.5 L136.2 116.5 Z" fill="#172033" fill-rule="evenodd"/></svg>
