<svg xmlns="http://www.w3.org/2000/svg" viewBox="0 0 320 200" role="img"><path d="M128.0 23.8 L128.1 24.0 L128.2 24.2 L128.4 24.8 L128.4 24.9 L128.6 25.0 L128.6 25.1 L128.6 25.2 L128.6 25.4 L128.6 25.5 L128.9 25.8 L129.2 26.0 L129.5 26.2 L129.6 26.6 L129.9 26.9 L131.0 27.4 L132.3 28.6 L132.9 28.9 L133.1 29.0 L133.2 29.2 L133.4 29.7 L133.5 29.9 L133.9 30.2 L134.3 30.4 L134.6 30.6 L134.4 30.9 L134.4 30.9 L134.3 31.0 L134.3 31.0 L134.3 31.1 L134.5 31.8 L135.2 32.1 L136.0 32.4 L136.6 32.8 L137.2 34.1 L137.3 34.9 L137.3 35.9 L137.3 36.4 L137.4 36.8 L137.5 37.1 L137.6 37.2 L137.7 37.3 L137.8 37.2 L138.7 37.2 L138.9 37.2 L139.5 36.8 L139.9 36.3 L140.1 35.7 L140.2 34.3 L140.5 34.0 L140.8 34.3 L141.0 35.1 L140.9 35.8 L141.0 36.2 L141.2 36.4 L141.5 36.4 L142.8 35.8 L142.9 35.8 L143.0 35.8 L143.2 36.0 L143.3 36.2 L143.3 36.4 L143.3 37.7 L143.3 38.1 L143.5 38.5 L143.5 38.6 L143.5 38.6 L143.5 38.7 L143.5 38.7 L143.2 39.1 L142.5 39.9 L142.1 40.2 L141.3 41.5 L141.5 41.3 L141.9 41.1 L142.2 41.0 L142.5 41.0 L142.5 41.2 L141.9 42.1 L141.8 42.5 L141.8 43.3 L141.7 43.6 L141.5 43.9 L140.9 44.0 L140.6 44.2 L140.4 44.6 L140.5 44.6 L140.9 44.6 L141.3 44.6 L141.5 44.7 L141.8 44.9 L141.9 45.1 L142.0 45.3 L142.0 45.5 L141.9 45.8 L141.9 46.0 L142.0 46.2 L142.1 46.2 L142.2 46.2 L142.4 46.3 L142.6 46.6 L142.6 46.6 L142.8 47.3 L142.9 47.7 L143.0 47.8 L143.1 47.9 L143.3 48.0 L143.5 48.0 L144.0 48.2 L144.3 48.5 L144.7 49.3 L145.2 50.4 L145.6 51.0 L146.1 51.6 L146.4 51.8 L146.5 51.9 L146.7 52.0 L147.0 52.0 L147.2 52.1 L147.3 52.2 L147.6 52.3 L147.7 52.4 L148.0 52.4 L148.1 52.4 L148.3 52.3 L148.5 52.3 L148.8 52.4 L149.8 52.9 L150.3 53.0 L150.5 53.1 L150.6 53.1 L151.1 52.9 L151.1 52.9 L151.5 52.7 L151.6 52.6 L151.6 52.5 L151.7 52.5 L152.0 52.5 L152.2 52.8 L152.5 53.4 L152.7 53.6 L152.9 53.7 L153.0 53.8 L153.2 53.8 L153.4 53.8 L153.4 53.8 L154.5 54.1 L154.8 54.2 L155.6 55.0 L155.9 55.3 L156.0 55.4 L156.1 55.4 L156.3 55.4 L156.4 55.4 L156.7 55.4 L156.9 55.3 L157.0 55.2 L157.0 55.0 L156.8 54.7 L156.8 54.5 L156.8 54.3 L157.0 54.2 L157.1 54.2 L157.3 54.1 L157.7 53.9 L157.8 53.7 L157.7 53.6 L157.7 53.2 L157.7 52.9 L157.9 52.5 L158.1 52.2 L158.3 52.0 L158.5 51.9 L158.8 52.0 L159.0 52.0 L159.2 51.9 L159.5 51.7 L159.6 51.6 L160.9 51.2 L161.3 51.0 L161.5 51.0 L161.7 51.0 L162.4 50.9 L163.2 49.9 L163.8 49.9 L164.0 50.0 L164.2 50.2 L164.4 50.2 L164.6 50.3 L165.0 50.3 L165.2 50.3 L165.7 50.5 L165.8 50.6 L165.9 50.7 L166.1 51.1 L166.2 51.2 L166.3 51.2 L166.7 51.0 L166.9 51.0 L167.1 51.1 L167.2 51.2 L167.4 51.3 L167.5 51.4 L167.8 51.7 L168.0 52.2 L168.3 52.5 L168.4 52.6 L168.7 52.7 L168.9 52.8 L169.0 52.9 L169.1 53.2 L169.2 53.4 L169.6 53.5 L170.0 53.5 L170.4 53.5 L170.6 53.8 L170.8 54.3 L171.1 54.6 L172.1 55.0 L173.1 55.4 L173.4 55.6 L173.3 55.7 L173.2 56.1 L172.0 57.6 L171.6 57.9 L171.2 58.1 L170.7 58.0 L170.3 57.7 L169.9 58.4 L169.9 58.4 L168.8 59.0 L168.7 59.4 L169.3 59.7 L170.0 59.9 L172.6 59.9 L172.9 60.0 L173.3 60.5 L173.6 60.7 L174.3 61.0 L174.5 61.2 L174.6 61.3 L174.7 61.5 L174.7 61.7 L174.7 61.9 L174.6 62.2 L174.4 62.2 L174.3 62.2 L174.1 62.3 L174.1 62.5 L174.0 62.9 L174.0 63.3 L174.1 63.5 L174.7 63.8 L175.5 63.7 L176.3 63.4 L177.1 63.4 L178.7 64.2 L178.7 64.3 L178.6 64.5 L178.6 64.9 L178.9 65.3 L179.6 65.7 L179.7 66.0 L179.6 66.1 L179.4 66.1 L179.3 66.2 L179.3 66.3 L179.4 66.4 L179.4 66.8 L179.5 67.0 L179.5 67.2 L179.4 67.5 L179.4 67.5 L179.2 67.7 L178.9 67.7 L178.4 67.6 L178.1 67.7 L178.0 67.8 L177.9 67.9 L177.8 68.2 L177.4 68.5 L176.4 69.1 L176.0 69.5 L175.9 69.8 L176.0 69.9 L176.5 69.9 L176.9 70.0 L177.0 70.1 L177.0 70.3 L177.0 70.6 L176.8 71.2 L176.4 71.4 L176.0 71.6 L175.6 72.0 L175.2 72.1 L175.0 72.1 L174.7 72.2 L174.5 72.4 L174.2 72.6 L174.1 72.9 L173.5 74.3 L173.3 74.5 L173.2 74.5 L172.9 74.4 L172.7 74.3 L172.5 74.4 L172.3 74.6 L172.1 74.6 L171.7 74.7 L171.4 74.6 L170.3 74.0 L169.9 73.8 L169.7 73.7 L169.5 73.5 L169.3 73.3 L169.1 73.1 L168.7 73.1 L168.4 73.1 L167.5 73.7 L167.2 73.1 L166.6 72.9 L166.3 72.7 L165.8 72.9 L165.0 73.1 L164.6 73.1 L164.6 73.2 L164.4 73.3 L164.3 73.5 L164.2 73.7 L163.8 73.7 L163.4 73.6 L162.6 73.2 L162.4 73.1 L162.2 73.2 L162.1 73.5 L162.1 73.7 L162.5 74.6 L162.7 74.9 L163.3 75.2 L163.5 75.4 L163.6 75.7 L163.6 76.0 L163.7 76.3 L163.9 76.6 L163.9 76.6 L163.8 76.8 L163.6 76.8 L163.5 76.9 L163.3 77.0 L163.2 77.2 L163.1 77.6 L163.0 77.8 L162.9 78.0 L162.9 78.1 L162.8 78.0 L162.5 78.0 L162.1 78.2 L161.7 78.4 L161.3 78.5 L161.1 78.6 L160.7 79.1 L160.5 79.3 L159.8 79.6 L159.6 79.8 L159.4 80.1 L159.6 80.2 L159.9 80.2 L160.2 80.2 L160.5 80.7 L160.5 80.8 L160.7 80.9 L161.1 81.1 L161.7 81.5 L161.7 81.5 L162.1 81.3 L162.5 81.3 L162.8 81.4 L164.9 82.2 L165.6 82.7 L165.8 82.9 L165.8 83.3 L165.8 83.6 L166.0 83.7 L166.5 83.6 L166.9 83.7 L166.9 83.7 L167.2 83.9 L167.4 84.1 L167.7 84.3 L168.0 84.5 L168.3 84.6 L168.6 84.7 L168.9 84.9 L169.5 85.7 L169.7 85.9 L170.0 85.9 L170.6 85.9 L170.9 86.0 L171.2 86.1 L171.4 86.4 L172.1 87.3 L172.3 87.4 L172.9 87.8 L173.1 87.9 L173.6 88.4 L173.9 88.6 L174.1 88.7 L174.5 88.7 L174.6 88.7 L174.7 88.8 L174.9 89.2 L175.1 89.3 L175.3 89.3 L176.0 89.4 L176.7 89.6 L177.0 89.7 L178.0 89.6 L178.5 89.7 L178.7 90.2 L178.9 90.4 L179.2 90.4 L179.6 90.4 L179.9 90.4 L180.2 90.4 L181.1 90.9 L181.5 91.1 L181.7 91.1 L182.0 91.0 L182.2 91.0 L182.4 91.0 L182.9 91.9 L183.3 92.1 L183.4 92.3 L183.4 92.5 L183.4 92.6 L183.3 92.9 L183.1 92.9 L182.9 92.8 L182.7 92.9 L182.4 93.2 L182.2 93.7 L181.9 94.7 L181.8 95.5 L182.0 96.0 L182.4 96.4 L183.0 96.8 L183.3 97.1 L183.3 97.3 L183.2 97.5 L183.2 97.9 L183.4 98.2 L184.3 98.7 L184.4 98.8 L184.5 99.1 L184.6 99.2 L184.8 99.3 L185.0 99.2 L185.5 99.2 L185.6 99.1 L185.7 99.1 L185.8 99.3 L185.8 99.5 L185.7 100.0 L185.7 100.2 L185.9 100.4 L186.2 100.6 L186.5 100.8 L186.8 100.9 L187.0 100.9 L187.0 101.0 L187.0 101.0 L187.2 100.9 L187.3 100.8 L187.4 100.4 L187.5 100.2 L187.8 100.1 L188.2 100.1 L188.6 100.2 L188.8 100.5 L188.9 100.6 L189.1 101.1 L189.1 101.2 L189.1 101.3 L189.0 101.4 L189.0 101.4 L189.1 101.5 L189.3 101.5 L189.4 101.6 L189.7 102.2 L189.8 102.4 L190.1 102.5 L190.3 102.7 L190.4 102.9 L190.4 103.3 L190.5 103.5 L190.6 103.6 L191.1 103.8 L191.1 103.8 L191.3 104.3 L191.4 104.4 L191.2 105.8 L191.4 106.4 L192.1 107.0 L192.5 107.9 L192.9 108.4 L193.1 108.7 L193.3 109.4 L193.5 109.7 L193.7 109.8 L194.7 110.2 L195.3 110.6 L195.7 111.0 L196.9 112.5 L197.3 112.9 L197.3 112.9 L198.9 114.7 L201.9 117.2 L202.3 117.4 L202.6 117.5 L202.8 117.3 L203.0 117.1 L203.1 116.9 L203.2 116.8 L203.3 116.7 L203.5 116.7 L203.7 116.7 L203.7 116.9 L203.7 117.1 L203.8 117.3 L203.9 117.4 L204.1 117.7 L204.2 117.8 L204.2 118.0 L204.0 118.2 L204.0 118.4 L204.1 118.7 L204.6 119.6 L205.5 120.4 L205.7 120.7 L205.7 120.8 L205.6 121.0 L205.6 121.1 L205.9 121.7 L206.0 121.8 L206.0 122.0 L206.0 122.0 L206.2 122.1 L206.5 122.3 L206.8 122.4 L207.1 122.5 L207.6 122.6 L208.1 122.1 L208.2 122.4 L208.2 122.8 L208.3 127.7 L208.4 128.1 L208.5 128.5 L208.9 128.9 L209.3 129.1 L209.6 129.3 L209.9 129.3 L210.2 129.4 L210.2 129.6 L210.2 130.6 L210.2 130.8 L210.4 131.5 L210.7 132.0 L211.1 132.3 L211.7 132.2 L211.7 132.4 L211.7 132.5 L211.8 132.5 L212.0 132.4 L212.2 132.3 L212.2 132.3 L212.2 132.2 L212.2 132.0 L212.3 131.9 L212.8 131.6 L213.0 131.4 L213.1 131.1 L213.5 130.4 L213.9 130.5 L214.2 130.9 L214.3 131.7 L214.2 132.3 L214.2 132.3 L214.1 132.4 L214.1 132.5 L214.1 132.6 L214.2 132.6 L214.3 132.6 L214.4 132.5 L214.5 132.5 L214.7 133.0 L214.9 133.2 L215.2 133.5 L215.6 133.7 L215.7 133.8 L215.8 134.0 L215.9 134.4 L215.9 134.5 L216.1 134.6 L216.4 134.7 L217.0 134.7 L217.7 134.7 L217.9 134.8 L218.0 134.8 L218.3 135.0 L218.7 135.2 L218.8 135.5 L219.0 136.4 L219.1 136.7 L219.2 136.7 L219.3 136.9 L219.5 137.1 L219.8 137.2 L220.0 137.3 L220.3 137.4 L220.6 137.4 L221.1 137.7 L221.7 138.6 L222.1 138.9 L222.7 139.1 L223.2 139.0 L224.2 138.8 L224.5 138.8 L224.6 138.9 L224.6 139.1 L224.6 139.1 L224.6 139.4 L224.7 139.6 L224.8 139.8 L224.8 139.9 L224.6 140.2 L224.3 140.4 L223.8 141.3 L223.5 141.6 L223.3 141.7 L222.6 141.8 L222.3 141.9 L221.0 142.7 L220.8 142.8 L220.7 142.7 L220.5 142.7 L220.3 142.6 L220.1 142.7 L219.9 142.9 L219.4 143.8 L219.4 144.2 L219.6 144.5 L220.6 145.1 L220.8 145.3 L220.9 145.5 L221.0 146.3 L221.1 146.6 L221.2 146.8 L221.5 147.0 L222.2 147.4 L222.5 147.6 L223.4 149.3 L223.6 149.4 L223.8 149.3 L223.9 149.2 L224.1 149.0 L224.2 149.0 L224.6 149.1 L224.7 149.1 L224.8 149.0 L224.9 149.0 L225.0 149.3 L225.0 149.4 L225.1 149.5 L225.2 149.5 L225.3 149.4 L225.6 149.5 L225.6 149.9 L225.6 150.3 L225.7 150.6 L226.0 150.8 L226.8 150.7 L227.1 150.8 L227.2 151.0 L227.2 151.0 L227.3 151.7 L227.4 152.0 L227.6 152.3 L228.4 152.9 L228.7 153.1 L228.8 153.4 L228.8 153.7 L228.7 154.5 L228.6 154.7 L228.5 154.7 L228.4 154.6 L228.3 154.6 L228.1 154.7 L228.0 154.9 L228.0 155.5 L227.9 155.8 L227.7 156.1 L227.6 156.2 L227.3 156.4 L227.3 156.5 L227.3 156.7 L227.4 157.0 L227.4 157.2 L227.2 157.4 L226.9 157.4 L226.4 157.4 L226.1 157.4 L225.8 157.5 L225.3 157.6 L225.0 157.7 L224.8 157.8 L224.8 158.1 L224.9 158.4 L224.9 158.6 L225.0 158.9 L225.1 159.1 L225.3 159.2 L225.6 159.4 L226.7 160.2 L226.9 160.3 L226.8 160.5 L226.5 160.9 L225.8 161.6 L225.6 161.8 L225.7 162.1 L225.9 162.4 L226.0 162.7 L225.8 162.9 L225.9 163.1 L226.1 163.2 L226.2 163.4 L226.2 163.7 L225.9 163.9 L225.3 164.7 L225.0 164.8 L224.9 165.0 L224.8 165.4 L224.7 165.5 L224.6 165.7 L224.5 165.8 L224.5 165.9 L224.5 166.1 L224.5 166.3 L224.5 166.4 L224.3 166.6 L224.0 166.6 L223.6 166.4 L223.3 166.3 L223.1 166.3 L222.8 166.0 L222.3 165.6 L221.9 165.6 L221.7 165.8 L221.3 166.3 L221.2 166.3 L221.0 166.5 L221.0 166.6 L220.9 166.7 L220.9 167.0 L220.7 167.4 L220.6 167.5 L220.3 167.4 L220.3 167.4 L220.3 167.4 L220.3 167.4 L220.0 167.4 L219.8 167.7 L219.7 168.0 L219.6 168.3 L219.1 168.7 L218.5 169.1 L218.1 169.2 L217.9 169.1 L217.8 168.9 L217.5 168.6 L217.3 168.5 L217.2 168.5 L217.2 168.6 L216.7 169.3 L216.3 169.8 L216.2 169.9 L216.0 169.9 L215.8 170.4 L215.8 170.5 L215.7 170.6 L215.5 170.6 L215.3 170.6 L215.0 170.4 L214.8 170.3 L214.6 170.4 L214.5 170.4 L214.4 170.5 L213.7 170.9 L213.5 170.9 L213.2 170.8 L212.9 170.6 L212.5 170.1 L211.8 169.3 L211.7 169.0 L211.6 168.9 L211.5 168.7 L211.4 168.7 L210.1 168.3 L209.8 168.1 L209.5 168.0 L209.2 167.4 L209.0 167.3 L208.6 167.2 L208.4 167.2 L208.4 167.0 L208.3 166.4 L208.2 166.2 L208.0 165.8 L207.8 165.7 L207.5 166.1 L207.3 166.1 L207.2 166.2 L207.1 166.2 L207.1 166.4 L207.1 166.6 L207.1 166.7 L207.2 166.8 L207.3 166.8 L207.3 166.9 L207.1 166.9 L206.8 166.9 L206.6 166.8 L206.5 166.9 L206.4 167.0 L206.4 167.1 L206.4 167.3 L206.6 167.4 L206.5 167.5 L206.4 167.6 L206.3 167.6 L206.2 168.0 L205.7 168.2 L204.7 168.3 L204.6 168.3 L204.4 168.4 L204.1 168.4 L203.9 168.3 L202.8 167.7 L202.7 167.5 L202.5 167.9 L202.4 168.8 L202.2 169.2 L202.0 169.6 L201.7 169.7 L201.3 169.8 L200.7 169.7 L200.3 169.7 L200.0 169.7 L199.8 169.7 L199.7 169.7 L199.6 169.8 L199.6 170.0 L199.5 170.1 L199.2 170.1 L198.4 169.9 L198.1 169.8 L198.0 170.0 L197.9 170.2 L198.0 170.4 L198.1 170.6 L198.4 170.9 L198.6 171.2 L198.7 171.5 L198.6 172.0 L198.8 172.4 L199.0 172.6 L199.6 173.0 L199.9 173.3 L200.4 174.4 L200.6 174.6 L200.9 174.9 L201.2 175.1 L201.2 175.5 L201.1 175.8 L200.8 176.1 L200.5 176.3 L200.2 176.5 L200.0 176.8 L200.1 177.7 L199.8 178.0 L199.4 178.0 L198.5 177.8 L198.1 177.7 L197.6 177.9 L197.2 178.0 L196.7 177.9 L196.6 177.8 L196.2 177.6 L194.7 176.3 L194.4 175.8 L194.1 175.3 L193.9 174.9 L193.4 174.6 L193.2 174.6 L192.8 174.7 L192.5 174.6 L192.2 174.5 L192.0 174.4 L191.9 174.4 L191.6 174.6 L191.4 174.3 L191.2 174.0 L190.8 173.8 L190.6 174.0 L190.4 173.8 L190.3 173.7 L190.2 173.6 L190.0 173.5 L189.5 173.8 L189.3 174.0 L189.0 174.1 L188.5 174.3 L188.0 174.5 L187.5 174.6 L187.0 174.6 L186.7 174.5 L186.5 174.5 L186.3 174.3 L185.9 173.7 L185.7 173.6 L185.5 173.5 L185.4 173.5 L185.0 173.1 L183.9 171.5 L183.8 171.2 L183.7 170.8 L183.7 170.2 L184.0 170.2 L184.9 170.0 L185.2 169.8 L185.4 169.7 L185.6 169.3 L185.7 169.2 L185.9 169.2 L186.2 169.4 L186.4 169.5 L186.5 169.4 L186.9 169.0 L187.0 168.9 L187.2 168.9 L187.7 168.8 L187.9 168.7 L188.0 168.6 L188.1 168.1 L188.2 168.0 L188.4 167.8 L188.8 167.4 L189.4 166.7 L189.6 166.2 L189.6 165.7 L189.4 164.5 L189.4 163.9 L189.5 163.1 L189.5 162.9 L189.3 162.6 L189.2 162.2 L189.3 161.8 L189.5 161.4 L189.6 161.4 L189.8 161.3 L189.9 161.2 L189.9 161.1 L189.7 160.9 L189.7 160.6 L189.8 160.5 L189.8 160.5 L190.1 160.5 L190.2 160.5 L190.4 160.1 L190.1 159.5 L190.2 159.1 L191.0 158.7 L191.1 158.4 L190.6 158.4 L190.6 158.4 L190.6 158.4 L190.4 158.2 L189.9 157.4 L189.9 157.4 L189.9 157.2 L189.8 157.1 L189.7 157.1 L189.5 157.1 L189.4 157.1 L189.0 156.6 L188.6 156.6 L188.4 156.3 L188.4 155.8 L188.5 155.5 L188.6 155.1 L188.8 154.8 L189.5 154.1 L190.0 153.7 L190.5 153.4 L190.6 153.3 L190.6 152.8 L190.6 152.4 L190.5 152.4 L190.1 152.4 L189.8 152.4 L189.4 152.4 L189.1 152.2 L189.0 151.9 L189.2 151.5 L189.6 151.2 L190.4 151.0 L191.0 150.6 L191.1 150.5 L191.3 150.3 L191.4 150.0 L191.5 149.2 L191.6 148.8 L192.0 147.7 L192.2 146.7 L192.0 145.9 L191.5 145.2 L190.7 144.7 L189.9 144.4 L189.5 144.4 L188.8 144.4 L188.5 144.4 L188.3 144.3 L188.0 144.0 L187.8 143.7 L187.1 142.2 L186.9 141.6 L186.9 140.9 L187.4 140.5 L187.8 140.3 L188.0 140.2 L188.1 140.1 L188.0 140.0 L188.0 139.9 L187.9 139.8 L187.7 139.8 L185.6 139.2 L184.8 139.2 L184.7 139.2 L182.3 138.4 L181.8 138.2 L181.4 137.9 L181.1 137.5 L180.9 137.1 L180.9 136.6 L180.9 135.8 L180.8 135.4 L180.6 135.1 L180.5 134.9 L180.1 134.8 L180.0 134.7 L179.8 134.6 L179.5 134.2 L179.3 134.1 L178.8 133.8 L178.7 133.7 L178.6 133.5 L178.5 133.3 L178.3 132.8 L178.2 132.4 L178.0 132.1 L177.7 131.8 L177.4 131.6 L176.4 131.1 L176.1 130.8 L175.9 130.5 L175.8 130.1 L175.8 129.7 L175.9 128.9 L176.1 128.2 L176.3 127.5 L176.3 127.3 L176.3 127.1 L175.9 125.6 L175.9 125.4 L175.9 125.2 L176.0 125.2 L176.1 124.7 L176.1 124.5 L176.1 124.3 L176.0 124.1 L175.9 123.7 L175.8 123.5 L175.7 122.9 L175.6 121.9 L175.7 121.5 L176.9 118.8 L177.0 118.4 L177.0 117.6 L177.0 116.5 L177.1 115.6 L177.1 115.4 L177.0 115.1 L176.6 114.2 L176.5 114.1 L176.4 114.0 L176.1 113.8 L175.9 113.7 L175.8 113.6 L175.5 113.1 L175.2 112.6 L174.9 112.3 L174.1 111.8 L173.7 111.7 L170.9 110.3 L170.4 109.8 L169.8 109.2 L169.8 109.1 L169.7 108.7 L169.6 108.6 L169.5 108.5 L169.3 108.2 L168.9 107.4 L168.6 107.0 L167.4 106.3 L167.3 106.3 L167.2 106.2 L167.1 106.0 L167.0 105.8 L166.8 105.3 L166.0 103.6 L165.9 103.4 L165.8 103.3 L164.6 102.3 L164.4 102.0 L164.2 101.7 L163.4 99.8 L162.5 98.3 L162.2 98.0 L161.7 97.7 L161.3 97.7 L160.9 97.8 L160.5 98.0 L160.2 98.3 L160.2 98.4 L160.1 98.5 L160.0 98.6 L159.9 98.6 L159.6 98.5 L159.4 98.4 L159.3 98.1 L159.1 97.9 L158.8 97.7 L158.6 97.6 L158.3 97.5 L157.9 97.4 L156.9 97.4 L156.6 97.3 L155.6 96.9 L155.4 96.8 L155.3 96.6 L155.0 96.5 L154.0 96.2 L153.5 96.1 L153.0 96.0 L152.9 96.0 L152.6 96.1 L152.5 96.1 L152.2 96.0 L151.2 95.7 L151.0 95.7 L149.6 96.0 L149.1 96.2 L148.7 96.5 L148.4 96.8 L148.2 97.3 L148.2 97.4 L148.3 97.5 L148.3 97.5 L148.4 97.6 L148.5 97.7 L149.3 98.2 L149.4 98.3 L149.4 98.5 L149.2 98.6 L149.0 98.7 L148.3 98.8 L147.9 99.0 L147.4 99.1 L147.2 99.1 L147.0 99.2 L146.8 99.4 L146.7 99.7 L146.6 100.3 L146.5 100.7 L146.3 101.0 L146.0 101.2 L145.6 101.3 L145.6 101.3 L145.6 101.3 L145.6 101.3 L145.7 101.2 L145.7 101.2 L145.6 101.2 L145.4 101.3 L145.3 101.5 L145.2 101.7 L145.2 102.0 L145.3 103.1 L145.2 103.3 L145.0 103.4 L144.9 103.6 L144.7 103.9 L144.4 104.0 L144.1 103.9 L143.5 103.6 L143.2 103.5 L142.9 103.6 L141.3 104.2 L141.0 104.4 L140.9 104.6 L139.9 105.1 L139.2 105.7 L138.9 105.9 L138.3 106.0 L138.0 106.2 L137.9 106.5 L138.0 106.8 L138.2 107.1 L138.2 107.2 L137.8 107.1 L136.9 106.7 L136.6 106.6 L136.6 106.5 L136.9 105.3 L136.7 104.6 L136.1 104.3 L134.6 104.3 L133.9 104.1 L133.3 103.8 L132.8 103.4 L132.5 103.0 L131.9 103.1 L131.4 102.8 L130.5 102.0 L130.0 101.5 L129.9 101.4 L129.8 101.3 L129.3 101.0 L129.1 100.7 L129.1 100.4 L128.9 100.1 L128.6 99.9 L127.8 99.9 L127.2 99.9 L127.1 99.9 L126.8 100.2 L124.1 103.1 L123.7 103.2 L123.0 102.8 L122.3 102.6 L122.1 102.4 L122.0 102.4 L121.7 102.7 L121.5 103.0 L121.4 103.8 L120.9 105.0 L120.9 105.3 L119.2 105.7 L118.9 105.8 L118.7 106.2 L118.5 106.4 L118.1 106.1 L118.1 106.4 L118.1 106.7 L118.0 106.9 L117.9 107.0 L117.5 107.1 L117.3 107.2 L117.7 107.5 L117.4 107.8 L116.8 108.0 L116.4 108.4 L116.3 108.5 L116.2 108.6 L116.2 108.8 L116.1 108.8 L116.0 108.5 L115.9 108.4 L115.9 108.3 L115.9 108.3 L115.8 108.3 L115.7 108.4 L115.5 108.6 L115.2 108.6 L114.9 108.6 L114.7 108.7 L114.6 108.8 L114.7 108.9 L114.9 108.9 L115.0 108.9 L115.0 109.0 L114.9 109.1 L114.6 109.5 L114.5 109.5 L114.4 109.5 L114.1 109.6 L112.1 111.2 L111.8 111.6 L111.4 112.3 L111.3 112.4 L111.1 112.5 L110.8 112.5 L110.7 112.6 L110.6 112.9 L110.3 113.3 L110.2 113.4 L110.0 113.5 L110.0 113.5 L109.9 113.5 L109.4 113.3 L108.8 113.0 L108.5 112.9 L108.3 112.6 L108.0 112.3 L107.6 112.1 L107.3 112.0 L106.5 111.8 L105.8 111.7 L105.6 111.5 L105.5 111.1 L105.8 110.7 L106.4 110.0 L106.8 109.2 L106.8 109.1 L106.9 108.7 L106.9 108.4 L106.8 108.2 L106.9 108.0 L107.0 107.9 L107.2 107.8 L107.2 107.8 L107.2 107.7 L107.2 107.7 L107.2 107.7 L107.0 107.5 L107.0 107.4 L107.0 107.3 L107.2 107.2 L107.5 107.1 L107.6 106.8 L107.6 106.2 L107.6 105.8 L107.8 105.6 L108.4 105.3 L108.8 104.9 L109.1 104.5 L109.4 104.0 L109.7 103.5 L109.9 103.4 L110.5 103.0 L110.6 102.8 L110.6 102.5 L110.3 101.8 L110.2 101.5 L110.3 101.2 L110.5 100.5 L110.6 100.2 L110.5 100.0 L110.4 99.9 L110.3 99.9 L110.2 99.8 L110.0 99.4 L110.0 99.3 L110.0 98.6 L110.0 98.4 L110.1 98.3 L110.4 98.0 L110.5 97.9 L110.3 97.6 L109.1 97.1 L109.0 97.0 L108.6 96.6 L108.3 96.3 L108.2 96.0 L108.3 95.6 L108.8 95.1 L108.9 94.7 L109.0 94.5 L109.0 94.5 L110.2 93.8 L110.5 93.6 L110.5 93.4 L110.5 93.0 L110.6 92.8 L110.7 92.7 L111.0 92.6 L111.2 92.5 L111.7 92.1 L111.9 91.8 L112.0 91.5 L111.9 91.2 L111.5 90.8 L111.4 90.5 L111.4 90.2 L111.7 89.6 L111.8 89.3 L111.7 88.2 L111.7 87.8 L111.9 87.5 L112.3 87.0 L112.5 86.8 L112.7 86.2 L112.8 85.9 L113.6 85.2 L113.4 84.6 L112.9 84.1 L112.1 83.5 L111.9 83.2 L111.8 82.9 L111.7 82.5 L111.8 81.5 L111.4 79.9 L111.4 79.8 L111.5 79.7 L111.5 79.6 L111.4 79.5 L111.3 79.4 L111.0 79.3 L110.9 79.3 L110.8 78.7 L110.9 78.0 L111.1 77.3 L111.5 77.1 L112.0 77.0 L112.2 76.6 L112.3 76.1 L112.3 75.6 L112.2 75.4 L112.1 75.2 L112.0 75.0 L111.7 74.9 L111.4 74.8 L111.2 74.9 L111.1 75.0 L110.8 75.1 L110.4 75.2 L109.9 75.3 L109.4 75.2 L108.9 75.1 L108.1 74.6 L107.7 74.5 L107.2 74.4 L105.5 74.4 L105.4 74.4 L105.3 74.4 L105.2 74.5 L105.1 74.6 L104.9 75.0 L104.1 75.8 L103.3 76.6 L103.1 76.8 L103.0 76.7 L102.9 76.6 L102.7 76.4 L102.4 76.2 L101.0 75.7 L100.5 75.7 L100.1 76.0 L99.9 76.3 L99.7 76.5 L99.4 76.6 L98.9 76.4 L98.4 76.2 L98.1 76.0 L97.8 75.8 L97.8 75.5 L97.8 75.2 L97.7 74.9 L97.6 74.7 L97.2 74.3 L97.1 74.0 L97.0 73.7 L96.9 73.1 L96.9 72.8 L96.7 72.6 L96.5 72.4 L96.4 72.3 L96.3 72.0 L96.4 71.7 L96.9 71.1 L97.1 70.8 L97.3 70.3 L97.4 70.2 L97.6 70.1 L97.9 69.9 L98.1 69.8 L98.2 69.5 L98.3 69.3 L98.4 68.6 L98.9 67.5 L99.3 66.2 L99.5 65.4 L99.4 64.5 L99.4 64.3 L99.3 64.3 L99.2 64.6 L99.1 64.7 L98.8 64.6 L98.5 64.4 L98.3 64.2 L98.3 64.1 L98.0 64.0 L97.8 63.9 L97.8 63.8 L97.7 63.6 L97.6 63.4 L97.1 62.8 L96.1 60.7 L95.7 60.3 L95.0 60.1 L94.4 60.3 L93.8 60.6 L93.5 61.0 L93.2 61.7 L93.2 61.7 L93.1 61.7 L92.7 61.9 L92.7 61.9 L92.5 62.1 L92.5 62.8 L92.2 63.0 L91.9 63.0 L91.6 62.9 L91.3 62.6 L91.2 62.2 L91.3 61.6 L91.2 61.3 L91.2 61.0 L91.3 60.8 L91.5 60.6 L91.6 60.3 L91.7 60.0 L91.8 59.6 L91.9 59.0 L92.2 57.4 L92.4 56.8 L92.6 56.3 L92.6 56.1 L92.7 55.8 L93.1 55.2 L93.2 55.0 L93.3 54.7 L93.5 54.5 L94.0 54.1 L94.4 53.5 L94.7 53.3 L95.4 53.1 L95.7 52.8 L95.8 52.6 L96.1 52.3 L96.4 52.3 L98.0 52.5 L98.8 52.7 L99.2 52.7 L99.8 52.5 L100.3 52.2 L100.5 52.1 L100.8 51.9 L101.3 51.4 L101.3 51.3 L100.8 51.2 L99.2 51.5 L98.8 51.3 L98.9 50.9 L99.0 50.2 L99.1 49.8 L99.1 49.7 L99.5 49.5 L99.6 49.3 L99.6 49.2 L99.3 48.7 L99.7 48.6 L100.5 48.4 L100.8 48.2 L101.0 47.9 L102.0 46.3 L102.6 44.1 L102.6 43.9 L102.6 43.7 L102.6 43.5 L102.9 43.5 L103.0 43.5 L103.2 43.5 L103.4 43.6 L103.5 43.7 L103.8 43.8 L104.3 43.7 L104.9 43.5 L105.1 43.3 L105.7 42.7 L106.0 42.7 L107.7 41.8 L110.2 39.9 L110.5 39.8 L110.6 39.5 L110.5 39.2 L110.8 39.2 L111.0 39.5 L111.0 40.0 L110.7 41.5 L110.7 41.9 L110.9 42.0 L111.4 42.2 L111.7 42.5 L111.8 42.4 L111.9 42.4 L111.9 42.6 L111.7 43.1 L111.4 43.5 L111.4 43.6 L111.6 43.7 L111.6 43.8 L111.6 44.1 L111.4 44.7 L111.6 45.0 L111.9 45.4 L112.1 45.7 L112.3 45.9 L112.6 46.0 L112.9 46.0 L113.3 45.8 L114.2 45.3 L114.6 45.2 L116.6 44.8 L117.0 44.8 L117.4 44.9 L118.0 45.1 L118.2 45.1 L118.2 45.1 L118.3 45.3 L118.3 45.5 L118.2 45.7 L118.1 45.8 L118.2 46.0 L118.5 46.0 L119.2 45.8 L119.5 45.8 L119.8 46.0 L120.1 46.5 L120.4 46.7 L120.7 46.8 L121.0 46.7 L121.4 46.6 L121.6 46.5 L121.6 46.3 L121.6 46.1 L121.5 45.8 L121.4 45.6 L121.7 45.4 L122.1 45.5 L122.3 45.5 L122.4 45.4 L122.5 45.3 L122.6 45.2 L122.6 45.1 L122.6 44.9 L122.5 44.7 L122.4 44.5 L122.2 44.3 L122.0 44.2 L121.0 43.9 L120.8 43.7 L120.6 43.4 L120.6 43.1 L120.8 42.4 L120.9 40.6 L121.2 40.2 L121.2 39.8 L121.0 39.1 L121.0 38.8 L121.3 38.7 L121.7 38.6 L122.1 38.5 L122.3 38.2 L122.2 37.8 L122.0 37.7 L121.6 37.6 L121.4 37.4 L121.3 37.2 L121.4 36.8 L121.3 36.7 L121.2 36.5 L120.9 36.3 L120.9 36.2 L120.9 35.9 L120.9 35.6 L121.3 34.5 L121.3 34.4 L120.8 34.0 L120.7 33.8 L120.5 33.4 L120.1 32.9 L120.0 32.7 L120.0 32.6 L120.0 32.4 L119.9 32.3 L119.2 32.1 L118.8 31.9 L118.7 31.6 L118.5 30.9 L118.4 30.5 L117.9 29.8 L117.7 29.4 L117.7 29.0 L117.8 28.7 L117.9 28.3 L117.8 27.8 L117.6 27.5 L117.0 26.9 L117.0 26.6 L117.3 26.2 L117.5 26.1 L117.6 26.0 L117.9 26.0 L118.1 26.1 L118.3 26.1 L118.6 26.0 L118.6 25.8 L118.9 25.1 L118.9 24.8 L119.0 24.7 L119.3 24.4 L119.3 24.4 L119.4 24.0 L119.3 23.7 L119.4 23.3 L119.5 22.9 L119.8 22.6 L120.2 22.3 L120.6 22.1 L121.1 22.0 L121.3 22.0 L121.4 22.0 L121.9 22.4 L122.5 23.6 L122.9 24.0 L123.4 24.1 L123.6 23.9 L123.7 23.5 L123.8 23.2 L124.2 23.1 L125.0 23.1 L125.3 22.9 L125.7 22.9 L126.1 22.9 L127.2 23.2 L127.4 23.2 L127.5 23.3 L127.6 23.5 L127.6 23.6 L127.8 23.8 L128.0 23.8 Z" fill="#172033" fill-rule="evenodd"/></svg>
