<svg xmlns="http://www.w3.org/2000/svg" viewBox="0 0 320 200" role="img"><path d="M88.6 174.8 L88.6 174.6 L88.7 174.2 L88.3 174.3 L88.2 174.2 L88.2 173.9 L88.1 173.6 L88.7 172.6 L89.5 171.5 L90.6 170.6 L92.7 169.9 L93.4 168.9 L94.0 167.9 L94.6 167.0 L94.0 166.4 L94.6 166.3 L94.9 166.4 L95.3 167.0 L98.1 161.8 L98.6 159.0 L96.6 156.5 L98.6 155.3 L100.1 153.5 L101.9 149.3 L102.1 148.1 L102.2 145.5 L102.5 144.1 L104.3 142.0 L104.9 140.8 L104.5 139.6 L109.4 136.4 L111.9 134.2 L113.0 131.4 L113.2 130.1 L116.9 121.8 L116.3 121.2 L117.8 120.1 L118.9 116.2 L120.5 115.3 L120.4 114.2 L124.2 106.5 L124.6 104.6 L124.7 100.6 L124.8 99.9 L124.5 98.8 L123.9 97.9 L123.5 97.1 L124.1 96.3 L125.1 96.0 L126.3 96.2 L127.4 96.6 L128.0 97.0 L128.7 97.0 L129.6 96.6 L131.0 96.7 L131.9 96.7 L133.3 96.3 L133.9 95.7 L134.8 93.8 L135.3 93.0 L135.3 92.6 L135.2 92.5 L134.6 92.4 L135.4 91.6 L136.5 89.3 L137.2 88.4 L137.8 88.2 L139.4 88.2 L139.8 87.8 L139.8 86.9 L139.3 86.5 L138.8 86.2 L138.5 85.8 L138.5 83.5 L140.1 79.3 L140.5 76.3 L140.2 75.2 L138.8 73.1 L138.5 71.8 L138.5 68.5 L138.8 67.8 L140.2 67.0 L140.5 66.5 L140.5 63.5 L141.0 60.5 L142.2 58.0 L144.4 56.3 L146.0 57.5 L147.6 55.5 L149.1 52.4 L150.3 50.5 L155.6 48.1 L157.3 46.2 L155.6 43.9 L155.6 43.3 L157.3 43.7 L164.9 42.0 L170.0 38.0 L171.6 37.1 L172.6 36.2 L173.1 34.9 L173.2 30.4 L172.9 28.4 L172.3 26.7 L171.3 25.6 L172.5 25.6 L173.3 25.8 L174.0 26.0 L175.7 27.2 L177.8 27.7 L180.0 27.7 L182.5 27.4 L184.9 27.5 L189.1 27.8 L189.5 27.7 L190.6 27.1 L191.2 27.0 L191.7 27.2 L192.8 27.9 L193.4 28.0 L199.2 27.8 L200.1 27.4 L201.0 26.6 L201.3 25.7 L201.4 23.9 L201.7 23.1 L203.7 22.0 L205.1 22.8 L207.4 26.1 L209.3 27.6 L211.6 28.2 L213.9 28.2 L216.2 27.6 L215.9 30.6 L215.2 31.0 L214.2 30.3 L212.8 30.0 L211.3 30.7 L211.1 31.9 L211.3 33.3 L210.8 34.8 L209.0 36.0 L206.3 37.2 L204.7 38.6 L205.7 40.1 L206.0 40.5 L206.2 40.6 L206.5 40.6 L206.8 40.6 L207.0 40.5 L208.9 40.0 L211.7 39.9 L214.3 40.1 L215.6 40.5 L215.6 40.5 L216.2 42.1 L217.2 43.3 L218.4 44.2 L220.1 44.8 L221.4 46.2 L222.1 46.6 L222.8 46.4 L224.4 47.3 L224.9 48.1 L224.8 49.2 L224.5 50.8 L224.2 51.4 L223.9 51.9 L223.6 52.4 L223.5 53.2 L223.7 53.9 L224.2 54.7 L226.3 57.1 L227.3 58.0 L228.0 58.2 L228.7 58.2 L229.3 58.3 L229.8 59.1 L229.6 60.3 L228.7 61.4 L228.0 62.6 L228.4 64.4 L229.0 65.8 L231.3 67.7 L231.9 68.6 L231.9 68.7 L229.2 71.2 L227.0 74.2 L222.7 77.3 L220.9 79.2 L220.3 80.6 L220.1 81.7 L219.6 82.6 L218.0 83.3 L216.7 83.3 L214.7 82.7 L213.6 82.6 L211.5 83.4 L208.4 86.8 L204.6 89.6 L203.1 91.1 L201.7 92.8 L199.7 96.3 L199.9 96.6 L200.5 97.5 L201.1 98.1 L203.9 100.0 L207.7 100.5 L209.3 101.3 L209.5 103.3 L208.3 104.6 L206.5 104.8 L202.9 104.1 L198.0 102.1 L196.3 101.8 L194.9 102.3 L193.5 103.2 L192.0 104.0 L190.0 104.0 L189.2 103.6 L188.0 102.3 L187.4 102.0 L184.0 103.8 L182.3 104.4 L180.5 104.7 L179.0 105.3 L178.0 106.3 L176.7 108.3 L173.6 110.6 L172.3 112.2 L171.7 113.3 L169.9 114.7 L169.2 115.5 L169.1 116.3 L169.4 118.1 L169.1 119.0 L168.7 119.3 L167.4 119.7 L167.0 120.1 L166.7 122.1 L167.9 122.8 L170.0 123.1 L172.3 124.1 L173.6 124.5 L175.4 125.2 L177.0 126.2 L177.8 127.3 L177.5 129.0 L176.1 130.5 L174.1 131.6 L172.3 132.3 L170.0 132.2 L167.8 132.9 L166.7 134.1 L168.0 136.1 L166.5 139.1 L163.5 141.2 L161.7 142.1 L159.4 143.3 L157.1 144.4 L155.6 145.9 L153.7 149.1 L152.1 150.6 L151.0 151.2 L149.7 151.7 L148.3 152.0 L147.0 152.1 L145.3 152.5 L141.7 155.7 L140.9 156.9 L138.9 157.1 L137.8 157.5 L137.7 158.8 L136.4 160.0 L136.4 160.0 L136.3 160.3 L136.3 160.4 L135.7 160.0 L135.7 160.0 L135.7 160.0 L134.5 159.2 L132.8 156.9 L132.2 156.3 L131.1 156.5 L130.5 157.4 L129.9 158.7 L129.0 160.0 L128.3 162.1 L128.1 166.8 L127.5 169.2 L126.7 170.8 L124.9 173.5 L124.5 175.0 L121.5 175.2 L117.0 176.8 L111.6 178.0 L110.3 177.8 L109.4 176.9 L108.7 175.7 L107.8 174.8 L106.7 174.0 L106.2 173.8 L105.7 173.6 L104.5 173.6 L101.0 174.6 L100.3 174.6 L98.9 174.3 L98.4 174.3 L97.8 174.4 L96.7 175.1 L96.3 175.3 L88.6 174.8 Z" fill="#172033" fill-rule="evenodd"/></svg>
