<svg xmlns="http://www.w3.org/2000/svg" viewBox="0 0 320 200" role="img"><path d="M196.9 62.0 L198.4 73.6 L198.4 83.8 L193.6 114.1 L194.8 131.4 L189.9 150.7 L188.8 153.4 L187.7 153.9 L182.7 155.2 L181.1 156.3 L179.2 160.1 L175.7 175.1 L173.2 177.4 L172.0 178.0 L170.1 178.0 L162.9 168.4 L133.5 157.3 L126.9 149.6 L125.7 147.6 L123.3 145.0 L121.8 142.0 L124.5 135.9 L124.9 131.9 L124.5 124.1 L123.9 121.6 L122.7 119.6 L121.8 117.1 L121.6 113.2 L122.6 109.0 L126.2 101.7 L126.9 98.4 L129.1 93.0 L138.5 79.7 L142.0 70.9 L151.5 56.9 L153.6 55.3 L157.4 53.2 L159.4 51.3 L160.3 48.8 L161.8 41.9 L163.4 39.2 L173.0 25.8 L178.6 22.0 L186.2 24.4 L184.4 31.2 L187.0 34.7 L191.3 37.1 L194.5 40.5 L195.6 45.4 L196.9 62.0 Z" fill="#172033" fill-rule="evenodd"/></svg>
