<svg xmlns="http://www.w3.org/2000/svg" viewBox="0 0 320 200" role="img"><path d="M84.3 82.9 L85.5 82.3 L85.8 82.2 L85.7 81.2 L85.9 80.6 L86.9 80.0 L87.2 79.4 L87.5 78.7 L87.5 78.2 L87.4 77.4 L87.5 77.2 L88.3 77.1 L88.6 77.0 L88.8 76.8 L88.9 76.5 L88.8 76.0 L88.2 75.1 L88.1 74.8 L88.3 74.6 L88.9 74.0 L90.2 72.0 L90.8 71.9 L93.9 70.5 L94.2 70.2 L96.6 67.1 L97.3 66.3 L102.8 62.0 L104.3 61.1 L105.7 60.8 L106.2 60.6 L106.6 60.3 L107.0 59.8 L111.9 53.8 L113.3 52.6 L115.1 51.7 L115.3 51.6 L116.2 51.5 L116.1 42.5 L116.1 42.1 L116.3 41.7 L116.6 41.5 L117.6 40.9 L117.9 40.6 L118.8 39.0 L119.4 38.3 L120.2 37.9 L121.0 37.8 L123.9 37.8 L124.7 37.7 L125.4 37.4 L126.1 37.0 L127.1 36.1 L127.2 35.5 L126.9 34.7 L126.6 33.7 L126.7 32.8 L127.3 31.4 L128.5 26.9 L128.5 25.0 L128.9 25.0 L129.3 24.9 L130.0 24.6 L130.3 25.3 L131.0 24.9 L132.2 23.7 L132.8 23.5 L133.5 23.5 L135.6 24.0 L136.1 24.4 L136.4 24.9 L136.0 26.6 L136.2 27.1 L136.6 27.3 L137.4 27.2 L138.9 26.3 L140.4 25.2 L141.0 24.8 L141.6 24.7 L142.2 24.6 L142.9 24.6 L143.1 24.5 L143.6 24.4 L143.8 24.5 L144.0 24.7 L144.2 24.9 L144.5 24.8 L145.2 24.5 L146.1 24.2 L146.1 23.9 L146.0 23.7 L146.0 23.4 L146.2 23.0 L146.5 22.8 L146.7 22.5 L146.7 22.0 L147.3 22.1 L147.7 22.6 L147.9 23.2 L148.1 24.9 L148.3 25.6 L148.7 26.2 L149.2 26.8 L149.3 26.7 L149.4 26.2 L149.4 25.4 L149.9 24.9 L150.6 24.9 L151.4 25.2 L151.8 25.7 L152.0 26.5 L151.7 27.0 L151.3 27.3 L150.9 27.8 L150.9 28.4 L151.2 28.5 L151.7 28.4 L152.4 28.4 L152.7 28.4 L153.0 28.4 L153.3 28.3 L153.4 28.0 L153.7 27.7 L154.0 27.9 L154.5 28.6 L156.3 29.4 L157.0 29.8 L157.3 30.1 L157.4 30.2 L157.0 30.5 L156.8 30.5 L156.6 30.7 L156.4 30.9 L156.0 31.3 L156.3 31.6 L156.5 32.0 L156.6 32.4 L156.8 32.8 L157.0 32.9 L157.1 33.1 L157.0 33.3 L156.8 33.4 L156.5 34.0 L156.2 35.1 L156.3 36.0 L156.8 36.4 L157.7 36.6 L158.1 36.8 L158.2 37.3 L158.2 37.7 L158.9 40.4 L158.8 40.7 L158.4 41.4 L158.4 41.8 L158.8 41.3 L159.2 41.0 L159.6 41.0 L160.0 41.5 L160.2 41.9 L160.3 42.3 L160.2 42.7 L159.9 43.0 L159.9 43.2 L159.4 44.8 L159.3 46.3 L159.7 47.9 L160.5 49.4 L161.5 50.6 L161.8 51.3 L162.8 52.5 L162.4 53.4 L162.0 54.7 L162.1 56.0 L162.8 56.9 L162.4 57.2 L162.1 57.7 L161.9 58.2 L161.7 59.2 L161.5 59.6 L160.8 60.4 L160.9 60.9 L160.6 61.7 L159.8 62.9 L159.0 63.5 L158.7 63.9 L158.5 64.3 L158.5 64.8 L158.4 65.3 L158.2 65.6 L157.8 66.0 L157.9 66.1 L157.9 66.1 L158.2 66.0 L159.3 64.9 L159.7 64.3 L160.4 65.6 L160.8 65.9 L161.4 65.1 L161.6 65.0 L161.8 64.9 L161.9 64.5 L162.0 64.4 L162.4 64.3 L163.0 64.3 L163.5 64.4 L163.8 64.5 L164.1 64.7 L164.4 65.0 L164.6 65.7 L164.8 66.0 L165.4 66.1 L166.7 65.7 L167.2 65.8 L167.8 66.5 L168.3 68.9 L169.2 69.7 L169.4 69.7 L170.2 69.7 L170.5 69.9 L170.5 70.5 L170.8 70.7 L171.5 71.1 L171.6 71.6 L171.3 72.9 L171.7 72.5 L172.0 72.4 L172.2 72.3 L172.7 72.2 L173.2 72.1 L173.7 71.7 L174.2 71.3 L174.7 71.0 L175.3 71.1 L175.6 70.9 L176.4 70.6 L176.6 70.6 L176.7 70.0 L176.9 70.0 L177.3 70.2 L177.5 69.3 L178.0 69.6 L178.7 70.7 L179.2 70.6 L180.8 70.0 L181.2 69.8 L181.4 69.1 L181.2 68.4 L181.0 67.7 L180.9 67.1 L181.1 66.7 L181.4 66.2 L182.1 65.3 L182.4 65.1 L183.0 64.9 L183.3 64.6 L183.5 64.3 L183.5 63.6 L183.7 63.2 L183.9 63.0 L184.9 62.4 L185.5 61.8 L185.9 61.1 L186.1 60.3 L186.0 59.5 L185.9 59.3 L185.7 59.3 L185.6 59.2 L185.6 59.0 L185.6 58.8 L185.8 58.4 L185.9 58.2 L186.0 56.9 L186.2 56.1 L187.2 55.0 L187.5 54.2 L191.9 54.4 L191.7 55.8 L191.9 56.8 L192.6 57.7 L193.8 58.5 L194.9 59.3 L196.5 60.0 L197.2 61.3 L197.9 63.9 L198.4 67.5 L198.6 68.2 L198.8 68.7 L199.4 69.6 L199.7 70.1 L200.0 71.2 L200.1 71.5 L200.6 72.1 L200.7 72.3 L200.7 72.6 L200.7 73.1 L200.7 73.3 L200.8 73.5 L201.4 74.1 L201.6 74.5 L201.7 74.8 L201.8 75.7 L202.4 79.2 L202.3 80.1 L202.0 80.5 L201.3 81.1 L201.1 81.4 L201.0 82.0 L201.1 82.6 L201.0 83.2 L200.6 84.2 L200.7 84.5 L201.0 84.7 L201.2 84.9 L201.2 85.4 L201.2 85.9 L200.9 87.1 L200.4 88.1 L199.9 88.9 L196.6 92.6 L195.8 93.5 L193.2 95.6 L192.7 96.2 L192.6 96.2 L192.0 96.5 L191.9 96.5 L192.0 96.6 L191.8 97.1 L191.7 97.2 L191.5 97.3 L191.1 97.4 L190.9 97.5 L190.0 98.6 L190.6 98.7 L191.0 98.8 L191.9 98.7 L192.3 98.9 L192.7 99.2 L193.8 100.7 L194.5 100.9 L195.0 100.5 L195.3 99.9 L195.4 99.2 L195.6 98.9 L195.8 99.0 L196.3 99.6 L197.4 100.2 L197.9 100.7 L197.9 101.0 L197.6 101.2 L197.4 101.8 L197.5 102.1 L197.8 102.8 L197.9 103.1 L197.7 103.4 L197.4 103.6 L197.2 103.9 L197.7 104.3 L198.1 103.9 L198.5 103.7 L199.0 103.8 L199.4 103.9 L199.8 103.5 L200.2 103.7 L200.6 104.1 L201.0 104.4 L201.1 104.4 L201.3 104.2 L201.4 104.1 L201.7 104.3 L201.9 104.6 L201.9 104.9 L201.9 105.1 L202.0 105.3 L202.3 105.4 L205.2 106.1 L205.6 106.2 L206.0 106.5 L206.3 106.6 L206.6 106.7 L207.2 106.7 L207.7 106.6 L208.5 106.2 L208.9 106.0 L210.7 105.7 L211.7 105.7 L212.3 105.9 L212.9 106.3 L215.3 106.8 L215.5 106.9 L215.7 106.8 L215.8 106.7 L216.1 106.8 L216.1 106.9 L216.2 107.4 L216.3 107.6 L218.0 108.9 L218.6 109.6 L218.7 110.1 L218.2 111.5 L218.0 112.3 L217.9 113.1 L218.0 113.9 L218.4 114.4 L218.4 114.2 L218.8 114.0 L219.2 113.9 L219.6 113.9 L219.9 114.2 L220.1 114.6 L220.2 115.4 L220.3 115.6 L220.5 115.6 L220.7 115.7 L220.8 115.9 L220.7 116.1 L220.4 116.3 L220.3 116.5 L220.3 117.6 L220.3 117.8 L220.8 118.4 L222.2 119.2 L222.7 119.6 L223.4 120.5 L223.9 120.3 L224.3 119.5 L224.7 119.1 L224.9 119.3 L225.4 119.7 L225.9 120.2 L226.6 120.3 L226.6 120.4 L227.4 120.8 L227.5 120.8 L228.3 121.2 L228.5 121.4 L228.2 121.8 L228.4 122.0 L228.9 122.7 L229.2 122.8 L229.6 122.6 L230.1 122.2 L230.4 122.1 L230.2 122.7 L230.8 122.8 L231.1 123.3 L231.2 123.8 L231.6 124.0 L231.9 123.8 L232.1 123.2 L232.2 122.1 L233.4 122.6 L233.5 123.9 L233.3 125.4 L233.3 126.8 L233.9 129.7 L234.4 130.6 L235.2 132.2 L235.7 132.8 L234.9 132.7 L234.6 133.1 L234.8 133.8 L235.3 134.5 L234.6 134.5 L234.3 134.5 L234.7 134.9 L234.8 134.9 L234.6 135.2 L234.2 135.6 L233.9 136.1 L233.9 137.5 L233.7 137.9 L233.2 137.6 L233.2 138.2 L233.4 138.9 L233.6 139.5 L234.0 140.0 L234.5 140.3 L234.9 140.2 L235.2 140.3 L235.4 141.0 L235.5 141.7 L235.5 142.1 L235.2 142.5 L234.8 143.1 L234.7 143.4 L234.6 144.0 L234.4 144.2 L234.0 144.4 L233.9 144.2 L233.9 144.0 L233.8 143.7 L233.8 143.5 L234.0 143.3 L234.0 143.2 L233.6 143.1 L233.5 143.2 L232.6 143.7 L232.3 144.1 L232.1 144.4 L231.7 145.6 L232.0 147.4 L232.0 148.0 L231.8 148.7 L230.8 150.5 L230.3 150.3 L229.7 150.2 L229.0 150.5 L228.6 151.2 L228.5 151.8 L228.8 154.0 L228.8 154.0 L228.7 154.8 L229.0 155.3 L229.3 155.8 L229.5 156.5 L229.6 157.0 L229.4 157.0 L229.1 156.8 L228.6 156.8 L227.5 157.7 L227.5 158.0 L227.7 159.1 L227.7 159.6 L227.5 160.3 L227.5 160.6 L227.5 160.7 L227.6 161.1 L227.9 161.4 L228.2 161.6 L228.4 161.8 L228.5 162.2 L228.7 164.1 L228.5 172.0 L228.6 172.3 L228.7 172.7 L228.8 173.1 L228.7 174.0 L229.0 174.7 L229.0 175.1 L228.9 175.5 L228.5 176.1 L228.5 176.5 L228.7 177.0 L229.9 177.8 L229.9 177.8 L227.9 178.0 L227.4 177.9 L226.5 177.6 L226.0 177.5 L223.5 177.5 L223.2 177.4 L223.0 177.1 L222.9 176.8 L222.8 176.7 L222.2 176.7 L220.7 176.1 L220.3 175.8 L219.8 175.5 L219.6 175.0 L219.4 174.5 L219.1 174.1 L218.0 173.8 L217.1 173.1 L216.7 172.9 L216.1 172.8 L215.7 172.7 L215.4 172.4 L215.0 172.2 L214.4 171.9 L212.8 171.5 L211.5 171.3 L209.2 170.4 L204.7 169.8 L203.4 169.4 L201.8 167.6 L201.2 167.4 L200.5 167.2 L196.7 165.8 L192.6 162.9 L190.4 161.7 L185.3 159.9 L184.1 159.2 L181.5 157.1 L180.6 156.4 L179.4 155.9 L179.0 155.8 L178.3 155.5 L177.1 155.3 L176.2 155.1 L175.4 154.7 L174.7 154.2 L174.8 154.1 L174.9 154.1 L174.9 154.0 L175.0 153.9 L173.3 153.5 L172.0 152.7 L169.9 150.9 L169.3 150.5 L168.0 149.9 L166.9 149.0 L166.2 148.8 L165.6 148.5 L165.1 147.8 L165.6 147.8 L165.1 147.1 L164.4 146.7 L163.5 146.4 L162.8 146.0 L158.5 142.0 L158.2 141.5 L157.8 140.1 L157.5 139.5 L157.1 139.1 L156.5 138.7 L155.9 138.3 L155.3 138.2 L155.2 138.1 L154.2 137.9 L154.0 137.9 L153.9 137.6 L154.3 137.0 L154.4 136.7 L153.8 135.8 L150.1 133.7 L144.8 128.5 L139.7 124.3 L138.4 122.9 L138.1 122.6 L137.4 122.3 L137.2 122.0 L137.1 121.6 L137.3 121.1 L137.2 120.7 L136.9 120.1 L136.3 119.7 L135.6 119.3 L135.1 119.2 L134.7 119.0 L132.1 116.9 L130.5 115.3 L128.6 114.0 L127.9 113.7 L126.5 113.5 L125.8 113.1 L125.5 112.6 L125.6 112.1 L125.9 112.3 L126.2 112.3 L126.4 112.2 L126.6 111.8 L125.8 111.7 L125.3 111.3 L124.8 110.8 L124.3 110.3 L123.1 109.6 L122.5 109.3 L121.8 109.3 L121.8 109.6 L123.7 110.6 L124.5 111.2 L124.8 112.1 L124.2 111.4 L123.2 110.8 L122.0 110.3 L114.5 108.5 L109.8 106.0 L109.0 105.4 L109.3 104.8 L109.5 105.1 L109.7 105.3 L110.0 105.4 L110.4 105.5 L109.7 104.5 L109.6 103.6 L110.0 102.8 L110.8 101.9 L110.3 101.9 L109.9 102.0 L109.6 102.2 L109.3 102.5 L108.4 100.7 L107.2 99.4 L105.8 98.4 L100.0 95.3 L93.3 92.9 L88.9 90.9 L88.1 90.0 L88.0 88.5 L88.3 87.7 L88.3 87.4 L88.3 86.9 L87.8 85.9 L87.7 85.7 L87.0 85.5 L86.3 85.1 L85.6 84.6 L85.3 84.2 L84.3 82.9 Z" fill="#172033" fill-rule="evenodd"/></svg>
