<svg xmlns="http://www.w3.org/2000/svg" viewBox="0 0 320 200" role="img"><path d="M94.8 22.0 L95.1 22.0 L95.5 22.2 L95.6 22.3 L95.8 22.6 L96.0 22.7 L96.3 22.8 L97.7 23.0 L98.1 23.1 L97.9 22.9 L97.1 22.7 L97.0 22.5 L97.5 22.8 L98.7 23.1 L101.4 24.5 L101.9 25.0 L102.3 25.1 L103.0 25.5 L103.9 25.9 L104.5 26.0 L108.8 26.4 L109.9 26.3 L112.7 25.6 L113.2 25.4 L113.6 25.2 L113.8 25.1 L114.0 25.0 L114.8 25.0 L115.9 25.2 L116.0 25.2 L116.1 25.3 L118.4 26.3 L118.9 26.4 L120.9 26.3 L121.3 26.4 L122.3 26.7 L123.2 27.0 L125.3 27.3 L125.4 27.3 L125.6 27.5 L125.7 27.5 L125.9 27.6 L126.3 27.9 L126.9 28.3 L127.9 29.0 L128.4 29.5 L128.6 29.5 L130.5 29.8 L130.7 29.9 L130.8 30.0 L131.3 30.3 L131.6 30.3 L133.7 30.4 L136.0 30.8 L136.5 30.9 L136.8 31.0 L136.9 31.0 L137.3 31.5 L137.8 31.7 L137.9 31.8 L138.0 32.3 L138.1 32.5 L138.4 32.9 L138.8 33.5 L138.9 33.7 L138.9 33.9 L138.8 34.3 L138.7 34.8 L138.7 35.0 L138.8 35.9 L138.9 36.3 L140.3 39.3 L140.5 39.7 L141.8 41.2 L142.5 41.9 L143.4 42.4 L146.6 43.7 L150.2 44.3 L154.4 44.3 L156.8 44.8 L159.3 45.5 L161.2 45.9 L161.6 45.9 L161.8 45.9 L161.8 46.0 L162.2 46.2 L162.6 46.4 L162.7 46.5 L162.8 46.5 L164.5 46.9 L165.4 47.3 L166.3 47.6 L167.2 47.7 L167.3 47.8 L167.6 48.3 L167.8 48.4 L168.0 48.5 L169.1 48.7 L170.9 49.3 L171.3 49.5 L171.6 49.8 L172.6 50.8 L175.4 52.6 L176.0 53.2 L176.3 53.4 L177.1 53.8 L177.6 53.9 L177.8 54.0 L179.4 54.9 L179.9 55.1 L180.9 55.2 L181.9 55.2 L183.0 55.1 L183.6 55.0 L184.1 54.9 L185.1 54.5 L186.3 53.7 L186.6 53.6 L187.1 53.6 L187.3 53.5 L188.8 52.4 L190.7 50.5 L191.2 49.7 L191.5 49.4 L191.9 49.1 L192.1 48.9 L192.8 47.6 L193.3 46.3 L193.4 45.9 L193.3 44.4 L193.1 44.1 L192.9 43.3 L192.6 43.0 L192.1 42.6 L191.9 42.3 L191.2 40.5 L191.1 40.0 L191.1 39.5 L191.0 39.3 L190.8 38.9 L190.8 38.7 L190.7 38.2 L190.8 37.7 L190.9 36.7 L191.1 36.3 L191.1 36.2 L191.0 36.1 L191.0 35.9 L191.0 35.8 L191.2 35.7 L192.2 33.8 L192.5 33.5 L194.7 31.6 L194.8 31.4 L195.4 30.8 L195.6 30.7 L196.1 30.5 L196.3 30.4 L196.4 30.2 L198.1 29.1 L200.8 28.1 L202.3 27.2 L203.7 26.7 L204.2 26.6 L206.3 26.7 L206.9 26.6 L207.8 26.4 L208.3 26.2 L210.0 24.9 L210.2 24.8 L210.7 24.8 L211.2 24.6 L211.6 24.9 L212.0 25.0 L212.6 25.1 L213.1 25.2 L215.6 24.9 L215.6 24.9 L215.7 24.7 L215.8 24.7 L216.1 24.7 L216.2 24.7 L216.3 24.7 L216.4 24.8 L216.4 24.8 L216.4 24.9 L216.5 25.0 L216.8 25.3 L217.3 25.4 L218.3 25.4 L218.8 25.5 L219.9 26.3 L220.1 26.4 L220.3 26.4 L220.5 26.5 L221.1 26.5 L223.7 27.2 L224.4 27.6 L224.6 27.6 L224.7 27.6 L225.1 27.8 L225.2 27.8 L225.6 27.8 L225.9 27.8 L226.3 28.0 L226.9 28.1 L227.1 28.2 L227.2 28.3 L227.3 28.5 L227.2 28.6 L227.0 28.8 L226.9 28.9 L227.1 29.6 L227.2 29.8 L227.3 29.9 L227.6 30.0 L227.5 30.2 L227.3 31.0 L227.1 30.9 L227.2 30.8 L227.1 30.7 L227.0 30.6 L226.9 30.5 L226.8 31.4 L226.8 31.7 L227.0 31.8 L227.7 32.0 L227.9 32.0 L228.1 32.1 L228.3 32.4 L228.5 32.6 L228.6 33.0 L228.8 33.0 L229.0 33.1 L229.1 33.1 L229.2 33.3 L229.3 33.5 L229.4 33.6 L229.4 33.4 L229.3 32.9 L229.5 33.0 L230.0 33.0 L230.1 33.0 L230.4 33.3 L230.5 33.3 L231.9 33.4 L233.5 33.4 L235.5 33.8 L237.3 34.4 L237.0 34.6 L236.9 34.7 L237.0 34.8 L237.3 34.9 L238.0 35.3 L238.3 35.4 L240.5 35.4 L243.5 35.6 L244.5 35.3 L244.8 35.1 L244.9 35.1 L245.4 35.2 L245.5 35.2 L245.6 35.1 L245.6 35.1 L245.7 35.1 L245.8 35.2 L245.9 35.2 L246.1 35.3 L246.3 35.4 L246.7 35.4 L247.1 35.6 L248.5 35.8 L248.9 36.0 L249.1 36.4 L248.9 36.9 L248.9 37.1 L249.0 37.3 L249.4 37.7 L250.0 38.5 L250.1 38.6 L250.2 39.0 L250.5 39.3 L250.4 39.3 L250.4 39.4 L249.7 39.9 L249.4 40.3 L248.9 41.2 L247.1 42.5 L246.9 42.9 L246.9 43.3 L247.1 44.3 L247.1 45.2 L247.3 46.4 L247.4 46.6 L247.8 47.4 L248.0 47.9 L248.5 48.9 L248.6 49.3 L248.5 49.7 L248.4 50.1 L248.2 50.6 L248.1 51.2 L247.8 52.0 L247.7 52.2 L247.6 52.6 L247.4 53.0 L246.7 53.8 L246.4 54.2 L246.1 54.5 L246.0 54.6 L245.8 55.0 L245.3 55.8 L245.1 56.2 L245.1 56.6 L245.2 56.9 L245.5 57.4 L246.5 59.5 L246.6 59.8 L246.6 60.0 L246.4 60.6 L246.4 61.1 L247.0 61.9 L247.2 62.4 L247.2 62.7 L247.1 63.5 L247.1 63.9 L247.2 64.3 L248.2 66.3 L248.4 66.9 L248.5 67.6 L248.5 69.0 L248.5 70.9 L248.5 75.5 L248.5 80.0 L248.5 80.9 L248.5 84.9 L248.5 85.3 L248.5 87.0 L248.5 90.9 L248.5 91.9 L248.5 94.1 L248.5 96.3 L248.5 99.6 L248.5 102.9 L248.5 106.3 L248.5 109.6 L248.5 112.9 L248.5 116.2 L248.5 119.6 L248.5 122.9 L248.5 126.2 L248.5 129.6 L248.5 132.9 L248.5 136.2 L248.5 139.5 L248.5 142.9 L248.5 146.2 L248.5 149.5 L248.5 150.9 L248.5 152.4 L248.5 153.8 L248.5 155.2 L248.5 156.6 L248.5 158.0 L248.5 159.5 L248.5 160.9 L248.5 162.3 L248.5 163.7 L248.5 165.1 L248.5 166.6 L248.5 167.6 L248.4 168.7 L248.4 169.8 L248.4 170.9 L248.4 172.2 L248.4 172.2 L248.4 172.3 L248.4 172.3 L248.4 172.3 L248.4 172.3 L248.4 172.3 L248.4 172.3 L248.3 172.3 L248.3 172.3 L247.2 172.3 L245.5 172.3 L244.1 172.3 L242.7 172.3 L241.2 172.3 L239.9 172.3 L238.9 172.3 L237.1 172.3 L237.1 173.7 L237.1 175.2 L237.1 176.6 L237.1 178.0 L235.6 177.3 L234.2 176.6 L232.8 175.9 L231.4 175.2 L230.0 174.5 L228.6 173.8 L227.2 173.1 L225.8 172.4 L224.4 171.7 L223.0 171.0 L221.6 170.4 L220.2 169.7 L218.8 169.0 L217.3 168.3 L215.9 167.6 L214.5 166.9 L213.1 166.2 L211.7 165.5 L210.3 164.8 L208.9 164.1 L207.5 163.4 L206.1 162.7 L204.7 162.0 L203.3 161.3 L201.9 160.6 L200.5 159.9 L199.0 159.2 L197.6 158.5 L196.2 157.8 L194.8 157.1 L193.4 156.4 L192.0 155.8 L190.6 155.1 L189.2 154.4 L187.8 153.7 L186.4 153.0 L185.0 152.3 L183.6 151.6 L182.4 151.0 L182.1 150.9 L180.7 150.2 L179.3 149.5 L177.9 148.8 L176.5 148.1 L175.1 147.4 L173.7 146.7 L172.3 146.0 L170.9 145.3 L169.5 144.6 L168.1 143.9 L166.7 143.2 L165.2 142.5 L163.8 141.8 L162.4 141.1 L161.0 140.5 L159.6 139.8 L158.2 139.1 L156.8 138.4 L155.4 137.7 L154.0 137.0 L152.6 136.3 L151.2 135.6 L149.8 134.9 L148.4 134.2 L146.9 133.5 L145.9 133.0 L145.7 133.0 L145.2 133.2 L144.5 133.5 L143.9 133.8 L143.2 134.1 L142.5 134.4 L141.9 134.7 L141.2 135.0 L140.6 135.3 L139.9 135.6 L139.3 135.9 L138.6 136.2 L137.9 136.5 L137.3 136.8 L136.6 137.1 L136.0 137.4 L135.3 137.7 L134.6 138.0 L134.4 138.1 L134.4 138.1 L134.4 138.1 L132.5 139.1 L130.5 140.1 L128.6 141.1 L126.6 142.1 L125.9 142.4 L125.7 142.4 L125.6 142.4 L125.1 141.9 L123.6 140.8 L122.2 139.6 L120.8 138.4 L119.4 137.2 L118.7 136.7 L117.4 136.0 L116.2 135.8 L115.2 135.5 L114.2 135.3 L113.2 135.1 L112.2 134.9 L111.2 134.6 L110.2 134.4 L109.2 134.2 L108.2 134.0 L107.2 133.7 L106.2 133.5 L105.2 133.3 L104.1 133.1 L103.1 132.8 L102.1 132.6 L101.1 132.4 L100.1 132.2 L99.3 130.5 L98.5 129.0 L97.2 126.7 L97.2 126.6 L96.3 125.1 L95.5 123.6 L95.3 123.3 L94.9 123.1 L94.4 122.9 L90.8 121.8 L88.1 121.0 L85.9 120.4 L85.7 120.3 L85.4 120.3 L84.1 120.8 L82.8 121.2 L82.4 121.3 L82.1 121.2 L80.6 120.1 L80.4 119.9 L80.3 119.5 L80.1 118.4 L79.9 118.1 L78.2 117.2 L78.0 116.9 L78.0 115.3 L78.0 113.7 L77.9 112.2 L77.8 111.5 L77.3 110.8 L75.6 108.6 L74.2 106.8 L72.5 104.6 L70.9 102.6 L70.6 101.9 L70.9 101.4 L71.0 101.2 L71.2 100.8 L71.6 100.4 L71.7 100.3 L71.8 100.1 L71.8 99.8 L75.8 98.1 L76.0 97.9 L76.5 96.4 L76.5 96.2 L76.3 95.9 L76.4 95.5 L76.7 94.2 L76.6 94.1 L76.4 93.9 L75.9 93.7 L75.8 93.6 L75.7 93.4 L75.5 92.2 L74.5 89.1 L74.5 88.9 L74.6 88.8 L74.8 88.3 L74.9 87.6 L75.1 87.4 L75.6 86.9 L75.6 86.7 L75.5 86.5 L75.4 86.2 L75.3 86.0 L75.6 85.8 L75.9 85.6 L76.1 85.4 L76.9 83.1 L76.9 83.0 L77.0 82.6 L75.3 78.7 L75.1 78.0 L75.7 74.0 L76.0 72.1 L76.0 69.9 L75.7 68.2 L74.8 65.5 L73.9 62.7 L72.5 60.5 L71.1 58.6 L70.5 58.0 L69.8 57.3 L69.5 56.9 L72.2 55.7 L74.8 54.5 L75.1 54.4 L75.9 54.4 L76.2 54.2 L77.6 52.6 L78.8 50.9 L79.9 49.9 L80.6 48.7 L80.8 48.2 L80.8 47.8 L80.5 47.0 L80.4 46.6 L80.5 46.2 L80.5 46.0 L80.1 45.3 L79.8 44.1 L78.9 42.2 L78.9 42.0 L79.0 41.2 L79.2 41.0 L79.9 40.3 L80.7 39.1 L81.3 38.7 L82.6 38.7 L83.2 38.5 L83.4 38.4 L83.5 38.2 L83.7 38.1 L83.9 37.7 L84.3 37.3 L84.5 36.9 L84.6 36.0 L84.8 35.8 L85.1 35.8 L85.3 35.9 L85.5 36.0 L85.7 35.9 L86.1 35.6 L86.5 35.4 L86.9 35.1 L87.3 34.2 L87.6 33.9 L91.2 32.5 L94.1 31.3 L94.9 30.8 L95.1 30.7 L95.3 30.5 L95.5 30.2 L95.5 29.7 L95.2 29.3 L94.4 28.6 L94.2 28.2 L94.2 27.6 L94.4 26.4 L94.3 25.2 L94.5 24.4 L94.5 23.8 L94.5 23.6 L94.8 22.5 L94.8 22.0 Z" fill="#172033" fill-rule="evenodd"/></svg>
