<svg xmlns="http://www.w3.org/2000/svg" viewBox="0 0 320 200" role="img"><path d="M162.2 110.9 L162.2 110.9 L162.3 111.4 L162.6 112.3 L162.7 113.0 L162.5 113.5 L162.4 114.1 L162.4 114.7 L162.7 115.3 L162.9 115.9 L162.9 116.4 L162.5 116.7 L161.4 116.9 L160.2 117.0 L159.3 117.0 L158.0 116.9 L157.2 116.9 L156.5 116.9 L155.8 117.0 L155.0 117.5 L154.1 118.1 L153.0 119.0 L152.3 119.5 L151.5 119.6 L150.6 119.6 L149.7 119.2 L149.2 119.0 L148.8 119.0 L148.2 119.3 L147.5 119.5 L146.8 119.5 L145.7 119.1 L144.4 118.4 L143.6 118.1 L142.5 118.0 L141.4 117.8 L140.6 117.9 L139.6 117.9 L138.2 118.3 L137.1 118.6 L135.9 119.0 L134.5 119.3 L134.9 120.2 L135.3 120.7 L135.3 121.4 L135.1 121.9 L134.4 122.5 L133.7 123.2 L133.2 123.7 L132.8 124.4 L132.5 124.9 L131.9 125.6 L131.4 126.5 L131.2 127.0 L131.0 127.6 L130.6 127.8 L129.3 128.0 L128.4 128.2 L127.7 128.4 L127.4 128.8 L127.3 128.9 L127.1 129.6 L127.1 130.1 L126.9 130.6 L126.6 131.6 L126.2 132.6 L125.8 133.9 L125.5 135.0 L125.1 136.7 L124.7 138.3 L124.1 139.8 L123.7 140.8 L123.4 141.3 L122.6 142.0 L122.0 142.4 L121.2 142.9 L120.4 143.5 L119.2 144.1 L118.2 144.7 L117.8 144.9 L117.3 145.2 L116.6 145.9 L115.9 147.0 L115.5 147.9 L114.8 149.3 L114.2 150.0 L113.9 150.5 L113.0 150.9 L112.1 151.2 L111.0 151.7 L110.1 152.1 L109.0 152.5 L108.2 152.9 L107.7 153.6 L107.2 154.3 L106.7 155.4 L106.3 156.6 L106.0 157.4 L105.4 159.9 L105.2 161.4 L105.0 162.4 L104.6 163.6 L104.4 165.4 L104.4 166.9 L104.2 167.8 L104.1 168.4 L103.6 169.2 L103.1 169.7 L102.4 170.5 L101.7 170.9 L101.5 171.3 L100.9 171.9 L100.2 172.7 L99.7 173.3 L99.8 173.7 L99.9 174.5 L99.6 175.2 L99.3 176.1 L98.4 177.1 L97.4 177.7 L96.0 177.8 L94.1 177.8 L92.6 177.7 L90.8 177.7 L89.2 177.5 L87.7 177.2 L85.8 177.1 L84.5 177.1 L82.9 177.3 L78.7 177.3 L77.1 177.5 L74.8 177.9 L74.1 178.0 L74.1 177.7 L74.5 176.1 L74.6 175.7 L74.5 175.3 L74.6 175.0 L74.7 174.7 L74.8 174.6 L74.8 174.5 L74.8 174.3 L74.8 174.3 L74.6 174.2 L74.6 174.1 L74.6 174.0 L74.7 173.6 L74.9 173.2 L75.0 172.8 L75.1 172.5 L76.2 170.4 L76.6 170.0 L76.6 169.9 L76.7 169.8 L76.8 169.6 L76.8 169.5 L77.0 169.4 L77.1 169.3 L77.2 169.0 L77.4 168.8 L77.6 168.7 L77.7 168.6 L77.8 168.6 L77.9 168.6 L78.0 168.6 L78.1 168.7 L78.2 168.8 L79.4 168.4 L79.6 168.2 L79.8 168.0 L80.0 167.7 L80.3 166.5 L80.4 166.3 L80.5 166.2 L81.0 165.7 L81.1 165.5 L81.3 164.8 L81.3 163.9 L81.3 163.7 L81.5 163.3 L81.6 163.1 L81.8 162.8 L81.8 162.7 L81.7 162.6 L81.7 162.5 L81.7 162.4 L81.7 162.4 L81.8 162.2 L81.9 162.1 L81.9 162.0 L82.1 162.0 L82.4 162.0 L82.7 161.7 L83.1 161.3 L83.2 161.1 L83.3 160.9 L83.3 160.6 L83.3 160.4 L83.3 160.1 L83.0 160.1 L82.6 160.2 L82.7 160.0 L82.9 159.7 L83.0 159.5 L83.5 159.1 L83.5 159.0 L84.3 157.3 L84.4 157.2 L84.6 157.1 L84.7 157.0 L85.2 156.2 L85.3 155.5 L85.4 155.3 L85.6 155.1 L86.0 154.4 L86.5 153.9 L86.5 153.8 L86.7 153.7 L86.8 153.6 L86.9 153.5 L86.9 153.3 L86.9 153.2 L87.1 152.9 L87.3 152.7 L87.4 152.5 L87.5 152.3 L87.5 151.8 L87.5 151.6 L87.3 151.3 L87.3 151.3 L87.4 151.2 L87.3 151.3 L87.2 151.4 L87.3 151.6 L87.2 151.7 L87.2 151.8 L86.9 152.0 L86.8 152.0 L86.7 152.0 L86.6 152.0 L86.5 152.0 L86.3 152.2 L86.2 152.3 L86.1 152.4 L85.9 152.8 L85.8 153.0 L85.8 153.1 L85.7 153.2 L85.6 153.4 L85.6 153.5 L85.5 153.6 L85.0 154.1 L84.9 154.0 L84.9 153.8 L85.2 153.5 L85.2 153.4 L85.6 152.7 L86.3 151.8 L86.4 151.7 L86.5 151.5 L86.7 151.3 L87.5 150.7 L87.8 150.6 L88.3 150.3 L88.4 150.2 L88.8 150.1 L89.1 150.0 L89.3 149.7 L89.5 149.5 L89.9 149.0 L90.2 148.6 L90.6 148.3 L90.8 148.2 L90.9 148.0 L90.9 147.9 L91.9 147.1 L92.5 146.5 L93.3 145.5 L93.5 145.2 L93.9 144.9 L94.1 144.8 L94.3 144.7 L94.5 144.7 L95.0 144.6 L95.2 144.5 L95.6 144.2 L95.6 144.0 L95.6 143.9 L95.7 143.6 L96.0 143.4 L96.2 143.2 L96.5 143.0 L96.7 142.9 L96.8 142.7 L97.0 142.0 L97.2 141.3 L97.3 140.8 L97.4 140.5 L97.5 140.4 L97.5 140.2 L97.4 140.0 L97.4 139.9 L97.5 139.7 L97.4 139.6 L97.5 139.5 L97.5 139.3 L97.6 139.1 L97.6 139.0 L97.5 138.8 L97.4 138.6 L97.4 138.4 L97.4 137.5 L97.3 137.2 L97.7 136.0 L97.7 135.8 L98.1 134.7 L98.6 134.1 L98.7 134.0 L98.8 133.8 L99.1 133.1 L99.2 132.7 L99.2 132.6 L99.3 132.4 L99.4 132.1 L99.8 131.1 L100.6 130.0 L100.9 129.6 L101.0 129.4 L101.0 129.2 L101.2 128.7 L101.2 128.6 L101.2 128.4 L101.3 127.8 L101.3 127.6 L101.2 127.3 L101.2 127.2 L101.3 127.1 L101.4 126.8 L101.5 126.7 L102.1 126.0 L102.2 125.9 L102.7 125.8 L103.3 125.5 L104.2 124.7 L104.3 124.5 L104.4 124.3 L104.5 124.2 L104.8 124.1 L106.0 124.0 L106.2 123.9 L107.3 123.4 L109.3 122.1 L110.6 121.3 L111.2 120.7 L111.8 119.5 L112.1 118.9 L112.3 118.1 L112.6 117.4 L112.9 116.1 L113.1 115.7 L114.0 114.5 L114.0 114.4 L113.9 114.3 L113.9 114.3 L114.1 114.2 L114.6 113.0 L115.0 111.9 L115.0 111.7 L115.1 111.5 L115.3 111.1 L115.3 110.9 L115.3 110.9 L115.3 110.8 L115.4 110.6 L115.5 110.5 L115.8 110.4 L116.2 110.1 L116.6 110.0 L116.7 109.8 L117.2 109.2 L117.5 108.4 L117.6 108.2 L117.7 108.0 L118.0 107.9 L119.0 107.6 L120.9 107.3 L122.5 107.3 L124.4 106.7 L127.3 106.3 L127.4 106.2 L127.7 106.0 L127.7 106.0 L127.9 105.9 L130.3 105.0 L133.5 103.7 L133.9 103.5 L134.1 103.2 L134.6 102.6 L134.7 102.4 L134.9 102.3 L135.1 102.1 L135.1 101.9 L135.2 101.7 L135.9 101.3 L136.4 100.8 L136.5 100.6 L136.9 100.4 L137.0 100.3 L137.1 100.1 L137.1 100.1 L137.5 99.8 L137.5 99.8 L137.8 99.4 L138.1 99.1 L138.2 99.0 L141.3 97.7 L142.0 97.2 L142.9 96.8 L143.3 96.6 L144.6 95.5 L145.8 94.0 L146.0 93.7 L146.2 93.6 L146.7 93.4 L146.8 93.3 L147.1 92.9 L147.4 92.6 L147.5 92.4 L147.5 92.2 L147.6 92.1 L148.0 91.9 L148.0 91.8 L148.1 91.6 L148.6 91.0 L148.6 90.9 L148.6 90.7 L148.7 90.4 L148.8 90.2 L148.9 90.0 L149.4 89.6 L149.5 89.5 L149.6 89.3 L150.0 88.8 L151.4 87.5 L152.5 85.8 L153.2 84.4 L153.3 84.0 L153.5 82.6 L153.7 81.9 L153.7 81.7 L153.7 81.4 L153.5 81.2 L153.4 81.1 L153.2 81.0 L153.1 80.8 L152.8 80.3 L152.7 79.9 L152.6 79.8 L152.5 79.8 L152.4 79.8 L152.3 79.7 L152.1 79.4 L151.3 79.0 L151.1 79.0 L150.8 78.9 L150.7 78.8 L150.7 78.3 L150.9 77.9 L151.2 77.6 L151.4 77.2 L151.5 77.0 L151.5 76.8 L151.5 76.7 L151.4 76.6 L151.4 76.6 L151.4 76.5 L151.4 76.4 L151.3 74.3 L151.3 74.1 L151.1 73.7 L151.3 73.4 L151.5 71.9 L151.6 71.3 L151.5 71.0 L151.4 70.9 L151.3 70.8 L151.1 70.7 L151.5 70.3 L151.7 69.9 L152.0 69.3 L152.1 69.1 L152.3 69.0 L152.4 68.9 L152.4 68.7 L152.6 68.5 L152.6 68.4 L152.8 68.2 L152.8 68.1 L153.0 67.3 L153.1 67.1 L154.1 66.2 L154.5 65.7 L154.6 65.6 L154.7 65.5 L154.8 65.4 L154.9 65.3 L155.0 65.1 L155.0 65.1 L156.3 63.9 L156.4 63.7 L156.5 63.6 L156.6 63.1 L156.7 63.0 L156.7 62.8 L157.1 62.4 L157.3 62.1 L157.3 61.8 L157.4 60.7 L157.4 60.6 L157.2 60.5 L157.1 60.5 L157.1 60.2 L157.2 60.1 L157.5 59.6 L157.6 59.4 L157.6 59.1 L157.5 59.0 L157.4 58.9 L157.3 58.7 L157.3 58.5 L157.2 58.3 L157.5 58.0 L159.0 56.9 L160.3 55.7 L161.3 55.0 L161.7 54.7 L162.9 53.4 L164.2 52.1 L164.3 52.0 L164.3 51.8 L164.3 51.6 L164.4 51.5 L165.3 50.6 L165.4 50.5 L165.5 50.6 L165.6 50.7 L165.7 50.7 L165.9 50.7 L166.1 50.6 L166.5 50.5 L166.9 50.2 L167.6 49.5 L167.9 49.3 L168.4 49.1 L169.9 48.8 L170.9 48.5 L171.4 48.3 L171.9 48.2 L172.2 48.1 L172.4 47.8 L172.7 47.7 L173.4 47.5 L173.8 47.3 L174.0 47.3 L174.2 47.2 L174.4 47.0 L174.6 46.9 L174.8 46.9 L174.9 46.9 L175.0 46.9 L175.1 46.9 L175.2 46.9 L175.3 46.9 L175.5 46.8 L175.8 46.7 L176.1 46.7 L176.3 46.6 L176.4 46.5 L176.8 46.1 L177.1 46.0 L177.4 45.7 L177.6 45.6 L177.5 45.7 L177.7 45.7 L178.0 45.7 L178.1 45.6 L178.9 45.2 L179.3 44.9 L179.7 44.7 L180.1 44.5 L180.5 44.5 L180.5 44.5 L180.7 44.4 L181.0 44.2 L181.4 44.1 L182.5 43.3 L183.7 42.3 L184.6 41.0 L185.3 39.7 L186.5 38.2 L186.6 38.0 L186.8 37.6 L187.0 37.3 L189.4 33.2 L190.3 30.6 L192.3 26.6 L192.3 26.4 L192.3 26.1 L192.4 26.0 L192.6 25.5 L192.8 24.9 L192.8 24.9 L192.9 24.8 L193.0 24.6 L193.1 24.5 L193.1 24.0 L193.2 23.7 L193.3 23.6 L193.5 23.4 L193.9 23.3 L194.9 23.5 L195.0 23.4 L195.3 23.2 L195.4 23.1 L195.6 23.0 L195.8 23.0 L195.9 23.0 L196.1 23.0 L196.4 23.0 L196.6 23.0 L196.8 23.1 L197.5 22.8 L197.6 22.7 L198.0 22.3 L198.2 22.2 L198.4 22.1 L198.5 22.1 L198.6 22.1 L198.7 22.2 L198.8 22.2 L198.8 22.1 L198.9 22.0 L198.9 22.0 L199.0 22.0 L199.0 22.0 L199.1 22.3 L199.2 22.5 L199.4 22.7 L199.6 22.9 L199.6 22.9 L199.5 23.0 L199.6 23.3 L199.7 23.8 L199.8 24.3 L199.8 24.4 L199.9 24.5 L200.0 24.6 L200.0 24.6 L200.2 24.6 L200.3 24.6 L200.3 24.7 L200.3 24.8 L200.3 24.9 L200.5 25.5 L200.6 25.7 L200.8 25.8 L201.3 26.1 L201.6 26.4 L202.5 27.5 L202.7 27.6 L203.0 27.6 L203.2 27.7 L203.4 27.8 L203.7 28.1 L204.1 28.4 L204.2 28.6 L204.7 28.7 L205.3 29.2 L205.7 29.4 L207.3 29.8 L208.7 30.0 L208.7 30.0 L210.0 30.3 L210.3 30.3 L210.5 30.3 L211.1 30.0 L212.6 29.8 L213.5 29.4 L214.4 29.3 L214.9 29.1 L215.0 29.2 L215.0 29.3 L214.8 29.3 L214.8 29.3 L214.8 29.4 L214.9 29.5 L215.0 29.7 L215.2 29.7 L215.4 29.7 L215.7 29.8 L215.9 29.7 L216.3 29.7 L216.5 29.6 L216.6 29.4 L216.7 29.1 L217.0 28.9 L217.2 28.8 L217.5 28.9 L217.7 29.0 L218.2 29.3 L218.4 29.5 L219.2 29.6 L219.5 29.7 L219.6 29.7 L219.8 29.7 L219.9 29.7 L220.0 29.7 L220.2 29.8 L220.3 29.8 L220.9 29.9 L221.3 29.8 L222.7 29.4 L222.9 29.3 L223.4 28.9 L223.5 28.8 L223.6 28.8 L223.7 28.8 L223.8 28.9 L223.9 28.9 L224.3 28.6 L224.7 27.7 L225.0 27.4 L225.0 27.3 L225.0 27.2 L225.1 27.2 L225.2 27.2 L225.3 27.3 L225.2 27.5 L225.3 27.6 L225.2 27.9 L225.3 28.4 L225.3 28.4 L225.3 28.4 L225.1 28.6 L225.2 28.9 L225.4 29.1 L225.7 29.0 L225.9 29.2 L225.8 29.3 L225.7 29.4 L225.7 29.6 L225.7 30.0 L225.8 30.1 L225.9 30.2 L226.0 30.4 L226.3 30.6 L226.7 30.7 L227.5 30.7 L227.0 30.4 L226.2 29.6 L226.0 29.4 L226.1 29.3 L226.2 29.4 L226.7 29.9 L226.8 30.0 L227.3 30.4 L227.8 30.6 L228.4 30.8 L229.5 30.9 L230.0 30.9 L230.2 30.8 L230.4 30.8 L230.6 30.5 L230.8 30.4 L231.0 30.4 L232.1 30.7 L232.3 30.7 L232.6 30.8 L232.8 30.9 L233.1 31.0 L233.1 31.4 L233.2 31.7 L233.4 31.9 L233.8 32.0 L234.2 32.3 L234.5 32.5 L234.9 32.7 L235.3 32.8 L235.5 32.8 L235.5 33.0 L235.5 33.1 L235.6 33.3 L235.7 33.4 L236.3 33.7 L236.7 34.0 L237.8 34.6 L238.0 34.7 L238.0 34.8 L237.8 34.9 L237.6 35.4 L237.0 36.1 L236.9 36.3 L238.2 37.4 L238.6 37.5 L238.7 37.6 L237.6 38.7 L238.0 39.1 L238.3 39.6 L239.0 41.6 L239.0 41.7 L239.1 41.9 L239.0 42.1 L238.5 43.8 L238.5 44.3 L238.6 44.8 L238.7 45.2 L238.7 45.3 L238.6 45.4 L238.5 45.6 L238.4 45.6 L238.3 45.8 L238.2 45.9 L238.3 46.1 L238.5 46.2 L238.8 46.3 L239.0 46.4 L239.2 46.5 L239.6 47.5 L239.7 47.9 L239.6 48.2 L239.4 48.4 L239.2 49.0 L239.0 49.2 L238.9 49.5 L238.9 50.6 L239.0 50.9 L239.6 51.4 L239.8 51.7 L239.9 52.0 L240.1 52.3 L240.4 52.5 L240.7 52.7 L240.9 52.8 L241.0 53.0 L241.0 53.3 L240.9 53.5 L240.9 53.6 L240.9 53.7 L240.8 53.8 L240.7 53.9 L240.3 54.2 L241.7 56.2 L242.1 56.5 L242.8 56.7 L245.8 58.7 L245.9 58.9 L245.3 59.5 L245.0 59.7 L244.6 59.9 L244.1 59.9 L243.9 60.0 L243.8 60.2 L243.7 60.4 L243.5 60.8 L243.3 61.8 L243.3 61.9 L243.3 62.0 L243.3 62.1 L243.2 62.2 L243.2 62.2 L243.0 62.4 L242.9 62.4 L243.0 62.6 L243.2 62.6 L243.6 62.5 L243.8 62.5 L244.0 62.5 L244.2 62.7 L244.2 62.9 L244.0 63.3 L243.6 63.3 L242.8 63.3 L242.7 63.3 L242.4 63.3 L242.0 63.3 L241.5 63.3 L240.8 63.2 L240.1 63.2 L239.3 63.2 L238.4 63.1 L237.5 63.1 L236.5 63.1 L235.6 63.0 L234.6 63.0 L233.7 63.0 L232.9 62.9 L232.1 62.9 L231.5 62.9 L230.0 62.8 L228.0 63.3 L226.0 63.4 L225.4 63.7 L226.2 65.4 L226.6 66.4 L224.7 66.7 L222.4 67.3 L219.3 67.7 L218.9 67.8 L218.4 67.7 L217.7 68.0 L217.5 70.8 L216.7 70.8 L216.1 71.2 L216.0 71.4 L216.0 71.5 L216.0 72.4 L216.0 72.6 L215.8 72.9 L215.7 73.1 L215.7 73.3 L215.9 73.4 L216.0 73.4 L216.2 73.4 L216.6 73.1 L216.7 73.0 L216.9 73.1 L217.1 73.2 L217.4 73.6 L217.5 73.8 L217.9 73.9 L218.1 74.0 L218.2 74.2 L218.2 74.4 L218.2 74.6 L218.8 75.5 L218.2 76.3 L217.7 76.7 L217.8 77.4 L217.8 78.1 L215.8 79.0 L214.0 79.4 L212.3 79.4 L211.1 79.7 L210.0 80.3 L208.8 81.6 L207.3 82.7 L205.7 83.3 L204.6 83.8 L203.7 84.4 L202.5 85.3 L201.4 86.0 L200.3 87.0 L199.6 88.2 L198.6 89.6 L197.5 90.9 L196.4 91.2 L195.5 90.9 L195.1 89.9 L193.8 90.0 L192.5 90.3 L191.1 90.3 L189.6 90.3 L188.1 90.4 L186.5 90.8 L185.0 90.9 L184.1 91.7 L182.2 91.0 L181.0 90.9 L180.2 91.0 L179.0 91.5 L178.0 92.4 L176.8 92.3 L176.5 92.4 L176.3 92.4 L176.1 92.4 L175.6 92.3 L175.1 92.3 L174.7 92.4 L174.1 93.0 L173.9 93.1 L173.4 93.4 L172.7 93.9 L171.6 94.6 L170.6 95.4 L170.3 95.6 L169.0 96.1 L168.3 96.5 L167.6 97.1 L167.4 97.2 L167.0 97.4 L166.9 97.5 L166.5 98.1 L166.4 98.2 L165.9 98.4 L165.4 98.8 L164.0 99.4 L163.8 99.6 L163.7 99.8 L163.7 100.1 L163.7 100.6 L163.7 101.2 L163.7 101.9 L163.7 102.5 L163.7 103.1 L163.7 103.8 L163.7 104.4 L163.7 105.1 L163.7 105.7 L163.7 106.4 L163.7 107.0 L163.7 107.7 L163.7 108.3 L163.7 108.9 L163.7 109.6 L163.7 110.2 L163.7 110.9 L162.9 110.9 L162.2 110.9 L162.2 110.9 Z" fill="#172033" fill-rule="evenodd"/></svg>
