<svg xmlns="http://www.w3.org/2000/svg" viewBox="0 0 320 200" role="img"><path d="M69.4 33.7 L69.4 33.3 L69.8 32.5 L70.3 31.9 L72.0 31.1 L72.3 30.5 L72.6 30.0 L73.6 30.3 L74.3 30.8 L74.8 31.5 L75.5 32.0 L76.4 32.3 L77.4 32.3 L78.0 31.9 L78.3 31.2 L78.2 30.3 L77.9 29.3 L77.6 28.6 L77.6 28.2 L78.2 27.7 L78.4 27.7 L79.3 27.9 L79.6 27.9 L80.1 27.6 L80.2 27.2 L80.4 26.9 L81.0 26.8 L82.7 27.3 L84.4 28.2 L86.2 29.0 L88.1 28.7 L88.6 28.4 L89.0 28.4 L89.3 28.6 L89.9 28.5 L90.5 28.6 L90.8 28.5 L90.7 28.2 L90.6 27.9 L90.5 27.7 L90.5 27.4 L90.4 27.0 L90.4 26.6 L91.0 26.5 L91.6 26.6 L92.6 27.0 L98.2 28.4 L99.8 28.5 L101.8 27.8 L102.1 27.6 L104.9 25.2 L106.7 24.6 L107.7 24.7 L109.2 25.7 L109.9 25.8 L110.8 25.6 L113.9 23.8 L115.1 22.7 L117.2 22.7 L117.8 22.6 L119.2 22.0 L120.3 22.1 L120.4 23.5 L121.4 23.8 L127.9 23.8 L129.6 24.3 L132.9 25.9 L133.7 26.5 L134.8 27.5 L135.3 28.1 L135.7 28.4 L136.9 29.6 L139.0 30.1 L140.8 30.3 L143.6 30.5 L144.6 30.8 L145.5 31.5 L145.7 32.4 L144.7 34.4 L145.5 34.8 L146.6 34.9 L147.4 34.7 L149.0 33.8 L149.9 33.7 L150.3 34.6 L150.4 35.6 L151.0 36.1 L151.9 36.3 L153.1 36.2 L154.2 35.7 L155.0 35.3 L155.9 34.9 L158.2 34.7 L159.1 34.8 L159.7 35.2 L159.8 36.2 L159.4 37.2 L158.8 37.7 L158.1 38.0 L157.3 38.7 L156.9 39.4 L157.0 40.1 L157.6 40.5 L158.7 40.4 L159.5 39.8 L160.0 39.0 L160.7 38.4 L161.9 38.3 L162.7 38.6 L163.2 39.3 L163.1 40.1 L162.3 40.8 L163.8 42.8 L164.4 43.2 L165.4 43.7 L165.9 43.7 L166.1 43.2 L166.2 42.3 L166.5 41.5 L166.5 41.3 L167.5 39.4 L168.6 39.0 L170.3 39.1 L175.0 40.4 L178.6 40.4 L180.5 40.7 L181.9 41.3 L182.2 41.7 L182.4 42.1 L182.4 42.4 L182.5 42.8 L183.4 44.1 L183.5 45.5 L183.6 45.8 L184.0 46.1 L184.8 46.7 L185.1 47.0 L186.2 48.3 L187.9 49.5 L189.0 50.1 L189.7 50.4 L191.3 50.9 L193.1 50.6 L195.4 48.6 L197.0 48.1 L197.9 48.1 L198.6 48.3 L199.3 48.7 L199.9 49.4 L200.3 50.2 L200.7 51.9 L201.2 52.7 L201.9 53.1 L203.9 53.5 L204.4 53.7 L204.3 54.4 L203.5 55.2 L202.5 55.9 L201.9 56.4 L201.4 57.4 L201.4 57.9 L201.9 58.3 L203.7 58.7 L204.4 59.1 L204.6 59.7 L203.9 60.3 L202.4 61.6 L202.1 63.3 L202.2 65.1 L201.6 67.0 L200.3 68.6 L199.0 69.8 L198.3 71.1 L199.0 73.2 L199.0 73.2 L199.0 73.2 L199.0 73.2 L199.3 73.7 L199.5 73.9 L200.3 75.4 L200.7 76.0 L201.6 76.5 L202.2 76.2 L202.7 75.6 L203.5 75.4 L204.3 75.6 L205.2 76.7 L206.8 77.4 L207.1 78.0 L207.4 78.6 L207.8 79.1 L208.5 79.4 L209.3 79.5 L210.1 79.8 L210.8 80.5 L211.0 81.3 L211.1 82.0 L211.2 82.8 L211.4 83.0 L211.9 83.5 L212.6 84.0 L213.4 84.2 L214.2 84.3 L215.0 84.1 L215.9 83.5 L216.3 82.8 L216.5 82.0 L217.1 81.2 L218.1 81.1 L219.1 81.2 L220.1 81.4 L221.0 81.9 L221.7 82.8 L222.1 84.0 L222.2 85.2 L221.6 86.1 L220.3 86.6 L220.1 87.7 L220.7 90.4 L220.4 91.7 L219.6 92.3 L218.5 92.5 L217.1 92.6 L216.9 92.7 L216.9 92.9 L216.9 93.1 L217.1 93.2 L218.6 95.2 L219.1 95.6 L219.6 95.2 L220.1 94.6 L220.7 94.0 L221.7 93.9 L222.3 94.3 L222.9 94.8 L223.3 95.5 L223.4 96.3 L223.0 97.0 L222.3 97.5 L221.8 98.0 L221.4 100.0 L221.2 100.7 L221.1 100.8 L221.1 101.5 L221.5 102.0 L221.8 102.1 L223.1 102.0 L223.6 102.2 L224.4 102.8 L224.8 103.1 L225.7 103.3 L227.4 103.4 L228.2 103.6 L229.0 104.2 L230.2 105.5 L231.2 106.0 L232.8 106.2 L234.3 106.0 L235.8 106.2 L237.2 107.0 L237.5 107.4 L237.9 108.3 L238.1 108.6 L238.6 108.6 L239.1 108.4 L239.6 108.3 L240.1 108.5 L240.3 108.8 L240.2 109.9 L240.3 110.4 L240.5 110.8 L241.1 111.5 L241.3 111.9 L241.4 112.9 L241.0 116.1 L240.8 116.7 L240.5 117.1 L240.3 117.6 L240.3 118.3 L240.5 118.8 L241.1 119.9 L241.2 120.4 L240.6 121.5 L239.5 121.6 L238.6 121.7 L238.8 122.9 L239.5 123.5 L241.8 124.1 L241.9 124.3 L242.1 124.8 L242.3 124.9 L242.7 124.8 L243.3 124.5 L243.6 124.5 L244.0 124.7 L244.3 125.1 L245.0 126.0 L244.6 126.4 L246.9 127.7 L247.8 128.4 L248.3 128.1 L249.1 128.0 L249.9 128.1 L250.6 128.4 L249.4 130.0 L248.0 130.9 L245.8 131.2 L239.6 131.0 L238.8 131.1 L237.9 131.5 L236.0 132.6 L235.0 132.7 L233.9 131.9 L233.8 131.6 L233.9 130.6 L233.8 130.1 L233.5 129.7 L232.5 128.5 L229.8 126.7 L229.1 125.9 L229.1 127.4 L228.5 128.1 L227.5 128.4 L226.0 128.4 L225.7 128.8 L225.9 130.0 L225.6 130.9 L224.9 131.4 L224.0 131.6 L223.1 131.5 L222.3 131.2 L221.6 130.5 L220.9 129.4 L220.2 128.9 L219.5 128.7 L217.8 128.5 L217.1 128.3 L216.8 127.9 L216.7 127.6 L216.8 127.2 L217.1 126.7 L217.3 126.4 L217.4 126.0 L217.3 125.7 L217.1 125.4 L215.9 125.2 L215.8 125.3 L214.8 125.6 L213.8 126.4 L211.6 128.8 L210.9 128.8 L210.0 127.8 L208.8 126.1 L208.1 125.9 L207.2 126.9 L207.0 127.6 L207.2 128.6 L207.2 129.1 L206.9 129.7 L206.6 129.8 L206.3 129.7 L205.6 129.9 L203.8 131.3 L202.6 131.8 L201.7 131.3 L201.7 130.8 L202.1 130.3 L202.5 129.8 L202.9 129.3 L203.0 128.7 L202.9 124.3 L202.6 123.2 L201.8 122.5 L201.7 122.5 L200.6 122.5 L196.1 124.3 L195.1 124.5 L193.3 125.0 L189.5 126.8 L188.4 127.9 L188.1 129.4 L188.5 131.3 L189.4 133.7 L189.5 134.5 L189.2 135.4 L188.8 136.2 L188.8 136.9 L189.7 137.7 L189.7 137.7 L191.4 138.8 L192.8 139.7 L193.0 140.8 L192.4 142.0 L191.3 143.4 L189.5 144.8 L189.1 145.6 L189.2 146.9 L190.1 149.2 L190.0 150.2 L188.7 150.6 L179.7 152.2 L178.9 152.6 L178.3 153.4 L178.2 154.3 L179.0 156.0 L179.2 156.9 L179.1 157.9 L178.8 158.6 L178.1 159.1 L177.1 159.5 L175.6 159.7 L175.2 159.9 L175.2 160.2 L175.3 160.7 L175.4 161.2 L175.2 161.7 L173.9 162.3 L170.4 162.5 L169.6 163.5 L169.7 163.9 L170.0 164.4 L169.6 164.9 L168.1 165.2 L167.2 165.6 L166.7 166.0 L165.5 167.3 L165.1 167.9 L165.6 168.3 L166.4 168.6 L167.0 169.1 L167.3 169.8 L167.4 170.5 L167.7 171.2 L168.4 171.9 L167.0 172.4 L166.7 172.6 L166.7 172.6 L166.4 173.0 L166.4 173.1 L166.5 173.2 L166.8 175.0 L166.6 175.6 L165.5 175.9 L162.2 175.8 L158.3 175.1 L154.6 174.9 L154.6 174.9 L151.9 176.4 L151.9 176.4 L151.4 177.0 L151.1 177.6 L151.0 178.0 L149.6 176.8 L149.2 176.3 L149.2 174.6 L149.1 174.4 L149.0 174.3 L148.8 174.0 L147.9 172.9 L146.8 172.3 L143.9 171.2 L144.5 170.6 L145.4 170.0 L146.2 169.6 L146.9 169.4 L148.6 169.5 L149.3 169.2 L149.0 168.5 L149.1 167.7 L148.7 162.5 L148.2 162.0 L147.3 160.8 L146.5 159.2 L146.4 157.8 L146.6 157.5 L147.3 157.1 L147.4 156.9 L147.3 156.7 L146.9 156.0 L146.7 155.6 L146.8 155.2 L147.0 154.8 L147.1 154.4 L146.9 154.0 L146.6 153.7 L146.5 153.4 L146.4 152.8 L145.1 150.2 L144.9 149.5 L145.0 149.0 L145.7 147.2 L145.7 146.9 L145.3 146.7 L145.3 146.5 L145.5 146.2 L145.9 146.0 L146.2 145.3 L146.4 145.0 L147.2 143.3 L147.5 142.0 L148.1 140.8 L148.0 140.3 L147.7 140.0 L147.3 139.7 L146.4 138.6 L146.3 138.2 L146.9 138.0 L147.5 137.9 L147.6 137.6 L147.4 136.7 L147.6 136.3 L148.1 136.2 L148.7 136.0 L149.2 135.9 L149.8 135.4 L150.5 134.4 L150.6 134.2 L150.6 133.5 L150.4 132.5 L150.5 132.1 L151.1 132.0 L151.4 131.8 L151.7 130.2 L152.0 129.9 L152.4 129.8 L152.5 129.8 L152.7 129.5 L152.3 128.8 L153.1 128.6 L153.4 128.2 L153.4 127.7 L153.4 126.1 L153.3 125.7 L153.2 125.7 L153.0 125.7 L152.7 125.6 L152.1 124.7 L152.0 124.3 L152.1 122.3 L152.3 121.9 L152.7 121.7 L152.3 120.9 L152.6 120.1 L153.1 119.5 L153.4 118.9 L153.4 118.2 L153.3 117.7 L153.3 117.5 L152.7 116.1 L149.9 112.1 L149.9 111.1 L147.8 108.6 L146.9 107.2 L147.0 106.8 L147.1 106.2 L147.1 105.8 L146.5 105.3 L146.6 104.7 L146.5 104.1 L145.7 103.7 L146.1 102.9 L146.1 102.8 L145.9 102.0 L144.9 100.1 L144.2 99.2 L142.6 97.9 L142.6 97.8 L142.1 97.0 L141.1 97.3 L140.0 96.9 L138.8 96.4 L137.5 96.2 L137.5 95.5 L136.8 95.1 L135.4 94.5 L133.8 93.3 L133.3 93.0 L132.8 92.9 L132.6 92.8 L132.9 92.4 L132.9 92.0 L130.7 91.2 L130.1 90.6 L130.7 90.5 L130.8 90.3 L130.6 90.0 L130.5 89.6 L130.4 89.5 L129.8 88.1 L128.4 87.0 L127.9 86.3 L128.0 85.7 L126.9 84.4 L126.4 84.0 L125.1 83.8 L124.7 83.6 L124.3 83.4 L123.7 83.2 L122.3 83.0 L121.9 82.8 L121.3 82.1 L120.0 80.0 L119.5 79.7 L119.3 79.6 L118.6 79.3 L119.0 77.7 L118.1 77.2 L118.3 76.6 L118.5 76.0 L118.7 75.6 L119.2 75.4 L118.8 74.9 L118.1 74.5 L117.4 74.2 L116.7 74.0 L116.6 74.0 L115.3 74.0 L115.0 73.9 L114.8 73.8 L114.5 73.7 L114.0 73.6 L113.5 73.3 L113.2 72.5 L112.8 71.1 L112.7 71.1 L112.1 71.1 L111.9 71.0 L111.8 70.7 L111.8 70.3 L111.7 70.1 L111.6 69.8 L111.3 69.1 L111.2 68.8 L111.2 68.7 L109.6 68.3 L108.1 67.3 L104.8 64.3 L103.6 62.9 L103.1 61.8 L104.3 61.6 L104.3 61.3 L104.0 60.9 L104.1 60.4 L103.9 59.9 L103.9 59.8 L103.7 59.7 L102.7 59.2 L102.5 59.0 L102.3 58.5 L101.7 57.8 L101.0 57.0 L100.4 56.7 L102.2 55.9 L101.8 55.5 L101.2 55.3 L100.6 55.2 L100.0 54.9 L100.1 54.6 L100.0 53.0 L100.0 52.8 L99.1 52.0 L97.9 51.6 L97.4 51.1 L98.3 50.3 L98.3 50.1 L98.3 50.0 L98.0 49.8 L96.9 49.2 L97.5 48.9 L97.8 48.4 L97.8 47.9 L97.2 47.5 L96.5 47.7 L96.0 47.0 L95.4 46.4 L94.0 46.8 L93.9 46.6 L93.8 46.5 L93.7 46.3 L93.7 46.0 L94.7 45.7 L94.7 45.3 L93.4 44.8 L92.1 44.1 L91.2 43.1 L90.9 41.8 L91.0 41.5 L91.5 41.1 L91.6 40.8 L91.6 40.8 L91.3 40.5 L90.8 40.2 L90.4 40.1 L89.7 40.5 L88.8 40.2 L87.4 39.7 L87.4 39.4 L88.4 39.3 L89.0 38.9 L89.0 38.5 L87.2 38.0 L86.8 37.5 L86.5 36.9 L85.9 36.5 L85.4 36.8 L84.8 37.4 L84.3 37.6 L84.1 36.7 L83.8 36.3 L81.6 34.8 L81.1 35.0 L79.9 34.0 L79.0 33.7 L76.9 34.0 L75.9 33.9 L75.3 33.1 L74.8 33.7 L74.2 33.6 L73.0 32.9 L71.8 32.9 L69.4 33.7 Z" fill="#172033" fill-rule="evenodd"/></svg>
