<svg xmlns="http://www.w3.org/2000/svg" viewBox="0 0 320 200" role="img"><path d="M292.1 91.5 L294.6 89.6 L295.8 87.5 L295.6 85.5 L293.8 83.4 L298.0 85.5 L296.4 89.8 L291.8 93.6 L286.6 94.0 L287.8 93.1 L289.1 92.5 L292.1 91.5 Z M244.8 130.7 L236.6 129.6 L223.8 120.0 L215.0 118.0 L200.7 120.2 L194.1 117.3 L189.4 107.5 L192.4 111.5 L195.8 114.4 L199.8 115.9 L219.9 115.0 L224.0 115.9 L237.8 126.8 L244.8 130.7 Z M132.6 88.1 L124.3 92.9 L101.7 96.2 L92.3 101.2 L83.7 101.2 L73.4 99.7 L29.8 80.2 L22.0 74.1 L26.5 69.3 L26.6 72.3 L27.1 74.2 L28.6 77.7 L80.9 98.7 L84.4 98.6 L92.4 97.1 L99.0 94.8 L132.6 88.1 Z M255.8 105.1 L256.5 104.2 L256.9 103.5 L257.5 102.9 L258.5 102.7 L256.5 106.7 L253.8 110.3 L250.7 113.4 L247.1 116.0 L249.0 113.1 L255.8 105.1 Z" fill="#172033" fill-rule="evenodd"/></svg>
