<svg xmlns="http://www.w3.org/2000/svg" viewBox="0 0 320 200" role="img"><path d="M41.0 73.0 L43.4 74.9 L44.7 75.4 L46.3 75.3 L47.1 74.8 L48.2 73.3 L48.9 72.9 L49.8 73.4 L51.8 75.4 L52.8 76.0 L55.0 75.4 L56.2 74.4 L57.1 73.7 L58.8 71.5 L59.9 69.5 L59.9 69.2 L60.3 67.1 L60.0 66.1 L59.0 63.0 L59.1 60.7 L60.4 55.6 L61.4 53.4 L63.4 51.6 L66.0 50.5 L75.6 48.0 L82.9 46.2 L85.8 45.4 L88.4 44.5 L89.6 43.6 L93.1 41.1 L95.5 39.9 L96.3 39.9 L97.0 40.0 L98.4 40.6 L102.3 42.9 L105.9 45.5 L107.6 47.6 L108.6 49.0 L109.0 49.3 L109.8 50.0 L110.7 50.1 L115.1 50.8 L116.1 50.6 L116.3 49.9 L116.3 49.7 L116.3 47.6 L116.1 46.7 L115.8 46.2 L115.6 45.6 L115.7 44.7 L121.7 37.8 L122.4 37.4 L123.1 37.0 L124.9 36.9 L128.4 37.9 L129.5 37.8 L129.4 37.2 L128.7 36.3 L128.5 35.4 L130.2 34.7 L131.4 34.9 L132.3 35.7 L133.4 35.9 L133.9 35.5 L134.8 34.6 L136.7 35.5 L138.8 35.5 L143.1 34.6 L143.3 34.7 L144.4 35.2 L149.5 35.1 L153.1 35.8 L154.9 35.9 L156.4 35.2 L157.9 33.8 L159.2 33.2 L169.3 28.7 L171.3 28.3 L175.4 28.4 L176.2 28.2 L179.6 26.0 L180.7 25.6 L182.0 25.8 L187.5 27.9 L190.8 28.8 L192.7 29.0 L194.3 29.1 L197.8 28.6 L212.0 24.2 L214.7 22.1 L215.6 22.0 L216.0 22.5 L216.1 24.2 L216.4 25.0 L217.9 26.3 L219.6 27.2 L221.4 27.7 L223.4 27.8 L233.5 38.0 L237.4 40.2 L238.8 43.1 L240.0 44.7 L240.3 45.1 L242.5 46.7 L251.4 51.5 L252.3 51.9 L257.3 53.8 L260.4 54.2 L260.9 54.5 L261.2 55.0 L261.7 55.4 L262.4 55.6 L267.1 55.5 L268.1 55.6 L268.6 56.0 L268.8 56.6 L269.2 57.3 L270.0 57.8 L270.7 57.8 L272.3 57.4 L272.8 57.4 L274.0 58.0 L274.6 58.5 L274.7 59.2 L274.8 59.3 L274.8 60.6 L274.9 60.7 L275.7 61.8 L275.9 62.9 L276.1 65.3 L276.9 67.7 L278.0 70.0 L278.1 70.8 L278.1 72.3 L278.4 73.0 L278.5 73.2 L278.8 73.4 L280.0 73.9 L280.5 74.3 L281.1 75.5 L282.2 79.0 L284.4 82.9 L285.0 83.6 L286.2 84.0 L288.6 84.1 L289.7 84.5 L291.5 86.7 L291.6 89.1 L290.4 91.5 L289.1 93.1 L288.2 94.2 L287.5 95.7 L287.2 96.2 L286.6 96.4 L285.0 96.8 L284.5 97.2 L284.0 98.3 L283.7 99.7 L283.6 101.2 L283.8 102.6 L284.1 103.2 L285.1 104.3 L285.3 105.0 L285.2 105.6 L284.7 107.3 L284.8 108.9 L285.1 116.1 L285.2 116.6 L285.8 117.6 L285.9 118.2 L285.7 118.7 L284.5 119.8 L284.2 120.4 L284.4 122.6 L284.9 124.8 L284.5 126.7 L282.1 128.1 L272.7 127.6 L269.7 128.0 L268.1 128.2 L266.2 129.5 L265.1 130.2 L264.1 133.1 L264.0 133.5 L263.6 141.6 L262.6 145.5 L261.4 147.6 L260.3 148.2 L259.0 147.7 L257.2 146.5 L256.4 145.7 L255.9 144.9 L255.4 144.4 L255.3 144.3 L254.1 144.1 L252.6 144.4 L252.2 145.1 L252.3 146.1 L252.1 146.9 L250.3 148.6 L248.5 149.7 L248.2 149.8 L246.6 150.3 L244.3 150.4 L241.0 150.0 L239.4 150.0 L237.4 150.5 L236.0 150.8 L234.3 150.9 L231.3 150.8 L230.1 150.5 L227.9 149.4 L227.0 149.0 L225.7 149.0 L223.1 149.3 L221.2 149.4 L220.3 149.8 L219.7 149.7 L219.5 149.4 L219.3 148.0 L219.1 147.6 L218.1 147.4 L215.0 147.1 L211.1 146.2 L209.9 146.1 L209.1 146.0 L206.8 146.2 L204.5 147.0 L200.8 149.5 L198.6 150.1 L197.9 149.9 L194.5 148.5 L194.2 148.2 L194.0 147.7 L193.7 147.2 L193.0 147.0 L192.5 147.2 L191.5 148.1 L191.0 148.3 L184.4 149.8 L181.3 151.1 L180.4 151.6 L178.7 152.6 L177.9 153.2 L177.5 154.2 L177.4 155.9 L177.4 156.3 L177.2 157.0 L175.8 158.6 L172.1 161.3 L170.7 163.2 L170.7 163.2 L170.7 163.2 L166.8 165.3 L165.8 166.2 L165.6 167.1 L165.6 168.2 L165.3 169.3 L164.0 170.4 L163.1 170.5 L161.0 170.8 L155.7 169.9 L152.8 170.9 L152.6 171.3 L152.4 172.7 L152.0 173.2 L151.5 173.4 L150.0 173.3 L149.4 173.4 L148.4 174.0 L146.0 175.8 L145.1 176.3 L142.2 175.8 L137.7 172.8 L137.3 172.7 L129.5 171.9 L127.0 171.9 L124.6 172.8 L120.8 175.6 L119.2 176.3 L115.7 176.8 L112.2 176.8 L110.7 176.6 L106.9 176.0 L104.2 175.9 L96.9 177.5 L81.9 178.0 L81.8 175.3 L81.0 173.3 L79.3 172.1 L74.2 170.9 L68.8 170.3 L68.7 170.4 L66.7 170.7 L63.3 172.9 L61.5 173.5 L58.9 173.0 L57.8 172.3 L56.4 171.5 L55.0 169.1 L53.0 163.2 L51.0 156.5 L49.9 154.8 L48.8 154.2 L47.9 154.1 L47.7 154.1 L46.4 154.1 L45.0 154.0 L44.2 153.7 L42.1 153.0 L41.3 151.6 L41.4 149.7 L40.9 147.4 L39.3 145.1 L35.5 141.0 L34.2 138.4 L32.4 132.9 L31.9 129.8 L31.9 129.6 L32.3 127.6 L33.8 127.9 L35.2 127.2 L36.6 126.0 L37.5 124.6 L38.3 122.8 L38.3 121.5 L38.2 121.2 L37.7 120.2 L36.4 118.9 L35.7 118.5 L34.0 118.3 L33.2 117.8 L33.0 117.3 L32.8 115.6 L32.5 114.8 L32.3 114.5 L31.2 112.9 L30.4 112.3 L29.2 111.9 L28.5 110.4 L28.8 107.6 L28.4 106.2 L33.4 105.4 L34.9 104.9 L36.3 104.3 L37.2 103.6 L37.7 102.5 L37.7 102.3 L37.7 101.6 L35.5 96.9 L35.0 94.7 L34.2 87.3 L34.5 86.2 L35.3 84.8 L36.3 83.8 L38.7 82.1 L39.4 81.2 L39.3 80.5 L39.1 79.0 L38.3 76.5 L38.3 75.9 L38.4 74.2 L41.0 73.0 Z" fill="#172033" fill-rule="evenodd"/></svg>
