<svg xmlns="http://www.w3.org/2000/svg" viewBox="0 0 320 200" role="img"><path d="M73.4 129.3 L73.5 129.4 L73.8 129.4 L74.0 129.4 L74.5 129.3 L74.7 129.2 L74.8 129.3 L75.3 129.7 L75.4 129.8 L75.5 129.6 L75.5 129.5 L75.6 129.4 L75.8 129.5 L76.0 129.5 L76.2 129.4 L76.4 129.3 L76.7 128.9 L76.8 128.8 L77.2 128.7 L77.4 128.6 L77.6 128.5 L77.7 128.4 L77.7 128.3 L77.8 128.2 L77.8 128.1 L77.8 128.1 L77.9 128.1 L78.0 128.0 L78.0 128.0 L78.0 127.9 L78.0 127.8 L77.9 127.8 L77.9 127.7 L78.0 127.4 L78.0 127.2 L78.1 127.0 L78.1 127.0 L78.1 126.8 L78.1 126.7 L78.0 126.5 L77.9 126.4 L77.8 126.4 L77.8 126.5 L77.7 126.5 L77.6 126.4 L77.6 126.4 L77.6 126.1 L77.8 125.7 L77.8 125.5 L77.7 125.4 L77.7 125.3 L77.8 125.1 L78.0 124.5 L78.0 124.0 L78.1 123.9 L78.4 123.1 L78.6 122.4 L78.7 122.0 L79.0 121.8 L79.0 121.6 L79.0 121.3 L79.3 121.3 L79.3 121.3 L79.6 121.4 L79.9 121.4 L80.2 121.3 L80.6 120.9 L80.7 120.8 L81.0 120.7 L81.1 120.7 L81.2 120.6 L81.3 120.5 L81.3 120.5 L81.3 120.4 L81.2 120.3 L81.2 120.3 L81.1 120.3 L81.1 120.3 L81.1 120.2 L81.1 120.2 L81.2 120.2 L81.8 120.3 L82.1 120.4 L82.3 120.6 L83.3 122.0 L83.5 122.2 L86.2 124.1 L86.5 124.4 L86.8 125.0 L87.2 125.4 L87.5 125.9 L87.6 125.7 L87.8 125.1 L87.9 124.9 L88.2 124.7 L88.3 124.5 L88.4 124.1 L88.5 123.9 L88.6 123.8 L88.7 123.7 L88.8 123.7 L88.9 123.7 L89.0 123.6 L89.2 123.5 L89.3 123.4 L89.4 123.2 L89.4 122.7 L89.4 122.5 L89.5 122.4 L89.7 122.4 L90.3 122.5 L90.8 122.5 L91.0 122.5 L91.0 122.5 L91.3 122.4 L91.5 122.3 L91.7 122.4 L91.9 122.3 L93.0 122.4 L93.2 122.4 L93.8 122.4 L93.9 122.4 L94.8 122.7 L94.9 122.7 L95.1 122.7 L95.2 122.7 L95.4 122.8 L95.8 123.1 L96.0 123.1 L96.4 123.1 L97.7 123.0 L98.9 123.1 L99.3 123.0 L99.9 122.6 L100.1 122.5 L100.6 122.4 L103.2 122.3 L103.1 121.8 L102.9 121.1 L102.9 120.8 L103.1 120.5 L103.7 119.8 L103.9 119.6 L104.2 119.7 L104.2 120.1 L104.0 120.8 L104.0 121.8 L105.8 121.8 L106.2 121.8 L107.4 121.8 L107.6 121.8 L108.6 121.8 L109.3 121.8 L110.1 121.8 L110.9 121.8 L111.8 121.8 L113.2 121.8 L114.7 121.8 L116.3 121.8 L118.0 121.8 L119.7 121.8 L121.4 121.8 L123.2 121.8 L125.0 121.8 L126.8 121.8 L128.6 121.8 L130.4 121.8 L132.1 121.8 L133.7 121.8 L135.3 121.8 L135.8 121.8 L136.8 121.8 L138.2 121.8 L139.0 121.8 L139.8 121.8 L140.5 121.8 L141.2 121.8 L142.6 121.8 L144.2 121.8 L144.2 121.8 L144.2 121.8 L144.2 121.8 L144.2 121.8 L144.2 121.8 L144.2 121.8 L144.3 121.8 L144.3 121.8 L144.3 121.8 L144.3 121.8 L144.3 121.8 L144.3 121.8 L144.3 121.8 L144.3 121.8 L144.3 121.8 L144.3 121.8 L144.3 121.8 L144.3 121.8 L144.3 121.8 L144.3 121.8 L144.3 121.8 L144.3 121.8 L144.3 121.8 L144.3 121.8 L144.3 121.8 L144.3 121.8 L144.3 121.8 L144.3 121.8 L144.3 121.8 L144.3 121.8 L144.3 121.8 L144.3 121.8 L144.3 121.7 L144.3 121.7 L144.3 121.6 L144.3 121.6 L144.3 121.5 L144.5 120.5 L144.7 119.5 L144.9 118.5 L145.1 117.5 L145.3 116.5 L145.5 115.5 L145.7 114.5 L145.9 113.5 L145.9 113.2 L145.9 113.1 L145.9 113.1 L145.9 113.0 L145.8 112.9 L145.4 112.7 L145.0 112.4 L144.6 112.1 L144.1 111.8 L143.7 111.5 L143.3 111.3 L143.2 111.1 L143.1 110.9 L143.1 110.5 L143.0 109.5 L142.8 108.6 L142.7 107.7 L142.6 106.7 L142.5 105.8 L142.4 104.8 L142.3 103.9 L142.2 102.9 L142.1 102.0 L142.0 101.0 L141.9 100.1 L141.8 99.1 L141.7 98.2 L141.6 97.2 L141.5 96.3 L141.4 95.3 L141.3 94.4 L141.2 93.4 L141.1 92.4 L141.0 91.4 L140.9 90.5 L140.7 89.5 L140.6 88.5 L140.5 87.5 L140.4 86.6 L140.3 85.6 L140.2 84.6 L140.1 83.6 L140.0 83.0 L140.0 82.4 L139.9 81.8 L139.8 81.2 L139.7 79.8 L139.7 79.8 L139.5 78.4 L139.4 77.1 L139.2 75.8 L139.1 74.5 L138.9 73.2 L138.8 71.9 L138.6 70.6 L138.5 69.3 L138.3 68.1 L138.3 67.5 L138.1 66.2 L138.0 64.8 L137.9 64.2 L137.7 62.9 L137.6 61.6 L137.4 60.4 L137.3 59.1 L137.1 57.8 L137.0 56.6 L136.8 55.3 L136.7 54.0 L136.5 52.8 L136.4 51.5 L136.2 50.2 L136.1 49.0 L136.0 47.7 L135.8 46.4 L135.7 45.2 L135.5 43.9 L135.4 42.6 L135.2 41.6 L135.2 41.4 L135.1 40.1 L134.9 38.8 L134.8 37.6 L134.6 36.3 L134.5 35.0 L134.3 33.8 L134.2 33.1 L134.1 31.7 L133.9 30.3 L133.8 29.6 L133.8 29.6 L133.7 28.7 L133.6 27.9 L133.5 27.0 L133.4 26.2 L133.3 25.4 L133.2 24.5 L133.1 23.7 L133.0 22.8 L132.9 22.0 L135.2 22.0 L137.6 22.0 L139.9 22.0 L142.2 22.0 L144.5 22.0 L146.9 22.0 L149.2 22.0 L151.5 22.0 L151.5 22.0 L151.5 22.0 L151.5 22.0 L152.3 22.5 L153.1 23.0 L153.9 23.5 L154.7 24.0 L155.9 24.8 L156.7 25.3 L157.6 25.9 L158.4 26.4 L159.2 27.0 L160.1 27.5 L160.9 28.1 L161.8 28.6 L162.6 29.1 L163.4 29.7 L164.3 30.2 L165.1 30.8 L165.9 31.3 L166.8 31.9 L167.6 32.4 L168.5 33.0 L169.3 33.5 L170.2 34.1 L171.1 34.7 L172.0 35.3 L172.9 35.9 L173.8 36.5 L174.7 37.1 L175.7 37.7 L176.6 38.3 L177.5 38.9 L178.4 39.5 L179.3 40.1 L180.2 40.7 L181.1 41.3 L182.0 41.9 L182.9 42.4 L183.8 43.0 L184.8 43.6 L185.7 44.2 L186.6 44.8 L187.5 45.4 L188.4 46.0 L189.3 46.6 L190.2 47.2 L191.1 47.8 L192.0 48.4 L192.9 49.0 L193.9 49.6 L194.8 50.2 L195.7 50.8 L196.6 51.4 L197.5 52.0 L198.4 52.6 L199.3 53.2 L200.2 53.8 L201.1 54.3 L202.0 54.9 L202.2 55.0 L203.0 55.5 L203.9 56.1 L204.8 56.7 L205.7 57.3 L206.6 57.9 L207.5 58.5 L208.4 59.1 L209.3 59.7 L210.2 60.3 L211.1 60.9 L212.1 61.5 L213.0 62.1 L214.2 62.9 L214.3 63.1 L214.5 63.8 L214.5 64.0 L214.4 65.2 L214.2 66.1 L214.2 66.3 L214.2 66.6 L214.3 66.7 L214.4 66.8 L214.7 66.8 L214.9 66.8 L215.3 66.7 L215.5 66.7 L215.8 66.8 L215.9 66.9 L216.1 67.2 L216.3 67.4 L216.5 67.5 L216.9 67.7 L217.4 67.7 L217.5 67.8 L217.7 67.9 L218.1 68.0 L218.5 68.2 L219.2 68.7 L219.4 69.0 L219.5 69.3 L219.5 70.1 L219.6 70.3 L220.8 71.3 L221.0 71.4 L221.3 71.4 L221.5 71.3 L221.6 71.4 L221.8 71.5 L221.9 71.7 L221.9 71.9 L222.0 72.0 L222.2 72.0 L222.4 72.0 L222.5 71.8 L222.7 71.8 L222.8 71.8 L222.9 71.8 L223.0 71.9 L223.1 72.0 L223.8 72.2 L223.9 72.2 L224.2 72.1 L224.6 71.7 L224.9 71.6 L225.1 71.5 L225.3 71.6 L225.4 71.7 L226.1 72.2 L226.5 72.6 L226.8 73.0 L227.2 73.7 L227.4 73.9 L227.5 73.9 L227.8 74.0 L228.0 74.0 L228.4 74.2 L228.6 74.3 L228.7 74.3 L229.6 74.5 L230.2 74.5 L233.1 75.1 L234.4 75.6 L235.0 76.1 L235.2 76.2 L235.6 76.3 L235.7 76.3 L235.9 76.5 L235.9 76.6 L235.7 78.7 L235.8 79.1 L235.9 79.5 L235.9 79.6 L236.0 79.6 L236.1 79.7 L236.1 79.8 L236.1 79.8 L236.0 80.0 L236.0 80.1 L236.1 80.3 L236.3 80.5 L236.4 80.6 L236.4 80.9 L236.3 81.1 L236.1 81.3 L235.9 81.4 L235.7 81.5 L235.6 81.7 L235.5 82.1 L235.5 82.3 L235.3 82.5 L235.1 82.6 L235.1 82.7 L235.0 82.9 L234.8 83.2 L234.7 83.3 L234.8 83.5 L234.9 83.8 L235.1 83.9 L235.3 84.1 L235.5 84.2 L236.0 84.4 L236.7 85.0 L236.9 85.1 L237.0 85.2 L237.2 85.2 L237.4 85.2 L238.3 85.0 L238.3 85.0 L239.4 84.8 L241.2 84.5 L242.0 84.3 L243.0 84.1 L244.8 83.8 L246.6 83.5 L246.6 84.8 L246.6 86.1 L246.6 87.4 L246.6 88.7 L246.6 88.7 L246.6 90.0 L246.6 91.3 L246.6 92.6 L246.6 93.9 L246.6 95.1 L246.6 95.7 L246.6 96.4 L246.6 97.7 L246.6 99.0 L246.6 100.3 L246.6 101.6 L246.6 102.9 L246.6 104.2 L246.6 104.9 L246.6 106.0 L246.5 106.1 L246.4 106.1 L246.3 106.1 L246.2 106.3 L246.2 106.5 L246.3 107.5 L246.2 107.7 L246.1 107.9 L246.1 108.0 L246.1 108.6 L246.1 110.0 L246.1 110.9 L246.1 112.1 L246.0 112.3 L245.9 112.5 L245.4 112.7 L245.2 112.9 L245.0 113.1 L244.8 113.3 L243.9 115.6 L243.8 115.8 L243.9 116.1 L244.0 116.4 L244.0 116.5 L244.0 116.5 L244.0 116.5 L244.0 116.5 L244.0 116.6 L244.0 116.6 L244.0 116.6 L243.4 117.2 L243.2 117.5 L243.1 117.7 L243.1 118.7 L243.0 119.1 L242.8 119.4 L242.8 119.5 L242.5 119.8 L242.1 120.0 L241.3 120.1 L240.9 120.3 L240.1 121.2 L239.2 121.8 L239.1 122.0 L239.0 123.2 L238.8 123.2 L238.7 123.2 L237.7 123.0 L235.7 122.7 L234.4 122.5 L234.0 122.5 L233.8 122.5 L233.8 122.6 L233.7 122.7 L233.7 122.9 L233.7 123.3 L233.7 123.4 L233.1 123.4 L232.1 123.5 L231.1 123.5 L230.1 123.5 L229.1 123.6 L228.1 123.6 L227.1 123.6 L226.0 123.7 L225.0 123.7 L224.0 123.7 L223.0 123.8 L222.0 123.8 L221.0 123.8 L220.0 123.9 L218.9 123.9 L217.9 123.9 L216.9 124.0 L216.1 124.0 L215.8 124.1 L215.5 124.2 L214.8 124.9 L213.9 125.6 L213.3 126.3 L212.4 127.1 L212.1 127.2 L211.8 127.2 L210.2 127.3 L209.9 127.4 L209.6 127.5 L209.3 127.6 L209.2 127.6 L207.6 127.0 L207.2 127.0 L206.6 127.3 L206.2 127.3 L205.9 127.3 L204.5 127.0 L204.4 127.1 L204.4 127.4 L204.4 127.9 L201.8 127.0 L201.8 127.0 L200.4 126.4 L199.7 126.3 L199.0 126.4 L198.4 126.8 L198.0 126.9 L197.7 126.9 L197.6 126.8 L197.3 126.2 L197.2 126.1 L196.9 126.1 L194.6 126.1 L194.2 126.2 L194.1 126.4 L193.9 126.5 L193.4 127.0 L193.4 127.0 L191.2 128.9 L191.2 128.9 L190.8 129.1 L190.4 129.3 L188.4 129.7 L188.0 130.0 L184.3 132.3 L183.6 132.4 L182.9 132.4 L182.0 132.4 L181.5 132.4 L181.2 132.5 L181.1 132.8 L180.9 135.4 L180.9 135.5 L180.8 135.6 L180.3 135.8 L180.1 135.9 L179.9 135.9 L179.6 135.8 L177.1 134.7 L176.3 134.5 L175.7 134.7 L174.9 135.1 L174.6 135.3 L174.1 136.0 L173.9 136.2 L172.3 137.0 L172.0 137.5 L172.1 137.4 L172.1 137.5 L172.2 137.5 L172.2 137.5 L171.8 138.9 L171.6 139.2 L171.4 139.6 L171.5 140.1 L171.8 141.1 L171.4 141.3 L171.0 141.4 L170.9 141.4 L170.9 141.4 L170.8 141.3 L170.7 141.3 L170.5 141.3 L170.4 141.3 L170.2 141.4 L170.1 141.6 L169.9 141.6 L169.9 141.4 L169.8 141.3 L169.8 141.2 L169.6 141.0 L169.3 140.9 L169.1 140.9 L168.9 140.9 L168.6 140.9 L168.1 140.5 L167.8 140.4 L167.6 140.6 L167.9 140.8 L167.9 141.1 L167.9 141.6 L167.8 141.9 L167.7 142.3 L168.0 144.9 L167.9 145.0 L166.2 145.1 L165.9 145.2 L165.9 145.5 L166.0 145.8 L166.0 146.0 L165.9 146.2 L165.8 146.2 L165.7 146.2 L165.2 146.1 L165.0 146.1 L164.9 146.1 L164.8 146.1 L164.7 145.9 L164.6 145.9 L164.5 145.9 L164.4 145.9 L163.5 145.2 L163.0 144.9 L162.3 144.3 L162.1 144.2 L161.6 144.1 L161.3 144.0 L161.1 144.0 L160.9 144.0 L160.7 144.0 L160.4 143.9 L160.3 143.8 L160.4 143.7 L160.5 143.6 L160.8 143.4 L160.8 143.4 L160.9 143.4 L161.0 143.3 L161.0 143.2 L161.0 143.2 L160.7 143.2 L160.6 143.1 L160.6 143.1 L160.5 142.8 L160.5 142.8 L160.5 142.8 L160.4 142.7 L160.4 142.7 L160.3 142.7 L160.3 142.8 L160.2 142.9 L160.2 143.0 L160.4 143.0 L160.4 143.0 L160.4 143.1 L160.3 143.2 L160.1 143.4 L160.0 143.4 L159.9 143.4 L159.7 143.6 L159.6 143.7 L159.3 143.7 L159.2 143.8 L159.1 143.9 L158.9 144.1 L158.8 144.6 L158.6 144.8 L158.4 145.0 L158.3 145.1 L158.2 145.1 L158.1 145.1 L158.0 145.1 L157.8 145.2 L157.6 145.4 L157.5 145.6 L157.4 145.7 L157.5 145.8 L157.7 145.9 L157.8 146.0 L157.7 146.1 L157.6 146.2 L156.9 146.1 L156.7 146.2 L156.6 146.5 L156.5 146.6 L156.5 146.7 L156.5 146.9 L156.5 146.9 L156.8 147.2 L157.1 147.8 L157.2 148.0 L157.5 148.3 L157.7 148.5 L157.8 148.8 L157.8 149.4 L157.9 149.9 L157.9 150.0 L157.7 150.7 L157.6 150.8 L157.6 150.8 L157.4 150.9 L157.2 151.0 L157.0 151.0 L156.9 150.9 L156.6 150.8 L156.3 150.7 L155.9 150.7 L155.6 150.8 L155.3 150.9 L155.2 151.0 L155.1 150.9 L155.1 151.0 L155.0 151.5 L155.1 151.7 L155.5 152.0 L155.7 152.2 L155.9 152.7 L156.0 152.8 L156.1 152.9 L156.1 152.9 L156.0 153.0 L155.9 153.2 L155.7 153.4 L155.5 153.6 L155.4 153.9 L155.8 154.8 L155.9 155.2 L155.6 155.3 L155.5 155.2 L155.4 155.1 L155.3 155.0 L155.1 155.0 L155.0 155.1 L155.0 155.2 L155.0 155.3 L155.0 155.4 L155.0 155.5 L155.0 155.6 L154.9 155.6 L154.0 156.4 L154.3 156.9 L154.2 157.0 L153.8 157.0 L153.5 157.2 L153.4 157.4 L153.3 157.6 L153.3 157.7 L153.3 157.7 L153.1 157.8 L153.0 157.8 L152.8 157.8 L152.6 157.8 L152.5 157.9 L152.5 158.1 L152.4 158.2 L152.3 158.3 L152.2 158.4 L151.9 158.4 L151.7 158.5 L151.5 158.3 L151.3 158.3 L150.8 158.5 L150.6 158.5 L150.4 158.4 L150.1 158.4 L149.9 158.5 L149.8 158.6 L149.7 158.6 L149.6 158.7 L149.5 158.7 L149.3 158.7 L148.9 158.7 L148.7 158.7 L148.6 158.8 L148.2 159.0 L147.9 159.1 L147.7 159.2 L147.4 159.5 L147.0 159.8 L146.8 160.1 L146.8 160.2 L146.7 160.2 L146.6 160.2 L146.6 160.1 L146.5 160.1 L146.4 160.1 L146.4 160.1 L146.3 160.2 L146.3 160.2 L145.9 160.2 L145.9 160.3 L145.8 160.3 L145.8 160.4 L145.7 160.3 L145.6 160.2 L145.5 160.2 L145.4 160.2 L145.3 160.3 L145.3 160.3 L145.4 160.4 L145.4 160.5 L145.7 160.6 L145.8 160.7 L145.9 160.6 L146.0 160.6 L146.1 160.7 L146.3 160.8 L146.5 160.9 L146.6 161.0 L146.7 161.2 L146.7 161.4 L146.7 161.6 L146.6 162.0 L146.6 162.1 L146.5 162.2 L146.4 162.4 L146.4 162.5 L146.5 162.6 L146.6 162.6 L146.7 162.6 L146.8 162.6 L147.2 162.9 L147.3 163.3 L147.3 164.2 L147.3 164.4 L147.4 164.5 L147.3 164.6 L147.0 164.7 L146.9 164.9 L146.8 165.1 L146.9 166.2 L146.9 166.3 L146.8 166.5 L146.4 166.9 L146.3 167.1 L146.3 167.5 L146.2 167.7 L145.9 167.8 L145.7 167.9 L145.6 168.0 L144.5 168.1 L144.4 168.2 L144.3 168.4 L144.3 168.5 L144.4 169.0 L144.4 169.3 L144.6 169.2 L144.8 169.5 L145.0 170.3 L145.1 170.5 L145.1 170.6 L145.0 171.2 L145.0 171.3 L145.0 171.4 L144.9 171.4 L144.8 171.5 L144.7 171.6 L144.7 171.7 L144.6 172.3 L144.6 172.4 L144.6 172.6 L144.7 172.6 L144.8 172.7 L144.7 172.8 L144.6 173.0 L144.6 173.1 L144.7 173.2 L144.7 173.3 L144.6 173.8 L144.3 174.2 L144.3 174.3 L144.2 174.9 L144.2 175.0 L143.9 174.9 L143.6 174.7 L143.5 174.7 L143.4 174.7 L143.1 174.8 L142.5 174.8 L141.2 175.1 L140.4 175.5 L140.3 175.6 L140.1 175.8 L140.1 176.0 L140.1 176.6 L140.0 176.7 L139.5 176.5 L139.4 176.6 L139.4 176.9 L139.3 177.1 L139.2 177.3 L139.0 177.5 L138.0 177.5 L137.2 177.2 L137.1 177.1 L136.9 176.9 L136.8 176.8 L136.6 176.8 L136.6 176.4 L136.6 176.3 L136.7 176.2 L136.8 176.2 L136.8 176.2 L136.9 176.2 L137.0 176.2 L137.0 176.2 L137.0 176.1 L137.0 176.0 L137.0 176.0 L137.2 175.7 L137.1 175.6 L137.1 175.4 L137.3 175.1 L137.1 174.9 L137.0 174.8 L137.1 174.7 L137.2 174.5 L137.2 174.4 L137.1 174.3 L137.1 174.3 L137.0 174.3 L136.9 174.3 L136.8 174.3 L136.8 174.2 L136.7 174.1 L136.6 174.1 L136.5 174.1 L136.5 174.1 L136.4 174.1 L136.4 173.9 L136.5 173.8 L136.6 173.7 L136.7 173.6 L136.7 173.5 L136.7 173.3 L136.6 173.2 L136.7 173.1 L136.8 173.0 L136.9 173.0 L137.0 172.9 L137.0 172.8 L136.9 172.7 L136.8 172.6 L136.6 172.6 L136.5 172.5 L136.6 172.0 L136.6 171.9 L136.5 171.8 L136.2 171.9 L136.0 172.0 L135.8 172.1 L135.6 172.2 L135.3 172.2 L135.1 172.2 L134.8 172.2 L134.7 172.3 L134.6 172.5 L134.6 172.9 L134.6 173.0 L134.7 173.1 L134.9 173.2 L135.0 173.2 L134.9 173.5 L134.7 173.6 L134.5 173.7 L134.2 173.7 L133.7 173.5 L133.5 173.5 L133.1 173.3 L132.9 173.1 L132.7 173.0 L132.5 172.6 L132.4 172.5 L132.1 172.6 L132.1 172.6 L132.0 172.9 L132.0 172.9 L131.9 173.1 L131.9 173.3 L131.9 173.4 L131.9 173.4 L132.0 173.5 L131.9 174.0 L131.8 174.3 L131.8 174.5 L132.0 174.7 L132.1 174.8 L132.2 174.8 L132.3 174.8 L132.3 174.9 L132.3 175.0 L132.3 175.1 L132.2 175.2 L132.2 175.3 L132.1 175.6 L132.1 175.7 L132.0 175.8 L131.8 175.9 L131.6 175.9 L131.2 175.6 L130.9 175.6 L130.7 175.6 L130.1 175.9 L129.9 175.9 L129.3 175.8 L129.1 175.8 L128.9 176.0 L128.7 176.8 L128.7 177.0 L128.8 177.1 L128.9 177.1 L129.0 177.3 L129.1 177.5 L128.9 177.7 L128.7 177.9 L128.5 178.0 L128.2 178.0 L128.0 177.8 L127.9 177.6 L127.7 177.4 L127.5 177.3 L126.5 177.0 L125.7 176.9 L125.0 176.9 L124.8 176.8 L124.7 176.7 L124.7 176.4 L124.8 176.0 L124.7 175.9 L124.5 175.8 L124.2 175.9 L124.1 176.0 L124.0 176.0 L124.0 175.9 L124.0 175.8 L124.0 175.7 L123.8 175.4 L123.8 175.3 L123.7 175.2 L123.8 175.1 L123.7 175.0 L123.7 174.8 L123.6 174.7 L123.5 174.7 L123.4 174.7 L123.2 174.7 L123.0 175.0 L122.9 175.1 L122.8 175.1 L122.6 175.1 L122.5 175.1 L122.3 175.1 L121.9 174.8 L121.7 174.9 L121.6 175.0 L121.6 175.1 L121.5 175.2 L121.4 175.2 L121.3 175.2 L121.2 175.2 L121.1 175.4 L121.1 175.4 L121.0 175.4 L120.9 175.5 L121.0 175.7 L120.9 175.8 L120.7 176.0 L120.5 176.0 L120.6 176.2 L120.5 176.4 L120.5 176.5 L120.4 176.6 L120.3 176.7 L120.3 176.7 L120.2 176.9 L120.2 176.9 L119.9 177.2 L119.8 177.3 L119.7 177.4 L119.6 177.4 L119.4 177.5 L119.3 177.5 L119.1 177.7 L118.9 177.8 L118.7 177.8 L118.4 177.8 L118.3 177.8 L118.5 177.3 L118.5 177.0 L118.5 176.8 L118.4 176.5 L118.3 176.2 L118.2 176.0 L118.0 175.9 L117.4 175.9 L117.1 175.8 L116.9 175.7 L116.9 175.6 L116.9 175.3 L116.8 175.1 L116.7 175.0 L116.7 175.0 L116.6 175.0 L116.4 175.1 L116.2 175.1 L115.9 175.1 L115.7 175.0 L115.5 174.5 L115.2 174.1 L115.0 173.8 L114.9 171.7 L114.8 171.6 L114.6 171.5 L114.6 171.2 L114.8 170.7 L114.9 170.6 L114.9 170.5 L115.0 170.3 L114.9 169.2 L114.9 169.0 L114.7 168.7 L114.5 168.5 L114.3 168.4 L114.1 168.4 L113.9 168.5 L113.8 168.5 L113.6 168.5 L113.5 168.4 L113.4 168.5 L113.2 168.5 L113.0 168.4 L112.8 168.4 L112.6 169.0 L112.5 169.1 L112.3 169.3 L112.1 169.3 L111.9 169.3 L111.7 169.3 L111.5 169.3 L111.3 169.3 L111.2 169.4 L111.0 169.5 L110.8 169.4 L110.8 169.2 L110.8 169.0 L110.9 168.8 L111.0 168.7 L111.5 168.2 L111.6 168.0 L111.6 167.9 L111.6 167.8 L111.6 167.7 L111.7 167.6 L111.8 167.5 L112.0 167.5 L112.1 167.5 L112.2 167.3 L112.2 166.9 L112.3 166.8 L112.4 166.7 L112.6 166.6 L112.7 166.6 L112.8 166.6 L112.9 166.5 L112.9 166.5 L112.9 166.4 L112.9 166.4 L112.9 166.3 L112.9 166.3 L113.0 166.1 L113.1 166.0 L113.5 166.1 L113.7 166.1 L113.9 166.1 L114.1 166.0 L114.2 165.9 L114.2 165.6 L114.1 165.6 L113.9 165.6 L113.8 165.6 L113.7 165.4 L113.8 165.3 L114.0 165.2 L114.2 165.1 L114.0 164.9 L113.7 164.8 L113.0 164.6 L112.7 164.6 L112.6 164.5 L112.5 164.4 L112.5 164.2 L112.4 164.0 L112.4 163.8 L112.1 164.0 L111.8 164.0 L111.2 163.8 L111.1 163.6 L111.0 163.4 L110.9 163.2 L110.9 163.0 L110.7 162.2 L110.5 162.1 L110.4 162.2 L110.2 162.3 L110.0 162.3 L109.8 162.2 L109.6 162.1 L109.4 162.0 L109.2 162.1 L109.8 159.4 L109.8 159.3 L109.7 159.2 L109.6 159.1 L109.6 158.9 L109.6 158.7 L109.6 158.5 L109.5 158.3 L109.3 158.2 L109.1 158.1 L108.9 158.2 L108.7 158.1 L108.5 158.0 L108.4 157.8 L108.5 157.6 L108.6 157.2 L108.6 156.9 L108.5 156.7 L108.4 156.5 L108.3 156.4 L108.0 156.5 L107.9 156.5 L107.8 156.4 L107.8 156.3 L107.7 156.1 L107.7 156.0 L107.7 155.7 L107.8 155.5 L107.9 155.3 L108.0 155.1 L108.0 154.8 L107.9 154.6 L107.7 154.4 L107.4 154.2 L106.1 153.6 L105.7 153.4 L104.9 153.3 L104.7 153.3 L104.6 153.3 L104.6 153.4 L104.4 153.3 L104.3 153.3 L104.2 153.2 L104.1 153.3 L104.0 153.4 L103.5 153.5 L103.3 153.7 L103.4 153.8 L103.5 154.0 L103.7 154.2 L104.0 154.3 L104.0 154.4 L104.0 154.5 L104.1 154.6 L104.2 154.6 L104.3 154.7 L104.4 154.7 L104.4 154.8 L104.4 155.0 L104.3 155.2 L104.1 155.2 L104.2 155.5 L104.1 155.6 L103.9 155.9 L103.2 155.8 L103.0 155.8 L102.6 156.0 L102.4 156.1 L102.2 156.3 L101.0 156.7 L100.7 156.9 L100.6 157.1 L100.5 157.2 L100.5 157.4 L100.5 157.6 L100.4 157.8 L100.3 157.9 L100.0 158.2 L99.5 158.2 L99.3 158.1 L99.2 158.1 L99.0 157.9 L98.9 157.9 L98.8 157.9 L98.6 157.9 L98.5 157.9 L98.3 157.8 L97.9 157.5 L97.8 157.5 L97.5 157.5 L97.2 157.3 L97.0 157.2 L96.8 157.1 L96.6 157.0 L96.5 156.9 L96.4 156.9 L96.2 156.9 L96.2 156.9 L96.1 156.9 L96.0 156.8 L95.9 156.7 L95.8 156.6 L95.7 156.6 L95.5 156.6 L95.3 156.6 L94.9 156.4 L94.5 156.4 L94.5 156.3 L94.4 156.2 L94.3 156.2 L93.9 156.3 L93.9 156.5 L93.8 156.5 L93.8 156.4 L93.7 156.3 L93.7 156.4 L93.7 156.5 L93.6 156.5 L93.5 156.5 L93.4 156.6 L93.4 156.7 L93.3 156.7 L93.2 156.6 L93.1 156.6 L93.0 156.7 L92.6 157.0 L92.6 157.0 L92.5 157.2 L92.0 157.2 L91.8 157.2 L91.8 157.3 L91.8 157.5 L91.8 157.6 L91.7 157.6 L91.7 157.7 L91.7 157.8 L91.7 157.9 L91.5 158.1 L91.3 158.2 L91.2 158.3 L91.3 158.5 L91.1 158.6 L90.9 158.7 L90.7 158.8 L90.6 158.9 L90.6 159.1 L90.5 159.3 L90.4 159.4 L90.3 159.5 L90.1 159.6 L89.7 159.6 L89.4 159.3 L88.9 158.5 L88.7 158.2 L88.6 158.1 L88.6 158.0 L88.7 157.8 L88.8 157.8 L88.7 157.5 L88.5 157.3 L88.3 157.2 L88.0 157.0 L87.6 156.4 L87.4 156.2 L87.1 156.2 L86.9 156.2 L86.5 156.3 L86.2 156.3 L86.1 156.3 L86.0 156.4 L85.9 156.9 L85.8 157.0 L85.4 157.3 L85.4 157.3 L85.4 157.3 L85.2 157.6 L85.1 157.6 L85.0 157.6 L85.0 157.7 L84.9 158.0 L84.8 158.2 L84.6 158.3 L84.5 158.4 L84.3 158.4 L84.0 158.5 L83.8 158.5 L83.5 158.4 L83.3 158.3 L83.1 158.2 L82.9 158.0 L82.5 157.5 L82.3 157.3 L81.7 157.1 L81.5 156.9 L81.3 156.5 L81.5 156.1 L81.8 155.8 L82.0 155.4 L82.0 155.2 L81.9 154.8 L81.9 154.5 L82.1 154.4 L82.4 154.5 L82.6 154.4 L82.6 154.2 L82.6 153.9 L82.7 153.7 L82.7 153.4 L82.5 153.2 L82.5 153.3 L82.4 153.4 L82.4 153.3 L82.3 153.2 L82.3 153.1 L82.3 152.9 L82.2 152.9 L82.1 153.1 L82.1 153.1 L82.0 153.1 L81.9 152.8 L81.8 152.8 L81.7 152.8 L81.8 152.7 L82.0 152.6 L82.0 152.5 L82.0 152.4 L82.0 152.3 L82.0 152.2 L82.1 151.9 L82.1 151.8 L82.0 151.7 L81.9 151.6 L81.8 151.6 L81.8 151.6 L81.8 151.4 L81.9 151.3 L81.9 151.3 L82.0 151.0 L82.2 150.9 L82.3 150.9 L82.4 150.8 L82.4 150.7 L82.3 150.5 L82.3 150.4 L82.4 150.4 L82.4 150.3 L82.4 150.1 L82.3 150.0 L82.3 149.9 L82.3 149.9 L82.2 149.8 L82.2 149.8 L82.2 149.8 L82.1 149.8 L82.1 149.8 L82.1 149.7 L82.1 149.6 L82.2 149.6 L82.2 149.5 L82.1 149.4 L82.2 149.3 L82.2 149.2 L82.3 149.1 L82.3 149.0 L82.2 148.9 L82.1 148.9 L82.2 148.8 L82.2 148.8 L82.3 148.8 L82.4 148.8 L82.4 148.8 L82.5 148.8 L82.6 148.7 L82.6 148.7 L82.6 148.4 L82.6 148.3 L82.5 148.2 L82.4 148.1 L82.4 148.3 L82.3 148.4 L82.2 148.4 L82.0 148.4 L82.1 148.3 L82.1 148.1 L82.1 148.0 L82.1 148.0 L82.2 147.9 L82.2 147.9 L82.1 147.8 L82.1 147.8 L82.0 147.7 L82.0 147.6 L81.8 147.4 L81.8 147.3 L81.9 147.3 L81.9 147.2 L81.8 147.1 L81.6 147.1 L81.5 147.0 L81.4 146.9 L81.2 146.8 L81.0 146.8 L81.0 146.6 L81.0 146.3 L80.9 146.1 L80.8 146.0 L80.7 145.9 L80.6 145.7 L80.7 145.6 L80.8 145.4 L80.8 145.3 L80.8 145.2 L80.5 145.0 L80.3 144.6 L80.2 144.4 L80.2 144.2 L80.1 144.2 L80.0 144.2 L79.9 144.2 L79.8 144.1 L79.9 144.0 L79.8 143.9 L79.6 143.9 L79.3 144.0 L79.2 144.0 L79.1 143.9 L79.1 143.8 L79.0 143.7 L78.9 143.7 L78.7 143.8 L78.6 143.9 L78.5 144.2 L78.5 144.4 L78.1 144.7 L78.0 144.7 L77.9 144.7 L77.8 144.6 L77.8 144.6 L77.7 144.4 L77.7 144.3 L77.6 144.2 L77.3 144.1 L77.2 144.1 L77.2 144.0 L77.3 143.4 L77.4 143.2 L77.3 143.1 L77.2 143.0 L77.1 143.0 L77.0 143.0 L76.9 142.9 L76.8 142.8 L76.8 142.7 L76.2 142.3 L76.0 142.0 L75.7 141.7 L75.6 141.3 L75.4 140.9 L75.3 140.7 L75.1 140.6 L76.0 140.1 L76.4 139.7 L76.5 139.3 L76.6 138.8 L76.6 138.6 L76.5 138.4 L76.3 138.2 L76.1 138.1 L76.0 137.9 L75.9 137.6 L75.9 137.2 L76.1 136.4 L76.2 136.0 L76.2 135.7 L75.8 134.8 L75.7 134.7 L75.5 134.6 L75.1 134.4 L75.0 134.3 L74.9 134.2 L74.8 134.1 L75.0 134.0 L75.0 133.9 L74.9 133.7 L73.9 133.4 L73.8 133.4 L73.8 132.9 L73.8 132.7 L73.7 132.2 L73.7 132.0 L73.7 131.8 L73.9 131.7 L74.0 131.6 L74.0 131.5 L74.0 131.4 L74.1 131.3 L74.1 131.2 L74.3 131.0 L74.4 130.9 L74.4 130.7 L74.3 130.7 L74.2 130.6 L74.1 130.6 L74.1 130.5 L74.1 130.4 L74.2 130.3 L74.2 130.2 L74.1 130.2 L74.0 130.1 L73.8 130.1 L73.7 130.0 L73.7 129.8 L73.4 129.6 L73.4 129.3 Z" fill="#172033" fill-rule="evenodd"/></svg>
