<svg xmlns="http://www.w3.org/2000/svg" viewBox="0 0 320 200" role="img"><path d="M270.4 74.6 L268.5 77.2 L268.4 77.4 L266.6 80.1 L264.8 82.7 L264.8 82.9 L264.9 83.2 L264.9 83.3 L264.7 83.6 L262.8 85.7 L262.7 85.8 L262.7 86.0 L262.7 86.1 L262.8 87.9 L262.8 88.1 L262.5 88.3 L260.5 88.9 L260.3 89.1 L260.3 89.2 L260.6 90.3 L260.7 90.8 L260.8 91.0 L261.0 91.2 L263.2 92.7 L263.7 92.9 L264.2 92.7 L265.2 91.9 L266.0 91.5 L266.6 91.4 L268.2 91.6 L268.8 91.6 L270.9 91.3 L271.5 91.3 L271.8 91.3 L272.8 91.6 L273.5 91.8 L273.7 91.8 L275.8 93.2 L276.2 93.2 L276.5 92.9 L276.8 92.5 L277.1 92.3 L277.6 92.0 L279.4 90.4 L279.6 90.3 L280.1 90.2 L281.4 90.2 L281.6 90.2 L282.2 90.0 L282.7 90.0 L283.2 90.0 L283.4 90.0 L283.8 90.2 L284.0 90.2 L285.7 90.3 L286.3 90.5 L286.8 90.9 L287.8 92.0 L288.2 92.3 L290.0 92.8 L290.7 93.0 L290.9 93.1 L291.1 93.2 L291.1 93.4 L291.2 94.0 L291.3 94.2 L291.4 94.3 L291.6 94.3 L292.4 94.6 L292.7 94.6 L292.9 94.7 L292.9 94.8 L292.9 94.9 L292.7 95.1 L292.6 95.2 L293.0 95.3 L294.3 96.1 L294.4 96.2 L294.5 96.4 L294.6 96.5 L294.7 96.6 L295.3 96.7 L295.6 96.9 L296.2 97.4 L296.5 97.7 L296.7 98.0 L296.7 98.1 L296.8 98.6 L296.8 98.7 L296.8 98.8 L296.8 98.8 L296.9 99.0 L297.2 99.2 L297.4 99.3 L297.4 99.4 L297.4 99.4 L297.5 99.5 L297.5 99.5 L297.6 99.6 L297.8 99.6 L297.9 99.6 L297.9 99.7 L297.9 99.7 L297.8 99.8 L297.8 99.9 L297.8 100.0 L297.8 100.0 L297.8 100.1 L297.9 100.1 L297.9 100.1 L298.0 100.1 L298.0 100.2 L297.9 100.2 L297.9 100.3 L297.9 100.5 L297.8 100.8 L297.8 100.9 L297.8 101.0 L298.0 101.1 L298.0 101.2 L298.0 101.3 L297.9 101.3 L297.9 101.4 L297.7 101.6 L297.5 101.7 L297.4 101.8 L297.2 101.8 L297.0 101.7 L296.9 101.7 L296.8 101.8 L296.7 102.0 L296.6 102.1 L296.4 102.2 L296.2 102.3 L296.1 102.3 L295.9 102.2 L295.6 102.1 L295.4 102.0 L295.2 102.0 L294.5 102.0 L294.1 102.0 L293.3 102.1 L292.9 102.1 L290.8 101.7 L290.5 101.6 L290.3 101.5 L290.1 101.1 L289.9 101.0 L289.8 101.0 L289.6 101.2 L289.4 101.3 L289.3 101.2 L289.2 101.1 L289.1 101.0 L289.1 100.9 L288.9 100.8 L288.6 100.9 L288.4 101.0 L288.1 101.4 L287.8 101.6 L287.5 101.5 L287.2 101.4 L286.9 101.3 L286.7 101.3 L286.5 101.4 L286.4 101.5 L285.7 101.5 L285.4 101.4 L284.8 101.2 L284.5 101.2 L284.2 101.1 L283.9 101.2 L283.7 101.2 L283.4 101.3 L283.1 101.5 L283.0 101.6 L282.5 101.6 L282.4 101.6 L281.7 102.0 L281.4 102.0 L281.0 102.1 L280.8 102.1 L280.6 102.2 L280.4 102.4 L280.2 102.7 L280.1 102.8 L279.9 102.9 L279.0 103.0 L278.8 102.9 L278.4 102.8 L278.3 102.6 L278.1 102.3 L277.9 102.2 L277.8 102.2 L277.4 102.4 L277.4 102.4 L277.3 102.4 L277.1 102.3 L276.4 102.5 L276.6 102.7 L276.6 102.9 L276.5 103.0 L276.2 103.3 L276.1 103.5 L276.1 104.1 L276.0 104.3 L275.6 104.4 L272.7 104.2 L271.6 104.0 L271.5 104.0 L271.4 104.1 L271.2 104.2 L270.7 104.5 L270.5 104.6 L270.0 104.6 L269.7 104.7 L269.5 104.8 L269.4 104.9 L269.2 105.1 L269.1 105.3 L269.0 105.4 L267.5 106.5 L266.3 108.1 L266.3 108.4 L266.4 108.6 L266.6 108.8 L266.6 109.0 L266.5 109.3 L265.9 109.9 L265.7 110.0 L265.3 110.1 L265.2 110.2 L265.0 110.2 L264.6 110.1 L264.5 110.1 L264.3 110.3 L262.5 111.4 L261.8 111.9 L261.6 112.0 L261.4 112.1 L260.0 112.4 L258.8 112.6 L257.0 112.6 L255.4 112.7 L255.1 112.7 L253.6 112.3 L253.4 112.3 L253.1 112.3 L251.9 112.6 L251.8 112.7 L251.8 112.8 L251.7 113.1 L251.6 113.3 L251.4 113.7 L250.9 114.2 L249.1 115.4 L248.7 115.6 L248.6 115.7 L248.5 115.8 L248.4 116.0 L248.1 116.3 L247.8 116.4 L247.5 116.6 L247.1 116.6 L246.6 116.7 L246.4 116.7 L245.9 117.1 L245.1 117.5 L244.5 117.9 L244.2 118.1 L243.9 118.2 L243.3 118.1 L243.2 118.1 L242.9 117.9 L242.8 117.9 L239.6 117.7 L238.9 117.5 L238.5 117.5 L236.6 117.1 L235.4 116.7 L235.2 116.6 L235.0 116.4 L234.7 116.0 L234.0 115.5 L233.7 115.4 L233.4 115.3 L231.1 115.4 L230.3 115.2 L230.0 115.2 L229.9 115.2 L229.8 115.2 L229.7 115.3 L229.6 115.3 L229.5 115.4 L229.4 115.5 L229.0 115.5 L228.8 115.6 L228.3 115.9 L228.1 116.0 L227.9 116.2 L226.3 118.6 L226.2 118.8 L226.2 118.9 L226.3 119.2 L226.3 119.4 L226.2 119.5 L226.1 119.6 L226.0 119.8 L225.7 120.2 L225.6 120.3 L225.6 120.3 L225.4 120.4 L225.2 120.7 L225.1 120.9 L225.0 121.2 L225.0 121.5 L225.1 121.7 L225.6 122.0 L225.8 122.1 L225.9 122.2 L225.9 122.6 L226.0 122.9 L226.3 123.2 L227.0 124.0 L227.3 124.2 L228.3 124.6 L228.5 124.8 L228.8 125.0 L229.6 126.1 L229.7 126.4 L229.7 126.6 L229.7 126.9 L229.6 127.1 L229.4 127.2 L229.2 127.2 L228.8 127.4 L228.2 127.4 L228.1 127.4 L226.7 128.6 L226.5 128.8 L226.2 128.9 L225.3 128.9 L225.0 129.0 L224.5 129.3 L222.4 130.0 L221.4 130.4 L221.0 130.6 L219.8 131.8 L218.8 132.6 L218.7 132.8 L218.5 133.2 L218.2 133.6 L217.9 133.9 L217.1 134.3 L216.9 134.5 L216.7 134.9 L216.5 135.1 L214.2 135.8 L213.9 136.0 L213.8 136.0 L213.7 136.1 L213.6 136.2 L213.5 136.2 L213.4 136.2 L212.9 136.2 L212.3 136.3 L210.2 137.0 L208.9 137.7 L208.8 137.7 L208.8 137.7 L208.7 137.7 L208.7 137.8 L208.6 137.8 L208.6 137.8 L207.2 137.9 L206.8 138.0 L206.6 138.0 L204.4 137.8 L204.1 137.8 L203.2 138.2 L203.0 138.2 L202.7 138.3 L200.5 137.9 L198.6 138.0 L197.9 137.8 L197.4 137.8 L196.3 137.9 L192.6 138.3 L188.9 138.8 L185.3 139.2 L181.4 140.5 L177.6 141.7 L174.2 143.0 L173.6 143.3 L173.2 143.5 L173.1 143.6 L172.9 143.6 L172.5 143.8 L172.0 143.8 L171.8 143.9 L170.2 145.1 L169.9 145.2 L169.6 144.9 L169.4 144.8 L169.2 144.7 L166.7 144.7 L165.9 144.6 L165.8 144.5 L165.8 142.8 L162.5 143.3 L159.1 143.8 L158.9 143.7 L156.4 142.7 L153.9 141.7 L153.8 141.7 L153.6 141.6 L150.6 141.1 L147.6 140.6 L144.7 140.1 L144.2 139.9 L143.4 139.3 L142.1 137.7 L141.3 137.3 L140.3 137.1 L139.3 137.0 L137.7 137.1 L134.2 136.7 L130.8 136.3 L127.4 135.9 L127.0 135.9 L124.0 136.6 L122.7 136.8 L119.2 136.5 L115.7 136.2 L112.3 135.8 L108.8 135.5 L106.0 135.2 L103.1 134.9 L103.1 134.9 L100.0 135.2 L97.0 135.4 L96.2 135.5 L96.0 135.5 L96.0 135.5 L95.9 135.3 L95.8 134.2 L95.7 134.0 L95.6 133.9 L95.4 133.7 L92.1 131.3 L91.8 131.0 L91.7 130.7 L91.6 130.3 L91.5 129.9 L91.5 129.6 L90.3 127.7 L89.4 125.6 L88.9 124.9 L88.7 124.7 L88.4 124.6 L87.9 124.6 L87.1 124.5 L87.1 124.4 L87.1 124.2 L87.1 123.7 L87.1 123.2 L87.1 123.2 L87.1 123.1 L87.2 122.9 L87.3 122.7 L87.4 122.5 L87.7 122.3 L87.7 122.1 L87.6 122.1 L84.6 122.3 L84.3 122.3 L83.5 122.0 L81.9 121.6 L81.7 121.6 L81.6 121.5 L81.5 121.3 L81.4 121.2 L80.8 120.8 L79.7 120.3 L79.4 120.2 L78.9 120.2 L78.6 120.1 L78.5 120.0 L78.3 119.6 L78.1 119.5 L77.4 118.9 L77.3 118.8 L77.2 118.8 L77.0 118.8 L76.6 118.9 L76.2 118.9 L75.5 118.9 L75.1 118.7 L74.7 118.4 L73.3 117.0 L73.1 116.9 L71.7 116.4 L70.8 116.3 L70.6 116.3 L70.3 116.1 L70.1 116.1 L69.9 116.1 L69.5 116.1 L69.3 116.1 L68.6 115.9 L68.4 115.9 L67.8 115.9 L67.6 115.9 L67.4 115.9 L67.3 115.9 L67.1 115.9 L66.9 115.9 L66.7 115.9 L66.4 115.8 L66.0 115.6 L65.9 115.6 L65.6 115.6 L65.4 115.7 L65.0 115.6 L64.1 115.8 L63.5 115.8 L62.7 116.0 L62.5 116.0 L62.1 115.8 L62.0 115.8 L61.6 115.9 L61.4 115.9 L61.0 115.8 L60.9 115.8 L60.5 115.9 L60.2 115.8 L59.5 115.4 L59.2 115.3 L59.0 115.3 L58.7 115.3 L58.4 115.3 L57.9 115.4 L56.4 115.3 L56.2 115.3 L55.9 115.4 L55.7 115.4 L54.8 115.3 L54.7 115.3 L54.7 115.3 L54.6 115.3 L54.5 115.3 L53.9 114.8 L53.8 114.7 L53.6 114.7 L53.4 114.8 L53.3 114.9 L53.1 115.0 L53.0 115.0 L52.1 114.8 L51.6 114.6 L51.5 114.5 L51.3 114.3 L51.2 114.2 L50.9 114.1 L50.5 114.1 L50.1 114.1 L49.8 114.1 L49.2 114.3 L48.9 114.3 L48.8 114.1 L48.8 114.0 L48.9 113.9 L48.9 113.8 L48.8 113.6 L48.6 113.5 L48.3 113.4 L48.2 113.3 L48.2 113.0 L48.1 112.8 L48.0 112.6 L47.9 112.3 L47.8 112.1 L47.2 111.9 L47.0 111.7 L47.4 109.7 L47.5 109.5 L49.3 107.8 L49.8 107.5 L49.9 107.4 L50.0 107.2 L50.1 106.8 L50.0 106.4 L49.8 106.2 L49.6 105.9 L49.1 104.9 L49.1 104.8 L49.2 104.6 L49.5 104.4 L49.8 103.8 L49.9 103.6 L50.0 103.3 L50.1 103.1 L50.3 102.8 L50.4 102.6 L50.4 102.5 L50.3 102.4 L50.1 102.3 L50.0 102.3 L50.0 102.0 L50.1 101.7 L50.1 101.4 L50.1 101.3 L50.0 101.0 L49.8 100.7 L49.5 100.5 L49.4 100.4 L49.3 100.2 L49.3 100.1 L49.4 100.0 L49.5 99.9 L49.4 99.9 L49.4 99.8 L49.3 99.8 L49.2 99.7 L49.1 99.5 L49.1 99.4 L49.0 99.3 L48.9 99.1 L48.7 99.0 L48.5 98.9 L48.3 98.9 L48.1 98.9 L47.8 98.9 L47.5 98.7 L45.4 96.1 L45.4 96.1 L45.4 96.0 L45.5 95.9 L45.6 95.8 L45.6 95.7 L45.6 95.5 L45.5 95.4 L45.3 95.3 L45.2 95.1 L45.2 94.8 L45.2 94.6 L45.1 94.4 L44.8 94.3 L44.7 94.2 L44.4 93.7 L44.3 93.6 L44.2 93.4 L44.3 93.3 L44.4 93.2 L44.4 93.1 L44.2 93.0 L44.0 93.0 L43.2 92.8 L42.8 92.7 L42.5 92.5 L42.1 92.3 L42.0 92.2 L41.9 92.0 L41.9 91.8 L41.9 91.7 L42.0 91.5 L41.9 91.3 L41.8 91.2 L41.4 91.2 L41.1 91.2 L41.0 91.2 L40.9 91.3 L40.9 91.4 L40.9 91.5 L40.8 91.6 L40.5 91.7 L39.6 91.8 L39.3 91.7 L39.2 91.6 L39.1 91.4 L39.1 91.2 L38.9 91.2 L38.6 91.1 L38.5 91.1 L38.4 90.9 L38.3 90.8 L38.2 90.7 L38.1 90.6 L38.0 90.6 L37.9 90.5 L37.8 90.4 L37.8 90.3 L37.8 90.0 L37.5 89.9 L37.2 89.9 L36.9 90.0 L36.5 90.0 L36.4 90.0 L36.0 89.9 L35.9 89.9 L35.7 89.9 L35.3 90.2 L35.2 90.3 L34.9 90.4 L34.7 90.4 L34.3 90.3 L33.5 90.3 L33.2 90.3 L33.2 90.3 L33.2 90.3 L32.3 89.4 L32.1 89.3 L31.9 89.2 L31.4 89.3 L31.2 89.3 L30.9 89.2 L30.4 88.8 L30.1 88.7 L29.9 88.7 L29.7 88.7 L29.4 88.5 L29.2 88.4 L29.2 88.2 L29.1 88.1 L29.1 87.9 L29.1 87.7 L29.2 87.4 L29.1 87.3 L28.6 86.8 L28.4 86.8 L28.2 86.8 L28.0 86.8 L27.8 86.8 L27.6 86.7 L27.1 86.3 L26.9 86.2 L26.3 86.0 L26.1 86.0 L25.8 86.0 L25.7 86.0 L25.5 85.9 L25.3 85.8 L25.0 85.7 L24.9 85.6 L24.8 85.5 L24.7 85.5 L24.5 85.6 L24.4 85.6 L24.1 85.5 L23.9 85.3 L23.8 85.1 L24.1 84.9 L24.2 84.8 L24.2 84.8 L24.3 84.7 L24.4 84.6 L24.7 84.4 L24.8 84.3 L24.8 84.1 L24.6 83.9 L24.1 83.7 L23.9 83.7 L23.5 83.7 L22.9 83.5 L22.7 83.4 L22.6 83.3 L22.6 83.3 L22.6 83.1 L22.5 83.0 L22.4 82.9 L22.4 82.9 L22.2 82.8 L22.0 82.7 L22.0 82.6 L22.1 82.4 L22.2 82.3 L22.9 82.1 L23.2 81.9 L23.2 81.6 L23.0 81.5 L22.9 81.4 L22.7 81.4 L22.7 81.2 L22.7 81.0 L22.8 80.9 L22.9 80.8 L22.8 80.6 L22.7 80.3 L22.7 80.2 L22.9 80.2 L23.0 80.3 L23.9 80.2 L24.1 80.1 L24.2 80.0 L24.5 79.8 L25.2 79.5 L25.5 79.3 L25.5 79.1 L25.4 78.8 L25.3 78.6 L25.4 78.3 L25.5 78.2 L25.7 77.9 L25.8 77.8 L26.0 77.7 L27.5 77.5 L27.7 77.5 L28.1 77.6 L28.3 77.6 L28.9 77.6 L29.1 77.6 L29.4 77.4 L29.5 77.4 L29.6 77.4 L29.7 77.4 L29.8 77.5 L30.1 77.7 L30.2 77.8 L30.4 77.8 L31.7 77.9 L31.8 77.8 L31.6 77.6 L31.6 77.2 L31.6 77.1 L31.7 77.0 L31.9 77.0 L32.1 77.0 L32.2 77.1 L32.2 77.3 L32.3 77.4 L32.4 77.5 L32.5 77.6 L32.5 77.7 L32.6 77.7 L33.0 77.7 L34.2 77.3 L34.5 77.1 L34.7 76.9 L34.6 76.7 L34.4 76.5 L34.5 76.3 L34.7 76.2 L35.0 76.2 L35.5 76.5 L35.8 76.6 L36.0 76.6 L36.3 76.5 L36.4 76.3 L36.6 76.1 L36.9 76.1 L37.3 75.9 L38.1 75.7 L38.7 75.5 L38.9 75.4 L39.0 75.3 L38.9 75.2 L38.7 75.1 L38.3 75.0 L38.2 74.9 L38.2 74.8 L38.4 74.7 L38.4 74.6 L38.3 74.5 L38.2 74.5 L38.1 74.4 L38.1 74.3 L38.2 74.0 L38.2 73.9 L38.3 73.8 L38.6 73.7 L39.0 73.6 L40.3 73.5 L40.7 73.5 L41.2 73.3 L41.4 73.1 L41.4 73.0 L41.4 72.8 L41.5 72.6 L41.6 72.4 L41.9 72.3 L43.0 72.2 L43.3 72.1 L44.4 71.5 L44.5 71.5 L44.9 71.5 L45.1 71.4 L45.5 71.2 L45.9 71.2 L46.6 71.3 L47.0 71.3 L47.1 71.2 L47.3 71.2 L47.4 71.1 L47.5 71.0 L47.6 70.9 L47.6 70.6 L47.7 70.5 L48.0 70.4 L48.6 70.3 L48.9 70.1 L49.6 69.6 L49.8 69.5 L50.1 69.4 L51.1 69.4 L51.4 69.3 L52.2 69.0 L52.6 69.0 L53.3 69.1 L53.6 69.1 L53.7 68.9 L53.8 68.8 L53.9 68.6 L54.1 68.4 L54.9 68.2 L55.2 68.1 L55.6 67.6 L55.8 67.4 L56.4 67.2 L57.1 67.0 L57.7 67.0 L59.1 67.2 L59.9 67.1 L60.7 66.9 L61.1 66.3 L61.1 66.1 L61.1 65.9 L61.2 65.8 L61.3 65.7 L61.5 65.6 L61.7 65.6 L61.9 65.6 L62.0 65.7 L62.2 66.1 L62.4 66.3 L62.7 66.4 L63.0 66.5 L63.3 66.7 L63.8 67.1 L64.2 67.3 L64.3 67.2 L64.5 67.2 L64.7 67.1 L64.9 67.0 L65.0 66.9 L65.0 66.6 L65.1 66.4 L65.4 66.3 L65.9 66.2 L66.5 66.2 L66.8 66.4 L66.9 66.7 L66.9 67.1 L67.1 67.4 L67.2 67.6 L67.3 67.7 L67.4 67.8 L67.5 67.8 L68.1 67.9 L68.4 67.9 L68.8 67.9 L70.8 67.8 L71.8 68.0 L74.8 68.1 L77.8 68.2 L78.0 68.3 L78.1 68.4 L78.1 68.5 L78.1 68.8 L78.5 69.4 L78.6 69.6 L78.6 70.5 L78.7 70.9 L78.8 71.1 L78.9 71.3 L79.1 71.5 L79.8 71.7 L80.0 71.7 L80.0 71.8 L80.1 72.0 L80.1 72.1 L80.2 72.2 L80.6 72.4 L80.7 72.5 L80.8 72.8 L80.9 72.9 L81.1 72.9 L81.3 72.9 L82.1 72.7 L83.6 72.6 L83.9 72.7 L84.2 72.8 L84.4 73.1 L84.5 73.3 L84.6 73.4 L85.0 73.5 L87.4 73.5 L87.8 73.6 L88.1 73.8 L88.3 73.9 L88.4 74.0 L88.4 74.0 L88.6 74.0 L88.8 74.0 L88.9 73.9 L89.2 73.7 L89.3 73.6 L90.2 73.5 L90.5 73.4 L90.8 73.1 L91.1 72.9 L91.4 72.9 L91.8 72.9 L92.0 73.1 L92.0 73.1 L92.1 73.3 L92.2 73.5 L92.4 73.6 L92.7 73.5 L92.8 73.3 L92.9 73.3 L93.0 73.2 L93.1 73.1 L93.3 73.1 L93.4 73.1 L93.5 73.1 L93.6 73.1 L93.6 73.1 L93.6 73.1 L93.6 73.1 L94.9 73.5 L95.3 73.7 L95.7 73.9 L95.9 74.0 L96.1 74.0 L96.3 74.0 L96.8 73.8 L97.0 73.7 L97.2 73.7 L97.4 73.8 L97.5 73.9 L97.6 74.1 L97.8 74.2 L97.9 74.3 L98.1 74.2 L98.3 74.1 L98.7 73.8 L98.9 73.8 L101.2 74.0 L101.5 74.2 L101.8 74.6 L102.0 74.7 L102.2 74.7 L102.3 74.7 L102.5 74.8 L102.6 75.0 L102.8 75.2 L103.2 75.3 L103.7 75.4 L104.1 75.4 L104.4 75.3 L104.8 75.2 L105.6 74.9 L106.1 74.6 L106.4 74.4 L106.5 74.1 L106.4 73.9 L106.3 73.8 L106.3 73.8 L107.0 73.6 L107.8 73.4 L108.0 73.4 L108.1 73.4 L108.4 73.6 L108.6 73.7 L108.7 73.6 L109.0 73.4 L109.3 73.3 L110.5 72.8 L111.0 72.5 L112.3 70.6 L112.4 70.5 L112.4 70.3 L112.4 70.2 L112.3 69.9 L112.3 69.6 L112.6 69.1 L112.6 68.8 L112.6 68.8 L112.6 68.8 L112.6 68.6 L112.4 68.4 L112.2 68.3 L112.0 68.3 L111.5 68.2 L111.2 68.1 L110.6 67.8 L110.4 67.7 L110.3 67.5 L109.8 66.8 L109.6 66.4 L109.6 66.2 L110.0 65.9 L109.9 65.8 L109.7 65.6 L109.5 65.5 L109.5 65.4 L109.4 65.3 L109.0 65.2 L108.6 65.0 L108.4 64.7 L108.4 64.5 L108.9 63.7 L109.1 63.4 L109.2 63.1 L109.2 63.0 L109.4 62.6 L109.5 62.5 L109.4 62.3 L109.3 62.0 L109.3 61.9 L109.4 61.7 L109.5 61.6 L109.7 61.4 L109.8 61.3 L110.2 60.7 L110.4 60.5 L110.5 60.5 L110.6 60.4 L111.0 60.3 L111.2 60.3 L111.9 60.4 L112.0 60.2 L112.1 60.0 L112.0 59.7 L112.0 59.5 L112.1 59.3 L112.3 59.0 L112.4 58.8 L112.9 58.3 L113.7 58.1 L115.4 57.8 L115.6 57.6 L115.9 57.4 L116.2 57.2 L116.7 56.5 L116.9 56.1 L116.9 55.9 L117.3 55.7 L117.3 55.5 L117.3 55.4 L117.3 55.1 L117.4 55.0 L117.7 54.8 L118.0 54.8 L118.1 54.8 L118.3 54.9 L118.4 55.2 L118.6 55.4 L118.9 55.5 L120.3 55.8 L120.6 55.9 L120.8 56.1 L121.0 56.2 L121.2 56.4 L121.4 56.4 L123.4 56.8 L124.5 56.8 L124.7 56.9 L125.4 57.3 L125.9 57.7 L126.5 58.0 L127.3 58.2 L128.1 58.1 L129.0 58.2 L131.6 58.2 L132.1 58.4 L132.7 58.5 L136.4 59.7 L136.8 59.9 L137.2 60.0 L137.5 60.0 L137.9 60.0 L138.2 60.2 L138.5 60.5 L138.8 60.6 L139.1 60.6 L139.9 60.4 L140.3 60.4 L140.7 60.4 L141.3 60.6 L141.8 60.6 L142.0 60.6 L142.2 60.6 L142.6 60.9 L142.8 60.9 L143.5 60.9 L143.7 60.9 L144.0 61.1 L144.2 61.1 L144.8 61.2 L145.0 61.2 L145.2 61.3 L146.0 61.7 L146.0 61.8 L145.9 62.0 L145.5 62.4 L145.5 62.5 L145.6 62.6 L145.6 62.7 L145.7 62.9 L145.7 63.0 L145.6 63.3 L145.6 63.6 L145.8 64.0 L146.0 64.3 L146.3 64.5 L146.3 64.6 L146.4 64.8 L146.3 64.9 L146.2 65.0 L146.4 65.2 L146.4 65.5 L146.2 65.7 L146.1 65.9 L146.2 66.2 L146.5 66.4 L147.0 66.6 L147.2 66.9 L147.1 67.1 L146.9 67.3 L146.7 67.5 L146.7 67.7 L146.8 68.0 L147.0 68.2 L147.2 68.4 L147.6 68.5 L148.4 68.5 L148.8 68.7 L149.4 69.5 L149.7 69.6 L149.7 69.6 L150.9 69.8 L152.0 70.3 L152.3 70.4 L152.7 70.5 L154.1 70.4 L154.7 70.5 L155.0 70.9 L155.1 71.2 L155.3 71.3 L155.6 71.4 L156.4 71.4 L156.7 71.4 L157.0 71.5 L157.5 71.7 L158.1 71.9 L158.7 71.9 L159.7 71.4 L160.2 71.5 L161.3 71.8 L161.9 71.8 L162.6 71.8 L163.2 71.6 L163.7 71.3 L163.8 71.1 L164.3 70.9 L164.5 70.7 L164.8 70.6 L165.0 70.5 L165.6 70.4 L166.5 70.4 L166.8 70.3 L167.0 70.3 L167.3 70.1 L167.5 70.0 L168.3 70.0 L168.6 70.0 L169.1 69.7 L169.3 69.7 L169.5 69.7 L170.5 69.8 L170.8 69.7 L171.0 69.7 L171.2 69.6 L172.2 69.1 L172.5 69.0 L172.9 69.0 L175.6 69.4 L176.8 69.4 L177.0 69.4 L177.4 69.5 L177.9 69.6 L178.3 69.6 L178.6 69.6 L179.0 69.9 L179.1 69.9 L179.1 70.0 L179.1 70.1 L179.1 70.1 L179.2 70.2 L179.9 70.2 L180.1 70.3 L180.4 70.5 L180.6 70.5 L180.8 70.6 L182.5 70.2 L183.4 70.2 L184.3 70.2 L185.1 70.4 L185.5 70.5 L186.7 71.2 L187.0 71.4 L187.1 71.4 L187.3 71.8 L187.3 71.8 L187.5 72.0 L187.6 72.0 L187.6 72.1 L187.7 72.3 L187.8 72.4 L187.9 72.5 L188.1 72.6 L188.3 72.6 L188.7 72.9 L188.9 73.0 L189.2 73.1 L189.5 73.1 L189.7 73.0 L189.9 73.0 L190.4 73.2 L193.5 73.3 L193.7 73.3 L193.7 73.3 L194.0 73.5 L194.2 73.5 L194.5 73.5 L194.6 73.5 L195.0 73.6 L195.4 73.6 L195.5 73.7 L195.4 73.9 L195.4 74.1 L195.3 74.2 L195.2 74.3 L195.3 74.5 L195.4 74.9 L195.5 75.2 L195.5 75.3 L195.4 75.4 L195.2 75.8 L195.2 75.9 L195.3 75.9 L195.5 76.0 L195.9 75.9 L196.0 76.0 L195.9 76.2 L195.9 76.3 L196.0 76.5 L196.1 76.6 L196.8 76.9 L196.9 76.9 L197.6 77.0 L197.9 77.1 L198.0 77.1 L198.1 77.3 L198.1 77.4 L198.2 77.5 L198.7 77.9 L199.9 78.6 L200.5 78.8 L200.7 78.8 L201.1 78.8 L202.3 78.7 L203.2 78.7 L203.8 78.6 L204.7 78.8 L204.9 78.8 L205.8 78.6 L206.9 78.7 L207.1 78.8 L207.3 78.8 L207.8 79.0 L208.0 79.0 L208.3 79.0 L208.4 79.0 L208.4 79.1 L208.5 79.2 L208.5 79.3 L208.6 79.4 L208.9 79.4 L210.7 79.3 L211.2 79.5 L211.4 79.7 L211.6 79.7 L212.3 79.8 L214.6 80.2 L214.9 80.2 L215.3 80.1 L215.7 79.9 L216.0 79.7 L216.1 79.6 L216.2 79.5 L216.3 79.6 L216.7 79.9 L216.9 80.0 L217.4 80.0 L218.2 80.4 L218.5 80.4 L218.9 80.5 L219.3 80.4 L220.2 80.2 L221.3 79.8 L222.8 79.1 L223.9 78.9 L224.1 78.8 L224.3 78.6 L224.5 78.5 L224.7 78.5 L224.9 78.5 L225.3 78.7 L225.5 78.7 L225.7 78.7 L225.9 78.6 L226.9 78.3 L227.3 78.2 L230.4 78.1 L231.2 77.8 L233.9 77.1 L234.2 77.0 L235.2 77.1 L235.9 77.4 L236.2 77.4 L236.5 77.4 L236.8 77.3 L237.6 77.1 L238.1 76.8 L238.3 76.7 L238.5 76.6 L238.7 76.6 L239.1 76.6 L239.3 76.5 L239.4 76.3 L239.4 76.0 L239.4 75.9 L239.5 75.7 L240.1 75.0 L240.3 74.7 L240.6 74.6 L242.3 73.7 L242.5 73.5 L242.7 73.4 L243.1 73.2 L243.3 73.1 L243.7 72.9 L245.2 72.4 L245.4 72.3 L245.7 72.4 L245.9 72.4 L246.0 72.4 L247.1 71.7 L247.3 71.6 L247.6 71.5 L247.8 71.5 L248.3 71.1 L249.0 70.8 L249.8 70.7 L250.2 70.7 L251.0 71.0 L251.4 71.0 L253.0 70.9 L253.8 71.0 L255.9 71.8 L256.0 71.9 L256.1 72.0 L256.3 72.3 L256.4 72.4 L257.7 73.3 L259.1 73.9 L259.2 74.0 L259.8 74.0 L260.0 74.0 L260.3 74.0 L260.9 74.0 L261.8 74.1 L262.0 74.1 L262.3 74.0 L264.9 73.1 L265.6 72.9 L266.3 72.9 L267.1 73.1 L269.4 73.7 L269.8 73.9 L270.1 74.2 L270.4 74.6 Z" fill="#172033" fill-rule="evenodd"/></svg>
