<svg xmlns="http://www.w3.org/2000/svg" viewBox="0 0 320 200" role="img"><path d="M188.2 22.0 L190.7 23.4 L193.1 24.9 L195.6 26.3 L198.0 27.8 L200.5 29.2 L203.0 30.7 L205.4 32.1 L207.9 33.6 L210.3 35.0 L212.8 36.5 L215.3 37.9 L217.7 39.4 L219.8 40.6 L221.9 41.8 L224.0 43.0 L225.7 44.1 L226.1 44.3 L227.6 45.1 L229.7 46.5 L231.9 47.8 L234.0 49.1 L236.2 50.5 L233.4 50.5 L230.7 50.5 L227.9 50.5 L225.2 50.5 L222.4 50.5 L219.7 50.5 L216.9 50.5 L214.2 50.5 L214.3 51.5 L214.4 52.5 L214.5 53.4 L214.7 54.4 L214.8 55.4 L214.9 56.4 L215.0 57.4 L215.1 58.4 L215.2 59.4 L215.3 59.5 L215.3 60.2 L215.5 61.9 L215.7 63.6 L215.8 64.4 L216.0 65.9 L216.2 67.4 L216.4 68.9 L216.5 70.4 L216.7 71.9 L216.9 73.4 L216.9 73.7 L217.1 74.9 L217.2 76.4 L217.4 77.9 L217.6 79.4 L217.8 80.9 L217.9 82.4 L218.1 83.9 L218.3 85.4 L218.5 86.9 L218.6 88.4 L218.8 89.9 L219.0 91.4 L219.2 92.9 L219.3 94.4 L219.5 95.9 L219.7 97.4 L219.9 98.9 L220.0 100.4 L220.1 101.1 L220.3 102.7 L220.5 104.3 L220.6 105.1 L220.7 106.4 L220.9 107.9 L221.1 109.5 L221.3 111.1 L221.5 112.6 L221.6 114.2 L221.8 115.7 L222.0 117.3 L222.2 118.8 L222.2 118.8 L222.4 120.5 L222.4 121.3 L222.5 122.0 L222.6 122.7 L222.7 123.4 L222.8 124.6 L222.9 125.7 L223.1 126.9 L223.2 128.0 L223.3 129.2 L223.4 130.4 L223.6 131.5 L223.7 132.7 L223.8 133.8 L223.9 135.0 L224.1 136.1 L224.2 137.3 L224.3 138.4 L224.4 139.5 L224.6 140.6 L224.7 141.8 L224.8 142.9 L224.9 144.0 L225.1 145.1 L225.2 146.2 L225.3 147.4 L225.4 148.5 L225.6 149.6 L225.7 150.7 L225.8 151.8 L225.9 153.0 L226.0 154.1 L226.2 155.2 L226.2 155.7 L226.3 155.9 L226.4 156.1 L226.9 156.4 L227.4 156.7 L227.9 157.1 L228.4 157.4 L228.9 157.8 L229.4 158.1 L229.5 158.2 L229.6 158.2 L229.6 158.3 L229.6 158.4 L229.5 158.8 L229.3 159.9 L229.1 161.1 L228.8 162.3 L228.6 163.5 L228.4 164.7 L228.1 165.9 L227.9 167.1 L227.7 168.3 L227.7 168.4 L227.6 168.4 L227.6 168.4 L227.6 168.5 L227.6 168.5 L227.6 168.5 L227.6 168.5 L227.6 168.5 L227.6 168.5 L227.6 168.5 L227.6 168.6 L227.6 168.6 L227.6 168.6 L227.6 168.6 L227.6 168.6 L227.6 168.6 L227.6 168.6 L227.6 168.6 L227.6 168.6 L227.6 168.6 L227.6 168.6 L227.6 168.6 L227.6 168.6 L227.6 168.6 L227.6 168.6 L227.6 168.6 L227.6 168.6 L227.6 168.6 L227.6 168.6 L227.6 168.6 L227.6 168.6 L227.6 168.6 L227.6 168.6 L227.6 168.6 L227.6 168.6 L227.6 168.6 L227.6 168.6 L225.6 168.6 L223.9 168.6 L223.2 168.6 L222.3 168.6 L221.4 168.6 L220.5 168.6 L218.8 168.6 L217.6 168.6 L217.0 168.6 L215.1 168.6 L213.2 168.6 L211.1 168.5 L209.1 168.5 L206.9 168.5 L204.8 168.5 L202.7 168.5 L200.6 168.5 L198.5 168.5 L196.5 168.5 L194.5 168.5 L192.6 168.5 L190.8 168.5 L189.2 168.5 L188.1 168.5 L187.1 168.5 L186.2 168.5 L185.4 168.5 L184.2 168.5 L184.0 168.5 L182.5 168.5 L182.1 168.5 L179.9 168.5 L180.0 167.4 L180.2 166.6 L180.1 166.2 L179.8 166.0 L179.6 166.2 L178.8 167.1 L178.6 167.4 L178.6 167.7 L178.8 168.5 L179.0 169.2 L175.9 169.3 L175.3 169.5 L175.0 169.6 L174.3 170.0 L173.9 170.1 L172.4 170.0 L171.0 170.2 L170.5 170.2 L170.2 170.1 L169.7 169.8 L169.5 169.7 L169.4 169.7 L169.2 169.7 L169.1 169.7 L168.0 169.3 L167.8 169.3 L167.2 169.3 L166.9 169.2 L165.6 169.2 L165.4 169.3 L165.2 169.2 L165.0 169.2 L164.6 169.4 L164.5 169.4 L164.3 169.4 L163.8 169.4 L163.0 169.3 L162.8 169.3 L162.7 169.4 L162.6 169.7 L162.6 170.2 L162.5 170.5 L162.4 170.6 L162.2 170.7 L162.1 170.9 L162.0 170.9 L161.9 170.9 L161.7 170.9 L161.5 171.1 L161.5 171.3 L161.3 171.8 L161.2 172.0 L160.9 172.3 L160.8 172.5 L160.6 173.2 L160.5 173.4 L160.0 172.8 L159.6 172.4 L159.2 171.7 L158.8 171.3 L155.7 169.1 L155.5 168.8 L154.3 167.2 L154.0 167.0 L153.7 166.8 L153.0 166.7 L152.9 166.7 L152.8 166.7 L152.9 166.8 L152.9 166.8 L152.9 166.8 L153.0 166.9 L153.0 166.9 L153.0 167.0 L153.0 167.1 L153.0 167.1 L152.9 167.2 L152.7 167.3 L152.4 167.4 L152.2 167.5 L151.8 168.0 L151.4 168.2 L151.1 168.1 L150.7 168.0 L150.7 168.0 L150.4 168.0 L150.4 168.4 L150.3 168.5 L150.0 168.9 L149.9 169.3 L149.7 170.2 L149.2 171.0 L149.2 171.2 L149.1 171.8 L148.9 172.5 L148.9 172.7 L148.9 172.9 L148.9 173.0 L148.9 173.2 L148.7 173.7 L148.7 174.0 L148.7 174.1 L148.8 174.2 L148.9 174.1 L149.0 174.1 L149.0 174.1 L149.2 174.2 L149.3 174.3 L149.3 174.5 L149.3 174.7 L149.3 174.7 L149.2 174.9 L149.1 175.2 L149.1 175.6 L149.1 175.7 L149.1 175.7 L149.2 175.9 L149.2 175.9 L149.1 176.0 L149.0 176.0 L149.0 176.0 L148.9 176.1 L148.9 176.2 L148.8 176.2 L148.8 176.3 L148.7 176.5 L148.5 176.7 L148.3 176.8 L147.8 176.9 L147.6 177.0 L147.3 177.4 L147.1 177.6 L146.8 177.6 L146.6 177.6 L146.3 177.6 L146.3 177.7 L146.2 177.9 L146.1 178.0 L146.0 177.9 L145.4 177.5 L145.2 177.4 L145.0 177.4 L144.4 177.6 L144.2 177.6 L143.9 177.6 L143.7 177.5 L143.0 177.0 L142.2 176.6 L142.0 176.4 L141.6 175.9 L141.4 175.8 L141.4 175.7 L141.1 174.7 L141.0 174.6 L140.9 174.5 L140.8 174.4 L140.5 174.3 L140.4 174.3 L140.2 174.1 L139.5 173.7 L139.3 173.5 L139.2 173.4 L139.1 173.4 L138.9 173.4 L138.5 173.5 L138.4 173.5 L138.4 173.6 L138.1 173.4 L137.7 173.1 L137.6 173.0 L137.3 172.9 L137.3 172.8 L137.2 172.7 L137.2 172.6 L137.3 172.3 L137.3 172.2 L137.2 172.1 L137.2 172.0 L137.1 172.0 L136.9 171.9 L136.8 171.9 L136.5 172.0 L136.4 172.0 L136.3 171.9 L136.2 171.9 L135.9 171.6 L135.9 171.4 L136.0 171.3 L136.4 171.4 L136.6 171.3 L136.7 171.2 L136.6 171.0 L136.4 170.8 L135.7 170.3 L135.5 170.2 L135.4 170.0 L135.4 169.8 L135.4 169.3 L135.4 169.3 L135.3 169.2 L135.2 169.0 L135.1 168.9 L135.1 168.6 L135.1 168.5 L135.0 168.4 L134.8 168.3 L134.6 168.3 L134.4 168.4 L134.2 168.5 L134.1 168.6 L133.9 168.7 L133.5 168.6 L133.4 168.5 L133.4 168.4 L133.4 168.3 L133.4 168.2 L133.4 167.7 L133.4 167.6 L133.3 167.4 L133.2 167.3 L133.0 167.2 L132.7 167.1 L132.6 167.1 L132.4 166.9 L132.3 166.9 L132.1 166.9 L131.8 166.9 L131.6 166.9 L131.5 166.6 L131.4 166.5 L131.5 166.4 L131.5 166.3 L131.7 166.0 L131.7 165.9 L131.7 165.9 L131.6 165.8 L131.5 165.6 L131.4 165.5 L131.3 165.4 L131.1 165.3 L131.0 165.2 L131.0 165.1 L131.0 165.0 L131.0 164.9 L131.0 164.8 L131.1 164.7 L131.1 164.5 L131.0 164.3 L130.9 164.1 L130.7 163.8 L130.6 163.7 L130.6 163.7 L130.6 163.6 L130.6 163.3 L130.6 163.2 L130.6 163.1 L130.5 163.0 L130.2 162.8 L130.1 162.7 L130.0 162.6 L129.9 162.4 L129.8 162.0 L129.8 161.9 L129.7 161.7 L129.7 161.6 L129.6 161.5 L129.3 161.3 L129.2 161.2 L129.1 161.1 L129.1 161.0 L128.9 161.0 L128.4 161.2 L128.3 161.1 L128.3 160.9 L128.5 160.5 L128.5 160.3 L128.4 160.3 L128.4 160.3 L128.3 160.4 L128.1 160.4 L127.5 160.6 L127.1 160.7 L127.0 160.7 L126.9 160.7 L126.7 160.7 L126.6 160.8 L126.3 160.9 L126.2 161.0 L126.1 160.9 L126.1 160.9 L126.0 160.9 L126.0 160.8 L125.9 160.8 L125.9 160.8 L125.9 160.8 L125.9 160.7 L125.8 160.7 L125.8 160.7 L125.7 160.6 L125.6 160.6 L125.6 160.5 L125.6 160.3 L125.7 160.1 L125.7 159.9 L125.6 159.9 L125.5 159.9 L125.4 159.9 L125.3 160.0 L125.2 160.1 L124.9 160.4 L124.9 160.5 L124.7 160.6 L124.5 160.8 L124.4 160.8 L124.3 160.8 L124.1 160.8 L124.0 160.7 L123.9 160.6 L123.9 160.5 L123.8 160.4 L123.7 160.0 L123.6 159.9 L123.6 159.9 L123.4 159.7 L123.3 159.7 L122.8 159.5 L122.6 159.4 L122.5 159.2 L122.6 159.0 L122.6 158.9 L122.5 158.8 L122.4 158.6 L122.4 158.5 L122.4 158.4 L122.5 158.2 L122.5 158.2 L122.4 158.1 L122.3 158.0 L122.0 157.9 L121.9 157.8 L121.7 157.6 L121.6 157.5 L121.2 157.3 L120.5 156.6 L120.0 156.2 L119.7 156.0 L119.7 155.9 L119.4 155.6 L119.3 155.6 L119.2 155.5 L118.9 155.5 L118.8 155.5 L118.7 155.4 L118.7 155.1 L118.7 155.0 L118.5 155.0 L118.1 155.0 L117.9 155.0 L117.9 154.9 L118.0 154.6 L118.0 154.5 L117.9 154.4 L117.8 154.4 L117.1 154.1 L116.8 154.1 L116.7 154.1 L116.4 154.3 L116.2 154.4 L116.1 154.4 L116.0 154.4 L115.8 154.4 L115.3 154.3 L115.2 154.3 L114.7 154.4 L114.6 154.5 L114.4 154.4 L114.1 154.3 L114.0 154.2 L113.8 154.2 L113.4 154.4 L113.3 154.4 L111.1 154.2 L110.8 154.3 L110.5 154.3 L110.4 154.1 L110.3 153.9 L110.3 153.9 L110.1 153.7 L110.0 153.7 L109.7 153.8 L109.6 153.9 L109.5 154.0 L109.5 154.2 L109.4 154.2 L109.4 154.3 L109.3 154.4 L109.2 154.4 L109.1 154.4 L109.0 154.4 L108.9 154.3 L108.8 154.1 L108.7 154.0 L108.5 154.0 L108.3 154.0 L108.2 154.1 L108.2 154.3 L108.3 154.4 L108.5 154.6 L108.5 154.7 L108.5 154.8 L108.5 154.9 L108.4 154.9 L108.1 155.0 L106.8 155.2 L106.6 155.2 L106.0 155.1 L105.6 155.2 L105.4 155.2 L104.9 155.4 L104.7 155.5 L104.5 155.5 L104.4 155.4 L104.3 155.3 L104.2 155.2 L104.1 155.1 L103.9 155.0 L103.7 155.1 L103.6 155.3 L103.3 155.7 L103.2 155.8 L103.0 155.8 L102.8 155.9 L102.3 155.8 L102.1 155.8 L102.0 155.9 L101.7 156.1 L101.5 156.2 L101.3 156.3 L101.1 156.3 L100.9 156.2 L100.6 156.1 L100.5 156.1 L100.1 156.1 L99.6 155.9 L99.4 155.9 L99.1 155.9 L99.0 155.9 L98.5 155.8 L98.4 155.8 L97.9 156.1 L97.8 156.1 L97.7 156.1 L97.5 156.0 L97.4 156.0 L97.3 156.0 L97.2 156.0 L97.2 156.1 L96.9 156.1 L96.6 156.1 L96.3 156.0 L96.1 155.8 L96.0 155.6 L95.9 155.5 L95.8 155.4 L95.6 155.4 L95.5 155.4 L95.3 155.5 L94.9 155.7 L94.8 155.8 L94.7 155.8 L94.5 155.8 L94.1 155.7 L93.8 155.8 L93.6 155.9 L93.4 156.1 L93.2 156.4 L93.1 156.6 L93.0 157.1 L92.5 159.2 L92.5 159.3 L92.4 159.5 L92.2 159.6 L91.7 159.7 L91.5 159.9 L91.5 160.1 L91.4 160.9 L91.2 161.4 L91.0 162.0 L90.9 162.1 L90.9 163.5 L90.8 164.2 L90.5 164.6 L90.7 162.6 L90.7 161.5 L90.5 158.9 L90.7 158.1 L90.8 157.9 L91.1 157.3 L91.2 156.7 L91.3 156.5 L91.4 156.1 L91.4 154.8 L91.5 154.3 L92.5 151.8 L92.8 151.4 L93.0 150.6 L93.2 150.1 L93.8 149.3 L94.9 147.1 L94.9 146.8 L95.1 146.6 L96.3 143.1 L96.6 141.5 L96.7 139.9 L96.9 137.9 L96.8 135.7 L96.4 131.4 L96.2 131.0 L95.6 129.6 L95.3 128.1 L95.1 127.6 L95.2 127.3 L95.2 126.9 L94.7 125.2 L94.6 125.0 L94.3 124.2 L93.7 123.4 L93.0 122.5 L92.8 122.3 L92.7 122.3 L92.7 122.2 L92.6 122.2 L92.4 122.2 L92.3 122.1 L92.1 122.0 L91.6 121.9 L91.4 121.8 L91.4 121.6 L91.1 121.1 L91.1 120.9 L91.0 120.6 L90.7 120.4 L90.6 120.2 L90.8 120.1 L91.5 120.2 L92.2 120.1 L92.8 119.8 L93.2 119.3 L93.5 118.8 L93.6 118.6 L93.7 118.4 L93.7 118.3 L93.7 118.2 L93.6 118.2 L93.5 118.2 L93.5 118.2 L93.4 118.2 L92.7 118.9 L92.4 119.2 L92.9 118.2 L92.7 118.3 L92.2 118.7 L92.0 118.9 L92.0 119.0 L91.9 119.1 L91.9 119.3 L91.9 119.4 L91.9 119.5 L91.8 119.7 L91.8 119.8 L91.8 119.9 L91.7 119.9 L91.6 119.9 L91.5 119.9 L91.5 119.9 L91.5 119.8 L91.5 119.8 L91.4 119.7 L91.4 119.6 L91.4 119.3 L91.4 119.2 L91.6 119.0 L91.9 118.7 L92.0 118.5 L92.0 118.2 L92.1 118.1 L92.3 118.0 L92.5 117.8 L93.7 116.1 L93.7 116.1 L93.8 116.0 L93.9 116.0 L93.9 115.8 L93.9 115.6 L94.0 115.5 L94.0 115.5 L94.1 115.4 L94.3 115.2 L94.3 115.1 L94.3 115.0 L94.3 114.9 L94.3 114.8 L94.2 114.7 L94.3 114.6 L94.3 114.5 L94.4 114.4 L94.3 114.3 L94.1 114.4 L94.1 114.4 L94.0 114.2 L94.2 113.9 L94.2 113.8 L93.9 113.6 L93.8 113.7 L93.7 113.9 L93.7 114.0 L93.5 114.1 L93.4 114.1 L93.4 113.9 L93.4 113.8 L93.5 113.6 L93.5 113.5 L94.3 112.8 L94.5 112.5 L94.6 112.1 L94.5 111.8 L94.2 111.2 L94.0 110.9 L94.1 110.9 L94.2 110.9 L94.3 110.8 L94.3 110.8 L94.6 110.4 L94.7 110.1 L94.8 109.9 L94.7 109.7 L94.7 109.5 L94.3 108.9 L94.2 108.9 L94.0 108.9 L93.9 108.8 L93.9 108.7 L93.8 108.6 L93.8 108.6 L93.6 108.4 L93.2 107.6 L93.1 107.5 L93.0 107.4 L92.9 107.4 L92.9 107.2 L92.9 107.2 L93.0 107.2 L93.0 107.1 L93.0 107.1 L93.0 107.0 L92.9 106.9 L92.9 106.6 L92.4 105.5 L92.3 105.3 L92.1 105.2 L92.0 105.1 L92.0 104.8 L91.9 104.5 L91.7 104.6 L91.4 104.5 L91.4 104.4 L92.0 104.2 L92.2 104.2 L91.9 104.1 L91.5 104.2 L91.3 104.2 L91.1 104.0 L91.2 103.9 L91.0 103.5 L90.9 103.5 L90.7 103.4 L90.6 103.9 L90.7 105.1 L90.5 105.6 L90.4 105.4 L90.2 105.3 L89.9 105.1 L89.8 105.0 L89.6 104.7 L89.5 104.5 L89.4 104.4 L89.0 104.2 L88.9 104.1 L88.9 104.0 L88.9 103.9 L89.0 103.9 L89.1 103.9 L89.1 103.8 L89.0 103.7 L89.0 103.6 L88.9 103.4 L88.8 103.2 L88.4 103.0 L88.4 102.9 L88.4 102.7 L88.3 102.6 L88.1 102.3 L88.0 101.8 L87.9 101.6 L87.8 101.5 L87.7 101.3 L87.6 101.1 L87.6 100.9 L87.6 101.0 L87.5 101.0 L87.4 101.1 L87.3 100.9 L87.2 100.7 L87.2 100.5 L87.1 100.3 L87.0 100.2 L86.9 100.1 L86.8 100.0 L86.8 99.8 L86.7 99.7 L86.4 99.3 L86.3 99.1 L86.3 99.0 L86.2 98.8 L86.1 98.4 L85.8 98.1 L85.7 98.2 L85.4 98.8 L84.8 99.5 L84.7 99.6 L84.6 99.7 L84.7 100.0 L84.9 99.9 L84.9 100.1 L84.8 100.6 L84.8 101.0 L84.7 101.1 L84.6 101.1 L84.3 101.2 L84.2 101.3 L84.2 101.4 L84.3 101.5 L84.4 101.7 L84.5 101.9 L84.5 101.9 L84.5 102.1 L84.3 102.6 L84.2 102.9 L84.1 103.0 L83.8 101.7 L83.9 101.3 L84.1 100.2 L84.2 99.8 L84.8 98.4 L85.0 97.2 L85.2 96.1 L85.3 96.0 L86.8 96.0 L87.3 96.0 L88.7 96.0 L91.0 96.0 L93.9 96.0 L97.4 96.0 L101.3 96.0 L105.4 96.0 L109.7 96.0 L113.9 96.0 L118.1 96.0 L118.4 96.0 L121.9 96.0 L125.4 96.0 L128.3 96.0 L130.6 96.0 L132.0 96.0 L132.5 96.0 L134.3 96.0 L134.2 94.0 L134.1 92.9 L133.8 87.8 L133.6 84.6 L133.4 81.5 L133.2 80.7 L132.6 79.1 L132.5 78.3 L132.6 77.5 L133.0 76.7 L134.1 75.3 L134.3 75.0 L135.6 74.2 L137.1 73.3 L138.5 72.4 L139.3 71.9 L140.0 71.7 L142.1 71.4 L142.6 71.3 L145.3 70.1 L146.6 69.7 L146.7 69.5 L146.8 69.1 L146.8 68.1 L146.8 67.2 L146.8 66.2 L146.8 65.3 L146.8 64.3 L146.8 63.4 L146.8 62.5 L146.8 61.5 L146.8 60.6 L146.8 59.6 L146.8 58.7 L146.8 57.8 L146.8 56.8 L146.8 55.9 L146.8 55.0 L146.8 54.0 L146.8 53.1 L146.8 52.1 L146.8 51.2 L146.8 50.3 L146.8 49.3 L146.8 48.4 L146.8 47.4 L146.8 46.5 L146.8 45.6 L146.8 44.6 L146.8 43.7 L146.8 42.7 L146.8 41.8 L146.8 40.9 L146.8 39.9 L146.8 39.0 L146.8 38.0 L148.0 38.0 L149.3 38.0 L150.5 38.0 L151.8 38.0 L153.0 38.0 L154.3 38.0 L155.5 38.0 L156.8 38.0 L158.0 38.0 L159.3 38.0 L160.5 38.0 L161.8 38.0 L163.1 38.0 L164.3 38.0 L165.6 38.0 L166.8 38.0 L168.1 38.0 L169.3 38.0 L170.6 38.0 L171.8 38.0 L173.1 38.0 L174.3 38.0 L175.6 38.0 L176.8 38.0 L178.1 38.0 L179.3 38.0 L180.6 38.0 L181.8 38.0 L183.1 38.0 L184.3 38.0 L185.6 38.0 L186.8 38.0 L187.9 38.0 L188.1 38.0 L188.2 37.8 L188.2 37.3 L188.2 37.1 L188.2 36.6 L188.2 35.8 L188.2 34.9 L188.2 33.7 L188.2 32.4 L188.2 31.0 L188.2 29.6 L188.2 28.2 L188.2 26.8 L188.2 25.5 L188.2 24.4 L188.2 23.4 L188.2 22.7 L188.2 22.2 L188.2 22.0 Z" fill="#172033" fill-rule="evenodd"/></svg>
