<svg xmlns="http://www.w3.org/2000/svg" viewBox="0 0 320 200" role="img"><path d="M127.5 177.8 L127.5 175.4 L127.4 174.6 L127.0 173.8 L126.9 173.5 L126.8 172.5 L126.8 172.2 L127.1 171.5 L127.2 171.2 L127.1 170.9 L127.0 170.5 L126.9 170.2 L127.1 169.9 L126.4 169.8 L126.2 169.6 L125.9 169.4 L125.5 168.3 L125.5 168.0 L125.6 167.8 L126.0 166.8 L126.0 166.7 L126.2 166.6 L126.3 166.5 L126.3 166.5 L126.4 166.4 L126.4 166.2 L126.3 165.6 L126.2 165.4 L126.1 165.2 L126.1 164.9 L126.1 164.5 L126.1 164.3 L126.3 163.8 L126.3 161.8 L126.3 160.3 L126.3 159.1 L126.2 157.5 L126.2 156.2 L126.3 155.5 L126.3 154.8 L126.0 154.1 L125.7 153.4 L125.2 152.3 L125.1 151.9 L125.0 150.4 L125.0 150.3 L125.0 150.1 L124.9 150.0 L124.2 149.6 L124.1 149.4 L123.9 149.2 L123.5 148.4 L123.2 147.2 L123.0 146.9 L122.1 145.9 L121.9 145.6 L121.8 145.2 L122.0 143.0 L122.0 142.8 L121.3 140.9 L120.9 139.7 L120.4 138.3 L120.0 136.9 L119.5 135.7 L119.6 135.5 L120.4 135.0 L121.0 134.6 L121.5 134.1 L122.0 133.6 L122.5 133.1 L123.0 132.6 L123.5 132.0 L124.0 131.5 L124.5 131.0 L125.0 130.5 L125.5 130.0 L126.0 129.4 L126.5 128.9 L127.0 128.4 L127.5 127.9 L128.0 127.4 L128.5 126.9 L129.0 126.3 L129.5 125.8 L129.9 125.3 L130.3 125.0 L130.7 125.2 L130.6 125.2 L130.6 125.1 L129.9 124.0 L129.9 124.0 L130.0 123.9 L130.0 123.9 L130.0 123.8 L130.0 123.8 L129.9 123.8 L129.9 123.8 L129.8 123.7 L129.7 123.6 L129.6 123.5 L130.4 122.6 L130.8 122.0 L131.1 121.6 L131.1 121.3 L131.0 120.3 L130.9 119.2 L130.9 118.9 L131.0 118.4 L131.3 118.1 L131.7 118.0 L132.1 118.1 L132.5 118.0 L132.8 117.8 L133.1 117.2 L133.4 116.7 L134.0 115.9 L134.4 115.4 L134.5 115.3 L134.6 115.2 L134.6 114.9 L134.6 114.8 L134.6 114.7 L134.6 114.6 L134.6 114.5 L134.7 114.3 L134.8 114.2 L134.8 113.7 L134.9 113.6 L135.1 113.6 L135.2 113.5 L135.3 113.4 L135.3 113.1 L135.5 113.0 L136.0 113.0 L136.0 112.9 L135.9 112.7 L135.9 112.0 L136.1 111.5 L136.1 111.1 L136.2 110.8 L136.2 110.7 L136.1 110.5 L135.9 110.5 L135.7 110.3 L135.6 110.2 L135.5 110.0 L135.6 109.7 L135.5 109.5 L135.4 109.4 L135.2 109.4 L134.9 109.7 L134.7 109.8 L134.5 109.7 L134.3 109.7 L134.2 109.6 L134.2 109.4 L134.2 109.3 L134.3 109.2 L134.3 109.1 L134.3 109.0 L134.3 108.9 L134.3 108.8 L134.3 108.1 L134.3 108.0 L134.3 107.8 L134.1 107.7 L133.9 107.7 L133.8 107.7 L133.7 107.6 L133.6 107.4 L133.7 107.0 L133.7 106.7 L133.7 106.7 L134.1 106.3 L134.2 106.1 L134.3 105.9 L134.3 105.7 L134.3 105.5 L134.6 104.3 L134.5 104.0 L134.5 103.9 L134.4 103.8 L134.3 103.8 L134.2 103.6 L134.2 103.5 L134.2 103.5 L134.1 103.4 L134.0 103.4 L133.9 103.4 L133.3 103.4 L133.2 103.4 L133.0 103.4 L133.0 103.3 L132.9 103.2 L133.0 103.1 L132.9 103.0 L132.9 102.8 L132.9 102.6 L133.0 102.6 L133.1 102.5 L133.2 102.4 L133.1 102.4 L133.0 102.2 L133.0 101.7 L133.0 101.6 L133.9 101.2 L134.2 101.2 L134.6 101.2 L134.8 101.2 L135.0 101.0 L135.1 100.8 L135.2 100.6 L135.2 100.3 L135.1 100.0 L134.8 99.5 L134.7 99.1 L134.7 98.9 L134.7 98.8 L134.8 98.6 L135.0 98.6 L135.1 98.5 L135.3 98.4 L135.5 98.3 L135.7 98.2 L135.9 98.1 L135.9 97.9 L135.9 97.8 L135.8 97.7 L135.8 97.6 L135.8 97.6 L136.0 97.3 L136.3 97.1 L136.3 97.0 L136.2 96.8 L136.1 96.7 L135.6 96.3 L135.5 96.1 L135.4 96.0 L135.5 95.9 L135.5 95.8 L135.6 95.7 L135.7 95.5 L135.7 95.4 L135.6 95.1 L135.3 94.1 L135.3 93.9 L135.3 93.7 L135.4 93.6 L135.2 93.5 L135.2 93.4 L135.3 93.3 L135.3 93.3 L135.4 93.2 L135.5 93.1 L135.4 92.9 L135.3 92.7 L135.3 92.5 L135.3 92.3 L135.4 92.1 L135.5 91.9 L135.7 91.9 L135.9 91.7 L135.9 91.4 L135.9 91.0 L136.0 90.6 L136.1 90.2 L136.1 90.1 L136.1 89.9 L136.0 89.7 L135.6 89.5 L135.5 89.4 L135.4 89.3 L135.3 89.0 L135.3 88.9 L135.4 88.8 L135.5 88.8 L135.5 88.7 L135.9 88.0 L136.0 87.8 L136.1 87.7 L136.1 87.6 L136.1 87.4 L136.1 87.4 L135.8 87.2 L135.8 87.2 L135.7 87.0 L135.6 86.8 L135.6 86.7 L135.6 86.3 L135.5 85.7 L135.2 85.2 L134.8 84.5 L134.3 83.6 L134.3 83.5 L135.0 82.9 L135.1 82.7 L135.3 82.4 L135.5 81.4 L135.6 81.1 L135.5 81.1 L135.3 81.2 L135.1 81.4 L134.9 81.4 L134.6 81.4 L134.0 81.3 L133.7 81.3 L133.6 81.3 L133.4 81.3 L133.4 81.4 L133.4 81.4 L133.3 81.4 L133.0 81.2 L132.9 80.8 L132.9 80.6 L132.9 80.4 L132.8 80.3 L131.6 79.9 L130.1 79.3 L129.2 78.9 L128.4 78.8 L126.5 78.9 L125.5 78.7 L125.4 78.7 L125.3 78.5 L125.3 78.1 L125.2 78.0 L125.1 77.9 L124.7 77.7 L124.5 77.5 L123.9 76.9 L123.6 76.7 L123.4 76.6 L121.8 76.5 L121.5 76.3 L121.3 76.2 L121.1 76.2 L120.9 76.2 L120.7 76.2 L120.7 76.2 L120.7 76.1 L120.7 76.1 L120.7 76.0 L120.6 76.0 L120.6 76.1 L120.5 76.1 L120.5 76.0 L120.4 75.9 L120.4 75.8 L120.3 75.8 L120.1 75.7 L120.0 75.5 L119.8 75.2 L119.7 75.0 L119.5 74.9 L119.4 74.9 L118.4 74.6 L118.0 74.6 L117.7 74.8 L117.6 74.9 L117.6 74.9 L117.5 74.8 L117.4 74.8 L117.3 74.9 L117.1 75.1 L117.0 75.2 L116.8 75.3 L116.6 75.2 L116.5 75.1 L116.3 75.0 L115.9 74.7 L115.5 74.6 L114.5 74.6 L112.9 74.6 L112.3 74.6 L111.2 74.7 L111.2 74.0 L111.2 72.9 L111.1 71.9 L111.1 71.2 L111.3 71.1 L111.3 71.1 L111.2 70.8 L111.1 70.7 L110.9 70.5 L110.8 70.3 L110.9 70.1 L111.1 69.8 L111.1 69.7 L111.1 69.6 L110.9 69.4 L110.9 69.3 L110.9 68.7 L110.8 68.5 L110.8 68.3 L110.7 68.1 L110.5 68.0 L110.4 68.0 L110.1 67.8 L109.9 67.3 L109.5 66.1 L109.5 65.7 L109.5 65.3 L109.4 65.0 L109.4 65.0 L109.4 64.9 L109.6 64.9 L110.4 64.8 L111.1 64.5 L112.0 64.0 L113.0 63.7 L113.8 63.4 L115.1 62.9 L116.1 62.7 L117.4 62.4 L117.6 62.4 L118.6 62.2 L119.8 61.9 L120.8 61.6 L121.6 61.3 L122.5 60.9 L123.1 60.6 L124.5 60.1 L125.8 59.7 L126.7 59.4 L127.4 59.1 L127.8 59.0 L128.6 58.8 L129.4 58.5 L130.4 58.2 L131.9 57.7 L133.5 57.2 L135.1 56.6 L136.3 56.2 L137.2 56.0 L137.8 55.7 L138.4 56.0 L138.6 56.2 L138.7 56.5 L138.6 56.9 L138.7 57.1 L138.9 57.5 L139.0 57.6 L139.1 57.7 L139.2 57.7 L139.3 57.7 L139.3 57.8 L139.4 58.0 L139.6 58.3 L140.1 59.2 L140.3 59.5 L140.4 59.5 L140.8 59.7 L140.9 59.8 L141.0 59.9 L141.0 60.1 L141.1 60.2 L141.2 60.3 L141.5 60.4 L141.6 60.5 L141.7 60.6 L141.8 61.0 L141.9 61.1 L141.9 61.2 L142.0 61.3 L142.2 61.4 L142.3 61.3 L142.3 61.1 L142.3 60.8 L142.4 60.5 L142.6 60.3 L142.8 60.3 L143.3 60.6 L143.5 60.7 L143.8 60.6 L144.4 60.3 L144.6 60.2 L144.9 60.2 L145.9 60.3 L146.0 60.3 L146.1 60.0 L146.2 59.9 L146.5 59.8 L147.2 59.8 L148.1 59.5 L148.2 59.5 L148.3 59.5 L148.4 59.5 L148.5 59.4 L148.5 59.4 L148.6 59.3 L148.7 59.3 L149.0 59.4 L149.1 59.5 L149.2 59.7 L149.5 60.3 L149.7 60.6 L150.2 61.1 L150.4 61.4 L150.4 61.7 L150.2 62.3 L150.3 62.6 L150.5 62.9 L150.6 63.2 L150.6 63.5 L150.7 64.2 L150.7 64.3 L150.7 64.5 L150.8 64.7 L150.9 64.8 L151.0 65.0 L151.0 65.1 L150.9 65.3 L150.7 65.5 L150.7 65.7 L150.7 65.8 L150.7 65.9 L150.8 66.0 L150.7 66.1 L150.6 66.3 L150.8 67.0 L150.8 67.7 L150.8 68.0 L150.6 68.2 L150.5 68.3 L150.4 68.4 L150.3 68.4 L150.2 68.6 L150.1 68.7 L150.1 68.9 L150.0 69.1 L149.8 69.2 L149.6 69.5 L149.5 69.5 L149.3 69.7 L149.3 70.0 L149.4 70.6 L149.4 71.0 L149.3 71.3 L148.7 72.1 L148.7 72.1 L148.6 72.1 L148.4 72.2 L148.2 72.3 L148.1 72.4 L147.8 72.7 L147.7 72.9 L147.6 73.3 L147.6 73.6 L147.8 73.9 L147.9 74.0 L148.2 74.1 L148.3 74.2 L149.1 75.0 L149.3 75.2 L149.3 75.5 L149.1 76.1 L149.1 76.4 L149.5 77.2 L149.7 77.4 L150.0 77.4 L150.4 77.5 L150.6 77.7 L150.9 78.4 L151.0 78.5 L151.1 78.6 L151.4 78.9 L151.5 78.9 L151.5 79.0 L151.7 79.3 L151.7 79.3 L151.8 79.4 L152.4 79.7 L152.5 79.8 L152.7 80.1 L152.8 80.3 L153.2 80.6 L153.3 80.7 L153.4 81.0 L153.5 81.1 L153.6 81.2 L153.8 81.2 L153.9 81.3 L153.9 81.4 L154.0 81.4 L154.0 81.6 L154.0 81.7 L154.1 81.7 L154.3 81.8 L154.3 81.8 L154.5 81.9 L154.5 82.0 L154.7 82.2 L155.0 82.4 L155.3 82.4 L155.5 82.4 L155.9 82.4 L156.1 82.6 L156.2 82.9 L156.2 83.2 L156.1 83.5 L156.0 83.8 L155.8 83.9 L155.6 84.0 L155.4 84.2 L155.3 84.5 L155.6 85.0 L155.6 85.2 L155.7 85.3 L156.2 85.4 L157.2 85.4 L157.7 85.4 L157.7 85.4 L157.8 85.3 L157.8 85.1 L157.9 85.0 L157.9 84.8 L157.8 84.4 L157.8 84.3 L157.9 84.1 L157.9 84.0 L157.9 83.9 L157.6 83.7 L157.5 83.7 L157.5 83.6 L157.6 83.6 L157.6 83.5 L157.7 83.5 L157.6 83.1 L157.7 82.9 L157.9 82.7 L157.9 82.5 L157.7 82.1 L157.6 81.9 L157.6 81.3 L157.6 81.3 L157.3 81.0 L157.3 81.0 L157.2 81.0 L157.2 80.9 L157.2 80.9 L157.1 80.8 L157.1 80.8 L157.0 80.7 L156.8 80.6 L156.7 80.6 L156.6 80.6 L156.6 80.5 L156.5 80.4 L156.4 80.2 L156.2 79.8 L156.3 79.7 L157.0 79.2 L157.1 79.1 L157.2 78.9 L157.2 78.6 L157.2 78.4 L157.2 78.4 L157.4 78.1 L157.5 78.0 L157.4 77.8 L157.3 77.7 L157.4 77.2 L157.6 76.9 L157.8 76.6 L157.8 76.6 L158.5 76.0 L158.7 75.9 L158.9 75.8 L159.1 75.8 L159.3 75.9 L159.4 76.0 L159.5 76.1 L159.6 76.2 L159.7 76.3 L159.8 76.3 L159.9 76.2 L159.9 76.0 L160.0 76.0 L160.2 76.0 L161.1 75.7 L161.2 75.7 L161.4 75.7 L161.5 75.7 L161.6 75.7 L162.3 75.2 L162.4 75.0 L162.5 74.8 L162.5 74.7 L162.5 74.4 L162.5 74.2 L162.5 74.0 L162.6 73.6 L162.7 72.3 L162.8 71.4 L162.9 70.2 L162.9 69.5 L162.9 69.5 L162.9 69.1 L162.7 68.0 L162.5 67.1 L162.4 67.0 L162.4 66.8 L162.5 66.5 L162.9 65.5 L163.2 64.9 L163.6 64.0 L163.3 64.1 L163.2 64.0 L163.2 63.9 L163.1 62.0 L163.0 61.8 L162.9 61.7 L162.4 61.2 L162.1 60.8 L161.7 60.4 L160.7 59.1 L159.9 58.1 L159.3 56.9 L158.5 56.0 L157.6 54.9 L156.6 53.8 L155.7 52.8 L154.9 52.0 L153.9 51.2 L153.7 51.0 L153.6 51.0 L153.3 50.9 L153.0 50.8 L151.8 50.9 L151.6 50.8 L151.5 50.8 L151.5 50.7 L151.5 50.7 L151.4 50.6 L151.2 50.2 L151.1 50.1 L151.0 49.9 L150.9 49.9 L150.9 49.9 L150.6 49.2 L150.6 48.4 L150.7 47.6 L150.5 46.7 L150.4 45.5 L150.3 44.2 L150.1 43.1 L149.6 41.3 L149.0 39.3 L148.8 38.5 L148.8 38.5 L148.8 38.0 L149.0 37.6 L150.1 36.0 L150.8 35.0 L151.2 34.0 L151.3 33.7 L151.3 33.3 L151.2 32.9 L151.2 32.7 L151.3 32.6 L151.6 32.5 L154.6 32.5 L158.6 32.6 L159.0 32.5 L159.0 32.6 L159.1 32.7 L159.1 32.7 L159.4 32.7 L159.4 32.7 L159.5 32.6 L159.6 32.6 L159.6 32.6 L159.6 32.6 L159.7 32.6 L159.8 32.7 L159.8 32.7 L159.9 32.8 L159.9 32.9 L160.0 32.9 L160.0 32.7 L160.1 32.7 L160.3 32.8 L160.4 32.8 L160.7 32.7 L160.7 32.7 L161.2 32.6 L161.3 32.5 L161.3 32.3 L161.4 32.2 L161.5 32.0 L161.6 32.0 L161.6 31.8 L161.7 31.7 L162.2 31.6 L162.4 31.4 L162.7 31.1 L162.8 31.0 L163.2 31.1 L163.5 31.2 L163.5 31.2 L163.9 31.2 L164.0 31.2 L164.2 31.4 L164.1 31.7 L164.2 31.8 L164.4 31.9 L164.5 31.9 L164.7 31.9 L164.9 32.0 L165.2 32.2 L165.3 32.2 L165.5 32.3 L165.6 32.3 L165.7 32.4 L165.8 32.4 L165.8 32.5 L165.9 32.5 L166.1 32.6 L166.1 32.7 L166.1 33.0 L166.2 33.1 L166.1 33.3 L166.2 33.5 L166.3 33.7 L166.4 33.7 L166.8 33.7 L166.9 33.7 L167.0 33.8 L167.1 33.8 L167.3 33.8 L167.6 33.7 L167.9 33.6 L168.0 33.6 L168.0 33.6 L168.1 33.5 L169.2 33.5 L169.2 33.6 L169.3 33.8 L169.4 33.9 L169.4 33.9 L169.7 34.0 L169.8 34.0 L170.4 33.9 L170.6 33.9 L170.8 33.8 L170.9 33.8 L170.9 33.7 L171.0 33.7 L171.4 33.5 L171.5 33.5 L171.6 33.4 L171.8 33.0 L172.3 32.5 L172.4 32.5 L172.5 32.5 L172.7 32.5 L172.9 32.7 L173.1 32.7 L174.0 32.6 L174.1 32.6 L174.1 32.5 L174.3 32.4 L174.4 32.7 L174.7 33.0 L175.0 33.3 L175.3 33.5 L176.1 33.7 L176.6 33.7 L176.9 33.7 L177.0 33.6 L177.1 33.6 L177.1 33.5 L177.2 33.5 L177.3 33.6 L177.5 33.8 L177.6 33.8 L178.1 33.9 L178.3 33.9 L178.5 33.9 L178.5 33.9 L178.6 33.8 L178.6 33.7 L178.7 33.6 L178.8 33.5 L178.9 33.4 L179.1 33.4 L179.4 33.2 L179.6 33.1 L179.9 33.1 L180.1 33.1 L180.3 33.0 L180.7 32.7 L181.4 32.4 L181.6 32.2 L181.8 32.1 L181.8 32.0 L181.8 31.9 L181.8 31.8 L181.7 31.6 L181.8 31.4 L182.0 31.0 L182.0 30.9 L182.1 30.7 L182.2 30.3 L182.2 30.2 L182.3 30.1 L182.9 29.8 L183.1 29.7 L183.5 29.7 L183.5 29.7 L183.6 29.6 L184.2 29.5 L184.4 29.5 L184.5 29.5 L184.5 29.5 L184.5 29.5 L184.5 29.4 L184.6 29.4 L184.6 29.5 L184.7 29.5 L184.7 29.6 L184.8 29.6 L185.0 29.7 L185.1 29.8 L185.2 29.7 L185.4 29.6 L185.5 29.6 L185.9 29.7 L186.3 29.9 L186.8 30.5 L187.1 30.6 L187.9 30.8 L188.2 31.0 L188.2 31.0 L188.4 30.7 L189.4 30.1 L189.6 29.8 L189.7 29.7 L190.0 29.6 L190.2 29.5 L190.3 29.5 L190.4 29.5 L190.6 29.6 L190.7 29.6 L190.9 29.5 L191.3 29.1 L191.4 29.0 L191.6 29.0 L191.8 28.9 L192.0 28.6 L192.4 28.6 L193.6 28.6 L193.9 28.5 L194.2 28.4 L194.4 28.4 L194.8 28.6 L195.0 28.7 L195.3 28.7 L195.5 28.6 L195.7 28.5 L197.6 27.0 L197.8 27.0 L197.9 26.9 L198.7 26.9 L200.3 26.5 L200.5 26.4 L201.4 25.8 L202.4 25.3 L202.6 25.3 L203.8 24.3 L204.1 24.2 L204.2 24.1 L204.4 23.9 L204.9 23.4 L205.3 23.1 L205.9 22.9 L206.2 22.6 L206.5 22.3 L206.7 22.1 L206.9 22.0 L207.0 22.0 L207.1 22.1 L207.0 22.3 L207.1 22.3 L207.4 22.1 L207.5 22.2 L207.6 22.4 L207.5 22.5 L207.4 22.7 L207.3 22.8 L207.4 22.9 L207.5 23.0 L207.7 23.0 L207.9 23.1 L207.9 23.2 L208.0 23.6 L208.0 23.7 L208.2 23.8 L208.5 23.8 L208.7 23.9 L208.8 24.1 L208.6 24.1 L208.3 24.1 L208.0 24.2 L207.2 24.8 L207.2 25.1 L207.3 25.1 L207.3 25.0 L207.4 24.9 L207.4 24.9 L207.6 25.0 L208.3 25.3 L208.4 25.5 L208.3 25.7 L207.7 26.0 L207.6 26.1 L207.4 26.4 L207.3 26.6 L207.4 27.0 L207.3 27.3 L207.4 27.4 L207.5 27.4 L207.6 27.1 L207.7 27.1 L207.9 27.2 L207.9 27.5 L207.8 27.8 L207.6 28.0 L207.3 28.3 L207.3 28.4 L207.3 28.5 L207.3 28.7 L207.4 28.8 L207.2 29.0 L206.6 29.5 L206.5 29.6 L206.4 29.9 L206.3 30.0 L206.2 30.1 L206.0 30.1 L205.9 30.1 L206.0 30.2 L206.0 30.4 L206.1 30.5 L206.2 30.3 L206.3 30.4 L206.5 30.5 L206.6 30.6 L206.7 30.8 L207.0 30.7 L207.0 31.0 L207.0 31.3 L206.9 31.7 L206.8 32.0 L206.7 32.1 L206.6 32.3 L206.6 32.4 L206.7 32.6 L206.8 32.7 L206.9 32.8 L206.8 32.9 L206.6 33.2 L206.6 33.2 L206.7 33.4 L206.7 33.5 L206.8 33.8 L206.8 34.0 L207.0 34.2 L207.0 34.2 L207.0 34.3 L207.0 34.7 L207.1 34.9 L207.2 35.0 L207.3 35.0 L207.4 35.0 L207.5 35.0 L207.2 35.3 L207.2 35.6 L207.2 35.9 L207.4 36.1 L207.6 36.5 L207.6 36.6 L207.5 36.8 L207.4 36.9 L207.4 37.2 L207.3 37.6 L207.3 37.8 L207.3 37.9 L207.5 38.2 L207.5 38.4 L207.5 38.5 L207.5 38.7 L207.3 38.9 L207.2 39.0 L207.1 38.9 L206.9 38.9 L206.9 38.9 L206.8 39.1 L207.1 39.0 L207.3 39.2 L207.4 39.4 L207.5 39.7 L207.5 39.8 L207.4 39.9 L207.4 40.0 L207.4 40.2 L207.5 40.3 L207.6 40.3 L207.9 40.3 L207.8 40.4 L207.8 40.4 L207.7 40.5 L207.5 40.5 L207.4 40.6 L207.4 40.8 L207.1 41.2 L207.1 41.3 L207.2 41.5 L207.3 41.5 L207.4 41.6 L207.8 41.6 L207.9 41.6 L207.9 42.3 L207.9 42.4 L208.0 42.5 L208.1 42.5 L208.4 42.6 L208.4 42.7 L208.4 42.8 L208.3 42.8 L208.1 42.7 L208.0 42.7 L207.9 42.8 L207.9 42.9 L208.0 43.3 L208.1 43.3 L208.2 43.2 L208.3 43.3 L208.4 43.3 L208.5 43.6 L208.5 43.6 L208.6 43.7 L208.7 43.8 L208.7 43.9 L208.7 44.0 L208.5 44.1 L208.3 44.2 L208.1 44.1 L207.9 44.0 L207.9 44.0 L207.9 44.1 L208.0 44.2 L208.0 44.2 L207.9 44.3 L207.6 44.3 L207.5 44.4 L207.6 44.4 L207.7 44.5 L207.8 44.6 L207.8 44.8 L207.7 45.1 L207.6 45.1 L207.5 45.2 L207.5 45.2 L207.5 45.2 L207.4 45.1 L207.4 45.1 L207.4 45.0 L207.3 45.0 L207.2 44.9 L207.1 45.0 L206.9 45.1 L206.7 45.2 L206.5 45.4 L206.4 45.5 L206.5 45.7 L206.5 45.8 L207.0 46.3 L207.1 46.3 L207.3 46.2 L207.4 46.1 L207.4 45.9 L207.3 45.8 L207.2 45.7 L207.3 45.6 L207.4 45.6 L207.6 45.6 L207.7 45.7 L207.8 45.7 L208.0 45.7 L208.1 45.7 L208.2 45.9 L208.1 46.2 L207.9 46.7 L207.9 47.0 L207.9 47.2 L208.0 47.5 L208.0 47.7 L207.9 48.4 L207.9 48.6 L207.8 48.7 L207.6 48.8 L207.5 48.9 L207.6 49.0 L207.7 49.0 L207.9 48.8 L207.9 49.6 L208.0 49.6 L208.1 49.5 L208.1 49.5 L208.1 49.7 L207.8 50.0 L207.7 50.2 L207.7 50.6 L207.7 50.8 L207.5 50.9 L207.5 50.9 L207.7 51.1 L207.9 51.3 L208.0 51.4 L208.2 51.5 L208.2 51.5 L208.1 51.7 L207.8 52.0 L207.7 52.1 L207.7 52.4 L208.0 52.9 L208.0 53.1 L208.2 54.2 L208.3 54.5 L208.3 54.6 L208.3 54.7 L208.5 54.8 L208.5 54.9 L208.6 55.0 L208.6 55.1 L208.6 55.3 L208.7 55.7 L208.7 55.9 L208.7 56.2 L208.6 56.3 L208.2 56.4 L208.3 56.5 L208.4 56.6 L208.4 56.7 L208.4 56.8 L208.3 56.9 L208.2 57.0 L207.9 57.0 L207.7 57.2 L207.7 57.3 L207.9 57.5 L207.8 57.8 L207.9 57.8 L208.0 57.6 L208.1 57.6 L208.2 57.6 L208.2 57.7 L208.2 57.8 L208.3 57.9 L208.1 58.0 L208.1 58.1 L208.2 58.1 L208.3 58.1 L208.4 58.1 L208.5 58.0 L208.5 57.7 L208.7 57.5 L209.2 57.3 L209.3 57.4 L209.4 57.6 L209.4 57.7 L209.4 58.0 L209.5 58.1 L209.6 58.2 L209.5 58.3 L209.5 58.5 L209.5 58.7 L209.5 58.8 L209.4 58.9 L209.1 59.1 L209.0 59.1 L208.9 59.1 L208.7 58.9 L208.6 58.8 L208.8 59.9 L208.6 59.8 L208.5 59.9 L208.5 60.0 L208.7 60.1 L208.5 60.3 L208.5 60.3 L208.5 60.4 L208.6 60.4 L208.6 60.4 L208.5 60.8 L208.5 61.0 L208.7 60.8 L208.9 60.6 L209.1 59.8 L209.2 59.7 L209.8 59.4 L209.9 59.4 L210.2 59.5 L210.4 59.7 L210.6 60.0 L210.5 60.3 L210.3 60.4 L210.0 60.5 L209.9 60.5 L209.8 60.6 L209.8 60.7 L209.9 60.7 L210.0 60.7 L210.1 60.7 L210.2 60.6 L210.3 60.5 L210.4 60.6 L210.5 60.7 L210.5 60.9 L210.3 61.4 L210.3 61.5 L210.4 61.7 L210.4 61.7 L210.4 61.8 L210.5 61.8 L210.5 61.9 L210.6 62.0 L210.6 62.1 L210.6 62.2 L210.6 62.3 L210.5 62.9 L210.5 62.9 L210.5 63.0 L210.5 63.0 L210.6 63.1 L210.6 63.2 L210.5 63.2 L210.5 63.2 L210.0 63.4 L210.0 63.5 L209.9 63.6 L209.6 63.9 L209.4 64.0 L209.3 64.1 L209.1 64.2 L208.9 64.2 L208.9 64.1 L208.8 63.8 L208.7 63.7 L208.7 63.9 L208.7 64.1 L208.8 64.3 L208.9 64.4 L209.1 64.4 L209.5 64.4 L209.6 64.4 L209.7 64.5 L209.8 64.7 L209.9 65.0 L209.9 65.1 L209.8 65.0 L209.7 65.0 L209.6 65.0 L209.4 65.0 L208.9 64.9 L208.8 65.1 L209.0 65.3 L209.3 65.8 L209.0 65.9 L208.7 66.0 L208.5 66.1 L208.3 66.3 L208.1 66.3 L207.9 66.2 L207.7 66.2 L207.6 66.3 L207.6 66.4 L207.5 66.7 L207.4 66.9 L207.8 66.9 L207.9 67.0 L208.1 67.1 L208.1 66.8 L208.3 66.7 L208.6 66.7 L208.8 66.8 L208.9 67.0 L209.0 67.3 L209.0 67.6 L208.8 67.7 L208.9 67.9 L208.9 68.0 L208.5 68.3 L208.5 68.4 L208.5 68.6 L208.5 68.6 L208.4 68.7 L208.4 68.8 L208.2 69.0 L208.1 69.0 L208.1 69.1 L208.1 69.2 L208.1 69.3 L208.0 69.4 L208.0 69.6 L208.0 69.7 L208.1 69.7 L208.1 69.8 L208.0 69.9 L207.9 70.0 L207.7 70.1 L207.6 70.2 L207.5 70.2 L207.3 70.1 L207.3 70.4 L207.1 70.5 L206.7 70.8 L206.6 71.0 L206.0 71.9 L204.1 73.8 L203.7 74.1 L203.6 74.1 L203.6 74.3 L203.6 74.4 L203.5 74.4 L203.4 74.4 L203.3 74.5 L203.2 74.5 L203.1 74.6 L203.2 74.7 L203.4 74.6 L203.8 74.3 L203.8 74.5 L203.7 74.7 L203.6 74.8 L203.6 75.0 L203.5 75.2 L203.4 75.4 L203.1 75.7 L202.7 76.4 L202.5 76.8 L202.1 76.9 L201.5 76.9 L201.3 77.0 L200.8 77.3 L200.5 77.5 L200.4 77.6 L200.5 77.6 L200.5 77.7 L200.6 77.7 L200.6 77.8 L200.6 78.0 L200.6 78.1 L200.7 78.3 L200.8 78.5 L201.0 78.6 L201.2 78.7 L200.7 79.0 L200.6 79.1 L200.6 79.0 L200.5 78.9 L200.5 78.8 L200.4 78.8 L200.3 78.9 L200.2 78.9 L200.1 78.9 L200.2 78.9 L200.3 79.0 L200.3 79.1 L200.1 79.1 L200.0 79.2 L199.9 79.3 L199.9 79.3 L199.9 79.4 L199.9 79.5 L199.8 79.5 L199.7 79.7 L199.5 79.8 L199.1 80.0 L198.8 80.3 L198.4 80.4 L198.3 80.5 L198.1 80.7 L196.4 81.5 L195.0 82.4 L194.8 82.5 L194.6 82.9 L194.4 83.0 L194.2 82.9 L194.2 82.9 L194.2 83.1 L194.1 83.2 L194.0 83.3 L193.8 83.4 L194.0 83.4 L194.1 83.4 L194.2 83.4 L194.2 83.6 L194.1 83.7 L194.0 83.9 L193.9 84.0 L193.7 84.1 L193.4 84.1 L193.1 84.1 L192.7 84.1 L192.2 84.5 L191.8 84.6 L190.3 84.7 L190.2 84.7 L190.0 84.4 L189.8 84.4 L190.0 84.7 L189.8 84.9 L189.5 85.0 L189.2 85.1 L189.2 84.9 L188.8 85.3 L188.6 85.3 L188.5 85.2 L188.4 85.2 L188.4 85.2 L188.3 85.2 L188.3 85.3 L188.3 85.4 L188.3 85.4 L185.6 86.5 L185.5 86.6 L185.3 86.8 L185.1 86.9 L185.0 86.9 L184.8 86.7 L184.8 86.0 L184.7 85.8 L184.7 86.0 L184.6 86.1 L184.5 86.1 L184.4 86.0 L184.3 86.0 L184.4 86.2 L184.6 86.4 L184.7 86.6 L184.5 86.8 L184.7 86.9 L184.5 87.0 L183.9 87.3 L182.6 87.5 L182.1 87.8 L180.9 88.6 L180.8 88.6 L180.8 88.5 L180.6 88.6 L180.2 88.9 L179.8 89.1 L179.5 89.1 L179.3 89.4 L178.0 90.0 L177.8 90.3 L177.7 90.4 L177.5 90.4 L177.4 90.3 L177.3 90.6 L177.2 90.6 L177.0 90.7 L176.8 90.7 L176.7 90.7 L176.6 90.9 L176.5 91.0 L176.3 91.2 L176.0 91.2 L175.8 91.2 L175.7 91.5 L175.5 91.9 L174.8 92.4 L174.1 93.5 L173.8 93.8 L173.8 93.7 L173.8 93.5 L173.7 93.6 L173.6 93.5 L173.5 93.4 L173.4 93.3 L173.3 93.2 L173.2 93.2 L173.1 93.0 L173.1 92.9 L173.1 92.8 L172.9 92.5 L172.6 92.4 L172.4 92.5 L172.3 92.8 L172.6 92.6 L172.8 92.7 L172.9 93.0 L173.0 93.3 L173.0 93.7 L173.1 93.8 L173.4 93.9 L173.5 94.0 L173.6 94.0 L173.8 94.1 L173.5 94.6 L173.3 94.8 L173.1 95.1 L173.0 95.2 L173.0 95.4 L172.9 95.5 L172.7 95.4 L172.5 95.4 L172.3 95.4 L172.2 95.5 L172.1 95.6 L171.9 95.9 L172.1 95.8 L172.4 95.6 L172.5 95.6 L172.4 95.8 L171.8 96.5 L171.4 96.8 L170.5 97.8 L170.0 98.2 L169.7 98.3 L169.6 98.7 L169.6 98.8 L169.5 98.8 L169.3 98.7 L169.4 98.9 L169.4 98.9 L169.3 98.9 L169.1 98.9 L169.0 99.0 L169.0 99.0 L169.0 99.2 L169.0 99.3 L168.8 99.5 L168.4 100.2 L168.3 100.4 L168.3 100.3 L168.3 100.2 L168.2 100.2 L168.2 100.2 L168.1 100.3 L168.1 100.5 L168.0 100.7 L168.1 100.8 L168.2 100.7 L168.2 100.6 L168.2 100.7 L168.3 100.7 L168.3 100.7 L168.3 100.7 L168.3 100.8 L168.4 101.1 L168.3 101.1 L168.2 101.2 L168.1 101.3 L167.9 101.3 L167.7 101.3 L167.5 101.2 L167.3 101.1 L167.1 100.9 L166.7 100.3 L166.7 100.6 L166.9 101.2 L167.0 101.6 L166.8 101.9 L166.9 101.9 L167.0 102.0 L167.0 102.0 L167.0 102.1 L167.0 102.2 L166.9 102.1 L166.8 102.1 L166.5 102.1 L166.2 102.2 L165.9 102.2 L165.7 102.1 L165.7 101.6 L165.7 101.5 L165.7 101.4 L165.7 101.3 L165.6 101.3 L165.6 101.3 L165.5 101.3 L165.2 101.6 L164.8 102.3 L164.6 102.4 L164.2 102.5 L164.3 102.3 L164.3 102.2 L164.2 102.2 L164.1 102.3 L164.0 102.4 L164.0 102.6 L163.9 102.7 L163.8 102.9 L163.6 102.9 L163.5 102.8 L163.4 102.7 L163.3 102.7 L163.2 102.7 L163.1 102.7 L163.0 102.8 L163.0 102.9 L163.0 103.0 L163.1 103.0 L163.2 102.9 L163.3 102.9 L163.2 103.1 L161.8 104.0 L161.7 104.1 L161.6 104.3 L161.5 104.4 L161.4 104.3 L161.3 104.5 L161.0 104.8 L161.1 104.8 L161.2 104.8 L161.3 104.8 L161.3 104.8 L161.0 105.0 L160.8 105.1 L160.3 105.6 L160.5 105.6 L160.4 105.7 L160.0 106.2 L159.9 106.2 L159.8 106.3 L159.8 106.3 L159.7 106.4 L159.7 106.5 L159.6 106.5 L159.2 107.2 L158.2 108.1 L157.1 109.0 L156.2 109.9 L155.8 110.0 L155.6 110.1 L155.1 110.6 L154.8 110.8 L154.7 110.7 L154.6 110.8 L154.3 111.1 L153.8 111.4 L153.5 111.3 L153.4 111.2 L153.4 111.1 L153.3 110.8 L153.3 110.7 L153.2 110.6 L153.1 110.6 L152.7 110.2 L152.3 110.1 L152.1 110.0 L151.8 109.5 L151.7 109.4 L151.5 109.3 L151.5 109.2 L151.5 109.0 L151.4 108.9 L151.3 108.8 L151.2 108.7 L151.0 108.7 L150.8 108.7 L150.7 108.7 L150.6 109.0 L150.5 109.1 L150.5 109.1 L150.6 109.1 L150.8 109.0 L151.0 108.9 L151.1 108.9 L151.3 109.0 L151.4 109.1 L151.4 109.4 L151.5 109.6 L152.0 110.3 L152.1 110.3 L152.2 110.3 L152.3 110.4 L152.4 110.4 L152.5 110.5 L152.6 110.6 L152.8 110.9 L152.8 110.9 L152.8 111.2 L152.6 111.5 L152.4 111.6 L152.2 111.6 L152.2 111.8 L152.3 111.8 L152.4 111.7 L152.5 111.7 L152.7 111.7 L152.7 111.8 L152.6 112.1 L152.6 112.2 L152.7 112.5 L152.7 112.6 L152.7 112.7 L152.7 112.8 L152.7 112.8 L152.6 112.9 L152.6 113.0 L152.6 113.0 L152.6 113.1 L152.6 113.2 L152.6 113.4 L152.6 113.5 L152.7 113.6 L152.7 113.7 L152.8 113.9 L152.8 114.0 L152.8 114.1 L152.8 114.2 L152.7 114.2 L152.7 114.3 L152.6 114.4 L152.4 114.4 L152.1 114.2 L152.0 114.2 L151.9 114.3 L151.7 114.3 L151.7 114.2 L151.7 114.2 L151.7 114.3 L151.7 114.3 L151.8 114.5 L152.5 114.9 L152.5 114.9 L152.4 115.0 L152.4 115.1 L152.3 115.3 L152.2 115.6 L152.1 115.7 L152.0 115.9 L151.9 116.0 L152.1 116.2 L152.1 116.3 L151.9 116.4 L151.8 116.4 L151.7 116.4 L151.5 116.3 L151.6 116.4 L151.6 116.6 L151.7 116.7 L151.8 116.8 L151.9 116.9 L152.1 116.9 L152.2 116.9 L152.2 117.0 L152.2 117.2 L152.3 117.3 L152.2 117.4 L151.8 117.7 L151.8 117.9 L152.1 117.7 L152.3 117.6 L152.5 117.7 L152.5 117.9 L152.6 118.0 L152.7 117.9 L152.8 118.1 L152.9 118.2 L153.1 118.3 L153.3 118.4 L153.4 118.5 L153.4 118.7 L153.5 118.8 L153.5 119.0 L153.5 119.1 L153.8 118.9 L153.9 119.0 L153.9 119.1 L153.8 119.2 L153.7 119.3 L153.7 119.5 L153.8 119.4 L153.9 119.4 L154.0 119.3 L154.1 119.3 L154.5 119.3 L154.6 119.4 L154.9 119.7 L154.9 119.8 L154.9 119.9 L154.9 120.1 L155.0 120.1 L155.1 120.1 L155.2 120.2 L155.2 120.3 L155.1 120.3 L155.0 120.5 L155.0 120.6 L155.0 120.7 L155.3 121.0 L155.4 121.1 L155.4 121.2 L155.3 121.4 L155.3 121.5 L155.3 121.6 L155.6 121.4 L155.7 121.4 L155.9 121.5 L156.0 121.6 L156.0 121.6 L156.0 121.6 L156.0 121.7 L156.0 121.8 L156.0 121.8 L156.0 121.8 L156.0 121.9 L156.1 121.9 L156.0 122.1 L156.0 122.2 L155.9 122.3 L155.8 122.2 L155.7 122.2 L155.6 122.3 L155.6 122.4 L155.6 122.5 L155.7 122.5 L155.7 122.5 L155.8 122.5 L155.8 122.5 L155.8 122.6 L155.8 122.9 L155.7 123.0 L155.6 123.1 L155.4 123.1 L155.3 123.1 L155.3 123.0 L155.2 123.0 L155.1 123.1 L155.1 123.3 L155.2 123.3 L155.2 123.4 L155.4 123.5 L155.4 123.5 L155.5 123.5 L155.5 123.5 L155.5 123.6 L155.5 123.6 L155.5 123.7 L155.4 123.7 L155.5 123.8 L155.5 123.9 L155.5 123.9 L155.6 124.0 L155.5 124.1 L155.6 124.2 L155.7 124.2 L155.8 124.3 L155.8 124.4 L155.7 124.4 L155.6 124.5 L155.5 124.5 L155.4 124.6 L155.4 124.7 L155.5 124.7 L155.6 124.8 L155.7 124.9 L155.6 125.3 L155.9 125.1 L156.2 123.9 L156.2 124.1 L156.1 124.7 L156.0 125.0 L156.1 125.8 L156.4 126.5 L157.0 127.5 L157.1 127.6 L157.2 127.7 L157.5 128.4 L157.5 128.8 L157.5 129.6 L157.6 130.0 L157.9 130.6 L157.9 130.7 L158.0 131.3 L158.1 131.8 L158.1 132.6 L157.9 135.0 L157.9 135.4 L157.9 135.7 L158.0 135.8 L158.2 135.8 L158.4 135.9 L158.6 136.2 L158.7 136.4 L158.8 136.3 L158.7 135.9 L158.8 135.7 L159.0 135.6 L158.8 135.3 L158.7 134.8 L158.7 134.3 L158.8 134.0 L158.8 133.9 L158.8 133.8 L158.8 133.8 L158.9 133.7 L159.0 134.0 L159.1 134.1 L159.2 133.9 L159.0 133.5 L158.9 133.4 L158.9 133.3 L159.2 133.1 L159.2 133.0 L159.1 132.9 L159.1 132.9 L159.2 132.9 L159.2 132.8 L159.3 132.8 L159.3 132.8 L159.4 132.8 L159.4 132.7 L159.5 132.6 L159.6 132.6 L159.7 132.7 L159.7 132.8 L159.7 132.9 L159.7 133.1 L159.9 134.7 L159.9 134.5 L160.0 134.4 L160.0 133.8 L160.1 133.6 L160.1 133.4 L160.2 133.4 L160.1 134.6 L160.1 134.8 L160.1 135.4 L160.1 135.6 L159.6 137.1 L159.6 138.3 L159.9 140.4 L160.1 140.8 L160.2 140.6 L160.2 140.6 L160.2 140.5 L160.4 140.6 L160.5 140.6 L160.6 140.5 L160.5 140.4 L160.5 140.4 L160.7 140.4 L160.7 140.7 L160.3 141.4 L160.1 141.7 L159.7 142.5 L159.6 142.8 L159.5 142.9 L159.5 143.1 L159.5 143.3 L159.6 143.7 L159.6 143.9 L159.5 144.3 L159.0 145.8 L158.8 147.1 L158.8 147.9 L158.8 148.1 L158.7 148.3 L158.7 148.4 L158.6 148.2 L158.6 148.0 L158.6 147.8 L158.6 147.7 L158.3 147.7 L158.2 147.7 L158.2 147.8 L158.3 147.8 L158.4 147.9 L158.4 148.1 L158.4 148.2 L158.4 148.4 L158.3 148.7 L158.3 148.9 L158.3 149.3 L158.3 149.4 L158.3 149.5 L158.2 149.6 L158.2 149.7 L158.2 149.8 L158.2 149.9 L158.2 150.0 L158.2 150.2 L158.1 150.3 L158.1 150.4 L158.2 150.4 L158.6 149.9 L158.5 149.6 L158.5 149.4 L158.6 149.3 L158.7 149.3 L158.8 149.3 L159.1 149.6 L159.3 149.6 L159.4 149.6 L159.4 149.6 L159.5 148.9 L159.5 148.8 L159.5 148.7 L159.9 148.8 L160.0 148.9 L160.0 149.3 L160.0 149.4 L160.1 149.4 L160.1 149.5 L159.6 151.1 L159.5 151.3 L159.6 151.4 L159.7 151.6 L159.7 151.7 L159.6 151.8 L159.6 151.9 L159.5 151.9 L159.5 152.0 L159.4 152.2 L159.3 152.4 L157.8 154.4 L156.8 155.4 L156.7 155.5 L156.7 155.7 L156.7 155.7 L156.7 155.8 L156.0 156.5 L153.2 157.8 L151.6 158.5 L150.0 158.9 L150.0 158.9 L148.8 159.4 L148.5 159.4 L147.4 159.8 L146.9 159.9 L144.8 160.6 L142.9 161.3 L141.5 162.0 L140.3 162.3 L138.9 163.0 L138.6 163.1 L138.6 163.1 L138.7 163.0 L138.9 162.9 L139.0 162.8 L139.1 162.7 L139.0 162.7 L138.6 162.9 L138.5 163.0 L138.4 163.0 L138.1 163.1 L138.0 163.1 L138.0 163.3 L138.1 163.3 L138.2 163.2 L138.1 163.5 L137.9 163.6 L137.4 163.8 L137.2 163.9 L134.7 165.5 L134.4 165.7 L133.9 166.4 L133.7 166.8 L133.5 167.4 L133.4 167.6 L133.5 168.1 L133.4 168.2 L133.4 168.1 L133.4 168.0 L133.4 167.9 L133.3 167.9 L133.3 168.0 L133.2 168.1 L133.1 168.1 L133.1 168.2 L133.1 168.4 L133.0 168.5 L133.0 168.6 L132.9 168.7 L132.5 169.1 L132.4 169.2 L132.4 169.3 L132.1 169.5 L132.0 169.5 L131.9 169.5 L131.8 169.5 L131.6 169.4 L131.5 169.3 L131.3 169.3 L131.2 169.4 L131.0 169.5 L130.9 169.7 L131.0 169.8 L131.1 169.9 L131.2 169.9 L131.2 169.9 L131.2 169.5 L131.2 169.5 L131.4 169.5 L131.5 169.6 L131.6 169.6 L131.6 169.7 L131.7 169.8 L131.8 169.9 L131.9 170.0 L132.1 170.0 L132.2 170.1 L132.2 170.2 L132.3 170.4 L132.4 170.5 L132.5 170.6 L132.5 170.6 L132.6 170.7 L132.6 171.0 L132.8 171.4 L132.9 171.6 L133.0 171.5 L133.3 171.5 L133.5 171.6 L133.7 171.7 L133.9 172.0 L134.0 172.2 L134.1 172.4 L134.3 172.5 L134.4 172.6 L134.5 172.5 L134.6 172.5 L134.8 172.5 L134.7 172.2 L134.7 171.9 L134.7 171.6 L134.8 171.3 L134.9 170.9 L135.0 170.8 L135.1 170.7 L135.5 170.6 L135.5 170.8 L135.2 172.3 L135.1 175.0 L135.0 175.7 L134.9 175.9 L134.9 176.0 L135.0 176.4 L134.9 177.2 L134.9 177.3 L134.8 177.5 L134.8 177.6 L134.9 177.8 L134.9 177.9 L133.4 177.9 L132.1 177.9 L130.9 178.0 L129.7 178.0 L129.2 177.9 L128.5 177.8 L128.2 177.8 L127.8 177.9 L127.5 177.8 Z M152.0 36.6 L151.9 36.7 L151.7 37.1 L151.7 37.3 L151.7 37.5 L151.8 37.7 L152.0 37.8 L152.2 37.7 L152.4 37.6 L152.6 37.4 L152.7 37.2 L152.7 37.0 L152.6 36.8 L152.5 36.7 L152.2 36.6 L152.0 36.6 Z M150.8 36.4 L150.6 36.5 L150.6 36.7 L150.9 37.0 L151.0 37.1 L151.1 37.3 L151.2 37.3 L151.4 37.1 L151.5 36.7 L151.4 36.4 L151.1 36.3 L150.8 36.4 L150.8 36.4 Z" fill="#172033" fill-rule="evenodd"/></svg>
