<svg xmlns="http://www.w3.org/2000/svg" viewBox="0 0 320 200" role="img"><path d="M134.0 173.0 L133.8 173.1 L133.6 173.3 L133.5 173.5 L133.1 173.4 L133.0 173.3 L132.2 172.8 L131.8 172.3 L131.6 172.1 L130.2 170.8 L130.0 170.8 L129.9 170.7 L129.1 169.7 L128.2 168.9 L126.5 167.8 L126.2 167.5 L125.5 166.7 L124.6 166.0 L124.4 165.9 L124.0 165.3 L123.6 164.9 L123.5 164.8 L123.5 164.6 L123.6 164.4 L123.6 164.3 L123.4 163.8 L123.1 163.4 L121.8 162.3 L121.6 162.0 L121.5 161.7 L121.6 161.0 L121.5 160.9 L121.4 160.8 L120.2 159.0 L120.0 158.6 L119.8 158.4 L119.6 158.3 L119.5 158.2 L119.1 157.5 L118.6 156.9 L118.5 156.7 L118.3 155.7 L118.3 155.6 L118.2 155.5 L118.1 155.4 L118.1 155.2 L118.2 154.7 L118.0 153.8 L118.1 153.7 L117.8 153.2 L117.7 152.9 L117.7 152.6 L117.7 152.1 L117.6 151.8 L117.4 151.6 L117.4 151.6 L117.1 151.6 L117.0 151.5 L117.0 151.5 L116.9 151.3 L116.8 151.2 L116.7 151.2 L116.7 150.9 L116.6 150.7 L116.2 149.9 L116.1 149.7 L116.2 149.3 L116.1 149.1 L115.9 148.8 L115.8 148.6 L115.7 148.3 L115.8 148.0 L115.9 147.8 L116.1 147.8 L116.2 147.7 L116.3 147.7 L116.4 147.7 L116.5 147.8 L116.5 148.3 L116.6 148.3 L116.6 148.1 L116.9 147.4 L116.9 147.2 L116.8 147.1 L116.5 146.3 L116.4 145.5 L116.1 145.0 L115.6 144.6 L115.1 144.3 L114.4 144.0 L114.2 143.9 L114.1 142.9 L114.2 141.9 L113.9 141.6 L113.9 141.5 L113.9 141.3 L114.0 141.3 L114.1 141.3 L114.2 141.3 L114.4 140.9 L114.4 140.3 L114.3 139.8 L114.1 139.3 L113.5 138.5 L113.4 138.0 L113.6 137.5 L113.5 137.5 L112.9 136.8 L112.6 136.5 L112.6 136.3 L112.6 136.2 L112.6 136.0 L112.6 135.0 L112.7 134.7 L113.1 134.1 L113.1 133.9 L113.1 133.6 L113.1 133.3 L112.8 133.0 L112.7 132.7 L112.6 132.1 L112.3 131.3 L112.2 130.7 L112.1 130.2 L112.1 130.0 L112.5 129.0 L112.5 128.9 L112.7 127.9 L112.8 127.4 L112.6 126.9 L112.5 126.6 L112.2 126.1 L112.0 125.6 L112.0 124.5 L111.8 124.0 L111.1 122.7 L110.8 122.3 L110.1 121.7 L110.0 121.4 L109.5 120.9 L109.4 120.6 L109.5 120.4 L109.7 120.2 L109.7 120.1 L109.7 119.6 L109.6 119.4 L109.4 118.9 L109.1 118.2 L108.4 117.0 L108.1 116.1 L107.8 115.6 L107.8 115.0 L107.7 114.9 L107.7 114.6 L107.7 114.2 L107.7 113.7 L107.6 113.4 L107.7 113.2 L107.7 112.9 L107.8 112.7 L107.9 112.7 L108.0 112.7 L108.1 112.6 L108.2 112.5 L108.4 112.2 L108.3 112.0 L108.3 111.3 L108.0 110.7 L108.0 110.4 L108.2 108.6 L108.1 108.1 L108.0 107.7 L107.5 106.6 L107.3 106.0 L107.3 105.9 L107.4 105.7 L107.8 105.2 L107.9 105.1 L107.9 105.3 L108.0 105.5 L108.1 105.4 L108.1 105.1 L108.1 104.6 L107.8 103.1 L107.7 102.6 L107.5 102.3 L107.3 101.9 L107.2 101.5 L107.1 101.1 L107.0 100.2 L107.0 100.1 L107.1 100.0 L107.3 99.7 L107.3 99.6 L107.3 99.0 L107.3 99.0 L107.4 99.0 L107.5 99.1 L107.4 99.2 L107.4 99.3 L107.5 99.4 L107.6 99.4 L107.5 99.7 L107.5 100.0 L107.6 100.1 L107.8 100.0 L107.8 100.1 L107.7 100.5 L107.8 100.4 L108.1 99.8 L108.3 99.7 L108.5 99.6 L108.6 99.3 L108.6 98.7 L108.5 96.4 L108.3 94.7 L108.0 94.2 L107.8 93.7 L107.4 92.8 L107.1 92.0 L106.7 91.2 L106.6 91.1 L105.8 90.2 L105.5 89.8 L105.5 89.5 L105.5 89.3 L103.5 86.9 L102.5 86.0 L102.4 85.8 L101.3 84.9 L101.1 84.8 L101.1 84.6 L101.1 84.5 L101.2 84.5 L101.2 84.1 L101.2 84.0 L101.2 83.9 L101.1 83.8 L100.1 82.3 L99.9 81.5 L99.5 80.5 L98.2 78.9 L97.4 77.6 L96.9 77.0 L96.5 76.7 L95.4 74.7 L94.8 74.0 L94.7 73.5 L94.5 73.4 L94.1 73.1 L93.9 72.6 L93.7 72.2 L93.6 71.1 L93.2 70.0 L92.1 67.9 L91.8 66.8 L91.7 66.2 L91.5 65.2 L91.0 64.1 L90.7 63.6 L90.2 63.5 L89.6 63.1 L89.2 62.4 L88.8 60.8 L87.8 58.9 L87.6 58.6 L87.1 57.9 L86.1 56.2 L86.0 55.9 L85.9 55.7 L85.5 55.1 L85.4 54.9 L84.9 54.0 L84.7 53.5 L84.6 53.3 L84.5 52.7 L84.4 52.4 L84.0 51.9 L83.7 51.4 L83.1 49.9 L82.8 49.5 L82.4 49.1 L81.9 48.8 L81.8 48.6 L81.7 47.7 L81.6 47.4 L79.4 44.7 L78.0 43.8 L77.3 43.1 L77.3 43.0 L77.0 42.7 L76.9 42.7 L76.8 42.6 L76.1 42.2 L75.9 41.5 L75.9 41.3 L75.7 40.9 L75.7 40.7 L75.7 40.6 L75.7 40.5 L75.7 40.3 L75.4 39.9 L74.9 38.6 L74.8 38.6 L73.7 37.5 L73.5 36.9 L73.5 36.1 L73.2 35.5 L73.1 35.1 L72.9 33.8 L72.6 32.9 L72.4 31.5 L72.3 30.9 L72.2 30.4 L72.0 29.7 L72.1 28.7 L72.5 26.1 L72.7 25.9 L72.7 25.9 L72.8 25.9 L73.1 26.1 L73.2 26.1 L73.4 26.1 L73.5 26.0 L73.5 25.9 L73.6 25.8 L73.8 25.7 L74.3 25.4 L75.0 25.0 L75.5 24.7 L76.1 24.6 L76.7 24.5 L76.8 24.5 L76.9 24.4 L76.9 24.5 L77.1 24.5 L77.5 24.7 L77.7 24.6 L77.7 24.6 L77.8 24.5 L77.9 24.6 L78.0 24.6 L78.0 24.7 L78.1 24.8 L78.1 24.9 L78.2 25.0 L78.3 25.1 L78.5 25.2 L78.6 25.2 L78.7 25.3 L78.8 25.4 L78.8 25.5 L78.9 25.6 L79.8 25.5 L80.6 25.5 L80.8 25.4 L81.0 25.3 L81.1 25.3 L81.4 25.5 L81.7 25.5 L82.5 25.6 L82.9 25.7 L83.1 25.7 L83.4 25.5 L84.0 25.0 L84.3 24.9 L84.6 24.9 L84.9 24.8 L85.3 24.4 L85.9 24.1 L86.3 24.0 L86.4 23.9 L86.5 23.7 L86.6 23.6 L86.7 23.6 L87.0 23.5 L87.1 23.4 L87.1 23.3 L87.2 23.1 L87.2 23.0 L87.5 22.9 L87.8 22.8 L88.2 22.7 L88.9 22.3 L90.3 22.1 L90.6 22.0 L90.9 22.0 L91.1 22.2 L91.3 22.1 L91.4 22.2 L91.5 22.3 L91.6 22.3 L91.9 22.4 L92.0 22.4 L92.2 22.3 L92.2 22.4 L92.5 22.3 L92.7 22.2 L92.8 22.3 L92.9 22.3 L93.2 22.2 L93.4 22.2 L93.7 22.3 L94.1 22.6 L94.3 22.6 L94.7 22.7 L94.9 22.8 L95.1 22.9 L95.3 23.5 L95.5 23.6 L95.6 23.8 L95.5 24.2 L96.6 24.8 L97.7 25.7 L99.0 26.4 L100.2 27.0 L100.3 27.2 L100.9 27.9 L101.1 28.1 L101.4 28.1 L101.6 28.1 L101.8 28.0 L101.9 28.0 L102.1 28.0 L102.3 28.0 L102.6 28.1 L102.8 28.1 L103.0 28.1 L103.1 28.1 L103.3 28.0 L103.4 28.0 L104.0 28.0 L104.2 28.0 L104.4 27.7 L104.4 27.7 L104.5 27.7 L104.5 27.7 L105.4 27.7 L108.8 27.7 L112.1 27.7 L115.4 27.7 L118.8 27.7 L121.9 27.7 L122.1 27.7 L125.4 27.7 L128.8 27.7 L132.1 27.7 L135.4 27.7 L138.7 27.7 L142.1 27.7 L144.3 27.7 L145.4 27.7 L148.7 27.7 L152.1 27.7 L153.7 27.7 L155.4 27.7 L158.7 27.7 L159.4 27.7 L159.5 27.7 L159.6 27.8 L159.6 27.9 L159.7 28.0 L159.8 28.0 L160.0 28.5 L160.0 28.6 L160.1 28.7 L160.4 28.8 L160.8 29.6 L160.9 29.7 L161.0 29.8 L161.7 30.4 L161.7 30.5 L161.8 30.7 L161.9 30.8 L162.0 30.9 L162.2 31.0 L162.4 31.1 L163.1 31.9 L163.4 32.2 L163.6 32.3 L164.1 32.5 L165.2 33.0 L166.9 33.3 L168.0 33.3 L168.5 33.1 L168.7 33.0 L168.9 33.0 L169.3 33.1 L169.8 33.1 L170.1 33.2 L172.1 33.8 L174.3 33.8 L175.1 33.6 L175.4 33.6 L175.6 33.6 L175.8 33.9 L175.9 34.0 L176.2 34.1 L176.5 34.2 L176.7 34.2 L176.7 34.1 L176.9 33.9 L177.0 33.8 L179.0 33.8 L179.5 34.1 L180.0 34.3 L180.1 34.3 L180.8 34.2 L181.2 34.2 L181.4 34.2 L181.5 34.1 L181.6 34.2 L181.8 34.0 L182.1 34.0 L182.5 34.0 L182.8 34.1 L183.2 33.7 L183.4 33.8 L183.6 33.8 L184.0 33.7 L184.2 33.8 L184.7 34.2 L185.0 34.1 L185.3 34.3 L185.6 34.5 L185.9 34.8 L186.0 34.9 L186.4 35.1 L186.8 35.4 L187.0 35.4 L187.3 35.4 L187.8 35.3 L188.3 35.4 L188.5 35.5 L188.6 35.6 L188.8 35.7 L189.0 35.7 L189.1 35.7 L189.2 35.5 L189.4 35.6 L189.8 35.8 L190.1 36.0 L190.4 36.0 L190.8 35.9 L191.3 35.8 L191.4 35.4 L192.4 35.2 L192.6 35.1 L193.8 34.8 L194.0 34.9 L194.3 34.9 L194.5 34.8 L194.7 34.7 L194.9 34.8 L195.4 34.7 L195.6 34.8 L196.2 35.1 L197.0 35.3 L197.4 35.5 L197.6 35.8 L197.6 35.8 L197.9 35.7 L198.8 35.6 L202.1 35.0 L205.3 34.4 L208.6 33.8 L211.9 33.2 L214.5 32.7 L217.2 32.2 L219.8 31.7 L222.5 31.2 L223.6 31.0 L224.1 30.9 L224.5 30.8 L224.8 30.8 L225.2 30.7 L225.7 30.6 L226.3 30.5 L226.8 30.4 L227.4 30.3 L228.0 30.1 L228.5 30.0 L229.1 29.9 L229.6 29.8 L230.2 29.7 L230.7 29.6 L231.3 29.5 L231.9 29.4 L232.4 29.3 L233.0 29.2 L233.5 29.1 L234.1 28.9 L234.5 28.9 L234.7 28.8 L234.9 28.9 L235.6 28.9 L235.8 29.0 L235.9 28.9 L236.4 28.8 L236.6 28.8 L236.9 28.8 L237.4 29.0 L237.8 29.1 L238.1 29.2 L238.4 29.2 L238.5 29.3 L238.6 29.4 L238.7 29.5 L238.9 29.5 L239.0 29.6 L239.1 29.6 L239.3 29.5 L239.5 29.3 L239.6 29.3 L239.7 29.2 L239.8 29.1 L239.9 29.0 L240.5 29.0 L241.6 29.2 L241.7 29.2 L241.7 29.3 L241.8 29.4 L242.0 29.4 L242.4 29.4 L243.3 29.5 L243.6 29.7 L243.8 29.9 L244.0 29.8 L244.2 29.9 L244.2 29.9 L244.4 30.1 L244.6 30.3 L244.7 30.3 L244.9 30.2 L245.1 30.2 L245.1 30.2 L245.0 30.5 L245.0 30.5 L245.1 30.6 L245.2 30.7 L245.3 30.7 L245.4 30.7 L245.5 30.8 L245.7 31.0 L245.7 31.0 L245.8 31.4 L245.9 31.4 L246.0 31.5 L246.1 31.5 L246.1 31.6 L246.2 31.7 L246.3 31.6 L246.4 31.5 L246.6 31.7 L246.6 31.8 L246.6 32.0 L246.6 32.1 L246.7 32.1 L246.8 32.2 L246.9 32.2 L247.1 32.4 L247.2 32.5 L247.4 32.5 L247.6 32.5 L247.7 32.6 L247.9 32.8 L248.0 33.0 L247.1 32.8 L246.6 32.8 L246.2 33.2 L245.7 33.4 L245.3 33.4 L245.2 33.1 L244.8 33.3 L244.7 33.4 L244.6 33.2 L244.4 33.3 L244.3 33.2 L244.2 33.1 L244.0 33.0 L244.1 32.9 L244.0 32.9 L243.9 32.9 L243.9 33.0 L243.8 33.1 L243.7 33.2 L242.7 33.5 L242.5 33.5 L242.3 33.5 L242.0 33.8 L241.7 33.8 L241.6 33.9 L241.5 34.1 L241.4 34.1 L241.3 34.1 L241.2 34.2 L241.1 34.2 L241.0 34.3 L240.7 34.7 L240.2 35.0 L240.0 35.1 L239.4 35.9 L239.3 35.9 L239.3 36.0 L239.1 36.2 L239.1 36.3 L238.9 36.3 L238.3 36.4 L238.2 36.4 L237.7 36.0 L237.7 35.8 L237.6 35.7 L237.6 35.7 L237.5 35.6 L237.2 35.2 L237.1 35.1 L236.8 35.0 L236.3 35.0 L236.2 35.1 L235.9 35.3 L235.6 35.9 L235.4 36.0 L235.3 35.9 L235.1 35.8 L235.0 35.8 L234.7 35.8 L234.4 35.8 L234.0 36.0 L233.4 36.7 L232.9 37.0 L232.4 37.1 L232.3 37.2 L232.0 37.5 L231.9 37.6 L231.5 37.7 L231.3 37.9 L231.3 37.9 L231.2 38.0 L231.2 38.0 L231.1 37.9 L231.0 37.9 L231.0 37.9 L230.5 38.2 L230.5 38.7 L230.3 38.9 L229.9 39.1 L229.7 39.3 L229.5 39.6 L229.3 39.7 L229.1 39.8 L227.9 41.1 L227.7 41.2 L227.4 41.2 L227.1 41.6 L227.0 41.6 L227.0 41.7 L226.5 41.8 L226.3 41.8 L226.1 41.7 L226.0 41.2 L225.8 40.6 L225.7 40.4 L225.9 40.2 L225.8 39.9 L225.3 39.4 L225.5 39.2 L225.4 39.1 L225.2 39.0 L225.2 38.9 L225.1 38.7 L225.0 38.7 L224.8 38.6 L224.6 38.6 L224.6 38.5 L224.4 38.2 L224.2 38.1 L224.0 38.2 L223.9 38.2 L223.8 38.2 L223.7 38.1 L223.7 38.0 L223.8 37.8 L223.7 37.7 L223.7 37.6 L223.3 37.2 L223.1 36.9 L223.0 36.7 L222.9 36.6 L222.9 36.5 L222.9 36.2 L222.9 36.1 L222.8 36.1 L222.7 36.1 L222.7 36.0 L222.7 35.8 L222.7 35.8 L222.6 35.7 L222.4 35.6 L221.9 35.6 L221.0 35.7 L219.9 35.8 L218.4 35.9 L217.2 36.1 L216.1 36.3 L215.0 36.5 L213.9 36.7 L212.8 36.9 L211.7 37.1 L210.7 37.3 L209.6 37.5 L208.5 37.7 L207.4 37.9 L206.3 38.1 L205.2 38.3 L204.1 38.5 L203.0 38.7 L201.9 38.9 L200.8 39.1 L199.7 39.4 L199.5 39.4 L199.2 39.4 L199.0 39.5 L198.8 39.5 L198.6 39.5 L198.3 39.5 L197.7 39.6 L197.1 39.6 L196.5 39.6 L195.9 39.6 L195.1 39.7 L194.4 39.7 L193.7 39.7 L192.9 39.7 L192.5 39.8 L192.3 39.8 L192.3 40.1 L192.3 40.7 L192.3 41.2 L192.3 41.7 L192.3 42.3 L192.3 42.8 L192.3 43.3 L192.3 43.9 L192.3 44.4 L192.3 44.9 L192.3 45.4 L192.3 46.0 L192.3 46.5 L192.3 47.0 L192.3 47.6 L192.3 48.1 L192.3 48.6 L192.3 50.3 L192.3 50.9 L192.3 51.9 L192.3 53.5 L192.3 55.1 L192.3 56.7 L192.3 58.4 L192.3 60.0 L192.3 61.6 L192.3 63.2 L192.4 64.9 L192.4 66.2 L192.4 66.5 L192.4 68.1 L192.4 69.7 L192.4 71.4 L192.4 73.0 L192.4 74.6 L192.4 74.6 L192.4 75.4 L192.4 76.1 L192.4 76.9 L192.4 77.6 L192.4 78.4 L192.4 79.1 L192.4 79.8 L192.4 80.6 L192.4 81.3 L192.4 82.1 L192.4 82.8 L192.4 83.6 L192.4 84.3 L192.4 85.1 L192.4 85.8 L192.4 86.6 L192.4 87.1 L192.3 87.6 L191.5 87.6 L188.5 87.6 L185.4 87.6 L182.4 87.6 L179.4 87.6 L179.4 88.7 L179.4 90.7 L179.4 92.6 L179.4 94.6 L179.4 96.5 L179.4 98.8 L179.4 101.0 L179.4 103.2 L179.4 104.6 L179.4 105.5 L179.4 107.7 L179.4 109.9 L179.4 111.8 L179.4 112.2 L179.4 114.4 L179.4 116.6 L179.4 118.9 L179.4 121.1 L179.4 123.3 L179.4 123.5 L179.4 124.2 L179.4 125.0 L179.4 125.7 L179.4 126.4 L179.4 127.2 L179.4 127.9 L179.4 128.6 L179.4 129.3 L179.4 130.1 L179.4 130.8 L179.4 131.5 L179.4 132.3 L179.4 133.0 L179.4 133.7 L179.4 134.4 L179.4 134.6 L179.4 135.2 L179.4 135.9 L179.4 136.6 L179.4 137.3 L179.4 138.1 L179.4 138.8 L179.4 139.5 L179.4 140.3 L179.4 141.0 L179.4 141.7 L179.4 142.4 L179.4 143.2 L179.4 143.9 L179.4 144.6 L179.4 145.4 L179.4 146.1 L179.4 146.8 L179.4 147.5 L179.4 148.3 L179.4 149.0 L179.4 149.7 L179.4 150.5 L179.4 151.2 L179.4 151.9 L179.4 152.6 L179.4 153.4 L179.4 154.1 L179.4 154.8 L179.4 155.6 L179.4 156.3 L179.4 157.0 L179.4 157.7 L179.4 158.5 L179.4 159.2 L179.4 159.9 L179.4 160.7 L179.4 161.4 L179.4 162.1 L179.4 162.8 L179.4 163.6 L179.4 164.3 L179.4 165.0 L179.4 165.8 L179.4 166.5 L179.4 167.2 L179.4 167.9 L179.4 168.7 L179.4 169.4 L179.4 170.1 L179.4 170.6 L179.4 171.0 L179.0 171.1 L178.9 171.1 L178.4 171.1 L178.3 171.1 L177.9 171.3 L177.4 171.7 L177.0 171.8 L176.4 171.9 L176.1 172.0 L175.8 172.1 L175.6 172.2 L174.3 172.3 L174.2 172.4 L174.0 172.4 L173.9 172.5 L173.9 172.6 L173.8 172.8 L173.7 172.9 L173.6 173.1 L173.5 173.1 L173.4 173.2 L173.3 173.3 L172.9 174.3 L172.8 174.5 L172.6 174.7 L172.3 174.8 L171.2 175.0 L171.0 175.1 L170.9 175.1 L170.6 174.9 L170.4 174.9 L170.2 175.0 L170.1 175.2 L169.9 175.6 L169.8 175.8 L169.9 176.1 L170.4 176.9 L170.4 177.0 L170.2 177.1 L169.8 177.1 L169.7 177.2 L169.6 177.4 L169.5 177.5 L168.7 177.8 L168.2 178.0 L167.7 178.0 L167.5 177.7 L167.4 177.7 L167.3 177.6 L166.8 177.6 L166.7 177.6 L166.6 177.4 L166.3 177.0 L166.1 176.8 L163.3 176.4 L160.8 176.8 L160.4 177.0 L160.1 177.1 L160.0 177.1 L159.9 176.9 L159.8 176.9 L159.7 176.9 L159.6 177.0 L159.6 177.0 L159.3 177.0 L159.2 177.1 L159.1 177.1 L158.8 177.2 L158.5 177.2 L158.0 177.0 L157.7 177.0 L156.5 177.1 L156.1 177.3 L155.8 177.3 L154.7 176.9 L154.2 176.7 L153.4 176.1 L153.0 175.9 L152.5 175.7 L150.4 175.3 L149.9 175.3 L149.8 175.4 L149.5 175.5 L149.4 175.6 L149.2 175.6 L148.8 175.5 L148.5 175.4 L148.5 175.1 L148.5 174.8 L148.4 174.5 L148.2 174.4 L148.0 174.4 L147.8 174.5 L147.5 174.6 L147.0 174.6 L146.4 174.8 L145.9 174.7 L145.9 174.3 L146.0 173.8 L146.1 173.2 L146.0 173.0 L145.5 172.8 L145.4 172.6 L145.3 172.3 L145.0 171.9 L144.9 171.6 L144.9 171.5 L145.1 171.3 L145.3 171.2 L145.5 171.1 L145.7 171.0 L145.9 170.7 L145.9 170.3 L145.9 170.0 L145.8 169.9 L145.6 169.6 L145.5 169.5 L145.4 169.4 L145.4 169.2 L145.4 169.1 L145.3 168.9 L145.2 168.8 L145.2 168.6 L145.2 168.5 L145.0 168.4 L144.7 168.4 L143.8 168.6 L143.4 168.6 L143.2 168.2 L143.1 167.6 L143.1 167.3 L143.1 167.1 L143.0 166.8 L142.7 166.7 L142.4 166.6 L142.3 166.4 L142.1 166.1 L141.9 165.9 L141.8 165.9 L141.7 165.9 L141.4 165.9 L141.3 166.0 L140.8 166.3 L140.5 166.2 L140.3 166.3 L140.1 166.4 L140.0 166.5 L139.8 166.5 L139.7 166.3 L139.6 166.3 L139.5 166.4 L139.3 166.6 L139.3 166.6 L139.2 167.6 L139.1 167.8 L139.0 167.8 L139.0 167.7 L138.7 167.7 L138.7 167.7 L138.6 167.7 L138.6 167.7 L138.5 167.8 L138.6 167.9 L138.8 168.1 L138.8 168.2 L138.6 168.3 L138.3 168.3 L138.2 168.3 L138.2 168.4 L138.2 168.5 L138.3 168.7 L138.4 168.8 L138.4 169.0 L138.3 169.1 L138.1 169.0 L138.0 168.9 L137.9 168.9 L137.7 169.0 L137.6 169.2 L137.7 169.5 L137.7 169.7 L138.0 170.1 L138.1 170.3 L138.0 170.4 L137.8 170.5 L137.7 170.8 L137.7 171.1 L137.7 171.3 L137.5 171.5 L137.3 171.8 L137.0 172.0 L136.8 172.0 L136.8 171.8 L136.7 171.7 L136.7 171.5 L136.5 171.5 L136.4 171.5 L135.4 172.4 L134.9 172.5 L134.6 172.7 L134.2 172.9 L134.0 173.0 Z" fill="#172033" fill-rule="evenodd"/></svg>
