<svg xmlns="http://www.w3.org/2000/svg" viewBox="0 0 320 200" role="img"><path d="M101.1 178.0 L101.0 177.9 L100.9 177.7 L100.7 177.7 L100.7 177.6 L100.7 177.4 L100.6 177.3 L100.6 177.1 L100.5 177.0 L100.5 177.0 L100.4 176.9 L100.3 176.9 L99.8 176.2 L99.7 176.1 L99.6 176.0 L99.1 175.9 L98.5 175.5 L98.4 175.5 L98.2 175.4 L98.1 175.3 L97.9 175.4 L97.7 175.5 L97.5 175.5 L97.4 175.4 L97.3 175.3 L97.1 175.1 L96.8 174.6 L96.7 174.3 L96.6 174.0 L96.6 173.7 L96.5 173.7 L96.4 173.5 L96.3 173.5 L94.0 171.4 L93.5 170.7 L93.4 170.4 L93.3 170.3 L93.2 170.3 L92.8 170.3 L92.6 170.2 L92.5 170.1 L92.4 170.0 L92.3 169.7 L92.2 169.6 L92.1 169.4 L91.8 169.3 L91.2 168.7 L91.0 168.9 L90.7 168.9 L90.5 169.0 L90.3 168.9 L90.2 169.0 L90.0 169.1 L89.8 169.3 L89.7 169.4 L89.5 169.4 L89.4 169.4 L89.3 169.4 L89.2 169.5 L89.1 169.6 L89.1 169.7 L89.1 169.8 L88.9 170.1 L88.8 170.1 L88.3 170.0 L88.2 170.0 L88.1 170.1 L88.0 170.2 L87.9 170.2 L87.8 170.1 L87.7 170.1 L87.3 170.2 L87.2 170.3 L87.1 170.4 L87.0 170.4 L86.9 170.4 L86.9 170.4 L86.9 170.3 L86.8 170.3 L86.7 170.3 L86.5 170.2 L86.4 170.3 L86.4 170.4 L86.3 170.6 L86.2 170.6 L86.2 170.5 L86.1 170.5 L86.0 170.5 L85.9 170.7 L85.9 170.7 L85.7 170.7 L85.4 170.7 L85.2 170.7 L84.9 170.9 L84.8 171.1 L84.8 171.4 L84.9 172.1 L85.4 173.4 L85.4 173.5 L85.5 173.6 L85.7 173.7 L85.8 173.8 L85.9 173.8 L86.0 173.9 L86.0 174.0 L86.0 174.3 L85.9 174.3 L85.8 174.2 L85.7 174.2 L85.6 174.3 L85.5 174.5 L85.4 174.6 L85.3 174.7 L85.1 174.6 L85.0 174.7 L85.0 174.8 L85.0 175.0 L85.1 175.2 L85.2 175.4 L84.5 174.8 L83.4 173.3 L82.5 172.1 L81.5 170.7 L80.9 169.9 L80.7 169.5 L80.7 169.1 L80.9 168.9 L81.7 168.8 L81.7 168.7 L81.8 168.6 L81.9 168.6 L82.0 168.6 L82.1 168.6 L82.2 168.6 L83.0 168.6 L83.1 168.5 L83.2 168.4 L83.2 168.1 L83.2 168.0 L83.3 167.9 L83.3 167.8 L83.2 167.7 L83.0 167.6 L83.0 167.5 L82.9 167.3 L82.8 167.1 L82.7 166.3 L82.6 166.1 L82.6 165.9 L82.4 165.8 L82.2 165.6 L82.1 165.5 L81.9 165.4 L81.9 165.3 L81.8 165.1 L81.4 164.7 L80.9 164.5 L79.6 164.4 L79.5 164.5 L79.3 164.7 L79.1 164.8 L79.0 164.8 L78.9 164.8 L78.8 164.8 L78.8 164.9 L78.7 165.0 L78.5 165.4 L78.3 165.6 L78.2 165.8 L77.9 166.0 L77.7 166.0 L76.0 165.9 L74.7 165.8 L74.3 165.6 L73.9 165.4 L73.0 164.7 L72.3 164.1 L71.2 163.2 L70.8 162.9 L69.9 162.1 L69.1 161.5 L68.3 160.8 L67.9 160.6 L67.0 160.6 L66.6 160.4 L66.5 160.2 L66.4 159.9 L66.4 159.7 L66.4 158.8 L66.4 157.6 L66.4 156.5 L66.6 155.9 L66.9 156.0 L67.9 156.4 L68.6 156.6 L68.9 156.7 L69.0 156.7 L69.2 156.2 L69.2 156.1 L69.3 156.0 L69.5 156.1 L69.7 156.2 L70.0 156.4 L70.4 156.2 L70.1 155.9 L69.9 155.8 L69.7 155.8 L69.1 155.7 L68.9 155.6 L67.4 155.0 L67.0 154.6 L66.8 154.2 L66.7 153.6 L66.2 153.1 L65.5 152.7 L64.8 152.5 L64.3 152.5 L64.1 152.5 L63.9 152.4 L63.7 152.3 L63.7 152.2 L63.7 152.1 L63.7 152.1 L63.7 152.0 L63.7 151.9 L63.7 151.8 L63.6 151.8 L61.8 151.8 L61.5 151.7 L61.3 151.4 L61.3 151.2 L61.5 150.9 L61.5 150.6 L61.5 150.5 L61.2 150.4 L61.0 150.3 L60.9 150.1 L60.5 149.8 L60.3 149.6 L60.2 149.6 L60.1 149.4 L60.0 149.2 L59.9 149.1 L59.6 148.9 L59.5 148.8 L59.5 148.6 L59.6 148.4 L59.6 148.3 L59.5 148.1 L59.3 148.0 L59.1 147.9 L58.9 147.6 L58.9 147.4 L58.8 147.3 L58.6 147.2 L58.5 147.1 L58.5 147.0 L58.6 146.7 L58.6 146.7 L58.6 146.6 L58.5 146.5 L58.4 146.4 L58.3 146.3 L58.2 146.1 L58.1 145.9 L58.1 145.8 L58.5 145.3 L58.5 145.1 L58.6 144.7 L58.6 144.6 L58.8 144.5 L58.8 144.3 L58.7 144.3 L58.2 143.5 L56.3 141.8 L56.1 141.7 L55.7 141.0 L55.6 140.4 L56.5 137.9 L56.4 137.5 L56.0 136.8 L56.1 136.4 L56.2 136.2 L56.4 136.0 L56.5 135.9 L56.5 135.6 L56.4 134.9 L56.4 134.6 L56.5 134.5 L58.3 134.9 L58.7 134.9 L59.1 134.8 L60.0 134.5 L60.4 134.5 L62.5 135.2 L62.6 135.2 L63.0 135.1 L63.4 134.9 L63.8 134.8 L65.8 134.7 L66.1 134.7 L66.5 134.5 L67.6 133.5 L68.4 132.7 L69.5 131.8 L70.4 131.0 L70.7 130.8 L71.2 130.7 L72.2 130.6 L73.4 130.6 L74.7 130.5 L76.0 130.5 L77.3 130.5 L78.5 130.4 L79.8 130.4 L81.1 130.3 L82.4 130.3 L83.6 130.2 L84.9 130.2 L86.2 130.2 L87.5 130.1 L88.7 130.1 L90.0 130.0 L91.3 130.0 L92.6 129.9 L93.2 129.9 L93.3 129.7 L93.3 129.3 L93.3 129.0 L93.3 128.9 L93.4 128.8 L93.6 128.8 L94.2 128.8 L95.7 129.0 L98.2 129.4 L99.6 129.7 L99.7 129.7 L99.9 129.7 L100.0 128.2 L100.2 127.9 L101.3 127.2 L102.3 126.1 L102.8 125.8 L103.9 125.6 L104.4 125.4 L104.7 125.0 L104.7 124.9 L104.9 124.5 L105.0 124.0 L105.1 122.7 L105.2 122.5 L105.4 122.2 L106.2 121.4 L106.2 121.4 L106.2 121.3 L106.2 121.3 L106.2 121.2 L106.2 121.2 L106.2 121.2 L106.2 121.2 L106.0 120.8 L106.0 120.4 L106.0 120.1 L107.2 117.3 L107.4 117.0 L107.7 116.7 L108.0 116.5 L108.5 116.2 L108.7 116.0 L108.8 115.7 L108.8 114.3 L108.8 113.1 L108.8 111.3 L108.8 110.5 L108.8 110.4 L109.0 110.1 L109.1 110.0 L109.0 108.7 L109.0 108.5 L109.1 108.2 L109.2 108.2 L109.3 108.2 L109.5 108.1 L109.5 106.7 L109.5 105.8 L109.5 104.2 L109.5 102.6 L109.5 100.9 L109.5 99.3 L109.5 97.7 L109.5 96.1 L109.5 95.1 L109.5 94.4 L109.5 92.8 L109.5 91.2 L109.5 89.5 L109.4 87.9 L109.4 86.3 L109.4 86.3 L109.4 84.6 L109.4 83.0 L109.4 81.4 L109.4 79.7 L111.9 79.3 L114.4 78.8 L116.9 78.3 L119.4 77.8 L120.7 77.6 L123.6 77.0 L126.5 76.5 L127.8 76.2 L129.5 75.9 L130.1 75.7 L130.7 75.3 L131.7 74.4 L132.5 73.7 L133.4 73.0 L134.2 72.3 L135.0 71.5 L135.9 70.8 L136.7 70.1 L137.5 69.4 L138.3 68.7 L139.2 68.0 L140.0 67.2 L140.8 66.5 L141.7 65.8 L142.5 65.1 L143.3 64.4 L144.2 63.7 L145.0 63.0 L145.8 62.3 L146.3 61.9 L147.3 61.0 L148.2 60.3 L149.2 59.5 L150.1 58.7 L151.1 58.0 L152.4 56.9 L154.1 55.9 L155.0 55.4 L155.9 54.8 L156.8 54.3 L157.7 53.8 L158.6 53.2 L159.5 52.7 L160.4 52.2 L161.3 51.6 L162.2 51.1 L163.1 50.6 L164.0 50.1 L164.9 49.5 L165.8 49.0 L166.7 48.5 L167.6 47.9 L168.5 47.4 L169.4 46.9 L170.3 46.4 L171.2 45.8 L172.1 45.3 L172.9 44.8 L173.8 44.2 L174.7 43.7 L175.6 43.2 L176.5 42.6 L177.4 42.1 L178.3 41.6 L179.2 41.1 L180.1 40.5 L181.0 40.0 L181.9 39.5 L182.8 38.9 L183.7 38.4 L184.6 37.9 L185.5 37.4 L186.4 36.8 L187.3 36.3 L188.2 35.8 L189.1 35.2 L190.0 34.7 L190.9 34.2 L191.8 33.6 L192.7 33.1 L193.6 32.6 L194.5 32.1 L195.4 31.5 L196.3 31.0 L197.2 30.5 L198.1 29.9 L199.0 29.4 L199.9 28.9 L200.8 28.4 L201.7 27.8 L202.6 27.3 L203.5 26.8 L204.4 26.2 L205.3 25.7 L206.2 25.2 L207.1 24.6 L208.0 24.1 L208.9 23.6 L209.8 23.1 L210.7 22.5 L211.6 22.0 L212.7 22.3 L213.9 22.5 L215.1 22.8 L216.2 23.0 L217.4 23.3 L218.5 23.6 L219.7 23.8 L220.9 24.1 L222.0 24.3 L223.2 24.6 L224.4 24.9 L225.5 25.1 L226.7 25.4 L227.9 25.6 L229.0 25.9 L230.2 26.2 L231.5 26.5 L233.1 27.3 L233.8 27.9 L235.5 29.2 L237.1 30.6 L238.8 31.9 L240.4 33.3 L241.0 33.8 L241.2 33.9 L241.4 33.9 L242.3 33.4 L244.5 32.3 L246.8 31.2 L249.0 30.0 L251.3 28.9 L251.3 28.9 L251.3 28.9 L251.5 29.7 L251.6 30.5 L251.8 31.4 L251.9 32.2 L252.1 33.0 L252.2 33.8 L252.4 34.7 L252.6 35.5 L252.7 36.3 L252.9 37.2 L253.0 38.0 L253.2 38.8 L253.4 39.6 L253.5 40.5 L253.6 41.0 L253.7 41.6 L253.8 42.1 L253.8 42.4 L253.8 43.1 L253.9 44.0 L253.9 45.1 L253.9 46.3 L253.9 47.2 L253.9 47.9 L253.9 48.2 L253.9 48.5 L254.0 48.7 L254.2 48.9 L254.8 49.2 L255.1 49.4 L255.5 49.9 L255.8 50.4 L256.1 50.7 L256.3 51.0 L256.5 51.4 L256.7 51.7 L257.0 52.0 L257.2 52.3 L257.4 52.6 L257.6 53.0 L257.8 53.3 L258.1 53.6 L258.3 53.9 L258.5 54.3 L258.7 54.6 L258.9 54.9 L259.2 55.2 L259.4 55.6 L259.6 55.9 L259.1 56.2 L258.7 56.7 L258.6 57.3 L258.7 57.9 L258.9 58.2 L259.1 58.5 L259.3 58.7 L260.4 59.5 L260.8 59.9 L261.5 60.7 L262.3 61.5 L263.1 62.3 L263.8 63.1 L264.1 63.5 L264.3 63.8 L264.4 64.0 L264.3 64.2 L264.0 64.7 L263.5 65.6 L262.9 66.5 L262.4 67.4 L261.9 68.3 L261.7 68.7 L261.3 69.7 L261.2 70.2 L261.2 70.8 L261.1 71.4 L261.1 72.0 L261.0 72.6 L261.0 73.2 L260.9 73.9 L260.9 74.5 L260.8 75.1 L260.7 75.7 L260.7 76.3 L260.6 76.9 L260.6 77.5 L260.5 78.1 L260.5 78.7 L260.4 79.3 L260.4 79.9 L260.3 80.5 L260.3 81.1 L260.2 81.7 L260.2 82.3 L260.1 82.9 L260.1 83.5 L260.0 84.1 L259.9 84.7 L259.9 85.3 L259.8 85.9 L259.8 86.5 L259.7 87.1 L259.7 87.7 L259.6 88.3 L259.6 88.9 L259.5 89.5 L259.5 90.1 L259.4 90.7 L259.4 91.3 L259.3 91.9 L259.3 92.5 L259.2 93.1 L259.1 93.7 L259.1 94.3 L259.1 94.8 L259.0 94.9 L259.0 95.5 L258.9 96.1 L258.9 96.7 L258.8 97.3 L258.8 97.9 L258.7 98.5 L258.7 99.1 L258.6 99.7 L258.6 100.3 L258.5 100.9 L258.5 101.5 L258.4 102.1 L258.4 102.7 L258.3 103.4 L258.2 104.0 L258.2 104.6 L258.1 105.2 L258.1 105.8 L258.0 106.4 L258.0 107.0 L257.9 107.6 L257.9 108.2 L257.8 108.8 L257.8 109.1 L257.7 109.3 L257.7 109.4 L257.5 109.6 L257.1 110.1 L256.3 110.9 L255.6 111.6 L254.9 112.4 L254.1 113.2 L253.4 114.0 L252.6 114.7 L251.9 115.5 L251.2 116.3 L250.4 117.0 L249.7 117.8 L248.9 118.6 L248.2 119.3 L247.5 120.1 L246.7 120.9 L246.0 121.7 L245.2 122.4 L244.7 123.0 L244.0 123.8 L243.2 124.5 L242.9 125.0 L242.5 125.6 L242.1 126.1 L241.7 126.6 L241.3 127.2 L240.9 127.7 L240.5 128.2 L240.1 128.8 L239.7 129.3 L239.3 129.9 L238.9 130.4 L238.5 130.9 L238.1 131.5 L237.7 132.0 L237.3 132.5 L236.9 133.1 L236.6 133.6 L236.2 134.1 L235.8 134.9 L235.4 135.8 L235.2 136.2 L235.1 136.4 L235.1 136.7 L235.2 137.0 L235.4 137.5 L235.4 137.8 L235.3 138.1 L235.1 138.2 L234.8 138.2 L234.5 138.3 L234.4 138.4 L234.0 138.8 L233.7 139.0 L233.7 139.1 L233.7 139.2 L233.8 139.3 L233.9 139.4 L234.0 139.9 L234.0 140.1 L233.8 140.4 L233.4 140.7 L233.2 140.8 L232.9 140.8 L232.3 140.9 L231.9 141.0 L231.5 141.2 L231.1 141.8 L231.1 142.6 L231.3 143.5 L231.5 144.2 L231.7 144.8 L231.8 145.2 L231.9 145.6 L232.0 146.0 L232.0 146.5 L232.1 146.9 L232.2 147.3 L232.3 147.7 L232.4 148.1 L232.5 148.6 L232.6 149.0 L232.7 149.4 L232.8 149.8 L232.9 150.2 L233.0 150.7 L233.1 151.1 L233.2 151.5 L229.9 151.4 L229.9 151.4 L229.5 151.4 L229.4 151.5 L229.4 151.7 L229.2 151.9 L228.7 152.4 L228.6 152.5 L228.5 152.6 L228.5 152.7 L228.6 152.8 L228.6 152.8 L228.6 152.9 L228.5 153.0 L228.4 153.0 L228.3 153.0 L228.2 153.2 L228.2 153.2 L228.4 153.3 L228.2 153.6 L227.9 153.7 L227.5 153.7 L227.1 153.9 L227.2 153.8 L227.2 153.7 L227.2 153.5 L227.1 153.5 L227.0 153.6 L226.9 153.8 L226.8 153.9 L226.8 153.7 L226.8 153.7 L226.6 153.8 L226.3 153.8 L226.2 153.7 L226.3 153.6 L226.3 153.5 L225.9 153.6 L225.6 153.7 L224.4 154.3 L224.0 154.3 L223.6 154.2 L223.6 154.5 L223.5 154.5 L223.3 154.4 L223.1 154.3 L223.1 154.4 L223.2 154.5 L223.3 154.5 L223.4 154.6 L223.5 154.7 L223.3 154.8 L222.9 155.2 L222.9 155.3 L222.9 155.4 L222.9 155.4 L222.9 155.4 L222.8 155.4 L222.7 155.4 L222.7 155.5 L222.5 155.5 L222.5 155.6 L222.5 155.7 L222.6 155.8 L222.6 155.9 L222.4 155.9 L222.4 155.8 L222.3 155.7 L222.2 155.7 L222.2 155.7 L222.2 155.7 L222.1 156.0 L221.7 156.4 L221.5 156.5 L221.2 156.6 L221.1 156.7 L221.0 157.0 L220.9 157.0 L220.7 157.0 L220.5 156.9 L220.4 156.8 L220.3 156.7 L220.3 156.9 L220.2 157.0 L220.2 157.1 L220.1 157.1 L220.0 157.2 L219.9 157.1 L219.9 157.1 L219.4 157.6 L219.3 157.8 L219.2 158.0 L219.1 158.2 L219.3 158.3 L219.2 158.6 L219.1 158.7 L219.0 158.9 L218.9 158.9 L218.6 158.9 L218.6 159.0 L218.5 159.7 L218.4 159.9 L218.2 159.9 L218.0 159.9 L217.7 159.8 L217.4 159.8 L217.1 159.8 L216.6 159.7 L216.4 159.7 L216.3 159.7 L216.2 159.7 L216.1 159.6 L215.9 159.5 L215.8 159.5 L215.7 159.6 L215.7 159.6 L215.6 159.7 L215.5 159.7 L215.5 159.6 L215.5 159.5 L215.4 159.4 L215.3 159.4 L214.6 159.1 L214.4 159.2 L214.1 159.4 L213.9 159.4 L213.5 159.4 L212.7 159.2 L212.5 159.1 L211.9 158.7 L210.0 157.6 L208.6 157.0 L204.6 156.0 L198.2 156.0 L195.8 155.7 L194.5 155.8 L194.1 155.9 L187.7 157.3 L187.2 157.5 L184.7 158.9 L184.4 159.1 L184.4 159.2 L184.3 159.5 L184.3 159.7 L184.2 159.8 L184.1 159.8 L184.0 159.8 L183.9 159.8 L183.6 160.0 L183.2 160.4 L180.9 163.0 L180.8 163.1 L180.7 163.3 L180.5 163.4 L180.5 163.4 L180.2 163.4 L177.4 163.1 L177.1 163.1 L176.4 163.3 L175.9 163.3 L172.1 162.9 L171.6 162.8 L168.2 161.8 L167.7 161.5 L167.4 161.3 L167.1 160.6 L166.8 160.4 L166.2 159.9 L165.9 159.8 L165.6 159.7 L165.4 159.7 L165.1 159.8 L164.9 159.8 L164.8 159.9 L164.7 159.9 L164.7 159.9 L164.5 159.9 L164.4 159.8 L163.1 158.6 L162.8 158.2 L162.6 158.1 L162.4 158.0 L162.4 158.0 L162.0 157.9 L161.8 157.8 L161.4 157.5 L161.0 157.2 L160.7 156.9 L160.6 156.8 L160.2 156.7 L156.9 156.2 L156.4 156.3 L156.0 156.5 L151.2 159.3 L150.7 159.4 L150.3 159.4 L148.9 159.2 L148.6 159.2 L147.8 160.2 L147.2 160.7 L146.9 160.8 L146.8 160.9 L146.6 160.9 L145.6 160.9 L145.2 160.8 L144.8 160.7 L144.3 160.4 L143.9 160.0 L143.1 159.1 L142.7 158.5 L141.7 156.6 L139.5 154.2 L137.7 152.5 L136.8 152.0 L136.5 152.0 L135.8 151.8 L135.6 151.9 L134.8 152.3 L134.7 152.3 L134.6 152.3 L134.5 152.2 L134.4 152.2 L130.6 150.7 L126.9 149.3 L126.5 149.2 L124.5 149.5 L124.2 149.7 L124.0 149.9 L123.8 150.4 L123.6 150.6 L123.2 150.9 L123.1 150.9 L122.6 151.0 L120.7 150.9 L119.4 151.2 L118.6 151.1 L118.3 151.0 L118.0 150.7 L117.7 150.6 L117.3 150.6 L114.7 151.2 L113.1 151.6 L112.4 151.9 L111.8 152.3 L109.7 154.3 L109.3 154.4 L108.9 154.5 L108.1 154.5 L108.0 157.7 L108.0 158.0 L107.6 160.8 L105.5 164.1 L104.6 164.9 L101.7 167.0 L101.7 167.1 L101.8 170.4 L101.4 172.2 L101.4 172.7 L101.8 173.7 L101.8 174.2 L101.6 174.6 L101.4 174.8 L101.2 175.0 L101.2 175.2 L101.3 176.0 L101.3 176.1 L101.4 176.3 L101.4 176.3 L101.5 176.3 L101.8 176.7 L101.9 176.9 L102.0 177.2 L101.9 177.4 L101.8 177.6 L101.1 178.0 Z" fill="#172033" fill-rule="evenodd"/></svg>
