<svg xmlns="http://www.w3.org/2000/svg" viewBox="0 0 320 200" role="img"><path d="M149.4 164.7 L149.4 164.7 L147.6 164.0 L146.9 163.9 L146.4 163.6 L146.1 162.9 L145.7 161.6 L145.1 160.7 L141.2 156.4 L140.9 156.2 L140.7 156.1 L140.2 155.7 L140.1 155.6 L138.8 155.2 L138.2 154.7 L137.0 153.3 L136.1 152.8 L134.8 151.5 L133.3 150.6 L132.7 150.1 L132.6 149.8 L132.3 148.8 L131.1 148.3 L129.8 147.0 L126.5 145.6 L125.9 145.2 L125.4 144.6 L125.0 143.5 L120.7 140.2 L120.0 139.4 L119.0 137.2 L118.6 136.9 L118.3 136.7 L117.3 135.7 L116.7 135.0 L116.1 133.8 L116.0 133.3 L115.8 132.8 L115.4 132.4 L114.5 131.7 L113.7 130.6 L112.3 128.3 L111.1 124.9 L110.7 124.4 L109.8 123.6 L102.4 119.2 L101.9 118.6 L99.9 117.5 L98.8 116.3 L96.3 115.2 L96.2 114.4 L96.6 114.9 L97.3 115.4 L98.2 115.7 L98.9 115.9 L98.1 114.9 L97.6 114.5 L97.1 114.4 L96.8 114.1 L96.0 112.6 L95.7 112.6 L96.1 114.0 L95.5 113.5 L94.6 112.3 L93.9 111.6 L93.4 111.5 L91.2 109.7 L90.9 109.4 L90.7 109.1 L90.5 108.4 L90.4 108.6 L90.1 109.0 L90.0 109.1 L86.0 104.6 L85.6 103.7 L85.7 103.9 L85.9 104.0 L86.3 104.2 L86.3 104.0 L86.1 103.9 L85.8 103.7 L85.8 103.5 L85.7 103.1 L85.1 102.6 L84.3 102.2 L83.6 102.0 L83.6 102.2 L84.5 102.8 L85.0 103.3 L85.1 103.7 L84.7 103.6 L84.2 103.2 L83.4 102.5 L79.1 100.0 L78.2 99.2 L77.7 98.3 L77.7 97.3 L78.4 96.0 L79.4 95.1 L80.4 94.5 L81.2 93.7 L81.4 92.3 L81.6 92.3 L81.5 93.1 L81.4 93.3 L81.8 93.3 L82.3 93.4 L82.7 93.5 L82.9 93.7 L83.0 93.8 L84.0 94.5 L84.2 94.7 L84.8 95.5 L85.0 95.6 L85.5 95.9 L85.6 96.0 L85.6 96.3 L85.5 96.8 L85.6 97.0 L86.8 98.2 L88.3 98.5 L92.0 98.3 L92.0 98.0 L90.1 98.1 L89.2 98.0 L88.8 97.6 L89.2 97.1 L90.9 96.2 L91.1 96.0 L99.4 95.5 L100.0 95.6 L100.8 96.1 L101.2 96.1 L101.4 95.5 L102.2 95.2 L103.1 94.6 L103.5 94.2 L104.3 92.9 L104.6 92.7 L105.1 92.4 L105.3 92.3 L105.4 91.9 L105.2 91.8 L105.0 91.7 L104.9 91.5 L105.2 89.6 L105.2 89.5 L104.9 88.9 L104.8 88.7 L104.9 88.6 L105.2 87.6 L105.4 87.1 L105.7 86.7 L107.4 85.3 L107.9 84.9 L108.5 84.8 L109.1 84.8 L111.2 85.8 L111.5 85.9 L111.9 85.9 L112.1 85.7 L112.4 85.5 L112.9 85.1 L113.2 84.6 L113.3 84.0 L113.0 83.0 L113.0 82.8 L112.7 82.3 L112.5 82.1 L112.2 82.1 L112.0 81.9 L111.9 81.6 L111.9 81.1 L112.4 80.1 L112.4 79.5 L111.3 75.2 L111.3 74.6 L111.5 73.4 L111.5 72.8 L111.3 72.6 L111.0 72.4 L110.9 72.2 L110.7 72.1 L110.6 71.7 L110.8 69.8 L110.8 69.2 L110.9 68.7 L110.9 68.5 L111.1 68.3 L111.5 68.0 L112.3 67.6 L113.1 67.6 L114.7 67.8 L117.6 67.2 L119.0 67.1 L120.2 67.8 L120.9 67.9 L121.4 67.8 L121.9 67.5 L122.4 67.5 L123.0 68.0 L123.2 68.2 L123.5 68.3 L123.8 68.3 L125.7 68.2 L126.3 68.0 L126.9 67.8 L127.3 67.3 L127.5 66.8 L127.8 65.7 L128.3 64.8 L130.7 62.3 L132.0 60.4 L132.3 60.2 L132.8 60.0 L133.2 59.8 L133.6 59.4 L133.9 58.9 L134.0 58.6 L134.2 58.3 L134.6 57.9 L135.1 57.7 L137.9 57.3 L137.9 57.7 L137.5 58.4 L137.6 59.4 L140.1 61.2 L140.9 62.2 L141.2 62.4 L141.7 62.6 L142.0 62.5 L142.3 62.4 L142.8 62.4 L143.6 62.7 L144.0 63.3 L144.4 64.1 L145.0 64.8 L145.8 65.0 L146.6 65.0 L147.3 65.1 L147.8 65.6 L147.9 65.6 L147.9 65.6 L148.0 65.6 L148.2 65.3 L148.5 64.7 L148.6 64.2 L148.4 63.8 L147.9 63.6 L147.7 63.3 L147.9 62.6 L148.2 61.5 L148.3 60.7 L148.5 60.5 L148.8 60.6 L149.5 60.6 L149.9 60.4 L150.7 59.8 L151.0 59.9 L151.2 59.9 L151.2 59.7 L151.2 59.7 L151.3 59.7 L151.5 59.7 L151.3 59.3 L152.6 58.9 L153.0 58.5 L153.3 58.0 L154.1 57.8 L154.4 57.7 L155.0 57.6 L155.7 57.4 L156.0 56.9 L156.1 56.3 L156.3 55.9 L157.6 55.5 L158.2 55.2 L159.1 54.5 L159.6 53.9 L160.0 53.2 L160.3 52.6 L160.5 51.6 L160.9 51.1 L161.3 50.5 L161.6 50.2 L161.8 50.2 L162.2 50.2 L162.3 50.2 L162.4 50.1 L162.5 49.8 L162.8 49.5 L162.9 49.3 L163.1 49.1 L163.5 49.0 L164.3 48.6 L164.7 48.5 L166.1 48.5 L167.0 48.4 L167.9 48.1 L168.6 47.6 L169.0 47.0 L169.0 46.2 L168.5 45.5 L167.9 44.9 L167.3 44.5 L168.3 43.8 L168.3 43.6 L168.3 43.0 L168.3 42.8 L169.1 41.9 L169.3 41.7 L169.3 39.9 L169.5 38.9 L169.8 38.3 L170.4 38.5 L171.0 39.1 L171.6 39.6 L172.4 39.2 L173.7 38.0 L173.9 37.5 L173.9 37.4 L173.0 37.4 L173.2 37.1 L174.0 36.4 L173.0 35.6 L172.8 35.3 L173.4 35.1 L173.6 35.1 L173.7 34.8 L173.9 33.5 L174.2 32.9 L174.7 32.5 L174.7 32.4 L175.3 32.1 L176.0 31.6 L177.6 30.1 L178.2 29.7 L180.4 29.4 L181.3 29.3 L182.3 29.6 L183.1 30.2 L183.6 31.0 L183.5 31.1 L183.2 31.5 L183.2 31.5 L183.9 31.6 L184.0 32.1 L183.9 32.5 L184.7 33.0 L185.1 33.6 L185.6 34.9 L186.3 34.5 L187.0 34.6 L188.4 35.1 L189.2 35.3 L191.8 35.4 L191.7 35.6 L191.6 36.4 L192.1 36.2 L192.5 36.4 L192.9 36.7 L193.4 36.9 L193.8 36.8 L194.8 36.2 L196.1 35.8 L196.8 35.0 L197.3 34.1 L197.8 33.4 L198.1 33.7 L198.4 34.7 L198.7 34.9 L199.2 34.9 L200.1 35.1 L200.5 35.1 L201.2 34.8 L201.4 34.0 L201.2 32.3 L201.4 31.8 L201.9 31.8 L202.4 32.0 L202.7 32.2 L203.0 32.4 L203.8 33.3 L204.3 33.5 L204.8 33.4 L205.7 33.2 L205.9 33.0 L206.0 32.9 L206.2 32.7 L206.6 32.7 L206.9 32.7 L207.0 32.8 L207.2 32.8 L207.4 32.7 L207.4 32.4 L207.1 32.1 L206.9 31.8 L206.4 30.9 L206.8 30.6 L207.1 30.6 L207.9 31.1 L208.0 31.2 L208.2 31.4 L208.5 31.4 L209.2 31.4 L209.3 31.5 L209.4 31.8 L210.0 31.9 L213.6 31.7 L213.4 31.4 L213.4 31.0 L213.6 30.2 L214.0 30.4 L214.6 31.1 L215.1 31.2 L215.0 31.0 L214.9 30.7 L215.1 30.8 L215.3 30.8 L215.4 30.9 L215.6 31.2 L216.0 30.8 L216.7 30.4 L217.4 30.2 L218.1 30.2 L217.8 30.0 L217.6 29.8 L217.3 29.4 L219.4 29.3 L220.1 29.0 L220.0 28.5 L220.5 28.4 L220.9 28.5 L221.1 28.6 L221.3 29.0 L221.5 29.0 L221.2 27.9 L221.3 27.5 L222.0 27.2 L222.7 27.1 L223.5 27.1 L224.2 27.3 L224.5 27.7 L224.8 27.7 L224.9 27.3 L225.0 26.8 L225.2 26.4 L226.1 26.1 L227.0 25.4 L227.5 25.2 L227.4 25.1 L227.3 24.8 L227.2 24.7 L227.8 24.9 L228.0 25.0 L227.9 24.5 L227.9 24.1 L228.1 23.9 L228.5 24.2 L228.5 23.7 L228.5 23.5 L228.7 23.2 L228.5 22.9 L228.6 22.7 L229.0 22.7 L229.5 22.7 L229.6 22.9 L230.1 23.6 L230.4 23.8 L231.3 23.7 L232.0 23.2 L232.6 22.6 L232.9 22.0 L233.4 22.4 L233.8 22.5 L234.2 22.8 L234.4 23.2 L234.9 22.9 L235.6 22.8 L237.1 23.0 L236.7 23.2 L236.7 23.4 L237.0 23.6 L237.4 23.8 L237.5 23.7 L239.1 23.8 L240.1 23.3 L240.6 23.2 L241.8 23.3 L242.3 23.2 L242.0 23.6 L241.4 23.9 L241.0 24.2 L240.5 23.6 L240.1 24.0 L239.7 24.8 L239.5 25.2 L239.0 25.4 L238.6 26.0 L238.2 26.6 L238.1 27.1 L238.0 27.2 L237.6 27.7 L237.4 27.9 L237.3 28.3 L237.2 29.1 L237.1 29.4 L236.8 29.9 L236.4 30.2 L235.1 30.7 L235.2 30.5 L235.3 30.3 L235.6 29.9 L235.6 30.2 L235.8 30.0 L235.8 29.8 L235.9 29.7 L235.9 29.4 L235.6 29.6 L235.5 29.6 L235.1 29.4 L235.1 29.2 L235.6 29.0 L236.0 28.9 L236.3 29.1 L236.6 29.4 L236.6 28.7 L236.2 27.8 L236.1 27.1 L235.9 26.3 L235.4 26.2 L234.8 26.4 L234.4 26.7 L233.6 27.3 L232.0 29.3 L231.7 30.2 L232.0 29.8 L232.1 29.7 L232.6 30.1 L233.0 31.6 L233.3 31.9 L233.7 32.2 L234.3 32.6 L234.8 32.8 L235.4 32.2 L235.1 31.9 L234.4 31.5 L234.1 31.4 L234.5 31.2 L235.0 31.3 L235.3 31.7 L235.6 32.2 L235.6 31.3 L235.9 31.1 L236.2 31.4 L237.6 37.7 L237.7 37.9 L238.0 38.6 L238.3 40.3 L240.1 45.3 L240.3 46.7 L240.1 47.9 L239.1 50.2 L236.1 54.9 L234.8 56.4 L234.6 57.0 L234.4 57.5 L232.7 58.7 L231.9 59.7 L231.4 60.8 L230.6 64.2 L229.2 68.7 L228.3 72.8 L228.4 74.6 L228.2 75.5 L228.2 76.2 L227.5 78.0 L226.8 80.4 L226.4 85.0 L226.5 85.9 L226.7 86.4 L226.5 86.6 L226.7 87.0 L227.9 94.2 L228.7 98.9 L227.5 108.4 L227.5 110.5 L227.6 110.9 L228.1 111.9 L228.4 113.1 L229.5 114.5 L229.7 115.4 L229.6 116.5 L229.2 117.1 L228.5 117.3 L227.3 117.3 L226.4 117.5 L225.5 117.8 L224.7 118.0 L224.0 117.6 L224.2 117.3 L225.0 116.8 L225.2 116.6 L225.2 116.1 L225.1 115.6 L224.9 115.1 L224.1 114.4 L224.1 112.0 L224.0 111.1 L224.1 111.0 L224.2 111.0 L224.2 111.0 L224.2 110.9 L224.5 110.9 L225.7 111.3 L226.6 110.2 L226.9 108.5 L226.5 107.4 L226.5 107.2 L226.8 106.8 L226.9 106.3 L227.0 104.3 L227.0 104.2 L227.2 104.1 L227.3 103.9 L227.5 103.7 L227.3 102.7 L226.6 102.2 L225.7 101.9 L224.7 102.0 L224.0 102.4 L223.7 103.1 L223.7 103.8 L224.0 104.5 L224.8 104.9 L224.9 104.9 L224.8 105.1 L224.9 105.7 L225.0 105.9 L225.1 106.2 L225.3 106.3 L225.4 106.4 L225.5 106.8 L225.5 107.4 L225.4 107.7 L225.2 107.9 L225.4 108.1 L225.7 108.7 L224.6 109.3 L222.7 110.9 L221.5 111.4 L219.9 111.6 L219.3 111.8 L219.0 112.2 L219.0 114.1 L219.1 114.2 L219.2 114.1 L219.5 114.1 L219.9 114.2 L220.2 114.2 L220.5 114.3 L220.8 114.6 L221.0 116.2 L220.9 117.0 L220.6 117.7 L220.5 118.4 L220.8 119.1 L221.4 119.4 L222.6 119.1 L222.8 119.7 L222.7 120.1 L222.5 120.8 L222.5 121.2 L222.6 121.4 L222.7 121.1 L223.3 119.2 L223.5 118.8 L223.9 118.6 L224.6 118.7 L224.7 118.9 L223.0 122.3 L222.2 126.5 L222.5 131.2 L222.8 132.0 L222.5 132.1 L222.2 132.2 L222.4 131.5 L222.1 130.8 L221.2 129.7 L220.9 128.8 L221.2 128.4 L221.7 128.1 L222.0 127.2 L221.8 126.6 L221.3 125.9 L220.7 125.3 L220.0 125.0 L218.9 125.1 L219.0 125.7 L219.5 126.0 L220.0 125.5 L220.3 125.5 L220.9 126.1 L221.1 126.5 L221.2 127.0 L221.1 127.6 L220.6 128.4 L220.5 128.9 L220.3 129.6 L219.6 129.7 L218.2 129.2 L218.0 129.3 L218.4 129.6 L219.3 130.0 L219.5 130.2 L219.7 130.6 L219.7 131.1 L219.8 131.5 L219.7 131.9 L219.4 132.5 L219.3 132.8 L219.4 133.0 L219.5 133.2 L219.6 133.4 L219.5 133.7 L219.3 133.9 L219.1 134.0 L218.9 134.1 L218.8 134.2 L218.1 135.0 L217.9 135.2 L217.6 135.3 L217.3 135.5 L217.0 135.9 L216.8 136.2 L217.3 136.5 L217.9 137.0 L218.3 137.6 L218.7 138.3 L218.9 138.4 L219.3 138.6 L219.6 138.6 L220.2 138.6 L220.2 138.4 L220.1 138.2 L220.0 137.9 L220.3 137.2 L220.5 136.8 L220.8 136.7 L221.4 136.6 L221.7 136.9 L223.4 143.5 L223.5 144.8 L223.5 145.3 L223.4 145.6 L223.3 145.8 L223.0 146.0 L222.9 145.9 L222.4 146.0 L221.9 146.2 L221.9 146.3 L221.6 146.4 L221.2 146.9 L220.9 147.0 L220.5 147.1 L220.1 147.1 L219.8 147.2 L219.5 147.5 L219.1 148.6 L218.8 150.3 L218.3 151.6 L217.5 151.5 L217.3 151.5 L216.2 152.9 L215.8 153.5 L215.6 154.1 L215.7 157.8 L216.8 162.5 L217.5 164.4 L218.6 166.0 L219.0 166.9 L219.8 168.3 L220.1 168.6 L220.8 169.0 L221.1 169.7 L221.3 170.4 L222.0 170.3 L221.8 169.9 L221.8 169.9 L222.1 170.0 L222.4 170.6 L222.5 170.7 L222.6 170.9 L222.4 171.4 L222.8 171.6 L222.8 172.4 L223.2 173.6 L223.1 174.6 L221.8 175.3 L219.4 175.8 L219.2 175.9 L216.8 176.8 L216.1 177.6 L216.0 177.7 L215.0 177.5 L214.7 177.6 L214.2 177.9 L213.9 178.0 L213.5 177.9 L213.3 177.8 L211.1 176.1 L210.9 175.5 L210.5 175.3 L210.1 175.3 L209.6 175.8 L209.0 175.6 L208.1 176.2 L207.7 175.8 L207.4 175.8 L207.0 176.1 L206.6 175.9 L205.9 175.3 L205.5 175.3 L205.2 175.3 L204.9 175.3 L204.4 175.2 L204.0 175.5 L203.8 175.3 L203.0 174.7 L202.9 174.5 L202.7 174.4 L202.7 174.2 L202.8 173.9 L203.0 173.8 L203.5 173.5 L203.3 172.7 L202.7 172.2 L202.0 171.8 L201.7 171.5 L201.3 171.2 L199.7 170.6 L199.3 170.2 L199.2 170.0 L198.7 169.4 L198.5 169.1 L198.5 168.6 L198.5 168.3 L198.4 168.0 L198.0 167.8 L197.7 168.0 L195.8 169.3 L195.4 169.4 L195.0 169.4 L194.7 169.2 L194.3 169.0 L194.0 168.8 L193.2 167.8 L193.1 167.7 L192.9 167.6 L192.7 167.5 L192.5 167.4 L190.7 166.7 L189.9 166.4 L189.1 166.4 L188.5 166.4 L187.1 165.4 L186.4 165.1 L185.3 165.4 L182.6 167.1 L178.9 169.5 L178.1 169.8 L177.2 169.7 L171.4 167.6 L166.2 165.7 L164.9 165.3 L160.0 163.5 L156.4 162.1 L155.2 161.5 L154.2 160.6 L153.1 160.1 L151.9 160.6 L150.9 161.9 L150.3 163.3 L149.4 164.7 Z" fill="#172033" fill-rule="evenodd"/></svg>
