<svg xmlns="http://www.w3.org/2000/svg" viewBox="0 0 320 200" role="img"><path d="M296.3 117.6 L297.1 117.8 L297.6 117.9 L297.8 118.1 L297.9 118.5 L297.5 119.2 L297.7 120.6 L297.3 121.4 L296.8 122.3 L296.0 125.1 L293.9 128.3 L293.1 130.0 L293.0 130.4 L293.1 130.7 L293.2 131.4 L293.3 131.5 L293.6 131.8 L293.7 132.0 L293.6 132.2 L293.4 132.4 L293.3 132.6 L293.1 132.8 L292.9 133.6 L292.8 134.0 L292.8 134.5 L292.9 134.8 L293.4 135.5 L293.5 135.9 L293.3 136.7 L292.4 138.4 L291.9 139.4 L291.8 141.8 L291.3 142.8 L291.2 143.1 L291.3 143.3 L291.4 143.6 L292.0 144.0 L292.6 145.3 L293.2 145.6 L293.7 145.8 L294.2 146.2 L294.9 147.1 L295.6 148.2 L296.1 149.4 L296.4 149.9 L297.1 150.9 L297.4 151.5 L297.5 152.0 L297.7 153.5 L298.0 154.8 L298.0 155.5 L297.9 156.1 L297.8 156.8 L297.2 158.3 L295.7 161.0 L295.2 162.4 L295.0 163.2 L295.0 163.5 L295.1 163.9 L294.8 165.3 L293.8 167.0 L292.5 168.2 L291.4 168.3 L291.0 167.9 L289.9 167.3 L289.4 166.9 L289.2 166.6 L288.9 166.0 L288.8 165.7 L288.7 165.7 L287.9 165.1 L287.9 165.0 L287.3 165.1 L286.2 165.9 L285.6 165.9 L285.0 165.6 L284.4 165.4 L284.0 165.6 L283.8 166.3 L283.5 166.8 L283.0 167.0 L282.5 167.0 L282.0 166.6 L281.5 166.3 L280.7 166.6 L280.4 166.8 L279.5 167.4 L278.3 167.9 L277.1 167.6 L274.6 166.4 L273.6 166.2 L272.5 166.2 L271.4 166.5 L270.4 167.0 L270.1 167.5 L269.4 168.7 L269.0 169.1 L268.5 169.0 L267.1 168.4 L266.7 168.2 L266.4 167.7 L266.1 167.2 L265.8 166.9 L264.7 167.2 L262.9 167.4 L262.0 167.0 L261.2 166.1 L260.6 164.9 L260.3 163.9 L260.3 163.9 L259.9 162.3 L259.9 161.7 L259.8 161.0 L259.4 161.1 L258.9 161.4 L257.9 162.4 L257.4 162.7 L256.2 163.1 L255.2 163.4 L254.1 163.9 L253.8 164.7 L253.1 165.4 L252.3 165.9 L251.5 166.1 L251.1 166.0 L249.9 165.6 L249.5 165.7 L249.2 166.0 L249.0 166.4 L248.6 166.7 L248.0 166.5 L245.6 165.2 L243.4 164.3 L242.7 163.9 L242.7 163.9 L242.2 163.5 L241.8 163.1 L241.2 162.8 L240.6 162.7 L239.5 162.3 L237.5 161.3 L236.4 161.0 L236.1 161.0 L235.4 161.0 L235.2 161.0 L234.9 160.8 L234.9 160.3 L234.7 160.1 L234.1 160.0 L233.4 160.1 L232.1 160.5 L231.3 160.9 L231.1 161.0 L230.7 160.9 L230.5 160.8 L230.4 160.6 L230.1 160.5 L229.6 160.4 L229.4 160.3 L229.4 160.3 L228.6 160.4 L228.4 160.3 L228.2 160.1 L225.9 158.8 L224.8 158.5 L223.6 158.9 L222.8 158.9 L222.2 159.3 L219.9 161.1 L219.2 161.4 L218.6 161.5 L218.4 161.3 L218.3 161.1 L218.3 160.8 L218.3 160.5 L218.0 160.3 L217.7 160.4 L217.3 160.5 L217.0 160.4 L215.2 159.1 L214.7 158.6 L214.3 157.4 L214.6 154.9 L214.3 153.7 L213.9 153.2 L211.2 151.9 L210.8 151.7 L208.1 152.7 L206.7 153.4 L205.4 154.0 L204.8 154.2 L204.2 154.0 L203.6 154.0 L203.1 154.4 L202.6 155.0 L202.5 155.0 L202.0 155.4 L200.8 155.7 L200.3 155.7 L197.1 155.0 L196.2 154.1 L196.1 152.9 L196.0 151.9 L194.7 151.4 L193.9 151.4 L192.0 152.1 L191.2 152.0 L191.1 151.6 L191.1 151.1 L190.6 150.8 L190.1 150.8 L189.7 150.6 L188.9 150.3 L188.6 149.7 L188.4 149.0 L188.0 148.3 L187.2 147.9 L185.5 147.4 L184.7 147.0 L184.7 147.0 L184.3 146.5 L183.8 146.3 L183.3 146.5 L182.8 146.8 L182.4 146.8 L178.3 145.8 L177.9 145.6 L177.7 144.8 L178.0 144.1 L178.5 143.3 L178.8 142.6 L179.0 141.2 L178.9 139.9 L178.6 138.6 L178.0 137.4 L177.2 136.3 L176.2 135.7 L166.4 134.1 L165.7 133.6 L165.1 132.8 L164.7 132.2 L164.3 131.9 L163.2 132.0 L162.9 131.9 L162.6 131.1 L162.2 130.8 L161.4 130.5 L161.1 130.3 L160.7 130.0 L160.6 129.4 L160.0 129.3 L159.3 129.5 L157.6 131.4 L156.9 131.9 L155.8 131.9 L154.4 131.7 L154.0 131.6 L154.0 131.6 L153.2 131.8 L151.7 131.9 L151.0 132.1 L151.3 132.6 L152.3 133.6 L152.3 133.9 L152.5 134.3 L152.5 134.5 L152.1 134.7 L151.9 134.8 L151.7 135.1 L151.6 135.1 L151.5 134.9 L149.9 134.4 L145.2 132.2 L142.7 131.3 L139.0 130.9 L135.8 130.9 L134.9 131.1 L134.8 131.5 L134.7 131.9 L134.8 132.3 L135.3 132.9 L135.2 133.3 L135.0 133.7 L134.3 134.7 L133.7 135.2 L133.0 135.6 L132.3 135.6 L131.5 135.3 L131.2 135.0 L131.0 134.5 L130.6 133.9 L130.1 133.5 L128.5 132.2 L127.2 131.7 L123.1 131.8 L120.9 131.3 L119.4 130.5 L118.5 130.3 L114.3 130.0 L113.5 129.2 L113.2 128.0 L112.8 125.4 L112.4 124.1 L111.8 123.3 L111.6 123.2 L110.9 122.9 L106.6 123.9 L103.7 124.2 L102.4 123.8 L100.6 122.2 L98.0 121.0 L93.9 118.0 L92.4 117.5 L91.9 117.2 L91.2 116.6 L90.5 116.1 L90.5 116.1 L89.7 115.9 L88.0 115.7 L87.0 116.1 L85.6 117.5 L84.8 118.0 L83.9 118.0 L83.0 117.5 L82.0 116.8 L80.3 116.0 L79.0 114.7 L78.2 114.1 L77.5 113.9 L75.7 113.5 L75.1 113.1 L75.1 113.1 L74.6 112.4 L73.9 112.0 L70.9 110.6 L70.4 110.3 L70.3 110.0 L70.2 109.6 L70.1 109.1 L69.6 108.5 L69.0 107.9 L68.3 107.5 L67.5 107.2 L67.0 107.3 L66.8 107.6 L66.7 108.0 L66.4 108.4 L65.9 108.6 L65.3 108.7 L64.9 108.5 L65.0 108.1 L64.5 107.9 L64.3 107.7 L64.4 107.4 L64.9 107.2 L64.5 106.4 L62.5 104.4 L62.0 103.4 L61.3 101.4 L60.6 100.6 L59.8 100.3 L56.5 99.7 L54.9 99.4 L54.7 99.1 L54.6 98.6 L54.5 98.3 L54.1 98.1 L53.5 98.2 L52.9 98.2 L52.2 98.1 L51.7 97.9 L51.0 97.5 L50.9 97.1 L50.8 96.6 L50.6 96.0 L50.1 95.9 L48.7 95.9 L48.0 95.7 L47.5 95.4 L46.2 94.2 L45.6 93.9 L44.6 93.7 L44.0 93.4 L43.6 93.0 L43.0 91.9 L42.5 91.6 L41.3 91.4 L40.7 91.2 L40.1 91.0 L39.9 90.7 L39.9 90.4 L39.9 90.1 L39.8 89.9 L39.1 89.9 L38.5 89.8 L37.8 90.2 L37.5 90.6 L37.4 91.2 L37.7 93.4 L37.5 93.8 L36.9 93.5 L35.4 92.0 L34.8 91.7 L34.1 91.6 L33.5 91.8 L32.8 91.9 L32.2 91.6 L31.8 91.2 L30.8 89.5 L30.6 89.3 L30.0 89.2 L29.7 89.1 L29.4 88.8 L29.1 88.3 L28.9 88.1 L28.3 87.7 L27.1 87.6 L26.5 87.4 L26.0 87.0 L24.8 85.7 L23.7 85.1 L23.5 85.1 L22.8 84.9 L22.2 84.5 L22.0 83.1 L22.0 82.5 L22.1 81.8 L22.3 81.3 L22.8 80.7 L23.3 80.3 L23.9 80.1 L24.3 79.8 L24.6 79.2 L24.6 79.2 L24.5 78.0 L24.8 76.5 L25.5 75.2 L26.5 74.8 L27.1 74.9 L27.8 74.9 L28.5 74.7 L28.9 74.3 L28.8 73.7 L28.2 72.3 L28.4 71.8 L29.0 71.8 L29.4 72.1 L29.7 72.1 L30.4 69.9 L30.6 69.1 L30.5 68.5 L30.2 68.3 L29.9 68.3 L29.6 68.2 L29.4 67.9 L29.2 66.5 L28.5 65.4 L28.2 64.8 L28.4 64.2 L28.7 64.0 L29.7 63.7 L29.9 63.4 L30.0 63.0 L30.2 62.8 L30.5 62.6 L30.8 62.2 L30.9 62.2 L31.5 61.8 L31.8 61.5 L32.1 61.2 L32.1 61.0 L32.0 60.8 L31.9 60.6 L32.1 60.4 L32.3 60.3 L32.7 60.1 L32.9 59.9 L33.6 59.2 L34.0 58.5 L34.1 57.7 L33.8 56.8 L33.3 55.9 L33.0 55.1 L33.0 54.2 L33.5 53.3 L34.4 52.7 L36.4 52.2 L37.1 51.6 L38.9 49.7 L39.6 48.7 L40.1 47.5 L40.3 46.9 L40.9 46.6 L42.1 46.5 L42.7 46.3 L43.2 46.1 L44.0 45.3 L45.2 44.6 L45.6 44.3 L46.6 42.9 L47.1 42.5 L49.1 41.1 L49.8 40.2 L49.3 39.3 L49.8 38.9 L50.4 38.3 L50.9 37.9 L50.9 37.9 L51.3 38.4 L51.6 39.0 L52.2 39.1 L54.5 38.4 L54.7 38.4 L55.1 38.7 L55.5 39.2 L55.9 39.9 L56.4 41.0 L57.1 42.1 L57.4 42.6 L57.7 44.1 L57.8 44.2 L58.2 44.5 L59.1 44.3 L59.9 44.3 L61.5 44.9 L62.2 44.8 L62.6 44.3 L62.5 43.4 L63.0 43.1 L63.6 42.9 L63.9 42.7 L64.0 42.6 L64.1 42.4 L64.2 41.8 L64.2 41.6 L63.9 41.1 L63.9 40.8 L64.3 40.6 L64.8 40.6 L65.4 40.6 L65.8 40.5 L66.4 40.2 L66.8 39.7 L67.0 39.2 L67.2 38.1 L67.6 37.5 L67.7 37.2 L67.7 36.9 L67.4 36.3 L67.4 36.1 L67.4 34.9 L67.5 34.3 L67.8 33.8 L68.0 33.4 L67.9 32.8 L68.0 32.4 L68.7 32.2 L69.3 32.4 L70.6 33.5 L71.3 33.8 L72.2 33.9 L72.5 33.8 L72.9 32.5 L73.1 32.2 L73.3 32.1 L74.0 32.0 L74.4 31.8 L74.6 31.5 L74.7 31.2 L74.9 31.0 L75.7 30.9 L76.4 31.1 L80.6 32.8 L81.3 32.9 L82.1 32.8 L82.8 32.6 L83.5 32.5 L85.0 33.0 L86.1 33.0 L86.8 33.1 L87.1 33.3 L87.5 33.8 L87.7 33.9 L88.1 34.0 L88.4 33.9 L88.7 33.7 L89.1 33.7 L90.5 33.6 L91.3 33.6 L91.8 33.9 L92.0 34.4 L91.6 36.3 L91.7 37.2 L92.0 37.8 L92.7 38.2 L93.6 38.5 L94.1 38.9 L93.9 39.6 L93.1 40.9 L93.2 41.3 L93.4 42.0 L93.7 42.7 L94.0 43.1 L94.7 43.2 L95.3 43.0 L95.9 42.9 L97.5 43.7 L98.2 43.8 L98.9 43.8 L99.6 44.0 L99.9 44.2 L100.3 44.8 L100.6 45.0 L101.1 45.0 L101.7 45.0 L102.2 45.0 L102.7 45.3 L103.1 45.8 L103.7 46.2 L104.3 46.6 L104.9 46.9 L106.6 47.4 L107.2 47.7 L109.8 50.5 L110.4 50.9 L110.7 50.9 L111.4 50.7 L111.8 50.7 L112.2 50.9 L112.2 51.2 L112.0 51.5 L111.9 51.9 L112.2 52.5 L114.3 53.9 L114.9 54.8 L115.3 55.1 L115.7 55.3 L116.1 55.4 L116.5 55.6 L116.7 56.0 L117.2 56.6 L117.9 56.4 L118.6 55.9 L119.3 55.6 L119.6 55.8 L120.1 56.3 L120.4 56.5 L120.7 56.5 L121.5 56.4 L121.9 56.5 L123.8 57.9 L124.1 58.3 L124.6 59.1 L124.9 59.4 L125.4 59.3 L125.6 59.0 L125.7 58.5 L125.9 58.1 L126.1 58.0 L127.0 57.8 L127.8 57.8 L128.2 57.8 L128.6 57.9 L129.1 58.2 L129.2 58.4 L129.3 58.9 L129.4 59.0 L129.7 59.2 L130.2 59.3 L130.5 59.5 L131.3 60.2 L131.6 60.6 L131.6 61.1 L131.5 61.4 L131.3 61.6 L131.1 61.8 L131.1 62.2 L131.7 62.9 L133.8 62.5 L134.8 63.4 L134.8 64.0 L134.8 64.5 L134.8 64.9 L135.8 65.6 L135.9 66.0 L135.9 66.4 L136.0 66.9 L136.4 67.2 L136.9 67.4 L137.2 67.7 L137.5 68.6 L137.9 68.9 L138.8 69.3 L139.4 69.6 L139.8 70.1 L140.1 71.4 L140.2 72.1 L140.2 72.5 L140.5 72.8 L140.9 72.9 L141.7 73.0 L142.1 73.3 L142.5 73.5 L143.9 73.7 L144.4 73.7 L144.9 73.5 L145.0 73.5 L145.2 73.1 L145.4 72.5 L145.6 71.9 L146.3 71.3 L147.1 71.1 L148.0 71.0 L148.8 71.1 L149.6 71.0 L151.1 70.4 L151.9 70.2 L152.2 70.1 L152.5 69.6 L152.7 69.4 L153.7 69.2 L154.4 69.1 L154.8 69.1 L155.2 69.2 L155.5 69.3 L155.7 69.6 L155.8 70.0 L156.2 69.8 L156.7 69.7 L157.0 69.8 L157.3 70.2 L157.8 70.6 L158.4 70.5 L159.1 70.3 L159.7 70.3 L160.0 70.6 L160.2 71.5 L160.4 71.9 L160.9 72.0 L161.4 71.9 L161.9 72.0 L162.1 72.5 L161.9 73.0 L161.4 73.6 L161.1 74.1 L161.3 74.8 L162.0 75.4 L162.3 75.6 L162.4 76.0 L162.6 77.0 L163.3 77.4 L164.1 77.7 L164.5 78.1 L163.6 81.0 L164.3 81.9 L164.6 82.4 L166.3 83.3 L168.6 83.7 L169.0 83.8 L169.4 84.1 L169.9 84.9 L170.7 85.5 L171.0 85.8 L171.5 87.4 L171.9 88.0 L172.8 88.2 L173.5 88.2 L174.1 88.4 L174.7 88.7 L175.3 88.9 L177.2 89.2 L177.5 89.4 L177.8 90.0 L178.1 90.2 L178.7 90.4 L179.4 90.6 L179.8 90.8 L179.6 92.4 L180.0 92.7 L181.6 92.7 L182.2 93.0 L183.1 93.9 L183.7 94.4 L184.2 94.5 L184.6 94.6 L186.4 94.5 L186.8 94.5 L187.4 94.7 L187.8 94.7 L188.1 94.6 L188.4 94.4 L188.8 93.6 L189.0 93.4 L190.0 92.9 L190.3 92.9 L190.6 92.7 L190.8 92.5 L191.2 91.9 L191.4 91.6 L191.6 91.4 L192.4 91.2 L193.1 91.5 L194.3 92.3 L196.0 92.7 L196.2 93.1 L195.9 94.8 L195.7 95.1 L195.5 95.4 L195.3 95.6 L194.7 95.8 L194.5 96.0 L194.5 96.2 L194.5 96.9 L194.2 97.3 L193.4 97.8 L193.2 98.1 L193.4 100.0 L193.4 100.6 L193.3 101.6 L193.3 102.1 L193.5 102.6 L194.2 103.0 L195.1 103.0 L195.8 102.7 L196.4 102.6 L197.5 103.5 L198.1 103.7 L198.8 103.8 L199.3 103.8 L199.8 103.7 L200.7 103.4 L201.1 103.3 L201.6 103.5 L201.9 103.8 L202.2 104.0 L202.8 104.1 L203.3 103.9 L204.1 103.1 L204.6 102.8 L205.2 102.8 L205.7 103.0 L206.7 103.4 L207.4 103.3 L208.2 103.3 L209.0 103.4 L209.7 103.6 L210.4 104.0 L210.8 104.4 L211.3 104.4 L212.2 103.1 L212.5 102.9 L213.2 102.7 L213.4 102.5 L213.5 102.2 L213.5 101.9 L213.6 101.6 L214.0 101.5 L214.2 102.3 L214.3 103.8 L214.8 104.6 L215.4 105.4 L216.2 106.0 L217.1 106.5 L218.6 107.1 L219.3 107.5 L219.8 108.0 L219.9 108.4 L220.1 109.1 L220.7 109.8 L220.7 110.2 L220.7 110.5 L220.7 110.9 L221.0 111.7 L221.4 112.1 L222.5 113.1 L223.0 113.7 L223.0 114.4 L222.8 115.0 L222.8 115.7 L223.2 116.6 L223.8 116.8 L225.3 116.6 L226.2 116.7 L226.3 116.7 L226.5 116.7 L227.0 116.5 L228.1 115.5 L228.3 115.4 L228.2 115.0 L228.1 114.8 L227.9 114.6 L227.7 114.3 L227.7 114.0 L227.8 113.7 L227.8 113.4 L227.5 113.1 L227.5 113.1 L227.5 113.1 L227.1 112.9 L227.1 112.7 L227.1 112.4 L227.1 112.2 L227.3 111.6 L227.3 111.4 L227.2 111.1 L226.8 110.6 L226.8 110.3 L229.7 107.6 L230.4 107.7 L230.8 108.4 L230.8 109.2 L230.6 109.9 L230.3 110.5 L230.4 110.8 L230.6 111.0 L230.9 111.4 L231.1 112.4 L231.3 112.8 L231.8 113.1 L231.8 113.1 L231.8 113.1 L232.5 113.3 L233.2 113.3 L233.9 113.5 L234.4 113.8 L235.2 114.7 L235.6 114.9 L235.9 115.0 L236.2 114.9 L236.4 114.8 L236.8 114.7 L237.1 114.9 L238.2 115.7 L238.9 116.0 L239.3 115.9 L240.6 115.4 L241.3 115.0 L241.8 114.5 L242.0 113.9 L242.0 113.1 L241.9 112.5 L242.2 112.1 L242.4 111.8 L242.7 111.3 L242.8 110.8 L242.8 110.2 L242.9 109.7 L243.2 109.4 L243.8 109.3 L244.2 109.6 L244.7 110.0 L245.2 110.2 L245.7 110.1 L246.5 109.5 L246.9 109.3 L247.5 109.3 L248.2 109.5 L248.8 109.9 L249.3 110.3 L249.4 110.7 L249.3 111.7 L249.5 112.2 L250.6 112.5 L252.9 112.4 L253.9 113.1 L253.9 113.1 L254.2 113.9 L254.7 114.5 L255.5 114.8 L256.3 114.8 L257.3 114.7 L257.7 114.6 L258.0 114.5 L258.5 114.5 L259.4 115.0 L260.5 116.0 L262.3 118.2 L263.6 118.8 L264.5 118.8 L266.3 118.7 L268.2 119.1 L269.0 118.7 L269.7 118.1 L270.7 117.8 L271.4 118.0 L271.3 118.5 L270.9 119.0 L270.9 119.5 L271.5 119.5 L274.5 118.8 L275.8 118.5 L276.4 118.4 L277.1 118.6 L277.2 118.8 L277.3 119.0 L277.5 119.3 L277.8 119.5 L278.4 119.5 L279.4 119.0 L279.9 118.9 L280.7 119.0 L281.4 119.2 L282.1 119.5 L283.0 119.4 L284.0 119.0 L284.8 118.3 L285.4 117.5 L286.0 116.6 L286.4 116.1 L286.7 116.0 L287.4 116.3 L290.0 116.4 L290.4 116.6 L291.1 116.9 L291.5 116.9 L292.0 116.9 L292.9 116.6 L293.3 116.5 L294.1 116.7 L295.5 117.5 L296.3 117.6 Z" fill="#172033" fill-rule="evenodd"/></svg>
