<svg xmlns="http://www.w3.org/2000/svg" viewBox="0 0 320 200" role="img"><path d="M111.9 177.3 L112.0 177.5 L112.0 177.6 L111.9 177.7 L111.8 177.8 L111.8 177.9 L111.5 178.0 L111.2 178.0 L110.9 178.0 L110.8 177.9 L110.6 177.8 L110.5 177.8 L110.4 177.7 L110.3 177.7 L110.2 177.7 L110.0 177.6 L109.9 177.5 L110.0 177.4 L110.2 177.4 L110.5 177.5 L110.8 177.5 L110.8 177.4 L110.9 177.2 L111.0 177.1 L111.2 177.0 L111.4 176.9 L111.5 176.9 L111.6 176.9 L111.6 177.0 L111.7 177.0 L111.8 177.0 L111.9 177.1 L112.1 177.2 L112.3 177.3 L112.1 177.3 L111.9 177.3 Z M86.2 160.9 L86.0 161.0 L85.9 160.9 L85.8 160.9 L85.7 161.0 L85.8 161.0 L85.8 161.1 L85.9 161.3 L85.8 161.3 L85.7 161.3 L85.7 161.2 L85.7 161.4 L85.7 161.4 L85.7 161.5 L85.5 161.6 L85.6 161.6 L85.8 161.6 L85.9 161.6 L86.0 161.7 L85.8 161.7 L85.4 161.7 L85.1 161.7 L85.1 161.8 L85.3 161.8 L85.6 161.9 L85.8 161.9 L85.7 162.0 L85.6 162.2 L85.7 162.2 L86.0 162.2 L86.1 162.2 L86.0 162.3 L86.0 162.3 L86.0 162.4 L86.1 162.5 L86.0 162.5 L85.9 162.5 L85.8 162.5 L85.8 162.5 L85.9 162.5 L86.1 162.6 L86.2 162.7 L86.3 162.7 L86.2 162.9 L86.1 163.0 L86.0 163.1 L85.9 163.0 L85.7 162.9 L85.4 162.9 L85.2 162.8 L85.0 162.6 L84.9 162.7 L84.8 162.7 L84.6 162.8 L84.7 162.7 L84.7 162.6 L84.8 162.5 L84.8 162.3 L84.7 162.2 L84.5 162.2 L84.4 162.2 L84.3 162.2 L84.4 162.3 L84.5 162.4 L84.5 162.5 L84.5 162.5 L84.3 162.5 L84.1 162.4 L84.0 162.4 L84.1 162.4 L84.2 162.5 L84.3 162.6 L84.3 162.7 L84.3 162.8 L84.3 162.9 L84.2 162.9 L84.0 163.0 L83.9 162.9 L83.8 162.9 L83.7 162.9 L83.6 162.7 L83.5 162.8 L83.4 162.8 L83.2 163.0 L83.1 162.5 L83.4 162.2 L84.6 161.7 L84.8 161.5 L84.9 161.3 L84.9 161.0 L85.0 160.8 L85.1 160.6 L85.1 160.4 L84.9 160.3 L85.1 160.3 L85.2 160.2 L85.3 160.2 L85.4 160.3 L85.5 160.3 L86.0 160.2 L86.1 160.2 L86.1 160.2 L86.0 160.4 L86.0 160.4 L86.2 160.4 L86.5 160.4 L86.5 160.4 L86.6 160.5 L86.6 160.6 L86.7 160.7 L86.3 160.7 L86.2 160.7 L86.2 160.7 L86.2 160.8 L86.2 160.9 Z M235.1 103.4 L235.0 103.5 L235.0 103.5 L234.9 103.5 L234.9 103.4 L234.9 103.2 L234.9 103.1 L234.8 103.0 L235.0 103.0 L235.1 102.8 L235.3 102.6 L235.3 102.5 L235.2 102.3 L234.9 102.2 L234.4 102.2 L233.9 102.2 L233.8 102.2 L233.8 102.4 L233.9 102.5 L234.7 102.6 L234.1 103.0 L234.0 103.1 L234.3 103.4 L234.4 103.5 L234.4 103.6 L234.4 103.8 L234.4 103.9 L234.6 104.0 L235.0 103.8 L235.0 104.0 L235.0 104.1 L235.1 104.2 L235.2 104.3 L235.3 104.4 L235.6 104.4 L235.7 104.5 L235.8 104.7 L235.5 104.7 L235.2 104.7 L234.9 104.8 L234.8 104.8 L234.6 104.9 L234.4 105.0 L234.0 105.2 L234.0 105.3 L233.9 105.3 L233.4 105.3 L233.2 105.3 L233.1 105.2 L233.1 105.1 L233.0 104.9 L232.8 104.6 L232.8 104.5 L232.7 104.5 L232.6 104.5 L232.7 104.4 L232.9 104.3 L233.4 104.0 L233.5 104.0 L233.6 103.9 L233.8 103.8 L233.9 103.6 L233.9 103.4 L233.5 102.9 L233.3 102.8 L233.1 102.6 L233.0 102.6 L232.9 102.6 L232.7 102.6 L232.7 102.6 L232.6 102.7 L232.5 102.6 L232.4 102.7 L232.5 102.8 L232.4 102.8 L232.3 102.8 L232.1 102.9 L231.9 102.8 L231.3 102.9 L231.0 102.8 L231.1 102.6 L231.3 102.5 L231.5 102.5 L231.7 102.4 L231.7 102.3 L231.6 102.3 L231.6 102.2 L231.7 102.2 L231.7 102.2 L232.0 102.3 L232.0 102.3 L232.8 102.3 L233.0 102.2 L233.1 102.0 L233.1 101.9 L233.2 101.8 L233.4 101.8 L233.4 101.8 L233.6 101.8 L233.7 101.9 L234.1 101.9 L234.2 101.9 L234.8 102.1 L235.0 102.1 L236.9 102.0 L236.9 102.0 L236.8 102.0 L236.7 102.1 L236.6 102.2 L236.6 102.3 L236.2 102.2 L235.9 102.3 L235.6 102.6 L235.2 103.1 L235.1 103.3 L235.1 103.4 Z M102.9 130.4 L103.3 130.6 L103.4 130.7 L103.4 130.7 L103.4 130.8 L103.3 130.8 L103.2 130.8 L103.2 130.7 L103.1 130.6 L103.0 130.6 L102.9 130.6 L102.8 130.6 L102.9 130.9 L102.8 130.9 L102.5 130.8 L102.6 130.9 L101.9 130.9 L101.4 131.0 L101.2 131.1 L100.7 131.4 L100.5 131.6 L100.4 131.6 L100.2 131.6 L100.1 131.6 L100.0 131.5 L99.8 131.4 L99.5 131.5 L99.4 131.5 L99.3 131.4 L99.3 131.2 L99.2 131.2 L99.0 131.3 L98.9 131.3 L98.8 131.3 L98.8 131.4 L98.8 131.6 L98.6 131.5 L98.2 131.8 L97.9 131.8 L98.1 131.9 L98.4 131.9 L98.9 131.8 L98.8 131.9 L98.7 132.0 L98.4 132.2 L98.4 132.0 L98.3 132.0 L98.1 132.1 L98.0 132.3 L97.9 132.3 L97.6 132.4 L97.3 132.4 L97.1 132.3 L97.1 132.2 L97.1 132.0 L97.2 131.8 L97.3 131.6 L97.4 131.6 L97.6 131.5 L97.8 131.4 L98.1 131.3 L97.9 131.3 L97.9 131.2 L98.0 131.1 L98.0 131.0 L98.0 130.9 L98.0 130.8 L98.0 130.7 L98.0 130.6 L98.1 130.5 L98.2 130.4 L98.4 130.3 L98.5 130.3 L98.7 130.3 L98.8 130.3 L98.9 130.4 L99.0 130.2 L99.0 130.0 L98.9 129.8 L99.0 129.6 L99.1 129.6 L99.3 129.6 L99.4 129.5 L99.6 129.3 L99.6 129.2 L99.6 129.1 L99.6 128.9 L99.5 128.7 L99.2 128.4 L99.1 128.4 L99.2 128.3 L99.3 128.2 L99.3 128.2 L99.3 128.1 L99.3 128.1 L99.2 128.0 L99.2 128.0 L99.2 127.9 L99.2 127.9 L99.2 127.8 L99.2 127.8 L99.3 127.5 L99.4 127.4 L99.6 127.4 L99.8 127.4 L100.1 127.4 L100.2 127.4 L100.3 127.4 L100.4 127.3 L100.5 127.3 L100.9 127.4 L101.1 127.5 L101.3 127.6 L102.0 128.4 L102.1 128.5 L102.3 128.5 L102.4 128.6 L102.5 128.7 L102.6 128.8 L102.8 128.8 L102.9 129.0 L102.7 129.1 L102.9 129.1 L102.9 129.2 L102.7 129.2 L101.9 129.2 L101.9 129.1 L101.5 129.0 L101.3 129.1 L101.4 129.3 L101.4 129.4 L100.9 129.8 L101.2 129.8 L101.4 129.5 L101.6 129.4 L101.7 129.4 L102.0 129.6 L102.2 129.6 L102.5 129.7 L102.5 129.8 L102.5 129.8 L102.4 129.9 L102.3 129.9 L102.3 129.9 L102.4 129.9 L102.9 129.8 L103.0 129.8 L103.1 129.8 L103.2 129.8 L103.2 129.8 L103.2 129.9 L103.3 129.9 L103.4 130.0 L103.5 130.0 L103.4 130.1 L103.4 130.3 L103.3 130.4 L103.2 130.4 L103.1 130.4 L103.0 130.4 L102.9 130.4 L102.9 130.4 Z M90.2 118.1 L90.3 118.2 L90.5 118.4 L90.5 118.6 L90.5 118.8 L90.5 119.0 L90.4 119.1 L90.3 119.2 L90.1 119.2 L90.1 119.2 L90.0 119.1 L89.9 119.0 L89.9 119.2 L89.8 119.2 L89.7 119.2 L89.7 119.2 L89.6 119.1 L89.6 118.9 L89.5 118.8 L89.5 118.7 L89.4 118.5 L89.3 118.5 L88.7 119.0 L88.6 119.0 L88.4 119.1 L88.5 119.0 L88.5 118.8 L88.6 118.7 L88.7 118.6 L88.8 118.6 L88.9 118.5 L88.9 118.3 L89.0 118.3 L89.3 118.3 L89.9 118.1 L90.1 118.1 L90.2 118.1 Z M141.9 98.1 L142.0 98.2 L141.9 98.4 L141.9 98.7 L141.9 99.1 L141.8 99.2 L141.8 99.3 L141.8 99.5 L141.9 100.0 L142.2 100.5 L142.2 100.6 L142.1 100.5 L142.0 100.5 L141.9 100.6 L142.0 100.7 L142.1 100.8 L142.6 100.9 L142.4 101.0 L141.8 101.0 L141.6 101.1 L141.3 101.2 L141.4 101.3 L141.7 101.3 L141.9 101.3 L142.0 101.2 L142.4 101.1 L142.7 101.1 L142.8 101.1 L142.8 101.3 L142.9 101.4 L143.0 101.5 L143.0 101.4 L143.1 101.2 L143.2 101.0 L143.4 101.1 L143.4 101.2 L143.5 101.3 L143.4 101.5 L143.5 101.6 L143.6 101.6 L143.6 101.5 L143.7 101.4 L143.8 101.3 L143.9 101.3 L144.0 101.3 L144.2 101.3 L144.2 101.4 L144.3 101.5 L144.5 101.3 L144.6 101.3 L144.7 101.4 L144.8 101.5 L144.9 101.6 L145.0 101.7 L145.0 101.8 L145.0 101.8 L144.9 101.9 L144.9 101.9 L144.9 102.0 L145.0 102.1 L145.0 102.1 L145.1 102.3 L145.0 102.6 L145.0 102.8 L144.9 103.0 L144.8 102.9 L144.6 103.1 L144.4 103.1 L144.3 103.3 L144.3 103.3 L144.3 103.3 L144.2 103.3 L144.1 103.3 L144.0 103.3 L144.0 103.2 L143.9 103.0 L143.9 102.9 L143.9 102.8 L143.9 102.7 L143.9 102.7 L143.8 102.5 L143.7 102.4 L143.7 102.3 L143.7 102.2 L143.6 102.2 L143.5 102.2 L143.4 102.3 L143.5 102.4 L143.6 102.5 L143.5 102.7 L143.4 102.9 L143.5 103.2 L143.8 103.5 L143.8 103.5 L143.6 103.5 L143.0 103.5 L142.9 103.4 L142.7 103.2 L142.5 103.3 L142.4 103.2 L142.2 103.0 L141.9 102.8 L141.9 102.7 L142.0 102.5 L141.9 102.5 L141.7 102.6 L141.0 102.7 L140.7 102.8 L140.2 102.8 L139.5 103.0 L139.1 103.0 L139.0 103.0 L139.1 102.9 L139.2 102.9 L139.3 102.8 L139.5 102.8 L140.8 102.5 L140.9 102.5 L141.1 102.4 L141.0 102.4 L140.7 102.3 L140.6 102.2 L140.4 102.3 L140.2 102.2 L140.2 102.2 L140.1 102.1 L140.0 102.0 L139.8 101.9 L139.5 101.9 L139.3 102.0 L139.1 102.0 L138.9 102.1 L138.9 102.3 L138.8 102.6 L138.8 102.8 L138.8 102.9 L138.9 103.0 L138.8 103.0 L138.7 103.1 L138.6 103.2 L137.9 103.2 L137.8 103.2 L137.6 103.3 L137.5 103.4 L137.1 103.5 L136.9 103.6 L136.0 103.9 L134.4 104.8 L134.1 104.8 L134.0 104.8 L133.8 104.8 L133.7 104.9 L133.1 105.2 L132.8 105.2 L132.6 105.3 L132.5 105.3 L132.5 105.4 L132.4 105.5 L132.1 105.5 L131.9 105.7 L131.8 105.7 L131.6 105.7 L131.5 105.9 L131.4 105.9 L131.4 106.0 L131.1 106.1 L131.0 106.1 L130.5 106.5 L130.3 106.6 L130.1 106.6 L130.0 106.6 L129.9 106.7 L129.8 106.8 L129.8 106.9 L129.3 107.5 L129.3 107.6 L129.3 108.1 L129.3 108.2 L129.1 108.4 L128.9 108.6 L128.9 108.6 L128.9 108.7 L128.8 108.8 L128.7 108.9 L128.7 108.9 L128.4 109.0 L128.6 109.2 L128.7 109.4 L128.7 110.1 L128.8 110.5 L128.8 110.7 L128.7 110.8 L128.6 110.9 L128.5 110.9 L128.4 111.0 L128.7 111.1 L128.8 111.3 L128.7 111.5 L128.7 112.1 L128.6 112.2 L128.5 112.4 L128.4 112.5 L128.3 112.6 L128.3 112.7 L127.7 113.5 L126.8 114.2 L126.3 114.9 L126.1 115.5 L126.0 115.7 L125.9 115.9 L126.0 116.0 L126.1 116.1 L126.1 116.3 L125.8 116.6 L125.7 116.7 L125.7 116.8 L125.8 116.9 L125.8 117.0 L125.7 117.2 L125.4 117.3 L125.2 117.4 L125.3 117.6 L125.2 117.7 L125.1 117.8 L125.0 117.8 L124.8 117.7 L124.9 117.8 L124.9 117.9 L125.0 118.0 L124.8 118.1 L124.7 118.1 L124.4 118.1 L124.2 118.2 L124.2 118.3 L124.4 118.4 L124.5 118.4 L124.3 118.7 L124.3 118.7 L124.2 118.8 L124.1 118.8 L123.9 118.9 L123.8 118.9 L123.8 118.9 L123.7 118.9 L123.7 119.0 L123.7 119.1 L123.7 119.1 L123.8 119.1 L123.8 119.1 L124.0 119.2 L124.1 119.2 L124.2 119.2 L124.3 119.1 L124.5 119.2 L124.7 119.3 L124.9 119.4 L124.9 119.5 L124.7 119.6 L124.3 119.7 L124.1 119.7 L124.0 119.9 L123.9 120.0 L123.8 120.0 L123.7 120.0 L123.6 120.0 L123.5 120.2 L123.2 120.4 L123.1 120.5 L123.3 120.5 L123.6 120.4 L123.9 120.3 L124.2 120.2 L124.4 120.1 L124.5 119.9 L124.6 119.8 L124.7 119.7 L124.8 119.7 L124.9 119.7 L125.0 119.6 L125.1 119.7 L125.1 119.8 L125.1 120.3 L125.0 120.4 L124.9 120.4 L124.7 120.4 L124.5 120.4 L124.5 120.4 L124.4 120.5 L124.4 120.5 L124.4 120.6 L124.4 120.6 L122.6 120.8 L121.9 120.9 L121.2 121.3 L120.7 121.8 L120.6 122.0 L120.6 122.1 L120.5 122.3 L120.5 122.5 L120.4 122.6 L120.4 122.8 L120.2 122.9 L120.0 123.0 L119.8 123.1 L119.4 123.3 L119.2 123.4 L119.0 123.5 L118.8 123.7 L118.7 123.8 L117.5 124.4 L117.2 124.7 L117.1 125.1 L117.1 125.4 L117.1 125.4 L116.8 125.5 L116.6 125.6 L116.6 125.7 L116.4 125.6 L116.1 125.6 L116.0 125.5 L115.8 125.5 L115.6 125.6 L115.4 125.7 L115.6 125.7 L116.3 125.7 L116.1 126.0 L115.8 126.1 L115.5 126.2 L115.2 126.4 L115.1 126.4 L114.9 126.3 L114.6 126.3 L114.5 126.3 L114.4 126.4 L113.9 126.6 L114.0 126.6 L114.0 126.7 L114.1 126.8 L113.9 126.8 L113.6 126.8 L113.3 126.8 L113.1 127.0 L113.0 126.9 L112.9 126.8 L112.6 126.8 L112.5 126.8 L112.4 126.9 L112.2 127.0 L112.1 127.0 L112.0 127.1 L111.7 127.1 L111.6 127.1 L111.4 127.0 L111.5 126.8 L111.5 126.7 L111.4 126.7 L111.3 126.7 L111.3 126.8 L111.3 127.0 L111.2 127.0 L111.1 127.1 L111.1 127.1 L111.1 127.1 L110.8 127.1 L110.7 127.1 L110.6 127.0 L110.5 126.9 L110.4 126.9 L110.3 126.9 L110.3 127.0 L110.4 127.1 L110.3 127.2 L110.1 127.3 L109.8 127.2 L109.5 127.1 L109.3 127.1 L109.0 127.1 L108.8 127.1 L108.7 127.0 L108.5 126.4 L108.5 126.3 L108.5 126.2 L108.3 126.2 L108.1 126.3 L107.2 126.4 L106.9 126.4 L107.0 126.3 L107.1 126.3 L107.2 126.3 L107.3 126.2 L107.2 126.2 L106.9 126.1 L106.5 126.1 L106.6 126.2 L106.7 126.3 L106.7 126.4 L106.6 126.5 L106.7 126.5 L106.7 126.6 L106.7 126.6 L106.3 126.7 L104.8 126.6 L104.9 126.4 L105.0 126.4 L105.0 126.4 L105.2 126.3 L105.5 126.3 L105.6 126.4 L105.7 126.5 L105.9 126.5 L106.1 126.4 L105.9 126.3 L105.6 126.2 L104.9 126.2 L104.5 126.1 L104.4 126.1 L104.3 126.2 L104.3 126.4 L104.6 126.6 L104.7 126.8 L104.5 126.7 L104.1 126.5 L104.0 126.4 L103.9 126.4 L103.9 126.3 L103.9 126.2 L103.6 126.2 L103.6 126.1 L103.5 126.0 L103.5 125.9 L103.8 125.9 L103.9 125.9 L104.0 125.9 L104.0 125.9 L104.0 126.0 L104.0 126.0 L104.1 126.0 L104.5 125.7 L104.6 125.5 L104.5 125.2 L104.4 125.0 L104.2 125.0 L104.2 125.2 L104.1 125.4 L104.0 125.5 L103.8 125.5 L103.7 125.4 L103.5 125.1 L103.1 124.5 L102.9 124.4 L102.7 124.3 L101.8 124.4 L101.7 124.5 L101.7 124.6 L101.7 124.7 L101.7 124.7 L101.6 124.7 L101.5 124.6 L101.3 124.6 L101.2 124.6 L100.9 124.6 L100.8 124.6 L100.7 124.7 L100.7 124.8 L100.6 124.8 L100.5 124.8 L100.4 124.8 L100.2 124.7 L100.2 124.7 L100.1 124.7 L100.0 124.8 L99.9 124.8 L99.8 124.8 L99.8 124.7 L99.7 124.7 L99.6 124.6 L99.5 124.6 L99.4 124.4 L99.3 124.3 L99.1 124.3 L99.0 124.2 L99.1 124.1 L99.2 124.1 L99.3 124.1 L99.4 124.0 L99.0 123.5 L98.8 123.3 L98.8 123.1 L98.6 123.1 L98.3 123.0 L98.1 123.0 L97.7 122.8 L97.6 122.8 L96.6 122.7 L96.5 122.7 L96.5 122.8 L96.5 122.9 L96.4 123.0 L96.3 123.1 L96.3 123.2 L96.3 123.4 L96.2 123.5 L96.1 123.6 L96.0 123.6 L95.7 123.6 L95.6 123.6 L95.3 123.7 L95.2 123.8 L95.0 123.8 L94.7 123.7 L94.5 123.7 L94.3 123.7 L94.3 123.7 L94.2 123.7 L94.1 123.8 L94.1 123.7 L94.1 123.7 L94.0 123.7 L93.9 123.6 L93.4 123.5 L93.2 123.5 L93.1 123.5 L92.9 123.5 L92.4 123.4 L91.2 123.4 L90.6 123.3 L90.1 123.1 L89.9 122.8 L89.8 122.8 L89.9 122.7 L90.1 122.6 L90.2 122.6 L90.5 122.3 L90.8 122.0 L91.1 121.6 L91.2 121.4 L91.4 121.4 L91.6 121.3 L92.0 121.1 L92.2 121.0 L92.2 121.0 L92.1 121.0 L91.5 121.2 L91.2 121.3 L91.0 121.4 L90.8 121.5 L90.8 121.6 L90.8 121.6 L90.8 121.7 L90.8 121.8 L90.8 121.8 L90.5 122.0 L90.5 122.0 L90.5 122.0 L90.4 122.0 L90.4 121.9 L90.5 121.9 L90.5 121.8 L90.4 121.7 L90.3 122.0 L90.0 122.1 L89.4 122.2 L89.4 122.0 L89.4 121.9 L89.5 121.8 L89.6 121.9 L89.6 121.6 L89.7 121.4 L89.9 121.3 L90.1 121.2 L90.6 121.1 L90.9 121.0 L91.0 120.8 L90.7 120.9 L90.4 121.0 L90.3 121.0 L90.1 121.0 L90.0 120.9 L90.0 120.9 L90.4 120.5 L90.5 120.4 L90.5 120.3 L90.5 120.2 L90.4 120.3 L90.3 120.3 L90.2 120.4 L90.1 120.4 L90.1 120.5 L90.1 120.5 L90.1 120.6 L89.9 120.7 L89.9 120.7 L89.6 121.0 L89.6 121.0 L89.5 121.1 L88.7 121.3 L88.5 121.4 L88.3 121.5 L88.3 121.5 L88.2 121.5 L88.1 121.4 L88.1 121.3 L88.1 121.2 L88.1 121.1 L88.1 121.0 L88.1 120.8 L88.1 120.1 L88.1 119.9 L88.3 119.8 L88.8 119.7 L89.4 119.7 L89.4 119.8 L89.4 119.8 L89.6 119.7 L89.9 119.7 L90.4 119.7 L90.6 119.6 L91.1 119.5 L91.3 119.5 L91.6 119.5 L91.7 119.5 L91.8 119.5 L91.9 119.4 L92.0 119.3 L92.1 119.3 L92.5 119.1 L92.7 119.0 L92.8 118.8 L92.5 118.9 L92.3 119.0 L91.7 118.9 L90.9 119.1 L90.7 119.0 L90.9 118.8 L91.0 118.7 L91.1 118.6 L91.6 118.5 L91.7 118.4 L90.9 118.5 L90.7 118.5 L90.7 118.3 L90.7 118.1 L90.8 118.0 L91.0 117.9 L91.2 117.9 L91.6 117.7 L91.9 117.7 L92.3 117.8 L92.6 117.8 L92.8 117.7 L92.5 117.7 L92.3 117.6 L92.2 117.6 L92.8 117.4 L93.0 117.3 L93.1 117.1 L92.0 117.5 L91.3 117.6 L90.8 117.8 L90.7 117.8 L90.5 117.8 L90.4 117.8 L90.3 117.8 L90.2 117.8 L90.1 117.6 L90.1 117.5 L90.4 117.0 L90.6 116.5 L90.7 116.4 L91.0 116.2 L91.5 116.4 L91.9 116.5 L92.2 116.6 L92.1 116.4 L92.0 116.2 L91.9 116.1 L91.8 116.3 L91.6 116.2 L91.3 116.1 L91.1 116.0 L91.0 115.9 L91.0 115.8 L91.0 115.7 L91.2 115.6 L91.4 115.4 L91.6 115.3 L91.7 115.3 L91.8 115.4 L91.9 115.5 L92.3 115.7 L92.2 115.7 L92.2 115.8 L92.1 115.8 L92.1 115.9 L92.3 115.9 L92.6 115.8 L92.8 115.8 L93.1 116.0 L93.1 116.0 L93.2 116.1 L93.1 116.2 L93.1 116.3 L92.8 116.4 L92.7 116.5 L92.8 116.6 L93.1 116.5 L93.2 116.5 L93.3 116.4 L93.4 116.3 L93.4 116.2 L93.5 116.1 L93.7 116.3 L93.8 116.3 L93.9 116.4 L94.0 116.6 L94.1 116.9 L94.2 116.9 L94.2 116.8 L94.2 116.9 L94.4 116.9 L94.4 117.0 L94.4 116.7 L93.9 116.3 L93.1 115.7 L93.2 115.5 L93.3 115.5 L94.2 115.3 L94.4 115.3 L94.4 115.4 L94.6 115.6 L94.7 115.7 L94.9 115.7 L95.0 115.7 L95.2 115.7 L95.3 115.6 L95.2 115.5 L94.9 115.5 L94.7 115.5 L94.7 115.4 L94.6 115.3 L94.6 115.2 L94.7 115.1 L94.8 115.0 L94.8 115.0 L94.4 115.0 L94.1 115.1 L93.9 115.2 L93.2 115.2 L93.1 115.2 L93.0 115.1 L93.0 114.9 L92.9 114.7 L92.8 114.6 L92.7 114.5 L92.7 114.1 L92.8 114.0 L92.9 113.9 L93.2 113.9 L93.4 114.0 L93.7 114.4 L93.8 114.4 L94.0 114.4 L94.1 114.4 L94.2 114.4 L94.1 114.3 L93.8 114.1 L93.5 113.9 L93.3 113.7 L93.1 113.7 L93.5 113.3 L93.7 113.2 L93.9 113.2 L94.2 113.6 L94.2 113.7 L94.2 113.9 L94.2 114.0 L94.3 114.0 L94.3 113.9 L94.3 113.7 L94.4 113.7 L94.5 113.6 L95.0 113.7 L94.9 113.6 L94.4 113.4 L94.2 113.4 L94.1 113.2 L94.0 113.1 L93.9 112.9 L94.1 112.8 L94.3 112.7 L94.5 112.8 L94.7 112.9 L94.9 112.9 L95.1 113.0 L95.3 113.1 L95.5 113.2 L95.6 113.1 L95.5 113.1 L94.5 112.6 L94.4 112.6 L94.4 112.4 L94.5 112.3 L95.0 112.1 L95.1 112.0 L95.3 112.0 L95.5 112.0 L95.4 111.9 L95.3 111.8 L95.3 111.8 L96.0 111.5 L96.2 111.5 L96.4 111.8 L96.4 111.8 L96.4 111.9 L96.5 111.9 L96.5 112.0 L96.5 112.1 L96.4 112.2 L96.4 112.3 L96.5 112.4 L96.6 112.5 L96.6 112.6 L96.6 112.8 L96.9 112.8 L97.1 112.8 L97.0 112.7 L97.0 112.7 L97.0 112.6 L96.9 112.5 L96.9 112.5 L96.9 112.4 L96.7 112.3 L96.7 112.2 L96.7 112.1 L96.7 111.9 L96.7 111.8 L96.6 111.7 L96.5 111.5 L96.5 111.4 L96.6 111.1 L96.8 110.9 L97.1 110.8 L97.4 111.0 L97.5 111.1 L97.4 111.2 L97.4 111.3 L97.3 111.4 L97.3 111.5 L97.3 111.7 L97.4 111.8 L97.5 111.9 L97.5 111.7 L97.6 111.5 L97.7 111.4 L97.8 111.3 L97.7 111.1 L97.5 110.9 L97.5 110.8 L97.4 110.7 L97.4 110.6 L97.5 110.5 L97.6 110.5 L97.7 110.4 L97.8 110.5 L98.0 110.6 L98.1 110.7 L98.3 110.8 L98.5 110.9 L98.3 110.8 L98.0 110.5 L97.8 110.4 L97.7 110.3 L97.8 110.2 L98.0 110.1 L98.4 110.0 L98.5 109.9 L98.5 109.8 L98.6 109.7 L98.6 109.7 L98.8 109.7 L98.8 109.7 L99.1 109.5 L99.3 109.4 L99.6 109.4 L100.0 109.7 L100.3 109.8 L100.4 109.9 L100.6 110.3 L100.7 110.2 L100.7 110.0 L100.7 109.9 L100.6 109.8 L100.6 109.8 L100.4 109.7 L100.2 109.5 L100.1 109.5 L100.1 109.5 L100.0 109.5 L100.0 109.4 L100.0 109.3 L100.0 109.1 L99.9 108.8 L99.9 108.7 L99.8 108.6 L100.0 108.4 L100.7 107.8 L101.0 107.7 L101.3 107.5 L101.5 107.3 L101.5 107.0 L102.2 107.0 L102.3 107.0 L102.4 106.9 L102.4 106.7 L102.4 106.7 L102.3 106.6 L102.1 106.6 L102.1 106.5 L102.5 106.4 L102.7 106.3 L103.0 106.1 L103.5 105.8 L103.9 105.6 L104.1 105.3 L104.1 105.3 L104.2 105.2 L104.2 105.1 L104.2 105.0 L104.3 104.9 L104.4 104.8 L104.5 104.8 L104.6 104.8 L104.6 104.7 L104.4 104.6 L104.6 104.6 L104.7 104.5 L105.3 104.5 L105.6 104.5 L105.9 104.3 L106.0 104.3 L106.1 104.2 L106.2 104.1 L106.5 104.2 L106.5 104.1 L106.8 104.0 L106.9 104.0 L107.0 104.2 L107.2 104.3 L107.6 104.4 L108.1 104.3 L108.6 104.1 L109.1 103.7 L109.5 103.5 L109.7 103.4 L109.8 103.3 L110.4 103.1 L110.5 103.0 L110.5 102.9 L110.5 102.8 L110.6 102.8 L110.6 102.7 L110.9 102.6 L111.0 102.6 L111.1 102.5 L111.4 102.2 L111.6 102.2 L111.8 102.1 L112.4 101.8 L112.8 101.7 L113.0 101.6 L113.1 101.5 L113.2 101.4 L113.3 101.4 L113.4 101.3 L113.5 101.3 L113.7 101.3 L113.8 101.3 L113.9 101.3 L113.9 101.3 L114.0 101.2 L114.2 101.1 L114.5 101.1 L114.8 100.9 L115.1 100.9 L115.3 100.9 L115.8 100.7 L115.9 100.6 L116.1 100.6 L116.4 100.2 L116.5 100.1 L116.5 100.0 L116.6 99.9 L116.7 99.8 L116.9 99.8 L117.0 99.7 L117.1 99.6 L117.1 99.4 L117.3 99.2 L117.5 99.1 L118.6 98.7 L118.7 98.6 L118.8 98.3 L119.0 98.3 L119.1 98.2 L119.2 98.1 L119.3 97.9 L119.3 97.9 L119.6 97.8 L119.8 97.7 L119.9 97.7 L120.0 97.6 L120.1 97.7 L120.3 97.7 L120.4 97.8 L121.0 97.1 L120.7 97.1 L120.5 97.3 L120.3 97.5 L120.1 97.6 L120.2 97.2 L120.5 97.0 L120.8 96.8 L120.8 96.7 L120.8 96.6 L121.5 96.6 L121.7 96.5 L121.7 96.5 L121.7 96.4 L121.8 96.3 L121.9 96.2 L122.1 96.1 L122.3 96.2 L122.3 96.0 L122.4 96.0 L122.4 95.9 L122.8 95.8 L123.5 95.6 L123.9 95.4 L124.1 95.4 L124.3 95.3 L124.4 95.3 L124.4 95.3 L124.5 95.2 L124.6 95.1 L125.0 95.0 L125.1 94.9 L125.4 94.5 L125.6 94.5 L125.7 94.4 L126.4 93.4 L126.6 93.4 L126.6 93.3 L126.8 93.3 L127.0 93.2 L127.0 93.1 L127.2 92.9 L127.2 92.9 L127.3 92.8 L127.5 92.8 L127.6 92.6 L127.8 92.3 L128.0 92.2 L128.6 91.3 L128.8 91.1 L128.9 91.0 L128.9 90.7 L128.9 90.5 L129.4 90.1 L129.5 89.7 L129.8 88.4 L129.9 88.1 L130.0 87.9 L130.0 87.7 L130.1 87.6 L130.4 87.4 L130.5 87.2 L130.6 87.0 L130.7 86.5 L130.9 86.3 L130.9 86.0 L131.1 85.7 L131.1 85.6 L131.0 85.7 L131.0 85.6 L131.0 85.6 L130.9 85.2 L131.1 85.1 L131.6 85.1 L132.2 85.1 L132.3 85.1 L132.4 85.1 L132.8 84.9 L133.6 84.5 L133.9 84.4 L133.9 84.3 L134.1 84.3 L134.2 84.3 L134.3 84.3 L134.3 84.1 L134.4 84.0 L134.5 84.0 L134.6 83.9 L134.7 83.8 L135.0 83.3 L135.0 83.2 L135.1 83.2 L135.1 83.2 L135.1 83.0 L135.1 83.0 L135.2 83.0 L135.2 82.9 L135.3 82.9 L135.3 82.8 L135.3 82.7 L135.4 82.6 L135.5 82.4 L135.7 82.3 L135.9 82.2 L136.1 82.1 L136.1 82.1 L136.1 82.0 L136.1 81.9 L136.2 81.7 L136.2 81.6 L136.2 81.4 L136.3 81.2 L136.3 81.1 L136.4 81.2 L136.4 81.2 L136.5 81.1 L136.6 81.1 L136.7 81.1 L136.5 80.8 L136.5 80.7 L136.4 79.8 L136.4 79.7 L136.5 79.5 L136.5 79.4 L136.5 79.0 L136.5 78.0 L136.4 77.8 L136.4 77.6 L136.5 77.5 L136.6 77.5 L136.7 77.5 L136.7 77.5 L136.8 77.3 L137.0 77.1 L137.1 77.0 L137.1 77.0 L137.1 76.9 L137.2 76.9 L137.2 76.9 L137.3 76.9 L137.3 76.8 L137.4 76.8 L137.4 76.8 L137.4 76.7 L137.5 76.7 L137.5 76.7 L137.6 76.7 L137.7 76.7 L137.8 76.6 L138.0 76.5 L138.1 76.4 L138.2 76.4 L138.6 76.1 L139.5 75.3 L139.8 75.1 L140.2 75.0 L140.0 75.3 L140.0 75.3 L140.1 75.4 L140.2 75.3 L140.2 75.3 L140.3 75.2 L140.4 75.3 L140.5 75.2 L140.6 75.2 L140.6 75.1 L140.6 75.0 L140.9 74.9 L140.9 74.9 L140.8 74.8 L140.7 74.7 L140.6 74.8 L140.5 74.9 L140.4 74.9 L140.3 74.9 L140.6 74.5 L141.0 74.4 L142.7 74.3 L143.3 74.4 L143.8 74.5 L144.0 74.5 L143.8 74.6 L142.0 74.4 L141.9 74.5 L141.8 74.6 L141.7 74.7 L141.6 75.1 L141.5 75.2 L141.4 75.3 L141.5 75.5 L141.4 75.6 L141.3 75.6 L141.2 75.6 L141.3 75.8 L141.3 75.8 L141.5 75.9 L141.5 75.9 L141.5 76.0 L141.4 76.3 L141.5 76.4 L141.5 76.4 L141.7 76.3 L141.8 76.6 L142.1 76.8 L142.8 77.2 L143.0 77.3 L143.1 77.2 L143.3 77.1 L143.3 77.1 L143.4 77.1 L143.5 77.1 L143.4 77.0 L143.5 76.9 L143.6 76.8 L143.7 76.8 L143.7 76.9 L143.9 76.8 L144.0 76.7 L144.1 76.7 L144.2 76.8 L144.3 77.0 L144.3 77.0 L144.2 77.2 L144.3 77.3 L144.3 77.4 L144.2 77.4 L144.3 77.5 L144.4 77.5 L144.5 77.5 L144.6 77.6 L144.6 77.7 L144.5 78.0 L144.5 78.2 L144.6 78.3 L144.6 78.3 L144.5 78.4 L144.3 78.6 L144.0 78.7 L144.1 78.8 L144.2 78.8 L144.3 78.8 L144.3 78.7 L144.4 79.2 L144.5 79.3 L144.5 79.4 L144.6 79.5 L144.7 79.6 L144.6 79.8 L144.6 79.7 L144.5 79.6 L144.5 79.6 L144.4 79.6 L144.3 79.9 L144.4 79.9 L144.5 80.0 L144.5 80.1 L144.6 80.2 L144.6 80.2 L144.7 80.1 L144.8 80.2 L144.9 80.6 L145.0 80.8 L145.0 80.9 L144.9 80.9 L144.8 81.0 L144.8 81.0 L144.8 81.1 L145.0 81.2 L145.2 81.3 L145.5 81.3 L145.7 81.2 L145.9 81.2 L146.2 81.0 L146.5 80.8 L146.7 80.7 L147.0 80.3 L147.5 80.0 L147.7 79.9 L147.8 79.8 L147.9 79.7 L148.0 79.8 L148.0 79.8 L147.9 79.9 L147.9 80.0 L148.2 79.9 L148.4 79.8 L148.5 79.7 L148.6 79.5 L148.7 79.4 L148.8 79.4 L148.8 79.5 L148.9 79.5 L149.0 79.4 L148.9 79.3 L149.0 79.2 L149.1 79.1 L149.2 79.0 L149.4 79.1 L149.5 79.2 L149.6 79.3 L149.6 79.5 L149.7 79.5 L149.7 79.4 L149.8 79.4 L149.8 79.4 L149.9 79.5 L150.0 79.4 L149.9 79.2 L150.0 79.1 L150.2 79.1 L150.4 79.0 L150.5 78.9 L150.5 78.8 L150.4 78.8 L150.3 78.7 L150.0 78.9 L149.9 78.9 L149.9 78.8 L149.9 78.7 L150.1 78.6 L150.1 78.5 L150.3 78.5 L150.4 78.4 L150.5 78.4 L150.9 78.3 L151.0 78.3 L151.2 78.1 L151.4 77.9 L151.4 78.3 L151.6 78.4 L151.6 78.3 L151.9 78.1 L151.9 78.1 L151.9 78.0 L151.9 78.0 L152.0 77.9 L152.1 77.9 L152.5 77.7 L152.6 77.7 L152.7 77.7 L152.8 77.7 L152.8 77.8 L152.9 78.0 L152.8 78.0 L152.4 78.0 L152.4 78.1 L152.4 78.1 L152.3 78.2 L152.3 78.3 L152.2 78.3 L152.1 78.3 L152.0 78.3 L151.9 78.4 L152.0 78.4 L152.0 78.5 L152.0 78.5 L152.1 78.5 L151.9 78.6 L151.7 78.7 L151.4 78.7 L151.3 78.6 L151.1 78.6 L150.9 78.6 L150.8 78.7 L151.0 78.9 L150.8 78.9 L150.8 79.0 L150.8 79.0 L150.9 79.1 L150.9 79.2 L150.8 79.3 L150.8 79.4 L150.7 79.4 L150.7 79.5 L150.8 79.5 L150.9 79.5 L151.0 79.3 L151.2 79.1 L151.2 79.1 L151.7 79.0 L152.0 79.0 L152.3 79.1 L152.2 79.1 L152.1 79.1 L152.0 79.1 L152.0 79.2 L152.0 79.3 L151.9 79.3 L151.9 79.3 L151.8 79.3 L151.7 79.3 L151.7 79.2 L151.6 79.2 L151.6 79.3 L151.6 79.3 L151.7 79.4 L151.7 79.4 L151.7 79.5 L151.6 79.5 L151.6 79.5 L151.5 79.5 L151.4 79.7 L151.3 79.8 L151.2 79.8 L151.1 79.9 L151.2 79.9 L151.4 80.0 L151.5 80.1 L151.6 80.2 L151.5 80.3 L151.5 80.5 L151.4 80.6 L151.3 80.7 L151.1 80.7 L150.6 80.9 L150.6 80.9 L150.7 81.0 L150.8 81.1 L150.9 81.1 L151.8 80.7 L152.1 80.6 L152.1 80.6 L152.0 80.5 L151.8 80.5 L151.7 80.5 L151.7 80.4 L152.0 80.4 L152.2 80.4 L152.3 80.5 L152.5 80.5 L152.7 80.5 L152.9 80.4 L153.0 80.4 L153.0 80.4 L152.8 80.3 L153.4 80.3 L153.6 80.2 L153.8 80.1 L152.8 80.1 L152.7 80.1 L152.7 80.2 L152.7 80.2 L152.6 80.2 L152.6 80.3 L152.5 80.3 L152.5 80.2 L152.4 80.2 L152.4 80.2 L152.4 80.1 L152.0 80.2 L151.8 80.2 L151.7 80.0 L151.7 79.8 L151.8 79.7 L151.9 79.7 L152.0 79.6 L152.0 79.6 L152.0 79.5 L152.0 79.5 L152.1 79.4 L152.2 79.4 L152.2 79.4 L152.2 79.3 L152.2 79.3 L152.5 79.3 L152.4 79.5 L152.4 79.6 L152.4 79.8 L152.6 79.6 L152.7 79.5 L152.8 79.4 L153.0 79.4 L152.9 79.2 L152.8 79.1 L153.0 79.0 L153.0 78.8 L152.9 78.7 L152.8 78.7 L152.7 78.8 L152.7 78.9 L152.6 79.0 L152.5 79.0 L152.3 78.8 L152.2 78.7 L152.5 78.7 L152.4 78.6 L152.4 78.5 L152.5 78.4 L152.6 78.5 L152.6 78.3 L152.8 78.4 L153.1 78.6 L153.3 78.7 L153.4 78.7 L153.6 78.7 L153.7 78.6 L153.9 78.7 L154.0 78.6 L154.1 78.5 L154.1 78.3 L154.2 78.4 L154.3 78.5 L154.5 78.6 L154.5 78.7 L154.5 78.8 L154.5 78.9 L154.4 78.9 L154.3 78.9 L154.2 79.0 L154.2 79.0 L154.3 79.1 L154.4 79.2 L154.6 79.1 L154.7 79.0 L154.9 78.9 L155.3 78.6 L155.4 78.6 L155.4 78.7 L155.4 78.8 L154.9 79.3 L154.9 79.4 L154.9 79.6 L154.8 79.7 L154.8 79.6 L154.7 79.7 L154.6 79.8 L154.6 79.8 L154.6 79.8 L154.5 79.8 L154.4 79.8 L154.4 79.8 L154.4 79.4 L154.4 79.4 L154.3 79.4 L154.2 79.5 L154.2 79.6 L154.1 79.6 L154.1 79.6 L154.1 79.8 L154.2 79.8 L154.4 80.0 L154.4 80.1 L154.5 80.2 L154.5 80.2 L154.3 80.2 L154.3 80.3 L154.3 80.2 L154.1 80.3 L154.1 80.4 L154.0 80.4 L154.0 80.5 L153.8 80.5 L153.4 80.5 L153.2 80.5 L153.0 80.7 L152.9 80.6 L152.8 80.6 L152.7 80.6 L152.7 80.7 L152.5 80.7 L152.4 80.7 L152.2 80.8 L152.1 80.9 L152.1 81.0 L152.3 81.0 L152.5 80.9 L152.6 80.9 L152.8 80.9 L152.9 80.9 L153.0 80.8 L153.2 80.7 L153.3 80.7 L153.4 80.7 L153.5 80.8 L153.7 80.7 L153.8 80.6 L153.9 80.6 L154.0 80.7 L154.1 80.8 L154.2 80.8 L154.4 80.9 L154.5 80.8 L154.6 80.7 L154.7 80.7 L154.9 80.7 L155.1 80.6 L155.4 80.4 L155.3 80.7 L155.2 80.9 L155.1 80.9 L155.0 81.0 L154.9 81.1 L154.8 81.2 L154.8 81.3 L154.7 81.3 L154.5 81.4 L154.3 81.5 L154.1 81.6 L154.2 81.5 L154.3 81.3 L154.4 81.2 L154.3 81.2 L154.1 81.3 L154.0 81.3 L154.0 81.2 L153.8 81.3 L153.6 81.5 L153.5 81.8 L153.3 82.0 L153.1 82.2 L153.1 82.3 L153.1 82.5 L153.2 82.8 L153.2 82.9 L153.1 83.0 L153.3 83.0 L153.4 83.1 L153.4 83.3 L153.4 83.3 L153.4 83.3 L153.5 83.4 L153.6 83.4 L153.7 83.2 L153.6 83.2 L153.5 83.0 L153.5 82.9 L153.6 82.9 L154.1 83.5 L154.1 83.7 L154.2 83.8 L154.2 83.9 L154.3 84.0 L154.3 84.1 L154.4 84.6 L154.5 84.6 L154.6 84.8 L154.8 84.9 L155.0 84.9 L155.1 84.8 L155.1 85.1 L154.5 85.9 L154.3 86.1 L153.3 86.9 L152.7 87.4 L152.4 87.7 L152.3 87.9 L152.3 88.1 L152.3 88.4 L152.2 88.5 L152.2 88.6 L152.1 88.7 L152.1 88.8 L152.0 88.8 L151.9 89.0 L151.7 89.2 L151.5 89.3 L151.2 89.5 L151.0 89.7 L150.7 90.0 L150.7 90.0 L150.6 90.0 L150.5 90.0 L150.4 90.2 L150.4 90.2 L150.3 90.3 L150.2 90.3 L150.1 90.4 L150.1 90.5 L150.1 90.6 L150.3 90.8 L150.3 90.8 L150.3 90.9 L150.2 91.0 L150.0 90.8 L149.9 90.7 L149.8 90.7 L149.7 90.7 L149.5 90.9 L149.4 90.9 L149.3 91.0 L148.9 91.4 L148.7 91.7 L148.6 92.1 L148.4 92.4 L148.0 92.5 L148.0 92.6 L148.0 92.6 L148.1 92.6 L148.1 92.6 L148.2 92.7 L147.5 93.7 L147.4 94.0 L147.3 94.2 L147.1 94.3 L146.8 94.4 L146.8 94.5 L146.9 94.7 L146.9 94.8 L146.9 94.8 L146.9 94.9 L146.8 95.0 L146.7 95.1 L146.6 95.1 L146.6 95.1 L146.6 95.3 L146.5 95.3 L146.5 95.4 L146.1 95.6 L146.0 95.6 L145.7 95.6 L145.4 95.7 L145.3 95.8 L145.3 95.9 L145.3 96.0 L145.2 96.1 L144.8 96.3 L143.6 96.5 L143.3 96.6 L143.1 96.8 L142.5 97.2 L142.3 97.3 L142.1 97.7 L141.9 97.9 L141.9 98.0 L141.9 98.1 Z M165.8 38.2 L166.0 38.3 L166.1 38.4 L165.9 38.7 L165.8 38.7 L165.7 38.8 L165.6 38.7 L165.6 38.6 L165.6 38.5 L165.5 38.4 L165.4 38.4 L165.3 38.5 L165.2 38.5 L165.2 38.4 L165.1 38.2 L165.1 38.1 L165.1 38.1 L165.0 38.1 L164.8 38.1 L164.8 38.0 L164.8 38.0 L164.8 37.9 L164.7 37.9 L164.5 37.9 L164.3 37.8 L164.1 37.6 L164.0 37.4 L164.2 37.7 L164.3 37.7 L164.4 37.6 L164.4 37.5 L164.4 37.4 L164.4 37.3 L164.5 37.2 L164.3 37.1 L164.2 37.0 L164.1 36.9 L164.3 36.9 L164.4 36.8 L164.5 36.7 L164.4 36.6 L164.3 36.4 L164.4 36.3 L164.7 36.3 L164.7 36.3 L164.8 36.3 L164.9 36.4 L164.9 36.5 L164.9 36.6 L165.2 36.7 L165.0 36.8 L165.0 36.9 L165.2 37.0 L165.4 37.1 L165.6 37.2 L165.7 37.2 L165.8 37.2 L165.7 37.3 L165.6 37.4 L165.6 37.5 L165.6 37.6 L165.5 37.7 L165.5 37.8 L165.6 37.9 L165.7 38.0 L165.7 38.0 L165.8 38.0 L165.8 38.0 L165.8 38.0 L165.8 38.1 L165.8 38.1 L165.8 38.2 Z M178.0 66.6 L178.0 66.8 L178.1 66.8 L178.1 66.8 L178.3 66.9 L178.5 67.0 L178.5 67.1 L178.7 67.1 L178.8 67.1 L179.1 67.1 L179.4 67.2 L179.3 67.3 L179.2 67.4 L179.1 67.7 L179.1 67.7 L179.0 67.8 L178.9 67.8 L178.7 67.9 L178.6 68.0 L178.4 68.6 L178.4 68.6 L178.4 68.6 L178.4 68.7 L178.4 68.8 L178.4 68.8 L178.2 68.8 L178.2 68.8 L178.1 69.0 L177.8 69.8 L177.6 70.1 L177.5 70.2 L177.5 70.3 L177.4 70.4 L177.5 70.7 L177.5 70.7 L177.4 70.8 L177.3 70.9 L177.3 70.9 L177.2 71.2 L177.0 71.5 L176.6 71.9 L176.2 72.2 L176.2 72.2 L176.1 72.2 L176.0 72.1 L175.9 72.1 L175.8 72.1 L175.6 72.4 L175.5 72.5 L175.5 72.7 L175.6 72.6 L175.6 72.5 L175.7 72.5 L175.8 72.5 L175.3 73.4 L175.2 74.0 L175.0 74.2 L174.8 74.2 L174.6 74.1 L174.4 74.2 L173.9 74.8 L173.4 75.2 L173.3 75.3 L173.3 75.4 L173.3 75.5 L173.3 75.6 L173.1 75.8 L173.0 75.9 L172.9 75.9 L172.8 75.9 L172.8 76.0 L172.4 76.6 L172.2 76.9 L171.9 77.4 L171.8 77.8 L171.7 78.0 L171.2 78.1 L171.1 78.3 L170.9 78.5 L170.8 78.7 L170.5 79.5 L170.4 79.8 L169.5 80.7 L168.2 81.5 L167.9 81.8 L167.4 82.0 L166.9 82.2 L165.1 83.3 L164.5 83.5 L164.3 83.6 L164.0 83.8 L163.9 83.9 L163.2 83.9 L163.1 83.8 L163.0 83.6 L162.9 83.5 L162.9 83.4 L162.9 83.3 L162.8 83.2 L162.8 83.1 L162.8 83.0 L162.9 82.3 L162.9 82.2 L162.8 82.2 L161.7 81.9 L161.5 81.8 L161.3 81.9 L161.1 82.0 L160.7 82.3 L160.6 82.4 L160.5 82.4 L160.4 82.4 L160.2 82.3 L160.1 82.2 L160.0 82.1 L160.2 81.9 L160.1 81.8 L160.1 81.6 L160.1 81.4 L160.1 81.3 L160.3 80.9 L160.4 80.7 L160.3 80.5 L160.0 80.5 L159.8 80.5 L159.6 80.6 L159.5 80.6 L159.4 80.7 L159.3 80.8 L159.3 81.0 L159.7 81.0 L159.8 81.1 L159.7 81.3 L159.7 81.4 L159.6 81.4 L159.5 81.5 L159.4 81.4 L159.3 81.4 L159.2 81.4 L159.1 81.5 L159.0 81.6 L158.6 81.5 L158.2 81.3 L157.9 81.1 L157.8 80.8 L157.9 80.6 L158.0 80.6 L158.4 80.5 L158.6 80.4 L158.9 80.1 L159.1 79.9 L159.3 79.6 L159.5 79.5 L159.6 79.4 L159.8 79.3 L159.8 79.3 L160.0 79.6 L160.1 79.5 L160.1 79.4 L160.1 79.3 L160.1 79.2 L160.0 79.2 L159.9 79.1 L159.9 79.0 L159.9 78.9 L160.0 78.9 L160.2 78.7 L160.3 78.7 L160.4 78.7 L160.5 78.6 L160.6 78.5 L160.7 78.4 L160.7 78.3 L160.7 78.2 L160.8 78.0 L161.0 77.6 L161.0 77.5 L161.5 77.1 L162.0 76.5 L162.4 75.8 L162.7 75.2 L162.7 75.1 L162.8 74.9 L162.8 74.4 L162.9 74.2 L162.9 74.2 L162.9 74.1 L162.9 74.1 L162.9 74.0 L163.0 74.0 L163.1 74.0 L163.1 74.0 L163.1 73.9 L163.0 73.7 L163.0 73.6 L163.0 73.5 L163.1 73.4 L163.2 72.9 L163.3 72.6 L163.2 72.5 L163.2 72.4 L163.1 72.2 L162.9 71.6 L162.8 71.2 L162.7 70.9 L162.5 70.7 L161.9 70.2 L161.7 70.0 L160.9 69.3 L160.3 69.0 L159.9 68.8 L159.6 68.8 L159.3 68.8 L158.9 68.8 L158.3 68.6 L157.7 68.6 L157.5 68.5 L157.3 68.4 L156.4 67.8 L156.2 67.6 L155.7 67.0 L155.4 66.7 L154.9 66.5 L154.5 66.4 L153.0 66.2 L152.5 66.1 L151.4 65.4 L151.1 65.2 L150.8 64.8 L150.6 64.4 L150.6 64.0 L150.6 63.6 L150.7 63.2 L151.0 62.8 L151.4 62.6 L152.3 62.3 L154.5 61.2 L154.6 61.2 L155.8 61.2 L156.2 61.1 L156.6 60.9 L157.6 60.1 L157.7 59.9 L157.8 59.6 L157.9 59.4 L157.9 59.3 L157.9 59.0 L157.9 58.9 L158.0 58.9 L158.1 58.9 L158.0 58.7 L158.0 58.6 L158.1 58.5 L158.1 58.3 L158.2 56.8 L158.2 56.5 L158.5 56.0 L158.6 55.7 L158.7 55.3 L158.7 54.8 L158.8 54.5 L158.8 54.4 L158.8 54.2 L158.7 54.0 L158.7 53.9 L158.7 53.8 L158.9 53.8 L159.0 53.8 L159.2 53.8 L159.3 53.8 L159.3 53.9 L159.4 53.9 L159.4 54.0 L159.5 54.1 L159.5 54.1 L159.5 53.9 L159.7 54.0 L159.8 54.1 L159.9 54.2 L160.1 54.1 L160.0 54.1 L159.8 53.9 L160.1 53.9 L160.3 53.9 L160.6 53.9 L160.7 53.7 L160.6 53.7 L160.5 53.7 L160.4 53.8 L160.4 53.7 L160.4 53.5 L160.2 53.4 L160.0 53.4 L159.8 53.4 L159.7 53.5 L159.7 53.6 L159.7 53.6 L159.5 53.7 L159.4 53.6 L159.4 53.5 L159.4 53.3 L159.5 53.2 L159.6 53.2 L159.6 53.1 L159.7 53.1 L159.8 53.1 L160.1 52.8 L160.2 52.8 L160.3 52.6 L160.1 52.4 L160.0 52.4 L159.8 52.6 L159.7 52.8 L159.6 52.9 L159.4 52.7 L159.4 52.6 L159.4 51.8 L159.7 51.4 L160.1 51.3 L160.6 51.3 L161.0 51.2 L161.0 51.1 L160.9 51.1 L160.9 51.0 L160.8 51.0 L160.9 50.9 L161.0 50.8 L161.0 50.7 L161.0 50.6 L160.6 50.8 L160.6 50.8 L160.5 50.9 L160.5 51.0 L160.4 50.9 L160.4 50.9 L160.3 50.9 L160.1 51.0 L159.9 50.9 L159.4 49.2 L158.9 48.2 L158.8 47.8 L158.8 47.7 L158.9 47.6 L159.0 47.6 L159.2 47.5 L159.3 47.5 L159.4 47.3 L159.5 47.1 L159.6 47.0 L159.8 46.9 L159.8 46.9 L159.8 46.8 L159.7 46.8 L159.6 46.8 L159.5 46.9 L159.3 47.0 L159.3 47.0 L159.0 47.4 L158.9 47.4 L158.7 47.3 L158.6 47.1 L158.2 46.5 L158.1 46.2 L157.9 45.9 L157.9 45.8 L157.8 45.6 L157.5 45.1 L157.4 44.8 L157.6 44.8 L157.8 44.9 L158.1 44.8 L158.3 44.8 L158.4 44.9 L158.3 45.0 L158.3 45.1 L158.2 45.1 L158.7 45.8 L158.7 46.1 L158.8 46.3 L159.0 46.4 L159.1 46.2 L159.0 46.0 L158.9 45.8 L159.0 45.8 L159.3 45.8 L159.4 45.8 L159.5 45.7 L159.4 45.7 L158.9 45.7 L158.8 45.6 L158.9 45.6 L159.4 45.2 L159.4 45.3 L159.4 45.4 L159.8 45.1 L160.0 45.0 L160.2 45.0 L160.5 45.3 L160.6 45.3 L160.7 45.3 L160.8 45.2 L160.7 45.1 L160.7 45.0 L160.7 44.9 L160.2 44.7 L160.1 44.6 L159.9 44.6 L159.9 44.5 L159.8 44.4 L159.7 44.2 L159.5 44.5 L159.4 44.4 L159.4 44.2 L159.5 44.1 L159.6 44.1 L159.7 44.0 L159.7 43.9 L159.8 43.8 L159.2 43.7 L158.6 43.8 L158.4 43.8 L158.1 44.0 L158.1 44.1 L158.0 44.3 L158.0 44.4 L157.9 44.5 L157.8 44.5 L157.6 44.3 L157.5 44.5 L157.3 44.6 L157.1 44.7 L156.9 44.6 L156.8 44.4 L156.5 43.4 L156.3 42.6 L156.1 42.3 L155.7 41.6 L154.5 40.4 L154.3 40.0 L154.2 39.6 L154.2 39.5 L154.3 39.4 L154.3 39.4 L154.4 39.4 L154.3 39.6 L154.3 39.7 L154.4 39.9 L154.5 39.6 L154.6 39.5 L154.7 39.5 L154.8 39.6 L155.0 39.8 L155.1 40.0 L155.3 40.3 L155.5 40.3 L155.6 40.4 L155.7 40.4 L155.7 40.5 L155.5 40.6 L155.9 40.7 L156.0 40.7 L156.0 40.8 L155.9 40.8 L155.8 40.8 L155.7 40.8 L155.7 40.9 L155.8 41.0 L155.8 41.1 L155.7 41.1 L155.8 41.1 L155.9 41.2 L156.1 41.3 L156.1 41.2 L156.1 41.1 L156.1 41.0 L156.2 41.1 L156.3 41.3 L156.3 41.4 L156.4 41.3 L156.5 41.3 L156.6 41.2 L156.6 41.0 L156.6 40.9 L156.7 40.9 L156.8 40.8 L156.8 40.7 L156.7 40.7 L156.7 40.7 L156.6 40.6 L156.7 40.2 L156.6 40.1 L156.5 40.2 L156.5 40.1 L156.5 39.7 L156.5 39.7 L156.5 39.6 L156.7 39.5 L156.6 39.4 L156.5 39.3 L156.4 39.2 L156.5 39.1 L156.6 39.0 L156.6 38.9 L156.4 38.8 L156.3 38.8 L156.2 38.9 L156.1 39.0 L156.0 39.1 L155.5 39.1 L155.2 39.0 L155.0 38.9 L155.0 38.6 L155.1 38.7 L155.1 38.5 L155.2 38.5 L155.4 38.5 L155.5 38.6 L155.9 38.5 L156.0 38.5 L156.2 38.4 L156.3 38.3 L156.4 38.2 L156.7 38.2 L156.9 38.0 L157.0 37.9 L157.1 37.9 L157.1 37.9 L157.1 37.8 L157.1 37.8 L157.1 37.8 L157.1 37.7 L157.0 37.7 L156.9 37.8 L156.8 37.8 L156.7 37.8 L156.7 37.8 L156.6 37.9 L156.5 37.9 L156.3 38.0 L156.2 38.1 L156.1 38.0 L156.0 38.1 L155.8 38.2 L155.7 38.3 L155.5 38.2 L155.3 38.2 L155.3 38.2 L155.2 38.0 L155.3 38.0 L155.5 38.0 L155.7 38.1 L155.8 38.1 L155.8 37.9 L155.9 37.7 L156.1 37.4 L156.2 37.4 L156.2 37.3 L156.2 37.2 L156.3 37.1 L156.4 37.1 L156.5 37.1 L156.5 37.1 L156.4 36.9 L156.3 36.9 L156.0 36.8 L156.1 37.1 L155.9 37.4 L155.7 37.6 L155.5 37.7 L155.6 37.5 L155.7 37.5 L155.6 37.5 L155.5 37.5 L155.4 37.5 L155.4 37.4 L155.4 37.3 L155.3 37.3 L155.2 37.3 L155.1 37.3 L155.1 37.2 L155.0 37.2 L155.0 37.2 L155.0 37.1 L155.0 37.0 L155.0 36.9 L155.1 36.7 L154.9 36.8 L154.9 36.8 L154.7 37.0 L154.7 36.7 L154.6 36.7 L154.2 37.0 L154.3 37.0 L154.3 37.2 L154.4 37.3 L154.6 37.3 L154.7 37.3 L154.8 37.3 L154.8 37.4 L154.8 37.6 L154.8 37.6 L154.9 37.7 L154.9 37.7 L155.0 37.6 L155.0 37.5 L155.1 37.5 L155.2 37.6 L155.4 37.8 L155.1 37.9 L155.0 37.9 L155.0 38.0 L154.9 38.0 L154.9 38.0 L154.8 38.0 L154.7 38.0 L154.6 37.9 L154.5 37.9 L154.4 37.8 L154.4 37.8 L154.2 37.6 L154.1 37.4 L154.0 37.3 L153.9 37.2 L153.7 37.2 L153.3 37.2 L153.2 37.1 L153.1 37.0 L153.0 36.9 L152.9 36.8 L152.8 36.8 L152.6 36.7 L152.6 36.6 L152.6 36.2 L152.5 36.1 L152.3 35.9 L152.2 35.6 L152.1 35.5 L151.8 35.4 L152.1 35.1 L152.2 35.0 L152.1 34.8 L152.1 34.7 L152.0 34.7 L151.9 34.6 L151.9 34.6 L151.8 34.7 L151.9 34.8 L152.0 34.9 L152.0 34.9 L152.0 35.1 L151.6 35.2 L151.6 35.4 L152.1 35.9 L152.1 36.0 L152.3 36.1 L152.4 36.3 L152.4 36.5 L152.5 36.7 L152.5 36.7 L152.6 36.9 L152.7 37.0 L152.8 37.1 L152.9 37.1 L153.0 37.1 L153.1 37.3 L153.1 37.4 L153.2 37.4 L153.3 37.5 L153.8 38.1 L153.9 38.1 L154.0 38.1 L154.1 38.1 L154.2 38.2 L154.0 38.3 L154.1 38.4 L154.3 38.5 L154.4 38.7 L154.3 38.9 L154.1 39.0 L153.7 39.1 L153.3 39.2 L153.1 38.9 L152.8 38.0 L151.7 36.8 L151.4 36.3 L149.5 34.2 L147.6 32.1 L147.5 31.9 L147.6 31.8 L147.9 31.4 L147.9 31.3 L147.9 31.1 L148.0 30.9 L148.1 30.8 L148.3 30.9 L148.3 30.8 L148.3 30.7 L148.4 30.8 L148.5 30.9 L148.6 31.0 L148.7 31.0 L148.7 31.0 L148.7 30.7 L148.7 30.6 L149.0 30.9 L149.0 30.7 L149.0 30.6 L149.1 30.4 L149.2 30.3 L149.3 30.3 L149.3 30.3 L149.4 30.3 L149.5 30.3 L149.5 30.2 L149.6 30.0 L149.7 29.8 L149.4 29.9 L149.3 29.9 L149.3 29.8 L149.3 29.7 L149.3 29.7 L149.2 29.7 L149.2 29.7 L149.1 30.0 L149.1 29.9 L148.9 29.5 L148.8 29.6 L148.8 29.8 L148.9 30.0 L149.0 30.1 L148.9 30.3 L148.8 30.3 L148.6 30.3 L148.4 30.2 L148.3 30.2 L148.3 30.2 L148.3 30.4 L148.3 30.4 L148.2 30.5 L148.1 30.5 L148.0 30.5 L148.0 30.5 L147.9 30.4 L147.8 30.4 L147.7 30.4 L147.6 30.5 L147.6 30.6 L147.6 30.7 L147.5 30.7 L147.4 30.8 L147.4 30.9 L147.4 30.9 L147.4 30.9 L147.4 30.9 L147.4 31.6 L147.4 31.6 L147.3 31.6 L147.2 31.6 L146.5 30.7 L146.4 30.5 L146.4 30.4 L146.7 30.1 L146.7 30.1 L146.6 30.1 L146.5 30.1 L146.7 29.9 L146.7 29.8 L146.8 29.8 L146.5 29.8 L146.4 29.9 L146.3 30.1 L146.2 30.3 L146.1 30.3 L145.8 30.0 L145.8 29.9 L145.9 29.9 L146.2 29.7 L146.3 29.6 L146.1 29.5 L145.9 29.7 L145.7 29.7 L145.6 29.7 L145.5 29.6 L145.3 29.3 L144.9 29.0 L144.9 28.9 L144.9 28.8 L145.0 28.7 L145.2 28.7 L145.3 28.8 L145.6 28.5 L145.8 28.1 L145.8 27.7 L145.7 27.2 L145.4 26.7 L145.3 26.5 L144.8 26.1 L144.6 25.9 L144.4 25.4 L144.3 25.3 L144.1 25.2 L142.4 23.3 L142.0 23.1 L141.3 22.7 L141.4 22.6 L141.4 22.6 L141.5 22.4 L141.5 22.3 L141.5 22.2 L141.5 22.1 L141.7 22.2 L141.9 22.3 L142.4 22.3 L142.6 22.4 L142.7 22.3 L143.0 22.3 L143.2 22.1 L144.2 22.2 L144.3 22.2 L144.4 22.1 L144.5 22.0 L144.6 22.0 L144.8 22.1 L144.5 22.3 L144.4 22.4 L144.5 22.9 L144.4 23.0 L144.4 23.1 L144.3 23.1 L144.2 23.1 L144.1 23.1 L144.1 23.0 L144.0 22.9 L143.9 22.8 L143.9 22.8 L144.0 22.7 L144.0 22.6 L143.8 22.6 L143.8 22.6 L143.7 22.8 L143.7 23.0 L143.6 23.1 L143.5 23.0 L143.4 23.1 L143.4 23.1 L143.4 23.2 L143.3 23.2 L143.4 23.3 L143.6 23.5 L143.7 23.4 L143.7 23.3 L143.8 23.2 L143.9 23.2 L143.8 23.4 L143.8 23.4 L143.7 23.5 L143.8 23.5 L143.9 23.5 L144.0 23.5 L144.0 23.4 L144.1 23.5 L144.1 23.6 L144.1 24.1 L144.1 24.2 L144.2 24.1 L144.3 23.9 L144.3 23.7 L144.3 23.4 L144.2 23.2 L144.4 23.3 L144.5 23.7 L144.6 24.2 L144.7 24.6 L145.0 24.8 L145.3 25.1 L145.6 25.4 L145.7 25.8 L145.3 25.3 L145.1 25.2 L145.1 25.5 L145.5 25.8 L146.6 26.4 L146.6 26.5 L146.4 26.7 L146.4 26.7 L146.3 26.8 L146.3 27.2 L146.4 27.2 L146.4 27.2 L146.5 27.2 L146.8 27.3 L146.9 27.3 L146.9 27.2 L147.0 27.1 L147.0 27.0 L147.1 27.0 L147.2 26.9 L147.2 26.6 L147.1 26.2 L147.1 26.0 L147.3 26.0 L147.5 25.9 L147.7 25.8 L147.8 25.7 L147.8 25.6 L147.7 25.5 L147.7 25.5 L147.8 25.4 L147.9 25.4 L147.9 25.5 L148.0 25.6 L148.0 25.7 L148.0 25.7 L147.9 25.9 L148.2 25.8 L148.3 25.8 L148.2 25.8 L148.3 25.9 L148.4 26.0 L148.0 26.2 L147.7 26.2 L147.6 26.2 L147.5 26.3 L147.6 26.5 L147.7 26.6 L147.7 26.8 L147.9 26.9 L148.0 27.0 L148.2 27.1 L148.4 27.1 L148.8 27.1 L148.9 27.1 L149.1 27.3 L149.2 27.2 L149.2 27.1 L149.1 27.0 L149.0 26.9 L148.9 26.8 L148.9 26.7 L149.0 26.5 L149.1 26.5 L149.2 26.6 L149.3 26.8 L149.4 26.7 L149.5 26.7 L149.6 26.7 L149.7 26.9 L149.9 26.9 L150.1 26.9 L150.1 26.9 L150.2 26.9 L150.2 26.8 L150.3 26.8 L150.3 26.8 L150.4 26.9 L150.4 26.9 L150.4 27.0 L150.4 27.0 L150.5 27.1 L150.5 27.2 L150.6 27.2 L150.6 27.2 L150.7 27.2 L150.8 27.2 L150.7 27.3 L150.6 27.4 L150.6 27.4 L150.6 27.5 L150.4 27.6 L150.3 27.7 L150.3 27.8 L150.6 28.0 L150.8 28.0 L150.8 27.9 L150.8 27.9 L150.8 27.8 L151.0 27.5 L151.0 27.5 L151.0 27.3 L151.0 27.3 L151.0 27.2 L151.2 27.2 L151.3 27.2 L151.5 27.2 L151.7 27.2 L151.7 27.2 L151.8 27.3 L151.9 27.5 L152.2 27.7 L152.4 27.8 L152.4 28.0 L152.6 28.2 L152.8 28.2 L153.3 28.2 L153.5 28.2 L153.7 28.3 L153.9 28.5 L154.0 28.7 L153.6 28.8 L153.5 28.8 L153.5 28.7 L153.5 28.6 L153.4 28.5 L153.4 28.5 L153.3 28.6 L153.2 28.6 L153.1 28.5 L152.9 28.6 L152.8 28.6 L152.9 28.7 L153.1 28.9 L152.8 28.9 L152.8 29.0 L152.9 29.1 L153.1 29.0 L153.2 29.1 L153.3 29.1 L153.4 29.1 L153.4 29.0 L153.5 29.2 L153.5 29.3 L153.5 29.4 L153.4 29.5 L153.5 29.6 L153.8 29.9 L153.9 30.0 L153.9 30.1 L153.9 30.3 L153.9 30.3 L154.0 30.2 L154.1 30.1 L154.1 30.0 L154.3 30.1 L154.3 30.1 L154.4 30.1 L154.4 30.1 L154.4 30.0 L154.4 29.9 L154.5 29.9 L154.6 30.0 L154.6 30.0 L154.7 30.0 L154.8 30.0 L154.8 29.9 L154.8 29.8 L154.7 29.8 L154.5 29.8 L154.3 29.7 L154.1 29.6 L154.0 29.5 L154.0 29.6 L154.1 29.5 L154.4 29.5 L154.8 29.5 L154.7 29.4 L154.7 29.4 L154.8 29.4 L154.9 29.4 L155.0 29.4 L155.0 29.5 L155.1 29.4 L155.1 29.4 L155.1 29.3 L155.2 29.3 L155.4 29.0 L155.7 28.9 L155.7 29.1 L155.7 29.3 L155.5 29.4 L155.5 29.6 L155.6 29.8 L155.7 29.9 L155.9 29.9 L156.1 29.9 L156.1 30.0 L156.0 30.1 L156.3 30.4 L156.1 30.5 L156.1 30.4 L155.8 30.2 L155.6 30.1 L155.5 30.0 L155.6 30.2 L155.9 30.7 L156.1 30.9 L156.3 30.9 L156.5 30.9 L156.5 30.9 L156.5 30.9 L156.5 30.9 L156.5 30.9 L156.6 30.9 L156.6 31.0 L156.6 31.0 L156.7 31.1 L156.9 31.4 L157.0 31.5 L156.6 31.5 L156.7 31.6 L157.1 31.9 L157.5 32.3 L157.6 32.5 L157.5 32.7 L157.4 32.7 L157.0 32.6 L156.8 32.6 L156.7 32.7 L156.9 32.8 L157.2 32.9 L157.1 32.9 L157.0 33.0 L157.2 33.0 L157.3 33.1 L157.4 33.1 L157.3 33.2 L157.3 33.3 L157.2 33.3 L157.1 33.3 L157.6 33.6 L157.7 33.7 L157.7 33.8 L157.6 34.0 L157.6 34.1 L157.8 34.4 L157.6 34.4 L157.4 34.4 L157.3 34.2 L157.1 34.1 L157.1 33.9 L156.9 33.9 L156.9 33.7 L156.8 33.8 L156.6 33.8 L156.4 33.9 L156.4 33.8 L156.3 33.8 L156.2 33.7 L156.2 33.8 L156.1 33.9 L156.1 33.9 L155.9 33.9 L155.9 33.9 L156.0 33.8 L156.0 33.7 L155.9 33.6 L155.9 33.5 L155.8 33.4 L155.7 33.3 L155.7 33.5 L155.7 33.9 L155.7 34.1 L155.7 34.2 L155.6 34.3 L155.7 34.4 L155.7 34.4 L155.9 34.5 L155.9 34.4 L156.0 34.3 L156.0 34.2 L156.2 34.2 L156.8 34.2 L157.0 34.3 L157.1 34.4 L157.1 34.6 L156.9 34.8 L156.7 34.9 L156.9 35.0 L156.9 35.3 L156.9 35.5 L156.9 35.6 L157.0 35.7 L157.4 36.0 L157.5 36.0 L157.7 36.1 L157.9 36.1 L158.0 36.1 L158.0 36.2 L158.0 36.3 L158.0 36.4 L158.0 36.5 L158.0 36.7 L158.1 36.8 L158.2 36.8 L158.4 37.0 L158.9 37.6 L159.1 37.8 L159.5 38.0 L159.7 38.1 L159.7 38.2 L159.7 38.3 L159.7 38.3 L159.7 38.3 L159.7 38.3 L159.7 38.4 L159.7 38.4 L159.6 38.4 L159.6 38.3 L159.6 38.3 L159.6 38.4 L159.5 38.3 L159.5 38.4 L159.5 38.4 L159.6 38.6 L159.7 38.7 L160.0 38.7 L160.2 38.7 L159.9 38.8 L159.2 38.7 L159.1 38.8 L159.1 38.9 L159.2 39.2 L159.4 39.5 L159.4 39.6 L159.4 39.8 L159.3 39.9 L159.1 39.5 L159.0 39.3 L158.8 39.3 L158.9 39.6 L158.9 39.8 L158.7 39.8 L158.7 39.9 L158.8 39.9 L158.9 39.9 L159.0 40.0 L159.0 40.0 L159.0 40.1 L158.8 40.2 L158.7 40.3 L158.7 40.4 L158.8 40.5 L158.8 40.6 L158.8 40.8 L158.9 40.8 L159.0 40.9 L159.1 41.0 L159.2 41.0 L159.4 41.0 L159.8 40.9 L159.9 40.9 L160.0 41.0 L159.9 41.0 L159.5 41.2 L159.3 41.3 L159.2 41.3 L158.8 41.1 L159.0 41.3 L159.1 41.5 L159.7 42.8 L159.5 42.7 L159.4 42.7 L159.2 42.6 L159.0 42.7 L158.9 42.7 L158.9 42.6 L158.9 42.6 L159.0 42.5 L158.8 42.5 L158.7 42.2 L158.5 42.2 L158.2 42.4 L158.1 42.4 L158.0 42.6 L158.0 42.6 L158.0 42.6 L158.3 42.6 L158.5 42.6 L158.4 42.7 L158.3 42.7 L158.2 42.8 L158.3 42.9 L158.4 42.9 L158.4 43.0 L158.4 43.0 L158.4 43.4 L158.5 43.5 L158.6 43.6 L158.6 43.5 L158.7 43.4 L158.7 43.3 L158.7 43.2 L158.7 43.3 L158.8 43.2 L158.9 43.1 L159.0 43.0 L159.1 43.0 L159.2 43.0 L159.6 43.0 L160.1 43.0 L160.3 43.1 L160.3 43.4 L160.2 43.5 L160.1 43.5 L160.1 43.6 L160.1 43.8 L160.2 43.9 L160.2 44.0 L160.3 43.9 L160.4 43.8 L160.6 42.9 L160.7 42.9 L160.8 43.3 L160.9 43.5 L160.9 43.7 L161.1 43.7 L161.3 43.7 L161.4 43.6 L161.3 43.4 L161.2 43.3 L161.4 43.2 L161.7 43.3 L161.9 43.3 L162.0 43.5 L161.9 43.9 L162.0 44.0 L162.1 44.1 L162.2 44.0 L162.3 44.0 L162.5 44.0 L162.7 43.8 L162.7 43.9 L162.8 43.9 L162.8 43.9 L163.1 43.8 L163.2 43.8 L163.3 43.8 L163.5 43.9 L163.6 44.0 L163.6 44.0 L163.9 44.3 L164.0 44.4 L164.0 44.5 L164.1 44.6 L164.1 44.8 L164.0 45.4 L164.0 45.6 L164.1 45.8 L164.2 45.9 L164.4 46.1 L164.7 46.2 L165.1 46.2 L165.4 46.1 L165.8 46.0 L165.8 46.0 L165.9 45.9 L165.9 45.9 L166.0 45.8 L166.1 45.9 L166.1 46.0 L166.1 46.2 L166.2 46.3 L166.3 46.4 L166.4 46.5 L166.6 46.4 L166.5 46.3 L166.4 46.3 L166.3 46.1 L166.3 45.9 L166.2 45.6 L166.2 45.5 L166.0 45.3 L166.0 45.1 L166.0 44.7 L166.0 44.6 L165.9 44.5 L165.7 44.0 L165.7 43.9 L165.6 43.8 L165.5 43.7 L165.3 43.6 L165.2 43.5 L165.1 43.4 L165.1 43.3 L165.1 43.2 L164.9 43.1 L165.1 43.1 L165.3 43.1 L165.5 43.1 L165.6 43.0 L165.4 43.0 L165.2 43.0 L165.1 42.9 L165.2 42.9 L165.3 42.9 L165.4 42.8 L165.5 42.7 L165.4 42.7 L165.3 42.7 L165.3 42.7 L165.2 42.7 L165.7 42.6 L165.8 42.5 L165.8 42.3 L165.6 42.3 L165.6 42.4 L165.5 42.3 L165.5 42.2 L165.5 42.1 L165.5 42.0 L165.3 41.8 L165.4 41.5 L165.5 41.3 L165.5 41.1 L165.4 41.1 L165.3 41.1 L165.2 41.1 L165.2 41.0 L165.2 41.0 L165.0 40.8 L164.8 40.7 L164.5 40.6 L164.4 40.5 L164.3 40.4 L164.3 40.3 L164.2 39.9 L164.3 39.8 L164.5 39.8 L164.7 39.8 L165.0 39.8 L165.0 39.8 L165.1 39.9 L165.1 40.0 L165.2 40.1 L165.2 40.1 L165.2 40.1 L165.3 40.1 L165.5 40.3 L165.5 40.3 L165.8 40.1 L165.9 40.2 L166.0 40.5 L166.0 40.7 L165.8 40.8 L166.0 41.0 L166.2 41.0 L166.4 41.0 L166.4 41.2 L166.4 41.5 L166.4 41.6 L166.3 41.5 L166.2 41.5 L166.1 41.5 L166.1 41.5 L166.2 41.6 L166.3 41.7 L166.5 41.7 L166.6 41.7 L166.6 41.8 L166.6 41.9 L166.6 41.9 L166.5 42.0 L166.6 42.3 L166.7 42.3 L167.1 42.1 L166.9 42.0 L166.9 42.0 L166.9 42.0 L167.1 41.9 L167.2 41.9 L167.3 42.0 L167.4 42.0 L167.5 42.0 L167.7 41.8 L167.9 41.8 L168.0 41.8 L168.1 41.8 L168.2 41.9 L168.3 42.0 L168.4 41.9 L168.5 41.9 L168.5 42.0 L168.5 42.1 L168.4 42.2 L168.2 42.1 L168.1 42.2 L167.9 42.4 L167.8 42.5 L167.6 42.6 L167.5 42.6 L167.4 42.8 L167.2 43.0 L167.3 43.0 L167.3 43.1 L167.3 43.2 L167.3 43.2 L167.4 43.3 L167.5 43.4 L167.6 43.4 L167.6 43.3 L167.7 43.2 L167.7 42.9 L167.8 42.8 L168.0 42.9 L168.3 42.8 L168.5 42.9 L168.5 43.0 L168.5 43.3 L168.6 43.3 L168.7 43.5 L168.7 43.6 L168.8 43.7 L168.8 44.1 L168.8 44.4 L168.8 44.4 L168.8 44.5 L168.8 44.6 L168.7 44.7 L168.7 44.8 L168.7 44.8 L168.8 44.8 L168.9 44.7 L168.9 44.6 L169.1 44.8 L169.1 45.0 L168.9 45.2 L168.8 45.4 L168.8 45.5 L168.9 45.5 L169.0 45.5 L169.1 45.6 L169.1 45.7 L169.1 45.9 L169.1 46.0 L169.0 46.0 L169.0 45.9 L168.9 45.8 L168.9 45.7 L168.8 45.7 L168.9 45.9 L168.9 46.1 L168.9 46.3 L168.8 46.4 L169.1 46.5 L169.2 46.6 L169.3 46.7 L169.4 47.1 L169.4 47.4 L169.4 47.5 L169.6 47.8 L169.6 47.9 L169.7 48.0 L169.8 48.1 L169.8 48.1 L169.8 48.2 L169.8 48.2 L169.7 48.2 L169.6 48.2 L169.6 48.3 L169.7 48.4 L170.0 48.4 L170.1 48.5 L170.3 48.6 L170.4 48.6 L170.6 48.7 L170.6 48.9 L170.8 49.1 L170.8 49.2 L171.1 49.4 L171.2 49.5 L171.2 49.7 L170.9 49.5 L170.8 49.4 L170.7 49.4 L170.6 49.4 L170.4 49.4 L170.3 49.3 L170.4 49.3 L170.6 49.2 L170.3 49.0 L170.2 48.9 L170.1 48.8 L169.9 48.7 L169.7 48.7 L169.3 48.8 L169.3 48.8 L169.4 48.9 L169.5 49.0 L169.4 49.0 L169.4 49.1 L169.4 49.1 L169.4 49.2 L169.5 49.3 L169.5 49.3 L169.6 49.3 L169.6 49.2 L169.6 49.3 L169.7 49.3 L169.8 49.3 L169.8 49.4 L169.8 49.4 L169.7 49.5 L169.7 49.5 L169.7 49.7 L169.8 49.7 L169.8 49.8 L169.8 49.8 L170.0 49.8 L170.1 49.8 L170.1 49.7 L170.1 49.7 L170.2 49.7 L170.3 49.7 L170.4 49.8 L170.4 49.9 L170.5 50.1 L170.7 50.0 L170.7 50.0 L170.8 50.1 L170.9 50.2 L171.0 50.1 L171.1 50.1 L171.1 50.0 L171.3 50.0 L171.4 50.1 L171.5 50.1 L171.5 50.3 L171.5 50.4 L171.5 50.5 L171.6 50.5 L171.8 50.4 L171.9 50.4 L171.8 50.0 L171.6 49.8 L171.5 49.6 L171.6 49.6 L171.8 49.7 L172.1 50.2 L172.3 50.2 L172.6 50.3 L173.1 50.5 L173.3 50.5 L173.4 50.6 L173.6 50.7 L173.7 50.8 L174.0 50.8 L174.0 50.8 L174.1 50.9 L174.1 50.9 L174.2 50.8 L175.9 51.8 L176.3 52.0 L176.8 52.0 L177.3 52.2 L177.9 52.3 L178.4 52.5 L179.2 52.6 L179.5 52.7 L179.0 52.7 L178.9 52.7 L179.0 52.8 L179.4 53.0 L179.5 53.1 L179.6 53.1 L179.7 53.0 L179.7 52.9 L179.7 52.8 L179.6 52.7 L179.8 52.7 L179.9 52.7 L179.9 52.8 L180.0 52.8 L180.6 52.8 L180.6 52.9 L180.7 53.0 L180.8 53.0 L180.8 53.0 L180.8 53.0 L180.9 53.0 L180.9 52.9 L180.9 52.9 L180.9 52.8 L181.0 52.8 L181.1 52.8 L181.3 52.7 L182.1 52.7 L182.3 52.6 L182.5 52.5 L183.1 52.1 L183.4 52.0 L183.5 51.9 L183.5 51.8 L183.5 51.6 L183.7 51.4 L183.7 51.3 L183.7 51.2 L184.1 51.1 L184.2 50.9 L184.3 50.6 L184.4 50.5 L184.5 50.3 L184.6 50.3 L184.6 50.2 L184.7 50.1 L185.5 49.9 L185.7 49.9 L185.9 49.9 L186.0 49.8 L186.2 49.5 L186.3 49.5 L186.7 49.4 L186.9 49.4 L187.0 49.3 L187.0 49.2 L187.0 49.1 L186.9 49.0 L187.2 49.0 L189.3 49.1 L189.5 49.1 L189.6 49.2 L189.5 49.3 L189.5 49.4 L189.6 49.4 L189.8 49.5 L189.8 49.6 L190.0 49.6 L190.1 49.7 L190.4 49.7 L190.5 49.7 L190.7 49.8 L190.8 49.8 L191.1 49.8 L191.2 49.8 L191.3 49.9 L191.5 50.0 L191.6 50.1 L191.8 50.3 L191.8 50.5 L191.7 50.5 L191.5 50.7 L191.2 51.0 L191.0 51.4 L190.9 51.6 L190.6 51.8 L190.5 52.0 L190.2 52.5 L190.1 52.7 L190.0 52.8 L189.9 52.9 L189.9 53.0 L190.0 53.2 L190.1 53.4 L190.2 53.5 L190.1 53.8 L190.0 53.9 L189.8 54.0 L189.7 54.1 L190.0 54.5 L189.9 54.7 L189.8 54.8 L189.7 55.0 L189.7 55.2 L189.8 55.3 L189.9 55.5 L190.0 55.6 L190.0 55.7 L189.9 55.8 L189.8 55.9 L189.7 56.0 L189.7 56.2 L189.7 56.3 L189.8 56.3 L189.9 56.4 L189.9 56.5 L189.9 56.6 L189.8 56.7 L189.5 56.8 L189.5 56.9 L189.5 57.4 L189.4 57.5 L188.5 58.3 L187.6 58.9 L187.5 59.0 L187.1 58.8 L186.9 58.7 L186.7 58.8 L186.5 58.9 L186.4 58.9 L186.4 58.9 L186.3 58.9 L186.3 59.0 L186.3 59.0 L186.4 59.1 L186.4 59.2 L186.5 59.3 L186.6 59.4 L186.6 59.5 L186.4 59.7 L186.4 59.9 L186.4 60.4 L186.3 60.9 L186.2 61.1 L186.1 61.4 L186.1 61.6 L186.2 61.8 L186.1 61.9 L186.0 62.0 L185.9 62.2 L186.5 62.2 L186.8 62.3 L186.9 62.6 L186.4 62.9 L186.2 63.4 L186.2 63.6 L186.1 63.7 L185.9 63.8 L185.8 63.9 L185.6 63.4 L185.5 63.1 L185.5 62.9 L185.5 62.7 L185.6 62.6 L185.7 62.5 L185.8 62.4 L185.8 62.3 L185.7 62.2 L185.5 62.2 L185.4 62.4 L185.3 62.3 L185.0 62.2 L184.9 62.1 L183.5 62.1 L182.2 62.1 L182.1 62.0 L182.0 62.0 L181.9 61.9 L181.7 62.1 L180.1 62.7 L178.9 63.2 L178.8 63.3 L178.8 63.4 L178.7 63.6 L178.6 63.8 L178.4 64.0 L178.0 64.3 L177.8 64.4 L177.8 64.4 L177.7 64.7 L177.6 64.8 L177.6 64.9 L177.5 65.0 L177.5 65.1 L177.5 65.3 L177.6 65.4 L177.7 65.4 L177.8 65.5 L177.9 65.7 L177.9 66.5 L178.0 66.6 Z" fill="#172033" fill-rule="evenodd"/></svg>
