<svg xmlns="http://www.w3.org/2000/svg" viewBox="0 0 320 200" role="img"><path d="M162.7 27.2 L162.7 27.2 L162.7 27.0 L162.9 26.5 L163.9 25.0 L164.3 24.2 L164.5 24.1 L164.7 24.0 L164.8 24.1 L164.7 24.3 L164.9 24.5 L164.9 24.6 L164.8 24.9 L164.9 24.9 L165.1 24.7 L165.5 24.7 L165.6 24.6 L165.7 24.5 L165.9 24.6 L166.1 24.8 L166.1 25.1 L166.2 24.9 L166.4 24.9 L166.5 25.0 L166.7 25.0 L167.1 24.7 L167.3 24.6 L167.8 24.8 L167.9 24.7 L167.9 24.6 L167.9 24.5 L167.7 24.4 L167.6 24.3 L167.3 24.3 L167.1 24.3 L167.0 24.4 L166.9 24.5 L166.7 24.6 L166.5 24.7 L166.4 24.6 L166.4 24.5 L166.5 23.8 L166.5 23.5 L166.9 23.9 L167.2 23.9 L167.2 23.7 L167.2 23.6 L167.0 23.4 L166.8 23.3 L166.6 23.2 L166.6 23.1 L166.7 23.0 L166.8 23.0 L166.9 23.0 L167.1 22.8 L167.2 22.6 L167.2 22.2 L167.2 22.0 L167.3 22.0 L167.6 22.4 L167.8 22.3 L167.9 22.2 L168.0 22.3 L167.9 22.5 L167.9 22.5 L168.0 22.5 L168.0 22.7 L168.2 22.5 L168.3 22.6 L168.3 22.7 L168.4 22.8 L168.8 22.9 L169.0 22.9 L169.2 22.9 L169.2 22.8 L169.1 22.6 L169.1 22.5 L169.4 22.4 L169.6 22.8 L169.6 23.0 L169.3 23.0 L168.9 23.0 L168.7 23.1 L168.2 23.5 L167.9 23.6 L167.9 23.6 L167.9 23.7 L167.8 23.9 L168.2 24.2 L168.3 24.3 L168.6 24.4 L168.7 24.3 L168.9 24.2 L169.0 24.2 L169.2 24.4 L168.9 24.9 L168.8 24.9 L168.7 24.6 L168.5 24.7 L168.3 24.6 L168.4 24.8 L168.4 24.9 L168.4 25.0 L168.3 25.1 L168.5 25.3 L168.8 25.4 L169.0 25.6 L169.1 25.8 L168.9 25.8 L168.7 25.8 L168.6 25.7 L168.4 25.6 L168.2 25.7 L168.0 25.6 L167.9 25.4 L167.9 25.2 L167.8 25.2 L167.5 25.3 L167.5 25.4 L167.5 25.2 L167.5 25.1 L167.6 25.0 L167.7 25.0 L167.3 24.9 L166.9 25.1 L166.7 25.4 L166.8 25.6 L166.7 25.8 L166.7 26.0 L166.7 26.2 L166.8 26.4 L166.9 26.1 L167.1 25.9 L167.2 25.8 L167.3 25.9 L167.4 26.1 L167.3 26.3 L167.2 26.5 L167.6 26.6 L169.0 26.6 L168.9 26.8 L168.6 27.0 L168.1 27.3 L167.6 27.4 L167.5 27.6 L167.6 27.8 L168.0 27.6 L168.2 27.8 L168.2 28.1 L167.8 28.3 L167.9 28.5 L168.1 28.8 L168.2 28.9 L168.3 28.9 L168.7 29.0 L168.5 29.1 L168.5 29.2 L168.4 29.4 L168.2 29.2 L167.9 29.2 L167.7 29.2 L167.6 29.4 L167.8 29.7 L167.7 30.1 L167.4 30.4 L167.2 30.8 L167.2 30.9 L167.2 31.3 L166.9 31.5 L166.7 32.0 L166.5 32.2 L166.2 32.3 L166.2 32.0 L166.0 32.3 L165.8 32.8 L165.7 33.4 L165.8 34.0 L165.9 34.1 L165.2 34.3 L165.0 34.4 L164.7 34.3 L164.6 34.2 L164.4 33.9 L164.3 33.8 L163.9 33.7 L163.9 33.7 L163.8 33.6 L163.7 33.4 L163.7 32.7 L163.7 32.5 L163.8 32.3 L164.1 32.1 L164.2 31.9 L164.1 31.7 L163.7 31.3 L163.7 31.0 L163.7 30.8 L164.0 30.4 L164.1 30.2 L164.2 28.7 L164.3 28.2 L164.4 27.9 L164.3 27.6 L164.0 27.0 L163.8 27.0 L163.0 27.2 L162.7 27.2 Z M167.6 44.5 L167.9 45.8 L168.9 47.8 L169.1 48.0 L169.2 48.3 L169.3 49.0 L171.2 52.3 L171.6 52.7 L172.5 53.4 L174.2 55.4 L174.6 55.9 L174.7 56.2 L174.9 56.6 L176.5 58.3 L178.4 59.8 L179.9 60.9 L180.4 61.3 L182.7 62.1 L185.6 62.8 L186.8 63.3 L187.8 63.6 L188.4 63.7 L188.8 63.7 L189.9 63.6 L190.2 63.7 L190.6 64.2 L190.8 64.4 L191.2 64.5 L191.6 64.7 L192.0 64.7 L194.1 64.6 L194.8 64.6 L195.5 64.8 L196.5 65.2 L196.8 65.2 L197.1 65.3 L197.7 65.9 L198.0 66.1 L198.5 66.3 L199.3 66.4 L200.0 66.3 L200.7 66.2 L201.0 66.1 L201.2 66.0 L201.3 65.7 L201.4 65.7 L201.7 65.8 L202.4 65.8 L202.8 65.9 L203.1 66.0 L203.3 66.2 L203.6 66.8 L203.7 67.0 L203.8 67.0 L203.9 67.1 L203.9 67.2 L204.0 67.2 L204.0 67.2 L204.1 67.2 L204.2 67.2 L204.3 67.2 L204.6 67.4 L204.7 67.5 L204.8 67.6 L204.9 67.6 L205.0 67.4 L205.0 67.5 L205.0 67.6 L205.1 67.6 L205.1 67.8 L205.2 67.8 L205.2 67.7 L205.3 67.5 L205.4 67.6 L205.4 67.6 L205.6 67.5 L206.0 68.0 L206.1 68.3 L206.1 68.5 L206.2 68.7 L206.4 69.5 L206.6 69.8 L207.5 70.6 L208.1 70.8 L208.3 71.1 L208.6 71.8 L208.7 72.1 L209.2 72.5 L209.5 72.8 L209.6 73.8 L210.6 74.7 L210.7 74.8 L210.8 75.3 L210.9 75.4 L210.9 75.5 L211.4 75.8 L212.2 76.3 L212.8 76.7 L213.2 77.1 L213.4 77.6 L214.0 79.0 L214.1 79.2 L214.2 79.5 L214.5 79.7 L215.1 80.0 L215.7 81.0 L215.8 81.2 L216.0 81.5 L216.7 82.1 L217.2 82.3 L217.6 82.6 L217.9 82.8 L218.0 82.9 L218.0 83.1 L217.9 83.1 L217.8 83.1 L217.7 83.0 L217.7 83.2 L217.8 83.3 L218.0 83.4 L218.2 83.3 L219.5 82.9 L219.9 83.1 L220.6 83.6 L220.7 83.6 L220.9 83.5 L221.0 83.6 L221.0 83.6 L221.1 83.8 L221.1 83.9 L221.1 83.9 L221.1 84.0 L221.1 84.1 L221.2 84.2 L221.3 84.3 L221.4 84.3 L221.5 84.3 L221.6 84.3 L221.7 84.2 L221.6 84.1 L221.3 83.8 L221.4 83.6 L221.6 83.6 L221.9 83.6 L222.3 83.7 L222.7 84.1 L222.9 84.6 L223.0 85.1 L222.7 87.7 L222.4 88.4 L222.1 89.1 L221.2 90.3 L220.7 90.6 L220.5 90.9 L220.3 91.2 L220.3 91.6 L220.0 92.3 L219.9 93.1 L219.8 93.4 L219.1 93.7 L218.9 93.9 L218.7 94.5 L217.4 96.1 L216.9 97.6 L216.6 98.2 L215.1 100.5 L215.0 101.0 L215.0 101.1 L214.8 101.2 L212.6 102.2 L212.1 102.4 L210.3 103.8 L208.2 105.9 L207.5 106.9 L207.3 107.0 L207.1 107.2 L206.9 107.5 L206.4 108.4 L206.3 108.5 L206.3 109.1 L206.2 109.3 L206.1 109.4 L205.2 110.1 L205.3 110.4 L205.0 110.7 L204.3 111.0 L204.3 111.0 L204.2 111.3 L204.2 111.3 L204.1 111.4 L204.0 111.5 L204.0 111.6 L204.0 111.7 L204.1 111.9 L204.3 112.0 L204.4 112.1 L204.7 112.0 L204.9 111.7 L205.1 111.6 L205.1 112.0 L204.9 112.2 L204.6 112.4 L204.4 112.5 L204.2 112.3 L204.1 112.3 L204.0 112.5 L203.9 113.0 L203.8 113.2 L203.6 113.3 L203.3 113.5 L203.1 113.6 L202.9 113.9 L202.7 114.3 L202.6 114.8 L202.6 115.2 L202.2 116.0 L201.9 116.5 L202.0 116.8 L201.9 116.9 L201.8 117.4 L201.7 117.6 L201.6 117.6 L201.4 117.7 L201.2 117.8 L201.0 117.9 L200.9 118.3 L200.6 118.5 L200.1 118.5 L199.7 118.3 L199.4 118.2 L199.2 118.1 L198.7 118.1 L198.5 118.1 L198.1 118.3 L197.8 118.3 L197.9 118.2 L198.0 118.1 L197.9 118.1 L197.3 117.9 L197.0 117.9 L196.7 117.8 L196.6 117.4 L196.9 116.8 L196.9 117.0 L196.9 117.2 L197.0 117.3 L197.2 117.5 L197.3 117.1 L197.1 116.4 L197.2 116.1 L197.5 115.8 L197.6 115.3 L197.7 114.8 L197.5 114.5 L197.2 114.4 L196.7 114.4 L196.3 114.6 L195.7 114.9 L195.1 115.0 L194.9 115.2 L194.8 115.3 L194.5 116.1 L194.5 116.2 L194.6 116.4 L194.7 116.6 L194.5 116.7 L194.3 116.8 L193.9 116.8 L193.6 117.0 L193.3 117.2 L193.0 117.5 L192.8 117.7 L192.7 117.8 L192.7 118.1 L192.7 118.2 L193.0 118.4 L193.0 118.6 L192.9 119.0 L192.6 119.2 L191.9 119.4 L191.7 119.6 L191.4 119.8 L191.1 120.1 L191.0 120.4 L191.0 120.5 L190.8 120.7 L190.6 121.0 L190.6 121.4 L190.9 122.1 L191.0 122.5 L190.7 123.0 L190.5 123.9 L190.5 124.1 L190.5 124.6 L190.1 125.5 L189.8 126.4 L189.6 126.8 L188.6 128.2 L188.5 128.6 L188.5 129.1 L188.6 129.3 L188.8 129.4 L188.9 129.6 L189.0 129.8 L189.0 130.3 L188.9 130.5 L188.9 130.7 L188.7 131.1 L188.7 131.5 L188.8 131.8 L189.6 133.0 L189.7 133.2 L189.8 133.7 L189.8 134.1 L189.7 134.5 L189.5 135.3 L189.4 135.6 L189.4 136.0 L189.8 136.8 L189.9 137.0 L190.3 137.5 L190.4 137.7 L190.3 138.4 L190.3 138.7 L190.9 139.8 L190.9 140.0 L190.5 140.4 L190.3 140.6 L190.2 140.6 L189.5 140.7 L189.4 140.8 L189.3 140.9 L189.1 141.0 L188.9 141.1 L188.8 141.2 L185.5 141.0 L184.6 141.1 L180.7 141.7 L178.8 142.2 L176.1 143.3 L175.0 144.0 L174.3 144.3 L174.0 144.6 L173.8 144.9 L173.7 145.1 L172.0 146.7 L171.7 147.3 L171.6 148.1 L171.7 148.6 L171.7 148.8 L171.7 149.0 L171.4 149.3 L171.4 149.5 L171.2 149.9 L171.2 150.0 L171.2 150.7 L171.0 151.4 L170.2 153.2 L170.4 153.5 L170.4 153.9 L170.2 154.2 L169.9 154.4 L169.2 154.7 L168.8 154.9 L168.3 155.7 L168.2 155.8 L168.0 155.9 L167.9 156.0 L167.1 156.7 L167.1 156.9 L167.1 157.2 L166.9 157.3 L164.4 157.0 L164.1 157.0 L163.6 157.2 L163.3 157.3 L161.9 157.2 L161.6 157.2 L160.6 157.6 L160.0 157.8 L155.9 157.9 L154.3 158.3 L153.9 158.4 L153.8 158.4 L153.7 158.5 L153.6 158.5 L153.5 158.6 L153.2 158.6 L153.2 158.6 L152.7 158.7 L152.5 158.8 L152.3 159.1 L152.1 159.7 L151.9 160.0 L151.7 160.2 L151.6 160.4 L151.4 161.0 L151.3 161.1 L151.1 161.4 L149.6 162.5 L149.2 163.3 L149.1 163.6 L149.0 164.0 L149.1 164.5 L149.2 164.7 L149.8 165.0 L150.1 165.3 L150.2 165.6 L150.2 166.3 L150.1 166.6 L149.5 167.5 L149.4 167.6 L149.4 167.9 L149.4 168.1 L149.5 168.1 L149.6 168.2 L149.7 168.3 L149.6 168.5 L149.5 168.6 L149.1 168.8 L148.9 168.9 L148.8 169.0 L148.8 169.2 L148.7 169.5 L148.5 169.7 L148.6 169.8 L148.4 170.0 L147.9 170.1 L147.7 170.2 L147.6 170.4 L147.5 170.6 L147.4 170.8 L147.2 170.9 L146.6 171.6 L145.8 172.1 L145.7 172.1 L145.6 171.9 L145.4 172.0 L145.2 172.2 L145.0 172.3 L144.8 172.4 L144.5 172.4 L144.3 172.5 L144.1 172.4 L143.8 172.7 L143.5 172.8 L142.9 172.9 L142.3 173.1 L142.1 173.1 L141.9 172.9 L141.7 172.9 L141.4 172.9 L141.2 173.0 L140.7 172.6 L140.6 172.8 L140.4 172.4 L140.4 172.2 L140.2 172.0 L139.5 171.8 L139.1 171.7 L138.9 171.7 L138.7 171.7 L138.4 171.8 L138.2 171.8 L137.6 171.7 L137.4 171.7 L137.2 171.7 L136.9 171.8 L136.8 171.9 L136.0 171.7 L135.6 171.6 L135.3 171.9 L135.2 171.8 L135.0 171.8 L132.0 172.1 L130.8 172.1 L130.5 172.2 L129.8 172.5 L129.6 172.6 L129.5 172.8 L129.5 172.9 L129.6 173.0 L129.6 173.1 L129.5 173.3 L129.3 173.5 L129.3 173.6 L129.1 173.7 L128.7 173.8 L128.0 173.9 L127.0 174.0 L126.7 174.1 L126.4 174.2 L126.1 174.4 L125.7 174.5 L125.4 174.4 L125.1 174.6 L124.7 174.9 L124.4 175.3 L124.2 175.6 L124.1 175.7 L123.8 175.9 L123.2 176.2 L122.7 176.3 L120.2 176.3 L118.8 176.5 L116.2 177.3 L114.8 178.0 L113.8 175.8 L112.8 173.7 L111.8 171.5 L110.8 169.3 L110.2 168.0 L110.0 167.8 L109.8 167.7 L109.2 167.6 L108.9 167.5 L108.9 167.5 L109.0 167.5 L109.1 167.5 L108.6 166.3 L107.9 164.8 L107.2 163.2 L106.5 161.7 L105.8 160.1 L105.1 158.6 L104.4 157.1 L103.8 155.5 L103.1 154.0 L102.4 152.4 L101.7 150.9 L101.0 149.3 L100.3 147.8 L99.7 146.2 L99.0 144.7 L98.3 143.1 L97.6 141.6 L97.1 140.6 L97.0 140.3 L98.8 139.7 L101.6 138.8 L104.3 137.9 L107.0 137.0 L109.8 136.1 L112.5 135.2 L115.3 134.3 L118.0 133.3 L120.7 132.4 L123.5 131.5 L126.2 130.6 L128.9 129.7 L131.7 128.8 L134.4 127.9 L137.2 126.9 L139.9 126.0 L142.6 125.1 L145.1 124.3 L145.6 122.8 L145.7 122.5 L146.0 121.6 L146.4 120.2 L147.0 118.4 L147.7 116.2 L148.5 113.9 L149.4 111.3 L150.3 108.7 L150.9 106.7 L151.1 106.1 L152.0 103.5 L152.8 101.1 L153.5 99.0 L154.1 97.2 L154.5 95.8 L154.8 94.9 L154.9 94.6 L155.0 94.4 L155.6 92.6 L155.6 92.2 L155.4 91.8 L154.6 90.5 L153.3 88.5 L152.0 86.5 L150.7 84.5 L149.4 82.5 L148.4 81.0 L148.6 78.6 L148.5 76.3 L148.5 76.3 L148.5 75.8 L149.0 74.3 L150.5 71.8 L150.9 70.8 L151.2 69.2 L151.4 68.7 L151.7 68.3 L151.7 68.3 L152.3 67.7 L152.5 67.4 L153.1 65.4 L153.2 65.1 L154.0 64.1 L154.0 63.9 L154.0 62.7 L153.9 62.2 L153.6 61.9 L153.1 61.5 L152.8 61.3 L152.7 61.0 L152.7 60.8 L153.4 60.7 L154.1 60.4 L154.4 60.3 L154.9 60.0 L155.3 59.9 L155.8 59.8 L156.3 59.8 L156.8 59.9 L157.1 59.9 L157.3 59.8 L157.6 59.8 L158.0 60.0 L158.3 60.1 L160.2 59.4 L161.2 59.2 L161.4 58.9 L160.8 57.9 L160.6 57.2 L160.3 56.7 L159.9 56.5 L159.0 56.8 L158.7 56.8 L157.7 56.6 L157.5 56.5 L157.5 56.3 L157.6 56.0 L158.2 55.0 L158.3 54.7 L158.4 54.0 L158.4 53.8 L158.2 53.7 L157.9 53.5 L157.8 53.4 L157.8 53.1 L157.8 52.3 L157.6 51.6 L157.6 51.3 L157.7 51.0 L158.0 50.8 L158.1 50.3 L158.5 49.9 L158.5 49.6 L158.2 49.1 L158.1 48.9 L158.1 48.6 L158.2 48.0 L158.2 47.7 L158.0 46.5 L158.2 46.0 L158.7 45.5 L159.1 45.1 L159.2 45.0 L159.8 44.7 L160.4 44.5 L161.0 44.6 L161.1 44.6 L161.5 44.9 L161.7 45.4 L161.8 46.1 L161.9 46.4 L161.5 46.2 L161.3 46.1 L161.1 46.0 L160.8 46.1 L160.7 46.3 L160.9 46.5 L161.4 47.0 L161.9 48.1 L162.4 48.5 L162.6 48.5 L162.7 48.5 L163.0 48.5 L163.3 48.4 L163.5 48.3 L163.6 48.0 L163.9 47.6 L164.2 47.0 L164.2 47.0 L164.4 46.9 L165.0 46.8 L165.3 46.7 L165.8 46.2 L165.9 46.2 L166.4 45.9 L166.4 45.7 L166.4 45.6 L166.5 45.3 L166.5 44.8 L166.6 44.7 L166.7 44.6 L167.6 44.5 Z M207.9 114.2 L208.0 114.6 L208.1 114.8 L208.6 115.7 L208.7 115.9 L208.6 116.1 L208.5 116.2 L207.9 116.7 L207.2 117.0 L207.0 117.2 L206.6 117.8 L206.4 118.2 L206.2 118.9 L206.0 119.2 L206.0 119.2 L206.0 119.4 L206.0 119.4 L206.1 119.5 L206.1 119.7 L206.0 119.8 L205.5 120.3 L205.2 120.6 L205.0 120.8 L204.9 120.8 L204.7 120.9 L204.5 120.9 L204.4 121.0 L204.4 121.2 L204.2 121.4 L204.1 121.5 L203.9 121.5 L203.9 121.5 L203.8 121.4 L203.7 121.2 L203.6 120.7 L203.6 120.2 L203.7 120.0 L203.7 120.0 L203.6 119.8 L203.7 118.5 L203.8 118.3 L204.0 118.1 L204.1 118.0 L204.4 117.8 L204.5 117.8 L204.5 117.8 L204.5 117.7 L204.6 117.4 L204.7 117.3 L204.9 117.2 L205.2 117.2 L205.5 117.2 L205.7 117.0 L205.9 116.8 L205.9 116.8 L206.0 116.6 L206.0 116.5 L206.1 115.9 L206.2 115.6 L206.3 115.4 L207.1 114.4 L207.4 113.8 L207.6 113.3 L207.7 113.1 L207.9 113.1 L208.1 113.3 L208.1 113.3 L208.1 113.6 L208.0 113.9 L207.9 114.2 Z" fill="#172033" fill-rule="evenodd"/></svg>
