<svg xmlns="http://www.w3.org/2000/svg" viewBox="0 0 320 200" role="img"><path d="M206.9 170.9 L205.8 171.9 L205.4 172.2 L205.0 172.3 L204.6 172.2 L204.2 172.2 L204.0 172.5 L203.9 172.9 L204.0 173.2 L204.2 173.5 L204.2 173.8 L204.2 174.0 L204.3 174.2 L204.5 174.5 L204.6 174.6 L204.6 174.8 L204.5 175.0 L204.0 176.1 L203.8 176.4 L203.7 176.5 L203.4 176.8 L202.9 177.3 L202.8 177.4 L202.6 177.4 L202.4 177.4 L202.2 177.5 L201.6 177.8 L201.3 177.9 L200.9 177.9 L200.0 177.9 L199.5 177.9 L199.3 178.0 L199.1 177.8 L198.7 177.6 L198.2 177.2 L197.9 177.0 L197.6 176.9 L197.3 176.7 L196.9 176.5 L196.4 176.1 L196.4 176.1 L196.4 176.0 L196.3 175.9 L196.3 175.9 L196.2 175.9 L196.2 175.9 L195.7 175.4 L195.5 175.3 L195.2 175.3 L195.1 175.2 L195.0 174.8 L194.9 174.7 L194.8 174.6 L194.6 174.5 L194.3 174.3 L194.1 174.2 L193.6 174.0 L193.4 174.0 L193.0 173.6 L192.8 173.5 L192.7 173.4 L192.4 173.1 L192.3 173.0 L191.9 172.8 L191.6 172.6 L191.4 172.5 L191.2 172.5 L190.9 172.5 L190.9 172.5 L190.9 172.5 L190.9 172.4 L191.1 172.2 L191.1 172.0 L191.1 171.8 L191.0 171.7 L191.0 170.8 L190.9 170.6 L190.8 170.3 L190.8 170.0 L190.7 170.0 L190.7 170.0 L190.6 169.9 L190.4 169.6 L190.1 169.4 L190.1 169.4 L189.9 169.1 L189.8 169.0 L189.7 169.0 L189.3 168.9 L189.1 168.9 L189.0 168.8 L188.9 168.7 L188.7 168.6 L188.7 168.6 L187.3 168.2 L187.0 168.1 L186.7 167.9 L186.3 167.4 L186.1 167.2 L185.6 167.0 L185.4 166.9 L185.3 166.8 L184.7 166.8 L184.6 166.8 L184.6 166.7 L184.6 166.5 L184.6 166.4 L184.5 166.3 L184.1 166.1 L184.1 166.0 L184.0 165.9 L183.8 165.8 L183.4 165.7 L183.2 165.6 L183.1 165.4 L183.1 165.3 L183.0 165.1 L182.6 164.6 L182.4 164.4 L182.3 164.4 L182.2 164.4 L182.1 164.4 L182.1 164.3 L182.0 164.2 L181.9 164.2 L181.8 164.1 L181.8 164.1 L181.6 164.0 L181.5 164.0 L181.1 163.9 L180.6 163.7 L179.8 163.7 L179.0 163.4 L178.1 162.8 L176.6 162.3 L176.3 162.0 L176.0 161.8 L175.6 161.6 L175.5 161.6 L175.2 161.6 L175.0 161.5 L174.9 161.4 L174.7 161.4 L174.6 161.5 L174.5 161.3 L174.4 161.0 L174.4 160.9 L174.3 160.9 L174.0 160.8 L173.6 160.6 L173.0 160.5 L172.0 160.1 L171.4 160.0 L171.2 160.2 L171.2 160.0 L171.0 159.8 L170.9 159.8 L170.9 159.7 L170.6 159.6 L170.0 159.3 L169.7 159.2 L169.2 158.8 L168.6 158.4 L168.3 158.2 L168.3 158.1 L168.4 158.0 L168.3 157.9 L168.2 157.7 L168.0 157.6 L167.2 157.2 L167.1 157.2 L166.7 157.2 L166.6 157.1 L166.5 156.9 L166.5 156.9 L166.3 156.8 L166.1 156.7 L165.8 156.8 L165.5 156.7 L165.2 156.6 L164.8 156.4 L164.8 156.3 L164.8 156.1 L164.8 156.1 L164.7 156.0 L164.7 155.9 L164.7 155.8 L164.5 155.7 L164.0 155.5 L162.8 155.0 L162.2 154.7 L161.4 154.4 L161.2 154.1 L160.3 153.7 L160.0 153.5 L159.9 153.5 L159.8 153.5 L159.7 153.5 L159.7 153.5 L159.5 153.4 L159.3 153.1 L159.2 153.0 L159.0 153.0 L158.9 153.0 L158.7 152.9 L158.7 152.8 L158.6 152.7 L158.5 152.7 L158.5 152.6 L158.5 152.6 L158.6 152.6 L158.8 152.5 L158.8 152.4 L158.7 152.2 L158.4 152.1 L158.1 151.9 L157.9 151.7 L158.0 151.7 L158.1 151.7 L158.1 151.6 L158.1 151.5 L158.1 151.4 L158.0 151.3 L157.6 150.9 L157.5 150.9 L157.0 150.8 L156.9 150.7 L156.8 150.6 L156.7 150.4 L156.3 149.8 L156.3 149.6 L156.2 149.5 L155.9 149.3 L155.8 149.3 L155.8 149.2 L155.8 148.9 L155.8 148.9 L155.4 148.6 L154.7 148.2 L154.5 148.1 L154.3 148.0 L154.1 147.9 L153.7 147.6 L153.3 147.4 L153.3 147.4 L153.2 147.3 L153.1 147.3 L153.0 147.3 L152.9 147.2 L152.9 147.1 L152.8 147.1 L152.8 147.0 L152.7 146.9 L152.6 146.9 L152.3 146.7 L152.2 146.6 L152.2 146.4 L152.2 146.2 L152.1 146.0 L152.0 145.8 L151.9 145.6 L151.8 145.5 L151.8 145.4 L151.8 145.4 L151.9 145.2 L151.8 145.2 L151.7 145.0 L151.5 144.9 L151.3 144.7 L151.2 144.6 L151.0 144.4 L150.9 144.3 L150.8 144.2 L150.6 144.2 L150.5 144.2 L150.4 144.1 L150.3 143.8 L150.6 143.8 L150.6 143.7 L150.7 143.6 L150.6 143.5 L150.5 143.4 L150.5 143.3 L150.4 143.1 L150.3 142.9 L150.2 142.9 L150.0 142.8 L150.0 142.7 L149.9 142.6 L149.8 142.5 L149.7 142.4 L149.4 142.3 L149.4 142.5 L149.3 142.8 L149.1 142.5 L149.2 142.2 L149.2 141.9 L149.1 141.7 L149.2 141.7 L149.2 141.5 L149.3 141.5 L149.2 141.4 L149.3 141.3 L149.3 141.2 L149.2 141.1 L149.1 141.0 L149.2 140.9 L149.3 140.7 L149.2 140.6 L149.1 140.5 L149.0 140.4 L149.0 140.3 L149.1 140.3 L149.1 140.2 L149.0 140.1 L148.9 140.1 L148.9 140.2 L148.9 140.3 L148.8 140.4 L148.7 140.3 L148.6 140.4 L148.4 140.3 L148.2 140.3 L148.2 140.0 L148.2 139.9 L148.4 139.6 L148.4 139.5 L148.4 139.4 L148.5 139.3 L148.6 139.4 L148.8 139.3 L148.9 139.3 L149.1 139.3 L149.1 139.4 L149.0 139.5 L149.0 139.6 L149.1 139.7 L149.2 139.7 L149.3 139.9 L149.4 139.8 L149.4 139.6 L149.5 139.4 L149.6 139.0 L149.7 138.8 L149.7 138.6 L149.7 138.4 L149.8 138.1 L149.9 137.8 L150.0 137.1 L150.0 136.5 L149.9 136.2 L149.7 135.6 L149.2 135.0 L149.0 134.7 L148.4 134.0 L147.7 133.1 L147.5 132.8 L147.4 132.6 L147.3 132.4 L147.2 132.1 L147.2 131.8 L147.2 131.4 L147.0 131.2 L147.0 131.1 L146.4 130.6 L146.2 130.4 L145.8 129.7 L145.8 129.6 L145.8 129.4 L145.8 129.3 L145.7 129.2 L145.6 129.1 L145.3 128.7 L144.9 128.5 L144.8 128.3 L144.7 128.1 L144.8 127.9 L144.9 127.6 L144.8 127.2 L144.5 127.0 L144.3 126.6 L143.5 126.1 L143.0 125.9 L142.9 125.9 L142.9 125.9 L142.7 125.7 L142.7 125.7 L142.7 125.5 L142.7 125.5 L142.7 125.4 L142.7 125.3 L142.6 125.0 L142.3 124.8 L142.1 124.7 L141.9 124.6 L141.6 124.6 L141.6 124.5 L141.7 124.3 L141.8 124.2 L141.9 124.0 L141.8 123.4 L141.7 123.2 L141.7 123.0 L141.6 122.9 L141.5 122.7 L141.5 122.5 L141.5 122.3 L141.4 122.1 L141.4 122.0 L141.5 122.0 L141.6 121.9 L141.6 121.8 L141.4 121.4 L141.3 121.2 L141.3 121.0 L141.1 120.8 L141.0 120.8 L140.9 120.7 L140.8 120.6 L140.7 120.4 L140.6 120.4 L140.7 120.3 L140.7 120.2 L140.6 120.2 L140.5 120.0 L140.4 119.8 L140.3 119.7 L140.2 119.6 L140.2 119.6 L140.1 119.6 L140.0 119.4 L139.8 119.3 L139.5 119.1 L139.2 118.9 L137.9 118.2 L137.6 118.1 L137.5 118.0 L137.6 117.9 L137.5 117.7 L137.5 117.5 L137.6 117.4 L137.5 117.4 L137.6 117.3 L137.7 117.3 L137.8 117.3 L137.9 117.3 L138.0 117.2 L138.0 117.1 L138.0 116.9 L137.9 116.7 L137.8 116.6 L137.8 116.5 L137.7 116.3 L137.7 116.2 L137.6 116.0 L137.6 116.0 L137.6 115.8 L137.4 115.6 L137.5 115.5 L137.5 115.4 L137.5 115.3 L137.4 115.1 L137.4 115.0 L137.3 114.9 L137.2 114.7 L137.1 114.5 L137.0 114.4 L137.0 114.2 L136.8 114.0 L136.6 113.9 L136.6 113.8 L136.7 113.7 L136.5 113.5 L136.5 113.4 L136.3 113.2 L136.2 113.1 L136.1 113.0 L136.1 112.9 L136.0 112.9 L135.8 112.7 L135.3 111.8 L135.3 111.7 L135.2 111.5 L135.0 111.4 L134.8 111.2 L134.8 111.0 L134.7 110.8 L134.6 110.6 L134.4 110.5 L134.4 110.4 L134.5 110.3 L134.5 110.2 L134.4 110.1 L134.1 109.9 L134.0 109.8 L134.0 109.5 L133.9 109.4 L133.8 109.3 L133.8 109.2 L133.7 109.0 L133.8 108.9 L133.7 108.8 L133.6 108.7 L133.5 108.5 L133.1 108.2 L133.0 108.0 L133.0 107.9 L133.0 107.8 L133.0 107.8 L133.1 107.8 L133.1 107.6 L133.0 107.5 L133.0 107.5 L133.0 107.4 L133.0 107.3 L132.9 107.1 L132.8 106.9 L132.8 106.8 L132.7 106.7 L132.7 106.6 L132.6 106.6 L132.6 106.6 L132.5 106.6 L132.5 106.5 L132.5 106.5 L132.6 106.4 L132.6 106.3 L132.6 106.2 L132.6 106.1 L132.5 106.0 L132.5 105.9 L132.5 105.8 L132.5 105.6 L132.6 105.5 L132.6 105.2 L132.2 104.9 L132.0 104.6 L131.9 104.4 L131.8 104.2 L131.7 104.1 L131.6 104.0 L131.5 103.8 L131.4 103.7 L131.3 103.4 L131.4 103.2 L131.2 103.1 L131.2 103.0 L131.2 102.8 L131.1 102.7 L131.1 102.5 L131.1 102.4 L131.3 102.3 L131.2 102.1 L131.1 102.1 L130.9 102.0 L130.9 101.8 L130.9 101.6 L130.9 101.6 L131.0 101.5 L130.9 101.5 L130.8 101.4 L130.8 101.3 L130.7 101.2 L130.6 101.2 L130.5 101.2 L130.4 101.3 L130.2 101.0 L130.2 101.0 L130.2 100.9 L130.1 100.8 L130.0 100.7 L130.1 100.7 L130.2 100.6 L130.3 100.6 L130.4 100.4 L130.4 100.3 L130.3 100.1 L130.1 100.0 L130.0 99.9 L129.8 100.0 L129.8 100.0 L129.7 100.1 L129.8 100.1 L129.8 100.2 L129.8 100.4 L129.8 100.5 L129.7 100.5 L129.6 100.3 L129.4 100.1 L129.3 99.9 L129.3 99.9 L129.3 99.8 L129.3 99.8 L129.5 99.8 L129.7 99.9 L129.7 99.8 L129.8 99.7 L129.8 99.5 L129.7 99.3 L129.6 99.2 L129.5 99.1 L129.4 99.1 L129.2 99.1 L129.1 99.1 L129.1 98.9 L129.1 98.8 L129.1 98.6 L129.2 98.6 L129.1 98.5 L128.9 98.4 L128.9 98.3 L129.0 98.3 L129.0 98.3 L129.0 98.1 L129.0 97.9 L128.9 97.7 L128.8 97.6 L128.7 97.4 L128.6 97.3 L128.4 97.0 L128.0 96.5 L128.0 96.4 L128.0 96.4 L128.1 96.3 L128.2 96.2 L128.2 96.0 L128.2 95.8 L128.2 95.7 L128.1 95.4 L128.1 95.1 L127.8 94.7 L127.5 94.4 L127.2 94.1 L127.0 94.0 L126.7 93.9 L126.6 93.8 L126.5 93.6 L126.6 93.5 L126.7 93.5 L126.7 93.6 L126.8 93.5 L126.8 93.3 L126.8 93.1 L126.3 92.4 L126.3 92.2 L126.1 91.9 L126.1 91.8 L125.9 91.5 L125.0 90.7 L124.9 90.5 L124.4 90.1 L123.5 89.4 L123.0 88.9 L122.7 88.5 L122.6 88.1 L122.2 87.7 L122.1 87.6 L122.0 87.5 L122.1 87.4 L122.2 87.4 L122.3 87.3 L122.3 87.1 L122.2 86.9 L121.9 86.5 L121.3 85.6 L121.0 85.3 L121.0 85.1 L121.0 85.0 L121.0 84.9 L121.1 84.8 L121.1 84.7 L121.0 84.4 L120.9 84.2 L120.9 84.1 L120.8 83.7 L120.5 83.4 L120.2 83.0 L120.1 82.9 L120.1 82.7 L120.1 82.5 L120.0 82.3 L119.1 81.4 L118.6 81.0 L118.5 80.8 L118.1 80.4 L118.0 80.1 L117.9 79.9 L117.8 79.6 L117.6 79.3 L117.5 79.2 L116.5 78.4 L116.0 78.1 L115.0 77.5 L113.6 76.8 L111.3 75.7 L110.8 75.4 L110.2 74.9 L109.6 74.5 L108.9 74.1 L108.1 73.5 L107.9 73.2 L107.7 72.7 L107.7 72.3 L107.7 72.0 L107.7 71.9 L107.9 71.7 L107.9 71.6 L108.0 71.5 L108.1 71.5 L108.2 71.3 L108.2 71.2 L108.3 71.1 L108.5 71.1 L108.6 71.3 L108.9 71.4 L109.2 71.6 L109.5 71.6 L109.8 71.3 L110.1 70.7 L110.2 69.9 L110.0 69.2 L109.6 68.3 L109.3 68.0 L108.5 67.3 L108.4 67.1 L108.2 67.0 L108.1 67.1 L107.8 66.9 L107.7 66.6 L107.5 66.4 L107.3 66.1 L107.3 66.0 L107.4 66.0 L107.5 65.9 L107.6 65.8 L107.5 65.7 L107.5 65.6 L107.5 65.5 L107.6 65.4 L107.5 65.3 L107.5 65.1 L107.6 65.0 L107.7 65.0 L107.9 64.9 L108.0 65.1 L108.3 65.0 L108.4 64.8 L108.4 64.5 L108.2 64.1 L108.0 63.8 L107.7 63.6 L107.5 63.3 L107.4 63.1 L107.1 62.7 L106.4 62.0 L106.1 61.6 L106.1 61.5 L106.2 61.4 L106.4 61.3 L106.3 61.2 L106.3 61.0 L106.3 60.5 L106.3 60.4 L106.3 60.2 L106.2 60.1 L106.2 59.9 L106.2 59.8 L106.3 59.7 L106.4 59.6 L106.4 59.6 L106.5 59.5 L106.6 59.2 L106.6 59.0 L106.5 58.5 L106.5 58.4 L106.6 58.2 L106.7 58.0 L106.8 57.9 L107.6 57.4 L107.8 57.2 L107.9 56.9 L108.0 56.8 L108.2 56.7 L108.3 56.7 L108.4 56.6 L108.6 56.3 L109.0 55.6 L109.3 55.3 L109.6 55.1 L110.0 54.9 L110.1 54.7 L110.1 54.6 L110.2 54.4 L110.2 54.2 L110.4 53.9 L110.6 53.6 L110.9 53.4 L112.3 52.6 L112.5 52.3 L112.9 51.8 L112.9 51.6 L113.0 51.6 L113.1 51.6 L113.2 51.5 L113.3 51.5 L113.9 51.5 L114.0 51.5 L114.2 51.4 L114.4 51.3 L114.4 51.1 L114.4 51.0 L114.5 50.8 L114.6 50.7 L114.6 50.7 L114.6 50.7 L114.8 50.8 L115.1 50.9 L115.2 50.9 L115.2 51.1 L115.2 51.3 L115.2 51.5 L115.2 51.5 L115.4 51.6 L115.4 51.6 L115.4 51.7 L115.4 51.8 L115.4 51.9 L115.4 52.2 L115.4 52.2 L115.4 52.3 L115.5 52.3 L115.6 52.4 L115.6 52.4 L115.6 52.5 L115.6 52.7 L115.7 52.8 L115.6 52.9 L115.6 53.0 L115.6 53.1 L115.6 53.2 L115.6 53.3 L115.6 53.4 L115.6 53.5 L115.6 53.6 L115.6 53.6 L115.6 53.7 L115.6 53.9 L115.8 54.1 L115.8 54.3 L115.9 54.4 L115.9 54.5 L115.9 54.6 L116.0 54.7 L116.0 54.8 L116.1 54.8 L116.1 54.8 L116.1 54.9 L115.9 55.0 L115.3 55.4 L115.2 55.5 L115.0 55.7 L114.9 55.9 L114.7 56.0 L114.6 55.9 L114.2 55.7 L114.0 55.7 L113.8 55.7 L113.7 55.7 L113.5 55.7 L113.4 55.8 L113.3 56.0 L113.2 56.2 L113.1 56.4 L113.1 56.4 L113.1 56.5 L113.2 56.7 L113.3 56.8 L113.3 57.0 L113.3 57.0 L113.3 57.2 L113.3 57.3 L113.5 57.7 L113.8 57.7 L114.2 57.6 L114.5 57.5 L114.5 57.7 L113.3 59.2 L113.3 59.4 L113.4 59.5 L113.5 59.6 L113.9 59.9 L114.0 59.9 L114.2 59.9 L114.2 59.9 L114.3 59.8 L114.7 59.6 L115.3 59.1 L115.4 59.0 L115.5 58.9 L115.6 58.6 L115.7 58.4 L115.7 58.4 L115.8 58.3 L115.9 58.3 L116.3 58.3 L116.3 58.2 L116.3 58.3 L116.5 58.4 L116.7 58.4 L116.8 58.5 L117.0 58.6 L117.2 58.9 L117.4 59.0 L117.6 59.1 L117.9 59.2 L118.1 59.2 L118.3 59.2 L118.5 59.4 L118.7 59.7 L118.9 59.9 L119.2 60.0 L119.8 59.8 L120.1 59.6 L120.4 59.6 L120.6 59.7 L121.1 60.1 L121.1 60.1 L121.3 60.2 L121.3 60.3 L121.5 60.3 L121.7 60.4 L121.7 60.4 L121.7 60.6 L121.5 60.9 L121.5 61.1 L121.8 61.5 L121.9 62.0 L122.1 62.4 L122.1 62.4 L122.1 62.6 L122.2 62.7 L122.3 62.9 L122.5 62.9 L122.6 63.1 L122.7 63.1 L122.7 63.3 L122.8 63.4 L122.9 63.4 L123.0 63.5 L123.1 63.5 L123.2 63.7 L123.3 63.9 L123.4 64.0 L123.6 64.1 L124.0 64.1 L124.2 64.1 L124.4 64.1 L124.7 64.2 L124.8 64.2 L124.9 64.2 L125.0 64.2 L125.1 64.2 L125.2 64.2 L125.3 64.3 L125.5 64.5 L125.7 64.2 L125.9 64.0 L126.0 63.8 L126.1 63.4 L126.2 63.3 L126.3 63.2 L126.6 63.2 L126.8 63.2 L126.9 63.0 L126.8 62.8 L126.6 62.4 L126.6 62.2 L126.7 62.0 L126.9 61.7 L127.3 61.4 L127.6 61.2 L128.4 60.9 L128.5 60.8 L128.7 60.7 L128.8 60.5 L128.8 60.4 L128.8 60.2 L128.8 60.0 L128.9 59.8 L129.1 59.7 L129.1 59.5 L128.9 59.4 L128.8 59.3 L128.7 58.9 L128.7 58.6 L128.8 58.4 L128.9 58.3 L129.0 58.1 L129.1 57.8 L129.6 56.7 L129.7 56.3 L129.7 55.8 L129.7 55.7 L129.8 55.6 L129.9 55.5 L130.0 55.5 L130.1 55.5 L130.3 55.4 L130.3 55.4 L130.3 55.3 L130.4 54.7 L130.4 54.6 L130.5 54.4 L130.6 54.3 L130.7 54.3 L130.7 54.3 L131.0 54.1 L131.0 53.9 L130.9 53.3 L130.9 53.2 L130.9 53.2 L130.9 53.2 L131.1 53.2 L131.1 53.1 L131.1 53.0 L131.1 52.9 L131.1 52.5 L131.1 52.4 L131.2 52.2 L131.3 51.9 L131.3 51.8 L131.4 51.5 L131.5 51.1 L131.5 51.0 L131.5 50.8 L131.4 50.8 L131.5 50.6 L131.7 50.6 L131.9 50.6 L132.2 50.7 L132.3 50.8 L132.4 50.9 L132.5 51.5 L132.6 51.6 L132.7 51.6 L132.9 51.5 L133.0 51.4 L133.1 51.4 L133.2 51.2 L133.2 51.0 L133.1 50.8 L133.0 50.8 L132.9 50.6 L132.9 50.4 L133.0 50.3 L133.3 50.1 L133.4 49.9 L133.6 49.4 L133.8 49.3 L134.2 48.9 L135.0 47.8 L135.7 47.2 L135.8 47.1 L136.1 47.0 L136.4 47.0 L137.5 46.6 L138.5 46.2 L139.6 45.8 L140.7 45.5 L141.7 45.1 L142.8 44.7 L143.9 44.3 L145.0 44.0 L145.7 43.7 L145.9 43.6 L146.2 43.4 L146.7 43.0 L147.2 42.6 L147.7 42.2 L148.3 41.8 L148.8 41.4 L149.3 41.1 L149.8 40.7 L150.3 40.3 L150.8 39.9 L151.2 39.4 L151.6 38.9 L152.1 38.4 L152.5 37.9 L152.9 37.4 L153.3 36.9 L153.8 36.4 L154.2 35.9 L154.5 35.5 L155.0 35.1 L155.1 34.9 L155.2 34.9 L155.3 34.6 L155.4 34.1 L155.7 33.1 L156.0 32.1 L156.2 31.0 L156.5 30.0 L156.6 29.6 L156.6 29.5 L156.9 29.8 L157.0 29.9 L157.0 30.0 L157.1 30.1 L157.3 30.1 L157.7 30.0 L158.1 30.0 L158.2 30.0 L158.2 30.0 L158.1 29.9 L158.0 29.8 L157.9 29.7 L157.9 29.6 L157.9 29.5 L157.9 29.4 L157.6 28.1 L157.6 28.0 L157.6 27.9 L157.6 27.8 L157.6 27.7 L157.6 27.5 L157.6 27.4 L157.6 27.3 L157.7 27.3 L157.8 27.2 L157.9 27.1 L157.9 27.1 L157.9 27.0 L157.9 26.9 L157.9 26.9 L157.9 26.5 L157.9 26.4 L157.8 26.2 L157.7 26.2 L157.7 26.3 L157.6 26.3 L157.6 26.2 L157.5 26.1 L157.5 26.1 L157.2 25.8 L157.1 25.8 L157.1 25.7 L157.0 25.7 L156.9 25.7 L156.8 25.7 L156.6 25.5 L156.4 25.2 L156.2 24.8 L156.0 23.9 L155.9 23.7 L155.7 23.7 L155.5 23.6 L155.4 23.5 L155.3 23.4 L155.2 23.3 L155.1 23.3 L154.9 23.3 L154.8 23.3 L154.7 23.2 L154.7 23.0 L154.6 22.8 L154.7 22.7 L154.8 22.7 L154.9 22.7 L155.1 22.8 L155.2 22.8 L155.4 22.8 L155.5 22.8 L155.6 22.8 L156.2 23.1 L156.4 23.1 L156.7 23.0 L156.7 23.0 L157.0 23.0 L157.2 23.0 L157.3 23.0 L157.4 22.9 L157.6 22.8 L157.7 22.7 L157.8 22.6 L157.9 22.5 L158.0 22.4 L158.1 22.3 L158.1 22.1 L158.2 22.0 L158.3 22.0 L158.5 22.0 L158.9 22.1 L159.1 22.2 L159.2 22.3 L159.6 22.8 L159.7 22.9 L159.7 22.9 L159.9 22.9 L160.0 22.9 L160.0 23.0 L160.4 23.4 L160.5 23.5 L160.7 23.5 L161.0 23.6 L161.1 23.7 L161.2 23.6 L161.3 23.6 L161.5 23.2 L161.6 23.2 L161.8 23.4 L161.9 23.5 L162.2 24.1 L161.9 24.3 L161.9 24.4 L162.0 24.5 L162.1 24.5 L162.3 24.5 L162.5 24.5 L162.5 24.6 L162.6 24.6 L162.6 24.6 L162.7 24.7 L162.7 24.7 L162.8 24.8 L162.9 24.8 L162.9 24.7 L163.0 24.7 L163.0 24.7 L163.1 24.6 L163.2 24.7 L163.5 25.1 L163.8 25.5 L164.0 25.7 L164.6 26.0 L164.7 26.1 L164.8 26.2 L164.8 26.3 L164.9 26.3 L165.0 26.3 L165.1 26.4 L165.1 26.5 L165.1 26.6 L165.1 26.6 L165.1 26.6 L165.5 27.5 L165.5 27.6 L165.4 27.7 L165.3 27.7 L165.3 27.9 L165.4 28.0 L165.7 28.3 L165.7 28.4 L165.8 28.4 L166.0 28.4 L166.0 28.4 L166.0 28.6 L166.0 28.7 L166.1 28.8 L166.1 28.9 L166.1 29.0 L166.0 29.0 L165.8 28.9 L165.7 29.0 L165.7 29.1 L165.7 29.1 L165.9 29.3 L166.0 29.4 L166.1 29.8 L166.3 30.0 L166.6 30.2 L167.1 30.3 L167.6 30.5 L167.8 30.4 L168.0 30.2 L168.1 30.3 L168.3 30.9 L168.3 31.0 L168.4 31.0 L168.5 31.1 L168.5 31.0 L168.6 31.0 L168.7 31.0 L168.7 30.9 L168.7 30.9 L168.8 30.8 L168.8 30.9 L168.8 31.0 L168.8 31.1 L168.8 31.2 L168.9 31.3 L169.2 31.2 L169.3 31.2 L169.3 31.3 L169.5 31.7 L169.6 31.9 L169.7 32.0 L169.8 32.1 L170.1 32.1 L170.2 32.2 L170.3 32.2 L170.4 32.1 L170.6 31.9 L170.7 31.8 L170.8 32.0 L170.9 32.1 L171.1 32.2 L171.3 32.2 L171.3 32.3 L171.5 32.4 L171.7 32.4 L171.8 32.5 L171.8 32.6 L171.8 32.7 L171.9 32.8 L171.9 32.9 L171.9 32.9 L172.0 32.9 L172.0 32.9 L172.1 32.9 L172.1 33.0 L172.1 33.2 L172.1 33.3 L172.2 33.3 L172.2 33.4 L172.3 33.4 L172.3 33.5 L172.2 33.7 L172.2 33.8 L172.6 34.0 L172.7 34.1 L172.8 34.3 L172.9 34.3 L172.9 34.4 L172.9 34.5 L172.9 34.6 L173.0 35.0 L173.0 35.2 L172.8 35.3 L172.7 35.4 L172.6 35.7 L172.6 36.0 L172.8 36.2 L173.3 36.6 L173.3 36.6 L173.4 36.7 L173.4 36.7 L173.4 36.7 L173.5 36.7 L173.6 36.7 L173.7 36.7 L173.8 36.8 L173.9 36.8 L174.1 37.0 L174.2 37.0 L174.3 36.9 L174.4 36.8 L174.6 36.8 L174.9 36.9 L174.9 36.8 L174.9 36.6 L175.0 36.6 L175.3 36.9 L175.3 36.9 L175.4 36.9 L175.5 37.0 L175.5 37.1 L175.5 37.4 L175.5 37.5 L175.7 37.8 L175.8 37.9 L175.8 38.0 L175.7 38.2 L175.7 38.3 L175.7 38.4 L175.8 38.6 L175.9 38.8 L176.0 38.9 L176.0 39.1 L176.1 39.3 L176.2 39.4 L175.9 39.8 L175.9 40.0 L175.5 40.3 L175.5 40.4 L175.4 40.4 L175.4 40.5 L175.4 40.6 L175.5 40.7 L175.5 40.8 L175.6 40.8 L175.7 40.9 L175.7 41.0 L175.8 41.2 L175.8 41.3 L175.9 41.4 L176.3 41.5 L176.4 41.6 L176.4 41.7 L176.5 41.6 L176.6 41.4 L176.7 41.3 L177.2 41.7 L177.3 41.7 L177.4 41.8 L177.5 42.2 L177.6 42.4 L177.7 42.4 L177.8 42.4 L178.1 42.3 L178.2 42.3 L178.3 42.2 L178.6 42.1 L178.8 42.0 L178.9 42.1 L179.2 42.2 L179.2 42.1 L179.2 42.0 L179.3 42.0 L179.4 41.9 L179.4 42.0 L179.5 42.1 L179.5 42.1 L179.5 42.4 L179.6 42.4 L179.7 42.3 L179.8 42.2 L180.1 41.8 L180.2 41.6 L180.3 41.7 L180.5 41.7 L180.9 42.1 L181.0 42.1 L181.9 42.2 L182.0 42.3 L182.0 42.4 L182.1 42.5 L182.3 42.6 L182.4 42.6 L182.6 42.6 L183.0 42.5 L183.2 42.5 L183.2 42.5 L183.3 42.4 L183.3 42.2 L183.3 42.2 L183.5 42.2 L183.6 42.2 L184.2 42.3 L184.3 42.2 L184.7 41.8 L184.9 41.6 L185.1 41.5 L185.4 41.5 L185.9 41.6 L186.1 41.6 L186.2 41.5 L186.2 41.3 L186.3 41.2 L186.7 40.9 L187.0 40.4 L187.1 40.3 L187.1 40.3 L187.6 40.0 L187.8 39.9 L187.9 40.0 L187.9 40.3 L187.9 40.4 L188.1 40.4 L188.4 40.2 L188.6 40.3 L188.8 40.4 L188.9 40.5 L189.1 40.6 L189.6 40.7 L189.7 40.8 L189.7 40.9 L189.7 41.3 L189.8 41.4 L189.9 41.5 L190.0 41.4 L190.1 41.1 L190.2 40.9 L190.3 41.0 L190.4 41.2 L190.6 41.5 L190.7 41.6 L190.6 41.6 L190.5 41.8 L190.5 41.8 L190.6 42.0 L190.9 41.9 L191.5 41.6 L191.6 41.8 L191.7 41.7 L191.9 41.6 L192.0 41.6 L192.1 41.6 L192.2 41.7 L192.3 41.7 L192.4 41.7 L192.6 41.6 L192.8 41.4 L193.0 41.0 L193.2 40.9 L193.4 40.9 L193.5 40.9 L193.7 41.0 L193.8 41.1 L193.9 41.0 L194.0 41.0 L193.9 40.8 L193.9 40.6 L194.0 40.5 L194.2 40.5 L194.6 40.6 L194.8 40.7 L195.0 40.6 L195.2 40.7 L195.7 41.2 L196.0 41.4 L196.3 41.5 L196.5 41.6 L196.7 41.6 L196.7 41.6 L196.7 41.7 L196.7 41.9 L196.8 42.0 L197.0 42.2 L197.1 42.3 L197.1 42.4 L197.1 42.5 L197.1 42.6 L197.2 42.6 L197.5 42.6 L197.6 42.6 L197.6 42.5 L197.6 42.4 L197.6 42.3 L197.8 42.2 L197.9 42.3 L198.0 42.4 L198.1 42.5 L198.3 42.5 L198.4 42.6 L198.6 42.6 L198.7 42.7 L198.7 42.8 L198.8 42.9 L198.8 43.0 L198.9 43.0 L199.0 43.0 L199.2 42.9 L199.3 42.9 L199.5 42.9 L199.6 42.9 L199.8 43.0 L199.7 43.2 L199.7 43.2 L199.5 43.3 L199.5 43.3 L199.5 43.4 L199.5 43.5 L199.6 43.5 L199.6 43.6 L199.8 43.5 L200.0 43.4 L200.2 43.4 L200.4 43.4 L200.5 43.6 L200.6 44.0 L200.7 44.1 L200.8 44.2 L201.0 44.1 L201.1 44.1 L201.3 44.2 L201.3 44.3 L201.3 44.4 L201.3 44.5 L201.4 44.5 L201.5 44.5 L201.5 44.4 L201.6 44.3 L201.6 44.2 L201.8 44.1 L201.9 44.2 L202.0 44.6 L202.0 44.7 L202.1 44.8 L202.2 44.9 L202.3 44.9 L202.3 44.9 L202.1 45.2 L201.4 46.2 L200.7 47.3 L200.1 48.3 L199.4 49.4 L198.7 50.4 L198.1 51.4 L197.4 52.5 L196.7 53.5 L196.4 54.0 L196.8 54.0 L198.0 54.6 L198.1 54.7 L198.5 54.8 L198.7 54.8 L199.0 54.7 L199.3 54.4 L199.5 54.3 L199.7 54.3 L200.0 54.4 L200.4 54.6 L200.6 54.9 L200.8 55.2 L201.0 55.5 L201.0 55.8 L201.1 56.1 L201.3 56.3 L202.2 56.7 L202.4 57.0 L202.6 57.2 L202.8 57.4 L203.0 57.8 L203.0 58.1 L202.9 58.3 L202.8 58.5 L202.5 58.7 L202.4 58.7 L202.3 58.7 L202.2 58.6 L202.1 58.5 L202.0 58.5 L202.0 58.3 L201.9 58.1 L201.7 58.0 L201.5 58.1 L201.4 58.1 L201.2 58.3 L201.1 58.6 L200.9 58.8 L200.8 58.6 L200.8 58.5 L200.7 58.4 L200.7 58.4 L200.6 58.4 L200.5 58.4 L200.1 58.1 L200.0 57.9 L200.0 57.8 L200.1 57.5 L200.0 57.3 L200.0 57.2 L199.9 57.1 L199.8 57.0 L199.6 57.3 L199.5 57.2 L199.3 57.0 L199.2 57.0 L199.0 57.0 L198.9 57.0 L198.8 57.1 L198.4 57.3 L198.3 57.4 L198.2 57.3 L198.2 57.2 L198.1 57.1 L198.0 57.0 L197.9 57.1 L197.8 57.2 L197.8 57.4 L197.7 57.5 L197.3 57.3 L197.3 57.1 L197.3 57.0 L197.3 56.8 L197.2 56.8 L197.0 56.9 L197.0 57.0 L196.9 57.2 L196.8 57.3 L196.6 57.3 L196.1 57.2 L196.0 57.2 L195.6 57.4 L195.5 57.5 L195.5 57.6 L195.5 57.8 L195.5 57.9 L195.4 57.9 L195.3 58.0 L195.2 58.1 L195.1 58.3 L195.1 58.4 L194.8 58.6 L194.7 58.8 L194.6 58.9 L194.4 59.1 L194.3 59.0 L194.1 58.8 L194.1 59.0 L193.9 59.1 L193.5 58.9 L193.3 59.0 L193.2 59.2 L193.1 59.3 L192.9 59.2 L192.9 59.2 L192.8 59.0 L192.7 58.9 L192.6 59.0 L192.5 59.2 L192.4 59.3 L192.1 59.1 L191.9 59.0 L191.7 59.1 L191.6 59.2 L191.6 59.3 L191.6 59.4 L191.6 59.5 L191.5 59.6 L191.5 59.6 L191.4 59.6 L191.4 59.5 L191.3 59.6 L191.2 59.7 L191.2 59.7 L191.1 59.7 L191.0 59.7 L191.0 59.6 L190.9 59.5 L190.8 59.5 L190.4 59.6 L190.1 59.6 L190.0 59.6 L189.9 59.7 L189.8 59.7 L189.8 59.9 L189.7 60.0 L189.6 60.0 L189.4 59.9 L189.3 59.9 L188.9 60.1 L188.9 59.9 L188.9 59.9 L188.7 60.1 L188.6 60.2 L188.5 60.2 L188.4 60.1 L188.4 60.0 L188.2 59.9 L188.1 60.0 L188.0 60.0 L187.9 60.1 L187.8 60.0 L187.6 59.9 L187.5 59.9 L187.4 60.0 L187.4 60.0 L187.4 60.1 L187.4 60.1 L187.3 60.1 L186.6 60.2 L186.4 60.3 L186.2 60.4 L185.8 60.8 L185.6 60.9 L185.4 61.0 L185.4 61.0 L185.3 61.1 L185.2 61.0 L185.1 61.0 L185.0 61.0 L185.0 61.1 L184.8 61.4 L184.7 61.5 L184.6 61.6 L184.1 61.9 L183.7 62.2 L183.5 62.3 L183.4 62.4 L183.2 62.4 L182.9 62.3 L182.8 62.3 L182.8 62.4 L182.8 62.5 L182.7 62.5 L182.4 62.6 L182.3 62.7 L182.2 63.2 L182.1 63.3 L182.0 63.4 L181.8 63.5 L181.8 63.5 L181.6 63.5 L181.6 63.5 L181.6 63.6 L181.6 63.6 L181.6 63.7 L181.6 63.7 L181.5 63.8 L181.5 63.9 L181.4 63.9 L181.3 63.9 L181.2 63.9 L181.0 64.0 L180.9 64.1 L180.7 64.3 L180.4 64.4 L180.3 64.5 L180.3 64.6 L180.3 64.7 L180.2 64.8 L180.2 64.9 L180.1 64.9 L179.6 64.9 L179.4 64.8 L179.3 64.8 L179.2 64.9 L179.1 65.0 L178.9 65.1 L178.6 65.2 L178.5 65.2 L178.4 65.1 L178.4 65.1 L178.4 65.2 L178.3 65.3 L178.3 65.3 L178.2 65.4 L178.2 65.4 L178.0 65.4 L177.8 65.5 L177.8 65.6 L177.9 65.8 L177.9 65.9 L178.0 66.0 L178.0 66.5 L178.0 66.7 L177.9 66.8 L177.8 66.9 L177.8 67.0 L177.7 67.4 L177.7 67.5 L177.4 68.1 L177.4 68.3 L177.4 68.6 L177.5 68.9 L177.5 69.1 L177.3 69.9 L177.2 70.2 L177.1 70.4 L176.2 71.6 L175.9 71.8 L175.5 72.9 L175.3 73.2 L175.1 73.5 L175.1 73.9 L175.2 74.1 L175.6 74.6 L175.7 74.7 L175.8 75.4 L175.8 75.6 L176.0 76.0 L176.1 76.2 L176.1 76.4 L176.0 76.6 L175.9 76.9 L175.7 77.3 L175.4 77.5 L175.1 77.7 L174.8 77.8 L174.2 77.8 L174.0 77.9 L173.7 78.1 L173.3 78.3 L172.8 78.8 L172.1 79.2 L171.6 79.6 L171.4 79.7 L171.3 79.8 L171.2 80.0 L171.1 80.1 L170.8 80.3 L170.7 80.4 L170.6 80.6 L170.6 81.0 L170.4 81.8 L170.3 82.1 L170.2 82.3 L170.3 82.4 L170.3 82.5 L170.9 83.3 L171.0 83.7 L171.0 83.8 L171.1 84.0 L171.0 84.2 L170.8 84.2 L170.7 84.3 L170.3 84.3 L170.1 84.3 L169.9 84.3 L169.6 84.5 L169.4 84.6 L169.3 84.6 L168.9 84.4 L168.8 84.4 L168.8 84.6 L169.0 85.0 L169.1 85.2 L169.0 85.4 L169.0 85.5 L169.0 85.7 L168.9 85.9 L168.7 85.9 L168.5 86.0 L168.5 86.2 L168.9 86.4 L170.0 87.5 L170.2 87.7 L170.5 87.8 L170.8 87.9 L171.1 88.1 L171.1 88.4 L171.1 88.8 L170.8 88.9 L170.5 88.8 L170.4 88.8 L170.4 89.0 L170.4 89.4 L170.5 89.5 L170.8 89.7 L171.1 89.9 L171.4 90.0 L171.6 90.3 L171.6 90.5 L171.9 90.9 L172.0 91.1 L172.0 91.2 L172.0 91.6 L172.0 91.7 L172.1 91.9 L172.3 92.2 L172.4 92.5 L172.5 92.8 L172.5 93.0 L172.6 93.1 L173.3 93.5 L173.4 93.5 L173.6 93.7 L173.6 93.8 L173.7 93.8 L173.9 93.9 L174.0 93.9 L174.1 94.0 L174.2 94.2 L174.2 94.3 L174.1 94.7 L174.1 94.9 L174.1 95.0 L174.5 95.5 L174.7 95.6 L174.8 95.7 L175.3 95.8 L175.5 95.9 L175.6 96.1 L175.7 96.2 L175.9 96.6 L176.5 97.5 L176.7 97.6 L177.0 97.8 L177.1 98.0 L177.3 98.3 L177.4 98.5 L177.5 99.2 L177.4 99.4 L177.4 99.6 L177.3 99.7 L176.9 100.0 L176.9 100.2 L176.8 100.3 L176.7 100.4 L176.6 100.4 L176.5 100.5 L176.4 100.5 L176.3 100.7 L176.1 100.9 L175.9 101.2 L175.5 101.6 L175.3 101.9 L178.7 101.9 L179.8 102.1 L179.8 102.2 L179.9 102.2 L179.9 102.2 L180.0 102.2 L180.0 102.2 L180.1 102.2 L180.2 102.2 L180.6 102.3 L180.9 102.5 L181.1 102.5 L181.5 102.6 L182.0 102.5 L182.2 102.6 L182.3 102.7 L182.6 102.9 L182.7 103.0 L182.8 103.0 L182.9 103.0 L183.0 103.0 L183.0 103.0 L183.1 103.1 L183.0 103.4 L183.1 103.6 L183.1 103.7 L183.4 104.0 L183.4 104.1 L183.4 104.3 L183.3 104.6 L183.4 104.9 L184.0 105.3 L184.2 105.6 L184.2 105.7 L184.3 105.9 L184.3 106.0 L184.3 106.1 L184.1 106.3 L184.1 106.4 L184.1 106.5 L184.1 106.7 L184.1 106.8 L184.0 107.0 L184.4 107.0 L186.0 107.0 L187.5 107.0 L189.0 107.0 L190.5 107.0 L190.8 107.0 L191.0 107.0 L191.1 106.9 L191.1 106.8 L191.2 106.8 L191.3 106.8 L191.4 106.8 L191.4 106.9 L191.5 106.9 L191.6 106.9 L191.8 106.8 L192.1 106.6 L192.5 106.4 L192.6 106.3 L192.7 106.1 L192.8 105.9 L192.9 105.8 L193.5 105.5 L194.0 105.4 L194.2 105.3 L194.3 105.2 L194.4 105.0 L194.4 104.9 L194.5 104.8 L194.8 104.7 L194.9 104.6 L195.1 104.2 L195.2 104.1 L195.7 103.8 L195.8 103.7 L196.2 103.4 L196.3 103.2 L196.9 102.9 L197.1 102.8 L197.4 102.4 L197.5 102.3 L197.7 102.2 L197.9 102.1 L198.2 102.1 L198.2 102.2 L198.2 102.2 L198.1 102.4 L198.1 102.5 L198.1 102.6 L197.9 102.7 L197.9 102.7 L197.9 102.8 L198.0 102.8 L197.9 102.9 L197.8 102.9 L197.8 103.1 L197.9 103.3 L197.8 103.3 L197.7 103.3 L197.6 103.2 L197.4 103.2 L197.4 103.3 L197.5 103.4 L197.5 103.7 L197.6 103.9 L197.7 104.0 L197.9 104.2 L198.0 104.3 L198.1 104.5 L198.1 104.6 L198.0 104.8 L197.9 104.9 L197.9 105.0 L197.8 105.1 L197.8 105.1 L197.8 105.1 L197.7 105.1 L197.6 105.1 L197.5 105.1 L197.5 105.2 L197.4 105.3 L197.3 105.4 L197.3 105.7 L197.3 106.2 L197.3 106.6 L197.3 107.3 L197.2 108.4 L197.2 109.5 L197.2 110.5 L197.2 111.6 L197.2 112.7 L197.2 113.8 L197.2 114.9 L197.2 115.6 L198.0 115.0 L198.1 115.0 L198.4 115.1 L198.8 115.6 L199.0 115.8 L199.4 116.0 L199.8 116.1 L200.2 116.0 L200.7 115.9 L201.0 115.8 L203.1 114.8 L203.4 114.8 L203.6 114.9 L203.8 114.9 L204.1 114.8 L204.3 114.9 L204.5 114.9 L204.8 115.1 L205.1 115.2 L206.1 115.1 L206.3 115.1 L206.3 115.1 L206.4 115.2 L206.4 115.2 L206.4 115.3 L206.4 115.3 L206.5 115.4 L206.5 115.4 L206.5 115.5 L207.4 117.0 L208.3 118.6 L209.2 120.1 L210.1 121.7 L211.0 123.2 L211.9 124.7 L212.8 126.3 L213.7 127.8 L213.9 128.2 L213.9 128.3 L213.8 128.3 L213.8 128.4 L213.7 128.6 L213.6 128.7 L213.6 128.8 L213.4 128.9 L213.2 129.1 L213.1 129.2 L213.0 129.3 L213.0 129.4 L213.0 129.5 L213.3 129.6 L213.4 129.7 L213.2 130.1 L213.1 130.1 L212.4 130.3 L212.3 130.4 L212.1 130.6 L212.0 130.8 L211.8 130.8 L211.7 131.0 L211.6 131.2 L211.4 131.4 L211.3 131.6 L211.3 132.0 L211.4 132.8 L211.5 132.9 L211.4 133.9 L211.4 134.3 L211.5 134.9 L211.4 136.6 L211.5 136.8 L211.4 137.0 L211.3 137.2 L211.3 137.3 L211.1 137.5 L211.0 137.6 L211.0 137.7 L211.0 137.8 L211.0 137.9 L210.9 138.0 L210.8 138.0 L210.6 138.0 L210.5 138.0 L210.4 138.2 L210.5 138.4 L211.0 138.8 L211.1 138.9 L211.1 139.0 L211.0 139.1 L211.0 139.3 L211.0 139.4 L211.1 139.7 L211.3 139.9 L211.3 140.2 L211.3 140.5 L211.4 140.8 L211.5 141.0 L211.9 141.3 L212.0 141.4 L212.1 141.5 L212.1 141.8 L212.3 142.4 L212.4 142.7 L212.2 142.8 L211.6 142.9 L211.3 143.0 L211.1 143.1 L211.1 143.3 L211.1 143.4 L211.1 143.8 L211.1 143.9 L211.3 144.1 L211.3 144.3 L211.1 144.4 L210.6 144.7 L210.4 144.8 L210.1 145.2 L210.0 145.3 L209.9 145.3 L209.8 145.3 L209.8 145.5 L209.8 145.9 L209.8 146.0 L209.6 146.0 L209.4 145.9 L209.2 145.9 L209.1 146.1 L209.1 147.2 L208.9 147.4 L208.8 147.5 L208.3 147.6 L208.1 147.8 L208.1 147.9 L208.0 148.0 L208.1 148.7 L208.1 148.8 L207.9 149.1 L207.9 149.3 L207.9 149.4 L208.1 149.6 L208.3 149.7 L208.8 150.4 L208.9 150.6 L209.4 150.9 L209.5 151.1 L209.8 151.4 L210.0 151.5 L209.9 151.7 L209.8 151.8 L209.6 151.8 L209.4 151.8 L209.3 152.1 L209.0 152.2 L208.9 152.4 L208.7 152.5 L208.7 152.7 L208.8 152.9 L208.8 153.0 L208.7 153.1 L208.5 153.1 L208.4 153.2 L208.3 153.3 L208.2 153.5 L208.2 153.7 L208.2 153.8 L207.6 154.6 L207.6 154.9 L207.6 155.2 L207.7 155.4 L208.1 156.3 L208.4 157.2 L208.8 158.0 L209.2 158.9 L209.3 159.4 L209.6 159.7 L209.8 159.9 L210.0 160.0 L210.2 160.1 L210.4 160.1 L210.5 160.0 L210.7 159.9 L210.8 159.9 L210.9 159.9 L211.1 159.9 L211.4 159.9 L211.6 160.0 L211.9 160.4 L212.4 160.5 L212.5 160.7 L212.6 160.9 L212.4 161.2 L211.5 161.5 L211.2 161.7 L211.0 162.0 L210.9 162.1 L210.9 162.3 L210.9 162.8 L210.9 163.0 L210.9 163.2 L211.1 163.5 L211.0 163.6 L210.9 163.8 L210.8 163.9 L210.3 164.1 L210.1 164.2 L209.8 164.2 L209.7 164.3 L209.6 164.4 L209.4 164.9 L209.3 165.1 L208.4 165.9 L208.2 166.4 L208.1 166.5 L207.7 166.7 L207.7 166.8 L207.7 166.9 L207.7 166.9 L207.8 166.9 L207.8 167.0 L207.8 167.1 L207.6 167.3 L207.3 167.4 L207.1 167.5 L206.9 167.6 L206.6 167.7 L206.1 168.1 L206.1 168.1 L205.9 168.2 L205.9 168.2 L205.8 168.4 L205.7 168.8 L205.5 169.1 L205.6 169.1 L206.0 169.1 L206.1 169.2 L206.5 169.4 L206.6 169.6 L206.8 169.7 L206.9 170.0 L206.9 170.3 L206.9 170.9 L206.9 170.9 Z" fill="#172033" fill-rule="evenodd"/></svg>
