<svg xmlns="http://www.w3.org/2000/svg" viewBox="0 0 320 200" role="img"><path d="M242.1 29.1 L242.2 29.4 L242.0 30.3 L242.0 30.8 L242.1 31.0 L242.4 31.3 L242.5 31.4 L242.5 31.6 L242.4 31.7 L242.2 31.8 L242.0 32.0 L242.0 32.1 L242.1 32.3 L242.1 32.4 L242.0 32.5 L241.9 32.6 L241.4 32.9 L241.2 33.0 L241.1 33.2 L241.2 33.6 L241.5 33.9 L241.8 34.2 L242.2 34.4 L243.1 34.4 L243.4 34.6 L243.7 35.0 L243.8 35.4 L243.9 35.9 L244.0 36.3 L244.3 36.6 L244.6 36.6 L245.1 36.5 L245.4 36.4 L245.6 36.5 L245.8 36.5 L246.0 36.5 L246.4 36.3 L246.6 36.3 L246.8 36.3 L247.1 36.3 L247.2 36.2 L247.3 36.0 L247.4 35.9 L247.5 35.9 L247.7 35.9 L247.9 35.9 L248.2 35.8 L248.6 35.5 L248.8 35.5 L249.0 35.9 L248.8 36.8 L249.0 37.2 L249.4 37.4 L250.3 37.7 L250.6 37.9 L250.9 38.2 L251.1 38.3 L251.3 38.4 L251.4 38.4 L253.0 41.6 L254.6 44.7 L254.5 44.7 L254.3 45.0 L254.4 45.3 L254.4 45.6 L254.4 45.9 L254.2 46.1 L253.5 46.6 L253.3 46.8 L253.1 46.9 L252.9 46.9 L252.6 46.7 L252.3 46.7 L251.9 46.7 L251.5 46.8 L251.2 47.0 L251.1 47.2 L251.2 47.9 L251.0 48.1 L250.0 48.9 L249.8 49.0 L248.8 49.2 L248.6 49.2 L248.4 49.1 L247.9 48.8 L247.5 48.8 L247.0 48.9 L245.4 49.7 L244.2 49.9 L243.8 49.9 L243.0 49.7 L242.6 49.8 L242.4 49.9 L242.2 50.2 L242.0 50.4 L242.0 50.4 L241.7 50.5 L240.9 51.0 L240.2 51.6 L240.0 51.7 L239.8 51.8 L239.3 51.7 L239.0 51.7 L238.3 51.9 L237.8 51.8 L234.7 51.2 L234.3 51.0 L233.8 50.7 L233.6 50.5 L233.4 50.3 L233.3 50.2 L233.2 50.1 L232.7 50.1 L232.0 50.3 L230.9 50.3 L226.8 49.6 L223.8 48.7 L223.1 48.6 L222.3 48.7 L221.6 48.9 L220.7 49.5 L220.4 49.6 L218.6 49.9 L218.4 49.9 L218.1 50.2 L218.0 50.4 L218.1 50.7 L218.1 51.1 L218.0 51.3 L217.4 51.6 L217.2 51.9 L217.2 51.9 L217.2 52.3 L217.1 52.5 L217.0 52.6 L216.8 52.7 L216.6 52.8 L216.4 53.0 L216.4 53.3 L216.5 53.6 L216.7 53.8 L217.0 54.0 L217.3 54.1 L217.6 54.1 L217.9 54.1 L218.3 54.1 L218.5 54.3 L218.7 54.9 L218.9 55.1 L219.0 55.4 L219.0 55.6 L218.7 55.8 L218.0 56.1 L217.8 56.3 L217.7 56.7 L217.8 57.0 L218.0 57.3 L218.4 57.6 L218.7 57.6 L219.5 57.4 L219.8 57.5 L220.4 57.6 L220.8 57.6 L221.2 57.5 L221.7 57.5 L222.0 57.7 L222.2 58.1 L222.1 58.5 L221.8 58.8 L221.5 59.1 L221.1 59.3 L220.7 59.5 L219.4 59.7 L219.1 59.9 L218.7 60.5 L218.7 60.6 L218.6 60.8 L218.6 60.9 L218.5 61.3 L218.6 61.4 L218.6 61.6 L218.7 61.8 L219.3 62.2 L220.0 62.5 L220.7 62.9 L220.8 63.6 L220.6 64.5 L220.2 65.3 L220.1 65.5 L220.0 65.7 L219.8 65.8 L219.7 65.9 L219.2 66.1 L219.0 66.2 L218.9 66.4 L218.9 66.9 L219.0 67.3 L219.3 67.5 L219.8 67.8 L220.2 68.1 L220.8 68.9 L221.2 69.1 L222.3 69.2 L222.6 69.4 L222.8 69.7 L222.8 70.3 L222.9 70.9 L222.9 71.1 L222.8 71.3 L222.7 71.4 L222.7 71.4 L222.6 71.6 L222.7 71.8 L222.9 72.0 L223.0 72.1 L223.3 72.1 L223.5 72.1 L223.9 71.9 L224.1 71.8 L224.3 71.9 L224.7 72.2 L224.9 72.3 L225.1 72.3 L225.7 72.2 L225.9 72.2 L226.2 72.0 L226.3 71.8 L226.3 71.6 L226.4 71.4 L226.6 71.2 L226.8 71.2 L227.0 71.3 L227.1 71.6 L227.0 71.8 L226.7 72.3 L226.6 72.6 L226.6 72.8 L226.7 73.3 L226.7 73.5 L226.6 73.7 L226.4 73.9 L226.4 74.2 L226.4 74.4 L226.7 75.2 L227.1 75.5 L227.5 75.6 L227.9 75.6 L228.3 75.5 L228.8 75.5 L229.6 75.8 L230.1 75.8 L230.6 75.6 L231.0 75.6 L231.3 75.7 L231.8 76.0 L232.2 76.2 L233.0 76.4 L233.4 76.6 L234.2 77.1 L234.5 77.4 L234.8 77.7 L234.9 78.0 L234.8 78.2 L234.4 78.6 L234.3 78.8 L234.2 79.2 L234.1 79.3 L233.8 79.3 L233.6 79.3 L233.3 79.4 L233.0 79.5 L232.7 79.7 L232.7 80.0 L232.6 80.0 L232.3 79.9 L232.2 80.0 L232.1 80.1 L232.0 80.1 L231.9 80.1 L231.2 79.9 L230.9 79.9 L231.0 80.2 L230.9 80.3 L230.6 80.2 L230.5 80.3 L230.4 80.4 L230.4 80.5 L230.3 80.6 L230.2 80.6 L229.9 80.7 L229.6 80.6 L229.4 80.7 L229.2 80.9 L228.7 80.7 L228.5 81.0 L228.4 81.4 L228.2 81.7 L227.9 81.7 L227.2 81.6 L226.8 82.1 L226.7 82.2 L226.5 82.3 L225.6 82.9 L225.4 83.0 L225.3 83.2 L225.3 83.5 L225.3 83.6 L225.3 83.7 L225.2 83.7 L225.1 83.8 L225.1 83.9 L225.1 84.0 L225.0 84.1 L225.0 84.1 L224.9 84.1 L224.9 84.2 L224.8 84.4 L224.7 84.4 L224.8 84.5 L225.5 85.5 L225.8 86.7 L226.2 87.1 L226.2 87.3 L226.2 87.6 L226.0 87.7 L225.8 87.9 L225.7 88.2 L225.2 89.2 L225.1 89.4 L225.1 89.9 L225.0 90.4 L224.9 90.6 L225.0 90.9 L225.0 91.0 L225.1 91.2 L225.3 91.4 L225.5 91.4 L226.0 91.3 L226.2 91.4 L226.4 91.4 L226.6 91.6 L226.7 91.7 L226.0 92.0 L225.8 92.2 L225.6 92.4 L225.6 92.6 L225.4 92.8 L225.3 93.0 L225.1 93.1 L224.8 93.2 L224.6 93.2 L224.4 93.2 L224.2 93.3 L224.0 93.5 L223.8 93.7 L223.8 93.9 L223.7 93.9 L223.4 93.9 L223.1 93.9 L223.0 93.8 L222.9 93.9 L222.7 93.9 L222.6 94.0 L222.6 94.2 L222.6 94.4 L222.5 94.6 L222.3 94.7 L222.0 94.8 L222.0 94.9 L222.1 95.1 L222.1 95.2 L222.0 95.3 L221.9 95.4 L221.8 95.5 L221.5 95.8 L221.3 95.9 L221.2 96.0 L221.2 96.2 L221.0 96.3 L221.0 96.4 L220.9 96.6 L220.8 96.7 L220.6 96.7 L220.3 96.8 L220.1 96.9 L220.0 97.1 L219.8 97.2 L219.7 97.5 L219.7 97.7 L219.7 97.9 L219.7 98.2 L219.5 98.3 L219.1 98.4 L219.0 98.5 L218.9 98.7 L218.3 99.4 L218.2 99.5 L218.0 99.5 L217.8 99.4 L217.9 99.5 L217.9 99.7 L217.9 99.8 L217.7 99.7 L217.5 99.8 L217.3 100.0 L217.2 100.2 L217.2 100.3 L217.7 100.5 L218.0 100.8 L218.2 101.3 L218.4 101.8 L218.4 102.0 L218.4 102.2 L216.4 103.6 L216.0 103.8 L213.8 104.2 L211.8 105.0 L211.7 105.2 L211.2 106.6 L210.7 108.1 L210.0 109.8 L209.4 110.9 L208.8 111.8 L207.9 113.4 L207.2 114.2 L206.9 114.7 L206.5 115.5 L206.4 115.7 L206.2 115.8 L204.7 116.5 L203.3 117.1 L201.8 117.8 L200.1 118.6 L199.8 118.8 L198.9 119.7 L198.6 120.2 L198.0 122.5 L197.7 123.1 L197.4 123.6 L196.9 124.0 L195.5 125.1 L194.6 126.1 L194.4 126.4 L194.4 126.6 L194.3 128.0 L194.2 128.2 L194.0 128.3 L192.2 128.8 L190.5 129.3 L189.5 129.3 L188.6 129.3 L187.6 129.3 L186.6 129.5 L185.7 129.8 L184.3 130.4 L183.0 131.0 L182.0 131.2 L181.2 131.1 L180.6 130.7 L180.1 130.2 L179.8 129.4 L179.7 129.2 L179.8 128.8 L179.7 128.5 L179.6 128.4 L179.2 128.1 L178.8 127.7 L178.5 127.5 L178.2 127.4 L177.9 127.3 L177.6 127.3 L177.4 127.3 L176.9 127.5 L176.5 127.5 L176.3 127.6 L176.1 127.7 L175.4 128.4 L174.6 128.9 L174.5 129.0 L173.5 129.9 L173.4 130.1 L172.5 132.4 L172.2 132.7 L171.2 133.6 L170.5 134.6 L169.2 135.8 L168.4 136.3 L167.3 137.2 L166.9 137.9 L166.5 138.8 L166.3 140.3 L166.1 141.6 L166.1 142.1 L166.5 142.5 L168.3 143.2 L168.8 143.5 L169.6 144.1 L170.1 144.3 L173.0 144.2 L173.4 144.3 L173.8 144.5 L174.1 144.9 L174.2 145.3 L174.1 146.3 L174.2 146.7 L174.1 146.9 L174.0 147.2 L174.0 147.4 L174.0 147.6 L174.1 148.1 L174.0 148.5 L173.8 149.0 L173.2 149.9 L173.2 150.1 L173.2 150.5 L173.0 151.1 L173.1 151.3 L173.3 151.9 L173.6 152.5 L174.1 153.0 L174.6 153.3 L174.8 153.6 L175.0 154.2 L175.2 154.5 L175.4 154.6 L175.8 154.8 L176.5 154.9 L177.9 154.9 L178.3 154.8 L178.8 154.6 L179.2 154.5 L179.7 154.6 L179.9 154.9 L180.0 155.4 L179.9 156.4 L179.8 157.7 L179.9 158.1 L180.1 158.4 L180.6 158.8 L180.7 159.1 L180.7 159.4 L180.9 159.6 L181.3 160.0 L182.0 160.6 L182.2 160.8 L182.3 161.1 L182.7 162.7 L183.0 163.4 L183.3 164.0 L184.0 165.0 L184.4 166.0 L184.6 166.3 L184.7 166.5 L184.5 166.6 L183.7 167.0 L183.5 167.2 L183.4 167.6 L183.5 167.9 L183.7 168.1 L183.8 168.2 L183.8 168.3 L183.7 168.3 L183.7 168.4 L183.7 168.7 L183.7 168.7 L183.7 168.8 L183.7 168.9 L183.7 169.0 L184.0 169.1 L184.4 169.2 L184.9 169.3 L184.9 169.6 L184.8 169.7 L184.3 169.9 L184.1 170.1 L184.1 170.2 L183.9 170.3 L183.7 170.3 L183.5 170.2 L183.2 170.1 L183.0 170.2 L182.3 170.7 L182.1 170.9 L182.2 171.1 L182.3 171.3 L182.2 171.3 L182.0 171.4 L181.8 171.5 L181.4 171.7 L181.1 171.7 L179.6 171.6 L179.1 171.4 L178.9 171.2 L178.8 171.1 L178.8 170.6 L178.7 170.2 L178.7 170.1 L178.7 170.0 L178.9 169.9 L179.0 169.8 L178.9 169.5 L178.4 169.5 L177.2 169.7 L176.6 170.1 L176.4 170.2 L175.8 170.2 L175.6 170.3 L175.1 170.6 L174.9 170.6 L174.7 170.6 L174.0 170.8 L173.6 170.9 L173.4 170.9 L173.3 171.1 L173.0 171.9 L172.9 172.1 L172.5 172.4 L172.0 172.5 L169.6 172.5 L169.0 172.5 L168.5 172.2 L167.5 171.3 L167.2 171.2 L163.9 171.1 L163.0 171.4 L162.6 171.5 L162.4 171.4 L161.7 171.1 L161.4 171.1 L161.2 171.1 L160.7 171.3 L160.4 171.5 L160.2 171.4 L160.0 171.3 L159.8 170.9 L159.7 170.8 L159.6 170.7 L159.5 170.7 L159.3 170.7 L159.3 170.8 L159.3 170.9 L159.2 171.0 L158.9 171.6 L158.7 171.7 L158.5 171.5 L158.4 170.8 L158.3 170.6 L157.7 170.6 L157.4 171.1 L157.4 172.0 L157.4 173.2 L157.4 174.8 L156.5 174.8 L155.3 174.8 L154.0 174.8 L153.4 174.9 L153.1 175.1 L153.1 175.0 L153.1 174.9 L153.0 174.8 L152.9 174.8 L152.8 174.8 L152.8 174.9 L152.8 175.0 L152.9 175.1 L152.8 175.3 L152.6 175.4 L152.5 175.5 L152.3 175.4 L152.2 175.3 L152.2 175.2 L152.1 175.2 L152.0 175.2 L151.9 175.3 L151.9 175.4 L151.9 175.5 L151.9 175.5 L151.9 175.6 L152.0 175.6 L152.0 175.7 L151.9 175.7 L151.9 175.7 L151.8 175.7 L151.7 175.7 L151.7 175.7 L151.5 175.8 L151.4 175.9 L151.1 176.3 L151.1 176.3 L151.1 176.3 L150.8 175.5 L150.8 175.9 L150.8 176.0 L150.8 176.1 L150.9 176.2 L150.9 176.3 L150.9 176.5 L150.7 177.0 L150.6 177.2 L150.6 177.4 L150.8 177.8 L150.8 178.0 L150.7 178.0 L150.5 177.8 L150.1 177.5 L150.1 177.8 L149.9 177.8 L149.7 177.7 L149.6 177.4 L149.6 177.3 L149.8 177.2 L149.8 177.2 L149.8 177.0 L149.8 176.9 L149.9 176.7 L150.0 176.7 L150.1 176.7 L150.1 176.6 L150.0 176.5 L149.8 176.3 L149.6 176.0 L149.6 175.8 L149.7 175.5 L149.7 175.3 L149.5 175.4 L149.2 175.2 L149.1 175.1 L149.4 176.2 L149.6 176.4 L149.4 176.9 L149.2 177.1 L149.1 177.1 L149.0 177.1 L149.0 176.9 L148.9 176.8 L148.9 176.7 L148.9 176.6 L148.7 176.7 L148.6 176.7 L148.6 176.7 L148.5 176.7 L148.4 176.7 L148.3 176.6 L148.2 176.5 L148.2 176.4 L148.1 176.4 L148.0 176.4 L147.9 176.3 L147.8 176.2 L147.8 176.1 L147.8 176.0 L147.7 176.0 L147.6 176.0 L147.4 176.2 L147.4 176.0 L147.3 175.6 L147.3 175.5 L147.2 175.7 L147.1 176.5 L147.0 176.7 L146.6 176.6 L146.3 176.5 L145.7 176.3 L145.8 176.4 L145.9 176.5 L146.0 176.7 L145.8 176.8 L145.6 176.9 L145.4 176.8 L144.9 176.7 L144.8 176.7 L144.7 176.7 L144.6 176.7 L144.6 176.6 L144.6 176.5 L144.7 176.4 L144.7 176.3 L144.8 176.2 L144.9 175.5 L144.9 175.4 L144.9 175.3 L144.9 175.3 L144.9 175.3 L144.9 175.3 L144.9 175.2 L144.7 175.4 L144.7 175.9 L144.6 176.1 L144.4 176.2 L144.3 176.1 L144.2 176.0 L144.1 175.8 L144.0 175.9 L143.9 175.9 L143.8 175.7 L143.7 175.6 L143.5 175.6 L143.5 175.7 L143.5 175.8 L143.7 175.9 L143.0 175.8 L142.9 175.7 L143.0 175.7 L143.1 175.7 L143.1 175.7 L143.3 175.6 L143.3 175.5 L143.5 175.3 L143.6 175.1 L143.5 175.2 L143.3 175.3 L143.2 175.3 L143.1 175.3 L143.1 175.2 L143.1 175.0 L143.2 174.7 L142.7 174.6 L142.5 174.6 L142.7 174.2 L142.9 174.1 L143.0 174.1 L143.3 173.9 L143.5 173.8 L143.5 173.6 L143.2 173.8 L143.0 173.8 L142.7 173.7 L142.4 173.6 L141.7 173.7 L141.4 173.6 L141.3 173.4 L141.2 173.0 L141.1 172.8 L140.8 172.3 L140.7 172.1 L140.7 172.0 L140.7 171.4 L140.6 171.3 L140.5 171.1 L140.6 171.1 L140.6 170.9 L140.7 170.9 L140.6 170.6 L140.8 170.4 L141.2 170.4 L141.5 170.4 L141.3 170.3 L141.1 170.3 L140.6 170.3 L140.4 170.1 L140.5 169.8 L140.6 169.3 L140.5 169.4 L140.5 169.4 L140.3 169.5 L140.3 169.2 L140.2 169.0 L140.0 168.7 L139.7 168.5 L140.0 168.3 L139.9 168.2 L139.7 168.2 L139.5 168.0 L139.5 167.9 L139.4 167.7 L139.4 167.5 L139.6 167.6 L139.8 167.6 L140.0 167.6 L140.2 167.5 L139.9 167.3 L139.7 167.3 L139.5 167.2 L139.3 167.2 L139.1 167.3 L139.0 167.2 L139.0 167.0 L139.1 166.7 L139.3 166.4 L139.6 166.1 L139.9 165.9 L140.2 165.8 L140.3 165.7 L140.1 165.5 L140.0 165.4 L139.9 165.4 L139.8 165.5 L139.3 165.6 L139.2 165.6 L139.2 165.3 L139.1 165.2 L139.0 165.1 L138.9 165.1 L138.7 165.1 L138.6 165.1 L138.4 165.1 L138.2 165.1 L138.1 165.1 L138.2 165.4 L138.0 165.3 L137.5 165.0 L137.3 164.9 L137.1 164.8 L137.0 164.7 L136.9 164.6 L136.8 164.6 L136.8 164.8 L136.8 164.9 L136.9 165.0 L136.6 164.9 L136.4 164.8 L136.1 164.6 L135.9 164.5 L135.6 164.5 L135.3 164.6 L135.0 164.6 L134.7 164.5 L134.6 164.5 L134.0 164.6 L133.7 164.7 L133.5 164.7 L133.2 164.6 L133.3 164.4 L133.5 164.2 L133.8 164.0 L133.8 163.9 L133.5 163.8 L133.5 163.4 L133.7 162.5 L133.8 161.8 L133.8 161.5 L133.9 161.3 L134.1 161.1 L134.2 160.9 L134.2 160.6 L134.0 160.3 L134.0 160.1 L133.9 160.0 L133.5 159.6 L133.3 159.5 L133.2 159.4 L132.5 158.9 L132.1 158.7 L132.0 158.5 L132.1 158.3 L132.4 158.3 L132.5 158.1 L132.4 157.8 L132.2 157.6 L132.0 157.4 L131.9 157.0 L131.8 156.7 L131.6 156.8 L131.6 156.8 L131.5 156.7 L131.5 156.7 L131.3 156.7 L131.3 156.6 L131.2 156.5 L131.2 156.3 L130.8 156.0 L130.7 155.8 L130.4 155.9 L130.1 155.8 L129.9 155.7 L130.0 155.5 L129.8 155.6 L129.5 155.7 L129.1 155.7 L129.0 155.7 L128.8 155.6 L128.6 155.6 L128.6 155.6 L128.5 155.7 L128.4 155.8 L128.0 155.8 L127.7 156.0 L127.5 156.1 L127.4 156.3 L127.2 156.8 L127.1 156.8 L127.0 156.9 L126.9 157.0 L126.8 157.1 L126.7 157.2 L127.0 157.2 L127.9 157.1 L128.1 157.0 L128.2 156.9 L128.4 156.7 L128.4 156.7 L128.5 156.7 L128.5 156.7 L128.6 156.7 L128.6 156.6 L128.6 156.6 L128.6 156.5 L128.6 156.4 L128.9 156.3 L129.2 156.3 L129.5 156.3 L129.7 156.4 L129.7 156.5 L129.8 156.6 L130.0 156.6 L130.1 156.7 L130.2 156.8 L130.4 157.0 L130.5 157.1 L130.7 157.0 L130.9 157.0 L131.1 157.0 L131.3 157.1 L130.9 157.5 L131.4 157.7 L131.6 157.9 L131.4 158.1 L131.2 158.1 L131.0 158.0 L130.7 157.7 L129.8 157.3 L129.2 157.2 L128.8 157.3 L128.5 157.2 L128.2 157.3 L127.8 157.5 L127.5 157.5 L126.4 157.5 L125.6 157.7 L124.7 157.9 L124.2 157.9 L123.9 157.9 L123.5 158.1 L123.3 158.1 L122.9 158.3 L122.4 158.4 L121.8 158.7 L121.5 158.7 L121.3 158.7 L119.6 158.3 L119.4 158.3 L119.1 158.3 L118.9 158.4 L118.6 158.5 L118.4 158.4 L118.4 158.4 L118.5 158.2 L118.2 158.2 L117.8 158.3 L117.6 158.4 L117.3 158.5 L116.9 158.3 L116.6 158.4 L116.4 158.7 L116.1 159.1 L116.0 159.2 L115.9 159.3 L115.7 159.3 L115.6 159.3 L115.3 159.2 L115.0 159.2 L114.6 159.1 L114.4 159.1 L113.7 159.1 L113.0 158.9 L112.6 158.9 L112.3 159.1 L112.0 159.0 L111.7 158.9 L110.9 159.0 L110.6 159.1 L110.4 159.3 L110.2 159.5 L110.0 159.8 L110.0 160.1 L110.0 160.2 L110.0 160.3 L110.2 160.4 L110.4 160.5 L110.5 160.5 L110.5 160.7 L110.4 160.7 L109.9 160.8 L109.7 160.8 L109.4 160.7 L109.2 160.7 L109.6 160.3 L109.6 160.1 L109.4 159.8 L109.2 159.7 L108.8 159.6 L108.5 159.5 L108.3 159.5 L108.2 159.6 L108.0 159.9 L107.8 159.9 L107.7 159.9 L107.5 160.0 L107.4 160.0 L107.1 159.9 L106.7 159.6 L106.5 159.5 L106.0 159.3 L105.5 159.3 L105.3 159.3 L105.2 159.1 L105.1 159.1 L104.4 159.0 L103.3 158.8 L103.3 158.7 L103.4 158.5 L103.5 158.3 L103.4 158.2 L103.3 158.1 L103.2 158.0 L103.2 157.9 L103.2 157.8 L103.3 157.7 L103.5 157.7 L103.6 157.7 L103.9 157.7 L104.0 157.7 L104.1 157.5 L104.0 157.5 L103.9 157.5 L103.7 157.5 L103.2 157.6 L102.9 157.6 L102.8 157.5 L102.1 157.8 L102.0 157.9 L102.1 157.9 L102.2 157.9 L102.3 158.1 L102.4 158.1 L102.5 158.1 L102.6 157.9 L102.8 157.9 L103.0 158.1 L103.2 158.5 L103.0 158.7 L102.9 158.7 L102.7 158.7 L102.3 158.8 L102.1 158.8 L101.9 158.7 L101.6 158.8 L101.1 158.8 L100.0 158.4 L99.2 158.3 L98.4 158.3 L97.6 158.4 L97.2 158.5 L97.0 158.6 L96.8 158.7 L96.5 159.1 L96.4 159.4 L96.2 159.4 L96.0 159.4 L96.1 159.6 L96.2 159.7 L96.5 160.1 L96.6 160.1 L96.6 160.2 L96.6 160.3 L96.6 160.3 L96.5 160.4 L96.5 160.5 L96.4 160.5 L96.0 160.4 L95.4 160.2 L95.0 160.1 L94.2 160.2 L94.0 160.2 L93.4 159.9 L92.6 159.7 L92.2 159.7 L91.9 159.8 L91.2 160.1 L90.9 160.2 L89.9 160.1 L87.9 159.7 L85.9 159.7 L85.0 159.7 L84.5 159.7 L84.3 160.0 L84.3 160.1 L84.6 160.3 L84.4 160.3 L84.1 160.3 L83.7 160.3 L83.4 160.5 L83.2 160.7 L83.0 160.8 L82.9 160.9 L82.8 161.1 L82.8 161.3 L83.0 161.4 L83.2 161.5 L83.4 161.6 L83.3 161.7 L82.9 161.7 L82.3 161.7 L81.9 161.6 L82.2 161.4 L82.2 161.4 L82.2 161.3 L82.3 161.3 L82.4 161.3 L82.5 161.3 L82.6 161.2 L82.6 161.1 L82.4 160.8 L82.4 160.6 L82.1 160.4 L81.9 160.3 L81.5 160.3 L81.1 160.2 L80.6 160.2 L80.1 160.4 L79.8 160.5 L79.7 160.7 L79.6 160.9 L79.7 161.0 L79.8 161.3 L79.9 161.4 L80.0 161.5 L79.8 161.6 L79.3 161.6 L78.8 161.5 L78.1 161.5 L77.5 161.6 L77.4 161.8 L77.3 161.9 L77.2 162.0 L77.1 162.3 L77.0 162.3 L76.7 162.5 L76.4 162.5 L76.0 162.6 L75.7 162.5 L75.6 162.3 L75.7 162.1 L75.8 161.9 L75.7 161.8 L75.8 161.7 L76.0 161.5 L76.1 161.4 L76.1 161.3 L76.1 161.2 L76.2 161.1 L76.3 160.9 L76.4 160.7 L76.4 160.6 L76.3 160.5 L76.2 160.6 L76.2 160.6 L76.1 160.6 L76.0 160.7 L76.0 160.7 L75.9 160.7 L75.7 160.6 L75.7 160.6 L75.5 160.6 L75.5 160.5 L75.4 160.5 L75.3 160.4 L75.2 160.4 L74.8 160.4 L74.6 160.4 L74.5 160.4 L74.4 160.4 L74.1 160.4 L74.4 159.4 L74.5 158.4 L74.6 157.3 L74.7 156.3 L74.7 155.6 L74.8 155.4 L74.8 155.3 L75.0 155.2 L75.1 155.1 L75.1 154.7 L75.0 154.2 L74.9 153.8 L75.2 153.5 L75.4 153.4 L75.6 153.4 L75.8 153.4 L76.0 153.2 L76.1 153.0 L76.2 152.2 L76.4 151.2 L76.5 150.5 L76.6 149.8 L76.7 149.1 L76.8 148.8 L76.9 148.4 L77.2 148.2 L78.6 147.9 L79.0 147.6 L79.3 147.5 L79.5 147.5 L80.0 147.4 L80.1 147.3 L80.1 147.0 L80.3 146.7 L80.8 146.8 L81.3 146.9 L81.7 147.0 L82.0 146.9 L82.0 146.7 L81.9 146.5 L81.8 146.2 L81.9 146.1 L82.2 145.7 L82.4 145.5 L82.4 145.5 L82.3 145.4 L82.3 145.3 L82.3 145.2 L82.4 145.1 L82.5 145.1 L82.7 145.0 L82.8 145.0 L82.9 144.9 L83.0 144.8 L83.2 144.8 L83.4 144.8 L83.5 144.8 L83.6 144.7 L83.7 144.6 L83.8 144.5 L83.9 144.5 L85.8 144.3 L86.1 144.2 L86.2 144.2 L86.3 144.1 L86.4 144.0 L86.5 144.0 L86.6 144.1 L86.7 144.1 L87.1 144.0 L87.2 144.0 L87.3 144.0 L87.3 143.9 L87.5 143.7 L87.6 143.6 L87.7 143.6 L88.5 143.6 L89.4 143.6 L90.5 143.6 L90.9 143.7 L91.4 143.7 L91.7 143.6 L91.8 143.6 L91.9 143.7 L92.0 143.7 L92.1 143.8 L92.2 143.8 L92.5 143.5 L92.6 143.1 L92.7 141.4 L92.8 141.2 L93.0 141.1 L93.4 141.0 L93.6 140.9 L93.7 140.7 L93.6 140.5 L93.4 140.3 L93.3 140.1 L93.2 138.8 L93.3 138.6 L93.3 138.5 L93.4 138.4 L93.5 138.2 L93.6 138.1 L93.8 138.0 L94.1 138.0 L94.3 138.0 L93.9 137.2 L93.7 137.0 L93.6 136.9 L93.5 136.8 L93.2 136.8 L93.1 136.7 L92.8 136.4 L92.6 136.4 L92.5 136.4 L91.9 136.6 L91.7 136.6 L91.5 136.5 L91.2 136.6 L90.6 136.7 L90.3 136.8 L89.6 136.9 L89.3 136.9 L88.9 136.8 L88.7 136.7 L88.6 136.7 L88.5 136.7 L88.3 136.8 L88.2 136.8 L88.1 136.7 L87.6 136.3 L87.7 136.3 L87.9 136.2 L87.9 136.1 L88.0 135.9 L88.0 135.7 L87.9 135.6 L87.7 135.3 L88.3 134.1 L88.4 133.6 L88.3 133.0 L88.2 131.9 L88.2 131.4 L88.1 130.4 L88.0 129.7 L87.7 128.6 L87.5 127.8 L87.7 126.5 L87.8 125.3 L87.8 124.8 L87.5 124.7 L85.6 125.1 L85.4 124.9 L84.6 124.2 L84.5 124.0 L84.4 123.8 L84.3 123.6 L84.2 123.6 L84.0 123.5 L83.8 123.4 L83.7 123.3 L83.6 123.1 L83.4 123.0 L83.1 122.8 L81.6 122.6 L80.6 122.2 L80.2 122.1 L79.5 122.0 L79.1 121.9 L78.5 121.7 L77.9 121.5 L77.6 121.4 L77.3 121.0 L76.5 120.4 L76.0 119.9 L74.8 118.9 L74.5 118.5 L74.2 117.9 L73.8 117.6 L73.8 117.4 L73.7 117.2 L73.7 117.0 L73.2 116.0 L73.1 115.8 L72.9 115.8 L72.8 115.7 L72.7 115.6 L72.7 115.6 L72.7 115.5 L72.8 115.4 L72.9 115.3 L72.9 115.2 L72.9 115.1 L72.8 115.0 L72.6 115.0 L72.5 114.8 L72.4 114.6 L72.3 114.4 L72.2 114.4 L72.1 114.3 L72.0 114.3 L71.9 114.2 L71.8 114.1 L71.8 113.8 L71.7 113.6 L71.6 113.4 L71.2 113.1 L71.1 112.8 L71.1 112.6 L71.2 112.2 L71.3 112.0 L71.1 111.7 L70.9 111.5 L70.7 111.5 L70.5 111.3 L69.5 110.3 L68.6 109.3 L67.7 108.4 L67.0 107.6 L66.3 107.0 L65.4 106.0 L65.8 106.2 L66.6 106.4 L67.6 106.7 L68.5 107.0 L69.5 107.2 L70.5 107.5 L71.5 107.8 L72.4 108.0 L73.4 108.3 L74.4 108.6 L75.3 108.9 L76.3 109.1 L77.3 109.4 L78.3 109.7 L79.2 110.0 L80.2 110.2 L81.2 110.5 L82.1 110.8 L83.3 111.1 L84.5 111.3 L85.9 111.2 L86.3 111.1 L86.8 111.1 L87.4 111.0 L88.0 111.0 L88.5 111.0 L89.1 110.9 L89.7 110.9 L90.3 110.8 L90.8 110.8 L91.4 110.7 L92.0 110.7 L92.6 110.6 L93.1 110.6 L93.7 110.5 L94.3 110.5 L94.8 110.4 L95.4 110.4 L97.2 110.2 L99.8 110.7 L101.9 111.0 L103.2 111.5 L103.6 111.4 L104.0 110.7 L104.3 110.4 L104.7 110.2 L107.8 109.4 L108.1 109.4 L110.2 109.4 L111.8 109.4 L113.8 109.7 L114.3 109.7 L116.0 109.3 L116.7 109.1 L117.4 109.0 L118.1 108.8 L118.7 108.6 L119.4 108.4 L120.1 108.3 L120.8 108.1 L121.5 107.9 L122.1 107.8 L122.8 107.6 L123.5 107.4 L124.2 107.2 L124.8 107.1 L125.5 106.9 L126.2 106.7 L126.9 106.5 L127.9 106.3 L128.8 105.7 L129.1 105.4 L129.4 105.0 L129.4 105.0 L129.5 104.9 L129.6 104.9 L129.5 104.8 L129.1 104.5 L128.6 104.1 L128.2 103.9 L128.2 103.7 L128.2 103.5 L128.4 103.1 L129.1 101.7 L129.2 101.5 L129.1 100.8 L129.4 99.3 L129.3 99.0 L129.3 98.8 L129.2 98.6 L128.9 98.3 L128.7 97.9 L128.7 97.4 L129.9 93.6 L130.0 93.4 L130.2 93.3 L131.8 93.1 L132.0 93.0 L133.1 92.0 L133.3 91.7 L133.7 90.4 L134.0 90.2 L134.5 90.2 L134.8 90.0 L135.0 89.7 L135.4 89.5 L136.2 89.1 L136.6 89.0 L137.3 89.0 L137.5 89.1 L137.5 89.2 L137.6 89.5 L137.5 89.6 L137.5 89.7 L137.4 89.7 L137.4 89.8 L137.5 89.9 L137.7 89.9 L137.9 90.0 L138.2 90.0 L138.6 89.9 L138.9 89.9 L139.1 89.9 L139.5 90.1 L139.8 90.2 L140.0 90.2 L140.6 90.2 L141.3 90.3 L141.5 90.2 L142.3 89.9 L143.0 89.9 L143.5 89.7 L144.1 89.6 L144.3 89.5 L145.0 89.1 L145.2 89.0 L145.4 88.9 L145.5 88.9 L146.0 88.9 L146.2 88.8 L146.3 88.6 L146.3 88.1 L145.8 88.0 L144.9 88.1 L144.6 88.0 L144.4 87.9 L144.2 87.7 L144.2 87.3 L144.0 87.1 L143.8 86.9 L143.8 86.7 L143.9 86.5 L144.3 86.5 L145.0 86.6 L145.4 86.6 L145.8 86.5 L146.0 86.3 L146.4 86.1 L147.1 85.4 L147.4 85.3 L147.6 85.3 L147.9 85.3 L148.4 85.3 L148.5 85.2 L148.7 85.1 L148.9 84.9 L149.5 84.7 L149.6 84.6 L149.6 84.3 L149.7 84.2 L150.0 83.9 L150.1 83.8 L150.2 83.7 L150.4 83.2 L150.6 83.1 L150.8 83.1 L151.1 83.1 L151.4 83.3 L151.7 83.5 L151.8 83.6 L151.9 83.7 L152.2 83.8 L152.6 83.8 L153.1 83.8 L154.3 84.2 L154.8 84.2 L155.0 84.2 L155.2 84.0 L155.4 83.9 L155.3 83.8 L155.0 83.8 L154.3 83.8 L154.1 83.7 L153.9 83.7 L153.8 83.6 L154.1 83.4 L154.6 83.2 L154.8 83.1 L155.1 83.1 L155.5 83.2 L156.2 83.5 L156.8 83.7 L157.0 83.7 L157.1 83.9 L157.1 84.3 L157.2 84.5 L157.5 84.8 L158.0 85.5 L158.3 85.7 L158.8 85.6 L159.5 85.3 L159.9 85.2 L160.4 85.2 L160.7 85.1 L161.1 84.8 L161.5 84.5 L161.6 84.3 L161.8 84.2 L162.0 84.1 L163.2 82.4 L163.6 82.1 L164.1 81.7 L164.1 81.7 L164.2 81.6 L164.2 81.5 L163.8 80.6 L163.6 79.5 L163.6 79.2 L163.7 78.7 L163.7 78.3 L163.7 77.8 L163.8 77.5 L163.7 77.3 L163.4 76.6 L163.3 76.1 L163.3 75.6 L163.6 75.2 L163.9 74.8 L164.2 74.7 L164.6 74.5 L164.8 74.4 L165.5 73.6 L165.6 73.4 L165.6 73.2 L165.5 72.8 L165.5 72.6 L165.5 72.5 L165.4 72.5 L165.3 72.5 L165.2 72.4 L165.1 72.3 L165.0 72.2 L165.0 72.0 L165.1 71.8 L165.5 71.6 L165.8 71.3 L166.1 71.1 L166.2 71.0 L166.3 70.7 L166.1 69.4 L166.2 69.2 L166.3 69.0 L166.6 68.7 L167.0 68.5 L167.5 68.4 L167.7 68.4 L168.1 68.4 L168.2 68.4 L168.3 68.4 L168.4 68.4 L168.6 68.4 L169.2 68.1 L169.6 68.0 L170.4 68.3 L170.9 68.3 L171.8 67.9 L171.9 67.8 L172.2 67.9 L172.4 67.8 L172.5 67.7 L172.9 67.1 L173.0 67.0 L173.3 67.1 L173.5 67.1 L173.8 67.0 L175.7 65.6 L175.8 65.2 L175.6 64.9 L175.0 64.3 L175.0 64.2 L174.9 64.0 L174.8 64.0 L174.5 63.9 L174.4 63.8 L174.2 63.6 L174.1 63.4 L174.1 63.2 L174.1 63.0 L174.3 62.2 L174.3 62.0 L174.3 61.9 L174.2 61.8 L174.0 61.8 L173.9 61.7 L173.8 61.6 L173.8 61.4 L173.7 61.0 L173.6 60.9 L173.1 60.9 L172.4 60.7 L172.3 60.7 L172.0 60.6 L171.8 60.6 L171.7 60.3 L171.6 60.1 L171.5 59.9 L171.2 59.6 L171.1 59.4 L171.0 59.0 L170.9 58.8 L170.5 58.5 L170.4 58.3 L170.6 58.2 L170.8 58.0 L170.8 57.8 L170.8 57.7 L170.8 57.5 L171.0 57.3 L171.3 57.2 L171.9 57.1 L172.3 57.2 L174.9 57.9 L175.5 57.9 L175.9 58.1 L176.1 58.2 L177.1 58.2 L178.0 58.4 L178.4 58.4 L180.0 58.2 L181.5 58.2 L182.4 58.1 L182.6 57.7 L182.6 57.6 L182.7 57.6 L183.1 57.6 L183.3 57.7 L183.4 57.6 L183.6 57.5 L183.7 57.3 L183.9 57.3 L184.5 57.2 L184.7 57.0 L184.8 56.8 L184.7 56.6 L184.7 56.4 L184.8 56.2 L185.2 55.9 L185.2 55.7 L185.3 55.5 L185.2 55.2 L185.1 54.8 L185.1 54.6 L185.5 53.8 L185.4 53.5 L184.6 53.1 L184.2 52.8 L183.9 52.5 L183.6 52.2 L183.5 52.0 L183.5 51.7 L183.5 51.5 L183.6 51.2 L183.8 51.2 L183.8 51.2 L184.1 51.2 L184.5 51.2 L184.7 51.1 L184.9 50.9 L184.9 50.6 L184.9 50.4 L184.8 50.1 L184.8 49.9 L184.9 49.8 L185.7 49.3 L186.2 49.1 L186.3 48.9 L187.0 48.2 L187.1 47.8 L187.4 47.4 L187.8 47.2 L189.2 46.7 L189.3 46.7 L189.5 46.6 L189.5 46.5 L189.6 46.2 L189.7 46.1 L189.7 46.1 L189.7 46.1 L189.9 46.0 L189.9 45.9 L190.0 45.8 L189.9 45.7 L189.9 45.1 L190.2 44.8 L191.0 44.4 L191.3 44.0 L191.4 43.8 L191.4 43.6 L191.0 43.4 L190.4 42.8 L190.2 42.5 L190.2 42.2 L190.5 41.8 L191.1 41.4 L191.2 41.2 L191.2 41.0 L191.1 40.8 L191.0 40.7 L190.9 40.6 L190.8 40.5 L190.8 40.2 L190.8 40.0 L190.9 39.8 L190.9 39.6 L190.8 39.4 L190.6 39.3 L190.0 39.0 L189.7 38.9 L189.6 38.7 L189.8 38.4 L190.0 38.2 L190.0 38.0 L190.0 37.8 L189.8 37.6 L189.8 37.5 L189.6 37.4 L189.5 37.3 L189.5 37.2 L189.5 37.1 L189.5 37.0 L189.5 36.9 L189.4 36.7 L189.0 36.1 L188.8 36.0 L188.3 35.7 L188.2 35.5 L188.1 35.1 L188.0 34.9 L187.6 34.8 L187.3 34.8 L187.0 34.6 L186.7 34.4 L186.5 34.3 L186.1 34.1 L186.0 34.0 L186.0 34.0 L185.9 33.8 L186.0 33.6 L186.4 33.3 L186.5 33.2 L186.5 32.9 L186.6 32.8 L187.0 32.6 L187.4 32.5 L187.5 32.4 L187.6 32.3 L187.6 32.0 L187.7 32.0 L188.4 31.8 L188.7 31.6 L189.6 30.8 L189.8 30.7 L190.0 30.6 L190.3 30.6 L190.5 30.5 L190.4 30.3 L190.3 30.2 L190.4 30.0 L190.7 29.7 L190.8 29.6 L190.9 29.4 L191.0 29.1 L191.1 29.0 L191.3 28.9 L191.6 29.0 L192.2 29.4 L192.6 29.7 L192.7 29.7 L192.9 29.7 L193.1 29.7 L193.3 29.6 L193.2 29.4 L193.0 29.1 L193.0 28.7 L193.2 28.6 L194.0 28.5 L194.2 28.5 L194.3 28.4 L194.5 28.3 L194.6 28.2 L195.2 27.9 L195.4 27.7 L195.6 27.6 L196.1 27.5 L196.3 27.4 L196.3 27.3 L196.3 27.2 L196.2 27.1 L196.3 27.0 L196.5 26.9 L196.8 26.9 L197.5 26.8 L197.7 26.7 L197.6 26.5 L197.4 26.3 L197.4 26.1 L197.6 26.0 L198.1 25.8 L199.2 25.6 L199.7 25.6 L200.2 25.5 L200.7 25.5 L201.0 25.5 L201.7 25.0 L202.3 24.7 L203.0 24.6 L203.8 24.5 L204.8 24.7 L205.8 24.6 L206.1 24.5 L206.4 24.4 L206.7 24.4 L207.1 24.5 L207.2 24.5 L207.4 24.4 L207.6 24.3 L207.8 24.2 L209.6 24.1 L209.9 24.1 L210.3 24.2 L210.5 24.2 L210.6 24.2 L211.2 24.0 L211.8 24.0 L212.5 24.0 L212.9 24.0 L213.3 24.1 L214.8 23.8 L215.6 23.9 L215.6 23.9 L215.6 23.9 L215.6 23.9 L216.4 23.9 L217.1 24.0 L217.4 24.1 L218.4 24.6 L218.7 24.7 L219.1 24.8 L219.4 24.8 L220.1 24.6 L220.2 24.5 L220.3 24.1 L220.4 23.9 L220.5 23.8 L220.7 23.8 L221.5 23.9 L221.8 23.8 L222.3 23.4 L223.3 22.9 L223.6 22.7 L224.1 22.6 L224.3 22.6 L224.6 22.6 L224.6 22.7 L224.7 22.7 L224.9 23.0 L225.1 23.1 L225.3 23.1 L225.4 22.7 L225.4 22.6 L225.4 22.5 L225.4 22.5 L225.3 22.4 L225.6 22.3 L226.3 22.1 L226.7 22.0 L226.9 22.0 L227.1 22.2 L227.4 22.4 L228.3 22.5 L228.6 22.7 L228.6 22.7 L229.0 23.1 L229.1 23.3 L229.1 23.6 L229.2 23.7 L229.3 23.7 L229.4 23.6 L229.5 23.2 L229.6 23.1 L229.8 23.0 L230.0 22.9 L230.4 22.8 L230.9 22.8 L231.9 22.7 L232.1 22.7 L232.2 22.8 L232.6 23.1 L233.0 23.2 L234.3 23.5 L234.8 23.6 L235.1 23.9 L235.3 24.2 L235.4 24.7 L235.4 25.1 L235.5 25.6 L235.7 25.9 L236.4 25.9 L236.5 25.8 L236.5 25.7 L236.6 25.6 L237.3 25.4 L238.3 25.5 L239.2 25.9 L239.9 26.3 L240.6 26.8 L240.9 27.1 L242.1 28.9 L242.1 28.9 L242.1 29.1 Z" fill="#172033" fill-rule="evenodd"/></svg>
