<svg xmlns="http://www.w3.org/2000/svg" viewBox="0 0 320 200" role="img"><path d="M112.5 134.4 L117.1 137.3 L121.3 139.5 L118.0 141.8 L114.2 144.8 L114.2 144.8 L112.4 145.9 L99.2 156.7 L96.7 160.9 L96.6 162.9 L97.6 166.9 L97.2 168.9 L93.1 172.7 L87.1 176.5 L85.2 178.0 L83.1 172.4 L82.4 170.5 L79.6 166.0 L82.2 164.5 L83.9 162.7 L89.1 158.6 L91.5 155.0 L97.0 151.5 L99.3 147.9 L108.1 140.1 L112.2 135.0 L112.5 134.4 Z M171.8 89.4 L173.1 88.1 L173.2 86.3 L172.9 84.3 L174.2 83.2 L171.5 75.1 L171.8 71.1 L170.6 68.0 L168.9 65.3 L168.4 63.7 L168.8 62.0 L173.3 58.4 L174.2 57.0 L174.6 55.5 L174.4 54.2 L173.6 53.3 L172.1 53.0 L172.5 51.4 L172.9 47.7 L173.4 46.2 L173.8 46.0 L175.4 45.5 L175.8 45.2 L176.7 42.8 L177.1 40.8 L178.6 34.7 L180.9 31.3 L183.9 29.4 L187.5 28.0 L191.1 26.1 L194.0 23.2 L195.7 22.1 L197.8 22.0 L198.0 22.1 L199.5 22.8 L202.9 25.1 L205.0 25.8 L212.4 25.5 L215.9 25.8 L219.4 27.6 L220.4 30.4 L220.3 34.0 L221.0 37.0 L224.0 37.7 L226.8 37.8 L229.6 38.4 L239.1 40.5 L239.4 41.4 L239.6 42.5 L238.9 42.5 L238.9 41.7 L238.0 41.7 L238.0 42.5 L238.6 43.6 L238.5 47.1 L239.6 48.9 L239.1 50.2 L239.0 52.5 L239.5 54.7 L240.4 56.1 L239.8 56.4 L239.4 56.7 L239.1 57.1 L238.9 57.7 L240.4 57.7 L238.9 63.3 L238.4 65.2 L238.9 66.5 L238.9 67.4 L237.9 67.8 L237.4 68.4 L237.4 69.0 L238.0 69.7 L236.0 72.6 L236.0 74.0 L237.2 75.4 L235.2 76.8 L234.6 78.8 L234.8 84.2 L236.1 87.0 L236.3 88.2 L236.4 89.8 L236.6 90.8 L237.3 92.1 L237.2 93.0 L236.7 93.6 L235.9 93.8 L235.1 94.1 L234.8 95.1 L237.7 104.4 L236.4 105.9 L236.4 106.8 L238.9 113.1 L235.1 116.6 L232.2 122.5 L229.6 127.6 L227.7 136.2 L227.1 144.8 L227.1 145.0 L227.1 145.1 L227.1 145.2 L227.0 145.1 L219.0 145.7 L212.3 149.0 L199.5 158.1 L192.6 160.3 L178.0 160.2 L171.0 161.0 L168.0 161.9 L164.8 162.4 L161.7 161.9 L159.1 160.3 L157.7 156.3 L159.5 152.4 L164.7 144.8 L165.4 141.0 L165.4 137.7 L166.0 134.6 L167.8 131.5 L168.1 131.1 L170.2 128.9 L180.3 123.5 L184.3 120.5 L186.7 118.7 L188.0 116.9 L190.8 116.4 L191.4 116.8 L192.9 117.0 L194.3 118.4 L197.4 118.0 L199.0 119.0 L199.6 118.5 L200.0 118.7 L200.4 119.3 L201.2 119.7 L201.7 119.5 L201.9 118.5 L202.5 118.0 L202.9 116.3 L203.6 115.8 L204.1 115.0 L203.7 114.1 L203.0 113.4 L202.9 112.6 L203.6 110.9 L204.1 110.2 L203.8 109.9 L203.6 109.0 L203.3 107.6 L203.9 106.8 L204.4 105.9 L203.8 105.7 L203.0 105.6 L202.8 105.4 L203.5 104.5 L203.0 104.2 L202.6 103.8 L202.0 103.7 L200.7 104.0 L200.0 103.1 L199.8 102.3 L199.9 101.1 L199.3 99.7 L198.2 99.5 L197.4 100.0 L197.3 100.7 L197.8 101.6 L198.3 102.8 L198.6 104.4 L198.6 106.2 L198.6 106.7 L198.3 106.8 L196.4 105.9 L195.6 105.9 L194.8 106.1 L194.7 106.7 L195.1 107.4 L195.1 108.0 L193.7 108.1 L189.4 107.4 L187.5 106.1 L186.5 106.2 L184.7 105.4 L183.6 103.4 L182.3 102.7 L180.9 102.6 L179.9 102.8 L178.7 103.4 L176.5 105.2 L174.8 105.6 L173.5 105.7 L171.0 105.4 L170.7 105.1 L170.8 104.7 L172.1 103.7 L173.1 102.7 L174.1 102.5 L176.8 102.3 L177.3 101.9 L177.9 96.3 L176.8 94.4 L175.2 94.2 L173.9 93.4 L173.8 92.7 L174.2 92.0 L173.5 91.5 L171.8 89.4 Z" fill="#172033" fill-rule="evenodd"/></svg>
