<svg xmlns="http://www.w3.org/2000/svg" viewBox="0 0 320 200" role="img"><path d="M182.5 122.4 L181.2 122.7 L180.9 122.9 L180.7 123.2 L180.3 123.5 L179.8 123.9 L179.3 124.0 L178.9 124.3 L177.6 125.1 L177.5 125.3 L177.2 125.7 L177.1 125.9 L176.9 126.9 L176.9 127.6 L176.9 127.9 L176.9 128.1 L177.1 128.3 L177.3 128.4 L177.5 128.5 L177.6 128.8 L177.4 129.2 L176.1 130.6 L175.6 132.1 L175.3 132.5 L175.6 132.9 L175.6 133.2 L175.3 133.6 L174.9 133.9 L175.3 134.1 L176.1 134.6 L179.3 137.8 L179.5 138.0 L179.7 138.4 L179.8 138.6 L180.0 138.8 L180.5 139.1 L180.7 139.2 L181.9 141.6 L182.2 141.9 L182.6 142.2 L183.0 142.2 L183.8 142.0 L184.5 141.8 L184.9 141.4 L185.1 141.4 L185.2 141.4 L186.0 141.2 L186.8 141.2 L187.2 141.4 L187.3 141.5 L187.0 142.3 L186.8 142.8 L186.3 143.8 L185.8 144.7 L185.5 145.6 L185.2 146.0 L185.0 146.7 L184.2 146.8 L182.5 146.2 L182.0 146.2 L181.7 146.4 L181.4 147.1 L181.1 147.4 L180.9 147.5 L180.5 147.6 L180.1 147.7 L179.7 147.7 L179.4 147.6 L179.0 147.6 L178.6 147.8 L177.7 147.9 L177.5 148.1 L177.5 148.3 L177.6 148.6 L177.6 148.9 L177.4 149.5 L176.8 150.9 L176.5 151.9 L175.6 153.1 L172.8 154.9 L172.3 155.6 L171.9 156.5 L171.6 157.9 L171.5 158.4 L171.3 158.6 L170.5 159.3 L170.2 159.4 L170.3 159.6 L170.2 159.8 L170.2 159.9 L170.1 160.1 L169.8 160.4 L169.7 160.5 L169.7 160.8 L169.8 160.8 L169.9 160.8 L170.1 161.2 L170.1 161.4 L170.2 161.6 L170.2 161.6 L170.4 162.0 L170.7 162.2 L171.2 162.5 L171.3 162.7 L171.6 163.2 L171.7 164.0 L171.8 164.6 L171.8 165.0 L172.3 165.9 L172.5 168.3 L172.8 169.3 L172.6 169.8 L172.8 170.5 L173.2 171.8 L173.3 171.9 L173.4 172.1 L173.4 172.2 L173.6 172.2 L173.6 172.4 L173.4 172.6 L172.9 172.3 L172.3 172.2 L171.6 172.2 L170.9 172.2 L170.3 172.4 L169.0 173.1 L168.5 173.2 L166.8 174.2 L166.5 174.4 L162.0 176.9 L161.0 177.6 L160.5 177.6 L160.1 177.5 L159.4 177.4 L157.6 177.3 L157.0 177.2 L156.8 177.5 L156.5 177.5 L156.1 177.3 L155.8 177.2 L156.1 177.5 L156.2 177.7 L156.2 178.0 L155.5 177.2 L154.5 176.5 L152.3 175.5 L151.1 175.3 L150.1 174.9 L149.1 175.0 L146.7 175.3 L145.6 175.0 L144.5 174.6 L143.6 175.0 L142.3 175.1 L141.0 174.7 L140.9 174.8 L139.3 174.0 L138.0 173.9 L136.6 173.9 L136.2 174.0 L135.8 174.3 L134.8 175.1 L132.9 175.1 L132.6 175.2 L131.8 175.6 L131.4 175.7 L131.0 175.7 L130.2 175.9 L129.6 176.4 L129.0 176.2 L128.4 176.6 L128.2 176.8 L127.9 176.9 L127.3 177.3 L127.0 177.4 L126.5 177.2 L126.2 177.0 L125.8 176.8 L125.4 177.0 L125.6 176.1 L125.8 175.7 L125.9 175.5 L127.1 174.0 L127.5 173.2 L127.9 172.5 L127.7 171.6 L128.2 171.2 L128.9 170.6 L129.3 169.2 L129.1 168.7 L128.9 168.2 L129.4 167.5 L130.2 166.7 L130.4 166.0 L130.9 165.0 L131.2 163.6 L131.4 162.8 L131.5 161.4 L131.3 160.7 L131.0 160.2 L130.6 159.9 L130.6 159.5 L131.0 158.1 L131.1 157.3 L131.4 156.5 L131.8 156.4 L132.6 156.3 L132.8 155.5 L132.8 155.4 L132.5 155.6 L131.9 155.8 L131.1 155.8 L130.9 155.2 L131.1 153.7 L131.5 152.1 L131.4 151.1 L131.2 150.4 L130.7 149.6 L129.7 149.5 L128.5 148.8 L128.7 148.6 L128.9 148.5 L129.1 148.4 L129.3 148.2 L130.9 145.5 L131.5 143.4 L132.1 141.8 L132.0 140.1 L131.8 138.2 L131.5 136.6 L130.7 135.4 L130.0 134.7 L129.0 133.8 L127.9 133.1 L127.1 132.9 L127.5 132.5 L128.2 132.7 L129.3 133.5 L130.7 133.9 L131.4 134.2 L131.4 134.5 L132.7 134.5 L135.7 135.2 L137.2 134.8 L136.3 134.7 L135.5 134.6 L133.3 133.8 L133.0 133.5 L132.9 133.1 L132.8 132.7 L132.9 132.3 L133.0 132.0 L133.3 131.9 L133.3 131.6 L132.8 131.5 L132.5 131.2 L132.4 130.7 L132.6 130.4 L132.2 130.3 L131.6 131.3 L131.0 131.4 L131.0 131.6 L131.7 131.7 L132.0 132.1 L132.0 132.6 L131.7 132.9 L131.0 132.8 L130.4 132.7 L129.3 132.3 L128.2 131.9 L126.7 132.2 L125.3 133.4 L125.6 133.5 L123.9 134.1 L120.9 134.4 L120.3 134.6 L119.8 134.9 L119.3 135.0 L118.5 134.8 L118.4 134.8 L118.3 134.6 L118.3 134.4 L118.4 134.2 L118.5 134.1 L118.7 133.9 L119.6 133.1 L119.8 132.2 L119.8 130.8 L119.0 129.4 L118.1 128.2 L117.7 127.3 L118.3 127.1 L119.7 126.9 L121.0 126.8 L121.6 127.1 L121.9 127.5 L122.1 127.5 L121.9 126.9 L122.3 126.7 L123.3 126.5 L123.7 126.5 L123.7 126.3 L124.2 125.9 L124.7 125.5 L125.6 125.0 L126.6 124.2 L126.8 124.2 L126.9 124.0 L127.1 124.0 L127.1 123.8 L126.8 123.4 L126.4 122.8 L126.2 122.2 L126.4 121.7 L125.7 121.8 L125.4 121.3 L125.3 120.5 L125.0 119.8 L126.3 117.7 L127.0 116.8 L128.1 116.1 L128.7 116.0 L130.0 115.9 L130.6 115.7 L131.7 115.1 L132.1 114.7 L132.4 114.3 L131.6 114.7 L130.3 115.5 L127.7 115.7 L127.3 116.0 L126.7 116.8 L125.2 118.5 L123.6 121.1 L122.6 121.9 L122.3 122.3 L122.1 122.8 L122.2 123.4 L122.2 124.4 L122.4 125.1 L121.9 125.8 L120.4 126.2 L118.7 126.5 L116.7 126.3 L116.2 126.6 L115.6 127.2 L114.4 126.6 L113.1 126.1 L112.4 126.1 L111.1 126.2 L110.5 126.0 L110.5 125.4 L110.7 124.9 L110.3 123.6 L110.3 123.0 L110.5 122.7 L110.8 122.3 L111.6 121.7 L112.6 119.3 L112.5 117.5 L112.1 116.3 L112.4 115.7 L112.6 114.8 L113.7 113.2 L114.1 112.4 L114.7 111.3 L114.9 110.1 L115.0 109.2 L114.6 107.7 L114.3 107.1 L113.2 106.2 L113.0 105.9 L113.3 105.8 L114.7 106.1 L116.9 105.0 L117.5 104.6 L118.1 104.5 L118.4 104.9 L118.8 105.0 L119.1 104.7 L118.9 104.3 L118.4 103.9 L118.9 103.3 L119.6 102.7 L119.8 102.3 L120.4 102.1 L121.2 101.6 L121.7 101.1 L122.0 100.6 L122.6 99.7 L122.7 99.2 L122.6 98.6 L123.0 97.8 L123.2 96.7 L125.5 91.8 L129.3 83.3 L129.8 82.8 L130.1 83.2 L130.6 83.4 L131.8 83.4 L131.8 83.2 L131.3 82.9 L130.9 82.6 L130.4 82.4 L129.0 82.3 L128.5 82.0 L128.2 81.6 L128.1 81.0 L128.5 80.1 L129.4 78.7 L131.4 72.7 L131.8 70.8 L132.4 69.4 L132.8 67.7 L132.9 67.6 L133.0 67.5 L133.1 68.1 L133.0 68.3 L133.6 67.6 L134.1 67.3 L134.5 67.5 L134.7 67.5 L134.7 67.3 L134.6 67.2 L134.5 67.1 L134.4 66.9 L134.5 66.7 L134.8 66.6 L135.0 66.6 L135.1 66.8 L135.2 66.9 L135.5 66.8 L135.8 66.6 L136.2 66.1 L135.7 65.8 L135.4 65.5 L135.5 65.2 L136.1 65.0 L136.7 65.0 L137.3 64.8 L137.8 64.6 L138.2 64.2 L137.7 64.2 L137.0 64.5 L136.3 64.6 L136.2 64.7 L136.0 64.7 L135.3 64.5 L135.1 64.2 L134.9 63.4 L136.0 62.2 L135.7 61.5 L135.7 62.0 L135.5 62.4 L135.3 62.5 L135.1 62.1 L134.7 62.7 L134.4 63.5 L134.2 64.4 L134.1 65.1 L134.0 65.6 L133.6 66.3 L133.2 67.0 L132.9 67.3 L135.7 57.0 L135.7 55.9 L135.4 53.9 L135.4 52.8 L135.9 52.4 L135.9 52.2 L134.8 52.0 L134.2 51.2 L133.8 50.1 L133.3 49.3 L133.4 48.9 L133.3 48.6 L133.2 48.2 L133.0 47.9 L133.0 46.9 L132.9 46.6 L132.7 46.5 L132.6 46.2 L132.5 45.9 L132.0 45.4 L131.9 44.9 L131.9 44.6 L131.8 43.7 L132.1 42.7 L131.8 42.0 L131.7 41.4 L131.6 41.0 L131.5 40.4 L131.1 39.5 L131.0 38.9 L130.8 38.4 L130.8 37.8 L130.5 37.3 L130.4 36.6 L130.6 36.2 L131.2 36.0 L133.1 35.8 L133.6 35.6 L134.1 35.3 L134.5 35.0 L131.2 35.8 L130.5 35.9 L130.1 35.8 L129.5 35.6 L128.9 34.6 L128.9 33.7 L129.2 32.4 L129.0 31.5 L129.1 31.2 L129.3 30.9 L131.5 29.6 L132.5 28.7 L132.9 27.6 L133.2 27.4 L133.9 27.1 L134.7 27.0 L135.3 26.6 L135.5 26.3 L135.8 25.7 L136.1 25.4 L136.6 25.1 L137.1 25.0 L138.2 25.0 L138.8 24.8 L139.8 24.3 L140.4 24.1 L145.1 23.6 L145.6 23.4 L146.3 22.8 L146.6 22.7 L146.8 22.7 L147.4 22.7 L147.9 22.5 L148.8 22.0 L149.1 22.3 L149.4 22.7 L149.3 24.0 L149.4 24.5 L149.7 24.8 L150.2 24.7 L150.7 24.5 L151.4 24.4 L151.9 24.6 L152.4 25.0 L152.7 25.4 L152.6 25.9 L152.3 26.3 L151.8 26.6 L150.9 27.0 L150.0 27.7 L148.9 29.0 L148.6 29.5 L148.5 30.1 L148.9 30.6 L149.9 30.9 L150.2 31.2 L150.2 31.6 L150.1 32.3 L150.1 32.4 L152.7 32.5 L154.0 32.2 L154.1 32.2 L155.0 31.4 L155.3 31.0 L155.7 30.8 L156.1 30.6 L156.6 30.7 L157.2 30.7 L157.5 30.3 L157.6 29.8 L157.8 29.4 L158.4 29.2 L158.4 30.1 L158.6 30.9 L159.6 30.9 L159.8 30.8 L159.9 30.6 L160.1 30.4 L160.4 30.3 L161.2 30.3 L163.1 30.0 L163.9 29.7 L164.4 29.8 L165.2 30.2 L165.8 30.4 L167.4 30.5 L166.9 31.4 L166.9 31.7 L167.4 31.9 L168.0 31.9 L168.6 31.9 L169.2 31.7 L169.7 31.5 L169.8 31.2 L169.9 31.0 L169.9 30.9 L170.1 30.7 L170.4 30.7 L170.8 31.0 L171.1 31.0 L171.5 31.1 L171.9 31.5 L172.2 32.0 L172.3 32.5 L172.7 32.2 L173.5 31.6 L173.9 31.4 L174.3 31.3 L175.4 31.4 L176.0 31.3 L178.1 30.8 L179.1 30.3 L179.4 30.0 L179.7 29.6 L179.8 29.1 L179.6 28.2 L179.7 27.7 L179.9 27.6 L180.4 27.3 L180.9 27.1 L181.3 27.0 L182.3 27.5 L183.2 28.1 L184.2 28.4 L185.2 28.0 L185.9 27.7 L186.2 27.8 L186.6 27.9 L187.4 28.3 L188.2 28.5 L190.1 28.4 L190.8 28.0 L191.0 27.1 L191.9 27.3 L193.0 28.5 L193.9 28.7 L196.1 28.7 L197.1 28.4 L197.5 27.8 L198.2 28.0 L198.6 28.4 L198.8 28.9 L198.5 30.2 L198.8 30.4 L199.3 30.4 L200.1 30.6 L199.7 31.2 L199.0 33.7 L198.9 34.0 L198.7 34.2 L198.5 34.5 L198.6 34.8 L198.8 35.0 L198.9 35.3 L199.0 35.9 L199.1 36.5 L199.6 36.9 L200.4 37.2 L200.7 37.1 L201.2 36.9 L201.6 36.7 L201.8 36.5 L202.0 36.4 L202.4 36.4 L204.9 36.8 L206.3 37.2 L207.7 37.9 L209.0 38.9 L209.4 39.3 L209.7 39.6 L208.2 41.2 L207.5 41.8 L207.3 42.1 L207.3 42.4 L207.4 42.6 L207.4 42.8 L206.2 44.2 L206.2 44.4 L205.3 44.5 L204.8 44.6 L204.5 44.8 L204.5 44.8 L204.6 45.0 L204.5 45.3 L204.5 45.4 L204.3 45.5 L204.0 45.4 L203.8 45.4 L202.9 46.6 L201.9 47.3 L200.9 47.9 L199.2 48.5 L198.9 48.7 L196.9 48.7 L196.4 48.8 L196.0 49.0 L195.0 50.3 L194.7 50.7 L194.6 51.0 L193.5 51.7 L193.1 52.0 L193.0 52.2 L193.1 53.0 L192.8 53.5 L191.6 54.9 L191.2 55.2 L190.4 55.3 L188.5 55.1 L187.9 55.4 L187.9 55.4 L187.8 56.0 L187.5 56.3 L187.5 56.7 L187.8 57.1 L188.8 57.8 L189.2 58.4 L189.8 59.6 L190.1 60.2 L190.3 60.5 L190.8 60.6 L191.1 60.8 L191.3 61.2 L191.1 61.5 L190.6 61.7 L190.6 62.4 L190.6 62.6 L190.7 62.9 L190.7 63.1 L190.6 63.3 L190.6 63.6 L190.6 64.2 L190.6 64.6 L191.0 65.6 L191.3 66.6 L191.3 67.1 L191.3 67.5 L191.1 68.0 L190.4 69.0 L190.2 69.4 L190.3 70.0 L190.6 70.3 L190.9 70.6 L191.2 71.0 L191.4 71.5 L191.3 71.9 L190.6 72.6 L190.0 73.7 L190.2 74.7 L190.9 75.5 L191.9 76.3 L191.4 77.0 L191.1 77.2 L189.8 77.9 L189.6 78.1 L189.5 78.3 L189.5 78.6 L189.5 78.8 L189.4 79.0 L188.8 79.3 L188.3 79.3 L187.7 79.3 L187.5 79.3 L187.1 79.4 L185.8 80.0 L185.2 80.2 L185.0 80.5 L184.7 81.2 L184.4 81.5 L184.7 82.0 L184.9 83.0 L185.2 83.4 L185.6 83.5 L186.4 83.6 L186.7 83.7 L187.1 83.9 L187.5 84.4 L188.1 85.1 L189.3 86.7 L188.8 87.4 L188.7 87.7 L188.7 88.1 L188.6 88.3 L188.4 89.1 L188.4 89.2 L188.1 89.4 L188.0 89.5 L188.0 89.7 L188.1 90.0 L188.1 90.1 L188.0 90.4 L188.0 90.9 L187.9 91.2 L187.1 92.1 L186.9 92.2 L186.2 92.4 L185.9 92.6 L185.7 93.0 L185.7 93.3 L185.9 93.6 L185.9 93.8 L185.8 94.1 L185.5 94.6 L185.3 94.9 L185.3 95.2 L185.4 95.4 L185.4 95.6 L185.1 96.3 L184.6 96.4 L180.2 96.8 L179.3 96.8 L178.6 96.5 L178.1 96.6 L176.9 96.6 L176.3 96.7 L175.8 96.8 L175.4 96.9 L168.9 96.7 L168.9 96.8 L169.2 97.2 L170.1 99.3 L170.7 99.7 L171.6 100.6 L172.1 101.0 L173.1 101.4 L173.4 101.6 L173.7 102.3 L174.1 102.6 L174.8 102.8 L176.0 103.1 L176.2 103.4 L176.2 104.0 L176.1 104.7 L175.9 105.2 L175.7 105.6 L175.7 106.3 L175.9 106.9 L176.1 107.3 L176.6 107.6 L178.1 109.0 L177.7 109.6 L177.7 110.2 L177.9 110.8 L178.3 111.3 L179.1 111.6 L179.9 111.8 L180.6 112.1 L181.0 112.6 L180.9 112.9 L180.6 113.5 L180.7 113.8 L181.0 114.0 L181.4 114.2 L181.9 114.3 L182.2 114.2 L183.0 113.8 L183.8 113.8 L184.5 113.9 L185.2 114.3 L185.7 114.7 L186.1 115.2 L186.3 115.8 L186.1 116.3 L186.5 116.5 L186.5 116.8 L186.4 117.1 L186.1 117.4 L185.0 118.9 L184.4 119.7 L183.7 120.1 L184.1 120.7 L184.0 121.2 L184.0 121.6 L183.8 121.7 L183.4 121.9 L183.0 122.2 L182.5 122.4 Z" fill="#172033" fill-rule="evenodd"/></svg>
