<svg xmlns="http://www.w3.org/2000/svg" viewBox="0 0 320 200" role="img"><path d="M130.9 165.3 L132.0 165.6 L132.6 166.2 L132.7 167.0 L132.8 168.1 L132.2 168.8 L130.9 171.1 L132.1 172.9 L131.5 173.4 L130.2 173.5 L129.0 174.0 L127.0 176.8 L125.7 178.0 L125.2 177.3 L125.9 174.6 L130.9 165.3 Z M157.9 134.5 L155.8 135.1 L156.1 136.3 L157.2 137.7 L157.9 138.8 L157.1 139.8 L155.4 140.2 L152.6 140.3 L151.2 141.0 L147.9 144.3 L145.8 145.1 L144.0 144.7 L142.7 143.8 L141.8 142.5 L141.5 140.8 L141.6 138.2 L142.0 137.8 L146.5 142.4 L147.4 142.3 L149.2 141.2 L154.1 136.8 L155.1 135.5 L155.2 133.8 L154.7 132.3 L154.7 131.4 L155.9 131.7 L156.6 132.1 L157.2 132.6 L157.7 133.4 L157.9 134.5 Z M158.9 125.0 L161.4 125.6 L164.6 127.1 L166.8 129.3 L166.1 132.1 L164.6 132.5 L163.4 131.0 L162.5 129.0 L161.7 127.7 L159.8 127.2 L158.5 127.6 L155.9 129.7 L155.6 127.7 L155.9 126.0 L156.9 124.9 L158.9 125.0 Z M183.7 74.9 L185.4 79.6 L185.9 86.2 L185.1 92.9 L183.3 97.6 L180.6 101.4 L180.5 102.3 L182.0 104.3 L182.0 105.2 L181.4 105.9 L180.2 109.5 L176.9 113.7 L176.2 116.7 L177.1 122.0 L176.5 123.9 L175.8 124.3 L175.1 124.1 L173.5 124.0 L172.2 123.2 L171.3 123.0 L170.6 123.6 L169.2 125.5 L168.4 125.9 L166.9 125.7 L166.3 125.2 L166.1 124.3 L164.8 120.9 L163.8 116.3 L162.9 114.3 L161.7 113.5 L160.9 113.5 L160.6 113.3 L160.8 111.5 L161.2 109.9 L162.0 108.5 L163.1 107.3 L164.6 106.6 L165.1 108.4 L166.4 108.6 L167.7 107.6 L168.4 105.7 L168.0 104.6 L166.9 103.4 L164.6 101.8 L165.7 100.8 L167.5 98.1 L169.2 97.0 L169.5 97.1 L169.6 96.3 L169.6 94.4 L169.5 94.2 L170.9 91.5 L172.6 89.7 L175.0 88.8 L178.6 88.5 L181.9 87.5 L182.7 85.2 L181.6 77.9 L180.3 75.1 L180.0 73.5 L180.5 72.8 L181.8 73.1 L183.1 73.9 L183.7 74.9 Z M192.4 22.0 L194.1 22.0 L194.8 23.9 L193.5 27.3 L191.2 28.5 L190.0 27.0 L190.0 25.0 L192.4 22.0 Z" fill="#172033" fill-rule="evenodd"/></svg>
