<svg xmlns="http://www.w3.org/2000/svg" viewBox="0 0 320 200" role="img"><path d="M81.0 77.4 L81.4 76.5 L82.0 74.7 L82.5 73.0 L83.3 70.5 L84.0 68.3 L84.9 65.6 L85.5 63.6 L86.2 61.4 L86.8 59.3 L87.5 57.4 L88.1 55.5 L88.1 54.2 L88.1 54.2 L88.1 51.5 L88.1 49.7 L88.0 48.0 L88.0 46.3 L88.2 45.8 L88.9 44.8 L89.3 44.3 L89.7 43.7 L90.5 42.6 L91.4 41.4 L92.2 40.3 L93.0 39.2 L93.3 38.7 L93.7 38.3 L94.0 37.8 L94.3 37.4 L94.5 36.9 L94.7 36.6 L94.8 36.4 L95.0 35.9 L95.3 35.4 L95.8 34.0 L96.3 32.7 L96.8 31.3 L97.4 29.9 L97.7 29.0 L97.9 28.8 L98.2 28.6 L99.8 28.4 L100.3 28.3 L101.1 28.2 L102.0 28.1 L102.4 28.0 L108.8 26.7 L115.2 25.4 L121.5 24.1 L127.9 22.8 L130.7 22.2 L132.2 22.2 L135.8 22.2 L139.3 22.1 L142.9 22.1 L146.4 22.0 L147.9 22.0 L148.3 22.1 L148.9 22.5 L149.4 22.8 L150.4 23.4 L152.1 24.4 L153.9 25.4 L155.6 26.5 L157.4 27.5 L159.1 28.5 L160.9 29.6 L162.6 30.6 L164.4 31.6 L165.1 32.0 L165.3 32.3 L165.4 32.5 L165.3 33.2 L165.4 33.8 L165.7 34.8 L165.8 35.4 L165.7 35.8 L165.7 36.6 L165.7 37.0 L165.4 38.0 L165.4 38.5 L165.4 38.8 L165.6 38.9 L165.7 38.9 L165.8 38.9 L166.0 39.0 L166.2 39.2 L166.2 39.4 L165.5 39.7 L165.4 40.0 L165.5 40.3 L165.8 40.6 L166.0 40.5 L166.0 40.4 L166.2 40.3 L166.4 40.3 L166.5 40.4 L166.6 40.5 L166.7 40.7 L166.5 41.2 L166.6 41.7 L166.7 42.2 L166.9 42.5 L167.2 42.8 L167.6 43.1 L168.0 43.3 L168.3 43.4 L168.6 43.5 L168.6 43.9 L168.3 44.4 L168.2 44.8 L168.2 45.3 L168.3 45.7 L168.5 46.2 L168.6 46.4 L168.5 46.8 L168.6 47.1 L168.8 47.4 L168.9 47.6 L168.9 47.8 L168.8 48.2 L168.8 48.4 L168.9 48.6 L169.1 48.8 L169.2 48.7 L169.4 48.1 L169.7 47.9 L170.0 48.0 L170.2 48.2 L170.3 48.3 L170.4 48.6 L170.5 48.7 L170.6 48.8 L170.9 49.0 L171.0 49.1 L171.1 49.3 L170.9 49.5 L170.7 49.5 L170.3 49.6 L170.2 49.7 L170.0 50.0 L169.7 50.2 L169.5 50.3 L169.7 50.4 L170.1 50.5 L170.5 50.6 L170.8 50.8 L171.1 51.0 L171.1 51.4 L170.9 51.6 L170.1 52.0 L170.0 52.2 L170.0 52.4 L170.1 52.5 L170.3 52.6 L170.3 52.6 L170.4 52.6 L170.9 52.9 L171.3 53.4 L171.4 53.4 L171.5 53.0 L171.8 53.3 L171.9 53.7 L171.7 54.2 L171.2 54.9 L171.2 55.2 L171.5 55.8 L171.6 56.6 L171.5 57.5 L171.3 58.3 L170.8 58.9 L170.3 59.2 L170.2 59.4 L170.2 59.6 L170.3 59.7 L170.4 59.8 L170.5 60.0 L170.6 60.1 L170.9 60.2 L171.1 60.4 L171.0 60.9 L169.7 62.7 L169.4 63.4 L169.4 63.8 L169.4 64.2 L169.5 64.5 L169.9 64.6 L170.1 64.8 L169.9 65.2 L169.7 65.6 L169.6 65.9 L169.6 66.2 L169.8 66.6 L170.1 66.9 L170.3 67.0 L170.4 67.1 L169.6 68.4 L169.6 68.8 L169.6 69.1 L169.6 69.5 L169.4 69.9 L169.2 70.2 L169.4 70.5 L169.7 70.8 L169.8 71.2 L169.7 71.4 L169.3 72.2 L169.1 72.4 L169.1 72.6 L168.7 73.7 L168.6 73.9 L168.6 74.2 L168.7 74.4 L168.9 74.5 L168.9 74.5 L169.1 74.7 L169.3 75.0 L169.5 75.2 L170.2 75.4 L170.4 75.4 L170.7 75.3 L170.8 75.3 L171.0 75.4 L171.3 75.6 L171.4 75.7 L171.6 75.6 L171.9 75.4 L172.1 75.4 L172.3 75.5 L172.4 75.4 L172.6 75.3 L172.6 75.3 L172.6 75.2 L172.6 75.1 L172.7 75.0 L172.7 75.0 L172.9 75.1 L173.0 75.1 L173.4 74.9 L173.6 75.0 L173.9 75.0 L174.3 75.0 L174.5 75.0 L174.6 74.9 L174.7 74.9 L174.9 75.0 L175.2 75.7 L175.4 76.1 L175.7 76.3 L176.0 76.4 L176.4 76.3 L176.6 76.3 L176.7 76.2 L176.8 76.2 L177.0 76.2 L177.2 76.3 L177.6 76.5 L178.3 76.4 L178.5 76.4 L178.9 76.5 L179.1 76.5 L179.4 76.6 L180.0 77.0 L180.1 77.0 L180.2 76.9 L180.3 76.9 L180.6 77.1 L180.8 77.1 L180.9 77.0 L181.0 76.9 L181.0 76.8 L181.3 76.8 L182.1 77.0 L182.5 77.0 L182.9 76.6 L183.2 76.5 L183.3 76.6 L183.3 76.9 L183.5 77.0 L183.6 77.0 L183.8 77.0 L183.9 76.9 L184.0 76.9 L184.3 76.9 L184.9 77.1 L185.0 77.2 L185.1 77.2 L185.1 77.3 L185.2 77.4 L185.5 77.4 L185.6 77.5 L185.7 77.5 L185.9 77.4 L186.1 77.4 L186.7 77.4 L187.0 77.4 L187.5 77.5 L187.7 77.5 L187.9 77.4 L187.9 77.7 L188.0 77.8 L188.1 77.8 L188.3 77.8 L188.6 77.9 L188.8 77.9 L189.0 77.4 L189.2 77.7 L189.4 78.2 L189.5 78.4 L189.9 78.5 L190.2 78.4 L190.6 78.0 L190.7 77.8 L190.7 77.7 L190.8 77.7 L191.1 77.7 L191.2 77.7 L191.8 77.6 L192.0 77.6 L192.0 77.7 L192.0 77.7 L192.2 77.6 L192.3 77.5 L192.5 77.1 L192.6 77.0 L192.9 77.2 L193.5 77.9 L193.8 77.9 L193.9 77.8 L193.7 77.5 L193.8 77.3 L194.0 77.3 L194.2 77.2 L194.8 76.8 L195.0 76.6 L195.3 76.0 L195.4 76.0 L195.5 75.9 L195.6 75.9 L195.7 75.6 L195.7 75.4 L196.0 75.0 L196.2 74.9 L196.4 74.7 L196.7 74.6 L198.1 74.4 L198.3 74.4 L198.5 74.6 L199.0 75.8 L199.5 76.4 L200.1 76.9 L201.1 77.5 L201.7 78.0 L202.0 78.2 L202.3 78.2 L205.5 78.4 L205.8 78.3 L206.0 78.2 L206.3 78.3 L206.6 78.5 L206.8 78.7 L208.0 78.8 L208.4 79.0 L208.4 78.8 L208.6 78.4 L209.6 79.6 L210.3 80.2 L210.5 80.4 L210.7 80.8 L210.7 82.4 L210.9 83.1 L211.2 83.7 L211.7 84.2 L212.3 84.5 L212.7 84.6 L212.9 84.8 L213.1 85.0 L213.1 85.4 L213.1 85.5 L213.0 85.8 L213.0 86.0 L213.0 86.2 L213.2 86.5 L213.2 86.6 L213.0 87.3 L212.7 87.8 L212.4 88.4 L212.5 89.1 L212.9 90.5 L212.9 90.9 L212.8 91.5 L212.8 91.8 L213.3 92.3 L213.5 92.6 L213.6 93.0 L213.5 93.7 L213.5 94.0 L213.7 94.2 L214.3 94.5 L214.3 94.7 L214.7 96.1 L214.7 96.4 L214.3 97.3 L214.2 97.6 L214.4 98.0 L214.9 98.6 L215.1 98.9 L215.1 99.5 L214.6 100.5 L214.7 101.2 L214.8 101.8 L214.8 101.8 L214.8 102.5 L214.8 103.1 L215.2 103.6 L216.0 104.4 L216.4 105.6 L216.7 109.2 L216.9 109.7 L217.3 110.2 L217.9 110.4 L219.1 110.5 L219.7 110.6 L219.7 110.6 L219.7 110.6 L219.7 110.6 L220.4 110.8 L221.0 111.0 L221.7 110.9 L222.3 110.6 L222.3 110.6 L222.3 110.6 L222.8 110.4 L224.0 110.4 L224.6 110.2 L224.9 110.1 L225.5 110.1 L225.9 110.0 L226.2 109.8 L226.6 109.3 L226.8 109.1 L228.0 108.5 L230.5 107.7 L230.8 107.5 L231.3 107.0 L231.6 106.9 L232.1 107.0 L235.3 108.7 L235.6 109.0 L236.7 110.3 L238.5 111.3 L239.0 111.5 L239.0 111.5 L238.6 111.8 L237.9 112.3 L237.5 112.8 L237.3 113.4 L237.4 113.7 L237.6 114.3 L237.7 115.0 L237.8 115.2 L238.3 115.8 L238.4 116.2 L238.7 116.8 L238.7 117.3 L238.5 117.9 L238.3 118.3 L237.5 119.3 L237.3 119.9 L237.3 120.5 L237.6 121.8 L237.6 122.4 L236.9 124.3 L236.6 125.0 L236.1 125.7 L235.9 126.0 L235.1 129.4 L234.9 130.1 L234.9 130.4 L234.9 130.7 L235.0 131.1 L235.5 131.8 L235.6 132.2 L235.4 132.5 L234.8 133.1 L234.5 133.4 L234.1 134.6 L233.7 135.3 L233.3 135.7 L232.8 136.2 L232.4 136.9 L232.1 137.5 L232.1 137.7 L232.1 138.1 L232.2 138.5 L232.3 138.9 L232.5 139.2 L232.4 139.7 L232.3 140.1 L232.3 140.2 L232.3 140.5 L232.6 141.1 L232.6 141.5 L232.3 141.7 L231.7 141.6 L231.5 141.8 L231.5 142.3 L231.9 143.3 L231.9 143.7 L232.0 143.9 L232.4 144.4 L232.5 144.6 L232.5 145.0 L232.3 145.4 L232.1 145.7 L232.0 146.0 L232.2 146.8 L232.2 147.2 L232.0 147.5 L231.9 147.5 L231.4 147.5 L231.3 147.6 L231.1 147.8 L231.2 148.0 L231.2 148.2 L231.3 148.8 L231.5 149.4 L231.5 149.8 L231.1 151.0 L231.2 151.3 L231.5 151.6 L231.6 151.9 L231.5 152.1 L231.3 152.4 L231.1 152.6 L231.1 152.7 L231.1 152.8 L231.1 153.1 L231.1 154.0 L230.8 154.6 L230.8 154.7 L230.8 154.8 L230.6 155.9 L230.5 156.2 L230.3 156.5 L229.7 157.1 L229.2 157.5 L228.9 157.8 L228.8 158.1 L228.8 158.4 L228.9 158.6 L228.9 159.0 L228.9 159.4 L228.8 159.9 L228.7 160.3 L228.4 160.6 L228.2 160.7 L228.1 160.6 L228.0 160.5 L227.9 160.5 L227.1 160.5 L226.6 160.6 L226.3 160.8 L226.1 161.2 L225.9 162.1 L225.7 162.4 L225.5 162.7 L225.3 163.0 L225.0 163.1 L224.0 163.2 L223.7 163.3 L222.4 164.4 L222.3 164.7 L222.6 165.5 L222.5 165.9 L222.2 166.1 L221.8 166.2 L221.0 166.1 L220.7 166.1 L220.4 165.9 L220.0 165.7 L219.5 165.7 L218.6 166.2 L217.7 166.3 L217.4 166.4 L217.0 166.6 L216.7 166.9 L216.5 167.3 L216.4 167.6 L216.3 168.5 L216.1 168.8 L215.7 168.9 L215.1 168.8 L214.8 168.8 L214.6 169.1 L214.5 169.5 L214.4 169.9 L214.1 170.0 L213.6 170.1 L213.5 170.4 L214.0 171.2 L214.1 171.4 L214.1 171.6 L214.1 171.8 L213.8 172.2 L213.8 172.3 L213.9 172.5 L213.9 172.7 L213.7 173.1 L213.4 173.5 L213.0 173.7 L212.5 173.7 L212.0 174.1 L211.3 174.8 L210.6 175.3 L209.5 174.8 L209.0 174.6 L208.7 174.5 L208.6 174.3 L208.3 173.6 L208.0 173.3 L207.6 173.1 L207.2 173.1 L206.7 173.2 L206.6 173.2 L206.3 173.2 L205.9 173.1 L204.6 172.7 L204.6 172.7 L204.1 172.6 L203.7 172.6 L203.2 172.8 L202.8 173.1 L202.1 173.8 L201.7 173.9 L201.2 174.1 L200.7 174.3 L200.6 174.7 L200.7 175.2 L200.6 175.6 L200.4 176.0 L200.1 176.4 L199.7 176.9 L199.4 177.4 L199.1 177.9 L198.5 178.0 L198.5 178.0 L197.9 177.8 L197.3 177.4 L196.8 176.9 L196.5 176.4 L195.7 175.5 L195.7 175.5 L194.5 175.4 L194.0 175.5 L193.2 175.7 L192.2 176.4 L191.5 176.5 L191.5 176.5 L190.8 176.1 L189.7 175.1 L189.0 174.8 L189.0 174.8 L188.3 174.9 L187.6 175.2 L185.8 176.1 L185.2 176.2 L184.4 176.2 L184.3 176.1 L183.8 176.1 L183.8 176.1 L183.6 176.1 L183.4 176.0 L182.9 175.6 L182.8 175.5 L182.7 175.5 L181.9 175.3 L181.7 175.3 L181.5 175.2 L181.4 175.0 L181.1 174.8 L180.9 174.7 L180.5 174.6 L180.4 174.6 L179.9 174.6 L178.0 174.8 L177.6 174.8 L177.4 174.7 L177.1 174.6 L174.1 173.2 L174.1 173.2 L173.9 173.2 L172.0 172.8 L172.0 172.8 L171.1 172.6 L171.1 172.6 L170.3 172.4 L170.0 172.4 L169.5 172.1 L169.5 172.1 L168.3 171.9 L168.0 171.9 L168.0 171.9 L167.4 171.8 L166.3 172.0 L166.0 172.0 L163.9 171.8 L158.8 172.2 L157.1 172.9 L157.1 172.9 L157.1 172.9 L157.1 172.0 L157.1 171.6 L156.9 171.2 L156.4 170.9 L156.2 170.7 L156.0 170.4 L156.1 169.9 L156.4 169.5 L156.8 169.3 L157.8 169.1 L157.9 169.0 L157.8 168.7 L157.9 168.3 L157.9 168.2 L158.0 168.0 L158.0 167.9 L158.2 167.7 L158.3 167.7 L158.3 167.7 L158.4 167.7 L158.5 167.9 L158.5 167.9 L158.5 168.0 L158.6 168.1 L158.6 168.1 L158.8 168.1 L158.9 168.0 L158.9 167.7 L158.9 167.6 L159.0 167.4 L159.2 167.2 L159.5 166.8 L159.6 166.5 L159.4 166.3 L159.3 166.0 L159.5 165.8 L159.8 165.6 L160.6 165.4 L161.0 165.3 L161.2 165.0 L161.4 164.9 L162.2 164.8 L162.5 164.6 L162.4 164.3 L162.0 164.0 L161.8 163.8 L162.0 163.4 L162.3 163.3 L162.7 163.4 L163.0 163.4 L163.3 163.2 L163.2 163.0 L163.0 162.8 L163.0 162.6 L163.3 162.5 L163.5 162.5 L163.7 162.5 L163.8 162.4 L163.8 161.0 L163.9 160.6 L164.0 160.4 L164.1 160.4 L164.1 160.4 L164.7 160.5 L165.0 160.5 L165.1 160.4 L165.0 160.2 L164.9 160.1 L164.8 159.9 L164.8 159.7 L164.9 159.6 L165.2 159.4 L165.3 159.3 L165.2 159.2 L165.0 158.9 L164.9 158.8 L164.5 158.5 L164.4 158.4 L164.3 158.1 L164.4 157.8 L164.5 157.5 L164.5 157.2 L164.6 157.0 L164.9 156.9 L164.9 156.7 L164.5 156.3 L164.4 156.0 L164.5 155.7 L165.2 154.7 L165.3 154.5 L165.3 154.2 L165.2 153.6 L165.2 153.3 L165.4 153.1 L165.7 153.1 L166.1 152.9 L166.4 152.7 L166.4 152.4 L166.1 152.2 L165.8 152.1 L165.6 151.9 L165.6 151.6 L165.8 151.6 L165.9 151.7 L166.0 151.8 L166.1 152.0 L166.3 151.8 L166.4 151.4 L166.6 150.7 L166.8 150.6 L168.0 150.2 L168.6 149.8 L170.8 148.4 L171.1 148.1 L171.1 147.8 L170.2 147.6 L170.3 147.3 L171.0 146.8 L171.1 146.7 L171.2 146.5 L171.2 146.3 L170.8 146.1 L170.7 146.0 L170.8 145.8 L171.2 145.7 L171.6 145.5 L171.8 145.4 L171.9 145.3 L172.1 145.0 L171.9 144.4 L171.8 144.0 L172.1 143.9 L172.4 143.7 L172.8 143.5 L173.1 143.2 L173.3 143.0 L173.1 142.9 L172.9 142.8 L172.8 142.7 L172.7 142.6 L173.0 142.0 L173.3 141.8 L173.7 141.7 L173.9 141.7 L174.1 141.7 L174.3 141.6 L174.5 141.5 L174.5 141.4 L174.6 141.0 L174.7 140.9 L175.2 141.0 L175.5 140.9 L175.6 140.8 L175.7 140.4 L175.9 140.3 L176.2 140.2 L176.4 140.0 L176.5 139.7 L176.7 138.0 L176.7 137.7 L176.6 137.5 L176.3 137.2 L175.2 136.4 L175.2 136.2 L174.6 134.8 L174.6 134.8 L174.0 134.5 L173.6 134.0 L173.0 132.8 L172.8 132.5 L172.2 132.3 L171.9 132.1 L171.1 131.2 L170.8 131.0 L170.5 130.9 L169.0 130.9 L168.7 130.8 L168.6 130.6 L168.5 130.4 L168.4 130.2 L168.2 130.2 L167.8 130.2 L167.6 130.2 L166.3 129.6 L166.1 129.6 L165.9 129.3 L164.2 128.3 L163.9 128.3 L163.5 128.5 L163.0 129.0 L162.8 129.1 L162.6 129.3 L162.3 129.3 L162.1 129.2 L162.0 129.1 L161.9 129.0 L161.8 128.8 L160.6 127.6 L160.2 127.0 L159.9 126.8 L159.5 126.6 L155.4 125.8 L155.3 125.8 L155.2 125.6 L155.1 125.5 L155.0 125.5 L154.8 125.4 L154.6 125.3 L153.6 125.3 L153.2 125.2 L149.6 122.7 L149.0 122.6 L148.8 122.4 L148.4 122.1 L148.3 122.0 L148.1 122.0 L147.8 122.0 L147.4 121.8 L146.7 121.4 L146.3 121.3 L145.7 120.9 L145.0 120.7 L144.8 120.6 L144.7 120.4 L144.5 120.3 L144.3 120.3 L144.1 120.2 L143.8 120.0 L143.2 119.7 L142.9 119.4 L142.5 118.7 L142.3 118.6 L141.6 118.0 L141.2 117.8 L141.1 117.6 L141.0 117.5 L141.0 117.3 L140.9 117.2 L140.5 117.1 L140.0 116.8 L139.8 116.7 L139.6 116.5 L139.5 116.4 L139.1 116.3 L138.8 116.1 L138.3 116.1 L138.1 116.0 L138.0 115.9 L137.7 115.5 L137.0 114.8 L130.2 110.7 L129.9 110.6 L129.5 110.7 L128.6 111.0 L128.1 111.1 L126.7 111.1 L125.3 110.9 L124.7 110.9 L124.5 110.9 L124.3 110.8 L123.9 110.5 L123.7 110.4 L123.5 110.3 L122.9 110.4 L121.7 110.2 L121.1 109.8 L120.8 109.6 L120.1 109.6 L120.0 109.5 L119.7 108.9 L119.7 108.8 L119.5 108.8 L119.2 108.6 L118.9 108.6 L118.7 108.5 L117.9 108.6 L117.7 108.5 L117.3 108.2 L117.1 108.2 L116.0 108.2 L115.5 108.2 L115.1 108.2 L114.5 107.9 L113.9 107.4 L113.2 107.1 L112.5 107.3 L111.9 106.9 L111.7 106.8 L111.5 106.3 L111.4 106.2 L111.3 106.0 L111.1 105.6 L110.8 105.2 L110.3 105.0 L110.0 104.5 L109.8 104.3 L110.0 104.0 L110.0 103.6 L110.0 103.2 L109.7 103.0 L109.4 102.9 L109.1 102.7 L108.9 102.4 L108.6 102.3 L108.5 102.2 L108.1 102.3 L108.0 102.3 L107.8 102.2 L107.5 101.8 L107.3 101.7 L106.9 101.6 L106.7 101.4 L106.6 101.1 L106.5 100.8 L105.2 100.3 L104.8 100.3 L104.5 100.3 L104.4 100.1 L104.1 99.9 L103.8 99.8 L103.5 99.6 L103.2 99.6 L102.8 99.6 L102.6 99.5 L102.4 99.0 L102.1 98.8 L102.2 98.6 L102.2 98.4 L102.3 98.3 L102.0 98.3 L101.8 98.2 L101.6 98.2 L100.7 97.2 L100.4 97.1 L99.5 97.1 L99.2 97.0 L99.1 96.9 L98.8 96.6 L98.5 96.5 L98.3 96.4 L98.0 96.2 L98.0 95.9 L97.9 95.5 L97.9 95.3 L97.8 95.1 L97.6 94.9 L97.4 94.7 L96.9 94.5 L96.7 94.3 L96.3 93.8 L96.2 93.6 L94.1 92.4 L93.4 91.8 L93.1 91.4 L93.1 91.3 L93.1 91.2 L93.2 90.8 L93.1 90.6 L92.9 90.3 L92.6 89.6 L92.3 89.2 L91.9 88.9 L91.7 88.6 L91.6 88.4 L91.6 88.4 L91.4 88.3 L91.2 88.2 L91.2 88.1 L91.1 88.0 L91.0 87.9 L90.9 87.7 L90.9 87.6 L90.4 87.1 L90.2 86.9 L90.2 86.6 L90.0 86.5 L89.8 86.4 L89.7 86.3 L89.9 85.9 L89.6 85.7 L89.6 85.4 L89.7 85.0 L89.6 84.8 L89.5 84.8 L89.4 84.8 L89.2 84.7 L88.7 84.5 L88.5 84.3 L88.5 84.1 L88.7 83.8 L88.9 83.5 L88.7 83.1 L88.3 82.7 L88.2 82.6 L88.1 82.6 L87.9 82.6 L87.9 82.5 L87.9 82.3 L87.9 82.2 L87.8 82.1 L87.7 82.0 L87.5 82.0 L86.8 81.9 L86.7 81.9 L86.3 81.7 L85.0 80.9 L84.7 80.6 L84.6 80.3 L84.4 80.2 L83.6 80.0 L83.4 79.9 L82.9 79.3 L82.6 79.0 L82.2 78.9 L82.0 78.9 L81.7 78.8 L81.5 78.7 L81.3 78.6 L81.4 78.4 L81.5 78.2 L81.6 78.0 L81.5 77.8 L81.6 77.8 L81.5 77.6 L81.4 77.5 L81.2 77.4 L81.0 77.4 Z" fill="#172033" fill-rule="evenodd"/></svg>
