<svg xmlns="http://www.w3.org/2000/svg" viewBox="0 0 320 200" role="img"><path d="M123.4 159.8 L125.2 159.6 L127.7 157.5 L128.4 155.0 L127.6 145.7 L126.8 143.3 L122.6 136.2 L122.3 134.7 L123.3 132.0 L123.5 130.1 L123.4 128.4 L122.8 127.6 L120.2 126.1 L119.5 122.8 L119.4 119.2 L118.5 116.9 L119.2 115.2 L119.0 113.1 L118.6 111.0 L118.5 108.8 L119.3 103.6 L119.2 101.5 L117.8 94.2 L118.9 90.0 L119.1 88.1 L117.8 86.9 L120.4 83.7 L122.3 83.4 L123.4 84.7 L123.7 86.5 L124.6 87.2 L124.6 89.1 L127.2 89.5 L125.6 85.6 L125.3 83.9 L125.2 82.1 L125.4 81.1 L125.7 79.9 L125.8 78.7 L125.2 77.5 L124.4 77.0 L122.3 76.6 L121.1 76.2 L122.2 74.9 L123.5 74.6 L124.9 74.4 L126.2 73.8 L126.5 73.2 L127.1 71.7 L127.5 71.4 L128.2 71.6 L128.8 72.6 L129.5 72.8 L130.0 73.5 L129.8 75.1 L129.2 77.8 L129.2 79.8 L129.3 80.5 L130.1 82.4 L130.5 82.9 L131.2 83.5 L132.2 83.2 L132.4 83.0 L132.3 82.5 L132.7 80.2 L132.8 77.9 L133.2 76.8 L134.3 75.8 L135.0 76.1 L135.8 76.8 L137.2 76.8 L137.8 76.1 L139.2 73.3 L139.9 72.1 L137.2 73.0 L134.7 73.5 L132.6 72.7 L131.2 70.1 L131.1 68.7 L131.8 64.1 L132.1 63.7 L133.0 63.0 L133.2 62.5 L133.1 62.1 L132.6 61.5 L132.5 61.1 L132.5 58.1 L133.9 58.4 L134.3 57.7 L134.6 56.6 L135.5 56.1 L136.2 56.4 L136.8 57.3 L137.1 58.4 L137.2 59.5 L138.5 58.7 L139.5 57.3 L139.7 55.8 L139.2 54.1 L138.6 54.8 L137.2 53.4 L137.3 51.3 L139.9 45.8 L140.3 43.9 L140.5 39.4 L141.4 40.0 L141.7 40.3 L141.9 40.8 L142.5 40.8 L144.8 35.0 L146.7 32.4 L149.5 31.4 L151.0 31.1 L155.1 29.6 L155.9 29.0 L156.4 27.6 L158.7 25.5 L159.3 24.0 L161.0 24.6 L163.0 24.0 L166.6 22.0 L174.3 25.8 L175.9 27.4 L176.1 29.3 L175.9 31.7 L175.9 33.8 L177.0 34.7 L178.8 35.4 L179.4 37.0 L179.5 39.0 L180.0 40.8 L181.5 42.1 L182.7 42.3 L183.5 42.4 L187.7 42.1 L190.0 42.3 L192.0 42.9 L193.7 43.7 L195.3 44.8 L196.6 46.0 L197.7 47.5 L198.4 49.2 L200.1 59.8 L200.0 61.2 L199.8 62.3 L199.0 62.8 L198.4 62.5 L197.9 61.1 L197.0 60.7 L196.2 61.1 L195.5 62.1 L195.2 63.2 L195.3 64.1 L196.2 64.8 L197.0 64.7 L197.7 64.2 L198.0 63.4 L199.6 65.7 L198.3 68.0 L196.4 68.6 L196.0 66.1 L194.7 66.5 L191.3 68.1 L192.7 68.6 L194.2 69.5 L195.4 70.4 L196.0 71.4 L195.7 73.6 L194.3 74.4 L192.7 74.8 L191.3 75.4 L190.7 75.1 L190.0 74.8 L190.2 79.9 L190.0 81.4 L190.0 81.5 L189.4 82.4 L188.6 83.3 L188.1 84.3 L188.3 85.2 L191.9 90.8 L192.5 92.2 L192.7 93.5 L192.4 97.8 L192.0 102.9 L192.1 105.0 L192.7 106.1 L193.9 106.6 L199.6 107.4 L200.5 108.3 L201.3 110.2 L201.7 111.9 L202.0 113.7 L202.2 121.7 L201.1 131.8 L201.7 132.9 L200.8 133.7 L199.3 139.6 L198.0 141.5 L194.7 145.0 L193.6 147.3 L192.9 147.7 L192.0 148.0 L191.3 148.3 L190.9 149.2 L188.3 158.1 L188.2 158.5 L187.7 159.6 L186.5 160.4 L186.0 162.2 L185.3 166.3 L184.0 167.8 L180.1 169.9 L179.3 170.7 L178.8 172.9 L177.5 174.4 L176.2 175.7 L175.3 177.0 L174.2 175.6 L174.5 174.2 L175.4 172.7 L175.9 170.7 L175.1 169.6 L173.4 169.4 L170.0 169.7 L169.8 168.0 L169.2 167.9 L168.2 168.6 L166.9 169.0 L165.2 169.2 L163.6 169.8 L162.8 170.8 L163.0 171.4 L163.1 171.6 L156.5 176.4 L151.4 178.0 L145.9 178.0 L140.0 177.2 L135.1 175.3 L130.5 170.5 L123.4 159.8 Z" fill="#172033" fill-rule="evenodd"/></svg>
