<svg xmlns="http://www.w3.org/2000/svg" viewBox="0 0 320 200" role="img"><path d="M133.4 24.6 L135.9 26.8 L136.4 27.4 L137.2 29.2 L137.8 29.8 L138.5 30.2 L140.0 30.6 L140.8 31.0 L142.8 32.3 L143.6 32.6 L145.1 32.7 L145.8 32.9 L146.4 33.3 L147.7 35.0 L148.0 35.2 L148.7 35.5 L149.0 35.7 L149.1 36.1 L149.2 36.9 L149.3 37.0 L149.4 37.3 L149.7 37.7 L150.6 38.5 L151.0 39.1 L151.5 39.4 L152.0 39.4 L152.6 39.3 L153.1 39.0 L153.3 38.6 L153.6 38.3 L154.1 38.1 L154.6 38.3 L154.9 38.7 L154.9 39.0 L154.7 39.4 L154.6 39.8 L154.7 41.9 L154.6 42.4 L154.4 42.8 L154.0 43.5 L153.6 44.5 L153.8 45.2 L155.0 46.6 L155.5 47.5 L155.4 48.0 L154.8 48.4 L153.9 49.0 L154.2 49.5 L154.7 49.8 L155.4 49.9 L156.1 50.2 L156.7 50.6 L158.0 51.9 L160.5 53.5 L162.0 55.0 L162.6 55.3 L164.0 55.8 L165.9 56.4 L166.3 56.6 L166.7 56.9 L167.0 57.1 L167.5 57.2 L167.9 57.0 L168.5 56.5 L168.9 56.5 L169.5 56.8 L170.9 58.2 L171.5 58.8 L172.9 59.4 L173.6 59.6 L175.2 59.7 L179.4 60.6 L180.6 61.0 L181.6 61.6 L182.6 62.4 L182.9 62.7 L183.1 63.3 L182.9 63.8 L182.4 64.1 L182.0 64.1 L181.5 64.2 L181.2 64.5 L180.9 64.8 L181.0 64.9 L181.0 65.1 L181.0 65.4 L181.0 65.6 L180.8 65.8 L180.5 66.1 L180.4 66.2 L180.2 66.8 L180.2 67.1 L180.1 67.2 L179.6 67.5 L179.2 67.6 L178.2 67.7 L177.8 67.8 L177.5 68.2 L177.3 68.6 L177.4 68.9 L177.9 69.0 L178.6 69.0 L178.7 69.2 L178.6 69.5 L178.6 69.7 L179.6 70.1 L181.5 70.4 L182.4 70.7 L183.8 71.1 L184.4 71.5 L184.7 72.1 L184.6 72.9 L184.1 73.2 L182.4 73.5 L181.3 73.7 L179.0 73.6 L178.0 73.8 L177.5 74.2 L177.1 74.6 L177.0 75.1 L177.6 75.4 L177.7 75.4 L178.4 75.8 L179.1 76.8 L179.7 77.0 L183.1 77.3 L185.5 77.1 L186.3 77.3 L187.0 77.8 L187.3 78.4 L187.5 79.1 L187.9 79.8 L189.4 80.9 L191.3 81.3 L193.3 81.3 L195.1 81.0 L196.6 80.6 L197.3 80.4 L197.9 80.5 L201.5 81.9 L202.8 82.0 L203.1 82.3 L204.3 84.2 L204.3 84.5 L204.4 84.7 L204.6 85.2 L204.8 85.6 L205.2 85.8 L205.6 86.0 L206.0 86.3 L206.4 87.4 L207.1 87.9 L208.0 88.2 L208.9 88.3 L209.8 88.1 L210.3 87.7 L214.8 81.9 L215.1 81.3 L215.6 81.0 L217.3 80.7 L218.1 80.4 L219.4 79.3 L219.9 79.0 L220.8 79.1 L221.6 79.2 L222.1 79.4 L224.9 81.6 L226.2 82.4 L227.6 82.9 L230.7 83.1 L231.3 83.4 L233.3 85.0 L233.1 85.7 L232.4 86.2 L231.5 86.5 L230.7 86.6 L229.9 86.5 L228.4 85.8 L227.6 85.6 L226.8 85.5 L226.0 85.7 L225.4 86.1 L225.2 86.8 L225.0 87.4 L224.7 87.8 L224.2 88.0 L222.8 88.0 L222.4 88.1 L222.2 88.3 L222.0 88.7 L221.9 89.2 L221.9 89.7 L222.0 90.0 L222.8 90.6 L223.0 90.9 L223.0 91.2 L222.9 91.8 L223.0 92.1 L223.7 93.2 L224.7 94.3 L226.1 95.1 L227.6 95.6 L229.2 95.8 L230.0 96.0 L230.3 96.5 L230.1 98.4 L230.3 99.0 L230.4 99.0 L228.7 99.6 L228.3 99.9 L227.7 100.6 L227.1 101.1 L227.0 101.2 L226.9 101.4 L227.0 101.6 L227.1 101.8 L227.1 101.8 L226.7 102.9 L226.6 103.4 L226.7 103.8 L226.9 104.6 L226.9 105.0 L226.5 105.6 L225.8 105.7 L224.9 105.6 L224.1 105.8 L223.7 106.3 L223.4 106.9 L222.9 107.3 L222.0 107.3 L221.4 107.4 L220.2 107.5 L219.3 107.8 L218.8 108.4 L218.7 108.9 L218.7 110.0 L218.6 110.6 L218.5 110.8 L218.1 111.3 L218.0 111.5 L217.9 112.7 L217.5 113.9 L217.0 114.8 L216.8 115.7 L217.3 116.8 L218.4 117.7 L218.4 118.0 L218.3 118.6 L218.3 119.0 L218.4 119.5 L218.7 120.0 L219.0 120.5 L219.4 120.9 L219.9 121.2 L221.0 121.7 L221.4 122.0 L221.7 122.5 L221.7 123.4 L222.0 123.9 L222.1 123.9 L222.1 124.0 L222.1 124.0 L222.0 124.0 L221.9 124.1 L221.9 124.3 L221.9 124.4 L222.0 124.6 L222.1 124.7 L222.1 124.8 L222.1 124.9 L222.0 125.0 L221.9 125.2 L221.9 125.4 L221.9 125.6 L222.4 126.3 L223.2 128.2 L223.5 128.9 L224.1 129.3 L225.4 129.7 L225.7 130.0 L226.2 130.5 L226.6 130.7 L227.0 130.8 L227.9 130.7 L228.2 130.8 L228.5 131.1 L229.0 131.7 L229.1 131.8 L229.3 132.0 L229.7 132.1 L230.4 132.1 L230.8 132.1 L231.5 132.3 L231.7 132.4 L232.0 132.6 L234.8 134.7 L235.3 135.2 L235.5 135.5 L235.6 136.2 L235.7 136.6 L236.0 136.8 L236.9 137.5 L238.0 138.6 L238.5 139.0 L239.2 139.3 L241.2 139.6 L241.8 139.8 L241.9 140.3 L242.0 140.8 L241.6 142.1 L240.8 143.4 L240.0 144.3 L239.7 144.5 L239.0 144.7 L238.7 144.9 L238.5 145.2 L238.2 145.9 L238.0 146.2 L236.3 147.4 L235.8 148.0 L235.8 148.0 L235.8 148.0 L235.8 148.0 L235.3 148.1 L234.2 148.3 L233.7 148.5 L233.5 148.8 L233.2 149.3 L232.5 151.3 L232.3 151.7 L232.2 151.8 L231.8 152.2 L230.6 152.6 L229.4 152.8 L226.4 152.2 L225.3 152.3 L224.8 152.6 L224.6 152.8 L224.5 152.8 L224.3 152.9 L223.6 152.8 L223.0 152.8 L222.7 153.1 L222.0 153.8 L221.6 154.0 L220.6 154.4 L220.3 154.7 L220.0 154.9 L219.9 155.1 L219.8 155.2 L220.0 155.4 L220.9 157.1 L221.5 157.7 L222.0 158.0 L222.1 158.1 L222.1 158.2 L222.1 158.4 L222.0 158.5 L221.5 158.9 L220.5 160.3 L220.8 160.9 L220.6 161.8 L220.5 162.2 L220.0 163.8 L219.8 164.6 L220.0 164.7 L222.0 166.1 L223.3 166.7 L223.8 167.2 L224.1 167.8 L224.1 167.8 L224.2 168.4 L224.1 169.2 L223.6 170.6 L223.1 171.3 L222.7 171.5 L222.2 171.6 L221.6 171.8 L221.0 172.4 L220.3 173.8 L219.8 174.4 L219.1 174.6 L217.4 174.6 L216.6 174.9 L215.9 174.9 L215.2 174.7 L214.5 174.3 L213.9 173.8 L213.8 173.5 L213.8 172.8 L213.6 172.6 L213.3 172.7 L212.2 173.5 L206.8 175.2 L205.4 175.4 L204.8 175.3 L204.1 175.3 L202.8 174.9 L200.7 174.1 L200.2 174.0 L199.7 174.2 L198.4 175.0 L198.1 175.1 L196.5 175.1 L195.7 175.2 L191.9 177.0 L191.4 177.2 L190.8 177.7 L190.2 178.0 L189.5 178.0 L188.1 177.7 L186.1 177.7 L185.7 177.6 L185.3 176.5 L183.8 174.7 L183.8 173.8 L184.7 173.1 L187.0 172.6 L187.8 172.0 L188.0 171.4 L187.8 170.1 L187.9 169.5 L188.2 169.1 L189.8 167.9 L191.8 165.5 L192.2 164.6 L192.2 164.4 L191.9 164.1 L191.8 163.9 L191.9 163.8 L192.2 163.7 L192.2 163.6 L192.3 163.5 L192.5 162.7 L192.5 162.6 L192.9 162.4 L193.3 162.2 L193.8 162.0 L194.0 161.7 L193.6 160.8 L192.9 160.4 L192.6 160.3 L191.5 160.1 L190.6 160.1 L188.9 160.7 L188.3 160.7 L187.6 160.4 L186.4 159.2 L185.8 158.8 L184.9 158.6 L180.9 158.2 L179.9 158.2 L179.4 158.2 L178.8 158.0 L178.4 157.8 L178.4 157.7 L178.6 157.6 L178.7 157.4 L178.8 156.8 L179.4 155.5 L179.5 154.8 L179.6 154.0 L179.6 153.8 L179.2 153.5 L178.4 153.4 L177.1 153.2 L176.7 153.0 L175.9 152.5 L175.5 152.4 L175.1 152.3 L174.1 152.3 L173.7 152.2 L172.6 151.2 L172.4 150.0 L172.3 148.7 L171.7 147.9 L171.0 147.8 L170.5 148.1 L169.9 148.3 L169.2 148.0 L168.9 147.5 L168.3 145.4 L167.7 144.5 L167.0 144.1 L164.4 144.0 L163.6 143.8 L163.1 143.6 L159.9 142.2 L157.0 140.9 L156.7 140.6 L156.9 140.6 L157.0 140.1 L157.1 139.5 L157.0 139.3 L157.5 139.0 L157.9 139.1 L158.0 139.1 L157.6 138.5 L157.4 138.3 L157.0 138.0 L156.2 137.5 L155.8 137.4 L155.2 137.3 L154.2 137.4 L153.3 137.7 L150.2 139.4 L149.3 139.6 L148.0 139.7 L147.7 139.9 L147.4 140.4 L147.5 140.8 L148.0 141.6 L148.3 142.4 L148.6 142.8 L148.8 143.1 L149.2 143.1 L149.6 143.1 L150.0 143.1 L150.3 143.4 L150.1 144.3 L149.3 145.6 L148.2 146.8 L147.4 147.4 L146.9 147.4 L146.5 147.3 L146.0 147.3 L145.7 147.6 L145.3 148.2 L145.1 148.5 L144.8 148.7 L144.0 148.9 L143.3 148.9 L142.6 149.0 L142.0 149.7 L141.6 150.8 L142.3 151.3 L143.1 151.7 L143.3 152.2 L143.5 152.5 L142.6 153.4 L140.7 154.0 L137.4 154.5 L137.8 153.0 L137.8 152.0 L137.1 151.4 L134.7 150.5 L132.6 149.4 L131.5 149.0 L129.4 148.9 L128.9 148.7 L128.4 148.6 L126.0 146.9 L125.9 146.8 L124.6 145.8 L122.2 144.6 L121.8 144.3 L121.5 143.9 L121.3 143.5 L121.0 143.2 L120.5 143.1 L120.1 143.2 L119.2 143.9 L118.7 144.1 L117.4 144.2 L116.1 144.1 L115.1 143.9 L114.3 143.4 L113.6 142.7 L112.4 141.1 L112.1 141.1 L111.8 141.4 L111.3 141.5 L110.4 141.4 L108.7 141.0 L107.9 140.7 L107.2 140.3 L105.9 139.1 L105.9 139.0 L104.5 138.2 L104.1 137.7 L103.4 136.6 L102.9 136.1 L100.6 134.3 L98.9 132.5 L98.3 132.1 L92.8 130.3 L91.8 129.7 L91.1 128.7 L91.1 127.5 L91.9 126.6 L92.8 126.6 L93.3 125.9 L93.6 125.0 L94.2 124.4 L94.6 124.3 L95.6 124.4 L96.1 124.4 L96.5 124.2 L97.5 123.7 L97.9 123.6 L98.6 123.9 L99.2 124.5 L99.8 125.3 L100.1 125.9 L100.4 126.3 L100.8 125.9 L101.3 125.1 L101.7 125.1 L103.2 125.5 L103.6 125.3 L103.6 125.2 L103.5 125.0 L103.2 124.8 L103.1 124.4 L103.0 123.8 L103.1 123.3 L103.2 122.8 L104.3 122.1 L104.2 121.0 L103.2 118.8 L102.5 117.5 L98.4 114.3 L96.3 111.9 L95.1 110.7 L93.7 110.0 L93.2 109.8 L93.7 109.5 L93.8 109.2 L93.6 108.7 L93.6 108.4 L93.8 108.0 L94.1 107.8 L95.0 107.6 L95.5 107.6 L96.1 107.7 L97.1 108.2 L98.1 108.9 L98.6 109.2 L99.2 109.1 L99.8 109.0 L101.9 108.9 L104.1 109.1 L105.1 109.0 L106.0 108.8 L107.7 107.9 L108.3 107.3 L108.7 106.7 L108.4 105.9 L107.9 105.6 L107.5 105.7 L107.3 105.9 L107.1 106.1 L106.8 105.8 L106.1 105.3 L104.8 104.7 L104.6 104.5 L103.9 103.7 L103.3 103.3 L103.0 103.1 L102.9 102.4 L102.6 102.0 L102.4 102.0 L101.9 102.4 L101.7 102.4 L101.4 102.3 L101.0 102.0 L99.3 101.1 L98.5 100.5 L98.3 100.0 L98.2 99.2 L97.7 98.4 L97.0 97.6 L96.3 97.2 L95.9 97.2 L94.6 97.4 L94.0 97.4 L93.7 97.3 L92.9 97.0 L91.2 96.7 L90.4 96.5 L89.7 95.8 L88.8 94.5 L88.5 93.7 L88.4 92.9 L88.8 92.1 L89.3 91.6 L89.8 91.0 L89.8 89.9 L89.2 88.2 L89.3 87.6 L90.7 87.2 L91.0 87.0 L91.3 86.8 L91.5 86.5 L91.6 86.2 L91.5 85.5 L91.6 85.3 L91.8 85.1 L92.3 84.9 L92.4 84.8 L94.3 82.5 L94.9 81.3 L95.2 81.0 L95.6 80.6 L96.4 80.2 L96.8 79.8 L97.2 79.0 L98.6 74.2 L98.7 74.1 L98.9 74.0 L99.1 73.9 L99.0 73.5 L98.9 73.2 L98.8 73.0 L98.5 72.8 L98.3 72.6 L98.2 72.5 L98.1 72.5 L98.0 72.6 L97.6 72.6 L97.2 72.5 L96.5 72.0 L96.1 72.0 L95.8 72.1 L95.4 72.1 L93.7 71.9 L93.3 71.9 L92.6 72.1 L92.2 72.1 L92.0 71.9 L91.8 71.6 L91.6 71.4 L91.1 71.4 L87.5 73.3 L86.9 73.4 L86.1 73.5 L84.8 73.8 L83.9 72.7 L83.8 71.9 L84.9 71.4 L85.4 71.6 L86.2 72.2 L86.8 72.2 L87.3 72.0 L87.6 71.7 L88.3 70.9 L88.6 70.8 L89.1 70.6 L89.4 70.3 L89.2 69.7 L88.9 69.5 L88.1 69.7 L87.6 69.4 L87.5 69.0 L87.7 68.5 L87.9 68.0 L87.9 67.7 L87.9 67.2 L87.6 66.1 L87.4 65.1 L87.3 64.7 L87.0 64.3 L86.7 64.0 L86.3 63.7 L86.0 63.4 L85.9 63.1 L86.5 62.7 L88.8 62.8 L89.6 62.7 L89.8 62.1 L89.3 61.3 L89.0 60.7 L89.9 60.6 L90.3 60.8 L91.1 61.5 L91.5 61.8 L92.3 62.0 L93.1 62.1 L94.8 61.9 L95.0 61.8 L95.1 61.6 L95.2 61.5 L95.5 61.4 L95.7 61.5 L96.0 61.8 L96.2 61.9 L99.6 61.8 L99.8 61.7 L100.2 61.4 L100.3 60.4 L99.9 59.6 L99.1 59.4 L95.6 59.1 L94.5 58.9 L92.0 58.0 L90.4 57.6 L88.3 56.7 L88.1 55.8 L88.0 55.5 L87.5 55.1 L86.8 54.9 L86.3 54.8 L85.4 54.8 L84.7 54.5 L84.5 54.3 L84.0 54.2 L84.0 54.1 L83.3 53.8 L83.2 53.0 L84.1 52.7 L85.1 52.6 L85.4 52.0 L84.8 51.3 L84.3 50.9 L84.1 50.5 L84.0 49.7 L84.5 48.7 L84.9 48.8 L87.2 49.0 L88.4 48.2 L87.9 47.7 L87.4 47.5 L86.9 47.4 L86.2 47.1 L85.8 46.9 L85.6 46.7 L85.5 46.5 L85.2 46.2 L84.9 46.0 L84.5 46.1 L84.2 46.3 L83.5 46.5 L83.1 46.9 L82.6 47.1 L81.9 47.1 L81.5 46.9 L80.7 46.0 L80.3 45.8 L80.5 45.5 L80.5 44.7 L80.7 44.0 L81.2 43.6 L81.6 43.4 L82.7 42.3 L82.9 42.0 L82.7 41.4 L82.1 41.1 L81.4 40.8 L80.9 40.5 L80.6 40.0 L80.4 38.8 L80.2 38.2 L79.1 37.2 L78.8 36.9 L78.2 36.4 L78.0 36.2 L78.1 36.0 L78.2 35.8 L78.3 35.6 L78.4 34.5 L79.7 34.5 L80.2 34.4 L80.5 34.1 L80.4 33.8 L79.9 33.5 L79.1 33.0 L79.5 32.7 L79.8 32.5 L80.5 32.2 L80.3 31.6 L82.7 31.7 L83.4 32.0 L83.7 31.9 L83.7 31.8 L83.6 31.6 L83.3 31.3 L83.3 31.1 L83.3 31.0 L83.4 30.8 L84.4 30.4 L85.4 30.5 L86.1 30.3 L86.1 29.2 L86.8 28.4 L87.7 28.1 L88.6 28.4 L89.1 29.2 L89.1 29.2 L90.0 29.5 L93.5 29.8 L94.6 29.6 L95.1 29.2 L95.2 28.7 L95.5 28.2 L96.0 28.0 L96.3 27.8 L97.0 27.7 L98.5 27.7 L99.2 27.6 L99.6 27.2 L99.9 26.8 L100.2 26.5 L100.7 26.3 L101.1 26.3 L101.5 26.2 L102.1 25.8 L102.4 25.5 L102.6 25.2 L102.9 25.0 L103.9 24.6 L103.8 24.3 L103.5 23.9 L103.5 23.6 L104.0 23.1 L105.0 22.7 L105.9 22.4 L106.7 22.3 L107.5 22.3 L109.8 22.0 L110.7 22.0 L111.5 22.2 L112.4 22.6 L114.8 23.7 L115.5 23.8 L118.8 22.8 L119.4 22.7 L121.0 22.4 L123.5 22.6 L125.2 23.2 L126.3 23.1 L127.3 22.8 L127.7 22.7 L128.3 22.9 L128.5 23.0 L128.9 23.4 L129.2 23.5 L129.5 23.5 L130.5 23.1 L131.2 23.3 L133.4 24.6 Z" fill="#172033" fill-rule="evenodd"/></svg>
