<svg xmlns="http://www.w3.org/2000/svg" viewBox="0 0 320 200" role="img"><path d="M216.5 95.0 L217.2 96.1 L217.7 96.6 L218.2 96.8 L218.8 96.9 L219.3 96.9 L219.8 96.7 L220.5 96.2 L220.5 96.3 L221.0 96.3 L221.1 96.3 L221.2 96.4 L221.3 96.5 L221.4 96.4 L221.4 96.5 L221.4 96.6 L221.4 96.6 L221.3 96.7 L221.3 96.7 L221.3 96.8 L221.3 96.9 L221.4 96.9 L221.3 97.3 L221.4 97.3 L221.6 97.3 L221.7 97.2 L222.0 96.7 L222.1 96.6 L222.2 96.5 L222.3 96.4 L222.3 96.2 L222.4 96.3 L222.6 96.3 L222.8 96.3 L222.8 96.4 L222.9 96.6 L223.0 96.6 L223.2 96.6 L223.3 96.7 L223.3 96.7 L223.2 96.8 L223.0 96.9 L222.8 96.9 L222.7 97.1 L222.7 97.1 L222.4 97.3 L222.4 97.4 L222.3 97.5 L222.3 97.6 L221.7 98.0 L221.6 98.1 L221.6 98.2 L221.5 98.3 L221.4 98.4 L221.4 98.5 L221.4 98.7 L221.4 98.8 L221.3 98.9 L221.4 99.0 L221.4 99.0 L221.3 99.0 L221.2 99.0 L221.2 99.0 L221.1 99.1 L221.1 99.3 L221.1 99.4 L221.2 99.4 L221.8 99.5 L222.0 99.4 L222.2 99.4 L222.2 99.3 L222.3 99.3 L222.5 99.2 L223.1 99.4 L223.3 99.5 L223.6 99.8 L224.0 99.9 L224.1 100.3 L224.1 100.5 L224.1 101.2 L224.1 101.4 L224.3 101.7 L224.8 102.3 L225.3 102.9 L225.9 103.6 L226.4 104.2 L226.9 104.8 L227.4 105.4 L227.9 106.0 L228.4 106.6 L229.0 107.2 L229.5 107.9 L230.0 108.5 L230.5 109.1 L231.0 109.7 L231.5 110.3 L232.1 110.9 L232.6 111.5 L233.1 112.2 L233.6 112.8 L233.8 113.0 L234.1 113.0 L235.7 113.2 L237.0 113.4 L238.4 113.6 L239.8 113.7 L241.2 113.9 L242.5 114.1 L243.9 114.2 L245.3 114.4 L246.7 114.6 L248.1 114.7 L249.4 114.9 L250.8 115.1 L252.2 115.3 L253.6 115.4 L254.9 115.6 L256.3 115.8 L257.7 115.9 L259.0 116.1 L259.2 116.1 L259.9 115.3 L260.5 116.2 L261.3 117.5 L262.1 118.7 L262.9 120.0 L263.7 121.2 L264.2 122.0 L264.3 122.2 L264.3 122.5 L263.9 123.6 L263.9 123.7 L263.8 123.9 L263.6 124.5 L263.4 125.3 L263.0 126.4 L262.6 127.8 L262.1 129.2 L261.5 130.8 L261.4 131.2 L261.0 132.4 L260.5 134.1 L259.9 135.6 L259.5 137.1 L259.0 138.4 L258.6 139.5 L258.4 140.4 L258.2 140.9 L258.1 141.1 L257.8 142.1 L256.3 142.6 L254.6 143.2 L252.9 143.7 L251.2 144.3 L249.5 144.9 L247.8 145.4 L246.1 146.0 L244.4 146.6 L242.7 147.1 L241.0 147.7 L239.3 148.2 L237.7 148.8 L236.0 149.4 L234.3 149.9 L232.6 150.5 L230.9 151.1 L229.2 151.6 L228.1 152.0 L226.5 152.2 L224.9 152.4 L223.3 152.6 L221.8 152.9 L220.2 153.1 L218.6 153.3 L217.0 153.5 L215.4 153.7 L213.8 153.9 L212.2 154.1 L210.6 154.3 L209.1 154.6 L207.5 154.8 L205.9 155.0 L204.3 155.2 L202.7 155.4 L201.1 155.6 L199.9 155.8 L198.9 156.1 L198.5 156.3 L197.1 157.0 L195.4 157.9 L193.5 158.8 L191.8 159.6 L190.5 160.2 L190.3 160.4 L189.5 161.3 L188.6 162.4 L187.0 164.3 L185.6 166.0 L184.6 167.2 L184.4 167.5 L184.0 168.7 L183.3 170.5 L183.0 170.8 L183.0 170.9 L181.9 171.5 L180.7 172.2 L180.4 172.3 L180.0 172.3 L178.7 172.3 L178.6 172.3 L178.5 172.2 L177.6 171.1 L176.9 170.1 L176.3 169.2 L175.9 169.0 L173.7 169.3 L172.1 169.6 L169.7 169.3 L167.8 169.1 L165.3 168.9 L163.2 168.7 L162.8 168.5 L161.2 167.6 L160.6 167.5 L158.9 167.5 L158.7 167.5 L157.5 167.5 L155.5 167.5 L155.2 167.5 L154.6 167.8 L154.3 167.8 L153.7 167.6 L153.1 167.6 L152.1 167.7 L151.3 167.9 L151.1 167.9 L150.7 167.8 L150.5 167.8 L150.4 167.9 L150.2 168.1 L150.1 168.3 L149.9 168.4 L149.6 168.3 L149.3 168.1 L149.1 168.1 L148.9 168.2 L148.7 168.4 L148.6 168.6 L148.4 168.7 L148.2 168.8 L148.1 168.8 L148.0 168.7 L148.0 168.7 L148.0 168.6 L148.0 168.4 L148.0 168.3 L147.9 168.3 L147.7 168.3 L147.5 168.3 L147.1 168.3 L146.8 168.3 L146.6 168.3 L146.4 168.3 L146.0 168.0 L145.3 167.2 L144.9 167.0 L144.1 166.7 L144.0 166.6 L143.6 166.6 L143.5 166.6 L143.2 166.6 L143.0 166.7 L142.2 167.2 L141.3 167.9 L140.8 168.5 L140.8 168.5 L141.4 168.7 L141.5 168.9 L141.6 169.1 L141.6 169.3 L141.4 169.4 L141.2 169.4 L140.9 169.5 L140.7 169.7 L140.6 169.9 L140.6 170.1 L140.6 170.3 L140.4 170.7 L140.3 170.9 L140.4 171.1 L140.4 171.2 L140.5 171.5 L140.5 171.7 L140.5 171.9 L140.3 172.2 L140.2 172.5 L140.3 172.7 L140.5 173.0 L140.6 173.4 L140.7 173.5 L141.1 173.6 L141.2 173.7 L141.2 173.8 L141.3 173.9 L141.2 174.0 L141.1 174.1 L141.0 174.1 L141.0 174.2 L140.8 174.4 L140.8 174.5 L140.9 174.7 L141.0 174.9 L141.0 174.9 L140.9 175.1 L140.8 175.1 L140.4 175.0 L140.1 175.0 L140.0 175.0 L139.9 175.1 L139.9 175.4 L139.9 175.5 L139.6 176.2 L139.5 176.4 L139.3 176.5 L138.9 176.8 L138.7 176.8 L138.3 176.9 L138.2 176.9 L138.2 177.1 L138.2 177.2 L138.2 177.4 L138.1 177.5 L137.9 177.7 L137.5 177.8 L137.1 178.0 L137.1 178.0 L137.1 177.6 L137.0 177.5 L137.1 177.2 L137.1 177.0 L136.6 176.5 L136.5 176.3 L136.4 176.1 L136.4 175.6 L136.6 175.2 L136.5 175.0 L136.4 175.0 L136.4 174.9 L136.3 174.8 L136.2 174.7 L136.2 174.5 L136.3 174.4 L136.2 174.3 L136.0 174.1 L135.9 174.0 L135.8 173.8 L135.5 173.6 L135.5 173.6 L135.2 173.4 L135.1 173.4 L134.9 173.4 L134.6 173.0 L134.7 172.5 L134.7 172.4 L134.7 171.9 L134.6 171.7 L134.5 171.7 L134.4 171.6 L134.4 171.5 L134.3 171.4 L134.1 171.4 L133.9 171.4 L133.8 171.4 L133.7 171.3 L133.6 171.1 L133.5 170.8 L133.4 170.7 L133.4 170.4 L133.3 170.2 L133.2 170.2 L132.8 170.0 L132.8 170.1 L132.9 170.3 L133.0 170.6 L132.8 170.7 L132.9 171.3 L132.8 171.5 L132.8 171.3 L132.8 170.6 L132.7 170.4 L132.6 170.1 L132.4 168.7 L132.4 168.5 L132.3 168.3 L132.4 167.8 L132.4 167.6 L132.3 167.4 L132.2 167.3 L132.1 167.2 L132.0 167.2 L132.0 167.2 L131.9 167.2 L131.9 167.1 L131.8 167.0 L130.8 166.1 L130.7 166.1 L130.6 166.1 L130.6 166.0 L130.5 165.8 L130.3 165.6 L130.2 165.4 L130.2 165.3 L130.1 165.3 L129.9 165.3 L129.8 165.3 L129.7 165.2 L129.7 165.1 L129.2 164.7 L129.2 164.7 L129.2 164.7 L129.1 164.7 L129.0 164.7 L128.9 164.6 L128.6 164.2 L128.5 164.2 L128.0 163.6 L127.7 163.7 L127.4 163.5 L127.1 163.5 L127.0 163.3 L126.9 163.1 L126.7 162.9 L126.5 162.8 L126.0 162.3 L126.0 162.1 L126.0 162.0 L126.0 161.9 L126.0 161.8 L125.9 161.7 L125.8 161.7 L125.8 161.6 L125.8 161.6 L125.8 161.5 L125.4 161.1 L125.2 160.9 L125.3 160.7 L125.1 160.5 L125.1 160.4 L125.0 160.3 L125.0 160.2 L124.9 160.2 L124.9 160.1 L124.9 160.0 L124.7 160.0 L124.5 159.9 L124.5 159.9 L124.5 159.8 L124.6 159.8 L124.6 159.8 L124.6 159.7 L124.5 159.6 L124.4 159.6 L124.2 159.6 L124.3 159.6 L124.3 159.5 L124.3 159.4 L124.3 159.3 L124.4 159.2 L124.3 159.1 L124.2 159.1 L124.0 159.1 L124.0 159.0 L124.0 158.8 L123.9 158.6 L123.9 158.5 L123.8 158.3 L123.7 158.0 L123.7 157.9 L123.7 157.8 L123.7 157.3 L123.7 157.2 L123.6 157.2 L123.6 157.1 L123.5 157.1 L123.5 157.1 L123.4 157.0 L123.4 156.9 L123.4 156.9 L123.1 156.6 L123.0 156.6 L123.0 156.5 L122.9 156.3 L122.9 156.2 L122.7 156.2 L122.7 156.1 L122.6 156.1 L122.6 156.0 L122.5 156.1 L122.4 156.2 L122.4 156.2 L122.3 156.1 L122.2 156.1 L122.1 156.0 L122.0 155.9 L121.7 155.3 L121.6 155.2 L121.5 155.1 L121.4 155.0 L121.4 154.8 L121.4 154.6 L121.7 154.0 L121.7 153.8 L121.7 153.7 L121.8 153.7 L121.8 153.6 L121.7 153.5 L121.7 153.5 L121.5 153.3 L121.4 153.3 L121.0 153.2 L120.9 152.9 L120.9 152.9 L120.7 152.6 L120.7 152.6 L120.7 152.5 L120.7 152.4 L120.8 152.2 L120.8 152.1 L120.9 152.0 L120.9 151.9 L120.9 151.7 L121.0 151.5 L121.1 151.3 L121.0 151.1 L120.8 151.0 L120.6 151.0 L120.2 150.8 L120.0 150.7 L119.9 150.4 L119.8 150.2 L119.7 150.1 L119.7 150.0 L119.8 149.8 L119.8 149.7 L119.8 149.5 L119.7 149.4 L119.7 149.3 L119.5 149.2 L119.5 149.2 L119.4 148.9 L119.3 148.8 L119.2 148.8 L118.9 148.6 L118.9 148.5 L118.9 148.4 L118.9 148.3 L118.8 148.2 L118.8 148.1 L118.8 148.0 L118.7 147.8 L118.7 147.7 L118.8 147.6 L118.9 147.5 L118.9 147.4 L118.9 147.4 L118.9 147.3 L118.9 147.2 L118.8 147.1 L118.8 147.0 L117.9 146.7 L117.7 146.5 L117.2 146.1 L117.0 145.9 L117.0 145.9 L117.1 145.9 L117.3 146.0 L117.4 145.6 L117.3 145.1 L117.3 144.9 L116.8 144.3 L116.6 144.1 L116.1 144.1 L115.9 144.1 L115.8 144.2 L115.9 144.4 L115.8 144.3 L115.7 144.1 L115.6 143.9 L115.6 143.8 L115.4 143.7 L115.0 143.2 L114.7 143.0 L114.7 142.9 L114.7 142.9 L114.8 142.6 L114.7 142.4 L114.6 142.3 L114.3 142.2 L113.9 142.0 L113.8 142.0 L113.8 141.8 L113.7 141.8 L113.6 141.7 L113.3 141.4 L113.3 141.4 L113.0 141.3 L112.9 141.3 L112.7 141.3 L112.5 141.2 L112.1 140.8 L111.7 140.4 L111.8 140.3 L111.6 140.2 L111.4 140.1 L111.1 140.1 L111.0 140.0 L110.9 139.9 L110.8 139.8 L110.7 139.7 L110.7 139.6 L110.6 139.6 L110.3 139.3 L110.1 139.2 L109.9 139.2 L109.6 139.3 L109.4 139.3 L109.4 139.4 L109.1 139.3 L108.7 139.1 L108.5 139.0 L108.5 139.1 L108.5 139.2 L108.6 139.2 L108.7 139.3 L108.8 139.3 L108.9 139.4 L108.9 139.5 L108.8 139.5 L108.7 139.4 L107.7 138.9 L107.6 138.8 L107.4 138.7 L107.2 138.7 L107.1 138.6 L106.9 138.3 L106.7 138.1 L106.2 137.7 L105.9 137.5 L105.3 136.6 L105.2 136.4 L105.2 136.4 L105.3 136.4 L105.3 136.4 L105.4 136.3 L105.4 136.2 L105.3 136.2 L105.1 136.1 L104.9 135.9 L104.8 135.8 L104.8 135.5 L104.7 135.4 L104.4 135.1 L104.4 134.9 L104.5 134.7 L104.2 134.6 L104.1 134.5 L104.1 134.6 L104.1 134.7 L104.2 134.7 L104.3 134.7 L104.1 134.7 L103.9 134.6 L103.7 134.4 L103.8 134.3 L103.7 134.2 L103.7 134.2 L103.7 134.1 L103.7 134.0 L103.8 134.1 L103.8 134.1 L103.9 134.2 L104.1 134.2 L104.0 134.1 L104.0 134.0 L104.0 134.0 L104.0 133.9 L103.9 133.9 L103.9 133.9 L103.8 133.9 L103.7 133.7 L103.6 133.7 L103.6 133.9 L103.4 133.7 L103.1 133.5 L102.9 133.3 L102.9 133.0 L102.9 133.1 L103.0 133.2 L103.1 133.2 L103.1 133.1 L103.1 133.0 L103.0 132.9 L103.0 132.9 L102.9 132.9 L102.8 132.8 L102.7 132.8 L102.6 132.9 L102.5 132.9 L102.5 132.9 L102.2 132.5 L102.1 132.3 L102.1 132.2 L102.1 131.9 L102.1 131.8 L101.9 131.7 L101.9 131.6 L101.9 131.5 L101.8 131.5 L101.8 131.5 L101.4 131.2 L101.3 131.1 L101.2 130.8 L101.1 130.6 L101.1 130.5 L101.1 130.4 L101.2 130.3 L101.2 130.3 L101.1 130.1 L100.8 129.6 L100.6 129.5 L100.3 129.0 L101.1 128.4 L101.2 128.1 L101.2 127.8 L101.2 127.5 L101.0 127.4 L101.0 127.3 L101.1 127.3 L101.1 127.1 L100.9 126.8 L100.8 127.0 L100.7 127.0 L100.6 126.9 L100.5 126.7 L100.6 126.7 L100.4 126.4 L100.4 126.2 L100.4 125.8 L100.4 125.6 L100.3 125.3 L100.3 125.2 L100.5 125.1 L100.6 125.0 L100.6 124.9 L100.6 124.7 L100.5 124.6 L100.5 124.8 L100.4 124.9 L100.3 125.0 L100.2 125.0 L100.2 124.9 L100.2 124.8 L100.1 124.8 L100.1 124.7 L100.0 124.7 L100.0 124.6 L99.9 124.6 L99.9 124.5 L99.9 124.3 L99.9 124.2 L99.8 124.2 L99.7 124.2 L99.7 124.1 L99.7 124.0 L99.7 124.0 L99.3 123.6 L99.0 123.0 L98.9 122.2 L98.9 122.0 L99.1 121.9 L99.4 122.2 L99.6 122.2 L99.6 122.0 L99.6 121.8 L99.7 121.7 L99.7 121.7 L99.8 121.6 L99.9 121.5 L99.9 121.3 L100.0 121.0 L100.0 120.8 L99.9 120.8 L99.8 121.1 L99.7 120.9 L99.8 120.8 L99.8 120.7 L99.9 120.6 L99.9 120.2 L99.9 119.9 L100.3 119.6 L100.4 119.1 L100.4 119.0 L100.5 119.0 L100.6 118.9 L100.7 118.6 L100.9 118.4 L100.9 118.4 L100.9 118.3 L100.9 118.1 L100.8 118.1 L100.7 118.1 L100.6 118.2 L100.5 118.5 L100.5 118.6 L100.2 118.6 L100.2 118.3 L100.3 117.9 L100.3 117.4 L100.3 116.8 L100.3 116.6 L100.2 116.4 L99.9 116.1 L99.7 115.5 L99.5 115.2 L99.4 115.1 L99.4 115.0 L99.7 114.7 L99.7 114.7 L99.2 114.2 L99.0 114.0 L98.9 114.1 L98.9 114.1 L99.1 114.3 L99.2 114.4 L99.2 114.5 L99.2 114.6 L99.2 114.7 L99.3 114.8 L99.2 114.8 L99.1 114.6 L98.8 114.2 L98.6 113.9 L98.1 113.0 L98.1 112.9 L98.3 113.1 L98.7 113.7 L98.8 113.8 L99.0 113.8 L99.0 113.8 L99.1 113.7 L99.2 113.6 L99.1 113.5 L98.9 113.2 L98.8 113.2 L98.7 113.1 L98.7 113.1 L98.6 113.0 L98.6 112.8 L98.5 112.7 L98.3 112.6 L98.1 112.6 L97.9 112.5 L97.7 112.5 L97.5 112.4 L97.3 111.9 L97.5 111.8 L97.5 111.7 L97.6 111.6 L97.6 111.4 L97.6 111.1 L97.5 111.0 L97.5 110.9 L97.4 110.8 L97.3 111.0 L97.2 110.7 L97.0 110.5 L96.8 110.2 L96.7 110.0 L96.6 109.8 L96.5 109.6 L96.5 109.5 L96.4 109.3 L96.4 109.2 L96.3 108.9 L96.2 108.7 L96.0 108.4 L96.0 108.0 L95.9 107.7 L95.9 107.5 L95.9 107.3 L95.7 107.1 L95.6 107.0 L95.6 106.9 L95.6 106.7 L95.4 106.8 L95.3 106.8 L95.2 106.8 L95.2 106.9 L95.3 107.0 L95.5 107.1 L95.5 107.2 L95.2 107.1 L95.0 107.0 L95.0 106.5 L94.5 106.0 L94.3 105.3 L94.2 105.1 L94.2 104.8 L94.1 104.6 L94.0 104.4 L93.9 104.4 L93.7 104.3 L93.6 104.3 L93.5 104.2 L93.4 104.0 L93.4 103.9 L93.2 103.7 L93.1 103.7 L92.9 103.6 L92.8 103.6 L92.7 103.5 L92.6 103.3 L92.4 103.2 L92.4 103.1 L92.2 103.0 L92.0 102.9 L91.8 102.9 L91.6 102.8 L91.5 102.7 L91.3 102.5 L91.1 102.3 L90.9 102.1 L90.7 102.0 L90.4 101.7 L90.3 101.7 L90.2 101.7 L90.2 101.7 L90.1 101.8 L89.9 101.6 L89.7 101.5 L89.3 101.3 L89.0 101.1 L89.0 100.9 L89.2 100.8 L89.5 100.8 L89.4 100.7 L89.2 100.8 L89.0 100.8 L89.0 100.7 L89.1 100.5 L89.1 100.4 L89.0 100.3 L88.9 100.4 L88.8 100.4 L88.8 100.5 L88.8 100.6 L88.8 100.7 L88.9 100.8 L88.9 100.9 L88.8 101.0 L88.6 100.9 L88.3 101.0 L87.8 100.6 L87.7 100.5 L87.3 100.2 L87.2 100.0 L87.1 100.0 L86.9 99.9 L86.8 99.8 L86.6 99.7 L86.4 99.6 L86.2 99.6 L86.1 99.5 L85.9 99.7 L85.9 99.8 L85.9 100.0 L85.5 100.0 L85.4 99.8 L85.1 99.7 L84.9 99.8 L84.7 99.6 L84.5 99.4 L84.3 99.1 L84.0 98.8 L83.9 98.5 L84.0 98.3 L84.0 98.3 L84.2 98.4 L84.3 98.3 L84.2 98.1 L82.9 96.3 L82.3 95.5 L82.0 95.1 L82.0 94.9 L82.0 94.8 L82.0 94.7 L82.0 94.6 L82.0 94.5 L81.9 94.5 L81.8 94.6 L81.7 94.6 L81.5 94.5 L81.4 94.4 L81.2 94.0 L81.4 94.0 L81.7 94.0 L81.9 94.1 L82.1 94.0 L82.3 93.8 L82.3 93.3 L82.5 92.9 L82.5 92.7 L82.3 92.3 L82.2 92.0 L82.3 91.4 L82.3 91.2 L82.2 91.0 L82.1 90.8 L82.0 90.6 L81.8 90.4 L81.7 90.3 L81.6 90.2 L81.5 90.2 L81.4 90.0 L81.3 89.9 L81.1 89.8 L80.9 89.6 L80.8 89.3 L80.6 89.1 L80.6 89.0 L80.6 88.8 L80.6 88.7 L80.5 88.6 L80.4 88.5 L80.3 88.4 L80.5 88.3 L80.3 88.0 L79.9 87.6 L79.8 87.5 L79.7 87.1 L79.6 87.0 L79.5 86.9 L79.4 86.9 L79.4 86.8 L79.4 86.7 L79.4 86.6 L79.3 86.5 L79.2 86.2 L79.1 86.1 L79.0 86.0 L78.7 85.9 L78.5 85.9 L78.2 85.3 L77.9 85.0 L77.7 85.0 L77.7 85.1 L77.7 85.2 L77.8 85.3 L77.7 85.4 L77.5 85.4 L77.2 85.2 L77.1 85.1 L77.0 85.1 L76.8 84.8 L76.7 84.7 L76.7 84.7 L76.7 84.4 L76.7 84.4 L76.6 84.4 L76.5 84.3 L76.4 84.1 L76.4 83.8 L76.5 83.6 L76.7 83.4 L76.8 83.2 L76.8 82.9 L76.8 82.6 L76.7 82.4 L76.5 82.2 L76.2 82.0 L75.8 82.0 L75.5 81.9 L75.1 81.8 L74.9 81.5 L74.3 80.2 L74.0 79.8 L73.6 79.3 L72.9 77.7 L72.1 76.4 L71.6 75.9 L71.0 75.4 L70.8 75.2 L70.6 74.7 L70.3 74.3 L70.1 73.6 L70.0 73.7 L69.8 73.6 L69.6 73.2 L68.9 72.7 L68.2 71.8 L67.9 71.3 L67.8 71.2 L67.8 71.1 L67.8 71.1 L67.9 70.9 L68.0 70.8 L67.9 70.7 L67.7 70.4 L66.8 69.5 L66.4 69.2 L66.3 69.1 L66.0 68.9 L65.8 68.5 L65.5 68.2 L65.1 67.6 L65.0 67.3 L64.9 67.1 L64.9 66.8 L64.9 66.6 L64.8 66.5 L64.5 66.2 L64.3 65.9 L64.0 65.3 L63.8 65.0 L63.7 65.0 L63.5 64.9 L63.4 64.9 L63.4 64.8 L63.3 64.7 L63.2 64.5 L63.2 64.2 L63.1 64.0 L62.6 63.5 L62.4 63.3 L62.3 63.2 L62.2 63.1 L61.7 62.8 L61.7 62.9 L61.6 62.9 L61.5 62.7 L61.7 62.6 L61.9 62.5 L62.1 62.4 L62.2 62.5 L62.2 62.4 L62.1 62.3 L62.0 62.3 L61.7 62.2 L61.6 62.2 L61.6 62.2 L61.6 62.2 L61.5 62.2 L61.5 62.2 L61.4 62.1 L61.3 62.1 L61.3 62.0 L61.1 62.0 L61.0 62.0 L60.9 61.9 L60.4 61.6 L60.3 61.7 L60.2 61.7 L60.1 61.7 L60.1 61.8 L60.2 61.8 L60.2 61.8 L60.1 61.8 L60.0 61.7 L59.9 61.7 L59.8 61.7 L59.7 61.8 L59.4 61.9 L59.3 61.9 L59.2 62.0 L59.2 62.0 L59.1 62.0 L59.1 62.0 L59.1 62.0 L58.9 62.0 L58.7 62.0 L58.5 62.0 L58.4 62.1 L58.4 62.1 L58.4 62.1 L58.3 62.0 L58.3 62.0 L58.4 62.0 L58.4 61.9 L58.4 61.8 L58.4 61.8 L58.5 61.7 L58.6 61.7 L58.5 61.7 L58.4 61.7 L58.3 61.7 L58.2 61.7 L58.2 61.8 L58.3 61.8 L58.3 61.8 L58.1 61.9 L58.1 61.9 L58.0 62.1 L57.9 62.1 L57.9 62.1 L57.9 62.1 L57.9 62.0 L57.9 62.0 L57.9 61.9 L58.0 61.9 L58.1 61.8 L58.1 61.8 L58.1 61.8 L58.1 61.7 L58.0 61.7 L57.9 61.7 L57.8 61.8 L57.8 61.9 L57.7 61.9 L57.7 61.9 L57.7 61.9 L57.6 61.9 L57.6 61.9 L57.6 61.8 L57.6 61.8 L57.6 61.8 L57.6 61.8 L57.5 61.8 L57.5 61.8 L57.4 61.7 L57.4 61.7 L57.3 61.8 L57.2 61.7 L57.2 61.7 L57.1 61.6 L57.1 61.6 L57.0 61.4 L57.0 61.5 L57.0 61.5 L56.9 61.5 L56.9 61.6 L56.8 61.5 L56.7 61.5 L56.7 61.6 L56.7 61.7 L56.6 61.7 L56.5 61.8 L56.4 61.8 L56.4 61.9 L56.6 62.0 L56.6 62.1 L56.6 62.1 L56.5 62.1 L56.5 62.2 L56.5 62.2 L56.4 62.1 L56.4 62.3 L56.4 62.4 L56.3 62.5 L56.1 62.5 L56.1 62.5 L56.1 62.5 L56.1 62.5 L56.2 62.4 L56.1 62.4 L56.0 62.2 L56.0 62.1 L56.0 61.9 L55.9 61.8 L55.7 61.9 L55.7 61.8 L55.7 61.7 L55.8 61.5 L55.9 61.4 L56.0 61.4 L56.0 61.4 L56.1 61.3 L56.2 61.3 L56.2 61.2 L56.2 61.2 L56.2 61.1 L56.2 61.1 L56.3 61.0 L56.4 61.0 L56.4 61.1 L56.3 61.1 L56.3 61.1 L56.3 61.1 L56.4 61.1 L56.5 61.2 L56.5 61.1 L56.6 61.0 L56.5 61.0 L56.5 61.0 L56.4 60.9 L56.4 60.8 L56.5 60.8 L56.6 60.8 L56.6 60.7 L56.6 60.6 L56.7 60.1 L56.7 60.2 L56.8 60.2 L56.8 60.2 L56.8 60.2 L56.8 60.1 L56.8 60.1 L56.7 60.1 L56.7 60.1 L56.9 59.9 L57.1 59.6 L57.2 59.2 L57.3 58.8 L57.5 58.5 L57.6 58.2 L57.7 58.0 L58.0 57.6 L57.9 57.2 L57.9 56.7 L57.7 56.2 L57.9 55.6 L58.0 55.3 L58.2 55.1 L58.2 55.0 L58.1 55.0 L58.3 54.7 L58.3 54.6 L58.3 54.5 L58.3 54.4 L58.4 54.1 L58.3 54.0 L58.2 54.0 L58.2 53.9 L58.3 53.7 L58.5 53.3 L58.6 52.9 L58.5 52.6 L58.5 52.5 L58.6 52.3 L58.7 52.1 L58.9 51.2 L58.9 51.1 L59.0 50.8 L59.0 50.8 L59.0 50.6 L59.1 50.5 L59.3 50.4 L59.3 50.3 L59.2 50.1 L59.3 49.9 L59.4 50.0 L59.4 49.9 L59.4 49.9 L59.4 49.9 L59.5 49.9 L59.4 49.7 L59.4 49.6 L59.4 49.4 L60.5 49.6 L61.7 49.8 L63.2 50.0 L64.6 50.2 L66.1 50.4 L67.2 50.6 L67.8 50.7 L69.0 50.9 L70.0 51.0 L70.3 51.0 L70.5 50.9 L71.6 50.2 L72.6 49.4 L73.8 48.6 L74.5 48.0 L75.2 47.1 L75.8 46.2 L76.3 45.5 L76.8 44.7 L77.0 44.5 L77.3 44.3 L78.2 44.2 L79.0 44.0 L80.5 43.8 L81.9 43.5 L83.2 43.3 L84.4 43.1 L84.6 42.9 L85.0 42.0 L85.4 41.3 L85.7 40.5 L86.0 39.9 L86.1 39.7 L86.4 39.6 L87.4 39.0 L88.6 38.5 L89.4 38.1 L89.4 38.1 L89.4 38.1 L89.4 38.1 L89.4 38.1 L88.9 37.6 L87.9 36.5 L86.8 35.4 L85.7 34.3 L84.6 33.2 L84.6 33.1 L84.5 33.1 L84.5 33.1 L84.5 33.0 L83.2 31.8 L81.9 30.7 L81.9 30.6 L80.6 29.4 L79.3 28.2 L79.7 28.1 L81.8 27.6 L84.2 27.0 L86.7 26.4 L87.3 26.2 L89.1 25.7 L89.5 25.6 L91.4 25.2 L93.6 24.6 L95.8 24.1 L98.0 23.5 L99.2 23.3 L99.2 23.3 L99.2 23.3 L99.5 23.1 L100.7 22.2 L100.9 22.1 L101.0 22.0 L101.0 22.0 L101.0 22.0 L101.1 22.0 L101.1 22.0 L103.1 22.3 L105.0 22.6 L107.0 22.9 L108.9 23.1 L109.7 23.3 L109.7 23.3 L109.7 23.3 L109.7 23.3 L113.1 23.8 L113.6 24.0 L114.2 24.3 L115.2 24.8 L116.1 25.2 L116.9 25.7 L117.8 26.1 L118.7 26.6 L119.6 27.0 L120.4 27.4 L121.3 27.9 L122.2 28.3 L123.0 28.8 L123.9 29.2 L124.8 29.7 L125.6 30.1 L126.5 30.5 L127.4 31.0 L128.2 31.4 L129.1 31.9 L130.0 32.3 L130.6 32.8 L131.5 33.4 L132.3 34.1 L133.2 34.7 L134.0 35.3 L134.9 36.0 L135.9 36.7 L136.8 37.4 L137.0 37.6 L137.7 38.1 L137.8 38.1 L137.8 38.1 L137.8 38.1 L138.8 38.9 L139.7 39.5 L140.5 40.1 L141.4 40.7 L142.3 41.3 L143.4 42.1 L144.6 42.9 L145.7 43.7 L146.8 44.5 L147.3 44.9 L148.0 45.3 L149.1 46.1 L150.2 46.9 L151.4 47.7 L152.3 48.4 L153.3 49.0 L154.2 49.7 L155.1 50.4 L155.9 50.9 L156.0 50.9 L156.0 51.0 L156.1 51.0 L156.2 51.0 L157.1 51.1 L157.9 51.1 L158.6 51.2 L159.4 51.3 L160.2 51.3 L161.2 51.4 L162.3 51.5 L163.3 51.6 L164.3 51.6 L165.3 51.7 L166.3 51.8 L167.3 51.9 L168.3 52.0 L169.1 52.0 L169.9 52.1 L170.6 52.1 L171.4 52.2 L172.4 52.3 L172.8 52.2 L173.1 52.2 L173.3 52.1 L173.7 52.0 L174.1 52.0 L175.2 52.1 L176.3 52.2 L177.5 52.3 L178.6 52.4 L179.5 52.6 L180.5 52.7 L181.5 52.8 L182.5 52.9 L183.1 53.0 L183.1 53.0 L183.1 53.0 L183.1 53.0 L183.2 53.2 L183.7 53.9 L184.2 55.2 L184.3 55.4 L184.3 56.0 L184.4 56.3 L184.5 56.6 L184.7 56.8 L184.9 57.0 L185.1 57.1 L185.3 57.3 L185.4 57.5 L185.9 57.5 L187.7 57.5 L189.4 57.5 L191.2 57.5 L193.0 57.5 L193.2 57.7 L193.3 57.8 L193.6 57.9 L193.6 57.9 L193.7 58.4 L193.7 58.7 L193.6 58.9 L193.4 58.9 L193.3 58.9 L193.3 58.9 L193.3 59.0 L193.5 59.0 L193.7 59.0 L193.8 58.9 L193.9 58.7 L194.0 58.8 L194.0 58.9 L193.9 59.1 L193.8 59.3 L193.8 59.4 L193.8 59.7 L194.0 59.9 L194.8 60.7 L194.8 60.8 L194.7 61.0 L194.6 61.2 L194.6 61.4 L194.7 61.6 L194.8 61.7 L195.1 62.1 L195.2 62.2 L195.1 62.3 L195.1 62.4 L195.3 62.4 L195.6 62.6 L195.7 62.6 L196.1 62.6 L196.2 62.6 L196.4 62.7 L196.5 62.7 L196.5 62.8 L196.5 62.8 L196.5 62.9 L196.4 62.9 L196.4 63.0 L196.3 62.9 L196.2 62.9 L196.1 63.0 L196.0 63.1 L196.0 63.2 L196.1 63.3 L196.3 63.5 L196.6 63.7 L196.7 63.7 L196.7 63.8 L197.0 64.1 L197.4 64.4 L197.4 64.5 L197.3 64.7 L197.3 64.9 L197.3 65.0 L197.4 65.0 L197.3 65.1 L197.2 65.3 L197.1 65.4 L197.0 65.5 L197.1 65.4 L197.1 65.3 L197.0 65.1 L197.1 64.9 L197.1 64.8 L197.2 64.8 L197.1 64.6 L197.0 64.8 L196.8 65.1 L196.6 65.2 L196.8 64.8 L196.8 64.7 L196.8 64.5 L196.7 64.5 L196.6 64.7 L196.4 65.3 L196.4 65.5 L196.4 65.5 L196.4 65.6 L196.4 65.7 L196.5 65.6 L196.6 65.6 L196.6 65.4 L196.7 65.4 L196.7 65.8 L196.7 65.9 L196.8 65.9 L196.9 65.8 L197.0 65.7 L197.1 65.8 L197.1 66.0 L197.0 66.1 L197.2 66.2 L197.3 66.1 L197.3 66.0 L197.4 65.9 L197.4 66.1 L197.4 66.1 L197.3 66.2 L197.4 66.3 L197.4 66.3 L197.3 66.4 L197.2 66.4 L197.3 66.6 L197.3 66.7 L197.1 66.6 L197.0 66.6 L196.9 66.7 L197.1 66.7 L197.3 66.7 L197.4 66.6 L197.5 66.5 L197.6 66.5 L197.7 66.6 L197.5 66.7 L197.5 66.9 L197.6 67.1 L197.7 67.1 L197.8 67.0 L197.8 66.9 L197.7 66.9 L197.7 66.8 L197.7 66.7 L197.8 66.6 L198.1 66.6 L198.3 66.6 L198.4 66.6 L198.7 66.9 L199.1 67.1 L199.2 67.2 L199.0 67.3 L199.2 67.4 L199.3 67.4 L199.3 67.3 L199.3 67.2 L199.5 67.3 L199.6 67.3 L200.0 67.3 L200.1 67.3 L200.3 67.2 L200.3 67.2 L200.4 67.2 L200.6 67.3 L200.8 67.3 L201.0 67.3 L201.1 67.5 L201.3 67.7 L201.4 67.8 L201.5 67.8 L201.5 67.9 L201.6 67.9 L201.6 68.0 L201.6 68.2 L201.7 68.3 L201.5 68.3 L201.5 68.2 L201.4 68.1 L201.5 68.0 L201.4 68.0 L201.2 68.2 L200.6 68.2 L200.5 68.4 L200.4 68.4 L200.3 68.2 L200.1 68.2 L199.8 68.4 L199.8 68.4 L200.1 68.5 L200.2 68.5 L200.3 68.6 L200.3 68.6 L200.4 68.7 L200.5 68.7 L200.6 68.8 L200.6 68.8 L200.7 68.8 L200.8 68.6 L200.9 68.6 L200.9 68.6 L200.9 68.5 L201.0 68.5 L201.0 68.5 L201.1 68.6 L201.2 68.6 L201.1 68.8 L201.0 68.8 L200.9 68.9 L200.9 69.0 L200.8 69.1 L200.8 69.3 L200.8 69.4 L200.9 69.4 L201.0 69.4 L201.1 69.3 L201.2 69.2 L201.3 69.2 L201.5 69.2 L201.7 69.3 L201.6 69.5 L201.6 69.7 L201.7 69.9 L201.7 70.1 L201.7 70.5 L201.8 70.7 L201.9 70.7 L201.9 70.8 L202.0 70.9 L202.1 70.9 L202.2 70.8 L202.2 70.7 L202.2 70.6 L202.4 70.5 L202.5 70.7 L202.6 70.6 L202.7 70.7 L202.6 70.8 L202.6 70.9 L202.5 71.0 L202.5 71.1 L202.4 71.1 L202.3 71.1 L202.2 71.1 L202.3 71.2 L202.5 71.3 L202.6 71.4 L202.7 71.4 L202.8 71.3 L202.9 71.1 L202.9 71.1 L202.9 71.1 L202.9 71.1 L203.0 71.1 L202.9 71.3 L202.9 71.3 L203.2 71.3 L203.3 71.3 L203.6 71.4 L203.8 71.4 L203.5 71.1 L203.4 71.0 L203.6 70.9 L203.7 70.9 L203.8 70.9 L203.9 71.0 L204.0 71.0 L204.1 71.0 L204.2 70.8 L204.2 71.0 L204.1 71.2 L204.1 71.3 L204.2 71.6 L204.2 71.7 L204.3 71.7 L204.5 71.8 L204.6 72.0 L205.2 72.8 L205.5 73.1 L205.6 73.2 L205.9 73.3 L206.0 73.4 L206.1 73.5 L206.2 73.6 L206.8 73.8 L207.2 74.1 L207.4 74.1 L207.7 74.1 L207.9 74.1 L208.2 74.3 L208.5 74.5 L209.0 75.1 L209.2 75.4 L209.9 75.9 L210.1 76.0 L210.1 76.3 L209.6 75.9 L209.4 75.8 L208.9 75.7 L208.7 75.7 L208.6 75.6 L208.5 75.2 L208.5 75.3 L208.4 75.5 L208.3 75.6 L208.3 75.7 L208.3 75.9 L208.3 76.0 L208.4 76.1 L208.5 76.2 L208.5 76.2 L208.5 76.8 L208.5 77.0 L208.8 77.7 L208.9 77.9 L209.1 78.0 L209.2 78.1 L210.1 78.4 L210.4 78.6 L210.6 79.0 L210.6 79.4 L210.6 80.5 L210.6 80.7 L210.5 80.9 L210.3 81.0 L210.3 80.9 L210.2 80.8 L210.1 80.9 L210.0 81.0 L210.1 81.2 L210.0 81.6 L210.0 82.0 L209.9 82.3 L209.7 82.2 L209.7 82.0 L209.7 81.9 L209.7 81.7 L209.6 81.6 L209.5 81.5 L209.4 81.5 L209.3 81.4 L209.3 81.4 L209.2 81.4 L209.2 81.3 L209.2 81.1 L209.2 81.0 L209.1 80.9 L209.1 80.8 L208.9 80.7 L208.8 80.6 L208.7 80.7 L208.4 81.1 L208.4 81.2 L208.2 81.2 L208.3 81.4 L208.4 81.5 L208.5 81.6 L208.5 81.6 L208.6 81.8 L208.6 81.9 L208.6 81.9 L208.5 81.9 L208.4 82.0 L208.4 82.0 L208.4 82.2 L208.4 82.3 L208.5 82.5 L208.4 82.6 L208.5 82.7 L208.7 82.6 L208.8 82.4 L208.7 82.3 L208.8 82.3 L208.9 82.3 L209.0 82.5 L209.0 82.5 L209.1 82.5 L209.1 82.5 L209.1 82.6 L209.1 82.6 L209.1 82.7 L209.2 82.7 L209.2 82.7 L209.5 82.7 L209.6 82.9 L209.6 83.0 L209.7 83.2 L209.7 83.3 L209.5 83.5 L209.7 83.9 L209.9 84.5 L210.1 84.8 L210.7 85.4 L210.9 85.8 L211.0 86.3 L211.0 86.3 L210.8 85.8 L210.7 85.7 L210.6 85.7 L210.5 85.6 L210.3 85.6 L210.2 85.4 L210.1 85.3 L209.9 85.3 L209.9 85.5 L210.0 85.6 L210.2 85.8 L210.3 85.9 L210.3 85.8 L210.4 85.7 L210.4 85.7 L210.8 86.4 L211.9 87.8 L212.2 88.0 L212.2 87.8 L212.1 87.7 L212.1 87.6 L212.2 87.5 L212.3 87.5 L212.3 87.5 L212.3 87.7 L212.4 87.7 L212.4 87.8 L212.5 87.8 L212.5 87.9 L212.7 88.0 L213.1 88.1 L213.2 88.2 L213.3 88.6 L213.3 88.7 L213.4 88.9 L213.5 89.1 L213.6 89.4 L213.7 89.6 L213.7 89.8 L213.6 90.0 L213.6 90.1 L213.6 90.2 L213.7 90.3 L213.7 90.4 L213.8 90.6 L213.9 90.8 L213.9 91.0 L213.9 91.4 L214.0 91.8 L214.0 92.0 L214.2 92.1 L214.2 91.9 L214.5 92.1 L214.8 92.4 L214.9 92.6 L215.0 92.7 L215.2 93.4 L215.5 93.5 L215.7 93.7 L215.8 94.1 L215.8 94.7 L215.8 94.8 L215.9 95.0 L216.0 95.1 L216.1 95.2 L216.3 95.2 L216.5 95.0 Z" fill="#172033" fill-rule="evenodd"/></svg>
