<svg xmlns="http://www.w3.org/2000/svg" viewBox="0 0 320 200" role="img"><path d="M173.3 174.0 L175.5 175.4 L176.1 176.2 L175.3 176.7 L174.9 176.7 L174.5 176.6 L174.2 176.6 L173.8 176.7 L173.6 177.0 L173.3 177.7 L173.1 178.0 L172.6 178.0 L172.1 177.5 L171.7 176.9 L171.3 176.5 L170.8 176.7 L170.6 176.7 L170.4 176.6 L169.0 175.8 L168.8 175.5 L168.4 174.0 L168.1 173.3 L167.4 172.8 L167.0 172.7 L166.2 172.6 L165.9 172.5 L165.4 172.3 L165.3 172.0 L165.4 171.8 L165.4 171.5 L165.4 171.2 L165.4 170.9 L165.3 170.6 L164.9 170.3 L164.6 170.2 L164.2 170.1 L163.8 170.0 L163.4 170.1 L163.3 170.2 L162.9 170.8 L162.7 171.0 L162.4 171.1 L161.9 171.1 L161.2 171.0 L160.6 170.8 L159.2 170.1 L158.4 169.8 L158.6 169.4 L158.7 169.3 L158.1 168.8 L157.5 168.9 L157.0 169.1 L156.6 169.3 L155.9 169.1 L155.5 168.7 L154.4 167.5 L154.3 166.9 L154.1 166.7 L153.8 166.4 L153.8 166.2 L154.0 165.6 L154.2 165.2 L154.9 164.5 L155.2 164.1 L155.3 164.2 L155.5 164.3 L155.6 164.3 L155.7 164.4 L156.2 164.9 L156.6 165.1 L157.0 165.3 L157.4 165.3 L158.2 165.3 L158.6 165.5 L159.3 166.1 L160.1 166.6 L162.1 167.5 L163.1 168.3 L164.4 168.9 L165.5 169.7 L166.2 170.1 L167.8 170.5 L169.3 171.2 L173.3 174.0 Z M148.0 157.9 L148.7 158.0 L149.3 158.2 L149.7 158.5 L149.8 159.1 L148.9 158.8 L148.2 158.6 L147.6 158.3 L147.0 157.7 L147.3 157.6 L147.6 157.7 L147.8 157.8 L148.0 157.9 Z M218.0 121.1 L218.2 120.8 L218.1 120.6 L217.8 120.6 L217.7 120.5 L217.2 119.6 L217.2 119.1 L217.7 118.7 L218.5 119.4 L219.0 120.4 L219.1 121.3 L218.3 121.7 L218.0 121.7 L217.9 121.5 L217.9 121.3 L218.0 121.1 Z M241.0 141.0 L241.4 140.9 L241.6 141.2 L241.6 141.6 L241.1 141.8 L240.6 141.7 L240.2 141.6 L239.7 141.6 L239.2 141.8 L239.0 141.6 L238.6 141.6 L238.0 141.6 L237.5 141.5 L234.9 140.5 L234.1 140.6 L233.3 141.3 L232.9 141.1 L232.4 141.0 L231.4 141.0 L231.1 141.0 L230.8 140.8 L230.6 140.5 L230.3 140.3 L228.7 139.7 L228.1 139.2 L227.8 139.1 L227.4 139.2 L226.3 139.5 L226.0 139.4 L225.6 139.2 L224.1 138.8 L224.2 138.9 L224.0 139.0 L223.5 139.1 L223.3 139.0 L222.9 138.6 L222.8 138.6 L222.4 138.5 L222.2 138.2 L221.9 137.6 L221.7 138.1 L221.6 138.3 L220.9 137.8 L220.4 137.6 L219.9 137.8 L219.8 137.6 L219.5 137.3 L219.4 137.1 L219.1 137.2 L218.8 137.0 L218.6 136.6 L218.7 136.4 L218.3 135.9 L217.9 135.9 L217.4 136.0 L216.9 135.8 L216.7 135.5 L216.6 135.1 L216.4 134.8 L215.8 134.6 L215.6 134.4 L215.2 133.9 L214.7 133.6 L214.4 133.8 L214.3 134.1 L213.9 133.8 L213.2 133.2 L213.2 132.8 L213.1 132.6 L212.8 132.5 L212.5 132.4 L212.5 132.1 L212.5 131.9 L212.3 131.6 L212.0 131.4 L211.7 131.7 L211.2 131.9 L210.7 131.8 L210.2 131.7 L211.0 129.4 L210.6 129.2 L210.5 128.8 L210.5 128.4 L210.4 128.0 L210.1 128.0 L209.4 128.2 L209.0 128.2 L209.3 127.8 L209.6 127.2 L209.6 126.6 L209.0 126.4 L209.4 125.5 L209.6 125.1 L209.9 124.9 L210.1 124.9 L210.0 124.7 L209.7 124.4 L209.5 124.4 L209.0 124.5 L208.7 124.4 L208.5 124.3 L208.3 124.0 L208.1 123.8 L207.6 123.7 L206.6 123.7 L206.2 123.6 L206.0 123.3 L205.8 123.2 L205.3 123.2 L204.5 123.2 L204.3 123.3 L204.2 123.5 L204.0 123.6 L203.7 123.7 L203.4 123.7 L203.2 123.5 L202.2 123.4 L201.8 123.2 L201.6 123.0 L201.4 122.4 L201.7 121.6 L201.6 121.2 L201.7 121.1 L201.8 120.9 L201.9 120.8 L202.1 120.8 L201.8 120.2 L201.8 119.4 L202.1 118.7 L202.8 118.5 L203.0 118.6 L203.2 118.7 L203.4 118.8 L203.6 119.0 L205.6 118.6 L209.4 120.3 L213.3 122.7 L215.4 124.4 L216.1 124.2 L216.6 124.5 L217.3 125.6 L217.8 125.9 L218.4 126.0 L218.9 125.9 L219.4 125.9 L219.9 126.1 L220.9 126.8 L221.1 127.1 L221.5 127.4 L222.2 127.4 L223.1 127.3 L223.6 126.9 L225.0 127.4 L225.6 127.4 L226.1 127.2 L226.4 127.5 L226.9 128.1 L227.3 128.4 L227.7 128.6 L228.9 128.4 L229.5 128.5 L229.7 128.5 L229.9 127.7 L230.1 127.5 L230.5 127.4 L230.8 127.4 L231.5 127.8 L232.5 129.1 L232.9 129.4 L233.3 129.6 L233.6 130.2 L234.3 132.1 L234.5 132.4 L234.8 132.6 L235.0 132.7 L235.2 132.8 L235.4 134.0 L235.7 134.6 L236.2 135.0 L237.4 135.8 L237.8 136.3 L238.0 136.8 L238.0 138.9 L237.9 139.1 L237.6 139.2 L237.4 139.3 L237.1 139.6 L237.0 139.8 L237.2 140.7 L238.4 140.9 L239.8 140.8 L241.0 141.0 Z M226.6 105.9 L226.1 105.4 L225.6 104.6 L225.2 103.7 L224.8 101.1 L224.9 100.7 L225.2 100.1 L225.7 100.1 L226.1 100.1 L226.6 99.9 L226.6 100.2 L226.6 100.4 L226.4 100.7 L226.3 100.9 L226.2 101.0 L226.1 101.1 L226.3 101.7 L226.8 104.7 L226.8 105.3 L226.6 105.9 Z M205.5 90.0 L205.4 90.1 L205.0 90.2 L204.8 90.3 L204.8 89.5 L204.6 88.8 L203.8 87.5 L204.1 87.3 L204.2 87.4 L204.5 87.8 L205.0 88.3 L206.3 89.0 L206.5 89.4 L206.7 90.0 L207.7 91.5 L208.7 93.3 L209.1 93.9 L209.3 94.2 L209.6 95.0 L209.9 95.3 L210.2 95.7 L210.5 96.1 L211.0 97.0 L211.2 97.6 L211.3 98.2 L211.2 99.5 L211.4 100.1 L211.9 101.4 L212.0 102.2 L211.8 103.0 L211.4 103.6 L211.1 103.7 L211.0 103.0 L209.5 101.4 L209.1 100.5 L208.9 100.1 L208.5 99.9 L208.1 100.0 L207.9 101.0 L207.5 101.7 L206.9 101.0 L206.3 100.2 L205.7 99.3 L205.5 98.6 L205.5 96.3 L205.5 94.2 L205.4 93.4 L205.5 93.0 L206.0 91.9 L205.9 91.4 L205.6 90.8 L205.5 90.0 Z M185.0 105.4 L184.9 106.4 L184.0 107.1 L181.2 107.6 L179.8 108.1 L179.1 108.5 L178.4 109.0 L175.8 108.3 L173.5 107.2 L172.7 107.1 L171.2 107.4 L170.7 107.2 L170.4 106.9 L170.2 106.5 L169.8 106.1 L169.7 106.1 L169.3 106.2 L169.1 106.1 L169.0 106.0 L168.8 105.5 L168.6 105.4 L167.5 104.9 L167.2 104.7 L166.7 104.6 L162.6 104.4 L159.6 104.9 L157.9 104.9 L156.9 104.8 L156.5 104.8 L156.2 104.9 L156.0 104.7 L155.2 104.6 L154.4 104.4 L153.6 104.4 L152.8 104.2 L151.6 103.6 L151.0 103.4 L150.3 103.5 L149.7 103.8 L149.1 103.8 L148.4 103.3 L146.7 101.6 L146.1 101.1 L145.1 100.7 L145.0 100.5 L145.1 100.1 L145.1 99.9 L144.9 99.8 L144.6 99.7 L144.4 99.5 L144.3 99.2 L144.3 98.9 L144.2 98.6 L143.9 98.4 L143.3 98.3 L143.2 98.1 L143.3 97.8 L143.3 97.4 L143.0 96.6 L142.6 95.9 L142.1 95.2 L141.5 94.6 L140.9 94.2 L140.7 94.0 L140.6 93.6 L141.1 93.4 L141.4 93.1 L141.6 92.7 L141.5 92.4 L141.0 91.6 L140.9 91.3 L140.8 90.8 L141.1 89.9 L141.1 89.5 L140.9 89.0 L140.9 88.6 L140.5 88.3 L140.3 88.2 L140.5 87.9 L140.9 87.5 L141.0 86.3 L141.2 85.8 L141.7 85.5 L142.3 85.4 L144.6 84.0 L145.8 84.5 L147.1 85.3 L149.0 87.0 L150.5 88.1 L150.7 88.4 L150.9 88.9 L151.3 89.5 L151.8 90.1 L152.2 90.5 L152.9 90.7 L153.7 90.8 L155.1 90.8 L155.5 90.7 L155.8 90.6 L156.1 90.4 L156.3 90.1 L156.7 90.1 L157.1 90.2 L157.9 90.5 L158.7 90.7 L159.1 90.8 L159.4 90.8 L159.8 90.6 L160.4 90.1 L160.8 90.0 L161.6 90.1 L162.7 90.4 L163.4 90.5 L163.7 90.4 L164.0 90.1 L164.2 90.0 L164.4 90.0 L164.7 90.2 L164.9 90.3 L167.6 90.3 L167.7 90.2 L168.1 90.0 L168.3 90.0 L168.4 90.1 L168.5 90.3 L168.8 90.4 L169.5 90.7 L170.2 91.8 L171.7 92.3 L172.3 92.9 L173.3 94.5 L174.6 94.3 L176.3 95.0 L177.8 96.1 L178.8 97.2 L179.0 97.8 L179.2 98.5 L179.2 100.0 L179.4 100.3 L179.8 100.3 L180.4 100.2 L180.9 100.2 L181.2 100.4 L182.0 100.9 L183.2 101.2 L183.5 101.4 L183.6 101.8 L183.5 102.3 L183.6 102.7 L184.1 102.9 L184.2 103.1 L184.2 103.5 L184.2 104.2 L184.3 104.6 L184.5 104.8 L184.7 105.0 L185.0 105.4 Z M148.9 81.3 L148.4 81.1 L148.1 80.5 L148.0 79.8 L148.3 79.1 L148.5 79.1 L148.7 79.1 L148.8 79.0 L149.0 78.8 L149.3 79.5 L149.5 80.3 L149.4 81.0 L148.9 81.3 Z M164.3 80.8 L164.7 80.7 L165.1 80.4 L165.4 80.1 L165.6 79.8 L166.1 78.1 L166.5 77.3 L167.1 77.4 L168.1 79.1 L168.5 79.4 L169.0 79.4 L169.4 79.4 L169.8 79.6 L170.1 79.8 L169.6 80.3 L169.1 81.3 L168.6 81.6 L168.3 81.8 L167.6 81.6 L166.8 81.1 L166.1 80.9 L165.4 81.1 L165.5 81.5 L165.0 81.8 L164.2 82.0 L163.4 82.1 L163.6 81.8 L163.6 81.6 L163.3 81.4 L162.9 81.3 L163.1 81.0 L163.4 80.8 L164.3 80.8 Z M126.0 77.1 L126.3 77.1 L127.1 76.2 L127.5 75.9 L127.5 76.1 L127.4 76.2 L127.3 76.3 L127.2 76.4 L127.2 76.8 L127.1 76.8 L127.2 77.1 L126.9 77.5 L126.8 77.8 L127.0 78.0 L127.5 77.8 L127.4 78.7 L126.8 79.3 L125.2 80.1 L125.3 79.1 L125.4 78.4 L126.0 77.1 Z M158.6 77.1 L158.3 77.1 L158.1 77.0 L158.0 76.8 L157.9 76.5 L158.2 76.4 L158.9 76.4 L159.6 76.1 L159.9 75.6 L160.2 75.9 L160.4 75.6 L160.4 75.4 L160.4 75.2 L160.2 74.9 L160.3 74.7 L160.4 74.7 L160.7 74.9 L161.3 75.2 L162.0 75.1 L162.6 75.2 L163.1 75.9 L163.4 75.9 L163.8 75.3 L164.4 75.4 L165.1 75.9 L165.8 76.5 L166.0 77.3 L165.7 78.3 L165.2 79.3 L164.6 79.8 L164.5 79.6 L164.4 79.5 L164.2 79.5 L163.9 79.6 L163.9 79.2 L163.7 78.8 L163.3 78.6 L162.9 78.6 L163.0 78.8 L163.1 79.4 L162.9 79.4 L162.3 78.4 L161.9 78.0 L161.3 78.2 L160.8 78.5 L160.1 78.5 L159.4 78.4 L158.9 78.1 L158.9 77.9 L158.8 77.6 L158.8 77.3 L158.6 77.1 Z M125.0 75.7 L125.2 75.7 L126.0 75.9 L124.8 78.3 L124.2 78.8 L122.5 79.4 L122.2 79.1 L122.0 78.8 L121.7 78.6 L121.3 78.8 L120.3 77.6 L120.4 77.2 L121.5 77.1 L121.3 76.6 L121.4 76.3 L121.8 76.2 L122.3 76.4 L122.3 75.9 L122.4 76.0 L123.0 76.1 L122.9 75.8 L122.8 75.4 L122.6 75.1 L122.3 74.9 L122.8 74.9 L123.1 75.1 L123.4 75.1 L123.6 75.0 L123.8 74.7 L124.0 75.2 L124.1 75.5 L124.1 75.8 L124.5 76.1 L124.7 76.1 L125.0 75.7 Z M157.9 75.9 L157.5 75.6 L157.5 75.2 L157.8 74.8 L157.9 74.3 L157.8 73.3 L157.9 73.0 L158.4 72.9 L159.0 73.7 L159.2 74.2 L159.2 74.9 L158.7 74.7 L158.4 74.9 L157.9 75.9 Z M91.0 66.9 L92.0 67.3 L92.0 67.7 L91.9 68.0 L91.7 68.1 L90.9 68.4 L90.1 69.0 L89.5 69.2 L88.8 68.1 L88.7 67.9 L88.3 67.7 L88.3 67.3 L88.6 66.3 L88.7 66.0 L89.8 65.2 L90.0 64.9 L90.1 64.5 L90.3 64.0 L90.3 63.5 L90.5 63.5 L90.5 64.2 L90.8 64.8 L91.1 65.6 L91.2 66.4 L91.0 66.9 Z M84.8 58.0 L85.6 57.9 L86.5 57.9 L87.2 58.1 L87.6 58.7 L87.6 59.4 L87.6 59.7 L87.3 60.0 L87.0 60.1 L86.6 60.1 L86.2 60.1 L86.1 60.4 L85.9 60.5 L85.2 60.8 L85.1 61.0 L85.3 61.2 L86.0 61.3 L86.3 61.5 L86.5 61.4 L86.7 61.3 L87.1 61.3 L86.6 61.9 L86.4 62.1 L86.1 62.3 L86.9 63.1 L86.6 63.9 L85.1 65.2 L84.7 65.9 L84.5 66.1 L84.2 66.3 L83.5 66.4 L83.2 66.6 L82.7 66.7 L81.9 66.5 L81.2 66.3 L80.9 66.1 L80.8 65.9 L80.6 65.7 L80.1 65.5 L80.0 65.3 L79.8 64.9 L79.6 64.7 L78.6 63.8 L78.4 63.6 L78.4 61.8 L78.6 60.5 L78.8 60.3 L79.0 60.1 L79.2 59.8 L79.1 59.3 L80.1 59.9 L80.5 59.9 L80.6 59.3 L80.9 59.3 L81.0 59.4 L81.1 59.8 L81.4 59.3 L81.3 59.0 L81.1 58.6 L81.1 58.0 L81.4 57.8 L82.6 57.3 L82.9 57.2 L83.0 57.2 L83.1 57.0 L83.4 57.3 L83.4 57.5 L83.1 57.8 L82.9 58.0 L83.0 58.3 L83.2 58.7 L83.7 58.8 L84.1 58.7 L84.5 58.3 L84.8 58.0 Z M143.8 57.3 L144.2 57.7 L144.2 57.9 L143.8 58.3 L143.5 58.5 L143.2 58.5 L142.8 58.4 L142.3 58.3 L141.9 58.1 L141.6 57.8 L141.1 57.3 L140.7 56.6 L140.4 56.5 L139.9 56.8 L139.4 56.2 L138.8 55.9 L138.4 55.5 L138.4 54.6 L138.6 53.6 L139.1 53.0 L139.8 52.7 L140.9 52.6 L141.9 52.8 L142.2 53.4 L142.1 55.1 L142.3 55.9 L142.7 56.4 L143.8 57.3 Z M204.3 97.4 L202.4 96.1 L202.1 96.1 L202.0 95.5 L201.7 94.9 L200.3 93.1 L200.1 92.7 L200.0 92.4 L199.9 91.7 L199.8 91.3 L199.4 90.7 L197.7 88.9 L195.3 87.6 L194.4 86.6 L192.7 86.4 L192.9 85.8 L191.9 84.7 L191.4 84.3 L191.1 84.3 L190.5 84.3 L190.3 84.2 L190.2 83.9 L190.2 83.3 L190.2 83.1 L189.3 82.3 L187.3 81.4 L186.5 80.6 L183.8 75.8 L183.2 74.0 L182.7 73.2 L182.9 72.9 L183.0 72.7 L182.9 72.5 L182.7 72.2 L182.7 71.7 L182.1 69.8 L181.6 69.1 L180.2 66.1 L180.0 65.6 L180.0 63.6 L179.9 63.3 L178.8 60.8 L179.4 60.3 L180.5 59.4 L181.1 59.3 L181.1 58.9 L180.3 57.0 L178.8 55.2 L178.6 54.8 L178.2 54.6 L176.9 53.4 L176.5 52.8 L176.1 51.2 L176.8 50.7 L178.2 50.8 L179.5 51.3 L180.2 52.0 L180.5 52.1 L180.9 52.0 L181.3 51.8 L181.5 51.5 L181.4 51.2 L180.3 50.5 L180.4 50.2 L180.6 50.0 L180.9 49.8 L181.2 49.9 L181.2 50.1 L182.1 50.1 L182.5 50.4 L183.2 51.3 L183.7 51.7 L184.0 51.9 L184.4 52.2 L184.7 52.8 L184.9 53.3 L184.9 53.6 L185.0 54.0 L185.1 54.1 L185.6 54.4 L185.7 54.6 L186.9 56.4 L188.8 58.4 L190.3 59.6 L191.1 60.8 L191.5 61.4 L191.6 62.1 L191.3 62.9 L190.7 63.3 L189.8 63.6 L189.2 64.0 L189.4 64.4 L189.6 64.9 L189.5 65.4 L189.0 66.4 L189.0 66.8 L189.1 67.3 L189.2 67.8 L189.3 68.4 L190.0 69.0 L190.2 69.3 L190.4 69.7 L190.9 69.6 L191.8 69.2 L192.1 69.3 L193.1 70.1 L193.4 70.4 L193.4 70.7 L193.3 70.9 L193.2 71.1 L193.4 71.4 L193.7 71.6 L193.9 71.6 L194.1 71.5 L194.1 71.4 L195.0 71.8 L195.9 72.5 L196.7 73.3 L197.4 74.2 L196.9 74.0 L196.5 74.3 L196.4 74.7 L196.7 74.9 L197.2 75.1 L197.6 75.5 L197.8 76.1 L197.6 76.6 L197.9 76.8 L198.1 77.0 L198.1 77.3 L198.1 77.7 L198.2 78.1 L198.3 78.2 L198.6 78.2 L198.8 78.3 L199.1 78.5 L199.3 78.6 L199.5 78.8 L199.6 79.2 L199.5 79.4 L198.6 80.1 L199.2 80.4 L199.5 80.6 L199.6 80.8 L200.1 80.7 L200.5 80.8 L200.7 81.1 L200.6 81.6 L200.9 81.6 L201.6 81.8 L201.6 82.1 L200.6 82.3 L200.2 82.3 L200.1 82.5 L200.1 82.9 L200.3 83.4 L200.5 83.6 L200.7 83.8 L200.9 85.1 L201.3 85.5 L200.8 85.8 L200.6 85.6 L200.4 85.2 L200.1 85.1 L199.8 85.3 L199.8 85.6 L200.1 86.1 L201.6 87.5 L202.0 88.1 L203.1 90.9 L203.4 91.3 L203.8 91.6 L204.3 92.3 L205.0 93.5 L205.5 96.3 L205.4 97.1 L205.2 97.6 L204.8 97.7 L204.3 97.4 Z M150.0 57.4 L151.1 58.2 L151.5 58.8 L151.0 59.3 L150.7 59.2 L149.5 58.5 L149.4 58.5 L148.9 58.6 L148.8 58.5 L148.6 58.3 L148.5 58.1 L148.4 57.9 L147.8 57.6 L147.3 57.0 L146.6 56.7 L146.3 56.5 L145.8 55.8 L144.7 54.9 L144.3 54.6 L144.3 54.2 L144.3 53.9 L144.2 53.7 L143.7 53.6 L143.3 53.3 L141.6 51.9 L138.6 51.2 L137.3 50.4 L136.4 50.1 L135.6 49.4 L135.0 49.1 L134.4 49.0 L133.9 49.1 L132.7 48.4 L132.0 48.2 L131.4 48.4 L131.0 47.5 L130.7 47.1 L130.3 46.9 L129.8 46.9 L129.3 46.7 L129.0 46.4 L128.9 45.9 L128.2 46.2 L127.4 46.0 L126.6 45.6 L123.3 43.2 L123.0 43.1 L122.5 43.2 L122.3 43.2 L122.1 42.9 L122.1 42.6 L122.1 42.3 L122.0 42.2 L121.7 42.1 L121.6 42.2 L121.5 42.4 L121.3 42.4 L120.3 41.9 L120.0 41.9 L119.5 42.0 L119.3 41.9 L119.3 41.8 L119.1 41.3 L119.0 41.2 L118.6 41.0 L118.3 40.9 L118.1 40.7 L118.1 40.2 L117.8 40.4 L117.0 40.7 L117.0 40.0 L116.7 39.4 L116.1 39.1 L115.5 39.0 L113.3 38.0 L113.1 36.6 L112.8 36.0 L112.2 36.1 L111.1 35.9 L110.6 35.5 L110.9 35.0 L110.5 34.6 L110.1 34.3 L109.9 34.3 L109.5 34.7 L109.1 34.3 L108.6 33.0 L108.2 32.5 L107.7 32.1 L107.0 31.9 L106.4 32.0 L106.1 31.4 L104.5 30.5 L103.9 30.0 L103.7 29.6 L103.8 29.2 L103.9 28.8 L103.9 28.4 L103.9 26.9 L101.1 24.6 L99.2 23.6 L98.9 23.0 L98.9 22.4 L99.1 22.0 L99.7 22.1 L100.5 22.5 L104.0 23.7 L104.3 23.9 L104.7 24.0 L105.0 23.5 L105.4 23.2 L105.9 23.4 L106.0 23.2 L106.1 23.1 L106.2 23.1 L106.4 23.1 L106.7 23.8 L107.2 24.2 L108.6 24.8 L108.8 24.6 L109.0 24.4 L109.3 24.2 L109.5 24.1 L109.9 24.2 L110.1 24.6 L110.3 25.0 L110.5 25.4 L111.2 26.1 L111.6 26.4 L112.0 26.6 L112.2 26.8 L112.8 27.9 L113.4 28.2 L114.0 29.0 L114.3 29.3 L114.8 29.6 L116.1 30.0 L116.7 30.4 L117.8 31.4 L118.6 31.8 L118.2 32.5 L118.5 33.1 L119.0 33.5 L119.5 33.3 L121.0 33.9 L121.4 34.1 L121.7 34.6 L121.8 35.1 L122.0 35.4 L122.5 35.2 L123.5 36.0 L124.3 35.6 L125.0 35.5 L125.7 35.5 L126.5 35.7 L126.0 35.9 L126.1 36.3 L126.5 36.6 L126.8 36.7 L127.4 36.8 L127.8 37.0 L128.0 37.3 L128.2 37.7 L128.8 37.3 L129.2 37.6 L129.4 38.2 L129.8 38.5 L131.0 38.6 L131.5 38.4 L131.7 38.0 L132.4 38.3 L132.6 38.4 L132.9 38.7 L133.5 38.3 L133.9 38.7 L134.2 39.4 L134.5 40.1 L135.1 40.5 L136.1 41.1 L136.6 41.4 L136.7 41.5 L137.1 41.7 L137.2 41.8 L137.3 42.1 L137.4 42.2 L139.0 43.5 L142.4 45.5 L149.4 50.7 L149.5 51.1 L148.8 51.9 L148.0 52.9 L147.7 53.1 L147.4 52.9 L147.0 52.8 L146.6 52.9 L146.3 53.1 L146.3 53.3 L146.9 53.7 L147.2 54.3 L147.5 54.3 L147.9 54.1 L148.2 53.8 L148.5 54.1 L149.6 55.6 L149.9 56.2 L150.0 56.7 L150.0 57.4 Z M178.1 35.0 L178.5 36.3 L178.3 36.3 L177.9 36.3 L177.3 35.3 L177.1 34.9 L177.2 34.5 L177.6 34.4 L177.9 34.6 L178.1 35.0 Z" fill="#172033" fill-rule="evenodd"/></svg>
