<svg xmlns="http://www.w3.org/2000/svg" viewBox="0 0 320 200" role="img"><path d="M129.6 135.6 L127.5 134.8 L127.6 133.6 L129.2 133.3 L128.4 132.4 L126.0 131.7 L123.1 132.3 L120.6 131.6 L119.0 130.3 L119.4 129.3 L121.7 129.5 L122.5 128.9 L121.7 127.4 L125.7 123.5 L127.5 122.7 L131.2 122.4 L134.4 121.0 L135.7 118.7 L136.9 116.3 L138.5 115.2 L139.3 111.6 L139.1 106.6 L141.2 106.0 L143.2 106.2 L145.4 106.5 L148.0 109.2 L149.0 112.8 L147.8 114.1 L146.9 117.2 L146.9 119.6 L146.6 123.0 L147.4 124.3 L146.1 124.8 L145.9 125.3 L148.2 125.2 L151.5 129.5 L158.1 134.1 L163.6 137.8 L167.2 141.4 L165.1 149.6 L166.2 151.4 L167.1 158.2 L164.6 158.9 L163.7 162.2 L166.4 168.0 L166.8 172.1 L169.0 173.8 L170.0 178.0 L164.6 178.0 L160.0 175.6 L156.1 168.9 L154.9 165.7 L152.2 164.7 L150.2 166.1 L147.9 165.0 L149.3 159.6 L154.2 159.6 L156.3 158.0 L154.3 155.4 L152.9 153.6 L153.3 151.1 L152.2 149.2 L149.3 148.9 L146.4 144.6 L143.6 140.7 L139.6 140.3 L134.5 137.3 L131.9 135.7 L129.6 135.6 Z M87.8 88.1 L82.3 89.3 L78.2 84.4 L76.3 77.3 L77.5 71.8 L82.4 73.4 L87.7 77.1 L90.4 82.2 L87.8 88.1 Z M223.2 37.8 L219.2 37.1 L215.6 36.6 L213.4 34.4 L213.1 32.3 L211.2 27.8 L215.0 26.4 L217.1 26.1 L219.3 26.0 L223.5 29.8 L227.5 31.5 L231.8 32.2 L234.1 35.1 L237.1 33.8 L240.8 34.3 L243.7 37.9 L239.0 38.1 L238.2 40.6 L238.1 43.7 L235.5 46.2 L231.8 46.1 L227.7 44.3 L224.9 41.5 L223.2 37.8 Z M118.1 135.2 L119.1 135.6 L120.4 136.6 L121.4 137.3 L121.1 137.8 L120.2 137.4 L118.7 137.2 L117.9 136.5 L117.4 135.8 L118.1 135.2 Z M128.8 138.0 L129.5 138.3 L130.6 138.9 L131.2 139.9 L130.9 140.8 L130.7 141.3 L130.3 141.4 L129.2 140.1 L128.4 139.4 L128.5 138.8 L128.1 138.3 L128.3 137.9 L128.8 138.0 Z M159.2 126.2 L159.9 126.5 L160.8 128.6 L160.5 129.4 L159.5 129.5 L158.3 129.1 L157.4 128.2 L156.4 127.8 L156.3 126.5 L156.9 126.0 L157.9 126.0 L158.7 126.5 L159.2 126.2 Z M160.0 124.0 L160.4 124.1 L161.2 124.7 L162.2 125.0 L162.5 125.7 L162.0 126.4 L161.2 126.1 L160.3 125.4 L159.7 124.7 L160.0 124.0 Z M158.1 117.9 L158.6 117.6 L159.9 117.2 L161.2 117.5 L162.5 117.5 L163.0 117.8 L162.5 119.0 L161.5 120.3 L159.6 121.1 L158.4 121.9 L157.8 122.0 L157.7 121.2 L158.0 119.6 L157.8 118.6 L158.1 117.9 Z M221.5 23.0 L222.4 22.0 L224.5 22.0 L229.4 22.3 L230.7 22.4 L230.2 23.9 L227.5 23.9 L227.8 25.6 L227.7 26.6 L224.1 25.4 L221.5 23.0 Z M207.0 37.2 L208.0 37.5 L207.8 39.0 L206.2 39.2 L206.1 37.9 L207.0 37.2 Z M202.3 42.7 L202.8 43.2 L203.5 44.7 L202.6 44.7 L201.3 43.5 L202.3 42.7 Z" fill="#172033" fill-rule="evenodd"/></svg>
