<svg xmlns="http://www.w3.org/2000/svg" viewBox="0 0 320 200" role="img"><path d="M75.4 152.2 L75.9 150.6 L75.9 150.5 L76.1 150.3 L76.1 150.2 L76.1 149.9 L76.2 149.7 L76.3 149.5 L76.4 149.1 L76.5 148.9 L76.5 148.6 L76.5 148.4 L76.2 147.6 L76.0 146.7 L75.9 146.6 L75.6 146.6 L74.5 146.7 L74.4 146.7 L74.4 146.3 L74.3 146.2 L74.0 145.9 L73.1 145.6 L72.7 145.4 L72.3 145.0 L72.0 144.6 L71.7 144.0 L71.7 143.5 L72.3 139.9 L72.5 139.3 L72.6 139.1 L72.5 138.9 L72.5 138.9 L72.4 139.1 L72.2 139.0 L71.8 139.0 L71.0 139.3 L70.9 139.4 L70.8 139.4 L70.8 139.4 L71.1 138.2 L71.1 138.0 L71.1 137.9 L71.0 137.7 L70.2 135.2 L69.8 134.6 L69.8 134.4 L70.0 134.1 L70.6 132.7 L70.5 132.6 L69.3 132.2 L67.8 131.2 L67.5 131.7 L67.1 132.1 L66.7 132.3 L66.2 132.5 L65.7 132.5 L65.2 132.5 L64.7 132.4 L64.3 132.2 L64.1 132.0 L63.7 131.2 L63.3 130.8 L63.3 130.6 L63.3 130.6 L63.5 130.2 L63.8 129.4 L64.7 127.6 L65.1 127.1 L65.5 126.8 L65.7 126.7 L66.9 126.2 L67.1 126.0 L68.2 124.9 L68.6 124.4 L68.7 123.9 L68.5 123.7 L68.1 123.2 L68.0 122.9 L67.9 122.7 L67.9 122.0 L67.7 121.6 L67.0 120.9 L66.8 120.5 L66.8 120.2 L66.8 120.0 L66.8 119.9 L66.6 119.6 L66.3 119.4 L66.3 119.3 L66.6 118.8 L67.6 117.7 L67.7 117.5 L68.0 117.2 L68.3 117.0 L70.1 116.2 L70.3 116.0 L70.8 115.6 L71.0 115.5 L71.3 115.4 L71.6 115.3 L71.8 115.1 L71.8 114.8 L71.7 114.4 L71.6 114.2 L71.4 114.1 L70.8 114.0 L70.6 113.9 L70.4 113.7 L70.3 113.5 L70.3 113.3 L70.3 113.2 L70.4 113.0 L70.5 113.0 L70.6 112.9 L70.7 112.9 L70.7 112.8 L70.6 112.7 L70.6 112.6 L70.5 112.6 L70.4 111.3 L70.3 111.2 L69.9 110.9 L69.7 110.5 L69.9 110.1 L70.4 109.7 L70.8 109.5 L73.2 108.9 L73.3 108.8 L73.3 108.7 L73.3 108.6 L73.1 108.2 L73.1 108.0 L73.0 107.3 L73.0 107.1 L73.1 106.9 L73.5 106.6 L73.7 106.4 L73.8 106.2 L73.8 106.0 L73.9 105.7 L74.0 105.5 L75.0 104.4 L75.3 104.2 L75.5 104.1 L75.9 103.9 L76.0 103.8 L76.5 102.9 L76.6 102.7 L76.8 101.3 L76.7 100.9 L76.6 100.6 L76.4 100.2 L76.1 100.0 L75.9 99.7 L75.8 99.4 L75.9 99.0 L76.1 98.7 L77.1 98.2 L77.8 97.3 L78.1 97.1 L78.4 97.1 L78.9 97.0 L80.7 97.4 L81.6 97.3 L83.1 96.8 L83.8 96.6 L85.2 96.6 L86.6 96.8 L87.9 97.3 L88.2 97.3 L88.3 96.9 L88.3 96.9 L88.3 96.3 L88.3 93.6 L88.3 90.9 L88.3 88.2 L88.3 85.6 L88.3 82.9 L88.3 80.2 L88.3 77.5 L88.3 74.9 L88.3 72.2 L88.3 69.5 L88.3 66.8 L88.3 64.2 L88.3 61.5 L88.3 58.8 L88.3 56.1 L88.3 53.5 L88.3 52.0 L88.3 50.6 L88.3 49.1 L88.3 47.7 L90.2 47.7 L91.1 47.7 L92.4 47.7 L94.0 47.7 L95.4 47.7 L96.8 47.7 L98.5 47.7 L99.7 47.7 L99.7 47.7 L99.7 47.7 L99.7 47.7 L99.8 47.7 L99.8 47.7 L99.8 47.7 L99.8 47.6 L99.8 47.6 L99.8 47.6 L99.8 46.3 L99.8 45.2 L99.8 44.1 L99.8 43.0 L99.8 41.9 L99.8 40.5 L99.8 39.0 L99.8 37.6 L99.8 36.1 L99.8 34.7 L99.8 33.3 L99.8 31.8 L99.8 30.4 L99.8 29.0 L99.8 27.5 L99.8 26.1 L99.8 24.7 L100.9 24.7 L102.1 24.7 L103.2 24.7 L104.3 24.7 L105.4 24.7 L106.5 24.7 L107.7 24.7 L108.8 24.7 L109.9 24.7 L111.0 24.7 L112.2 24.7 L113.3 24.7 L114.4 24.7 L115.5 24.7 L116.6 24.7 L117.8 24.7 L118.9 24.7 L120.0 24.7 L121.1 24.7 L122.2 24.7 L123.4 24.7 L124.5 24.7 L125.6 24.7 L126.7 24.7 L127.8 24.7 L129.0 24.7 L130.1 24.7 L131.2 24.7 L132.3 24.7 L133.4 24.7 L134.6 24.7 L135.7 24.7 L136.8 24.7 L137.9 24.7 L139.1 24.7 L140.2 24.7 L141.3 24.7 L142.4 24.7 L143.5 24.7 L144.7 24.7 L145.8 24.7 L146.9 24.7 L148.0 24.7 L149.1 24.7 L150.3 24.7 L151.4 24.7 L152.5 24.7 L153.6 24.7 L154.7 24.7 L155.9 24.7 L157.0 24.7 L158.1 24.7 L159.2 24.7 L160.3 24.7 L161.5 24.7 L162.6 24.7 L163.7 24.7 L164.8 24.7 L166.0 24.7 L167.1 24.7 L168.2 24.7 L169.3 24.7 L170.4 24.7 L171.6 24.7 L172.0 24.7 L172.2 24.6 L172.7 23.5 L172.8 23.4 L173.3 22.4 L173.6 22.1 L173.8 22.0 L174.0 22.0 L174.2 22.0 L174.4 22.1 L174.7 22.4 L174.8 22.6 L174.8 22.9 L174.5 23.6 L174.2 24.7 L174.8 24.7 L175.1 24.7 L176.3 24.7 L177.5 24.7 L178.7 24.7 L179.9 24.7 L181.0 24.7 L182.2 24.7 L183.4 24.7 L184.6 24.7 L185.8 24.7 L186.7 24.7 L186.9 24.7 L188.1 24.7 L189.3 24.7 L190.5 24.7 L191.7 24.7 L192.8 24.7 L194.0 24.7 L194.0 24.7 L194.3 24.7 L195.7 25.7 L197.2 26.9 L198.6 27.9 L198.6 28.0 L202.1 27.5 L203.7 27.3 L204.7 24.7 L204.7 24.7 L207.4 24.7 L210.1 24.7 L212.8 24.7 L215.4 24.7 L218.1 24.7 L220.8 24.7 L223.5 24.7 L226.2 24.7 L228.8 24.7 L231.5 24.7 L234.2 24.7 L236.9 24.7 L236.9 24.8 L236.8 24.9 L236.8 24.9 L236.6 24.9 L236.4 25.0 L236.7 25.2 L236.8 25.3 L236.8 26.7 L237.0 28.3 L236.9 28.6 L237.1 28.7 L237.1 28.9 L237.2 29.0 L237.2 29.2 L237.4 29.3 L237.4 29.4 L238.1 30.8 L239.5 32.9 L240.5 33.8 L241.8 35.3 L241.8 35.5 L241.8 35.7 L241.7 35.9 L241.6 36.0 L241.4 35.9 L241.1 36.1 L240.9 35.9 L240.6 35.4 L240.5 35.3 L240.5 35.1 L240.4 35.0 L240.5 35.0 L240.6 35.0 L240.7 35.1 L240.8 35.2 L240.9 35.3 L241.1 35.5 L241.3 35.6 L241.4 35.5 L241.3 35.4 L241.1 35.1 L240.9 34.7 L240.8 34.5 L240.6 34.6 L240.3 34.3 L240.2 34.4 L240.1 34.4 L240.0 34.3 L239.9 34.2 L240.0 34.0 L240.1 33.9 L240.1 33.8 L239.9 33.6 L239.6 33.5 L239.4 33.7 L239.4 34.0 L239.4 34.3 L239.5 34.4 L239.6 34.4 L239.6 34.5 L239.6 34.6 L239.5 34.7 L239.6 35.0 L239.6 35.1 L239.5 35.3 L239.4 35.4 L239.3 35.4 L239.2 35.5 L239.2 35.7 L239.3 35.8 L239.6 36.1 L239.9 36.8 L240.1 37.5 L240.2 39.1 L240.4 39.8 L240.9 41.1 L240.9 41.9 L240.9 42.1 L240.8 42.3 L240.7 42.4 L240.3 42.3 L240.3 42.5 L240.3 42.8 L240.3 43.6 L240.3 44.1 L240.3 44.3 L240.6 44.9 L240.7 45.3 L240.8 45.7 L240.8 46.3 L240.7 46.7 L240.7 46.8 L240.6 46.9 L240.5 47.1 L240.4 47.2 L240.4 47.5 L240.5 47.9 L241.2 49.7 L241.3 50.1 L241.3 50.9 L241.3 51.1 L241.2 51.2 L241.0 51.4 L241.0 51.6 L241.1 52.3 L241.0 52.5 L241.1 52.6 L241.1 52.7 L241.3 53.0 L241.5 53.7 L242.0 56.1 L242.1 57.3 L242.1 57.5 L242.2 57.5 L242.3 57.6 L242.4 57.7 L242.4 57.8 L242.3 57.9 L242.3 58.0 L242.6 58.4 L242.7 58.9 L243.0 59.7 L243.1 60.2 L243.2 60.8 L243.4 61.0 L243.6 61.4 L243.9 61.8 L244.3 62.2 L244.4 62.3 L244.5 62.4 L244.6 62.5 L244.7 62.5 L244.9 62.4 L244.9 62.4 L245.6 62.3 L246.0 62.1 L246.1 62.4 L246.3 62.5 L246.5 62.5 L246.8 62.5 L246.8 62.6 L246.9 62.8 L247.1 63.0 L247.0 63.4 L247.1 63.3 L247.3 63.3 L247.4 63.4 L247.6 63.6 L248.9 63.9 L249.4 64.4 L249.7 64.9 L250.2 65.4 L250.5 65.6 L251.0 65.8 L251.2 65.9 L251.0 66.1 L250.7 66.3 L250.6 66.7 L250.9 67.3 L251.5 67.8 L252.1 67.9 L252.6 67.9 L252.6 67.4 L252.9 67.4 L253.3 67.2 L253.4 67.3 L253.3 67.4 L253.1 67.5 L253.0 67.5 L253.0 67.6 L253.0 67.8 L252.9 67.9 L252.8 68.0 L252.6 68.1 L252.5 68.1 L252.3 68.1 L252.3 68.2 L252.4 68.2 L252.8 68.1 L253.0 68.1 L253.1 68.2 L253.2 68.3 L253.3 68.3 L253.4 68.4 L253.8 68.4 L253.9 68.5 L254.1 68.5 L254.2 68.4 L254.2 68.3 L254.1 68.3 L254.3 68.1 L254.5 68.3 L254.9 68.9 L254.8 69.0 L254.9 69.2 L255.2 69.2 L255.4 69.1 L255.5 69.2 L255.6 69.7 L255.7 69.8 L255.9 69.9 L256.0 69.7 L256.0 69.4 L255.8 69.2 L256.0 69.3 L256.5 69.8 L256.6 70.0 L256.6 70.2 L256.6 70.3 L256.7 70.5 L256.7 70.6 L255.0 71.9 L254.7 72.4 L254.0 74.2 L253.7 74.6 L253.5 74.8 L252.9 75.1 L252.7 75.3 L252.7 75.5 L252.7 75.7 L252.6 76.0 L252.4 76.1 L252.2 76.2 L252.0 76.1 L251.8 75.9 L251.6 75.8 L251.2 75.9 L251.1 75.9 L251.1 76.0 L251.1 76.1 L251.1 76.2 L251.1 76.3 L251.0 76.5 L250.8 76.7 L250.6 76.7 L250.6 76.4 L250.6 76.2 L250.6 76.0 L250.5 75.9 L250.2 75.9 L249.9 76.0 L249.9 76.0 L249.1 76.5 L248.8 76.9 L248.6 77.1 L248.3 77.2 L248.0 77.1 L247.7 76.8 L247.4 76.7 L247.0 76.9 L246.5 77.8 L246.1 78.0 L245.6 78.1 L244.1 78.5 L244.0 78.6 L243.9 78.7 L244.1 79.3 L244.1 79.5 L244.0 80.0 L243.9 80.2 L243.7 80.6 L243.6 80.9 L243.5 81.1 L242.9 81.9 L241.8 81.6 L241.5 81.6 L240.9 81.9 L240.6 81.9 L240.4 81.9 L239.8 82.0 L239.7 82.0 L239.2 81.7 L239.1 81.7 L238.8 81.6 L238.6 81.6 L238.4 81.4 L238.2 81.4 L238.0 81.4 L237.9 81.5 L237.9 81.5 L237.9 81.6 L237.9 81.7 L238.2 82.0 L238.2 82.2 L238.2 82.4 L237.9 82.8 L237.9 82.9 L238.0 83.1 L238.1 83.2 L238.2 83.3 L238.1 83.8 L238.2 83.8 L238.2 83.9 L238.2 84.0 L238.2 84.1 L238.1 84.2 L238.1 84.2 L238.1 84.9 L237.8 85.6 L237.7 85.7 L237.3 86.0 L237.1 86.2 L237.0 86.4 L237.0 86.6 L237.0 87.0 L237.0 87.2 L236.8 87.6 L236.8 87.8 L236.9 88.1 L237.0 88.3 L237.2 88.5 L237.4 88.7 L237.4 88.7 L237.5 88.9 L237.5 89.1 L237.4 89.3 L237.4 89.6 L237.5 89.8 L237.7 90.3 L237.7 90.5 L237.6 90.8 L237.1 91.3 L236.9 91.6 L236.5 92.6 L236.0 94.1 L235.5 95.6 L235.2 96.1 L234.6 96.6 L234.4 96.9 L233.8 99.1 L233.8 99.6 L234.0 100.1 L233.6 100.3 L233.4 100.7 L232.8 102.4 L232.6 102.7 L231.7 103.5 L231.6 103.7 L231.6 103.9 L231.7 105.0 L232.0 107.0 L232.0 107.6 L232.2 108.7 L232.4 110.2 L232.5 111.6 L232.8 113.7 L231.7 116.9 L231.7 117.1 L231.7 117.4 L231.8 117.7 L232.0 118.2 L232.0 118.8 L231.8 119.3 L231.3 120.5 L231.3 120.7 L231.2 121.4 L231.1 121.7 L229.4 124.1 L228.3 127.9 L228.3 128.1 L228.4 128.3 L228.4 128.4 L228.4 128.5 L228.3 128.7 L228.2 128.8 L228.0 129.0 L228.0 129.3 L228.3 129.7 L228.4 129.9 L228.4 130.2 L228.1 131.5 L228.0 131.7 L227.9 131.8 L227.6 131.7 L227.4 131.6 L227.4 131.6 L227.3 131.5 L227.2 131.5 L227.1 131.5 L223.6 132.0 L223.3 132.1 L223.3 132.1 L223.1 132.2 L223.1 132.2 L223.1 132.3 L223.0 132.6 L223.0 132.7 L222.9 132.8 L222.8 132.9 L222.7 133.0 L222.5 133.0 L222.4 133.0 L222.3 133.2 L220.1 136.7 L220.0 137.0 L220.0 137.4 L220.0 137.5 L219.8 137.7 L219.7 137.7 L219.5 137.9 L219.4 138.0 L219.3 138.1 L219.1 138.6 L219.0 139.2 L218.9 139.5 L218.6 139.8 L218.2 140.0 L218.1 140.1 L218.1 140.2 L218.1 140.3 L218.1 140.5 L218.0 140.6 L217.7 141.0 L216.9 141.3 L216.7 141.4 L216.2 141.6 L216.0 141.9 L215.9 142.1 L215.8 142.4 L215.7 142.7 L215.7 142.9 L215.8 143.4 L215.7 143.8 L215.8 144.1 L216.1 144.5 L216.1 144.8 L216.0 145.0 L214.6 148.1 L214.6 148.4 L214.7 148.7 L214.9 148.9 L215.0 149.2 L215.0 149.5 L214.2 151.7 L214.2 151.8 L214.3 152.0 L214.7 152.2 L214.7 152.4 L214.6 152.8 L214.4 153.1 L213.8 153.5 L213.6 153.7 L213.6 153.9 L213.6 154.0 L213.5 154.2 L213.3 154.4 L213.2 154.4 L213.1 154.4 L212.9 154.4 L212.7 154.5 L212.6 154.9 L212.5 155.0 L212.4 154.9 L212.4 154.8 L212.4 154.4 L212.3 154.2 L212.2 154.1 L211.8 153.9 L210.4 152.7 L210.3 152.6 L210.1 152.7 L208.7 153.7 L208.5 153.8 L208.3 154.1 L207.9 154.9 L206.9 156.3 L206.8 156.7 L206.9 157.2 L207.4 159.7 L207.4 160.2 L207.3 160.7 L207.3 160.8 L207.2 160.9 L207.2 161.0 L207.2 161.1 L207.2 161.4 L207.2 161.5 L206.9 161.9 L206.2 162.5 L204.8 166.5 L204.5 168.2 L204.5 169.1 L202.5 169.1 L202.5 169.1 L202.5 169.0 L202.4 169.0 L202.4 168.9 L202.3 168.6 L202.3 168.1 L202.4 167.2 L202.6 166.1 L203.3 164.7 L203.4 164.6 L203.4 164.5 L203.4 164.4 L203.3 164.1 L203.2 163.9 L203.2 163.6 L203.3 162.8 L203.3 162.6 L203.3 162.3 L203.2 162.1 L202.7 160.8 L202.6 160.6 L200.1 158.6 L197.6 156.6 L196.7 155.5 L196.6 155.4 L196.4 155.3 L193.9 154.4 L193.8 154.3 L193.8 154.2 L193.9 154.0 L194.2 153.5 L194.2 153.3 L194.3 153.1 L193.7 148.8 L193.1 144.6 L193.1 144.4 L193.2 144.3 L193.2 144.2 L193.4 144.0 L193.5 143.8 L193.7 143.5 L193.7 143.4 L193.9 141.9 L193.8 140.5 L194.5 138.3 L194.6 137.4 L189.1 137.3 L189.0 137.3 L189.0 137.4 L189.1 137.5 L189.1 137.5 L189.1 137.7 L189.0 138.0 L189.0 138.1 L189.0 138.3 L189.1 138.8 L189.2 139.2 L189.3 139.3 L189.3 139.5 L189.3 139.8 L185.4 139.8 L181.6 139.8 L184.6 143.1 L184.7 143.2 L184.7 143.4 L184.7 143.5 L184.8 144.7 L184.6 146.6 L184.7 147.8 L184.8 148.5 L185.7 150.1 L185.6 150.4 L185.4 150.7 L182.7 153.0 L180.0 155.3 L179.8 155.5 L179.1 157.4 L178.4 158.5 L178.1 158.8 L176.8 160.3 L174.3 162.8 L171.8 165.2 L171.0 165.5 L168.6 165.7 L168.6 165.7 L167.3 165.7 L167.1 165.7 L166.9 165.8 L166.8 165.9 L166.6 166.0 L166.4 166.0 L166.2 165.9 L163.2 163.1 L160.5 161.4 L157.8 159.7 L157.2 160.0 L154.2 161.5 L153.5 161.9 L153.2 162.1 L153.2 163.8 L152.6 164.6 L151.7 165.6 L149.0 166.1 L147.6 166.6 L146.2 167.4 L146.0 167.6 L145.1 168.2 L144.4 169.0 L144.1 169.4 L144.1 169.9 L144.2 170.3 L144.3 170.6 L144.3 170.6 L139.7 170.6 L135.1 170.5 L134.6 169.9 L133.4 167.5 L133.3 167.5 L133.1 167.6 L131.9 167.6 L130.5 167.4 L130.4 167.4 L130.2 167.5 L130.1 167.5 L129.2 167.4 L127.5 167.4 L127.0 167.3 L124.0 167.3 L119.5 168.8 L119.4 168.9 L118.8 168.8 L118.5 168.7 L118.0 168.3 L115.8 165.8 L113.6 163.3 L112.7 163.0 L112.7 163.0 L112.6 162.8 L112.4 162.6 L111.7 161.5 L111.7 161.4 L111.6 161.4 L111.6 161.3 L111.5 161.3 L111.2 161.2 L111.0 161.1 L110.6 160.9 L110.5 160.8 L110.5 160.7 L110.4 160.7 L110.4 160.6 L110.3 158.8 L110.3 158.8 L110.3 158.7 L110.2 158.6 L109.7 158.0 L109.7 158.0 L109.6 158.0 L109.1 158.1 L108.8 158.2 L108.7 158.3 L108.6 158.3 L108.2 158.3 L108.1 158.3 L107.9 158.3 L107.7 158.4 L107.3 158.4 L107.2 158.4 L106.7 158.5 L105.9 158.8 L105.8 158.8 L105.7 158.8 L105.6 158.9 L105.1 158.8 L105.0 158.9 L104.8 158.9 L104.7 158.9 L104.5 159.0 L104.4 159.0 L104.3 159.0 L104.2 159.0 L104.1 159.1 L104.0 159.1 L103.8 159.2 L103.7 159.2 L103.7 159.2 L103.6 159.2 L103.5 159.2 L103.4 159.2 L103.3 159.2 L103.2 159.2 L103.2 159.2 L103.1 159.2 L103.0 159.1 L102.9 159.1 L102.8 159.1 L102.7 159.1 L102.6 159.1 L102.5 159.2 L102.5 159.2 L102.3 159.2 L102.3 159.2 L102.0 159.3 L101.8 159.3 L101.5 159.3 L101.4 159.3 L101.3 159.4 L101.1 159.4 L101.0 159.4 L100.9 159.5 L100.8 159.7 L100.2 160.9 L100.2 161.0 L100.2 161.1 L100.2 161.2 L100.2 161.3 L100.3 161.5 L100.4 161.6 L100.4 161.7 L100.4 161.8 L100.4 161.8 L100.2 162.2 L99.9 162.8 L99.9 163.0 L99.8 163.2 L99.7 163.3 L99.5 163.5 L99.2 163.9 L99.0 164.1 L98.6 164.3 L98.2 164.6 L98.2 164.7 L98.1 164.7 L97.9 164.8 L97.8 164.8 L97.8 164.8 L97.7 164.8 L97.7 164.9 L97.6 165.1 L97.7 168.2 L97.6 168.3 L97.6 168.6 L96.9 169.4 L96.5 169.7 L96.4 169.8 L96.4 170.0 L96.1 172.2 L96.1 172.3 L96.1 172.4 L95.0 174.2 L95.0 174.3 L94.9 174.4 L94.9 175.6 L94.9 175.7 L94.8 175.8 L94.2 176.0 L93.2 176.1 L92.9 176.1 L91.6 176.9 L91.3 177.1 L90.6 177.6 L90.6 177.7 L90.5 177.8 L90.5 177.9 L89.8 178.0 L88.6 177.8 L88.3 177.9 L88.1 177.8 L87.6 177.6 L87.0 177.7 L86.3 177.5 L85.9 177.5 L85.5 177.7 L85.3 177.8 L84.9 177.7 L84.6 177.7 L84.4 177.6 L84.2 177.5 L84.1 177.4 L83.9 177.4 L83.7 177.4 L83.5 177.5 L83.2 177.7 L83.1 177.8 L82.8 177.7 L82.6 177.4 L82.6 177.1 L82.6 176.8 L82.7 176.5 L83.2 176.0 L83.4 175.7 L83.5 175.0 L83.5 174.6 L83.5 174.4 L83.3 174.4 L82.8 174.8 L82.5 174.8 L82.2 174.6 L82.0 174.4 L82.0 174.1 L82.3 172.7 L82.3 172.6 L82.5 172.4 L82.6 172.3 L83.0 172.3 L83.2 172.3 L83.3 172.2 L83.6 171.9 L84.0 171.4 L84.2 171.3 L84.3 171.1 L84.3 171.0 L84.1 170.6 L84.2 170.4 L84.5 169.5 L84.4 169.4 L84.4 169.3 L84.3 169.3 L84.2 169.3 L84.1 169.2 L84.1 169.1 L84.1 168.7 L84.1 168.6 L84.0 168.3 L84.0 168.1 L84.1 167.8 L84.6 167.2 L84.7 166.8 L84.8 166.4 L84.4 164.4 L84.2 163.9 L82.3 160.8 L80.4 157.8 L78.3 155.7 L77.1 154.9 L75.4 152.5 L75.4 152.2 Z" fill="#172033" fill-rule="evenodd"/></svg>
