<svg xmlns="http://www.w3.org/2000/svg" viewBox="0 0 320 200" role="img"><path d="M194.0 22.0 L194.6 22.2 L196.0 22.3 L196.8 22.6 L197.3 22.6 L197.6 22.8 L197.6 23.0 L197.4 23.2 L197.0 23.2 L197.0 23.5 L197.3 23.6 L199.1 23.9 L200.1 24.2 L200.8 24.5 L201.5 25.0 L201.6 25.0 L201.7 25.1 L201.8 25.2 L201.8 25.2 L201.9 25.2 L202.7 25.2 L203.0 25.3 L203.1 25.4 L203.1 25.5 L203.5 25.9 L203.6 26.0 L204.0 26.1 L204.8 26.2 L205.9 26.6 L206.5 26.8 L206.7 27.1 L208.8 27.3 L209.3 27.6 L209.4 27.6 L209.7 27.8 L209.9 27.9 L210.0 28.0 L210.0 28.0 L210.1 28.0 L210.1 28.1 L210.1 28.2 L210.2 28.2 L210.5 28.4 L213.2 28.4 L213.9 28.5 L214.0 28.5 L214.0 28.6 L214.0 28.6 L214.9 28.7 L215.7 28.8 L216.2 28.8 L216.6 29.0 L216.8 29.0 L217.0 28.9 L217.3 28.9 L217.6 29.1 L217.9 29.3 L218.2 29.4 L218.9 29.3 L219.2 29.4 L219.7 29.8 L220.0 30.0 L221.7 30.4 L221.9 30.5 L221.9 30.6 L222.0 30.7 L222.0 30.8 L222.2 30.9 L222.7 31.1 L222.9 31.3 L222.8 31.6 L222.9 31.7 L222.9 31.8 L222.9 32.1 L222.8 32.2 L222.8 32.2 L222.8 32.3 L222.9 32.3 L222.9 32.4 L223.0 32.4 L223.2 32.4 L224.2 32.2 L224.6 32.1 L224.8 32.2 L224.9 32.4 L225.3 33.0 L225.4 33.1 L225.5 33.2 L226.3 33.5 L226.6 33.6 L227.6 34.1 L228.4 34.2 L228.7 34.4 L228.6 34.6 L228.4 34.8 L228.0 34.9 L227.2 35.0 L226.8 35.1 L226.6 35.3 L226.5 35.6 L226.6 35.9 L226.6 36.1 L226.6 36.8 L226.7 36.9 L226.8 37.1 L226.9 37.6 L227.0 37.8 L227.3 38.1 L227.4 38.2 L227.4 38.5 L227.2 38.6 L226.8 38.7 L226.5 38.9 L226.6 39.0 L226.4 39.2 L226.2 39.4 L226.0 39.7 L226.2 39.9 L226.5 40.1 L227.0 40.1 L227.4 40.0 L227.9 40.0 L228.7 40.2 L229.4 40.3 L229.7 40.3 L229.8 40.4 L229.8 40.7 L229.7 41.0 L229.7 41.3 L230.1 41.4 L229.8 41.7 L229.5 41.9 L228.2 42.1 L228.0 42.2 L227.9 42.4 L227.8 42.6 L227.9 42.7 L228.1 42.8 L228.0 42.9 L227.9 43.0 L227.8 43.1 L227.6 43.2 L227.7 43.5 L227.9 43.6 L228.2 43.7 L228.5 44.0 L228.6 44.0 L228.7 44.1 L228.7 44.2 L228.7 44.4 L228.8 44.4 L228.8 44.5 L228.9 44.6 L229.3 45.0 L229.6 45.2 L229.8 45.3 L230.1 45.3 L230.4 45.5 L231.1 46.1 L231.5 46.3 L231.7 46.5 L232.1 46.8 L232.5 47.3 L232.5 47.4 L232.5 47.5 L232.3 47.6 L232.1 47.6 L231.8 47.6 L231.6 47.8 L231.3 48.0 L231.3 48.1 L231.4 48.5 L231.4 48.8 L231.4 49.0 L231.3 49.2 L231.2 49.4 L231.2 49.6 L231.3 49.8 L231.3 50.0 L231.2 50.2 L230.9 50.3 L230.3 50.4 L230.3 50.6 L230.1 50.7 L229.7 50.8 L229.4 50.9 L229.4 51.0 L229.2 51.1 L228.8 51.2 L228.5 51.4 L228.4 51.6 L228.5 51.8 L228.7 52.0 L228.7 52.1 L228.8 52.2 L228.8 52.4 L228.8 52.6 L228.8 52.7 L228.7 52.9 L228.7 53.0 L228.7 53.1 L228.9 53.4 L229.0 53.7 L229.4 54.2 L229.7 54.4 L230.1 54.6 L231.2 54.8 L231.5 54.9 L232.1 55.7 L232.2 55.8 L232.3 55.8 L232.6 56.0 L232.7 56.0 L232.8 56.2 L233.1 56.8 L233.2 56.9 L233.1 57.2 L233.4 57.4 L233.7 57.6 L233.9 58.1 L234.4 58.4 L234.4 58.6 L234.1 58.8 L233.7 58.8 L232.9 58.8 L232.9 58.8 L233.0 58.9 L233.0 58.9 L233.1 58.9 L232.8 59.0 L232.3 58.9 L232.0 59.0 L231.9 59.1 L231.9 59.3 L231.8 59.3 L231.7 59.3 L231.6 59.3 L231.5 59.2 L231.3 59.2 L231.2 59.2 L231.1 59.1 L231.1 59.0 L231.0 58.9 L231.0 58.9 L230.8 59.0 L230.3 59.0 L230.0 58.9 L229.9 58.8 L229.8 58.6 L229.5 58.5 L229.0 58.5 L228.8 58.6 L228.5 58.8 L228.3 58.9 L228.2 58.9 L228.1 58.9 L228.1 58.8 L228.0 58.8 L227.1 58.8 L226.6 58.7 L226.7 58.5 L226.6 58.5 L226.5 58.5 L226.3 58.5 L226.3 58.5 L226.2 58.7 L226.2 58.7 L226.1 58.7 L226.0 58.8 L225.9 58.8 L226.0 58.9 L226.1 59.0 L226.1 59.0 L226.1 59.2 L226.0 59.2 L226.0 59.3 L225.9 59.2 L225.7 59.2 L225.5 59.2 L225.4 59.0 L225.3 58.8 L225.4 58.6 L225.1 58.6 L225.0 58.7 L224.8 58.8 L224.7 58.9 L224.4 58.9 L224.2 58.8 L223.7 58.6 L223.5 58.6 L223.3 58.6 L223.2 58.6 L223.2 58.8 L223.3 59.0 L223.5 59.1 L223.8 59.2 L223.6 59.3 L222.9 59.4 L222.8 59.5 L222.6 59.6 L222.6 59.8 L222.3 60.0 L222.0 59.9 L222.1 59.7 L221.8 59.4 L221.6 59.3 L221.0 59.3 L220.5 59.1 L220.4 59.1 L220.1 58.9 L220.0 58.9 L219.7 58.9 L219.5 58.9 L219.3 58.8 L218.9 58.3 L218.7 58.1 L217.4 57.7 L217.2 57.6 L216.9 57.7 L217.1 57.8 L217.4 57.9 L217.5 58.1 L217.5 58.2 L217.6 58.4 L217.6 58.6 L217.7 58.7 L217.7 58.8 L217.7 59.0 L217.6 59.1 L217.4 59.3 L217.3 59.4 L217.1 59.4 L217.2 59.1 L216.9 59.0 L216.2 58.9 L216.1 59.0 L215.7 59.1 L215.5 59.2 L215.5 59.1 L215.5 58.9 L215.7 58.8 L215.8 58.8 L215.6 58.6 L215.5 58.5 L215.1 58.4 L215.1 58.3 L215.2 58.2 L214.3 58.1 L213.9 58.2 L213.9 58.4 L213.4 58.4 L213.9 58.8 L213.9 58.9 L213.7 58.9 L213.4 58.8 L213.5 58.9 L213.7 59.2 L213.8 59.3 L213.4 59.6 L213.0 59.5 L212.5 59.3 L212.1 59.3 L212.3 59.5 L212.6 59.6 L212.8 59.7 L213.6 59.7 L213.8 59.8 L214.0 60.0 L214.1 60.3 L214.0 60.3 L213.9 60.3 L213.7 60.3 L213.6 60.4 L213.5 60.1 L213.2 60.0 L212.9 60.0 L212.7 60.1 L212.7 60.1 L212.8 60.2 L212.7 60.3 L212.7 60.4 L212.7 60.5 L212.8 60.6 L213.0 60.8 L212.7 60.9 L211.9 60.9 L212.7 61.0 L213.1 61.0 L213.4 60.8 L213.3 60.7 L213.0 60.5 L213.0 60.4 L213.1 60.3 L213.2 60.4 L213.4 60.5 L213.5 60.6 L213.4 60.6 L214.1 60.8 L214.1 60.8 L213.6 61.0 L213.5 61.1 L213.6 61.2 L213.9 61.3 L214.3 61.3 L214.4 61.4 L214.5 61.5 L214.6 61.7 L214.3 61.8 L214.1 61.7 L213.9 61.6 L213.7 61.5 L213.4 61.5 L213.1 61.4 L212.8 61.3 L212.7 61.3 L212.6 61.3 L212.6 61.5 L212.3 61.5 L211.2 61.1 L210.3 60.9 L210.0 60.7 L209.8 60.7 L209.3 60.6 L208.9 60.4 L208.2 60.3 L208.0 60.3 L207.9 60.2 L207.7 60.0 L207.5 59.9 L207.2 59.8 L207.0 59.7 L207.3 60.2 L208.0 60.5 L209.4 60.8 L210.3 61.2 L211.1 61.3 L211.2 61.4 L211.4 61.5 L211.7 61.7 L211.8 61.7 L212.0 61.7 L211.7 61.8 L211.1 61.8 L210.8 61.9 L210.7 61.9 L210.7 62.0 L210.6 62.0 L210.6 62.1 L210.5 62.1 L210.4 62.1 L210.3 62.0 L210.2 62.0 L209.8 62.1 L208.3 61.9 L208.0 61.9 L208.6 62.3 L208.9 62.4 L209.2 62.3 L208.9 62.2 L208.8 62.2 L209.1 62.2 L209.8 62.6 L210.1 62.7 L210.0 62.8 L209.9 63.0 L209.9 63.1 L209.7 63.1 L209.5 63.1 L209.3 63.0 L209.1 62.8 L208.9 63.0 L209.0 63.1 L209.1 63.2 L209.1 63.3 L208.9 63.4 L208.7 63.4 L208.4 63.3 L208.4 63.2 L208.0 63.3 L207.7 63.4 L207.3 63.4 L206.4 63.3 L206.2 63.3 L206.3 63.4 L205.8 63.5 L205.5 63.4 L205.3 63.2 L205.0 63.2 L204.5 63.3 L204.5 63.4 L205.0 63.5 L205.2 63.4 L205.2 63.5 L204.3 63.5 L203.9 63.5 L203.7 63.7 L203.7 63.7 L203.9 63.7 L203.9 63.8 L203.4 63.9 L203.7 63.9 L203.9 64.0 L204.2 64.1 L204.3 64.3 L204.5 64.4 L204.8 64.4 L205.0 64.3 L205.0 64.1 L205.2 64.2 L205.4 64.3 L205.8 64.5 L206.2 64.6 L206.3 64.7 L206.3 64.9 L205.9 65.1 L205.4 65.2 L204.9 65.3 L204.5 65.2 L204.4 65.0 L204.2 64.8 L204.1 64.6 L203.9 64.5 L203.7 64.4 L203.5 64.3 L203.3 64.3 L203.0 64.2 L202.6 63.9 L202.3 63.7 L201.9 63.8 L201.9 63.8 L202.1 63.8 L202.1 63.8 L202.0 64.0 L201.5 64.0 L201.3 64.1 L202.8 64.3 L203.1 64.5 L203.8 65.0 L204.4 65.4 L205.3 66.1 L205.4 66.3 L205.2 66.4 L204.5 66.4 L204.7 66.5 L204.7 66.6 L204.7 66.7 L204.5 67.0 L204.6 67.1 L204.6 67.1 L204.8 67.1 L205.0 67.2 L204.7 67.3 L203.8 67.3 L203.6 67.4 L203.8 67.5 L204.0 67.7 L204.1 67.7 L203.7 67.9 L203.6 67.9 L203.5 67.9 L203.3 67.8 L203.1 67.8 L203.1 67.8 L203.1 67.9 L203.1 67.9 L203.1 68.0 L202.9 68.0 L202.7 68.1 L202.6 68.2 L202.8 68.4 L202.6 68.4 L201.2 68.5 L201.1 68.5 L201.1 68.6 L201.1 68.7 L201.2 68.8 L201.1 68.9 L201.0 69.0 L200.9 69.0 L200.8 69.1 L200.6 69.1 L200.7 69.4 L200.5 69.6 L200.3 69.7 L200.4 69.9 L200.2 69.9 L199.8 70.0 L199.6 70.0 L199.4 69.9 L199.4 69.8 L199.3 69.7 L199.3 69.6 L199.1 69.6 L198.9 69.6 L198.8 69.7 L198.8 69.9 L198.8 70.0 L198.9 70.1 L199.3 70.2 L199.2 70.3 L199.2 70.3 L199.4 70.4 L199.6 70.5 L200.1 70.5 L200.8 70.4 L201.5 70.5 L201.8 70.6 L201.9 70.8 L201.7 70.8 L201.2 70.8 L200.9 70.9 L201.1 71.0 L201.4 71.2 L201.9 71.4 L201.9 71.5 L201.7 71.5 L201.6 71.6 L201.6 71.6 L201.8 71.7 L201.8 71.8 L201.5 71.7 L201.0 71.5 L200.7 71.4 L200.4 71.3 L200.2 71.2 L200.0 71.0 L199.7 71.1 L199.6 71.2 L199.6 71.4 L199.7 71.6 L199.9 71.7 L200.2 71.8 L200.6 71.8 L201.0 71.8 L201.2 72.0 L201.0 72.1 L201.0 72.2 L201.1 72.3 L201.3 72.3 L201.6 72.4 L201.7 72.4 L201.8 72.4 L201.9 72.5 L202.0 72.6 L202.0 72.7 L202.1 72.7 L202.2 72.9 L202.4 72.9 L202.5 72.9 L202.5 72.8 L202.5 72.7 L202.4 72.7 L202.5 72.6 L202.5 72.5 L202.6 72.4 L202.8 72.5 L203.1 72.7 L203.3 72.9 L203.5 73.0 L203.6 72.7 L203.8 72.7 L203.9 72.7 L203.9 72.8 L203.9 73.0 L204.0 73.2 L204.2 73.3 L204.4 73.3 L204.6 73.3 L204.5 73.4 L204.3 73.4 L204.1 73.4 L204.0 73.4 L203.7 73.2 L203.6 73.1 L203.0 73.3 L202.7 73.4 L202.6 73.3 L202.6 73.2 L202.5 73.2 L202.4 73.2 L202.3 73.2 L202.3 73.3 L202.3 73.3 L202.5 73.4 L202.7 73.6 L202.9 73.6 L203.0 73.6 L203.1 73.5 L203.6 73.5 L203.7 73.5 L203.8 73.6 L203.9 73.7 L203.9 73.8 L203.8 74.0 L203.8 74.1 L203.9 74.2 L204.1 74.2 L204.2 74.2 L204.4 74.0 L204.4 74.0 L204.7 74.0 L204.9 74.1 L204.8 73.9 L205.0 73.9 L205.1 74.0 L205.2 74.1 L205.2 74.2 L205.2 74.3 L205.0 74.3 L204.9 74.3 L204.7 74.4 L204.6 74.5 L204.3 74.6 L204.2 74.7 L203.5 75.1 L203.1 75.4 L202.9 75.5 L202.6 75.6 L202.3 75.5 L202.1 75.3 L202.0 75.2 L202.0 75.3 L202.0 75.4 L202.0 75.5 L202.0 75.6 L202.0 75.7 L202.1 75.7 L202.1 75.7 L202.1 75.8 L201.9 75.8 L201.6 75.9 L201.4 75.9 L201.2 75.9 L201.2 75.9 L201.1 75.9 L199.7 76.9 L199.6 76.9 L199.3 76.8 L199.2 76.8 L199.1 76.8 L198.8 77.2 L197.9 77.7 L197.7 77.9 L197.9 78.1 L197.8 78.3 L197.4 78.7 L197.3 78.8 L197.3 78.8 L197.3 79.0 L197.3 79.0 L197.3 79.0 L197.3 79.1 L197.4 79.1 L197.3 79.1 L197.3 79.1 L197.2 79.2 L197.2 79.2 L197.2 79.4 L197.2 79.6 L197.1 79.6 L196.9 79.6 L196.9 79.7 L196.8 79.7 L196.8 79.8 L196.5 79.8 L196.3 80.0 L196.1 80.4 L195.9 80.8 L195.8 80.9 L195.2 81.1 L194.7 81.1 L194.6 81.2 L194.6 81.3 L194.7 81.4 L194.8 81.4 L195.0 81.4 L194.8 81.7 L194.6 81.8 L194.5 81.8 L194.3 81.5 L194.1 81.4 L193.9 81.4 L193.4 81.7 L193.3 81.8 L193.2 81.9 L193.1 81.9 L193.0 81.9 L193.1 81.7 L193.1 81.6 L193.0 81.6 L192.7 81.4 L192.7 81.4 L192.1 82.0 L191.9 82.1 L191.6 82.0 L191.7 82.1 L191.7 82.2 L191.7 82.2 L191.6 82.3 L191.7 82.6 L191.7 82.7 L191.7 82.8 L191.6 82.9 L191.4 83.0 L191.3 83.0 L191.1 83.0 L191.0 82.9 L191.0 82.8 L191.1 82.6 L191.1 82.5 L190.9 82.4 L190.8 82.2 L190.6 82.2 L190.5 82.3 L190.6 83.0 L190.4 83.3 L190.3 83.3 L190.1 83.3 L190.0 83.1 L190.0 83.0 L190.1 82.9 L190.2 82.7 L190.2 82.6 L190.2 82.4 L190.0 82.6 L189.7 82.8 L189.6 83.1 L189.7 83.4 L189.4 83.3 L188.7 83.4 L188.6 83.4 L188.4 83.4 L188.3 83.4 L188.2 83.4 L188.1 83.3 L188.1 83.2 L188.0 83.2 L187.8 83.2 L187.5 83.2 L187.3 83.3 L187.2 83.4 L187.1 83.5 L187.1 83.7 L187.3 83.9 L186.4 83.7 L186.2 83.7 L186.1 83.8 L185.6 83.9 L185.6 83.9 L185.4 84.2 L185.0 84.4 L184.5 84.6 L184.1 84.8 L184.1 84.9 L184.3 85.2 L184.3 85.5 L184.3 85.5 L184.0 85.6 L183.9 85.6 L183.8 85.7 L183.5 85.8 L183.4 85.9 L182.8 85.7 L182.8 85.5 L182.8 85.4 L182.8 85.3 L182.5 85.2 L182.6 85.2 L182.6 85.1 L182.6 85.1 L182.4 85.0 L182.1 84.8 L181.5 84.7 L181.4 84.6 L181.2 84.5 L180.9 84.4 L180.6 84.4 L180.3 84.5 L180.5 84.6 L180.6 84.6 L180.9 84.7 L180.7 85.0 L180.9 85.1 L181.2 85.1 L181.5 85.2 L181.2 85.3 L181.0 85.4 L180.8 85.4 L180.8 85.4 L180.9 85.5 L181.4 85.8 L181.4 85.9 L181.4 86.0 L181.3 86.1 L181.1 86.0 L180.7 85.9 L179.8 85.3 L179.5 85.2 L179.5 85.3 L179.8 85.7 L179.5 85.8 L179.3 85.7 L179.1 85.5 L178.9 85.5 L178.7 85.5 L178.7 85.7 L178.7 86.1 L178.7 86.2 L178.6 86.4 L178.6 86.5 L178.6 86.9 L178.5 87.0 L178.3 87.1 L178.2 87.1 L178.2 86.9 L177.9 87.1 L177.3 87.1 L177.1 87.3 L177.1 87.3 L177.3 87.4 L177.2 87.5 L176.9 87.8 L176.8 87.9 L177.1 87.9 L176.9 88.1 L176.6 88.1 L176.2 87.8 L176.0 88.0 L176.2 88.2 L176.5 88.3 L176.8 88.3 L176.7 88.4 L176.6 88.4 L176.5 88.4 L176.3 88.5 L176.2 88.6 L176.2 88.7 L176.1 88.7 L176.0 88.7 L175.9 88.7 L175.6 88.5 L175.5 88.5 L175.4 88.4 L175.2 88.3 L175.1 88.2 L175.2 88.0 L175.0 88.0 L174.8 87.9 L174.7 87.8 L174.5 87.7 L174.2 87.7 L174.1 87.7 L174.2 87.9 L174.0 87.9 L173.4 87.8 L172.9 87.8 L172.7 87.8 L172.5 87.9 L172.8 88.0 L174.6 88.4 L174.3 88.5 L174.0 88.6 L173.2 88.6 L173.3 88.7 L173.3 88.7 L173.1 88.9 L173.0 88.8 L172.8 88.7 L172.8 88.6 L172.7 88.4 L173.0 88.4 L173.5 88.4 L173.5 88.3 L172.5 88.1 L172.1 88.2 L172.3 88.3 L172.4 88.4 L172.4 88.5 L172.4 88.6 L172.7 88.9 L172.8 89.0 L171.1 88.7 L170.6 88.7 L170.6 88.8 L170.8 88.8 L171.1 88.9 L171.3 89.0 L171.5 89.1 L171.6 89.2 L171.6 89.4 L171.6 89.5 L171.4 89.5 L171.2 89.5 L171.0 89.4 L170.7 89.3 L170.5 89.4 L170.4 89.5 L170.4 89.7 L170.3 89.8 L170.1 89.9 L170.5 89.9 L170.0 90.1 L169.8 90.1 L169.8 90.2 L169.7 90.5 L169.6 90.5 L169.5 90.5 L169.1 90.2 L168.9 90.2 L168.7 90.1 L168.6 90.1 L168.4 90.2 L168.8 90.4 L169.0 90.5 L169.1 90.6 L168.3 90.5 L168.3 90.5 L168.2 90.4 L168.2 90.3 L168.1 90.3 L168.0 90.4 L168.0 90.4 L168.0 90.5 L168.0 90.5 L167.8 90.6 L167.6 90.7 L166.9 90.8 L167.2 90.9 L170.1 90.9 L170.4 90.9 L170.7 91.1 L170.7 91.2 L170.6 91.3 L170.5 91.2 L170.3 91.1 L170.3 91.1 L170.2 91.3 L169.9 91.3 L169.6 91.3 L168.9 91.1 L168.7 91.2 L168.6 91.4 L169.2 91.6 L169.3 91.6 L169.7 91.6 L170.0 91.5 L170.1 91.6 L170.0 91.9 L169.5 91.9 L168.7 91.8 L168.9 91.9 L169.4 92.0 L169.6 92.2 L169.5 92.3 L169.4 92.3 L169.3 92.4 L169.0 92.4 L168.9 92.5 L168.8 92.5 L168.7 92.6 L168.5 92.6 L168.3 92.6 L168.1 92.6 L167.9 92.6 L167.8 92.6 L167.8 92.5 L167.8 92.5 L167.8 92.4 L167.4 92.2 L167.2 92.1 L167.0 92.1 L167.0 92.1 L167.1 92.3 L166.5 92.3 L166.5 92.3 L166.6 92.4 L166.7 92.4 L166.6 92.5 L166.5 92.6 L166.8 92.7 L167.1 92.5 L167.4 92.6 L167.1 92.9 L166.9 93.1 L166.7 93.1 L166.6 93.2 L166.5 93.3 L166.4 93.3 L166.2 93.2 L166.2 93.2 L166.3 93.1 L166.4 93.0 L166.4 93.0 L166.3 92.9 L166.2 93.0 L166.1 93.1 L166.0 93.3 L165.7 93.4 L165.5 93.4 L165.0 93.3 L165.1 93.2 L165.1 93.2 L164.9 93.1 L164.7 93.1 L164.3 93.1 L164.5 92.9 L165.5 93.0 L165.8 92.8 L165.3 92.7 L165.1 92.6 L165.0 92.5 L165.0 92.5 L165.0 92.5 L165.0 92.4 L165.0 92.4 L164.8 92.4 L164.4 92.6 L164.0 92.8 L163.9 92.9 L163.8 93.0 L163.6 92.9 L163.4 92.9 L163.3 92.8 L163.3 92.7 L163.3 92.3 L163.3 92.3 L163.2 92.2 L163.2 92.1 L163.2 92.0 L163.3 91.9 L163.3 91.9 L163.3 91.7 L163.1 91.7 L162.9 91.8 L162.8 91.8 L162.7 91.7 L162.5 91.3 L162.4 91.2 L162.3 91.1 L162.1 91.0 L162.0 91.0 L162.1 91.0 L162.2 90.8 L162.0 90.8 L161.6 91.0 L161.4 91.0 L161.2 91.0 L161.0 90.9 L160.9 90.8 L160.7 90.8 L162.1 91.4 L162.4 91.7 L162.6 91.9 L162.9 92.2 L163.0 92.6 L162.8 92.8 L162.8 92.9 L163.3 93.0 L163.5 93.1 L163.6 93.2 L163.7 93.2 L163.6 93.5 L163.7 93.6 L164.1 93.9 L164.2 94.1 L164.2 94.2 L164.0 94.4 L164.1 94.5 L164.1 94.6 L164.1 94.6 L164.0 94.7 L163.9 94.7 L163.8 94.7 L163.5 94.5 L163.4 94.5 L162.7 94.5 L162.9 94.7 L164.6 95.0 L164.7 95.2 L164.7 95.2 L164.8 95.3 L164.9 95.4 L164.6 95.4 L163.8 95.8 L163.7 95.7 L163.7 95.6 L163.6 95.3 L163.6 95.2 L163.6 95.2 L163.4 95.1 L163.4 95.2 L163.3 95.3 L163.2 95.6 L163.2 95.7 L163.2 95.8 L163.1 95.9 L163.0 95.9 L162.8 96.0 L162.9 96.1 L162.6 96.5 L162.4 96.6 L162.1 96.6 L162.0 96.6 L161.8 96.4 L161.7 96.4 L161.1 96.4 L160.7 96.5 L160.4 96.6 L160.3 96.7 L160.3 96.9 L160.5 97.0 L160.7 97.0 L160.8 97.2 L159.3 97.1 L159.2 97.1 L159.0 97.1 L158.8 96.9 L158.8 96.9 L158.2 96.4 L157.7 96.0 L157.6 96.0 L157.4 96.1 L157.3 96.3 L157.1 96.4 L156.8 96.4 L156.6 96.5 L156.5 96.6 L156.5 96.8 L157.0 97.2 L157.1 97.2 L157.1 97.3 L157.1 97.4 L157.1 97.5 L157.0 97.5 L156.9 97.6 L156.7 97.6 L156.6 97.6 L156.7 97.6 L156.9 97.7 L156.9 97.8 L156.9 98.0 L156.9 98.1 L156.9 98.3 L157.1 98.4 L157.2 98.4 L157.6 98.4 L157.7 98.4 L157.9 98.5 L158.0 98.6 L158.1 98.7 L158.2 98.8 L158.3 98.9 L158.3 99.0 L158.2 99.0 L158.1 99.0 L158.0 99.0 L159.0 99.3 L159.2 99.3 L159.6 99.3 L160.0 99.4 L160.2 99.5 L159.2 99.8 L159.0 99.9 L158.9 99.8 L159.2 99.5 L159.1 99.5 L158.9 99.5 L158.7 99.6 L158.6 99.7 L158.5 99.8 L158.5 100.0 L158.5 100.2 L158.6 100.3 L158.5 100.4 L158.4 100.5 L158.2 100.7 L158.2 100.8 L158.1 101.1 L158.1 101.2 L158.1 101.3 L157.9 101.4 L158.1 101.5 L158.0 101.6 L157.6 101.9 L157.7 101.9 L157.9 102.0 L158.0 102.1 L157.9 102.2 L157.3 102.2 L157.2 102.2 L157.2 102.4 L157.2 102.5 L157.2 102.6 L156.9 102.6 L156.8 102.7 L156.7 102.8 L156.7 102.9 L156.7 103.0 L156.7 103.2 L156.9 103.4 L156.9 103.5 L156.9 103.5 L156.7 103.6 L156.7 103.6 L156.7 103.6 L156.7 103.7 L156.7 103.8 L156.7 103.8 L156.7 103.8 L156.8 103.8 L156.8 103.9 L156.7 104.0 L156.7 104.1 L156.6 104.1 L156.6 104.2 L156.6 104.2 L156.8 104.3 L157.4 104.2 L157.3 104.3 L157.2 104.4 L157.1 104.4 L157.0 104.4 L157.0 104.5 L157.2 104.6 L157.2 104.7 L157.2 104.9 L157.2 105.1 L157.2 105.3 L157.3 105.3 L157.9 105.3 L158.1 105.2 L158.3 105.2 L158.5 105.3 L158.6 105.4 L158.7 105.5 L158.7 105.7 L158.6 105.8 L158.5 106.0 L158.5 106.1 L158.4 106.3 L158.2 106.4 L158.0 106.4 L157.8 106.3 L157.7 106.3 L157.5 106.1 L157.1 105.7 L156.9 105.5 L156.5 105.4 L156.5 105.5 L156.6 105.6 L156.8 105.8 L156.3 105.8 L156.2 105.7 L156.2 105.5 L155.8 105.3 L155.3 105.3 L154.3 105.3 L154.5 105.4 L154.6 105.5 L155.0 105.4 L155.8 105.7 L155.7 105.9 L155.4 106.0 L154.9 106.1 L154.7 106.1 L154.7 106.1 L154.7 106.2 L155.0 106.2 L154.6 106.3 L154.1 106.2 L153.9 106.3 L155.3 106.5 L155.6 106.6 L155.3 106.7 L155.1 106.7 L154.7 106.5 L154.5 106.5 L153.7 106.5 L153.7 106.6 L154.1 106.6 L154.3 106.6 L154.4 106.8 L153.9 106.9 L153.4 106.9 L153.7 107.0 L154.9 107.2 L154.9 107.2 L153.8 107.2 L153.7 107.3 L153.8 107.3 L154.0 107.4 L154.2 107.5 L154.5 107.5 L154.7 107.5 L154.7 107.6 L154.2 107.6 L154.2 107.7 L154.6 107.8 L154.7 107.9 L154.8 108.0 L154.7 108.1 L154.6 108.1 L154.5 108.3 L154.6 108.4 L154.6 108.4 L154.7 108.5 L154.8 108.6 L155.0 108.6 L155.0 108.5 L155.1 108.4 L155.2 108.4 L155.3 108.4 L155.3 108.5 L155.2 108.6 L155.1 108.6 L155.0 108.7 L154.9 108.7 L154.7 108.7 L154.7 108.8 L154.6 108.7 L154.4 108.6 L154.3 108.6 L154.2 108.8 L154.0 108.9 L153.9 109.0 L154.0 109.1 L154.3 109.3 L154.7 109.5 L155.0 109.6 L155.1 109.7 L155.9 110.0 L155.6 110.0 L155.2 110.0 L154.5 109.8 L154.7 110.0 L155.0 110.1 L155.3 110.2 L155.6 110.3 L155.1 110.3 L154.9 110.2 L154.3 109.9 L154.1 109.9 L153.9 109.9 L153.9 110.0 L154.1 110.0 L154.5 110.2 L154.8 110.4 L155.0 110.6 L155.2 110.9 L155.0 111.0 L154.7 111.0 L154.5 111.2 L154.9 111.4 L154.8 111.7 L154.7 111.8 L154.6 111.8 L154.8 112.0 L154.8 112.1 L154.7 112.2 L154.4 112.2 L154.5 112.3 L154.9 112.3 L155.0 112.3 L155.0 112.4 L155.0 112.5 L155.0 112.5 L154.9 112.5 L154.8 112.6 L154.7 112.7 L154.7 112.9 L154.7 113.0 L154.7 113.1 L154.8 113.1 L154.9 113.2 L154.6 113.3 L154.6 113.3 L155.2 113.3 L155.4 113.3 L155.6 113.4 L154.9 113.5 L154.7 113.6 L154.6 114.0 L154.6 114.1 L154.6 114.1 L154.8 114.3 L155.0 114.3 L155.1 114.3 L155.1 114.4 L155.1 114.5 L155.2 114.7 L155.2 114.7 L155.4 114.6 L155.5 114.7 L155.6 114.7 L156.0 115.4 L155.9 115.4 L155.8 115.4 L155.7 115.5 L155.7 115.5 L155.7 115.7 L155.8 115.7 L155.9 115.6 L156.0 115.7 L156.0 115.8 L156.0 115.9 L156.0 116.0 L156.1 116.1 L156.4 116.2 L156.5 116.2 L156.6 116.2 L156.4 116.4 L156.3 116.5 L155.9 116.6 L155.6 116.7 L155.2 116.9 L154.9 116.9 L154.9 117.0 L154.9 117.1 L155.0 117.1 L155.1 117.1 L155.3 117.0 L155.5 117.0 L155.7 117.0 L155.9 117.2 L156.3 117.3 L156.9 117.5 L156.4 117.7 L156.4 117.8 L156.6 117.8 L156.9 117.9 L157.0 117.8 L157.1 117.8 L157.3 117.7 L157.5 117.7 L159.0 117.5 L159.3 117.6 L159.5 117.7 L159.7 117.8 L160.1 117.9 L160.3 118.0 L160.1 118.1 L159.7 118.2 L159.6 118.3 L159.7 118.5 L159.8 118.7 L159.9 118.8 L160.0 119.1 L160.4 119.2 L161.2 119.3 L161.2 119.2 L161.0 118.9 L161.4 118.5 L162.1 118.3 L163.2 118.1 L163.6 118.1 L163.9 118.2 L164.1 118.6 L164.1 118.8 L164.0 118.9 L163.9 119.0 L163.8 119.0 L163.8 119.1 L164.1 119.1 L164.4 119.2 L164.9 119.5 L165.3 119.6 L165.3 119.7 L165.4 119.9 L165.4 120.0 L165.8 120.2 L166.2 120.4 L167.1 120.6 L166.9 120.6 L166.7 120.8 L166.5 120.9 L166.5 121.0 L166.7 121.1 L166.7 121.1 L166.8 121.2 L167.0 121.1 L167.3 121.0 L167.5 120.9 L167.7 120.9 L167.9 120.9 L168.2 121.0 L169.0 121.0 L169.3 121.1 L169.2 121.1 L169.2 121.2 L169.2 121.3 L169.3 121.4 L169.3 121.4 L169.6 121.5 L169.6 121.6 L169.4 121.6 L169.3 121.6 L169.1 121.6 L169.0 121.7 L170.6 122.0 L171.0 122.2 L170.6 122.4 L168.7 122.0 L168.4 121.8 L167.8 121.3 L167.9 121.7 L168.4 122.0 L168.9 122.3 L169.3 122.5 L169.1 122.5 L168.9 122.5 L168.6 122.3 L168.7 122.6 L168.9 122.7 L169.5 122.9 L169.8 123.1 L169.9 123.2 L170.1 123.2 L170.2 123.1 L170.3 123.1 L170.4 123.0 L170.4 123.0 L170.4 123.3 L170.4 123.5 L170.5 123.6 L170.7 123.9 L170.7 124.1 L170.8 124.1 L170.9 123.9 L170.9 123.7 L170.8 123.5 L170.7 123.3 L171.0 123.3 L171.3 123.2 L171.6 123.3 L172.0 123.5 L172.4 123.5 L172.5 123.6 L172.6 123.8 L172.6 124.2 L172.6 124.4 L173.1 124.7 L173.2 124.9 L173.1 124.6 L172.8 124.3 L172.7 124.0 L172.9 123.7 L173.3 123.6 L173.5 123.6 L173.5 123.6 L173.5 123.8 L173.5 124.0 L173.5 124.2 L174.0 125.0 L174.4 125.5 L174.7 125.7 L175.2 125.8 L175.4 125.9 L175.6 125.9 L175.6 126.0 L175.7 126.0 L175.6 126.1 L175.6 126.1 L175.8 126.3 L175.9 126.3 L176.0 126.3 L176.0 126.2 L176.0 126.1 L176.0 126.1 L176.2 126.1 L176.4 126.1 L176.3 126.3 L176.3 126.7 L176.3 126.8 L175.9 126.8 L175.8 126.8 L175.0 126.1 L174.6 125.8 L174.2 125.7 L174.4 125.9 L174.8 126.2 L174.8 126.4 L174.7 126.6 L174.0 127.2 L173.8 127.3 L173.5 127.3 L173.0 127.3 L172.7 127.3 L172.6 127.4 L172.5 127.6 L172.7 127.6 L173.1 127.5 L176.0 127.4 L176.5 127.5 L176.4 127.8 L176.2 127.9 L176.0 128.0 L175.3 128.1 L175.0 128.1 L174.9 128.1 L174.8 128.0 L174.6 127.8 L174.6 127.8 L174.4 128.0 L174.2 128.1 L173.9 128.2 L173.0 128.3 L172.8 128.5 L172.8 128.6 L172.4 128.6 L172.3 128.7 L172.3 128.8 L172.2 128.8 L172.1 128.9 L172.1 128.9 L172.6 128.9 L172.5 129.0 L172.4 129.1 L172.2 129.2 L172.1 129.3 L172.0 129.2 L171.9 129.2 L171.8 129.1 L171.7 129.1 L171.9 129.3 L172.0 129.4 L171.9 129.5 L171.7 129.5 L171.4 129.7 L171.0 129.8 L170.3 130.1 L169.7 130.2 L169.4 130.4 L168.9 130.7 L168.5 130.9 L168.1 130.9 L167.2 130.9 L167.2 131.0 L167.6 131.1 L167.4 131.2 L167.1 131.2 L167.0 131.2 L167.2 131.3 L167.4 131.4 L167.3 131.5 L167.5 131.6 L167.8 131.7 L168.0 131.7 L167.6 131.8 L167.0 131.8 L166.3 131.7 L166.0 131.5 L166.1 131.5 L166.2 131.5 L166.4 131.5 L166.5 131.5 L166.5 131.4 L166.4 131.2 L166.4 131.1 L166.2 131.1 L166.0 131.2 L165.8 131.3 L165.7 131.3 L165.6 131.1 L165.5 131.1 L165.4 131.2 L165.3 131.3 L165.2 131.3 L165.1 131.3 L165.1 131.5 L165.2 131.6 L165.3 131.7 L164.9 131.8 L164.8 131.8 L164.6 131.8 L164.4 131.7 L164.3 131.7 L165.8 132.5 L165.4 132.5 L165.2 132.5 L165.2 132.6 L166.1 132.6 L166.4 132.5 L166.5 132.5 L166.6 132.7 L166.7 132.7 L167.1 132.2 L167.8 132.1 L168.6 132.1 L169.3 132.3 L169.2 132.3 L169.1 132.4 L169.0 132.5 L169.4 132.5 L169.5 132.5 L169.6 132.4 L169.3 132.0 L169.3 131.8 L169.8 131.8 L169.3 131.7 L169.1 131.6 L169.0 131.4 L169.7 131.4 L170.0 131.5 L170.3 131.6 L170.3 131.6 L170.3 131.8 L170.3 131.8 L171.1 132.1 L171.0 132.2 L170.8 132.2 L170.6 132.2 L170.3 132.1 L170.6 132.2 L171.0 132.3 L171.4 132.4 L171.5 132.6 L171.4 132.7 L171.2 132.8 L170.6 132.8 L170.4 132.9 L170.3 132.9 L170.1 132.9 L169.9 132.9 L169.7 132.8 L169.4 132.8 L169.3 132.8 L168.3 132.8 L168.0 132.8 L168.0 132.7 L168.1 132.6 L168.1 132.5 L167.9 132.5 L167.7 132.6 L167.5 132.7 L167.3 132.8 L167.4 132.8 L167.6 132.9 L167.7 133.0 L167.8 133.1 L167.8 133.2 L167.4 133.2 L167.3 133.2 L167.3 133.4 L168.0 133.5 L168.3 133.6 L168.6 133.7 L168.8 133.9 L169.0 134.1 L168.0 133.6 L167.7 133.7 L167.7 133.8 L167.9 133.9 L168.1 133.9 L168.3 133.9 L168.4 134.0 L168.5 134.2 L168.6 134.2 L168.8 134.2 L168.7 134.2 L168.7 134.3 L168.7 134.3 L168.6 134.3 L168.6 134.4 L168.9 134.3 L169.0 134.3 L169.1 134.5 L169.1 134.6 L169.0 134.7 L168.9 134.7 L168.7 134.7 L168.5 134.7 L168.1 134.7 L167.7 134.8 L167.5 135.0 L167.6 134.9 L167.7 135.0 L167.8 135.0 L167.8 135.1 L166.8 135.4 L166.4 135.4 L166.6 135.3 L166.9 135.2 L167.1 135.2 L166.9 135.1 L167.0 135.1 L167.1 135.0 L167.1 135.0 L166.9 135.0 L166.7 135.0 L166.5 135.0 L166.4 135.1 L166.3 135.2 L165.9 135.2 L165.7 135.3 L165.6 135.3 L165.4 135.6 L165.2 135.7 L164.6 135.7 L164.7 135.7 L164.7 135.8 L164.7 135.9 L164.4 135.8 L164.3 135.8 L164.2 135.9 L164.4 136.1 L164.2 136.3 L163.9 136.5 L163.7 136.8 L163.7 136.9 L163.8 137.0 L163.8 137.1 L163.7 137.2 L163.6 137.3 L163.4 137.4 L163.2 137.4 L163.0 137.3 L162.9 137.4 L162.9 137.6 L162.9 137.9 L162.8 137.8 L162.7 137.7 L162.6 137.6 L162.7 137.5 L162.6 137.3 L162.6 137.3 L162.5 137.2 L162.4 137.2 L162.3 137.2 L162.2 137.2 L162.0 137.2 L161.9 137.1 L161.7 136.9 L161.6 136.8 L161.6 136.9 L161.7 137.2 L161.9 137.4 L161.8 137.6 L161.7 137.7 L161.6 137.7 L161.6 137.6 L161.6 137.5 L161.6 137.4 L161.7 137.3 L161.3 137.2 L161.3 137.0 L161.3 136.7 L161.2 136.5 L161.2 136.4 L161.4 136.3 L161.4 135.9 L161.4 135.6 L161.4 135.4 L161.4 135.4 L161.5 135.1 L161.5 135.0 L161.4 134.9 L161.2 134.9 L161.1 135.0 L161.0 135.1 L161.0 135.5 L161.0 135.7 L160.9 135.7 L160.7 135.7 L160.3 135.4 L160.4 135.2 L160.6 135.0 L160.7 134.8 L160.6 134.7 L160.5 134.6 L160.4 134.5 L160.3 134.4 L160.4 134.8 L160.3 135.0 L160.1 135.1 L159.9 135.2 L159.7 135.3 L159.8 135.5 L159.8 135.8 L159.8 136.0 L160.0 136.1 L159.8 136.3 L159.8 136.6 L159.7 136.7 L159.6 136.7 L159.4 136.7 L159.4 136.7 L159.4 136.8 L159.3 136.8 L159.4 136.9 L159.5 136.9 L159.6 137.0 L159.7 137.0 L159.7 137.1 L159.6 137.2 L159.7 137.2 L159.9 137.3 L159.8 137.5 L159.6 137.5 L159.3 137.5 L159.1 137.5 L158.9 137.5 L159.0 137.6 L159.1 137.7 L159.5 137.8 L159.5 137.9 L159.2 137.9 L159.3 138.0 L159.4 138.0 L159.1 138.0 L158.2 137.6 L157.9 137.5 L157.9 137.6 L158.1 137.7 L158.1 137.8 L158.0 138.2 L157.9 138.3 L157.9 138.4 L158.0 138.5 L158.0 138.5 L158.3 138.6 L158.0 138.7 L156.6 138.5 L157.0 138.9 L157.0 139.0 L156.8 139.2 L156.2 139.2 L155.9 139.2 L155.9 139.4 L154.6 139.4 L154.3 139.3 L154.1 139.3 L153.9 139.1 L153.7 139.0 L153.6 139.0 L153.3 139.1 L153.1 139.2 L153.2 139.2 L153.6 139.2 L153.7 139.3 L153.7 139.4 L153.6 139.5 L153.5 139.6 L153.5 139.6 L153.7 139.7 L154.2 139.7 L154.4 139.7 L154.4 139.8 L154.2 139.9 L154.0 140.1 L153.8 140.2 L153.6 140.2 L152.9 140.0 L152.5 139.9 L152.2 140.1 L152.8 140.1 L153.0 140.2 L153.2 140.4 L152.9 140.4 L151.9 140.6 L148.0 140.4 L144.0 140.1 L144.0 140.2 L144.2 140.2 L144.3 140.3 L144.3 140.4 L144.3 140.5 L144.1 140.5 L143.6 140.5 L143.4 140.5 L143.4 140.6 L143.5 140.5 L143.7 140.5 L143.8 140.5 L143.9 140.7 L144.1 140.6 L144.6 140.7 L144.9 140.6 L145.0 140.5 L145.2 140.4 L145.3 140.5 L145.6 140.6 L145.6 140.7 L145.6 140.7 L145.6 140.8 L145.7 140.9 L145.8 141.0 L145.9 141.0 L146.0 140.9 L146.1 140.8 L146.2 140.6 L146.2 140.4 L146.4 140.3 L146.5 140.4 L147.1 140.5 L147.3 140.6 L148.6 140.6 L148.9 140.6 L149.1 140.8 L149.2 140.8 L149.7 140.9 L149.9 141.0 L149.9 140.9 L149.8 140.8 L149.8 140.7 L150.2 140.8 L150.4 140.8 L150.2 141.0 L150.3 141.2 L150.5 141.3 L150.8 141.4 L150.7 141.4 L150.7 141.4 L150.7 141.5 L151.0 141.5 L151.0 141.6 L150.9 141.7 L151.0 141.8 L151.4 141.8 L152.1 142.1 L151.8 142.2 L151.2 142.2 L151.0 142.3 L151.1 142.5 L150.8 142.6 L150.4 142.7 L150.2 142.7 L150.1 142.7 L149.9 142.8 L149.9 142.8 L149.8 142.8 L149.7 142.8 L149.6 142.8 L148.2 142.6 L147.5 142.4 L146.4 142.2 L146.1 142.3 L146.5 142.3 L148.9 143.0 L149.3 143.0 L149.4 143.1 L149.5 143.2 L149.5 143.3 L149.5 143.4 L149.4 143.5 L149.5 143.6 L149.6 143.6 L149.8 143.6 L149.9 143.5 L150.0 143.5 L150.1 143.5 L150.2 143.6 L150.2 143.9 L148.6 143.7 L148.7 143.8 L149.2 144.0 L149.3 144.1 L149.3 144.2 L149.3 144.3 L149.5 144.3 L149.6 144.3 L149.6 144.3 L149.6 144.2 L149.6 144.1 L150.2 144.0 L150.5 144.0 L150.4 144.2 L150.3 144.3 L150.1 144.2 L150.0 144.2 L150.0 144.3 L150.0 144.4 L150.0 144.4 L150.0 144.5 L149.8 144.5 L149.4 144.6 L149.4 144.6 L149.7 144.7 L150.5 144.9 L150.4 145.0 L150.4 145.0 L150.5 145.1 L150.6 145.2 L150.7 145.4 L150.8 145.5 L150.7 145.7 L150.7 145.7 L150.6 145.7 L150.4 145.7 L150.3 145.7 L150.4 145.8 L150.5 145.8 L150.6 145.9 L150.2 146.2 L149.6 146.0 L148.9 145.6 L148.4 145.4 L148.6 145.6 L149.0 145.8 L149.2 146.0 L149.1 146.0 L149.0 146.0 L148.9 146.0 L149.1 146.3 L149.5 146.5 L149.8 146.8 L149.5 146.8 L149.5 147.0 L149.5 147.0 L149.4 147.1 L149.2 147.1 L149.4 147.2 L149.6 147.2 L149.8 147.3 L150.0 147.4 L149.9 147.5 L149.8 147.6 L149.7 147.5 L149.6 147.4 L149.2 147.6 L149.2 147.6 L149.3 147.8 L149.1 147.7 L148.9 147.3 L148.7 147.3 L148.6 147.4 L148.6 147.6 L148.9 147.8 L149.0 147.8 L149.2 147.8 L149.2 147.9 L149.3 148.1 L149.4 148.2 L149.5 148.1 L149.7 148.0 L149.7 148.0 L149.8 148.2 L149.8 148.3 L149.9 148.4 L150.2 148.6 L150.3 148.7 L150.1 148.7 L149.7 148.5 L149.8 148.7 L150.1 148.9 L150.1 149.0 L150.0 149.1 L149.8 149.1 L149.6 149.1 L149.5 149.0 L149.2 148.7 L149.1 148.7 L149.1 148.9 L149.0 149.0 L148.8 149.0 L148.3 148.9 L148.4 148.8 L148.4 148.7 L148.3 148.6 L148.2 148.5 L148.4 148.5 L148.5 148.5 L148.6 148.6 L148.7 148.6 L147.2 147.7 L147.1 147.7 L147.0 147.8 L147.0 147.9 L147.0 148.0 L147.1 148.1 L147.4 148.3 L148.1 148.5 L148.0 148.5 L147.9 148.6 L147.9 148.6 L147.9 148.7 L147.9 148.8 L147.9 148.9 L147.8 149.0 L147.6 148.9 L147.3 148.8 L146.8 148.7 L147.0 148.8 L146.9 148.9 L146.8 148.9 L146.6 148.8 L146.6 148.9 L149.1 150.4 L149.4 150.6 L149.3 150.6 L149.1 150.6 L148.6 150.4 L148.4 150.3 L147.5 149.6 L146.1 148.9 L146.2 149.1 L146.4 149.3 L146.8 149.5 L147.4 149.7 L147.9 150.1 L148.0 150.2 L148.0 150.2 L148.1 150.3 L148.3 150.3 L148.4 150.4 L148.8 150.6 L148.9 150.7 L148.8 150.8 L149.0 150.8 L149.2 150.9 L149.4 151.0 L149.5 151.1 L149.3 151.1 L149.3 151.2 L149.4 151.2 L149.4 151.3 L148.6 151.2 L148.3 151.2 L147.9 151.0 L148.0 151.1 L148.2 151.3 L148.3 151.3 L148.4 151.5 L148.4 151.6 L148.3 151.6 L148.0 151.6 L148.1 151.7 L148.2 151.7 L148.4 151.7 L148.5 151.8 L148.5 152.0 L148.5 152.0 L148.4 152.0 L148.3 152.1 L148.2 152.2 L147.9 152.3 L147.8 152.4 L147.7 152.3 L147.7 152.2 L147.7 152.1 L147.7 152.0 L147.6 152.0 L147.5 152.0 L147.4 152.0 L147.3 152.0 L147.4 152.1 L147.5 152.2 L147.5 152.2 L147.4 152.3 L147.3 152.4 L147.3 152.4 L147.5 152.5 L147.5 152.6 L147.2 152.6 L147.2 152.7 L148.1 152.7 L148.5 152.8 L148.9 153.2 L149.1 153.5 L149.2 153.7 L148.9 153.7 L149.0 153.9 L149.0 153.9 L148.8 153.9 L148.6 154.0 L148.6 154.1 L148.6 154.3 L148.8 154.3 L149.0 154.4 L148.8 154.5 L148.6 154.5 L148.5 154.6 L148.6 154.8 L147.9 154.7 L147.6 154.8 L147.5 155.0 L147.9 155.2 L147.7 155.3 L147.6 155.3 L147.6 155.4 L147.8 155.5 L146.9 155.8 L146.7 156.0 L147.0 156.4 L146.7 156.5 L146.6 156.8 L146.7 157.1 L146.8 157.4 L147.2 157.7 L147.3 157.8 L147.4 157.8 L147.5 157.8 L147.6 157.8 L147.7 157.9 L147.9 158.1 L147.7 158.2 L147.8 158.3 L147.9 158.5 L148.0 158.6 L147.9 158.6 L147.5 158.5 L147.4 158.5 L147.5 158.4 L147.5 158.4 L147.4 158.4 L147.3 158.4 L147.3 158.4 L147.2 158.4 L147.2 158.5 L147.2 158.5 L147.2 158.5 L147.1 158.6 L147.1 158.6 L147.1 158.7 L147.0 158.6 L147.0 158.6 L146.8 158.6 L146.5 158.5 L146.4 158.5 L146.5 158.6 L146.6 158.7 L146.7 158.7 L146.8 158.8 L146.8 158.8 L146.5 158.9 L146.4 159.0 L146.3 159.1 L146.4 159.4 L146.5 159.5 L146.6 159.6 L146.7 159.7 L146.6 159.8 L146.3 160.1 L146.3 160.2 L146.4 160.5 L146.4 160.6 L146.3 160.8 L146.0 161.3 L146.0 161.4 L146.1 161.5 L146.2 161.6 L146.4 161.5 L146.5 161.5 L146.6 161.4 L146.7 161.5 L146.8 161.6 L146.7 161.7 L146.7 161.7 L146.5 161.8 L146.2 161.7 L146.1 161.7 L145.9 161.7 L145.7 161.8 L145.5 161.8 L145.4 161.9 L145.5 162.0 L145.7 162.2 L145.7 162.6 L145.7 162.8 L145.6 163.0 L145.5 163.1 L145.3 163.1 L145.1 163.1 L144.8 163.0 L144.6 163.0 L144.5 163.0 L144.4 163.1 L144.3 163.1 L144.2 163.2 L143.9 163.5 L143.9 163.6 L143.9 163.6 L143.9 163.8 L143.8 164.0 L143.8 164.3 L143.7 164.4 L143.4 164.4 L143.3 164.5 L143.3 164.7 L142.7 165.3 L142.4 165.7 L142.1 166.7 L141.8 167.6 L141.7 167.7 L141.6 167.7 L141.5 167.8 L141.5 167.9 L141.4 168.0 L141.2 168.1 L140.8 168.4 L140.6 168.5 L139.9 169.3 L139.7 169.5 L139.5 169.5 L139.3 169.4 L139.0 169.3 L139.3 168.9 L139.4 168.7 L139.2 168.6 L138.6 168.7 L138.3 168.7 L138.1 168.5 L138.0 168.6 L137.9 168.5 L137.9 168.5 L137.7 168.4 L137.6 168.4 L137.4 168.3 L137.4 168.3 L137.2 168.4 L136.9 168.6 L136.7 168.7 L136.5 168.5 L136.6 168.5 L136.7 168.3 L136.8 168.2 L136.7 168.1 L136.5 168.2 L136.1 168.4 L135.6 168.5 L135.5 168.6 L135.5 168.7 L135.4 168.8 L135.2 168.7 L135.1 168.6 L135.0 168.5 L134.9 168.5 L134.7 168.4 L134.6 168.5 L134.5 168.5 L134.3 168.7 L134.2 168.8 L134.2 168.9 L134.1 168.9 L133.6 168.9 L133.5 168.9 L133.3 168.8 L133.6 168.8 L133.6 168.8 L133.6 168.7 L133.3 168.4 L133.1 168.6 L132.6 168.7 L132.2 168.8 L131.8 168.6 L131.7 168.6 L131.6 168.6 L131.6 168.7 L131.5 168.7 L131.0 168.7 L130.9 168.6 L130.9 168.4 L130.8 168.4 L130.8 168.4 L130.5 168.4 L130.4 168.4 L130.4 168.5 L130.5 168.7 L130.5 168.8 L129.8 168.6 L129.4 168.5 L129.2 168.6 L128.9 168.7 L128.5 168.6 L128.2 168.6 L128.3 168.8 L128.0 168.9 L127.8 168.8 L127.6 168.7 L127.4 168.6 L126.8 168.6 L126.6 168.7 L126.4 168.8 L126.4 168.9 L126.3 169.1 L126.4 169.2 L126.4 169.2 L126.6 169.3 L126.7 169.4 L126.7 169.5 L126.8 169.5 L127.1 169.8 L127.2 170.0 L127.3 170.2 L127.2 170.2 L127.1 170.3 L126.9 170.4 L126.8 170.4 L126.7 170.5 L126.7 170.4 L126.6 170.3 L126.4 170.3 L126.3 170.4 L126.2 170.5 L126.2 170.4 L126.1 170.4 L126.0 170.4 L125.7 170.4 L125.5 170.4 L125.5 170.3 L125.7 170.2 L125.6 170.2 L125.5 170.1 L125.5 170.0 L125.5 169.9 L125.2 170.0 L125.1 169.9 L125.0 169.9 L125.1 169.9 L124.9 169.9 L124.7 170.0 L124.6 170.0 L124.2 170.1 L124.0 170.2 L123.7 170.5 L123.2 170.8 L123.0 170.9 L122.8 170.9 L122.5 171.0 L122.4 171.3 L122.3 171.5 L122.1 171.6 L121.7 171.7 L121.3 172.1 L121.0 172.5 L120.8 173.0 L120.8 173.5 L120.8 173.6 L120.9 173.8 L121.1 174.0 L121.6 174.2 L121.7 174.3 L121.7 174.4 L121.7 174.5 L121.7 174.7 L121.8 174.8 L121.9 174.9 L122.2 175.0 L122.7 175.5 L122.8 175.7 L122.7 175.9 L122.6 176.1 L121.9 176.5 L121.7 176.6 L121.6 176.6 L121.1 177.2 L120.9 177.4 L120.6 177.5 L120.4 177.5 L119.7 177.5 L119.3 177.5 L119.0 177.4 L118.1 177.0 L117.8 177.0 L117.4 176.9 L117.2 177.0 L116.9 177.1 L116.8 177.1 L116.6 177.1 L116.1 177.0 L114.6 177.1 L114.4 177.1 L114.2 177.2 L114.1 177.3 L114.0 177.4 L113.8 177.5 L113.3 177.4 L112.9 177.5 L111.9 177.9 L111.5 178.0 L110.7 178.0 L110.4 178.0 L108.5 177.6 L107.9 177.6 L107.7 177.5 L107.5 177.5 L107.5 177.5 L107.3 177.4 L107.2 177.3 L107.0 177.3 L106.7 177.3 L106.6 177.4 L106.4 177.5 L106.3 177.5 L106.2 177.5 L106.0 177.4 L105.9 177.4 L105.7 177.5 L105.5 177.6 L105.3 177.5 L105.2 177.3 L105.6 176.9 L105.7 176.9 L105.7 177.0 L105.8 177.0 L105.9 177.1 L106.1 177.1 L106.4 177.1 L106.7 177.1 L106.8 176.9 L106.7 176.8 L106.8 176.7 L106.9 176.7 L107.0 176.8 L106.9 176.5 L106.4 176.0 L106.2 175.7 L106.4 175.3 L106.7 175.1 L107.5 174.8 L107.6 174.7 L107.8 174.5 L107.8 174.4 L107.9 174.2 L107.8 174.0 L107.7 173.9 L107.5 173.8 L107.3 173.6 L107.1 173.6 L106.9 173.6 L106.8 173.4 L106.5 173.4 L106.3 173.4 L106.2 173.2 L106.3 173.2 L106.4 173.1 L106.5 173.0 L106.5 172.9 L106.3 172.4 L106.0 172.2 L105.5 172.0 L105.2 171.8 L105.0 171.6 L105.0 171.5 L105.0 171.4 L105.0 171.3 L104.9 171.3 L104.8 171.2 L104.7 171.2 L104.6 171.1 L104.5 170.9 L104.5 170.7 L104.4 170.6 L104.2 170.4 L104.0 170.4 L103.9 170.3 L103.8 170.0 L103.7 169.9 L102.7 169.2 L102.7 169.1 L102.2 168.6 L102.1 168.4 L102.0 168.1 L102.0 168.0 L101.7 167.6 L101.5 167.4 L101.1 167.2 L100.9 167.0 L103.2 167.6 L103.2 167.6 L103.4 167.8 L103.5 167.8 L103.6 167.8 L103.7 168.0 L103.8 168.0 L103.9 168.0 L104.1 167.9 L104.2 167.9 L104.7 167.9 L104.9 167.9 L105.1 167.8 L105.2 167.7 L105.3 167.5 L105.2 167.3 L104.7 167.2 L104.5 166.9 L104.1 166.4 L103.1 166.0 L102.9 165.7 L103.3 165.3 L103.9 165.2 L105.3 165.5 L105.9 165.3 L106.1 165.2 L106.3 165.0 L106.4 164.7 L106.5 164.5 L106.4 164.3 L106.1 163.8 L105.9 163.3 L105.7 163.1 L105.4 163.1 L105.1 163.1 L104.7 163.2 L104.5 163.2 L104.3 163.2 L104.1 163.1 L103.5 162.8 L103.4 162.6 L103.4 162.4 L103.2 162.3 L103.0 162.1 L102.8 162.0 L102.6 161.5 L102.6 161.3 L102.6 161.2 L101.9 160.9 L101.8 160.8 L101.8 160.8 L101.8 160.7 L101.8 160.7 L101.7 160.7 L101.5 160.7 L101.5 160.6 L101.3 160.4 L101.1 160.3 L100.8 160.3 L100.5 160.2 L100.1 160.1 L99.9 160.0 L99.7 159.8 L99.7 159.5 L99.7 159.5 L99.8 159.4 L99.8 159.4 L99.8 159.3 L99.8 159.2 L99.8 159.1 L99.7 159.0 L99.7 159.0 L99.6 158.9 L99.2 158.8 L98.9 158.6 L98.6 158.4 L98.6 158.2 L98.5 158.2 L98.3 158.1 L98.5 157.9 L98.5 157.7 L98.1 157.4 L98.1 157.3 L98.1 157.1 L98.0 157.0 L98.0 157.0 L97.6 157.0 L97.5 157.0 L97.9 156.8 L98.0 156.7 L97.9 156.7 L97.6 156.6 L97.4 156.6 L97.2 156.5 L97.0 156.4 L97.3 156.4 L97.4 156.4 L97.6 156.4 L97.4 156.3 L97.2 156.3 L96.9 156.3 L96.9 156.2 L97.0 156.1 L97.1 156.0 L97.2 156.0 L97.4 155.9 L97.5 155.9 L97.5 155.8 L97.4 155.7 L97.4 155.6 L97.4 155.5 L97.2 155.4 L97.1 155.3 L97.1 155.3 L97.0 155.2 L97.0 155.2 L96.9 155.2 L96.8 155.2 L96.6 155.2 L96.6 155.2 L96.4 155.1 L96.5 155.0 L96.8 154.8 L97.0 154.6 L96.5 154.6 L96.7 154.5 L96.8 154.4 L96.8 154.3 L96.5 153.9 L96.4 153.8 L96.3 153.9 L96.2 153.9 L96.1 154.0 L96.1 154.0 L95.9 154.2 L95.7 154.9 L95.6 155.2 L95.5 155.0 L95.2 155.0 L95.0 155.0 L95.2 154.7 L95.0 154.7 L94.9 154.7 L94.8 154.7 L94.7 154.6 L94.8 154.5 L94.8 154.4 L94.7 154.2 L94.7 154.0 L94.7 153.8 L94.8 153.7 L95.0 153.6 L95.2 153.5 L95.0 153.4 L94.8 153.4 L94.8 153.4 L95.0 153.3 L94.8 153.2 L94.7 153.1 L94.9 153.0 L94.8 152.3 L94.8 152.0 L94.8 152.0 L94.7 152.0 L94.6 152.0 L94.6 152.1 L94.4 152.2 L94.3 152.2 L94.2 152.1 L94.2 151.9 L94.1 151.8 L94.0 151.7 L93.9 151.6 L94.0 151.3 L94.8 151.3 L94.9 151.1 L94.7 151.2 L94.4 151.2 L94.0 151.2 L93.8 151.2 L93.2 151.0 L92.9 151.0 L93.0 151.2 L92.8 151.2 L92.6 151.2 L92.4 151.2 L92.4 151.0 L92.5 150.9 L93.5 150.3 L93.6 150.2 L93.6 150.1 L93.4 150.1 L93.1 150.1 L93.0 150.2 L92.7 150.0 L92.5 149.7 L92.2 149.6 L91.9 149.6 L92.1 149.4 L92.3 149.3 L92.4 149.3 L92.3 149.1 L92.5 149.0 L93.1 148.8 L93.1 148.8 L92.9 148.8 L92.9 148.7 L93.0 148.7 L93.1 148.7 L93.1 148.5 L92.8 148.4 L92.9 148.2 L93.4 147.8 L93.5 147.5 L93.6 147.3 L93.5 147.2 L93.4 147.1 L93.3 146.9 L93.4 146.8 L93.5 146.7 L93.5 146.7 L93.5 146.7 L93.4 146.6 L93.7 146.6 L93.8 146.3 L93.9 145.6 L94.0 145.5 L94.1 145.5 L94.3 145.5 L94.4 145.5 L94.5 145.4 L94.5 145.3 L94.4 145.3 L94.2 145.2 L94.1 145.1 L94.0 144.8 L93.9 144.7 L93.8 144.7 L93.7 144.6 L93.6 144.3 L93.8 144.1 L94.5 143.9 L94.3 143.8 L94.1 143.8 L93.6 144.0 L93.0 144.0 L92.7 144.0 L92.7 144.2 L92.5 144.2 L92.1 144.2 L91.6 144.5 L91.5 144.6 L91.4 144.6 L91.1 144.8 L91.0 144.9 L90.9 144.9 L90.7 144.9 L90.5 144.8 L90.4 144.8 L90.4 144.8 L90.6 145.0 L90.2 145.0 L90.1 144.8 L90.1 144.5 L90.3 144.2 L90.6 143.9 L90.9 143.7 L91.5 143.3 L91.3 143.2 L91.5 143.1 L91.7 143.0 L92.0 142.9 L91.8 142.7 L91.6 142.8 L91.3 143.0 L91.1 143.2 L91.0 143.0 L90.8 142.6 L90.7 142.5 L90.6 142.5 L90.7 142.8 L90.7 143.2 L90.6 143.6 L90.4 143.9 L90.0 144.2 L89.7 144.4 L88.9 144.7 L89.0 144.5 L89.1 144.4 L89.3 144.3 L89.5 144.2 L89.5 144.2 L89.3 144.2 L89.0 144.3 L88.8 144.2 L88.8 144.1 L88.8 144.0 L89.0 143.9 L89.1 143.9 L89.5 143.8 L89.4 143.8 L89.2 143.6 L89.2 143.3 L89.0 143.3 L88.9 143.4 L88.9 143.6 L88.8 143.7 L88.6 143.8 L88.5 143.8 L88.3 143.8 L88.4 143.7 L88.8 143.2 L89.0 143.0 L89.1 142.8 L89.2 142.7 L89.1 142.8 L88.6 143.2 L88.5 143.3 L88.4 143.3 L88.3 143.4 L88.3 143.5 L88.2 143.5 L87.9 143.6 L87.6 143.6 L87.3 143.6 L87.0 143.9 L86.9 143.8 L86.9 143.7 L86.9 143.6 L87.0 143.5 L86.9 143.4 L86.7 143.2 L86.8 143.0 L86.9 142.9 L87.4 142.9 L87.3 142.7 L87.4 142.6 L87.6 142.5 L87.8 142.4 L87.3 142.2 L87.3 142.2 L87.3 142.1 L87.1 142.0 L87.1 141.9 L87.1 141.9 L87.2 141.8 L87.3 141.8 L87.3 141.8 L87.3 141.5 L87.3 141.4 L87.4 141.3 L87.5 141.3 L87.6 141.2 L87.7 141.1 L87.4 141.1 L87.5 141.0 L87.4 140.9 L87.3 140.9 L87.3 140.8 L87.3 140.7 L87.4 140.6 L87.4 140.5 L87.3 140.3 L86.8 140.0 L86.8 139.8 L86.9 139.7 L86.8 139.6 L86.5 139.6 L86.4 139.5 L86.4 139.3 L86.6 139.1 L86.8 139.1 L86.8 138.9 L86.8 138.8 L86.9 138.8 L87.0 138.6 L87.1 138.5 L87.0 138.1 L87.0 138.1 L86.8 138.0 L86.7 138.0 L86.7 137.9 L86.7 137.6 L86.6 137.5 L86.6 137.4 L86.6 137.3 L86.6 137.3 L86.7 137.2 L86.1 137.1 L85.8 137.0 L85.6 136.9 L85.7 136.7 L86.0 136.6 L86.5 136.4 L86.0 136.5 L85.8 136.4 L85.7 136.2 L85.8 136.1 L85.9 136.0 L86.6 135.4 L86.9 135.3 L88.1 135.2 L88.4 135.3 L88.6 135.6 L88.7 135.9 L88.9 136.1 L89.1 136.3 L89.3 136.4 L89.4 136.4 L89.4 136.4 L89.4 136.4 L89.6 136.8 L89.6 137.5 L89.9 137.6 L90.6 137.6 L91.4 137.6 L92.0 137.2 L92.3 136.6 L92.4 136.3 L92.5 136.1 L92.8 135.6 L92.9 135.3 L92.9 134.7 L93.2 134.0 L93.3 133.9 L93.5 133.7 L93.6 133.5 L93.7 133.5 L93.7 133.2 L93.6 133.0 L93.3 132.2 L92.1 130.0 L92.0 129.7 L92.1 129.4 L92.3 129.2 L93.8 128.8 L94.1 128.7 L94.6 128.3 L94.6 128.2 L94.6 128.0 L94.7 127.6 L94.7 127.4 L94.5 127.2 L94.5 127.2 L94.1 126.9 L94.0 126.8 L94.1 126.4 L94.4 126.3 L94.5 126.2 L95.1 126.1 L97.0 126.2 L97.4 126.1 L99.1 125.4 L100.9 124.4 L101.3 124.0 L101.6 123.6 L101.8 123.1 L101.7 122.7 L101.4 122.0 L101.3 121.6 L101.4 121.4 L101.5 121.2 L102.2 120.8 L102.4 120.7 L102.6 120.4 L102.7 120.2 L102.8 119.8 L102.7 119.4 L102.6 119.1 L101.3 117.5 L100.1 116.4 L99.8 115.9 L99.6 115.5 L99.4 114.7 L99.2 114.3 L98.7 113.8 L98.7 113.5 L99.0 113.4 L101.6 113.0 L102.3 113.0 L103.6 113.1 L103.8 113.0 L103.9 112.9 L103.9 112.9 L104.1 112.1 L104.2 111.9 L104.3 111.8 L105.1 111.2 L105.4 111.0 L105.5 110.6 L105.9 109.6 L105.9 109.4 L105.8 109.3 L102.8 107.3 L102.4 107.2 L102.1 107.1 L101.3 107.1 L100.9 107.0 L100.5 106.9 L99.6 106.3 L99.1 106.1 L97.8 105.4 L97.6 105.3 L98.5 102.4 L99.4 99.5 L99.4 99.1 L99.4 98.9 L99.1 98.3 L99.0 98.2 L96.8 95.5 L96.8 95.3 L97.0 94.9 L97.4 94.4 L97.6 94.1 L97.6 93.8 L96.9 92.1 L96.9 91.8 L97.0 91.6 L98.3 90.8 L96.5 88.4 L95.7 87.5 L98.1 85.6 L98.3 85.4 L98.3 85.1 L97.7 84.0 L99.1 83.3 L101.3 81.5 L103.6 79.9 L104.4 79.5 L107.0 78.7 L109.9 78.3 L113.9 78.8 L117.9 79.3 L118.2 79.3 L118.4 79.2 L120.3 77.4 L120.4 77.2 L120.4 77.0 L119.9 74.3 L119.7 74.1 L119.3 73.9 L118.4 73.9 L117.9 73.8 L114.5 72.7 L117.5 70.4 L120.5 68.1 L120.5 68.1 L122.1 67.0 L122.4 66.7 L122.4 66.7 L122.4 66.6 L122.7 65.5 L122.9 65.2 L123.1 65.1 L124.1 64.7 L124.4 64.4 L124.5 63.8 L124.4 63.2 L124.4 62.7 L125.0 60.0 L125.1 59.8 L125.8 59.1 L126.0 58.8 L125.9 58.4 L124.7 55.2 L127.7 55.0 L130.6 54.8 L135.5 53.5 L135.6 53.3 L135.6 53.1 L135.5 52.7 L135.4 52.5 L134.9 51.3 L134.8 51.0 L137.6 49.8 L141.8 46.5 L142.8 45.9 L144.9 45.1 L145.6 44.9 L145.9 44.8 L146.1 44.6 L146.4 43.1 L146.4 42.9 L142.8 40.4 L143.4 39.5 L143.6 39.4 L145.5 39.3 L146.2 39.1 L146.9 38.8 L148.1 38.1 L148.3 37.8 L150.0 35.2 L150.3 35.0 L150.6 34.8 L155.3 33.3 L156.2 32.7 L156.4 32.6 L159.7 33.4 L163.0 34.2 L163.2 34.1 L163.6 33.9 L163.9 33.6 L166.0 32.0 L166.3 31.5 L165.7 29.3 L165.7 28.9 L165.9 27.9 L166.0 27.8 L166.1 27.7 L166.3 27.7 L169.1 27.3 L169.6 27.4 L171.5 28.1 L172.1 28.2 L176.0 28.0 L181.0 29.0 L186.1 29.8 L186.6 29.8 L187.1 29.7 L189.7 28.4 L186.5 27.6 L188.7 26.9 L189.6 26.3 L190.8 25.1 L190.9 24.9 L191.0 24.6 L190.9 23.6 L190.8 23.4 L188.1 22.2 L191.1 22.1 L194.0 22.0 Z M154.2 155.5 L153.9 155.5 L153.6 155.6 L153.2 156.0 L153.5 156.4 L153.5 156.5 L153.3 156.8 L153.3 156.9 L153.3 157.0 L153.3 157.0 L153.1 157.0 L153.1 157.1 L153.0 157.2 L153.0 157.3 L152.9 157.4 L152.5 157.9 L152.4 158.1 L152.3 158.4 L152.1 158.5 L151.9 158.6 L151.6 158.7 L151.7 158.8 L151.8 158.9 L151.9 158.9 L152.0 158.9 L151.8 159.0 L151.6 159.2 L151.3 159.5 L151.4 159.6 L151.4 159.9 L151.4 160.1 L151.3 160.2 L151.1 160.3 L151.0 160.9 L150.8 161.1 L150.8 161.1 L150.3 161.3 L150.2 161.3 L150.1 161.4 L150.1 161.5 L150.0 161.7 L150.0 161.8 L150.0 162.0 L149.3 163.2 L149.2 163.4 L149.2 163.6 L149.1 163.8 L149.0 163.9 L148.9 164.0 L148.8 164.0 L148.7 164.0 L148.6 164.1 L148.6 164.4 L148.6 164.4 L148.6 164.5 L148.6 164.5 L148.6 164.6 L148.5 164.7 L148.5 164.8 L148.5 165.0 L148.4 165.1 L148.4 165.2 L148.2 165.4 L148.0 165.7 L147.9 165.9 L147.9 166.1 L147.8 166.2 L147.9 166.5 L147.8 166.6 L147.7 166.7 L147.6 166.8 L147.5 167.0 L147.0 167.8 L146.7 167.9 L146.5 168.0 L146.2 168.0 L146.1 167.9 L146.0 167.8 L146.1 167.5 L146.1 167.4 L145.9 167.1 L146.0 166.9 L146.0 166.6 L146.0 166.1 L146.1 165.9 L146.0 165.7 L145.9 165.5 L145.8 165.3 L145.9 164.3 L145.9 164.2 L146.1 163.8 L146.4 163.6 L146.4 163.5 L146.5 163.2 L148.4 160.6 L148.6 160.5 L148.9 160.4 L149.2 160.4 L149.5 160.4 L149.7 160.2 L149.9 159.8 L150.4 159.1 L151.0 158.4 L151.5 157.8 L151.7 156.9 L151.7 156.8 L151.8 156.8 L152.1 156.7 L152.2 156.6 L152.3 156.5 L152.3 155.8 L152.4 155.6 L152.6 155.5 L153.0 155.2 L153.2 155.1 L153.4 155.0 L153.5 155.0 L153.6 155.2 L153.7 155.2 L153.8 155.2 L153.9 155.1 L153.9 155.1 L153.9 155.2 L154.0 155.2 L154.0 155.2 L154.0 155.2 L154.1 155.3 L154.1 155.4 L154.2 155.4 L154.2 155.5 Z M176.0 149.2 L176.1 149.3 L176.4 149.6 L176.5 149.7 L175.7 149.8 L175.4 149.9 L175.3 150.3 L175.2 150.2 L175.1 150.2 L175.0 150.2 L174.9 150.3 L174.8 150.4 L174.8 150.5 L174.8 150.7 L174.9 150.8 L174.4 150.9 L174.0 150.9 L173.9 150.9 L173.6 150.7 L173.5 150.7 L173.3 150.8 L173.3 150.8 L173.4 150.9 L173.4 151.0 L173.2 151.4 L173.0 151.7 L173.0 151.8 L172.9 151.9 L172.9 152.0 L172.8 152.1 L172.9 152.1 L173.4 152.2 L173.3 152.4 L173.2 152.5 L173.2 152.7 L173.1 152.9 L173.1 153.0 L172.9 153.2 L172.8 153.3 L173.0 153.5 L172.9 153.6 L173.0 153.7 L173.1 153.8 L173.3 153.8 L173.2 153.8 L173.1 154.0 L173.6 154.1 L174.0 154.2 L174.1 154.1 L174.1 154.0 L174.2 154.0 L174.3 154.0 L174.5 154.1 L174.6 154.2 L174.6 154.2 L174.7 154.4 L174.7 154.5 L174.7 154.6 L174.5 154.7 L174.2 154.7 L174.1 154.7 L174.0 154.6 L173.9 154.6 L173.9 154.7 L173.7 154.8 L173.7 154.8 L173.3 154.8 L172.9 155.0 L172.6 155.2 L172.3 155.4 L171.9 155.6 L171.7 155.7 L171.8 156.0 L171.9 156.0 L172.2 156.0 L172.2 156.0 L172.3 156.4 L171.9 156.5 L171.9 156.5 L170.9 156.6 L170.6 156.7 L170.6 156.8 L170.7 156.8 L170.7 156.9 L170.5 156.9 L169.1 157.4 L168.8 157.5 L168.5 157.7 L169.3 157.7 L169.1 157.8 L168.2 158.0 L168.1 158.2 L168.0 158.8 L168.1 158.9 L168.3 159.0 L168.7 159.1 L168.1 159.1 L168.1 159.2 L168.2 159.2 L167.9 159.4 L167.8 159.5 L167.7 159.7 L167.5 159.8 L166.5 160.1 L166.1 160.1 L165.7 160.0 L166.5 159.3 L166.5 159.2 L166.5 159.1 L166.4 158.9 L166.6 158.8 L167.0 158.7 L167.2 158.6 L167.3 158.5 L167.4 158.2 L167.5 158.1 L167.2 158.2 L166.9 158.3 L166.7 158.4 L166.4 158.4 L166.4 158.3 L166.6 158.2 L166.7 158.0 L166.7 157.9 L166.6 157.8 L166.6 157.8 L166.7 157.7 L166.7 157.6 L166.3 157.5 L166.0 156.5 L165.3 156.2 L165.3 156.0 L165.5 155.7 L165.9 155.5 L166.0 155.3 L166.1 155.1 L166.0 154.9 L166.2 154.8 L166.2 154.7 L166.1 154.7 L166.0 154.6 L165.9 154.6 L165.8 154.5 L165.8 154.4 L165.8 154.3 L165.8 154.2 L165.6 154.0 L165.5 153.8 L165.4 153.6 L165.4 153.3 L165.6 152.9 L166.0 152.5 L167.9 151.5 L169.4 150.0 L169.8 149.7 L170.4 149.6 L170.6 149.6 L170.8 149.6 L170.9 149.6 L171.1 149.6 L171.2 149.5 L171.2 149.3 L171.3 149.2 L171.4 149.0 L171.6 148.8 L171.9 148.7 L172.1 148.6 L172.4 148.6 L172.6 148.7 L172.8 148.8 L172.9 149.0 L172.9 149.1 L172.9 149.1 L172.9 149.1 L172.8 149.2 L172.9 149.3 L172.9 149.3 L173.0 149.3 L173.0 149.4 L173.0 149.5 L173.1 149.6 L173.3 149.7 L173.4 149.4 L173.6 149.3 L173.8 149.2 L173.9 149.0 L173.8 148.9 L173.7 148.8 L173.7 148.7 L173.8 148.7 L174.6 148.6 L174.6 148.7 L174.4 148.9 L174.6 149.0 L174.9 149.0 L174.9 148.8 L175.0 148.8 L175.3 148.7 L175.5 148.7 L175.6 148.8 L175.6 148.8 L175.6 149.0 L175.7 149.1 L175.8 149.2 L176.0 149.2 Z" fill="#172033" fill-rule="evenodd"/></svg>
