<svg xmlns="http://www.w3.org/2000/svg" viewBox="0 0 320 200" role="img"><path d="M238.0 90.2 L238.3 91.2 L239.0 91.8 L239.2 92.3 L239.5 92.7 L240.0 93.0 L240.6 93.1 L241.0 93.1 L240.8 93.5 L240.6 93.8 L240.6 94.0 L240.6 94.4 L240.9 94.6 L241.3 94.7 L241.5 94.9 L241.5 95.5 L241.3 95.8 L240.6 96.5 L240.3 96.8 L240.3 97.2 L240.2 97.6 L240.1 98.0 L239.9 98.2 L239.2 98.6 L239.0 99.3 L239.1 100.0 L239.5 101.5 L239.6 102.3 L239.5 103.8 L240.0 103.9 L243.3 105.1 L243.5 105.6 L243.4 106.0 L242.8 106.2 L243.1 106.7 L243.5 107.1 L243.9 107.5 L245.3 108.0 L245.8 108.3 L246.2 108.8 L247.5 111.8 L247.6 112.6 L247.3 114.1 L246.5 116.8 L246.5 118.3 L246.8 119.2 L247.4 119.7 L248.1 120.2 L248.7 121.0 L248.9 121.6 L248.9 122.4 L248.7 123.8 L248.1 125.4 L247.0 126.6 L243.9 128.2 L244.4 128.7 L244.9 129.4 L245.6 130.7 L246.1 132.0 L246.9 133.2 L247.5 133.9 L249.6 135.4 L249.8 135.7 L250.1 136.2 L250.3 136.4 L250.7 136.6 L251.0 136.6 L251.3 136.8 L251.5 137.2 L251.5 137.8 L250.9 139.7 L251.0 140.1 L251.3 140.2 L252.3 140.6 L252.6 140.8 L252.7 141.1 L252.9 141.8 L253.1 142.0 L253.5 142.4 L253.7 142.4 L253.9 142.2 L255.4 141.1 L255.5 140.4 L255.7 139.7 L256.1 139.1 L256.6 138.8 L257.1 138.9 L257.4 139.1 L257.6 139.5 L257.9 139.8 L258.3 139.8 L259.0 139.7 L259.8 139.6 L260.0 139.8 L260.0 140.3 L260.1 140.7 L260.4 140.7 L260.9 140.6 L261.2 140.5 L261.2 141.2 L261.4 141.9 L262.3 143.1 L263.1 143.8 L263.2 144.2 L263.2 144.6 L262.7 145.2 L262.6 145.6 L262.7 146.2 L263.1 146.7 L263.5 147.0 L263.8 147.5 L263.8 148.7 L264.0 149.3 L264.6 149.5 L265.1 149.8 L265.5 150.1 L266.0 150.3 L266.6 150.5 L266.9 150.6 L266.9 150.9 L266.7 151.2 L266.6 151.4 L267.1 152.0 L267.3 152.5 L267.5 152.7 L267.6 152.8 L267.9 153.0 L267.9 153.1 L267.7 153.3 L267.5 153.4 L267.5 153.7 L267.5 154.4 L267.4 154.8 L267.9 154.9 L268.3 154.7 L268.6 154.3 L268.7 153.7 L269.0 154.0 L269.1 154.3 L269.2 154.8 L269.3 155.7 L269.2 155.9 L268.9 156.0 L268.6 156.3 L268.5 156.3 L268.2 156.2 L268.0 156.1 L267.8 156.2 L267.7 156.4 L267.9 156.6 L268.1 156.8 L268.2 157.0 L268.0 157.3 L267.8 157.7 L267.7 158.1 L267.8 158.7 L267.8 158.8 L267.7 159.0 L267.6 159.2 L267.6 159.4 L267.7 159.5 L267.9 159.5 L268.0 159.5 L268.0 159.5 L268.2 159.7 L268.3 160.0 L268.4 160.3 L268.5 160.6 L268.5 161.0 L268.5 161.4 L268.2 161.7 L268.2 161.8 L268.6 162.5 L268.7 162.8 L268.4 163.3 L267.9 163.4 L267.4 163.5 L267.0 164.5 L266.7 164.7 L266.5 164.9 L266.6 165.5 L266.7 165.5 L267.0 165.6 L267.2 165.8 L267.4 166.2 L267.4 166.6 L267.2 167.7 L267.3 168.1 L267.4 168.3 L267.4 168.6 L267.3 169.0 L266.6 169.3 L266.3 169.5 L266.7 169.7 L267.0 169.8 L267.4 170.5 L267.7 170.8 L267.7 170.5 L267.9 170.1 L268.1 170.0 L268.3 170.6 L268.4 170.9 L268.6 171.5 L268.7 171.8 L269.0 171.4 L269.1 171.2 L269.5 171.8 L269.5 172.6 L269.2 173.6 L269.1 174.5 L268.2 174.5 L265.8 173.6 L264.6 173.5 L261.6 173.7 L260.1 174.0 L257.3 175.0 L256.0 175.2 L253.1 175.1 L252.4 175.0 L250.2 174.1 L250.2 174.0 L250.1 174.0 L249.9 174.0 L249.7 174.0 L249.3 174.3 L247.9 175.0 L247.5 175.1 L246.7 175.1 L244.6 174.4 L243.7 174.4 L243.1 174.7 L241.9 175.7 L240.6 176.5 L234.6 178.0 L234.0 177.7 L233.0 176.2 L232.3 175.7 L230.8 175.2 L230.0 175.0 L229.4 175.0 L228.8 175.1 L228.1 175.4 L227.1 175.9 L226.8 176.0 L226.8 176.0 L226.3 176.0 L226.1 175.9 L226.1 175.6 L225.9 175.3 L224.9 174.2 L224.3 173.7 L223.6 173.4 L222.9 173.4 L220.6 173.5 L219.9 173.4 L219.7 173.1 L219.5 172.8 L219.0 172.5 L217.9 172.4 L217.6 172.3 L217.2 171.9 L217.1 171.6 L217.2 171.4 L217.2 171.3 L216.3 170.5 L214.9 169.8 L213.6 169.8 L213.0 171.2 L212.9 171.9 L212.5 172.3 L211.9 172.3 L211.3 172.1 L210.6 172.1 L210.0 172.1 L209.4 171.8 L209.0 171.2 L208.9 170.5 L209.0 169.9 L209.5 168.7 L209.7 168.1 L209.7 167.4 L209.6 166.7 L209.1 166.3 L208.6 166.2 L207.9 166.3 L207.3 166.3 L206.7 166.0 L206.3 166.4 L206.0 166.2 L205.8 166.1 L205.6 166.2 L205.2 166.2 L204.8 166.3 L204.6 166.3 L204.5 166.3 L204.1 165.9 L203.9 165.8 L203.7 165.8 L203.1 166.0 L202.8 166.0 L202.5 166.0 L202.0 165.7 L201.7 165.6 L201.4 165.7 L200.3 165.9 L200.2 165.9 L200.1 166.0 L200.0 166.1 L199.8 166.1 L199.6 166.1 L199.3 165.9 L199.1 165.8 L199.0 165.8 L197.4 165.3 L185.9 164.9 L173.3 164.9 L164.0 164.8 L160.7 164.8 L148.1 164.8 L145.2 164.8 L135.5 164.7 L133.7 164.7 L132.7 164.9 L131.8 165.3 L129.7 166.7 L127.6 167.7 L125.7 169.1 L125.6 169.1 L116.6 173.2 L115.4 173.5 L109.2 173.1 L108.9 173.1 L106.1 173.3 L105.4 173.2 L103.2 172.5 L101.9 172.4 L99.2 172.8 L99.0 172.9 L98.8 173.0 L98.6 173.1 L98.4 173.1 L97.6 172.8 L97.2 172.7 L96.8 172.8 L94.4 174.1 L91.5 175.6 L90.4 176.0 L88.7 176.0 L86.8 176.5 L86.1 176.5 L81.3 176.2 L80.0 176.5 L79.2 177.0 L79.0 176.6 L78.8 176.1 L78.6 175.4 L78.4 175.2 L77.9 174.8 L77.1 174.0 L76.7 173.5 L76.6 173.1 L76.6 171.6 L76.6 171.3 L77.0 171.0 L77.1 170.6 L77.3 170.3 L79.1 169.2 L79.9 169.2 L81.0 169.3 L82.2 168.6 L82.5 168.3 L82.7 168.0 L82.9 167.7 L83.1 167.3 L84.5 166.4 L85.1 167.1 L85.6 168.5 L86.1 168.8 L86.2 168.2 L86.5 167.8 L87.2 167.6 L87.9 167.8 L89.1 168.4 L90.1 168.7 L91.3 169.3 L91.9 169.3 L92.6 169.0 L93.5 167.9 L94.1 167.6 L94.9 167.6 L95.6 167.9 L96.3 168.0 L97.2 167.5 L97.6 167.3 L97.8 167.6 L98.0 168.1 L98.3 168.3 L101.0 167.3 L101.7 167.2 L102.5 167.1 L103.1 167.0 L103.5 166.6 L104.1 166.4 L104.8 166.4 L105.5 166.7 L106.4 167.4 L107.0 167.9 L107.3 168.2 L107.7 168.3 L110.0 168.3 L110.2 168.5 L110.6 169.0 L110.8 169.1 L111.1 169.0 L112.0 168.8 L112.4 168.5 L112.8 168.1 L113.3 167.8 L114.1 168.1 L114.3 167.9 L114.5 167.8 L114.7 167.8 L115.2 168.2 L115.4 168.1 L115.6 168.1 L115.8 168.1 L116.1 168.4 L116.3 169.0 L116.5 169.3 L116.7 169.5 L117.0 169.7 L117.3 169.7 L117.7 169.8 L118.2 169.7 L119.8 169.0 L120.4 168.4 L121.5 167.0 L121.9 166.7 L122.3 166.5 L122.5 166.3 L122.6 165.8 L122.4 165.5 L122.1 165.4 L121.8 165.2 L122.1 164.9 L121.8 164.1 L121.5 163.0 L121.4 161.9 L121.7 161.0 L122.1 160.8 L122.6 160.8 L123.1 160.8 L123.6 160.8 L124.1 160.5 L124.4 160.3 L124.7 160.0 L124.8 159.5 L125.5 160.2 L126.2 160.4 L126.7 160.1 L126.8 159.1 L126.2 159.6 L125.7 159.6 L125.1 159.4 L124.6 159.3 L124.0 159.5 L123.2 160.2 L122.5 160.3 L122.2 160.3 L121.6 160.4 L121.1 160.6 L120.9 161.1 L120.9 163.2 L121.3 164.5 L121.4 164.9 L121.4 165.5 L121.4 165.8 L121.3 166.0 L120.4 166.7 L120.1 167.1 L118.4 168.7 L117.9 169.0 L117.5 169.0 L117.1 168.8 L116.8 168.6 L117.0 167.5 L115.9 167.0 L113.4 166.6 L111.7 167.7 L111.0 167.8 L110.9 167.7 L110.8 167.5 L110.5 167.2 L110.1 167.1 L109.6 167.2 L109.0 167.5 L108.6 167.6 L108.2 167.5 L107.7 167.2 L106.8 166.6 L106.7 166.5 L106.8 166.2 L106.8 166.0 L106.7 165.9 L106.2 165.8 L105.9 165.7 L105.8 165.7 L105.6 165.4 L105.1 164.4 L104.9 164.3 L104.8 164.2 L104.6 164.1 L104.5 163.3 L104.3 162.9 L104.1 162.9 L104.1 163.2 L104.1 163.4 L103.7 164.1 L103.5 164.3 L103.4 165.5 L102.4 166.1 L100.9 166.4 L100.5 166.5 L99.8 167.0 L99.6 167.1 L99.2 167.1 L98.4 166.8 L97.0 166.8 L96.6 166.9 L95.9 167.2 L95.6 167.3 L95.1 167.3 L94.0 167.1 L93.6 167.2 L93.1 167.5 L92.8 167.6 L92.7 167.8 L92.5 168.1 L92.2 168.6 L91.9 168.8 L90.5 168.3 L89.3 167.7 L88.7 167.2 L88.5 166.7 L88.4 166.7 L88.0 166.6 L87.7 166.4 L87.5 166.1 L87.6 165.8 L87.8 165.5 L88.1 165.2 L88.5 165.2 L88.5 164.9 L87.9 164.9 L87.6 164.6 L87.4 164.2 L87.3 163.7 L87.0 166.6 L86.8 166.6 L86.3 166.0 L85.0 164.9 L84.8 164.2 L84.4 164.5 L84.1 164.9 L83.8 165.3 L83.3 165.4 L82.8 165.3 L82.5 165.1 L82.4 164.7 L82.4 164.2 L82.9 163.3 L83.6 162.6 L84.1 161.8 L83.9 160.5 L83.7 161.5 L83.6 161.7 L83.4 162.1 L83.3 162.2 L83.1 162.3 L82.4 163.0 L82.1 163.3 L82.0 163.8 L81.9 164.5 L82.2 165.8 L82.1 166.4 L81.0 166.8 L79.5 168.1 L78.3 168.5 L77.6 168.1 L77.3 167.2 L77.3 166.0 L77.5 164.8 L78.0 163.5 L79.0 162.8 L80.2 163.2 L80.3 162.7 L79.7 162.3 L79.0 162.1 L78.4 162.4 L77.6 163.2 L77.2 163.5 L76.8 163.4 L77.0 163.1 L77.1 162.8 L77.0 162.5 L76.8 162.2 L77.6 161.2 L77.7 160.7 L77.5 160.0 L77.3 160.0 L77.1 160.4 L76.9 160.6 L76.6 160.5 L76.6 159.9 L76.6 159.5 L76.9 159.0 L78.1 157.2 L78.2 156.7 L78.2 156.3 L78.0 155.4 L78.0 155.0 L78.1 154.3 L78.4 152.8 L78.5 151.9 L78.5 151.3 L78.3 151.0 L78.4 150.2 L78.5 149.8 L78.7 149.5 L79.3 148.9 L79.4 148.6 L79.9 147.7 L81.2 147.5 L82.7 147.5 L88.6 147.5 L94.0 147.6 L101.8 147.6 L106.5 147.7 L108.8 147.7 L109.7 147.7 L111.0 147.7 L111.3 147.5 L111.3 145.0 L111.4 144.5 L111.4 141.9 L111.6 141.4 L112.0 141.2 L114.5 141.0 L116.1 140.5 L116.5 140.5 L118.9 140.7 L119.5 140.6 L120.5 140.3 L121.4 139.9 L122.2 139.5 L123.3 139.6 L127.2 140.4 L128.5 140.4 L129.7 140.2 L130.8 139.8 L131.8 139.1 L132.6 138.2 L132.8 137.2 L132.9 135.0 L133.4 134.2 L134.2 133.4 L135.0 132.6 L135.8 132.3 L136.8 132.9 L138.4 134.4 L140.1 135.7 L140.1 135.7 L140.1 135.7 L140.1 135.7 L142.5 136.8 L143.7 137.1 L145.0 137.2 L145.6 137.4 L146.8 138.1 L147.4 138.3 L148.1 138.5 L148.5 138.7 L149.2 139.7 L150.2 140.5 L151.4 141.0 L152.7 141.2 L154.0 141.0 L155.2 140.7 L155.6 140.9 L156.6 141.8 L156.9 142.1 L157.4 142.4 L157.9 142.5 L159.0 142.6 L159.5 142.7 L159.9 143.1 L160.2 143.5 L160.5 143.7 L160.9 144.0 L162.2 144.7 L163.1 144.9 L164.1 145.0 L166.1 144.8 L168.0 145.2 L169.1 145.1 L169.9 144.8 L171.6 143.5 L172.1 143.3 L172.7 143.3 L174.2 142.7 L175.7 142.7 L177.1 142.3 L179.8 142.1 L181.6 141.4 L182.6 139.8 L182.7 138.0 L181.8 136.3 L181.5 136.1 L180.7 135.6 L180.4 135.4 L180.4 135.3 L180.2 135.0 L179.9 134.3 L179.8 134.0 L179.2 133.6 L178.3 133.1 L177.4 132.8 L176.7 132.7 L176.2 132.8 L175.5 133.2 L175.0 133.4 L174.7 133.4 L174.1 133.4 L173.7 133.4 L172.9 133.6 L171.3 134.4 L169.3 134.8 L168.6 135.1 L166.6 136.3 L164.5 137.1 L163.9 137.2 L163.2 137.1 L162.4 136.7 L159.8 134.9 L159.5 134.7 L159.2 134.3 L158.9 133.9 L158.5 132.3 L158.1 131.6 L157.6 131.0 L157.0 130.5 L155.4 129.8 L154.0 129.7 L152.5 130.1 L150.3 131.3 L149.9 131.4 L149.4 131.2 L147.9 130.4 L147.7 130.1 L147.0 127.8 L146.7 127.1 L146.2 126.5 L145.7 126.1 L145.0 125.5 L143.7 125.1 L140.1 125.0 L138.0 124.2 L137.2 124.1 L134.6 125.1 L131.9 126.7 L131.2 126.9 L130.9 126.7 L130.2 125.8 L129.9 125.5 L128.3 125.2 L126.7 125.9 L125.2 126.9 L124.1 128.1 L123.7 128.7 L123.3 129.5 L123.0 130.2 L123.0 130.5 L122.9 131.0 L122.8 132.4 L122.3 132.6 L120.5 132.6 L118.3 132.5 L116.1 132.5 L113.9 132.5 L111.7 132.5 L109.5 132.5 L107.3 132.5 L105.0 132.5 L102.8 132.5 L102.1 132.5 L100.6 132.5 L98.4 132.5 L96.2 132.5 L94.0 132.5 L91.8 132.4 L89.6 132.4 L87.4 132.4 L85.1 132.4 L85.1 132.4 L84.8 131.9 L84.6 131.5 L84.6 130.5 L85.2 130.0 L86.1 129.5 L87.0 128.8 L86.8 128.7 L86.5 128.5 L86.3 128.4 L86.7 127.9 L87.1 127.4 L87.0 127.0 L86.3 126.9 L86.4 127.5 L86.2 128.1 L85.8 128.6 L85.3 128.6 L85.1 129.3 L84.5 129.8 L83.8 130.0 L83.1 129.8 L82.5 129.2 L82.3 128.5 L82.6 127.1 L82.7 126.3 L82.8 125.9 L83.1 125.4 L84.4 124.0 L84.6 123.5 L84.8 123.6 L85.4 123.9 L85.6 124.0 L85.5 123.8 L85.3 123.2 L86.6 123.0 L86.6 123.7 L86.9 124.4 L87.3 124.8 L87.8 124.7 L87.5 123.9 L87.5 123.0 L87.3 122.3 L86.8 122.0 L87.0 121.5 L87.7 118.2 L87.8 117.6 L87.0 118.7 L86.7 119.4 L86.4 120.9 L86.0 121.8 L85.6 122.4 L85.1 122.3 L84.8 122.3 L84.5 122.7 L83.8 122.9 L83.1 123.0 L82.4 123.2 L82.0 123.5 L81.9 123.8 L81.9 124.1 L81.7 124.5 L81.5 124.6 L81.1 124.9 L80.8 125.1 L80.5 125.7 L80.2 125.9 L79.9 125.8 L79.7 125.4 L79.7 125.0 L79.7 124.6 L79.3 124.5 L78.9 124.1 L78.7 123.4 L78.8 122.7 L79.0 122.3 L78.8 121.8 L78.6 121.2 L78.5 120.1 L78.5 119.5 L78.7 119.1 L78.9 118.9 L79.7 118.2 L80.1 118.1 L80.6 118.1 L81.6 118.2 L82.1 118.3 L82.5 118.6 L82.4 119.1 L82.9 118.7 L83.3 118.1 L83.8 117.8 L84.6 118.1 L84.6 117.3 L84.9 117.0 L85.3 116.8 L85.8 116.4 L85.4 116.6 L84.9 116.7 L84.4 116.6 L84.1 116.2 L85.7 115.2 L86.3 114.7 L87.2 113.6 L87.7 113.2 L88.9 112.8 L89.4 112.2 L89.8 112.0 L90.1 112.1 L90.4 112.4 L90.7 112.6 L91.1 112.4 L91.3 112.2 L91.9 112.0 L92.1 111.8 L89.9 111.7 L88.9 111.3 L89.0 110.6 L88.4 110.8 L88.2 111.4 L88.3 111.9 L88.7 112.2 L88.3 112.5 L87.9 112.5 L87.6 112.3 L87.2 112.2 L86.9 112.4 L86.7 112.6 L86.7 113.0 L86.6 113.2 L85.6 114.8 L85.3 115.2 L85.0 115.3 L84.2 115.5 L83.8 115.8 L83.4 116.2 L83.0 117.0 L82.6 117.4 L81.8 117.6 L81.1 117.5 L80.3 117.2 L79.5 117.2 L80.3 115.7 L80.3 115.4 L80.9 115.3 L81.9 114.2 L81.4 114.3 L81.0 115.0 L80.6 115.2 L79.8 115.2 L79.5 115.3 L79.2 115.4 L79.6 115.9 L79.6 116.2 L79.0 116.9 L78.9 117.2 L78.8 117.7 L78.6 118.0 L77.9 118.8 L77.8 119.1 L77.6 120.1 L77.8 123.5 L77.5 123.5 L77.3 116.6 L77.2 115.6 L76.6 113.9 L75.9 112.6 L75.6 112.2 L75.1 112.0 L74.2 111.8 L73.9 111.5 L73.7 111.0 L73.4 109.1 L73.1 108.5 L72.9 108.0 L72.2 107.4 L71.9 107.2 L71.6 107.2 L71.5 107.0 L71.4 106.5 L71.5 106.2 L71.7 105.5 L71.7 105.1 L71.5 104.5 L71.1 103.9 L70.0 102.8 L67.4 101.6 L67.0 101.2 L66.8 100.7 L65.6 98.9 L64.6 96.4 L63.2 94.5 L62.2 93.6 L61.6 93.2 L60.9 92.9 L60.1 92.7 L59.5 92.6 L58.0 91.8 L57.8 91.5 L56.6 91.6 L55.6 91.4 L54.7 91.5 L53.9 92.0 L54.2 92.4 L54.6 92.5 L54.4 93.0 L53.9 93.2 L54.0 93.4 L54.2 93.6 L54.4 93.7 L54.1 94.2 L54.0 94.3 L53.9 94.5 L53.4 94.2 L51.0 91.3 L50.5 90.8 L56.3 89.3 L58.1 87.9 L63.4 85.7 L64.6 84.7 L70.3 78.2 L71.4 76.5 L73.9 73.9 L78.8 65.4 L81.3 62.2 L85.9 54.6 L86.1 54.3 L86.0 53.9 L85.8 53.4 L86.6 52.1 L87.0 50.1 L87.1 46.2 L87.3 45.8 L87.8 44.2 L88.4 42.8 L88.5 40.4 L88.8 39.7 L89.3 39.3 L90.6 39.0 L91.2 38.6 L91.4 38.2 L91.6 37.8 L93.0 31.8 L93.2 30.4 L93.5 29.7 L94.0 29.0 L94.6 28.4 L95.4 28.0 L96.2 27.8 L97.4 28.0 L97.8 28.1 L98.2 28.0 L98.5 27.8 L99.6 27.1 L100.0 26.9 L100.4 26.9 L100.9 26.9 L101.2 27.1 L101.4 27.4 L101.9 28.0 L102.5 28.6 L103.2 29.0 L104.0 29.1 L104.9 28.9 L105.1 28.8 L105.4 28.6 L105.6 28.6 L105.9 28.7 L106.4 28.8 L106.6 28.9 L106.9 28.8 L108.3 28.2 L108.8 28.2 L110.0 28.4 L110.3 28.4 L111.2 28.3 L111.8 28.3 L113.4 28.8 L114.5 28.9 L114.8 29.0 L115.7 29.4 L116.2 29.5 L116.8 29.5 L117.3 29.3 L117.8 29.0 L118.6 28.3 L119.0 28.0 L119.5 28.0 L121.1 28.3 L121.6 28.2 L122.0 28.0 L122.4 27.7 L123.2 26.5 L123.7 26.1 L124.2 25.9 L124.7 26.0 L125.1 26.2 L125.3 26.6 L125.5 26.9 L125.9 27.1 L126.5 27.1 L127.0 27.0 L128.5 26.4 L129.0 26.2 L130.2 26.2 L131.8 26.5 L132.4 26.4 L136.2 25.9 L137.0 25.6 L137.2 25.4 L137.4 25.2 L137.4 25.0 L137.3 24.8 L136.7 24.2 L136.5 23.7 L136.5 23.3 L136.9 22.9 L137.4 22.8 L137.9 22.9 L138.2 23.3 L138.5 23.7 L138.8 24.0 L139.1 24.1 L139.4 24.1 L139.6 24.0 L139.8 23.8 L140.0 23.6 L140.1 23.4 L140.2 22.9 L140.4 22.6 L140.8 22.3 L141.6 22.0 L142.0 22.2 L142.5 22.7 L142.5 22.7 L142.8 23.3 L143.1 23.7 L143.8 23.8 L144.9 23.6 L151.0 24.0 L151.4 23.9 L152.6 23.6 L152.9 23.6 L153.2 23.7 L154.2 24.2 L154.6 24.2 L155.0 24.2 L156.5 23.8 L156.9 23.8 L158.3 24.1 L158.7 24.1 L159.1 24.1 L159.5 24.0 L159.8 23.8 L160.7 23.3 L161.1 23.1 L161.8 23.1 L164.0 23.9 L164.3 24.1 L164.5 24.4 L164.5 24.8 L164.3 25.5 L164.3 25.7 L164.7 25.9 L166.0 25.8 L166.4 25.9 L166.5 26.2 L166.5 26.8 L166.7 27.1 L167.1 27.3 L167.9 27.3 L168.3 27.4 L168.6 27.6 L169.2 28.3 L169.5 28.6 L170.3 29.1 L171.5 30.5 L173.7 32.3 L174.8 33.0 L175.1 33.2 L175.7 33.9 L176.0 34.1 L176.7 34.4 L177.0 34.6 L177.3 34.8 L177.3 35.1 L177.1 35.6 L177.0 35.9 L177.1 36.1 L177.4 36.6 L177.6 36.9 L177.6 37.2 L177.4 37.8 L177.5 38.4 L178.1 38.7 L179.5 39.1 L179.8 39.3 L180.4 39.7 L180.6 39.9 L180.8 40.2 L181.1 41.2 L181.3 41.5 L181.5 41.8 L181.8 42.1 L182.1 42.3 L182.4 42.4 L182.7 42.3 L183.0 42.3 L183.5 41.9 L184.1 41.5 L184.4 41.2 L185.0 40.4 L185.3 40.1 L185.6 39.9 L185.9 39.9 L186.2 39.8 L186.5 39.9 L186.5 40.3 L186.3 40.9 L186.1 41.4 L186.2 41.8 L186.4 41.9 L186.8 42.0 L186.9 42.1 L187.0 42.2 L187.0 42.3 L187.1 42.4 L187.2 42.4 L187.4 42.5 L187.5 42.5 L187.7 42.7 L187.8 42.8 L188.0 42.8 L188.3 42.8 L189.2 42.3 L189.4 42.2 L190.1 42.2 L190.2 42.2 L190.5 42.1 L191.6 41.7 L193.5 41.3 L193.9 41.1 L194.1 41.0 L194.3 41.0 L194.6 41.1 L194.6 41.6 L194.0 42.7 L194.0 43.2 L194.3 43.4 L195.6 43.0 L196.2 43.0 L196.3 43.2 L196.6 43.6 L196.8 43.8 L197.8 44.5 L198.0 44.7 L198.1 45.0 L198.1 45.6 L198.2 45.9 L198.7 47.1 L198.9 47.5 L199.2 47.8 L199.5 48.1 L200.4 48.8 L200.6 49.1 L200.7 49.4 L200.6 49.7 L200.5 50.3 L200.5 50.6 L200.6 50.8 L200.7 51.0 L201.4 51.7 L201.7 52.3 L201.9 52.9 L201.9 53.6 L201.8 53.9 L201.7 54.2 L201.6 54.5 L201.6 54.8 L201.8 55.0 L202.1 55.2 L202.6 55.5 L202.9 55.7 L203.1 56.0 L203.5 56.6 L203.7 56.9 L203.7 57.1 L203.7 57.4 L203.1 58.2 L203.0 58.5 L203.0 58.8 L203.0 59.1 L203.4 60.0 L203.9 60.0 L205.0 59.8 L205.5 59.8 L205.7 59.9 L206.4 60.4 L206.7 60.5 L207.5 60.7 L207.9 60.9 L208.3 61.3 L208.6 61.7 L208.6 62.2 L208.4 63.5 L208.4 63.9 L208.5 64.2 L208.6 64.5 L208.8 64.6 L209.9 64.9 L210.4 64.8 L211.0 64.5 L211.4 64.2 L212.0 63.9 L212.5 63.8 L213.1 64.1 L213.3 64.3 L213.4 64.6 L213.6 65.6 L213.7 65.8 L214.0 66.3 L214.2 66.6 L214.3 66.8 L214.3 68.0 L214.4 68.6 L214.7 69.2 L215.1 69.6 L217.3 71.0 L217.7 71.5 L217.9 72.1 L217.7 72.6 L217.2 72.7 L215.9 72.5 L215.6 72.8 L215.8 73.2 L216.6 74.0 L216.9 74.3 L217.2 74.4 L217.6 74.4 L218.3 74.2 L218.7 74.2 L219.1 74.3 L219.4 74.5 L219.6 74.8 L219.7 75.1 L219.7 75.4 L219.5 76.3 L219.5 76.5 L219.6 76.9 L219.7 77.0 L220.6 77.2 L220.8 77.5 L221.9 78.5 L222.8 78.9 L222.9 78.9 L223.2 78.8 L224.4 78.5 L224.9 78.4 L225.2 78.5 L225.5 78.8 L226.0 79.4 L227.9 80.5 L228.6 80.9 L228.9 81.2 L229.8 81.3 L230.1 81.5 L230.5 81.9 L230.6 82.2 L231.4 85.1 L231.5 85.5 L232.0 85.7 L233.2 87.1 L233.8 87.6 L236.0 88.7 L238.0 90.2 Z" fill="#172033" fill-rule="evenodd"/></svg>
