<svg xmlns="http://www.w3.org/2000/svg" viewBox="0 0 320 200" role="img"><path d="M232.7 122.9 L231.4 123.8 L230.5 125.3 L229.1 127.0 L228.6 127.8 L227.8 129.7 L228.7 129.6 L229.1 130.1 L229.2 130.9 L229.1 131.7 L229.0 131.8 L228.8 131.9 L228.6 132.0 L228.6 132.2 L228.6 132.3 L229.0 132.5 L229.1 132.6 L229.3 133.5 L229.4 134.0 L229.2 134.3 L228.8 134.5 L229.0 135.1 L229.4 135.5 L229.6 135.6 L229.6 136.1 L229.3 137.2 L229.2 137.5 L228.7 138.2 L228.6 138.6 L228.5 139.0 L228.6 139.3 L228.8 139.5 L229.3 139.9 L228.9 140.2 L228.6 140.5 L228.0 142.2 L227.7 142.8 L225.0 146.5 L223.7 149.1 L222.3 152.8 L221.7 153.7 L219.9 155.5 L219.4 155.7 L218.9 155.8 L218.0 155.8 L217.6 156.0 L217.3 156.2 L216.3 158.8 L215.8 159.1 L215.1 159.2 L213.9 158.8 L213.3 158.9 L212.7 159.6 L212.0 159.8 L211.3 160.0 L210.6 160.0 L209.8 159.9 L209.4 159.7 L209.3 159.4 L209.3 159.0 L209.3 158.6 L209.0 157.7 L209.2 157.0 L209.3 157.0 L209.5 157.0 L209.7 156.9 L209.7 156.7 L209.7 156.5 L209.5 156.1 L209.5 155.9 L209.4 155.1 L209.3 155.0 L208.8 154.7 L207.9 154.4 L207.3 154.4 L206.7 154.7 L206.1 155.0 L204.2 155.6 L202.8 155.1 L199.1 151.5 L199.0 151.2 L199.1 150.6 L199.8 149.9 L200.1 149.4 L199.9 149.0 L199.2 149.1 L197.7 149.7 L196.9 150.2 L195.5 151.4 L194.1 152.1 L193.8 152.2 L193.5 152.2 L193.2 151.9 L193.4 151.1 L193.2 150.8 L191.9 150.9 L188.9 153.2 L188.1 153.1 L187.6 152.6 L187.0 152.4 L186.4 152.4 L185.7 152.7 L185.1 153.3 L184.9 154.0 L184.8 154.7 L184.5 155.3 L183.4 155.7 L182.1 155.7 L180.6 155.5 L179.3 155.5 L177.1 155.7 L176.4 155.6 L175.6 155.6 L174.2 156.2 L171.3 157.0 L170.6 156.8 L170.2 156.5 L169.7 155.7 L169.5 155.4 L169.1 155.2 L166.5 154.5 L165.8 154.2 L163.8 152.5 L163.0 152.1 L162.1 152.0 L161.6 152.1 L161.4 152.3 L161.1 153.0 L160.7 154.6 L160.7 156.2 L160.5 156.9 L159.4 158.5 L159.1 158.8 L158.7 159.0 L158.3 159.0 L157.9 158.8 L157.6 158.6 L157.1 158.8 L156.6 159.3 L156.1 160.4 L155.6 161.5 L155.5 162.2 L156.0 162.5 L157.6 162.6 L158.3 162.8 L159.0 163.4 L159.3 164.9 L159.8 165.7 L160.8 166.4 L161.2 166.7 L162.5 168.4 L163.8 169.5 L164.1 169.9 L164.2 170.4 L164.1 170.7 L164.0 171.1 L163.9 171.5 L163.9 173.2 L164.1 174.7 L163.9 176.0 L162.7 177.3 L160.3 178.0 L157.9 177.5 L155.6 176.6 L153.2 175.9 L151.4 176.1 L150.8 176.0 L150.1 175.7 L148.7 174.8 L148.0 174.5 L147.3 174.4 L146.2 174.7 L145.5 174.8 L145.0 174.7 L143.0 174.0 L142.9 173.5 L142.7 173.2 L142.3 172.9 L141.6 172.7 L141.2 172.5 L141.0 172.2 L140.8 171.9 L139.4 171.2 L135.7 171.1 L134.7 170.7 L131.1 165.6 L130.8 164.5 L130.5 163.7 L130.2 162.0 L129.7 161.3 L129.4 161.1 L128.5 161.0 L128.1 160.8 L128.0 160.4 L128.0 159.1 L127.6 158.3 L126.3 157.1 L126.0 156.4 L126.2 155.9 L126.3 155.5 L126.1 155.1 L125.5 154.6 L125.3 154.2 L125.2 153.7 L125.3 153.4 L125.4 152.9 L125.5 152.5 L125.2 152.2 L124.4 152.8 L123.9 152.9 L123.6 152.6 L123.8 151.3 L123.8 151.1 L122.8 150.0 L122.7 149.6 L122.6 149.0 L122.8 148.5 L122.9 148.1 L122.7 147.6 L121.9 148.0 L121.6 147.8 L121.4 146.3 L121.0 145.6 L120.0 144.6 L119.8 144.1 L120.0 143.8 L120.2 143.3 L120.3 142.9 L120.0 142.7 L118.7 142.9 L118.6 143.0 L118.3 142.3 L119.0 140.9 L118.7 140.7 L118.2 140.8 L117.5 141.1 L117.2 141.2 L116.7 141.0 L116.5 140.7 L116.4 140.3 L116.1 140.2 L116.0 139.8 L115.5 137.9 L115.8 137.5 L116.4 137.0 L116.8 136.5 L116.6 136.0 L115.4 135.8 L114.9 135.6 L115.2 135.1 L115.4 134.7 L115.4 134.4 L115.3 134.1 L115.2 133.7 L115.3 133.5 L115.9 133.5 L116.0 133.4 L115.9 133.1 L115.8 132.6 L115.7 132.4 L115.4 131.5 L114.7 130.9 L114.4 130.3 L115.0 129.2 L114.8 129.1 L114.8 129.1 L114.8 129.0 L114.7 128.9 L114.5 129.2 L114.2 129.4 L113.8 129.5 L113.4 129.4 L113.0 129.1 L113.1 128.9 L113.3 128.6 L113.4 128.1 L113.0 127.3 L112.9 126.9 L113.0 126.4 L113.2 125.6 L113.2 125.2 L113.1 124.7 L112.8 124.4 L112.8 124.1 L113.1 123.7 L113.1 123.4 L113.2 122.1 L113.1 121.6 L112.2 119.7 L111.0 120.6 L110.0 120.8 L109.0 120.5 L107.8 120.0 L107.8 120.7 L107.6 121.0 L106.5 121.3 L106.4 121.4 L106.2 121.6 L105.9 121.8 L105.8 121.6 L105.7 121.4 L105.5 121.3 L105.2 121.3 L104.9 121.3 L104.6 121.1 L104.2 120.8 L103.7 120.7 L103.3 121.4 L103.0 121.5 L102.6 121.4 L101.4 120.7 L101.4 120.7 L100.8 120.4 L99.7 120.2 L99.4 120.0 L99.2 119.9 L99.1 119.7 L98.9 119.2 L98.9 118.9 L98.9 118.5 L99.1 117.9 L99.1 117.6 L99.0 117.2 L99.0 116.9 L99.6 115.8 L99.6 115.2 L99.0 114.5 L98.2 114.0 L98.1 113.9 L98.0 113.8 L97.6 113.8 L97.4 113.7 L97.3 113.5 L97.2 113.4 L97.2 113.2 L96.9 112.7 L96.7 112.0 L96.6 111.8 L95.1 110.9 L93.3 110.1 L92.7 109.7 L92.3 109.0 L92.0 108.2 L91.9 106.5 L91.8 105.8 L91.0 104.1 L89.1 101.3 L88.5 100.6 L86.0 98.7 L85.1 97.6 L84.8 96.2 L84.3 93.1 L83.8 91.5 L83.9 90.7 L84.4 89.9 L87.6 86.6 L88.1 85.9 L88.3 85.2 L88.4 84.3 L88.3 83.6 L88.1 83.1 L88.0 82.5 L88.1 81.8 L88.5 81.2 L88.9 80.8 L89.3 80.3 L89.5 79.0 L90.2 77.4 L90.8 76.3 L91.4 74.4 L92.1 73.5 L92.4 72.8 L92.5 72.1 L92.1 71.4 L91.1 70.2 L90.6 68.6 L90.0 68.2 L89.4 67.9 L89.1 67.4 L89.4 66.1 L90.0 65.3 L90.7 64.5 L91.2 63.9 L91.9 62.7 L92.2 62.4 L92.7 62.3 L93.0 62.4 L93.4 62.6 L93.9 62.6 L94.8 62.5 L95.2 62.2 L95.8 61.1 L96.8 60.2 L98.0 59.5 L99.4 59.5 L100.9 60.1 L102.5 59.5 L103.4 59.4 L104.3 59.3 L104.5 59.4 L105.1 60.0 L105.4 60.1 L105.8 60.1 L106.5 59.9 L109.4 59.6 L110.4 59.3 L110.8 59.1 L111.0 59.0 L111.4 58.9 L111.9 58.8 L112.2 58.9 L112.5 59.0 L112.8 59.0 L113.2 58.8 L111.8 57.6 L111.7 57.2 L111.7 56.7 L111.8 56.2 L112.4 55.0 L112.6 53.9 L112.9 53.4 L113.3 53.2 L114.0 53.2 L114.4 53.3 L114.8 53.7 L115.0 54.5 L115.5 54.2 L116.1 53.9 L116.6 53.5 L116.8 52.9 L116.5 52.2 L115.2 50.7 L115.0 50.0 L115.0 50.0 L114.8 49.7 L114.4 49.6 L114.0 49.6 L113.7 49.8 L113.6 50.2 L113.8 50.5 L114.2 51.0 L114.1 51.2 L113.8 51.4 L113.5 51.4 L113.2 51.4 L113.0 51.2 L112.9 50.9 L112.9 48.2 L112.8 48.1 L112.5 48.2 L112.2 48.1 L111.6 48.3 L111.3 48.3 L111.1 47.9 L111.3 47.5 L111.6 47.1 L113.4 45.3 L113.8 44.7 L113.9 43.8 L114.0 43.0 L114.1 42.4 L114.4 41.7 L114.9 41.1 L115.3 40.8 L116.5 40.4 L117.0 40.0 L117.3 39.5 L117.6 39.0 L118.5 34.9 L118.6 31.4 L118.9 30.2 L119.0 29.2 L119.4 27.7 L119.9 26.7 L120.8 25.0 L121.0 24.6 L121.2 24.3 L121.5 24.1 L122.4 23.9 L122.6 23.8 L122.8 23.6 L123.0 23.5 L123.2 23.4 L123.7 22.9 L123.9 22.7 L124.2 22.6 L124.6 22.5 L125.0 22.1 L125.3 22.0 L126.3 22.3 L128.6 22.8 L130.0 23.0 L131.9 23.0 L134.8 23.1 L136.4 23.2 L137.0 23.4 L138.2 24.2 L138.9 24.5 L139.6 24.6 L141.3 24.8 L145.4 25.7 L147.8 26.4 L149.7 26.4 L151.4 26.9 L152.7 27.3 L153.9 27.6 L156.4 28.1 L157.9 28.6 L158.8 28.9 L159.6 29.0 L161.0 29.5 L163.4 29.7 L164.1 30.5 L164.6 30.8 L164.8 31.3 L164.8 34.5 L164.8 34.5 L165.1 34.5 L165.3 33.9 L165.4 33.3 L165.3 32.1 L165.2 31.4 L164.6 30.0 L164.2 29.1 L164.7 28.3 L164.4 28.0 L163.9 28.0 L163.5 28.0 L163.0 27.6 L162.8 26.9 L163.0 26.3 L163.6 25.5 L163.9 25.1 L164.4 24.6 L164.7 24.2 L165.3 23.8 L165.9 23.6 L166.8 23.3 L167.7 23.3 L171.1 23.1 L173.0 23.0 L174.6 23.0 L183.6 23.4 L185.8 23.8 L186.9 24.5 L187.4 24.8 L188.2 25.0 L188.5 25.2 L188.9 25.5 L189.3 25.8 L189.7 26.0 L189.8 26.1 L190.1 26.2 L190.4 26.2 L190.8 26.2 L191.3 26.3 L191.7 26.1 L192.2 25.9 L192.8 25.9 L193.5 26.3 L194.2 26.9 L194.5 27.4 L194.0 28.5 L193.5 29.1 L193.5 29.1 L194.6 28.8 L194.9 27.9 L195.0 27.1 L195.2 26.8 L196.0 26.8 L197.2 27.7 L198.0 27.8 L198.5 27.7 L198.8 27.5 L199.0 27.5 L199.9 28.0 L200.2 28.0 L200.5 28.0 L200.9 27.8 L201.2 27.6 L201.4 27.4 L201.6 27.2 L202.1 27.1 L202.4 27.2 L202.8 27.3 L203.5 27.8 L203.3 27.5 L203.0 27.2 L202.7 27.0 L202.4 26.8 L202.0 26.7 L201.6 26.8 L201.3 27.0 L200.8 27.3 L200.0 27.4 L199.4 27.0 L198.9 26.9 L198.3 27.2 L197.7 27.2 L197.2 26.7 L196.6 26.5 L194.4 25.8 L193.7 25.5 L193.0 25.0 L192.7 24.6 L192.6 24.2 L192.4 24.0 L192.6 23.6 L193.0 23.4 L194.0 23.0 L195.2 22.8 L196.7 22.7 L197.8 22.7 L206.8 23.0 L207.5 23.1 L209.1 23.3 L210.5 23.6 L218.1 24.6 L222.7 25.7 L226.2 26.4 L229.4 27.4 L232.0 28.1 L232.9 28.2 L233.4 28.4 L234.3 28.3 L234.5 28.6 L234.9 28.8 L235.1 29.1 L235.1 29.5 L236.0 31.3 L236.2 31.9 L235.8 32.3 L234.9 34.0 L234.5 34.8 L234.3 36.3 L233.8 39.2 L233.4 40.6 L232.9 41.5 L232.3 42.3 L231.6 42.9 L231.3 43.2 L231.1 43.6 L230.9 44.3 L229.3 46.8 L228.6 47.6 L225.6 49.7 L224.1 51.3 L223.7 51.8 L223.3 52.4 L222.9 53.9 L222.6 54.2 L222.0 54.6 L221.9 54.8 L221.8 55.2 L221.7 55.5 L219.6 57.8 L218.9 58.9 L218.7 59.5 L218.6 60.1 L218.9 61.6 L218.9 62.1 L218.7 62.3 L217.7 63.0 L217.5 63.4 L217.6 63.8 L217.8 64.3 L217.8 68.9 L217.9 69.4 L218.2 69.6 L218.6 69.7 L219.0 69.9 L219.4 70.6 L219.4 71.3 L219.3 72.0 L219.3 72.9 L219.8 74.1 L219.9 74.5 L219.9 76.1 L219.7 76.7 L219.0 78.1 L218.9 79.0 L219.5 83.1 L220.6 85.4 L221.0 87.0 L221.0 88.0 L220.8 88.6 L220.4 89.3 L220.5 90.0 L220.9 90.5 L221.4 90.8 L222.7 91.1 L223.0 91.4 L223.2 92.2 L223.1 92.8 L222.6 94.0 L222.4 94.6 L222.5 95.6 L222.8 96.2 L224.1 97.3 L224.3 97.7 L224.7 99.0 L225.0 99.3 L225.5 99.7 L225.8 100.0 L226.7 101.7 L227.4 102.1 L227.5 102.4 L227.7 102.4 L228.0 102.8 L228.3 103.6 L228.7 104.0 L228.9 104.2 L229.3 104.4 L230.6 104.7 L231.0 105.0 L231.8 106.1 L232.2 106.6 L232.9 109.2 L233.8 110.5 L233.8 110.8 L234.2 110.7 L234.6 110.6 L235.0 110.5 L235.4 110.6 L235.9 111.2 L236.1 111.6 L236.0 112.2 L235.7 113.0 L235.5 114.6 L235.6 117.4 L235.0 118.9 L233.6 120.3 L233.4 120.8 L233.3 121.5 L233.1 122.2 L232.7 122.9 L232.7 122.9 Z" fill="#172033" fill-rule="evenodd"/></svg>
