<svg xmlns="http://www.w3.org/2000/svg" viewBox="0 0 320 200" role="img"><path d="M23.9 108.1 L22.1 100.7 L22.0 98.9 L22.3 97.0 L22.9 95.2 L23.8 93.5 L25.2 92.2 L28.3 90.5 L29.7 89.4 L30.8 87.8 L31.5 86.2 L32.5 84.6 L34.2 83.1 L45.2 75.6 L47.6 73.2 L48.9 72.5 L53.9 70.6 L55.6 70.5 L57.7 71.0 L60.7 73.2 L62.4 73.9 L64.0 73.0 L64.1 72.4 L64.0 72.2 L63.2 70.5 L63.1 69.7 L63.5 68.7 L68.3 60.3 L70.6 57.9 L73.5 55.7 L76.5 54.4 L88.8 51.5 L89.6 50.8 L89.5 49.0 L89.2 48.6 L87.7 47.8 L87.2 47.4 L87.0 46.6 L86.8 44.9 L86.7 44.3 L86.0 43.1 L85.7 42.7 L85.0 42.1 L84.2 41.7 L81.8 41.4 L81.1 39.8 L81.8 38.8 L82.9 38.0 L83.7 36.9 L83.3 35.6 L82.5 34.4 L82.0 33.2 L82.7 31.3 L84.4 30.2 L86.1 30.3 L87.3 31.5 L87.6 33.7 L89.2 32.6 L92.0 29.3 L92.8 28.9 L94.1 28.4 L95.9 28.6 L97.2 29.3 L98.5 29.8 L100.3 29.4 L102.9 26.8 L104.0 26.4 L104.2 28.6 L104.8 27.7 L104.9 27.4 L108.2 29.8 L108.2 29.8 L110.0 30.1 L114.4 30.7 L118.0 32.4 L123.8 33.6 L126.7 35.6 L132.0 37.1 L133.1 36.2 L134.7 33.1 L135.6 32.2 L136.6 31.9 L137.3 32.0 L137.9 32.5 L138.5 33.4 L139.1 34.4 L139.3 35.6 L139.2 36.7 L138.8 37.9 L140.1 39.0 L144.0 39.4 L145.8 40.3 L146.6 41.7 L147.0 45.2 L147.5 46.2 L150.4 48.4 L151.5 49.6 L152.5 51.3 L152.9 52.7 L153.0 53.3 L153.1 54.2 L153.5 55.4 L154.5 56.1 L155.6 55.9 L157.0 55.1 L158.6 54.5 L160.4 54.5 L163.2 56.3 L165.6 59.2 L167.3 62.6 L168.1 65.8 L170.1 65.6 L175.1 65.9 L176.5 65.4 L177.6 64.7 L178.6 64.6 L179.5 65.9 L179.4 67.8 L178.7 69.7 L178.6 71.3 L180.4 72.5 L182.9 72.8 L183.4 73.0 L184.2 73.7 L184.8 74.4 L185.0 75.4 L185.0 76.0 L185.0 76.2 L185.7 75.9 L188.6 75.5 L191.5 75.7 L200.2 78.4 L205.2 78.7 L206.3 79.2 L207.4 80.2 L207.3 80.5 L207.2 80.8 L207.2 80.9 L207.1 81.0 L207.0 81.0 L206.6 80.9 L206.7 81.2 L207.3 82.4 L207.2 83.7 L206.8 85.1 L206.6 86.8 L206.9 87.9 L208.1 90.9 L208.2 92.8 L207.2 94.4 L210.3 94.2 L212.4 93.0 L214.5 92.1 L219.1 91.1 L220.2 91.2 L222.0 91.9 L222.9 91.9 L223.0 91.6 L223.0 90.9 L223.1 90.2 L223.4 89.8 L224.2 89.8 L225.1 89.9 L226.0 90.2 L226.7 90.5 L227.5 89.1 L228.8 88.6 L230.2 88.5 L231.4 88.1 L232.3 87.3 L232.7 86.6 L233.1 85.8 L233.9 85.0 L235.3 84.4 L236.3 84.6 L237.0 84.4 L237.6 82.9 L237.4 82.5 L236.3 81.6 L236.1 81.2 L236.0 79.0 L236.0 78.6 L237.2 78.2 L238.9 78.3 L239.2 78.4 L241.9 79.0 L243.8 79.0 L249.7 78.3 L252.7 78.5 L254.1 79.6 L255.7 83.8 L257.4 85.8 L259.5 87.6 L261.4 89.8 L262.3 92.6 L267.5 90.1 L269.2 89.6 L269.5 89.7 L270.1 89.8 L271.8 90.9 L272.6 91.1 L273.1 90.9 L274.6 89.8 L275.5 89.5 L276.7 89.5 L278.9 90.0 L280.0 89.9 L281.1 89.1 L282.0 88.0 L283.2 87.0 L284.9 87.0 L286.0 87.8 L287.1 90.8 L288.0 92.2 L288.6 92.5 L290.2 93.1 L290.9 93.5 L292.7 95.0 L296.0 97.7 L298.0 98.5 L297.0 100.2 L294.7 105.4 L294.1 107.2 L294.8 109.1 L294.3 110.4 L293.1 111.4 L292.1 112.8 L291.7 114.9 L291.8 119.1 L291.5 121.2 L288.8 127.6 L288.1 130.8 L289.3 133.4 L290.5 133.8 L292.9 133.1 L294.6 133.7 L295.5 134.7 L296.1 136.1 L296.3 137.6 L296.0 139.1 L294.0 141.2 L285.0 145.3 L284.9 145.2 L284.0 144.7 L283.5 143.8 L282.6 141.3 L279.4 146.8 L278.5 150.0 L280.6 151.4 L282.0 151.9 L285.8 155.5 L287.9 156.9 L288.1 157.6 L288.1 158.9 L287.2 161.4 L284.9 163.1 L276.4 167.3 L274.1 169.1 L273.7 170.9 L276.3 172.7 L272.3 173.6 L256.5 172.6 L252.8 171.9 L252.0 171.9 L250.1 172.6 L240.2 173.4 L229.6 171.9 L226.9 172.7 L225.4 172.2 L223.7 171.9 L223.7 171.2 L226.3 171.0 L226.5 169.2 L225.1 167.1 L223.0 165.6 L223.5 166.5 L224.9 168.4 L225.4 169.5 L221.3 169.4 L219.2 169.6 L217.5 170.3 L218.6 170.8 L219.5 170.7 L220.6 170.4 L222.2 170.3 L222.2 171.2 L219.5 172.2 L216.6 172.2 L214.3 170.8 L213.6 168.0 L214.7 168.5 L215.2 168.8 L216.7 167.2 L216.7 166.5 L214.8 165.6 L212.6 162.7 L211.2 161.8 L211.6 163.4 L212.2 164.8 L212.5 166.0 L212.0 167.2 L210.4 166.3 L205.5 165.1 L203.4 164.0 L201.5 160.7 L200.7 160.2 L199.3 160.1 L195.5 159.3 L193.9 159.3 L189.2 160.2 L182.8 160.3 L181.3 160.9 L182.1 161.5 L182.9 162.0 L183.8 162.1 L184.5 161.8 L187.8 162.5 L197.0 161.6 L198.0 161.7 L199.5 162.5 L200.3 163.2 L201.7 164.9 L202.6 165.6 L202.6 166.5 L200.5 166.1 L198.9 165.8 L195.5 164.8 L195.5 165.6 L204.9 167.5 L209.8 169.1 L212.0 171.2 L211.2 172.5 L209.2 172.2 L206.9 171.0 L205.4 169.9 L203.7 169.1 L174.1 163.7 L170.6 162.1 L142.2 149.2 L128.6 141.1 L120.8 137.7 L112.4 135.8 L108.5 135.8 L105.5 135.1 L89.3 135.2 L82.3 133.5 L79.1 132.9 L71.8 130.6 L68.0 131.4 L57.1 131.5 L55.4 130.3 L54.2 126.1 L53.8 123.5 L52.3 122.3 L50.0 120.9 L40.7 115.8 L32.7 112.2 L23.9 108.1 Z" fill="#172033" fill-rule="evenodd"/></svg>
