<svg xmlns="http://www.w3.org/2000/svg" viewBox="0 0 320 200" role="img"><path d="M57.5 164.6 L58.3 163.5 L59.9 162.0 L60.1 161.2 L60.0 160.8 L60.4 159.9 L60.9 159.1 L61.1 159.0 L61.6 158.3 L60.8 157.3 L60.7 156.9 L60.3 154.0 L60.4 153.5 L59.2 153.1 L59.2 152.7 L59.5 152.2 L59.9 151.6 L59.8 150.7 L59.1 150.3 L58.9 148.9 L58.1 148.4 L57.9 148.1 L58.9 146.9 L57.7 146.2 L58.4 145.9 L58.6 145.7 L59.1 145.4 L59.2 145.0 L59.3 144.8 L59.4 144.3 L59.5 144.1 L59.5 144.0 L60.2 143.6 L61.0 143.2 L61.6 142.9 L62.6 142.2 L63.0 141.2 L62.6 140.6 L63.0 140.2 L63.7 140.0 L64.4 140.0 L65.0 139.8 L65.7 139.4 L66.2 138.9 L66.3 138.4 L66.0 138.0 L65.5 137.7 L64.9 137.5 L64.4 137.4 L63.7 137.0 L63.0 136.9 L62.6 136.7 L62.7 136.0 L62.9 135.9 L63.3 135.8 L63.4 135.7 L63.5 135.4 L63.4 134.8 L63.5 134.5 L63.7 134.3 L64.3 133.8 L64.4 133.5 L64.9 132.9 L65.9 132.2 L66.3 131.5 L66.6 131.2 L67.1 131.0 L67.7 130.9 L68.2 130.7 L69.4 130.1 L69.6 130.2 L70.0 130.7 L70.2 130.8 L70.9 130.8 L71.4 130.5 L71.8 130.2 L72.3 130.1 L72.8 130.2 L74.4 130.8 L75.6 131.1 L76.2 131.0 L76.6 130.6 L76.5 129.9 L76.0 129.6 L74.7 129.5 L73.8 128.9 L73.6 128.7 L73.4 128.4 L73.4 128.3 L74.0 127.2 L74.5 126.6 L75.0 126.1 L76.2 125.2 L77.2 124.1 L77.9 123.8 L78.2 123.8 L78.9 124.1 L79.3 124.0 L79.8 123.8 L80.0 123.5 L80.1 123.2 L80.3 122.7 L80.9 122.1 L82.3 121.1 L83.0 120.1 L83.9 119.3 L83.8 119.3 L83.7 119.0 L82.9 118.3 L82.7 117.9 L82.6 117.3 L82.8 116.9 L83.1 116.6 L83.2 116.2 L83.0 115.9 L82.8 115.9 L82.6 115.9 L82.4 115.8 L82.0 115.5 L81.4 114.7 L81.2 114.5 L81.1 114.2 L81.1 114.0 L81.2 113.8 L81.4 113.7 L81.4 113.5 L81.5 112.9 L81.6 112.6 L81.4 112.3 L80.9 112.0 L80.7 112.1 L80.5 112.0 L80.0 111.5 L79.5 111.3 L79.1 111.0 L78.7 110.6 L78.5 110.1 L78.5 110.1 L78.1 110.0 L77.3 109.9 L76.4 110.0 L75.8 110.1 L75.7 110.1 L75.6 110.1 L75.5 110.1 L75.4 110.1 L75.3 110.0 L75.0 109.5 L75.5 109.0 L76.4 108.6 L77.0 108.3 L77.1 107.8 L77.1 107.3 L77.2 106.9 L77.6 106.7 L78.1 106.8 L78.4 107.0 L78.6 106.9 L78.8 105.9 L78.0 106.1 L77.2 106.1 L76.5 105.9 L75.9 105.4 L75.1 104.3 L74.7 104.1 L74.0 104.5 L73.9 104.7 L73.9 105.3 L73.8 105.6 L73.5 105.9 L73.2 106.0 L71.3 106.1 L71.1 106.0 L70.8 105.8 L70.6 105.7 L70.4 105.8 L70.0 105.9 L69.9 106.0 L68.5 105.9 L67.8 105.9 L66.9 105.9 L66.2 105.9 L65.6 105.8 L65.0 105.4 L64.8 105.3 L64.5 105.3 L64.1 105.3 L64.0 104.7 L63.4 103.7 L63.2 102.9 L62.9 102.4 L62.8 102.2 L62.8 100.9 L62.8 100.7 L62.2 99.9 L62.1 99.6 L61.9 98.9 L60.9 96.7 L61.1 96.6 L61.1 96.5 L61.3 96.3 L61.4 96.1 L61.3 95.9 L61.1 95.7 L61.1 95.4 L61.3 95.3 L61.3 95.3 L61.2 95.2 L61.1 95.0 L61.4 94.6 L61.6 94.4 L61.8 94.2 L62.0 93.7 L61.9 93.2 L61.7 92.8 L61.6 92.5 L61.6 91.0 L61.8 90.6 L63.2 88.7 L63.9 88.2 L63.6 87.4 L62.4 85.4 L62.8 84.4 L62.7 83.8 L62.5 81.8 L62.5 81.4 L62.2 81.1 L60.7 79.5 L60.1 79.2 L59.8 79.0 L59.6 78.7 L59.4 78.5 L58.9 78.6 L58.4 78.7 L58.2 78.8 L57.9 78.7 L58.0 78.3 L58.1 77.9 L58.1 77.5 L58.0 77.4 L56.9 76.9 L56.9 76.7 L57.0 76.4 L57.1 76.2 L56.9 76.2 L56.4 76.4 L56.4 76.2 L57.1 76.1 L57.7 75.7 L58.2 75.3 L58.3 74.7 L58.3 74.4 L58.0 74.0 L57.9 73.6 L58.1 73.4 L58.8 73.2 L60.0 71.3 L60.1 71.1 L60.1 70.4 L59.9 69.8 L59.6 69.0 L59.2 68.4 L58.8 67.9 L60.3 68.0 L61.0 67.9 L61.4 67.4 L61.5 66.8 L62.3 65.8 L62.6 65.9 L63.2 65.8 L63.8 65.6 L64.4 65.5 L64.8 65.9 L64.8 66.3 L64.7 66.7 L64.8 67.1 L65.2 67.3 L65.7 67.4 L66.6 67.4 L67.6 67.8 L69.4 68.8 L69.9 68.8 L70.0 68.8 L70.3 67.8 L70.5 65.6 L71.2 64.7 L72.2 64.4 L72.9 64.6 L73.4 64.5 L73.7 63.4 L73.7 63.4 L74.3 63.2 L75.5 63.6 L76.2 63.4 L76.1 62.5 L76.2 58.0 L76.3 57.6 L76.5 57.3 L76.7 57.1 L76.8 56.9 L76.3 56.4 L76.7 56.2 L77.1 56.5 L77.4 56.8 L77.9 56.9 L78.7 57.0 L78.9 57.0 L79.1 57.0 L79.3 56.9 L79.5 56.7 L79.5 56.5 L79.7 56.3 L80.0 56.2 L80.6 56.1 L82.9 56.4 L83.5 56.5 L85.7 56.1 L85.9 55.9 L85.9 55.2 L85.8 54.7 L85.6 54.2 L85.2 53.7 L85.2 53.7 L84.9 53.4 L84.4 53.2 L83.4 53.1 L83.0 52.9 L83.2 52.9 L83.4 52.6 L83.6 52.1 L83.6 51.8 L83.5 51.6 L83.4 51.4 L83.3 51.2 L83.1 51.1 L82.6 50.9 L82.4 50.8 L82.3 50.5 L81.7 48.8 L81.6 48.3 L81.7 47.9 L82.7 46.7 L82.8 45.3 L82.8 43.9 L83.2 42.6 L83.6 41.9 L83.7 41.3 L83.7 40.7 L83.8 40.0 L84.2 39.4 L84.7 38.8 L85.1 38.2 L85.0 37.5 L85.3 37.4 L85.6 37.5 L85.6 37.5 L91.3 39.1 L93.3 39.2 L93.9 39.3 L94.5 39.5 L95.1 39.8 L95.6 40.1 L96.5 40.8 L96.8 41.2 L96.8 41.9 L96.5 42.9 L96.6 43.2 L97.2 43.7 L97.8 43.9 L98.1 43.9 L98.4 43.6 L98.8 43.2 L99.4 43.0 L99.9 43.0 L100.5 43.1 L101.0 43.2 L103.0 42.8 L103.7 42.7 L108.8 43.5 L110.1 43.5 L114.7 41.1 L116.5 40.5 L121.7 39.6 L126.7 37.7 L127.6 37.5 L128.1 37.2 L131.1 35.7 L133.2 35.1 L134.3 35.0 L136.3 35.2 L142.2 36.6 L143.8 37.3 L147.1 40.1 L148.0 40.8 L149.9 41.6 L152.1 41.9 L157.1 41.7 L157.8 41.5 L159.4 41.4 L164.2 42.7 L165.9 42.7 L172.2 41.7 L182.3 40.1 L188.9 38.1 L192.0 36.6 L193.1 36.3 L194.3 36.1 L195.5 35.7 L197.7 34.5 L201.8 32.3 L202.4 32.0 L203.1 31.8 L203.8 31.7 L204.5 31.6 L205.9 31.3 L210.1 29.5 L211.6 29.0 L217.5 28.3 L224.9 29.5 L226.3 29.9 L227.0 30.1 L235.6 29.8 L248.6 27.3 L252.1 26.6 L253.5 26.0 L255.8 24.2 L257.4 22.6 L257.8 22.4 L258.4 22.0 L258.7 22.3 L258.8 22.7 L258.7 23.0 L258.8 23.1 L259.2 23.2 L260.1 23.6 L260.3 23.5 L260.5 23.3 L260.7 23.2 L260.9 23.2 L261.0 23.4 L261.2 23.7 L261.3 23.9 L262.4 24.6 L262.6 24.6 L262.8 25.0 L262.3 26.8 L262.6 27.2 L262.8 27.4 L262.9 27.8 L262.9 28.7 L263.1 29.1 L263.4 29.4 L263.5 29.7 L263.6 30.2 L263.5 30.2 L262.6 30.8 L260.6 32.3 L260.6 32.3 L260.6 32.3 L257.4 35.1 L251.1 40.4 L247.0 44.0 L246.1 44.6 L245.3 44.9 L235.6 46.6 L233.6 46.8 L232.7 47.2 L232.1 47.9 L232.1 47.9 L232.1 47.9 L232.1 47.9 L229.3 52.2 L229.1 53.0 L228.1 60.8 L228.1 61.4 L228.2 61.9 L229.0 63.4 L229.0 63.4 L229.0 63.4 L231.4 67.7 L231.7 68.7 L231.9 69.7 L232.0 74.0 L231.8 74.9 L231.3 75.9 L230.3 77.2 L228.8 79.0 L228.8 79.0 L228.8 79.0 L228.8 79.0 L228.5 79.9 L228.3 83.0 L227.0 86.8 L226.6 88.7 L226.7 89.4 L226.9 94.6 L227.1 100.0 L227.0 100.8 L226.8 101.6 L221.4 110.1 L221.4 110.1 L220.3 112.2 L219.6 113.0 L218.7 113.5 L211.1 115.2 L206.5 117.5 L203.0 119.2 L199.6 120.9 L196.2 122.6 L194.9 123.2 L192.7 124.4 L189.3 126.1 L185.8 127.8 L182.4 129.5 L179.0 131.3 L175.5 133.0 L172.1 134.7 L168.6 136.4 L165.2 138.1 L161.7 139.9 L158.3 141.6 L154.9 143.3 L151.4 145.0 L143.8 149.0 L137.1 152.5 L134.5 153.9 L129.1 156.8 L125.1 158.9 L119.8 161.8 L114.4 164.7 L111.6 166.3 L109.1 167.6 L103.8 170.5 L100.3 172.3 L100.3 172.4 L95.6 175.0 L90.6 177.9 L90.2 178.0 L89.7 178.0 L87.7 177.5 L87.1 177.5 L86.5 177.8 L85.4 177.1 L81.1 176.6 L80.0 176.5 L79.5 176.2 L77.7 176.1 L77.1 175.9 L76.7 175.7 L73.9 173.5 L71.9 172.3 L70.9 171.5 L70.6 171.3 L70.4 171.4 L70.1 171.6 L69.9 171.7 L69.7 171.7 L69.4 171.6 L69.2 171.6 L68.1 171.7 L67.6 171.7 L67.2 171.7 L67.1 171.6 L67.1 171.5 L66.9 171.1 L65.5 169.3 L65.2 168.8 L65.2 168.2 L65.3 167.7 L65.2 167.4 L64.4 167.3 L64.0 167.4 L63.7 167.3 L63.4 167.1 L63.1 166.8 L63.2 166.8 L63.3 166.7 L63.4 166.5 L63.3 166.2 L63.2 166.2 L62.8 166.2 L62.6 166.1 L62.1 165.7 L61.8 165.5 L58.5 164.9 L58.2 164.6 L58.2 164.6 L58.0 164.5 L57.9 164.5 L57.7 164.5 L57.5 164.6 Z" fill="#172033" fill-rule="evenodd"/></svg>
