<svg xmlns="http://www.w3.org/2000/svg" viewBox="0 0 320 200" role="img"><path d="M209.3 43.9 L211.8 46.1 L214.7 47.5 L221.2 49.0 L220.0 52.1 L220.5 55.7 L221.6 59.3 L222.3 62.7 L222.0 65.4 L218.7 73.2 L218.2 76.1 L219.4 86.2 L220.2 89.0 L224.8 97.4 L225.9 105.5 L225.5 131.0 L223.9 130.3 L221.5 128.2 L219.9 127.9 L213.3 127.9 L213.5 130.8 L211.8 139.5 L210.3 147.6 L208.6 156.7 L208.8 162.8 L208.8 164.7 L209.1 172.0 L209.6 173.4 L210.3 174.5 L210.8 175.6 L211.1 176.7 L211.1 178.0 L202.3 177.9 L192.8 177.8 L178.4 177.6 L167.5 177.5 L160.9 176.3 L150.8 173.1 L143.2 170.8 L139.7 169.7 L131.1 167.1 L129.6 166.2 L128.1 164.8 L123.3 158.5 L113.2 150.2 L111.0 146.8 L110.6 144.4 L111.6 140.5 L111.7 138.0 L111.1 136.1 L110.1 134.6 L107.3 131.9 L105.9 130.1 L104.2 125.6 L103.7 124.3 L102.6 125.5 L101.1 126.7 L99.4 127.5 L97.8 127.8 L96.1 127.9 L95.4 125.6 L94.4 118.8 L94.3 105.2 L94.1 94.7 L96.3 87.3 L105.4 76.9 L112.6 68.7 L119.3 57.9 L124.6 46.4 L126.1 41.2 L127.4 39.2 L136.1 32.1 L146.1 24.1 L148.9 22.9 L152.3 22.0 L155.2 22.0 L157.7 22.8 L168.2 28.9 L178.6 35.0 L187.7 40.3 L189.3 41.2 L197.9 46.3 L200.8 47.1 L203.6 46.5 L209.3 43.9 Z" fill="#172033" fill-rule="evenodd"/></svg>
