<svg xmlns="http://www.w3.org/2000/svg" viewBox="0 0 320 200" role="img"><path d="M114.6 123.1 L112.4 120.1 L110.1 117.0 L110.1 116.7 L110.0 116.4 L109.9 116.1 L109.9 115.8 L109.8 115.5 L109.7 115.2 L109.7 114.9 L109.6 114.5 L109.5 114.2 L109.4 113.9 L109.4 113.6 L109.3 113.3 L109.2 113.0 L109.2 112.7 L109.1 112.4 L109.0 112.1 L108.9 111.6 L108.8 111.1 L108.6 110.4 L108.6 109.9 L108.9 109.4 L109.2 109.3 L109.5 109.2 L109.9 109.1 L110.2 109.1 L110.3 109.1 L110.6 108.8 L110.7 108.6 L110.7 108.4 L110.7 108.1 L110.6 108.0 L110.5 107.9 L110.5 107.9 L110.5 107.8 L110.7 107.7 L111.1 107.3 L111.2 107.3 L111.3 107.2 L111.5 107.2 L111.7 107.1 L111.8 106.9 L111.8 106.7 L111.6 106.3 L111.6 106.1 L111.6 105.9 L111.6 105.7 L111.8 105.4 L112.1 104.7 L112.4 104.2 L112.6 103.8 L112.9 103.4 L113.2 103.0 L113.5 102.6 L113.8 102.2 L114.1 101.8 L114.4 101.4 L114.7 101.0 L115.0 100.6 L115.3 100.2 L115.6 99.8 L115.8 99.4 L116.1 99.0 L116.4 98.7 L116.7 98.3 L117.0 97.9 L117.3 97.5 L117.6 97.1 L118.1 96.5 L118.7 95.9 L119.1 95.5 L119.6 95.0 L120.2 94.4 L120.7 93.8 L121.3 93.3 L121.8 92.7 L122.3 92.1 L122.9 91.6 L123.4 91.0 L124.0 90.4 L124.5 89.8 L125.1 89.3 L125.6 88.7 L126.2 88.1 L126.7 87.6 L127.3 87.0 L127.8 86.4 L128.2 86.1 L128.3 85.9 L128.3 85.8 L128.3 85.7 L128.4 85.4 L128.4 85.0 L128.4 84.6 L128.5 84.1 L128.5 83.7 L128.6 83.2 L128.6 82.8 L128.6 82.3 L128.7 81.9 L128.7 81.4 L128.8 81.0 L128.8 80.5 L128.8 80.1 L128.9 79.7 L128.9 79.2 L129.0 78.8 L129.0 78.3 L129.0 77.9 L129.1 77.4 L129.1 77.0 L129.2 76.5 L129.2 76.1 L129.2 75.7 L129.3 75.2 L129.3 75.1 L129.3 74.8 L129.3 74.3 L129.4 73.9 L129.4 73.4 L129.5 73.0 L129.5 72.5 L129.5 72.1 L129.6 71.6 L129.6 71.2 L129.7 70.8 L129.7 70.3 L129.7 69.9 L129.8 69.4 L129.8 69.0 L129.9 68.5 L129.9 68.1 L129.9 67.6 L130.0 67.2 L130.0 66.7 L130.1 66.3 L130.1 65.9 L130.1 65.4 L130.2 65.0 L130.2 64.5 L130.3 64.1 L130.3 63.6 L130.3 63.2 L130.4 62.7 L130.4 62.3 L130.4 61.9 L130.5 61.4 L130.5 61.0 L130.6 60.5 L130.6 60.1 L130.6 59.6 L130.7 59.2 L130.7 58.7 L130.8 58.3 L130.8 57.8 L130.8 57.4 L130.9 57.0 L130.9 56.5 L131.2 55.8 L131.4 55.5 L131.8 54.9 L132.1 54.2 L132.5 53.5 L132.9 52.8 L133.1 52.5 L133.2 52.3 L133.2 52.2 L133.0 52.0 L132.8 51.7 L132.2 51.1 L131.7 50.5 L131.1 49.9 L130.5 49.3 L130.3 49.1 L129.5 48.5 L129.3 48.3 L129.2 48.1 L129.0 47.8 L129.0 47.4 L129.0 46.9 L129.3 46.5 L129.7 46.3 L129.5 46.1 L129.4 45.9 L129.2 45.6 L129.0 45.4 L128.9 45.1 L128.7 44.9 L128.5 44.7 L128.4 44.4 L128.2 44.2 L128.0 43.9 L127.9 43.7 L127.7 43.5 L127.6 43.2 L127.4 43.0 L127.2 42.8 L127.1 42.5 L126.9 42.3 L126.7 41.9 L126.3 41.6 L126.2 41.4 L125.7 41.2 L125.5 41.1 L125.5 40.9 L125.5 40.6 L125.5 40.5 L125.5 39.9 L125.5 39.2 L125.5 38.4 L125.4 37.6 L125.4 36.9 L125.4 36.4 L125.4 36.2 L125.3 35.8 L125.3 35.4 L125.2 34.9 L125.1 34.3 L124.9 33.7 L124.8 33.1 L124.7 32.5 L124.6 31.9 L124.5 31.3 L124.4 30.7 L124.2 30.0 L124.1 29.4 L124.0 28.8 L123.9 28.2 L123.8 27.6 L123.7 27.0 L123.5 26.4 L123.7 26.3 L124.3 26.0 L124.8 25.8 L125.4 25.5 L126.0 25.3 L126.5 25.0 L127.1 24.8 L127.7 24.5 L128.2 24.3 L128.8 24.0 L129.3 23.8 L129.9 23.5 L130.5 23.2 L131.0 23.0 L131.6 22.7 L132.2 22.5 L132.7 22.2 L133.1 22.0 L133.3 22.0 L134.2 22.4 L135.4 23.0 L136.6 23.6 L137.9 24.2 L139.1 24.8 L140.3 25.4 L141.5 26.0 L142.7 26.6 L143.9 27.2 L145.1 27.8 L146.3 28.4 L147.5 29.0 L148.7 29.6 L149.9 30.2 L151.1 30.8 L152.3 31.4 L153.5 32.0 L154.7 32.6 L155.9 33.2 L157.1 33.7 L158.3 34.3 L159.5 34.9 L160.7 35.5 L162.0 36.1 L163.2 36.7 L164.4 37.3 L164.6 37.4 L165.6 37.9 L166.8 38.5 L168.0 39.1 L169.2 39.7 L170.4 40.3 L171.6 40.9 L172.8 41.5 L174.0 42.1 L175.2 42.7 L176.4 43.3 L177.6 43.9 L178.8 44.5 L180.0 45.1 L181.2 45.6 L182.4 46.2 L183.6 46.8 L184.9 47.4 L186.1 48.0 L187.3 48.6 L188.5 49.2 L189.7 49.8 L190.9 50.4 L192.1 51.0 L193.3 51.6 L194.5 52.2 L195.7 52.8 L196.9 53.4 L198.1 54.0 L199.3 54.6 L200.5 55.2 L201.7 55.8 L202.9 56.4 L204.1 57.0 L205.3 57.5 L206.5 58.1 L207.7 58.7 L209.0 59.3 L210.2 59.9 L211.4 60.5 L211.4 62.8 L211.4 65.1 L211.4 67.3 L211.4 69.6 L211.4 71.9 L211.4 74.1 L211.4 76.4 L211.4 78.7 L211.4 80.9 L211.4 83.2 L211.4 85.5 L211.4 87.7 L211.4 90.0 L211.4 92.3 L211.4 94.5 L211.4 96.8 L211.4 97.3 L211.4 97.4 L211.3 97.6 L211.0 97.6 L209.9 97.3 L208.7 97.1 L207.6 97.1 L206.9 97.2 L205.7 97.7 L204.9 97.7 L203.4 97.4 L203.0 97.5 L202.7 97.5 L202.5 97.7 L201.8 98.4 L201.1 98.9 L200.9 99.1 L200.8 99.4 L200.9 99.7 L201.0 99.9 L201.3 100.2 L201.5 100.4 L201.6 100.7 L201.6 101.1 L201.5 102.2 L201.4 102.4 L200.9 103.2 L200.9 103.3 L200.5 103.4 L200.3 103.5 L200.1 103.7 L199.2 104.6 L199.1 104.8 L199.1 105.0 L199.1 105.2 L199.0 105.4 L198.8 105.5 L198.5 105.8 L198.4 105.9 L198.4 106.2 L198.5 106.7 L198.5 106.9 L198.7 107.2 L198.7 107.3 L198.6 107.4 L198.5 107.5 L196.6 108.0 L196.2 108.2 L195.8 108.5 L195.6 108.8 L195.8 109.2 L196.1 109.4 L196.2 109.6 L196.3 110.6 L196.3 110.7 L196.4 110.7 L196.4 110.8 L196.4 110.8 L196.4 110.9 L196.2 111.0 L196.2 111.0 L196.1 111.2 L196.1 111.2 L196.1 111.4 L196.2 111.6 L196.3 111.7 L196.5 111.8 L197.0 111.9 L197.2 112.0 L197.3 112.2 L197.4 112.5 L197.4 112.8 L197.2 113.0 L197.0 113.0 L196.7 113.1 L196.5 113.2 L196.1 113.5 L196.0 113.7 L194.4 114.4 L194.1 114.6 L193.9 114.8 L193.8 114.9 L193.0 115.9 L192.8 116.3 L192.8 116.4 L193.0 116.6 L193.1 116.8 L193.2 116.9 L193.1 117.1 L193.1 117.3 L193.3 117.7 L193.9 118.2 L194.1 118.6 L194.1 119.2 L194.1 119.4 L194.3 119.6 L194.6 120.0 L194.7 120.2 L194.6 120.6 L194.3 121.1 L193.4 122.0 L193.2 122.1 L192.2 122.5 L192.0 122.6 L191.7 122.9 L191.4 123.3 L190.6 124.8 L190.4 125.6 L190.2 125.9 L190.2 125.9 L190.2 126.0 L190.5 126.4 L190.9 127.1 L191.1 127.3 L191.4 127.4 L191.8 127.5 L192.2 127.5 L192.6 127.4 L193.1 127.3 L193.4 127.1 L193.8 126.8 L194.0 126.4 L195.3 127.2 L196.3 127.6 L196.4 127.7 L195.9 128.8 L195.7 129.1 L195.7 129.3 L196.0 129.8 L196.7 131.9 L196.8 132.1 L196.8 132.2 L196.8 132.3 L196.5 133.4 L196.6 133.3 L196.6 133.3 L196.7 133.2 L197.4 133.0 L197.7 133.0 L197.9 133.0 L198.0 132.9 L198.0 133.0 L198.0 133.1 L198.0 133.3 L197.8 133.8 L197.3 136.8 L197.3 137.2 L197.5 137.7 L197.8 138.1 L198.2 138.4 L198.5 138.6 L199.3 138.9 L199.5 139.1 L199.6 139.2 L199.6 139.5 L199.7 139.5 L200.6 139.4 L200.8 139.4 L201.0 139.6 L201.1 140.2 L201.3 141.0 L201.3 141.1 L201.4 141.4 L201.3 141.6 L201.2 141.9 L201.1 142.1 L201.1 142.3 L201.1 142.5 L201.0 142.6 L200.9 142.7 L200.8 142.8 L200.4 144.2 L199.9 144.2 L199.3 144.0 L199.1 143.8 L198.7 143.7 L198.6 143.7 L198.3 143.7 L198.2 143.7 L198.0 143.6 L197.9 143.5 L197.7 143.6 L197.5 143.6 L197.2 143.6 L197.0 143.4 L196.9 143.5 L196.8 143.5 L196.7 143.4 L196.5 143.4 L196.4 143.4 L196.3 143.5 L196.1 143.7 L196.0 143.8 L195.9 143.8 L195.6 143.9 L195.6 143.9 L195.3 143.9 L195.1 144.0 L195.0 144.1 L194.8 144.2 L194.7 144.3 L194.7 144.3 L194.5 144.2 L194.4 144.3 L194.3 144.5 L194.0 144.7 L193.9 145.0 L193.8 145.2 L193.5 145.1 L193.3 145.1 L192.5 145.0 L192.3 145.1 L192.2 145.3 L192.1 145.5 L192.1 145.6 L192.2 145.8 L192.1 145.9 L191.5 146.1 L191.3 146.1 L191.0 146.4 L190.8 146.6 L190.7 146.6 L190.7 146.7 L190.6 146.6 L190.4 146.5 L190.3 146.6 L190.1 146.6 L190.0 146.6 L189.9 146.6 L189.9 146.7 L189.8 146.8 L189.8 146.8 L189.6 146.8 L189.5 146.9 L189.3 147.0 L189.3 147.1 L189.2 147.3 L189.2 147.6 L189.1 147.8 L189.2 148.0 L189.2 148.4 L189.3 148.5 L189.3 148.6 L189.5 148.8 L189.5 148.9 L189.5 149.0 L189.5 149.0 L189.5 149.1 L189.6 149.2 L189.3 149.7 L189.3 149.9 L189.3 150.0 L189.3 150.1 L189.3 150.2 L189.3 150.3 L189.2 150.3 L189.1 150.3 L189.0 150.4 L188.9 150.5 L188.8 150.7 L188.7 150.9 L188.4 151.0 L188.4 151.0 L188.1 151.1 L188.0 151.1 L187.9 151.1 L187.8 151.1 L187.7 151.0 L187.6 151.0 L187.3 151.2 L187.0 151.6 L186.5 152.7 L186.2 153.1 L185.9 153.4 L185.6 153.6 L185.5 153.5 L185.1 153.4 L184.9 153.3 L184.8 153.4 L184.3 154.0 L184.2 154.1 L184.2 154.3 L184.1 154.3 L183.6 154.6 L183.5 154.8 L183.3 155.2 L183.3 155.2 L183.3 155.3 L183.3 155.4 L183.3 155.4 L183.2 155.4 L183.2 155.4 L183.1 155.5 L183.0 155.5 L182.9 155.6 L182.9 155.6 L182.8 155.5 L182.7 155.4 L182.7 155.4 L182.7 155.5 L182.7 155.5 L182.6 155.5 L182.6 155.5 L182.5 155.6 L182.5 155.6 L182.4 155.7 L182.4 155.9 L182.3 156.1 L182.2 156.3 L182.2 156.6 L182.2 156.7 L182.0 156.8 L182.0 156.8 L182.1 156.9 L182.1 156.9 L182.1 157.0 L182.0 157.0 L181.9 157.0 L181.9 157.1 L181.8 157.2 L181.6 157.3 L181.5 157.4 L181.5 157.5 L181.4 157.6 L181.0 158.0 L180.9 158.1 L180.7 158.2 L180.7 158.4 L180.6 158.7 L180.6 158.9 L180.5 158.9 L180.5 158.8 L180.5 158.8 L180.4 158.8 L180.3 158.8 L180.3 158.8 L180.3 158.9 L180.2 158.9 L180.1 159.0 L180.0 159.0 L180.0 159.2 L179.9 159.3 L179.8 159.2 L179.7 159.3 L179.3 159.4 L178.9 159.6 L179.0 160.0 L178.5 160.0 L178.5 160.0 L178.3 159.9 L178.3 159.9 L178.1 159.9 L178.1 159.9 L177.9 159.8 L177.8 159.8 L177.8 159.9 L177.8 160.0 L177.7 160.1 L177.7 160.2 L177.5 160.2 L177.4 160.3 L177.4 160.5 L177.5 160.7 L177.5 160.9 L177.2 160.9 L177.1 161.1 L177.0 161.4 L176.8 161.6 L176.6 161.5 L176.5 161.5 L176.5 161.6 L176.3 161.7 L176.2 161.8 L176.0 161.8 L175.2 161.8 L175.0 161.8 L174.8 161.6 L174.7 161.5 L174.6 161.5 L174.5 161.6 L174.2 161.8 L174.0 161.8 L173.9 161.7 L173.7 161.6 L173.7 161.5 L173.6 161.5 L173.5 161.5 L173.5 161.6 L173.5 161.6 L173.5 161.7 L173.4 161.7 L173.3 161.6 L173.2 161.6 L173.1 161.6 L172.8 161.9 L172.8 161.9 L172.8 162.0 L172.8 162.0 L172.8 162.1 L172.7 162.0 L172.7 161.9 L172.6 161.9 L172.5 161.9 L172.5 161.9 L172.5 162.0 L172.5 162.0 L172.5 162.1 L172.4 162.1 L172.3 162.1 L172.2 162.1 L172.0 162.3 L171.9 162.3 L171.8 162.3 L171.7 162.3 L171.6 162.4 L171.4 162.5 L170.6 162.4 L170.4 162.5 L170.2 162.5 L170.0 162.5 L170.0 162.5 L169.7 162.6 L169.7 162.7 L169.6 162.7 L169.2 162.7 L169.0 162.8 L168.7 162.6 L168.5 162.7 L168.2 162.8 L167.9 162.8 L167.8 162.8 L167.8 162.8 L167.8 162.8 L167.7 162.8 L167.0 162.8 L166.9 162.8 L166.5 162.9 L166.4 162.9 L166.2 162.9 L166.0 162.9 L165.8 162.8 L165.7 162.7 L165.6 162.8 L165.6 162.8 L165.4 162.7 L165.3 162.7 L165.2 162.7 L165.0 162.7 L164.6 162.7 L164.5 162.8 L164.5 162.9 L164.4 162.9 L164.1 162.8 L164.1 162.9 L164.0 162.9 L163.7 162.8 L163.4 162.9 L163.0 163.1 L162.8 163.2 L162.6 163.4 L162.6 163.4 L162.5 163.5 L162.5 163.5 L162.3 163.6 L162.1 163.7 L162.1 163.7 L162.0 163.7 L162.0 163.8 L162.0 163.9 L161.9 164.0 L161.8 164.0 L161.7 163.9 L161.5 164.3 L161.5 164.4 L161.7 164.5 L161.8 164.4 L161.9 164.5 L161.9 164.7 L162.0 164.8 L162.1 164.9 L163.2 165.4 L163.3 165.6 L163.5 165.7 L163.8 165.9 L164.0 166.1 L163.7 166.3 L163.6 166.5 L163.5 166.5 L163.4 166.6 L163.0 167.4 L162.0 168.5 L161.9 168.7 L161.8 168.9 L161.7 169.1 L161.3 169.4 L160.9 170.0 L160.7 170.2 L160.6 170.3 L160.0 170.5 L159.6 170.7 L159.2 171.0 L159.0 171.3 L159.0 171.8 L158.8 172.2 L158.0 172.4 L153.7 172.5 L152.8 172.7 L152.0 173.0 L151.6 173.1 L151.2 173.1 L149.9 172.8 L149.7 172.8 L149.5 172.8 L149.3 172.9 L149.1 173.2 L148.9 173.3 L148.7 173.3 L148.4 173.4 L148.2 173.4 L148.0 173.5 L147.9 173.7 L147.8 173.8 L147.3 173.7 L147.2 173.8 L147.0 174.0 L145.7 174.4 L145.5 174.5 L145.5 174.5 L145.4 174.7 L145.3 174.8 L145.3 174.9 L145.2 175.0 L145.2 175.0 L145.1 175.0 L144.9 175.2 L144.6 175.6 L144.4 175.7 L144.2 175.8 L144.2 175.8 L144.1 175.8 L144.0 175.7 L143.8 175.6 L143.7 175.8 L143.7 175.9 L143.7 175.9 L143.6 176.0 L143.3 175.9 L143.2 175.9 L143.1 176.0 L143.1 176.1 L142.9 176.1 L142.5 176.2 L142.1 176.3 L141.9 176.4 L141.8 176.5 L141.8 176.7 L141.8 176.7 L141.8 176.8 L141.8 176.8 L141.8 176.9 L141.8 176.9 L141.7 176.9 L141.7 176.9 L141.4 177.1 L141.4 177.1 L141.4 177.1 L141.1 177.2 L141.0 177.1 L140.8 176.7 L140.4 176.3 L140.2 176.1 L140.0 176.0 L139.6 175.9 L139.5 175.8 L139.4 175.6 L139.5 175.5 L139.5 175.4 L139.5 175.3 L139.5 175.1 L139.4 175.1 L139.3 175.0 L139.2 175.0 L139.1 175.0 L139.0 174.8 L138.9 174.7 L138.8 174.5 L138.9 174.2 L138.9 174.1 L138.9 174.0 L138.8 174.0 L138.5 174.1 L138.3 174.2 L138.1 174.3 L138.1 174.4 L138.0 174.6 L137.9 174.7 L137.8 174.8 L137.7 174.7 L137.6 174.7 L137.5 174.7 L137.3 174.8 L137.3 175.0 L137.3 175.7 L137.2 175.8 L137.1 175.9 L136.3 176.0 L136.0 176.1 L135.7 176.3 L135.5 176.5 L135.3 176.5 L135.1 176.5 L134.7 176.6 L134.1 176.7 L133.9 176.7 L133.8 176.8 L133.6 177.0 L133.4 177.3 L133.3 177.4 L132.9 177.6 L132.8 177.7 L131.5 178.0 L131.1 178.0 L130.8 177.9 L130.3 177.4 L129.8 177.4 L129.1 177.5 L128.8 177.4 L128.4 177.3 L128.8 176.8 L129.1 176.3 L129.2 175.7 L129.2 174.7 L129.0 174.7 L128.7 174.6 L128.5 174.6 L128.0 174.3 L127.7 173.5 L127.1 171.4 L125.8 168.6 L125.5 168.0 L125.4 167.8 L124.8 167.3 L124.4 166.6 L124.2 166.4 L124.0 166.3 L123.8 166.2 L123.4 166.1 L123.3 166.1 L123.3 166.0 L123.3 165.9 L123.2 165.8 L123.2 165.6 L123.1 165.5 L123.0 165.4 L123.0 165.4 L122.9 165.3 L122.8 165.2 L122.8 165.1 L122.4 164.9 L122.2 164.8 L122.1 164.8 L122.1 164.8 L122.0 164.8 L121.9 164.8 L121.7 164.7 L119.6 163.0 L117.4 161.3 L117.2 161.0 L117.1 160.6 L114.3 157.4 L113.5 156.7 L113.5 156.6 L114.0 155.7 L114.8 155.0 L115.1 154.6 L115.6 153.7 L115.6 153.6 L115.6 153.5 L115.7 153.4 L115.8 153.4 L115.9 153.4 L118.3 153.2 L121.1 153.9 L121.5 153.9 L122.7 153.6 L123.2 153.6 L123.8 153.7 L124.1 153.7 L124.3 153.7 L124.4 153.6 L124.6 153.4 L124.7 153.4 L124.8 153.4 L125.3 153.3 L125.8 153.3 L127.5 153.9 L128.0 153.8 L130.2 153.3 L130.4 153.3 L130.0 152.9 L129.6 152.8 L129.0 152.4 L128.5 152.0 L128.5 152.0 L128.4 151.9 L128.0 151.4 L126.7 150.1 L126.6 150.0 L126.5 149.8 L126.5 149.5 L126.5 149.3 L126.4 149.2 L126.2 149.1 L126.1 149.0 L126.0 148.6 L125.9 148.4 L125.7 148.3 L125.6 148.3 L125.6 148.2 L125.5 148.2 L125.3 148.2 L125.2 148.2 L125.1 148.1 L125.1 148.1 L125.0 147.9 L125.0 147.7 L125.1 147.4 L125.2 147.2 L125.2 147.1 L125.1 146.9 L124.4 145.4 L124.4 145.1 L124.5 144.7 L124.5 144.4 L124.4 144.2 L124.3 144.1 L124.1 143.5 L124.0 142.6 L123.9 141.6 L124.0 141.0 L124.1 140.9 L124.3 140.6 L124.4 140.4 L124.3 140.3 L124.3 140.2 L124.2 140.2 L124.2 140.1 L124.2 140.0 L124.3 139.9 L124.3 139.4 L124.4 139.2 L124.5 139.0 L124.9 138.5 L125.1 138.2 L124.9 137.9 L124.7 137.6 L124.6 137.4 L124.4 137.0 L124.4 136.8 L124.4 136.6 L124.5 136.4 L124.5 136.4 L124.6 136.4 L124.6 136.4 L124.7 136.3 L124.7 136.3 L124.6 136.2 L124.6 136.1 L124.6 136.0 L124.8 135.9 L124.8 135.8 L124.6 135.2 L124.5 135.1 L124.3 135.1 L124.2 135.0 L124.2 134.9 L124.1 134.6 L124.2 134.5 L124.3 134.5 L124.4 134.4 L124.3 134.3 L124.3 134.2 L124.2 134.1 L124.2 134.0 L124.2 134.0 L124.5 133.9 L124.5 133.8 L124.3 133.7 L124.2 133.5 L124.2 133.4 L124.3 133.4 L124.3 133.3 L124.2 133.2 L124.1 133.1 L124.1 133.0 L124.2 132.9 L124.2 132.8 L124.0 132.7 L123.9 132.6 L123.7 132.6 L123.5 132.7 L123.4 132.8 L123.3 132.7 L123.0 132.4 L122.8 132.2 L122.7 132.2 L122.7 132.0 L122.8 132.0 L122.8 132.0 L122.9 131.9 L122.9 131.8 L122.8 131.8 L122.8 131.7 L122.7 131.6 L122.7 131.5 L122.8 131.4 L122.8 131.2 L122.8 130.6 L122.8 130.5 L122.7 129.7 L122.5 129.5 L122.5 129.5 L122.6 129.3 L122.5 129.3 L122.5 129.3 L122.4 129.2 L122.4 129.3 L122.4 129.3 L122.3 129.2 L122.3 129.2 L122.3 129.2 L122.3 129.1 L122.3 129.0 L122.4 128.9 L122.4 128.8 L122.1 127.6 L122.0 127.4 L121.7 127.5 L121.5 127.5 L121.4 127.3 L121.4 127.2 L121.3 127.1 L121.2 127.1 L121.1 127.0 L121.1 127.1 L120.9 127.3 L120.8 127.1 L121.0 126.8 L120.9 126.7 L120.8 126.6 L120.5 126.7 L120.3 126.6 L120.2 126.5 L120.1 126.4 L120.0 126.4 L120.0 126.3 L120.0 126.3 L119.9 126.2 L119.9 126.2 L119.7 126.4 L119.6 126.4 L119.5 126.3 L119.5 126.3 L119.5 126.2 L119.5 126.2 L119.4 126.2 L119.4 126.1 L119.3 126.0 L119.3 125.7 L119.2 125.5 L118.9 125.3 L118.8 125.1 L118.8 125.0 L118.9 124.6 L118.9 124.4 L118.9 124.2 L118.8 124.1 L118.7 123.9 L118.7 123.9 L118.2 123.2 L118.1 123.1 L114.6 123.1 Z" fill="#172033" fill-rule="evenodd"/></svg>
