<svg xmlns="http://www.w3.org/2000/svg" viewBox="0 0 320 200" role="img"><path d="M129.8 22.0 L131.4 22.3 L133.0 22.6 L136.8 23.4 L143.9 24.8 L146.6 25.4 L150.0 26.1 L150.1 26.1 L150.1 26.2 L150.2 26.3 L150.1 26.4 L150.1 26.6 L150.1 26.7 L149.9 26.8 L150.4 26.9 L150.1 28.3 L153.9 26.9 L155.9 26.5 L158.9 26.5 L162.9 26.4 L162.1 28.3 L162.0 28.9 L162.1 29.3 L162.3 29.9 L162.4 30.2 L161.9 31.1 L161.8 31.5 L161.8 32.2 L161.7 32.5 L161.3 33.1 L159.6 34.7 L159.2 35.7 L159.4 38.5 L159.4 39.7 L158.9 41.4 L158.5 44.6 L158.5 45.3 L158.8 45.8 L161.1 47.3 L164.1 49.3 L165.9 50.5 L168.5 52.2 L172.9 55.1 L176.2 57.3 L176.6 58.3 L176.6 58.6 L176.6 60.9 L176.7 64.2 L176.7 66.6 L177.0 68.1 L176.9 68.5 L176.9 68.8 L176.9 69.4 L176.8 69.7 L176.6 70.1 L176.1 70.9 L176.0 71.4 L176.1 72.0 L176.4 72.7 L176.8 73.2 L177.4 72.9 L177.7 73.8 L177.9 77.0 L178.4 78.2 L179.0 79.1 L179.1 79.3 L181.6 81.9 L183.5 83.9 L184.2 85.0 L184.4 85.8 L184.6 86.6 L184.6 90.5 L184.7 93.9 L184.7 96.8 L184.8 100.9 L184.8 101.8 L184.8 102.2 L185.0 102.5 L185.8 103.5 L185.9 103.8 L185.8 104.4 L184.8 106.1 L184.7 106.3 L184.7 106.9 L184.6 107.6 L184.7 107.8 L184.8 107.8 L185.0 108.1 L185.3 110.8 L185.3 114.3 L185.2 119.2 L185.2 124.2 L185.2 130.3 L185.2 130.8 L185.3 133.5 L185.3 136.6 L185.3 141.2 L185.3 145.7 L185.3 150.2 L184.8 150.4 L182.4 150.4 L183.0 152.6 L183.4 153.1 L183.4 153.1 L183.9 153.5 L184.2 153.8 L184.2 154.2 L184.0 155.5 L184.0 156.1 L184.2 156.6 L184.4 157.2 L184.6 158.0 L184.4 158.5 L184.2 158.8 L183.7 159.4 L183.5 160.1 L183.7 160.4 L184.1 160.8 L184.4 161.4 L184.4 161.6 L184.4 161.9 L184.4 162.2 L184.5 162.5 L184.6 162.8 L184.9 163.0 L185.1 163.2 L185.4 163.3 L185.7 163.4 L186.0 163.4 L186.2 163.4 L186.2 163.8 L186.3 164.0 L186.8 164.4 L187.0 164.7 L187.1 165.0 L187.0 165.7 L187.1 165.9 L187.3 166.1 L187.9 166.4 L188.2 166.6 L189.0 167.9 L189.6 170.2 L190.2 172.5 L189.5 172.6 L185.6 173.5 L184.9 173.8 L185.1 174.5 L185.1 174.5 L179.3 175.5 L174.3 177.0 L172.1 177.9 L171.9 178.0 L171.7 178.0 L171.8 176.9 L171.4 176.4 L168.8 176.1 L168.4 175.9 L168.1 175.5 L167.7 174.9 L167.4 174.6 L167.2 174.5 L167.0 174.4 L166.7 174.2 L166.2 173.5 L165.4 171.1 L163.1 171.0 L162.4 170.9 L162.0 170.6 L161.0 169.4 L160.3 168.9 L158.7 168.1 L158.1 167.5 L157.6 166.7 L157.2 166.0 L157.0 165.2 L157.1 164.6 L157.1 164.4 L157.3 164.0 L157.5 163.7 L157.5 163.4 L157.1 163.0 L156.8 163.0 L156.0 163.0 L155.7 163.0 L155.4 162.5 L155.0 162.1 L154.6 161.8 L154.4 161.1 L154.6 159.6 L154.6 159.1 L154.4 158.6 L153.9 158.1 L153.4 157.8 L152.8 157.7 L152.6 157.5 L151.7 155.8 L151.3 155.5 L151.0 155.3 L151.0 155.0 L151.2 154.4 L151.8 153.3 L151.9 152.8 L151.5 152.1 L150.6 151.4 L150.3 151.0 L150.7 150.8 L151.2 150.8 L152.5 150.4 L152.9 150.2 L153.5 149.2 L153.5 147.8 L153.4 146.4 L153.5 145.2 L154.2 143.3 L154.5 141.9 L154.9 140.8 L155.0 140.1 L154.5 138.1 L154.3 137.8 L153.1 138.2 L152.5 138.3 L151.9 138.3 L151.0 137.4 L150.5 136.0 L150.3 134.5 L150.4 132.7 L150.5 132.3 L150.7 132.0 L151.1 131.7 L151.5 131.5 L152.0 131.4 L152.4 131.2 L152.6 130.7 L152.5 129.9 L152.6 128.9 L153.0 128.3 L153.9 128.5 L153.8 127.8 L153.9 126.2 L153.6 124.5 L153.7 122.6 L153.6 122.5 L153.3 120.4 L153.4 119.2 L153.3 118.7 L153.1 117.5 L152.9 116.0 L152.8 115.3 L152.9 115.1 L153.2 114.9 L153.3 114.5 L153.3 114.0 L153.1 113.8 L152.8 113.5 L152.7 113.2 L152.7 112.8 L152.9 112.7 L153.1 112.7 L153.4 112.5 L154.4 111.6 L154.9 111.3 L156.3 110.7 L156.8 110.4 L157.0 109.9 L156.9 109.1 L156.8 109.0 L156.4 109.0 L156.3 108.9 L156.3 108.7 L156.3 108.4 L156.2 108.0 L156.3 107.6 L156.2 107.3 L155.0 106.3 L154.6 105.1 L154.1 104.0 L152.0 103.0 L151.2 102.5 L150.5 101.8 L149.9 101.2 L148.7 100.3 L147.5 98.6 L146.6 96.7 L146.4 95.5 L146.3 95.1 L146.5 94.9 L146.9 94.8 L147.3 94.9 L147.6 95.6 L147.9 95.3 L148.1 94.7 L148.0 94.6 L148.3 94.5 L148.6 94.6 L148.9 94.7 L149.3 94.7 L149.6 94.6 L149.7 94.1 L149.8 93.7 L149.9 93.3 L149.9 93.3 L150.6 92.3 L150.2 90.8 L148.7 88.3 L148.7 88.3 L148.7 88.3 L148.3 87.3 L148.6 86.4 L149.2 85.4 L149.3 84.4 L149.3 83.9 L149.5 83.6 L150.2 83.0 L150.6 82.4 L150.6 81.9 L150.2 80.8 L150.2 80.1 L150.5 79.8 L150.8 79.6 L151.1 79.3 L151.3 78.9 L151.3 78.0 L151.6 76.5 L151.4 75.7 L150.9 75.2 L149.9 74.9 L149.9 74.9 L149.9 74.9 L149.9 74.8 L150.1 74.5 L150.2 74.2 L150.1 73.9 L149.9 73.6 L148.3 73.0 L147.7 72.9 L146.5 73.0 L145.8 73.1 L145.3 73.3 L145.1 73.5 L145.1 74.2 L144.9 74.4 L144.7 74.6 L143.3 75.1 L142.7 75.2 L142.1 75.2 L142.0 74.8 L142.2 74.4 L142.0 73.9 L142.0 73.5 L143.3 73.2 L143.8 73.0 L144.2 72.8 L144.3 72.4 L144.0 72.1 L143.6 72.1 L142.8 72.2 L142.5 72.1 L142.2 71.9 L142.0 71.7 L141.9 71.6 L141.9 71.4 L142.0 70.5 L142.1 70.3 L143.7 70.5 L144.4 70.4 L145.0 70.1 L145.4 70.4 L145.9 70.5 L146.4 70.3 L146.7 69.9 L146.4 69.2 L145.8 69.1 L144.5 69.4 L143.6 69.3 L143.1 68.7 L143.0 67.8 L143.5 66.9 L144.3 67.8 L144.8 68.1 L145.4 68.0 L145.7 67.6 L145.8 67.1 L145.7 66.5 L145.6 66.0 L145.4 65.7 L145.2 65.5 L145.0 65.2 L145.0 64.6 L145.6 62.2 L145.6 61.8 L145.5 60.6 L145.5 60.2 L145.8 59.7 L146.2 59.3 L146.4 59.1 L146.4 58.8 L146.2 58.2 L145.8 57.5 L145.8 57.3 L145.9 57.0 L146.0 56.8 L146.0 56.6 L145.8 56.3 L146.3 56.2 L146.8 56.3 L147.2 56.2 L147.2 56.1 L147.3 55.6 L147.2 54.9 L147.0 54.7 L146.6 54.6 L146.2 54.4 L145.9 53.6 L146.1 51.4 L146.0 50.4 L146.3 49.9 L146.3 49.4 L146.5 49.0 L147.2 48.4 L146.6 47.9 L146.3 47.7 L145.0 48.0 L144.5 48.0 L144.8 47.3 L144.5 46.8 L143.9 46.4 L143.6 45.8 L143.6 45.5 L143.7 45.2 L143.7 44.9 L143.4 44.6 L143.1 44.5 L142.8 44.6 L142.5 44.7 L142.2 44.8 L141.9 44.8 L141.1 44.5 L141.0 44.5 L140.9 44.7 L140.8 44.9 L140.5 45.0 L140.4 44.8 L138.9 41.9 L138.4 41.4 L136.7 40.4 L136.5 40.1 L136.1 39.4 L135.9 39.1 L135.6 38.9 L134.6 38.6 L134.3 38.4 L134.1 38.3 L133.9 38.1 L133.2 38.0 L132.8 37.9 L132.5 37.8 L132.2 37.5 L131.9 36.9 L131.9 36.3 L132.1 35.5 L132.2 35.0 L132.4 33.7 L132.6 33.2 L133.1 32.6 L133.7 32.2 L134.0 32.0 L134.0 31.6 L133.9 31.0 L133.8 30.7 L134.5 27.6 L134.7 27.3 L134.9 27.1 L135.2 26.9 L135.4 26.7 L135.5 26.3 L135.6 25.2 L135.5 24.2 L135.0 23.5 L134.0 23.1 L133.4 23.1 L132.3 23.4 L131.8 23.5 L131.2 23.3 L130.6 23.0 L130.0 22.5 L129.8 22.0 Z" fill="#172033" fill-rule="evenodd"/></svg>
