<svg xmlns="http://www.w3.org/2000/svg" viewBox="0 0 320 200" role="img"><path d="M174.9 114.7 L174.8 114.4 L174.8 113.9 L174.8 113.6 L174.7 113.3 L173.9 112.4 L173.5 112.1 L173.4 112.0 L173.4 111.3 L173.3 110.8 L173.1 110.5 L171.9 109.3 L171.9 109.2 L172.1 109.2 L172.0 109.1 L171.6 108.8 L171.6 108.7 L171.6 108.6 L171.5 108.7 L171.3 108.7 L171.2 108.8 L171.1 109.0 L171.3 110.0 L171.4 110.2 L171.4 110.3 L171.4 110.4 L171.3 110.4 L171.2 110.4 L171.1 110.3 L171.0 110.3 L171.1 110.1 L171.0 110.0 L170.9 109.7 L170.6 109.5 L170.2 109.4 L169.1 109.0 L168.9 108.9 L168.8 108.8 L168.7 109.0 L168.6 109.0 L168.4 108.9 L168.3 108.9 L168.3 108.8 L168.3 108.7 L168.3 108.6 L168.3 108.6 L168.2 108.4 L168.0 108.1 L168.0 107.9 L168.3 107.9 L168.6 107.9 L168.8 107.7 L169.0 107.5 L169.0 107.3 L169.0 107.1 L168.8 107.0 L168.7 107.1 L168.8 107.1 L168.8 107.2 L168.9 107.2 L168.9 107.3 L168.7 107.5 L168.5 107.6 L168.3 107.6 L168.2 107.3 L168.3 106.9 L168.3 106.6 L168.5 106.4 L168.4 106.4 L168.3 106.5 L168.2 106.8 L168.1 106.8 L168.1 106.7 L168.0 106.5 L168.0 106.4 L168.1 106.3 L168.0 106.4 L167.8 106.4 L167.7 106.4 L167.6 106.3 L167.4 106.3 L167.4 106.4 L167.5 106.4 L167.5 106.5 L167.5 106.6 L167.4 106.7 L167.5 106.7 L167.7 106.6 L167.8 106.7 L167.9 106.8 L167.9 106.9 L167.8 107.0 L168.0 107.2 L168.1 107.5 L168.0 107.7 L167.7 107.5 L167.0 106.9 L166.7 106.7 L166.6 106.6 L166.6 106.5 L166.4 106.3 L166.2 106.0 L166.0 105.8 L166.1 105.6 L166.1 105.6 L166.2 105.7 L166.2 105.7 L166.3 105.7 L166.2 105.6 L166.2 105.5 L166.4 105.4 L166.4 105.3 L166.4 105.3 L166.3 105.4 L166.2 105.4 L166.2 105.4 L166.1 105.3 L166.2 105.3 L166.2 105.2 L166.3 105.2 L165.8 105.2 L165.7 105.1 L165.9 104.9 L165.5 104.9 L165.4 105.0 L165.4 105.1 L165.5 105.2 L165.6 105.3 L165.7 105.4 L165.9 105.4 L165.9 105.5 L165.9 105.7 L165.9 106.0 L165.5 105.5 L165.3 105.3 L165.2 105.2 L165.0 105.2 L164.8 105.3 L164.8 104.8 L164.8 104.7 L164.8 104.6 L164.7 104.5 L164.7 104.6 L164.7 104.7 L164.6 104.7 L164.6 104.8 L164.7 105.2 L164.7 105.3 L164.3 105.1 L164.2 104.9 L164.1 104.8 L164.3 104.8 L164.3 104.7 L164.2 104.6 L164.1 104.6 L164.0 104.6 L164.0 104.5 L163.9 104.5 L163.9 104.4 L163.8 104.3 L163.7 104.0 L163.5 103.8 L163.2 103.7 L163.0 103.5 L162.8 103.5 L162.1 103.5 L161.9 103.5 L161.8 103.7 L161.8 103.8 L161.7 104.0 L161.5 104.1 L161.3 104.1 L160.8 104.1 L160.8 104.1 L160.7 104.2 L160.8 104.2 L160.7 104.3 L160.7 104.3 L160.6 104.3 L160.4 104.3 L160.1 104.2 L159.6 104.3 L159.4 104.3 L159.3 104.4 L159.2 104.6 L159.1 104.7 L158.9 104.5 L158.1 104.2 L157.3 104.0 L155.6 103.8 L155.4 103.8 L155.1 104.0 L154.6 104.1 L154.5 104.2 L154.5 104.2 L154.5 104.4 L154.5 104.6 L153.9 104.4 L153.9 104.3 L154.1 104.2 L154.0 104.0 L153.9 103.9 L153.7 104.1 L153.6 104.0 L153.5 104.0 L153.4 104.0 L153.2 104.1 L153.3 104.0 L153.3 104.0 L153.4 103.9 L153.4 103.8 L153.2 103.8 L153.2 103.8 L153.3 103.6 L153.3 103.5 L153.2 103.5 L153.0 103.5 L153.2 103.0 L153.3 102.8 L153.5 102.9 L153.6 102.9 L153.7 102.8 L153.8 102.7 L153.8 102.6 L153.9 102.4 L153.9 102.2 L153.8 102.1 L153.7 101.9 L153.3 101.4 L153.3 101.2 L153.3 101.1 L153.4 101.1 L153.5 101.0 L153.6 100.9 L153.6 100.9 L153.6 100.7 L153.7 100.6 L153.8 100.6 L153.9 100.6 L154.0 100.5 L154.0 100.4 L154.0 100.1 L153.9 99.9 L153.8 99.8 L153.7 99.6 L153.7 99.5 L153.6 99.5 L153.5 99.5 L153.4 99.4 L153.7 99.1 L153.8 98.8 L154.1 98.5 L154.1 98.3 L154.1 98.1 L154.0 97.7 L154.0 97.6 L153.8 97.4 L153.8 97.3 L153.8 97.2 L153.9 97.1 L153.9 97.1 L154.0 96.8 L154.2 96.8 L154.4 96.7 L154.5 96.6 L154.6 96.5 L154.6 96.2 L154.6 96.0 L154.4 95.8 L154.5 95.6 L154.7 95.2 L154.7 95.2 L154.6 95.3 L154.4 95.4 L154.3 95.4 L154.2 95.5 L153.6 95.5 L153.3 95.4 L152.8 95.3 L152.3 95.2 L152.1 95.1 L151.4 95.0 L151.0 94.9 L150.6 94.6 L150.4 94.6 L150.4 94.5 L150.4 94.4 L150.5 94.3 L150.5 94.1 L150.5 93.9 L150.4 94.2 L150.3 94.3 L150.3 94.8 L150.3 94.9 L150.0 95.0 L148.7 95.2 L148.2 95.2 L147.9 95.2 L147.7 95.3 L147.2 95.1 L147.1 95.0 L147.0 95.2 L146.9 95.3 L146.7 95.4 L145.8 95.7 L145.4 95.8 L145.1 95.9 L144.9 96.0 L144.8 96.0 L144.6 96.2 L144.5 96.4 L144.4 96.5 L144.2 96.5 L144.4 96.5 L144.3 96.7 L144.3 96.9 L144.1 97.0 L144.0 97.1 L143.8 97.1 L143.8 97.3 L143.8 97.3 L143.8 97.7 L144.2 98.1 L144.8 98.6 L144.8 98.6 L144.9 98.7 L145.0 98.8 L145.0 98.9 L145.0 99.0 L145.1 99.4 L145.3 99.8 L145.3 100.0 L145.2 100.1 L144.8 100.6 L144.8 100.8 L144.6 101.1 L144.5 101.8 L144.4 102.0 L144.1 102.6 L143.9 103.0 L143.8 103.4 L143.8 103.9 L143.8 104.2 L143.8 104.3 L144.0 105.0 L144.0 105.2 L144.0 105.9 L144.0 106.1 L144.3 106.9 L144.3 107.0 L144.2 107.2 L144.0 108.0 L144.0 108.1 L144.1 108.2 L144.2 108.3 L144.3 108.4 L144.3 108.5 L144.4 108.7 L144.4 108.8 L144.4 108.9 L144.4 109.0 L144.3 109.1 L144.1 109.2 L144.1 109.3 L144.0 109.7 L144.0 109.8 L143.7 110.2 L142.7 111.3 L142.4 111.7 L142.3 112.2 L142.5 112.6 L142.4 112.6 L142.3 112.6 L142.2 112.7 L142.2 112.8 L142.2 112.9 L142.3 113.3 L142.2 113.3 L142.2 113.4 L142.2 113.5 L142.3 113.6 L141.9 113.7 L141.6 114.0 L140.7 115.4 L140.7 115.5 L140.6 115.7 L140.4 115.9 L140.4 116.1 L140.4 116.4 L140.3 116.6 L140.3 116.8 L140.0 117.4 L140.0 117.5 L139.9 117.6 L139.7 117.8 L139.7 117.9 L139.6 118.5 L139.7 118.8 L139.8 119.2 L139.8 119.4 L139.7 119.6 L139.6 119.4 L139.4 119.4 L139.2 119.5 L139.1 119.6 L139.0 119.7 L138.9 119.9 L138.9 120.1 L138.9 120.2 L138.9 120.5 L139.1 120.9 L139.1 121.0 L139.1 121.3 L139.0 121.5 L138.9 121.6 L138.9 121.8 L138.9 122.0 L139.0 122.5 L139.1 122.7 L139.0 122.9 L139.0 122.9 L138.9 122.8 L138.9 122.7 L138.7 122.7 L138.5 122.7 L138.4 122.8 L138.3 122.8 L138.3 122.9 L138.3 123.3 L138.2 123.5 L137.6 124.5 L137.6 124.6 L137.6 124.7 L137.6 124.8 L137.6 124.8 L137.5 124.8 L137.3 124.9 L137.1 125.0 L137.0 125.2 L136.8 125.3 L136.8 125.6 L136.7 126.1 L136.6 126.2 L136.5 126.3 L136.3 126.3 L136.2 126.3 L136.2 126.5 L136.2 126.6 L136.3 126.6 L136.4 126.6 L136.5 126.6 L136.4 126.8 L136.3 126.9 L136.2 127.0 L136.2 127.2 L136.3 127.3 L136.6 127.5 L136.7 127.6 L136.7 127.8 L136.7 128.0 L136.7 128.1 L136.6 128.2 L136.4 128.2 L136.4 128.2 L136.1 128.4 L136.1 128.2 L136.0 128.1 L135.9 128.1 L135.8 128.0 L135.6 128.1 L135.5 128.1 L135.4 128.1 L135.3 128.2 L135.3 128.3 L135.3 128.8 L135.4 129.0 L135.8 129.3 L136.0 129.5 L136.1 129.6 L136.3 129.5 L136.2 129.7 L135.8 129.8 L135.7 129.9 L135.6 130.2 L135.3 130.6 L135.3 130.9 L135.3 131.2 L135.4 131.4 L135.5 131.5 L135.5 131.7 L135.5 131.8 L135.4 131.9 L135.3 132.1 L135.4 132.5 L135.4 133.4 L135.4 133.4 L135.5 133.4 L135.5 133.5 L135.5 133.6 L135.4 133.6 L135.3 133.7 L135.3 133.8 L135.2 133.9 L135.2 134.0 L135.2 134.2 L135.2 134.2 L135.2 134.4 L135.4 134.9 L135.4 135.3 L135.5 135.5 L135.6 135.7 L135.9 136.2 L136.0 136.4 L136.0 136.6 L136.0 136.8 L136.5 137.6 L137.1 138.4 L137.0 138.4 L136.9 138.4 L136.9 138.4 L136.8 138.4 L136.7 138.4 L136.7 138.4 L136.7 138.5 L136.7 138.5 L136.4 138.7 L136.3 138.8 L136.1 139.0 L136.1 139.1 L136.1 139.6 L136.3 140.1 L136.8 140.2 L137.4 140.2 L137.6 140.5 L138.0 140.4 L138.3 140.4 L138.7 140.4 L138.9 140.2 L139.0 140.0 L139.1 139.8 L139.2 139.7 L139.3 139.5 L139.4 139.5 L139.9 139.6 L140.1 139.6 L140.2 139.5 L140.3 139.4 L140.4 139.4 L140.7 139.3 L140.9 139.2 L140.9 139.2 L141.3 139.2 L141.4 139.2 L141.4 139.1 L141.6 139.1 L141.8 139.2 L141.9 139.3 L141.9 139.2 L142.1 139.2 L142.1 139.1 L142.2 139.2 L142.7 139.4 L142.7 139.5 L142.6 139.6 L142.7 139.8 L142.9 140.1 L143.0 140.1 L143.0 140.9 L143.0 141.1 L143.1 141.2 L143.2 141.3 L143.3 141.4 L143.3 141.6 L143.3 142.1 L143.4 142.2 L143.5 142.4 L143.5 142.5 L143.5 142.5 L143.4 142.6 L143.4 142.6 L143.3 142.7 L143.3 143.0 L143.5 143.8 L143.4 144.0 L143.6 144.3 L143.8 146.3 L143.8 146.7 L144.0 146.9 L144.6 147.3 L144.7 147.5 L144.8 147.6 L145.0 148.1 L145.2 148.3 L145.2 148.6 L145.3 148.6 L145.4 148.7 L145.6 148.8 L145.7 148.8 L145.7 148.9 L145.9 149.0 L146.0 148.9 L146.2 148.9 L146.1 148.6 L146.0 148.1 L145.9 147.8 L145.6 147.6 L145.8 147.5 L146.1 147.8 L146.4 148.1 L146.5 148.3 L147.1 149.7 L147.4 151.8 L147.8 153.7 L148.1 154.9 L148.8 158.6 L149.5 160.1 L150.0 160.9 L150.2 161.2 L150.2 161.4 L150.2 161.5 L150.0 161.5 L149.8 161.4 L149.5 161.0 L149.2 160.9 L149.2 160.8 L148.9 160.9 L148.7 160.8 L148.8 160.5 L148.7 160.1 L148.6 159.7 L148.5 159.6 L148.5 158.7 L148.5 158.0 L148.3 157.6 L148.0 157.5 L147.6 157.5 L147.4 157.9 L147.3 158.1 L147.2 158.1 L147.1 158.1 L147.1 158.0 L147.0 157.9 L147.0 157.8 L147.0 157.7 L147.1 157.5 L147.5 157.3 L147.6 157.1 L147.6 156.7 L147.6 156.1 L147.4 155.6 L147.2 155.3 L147.0 155.2 L146.8 155.2 L146.6 155.3 L146.4 155.4 L146.3 155.4 L145.8 155.9 L145.7 156.0 L145.7 156.2 L145.8 157.1 L146.0 157.6 L146.1 158.0 L146.1 158.2 L146.3 158.2 L146.3 158.3 L146.5 158.5 L146.6 158.5 L146.6 158.6 L146.9 159.4 L147.1 159.8 L147.4 160.0 L147.6 160.0 L147.9 160.0 L148.1 160.1 L148.2 160.3 L148.2 160.3 L148.2 160.5 L148.2 160.7 L148.2 160.8 L148.3 160.9 L148.5 160.9 L148.6 160.9 L148.7 161.0 L148.5 161.1 L148.4 161.1 L148.4 161.2 L148.3 161.2 L148.4 161.3 L148.4 161.4 L148.5 161.5 L148.7 161.8 L148.8 161.9 L148.9 161.9 L149.1 161.9 L149.2 162.0 L149.3 162.1 L149.4 162.1 L149.7 162.1 L149.8 162.1 L150.0 162.0 L150.3 161.8 L150.4 161.7 L150.4 161.4 L150.4 161.2 L150.6 161.5 L152.2 163.8 L152.5 163.9 L152.7 164.0 L152.9 164.1 L153.1 164.0 L153.3 164.1 L153.6 164.4 L154.2 164.8 L154.7 165.1 L155.0 165.1 L155.4 165.1 L156.7 165.0 L157.2 164.8 L157.3 164.6 L157.6 164.7 L157.8 164.8 L158.0 164.8 L158.1 164.9 L158.1 164.9 L158.4 164.9 L158.3 164.7 L158.2 164.4 L157.5 164.2 L157.8 164.1 L158.1 164.1 L158.4 164.3 L158.8 164.6 L159.1 164.7 L159.3 164.7 L159.5 164.7 L159.7 164.8 L159.9 164.9 L159.9 164.9 L160.2 165.0 L160.6 165.2 L160.7 165.3 L161.8 167.2 L162.3 168.1 L162.8 168.8 L163.2 169.2 L164.3 169.9 L165.5 171.0 L166.0 171.4 L166.0 171.4 L166.0 171.9 L166.0 172.8 L165.9 173.1 L165.6 173.4 L164.8 174.0 L164.6 174.3 L164.4 174.7 L164.4 175.2 L164.3 175.6 L164.0 175.9 L163.9 176.0 L163.8 176.0 L163.8 176.1 L163.7 176.2 L163.4 176.4 L163.4 176.5 L163.3 176.7 L163.2 176.8 L163.0 176.9 L162.8 176.7 L162.7 176.6 L162.6 176.5 L162.5 176.4 L162.4 176.4 L162.2 176.4 L162.1 176.6 L162.1 176.6 L162.0 176.6 L161.7 176.6 L161.6 176.4 L161.4 175.9 L161.4 175.8 L161.4 175.7 L161.4 175.6 L161.3 175.6 L161.2 175.6 L161.1 175.5 L161.0 175.4 L161.0 175.3 L160.8 175.1 L160.6 175.0 L160.4 175.1 L160.0 175.2 L158.9 175.7 L158.5 175.9 L158.1 176.1 L157.7 176.2 L157.3 176.3 L157.2 176.8 L157.2 177.1 L157.1 177.3 L157.0 177.5 L156.8 177.6 L156.3 177.9 L156.0 178.0 L155.8 177.9 L155.7 177.7 L155.6 177.4 L155.4 177.2 L155.1 177.0 L155.0 177.0 L154.8 177.0 L154.7 177.0 L154.6 176.9 L154.5 176.6 L154.4 176.5 L154.4 176.4 L154.4 176.3 L154.4 176.2 L154.5 176.0 L154.9 175.2 L155.1 175.1 L155.3 175.0 L155.5 174.9 L155.6 174.8 L155.6 174.6 L155.6 174.2 L155.7 173.6 L155.7 173.2 L155.6 173.0 L155.4 172.8 L155.3 172.7 L155.3 172.4 L155.4 172.3 L155.6 172.2 L155.7 172.1 L155.7 171.9 L155.7 171.6 L155.6 171.5 L155.4 171.5 L155.0 171.6 L154.8 171.5 L154.5 171.2 L154.3 171.3 L154.0 171.6 L153.8 171.6 L153.3 171.5 L153.2 171.5 L153.1 171.5 L153.0 171.6 L153.0 171.6 L152.9 171.5 L152.8 171.4 L152.8 171.1 L152.9 171.0 L152.9 171.0 L152.9 170.9 L152.9 170.8 L152.9 170.7 L152.8 170.5 L152.7 170.4 L152.7 170.2 L152.7 169.7 L152.6 169.5 L152.3 169.4 L152.2 169.4 L152.1 169.4 L152.0 169.4 L151.9 169.3 L151.9 169.2 L151.9 169.0 L151.9 168.9 L151.7 168.9 L151.0 169.4 L150.8 169.4 L150.6 169.4 L150.3 169.2 L149.6 169.0 L149.4 168.9 L149.1 168.7 L149.0 168.7 L148.7 168.7 L148.5 168.7 L148.3 168.6 L148.2 168.6 L147.9 168.4 L147.7 168.2 L147.5 168.0 L147.1 166.8 L147.1 166.8 L147.0 166.7 L146.8 166.7 L146.7 166.7 L146.6 166.8 L146.6 166.8 L146.4 166.8 L146.3 166.8 L146.3 166.7 L146.3 166.7 L146.2 166.6 L146.0 166.7 L145.9 166.8 L145.9 166.9 L145.9 167.1 L145.8 167.6 L145.8 167.7 L145.9 168.0 L146.0 168.1 L145.9 168.2 L145.8 168.3 L145.7 168.4 L145.7 168.5 L145.8 168.7 L145.8 168.8 L145.7 169.1 L145.6 169.3 L145.5 169.4 L145.5 169.2 L145.3 169.1 L145.1 169.0 L145.3 168.7 L145.3 168.5 L145.2 168.4 L145.0 168.5 L145.0 168.5 L144.9 168.8 L144.5 168.5 L144.2 168.1 L144.2 168.0 L144.1 167.9 L144.1 167.8 L144.0 167.8 L143.9 167.8 L143.8 167.9 L143.8 167.8 L143.8 167.7 L143.9 167.6 L143.9 167.5 L143.9 167.4 L143.8 167.3 L143.8 167.1 L143.7 167.1 L143.6 167.1 L143.5 167.1 L143.5 167.0 L143.4 166.8 L143.3 166.7 L143.0 166.5 L142.8 166.1 L142.6 165.9 L142.4 166.0 L142.3 166.0 L142.3 165.9 L142.2 165.6 L142.1 165.5 L142.1 165.5 L141.1 165.1 L140.9 164.9 L140.9 164.4 L140.9 164.3 L141.0 164.2 L141.1 164.2 L141.2 164.2 L141.2 164.1 L141.1 164.0 L141.0 163.9 L140.8 163.9 L140.8 163.7 L140.9 163.4 L140.8 163.3 L141.0 162.9 L141.1 162.8 L141.2 162.7 L141.2 162.6 L141.5 162.2 L141.5 162.1 L141.3 162.2 L141.1 162.3 L141.0 162.4 L140.8 162.3 L140.7 162.1 L140.7 161.8 L140.4 162.0 L140.2 162.1 L140.1 162.1 L140.1 162.0 L140.0 162.0 L139.8 161.9 L139.5 161.5 L139.3 161.0 L139.4 160.8 L139.6 160.6 L139.8 160.3 L140.0 160.0 L140.0 159.6 L140.0 159.6 L139.7 160.2 L139.4 160.4 L139.2 160.3 L139.1 160.1 L139.2 159.7 L139.2 159.5 L139.0 159.5 L138.9 159.7 L138.8 159.9 L138.8 160.0 L138.8 160.4 L138.8 160.6 L138.6 160.6 L138.5 160.6 L138.4 160.5 L138.2 160.4 L138.1 160.4 L138.1 160.3 L137.8 160.3 L137.6 160.2 L137.5 160.0 L137.2 159.5 L137.3 159.4 L137.3 159.1 L137.3 158.6 L137.3 158.6 L137.2 158.4 L137.1 158.3 L137.1 158.3 L136.9 158.3 L136.8 158.2 L136.9 158.0 L136.9 157.8 L136.8 157.5 L136.7 157.0 L136.7 157.0 L136.6 157.1 L136.5 157.1 L136.4 157.0 L136.3 157.0 L136.3 156.9 L136.4 156.9 L136.4 156.8 L136.4 156.7 L136.2 156.5 L136.1 156.4 L135.9 156.4 L135.8 156.4 L135.7 156.1 L135.5 156.0 L135.3 155.9 L135.1 155.7 L135.0 155.5 L135.0 155.5 L134.9 155.9 L134.8 156.1 L134.6 156.3 L134.3 156.2 L134.0 156.0 L134.0 155.3 L133.8 155.0 L134.3 154.7 L134.3 154.5 L134.3 154.3 L134.4 154.0 L134.4 153.8 L134.2 154.0 L134.1 154.1 L134.0 154.1 L133.9 154.0 L133.7 153.7 L133.7 153.6 L133.5 153.6 L133.3 153.5 L133.2 153.3 L133.3 153.2 L133.3 153.1 L133.3 153.1 L133.2 153.0 L133.2 152.9 L133.0 152.8 L132.9 152.7 L132.9 152.6 L132.8 152.5 L132.8 152.5 L132.7 152.5 L132.6 152.6 L132.5 152.8 L132.5 152.8 L132.3 152.9 L132.2 153.0 L132.0 153.0 L131.9 153.0 L131.8 152.9 L131.7 152.7 L131.7 152.6 L131.6 152.5 L131.5 152.5 L131.5 152.6 L131.4 152.7 L131.3 152.8 L131.2 152.8 L131.2 152.6 L131.2 152.5 L131.1 152.4 L131.0 152.3 L131.0 152.1 L131.0 151.6 L131.0 151.5 L131.0 151.1 L131.0 150.9 L131.0 150.8 L130.8 150.4 L130.6 150.7 L130.6 150.7 L130.5 149.9 L130.5 149.8 L130.3 149.9 L130.0 150.0 L129.8 150.0 L129.8 150.0 L129.8 150.1 L129.7 150.1 L129.7 150.0 L129.7 149.4 L129.8 149.3 L130.0 149.2 L130.0 149.0 L129.9 149.0 L129.7 148.9 L129.5 148.9 L129.4 149.1 L129.3 149.2 L129.1 149.2 L128.9 149.3 L128.8 149.4 L128.7 149.5 L128.5 149.6 L128.4 149.4 L128.3 149.4 L128.3 149.6 L128.3 149.6 L128.2 149.6 L128.1 149.5 L128.0 149.5 L128.0 149.6 L127.8 149.6 L127.6 149.7 L127.6 149.8 L127.9 149.9 L127.9 150.1 L127.9 150.3 L128.0 150.5 L128.0 150.8 L127.8 151.2 L127.6 151.5 L127.5 151.3 L127.4 151.3 L127.4 151.4 L127.4 151.5 L127.3 151.6 L127.1 151.5 L126.9 151.1 L126.6 151.0 L126.6 150.9 L126.5 150.8 L126.4 150.8 L126.3 150.8 L126.2 150.8 L126.2 150.7 L126.1 150.7 L126.1 150.5 L126.1 150.1 L126.0 149.9 L125.9 149.7 L125.7 148.8 L125.2 147.4 L125.2 147.2 L125.3 147.0 L125.3 146.9 L125.4 147.0 L125.4 147.2 L125.5 147.4 L125.7 147.6 L125.8 147.4 L125.7 147.3 L125.6 147.2 L125.4 147.1 L125.4 147.0 L125.5 146.9 L125.5 146.9 L125.5 146.8 L125.5 146.7 L125.5 146.6 L125.6 146.3 L125.7 146.2 L125.6 146.0 L125.5 145.5 L125.4 145.4 L125.5 145.3 L125.6 145.2 L125.7 145.2 L125.7 145.1 L125.8 145.0 L125.8 145.0 L125.8 144.3 L125.9 144.1 L126.1 143.7 L126.2 143.3 L126.4 143.0 L126.6 142.8 L126.6 142.7 L126.7 142.7 L126.8 142.8 L127.0 142.8 L126.9 142.7 L126.9 142.6 L127.0 142.4 L127.3 142.1 L126.9 142.3 L126.7 142.3 L126.6 142.2 L126.6 142.0 L126.7 141.9 L127.0 141.8 L127.2 141.8 L127.0 141.4 L126.7 141.0 L126.6 140.8 L126.5 140.5 L126.5 140.3 L126.6 140.4 L126.7 140.4 L126.8 140.4 L126.9 140.3 L127.0 140.1 L126.8 140.0 L126.8 139.9 L126.9 139.7 L127.0 139.5 L127.1 139.4 L127.2 139.2 L127.3 138.5 L127.4 138.3 L127.6 138.0 L127.8 137.0 L127.9 136.7 L128.3 137.0 L128.6 136.7 L128.7 136.6 L128.7 136.4 L128.6 136.4 L128.4 136.5 L128.3 136.4 L128.3 136.4 L128.2 136.3 L128.2 136.2 L128.0 136.1 L128.1 136.0 L128.3 135.8 L128.4 135.8 L128.4 135.8 L128.5 135.7 L128.5 135.6 L128.5 135.5 L128.3 135.3 L128.5 135.3 L128.5 135.2 L128.5 135.1 L128.3 135.0 L128.4 134.9 L128.6 135.0 L128.7 135.1 L128.9 135.1 L128.9 134.9 L129.0 134.9 L129.0 134.8 L129.1 134.7 L129.0 134.6 L128.8 134.6 L128.7 134.6 L128.6 134.6 L128.6 134.6 L128.6 134.7 L128.5 134.7 L128.5 134.7 L128.5 134.6 L128.5 134.4 L128.5 134.4 L128.6 134.3 L128.7 134.2 L128.7 134.2 L128.8 134.2 L129.0 134.1 L129.1 134.0 L129.2 133.8 L129.3 133.6 L129.2 133.7 L129.0 133.9 L128.9 134.0 L128.8 134.0 L128.8 133.9 L128.7 133.8 L128.5 133.7 L128.6 133.5 L128.8 133.3 L128.9 133.2 L129.0 133.3 L129.0 133.3 L129.1 133.3 L129.2 133.3 L129.1 133.2 L129.3 133.1 L129.3 133.0 L129.3 132.9 L129.2 132.9 L129.2 132.9 L129.2 132.8 L129.3 132.7 L129.4 132.6 L129.4 132.5 L129.7 132.5 L129.8 132.5 L129.8 132.4 L129.7 132.3 L129.6 132.3 L129.6 132.4 L129.4 132.3 L129.4 132.2 L129.5 132.1 L130.0 131.3 L130.1 131.1 L130.4 130.3 L130.6 129.8 L130.7 129.6 L130.8 129.3 L130.8 129.1 L130.8 128.9 L131.0 128.5 L131.0 128.3 L131.2 127.7 L131.3 127.1 L131.5 126.7 L131.5 126.5 L131.3 125.8 L131.2 125.7 L131.0 125.6 L131.0 125.4 L131.1 125.0 L131.2 124.7 L131.7 124.1 L131.9 123.9 L132.0 123.9 L132.2 123.9 L132.3 123.9 L132.4 123.8 L132.4 123.7 L132.4 123.6 L132.5 123.5 L132.7 123.4 L132.8 123.4 L132.9 123.5 L133.0 123.5 L133.3 123.3 L133.4 123.3 L133.5 123.2 L133.5 123.1 L133.6 122.9 L133.6 122.8 L133.5 122.6 L133.4 122.4 L133.5 122.3 L133.5 122.2 L133.5 122.1 L133.6 122.0 L133.7 121.9 L133.7 121.9 L133.8 121.9 L133.9 121.9 L134.0 122.0 L134.1 122.0 L134.2 122.0 L134.3 121.9 L134.4 121.6 L134.5 121.5 L134.6 121.3 L135.1 121.1 L135.1 121.0 L135.3 121.0 L135.3 120.9 L135.4 120.6 L135.5 120.5 L135.6 120.5 L135.8 120.4 L135.9 120.3 L136.2 119.4 L136.4 119.1 L136.7 118.7 L136.8 118.5 L137.0 118.1 L137.1 117.9 L137.5 117.5 L137.6 117.3 L137.6 117.1 L137.6 116.9 L137.7 116.7 L138.0 116.4 L138.2 116.2 L138.3 116.0 L138.3 115.8 L138.3 115.4 L138.3 115.2 L138.4 115.0 L138.6 114.9 L138.8 114.8 L139.3 114.8 L139.4 114.7 L140.1 113.8 L140.1 113.6 L140.3 112.9 L140.3 112.8 L140.1 112.7 L139.9 112.6 L139.7 112.4 L139.6 112.3 L139.5 112.0 L139.5 111.8 L139.7 111.4 L139.7 111.2 L139.6 111.0 L139.5 110.9 L139.3 110.8 L139.1 110.7 L139.2 110.4 L139.3 109.9 L139.3 109.7 L139.4 109.6 L139.4 109.5 L139.4 109.4 L139.3 109.4 L139.2 109.4 L138.6 109.6 L138.4 109.6 L138.4 109.4 L138.4 109.3 L138.5 109.2 L138.6 109.1 L138.7 109.0 L138.6 108.8 L138.5 108.6 L138.5 108.5 L138.5 108.4 L138.5 108.2 L138.4 108.1 L138.4 108.0 L138.2 107.8 L138.2 107.7 L138.1 107.5 L138.1 106.9 L138.0 106.7 L137.8 106.2 L137.7 106.0 L137.8 105.9 L137.9 105.7 L137.9 105.6 L137.9 105.3 L138.0 105.1 L137.9 105.0 L137.9 104.9 L137.8 104.7 L137.3 104.4 L137.2 104.3 L137.1 104.2 L137.0 104.1 L136.9 104.0 L136.7 104.0 L136.6 103.9 L136.5 103.8 L136.5 103.6 L136.5 103.5 L136.4 103.5 L136.1 103.4 L136.0 103.4 L135.9 103.2 L135.9 103.0 L135.9 102.8 L135.9 102.6 L135.8 102.5 L135.6 102.3 L135.5 102.1 L135.5 102.0 L135.4 101.7 L135.3 101.4 L135.3 101.3 L135.3 101.2 L135.3 101.1 L135.4 101.0 L135.4 100.9 L135.4 100.7 L135.3 100.4 L135.1 100.3 L134.9 100.2 L134.6 100.0 L134.6 99.8 L134.7 99.5 L134.7 99.3 L134.8 99.0 L134.7 98.8 L134.7 98.6 L134.9 98.4 L135.1 98.3 L135.5 98.3 L135.6 98.2 L135.6 98.2 L135.7 98.0 L135.6 97.8 L135.5 97.4 L135.5 97.2 L135.5 97.1 L135.6 97.0 L135.6 96.9 L135.6 96.8 L135.6 96.6 L135.7 96.1 L135.6 95.9 L135.3 94.3 L135.2 93.4 L135.3 93.1 L135.3 92.9 L135.2 92.8 L135.2 92.7 L134.8 92.4 L134.7 92.2 L134.6 91.7 L134.6 91.5 L134.6 91.4 L134.6 91.3 L134.6 91.2 L134.6 91.1 L134.5 91.1 L134.4 91.1 L134.3 91.0 L134.3 91.0 L134.2 90.8 L134.2 90.8 L133.8 90.5 L133.7 90.4 L133.6 90.2 L133.5 90.0 L133.2 89.6 L133.1 89.4 L133.1 89.1 L133.0 89.0 L132.8 88.8 L132.5 88.8 L132.3 88.7 L131.1 87.8 L130.8 87.5 L130.6 87.0 L130.5 87.0 L130.4 87.0 L130.2 87.0 L130.1 87.0 L130.0 86.8 L129.9 86.8 L129.8 86.7 L129.7 86.7 L129.6 86.7 L129.5 86.6 L129.4 86.5 L128.9 85.9 L128.2 84.4 L128.0 84.4 L127.9 84.3 L127.8 84.2 L127.8 83.9 L127.7 83.7 L127.5 83.5 L126.3 82.3 L125.7 81.4 L125.6 81.2 L125.6 81.0 L125.7 81.0 L125.6 80.9 L125.5 80.8 L125.5 80.8 L125.5 80.5 L125.5 80.2 L125.4 79.9 L125.2 79.6 L125.1 79.5 L125.1 79.4 L125.1 79.3 L125.2 79.2 L125.3 79.1 L125.3 79.0 L125.2 78.8 L125.2 78.8 L124.9 78.5 L124.8 78.2 L124.9 78.0 L125.1 77.6 L125.1 77.4 L125.1 77.3 L125.0 77.1 L125.0 77.1 L125.0 77.0 L125.3 77.0 L125.4 77.0 L125.6 76.9 L125.7 76.8 L126.1 76.3 L126.2 76.3 L126.5 76.3 L126.7 76.4 L127.0 76.6 L127.2 76.6 L127.3 76.6 L127.3 76.5 L127.3 76.4 L127.3 76.3 L127.2 76.3 L127.1 76.2 L127.1 76.2 L127.1 76.2 L127.1 76.1 L127.2 76.1 L127.2 76.1 L127.3 76.0 L127.3 75.9 L127.3 75.9 L127.3 75.7 L127.3 75.6 L127.4 75.5 L127.8 75.5 L127.9 75.4 L128.1 75.3 L128.3 75.4 L128.6 75.5 L128.7 75.7 L128.8 75.9 L129.0 75.6 L129.1 75.1 L129.1 74.6 L128.9 73.0 L128.9 72.4 L128.9 72.2 L128.8 71.8 L128.9 71.6 L129.2 70.5 L129.2 70.3 L129.1 69.9 L129.1 69.6 L129.2 69.2 L129.3 69.0 L129.2 68.8 L128.9 68.4 L128.9 68.3 L129.0 68.2 L129.1 68.2 L129.2 68.3 L129.3 68.3 L129.5 68.3 L129.6 68.3 L129.7 68.3 L129.8 68.2 L129.9 68.0 L130.0 67.8 L130.1 67.6 L130.3 67.5 L130.5 67.5 L131.1 67.6 L131.2 67.6 L131.3 67.7 L131.4 67.7 L131.5 67.7 L131.6 67.6 L131.9 67.4 L131.9 67.3 L131.9 67.0 L131.9 66.8 L132.0 66.6 L132.1 66.4 L132.4 66.1 L132.5 65.9 L132.5 65.4 L132.6 65.0 L132.6 64.8 L132.5 64.5 L132.2 64.4 L132.0 64.2 L132.0 63.8 L131.8 64.0 L131.7 64.2 L131.6 64.6 L131.4 64.9 L130.8 65.3 L130.5 65.8 L130.3 65.9 L130.1 65.8 L130.1 65.6 L129.9 64.9 L129.8 64.6 L129.7 64.5 L129.9 64.2 L129.9 64.1 L129.8 63.9 L129.1 63.1 L129.1 63.0 L129.1 62.9 L129.1 62.8 L129.1 62.7 L129.1 62.6 L129.0 62.5 L128.9 62.3 L128.5 62.0 L128.4 61.8 L128.3 61.5 L128.3 61.4 L127.9 61.2 L127.9 61.0 L128.0 60.8 L128.1 60.6 L128.3 60.6 L128.5 60.5 L128.6 60.3 L128.6 60.2 L128.5 60.1 L128.4 60.1 L128.3 60.1 L128.3 59.9 L128.3 59.8 L128.4 59.7 L128.5 59.8 L128.7 59.8 L128.6 59.5 L128.5 59.4 L128.4 59.3 L128.2 59.3 L128.2 59.1 L128.2 58.9 L128.1 58.8 L128.0 58.7 L127.8 58.3 L127.7 58.2 L127.5 58.0 L127.3 57.9 L127.1 57.8 L126.6 57.8 L126.4 57.7 L126.3 57.6 L126.1 57.4 L126.2 57.3 L126.2 57.2 L126.2 57.1 L126.0 57.1 L125.9 57.0 L126.0 56.9 L126.1 56.8 L125.8 56.7 L125.5 56.2 L125.3 56.0 L125.1 55.9 L124.2 55.1 L124.1 55.0 L124.1 54.9 L124.1 54.6 L124.1 54.5 L124.1 54.3 L123.9 54.3 L123.8 54.2 L123.6 54.2 L123.5 54.0 L123.4 53.9 L123.3 53.6 L123.1 53.2 L123.0 53.1 L123.0 53.0 L122.8 52.9 L122.6 52.8 L122.4 52.7 L122.2 52.4 L120.7 51.1 L120.6 51.0 L120.5 50.8 L120.5 50.7 L120.5 50.6 L120.5 50.5 L120.4 50.4 L120.2 50.2 L120.1 50.0 L120.0 49.9 L119.9 49.8 L119.8 49.7 L119.7 49.5 L120.0 49.5 L119.8 49.0 L119.9 48.8 L120.2 48.3 L120.5 48.2 L120.5 48.1 L120.5 48.1 L120.5 47.9 L120.5 47.8 L120.4 47.8 L120.4 47.7 L120.2 47.4 L120.2 47.2 L120.2 47.2 L120.0 47.1 L120.0 47.1 L120.0 47.1 L119.9 47.1 L119.9 47.0 L119.9 47.0 L120.0 46.9 L120.0 46.8 L119.9 46.7 L119.8 46.5 L119.8 46.4 L119.8 46.3 L119.8 46.2 L119.8 46.1 L119.2 45.4 L119.1 45.2 L119.1 45.1 L119.3 45.0 L119.4 44.9 L119.4 44.7 L119.3 44.5 L119.2 44.4 L118.6 44.2 L118.5 44.3 L118.5 44.3 L118.3 44.8 L118.3 44.9 L118.2 45.0 L118.0 44.8 L117.7 44.7 L117.5 44.5 L117.4 44.2 L117.3 44.0 L117.3 43.7 L117.3 43.5 L117.0 43.1 L116.8 42.6 L116.7 42.5 L116.6 42.3 L116.4 42.1 L116.3 41.9 L116.5 42.0 L116.6 42.0 L116.7 42.0 L116.9 42.4 L116.9 42.4 L117.0 42.5 L117.1 42.6 L117.2 42.6 L117.5 42.6 L118.0 42.6 L118.4 42.4 L119.1 41.9 L119.3 41.9 L119.9 41.9 L120.4 41.7 L120.4 41.8 L120.5 41.7 L120.5 41.6 L120.6 41.2 L120.5 40.8 L120.4 40.3 L120.4 39.9 L120.4 39.7 L120.3 39.5 L120.2 39.1 L120.2 39.0 L120.2 38.8 L120.2 38.6 L120.1 38.5 L119.8 38.3 L119.6 38.1 L119.5 38.0 L119.6 37.9 L119.9 37.7 L120.0 37.6 L120.1 37.4 L120.2 37.0 L120.3 36.8 L120.9 36.3 L121.1 36.2 L121.1 36.0 L121.2 35.2 L121.2 35.0 L121.1 34.8 L121.0 34.7 L120.7 34.5 L120.6 34.4 L120.7 34.3 L120.8 34.3 L120.9 34.3 L121.0 34.3 L121.1 34.0 L121.0 33.9 L120.8 33.7 L120.8 33.4 L120.8 33.3 L120.7 33.1 L120.7 33.0 L121.0 32.6 L121.4 32.3 L121.5 32.2 L121.5 32.0 L121.5 32.0 L121.5 31.9 L121.5 31.8 L121.4 31.6 L121.4 31.4 L121.5 31.2 L121.8 31.2 L121.9 31.2 L122.6 30.9 L122.7 30.8 L122.8 30.6 L122.9 30.5 L123.0 30.5 L123.1 30.5 L123.2 30.5 L123.3 30.4 L123.3 30.2 L123.2 29.8 L123.2 29.6 L123.3 28.9 L123.4 28.8 L123.6 28.7 L123.8 28.9 L123.9 29.0 L124.0 29.1 L124.3 29.0 L124.5 29.1 L124.9 29.5 L125.3 29.6 L125.4 29.7 L125.4 29.8 L125.4 30.0 L125.4 30.1 L125.6 30.2 L125.9 30.2 L126.4 30.0 L126.8 29.9 L127.3 30.0 L127.8 30.0 L128.1 29.8 L128.2 29.8 L128.3 29.8 L128.4 29.8 L128.5 29.9 L128.6 30.0 L128.7 30.1 L128.8 30.1 L128.8 30.0 L128.9 29.9 L129.1 29.8 L129.4 29.8 L129.4 29.7 L129.6 29.5 L129.7 29.4 L129.9 29.4 L130.8 29.2 L131.0 29.2 L131.6 28.7 L132.0 28.9 L132.1 29.0 L132.2 29.1 L132.4 29.4 L132.6 29.3 L133.0 29.1 L133.4 28.9 L133.5 28.8 L133.7 28.6 L133.8 28.3 L133.7 28.1 L133.7 27.9 L133.7 27.7 L133.7 27.6 L133.7 27.5 L133.8 27.4 L133.8 27.4 L133.8 27.3 L133.7 27.1 L133.7 27.0 L133.8 26.3 L134.0 25.9 L134.4 25.6 L134.9 25.4 L135.3 25.4 L135.5 25.4 L136.0 25.5 L136.2 25.6 L136.6 25.9 L136.8 26.0 L137.0 26.0 L138.3 25.6 L138.7 25.3 L138.8 25.2 L138.9 25.1 L139.0 25.1 L139.0 25.1 L139.1 24.9 L139.2 24.6 L139.1 24.5 L138.8 24.1 L138.7 23.5 L138.6 23.3 L138.2 22.9 L138.1 22.7 L138.3 22.7 L138.4 22.7 L139.0 23.1 L139.8 23.3 L139.9 23.3 L140.1 23.3 L140.2 23.3 L140.3 23.3 L140.4 23.4 L140.5 23.5 L140.7 23.4 L141.1 23.3 L141.3 23.2 L141.8 23.2 L142.0 23.2 L142.1 23.0 L142.2 22.8 L142.4 22.5 L142.5 22.3 L142.7 22.2 L142.9 22.1 L143.5 22.0 L143.5 22.0 L143.6 22.0 L143.7 22.1 L143.8 22.2 L143.8 22.3 L143.8 22.4 L143.9 22.5 L144.0 22.6 L144.2 22.6 L144.3 22.6 L144.4 22.7 L144.6 22.8 L144.6 22.8 L144.7 22.9 L144.8 23.1 L145.2 23.3 L145.2 23.7 L145.3 23.9 L145.4 24.1 L145.6 24.2 L145.8 24.2 L146.0 24.0 L146.0 23.6 L146.1 23.5 L146.1 23.5 L146.3 23.4 L146.4 23.4 L146.4 23.4 L146.5 23.0 L146.7 22.8 L147.0 22.6 L147.4 22.5 L147.8 22.6 L148.0 22.8 L148.6 24.1 L148.9 24.4 L149.0 24.5 L149.0 24.6 L149.0 24.7 L149.1 24.7 L149.3 24.8 L149.3 24.9 L149.4 24.9 L149.6 25.1 L149.8 25.1 L149.8 25.1 L149.9 24.9 L149.9 24.9 L150.0 25.0 L150.0 25.6 L149.9 26.0 L149.7 26.7 L149.4 27.4 L149.3 27.8 L149.3 27.9 L149.2 28.1 L149.1 28.2 L148.9 28.2 L148.8 28.3 L148.7 28.4 L148.6 28.7 L148.5 28.9 L148.2 29.2 L148.2 29.4 L148.2 29.5 L148.3 29.6 L148.4 29.7 L148.5 29.8 L148.5 30.0 L148.5 30.4 L148.6 30.5 L148.7 30.7 L148.9 30.9 L149.0 31.1 L149.0 31.2 L149.0 31.4 L149.1 31.6 L149.2 31.7 L149.4 31.8 L149.7 31.9 L150.0 32.0 L150.2 32.0 L150.2 31.9 L150.4 31.7 L150.6 31.5 L150.9 31.5 L151.7 31.8 L151.9 31.9 L152.0 32.0 L152.0 32.1 L152.1 32.1 L152.2 32.0 L152.7 31.6 L153.1 31.1 L153.3 30.9 L153.3 30.8 L153.4 30.8 L153.5 30.8 L153.5 30.8 L154.5 30.8 L154.7 30.8 L155.0 30.9 L155.4 31.1 L155.7 31.2 L156.0 31.3 L156.3 31.2 L156.6 31.2 L156.7 31.1 L156.8 31.0 L156.9 31.0 L157.1 31.1 L157.2 31.1 L157.3 31.2 L157.4 31.3 L157.4 31.5 L157.4 31.7 L157.4 32.0 L157.2 32.2 L157.0 32.3 L156.8 32.4 L156.6 32.8 L156.5 33.3 L156.6 33.6 L156.7 33.6 L156.8 33.6 L156.9 33.7 L156.9 33.8 L156.9 33.8 L156.9 33.9 L156.9 34.0 L157.1 34.8 L157.1 35.5 L157.1 35.7 L157.2 35.9 L157.3 36.0 L157.8 36.4 L158.1 36.7 L158.2 37.0 L157.7 37.4 L157.6 37.6 L157.5 37.9 L157.4 38.1 L157.2 38.3 L157.1 38.5 L157.1 38.7 L157.1 39.4 L157.1 39.5 L156.9 39.9 L156.9 40.1 L156.9 40.2 L157.2 40.5 L157.3 40.7 L157.2 40.8 L157.1 41.0 L156.8 41.3 L156.7 41.3 L156.5 41.4 L156.4 41.4 L156.4 41.5 L156.4 41.8 L156.4 41.9 L156.2 42.0 L155.5 42.4 L155.5 42.4 L155.5 42.5 L155.4 42.7 L155.1 43.0 L155.0 43.2 L155.1 43.4 L155.3 43.6 L155.5 43.8 L155.6 43.9 L156.3 44.2 L156.4 44.3 L156.3 44.4 L156.1 44.6 L156.1 44.7 L156.1 44.8 L156.1 45.2 L156.1 45.2 L156.2 45.4 L156.3 45.5 L156.3 45.5 L156.4 45.6 L156.4 45.7 L156.4 45.9 L156.3 46.3 L156.2 46.4 L156.2 46.6 L156.4 47.0 L156.5 47.2 L156.4 47.3 L156.0 47.5 L155.9 47.6 L155.7 47.9 L155.6 48.2 L155.4 48.4 L155.1 48.7 L154.8 48.8 L154.7 49.0 L154.7 49.2 L154.7 49.5 L154.7 49.7 L154.5 49.8 L154.4 49.8 L154.4 49.9 L154.4 49.9 L154.5 50.0 L154.5 50.0 L154.5 50.1 L154.5 50.1 L154.5 50.1 L154.4 50.2 L154.3 50.2 L154.3 50.3 L154.3 50.4 L154.3 50.6 L154.3 50.8 L154.2 50.9 L154.0 51.4 L153.7 51.8 L153.5 52.0 L153.5 52.2 L153.7 52.4 L154.1 52.4 L154.5 52.5 L154.7 52.6 L154.9 52.7 L155.1 52.9 L155.2 53.1 L155.4 53.1 L155.7 53.3 L156.0 53.4 L156.1 53.4 L156.1 53.4 L156.2 53.4 L156.3 53.3 L156.5 53.1 L156.5 52.9 L156.6 52.8 L156.7 52.8 L156.9 52.8 L156.9 52.7 L157.1 52.3 L157.3 52.0 L158.5 51.1 L158.6 51.1 L158.7 51.1 L158.8 51.1 L159.0 50.8 L159.0 50.8 L159.0 50.7 L158.9 50.7 L158.8 50.7 L158.7 50.7 L158.8 50.6 L159.0 50.5 L159.1 50.6 L159.3 50.6 L159.4 50.4 L159.5 50.4 L159.5 50.4 L159.5 50.4 L159.5 50.4 L159.6 50.5 L159.7 50.7 L159.7 50.7 L159.7 50.6 L159.8 50.5 L159.8 50.4 L160.0 50.2 L160.4 50.1 L160.6 49.9 L160.3 49.8 L160.5 49.7 L160.7 49.6 L160.7 49.5 L160.8 49.4 L160.8 49.3 L160.8 49.1 L161.0 49.3 L161.2 49.2 L161.2 49.0 L161.4 48.9 L162.4 48.7 L162.4 48.5 L162.7 47.8 L162.8 47.3 L162.9 47.1 L163.0 47.0 L163.1 47.0 L163.2 47.1 L163.6 47.2 L164.0 47.4 L164.2 47.4 L165.8 45.7 L166.0 45.5 L166.1 45.5 L166.4 45.5 L166.9 45.5 L167.1 45.6 L167.1 45.8 L167.2 46.0 L167.3 46.1 L167.6 46.4 L167.6 46.4 L167.7 46.4 L168.0 46.8 L168.5 47.2 L168.8 47.4 L169.1 47.3 L169.3 47.6 L169.6 47.8 L169.9 48.0 L170.3 48.0 L171.2 48.1 L171.6 48.2 L171.7 48.6 L171.5 49.3 L171.5 49.4 L171.7 49.5 L172.2 49.7 L172.4 49.7 L172.4 49.7 L172.3 49.5 L172.3 49.3 L172.3 49.2 L172.5 49.1 L172.9 49.0 L173.0 48.9 L173.4 48.6 L174.0 48.2 L174.1 48.1 L174.2 48.0 L175.1 47.7 L175.3 47.6 L175.5 47.7 L175.8 47.9 L176.0 47.9 L176.2 47.8 L176.3 47.7 L176.4 47.5 L176.5 47.5 L176.6 47.4 L176.5 46.8 L176.5 46.6 L176.5 46.4 L176.6 46.3 L176.7 46.3 L176.8 46.3 L176.8 46.3 L176.7 46.3 L176.7 46.3 L176.7 46.3 L176.7 46.3 L176.9 46.3 L177.1 46.1 L177.2 46.0 L177.3 45.8 L177.4 45.4 L177.4 45.2 L177.6 45.1 L177.6 45.1 L177.7 45.0 L178.0 45.0 L178.3 44.9 L178.7 44.8 L178.8 44.8 L178.9 44.7 L178.9 44.6 L178.8 44.5 L178.4 44.2 L178.3 44.2 L178.3 44.1 L178.3 44.1 L178.2 44.1 L178.2 44.0 L178.4 43.7 L178.5 43.5 L178.8 43.4 L179.0 43.3 L179.9 43.1 L180.0 43.1 L180.5 43.3 L180.7 43.3 L180.8 43.3 L180.9 43.3 L181.0 43.3 L181.3 43.3 L181.6 43.4 L182.2 43.5 L182.3 43.6 L182.4 43.7 L182.5 43.8 L183.1 44.0 L183.2 44.1 L183.9 44.1 L184.0 44.1 L184.2 44.2 L184.4 44.3 L184.5 44.4 L184.7 44.5 L184.7 44.6 L184.8 44.7 L185.0 44.8 L185.1 44.8 L185.1 44.7 L185.1 44.7 L185.2 44.6 L185.4 44.4 L185.6 44.3 L185.8 44.2 L186.1 44.3 L186.3 44.4 L186.5 44.6 L187.0 45.5 L187.5 46.5 L187.6 46.7 L187.7 46.9 L188.4 47.5 L188.5 47.5 L188.5 47.7 L189.0 48.6 L189.1 49.0 L189.2 49.1 L189.2 49.2 L189.3 49.2 L189.3 49.3 L190.0 49.6 L190.2 49.8 L190.4 50.3 L190.6 50.5 L190.6 50.5 L190.6 50.6 L190.7 50.8 L190.8 50.9 L191.1 51.3 L191.4 51.5 L193.0 52.4 L193.2 52.4 L193.7 52.7 L193.8 52.8 L194.0 53.1 L194.2 53.5 L194.3 53.5 L194.4 53.6 L194.5 53.7 L194.6 53.8 L194.7 53.8 L194.9 54.3 L194.9 54.5 L194.9 54.6 L194.9 55.1 L194.9 55.7 L194.9 56.2 L194.8 56.5 L194.2 58.0 L194.1 58.2 L194.2 58.9 L194.2 59.2 L194.2 59.3 L194.3 59.5 L194.4 59.7 L194.4 59.8 L194.4 59.9 L194.3 60.2 L194.3 60.2 L194.3 60.3 L194.3 60.4 L194.5 61.3 L194.5 61.4 L194.5 61.5 L194.4 61.9 L194.2 62.3 L194.2 62.8 L194.2 63.0 L194.3 63.2 L194.4 63.4 L194.6 63.6 L195.1 63.9 L195.3 64.0 L195.5 64.2 L195.6 64.4 L195.7 64.6 L195.8 64.9 L195.8 65.0 L195.9 65.1 L196.0 65.2 L196.3 65.3 L196.3 65.4 L196.5 65.6 L196.6 65.7 L196.7 65.7 L196.9 65.8 L197.0 65.9 L197.1 66.1 L197.2 66.3 L197.1 66.8 L197.2 67.1 L197.3 67.3 L197.5 67.5 L197.7 67.7 L198.0 67.8 L199.3 68.3 L199.4 68.3 L199.9 68.3 L201.1 68.6 L201.2 68.6 L201.3 68.7 L201.3 68.8 L201.3 68.8 L201.2 68.9 L201.1 68.9 L200.9 69.0 L200.7 69.3 L200.6 69.7 L200.8 70.0 L201.2 70.9 L201.3 71.1 L201.4 71.2 L201.6 71.3 L201.7 71.3 L202.1 71.3 L202.4 71.3 L202.8 71.4 L203.3 71.7 L203.6 72.2 L203.7 72.7 L203.6 73.2 L203.3 73.8 L203.3 74.1 L203.3 74.5 L203.2 74.7 L203.1 74.8 L203.0 74.9 L202.7 75.1 L202.2 75.3 L202.0 75.4 L201.9 75.6 L201.9 75.8 L202.1 75.9 L202.3 76.0 L202.5 75.9 L202.7 75.9 L202.8 76.0 L202.8 76.2 L202.8 76.5 L202.7 76.5 L202.4 76.7 L202.1 76.9 L201.7 77.3 L201.6 77.5 L201.6 77.7 L201.5 77.9 L201.5 78.2 L201.6 78.3 L201.8 78.4 L202.1 78.6 L202.1 78.7 L202.3 78.6 L202.3 78.6 L202.4 78.7 L202.3 78.8 L202.4 78.9 L202.7 79.3 L202.8 79.4 L202.8 79.4 L202.8 79.4 L203.1 79.4 L203.0 79.6 L202.6 79.8 L202.5 80.0 L202.6 80.4 L202.6 80.6 L202.5 80.6 L202.3 80.6 L202.3 80.6 L202.3 80.7 L202.3 80.8 L202.4 81.0 L202.4 81.0 L202.3 81.1 L202.2 81.1 L202.1 81.2 L202.0 81.3 L202.0 81.6 L202.0 81.8 L202.1 82.0 L202.2 82.1 L202.1 82.6 L202.1 82.9 L202.2 83.6 L202.2 83.9 L202.1 84.2 L201.7 84.6 L201.5 84.9 L201.4 84.9 L201.4 85.0 L201.3 85.3 L201.2 85.4 L201.1 85.4 L200.8 85.5 L200.7 85.5 L200.6 85.6 L200.4 85.8 L200.4 85.8 L200.2 85.8 L200.0 85.7 L199.9 85.7 L199.9 85.7 L199.7 85.9 L199.7 86.0 L199.5 86.1 L198.9 86.2 L198.8 86.2 L198.5 86.4 L198.2 86.9 L197.9 87.4 L197.3 87.6 L197.1 87.5 L196.9 87.3 L196.6 86.7 L196.6 86.6 L196.6 86.1 L196.6 86.0 L196.6 85.9 L196.4 85.8 L196.0 85.7 L195.8 85.7 L195.7 85.7 L195.5 85.5 L195.4 85.5 L195.3 85.5 L195.1 85.5 L195.1 85.5 L194.9 85.4 L194.8 85.3 L194.6 85.3 L194.4 85.2 L194.3 85.3 L194.0 85.5 L193.8 85.6 L193.7 85.5 L193.7 85.3 L193.6 85.3 L193.5 85.3 L193.4 85.5 L193.3 85.6 L193.2 85.6 L192.9 85.4 L192.7 85.5 L192.6 85.5 L192.5 85.7 L192.4 85.9 L192.2 86.0 L192.0 86.1 L191.9 86.0 L191.7 86.0 L191.5 85.9 L191.4 86.0 L191.3 86.0 L191.2 86.1 L191.2 86.1 L191.1 86.1 L191.1 86.1 L191.0 86.1 L190.9 86.1 L189.7 85.9 L189.2 85.7 L188.9 85.6 L188.8 85.7 L188.6 85.8 L188.4 85.9 L188.3 85.8 L188.2 85.7 L188.2 85.6 L188.3 85.6 L188.2 85.6 L188.2 85.6 L188.1 85.7 L187.9 86.0 L187.8 86.0 L187.7 86.0 L187.6 86.0 L187.5 85.9 L187.5 85.9 L187.1 86.0 L186.8 86.1 L186.8 86.1 L186.7 86.2 L186.3 86.2 L186.0 86.0 L185.5 86.0 L185.4 86.1 L185.3 86.2 L185.3 86.3 L185.1 86.3 L184.9 86.3 L184.8 86.2 L184.7 86.1 L184.6 86.0 L184.5 86.0 L184.4 86.0 L184.3 86.0 L184.1 86.0 L183.9 86.0 L183.3 85.8 L183.0 85.8 L182.9 85.8 L182.9 85.7 L182.9 85.4 L182.9 85.3 L182.8 85.3 L182.7 85.2 L182.6 85.2 L182.5 85.2 L182.4 85.3 L182.4 85.3 L182.3 85.4 L182.3 85.5 L182.1 85.6 L181.9 85.6 L181.8 85.5 L181.6 85.4 L181.4 85.5 L181.0 85.7 L180.6 85.9 L180.5 86.0 L180.4 85.9 L180.3 85.9 L180.3 85.8 L180.2 85.8 L180.1 85.9 L179.8 86.1 L179.6 86.1 L179.4 86.2 L178.7 86.2 L178.3 86.3 L177.9 86.4 L177.2 86.5 L177.0 86.6 L176.7 86.7 L176.0 87.3 L175.8 87.5 L175.7 87.6 L175.3 87.7 L175.1 87.7 L174.9 87.9 L174.9 88.1 L174.9 88.1 L174.9 88.3 L174.8 88.5 L174.8 88.6 L174.6 88.9 L174.5 89.1 L174.4 89.4 L174.4 89.5 L174.4 89.6 L174.3 89.8 L173.6 90.3 L173.4 90.5 L173.2 90.9 L173.0 91.4 L172.9 91.6 L172.7 91.9 L172.7 91.9 L172.7 92.1 L172.7 92.3 L172.6 92.4 L172.4 92.6 L171.3 93.1 L171.0 93.3 L170.9 93.6 L171.2 93.8 L171.5 94.0 L171.4 94.1 L170.9 94.4 L170.7 94.4 L170.0 94.5 L169.2 94.4 L168.8 94.4 L168.6 94.7 L168.6 94.8 L168.7 95.0 L168.7 95.1 L168.7 95.2 L168.7 95.3 L168.7 95.3 L168.8 96.1 L168.7 96.8 L168.7 97.5 L168.7 97.5 L169.3 99.0 L169.5 99.3 L170.0 99.9 L170.1 100.2 L170.2 100.3 L170.4 100.4 L170.4 100.4 L170.4 100.5 L170.4 100.6 L170.3 100.6 L170.2 100.6 L170.2 100.7 L170.2 100.7 L170.2 100.8 L170.3 100.8 L170.3 100.9 L170.3 100.9 L170.2 101.0 L170.1 101.2 L170.2 101.3 L170.2 101.4 L170.3 101.6 L170.3 102.0 L170.4 102.3 L170.5 102.4 L170.5 102.4 L170.6 102.5 L170.6 102.6 L170.6 102.7 L170.5 103.1 L170.5 103.1 L170.3 103.2 L170.3 103.3 L170.3 103.6 L170.3 103.8 L170.4 104.0 L170.5 104.0 L170.5 104.1 L171.1 104.3 L171.4 104.5 L172.3 105.3 L172.5 105.5 L172.6 105.5 L172.6 105.6 L172.6 105.8 L172.7 105.9 L172.8 106.0 L173.2 106.2 L173.3 106.3 L173.3 106.4 L173.3 106.5 L173.2 106.7 L172.9 106.9 L172.8 107.1 L172.8 107.3 L172.5 109.0 L172.6 109.5 L173.2 110.3 L173.3 110.5 L173.4 110.5 L173.5 110.9 L173.6 111.4 L174.1 112.3 L174.6 112.9 L174.9 113.4 L175.0 113.8 L175.0 114.4 L174.9 114.7 Z M127.5 154.1 L127.6 154.0 L127.6 154.0 L127.7 153.9 L127.8 154.1 L127.8 154.2 L127.7 154.4 L127.3 154.5 L127.3 154.6 L127.3 155.0 L126.9 154.8 L126.8 154.8 L126.7 155.0 L126.6 155.3 L126.5 155.5 L126.4 155.5 L126.2 155.4 L126.2 155.2 L126.1 154.6 L126.1 154.5 L126.0 154.4 L126.0 154.3 L126.0 154.2 L126.0 154.2 L126.1 154.1 L126.1 154.1 L126.1 153.9 L126.0 153.9 L125.8 153.8 L125.8 153.8 L125.9 153.7 L126.0 153.6 L126.0 153.5 L126.0 153.4 L125.9 153.3 L126.0 153.2 L126.1 153.1 L126.1 153.0 L126.1 152.9 L126.0 152.7 L126.0 152.3 L126.0 152.2 L126.1 152.2 L126.1 152.0 L126.2 151.9 L126.2 151.7 L126.2 151.4 L126.1 151.0 L126.1 151.0 L126.2 151.0 L126.2 151.1 L126.3 151.1 L126.4 151.1 L126.5 151.2 L126.6 151.2 L126.7 151.4 L126.8 151.9 L126.8 151.9 L126.9 151.8 L127.1 151.9 L127.2 152.0 L127.4 152.2 L127.5 152.1 L127.6 152.0 L127.7 152.0 L127.8 152.2 L127.8 152.4 L127.7 152.5 L127.5 152.8 L127.5 152.8 L127.6 153.0 L127.5 153.1 L127.5 153.2 L127.4 153.2 L127.4 153.2 L127.3 153.3 L127.3 153.5 L127.4 153.7 L127.4 153.9 L127.5 154.1 Z" fill="#172033" fill-rule="evenodd"/></svg>
