<svg xmlns="http://www.w3.org/2000/svg" viewBox="0 0 320 200" role="img"><path d="M149.6 51.3 L150.3 52.2 L149.7 53.1 L148.6 53.7 L147.5 54.0 L145.6 53.7 L145.1 53.8 L144.9 54.0 L144.2 54.2 L144.2 54.2 L144.1 54.1 L143.9 54.0 L143.7 54.1 L143.6 54.1 L143.4 54.4 L142.0 55.3 L141.5 55.5 L139.3 56.1 L138.3 56.8 L138.2 57.7 L138.2 58.7 L137.9 60.0 L137.4 60.6 L136.8 61.1 L136.1 61.4 L135.4 61.6 L133.9 61.7 L133.4 61.8 L133.2 62.2 L132.9 62.9 L132.6 63.2 L131.8 63.0 L131.6 62.6 L131.7 62.0 L132.0 61.3 L132.5 60.8 L133.0 60.5 L133.6 60.3 L134.2 60.0 L134.7 59.2 L134.3 58.6 L133.5 58.1 L132.6 57.9 L129.8 57.6 L128.5 57.1 L127.2 57.0 L126.6 56.8 L126.0 56.3 L125.6 55.8 L125.1 55.4 L124.3 55.1 L123.5 55.0 L121.7 55.1 L121.0 54.9 L115.9 52.4 L114.7 52.3 L100.8 56.1 L100.2 56.2 L99.6 56.1 L99.4 55.9 L99.0 55.4 L98.8 55.3 L98.6 55.5 L98.5 56.1 L98.3 56.3 L97.6 57.1 L97.1 57.9 L96.8 58.9 L97.1 60.0 L97.2 60.2 L97.3 60.4 L97.4 60.6 L97.3 60.9 L98.1 62.0 L98.2 62.5 L94.8 63.4 L93.1 61.2 L92.1 60.3 L91.6 60.2 L91.4 60.3 L91.4 60.5 L91.3 60.9 L90.6 62.0 L89.0 65.8 L88.6 67.1 L88.5 68.5 L88.7 69.2 L89.2 69.6 L89.9 70.1 L90.4 70.5 L90.6 71.1 L90.8 71.8 L90.6 76.0 L91.1 76.8 L92.5 76.4 L92.7 76.1 L92.8 75.9 L92.9 75.6 L93.2 75.5 L93.4 75.6 L94.3 76.3 L95.0 76.5 L96.5 76.3 L97.3 76.3 L98.0 76.2 L98.6 76.1 L99.2 75.8 L100.4 75.0 L101.0 74.8 L104.1 74.6 L105.5 74.8 L106.9 75.1 L108.4 75.8 L109.8 76.1 L112.5 75.7 L114.0 75.8 L115.0 76.2 L115.3 76.0 L115.9 75.4 L116.5 75.0 L117.2 74.8 L118.0 74.8 L118.7 74.9 L119.9 75.5 L120.4 75.6 L121.0 75.5 L121.3 75.1 L122.3 73.5 L122.9 73.2 L123.2 73.5 L123.4 74.2 L123.4 74.8 L123.0 76.0 L123.0 76.5 L123.6 76.7 L124.3 76.6 L127.4 74.8 L127.9 74.7 L128.2 74.7 L129.0 74.9 L129.3 74.9 L129.5 74.8 L129.7 74.6 L129.9 74.4 L130.3 74.3 L130.9 74.2 L132.0 73.9 L132.6 73.8 L133.1 74.0 L133.9 74.5 L134.3 74.7 L135.0 74.8 L136.2 74.6 L136.9 74.6 L137.7 75.1 L138.2 75.9 L138.9 77.6 L138.9 77.6 L138.9 77.6 L139.3 77.9 L140.1 78.1 L140.5 78.4 L140.7 78.9 L140.6 79.3 L140.4 79.8 L140.4 80.3 L140.9 81.0 L141.9 81.4 L142.9 81.6 L143.9 81.4 L145.0 81.0 L145.4 80.9 L146.0 80.9 L146.3 80.9 L146.5 80.8 L147.0 80.4 L147.6 80.2 L148.4 80.5 L149.3 80.9 L150.3 81.1 L151.4 80.7 L152.0 79.7 L152.6 78.5 L153.3 77.5 L154.4 77.0 L155.9 76.6 L157.4 76.6 L159.4 76.9 L159.9 76.9 L160.2 76.7 L161.4 75.7 L161.9 75.4 L163.1 74.9 L163.3 74.7 L163.8 74.3 L164.1 74.2 L164.4 74.1 L165.4 73.9 L166.6 73.5 L167.3 73.4 L168.5 74.0 L169.0 74.4 L169.1 74.4 L169.6 75.0 L169.8 75.5 L169.6 76.0 L168.7 77.1 L168.4 77.6 L169.2 78.8 L170.6 79.4 L172.3 79.4 L175.9 78.8 L176.6 78.8 L177.2 79.2 L177.5 80.0 L177.6 80.9 L177.5 81.6 L177.1 82.2 L176.6 82.5 L176.2 83.0 L176.1 83.7 L176.4 84.4 L176.9 85.0 L177.6 85.4 L178.2 85.5 L179.5 85.4 L180.8 85.0 L184.3 83.1 L184.9 82.8 L186.2 82.6 L187.5 82.1 L188.1 82.0 L188.7 82.4 L189.1 83.2 L189.3 84.1 L189.4 84.8 L189.7 85.3 L190.4 85.6 L191.9 85.8 L192.2 85.9 L192.8 86.2 L193.5 86.5 L193.6 86.8 L193.6 87.0 L193.7 87.4 L194.1 87.9 L194.4 88.3 L194.4 88.4 L194.8 88.3 L196.3 85.9 L197.1 84.0 L197.5 83.4 L198.1 83.3 L198.9 83.2 L200.2 82.7 L200.8 82.6 L202.0 82.9 L202.6 82.9 L203.2 82.8 L204.3 81.9 L204.7 81.8 L205.2 81.9 L206.1 82.3 L206.7 82.4 L207.1 82.2 L207.7 81.5 L208.1 81.3 L208.7 81.1 L209.3 81.1 L215.8 82.5 L216.4 82.4 L217.9 82.2 L218.6 82.2 L220.8 82.6 L221.4 82.8 L222.0 82.7 L223.7 82.0 L224.1 82.0 L224.6 82.1 L225.2 82.3 L226.4 82.6 L227.6 82.5 L231.1 81.5 L233.2 81.2 L233.4 80.9 L233.5 80.4 L233.7 79.8 L234.6 79.4 L238.5 78.6 L239.7 78.5 L243.0 78.8 L244.0 79.2 L243.9 79.9 L244.3 81.9 L244.4 82.6 L244.3 83.2 L243.2 85.7 L242.9 86.7 L243.1 87.7 L243.9 88.9 L245.4 90.0 L245.7 90.5 L246.0 91.7 L246.3 92.3 L246.7 92.7 L248.8 94.0 L249.9 95.0 L250.4 95.3 L250.8 95.9 L250.9 96.4 L250.7 97.0 L250.2 97.4 L249.4 97.6 L247.7 97.6 L246.9 97.9 L246.4 98.3 L245.9 98.9 L245.7 99.5 L245.8 100.2 L246.2 100.7 L247.2 101.6 L247.6 102.1 L247.7 102.8 L247.5 104.3 L247.6 104.9 L248.9 106.5 L249.1 107.0 L249.5 108.5 L249.8 109.1 L250.4 109.6 L251.0 109.9 L252.3 110.3 L252.9 110.6 L254.0 111.4 L254.6 111.6 L257.9 111.7 L258.5 111.6 L259.0 111.0 L258.7 110.5 L258.3 109.9 L258.2 109.2 L258.5 109.0 L259.9 108.7 L260.1 108.4 L260.2 108.1 L260.2 107.8 L260.3 107.5 L260.8 107.0 L261.3 106.7 L261.9 106.7 L264.0 107.3 L264.7 107.4 L265.5 107.4 L268.0 106.7 L268.7 106.8 L273.7 108.7 L279.7 110.5 L280.4 110.9 L280.9 111.4 L281.5 111.8 L282.3 111.9 L283.1 111.9 L283.8 112.0 L284.3 112.3 L284.9 112.9 L284.9 112.9 L285.2 113.3 L285.5 113.5 L286.1 113.8 L286.3 114.0 L286.4 114.3 L286.5 114.6 L286.7 115.6 L286.7 116.3 L286.5 116.9 L286.1 117.5 L284.6 118.8 L284.3 119.4 L284.1 120.0 L284.1 123.4 L284.8 127.4 L285.5 128.4 L288.0 129.6 L288.4 130.5 L288.3 132.8 L288.4 133.7 L288.4 133.9 L288.5 134.1 L288.9 134.3 L289.2 134.5 L289.1 134.8 L288.5 135.5 L288.2 135.7 L288.1 135.8 L288.2 136.3 L288.4 136.6 L288.6 136.8 L290.4 137.5 L290.8 137.9 L291.0 138.5 L290.9 138.9 L290.6 139.2 L290.0 139.8 L289.8 140.1 L289.7 140.5 L289.6 140.8 L289.5 141.1 L289.1 141.6 L288.6 142.1 L288.2 142.6 L288.1 143.2 L288.4 144.5 L289.2 145.5 L290.3 146.3 L293.5 147.7 L294.1 148.2 L295.9 150.1 L296.9 150.8 L298.0 151.5 L296.3 151.9 L295.4 152.3 L295.0 152.9 L294.9 154.2 L294.6 154.6 L291.3 155.6 L290.5 155.7 L289.8 156.0 L289.5 156.6 L289.1 157.2 L288.4 157.5 L287.4 157.0 L285.7 154.8 L284.7 153.9 L280.2 151.7 L279.2 152.2 L275.6 152.4 L275.3 152.4 L275.0 152.3 L273.7 152.0 L273.0 151.7 L272.3 151.8 L271.7 151.9 L270.7 151.7 L270.3 151.7 L269.9 151.6 L269.4 150.9 L269.1 150.8 L268.7 150.8 L268.2 151.0 L268.1 150.5 L267.6 151.5 L266.8 151.6 L265.8 151.4 L264.8 151.4 L264.2 151.9 L264.2 153.1 L263.5 153.7 L262.7 154.0 L258.8 154.6 L256.1 155.4 L255.4 155.5 L253.4 156.2 L251.9 156.4 L251.1 156.6 L249.8 157.5 L249.3 157.6 L248.8 157.5 L248.0 157.5 L247.6 157.6 L247.0 157.9 L246.7 158.0 L246.4 157.8 L245.9 157.3 L245.6 157.1 L244.9 157.0 L243.4 157.4 L242.9 157.1 L242.7 156.4 L243.2 155.7 L243.9 155.2 L244.6 155.0 L246.0 154.8 L246.5 154.6 L247.1 154.2 L247.7 153.7 L247.9 153.2 L248.0 151.7 L248.0 151.4 L248.2 150.5 L247.0 150.4 L245.4 150.4 L243.0 149.9 L238.8 148.6 L237.2 148.7 L235.0 149.6 L234.4 149.5 L233.8 149.2 L233.0 149.1 L232.1 149.2 L231.4 149.4 L230.8 149.7 L229.1 151.2 L228.7 151.3 L228.0 151.1 L227.6 151.2 L226.3 152.0 L225.7 152.6 L225.1 153.6 L224.7 154.1 L224.0 154.5 L221.5 154.7 L219.0 155.9 L218.2 156.7 L217.3 156.9 L215.7 157.1 L214.2 157.8 L213.2 159.0 L211.6 161.7 L210.1 163.6 L209.9 164.3 L209.6 164.6 L204.3 165.2 L203.1 165.7 L200.7 165.3 L199.1 165.6 L195.5 166.8 L194.1 167.5 L193.8 167.8 L193.3 168.5 L192.9 168.7 L191.7 169.3 L190.8 170.1 L180.6 176.2 L179.2 176.7 L177.5 177.0 L175.8 177.0 L174.1 176.7 L172.6 176.0 L171.4 175.0 L171.0 174.4 L170.6 173.7 L170.3 173.0 L170.1 171.4 L169.7 170.7 L167.7 168.1 L167.4 167.4 L167.3 166.7 L167.3 165.2 L167.2 164.8 L166.6 164.1 L166.3 163.7 L166.3 163.2 L166.3 161.1 L166.6 159.7 L166.8 159.1 L167.1 158.8 L166.9 158.0 L168.2 156.2 L168.3 155.2 L168.5 154.8 L168.6 154.0 L168.5 152.5 L168.2 151.2 L168.4 150.7 L168.8 149.9 L169.1 148.5 L168.6 145.6 L168.8 144.1 L168.9 143.9 L169.3 143.4 L169.5 143.1 L169.6 142.8 L169.7 141.7 L170.1 140.6 L170.2 140.2 L170.1 139.8 L169.8 139.1 L169.7 138.8 L170.0 138.1 L171.3 137.5 L171.9 136.8 L172.0 136.2 L172.1 135.4 L172.0 134.6 L171.9 134.2 L172.2 133.9 L171.1 132.9 L170.0 132.3 L168.7 132.2 L164.4 133.4 L163.8 133.8 L163.1 134.1 L162.3 133.8 L161.0 133.0 L160.6 132.9 L160.4 133.0 L160.2 132.9 L160.0 132.5 L160.1 132.1 L160.4 131.3 L160.7 130.4 L161.7 128.8 L162.2 127.4 L162.9 126.4 L163.1 125.3 L163.7 123.8 L163.9 123.0 L163.7 121.5 L162.9 120.4 L161.6 119.8 L158.7 118.8 L156.6 117.0 L155.2 116.3 L154.2 115.9 L153.8 115.8 L153.3 115.8 L153.1 115.9 L152.8 115.9 L152.5 115.7 L152.2 115.4 L151.9 114.7 L151.7 114.4 L151.4 114.1 L151.0 113.9 L150.6 113.7 L150.1 113.6 L149.3 113.6 L149.1 113.9 L149.2 114.7 L148.8 115.0 L148.0 114.9 L146.5 114.3 L146.1 114.4 L145.9 114.5 L145.8 114.7 L145.5 114.8 L145.2 114.8 L144.6 114.6 L144.3 114.6 L143.2 114.6 L142.6 114.7 L142.4 114.9 L141.9 115.5 L139.9 115.7 L139.2 116.0 L139.2 116.3 L139.9 116.7 L139.6 117.1 L138.4 117.8 L138.1 118.0 L137.3 117.9 L136.9 118.1 L136.8 118.4 L136.8 118.8 L136.8 119.1 L136.8 119.4 L136.3 120.6 L136.0 120.8 L135.5 120.9 L135.1 121.1 L134.8 121.9 L133.7 123.5 L132.8 125.5 L132.4 126.1 L132.0 126.4 L130.8 126.8 L130.4 127.0 L128.9 128.3 L127.3 129.9 L127.0 130.1 L126.3 130.4 L126.1 130.5 L126.0 130.6 L125.8 131.0 L125.4 131.1 L125.0 131.2 L124.7 131.3 L124.6 131.6 L124.6 131.9 L124.7 132.2 L125.0 132.5 L124.2 132.7 L123.3 132.8 L122.6 132.7 L121.8 132.2 L121.4 133.1 L121.6 134.2 L122.1 135.2 L122.7 136.0 L123.1 136.1 L124.3 136.4 L124.5 136.7 L124.6 137.2 L124.8 137.7 L125.1 138.0 L125.5 138.3 L125.3 138.7 L125.4 139.2 L125.7 140.2 L125.8 140.7 L125.7 141.0 L125.5 141.3 L125.5 141.8 L125.0 142.3 L124.9 142.4 L124.7 142.5 L124.7 142.8 L124.8 143.1 L124.7 143.4 L124.5 143.6 L124.5 143.7 L124.3 143.8 L124.2 143.8 L123.5 143.8 L123.4 143.8 L122.9 144.9 L122.8 145.2 L122.6 145.3 L121.3 146.5 L120.3 146.8 L119.3 146.7 L118.2 146.4 L117.2 146.2 L117.5 146.5 L116.4 146.3 L116.0 146.2 L115.9 146.2 L115.7 146.0 L115.6 145.8 L115.4 145.6 L114.9 145.5 L114.2 145.3 L113.8 144.8 L113.5 144.2 L112.9 143.8 L112.1 143.8 L110.6 144.4 L109.9 144.6 L109.5 144.7 L109.2 144.9 L108.8 145.1 L108.4 144.9 L108.2 144.8 L107.4 144.6 L107.1 144.6 L106.2 144.6 L104.7 145.2 L103.9 145.3 L99.1 144.9 L98.4 145.2 L97.8 146.7 L97.1 147.3 L95.5 148.2 L95.4 148.3 L95.1 148.8 L95.0 148.9 L94.7 149.1 L94.2 149.4 L94.0 149.6 L93.8 150.2 L93.8 150.8 L93.8 152.2 L93.9 152.3 L94.2 152.4 L94.3 152.5 L94.3 152.7 L94.2 152.8 L94.1 152.8 L94.0 152.9 L94.1 153.2 L94.1 153.6 L94.2 153.9 L94.4 154.1 L94.7 154.6 L94.9 155.8 L95.2 156.2 L94.9 156.9 L95.5 157.2 L96.2 157.3 L96.1 157.7 L94.9 159.3 L94.3 159.8 L92.9 160.5 L92.3 161.1 L91.9 161.3 L91.5 161.5 L91.4 161.5 L90.6 161.6 L89.9 161.9 L89.2 161.9 L85.8 160.1 L85.6 160.1 L84.8 159.6 L84.5 159.3 L83.9 158.1 L83.2 157.7 L82.4 157.2 L81.7 156.7 L81.2 155.4 L80.7 154.8 L80.0 154.3 L79.3 154.0 L76.9 153.8 L76.7 153.7 L76.5 153.7 L76.4 153.8 L76.6 154.2 L76.8 154.4 L77.4 154.8 L77.6 154.9 L77.7 155.4 L77.5 155.8 L77.1 155.8 L76.6 155.7 L76.1 155.2 L75.8 154.6 L75.4 154.1 L74.7 154.0 L73.9 154.2 L73.8 154.6 L74.2 155.7 L74.3 156.4 L74.1 156.8 L73.7 156.7 L72.4 156.1 L72.0 155.9 L71.5 155.9 L70.8 155.9 L69.4 155.8 L68.8 155.8 L68.4 156.2 L68.6 156.3 L68.7 156.5 L68.9 156.9 L68.1 157.0 L67.7 157.5 L67.5 158.1 L67.3 158.3 L66.7 158.4 L65.4 158.7 L64.7 158.8 L64.5 159.0 L64.0 159.6 L63.7 159.8 L63.3 159.8 L61.6 160.1 L59.4 160.3 L59.9 161.1 L59.7 161.6 L59.0 161.9 L58.1 162.0 L57.4 161.8 L56.7 161.6 L56.0 161.6 L55.4 162.0 L55.1 162.6 L55.1 163.3 L55.4 164.7 L55.0 165.3 L54.1 165.2 L52.7 164.9 L51.8 165.0 L51.1 165.4 L50.6 165.9 L49.9 166.1 L49.5 166.3 L47.1 167.9 L46.8 168.1 L46.3 168.2 L46.1 168.2 L45.9 168.2 L45.6 168.0 L45.4 167.8 L45.3 167.5 L45.1 167.2 L43.8 166.0 L43.5 165.7 L42.7 165.4 L42.3 165.1 L41.8 164.4 L41.4 163.8 L40.9 163.3 L39.3 163.0 L38.4 162.7 L37.6 162.2 L37.2 161.7 L37.1 161.2 L37.5 158.9 L37.6 158.4 L38.3 157.4 L38.7 156.2 L38.9 154.9 L38.7 153.4 L38.0 150.6 L38.2 149.2 L39.2 147.0 L40.7 144.9 L42.5 143.1 L44.4 141.6 L47.0 138.8 L48.0 137.2 L49.5 133.6 L50.1 133.1 L51.2 132.8 L52.9 132.6 L53.4 132.4 L53.6 132.3 L54.0 132.1 L54.2 131.7 L54.4 131.1 L54.7 130.5 L54.7 130.5 L54.7 130.5 L54.7 130.5 L54.7 130.5 L55.1 129.9 L56.5 128.2 L57.3 126.2 L57.9 124.2 L57.8 122.8 L56.9 121.7 L54.1 119.8 L52.3 119.0 L51.7 118.5 L50.4 116.6 L49.0 115.6 L48.7 115.1 L48.5 114.6 L48.5 113.4 L48.3 112.9 L47.4 111.9 L47.1 111.4 L47.0 110.6 L47.2 108.6 L47.1 107.9 L46.6 106.6 L46.5 105.9 L46.8 105.4 L47.7 104.9 L47.9 104.7 L47.9 104.3 L47.7 104.0 L47.5 103.6 L47.4 103.3 L47.5 102.5 L47.9 102.3 L48.6 102.3 L49.4 102.2 L50.0 101.9 L50.5 101.6 L51.0 101.1 L51.3 100.5 L51.3 99.7 L51.0 99.0 L50.6 98.6 L49.9 97.8 L48.8 95.8 L48.2 95.3 L48.2 95.3 L48.2 95.2 L48.2 95.2 L47.9 95.2 L47.6 95.2 L47.3 95.2 L47.1 95.2 L46.5 95.6 L45.9 95.8 L45.3 95.7 L44.8 95.3 L44.5 95.1 L43.9 95.0 L43.4 95.0 L42.9 95.1 L42.4 95.3 L42.4 95.3 L42.4 95.3 L39.7 96.0 L38.8 96.0 L34.3 95.4 L33.7 94.9 L33.6 94.9 L33.6 94.9 L33.5 94.0 L33.9 91.3 L33.8 90.8 L33.8 90.8 L33.5 90.4 L33.2 90.3 L32.7 90.4 L32.4 90.4 L32.2 90.2 L31.9 89.8 L31.8 89.7 L30.4 89.3 L27.5 89.2 L23.3 88.0 L22.3 87.3 L22.3 87.3 L22.0 85.9 L22.1 85.4 L22.1 85.1 L22.3 85.0 L22.6 84.7 L23.0 84.6 L23.3 84.7 L23.6 84.7 L23.8 83.5 L24.3 82.3 L24.3 81.0 L24.5 79.6 L25.0 78.2 L25.3 77.9 L25.8 77.8 L26.8 77.9 L26.9 77.9 L27.1 77.8 L27.2 77.7 L27.4 77.6 L27.1 76.1 L27.8 75.5 L30.6 75.2 L33.9 73.4 L35.2 73.0 L36.9 73.1 L48.9 75.5 L54.2 75.6 L57.1 76.4 L58.8 76.5 L60.6 76.4 L62.8 75.9 L63.5 75.7 L63.4 75.7 L63.2 75.2 L63.1 75.0 L63.6 74.5 L65.1 73.7 L65.9 73.0 L66.4 72.4 L66.6 71.5 L66.9 65.8 L67.3 65.1 L67.7 65.1 L68.2 65.2 L69.4 64.4 L69.9 64.7 L70.9 65.9 L71.4 66.1 L71.6 65.9 L71.7 65.5 L71.7 65.4 L71.7 65.3 L71.9 64.8 L72.0 64.7 L72.4 64.7 L72.6 64.6 L73.0 63.9 L73.0 63.4 L72.2 62.1 L71.9 61.4 L71.7 60.7 L72.0 60.4 L72.7 60.8 L73.4 62.0 L74.0 63.6 L74.8 64.5 L76.3 64.0 L76.2 63.3 L73.0 60.0 L72.9 59.6 L72.8 59.3 L72.9 58.6 L72.8 58.3 L72.1 57.9 L72.1 57.6 L72.5 56.9 L73.1 57.3 L73.9 58.4 L74.3 58.3 L75.6 57.4 L76.3 57.2 L78.9 57.6 L79.7 57.5 L80.0 57.0 L80.0 56.5 L79.9 56.0 L79.7 55.5 L78.0 54.6 L69.8 55.8 L69.4 55.9 L68.2 55.5 L66.6 54.7 L65.7 54.0 L66.4 53.6 L67.9 53.3 L69.8 52.9 L70.6 52.8 L72.7 53.1 L73.5 53.0 L74.7 52.5 L75.4 52.2 L81.2 51.6 L82.0 51.7 L83.1 52.1 L84.3 52.6 L87.5 53.3 L89.2 53.3 L90.5 52.9 L90.5 52.0 L88.0 50.3 L87.8 49.2 L88.8 49.1 L90.1 49.5 L91.3 49.4 L91.5 47.7 L91.3 46.9 L90.9 46.2 L90.0 44.9 L89.6 44.3 L88.9 42.3 L88.9 42.3 L87.5 40.5 L87.5 39.8 L88.7 39.1 L90.9 39.0 L91.4 38.7 L91.5 38.2 L91.3 36.4 L91.3 35.1 L91.6 34.0 L92.1 33.1 L93.0 32.2 L93.5 31.9 L94.1 31.7 L95.2 31.4 L95.9 31.4 L96.3 31.7 L96.8 32.1 L97.3 32.3 L98.5 32.4 L99.3 33.0 L100.6 34.6 L101.0 34.9 L101.9 35.3 L102.3 35.7 L103.0 36.5 L103.3 36.9 L103.8 37.2 L104.9 37.5 L105.8 37.3 L106.7 36.7 L108.1 35.3 L108.8 34.8 L109.6 34.6 L116.1 33.0 L119.4 31.0 L123.1 29.9 L125.7 28.8 L127.6 27.0 L128.6 23.3 L129.9 23.0 L131.5 23.5 L131.9 23.9 L132.6 24.5 L132.7 24.6 L132.8 24.7 L133.9 25.4 L140.4 30.9 L140.7 31.3 L140.6 31.9 L139.9 31.7 L138.7 30.9 L138.0 31.0 L137.6 31.4 L137.7 32.0 L138.3 32.6 L141.5 33.1 L142.8 33.7 L142.5 34.9 L142.5 35.2 L142.5 35.2 L141.9 35.5 L141.8 35.6 L141.7 35.8 L141.6 35.9 L141.0 36.0 L140.7 36.1 L140.2 36.4 L139.7 36.8 L137.5 38.2 L136.3 39.3 L135.9 39.6 L135.3 39.8 L134.8 39.9 L134.3 40.1 L133.8 40.5 L133.0 41.6 L132.6 41.9 L132.3 42.0 L129.9 42.5 L128.8 43.0 L128.3 43.7 L128.3 44.4 L128.4 44.6 L128.4 44.7 L128.9 45.2 L128.9 45.2 L129.0 45.2 L129.3 45.5 L129.4 45.6 L128.9 46.9 L130.6 47.5 L131.4 47.6 L132.1 47.6 L132.8 47.4 L133.5 47.4 L134.3 47.6 L135.2 48.8 L135.7 50.4 L136.3 51.9 L137.7 52.7 L139.2 52.8 L140.7 52.7 L145.8 51.5 L148.9 51.3 L149.6 51.3 Z" fill="#172033" fill-rule="evenodd"/></svg>
