<svg xmlns="http://www.w3.org/2000/svg" viewBox="0 0 320 200" role="img"><path d="M57.3 130.4 L57.4 132.2 L56.2 136.8 L55.8 139.7 L55.4 140.5 L55.2 140.8 L54.9 141.1 L53.2 143.2 L50.7 145.3 L50.0 145.7 L49.6 145.7 L49.3 145.9 L48.7 146.8 L48.5 149.3 L48.2 149.9 L47.4 151.1 L47.1 151.7 L47.1 152.3 L47.5 153.7 L47.4 154.5 L46.7 155.7 L45.5 156.4 L44.1 156.7 L42.5 156.9 L41.5 157.1 L41.1 157.4 L41.0 157.3 L40.8 156.2 L40.8 155.7 L41.1 154.2 L41.1 153.6 L40.8 152.2 L40.2 150.7 L39.4 149.4 L38.5 148.2 L37.2 147.1 L36.1 146.7 L34.9 146.7 L33.5 147.3 L32.4 148.2 L30.7 150.5 L29.7 151.2 L27.1 150.7 L24.7 148.7 L22.0 144.0 L23.5 143.6 L30.3 140.9 L31.8 140.8 L32.9 140.2 L34.7 137.6 L35.5 136.7 L38.1 135.6 L43.7 133.9 L51.9 132.3 L52.8 131.8 L53.5 130.9 L55.2 130.6 L57.3 130.4 L57.3 130.4 Z M96.8 112.1 L99.7 110.5 L101.4 108.7 L105.5 102.6 L105.9 101.3 L106.6 100.6 L110.4 99.2 L111.6 98.1 L112.0 96.6 L112.5 89.1 L113.2 87.2 L114.3 85.5 L115.7 84.3 L117.4 83.7 L121.2 83.2 L122.8 82.3 L123.5 82.1 L126.6 82.6 L127.5 82.3 L130.0 80.9 L135.6 79.3 L137.3 79.1 L142.8 79.4 L144.5 79.1 L149.1 77.0 L151.1 76.8 L153.3 77.4 L154.3 77.4 L156.6 75.1 L158.1 75.7 L160.6 75.8 L165.2 75.1 L175.0 71.9 L179.0 71.7 L187.8 73.2 L191.2 74.8 L193.4 75.1 L195.3 74.7 L198.8 73.6 L199.5 73.5 L200.6 73.3 L204.4 73.3 L207.8 72.8 L209.5 72.0 L213.2 69.4 L215.9 68.6 L218.7 67.0 L219.6 66.9 L221.3 66.8 L222.2 66.5 L223.7 67.6 L225.5 68.3 L227.4 68.7 L229.4 68.8 L230.6 69.2 L233.7 72.1 L237.2 71.0 L243.7 68.0 L245.9 67.4 L247.5 66.2 L248.1 65.9 L249.1 65.9 L250.5 66.4 L251.1 66.5 L254.8 65.7 L258.4 64.1 L267.0 58.0 L268.9 57.2 L270.3 57.5 L271.6 58.5 L277.5 61.3 L279.1 61.7 L281.2 61.9 L283.3 61.7 L284.7 61.0 L287.3 59.2 L287.9 58.9 L289.0 59.2 L289.4 59.7 L289.6 60.5 L290.2 61.3 L292.0 62.3 L295.8 63.4 L297.4 64.4 L298.0 66.1 L297.2 67.6 L291.0 72.1 L287.2 76.0 L279.5 81.9 L274.0 87.2 L273.4 88.0 L272.4 88.1 L266.6 89.4 L261.1 93.3 L258.7 94.5 L246.0 95.4 L244.1 95.8 L243.1 96.3 L240.7 98.1 L240.1 98.4 L239.3 98.5 L237.5 98.6 L236.6 99.0 L233.3 102.7 L230.3 107.9 L227.3 110.5 L223.8 111.5 L201.5 114.3 L199.2 115.3 L197.9 115.8 L191.6 120.1 L183.2 125.9 L181.6 126.4 L176.6 125.6 L175.0 125.7 L174.0 126.2 L172.2 127.7 L171.2 128.1 L167.7 128.1 L166.0 128.5 L160.6 131.5 L159.0 131.6 L154.8 130.9 L153.4 131.2 L151.7 132.6 L150.0 133.5 L144.6 135.5 L135.4 138.9 L132.4 140.8 L128.0 144.3 L125.7 145.3 L124.7 146.5 L123.1 148.8 L122.2 149.8 L121.3 150.6 L120.1 151.0 L116.1 151.3 L114.5 151.8 L113.1 152.6 L111.6 154.1 L108.7 156.1 L107.8 151.0 L107.4 149.7 L105.5 146.8 L105.5 146.2 L105.6 144.9 L105.5 144.3 L105.0 143.8 L103.3 142.7 L101.3 140.9 L100.7 140.0 L100.2 138.5 L99.7 135.6 L100.0 133.1 L101.4 131.4 L104.1 130.9 L105.9 131.0 L106.4 131.1 L107.0 131.5 L108.0 132.7 L108.6 133.0 L109.8 133.1 L110.5 132.6 L111.2 131.8 L112.5 131.1 L113.5 131.1 L115.5 131.2 L116.2 130.9 L116.5 130.1 L116.4 129.6 L116.2 129.2 L115.9 128.3 L115.7 127.5 L117.2 122.2 L117.2 120.4 L116.5 118.7 L115.3 117.4 L113.7 116.3 L112.2 115.4 L111.5 114.9 L111.2 114.3 L110.8 114.1 L110.0 114.5 L109.7 115.0 L109.3 116.6 L109.0 117.2 L107.9 118.2 L103.9 120.0 L101.8 121.3 L100.7 121.8 L99.2 121.9 L97.9 121.6 L96.9 120.8 L96.2 119.7 L95.8 118.4 L95.9 117.0 L97.0 114.1 L96.8 112.1 Z M151.4 47.7 L152.3 46.3 L154.4 44.1 L156.7 42.6 L158.2 43.2 L157.5 45.9 L154.3 53.8 L153.7 56.4 L153.3 57.1 L152.5 57.7 L151.8 57.9 L151.4 57.5 L150.8 57.2 L148.1 56.4 L147.0 55.8 L146.2 54.8 L145.9 54.0 L146.1 53.2 L146.8 52.1 L147.8 51.0 L150.8 48.8 L151.4 47.7 Z" fill="#172033" fill-rule="evenodd"/></svg>
