<svg xmlns="http://www.w3.org/2000/svg" viewBox="0 0 320 200" role="img"><path d="M238.7 22.6 L238.9 22.9 L239.6 24.4 L240.5 26.6 L241.5 28.9 L242.5 31.1 L243.5 33.3 L244.5 35.6 L245.5 37.8 L246.5 40.0 L247.5 42.3 L248.5 44.5 L249.5 46.7 L250.4 49.0 L251.4 51.2 L252.4 53.4 L253.4 55.7 L254.4 57.9 L255.4 60.1 L256.1 61.8 L256.1 61.8 L256.0 61.8 L255.9 61.8 L256.3 62.0 L257.1 62.1 L257.5 62.2 L257.8 62.5 L258.7 64.5 L260.1 67.6 L261.6 70.7 L263.0 73.9 L264.5 77.0 L264.4 77.0 L264.0 77.2 L262.9 77.5 L262.0 77.3 L261.8 77.6 L261.5 77.6 L261.2 77.6 L261.0 77.7 L260.5 78.2 L260.3 78.4 L259.7 78.5 L258.9 79.0 L257.9 79.2 L257.5 79.4 L256.6 79.9 L256.3 80.0 L253.1 80.8 L251.6 81.5 L249.0 83.3 L246.6 85.1 L246.0 85.8 L245.7 86.2 L245.3 87.0 L244.5 87.9 L244.4 88.1 L244.3 88.4 L244.3 88.7 L244.3 88.9 L244.4 89.2 L244.4 89.2 L244.2 89.7 L243.7 90.2 L243.5 91.2 L242.9 91.8 L242.8 92.2 L243.0 92.7 L243.3 93.2 L243.5 93.7 L243.3 94.7 L243.7 95.0 L244.4 95.4 L244.4 95.7 L244.3 97.4 L244.4 98.4 L244.6 99.4 L244.7 99.5 L244.8 99.6 L244.9 99.8 L244.9 99.9 L244.7 100.1 L244.7 100.2 L244.7 100.4 L244.6 100.6 L244.5 100.7 L244.3 100.8 L243.8 100.8 L240.3 101.8 L240.1 102.0 L240.0 102.1 L239.8 102.2 L239.6 102.3 L239.3 102.3 L239.0 102.4 L237.2 103.1 L236.3 103.6 L236.3 104.1 L236.3 104.2 L236.3 104.3 L236.2 104.3 L236.2 104.3 L236.2 104.5 L236.1 104.6 L236.0 104.5 L235.9 104.4 L235.7 104.4 L235.5 104.2 L235.3 104.1 L235.0 104.4 L234.8 104.4 L233.7 104.7 L231.8 105.7 L231.5 105.9 L231.4 106.3 L231.5 106.7 L231.7 107.0 L231.7 107.1 L231.3 107.3 L228.8 107.5 L228.4 107.7 L228.0 107.9 L227.6 108.1 L227.1 108.7 L226.6 108.8 L226.4 108.8 L226.4 109.0 L226.1 109.0 L224.9 109.5 L224.6 109.7 L224.0 109.5 L223.4 109.7 L222.8 110.1 L222.3 110.3 L217.7 111.5 L212.7 112.4 L208.3 113.6 L205.8 113.9 L203.6 114.8 L203.0 115.1 L201.2 116.5 L200.9 116.7 L200.0 116.9 L198.6 117.6 L197.1 118.6 L196.8 118.6 L196.3 118.5 L195.8 118.6 L194.8 119.0 L194.4 119.2 L194.2 119.2 L193.9 119.2 L193.8 118.7 L193.7 118.5 L193.4 118.5 L193.1 118.6 L191.6 118.7 L188.3 119.8 L183.2 121.1 L180.5 122.5 L179.5 122.9 L178.4 123.1 L178.0 123.3 L177.1 124.0 L175.1 124.8 L174.2 125.4 L174.0 126.2 L173.8 126.1 L173.5 126.0 L173.0 125.8 L172.5 125.9 L172.0 126.1 L171.6 126.4 L170.5 128.0 L170.1 128.8 L169.8 129.8 L170.0 129.9 L170.0 130.2 L170.0 130.5 L169.9 130.6 L169.6 130.8 L168.7 131.2 L168.5 131.3 L168.3 131.9 L168.0 132.1 L167.6 132.1 L167.2 132.3 L167.1 132.5 L167.1 132.7 L167.1 133.2 L167.0 133.3 L166.8 133.5 L166.7 133.6 L166.4 134.3 L166.0 134.5 L165.1 134.9 L163.8 136.5 L163.3 136.8 L163.2 136.8 L162.9 137.0 L162.8 137.1 L162.6 137.1 L162.5 137.1 L159.8 137.1 L159.4 137.2 L158.3 138.1 L158.1 138.2 L157.9 138.2 L157.7 138.2 L157.5 138.4 L157.1 137.9 L156.3 137.7 L154.5 137.7 L154.6 137.8 L154.7 138.1 L153.7 138.1 L151.1 138.8 L151.2 138.3 L150.8 137.9 L150.3 137.7 L149.9 137.4 L149.8 137.6 L149.1 137.3 L147.1 136.8 L146.7 137.0 L145.5 137.4 L145.1 137.4 L144.8 137.6 L143.6 139.0 L142.6 139.6 L139.0 140.7 L138.5 141.1 L136.6 143.0 L133.6 145.6 L132.8 146.1 L127.4 147.7 L121.5 148.9 L119.5 150.2 L116.6 151.3 L116.2 151.4 L115.8 151.3 L115.0 151.1 L114.4 151.1 L113.9 151.2 L112.9 151.6 L112.5 151.7 L107.7 151.7 L106.7 151.5 L106.2 151.3 L105.8 151.2 L105.7 151.3 L105.6 151.3 L105.0 151.5 L103.0 151.8 L99.0 152.0 L98.6 152.1 L97.9 152.4 L97.5 152.5 L96.6 152.4 L96.2 152.5 L95.9 152.7 L92.7 153.3 L91.9 153.7 L89.7 156.0 L89.1 156.4 L88.7 156.8 L88.4 157.6 L87.3 159.0 L86.6 159.6 L85.7 160.0 L81.8 161.0 L80.9 161.4 L80.0 162.1 L79.7 162.5 L79.6 162.7 L79.5 163.0 L79.4 163.0 L79.3 163.4 L79.2 163.8 L79.2 163.9 L78.6 165.3 L78.6 165.5 L78.7 166.4 L78.6 166.8 L78.2 166.9 L77.7 166.8 L77.2 166.6 L76.8 166.3 L76.8 166.0 L77.2 165.8 L77.7 165.8 L78.1 165.8 L78.3 165.4 L78.2 165.4 L77.8 164.9 L77.8 164.8 L77.8 164.8 L77.8 164.7 L77.8 164.6 L77.6 164.5 L77.5 164.6 L77.5 164.7 L77.5 164.8 L77.5 164.8 L77.3 165.1 L77.2 165.2 L77.1 165.1 L76.9 165.0 L76.8 165.0 L76.2 165.0 L76.0 165.1 L75.9 165.2 L75.7 165.6 L75.4 165.9 L74.9 166.0 L74.6 165.6 L74.3 165.8 L74.2 166.0 L74.3 166.6 L74.5 166.4 L74.6 166.4 L75.4 166.5 L75.5 166.5 L75.4 166.8 L75.3 167.1 L74.9 167.4 L74.5 167.5 L74.2 167.5 L73.6 167.2 L73.4 167.1 L73.2 166.9 L73.2 166.8 L73.2 166.7 L72.9 166.6 L72.3 166.5 L71.9 166.7 L71.0 167.2 L71.0 167.1 L70.9 167.0 L70.8 166.9 L70.9 166.7 L70.8 166.3 L70.5 166.0 L70.2 165.8 L69.2 165.5 L68.3 165.4 L67.4 165.6 L66.7 166.0 L65.5 167.0 L64.2 168.3 L64.1 168.5 L64.0 168.8 L63.8 168.9 L63.7 168.6 L63.6 168.5 L63.0 168.7 L62.4 168.9 L60.9 169.6 L60.3 169.7 L59.9 169.6 L59.4 169.6 L58.6 170.1 L58.1 170.1 L57.6 169.9 L57.3 169.6 L57.7 169.6 L58.2 169.7 L58.5 169.8 L58.7 169.6 L58.7 169.3 L58.6 169.1 L58.3 169.3 L57.7 169.2 L57.0 169.5 L55.6 170.2 L54.9 170.4 L54.5 170.4 L54.0 170.2 L53.3 170.5 L52.9 170.6 L52.5 170.3 L52.1 169.5 L51.7 169.3 L51.2 169.2 L50.9 169.1 L50.2 168.7 L49.8 168.5 L49.4 168.3 L48.9 168.2 L48.4 168.2 L48.1 168.1 L47.2 167.6 L46.7 167.4 L45.9 167.4 L45.7 167.3 L45.3 167.1 L45.1 166.9 L44.9 166.9 L44.6 167.0 L43.3 168.3 L43.2 168.4 L42.9 168.6 L42.4 168.7 L41.8 168.6 L41.7 168.4 L42.2 166.5 L42.2 165.6 L42.0 164.8 L41.5 164.1 L40.8 163.4 L40.7 163.2 L40.6 162.9 L40.5 162.7 L40.3 162.6 L40.2 162.4 L40.2 161.9 L40.1 161.5 L40.0 161.1 L39.7 160.7 L38.9 159.8 L38.8 159.5 L38.8 159.4 L38.5 158.8 L38.3 158.2 L38.2 158.0 L36.8 156.3 L36.3 154.7 L36.6 154.0 L36.8 153.2 L36.9 149.1 L37.4 148.4 L37.5 148.2 L37.5 148.0 L37.6 147.8 L37.8 147.7 L37.5 147.0 L37.6 145.4 L37.5 144.6 L36.8 143.1 L36.7 142.9 L36.4 141.0 L36.3 140.8 L34.8 139.2 L34.2 138.0 L33.8 136.9 L33.2 136.2 L33.0 134.4 L32.8 133.6 L32.5 132.9 L32.1 131.8 L31.5 129.6 L31.3 129.1 L31.2 128.4 L30.9 127.8 L30.8 127.0 L30.7 126.8 L30.6 126.7 L30.2 126.4 L30.1 126.2 L30.1 126.0 L30.2 125.9 L30.4 125.9 L30.6 126.1 L30.9 126.5 L31.2 127.6 L31.5 127.9 L31.5 127.2 L31.5 126.9 L31.3 126.6 L31.7 125.7 L31.4 124.9 L31.0 124.2 L30.7 123.5 L30.8 123.3 L31.0 123.1 L31.0 122.9 L31.0 122.8 L31.0 122.7 L30.9 122.7 L30.8 122.4 L30.6 122.3 L30.5 122.2 L30.4 122.1 L30.4 122.0 L30.2 121.9 L30.1 121.7 L30.0 120.9 L29.9 120.7 L29.7 119.9 L28.6 118.5 L28.3 117.7 L28.3 117.2 L28.3 116.9 L28.5 117.0 L28.6 117.2 L28.6 117.3 L28.5 117.5 L28.5 117.8 L28.7 118.2 L28.9 118.7 L29.3 119.1 L29.8 119.4 L29.8 119.0 L29.9 118.2 L29.9 117.8 L29.7 117.0 L29.6 116.2 L29.4 115.9 L29.3 115.7 L28.7 115.1 L28.4 114.8 L28.2 114.4 L28.2 113.9 L28.3 112.6 L28.2 112.2 L27.9 111.8 L27.1 111.5 L26.3 110.9 L25.9 110.6 L25.3 110.3 L24.9 110.1 L24.3 110.0 L23.9 110.0 L23.5 110.2 L23.4 110.7 L23.2 110.8 L22.6 110.6 L22.2 110.2 L22.2 109.7 L22.0 109.4 L22.3 109.3 L23.0 109.5 L23.4 109.4 L23.7 109.3 L23.8 109.0 L23.9 108.7 L23.9 108.5 L23.6 108.1 L23.6 107.9 L24.2 106.8 L24.4 106.5 L24.5 106.8 L24.4 107.2 L24.3 107.6 L24.1 107.8 L24.5 108.0 L24.9 108.2 L25.8 109.0 L25.9 109.1 L26.0 109.4 L25.9 109.9 L26.0 110.0 L26.3 110.1 L26.3 110.0 L26.3 109.8 L26.2 109.8 L26.1 109.7 L26.5 109.3 L26.6 108.8 L26.6 107.0 L26.3 106.2 L26.0 105.6 L25.9 105.2 L25.9 105.0 L25.9 104.7 L26.0 104.4 L25.9 104.2 L25.9 103.9 L25.8 103.6 L25.5 103.1 L24.5 101.8 L24.6 101.6 L24.9 101.3 L24.6 101.1 L24.4 100.8 L24.3 100.5 L24.2 100.1 L24.5 99.3 L24.4 98.9 L23.9 98.7 L24.1 98.4 L24.3 98.2 L24.6 98.0 L24.9 97.8 L25.0 97.6 L25.1 97.4 L25.2 97.1 L25.2 96.8 L25.3 96.1 L25.6 95.7 L26.0 95.3 L26.4 95.1 L26.9 94.8 L27.1 94.3 L27.2 93.8 L27.4 90.6 L27.3 89.6 L26.7 86.3 L26.6 84.6 L26.6 84.5 L26.4 84.0 L26.5 84.0 L26.5 83.9 L26.5 83.8 L26.4 83.7 L26.4 83.6 L26.2 83.3 L26.1 83.3 L27.3 82.9 L28.1 82.6 L28.7 82.2 L28.9 81.8 L28.8 81.4 L28.8 81.1 L28.9 80.8 L29.1 80.7 L30.0 80.5 L30.3 80.4 L31.4 79.8 L31.9 79.5 L32.1 79.1 L32.7 77.5 L32.8 77.1 L32.9 76.6 L33.0 76.3 L33.3 76.2 L33.9 76.3 L34.8 76.6 L35.2 76.5 L35.3 76.0 L35.3 76.0 L35.2 75.5 L35.0 75.1 L34.9 74.8 L35.3 74.3 L35.5 74.2 L35.7 74.1 L35.8 74.0 L35.9 73.7 L35.9 73.4 L35.8 73.2 L35.5 73.0 L34.7 72.8 L34.4 72.6 L34.1 71.7 L33.6 70.8 L33.5 70.4 L33.7 69.8 L34.1 68.9 L34.2 68.5 L34.2 68.0 L34.0 67.5 L33.9 67.1 L33.8 66.7 L33.9 66.2 L34.4 65.3 L34.5 64.9 L34.5 64.3 L34.6 63.9 L35.1 63.5 L35.7 63.3 L36.3 63.1 L36.8 62.9 L36.9 62.4 L36.6 61.9 L36.2 61.6 L34.8 61.2 L34.9 61.1 L36.0 59.8 L38.0 58.1 L40.1 56.9 L40.6 56.7 L41.1 56.6 L41.5 56.7 L42.3 56.8 L42.7 56.8 L44.4 57.5 L45.4 58.1 L47.0 59.8 L47.9 60.6 L48.4 60.7 L48.8 60.7 L49.7 60.6 L50.6 60.7 L51.0 60.7 L51.5 60.5 L51.7 60.6 L51.7 60.9 L51.6 61.3 L51.7 61.5 L51.8 61.6 L51.9 61.7 L52.2 61.7 L52.7 61.7 L53.1 61.3 L53.4 60.9 L53.7 60.5 L54.2 60.2 L54.6 60.3 L55.5 60.7 L56.1 60.8 L56.6 60.6 L56.9 60.2 L57.3 59.6 L57.6 59.4 L58.1 59.4 L59.0 59.7 L59.5 59.7 L61.3 59.3 L63.5 59.0 L64.9 59.1 L66.5 59.4 L67.2 59.4 L68.6 58.8 L69.1 58.7 L73.8 58.8 L76.7 58.8 L77.2 58.8 L81.1 58.8 L82.4 59.1 L86.2 61.2 L87.2 61.5 L92.1 62.0 L97.9 62.6 L102.3 63.0 L107.9 63.5 L111.7 63.0 L116.9 62.4 L117.7 62.8 L119.2 64.8 L120.9 67.1 L122.9 69.7 L123.2 69.9 L123.5 69.9 L126.5 70.0 L127.3 69.9 L128.0 69.7 L130.8 68.1 L133.5 66.6 L133.5 66.6 L134.2 65.7 L135.7 61.6 L136.8 58.7 L137.2 58.0 L139.4 55.3 L142.9 51.2 L146.5 46.8 L148.6 44.3 L150.4 42.1 L151.0 41.8 L153.9 40.3 L157.9 38.4 L162.3 36.2 L166.3 34.3 L169.6 32.7 L170.7 32.2 L172.8 31.4 L175.8 31.0 L179.5 30.5 L183.2 30.0 L186.9 29.5 L190.6 29.0 L194.3 28.5 L198.0 28.0 L201.7 27.5 L205.4 27.0 L209.1 26.5 L212.9 26.0 L216.6 25.5 L220.3 25.0 L224.0 24.5 L227.7 24.0 L231.4 23.5 L235.1 23.0 L238.7 22.6 Z M296.4 171.8 L297.0 171.7 L297.4 171.5 L297.7 171.5 L298.0 171.7 L297.7 172.0 L297.0 172.1 L296.5 172.3 L296.1 172.4 L295.8 172.6 L295.8 173.2 L294.8 173.6 L294.0 173.8 L293.1 174.1 L292.1 174.0 L291.2 174.4 L291.0 174.6 L290.6 175.2 L290.4 175.3 L289.8 175.5 L289.1 176.1 L288.8 176.3 L288.1 176.2 L287.0 176.3 L286.6 176.2 L286.2 176.3 L285.7 176.8 L285.2 176.6 L285.2 176.6 L284.8 176.5 L284.1 176.7 L283.1 176.8 L280.3 177.3 L279.3 177.4 L277.9 177.3 L276.7 176.9 L275.6 176.7 L275.1 176.2 L274.8 175.7 L274.4 175.3 L274.1 174.8 L273.5 174.6 L272.5 173.9 L270.1 172.5 L269.5 172.0 L269.5 171.8 L269.7 171.7 L270.3 171.8 L270.8 171.8 L271.3 171.5 L271.4 171.4 L271.4 171.2 L271.6 170.8 L271.7 170.6 L271.5 169.2 L271.9 169.1 L272.3 169.0 L273.2 168.9 L273.5 168.5 L273.7 168.2 L273.9 167.9 L274.4 167.9 L275.6 168.1 L276.4 168.2 L276.9 168.1 L277.5 168.1 L278.4 168.9 L280.0 170.1 L281.1 170.3 L281.9 170.5 L282.4 170.0 L282.6 169.4 L283.3 169.3 L283.7 169.3 L284.1 169.5 L284.9 169.4 L285.7 169.5 L286.5 169.0 L286.8 168.9 L287.4 168.5 L287.7 168.2 L288.3 168.2 L288.6 168.5 L288.9 168.7 L289.4 169.0 L289.7 168.9 L290.0 168.8 L290.1 168.8 L290.4 169.1 L290.6 169.3 L291.0 169.3 L291.5 169.4 L291.7 169.8 L292.1 169.9 L292.9 170.3 L293.8 170.5 L294.8 171.0 L295.3 171.1 L296.4 171.8 Z" fill="#172033" fill-rule="evenodd"/></svg>
