<svg xmlns="http://www.w3.org/2000/svg" viewBox="0 0 320 200" role="img"><path d="M102.2 54.3 L102.3 54.5 L102.4 54.6 L102.6 54.7 L102.8 55.0 L103.5 55.5 L103.8 55.8 L103.9 55.9 L104.1 56.0 L104.3 56.0 L104.4 56.0 L105.4 56.5 L107.0 57.7 L107.1 57.9 L107.5 58.6 L107.8 59.1 L107.9 59.4 L107.9 59.6 L107.8 59.8 L107.9 59.9 L108.2 60.1 L108.4 60.1 L108.4 60.5 L108.4 60.5 L108.5 60.6 L108.7 60.7 L108.8 60.8 L108.8 60.9 L108.8 61.0 L108.7 61.1 L108.7 61.1 L108.8 61.2 L108.9 61.4 L109.0 61.5 L109.1 61.9 L109.1 62.0 L109.3 62.1 L109.7 62.3 L109.8 62.4 L109.8 62.6 L110.0 62.6 L110.0 62.7 L109.9 62.9 L109.9 63.0 L110.1 63.0 L110.2 63.0 L110.3 62.9 L110.4 62.9 L110.5 63.1 L110.2 63.3 L110.1 63.5 L110.1 63.8 L110.6 64.2 L110.7 64.6 L110.6 64.7 L110.4 64.8 L110.3 64.9 L110.4 65.1 L110.5 65.1 L110.6 65.1 L110.7 65.2 L110.7 65.3 L110.6 65.6 L110.6 65.7 L110.7 65.9 L111.0 66.0 L111.2 66.1 L111.3 66.3 L111.5 67.1 L111.4 67.4 L111.4 67.5 L111.6 67.4 L111.7 67.4 L111.8 67.4 L111.9 67.5 L111.9 67.6 L112.2 68.3 L112.3 69.4 L112.3 70.2 L112.4 70.5 L112.8 71.2 L112.8 71.4 L112.2 72.1 L112.0 72.6 L111.7 73.0 L111.0 73.8 L110.7 74.4 L110.5 74.6 L110.1 74.9 L110.1 75.0 L109.9 75.7 L109.9 76.0 L109.9 76.3 L110.0 76.5 L110.2 76.7 L110.2 76.9 L110.2 77.2 L110.0 78.0 L110.0 78.4 L110.0 78.9 L110.2 79.3 L110.3 79.6 L110.4 79.7 L110.5 79.8 L110.7 79.9 L110.8 80.0 L110.9 80.4 L111.0 80.6 L111.0 80.5 L111.3 80.3 L112.1 80.0 L112.6 79.7 L112.9 79.5 L113.6 79.4 L114.1 79.6 L114.6 79.9 L116.3 80.2 L116.6 80.2 L117.7 79.9 L117.9 79.9 L118.2 80.0 L118.4 80.0 L119.4 79.7 L120.0 79.7 L120.3 79.8 L120.9 80.0 L121.9 80.0 L122.7 80.2 L122.9 80.2 L123.2 80.1 L123.9 79.7 L124.1 79.5 L124.3 79.3 L124.3 79.0 L124.3 78.8 L124.2 78.3 L124.2 78.1 L124.4 77.9 L124.7 77.8 L125.1 77.8 L126.3 77.8 L127.0 77.6 L127.8 77.2 L128.4 76.6 L128.8 76.0 L129.2 75.0 L129.5 74.6 L130.0 74.1 L130.1 73.9 L130.2 73.8 L130.8 73.7 L131.0 73.6 L131.3 73.5 L131.9 72.9 L132.3 72.4 L132.6 72.2 L133.0 72.1 L133.5 72.2 L133.7 72.1 L134.0 71.8 L134.2 71.4 L134.3 71.2 L134.6 71.1 L134.7 71.0 L134.7 70.9 L135.2 70.2 L135.2 70.1 L135.2 70.0 L135.2 69.9 L135.3 69.8 L135.7 69.6 L135.8 69.6 L135.9 69.4 L135.9 69.2 L136.0 68.9 L136.0 68.6 L135.9 68.5 L135.8 68.3 L135.9 68.1 L136.1 67.9 L136.3 67.7 L136.5 67.5 L136.4 67.4 L136.4 67.2 L136.3 67.1 L136.2 67.1 L136.2 67.0 L136.1 66.9 L136.2 66.6 L136.4 66.3 L136.9 65.8 L137.0 65.6 L137.0 65.5 L137.1 65.3 L137.0 65.2 L137.0 65.1 L137.0 65.0 L137.2 64.9 L137.3 64.8 L137.2 64.6 L137.1 64.5 L137.0 64.4 L137.1 64.3 L137.1 64.2 L137.2 64.0 L137.4 63.2 L137.5 63.1 L137.8 63.0 L138.0 62.8 L138.2 62.4 L138.3 62.2 L138.4 62.1 L138.5 62.0 L138.7 62.0 L138.8 61.9 L138.8 61.8 L138.9 61.7 L138.9 61.6 L139.4 61.1 L139.7 61.0 L140.0 61.0 L140.1 61.1 L140.1 61.3 L140.2 61.3 L140.4 61.2 L140.5 61.1 L141.4 60.8 L142.0 60.6 L142.6 60.6 L143.3 60.7 L143.8 60.9 L144.0 60.9 L144.2 60.9 L144.6 60.8 L144.8 60.7 L145.0 60.8 L145.1 60.9 L145.3 61.1 L145.4 61.3 L145.6 61.4 L145.9 61.5 L146.2 61.7 L147.5 62.6 L147.6 62.7 L147.8 62.9 L148.5 63.1 L148.6 63.2 L148.7 63.4 L148.8 63.5 L148.9 63.6 L149.2 63.7 L149.3 63.7 L149.7 64.3 L150.3 64.7 L150.5 64.9 L150.7 65.0 L151.3 64.9 L151.5 64.9 L151.6 65.0 L151.7 65.1 L151.7 65.2 L151.7 65.3 L151.7 65.4 L152.0 65.3 L153.2 65.0 L153.9 65.0 L154.4 65.3 L155.3 66.2 L155.8 66.5 L156.4 66.6 L156.7 66.6 L157.0 66.5 L157.2 66.4 L157.8 66.6 L158.7 66.9 L159.4 67.3 L159.8 67.4 L160.7 67.3 L161.1 67.4 L161.4 67.5 L161.8 67.5 L162.5 67.3 L162.8 67.2 L163.5 66.7 L164.1 66.4 L164.5 66.4 L165.0 66.4 L165.6 66.6 L166.1 66.7 L168.7 66.4 L169.5 66.0 L171.1 64.9 L171.4 64.2 L171.9 63.0 L172.1 62.7 L172.5 61.1 L173.5 58.9 L173.8 58.1 L174.2 57.5 L174.2 57.1 L174.6 56.3 L174.7 55.9 L174.7 55.4 L174.6 54.5 L174.6 54.2 L174.7 54.2 L174.7 54.1 L175.2 54.0 L175.8 54.0 L176.0 53.9 L176.4 53.7 L178.2 53.1 L179.6 52.7 L180.2 52.7 L180.4 52.7 L180.7 52.7 L180.9 52.8 L181.2 52.8 L181.2 52.8 L182.0 52.0 L182.1 51.9 L182.4 51.0 L182.7 50.7 L183.1 50.4 L183.9 49.9 L184.6 49.2 L184.7 49.0 L185.0 48.9 L186.1 48.6 L186.3 48.4 L186.5 48.3 L186.6 48.1 L186.9 47.0 L186.9 46.4 L187.8 43.2 L187.8 42.8 L187.7 42.6 L188.1 42.0 L188.1 41.9 L188.0 41.8 L188.1 41.6 L188.3 41.2 L188.5 40.7 L188.7 40.6 L188.8 40.6 L188.9 40.8 L189.0 40.9 L189.2 40.9 L189.3 40.8 L189.3 40.6 L189.3 40.4 L189.2 40.2 L189.3 40.2 L189.4 40.2 L189.5 40.1 L189.5 40.1 L189.7 39.9 L189.7 39.9 L189.8 39.8 L189.9 39.7 L190.0 39.7 L190.2 39.7 L190.2 39.6 L190.2 39.5 L190.1 39.4 L190.0 39.3 L190.1 39.2 L190.2 39.2 L190.3 39.2 L190.4 39.3 L190.5 39.2 L190.6 39.1 L190.6 39.1 L190.7 39.2 L190.8 39.2 L190.9 39.2 L191.0 39.2 L190.8 38.9 L191.0 38.8 L191.4 38.6 L191.9 38.4 L192.1 38.3 L192.3 38.1 L192.6 37.7 L192.8 37.5 L192.9 37.9 L193.1 37.9 L193.2 37.7 L193.2 37.6 L193.4 37.6 L193.5 37.5 L193.6 37.5 L193.5 37.7 L193.7 37.8 L193.8 37.7 L193.9 37.6 L194.1 37.5 L194.2 37.4 L194.7 37.4 L195.0 37.3 L195.2 37.2 L195.4 36.9 L195.5 36.7 L195.5 36.6 L195.4 36.5 L195.4 36.4 L195.4 36.4 L195.5 36.4 L195.5 36.3 L195.6 36.2 L195.6 36.2 L195.6 36.0 L195.9 35.7 L196.0 35.4 L196.1 35.4 L196.3 35.5 L196.4 35.5 L196.6 35.5 L197.1 35.1 L197.4 35.5 L197.6 35.5 L197.7 35.4 L197.8 35.3 L198.0 34.9 L198.0 34.9 L198.1 34.8 L198.1 34.8 L198.2 34.7 L198.2 34.7 L198.1 34.6 L198.1 34.6 L198.1 34.5 L198.0 34.5 L198.0 34.4 L198.0 34.3 L198.1 34.3 L198.4 34.3 L198.6 34.2 L198.5 34.0 L199.0 33.9 L199.5 33.7 L199.9 33.4 L200.1 33.1 L200.0 32.6 L200.0 32.3 L200.2 32.2 L200.4 32.1 L200.6 32.0 L200.9 31.9 L201.0 31.8 L201.2 31.6 L201.4 31.4 L201.4 31.1 L201.3 30.9 L201.4 30.7 L201.6 30.6 L201.9 30.6 L202.1 30.5 L202.1 30.4 L202.2 30.2 L202.2 30.1 L202.3 30.1 L202.4 30.1 L202.6 30.0 L202.7 29.9 L202.8 29.8 L202.8 29.7 L202.7 29.6 L202.7 29.4 L202.7 29.3 L202.8 29.2 L203.2 28.7 L203.3 28.6 L203.4 28.6 L203.7 28.6 L203.9 28.5 L204.3 28.0 L204.5 27.9 L204.9 27.6 L205.4 27.5 L206.4 27.4 L207.2 27.6 L207.4 27.6 L207.7 27.4 L207.9 27.3 L208.1 27.4 L208.4 27.4 L208.9 27.2 L209.8 26.8 L210.3 26.6 L210.6 26.6 L210.8 26.5 L211.0 26.4 L211.1 26.1 L211.2 26.0 L211.5 26.0 L212.0 26.0 L212.2 25.9 L212.5 25.4 L212.6 25.3 L212.7 25.1 L212.6 24.3 L212.9 23.9 L213.1 23.7 L213.3 23.6 L213.3 23.5 L213.5 23.2 L213.7 23.2 L215.1 23.1 L215.4 23.0 L215.6 22.8 L215.8 22.7 L216.1 22.6 L216.8 22.8 L217.1 22.8 L217.4 22.7 L217.5 22.8 L217.5 22.8 L217.7 22.8 L218.0 22.7 L218.4 22.5 L218.7 22.4 L219.3 22.5 L219.6 22.6 L219.7 22.4 L219.8 22.2 L220.1 22.2 L220.5 22.2 L220.9 22.0 L221.2 22.0 L221.4 22.1 L221.6 22.1 L222.4 22.1 L222.6 22.1 L223.4 22.6 L223.8 22.6 L224.1 22.8 L224.5 22.8 L224.7 22.9 L225.0 23.1 L225.2 23.1 L225.4 23.2 L225.5 23.2 L225.8 23.5 L225.8 23.5 L225.8 23.6 L226.2 23.6 L226.4 23.7 L226.7 23.9 L227.0 24.1 L227.2 24.1 L227.8 24.0 L228.1 24.0 L228.3 24.1 L228.5 24.2 L228.7 24.3 L229.0 24.6 L229.5 24.7 L229.9 24.7 L230.4 24.6 L230.7 24.5 L231.1 24.3 L231.4 24.3 L231.6 24.3 L232.4 24.3 L232.7 24.3 L232.9 24.4 L233.0 24.5 L233.1 24.5 L233.3 24.5 L233.6 24.2 L233.9 24.2 L235.2 24.1 L235.6 23.9 L236.0 24.0 L236.7 24.1 L238.1 24.4 L238.5 24.5 L238.7 24.6 L238.8 24.6 L238.9 24.5 L239.3 24.4 L239.5 24.3 L239.6 24.4 L239.9 24.7 L240.0 24.8 L240.1 24.8 L240.3 24.9 L240.4 24.9 L240.5 24.9 L240.7 24.8 L240.8 24.8 L240.9 24.9 L241.2 25.3 L241.1 25.5 L241.6 27.1 L242.2 28.9 L242.9 30.8 L243.4 32.2 L244.2 34.7 L244.3 35.0 L244.0 37.8 L244.1 38.3 L244.4 38.8 L245.5 40.0 L245.8 40.4 L246.2 41.9 L246.7 43.0 L246.9 43.3 L247.2 43.5 L247.9 44.0 L248.1 44.2 L248.2 44.4 L248.2 44.6 L248.2 46.5 L248.3 47.0 L249.0 48.4 L249.5 49.3 L249.8 50.2 L249.8 51.2 L249.7 52.0 L249.7 53.7 L249.8 55.8 L249.8 57.3 L249.8 59.2 L249.8 61.9 L249.6 62.5 L249.5 62.8 L249.5 63.2 L249.6 63.6 L249.7 63.8 L249.8 64.1 L249.9 64.9 L249.9 65.1 L249.8 65.3 L249.7 65.4 L249.6 65.4 L249.5 65.6 L249.4 65.7 L248.8 67.0 L248.8 67.3 L248.8 67.7 L249.3 69.1 L248.6 69.4 L248.2 69.5 L247.9 69.4 L246.8 68.7 L246.6 68.6 L245.5 68.0 L244.2 67.2 L242.9 66.4 L242.6 66.4 L242.2 66.4 L241.8 66.5 L241.4 66.6 L240.2 67.6 L239.1 68.5 L239.0 68.7 L238.8 69.4 L238.1 70.8 L237.3 72.2 L236.4 73.2 L235.2 74.5 L235.0 75.4 L235.0 76.7 L235.0 78.4 L235.1 79.3 L235.2 79.5 L235.4 79.5 L235.6 79.5 L235.8 79.4 L236.0 79.2 L236.2 79.1 L236.2 79.3 L236.4 79.8 L236.6 80.0 L237.0 80.4 L237.1 80.6 L237.2 80.8 L237.1 81.1 L237.0 81.6 L237.1 81.9 L237.3 82.3 L238.6 83.3 L239.2 84.1 L239.4 84.3 L239.6 84.4 L240.6 84.7 L241.1 84.9 L242.0 85.2 L243.3 85.6 L244.1 85.7 L245.5 85.7 L247.3 85.7 L248.4 85.8 L249.5 85.8 L249.5 85.6 L249.5 85.5 L249.4 85.3 L249.4 85.2 L249.3 85.0 L249.3 84.1 L249.2 83.9 L249.2 83.1 L249.4 82.0 L249.6 81.0 L249.8 79.9 L249.8 79.5 L250.6 79.5 L250.8 79.6 L251.1 79.8 L251.3 79.9 L251.7 80.0 L252.3 79.9 L252.7 79.9 L253.6 80.1 L254.3 80.2 L255.7 80.1 L257.3 80.1 L259.0 80.0 L260.9 80.0 L260.7 80.5 L260.6 82.1 L260.3 82.9 L260.3 83.1 L260.2 83.4 L259.8 84.0 L259.8 84.1 L259.7 84.4 L259.7 84.5 L259.6 84.7 L259.5 85.0 L258.2 88.3 L257.4 91.9 L257.4 92.2 L257.3 92.3 L257.2 92.6 L257.2 92.7 L257.2 92.9 L257.3 93.1 L257.3 93.2 L256.7 96.3 L256.6 96.5 L255.6 97.9 L255.5 98.1 L255.5 98.4 L255.3 98.7 L255.1 98.9 L254.8 98.9 L254.9 99.1 L254.9 99.1 L255.0 99.1 L255.1 99.0 L255.2 99.4 L255.1 99.9 L254.9 100.4 L254.7 100.8 L254.6 101.0 L253.5 101.9 L253.4 102.0 L253.0 102.2 L252.8 102.3 L252.7 102.4 L252.5 102.8 L252.3 103.0 L251.0 104.0 L250.6 103.8 L250.1 103.8 L249.9 104.1 L250.1 104.4 L250.2 104.3 L250.4 104.2 L250.6 104.1 L250.8 104.1 L250.6 104.5 L250.1 104.8 L248.6 105.5 L248.1 105.6 L247.6 105.6 L247.1 105.5 L247.1 105.6 L247.1 105.7 L247.2 105.7 L247.3 105.8 L247.3 105.8 L246.9 106.0 L244.5 108.5 L243.9 108.9 L243.7 109.0 L243.6 109.0 L243.6 109.1 L243.6 109.3 L243.5 109.4 L243.4 109.5 L242.9 110.1 L242.7 110.2 L242.3 110.4 L242.1 110.5 L242.1 110.7 L242.0 110.9 L241.8 111.0 L241.7 111.1 L241.7 111.2 L241.6 111.4 L239.9 113.3 L238.3 116.2 L238.2 116.7 L238.3 117.1 L237.8 117.1 L237.7 117.2 L237.7 117.5 L237.8 117.5 L238.3 117.3 L238.4 117.2 L238.4 117.3 L238.4 117.4 L238.4 117.5 L238.2 117.6 L237.9 118.0 L236.7 119.0 L236.3 119.4 L235.7 120.3 L235.0 121.7 L233.2 124.4 L233.0 124.9 L232.9 125.1 L232.8 125.3 L232.3 125.8 L230.2 129.2 L229.8 129.6 L229.6 129.8 L229.5 129.8 L229.3 130.0 L228.9 130.7 L227.8 132.0 L226.9 133.0 L226.5 133.2 L226.1 134.0 L225.5 134.6 L223.7 136.1 L223.5 136.2 L222.7 136.4 L222.4 136.5 L222.2 136.7 L222.1 136.9 L221.3 137.7 L221.1 137.8 L220.9 137.8 L220.9 138.1 L220.8 138.2 L220.7 138.2 L220.6 138.3 L220.3 138.3 L220.1 138.5 L219.7 138.9 L219.5 138.9 L219.0 139.1 L218.7 139.3 L218.6 139.3 L218.5 139.3 L218.4 139.4 L218.3 139.4 L218.2 139.3 L218.1 139.4 L218.0 139.4 L218.1 139.5 L218.1 139.6 L218.1 139.6 L217.9 140.1 L217.5 140.2 L217.5 140.3 L217.4 140.6 L217.3 140.8 L216.9 141.0 L216.5 141.4 L216.3 141.6 L216.2 141.8 L216.2 142.0 L215.9 142.3 L215.8 142.4 L215.8 142.4 L215.8 142.4 L215.7 142.6 L215.7 142.6 L214.9 143.0 L214.8 143.1 L214.7 143.3 L214.6 143.5 L214.2 144.0 L212.7 145.4 L211.5 146.9 L210.8 147.2 L210.7 147.3 L209.1 148.6 L208.8 149.0 L208.7 149.0 L208.5 149.1 L208.4 149.2 L207.9 149.6 L207.7 149.9 L207.6 150.1 L207.5 150.2 L206.2 151.1 L205.8 151.3 L205.4 151.6 L205.2 151.7 L205.2 151.9 L204.9 152.0 L204.3 152.3 L203.7 152.7 L203.4 152.8 L202.7 153.0 L202.4 153.3 L202.1 153.6 L202.0 154.0 L201.9 154.2 L201.7 154.5 L200.4 155.4 L200.0 155.5 L199.9 155.6 L199.8 155.8 L199.6 155.9 L199.6 155.9 L199.6 156.0 L199.6 156.0 L199.5 156.1 L198.9 156.3 L198.7 156.6 L198.5 156.6 L198.3 156.6 L197.7 156.8 L197.5 156.9 L196.4 157.9 L196.0 158.2 L195.1 158.5 L195.0 158.6 L194.9 158.6 L194.6 159.0 L194.5 159.0 L194.4 159.0 L194.3 159.0 L194.2 159.0 L194.1 159.3 L193.8 159.6 L193.2 160.0 L192.9 160.2 L192.8 160.2 L192.8 160.1 L192.7 160.1 L192.7 160.1 L192.7 160.1 L192.6 160.2 L191.3 161.0 L191.2 161.1 L190.2 161.5 L190.1 161.6 L190.0 161.7 L189.9 161.8 L189.9 161.9 L189.8 162.0 L189.7 162.1 L189.6 162.1 L189.4 162.1 L188.3 162.6 L188.1 162.7 L187.8 162.7 L187.5 162.8 L186.8 163.3 L186.6 163.3 L186.0 163.4 L185.6 163.6 L184.4 164.0 L184.2 164.0 L184.1 164.1 L184.1 164.3 L184.0 164.4 L183.7 164.4 L182.5 164.9 L182.1 165.0 L181.5 165.0 L180.5 164.9 L180.2 164.9 L179.9 165.0 L179.7 165.0 L179.4 164.9 L179.0 164.7 L177.3 164.4 L175.7 164.3 L174.6 164.5 L173.6 164.7 L172.7 165.1 L172.3 165.4 L171.9 165.7 L171.7 166.1 L171.5 166.8 L171.5 167.1 L171.5 167.2 L171.8 167.3 L171.8 167.4 L171.9 167.5 L172.2 167.7 L172.5 168.0 L172.6 168.2 L172.6 168.3 L172.5 168.3 L172.5 168.3 L172.1 168.2 L171.8 168.3 L171.6 168.4 L171.3 168.5 L170.9 168.5 L170.2 168.3 L169.9 168.2 L169.3 168.3 L169.0 168.3 L168.6 168.1 L168.2 168.1 L167.8 167.8 L167.3 167.7 L166.3 167.4 L165.2 167.4 L164.1 167.5 L163.3 167.7 L163.0 167.8 L162.8 168.0 L163.0 168.5 L162.9 168.8 L162.7 169.0 L162.5 169.1 L162.0 169.5 L161.9 169.7 L161.9 169.9 L162.0 169.9 L162.2 170.0 L162.2 170.1 L162.2 170.2 L162.0 170.3 L161.9 170.4 L161.8 170.4 L161.6 170.2 L161.4 170.2 L160.5 170.2 L159.9 170.0 L159.6 170.0 L158.8 170.1 L158.6 170.1 L157.5 169.8 L157.0 169.6 L156.5 169.3 L156.3 169.2 L154.8 169.1 L154.6 169.0 L154.4 168.9 L153.6 168.6 L151.4 168.4 L151.2 168.4 L150.6 168.2 L149.3 168.1 L147.1 167.7 L146.6 167.7 L144.6 168.1 L144.3 168.2 L144.1 168.3 L143.9 168.5 L143.8 168.7 L143.9 169.0 L144.1 169.1 L144.4 169.2 L144.4 169.3 L140.1 168.9 L140.0 168.8 L140.0 168.5 L139.9 168.4 L139.6 168.4 L139.4 168.3 L139.3 168.2 L139.4 168.4 L139.4 168.5 L139.6 168.5 L139.7 168.6 L139.8 168.8 L139.8 168.9 L139.7 169.0 L139.7 168.9 L139.5 168.9 L139.1 168.8 L139.0 168.9 L138.9 168.9 L138.7 168.9 L138.6 168.9 L137.6 168.7 L137.2 168.5 L137.0 168.4 L136.9 168.3 L136.8 168.2 L136.8 168.0 L136.8 168.0 L136.8 167.9 L137.0 167.9 L136.8 167.8 L136.6 167.7 L136.0 167.7 L136.1 167.8 L136.3 168.0 L136.5 168.2 L136.7 168.2 L136.5 168.3 L136.2 168.3 L134.8 167.8 L134.5 167.8 L134.2 167.8 L134.0 167.9 L133.8 167.9 L133.1 168.4 L132.6 168.6 L132.1 168.7 L130.9 168.6 L130.4 168.6 L129.4 168.8 L129.1 168.9 L128.9 169.1 L128.6 169.4 L128.4 169.6 L128.5 169.8 L128.6 170.0 L128.9 170.1 L128.7 170.2 L128.5 170.3 L126.9 170.5 L126.4 170.6 L126.1 170.9 L126.1 171.1 L126.1 171.5 L126.0 171.7 L125.8 172.0 L125.7 172.1 L125.0 172.4 L124.5 172.6 L123.9 172.7 L123.4 172.7 L122.1 172.5 L121.6 172.2 L121.4 172.2 L121.1 172.2 L120.6 172.4 L120.2 172.5 L120.1 172.5 L120.0 172.6 L119.9 172.7 L119.9 172.8 L119.1 173.1 L118.5 173.1 L118.0 173.1 L116.0 172.5 L115.5 172.4 L114.3 172.3 L113.7 172.3 L113.2 172.5 L113.3 172.5 L112.6 172.7 L112.4 172.8 L112.7 172.8 L113.0 173.0 L113.1 173.3 L113.0 173.5 L112.8 173.6 L110.6 173.3 L108.9 173.5 L108.4 173.7 L108.0 174.0 L107.3 174.7 L107.1 174.9 L106.8 175.0 L106.7 175.0 L106.6 175.1 L106.5 175.2 L106.4 175.3 L106.3 175.4 L105.9 175.5 L105.7 175.6 L105.5 175.8 L105.3 176.0 L105.2 176.2 L105.1 176.2 L104.8 176.2 L104.3 176.4 L103.4 177.0 L103.0 177.3 L103.2 177.7 L103.2 177.7 L103.0 177.8 L102.7 178.0 L102.5 178.0 L102.3 178.0 L102.1 177.9 L101.9 177.8 L101.1 177.4 L101.0 177.2 L100.7 177.1 L98.8 177.2 L98.6 177.2 L98.4 177.4 L98.2 177.4 L98.1 177.4 L98.0 177.3 L97.9 177.2 L97.9 177.2 L97.3 176.8 L96.3 176.1 L95.7 175.8 L95.5 175.6 L95.3 175.4 L95.1 175.3 L94.8 175.3 L94.5 175.3 L94.3 175.5 L94.2 175.4 L94.0 175.4 L93.9 175.4 L93.8 175.5 L93.9 175.4 L94.6 174.5 L94.7 174.4 L94.6 174.0 L94.4 173.7 L94.2 173.3 L93.9 173.0 L93.8 172.9 L93.6 172.9 L92.7 173.0 L92.0 173.0 L91.8 173.0 L91.7 172.8 L91.4 172.5 L91.2 172.4 L91.2 172.3 L91.6 172.2 L91.7 172.1 L91.8 171.8 L91.9 171.5 L91.7 171.6 L91.4 172.0 L91.3 172.1 L90.3 172.1 L90.2 172.1 L89.8 172.2 L88.6 172.3 L88.4 172.5 L88.3 172.6 L88.2 172.6 L88.1 172.6 L87.9 172.5 L87.8 172.4 L87.8 172.3 L87.9 172.1 L87.9 171.7 L87.9 171.6 L87.9 171.5 L88.0 171.4 L88.0 171.4 L88.1 171.3 L88.2 171.0 L88.2 170.8 L88.0 170.4 L88.0 170.2 L88.1 170.1 L88.3 170.0 L88.4 169.7 L87.9 169.1 L87.7 169.0 L87.0 168.9 L85.9 168.8 L84.7 168.8 L84.5 168.9 L84.4 168.9 L84.0 169.1 L83.8 169.2 L83.7 169.3 L83.6 169.4 L83.4 169.6 L83.3 169.7 L83.3 169.8 L83.3 170.0 L83.4 170.0 L83.5 170.1 L83.6 170.2 L83.7 170.7 L83.7 170.8 L83.8 170.9 L83.6 171.7 L83.7 172.0 L83.9 172.1 L83.7 172.2 L83.4 172.0 L83.1 171.8 L82.9 171.6 L82.6 171.1 L82.6 171.0 L82.6 170.9 L82.6 170.7 L82.6 170.6 L82.6 170.6 L82.6 170.6 L82.5 170.5 L82.5 170.5 L82.4 170.2 L82.3 170.1 L81.9 170.0 L81.8 169.8 L81.8 169.7 L81.8 169.5 L81.9 169.4 L82.0 169.4 L82.1 169.3 L82.1 169.1 L82.1 169.0 L82.2 168.8 L82.2 168.7 L82.3 168.6 L82.1 168.6 L82.1 168.6 L82.0 168.7 L81.8 168.4 L81.8 168.3 L81.9 168.1 L82.1 167.9 L82.2 167.7 L82.4 167.2 L82.5 167.0 L82.9 166.7 L83.3 166.7 L83.7 166.7 L83.9 166.2 L83.9 166.0 L83.6 165.7 L83.6 165.5 L83.5 165.3 L83.2 164.2 L82.9 163.6 L82.8 163.4 L82.7 163.3 L82.1 162.8 L81.9 162.7 L81.8 162.6 L81.8 162.5 L81.8 162.0 L81.8 161.7 L81.7 161.5 L81.4 161.1 L81.0 160.8 L79.7 160.0 L79.8 159.8 L79.7 159.5 L79.4 159.1 L79.3 158.7 L79.0 158.4 L78.9 158.3 L78.8 158.1 L78.3 157.6 L78.1 157.5 L77.8 157.5 L77.6 157.3 L77.5 157.0 L77.3 156.9 L77.7 156.7 L77.8 156.7 L78.0 156.7 L78.1 156.9 L78.1 157.0 L78.2 157.1 L78.4 157.2 L78.3 157.3 L78.4 157.4 L78.7 157.7 L79.0 157.9 L79.1 158.1 L79.3 158.1 L79.5 158.0 L79.4 157.9 L79.1 157.7 L79.1 157.6 L79.1 157.4 L79.0 157.3 L79.0 157.2 L78.8 157.2 L78.8 157.2 L78.5 157.0 L78.4 156.9 L78.4 156.7 L78.4 156.2 L78.4 156.0 L78.2 155.8 L77.9 155.7 L77.5 155.6 L77.2 155.7 L77.3 155.9 L77.3 156.0 L77.2 156.0 L77.1 156.0 L76.8 156.2 L76.7 156.1 L76.6 155.9 L76.6 155.8 L76.6 155.7 L76.5 155.6 L76.4 155.5 L76.4 155.4 L76.5 155.2 L76.4 155.1 L76.3 154.7 L76.2 154.5 L76.2 154.4 L76.2 154.3 L76.4 154.1 L76.4 154.0 L76.4 153.8 L76.1 153.5 L76.0 153.5 L76.0 153.4 L76.0 153.3 L76.0 153.3 L76.1 153.3 L76.2 153.3 L76.2 153.3 L76.3 153.3 L76.5 153.1 L76.5 153.1 L76.6 153.1 L76.7 153.0 L76.7 153.0 L76.7 152.9 L76.7 152.8 L76.7 152.4 L76.7 152.2 L76.9 152.1 L77.2 152.0 L77.5 152.0 L77.7 152.0 L77.6 152.1 L77.7 152.3 L78.4 152.7 L78.9 152.9 L79.4 152.8 L79.8 152.6 L81.3 151.3 L81.5 150.8 L81.7 150.4 L82.0 149.4 L82.1 148.9 L82.0 148.0 L81.9 147.8 L81.8 147.5 L81.8 147.3 L82.1 147.0 L82.2 146.5 L81.7 144.9 L81.6 143.6 L81.4 143.1 L81.3 142.8 L81.3 142.3 L81.3 142.0 L81.2 141.8 L81.0 141.6 L80.9 141.4 L80.8 141.2 L80.8 141.1 L80.8 141.0 L80.8 140.9 L80.5 140.0 L80.3 139.6 L80.0 139.2 L79.4 138.6 L79.4 138.4 L79.3 138.3 L78.8 137.6 L78.2 137.1 L78.1 136.9 L78.0 136.6 L77.8 136.5 L77.4 136.2 L76.9 135.5 L76.6 135.3 L76.5 135.0 L76.3 134.4 L76.2 134.2 L75.7 133.9 L75.6 133.8 L75.5 133.6 L74.8 132.7 L74.8 132.6 L74.6 132.3 L74.6 132.2 L74.4 132.0 L74.2 131.5 L74.0 131.3 L73.2 130.2 L72.5 129.0 L72.4 128.9 L72.3 128.4 L72.2 128.0 L71.5 127.1 L71.1 126.6 L71.2 126.1 L70.9 125.8 L70.2 124.7 L70.1 124.5 L69.9 124.2 L69.1 123.0 L69.0 122.9 L69.0 122.6 L68.9 122.2 L68.8 122.1 L68.8 121.8 L68.2 120.8 L68.0 120.4 L67.9 119.9 L67.7 118.9 L66.9 117.3 L66.8 116.9 L66.8 116.9 L66.7 116.8 L66.7 116.7 L66.6 116.6 L66.6 116.4 L66.3 115.4 L66.4 115.4 L66.3 115.3 L66.3 114.9 L66.3 114.8 L66.0 114.1 L66.0 113.9 L65.8 113.8 L65.8 113.6 L65.7 113.1 L65.3 112.2 L65.3 112.1 L64.8 110.9 L64.7 110.8 L64.5 110.6 L64.5 110.4 L64.4 110.4 L64.2 110.1 L63.9 109.4 L63.9 109.3 L63.7 109.2 L63.7 109.1 L63.7 108.8 L63.7 108.7 L63.5 108.5 L63.4 108.2 L63.4 107.9 L63.4 107.7 L63.3 107.4 L62.5 106.8 L62.4 106.7 L62.2 106.2 L62.1 106.0 L61.5 105.3 L60.7 104.7 L60.6 104.4 L60.4 104.0 L60.4 103.6 L60.4 103.3 L60.4 103.2 L60.3 103.0 L60.2 102.9 L60.2 102.9 L60.1 102.8 L60.0 102.8 L59.9 102.8 L59.6 102.3 L59.4 102.2 L59.1 101.9 L59.1 101.8 L59.2 101.7 L59.3 101.5 L59.3 101.3 L59.3 101.2 L59.5 101.1 L59.9 100.9 L60.2 100.8 L60.7 100.6 L61.6 99.8 L61.7 99.8 L61.8 99.8 L61.9 100.0 L61.9 100.1 L62.0 100.2 L62.2 100.3 L62.4 100.1 L62.6 99.8 L62.8 99.6 L62.8 99.4 L62.8 99.1 L62.9 98.9 L63.1 98.8 L63.2 98.7 L63.1 98.4 L62.9 98.1 L62.8 97.9 L62.7 97.7 L62.8 97.4 L63.0 97.3 L63.1 97.4 L63.2 97.5 L63.3 97.5 L63.5 97.4 L63.5 97.3 L63.4 97.1 L63.3 97.0 L63.3 96.9 L63.3 96.8 L63.4 96.8 L63.7 96.8 L63.8 96.7 L63.8 96.6 L63.6 96.4 L63.6 96.3 L63.6 96.2 L63.7 96.2 L63.7 96.2 L63.8 96.2 L64.0 96.2 L64.1 96.3 L64.1 96.3 L64.2 96.2 L64.3 95.2 L64.3 95.2 L64.5 94.9 L64.6 94.9 L64.7 94.9 L64.8 95.0 L65.0 95.1 L65.1 95.0 L65.3 94.8 L65.4 94.8 L65.8 94.9 L66.2 94.6 L66.3 94.6 L66.5 94.5 L66.7 94.5 L66.8 94.6 L67.0 94.7 L67.1 95.0 L67.3 95.2 L67.5 95.3 L67.8 95.4 L67.9 95.6 L67.9 95.9 L67.9 96.2 L68.0 96.7 L68.2 97.0 L68.6 97.1 L69.4 96.9 L69.7 96.9 L69.9 97.0 L69.9 97.1 L69.9 97.3 L70.0 97.4 L70.1 97.5 L70.1 97.7 L70.1 97.8 L70.2 97.9 L70.3 98.1 L70.5 98.3 L70.5 98.4 L70.6 98.7 L70.5 99.0 L70.4 99.3 L70.2 99.4 L70.0 99.5 L69.8 99.6 L69.6 99.8 L69.6 100.0 L69.7 100.2 L70.0 100.6 L70.1 100.8 L70.2 101.0 L70.6 101.2 L70.8 101.5 L70.7 101.9 L70.5 102.5 L70.6 102.8 L71.0 102.9 L71.6 102.8 L72.1 102.7 L72.3 102.7 L72.6 102.6 L72.8 102.5 L73.0 102.6 L73.0 102.9 L73.0 103.2 L73.1 103.5 L73.3 103.6 L73.7 103.7 L73.9 103.7 L74.0 103.6 L74.3 103.5 L74.4 103.4 L74.8 103.4 L76.8 103.8 L77.3 103.9 L77.7 104.2 L78.4 104.7 L78.9 104.9 L79.9 105.3 L80.2 105.3 L80.6 105.1 L81.7 105.0 L82.0 105.0 L82.5 105.2 L82.8 105.2 L83.0 105.1 L83.1 105.1 L83.3 105.0 L83.5 105.0 L83.6 105.0 L83.7 104.9 L83.7 104.9 L83.8 104.9 L83.9 105.1 L84.0 105.1 L84.3 105.0 L84.7 104.8 L87.1 104.5 L89.6 104.8 L89.8 105.0 L90.1 105.4 L90.3 105.6 L90.4 105.6 L90.8 105.6 L90.9 105.7 L91.0 105.7 L91.2 106.0 L91.7 105.9 L92.2 105.8 L92.9 105.5 L93.0 105.4 L93.1 105.2 L93.2 105.1 L93.6 105.1 L93.7 105.0 L93.7 104.9 L93.3 104.2 L93.2 103.9 L93.2 103.7 L93.5 103.3 L93.6 103.1 L93.8 103.0 L93.9 103.0 L94.2 103.2 L94.4 103.2 L94.5 103.2 L95.5 102.9 L95.8 102.8 L96.0 102.7 L96.1 102.5 L96.5 101.5 L96.5 101.4 L96.7 101.4 L96.7 101.3 L96.8 101.1 L96.9 101.0 L97.0 100.9 L97.1 100.8 L97.2 100.7 L97.3 100.6 L97.4 100.6 L98.6 100.5 L98.9 100.4 L99.1 100.2 L99.4 100.2 L100.0 100.1 L100.3 100.0 L100.9 99.6 L101.2 99.4 L101.3 99.4 L101.7 99.5 L101.9 99.4 L102.2 99.4 L102.3 99.0 L102.3 98.5 L102.3 97.8 L102.3 97.1 L102.3 96.4 L102.3 95.8 L102.3 95.1 L102.3 94.4 L102.3 93.7 L102.3 93.0 L102.3 92.3 L102.3 91.6 L102.3 90.9 L102.3 90.2 L102.3 89.6 L102.3 88.9 L102.3 88.2 L102.3 87.5 L102.3 86.8 L102.3 86.1 L102.3 85.4 L102.3 84.7 L102.3 84.0 L102.3 83.4 L102.3 82.7 L102.3 82.0 L102.3 81.3 L102.3 80.6 L102.3 79.9 L102.3 79.2 L102.3 78.5 L102.3 77.8 L102.3 77.2 L102.3 76.5 L102.3 75.8 L102.3 75.1 L102.3 74.4 L102.3 73.7 L102.3 73.0 L102.3 72.3 L102.3 71.6 L102.3 71.0 L102.3 70.3 L102.3 69.6 L102.3 68.9 L102.3 68.2 L102.3 67.5 L102.3 66.8 L102.3 66.1 L102.3 65.4 L102.3 64.9 L102.3 64.8 L102.3 64.1 L102.3 63.4 L102.3 62.7 L102.3 62.0 L102.3 61.3 L102.3 60.6 L102.3 59.9 L102.3 59.2 L102.3 58.6 L102.3 57.9 L102.3 57.2 L102.3 56.5 L102.3 55.8 L102.3 55.1 L102.3 54.4 L102.2 54.3 Z M212.8 105.3 L212.2 104.7 L211.7 104.0 L211.5 103.8 L211.3 103.7 L211.3 103.7 L211.1 103.6 L211.0 103.5 L210.9 103.5 L210.6 103.4 L210.5 103.4 L210.1 102.8 L209.9 102.6 L209.4 102.6 L209.2 102.5 L209.2 102.0 L209.1 101.7 L209.0 101.5 L208.8 101.3 L208.6 101.2 L208.4 101.2 L207.7 101.6 L207.4 101.7 L205.7 101.8 L205.5 101.9 L205.2 102.1 L204.9 102.6 L204.7 102.8 L204.4 102.9 L204.1 102.9 L203.9 102.9 L203.6 102.8 L203.5 102.8 L202.8 102.8 L202.7 102.8 L202.6 103.0 L202.4 103.1 L202.1 103.6 L202.0 103.6 L201.5 104.2 L201.0 104.7 L201.0 104.8 L201.0 104.9 L200.9 105.0 L200.8 105.0 L200.5 105.0 L200.4 104.9 L200.2 104.8 L200.1 104.7 L199.9 104.7 L199.7 104.8 L199.6 104.9 L199.5 105.1 L199.4 105.3 L199.1 105.4 L197.7 105.3 L197.8 105.5 L197.6 105.6 L197.4 105.7 L197.3 105.8 L197.3 106.0 L197.3 106.1 L197.3 106.1 L197.3 106.2 L197.3 106.2 L197.3 106.3 L197.2 106.4 L197.2 106.3 L197.1 106.3 L197.1 106.3 L196.8 106.6 L196.7 106.8 L196.5 106.8 L196.3 106.9 L196.4 107.0 L196.6 107.1 L196.7 107.3 L196.6 107.3 L196.5 107.3 L196.4 107.4 L196.3 107.3 L196.2 107.4 L196.3 107.6 L196.3 107.6 L196.0 108.1 L195.3 108.9 L195.2 108.9 L195.1 108.9 L195.0 109.0 L194.9 109.1 L194.9 109.2 L195.0 109.5 L195.0 109.7 L194.9 109.8 L194.8 109.8 L194.3 109.9 L194.1 110.0 L194.0 110.1 L194.0 110.4 L194.0 110.5 L193.8 110.7 L193.7 110.7 L193.6 110.8 L193.5 110.8 L193.5 110.9 L193.5 111.0 L193.6 111.1 L193.6 111.2 L193.6 111.3 L193.6 111.4 L193.5 111.5 L193.0 111.9 L192.8 112.1 L192.8 112.4 L192.7 112.4 L192.4 112.4 L192.4 112.4 L192.3 112.6 L192.3 112.7 L192.2 112.8 L192.2 112.9 L192.1 112.9 L191.7 113.1 L191.5 113.2 L191.1 113.3 L190.9 113.4 L190.8 113.4 L190.4 113.4 L190.1 113.6 L190.0 113.6 L189.6 114.0 L189.5 114.0 L189.4 114.0 L189.4 113.9 L189.4 113.8 L189.3 113.8 L189.2 113.9 L189.1 114.1 L189.0 114.2 L188.9 114.0 L188.8 114.0 L188.7 114.1 L188.7 114.3 L188.5 114.7 L188.6 114.7 L188.8 114.8 L189.0 114.9 L189.1 115.0 L189.5 115.5 L189.6 115.7 L189.6 115.7 L189.6 115.7 L190.6 117.8 L190.9 118.5 L191.2 118.7 L191.8 119.2 L191.9 119.4 L192.1 120.0 L192.2 120.2 L192.3 120.4 L192.4 120.4 L192.6 120.4 L192.9 120.4 L193.1 120.4 L193.2 120.5 L193.2 120.6 L193.0 120.8 L192.7 121.4 L192.7 121.7 L193.0 122.4 L193.0 122.6 L193.1 122.6 L193.1 122.6 L193.4 122.6 L193.5 122.7 L193.6 122.7 L193.8 122.6 L194.0 122.6 L194.1 122.6 L194.2 122.9 L194.4 123.1 L194.5 123.3 L195.0 123.4 L195.0 123.6 L195.1 123.7 L195.4 124.0 L195.7 124.3 L195.7 124.4 L195.7 124.6 L195.8 124.7 L195.8 124.8 L196.6 125.3 L197.3 125.9 L197.6 126.1 L198.1 126.2 L198.6 126.3 L198.7 126.3 L198.9 126.2 L199.0 126.2 L199.2 126.2 L199.3 126.3 L199.4 126.4 L199.5 126.4 L199.7 126.6 L200.0 126.6 L201.4 126.7 L201.7 126.8 L201.7 126.6 L201.7 126.4 L201.7 126.2 L201.8 126.0 L201.9 125.8 L202.0 125.8 L202.1 125.7 L202.2 125.7 L202.3 125.5 L202.3 125.5 L202.5 124.9 L202.5 124.8 L202.5 124.7 L202.3 124.5 L202.3 124.4 L202.4 124.2 L203.5 123.5 L203.6 123.3 L203.7 123.1 L203.7 122.8 L203.5 122.7 L203.4 122.6 L203.2 122.4 L203.2 122.2 L203.4 122.0 L203.7 121.9 L203.9 121.8 L204.3 121.8 L204.4 121.7 L204.5 121.7 L204.6 121.5 L204.7 121.4 L204.9 121.2 L205.1 120.9 L205.3 120.7 L205.5 120.5 L205.8 120.5 L206.4 120.6 L206.7 120.5 L207.2 120.2 L207.4 120.1 L207.6 120.2 L208.2 120.4 L208.6 120.4 L209.7 120.0 L210.6 119.8 L211.3 119.6 L212.8 118.7 L213.3 118.5 L214.2 118.0 L214.4 117.9 L214.7 117.8 L214.8 117.8 L214.9 117.7 L214.9 117.5 L214.8 117.3 L214.7 117.1 L214.7 117.0 L214.7 116.9 L214.5 116.8 L214.4 116.6 L214.4 116.3 L214.4 116.0 L214.5 115.7 L214.5 115.7 L214.7 115.3 L214.8 115.0 L215.0 114.7 L215.4 114.4 L216.3 114.2 L216.5 114.0 L216.5 113.8 L216.5 113.6 L216.7 113.5 L216.5 113.3 L216.4 113.0 L216.4 113.0 L216.4 112.7 L216.5 112.4 L216.8 112.2 L217.1 112.1 L217.5 112.0 L217.8 111.8 L218.0 111.7 L218.1 111.6 L218.1 111.5 L218.1 111.3 L218.1 111.1 L218.4 110.8 L218.4 110.7 L218.4 110.6 L218.2 110.5 L218.2 110.4 L218.2 110.3 L218.2 110.1 L218.2 110.0 L218.0 109.8 L217.7 109.4 L217.5 108.9 L217.5 108.7 L217.3 108.5 L217.1 108.4 L217.0 108.3 L216.9 107.6 L216.5 107.4 L216.0 107.4 L215.6 107.3 L214.6 106.4 L214.2 106.2 L213.9 106.1 L213.7 106.0 L213.7 105.9 L213.7 105.6 L213.6 105.5 L213.3 105.4 L213.0 105.3 L212.8 105.3 Z" fill="#172033" fill-rule="evenodd"/></svg>
