<svg xmlns="http://www.w3.org/2000/svg" viewBox="0 0 320 200" role="img"><path d="M71.0 72.1 L71.1 72.3 L71.5 72.5 L72.3 73.0 L72.7 73.2 L72.9 73.2 L73.6 73.2 L74.4 73.5 L74.7 73.5 L76.4 73.5 L76.5 73.5 L76.7 73.7 L76.9 73.7 L77.0 73.6 L77.2 73.4 L77.3 73.4 L78.9 73.1 L80.1 72.6 L80.7 72.5 L81.0 72.7 L81.2 72.9 L82.1 73.2 L82.6 73.4 L83.1 73.7 L83.3 73.9 L83.5 74.3 L84.5 74.7 L84.8 75.1 L84.5 75.2 L84.4 75.6 L84.6 75.9 L84.8 76.2 L86.2 76.8 L87.2 76.9 L87.5 76.8 L88.8 76.2 L88.9 76.4 L89.1 76.1 L89.4 76.0 L89.9 76.0 L90.2 75.9 L90.2 75.8 L90.2 75.5 L90.2 75.4 L90.3 75.4 L90.7 75.3 L91.1 75.1 L91.6 75.0 L91.8 74.9 L92.7 74.3 L92.9 74.2 L93.1 74.2 L93.2 74.4 L93.4 74.7 L93.5 74.8 L93.7 74.9 L94.8 75.0 L95.0 75.1 L95.2 75.2 L95.3 75.4 L95.5 75.4 L96.3 75.3 L97.4 75.5 L99.2 76.4 L100.1 76.7 L100.7 76.8 L101.1 76.9 L101.4 77.2 L101.8 77.5 L102.1 77.8 L102.4 78.0 L103.8 78.4 L104.1 78.5 L104.4 78.4 L105.0 77.8 L105.3 77.6 L105.7 77.5 L106.2 77.5 L108.4 76.5 L109.0 76.7 L109.8 76.1 L110.0 76.0 L111.1 76.0 L111.5 75.9 L112.1 75.6 L112.8 75.0 L113.6 74.1 L114.4 73.2 L114.4 72.7 L114.3 72.1 L114.4 71.9 L114.6 71.6 L120.7 65.5 L123.0 63.4 L124.3 62.2 L124.9 61.1 L125.4 59.2 L125.7 58.4 L128.9 53.9 L129.8 52.9 L131.0 52.2 L134.5 50.8 L136.6 49.9 L138.9 48.1 L140.4 47.1 L148.8 43.9 L149.9 43.7 L150.5 43.7 L150.8 43.7 L151.0 43.5 L151.5 43.1 L151.7 42.7 L152.6 42.0 L152.9 41.7 L153.1 40.9 L153.1 40.7 L153.7 39.8 L153.7 39.3 L153.3 38.3 L153.2 37.9 L153.3 37.4 L153.9 36.2 L153.5 35.5 L153.6 34.6 L153.9 33.6 L154.0 32.9 L154.0 32.7 L153.9 32.6 L153.7 32.5 L153.7 32.3 L153.8 32.0 L154.1 31.5 L154.2 31.4 L154.7 30.8 L155.4 30.0 L155.8 29.9 L155.9 29.8 L156.4 29.7 L157.4 29.7 L158.0 29.6 L158.3 29.4 L158.7 28.5 L159.0 28.2 L159.3 27.9 L159.8 27.6 L160.2 27.5 L160.5 27.4 L161.3 26.6 L166.3 24.3 L166.7 24.2 L168.7 24.0 L169.1 23.8 L169.9 23.1 L170.5 22.9 L171.0 23.0 L171.4 23.1 L171.9 23.2 L172.5 23.1 L173.8 22.7 L174.8 22.5 L175.7 22.1 L176.2 22.0 L177.3 22.1 L179.2 22.6 L180.2 22.7 L181.1 22.6 L182.1 22.3 L183.0 22.2 L183.9 22.4 L184.5 22.8 L184.8 22.9 L185.1 22.8 L185.3 22.7 L185.6 22.4 L185.8 22.3 L186.4 22.4 L186.8 22.6 L187.5 22.9 L188.2 22.8 L189.1 22.5 L189.1 24.3 L189.2 26.5 L189.2 29.3 L189.2 30.9 L191.8 30.9 L193.5 30.9 L197.2 30.8 L199.7 30.8 L200.7 31.0 L201.7 31.7 L202.0 32.0 L202.4 32.3 L202.8 32.3 L203.3 32.1 L203.5 31.9 L204.0 31.4 L204.3 31.3 L204.5 31.3 L204.7 31.4 L204.8 31.5 L205.0 31.1 L205.6 30.8 L206.6 30.9 L209.0 31.4 L209.4 31.6 L209.8 31.8 L210.1 32.2 L210.5 33.0 L210.8 33.3 L211.3 33.5 L211.5 33.7 L211.6 33.9 L211.7 34.1 L211.8 34.3 L211.9 34.3 L212.1 34.3 L212.2 34.2 L212.3 34.3 L212.3 34.4 L212.2 34.5 L212.3 34.6 L212.7 34.6 L213.2 34.7 L213.7 34.7 L214.0 35.0 L214.9 35.4 L218.8 35.6 L219.3 35.9 L220.0 36.4 L221.4 37.8 L221.8 38.2 L222.8 38.7 L223.0 38.9 L223.2 39.3 L223.4 40.2 L223.6 40.6 L223.9 40.7 L226.3 41.1 L230.9 41.0 L232.7 41.3 L235.0 42.2 L238.7 43.6 L241.4 44.7 L241.7 44.9 L241.8 45.2 L241.8 45.7 L242.1 46.7 L242.7 47.1 L242.8 47.2 L242.8 47.2 L243.0 47.0 L243.3 46.9 L243.7 46.9 L244.4 46.9 L245.8 47.2 L246.5 47.2 L246.9 47.1 L247.6 46.7 L248.0 46.6 L248.3 46.5 L248.1 47.2 L247.5 49.6 L247.1 50.4 L246.7 50.8 L245.0 52.4 L245.1 52.5 L246.4 54.7 L247.3 56.4 L247.9 57.7 L248.2 59.1 L248.3 60.0 L248.3 60.2 L248.4 60.7 L248.6 61.2 L248.8 61.3 L249.3 61.6 L249.5 61.8 L249.5 62.2 L249.4 62.5 L249.3 62.7 L248.9 63.2 L248.0 64.9 L247.9 65.0 L247.7 65.2 L247.5 65.3 L247.5 65.6 L247.8 66.4 L247.9 66.5 L248.3 66.8 L249.1 67.2 L249.5 67.6 L249.6 68.1 L249.5 68.5 L249.1 69.4 L249.0 70.3 L249.1 71.3 L249.0 72.1 L248.4 72.5 L248.0 72.7 L247.7 73.1 L247.6 73.5 L247.5 74.0 L247.6 74.4 L247.8 75.1 L247.9 75.5 L247.8 75.8 L247.6 75.9 L247.4 76.1 L247.3 76.2 L247.4 76.5 L247.6 76.8 L247.6 77.0 L247.5 77.4 L247.5 77.9 L248.3 80.3 L248.4 81.1 L248.4 81.2 L248.2 81.7 L248.0 82.0 L247.9 82.2 L247.8 82.4 L248.0 82.8 L248.3 83.2 L249.4 84.1 L249.8 84.5 L250.0 85.0 L249.9 85.2 L249.2 85.7 L248.7 86.4 L248.6 86.3 L248.7 86.6 L249.0 86.9 L249.1 87.1 L248.9 87.6 L248.5 87.9 L248.0 88.1 L247.5 88.4 L247.1 88.6 L246.7 88.7 L246.3 88.9 L246.0 89.2 L246.0 89.6 L246.0 90.0 L246.3 90.9 L247.0 92.2 L247.2 92.8 L247.2 93.6 L247.0 94.2 L246.7 94.7 L246.3 95.0 L245.7 95.0 L244.8 95.0 L244.1 95.1 L241.9 96.0 L241.9 96.3 L242.0 97.5 L242.2 97.8 L242.4 98.0 L242.2 98.2 L241.9 98.3 L241.7 98.5 L241.7 98.8 L241.8 99.3 L241.9 99.6 L241.8 99.9 L241.9 100.2 L242.1 100.4 L242.3 100.5 L242.6 100.5 L244.1 100.3 L244.5 100.3 L244.7 100.4 L244.8 100.5 L244.9 100.7 L245.0 100.9 L245.1 101.2 L245.3 101.4 L245.5 101.6 L245.7 101.8 L245.8 102.6 L245.2 105.4 L245.1 106.0 L245.0 106.4 L244.9 106.8 L244.5 107.3 L243.7 108.2 L243.6 108.4 L243.7 109.1 L243.5 110.1 L243.5 110.5 L243.8 110.8 L244.2 110.8 L244.6 110.8 L245.0 110.9 L245.1 111.4 L245.1 111.8 L245.0 113.5 L245.0 113.7 L245.0 113.9 L245.1 114.2 L245.0 114.4 L244.8 114.6 L244.8 114.9 L244.8 115.4 L245.1 115.6 L245.5 115.7 L246.0 115.7 L246.6 115.6 L247.3 114.9 L247.7 114.8 L248.1 115.0 L248.1 115.5 L247.9 116.4 L248.1 116.8 L248.5 117.1 L249.0 117.4 L249.5 117.6 L249.7 117.9 L249.7 118.3 L249.5 118.9 L249.5 119.8 L249.0 121.2 L248.9 122.9 L249.1 123.4 L249.2 123.6 L247.9 123.6 L247.6 123.8 L247.5 124.5 L247.3 124.8 L246.9 125.0 L246.6 125.0 L246.3 125.2 L246.2 126.3 L246.1 126.7 L245.7 127.3 L245.7 127.5 L245.7 127.6 L245.9 127.9 L245.9 128.1 L245.7 128.8 L245.6 129.2 L245.4 129.5 L244.4 130.6 L242.9 132.4 L242.2 133.7 L241.4 135.1 L240.9 135.7 L239.9 135.9 L238.8 135.7 L237.8 135.8 L237.1 136.7 L236.8 137.7 L236.8 138.7 L237.1 141.1 L237.4 143.5 L237.3 144.4 L236.7 145.4 L235.6 146.8 L233.8 148.9 L233.9 149.1 L234.3 149.3 L234.5 149.6 L234.6 149.6 L234.7 149.6 L234.7 149.7 L234.7 149.8 L234.7 150.0 L234.6 150.1 L234.5 150.2 L236.2 152.9 L236.2 153.0 L236.3 153.1 L235.4 152.5 L234.6 153.4 L233.5 154.6 L232.2 155.8 L231.0 157.1 L229.8 158.3 L228.6 159.6 L227.4 160.8 L226.2 162.1 L225.0 163.3 L223.8 164.6 L222.6 165.8 L221.4 167.1 L220.2 168.3 L219.0 169.6 L217.8 170.8 L216.6 172.1 L215.4 173.3 L214.2 174.6 L213.0 175.8 L211.5 176.8 L209.6 178.0 L209.1 177.3 L208.9 177.1 L208.6 177.1 L208.3 177.2 L208.1 177.3 L207.9 177.2 L207.5 177.0 L207.4 176.9 L207.2 176.8 L206.7 176.3 L206.5 176.1 L206.2 176.2 L205.4 176.5 L205.2 176.6 L205.0 176.6 L204.6 176.5 L203.8 176.2 L201.3 175.7 L199.9 175.5 L199.3 175.4 L198.5 175.6 L195.9 175.8 L195.5 176.0 L194.9 176.4 L194.5 176.5 L194.4 176.4 L194.0 176.2 L193.8 176.1 L193.1 176.1 L191.7 176.0 L191.2 176.0 L190.8 176.1 L189.9 176.5 L189.5 176.6 L188.5 176.8 L187.7 176.8 L186.9 176.6 L186.2 176.1 L185.9 175.9 L185.5 175.7 L185.1 175.6 L184.5 175.5 L183.5 175.6 L183.1 175.6 L182.5 175.4 L181.9 174.9 L181.5 174.8 L180.9 174.7 L180.8 174.6 L180.8 174.5 L180.3 174.1 L180.1 174.0 L179.6 173.9 L179.4 173.8 L178.8 173.4 L178.4 173.3 L177.6 173.3 L177.0 173.0 L176.2 172.8 L174.9 172.0 L174.4 171.9 L172.9 171.9 L172.6 172.0 L172.2 171.8 L171.7 171.8 L170.9 172.2 L170.1 172.1 L169.7 172.2 L169.5 172.6 L169.2 172.8 L168.6 172.8 L167.5 172.5 L167.0 172.6 L166.2 173.1 L165.7 173.3 L165.3 173.3 L165.2 173.3 L165.0 173.2 L163.3 171.7 L163.1 171.5 L163.0 171.1 L162.8 170.9 L162.6 170.6 L162.5 170.5 L160.3 170.6 L159.5 170.5 L158.6 170.0 L157.9 169.3 L157.5 168.5 L157.3 167.5 L157.4 166.5 L157.7 166.0 L158.0 165.5 L158.3 164.9 L158.3 164.5 L157.9 164.2 L157.0 163.9 L156.5 163.7 L155.9 163.5 L154.5 163.5 L153.8 163.3 L150.4 161.8 L149.4 161.5 L148.5 160.8 L148.1 160.7 L147.5 160.7 L146.7 160.5 L146.5 160.5 L146.2 160.7 L145.4 160.8 L145.1 161.0 L144.7 161.0 L144.2 160.9 L142.3 160.0 L141.4 159.7 L140.5 159.6 L137.8 159.6 L136.1 159.2 L134.7 159.2 L134.4 159.0 L134.0 158.8 L133.8 158.6 L133.6 158.3 L133.4 157.9 L133.3 157.7 L133.2 157.6 L133.0 157.6 L132.9 157.6 L132.8 157.4 L132.9 157.1 L132.8 156.9 L132.7 156.9 L132.6 156.9 L132.6 156.6 L132.8 156.4 L132.9 156.2 L132.8 155.9 L132.2 154.6 L131.8 154.2 L131.6 154.0 L131.6 153.9 L131.6 153.5 L131.6 153.3 L131.3 153.0 L130.5 152.1 L129.9 151.2 L129.2 150.4 L127.6 149.3 L127.3 149.0 L126.5 147.9 L126.3 147.5 L126.3 147.1 L126.6 145.9 L126.6 145.4 L126.5 144.1 L126.5 143.9 L126.5 143.4 L126.5 143.1 L126.5 142.8 L126.7 142.6 L126.8 142.4 L127.0 142.1 L127.3 140.3 L127.3 139.3 L126.7 137.5 L126.9 136.7 L127.1 135.9 L127.2 135.0 L127.0 134.6 L126.7 134.3 L126.3 134.1 L125.4 134.1 L124.6 133.7 L123.3 134.0 L121.4 133.7 L118.8 133.7 L118.0 133.8 L117.2 134.3 L117.5 130.9 L117.1 128.2 L115.9 125.4 L115.6 125.0 L115.2 124.8 L114.7 124.6 L114.2 124.5 L114.0 124.5 L113.7 124.6 L113.5 124.5 L113.2 124.4 L113.0 124.3 L112.6 123.7 L112.4 123.5 L111.6 123.1 L110.9 123.0 L110.1 123.0 L109.3 122.9 L106.7 121.6 L105.8 121.5 L105.3 121.5 L104.8 121.4 L104.4 121.2 L104.1 120.8 L103.7 120.4 L103.6 120.3 L103.5 120.2 L103.2 120.0 L102.1 119.7 L101.7 119.5 L101.4 119.2 L101.2 118.7 L101.0 118.3 L100.6 117.9 L99.7 117.3 L99.2 117.2 L98.3 117.0 L97.9 116.8 L97.5 116.4 L96.8 115.5 L96.3 115.2 L95.6 115.1 L95.4 115.0 L95.2 114.8 L95.2 114.8 L95.3 114.7 L95.5 114.4 L95.7 114.0 L95.6 113.8 L95.4 113.5 L95.2 113.3 L95.0 113.1 L94.7 113.0 L93.5 113.0 L92.5 112.7 L91.6 112.2 L91.0 111.4 L88.8 105.5 L88.2 104.5 L87.6 103.6 L87.0 102.7 L86.8 102.2 L86.7 101.7 L86.8 101.2 L87.2 100.4 L87.2 99.9 L87.2 99.9 L86.6 98.0 L83.7 95.6 L82.9 93.9 L82.8 92.2 L82.5 91.4 L81.9 90.9 L81.0 90.4 L80.4 89.9 L79.3 88.4 L79.0 88.1 L78.2 87.6 L76.7 86.0 L76.4 85.6 L76.3 85.3 L76.1 84.3 L75.9 83.8 L75.1 82.7 L74.4 80.9 L73.9 80.1 L73.2 79.5 L72.4 79.1 L71.8 78.4 L70.9 76.9 L70.2 75.3 L70.0 74.7 L70.0 74.1 L71.0 72.1 Z" fill="#172033" fill-rule="evenodd"/></svg>
